<svg width="82" height="24" viewBox="0 0 82 24" fill="none" xmlns="http://www.w3.org/2000/svg">
    <path d="M24.749 16.3202C24.749 15.6371 24.8869 15.0905 25.0248 14.5441C25.1627 13.9975 25.5765 13.451 25.9903 13.0411C26.404 12.6312 26.8178 12.358 27.3695 12.0846C27.9212 11.8114 28.4728 11.6748 29.1625 11.6748C29.7142 11.6748 30.1279 11.8115 30.5418 11.9481C30.9555 12.0847 31.3692 12.358 31.6451 12.6312V11.9481H33.8519V20.6923H31.6451V20.0093C31.2313 20.2825 30.9555 20.5557 30.5418 20.6923C30.1279 20.829 29.7142 20.9656 29.1625 20.9656C28.4728 20.9656 27.9212 20.829 27.3695 20.5557C26.8178 20.2824 26.404 20.0092 25.9903 19.5992C25.5765 19.1894 25.3007 18.7795 25.0248 18.0964C24.749 17.4132 24.749 17.0034 24.749 16.3202ZM29.4383 18.9162C29.5763 18.9162 29.8521 18.9162 29.99 18.9162C30.1279 18.9162 30.4038 18.7795 30.5418 18.7795C30.6797 18.6429 30.9555 18.5063 31.0934 18.3697C31.2313 18.233 31.5072 17.9598 31.6451 17.8231V15.0906C31.5072 14.8173 31.2313 14.6807 31.0934 14.5441C30.9555 14.4075 30.6797 14.2708 30.5418 14.1341C30.4038 13.9974 30.1279 13.9975 29.99 13.9975C29.8521 13.9975 29.5763 13.9975 29.4383 13.9975C29.0246 13.9975 28.7488 13.9974 28.4728 14.1341C28.197 14.2708 27.9212 14.4074 27.7833 14.6807C27.5074 14.9539 27.3695 15.2272 27.2316 15.5004C27.0937 15.7736 27.0937 16.1836 27.0937 16.4568C27.0937 16.7301 27.0937 17.14 27.2316 17.4132C27.3695 17.6865 27.5074 17.9598 27.7833 18.233C28.0591 18.5062 28.3349 18.6429 28.4728 18.7795C28.7488 18.9162 29.0246 18.9162 29.4383 18.9162ZM39.2309 13.9975C38.1275 13.9975 37.3 14.6806 37.3 15.7737V20.6923H35.0931V15.7737C35.0931 13.7242 36.8861 11.8115 39.2309 11.8115C41.5755 11.8115 43.3685 13.7242 43.3685 15.7737V20.6923H41.1618V15.7737C41.1618 14.6806 40.1963 13.9975 39.2309 13.9975ZM44.334 16.3202C44.334 15.6371 44.4719 15.0905 44.6098 14.5441C44.7477 13.9975 45.1615 13.451 45.5753 13.0411C45.9891 12.6312 46.4028 12.358 46.9545 12.0846C47.5062 11.8114 48.0579 11.6748 48.7475 11.6748C49.2992 11.6748 49.713 11.8115 50.1267 11.9481C50.5405 12.0847 50.9543 12.358 51.2301 12.6312V9.21553H53.4369V20.5557H51.2301V19.8726C50.8164 20.1458 50.5405 20.419 50.1267 20.5557C49.713 20.6923 49.2992 20.829 48.7475 20.829C48.0579 20.829 47.5062 20.6923 46.9545 20.4191C46.4028 20.1458 45.9891 19.8726 45.5753 19.4627C45.1615 19.0528 44.8857 18.6429 44.6098 17.9598C44.334 17.2767 44.334 17.0034 44.334 16.3202ZM49.0234 18.9162C49.1613 18.9162 49.4371 18.9162 49.575 18.9162C49.713 18.9162 49.9888 18.7795 50.1267 18.7795C50.2646 18.6429 50.5405 18.5063 50.6784 18.3697C50.8164 18.233 51.0922 17.9598 51.2301 17.8231V15.0906C51.0922 14.8173 50.8164 14.6807 50.6784 14.5441C50.5405 14.4075 50.2646 14.2708 50.1267 14.1341C49.9888 13.9974 49.713 13.9975 49.575 13.9975C49.4371 13.9975 49.1613 13.9975 49.0234 13.9975C48.6095 13.9975 48.3337 13.9974 48.0579 14.1341C47.7821 14.2708 47.5062 14.4074 47.3683 14.6807C47.0924 14.9539 46.9545 15.2272 46.8166 15.5004C46.6786 15.7736 46.6786 16.1836 46.6786 16.4568C46.6786 16.7301 46.6786 17.14 46.8166 17.4132C46.9545 17.6865 47.0924 17.9598 47.3683 18.233C47.6441 18.5062 47.92 18.6429 48.0579 18.7795C48.3337 18.9162 48.6095 18.9162 49.0234 18.9162ZM63.6431 18.9162C63.9189 18.9162 64.1948 18.9162 64.6086 18.7795C64.8844 18.6429 65.1603 18.5062 65.2982 18.233C65.574 17.9598 65.7119 17.6865 65.8498 17.4132C65.9878 17.14 65.9878 16.7301 65.9878 16.4568C65.9878 16.1836 65.9878 15.7736 65.8498 15.5004C65.7119 15.2272 65.574 14.9539 65.2982 14.6807C65.0224 14.4074 64.7465 14.2708 64.6086 14.1341C64.3327 13.9974 64.0569 13.9975 63.6431 13.9975C63.3673 13.9975 63.0915 13.9974 62.6777 14.1341C62.4018 14.2708 62.126 14.4074 61.988 14.6807C61.7122 14.9539 61.5743 15.2272 61.4364 15.5004C61.2985 15.7736 61.2985 16.1836 61.2985 16.4568C61.2985 16.7301 61.2985 17.14 61.4364 17.4132C61.5743 17.6865 61.7122 17.9598 61.988 18.233C62.2639 18.5062 62.5397 18.6429 62.6777 18.7795C62.9535 18.7795 63.3673 18.9162 63.6431 18.9162ZM63.6431 20.9656C63.0915 20.9656 62.4018 20.829 61.8501 20.5557C61.2985 20.2824 60.7467 20.0092 60.333 19.5992C59.9192 19.1894 59.6434 18.7795 59.3676 18.0964C59.0916 17.5499 58.9537 17.0034 58.9537 16.3202C58.9537 15.7737 59.0916 15.0905 59.3676 14.5441C59.6434 13.9975 59.9192 13.451 60.333 13.0411C60.7467 12.6312 61.2985 12.358 61.8501 12.0846C62.4018 11.8114 62.9535 11.6748 63.6431 11.6748C64.1948 11.6748 64.8844 11.8114 65.4361 12.0846C65.9878 12.358 66.5395 12.6312 66.9533 13.0411C67.367 13.451 67.6428 13.8609 67.9188 14.5441C68.1946 15.0905 68.3325 15.6371 68.3325 16.3202C68.3325 17.0034 68.1946 17.5499 67.9188 18.0964C67.6428 18.6429 67.367 19.1894 66.9533 19.5992C66.5395 20.0092 65.9878 20.2824 65.4361 20.5557C64.8844 20.829 64.3327 20.9656 63.6431 20.9656ZM70.2634 11.2649C70.1255 11.2649 69.8497 11.2649 69.7117 11.1283C69.5738 10.9917 69.4358 10.9917 69.2979 10.8551C69.16 10.7185 69.0221 10.5819 69.0221 10.4452C68.8842 10.3085 68.8842 10.1719 68.8842 9.8987C68.8842 9.76199 68.8842 9.48876 69.0221 9.35215C69.16 9.21544 69.16 9.07883 69.2979 8.94221C69.4358 8.80559 69.5738 8.66898 69.7117 8.66898C69.8497 8.53236 69.9876 8.53236 70.2634 8.53236C70.4013 8.53236 70.6772 8.53236 70.8151 8.66898C70.953 8.80559 71.0909 8.80559 71.2289 8.94221C71.3668 9.07883 71.5047 9.21544 71.5047 9.35215C71.6426 9.48876 71.6426 9.62538 71.6426 9.8987C71.6426 10.0353 71.6426 10.3085 71.5047 10.4452C71.3668 10.5819 71.3668 10.7185 71.2289 10.8551C71.0909 10.9917 70.953 11.1283 70.8151 11.1283C70.5392 11.2649 70.5392 11.2649 70.2634 11.2649ZM69.16 12.0846H71.3668V20.829H69.16V12.0846ZM72.4701 16.3202C72.4701 15.6371 72.6081 15.0905 72.746 14.5441C73.0219 13.9975 73.2977 13.451 73.7115 13.0411C74.1252 12.6312 74.5389 12.358 75.0907 12.0846C75.642 11.8114 76.1937 11.6748 76.8832 11.6748C77.4358 11.6748 77.8495 11.8115 78.2632 11.9481C78.677 12.0847 79.0907 12.358 79.3665 12.6312V9.21553H81.5731V20.5557H79.3665V19.8726C78.9528 20.1458 78.677 20.419 78.2632 20.5557C77.8495 20.6923 77.4358 20.829 76.8832 20.829C76.1937 20.829 75.642 20.6923 75.0907 20.4191C74.5389 20.1458 74.1252 19.8726 73.7115 19.4627C73.2977 19.0528 73.0219 18.6429 72.746 17.9598C72.4701 17.5499 72.4701 17.0034 72.4701 16.3202ZM77.0221 18.9162C77.16 18.9162 77.4358 18.9162 77.5737 18.9162C77.7116 18.9162 77.9874 18.7795 78.1253 18.7795C78.2632 18.6429 78.5391 18.5063 78.677 18.3697C78.8149 18.233 79.0907 17.9598 79.2286 17.8231V15.0906C79.0907 14.8173 78.8149 14.6807 78.677 14.5441C78.5391 14.4075 78.2632 14.2708 78.1253 14.1341C77.9874 13.9974 77.7116 13.9975 77.5737 13.9975C77.4358 13.9975 77.16 13.9975 77.0221 13.9975C76.6074 13.9975 76.3316 13.9974 76.0558 14.1341C75.7799 14.2708 75.5041 14.4074 75.3665 14.6807C75.0907 14.9539 74.9528 15.2272 74.8149 15.5004C74.677 15.7736 74.6769 16.1836 74.6769 16.4568C74.6769 16.7301 74.677 17.14 74.8149 17.4132C74.9528 17.6865 75.0907 17.9598 75.3665 18.233C75.642 18.5062 75.9179 18.6429 76.0558 18.7795C76.4695 18.9162 76.7453 18.9162 77.0221 18.9162ZM58.8158 13.9975C57.2987 13.9975 56.747 14.6806 56.747 15.7737V20.6923H54.5403V15.7737C54.5403 13.7242 55.7815 11.6748 58.8158 11.6748" fill="white"/>
    <path d="M5.83156 0.193338L6.96222 2.0797C4.93897 3.08178 3.57031 4.96818 3.57031 7.14923H9.99706H16.4238C16.4238 4.96818 15.0552 3.02289 13.0319 2.0797L14.1625 0.193338C14.1625 0.193338 14.222 0.0754521 14.103 0.0165044C13.984 -0.0424433 13.9245 0.0754613 13.9245 0.0754613L12.7939 2.02074C11.9608 1.66706 10.9492 1.43126 9.93752 1.43126C8.92594 1.43126 7.97381 1.66706 7.08122 2.02074L5.95064 0.0754613C5.95064 0.0754613 5.8911 -0.0424433 5.77211 0.0165044C5.83156 0.1344 5.83156 0.193338 5.83156 0.193338ZM6.96222 3.90711C7.3193 3.90711 7.55728 4.20185 7.55728 4.49658C7.55728 4.85031 7.25975 5.08606 6.96222 5.08606C6.60515 5.08606 6.36717 4.85031 6.36717 4.49658C6.36717 4.20185 6.60515 3.90711 6.96222 3.90711ZM13.0914 3.90711C13.4484 3.90711 13.6865 4.20185 13.6865 4.49658C13.6865 4.85031 13.389 5.08606 13.0914 5.08606C12.7344 5.08606 12.4964 4.85031 12.4964 4.49658C12.4964 4.20185 12.7344 3.90711 13.0914 3.90711Z" fill="#A4C639"/>
    <path d="M3.51074 7.97447V17.642C3.51074 18.1136 4.1058 18.762 4.58187 18.762H6.12896V22.0632C6.12896 22.8884 6.72412 23.5958 7.49762 23.5958C8.27121 23.5958 8.86627 22.9474 8.86627 22.0632V18.762H11.0681V22.0632C11.0681 22.8884 11.6631 23.5958 12.4367 23.5958C13.2103 23.5958 13.8054 22.9474 13.8054 22.0632V18.762H15.3525C15.8285 18.762 16.4237 18.1136 16.4237 17.642V7.97447H3.51074Z" fill="#A4C639"/>
    <path d="M1.36865 7.73872C2.14225 7.73872 2.73731 8.44607 2.73731 9.27139V14.9894C2.73731 15.8146 2.14225 16.522 1.36865 16.522C0.595059 16.522 0 15.8146 0 14.9894V9.27139C0 8.44607 0.654602 7.73872 1.36865 7.73872Z" fill="#A4C639"/>
    <path d="M18.6849 7.73872C19.4585 7.73872 20.0536 8.44607 20.0536 9.27139V14.9894C20.0536 15.8146 19.4585 16.522 18.6849 16.522C17.9113 16.522 17.3163 15.8146 17.3163 14.9894V9.27139C17.2568 8.44607 17.9113 7.73872 18.6849 7.73872Z" fill="#A4C639"/>
    <path d="M24.8144 1.43129H25.945C26.7186 1.43129 27.2542 1.54919 27.6112 1.72603C27.9683 1.90288 28.2658 2.19762 28.5038 2.61026C28.7419 3.02289 28.8609 3.49449 28.8609 4.02498C28.8609 4.43769 28.8013 4.79132 28.6823 5.08606C28.5633 5.43978 28.3848 5.67554 28.1468 5.91138C27.9087 6.14714 27.6707 6.26501 27.3732 6.38298C27.0757 6.44188 26.6592 6.50086 25.945 6.50086H24.7549V1.43129H24.8144ZM25.826 2.37447V5.55766H26.3021C26.7781 5.55766 27.0757 5.49877 27.2542 5.3808C27.4327 5.26292 27.6112 5.08606 27.7303 4.85031C27.8493 4.61455 27.9087 4.31981 27.9087 3.96609C27.9087 3.43551 27.7303 3.02289 27.4327 2.72816C27.1351 2.43342 26.7186 2.31552 26.1235 2.31552H25.826V2.37447Z" fill="white"/>
    <path d="M32.2529 1.3134C32.967 1.3134 33.6216 1.54919 34.0977 2.07972C34.5737 2.61026 34.8713 3.25874 34.8713 3.96609C34.8713 4.73243 34.6332 5.3219 34.0977 5.8524C33.562 6.38298 32.967 6.61873 32.1934 6.61873C31.4198 6.61873 30.7653 6.38298 30.2892 5.8524C29.8132 5.3219 29.5156 4.67344 29.5156 3.96609C29.5156 3.49449 29.6346 3.02289 29.8727 2.61026C30.1107 2.19761 30.4082 1.90286 30.8247 1.66707C31.2414 1.43128 31.7769 1.3134 32.2529 1.3134ZM32.2529 2.25656C31.7769 2.25656 31.3603 2.43341 31.0628 2.72816C30.7653 3.08187 30.5867 3.49449 30.5867 3.96609C30.5867 4.55557 30.7653 4.96818 31.1818 5.3219C31.4793 5.55766 31.8364 5.73452 32.2529 5.73452C32.729 5.73452 33.086 5.55766 33.4431 5.26292C33.8001 4.96818 33.9191 4.49658 33.9191 4.02498C33.9191 3.55338 33.7406 3.14077 33.4431 2.78713C33.1455 2.43342 32.729 2.25656 32.2529 2.25656Z" fill="white"/>
    <path d="M35.4658 1.43129H36.4179L37.132 4.67344L38.0247 1.43129H38.8577L39.8099 4.67344L40.5239 1.43129H41.476L40.3454 6.50086H39.3932L38.4412 3.19975L37.4891 6.50086H36.5369L35.4658 1.43129Z" fill="white"/>
    <path d="M42.249 1.43129H43.2012L45.4029 4.79132V1.43129H46.355V6.50086H45.4029L43.2012 3.14077V6.50086H42.249V1.43129Z" fill="white"/>
    <path d="M47.5459 1.43129H48.498V5.61664H49.9261V6.55984H47.5459V1.43129Z" fill="white"/>
    <path d="M53.0801 1.3134C53.7941 1.3134 54.4487 1.54919 54.9247 2.07972C55.4008 2.61026 55.6983 3.25874 55.6983 3.96609C55.6983 4.73243 55.4603 5.3219 54.9247 5.8524C54.3892 6.38298 53.7941 6.61873 53.0205 6.61873C52.2469 6.61873 51.5923 6.38298 51.1164 5.8524C50.5808 5.3219 50.3428 4.67344 50.3428 3.96609C50.3428 3.49449 50.4618 3.02289 50.6997 2.61026C50.9378 2.19761 51.2354 1.90286 51.6519 1.66707C52.1874 1.43128 52.604 1.3134 53.0801 1.3134ZM53.0801 2.25656C52.604 2.25656 52.1874 2.43341 51.8899 2.72816C51.5923 3.08187 51.4139 3.49449 51.4139 3.96609C51.4139 4.55557 51.5923 4.96818 52.009 5.3219C52.3065 5.55766 52.6635 5.73452 53.0801 5.73452C53.5561 5.73452 53.9131 5.55766 54.2702 5.26292C54.6272 4.96818 54.7463 4.49658 54.7463 4.02498C54.7463 3.55338 54.5677 3.14077 54.2702 2.78713C53.9727 2.43342 53.5561 2.25656 53.0801 2.25656Z" fill="white"/>
    <path d="M58.2567 1.43129H59.2683L61.232 6.50086H60.2204L59.8039 5.43978H57.7212L57.3046 6.50086H56.293L58.2567 1.43129ZM58.7328 2.78714L58.0187 4.55557H59.3874L58.7328 2.78714Z" fill="white"/>
    <path d="M61.9463 1.43129H63.0769C63.8504 1.43129 64.386 1.54919 64.743 1.72603C65.1001 1.90288 65.3976 2.19762 65.6357 2.61026C65.8737 3.02289 65.9927 3.49449 65.9927 4.02498C65.9927 4.43769 65.9332 4.79132 65.8142 5.08606C65.6952 5.3808 65.5166 5.67554 65.2786 5.91138C65.0406 6.14714 64.8026 6.26501 64.505 6.38298C64.2075 6.44188 63.791 6.50086 63.0769 6.50086H61.8867V1.43129H61.9463ZM62.9578 2.37447V5.55766H63.4339C63.91 5.55766 64.2075 5.49877 64.386 5.3808C64.5646 5.26292 64.7431 5.08606 64.8621 4.85031C64.9811 4.61455 65.0406 4.31981 65.0406 3.96609C65.0406 3.43551 64.8621 3.02289 64.5646 2.72816C64.2671 2.43342 63.8504 2.31552 63.2554 2.31552H62.9578V2.37447Z" fill="white"/>
    <path d="M70.5155 1.43129H71.5271L73.4908 6.50086H72.4792L72.0627 5.43978H69.98L69.5633 6.50086H68.5518L70.5155 1.43129ZM71.051 2.78714L70.3369 4.55557H71.7056L71.051 2.78714Z" fill="white"/>
    <path d="M74.2637 1.43129H75.2753C75.8107 1.43129 76.2272 1.49025 76.4657 1.60815C76.7034 1.72604 76.8823 1.90289 77.0602 2.07973C77.2391 2.25657 77.2988 2.61026 77.2988 2.90501C77.2988 3.25865 77.1795 3.55348 77.0006 3.78923C76.8226 4.02498 76.5841 4.20184 76.2272 4.26083C76.0492 4.31981 75.6914 4.31972 75.2157 4.31972V6.50086H74.2637V1.43129ZM75.2157 3.43551H75.5134C75.751 3.43551 75.9299 3.43551 76.0492 3.37661C76.1676 3.31763 76.2272 3.25864 76.2868 3.19975C76.3465 3.14077 76.3465 3.02289 76.3465 2.90501C76.3465 2.72815 76.2868 2.55132 76.1079 2.49237C75.9896 2.43342 75.8107 2.37447 75.5134 2.37447H75.2157V3.43551Z" fill="white"/>
    <path d="M78.251 1.43129H79.262V3.19975L80.6308 1.43129H81.8208L80.0354 3.67135L81.9997 6.50086H80.8685L79.262 4.26083V6.50086H78.251V1.43129Z" fill="white"/>
</svg>
