<svg width="85" height="24" viewBox="0 0 85 24" fill="none" xmlns="http://www.w3.org/2000/svg">
<path opacity="0.85" fill-rule="evenodd" clip-rule="evenodd" d="M11.6861 4.07457C12.3526 3.24212 12.8087 2.1096 12.6821 0.960327C11.7174 1.00298 10.511 1.62674 9.81631 2.4409C9.20164 3.15834 8.65262 4.3343 8.79441 5.44015C9.87806 5.52088 10.9907 4.89406 11.6861 4.07457ZM14.1267 11.2931C14.1047 8.8568 16.1088 7.6622 16.2298 7.5901L16.2322 7.58868C15.08 5.91085 13.294 5.68158 12.6664 5.66335C11.7487 5.56687 10.8478 5.92398 10.1117 6.21575C9.64466 6.4009 9.24388 6.55973 8.94724 6.55973C8.60948 6.55973 8.19715 6.3943 7.73515 6.20884C7.13091 5.96637 6.44167 5.68976 5.72302 5.70446C4.09111 5.72959 2.56438 6.67324 1.72711 8.13853C-0.000905156 11.1263 1.28785 15.517 2.9434 17.9321C3.77158 19.1149 4.73931 20.4356 6.00594 20.3891C6.58054 20.3654 6.98822 20.1941 7.40933 20.0171C7.89638 19.8124 8.40144 19.6 9.20344 19.6C9.95998 19.6 10.4435 19.8057 10.9076 20.0031C11.3524 20.1923 11.7794 20.3739 12.4117 20.3593C13.7416 20.338 14.5789 19.1713 15.3781 17.9778C16.3351 16.6221 16.7195 15.2871 16.7348 15.2185C16.7035 15.2079 14.1519 14.2352 14.1267 11.2931ZM30.3274 20.2194H32.0592L28.7763 10.0838H26.7584L23.4915 20.2194H25.1776L26.0813 17.2422H29.3787L30.3274 20.2194ZM28.2348 13.3466L29.0927 15.9932H26.368L27.2107 13.3466C27.4319 12.505 27.5928 11.8683 27.6926 11.4372H27.7232C27.9741 12.4395 28.1441 13.0762 28.2348 13.3466ZM40.4608 16.4752C40.4608 17.7181 40.1245 18.7006 39.4518 19.4219C38.8494 20.0639 38.1013 20.3845 37.2083 20.3845C36.2444 20.3845 35.552 20.0387 35.1303 19.3472H35.0998V23.1971H33.474V15.3167C33.474 14.5353 33.4534 13.7333 33.4137 12.9108H34.8436L34.9343 14.0692H34.9648C35.507 13.1964 36.3299 12.7608 37.4341 12.7608C38.2973 12.7608 39.018 13.1012 39.5945 13.7829C40.1725 14.4653 40.4608 15.3625 40.4608 16.4752ZM38.8045 16.5346C38.8045 15.8232 38.6443 15.2368 38.3225 14.7753C37.9709 14.2939 37.4989 14.0532 36.9071 14.0532C36.506 14.0532 36.1415 14.1873 35.8159 14.4515C35.4895 14.7181 35.276 15.0662 35.1761 15.4972C35.1258 15.6983 35.1005 15.8628 35.1005 15.9923V17.2109C35.1005 17.7424 35.2637 18.1911 35.5901 18.5574C35.9165 18.9238 36.3405 19.1065 36.8621 19.1065C37.4745 19.1065 37.9511 18.8704 38.292 18.3997C38.6336 17.9283 38.8045 17.3069 38.8045 16.5346ZM47.8678 19.4219C48.5412 18.7006 48.8774 17.7181 48.8774 16.4752C48.8774 15.3625 48.5884 14.4653 48.0127 13.7829C47.4347 13.1012 46.714 12.7608 45.8515 12.7608C44.7466 12.7608 43.9237 13.1964 43.3823 14.0692H43.3518L43.261 12.9108H41.8312C41.8708 13.7333 41.8915 14.5353 41.8915 15.3167V23.1971H43.5172V19.3472H43.5478C43.9687 20.0387 44.6611 20.3845 45.625 20.3845C46.518 20.3845 47.2661 20.0639 47.8678 19.4219ZM46.7384 14.7753C47.0602 15.2368 47.2211 15.8232 47.2211 16.5346C47.2211 17.3069 47.0503 17.9283 46.7087 18.3997C46.3678 18.8704 45.8912 19.1065 45.2789 19.1065C44.7557 19.1065 44.3317 18.9229 44.0053 18.5574C43.6805 18.1911 43.5172 17.7424 43.5172 17.2109V15.9923C43.5172 15.8628 43.5432 15.6983 43.5928 15.4972C43.6926 15.0662 43.9054 14.7181 44.2318 14.4515C44.5582 14.1873 44.922 14.0532 45.3238 14.0532C45.9163 14.0532 46.3869 14.2939 46.7384 14.7753ZM58.2873 17.3769C58.2873 18.239 57.9876 18.9404 57.3859 19.4819C56.7248 20.0737 55.8044 20.3693 54.6216 20.3693C53.5296 20.3693 52.6541 20.159 51.9914 19.7379L52.3681 18.3845C53.0819 18.8155 53.8651 19.0318 54.7184 19.0318C55.3308 19.0318 55.8074 18.8932 56.1498 18.6175C56.4907 18.3418 56.6608 17.9716 56.6608 17.5102C56.6608 17.0989 56.5204 16.7524 56.239 16.4713C55.9591 16.1903 55.4917 15.9291 54.8389 15.6876C53.0621 15.0258 52.1744 14.0562 52.1744 12.7813C52.1744 11.9481 52.4856 11.2649 53.1086 10.7333C53.7294 10.2009 54.5575 9.93519 55.5931 9.93519C56.5166 9.93519 57.2837 10.0959 57.8961 10.4165L57.4897 11.7402C56.9177 11.4294 56.2711 11.2741 55.5473 11.2741C54.9754 11.2741 54.5286 11.415 54.2082 11.6952C53.9375 11.9458 53.8018 12.2512 53.8018 12.613C53.8018 13.0136 53.9566 13.3449 54.2677 13.6053C54.5385 13.846 55.0303 14.1065 55.7441 14.3875C56.6172 14.7387 57.2586 15.1492 57.6712 15.6198C58.0822 16.089 58.2873 16.6762 58.2873 17.3769ZM61.8708 14.1293H63.6629V12.9092H61.8708V11.0897L60.274 11.571V12.9092H59.2064V14.1277H60.274V17.8117C60.274 18.734 60.4555 19.3905 60.8162 19.782C61.1785 20.1727 61.6802 20.3684 62.3223 20.3684C62.8447 20.3684 63.2664 20.3083 63.5867 20.1887L63.5417 18.9556C63.3511 19.0058 63.1101 19.031 62.8195 19.031C62.1866 19.031 61.8708 18.5802 61.8708 17.6776V14.1293ZM71.7482 16.5051C71.7482 17.6284 71.4263 18.5508 70.7849 19.272C70.1111 20.0145 69.2176 20.3847 68.1035 20.3847C67.0299 20.3847 66.1746 20.029 65.5372 19.3177C64.8997 18.6063 64.5809 17.7084 64.5809 16.6262C64.5809 15.4936 64.9088 14.566 65.567 13.8447C66.2234 13.1227 67.1094 12.7617 68.2235 12.7617C69.2971 12.7617 70.1614 13.1174 70.8134 13.8295C71.4376 14.5203 71.7482 15.4121 71.7482 16.5051ZM70.0616 16.5576C70.0616 15.8836 69.9176 15.3055 69.6257 14.8234C69.2844 14.24 68.7975 13.9491 68.1658 13.9491C67.5123 13.9491 67.0157 14.2408 66.6751 14.8234C66.3832 15.3063 66.2384 15.8935 66.2384 16.5881C66.2384 17.2621 66.3832 17.8401 66.6751 18.3215C67.0262 18.9049 67.5176 19.1958 68.1515 19.1958C68.772 19.1958 69.2596 18.8988 69.6107 18.3063C69.9108 17.8151 70.0616 17.2309 70.0616 16.5576ZM76.5212 14.2939C76.7012 14.2939 76.8723 14.3091 77.0336 14.3389V12.7905C76.9128 12.7715 76.777 12.7608 76.6269 12.7608C76.2053 12.7608 75.8137 12.891 75.4521 13.1523C75.0815 13.4424 74.8106 13.8293 74.6388 14.3099H74.5938L74.5345 12.9116H73.1181C73.1586 13.6031 73.1796 14.3701 73.1796 15.2124L73.1638 20.2192H74.7889V16.3845C74.7889 15.8034 74.9247 15.3221 75.1955 14.9413C75.5068 14.5095 75.9487 14.2939 76.5212 14.2939ZM84.3049 16.2193C84.3049 16.5102 84.2854 16.7554 84.2456 16.9558H79.3675C79.3871 17.6778 79.6226 18.23 80.0758 18.6108C80.4862 18.9512 81.0181 19.1218 81.6708 19.1218C82.3933 19.1218 83.052 19.0067 83.6446 18.7761L83.899 19.9032C83.2065 20.2048 82.3888 20.3548 81.4457 20.3548C80.3114 20.3548 79.4201 20.0212 78.7719 19.3549C78.1252 18.6884 77.8011 17.7935 77.8011 16.6709C77.8011 15.5689 78.1027 14.6511 78.7058 13.9192C79.3375 13.1378 80.1906 12.7471 81.2641 12.7471C82.319 12.7471 83.1172 13.1378 83.6597 13.9192C84.0888 14.5399 84.3049 15.3076 84.3049 16.2193ZM82.7541 15.7981C82.7654 15.3168 82.6588 14.9009 82.439 14.5498C82.1569 14.0982 81.7248 13.8727 81.1434 13.8727C80.6114 13.8727 80.1793 14.0929 79.8492 14.5346C79.5784 14.8857 79.4171 15.3069 79.3675 15.7974L82.7541 15.7981ZM27.7482 5.87311C28.2858 5.41997 28.555 4.74521 28.555 3.84875C28.555 3.0506 28.3057 2.4375 27.8084 2.00872C27.3646 1.62944 26.7065 1.4398 25.8333 1.4398C25.3392 1.4398 24.8817 1.47483 24.4569 1.54337V6.44127C24.7825 6.48088 25.1714 6.50069 25.6259 6.50069C26.5425 6.50069 27.2502 6.2913 27.7482 5.87311ZM27.2502 2.53347C27.5583 2.84421 27.7124 3.28975 27.7124 3.87088C27.7124 4.52126 27.5445 5.01634 27.2121 5.35598C26.8796 5.69568 26.4076 5.86554 25.796 5.86554C25.5344 5.86554 25.3545 5.85863 25.2561 5.8434V2.11991C25.4338 2.08488 25.648 2.06813 25.8996 2.06813C26.4922 2.06813 26.9421 2.22349 27.2502 2.53347ZM33.0231 4.63125C33.0231 5.18342 32.8652 5.63581 32.5495 5.99068C32.2185 6.35552 31.7801 6.53752 31.2326 6.53752C30.7048 6.53752 30.2846 6.36309 29.9712 6.01281C29.6586 5.6632 29.5022 5.22221 29.5022 4.69059C29.5022 4.13467 29.6631 3.67845 29.9865 3.32429C30.3098 2.97014 30.7444 2.79269 31.292 2.79269C31.8197 2.79269 32.2437 2.9671 32.5647 3.31668C32.8698 3.65635 33.0231 4.09505 33.0231 4.63125ZM32.1941 4.65713C32.1941 4.32583 32.1225 4.04171 31.9799 3.80486C31.8121 3.51851 31.5734 3.37532 31.263 3.37532C30.942 3.37532 30.6979 3.51851 30.5302 3.80486C30.3868 4.04171 30.3159 4.3304 30.3159 4.67161C30.3159 5.00291 30.3876 5.28695 30.5302 5.5238C30.7033 5.81017 30.9442 5.95339 31.2554 5.95339C31.5604 5.95339 31.7999 5.80792 31.9722 5.51623C32.1202 5.2748 32.1941 4.98844 32.1941 4.65713ZM38.2294 2.86689H39.0139L37.8893 6.45635H37.1572L36.6913 4.89736C36.5731 4.50813 36.477 4.12124 36.4023 3.73742H36.3878C36.3184 4.13197 36.2223 4.51804 36.0987 4.89736L35.6039 6.45635H34.8634L33.8057 2.86613H34.627L35.0334 4.57288C35.1318 4.97658 35.2126 5.36115 35.2775 5.72524H35.2919C35.3514 5.42515 35.4498 5.04283 35.5886 4.58053L36.0987 2.86689H36.75L37.2388 4.544C37.357 4.95295 37.4531 5.34667 37.5271 5.72599H37.5492C37.6033 5.35658 37.685 4.96285 37.7932 4.544L38.2294 2.86689ZM43.157 6.4562H42.3579V4.3998C42.3579 3.76615 42.1168 3.44933 41.6334 3.44933C41.3962 3.44933 41.2048 3.53616 41.0561 3.71056C40.9089 3.88499 40.8342 4.09063 40.8342 4.32598V6.45545H40.035V3.89181C40.035 3.57652 40.0251 3.23456 40.006 2.86442H40.7083L40.7458 3.42572H40.7678C40.8609 3.25132 40.9997 3.10737 41.182 2.99237C41.3985 2.85833 41.641 2.79054 41.9064 2.79054C42.2419 2.79054 42.5211 2.89869 42.743 3.11575C43.019 3.38155 43.157 3.77838 43.157 4.30542V6.4562ZM44.5619 6.4562H45.3604V1.21859H44.5619V6.4562ZM50.066 4.63125C50.066 5.18342 49.9081 5.63581 49.5924 5.99068C49.2615 6.35552 48.8222 6.53752 48.2754 6.53752C47.747 6.53752 47.3268 6.36309 47.0141 6.01281C46.7014 5.6632 46.5451 5.22221 46.5451 4.69059C46.5451 4.13467 46.706 3.67845 47.0294 3.32429C47.3527 2.97014 47.7873 2.79269 48.3341 2.79269C48.8626 2.79269 49.2859 2.9671 49.6076 3.31668C49.9127 3.65635 50.066 4.09505 50.066 4.63125ZM49.2363 4.65713C49.2363 4.32583 49.1646 4.04171 49.022 3.80486C48.855 3.51851 48.6155 3.37532 48.3059 3.37532C47.9841 3.37532 47.7401 3.51851 47.5731 3.80486C47.4297 4.04171 47.3588 4.3304 47.3588 4.67161C47.3588 5.00291 47.4305 5.28695 47.5731 5.5238C47.7462 5.81017 47.9872 5.95339 48.2983 5.95339C48.6034 5.95339 48.842 5.80792 49.0143 5.51623C49.163 5.2748 49.2363 4.98844 49.2363 4.65713ZM53.2157 6.45605H53.9333C53.8989 6.24433 53.8814 5.95872 53.8814 5.59995V4.27781C53.8814 3.28774 53.4101 2.79269 52.4706 2.79269C51.9841 2.79269 51.5715 2.89627 51.2375 3.10266L51.3999 3.62665C51.6699 3.44996 51.9826 3.36085 52.3371 3.36085C52.8351 3.36085 53.0837 3.59695 53.0837 4.06992V4.13692C52.418 4.13159 51.901 4.2451 51.5334 4.47662C51.1651 4.70815 50.9821 5.04253 50.9821 5.48119C50.9821 5.77138 51.0758 6.01581 51.2635 6.2123C51.4701 6.42859 51.7446 6.53752 52.084 6.53752C52.5385 6.53752 52.8885 6.37225 53.134 6.04252H53.1562L53.2157 6.45605ZM53.1036 4.66853V5.22221C53.1036 5.2763 53.099 5.32349 53.0906 5.36235C53.0562 5.53528 52.964 5.67618 52.8138 5.78736C52.6643 5.8978 52.5003 5.95339 52.325 5.95339C52.1686 5.95339 52.0375 5.90695 51.9345 5.81324C51.8316 5.71954 51.7812 5.5794 51.7812 5.39206C51.7812 4.89473 52.222 4.6533 53.1036 4.66853ZM58.475 6.4562H57.7659L57.7285 5.87964H57.7064C57.4799 6.3183 57.094 6.53767 56.5518 6.53767C56.1186 6.53767 55.758 6.36782 55.472 6.02819C55.186 5.68848 55.0434 5.24749 55.0434 4.70597C55.0434 4.12491 55.1982 3.65422 55.5094 3.29474C55.8106 2.95963 56.1797 2.79208 56.6189 2.79208C57.1017 2.79208 57.4395 2.9543 57.6316 3.27951H57.6469V1.21859H58.4468V5.48892C58.4468 5.83853 58.456 6.16068 58.475 6.4562ZM57.6469 4.94207V4.34346C57.6469 4.23992 57.6393 4.15612 57.6248 4.09213C57.5798 3.90022 57.4829 3.73877 57.3357 3.60853C57.187 3.47829 57.0078 3.41279 56.8012 3.41279C56.503 3.41279 56.2697 3.53084 56.0981 3.76773C55.928 4.00458 55.8419 4.30692 55.8419 4.67634C55.8419 5.0312 55.9234 5.31914 56.0874 5.54076C56.2605 5.77686 56.4938 5.89487 56.786 5.89487C57.0483 5.89487 57.2579 5.79666 57.4174 5.59935C57.5714 5.41735 57.6469 5.19798 57.6469 4.94207ZM64.8369 5.99068C65.1526 5.63581 65.3104 5.18342 65.3104 4.63125C65.3104 4.09505 65.1572 3.65635 64.8521 3.31668C64.5319 2.9671 64.1071 2.79269 63.5802 2.79269C63.0318 2.79269 62.5971 2.97014 62.2739 3.32429C61.9505 3.67845 61.7896 4.13467 61.7896 4.69059C61.7896 5.22221 61.9459 5.6632 62.2586 6.01281C62.5728 6.36309 62.993 6.53752 63.5199 6.53752C64.0682 6.53752 64.5059 6.35552 64.8369 5.99068ZM64.268 3.80486C64.4106 4.04171 64.4823 4.32583 64.4823 4.65713C64.4823 4.98844 64.4075 5.2748 64.2603 5.51623C64.088 5.80792 63.8478 5.95339 63.5428 5.95339C63.2316 5.95339 62.9906 5.81017 62.8176 5.5238C62.6749 5.28695 62.6033 5.00291 62.6033 4.67161C62.6033 4.3304 62.6742 4.04171 62.8176 3.80486C62.9861 3.51851 63.2301 3.37532 63.5504 3.37532C63.8615 3.37532 64.0995 3.51851 64.268 3.80486ZM69.6062 6.4562H68.808V4.3998C68.808 3.76615 68.5671 3.44933 68.0832 3.44933C67.8454 3.44933 67.6541 3.53616 67.5063 3.71056C67.3585 3.88499 67.2842 4.09063 67.2842 4.32598V6.45545H66.4845V3.89181C66.4845 3.57652 66.4755 3.23456 66.456 2.86442H67.1582L67.195 3.42572H67.2175C67.3113 3.25132 67.45 3.10737 67.6316 2.99237C67.8492 2.85833 68.0908 2.79054 68.3571 2.79054C68.6917 2.79054 68.9708 2.89869 69.1928 3.11575C69.4697 3.38155 69.6062 3.77838 69.6062 4.30542V6.4562ZM74.1054 3.46396H74.9847V2.86533H74.1046V1.97197L73.3214 2.20807V2.8661H72.7962V3.46396H73.3214V5.27428C73.3214 5.72749 73.4099 6.05039 73.5885 6.2423C73.7663 6.43421 74.0116 6.53025 74.3275 6.53025C74.5833 6.53025 74.7904 6.50054 74.9487 6.44112L74.9277 5.8356C74.8339 5.86073 74.7153 5.87296 74.5713 5.87296C74.2622 5.87296 74.1054 5.65134 74.1054 5.20803V3.46396ZM79.2168 6.4562H78.4163V4.4151C78.4163 3.77148 78.1754 3.44935 77.693 3.44935C77.3224 3.44935 77.0688 3.63595 76.93 4.00915C76.9068 4.08755 76.8933 4.18351 76.8933 4.29627V6.45545H76.0943V1.21859H76.8933V3.38233H76.9083C77.1596 2.98858 77.5205 2.79208 77.9879 2.79208C78.3187 2.79208 78.5926 2.90023 78.8101 3.11729C79.081 3.38766 79.2168 3.78978 79.2168 4.3214V6.4562ZM83.5509 4.85302C83.5696 4.75474 83.5809 4.6344 83.5809 4.49125C83.5809 4.04344 83.4743 3.66641 83.2605 3.36176C82.9949 2.97791 82.6018 2.78598 82.0849 2.78598C81.5567 2.78598 81.1381 2.97791 80.8283 3.36176C80.5319 3.72121 80.3849 4.1721 80.3849 4.71362C80.3849 5.26505 80.5424 5.70446 80.8613 6.03194C81.1786 6.35949 81.6168 6.52319 82.1734 6.52319C82.6378 6.52319 83.0392 6.44929 83.3798 6.30157L83.2553 5.74715C82.9634 5.86058 82.6401 5.91693 82.286 5.91693C81.9656 5.91693 81.7038 5.8332 81.5012 5.6656C81.2792 5.47826 81.1644 5.20788 81.1539 4.85302H83.5509ZM82.6633 3.67173C82.7714 3.84387 82.8239 4.04794 82.8179 4.28486H81.1539C81.1801 4.04344 81.2581 3.83697 81.3909 3.66412C81.5537 3.44706 81.7661 3.33891 82.0271 3.33891C82.313 3.33891 82.5245 3.45011 82.6633 3.67173Z" fill="white"/>
</svg>
