<svg width="1149" height="313" viewBox="0 0 1149 313" fill="none" xmlns="http://www.w3.org/2000/svg">
<g clip-path="url(#clip0)">
<path d="M687.218 4.3716L687.106 2.6021L686.049 1.169L687.819 1.0569L689.252 0L689.372 1.7775L690.421 3.2026L688.651 3.3227L687.218 4.3716Z" fill="white"/>
<g filter="url(#filter0_f)">
<path d="M687.218 4.3716L687.106 2.6021L686.049 1.169L687.819 1.0569L689.252 0L689.372 1.7775L690.421 3.2026L688.651 3.3227L687.218 4.3716Z" fill="white"/>
</g>
<path d="M674.293 11.1348L673.918 10.4299L673.218 10.0388L673.923 9.66346L674.314 8.96326L674.694 9.66996L675.389 10.0593L674.686 10.4378L674.293 11.1348Z" fill="white"/>
<g filter="url(#filter1_f)">
<path d="M674.293 11.1348L673.918 10.4299L673.218 10.0388L673.923 9.66346L674.314 8.96326L674.694 9.66996L675.389 10.0593L674.686 10.4378L674.293 11.1348Z" fill="white"/>
</g>
<g opacity="0.6" filter="url(#filter2_d)">
<path opacity="0.6" d="M634 18H516C494.461 18 477 35.4609 477 57C477 78.5391 494.461 96 516 96H634C655.539 96 673 78.5391 673 57C673 35.4609 655.539 18 634 18Z" fill="url(#paint0_linear)"/>
</g>
<g opacity="0.6" filter="url(#filter3_d)">
<path opacity="0.6" d="M520 313H638C659.539 313 677 295.539 677 274C677 252.461 659.539 235 638 235H520C498.461 235 481 252.461 481 274C481 295.539 498.461 313 520 313Z" fill="url(#paint1_linear)"/>
</g>
<g opacity="0.6" filter="url(#filter4_d)">
<path opacity="0.6" d="M457 207L575 207C596.539 207 614 189.539 614 168C614 146.461 596.539 129 575 129H457C435.461 129 418 146.461 418 168C418 189.539 435.461 207 457 207Z" fill="url(#paint2_linear)"/>
</g>
<path d="M635.273 77.4545C645.314 77.4545 653.454 69.3143 653.454 59.2727C653.454 49.2312 645.314 41.0909 635.273 41.0909C625.231 41.0909 617.091 49.2312 617.091 59.2727C617.091 69.3143 625.231 77.4545 635.273 77.4545Z" fill="white"/>
<path d="M611.506 44.1421C612.304 43.0262 613.046 41.872 613.946 40.8267C615.582 38.9254 617.435 37.296 619.556 35.9473C621.459 34.7374 623.466 33.7838 625.614 33.117C628.958 32.0787 632.371 31.7699 635.848 32.1671C638.39 32.4574 640.839 33.1069 643.171 34.1588C644.582 34.7954 645.91 35.582 647.212 36.4315C649.834 38.1433 651.935 40.3718 653.692 42.9178C655.568 45.6372 656.787 48.6622 657.455 51.907C657.925 54.1855 658.123 56.4854 657.922 58.8002C657.673 61.6544 657.04 64.4064 655.857 67.0513C654.857 69.2885 653.622 71.343 652.04 73.198C650.493 75.013 648.749 76.601 646.744 77.91C645.379 78.802 643.956 79.597 642.453 80.188C639.94 81.176 637.333 81.845 634.606 81.962C632.685 82.044 630.776 82.012 628.882 81.675C627.254 81.387 625.666 80.965 624.112 80.38C622.603 79.813 621.141 79.142 619.793 78.292C617.85 77.068 616.098 75.582 614.539 73.87C612.802 71.963 611.394 69.8478 610.316 67.5119C608.794 64.2121 608.046 60.7329 608.001 57.1026C607.984 55.7372 608.141 54.3824 608.323 53.0309C608.336 52.9342 608.323 52.834 608.322 52.7354C608.481 52.6367 608.466 52.464 608.495 52.3134C608.9 50.1903 609.582 48.1612 610.506 46.2077C610.833 45.5159 611.285 44.8847 611.506 44.1421ZM640.679 57.5515C641.355 57.1915 641.999 56.9851 642.507 56.5306C644.466 54.779 644.988 50.6563 641.808 48.6703C640.818 48.0516 639.761 47.5931 638.622 47.1252C638.811 45.5983 639.42 44.1695 639.619 42.6057C638.679 42.3725 637.798 42.0631 636.882 41.9637C636.508 43.4332 636.149 44.8421 635.777 46.3002C635.075 46.085 634.352 46.1055 633.691 45.7329C633.93 44.2414 634.496 42.844 634.651 41.347C633.686 41.1953 632.868 40.819 631.931 40.7785C631.562 42.2513 631.205 43.6764 630.835 45.1541C628.977 44.8691 627.271 44.2295 625.397 43.8856C624.985 44.8091 624.803 45.7835 624.637 46.8202C625.248 46.9645 625.779 47.0921 626.31 47.2153C627.653 47.526 628.021 48.2607 627.702 49.4359C627.475 50.2719 627.271 51.1139 627.062 51.9547C626.312 54.9772 625.567 58.0011 624.813 61.0224C624.643 61.7031 624.219 61.9248 623.529 61.8238C622.849 61.7243 622.208 61.4188 621.459 61.441C621.134 62.4808 620.488 63.397 620.259 64.5449C622.044 65.0001 623.771 65.4404 625.576 65.9007C625.44 67.477 624.787 68.9196 624.595 70.5071C625.499 70.7242 626.351 70.9285 627.24 71.142C627.825 69.6861 627.96 68.1563 628.506 66.6505C629.163 66.9889 629.893 66.8907 630.536 67.3167C630.186 68.7681 629.836 70.214 629.482 71.678C630.413 72.011 631.321 72.147 632.253 72.38C632.631 70.866 632.996 69.4021 633.349 67.9864C633.568 67.8733 633.729 67.8943 633.881 67.9269C635.342 68.24 636.821 68.3131 638.3 68.1487C639.581 68.0064 640.717 67.5177 641.629 66.5554C642.643 65.4854 643.152 64.1763 643.397 62.7684C643.597 61.6215 643.546 60.4594 642.873 59.4442C642.346 58.6488 641.622 58.0418 640.679 57.5515ZM630.114 63.5278C631.916 63.9761 633.717 64.4555 635.604 64.1107C636.61 63.9269 637.368 63.4132 637.673 62.4002C637.961 61.4447 637.794 60.5766 637.086 59.8214C636.349 59.0361 635.403 58.628 634.426 58.2866C633.26 57.8789 632.078 57.5084 630.803 57.4077C630.315 59.3945 629.841 61.3229 629.356 63.2939C629.665 63.3901 629.886 63.4713 630.114 63.5278ZM636.482 55.2021C637.479 55.0603 638.306 54.4 638.548 53.5029C638.846 52.4059 638.514 51.4438 637.627 50.7895C636.62 50.047 635.462 49.6693 634.264 49.4071C633.818 49.3093 633.38 49.0491 632.84 49.2248C632.411 50.97 631.98 52.7227 631.535 54.5327C633.24 54.9633 634.809 55.4399 636.482 55.2021Z" fill="#F39321"/>
<path fill-rule="evenodd" clip-rule="evenodd" d="M733.047 38.7956C733.278 38.7956 733.499 38.7489 733.7 38.6643L737.748 44.2537C737.588 44.4655 737.475 44.7183 737.43 44.9986C737.427 45.014 737.425 45.0295 737.423 45.0449L730.34 45.9389C730.233 45.7185 730.079 45.5249 729.892 45.3711L732.819 38.7803C732.893 38.7904 732.969 38.7956 733.047 38.7956ZM730.498 46.8691C730.447 47.3192 730.218 47.7153 729.884 47.9861L732.676 54.0307C732.795 54.004 732.919 53.9899 733.047 53.9899C733.204 53.9899 733.356 54.0114 733.5 54.0516L737.907 46.4661C737.743 46.3033 737.614 46.1079 737.528 45.8925L730.498 46.8691ZM728.824 48.3608C728.686 48.3608 728.551 48.3441 728.422 48.3126L725.322 54.4306C725.559 54.6468 725.734 54.9297 725.817 55.2495H731.415C731.507 54.8959 731.711 54.5875 731.987 54.3643L729.195 48.3198C729.076 48.3466 728.951 48.3608 728.824 48.3608ZM727.139 46.6754C727.139 46.5715 727.148 46.4698 727.166 46.3712L724.517 45.2046C724.321 45.4463 724.061 45.633 723.762 45.7377L724.451 54.0106C724.497 54.0179 724.543 54.0272 724.589 54.0384L727.692 47.9244C727.352 47.6161 727.139 47.1707 727.139 46.6754ZM728.824 44.9899C728.932 44.9899 729.038 45.0001 729.14 45.0195L731.982 38.4173C731.954 38.3941 731.926 38.37 731.9 38.345L724.79 43.5735C724.855 43.7524 724.89 43.9453 724.89 44.1465C724.89 44.2233 724.885 44.2988 724.875 44.3728L727.591 45.5257C727.899 45.196 728.337 44.9899 728.824 44.9899ZM738.644 46.8932L734.273 54.5187C734.464 54.7214 734.605 54.9715 734.678 55.2495H743.23C743.315 54.9213 743.497 54.632 743.743 54.4137L739.533 46.8962C739.308 46.9569 739.068 46.9719 738.824 46.9323C738.763 46.9223 738.703 46.9093 738.644 46.8932ZM740.243 46.5011L744.425 54.0467C744.564 54.0096 744.71 53.9899 744.861 53.9899C744.992 53.9899 745.12 54.0048 745.243 54.0332L748.138 47.9661C747.817 47.6967 747.598 47.31 747.547 46.8721L740.646 45.9263C740.552 46.1476 740.414 46.3423 740.243 46.5011ZM748.155 45.3704C747.97 45.5214 747.818 45.7107 747.711 45.9263L740.768 45.0743C740.732 44.7628 740.61 44.4721 740.422 44.2316L744.327 38.7093C744.495 38.7653 744.675 38.7956 744.861 38.7956C744.984 38.7956 745.103 38.7825 745.218 38.7578L748.155 45.3704ZM750.486 45.5609C750.177 45.2108 749.725 44.9899 749.222 44.9899C749.147 44.9899 749.073 44.9948 749.001 45.0042L745.968 38.3815C746.023 38.3331 746.076 38.2811 746.124 38.2259L753.185 43.4143C753.078 43.6357 753.018 43.8841 753.018 44.1465C753.018 44.2486 753.027 44.3487 753.045 44.4458L750.486 45.5609ZM750.367 47.9121C750.699 47.6043 750.907 47.1641 750.907 46.6754C750.907 46.5776 750.899 46.4818 750.883 46.3887L753.459 45.2827C753.649 45.4915 753.892 45.6521 754.166 45.7443L753.583 54.0128C753.562 54.0162 753.541 54.0201 753.521 54.0243L750.367 47.9121ZM748.852 48.3201C748.971 48.3467 749.094 48.3608 749.222 48.3608C749.36 48.3608 749.495 48.344 749.624 48.3124L752.725 54.4307C752.488 54.6469 752.313 54.9297 752.23 55.2495H746.492C746.412 54.9396 746.245 54.6644 746.019 54.4509L748.852 48.3201ZM739.709 43.6993L743.603 38.2314C743.398 38.0018 743.255 37.7157 743.2 37.3995H734.707C734.656 37.6972 734.526 37.9682 734.34 38.1906L738.454 43.7088C738.733 43.5945 739.045 43.5532 739.364 43.6049C739.484 43.6245 739.6 43.6565 739.709 43.6993ZM734.68 56.0921H743.228C743.318 56.4473 743.521 56.7574 743.797 56.9821L739.465 64.7161C739.345 64.6892 739.221 64.6751 739.093 64.6751C738.963 64.6751 738.836 64.6899 738.714 64.718L734.222 56.8834C734.441 56.6702 734.602 56.3978 734.68 56.0921ZM740.233 65.1192C740.416 65.2869 740.561 65.4944 740.656 65.7278L747.546 64.7706C747.594 64.3225 747.818 63.9271 748.147 63.6543L745.177 57.3311C745.075 57.3505 744.969 57.3607 744.861 57.3607C744.737 57.3607 744.615 57.3471 744.498 57.3215L740.233 65.1192ZM740.765 66.5753L747.707 65.6932C747.813 65.9097 747.964 66.1 748.148 66.252L745.225 72.731C745.108 72.706 744.986 72.692 744.861 72.692C744.671 72.692 744.488 72.724 744.317 72.782L740.433 67.3828C740.609 67.1529 740.727 66.8765 740.765 66.5753ZM745.979 73.116L748.997 66.6231C749.07 66.6329 749.145 66.6379 749.222 66.6379C749.732 66.6379 750.189 66.4113 750.498 66.0532L753.978 67.3583L746.051 73.183C746.028 73.16 746.004 73.138 745.979 73.116ZM754.508 66.6372L750.88 65.2553C750.898 65.1571 750.907 65.0559 750.907 64.9525C750.907 64.4709 750.705 64.0364 750.381 63.7293L753.524 57.3268C753.544 57.331 753.565 57.3348 753.586 57.3383L754.508 66.6372ZM752.738 56.932L749.554 63.2999C749.447 63.2784 749.335 63.2671 749.222 63.2671C749.096 63.2671 748.974 63.2808 748.856 63.3069L745.963 56.9503C746.22 56.7286 746.409 56.4308 746.495 56.0921H752.228C752.312 56.4216 752.493 56.7122 752.738 56.932ZM739.093 68.0459C738.864 68.0459 738.646 68.0002 738.447 67.9175L734.355 73.314C734.505 73.5 734.618 73.718 734.679 73.956H743.229C743.295 73.7 743.42 73.467 743.588 73.273L739.716 67.9269C739.524 68.0037 739.313 68.0459 739.093 68.0459ZM737.736 67.3605C737.57 67.1359 737.459 66.8687 737.422 66.5783L730.34 65.6909C730.233 65.9081 730.082 66.0991 729.898 66.2516L732.811 72.708C732.888 72.698 732.967 72.692 733.047 72.692C733.282 72.692 733.506 72.74 733.709 72.827L737.736 67.3605ZM729.031 66.6253L731.915 73.021L724.827 67.8088C724.868 67.6629 724.89 67.509 724.89 67.3499C724.89 67.2509 724.882 67.1539 724.865 67.0596L727.548 66.0536C727.857 66.4114 728.314 66.6379 728.824 66.6379C728.894 66.6379 728.963 66.6336 729.031 66.6253ZM737.53 65.7277C737.619 65.5098 737.751 65.3146 737.917 65.1532L733.425 57.318C733.303 57.3459 733.177 57.3607 733.047 57.3607C732.942 57.3607 732.839 57.3511 732.74 57.3328L729.875 63.6346C730.212 63.9037 730.443 64.2995 730.497 64.7498L737.53 65.7277ZM729.137 63.2961L732.035 57.0234C731.733 56.7961 731.509 56.4696 731.413 56.0921H725.819C725.735 56.422 725.554 56.7129 725.308 56.9327L728.489 63.3004C728.597 63.2786 728.709 63.2671 728.824 63.2671C728.931 63.2671 729.036 63.2771 729.137 63.2961ZM727.702 63.6947L724.524 57.3267C724.504 57.3308 724.483 57.3346 724.462 57.3381L723.752 65.7553C724.032 65.8515 724.28 66.0199 724.471 66.2382L727.155 65.1899C727.144 65.1123 727.139 65.0331 727.139 64.9525C727.139 64.4525 727.356 64.0034 727.702 63.6947ZM754.443 57.2578L755.193 64.9936L757.756 57.1107C757.389 56.8843 757.115 56.5211 757.006 56.0921H755.495C755.358 56.6321 754.96 57.0679 754.443 57.2578ZM755.493 55.2495H757.008C757.119 54.8249 757.391 54.4655 757.754 54.2406L755.012 45.8039L755.004 45.8054L754.378 54.0704C754.923 54.2458 755.348 54.6913 755.493 55.2495ZM755.77 45.4518L758.515 53.9944C758.556 53.9914 758.598 53.9899 758.639 53.9899C759.57 53.9899 760.325 54.7444 760.325 55.6753C760.325 56.6061 759.57 57.3607 758.639 57.3607C758.598 57.3607 758.557 57.3592 758.517 57.3563L755.402 67.0504L759.396 70.7558C759.773 70.4716 760.242 70.3031 760.75 70.3031C761.993 70.3031 763 71.31 763 72.553C763 73.796 761.993 74.803 760.75 74.803C759.508 74.803 758.5 73.796 758.5 72.553C758.5 72.116 758.625 71.708 758.841 71.363L754.891 67.799L746.486 73.926C746.525 74.07 746.547 74.221 746.547 74.378C746.547 75.308 745.792 76.063 744.861 76.063C744.079 76.063 743.421 75.53 743.231 74.807H734.677C734.487 75.53 733.829 76.063 733.047 76.063C732.116 76.063 731.361 75.308 731.361 74.378C731.361 74.159 731.403 73.951 731.478 73.76L724.38 68.5581C724.076 68.8534 723.662 69.0353 723.205 69.0353C722.274 69.0353 721.519 68.2807 721.519 67.3499C721.519 66.7097 721.876 66.1528 722.402 65.8675L719.663 57.3605C718.742 57.3483 718 56.5984 718 55.6753C718 54.752 718.742 54.0021 719.663 53.99L722.358 45.604C721.856 45.312 721.519 44.7686 721.519 44.1465C721.519 43.2157 722.274 42.4611 723.205 42.4611C723.618 42.4611 723.997 42.6099 724.29 42.857L731.439 37.6182C731.388 37.4579 731.361 37.2872 731.361 37.1101C731.361 36.1793 732.116 35.4247 733.047 35.4247C733.781 35.4247 734.405 35.8938 734.636 36.5486H743.271C743.503 35.8938 744.127 35.4247 744.861 35.4247C745.792 35.4247 746.547 36.1793 746.547 37.1101C746.547 37.2275 746.535 37.3421 746.512 37.4528L753.75 42.7567C754.021 42.5702 754.35 42.4611 754.704 42.4611C755.635 42.4611 756.389 43.2157 756.389 44.1465C756.389 44.6728 756.148 45.1427 755.77 45.4518ZM720.458 57.1737L722.976 64.9187L723.636 57.2692C723.104 57.0858 722.692 56.6432 722.552 56.0921H721.319C721.199 56.5634 720.881 56.9553 720.458 57.1737ZM722.968 46.4601L723.633 54.0824C723.105 54.2654 722.696 54.7036 722.554 55.2495H721.317C721.195 54.7827 720.879 54.3946 720.459 54.1775L722.968 46.4601Z" fill="#2E9AD0"/>
<g opacity="0.8">
<path opacity="0.8" d="M843.5 36.5C832.178 36.5 823 45.6781 823 57C823 68.3219 832.178 77.5 843.5 77.5C854.822 77.5 864 68.3219 864 57C864 45.6781 854.822 36.5 843.5 36.5Z" fill="black"/>
<path opacity="0.8" d="M851.833 65.866H849.229V60.3312H837.77V65.866H835.166V47.9183H837.77V53.32H849.229V47.9183H851.833V65.866ZM837.893 58.2605H849.352V55.4008H837.893V58.2605Z" fill="white"/>
</g>
<g opacity="0.3">
<path opacity="0.3" d="M944.5 77.5C955.822 77.5 965 68.3218 965 57C965 45.6782 955.822 36.5 944.5 36.5C933.178 36.5 924 45.6782 924 57C924 68.3218 933.178 77.5 944.5 77.5Z" fill="#18A0B1"/>
<g opacity="0.3">
<path opacity="0.3" d="M953.931 48.6379C955.074 48.6379 956 47.7116 956 46.569C956 45.4263 955.074 44.5 953.931 44.5C952.788 44.5 951.862 45.4263 951.862 46.569C951.862 47.7116 952.788 48.6379 953.931 48.6379Z" fill="white"/>
<path opacity="0.3" d="M938.025 60.0506C937.246 58.7278 936.928 57.1836 937.122 55.6607C937.315 54.1377 938.01 52.7223 939.095 51.6367C940.181 50.5511 941.596 49.857 943.119 49.6632C944.642 49.4695 946.186 49.7872 947.509 50.5664L949.164 48.9112L949.081 48.845C947.301 47.6716 945.169 47.1515 943.049 47.3733C940.928 47.5951 938.95 48.5451 937.451 50.0616C935.952 51.5781 935.025 53.5672 934.828 55.6903C934.631 57.8135 935.176 59.9392 936.37 61.7057L938.025 60.0506Z" fill="white"/>
<path opacity="0.3" d="M949.975 53.0407C950.754 54.3634 951.072 55.9076 950.878 57.4306C950.685 58.9535 949.991 60.369 948.905 61.4545C947.819 62.5401 946.404 63.2343 944.881 63.428C943.358 63.6217 941.814 63.304 940.491 62.5248L938.836 64.18C940.609 65.3835 942.746 65.9314 944.879 65.7292C947.012 65.5271 949.008 64.5876 950.523 63.0725C952.038 61.5573 952.978 59.5614 953.18 57.4283C953.382 55.2951 952.834 53.1582 951.63 51.3855L949.975 53.0407Z" fill="white"/>
<path opacity="0.3" d="M934.069 68.5001C935.212 68.5001 936.138 67.5738 936.138 66.4311C936.138 65.2885 935.212 64.3622 934.069 64.3622C932.926 64.3622 932 65.2885 932 66.4311C932 67.5738 932.926 68.5001 934.069 68.5001Z" fill="white"/>
</g>
</g>
<g opacity="0.15">
<path opacity="0.15" d="M1045 72C1034 72 1025 63 1025 52C1025 41 1034 32 1045 32C1056 32 1065 41 1065 52C1065 63 1056 72 1045 72Z" fill="#002868"/>
<path opacity="0.15" d="M1055.08 64.0002H1034.92C1033.86 64.0002 1033 63.1362 1033 62.0802V41.9202C1033 40.8642 1033.86 40.0002 1034.92 40.0002H1055.08C1056.14 40.0002 1057 40.8642 1057 41.9202V62.0802C1057 63.1362 1056.14 64.0002 1055.08 64.0002Z" fill="white"/>
<path opacity="0.15" d="M1037.68 61.5853C1037.62 61.5853 1037.57 61.5277 1037.57 61.4645V58.2397C1037.57 58.1765 1037.52 58.1189 1037.45 58.1189H1036.32C1036.25 58.1189 1036.2 58.0677 1036.2 58.0045V57.3813C1036.2 57.3181 1036.25 57.2605 1036.32 57.2605H1039.82C1039.88 57.2605 1039.94 57.3173 1039.94 57.3813V58.0045C1039.94 58.0677 1039.88 58.1189 1039.82 58.1189H1038.69C1038.62 58.1189 1038.57 58.1757 1038.57 58.2397V61.4645C1038.57 61.5277 1038.52 61.5853 1038.45 61.5853H1037.68Z" fill="#002868"/>
<path opacity="0.15" d="M1043.44 57.3796C1043.44 57.3164 1043.49 57.2588 1043.55 57.2588H1044.32C1044.38 57.2588 1044.44 57.3156 1044.44 57.3796V59.5804C1044.44 60.8844 1043.7 61.6412 1042.53 61.6412C1041.37 61.6412 1040.63 60.8844 1040.63 59.5804V57.3796C1040.63 57.3164 1040.69 57.2588 1040.75 57.2588H1041.51C1041.57 57.2588 1041.63 57.3156 1041.63 57.3796V59.6116C1041.63 60.254 1041.96 60.7116 1042.54 60.7116C1043.11 60.7116 1043.44 60.254 1043.44 59.6116V57.3796Z" fill="#002868"/>
<path opacity="0.15" d="M1047.94 58.6704C1047.84 58.6704 1047.81 58.632 1047.77 58.556C1047.64 58.244 1047.34 58.0472 1046.9 58.0472C1046.5 58.0472 1046.16 58.1872 1046.16 58.4544C1046.16 58.7472 1046.47 58.868 1047.16 58.9504C1048.2 59.0712 1048.8 59.3896 1048.8 60.216C1048.8 61.1448 1047.99 61.6344 1046.94 61.6344C1046.04 61.6344 1045.26 61.1952 1045.14 60.2736C1045.13 60.1848 1045.18 60.1528 1045.26 60.1528H1045.96C1046.05 60.1528 1046.1 60.1912 1046.13 60.2608C1046.22 60.5664 1046.55 60.8016 1047.02 60.8016C1047.43 60.8016 1047.8 60.6488 1047.8 60.3248C1047.8 59.9368 1047.41 59.8672 1046.65 59.7712C1045.77 59.6568 1045.16 59.4024 1045.16 58.5944C1045.16 57.7864 1045.86 57.208 1046.94 57.208C1047.92 57.208 1048.6 57.736 1048.74 58.5248C1048.76 58.6136 1048.74 58.6712 1048.64 58.6712H1047.94V58.6704Z" fill="#002868"/>
<path opacity="0.15" d="M1049.67 61.5836C1049.6 61.5836 1049.55 61.526 1049.55 61.4628V57.3796C1049.55 57.3164 1049.6 57.2588 1049.67 57.2588H1051.4C1052.68 57.2588 1053.68 58.1428 1053.68 59.434C1053.68 60.706 1052.69 61.5836 1051.4 61.5836H1049.67ZM1051.4 60.7244C1052.09 60.7244 1052.63 60.1772 1052.63 59.4204C1052.63 58.6636 1052.09 58.1164 1051.39 58.1164H1050.67C1050.61 58.1164 1050.56 58.1732 1050.56 58.2372V60.6092C1050.56 60.6724 1050.61 60.7236 1050.67 60.7236H1051.4V60.7244Z" fill="#002868"/>
<path opacity="0.15" d="M1056.36 54.8804H1033.64C1033.46 54.8804 1033.32 54.7364 1033.32 54.5604V41.9204C1033.32 41.0404 1034.04 40.3204 1034.92 40.3204H1055.08C1055.96 40.3204 1056.68 41.0404 1056.68 41.9204V54.5604C1056.68 54.7364 1056.54 54.8804 1056.36 54.8804Z" fill="#002868"/>
<path opacity="0.15" d="M1046.18 52.2861H1044.1C1043.97 52.2861 1043.86 52.1781 1043.86 52.0461V43.2461C1043.86 43.1141 1043.97 43.0061 1044.1 43.0061H1046.18C1046.31 43.0061 1046.42 43.1141 1046.42 43.2461V52.0461C1046.42 52.1781 1046.31 52.2861 1046.18 52.2861Z" fill="white"/>
<path opacity="0.15" d="M1049.72 45.5661H1040.28C1040.15 45.5661 1040.04 45.4581 1040.04 45.3261V43.2461C1040.04 43.1141 1040.15 43.0061 1040.28 43.0061H1049.72C1049.85 43.0061 1049.96 43.1141 1049.96 43.2461V45.3261C1049.96 45.4581 1049.85 45.5661 1049.72 45.5661Z" fill="white"/>
</g>
<path d="M573 192C586.807 192 598 180.807 598 167C598 153.193 586.807 142 573 142C559.193 142 548 153.193 548 167C548 180.807 559.193 192 573 192Z" fill="white"/>
<path d="M573.005 142C559.193 142 548 153.062 548 166.701C548 169.427 548.443 172.053 549.269 174.5H556.745V153.719L573.005 169.775L589.255 153.719V174.5H596.731C597.557 172.043 598 169.427 598 166.701C598.01 153.062 586.817 142 573.005 142Z" fill="#FF6600"/>
<path d="M569.064 174.023L561.596 167V180.109H550.5C555.125 187.241 563.474 192 573 192C582.526 192 590.875 187.241 595.5 180.109H584.404V167L576.936 174.023L573 177.724L569.064 174.023Z" fill="#5E5E5E"/>
<g opacity="0.8">
<path opacity="0.8" d="M680.513 189.5C692.939 189.5 703.013 179.426 703.013 167C703.013 154.574 692.939 144.5 680.513 144.5C668.086 144.5 658.013 154.574 658.013 167C658.013 179.426 668.086 189.5 680.513 189.5Z" fill="#F4B728"/>
<path opacity="0.8" d="M672.474 173.998V177.431H678.613V181.195H682.387V177.431H688.526V172.89H679.003L688.526 159.973V156.539H682.387V152.785H678.613V156.539H672.474V161.091H681.997L672.474 173.998Z" fill="#231F20"/>
</g>
<g opacity="0.8">
<path opacity="0.8" d="M785.5 189.5C797.926 189.5 808 179.426 808 167C808 154.574 797.926 144.5 785.5 144.5C773.074 144.5 763 154.574 763 167C763 179.426 773.074 189.5 785.5 189.5Z" fill="#0F59D1"/>
<path opacity="0.8" d="M785.388 152.769L779.034 156.491L785.388 160.215L791.861 156.491L785.388 152.769ZM786.432 172.645V180.091L795.063 175.168V167.72L786.432 172.645ZM792.905 158.833V166.28L786.431 170.004V162.556L792.905 158.833ZM777.321 166.28L783.796 170.004V162.556L777.321 158.833V166.28ZM777.321 176.368L783.796 180.091V172.645L777.321 168.922V176.367V176.368Z" fill="white"/>
</g>
<g opacity="0.3">
<path opacity="0.3" fill-rule="evenodd" clip-rule="evenodd" d="M886.972 147.972V148.832C887.273 148.711 887.556 148.549 887.813 148.352C887.527 148.352 887.24 147.972 886.953 147.972H886.972Z" fill="black"/>
<path opacity="0.3" fill-rule="evenodd" clip-rule="evenodd" d="M887.988 148.035C887.682 148.035 887.364 147.985 887.071 147.979H886.978C883.013 148.192 879.214 149.639 876.112 152.118C873.01 154.597 870.76 157.983 869.677 161.803C868.594 165.623 868.732 169.686 870.072 173.424C871.412 177.162 873.886 180.387 877.149 182.65C876.54 182.098 876.054 181.425 875.722 180.673C875.391 179.922 875.221 179.109 875.223 178.287C875.233 176.726 875.858 175.232 876.961 174.129C878.065 173.025 879.559 172.401 881.119 172.391L882.297 172.354V172.098C882.297 170.864 882.686 169.661 883.41 168.661C884.135 167.661 885.156 166.916 886.33 166.533C886.918 166.337 887.535 166.238 888.156 166.24C889.285 166.239 890.391 166.564 891.339 167.176C892.288 167.789 893.04 168.663 893.503 169.692C895.513 168.314 897.051 166.351 897.91 164.07C898.769 161.79 898.907 159.3 898.305 156.938C897.704 154.576 896.392 152.456 894.547 150.864C892.701 149.272 890.412 148.284 887.988 148.035Z" fill="#B4E1FF"/>
<path opacity="0.3" fill-rule="evenodd" clip-rule="evenodd" d="M888.611 147.972C898.907 149.219 902.092 156.779 902.098 163.603C902.098 170.584 896.233 175.675 891.104 177.022C889.191 177.492 887.251 177.841 885.295 178.069L884.516 178.162C884.331 178.187 884.147 178.227 883.968 178.281C883.417 178.442 882.91 178.726 882.484 179.11C882.058 179.494 881.724 179.969 881.506 180.499C881.315 180.96 881.218 181.453 881.219 181.952C881.219 182.747 881.465 183.523 881.926 184.172C882.386 184.821 883.036 185.31 883.787 185.573C884.055 185.635 884.329 185.685 884.61 185.741C885.727 185.939 886.859 186.039 887.994 186.04C892.979 186.024 897.759 184.053 901.306 180.551C904.854 177.049 906.887 172.296 906.969 167.312C907.05 162.327 905.174 157.51 901.743 153.894C898.311 150.278 893.599 148.152 888.617 147.972H888.611Z" fill="#90D595"/>
<path opacity="0.3" fill-rule="evenodd" clip-rule="evenodd" d="M888.611 147.972C888.405 147.972 888.206 147.972 887.988 147.972C887.682 147.972 887.364 147.972 887.071 147.972C887.383 147.972 887.695 148.003 887.988 148.034C890.417 148.278 892.713 149.262 894.564 150.855C896.415 152.448 897.731 154.572 898.333 156.938C898.935 159.305 898.795 161.799 897.931 164.083C897.067 166.367 895.521 168.33 893.503 169.705C892.959 168.472 892.007 167.464 890.807 166.852C889.607 166.239 888.232 166.059 886.915 166.341C885.597 166.624 884.418 167.352 883.574 168.403C882.731 169.454 882.275 170.763 882.285 172.111V172.36L881.101 172.403C879.913 172.406 878.754 172.767 877.776 173.44C876.797 174.113 876.045 175.066 875.618 176.174C875.19 177.282 875.108 178.493 875.381 179.649C875.655 180.804 876.271 181.85 877.149 182.65C877.523 182.911 877.903 183.148 878.296 183.385C879.999 184.4 881.852 185.136 883.787 185.566C883.037 185.305 882.386 184.817 881.926 184.169C881.466 183.521 881.219 182.746 881.219 181.952C881.217 181.451 881.315 180.956 881.506 180.493C881.726 179.964 882.061 179.49 882.486 179.106C882.912 178.722 883.418 178.438 883.968 178.274C884.148 178.226 884.331 178.188 884.516 178.162L885.295 178.075C887.251 177.842 889.191 177.49 891.104 177.022C896.233 175.669 902.104 170.584 902.098 163.603C902.098 156.747 898.907 149.194 888.611 147.972Z" fill="white"/>
<path opacity="0.3" fill-rule="evenodd" clip-rule="evenodd" d="M894.176 170.39L893.491 169.705L894.176 170.39Z" fill="black"/>
<path opacity="0.3" fill-rule="evenodd" clip-rule="evenodd" d="M887.993 147C887.669 147 887.37 147 887.027 147H886.99C882.823 147.21 878.826 148.717 875.559 151.312C872.292 153.907 869.919 157.459 868.772 161.47C867.624 165.481 867.76 169.751 869.161 173.68C870.561 177.61 873.156 181.004 876.582 183.385C876.948 183.712 877.347 184 877.772 184.245C877.879 184.301 877.995 184.337 878.115 184.351C879.81 185.319 881.64 186.031 883.543 186.464C883.852 186.572 884.172 186.645 884.497 186.682C885.653 186.887 886.825 186.991 888 186.994C890.655 187.04 893.294 186.557 895.761 185.573C898.228 184.589 900.474 183.123 902.369 181.261C904.263 179.399 905.768 177.179 906.794 174.729C907.821 172.279 908.35 169.65 908.35 166.994C908.349 164.338 907.82 161.708 906.792 159.259C905.764 156.81 904.259 154.589 902.364 152.728C900.469 150.867 898.222 149.402 895.755 148.418C893.288 147.435 890.649 146.953 887.993 147ZM880.514 183.454C879.517 183.005 878.564 182.464 877.666 181.84C876.959 181.153 876.474 180.272 876.271 179.307C876.069 178.343 876.16 177.34 876.532 176.428C876.904 175.516 877.539 174.735 878.358 174.187C879.176 173.639 880.14 173.348 881.125 173.351C881.512 173.351 881.954 173.351 882.322 173.313C882.568 173.302 882.8 173.197 882.97 173.02C883.141 172.842 883.237 172.606 883.238 172.36V172.111C883.237 170.986 883.622 169.896 884.329 169.021C885.035 168.146 886.021 167.541 887.12 167.305C888.219 167.07 889.366 167.218 890.369 167.726C891.372 168.235 892.17 169.072 892.63 170.098C892.733 170.326 892.921 170.505 893.155 170.595C893.388 170.684 893.648 170.678 893.877 170.577C893.925 170.55 893.971 170.519 894.014 170.484C896.618 168.714 898.478 166.048 899.242 162.993C900.005 159.939 899.617 156.711 898.152 153.924C900.695 157.221 901.119 161.291 901.119 163.591C901.119 169.948 895.821 174.772 890.835 176.056C888.701 176.567 886.536 176.939 884.354 177.171C883.213 177.335 882.168 177.903 881.412 178.773C880.655 179.642 880.237 180.755 880.234 181.908C880.244 182.419 880.332 182.926 880.496 183.41L880.514 183.454ZM869.919 167C869.916 162.329 871.72 157.838 874.955 154.469C878.19 151.099 882.603 149.113 887.27 148.926C889.475 149.02 891.6 149.779 893.366 151.104C895.131 152.428 896.454 154.256 897.161 156.347C897.868 158.437 897.925 160.693 897.325 162.817C896.726 164.941 895.498 166.834 893.802 168.246C893.016 167.088 891.892 166.201 890.584 165.704C889.275 165.207 887.845 165.125 886.489 165.47C885.132 165.815 883.915 166.569 883.002 167.63C882.089 168.691 881.525 170.007 881.387 171.4H881.088C879.27 171.4 877.526 172.122 876.24 173.408C874.954 174.694 874.232 176.438 874.232 178.256C874.232 178.424 874.232 178.586 874.27 178.754C871.453 175.486 869.905 171.314 869.907 167H869.919ZM887.993 185.074C886.655 185.07 885.322 184.917 884.017 184.619C883.423 184.394 882.92 183.978 882.587 183.437C882.254 182.895 882.111 182.258 882.178 181.626C882.246 180.994 882.521 180.403 882.961 179.944C883.401 179.485 883.981 179.185 884.609 179.091C886.878 178.846 889.128 178.455 891.346 177.919C897.018 176.43 903.051 170.895 903.045 163.585C903.129 160.187 902.243 156.836 900.49 153.924C903.105 156.415 904.915 159.633 905.684 163.163C906.453 166.692 906.148 170.371 904.806 173.725C903.464 177.079 901.149 179.954 898.157 181.979C895.166 184.004 891.637 185.087 888.025 185.087L887.993 185.074Z" fill="#41474E"/>
</g>
<g opacity="0.15">
<path opacity="0.15" d="M1006.36 158.233C1006.09 156.919 1005.61 155.658 1004.94 154.497C1003.55 152.188 1000.53 148.83 996.75 146.185C996.75 146.185 993.895 144.338 992.552 143.709C987.641 141.442 982.142 140.98 977.44 145.136C969.548 152.146 965.603 161.927 969.548 171.665C969.632 171.875 971.815 177.836 984.912 181.824C990.663 181.992 994.021 181.656 997.715 179.515C1002.54 176.745 1005.35 171.707 1006.36 166.586C1006.66 165.033 1006.7 159.786 1006.36 158.233Z" fill="#04FFCC"/>
<path opacity="0.15" d="M991.088 144.422V153.783L980.257 153.111L975.808 158.736L975.262 169.357L978.956 173.302L984.497 176.073L991.759 176.87L999.651 174.856V155.336L998.14 147.235C998.14 147.235 993.9 143.918 991.13 143.121" fill="#7DF8FB"/>
<path opacity="0.15" d="M1003.76 167.636C1002.25 167.552 1003.09 165.159 1002.42 162.43C1001.62 159.408 1002.79 157.309 1004.35 157.393C1005.08 157.508 1005.77 157.796 1006.36 158.233C1006.09 156.919 1005.61 155.658 1004.94 154.497C1003.55 152.188 1000.53 148.83 996.75 146.185V171.497C996.75 172.079 996.553 172.643 996.19 173.097C995.827 173.551 995.32 173.867 994.752 173.995C994.185 174.122 993.592 174.052 993.069 173.796C992.547 173.541 992.128 173.115 991.88 172.589C990.382 173.517 988.665 174.032 986.903 174.08C985.141 174.127 983.398 173.707 981.852 172.861C980.306 172.015 979.011 170.774 978.102 169.264C977.192 167.755 976.699 166.031 976.673 164.269C976.647 162.507 977.089 160.769 977.954 159.233C978.819 157.698 980.076 156.419 981.596 155.528C983.117 154.637 984.847 154.165 986.609 154.161C988.372 154.157 990.104 154.62 991.628 155.504V145.682C991.621 145.304 991.701 144.93 991.861 144.588C992.021 144.246 992.257 143.945 992.552 143.709C987.641 141.442 982.142 140.98 977.44 145.136C969.548 152.146 965.603 161.927 969.548 171.665C969.632 171.875 969.716 172.085 969.8 172.253C969.914 172.016 970.071 171.803 970.262 171.623C972.319 169.525 974.586 173.806 979.413 176.283C982.477 177.836 984.24 179.893 984.912 181.824C989.404 182.37 994.021 181.656 997.715 179.515C1002.54 176.745 1005.35 171.707 1006.36 166.586C1005.64 167.219 1004.72 167.589 1003.76 167.636ZM987.309 147.738C988.442 147.696 989.492 149.04 989.534 149.669C989.576 150.299 988.568 150.047 987.477 150.425C986.26 150.845 985.378 150.467 985.336 149.837C985.294 149.208 986.129 147.78 987.309 147.738Z" fill="#2C398F"/>
<path opacity="0.15" d="M984.829 167.803C987.263 169.189 990.202 168.643 990.747 165.537C991.041 163.732 990.873 160.919 989.278 160.038C983.989 157.015 979.54 164.781 984.829 167.803Z" fill="#2C398F"/>
</g>
<g opacity="0.15">
<path opacity="0.15" d="M108 76C119.046 76 128 67.0456 128 56C128 44.9543 119.046 36 108 36C96.9543 36 88 44.9543 88 56C88 67.0456 96.9543 76 108 76Z" fill="#F0F0F0"/>
<path opacity="0.15" d="M106.261 56C106.261 56 93.8696 70.145 93.8579 70.1422C97.4771 73.761 102.477 76 108 76C119.046 76 128 67.0456 128 56H106.261Z" fill="#D80027"/>
<path opacity="0.15" d="M93.8579 41.8578C86.0474 49.6683 86.0474 62.3316 93.8579 70.1422C97.0854 66.9146 100.19 63.8104 108 56L93.8579 41.8578Z" fill="#0052B4"/>
</g>
<g opacity="0.3">
<path opacity="0.3" d="M208 76C219.046 76 228 67.0457 228 56C228 44.9543 219.046 36 208 36C196.954 36 188 44.9543 188 56C188 67.0457 196.954 76 208 76Z" fill="#D80027"/>
<path opacity="0.3" d="M210.64 50.5786L212.35 53.2116L215.382 52.3991L213.407 54.839L215.117 57.472L212.186 56.3469L210.21 58.7868L210.374 55.6515L207.443 54.5264L210.476 53.7138L210.64 50.5786Z" fill="white"/>
<path opacity="0.3" d="M207.554 50.6029C206.656 50.103 205.622 49.8182 204.521 49.8182C201.074 49.8182 198.278 52.6133 198.278 56.0612C198.278 59.5091 201.074 62.3042 204.521 62.3042C205.622 62.3042 206.656 62.0194 207.554 61.5195C206.07 63.1512 203.929 64.1754 201.55 64.1754C197.069 64.1754 193.436 60.5426 193.436 56.0612C193.436 51.5799 197.069 47.947 201.55 47.947C203.929 47.947 206.07 48.9712 207.554 50.6029Z" fill="white"/>
</g>
<g opacity="0.8">
<path opacity="0.8" d="M289.244 49.0436C288.44 51.2103 288 53.5537 288 56C288 58.4464 288.44 60.79 289.244 62.9566L308 64.6956L326.756 62.9566C327.56 60.79 328 58.4464 328 56C328 53.5537 327.56 51.2103 326.756 49.0436L308 47.3044L289.244 49.0436Z" fill="#F0F0F0"/>
<path opacity="0.8" d="M308 36C299.401 36 292.07 41.4275 289.244 49.0435H326.756C323.93 41.4275 316.599 36 308 36Z" fill="#D80027"/>
<path opacity="0.8" d="M308 76C316.599 76 323.93 70.5725 326.756 62.9565H289.244C292.07 70.5725 299.401 76 308 76Z" fill="#6DA544"/>
</g>
<path d="M410.5 78.5C422.926 78.5 433 68.4263 433 56C433 43.5736 422.926 33.5 410.5 33.5C398.074 33.5 388 43.5736 388 56C388 68.4263 398.074 78.5 410.5 78.5Z" fill="#0064DC"/>
<path d="M410.5 42.3043L411.229 44.5463H413.586L411.679 45.9319L412.407 48.1739L410.5 46.7883L408.593 48.1739L409.321 45.9319L407.414 44.5463H409.772L410.5 42.3043Z" fill="#FFDA44"/>
<path d="M400.815 46.3156L402.916 47.3858L404.583 45.719L404.214 48.0472L406.315 49.1175L403.986 49.4863L403.617 51.8147L402.547 49.7142L400.219 50.083L401.886 48.4162L400.815 46.3156Z" fill="#FFDA44"/>
<path d="M396.804 56L399.046 55.2714V52.9141L400.432 54.8213L402.674 54.0928L401.288 56L402.674 57.9071L400.432 57.1786L399.046 59.0859V56.7286L396.804 56Z" fill="#FFDA44"/>
<path d="M400.815 65.6842L401.886 63.5836L400.219 61.9168L402.547 62.2858L403.617 60.1852L403.986 62.5135L406.314 62.8823L404.214 63.9526L404.583 66.2807L402.916 64.6139L400.815 65.6842Z" fill="#FFDA44"/>
<path d="M410.5 69.6955L409.771 67.4536H407.414L409.321 66.0679L408.593 63.8262L410.5 65.2117L412.407 63.8262L411.679 66.0679L413.586 67.4536H411.229L410.5 69.6955Z" fill="#FFDA44"/>
<path d="M420.184 65.6842L418.084 64.6141L416.417 66.2809L416.786 63.9524L414.685 62.8823L417.014 62.5135L417.383 60.1852L418.453 62.2858L420.781 61.9168L419.114 63.5839L420.184 65.6842Z" fill="#FFDA44"/>
<path d="M424.196 56L421.954 56.7286V59.0859L420.568 57.1786L418.326 57.9071L419.712 56L418.326 54.0928L420.568 54.8213L421.954 52.9141V55.2715L424.196 56Z" fill="#FFDA44"/>
<path d="M420.184 46.3157L419.114 48.4163L420.781 50.0831L418.453 49.7141L417.383 51.8146L417.014 49.4863L414.685 49.1175L416.786 48.0473L416.417 45.7192L418.084 47.3859L420.184 46.3157Z" fill="#FFDA44"/>
<path d="M517 80C530.255 80 541 69.2548 541 56C541 42.7452 530.255 32 517 32C503.745 32 493 42.7452 493 56C493 69.2548 503.745 80 517 80Z" fill="#F0F0F0"/>
<path d="M515.956 56.0001H541C541 53.8339 540.711 51.7354 540.173 49.7391H515.956V56.0001Z" fill="#D80027"/>
<path d="M515.956 43.4783H537.477C536.008 41.0809 534.129 38.9619 531.939 37.2174H515.956V43.4783Z" fill="#D80027"/>
<path d="M517 80C522.648 80 527.84 78.048 531.939 74.783H502.06C506.16 78.048 511.351 80 517 80Z" fill="#D80027"/>
<path d="M496.522 68.5217H537.477C538.657 66.5971 539.571 64.4933 540.173 62.2607H493.826C494.428 64.4933 495.343 66.5971 496.522 68.5217Z" fill="#D80027"/>
<path d="M504.117 35.7479H506.304L504.27 37.2259L505.047 39.6174L503.013 38.1394L500.978 39.6174L501.65 37.5514C499.859 39.0434 498.289 40.7915 496.995 42.7393H497.696L496.401 43.68C496.199 44.0166 496.005 44.3585 495.82 44.7055L496.438 46.6087L495.285 45.7705C494.998 46.3781 494.736 46.9993 494.5 47.6336L495.181 49.7306H497.696L495.661 51.2085L496.438 53.6L494.404 52.122L493.186 53.0074C493.064 53.9878 493 54.9865 493 56H517C517 42.7452 517 41.1826 517 32C512.259 32 507.839 33.3753 504.117 35.7479ZM505.047 53.6L503.013 52.122L500.978 53.6L501.756 51.2085L499.721 49.7306H502.236L503.013 47.3391L503.79 49.7306H506.304L504.27 51.2085L505.047 53.6ZM504.27 44.2172L505.047 46.6087L503.013 45.1307L500.978 46.6087L501.756 44.2172L499.721 42.7393H502.236L503.013 40.3478L503.79 42.7393H506.304L504.27 44.2172ZM513.656 53.6L511.621 52.122L509.587 53.6L510.364 51.2085L508.33 49.7306H510.844L511.621 47.3391L512.398 49.7306H514.913L512.879 51.2085L513.656 53.6ZM512.879 44.2172L513.656 46.6087L511.621 45.1307L509.587 46.6087L510.364 44.2172L508.33 42.7393H510.844L511.621 40.3478L512.398 42.7393H514.913L512.879 44.2172ZM512.879 37.2259L513.656 39.6174L511.621 38.1394L509.587 39.6174L510.364 37.2259L508.33 35.7479H510.844L511.621 33.3565L512.398 35.7479H514.913L512.879 37.2259Z" fill="#0052B4"/>
<g opacity="0.15">
<path opacity="0.15" d="M105 293C116.046 293 125 284.046 125 273C125 261.954 116.046 253 105 253C93.9543 253 85 261.954 85 273C85 284.046 93.9543 293 105 293Z" fill="#F0F0F0"/>
<path opacity="0.15" d="M125 273C125 284.046 116.046 293 105 293C93.9544 293 85 284.046 85 273" fill="#D80027"/>
</g>
<g opacity="0.5">
<path opacity="0.5" d="M205 293C216.046 293 225 284.046 225 273C225 261.954 216.046 253 205 253C193.954 253 185 261.954 185 273C185 284.046 193.954 293 205 293Z" fill="#F0F0F0"/>
<path opacity="0.5" d="M211.956 273C211.956 274.739 208.842 279.087 205 279.087C201.158 279.087 198.043 274.739 198.043 273C198.043 269.158 201.158 266.043 205 266.043C208.842 266.043 211.956 269.158 211.956 273Z" fill="#D80027"/>
<path opacity="0.5" d="M211.956 273C211.956 276.842 208.842 279.956 205 279.956C201.158 279.956 198.043 276.842 198.043 273" fill="#0052B4"/>
<path opacity="0.5" d="M214.223 277.304L212.378 279.149L213.608 280.379L215.453 278.534L214.223 277.304Z" fill="black"/>
<path opacity="0.5" d="M211.148 280.379L209.303 282.223L210.533 283.453L212.378 281.609L211.148 280.379Z" fill="black"/>
<path opacity="0.5" d="M217.913 280.993L216.068 282.837L217.298 284.067L219.142 282.222L217.913 280.993Z" fill="black"/>
<path opacity="0.5" d="M214.838 284.068L212.993 285.912L214.223 287.142L216.068 285.298L214.838 284.068Z" fill="black"/>
<path opacity="0.5" d="M216.068 279.149L214.223 280.993L215.453 282.223L217.297 280.378L216.068 279.149Z" fill="black"/>
<path opacity="0.5" d="M212.994 282.223L211.149 284.068L212.379 285.297L214.223 283.453L212.994 282.223Z" fill="black"/>
<path opacity="0.5" d="M211.15 261.932L216.069 266.851L217.298 265.621L212.379 260.702L211.15 261.932Z" fill="black"/>
<path opacity="0.5" d="M209.305 263.777L211.15 265.622L212.379 264.392L210.535 262.547L209.305 263.777Z" fill="black"/>
<path opacity="0.5" d="M212.379 266.851L214.223 268.696L215.453 267.466L213.608 265.622L212.379 266.851Z" fill="black"/>
<path opacity="0.5" d="M212.993 260.088L214.837 261.933L216.067 260.703L214.222 258.858L212.993 260.088Z" fill="black"/>
<path opacity="0.5" d="M216.068 263.162L217.913 265.007L219.142 263.777L217.298 261.933L216.068 263.162Z" fill="black"/>
<path opacity="0.5" d="M197.007 285.913L192.088 280.994L190.858 282.223L195.777 287.142L197.007 285.913Z" fill="black"/>
<path opacity="0.5" d="M198.851 284.067L197.006 282.223L195.777 283.452L197.621 285.297L198.851 284.067Z" fill="black"/>
<path opacity="0.5" d="M195.777 280.993L193.932 279.149L192.702 280.378L194.547 282.223L195.777 280.993Z" fill="black"/>
<path opacity="0.5" d="M200.696 282.223L195.777 277.304L194.547 278.534L199.466 283.453L200.696 282.223Z" fill="black"/>
<path opacity="0.5" d="M192.088 265.006L197.007 260.088L195.777 258.858L190.858 263.777L192.088 265.006Z" fill="black"/>
<path opacity="0.5" d="M193.932 266.851L198.851 261.932L197.621 260.702L192.702 265.621L193.932 266.851Z" fill="black"/>
<path opacity="0.5" d="M195.777 268.696L200.696 263.777L199.467 262.547L194.548 267.466L195.777 268.696Z" fill="black"/>
</g>
<g opacity="0.8">
<path opacity="0.8" d="M307.5 295.5C319.926 295.5 330 285.426 330 273C330 260.574 319.926 250.5 307.5 250.5C295.074 250.5 285 260.574 285 273C285 285.426 295.074 295.5 307.5 295.5Z" fill="#F0F0F0"/>
<path opacity="0.8" d="M302.609 270.065H329.809C328.371 259.026 318.932 250.5 307.5 250.5C305.82 250.5 304.184 250.686 302.609 251.035V270.065Z" fill="#D80027"/>
<path opacity="0.8" d="M296.739 270.065V253.236C290.561 256.607 286.138 262.79 285.19 270.065H296.739Z" fill="#D80027"/>
<path opacity="0.8" d="M296.739 275.935H285.19C286.138 283.21 290.561 289.393 296.739 292.764V275.935Z" fill="#D80027"/>
<path opacity="0.8" d="M302.609 275.935V294.965C304.184 295.314 305.82 295.5 307.5 295.5C318.932 295.5 328.371 286.974 329.809 275.935H302.609Z" fill="#D80027"/>
</g>
<path d="M412.5 295.5C424.926 295.5 435 285.426 435 273C435 260.574 424.926 250.5 412.5 250.5C400.074 250.5 390 260.574 390 273C390 285.426 400.074 295.5 412.5 295.5Z" fill="#F0F0F0"/>
<path d="M420.972 268.109H415.324L412.5 263.217L409.676 268.109H404.028L406.852 273L404.028 277.891H409.676L412.5 282.783L415.324 277.891H420.972L418.148 273L420.972 268.109ZM415.97 273L414.235 276.005H410.765L409.03 273L410.765 269.995H414.235L415.97 273ZM412.5 266.99L413.146 268.109H411.854L412.5 266.99ZM407.296 269.995H408.587L407.941 271.114L407.296 269.995ZM407.296 276.005L407.941 274.887L408.587 276.005H407.296ZM412.5 279.01L411.854 277.891H413.146L412.5 279.01ZM417.704 276.005H416.413L417.059 274.887L417.704 276.005ZM416.413 269.995H417.704L417.059 271.114L416.413 269.995Z" fill="#0052B4"/>
<path d="M426.506 255.391H398.494C396.441 257.027 394.68 259.013 393.302 261.261H431.698C430.32 259.013 428.559 257.027 426.506 255.391Z" fill="#0052B4"/>
<path d="M398.494 290.609H426.506C428.559 288.973 430.32 286.987 431.698 284.739H393.302C394.68 286.987 396.441 288.973 398.494 290.609Z" fill="#0052B4"/>
<path d="M520 298C533.807 298 545 286.807 545 273C545 259.193 533.807 248 520 248C506.193 248 495 259.193 495 273C495 286.807 506.193 298 520 298Z" fill="#F0F0F0"/>
<path d="M543.445 281.695C544.45 278.987 545 276.058 545 273C545 269.942 544.45 267.013 543.445 264.304H496.555C495.55 267.013 495 269.942 495 273C495 276.058 495.55 278.987 496.555 281.695L520 283.869L543.445 281.695Z" fill="#005AC5"/>
<path d="M520 298C530.749 298 539.912 291.216 543.445 281.696H496.555C500.087 291.216 509.251 298 520 298Z" fill="#D80027"/>
<path d="M638.98 297.86C652.699 297.86 663.82 286.739 663.82 273.02C663.82 259.302 652.699 248.18 638.98 248.18C625.261 248.18 614.14 259.302 614.14 273.02C614.14 286.739 625.261 297.86 638.98 297.86Z" fill="#335E9F"/>
<path d="M627.94 288.26L631.64 276.24L627.61 277.47L628.68 274.51L632.38 273.36L637.55 256.35C637.66 255.99 638 255.74 638.38 255.74H643.66C644.24 255.74 644.65 256.3 644.49 256.85L640.29 270.89L644.08 269.82L643.39 272.68L639.48 273.86L636.75 282.58H650.65C651.07 282.58 651.37 282.98 651.26 283.38L650.05 287.8C649.97 288.07 649.73 288.26 649.44 288.26H627.94Z" fill="white"/>
<g opacity="0.8">
<path opacity="0.8" d="M746.5 295.5C758.926 295.5 769 285.426 769 273C769 260.574 758.926 250.5 746.5 250.5C734.074 250.5 724 260.574 724 273C724 285.426 734.074 295.5 746.5 295.5Z" fill="url(#paint3_linear)"/>
<path opacity="0.8" d="M748.052 280.565L739.207 289.409L736.685 286.694L742.814 280.565L736.452 274.203L739.167 271.487L748.052 280.565ZM753.211 275.483L755.927 272.767L749.564 266.405L755.693 260.276L753.172 257.56L744.288 266.405L753.211 275.483ZM740.292 270.44L749.215 279.517L751.93 276.802L743.008 267.879L740.292 270.44Z" fill="white"/>
</g>
<g opacity="0.8">
<path opacity="0.8" d="M851.5 295.5C863.926 295.5 874 285.426 874 273C874 260.574 863.926 250.5 851.5 250.5C839.074 250.5 829 260.574 829 273C829 285.426 839.074 295.5 851.5 295.5Z" fill="#923FD6"/>
<g opacity="0.8">
<path opacity="0.8" d="M859.344 278.383C862.466 278.383 864.998 275.852 864.998 272.729C864.998 269.607 862.466 267.075 859.344 267.075C856.221 267.075 853.69 269.607 853.69 272.729C853.69 275.852 856.221 278.383 859.344 278.383Z" fill="white"/>
<path opacity="0.8" d="M852.198 264.953C853.704 264.953 854.925 263.732 854.925 262.226C854.925 260.721 853.704 259.5 852.198 259.5C850.693 259.5 849.472 260.721 849.472 262.226C849.472 263.732 850.693 264.953 852.198 264.953Z" fill="white"/>
<path opacity="0.8" d="M852.198 285.971C853.704 285.971 854.925 284.75 854.925 283.245C854.925 281.739 853.704 280.518 852.198 280.518C850.693 280.518 849.472 281.739 849.472 283.245C849.472 284.75 850.693 285.971 852.198 285.971Z" fill="white"/>
<path opacity="0.8" d="M850.949 276.812C851.11 276.865 851.284 276.892 851.459 276.892C852.399 276.892 853.165 276.127 853.165 275.187C853.165 274.246 852.399 273.481 851.459 273.481C850.855 273.481 850.331 273.79 850.022 274.26V274.273C849.968 274.34 849.928 274.421 849.901 274.502C848.021 277.819 844.247 275.603 844.247 275.603C843.629 275.24 842.917 275.025 842.139 275.025C839.869 275.025 838.029 276.865 838.029 279.135C838.029 281.405 839.869 283.245 842.139 283.245C843.723 283.245 845.107 282.345 845.778 281.029V281.015C845.899 280.787 845.993 280.545 846.074 280.29C848.034 275.791 850.949 276.812 850.949 276.812ZM849.982 270.781C850.062 270.929 850.17 271.077 850.291 271.198C850.962 271.869 852.037 271.869 852.695 271.198C853.366 270.526 853.366 269.452 852.695 268.794C852.265 268.364 851.674 268.216 851.137 268.337H851.123C851.043 268.351 850.949 268.378 850.868 268.418C847.188 269.438 846.087 265.195 846.087 265.195C845.912 264.496 845.55 263.838 845.013 263.301C843.401 261.689 840.809 261.689 839.211 263.288C837.613 264.886 837.599 267.491 839.211 269.089C840.339 270.217 841.937 270.553 843.361 270.097H843.374C843.616 270.016 843.858 269.909 844.099 269.788C848.652 267.988 849.982 270.781 849.982 270.781Z" fill="white"/>
</g>
</g>
<g opacity="0.3">
<path opacity="0.3" d="M954 293C965.046 293 974 284.046 974 273C974 261.954 965.046 253 954 253C942.954 253 934 261.954 934 273C934 284.046 942.954 293 954 293Z" fill="#1C61EE"/>
<path opacity="0.3" d="M950.447 283.254H946.539V276.908C948.684 276.908 950.417 278.641 950.417 280.786V283.254H950.447Z" fill="#F2F2F2"/>
<path opacity="0.3" d="M957.557 271.031L951.887 271.061C951.064 271.061 950.417 270.414 950.417 269.592V262.746H946.539V271.031C946.539 273.176 948.273 274.91 950.417 274.91H956.088C956.911 274.91 957.557 275.556 957.557 276.379V283.225H961.436V274.939C961.465 272.765 959.731 271.031 957.557 271.031Z" fill="#F2F2F2"/>
<path opacity="0.3" d="M957.557 262.746H961.436V269.122C959.291 269.122 957.557 267.388 957.557 265.243V262.746Z" fill="#F2F2F2"/>
</g>
<g opacity="0.15">
<path opacity="0.15" d="M1054 293C1065.05 293 1074 284.046 1074 273C1074 261.954 1065.05 253 1054 253C1042.95 253 1034 261.954 1034 273C1034 284.046 1042.95 293 1054 293Z" fill="#34445B"/>
<path opacity="0.15" d="M1053.92 265.778L1056.43 261.858C1057.08 261.962 1057.74 261.814 1058.28 261.444C1058.82 261.074 1059.19 260.511 1059.32 259.872C1059.46 259.233 1059.34 258.567 1058.99 258.012C1058.65 257.458 1058.1 257.057 1057.47 256.895C1056.97 256.791 1056.44 256.842 1055.97 257.042C1055.5 257.242 1055.09 257.582 1054.82 258.016C1054.54 258.45 1054.4 258.957 1054.42 259.472C1054.44 259.986 1054.61 260.482 1054.92 260.895L1051.8 265.759C1050.5 265.887 1049.24 266.27 1048.09 266.886C1046.93 267.502 1045.91 268.34 1045.08 269.351C1044.26 270.361 1043.63 271.526 1043.25 272.777C1042.88 274.028 1042.75 275.342 1042.88 276.643C1043.14 279.269 1044.43 281.685 1046.47 283.359C1048.51 285.033 1051.13 285.828 1053.76 285.57C1056.39 285.31 1058.8 284.018 1060.48 281.977C1062.15 279.937 1062.95 277.315 1062.69 274.688C1062.46 272.425 1061.47 270.307 1059.88 268.686C1058.28 267.065 1056.18 266.039 1053.92 265.778ZM1052.78 280.93C1052.08 280.931 1051.4 280.795 1050.76 280.53C1050.12 280.265 1049.53 279.876 1049.04 279.385C1048.55 278.895 1048.16 278.313 1047.9 277.672C1047.63 277.031 1047.5 276.345 1047.5 275.651C1047.5 274.958 1047.63 274.271 1047.9 273.63C1048.16 272.989 1048.55 272.407 1049.04 271.916C1049.53 271.426 1050.12 271.037 1050.76 270.772C1051.4 270.507 1052.08 270.371 1052.78 270.371C1053.85 270.371 1054.9 270.698 1055.78 271.308C1056.66 271.918 1057.34 272.783 1057.71 273.786C1057.22 273.147 1056.49 272.732 1055.69 272.63C1054.88 272.529 1054.07 272.75 1053.43 273.245C1052.8 273.741 1052.38 274.47 1052.28 275.273C1052.18 276.076 1052.4 276.886 1052.89 277.525C1053.18 277.891 1053.54 278.188 1053.96 278.392C1054.38 278.596 1054.83 278.703 1055.3 278.704C1055.76 278.704 1056.22 278.6 1056.64 278.397C1057.05 278.194 1057.42 277.899 1057.7 277.534C1057.33 278.533 1056.65 279.393 1055.77 280C1054.89 280.606 1053.85 280.931 1052.78 280.93Z" fill="white"/>
<path opacity="0.15" d="M1053.92 265.778L1056.43 261.858C1057.08 261.962 1057.74 261.814 1058.28 261.444C1058.82 261.074 1059.19 260.511 1059.32 259.872C1059.46 259.233 1059.34 258.567 1058.99 258.012C1058.65 257.458 1058.1 257.057 1057.47 256.895C1056.97 256.791 1056.44 256.842 1055.97 257.042C1055.5 257.242 1055.09 257.582 1054.82 258.016C1054.54 258.45 1054.4 258.957 1054.42 259.472C1054.44 259.986 1054.61 260.482 1054.92 260.895L1051.8 265.759C1050.5 265.887 1049.24 266.27 1048.09 266.886C1046.93 267.502 1045.91 268.34 1045.08 269.351C1044.26 270.361 1043.63 271.526 1043.25 272.777C1042.88 274.028 1042.75 275.342 1042.88 276.643C1043.14 279.269 1044.43 281.685 1046.47 283.359C1048.51 285.033 1051.13 285.828 1053.76 285.57C1056.39 285.31 1058.8 284.018 1060.48 281.977C1062.15 279.937 1062.95 277.315 1062.69 274.688C1062.46 272.425 1061.47 270.307 1059.88 268.686C1058.28 267.065 1056.18 266.039 1053.92 265.778ZM1052.78 280.93C1052.08 280.931 1051.4 280.795 1050.76 280.53C1050.12 280.265 1049.53 279.876 1049.04 279.385C1048.55 278.895 1048.16 278.313 1047.9 277.672C1047.63 277.031 1047.5 276.345 1047.5 275.651C1047.5 274.958 1047.63 274.271 1047.9 273.63C1048.16 272.989 1048.55 272.407 1049.04 271.916C1049.53 271.426 1050.12 271.037 1050.76 270.772C1051.4 270.507 1052.08 270.371 1052.78 270.371C1053.85 270.371 1054.9 270.698 1055.78 271.308C1056.66 271.918 1057.34 272.783 1057.71 273.786C1057.22 273.147 1056.49 272.732 1055.69 272.63C1054.88 272.529 1054.07 272.75 1053.43 273.245C1052.8 273.741 1052.38 274.47 1052.28 275.273C1052.18 276.076 1052.4 276.886 1052.89 277.525C1053.18 277.891 1053.54 278.188 1053.96 278.392C1054.38 278.596 1054.83 278.703 1055.3 278.704C1055.76 278.704 1056.22 278.6 1056.64 278.397C1057.05 278.194 1057.42 277.899 1057.7 277.534C1057.33 278.533 1056.65 279.393 1055.77 280C1054.89 280.606 1053.85 280.931 1052.78 280.93Z" fill="white"/>
</g>
<g opacity="0.2">
<path opacity="0.2" d="M60 168C60 179.046 51.0456 188 40 188C28.9544 188 20 179.046 20 168C20 168.005 40 148.002 40 148C51.0456 148 60 156.954 60 168Z" fill="#0868DA"/>
<path opacity="0.2" d="M40 158.435C40 154.916 40 152.61 40 148H39.9966C28.9525 148.002 20 156.955 20 168H30.4348V162.124L36.3107 168H39.9466C39.9644 167.982 39.9823 167.964 40 167.946C40 166.599 40 165.397 40 164.311L34.1241 158.435H40Z" fill="#F0F0F0"/>
<path opacity="0.2" d="M30.1181 150.609C26.9901 152.39 24.3896 154.99 22.6084 158.118V168H27.8258V155.826H39.9998C39.9998 154.18 39.9998 152.613 39.9998 150.609H30.1181Z" fill="#D80027"/>
<path opacity="0.2" d="M40 165.54L32.8942 158.435H30.4348L39.9999 168C39.9999 168 40 166.304 40 165.54Z" fill="#D80027"/>
<path opacity="0.2" d="M54.6352 162.84L55.0668 164.169H56.4638L55.3336 164.99L55.7654 166.319L54.6352 165.498L53.505 166.319L53.9366 164.99L52.8064 164.169H54.2034L54.6352 162.84Z" fill="#D80027"/>
<path opacity="0.2" d="M49.6412 172.405L50.2888 174.398H52.3842L50.6888 175.63L51.3366 177.623L49.6412 176.391L47.9458 177.623L48.5936 175.63L46.8982 174.398H48.9936L49.6412 172.405Z" fill="#D80027"/>
<path opacity="0.2" d="M49.83 156.753L50.3696 158.414H52.1158L50.703 159.44L51.2426 161.101L49.83 160.075L48.4172 161.101L48.9568 159.44L47.5442 158.414H49.2904L49.83 156.753Z" fill="#D80027"/>
<path opacity="0.2" d="M45.025 162.782L45.6724 164.775H47.768L46.0726 166.007L46.7204 168L45.025 166.768L43.3296 168L43.9774 166.007L42.282 164.775H44.3774L45.025 162.782Z" fill="#D80027"/>
</g>
<g opacity="0.3">
<path opacity="0.3" d="M140 188C151.046 188 160 179.046 160 168C160 156.954 151.046 148 140 148C128.954 148 120 156.954 120 168C120 179.046 128.954 188 140 188Z" fill="#F0F0F0"/>
<path opacity="0.3" d="M125.858 182.142C118.047 174.332 118.047 161.668 125.858 153.858C125.857 153.859 137.391 168 137.391 168L125.858 182.142Z" fill="black"/>
<path opacity="0.3" d="M137.391 168L122.653 158.04C122.196 158.834 121.793 159.663 121.447 160.522L128.908 168L121.447 175.479C121.793 176.336 122.195 177.165 122.652 177.959L137.391 168Z" fill="#FFDA44"/>
<path opacity="0.3" d="M159.831 165.391H137.391L125.858 153.858C124.615 155.101 123.535 156.507 122.653 158.04L132.593 168L122.652 177.959C123.534 179.493 124.615 180.899 125.858 182.142L137.391 170.609H159.831C159.942 169.755 160 168.884 160 168C160 167.116 159.942 166.245 159.831 165.391Z" fill="#6DA544"/>
<path opacity="0.3" d="M127.823 183.865C131.196 186.458 135.417 188 140 188C149.241 188 157.016 181.733 159.311 173.217H138.471L127.823 183.865Z" fill="#0052B4"/>
<path opacity="0.3" d="M159.311 162.783C157.016 154.267 149.241 148 140 148C135.417 148 131.196 149.542 127.823 152.135L138.471 162.783H159.311Z" fill="#D80027"/>
</g>
<g opacity="0.7">
<path opacity="0.7" d="M242.5 190.5C254.926 190.5 265 180.426 265 168C265 155.574 254.926 145.5 242.5 145.5C230.074 145.5 220 155.574 220 168C220 180.426 230.074 190.5 242.5 190.5Z" fill="#F0F0F0"/>
<path opacity="0.7" d="M242.5 177.783C247.903 177.783 252.283 173.403 252.283 168C252.283 162.597 247.903 158.218 242.5 158.218C237.097 158.218 232.718 162.597 232.718 168C232.718 173.403 237.097 177.783 242.5 177.783Z" fill="#D80027"/>
</g>
<path d="M347.5 190.5C359.926 190.5 370 180.426 370 168C370 155.574 359.926 145.5 347.5 145.5C335.074 145.5 325 155.574 325 168C325 180.426 335.074 190.5 347.5 190.5Z" fill="#F0F0F0"/>
<path d="M329.651 154.302C327.884 156.601 326.551 159.251 325.775 162.131H337.48L329.651 154.302Z" fill="#0052B4"/>
<path d="M369.225 162.131C368.449 159.252 367.116 156.601 365.349 154.302L357.52 162.131H369.225Z" fill="#0052B4"/>
<path d="M325.775 173.87C326.551 176.749 327.884 179.399 329.651 181.699L337.48 173.87H325.775Z" fill="#0052B4"/>
<path d="M361.199 150.151C358.899 148.384 356.249 147.051 353.369 146.275V157.98L361.199 150.151Z" fill="#0052B4"/>
<path d="M333.801 185.849C336.101 187.616 338.751 188.949 341.63 189.725V178.02L333.801 185.849Z" fill="#0052B4"/>
<path d="M341.63 146.275C338.751 147.051 336.101 148.384 333.801 150.151L341.63 157.98V146.275Z" fill="#0052B4"/>
<path d="M353.369 189.725C356.249 188.949 358.899 187.616 361.198 185.849L353.369 178.02V189.725Z" fill="#0052B4"/>
<path d="M357.52 173.87L365.349 181.699C367.116 179.399 368.449 176.749 369.225 173.87H357.52Z" fill="#0052B4"/>
<path d="M369.81 165.065H350.435V145.69C349.474 145.565 348.495 145.5 347.5 145.5C346.505 145.5 345.526 145.565 344.565 145.69V165.065H325.19C325.065 166.026 325 167.005 325 168C325 168.995 325.065 169.974 325.19 170.935H344.565V190.31C345.526 190.435 346.505 190.5 347.5 190.5C348.495 190.5 349.474 190.435 350.435 190.31V170.935H369.81C369.935 169.974 370 168.995 370 168C370 167.005 369.935 166.026 369.81 165.065Z" fill="#D80027"/>
<path d="M353.37 173.87L363.41 183.91C363.872 183.448 364.312 182.966 364.733 182.465L356.137 173.87H353.37Z" fill="#D80027"/>
<path d="M341.63 173.87V176.636L333.035 185.233C332.534 184.812 332.052 184.372 331.59 183.91L341.63 173.87Z" fill="#D80027"/>
<path d="M341.631 162.131L331.591 152.09C331.129 152.552 330.688 153.034 330.268 153.535L338.864 162.131H341.631Z" fill="#D80027"/>
<path d="M363.41 152.09L353.37 162.13V159.364L361.966 150.768C362.466 151.188 362.949 151.628 363.41 152.09Z" fill="#D80027"/>
<path d="M455 193C468.807 193 480 181.807 480 168C480 154.193 468.807 143 455 143C441.193 143 430 154.193 430 168C430 181.807 441.193 193 455 193Z" fill="#FFDA44"/>
<path d="M449.566 164.739H479.789C478.191 152.473 467.702 143 455 143C453.134 143 451.315 143.206 449.566 143.594V164.739Z" fill="#0C6ADB"/>
<path d="M443.044 164.739V146.04C436.179 149.785 431.265 156.656 430.212 164.739H443.044Z" fill="#0C6ADB"/>
<path d="M443.044 171.261H430.212C431.265 179.345 436.179 186.215 443.044 189.96V171.261Z" fill="#0C6ADB"/>
<path d="M449.566 171.261V192.406C451.315 192.794 453.134 193 455 193C467.702 193 478.191 183.527 479.789 171.261H449.566Z" fill="#0C6ADB"/>
<path d="M584.171 266.111C583.878 265.818 583.403 265.818 583.111 266.111C582.818 266.403 582.818 266.878 583.111 267.171L583.94 268H575.25C574.255 268 573.302 268.395 572.599 269.099C571.895 269.802 571.5 270.755 571.5 271.75V273.25C571.5 273.664 571.836 274 572.25 274C572.664 274 573 273.664 573 273.25V271.75C573 271.153 573.237 270.581 573.659 270.159C574.081 269.737 574.653 269.5 575.25 269.5H583.94L583.111 270.329C582.818 270.622 582.818 271.096 583.111 271.389C583.403 271.682 583.878 271.682 584.171 271.389L586.274 269.286C586.299 269.261 586.323 269.235 586.344 269.207C586.372 269.171 586.396 269.133 586.417 269.093C586.47 268.99 586.5 268.874 586.5 268.75C586.5 268.64 586.476 268.536 586.434 268.442C586.4 268.366 586.352 268.295 586.291 268.231L586.279 268.219L584.171 266.111Z" fill="#616174"/>
<path d="M574.95 276.38C575.243 276.673 575.243 277.147 574.95 277.44L573.89 278.5H582.75C583.347 278.5 583.919 278.263 584.341 277.841C584.763 277.419 585 276.847 585 276.25V274.75C585 274.336 585.336 274 585.75 274C586.164 274 586.5 274.336 586.5 274.75V276.25C586.5 277.244 586.105 278.198 585.401 278.901C584.698 279.605 583.744 280 582.75 280H573.89L574.95 281.06C575.243 281.353 575.243 281.828 574.95 282.12C574.657 282.413 574.182 282.413 573.89 282.12L571.549 279.78C571.257 279.487 571.257 279.013 571.549 278.72L573.89 276.38C574.182 276.087 574.657 276.087 574.95 276.38Z" fill="#616174"/>
<path d="M521.171 160.111C520.878 159.818 520.403 159.818 520.111 160.111C519.818 160.403 519.818 160.878 520.111 161.171L520.94 162H512.25C511.255 162 510.302 162.395 509.599 163.099C508.895 163.802 508.5 164.755 508.5 165.75V167.25C508.5 167.664 508.836 168 509.25 168C509.664 168 510 167.664 510 167.25V165.75C510 165.153 510.237 164.581 510.659 164.159C511.081 163.737 511.653 163.5 512.25 163.5H520.94L520.111 164.329C519.818 164.622 519.818 165.096 520.111 165.389C520.403 165.682 520.878 165.682 521.171 165.389L523.274 163.286C523.299 163.261 523.323 163.235 523.344 163.207C523.372 163.171 523.396 163.133 523.417 163.093C523.47 162.99 523.5 162.874 523.5 162.75C523.5 162.64 523.476 162.536 523.434 162.442C523.4 162.366 523.352 162.295 523.291 162.231L523.279 162.219L521.171 160.111Z" fill="#616174"/>
<path d="M511.95 170.38C512.243 170.673 512.243 171.147 511.95 171.44L510.89 172.5H519.75C520.347 172.5 520.919 172.263 521.341 171.841C521.763 171.419 522 170.847 522 170.25V168.75C522 168.336 522.336 168 522.75 168C523.164 168 523.5 168.336 523.5 168.75V170.25C523.5 171.244 523.105 172.198 522.401 172.901C521.698 173.605 520.744 174 519.75 174H510.89L511.95 175.06C512.243 175.353 512.243 175.828 511.95 176.12C511.657 176.413 511.182 176.413 510.89 176.12L508.549 173.78C508.257 173.487 508.257 173.013 508.549 172.72L510.89 170.38C511.182 170.087 511.657 170.087 511.95 170.38Z" fill="#616174"/>
<path d="M579.171 49.1107C578.878 48.8179 578.403 48.8179 578.111 49.1107C577.818 49.4035 577.818 49.8782 578.111 50.171L578.94 51.0002H570.25C569.255 51.0002 568.302 51.3953 567.599 52.0985C566.895 52.8017 566.5 53.7555 566.5 54.75V56.25C566.5 56.664 566.836 56.9997 567.25 56.9997C567.664 56.9997 568 56.664 568 56.25V54.75C568 54.1532 568.237 53.5808 568.659 53.1588C569.081 52.7368 569.653 52.4997 570.25 52.4997H578.94L578.111 53.3289C577.818 53.6217 577.818 54.0964 578.111 54.3892C578.403 54.682 578.878 54.682 579.171 54.3892L581.274 52.286C581.299 52.2614 581.323 52.235 581.344 52.207C581.372 52.1708 581.396 52.1326 581.417 52.0929C581.47 51.9901 581.5 51.8736 581.5 51.75C581.5 51.6402 581.476 51.536 581.434 51.442C581.4 51.3661 581.352 51.2948 581.291 51.2314L581.279 51.2189L579.171 49.1107Z" fill="#616174"/>
<path d="M569.95 59.3797C570.243 59.6725 570.243 60.1472 569.95 60.44L568.89 61.5002H577.75C578.347 61.5002 578.919 61.2632 579.341 60.8412C579.763 60.4192 580 59.8468 580 59.25V57.75C580 57.3359 580.336 57.0002 580.75 57.0002C581.164 57.0002 581.5 57.3359 581.5 57.75V59.25C581.5 60.2445 581.105 61.1982 580.401 61.9014C579.698 62.6047 578.744 62.9997 577.75 62.9997H568.89L569.95 64.0601C570.243 64.3529 570.243 64.8276 569.95 65.1204C569.657 65.4132 569.182 65.4132 568.89 65.1204L566.549 62.7802C566.257 62.4874 566.257 62.0127 566.549 61.7199L568.89 59.3797C569.182 59.087 569.657 59.087 569.95 59.3797Z" fill="#616174"/>
</g>
<defs>
<filter id="filter0_f" x="680.049" y="-6" width="16.372" height="16.3716" filterUnits="userSpaceOnUse" color-interpolation-filters="sRGB">
<feFlood flood-opacity="0" result="BackgroundImageFix"/>
<feBlend mode="normal" in="SourceGraphic" in2="BackgroundImageFix" result="shape"/>
<feGaussianBlur stdDeviation="3" result="effect1_foregroundBlur"/>
</filter>
<filter id="filter1_f" x="667.218" y="2.96326" width="14.171" height="14.1715" filterUnits="userSpaceOnUse" color-interpolation-filters="sRGB">
<feFlood flood-opacity="0" result="BackgroundImageFix"/>
<feBlend mode="normal" in="SourceGraphic" in2="BackgroundImageFix" result="shape"/>
<feGaussianBlur stdDeviation="3" result="effect1_foregroundBlur"/>
</filter>
<filter id="filter2_d" x="427.218" y="-29" width="328" height="210" filterUnits="userSpaceOnUse" color-interpolation-filters="sRGB">
<feFlood flood-opacity="0" result="BackgroundImageFix"/>
<feColorMatrix in="SourceAlpha" type="matrix" values="0 0 0 0 0 0 0 0 0 0 0 0 0 0 0 0 0 0 127 0"/>
<feOffset dx="16.2178" dy="19"/>
<feGaussianBlur stdDeviation="33"/>
<feColorMatrix type="matrix" values="0 0 0 0 0.326944 0 0 0 0 0.326944 0 0 0 0 0.445833 0 0 0 0.21 0"/>
<feBlend mode="normal" in2="BackgroundImageFix" result="effect1_dropShadow"/>
<feBlend mode="normal" in="SourceGraphic" in2="effect1_dropShadow" result="shape"/>
</filter>
<filter id="filter3_d" x="431.218" y="188" width="328" height="210" filterUnits="userSpaceOnUse" color-interpolation-filters="sRGB">
<feFlood flood-opacity="0" result="BackgroundImageFix"/>
<feColorMatrix in="SourceAlpha" type="matrix" values="0 0 0 0 0 0 0 0 0 0 0 0 0 0 0 0 0 0 127 0"/>
<feOffset dx="16.2178" dy="19"/>
<feGaussianBlur stdDeviation="33"/>
<feColorMatrix type="matrix" values="0 0 0 0 0.326944 0 0 0 0 0.326944 0 0 0 0 0.445833 0 0 0 0.21 0"/>
<feBlend mode="normal" in2="BackgroundImageFix" result="effect1_dropShadow"/>
<feBlend mode="normal" in="SourceGraphic" in2="effect1_dropShadow" result="shape"/>
</filter>
<filter id="filter4_d" x="368.218" y="82" width="328" height="210" filterUnits="userSpaceOnUse" color-interpolation-filters="sRGB">
<feFlood flood-opacity="0" result="BackgroundImageFix"/>
<feColorMatrix in="SourceAlpha" type="matrix" values="0 0 0 0 0 0 0 0 0 0 0 0 0 0 0 0 0 0 127 0"/>
<feOffset dx="16.2178" dy="19"/>
<feGaussianBlur stdDeviation="33"/>
<feColorMatrix type="matrix" values="0 0 0 0 0.326944 0 0 0 0 0.326944 0 0 0 0 0.445833 0 0 0 0.21 0"/>
<feBlend mode="normal" in2="BackgroundImageFix" result="effect1_dropShadow"/>
<feBlend mode="normal" in="SourceGraphic" in2="effect1_dropShadow" result="shape"/>
</filter>
<linearGradient id="paint0_linear" x1="569.116" y1="116.664" x2="574.923" y2="-21.2639" gradientUnits="userSpaceOnUse">
<stop stop-color="#565669"/>
<stop offset="1" stop-color="#3E3E4B"/>
</linearGradient>
<linearGradient id="paint1_linear" x1="584.884" y1="214.336" x2="579.077" y2="352.264" gradientUnits="userSpaceOnUse">
<stop stop-color="#565669"/>
<stop offset="1" stop-color="#3E3E4B"/>
</linearGradient>
<linearGradient id="paint2_linear" x1="521.884" y1="108.336" x2="516.077" y2="246.264" gradientUnits="userSpaceOnUse">
<stop stop-color="#565669"/>
<stop offset="1" stop-color="#3E3E4B"/>
</linearGradient>
<linearGradient id="paint3_linear" x1="723.55" y1="273" x2="776.2" y2="273" gradientUnits="userSpaceOnUse">
<stop stop-color="#08BBC9"/>
<stop offset="0.5" stop-color="#12A3CA"/>
<stop offset="1" stop-color="#149ACA"/>
</linearGradient>
<clipPath id="clip0">
<rect width="1149" height="313" fill="white"/>
</clipPath>
</defs>
</svg>
