<svg width="91" height="22" viewBox="0 0 91 22" fill="none" xmlns="http://www.w3.org/2000/svg">
<g opacity="0.85">
<path d="M29.8028 3.60091C29.8028 4.24921 29.6077 4.7663 29.2173 5.14447C28.7802 5.59982 28.2025 5.83135 27.4999 5.83135C26.8207 5.83135 26.2508 5.59982 25.7746 5.13675C25.2984 4.67368 25.0642 4.09485 25.0642 3.41568C25.0642 2.7288 25.2984 2.15768 25.7746 1.69461C26.2508 1.23155 26.8207 1.00001 27.4999 1.00001C27.8356 1.00001 28.1556 1.06175 28.4601 1.19296C28.7645 1.32416 29.0066 1.49395 29.1939 1.71005L28.7802 2.11909C28.4679 1.75636 28.0463 1.57113 27.4999 1.57113C27.0081 1.57113 26.5787 1.74092 26.2196 2.08822C25.8605 2.4278 25.6809 2.87544 25.6809 3.4234C25.6809 3.97137 25.8605 4.419 26.2196 4.75858C26.5787 5.09816 27.0081 5.27567 27.4999 5.27567C28.0229 5.27567 28.4601 5.10588 28.8114 4.75858C29.0378 4.53476 29.1705 4.21833 29.2017 3.81701H27.4999V3.26133H29.7716C29.7872 3.37709 29.8028 3.49286 29.8028 3.60091Z" fill="white"/>
<path d="M33.3938 1.67145H31.2626V3.13783H33.1831V3.69352H31.2626V5.1599H33.3938V5.73102H30.6615V1.10033H33.3938V1.67145Z" fill="white"/>
<path d="M35.9388 5.73102H35.3377V1.67145H34.0262V1.10033H37.2425V1.67145H35.931V5.73102H35.9388Z" fill="white"/>
<path d="M39.5691 5.73102V1.10033H40.1702V5.73102H39.5691Z" fill="white"/>
<path d="M42.8398 5.73102H42.2387V1.67145H40.9272V1.10033H44.1436V1.67145H42.832V5.73102H42.8398Z" fill="white"/>
<path d="M50.2485 5.12903C49.7879 5.59982 49.218 5.83135 48.531 5.83135C47.844 5.83135 47.2742 5.59982 46.8136 5.12903C46.353 4.65825 46.1266 4.08713 46.1266 3.41568C46.1266 2.74423 46.353 2.1654 46.8136 1.70233C47.2742 1.23155 47.844 1.00001 48.531 1.00001C49.2102 1.00001 49.7801 1.23155 50.2485 1.70233C50.7091 2.17312 50.9433 2.74423 50.9433 3.41568C50.9355 4.09485 50.7013 4.66597 50.2485 5.12903ZM47.2586 4.74314C47.602 5.09045 48.0314 5.26024 48.531 5.26024C49.0307 5.26024 49.46 5.09045 49.8035 4.74314C50.147 4.39584 50.3266 3.95593 50.3266 3.41568C50.3266 2.87544 50.1548 2.43552 49.8035 2.08822C49.46 1.74092 49.0307 1.57113 48.531 1.57113C48.0314 1.57113 47.602 1.74092 47.2586 2.08822C46.9151 2.43552 46.7355 2.87544 46.7355 3.41568C46.7355 3.95593 46.9073 4.39584 47.2586 4.74314Z" fill="white"/>
<path d="M51.7786 5.73102V1.10033H52.5124L54.7919 4.70455H54.8154L54.7919 3.80928V1.10033H55.393V5.73102H54.7685L52.3875 1.95701H52.3641L52.3875 2.85228V5.73102H51.7786Z" fill="white"/>
<path d="M29.8028 3.60091C29.8028 4.24921 29.6077 4.7663 29.2173 5.14447C28.7802 5.59982 28.2025 5.83135 27.4999 5.83135C26.8207 5.83135 26.2508 5.59982 25.7746 5.13675C25.2984 4.67368 25.0642 4.09485 25.0642 3.41568C25.0642 2.7288 25.2984 2.15768 25.7746 1.69461C26.2508 1.23155 26.8207 1.00001 27.4999 1.00001C27.8356 1.00001 28.1556 1.06175 28.4601 1.19296C28.7645 1.32416 29.0066 1.49395 29.1939 1.71005L28.7802 2.11909C28.4679 1.75636 28.0463 1.57113 27.4999 1.57113C27.0081 1.57113 26.5787 1.74092 26.2196 2.08822C25.8605 2.4278 25.6809 2.87544 25.6809 3.4234C25.6809 3.97137 25.8605 4.419 26.2196 4.75858C26.5787 5.09816 27.0081 5.27567 27.4999 5.27567C28.0229 5.27567 28.4601 5.10588 28.8114 4.75858C29.0378 4.53476 29.1705 4.21833 29.2017 3.81701H27.4999V3.26133H29.7716C29.7872 3.37709 29.8028 3.49286 29.8028 3.60091Z" stroke="white" stroke-width="0.178577" stroke-miterlimit="10"/>
<path d="M33.3938 1.67145H31.2626V3.13783H33.1831V3.69352H31.2626V5.1599H33.3938V5.73102H30.6615V1.10033H33.3938V1.67145Z" stroke="white" stroke-width="0.178577" stroke-miterlimit="10"/>
<path d="M35.9388 5.73102H35.3377V1.67145H34.0262V1.10033H37.2425V1.67145H35.931V5.73102H35.9388Z" stroke="white" stroke-width="0.178577" stroke-miterlimit="10"/>
<path d="M39.5691 5.73102V1.10033H40.1702V5.73102H39.5691Z" stroke="white" stroke-width="0.178577" stroke-miterlimit="10"/>
<path d="M42.8398 5.73102H42.2387V1.67145H40.9272V1.10033H44.1436V1.67145H42.832V5.73102H42.8398Z" stroke="white" stroke-width="0.178577" stroke-miterlimit="10"/>
<path d="M50.2485 5.12903C49.7879 5.59982 49.218 5.83135 48.531 5.83135C47.844 5.83135 47.2742 5.59982 46.8136 5.12903C46.353 4.65825 46.1266 4.08713 46.1266 3.41568C46.1266 2.74423 46.353 2.1654 46.8136 1.70233C47.2742 1.23155 47.844 1.00001 48.531 1.00001C49.2102 1.00001 49.7801 1.23155 50.2485 1.70233C50.7091 2.17312 50.9433 2.74423 50.9433 3.41568C50.9355 4.09485 50.7013 4.66597 50.2485 5.12903ZM47.2586 4.74314C47.602 5.09045 48.0314 5.26024 48.531 5.26024C49.0307 5.26024 49.46 5.09045 49.8035 4.74314C50.147 4.39584 50.3266 3.95593 50.3266 3.41568C50.3266 2.87544 50.1548 2.43552 49.8035 2.08822C49.46 1.74092 49.0307 1.57113 48.531 1.57113C48.0314 1.57113 47.602 1.74092 47.2586 2.08822C46.9151 2.43552 46.7355 2.87544 46.7355 3.41568C46.7355 3.95593 46.9073 4.39584 47.2586 4.74314Z" stroke="white" stroke-width="0.178577" stroke-miterlimit="10"/>
<path d="M51.7786 5.73102V1.10033H52.5124L54.7919 4.70455H54.8154L54.7919 3.80928V1.10033H55.393V5.73102H54.7685L52.3875 1.95701H52.3641L52.3875 2.85228V5.73102H51.7786Z" stroke="white" stroke-width="0.178577" stroke-miterlimit="10"/>
<path d="M45.9714 12.484C44.1368 12.484 42.638 13.8654 42.638 15.764C42.638 17.6549 44.1368 19.0441 45.9714 19.0441C47.8059 19.0441 49.3048 17.6549 49.3048 15.764C49.3048 13.8654 47.8059 12.484 45.9714 12.484ZM45.9714 17.7552C44.9643 17.7552 44.0978 16.9371 44.0978 15.764C44.0978 14.5832 44.9643 13.7728 45.9714 13.7728C46.9784 13.7728 47.845 14.5832 47.845 15.764C47.845 16.9371 46.9784 17.7552 45.9714 17.7552ZM38.7034 12.484C36.8689 12.484 35.37 13.8654 35.37 15.764C35.37 17.6549 36.8689 19.0441 38.7034 19.0441C40.538 19.0441 42.0369 17.6549 42.0369 15.764C42.0369 13.8654 40.538 12.484 38.7034 12.484ZM38.7034 17.7552C37.6964 17.7552 36.8298 16.9371 36.8298 15.764C36.8298 14.5832 37.6964 13.7728 38.7034 13.7728C39.7105 13.7728 40.577 14.5832 40.577 15.764C40.577 16.9371 39.7105 17.7552 38.7034 17.7552ZM30.0537 13.495V14.8842H33.4261C33.3247 15.6637 33.0592 16.2425 32.6611 16.6361C32.1693 17.1224 31.4042 17.6549 30.0615 17.6549C27.9849 17.6549 26.3611 16.0033 26.3611 13.9503C26.3611 11.8974 27.9849 10.2458 30.0615 10.2458C31.1778 10.2458 31.9975 10.678 32.5986 11.2414L33.5901 10.2612C32.747 9.4663 31.6306 8.85659 30.0537 8.85659C27.2121 8.85659 24.8232 11.1411 24.8232 13.9581C24.8232 16.7673 27.2121 19.0595 30.0537 19.0595C31.5916 19.0595 32.747 18.5656 33.6525 17.6317C34.5815 16.7133 34.8704 15.4167 34.8704 14.3748C34.8704 14.0507 34.847 13.7497 34.7923 13.5027H30.0537V13.495ZM65.4255 14.5755C65.1523 13.8423 64.3092 12.484 62.5839 12.484C60.8742 12.484 59.4534 13.8114 59.4534 15.764C59.4534 17.6009 60.8586 19.0441 62.7478 19.0441C64.2701 19.0441 65.1523 18.1257 65.5114 17.5931L64.3794 16.8445C64.0047 17.3925 63.4895 17.7552 62.7478 17.7552C62.0062 17.7552 61.4754 17.4156 61.1397 16.7596L65.5816 14.9459L65.4255 14.5755ZM60.8977 15.6714C60.8586 14.4057 61.8891 13.7574 62.6307 13.7574C63.2084 13.7574 63.7002 14.043 63.8642 14.452L60.8977 15.6714ZM57.291 18.8511H58.7508V9.20389H57.291V18.8511ZM54.8944 13.2171H54.8475C54.5196 12.8313 53.8951 12.484 53.0988 12.484C51.436 12.484 49.9137 13.9272 49.9137 15.7795C49.9137 17.6163 51.436 19.0518 53.0988 19.0518C53.8873 19.0518 54.5196 18.7045 54.8475 18.3032H54.8944V18.774C54.8944 20.032 54.2152 20.7034 53.1223 20.7034C52.2323 20.7034 51.678 20.0706 51.4516 19.538L50.1792 20.0628C50.5461 20.935 51.5141 22 53.1223 22C54.8319 22 56.2761 21.0044 56.2761 18.581V12.6846H54.8944V13.2171ZM53.2237 17.7552C52.2167 17.7552 51.3736 16.9217 51.3736 15.7795C51.3736 14.6218 52.2167 13.7805 53.2237 13.7805C54.2152 13.7805 54.9958 14.6295 54.9958 15.7795C54.9958 16.9217 54.2152 17.7552 53.2237 17.7552ZM72.2563 9.20389H68.7667V18.8511H70.2266V15.1929H72.2641C73.8801 15.1929 75.4648 14.0352 75.4648 12.1984C75.4648 10.3616 73.8723 9.20389 72.2563 9.20389ZM72.2953 13.85H70.2266V10.5391H72.2953C73.3883 10.5391 74.005 11.4343 74.005 12.1907C74.005 12.947 73.3883 13.85 72.2953 13.85ZM81.2964 12.4685C80.2425 12.4685 79.1495 12.9316 78.6968 13.9426L79.9927 14.4752C80.2659 13.9426 80.7811 13.7651 81.3198 13.7651C82.0692 13.7651 82.8421 14.2127 82.8499 15.0077V15.108C82.5845 14.9614 82.0224 14.7376 81.3276 14.7376C79.9302 14.7376 78.5172 15.4939 78.5172 16.9063C78.5172 18.1951 79.657 19.0287 80.9373 19.0287C81.9131 19.0287 82.4596 18.5965 82.7952 18.0871H82.8421V18.8357H84.2473V15.1389C84.2629 13.4255 82.967 12.4685 81.2964 12.4685ZM81.1246 17.7552C80.6484 17.7552 79.9849 17.516 79.9849 16.9371C79.9849 16.1962 80.8124 15.9107 81.5306 15.9107C82.1707 15.9107 82.4752 16.0496 82.8577 16.2348C82.7406 17.1224 81.9599 17.7552 81.1246 17.7552ZM89.384 12.6769L87.7134 16.86H87.6666L85.9335 12.6769H84.3644L86.964 18.527L85.4807 21.7762H87.003L91 12.6769H89.384ZM76.2611 18.8511H77.7209V9.20389H76.2611V18.8511Z" fill="white"/>
<path d="M0.352848 1.29541C0.135172 1.52442 0.00756836 1.87901 0.00756836 2.32964V18.6704C0.00756836 19.1284 0.135172 19.483 0.352848 19.7046L0.405391 19.7563L9.70542 10.6108V10.5V10.3892L0.405391 1.2437L0.352848 1.29541Z" fill="url(#paint0_linear)"/>
<path d="M12.8051 13.661L9.70508 10.61V10.4992V10.3884L12.8051 7.33742L12.8726 7.37436L16.5431 9.42803C17.594 10.0116 17.594 10.972 16.5431 11.563L12.8726 13.6166L12.8051 13.661Z" fill="url(#paint1_linear)"/>
<path d="M12.8732 13.624L9.70559 10.4992L0.353027 19.7038C0.698307 20.0658 1.26877 20.1101 1.91429 19.7481L12.8732 13.624Z" fill="url(#paint2_linear)"/>
<path d="M12.8741 7.3818L1.9077 1.25034C1.26218 0.888363 0.691715 0.932686 0.346436 1.29466L9.70651 10.4992L12.8741 7.3818Z" fill="url(#paint3_linear)"/>
<path opacity="0.2" d="M12.8063 13.5502L1.90752 19.6447C1.29953 19.9845 0.751582 19.9624 0.406303 19.6521L0.35376 19.7038L0.406303 19.7555C0.759088 20.0658 1.29953 20.0879 1.90752 19.7481L12.8739 13.6167L12.8063 13.5502Z" fill="black"/>
<path opacity="0.12" d="M0.352848 19.6003C0.135172 19.3713 0.00756836 19.0167 0.00756836 18.5661V18.6769C0.00756836 19.1349 0.135172 19.4895 0.352848 19.7112L0.405391 19.6594L0.352848 19.6003Z" fill="black"/>
<path opacity="0.12" d="M16.5436 11.4596L12.7981 13.5502L12.8657 13.6167L16.5361 11.563C17.0615 11.2675 17.3243 10.8834 17.3243 10.4992C17.2867 10.8464 17.024 11.1936 16.5436 11.4596Z" fill="black"/>
<path opacity="0.25" d="M1.90654 1.35401L16.5434 9.53914C17.0163 9.80508 17.2865 10.1449 17.3315 10.4995C17.3315 10.1153 17.0688 9.72382 16.5434 9.43572L1.90654 1.25059C0.855692 0.66699 0 1.15455 0 2.33652V2.44733C0 1.25797 0.863198 0.770413 1.90654 1.35401Z" fill="white"/>
</g>
<defs>
<linearGradient id="paint0_linear" x1="8.87945" y1="2.15958" x2="-3.51664" y2="14.755" gradientUnits="userSpaceOnUse">
<stop stop-color="#00A0FF"/>
<stop offset="0.00657445" stop-color="#00A1FF"/>
<stop offset="0.2601" stop-color="#00BEFF"/>
<stop offset="0.5122" stop-color="#00D2FF"/>
<stop offset="0.7604" stop-color="#00DFFF"/>
<stop offset="1" stop-color="#00E3FF"/>
</linearGradient>
<linearGradient id="paint1_linear" x1="17.9124" y1="10.5003" x2="-0.249922" y2="10.5003" gradientUnits="userSpaceOnUse">
<stop stop-color="#FFE000"/>
<stop offset="0.4087" stop-color="#FFBD00"/>
<stop offset="0.7754" stop-color="#FFA500"/>
<stop offset="1" stop-color="#FF9C00"/>
</linearGradient>
<linearGradient id="paint2_linear" x1="11.1519" y1="12.1955" x2="-5.65816" y2="29.2759" gradientUnits="userSpaceOnUse">
<stop stop-color="#FF3A44"/>
<stop offset="1" stop-color="#C31162"/>
</linearGradient>
<linearGradient id="paint3_linear" x1="-2.00507" y1="-4.14512" x2="5.5014" y2="3.48195" gradientUnits="userSpaceOnUse">
<stop stop-color="#32A071"/>
<stop offset="0.0685" stop-color="#2DA771"/>
<stop offset="0.4762" stop-color="#15CF74"/>
<stop offset="0.8009" stop-color="#06E775"/>
<stop offset="1" stop-color="#00F076"/>
</linearGradient>
</defs>
</svg>
