<svg width="990" height="593" viewBox="0 0 990 593" fill="none" xmlns="http://www.w3.org/2000/svg">
<g filter="url(#filter0_f)">
<ellipse cx="495" cy="296.5" rx="124" ry="123.5" fill="#555568"/>
</g>
<g opacity="0.17" filter="url(#filter1_di)">
<rect x="627" y="220" width="160" height="160" rx="53.6869" fill="#31333F"/>
</g>
<g opacity="0.06" filter="url(#filter2_di)">
<rect x="818" y="220" width="160" height="160" rx="53.6869" fill="#31333F"/>
</g>
<g opacity="0.06" filter="url(#filter3_di)">
<rect x="10" y="220" width="160" height="160" rx="53.6869" fill="#31333F"/>
</g>
<g opacity="0.17" filter="url(#filter4_di)">
<rect x="200" y="220" width="160" height="160" rx="53.6869" fill="#31333F"/>
</g>
<g opacity="0.54" filter="url(#filter5_dii)">
<rect x="396" y="199" width="197" height="197" rx="66.2281" fill="#2B2B36"/>
</g>
<g style="mix-blend-mode:overlay" filter="url(#filter6_f)">
<ellipse cx="494" cy="299.5" rx="90" ry="89.5" fill="#28F9A0"/>
</g>
<g clip-path="url(#clip0)">
<path d="M495.5 368.999C536.093 368.999 569 337.381 569 298.377C569 259.374 536.093 227.755 495.5 227.755C454.907 227.755 422 259.374 422 298.377C422 337.381 454.907 368.999 495.5 368.999Z" fill="#2B2B37"/>
<path d="M457.85 299.818H450.8V275.46H456.5L466.25 288.144H466.4V275.46H473.45V299.818H467.75L458 286.991H457.85V299.818ZM490.4 275.028C498.2 275.028 503.15 279.928 503.15 287.711C503.15 295.494 498.2 300.25 490.4 300.25C482.6 300.25 477.65 295.494 477.65 287.711C477.65 279.928 482.6 275.028 490.4 275.028ZM490.4 280.793C487.25 280.793 485.15 283.532 485.15 287.711C485.15 291.891 487.25 294.629 490.4 294.629C493.55 294.629 495.65 291.891 495.65 287.711C495.5 283.387 493.55 280.793 490.4 280.793ZM523.55 285.838L519.8 299.818H512.75L506.15 275.46H513.8L516.65 290.882H516.8L520.55 275.46H526.25L530 290.882H530.15L533 275.46H540.65L534.5 299.818H527.45L523.55 285.838Z" fill="#15D784"/>
<path d="M459.2 327.202H454.85V316.249H450.95V312.934H463.1V316.249H459.2V327.202ZM475.85 312.79C480.35 312.79 483.35 315.672 483.35 320.14C483.35 324.608 480.5 327.491 475.85 327.491C471.2 327.491 468.35 324.752 468.35 320.14C468.35 315.528 471.35 312.79 475.85 312.79ZM475.85 316.105C474.05 316.105 472.85 317.69 472.85 320.14C472.85 322.59 474.05 324.176 475.85 324.176C477.65 324.176 478.85 322.59 478.85 320.14C479 317.69 477.8 316.105 475.85 316.105ZM494.3 327.202H489.95V312.934H494.3V318.987H494.45L498.95 312.934H503.45L498.65 319.275L503.75 327.202H498.65L495.5 322.014L494.3 323.455V327.202ZM520.25 323.888V327.202H509.75V312.934H520.25V316.249H514.1V318.555H519.8V321.582H514.1V323.888H520.25ZM531.35 327.202H527.3V312.934H530.6L536.3 320.284H536.45V312.934H540.5V327.202H537.2L531.5 319.708H531.35V327.202Z" fill="#15D784"/>
</g>
<path d="M551.192 196.062C570.5 196.062 574.207 192.375 574.207 173.321C574.207 192.375 577.914 196.062 597.222 196.062C577.914 196.062 574.207 199.75 574.207 218.803C574.207 199.75 570.5 196.062 551.192 196.062Z" fill="#00C26F"/>
<g filter="url(#filter7_f)">
<path d="M551.192 196.062C570.5 196.062 574.207 192.375 574.207 173.321C574.207 192.375 577.914 196.062 597.222 196.062C577.914 196.062 574.207 199.75 574.207 218.803C574.207 199.75 570.5 196.062 551.192 196.062Z" fill="#00C26F"/>
</g>
<path d="M383.095 374.371C394.697 374.371 396.986 372.107 396.986 360.637C396.986 372.107 399.276 374.371 410.878 374.371C399.276 374.371 396.986 376.635 396.986 388.105C396.986 376.635 394.697 374.371 383.095 374.371Z" fill="#00C26F"/>
<g style="mix-blend-mode:overlay" filter="url(#filter8_f)">
<path d="M383.095 374.581C394.877 374.581 397.202 372.282 397.202 360.637C397.202 372.282 399.527 374.581 411.309 374.581C399.527 374.581 397.202 376.879 397.202 388.524C397.202 376.879 394.877 374.581 383.095 374.581Z" fill="#00C26F"/>
</g>
<g filter="url(#filter9_f)">
<path d="M327.859 202.056L325.963 203.175L323.756 203.082L324.87 204.987L324.792 207.19L326.688 206.071L328.894 206.163L327.78 204.258L327.859 202.056Z" fill="#10CF6C"/>
</g>
<path d="M327.51 201.604L325.613 202.723L323.407 202.631L324.521 204.536L324.442 206.738L326.338 205.619L328.545 205.712L327.431 203.807L327.51 201.604Z" fill="#10CF6C"/>
<path d="M620.991 143.708L616.756 146.195L611.849 146.012L614.342 150.238L614.145 155.148L618.38 152.661L623.287 152.844L620.799 148.61L620.991 143.708Z" fill="#10CF6C"/>
<g filter="url(#filter10_f)">
<path d="M620.991 143.708L616.756 146.195L611.849 146.012L614.342 150.238L614.145 155.149L618.38 152.662L623.287 152.845L620.799 148.61L620.991 143.708Z" fill="#10CF6C"/>
</g>
<path d="M423.038 112.579L422.477 114.722L420.87 116.214L423.004 116.77L424.5 118.391L425.047 116.252L426.668 114.756L424.534 114.2L423.038 112.579Z" fill="#10CF6C"/>
<g filter="url(#filter11_f)">
<path d="M422.659 112.649L422.099 114.792L420.492 116.285L422.626 116.84L424.122 118.461L424.668 116.322L426.289 114.826L424.155 114.27L422.659 112.649Z" fill="#10CF6C"/>
</g>
<path d="M425.533 189.951L425.645 188.181L426.702 186.748L424.933 186.636L423.5 185.579L423.38 187.357L422.331 188.782L424.1 188.902L425.533 189.951Z" fill="white"/>
<g filter="url(#filter12_f)">
<path d="M425.533 189.951L425.645 188.181L426.702 186.748L424.933 186.636L423.5 185.579L423.38 187.357L422.331 188.782L424.1 188.902L425.533 189.951Z" fill="white"/>
</g>
<path d="M761.736 216.622L762.616 215.077L764.186 214.244L762.64 213.371L761.816 211.794L760.935 213.339L759.366 214.172L760.911 215.044L761.736 216.622Z" fill="#10CF6C"/>
<g filter="url(#filter13_f)">
<path d="M761.736 216.622L762.616 215.077L764.186 214.244L762.64 213.371L761.816 211.794L760.935 213.339L759.366 214.172L760.911 215.044L761.736 216.622Z" fill="#10CF6C"/>
</g>
<path d="M537.084 149.923L536.604 148.209L537.132 146.512L535.419 146.984L533.722 146.456L534.194 148.169L533.674 149.867L535.379 149.394L537.084 149.923Z" fill="#10CF6C"/>
<g filter="url(#filter14_f)">
<path d="M537.087 149.924L536.606 148.21L537.135 146.513L535.422 146.985L533.724 146.457L534.196 148.17L533.676 149.868L535.381 149.395L537.087 149.924Z" fill="#10CF6C"/>
</g>
<path d="M290.967 242.786L290.486 241.073L291.015 239.375L289.301 239.848L287.604 239.319L288.076 241.033L287.556 242.73L289.261 242.258L290.967 242.786Z" fill="#10CF6C"/>
<g filter="url(#filter15_f)">
<path d="M290.969 242.787L290.489 241.073L291.017 239.376L289.304 239.848L287.606 239.32L288.079 241.033L287.558 242.731L289.264 242.258L290.969 242.787Z" fill="#10CF6C"/>
</g>
<path d="M598.637 218.801L598.436 218.086L598.657 217.378L597.942 217.575L597.234 217.355L597.431 218.07L597.214 218.778L597.925 218.581L598.637 218.801Z" fill="#10CF6C"/>
<g filter="url(#filter16_f)">
<path d="M598.638 218.802L598.437 218.087L598.658 217.379L597.943 217.576L597.235 217.355L597.432 218.07L597.215 218.778L597.926 218.581L598.638 218.802Z" fill="#10CF6C"/>
</g>
<path d="M511.369 151.922L512.592 150.082L514.617 149.197L512.776 147.974L511.892 145.949L510.669 147.79L508.658 148.67L510.485 149.897L511.369 151.922Z" fill="white"/>
<g filter="url(#filter17_f)">
<path d="M511.366 151.922L512.59 150.082L514.614 149.197L512.774 147.974L511.89 145.949L510.666 147.79L508.655 148.67L510.482 149.897L511.366 151.922Z" fill="white"/>
</g>
<g filter="url(#filter18_f)">
<path d="M703.032 249.471L704.25 247.639L706.275 246.755L704.434 245.532L703.559 243.512L702.327 245.347L700.316 246.228L702.143 247.455L703.032 249.471Z" fill="white"/>
</g>
<path d="M703.032 249.471L704.25 247.639L706.275 246.755L704.434 245.532L703.559 243.512L702.327 245.347L700.316 246.228L702.143 247.455L703.032 249.471Z" fill="white"/>
<path d="M391.262 175.346L392.49 170.596L396.099 167.265L391.345 166.023L388.01 162.423L386.781 167.173L383.172 170.504L387.926 171.746L391.262 175.346Z" fill="#10CF6C"/>
<g filter="url(#filter19_f)">
<path d="M391.259 175.346L392.488 170.596L396.097 167.265L391.343 166.023L388.007 162.423L386.779 167.173L383.17 170.504L387.924 171.746L391.259 175.346Z" fill="#10CF6C"/>
</g>
<path opacity="0.29" fill-rule="evenodd" clip-rule="evenodd" d="M280.245 269.909C279.018 268.923 277.276 268.901 276.025 269.855L276.021 269.858L276 269.874L275.909 269.942C275.826 270.004 275.7 270.098 275.535 270.22C275.205 270.463 274.717 270.817 274.102 271.25C272.868 272.119 271.13 273.3 269.116 274.548C265 277.099 260.056 279.722 255.984 280.728C254.455 281.106 253.381 282.477 253.381 284.052V297.787C253.381 313.433 262.873 324.884 276.782 330.689C277.625 331.042 278.575 331.042 279.419 330.689C293.328 324.884 302.819 313.433 302.819 297.787V284.052C302.819 282.365 301.59 280.929 299.923 280.669C296.342 280.111 291.546 277.608 287.325 274.919C285.288 273.621 283.507 272.36 282.235 271.423C281.6 270.956 281.095 270.571 280.752 270.306C280.581 270.174 280.45 270.072 280.364 270.004L280.269 269.929L280.248 269.912L280.245 269.909Z" fill="url(#paint0_linear)"/>
<path opacity="0.29" d="M302.819 297.787C302.819 313.433 293.328 324.884 279.419 330.689C278.965 330.879 278.481 330.966 277.999 330.952V269.156C278.792 269.133 279.591 269.384 280.244 269.909L280.248 269.912L280.269 269.929L280.364 270.004C280.45 270.072 280.581 270.174 280.752 270.306C281.095 270.571 281.6 270.956 282.234 271.423C283.506 272.36 285.288 273.621 287.325 274.919C291.545 277.608 296.342 280.111 299.922 280.669C301.59 280.929 302.819 282.365 302.819 284.052V297.787Z" fill="url(#paint1_linear)"/>
<path opacity="0.65" fill-rule="evenodd" clip-rule="evenodd" d="M743.328 268.341L747.324 294.217L738.714 289.976C722 319.917 692.778 334.067 658.121 334.067C673.193 330.786 706.312 324.428 728.768 284.952L720.469 280.349L743.328 268.341Z" fill="url(#paint2_linear)"/>
<path opacity="0.04" d="M80.1836 296.188C81.043 296.188 81.7721 295.888 82.3711 295.289C82.9831 294.677 83.2891 293.941 83.2891 293.082C83.2891 292.223 82.9831 291.493 82.3711 290.895C81.7721 290.283 81.043 289.977 80.1836 289.977C79.3242 289.977 78.5885 290.283 77.9766 290.895C77.3776 291.493 77.0781 292.223 77.0781 293.082C77.0781 293.941 77.3776 294.677 77.9766 295.289C78.5885 295.888 79.3242 296.188 80.1836 296.188ZM87.4492 293.082C87.4492 295.087 86.7396 296.799 85.3203 298.219C83.9141 299.638 82.2018 300.348 80.1836 300.348C78.1784 300.348 76.4661 299.638 75.0469 298.219C73.6276 296.799 72.918 295.087 72.918 293.082C72.918 291.077 73.6276 289.365 75.0469 287.945C76.4661 286.526 78.1784 285.816 80.1836 285.816C82.1888 285.816 83.901 286.526 85.3203 287.945C86.7396 289.365 87.4492 291.077 87.4492 293.082ZM102.273 307.301C102.273 306.441 101.967 305.712 101.355 305.113C100.757 304.501 100.027 304.195 99.168 304.195C98.3086 304.195 97.5729 304.501 96.9609 305.113C96.362 305.712 96.0625 306.441 96.0625 307.301C96.0625 308.16 96.362 308.896 96.9609 309.508C97.5729 310.107 98.3086 310.406 99.168 310.406C100.027 310.406 100.757 310.107 101.355 309.508C101.967 308.896 102.273 308.16 102.273 307.301ZM106.434 307.301C106.434 309.306 105.724 311.018 104.305 312.438C102.885 313.857 101.173 314.566 99.168 314.566C97.1628 314.566 95.4505 313.857 94.0312 312.438C92.612 311.018 91.9023 309.306 91.9023 307.301C91.9023 305.283 92.612 303.57 94.0312 302.164C95.4505 300.745 97.1628 300.035 99.168 300.035C101.173 300.035 102.885 300.745 104.305 302.164C105.724 303.583 106.434 305.296 106.434 307.301ZM96.0625 285.68H99.0312L83.25 314.742H80.2227L96.0625 285.68Z" fill="white"/>
<path opacity="0.02" d="M891.184 296.188C892.043 296.188 892.772 295.888 893.371 295.289C893.983 294.677 894.289 293.941 894.289 293.082C894.289 292.223 893.983 291.493 893.371 290.895C892.772 290.283 892.043 289.977 891.184 289.977C890.324 289.977 889.589 290.283 888.977 290.895C888.378 291.493 888.078 292.223 888.078 293.082C888.078 293.941 888.378 294.677 888.977 295.289C889.589 295.888 890.324 296.188 891.184 296.188ZM898.449 293.082C898.449 295.087 897.74 296.799 896.32 298.219C894.914 299.638 893.202 300.348 891.184 300.348C889.178 300.348 887.466 299.638 886.047 298.219C884.628 296.799 883.918 295.087 883.918 293.082C883.918 291.077 884.628 289.365 886.047 287.945C887.466 286.526 889.178 285.816 891.184 285.816C893.189 285.816 894.901 286.526 896.32 287.945C897.74 289.365 898.449 291.077 898.449 293.082ZM913.273 307.301C913.273 306.441 912.967 305.712 912.355 305.113C911.757 304.501 911.027 304.195 910.168 304.195C909.309 304.195 908.573 304.501 907.961 305.113C907.362 305.712 907.062 306.441 907.062 307.301C907.062 308.16 907.362 308.896 907.961 309.508C908.573 310.107 909.309 310.406 910.168 310.406C911.027 310.406 911.757 310.107 912.355 309.508C912.967 308.896 913.273 308.16 913.273 307.301ZM917.434 307.301C917.434 309.306 916.724 311.018 915.305 312.438C913.885 313.857 912.173 314.566 910.168 314.566C908.163 314.566 906.451 313.857 905.031 312.438C903.612 311.018 902.902 309.306 902.902 307.301C902.902 305.283 903.612 303.57 905.031 302.164C906.451 300.745 908.163 300.035 910.168 300.035C912.173 300.035 913.885 300.745 915.305 302.164C916.724 303.583 917.434 305.296 917.434 307.301ZM907.062 285.68H910.031L894.25 314.742H891.223L907.062 285.68Z" fill="white"/>
<defs>
<filter id="filter0_f" x="198" y="0" width="594" height="593" filterUnits="userSpaceOnUse" color-interpolation-filters="sRGB">
<feFlood flood-opacity="0" result="BackgroundImageFix"/>
<feBlend mode="normal" in="SourceGraphic" in2="BackgroundImageFix" result="shape"/>
<feGaussianBlur stdDeviation="86.5" result="effect1_foregroundBlur"/>
</filter>
<filter id="filter1_di" x="617.285" y="211.308" width="181.475" height="181.475" filterUnits="userSpaceOnUse" color-interpolation-filters="sRGB">
<feFlood flood-opacity="0" result="BackgroundImageFix"/>
<feColorMatrix in="SourceAlpha" type="matrix" values="0 0 0 0 0 0 0 0 0 0 0 0 0 0 0 0 0 0 127 0"/>
<feOffset dx="1.02261" dy="2.04521"/>
<feGaussianBlur stdDeviation="5.36869"/>
<feColorMatrix type="matrix" values="0 0 0 0 0.168627 0 0 0 0 0.168627 0 0 0 0 0.211765 0 0 0 0.05 0"/>
<feBlend mode="normal" in2="BackgroundImageFix" result="effect1_dropShadow"/>
<feBlend mode="normal" in="SourceGraphic" in2="effect1_dropShadow" result="shape"/>
<feColorMatrix in="SourceAlpha" type="matrix" values="0 0 0 0 0 0 0 0 0 0 0 0 0 0 0 0 0 0 127 0" result="hardAlpha"/>
<feOffset dx="1.02261" dy="3.57913"/>
<feGaussianBlur stdDeviation="4.34608"/>
<feComposite in2="hardAlpha" operator="arithmetic" k2="-1" k3="1"/>
<feColorMatrix type="matrix" values="0 0 0 0 0.895833 0 0 0 0 0.895833 0 0 0 0 0.895833 0 0 0 1 0"/>
<feBlend mode="normal" in2="shape" result="effect2_innerShadow"/>
</filter>
<filter id="filter2_di" x="808.285" y="211.308" width="181.475" height="181.475" filterUnits="userSpaceOnUse" color-interpolation-filters="sRGB">
<feFlood flood-opacity="0" result="BackgroundImageFix"/>
<feColorMatrix in="SourceAlpha" type="matrix" values="0 0 0 0 0 0 0 0 0 0 0 0 0 0 0 0 0 0 127 0"/>
<feOffset dx="1.02261" dy="2.04521"/>
<feGaussianBlur stdDeviation="5.36869"/>
<feColorMatrix type="matrix" values="0 0 0 0 0.168627 0 0 0 0 0.168627 0 0 0 0 0.211765 0 0 0 0.05 0"/>
<feBlend mode="normal" in2="BackgroundImageFix" result="effect1_dropShadow"/>
<feBlend mode="normal" in="SourceGraphic" in2="effect1_dropShadow" result="shape"/>
<feColorMatrix in="SourceAlpha" type="matrix" values="0 0 0 0 0 0 0 0 0 0 0 0 0 0 0 0 0 0 127 0" result="hardAlpha"/>
<feOffset dx="1.02261" dy="3.57913"/>
<feGaussianBlur stdDeviation="4.34608"/>
<feComposite in2="hardAlpha" operator="arithmetic" k2="-1" k3="1"/>
<feColorMatrix type="matrix" values="0 0 0 0 0.895833 0 0 0 0 0.895833 0 0 0 0 0.895833 0 0 0 1 0"/>
<feBlend mode="normal" in2="shape" result="effect2_innerShadow"/>
</filter>
<filter id="filter3_di" x="0.285228" y="211.308" width="181.475" height="181.475" filterUnits="userSpaceOnUse" color-interpolation-filters="sRGB">
<feFlood flood-opacity="0" result="BackgroundImageFix"/>
<feColorMatrix in="SourceAlpha" type="matrix" values="0 0 0 0 0 0 0 0 0 0 0 0 0 0 0 0 0 0 127 0"/>
<feOffset dx="1.02261" dy="2.04521"/>
<feGaussianBlur stdDeviation="5.36869"/>
<feColorMatrix type="matrix" values="0 0 0 0 0.168627 0 0 0 0 0.168627 0 0 0 0 0.211765 0 0 0 0.05 0"/>
<feBlend mode="normal" in2="BackgroundImageFix" result="effect1_dropShadow"/>
<feBlend mode="normal" in="SourceGraphic" in2="effect1_dropShadow" result="shape"/>
<feColorMatrix in="SourceAlpha" type="matrix" values="0 0 0 0 0 0 0 0 0 0 0 0 0 0 0 0 0 0 127 0" result="hardAlpha"/>
<feOffset dx="1.02261" dy="3.57913"/>
<feGaussianBlur stdDeviation="4.34608"/>
<feComposite in2="hardAlpha" operator="arithmetic" k2="-1" k3="1"/>
<feColorMatrix type="matrix" values="0 0 0 0 0.895833 0 0 0 0 0.895833 0 0 0 0 0.895833 0 0 0 1 0"/>
<feBlend mode="normal" in2="shape" result="effect2_innerShadow"/>
</filter>
<filter id="filter4_di" x="190.285" y="211.308" width="181.475" height="181.475" filterUnits="userSpaceOnUse" color-interpolation-filters="sRGB">
<feFlood flood-opacity="0" result="BackgroundImageFix"/>
<feColorMatrix in="SourceAlpha" type="matrix" values="0 0 0 0 0 0 0 0 0 0 0 0 0 0 0 0 0 0 127 0"/>
<feOffset dx="1.02261" dy="2.04521"/>
<feGaussianBlur stdDeviation="5.36869"/>
<feColorMatrix type="matrix" values="0 0 0 0 0.168627 0 0 0 0 0.168627 0 0 0 0 0.211765 0 0 0 0.05 0"/>
<feBlend mode="normal" in2="BackgroundImageFix" result="effect1_dropShadow"/>
<feBlend mode="normal" in="SourceGraphic" in2="effect1_dropShadow" result="shape"/>
<feColorMatrix in="SourceAlpha" type="matrix" values="0 0 0 0 0 0 0 0 0 0 0 0 0 0 0 0 0 0 127 0" result="hardAlpha"/>
<feOffset dx="1.02261" dy="3.57913"/>
<feGaussianBlur stdDeviation="4.34608"/>
<feComposite in2="hardAlpha" operator="arithmetic" k2="-1" k3="1"/>
<feColorMatrix type="matrix" values="0 0 0 0 0.895833 0 0 0 0 0.895833 0 0 0 0 0.895833 0 0 0 1 0"/>
<feBlend mode="normal" in2="shape" result="effect2_innerShadow"/>
</filter>
<filter id="filter5_dii" x="384.016" y="188.277" width="223.491" height="223.491" filterUnits="userSpaceOnUse" color-interpolation-filters="sRGB">
<feFlood flood-opacity="0" result="BackgroundImageFix"/>
<feColorMatrix in="SourceAlpha" type="matrix" values="0 0 0 0 0 0 0 0 0 0 0 0 0 0 0 0 0 0 127 0"/>
<feOffset dx="1.26149" dy="2.52298"/>
<feGaussianBlur stdDeviation="6.62281"/>
<feColorMatrix type="matrix" values="0 0 0 0 0.168627 0 0 0 0 0.168627 0 0 0 0 0.211765 0 0 0 0.05 0"/>
<feBlend mode="normal" in2="BackgroundImageFix" result="effect1_dropShadow"/>
<feBlend mode="normal" in="SourceGraphic" in2="effect1_dropShadow" result="shape"/>
<feColorMatrix in="SourceAlpha" type="matrix" values="0 0 0 0 0 0 0 0 0 0 0 0 0 0 0 0 0 0 127 0" result="hardAlpha"/>
<feOffset dx="1.26149" dy="4.41521"/>
<feGaussianBlur stdDeviation="5.36132"/>
<feComposite in2="hardAlpha" operator="arithmetic" k2="-1" k3="1"/>
<feColorMatrix type="matrix" values="0 0 0 0 1 0 0 0 0 1 0 0 0 0 1 0 0 0 1 0"/>
<feBlend mode="normal" in2="shape" result="effect2_innerShadow"/>
<feColorMatrix in="SourceAlpha" type="matrix" values="0 0 0 0 0 0 0 0 0 0 0 0 0 0 0 0 0 0 127 0" result="hardAlpha"/>
<feOffset dy="4"/>
<feGaussianBlur stdDeviation="2"/>
<feComposite in2="hardAlpha" operator="arithmetic" k2="-1" k3="1"/>
<feColorMatrix type="matrix" values="0 0 0 0 1 0 0 0 0 1 0 0 0 0 1 0 0 0 0.5 0"/>
<feBlend mode="normal" in2="effect2_innerShadow" result="effect3_innerShadow"/>
</filter>
<filter id="filter6_f" x="324.919" y="130.919" width="338.161" height="337.161" filterUnits="userSpaceOnUse" color-interpolation-filters="sRGB">
<feFlood flood-opacity="0" result="BackgroundImageFix"/>
<feBlend mode="normal" in="SourceGraphic" in2="BackgroundImageFix" result="shape"/>
<feGaussianBlur stdDeviation="39.5403" result="effect1_foregroundBlur"/>
</filter>
<filter id="filter7_f" x="536.685" y="158.814" width="75.0443" height="74.4963" filterUnits="userSpaceOnUse" color-interpolation-filters="sRGB">
<feFlood flood-opacity="0" result="BackgroundImageFix"/>
<feBlend mode="normal" in="SourceGraphic" in2="BackgroundImageFix" result="shape"/>
<feGaussianBlur stdDeviation="7.25355" result="effect1_foregroundBlur"/>
</filter>
<filter id="filter8_f" x="369.85" y="347.391" width="54.7046" height="54.3789" filterUnits="userSpaceOnUse" color-interpolation-filters="sRGB">
<feFlood flood-opacity="0" result="BackgroundImageFix"/>
<feBlend mode="normal" in="SourceGraphic" in2="BackgroundImageFix" result="shape"/>
<feGaussianBlur stdDeviation="6.62281" result="effect1_foregroundBlur"/>
</filter>
<filter id="filter9_f" x="317.756" y="196.056" width="17.1379" height="17.1343" filterUnits="userSpaceOnUse" color-interpolation-filters="sRGB">
<feFlood flood-opacity="0" result="BackgroundImageFix"/>
<feBlend mode="normal" in="SourceGraphic" in2="BackgroundImageFix" result="shape"/>
<feGaussianBlur stdDeviation="3" result="effect1_foregroundBlur"/>
</filter>
<filter id="filter10_f" x="605.849" y="137.708" width="23.4372" height="23.4408" filterUnits="userSpaceOnUse" color-interpolation-filters="sRGB">
<feFlood flood-opacity="0" result="BackgroundImageFix"/>
<feBlend mode="normal" in="SourceGraphic" in2="BackgroundImageFix" result="shape"/>
<feGaussianBlur stdDeviation="3" result="effect1_foregroundBlur"/>
</filter>
<filter id="filter11_f" x="414.491" y="106.649" width="17.7976" height="17.8112" filterUnits="userSpaceOnUse" color-interpolation-filters="sRGB">
<feFlood flood-opacity="0" result="BackgroundImageFix"/>
<feBlend mode="normal" in="SourceGraphic" in2="BackgroundImageFix" result="shape"/>
<feGaussianBlur stdDeviation="3" result="effect1_foregroundBlur"/>
</filter>
<filter id="filter12_f" x="416.331" y="179.579" width="16.3716" height="16.3717" filterUnits="userSpaceOnUse" color-interpolation-filters="sRGB">
<feFlood flood-opacity="0" result="BackgroundImageFix"/>
<feBlend mode="normal" in="SourceGraphic" in2="BackgroundImageFix" result="shape"/>
<feGaussianBlur stdDeviation="3" result="effect1_foregroundBlur"/>
</filter>
<filter id="filter13_f" x="753.366" y="205.794" width="16.82" height="16.828" filterUnits="userSpaceOnUse" color-interpolation-filters="sRGB">
<feFlood flood-opacity="0" result="BackgroundImageFix"/>
<feBlend mode="normal" in="SourceGraphic" in2="BackgroundImageFix" result="shape"/>
<feGaussianBlur stdDeviation="3" result="effect1_foregroundBlur"/>
</filter>
<filter id="filter14_f" x="527.676" y="140.457" width="15.4589" height="15.4668" filterUnits="userSpaceOnUse" color-interpolation-filters="sRGB">
<feFlood flood-opacity="0" result="BackgroundImageFix"/>
<feBlend mode="normal" in="SourceGraphic" in2="BackgroundImageFix" result="shape"/>
<feGaussianBlur stdDeviation="3" result="effect1_foregroundBlur"/>
</filter>
<filter id="filter15_f" x="281.558" y="233.32" width="15.4589" height="15.4668" filterUnits="userSpaceOnUse" color-interpolation-filters="sRGB">
<feFlood flood-opacity="0" result="BackgroundImageFix"/>
<feBlend mode="normal" in="SourceGraphic" in2="BackgroundImageFix" result="shape"/>
<feGaussianBlur stdDeviation="3" result="effect1_foregroundBlur"/>
</filter>
<filter id="filter16_f" x="591.215" y="211.355" width="13.4431" height="13.4464" filterUnits="userSpaceOnUse" color-interpolation-filters="sRGB">
<feFlood flood-opacity="0" result="BackgroundImageFix"/>
<feBlend mode="normal" in="SourceGraphic" in2="BackgroundImageFix" result="shape"/>
<feGaussianBlur stdDeviation="3" result="effect1_foregroundBlur"/>
</filter>
<filter id="filter17_f" x="502.656" y="139.949" width="17.9588" height="17.9724" filterUnits="userSpaceOnUse" color-interpolation-filters="sRGB">
<feFlood flood-opacity="0" result="BackgroundImageFix"/>
<feBlend mode="normal" in="SourceGraphic" in2="BackgroundImageFix" result="shape"/>
<feGaussianBlur stdDeviation="3" result="effect1_foregroundBlur"/>
</filter>
<filter id="filter18_f" x="694.316" y="237.512" width="17.9587" height="17.9589" filterUnits="userSpaceOnUse" color-interpolation-filters="sRGB">
<feFlood flood-opacity="0" result="BackgroundImageFix"/>
<feBlend mode="normal" in="SourceGraphic" in2="BackgroundImageFix" result="shape"/>
<feGaussianBlur stdDeviation="3" result="effect1_foregroundBlur"/>
</filter>
<filter id="filter19_f" x="377.17" y="156.423" width="24.9273" height="24.9237" filterUnits="userSpaceOnUse" color-interpolation-filters="sRGB">
<feFlood flood-opacity="0" result="BackgroundImageFix"/>
<feBlend mode="normal" in="SourceGraphic" in2="BackgroundImageFix" result="shape"/>
<feGaussianBlur stdDeviation="3" result="effect1_foregroundBlur"/>
</filter>
<linearGradient id="paint0_linear" x1="278.1" y1="264.489" x2="278.1" y2="339.781" gradientUnits="userSpaceOnUse">
<stop stop-color="#00C26F"/>
<stop offset="1" stop-color="#00C26F" stop-opacity="0.36"/>
</linearGradient>
<linearGradient id="paint1_linear" x1="285.951" y1="273.188" x2="277.999" y2="333.918" gradientUnits="userSpaceOnUse">
<stop stop-color="#54F3AF"/>
<stop offset="1" stop-color="#54F3AF" stop-opacity="0"/>
</linearGradient>
<linearGradient id="paint2_linear" x1="740.06" y1="268.341" x2="685.47" y2="353.65" gradientUnits="userSpaceOnUse">
<stop stop-color="#00C26F"/>
<stop offset="1" stop-color="#00C26F" stop-opacity="0"/>
</linearGradient>
<clipPath id="clip0">
<rect width="147" height="146" fill="white" transform="translate(422 223)"/>
</clipPath>
</defs>
</svg>
