<svg width="223" height="458" version="1.1" id="Layer_1" xmlns="http://www.w3.org/2000/svg" x="0" y="0" viewBox="0 0 223 458" xml:space="preserve"><style>.st1{fill:#1f1f2d}.st3{fill:#35354c}.st4,.st7{fill:#fff}.st7{fill-opacity:.6}.st9{fill-rule:evenodd;clip-rule:evenodd;fill:#00c26f}.st11{fill:none;stroke:#8080be;stroke-width:1.098;stroke-linecap:round;stroke-linejoin:round}.st13{fill:#49496c}.st21{fill-rule:evenodd;clip-rule:evenodd;fill:#fff}.st22{fill:#00c26f}.st24{fill:#272740}.st25{fill:#00b67a}.st26{fill-rule:evenodd;clip-rule:evenodd}.st26,.st27{fill:#8080be}</style><path d="M9.9 449.5c3.8 3.8 11.1 8.2 24.3 8.2h153.6c13.1 0 20.4-4.5 24.3-8.2 8.4-8.3 9.9-16.6 9.9-31.1V39.3c0-14.5-1.5-22.8-9.9-31.1C208.3 4.5 201 0 187.8 0H34.2C21 0 13.7 4.5 9.9 8.2 1.5 16.5 0 24.8 0 39.3v379.1c0 14.5 1.5 22.8 9.9 31.1z" fill="#252531"/><path class="st1" d="M104 12.1h18.1c1 0 1.9.8 1.9 1.9 0 1-.8 1.9-1.9 1.9H104c-1 0-1.9-.8-1.9-1.9 0-1.1.8-1.9 1.9-1.9z"/><circle class="st1" cx="132.7" cy="14" r="2.6"/><linearGradient id="SVGID_1_" gradientUnits="userSpaceOnUse" x1="-58.084" y1="484.944" x2="213.253" y2="74.304" gradientTransform="matrix(1 0 0 -1 0 457.89)"><stop offset="0" stop-color="#878791"/><stop offset="1" stop-color="#4c4c61"/></linearGradient><path d="M34.2 456.7h153.6c12.9 0 20-4.4 23.6-7.9 4.1-4 6.5-8 7.9-12.8 1.4-4.8 1.8-10.4 1.8-17.6V39.3c0-7.2-.4-12.8-1.8-17.6-1.4-4.8-3.8-8.8-7.9-12.8-3.6-3.6-10.7-7.9-23.6-7.9H34.2c-12.9 0-20 4.4-23.6 7.9-4.1 4-6.5 8-7.9 12.8C1.3 26.5 1 32.1 1 39.3v379.1c0 7.2.4 12.8 1.8 17.6 1.4 4.8 3.8 8.8 7.9 12.8 3.5 3.5 10.6 7.9 23.5 7.9zm.2 1h-.2c-13.1 0-20.4-4.5-24.3-8.2-8.4-8.3-9.9-16.6-9.9-31.1V39.3C0 24.8 1.5 16.5 9.9 8.2 13.7 4.5 21 0 34.2 0h153.7c13.1 0 20.4 4.5 24.3 8.2 8.4 8.3 9.9 16.6 9.9 31.1v379.1c0 14.5-1.5 22.8-9.9 31.1-3.8 3.7-11.1 8.2-24.3 8.2H34.4z" fill-rule="evenodd" clip-rule="evenodd" fill="url(#SVGID_1_)"/><path class="st3" d="M204.9 14.8c-2.5-2.5-7.5-5.4-17.3-5.4h-17.5c-.9.1-2.2.7-2.3 2.8-.2 2.9-.5 6.8-3.4 9.8-2.2 2.3-5.1 3.4-8.1 3.4H66.4c-3 0-5.9-1.1-8.1-3.4-2.9-3-3.3-6.9-3.4-9.8-.1-2.1-1.4-2.7-2.3-2.8H34.5c-9.8 0-14.8 2.9-17.3 5.4-5.9 5.8-6.9 11.4-6.9 24.1v380.2c0 12.7 1 18.3 6.9 24.1 2.5 2.5 7.5 5.4 17.3 5.4h153.1c9.8 0 14.8-2.9 17.3-5.4 5.9-5.8 6.9-11.4 6.9-24.1V38.9c0-12.7-1-18.3-6.9-24.1z"/><path class="st4" d="M16.8 70.9c0-1.2 1-2.2 2.2-2.2h127.6v33.2H19c-1.2 0-2.2-1-2.2-2.2V70.9z"/><path d="M17 132.4c0-1.2 1-2.2 2.2-2.2h120.6V163H19.2c-1.2 0-2.2-1-2.2-2.2v-28.4z" fill="#3d3d58"/><path class="st3" d="M26.7 92.4v-6.5l-2 1.4v-1.2l2-1.4h1.2v7.7h-1.2zM26.2 77.5h-.6v-1.6l-1.4-2.3h.7l1 1.7 1-1.7h.7l-1.4 2.3v1.6zM29.6 77.1c-.2.3-.6.4-1 .4s-.7-.1-1-.4c-.2-.3-.4-.6-.4-1.1 0-.5.1-.8.4-1.1.2-.3.6-.4 1-.4s.7.1 1 .4c.2.3.4.6.4 1.1-.1.5-.2.9-.4 1.1zm-1 0c.2 0 .4-.1.5-.3.1-.2.2-.4.2-.7 0-.3-.1-.6-.2-.7-.1-.2-.3-.3-.5-.3s-.4.1-.5.3c-.1.2-.2.4-.2.7 0 .3.1.6.2.7.1.2.3.3.5.3zM32.8 74.7v2.8h-.6V77c-.2.4-.5.5-.9.5-.3 0-.5-.1-.7-.3-.2-.2-.3-.4-.3-.8v-1.8h.7v1.7c0 .2.1.4.2.5.1.1.3.2.5.2s.4-.1.5-.2c.1-.1.2-.3.2-.5v-1.6h.4zM34.5 75.5c0-.3.1-.5.3-.6.2-.2.5-.2.8-.2.3 0 .6.1.8.2.2.2.3.4.3.6h-.5c0-.1-.1-.2-.2-.3-.1-.1-.2-.1-.4-.1s-.3 0-.4.1c-.1.1-.1.2-.1.3 0 .2.1.3.4.4l.5.1c.3.1.5.2.6.3.1.1.2.3.2.5 0 .3-.1.5-.3.6-.2.2-.5.2-.8.2-.3 0-.6-.1-.8-.2-.2-.2-.3-.4-.3-.6h.4c0 .1.1.2.2.3.1.1.2.1.4.1s.3 0 .4-.1c.1-.1.2-.2.2-.3 0-.1 0-.2-.1-.2-.1-.1-.2-.1-.3-.1l-.5-.1c-.5-.3-.8-.5-.8-.9zM38.9 75.3c-.1-.1-.3-.2-.5-.2s-.4.1-.5.2c-.1.1-.2.3-.2.5h1.4c0-.2 0-.4-.2-.5zm.2 1.3h.5c0 .3-.2.5-.4.6-.2.2-.5.2-.8.2-.4 0-.7-.1-1-.4-.2-.3-.4-.6-.4-1.1 0-.4.1-.8.4-1.1.2-.3.6-.4 1-.4s.7.1.9.4c.2.3.3.6.3 1v.2h-2c0 .2.1.4.2.6s.3.2.6.2c.2 0 .3 0 .4-.1.2.2.3.1.3-.1zM40.2 77.5v-2.8h.6v.5c.1-.2.2-.3.3-.4.2-.1.3-.1.5-.1.3 0 .5.1.7.3.2.2.3.4.3.8v1.8H42v-1.7c0-.2-.1-.4-.2-.5-.1-.1-.2-.2-.4-.2s-.4.1-.5.2c-.1.1-.2.3-.2.5v1.6h-.5zM44.3 77.5c-.4 0-.6-.1-.9-.4-.2-.3-.3-.6-.3-1.1 0-.4.1-.8.3-1.1.2-.3.5-.4.9-.4.2 0 .4 0 .5.1.2.1.3.2.4.4v-1.5h.6v3.9h-.6V77c-.1.2-.2.3-.4.4-.2.1-.3.1-.5.1zm.1-2.4c-.2 0-.4.1-.5.3-.1.2-.2.4-.2.7 0 .3.1.5.2.7.1.2.3.3.5.3s.4-.1.5-.3c.1-.2.2-.4.2-.7 0-.3-.1-.5-.2-.7-.1-.2-.3-.3-.5-.3z"/><path d="M183.9 208.3h19.2c1.2 0 2.2 1 2.2 2.2v18.7c0 1.2-1 2.2-2.2 2.2h-19.2c-1.2 0-2.2-1-2.2-2.2v-18.7c0-1.2 1-2.2 2.2-2.2z" fill="#fff" fill-opacity=".05"/><path class="st7" d="M26.2 138.8h-.6v-1.6l-1.4-2.3h.7l1 1.7 1-1.7h.7l-1.4 2.3v1.6zM29.6 138.5c-.2.3-.6.4-1 .4s-.7-.1-1-.4c-.2-.3-.4-.6-.4-1.1 0-.4.1-.8.4-1.1.2-.3.6-.4 1-.4s.7.1 1 .4c.2.3.4.6.4 1.1 0 .4-.1.8-.4 1.1zm-1-.1c.2 0 .4-.1.5-.3.1-.2.2-.4.2-.7 0-.3-.1-.6-.2-.7-.1-.2-.3-.3-.5-.3s-.4.1-.5.3c-.1.2-.2.4-.2.7 0 .3.1.6.2.7.1.2.3.3.5.3zM32.9 136v2.8h-.6v-.5c-.2.4-.5.5-.9.5-.3 0-.5-.1-.7-.3-.2-.2-.3-.4-.3-.8V136h.6v1.7c0 .2.1.4.2.5.1.1.3.2.5.2s.4-.1.5-.2c.1-.1.2-.3.2-.5V136h.5zM35.8 138.3c.2 0 .4-.1.5-.3.1-.2.2-.4.2-.7 0-.3-.1-.5-.2-.7-.1-.2-.3-.3-.5-.3s-.4.1-.5.3c-.1.2-.2.4-.2.7s.1.5.2.7c.1.2.3.3.5.3zm0 1.6c-.3 0-.6-.1-.8-.2-.2-.2-.4-.4-.4-.6h.6c0 .1.1.2.2.3.1.1.3.1.4.1.2 0 .4-.1.5-.2.1-.1.2-.3.2-.5v-.5c-.1.2-.2.3-.4.4-.2.1-.3.1-.5.1-.4 0-.6-.1-.9-.4-.2-.3-.3-.6-.3-1s.1-.8.3-1.1c.2-.3.5-.4.9-.4.2 0 .4 0 .5.1.2.1.3.2.4.4v-.4h.6v2.8c0 .3-.1.6-.4.8-.2.2-.5.3-.9.3zM39.4 136.6c-.1-.1-.3-.2-.5-.2s-.4.1-.5.2c-.1.1-.2.3-.2.5h1.4c0-.2-.1-.4-.2-.5zm.2 1.4h.5c0 .3-.2.5-.4.6-.2.2-.5.2-.8.2-.4 0-.7-.1-1-.4-.2-.3-.4-.6-.4-1.1 0-.4.1-.8.4-1.1.2-.3.6-.4 1-.4s.7.1.9.4c.2.3.3.6.3 1v.2h-2c0 .2.1.4.2.6.1.1.3.2.6.2.2 0 .3 0 .4-.1.2.1.3 0 .3-.1zM40.8 135.3h.6v.7h.6v.5h-.5v1.6c0 .1 0 .2.1.3.1.1.1.1.3.1h.2v.5h-.3c-.3 0-.5-.1-.6-.2-.1-.1-.2-.3-.2-.6v-1.6h-.4v-.6h.4v-.7zM23.3 225.3l-.6-1.7h-2.3l-.6 1.7h-.5l2-5.4h.5l2 5.4h-.5zm-1.7-4.7l-1 2.7h2l-1-2.7zM25.9 225.4c-.5 0-.9-.2-1.2-.6-.3-.4-.5-.9-.5-1.5s.2-1.1.5-1.5c.3-.4.7-.6 1.2-.6.3 0 .6.1.8.2.2.2.4.4.5.6v-2.3h.5v5.4h-.5v-.8c-.1.3-.3.5-.5.6-.2.4-.5.5-.8.5zm.1-3.6c-.4 0-.7.1-.9.4-.2.3-.3.7-.3 1.1 0 .5.1.9.3 1.1.2.3.5.4.9.4s.7-.1.9-.4c.2-.3.3-.7.3-1.1 0-.5-.1-.9-.3-1.1-.2-.2-.5-.4-.9-.4zM30.2 225.4c-.5 0-.9-.2-1.2-.6-.3-.4-.5-.9-.5-1.5s.2-1.1.5-1.5c.3-.4.7-.6 1.2-.6.3 0 .6.1.8.2.2.2.4.4.5.6v-2.3h.5v5.4h-.5v-.8c-.1.3-.3.5-.5.6-.2.4-.5.5-.8.5zm.1-3.6c-.4 0-.7.1-.9.4-.2.3-.3.7-.3 1.1 0 .5.1.9.3 1.1.2.3.5.4.9.4s.7-.1.9-.4c.2-.3.3-.7.3-1.1 0-.5-.1-.9-.3-1.1-.2-.2-.5-.4-.9-.4zM38.1 224.9v.5h-3.3V220h3.3v.5h-2.8v1.9h2.6v.5h-2.6v2.1h2.8zM41 225.3h-.5v-4.9h-1.8v-.5h4.1v.5H41v4.9zM47.7 225.3h-.5v-2.5H44v2.5h-.5v-5.4h.5v2.4h3.2v-2.4h.5v5.4zM54.2 225.3l-.6-1.7h-2.3l-.6 1.7h-.5l2-5.4h.5l2 5.4h-.5zm-1.8-4.7l-1 2.7h2l-1-2.7zM56.7 225.4c-.5 0-.9-.2-1.2-.6-.3-.4-.5-.9-.5-1.5s.2-1.1.5-1.5c.3-.4.7-.6 1.2-.6.3 0 .6.1.8.2.2.2.4.4.5.6v-2.3h.5v5.4H58v-.8c-.1.3-.3.5-.5.6-.2.4-.5.5-.8.5zm.1-3.6c-.4 0-.7.1-.9.4-.2.3-.3.7-.3 1.1 0 .5.1.9.3 1.1.2.3.5.4.9.4s.7-.1.9-.4c.2-.3.3-.7.3-1.1 0-.5-.1-.9-.3-1.1-.2-.2-.5-.4-.9-.4zM61 225.4c-.5 0-.9-.2-1.2-.6-.3-.4-.5-.9-.5-1.5s.2-1.1.5-1.5c.3-.4.7-.6 1.2-.6.3 0 .6.1.8.2.2.2.4.4.5.6v-2.3h.5v5.4h-.5v-.8c-.1.3-.3.5-.5.6-.2.4-.5.5-.8.5zm.1-3.6c-.4 0-.7.1-.9.4-.2.3-.3.7-.3 1.1 0 .5.1.9.3 1.1.2.3.5.4.9.4s.7-.1.9-.4c.2-.3.3-.7.3-1.1 0-.5-.1-.9-.3-1.1-.2-.2-.5-.4-.9-.4zM63.8 225.3v-3.9h.5v.7c.1-.2.2-.4.4-.6.2-.1.4-.2.6-.2h.3v.5c-.1 0-.2-.1-.4-.1-.3 0-.5.1-.7.3-.2.2-.2.5-.2.8v2.4h-.5zM67.6 221.8c-.3 0-.6.1-.9.4-.2.2-.3.6-.4.9h2.4c0-.4-.1-.7-.3-.9-.2-.3-.5-.4-.8-.4zm1.1 2.4h.5c-.1.3-.2.6-.5.8-.3.2-.7.3-1.1.3-.5 0-1-.2-1.3-.5-.3-.4-.5-.8-.5-1.5 0-.6.2-1.1.5-1.5.3-.4.7-.6 1.3-.6.5 0 .9.2 1.2.5.3.4.5.8.5 1.4v.2h-2.9c0 .4.1.8.3 1 .2.3.5.4.9.4.3 0 .5-.1.7-.2.3.1.4 0 .4-.3zM70 222.5c0-.3.1-.6.4-.8.3-.2.6-.3 1-.3s.7.1 1 .3c.3.2.4.5.4.8h-.5c0-.2-.1-.4-.3-.5-.2-.1-.4-.2-.7-.2-.3 0-.5.1-.6.2-.2.1-.2.3-.2.5s.1.3.2.4c.1.1.3.2.6.2l.6.1c.4.1.7.2.8.4.2.2.2.4.2.7 0 .3-.1.6-.4.8-.3.2-.6.3-1.1.3-.4 0-.8-.1-1-.3-.3-.2-.4-.5-.5-.8h.5c0 .2.1.4.3.5.2.1.4.2.7.2.3 0 .5-.1.7-.2.2-.1.3-.3.3-.5s-.1-.3-.2-.4c-.1-.1-.3-.2-.6-.2l-.6-.2c-.4-.1-.6-.2-.8-.4-.1-.1-.2-.4-.2-.6zM73.6 222.5c0-.3.1-.6.4-.8.3-.2.6-.3 1-.3s.7.1 1 .3c.3.2.4.5.4.8h-.5c0-.2-.1-.4-.3-.5-.2-.1-.4-.2-.7-.2-.3 0-.5.1-.6.2-.2.1-.2.3-.2.5s.1.3.2.4c.1.1.3.2.6.2l.6.1c.4.1.7.2.8.4.2.2.2.4.2.7 0 .3-.1.6-.4.8-.3.2-.6.3-1.1.3-.4 0-.8-.1-1-.3-.3-.2-.4-.5-.5-.8h.5c0 .2.1.4.3.5.2.1.4.2.7.2.3 0 .5-.1.7-.2.2-.1.3-.3.3-.5s-.1-.3-.2-.4c-.1-.1-.3-.2-.6-.2l-.6-.2c-.4-.1-.6-.2-.8-.4-.1-.1-.2-.4-.2-.6z"/><path d="M176.3 231.7H17v-.5h159.2v.5z" fill-rule="evenodd" clip-rule="evenodd" fill="#fff" fill-opacity=".6"/><path class="st4" d="M26.9 119.7h-.7v-4.6l-1.4.5v-.6l2-.7h.1v5.4zM31.1 119.7v-5.5h1.8c.6 0 1 .1 1.3.4.3.2.4.6.4 1.1 0 .3-.1.5-.2.7-.1.2-.3.3-.6.5.3.1.5.2.7.5.2.2.3.5.3.8 0 .5-.2.9-.5 1.2-.3.3-.8.4-1.3.4h-1.9zm.7-2.5v2H33c.3 0 .6-.1.8-.3.2-.2.3-.4.3-.7 0-.7-.4-1-1.1-1h-1.2zm0-.6h1.1c.3 0 .6-.1.8-.2.2-.2.3-.4.3-.6 0-.3-.1-.5-.3-.7-.2-.1-.4-.2-.8-.2h-1.1v1.7zM39.5 114.9h-1.8v4.9H37v-4.9h-1.7v-.6h4.2v.6zM44.3 118c-.1.6-.3 1-.6 1.3-.4.3-.8.5-1.4.5-.6 0-1.2-.2-1.6-.7-.4-.5-.6-1.1-.6-1.9v-.5c0-.5.1-1 .3-1.3.2-.4.4-.7.8-.9.3-.2.7-.3 1.2-.3.6 0 1 .2 1.4.5.3.3.6.8.6 1.3h-.7c-.1-.4-.2-.8-.4-.9-.2-.2-.5-.3-.9-.3-.5 0-.8.2-1.1.5-.3.3-.4.8-.4 1.4v.5c0 .6.1 1.1.4 1.4.2.3.6.5 1 .5s.7-.1.9-.3c.2-.2.4-.5.4-.9h.7zM51.4 116.8c0 .4-.1.7-.4 1-.2.3-.5.4-.9.4-.2 0-.3 0-.5-.1s-.3-.2-.6-.4c-.2-.2-.4-.3-.5-.3s-.2-.1-.3-.1c-.2 0-.3.1-.4.2-.1.1-.2.3-.2.6H47c0-.4.1-.7.3-1 .2-.3.5-.4.9-.4.2 0 .4 0 .5.1.2.1.4.2.6.4.2.2.4.3.6.3h.1c.2 0 .3-.1.5-.2.1-.1.2-.3.2-.6l.7.1z"/><path class="st9" d="M122.5 114.7c0 .2.1.3.3.3l1.6.1v1.5c0 .2.1.3.3.3.2 0 .3-.1.3-.3v-1.8c0-.2-.1-.3-.3-.3l-1.9-.1c-.1 0-.3.1-.3.3z"/><linearGradient id="SVGID_2_" gradientUnits="userSpaceOnUse" x1="124.286" y1="342.967" x2="120.061" y2="338.467" gradientTransform="matrix(1 0 0 -1 0 457.89)"><stop offset="0" stop-color="#00c26f"/><stop offset=".75" stop-color="#00c26f"/><stop offset="1" stop-color="#00c26f" stop-opacity="0"/></linearGradient><path d="M119.7 119.5c-.1-.1-.1-.4.1-.5l4.5-4.2c.2-.1.4-.2.5 0 .1.1.1.4-.1.5l-4.5 4.2c-.1.1-.4.1-.5 0z" fill-rule="evenodd" clip-rule="evenodd" fill="url(#SVGID_2_)"/><path class="st11" d="M197.5 85l-2.2 2.2-2.2-2.2M197.5 146.4l-2.2 2.2-2.2-2.2"/><path d="M139.2 130.7h-120c-.9 0-1.6.7-1.6 1.6v28.5c0 .9.7 1.6 1.6 1.6h120v-31.7zm-120-.5c-1.2 0-2.2 1-2.2 2.2v28.5c0 1.2 1 2.2 2.2 2.2h120.6v-32.9H19.2z" fill-rule="evenodd" clip-rule="evenodd" fill="#49496c"/><path class="st13" d="M205.5 71c0-1.2-1-2.2-2.2-2.2h-64.1v33.5h64.1c1.2 0 2.2-1.6 2.2-2.8V71zM205 132.4c0-1.2-1-2.2-2.2-2.2h-63.6V163h63.6c1.2 0 2.2-1 2.2-2.2v-28.4zM189.1 109.3c0-.6.5-1.1 1.1-1.1h13.2c.6 0 1.1.5 1.1 1.1v13.2c0 .6-.5 1.1-1.1 1.1h-13.2c-.6 0-1.1-.5-1.1-1.1v-13.2z"/><path d="M149.1 142.2l3 5-3-1.3v-3.7z" fill="#e68f7b"/><path d="M146.1 147.1l3-5v3.7l-3 1.3z" fill="#f8ec7c"/><path d="M149.1 149.1l-3-2.1 3-1.4v3.5z" fill="#6eb87d"/><path d="M152.1 147.1l-3-1.4v3.5l3-2.1z" fill="#946ba7"/><path d="M149.1 149.5l3-1.9-3 4.5v-2.6z" fill="#697cb9"/><path d="M149.1 149.5l-3-1.9 3 4.5v-2.6z" fill="#4fadd0"/><circle class="st4" cx="149.5" cy="86.2" r="4.5"/><path d="M144.6 83c.2-.2.3-.5.5-.7.3-.4.7-.7 1.2-1 .4-.3.8-.5 1.3-.6.7-.2 1.4-.3 2.2-.2.5.1 1.1.2 1.6.4.3.1.6.3.9.5.6.4 1 .8 1.4 1.4.4.6.7 1.2.8 1.9.1.5.1 1 .1 1.5-.1.6-.2 1.2-.4 1.7s-.5.9-.8 1.3c-.3.4-.7.7-1.1 1-.3.2-.6.4-.9.5-.5.2-1.1.4-1.7.4-.4 0-.8 0-1.2-.1-.3-.1-.7-.2-1-.3-.3-.1-.6-.3-.9-.4-.4-.3-.8-.6-1.1-.9-.4-.4-.7-.9-.9-1.3-.3-.7-.5-1.4-.5-2.2 0-.3 0-.6.1-.9v-.1-.1c.1-.4.2-.9.4-1.3-.2-.2-.1-.3 0-.5zm6.1 2.9c.1-.1.3-.1.4-.2.4-.4.5-1.2-.1-1.7-.2-.1-.4-.2-.7-.3 0-.3.2-.6.2-1-.2 0-.4-.1-.6-.1-.1.3-.2.6-.2.9-.1 0-.3 0-.4-.1.1-.3.2-.6.2-.9-.2 0-.4-.1-.6-.1-.1.3-.2.6-.2.9l-1.2-.3c-.1.2-.1.4-.2.6.1 0 .2.1.4.1.3.1.4.2.3.5 0 .2-.1.4-.1.5-.2.6-.3 1.3-.5 1.9 0 .1-.1.2-.3.2-.1 0-.3-.1-.4-.1-.1.2-.2.4-.3.7.4.1.7.2 1.1.3 0 .3-.2.6-.2 1 .2 0 .4.1.6.1l.3-.9c.1.1.3.1.4.1-.1.3-.1.6-.2.9.2.1.4.1.6.1.1-.3.2-.6.2-.9h.1c.3.1.6.1.9 0 .3 0 .5-.1.7-.3.2-.2.3-.5.4-.8 0-.2 0-.5-.1-.7-.1-.2-.3-.3-.5-.4zm-2.2 1.2c.4.1.8.2 1.2.1.2 0 .4-.1.4-.4.1-.2 0-.4-.1-.5-.2-.2-.4-.3-.6-.3-.2-.1-.5-.2-.8-.2l-.3 1.2c.1.1.2.1.2.1zm1.4-1.7c.2 0 .4-.2.4-.4.1-.2 0-.4-.2-.6-.2-.2-.5-.2-.7-.3-.1 0-.2-.1-.3 0-.1.4-.2.7-.3 1.1.4.1.7.2 1.1.2z" fill="#f39321"/><path class="st21" d="M194.3 217.1c0-.2.2-.4.4-.4h1.6c.2 0 .4.2.4.4v1.6c0 .2-.2.4-.4.4h-1.6c-.2 0-.4-.2-.4-.4v-1.6zm.8.4v.8h.8v-.8h-.8zM193.1 114.2c.2.2.4.2.6 0l.9-.8.9.8c.2.2.4.2.6 0 .2-.2.2-.4 0-.6l-1.1-1.1c-.2-.2-.4-.2-.6 0l-1.1 1.1c-.3.2-.3.4-.2.6zM201.1 118c-.2-.2-.4-.2-.6 0l-.9.8-.9-.8c-.2-.2-.4-.2-.6 0-.2.2-.2.4 0 .6l1.1 1.1c.2.2.4.2.6 0l1.1-1.1c.3-.2.4-.4.2-.6z"/><path class="st21" d="M194.6 119.8c-.2 0-.4-.2-.4-.4v-6c0-.2.2-.4.4-.4s.4.2.4.4v6c0 .2-.2.4-.4.4zM199.7 112.4c.2 0 .4.2.4.4v6c0 .2-.2.4-.4.4s-.4-.2-.4-.4v-6c-.1-.2.1-.4.4-.4z"/><path class="st4" d="M25.4 46.2H27c0-.4-.2-.8-.4-1.1-.2-.3-.4-.6-.7-.8-.3-.2-.6-.4-1-.5-.4-.1-.7-.2-1.2-.2-.6 0-1.1.1-1.5.3-.4.2-.8.5-1.1.8-.3.4-.5.8-.7 1.2-.2.5-.2 1-.2 1.5s.1 1 .2 1.5c.2.5.4.9.7 1.2s.7.6 1.1.8c.5.2 1 .3 1.5.3s.9-.1 1.3-.2.7-.3 1-.6c.3-.3.5-.6.7-1s.3-.8.3-1.3h-1.6c-.1.5-.2.9-.5 1.2-.3.3-.7.5-1.2.5-.4 0-.7-.1-.9-.2-.3-.1-.5-.3-.6-.6-.2-.2-.3-.5-.4-.8-.1-.3-.1-.6-.1-.9 0-.3 0-.6.1-.9.1-.3.2-.6.4-.8l.6-.6c.3-.1.6-.2.9-.2.2 0 .4 0 .6.1.2.1.4.2.5.3l.4.4c.2.3.2.4.2.6zM28.3 43.7v7.4h1.5v-2.8c0-.5.1-.9.3-1.2.2-.2.5-.4.9-.4s.6.1.7.3c.1.2.2.5.2 1v3h1.5v-3.3c0-.3 0-.6-.1-.9-.1-.3-.2-.5-.3-.7-.1-.2-.3-.3-.6-.4-.2-.1-.6-.2-1-.2-.3 0-.6.1-.9.2-.3.1-.5.4-.7.7v-2.8h-1.5zM34.7 47.4c0-.3.1-.6.3-.9s.3-.4.6-.5c.2-.1.5-.2.8-.3.3-.1.6-.1.9-.1.3 0 .5 0 .8.1.3 0 .5.1.8.2.2.1.4.3.6.5.1.2.2.5.2.8v3.5c0 .2.1.4.1.5h-1.5c0-.1-.1-.2-.1-.2v-.3c-.2.2-.5.4-.8.5-.3.1-.6.1-1 .1-.3 0-.5 0-.7-.1l-.6-.3c-.2-.1-.3-.3-.4-.5-.1-.2-.1-.4-.1-.7 0-.3.1-.6.2-.7.1-.2.2-.4.4-.5l.6-.3c.2-.1.4-.1.7-.1.2 0 .4-.1.7-.1.2 0 .4-.1.6-.1.2 0 .3-.1.4-.2.1-.1.1-.2.1-.4s0-.3-.1-.4c0-.1-.1-.2-.2-.2-.1-.1-.2-.1-.3-.1h-.4c-.3 0-.5.1-.7.2-.2.1-.3.3-.3.6h-1.6zm3.4 1.1c-.1.1-.1.1-.2.1s-.2.1-.3.1c-.1 0-.2 0-.3.1s-.2 0-.4.1c-.1 0-.2 0-.3.1-.1 0-.2.1-.3.1l-.2.2c0 .1-.1.2-.1.3 0 .1 0 .2.1.3 0 .1.1.2.2.2s.2.1.3.1h.3c.3 0 .5 0 .7-.1.2-.1.3-.2.4-.3.1-.1.1-.3.1-.4V48.5zM41 45.8v5.4h1.5v-2.8c0-.5.1-.9.3-1.2.2-.2.5-.4.9-.4s.6.1.7.3c.1.2.2.5.2 1v3H46v-3.3c0-.3 0-.6-.1-.9-.1-.3-.2-.5-.3-.7-.1-.2-.3-.3-.6-.4-.2-.1-.6-.2-1-.2-.3 0-.6.1-.9.2-.3.1-.5.4-.7.7v-.7H41zM49.9 49.9c-.2 0-.4 0-.6-.1-.2-.1-.3-.2-.4-.4-.1-.2-.2-.3-.2-.5s-.1-.4-.1-.6c0-.2 0-.4.1-.6 0-.2.1-.3.2-.5.1-.1.2-.3.4-.3.2-.1.3-.1.5-.1s.4 0 .6.1c.2.1.3.2.4.4.1.2.2.3.2.5s.1.4.1.6c0 .2 0 .4-.1.6 0 .2-.1.3-.2.5-.1.1-.2.2-.4.3-.1 0-.3.1-.5.1zm2.7.9v-5h-1.4v.7c-.2-.3-.4-.5-.7-.7-.3-.1-.6-.2-.9-.2-.4 0-.7.1-1 .2-.3.1-.5.3-.7.6-.2.2-.3.5-.4.9-.1.3-.1.6-.1 1s0 .7.1 1c.1.3.2.6.4.9.2.2.4.4.7.6.3.1.6.2 1 .2.3 0 .6-.1.9-.2.3-.1.5-.3.7-.6v.7c0 .4-.1.7-.3.9-.2.2-.5.4-.9.4-.3 0-.5-.1-.7-.2-.2-.1-.3-.3-.4-.6h-1.5c0 .3.1.6.2.8.2.2.3.4.6.5.2.1.5.2.7.3.3.1.5.1.8.1.6 0 1.1-.1 1.5-.2.4-.2.6-.4.8-.6.2-.2.3-.5.4-.8.2-.3.2-.5.2-.7zM57.7 47.9h-2.4c0-.1 0-.2.1-.4 0-.1.1-.3.2-.4.1-.1.2-.2.4-.3.2-.1.4-.1.6-.1.4 0 .6.1.8.3.1.2.2.5.3.9zm-2.4.9h3.9c0-.4 0-.8-.1-1.2-.1-.4-.3-.7-.5-1-.2-.3-.5-.5-.8-.7-.3-.2-.7-.3-1.2-.3-.4 0-.8.1-1.1.2-.3.1-.6.3-.9.6-.2.2-.4.5-.6.9-.1.3-.2.7-.2 1.1 0 .4.1.8.2 1.1.1.3.3.6.5.9.2.2.5.4.9.6.3.1.7.2 1.1.2.6 0 1.1-.1 1.6-.4.4-.3.7-.7 1-1.4h-1.3c0 .2-.2.3-.4.5-.2.1-.5.2-.8.2-.4 0-.7-.1-1-.3s-.3-.5-.3-1z"/><path class="st21" d="M188.5 214.9c0-.2.2-.4.4-.4h1.9c.2 0 .4.2.4.4s-.2.4-.4.4h-1.4v1.4c0 .2-.2.4-.4.4s-.4-.2-.4-.4v-1.8zM188.9 222.5c.2 0 .4.2.4.4v1.4h1.4c.2 0 .4.2.4.4s-.2.4-.4.4h-1.9c-.2 0-.4-.2-.4-.4V223c.1-.3.3-.5.5-.5zM198.8 222.5c.2 0 .4.2.4.4v1.9c0 .2-.2.4-.4.4h-1.9c-.2 0-.4-.2-.4-.4s.2-.4.4-.4h1.4V223c.1-.3.2-.5.5-.5zM196.5 214.9c0-.2.2-.4.4-.4h1.9c.2 0 .4.2.4.4v1.9c0 .2-.2.4-.4.4s-.4-.2-.4-.4v-1.4H197c-.3-.1-.5-.2-.5-.5zM190.7 217.1c0-.2.2-.4.4-.4h1.6c.2 0 .4.2.4.4v1.6c0 .2-.2.4-.4.4h-1.6c-.2 0-.4-.2-.4-.4v-1.6zm.8.4v.8h.8v-.8h-.8zM190.7 220.4c0-.2.2-.4.4-.4h1.6c.2 0 .4.2.4.4v1.6c0 .2-.2.4-.4.4h-1.6c-.2 0-.4-.2-.4-.4v-1.6zm.8.4v.8h.8v-.8h-.8zM194.1 220.6c0-.2.2-.4.4-.4h.2c.2 0 .4.2.4.4s-.2.4-.4.4h-.2c-.2 0-.4-.2-.4-.4zm2.3-.4c.2 0 .4.2.4.4v1.8c0 .2-.2.4-.4.4h-1.8c-.2 0-.4-.2-.4-.4s.2-.4.4-.4h1.4v-1.4c0-.3.2-.4.4-.4z"/><path class="st4" d="M26.7 153.8v-6.5l-2 1.4v-1.2l2-1.4h1.2v7.7h-1.2zM32.5 153.9c-.7 0-1.3-.2-1.8-.6-.5-.4-.8-.9-.9-1.5H31c.1.3.3.6.5.8.3.2.6.3.9.3.6 0 1.1-.3 1.4-.8.3-.5.5-1.3.5-2.3-.2.4-.4.7-.8.9-.4.2-.8.3-1.3.3-.7 0-1.3-.2-1.8-.7-.5-.5-.7-1.1-.7-1.8 0-.8.3-1.4.8-1.9s1.2-.8 2-.8c.6 0 1.1.1 1.5.4.4.3.8.7 1 1.2.3.6.5 1.4.5 2.3 0 1.3-.3 2.3-.8 3-.4.9-1.2 1.2-2.2 1.2zm.1-3.8c.5 0 .9-.1 1.2-.4.3-.3.5-.7.5-1.1 0-.5-.2-.8-.5-1.2-.3-.3-.7-.5-1.2-.5s-.9.2-1.2.5c-.3.3-.5.7-.5 1.1 0 .5.2.8.5 1.2.3.3.7.4 1.2.4zM38 153.6c-.1.1-.3.2-.5.2s-.4-.1-.5-.2c-.1-.1-.2-.3-.2-.5s.1-.4.2-.5.3-.2.5-.2.4.1.5.2.2.3.2.5-.1.4-.2.5zM41.3 150.3v-.9h.9c.4 0 .8-.1 1-.4.3-.2.4-.5.4-.9s-.1-.7-.4-.9c-.2-.2-.6-.3-1-.3s-.8.1-1 .3c-.3.2-.4.5-.4.9h-1.1c0-.7.3-1.2.8-1.6.5-.4 1.1-.6 1.9-.6.7 0 1.3.2 1.8.6.5.4.7.9.7 1.5 0 .5-.1.9-.4 1.2-.3.3-.7.5-1.2.6.6 0 1.1.2 1.4.6.3.3.5.8.5 1.3 0 .7-.3 1.2-.8 1.6-.5.4-1.2.6-2 .6s-1.5-.2-2-.6c-.5-.4-.8-1-.8-1.6h1.2c0 .4.2.7.5.9.3.2.7.3 1.2.3s.9-.1 1.2-.4c.3-.2.5-.6.5-.9 0-.4-.1-.7-.4-1-.3-.2-.7-.4-1.2-.4h-1.3zM46.3 148.3c0-.7.3-1.3.8-1.7.5-.5 1.1-.7 1.9-.7.7 0 1.3.2 1.8.6.5.4.7.9.7 1.5 0 .4-.1.8-.4 1.2-.2.4-.7.9-1.3 1.5l-1.9 1.9h3.7v1h-5.3v-.6l2.8-2.8c.5-.5.8-.9.9-1.1.2-.3.2-.6.2-.9 0-.3-.1-.6-.4-.9-.3-.2-.6-.4-1-.4s-.8.1-1.1.4c-.3.3-.4.6-.4 1h-1zM52.8 148.3c0-.7.3-1.3.8-1.7.5-.5 1.1-.7 1.9-.7.7 0 1.3.2 1.8.6.5.4.7.9.7 1.5 0 .4-.1.8-.4 1.2-.2.4-.7.9-1.3 1.5l-1.9 1.9h3.7v1h-5.3v-.6l2.8-2.8c.5-.5.8-.9.9-1.1.2-.3.2-.6.2-.9 0-.3-.1-.6-.4-.9-.3-.2-.6-.4-1-.4s-.8.1-1.1.4c-.3.3-.4.6-.4 1h-1zM62.3 153.9c-.6 0-1.1-.1-1.5-.4-.4-.3-.8-.7-1-1.2-.3-.6-.5-1.4-.5-2.3 0-1.3.3-2.3.8-3 .5-.7 1.3-1.1 2.3-1.1.7 0 1.3.2 1.8.6.5.4.8.9.9 1.5h-1.2c-.1-.3-.3-.6-.5-.8-.3-.2-.6-.3-.9-.3-.6 0-1.1.3-1.4.8-.3.5-.5 1.3-.5 2.3.2-.4.4-.7.8-.9.4-.2.8-.3 1.3-.3.7 0 1.3.2 1.8.7.5.5.7 1.1.7 1.8 0 .8-.3 1.4-.8 1.9-.6.5-1.3.7-2.1.7zm0-1c.5 0 .8-.2 1.2-.5.3-.3.5-.7.5-1.2s-.2-.9-.5-1.2c-.3-.3-.7-.5-1.2-.5s-.9.2-1.2.5c-.3.3-.5.7-.5 1.1 0 .5.2.9.5 1.2.3.5.7.6 1.2.6zM68 150.3v-.9h.9c.4 0 .8-.1 1-.4.3-.2.4-.5.4-.9s-.1-.7-.4-.9c-.2-.2-.6-.3-1-.3s-.8.1-1 .3c-.3.2-.4.5-.4.9h-1.1c0-.7.3-1.2.8-1.6.5-.4 1.1-.6 1.9-.6.7 0 1.3.2 1.8.6.5.4.7.9.7 1.5 0 .5-.1.9-.4 1.2-.3.3-.7.5-1.2.6.6 0 1.1.2 1.4.6.3.3.5.8.5 1.3 0 .7-.3 1.2-.8 1.6-.5.4-1.2.6-2 .6s-1.5-.2-2-.6c-.5-.4-.8-1-.8-1.6h1.2c0 .4.2.7.5.9.3.2.7.3 1.2.3s.9-.1 1.2-.4c.3-.2.5-.6.5-.9 0-.4-.1-.7-.4-1-.3-.2-.7-.4-1.2-.4H68zM75.9 153.9c-.9 0-1.6-.2-2.1-.6-.5-.4-.8-1-.8-1.6 0-.5.2-.9.5-1.3s.7-.6 1.2-.7c-.4-.1-.8-.3-1-.6-.3-.3-.4-.7-.4-1.1 0-.6.2-1.1.7-1.5.5-.4 1.1-.6 1.9-.6.8 0 1.4.2 1.9.6.5.4.7.9.7 1.5 0 .4-.1.8-.4 1.1-.3.3-.6.5-1 .7.5.1.9.3 1.2.7.3.4.5.8.5 1.3 0 .7-.3 1.2-.8 1.6-.6.3-1.3.5-2.1.5zm-1.2-1.3c.3.3.7.4 1.2.4s.9-.1 1.2-.4c.3-.3.5-.6.5-1s-.2-.7-.5-1c-.3-.3-.7-.4-1.2-.4s-.9.1-1.2.4c-.3.3-.5.6-.5 1s.1.7.5 1zm1.2-3.3c.4 0 .8-.1 1-.3.3-.2.4-.5.4-.9s-.1-.6-.4-.9c-.3-.2-.6-.3-1-.3s-.8.1-1 .3c-.3.2-.4.5-.4.9s.1.6.4.9c.2.2.6.3 1 .3zM79.9 148.3c0-.7.3-1.3.8-1.7.5-.5 1.1-.7 1.9-.7.7 0 1.3.2 1.8.6.5.4.7.9.7 1.5 0 .4-.1.8-.4 1.2-.2.4-.7.9-1.3 1.5l-1.9 1.9h3.7v1H80v-.6l2.8-2.8c.5-.5.8-.9.9-1.1.2-.3.2-.6.2-.9 0-.3-.1-.6-.4-.9-.3-.2-.6-.4-1-.4s-.8.1-1.1.4c-.3.3-.4.6-.4 1h-1.1zM20.1 196h-1v-5.4h-1.9v-.8H22v.8h-1.9v5.4zM25.2 195.5c-.4.4-.9.6-1.6.6s-1.2-.2-1.6-.6c-.4-.4-.6-1-.6-1.7s.2-1.3.6-1.7c.4-.4.9-.6 1.6-.6s1.2.2 1.6.6c.4.4.6 1 .6 1.7s-.2 1.2-.6 1.7zm-1.6-.2c.4 0 .7-.1.9-.4.2-.3.3-.7.3-1.2s-.1-.9-.3-1.2c-.2-.3-.5-.4-.9-.4s-.7.1-.9.4c-.2.3-.3.7-.3 1.2s.1.9.3 1.2c.3.3.6.4.9.4zM28.5 196v-4.5h.9v.8c.1-.3.2-.5.4-.6.2-.1.4-.2.7-.2h.3v.9c-.1 0-.2-.1-.4-.1-.3 0-.5.1-.7.3-.2.2-.3.4-.3.8v2.7h-.9zM33.9 192.5c-.2-.2-.5-.3-.8-.3-.3 0-.6.1-.8.3-.2.2-.3.5-.4.8h2.3c.1-.3-.1-.6-.3-.8zm.4 2.2h.9c-.1.4-.3.8-.6 1-.4.3-.8.4-1.3.4-.7 0-1.2-.2-1.6-.6-.4-.4-.6-1-.6-1.7s.2-1.3.6-1.7c.4-.4.9-.6 1.5-.6s1.1.2 1.5.6c.4.4.5 1 .5 1.6v.3H32v.1c0 .4.1.7.3.9.2.2.5.4.9.4.3 0 .5-.1.7-.2.2-.2.3-.3.4-.5zM39.9 193H39c0-.3-.2-.5-.4-.6-.2-.2-.4-.2-.7-.2-.4 0-.6.1-.9.4-.2.3-.3.7-.3 1.1 0 .5.1.9.3 1.1.2.3.5.4.9.4.3 0 .5-.1.7-.2.2-.1.3-.4.4-.6h.9c0 .5-.3.9-.6 1.2-.4.3-.8.4-1.3.4-.6 0-1.2-.2-1.6-.6-.4-.4-.6-1-.6-1.7s.2-1.3.6-1.7c.4-.4.9-.6 1.5-.6s1 .2 1.4.5c.4.3.6.7.6 1.1zM40.7 196v-4.5h.9v4.5h-.9zm.8-5.3c-.1.1-.2.2-.4.2s-.3-.1-.4-.2c-.1-.1-.2-.2-.2-.4 0-.1.1-.3.2-.4.1-.1.2-.2.4-.2s.3.1.4.2c.1.1.2.2.2.4 0 .1 0 .3-.2.4zM45 191.4c.6 0 1 .2 1.4.6s.5 1 .5 1.7-.2 1.3-.5 1.7c-.3.4-.8.6-1.4.6-.3 0-.6-.1-.9-.2-.2-.1-.4-.3-.6-.6v2.2h-.9v-6h.9v.8c.1-.3.3-.5.6-.6.3-.1.6-.2.9-.2zm-.2 3.9c.4 0 .7-.1.9-.4.2-.3.3-.7.3-1.1 0-.5-.1-.8-.3-1.1-.2-.3-.5-.4-.9-.4s-.6.1-.9.4c-.2.3-.3.7-.3 1.1 0 .5.1.8.3 1.1.2.3.5.4.9.4zM47.8 196v-4.5h.9v4.5h-.9zm.8-5.3c-.1.1-.2.2-.4.2-.1 0-.3-.1-.4-.2-.1-.1-.2-.2-.2-.4 0-.1.1-.3.2-.4.1-.1.2-.2.4-.2s.3.1.4.2c.1.1.2.2.2.4 0 .1-.1.3-.2.4zM52.4 192.5c-.2-.2-.5-.3-.8-.3-.3 0-.6.1-.8.3-.2.2-.3.5-.4.8h2.3c.1-.3 0-.6-.3-.8zm.4 2.2h.9c-.1.4-.3.8-.6 1-.4.3-.8.4-1.3.4-.7 0-1.2-.2-1.6-.6-.4-.4-.6-1-.6-1.7s.2-1.3.6-1.7c.4-.4.9-.6 1.5-.6s1.1.2 1.5.6c.4.4.5 1 .5 1.6v.3h-3.2v.1c0 .4.1.7.3.9.2.2.5.4.9.4.3 0 .5-.1.7-.2.2-.2.3-.3.4-.5zM54.5 196v-4.5h.9v.8c.1-.3.3-.5.5-.6.2-.1.5-.2.9-.2.5 0 .9.1 1.2.4.3.3.4.7.4 1.2v2.9h-.9v-2.7c0-.3-.1-.6-.2-.8-.2-.2-.4-.3-.7-.3-.3 0-.6.1-.8.3-.2.2-.3.5-.3.8v2.6h-1zM59.7 190.4h.9v1.1h.9v.7h-.9v2.5c0 .2 0 .3.1.4.1.1.2.1.4.1h.3v.7h-.5c-.5 0-.8-.1-1-.3-.2-.2-.3-.5-.3-.9v-2.6H59v-.7h.7v-1zM65.8 195.3c.3 0 .6-.1.8-.3.2-.2.3-.4.3-.7v-.3l-1.1.1c-.3 0-.5.1-.6.2-.1.1-.2.3-.2.5s.1.4.2.5h.6zm-.2.8c-.4 0-.8-.1-1.1-.4-.3-.3-.4-.6-.4-1s.1-.7.4-.9c.3-.2.7-.4 1.2-.4l1.2-.1v-.3c0-.3-.1-.4-.2-.6-.2-.1-.4-.2-.7-.2-.3 0-.5.1-.6.2-.2.1-.3.3-.3.5h-.9c0-.4.2-.8.5-1 .3-.3.8-.4 1.3-.4s1 .1 1.3.4c.3.3.5.6.5 1.1v3.1H67v-.7c-.1.2-.3.4-.6.6-.3 0-.5.1-.8.1zM70.6 196.1c-.6 0-1-.2-1.4-.6-.3-.4-.5-1-.5-1.7s.2-1.3.5-1.7c.3-.4.8-.6 1.4-.6.3 0 .6.1.8.2.2.1.4.3.6.6v-2.4h1v6.2h-.9v-.8c-.1.3-.3.5-.6.6-.3.1-.6.2-.9.2zm.3-3.9c-.4 0-.7.1-.9.4-.2.3-.3.7-.3 1.1 0 .5.1.9.3 1.1.2.3.5.4.9.4s.6-.1.9-.4c.2-.3.3-.7.3-1.1 0-.5-.1-.8-.3-1.1-.3-.3-.6-.4-.9-.4zM75.7 196.1c-.6 0-1-.2-1.4-.6-.3-.4-.5-1-.5-1.7s.2-1.3.5-1.7c.3-.4.8-.6 1.4-.6.3 0 .6.1.8.2.2.1.4.3.6.6v-2.4h.9v6.2h-.9v-.8c-.1.3-.3.5-.6.6-.2.1-.5.2-.8.2zm.3-3.9c-.4 0-.7.1-.9.4-.2.3-.3.7-.3 1.1 0 .5.1.9.3 1.1.2.3.5.4.9.4s.6-.1.9-.4c.2-.3.3-.7.3-1.1 0-.5-.1-.8-.3-1.1s-.6-.4-.9-.4zM79.1 196v-4.5h.9v.8c.1-.3.2-.5.4-.6.2-.1.4-.2.7-.2h.3v.9c-.1 0-.2-.1-.4-.1-.3 0-.5.1-.7.3-.2.2-.3.4-.3.8v2.7h-.9zM84.6 192.5c-.2-.2-.5-.3-.8-.3-.3 0-.6.1-.8.3-.2.2-.3.5-.4.8h2.3c0-.3-.1-.6-.3-.8zm.3 2.2h.9c-.1.4-.3.8-.6 1s-.8.4-1.3.4c-.7 0-1.2-.2-1.6-.6-.4-.4-.6-1-.6-1.7s.2-1.3.6-1.7c.4-.4.9-.6 1.5-.6s1.1.2 1.5.6c.4.4.5 1 .5 1.6v.3h-3.2v.1c0 .4.1.7.3.9s.5.4.9.4c.3 0 .5-.1.7-.2.2-.2.4-.3.4-.5zM86.6 192.8c0-.4.2-.7.5-1 .3-.3.8-.4 1.3-.4s.9.1 1.2.4c.3.3.5.6.5 1h-.9c0-.2-.1-.4-.3-.5-.2-.1-.4-.2-.6-.2-.3 0-.5.1-.6.2-.2.1-.2.3-.2.4 0 .3.2.5.7.6l.8.2c.5.1.8.3 1 .4.2.2.3.4.3.8s-.2.7-.5 1c-.3.3-.8.4-1.4.4-.5 0-1-.1-1.3-.4-.3-.3-.5-.6-.6-1h.9c0 .2.1.4.3.5.2.1.4.2.7.2.3 0 .5-.1.7-.2.2-.1.2-.3.2-.4 0-.1 0-.3-.1-.3-.1-.1-.3-.2-.5-.2l-.8-.2c-.9-.3-1.3-.7-1.3-1.3zM91 192.8c0-.4.2-.7.5-1 .3-.3.8-.4 1.3-.4s.9.1 1.2.4c.3.3.5.6.5 1h-.9c0-.2-.1-.4-.3-.5-.2-.1-.4-.2-.6-.2-.3 0-.5.1-.6.2-.2.1-.2.3-.2.4 0 .3.2.5.7.6l.8.2c.5.1.8.3 1 .4.2.2.3.4.3.8s-.2.7-.5 1c-.3.3-.8.4-1.4.4-.5 0-1-.1-1.3-.4-.3-.3-.5-.6-.6-1h.9c0 .2.1.4.3.5.2.1.4.2.7.2.3 0 .5-.1.7-.2.2-.1.2-.3.2-.4 0-.1 0-.3-.1-.3s-.3-.2-.5-.2l-.8-.2c-.9-.3-1.3-.7-1.3-1.3zM163.2 149.8v.9h-4.4v-7h4.4v.9h-3.3v2h3.2v.9h-3.2v2.2h3.3zM167.2 150.7h-1.1v-6H164v-.9h5.3v.9h-2.1v6zM176 150.7h-1.1v-3.1h-3.6v3.1h-1.1v-7h1.1v2.9h3.6v-2.9h1.1v7zM161.6 89.2h-2.8v-7h2.8c.6 0 1.1.2 1.5.5.4.3.6.7.6 1.3 0 .4-.1.7-.4 1-.2.3-.5.5-.9.5.5.1.9.2 1.1.6.3.3.4.7.4 1.2 0 .6-.2 1.1-.6 1.4-.4.4-1 .5-1.7.5zm-1.7-6v2.1h1.2c.5 0 .8-.1 1.1-.3.2-.2.4-.5.4-.8 0-.3-.1-.6-.3-.7-.2-.2-.5-.3-.9-.3h-1.5zm0 5.2h1.5c.5 0 .9-.1 1.1-.3.3-.2.4-.5.4-.9 0-.8-.5-1.1-1.6-1.1h-1.4v2.3zM167.7 89.2h-1.1v-6h-2.1v-.9h5.3v.9h-2.1v6zM173.3 89.4c-1 0-1.8-.3-2.3-1-.6-.6-.9-1.5-.9-2.6s.3-2 .9-2.6c.6-.6 1.4-1 2.3-1 .8 0 1.5.2 2 .7.5.4.9 1 .9 1.8h-1.1c-.1-.4-.3-.8-.7-1.1-.3-.3-.7-.4-1.2-.4-.6 0-1.1.2-1.5.7-.4.5-.6 1.1-.6 1.9 0 .8.2 1.5.6 1.9.4.5.9.7 1.5.7.5 0 .9-.1 1.2-.4.3-.2.6-.6.7-1h1.1c-.1.7-.5 1.3-1 1.7-.4.5-1.1.7-1.9.7z"/><path class="st21" d="M196.6 47.3c0 1.1-.9 1.9-1.9 1.9-1.1 0-1.9-.9-1.9-1.9 0-1.1.9-1.9 1.9-1.9 1.1 0 1.9.8 1.9 1.9zm-.8 0c0 .6-.5 1.1-1.1 1.1-.6 0-1.1-.5-1.1-1.1 0-.6.5-1.1 1.1-1.1.6 0 1.1.5 1.1 1.1z"/><path class="st21" d="M196 42.9c-.3-1.5-2.4-1.5-2.7 0-.1.4-.5.6-.8.3-1.2-.8-2.7.7-1.9 1.9.2.3 0 .8-.3.8-1.5.3-1.5 2.4 0 2.7.4.1.6.5.3.8-.8 1.2.7 2.7 1.9 1.9.3-.2.8 0 .8.3.3 1.5 2.4 1.5 2.7 0 .1-.4.5-.6.8-.3 1.2.8 2.7-.7 1.9-1.9-.2-.3 0-.8.3-.8 1.5-.3 1.5-2.4 0-2.7-.4-.1-.6-.5-.3-.8.8-1.2-.7-2.7-1.9-1.9-.2.2-.7 0-.8-.3zm-1.8.1c.1-.6.9-.6 1.1 0 .2 1 1.3 1.4 2.1.9.5-.3 1.1.3.8.8-.5.8-.1 1.9.9 2.1.6.1.6.9 0 1.1-1 .2-1.4 1.3-.9 2.1.3.5-.3 1.1-.8.8-.8-.5-1.9-.1-2.1.9-.1.6-.9.6-1.1 0-.2-1-1.3-1.4-2.1-.9-.5.3-1.1-.3-.8-.8.5-.8.1-1.9-.9-2.1-.6-.1-.6-.9 0-1.1 1-.2 1.4-1.3.9-2.1-.3-.5.3-1.1.8-.8.8.5 1.9.1 2.1-.9zM167.3 42.3a1 1 0 011.6.8v7.6c0 .8-.9 1.3-1.6.9l-3.1-1.9h-.1l-2.3-.2c-.5 0-.9-.5-.9-1V48h-.1c-.5 0-.8-.4-.8-.8s.4-.8.8-.8h.1v-.8c0-.5.4-.9.9-1l2.2-.2h.1l3.2-2.1zm.8.9c0-.2-.2-.3-.3-.2l-3.1 2.1c-.1.1-.3.1-.5.2l-2.2.2c-.1 0-.1.1-.1.1v2.9c0 .1.1.1.1.1l2.3.2c.1 0 .3.1.4.1l3.1 1.9c.1.1.3 0 .3-.2v-7.4z"/><path class="st4" d="M161.6 50.7c.1-.2.3-.4.5-.3l2.2.5c.2.1.4.3.3.5-.1.2-.3.4-.5.3l-2.2-.5c-.2-.1-.4-.3-.3-.5z"/><path class="st22" d="M60.4 43.7v7.4h1.5v-5l3.1 5h1.6v-7.4h-1.5v5l-3.1-5h-1.6zM69.6 47.5c0-.3 0-.6.1-.9.1-.3.2-.6.4-.8l.6-.6c.3-.1.6-.2.9-.2s.7.1.9.2c.3.1.5.3.6.6.2.2.3.5.3.8.1.3.1.6.1.9 0 .3 0 .6-.1.9-.1.3-.2.6-.3.8l-.6.6c-.3.1-.6.2-.9.2s-.7-.1-.9-.2c-.3-.1-.5-.3-.6-.6-.2-.2-.3-.5-.4-.8 0-.3-.1-.6-.1-.9zm-1.6 0c0 .5.1 1 .2 1.5.2.5.4.9.7 1.2.3.3.7.6 1.1.8.5.2 1 .3 1.5.3.6 0 1.1-.1 1.5-.3.4-.2.8-.5 1.1-.8.3-.3.5-.8.7-1.2.2-.5.2-1 .2-1.5 0-.6-.1-1.1-.2-1.5-.2-.5-.4-.9-.7-1.2-.3-.4-.7-.6-1.1-.8-.4-.2-1-.3-1.5-.3-.6 0-1.1.1-1.5.3-.4.2-.8.5-1.1.8-.3.4-.5.8-.7 1.2-.1.4-.2.9-.2 1.5zM83.7 51.1l2-7.4h-1.6l-1.2 5.1-1.3-5.1h-1.5l-1.3 5-1.2-5H76l2 7.4h1.6l1.2-5 1.3 5h1.6z"/><path class="st9" d="M19.2 67.8h183.9c1.8 0 3.3 1.5 3.3 3.3v28.5c0 1.8-1.5 3.3-3.3 3.3H19.2c-1.8 0-3.3-1.5-3.3-3.3V71.1c0-1.8 1.5-3.3 3.3-3.3zm0 1.1c-1.2 0-2.2 1-2.2 2.2v28.5c0 1.2 1 2.2 2.2 2.2h183.9c1.2 0 2.2-1 2.2-2.2V71.1c0-1.2-1-2.2-2.2-2.2H19.2z"/><path class="st22" d="M167.3 47.1c0-1.4 1.1-2.5 2.5-2.5h6.6c1.4 0 2.5 1.1 2.5 2.5s-1.1 2.5-2.5 2.5h-6.6c-1.4 0-2.5-1.1-2.5-2.5z"/><path class="st3" d="M169.6 48.3h-.5v-2.5h.4l1.2 1.6v-1.6h.5v2.5h-.4l-1.2-1.6v1.6zM173.6 47.9v.4H172v-2.5h1.7v.4h-1.1v.6h1.1v.4h-1.1v.6h1zM175.8 46.6l-.5 1.7h-.5l-.7-2.5h.5l.4 1.8.5-1.8h.4l.5 1.8.4-1.8h.5l-.7 2.5h-.5l-.3-1.7z"/><g opacity=".4"><path class="st21" d="M191.9 19.5c0-.7.6-1.3 1.3-1.3h8.2c.7 0 1.3.6 1.3 1.3v2.8c0 .7-.6 1.3-1.3 1.3h-8.2c-.7 0-1.3-.6-1.3-1.3v-2.8zm1.3-.8h8.2c.4 0 .8.4.8.8v2.8c0 .4-.4.8-.8.8h-8.2c-.4 0-.8-.4-.8-.8v-2.8c0-.5.4-.8.8-.8z"/><path class="st4" d="M202.8 21.8v-1.9c.4.2.6.5.6 1 0 .4-.2.7-.6.9z"/></g><path class="st4" d="M185.4 19.3c1.1 0 2.1.4 2.9 1.2.1.1.2.1.2 0l.6-.6v-.1-.1c-2-2-5.3-2-7.3 0v.2l.6.6c.1.1.2.1.2 0 .7-.8 1.7-1.2 2.8-1.2z"/><path class="st4" d="M185.4 21.2c.6 0 1.2.2 1.6.6.1.1.2.1.2 0l.6-.6v-.1-.1c-1.3-1.2-3.4-1.2-4.7 0v.2l.6.6c.1.1.2.1.2 0 .4-.4.9-.6 1.5-.6z"/><path class="st4" d="M186.5 22.4v.1l-1 1h-.1-.1l-1-1v-.1-.1c.6-.5 1.5-.5 2.1 0 .1 0 .1.1.1.1zM192.7 19.6c0-.4.3-.6.6-.6h7.9c.4 0 .6.3.6.6v2.5c0 .4-.3.6-.6.6h-7.9c-.4 0-.6-.3-.6-.6v-2.5zM178.3 18.4h.5c.3 0 .5.2.5.5v4.2c0 .3-.2.5-.5.5h-.5c-.3 0-.5-.2-.5-.5v-4.2c0-.3.3-.5.5-.5zM176.5 19.5h-.5c-.3 0-.5.2-.5.5v3.1c0 .3.2.5.5.5h.5c.3 0 .5-.2.5-.5V20c0-.3-.2-.5-.5-.5zM173.8 20.7h.5c.3 0 .5.2.5.5v2c0 .3-.2.5-.5.5h-.5c-.3 0-.5-.2-.5-.5v-2c0-.3.2-.5.5-.5zM171.6 21.6h.5c.3 0 .5.2.5.5v1c0 .3-.2.5-.5.5h-.5c-.3 0-.5-.2-.5-.5v-1c0-.2.2-.5.5-.5z"/><path class="st24" d="M53.8 113.8c0-1.2 1-2.1 2.1-2.1h59.4c1.2 0 2.1 1 2.1 2.1v5.6c0 1.2-1 2.1-2.1 2.1H56c-1.2 0-2.1-1-2.1-2.1v-5.6zM100.4 189.6c0-1.1.9-2 2-2h38.1c1.1 0 2 .9 2 2v6.2c0 1.1-.9 2-2 2h-38.1c-1.1 0-2-.9-2-2v-6.2z"/><path class="st4" d="M26.8 18.9c0-.5.2-.9.5-1.2.4-.3.8-.5 1.4-.5.5 0 1 .1 1.3.4.4.3.5.7.5 1.1 0 .3-.1.6-.3.9-.2.3-.5.6-.8 1L28 21.9h2.5v.8h-3.8V22l2-2c.3-.3.5-.6.6-.7.1-.2.2-.4.2-.6 0-.2-.1-.4-.3-.6-.2-.2-.4-.2-.7-.2-.3 0-.5.1-.7.3-.2.2-.3.4-.3.7h-.7zM32.5 20.3v-.7h.7c.3 0 .5-.1.7-.2.2-.2.3-.4.3-.6 0-.2-.1-.4-.3-.6-.2-.1-.4-.2-.7-.2-.3 0-.5.1-.7.2-.2.2-.3.4-.3.6h-.9c0-.5.2-.9.6-1.2.4-.3.8-.4 1.4-.4.5 0 1 .1 1.3.4.3.3.5.6.5 1 0 .3-.1.6-.3.9-.2.2-.5.4-.8.4.4 0 .7.2 1 .4.2.2.4.5.4.9 0 .5-.2.9-.6 1.2-.4.3-.9.4-1.5.4s-1.1-.1-1.4-.4c-.4-.3-.6-.7-.6-1.2h.9c0 .3.1.5.3.6.2.2.5.2.8.2.3 0 .6-.1.8-.2.2-.2.3-.4.3-.6 0-.3-.1-.5-.3-.7-.2-.2-.5-.2-.8-.2h-.8zM36.5 22.8c-.2 0-.3-.1-.4-.2-.1-.1-.1-.2-.1-.4s.1-.3.2-.4c.1-.1.2-.2.4-.2s.3.1.4.2c.1.1.2.2.2.4s-.1.3-.2.4c-.2.1-.3.2-.5.2zm0-2.8c-.2 0-.3-.1-.4-.2-.1 0-.1-.2-.1-.3 0-.2.1-.3.2-.4.1-.1.2-.2.4-.2s.3.1.4.2c.1.1.2.2.2.4s-.1.3-.2.4c-.2.1-.3.1-.5.1zM40.4 22.7v-1h-2.7v-.8c.4-.9 1.2-2.1 2.3-3.6h1.4v3.6h.7v.8h-.7v1h-1zm-1.8-1.8h1.9V18c-.5.7-.8 1.2-1.1 1.7-.4.4-.6.8-.8 1.2zM44 22.7v-4.5l-1.4 1v-.9l1.4-1h1v5.5l-1-.1z"/><path class="st25" d="M59.1 119.5h-.7v-4.6l-1.4.5v-.6l2-.7h.1v5.4zM63.8 117.1c-.1.2-.3.3-.5.4-.2.1-.4.2-.7.2-.3 0-.6-.1-.8-.2-.2-.2-.4-.4-.5-.7-.1-.3-.2-.6-.2-.9 0-.4.1-.7.2-1 .1-.3.3-.5.6-.7.3-.2.6-.2.9-.2.5 0 1 .2 1.3.6.3.4.5 1 .5 1.6v.2c0 1.1-.2 1.8-.6 2.3-.4.5-1.1.7-1.9.7H62v-.6c.6 0 1-.2 1.3-.4.3-.2.5-.7.5-1.3zm-1.1 0c.2 0 .4-.1.6-.2.2-.1.3-.3.4-.5v-.3c0-.5-.1-.8-.3-1.1-.2-.3-.4-.4-.7-.4-.3 0-.5.1-.7.4-.2.2-.3.5-.3.9s.1.7.3.9c.2.2.4.3.7.3zM65.6 119.1c0-.1 0-.2.1-.3.1-.1.2-.1.3-.1.1 0 .2 0 .3.1.1.1.1.2.1.3 0 .1 0 .2-.1.3-.1.1-.2.1-.3.1-.1 0-.2 0-.3-.1-.1 0-.1-.1-.1-.3zM68.6 116.4h.5c.3 0 .6-.1.8-.3s.3-.4.3-.7c0-.6-.3-1-1-1-.3 0-.5.1-.7.3-.2.2-.3.4-.3.7h-.7c0-.4.2-.8.5-1.1.3-.3.7-.4 1.2-.4s.9.1 1.2.4c.3.3.4.7.4 1.1 0 .2-.1.5-.2.7-.2.2-.4.4-.6.5.3.1.5.3.7.5.2.2.2.5.2.8 0 .5-.2.9-.5 1.2-.3.3-.7.4-1.2.4s-.9-.1-1.3-.4c-.3-.3-.5-.6-.5-1.1h.7c0 .3.1.5.3.7.2.2.4.3.8.3.3 0 .6-.1.8-.3.2-.2.3-.4.3-.8 0-.3-.1-.6-.3-.7-.2-.2-.5-.3-.8-.3h-.5v-.5zM75.5 119.5h-3.6v-.5l1.9-2.1c.3-.3.5-.6.6-.8.1-.2.2-.4.2-.6 0-.3-.1-.5-.3-.7-.2-.2-.4-.3-.7-.3-.3 0-.6.1-.8.3-.2.2-.3.5-.3.8h-.7c0-.5.2-.9.5-1.2.3-.3.8-.5 1.3-.5s.9.1 1.2.4c.3.3.4.6.4 1.1 0 .5-.3 1.2-1 1.9l-1.5 1.6h2.7v.6zM79.8 119.5h-3.6v-.5l1.9-2.1c.3-.3.5-.6.6-.8.1-.2.2-.4.2-.6 0-.3-.1-.5-.3-.7-.2-.2-.4-.3-.7-.3-.3 0-.6.1-.8.3-.2.2-.3.5-.3.8h-.7c0-.5.2-.9.5-1.2.3-.3.8-.5 1.3-.5s.9.1 1.2.4c.3.3.4.6.4 1.1 0 .5-.3 1.2-1 1.9l-1.5 1.6h2.7v.6zM83.3 114v.6h-.1c-.5 0-1 .2-1.3.5-.3.3-.5.7-.6 1.3.3-.3.7-.5 1.2-.5s.9.2 1.1.5c.3.3.4.8.4 1.3 0 .6-.2 1-.5 1.3-.3.3-.7.5-1.2.5s-.9-.2-1.3-.6c-.3-.4-.5-.9-.5-1.6v-.3c0-1 .2-1.8.6-2.3.4-.5 1.1-.8 1.9-.8h.3zm-.9 2.5c-.2 0-.5.1-.7.2-.2.1-.3.3-.4.5v.3c0 .4.1.8.3 1.1.2.3.5.4.8.4.3 0 .6-.1.7-.3.2-.2.3-.5.3-.9s-.1-.7-.3-.9c-.1-.3-.4-.4-.7-.4zM86 116.4h.5c.3 0 .6-.1.8-.3.2-.2.3-.4.3-.7 0-.6-.3-1-1-1-.3 0-.5.1-.7.3-.2.2-.3.4-.3.7h-.7c0-.4.2-.8.5-1.1.3-.3.7-.4 1.2-.4s.9.1 1.2.4c.3.3.4.7.4 1.1 0 .2-.1.5-.2.7-.2.2-.4.4-.6.5.3.1.5.3.7.5.2.2.2.5.2.8 0 .5-.2.9-.5 1.2-.3.3-.7.4-1.2.4s-.9-.1-1.3-.4c-.3-.3-.5-.6-.5-1.1h.7c0 .3.1.5.3.7.2.2.4.3.8.3.3 0 .6-.1.8-.3.2-.2.3-.4.3-.8 0-.3-.1-.6-.3-.7-.2-.2-.5-.3-.8-.3H86v-.5zM92.6 115.5c0 .3-.1.5-.2.7-.1.2-.3.4-.6.5.3.1.5.3.7.5.2.2.3.5.3.8 0 .5-.2.8-.5 1.1-.3.3-.7.4-1.3.4-.5 0-.9-.1-1.3-.4-.3-.3-.5-.7-.5-1.1 0-.3.1-.6.2-.8.2-.2.4-.4.7-.5-.2-.1-.4-.3-.6-.5-.1-.2-.2-.5-.2-.7 0-.5.1-.8.4-1.1.3-.3.7-.4 1.2-.4s.9.1 1.2.4c.4.3.5.6.5 1.1zm-.5 2.5c0-.3-.1-.6-.3-.7-.2-.2-.4-.3-.8-.3-.3 0-.6.1-.8.3-.2.2-.3.4-.3.7 0 .3.1.6.3.7.2.2.4.3.8.3.3 0 .6-.1.8-.3.2-.1.3-.4.3-.7zm-1.1-3.5c-.3 0-.5.1-.7.3-.2.2-.3.4-.3.7 0 .3.1.5.2.7.2.2.4.3.7.3.3 0 .5-.1.7-.3.2-.2.3-.4.3-.7s-.1-.5-.3-.7c-.1-.2-.3-.3-.6-.3zM97.2 119.5h-3.6v-.5l1.9-2.1c.3-.3.5-.6.6-.8.1-.2.2-.4.2-.6 0-.3-.1-.5-.3-.7-.2-.2-.4-.3-.7-.3-.3 0-.6.1-.8.3-.2.2-.3.5-.3.8h-.7c0-.5.2-.9.5-1.2.3-.3.8-.5 1.3-.5s.9.1 1.2.4c.3.3.4.6.4 1.1 0 .5-.3 1.2-1 1.9l-1.5 1.6h2.7v.6zM103.2 117h-2.4v1.9h2.7v.6H100V114h3.4v.6h-2.7v1.8h2.4v.6zM108.4 114.6h-1.8v4.9h-.7v-4.9h-1.7v-.6h4.2v.6zM113.4 119.5h-.7V117h-2.8v2.5h-.7V114h.7v2.3h2.8V114h.7v5.5z"/><path d="M78 440.5c-.7 0-1.3.6-1.3 1.3s.6 1.3 1.3 1.3h65.9c.7 0 1.3-.6 1.3-1.3s-.6-1.3-1.3-1.3H78z"/><path class="st22" d="M18.7 406.4c0-6.5 5.3-11.8 11.8-11.8l160.1-.2c6.5 0 11.8 5.3 11.8 11.8v.2c0 6.5-5.3 11.8-11.8 11.8l-160.1.2c-6.5 0-11.8-5.3-11.8-11.8v-.2z"/><path class="st4" d="M90.1 403.1v6.1h4.6v-1.1h-3.3v-1.5h3v-1h-3v-1.3h3.2v-1.1l-4.5-.1zM96.9 406.8l-1.6 2.3h1.4l.9-1.4.9 1.4h1.4l-1.6-2.4 1.5-2.1h-1.3l-.8 1.2-.8-1.2h-1.4l1.4 2.2zM103.7 406.3h1.2c0-.3-.1-.5-.2-.7-.1-.2-.3-.4-.5-.5-.2-.1-.4-.2-.7-.3-.2-.1-.5-.1-.8-.1-.4 0-.7.1-1 .2-.3.1-.5.3-.7.5-.2.2-.3.5-.4.8-.1.3-.1.6-.1 1 0 .3.1.6.2.9.1.3.3.5.5.7.2.2.4.4.7.5.3.1.6.2.9.2.6 0 1.1-.2 1.4-.5.4-.3.6-.8.7-1.4h-1.2c0 .3-.1.5-.3.7-.2.2-.4.2-.7.2-.2 0-.3 0-.5-.1l-.3-.3c-.1-.1-.1-.3-.2-.5 0-.2-.1-.3-.1-.5s0-.3.1-.5c0-.2.1-.3.2-.5.1-.1.2-.3.3-.3.1-.1.3-.1.5-.1.6-.2.9.1 1 .6zM105.8 403v6.1h1.2v-2.3c0-.5.1-.8.2-1 .1-.2.4-.3.7-.3.3 0 .5.1.6.3.1.2.2.4.2.8v2.5h1.2v-2.7c0-.3 0-.5-.1-.7 0-.2-.1-.4-.2-.6-.1-.2-.3-.3-.5-.4-.2-.1-.5-.1-.8-.1-.2 0-.5.1-.7.2-.2.1-.4.3-.6.6v-2.3l-1.2-.1zM111.1 406.1c0-.3.1-.5.2-.7.1-.2.3-.3.5-.5.2-.1.4-.2.7-.2.2-.1.5-.1.7-.1.2 0 .4 0 .7.1.2 0 .4.1.6.2.2.1.3.2.5.4.1.2.2.4.2.6v2.9c0 .2.1.3.1.4h-1.2c0-.1 0-.1-.1-.2v-.2c-.2.2-.4.3-.7.4-.3.1-.5.1-.8.1-.2 0-.4 0-.6-.1-.2-.1-.3-.1-.5-.2-.1-.1-.2-.2-.3-.4-.1-.2-.1-.4-.1-.6 0-.3 0-.5.1-.6.1-.2.2-.3.3-.4.1-.1.3-.2.5-.2.2-.1.4-.1.5-.1s.4-.1.5-.1c.2 0 .3 0 .5-.1.1 0 .2-.1.3-.1.1-.1.1-.2.1-.3 0-.1 0-.2-.1-.3 0-.1-.1-.1-.2-.2-.1 0-.2-.1-.2-.1h-.3c-.2 0-.4.1-.6.2-.1.1-.2.3-.2.5l-1.1-.1zm2.8.9c-.1 0-.1.1-.2.1s-.2 0-.2.1h-.6c-.1 0-.2 0-.3.1-.1 0-.2.1-.2.1-.1 0-.1.1-.2.2 0 .1-.1.2-.1.3 0 .1 0 .2.1.3 0 .1.1.1.2.2.1 0 .1.1.2.1h.3c.2 0 .4 0 .6-.1l.3-.3c.1-.1.1-.2.1-.3v-.8zM116.4 404.7v4.4h1.2v-2.3c0-.5.1-.8.2-1 .1-.2.4-.3.7-.3.3 0 .5.1.6.3.1.2.2.4.2.8v2.5h1.2v-2.7c0-.3 0-.5-.1-.7 0-.2-.1-.4-.2-.6-.1-.2-.3-.3-.5-.4-.2-.1-.5-.1-.8-.1-.3 0-.5.1-.8.2-.2.1-.4.3-.6.6v-.6l-1.1-.1zM123.8 408.1c-.2 0-.3 0-.5-.1l-.3-.3c-.1-.1-.1-.3-.2-.4v-.5c0-.2 0-.3.1-.5 0-.2.1-.3.2-.4l.3-.3c.1-.1.3-.1.4-.1.2 0 .4 0 .5.1l.3.3c.1.1.1.3.2.4 0 .2.1.3.1.5s0 .3-.1.5c0 .1-.1.3-.2.4l-.3.3c-.1.1-.3.1-.5.1zm2.2.8v-4.2h-1.2v.6c-.1-.3-.3-.4-.6-.5-.2-.1-.5-.2-.8-.2-.3 0-.6.1-.8.2-.2.1-.4.3-.6.5-.2.2-.3.4-.4.7-.1.3-.1.5-.1.8 0 .3 0 .6.1.9.1.3.2.5.3.7.2.2.4.4.6.5.2.1.5.2.9.2.3 0 .5-.1.8-.2.2-.1.4-.3.6-.5v.6c0 .3-.1.6-.2.8-.2.2-.4.3-.7.3-.2 0-.4 0-.6-.1-.2-.1-.3-.2-.3-.5h-1.2c0 .3.1.5.2.6.1.2.3.3.5.4.2.1.4.2.6.2.2.1.5.1.7.1.5 0 .9-.1 1.2-.2.3-.1.5-.3.7-.5.2-.2.3-.4.3-.6v-.6zM130.2 406.4h-2c0-.1 0-.2.1-.3 0-.1.1-.2.2-.3.1-.1.2-.2.3-.2.1-.1.3-.1.5-.1.3 0 .5.1.7.2 0 .2.1.4.2.7zm-2 .8h3.2c0-.3 0-.7-.1-1-.1-.3-.2-.6-.4-.8-.2-.2-.4-.4-.7-.6-.3-.1-.6-.2-1-.2-.3 0-.6.1-.9.2-.3.1-.5.3-.7.5-.2.2-.4.5-.5.7-.1.3-.2.6-.2.9 0 .3.1.7.2.9.1.3.3.5.5.7.2.2.4.4.7.5.3.1.6.2.9.2.5 0 .9-.1 1.3-.3.4-.2.6-.6.8-1.1h-1.1c0 .1-.1.3-.3.4-.2.1-.4.2-.6.2-.3 0-.6-.1-.8-.3-.2-.2-.3-.5-.3-.9z"/><path class="st26" d="M32.1 95V82.3h.5V95h-.5zM195.8 86.1c-.2-.2-.6-.2-.8 0l-1.8 1.8-1.8-1.8c-.2-.2-.6-.2-.8 0-.2.2-.2.6 0 .8l2.2 2.2c.2.2.6.2.8 0l2.2-2.2c.2-.2.2-.6 0-.8zM195.9 147.2c-.2-.2-.6-.2-.8 0l-1.8 1.8-1.8-1.8c-.2-.2-.6-.2-.8 0-.2.2-.2.6 0 .8l2.2 2.2c.2.2.6.2.8 0l2.2-2.2c.2-.3.2-.6 0-.8z"/><path class="st27" d="M105.3 193v1.9h-.6V190h1.8c.5 0 .9.1 1.2.4.3.3.5.6.5 1.1 0 .5-.1.8-.4 1.1-.3.3-.7.4-1.3.4h-1.2zm0-.5h1.2c.3 0 .6-.1.8-.2.2-.2.3-.4.3-.7 0-.3-.1-.5-.3-.7-.2-.2-.4-.3-.8-.3h-1.2v1.9zM109.6 194.9h-.6v-3.6h.6v3.6zm-.7-4.5c0-.1 0-.2.1-.3.1-.1.2-.1.3-.1.1 0 .2 0 .3.1.1.1.1.2.1.3 0 .1 0 .2-.1.2-.1.1-.2.1-.3.1-.1 0-.2 0-.3-.1-.1 0-.1-.1-.1-.2zM112.1 194.5c.2 0 .4-.1.6-.2.2-.1.3-.3.3-.5h.6c0 .2-.1.4-.2.6-.1.2-.3.3-.5.4-.2.1-.5.2-.7.2-.5 0-.9-.2-1.2-.5-.3-.3-.4-.8-.4-1.3v-.1c0-.4.1-.7.2-.9s.3-.5.6-.6c.2-.2.5-.2.9-.2s.7.1 1 .4c.3.2.4.6.4.9h-.6c0-.2-.1-.4-.3-.6-.2-.2-.4-.2-.6-.2-.3 0-.6.1-.7.3-.2.2-.3.6-.3 1v.1c0 .4.1.7.3 1 0 .1.2.2.6.2zM115.2 193.3l-.4.4v1.3h-.6v-5.1h.6v3.1l.3-.4 1.1-1.2h.8l-1.4 1.5 1.6 2.1h-.7l-1.3-1.7zM121.2 191.9h-.3c-.4 0-.7.2-.8.5v2.6h-.6v-3.6h.6v.4c.2-.3.5-.5.9-.5h.3v.6zM123.3 195c-.5 0-.9-.2-1.2-.5-.3-.3-.5-.8-.5-1.3v-.1c0-.4.1-.7.2-1 .1-.3.3-.5.6-.7.2-.2.5-.2.8-.2.5 0 .8.2 1.1.5.3.3.4.8.4 1.3v.3h-2.4c0 .4.1.6.3.9.2.2.5.3.8.3.2 0 .4 0 .6-.1.2-.1.3-.2.4-.4l.4.3c-.5.5-.9.7-1.5.7zm-.1-3.2c-.2 0-.5.1-.6.3-.2.2-.3.4-.3.8h1.8c0-.3-.1-.6-.3-.7-.2-.3-.4-.4-.6-.4zM126.9 194.5c.2 0 .4-.1.6-.2.2-.1.3-.3.3-.5h.6c0 .2-.1.4-.2.6-.1.2-.3.3-.5.4-.2.1-.4.2-.7.2-.5 0-.9-.2-1.2-.5-.3-.3-.4-.8-.4-1.3v-.1c0-.4.1-.7.2-.9.1-.3.3-.5.6-.6.2-.2.5-.2.9-.2s.7.1 1 .4c.3.2.4.6.4.9h-.6c0-.2-.1-.4-.3-.6-.2-.2-.4-.2-.6-.2-.3 0-.6.1-.7.3-.2.2-.3.6-.3 1v.1c0 .4.1.7.3 1 0 .1.3.2.6.2zM130.6 195c-.5 0-.9-.2-1.2-.5-.3-.3-.5-.8-.5-1.3v-.1c0-.4.1-.7.2-1 .1-.3.3-.5.6-.7.2-.2.5-.2.8-.2.5 0 .8.2 1.1.5.3.3.4.8.4 1.3v.3h-2.4c0 .4.1.6.3.9.2.2.5.3.8.3.2 0 .4 0 .6-.1.2-.1.3-.2.4-.4l.4.3c-.5.5-.9.7-1.5.7zm-.1-3.2c-.2 0-.5.1-.6.3-.2.2-.3.4-.3.8h1.8c0-.3-.1-.6-.3-.7-.2-.3-.4-.4-.6-.4zM133.3 191.3v.5c.3-.3.6-.5 1.1-.5.8 0 1.1.4 1.2 1.3v2.4h-.6v-2.4c0-.3-.1-.5-.2-.6-.1-.1-.3-.2-.5-.2s-.4.1-.5.2c-.2.1-.3.2-.4.4v2.6h-.6v-3.6h.5zM137.4 190.5v.9h.7v.5h-.7v2.2c0 .1 0 .3.1.3.1.1.2.1.3.1h.3v.5c-.2 0-.3.1-.5.1-.3 0-.5-.1-.6-.2-.1-.2-.2-.4-.2-.7V192h-.7v-.5h.7v-.9h.6z"/></svg>