<svg width="372" height="641" viewBox="0 0 372 641" fill="none" xmlns="http://www.w3.org/2000/svg">
<rect x="6.5" y="6.5" width="359" height="628" rx="36.5" fill="#35354C" stroke="#2B2B36" stroke-width="13"/>
<g clip-path="url(#clip0)">
<rect x="9" y="106" width="354" height="488" fill="#F5F5F8"/>
<g opacity="0.1">
<path d="M305.73 470.779V454.964C305.73 454.54 305.383 454.193 304.958 454.193H286.02C285.788 454.193 285.557 454.309 285.403 454.501L279.424 462.409C279.231 462.679 279.231 463.064 279.424 463.334L285.364 471.241C285.518 471.434 285.75 471.55 285.981 471.55H304.92C305.383 471.55 305.73 471.203 305.73 470.779V470.779Z" stroke="#2B2B37" stroke-width="2" stroke-linecap="round" stroke-linejoin="round"/>
<path d="M294.172 460.172L299.829 465.829" stroke="#2B2B37" stroke-width="2" stroke-linecap="round" stroke-linejoin="round"/>
<path d="M294.172 465.829L299.828 460.172" stroke="#2B2B37" stroke-width="2" stroke-linecap="round" stroke-linejoin="round"/>
</g>
<path d="M72.4824 316.107V314.625C73.8789 314.489 74.8529 314.263 75.4043 313.948C75.9557 313.626 76.3675 312.87 76.6396 311.682H78.165V327H76.1025V316.107H72.4824Z" fill="#2B2B37"/>
<path d="M77.6494 369.554V362.582L72.7188 369.554H77.6494ZM77.6816 375V371.24H70.9355V369.35L77.9824 359.574H79.6152V369.554H81.8818V371.24H79.6152V375H77.6816Z" fill="#2B2B37"/>
<path d="M81.8818 407.875V409.562C81.3877 410.041 80.7288 410.876 79.9053 412.064C79.0889 413.253 78.3656 414.535 77.7354 415.91C77.1123 417.249 76.6396 418.47 76.3174 419.573C76.1097 420.282 75.8411 421.424 75.5117 423H73.374C73.861 420.064 74.9352 417.142 76.5967 414.234C77.5778 412.53 78.609 411.058 79.6904 409.819H71.1826V407.875H81.8818Z" fill="#2B2B37"/>
<path d="M75.3184 468.658H77.5635V471H75.3184V468.658Z" fill="#2B2B37"/>
<path d="M180.064 327C180.136 325.675 180.408 324.522 180.881 323.541C181.361 322.56 182.292 321.668 183.674 320.866L185.736 319.674C186.66 319.137 187.308 318.678 187.681 318.299C188.268 317.704 188.562 317.024 188.562 316.258C188.562 315.363 188.293 314.654 187.756 314.131C187.219 313.601 186.503 313.336 185.607 313.336C184.283 313.336 183.366 313.837 182.857 314.84C182.585 315.377 182.435 316.122 182.406 317.074H180.44C180.462 315.735 180.709 314.643 181.182 313.798C182.02 312.308 183.498 311.563 185.618 311.563C187.38 311.563 188.665 312.04 189.475 312.992C190.291 313.945 190.699 315.005 190.699 316.172C190.699 317.404 190.266 318.456 189.399 319.33C188.898 319.839 187.999 320.454 186.703 321.178L185.231 321.994C184.53 322.381 183.978 322.75 183.577 323.101C182.861 323.724 182.41 324.415 182.224 325.174H190.624V327H180.064Z" fill="#2B2B37"/>
<path d="M182.095 371.079C182.224 372.182 182.736 372.945 183.631 373.367C184.089 373.582 184.619 373.689 185.221 373.689C186.367 373.689 187.215 373.324 187.767 372.594C188.318 371.863 188.594 371.054 188.594 370.166C188.594 369.092 188.264 368.261 187.605 367.674C186.954 367.087 186.17 366.793 185.253 366.793C184.587 366.793 184.014 366.922 183.534 367.18C183.062 367.438 182.657 367.796 182.32 368.254L180.645 368.157L181.815 359.875H189.808V361.744H183.266L182.61 366.02C182.968 365.747 183.309 365.543 183.631 365.407C184.204 365.171 184.866 365.053 185.618 365.053C187.029 365.053 188.225 365.507 189.206 366.417C190.187 367.326 190.678 368.479 190.678 369.876C190.678 371.33 190.227 372.612 189.324 373.722C188.429 374.832 186.997 375.387 185.027 375.387C183.774 375.387 182.664 375.036 181.697 374.334C180.738 373.625 180.201 372.54 180.086 371.079H182.095Z" fill="#2B2B37"/>
<path d="M185.36 414.062C186.213 414.062 186.879 413.826 187.358 413.354C187.838 412.874 188.078 412.304 188.078 411.646C188.078 411.073 187.849 410.546 187.391 410.066C186.932 409.587 186.234 409.347 185.296 409.347C184.365 409.347 183.692 409.587 183.276 410.066C182.861 410.546 182.653 411.108 182.653 411.753C182.653 412.476 182.922 413.042 183.459 413.45C183.996 413.858 184.63 414.062 185.36 414.062ZM185.479 421.679C186.374 421.679 187.115 421.439 187.702 420.959C188.297 420.472 188.594 419.749 188.594 418.789C188.594 417.794 188.289 417.038 187.681 416.522C187.072 416.007 186.291 415.749 185.339 415.749C184.415 415.749 183.66 416.014 183.072 416.544C182.492 417.067 182.202 417.794 182.202 418.725C182.202 419.527 182.467 420.221 182.997 420.809C183.534 421.389 184.361 421.679 185.479 421.679ZM182.729 414.804C182.191 414.575 181.772 414.306 181.472 413.998C180.906 413.425 180.623 412.68 180.623 411.764C180.623 410.618 181.038 409.633 181.869 408.81C182.7 407.986 183.878 407.574 185.403 407.574C186.879 407.574 188.035 407.965 188.873 408.745C189.711 409.519 190.13 410.424 190.13 411.463C190.13 412.423 189.886 413.2 189.399 413.794C189.127 414.131 188.705 414.46 188.132 414.782C188.769 415.076 189.271 415.412 189.636 415.792C190.316 416.508 190.656 417.439 190.656 418.585C190.656 419.938 190.201 421.088 189.292 422.033C188.382 422.971 187.097 423.44 185.436 423.44C183.939 423.44 182.671 423.036 181.633 422.227C180.602 421.41 180.086 420.229 180.086 418.682C180.086 417.772 180.308 416.988 180.752 416.329C181.196 415.663 181.855 415.155 182.729 414.804Z" fill="#2B2B37"/>
<path d="M185.328 455.617C187.319 455.617 188.758 456.437 189.646 458.077C190.334 459.345 190.678 461.081 190.678 463.287C190.678 465.378 190.366 467.108 189.743 468.476C188.841 470.438 187.366 471.419 185.317 471.419C183.47 471.419 182.095 470.617 181.192 469.013C180.44 467.674 180.064 465.876 180.064 463.62C180.064 461.873 180.29 460.372 180.741 459.119C181.586 456.785 183.115 455.617 185.328 455.617ZM185.307 469.657C186.309 469.657 187.108 469.213 187.702 468.325C188.297 467.437 188.594 465.783 188.594 463.362C188.594 461.615 188.379 460.179 187.949 459.055C187.52 457.923 186.685 457.357 185.446 457.357C184.308 457.357 183.473 457.895 182.943 458.969C182.421 460.036 182.159 461.611 182.159 463.695C182.159 465.264 182.327 466.524 182.664 467.477C183.18 468.93 184.061 469.657 185.307 469.657Z" fill="#2B2B37"/>
<path d="M294.092 327.419C292.273 327.419 290.951 326.921 290.128 325.926C289.312 324.923 288.903 323.706 288.903 322.273H290.923C291.009 323.269 291.195 323.992 291.481 324.443C291.983 325.253 292.889 325.657 294.199 325.657C295.216 325.657 296.033 325.385 296.648 324.841C297.264 324.297 297.572 323.595 297.572 322.735C297.572 321.675 297.246 320.934 296.595 320.512C295.95 320.089 295.051 319.878 293.898 319.878C293.77 319.878 293.637 319.882 293.501 319.889C293.372 319.889 293.24 319.892 293.104 319.899V318.191C293.304 318.213 293.472 318.227 293.608 318.234C293.744 318.242 293.891 318.245 294.049 318.245C294.772 318.245 295.367 318.131 295.832 317.901C296.648 317.5 297.057 316.784 297.057 315.753C297.057 314.987 296.785 314.396 296.24 313.98C295.696 313.565 295.062 313.357 294.339 313.357C293.05 313.357 292.158 313.787 291.664 314.646C291.392 315.119 291.238 315.792 291.202 316.666H289.29C289.29 315.52 289.519 314.546 289.978 313.744C290.765 312.312 292.151 311.596 294.135 311.596C295.703 311.596 296.917 311.947 297.776 312.648C298.636 313.343 299.065 314.353 299.065 315.678C299.065 316.623 298.811 317.389 298.303 317.977C297.988 318.342 297.579 318.628 297.078 318.836C297.887 319.058 298.518 319.488 298.969 320.125C299.427 320.755 299.656 321.529 299.656 322.445C299.656 323.913 299.173 325.109 298.206 326.033C297.239 326.957 295.868 327.419 294.092 327.419Z" fill="#2B2B37"/>
<path d="M294.812 359.553C296.53 359.553 297.726 360 298.399 360.896C299.08 361.784 299.42 362.7 299.42 363.646H297.508C297.393 363.037 297.211 362.561 296.96 362.217C296.494 361.572 295.789 361.25 294.844 361.25C293.762 361.25 292.903 361.751 292.266 362.754C291.628 363.749 291.274 365.178 291.202 367.04C291.646 366.388 292.205 365.901 292.878 365.579C293.494 365.293 294.181 365.149 294.94 365.149C296.229 365.149 297.354 365.561 298.313 366.385C299.273 367.208 299.753 368.437 299.753 370.069C299.753 371.466 299.298 372.705 298.389 373.786C297.479 374.86 296.183 375.397 294.5 375.397C293.061 375.397 291.818 374.853 290.772 373.765C289.727 372.669 289.204 370.828 289.204 368.243C289.204 366.331 289.437 364.709 289.902 363.377C290.798 360.827 292.434 359.553 294.812 359.553ZM294.672 373.679C295.689 373.679 296.448 373.339 296.949 372.658C297.458 371.971 297.712 371.161 297.712 370.23C297.712 369.443 297.486 368.694 297.035 367.985C296.584 367.269 295.764 366.911 294.575 366.911C293.744 366.911 293.014 367.187 292.384 367.738C291.761 368.29 291.449 369.12 291.449 370.23C291.449 371.204 291.732 372.024 292.298 372.69C292.871 373.349 293.662 373.679 294.672 373.679Z" fill="#2B2B37"/>
<path d="M291.299 419.283C291.356 420.35 291.768 421.088 292.534 421.496C292.928 421.711 293.372 421.818 293.866 421.818C294.79 421.818 295.578 421.435 296.229 420.669C296.881 419.896 297.343 418.331 297.615 415.975C297.186 416.655 296.652 417.135 296.015 417.414C295.384 417.686 294.704 417.822 293.974 417.822C292.491 417.822 291.317 417.36 290.45 416.437C289.591 415.513 289.161 414.324 289.161 412.87C289.161 411.474 289.587 410.245 290.439 409.186C291.292 408.126 292.549 407.596 294.21 407.596C296.451 407.596 297.998 408.605 298.851 410.625C299.323 411.735 299.56 413.124 299.56 414.793C299.56 416.676 299.277 418.345 298.711 419.799C297.773 422.219 296.183 423.43 293.941 423.43C292.438 423.43 291.295 423.036 290.515 422.248C289.734 421.46 289.344 420.472 289.344 419.283H291.299ZM294.231 416.125C294.998 416.125 295.696 415.874 296.326 415.373C296.964 414.865 297.282 413.98 297.282 412.72C297.282 411.588 296.996 410.747 296.423 410.195C295.857 409.637 295.134 409.357 294.253 409.357C293.308 409.357 292.556 409.676 291.997 410.313C291.446 410.944 291.17 411.789 291.17 412.849C291.17 413.851 291.413 414.65 291.9 415.244C292.387 415.831 293.164 416.125 294.231 416.125Z" fill="#2B2B37"/>
<rect x="9" y="13" width="360" height="129.813" fill="#35354C"/>
<rect width="347" height="54" transform="translate(12 576)" fill="#F3F3F5"/>
<path d="M221.792 595.897H215.763C212.369 595.891 209.397 598.175 208.53 601.458C207.662 604.741 209.117 608.197 212.071 609.869" stroke="#2B2B37" stroke-width="1.92778" stroke-linecap="round" stroke-linejoin="round"/>
<path d="M217.562 610.849H223.591C226.985 610.856 229.957 608.571 230.825 605.288C231.692 602.005 230.237 598.55 227.283 596.877" stroke="#2B2B37" stroke-width="1.92778" stroke-linecap="round" stroke-linejoin="round"/>
<path d="M220.281 613.591L217.546 610.85L220.281 608.108" stroke="#2B2B37" stroke-width="1.92778" stroke-linecap="round" stroke-linejoin="round"/>
<path d="M219.173 593.156L221.914 595.897L219.173 598.638" stroke="#2B2B37" stroke-width="1.92778" stroke-linecap="round" stroke-linejoin="round"/>
<g opacity="0.2">
<path d="M320.678 597.967V596.75" stroke="#2B2B37" stroke-width="1.92778" stroke-linecap="round" stroke-linejoin="round"/>
<path d="M320.678 609.37V601.846H319.418" stroke="#2B2B37" stroke-width="1.92778" stroke-linecap="round" stroke-linejoin="round"/>
<path fill-rule="evenodd" clip-rule="evenodd" d="M320.678 614.692C326.949 614.692 332.033 609.607 332.033 603.333C332.033 597.059 326.949 591.974 320.678 591.974C314.407 591.974 309.324 597.059 309.324 603.333C309.324 609.607 314.407 614.692 320.678 614.692Z" stroke="#2B2B37" stroke-width="1.92778" stroke-linecap="round" stroke-linejoin="round"/>
<path d="M318.791 609.37H322.576" stroke="#2B2B37" stroke-width="1.92778" stroke-linecap="round" stroke-linejoin="round"/>
</g>
<g opacity="0.2">
<path fill-rule="evenodd" clip-rule="evenodd" d="M50.1941 614.529C56.4454 614.529 61.5132 609.46 61.5132 603.206C61.5132 596.952 56.4454 591.882 50.1941 591.882C43.9427 591.882 38.875 596.952 38.875 603.206C38.875 609.46 43.9427 614.529 50.1941 614.529Z" stroke="#2B2B37" stroke-width="1.92778" stroke-linecap="round" stroke-linejoin="round"/>
<path d="M55.395 606.572L50.1943 603.206V596.167" stroke="#2B2B37" stroke-width="1.92778" stroke-linecap="round" stroke-linejoin="round"/>
</g>
<g opacity="0.2">
<path fill-rule="evenodd" clip-rule="evenodd" d="M145.195 602.121C145.645 601.701 145.811 601.058 145.621 600.472C145.43 599.886 144.918 599.464 144.307 599.388L139.356 598.669C138.834 598.596 138.382 598.267 138.151 597.792L135.937 593.304C135.677 592.744 135.117 592.387 134.5 592.387C133.884 592.387 133.323 592.744 133.063 593.304L130.849 597.792C130.618 598.267 130.167 598.596 129.644 598.669L124.693 599.388C124.082 599.464 123.57 599.886 123.379 600.472C123.189 601.058 123.355 601.701 123.805 602.121L127.388 605.626C127.767 605.992 127.939 606.523 127.847 607.043L127.002 611.969C126.883 612.575 127.126 613.194 127.625 613.557C128.124 613.92 128.788 613.96 129.327 613.661L133.755 611.335C134.221 611.087 134.779 611.087 135.245 611.335L139.673 613.661C140.212 613.96 140.876 613.92 141.375 613.557C141.874 613.194 142.117 612.575 141.998 611.969L141.153 607.037C141.063 606.52 141.235 605.991 141.612 605.626L145.195 602.121Z" stroke="#2B2B37" stroke-width="1.92778" stroke-linecap="round" stroke-linejoin="round"/>
</g>
<g filter="url(#filter0_d)">
<path fill-rule="evenodd" clip-rule="evenodd" d="M27.4221 111.317C27.4221 108.122 30.0114 105.533 33.2055 105.533H337.794C340.988 105.533 343.578 108.122 343.578 111.317V161.439C343.578 164.633 340.988 167.222 337.794 167.222H33.2054C30.0114 167.222 27.4221 164.633 27.4221 161.439V111.317Z" fill="white"/>
</g>
<g clip-path="url(#clip1)">
<circle cx="311.909" cy="136.909" r="7.27273" fill="white"/>
<path d="M302.402 130.857C302.722 130.41 303.019 129.949 303.378 129.531C304.033 128.77 304.774 128.118 305.622 127.579C306.384 127.095 307.187 126.714 308.046 126.447C309.383 126.031 310.749 125.908 312.139 126.067C313.156 126.183 314.135 126.443 315.068 126.864C315.633 127.118 316.164 127.433 316.685 127.773C317.734 128.457 318.574 129.349 319.277 130.367C320.027 131.455 320.515 132.665 320.782 133.963C320.97 134.874 321.049 135.794 320.969 136.72C320.869 137.862 320.616 138.963 320.143 140.021C319.743 140.915 319.249 141.737 318.616 142.479C317.997 143.205 317.299 143.84 316.497 144.364C315.951 144.721 315.382 145.039 314.781 145.275C313.776 145.671 312.733 145.938 311.642 145.985C310.874 146.018 310.11 146.005 309.353 145.87C308.702 145.755 308.067 145.586 307.445 145.352C306.841 145.125 306.256 144.857 305.717 144.517C304.94 144.027 304.239 143.433 303.616 142.748C302.921 141.985 302.358 141.139 301.927 140.205C301.318 138.885 301.018 137.493 301 136.041C300.994 135.495 301.056 134.953 301.129 134.412C301.134 134.374 301.129 134.334 301.129 134.294C301.192 134.255 301.187 134.186 301.198 134.125C301.36 133.276 301.633 132.464 302.002 131.683C302.133 131.406 302.314 131.154 302.402 130.857ZM314.071 136.221C314.342 136.077 314.599 135.994 314.803 135.812C315.586 135.112 315.795 133.463 314.523 132.668C314.127 132.421 313.704 132.237 313.249 132.05C313.324 131.439 313.568 130.868 313.647 130.242C313.271 130.149 312.919 130.025 312.553 129.985C312.403 130.573 312.259 131.137 312.111 131.72C311.83 131.634 311.541 131.642 311.277 131.493C311.372 130.897 311.598 130.338 311.66 129.739C311.274 129.678 310.947 129.528 310.573 129.511C310.425 130.101 310.282 130.671 310.134 131.262C309.391 131.148 308.708 130.892 307.959 130.754C307.794 131.124 307.721 131.513 307.655 131.928C307.899 131.986 308.111 132.037 308.324 132.086C308.861 132.21 309.008 132.504 308.881 132.974C308.79 133.309 308.708 133.646 308.625 133.982C308.325 135.191 308.027 136.4 307.725 137.609C307.657 137.881 307.488 137.97 307.212 137.93C306.94 137.89 306.683 137.768 306.384 137.776C306.254 138.192 305.995 138.559 305.904 139.018C306.618 139.2 307.308 139.376 308.03 139.56C307.976 140.191 307.715 140.768 307.638 141.403C308 141.49 308.34 141.571 308.696 141.657C308.93 141.074 308.984 140.463 309.202 139.86C309.465 139.996 309.757 139.956 310.015 140.127C309.874 140.707 309.734 141.286 309.593 141.871C309.965 142.005 310.328 142.059 310.701 142.152C310.852 141.546 310.998 140.961 311.139 140.395C311.227 140.349 311.292 140.358 311.352 140.371C311.937 140.496 312.528 140.525 313.12 140.459C313.632 140.403 314.087 140.207 314.452 139.822C314.857 139.394 315.061 138.871 315.159 138.307C315.239 137.849 315.218 137.384 314.949 136.978C314.739 136.66 314.449 136.417 314.071 136.221ZM309.845 138.611C310.567 138.79 311.287 138.982 312.041 138.844C312.444 138.771 312.747 138.565 312.869 138.16C312.984 137.778 312.917 137.431 312.634 137.129C312.34 136.814 311.961 136.651 311.571 136.515C311.104 136.352 310.631 136.203 310.121 136.163C309.926 136.958 309.736 137.729 309.543 138.518C309.666 138.556 309.755 138.589 309.845 138.611ZM312.393 135.281C312.792 135.224 313.122 134.96 313.219 134.601C313.338 134.162 313.205 133.778 312.851 133.516C312.448 133.219 311.985 133.068 311.506 132.963C311.327 132.924 311.152 132.82 310.936 132.89C310.764 133.588 310.592 134.289 310.414 135.013C311.096 135.185 311.723 135.376 312.393 135.281Z" fill="#F39321"/>
</g>
<path d="M44.6362 141.121V139.562C46.1047 139.419 47.1288 139.182 47.7086 138.851C48.2885 138.512 48.7215 137.718 49.0076 136.468H50.6116V152.575H48.4428V141.121H44.6362Z" fill="#2B2B37"/>
<path d="M57.5651 150.113H59.9259V152.575H57.5651V150.113Z" fill="#2B2B37"/>
<path d="M64.53 141.121V139.562C65.9984 139.419 67.0225 139.182 67.6024 138.851C68.1822 138.512 68.6152 137.718 68.9014 136.468H70.5054V152.575H68.3366V141.121H64.53Z" fill="#2B2B37"/>
<path d="M76.2051 152.575C76.2804 151.182 76.5666 149.969 77.0636 148.938C77.5681 147.906 78.547 146.969 80.0004 146.125L82.1692 144.871C83.1406 144.307 83.8221 143.825 84.2137 143.426C84.8312 142.801 85.1399 142.085 85.1399 141.279C85.1399 140.338 84.8575 139.593 84.2927 139.043C83.728 138.486 82.9749 138.207 82.0336 138.207C80.6405 138.207 79.6766 138.734 79.1419 139.788C78.8558 140.353 78.6977 141.136 78.6675 142.138H76.6004C76.623 140.73 76.8828 139.581 77.3798 138.693C78.2609 137.126 79.8159 136.343 82.0449 136.343C83.8974 136.343 85.2491 136.844 86.1 137.846C86.9585 138.847 87.3877 139.962 87.3877 141.189C87.3877 142.484 86.9321 143.591 86.021 144.51C85.4938 145.045 84.5488 145.692 83.1858 146.453L81.6383 147.311C80.9003 147.718 80.3204 148.106 79.8988 148.475C79.1457 149.13 78.6713 149.857 78.4755 150.655H87.3086V152.575H76.2051Z" fill="#2B2B37"/>
<path d="M91.5061 148.452C91.6416 149.612 92.18 150.414 93.1213 150.858C93.6033 151.084 94.1605 151.197 94.7931 151.197C95.998 151.197 96.8903 150.813 97.4701 150.045C98.05 149.277 98.3399 148.426 98.3399 147.492C98.3399 146.362 97.9935 145.489 97.3007 144.871C96.6154 144.254 95.7909 143.945 94.827 143.945C94.1267 143.945 93.5242 144.081 93.0197 144.352C92.5227 144.623 92.0972 144.999 91.7433 145.481L89.9812 145.38L91.2124 136.671H99.6163V138.636H92.7373L92.0483 143.132C92.4248 142.846 92.7825 142.631 93.1213 142.488C93.7238 142.24 94.4203 142.115 95.211 142.115C96.6945 142.115 97.9521 142.593 98.9837 143.55C100.015 144.506 100.531 145.719 100.531 147.187C100.531 148.716 100.057 150.064 99.108 151.231C98.1667 152.398 96.6606 152.982 94.5898 152.982C93.272 152.982 92.1047 152.613 91.0881 151.875C90.0791 151.129 89.5143 149.988 89.3938 148.452H91.5061Z" fill="#2B2B37"/>
<path d="M109.462 146.848V139.517L104.277 146.848H109.462ZM109.495 152.575V148.622H102.402V146.634L109.812 136.355H111.529V146.848H113.912V148.622H111.529V152.575H109.495Z" fill="#2B2B37"/>
<path d="M118.053 148.667C118.113 149.789 118.546 150.564 119.352 150.994C119.766 151.22 120.233 151.332 120.753 151.332C121.724 151.332 122.552 150.93 123.238 150.124C123.923 149.311 124.409 147.665 124.695 145.188C124.243 145.903 123.682 146.408 123.012 146.701C122.349 146.987 121.634 147.131 120.866 147.131C119.307 147.131 118.072 146.645 117.161 145.673C116.257 144.702 115.805 143.452 115.805 141.923C115.805 140.455 116.253 139.163 117.149 138.049C118.045 136.934 119.367 136.377 121.114 136.377C123.471 136.377 125.098 137.439 125.994 139.562C126.491 140.73 126.739 142.191 126.739 143.945C126.739 145.926 126.442 147.68 125.847 149.209C124.86 151.754 123.189 153.027 120.832 153.027C119.25 153.027 118.049 152.613 117.228 151.784C116.408 150.956 115.997 149.917 115.997 148.667H118.053ZM121.137 145.346C121.942 145.346 122.677 145.082 123.339 144.555C124.009 144.02 124.345 143.09 124.345 141.765C124.345 140.575 124.043 139.691 123.441 139.111C122.846 138.523 122.085 138.23 121.159 138.23C120.165 138.23 119.375 138.565 118.787 139.235C118.207 139.898 117.917 140.786 117.917 141.901C117.917 142.955 118.173 143.795 118.685 144.42C119.198 145.037 120.015 145.346 121.137 145.346Z" fill="#2B2B37"/>
<path d="M42.6594 115.414H43.9697L46.3531 119.402L48.7364 115.414H50.0524L46.9179 120.368V123.711H45.7939V120.368L42.6594 115.414Z" fill="#CECED3"/>
<path d="M52.4139 123.056C53.0879 123.056 53.5491 122.802 53.7976 122.293C54.0499 121.781 54.176 121.213 54.176 120.588C54.176 120.023 54.0856 119.564 53.9049 119.21C53.6188 118.653 53.1255 118.374 52.4252 118.374C51.8039 118.374 51.3521 118.611 51.0697 119.086C50.7873 119.56 50.6461 120.132 50.6461 120.802C50.6461 121.446 50.7873 121.983 51.0697 122.412C51.3521 122.841 51.8002 123.056 52.4139 123.056ZM52.4534 117.487C53.2328 117.487 53.8917 117.747 54.4302 118.267C54.9686 118.786 55.2378 119.551 55.2378 120.56C55.2378 121.535 55.0006 122.341 54.5262 122.977C54.0518 123.613 53.3157 123.931 52.3179 123.931C51.4858 123.931 50.825 123.651 50.3355 123.09C49.846 122.525 49.6013 121.768 49.6013 120.819C49.6013 119.803 49.8592 118.993 50.3751 118.391C50.8909 117.788 51.5837 117.487 52.4534 117.487Z" fill="#CECED3"/>
<path d="M57.6615 117.662V121.678C57.6615 121.987 57.7104 122.239 57.8083 122.435C57.989 122.796 58.326 122.977 58.8192 122.977C59.5271 122.977 60.009 122.661 60.2651 122.028C60.4044 121.689 60.474 121.224 60.474 120.633V117.662H61.4906V123.711H60.5305L60.5418 122.819C60.41 123.048 60.2463 123.242 60.0505 123.4C59.6626 123.717 59.192 123.875 58.6385 123.875C57.7763 123.875 57.1889 123.587 56.8764 123.011C56.707 122.702 56.6223 122.29 56.6223 121.774V117.662H57.6615Z" fill="#CECED3"/>
<path d="M67.2924 121.813C67.3226 122.152 67.4073 122.412 67.5466 122.593C67.8026 122.92 68.2469 123.084 68.8795 123.084C69.256 123.084 69.5873 123.003 69.8735 122.841C70.1596 122.676 70.3027 122.421 70.3027 122.079C70.3027 121.819 70.1879 121.621 69.9582 121.486C69.8113 121.403 69.5214 121.307 69.0884 121.198L68.2808 120.994C67.765 120.866 67.3847 120.723 67.1399 120.565C66.7032 120.29 66.4848 119.91 66.4848 119.424C66.4848 118.852 66.69 118.389 67.1004 118.035C67.5146 117.681 68.0699 117.504 68.7665 117.504C69.6777 117.504 70.3347 117.771 70.7376 118.306C70.9899 118.645 71.1122 119.01 71.1047 119.402H70.1446C70.1257 119.172 70.0448 118.963 69.9017 118.775C69.6683 118.508 69.2635 118.374 68.6874 118.374C68.3034 118.374 68.0116 118.447 67.812 118.594C67.6162 118.741 67.5183 118.935 67.5183 119.176C67.5183 119.439 67.6482 119.65 67.908 119.808C68.0586 119.903 68.2808 119.985 68.5745 120.057L69.2466 120.221C69.977 120.398 70.4665 120.569 70.715 120.735C71.1103 120.994 71.308 121.403 71.308 121.96C71.308 122.499 71.1028 122.964 70.6924 123.355C70.2858 123.747 69.6645 123.943 68.8286 123.943C67.9287 123.943 67.2905 123.739 66.914 123.333C66.5413 122.922 66.3417 122.416 66.3154 121.813H67.2924Z" fill="#CECED3"/>
<path d="M75.1831 117.527C75.6124 117.527 76.0284 117.628 76.4313 117.832C76.8342 118.031 77.141 118.291 77.3519 118.611C77.5552 118.916 77.6908 119.272 77.7585 119.679C77.8188 119.957 77.8489 120.401 77.8489 121.011H73.4154C73.4342 121.625 73.5792 122.118 73.8503 122.491C74.1214 122.86 74.5412 123.045 75.1097 123.045C75.6406 123.045 76.0642 122.87 76.3805 122.519C76.5612 122.316 76.6892 122.081 76.7645 121.813H77.7642C77.7378 122.036 77.6493 122.284 77.4987 122.559C77.3519 122.83 77.1862 123.052 77.0017 123.225C76.693 123.527 76.3108 123.73 75.8552 123.835C75.6105 123.896 75.3338 123.926 75.025 123.926C74.272 123.926 73.6338 123.653 73.1104 123.107C72.587 122.557 72.3254 121.789 72.3254 120.802C72.3254 119.831 72.5889 119.042 73.1161 118.436C73.6432 117.83 74.3322 117.527 75.1831 117.527ZM76.8041 120.204C76.7626 119.763 76.6666 119.411 76.516 119.148C76.2374 118.658 75.7724 118.413 75.121 118.413C74.6541 118.413 74.2626 118.583 73.9463 118.922C73.63 119.257 73.4625 119.684 73.4436 120.204H76.8041Z" fill="#CECED3"/>
<path d="M79.2955 117.662H80.2613V118.521C80.5474 118.167 80.8505 117.913 81.1706 117.758C81.4906 117.604 81.8464 117.527 82.238 117.527C83.0964 117.527 83.6763 117.826 83.9775 118.425C84.1432 118.752 84.226 119.221 84.226 119.831V123.711H83.1925V119.899C83.1925 119.53 83.1379 119.232 83.0287 119.006C82.8479 118.63 82.5204 118.442 82.046 118.442C81.805 118.442 81.6073 118.466 81.4529 118.515C81.1743 118.598 80.9296 118.764 80.7187 119.012C80.5493 119.212 80.4382 119.419 80.3855 119.633C80.3366 119.844 80.3121 120.147 80.3121 120.543V123.711H79.2955V117.662Z" fill="#CECED3"/>
<path d="M86.5706 120.757C86.5706 121.405 86.708 121.947 86.9829 122.384C87.2577 122.821 87.6983 123.039 88.3045 123.039C88.7751 123.039 89.161 122.838 89.4623 122.435C89.7672 122.028 89.9197 121.446 89.9197 120.69C89.9197 119.925 89.7635 119.36 89.451 118.995C89.1384 118.626 88.7525 118.442 88.2932 118.442C87.7811 118.442 87.365 118.637 87.045 119.029C86.7287 119.421 86.5706 119.997 86.5706 120.757ZM88.1011 117.555C88.5643 117.555 88.9521 117.653 89.2646 117.849C89.4453 117.962 89.6505 118.159 89.8802 118.442V115.386H90.8573V123.711H89.9423V122.87C89.7051 123.242 89.4246 123.512 89.1008 123.677C88.777 123.843 88.4061 123.926 87.9882 123.926C87.3142 123.926 86.7306 123.643 86.2374 123.079C85.7441 122.51 85.4975 121.755 85.4975 120.814C85.4975 119.933 85.7215 119.17 86.1696 118.526C86.6214 117.879 87.2653 117.555 88.1011 117.555Z" fill="#CECED3"/>
<path d="M99.2231 118.922C99.6976 118.922 100.067 118.856 100.33 118.724C100.744 118.517 100.951 118.144 100.951 117.606C100.951 117.064 100.731 116.698 100.291 116.51C100.042 116.405 99.6731 116.352 99.1836 116.352H97.1786V118.922H99.2231ZM99.6015 122.751C100.291 122.751 100.782 122.551 101.076 122.152C101.26 121.9 101.352 121.595 101.352 121.237C101.352 120.635 101.083 120.225 100.545 120.006C100.259 119.889 99.8802 119.831 99.4095 119.831H97.1786V122.751H99.6015ZM96.0773 115.414H99.6411C100.612 115.414 101.303 115.704 101.714 116.284C101.955 116.627 102.075 117.022 102.075 117.47C102.075 117.994 101.927 118.423 101.629 118.758C101.475 118.935 101.253 119.097 100.963 119.244C101.388 119.406 101.706 119.588 101.917 119.792C102.29 120.153 102.476 120.652 102.476 121.288C102.476 121.823 102.309 122.307 101.974 122.74C101.473 123.387 100.676 123.711 99.5846 123.711H96.0773V115.414Z" fill="#CECED3"/>
<path d="M103.878 117.691H104.911V123.711H103.878V117.691ZM103.878 115.414H104.911V116.567H103.878V115.414Z" fill="#CECED3"/>
<path d="M106.849 115.974H107.877V117.662H108.843V118.493H107.877V122.44C107.877 122.651 107.949 122.792 108.092 122.864C108.171 122.905 108.303 122.926 108.487 122.926C108.536 122.926 108.589 122.926 108.645 122.926C108.702 122.922 108.768 122.917 108.843 122.909V123.711C108.726 123.745 108.604 123.769 108.476 123.784C108.351 123.8 108.216 123.807 108.069 123.807C107.595 123.807 107.273 123.687 107.103 123.446C106.934 123.201 106.849 122.885 106.849 122.497V118.493H106.03V117.662H106.849V115.974Z" fill="#CECED3"/>
<path d="M112.39 117.487C113.072 117.487 113.625 117.653 114.051 117.984C114.48 118.316 114.738 118.886 114.825 119.695H113.836C113.776 119.323 113.639 119.014 113.424 118.769C113.209 118.521 112.865 118.397 112.39 118.397C111.743 118.397 111.28 118.713 111.001 119.345C110.82 119.756 110.73 120.262 110.73 120.865C110.73 121.471 110.858 121.981 111.114 122.395C111.37 122.809 111.773 123.016 112.323 123.016C112.744 123.016 113.078 122.888 113.322 122.632C113.571 122.373 113.742 122.019 113.836 121.571H114.825C114.712 122.373 114.429 122.96 113.977 123.333C113.526 123.702 112.948 123.886 112.244 123.886C111.453 123.886 110.822 123.598 110.352 123.022C109.881 122.442 109.646 121.719 109.646 120.853C109.646 119.792 109.903 118.965 110.419 118.374C110.935 117.783 111.592 117.487 112.39 117.487Z" fill="#CECED3"/>
<path d="M118.434 123.056C119.108 123.056 119.569 122.802 119.818 122.293C120.07 121.781 120.196 121.213 120.196 120.588C120.196 120.023 120.106 119.564 119.925 119.21C119.639 118.653 119.146 118.374 118.446 118.374C117.824 118.374 117.372 118.611 117.09 119.086C116.808 119.56 116.667 120.132 116.667 120.802C116.667 121.446 116.808 121.983 117.09 122.412C117.372 122.841 117.821 123.056 118.434 123.056ZM118.474 117.487C119.253 117.487 119.912 117.747 120.451 118.267C120.989 118.786 121.258 119.551 121.258 120.56C121.258 121.535 121.021 122.341 120.547 122.977C120.072 123.613 119.336 123.931 118.338 123.931C117.506 123.931 116.845 123.651 116.356 123.09C115.866 122.525 115.622 121.768 115.622 120.819C115.622 119.803 115.88 118.993 116.395 118.391C116.911 117.788 117.604 117.487 118.474 117.487Z" fill="#CECED3"/>
<path d="M122.665 117.691H123.699V123.711H122.665V117.691ZM122.665 115.414H123.699V116.567H122.665V115.414Z" fill="#CECED3"/>
<path d="M125.433 117.662H126.399V118.521C126.685 118.167 126.988 117.913 127.308 117.758C127.628 117.604 127.984 117.527 128.376 117.527C129.234 117.527 129.814 117.826 130.115 118.425C130.281 118.752 130.364 119.221 130.364 119.831V123.711H129.33V119.899C129.33 119.53 129.276 119.232 129.167 119.006C128.986 118.63 128.658 118.442 128.184 118.442C127.943 118.442 127.745 118.466 127.591 118.515C127.312 118.598 127.067 118.764 126.857 119.012C126.687 119.212 126.576 119.419 126.523 119.633C126.474 119.844 126.45 120.147 126.45 120.543V123.711H125.433V117.662Z" fill="#CECED3"/>
<path d="M261.447 134.695C262.198 134.695 262.782 134.59 263.199 134.382C263.854 134.054 264.182 133.464 264.182 132.611C264.182 131.753 263.833 131.175 263.136 130.876C262.743 130.71 262.159 130.626 261.384 130.626H258.211V134.695H261.447ZM262.046 140.758C263.136 140.758 263.914 140.442 264.379 139.81C264.671 139.41 264.817 138.928 264.817 138.361C264.817 137.407 264.39 136.758 263.538 136.412C263.086 136.227 262.487 136.135 261.742 136.135H258.211V140.758H262.046ZM256.469 129.142H262.108C263.646 129.142 264.739 129.601 265.389 130.519C265.77 131.061 265.961 131.687 265.961 132.397C265.961 133.225 265.725 133.905 265.254 134.435C265.01 134.716 264.659 134.972 264.2 135.205C264.873 135.461 265.377 135.75 265.71 136.072C266.3 136.644 266.595 137.434 266.595 138.442C266.595 139.288 266.33 140.054 265.8 140.74C265.007 141.765 263.747 142.278 262.019 142.278H256.469V129.142Z" fill="#2B2B37"/>
<path d="M278.373 129.142V130.707H273.949V142.278H272.144V130.707H267.719V129.142H278.373Z" fill="#2B2B37"/>
<path d="M285.638 128.784C287.3 128.784 288.59 129.222 289.508 130.098C290.426 130.975 290.935 131.97 291.036 133.085H289.302C289.106 132.239 288.713 131.568 288.123 131.073C287.539 130.578 286.716 130.331 285.656 130.331C284.363 130.331 283.317 130.787 282.519 131.699C281.726 132.605 281.33 133.997 281.33 135.875C281.33 137.413 281.687 138.662 282.402 139.622C283.123 140.576 284.196 141.053 285.62 141.053C286.931 141.053 287.929 140.549 288.614 139.542C288.978 139.011 289.249 138.313 289.428 137.449H291.162C291.007 138.832 290.494 139.992 289.624 140.928C288.581 142.054 287.175 142.618 285.406 142.618C283.88 142.618 282.599 142.156 281.562 141.232C280.198 140.01 279.515 138.123 279.515 135.571C279.515 133.634 280.028 132.045 281.053 130.805C282.161 129.458 283.689 128.784 285.638 128.784Z" fill="#2B2B37"/>
<g opacity="0.5">
<path fill-rule="evenodd" clip-rule="evenodd" d="M222.669 106V168V106Z" fill="white" fill-opacity="0.601449"/>
<path d="M222.669 106V168" stroke="#CECED3" stroke-width="0.963889"/>
</g>
<g filter="url(#filter1_d)">
<path fill-rule="evenodd" clip-rule="evenodd" d="M27.4221 206.741C27.4221 203.547 30.0114 200.958 33.2055 200.958H337.794C340.988 200.958 343.578 203.547 343.578 206.741V256.864C343.578 260.058 340.988 262.647 337.794 262.647H33.2054C30.0114 262.647 27.4221 260.058 27.4221 256.864V206.741Z" fill="white"/>
</g>
<path d="M42.6594 210.415H43.9697L46.3531 214.402L48.7364 210.415H50.0524L46.9179 215.368V218.711H45.7939V215.368L42.6594 210.415Z" fill="#CECED3"/>
<path d="M52.4139 218.056C53.0879 218.056 53.5491 217.802 53.7976 217.294C54.0499 216.782 54.176 216.213 54.176 215.588C54.176 215.023 54.0856 214.564 53.9049 214.21C53.6188 213.653 53.1255 213.374 52.4252 213.374C51.8039 213.374 51.3521 213.611 51.0697 214.086C50.7873 214.56 50.6461 215.133 50.6461 215.803C50.6461 216.447 50.7873 216.983 51.0697 217.412C51.3521 217.842 51.8002 218.056 52.4139 218.056ZM52.4534 212.488C53.2328 212.488 53.8917 212.747 54.4302 213.267C54.9686 213.787 55.2378 214.551 55.2378 215.56C55.2378 216.535 55.0006 217.341 54.5262 217.977C54.0518 218.613 53.3157 218.932 52.3179 218.932C51.4858 218.932 50.825 218.651 50.3355 218.09C49.846 217.525 49.6013 216.769 49.6013 215.82C49.6013 214.803 49.8592 213.994 50.3751 213.391C50.8909 212.789 51.5837 212.488 52.4534 212.488Z" fill="#CECED3"/>
<path d="M57.6615 212.663V216.678C57.6615 216.987 57.7104 217.239 57.8083 217.435C57.989 217.796 58.326 217.977 58.8192 217.977C59.5271 217.977 60.009 217.661 60.2651 217.028C60.4044 216.689 60.474 216.224 60.474 215.633V212.663H61.4906V218.711H60.5305L60.5418 217.819C60.41 218.049 60.2463 218.243 60.0505 218.401C59.6626 218.717 59.192 218.875 58.6385 218.875C57.7763 218.875 57.1889 218.587 56.8764 218.011C56.707 217.702 56.6223 217.29 56.6223 216.774V212.663H57.6615Z" fill="#CECED3"/>
<path d="M68.823 212.555C69.2974 212.555 69.7116 212.672 70.0655 212.905C70.2575 213.037 70.4533 213.229 70.6529 213.482V212.719H71.5904V218.22C71.5904 218.988 71.4774 219.594 71.2515 220.039C70.8298 220.859 70.0335 221.27 68.8625 221.27C68.2111 221.27 67.6633 221.123 67.219 220.829C66.7747 220.539 66.5262 220.084 66.4735 219.463H67.507C67.556 219.734 67.6539 219.943 67.8007 220.089C68.0304 220.315 68.3919 220.428 68.8851 220.428C69.6645 220.428 70.1747 220.153 70.4157 219.604C70.5587 219.28 70.6246 218.702 70.6133 217.87C70.41 218.179 70.1653 218.408 69.8791 218.559C69.593 218.71 69.2146 218.785 68.7439 218.785C68.0888 218.785 67.5146 218.553 67.0213 218.09C66.5319 217.623 66.2871 216.853 66.2871 215.78C66.2871 214.767 66.5337 213.977 67.027 213.408C67.524 212.84 68.1227 212.555 68.823 212.555ZM70.6529 215.662C70.6529 214.912 70.4985 214.357 70.1897 213.995C69.881 213.634 69.4875 213.453 69.0094 213.453C68.294 213.453 67.8045 213.788 67.5409 214.459C67.4016 214.816 67.332 215.285 67.332 215.865C67.332 216.546 67.4694 217.066 67.7443 217.424C68.0229 217.778 68.3956 217.955 68.8625 217.955C69.593 217.955 70.1069 217.625 70.4044 216.966C70.57 216.593 70.6529 216.159 70.6529 215.662Z" fill="#CECED3"/>
<path d="M75.8383 212.527C76.2675 212.527 76.6836 212.629 77.0864 212.832C77.4893 213.032 77.7962 213.291 78.007 213.611C78.2104 213.916 78.3459 214.272 78.4137 214.679C78.4739 214.957 78.504 215.402 78.504 216.012H74.0705C74.0894 216.625 74.2343 217.119 74.5054 217.491C74.7765 217.86 75.1963 218.045 75.7649 218.045C76.2958 218.045 76.7193 217.87 77.0356 217.52C77.2163 217.316 77.3444 217.081 77.4197 216.814H78.4193C78.393 217.036 78.3045 217.284 78.1539 217.559C78.007 217.83 77.8414 218.052 77.6569 218.226C77.3481 218.527 76.966 218.73 76.5104 218.836C76.2656 218.896 75.9889 218.926 75.6801 218.926C74.9271 218.926 74.2889 218.653 73.7655 218.107C73.2422 217.557 72.9805 216.789 72.9805 215.803C72.9805 214.831 73.2441 214.043 73.7712 213.436C74.2983 212.83 74.9874 212.527 75.8383 212.527ZM77.4592 215.204C77.4178 214.764 77.3218 214.412 77.1712 214.148C76.8925 213.659 76.4275 213.414 75.7762 213.414C75.3093 213.414 74.9177 213.583 74.6014 213.922C74.2851 214.257 74.1176 214.685 74.0988 215.204H77.4592Z" fill="#CECED3"/>
<path d="M80.1539 210.974H81.1818V212.663H82.1476V213.493H81.1818V217.441C81.1818 217.651 81.2534 217.793 81.3965 217.864C81.4755 217.906 81.6073 217.926 81.7918 217.926C81.8408 217.926 81.8935 217.926 81.9499 217.926C82.0064 217.923 82.0723 217.917 82.1476 217.909V218.711C82.0309 218.745 81.9085 218.77 81.7805 218.785C81.6563 218.8 81.5207 218.807 81.3739 218.807C80.8995 218.807 80.5775 218.687 80.4081 218.446C80.2387 218.201 80.1539 217.885 80.1539 217.497V213.493H79.335V212.663H80.1539V210.974Z" fill="#CECED3"/>
<path d="M86.882 210.415H88.4916L90.875 217.429L93.2414 210.415H94.8341V218.711H93.7666V213.815C93.7666 213.645 93.7704 213.365 93.7779 212.973C93.7854 212.582 93.7892 212.162 93.7892 211.714L91.4228 218.711H90.3102L87.9268 211.714V211.968C87.9268 212.171 87.9306 212.482 87.9381 212.9C87.9494 213.314 87.9551 213.619 87.9551 213.815V218.711H86.882V210.415Z" fill="#CECED3"/>
<path d="M99.0029 218.056C99.6768 218.056 100.138 217.802 100.387 217.294C100.639 216.782 100.765 216.213 100.765 215.588C100.765 215.023 100.675 214.564 100.494 214.21C100.208 213.653 99.7145 213.374 99.0142 213.374C98.3929 213.374 97.9411 213.611 97.6587 214.086C97.3763 214.56 97.2351 215.133 97.2351 215.803C97.2351 216.447 97.3763 216.983 97.6587 217.412C97.9411 217.842 98.3891 218.056 99.0029 218.056ZM99.0424 212.488C99.8218 212.488 100.481 212.747 101.019 213.267C101.558 213.787 101.827 214.551 101.827 215.56C101.827 216.535 101.59 217.341 101.115 217.977C100.641 218.613 99.9046 218.932 98.9069 218.932C98.0748 218.932 97.414 218.651 96.9245 218.09C96.435 217.525 96.1903 216.769 96.1903 215.82C96.1903 214.803 96.4482 213.994 96.964 213.391C97.4799 212.789 98.1726 212.488 99.0424 212.488Z" fill="#CECED3"/>
<path d="M103.234 212.663H104.2V213.521C104.486 213.167 104.789 212.913 105.109 212.759C105.429 212.604 105.785 212.527 106.176 212.527C107.035 212.527 107.615 212.826 107.916 213.425C108.081 213.753 108.164 214.221 108.164 214.831V218.711H107.131V214.899C107.131 214.53 107.076 214.233 106.967 214.007C106.786 213.63 106.459 213.442 105.984 213.442C105.743 213.442 105.546 213.466 105.391 213.515C105.113 213.598 104.868 213.764 104.657 214.012C104.488 214.212 104.377 214.419 104.324 214.634C104.275 214.845 104.25 215.148 104.25 215.543V218.711H103.234V212.663Z" fill="#CECED3"/>
<path d="M112.384 212.527C112.813 212.527 113.229 212.629 113.632 212.832C114.035 213.032 114.342 213.291 114.553 213.611C114.756 213.916 114.892 214.272 114.959 214.679C115.02 214.957 115.05 215.402 115.05 216.012H110.616C110.635 216.625 110.78 217.119 111.051 217.491C111.322 217.86 111.742 218.045 112.311 218.045C112.841 218.045 113.265 217.87 113.581 217.52C113.762 217.316 113.89 217.081 113.965 216.814H114.965C114.939 217.036 114.85 217.284 114.7 217.559C114.553 217.83 114.387 218.052 114.203 218.226C113.894 218.527 113.512 218.73 113.056 218.836C112.811 218.896 112.535 218.926 112.226 218.926C111.473 218.926 110.835 218.653 110.311 218.107C109.788 217.557 109.526 216.789 109.526 215.803C109.526 214.831 109.79 214.043 110.317 213.436C110.844 212.83 111.533 212.527 112.384 212.527ZM114.005 215.204C113.963 214.764 113.867 214.412 113.717 214.148C113.438 213.659 112.973 213.414 112.322 213.414C111.855 213.414 111.463 213.583 111.147 213.922C110.831 214.257 110.663 214.685 110.644 215.204H114.005Z" fill="#CECED3"/>
<path d="M116.525 212.663H117.49V213.707C117.569 213.504 117.763 213.258 118.072 212.968C118.381 212.674 118.737 212.527 119.139 212.527C119.158 212.527 119.19 212.529 119.236 212.533C119.281 212.536 119.358 212.544 119.467 212.555V213.628C119.407 213.617 119.35 213.61 119.298 213.606C119.249 213.602 119.194 213.6 119.134 213.6C118.622 213.6 118.228 213.766 117.953 214.097C117.679 214.425 117.541 214.803 117.541 215.232V218.711H116.525V212.663Z" fill="#CECED3"/>
<path d="M122.941 218.056C123.615 218.056 124.076 217.802 124.325 217.294C124.577 216.782 124.703 216.213 124.703 215.588C124.703 215.023 124.613 214.564 124.432 214.21C124.146 213.653 123.653 213.374 122.952 213.374C122.331 213.374 121.879 213.611 121.597 214.086C121.315 214.56 121.173 215.133 121.173 215.803C121.173 216.447 121.315 216.983 121.597 217.412C121.879 217.842 122.327 218.056 122.941 218.056ZM122.981 212.488C123.76 212.488 124.419 212.747 124.957 213.267C125.496 213.787 125.765 214.551 125.765 215.56C125.765 216.535 125.528 217.341 125.053 217.977C124.579 218.613 123.843 218.932 122.845 218.932C122.013 218.932 121.352 218.651 120.863 218.09C120.373 217.525 120.129 216.769 120.129 215.82C120.129 214.803 120.387 213.994 120.902 213.391C121.418 212.789 122.111 212.488 122.981 212.488Z" fill="#CECED3"/>
<path d="M253.581 237.278H251.436L256.138 230.544L251.731 224.142H253.957L257.309 229.167L260.633 224.142H262.752L258.345 230.544L262.966 237.278H260.759L257.219 231.877L253.581 237.278Z" fill="#2B2B37"/>
<path d="M264.716 224.142H267.263L271.035 235.248L274.78 224.142H277.301V237.278H275.611V229.525C275.611 229.257 275.617 228.812 275.629 228.192C275.641 227.572 275.647 226.908 275.647 226.198L271.902 237.278H270.141L266.37 226.198V226.601C266.37 226.923 266.376 227.414 266.387 228.076C266.405 228.732 266.414 229.215 266.414 229.525V237.278H264.716V224.142Z" fill="#2B2B37"/>
<path d="M286.21 230.16C287.044 230.16 287.702 229.993 288.185 229.659C288.674 229.325 288.918 228.723 288.918 227.853C288.918 226.917 288.578 226.279 287.899 225.939C287.536 225.76 287.05 225.671 286.442 225.671H282.098V230.16H286.21ZM280.32 224.142H286.398C287.399 224.142 288.224 224.288 288.873 224.58C290.107 225.14 290.723 226.174 290.723 227.683C290.723 228.47 290.56 229.114 290.232 229.614C289.91 230.115 289.457 230.517 288.873 230.822C289.386 231.03 289.77 231.304 290.026 231.644C290.289 231.984 290.434 232.535 290.464 233.299L290.527 235.06C290.545 235.561 290.586 235.934 290.652 236.178C290.759 236.595 290.95 236.864 291.224 236.983V237.278H289.043C288.984 237.165 288.936 237.019 288.9 236.84C288.864 236.661 288.835 236.315 288.811 235.802L288.704 233.612C288.662 232.753 288.343 232.178 287.747 231.886C287.408 231.725 286.874 231.644 286.147 231.644H282.098V237.278H280.32V224.142Z" fill="#2B2B37"/>
<g opacity="0.5">
<path fill-rule="evenodd" clip-rule="evenodd" d="M222.669 201V263V201Z" fill="white" fill-opacity="0.601449"/>
<path d="M222.669 201V263" stroke="#CECED3" stroke-width="0.963889"/>
</g>
<path d="M310.377 232.958C308.163 230.732 305.981 228.553 303.783 226.327C303.783 229.189 303.783 232.019 303.783 234.866C303.704 234.866 303.64 234.882 303.593 234.882C302.707 234.882 301.822 234.882 300.921 234.882C300.794 234.882 300.731 234.85 300.699 234.723C300.336 233.498 300.177 232.258 300.272 230.97C300.43 228.808 301.174 226.868 302.565 225.198C304.099 223.338 306.044 222.146 308.416 221.684C311.547 221.08 314.393 221.812 316.86 223.863C318.741 225.421 319.88 227.44 320.323 229.857C320.623 231.495 320.497 233.101 320.022 234.691C319.975 234.818 319.927 234.866 319.785 234.866C318.9 234.866 318.014 234.866 317.113 234.866C317.065 234.866 317.002 234.866 316.939 234.866C316.939 232.019 316.939 229.189 316.939 226.343C314.757 228.569 312.575 230.747 310.377 232.958Z" fill="#F26722"/>
<path d="M301.727 236.933C303.134 236.933 304.542 236.933 305.965 236.933C305.965 235.152 305.965 233.371 305.965 231.558C307.435 233.037 308.89 234.5 310.345 235.963C311.815 234.484 313.27 233.037 314.741 231.558C314.741 233.355 314.741 235.136 314.741 236.917C316.164 236.917 317.555 236.917 319.01 236.917C318.172 238.268 317.128 239.365 315.816 240.208C314.519 241.051 313.096 241.575 311.562 241.75C306.898 242.307 303.277 239.651 301.727 236.933Z" fill="#4C4C4D"/>
<circle opacity="0.23" cx="49.5" cy="241.5" r="2.5" fill="#2B2B37"/>
<circle opacity="0.46" cx="60.5" cy="241.5" r="2.5" fill="#2B2B37"/>
<circle cx="71.5" cy="241.5" r="2.5" fill="#2B2B37"/>
<rect opacity="0.14" x="92" y="176" width="100" height="18" rx="3.85556" fill="#00C26F"/>
<path d="M45.8794 183.062V182.282C46.6136 182.211 47.1257 182.092 47.4156 181.927C47.7055 181.757 47.922 181.36 48.0651 180.735H48.8671V188.789H47.7827V183.062H45.8794Z" fill="#808088"/>
<path d="M58.8143 183.999C59.2887 183.999 59.6577 183.933 59.9213 183.802C60.3355 183.595 60.5426 183.222 60.5426 182.683C60.5426 182.141 60.3223 181.776 59.8818 181.588C59.6333 181.482 59.2643 181.43 58.7748 181.43H56.7698V183.999H58.8143ZM59.1927 187.828C59.8818 187.828 60.3731 187.629 60.6668 187.23C60.8513 186.978 60.9435 186.673 60.9435 186.315C60.9435 185.712 60.6743 185.302 60.1359 185.084C59.8498 184.967 59.4714 184.909 59.0007 184.909H56.7698V187.828H59.1927ZM55.6685 180.492H59.2323C60.2037 180.492 60.8946 180.782 61.305 181.362C61.546 181.704 61.6665 182.1 61.6665 182.548C61.6665 183.071 61.5177 183.5 61.2203 183.836C61.0659 184.012 60.8438 184.174 60.5538 184.321C60.9793 184.483 61.2975 184.666 61.5083 184.869C61.8811 185.231 62.0675 185.729 62.0675 186.366C62.0675 186.9 61.8999 187.384 61.5648 187.817C61.064 188.465 60.2677 188.789 59.1758 188.789H55.6685V180.492Z" fill="#808088"/>
<path d="M69.6419 180.492V181.48H66.8462V188.789H65.7054V181.48H62.9097V180.492H69.6419Z" fill="#808088"/>
<path d="M74.3642 180.266C75.4147 180.266 76.2298 180.543 76.8097 181.096C77.3895 181.65 77.7114 182.279 77.7755 182.983H76.6798C76.5555 182.448 76.307 182.024 75.9343 181.712C75.5653 181.399 75.0457 181.243 74.3755 181.243C73.5584 181.243 72.8977 181.531 72.3931 182.107C71.8923 182.68 71.642 183.559 71.642 184.745C71.642 185.716 71.8679 186.505 72.3197 187.111C72.7753 187.714 73.453 188.015 74.3529 188.015C75.1812 188.015 75.8119 187.697 76.2449 187.06C76.4746 186.725 76.6459 186.285 76.7589 185.739H77.8545C77.7566 186.612 77.4328 187.345 76.8831 187.936C76.2242 188.647 75.3356 189.003 74.2174 189.003C73.2535 189.003 72.4439 188.711 71.7888 188.128C70.9266 187.356 70.4955 186.164 70.4955 184.553C70.4955 183.329 70.8193 182.326 71.4669 181.543C72.1672 180.692 73.133 180.266 74.3642 180.266Z" fill="#808088"/>
<path d="M83.8088 184.88C83.918 184.88 84.0328 184.89 84.1533 184.909C84.3679 184.939 84.575 184.993 84.7746 185.072L86.0284 185.564C86.2204 185.639 86.3785 185.696 86.5028 185.733C86.7023 185.79 86.8774 185.818 87.028 185.818C87.3029 185.818 87.5363 185.711 87.7284 185.496C87.9204 185.278 88.0503 185.01 88.1181 184.694H88.7732C88.6791 185.229 88.4927 185.716 88.2141 186.157C87.9392 186.597 87.5213 186.818 86.9603 186.818C86.7908 186.818 86.5894 186.784 86.3559 186.716C86.2204 186.674 86.019 186.603 85.7516 186.501L84.5995 186.061C84.4564 186.004 84.3077 185.961 84.1533 185.931C84.0027 185.901 83.8785 185.886 83.7806 185.886C83.4643 185.886 83.2158 186.008 83.035 186.253C82.9296 186.396 82.8223 186.639 82.7131 186.981H82.0523C82.1163 186.669 82.186 186.403 82.2613 186.185C82.3366 185.963 82.4684 185.712 82.6567 185.434C82.8148 185.246 82.9842 185.106 83.165 185.016C83.3494 184.926 83.5641 184.88 83.8088 184.88Z" fill="#808088"/>
<path d="M96.5242 183.141V182.045C97.0325 182.023 97.3883 181.989 97.5916 181.944C97.9154 181.872 98.179 181.729 98.3823 181.514C98.5216 181.368 98.627 181.172 98.6986 180.927C98.74 180.78 98.7607 180.671 98.7607 180.599H100.099V188.789H98.4501V183.141H96.5242Z" fill="#00C26F"/>
<path d="M102.715 188.789C102.73 188.201 102.856 187.665 103.093 187.179C103.323 186.633 103.865 186.055 104.72 185.445C105.462 184.914 105.942 184.534 106.16 184.304C106.495 183.947 106.663 183.555 106.663 183.13C106.663 182.783 106.567 182.495 106.375 182.266C106.183 182.036 105.908 181.921 105.55 181.921C105.061 181.921 104.727 182.104 104.55 182.469C104.449 182.68 104.389 183.015 104.37 183.474H102.805C102.832 182.778 102.958 182.215 103.184 181.785C103.613 180.968 104.375 180.56 105.471 180.56C106.337 180.56 107.026 180.801 107.538 181.283C108.05 181.761 108.306 182.395 108.306 183.186C108.306 183.792 108.125 184.331 107.764 184.801C107.527 185.114 107.137 185.462 106.595 185.846L105.951 186.304C105.548 186.59 105.271 186.797 105.121 186.925C104.974 187.053 104.85 187.202 104.748 187.371H108.323V188.789H102.715Z" fill="#00C26F"/>
<path d="M115.084 181.966C114.843 182.203 114.508 182.627 114.079 183.237C113.65 183.843 113.29 184.47 113 185.118C112.771 185.626 112.564 186.247 112.379 186.981C112.195 187.716 112.102 188.318 112.102 188.789H110.431C110.479 187.32 110.961 185.793 111.876 184.208C112.468 183.226 112.963 182.54 113.362 182.153H109.278L109.301 180.707H115.084V181.966Z" fill="#00C26F"/>
<path d="M116.339 187.106H118.05V188.789H116.339V187.106Z" fill="#00C26F"/>
<path d="M125.077 187.027H124.151V188.789H122.575V187.027H119.333V185.62L122.343 180.65H124.151V185.767H125.077V187.027ZM122.575 185.767V182.232L120.525 185.767H122.575Z" fill="#00C26F"/>
<path d="M127.636 186.411C127.636 186.814 127.739 187.126 127.947 187.349C128.157 187.571 128.447 187.682 128.816 187.682C129.185 187.682 129.473 187.571 129.68 187.349C129.891 187.126 129.997 186.814 129.997 186.411C129.997 185.993 129.889 185.677 129.675 185.462C129.464 185.244 129.178 185.135 128.816 185.135C128.455 185.135 128.167 185.244 127.952 185.462C127.741 185.677 127.636 185.993 127.636 186.411ZM125.964 186.518C125.964 186.059 126.068 185.643 126.275 185.27C126.486 184.897 126.793 184.617 127.195 184.429C126.8 184.165 126.542 183.881 126.422 183.576C126.305 183.267 126.247 182.979 126.247 182.712C126.247 182.117 126.471 181.61 126.919 181.192C127.367 180.771 127.999 180.56 128.816 180.56C129.633 180.56 130.266 180.771 130.714 181.192C131.162 181.61 131.386 182.117 131.386 182.712C131.386 182.979 131.326 183.267 131.205 183.576C131.089 183.881 130.833 184.146 130.437 184.372C130.84 184.598 131.143 184.897 131.347 185.27C131.55 185.643 131.652 186.059 131.652 186.518C131.652 187.207 131.395 187.795 130.883 188.28C130.375 188.762 129.663 189.003 128.749 189.003C127.834 189.003 127.141 188.762 126.67 188.28C126.2 187.795 125.964 187.207 125.964 186.518ZM127.783 182.892C127.783 183.19 127.873 183.433 128.054 183.621C128.238 183.809 128.493 183.903 128.816 183.903C129.144 183.903 129.396 183.809 129.573 183.621C129.754 183.433 129.844 183.19 129.844 182.892C129.844 182.569 129.754 182.316 129.573 182.136C129.396 181.951 129.144 181.859 128.816 181.859C128.493 181.859 128.238 181.951 128.054 182.136C127.873 182.316 127.783 182.569 127.783 182.892Z" fill="#00C26F"/>
<path d="M134.199 186.597C134.263 186.948 134.386 187.219 134.567 187.411C134.747 187.599 135.011 187.693 135.357 187.693C135.756 187.693 136.059 187.554 136.267 187.275C136.477 186.993 136.583 186.639 136.583 186.213C136.583 185.795 136.485 185.443 136.289 185.157C136.093 184.867 135.788 184.722 135.374 184.722C135.178 184.722 135.009 184.747 134.866 184.796C134.614 184.886 134.423 185.054 134.295 185.298L132.85 185.231L133.426 180.707H137.938V182.073H134.589L134.295 183.864C134.544 183.702 134.738 183.595 134.877 183.542C135.111 183.455 135.395 183.412 135.73 183.412C136.408 183.412 136.999 183.64 137.503 184.095C138.008 184.551 138.26 185.214 138.26 186.083C138.26 186.84 138.017 187.516 137.532 188.111C137.046 188.706 136.319 189.003 135.352 189.003C134.572 189.003 133.932 188.794 133.431 188.376C132.931 187.958 132.652 187.365 132.595 186.597H134.199Z" fill="#00C26F"/>
<path d="M140.808 186.275C140.808 186.603 140.861 186.874 140.966 187.089C141.162 187.484 141.518 187.682 142.034 187.682C142.35 187.682 142.625 187.574 142.858 187.36C143.095 187.141 143.214 186.829 143.214 186.422C143.214 185.884 142.996 185.524 142.559 185.344C142.31 185.242 141.919 185.191 141.384 185.191V184.039C141.908 184.031 142.273 183.981 142.48 183.886C142.838 183.728 143.016 183.408 143.016 182.926C143.016 182.614 142.924 182.36 142.74 182.164C142.559 181.968 142.303 181.87 141.972 181.87C141.591 181.87 141.311 181.991 141.13 182.232C140.953 182.473 140.868 182.795 140.876 183.197H139.374C139.389 182.791 139.458 182.405 139.583 182.04C139.714 181.72 139.921 181.424 140.204 181.153C140.415 180.961 140.665 180.814 140.955 180.712C141.245 180.611 141.601 180.56 142.022 180.56C142.806 180.56 143.436 180.763 143.914 181.17C144.396 181.573 144.637 182.115 144.637 182.796C144.637 183.278 144.494 183.685 144.208 184.016C144.027 184.223 143.839 184.365 143.643 184.44C143.79 184.44 144.001 184.566 144.276 184.818C144.686 185.199 144.891 185.718 144.891 186.377C144.891 187.07 144.65 187.68 144.169 188.207C143.69 188.73 142.981 188.992 142.039 188.992C140.88 188.992 140.074 188.614 139.622 187.857C139.385 187.454 139.253 186.927 139.227 186.275H140.808Z" fill="#00C26F"/>
<path d="M151.653 181.966C151.412 182.203 151.077 182.627 150.647 183.237C150.218 183.843 149.858 184.47 149.569 185.118C149.339 185.626 149.132 186.247 148.947 186.981C148.763 187.716 148.671 188.318 148.671 188.789H146.999C147.048 187.32 147.53 185.793 148.445 184.208C149.036 183.226 149.531 182.54 149.93 182.153H145.847L145.869 180.707H151.653V181.966Z" fill="#00C26F"/>
<path d="M152.546 188.789C152.561 188.201 152.687 187.665 152.924 187.179C153.154 186.633 153.696 186.055 154.551 185.445C155.292 184.914 155.772 184.534 155.991 184.304C156.326 183.947 156.493 183.555 156.493 183.13C156.493 182.783 156.397 182.495 156.205 182.266C156.013 182.036 155.739 181.921 155.381 181.921C154.891 181.921 154.558 182.104 154.381 182.469C154.28 182.68 154.219 183.015 154.201 183.474H152.636C152.662 182.778 152.789 182.215 153.014 181.785C153.444 180.968 154.206 180.56 155.302 180.56C156.168 180.56 156.857 180.801 157.369 181.283C157.881 181.761 158.137 182.395 158.137 183.186C158.137 183.792 157.956 184.331 157.595 184.801C157.358 185.114 156.968 185.462 156.426 185.846L155.782 186.304C155.379 186.59 155.102 186.797 154.952 186.925C154.805 187.053 154.681 187.202 154.579 187.371H158.154V188.789H152.546Z" fill="#00C26F"/>
<path d="M164.436 188.789H162.414L165.091 184.547L162.544 180.464H164.622L166.108 183.169L167.632 180.464H169.643L167.096 184.479L169.801 188.789H167.689L166.108 185.954L164.436 188.789Z" fill="#00C26F"/>
<path d="M176.534 180.464H179.036V188.789H177.415V183.158C177.415 182.996 177.417 182.77 177.421 182.48C177.425 182.186 177.426 181.961 177.426 181.802L175.851 188.789H174.162L172.598 181.802C172.598 181.961 172.599 182.186 172.603 182.48C172.607 182.77 172.609 182.996 172.609 183.158V188.789H170.988V180.464H173.518L175.032 187.01L176.534 180.464Z" fill="#00C26F"/>
<path d="M182.584 181.91V184.146H184.555C184.946 184.146 185.24 184.101 185.436 184.011C185.782 183.853 185.955 183.54 185.955 183.073C185.955 182.569 185.788 182.23 185.453 182.057C185.264 181.959 184.982 181.91 184.606 181.91H182.584ZM184.967 180.464C185.551 180.475 185.999 180.547 186.311 180.678C186.627 180.81 186.895 181.004 187.113 181.26C187.294 181.471 187.437 181.704 187.542 181.961C187.648 182.217 187.701 182.508 187.701 182.836C187.701 183.231 187.601 183.621 187.401 184.005C187.202 184.385 186.872 184.655 186.413 184.813C186.797 184.967 187.068 185.187 187.226 185.473C187.388 185.756 187.469 186.189 187.469 186.772V187.332C187.469 187.712 187.484 187.97 187.514 188.105C187.559 188.32 187.665 188.478 187.83 188.58V188.789H185.916C185.863 188.604 185.825 188.455 185.803 188.343C185.758 188.109 185.733 187.87 185.729 187.625L185.718 186.852C185.711 186.321 185.613 185.967 185.424 185.79C185.24 185.613 184.892 185.524 184.38 185.524H182.584V188.789H180.884V180.464H184.967Z" fill="#00C26F"/>
<rect x="309" y="173" width="25.0103" height="22.8674" rx="1.92778" fill="white"/>
<path d="M313.897 182.049L317.161 178.695L320.425 182.049" stroke="#808088" stroke-width="1.92778" stroke-linecap="round" stroke-linejoin="round"/>
<path d="M317.161 179.708V190.25" stroke="#808088" stroke-width="1.92778" stroke-linecap="round" stroke-linejoin="round"/>
<path d="M322.576 186.951L325.839 190.306L329.103 186.951" stroke="#808088" stroke-width="1.92778" stroke-linecap="round" stroke-linejoin="round"/>
<path d="M325.84 189.605V179.543" stroke="#808088" stroke-width="1.92778" stroke-linecap="round" stroke-linejoin="round"/>
<g opacity="0.1">
<path d="M294.616 70.8176H292.204L289.039 59.9763L284.885 74.7623L280.731 66.3853L278.55 70.8176H276.138" stroke="#2B2B37" stroke-width="1.92778" stroke-linecap="round" stroke-linejoin="round"/>
</g>
<g opacity="0.5">
<g opacity="0.9" clip-path="url(#clip2)">
<path d="M313.221 26.1423V25.3576C313.96 25.2856 314.476 25.1662 314.768 24.9994C315.06 24.8288 315.278 24.4289 315.422 23.7996H316.229V31.908H315.137V26.1423H313.221ZM318.953 31.908C318.991 31.2067 319.135 30.5964 319.385 30.077C319.639 29.5577 320.132 29.0858 320.863 28.6612L321.955 28.0301C322.444 27.7458 322.787 27.5032 322.984 27.3022C323.295 26.9876 323.45 26.6275 323.45 26.2219C323.45 25.7481 323.308 25.3728 323.024 25.0961C322.74 24.8155 322.361 24.6753 321.887 24.6753C321.186 24.6753 320.7 24.9406 320.431 25.4713C320.287 25.7556 320.208 26.1499 320.192 26.654H319.152C319.163 25.9452 319.294 25.3671 319.544 24.9198C319.988 24.1313 320.77 23.7371 321.893 23.7371C322.825 23.7371 323.505 23.9892 323.934 24.4933C324.366 24.9975 324.582 25.5585 324.582 26.1764C324.582 26.8284 324.353 27.3856 323.894 27.8481C323.629 28.1173 323.153 28.4433 322.467 28.8261L321.688 29.2583C321.316 29.463 321.024 29.6582 320.812 29.8439C320.433 30.1737 320.194 30.5395 320.096 30.9413H324.542V31.908H318.953ZM326.362 25.8978H327.55V27.1374H326.362V25.8978ZM326.362 30.6684H327.55V31.908H326.362V30.6684ZM331.337 32.1297C330.374 32.1297 329.675 31.8663 329.239 31.3394C328.807 30.8087 328.591 30.1642 328.591 29.4061H329.66C329.705 29.933 329.804 30.3159 329.955 30.5547C330.221 30.983 330.7 31.1972 331.394 31.1972C331.932 31.1972 332.364 31.0532 332.69 30.7651C333.016 30.477 333.179 30.1055 333.179 29.6506C333.179 29.0896 333.007 28.6972 332.662 28.4736C332.321 28.2499 331.845 28.1381 331.235 28.1381C331.166 28.1381 331.096 28.14 331.024 28.1438C330.956 28.1438 330.886 28.1457 330.814 28.1495V27.2454C330.92 27.2568 331.009 27.2643 331.081 27.2681C331.153 27.2719 331.231 27.2738 331.314 27.2738C331.697 27.2738 332.012 27.2132 332.258 27.0919C332.69 26.8796 332.906 26.5005 332.906 25.9547C332.906 25.549 332.762 25.2363 332.474 25.0165C332.186 24.7966 331.851 24.6867 331.468 24.6867C330.786 24.6867 330.314 24.9141 330.052 25.369C329.908 25.6192 329.826 25.9755 329.808 26.438H328.795C328.795 25.8315 328.917 25.3159 329.159 24.8914C329.576 24.1332 330.31 23.7541 331.36 23.7541C332.19 23.7541 332.832 23.9399 333.287 24.3114C333.742 24.6791 333.97 25.2136 333.97 25.9149C333.97 26.4152 333.835 26.8208 333.566 27.1317C333.399 27.325 333.183 27.4766 332.918 27.5866C333.346 27.7041 333.68 27.9315 333.919 28.2689C334.161 28.6025 334.282 29.0119 334.282 29.4971C334.282 30.2742 334.027 30.9072 333.515 31.3962C333.003 31.8852 332.277 32.1297 331.337 32.1297ZM338.644 29.0251V25.3349L336.034 29.0251H338.644ZM338.661 31.908V29.9178H335.09V28.9171L338.82 23.7428H339.684V29.0251H340.884V29.9178H339.684V31.908H338.661Z" fill="#CBCBCF"/>
</g>
<path fill-rule="evenodd" clip-rule="evenodd" d="M303.26 22.9865V22.2671L300.759 22.2671V22.9865H298.258V33.7783H305.761V22.9865H303.26Z" fill="#CBCBCF"/>
<path fill-rule="evenodd" clip-rule="evenodd" d="M279.083 33.7783H290.754V22.2671L279.083 33.7783Z" fill="#CBCBCF"/>
<path fill-rule="evenodd" clip-rule="evenodd" d="M262.39 24.7471L269.912 33.7785L277.434 24.7471C275.341 23.1903 272.736 22.2673 269.912 22.2673C267.088 22.2673 264.483 23.1903 262.39 24.7471Z" fill="#CBCBCF"/>
</g>
<path d="M44.5889 61.2956H47.2261C47.1452 60.5785 46.9485 59.9423 46.6362 59.3871C46.3239 58.8319 45.9249 58.3693 45.4391 57.9991C44.9648 57.6174 44.4212 57.3283 43.8082 57.1316C43.2067 56.935 42.5648 56.8367 41.8823 56.8367C40.9339 56.8367 40.0779 57.0044 39.3145 57.3398C38.5627 57.6753 37.9265 58.1379 37.406 58.7278C36.8855 59.3177 36.4865 60.0117 36.2089 60.8098C35.9313 61.5964 35.7925 62.4523 35.7925 63.3776C35.7925 64.2798 35.9313 65.1242 36.2089 65.9107C36.4865 66.6857 36.8855 67.3623 37.406 67.9407C37.9265 68.519 38.5627 68.9759 39.3145 69.3113C40.0779 69.6352 40.9339 69.7971 41.8823 69.7971C42.6457 69.7971 43.3455 69.6815 43.9817 69.4501C44.6178 69.2188 45.173 68.8834 45.6473 68.4438C46.1215 68.0043 46.5032 67.4722 46.7924 66.8476C47.0815 66.223 47.2608 65.5232 47.3302 64.7483H44.693C44.5889 65.5811 44.2998 66.2519 43.8255 66.7609C43.3629 67.2698 42.7151 67.5243 41.8823 67.5243C41.2693 67.5243 40.7488 67.4086 40.3208 67.1773C39.8929 66.9344 39.5459 66.6163 39.2798 66.223C39.0138 65.8298 38.8172 65.3902 38.6899 64.9044C38.5743 64.4071 38.5164 63.8981 38.5164 63.3776C38.5164 62.834 38.5743 62.3077 38.6899 61.7988C38.8172 61.2898 39.0138 60.8387 39.2798 60.4455C39.5459 60.0406 39.8929 59.7226 40.3208 59.4912C40.7488 59.2483 41.2693 59.1269 41.8823 59.1269C42.2178 59.1269 42.5358 59.1847 42.8366 59.3004C43.1489 59.4045 43.4265 59.5548 43.6694 59.7515C43.9123 59.9481 44.1147 60.1794 44.2766 60.4455C44.4386 60.6999 44.5427 60.9833 44.5889 61.2956Z" fill="white"/>
<path d="M49.412 57.1316V69.5195H51.8757V64.8177C51.8757 63.9039 52.0261 63.2504 52.3268 62.8571C52.6276 62.4523 53.1134 62.2499 53.7842 62.2499C54.3741 62.2499 54.7848 62.4349 55.0161 62.8051C55.2474 63.1636 55.3631 63.7131 55.3631 64.4533V69.5195H57.8268V64.0022C57.8268 63.447 57.7747 62.9439 57.6706 62.4928C57.5781 62.0301 57.4104 61.6426 57.1675 61.3303C56.9246 61.0065 56.5892 60.7578 56.1612 60.5843C55.7448 60.3992 55.2069 60.3067 54.5476 60.3067C54.085 60.3067 53.6107 60.4281 53.1249 60.671C52.6391 60.9024 52.2401 61.2783 51.9278 61.7988H51.8757V57.1316H49.412Z" fill="white"/>
<path d="M60.0745 63.3082C60.1092 62.7299 60.2538 62.2499 60.5082 61.8682C60.7627 61.4865 61.0866 61.18 61.4798 60.9486C61.8731 60.7173 62.3127 60.5554 62.7985 60.4628C63.2958 60.3587 63.7932 60.3067 64.2906 60.3067C64.7416 60.3067 65.1985 60.3414 65.6612 60.4108C66.1239 60.4686 66.546 60.5901 66.9277 60.7751C67.3095 60.9602 67.6217 61.2204 67.8646 61.5559C68.1075 61.8797 68.229 62.3135 68.229 62.8571V67.5243C68.229 67.9291 68.2521 68.3166 68.2984 68.6867C68.3447 69.0569 68.4256 69.3345 68.5413 69.5195H66.0429C65.9966 69.3807 65.9562 69.2419 65.9214 69.1031C65.8983 68.9528 65.881 68.8024 65.8694 68.652C65.4761 69.0569 65.0135 69.3402 64.4814 69.5022C63.9493 69.6641 63.4057 69.7451 62.8505 69.7451C62.4225 69.7451 62.0235 69.693 61.6533 69.5889C61.2832 69.4848 60.9593 69.3229 60.6817 69.1031C60.4042 68.8834 60.1844 68.6058 60.0224 68.2703C59.8721 67.9349 59.7969 67.5358 59.7969 67.0732C59.7969 66.5642 59.8836 66.1478 60.0571 65.824C60.2422 65.4885 60.4736 65.2225 60.7512 65.0259C61.0403 64.8292 61.3642 64.6847 61.7227 64.5921C62.0929 64.488 62.463 64.4071 62.8331 64.3492C63.2033 64.2914 63.5676 64.2451 63.9262 64.2104C64.2848 64.1757 64.6028 64.1237 64.8804 64.0543C65.158 63.9849 65.3778 63.8866 65.5397 63.7593C65.7017 63.6205 65.7769 63.4239 65.7653 63.1694C65.7653 62.9034 65.719 62.6952 65.6265 62.5448C65.5455 62.3829 65.4299 62.2614 65.2795 62.1805C65.1407 62.0879 64.973 62.0301 64.7764 62.007C64.5913 61.9723 64.3889 61.9549 64.1691 61.9549C63.6833 61.9549 63.3016 62.059 63.024 62.2672C62.7464 62.4754 62.5845 62.8224 62.5382 63.3082H60.0745ZM65.7653 65.13C65.6612 65.2225 65.5282 65.2977 65.3662 65.3555C65.2159 65.4018 65.0482 65.4423 64.8631 65.477C64.6896 65.5117 64.5045 65.5406 64.3079 65.5637C64.1113 65.5869 63.9146 65.6158 63.718 65.6505C63.5329 65.6852 63.3479 65.7314 63.1628 65.7893C62.9893 65.8471 62.8331 65.9281 62.6943 66.0322C62.5671 66.1247 62.463 66.2462 62.382 66.3965C62.3011 66.5469 62.2606 66.7377 62.2606 66.9691C62.2606 67.1888 62.3011 67.3739 62.382 67.5243C62.463 67.6746 62.5729 67.7961 62.7117 67.8886C62.8505 67.9696 63.0124 68.0274 63.1975 68.0621C63.3826 68.0968 63.5734 68.1142 63.7701 68.1142C64.2558 68.1142 64.6318 68.0332 64.8978 67.8713C65.1638 67.7093 65.3605 67.5185 65.4877 67.2987C65.6149 67.0674 65.6901 66.8361 65.7132 66.6047C65.7479 66.3734 65.7653 66.1883 65.7653 66.0495V65.13Z" fill="white"/>
<path d="M70.6232 60.5496V69.5195H73.0869V64.8177C73.0869 63.9039 73.2373 63.2504 73.538 62.8571C73.8388 62.4523 74.3246 62.2499 74.9954 62.2499C75.5853 62.2499 75.996 62.4349 76.2273 62.8051C76.4586 63.1636 76.5743 63.7131 76.5743 64.4533V69.5195H79.038V64.0022C79.038 63.447 78.9859 62.9439 78.8818 62.4928C78.7893 62.0301 78.6216 61.6426 78.3787 61.3303C78.1358 61.0065 77.8004 60.7578 77.3724 60.5843C76.956 60.3992 76.4181 60.3067 75.7588 60.3067C75.2383 60.3067 74.7294 60.4281 74.232 60.671C73.7347 60.9024 73.3298 61.2783 73.0175 61.7988H72.9655V60.5496H70.6232Z" fill="white"/>
<path d="M85.5712 67.4028C85.1895 67.4028 84.8714 67.3219 84.6169 67.1599C84.3624 66.998 84.1542 66.7898 83.9923 66.5353C83.8419 66.2809 83.7321 65.9975 83.6627 65.6852C83.6048 65.3613 83.5759 65.0374 83.5759 64.7136C83.5759 64.3781 83.6106 64.0601 83.68 63.7593C83.761 63.447 83.8824 63.1752 84.0443 62.9439C84.2178 62.701 84.426 62.5101 84.6689 62.3713C84.9234 62.2325 85.2242 62.1631 85.5712 62.1631C85.976 62.1631 86.3114 62.2383 86.5774 62.3887C86.8435 62.539 87.0575 62.7415 87.2194 62.9959C87.3813 63.2504 87.497 63.5453 87.5664 63.8808C87.6358 64.2046 87.6705 64.5516 87.6705 64.9218C87.6705 65.2456 87.6242 65.5579 87.5317 65.8587C87.4507 66.1478 87.3235 66.4081 87.15 66.6394C86.9765 66.8708 86.7567 67.0558 86.4907 67.1946C86.2247 67.3334 85.9182 67.4028 85.5712 67.4028ZM90.0127 68.947V60.5496H87.6705V61.7467H87.6358C87.3351 61.2262 86.9591 60.8561 86.508 60.6363C86.0685 60.4166 85.5538 60.3067 84.9639 60.3067C84.3393 60.3067 83.7841 60.4281 83.2983 60.671C82.8241 60.9139 82.425 61.2436 82.1012 61.66C81.7773 62.0648 81.5286 62.539 81.3551 63.0827C81.1932 63.6147 81.1122 64.1699 81.1122 64.7483C81.1122 65.3613 81.1816 65.9454 81.3204 66.5006C81.4708 67.0443 81.7021 67.5243 82.0144 67.9407C82.3267 68.3455 82.7257 68.6694 83.2116 68.9123C83.6974 69.1436 84.2757 69.2593 84.9465 69.2593C85.4902 69.2593 86.0049 69.1494 86.4907 68.9296C86.9881 68.6983 87.3698 68.3455 87.6358 67.8713H87.6705V69.0511C87.6821 69.6872 87.5259 70.2135 87.202 70.6299C86.8897 71.0463 86.3866 71.2545 85.6926 71.2545C85.2531 71.2545 84.8656 71.162 84.5302 70.9769C84.1947 70.8034 83.9692 70.4853 83.8535 70.0227H81.4072C81.4418 70.5316 81.5807 70.9654 81.8236 71.3239C82.078 71.6941 82.3903 71.9948 82.7604 72.2261C83.1421 72.4575 83.5586 72.6252 84.0097 72.7293C84.4723 72.8449 84.9234 72.9028 85.3629 72.9028C86.3924 72.9028 87.2136 72.764 87.8266 72.4864C88.4397 72.2088 88.9081 71.8676 89.232 71.4627C89.5559 71.0695 89.7641 70.6415 89.8566 70.1788C89.9607 69.7162 90.0127 69.3055 90.0127 68.947Z" fill="white"/>
<path d="M98.5161 64.0716H94.5082C94.5198 63.8981 94.5545 63.7015 94.6123 63.4817C94.6817 63.262 94.7916 63.0538 94.942 62.8571C95.1039 62.6605 95.3121 62.4986 95.5666 62.3713C95.8326 62.2325 96.1623 62.1631 96.5555 62.1631C97.157 62.1631 97.6023 62.3251 97.8915 62.6489C98.1922 62.9728 98.4004 63.447 98.5161 64.0716ZM94.5082 65.6331H100.98C101.026 64.9391 100.968 64.274 100.806 63.6379C100.644 63.0017 100.378 62.4349 100.008 61.9376C99.6496 61.4402 99.187 61.0469 98.6202 60.7578C98.0534 60.457 97.3883 60.3067 96.6249 60.3067C95.9425 60.3067 95.3179 60.4281 94.7511 60.671C94.1959 60.9139 93.7159 61.2494 93.3111 61.6773C92.9063 62.0937 92.594 62.5911 92.3742 63.1694C92.1544 63.7478 92.0445 64.3724 92.0445 65.0432C92.0445 65.7372 92.1486 66.3734 92.3568 66.9517C92.5766 67.5301 92.8831 68.0274 93.2764 68.4438C93.6697 68.8602 94.1497 69.1841 94.7164 69.4154C95.2832 69.6352 95.9194 69.7451 96.6249 69.7451C97.6428 69.7451 98.5103 69.5137 99.2274 69.0511C99.9446 68.5884 100.477 67.8192 100.824 66.7435H98.6549C98.5739 67.0211 98.3542 67.2872 97.9956 67.5416C97.637 67.7845 97.2091 67.906 96.7117 67.906C96.0177 67.906 95.4856 67.7267 95.1155 67.3681C94.7454 67.0096 94.5429 66.4312 94.5082 65.6331Z" fill="white"/>
<path d="M103.183 57.1319V69.5198H105.734V61.2265H105.768L110.921 69.5198H113.645V57.1319H111.095V65.4425H111.06L105.89 57.1319H103.183Z" fill="#00C26F"/>
<path d="M118.711 63.3779C118.711 62.8342 118.769 62.3079 118.885 61.799C119.012 61.2901 119.209 60.839 119.475 60.4457C119.741 60.0409 120.088 59.7228 120.516 59.4915C120.944 59.2486 121.464 59.1271 122.077 59.1271C122.69 59.1271 123.211 59.2486 123.639 59.4915C124.067 59.7228 124.414 60.0409 124.68 60.4457C124.946 60.839 125.136 61.2901 125.252 61.799C125.379 62.3079 125.443 62.8342 125.443 63.3779C125.443 63.8984 125.379 64.4073 125.252 64.9047C125.136 65.3905 124.946 65.83 124.68 66.2233C124.414 66.6165 124.067 66.9346 123.639 67.1775C123.211 67.4088 122.69 67.5245 122.077 67.5245C121.464 67.5245 120.944 67.4088 120.516 67.1775C120.088 66.9346 119.741 66.6165 119.475 66.2233C119.209 65.83 119.012 65.3905 118.885 64.9047C118.769 64.4073 118.711 63.8984 118.711 63.3779ZM115.987 63.3779C115.987 64.2801 116.126 65.1244 116.404 65.911C116.681 66.6859 117.08 67.3626 117.601 67.9409C118.121 68.5192 118.757 68.9761 119.509 69.3116C120.273 69.6354 121.129 69.7974 122.077 69.7974C123.037 69.7974 123.893 69.6354 124.645 69.3116C125.397 68.9761 126.033 68.5192 126.553 67.9409C127.074 67.3626 127.473 66.6859 127.751 65.911C128.028 65.1244 128.167 64.2801 128.167 63.3779C128.167 62.4525 128.028 61.5966 127.751 60.8101C127.473 60.012 127.074 59.318 126.553 58.7281C126.033 58.1382 125.397 57.6755 124.645 57.3401C123.893 57.0046 123.037 56.8369 122.077 56.8369C121.129 56.8369 120.273 57.0046 119.509 57.3401C118.757 57.6755 118.121 58.1382 117.601 58.7281C117.08 59.318 116.681 60.012 116.404 60.8101C116.126 61.5966 115.987 62.4525 115.987 63.3779Z" fill="#00C26F"/>
<path d="M142.309 69.5198L145.64 57.1319H142.968L140.938 65.6681H140.904L138.787 57.1319H136.236L134.085 65.564H134.05L132.09 57.1319H129.366L132.645 69.5198H135.404L137.468 61.0877H137.503L139.602 69.5198H142.309Z" fill="#00C26F"/>
<path fill-rule="evenodd" clip-rule="evenodd" d="M337.642 54.844C337.642 54.309 337.208 53.8752 336.673 53.8752C336.138 53.8752 335.704 54.309 335.704 54.844V65.4912C334.265 65.9102 333.212 67.2394 333.212 68.8143C333.212 70.3892 334.265 71.7184 335.704 72.1374V75.3142C335.704 75.8493 336.138 76.283 336.673 76.283C337.208 76.283 337.642 75.8493 337.642 75.3142V72.1374C339.081 71.7184 340.134 70.3892 340.134 68.8143C340.134 67.2393 339.081 65.9101 337.642 65.4912V54.844ZM338.196 68.8143C338.196 69.6295 337.556 70.2951 336.75 70.3354C336.725 70.3334 336.699 70.3323 336.673 70.3323C336.647 70.3323 336.621 70.3334 336.595 70.3354C335.79 70.295 335.15 69.6294 335.15 68.8143C335.15 67.9731 335.832 67.2912 336.673 67.2912C337.514 67.2912 338.196 67.9731 338.196 68.8143Z" fill="white"/>
<path fill-rule="evenodd" clip-rule="evenodd" d="M324.913 61.6219C324.913 60.047 325.965 58.7178 327.405 58.2988V54.844C327.405 54.309 327.839 53.8752 328.374 53.8752C328.909 53.8752 329.342 54.309 329.342 54.844V58.2988C330.782 58.7178 331.834 60.047 331.834 61.6219C331.834 63.1969 330.782 64.5261 329.342 64.9451V75.3142C329.342 75.8493 328.909 76.283 328.374 76.283C327.839 76.283 327.405 75.8493 327.405 75.3142V64.945C325.965 64.526 324.913 63.1969 324.913 61.6219ZM328.451 63.1431C328.426 63.141 328.4 63.14 328.374 63.14C328.348 63.14 328.322 63.141 328.296 63.143C327.491 63.1027 326.851 62.4371 326.851 61.6219C326.851 60.7808 327.533 60.0989 328.374 60.0989C329.215 60.0989 329.897 60.7808 329.897 61.6219C329.897 62.4371 329.256 63.1027 328.451 63.1431Z" fill="white"/>
<path fill-rule="evenodd" clip-rule="evenodd" d="M319.106 65.4912C317.666 65.9102 316.614 67.2394 316.614 68.8143C316.614 70.3892 317.666 71.7184 319.106 72.1374V75.3142C319.106 75.8493 319.539 76.283 320.075 76.283C320.61 76.283 321.043 75.8493 321.043 75.3142V72.1374C322.483 71.7184 323.535 70.3892 323.535 68.8143C323.535 67.2393 322.483 65.9101 321.043 65.4912V54.844C321.043 54.309 320.61 53.8752 320.075 53.8752C319.539 53.8752 319.106 54.309 319.106 54.844V65.4912ZM318.552 68.8143C318.552 69.6294 319.192 70.295 319.997 70.3354C320.023 70.3334 320.048 70.3323 320.075 70.3323C320.101 70.3323 320.126 70.3334 320.152 70.3354C320.957 70.2951 321.598 69.6295 321.598 68.8143C321.598 67.9731 320.916 67.2912 320.075 67.2912C319.233 67.2912 318.552 67.9731 318.552 68.8143Z" fill="white"/>
<path fill-rule="evenodd" clip-rule="evenodd" d="M279.021 56.2689C280.482 55.2622 282.472 56.3078 282.472 58.0819V73.4242C282.472 75.1447 280.587 76.2005 279.12 75.3017L272.835 71.4515C272.818 71.4412 272.799 71.435 272.78 71.4332L268.246 71.0183C267.188 70.9215 266.377 70.0337 266.377 68.9707V67.814C266.266 67.8349 266.151 67.8458 266.034 67.8458C265.008 67.8458 264.177 67.0144 264.177 65.9888C264.177 64.9633 265.008 64.1319 266.034 64.1319C266.151 64.1319 266.266 64.1428 266.377 64.1636V63.0311C266.377 61.9681 267.188 61.0803 268.246 60.9834L272.749 60.5714C272.771 60.5694 272.792 60.5618 272.81 60.5493L279.021 56.2689ZM280.544 58.0819C280.544 57.861 280.297 57.7309 280.115 57.8562L273.904 62.1366C273.613 62.3369 273.276 62.459 272.924 62.4912L268.422 62.9032C268.356 62.9092 268.305 62.9647 268.305 63.0311V68.9707C268.305 69.0371 268.356 69.0925 268.422 69.0986L272.956 69.5134C273.27 69.5422 273.573 69.6429 273.842 69.8077L280.127 73.6579C280.31 73.7697 280.544 73.6383 280.544 73.4242V58.0819Z" fill="white"/>
<path d="M267.684 73.7235C267.762 73.197 268.253 72.834 268.78 72.9127L272.938 73.5344C273.465 73.6131 273.828 74.1037 273.749 74.6302C273.671 75.1567 273.18 75.5197 272.653 75.441L268.495 74.8193C267.968 74.7406 267.605 74.2499 267.684 73.7235Z" fill="white"/>
<rect x="278" y="61" width="23" height="10" rx="5" fill="#00C26F"/>
<path d="M282.462 68.8757H281.454V63.8416H282.333L284.684 67.1209H284.712V63.8416H285.72V68.8757H284.848L282.493 65.5789H282.462V68.8757Z" fill="#35354C"/>
<path d="M290.611 68.0035V68.8757H287.275V63.8416H290.611V64.7102H288.329V65.9243H290.482V66.7336H288.329V68.0035H290.611Z" fill="#35354C"/>
<path d="M295.1 65.4359L294.144 68.8757H293.15L291.817 63.8416H292.909L293.701 67.4872H293.729L294.671 63.8416H295.56L296.502 67.4872H296.53L297.326 63.8416H298.418L297.081 68.8757H296.087L295.131 65.4359H295.1Z" fill="#35354C"/>
<rect x="27" y="515" width="315.845" height="39.4496" rx="19.7248" fill="#00C26F"/>
<path d="M145.817 529.3V541H154.698V538.837H148.39V535.969H154.059V533.97H148.39V531.463H154.567V529.3H145.817ZM158.842 536.543L155.794 541H158.399L160.169 538.329L161.939 541H164.593L161.463 536.494L164.249 532.528H161.676L160.202 534.741L158.711 532.528H156.056L158.842 536.543ZM171.73 535.511H174.007C173.975 534.964 173.843 534.495 173.614 534.101C173.385 533.697 173.084 533.364 172.713 533.102C172.352 532.829 171.937 532.627 171.467 532.496C171.009 532.365 170.528 532.299 170.025 532.299C169.337 532.299 168.726 532.414 168.19 532.643C167.655 532.872 167.202 533.195 166.83 533.61C166.459 534.014 166.175 534.5 165.978 535.068C165.792 535.625 165.7 536.232 165.7 536.887C165.7 537.521 165.803 538.105 166.011 538.64C166.218 539.165 166.508 539.618 166.879 540C167.251 540.383 167.699 540.683 168.223 540.902C168.758 541.109 169.343 541.213 169.976 541.213C171.102 541.213 172.025 540.918 172.746 540.328C173.467 539.738 173.904 538.881 174.056 537.756H171.812C171.735 538.28 171.544 538.7 171.238 539.017C170.943 539.323 170.517 539.476 169.96 539.476C169.599 539.476 169.294 539.394 169.042 539.23C168.791 539.066 168.589 538.859 168.436 538.608C168.294 538.345 168.19 538.056 168.125 537.739C168.059 537.422 168.026 537.111 168.026 536.805C168.026 536.488 168.059 536.172 168.125 535.855C168.19 535.527 168.299 535.232 168.452 534.97C168.616 534.697 168.824 534.478 169.075 534.314C169.326 534.14 169.638 534.052 170.009 534.052C171.003 534.052 171.577 534.538 171.73 535.511ZM175.853 529.3V541H178.18V536.559C178.18 535.696 178.322 535.079 178.606 534.708C178.89 534.325 179.349 534.134 179.982 534.134C180.539 534.134 180.927 534.309 181.146 534.659C181.364 534.997 181.473 535.516 181.473 536.215V541H183.8V535.789C183.8 535.265 183.751 534.79 183.653 534.364C183.565 533.927 183.407 533.561 183.177 533.266C182.948 532.96 182.631 532.725 182.227 532.561C181.834 532.386 181.326 532.299 180.703 532.299C180.266 532.299 179.818 532.414 179.36 532.643C178.901 532.862 178.524 533.217 178.229 533.708H178.18V529.3H175.853ZM185.95 535.134C185.983 534.588 186.119 534.134 186.359 533.774C186.6 533.413 186.906 533.124 187.277 532.905C187.648 532.687 188.064 532.534 188.522 532.446C188.992 532.348 189.462 532.299 189.932 532.299C190.358 532.299 190.789 532.332 191.226 532.397C191.663 532.452 192.062 532.567 192.422 532.741C192.783 532.916 193.078 533.162 193.307 533.479C193.537 533.785 193.651 534.194 193.651 534.708V539.116C193.651 539.498 193.673 539.864 193.717 540.213C193.76 540.563 193.837 540.825 193.946 541H191.587C191.543 540.869 191.505 540.738 191.472 540.607C191.45 540.465 191.434 540.323 191.423 540.181C191.051 540.563 190.614 540.831 190.112 540.984C189.609 541.137 189.096 541.213 188.572 541.213C188.167 541.213 187.79 541.164 187.441 541.066C187.091 540.967 186.785 540.814 186.523 540.607C186.261 540.399 186.054 540.137 185.901 539.82C185.759 539.503 185.688 539.127 185.688 538.69C185.688 538.209 185.77 537.816 185.933 537.51C186.108 537.193 186.327 536.942 186.589 536.756C186.862 536.57 187.168 536.434 187.506 536.346C187.856 536.248 188.206 536.172 188.555 536.117C188.905 536.062 189.249 536.019 189.587 535.986C189.926 535.953 190.227 535.904 190.489 535.838C190.751 535.773 190.958 535.68 191.111 535.56C191.264 535.429 191.335 535.243 191.324 535.003C191.324 534.751 191.281 534.555 191.193 534.413C191.117 534.26 191.008 534.145 190.866 534.069C190.735 533.981 190.576 533.927 190.39 533.905C190.216 533.872 190.024 533.856 189.817 533.856C189.358 533.856 188.998 533.954 188.735 534.151C188.473 534.347 188.32 534.675 188.277 535.134H185.95ZM191.324 536.854C191.226 536.942 191.1 537.013 190.948 537.067C190.806 537.111 190.647 537.149 190.472 537.182C190.308 537.215 190.134 537.242 189.948 537.264C189.762 537.286 189.577 537.313 189.391 537.346C189.216 537.379 189.041 537.422 188.866 537.477C188.703 537.532 188.555 537.608 188.424 537.706C188.304 537.794 188.206 537.908 188.129 538.051C188.053 538.193 188.014 538.373 188.014 538.591C188.014 538.799 188.053 538.974 188.129 539.116C188.206 539.258 188.309 539.372 188.44 539.46C188.572 539.536 188.724 539.591 188.899 539.624C189.074 539.656 189.254 539.673 189.44 539.673C189.899 539.673 190.254 539.596 190.505 539.443C190.756 539.29 190.942 539.11 191.062 538.903C191.182 538.684 191.253 538.466 191.275 538.247C191.308 538.029 191.324 537.854 191.324 537.723V536.854ZM195.939 532.528V541H198.266V536.559C198.266 535.696 198.408 535.079 198.692 534.708C198.976 534.325 199.435 534.134 200.069 534.134C200.626 534.134 201.013 534.309 201.232 534.659C201.45 534.997 201.56 535.516 201.56 536.215V541H203.887V535.789C203.887 535.265 203.837 534.79 203.739 534.364C203.652 533.927 203.493 533.561 203.264 533.266C203.034 532.96 202.718 532.725 202.313 532.561C201.92 532.386 201.412 532.299 200.79 532.299C200.298 532.299 199.817 532.414 199.348 532.643C198.878 532.862 198.495 533.217 198.201 533.708H198.151V532.528H195.939ZM210.084 539.001C209.723 539.001 209.423 538.924 209.182 538.771C208.942 538.619 208.745 538.422 208.592 538.182C208.45 537.941 208.347 537.674 208.281 537.379C208.226 537.073 208.199 536.767 208.199 536.461C208.199 536.144 208.232 535.844 208.297 535.56C208.374 535.265 208.489 535.008 208.642 534.79C208.805 534.56 209.002 534.38 209.231 534.249C209.472 534.118 209.756 534.052 210.084 534.052C210.466 534.052 210.783 534.123 211.034 534.265C211.285 534.407 211.487 534.598 211.64 534.839C211.793 535.079 211.902 535.358 211.968 535.675C212.033 535.98 212.066 536.308 212.066 536.658C212.066 536.964 212.023 537.259 211.935 537.543C211.859 537.816 211.739 538.061 211.575 538.28C211.411 538.498 211.203 538.673 210.952 538.804C210.701 538.935 210.411 539.001 210.084 539.001ZM214.278 540.459V532.528H212.066V533.659H212.033C211.749 533.167 211.394 532.818 210.968 532.61C210.553 532.403 210.067 532.299 209.51 532.299C208.92 532.299 208.396 532.414 207.937 532.643C207.489 532.872 207.112 533.184 206.806 533.577C206.5 533.959 206.266 534.407 206.102 534.921C205.949 535.423 205.872 535.948 205.872 536.494C205.872 537.073 205.938 537.624 206.069 538.149C206.211 538.662 206.429 539.116 206.724 539.509C207.019 539.891 207.396 540.197 207.855 540.426C208.314 540.645 208.86 540.754 209.494 540.754C210.007 540.754 210.493 540.65 210.952 540.443C211.422 540.224 211.782 539.891 212.033 539.443H212.066V540.558C212.077 541.158 211.93 541.655 211.624 542.049C211.329 542.442 210.854 542.639 210.198 542.639C209.783 542.639 209.417 542.551 209.1 542.376C208.784 542.213 208.571 541.912 208.461 541.475H206.151C206.184 541.956 206.315 542.366 206.544 542.704C206.784 543.054 207.079 543.338 207.429 543.556C207.789 543.775 208.183 543.933 208.609 544.031C209.046 544.141 209.472 544.195 209.887 544.195C210.859 544.195 211.635 544.064 212.214 543.802C212.793 543.54 213.235 543.218 213.541 542.835C213.847 542.464 214.043 542.06 214.131 541.623C214.229 541.186 214.278 540.798 214.278 540.459ZM222.336 535.855H218.551C218.562 535.691 218.595 535.505 218.649 535.298C218.715 535.09 218.819 534.893 218.961 534.708C219.113 534.522 219.31 534.369 219.55 534.249C219.802 534.118 220.113 534.052 220.484 534.052C221.052 534.052 221.473 534.205 221.746 534.511C222.03 534.817 222.227 535.265 222.336 535.855ZM218.551 537.33H224.663C224.707 536.674 224.652 536.046 224.499 535.445C224.346 534.844 224.095 534.309 223.745 533.839C223.407 533.37 222.97 532.998 222.434 532.725C221.899 532.441 221.271 532.299 220.55 532.299C219.905 532.299 219.316 532.414 218.78 532.643C218.256 532.872 217.803 533.189 217.42 533.593C217.038 533.987 216.743 534.456 216.535 535.003C216.328 535.549 216.224 536.139 216.224 536.772C216.224 537.428 216.322 538.029 216.519 538.575C216.727 539.121 217.016 539.591 217.387 539.984C217.759 540.377 218.212 540.683 218.747 540.902C219.283 541.109 219.884 541.213 220.55 541.213C221.511 541.213 222.331 540.995 223.008 540.558C223.685 540.121 224.188 539.394 224.515 538.378H222.467C222.391 538.64 222.183 538.892 221.844 539.132C221.506 539.361 221.102 539.476 220.632 539.476C219.976 539.476 219.474 539.307 219.124 538.968C218.775 538.629 218.584 538.083 218.551 537.33Z" fill="white"/>
<path fill-rule="evenodd" clip-rule="evenodd" d="M200.412 182.058C200.398 182.366 200.642 182.627 200.956 182.641L203.694 182.762L203.683 185.451C203.682 185.76 203.936 186.011 204.25 186.012C204.565 186.013 204.82 185.764 204.822 185.456L204.834 182.23C204.836 181.93 204.596 181.683 204.291 181.67L201.006 181.525C200.692 181.512 200.426 181.75 200.412 182.058Z" fill="#00C26F"/>
<path fill-rule="evenodd" clip-rule="evenodd" d="M195.531 190.39C195.314 190.167 195.366 189.774 195.646 189.512L203.578 182.098C203.858 181.837 204.261 181.806 204.477 182.029C204.694 182.252 204.643 182.646 204.363 182.907L196.431 190.321C196.151 190.583 195.748 190.614 195.531 190.39Z" fill="url(#paint0_linear)"/>
</g>
<defs>
<filter id="filter0_d" x="17.7832" y="100.714" width="335.433" height="80.9667" filterUnits="userSpaceOnUse" color-interpolation-filters="sRGB">
<feFlood flood-opacity="0" result="BackgroundImageFix"/>
<feColorMatrix in="SourceAlpha" type="matrix" values="0 0 0 0 0 0 0 0 0 0 0 0 0 0 0 0 0 0 127 0"/>
<feOffset dy="4.81944"/>
<feGaussianBlur stdDeviation="4.81944"/>
<feColorMatrix type="matrix" values="0 0 0 0 0.807843 0 0 0 0 0.807843 0 0 0 0 0.827451 0 0 0 0.5 0"/>
<feBlend mode="normal" in2="BackgroundImageFix" result="effect1_dropShadow"/>
<feBlend mode="normal" in="SourceGraphic" in2="effect1_dropShadow" result="shape"/>
</filter>
<filter id="filter1_d" x="17.7832" y="196.139" width="335.433" height="80.9667" filterUnits="userSpaceOnUse" color-interpolation-filters="sRGB">
<feFlood flood-opacity="0" result="BackgroundImageFix"/>
<feColorMatrix in="SourceAlpha" type="matrix" values="0 0 0 0 0 0 0 0 0 0 0 0 0 0 0 0 0 0 127 0"/>
<feOffset dy="4.81944"/>
<feGaussianBlur stdDeviation="4.81944"/>
<feColorMatrix type="matrix" values="0 0 0 0 0.807843 0 0 0 0 0.807843 0 0 0 0 0.827451 0 0 0 0.5 0"/>
<feBlend mode="normal" in2="BackgroundImageFix" result="effect1_dropShadow"/>
<feBlend mode="normal" in="SourceGraphic" in2="effect1_dropShadow" result="shape"/>
</filter>
<linearGradient id="paint0_linear" x1="203.267" y1="182.149" x2="195.836" y2="190.064" gradientUnits="userSpaceOnUse">
<stop stop-color="#00C26F"/>
<stop offset="0.75" stop-color="#00C26F"/>
<stop offset="1" stop-color="#00C26F" stop-opacity="0"/>
</linearGradient>
<clipPath id="clip0">
<rect x="12" y="13" width="347" height="617" rx="33" fill="white"/>
</clipPath>
<clipPath id="clip1">
<rect width="20" height="20" fill="white" transform="translate(301 126)"/>
</clipPath>
<clipPath id="clip2">
<rect width="30.0689" height="14.8276" fill="white" transform="translate(311.152 20.908)"/>
</clipPath>
</defs>
</svg>
