<svg width="186" height="24" viewBox="0 0 186 24" fill="none" xmlns="http://www.w3.org/2000/svg">
<path d="M23.3365 7.42065H31.9654V9.02703H28.5679V18.0824H26.7056V9.02703H23.3223L23.3365 7.42065ZM31.5958 10.3633H33.188V11.856H33.2164C33.2733 11.6427 33.3728 11.4437 33.5149 11.2447C33.6571 11.0457 33.8277 10.8609 34.0409 10.7045C34.2399 10.5339 34.4674 10.406 34.7233 10.3064C34.9649 10.2069 35.2208 10.1501 35.4767 10.1501C35.6757 10.1501 35.8179 10.1643 35.889 10.1643C35.96 10.1785 36.0453 10.1927 36.1164 10.1927V11.8275C36.0027 11.7991 35.8747 11.7849 35.7468 11.7707C35.6189 11.7564 35.5051 11.7422 35.3772 11.7422C35.0929 11.7422 34.8228 11.7991 34.5669 11.9128C34.311 12.0265 34.0978 12.1971 33.8988 12.4104C33.714 12.6378 33.5576 12.9079 33.4439 13.2349C33.3301 13.5618 33.2733 13.9457 33.2733 14.3721V18.0398H31.5674L31.5958 10.3633ZM43.9351 18.0824H42.2576V17.002H42.2292C42.0159 17.4001 41.7032 17.6986 41.2909 17.9403C40.8787 18.182 40.4522 18.2957 40.0257 18.2957C39.0164 18.2957 38.2772 18.054 37.8223 17.5422C37.3674 17.0447 37.1399 16.277 37.1399 15.2677V10.3633H38.8458V15.0971C38.8458 15.7795 38.9738 16.2628 39.2439 16.5329C39.4998 16.8172 39.8694 16.9594 40.3385 16.9594C40.6939 16.9594 40.9924 16.9025 41.2341 16.7888C41.4757 16.6751 41.6748 16.5329 41.8169 16.3481C41.9733 16.1633 42.0728 15.9359 42.1439 15.68C42.215 15.4241 42.2434 15.1398 42.2434 14.8413V10.3633H43.9493V18.0824H43.9351ZM46.8351 15.6089C46.8919 16.1065 47.0767 16.4476 47.4037 16.6609C47.7307 16.8599 48.1287 16.9594 48.5836 16.9594C48.74 16.9594 48.9248 16.9452 49.1238 16.9168C49.3228 16.8883 49.5218 16.8457 49.6924 16.7746C49.8772 16.7035 50.0194 16.604 50.1331 16.4618C50.2468 16.3197 50.3037 16.1491 50.2895 15.9359C50.2753 15.7226 50.2042 15.5378 50.0478 15.3957C49.8914 15.2535 49.7066 15.154 49.4792 15.0545C49.2517 14.9692 48.9816 14.8981 48.6831 14.8413C48.3846 14.7844 48.086 14.7133 47.7733 14.6422C47.4606 14.5712 47.1478 14.4859 46.8493 14.3864C46.5507 14.2868 46.2949 14.1589 46.0532 13.9741C45.8257 13.8035 45.6267 13.5903 45.4988 13.3202C45.3566 13.0501 45.2856 12.7373 45.2856 12.3393C45.2856 11.9128 45.3851 11.5716 45.5983 11.2873C45.7973 11.003 46.0674 10.7756 46.3802 10.605C46.6929 10.4344 47.0483 10.3064 47.4321 10.2354C47.8159 10.1643 48.1856 10.1359 48.5267 10.1359C48.9248 10.1359 49.3086 10.1785 49.664 10.2638C50.0194 10.3491 50.3606 10.477 50.6449 10.6761C50.9434 10.8609 51.1851 11.1167 51.3699 11.4153C51.5689 11.7138 51.6826 12.0834 51.7395 12.5099H49.9625C49.8772 12.0976 49.6924 11.8275 49.4081 11.6854C49.1096 11.5432 48.7826 11.4721 48.3988 11.4721C48.2851 11.4721 48.1287 11.4863 47.9723 11.5006C47.8017 11.529 47.6596 11.5574 47.5032 11.6143C47.361 11.6712 47.2331 11.7564 47.1336 11.856C47.0341 11.9555 46.9772 12.0976 46.9772 12.2682C46.9772 12.4814 47.0483 12.6378 47.1905 12.7658C47.3326 12.8937 47.5174 12.9932 47.7591 13.0927C47.9865 13.178 48.2566 13.2491 48.5552 13.306C48.8537 13.3628 49.1664 13.4339 49.4792 13.505C49.7919 13.5761 50.0905 13.6614 50.389 13.7609C50.6875 13.8604 50.9576 13.9883 51.1851 14.1731C51.4125 14.3437 51.6115 14.5569 51.7537 14.8128C51.8959 15.0687 51.9669 15.3957 51.9669 15.7653C51.9669 16.2202 51.8674 16.604 51.6542 16.931C51.441 17.2437 51.1709 17.5138 50.8439 17.7128C50.5169 17.9119 50.1331 18.054 49.7351 18.1535C49.3228 18.2388 48.9248 18.2957 48.5267 18.2957C48.0434 18.2957 47.5885 18.2388 47.1762 18.1251C46.764 18.0114 46.3944 17.8408 46.0958 17.6275C45.7973 17.4001 45.5556 17.13 45.3851 16.7888C45.2145 16.4619 45.115 16.0638 45.1007 15.5947H46.8208V15.6089H46.8351ZM52.4503 10.3633H53.7439V8.03193H55.4498V10.3491H56.9851V11.6143H55.4498V15.7369C55.4498 15.9217 55.464 16.0638 55.4782 16.206C55.4924 16.3339 55.5351 16.4476 55.5777 16.5329C55.6346 16.6182 55.7199 16.6893 55.8194 16.732C55.9331 16.7746 56.0753 16.803 56.2743 16.803C56.388 16.803 56.516 16.803 56.6297 16.7888C56.7434 16.7746 56.8714 16.7604 56.9851 16.732V18.054C56.8003 18.0824 56.6155 18.0967 56.4307 18.1109C56.2459 18.1393 56.0753 18.1393 55.8763 18.1393C55.4214 18.1393 55.066 18.0967 54.7959 18.0114C54.5258 17.9261 54.3125 17.7981 54.1562 17.6418C53.9998 17.4712 53.9003 17.2721 53.8434 17.0305C53.7865 16.7888 53.7581 16.4903 53.7439 16.1775V11.6285H52.4503V10.3349V10.3633ZM58.1792 10.3633H59.7856V11.4153H59.814C60.0557 10.9604 60.3826 10.6476 60.8091 10.4486C61.2356 10.2496 61.6905 10.1501 62.2023 10.1501C62.8135 10.1501 63.3395 10.2496 63.7944 10.477C64.2493 10.6903 64.6189 10.9746 64.9175 11.3584C65.216 11.728 65.4434 12.1687 65.5856 12.6663C65.7278 13.1638 65.813 13.704 65.813 14.2584C65.813 14.7844 65.742 15.2819 65.614 15.7653C65.4719 16.2486 65.2728 16.6893 65.0028 17.0589C64.7327 17.4285 64.3915 17.727 63.965 17.9545C63.5385 18.182 63.0552 18.2957 62.4866 18.2957C62.2449 18.2957 61.989 18.2672 61.7473 18.2246C61.5057 18.182 61.264 18.1109 61.0366 18.0114C60.8091 17.9119 60.5959 17.7839 60.4111 17.6275C60.2121 17.4712 60.0557 17.2864 59.9277 17.0873H59.8993V20.9398H58.1934V10.3633H58.1792ZM64.1356 14.23C64.1356 13.8888 64.0929 13.5476 63.9934 13.2207C63.9081 12.8937 63.766 12.6094 63.5812 12.3535C63.3964 12.0976 63.1689 11.8986 62.913 11.7422C62.6429 11.5859 62.3302 11.5148 61.989 11.5148C61.2782 11.5148 60.738 11.7564 60.3684 12.254C60.013 12.7515 59.8282 13.4197 59.8282 14.2442C59.8282 14.6422 59.8709 14.9976 59.9704 15.3246C60.0699 15.6516 60.1978 15.9359 60.3969 16.1775C60.5817 16.4192 60.8091 16.604 61.0792 16.7462C61.3493 16.8883 61.6478 16.9594 62.0032 16.9594C62.4013 16.9594 62.714 16.8741 62.9841 16.7177C63.2542 16.5614 63.4675 16.3481 63.6523 16.1065C63.8228 15.8506 63.9508 15.5663 64.0219 15.2393C64.0929 14.8981 64.1356 14.5712 64.1356 14.23ZM67.1351 7.42065H68.841V9.02703H67.1351V7.42065ZM67.1351 10.3633H68.841V18.0824H67.1351V10.3633ZM70.3621 7.42065H72.068V18.0824H70.3621V7.42065ZM77.2709 18.2957C76.6596 18.2957 76.1052 18.1962 75.6219 17.9829C75.1386 17.7697 74.7405 17.4996 74.3993 17.1442C74.0724 16.7888 73.8165 16.3481 73.6459 15.8506C73.4753 15.353 73.3758 14.7986 73.3758 14.2158C73.3758 13.6329 73.4611 13.0927 73.6459 12.5952C73.8165 12.0976 74.0724 11.6712 74.3993 11.3015C74.7263 10.9462 75.1386 10.6618 75.6219 10.4628C76.1052 10.2638 76.6596 10.1501 77.2709 10.1501C77.8822 10.1501 78.4366 10.2496 78.9199 10.4628C79.4033 10.6618 79.8013 10.9462 80.1425 11.3015C80.4695 11.6569 80.7253 12.0976 80.8959 12.5952C81.0665 13.0927 81.166 13.6329 81.166 14.2158C81.166 14.8128 81.0807 15.353 80.8959 15.8506C80.7111 16.3481 80.4695 16.7746 80.1425 17.1442C79.8155 17.4996 79.4033 17.7839 78.9199 17.9829C78.4366 18.182 77.8964 18.2957 77.2709 18.2957ZM77.2709 16.9452C77.6405 16.9452 77.9817 16.8599 78.2518 16.7035C78.5361 16.5471 78.7493 16.3339 78.9342 16.078C79.119 15.8221 79.2469 15.5236 79.3322 15.2109C79.4175 14.8839 79.4601 14.5569 79.4601 14.2158C79.4601 13.8888 79.4175 13.5618 79.3322 13.2349C79.2469 12.9079 79.119 12.6236 78.9342 12.3677C78.7493 12.1118 78.5219 11.9128 78.2518 11.7564C77.9675 11.6001 77.6405 11.5148 77.2709 11.5148C76.9013 11.5148 76.5601 11.6001 76.29 11.7564C76.0057 11.9128 75.7925 12.1261 75.6077 12.3677C75.4229 12.6236 75.2949 12.9079 75.2096 13.2349C75.1243 13.5618 75.0817 13.8888 75.0817 14.2158C75.0817 14.5569 75.1243 14.8839 75.2096 15.2109C75.2949 15.5378 75.4229 15.8221 75.6077 16.078C75.7925 16.3339 76.0199 16.5471 76.29 16.7035C76.5743 16.8741 76.9013 16.9452 77.2709 16.9452ZM81.6778 10.3633H82.9714V8.03193H84.6773V10.3491H86.2126V11.6143H84.6773V15.7369C84.6773 15.9217 84.6915 16.0638 84.7057 16.206C84.72 16.3339 84.7626 16.4476 84.8052 16.5329C84.8621 16.6182 84.9474 16.6893 85.0469 16.732C85.1606 16.7746 85.3028 16.803 85.5018 16.803C85.6155 16.803 85.7435 16.803 85.8572 16.7888C85.9709 16.7746 86.0989 16.7604 86.2126 16.732V18.054C86.0278 18.0824 85.843 18.0967 85.6582 18.1109C85.4734 18.1393 85.3028 18.1393 85.1038 18.1393C84.6489 18.1393 84.2935 18.0967 84.0234 18.0114C83.7533 17.9261 83.54 17.7981 83.3837 17.6418C83.2273 17.4712 83.1278 17.2721 83.0709 17.0305C83.0141 16.7888 82.9856 16.4903 82.9714 16.1775V11.6285H81.6778V10.3349V10.3633Z" fill="white"/>
<path d="M97.1814 4.41248H113.181V20.4125H97.1814V4.41248Z" fill="#00B67A"/>
<path d="M115.181 4.41248H131.181V20.4125H115.181V4.41248Z" fill="#00B67A"/>
<path d="M149.181 4.41248H133.181V20.4125H149.181V4.41248Z" fill="#00B67A"/>
<path d="M151.181 4.41248H167.181V20.4125H151.181V4.41248Z" fill="#00B67A"/>
<path d="M185.181 4.41248H169.181V20.4125H185.181V4.41248Z" fill="#00B67A"/>
<path d="M13.542 7.42061H21.3464L16.9344 10.6204L16.9321 10.6133L12.4957 13.8353L15.3865 13.0848L17.4371 19.4187L11.1253 14.827L4.81356 19.4187L7.23024 11.9981L0.918457 7.40639L8.72289 7.42061L11.1396 0L13.542 7.42061Z" fill="#00B67A"/>
<path d="M106.524 11.137H110.874L108.415 12.9202L108.413 12.9162L105.941 14.7119L107.552 14.2936L108.695 17.8235L105.177 15.2645L101.66 17.8235L103.007 13.688L99.489 11.129L103.838 11.137L105.185 7.00146L106.524 11.137Z" fill="white"/>
<path d="M142.524 11.137H146.874L144.415 12.9202L144.414 12.9162L141.941 14.7119L143.552 14.2936L144.695 17.8235L141.178 15.2645L137.66 17.8235L139.007 13.688L135.489 11.129L139.839 11.137L141.185 7.00146L142.524 11.137Z" fill="white"/>
<path d="M128.874 11.137H124.524L123.185 7.00146L121.839 11.137L117.489 11.129L121.007 13.688L119.66 17.8235L123.178 15.2645L126.695 17.8235L125.552 14.2936L123.941 14.7119L126.414 12.9162L126.415 12.9202L128.874 11.137Z" fill="white"/>
<path d="M160.524 11.137H164.874L162.415 12.9202L162.414 12.9162L159.941 14.7119L161.552 14.2936L162.695 17.8235L159.178 15.2645L155.66 17.8235L157.007 13.688L153.489 11.129L157.839 11.137L159.185 7.00146L160.524 11.137Z" fill="white"/>
<path d="M182.874 11.137H178.524L177.185 7.00146L175.839 11.137L171.489 11.129L175.007 13.688L173.66 17.8235L177.178 15.2645L180.695 17.8235L179.552 14.2936L177.941 14.7119L180.414 12.9162L180.415 12.9202L182.874 11.137Z" fill="white"/>
</svg>
