<svg width="431" height="420" viewBox="0 0 431 420" fill="none" xmlns="http://www.w3.org/2000/svg">
    <circle cx="220.662" cy="210.197" r="160" transform="rotate(-105.43 220.662 210.197)" stroke="#00C26F" stroke-width="21"/>
    <path d="M66.7667 252.571C75.9365 285.793 94.9329 313.662 119.749 333.906" stroke="#84E8BD" stroke-width="21"/>
    <path d="M63.9995 334.5L87.3433 334.5C96.5215 344.894 106.847 353.861 118 361.336L122 356" stroke="#BFBFC3"/>
    <path d="M263.57 364.233C259.516 365.352 255.454 366.305 251.393 367.095C203.207 376.471 155.11 362.977 119.276 333.518" stroke="#2B2B36" stroke-width="21"/>
    <path d="M248.432 367.642C253.479 366.758 258.53 365.624 263.57 364.233C348.751 340.721 398.743 252.61 375.232 167.429C355.83 97.1341 292.431 50.8031 222.993 49.9709" stroke="#808086" stroke-width="21"/>
    <path d="M222.993 49.971C262.693 50.4468 300.418 65.7948 329.076 91.9906" stroke="#DADADB" stroke-width="21"/>
    <path d="M379.504 188.036C385.39 230.119 374.101 271.59 350.254 304.316" stroke="#A5A5A9" stroke-width="21"/>
    <path d="M379.503 188.036C378.543 181.171 377.126 174.291 375.232 167.429C366.923 137.324 350.543 111.614 329.076 91.9905" stroke="#BFBFC3" stroke-width="21"/>
    <path d="M29 275.5H48" stroke="#BFBFC3"/>
    <path d="M370 333H389" stroke="#BFBFC3"/>
    <path d="M409 245H428" stroke="#BFBFC3"/>
    <path d="M385 107H404" stroke="#BFBFC3"/>
    <path d="M348 33H329L322.5 42" stroke="#BFBFC3"/>
    <path d="M81 33H100L106.5 42" stroke="#BFBFC3"/>
</svg>
