<svg width="40" height="40" viewBox="0 0 40 40" fill="none" xmlns="http://www.w3.org/2000/svg">
<path fill-rule="evenodd" clip-rule="evenodd" d="M39.8806 7.73927C39.8138 7.88672 38.3567 9.4019 36.6426 11.1064C33.2742 14.4558 33.3263 14.4158 32.5244 14.2654C32.0843 14.1829 31.5494 13.6483 31.4669 13.2085C31.324 12.4472 31.3904 12.3467 33.332 10.388L35.1356 8.56857L32.6765 8.61683C28.7541 8.69386 26.1278 9.10163 23.1981 10.0885C20.4547 11.0126 18.3758 12.2137 16.6068 13.8963C15.8831 14.5847 14.8856 15.7594 14.8831 15.9265C14.8825 15.9567 15.0531 15.9481 15.2622 15.9073C15.8116 15.8 17.7939 15.8042 18.3695 15.9139C21.051 16.4249 23.0272 18.0904 23.8617 20.5423C24.9315 23.6858 23.7678 27.0675 20.9933 28.8776C20.3121 29.322 19.7148 29.581 18.7719 29.841C18.0182 30.0488 16.1192 30.0381 15.3293 29.8217C12.7599 29.1178 10.9836 27.2953 10.2686 24.6292C10.187 24.3252 10.0997 23.5126 10.0669 22.7526L10.0088 21.4121L9.06366 22.3504C6.23767 25.156 4.22654 29.0974 3.31814 33.6104C3.03477 35.018 2.91155 36.0641 2.82589 37.7868C2.76821 38.9472 2.73155 39.1838 2.57766 39.3898C2.23125 39.8535 1.94377 40 1.37989 40C0.813869 40 0.527554 39.8532 0.17828 39.3837C0.0101738 39.1577 -0.00547409 39.0163 0.00123215 37.7806C0.0164337 34.9862 0.603199 31.782 1.61354 28.9773C2.10133 27.6232 3.2238 25.2951 3.92529 24.1824C5.62005 21.4944 7.88092 19.1853 10.1722 17.8021C10.9075 17.3583 10.9076 17.3582 11.1935 16.6596C13.1033 11.994 17.8093 8.43578 24.2398 6.79495C26.9888 6.09352 29.1601 5.82221 32.5716 5.75385L35.1043 5.703L33.3163 3.90614C31.3911 1.97147 31.3239 1.86969 31.4669 1.1083C31.5494 0.668446 32.0843 0.133862 32.5244 0.0513802C33.3263 -0.0990219 33.2742 -0.138969 36.6427 3.21043C38.3832 4.94098 39.8145 6.43641 39.8842 6.597C40.0399 6.95607 40.0385 7.3903 39.8806 7.73927ZM21.1928 21.4881C21.1145 21.2351 20.8832 20.7776 20.6788 20.4717C19.7584 19.0942 18.0166 18.4251 15.9969 18.6732C15.0939 18.7841 13.5428 19.2335 13.3305 19.4457C12.936 19.84 12.7413 22.8566 13.0397 23.9518C13.5974 25.999 15.1001 27.1761 17.1557 27.1761C19.0118 27.1761 20.7501 25.8139 21.2741 23.949C21.4392 23.3618 21.3993 22.1559 21.1928 21.4881Z" fill="#DCE2EA"/>
</svg>
