<?xml version="1.0" encoding="UTF-8"?>
<svg width="98px" height="101px" viewBox="0 0 98 101" version="1.1" xmlns="http://www.w3.org/2000/svg" xmlns:xlink="http://www.w3.org/1999/xlink">
    <title>NOW Token</title>
    <g id="affilate" stroke="none" stroke-width="1" fill="none" fill-rule="evenodd">
        <g id="affilate-token-new-style" transform="translate(-227.000000, -308.000000)">
            <g id="Group" transform="translate(227.000000, 298.000000)">
                <g id="Group-2" transform="translate(0.000000, 9.000000)">
                    <circle id="Oval" fill="#2B2B37" cx="49" cy="53" r="49"></circle>
                    <path d="M23.859375,54 L19.171875,54 L19.171875,37.0898438 L23.0273438,37.0898438 L29.5546875,45.8554688 L29.6484375,45.8554688 L29.6484375,37.0898438 L34.3359375,37.0898438 L34.3359375,54 L30.5273438,54 L23.953125,45.09375 L23.859375,45.09375 L23.859375,54 Z M45.5890625,36.796875 C50.815625,36.796875 54.1085938,40.1484375 54.1085938,45.5507812 C54.1085938,50.953125 50.815625,54.2929688 45.5890625,54.2929688 C40.3507813,54.2929688 37.0695313,50.953125 37.0695313,45.5507812 C37.0695313,40.1484375 40.3625,36.796875 45.5890625,36.796875 Z M45.5890625,40.7578125 C43.5148438,40.7578125 42.1320313,42.6210938 42.1320313,45.5507812 C42.1320313,48.46875 43.503125,50.3320312 45.5890625,50.3320312 C47.675,50.3320312 49.0460938,48.46875 49.0460938,45.5507812 C49.0460938,42.6210938 47.6632813,40.7578125 45.5890625,40.7578125 Z M67.7054688,44.3203125 L65.1859375,54 L60.4984375,54 L56.1390625,37.0898438 L61.271875,37.0898438 L63.2171875,47.7773438 L63.3109375,47.7773438 L65.8304688,37.0898438 L69.6742188,37.0898438 L72.19375,47.7773438 L72.2875,47.7773438 L74.2328125,37.0898438 L79.365625,37.0898438 L75.00625,54 L70.31875,54 L67.7992188,44.3203125 L67.7054688,44.3203125 Z" id="NOW" fill="#00C26F"></path>
                    <path d="M24.8037109,73 L21.9052734,73 L21.9052734,65.4394531 L19.3076172,65.4394531 L19.3076172,63.1357422 L27.4013672,63.1357422 L27.4013672,65.4394531 L24.8037109,65.4394531 L24.8037109,73 Z M35.9445312,62.9648438 C38.9933593,62.9648438 40.9142578,64.9199219 40.9142578,68.0712891 C40.9142578,71.2226562 38.9933593,73.1708984 35.9445312,73.1708984 C32.8888671,73.1708984 30.9748046,71.2226562 30.9748046,68.0712891 C30.9748046,64.9199219 32.8957031,62.9648438 35.9445312,62.9648438 Z M35.9445312,65.2753906 C34.7345703,65.2753906 33.9279296,66.3623047 33.9279296,68.0712891 C33.9279296,69.7734375 34.7277343,70.8603516 35.9445312,70.8603516 C37.1613281,70.8603516 37.9611328,69.7734375 37.9611328,68.0712891 C37.9611328,66.3623047 37.1544921,65.2753906 35.9445312,65.2753906 Z M48.2406249,73 L45.3421874,73 L45.3421874,63.1357422 L48.2406249,63.1357422 L48.2406249,67.3193359 L48.2953124,67.3193359 L51.3441405,63.1357422 L54.3861327,63.1357422 L51.1390624,67.5175781 L54.5365233,73 L51.1664062,73 L49.0130858,69.3769531 L48.2406249,70.4160156 L48.2406249,73 Z M65.4791014,70.6962891 L65.4791014,73 L58.520117,73 L58.520117,63.1357422 L65.4791014,63.1357422 L65.4791014,65.4394531 L61.4185545,65.4394531 L61.4185545,67.0322266 L65.2261717,67.0322266 L65.2261717,69.1103516 L61.4185545,69.1103516 L61.4185545,70.6962891 L65.4791014,70.6962891 Z M72.866992,73 L70.132617,73 L70.132617,63.1357422 L72.3816404,63.1357422 L76.1892576,68.2490234 L76.2439451,68.2490234 L76.2439451,63.1357422 L78.9783201,63.1357422 L78.9783201,73 L76.7566404,73 L72.9216795,67.8046875 L72.866992,67.8046875 L72.866992,73 Z" id="TOKEN" fill="#00C26F"></path>
                    <g id="Star" transform="translate(67.000000, 0.000000)" fill="#00C26F" fill-rule="nonzero">
                        <path d="M0.623294585,15.4430572 C13.0799824,15.4430572 15.5032766,13.0392388 15.5032766,0.674204072 C15.5032766,13.0392388 17.9251884,15.4430572 30.3832946,15.4430572 C17.9251884,15.4430572 15.5032766,17.8468576 15.5032766,30.2119462 C15.5032766,17.8468576 13.0799824,15.4430572 0.623294585,15.4430572 Z" id="path1_fill"></path>
                    </g>
                    <g id="Star" transform="translate(0.000000, 80.000000)" fill="#00C26F" fill-rule="nonzero">
                        <path d="M0.382019262,9.46509955 C8.01676338,9.46509955 9.50200826,7.99179152 9.50200826,0.413221851 C9.50200826,7.99179152 10.9864058,9.46509955 18.6220193,9.46509955 C10.9864058,9.46509955 9.50200826,10.9383966 9.50200826,18.5169993 C9.50200826,10.9383966 8.01676338,9.46509955 0.382019262,9.46509955 Z" id="path1_fill"></path>
                    </g>
                </g>
            </g>
        </g>
    </g>
</svg>
