<svg width="16" height="16" fill="none" xmlns="http://www.w3.org/2000/svg"><path fill-rule="evenodd" clip-rule="evenodd" d="M8.19.293C8.128.45 7.309 2.405 6.609 4.07c-.168.397-.44 1.047-.605 1.444-.166.397-.438 1.047-.606 1.444a709.602 709.602 0 0 0-1.967 4.698 7.61 7.61 0 0 0-.248.632c.007.007.477-.448 1.045-1.01 2.486-2.463 6.818-6.741 7.948-7.852l1.232-1.21-.288-.112c-.159-.062-.595-.24-.971-.395a286.96 286.96 0 0 0-1.522-.625C10.165.897 9.48.616 9.105.461 8.18.08 8.268.095 8.19.293ZM5.734 2.264 2.851 5.123c-.66.655-1.572 1.553-2.026 1.996L0 7.924l.026.433c.033.542.156 1.274.296 1.76.29 1.007.945 2.203 1.614 2.946l.209.232.186-.446.433-1.032A1367.585 1367.585 0 0 0 4.04 8.773 1168.727 1168.727 0 0 0 5.195 6.02L5.8 4.578l.71-1.698c.252-.601.536-1.277.632-1.502.228-.534.321-.781.296-.781-.011 0-.778.75-1.704 1.667Zm7.176 1.21c-2.64 2.6-4.468 4.421-4.468 4.451 0 .019.54.567 1.2 1.218.66.651 1.868 1.849 2.684 2.66.817.813 1.506 1.477 1.531 1.477.072 0 .539-.564.84-1.015.298-.446.74-1.33.898-1.795.13-.384.238-.822.325-1.327.097-.561.098-1.88.001-2.439-.204-1.18-.576-2.132-1.21-3.097-.239-.365-.791-1.06-.84-1.058-.014.001-.446.417-.961.924Zm-7.59 7.5-2.674 2.65.176.077c.097.043.615.257 1.151.476 1.102.45 2.096.857 3.24 1.329l.78.322.214-.08a69.46 69.46 0 0 0 1.113-.45c1.665-.685 2.65-1.089 3.316-1.36.364-.149.676-.284.693-.3.028-.028-1.195-1.258-4.216-4.243a45.847 45.847 0 0 0-1.092-1.06c-.016-.006-1.231 1.183-2.701 2.64Z" fill="url(#a)"/><defs><linearGradient id="a" x1="11.785" y1="1.073" x2="5.21" y2="14.614" gradientUnits="userSpaceOnUse"><stop stop-color="#81877B"/><stop offset="1" stop-color="#696E65"/></linearGradient></defs></svg>
