<svg width="16" height="16" viewBox="0 0 48 48" fill="none" xmlns="http://www.w3.org/2000/svg">
<g clip-path="url(#clip0_1923_2381)">
<path d="M16.0995 37.5251C13.4464 34.3931 11.7276 29.7619 11.61 24.5654V23.4346C11.727 18.2381 13.4458 13.6075 16.0995 10.4749C19.5418 6.00313 24.6606 3.16903 30.3751 3.16903C33.8897 3.16903 37.1792 4.24249 39.9929 6.10941C35.7691 2.33021 30.1984 0.0238812 24.0893 0.00179109L23.9997 0C10.7443 0 0 10.7453 0 24.0006C0 36.8708 10.1324 47.3743 22.8564 47.9713C23.2355 47.9893 23.6164 48 23.9997 48C30.1441 48 35.7476 45.6895 39.9935 41.8924C37.1804 43.7581 33.8921 44.8316 30.3757 44.8316C24.6606 44.8316 19.5424 41.9975 16.0995 37.5263V37.5251Z" fill="url(#paint0_linear_1923_2381)"/>
<path d="M16.0996 10.4755C18.3014 7.87605 21.1467 6.30825 24.2547 6.30825C31.2397 6.30825 36.9041 14.2296 36.9041 24.0006C36.9041 33.7716 31.2409 41.693 24.2535 41.693C21.1467 41.693 18.3014 40.1252 16.1002 37.5257C19.5431 41.9975 24.6613 44.8316 30.3764 44.8316C33.8928 44.8316 37.1823 43.7593 39.9942 41.8942C44.907 37.4995 47.9995 31.1113 47.9995 24.0006C47.9995 16.8912 44.907 10.5048 39.996 6.11004C37.1817 4.24312 33.8922 3.16907 30.3759 3.16907C24.6607 3.16907 19.5426 6.00496 16.0996 10.4755Z" fill="url(#paint1_linear_1923_2381)"/>
</g>
<defs>
<linearGradient id="paint0_linear_1923_2381" x1="19.9974" y1="0.782706" x2="19.9974" y2="47.3015" gradientUnits="userSpaceOnUse">
<stop offset="0.3" stop-color="#FF1B2D"/>
<stop offset="0.438" stop-color="#FA1A2C"/>
<stop offset="0.594" stop-color="#ED1528"/>
<stop offset="0.758" stop-color="#D60E21"/>
<stop offset="0.927" stop-color="#B70519"/>
<stop offset="1" stop-color="#A70014"/>
</linearGradient>
<linearGradient id="paint1_linear_1923_2381" x1="32.0487" y1="3.5243" x2="32.0487" y2="44.668" gradientUnits="userSpaceOnUse">
<stop stop-color="#9C0000"/>
<stop offset="0.7" stop-color="#FF4B4B"/>
</linearGradient>
<clipPath id="clip0_1923_2381">
<rect width="48" height="48" fill="white"/>
</clipPath>
</defs>
</svg>
