<svg width="16" height="16" fill="none" xmlns="http://www.w3.org/2000/svg"><rect x=".333" y=".333" width="15.333" height="15.333" rx="5" fill="#fff"/><path fill-rule="evenodd" clip-rule="evenodd" d="M1.647.37C1.12.474.6.904.379 1.417.344 1.5.333 3.022.333 8.017v6.493l.1.196c.124.246.398.544.65.706.396.256.269.248 3.784.248 2.527 0 3.175-.01 3.16-.048l-.5-1.24c-.486-1.205-.865-2.145-1.877-4.648-2.346-5.8-2.46-6.085-2.437-6.108.01-.01.208.016.438.058l.726.134a287.09 287.09 0 0 0 1.801.326 1377.468 1377.468 0 0 1 3.718.672 878.526 878.526 0 0 0 3.834.692l.747.136.795.145.393.073V1.533L15.55 1.3c-.142-.284-.518-.651-.81-.79a2.114 2.114 0 0 0-.432-.138C14.033.322 1.902.32 1.647.37Zm4.45 4.907c.019.032 2.605 2.096 2.995 2.391.103.079 1.012.8 3.833 3.042.078.062.09.057.328-.134.136-.11.735-.587 1.33-1.06l1.082-.862V6.948l-.124-.026c-.069-.014-.323-.06-.566-.103a706.01 706.01 0 0 1-1.629-.285l-1.284-.226-1.437-.252c-.38-.066-.871-.153-1.093-.194-.221-.04-.652-.117-.958-.17a389.259 389.259 0 0 1-1.801-.313 13.591 13.591 0 0 1-.628-.118c-.042-.012-.062-.006-.049.016Zm-.689.916a4562.606 4562.606 0 0 1 3.265 8.055l.571 1.412h2.926l.021-.144c.012-.08.04-.3.062-.49a174.132 174.132 0 0 0 .212-1.729c.053-.444.113-.92.134-1.056l.038-.25-.12-.096A2553.664 2553.664 0 0 1 6.654 7.13c-.3-.243-.698-.567-.884-.72-.35-.29-.403-.32-.363-.217Zm9.678 4.42c-.303.246-.56.456-.57.466-.011.01.032.008.095-.003.063-.012.326-.06.585-.105l.47-.083v-.361c0-.199-.007-.361-.014-.361-.008 0-.262.201-.566.447Zm.388 1.48c-.17.028-.274.046-.92.162l-.646.116a2.688 2.688 0 0 0-.335.072 5.12 5.12 0 0 0-.072.492c-.03.262-.107.884-.169 1.38a239.71 239.71 0 0 0-.138 1.127l-.027.225.648-.013.647-.013.291-.144c.342-.17.644-.472.807-.808l.106-.217-.01-1.203-.01-1.202-.172.027Z" fill="#2D5DC6"/></svg>
