<svg width="141" height="19" viewBox="0 0 141 19" fill="none" xmlns="http://www.w3.org/2000/svg">
<path d="M0.596252 18.5743H5.60187L6.45189 16.3706H12.5909L13.3779 18.5743H18.352L12.0557 0H7.36486L0.596252 18.5743ZM7.74264 11.6483L9.63156 6.70564L11.3945 11.6483H7.74264Z" fill="#2B2B37"/>
<path d="M27.8596 7.74455L23.7039 0H19.0761V18.5743H23.4206V8.65752L27.1984 15.3946C27.4503 15.8354 28.0485 15.8354 28.3003 15.4261L32.7078 8.05937V18.5743H37.0523V0H32.33L27.8596 7.74455Z" fill="#2B2B37"/>
<path d="M51.4395 8.87789C52.1321 7.96492 52.5414 6.83157 52.5414 5.60378C52.5414 2.51855 49.9914 0 46.8432 0H37.9653V7.33528V18.5743H47.4098C50.5895 18.5743 53.171 16.0243 53.171 12.9076C53.171 11.3335 52.5099 9.88532 51.4395 8.87789ZM42.6876 4.09265H46.6228C47.3469 4.09265 47.945 4.81673 47.945 5.82415C47.945 6.83157 47.3469 7.55565 46.6228 7.55565H42.6876V4.09265ZM46.9061 14.4817H42.6876V11.0187H46.9061C47.5987 11.0187 48.1654 11.7742 48.1654 12.7502C48.1654 13.7261 47.5987 14.4817 46.9061 14.4817Z" fill="#2B2B37"/>
<path d="M104.014 5.66675H102.188V8.50012H104.014C104.77 8.50012 105.4 7.839 105.4 7.08343C105.4 6.32787 104.801 5.66675 104.014 5.66675Z" fill="#2B2B37"/>
<path d="M130.617 6.42224C128.948 6.42224 127.594 7.77596 127.594 9.4445C127.594 11.113 128.948 12.4668 130.617 12.4668C132.285 12.4668 133.639 11.113 133.639 9.4445C133.639 7.77596 132.254 6.42224 130.617 6.42224Z" fill="#2B2B37"/>
<path d="M131.435 0.314819H55.2803V18.5743H131.435C136.504 18.5743 140.596 14.4817 140.596 9.41309V9.44457C140.596 4.37598 136.504 0.314819 131.435 0.314819ZM65.6693 16.3391V17.9447H64.41V16.465C64.41 16.465 64.41 16.465 64.3471 16.465C64.0008 16.465 63.7804 16.4335 63.4656 16.4021V17.9447H62.2063V16.1502C59.31 15.2058 57.2007 12.4983 57.2007 9.28716C57.2007 6.07601 59.31 3.36856 62.2063 2.42411V0.944457H63.4656V2.17225C63.7804 2.14077 64.0322 2.10929 64.3471 2.10929C64.3785 2.10929 64.3785 2.10929 64.41 2.10929V0.944457H65.6693V2.23521C67.2434 2.48707 68.4082 3.17967 69.4471 4.21857L66.5193 7.17787C65.9526 6.6112 65.1971 6.29638 64.3785 6.29638C62.71 6.29638 61.3563 7.6501 61.3563 9.31864C61.3563 10.9872 62.71 12.3409 64.3785 12.3409C65.26 12.3409 66.0471 11.9631 66.6452 11.302L69.7619 14.0409C68.723 15.2372 67.2434 16.0558 65.6693 16.3391ZM80.4658 16.3706L78.2935 12.2779H75.7435V16.3706H71.6509V12.1205V2.36114V2.20373H78.451C81.2843 2.20373 83.5825 4.40747 83.5825 7.17787C83.5825 8.56308 83.0158 9.75939 82.1028 10.6724L85.0307 16.4021H80.4658V16.3706ZM91.7993 11.3335V16.3706H87.7066V11.0187L83.3306 2.51855H88.0215L89.8789 6.17045L91.7678 2.51855H96.4586L91.7993 11.3335ZM104.644 12.2779H102.188V16.3706H97.7808V12.1205V2.36114V2.20373H104.644C107.477 2.20373 109.775 4.47043 109.775 7.24084C109.775 10.0112 107.477 12.2779 104.644 12.2779ZM122.652 5.98156H118.874V16.3706H114.781V5.98156H111.003V2.20373H122.652V5.98156ZM130.616 16.6539C126.65 16.6539 123.407 13.4113 123.407 9.44457C123.407 5.47785 126.65 2.23521 130.616 2.23521C134.583 2.23521 137.826 5.47785 137.826 9.44457C137.826 13.4113 134.583 16.6539 130.616 16.6539Z" fill="#2B2B37"/>
<path d="M77.8528 5.66675H75.775V8.50012H77.8528C78.6399 8.50012 79.2695 7.839 79.2695 7.08343C79.2695 6.32787 78.6084 5.66675 77.8528 5.66675Z" fill="#2B2B37"/>
</svg>
