<svg width="139" height="19" viewBox="0 0 139 19" fill="none" xmlns="http://www.w3.org/2000/svg">
<path d="M19.9752 18.8245H33.3116V15.3133H24.0174V11.0055H31.7183V7.49437H24.0174V3.51114H33.3706V0H19.9752V18.8245ZM49.3626 11.8612L40.6289 0H34.6098L36.4982 2.38994V18.8835H40.5109V6.5207L49.5396 18.8245H53.4048V0H49.3626V11.8612ZM13.897 9.14668C15.6674 8.82212 17.1426 7.16982 17.1426 4.83889C17.1426 2.33093 15.3133 0 11.6841 0H0L1.82934 2.33093V18.854H12.0972C15.7264 18.854 17.6147 16.582 17.6147 13.7495C17.5262 11.4186 15.9329 9.41223 13.897 9.14668ZM5.84207 3.54065H10.8875C12.2447 3.54065 13.1004 4.3373 13.1004 5.51751C13.1004 6.69773 12.2447 7.49437 10.8875 7.49437H5.84207V3.54065ZM11.0645 15.3428H5.84207V11.0055H11.0645C12.5988 11.0055 13.4545 11.9792 13.4545 13.1594C13.4545 14.5167 12.5398 15.3133 11.0645 15.3428ZM112.357 11.8612H114.451V14.0741C113.36 14.9592 112.003 15.4608 110.586 15.4903C107.223 15.4903 104.862 12.9234 104.862 9.47124C104.862 6.0191 107.252 3.45213 110.586 3.45213C112.327 3.45213 113.95 4.3668 114.894 5.84207L118.081 4.07175C116.723 1.91785 114.333 0 110.557 0C105.216 0 100.79 3.68818 100.79 9.41223C100.79 15.1363 105.157 18.8245 110.557 18.8245C113.507 18.8835 116.31 17.6147 118.258 15.4313V8.46805H109.642L112.357 11.8612ZM94.2108 11.8612L85.4477 0H79.4581L81.3169 2.38994V18.8835H85.3591V6.5207L94.3878 18.8245H98.2235V0H94.2108V11.8612ZM131.594 0H123.834L125.693 2.38994L125.368 3.30461L119.349 18.8835H123.893L125.073 15.6969H133.187L134.368 18.8835H138.911L131.594 0ZM126.106 12.1562L129.057 4.04224L132.007 12.1562H126.106ZM73.0849 0H77.1271V18.913H73.0849V0ZM69.8688 3.2456V0H55.6767V3.51114H64.5873L55.6767 15.6084V18.8245H70.0163V15.3133H60.8992L69.8688 3.2456Z" fill="white"/>
</svg>
