<svg width="225" height="30" viewBox="0 0 225 30" fill="none" xmlns="http://www.w3.org/2000/svg">
<path d="M105.849 1.00986C104.915 1.4944 104.442 2.35965 104.557 3.37488C104.649 4.17091 105.088 4.77082 105.826 5.14C106.564 5.49763 107.072 5.50917 107.833 5.15153C109.241 4.49394 109.575 2.69422 108.514 1.52901C107.903 0.848349 106.622 0.606079 105.849 1.00986ZM107.649 1.77128C108.168 2.11738 108.468 2.71729 108.399 3.27105C108.329 3.8825 108.041 4.26321 107.453 4.51702C106.841 4.7939 106.23 4.67853 105.757 4.20552C104.442 2.89034 106.114 0.744519 107.649 1.77128Z" fill="black"/>
<path d="M101.35 5.80549C99.5385 6.86687 98.9156 7.28219 98.8925 7.45524C98.8117 8.02054 99.2386 7.87056 101.719 6.44001C103.726 5.28634 104.176 4.98639 104.176 4.77873C104.176 4.5826 103.946 4.35187 103.796 4.38648C103.784 4.39802 102.688 5.03253 101.35 5.80549Z" fill="black"/>
<path d="M109.622 4.64207C109.541 4.72283 109.483 4.84973 109.483 4.91895C109.483 4.99971 110.51 5.6573 111.767 6.38411C114.744 8.11461 114.513 7.99924 114.721 7.79158C114.813 7.68775 114.871 7.53778 114.836 7.44548C114.767 7.29551 110.06 4.50363 109.852 4.50363C109.806 4.50363 109.702 4.56131 109.622 4.64207Z" fill="black"/>
<path d="M95.0854 7.16964C93.701 7.86184 93.4356 9.84615 94.5893 10.8845C95.4892 11.692 96.5851 11.7382 97.5773 10.9998C98.5925 10.2384 98.731 8.58865 97.8426 7.57342C97.2658 6.91583 95.9852 6.73125 95.0854 7.16964ZM96.9197 7.79262C97.3812 8.03489 97.7157 8.61173 97.7157 9.17702C97.7157 10.1 97.0351 10.7345 96.0429 10.7345C95.6161 10.7345 95.443 10.6653 95.0969 10.3538C94.7393 10.0192 94.6701 9.88076 94.6354 9.33854C94.6008 8.854 94.6354 8.6348 94.8316 8.33485C95.2354 7.67726 96.2044 7.43498 96.9197 7.79262Z" fill="black"/>
<path d="M116.428 7.23917C115.344 7.76986 114.859 9.13119 115.355 10.2156C115.771 11.1501 116.867 11.7731 117.778 11.6C118.286 11.5077 118.932 11.1732 119.197 10.8848C119.693 10.3425 119.901 9.18887 119.624 8.46206C119.485 8.06981 118.886 7.42376 118.459 7.20456C118.043 6.98536 116.901 7.00843 116.428 7.23917ZM118.436 8.09288C119.047 8.66972 119.197 9.25809 118.897 9.9849C118.666 10.5156 118.101 10.8502 117.409 10.8502C116.947 10.8502 116.797 10.7925 116.451 10.4694C115.309 9.4196 116.059 7.64295 117.593 7.76986C117.963 7.80447 118.24 7.9083 118.436 8.09288Z" fill="black"/>
<path d="M34.4486 7.68645C31.3567 8.25175 28.7379 10.686 27.9649 13.7317C27.6996 14.7354 27.7111 16.662 27.9649 17.6542C28.761 20.6768 31.1375 22.9149 34.2063 23.5494C37.3327 24.1955 40.5399 23.3417 42.5242 21.3344C42.8934 20.9652 43.1703 20.6422 43.1357 20.6191C43.1126 20.596 42.8473 20.3883 42.5588 20.1576C41.9936 19.6961 41.7859 19.6385 41.6936 19.8923C41.659 19.973 41.3013 20.3191 40.8976 20.6422C38.0826 22.9264 33.791 22.7995 31.2644 20.3537C29.88 19.027 29.3493 17.608 29.4532 15.5199C29.5224 14.0893 29.8223 13.1433 30.5607 12.0589C31.9336 10.0399 34.1371 9.00164 36.7328 9.15161C38.6018 9.26698 39.8708 9.79767 41.1975 11.0436L41.9589 11.7704L42.5242 11.3436C42.8357 11.1129 43.1126 10.9052 43.1357 10.8937C43.228 10.8129 42.2358 9.75152 41.659 9.29005C39.6747 7.77875 37.1251 7.20191 34.4486 7.68645Z" fill="black"/>
<path d="M215.102 7.66626C212.102 8.26617 209.702 10.1813 208.664 12.7886C208.353 13.5846 208.306 13.8384 208.26 15.1882C208.214 16.4803 208.249 16.8264 208.456 17.5994C208.86 19.0645 209.414 19.999 210.602 21.1873C211.479 22.0756 211.802 22.3179 212.737 22.7793C214.259 23.5292 215.678 23.8176 217.467 23.7369C219.878 23.6215 221.343 23.0331 222.785 21.591C224.1 20.2759 224.781 18.7184 224.931 16.6995L225 15.8112L221.608 15.8342L218.216 15.8688L218.182 16.5841L218.147 17.3109H220.697C222.116 17.3109 223.235 17.3571 223.235 17.4148C223.235 17.6801 222.75 19.0299 222.508 19.4337C222.024 20.2182 221.031 21.1065 220.178 21.5334C216.14 23.5177 211.029 21.1873 210.014 16.8956C209.056 12.8232 212.771 8.87762 217.294 9.16603C218.978 9.26986 220.605 9.89285 221.908 10.9542C222.277 11.2426 222.647 11.5311 222.727 11.6003C222.843 11.681 223.039 11.5657 223.477 11.1157L224.077 10.5274L223.131 9.77748C221.989 8.87762 220.616 8.17388 219.37 7.83931C218.182 7.52782 216.209 7.44707 215.102 7.66626Z" fill="black"/>
<path d="M51.7305 7.84799C48.131 8.78246 45.6853 12.0243 45.6853 15.8429C45.6853 18.0349 46.3659 19.6039 48.0503 21.2882C48.8809 22.1304 49.2847 22.4304 50.0692 22.8226C51.5113 23.5379 52.2727 23.7109 54.0494 23.7109C56.3221 23.7109 57.8565 23.1802 59.4485 21.8651C61.5367 20.1346 62.4019 17.908 62.1597 14.8854C61.8828 11.482 59.2409 8.50558 55.8376 7.79031C54.6954 7.54804 52.7573 7.57111 51.7305 7.84799ZM56.0221 9.4862C58.2372 10.213 59.8408 11.932 60.4061 14.1932C60.683 15.2661 60.5791 16.9966 60.1869 17.9657C59.2293 20.3192 57.2912 21.8189 54.7531 22.1535C52.515 22.4534 50.3807 21.7036 48.8463 20.0538C47.6927 18.8309 47.2312 17.4465 47.335 15.5199C47.4273 13.9048 47.8426 12.7626 48.8002 11.5628C49.3424 10.8937 50.4384 10.0515 51.2806 9.68233C52.6765 9.05934 54.4993 8.99012 56.0221 9.4862Z" fill="black"/>
<path d="M0 15.6826V23.5391H3.6802C7.02584 23.5391 7.42963 23.516 8.09875 23.3083C9.06784 23.0084 10.0254 22.3162 10.5215 21.5548C11.1444 20.5972 11.2483 20.2511 11.2483 19.0398C11.2483 18.0707 11.2021 17.8745 10.9252 17.3093C10.4638 16.4094 9.79465 15.7749 8.84864 15.3365C8.13336 15.0135 8.05261 14.9442 8.24873 14.8404C8.77942 14.5289 9.36779 13.8944 9.65621 13.2945C10.0831 12.4177 10.1177 10.9756 9.72543 10.1334C9.35625 9.3374 8.64098 8.62213 7.81034 8.24142L7.09506 7.90685L3.5533 7.87224L0 7.8261V15.6826ZM7.1066 9.67197C7.81034 9.99499 8.1449 10.4103 8.32949 11.1948C8.59483 12.3715 7.82187 13.6983 6.62206 14.1367C6.18366 14.2866 5.52607 14.3443 3.78403 14.3905L1.49977 14.4597V11.8985V9.32586L4.01477 9.37201C6.33364 9.40662 6.56438 9.42969 7.1066 9.67197ZM7.86802 16.4786C8.75635 16.917 9.26396 17.4592 9.5293 18.2668C9.85233 19.2359 9.57545 20.2973 8.82557 21.0587C7.99492 21.8778 7.22197 22.0393 3.96862 22.0393H1.49977V19.0282V16.0171L4.30318 16.0633L7.1066 16.0979L7.86802 16.4786Z" fill="black"/>
<path d="M13.9594 15.7536V23.6562H14.7093H15.4592V15.7536V7.85099H14.7093H13.9594V15.7536Z" fill="black"/>
<path d="M17.5358 8.60105V9.3394L19.3009 9.37401L21.0545 9.40862L21.0891 16.5383L21.1121 23.668L21.8966 23.6334L22.6696 23.5987L22.7042 16.4691L22.7273 9.35094H24.4578H26.1883V8.60105V7.85117H21.862H17.5358V8.60105Z" fill="black"/>
<path d="M65.1823 15.7536V23.6562H65.9322H66.6821V15.7536V7.85099H65.9322H65.1823V15.7536Z" fill="black"/>
<path d="M70.3738 15.7536V23.6562H71.1813H71.9889L72.012 17.7149L72.0466 11.7735L74.1809 14.2192C75.3576 15.569 77.688 18.2455 79.3609 20.1606C81.0337 22.0873 82.4642 23.6562 82.5565 23.6562C82.695 23.6562 82.718 22.468 82.718 15.7536V7.85099H81.9681H81.2183V13.8731L81.2067 19.9068L80.7337 19.3877C80.4799 19.0993 78.1149 16.3881 75.4845 13.354C72.8542 10.3314 70.6276 7.85099 70.5353 7.85099C70.3969 7.85099 70.3738 8.95851 70.3738 15.7536Z" fill="black"/>
<path d="M130.826 8.60105V9.3394L132.591 9.37401L134.345 9.40862L134.379 16.5383L134.402 23.668L135.187 23.6334L135.96 23.5987L135.994 16.4691L136.018 9.35094H137.748H139.479V8.60105V7.85117H135.152H130.826V8.60105Z" fill="black"/>
<path d="M141.809 15.7192L141.844 23.5987L142.628 23.6334L143.401 23.668V19.9647V16.273H144.428H145.455L147.185 19.0648C148.131 20.6107 149.158 22.272 149.458 22.7566L149.988 23.6564H150.911C151.407 23.6564 151.823 23.6103 151.823 23.5641C151.823 23.5065 150.842 21.8567 149.631 19.907L147.45 16.3422L148.235 16.146C149.758 15.7653 150.773 15.0039 151.327 13.8618C151.604 13.2849 151.65 13.0888 151.65 12.0621C151.65 11.1276 151.604 10.8046 151.396 10.3662C151.027 9.5586 150.208 8.73949 149.412 8.38186C148.477 7.96654 147.473 7.86271 144.405 7.85117H141.786L141.809 15.7192ZM148.304 9.58167C148.593 9.67397 148.973 9.92777 149.308 10.2739C149.988 10.9776 150.208 11.7506 149.977 12.6966C149.792 13.458 148.996 14.3348 148.304 14.5424C148.039 14.6232 146.885 14.7155 145.628 14.7386L143.401 14.7963V12.1544C143.401 10.7007 143.436 9.46631 143.493 9.40862C143.62 9.28172 147.762 9.4317 148.304 9.58167Z" fill="black"/>
<path d="M160.51 9.14128C160.175 9.85655 159.091 12.1524 158.099 14.252C155.122 20.5395 153.784 23.4006 153.784 23.4698C153.784 23.5045 154.165 23.5391 154.626 23.5391H155.48L156.691 20.9664L157.903 18.4052L161.306 18.3706L164.709 18.3476L165.413 19.8127C165.794 20.6318 166.347 21.797 166.647 22.4085L167.19 23.5391H167.986C168.424 23.5391 168.782 23.4929 168.782 23.4468C168.782 23.3891 167.247 20.055 165.367 16.0287C163.486 12.0024 161.871 8.5183 161.779 8.27602C161.652 7.96453 161.537 7.84917 161.352 7.84917C161.156 7.84917 160.994 8.0799 160.51 9.14128ZM162.84 14.3443C163.463 15.6595 163.948 16.767 163.913 16.7901C163.879 16.8247 162.69 16.8362 161.26 16.8247L158.653 16.7901L159.991 13.9867L161.329 11.1833L161.525 11.564C161.629 11.7716 162.217 13.0176 162.84 14.3443Z" fill="black"/>
<path d="M171.32 15.6941V23.5391H174.7C178.634 23.5391 179.615 23.4006 180.999 22.6738C182.649 21.8086 183.964 19.9396 184.414 17.8399C184.656 16.744 184.599 14.402 184.299 13.3406C183.676 11.114 182.199 9.40662 180.157 8.55291C178.842 8.01068 177.503 7.84917 174.181 7.84917H171.32V15.6941ZM176.973 9.4643C178.853 9.69504 179.903 10.0642 180.907 10.8718C181.507 11.3563 182.326 12.5792 182.637 13.4445C182.995 14.4366 183.076 16.6401 182.799 17.7592C182.43 19.282 181.426 20.5741 180.088 21.2779C178.98 21.8547 177.792 22.0393 175.058 22.0393H172.82V15.6941V9.34894H174.412C175.288 9.34894 176.442 9.40662 176.973 9.4643Z" fill="black"/>
<path d="M187.471 15.7536V23.6562H188.221H188.971V15.7536V7.85099H188.221H187.471V15.7536Z" fill="black"/>
<path d="M192.663 15.7536V23.6562H193.47H194.278L194.301 17.7264L194.336 11.785L196.008 13.7116C196.943 14.773 199.262 17.438 201.188 19.6415C203.103 21.8565 204.753 23.6562 204.845 23.6562C204.984 23.6562 205.007 22.5372 205.007 15.7536V7.85099H204.257H203.507V13.8616C203.507 19.1685 203.484 19.8607 203.334 19.7338C203.242 19.653 200.877 16.9534 198.073 13.7232C195.27 10.4929 192.905 7.85099 192.813 7.85099C192.686 7.85099 192.663 9.22385 192.663 15.7536Z" fill="black"/>
<path d="M105.099 8.84134C102.965 9.40664 101.061 11.1602 100.346 13.2484C99.9654 14.3674 99.9654 16.4556 100.346 17.5631C101.027 19.5243 102.584 21.0933 104.592 21.8317C105.607 22.2124 107.833 22.2124 108.929 21.8317C110.879 21.1625 112.529 19.5012 113.198 17.5515C113.579 16.4556 113.579 14.3559 113.198 13.2484C112.61 11.5409 111.248 10.0065 109.691 9.29128C108.306 8.65676 106.472 8.48371 105.099 8.84134ZM108.768 9.69506C111.248 10.5488 112.967 13.1445 112.794 15.7518C112.633 18.1976 110.994 20.3434 108.699 21.1395C107.683 21.4856 105.93 21.5086 104.984 21.1856C103.623 20.7357 102.584 19.9627 101.823 18.8321C100.323 16.6286 100.381 13.8713 101.95 11.7947C102.826 10.6526 103.911 9.92579 105.341 9.52201C106.184 9.29128 107.799 9.37203 108.768 9.69506Z" fill="black"/>
<path d="M105.826 11.0447C105.745 11.0678 105.676 11.2755 105.676 11.4947C105.676 11.8408 105.641 11.8869 105.376 11.8869C105.215 11.8869 104.984 11.9446 104.857 12.0023C104.649 12.1176 104.638 12.2792 104.638 15.4517C104.638 19.1089 104.603 18.9243 105.341 18.9243C105.641 18.9243 105.676 18.9589 105.676 19.3165C105.676 19.6165 105.734 19.7319 105.907 19.7895C106.241 19.8934 106.368 19.7665 106.368 19.3165C106.368 18.9358 106.391 18.9127 106.691 18.9474C106.957 18.9704 107.014 19.0396 107.037 19.3627C107.107 20.0433 107.753 19.9395 107.753 19.2588C107.753 18.9704 107.81 18.9127 108.11 18.8435C108.306 18.8089 108.664 18.5897 108.906 18.359C109.679 17.6206 109.748 16.5708 109.091 15.7517L108.814 15.4056L109.091 15.0826C109.425 14.6903 109.633 13.9635 109.529 13.5366C109.345 12.7637 108.583 12.0023 107.995 12.0023C107.799 12.0023 107.753 11.933 107.753 11.61C107.753 11.1832 107.51 10.8947 107.233 11.0101C107.13 11.0447 107.06 11.2178 107.06 11.4831C107.06 11.8523 107.037 11.8869 106.714 11.8869C106.403 11.8869 106.368 11.8523 106.368 11.4947C106.368 11.2408 106.299 11.0793 106.184 11.0332C106.08 10.9986 105.999 10.964 105.988 10.9755C105.976 10.9755 105.895 11.0101 105.826 11.0447ZM108.456 13.029C109.183 13.7674 108.722 14.898 107.626 15.0595C107.349 15.0941 106.726 15.1172 106.253 15.0941L105.388 15.0595L105.353 13.8712L105.318 12.6945H106.714C108.11 12.6945 108.122 12.6945 108.456 13.029ZM108.214 15.9824C108.895 16.3401 109.01 17.1822 108.456 17.7937L108.122 18.1744L106.726 18.209L105.33 18.2552V17.0323V15.8094H106.599C107.51 15.8094 107.972 15.8555 108.214 15.9824Z" fill="black"/>
<path d="M95.8814 12.3938C95.7891 12.4976 95.7545 13.3975 95.7776 15.4164L95.8122 18.2891H96.1006H96.389L96.4236 15.3587C96.4467 13.086 96.4121 12.4054 96.3083 12.3246C96.1006 12.1977 96.0314 12.2092 95.8814 12.3938Z" fill="black"/>
<path d="M117.178 12.5356C117.132 12.5818 117.097 13.9316 117.097 15.5352C117.097 18.1078 117.12 18.4539 117.282 18.5116C117.755 18.6962 117.79 18.4655 117.767 15.4198C117.732 12.6048 117.72 12.5241 117.501 12.4895C117.363 12.4664 117.224 12.4895 117.178 12.5356Z" fill="black"/>
<path d="M95.3623 19.3279C94.7047 19.5586 94.3586 19.8471 94.0586 20.4239C93.5856 21.3238 93.7933 22.5005 94.5547 23.2158C94.9931 23.6196 95.4084 23.7695 96.1006 23.7695C97.0928 23.7695 97.7734 23.3311 98.1887 22.4428C98.754 21.2199 98.0157 19.6394 96.712 19.2818C96.1468 19.1202 95.916 19.1318 95.3623 19.3279ZM97.0812 20.3201C97.8196 20.9777 97.8426 22.0621 97.1274 22.662C95.6968 23.8618 93.7817 22.1313 94.8085 20.5623C95.0623 20.1701 95.5122 19.974 96.1237 19.9624C96.5736 19.9624 96.7467 20.0316 97.0812 20.3201Z" fill="black"/>
<path d="M116.694 19.4105C115.701 19.7566 115.136 20.5757 115.136 21.6717C115.136 22.9638 116.082 23.8867 117.432 23.8867C118.62 23.8867 119.462 23.1484 119.693 21.9139C119.982 20.345 118.228 18.8798 116.694 19.4105ZM118.493 20.5295C118.897 20.9218 118.943 21.0372 118.943 21.5332C118.943 22.8369 117.79 23.5637 116.636 22.9869C116.405 22.8715 116.151 22.6177 116.036 22.3869C115.459 21.2333 116.186 20.0796 117.49 20.0796C117.986 20.0796 118.101 20.1258 118.493 20.5295Z" fill="black"/>
<path d="M98.8233 23.0194C98.731 23.1232 98.6733 23.2732 98.7079 23.3655C98.7425 23.4578 99.8731 24.1615 101.211 24.9345C103.023 25.9612 103.703 26.2958 103.83 26.215C104.246 25.9497 103.992 25.7074 102.33 24.7268C99.2271 22.9155 99.0309 22.8117 98.8233 23.0194Z" fill="black"/>
<path d="M111.917 24.3244C110.625 25.0628 109.506 25.7665 109.437 25.8704C109.345 26.0319 109.356 26.1242 109.506 26.2626C109.691 26.4472 109.864 26.3664 112.16 25.0282C114.559 23.6207 114.94 23.3207 114.536 23.0669C114.455 23.0093 114.363 22.9631 114.329 22.9631C114.294 22.9631 113.21 23.5746 111.917 24.3244Z" fill="black"/>
<path d="M105.699 25.6853C103.53 26.7813 104.28 30 106.714 30C109.668 30 109.783 25.6737 106.841 25.4199C106.426 25.3853 106.172 25.443 105.699 25.6853ZM107.533 26.3775C108.676 26.9543 108.479 28.7771 107.222 29.1924C105.745 29.6885 104.499 27.9465 105.48 26.7351C105.953 26.1467 106.784 25.9968 107.533 26.3775Z" fill="black"/>
</svg>
