<?xml version="1.0" encoding="utf-8"?>
<svg version="1.1" id="Layer_1" xmlns="http://www.w3.org/2000/svg" xmlns:xlink="http://www.w3.org/1999/xlink" x="0px" y="0px"
	 viewBox="0 0 100.1 15.9" style="enable-background:new 0 0 100.1 15.9;" xml:space="preserve">
<style type="text/css">
	.st0{fill:#2B2B37;}
</style>
<path class="st0" d="M25.5,12.8H22V4.7h3.1c0.5,0,1,0.1,1.4,0.2C27,5,27.3,5.2,27.5,5.4C27.8,5.8,28,6.3,28,6.8
	c0,0.6-0.2,1.1-0.6,1.4c-0.1,0.1-0.2,0.2-0.3,0.2c-0.1,0-0.2,0.1-0.3,0.1c0.5,0.1,0.9,0.3,1.2,0.7c0.3,0.3,0.4,0.8,0.4,1.3
	c0,0.6-0.2,1.1-0.6,1.5C27.4,12.5,26.7,12.8,25.5,12.8 M23.8,8h0.9c0.5,0,0.9-0.1,1.1-0.2c0.2-0.1,0.4-0.3,0.4-0.7
	c0-0.4-0.1-0.6-0.3-0.7c-0.2-0.1-0.6-0.2-1.1-0.2h-0.9V8z M23.8,11.3H25c0.5,0,0.9-0.1,1.2-0.2c0.3-0.1,0.4-0.4,0.4-0.8
	c0-0.4-0.1-0.6-0.4-0.7c-0.3-0.1-0.7-0.2-1.3-0.2h-1.1V11.3z"/>
<polygon class="st0" points="29.7,12.8 29.7,4.7 31.5,4.7 31.5,11.2 35,11.2 35,12.8 "/>
<path class="st0" d="M42.6,11.7c-0.8,0.8-1.8,1.2-3,1.2c-1.2,0-2.2-0.4-3-1.2c-0.8-0.8-1.2-1.8-1.2-3c0-1.2,0.4-2.2,1.2-3
	c0.8-0.8,1.8-1.2,3-1.2c1.2,0,2.2,0.4,3,1.2c0.8,0.8,1.2,1.8,1.2,3C43.8,9.9,43.4,10.9,42.6,11.7 M42,8.7c0-0.7-0.2-1.3-0.7-1.8
	c-0.5-0.5-1-0.8-1.7-0.8s-1.2,0.3-1.7,0.8c-0.5,0.5-0.7,1.1-0.7,1.8c0,0.7,0.2,1.3,0.7,1.8c0.5,0.5,1,0.8,1.7,0.8s1.2-0.3,1.7-0.8
	C41.7,10,42,9.4,42,8.7"/>
<path class="st0" d="M48.8,11.2c0.9,0,1.6-0.4,2.2-1.1l1.2,1.2c-0.9,1-2,1.5-3.2,1.5c-1.2,0-2.3-0.4-3.1-1.2c-0.8-0.8-1.2-1.8-1.2-3
	c0-1.2,0.4-2.2,1.2-3c0.8-0.8,1.8-1.2,3-1.2c1.3,0,2.4,0.5,3.3,1.5L51,7.3c-0.6-0.7-1.3-1.1-2.1-1.1c-0.7,0-1.3,0.2-1.7,0.7
	c-0.5,0.4-0.7,1-0.7,1.8c0,0.8,0.2,1.4,0.7,1.8C47.6,11,48.1,11.2,48.8,11.2"/>
<path class="st0" d="M53.3,4.7h1.8V8l3.1-3.3h2.2l-3.2,3.6c0.3,0.4,0.8,1.1,1.5,2.2c0.7,1.1,1.3,1.8,1.7,2.4h-2.1l-2.4-3.2l-0.8,0.9
	v2.3h-1.8V4.7z"/>
<path class="st0" d="M67,5.2c0.6,0.4,1.2,0.9,1.5,1.5c0.4,0.6,0.6,1.3,0.6,2.1c0,0.7-0.2,1.4-0.6,2.1c-0.4,0.6-0.9,1.1-1.5,1.5
	c-0.6,0.4-1.4,0.6-2.1,0.6c-0.8,0-1.5-0.2-2.1-0.6c-0.6-0.4-1.2-0.9-1.5-1.5c-0.4-0.6-0.6-1.3-0.6-2.1c0-0.7,0.2-1.4,0.6-2.1
	c0.4-0.6,0.9-1.1,1.5-1.5c0.6-0.4,1.4-0.5,2.1-0.5C65.7,4.6,66.4,4.8,67,5.2 M63.2,5.8C62.7,6.1,62.3,6.5,62,7
	c-0.3,0.5-0.5,1.1-0.5,1.7c0,0.6,0.2,1.2,0.5,1.7c0.3,0.5,0.7,0.9,1.2,1.2c0.5,0.3,1.1,0.5,1.7,0.5c0.6,0,1.2-0.2,1.7-0.5
	c0.5-0.3,0.9-0.7,1.2-1.2c0.3-0.5,0.5-1.1,0.5-1.7c0-0.6-0.2-1.2-0.5-1.7c-0.3-0.5-0.7-0.9-1.2-1.2c-0.5-0.3-1.1-0.5-1.7-0.5
	C64.3,5.4,63.7,5.5,63.2,5.8"/>
<polygon class="st0" points="76.5,4.7 77.3,4.7 77.3,12.8 76.4,12.8 71.4,5.9 71.4,12.8 70.6,12.8 70.6,4.7 71.5,4.7 76.5,11.5 "/>
<path class="st0" d="M85.1,5.2c0.6,0.4,1.2,0.9,1.5,1.5C87,7.3,87.2,8,87.2,8.7c0,0.7-0.2,1.4-0.6,2.1c-0.4,0.6-0.9,1.1-1.5,1.5
	c-0.6,0.4-1.4,0.6-2.1,0.6c-0.8,0-1.5-0.2-2.1-0.6c-0.6-0.4-1.2-0.9-1.5-1.5c-0.4-0.6-0.6-1.3-0.6-2.1c0-0.7,0.2-1.4,0.6-2.1
	c0.4-0.6,0.9-1.1,1.5-1.5c0.6-0.4,1.4-0.5,2.1-0.5C83.8,4.6,84.5,4.8,85.1,5.2 M81.3,5.8C80.8,6.1,80.4,6.5,80,7
	c-0.3,0.5-0.5,1.1-0.5,1.7c0,0.6,0.2,1.2,0.5,1.7c0.3,0.5,0.7,0.9,1.2,1.2c0.5,0.3,1.1,0.5,1.7,0.5c0.6,0,1.2-0.2,1.7-0.5
	c0.5-0.3,0.9-0.7,1.2-1.2c0.3-0.5,0.5-1.1,0.5-1.7c0-0.6-0.2-1.2-0.5-1.7c-0.3-0.5-0.7-0.9-1.2-1.2c-0.5-0.3-1.1-0.5-1.7-0.5
	C82.4,5.4,81.8,5.5,81.3,5.8"/>
<polygon class="st0" points="88.7,4.7 89.7,4.7 92.9,10.8 96,4.7 97,4.7 97,12.8 96.2,12.8 96.2,5.8 93.1,11.9 92.6,11.9 89.5,5.8 
	89.5,12.8 88.7,12.8 "/>
<rect x="99.3" y="4.7" class="st0" width="0.8" height="8.1"/>
<path class="st0" d="M15.6,9.5c-0.2-0.6-0.5-1.1-0.9-1.6c0.4-0.5,0.7-1,0.9-1.6l0,0c0.2-0.5,0.3-1,0.3-1.6c0-0.6-0.1-1.1-0.3-1.6h0
	c-0.5-1.4-1.6-2.4-2.9-2.9v0C12.3,0.1,11.8,0,11.4,0c-0.1,0-0.2,0-0.3,0c-0.1,0-0.2,0-0.3,0H9.5v0.3v2.9h0v0l0,0H6.6H6.3v1.6v1.6
	H3.2v3.2H0v3.1l0,0v1.5c0,0.9,0.7,1.6,1.6,1.6h1.6l3.1,0v0h3.2v0h1.3c0.1,0,0.2,0,0.3,0c0.1,0,0.2,0,0.3,0c0.4,0,0.9-0.1,1.3-0.3
	l0,0c1.4-0.5,2.4-1.6,2.9-2.9h0c0.2-0.5,0.3-1,0.3-1.6C15.8,10.6,15.8,10,15.6,9.5L15.6,9.5z M6.3,6.4L6.3,6.4L6.3,6.4L6.3,6.4z
	 M9.5,15.8L9.5,15.8L9.5,15.8L9.5,15.8z"/>
</svg>
