<svg width="633" height="132" viewBox="0 0 633 132" fill="none" xmlns="http://www.w3.org/2000/svg">
<path fill-rule="evenodd" clip-rule="evenodd" d="M0 61.5226V66.0232H4.44743H8.8955L8.72991 94.1039L8.56495 122.185L4.75831 122.27C2.66465 122.317 0.737221 122.389 0.475831 122.429C0.214441 122.469 0 124.383 0 126.683V130.865L18.8746 130.599C35.4443 130.367 38.0976 130.19 40.6042 129.154C46.2292 126.827 49.088 124.26 51.8992 119.012C53.3831 116.24 53.5976 115.116 53.5919 110.127C53.5862 105.465 53.3184 103.875 52.132 101.47C50.4552 98.0682 46.9309 94.3247 44.3163 93.1672C43.3215 92.7268 42.5076 92.2045 42.5076 92.0078C42.5076 91.8105 43.897 90.2075 45.5947 88.4452C49.2694 84.632 50.4444 80.8511 49.9781 74.3389C49.6158 69.2672 48.2372 66.1349 44.7719 62.5069C40.3961 57.9245 38.5804 57.5704 17.923 57.2766L0 57.0215V61.5226ZM53.9275 61.2637V65.3886H58.3686H62.8097V93.9452V122.502H58.3686H53.9275V126.627V130.752H66.9335H79.9396V126.627V122.502H76.1329H72.3263V89.8204V57.1389H63.1269H53.9275V61.2637ZM180.181 61.2637V65.3886H184.622H189.063V93.9452V122.502H184.622H180.181V126.627V130.752H193.505H206.828V126.627V122.502H202.704H198.58V113.935C198.58 109.223 198.794 105.402 199.056 105.443C199.318 105.485 202.234 108.413 205.535 111.948C208.838 115.484 214.208 121.161 217.469 124.564L223.399 130.752H229.706H236.012V126.627V122.502H231.691H227.369L218.843 113.525C214.154 108.588 210.236 104.347 210.138 104.101C210.039 103.856 211.609 102.27 213.627 100.579C215.645 98.8881 218.737 96.2037 220.497 94.6141C228.389 87.4902 228.206 87.5993 232.266 87.5993H236.012V83.7918V79.9842H222.34H208.668L208.858 83.6331L209.048 87.282L212.696 87.4724C215.373 87.612 216.344 87.9077 216.344 88.5829C216.344 89.0887 216.098 89.5031 215.796 89.5031C215.494 89.5031 214.281 90.3655 213.1 91.4196C209.251 94.8533 199.376 102.83 198.973 102.83C198.757 102.83 198.58 92.5491 198.58 79.9842V57.1389H189.381H180.181V61.2637ZM281.057 61.2637V65.3886H285.498H289.94V93.9452V122.502H285.498H281.057V126.627V130.752H294.381H307.704V126.627V122.502H303.58H299.456V107.949V93.3969L301.292 92.0897C304.659 89.6922 311.165 86.966 313.524 86.9654C315.106 86.9647 316.481 87.4921 317.806 88.6077L319.758 90.2506V110.501V130.752H328.958H338.157V126.656V122.56L333.875 122.372L329.592 122.185L329.275 104.733C328.925 85.4538 328.71 84.3121 324.836 81.1208C322.398 79.1123 316.864 77.7746 313.508 78.3831C310.494 78.9289 305.111 81.3816 302.419 83.4351C301.247 84.3293 300.101 85.0609 299.872 85.0609C299.643 85.0609 299.456 78.7785 299.456 71.0999V57.1389H290.257H281.057V61.2637ZM34.8327 67.6198C37.9662 69.455 39.4698 71.831 39.8232 75.5065C40.1963 79.3902 38.6996 83.8362 36.4144 85.634C34.5409 87.1082 27.543 88.3818 22.7999 88.1127L19.3505 87.9166L19.1753 77.7885C19.0783 72.2181 19.1531 67.26 19.3416 66.7701C19.8986 65.3169 32.0367 65.9826 34.8327 67.6198ZM98.4818 78.7861C91.0322 80.0274 83.9036 85.7216 80.3133 93.2992C78.448 97.2356 78.3535 97.8194 78.3535 105.368C78.3535 112.916 78.448 113.5 80.3133 117.437C82.688 122.449 87.4165 127.461 92.0504 129.88C95.2537 131.551 95.9928 131.672 103.104 131.687C110.416 131.703 110.891 131.621 114.873 129.663C123.937 125.207 129.411 116.06 129.411 105.368C129.411 91.8974 120.734 81.1582 107.88 78.7201C104.072 77.9973 103.18 78.0036 98.4818 78.7861ZM152.185 78.6541C145.077 80.1073 137.173 86.8308 134.421 93.7644C133.219 96.7907 132.959 98.6609 132.94 104.416C132.911 112.686 133.945 116.483 137.793 122.237C142.397 129.121 148.405 132.036 157.918 132C167.362 131.964 173.695 128.659 177.926 121.556L180.191 117.755L178.759 116.673C177.971 116.078 176.277 115.179 174.995 114.674L172.664 113.757L170.904 116.542C166.342 123.761 156.032 125.921 149.568 121.013C145.487 117.914 143.223 113.201 142.868 107.067C142.447 99.7791 143.49 95.9391 146.934 92.1081C150.194 88.4808 152.879 87.3614 157.923 87.5263C164.139 87.7294 168.525 91.054 170.099 96.7552L170.741 99.0804L174.668 98.8925L178.595 98.7047L178.771 89.3444L178.946 79.9842H174.806C171.13 79.9842 170.665 80.1226 170.665 81.216C170.665 82.8335 169.726 83.3672 168.813 82.2681C166.676 79.6917 157.191 77.6299 152.185 78.6541ZM253.776 78.6744C249.843 79.4677 245.651 81.723 242.324 84.8357C236.421 90.3585 234.13 96.0521 234.116 105.23C234.101 115.825 239.483 125.608 247.749 130.013C250.698 131.584 251.48 131.703 258.852 131.703C266.234 131.703 267.031 131.582 270.362 129.946C274.32 128.001 278.36 124.008 280.384 120.039L281.705 117.45L277.935 115.547L274.166 113.644L272.808 115.841C267.993 123.634 257.721 126.096 251.143 121.035C246.989 117.838 244.734 113.196 244.382 107.116C243.955 99.7543 244.991 95.9506 248.474 92.0751C251.999 88.1533 255.489 86.8854 260.755 87.6126C266.59 88.4179 270.473 91.6836 271.489 96.6391L271.913 98.7047L276.168 98.7891L280.423 98.8735V89.4288V79.9842H276.299C272.723 79.9842 272.175 80.1391 272.175 81.1474C272.175 83.1089 271.558 83.1153 268.454 81.1855C266.727 80.1118 263.867 79.0653 261.682 78.7074C257.516 78.0246 257.006 78.0227 253.776 78.6744ZM354.796 78.7861C351.12 79.3985 346.35 81.6291 343.837 83.9111C342.275 85.3294 339.426 89.0614 339.426 89.689C339.426 89.8585 341.271 90.4962 343.526 91.1067L347.625 92.2166L349.916 89.9251C353.66 86.1804 359.653 85.2589 364.621 87.664C368.075 89.3368 369.345 91.7109 369.74 97.2337C370.19 103.526 370.057 103.65 365.354 101.319C361.878 99.5957 360.701 99.3399 356.262 99.3443C350.709 99.3501 347.247 100.628 343.652 103.997C340.128 107.3 338.528 110.905 338.554 115.483C338.609 125.194 345.029 131.342 355.149 131.372C360.187 131.387 362.607 130.618 366.973 127.614C368.523 126.547 369.953 125.675 370.152 125.675C370.351 125.675 370.514 126.817 370.514 128.213V130.752H379.155H387.796L387.432 126.785C387.232 124.604 387.055 122.761 387.039 122.691C387.022 122.62 385.236 122.477 383.07 122.374L379.131 122.185L379.105 106.002L379.079 89.8204L377.187 86.4037C374.93 82.3284 372.048 80.3313 366.55 79.0349C362.174 78.003 359.8 77.9529 354.796 78.7861ZM440.625 82.4877L434.592 85.6251V82.805V79.9842H425.71H416.828V84.1091V88.2339H420.952H425.076V105.368V122.502H420.952H416.828V126.627V130.752H429.834H442.84V126.627V122.502H438.716H434.592V108.31V94.1179L436.971 92.4749C442.334 88.7708 448.611 86.9451 451.65 88.2041C454.981 89.5837 455.159 90.6936 455.402 111.555L455.626 130.752H464.46H473.293L473.286 129.006C473.282 128.047 473.102 126.191 472.886 124.882L472.492 122.502H468.854H465.215L464.908 105.844C464.654 92.0808 464.413 88.746 463.524 86.6563C461.23 81.268 457.972 79.3496 451.114 79.3496C447.01 79.3496 446.181 79.5971 440.625 82.4877ZM389.547 84.1091V88.2339H393.353H397.16V105.368V122.502H393.353H389.547V126.627V130.752H401.918H414.29V126.627V122.502H410.483H406.677V101.243V79.9842H398.112H389.547V84.1091ZM111.198 89.7011C116.583 92.8576 119.275 98.112 119.275 105.468C119.275 110.226 118.458 112.761 115.575 116.952C110.553 124.253 98.7228 124.934 92.5396 118.277C89.1599 114.638 87.9526 111.239 87.9538 105.368C87.9551 100.806 88.2089 99.4846 89.5983 96.8009C91.5168 93.0949 93.9042 90.6701 97.4102 88.8634C100.964 87.0333 107.303 87.4178 111.198 89.7011ZM31.337 97.1411C39.8435 98.3709 43.142 101.855 43.142 109.611C43.142 113.251 42.8635 114.428 41.5058 116.522C38.8608 120.603 36.9543 121.351 28.0689 121.796C23.7915 122.009 20.009 122.089 19.6626 121.973C18.9577 121.736 18.7585 97.6043 19.4564 96.9069C20.0731 96.2894 26.295 96.4119 31.337 97.1411ZM361.654 107.267C362.887 107.61 365.242 108.745 366.888 109.788C369.821 111.649 369.879 111.749 369.879 114.958C369.879 117.737 369.616 118.457 368.134 119.742C364.723 122.7 360.977 124.088 356.409 124.088C352.457 124.088 351.989 123.939 350.121 122.07C348.472 120.42 348.051 119.423 347.818 116.62C347.176 108.878 353.082 104.886 361.654 107.267Z" fill="#FAA015"/>
<path fill-rule="evenodd" clip-rule="evenodd" d="M416.828 4.37424V8.7231L419.966 8.42167C421.691 8.25605 423.836 8.30427 424.731 8.52891L426.359 8.9376L426.193 34.466L426.027 59.9944L421.427 60.1809L416.828 60.3675V64.7367V69.1052L430.151 69.1706L443.474 69.2353V64.7735V60.3117H439.033H434.592V36.0912C434.592 22.7704 434.695 11.99 434.82 12.1353C435.063 12.4177 442.87 26.92 457.082 53.4898L465.823 69.8306H470.821H475.819L475.983 39.2115L476.148 8.59238L480.906 8.27508L485.665 7.95779V4.15023V0.342676L472.183 0.171333L458.701 0V4.36155V8.7231L461.839 8.42167C463.564 8.25605 465.706 8.30301 466.597 8.52702L468.217 8.93378V30.4979C468.217 42.3584 467.989 52.062 467.709 52.062C467.43 52.062 466.583 50.848 465.828 49.3649C465.071 47.8819 463.134 44.2406 461.522 41.2739C459.91 38.3072 456.806 32.5958 454.625 28.582C452.443 24.5682 448.114 16.5038 445.005 10.6605L439.35 0.0368055L428.089 0.0310925L416.828 0.0253794V4.37424ZM494.374 20.9473C488.659 23.0046 483.49 27.7285 480.466 33.6588C478.796 36.932 478.686 37.6421 478.686 45.0814C478.686 52.227 478.841 53.3286 480.247 56.1868C482.232 60.2184 487.401 65.436 491.428 67.4711C501.396 72.5098 513.591 70.759 522.085 63.0709C524.211 61.1455 525.952 59.0761 525.952 58.4714C525.952 57.7435 524.823 56.9045 522.609 55.9863C520.77 55.2241 519.038 54.6003 518.761 54.6003C518.484 54.6003 517.524 55.471 516.629 56.5352C512.838 61.0408 504.632 63.2441 498.825 61.315C494.904 60.0121 490.907 56.2274 489.466 52.4522C487.482 47.2562 486.46 47.5329 507.408 47.5976C524.452 47.6503 526.013 47.5652 526.399 46.5581C527.13 44.6506 524.781 35.1501 522.707 31.6325C516.917 21.809 504.739 17.2165 494.374 20.9473ZM603.988 21.6517C602.418 22.3618 600.205 23.8391 599.071 24.935L597.009 26.927V23.947V20.9669H586.858H576.707V25.0918V29.2166H579.562C581.132 29.2166 582.417 29.4813 582.417 29.8043C582.417 30.1273 580.847 35.4445 578.927 41.6197C577.008 47.795 575.438 53.0805 575.438 53.3654C575.438 54.3763 574.129 57.3094 573.817 56.9978C573.528 56.7085 571.408 49.8853 567.454 36.5144C565.402 29.5784 565.437 29.2166 568.142 29.2166H570.362V25.0918V20.9669H559.26H548.157V25.0918V29.2166H550.378C551.726 29.2166 552.602 29.5282 552.608 30.0099C552.628 31.4878 544.671 57.1298 544.192 57.1343C543.93 57.1368 543.713 56.7821 543.708 56.3455C543.705 55.9095 541.992 50.0084 539.902 43.2322C537.812 36.4561 536.103 30.5302 536.103 30.0644C536.103 29.4825 536.999 29.2166 538.958 29.2166H541.813V25.0918V20.9669H531.979H522.145V25.0918V29.2166H524.982H527.818L529.786 35.7212C530.867 39.2984 531.995 42.9397 532.291 43.8123C532.587 44.6848 534.479 50.8962 536.495 57.6146L540.162 69.8306H544.424H548.686L549.985 65.5471C555.878 46.1095 558.528 37.644 558.972 36.8317C559.597 35.6869 559.062 34.2458 563.684 49.5236C565.638 55.9806 567.82 63.1914 568.535 65.5471L569.833 69.8306H574.089H578.343L580.44 62.6914C581.593 58.7652 583.206 53.4105 584.023 50.7928C584.842 48.1751 586.679 42.2499 588.107 37.625L590.703 29.2166H593.161H595.619L595.591 33.6251C595.559 38.7177 596.677 41.6166 599.629 44.101C602.305 46.3538 605.037 47.4269 612.774 49.2653C620.735 51.1564 622.741 52.1267 623.3 54.3585C624.345 58.5189 620.496 61.5954 614.285 61.5669C608.776 61.5415 603.364 57.6832 603.356 53.7766C603.353 52.7803 602.851 52.6597 599.388 52.8247L595.423 53.0138V60.9463V68.8787L599.117 69.0906C602.418 69.2804 602.847 69.1623 603.156 67.9801C603.517 66.5999 604.3 66.2571 604.894 67.2198C605.705 68.5303 613.494 70.0152 617.567 69.6345C628.643 68.6001 634.838 61.0173 632.516 51.336C631.344 46.4522 627.755 43.0362 622.069 41.3926C619.627 40.6869 616.344 39.9235 614.773 39.6969C609.607 38.95 605.308 37.4778 604.638 36.2257C601.669 30.6775 609.39 25.9459 616.538 28.933C619.936 30.3526 622.387 32.9144 622.387 35.0466C622.387 36.8203 622.413 36.8317 626.511 36.8317H630.634V28.8993V20.9669H626.563C623.991 20.9669 622.4 21.2436 622.242 21.7183C622.059 22.2678 621.273 22.1822 619.321 21.401C615.459 19.8551 607.678 19.982 603.988 21.6517ZM507.87 28.5186C512.17 30.5144 516.996 36.4656 517.056 39.8461C517.078 41.0949 489.247 40.9845 488.767 39.7337C488.207 38.2742 490.777 33.2425 493.235 30.9865C497.277 27.2748 503.082 26.2962 507.87 28.5186ZM396.176 55.5846C391.843 57.7238 390.767 63.1654 394.021 66.4939C397.391 69.9416 402.001 69.9676 405.41 66.558C409.795 62.1716 406.062 54.5502 399.56 54.6149C398.763 54.6225 397.241 55.0591 396.176 55.5846Z" fill="black"/>
</svg>
