<?xml version="1.0" encoding="utf-8"?>
<svg version="1.1" id="Layer_1" xmlns="http://www.w3.org/2000/svg" xmlns:xlink="http://www.w3.org/1999/xlink" x="0px" y="0px"
	 viewBox="0 0 128.4 31.5" style="enable-background:new 0 0 128.4 31.5;" xml:space="preserve">
<style type="text/css">
	.st0{fill:#2B2A39;}
</style>
<g>
	<path class="st0" d="M122,27.5c-1.6,0-3.1,0-4.9,0c0-0.5,0-1,0-1.4c0-3.9,0-7.8,0-11.6c0-3.7-1.9-5.6-5.6-5.6c-1.2,0-2.3,0-3.4,0.2
		c-2.4,0.5-3.8,2.3-3.8,4.8c0,4,0,8.1,0,12.1c0,0.4,0,0.9,0,1.5c-1.7,0-3.3,0-5,0c0-0.4,0-0.9,0-1.3c0-4,0.1-8.1,0-12.1
		C99,7.6,104.6,3.7,109.3,3.9c1.6,0.1,3.2-0.1,4.7,0.2c4.2,0.9,7.1,3.4,8,7.8c0,0.1,0,0.2,0,0.3C122,17.3,122,22.4,122,27.5z"/>
	<path class="st0" d="M34.2,2c1,0.2,2,0.4,3,0.7c6.8,2,10.9,8.8,9.4,15.7c-1.5,7.1-7.9,11.6-15,10.7c-0.4-0.1-0.8,0.1-1.2,0.1
		c-1.4-0.1-2.9,0-4.3-0.3c-1.7-0.4-2.7-2-2.4-3.8c0.2-1.5,0.6-3.1,0.9-4.6c0.1-0.4,0.1-0.8,0.3-1.5c-0.9,0.6-1.6,1-2.3,1.5
		c-0.4-0.6-0.7-1.1-1.1-1.8c1.3-0.9,2.6-1.7,3.8-2.5c1.1-0.6,2-0.4,2.7,0.6c0.8,1.2,1.6,2.5,2.5,3.8c-0.6,0.4-1.1,0.7-1.7,1.2
		c-0.5-0.7-1-1.4-1.7-2.3c-0.5,2.2-0.9,4.1-1.2,6c-0.2,1.3,1.1,2.1,2.5,1.5c5.5-2.3,8.5-8.6,6.8-14.3c-1.2-4.1-3.9-6.8-7.9-8.2
		c-0.2-0.1-0.4-0.1-0.6-0.2c0-1,0.1-1.8,1.2-2.1C29.9,2,32.1,2,34.2,2z M32.7,26.3c4.3-0.9,7.8-6,7.7-11c-0.1-4.9-4-9.9-8-10.5
		C39.7,11.3,39,20.7,32.7,26.3z M37.5,5c6.7,7.3,6.7,13.1,0.1,21.2c3.4-0.5,7-5.3,7.3-9.6C45.2,11.4,42.1,6.4,37.5,5z"/>
	<path class="st0" d="M9.4,14.4c0.1-0.6,0.3-1.2,0.4-1.8c1.1-4.4,3.9-7.5,7.8-9.5c1.5-0.8,3-0.9,4.4,0.2c1.3,1.1,1.6,2.5,1.2,4.1
		c-0.4,1.6-0.7,3.3-1.1,5.3c1-0.6,1.7-1,2.4-1.5c0.4,0.6,0.7,1.1,1.1,1.8c-1.3,0.9-2.6,1.7-3.9,2.5c-1,0.6-1.9,0.4-2.6-0.5
		c-0.9-1.2-1.7-2.5-2.6-3.9c0.6-0.4,1.2-0.8,1.7-1.2c0.5,0.7,1,1.4,1.7,2.4c0.4-2.2,0.9-4.1,1.2-6.1c0.2-1.3-1.1-2.1-2.5-1.5
		c-4.5,1.9-7.4,6.4-7.2,11.3c0.1,5,3.2,9.3,7.8,11c0.4,0.1,0.8,0.3,1.3,0.4c-0.1,0.7-0.2,1.4-0.4,2.1c-0.1,0-0.2,0-0.2,0
		c-0.3-0.2-0.6-0.4-1-0.5c-4.9-1.8-8-5.2-9.3-10.3c-0.1-0.5-0.3-1.1-0.4-1.6C9.4,16.2,9.4,15.3,9.4,14.4z"/>
	<path class="st0" d="M72.5,9.7c-0.5,0-1,0-1.5,0c-3,0-5.9,0-8.9,0c-3.2,0-5.1,2-5.2,5.2c0,1,0,2.1,0,3.1c0.2,2.6,2.2,4.5,4.8,4.5
		c3.5,0,7.1,0,10.7,0c0,1.7,0,3.2,0,4.9c-0.2,0-0.3,0.1-0.5,0.1c-3.7,0-7.4,0.1-11.1,0c-4.2-0.2-7.7-3.2-8.6-7.4
		c-0.6-2.7-0.6-5.5,0.1-8.2c1.1-4.4,4.9-7.2,9.4-7.2c3.5,0,7,0,10.5,0c0.1,0,0.2,0,0.3,0.1C72.5,6.4,72.5,8,72.5,9.7z"/>
	<path class="st0" d="M95.7,4.7c0,1.7,0,3.3,0,4.9c-0.5,0-0.9,0.1-1.4,0.1c-3,0-5.9,0-8.9,0c-3.3,0-5.3,2-5.3,5.3
		c0,1.3,0,2.6,0.2,3.8c0.5,2.3,2.3,3.7,4.6,3.7c3.1,0,6.2,0,9.3,0c0.4,0,0.9,0,1.4,0c0,1.7,0,3.2,0,5c-0.6,0-1.2,0-1.7,0
		c-3.1,0-6.3,0-9.4,0c-4.1,0-8.8-3.2-9.3-8.7c-0.2-2.2-0.2-4.6,0.3-6.8c1-4.6,4.8-7.4,9.5-7.4C88.5,4.7,92,4.7,95.7,4.7z"/>
</g>
</svg>
