<svg width="996" height="105" viewBox="0 0 996 105" fill="none" xmlns="http://www.w3.org/2000/svg">
<path fill-rule="evenodd" clip-rule="evenodd" d="M252.439 2.35156H211.439L192.439 55.3516H209.439L192.439 102.352L265.439 29.3516H242.439L252.439 2.35156Z" fill="#F5B63F"/>
<path d="M52.9295 83.9905C44.8095 83.9905 37.8895 81.1705 32.1895 75.5205C26.4795 69.8705 23.6295 62.3805 23.6295 53.0405C23.6295 43.7005 26.6495 36.2805 32.6995 30.7805C38.7395 25.2705 46.0195 22.5205 54.5295 22.5205C64.5695 22.5205 73.0495 26.4505 79.9895 34.2805C81.9479 27.065 85.0725 20.2181 89.2395 14.0105C79.1795 5.42047 67.2795 1.11047 53.5095 1.11047C38.6195 1.11047 26.0195 6.09047 15.7195 16.0505C5.41953 26.0105 0.269531 38.4305 0.269531 53.3205C0.269531 68.2105 5.31953 80.5405 15.4295 90.3005C25.5295 100.07 38.3995 104.95 54.0195 104.95C67.3195 104.95 79.1195 100.28 89.4395 90.9805C85.2792 84.8601 82.1384 78.1059 80.1395 70.9805C73.0995 79.6505 64.0195 83.9905 52.9295 83.9905V83.9905ZM197.7 40.6705C195.64 30.9505 190.9 22.4805 183.47 15.2905C173.18 5.34047 160.51 0.370469 145.47 0.370469C130.42 0.370469 117.75 5.34047 107.47 15.2905C97.1795 25.2405 92.0395 37.6105 92.0395 52.4105C92.0395 67.2105 97.1795 79.5905 107.47 89.5305C117.76 99.4805 130.43 104.45 145.47 104.45C160.52 104.45 173.18 99.4805 183.47 89.5305C193.07 80.2505 198.19 68.8505 198.83 55.3305H192.44L197.7 40.6705ZM167.01 75.4105C161.19 81.7105 154.03 84.8505 145.53 84.8505C137.03 84.8505 129.88 81.7005 124.05 75.4105C118.23 69.1205 115.31 61.4805 115.31 52.4905C115.31 43.5005 118.22 35.8405 124.05 29.4905C129.87 23.1505 137.03 19.9705 145.53 19.9705C154.02 19.9705 161.18 23.1405 167.01 29.4905C172.83 35.8305 175.75 43.5005 175.75 52.4905C175.75 61.4805 172.84 69.1205 167.01 75.4105ZM313.79 67.5605L264.09 2.91047H252.24L242.45 29.3505H265.45L242.34 52.4605L242.59 103.46H265.31V40.3105L313.8 103.46H336.52V2.68047H313.8V67.5605H313.79V67.5605ZM354.85 17.9605H387.18V70.0005C387.18 75.9605 385.6 80.4305 382.45 83.4105C379.29 86.3905 375.48 87.8805 371.02 87.8805C364.71 87.8805 358.25 84.7605 351.65 78.5105L341.89 91.9205C350.24 100.19 360.33 104.32 372.18 104.32C381.59 104.32 389.31 101.39 395.33 95.5305C401.35 89.6705 404.36 80.8705 404.36 69.1505V2.68047H354.85V17.9605V17.9605ZM467.11 0.230469C451.97 0.230469 439.25 5.20047 428.96 15.1505C418.67 25.1005 413.53 37.5005 413.53 52.3505C413.53 67.2005 418.67 79.6005 428.96 89.5505C439.25 99.5005 451.97 104.47 467.11 104.47C482.25 104.47 494.97 99.5005 505.26 89.5505C515.55 79.6005 520.69 67.2005 520.69 52.3505C520.69 37.5005 515.54 25.1005 505.26 15.1505C494.97 5.20047 482.25 0.230469 467.11 0.230469ZM492.67 78.2305C485.73 85.3405 477.21 88.9005 467.12 88.9005C457.02 88.9005 448.5 85.3505 441.57 78.2305C434.63 71.1205 431.16 62.4905 431.16 52.3505C431.16 42.2105 434.63 33.5905 441.57 26.4705C448.51 19.3605 457.03 15.8005 467.12 15.8005C477.21 15.8005 485.73 19.3605 492.67 26.4705C499.61 33.5805 503.08 42.2105 503.08 52.3505C503.08 62.4905 499.61 71.1105 492.67 78.2305ZM598.45 58.4705C598.45 67.7005 596.12 75.0005 591.46 80.3805C586.8 85.7605 580.49 88.4505 572.53 88.4505C564.57 88.4505 558.259 85.7605 553.599 80.3805C548.939 75.0005 546.609 67.6905 546.609 58.4705V2.68047H529.43V59.2005C529.43 73.7105 533.46 84.8905 541.52 92.7205C549.58 100.55 559.909 104.47 572.539 104.47C585.159 104.47 595.5 100.55 603.56 92.7205C611.62 84.8905 615.65 73.7105 615.65 59.2005V2.68047H598.469V58.4705H598.45V58.4705ZM712.169 35.4105C712.169 23.9705 708.82 15.6605 702.12 10.4705C695.42 5.28047 684.31 2.68047 668.78 2.68047H630.919V103.45H648.099V69.5805H670.669L694.99 103.46H716.83L690.18 66.8405C704.84 62.5105 712.169 52.0405 712.169 35.4105V35.4105ZM669.51 54.1505H648.109V18.1105H669.95C679.17 18.1105 685.579 19.3405 689.169 21.7905C692.759 24.2405 694.56 28.7605 694.56 35.3405C694.56 41.9205 692.81 46.7105 689.32 49.6805C685.82 52.6605 679.21 54.1505 669.51 54.1505V54.1505ZM801.58 77.9405L742.46 2.68047H725.28V103.45H742.46V29.9305L800.12 103.46H818.76V2.68047H801.58V77.9405V77.9405ZM866.08 2.68047L821.229 103.45H839.58L849.77 80.5305H900.729L910.919 103.45H929.27L884.43 2.68047H866.08V2.68047ZM856.76 64.8205L875.25 23.3005L893.74 64.8205H856.76ZM948.93 87.3105V2.68047H931.75V103.45H995.38V87.3105H948.93V87.3105Z" fill="#2B2B36"/>
</svg>
