<?xml version="1.0" encoding="utf-8"?>
<svg version="1.1" id="Layer_1" xmlns="http://www.w3.org/2000/svg" xmlns:xlink="http://www.w3.org/1999/xlink" x="0px" y="0px"
	 viewBox="0 0 146.4 33.6" style="enable-background:new 0 0 146.4 33.6;" xml:space="preserve">
<style type="text/css">
	.st0{fill:#2B2B37;}
</style>
<g id="_x38_WfL0v_1_">
	<g>
		<path class="st0" d="M102.8,17.2c0-1.7,0-3.5,0-5.2c0-0.8-0.4-1.4-1.2-1.6c-0.2,0-0.7,0-0.6-0.4c0-0.4,0.5-0.3,0.8-0.3
			c0.7,0,1.4,0,2.1,0c0.8,0,1.1,0.2,1.1,1c0,3.8,0,7.6,0,11.4c0,0.2,0.2,0.6-0.2,0.7c-0.4,0.1-0.7,0-1-0.4c-1.4-1.9-2.9-3.7-4.3-5.6
			c-0.7-0.9-1.5-1.9-2.4-3c0,2.5,0,4.7,0,6.9c0,0.8,0.6,1.2,1.4,1.4c0.2,0,0.5,0,0.5,0.3c0,0.4-0.4,0.3-0.6,0.3c-0.8,0-1.7,0-2.6,0
			c-0.8,0-1.1-0.3-1-1.1c0.1-3,0.2-6,0.2-9c0-1.1,0.1-2.2-1.3-2.5c-0.2,0-0.3-0.2-0.2-0.4c0-0.3,0.2-0.3,0.4-0.3c1,0,2,0,3.1,0
			c0.4,0,0.6,0.4,0.8,0.6c1.6,2.2,3.3,4.4,5,6.5C102.6,17,102.6,17.2,102.8,17.2z"/>
		<path class="st0" d="M142.3,11.4c-1.1-0.2-2.1-0.2-3,0c-1,0.1-1.7,0.8-2.2,1.7c-0.1,0.3-0.3,0.6-0.7,0.5c-0.4-0.2-0.1-0.5,0-0.7
			c0.1-0.7,0.3-1.4,0.4-2.1c0.1-0.8,0.5-0.9,1.1-0.9c2.3,0,4.5,0,6.8,0c0.3,0,0.7-0.2,0.9,0.2c0.2,0.4,0,0.7-0.2,1
			c-2.2,3.2-4,6.6-5.9,10c0,0,0,0.1-0.1,0.4c1.6,0,3.2,0.2,4.8-0.4c0.8-0.3,1.1-1.1,1.5-1.8c0.1-0.3,0.2-0.6,0.6-0.5
			c0.4,0.1,0.2,0.5,0.2,0.7c-0.2,0.9-0.3,1.8-0.5,2.7c-0.1,0.5-0.4,0.8-0.9,0.8c-2.9,0-5.7,0-8.6,0c-0.6,0-0.7-0.5-0.3-1.2
			c1-1.6,2-3.2,3-4.8C140.1,15.1,141.2,13.3,142.3,11.4z"/>
		<path class="st0" d="M119.4,19.1c0.7-1.8,1.3-3.5,1.9-5.1c0.1-0.3,0.1-0.9,0.7-0.8c0.5,0,0.5,0.5,0.6,0.8c0.6,1.7,1.3,3.4,2,5.2
			c0.6-1.3,1.1-2.6,1.4-3.9c0.2-0.8-0.1-1.4-0.9-1.5c-0.3-0.1-0.6-0.1-0.6-0.5c0.1-0.3,0.4-0.2,0.7-0.2c0.4,0,0.9,0,1.3,0
			c1.3,0,1.5,0.3,1.1,1.5c-0.8,2.7-1.9,5.2-3.1,7.7c-0.2,0.3-0.3,0.5-0.7,0.5c-0.4,0-0.4-0.2-0.6-0.5c-0.6-1.5-1.2-3-1.8-4.7
			c-0.4,0.8-0.7,1.5-1,2.2c-0.4,0.8-0.7,1.7-1.1,2.5c-0.1,0.3-0.2,0.5-0.6,0.5c-0.4,0-0.5-0.2-0.6-0.6c-0.9-2.5-1.7-4.9-2.8-7.3
			c-0.2-0.6-0.5-1-1.1-1.2c-0.2-0.1-0.5-0.1-0.4-0.4c0-0.3,0.3-0.2,0.5-0.2c0.1,0,0.2,0,0.3,0c3.3,0,2.5-0.3,3.5,2.5
			C118.7,16.8,119,17.9,119.4,19.1z"/>
		<path class="st0" d="M45,9.5c2.4,0,2.5,0.2,1.9,2.4c-0.1,0.4-0.2,0.8-0.4,1.3c-0.1,0.2-0.2,0.3-0.4,0.3c-0.2,0-0.3-0.2-0.4-0.4
			c-0.1-0.4-0.2-0.7-0.4-1.1c-0.5-1.4-1.8-1.7-3-0.9c-0.8,0.6-1.3,1.4-1.5,2.3c-0.7,2.6,0.3,5.4,2.4,6.4c1.3,0.6,2.6,0.6,3.9,0.2
			c0.2,0,0.5-0.3,0.6,0.1c0.1,0.3-0.2,0.4-0.4,0.6c-0.9,0.6-1.8,1.2-2.7,1.8c-0.8,0.5-1.6,0.2-2.4,0c-2.6-1-4.2-3.5-4.1-6.6
			C38.5,12,41.1,9.5,45,9.5z"/>
		<path class="st0" d="M62.7,19.5c0.6-1.3,1.2-2.5,1.6-3.8c0.3-0.8,0.2-1.5-0.9-1.7c-0.2,0-0.5-0.1-0.4-0.4c0-0.3,0.3-0.2,0.5-0.2
			c0.5,0,1,0,1.4,0c1.4,0,1.7,0.3,1.1,1.7c-0.7,1.8-1.5,3.6-2.3,5.4c-0.5,1.1-0.9,2.2-1.4,3.3c-0.3,0.8,0,1.4,0.8,1.5
			c0.2,0,0.7,0,0.6,0.4c0,0.4-0.4,0.3-0.7,0.3c-0.9,0-1.8,0-2.7,0c-0.8,0-1-0.4-0.7-1.1c0.4-0.8,0.8-1.6,1.2-2.4
			c0.2-0.4,0.2-0.8,0-1.3c-0.8-1.9-1.7-3.8-2.5-5.6c-0.3-0.7-0.7-1.4-1.5-1.7c-0.2-0.1-0.3-0.1-0.3-0.3c0-0.3,0.3-0.2,0.4-0.2
			c0.8,0,1.6,0,2.4,0c0.7,0,0.9,0.5,1.1,1C61.3,16,62,17.7,62.7,19.5z"/>
		<path class="st0" d="M131.5,23c-0.9,0-1.7-0.2-2.5-0.6c-0.6-0.3-0.9-0.7-0.5-1.3c0.1-0.1,0.1-0.3,0.2-0.4c0.2-0.3,0.1-1,0.6-1
			c0.5-0.1,0.5,0.6,0.6,0.9c0.7,1.1,1.8,1.6,2.9,1.1c0.6-0.3,0.9-0.7,0.9-1.4c0-0.7-0.5-0.9-1-1.1c-0.6-0.1-1.2-0.3-1.8-0.4
			c-1.6-0.4-2.4-1.3-2.4-2.5c0-1.4,0.9-2.6,2.4-2.9c1.1-0.2,2.2-0.2,3.3,0.2c0.4,0.2,0.8,0.3,0.8,0.8c-0.1,0.6-0.3,1.3-0.8,1.7
			c-0.3,0.3-0.4-0.2-0.5-0.5c-0.5-1-1.2-1.4-2.2-1.3c-0.6,0.1-1,0.4-1.1,1.1c-0.1,0.7,0.3,1,0.9,1.2c0.6,0.2,1.2,0.3,1.9,0.4
			c1.7,0.4,2.4,1.2,2.5,2.5c0,1.7-0.9,2.9-2.5,3.3C132.5,22.9,132,22.9,131.5,23z"/>
		<path class="st0" d="M78.9,17.6c0-0.7,0-1.5,0-2.2c0-0.6,0-1-0.8-0.8c-0.2,0-0.4,0.1-0.5-0.1c-0.1-0.2,0-0.4,0.3-0.5
			c1-0.4,1-1.3,1-2.2c0-0.9,1.1-1.9,2-1.9c0.5,0,0.5,0.3,0.5,0.6c0,0.6-0.1,1.3-0.2,1.9c-0.1,0.6,0.1,0.9,0.8,0.8c0.2,0,0.4,0,0.7,0
			c0.3,0,0.8-0.2,0.8,0.2s-0.1,1-0.8,1.1c-1.4,0.1-1.4,0.1-1.4,1.5c0,1.1,0,2.2,0.1,3.3c0,1.1,0.6,1.6,1.8,1.7
			c0.2,0,0.6-0.2,0.8,0.2c0.1,0.4-0.4,0.4-0.6,0.6c-0.3,0.2-0.7,0.4-1.1,0.6c-1.5,0.8-2.8,0.2-3.1-1.5
			C78.7,19.8,78.8,18.7,78.9,17.6z"/>
		<path class="st0" d="M52.3,15.1c0.2-0.4,0.4-0.7,0.6-1.1c0.3-0.8,0.8-0.9,1.5-0.6c0.4,0.1,0.7,0.3,1,0.5c0.7,0.3,0.8,0.8,0.4,1.4
			c-0.1,0.2-0.2,0.3-0.3,0.5c-0.6,1.2-0.6,1.2-1.4,0.2c-0.6-0.8-1.7-0.6-1.9,0.3c-0.4,1.7-0.3,3.5,0,5.3c0.1,0.5,0.6,0.7,1.1,0.8
			c0.2,0,0.6,0,0.5,0.4c-0.1,0.4-0.4,0.2-0.6,0.2c-0.9,0-1.8,0-2.7,0c-0.8,0-1-0.3-1-1c0.1-1.8,0.2-3.6,0.2-5.4
			c0-0.4-0.1-0.9-0.1-1.3c0-0.6-0.3-0.9-0.9-1.1c-0.2-0.1-0.7,0-0.6-0.4c0.1-0.4,0.5-0.2,0.7-0.2c0.4,0,0.9,0,1.3,0
			C52.2,13.4,52.2,13.4,52.3,15.1z"/>
		<path class="st0" d="M76.3,15.5c-0.6-1.5-1.8-2.1-3.4-2.3c-1.3-0.1-1.4,1-1.9,1.8c0,0,0,0-0.1,0s-0.1,0-0.1,0
			c-0.3-0.4,0-0.9-0.2-1.3c-0.2-0.3-0.5-0.4-0.8-0.4c-0.8,0-1.5,0-2.3,0c-0.2,0-0.6-0.1-0.6,0.2C66.8,14,67.2,14,67.4,14
			c0.7,0.2,1,0.6,1,1.3c0,0.8,0.1,1.7,0.1,2.6c0,2.3-0.1,4.6-0.2,6.9c-0.1,1,0.1,1.3,1.1,1.3c0.9,0,1.7,0,2.6,0
			c0.2,0,0.5,0.1,0.6-0.2c0.1-0.3-0.2-0.3-0.4-0.4c-1.1-0.2-1.3-1-1.4-1.9c-0.1-0.6,0-0.8,0.7-0.7c1.5,0.2,2.9-0.1,4-1.4
			C76.8,19.7,77.2,17.7,76.3,15.5z M73.6,21.1c-0.5,0.6-1.3,0.8-2,0.6c-0.8-0.2-0.9-0.9-0.9-1.6c0-1,0-2,0-3c0-0.8,0.3-1.4,1.1-1.7
			s1.6-0.1,2.1,0.7c0.5,0.7,0.6,1.5,0.6,2.5C74.5,19.4,74.3,20.3,73.6,21.1z"/>
		<path class="st0" d="M88.6,13.2c-2.6,0-4.5,2.1-4.5,4.9c0,2.9,1.9,4.9,4.4,4.9c2.8,0,4.6-1.9,4.6-4.7
			C93.2,15.3,91.3,13.1,88.6,13.2z M90.6,20.5c-0.4,1.3-1.9,1.7-2.8,0.6c-1.3-1.7-1.6-3.6-1.1-5.6c0.2-0.7,0.7-1.1,1.4-1.1
			c0.7-0.1,1.3,0.3,1.7,0.9c0.8,1.2,0.9,2.6,1.1,4.1C90.8,19.7,90.8,20.1,90.6,20.5z"/>
		<path class="st0" d="M113.7,20.3c-0.4,0.2-0.8,0.3-1.3,0.4c-1.7,0.3-3.1-0.3-3.6-1.6c-0.3-0.6-0.1-1,0.6-1c0.7,0,1.3,0,2,0l0,0
			c0.7,0,1.3,0,2,0c0.6,0,0.8-0.3,0.9-0.9c0-1.7-1-3.3-2.5-3.9c-1.5-0.6-3.3-0.1-4.4,1.2c-1.1,1.3-1.3,2.9-1.1,4.6
			c0.3,1.9,1.8,3.3,3.7,3.7c1.7,0.3,3-0.3,4.1-2.1c0.1-0.1,0.2-0.3,0.1-0.4C114.1,20.1,113.9,20.3,113.7,20.3z M110.5,14.2
			c0.9,0,1.8,1.3,1.6,2.1c-0.1,0.3-0.2,0.3-0.4,0.3c-0.3,0-0.6,0.1-0.8,0.1c-1.5,0.1-1.5,0.1-2.3,0.9C107.9,16,109,14.2,110.5,14.2z
			"/>
	</g>
</g>
<path class="st0" d="M26.3,4l-4.2-2.4c-3.7-2.1-8.2-2.1-11.9,0L6,4c-3.7,2.1-6,6.1-6,10.3v4.9c0,4.3,2.3,8.2,6,10.3l4.2,2.4
	c3.7,2.1,8.2,2.1,11.9,0l4.2-2.4c3.7-2.1,6-6.1,6-10.3v-4.9C32.3,10.1,30,6.1,26.3,4z M17.3,19.7c-1.1,0-2.3,0-3.4,0
	c-0.5,0-0.7-0.1-0.8-0.6c0-0.1,0-0.2,0-0.4c0-1.5,0-3,0-4.6c0-0.2,0.1-0.4,0.3-0.3c0.6,0,1.1,0,1.7,0c0.2,0,0.3,0.1,0.3,0.3
	c0,1,0,2,0,2.9c0,1.1,0.5,1.6,1.6,1.6c0.2,0,0.4,0,0.7,0C18.2,18.9,18,19.7,17.3,19.7z M25.6,24.8c-0.2,0-0.2-0.1-0.3-0.2
	c-0.1-0.1-1.3-1.5-1.3-1.7c-0.1-0.2-0.2-0.4-0.4-0.6c-0.2-0.4-0.5-0.7-0.8-1.1c-0.1-0.2-0.3-0.4-0.4-0.5c-1-1.5-2.2-2.9-3.3-4.4
	c-1-1.3-1.9-2.6-2.9-3.9c-0.1-0.2-0.2-0.4-0.4-0.5c-0.1-0.1-0.2-0.3-0.3-0.4c0,0,0,0,0,0c-1.6,0-3.2,0-4.8,0c-0.4,0-2.5,1.1-3.1,3.6
	c-0.4,2.1,0.2,3.9,1.5,5.5c0,0,0.3,0.2,0.6,0.6c0.7,0.7,1.5,1.1,2.5,1.2c0.5,0.1,0.9,0,1.4,0c0.8,0,1.7,0,2.5,0c0.2,0,0.4,0,0.3,0.3
	c0,0.5,0,1.1,0,1.6c0,0.3-0.1,0.4-0.4,0.4c-1.4,0-2.9,0-4.3,0c-2.3,0-5.6-1.5-7-5.7c0-0.2-0.1-0.4-0.1-0.6c-0.2-1.3-0.2-2.6,0-3.9
	c0-0.2,0.1-0.4,0.2-0.6c0.2-0.7,0.5-1.4,0.9-2.1c0.4-0.6,0.9-1.2,1.5-1.7c0.1-0.1,1-0.8,1.7-1.2C9,9,9.9,8.5,12.7,8.5
	c0.2,0,0.8,0,0.9,0c1.2,0,2.5,0,3.7,0c0.3,0,0.5,0.1,0.7,0.4c0.6,0.8,1.1,1.6,1.7,2.4c0.2,0.2,1.9,2.3,2.4,3.1
	c0.1,0.1,0.2,0.2,0.3,0.4c0.8,0.9,1.5,1.9,2.4,2.9c0-0.3,0-0.5,0-0.8c0-0.2,0-0.3,0-0.4c0-0.6,0-1.2,0-1.7c0-0.2,0-0.3,0-0.5
	c0-0.5,0-1.1,0-1.6c0-0.2,0-0.5-0.1-0.7c-0.3-1-0.9-1.8-2-2.1c-0.3-0.1-0.4-0.4-0.3-0.9c0-0.3,0.3-0.4,0.5-0.4c1.1,0,2.2,0,3.3,0
	c0.2,0,0.3,0,0.4,0.1c0.1,0,0.2,0.1,0.3,0.1c0.1,0.2,0.2,0.4,0.2,0.6c0,1.8,0,3.5,0,5.3c0,3.4,0,6.8,0,10.2
	C26.7,24.8,26.1,24.8,25.6,24.8z"/>
</svg>
