<svg width="401" height="132" viewBox="0 0 401 132" fill="none" xmlns="http://www.w3.org/2000/svg">
<g clip-path="url(#clip0)">
<path d="M10.61 21.6092C16.3766 21.6092 21.0513 16.9345 21.0513 11.1679C21.0513 5.40131 16.3766 0.726562 10.61 0.726562C4.8434 0.726562 0.168671 5.40131 0.168671 11.1679C0.168671 16.9345 4.8434 21.6092 10.61 21.6092Z" fill="#F7BE23"/>
<path d="M10.61 49.0252C16.3766 49.0252 21.0513 44.3505 21.0513 38.5839C21.0513 32.8173 16.3766 28.1426 10.61 28.1426C4.8434 28.1426 0.168671 32.8173 0.168671 38.5839C0.168671 44.3505 4.8434 49.0252 10.61 49.0252Z" fill="#F7BE23"/>
<path d="M10.61 76.4413C16.3766 76.4413 21.0513 71.7665 21.0513 65.9999C21.0513 60.2333 16.3766 55.5586 10.61 55.5586C4.8434 55.5586 0.168671 60.2333 0.168671 65.9999C0.168671 71.7665 4.8434 76.4413 10.61 76.4413Z" fill="#F7BE23"/>
<path d="M10.61 103.855C16.3766 103.855 21.0513 99.1806 21.0513 93.414C21.0513 87.6474 16.3766 82.9727 10.61 82.9727C4.8434 82.9727 0.168671 87.6474 0.168671 93.414C0.168671 99.1806 4.8434 103.855 10.61 103.855Z" fill="#F7BE23"/>
<path d="M10.61 131.271C16.3766 131.271 21.0513 126.597 21.0513 120.83C21.0513 115.063 16.3766 110.389 10.61 110.389C4.8434 110.389 0.168671 115.063 0.168671 120.83C0.168671 126.597 4.8434 131.271 10.61 131.271Z" fill="#F7BE23"/>
<path d="M10.61 21.6092C16.3766 21.6092 21.0513 16.9345 21.0513 11.1679C21.0513 5.40131 16.3766 0.726562 10.61 0.726562C4.8434 0.726562 0.168671 5.40131 0.168671 11.1679C0.168671 16.9345 4.8434 21.6092 10.61 21.6092Z" fill="#F7BE23"/>
<path d="M10.61 49.0252C16.3766 49.0252 21.0513 44.3505 21.0513 38.5839C21.0513 32.8173 16.3766 28.1426 10.61 28.1426C4.8434 28.1426 0.168671 32.8173 0.168671 38.5839C0.168671 44.3505 4.8434 49.0252 10.61 49.0252Z" fill="#F7BE23"/>
<path d="M10.61 76.4413C16.3766 76.4413 21.0513 71.7665 21.0513 65.9999C21.0513 60.2333 16.3766 55.5586 10.61 55.5586C4.8434 55.5586 0.168671 60.2333 0.168671 65.9999C0.168671 71.7665 4.8434 76.4413 10.61 76.4413Z" fill="#F7BE23"/>
<path d="M10.61 103.855C16.3766 103.855 21.0513 99.1806 21.0513 93.414C21.0513 87.6474 16.3766 82.9727 10.61 82.9727C4.8434 82.9727 0.168671 87.6474 0.168671 93.414C0.168671 99.1806 4.8434 103.855 10.61 103.855Z" fill="#F7BE23"/>
<path d="M10.61 131.271C16.3766 131.271 21.0513 126.597 21.0513 120.83C21.0513 115.063 16.3766 110.389 10.61 110.389C4.8434 110.389 0.168671 115.063 0.168671 120.83C0.168671 126.597 4.8434 131.271 10.61 131.271Z" fill="#F7BE23"/>
<path d="M38.0253 21.6092C43.7919 21.6092 48.4666 16.9345 48.4666 11.1679C48.4666 5.40131 43.7919 0.726562 38.0253 0.726562C32.2587 0.726562 27.584 5.40131 27.584 11.1679C27.584 16.9345 32.2587 21.6092 38.0253 21.6092Z" fill="#F7BE23"/>
<path d="M38.0253 49.0252C43.7919 49.0252 48.4666 44.3505 48.4666 38.5839C48.4666 32.8173 43.7919 28.1426 38.0253 28.1426C32.2587 28.1426 27.584 32.8173 27.584 38.5839C27.584 44.3505 32.2587 49.0252 38.0253 49.0252Z" fill="#F7BE23"/>
<path d="M38.0253 76.4413C43.7919 76.4413 48.4666 71.7665 48.4666 65.9999C48.4666 60.2333 43.7919 55.5586 38.0253 55.5586C32.2587 55.5586 27.584 60.2333 27.584 65.9999C27.584 71.7665 32.2587 76.4413 38.0253 76.4413Z" fill="#F7BE23"/>
<path d="M38.0253 103.855C43.7919 103.855 48.4666 99.1806 48.4666 93.414C48.4666 87.6474 43.7919 82.9727 38.0253 82.9727C32.2587 82.9727 27.584 87.6474 27.584 93.414C27.584 99.1806 32.2587 103.855 38.0253 103.855Z" fill="#F7BE23"/>
<path d="M38.0253 131.271C43.7919 131.271 48.4666 126.597 48.4666 120.83C48.4666 115.063 43.7919 110.389 38.0253 110.389C32.2587 110.389 27.584 115.063 27.584 120.83C27.584 126.597 32.2587 131.271 38.0253 131.271Z" fill="#F7BE23"/>
<path d="M65.4407 21.6092C71.2072 21.6092 75.882 16.9345 75.882 11.1679C75.882 5.40131 71.2072 0.726562 65.4407 0.726562C59.6741 0.726562 54.9993 5.40131 54.9993 11.1679C54.9993 16.9345 59.6741 21.6092 65.4407 21.6092Z" fill="#F7BE23"/>
<path d="M65.4407 49.0252C71.2072 49.0252 75.882 44.3505 75.882 38.5839C75.882 32.8173 71.2072 28.1426 65.4407 28.1426C59.6741 28.1426 54.9993 32.8173 54.9993 38.5839C54.9993 44.3505 59.6741 49.0252 65.4407 49.0252Z" fill="#F7BE23"/>
<path d="M65.4407 76.4413C71.2072 76.4413 75.882 71.7665 75.882 65.9999C75.882 60.2333 71.2072 55.5586 65.4407 55.5586C59.6741 55.5586 54.9993 60.2333 54.9993 65.9999C54.9993 71.7665 59.6741 76.4413 65.4407 76.4413Z" fill="#F7BE23"/>
<path d="M65.4407 103.855C71.2072 103.855 75.882 99.1806 75.882 93.414C75.882 87.6474 71.2072 82.9727 65.4407 82.9727C59.6741 82.9727 54.9993 87.6474 54.9993 93.414C54.9993 99.1806 59.6741 103.855 65.4407 103.855Z" fill="#F7BE23"/>
<path d="M92.856 49.0252C98.6226 49.0252 103.297 44.3505 103.297 38.5839C103.297 32.8173 98.6226 28.1426 92.856 28.1426C87.0894 28.1426 82.4147 32.8173 82.4147 38.5839C82.4147 44.3505 87.0894 49.0252 92.856 49.0252Z" fill="#F7BE23"/>
<path d="M92.856 76.4413C98.6226 76.4413 103.297 71.7665 103.297 65.9999C103.297 60.2333 98.6226 55.5586 92.856 55.5586C87.0894 55.5586 82.4147 60.2333 82.4147 65.9999C82.4147 71.7665 87.0894 76.4413 92.856 76.4413Z" fill="#F7BE23"/>
<path d="M92.856 103.855C98.6226 103.855 103.297 99.1806 103.297 93.414C103.297 87.6474 98.6226 82.9727 92.856 82.9727C87.0894 82.9727 82.4147 87.6474 82.4147 93.414C82.4147 99.1806 87.0894 103.855 92.856 103.855Z" fill="#F7BE23"/>
<path d="M65.4407 131.271C71.2072 131.271 75.882 126.597 75.882 120.83C75.882 115.063 71.2072 110.389 65.4407 110.389C59.6741 110.389 54.9993 115.063 54.9993 120.83C54.9993 126.597 59.6741 131.271 65.4407 131.271Z" fill="#F7BE23"/>
<path d="M120.271 131.271C126.038 131.271 130.713 126.597 130.713 120.83C130.713 115.063 126.038 110.389 120.271 110.389C114.505 110.389 109.83 115.063 109.83 120.83C109.83 126.597 114.505 131.271 120.271 131.271Z" fill="#111111"/>
<path d="M213.686 31.0612C213.677 34.5097 213.085 37.9219 211.909 41.3066C210.729 44.6914 208.912 47.7391 206.456 50.4496C203.996 53.1602 200.867 55.3423 197.067 56.996C193.268 58.6542 188.767 59.4742 183.569 59.4605L165.611 59.4195C164.094 59.415 162.327 59.456 160.313 59.538C158.3 59.6245 156.386 59.7202 154.573 59.8295C154.459 59.5972 154.4 59.333 154.4 59.0414C154.4 58.7499 154.405 58.513 154.405 58.3399C154.405 57.6975 154.509 57.2739 154.714 57.0689C154.919 56.8684 155.165 56.7363 155.461 56.6771C157.156 56.3901 158.514 55.9983 159.539 55.5063C160.564 55.0143 161.078 54.1487 161.078 52.9233L161.179 9.03052C161.183 7.8643 160.76 7.03064 159.917 6.53408C159.069 6.03753 157.625 5.60931 155.584 5.25397C155.115 5.13553 154.824 4.94419 154.705 4.67997C154.591 4.41575 154.532 4.05129 154.532 3.58206C154.532 3.4044 154.537 3.17207 154.537 2.88052C154.537 2.58896 154.596 2.29742 154.714 2.00586C155.94 2.1243 157.038 2.20175 157.994 2.23364C158.96 2.26553 159.848 2.31563 160.668 2.3703C161.484 2.42952 162.304 2.46142 163.119 2.46142C163.935 2.46597 164.782 2.46595 165.661 2.46595L183.442 2.50696C188.407 2.51607 192.771 3.28596 196.534 4.81207C200.297 6.34274 203.45 8.3973 205.983 10.9712C208.52 13.5451 210.438 16.5608 211.741 20.0048C213.044 23.4671 213.695 27.148 213.686 31.0612ZM201.591 32.6966C201.6 28.1411 201.085 24.2279 200.042 20.957C198.999 17.6815 197.468 15.0074 195.459 12.9255C193.45 10.8527 190.945 9.32208 187.933 8.35175C184.927 7.38141 181.496 6.8894 177.642 6.88484L172.212 6.87119L172.112 51.9029C172.107 52.486 172.199 52.9871 172.372 53.3925C172.545 53.8025 172.896 54.126 173.419 54.3583C173.943 54.5952 174.677 54.7729 175.606 54.8867C176.54 55.0052 177.793 55.069 179.374 55.069C186.963 55.0872 192.562 53.0873 196.161 49.0648C199.764 45.0468 201.577 39.5892 201.591 32.6966Z" fill="#111111"/>
<path d="M247.484 40.34L229.084 40.2945L224.501 52.4624C224.323 52.7539 224.209 53.0774 224.146 53.4282C224.086 53.7789 224.059 54.0432 224.059 54.2163C224.054 54.8586 224.364 55.3825 224.975 55.7925C225.59 56.2025 226.829 56.5533 228.697 56.8494C229.512 56.9678 229.922 57.5236 229.922 58.5167C229.917 58.9267 229.863 59.4232 229.744 60.0064C228.168 59.8879 226.501 59.7786 224.751 59.6875C222.998 59.5964 221.276 59.5508 219.581 59.5463C218.415 59.5417 217.185 59.569 215.9 59.6283C214.615 59.6829 213.185 59.7968 211.609 59.9654C211.49 59.733 211.431 59.4688 211.431 59.1773C211.431 58.8857 211.436 58.6488 211.436 58.4757C211.44 57.3687 211.818 56.781 212.579 56.7218C214.388 56.3756 215.69 55.9975 216.479 55.5921C217.271 55.1866 217.895 54.485 218.365 53.4965L239.603 3.08472C240.072 2.09161 240.773 1.59961 241.707 1.59961C241.999 1.60416 242.29 1.61782 242.586 1.64515C242.878 1.67249 243.201 1.72262 243.548 1.77728L264.54 53.87C264.886 54.7493 265.56 55.4053 266.549 55.8472C267.542 56.2891 268.621 56.5943 269.788 56.7765C270.667 56.9542 271.104 57.5418 271.1 58.5349C271.095 58.9996 271.04 59.528 270.922 60.1066C269.054 59.9882 267.214 59.8788 265.405 59.7877C263.597 59.6966 261.902 59.651 260.326 59.6465C259.506 59.6419 258.517 59.6556 257.346 59.6829C256.18 59.7103 254.982 59.7513 253.757 59.8105C252.531 59.8651 251.315 59.9061 250.121 59.9335C248.923 59.9608 247.916 60.0018 247.096 60.0565C246.978 59.8242 246.923 59.5599 246.923 59.2684C246.923 58.9768 246.928 58.7399 246.928 58.5668C246.928 58.0429 247.033 57.6466 247.238 57.3824C247.438 57.1227 247.657 56.9632 247.894 56.904C249.415 56.617 250.54 56.2845 251.269 55.9064C252.003 55.5282 252.367 54.9634 252.372 54.2026C252.372 53.8518 252.285 53.4145 252.112 52.8861L247.484 40.34ZM245.83 35.9576L238.427 16.2275L230.76 35.9211L245.83 35.9576Z" fill="#111111"/>
<path d="M292.306 53.2377C292.301 53.8254 292.347 54.3037 292.433 54.6864C292.52 55.0645 292.752 55.4016 293.13 55.6932C293.508 55.9848 294.064 56.2353 294.793 56.4403C295.522 56.6499 296.501 56.8412 297.727 57.0143C298.31 57.1328 298.606 57.6293 298.602 58.5085C298.602 58.6862 298.583 58.9459 298.551 59.2966C298.524 59.6474 298.479 59.939 298.419 60.1713C296.552 60.0483 294.547 59.9435 292.42 59.8479C290.288 59.7568 288.406 59.7112 286.771 59.7021C285.076 59.6975 283.176 59.7385 281.076 59.8205C278.972 59.9025 276.985 60.0028 275.113 60.1121C274.999 59.8798 274.94 59.5882 274.94 59.2374C274.944 58.8867 274.945 58.6224 274.945 58.4493C274.949 57.5154 275.241 57.0189 275.824 56.9597C277.049 56.7911 278.033 56.6043 278.762 56.3993C279.491 56.1989 280.033 55.9483 280.384 55.6567C280.735 55.3652 280.967 55.0281 281.09 54.65C281.208 54.2673 281.268 53.7935 281.268 53.2059L281.368 9.31307C281.372 8.72996 281.313 8.24707 281.199 7.86441C281.081 7.48629 280.849 7.14917 280.502 6.85762C280.152 6.56606 279.609 6.3155 278.881 6.1105C278.152 5.91006 277.172 5.71419 275.947 5.53652C275.364 5.35886 275.068 4.86229 275.072 4.04229C275.072 3.86462 275.077 3.60496 275.077 3.25418C275.077 2.90341 275.136 2.58452 275.254 2.29297C277.122 2.41597 279.108 2.52072 281.208 2.61184C283.309 2.70295 285.208 2.75306 286.903 2.75762C288.538 2.76217 290.42 2.72572 292.552 2.63917C294.684 2.55717 296.688 2.46152 298.556 2.34763C298.611 2.63919 298.656 2.96263 298.684 3.30885C298.711 3.65963 298.725 3.92384 298.725 4.09695C298.72 4.91695 298.428 5.41352 297.845 5.58663C296.62 5.75518 295.636 5.94651 294.907 6.14695C294.178 6.35195 293.622 6.59795 293.244 6.88951C292.862 7.18107 292.629 7.51819 292.538 7.8963C292.447 8.27897 292.406 8.76185 292.401 9.3404L292.306 53.2377Z" fill="#111111"/>
<path d="M323.757 52.3482C323.753 53.5736 324.545 54.3936 326.122 54.8082C327.698 55.2227 330.295 55.4323 333.916 55.4414L337.246 55.4505C338.704 55.455 339.975 55.2956 341.055 54.9767C342.134 54.6578 343.087 54.1203 343.907 53.3641C344.727 52.6078 345.474 51.633 346.148 50.4348C346.822 49.2367 347.483 47.7972 348.13 46.1025C348.303 45.6378 348.745 45.4009 349.446 45.4055C349.738 45.4055 350.088 45.4921 350.498 45.6743C350.908 45.8474 351.314 46.025 351.724 46.2027C351.25 48.0705 350.826 50.0977 350.439 52.289C350.057 54.4756 349.715 56.6213 349.414 58.7259C349.355 59.4275 349.164 59.8648 348.845 60.0379C348.521 60.211 348.184 60.2976 347.833 60.2976C347.364 60.2976 346.713 60.2657 345.865 60.2065C345.018 60.1473 344.098 60.1017 343.105 60.0698C342.112 60.0379 341.105 59.9878 340.084 59.9332C339.059 59.8739 338.171 59.842 337.415 59.8375L317.525 59.7919C315.831 59.7874 313.89 59.8238 311.699 59.9058C309.512 59.9924 307.535 60.0881 305.786 60.1974C305.667 59.9651 305.608 59.6598 305.608 59.2772C305.613 58.8991 305.613 58.6212 305.613 58.4435C305.617 57.5643 305.909 57.0996 306.492 57.0449C308.715 56.644 310.305 56.2067 311.271 55.7421C312.236 55.2774 312.719 54.4619 312.724 53.2912L312.824 9.39838C312.829 8.81527 312.769 8.33239 312.655 7.95428C312.537 7.57617 312.305 7.23904 311.958 6.94749C311.608 6.65593 311.07 6.40537 310.341 6.20037C309.608 5.99537 308.633 5.80403 307.407 5.62637C306.824 5.4487 306.528 4.95216 306.533 4.13216C306.533 3.95449 306.537 3.69483 306.537 3.34406C306.537 2.99328 306.597 2.67437 306.715 2.38281C308.583 2.50581 310.569 2.6106 312.669 2.70171C314.774 2.79282 316.642 2.84293 318.277 2.84749C319.097 2.85204 320.031 2.83837 321.083 2.81104C322.136 2.7837 323.229 2.75637 324.368 2.72904C325.507 2.70171 326.646 2.66072 327.789 2.6015C328.928 2.54683 329.967 2.48761 330.896 2.43294C330.951 2.7245 330.996 3.04794 331.028 3.39416C331.055 3.74494 331.069 4.00915 331.069 4.18226C331.064 5.00226 330.773 5.49883 330.19 5.67194C327.68 6.01361 325.994 6.46461 325.151 7.01583C324.299 7.56706 323.876 8.42805 323.871 9.59883L323.757 52.3482Z" fill="#111111"/>
<path d="M367.427 35.8896L353.56 9.31248C352.922 8.08704 352.116 7.23514 351.154 6.76591C350.193 6.29669 348.954 5.94138 347.437 5.70905C346.736 5.64983 346.385 5.06214 346.385 3.95059C346.385 3.8367 346.389 3.70459 346.389 3.55425C346.389 3.40848 346.417 3.24904 346.476 3.07593L346.567 2.46094C347.852 2.57938 349.501 2.68869 351.514 2.7798C353.528 2.87092 355.733 2.91647 358.129 2.92559C358.944 2.93014 359.924 2.91649 361.063 2.88916C362.202 2.86183 363.354 2.83447 364.525 2.80714C365.691 2.7798 366.789 2.73882 367.814 2.6796C368.835 2.62493 369.668 2.57026 370.311 2.51104C370.424 3.03493 370.484 3.39936 370.484 3.60436C370.484 3.80936 370.479 3.97336 370.479 4.08725C370.475 5.08036 370.128 5.63615 369.427 5.75003C367.905 5.91859 366.853 6.16914 366.27 6.48803C365.682 6.80692 365.391 7.2306 365.391 7.75449C365.391 8.22371 365.591 8.8387 365.996 9.59492L376.201 29.9446L386.323 11.0436C386.966 9.93659 387.289 9.00272 387.294 8.24194C387.294 7.54038 386.975 7.03013 386.332 6.70669C385.686 6.38325 384.579 6.07348 383.007 5.77737C382.246 5.65892 381.868 5.10316 381.873 4.11005C381.873 3.87771 381.964 3.35382 382.141 2.53837C383.367 2.65682 384.897 2.7616 386.738 2.85727C388.578 2.94838 390.2 2.99393 391.599 2.99849C392.943 3.00305 394.359 2.97569 395.849 2.92103C397.339 2.86636 398.842 2.75247 400.364 2.58392C400.477 2.99392 400.537 3.32648 400.537 3.59071C400.537 3.85037 400.532 4.04171 400.532 4.16015C400.528 5.21248 400.177 5.76827 399.48 5.82294C397.375 6.10994 395.913 6.48804 395.097 6.95271C394.277 7.41737 393.576 8.14625 392.988 9.13481L378.47 35.7393L378.429 53.1734C378.424 53.8157 378.515 54.3396 378.688 54.7496C378.861 55.1596 379.185 55.5104 379.649 55.8065C380.114 56.098 380.743 56.3486 381.531 56.5536C382.319 56.7631 383.353 56.9545 384.638 57.1276C384.929 57.1868 385.175 57.3189 385.38 57.5239C385.585 57.7289 385.686 58.1526 385.686 58.7949C385.686 58.9134 385.672 59.0409 385.645 59.1912C385.613 59.337 385.599 59.4965 385.599 59.6696L385.512 60.2846C384.579 60.28 383.699 60.2664 382.884 60.2345C382.064 60.2071 381.248 60.157 380.433 60.0978C379.03 59.9794 377.586 59.9019 376.096 59.87C374.606 59.8381 373.367 59.8199 372.374 59.8154C371.322 59.8108 370.11 59.8245 368.739 59.8518C367.368 59.8791 366.037 59.9475 364.753 60.0614C363.992 60.116 363.249 60.1616 362.521 60.1889C361.792 60.2163 361.045 60.2299 360.288 60.2254L360.202 59.6104C360.143 59.4372 360.115 59.2778 360.115 59.132C360.115 58.9862 360.115 58.8541 360.115 58.7357C360.115 58.0934 360.22 57.6697 360.425 57.4647C360.63 57.2643 360.876 57.1322 361.172 57.0684C362.402 56.8406 363.423 56.6219 364.243 56.4215C365.058 56.221 365.7 55.9887 366.174 55.7245C366.639 55.4648 366.962 55.1277 367.135 54.7177C367.313 54.3077 367.404 53.7838 367.404 53.1415L367.427 35.8896Z" fill="#111111"/>
<path d="M194.061 130.476C189.154 130.467 184.863 129.697 181.187 128.171C177.51 126.645 174.476 124.55 172.089 121.885C169.702 119.224 167.912 116.094 166.723 112.496C165.534 108.901 164.946 105.034 164.955 100.883C164.964 97.4395 165.557 93.9636 166.732 90.4604C167.907 86.9617 169.757 83.7956 172.276 80.9711C174.791 78.1467 178.011 75.8461 181.929 74.0695C185.842 72.2974 190.521 71.4181 195.951 71.4318C198.931 71.4409 201.719 71.6505 204.32 72.065C206.912 72.4796 209.727 73.0992 212.766 73.9283C212.88 75.5045 213.107 77.518 213.449 79.9735C213.795 82.4289 214.283 84.8251 214.921 87.1621C214.629 87.2168 214.251 87.2897 213.782 87.3762C213.312 87.4628 212.962 87.5038 212.729 87.5038C212.26 87.4993 211.864 87.4309 211.545 87.2806C211.221 87.1303 211.007 86.825 210.889 86.3604C210.251 84.4334 209.522 82.807 208.711 81.4905C207.896 80.1739 206.921 79.1216 205.787 78.3289C204.652 77.5362 203.322 76.9622 201.805 76.6115C200.284 76.2607 198.502 76.0785 196.461 76.0739C193.309 76.0694 190.516 76.6024 188.088 77.6775C185.66 78.7526 183.628 80.2969 181.993 82.3105C180.348 84.3195 179.105 86.743 178.248 89.572C177.396 92.4056 176.964 95.599 176.959 99.1615C176.95 102.961 177.451 106.496 178.467 109.767C179.478 113.042 180.872 115.88 182.654 118.277C184.43 120.677 186.539 122.55 188.99 123.898C191.441 125.247 194.097 125.925 196.958 125.934C199.295 125.939 201.295 125.725 202.958 125.288C204.625 124.855 206.055 124.185 207.254 123.283C208.447 122.381 209.477 121.229 210.324 119.83C211.171 118.431 211.955 116.801 212.661 114.928C212.834 114.464 213.112 114.126 213.495 113.921C213.873 113.721 214.269 113.616 214.675 113.616C214.966 113.616 215.335 113.662 215.772 113.753C216.21 113.839 216.574 113.944 216.87 114.058C216.515 115.051 216.146 116.176 215.768 117.429C215.381 118.682 214.984 119.967 214.574 121.279C214.164 122.591 213.795 123.903 213.472 125.219C213.144 126.531 212.866 127.802 212.629 129.028C209.764 129.547 206.848 129.916 203.869 130.144C200.894 130.376 197.623 130.485 194.061 130.476Z" fill="#111111"/>
<path d="M221.781 101.016C221.79 96.9298 222.574 93.1077 224.132 89.5453C225.685 85.9874 227.813 82.8714 230.51 80.1882C233.202 77.505 236.345 75.3957 239.94 73.856C243.534 72.3162 247.374 71.5554 251.465 71.5645C255.67 71.5736 259.583 72.3162 263.2 73.7831C266.817 75.25 269.952 77.3045 272.607 79.9376C275.259 82.5753 277.336 85.7004 278.849 89.3266C280.356 92.9529 281.108 96.8979 281.099 101.157C281.09 105.248 280.306 109.084 278.748 112.674C277.19 116.259 275.068 119.38 272.375 122.031C269.683 124.682 266.521 126.778 262.9 128.318C259.273 129.853 255.415 130.618 251.329 130.609C247.124 130.6 243.215 129.862 239.593 128.395C235.972 126.928 232.856 124.874 230.232 122.241C227.612 119.603 225.544 116.491 224.036 112.893C222.524 109.303 221.772 105.339 221.781 101.016ZM252.65 126.063C255.101 126.067 257.319 125.534 259.31 124.455C261.301 123.379 263.014 121.913 264.449 120.04C265.884 118.172 267 115.986 267.792 113.48C268.585 110.97 268.99 108.282 268.995 105.421C269.004 101.271 268.617 97.4219 267.842 93.8549C267.063 90.2924 265.87 87.2037 264.271 84.6025C262.667 82.0013 260.658 79.9513 258.239 78.4525C255.816 76.9583 253 76.2066 249.789 76.1975C247.743 76.193 245.757 76.6394 243.826 77.546C241.894 78.4434 240.199 79.7554 238.732 81.4729C237.27 83.1949 236.099 85.2813 235.216 87.7322C234.332 90.1831 233.89 92.9574 233.881 96.0506C233.872 100.374 234.282 104.374 235.124 108.055C235.963 111.735 237.179 114.911 238.778 117.571C240.377 120.236 242.34 122.309 244.677 123.808C247.014 125.302 249.67 126.053 252.65 126.063Z" fill="#111111"/>
<path d="M304.469 123.206C304.465 123.793 304.51 124.272 304.597 124.654C304.683 125.033 304.916 125.37 305.294 125.661C305.672 125.953 306.228 126.203 306.956 126.408C307.685 126.618 308.665 126.809 309.89 126.982C310.473 127.101 310.769 127.597 310.765 128.477C310.765 128.654 310.747 128.914 310.715 129.265C310.687 129.615 310.642 129.907 310.583 130.135C308.715 130.016 306.715 129.907 304.583 129.816C302.451 129.725 300.57 129.679 298.934 129.67C297.239 129.666 295.34 129.707 293.24 129.789C291.135 129.871 289.149 129.966 287.281 130.08C287.163 129.848 287.103 129.556 287.103 129.205C287.108 128.855 287.108 128.59 287.108 128.417C287.112 127.483 287.404 126.987 287.987 126.928C289.212 126.759 290.197 126.572 290.925 126.367C291.654 126.167 292.196 125.916 292.547 125.625C292.898 125.338 293.13 125.001 293.253 124.623C293.372 124.24 293.431 123.762 293.431 123.174L293.531 79.2812C293.536 78.6981 293.477 78.2152 293.363 77.8371C293.244 77.4589 293.012 77.1218 292.666 76.8257C292.315 76.5342 291.773 76.2882 291.044 76.0786C290.315 75.8736 289.336 75.6823 288.11 75.5046C287.527 75.327 287.231 74.8349 287.235 74.0149C287.235 73.8373 287.24 73.5776 287.24 73.2268C287.24 72.8761 287.299 72.5572 287.418 72.2656C289.285 72.3841 291.272 72.4934 293.372 72.5845C295.472 72.6756 297.372 72.7257 299.066 72.7303C300.702 72.7349 302.583 72.6939 304.715 72.6119C306.847 72.5299 308.852 72.4342 310.719 72.3203C310.774 72.6164 310.82 72.9353 310.847 73.2861C310.874 73.6368 310.888 73.9011 310.888 74.0742C310.883 74.8942 310.592 75.3862 310.009 75.5638C308.783 75.7324 307.799 75.9237 307.07 76.1242C306.341 76.3292 305.786 76.5752 305.408 76.8667C305.025 77.1583 304.793 77.4954 304.701 77.8735C304.61 78.2562 304.569 78.7391 304.565 79.3176L304.469 123.206Z" fill="#111111"/>
<path d="M363.719 110.729L363.792 79.6235C363.796 78.3389 363.359 77.4369 362.484 76.9084C361.609 76.38 360.065 75.9654 357.847 75.6693C357.086 75.4916 356.708 74.9359 356.708 74.002C356.708 73.8243 356.712 73.592 356.712 73.3004C356.712 73.0089 356.771 72.7173 356.89 72.4257C358.348 72.6034 359.778 72.7264 361.181 72.7857C362.584 72.8449 364.22 72.8813 366.088 72.8859C367.955 72.8904 369.563 72.8677 370.907 72.813C372.247 72.7583 373.595 72.6444 374.939 72.4713C374.994 72.7629 375.039 73.0544 375.071 73.346C375.098 73.6375 375.112 73.8699 375.112 74.0475C375.108 75.0406 374.761 75.5964 374.06 75.7149C372.133 76.0019 370.816 76.4073 370.115 76.9312C369.409 77.4551 369.062 78.3024 369.058 79.4686L368.939 130.723C368.702 130.778 368.311 130.823 367.755 130.851C367.199 130.878 366.835 130.892 366.657 130.892C366.247 130.892 365.81 130.787 365.34 130.582C364.876 130.377 364.379 129.953 363.855 129.311L329.443 85.4228L329.356 123.27C329.352 123.858 329.397 124.336 329.484 124.719C329.57 125.097 329.803 125.416 330.181 125.685C330.559 125.949 331.115 126.181 331.843 126.391C332.572 126.6 333.552 126.819 334.777 127.056C335.069 127.115 335.319 127.247 335.524 127.452C335.725 127.657 335.83 128.081 335.83 128.723C335.825 129.133 335.766 129.63 335.647 130.213C334.19 130.09 332.814 129.985 331.529 129.894C330.244 129.803 328.755 129.757 327.065 129.753C325.37 129.748 323.748 129.789 322.204 129.871C320.655 129.953 319.238 130.054 317.954 130.167C317.84 129.935 317.78 129.671 317.78 129.379C317.78 129.088 317.785 128.851 317.785 128.678C317.785 128.095 317.89 127.685 318.095 127.452C318.3 127.215 318.546 127.07 318.842 127.015C320.947 126.673 322.35 126.236 323.051 125.708C323.757 125.184 324.108 124.368 324.108 123.257L324.213 78.9265C324.217 77.9926 323.908 77.2774 323.297 76.7809C322.682 76.2843 321.302 75.8834 319.138 75.5873C318.441 75.4096 318.086 74.8539 318.09 73.92C318.09 73.8061 318.095 73.674 318.095 73.5237C318.095 73.3779 318.122 73.2184 318.181 73.0453L318.272 72.3438C319.088 72.403 319.876 72.4485 320.637 72.4804C321.398 72.5123 322.154 72.5624 322.91 72.6171C324.195 72.6763 325.498 72.731 326.81 72.7629C328.126 72.7947 329.188 72.813 330.008 72.813C331.702 72.8175 332.814 72.895 333.338 73.0362C333.862 73.1865 334.331 73.4644 334.736 73.8744L363.719 110.729Z" fill="#111111"/>
</g>
<defs>
<clipPath id="clip0">
<rect width="400.8" height="132" fill="white"/>
</clipPath>
</defs>
</svg>
