<svg width="139" height="24" fill="none" xmlns="http://www.w3.org/2000/svg"><path d="m74.003 0-4.75 1.32v3.956l4.75-1.286V0Z" fill="#F9A41A"/><path fill-rule="evenodd" clip-rule="evenodd" d="M2.39 1.528 0 2.193v17.061H4.815v-9.2c0-5.06-.008-9.199-.017-9.197l-2.407.67ZM63.286 2.53l-2.177.61-.02 5.997c-.02 6.061.006 6.95.222 7.783.23.882.695 1.544 1.33 1.89.821.447 2.408.647 4.11.519.559-.042 1.034-.098 1.057-.125.048-.057.932-3.324.905-3.346-.01-.008-.286.027-.612.078-.766.12-1.563.08-1.97-.1-.246-.11-.336-.195-.438-.42-.122-.269-.129-.455-.13-3.565L65.56 8.57h2.371l.098-.346c.298-1.049.697-2.494.697-2.523 0-.018-.712-.033-1.583-.033H65.56v-1.88c0-1.034-.022-1.877-.05-1.874-.026.003-1.028.28-2.225.616ZM8.442 5.794l-2.077.578-.017 6.442-.017 6.44h4.486v-3.973c.002-4.24.015-4.446.334-5.07.21-.413.63-.828 1.042-1.03.34-.167.435-.182 1.13-.182.653 0 .796.02 1.027.143.412.221.726.613.897 1.122.15.447.15.476.172 4.72l.022 4.272 2.222-.017 2.223-.017.019-4.123c.02-4.39-.032-5.777-.248-6.62-.412-1.608-1.387-2.605-2.948-3.015-.736-.194-2.007-.242-2.68-.102a5.9 5.9 0 0 0-1.956.799c-.417.276-1.033.87-1.27 1.222-.106.157-.111.113-.115-1.006-.002-.893-.023-1.17-.086-1.166-.045.002-1.017.265-2.16.583Zm64.274-.316-2.127.597-1.203.335V19.255H73.805V12.23c0-5.578-.017-7.023-.083-7.019-.045.003-.498.123-1.006.267Zm4.683.315-2.044.573-.017 6.444-.017 6.445h4.42v-3.677c0-2.023.028-3.916.062-4.207.125-1.089.543-1.779 1.302-2.153.429-.21.48-.22 1.207-.22.688 0 .787.016 1.053.165.369.207.694.63.83 1.075.177.586.225 1.733.227 5.439l.002 3.578H88.843v-4.733c-.001-5.046-.025-5.503-.333-6.425-.455-1.363-1.422-2.269-2.813-2.634-.74-.194-2.008-.241-2.706-.1-1.271.258-2.49.98-3.054 1.81-.126.186-.251.339-.279.34-.027 0-.05-.518-.05-1.153 0-.883-.019-1.152-.082-1.147-.045.004-1.002.265-2.127.58Zm24.14-.005-2.044.572-.033.462-.033.462-.15-.24c-.082-.133-.354-.434-.605-.67-1.016-.959-2.377-1.295-4.057-1.002-2.901.506-4.783 3.087-4.785 6.563-.001 2.464.851 4.545 2.296 5.606.76.558 1.453.843 2.478 1.02 1.716.294 3.106-.082 4.157-1.128.179-.177.412-.44.519-.586l.194-.264-.034 1.122c-.038 1.233-.106 1.569-.446 2.207-.24.449-.574.771-1.042 1.004-.269.134-.403.152-1.098.152-.758 0-.81-.009-1.227-.213a2.461 2.461 0 0 1-1.158-1.177c-.09-.196-.195-.357-.233-.357-.039 0-.939.241-2 .537l-1.932.537.092.26c.507 1.436 1.794 2.554 3.473 3.016 1.108.306 2.786.413 4.04.26 2.695-.33 4.699-1.774 5.445-3.922.365-1.053.349-.709.374-8.026.019-5.491.007-6.776-.061-6.772-.047.003-1.005.263-2.13.577Zm-62.748-.414c-2.944.517-5.192 2.632-5.815 5.471-.313 1.426-.125 3.39.459 4.792.709 1.705 2.32 3.091 4.226 3.637 2.709.776 6.07.24 8.44-1.344.574-.384.589-.4.521-.574-.194-.502-1.112-3.01-1.112-3.04 0-.02-.212.18-.47.443-.762.776-1.66 1.31-2.743 1.634-.691.206-2.054.29-2.662.163-.51-.105-1.122-.409-1.467-.727-.274-.252-.64-.818-.571-.884.017-.017 2.034-.584 4.483-1.26 2.449-.677 4.548-1.261 4.666-1.299.212-.066.215-.071.215-.486 0-1.396-.533-3.061-1.32-4.122-.862-1.164-2.048-1.916-3.645-2.314-.729-.181-2.416-.229-3.205-.09Zm13.743-.058c-1.78.213-3.075.714-3.93 1.52-.749.707-1.08 1.516-1.072 2.624.008 1.172.25 1.793.974 2.507.785.773 1.418 1.023 4.09 1.617 2.036.453 2.495.59 2.859.853.272.197.477.591.474.911-.004.552-.49 1.042-1.267 1.278-.667.202-1.636.157-2.21-.104-.675-.307-1.238-1.033-1.372-1.769-.025-.136-.076-.247-.114-.247-.086 0-3.698.996-3.736 1.03-.07.063.164.81.4 1.283.725 1.447 2.235 2.354 4.508 2.707.29.046 1.018.083 1.616.083.599 0 1.326-.037 1.616-.083 3.21-.499 4.98-2.153 4.98-4.656 0-1.043-.33-1.83-1.081-2.581-.788-.788-1.4-1.031-3.635-1.447-2.203-.409-3.019-.688-3.452-1.182-.407-.463-.221-1.035.436-1.34.335-.157.456-.176 1.07-.174.94.004 1.367.141 1.824.586.266.26.365.415.449.706l.108.374.442-.127c.243-.07 1.118-.311 1.944-.538l1.502-.412-.04-.198c-.021-.109-.14-.416-.264-.682-.755-1.621-3.061-2.605-6.03-2.573-.49.005-.98.02-1.09.034Zm-32.88.401c0 .027 1.012 3.084 2.249 6.794l2.248 6.744h2.567c1.411 0 2.566-.01 2.566-.021 0-.012 1.024-3.069 2.274-6.794l2.274-6.772H29.29l-.068.247c-.607 2.227-2.411 8.636-2.44 8.671-.023.027-.478-1.531-1.013-3.462L24.527 6.64l-.271-.973h-2.3c-1.266 0-2.301.022-2.301.05ZM40.489 8.31c.845.137 1.557.672 1.955 1.466.39.78.615.643-2.43 1.487-1.463.406-2.694.738-2.737.738-.108 0-.096-.59.023-1.153.29-1.37 1.188-2.34 2.343-2.532l.393-.067c.018-.004.222.024.453.061Zm57.532.609c.937.459 1.51 1.652 1.506 3.137-.003 1.555-.684 2.716-1.789 3.052-.65.198-1.466.159-1.984-.095-.952-.466-1.457-1.514-1.448-3.012.006-1.273.319-2.17.953-2.74.492-.444.864-.562 1.697-.541.602.015.742.04 1.065.199Zm13.446 1.273a3.566 3.566 0 0 0-1.687.979c-.712.714-1.105 1.52-1.285 2.641-.101.622-.045 1.954.104 2.509.15.559.567 1.386.918 1.823.964 1.197 2.818 1.68 4.264 1.11.897-.354 1.636-1.18 1.966-2.2.235-.725.242-.708-.323-.869l-.495-.141-.081.354c-.2.87-.737 1.598-1.424 1.93-.505.243-.894.3-1.401.207-1.157-.213-2.038-1.155-2.38-2.544-.151-.618-.152-1.82-.001-2.434.261-1.06.923-1.96 1.708-2.322.373-.172.481-.19 1.106-.19.571 0 .747.025 1.002.143.583.269 1.109.938 1.303 1.658.059.217.102.275.188.25.062-.018.29-.083.508-.143a5.71 5.71 0 0 0 .412-.125c.009-.007-.032-.174-.09-.371-.357-1.203-1.133-1.969-2.298-2.268-.492-.127-1.529-.125-2.014.003Zm8.574 0c-1.092.288-1.95 1.011-2.458 2.072-.447.932-.538 1.364-.534 2.54.002.794.03 1.089.141 1.495.204.745.583 1.459 1.036 1.954.76.828 1.635 1.215 2.771 1.223 1.201.01 1.957-.286 2.745-1.072.582-.58.954-1.245 1.192-2.128.207-.77.206-2.217-.002-2.99-.441-1.64-1.459-2.736-2.877-3.098-.492-.126-1.53-.123-2.014.004Zm9.605-.034c-.693.172-1.357.655-1.793 1.305l-.293.437V10.208l-.213.047a9.2 9.2 0 0 0-.478.124l-.266.076-.017 4.403-.016 4.402.544-.02.545-.018.034-3.001c.032-2.831.042-3.024.174-3.411.401-1.181 1.08-1.73 2.209-1.787.506-.025.612-.01.936.139.419.192.708.54.882 1.063.097.292.114.762.135 3.682l.024 3.348H133.091l.024-3.05c.021-2.728.036-3.09.143-3.414.402-1.22.968-1.714 2.024-1.767.773-.04 1.226.094 1.604.472.535.535.528.478.551 4.345l.021 3.414h1.049V15.9c0-1.978-.027-3.499-.066-3.705-.146-.772-.635-1.492-1.22-1.794-.842-.436-2.138-.423-3.026.029-.348.177-.872.677-1.078 1.028l-.168.287-.192-.35a2.399 2.399 0 0 0-1.105-1.063c-.382-.189-.492-.211-1.088-.224-.365-.008-.779.014-.919.049Zm-7.475 1.068c.809.373 1.479 1.308 1.722 2.404.13.587.135 1.682.01 2.273-.375 1.768-1.772 2.901-3.257 2.64-1.516-.268-2.518-1.738-2.525-3.706-.004-1.23.33-2.25.969-2.96.579-.644 1.14-.873 2.072-.846.515.015.695.05 1.009.195Zm-16.377 7.106v.924H107.178v-1.847H105.793v.923Z" fill="#fff"/></svg>
