<svg width="190" height="35" viewBox="0 0 190 35" fill="none" xmlns="http://www.w3.org/2000/svg">
<path d="M12.168 0.27002V11.1254H23.509V22.6187H34.1463V0.27002H12.168Z" fill="#2AFD89"/>
<path d="M12.0543 11.1873H0.0507812C0.0507812 24.2607 10.5482 34.9021 23.4488 34.9021V22.7381C17.1652 22.7381 12.0543 17.5573 12.0543 11.1873Z" fill="#04765F"/>
<path d="M143.458 22.9685L139.853 13.6562H136.561L141.857 26.4004L139.833 31.1944H143.026L150.441 13.6562H147.149L143.458 22.9685ZM159.017 24.4952C156.721 24.4952 154.927 22.6434 154.927 20.2814C154.927 18.0099 156.758 16.0923 158.922 16.0923C161.412 16.0923 163.083 18.2815 163.083 20.3266C163.087 22.664 161.301 24.4952 159.017 24.4952ZM159.112 13.3105C157.383 13.3105 155.865 13.9442 154.762 15.1088V13.6562H151.923V31.1944H154.972V25.6556C155.951 26.6802 157.494 27.2769 159.272 27.2769C163.12 27.2769 166.132 24.2853 166.132 20.4665C166.136 16.3844 163.116 13.3105 159.112 13.3105ZM171.753 9.39302H168.704V13.6562H166.947V16.4379H168.704V26.9559H171.753V16.4379H173.88V13.6562H171.753V9.39302ZM181.905 24.4952C179.637 24.4952 177.72 22.5652 177.72 20.2814C177.72 18.0099 179.658 16.0923 181.95 16.0923C184.308 16.0923 186.23 17.9605 186.23 20.2608C186.23 22.631 184.333 24.4952 181.905 24.4952ZM187.258 15.4298C185.896 14.08 184.008 13.3105 182.069 13.3105C177.851 13.3105 174.671 16.3351 174.671 20.3513C174.671 24.0384 178.041 27.2769 181.88 27.2769C185.39 27.2769 189.221 24.6474 189.279 20.4007C189.304 18.5078 188.583 16.7424 187.258 15.4298ZM119.023 11.9443C120.817 11.9443 122.29 12.6686 123.657 14.2241L123.747 14.331H127.447L127.2 13.8866C125.517 10.8292 122.467 9.07617 118.834 9.07617C113.826 9.07617 109.752 13.1912 109.752 18.2444C109.752 23.0549 113.986 27.2769 118.813 27.2769C122.41 27.2769 125.27 25.6638 127.08 22.6146L127.348 22.1619H123.562L123.472 22.2648C122.171 23.7092 120.669 24.4087 118.883 24.4087C115.583 24.4087 112.896 21.5406 112.896 18.0181C112.896 14.722 115.702 11.9443 119.023 11.9443ZM132.064 14.3475V13.6562H129.179V26.9559H132.228V19.5283C132.228 18.1292 132.73 16.4462 135.113 16.368L135.409 16.3597V13.2982L135.084 13.3146C133.759 13.3805 132.763 13.722 132.064 14.3475ZM97.399 19.1991C97.7447 17.2692 99.5924 16.0882 101.213 16.0882C103.119 16.0882 104.752 17.4297 105.073 19.1991H97.399ZM101.143 13.3105C97.3085 13.3105 94.3087 16.4338 94.3087 20.4172C94.3087 24.0672 97.5348 27.2728 101.213 27.2728C104.114 27.2728 106.67 25.5033 107.727 22.771L107.884 22.3636H104.822L104.736 22.5199C104.061 23.738 102.748 24.491 101.308 24.491C99.5471 24.491 98.078 23.3841 97.4649 21.6352H108.053L108.094 21.3801C108.168 20.9233 108.168 20.5406 108.168 20.1415C108.168 16.3104 105.081 13.3105 101.143 13.3105ZM77.5317 24.4952C75.2644 24.4952 73.3468 22.5652 73.3468 20.2814C73.3468 18.0099 75.2849 16.0923 77.577 16.0923C79.9349 16.0923 81.8566 17.9605 81.8566 20.2608C81.8566 22.631 79.9555 24.4952 77.5317 24.4952ZM77.6963 13.3105C73.4784 13.3105 70.2975 16.3351 70.2975 20.3513C70.2975 24.0384 73.6677 27.2769 77.507 27.2769C81.0172 27.2769 84.8482 24.6474 84.9059 20.4007C84.9264 18.5119 84.2104 16.7466 82.8854 15.4339C81.5233 14.0841 79.6304 13.3105 77.6963 13.3105ZM58.4751 21.8615L53.4918 9.39302H48.9941V26.9559H52.138V13.7796L57.5163 26.9518H59.4545L64.8328 13.7261V26.9518H67.9767V9.3889H63.4831L58.4751 21.8615ZM90.1031 14.3475V13.6562H87.2185V26.9559H90.2677V19.5283C90.2677 18.1292 90.7697 16.4462 93.1523 16.368L93.4486 16.3597V13.2982L93.1235 13.3146C91.7985 13.3805 90.8027 13.722 90.1031 14.3475Z" fill="#022332"/>
</svg>
