<svg width="182" height="36" viewBox="0 0 182 36" fill="none" xmlns="http://www.w3.org/2000/svg">
<path d="M91.7522 13.6352C91.7706 13.7087 91.8073 13.7455 91.8073 13.7822C91.844 13.966 91.8807 14.1497 91.9174 14.3335C92.1008 15.0318 92.3026 15.7301 92.5045 16.4284C93.4218 19.7177 94.3575 23.007 95.2748 26.2964C95.3115 26.4434 95.3849 26.4801 95.5317 26.4801C95.9903 26.4618 96.449 26.4618 96.926 26.4801C97.0728 26.4801 97.1462 26.425 97.1829 26.2964C99.0176 20.9673 100.871 15.6566 102.705 10.3275C102.834 9.95997 102.962 9.59245 103.091 9.20655C102.467 9.20655 101.898 9.22492 101.311 9.20655C101.072 9.18817 100.981 9.28005 100.907 9.50057C99.4579 14.0027 97.77 18.413 96.4673 22.9519C96.449 22.9887 96.4123 23.0438 96.3573 23.1357C96.3206 22.9887 96.3022 22.9152 96.2839 22.8417C96.1922 22.419 96.1188 21.978 95.9903 21.5553C95.3115 19.0929 94.6143 16.6305 93.9355 14.1497C93.4952 12.5694 93.0549 11.0074 92.6145 9.42706C92.5778 9.26168 92.5044 9.20655 92.321 9.20655C91.954 9.22492 91.5688 9.22492 91.2018 9.20655C91.0367 9.20655 90.9817 9.26168 90.9266 9.40868C90.0827 12.404 89.2204 15.3993 88.3764 18.413C87.9545 19.9015 87.5692 21.3899 87.1655 22.8784C87.1472 22.9519 87.1105 23.007 87.0738 23.0805C87.0004 23.007 86.9821 22.9519 86.9637 22.8968C86.8169 22.0515 86.5601 21.2429 86.2665 20.416C85.0006 16.7408 83.753 13.0839 82.4871 9.40868C82.4321 9.26168 82.377 9.20655 82.2303 9.22492C81.6799 9.2433 81.1295 9.22492 80.579 9.22492C80.524 9.22492 80.4506 9.2433 80.3772 9.2433C80.4139 9.35356 80.4323 9.42706 80.469 9.51894C82.0101 13.9843 83.5696 18.4498 85.1107 22.9335C85.496 24.0545 85.8813 25.1754 86.2849 26.2964C86.3216 26.3699 86.395 26.4985 86.4684 26.4985C87.0004 26.5169 87.5141 26.4985 88.0645 26.4985C89.3121 22.2169 90.523 17.9536 91.7522 13.6352ZM182 10.989C181.945 10.9339 181.908 10.8972 181.872 10.842C181.193 10.2172 180.404 9.79458 179.56 9.48219C177.633 8.7839 175.67 8.67364 173.671 9.09629C171.102 9.64757 169.121 11.0442 167.855 13.3779C166.736 15.4544 166.479 17.678 166.974 19.9566C167.671 23.0989 169.543 25.2673 172.588 26.3331C174.313 26.9395 176.092 26.9947 177.872 26.7006C179.211 26.4618 180.441 25.984 181.523 25.157C181.688 25.0284 181.835 24.8998 182 24.7528C181.34 23.8523 180.679 22.9703 180.037 22.0882C179.853 22.2352 179.688 22.3639 179.523 22.4925C178.202 23.3929 176.734 23.7053 175.157 23.5216C173.652 23.3378 172.405 22.6579 171.487 21.4451C170.368 19.9566 170.111 18.2476 170.497 16.4651C171.029 14.0211 172.918 12.4408 175.377 12.2019C176.991 12.0549 178.441 12.551 179.762 13.4514C179.853 13.5066 179.945 13.5801 180.037 13.6352C180.697 12.7531 181.34 11.8895 182 10.989ZM52.4351 22.1985C52.3434 22.125 52.3067 22.0882 52.27 22.0515C50.6738 20.3792 49.0593 18.707 47.4631 17.0532C45.0413 14.5356 42.6196 12.0181 40.2161 9.48219C39.9593 9.20655 39.6841 9.22492 39.3722 9.26168C39.3722 15.0134 39.3722 20.7651 39.3722 26.5169C40.0327 26.5169 40.6932 26.5169 41.3903 26.5169C41.3903 22.1801 41.3903 17.8617 41.3903 13.4882C41.5004 13.6168 41.5738 13.6903 41.6472 13.7638C43.9038 16.1344 46.1788 18.5049 48.4355 20.8938C50.1417 22.6763 51.8663 24.4588 53.5542 26.278C53.8294 26.572 54.0863 26.572 54.4165 26.5353C54.4165 20.7835 54.4165 15.0318 54.4165 9.29843C53.7561 9.29843 53.1139 9.29843 52.4351 9.29843C52.4351 13.5433 52.4351 17.8433 52.4351 22.1985ZM156.718 26.4801C156.718 21.7391 156.718 17.0164 156.718 12.2754C158.59 12.2754 160.443 12.2754 162.277 12.2754C162.277 11.2647 162.277 10.254 162.277 9.26168C157.379 9.26168 152.498 9.26168 147.6 9.26168C147.6 10.2724 147.6 11.2647 147.6 12.2754C147.692 12.2754 147.802 12.2937 147.893 12.2937C149.563 12.2937 151.232 12.2937 152.92 12.2937C153.232 12.2937 153.232 12.2937 153.232 12.6245C153.232 17.145 153.232 21.684 153.232 26.2045C153.232 26.2964 153.232 26.4066 153.251 26.4985C154.406 26.4801 155.544 26.4801 156.718 26.4801ZM75.497 24.6425C75.3869 24.6425 75.2768 24.6425 75.1851 24.6425C71.8276 24.6425 68.4702 24.6425 65.1311 24.6425C64.9292 24.6425 64.8559 24.5874 64.8559 24.3669C64.8559 22.6579 64.8559 20.9489 64.8559 19.2215C64.8559 18.9092 64.8559 18.9092 65.1678 18.9092C68.0849 18.9092 71.002 18.9092 73.9375 18.9092C74.0292 18.9092 74.1393 18.9092 74.2311 18.8908C74.2311 18.266 74.2311 17.6596 74.2311 17.0348C71.1121 17.0348 67.9932 17.0348 64.8742 17.0348C64.8742 15.0318 64.8742 13.0655 64.8742 11.0809C68.4335 11.0809 71.9561 11.0809 75.497 11.0809C75.497 10.4377 75.497 9.83134 75.497 9.22492C75.4236 9.22492 75.3502 9.22492 75.2952 9.22492C71.2222 9.22492 67.1676 9.22492 63.0946 9.22492C62.8744 9.22492 62.8561 9.3168 62.8561 9.50057C62.8561 15.0869 62.8561 20.6733 62.8561 26.2596C62.8561 26.3331 62.8561 26.425 62.8561 26.4985C67.0942 26.4985 71.2956 26.4985 75.497 26.4985C75.497 25.8737 75.497 25.2673 75.497 24.6425ZM108.007 24.863C108.136 24.9733 108.264 25.0835 108.393 25.1754C108.998 25.6348 109.659 25.9656 110.356 26.2229C111.805 26.7558 113.31 26.9395 114.851 26.8844C115.915 26.8477 116.961 26.7006 117.951 26.2964C119.236 25.7818 120.19 24.9549 120.667 23.6134C120.887 22.9887 120.942 22.3455 120.924 21.684C120.869 20.3792 120.355 19.3318 119.327 18.5416C118.447 17.8801 117.456 17.4391 116.429 17.0899C115.328 16.7224 114.209 16.4468 113.108 16.0609C112.429 15.822 111.75 15.5279 111.126 15.1788C109.585 14.2967 109.934 12.5326 110.87 11.7608C111.31 11.3933 111.805 11.136 112.374 10.989C114.355 10.4929 116.3 10.695 118.19 11.4484C118.63 11.6322 119.034 11.8711 119.474 12.0916C119.823 11.5587 120.171 11.0074 120.557 10.4377C120.208 10.2356 119.878 10.0151 119.529 9.84971C118.025 9.13304 116.41 8.8574 114.759 8.82065C113.493 8.80227 112.246 8.89415 111.053 9.35356C109.292 10.0335 108.173 11.2279 108.063 13.1942C107.989 14.6459 108.484 15.8403 109.714 16.6673C110.246 17.0164 110.796 17.3656 111.383 17.5677C112.704 18.0639 114.044 18.4681 115.383 18.9092C116.172 19.1664 116.961 19.4604 117.676 19.9015C119.034 20.71 119.107 22.0515 118.667 23.0989C118.337 23.9075 117.658 24.3669 116.851 24.6058C115.053 25.157 113.255 25.0652 111.475 24.5323C110.613 24.275 109.824 23.8707 109.108 23.3011C108.723 23.8523 108.374 24.3485 108.007 24.863Z" fill="#2B2B37"/>
<path d="M15.503 0C15.5764 0.0551284 15.6681 0.128633 15.7415 0.165385C17.7964 1.35983 19.8512 2.53591 21.8877 3.71198C21.9427 3.74873 22.0161 3.78549 22.0895 3.84061C21.5575 5.29233 21.0254 6.76242 20.4933 8.23251C20.2915 8.12226 20.1264 8.012 19.9429 7.92012C18.5119 7.09319 17.0808 6.26627 15.6681 5.43934C15.5214 5.34746 15.4113 5.34746 15.2462 5.43934C11.7786 7.46072 8.29274 9.46372 4.80686 11.4667C4.66008 11.5586 4.60504 11.6505 4.60504 11.8342C4.60504 15.8035 4.62339 19.7544 4.60504 23.7236C4.60504 24.0911 4.71512 24.2749 5.06371 24.3668C5.1004 24.2933 5.1371 24.2198 5.15544 24.1279C6.88004 19.4052 8.58629 14.6825 10.3109 9.94149C10.3659 9.77611 10.4393 9.72098 10.6228 9.72098C11.9988 9.72098 13.3748 9.72098 14.7325 9.72098C14.9159 9.72098 14.9893 9.79449 15.0444 9.94149C16.0718 12.7898 17.0992 15.6197 18.1266 18.468C18.1633 18.5415 18.2 18.6334 18.2367 18.762C19.9613 14.0026 21.6675 9.31671 23.3921 4.59404C23.4655 4.63079 23.5206 4.64917 23.5756 4.68592C25.9423 6.06413 28.3274 7.42396 30.6942 8.80217C30.8409 8.89406 30.896 8.96756 30.896 9.15132C30.896 14.9582 30.896 20.765 30.896 26.5719C30.896 26.7557 30.8409 26.8476 30.6942 26.9394C25.6855 29.8429 20.6585 32.7279 15.6498 35.6313C15.5214 35.7048 15.4296 35.7416 15.3012 35.6497C13.1913 34.4185 11.0631 33.1873 8.93488 31.9745C8.89819 31.9561 8.86149 31.9194 8.80645 31.901C9.33851 30.4493 9.87056 28.9792 10.4026 27.5091C10.5127 27.5826 10.6044 27.6193 10.7145 27.6745C12.2373 28.5565 13.7417 29.4202 15.2645 30.3023C15.4113 30.3758 15.503 30.3758 15.6498 30.3023C19.1173 28.2809 22.6032 26.2779 26.0891 24.2749C26.2542 24.183 26.3093 24.0728 26.3093 23.889C26.3093 19.9197 26.3093 15.9505 26.3093 11.9812C26.3093 11.5402 26.3093 11.5402 25.869 11.3748C25.6488 11.9812 25.4286 12.606 25.2085 13.2124C23.6857 17.4022 22.1629 21.6103 20.6401 25.8001C20.5851 25.9655 20.4933 26.0206 20.3282 26.0206C18.9706 26.0206 17.5946 26.0206 16.2369 26.0206C16.0534 26.0206 15.98 25.9655 15.925 25.8001C14.8976 22.9518 13.8518 20.0851 12.806 17.2368C12.7877 17.1633 12.751 17.1082 12.696 16.9796C10.9714 21.739 9.26512 26.4249 7.55887 31.1292C7.48548 31.0924 7.44879 31.0741 7.39375 31.0557C5.02702 29.6959 2.67863 28.3176 0.311895 26.9578C0.220161 26.9027 0.128427 26.8843 0.0366936 26.8476C0 20.8753 0 14.8847 0 8.91243C0.0917339 8.87568 0.183468 8.8573 0.256855 8.80217C5.24718 5.91712 10.2375 3.03206 15.2278 0.147009C15.3012 0.110257 15.3563 0.0551284 15.4113 0C15.448 0 15.4663 0 15.503 0Z" fill="#2B2B37"/>
<path d="M91.7522 13.635C90.523 17.9534 89.3121 22.2167 88.0829 26.4983C87.5508 26.4983 87.0188 26.4983 86.4867 26.4983C86.4317 26.4983 86.3399 26.3881 86.3032 26.2962C85.9179 25.1753 85.5327 24.0543 85.129 22.9334C83.5879 18.468 82.0284 14.0026 80.4873 9.51877C80.4506 9.44527 80.4323 9.35339 80.3956 9.24313C80.4873 9.24313 80.5423 9.22476 80.5974 9.22476C81.1478 9.22476 81.6982 9.22476 82.2486 9.22476C82.3954 9.22476 82.4688 9.27988 82.5054 9.40852C83.753 13.0837 85.019 16.759 86.2849 20.4158C86.5601 21.2244 86.8353 22.0329 86.9821 22.8966C87.0004 22.9517 87.0188 23.0069 87.0921 23.0804C87.1288 23.0069 87.1655 22.9517 87.1839 22.8782C87.5875 21.3898 87.9728 19.9013 88.3948 18.4128C89.2387 15.4175 90.101 12.4222 90.945 9.40852C90.9817 9.24313 91.055 9.188 91.2202 9.20638C91.5871 9.22476 91.9724 9.22476 92.3393 9.20638C92.5044 9.20638 92.5778 9.26151 92.6329 9.42689C93.0732 11.0072 93.5135 12.5876 93.9538 14.1496C94.6327 16.612 95.3298 19.0744 96.0087 21.5552C96.1188 21.9778 96.2105 22.4188 96.3022 22.8415C96.3206 22.915 96.3389 22.9885 96.3756 23.1355C96.4306 23.0252 96.4673 22.9885 96.4857 22.9517C97.7883 18.4128 99.4762 14.0026 100.926 9.5004C100.999 9.29826 101.091 9.20638 101.329 9.20638C101.898 9.22476 102.485 9.20638 103.109 9.20638C102.98 9.59228 102.852 9.9598 102.724 10.3273C100.889 15.6564 99.0359 20.9671 97.2012 26.2962C97.1462 26.4432 97.0911 26.48 96.9444 26.48C96.4857 26.4616 96.027 26.4616 95.55 26.48C95.4032 26.48 95.3298 26.4432 95.2932 26.2962C94.3758 23.0069 93.4585 19.7175 92.5228 16.4282C92.321 15.7299 92.1375 15.0316 91.9357 14.3333C91.8806 14.1496 91.8623 13.9658 91.8256 13.782C91.8073 13.7453 91.7889 13.7085 91.7522 13.635Z" fill="#2B2B37"/>
<path d="M182 10.989C181.34 11.8894 180.697 12.7531 180.037 13.6351C179.945 13.5616 179.853 13.5065 179.762 13.4514C178.441 12.5509 176.991 12.0548 175.377 12.2018C172.918 12.4407 171.029 14.0026 170.497 16.465C170.111 18.2475 170.368 19.9565 171.487 21.445C172.405 22.6578 173.652 23.3377 175.157 23.5215C176.734 23.7236 178.202 23.4112 179.523 22.4924C179.707 22.3822 179.853 22.2352 180.037 22.0881C180.697 22.9702 181.34 23.8523 182 24.7527C181.835 24.8997 181.688 25.0283 181.523 25.157C180.441 25.9839 179.211 26.4617 177.872 26.7006C176.074 27.013 174.294 26.9578 172.588 26.333C169.543 25.2488 167.671 23.0988 166.974 19.9565C166.479 17.6779 166.736 15.4544 167.855 13.3779C169.121 11.0441 171.102 9.6475 173.671 9.09621C175.652 8.67356 177.633 8.78382 179.56 9.48211C180.422 9.79451 181.193 10.2355 181.872 10.8419C181.927 10.8971 181.963 10.9338 182 10.989Z" fill="#2B2B37"/>
<path d="M52.4351 22.1985C52.4351 17.8433 52.4351 13.5433 52.4351 9.24329C53.0956 9.24329 53.7561 9.24329 54.4166 9.24329C54.4166 14.995 54.4166 20.7284 54.4166 26.4801C54.1047 26.5169 53.8295 26.5169 53.5543 26.2228C51.8663 24.422 50.1418 22.6395 48.4355 20.8386C46.1788 18.4681 43.9038 16.0976 41.6472 13.7087C41.5738 13.6352 41.5004 13.5617 41.3903 13.4331C41.3903 17.8066 41.3903 22.125 41.3903 26.4617C40.6932 26.4617 40.051 26.4617 39.3722 26.4617C39.3722 20.71 39.3722 14.9766 39.3722 9.20654C39.6841 9.18816 39.9409 9.15141 40.2161 9.42705C42.6196 11.963 45.0413 14.4805 47.4631 16.998C49.0593 18.6703 50.6555 20.3425 52.27 21.9963C52.3067 22.0882 52.3434 22.125 52.4351 22.1985Z" fill="#2B2B37"/>
<path d="M156.718 26.48C155.544 26.48 154.406 26.48 153.251 26.48C153.251 26.3881 153.232 26.2778 153.232 26.186C153.232 21.6654 153.232 17.1265 153.232 12.606C153.232 12.2752 153.232 12.2752 152.92 12.2752C151.251 12.2752 149.581 12.2752 147.893 12.2752C147.802 12.2752 147.71 12.2569 147.6 12.2569C147.6 11.2462 147.6 10.2539 147.6 9.24316C152.498 9.24316 157.379 9.24316 162.277 9.24316C162.277 10.2539 162.277 11.2462 162.277 12.2569C160.424 12.2569 158.59 12.2569 156.718 12.2569C156.718 17.0163 156.718 21.7389 156.718 26.48Z" fill="#2B2B37"/>
<path d="M75.497 24.6424C75.497 25.2672 75.497 25.8736 75.497 26.48C71.2956 26.48 67.0758 26.48 62.8561 26.48C62.8561 26.4065 62.8561 26.3146 62.8561 26.2411C62.8561 20.6548 62.8561 15.0684 62.8561 9.48206C62.8561 9.2983 62.8744 9.20642 63.0946 9.20642C67.1676 9.20642 71.2222 9.20642 75.2952 9.20642C75.3686 9.20642 75.4236 9.20642 75.497 9.20642C75.497 9.83121 75.497 10.4376 75.497 11.0624C71.9744 11.0624 68.4335 11.0624 64.8742 11.0624C64.8742 13.0654 64.8742 15.0317 64.8742 17.0163C67.9932 17.0163 71.0938 17.0163 74.2311 17.0163C74.2311 17.6411 74.2311 18.2475 74.2311 18.8723C74.1393 18.8723 74.0293 18.8906 73.9375 18.8906C71.0204 18.8906 68.1033 18.8906 65.1678 18.8906C64.8559 18.8906 64.8559 18.8906 64.8559 19.203C64.8559 20.912 64.8559 22.621 64.8559 24.3484C64.8559 24.5689 64.9109 24.624 65.1311 24.624C68.4885 24.624 71.846 24.624 75.1851 24.624C75.2768 24.6424 75.3869 24.6424 75.497 24.6424Z" fill="#2B2B37"/>
<path d="M108.007 24.8629C108.374 24.3483 108.741 23.8522 109.108 23.3376C109.824 23.9073 110.613 24.3116 111.475 24.5688C113.255 25.1018 115.053 25.1936 116.851 24.6424C117.658 24.4035 118.337 23.9441 118.667 23.1355C119.107 22.1064 119.034 20.765 117.676 19.9381C116.961 19.497 116.172 19.203 115.383 18.9457C114.044 18.5047 112.704 18.1004 111.383 17.6043C110.796 17.3838 110.227 17.053 109.714 16.7039C108.503 15.8769 107.989 14.7009 108.062 13.2308C108.173 11.2645 109.292 10.0517 111.053 9.39016C112.246 8.93075 113.493 8.8205 114.759 8.85725C116.41 8.894 118.025 9.16964 119.529 9.88631C119.878 10.0517 120.208 10.2722 120.557 10.4743C120.171 11.0624 119.823 11.5953 119.474 12.1282C119.034 11.9077 118.63 11.6504 118.19 11.485C116.3 10.7316 114.355 10.5295 112.374 11.0256C111.824 11.1726 111.328 11.4115 110.87 11.7974C109.952 12.5692 109.585 14.3333 111.126 15.2154C111.75 15.5645 112.429 15.8586 113.108 16.0974C114.209 16.4833 115.328 16.759 116.429 17.1265C117.456 17.4573 118.447 17.8983 119.327 18.5782C120.355 19.3684 120.869 20.4342 120.924 21.7205C120.942 22.3821 120.887 23.0253 120.667 23.65C120.208 24.9915 119.236 25.8184 117.951 26.333C116.961 26.7372 115.915 26.8842 114.851 26.921C113.31 26.9761 111.805 26.8107 110.356 26.2595C109.659 26.0022 108.98 25.653 108.393 25.212C108.264 25.0834 108.136 24.9731 108.007 24.8629Z" fill="#2B2B37"/>
<path fill-rule="evenodd" clip-rule="evenodd" d="M127.736 26.491C127.759 26.495 127.78 26.4985 127.804 26.4985H136.353C137.509 26.4985 138.647 26.3147 139.729 25.8737C142.132 24.8998 142.995 22.7497 142.573 20.5814C142.316 19.2215 141.435 18.3211 140.169 17.8249C140.059 17.7882 139.968 17.7514 139.986 17.6044C139.989 17.5842 139.991 17.5645 139.993 17.5453C140.003 17.4421 140.012 17.354 140.151 17.292C140.573 17.1083 140.94 16.8142 141.252 16.4651C141.931 15.6933 142.188 14.7745 142.151 13.7638C142.114 12.11 141.399 10.8604 139.931 10.0702C138.757 9.42704 137.454 9.24327 136.151 9.24327C134.317 9.23102 132.482 9.23511 130.647 9.23919C129.73 9.24123 128.813 9.24327 127.895 9.24327C127.852 9.24327 127.812 9.24746 127.771 9.25184C127.725 9.25663 127.678 9.26165 127.62 9.26165V19.9933H125.767V22.5476H127.62V26.4801C127.672 26.4801 127.706 26.4859 127.736 26.491ZM134.339 11.9136H134.339C134.957 11.9101 135.572 11.9067 136.177 11.9343C136.526 11.9526 136.893 12.0445 137.223 12.1731C137.957 12.4672 138.342 13.0368 138.397 13.827C138.452 14.6172 138.159 15.2603 137.462 15.7014C136.966 16.0138 136.397 16.124 135.829 16.1424C134.801 16.1546 133.774 16.1506 132.746 16.1465C132.233 16.1444 131.719 16.1424 131.205 16.1424C131.022 16.1424 130.985 16.0873 130.985 15.9219V12.1548C130.985 11.971 131.04 11.9159 131.224 11.9159C131.498 11.9159 131.775 11.9138 132.052 11.9118C132.609 11.9077 133.168 11.9036 133.719 11.9159C133.926 11.9159 134.132 11.9147 134.339 11.9136ZM130.985 22.1515H132.857V19.6156H131.572C130.985 19.6156 130.985 19.6156 130.985 19.0276V19.0275V18.6968C131.024 18.6968 131.053 18.6915 131.08 18.6866C131.103 18.6823 131.125 18.6784 131.15 18.6784C131.719 18.6784 132.288 18.6763 132.857 18.6743C133.994 18.6702 135.132 18.6661 136.269 18.6784C137.04 18.6784 137.755 18.9173 138.324 19.4869C139.241 20.4425 139.003 21.9493 137.865 22.6476C137.37 22.96 136.801 23.0887 136.232 23.0887H131.224C131.04 23.0887 130.985 23.0335 130.985 22.8498C130.997 22.7052 130.993 22.5607 130.989 22.4059C130.987 22.3244 130.985 22.2401 130.985 22.1515Z" fill="#2B2B37"/>
</svg>
