<svg width="215" height="80" viewBox="0 0 215 80" fill="none" xmlns="http://www.w3.org/2000/svg">
<path d="M203 0H12C5.37258 0 0 5.37258 0 12V68C0 74.6274 5.37258 80 12 80H203C209.627 80 215 74.6274 215 68V12C215 5.37258 209.627 0 203 0Z" fill="white"/>
<mask id="mask0_703_6" style="mask-type:alpha" maskUnits="userSpaceOnUse" x="32" y="20" width="41" height="40">
<path d="M32.75 20.1406H72.5818V59.751H32.75V20.1406Z" fill="white"/>
</mask>
<g mask="url(#mask0_703_6)">
<path fill-rule="evenodd" clip-rule="evenodd" d="M61.9534 46.744C61.5384 46.9434 61.1084 47.1083 60.6529 47.1838C60.3284 47.2387 60.1584 47.3737 60.2134 47.733C60.2434 47.9484 60.2084 48.1683 60.2229 48.3882C60.2434 48.6726 60.1234 48.7831 59.8429 48.7776C59.3234 48.7681 58.8029 48.7531 58.2834 48.7776C57.9134 48.7976 57.8084 48.6681 57.8084 48.3028C57.8134 47.4087 57.7934 47.4087 56.8829 47.4087C56.7034 47.4087 56.5234 47.4032 56.3479 47.4087C55.9884 47.4187 55.5634 47.3182 55.2979 47.4786C55.0184 47.6486 55.2034 48.1034 55.1884 48.4277C55.1779 48.6981 55.0634 48.7776 54.8234 48.7731C54.5034 48.7681 54.1834 48.7731 53.8634 48.7731C52.8784 48.7731 52.8634 48.7731 52.7934 47.7835C52.7684 47.4736 52.6234 47.3832 52.3784 47.4336C51.6984 47.5736 51.3429 47.1988 50.9784 46.704C49.4729 44.6649 47.9584 42.6408 46.4029 40.6466C45.7434 39.8015 45.0784 38.9624 44.4279 38.0828C44.2834 38.3072 44.3429 38.5076 44.3429 38.697C44.3384 41.4058 44.3284 44.1151 44.3479 46.8239C44.3534 47.2982 44.2179 47.4386 43.7484 47.4137C43.0734 47.3737 42.3879 47.3737 41.7134 47.4137C41.2384 47.4431 41.1134 47.2837 41.1134 46.8184C41.1329 42.8357 41.1284 38.8524 41.1284 34.8692C41.1284 34.2344 41.1379 33.5942 41.1184 32.96C41.1084 32.6201 41.2334 32.5052 41.5679 32.5147C42.3284 32.5302 43.0884 32.5347 43.8429 32.5102C44.1884 32.5002 44.3334 32.6951 44.5079 32.925C46.6684 35.7833 48.8284 38.6325 50.9934 41.4858C51.0834 41.6062 51.1834 41.7262 51.3784 41.9705V41.2609C51.3784 38.5321 51.3829 35.8083 51.3684 33.0799C51.3684 32.6451 51.4279 32.4252 51.9484 32.4552C52.7484 32.4952 52.7684 32.4552 52.7779 31.5951C52.7779 31.2707 52.8534 31.1258 53.2084 31.1458C53.7284 31.1708 54.2484 31.1658 54.7684 31.1458C55.0679 31.1358 55.2229 31.2253 55.1834 31.5506C55.1729 31.6656 55.1984 31.7905 55.1779 31.9055C55.1084 32.3703 55.2834 32.5452 55.7684 32.5052C56.2834 32.4652 56.8084 32.4697 57.3234 32.5052C57.7334 32.5302 57.8284 32.3703 57.8284 31.9899C57.8179 31.1508 57.8384 31.1508 58.6884 31.1508H58.9279C59.3284 31.1603 59.8179 31.0353 60.0979 31.2203C60.4134 31.4352 60.2034 31.9604 60.2084 32.3498C60.2134 32.6396 60.3534 32.7246 60.5884 32.7801C61.0584 32.885 61.4984 33.07 61.9134 33.2999C63.0734 33.9491 63.6984 34.9541 63.6834 36.2735C63.6684 37.608 63.0479 38.6325 61.8334 39.2617C61.6984 39.3322 61.5234 39.3372 61.4334 39.5221C61.4784 39.5516 61.5184 39.5916 61.5634 39.6071C63.1729 40.1718 64.1184 41.3513 64.1929 42.8806C64.2779 44.7143 63.5434 45.9838 61.9534 46.744ZM72.1284 36.1436C70.3534 27.8068 65.0884 22.6395 56.7979 20.5454C56.1134 20.37 55.3879 20.4055 54.7229 20.1406H50.6434C50.5784 20.2756 50.4429 20.2451 50.3334 20.2556C49.0784 20.3905 47.8534 20.6504 46.6529 21.0302C36.4134 24.2538 30.5734 35.0491 33.5079 45.3441C35.9784 54.0053 44.1884 60.6673 54.7534 59.6478C59.9584 59.148 64.3384 56.834 67.7284 52.8513C71.8584 48.0034 73.4484 42.3454 72.1284 36.1436Z" fill="#FE7F1D"/>
</g>
<path fill-rule="evenodd" clip-rule="evenodd" d="M95.5 32.0354C95.4853 37.0031 95.4853 41.9708 95.5 46.9385C95.5 47.3541 95.439 47.5224 94.9512 47.4976C94.0822 47.4531 93.2031 47.458 92.3341 47.4976C91.8768 47.5174 91.6024 47.369 91.328 47.0177C89.117 44.1479 86.8815 41.293 84.6507 38.438C84.5597 38.3193 84.4678 38.2005 84.2797 37.963V39.0219C84.2797 41.6838 84.2696 44.3458 84.2894 47.0078C84.2894 47.3888 84.1934 47.508 83.7919 47.4976C82.7552 47.4679 81.7186 47.4729 80.687 47.4927C80.3415 47.5026 80.25 47.3987 80.25 47.0672C80.2602 42.0208 80.2602 36.9734 80.25 31.9266C80.25 31.5906 80.3465 31.4961 80.687 31.5065C81.6424 31.5258 82.5977 31.5357 83.5531 31.501C83.9494 31.4862 84.173 31.6302 84.3966 31.9266C86.6325 34.826 88.8837 37.7206 91.1298 40.6151C91.2116 40.719 91.2929 40.8283 91.4037 40.9614C91.547 40.7536 91.4855 40.5557 91.4855 40.3776C91.4906 37.5969 91.4957 34.8161 91.4804 32.0354C91.4753 31.6396 91.5516 31.4862 91.9987 31.501C92.9948 31.5357 93.9908 31.5406 94.9817 31.501C95.439 31.4862 95.5 31.6445 95.5 32.0354Z" fill="#1B1B1B"/>
<path fill-rule="evenodd" clip-rule="evenodd" d="M132.194 35.4274C130.753 39.3289 129.322 43.2359 127.896 47.1429C127.801 47.4092 127.665 47.499 127.381 47.4945C126.3 47.4744 125.223 47.4644 124.142 47.499C123.737 47.5145 123.597 47.3535 123.492 47.013C122.816 44.7806 122.126 42.5593 121.44 40.332C121.41 40.2422 121.37 40.1519 121.28 39.9107C120.509 42.3582 119.768 44.6708 119.068 46.9879C118.948 47.3937 118.778 47.5095 118.373 47.499C117.311 47.4644 116.255 47.4839 115.194 47.4894C114.964 47.4894 114.794 47.4789 114.694 47.1986C113.228 43.1611 111.751 39.1283 110.25 35.0161C111.611 35.0161 112.922 35.0206 114.229 35.0111C114.554 35.0111 114.539 35.2513 114.599 35.4525C115.349 37.9697 116.1 40.4929 116.846 43.0102C116.866 43.0809 116.886 43.1506 116.946 43.3613C117.346 41.9926 117.712 40.7583 118.072 39.5195C118.467 38.1603 118.873 36.8066 119.248 35.4419C119.339 35.1214 119.464 34.9961 119.813 35.0056C120.835 35.0307 121.85 35.0307 122.871 35.0056C123.231 34.9961 123.382 35.1014 123.487 35.4575C124.182 37.8894 124.903 40.3119 125.619 42.7393C125.669 42.9104 125.729 43.0759 125.809 43.3317C126.599 40.668 127.381 38.0951 128.121 35.5177C128.236 35.1109 128.396 34.9905 128.806 35.0006C129.828 35.0362 130.849 35.0256 131.864 35.0056C132.205 35.0006 132.334 35.0457 132.194 35.4274Z" fill="#1B1B1B"/>
<path fill-rule="evenodd" clip-rule="evenodd" d="M151.736 44.0146C150.627 43.6445 149.962 42.6193 149.897 41.2039C149.836 39.7635 150.642 38.4882 151.831 38.1526C153.545 37.668 155.036 38.7633 155.273 40.6738C155.293 40.8138 155.293 40.9538 155.303 41.0889C155.318 43.2294 153.595 44.6448 151.736 44.0146ZM159.258 39.2584C158.8 37.1979 157.581 35.6825 155.48 35.0668C153.439 34.4722 151.535 34.7022 149.887 36.4927V35.7625C149.887 34.0871 149.877 32.4166 149.897 30.7412C149.902 30.3461 149.791 30.2411 149.398 30.2506C148.335 30.2811 147.267 30.2711 146.199 30.2561C145.881 30.2506 145.75 30.3061 145.75 30.6662C145.765 36.1071 145.765 41.544 145.75 46.9849C145.75 47.3155 145.871 47.3705 146.163 47.3705C147.272 47.3555 148.381 47.3555 149.483 47.3705C149.791 47.3755 149.922 47.3005 149.897 46.9754C149.866 46.6353 149.887 46.2852 149.887 45.8701C150.023 45.9601 150.078 45.9846 150.113 46.0252C152.053 48.2457 156.351 47.8656 158.129 45.51C159.565 43.609 159.742 41.469 159.258 39.2584Z" fill="#1B1B1B"/>
<path fill-rule="evenodd" clip-rule="evenodd" d="M105.742 40.2819C105.082 40.2467 104.423 40.2718 103.758 40.2718C103.078 40.2718 102.398 40.2668 101.713 40.2718C101.507 40.2769 101.39 40.2668 101.441 39.9857C101.633 38.856 102.675 37.9321 103.823 37.912C105.037 37.8919 105.929 38.63 106.155 39.8049C106.221 40.1714 106.14 40.302 105.742 40.2819ZM110.244 41.9443C110.195 41.4668 110.225 40.9798 110.169 40.5078C109.973 38.8911 109.414 37.4401 108.125 36.3601C106.75 35.2108 105.108 34.9597 103.375 35.0049C100.746 35.0802 98.5403 36.5915 97.6942 38.9212C96.7317 41.5572 97.3668 44.5597 99.2756 46.2065C100.877 47.5873 102.806 47.8735 104.821 47.7078C106.619 47.5572 108.215 46.9145 109.429 45.5337C108.789 44.886 108.149 44.2484 107.525 43.5957C107.329 43.3848 107.193 43.4049 106.986 43.5906C106.422 44.0927 105.757 44.4191 105.012 44.5597C103.381 44.871 101.804 44.0576 101.547 42.4509C104.267 42.4509 106.981 42.4464 109.696 42.4609C110.104 42.466 110.285 42.3806 110.244 41.9443Z" fill="#1B1B1B"/>
<path fill-rule="evenodd" clip-rule="evenodd" d="M142.228 46.4918C141.02 47.5049 139.564 47.745 137.986 47.75C136.161 47.7305 134.412 47.2888 132.82 46.2813C132.491 46.0708 132.405 45.8958 132.612 45.5294C132.962 44.9229 133.249 44.2862 133.538 43.6496C133.674 43.3489 133.775 43.2887 134.084 43.4892C135.156 44.196 136.328 44.6572 137.613 44.8126C138.078 44.8732 138.538 44.8777 138.988 44.7274C139.27 44.6371 139.493 44.4617 139.528 44.1459C139.559 43.8552 139.387 43.6547 139.17 43.4993C138.856 43.2737 138.492 43.1584 138.128 43.0431C137.188 42.7428 136.222 42.5218 135.323 42.1057C133.993 41.4897 133.077 40.5769 133.037 39.0179C132.991 37.3237 133.714 36.076 135.276 35.3838C137.587 34.3612 139.888 34.687 142.148 35.5747C143.538 36.1156 143.527 36.1457 142.86 37.464C142.663 37.8555 142.435 38.236 142.259 38.637C142.127 38.9377 141.986 38.9277 141.717 38.7929C140.747 38.3112 139.741 37.8951 138.654 37.7247C138.235 37.6545 137.815 37.6294 137.4 37.7848C137.117 37.8951 136.92 38.0756 136.889 38.3863C136.859 38.6871 137.026 38.8826 137.253 39.028C137.804 39.3839 138.442 39.5192 139.054 39.6997C140.004 39.9804 140.949 40.2511 141.798 40.7724C143.871 42.0456 144.093 44.9229 142.228 46.4918Z" fill="#1B1B1B"/>
<path fill-rule="evenodd" clip-rule="evenodd" d="M176.236 46.9731C174.919 47.456 173.578 47.6546 172.196 47.3659C170.435 46.9926 169.288 45.5939 169.273 43.8074C169.259 42.0802 169.259 40.3574 169.278 38.6356C169.284 38.2768 169.204 38.1677 168.825 38.1677C167.533 38.1722 167.533 38.1523 167.538 36.8785C167.538 36.4256 167.408 35.8581 167.628 35.5545C167.837 35.2703 168.446 35.4544 168.874 35.4699C169.248 35.4848 169.284 35.3206 169.278 35.0164C169.259 34.1453 169.284 33.2743 169.264 32.4032C169.259 32.0995 169.333 31.995 169.658 32.0005C170.75 32.0199 171.847 32.0254 172.94 32.0005C173.318 31.99 173.348 32.1498 173.343 32.4529C173.329 33.324 173.348 34.1951 173.334 35.0662C173.323 35.3698 173.403 35.4793 173.722 35.4699C174.541 35.445 175.358 35.4744 176.171 35.4544C176.48 35.445 176.585 35.5246 176.575 35.8477C176.55 36.4599 176.545 37.0772 176.575 37.6899C176.595 38.0677 176.496 38.2076 176.086 38.1877C175.293 38.1573 174.496 38.1921 173.697 38.1722C173.413 38.1677 173.323 38.2519 173.334 38.5411C173.348 39.2922 173.338 40.0438 173.338 40.8009C173.338 41.4724 173.323 42.1449 173.343 42.8213C173.374 43.9517 173.917 44.345 175.014 44.0961C175.353 44.0209 175.738 43.6675 175.992 43.8721C176.221 44.0508 176.226 44.5142 176.321 44.8522C176.435 45.2559 176.51 45.6685 176.665 46.0518C176.865 46.5396 176.71 46.794 176.236 46.9731Z" fill="#1B1B1B"/>
<path fill-rule="evenodd" clip-rule="evenodd" d="M165.5 46.9825C165.505 47.4095 165.381 47.5098 164.95 47.4993C163.872 47.4647 162.8 47.4792 161.722 47.4948C161.4 47.4993 161.25 47.4647 161.25 47.0884C161.266 43.1894 161.266 39.291 161.255 35.3976C161.25 35.0719 161.354 34.9962 161.67 35.0012C162.789 35.0213 163.909 35.0318 165.023 35.0012C165.422 34.9861 165.5 35.1116 165.494 35.4683C165.474 37.4095 165.484 39.3462 165.484 41.2833C165.484 43.1849 165.469 45.0814 165.5 46.9825Z" fill="#1B1B1B"/>
<mask id="mask1_703_6" style="mask-type:alpha" maskUnits="userSpaceOnUse" x="178" y="43" width="5" height="5">
<path d="M178.098 43.6523H182.031V47.6201H178.098V43.6523Z" fill="white"/>
</mask>
<g mask="url(#mask1_703_6)">
<path fill-rule="evenodd" clip-rule="evenodd" d="M182.031 45.6412C182.026 46.8226 181.233 47.6201 180.052 47.6201C178.876 47.6201 178.093 46.8226 178.098 45.6263C178.098 44.42 178.871 43.6474 180.068 43.6524C181.253 43.6574 182.036 44.4494 182.031 45.6412Z" fill="#FE7F1D"/>
</g>
<path fill-rule="evenodd" clip-rule="evenodd" d="M165.25 31.4C165.245 32.514 164.497 33.25 163.367 33.25C162.213 33.25 161.49 32.504 161.5 31.3304C161.511 30.2213 162.278 29.4853 163.408 29.5002C164.517 29.5201 165.26 30.276 165.25 31.4Z" fill="#1B1B1B"/>
<path fill-rule="evenodd" clip-rule="evenodd" d="M59.4369 44.4238C58.6394 44.685 57.823 44.5644 57.011 44.584C56.4581 44.5996 55.8997 44.5694 55.3467 44.5946C55.0334 44.6041 54.9333 44.4941 54.9388 44.1827C54.9587 43.2831 54.9587 42.384 54.9388 41.4899C54.9333 41.1689 55.0528 41.0735 55.3572 41.0835C55.9295 41.0986 56.5074 41.0881 57.2003 41.0881C57.8523 41.1338 58.6299 40.9931 59.3866 41.2192C60.2539 41.4703 60.7719 42.053 60.7719 42.7964C60.7764 43.5598 60.2882 44.142 59.4369 44.4238ZM54.9432 35.5428C54.9388 35.277 55.0528 35.1967 55.2969 35.2017C55.8752 35.2112 56.4531 35.2062 57.0309 35.2062V35.2112C57.5639 35.2112 58.1014 35.1917 58.6394 35.2168C59.5664 35.257 60.1941 35.8245 60.2638 36.6584C60.3336 37.5022 59.7756 38.1903 58.8337 38.3506C57.6486 38.547 56.4531 38.4013 55.262 38.4415C55.0334 38.451 54.9432 38.3506 54.9432 38.125C54.9487 37.2661 54.9537 36.4022 54.9432 35.5428ZM61.6237 39.5315C61.5789 39.5159 61.539 39.4757 61.4942 39.4461C61.5839 39.2602 61.7582 39.2552 61.8927 39.1844C63.1027 38.552 63.7209 37.5223 63.7358 36.1812C63.7508 34.8551 63.1281 33.845 61.9724 33.1925C61.559 32.9615 61.1206 32.7756 60.6519 32.6702C60.4182 32.6144 60.2783 32.529 60.2738 32.2377C60.2688 31.8464 60.478 31.3185 60.1637 31.1025C59.8847 30.9167 59.3971 31.0422 58.9981 31.0327H58.7594C57.9121 31.0327 57.8922 31.0327 57.9027 31.8765C57.9027 32.2583 57.8075 32.419 57.3995 32.3939C56.8865 32.3582 56.3634 32.3537 55.8503 32.3939C55.3671 32.4341 55.1923 32.2583 55.262 31.7911C55.2825 31.6756 55.2571 31.55 55.2675 31.4345C55.3069 31.1075 55.1525 31.0176 54.8541 31.0277C54.336 31.0478 53.8179 31.0528 53.2999 31.0277C52.9462 31.0076 52.871 31.1532 52.871 31.4792C52.8615 32.3437 52.8416 32.3838 52.0446 32.3437C51.526 32.3135 51.4668 32.5345 51.4668 32.9715C51.4812 35.7135 51.4767 38.451 51.4767 41.1935V41.9068C51.2824 41.6612 51.1828 41.5406 51.0931 41.4201C48.9362 38.552 46.7843 35.6884 44.6318 32.8158C44.458 32.5848 44.3135 32.3889 43.9693 32.3989C43.2171 32.4235 42.4605 32.419 41.7028 32.4034C41.3691 32.3939 41.2445 32.5094 41.255 32.851C41.2744 33.4884 41.2649 34.1318 41.2649 34.7697C41.2649 38.773 41.2694 42.7763 41.25 46.779C41.25 47.2467 41.3745 47.4069 41.8473 47.3773C42.5197 47.3371 43.2027 47.3371 43.8752 47.3773C44.3429 47.4024 44.4779 47.2612 44.4724 46.7846C44.453 44.0621 44.4625 41.3392 44.4675 38.6168C44.4675 38.4264 44.4082 38.225 44.5521 37.9995C45.2002 38.8835 45.8627 39.7269 46.5198 40.5762C48.0695 42.5804 49.5783 44.6147 51.0782 46.664C51.4413 47.1613 51.7955 47.538 52.473 47.3973C52.7171 47.3466 52.8615 47.4375 52.8864 47.749C52.9562 48.7435 52.9711 48.7435 53.9524 48.7435C54.2713 48.7435 54.5901 48.7385 54.9089 48.7435C55.148 48.748 55.262 48.6681 55.2725 48.3964C55.2874 48.0704 55.1031 47.6133 55.3816 47.4426C55.6461 47.2813 56.0695 47.3823 56.4277 47.3722C56.6025 47.3667 56.7819 47.3722 56.9607 47.3722C57.8678 47.3722 57.8877 47.3722 57.8827 48.2708C57.8827 48.638 57.9873 48.7681 58.356 48.748C58.8735 48.7234 59.3921 48.7385 59.9096 48.748C60.1891 48.7535 60.3086 48.6425 60.2882 48.3567C60.2738 48.1357 60.3086 47.9147 60.2783 47.6987C60.224 47.3371 60.3933 47.2015 60.7166 47.1462C61.1699 47.0709 61.5988 46.9046 62.0123 46.7042C63.5963 45.9407 64.3281 44.6644 64.2434 42.8215C64.1692 41.2845 63.2272 40.099 61.6237 39.5315Z" fill="#FEFEFE"/>
<path fill-rule="evenodd" clip-rule="evenodd" d="M57.2258 41.2555C57.869 41.3011 58.6359 41.1624 59.3856 41.3857C60.2394 41.6395 60.7485 42.2196 60.75 42.959C60.7515 43.7209 60.2743 44.301 59.4303 44.5804C58.6472 44.8397 57.84 44.7185 57.0422 44.7401C56.4953 44.7551 55.9468 44.728 55.3994 44.7491C55.0901 44.7606 54.9944 44.651 55.0003 44.3396C55.0174 43.4451 55.0174 42.55 55.0003 41.6555C54.9944 41.3361 55.1107 41.242 55.4092 41.2505C55.9758 41.268 56.5434 41.2555 57.2258 41.2555Z" fill="#FE7F1D"/>
<path fill-rule="evenodd" clip-rule="evenodd" d="M57.056 35.2606C57.5851 35.2606 58.1148 35.2411 58.643 35.2652C59.5586 35.3063 60.1746 35.8735 60.2439 36.7035C60.315 37.549 59.7638 38.2361 58.835 38.3935C57.6676 38.5921 56.4875 38.4437 55.3138 38.4863C55.0889 38.4938 55.0006 38.395 55.0015 38.1674C55.0074 37.3088 55.0109 36.4502 55.0001 35.5916C54.9966 35.3238 55.1105 35.2466 55.3506 35.2501C55.9195 35.2581 56.4875 35.2526 57.056 35.2526V35.2606Z" fill="#FE7F1D"/>
</svg>
