<?xml version="1.0" encoding="utf-8"?>
<!-- Generator: Adobe Illustrator 23.0.0, SVG Export Plug-In . SVG Version: 6.00 Build 0)  -->
<svg version="1.1" id="Layer_1" xmlns="http://www.w3.org/2000/svg" xmlns:xlink="http://www.w3.org/1999/xlink" x="0px" y="0px"
	 viewBox="0 0 256 256" style="enable-background:new 0 0 256 256;" xml:space="preserve">
<style type="text/css">
	.st0{fill:#1CAC69;}
</style>
<g>
	<g>
		<path d="M10.8,120.4v13H5v-13H0v-4.6h15.8v4.6H10.8z"/>
		<path d="M26,128.9h-2.2v4.6H18v-17.6h8.5c4.8,0,7.5,2.3,7.5,6.3c0,2.6-1,4.5-2.8,5.6l3.5,5.7h-6.6L26,128.9z M26.5,124.4
			c1.3,0,2-0.8,2-2.1c0-1.3-0.7-2.1-2-2.1h-2.7v4.2H26.5z"/>
		<path d="M42.3,130.9l-0.9,2.5h-6l7.4-17.6h6l7.1,17.6h-6.2l-0.9-2.5H42.3z M45.7,121.6l-1.9,5.1h3.7L45.7,121.6z"/>
		<path d="M65.6,115.8c5.8,0,9.6,3.4,9.6,8.8c0,5.3-3.8,8.8-9.8,8.8h-7.6v-17.6H65.6z M63.6,128.9h2.2c2.1,0,3.5-1.7,3.5-4.2
			c0-2.6-1.5-4.3-3.7-4.3h-1.9V128.9z"/>
		<path d="M77.6,133.4v-17.6h5.8v17.6H77.6z"/>
		<path d="M98.9,133.4l-6.9-9v9h-5.3v-17.6h4.9l6.9,9v-9h5.3v17.6H98.9z"/>
		<path d="M114.7,123.2v3.8h3.6c0,0-1.3,2.5-4.6,1.2c-1.2-0.7-2.1-2-2.1-3.7c0-0.3,0-0.6,0.1-0.8c0,0,0-0.1,0-0.1
			c0-0.1,0.1-0.3,0.1-0.5c0.2-0.7,0.8-1.7,2.2-2.2c2.6-1,4.3,1,4.3,1h1.6h0.7h2.7c0,0-0.3-0.9-0.9-2.1c-1.3-2.3-4.3-5.4-10.4-3.7
			c0,0,0,0,0,0v0c-3.7,1.3-6.2,4.4-6.2,8.3c0,4.7,3.3,8.2,8.1,8.9c0,0,0,0,0,0s0.2,0,0.6,0.1c0.2,0,0.3,0,0.5,0
			c2.4-0.2,8.3-1.1,8.5-8.8c0-0.2,0-0.4,0-0.6c0-0.3,0-0.6,0-0.9H114.7z"/>
	</g>
	<g>
		<path class="st0" d="M141,126.3h-2.4v2.3h2.4c0.9,0,1.5-0.5,1.5-1.2C142.5,126.8,141.9,126.3,141,126.3z"/>
		<path class="st0" d="M156.5,121h-2.3v3.6h2.3c1.1,0,1.7-0.7,1.7-1.8C158.2,121.6,157.6,121,156.5,121z"/>
		<path class="st0" d="M172.5,121.2c-1.7,0-3.2,1.5-3.2,3.6c0,2.1,1.5,3.6,3.2,3.6c1.7,0,3.1-1.5,3.1-3.6
			C175.6,122.7,174.2,121.2,172.5,121.2z"/>
		<path class="st0" d="M142.1,121.9c0-0.6-0.5-1.1-1.1-1.1h-2.4v2.2h2.4C141.7,123,142.1,122.6,142.1,121.9z"/>
		<path class="st0" d="M250.5,109.3H132.8c-3.1,0-5.5,2.5-5.5,5.5v19.8c0,3.1,2.5,5.5,5.5,5.5h3.2l5.9,5.9c0.9,0.9,2.3,0.9,3.2,0
			l5.9-5.9h99.6c3.1,0,5.5-2.5,5.5-5.5v-19.8C256,111.8,253.5,109.3,250.5,109.3z M141.6,132.3h-8v-15.1h7.7c3.6,0,6,1.5,6,3.8
			c0,1.5-1,2.8-2.5,3.2c1.8,0.4,3,1.9,3,3.8C147.7,130.6,145.3,132.3,141.6,132.3z M157.9,132.3l-1.8-3.9h-1.9v3.9h-5v-15.1h7.3
			c4.1,0,6.4,2,6.4,5.4c0,2.2-0.8,3.8-2.4,4.8l3,4.9H157.9z M172.4,132.5c-4.8,0-8.3-3.3-8.3-7.8c0-4.5,3.5-7.7,8.3-7.7
			c4.8,0,8.3,3.2,8.3,7.7C180.7,129.2,177.2,132.5,172.4,132.5z M200.2,132.3H195l-2.1-9l-2.2,9h-5.2l-4.9-15.1h5.3l2.3,9.9l2.2-9.9
			l4.9,0l2.3,9.9l2.2-9.9h5.1L200.2,132.3z M219.1,127.6c0,3.4-3,4.9-6.4,4.9c-2.6,0-5.6-0.9-7.6-2.4l1.9-3.8
			c1.6,1.3,4.2,2.4,5.8,2.4c0.7,0,1.2-0.2,1.2-0.8c0-2-7.8-0.7-7.8-6c0-3,2.5-4.9,6.5-4.9c2.4,0,4.9,0.7,6.6,1.8l-1.8,3.8
			c-1.5-0.8-3.9-1.8-5.2-1.8c-0.6,0-0.9,0.2-0.9,0.6C211.3,123.3,219.1,122.1,219.1,127.6z M233.4,132.3h-13v-15.1h12.8v3.8h-7.8
			v1.9h7.1v3.8h-7.1v1.9h8V132.3z M244,132.3l-1.8-3.9h-1.9v3.9h-5v-15.1h7.3c4.1,0,6.4,2,6.4,5.4c0,2.2-0.8,3.8-2.4,4.8l3,4.9H244z
			"/>
		<path class="st0" d="M242.6,121h-2.3v3.6h2.3c1.1,0,1.7-0.7,1.7-1.8C244.3,121.6,243.7,121,242.6,121z"/>
	</g>
</g>
</svg>
