<?xml version="1.0" encoding="utf-8"?>
<svg version="1.1" id="Layer_1" xmlns="http://www.w3.org/2000/svg" xmlns:xlink="http://www.w3.org/1999/xlink" x="0px" y="0px"
	 viewBox="0 0 146.4 33.6" style="enable-background:new 0 0 146.4 33.6;" xml:space="preserve">
<style type="text/css">
	.st0{fill:#2B2B37;}
</style>
<g>
	<path class="st0" d="M5.9,14.3l0.1-4h8.6l0.1,4h-0.4c0-0.1,0-0.3,0-0.5s-0.1-0.6-0.2-1.1c-0.1-0.5-0.3-0.9-0.5-1.1
		c-0.4-0.5-0.9-0.8-1.5-0.8h-0.7c-0.3,0-0.4,0.1-0.4,0.4v8.9c0,0.3,0.1,0.4,0.4,0.4h1.4V21H7.8v-0.5h1.4c0.3,0,0.4-0.1,0.4-0.4v-8.9
		c0-0.3-0.1-0.4-0.4-0.4H8.5c-0.6,0-1.1,0.3-1.5,0.8c-0.2,0.3-0.4,0.7-0.5,1.1c-0.1,0.5-0.2,0.8-0.2,1.1s0,0.4,0,0.5H5.9z"/>
	<path class="st0" d="M16.1,21v-0.4h0.6c0.2,0,0.3-0.1,0.3-0.3v-5.4c0-0.2-0.1-0.3-0.3-0.3h-0.6v-0.4h2V16l0.1,0
		c0.2-0.5,0.4-0.9,0.6-1.2c0.2-0.3,0.5-0.5,0.7-0.7c0.2-0.1,0.5-0.2,0.7-0.2c0.4,0,0.7,0.1,0.9,0.4c0.2,0.2,0.3,0.5,0.3,0.9
		c0,0.2-0.1,0.5-0.2,0.7c-0.1,0.2-0.3,0.3-0.6,0.3c-0.2,0-0.3,0-0.5-0.1c-0.1-0.1-0.2-0.2-0.2-0.4c0-0.3,0.1-0.5,0.4-0.7
		c0.2-0.1,0.3-0.3,0.3-0.4c0-0.2-0.1-0.3-0.4-0.3c-0.2,0-0.3,0-0.5,0.1c-0.2,0.1-0.4,0.3-0.6,0.6c-0.2,0.3-0.4,0.7-0.6,1.2
		c-0.3,0.7-0.4,1.4-0.4,2.1v2c0,0.2,0.1,0.3,0.3,0.3h0.6V21H16.1z"/>
	<path class="st0" d="M25.3,21.1c-0.8,0-1.5-0.4-2.1-1.1c-0.6-0.7-0.9-1.5-0.9-2.5c0-1,0.3-1.8,0.9-2.5c0.6-0.7,1.3-1.1,2.1-1.1
		c0.8,0,1.5,0.4,2.1,1.1c0.6,0.7,0.9,1.5,0.9,2.5c0,1-0.3,1.8-0.9,2.5C26.9,20.8,26.2,21.1,25.3,21.1z M25.3,20.8
		c1.1,0,1.7-1.1,1.7-3.2c0-2.2-0.6-3.2-1.7-3.2c-1.1,0-1.7,1.1-1.7,3.2C23.7,19.7,24.2,20.8,25.3,20.8z"/>
	<path class="st0" d="M29.6,21v-0.4h0.6c0.2,0,0.3-0.1,0.3-0.3v-5.4c0-0.2-0.1-0.3-0.3-0.3h-0.6v-0.4h2v1.4l0.1,0
		c0.3-0.5,0.6-0.9,0.9-1.2c0.4-0.3,0.7-0.4,1.1-0.4c0.5,0,0.9,0.1,1.2,0.4c0.5,0.4,0.7,1,0.7,1.8v4.1c0,0.2,0.1,0.3,0.3,0.3h0.6V21
		h-3v-0.4h0.6c0.2,0,0.3-0.1,0.3-0.3v-4.4c0-1-0.3-1.6-1-1.6c-0.4,0-0.9,0.3-1.3,0.9s-0.7,1.2-0.7,2v3.1c0,0.2,0.1,0.3,0.3,0.3h0.6
		V21H29.6z"/>
	<path class="st0" d="M46.5,21.2l-2.8-9.8c-0.2-0.4-0.5-0.7-0.9-0.7h-0.9v-0.5h4.4v0.5h-0.7c-0.1,0-0.3,0-0.4,0.1
		c-0.1,0.1-0.1,0.2-0.1,0.3c0,0.1,0,0.2,0.1,0.3l2,6.9l1.8-6.6l-0.2-0.5c-0.1-0.4-0.5-0.6-1.1-0.6h-0.4v-0.5h4.4v0.5h-0.6
		c-0.5,0-0.8,0.3-0.8,0.8c0,0.1,0,0.3,0.1,0.5l1.9,6.4l1.9-5.9c0.1-0.4,0.2-0.8,0.2-1.1c0-0.2-0.1-0.4-0.3-0.5
		c-0.2-0.1-0.4-0.2-0.7-0.2h-0.5v-0.5h4.1v0.5h-0.6c-0.6,0-1,0.4-1.2,1.1l-3,9.3h-0.4l-2.5-8.3l-2.4,8.3H46.5z"/>
	<path class="st0" d="M56.5,17.6c0-0.6,0.1-1.2,0.3-1.7c0.2-0.5,0.6-1,1-1.3s0.9-0.5,1.5-0.5c0.4,0,0.7,0.1,1,0.2
		c0.3,0.1,0.6,0.3,0.8,0.6s0.4,0.5,0.5,0.9s0.2,0.6,0.3,1s0.1,0.7,0.1,1h-4.2c0,0.5,0,0.9,0.1,1.3c0,0.4,0.1,0.7,0.3,1
		s0.3,0.5,0.5,0.7c0.2,0.2,0.5,0.2,0.9,0.2c0.2,0,0.4,0,0.6-0.1c0.2-0.1,0.4-0.2,0.6-0.3c0.2-0.1,0.4-0.4,0.5-0.7s0.2-0.7,0.3-1.1
		h0.4c-0.1,0.7-0.3,1.3-0.7,1.8c-0.4,0.5-0.9,0.7-1.7,0.7c-0.9,0-1.6-0.3-2.2-1C56.8,19.5,56.5,18.6,56.5,17.6z M57.9,17.2h2.8
		c0-0.4,0-0.7-0.1-1c-0.1-0.3-0.1-0.6-0.2-0.9s-0.2-0.5-0.4-0.7c-0.2-0.2-0.4-0.3-0.7-0.3c-0.3,0-0.5,0.1-0.7,0.3
		c-0.2,0.2-0.3,0.4-0.4,0.7s-0.2,0.6-0.2,0.9C57.9,16.5,57.9,16.9,57.9,17.2z"/>
	<path class="st0" d="M63.4,17.6c0-0.6,0.1-1.2,0.3-1.7c0.2-0.5,0.6-1,1-1.3s0.9-0.5,1.5-0.5c0.4,0,0.7,0.1,1,0.2
		c0.3,0.1,0.6,0.3,0.8,0.6s0.4,0.5,0.5,0.9s0.2,0.6,0.3,1s0.1,0.7,0.1,1h-4.2c0,0.5,0,0.9,0.1,1.3c0,0.4,0.1,0.7,0.3,1
		s0.3,0.5,0.5,0.7c0.2,0.2,0.5,0.2,0.9,0.2c0.2,0,0.4,0,0.6-0.1c0.2-0.1,0.4-0.2,0.6-0.3c0.2-0.1,0.4-0.4,0.5-0.7s0.2-0.7,0.3-1.1
		h0.4c-0.1,0.7-0.3,1.3-0.7,1.8c-0.4,0.5-0.9,0.7-1.7,0.7c-0.9,0-1.6-0.3-2.2-1C63.7,19.5,63.4,18.6,63.4,17.6z M64.7,17.2h2.8
		c0-0.4,0-0.7-0.1-1c-0.1-0.3-0.1-0.6-0.2-0.9s-0.2-0.5-0.4-0.7c-0.2-0.2-0.4-0.3-0.7-0.3c-0.3,0-0.5,0.1-0.7,0.3
		c-0.2,0.2-0.3,0.4-0.4,0.7s-0.2,0.6-0.2,0.9C64.8,16.5,64.7,16.9,64.7,17.2z"/>
	<path class="st0" d="M70,21v-0.4h0.8c0.2,0,0.3-0.1,0.3-0.3V11c0-0.2-0.1-0.3-0.3-0.3H70v-0.4h2.2v7.6l2-2.5
		c0.2-0.2,0.3-0.4,0.3-0.5c0-0.3-0.2-0.4-0.5-0.4h-0.4v-0.4h3v0.4h-0.5c-0.3,0-0.5,0.1-0.7,0.2c-0.2,0.1-0.4,0.4-0.7,0.7l-1.1,1.4
		l2.3,3.3c0.1,0.1,0.1,0.2,0.2,0.2s0.1,0.1,0.2,0.2c0.1,0,0.2,0.1,0.3,0.1h0.3V21h-3.2v-0.4h0.4c0.3,0,0.4-0.1,0.4-0.3
		c0-0.1-0.1-0.3-0.2-0.5l-1.5-2.1l-0.7,0.8v1.8c0,0.2,0.1,0.3,0.3,0.3H73V21H70z"/>
	<path class="st0" d="M77.8,21v-0.4h0.8c0.2,0,0.3-0.1,0.3-0.3V11c0-0.2-0.1-0.3-0.3-0.3h-0.8v-0.4H80v10c0,0.2,0.1,0.3,0.3,0.3h0.8
		V21H77.8z"/>
	<path class="st0" d="M83.4,24.5c-0.4,0-0.7-0.1-1-0.4c-0.3-0.3-0.4-0.6-0.4-0.9c0-0.3,0.1-0.5,0.2-0.6c0.1-0.1,0.3-0.2,0.5-0.2
		c0.2,0,0.4,0.1,0.5,0.2s0.2,0.3,0.2,0.5c0,0.1,0,0.3-0.1,0.4c0,0.1-0.1,0.2-0.1,0.3c0,0.1,0.1,0.2,0.3,0.2c0.3,0,0.5-0.1,0.7-0.4
		c0.2-0.2,0.3-0.5,0.4-0.8l0.4-1.3L83,15.4c-0.1-0.2-0.1-0.4-0.2-0.5c-0.1-0.1-0.1-0.2-0.3-0.3s-0.3-0.1-0.4-0.1h-0.5v-0.4H85v0.4
		h-0.5c-0.1,0-0.2,0-0.3,0.1c-0.1,0.1-0.1,0.2-0.1,0.3c0,0.2,0,0.3,0.1,0.5l1.6,4.6l1.3-4.1c0.1-0.3,0.2-0.6,0.2-0.8
		c0-0.2-0.1-0.3-0.1-0.4c-0.1-0.1-0.2-0.2-0.4-0.2h-0.4v-0.4H89v0.4h-0.3c-0.5,0-0.8,0.3-1,0.9L85.2,23c-0.1,0.4-0.3,0.7-0.6,1
		C84.2,24.4,83.9,24.5,83.4,24.5z"/>
	<path class="st0" d="M101.1,10.3v0.5h-1.1c-0.3,0-0.4,0.1-0.4,0.4v6.9c0,1-0.3,1.7-0.9,2.3s-1.3,0.9-2.1,0.9
		c-0.8,0-1.4-0.2-1.9-0.6c-0.5-0.4-0.7-0.9-0.7-1.6c0-0.4,0.1-0.8,0.3-1c0.2-0.2,0.5-0.4,0.8-0.4c0.3,0,0.5,0.1,0.7,0.2
		c0.2,0.2,0.2,0.4,0.2,0.6c0,0.2-0.1,0.4-0.2,0.5s-0.3,0.2-0.5,0.2c-0.2,0-0.3,0-0.3,0.1c-0.1,0.1-0.1,0.2-0.1,0.3
		c0,0.3,0.2,0.6,0.5,0.7c0.3,0.2,0.7,0.3,1.2,0.3c0.5,0,0.9-0.2,1.1-0.6c0.3-0.4,0.4-0.8,0.4-1.4v-7.6c0-0.3-0.1-0.4-0.4-0.4h-1.1
		v-0.5H101.1z"/>
	<path class="st0" d="M105.3,21.1c-0.8,0-1.5-0.4-2.1-1.1c-0.6-0.7-0.9-1.5-0.9-2.5c0-1,0.3-1.8,0.9-2.5c0.6-0.7,1.3-1.1,2.1-1.1
		c0.8,0,1.5,0.4,2.1,1.1c0.6,0.7,0.9,1.5,0.9,2.5c0,1-0.3,1.8-0.9,2.5C106.8,20.8,106.1,21.1,105.3,21.1z M105.3,20.8
		c1.1,0,1.7-1.1,1.7-3.2c0-2.2-0.6-3.2-1.7-3.2c-1.1,0-1.7,1.1-1.7,3.2C103.6,19.7,104.2,20.8,105.3,20.8z"/>
	<path class="st0" d="M112.3,21.1c-0.5,0-0.9-0.1-1.2-0.4c-0.5-0.4-0.7-1-0.7-1.8v-4.1c0-0.2-0.1-0.3-0.3-0.3h-0.6v-0.4h2v5.1
		c0,1,0.3,1.6,1,1.6c0.4,0,0.9-0.3,1.3-0.9s0.7-1.2,0.7-2v-3.1c0-0.2-0.1-0.3-0.3-0.3h-0.6v-0.4h2v6.1c0,0.2,0.1,0.3,0.3,0.3h0.6V21
		h-2v-1.4l-0.1,0c-0.3,0.5-0.6,0.9-0.9,1.2C113.1,21,112.7,21.1,112.3,21.1z"/>
	<path class="st0" d="M117.5,21v-0.4h0.6c0.2,0,0.3-0.1,0.3-0.3v-5.4c0-0.2-0.1-0.3-0.3-0.3h-0.6v-0.4h2V16l0.1,0
		c0.2-0.5,0.4-0.9,0.6-1.2c0.2-0.3,0.5-0.5,0.7-0.7c0.2-0.1,0.5-0.2,0.7-0.2c0.4,0,0.7,0.1,0.9,0.4c0.2,0.2,0.3,0.5,0.3,0.9
		c0,0.2-0.1,0.5-0.2,0.7c-0.1,0.2-0.3,0.3-0.6,0.3c-0.2,0-0.3,0-0.5-0.1c-0.1-0.1-0.2-0.2-0.2-0.4c0-0.3,0.1-0.5,0.4-0.7
		c0.2-0.1,0.3-0.3,0.3-0.4c0-0.2-0.1-0.3-0.4-0.3c-0.2,0-0.3,0-0.5,0.1c-0.2,0.1-0.4,0.3-0.6,0.6c-0.2,0.3-0.4,0.7-0.6,1.2
		c-0.3,0.7-0.4,1.4-0.4,2.1v2c0,0.2,0.1,0.3,0.3,0.3h0.6V21H117.5z"/>
	<path class="st0" d="M123.7,21v-0.4h0.6c0.2,0,0.3-0.1,0.3-0.3v-5.4c0-0.2-0.1-0.3-0.3-0.3h-0.6v-0.4h2v1.4l0.1,0
		c0.3-0.5,0.6-0.9,0.9-1.2c0.4-0.3,0.7-0.4,1.1-0.4c0.5,0,0.9,0.1,1.2,0.4c0.5,0.4,0.7,1,0.7,1.8v4.1c0,0.2,0.1,0.3,0.3,0.3h0.6V21
		h-3v-0.4h0.6c0.2,0,0.3-0.1,0.3-0.3v-4.4c0-1-0.3-1.6-1-1.6c-0.4,0-0.9,0.3-1.3,0.9s-0.7,1.2-0.7,2v3.1c0,0.2,0.1,0.3,0.3,0.3h0.6
		V21H123.7z"/>
	<path class="st0" d="M131.9,19.4c0-0.3,0.1-0.6,0.2-0.8c0.1-0.2,0.3-0.4,0.4-0.6c0.2-0.1,0.4-0.3,0.6-0.4c0.3-0.1,0.5-0.2,0.7-0.2
		c0.2,0,0.4-0.1,0.7-0.1l1.4-0.3v-1.3c0-0.9-0.5-1.4-1.4-1.4c-0.3,0-0.6,0.1-0.9,0.3c-0.3,0.2-0.4,0.4-0.4,0.6c0,0.1,0,0.2,0,0.2
		c0,0.1,0.1,0.1,0.2,0.1c0.4,0.1,0.6,0.3,0.6,0.6c0,0.4-0.2,0.6-0.7,0.6c-0.2,0-0.4-0.1-0.6-0.3c-0.2-0.2-0.3-0.4-0.3-0.7
		c0-0.5,0.2-1,0.6-1.3c0.4-0.3,0.9-0.5,1.4-0.5c0.7,0,1.2,0.2,1.7,0.5s0.7,0.9,0.7,1.6v3.7c0,0.5,0.2,0.7,0.5,0.7
		c0.5,0,0.7-0.5,0.7-1.5h0.3c0,1.4-0.4,2.1-1.2,2.1c-0.8,0-1.3-0.5-1.3-1.4l-0.1,0c-0.1,0.3-0.4,0.7-0.7,1c-0.3,0.3-0.7,0.5-1.2,0.5
		c-0.5,0-1-0.1-1.4-0.4C132.1,20.5,131.9,20,131.9,19.4z M133.2,19.4c0,0.8,0.3,1.2,0.9,1.2c0.2,0,0.5-0.1,0.6-0.2
		c0.2-0.1,0.4-0.3,0.5-0.5c0.1-0.2,0.3-0.4,0.3-0.6s0.2-0.4,0.2-0.6v-1.4l-1.3,0.3c-0.5,0.1-0.8,0.3-1,0.6
		C133.3,18.5,133.2,18.9,133.2,19.4z"/>
	<path class="st0" d="M139.1,21v-0.4h0.8c0.2,0,0.3-0.1,0.3-0.3V11c0-0.2-0.1-0.3-0.3-0.3h-0.8v-0.4h2.2v10c0,0.2,0.1,0.3,0.3,0.3
		h0.8V21H139.1z"/>
</g>
</svg>
