<?xml version="1.0" encoding="utf-8"?>
<svg version="1.1" id="Layer_1" xmlns="http://www.w3.org/2000/svg" xmlns:xlink="http://www.w3.org/1999/xlink" x="0px" y="0px"
	 viewBox="0 0 66.4 17.6" style="enable-background:new 0 0 66.4 17.6;" xml:space="preserve">
<style type="text/css">
	.st0{fill:#2B2B37;}
</style>
<path class="st0" d="M41.6,8C41.7,8,41.8,8,41.9,8c0.3,0,0.1,0.2,0.3,0.4c0.2,0.2,0.3,0.5,0.3,0.9l2.4-0.1c0-0.9-0.3-1.7-0.8-2.3
	c-0.3-0.3-0.6-0.5-0.9-0.6C42.8,6.1,42.4,6,41.9,6c-0.2,0-0.3,0-0.4,0C41.6,6.7,41.6,7.4,41.6,8z"/>
<path class="st0" d="M5.4,13.3v1.1h0.2V14C5.5,13.8,5.5,13.5,5.4,13.3z"/>
<g>
	<path class="st0" d="M66.3,10.4c-0.1-0.1-0.2-0.2-0.2-0.4c0-0.2-0.1-0.3-0.3-0.2c0,0,0,0,0-0.1c-0.1-0.2-0.2-0.3-0.4-0.5V9.1
		c0-0.9-0.3-1.6-0.8-2.2c-0.3-0.3-0.6-0.5-0.9-0.6C63.3,6.1,62.9,6,62.5,6c-0.6,0-1.2,0.1-1.6,0.4c-0.4,0.3-0.8,0.6-1,1
		c-0.1,0.1-0.1,0.2-0.2,0.4h-1.1V2.1h-1.4c-0.1-0.3-0.3-0.5-0.6-0.7c0-0.1,0-0.1,0-0.2c0.1-0.2,0-0.4-0.1-0.6
		c-0.2-0.2-0.5,0-0.4,0.2c0,0,0,0.1,0,0.1C56,1,56,1,56,1c-0.1,0-0.2,0-0.3,0.1c-0.1,0.1-0.2,0.3-0.1,0.4c0.4,0.3,0.7,0.6,1.1,0.8V7
		h0c-0.2-0.3-0.4-0.5-0.7-0.7c0,0.2,0,0.3,0,0.5c0,0.2-0.3,0.2-0.3,0c0-0.2,0-0.4,0-0.6C55.5,6.1,55.2,6,55,6c0.1,0.4,0.1,0.8,0,1.3
		c0,0.1-0.1,0.1-0.1,0.1v0.5h-0.2V6c-0.4,0-0.8,0.1-1,0.2c-0.5,0.3-0.8,0.8-0.9,1.5c0,0.3-0.1,0.9-0.1,1.6V13c0,0.5,0,1,0.1,1.3
		c0.1,0.3,0.1,0.6,0.3,0.8c0.3,0.6,0.9,0.9,1.7,0.9c0.2,0,0.5,0,0.6-0.1c0.2-0.1,0.3-0.1,0.5-0.2c0.1-0.1,0.3-0.2,0.4-0.3
		c0.1-0.1,0.2-0.3,0.4-0.4V16h2V9.1h0.9c0,0.1,0,0.2,0,0.3v3.2c0,0.4,0,0.8,0.1,1.1c0.1,0.3,0.1,0.6,0.3,0.9c0.2,0.4,0.6,0.8,1,1
		c0.4,0.3,1,0.4,1.6,0.4c0.5,0,0.9-0.1,1.2-0.2c0.4-0.2,0.7-0.4,0.9-0.6c0.3-0.3,0.5-0.7,0.7-1.1h0.1v-0.8c0,0,0-0.1,0-0.1h0v-1.3h0
		v-1.3c0,0.1,0,0.2,0.1,0.3c0.2,0.4,0.8,0.3,0.9-0.1C66.5,10.6,66.4,10.5,66.3,10.4z M56.7,11.3c0,0.4-0.1,0.7-0.3,0.9
		c-0.2,0.2-0.4,0.3-0.7,0.3c-0.3,0-0.6-0.1-0.7-0.4c-0.2-0.2-0.2-0.6-0.2-1v-0.8c0-0.3,0.1-0.6,0.2-0.8c0.1-0.2,0.4-0.4,0.8-0.4
		c0.3,0,0.5,0.1,0.7,0.3c0.2,0.2,0.3,0.5,0.3,0.8V11.3z M59.6,8.3c0,0.2,0,0.3-0.1,0.5h-0.9V8.1h1C59.6,8.1,59.6,8.2,59.6,8.3z
		 M64.4,13.1h-1c0,0.2-0.1,0.4-0.2,0.7c-0.1,0.2-0.4,0.3-0.7,0.3c-0.3,0-0.5-0.1-0.7-0.3c-0.2-0.2-0.3-0.4-0.3-0.7v-1.3h2.9V13.1z
		 M65.2,13.1h-0.5v-1.3h0.5V13.1z"/>
	<path class="st0" d="M50.9,6.8c-0.2-0.2-0.4-0.3-0.6-0.4v1.5c0,0.2-0.3,0.2-0.3,0V6.2c0,0-0.1,0-0.1,0C49.6,6.1,49.2,6,48.8,6
		c-0.5,0-0.9,0.1-1.2,0.2c-0.4,0.1-0.7,0.4-0.9,0.6c-0.5,0.5-0.8,1.3-0.9,2.1h2.5c0.1-0.3,0.2-0.6,0.4-0.7C48.8,8.1,48.5,8,48.8,8
		c0.4,0,0.6,0.1,0.8,0.3c0.1,0.2,0.2,0.2,0.2,0.8c0,0.6-2.1,1-2.5,1.2c-0.4,0.1-0.7,0.3-1,0.6c-0.2,0.3-0.4,0.6-0.5,1.1
		c-0.1,0.4-0.1,0.9-0.1,1.5c0,0.5,0.1,1,0.2,1.3c0.1,0.3,0.3,0.6,0.5,0.8c0.2,0.2,0.5,0.3,0.7,0.4c0.2,0.1,0.5,0.1,0.7,0.1
		c0.5,0,0.9-0.1,1.1-0.3c0.3-0.2,0.5-0.5,0.8-0.8h0v1h2V9.1c0-0.5-0.1-1-0.2-1.4C51.4,7.4,51.2,7,50.9,6.8z M49.5,14l-0.8,0.3
		c-0.3,0-0.6-0.1-0.8-0.4c-0.2-0.2-0.3-0.5-0.3-0.9c0-0.5,0.2-0.9,0.5-1.1c0.3-0.2,0.7-0.3,1.1-0.3c0.5,0.1,0.5,0.7,0.5,1.4
		S49.7,13.8,49.5,14z"/>
	<path class="st0" d="M42.1,13.8c-0.1,0.2,0.2,0.3-0.2,0.3c-0.3,0-0.5-0.1-0.7-0.3c-0.2-0.2-0.3-0.4-0.3-0.7v-4
		c0-0.4,0.1-0.7,0.3-0.8c0,0,0.1-0.1,0.1-0.1c0-0.7,0-1.4-0.1-2.1c-0.3,0.1-0.6,0.2-0.9,0.3c-0.4,0.3-0.8,0.6-1,1
		C39.2,7.7,39.1,8,39,8.3C39,8.6,39,9,39,9.4v3.2c0,0.4,0,0.8,0.1,1.1c0.1,0.3,0.1,0.6,0.3,0.9c0.2,0.4,0.6,0.8,1,1
		c0.4,0.3,1,0.4,1.6,0.4c0.5,0,0.9-0.1,1.2-0.2c0.4-0.2,0.7-0.4,0.9-0.6c0.5-0.5,0.8-1.2,0.8-2.1h-2.5
		C42.3,13.3,42.3,13.6,42.1,13.8z"/>
	<path class="st0" d="M10.2,2.2H7.9L6.3,6.9L4.8,2.2H3.7c0.6,1.5,0.9,3.2,1.1,4.9C5,9,5.2,11,5.6,12.9v-0.2L6.1,11l1.7,5.1h2.5
		L7.9,9L10.2,2.2z"/>
	<path class="st0" d="M3.4,2.2H2.9L2.8,1.1C2.7,1,2.6,0.8,2.6,0.7C2.5,0.6,2.6,0.5,2.7,0.5L2.7,0C0.7,1,1.4,4.9,1.4,4.9L0.9,5.5
		l1.2,1.9v6.3c0.1,0.1,0.2,0.1,0.2,0.2c0-0.1,0-0.1-0.1-0.2c-0.1-0.2,0.2-0.2,0.2-0.1c0,0.1,0.1,0.3,0.1,0.4h0.2l-0.1,0.2
		c0,0,0,0,0,0c0.1,0.1,0,0.2-0.1,0.2l-0.6,1.6h2.3l0.9-2.9C5,11.4,4.8,9.6,4.6,7.7C4.4,5.9,4.1,3.9,3.4,2.2z M3.1,13.5V4.4L4.6,9
		L3.1,13.5z"/>
	<path class="st0" d="M17.7,14.3v-2.1c0-1.5-0.4-2.4-1.3-2.9c0.8-0.5,1.2-1.4,1.2-2.8V5.5c0-2.2-1-3.3-3.3-3.3h-3.1V0.4h-0.3v15.7
		h2.2v1.5h0.3V16c0,0,0,0,0.1-0.1c0.1-0.2,0.2-0.3,0.3-0.5c0,0,0,0,0,0h0.2V15c0.1,0,0.1-0.1,0.2-0.1c0.2-0.1,0.2-0.2,0.2-0.4
		c-0.1-0.2-0.2-0.3-0.4-0.4v-0.1h-0.6c0-0.2,0-0.4,0-0.6h0.5v-0.2c0.1,0,0.2-0.1,0.2-0.2c0,0,0-0.1,0-0.3c0.2,0,0.3-0.2,0.2-0.4
		c-0.1-0.2,0.1-0.7,0-0.9c0-0.1-0.1-0.1-0.1-0.2c0-0.1,0.1-0.3,0.2-0.4c0.1-0.1,0.1-0.1,0.1-0.2c0.5,0.1,0.8,0.5,0.8,1.5v2.1
		c0,1.1,0.1,1.3,0.2,1.7l0,0.1H18L18,15.9C17.8,15.4,17.7,14.9,17.7,14.3z M14.8,6.8c0,0.4-0.3,0.7-0.7,0.7c-0.4,0-0.7-0.3-0.7-0.7
		V5.6c0-0.4,0.3-0.7,0.7-0.7c0.4,0,0.7,0.3,0.7,0.7V6.8z"/>
	<path class="st0" d="M22.2,2.2h-0.9c0-0.1-0.1-0.1-0.1-0.2c-0.1-0.1-0.2-0.1-0.3,0V1.4h-0.1V0.6h-0.3v0.8c0,0,0,0,0,0
		c0,0,0-0.1,0-0.1c-0.1-0.3-0.6-0.2-0.5,0.1c0,0.1,0,0.2,0,0.3c0,0,0-0.1-0.1-0.1c-0.1-0.2-0.5-0.1-0.5,0.1c0,0.2,0,0.3,0.1,0.5H19
		c-0.3,0-0.7-0.1-1-0.1c-0.4,0-0.8,0-1.1,0.3c-0.2,0.2,0.1,0.6,0.4,0.4c0.3-0.3,1-0.1,1.4-0.1c0.1,0,0.2,0,0.3,0v13.4h1.7
		c0.1-0.1,0.1-0.1,0.2-0.2c0,0,0,0,0,0c0-0.3-0.1-0.6-0.1-0.9c0-0.2,0.3-0.2,0.3,0c0,0.4,0.1,0.7,0.1,1.1h0.2v-0.5
		c0.2,0.1,0.4,0,0.4-0.3c0,0,0-0.1,0-0.1c0.1,0,0.1-0.1,0.1-0.2c0-0.6,0-1.3,0-1.9c0.1-0.7,0.2-1.4,0.1-2.1h0.3
		c2.2,0,3.3-1.2,3.3-3.5V5.7C25.5,3.4,24.3,2.2,22.2,2.2z M22.9,7.2c0,0.4-0.3,0.7-0.7,0.7c-0.4,0-0.7-0.3-0.7-0.7V5.8
		c0-0.4,0.3-0.7,0.7-0.7c0.4,0,0.7,0.3,0.7,0.7V7.2z"/>
	<path class="st0" d="M36.8,6.3c-0.1,0.1-0.3,0.1-0.4,0.2c0-0.1-0.1-0.1-0.3-0.1c-0.1,0-0.2,0-0.3,0.1c-0.1-0.1-0.1-0.2-0.2-0.2
		c0-0.1,0-0.2,0-0.3c0.1-0.2,0.1-0.4,0-0.6c-0.1-0.2-0.2-0.2-0.3-0.2c-0.1-0.2-0.5-0.2-0.5,0.1c0,0.1,0,0.3,0,0.5
		c-0.1,0-0.2,0.1-0.2,0.2c0,0,0,0,0,0.1h-1v2c-0.2-0.1-0.4-0.2-0.6-0.3c-0.1-0.1-0.3,0-0.4,0.1c-0.1,0-0.1-0.1-0.2-0.1
		c-0.1-0.1-0.1-0.2-0.2-0.2c-0.1-0.1-0.2-0.2-0.4-0.2c-0.1,0-0.1,0-0.2,0c-0.1-0.3-0.3-0.5-0.5-0.7c-0.1-0.1-0.2-0.2-0.3-0.3
		c-0.2,0.6-0.3,1.2,0,1.8c0.1,0.1-0.2,0.3-0.2,0.1c-0.3-0.6-0.2-1.4,0-2c-0.1-0.1-0.3-0.1-0.4-0.2C30,6.1,29.7,6,29.2,6
		c-0.5,0-0.9,0.1-1.2,0.2c-0.4,0.1-0.7,0.4-0.9,0.6c-0.5,0.5-0.8,1.3-0.9,2.1h2.5c0.1-0.3,0.2-0.6,0.4-0.7C29.3,8.1,29,8,29.2,8
		c0.4,0,0.6,0.1,0.8,0.3c0.1,0.2,0.3,0.2,0.2,0.8c-0.1,0.7-2.1,1-2.5,1.2c-0.4,0.1-0.7,0.3-1,0.6c-0.2,0.3-0.4,0.6-0.5,1.1
		c-0.1,0.4-0.1,0.9-0.1,1.5c0,0.5,0.1,1,0.2,1.3c0.1,0.3,0.3,0.6,0.5,0.8c0.2,0.2,0.5,0.3,0.7,0.4c0.2,0.1,0.5,0.1,0.7,0.1
		c0.5,0,0.9-0.1,1.1-0.3c0.2-0.1,0.3-0.3,0.5-0.5c0,0,0.1,0,0.1,0c0,0,0.1,0,0.2,0v0.2c0,0-0.1,0.1-0.1,0.1
		c-0.1,0.2-0.2,0.4-0.2,0.6c0,0.2,0,0.4,0,0.6c0,0.1-0.1,0.2-0.1,0.3c-0.1,0.2,0.1,0.4,0.3,0.4c0.2,0.1,0.5,0,0.4-0.2
		c0-0.1,0-0.1-0.1-0.2c0.2-0.3,0.3-0.6,0.5-0.8c0-0.1,0-0.1,0-0.2h1.2V9.1c0.3-0.1,0.7-0.1,1-0.2c0.2,0,0.3-0.2,0.2-0.3
		c0.1,0,0.1,0.1,0.2,0.1V16h1.6v-1.4c0-0.2,0.3-0.2,0.3,0V16h0.1v-2.2h0.5v-2.9h-0.5v-0.8c0-0.4,0.1-0.7,0.2-1
		c0.1-0.3,0.3-0.5,0.5-0.7c0.5-0.4,0.4,2.6,0.4,2.6h1.8v-4c0-0.3-0.1-0.5-0.3-0.7C38.3,6.4,37.2,6.1,36.8,6.3z M30,14
		c-0.2,0.2-0.5,0.3-0.8,0.3c-0.3,0-0.6-0.1-0.8-0.4c-0.2-0.2-0.3-0.5-0.3-0.9c0-0.5,0.2-0.9,0.5-1.1c0.3-0.2,0.4-0.3,0.8-0.3
		c0.8,0,0.8,1.4,0.8,1.4C30.2,13.5,30.1,13.8,30,14z"/>
</g>
<path class="st0" d="M56,3.5c-0.1-0.1-0.2-0.2-0.4-0.1c-0.1,0.1-0.1,0.2-0.1,0.3c0,0,0,0.1,0,0.1c0,0.1,0,0.3,0.1,0.4
	c0.1,0.2,0.4,0.2,0.5-0.1C56.1,3.9,56.1,3.7,56,3.5z"/>
<path class="st0" d="M31.5,16.7c0-0.1,0-0.2-0.1-0.3c-0.1-0.3-0.6-0.2-0.5,0.1c0,0.1,0,0.2,0.1,0.3C31.1,17.2,31.6,17,31.5,16.7z"/>
</svg>
