<svg width="171" height="24" fill="none" xmlns="http://www.w3.org/2000/svg"><path fill-rule="evenodd" clip-rule="evenodd" d="M29.678 1.062c-.021.034-.03 4.147-.021 9.139l.016 9.077 2.224.018 2.223.018.02-3.751.02-3.752.231-.467c.335-.681.602-.842 1.398-.842.572 0 .617.01.868.214.146.118.343.366.438.551l.173.336.034 3.838.035 3.837 2.23.018 2.23.018-.025-4.579c-.025-4.471-.03-4.592-.178-5.13-.37-1.337-1.099-2.304-2.11-2.803-.895-.442-1.833-.576-2.858-.41-.83.135-1.446.444-2.154 1.082l-.346.31V1h-2.205c-1.227 0-2.222.028-2.243.062Zm47.715.197c-.06.143-.27.648-.465 1.123s-.459 1.113-.586 1.417c-.127.304-.377.91-.555 1.347-.179.437-.486 1.184-.684 1.659l-1 2.418c-.354.855-.774 1.866-.935 2.246-.16.38-.314.761-.341.847l-.049.155h5.291l.255-.64c.14-.35.493-1.214.784-1.917.291-.703.662-1.605.825-2.004.163-.399.474-1.145.691-1.658.218-.513.482-1.15.587-1.417.167-.422 1.17-2.849 1.48-3.576L82.8 1H77.503l-.11.26ZM19.548 6.387c-1.28.235-2.29.766-3.171 1.667-2.406 2.458-2.63 6.544-.509 9.324.726.95 1.79 1.67 3.036 2.05.331.101.64.126 1.553.124 1.061-.003 1.17-.015 1.592-.183.703-.278.965-.431 1.39-.814l.395-.354.02.538.02.539h4.28V6.632h-4.28l-.02.565-.02.565-.308-.3c-.387-.377-1.028-.737-1.654-.93-.542-.167-1.785-.245-2.324-.145Zm28.699.036c-2.185.386-3.97 1.724-4.873 3.655-.42.896-.556 1.505-.599 2.673-.039 1.064.047 1.643.392 2.648.726 2.11 2.871 3.818 5.192 4.13.74.1 2.387.04 2.916-.107 1.951-.54 3.46-1.74 4.28-3.4 1.122-2.274.887-5.07-.594-7.053-1.242-1.663-3.002-2.543-5.232-2.614-.62-.02-1.116.003-1.482.068Zm14.496-.025c-.616.088-1.567.376-2.055.622-1.733.872-2.822 2.185-3.409 4.11-.172.563-.188.716-.192 1.79-.004 1.078.012 1.232.187 1.866.633 2.29 2.339 3.972 4.675 4.608.517.141.742.16 1.898.16h1.312l.794-.257c1.029-.333 1.798-.776 2.512-1.444.886-.83 1.398-1.634 1.774-2.783.87-2.667-.06-5.748-2.223-7.361-1.495-1.115-3.383-1.584-5.273-1.311ZM.003 6.64c-.031.03.265.772.603 1.512.052.114.18.425.284.691.104.266.212.515.24.553.029.038.162.349.297.691.135.342.389.949.564 1.348.176.399.454 1.052.619 1.45.164.4.428 1.022.586 1.383.158.36.38.89.494 1.175.113.285.296.72.406.967.373.84 1.242 2.928 1.242 2.986 0 .057-1.449 3.538-1.72 4.132-.078.17-.142.35-.143.398-.001.069.492.083 2.352.069l2.354-.018.226-.553c.331-.811.93-2.265 1.453-3.524.876-2.113.879-2.12 1.93-4.665.645-1.559 1.373-3.312 1.636-3.939.152-.36.44-1.06.643-1.554a237.492 237.492 0 0 1 1.165-2.808c.06-.137.09-.27.065-.293-.061-.062-4.526-.052-4.616.01-.04.027-.207.392-.37.81-.162.418-.613 1.569-1.003 2.557-.39.988-.872 2.216-1.07 2.73-.2.513-.404 1.01-.454 1.105l-.09.173-.067-.173-.29-.725a183.03 183.03 0 0 1-.622-1.59c-.22-.57-.71-1.83-1.088-2.798-.379-.97-.708-1.829-.733-1.91-.03-.095-.125-.163-.267-.191-.26-.052-4.575-.051-4.627 0Zm22.495 4c1.572.757 1.945 2.813.745 4.11-1.243 1.344-3.518.98-4.299-.688-.154-.33-.178-.474-.178-1.074 0-.644.015-.725.228-1.157.459-.933 1.277-1.423 2.388-1.43.563-.003.655.017 1.116.239Zm27.946-.057c.466.175 1.097.765 1.332 1.247.271.555.312 1.463.092 2.047a2.591 2.591 0 0 1-1.156 1.342c-.355.195-.529.243-.974.274-.692.047-1.138-.06-1.663-.4-1.278-.826-1.479-2.74-.41-3.9.67-.727 1.805-.976 2.779-.61Zm13.956-.091c.79.211 1.364.672 1.68 1.347.164.348.183.472.183 1.15 0 .7-.016.79-.194 1.13-.273.52-.688.943-1.142 1.167-.35.172-.462.191-1.114.191-.64 0-.77-.021-1.105-.181-1.51-.722-1.903-2.753-.784-4.061.572-.67 1.599-.977 2.476-.743Zm8.645 3.317c-.993.418-1.68 1.272-1.857 2.309-.226 1.321.42 2.577 1.611 3.126a2.985 2.985 0 0 0 3.95-1.45c.179-.383.215-.553.238-1.118.042-1.015-.226-1.697-.909-2.314-.572-.518-.976-.668-1.875-.696-.68-.022-.801-.007-1.158.143Z" fill="#6001D2"/><path d="M93.239 3.251c-.274-1.368.456-2.73 1.663-3.106 1.845-.575 3.53.621 3.513 2.494-.017 1.836-1.985 3.064-3.677 2.296-.621-.282-1.392-1.148-1.5-1.684ZM83.78 5.762c0-2.72 1.467-4.767 3.93-5.484.724-.211 3.34-.156 3.835.08l.348.167v3.79l-.475-.107c-1.68-.379-2.766.222-2.95 1.631l-.078.602h3.25v3.795l-1.553.036-1.553.035-.063 4.627-.064 4.627-2.313.034-2.313.035v-9.254l-.314-.079c-.173-.043-.573-.058-.89-.033L82 10.31l.035-1.903.035-1.902.697-.023c.383-.013.768-.027.855-.032.106-.006.159-.234.159-.688ZM106.656 6.572a4.617 4.617 0 0 1 1.082-.363c1.38-.244 2.924.157 3.929 1.02.341.293.838 1.04 1.036 1.557.44 1.153.498 1.957.46 6.402l-.038 4.373h-4.69l-.063-4.08c-.061-3.89-.076-4.095-.329-4.436-.378-.508-1.112-.734-1.76-.543-.648.192-1.037.653-1.202 1.423-.073.34-.132 2.188-.132 4.16v3.545l-2.313-.035-2.313-.034V6.505l2.313-.024 2.313-.024v.69c0 .528.045.689.19.689.105 0 .19-.054.19-.12 0-.195.773-.86 1.327-1.144ZM136.692 7.356c.533-.59 1.41-1.04 2.273-1.17 1.999-.296 3.751.538 4.594 2.187.628 1.228.691 1.87.655 6.715l-.034 4.473h-4.69l-.063-4.08c-.061-3.898-.075-4.094-.33-4.435-.746-.998-2.351-.738-2.875.466-.085.197-.154 1.775-.182 4.183l-.045 3.866h-4.617V6.505l2.091-.036c1.151-.02 2.206-.009 2.345.026.22.054.248.148.21.701-.053.778.081.81.668.16ZM147.537 8.207a7.052 7.052 0 0 1 3.932-2.016c.989-.161 2.46-.034 3.422.295l.824.283.041 2.118c.026 1.37-.005 2.118-.088 2.118a.26.26 0 0 1-.197-.113c-.039-.061-.44-.212-.892-.334-2.401-.65-4.226.545-4.097 2.683.09 1.494 1.207 2.454 2.858 2.454.783 0 1.991-.296 2.131-.523.234-.378.308.09.308 1.95 0 2.338.065 2.191-1.143 2.542-3.249.941-6.862-.49-8.209-3.253-1.368-2.806-.914-6.16 1.11-8.204ZM93.478 19.56l-.033-6.559-.033-6.56h2.331c2.27 0 2.334.008 2.402.27.039.147.06 3.099.047 6.559l-.024 6.29h-4.69Z" fill="#232A31"/><path fill-rule="evenodd" clip-rule="evenodd" d="M119.016 6.365c-2.191.834-3.648 2.492-4.241 4.825-.243.956-.245 2.837-.004 3.744.251.944.964 2.357 1.513 2.997 1.796 2.095 5.119 2.628 7.261 1.165.293-.2.612-.476.709-.614.242-.346.342-.19.342.532v.616l2.314-.035 2.313-.034V6.505H124.66l-.036.507c-.058.81-.105.837-.622.35-.266-.251-.797-.604-1.18-.784-.592-.277-.898-.331-2.028-.355-.872-.018-1.485.03-1.778.142Zm4.081 9.15c2.132-.892 2.101-4.05-.049-4.947-.677-.283-1.7-.252-2.352.071-1.99.985-1.991 3.795-.002 4.815.569.291 1.776.322 2.403.06ZM162.541 6.2c-2.223.371-4.116 1.765-5.062 3.727-.651 1.35-.869 2.61-.688 3.967.35 2.63 1.379 4.244 3.342 5.243.845.43 2.63.861 3.568.863.951.002 2.84-.427 3.685-.837.797-.386 2.463-1.9 2.463-2.236 0-.127-.325-.319-.919-.543-.506-.19-1.334-.509-1.842-.708-1.043-.41-1.241-.435-1.384-.184-.056.097-.306.296-.555.442-1.357.797-3.137.248-3.72-1.146-.174-.417-.173-.47.004-.539.109-.041 2.198-.075 4.642-.075h4.446l-.079-1.3c-.192-3.163-1.565-5.221-4.191-6.282-1.191-.481-2.408-.61-3.71-.392Zm2.889 4.193a2.325 2.325 0 0 0-.588-.43c-1.043-.528-2.353-.309-3.066.514-.282.325-.486.884-.367 1.003.086.086 4.391.066 4.478-.02.091-.091-.202-.775-.457-1.067Z" fill="#232A31"/></svg>