<svg width="190" height="190" viewBox="0 0 190 190" fill="none" xmlns="http://www.w3.org/2000/svg">
<circle cx="95" cy="95" r="95" fill="#F16365"/>
<path fill-rule="evenodd" clip-rule="evenodd" d="M66.9944 90.4565C71.8067 90.7437 75.498 93.2611 77.4243 97.5698C78.7312 100.493 79.1722 103.3 79.1606 108.624C79.1317 121.955 75.7501 131.605 70.0674 134.574C68.2497 135.523 67.1387 135.745 64.7746 135.627C61.6651 135.472 59.4813 134.49 57.4298 132.325C54.9747 129.734 53.6176 126.473 53.1897 122.138C52.9902 120.117 53.1884 114.513 53.5448 112.099C54.633 104.727 56.6918 99.0276 60.1195 93.8966C61.4804 91.8595 61.8153 91.4643 62.7959 90.7384C63.4468 90.2566 63.6617 90.1971 64.4753 90.2739C64.9885 90.3224 66.1221 90.4044 66.9944 90.4565ZM59.0659 107.779C61.2117 99.3217 64.0058 94.3745 67.0877 93.5759C67.9746 93.3462 69.6158 93.5776 70.6565 94.079C73.1271 95.2698 74.8902 98.6342 75.5715 103.458C75.8154 105.185 75.815 112.458 75.571 115.199C74.4948 127.288 70.7751 133.086 64.3908 132.626C62.0099 132.455 60.3413 131.273 59.1646 128.927C56.9534 124.517 56.915 116.256 59.0659 107.779Z" fill="white"/>
<path fill-rule="evenodd" clip-rule="evenodd" d="M92.4522 110.986C92.9142 111.451 92.8093 112.931 92.0872 116.138C91.1214 120.426 91.0083 122.13 91.123 130.666C91.1783 134.782 91.2529 138.18 91.2887 138.216C91.3246 138.252 92.2201 138.075 93.2788 137.823C97.0642 136.923 99.0898 137.464 99.0898 139.375C99.0898 140.348 98.4803 140.642 97.0504 140.359C95.7489 140.101 93.5574 140.209 92.4654 140.585L91.719 140.842L91.7808 144.505C91.8931 151.165 90.8681 155.148 88.3891 157.683C85.946 160.182 81.5235 160.842 78.8365 159.11C76.2709 157.456 75.105 155.096 75.2398 151.83C75.3062 150.222 75.3847 149.897 76.0347 148.542C76.6215 147.319 77.089 146.706 78.5461 145.244C81.2106 142.572 85.1798 140.076 87.8366 139.403L88.6927 139.186L88.5597 136.444C88.4866 134.936 88.3671 133.195 88.2945 132.575L88.1624 131.448L87.6284 132.624C86.5136 135.08 84.3479 136.036 82.35 134.954C81.3869 134.432 80.5362 132.815 80.1679 130.806L79.9442 129.586L79.509 130.757C78.9505 132.261 77.946 133.961 77.2981 134.5C76.3704 135.271 74.4585 134.908 74.4585 133.961C74.4585 133.372 74.7658 132.933 75.4715 132.514C76.3476 131.994 77.0162 130.609 78.3704 126.507C79.709 122.454 80.6029 118.843 80.8057 116.67C80.8893 115.774 81.102 114.735 81.2785 114.361C81.8023 113.25 83.2574 112.76 84.007 113.443C84.4476 113.845 84.4448 114.553 83.9846 119.058C83.3407 125.362 83.1554 129.014 83.3903 130.771C83.6129 132.435 83.8083 132.857 84.3576 132.857C84.7743 132.857 85.3977 131.569 86.1768 129.1C87.3584 125.355 87.6922 123.684 88.3548 118.205C88.7233 115.157 89.1122 112.39 89.2191 112.055C89.5078 111.153 90.201 110.69 91.2643 110.69C91.8288 110.69 92.2671 110.799 92.4522 110.986ZM79.5862 148.376C81.2446 145.841 84.2841 143.489 87.4183 142.316C88.0389 142.083 88.6097 141.889 88.6868 141.884C88.9478 141.865 88.8346 147.227 88.5377 148.941C87.8012 153.192 86.0367 156.289 83.8195 157.222C82.9128 157.603 81.2302 157.601 80.495 157.218C79.6907 156.799 78.6687 155.554 78.4071 154.674C77.8617 152.842 78.3414 150.279 79.5862 148.376Z" fill="white"/>
<path d="M98.9183 110.504C99.5412 110.678 99.8192 110.999 100.091 111.859C100.147 112.036 100.055 112.954 99.8869 113.898C99.4971 116.082 99.6522 117.262 101.065 122.859C102.543 128.716 102.638 131.786 101.407 133.925C99.5195 137.203 94.3662 135.793 94.0879 131.922C94.0217 131.001 94.0706 130.771 94.4039 130.436C94.6207 130.218 94.9105 130.039 95.0478 130.039C95.3115 130.039 95.731 130.8 95.731 131.278C95.731 131.673 96.2887 132.717 96.646 132.992C96.9737 133.244 97.5858 133.297 98.0562 133.116C98.6722 132.878 99.1416 131.534 99.2297 129.757C99.296 128.425 99.2094 127.55 98.8214 125.625C98.3036 123.055 97.7748 120.969 97.6684 121.076C97.6337 121.111 97.3925 121.879 97.1323 122.782C96.6201 124.562 95.9373 126.064 95.4591 126.463C95.1695 126.705 94.1174 126.787 93.915 126.583C93.861 126.529 94.1219 125.023 94.4949 123.237C95.3936 118.933 95.7099 116.978 95.9881 114.009C96.1155 112.649 96.3217 111.348 96.4462 111.117C96.5707 110.887 96.9435 110.62 97.2747 110.524C98.0821 110.289 98.1474 110.288 98.9183 110.504Z" fill="white"/>
<path fill-rule="evenodd" clip-rule="evenodd" d="M109.633 97.6673C110.146 97.9318 110.671 98.2333 110.799 98.3372C111.113 98.5916 111.087 100.357 110.749 101.768C110.34 103.472 110.223 103.364 112.495 103.364C113.607 103.364 116.798 103.42 119.586 103.488L124.654 103.612V104.064C124.654 104.855 124.309 105.224 123.297 105.516C120.968 106.187 119.054 106.37 114.381 106.37H109.756L109.652 106.887C109.482 107.733 109.005 111.529 108.69 114.541C108.343 117.856 108.298 127.197 108.619 128.98C108.804 130.01 109.24 131.166 109.442 131.166C109.486 131.166 109.722 131.075 109.966 130.963C111.08 130.451 112.073 127.95 113.649 121.68C115.598 113.927 116.773 111.63 118.79 111.63C120.343 111.63 122.007 112.932 122.42 114.471C122.668 115.391 122.366 118.192 121.773 120.491C121.159 122.871 120.429 124.692 118.827 127.839C117.624 130.203 117.529 130.472 117.735 130.926C118.132 131.803 119.043 132.815 119.616 133.017C120.098 133.186 120.247 133.148 120.74 132.73C121.916 131.735 123.469 127.821 125.4 120.989C126.004 118.853 126.671 116.764 126.882 116.347C127.383 115.36 127.375 114.081 126.86 112.448C126.595 111.61 126.451 110.668 126.448 109.751C126.441 107.551 127.105 106.558 128.581 106.558C129.856 106.558 130.343 107.896 130.151 110.877L130.021 112.89L131.21 113.605C132.87 114.604 133.924 115.492 134.51 116.383C134.976 117.094 135.008 117.273 134.98 119.037C134.964 120.077 134.775 122.564 134.56 124.562C133.968 130.09 134.064 131.927 134.962 132.214C135.502 132.386 135.881 131.823 136.684 129.663C137.9 126.39 139.856 119.628 140.224 117.425C140.386 116.457 140.978 115.762 141.642 115.762C142.742 115.762 142.859 117.304 142.019 120.745C140.479 127.054 138.037 133.205 136.583 134.437C135.51 135.345 133.854 134.902 132.62 133.378C131.5 131.994 131.472 131.775 131.468 124.31L131.465 117.547L130.765 116.843C129.93 116.002 129.737 115.971 129.584 116.655C128.821 120.077 128.145 122.337 127.548 123.454C127.407 123.718 126.991 125.033 126.622 126.376C125.73 129.626 124.264 132.66 122.914 134.053C121.638 135.369 120.347 135.823 118.818 135.494C116.436 134.981 114.935 132.83 114.297 129.014L114.173 128.271L113.526 129.749C112.403 132.313 111.079 134.011 109.99 134.286C107.404 134.94 105.448 131.429 105.128 125.559C105.02 123.586 105.321 119.178 106.176 110.216C106.373 108.158 106.515 106.456 106.493 106.434C106.47 106.411 105.402 106.334 104.118 106.262C102.216 106.156 101.587 106.189 100.723 106.442L99.6619 106.753L98.8431 106.138C98.3928 105.801 97.8757 105.437 97.694 105.331C97.2986 105.099 97.2542 104.192 97.6203 103.825C97.811 103.634 98.7873 103.54 101.422 103.458C103.372 103.398 105.416 103.303 105.963 103.247L106.958 103.145L106.9 100.417C106.842 97.7265 106.848 97.6841 107.292 97.3217C107.819 96.8925 108.254 96.9565 109.633 97.6673ZM117.412 125.087C117.299 123.732 118.148 119.132 119.142 115.716C119.314 115.121 119.534 114.635 119.629 114.635C119.937 114.635 119.813 117.233 119.412 119.202C119.198 120.255 118.674 122.173 118.248 123.464C117.552 125.575 117.467 125.739 117.412 125.087Z" fill="white"/>
<path d="M86.8801 30.1895C87.3395 30.3828 87.6222 30.6759 87.8308 31.1757C88.1165 31.8603 88.1025 31.9965 87.4578 34.7986C86.0852 40.7652 85.6013 44.2772 85.2867 50.5588C85.0216 55.8519 85.0492 60.1734 85.3845 65.7941C85.8913 74.2909 85.7788 76.7321 84.742 79.7386C83.8372 82.3625 81.6523 85.751 79.9413 87.1837C78.8171 88.1252 76.757 89.0587 75.2398 89.3142C73.4993 89.6072 71.2211 89.2469 68.114 88.1878C62.51 86.2772 59.717 84.3637 59.717 82.4349C59.717 81.6889 60.6375 80.822 61.4287 80.8229C62.1652 80.8237 62.725 81.1501 65.1174 82.9742C68.8306 85.8049 70.2491 86.5054 72.2125 86.4778C76.9973 86.4107 79.9955 82.9419 81.2802 75.9867C81.6362 74.0599 81.8549 66.9834 81.6454 64.1707L81.5075 62.3196L80.8811 64.064C79.2422 68.6276 77.1873 71.2603 74.5236 72.2096C73.1101 72.7134 70.7975 72.6163 69.1416 71.9836C66.9457 71.1446 65.2075 68.7847 64.3751 65.5123C63.5828 62.3968 63.5783 56.5016 64.3619 48.23C64.9707 41.8045 65.1805 38.1954 65.0528 36.3383C64.9159 34.344 65.1265 33.2622 65.7351 32.8331C66.4801 32.3077 67.0737 32.4805 68.6623 33.6856C70.2861 34.9172 70.3771 35.112 69.9754 36.4906C69.8701 36.8515 69.5794 38.4148 69.3294 39.9645C67.5335 51.0919 67.2015 63.0094 68.5783 66.9212C69.4861 69.5009 71.6417 70.6143 73.691 69.562C75.8287 68.464 78.3078 64.212 79.776 59.1254C81.4041 53.4847 82.0268 48.7776 82.7583 36.5832C83.1121 30.6839 83.1029 30.7377 83.8452 30.2819C84.5649 29.8403 85.9495 29.798 86.8801 30.1895Z" fill="white"/>
<path fill-rule="evenodd" clip-rule="evenodd" d="M107.002 44.8173C107.355 45.2978 107.394 45.6023 107.394 47.9522V50.5548L109.073 51.6068C110.933 52.7722 111.443 53.2779 112.008 54.5157C112.351 55.2669 112.378 55.5774 112.269 57.5063C112.201 58.6899 112.012 60.8066 111.848 62.2097C111.684 63.6129 111.538 65.7516 111.524 66.9623C111.501 68.9879 111.531 69.1962 111.903 69.5714C112.484 70.1569 112.839 69.9221 113.461 68.5418C114.504 66.2256 116.694 59.093 117.349 55.877C117.545 54.918 117.83 53.9887 117.983 53.8116C118.137 53.6347 118.368 53.1517 118.498 52.7384C119.406 49.8438 120.934 48.7105 122.916 49.4625C123.632 49.7345 124.608 50.7051 125.067 51.6038C125.402 52.2579 125.433 52.5513 125.322 54.0333C125.047 57.6939 123.902 61.2665 121.583 65.7001C120.488 67.7941 120.419 67.9962 120.616 68.5444C121.092 69.8672 122.529 71.0188 123.232 70.6403C124.549 69.9305 125.981 66.5402 128.119 59.0733C128.778 56.7718 129.487 54.5529 129.695 54.1422C130.128 53.2869 130.597 53.1797 131.209 53.7958C131.556 54.1447 131.592 54.3355 131.493 55.2904C131.366 56.5144 129.941 62.5867 129.205 65.0427C128.517 67.3378 127.077 70.2444 126.067 71.3751C123.532 74.2132 119.964 73.6799 118.262 70.2086C117.641 68.9428 117.399 68.1475 117.232 66.8184L117.092 65.7001L116.65 66.9212C115.968 68.8076 114.826 70.9844 114.085 71.8092C113.542 72.4149 113.288 72.5567 112.749 72.5567C111.806 72.5567 110.58 71.9017 109.897 71.0338C108.776 69.6089 108.725 69.2163 108.712 61.7881L108.7 55.0584L108.003 54.415C107.619 54.0611 107.241 53.7716 107.161 53.7716C107.082 53.7716 106.742 54.907 106.405 56.2944C105.71 59.1541 105.076 60.8622 104.458 61.5349C104.225 61.7885 103.765 62.3778 103.435 62.8444C103.024 63.4275 102.506 63.8558 101.781 64.2127C100.81 64.691 100.65 64.7166 99.7681 64.5336C98.6451 64.3006 98.6505 64.2956 98.3452 65.8683C98.2226 66.4991 97.8655 67.6914 97.5516 68.5179C96.3426 71.7005 95.0599 72.9593 93.0252 72.9593C90.5966 72.9593 88.9986 70.9307 88.4571 67.1601C88.0479 64.3112 88.2858 58.5764 88.9036 56.4015C89.0357 55.9366 89.1046 55.2348 89.057 54.8418C89.0085 54.4432 89.0971 53.7789 89.2572 53.339C89.4151 52.9054 89.6379 52.0856 89.7523 51.5174C90.2162 49.2145 91.1833 48.1361 92.7842 48.1361C94.4973 48.1361 97.2475 50.0886 98.1258 51.9284C98.6365 52.998 98.8487 54.5303 99.0049 58.28C99.0868 60.2436 99.2114 61.4301 99.3452 61.5176C99.6929 61.7447 100.566 61.6798 101.134 61.3841C102.096 60.8833 102.854 59.137 103.472 55.9965C103.642 55.1345 103.929 54.2177 104.111 53.9594C104.674 53.1594 104.703 52.0379 104.208 50.2364C103.458 47.5084 103.658 45.2432 104.715 44.491C105.399 44.0035 106.52 44.1636 107.002 44.8173ZM91.4632 62.3188C91.7528 58.6781 92.8407 53.1353 93.5186 51.8461C93.7231 51.4573 93.6621 51.4657 94.3969 51.7236C94.7201 51.8371 94.9993 52.0272 95.0174 52.1463C95.0353 52.2654 95.0618 53.5884 95.0762 55.0866C95.0941 56.9386 95.2327 58.562 95.5098 60.1585C95.7341 61.45 95.9176 62.9038 95.9176 63.3892C95.9176 64.4438 95.1863 66.8708 94.3016 68.7527C93.7827 69.8567 93.5808 70.1146 93.2359 70.1146C92.6974 70.1146 92.0458 69.4247 91.8008 68.5949C91.4578 67.4331 91.2958 64.4237 91.4632 62.3188ZM120.95 57.5286C121.334 55.7065 122.189 52.5074 122.38 52.1824C122.438 52.0832 122.552 52.2523 122.633 52.5581C122.818 53.2522 122.535 55.8011 122.04 57.9043C121.568 59.9089 120.311 63.6678 120.212 63.3691C120.094 63.0112 120.541 59.4725 120.95 57.5286Z" fill="white"/>
</svg>
