<svg width="98" height="98" viewBox="0 0 98 98" fill="none" xmlns="http://www.w3.org/2000/svg">
    <path d="M47.7977 3.99083C49.9337 2.87715 52.5409 5.46084 51.4041 7.59491C50.7452 9.33423 48.2462 9.79679 46.9698 8.47103C45.619 7.1982 46.06 4.68311 47.7977 3.99083ZM24.8237 6.46672C26.1212 5.93242 27.7637 7.12137 27.6312 8.53571C27.7688 10.0708 25.8919 11.2013 24.5693 10.4714C22.8171 9.79287 23.0174 6.9481 24.8237 6.46711V6.46672ZM71.8768 10.5145C69.849 10.2695 69.5283 7.08177 71.4805 6.43771C72.9948 5.69918 74.3836 7.08413 74.6051 8.51925C74.2876 9.74465 73.2613 10.867 71.8768 10.5126V10.5145ZM30.0503 16.2433C32.2196 14.8713 35.3148 16.9144 34.9813 19.4342C34.8688 21.9783 31.4893 23.4522 29.583 21.7321C27.7406 20.3813 28.0189 17.2817 30.0503 16.2441V16.2433ZM63.165 17.7C64.1336 15.2084 68.0552 15.13 69.1567 17.5604C70.2453 19.4499 68.9062 21.7897 66.9666 22.4318C64.397 22.9116 61.9564 20.1339 63.1661 17.7019L63.165 17.7ZM45.031 22.2895C45.0098 20.1457 46.9624 18.5483 49 18.4024C50.3512 18.6733 51.8244 19.2492 52.4041 20.6129C53.4845 22.4946 52.5253 25.0841 50.5731 25.9477C49.6805 26.4479 48.6249 26.2613 47.6527 26.2021C46.1666 25.4726 44.915 24.0418 45.0314 22.2899L45.031 22.2895ZM10.8657 25.413C12.8473 24.1947 15.5208 26.4181 14.7705 28.5706C14.3573 30.4326 11.8544 31.19 10.4236 30.0014C8.89476 28.8877 9.13819 26.2096 10.8657 25.413ZM84.2311 25.4091C85.9124 24.1037 88.6866 25.6012 88.4863 27.7219C88.5992 29.6576 86.2005 31.1171 84.5314 30.1206C82.6933 29.2946 82.5059 26.4667 84.2311 25.4071V25.4091ZM54.6389 29.2609C57.4131 28.2645 60.7087 29.4569 62.29 31.9305C64.3758 34.9544 63.2661 39.5592 60.0289 41.2943C56.675 43.3464 51.7773 41.6079 50.5386 37.8615C49.1321 34.5083 51.1811 30.3119 54.6389 29.2609ZM38.3611 29.593C41.4359 28.1425 45.5739 29.3578 47.0592 32.5044C48.8071 35.5659 47.4555 39.8289 44.3309 41.4095C41.2023 43.1865 36.7884 41.8407 35.2756 38.5522C33.5763 35.3738 35.084 31.0567 38.3611 29.593ZM22.0621 35.1653C22.2973 33.1841 24.1648 31.8952 26.0503 31.7615C28.082 32.0065 29.7049 33.5843 29.9256 35.6424C29.7923 37.6776 28.2192 39.6674 26.0624 39.6549C23.6893 39.8591 21.6089 37.4989 22.0621 35.1669V35.1653ZM70.2037 32.1939C72.64 30.7756 76.023 32.8403 75.9148 35.6392C76.0818 38.6047 72.3378 40.6961 69.9117 38.9552C67.3915 37.5067 67.5879 33.4279 70.2037 32.1943V32.1939ZM31.7367 42.6443C34.5861 41.8603 37.844 43.2033 39.2415 45.8223C40.7703 48.4585 40.1467 52.1206 37.7692 54.0544C34.7198 56.8905 29.0961 55.7517 27.4733 51.8811C25.6085 48.3331 27.8735 43.5781 31.7367 42.6439V42.6443ZM62.6111 42.6294C65.3809 41.8372 68.6349 42.9038 70.1242 45.4283C72.0932 48.3146 71.1532 52.6192 68.2222 54.4797C65.1516 56.64 60.3959 55.5056 58.7063 52.1277C56.6581 48.6333 58.7193 43.6953 62.6111 42.6294ZM13.4098 45.9222C15.8712 44.9912 18.5995 47.7074 17.6023 50.1477C16.9935 52.3703 13.8606 53.1935 12.2421 51.5534C10.3483 50.0144 11.0496 46.5898 13.4102 45.9222H13.4098ZM80.1249 49.4636C80.0539 47.4252 81.5459 45.618 83.6372 45.5044C85.3228 45.7713 86.9618 47.1312 86.8285 48.9662C86.9829 51.3899 84.0625 53.0371 81.9975 51.8983C81.0296 51.4064 80.5333 50.4138 80.1249 49.4624V49.4636ZM1.30836 47.1175C2.78895 46.4711 4.62077 47.7545 4.28287 49.3989C4.20446 51.2609 1.45458 51.9767 0.444782 50.4209C-0.447804 49.3425 0.0861015 47.6765 1.30836 47.1175ZM94.6748 47.0783C95.7175 46.3358 97.3906 46.8693 97.8033 48.0877C98.5042 49.4181 97.2193 51.2409 95.7218 51.0159C93.6195 51.2076 92.9386 48.0038 94.6748 47.0783ZM39.7801 56.0159C43.6766 55.0026 47.8652 58.2504 47.8899 62.2641C48.1443 66.3182 44.0188 69.9136 40.0302 68.9771C36.9471 68.4809 34.5281 65.511 34.6281 62.3954C34.6198 59.4162 36.8683 56.6463 39.7805 56.0159H39.7801ZM55.2116 56.0077C59.1665 54.9023 63.4797 58.2096 63.417 62.3146C63.6259 66.2939 59.6291 69.7682 55.724 68.9787C52.049 68.5036 49.3375 64.466 50.3634 60.8995C50.8812 58.5232 52.8667 56.5906 55.2116 56.0077ZM25.4588 58.4773C28.1953 58.0105 30.761 61.0645 29.6512 63.662C28.8417 66.4311 24.812 67.1822 23.0303 64.9203C20.9406 62.7482 22.5007 58.7772 25.4588 58.4773ZM70.7125 58.6032C73.1528 57.5812 76.148 59.6917 75.9603 62.3405C76.0583 65.2562 72.3601 67.2664 69.974 65.5647C67.2692 64.0359 67.7631 59.5408 70.7125 58.6032ZM83.3616 71.2903C82.4063 69.5091 84.1417 67.1484 86.1194 67.4781C87.1037 67.4617 87.7924 68.237 88.4224 68.8893C88.5517 69.945 88.7689 71.2021 87.8928 72.0175C86.703 73.5232 84.008 73.0936 83.3616 71.2919V71.2903ZM10.8583 67.9744C12.7066 66.7439 15.3663 68.5789 14.9508 70.74C14.7297 72.651 12.3244 73.7431 10.7368 72.6608C9.03509 71.6765 9.09781 68.8736 10.8583 67.9763V67.9744ZM47.3732 71.9767C49.793 70.9089 52.8753 73.0156 52.646 75.6808C52.8255 78.6255 49.0125 80.6651 46.6484 78.8952C44.022 77.3766 44.4587 72.9093 47.3748 71.9756L47.3732 71.9767ZM30.4583 75.9203C32.5191 74.836 35.2851 76.7086 35.0973 79.0171C35.16 80.9109 33.3117 82.5252 31.4427 82.2453C29.8946 82.2119 28.8852 80.8243 28.389 79.5048C28.4145 78.0665 29.0064 76.4648 30.4583 75.9223V75.9203ZM64.7165 75.9556C66.8357 74.6459 69.8478 76.5271 69.6475 78.9936C69.702 81.5714 66.2978 83.2229 64.3245 81.5295C62.4139 80.2021 62.6471 77.0112 64.7165 75.9556ZM70.6749 90.6835C69.7341 89.257 70.8419 87.5385 72.3727 87.2135C73.6036 87.464 74.905 88.3895 74.6463 89.8164C74.4667 91.7474 71.6424 92.3401 70.6749 90.6835ZM23.3843 89.4448C23.7598 88.3143 24.6693 87.1908 26.0001 87.4848C27.9401 87.6224 28.516 90.5463 26.8178 91.4475C25.291 92.477 23.5195 91.0673 23.3843 89.4448ZM46.1988 90.7419C46.5704 89.0697 48.735 88.2562 50.1619 89.1445C51.1027 89.5495 51.3798 90.6043 51.6221 91.5009C51.4927 91.9677 51.3771 92.4354 51.2634 92.9023C50.6793 93.5945 49.9306 94.2872 48.9565 94.2621C47.1498 94.4738 45.5202 92.4315 46.1988 90.7419Z" fill="#3CC8C8"/>
</svg>
