<svg width="48" height="48" viewBox="0 0 48 48" fill="none" xmlns="http://www.w3.org/2000/svg">
<rect width="48" height="48" rx="4" fill="#D93B3B"/>
<ellipse cx="24.0391" cy="24.0391" rx="13.0391" ry="13.0391" fill="#D93B3B" stroke="white" stroke-width="2.1"/>
<path d="M24.5719 15.1844V17.95H23.1094V15.1844H24.5719ZM24.3938 30.4937V33.0156H22.9313V30.4937H24.3938ZM25.425 27.4187C25.425 27.0625 25.3594 26.7594 25.2281 26.5094C25.1031 26.2594 24.8969 26.0375 24.6094 25.8437C24.3281 25.65 23.9469 25.4625 23.4656 25.2812C22.6531 24.9687 21.9375 24.6375 21.3188 24.2875C20.7063 23.9312 20.2281 23.4906 19.8844 22.9656C19.5406 22.4344 19.3688 21.7625 19.3688 20.95C19.3688 20.175 19.5531 19.5031 19.9219 18.9344C20.2906 18.3656 20.8 17.9281 21.45 17.6219C22.1063 17.3094 22.8688 17.1531 23.7375 17.1531C24.4 17.1531 25 17.2531 25.5375 17.4531C26.075 17.6469 26.5375 17.9344 26.925 18.3156C27.3125 18.6906 27.6094 19.15 27.8156 19.6937C28.0219 20.2375 28.125 20.8594 28.125 21.5594H25.4344C25.4344 21.1844 25.3938 20.8531 25.3125 20.5656C25.2313 20.2781 25.1125 20.0375 24.9563 19.8437C24.8063 19.65 24.625 19.5062 24.4125 19.4125C24.2 19.3125 23.9656 19.2625 23.7094 19.2625C23.3281 19.2625 23.0156 19.3375 22.7719 19.4875C22.5281 19.6375 22.35 19.8406 22.2375 20.0969C22.1313 20.3469 22.0781 20.6344 22.0781 20.9594C22.0781 21.2781 22.1344 21.5562 22.2469 21.7937C22.3656 22.0312 22.5688 22.25 22.8563 22.45C23.1438 22.6437 23.5375 22.8437 24.0375 23.05C24.85 23.3625 25.5625 23.7 26.175 24.0625C26.7875 24.425 27.2656 24.8687 27.6094 25.3937C27.9531 25.9187 28.125 26.5875 28.125 27.4C28.125 28.2062 27.9375 28.8937 27.5625 29.4625C27.1875 30.025 26.6625 30.4562 25.9875 30.7562C25.3125 31.05 24.5313 31.1969 23.6438 31.1969C23.0688 31.1969 22.4969 31.1219 21.9281 30.9719C21.3594 30.8156 20.8438 30.5656 20.3813 30.2219C19.9188 29.8781 19.55 29.4219 19.275 28.8531C19 28.2781 18.8625 27.5719 18.8625 26.7344H21.5625C21.5625 27.1906 21.6219 27.5719 21.7406 27.8781C21.8594 28.1781 22.0156 28.4187 22.2094 28.6C22.4094 28.775 22.6344 28.9 22.8844 28.975C23.1344 29.05 23.3875 29.0875 23.6438 29.0875C24.0438 29.0875 24.3719 29.0156 24.6281 28.8719C24.8906 28.7281 25.0875 28.5312 25.2188 28.2812C25.3563 28.025 25.425 27.7375 25.425 27.4187Z" fill="white"/>
</svg>
