<svg width="48" height="48" viewBox="0 0 48 48" fill="none" xmlns="http://www.w3.org/2000/svg">
<rect width="48" height="48" rx="4" fill="#99BFAD"/>
<path d="M21.9412 12.8824C23.0133 12.8824 23.8824 12.0133 23.8824 10.9412C23.8824 9.86909 23.0133 9 21.9412 9C20.8691 9 20 9.86909 20 10.9412C20 12.0133 20.8691 12.8824 21.9412 12.8824Z" fill="#99BFAD" stroke="white" stroke-width="2" stroke-linecap="round" stroke-linejoin="round"/>
<path d="M30.9061 25.7574L36.4074 27.4074L30.9061 25.7574Z" fill="#99BFAD"/>
<path d="M22 13L23 18M30.9061 25.7574L36.4074 27.4074" stroke="white" stroke-width="2" stroke-linecap="round" stroke-linejoin="round"/>
<path d="M26 30L27 35" stroke="white" stroke-width="2" stroke-linecap="round" stroke-linejoin="round"/>
<path d="M29 19L34 14L29 19Z" fill="#99BFAD"/>
<path d="M29 19L34 14" stroke="white" stroke-width="2" stroke-linecap="round" stroke-linejoin="round"/>
<path d="M14 33L19 28L14 33Z" fill="#99BFAD"/>
<path d="M14 33L19 28" stroke="white" stroke-width="2" stroke-linecap="round" stroke-linejoin="round"/>
<path d="M36.1756 13.8824C37.2476 13.8824 38.1167 13.0133 38.1167 11.9412C38.1167 10.8691 37.2476 10 36.1756 10C35.1035 10 34.2344 10.8691 34.2344 11.9412C34.2344 13.0133 35.1035 13.8824 36.1756 13.8824Z" fill="#99BFAD" stroke="white" stroke-width="2" stroke-linecap="round" stroke-linejoin="round"/>
<path d="M38.2693 29.9063C39.3414 29.9063 40.2105 29.0372 40.2105 27.9651C40.2105 26.893 39.3414 26.0239 38.2693 26.0239C37.1972 26.0239 36.3281 26.893 36.3281 27.9651C36.3281 29.0372 37.1972 29.9063 38.2693 29.9063Z" fill="#99BFAD" stroke="white" stroke-width="2" stroke-linecap="round" stroke-linejoin="round"/>
<path d="M27.9412 39.8824C29.0133 39.8824 29.8824 39.0133 29.8824 37.9412C29.8824 36.8691 29.0133 36 27.9412 36C26.8691 36 26 36.8691 26 37.9412C26 39.0133 26.8691 39.8824 27.9412 39.8824Z" fill="#99BFAD" stroke="white" stroke-width="2" stroke-linecap="round" stroke-linejoin="round"/>
<path d="M24.8235 29.6471C28.0398 29.6471 30.6471 27.0398 30.6471 23.8235C30.6471 20.6073 28.0398 18 24.8235 18C21.6073 18 19 20.6073 19 23.8235C19 27.0398 21.6073 29.6471 24.8235 29.6471Z" fill="#99BFAD" stroke="white" stroke-width="2" stroke-linecap="round" stroke-linejoin="round"/>
<path d="M12.0573 20.8763L19.0058 22.187L12.0573 20.8763Z" fill="#99BFAD"/>
<path d="M12.0573 20.8763L19.0058 22.187" stroke="white" stroke-width="2" stroke-linecap="round" stroke-linejoin="round"/>
<path d="M9.94118 22.8824C11.0133 22.8824 11.8824 22.0133 11.8824 20.9412C11.8824 19.8691 11.0133 19 9.94118 19C8.86909 19 8 19.8691 8 20.9412C8 22.0133 8.86909 22.8824 9.94118 22.8824Z" fill="#99BFAD" stroke="white" stroke-width="2" stroke-linecap="round" stroke-linejoin="round"/>
<path d="M11.9412 36.8824C13.0133 36.8824 13.8824 36.0133 13.8824 34.9412C13.8824 33.8691 13.0133 33 11.9412 33C10.8691 33 10 33.8691 10 34.9412C10 36.0133 10.8691 36.8824 11.9412 36.8824Z" fill="#99BFAD" stroke="white" stroke-width="2" stroke-linecap="round" stroke-linejoin="round"/>
</svg>
