<svg xmlns="http://www.w3.org/2000/svg" width="80" height="80" viewBox="0 0 80 80" fill="none">
  <path d="M59.9013 42.1131C59.7761 42.1131 59.6526 42.1423 59.5407 42.1984C59.4288 42.2546 59.3316 42.3361 59.2567 42.4364C59.1819 42.5368 59.1315 42.6533 59.1096 42.7765C59.0877 42.8998 59.0949 43.0265 59.1306 43.1465L59.5721 44.6306H59.5707C59.8371 45.2427 59.9488 45.911 59.896 46.5764C59.8433 47.2419 59.6276 47.8842 59.2681 48.4467C58.9085 49.0091 58.4161 49.4745 57.8343 49.8018C57.2524 50.1291 56.599 50.3082 55.9316 50.3234C55.2642 50.3386 54.6034 50.1894 54.0072 49.8889C53.4111 49.5884 52.8981 49.1459 52.5133 48.6004C52.1285 48.0549 51.8839 47.4231 51.8009 46.7607C51.7179 46.0983 51.7991 45.4256 52.0374 44.8021L52.0331 44.8022L52.3711 43.0712C52.3938 42.9548 52.3905 42.8347 52.3614 42.7197C52.3323 42.6047 52.278 42.4975 52.2026 42.4059C52.1271 42.3143 52.0324 42.2406 51.925 42.1899C51.8177 42.1393 51.7005 42.113 51.5819 42.113H39.6552L40.184 53.6256C40.1896 53.7476 40.2229 53.8667 40.2813 53.9738C40.3398 54.081 40.4219 54.1735 40.5214 54.2442C40.6209 54.3149 40.7352 54.362 40.8557 54.382C40.9761 54.402 41.0995 54.3943 41.2165 54.3595L43.5884 53.6538V53.6553C44.4062 53.301 45.3173 53.2233 46.1834 53.4338C46.7237 53.5659 47.2312 53.8072 47.6746 54.143C48.118 54.4789 48.4878 54.902 48.7613 55.3863C49.0348 55.8706 49.2062 56.4058 49.2648 56.9589C49.3234 57.512 49.2681 58.0713 49.1022 58.6021C48.9362 59.133 48.6633 59.6243 48.3001 60.0455C47.937 60.4668 47.4914 60.8092 46.9907 61.0516C46.4901 61.294 45.9451 61.4312 45.3894 61.4547C44.8337 61.4783 44.2791 61.3877 43.7598 61.1886L43.7599 61.1928L41.5065 60.7529C41.387 60.7295 41.2637 60.7337 41.146 60.7649C41.0283 60.7962 40.9193 60.8537 40.8271 60.9333C40.7349 61.0129 40.662 61.1123 40.6138 61.2242C40.5657 61.336 40.5436 61.4573 40.5492 61.579L41.0735 72.9974H70.8598C71.2054 72.9974 71.5369 72.8601 71.7814 72.6157C72.0258 72.3712 72.1631 72.0397 72.1631 71.6941V42.1131H59.9013Z" fill="url(#paint0_linear_293_28533)"/>
  <path d="M46.1834 53.4339C45.3174 53.2233 44.4063 53.3011 43.5884 53.6553V53.6539L41.2166 54.3595C41.0996 54.3943 40.9762 54.402 40.8558 54.3821C40.7353 54.3621 40.621 54.315 40.5215 54.2442C40.422 54.1735 40.3399 54.0811 40.2814 53.9739C40.223 53.8667 40.1897 53.7476 40.1841 53.6257L39.6552 42.1131L29.3324 41.921C29.2072 41.921 29.0838 41.9502 28.9719 42.0063C28.86 42.0625 28.7627 42.144 28.6879 42.2443C28.613 42.3447 28.5626 42.4611 28.5407 42.5844C28.5188 42.7077 28.526 42.8344 28.5617 42.9544L29.0604 44.6306H29.059C29.3253 45.2427 29.4371 45.911 29.3843 46.5764C29.3315 47.2419 29.1158 47.8841 28.7563 48.4466C28.3967 49.009 27.9043 49.4744 27.3225 49.8017C26.7407 50.1289 26.0873 50.3081 25.4199 50.3232C24.7526 50.3384 24.0917 50.1892 23.4956 49.8888C22.8995 49.5883 22.3864 49.1458 22.0017 48.6003C21.6169 48.0548 21.3722 47.423 21.2892 46.7606C21.2062 46.0983 21.2874 45.4257 21.5257 44.8021L21.5214 44.8022L21.8969 42.8792C21.9196 42.7627 21.9163 42.6427 21.8872 42.5276C21.858 42.4126 21.8038 42.3055 21.7283 42.2139C21.6529 42.1223 21.5581 42.0485 21.4508 41.9979C21.3435 41.9472 21.2263 41.921 21.1077 41.921H9.86234V71.68C9.86234 72.0669 10.016 72.4379 10.2896 72.7115C10.5632 72.985 10.9342 73.1387 11.3211 73.1387L26.5 73.0001H41.3795L40.5492 61.5791C40.5436 61.4574 40.5658 61.3361 40.6139 61.2243C40.662 61.1124 40.735 61.013 40.8272 60.9334C40.9194 60.8539 41.0284 60.7963 41.1461 60.765C41.2638 60.7338 41.3871 60.7297 41.5066 60.753L43.7599 61.1929L43.7598 61.1887C44.2789 61.3866 44.833 61.4761 45.3879 61.4518C45.9429 61.4275 46.487 61.2899 46.9868 61.0473C47.4865 60.8048 47.9313 60.4625 48.2938 60.0416C48.6563 59.6207 48.9288 59.13 49.0945 58.5998C49.2602 58.0696 49.3156 57.5111 49.2574 56.9586C49.1991 56.4062 49.0283 55.8716 48.7556 55.3876C48.4829 54.9037 48.114 54.4807 47.6716 54.1447C47.2293 53.8087 46.7228 53.5668 46.1834 53.4339Z" fill="url(#paint1_linear_293_28533)"/>
  <path d="M59.9013 42.1131H72.1603L72.2707 13.1934C72.2707 12.584 72.0286 11.9994 71.5976 11.5685C71.1667 11.1375 70.5821 10.8954 69.9727 10.8954H41.0713L40.5567 22.099C40.5508 22.2272 40.5757 22.3549 40.6293 22.4715C40.6828 22.5881 40.7635 22.6902 40.8646 22.7693C40.9657 22.8483 41.0842 22.902 41.2103 22.9259C41.3363 22.9498 41.4663 22.9432 41.5893 22.9066L43.5884 22.3119V22.3133C44.4062 21.9591 45.3173 21.8813 46.1834 22.0919C46.7237 22.2239 47.2312 22.4653 47.6746 22.8011C48.118 23.1369 48.4878 23.56 48.7613 24.0443C49.0348 24.5286 49.2062 25.0638 49.2648 25.617C49.3234 26.1701 49.2681 26.7293 49.1022 27.2602C48.9362 27.7911 48.6633 28.2823 48.3001 28.7036C47.937 29.1249 47.4914 29.4673 46.9907 29.7096C46.4901 29.952 45.9451 30.0892 45.3894 30.1128C44.8337 30.1363 44.2791 30.0457 43.7598 29.8466L43.7599 29.8509L41.1469 29.3407C41.0335 29.3186 40.9166 29.3211 40.8043 29.3482C40.692 29.3753 40.5868 29.4263 40.4959 29.4977C40.4051 29.569 40.3307 29.6592 40.2778 29.7619C40.2249 29.8647 40.1948 29.9776 40.1895 30.093L39.6552 42.1131H51.5818C51.7005 42.1131 51.8177 42.1394 51.925 42.19C52.0323 42.2406 52.1271 42.3144 52.2025 42.406C52.278 42.4976 52.3322 42.6047 52.3614 42.7198C52.3905 42.8348 52.3938 42.9548 52.3711 43.0713L52.0331 44.8022L52.0374 44.8021C51.7998 45.4254 51.7192 46.0976 51.8025 46.7594C51.8859 47.4212 52.1307 48.0523 52.5154 48.5972C52.9001 49.1422 53.4128 49.5841 54.0086 49.8842C54.6043 50.1843 55.2646 50.3334 55.9315 50.3182C56.5983 50.303 57.2512 50.1241 57.8327 49.7972C58.4141 49.4703 58.9062 49.0055 59.2658 48.4436C59.6253 47.8818 59.8411 47.2401 59.8943 46.5752C59.9474 45.9103 59.8363 45.2425 59.5706 44.6307H59.5721L59.1305 43.1465C59.0948 43.0265 59.0876 42.8998 59.1095 42.7766C59.1314 42.6533 59.1818 42.5368 59.2567 42.4365C59.3315 42.3361 59.4288 42.2546 59.5407 42.1985C59.6526 42.1423 59.7761 42.1131 59.9013 42.1131Z" fill="url(#paint2_linear_293_28533)"/>
  <path d="M42.4516 17.8024C41.6301 17.6026 40.7658 17.6764 39.99 18.0124V18.011L38.0938 18.5751C37.9771 18.6098 37.8539 18.6161 37.7343 18.5935C37.6147 18.5708 37.5023 18.5199 37.4064 18.4449C37.3106 18.3699 37.234 18.2731 37.1832 18.1625C37.1324 18.0519 37.1088 17.9307 37.1144 17.8091L37.6108 7H9.87164C9.37525 7 8.89919 7.1972 8.54819 7.5482C8.19719 7.8992 8 8.37526 8 8.87165V36.6108H18.6664C18.779 36.6108 18.8901 36.6357 18.9919 36.6837C19.0937 36.7318 19.1836 36.8017 19.2552 36.8886C19.3267 36.9755 19.3782 37.0771 19.4058 37.1862C19.4334 37.2953 19.4366 37.4092 19.415 37.5197L19.0589 39.3437L19.063 39.3436C18.8377 39.9348 18.7612 40.5724 18.8402 41.2001C18.9193 41.8278 19.1515 42.4265 19.5164 42.9434C19.8813 43.4602 20.3677 43.8795 20.9327 44.1641C21.4977 44.4488 22.1241 44.5901 22.7566 44.5757C23.3892 44.5613 24.0084 44.3916 24.5599 44.0816C25.1115 43.7715 25.5783 43.3306 25.9193 42.7977C26.2603 42.2647 26.465 41.6561 26.5154 41.0254C26.5658 40.3948 26.4604 39.7614 26.2085 39.181H26.2098L25.7368 37.591C25.703 37.4772 25.6962 37.357 25.7169 37.2401C25.7377 37.1232 25.7855 37.0127 25.8565 36.9175C25.9275 36.8223 26.0197 36.745 26.1259 36.6918C26.232 36.6385 26.3491 36.6108 26.4679 36.6108H36.2509L36.7662 25.3917C36.7712 25.2822 36.7998 25.1751 36.8499 25.0777C36.9001 24.9802 36.9706 24.8947 37.0568 24.827C37.143 24.7593 37.2427 24.7109 37.3493 24.6852C37.4558 24.6595 37.5667 24.6571 37.6742 24.6781L40.1527 25.162L40.1526 25.158C40.645 25.3457 41.1705 25.4307 41.6969 25.4077C42.2234 25.3847 42.7395 25.2541 43.2136 25.0241C43.6876 24.7941 44.1096 24.4694 44.4535 24.0702C44.7973 23.6709 45.0558 23.2055 45.213 22.7026C45.3702 22.1996 45.4228 21.6698 45.3675 21.1458C45.3122 20.6218 45.1502 20.1146 44.8915 19.6556C44.6328 19.1965 44.2829 18.7953 43.8633 18.4766C43.4437 18.1579 42.9632 17.9284 42.4516 17.8024Z" fill="url(#paint3_linear_293_28533)"/>
  <path opacity="0.5" d="M42.4516 17.8024C41.6301 17.6026 40.7658 17.6764 39.99 18.0124V18.011L38.0938 18.5751C37.9771 18.6098 37.8539 18.6161 37.7343 18.5935C37.6147 18.5708 37.5023 18.5199 37.4064 18.4449C37.3106 18.3699 37.234 18.2731 37.1832 18.1625C37.1324 18.0519 37.1088 17.9307 37.1144 17.8091L37.6108 7H9.87164C9.37525 7 8.89919 7.1972 8.54819 7.5482C8.19719 7.8992 8 8.37526 8 8.87165V36.6108H18.6664C18.779 36.6108 18.8901 36.6357 18.9919 36.6837C19.0937 36.7318 19.1836 36.8017 19.2552 36.8886C19.3267 36.9755 19.3782 37.0771 19.4058 37.1862C19.4334 37.2953 19.4366 37.4092 19.415 37.5197L19.0589 39.3437L19.063 39.3436C18.8377 39.9348 18.7612 40.5724 18.8402 41.2001C18.9193 41.8278 19.1515 42.4265 19.5164 42.9434C19.8813 43.4602 20.3677 43.8795 20.9327 44.1641C21.4977 44.4488 22.1241 44.5901 22.7566 44.5757C23.3892 44.5613 24.0084 44.3916 24.5599 44.0816C25.1115 43.7715 25.5783 43.3306 25.9193 42.7977C26.2603 42.2647 26.465 41.6561 26.5154 41.0254C26.5658 40.3948 26.4604 39.7614 26.2085 39.181H26.2098L25.7368 37.591C25.703 37.4772 25.6962 37.357 25.7169 37.2401C25.7377 37.1232 25.7855 37.0127 25.8565 36.9175C25.9275 36.8223 26.0197 36.745 26.1259 36.6918C26.232 36.6385 26.3491 36.6108 26.4679 36.6108H36.2509L36.7662 25.3917C36.7712 25.2822 36.7998 25.1751 36.8499 25.0777C36.9001 24.9802 36.9706 24.8947 37.0568 24.827C37.143 24.7593 37.2427 24.7109 37.3493 24.6852C37.4558 24.6595 37.5667 24.6571 37.6742 24.6781L40.1527 25.162L40.1526 25.158C40.645 25.3457 41.1705 25.4307 41.6969 25.4077C42.2234 25.3847 42.7395 25.2541 43.2136 25.0241C43.6876 24.7941 44.1096 24.4694 44.4535 24.0702C44.7973 23.6709 45.0558 23.2055 45.213 22.7026C45.3702 22.1996 45.4228 21.6698 45.3675 21.1458C45.3122 20.6218 45.1502 20.1146 44.8915 19.6556C44.6328 19.1965 44.2829 18.7953 43.8633 18.4766C43.4437 18.1579 42.9632 17.9284 42.4516 17.8024Z" fill="url(#paint4_linear_293_28533)"/>
  <defs>
    <linearGradient id="paint0_linear_293_28533" x1="40.5794" y1="72.5032" x2="71.5664" y2="41.5163" gradientUnits="userSpaceOnUse">
      <stop stop-color="#4EA1F5"/>
      <stop offset="0.61707" stop-color="#06C8D0"/>
      <stop offset="1" stop-color="#76EAB1"/>
    </linearGradient>
    <linearGradient id="paint1_linear_293_28533" x1="10.2896" y1="72.7114" x2="40.2716" y2="42.7295" gradientUnits="userSpaceOnUse">
      <stop stop-color="#4EA1F5"/>
      <stop offset="0.61707" stop-color="#06C8D0"/>
      <stop offset="1" stop-color="#76EAB1"/>
    </linearGradient>
    <linearGradient id="paint2_linear_293_28533" x1="40.3587" y1="42.8166" x2="71.6022" y2="11.573" gradientUnits="userSpaceOnUse">
      <stop stop-color="#4EA1F5"/>
      <stop offset="0.61707" stop-color="#06C8D0"/>
      <stop offset="1" stop-color="#76EAB1"/>
    </linearGradient>
    <linearGradient id="paint3_linear_293_28533" x1="7.93412" y1="36.5449" x2="37.5449" y2="6.93412" gradientUnits="userSpaceOnUse">
      <stop stop-color="#8E6FF2"/>
      <stop offset="0.2561" stop-color="#4EA1F5"/>
      <stop offset="0.52927" stop-color="#06C8D0"/>
      <stop offset="1" stop-color="#76EAB1"/>
    </linearGradient>
    <linearGradient id="paint4_linear_293_28533" x1="6.63329" y1="37.8457" x2="36.2441" y2="8.23496" gradientUnits="userSpaceOnUse">
      <stop offset="0.11951" stop-color="white" stop-opacity="0"/>
      <stop offset="0.26863" stop-color="white" stop-opacity="0.01"/>
      <stop offset="0.32235" stop-color="white" stop-opacity="0.03399"/>
      <stop offset="0.36063" stop-color="white" stop-opacity="0.08036"/>
      <stop offset="0.39161" stop-color="white" stop-opacity="0.14667"/>
      <stop offset="0.41813" stop-color="white" stop-opacity="0.23299"/>
      <stop offset="0.44162" stop-color="white" stop-opacity="0.33967"/>
      <stop offset="0.46288" stop-color="white" stop-opacity="0.46688"/>
      <stop offset="0.48241" stop-color="white" stop-opacity="0.61488"/>
      <stop offset="0.50059" stop-color="white" stop-opacity="0.78417"/>
      <stop offset="0.51671" stop-color="white" stop-opacity="0.96381"/>
      <stop offset="0.51966" stop-color="white"/>
      <stop offset="0.54871" stop-color="white" stop-opacity="0.90177"/>
      <stop offset="0.63447" stop-color="white" stop-opacity="0.63177"/>
      <stop offset="0.71567" stop-color="white" stop-opacity="0.40655"/>
      <stop offset="0.78992" stop-color="white" stop-opacity="0.23091"/>
      <stop offset="0.85588" stop-color="white" stop-opacity="0.10466"/>
      <stop offset="0.91108" stop-color="white" stop-opacity="0.02768"/>
      <stop offset="0.94878" stop-color="white" stop-opacity="0"/>
    </linearGradient>
  </defs>
</svg>