<svg xmlns="http://www.w3.org/2000/svg" width="80" height="80" viewBox="0 0 80 80" fill="none">
  <path d="M77.974 37.014L68.897 38.528L53.244 74.737L65.449 74.669L77.974 37.014Z" fill="url(#paint0_linear_293_28485)"/>
  <path d="M73.4693 80H46.8658C48.4804 74.9547 52.1963 71.6813 56.309 71.6813H64.026C68.1388 71.6813 71.8547 74.9547 73.4693 80Z" fill="url(#paint1_linear_293_28485)"/>
  <path d="M77.445 33.939L68.897 38.528L51.863 12.667L55.931 7.25702L77.445 33.939Z" fill="url(#paint2_linear_293_28485)"/>
  <path d="M73.2102 43.2112C76.9593 43.2112 79.9985 40.172 79.9985 36.423C79.9985 32.6739 76.9593 29.6347 73.2102 29.6347C69.4612 29.6347 66.422 32.6739 66.422 36.423C66.422 40.172 69.4612 43.2112 73.2102 43.2112Z" fill="url(#paint3_linear_293_28485)"/>
  <path d="M73.2102 40.6573C75.5488 40.6573 77.4446 38.7615 77.4446 36.4229C77.4446 34.0843 75.5488 32.1885 73.2102 32.1885C70.8717 32.1885 68.9759 34.0843 68.9759 36.4229C68.9759 38.7615 70.8717 40.6573 73.2102 40.6573Z" fill="url(#paint4_linear_293_28485)"/>
  <path d="M27.3098 79.1833C32.458 79.1833 37.4905 77.6567 41.7711 74.7965C46.0516 71.9364 49.3879 67.8711 51.358 63.1148C53.3281 58.3585 53.8436 53.1248 52.8393 48.0756C51.8349 43.0263 49.3558 38.3883 45.7155 34.748C42.0752 31.1077 37.4372 28.6286 32.3879 27.6242C27.3387 26.6199 22.105 27.1354 17.3487 29.1055C12.5924 31.0756 8.52716 34.4119 5.66699 38.6924C2.80682 42.973 1.28021 48.0055 1.28021 53.1537C1.28025 60.0572 4.02266 66.6779 8.90415 71.5594C13.7856 76.4408 20.4063 79.1833 27.3098 79.1833Z" fill="url(#paint5_linear_293_28485)" stroke="url(#paint6_linear_293_28485)" stroke-width="0.54856" stroke-miterlimit="10"/>
  <path d="M27.3098 73.3593C31.3061 73.3593 35.2126 72.1742 38.5354 69.954C41.8582 67.7338 44.448 64.5781 45.9773 60.886C47.5066 57.1939 47.9068 53.1313 47.1271 49.2118C46.3475 45.2923 44.4231 41.692 41.5973 38.8662C38.7715 36.0404 35.1712 34.116 31.2517 33.3364C27.3322 32.5567 23.2696 32.9569 19.5775 34.4862C15.8854 36.0155 12.7297 38.6053 10.5095 41.9281C8.28928 45.2509 7.10425 49.1574 7.10425 53.1537C7.10428 58.5125 9.23309 63.6519 13.0224 67.4412C16.8116 71.2304 21.951 73.3592 27.3098 73.3593Z" fill="url(#paint7_linear_293_28485)" stroke="url(#paint8_linear_293_28485)" stroke-width="0.54856" stroke-miterlimit="10"/>
  <path d="M27.3098 79.1833C32.458 79.1833 37.4905 77.6567 41.7711 74.7965C46.0516 71.9364 49.3879 67.8711 51.358 63.1148C53.3281 58.3585 53.8436 53.1248 52.8393 48.0756C51.8349 43.0263 49.3558 38.3883 45.7155 34.748C42.0752 31.1077 37.4372 28.6286 32.3879 27.6242C27.3387 26.6199 22.105 27.1354 17.3487 29.1055C12.5924 31.0756 8.52716 34.4119 5.66699 38.6924C2.80682 42.973 1.28021 48.0055 1.28021 53.1537C1.28025 60.0572 4.02266 66.6779 8.90415 71.5594C13.7856 76.4408 20.4063 79.1833 27.3098 79.1833Z" fill="url(#paint9_linear_293_28485)" stroke="url(#paint10_linear_293_28485)" stroke-miterlimit="10"/>
  <path d="M27.3098 73.3593C31.3061 73.3593 35.2126 72.1742 38.5354 69.954C41.8582 67.7338 44.448 64.5781 45.9773 60.886C47.5066 57.1939 47.9068 53.1313 47.1271 49.2118C46.3475 45.2923 44.4231 41.692 41.5973 38.8662C38.7715 36.0404 35.1712 34.116 31.2517 33.3364C27.3322 32.5567 23.2696 32.9569 19.5775 34.4862C15.8854 36.0155 12.7297 38.6053 10.5095 41.9281C8.28928 45.2509 7.10425 49.1574 7.10425 53.1537C7.10428 58.5125 9.23309 63.6519 13.0224 67.4412C16.8116 71.2304 21.951 73.3592 27.3098 73.3593Z" fill="url(#paint11_linear_293_28485)" stroke="url(#paint12_linear_293_28485)" stroke-miterlimit="10"/>
  <path d="M27.3098 79.1833C32.458 79.1833 37.4905 77.6567 41.7711 74.7965C46.0516 71.9364 49.3879 67.8711 51.358 63.1148C53.3281 58.3585 53.8436 53.1248 52.8393 48.0756C51.8349 43.0263 49.3558 38.3883 45.7155 34.748C42.0752 31.1077 37.4372 28.6286 32.3879 27.6242C27.3387 26.6199 22.105 27.1354 17.3487 29.1055C12.5924 31.0756 8.52716 34.4119 5.66699 38.6924C2.80682 42.973 1.28021 48.0055 1.28021 53.1537C1.28025 60.0572 4.02266 66.6779 8.90415 71.5594C13.7856 76.4408 20.4063 79.1833 27.3098 79.1833Z" stroke="url(#paint13_linear_293_28485)" stroke-linecap="round" stroke-linejoin="round"/>
  <path d="M8.94536 44.7269C7.27869 48.3591 6.72651 52.4039 7.35864 56.3498C7.99078 60.2958 9.77883 63.9657 12.4967 66.8955C15.2146 69.8252 18.7402 71.8833 22.6277 72.8093C26.5152 73.7354 30.59 73.4878 34.3368 72.098C38.0837 70.7082 41.3342 68.2385 43.6775 65.0013C46.0207 61.7641 47.3514 57.9048 47.5012 53.9113C47.651 49.9178 46.6133 45.9696 44.5192 42.5659C42.4251 39.1622 39.3688 36.4559 35.7366 34.7892C30.8661 32.5543 25.3072 32.3458 20.2829 34.2095C15.2585 36.0731 11.1803 39.8564 8.94536 44.7269Z" stroke="url(#paint14_linear_293_28485)" stroke-linecap="round" stroke-linejoin="round"/>
  <path opacity="0.5" d="M52.4838 36.1426C54.5798 24.1995 46.6093 12.8206 34.6812 10.7273C22.753 8.63392 11.3842 16.6188 9.28824 28.5619C7.19224 40.5051 15.1628 51.8839 27.0909 53.9773C39.019 56.0706 50.3878 48.0858 52.4838 36.1426Z" fill="url(#paint15_radial_293_28485)"/>
  <path opacity="0.44" d="M18.572 12.2642C18.5886 12.2915 18.6119 12.314 18.6398 12.3297C18.6676 12.3454 18.699 12.3537 18.7309 12.3538C18.7651 12.3538 18.7986 12.3443 18.8276 12.3263C18.8697 12.3006 18.8999 12.2593 18.9116 12.2113C18.9232 12.1634 18.9154 12.1128 18.8898 12.0707L15.1128 5.85446C15.0871 5.81232 15.0457 5.78211 14.9978 5.77046C14.9499 5.75881 14.8993 5.76668 14.8571 5.79234C14.815 5.818 14.7848 5.85935 14.7731 5.90729C14.7615 5.95523 14.7694 6.00583 14.795 6.04797L18.572 12.2642ZM42.4131 50.5941C42.387 50.5526 42.3456 50.5228 42.2979 50.5112C42.2502 50.4996 42.1998 50.5071 42.1575 50.532C42.1154 50.5577 42.0852 50.599 42.0736 50.647C42.0619 50.6949 42.0698 50.7455 42.0954 50.7876L45.8736 57.0044C45.8902 57.0317 45.9135 57.0543 45.9414 57.07C45.9692 57.0856 46.0005 57.0939 46.0325 57.094C46.0667 57.0941 46.1002 57.0846 46.1292 57.0665C46.1713 57.0409 46.2015 56.9995 46.2132 56.9516C46.2248 56.9037 46.217 56.8531 46.1913 56.8109L42.4131 50.5941ZM17.7633 44.3409L16.2391 45.7797C16.1439 45.8693 16.0882 45.9931 16.0843 46.1238C16.0804 46.2545 16.1285 46.3815 16.2182 46.4767C16.3078 46.5719 16.4316 46.6275 16.5624 46.6315C16.6931 46.6354 16.82 46.5872 16.9152 46.4976L18.4394 45.0588C18.5346 44.9691 18.5903 44.8453 18.5942 44.7146C18.5981 44.5839 18.5499 44.457 18.4603 44.3618C18.3706 44.2666 18.2468 44.2109 18.1161 44.207C17.9854 44.203 17.8585 44.2512 17.7633 44.3409ZM48.3677 27.278L46.392 27.9756C46.2823 28.0143 46.1898 28.0906 46.1308 28.1909C46.0719 28.2912 46.0503 28.4091 46.0699 28.5238C46.0895 28.6385 46.149 28.7426 46.2379 28.8177C46.3267 28.8928 46.4393 28.9341 46.5557 28.9342C46.6114 28.9343 46.6668 28.9248 46.7193 28.9061L48.695 28.2085C48.8184 28.1651 48.9195 28.0745 48.9761 27.9565C49.0327 27.8386 49.0401 27.703 48.9967 27.5796C48.9533 27.4562 48.8626 27.3551 48.7447 27.2985C48.6267 27.242 48.4911 27.2346 48.3677 27.278ZM16.2976 23.578C16.2413 23.5456 16.1791 23.5247 16.1147 23.5165C16.0503 23.5082 15.9848 23.5128 15.9222 23.5299C15.8595 23.547 15.8008 23.5763 15.7495 23.6161C15.6982 23.656 15.6553 23.7055 15.6232 23.762C15.5911 23.8185 15.5705 23.8808 15.5625 23.9452C15.5545 24.0097 15.5594 24.0751 15.5768 24.1377C15.5941 24.2003 15.6237 24.2588 15.6638 24.31C15.7039 24.3611 15.7536 24.4038 15.8103 24.4356L17.6319 25.4725C17.6882 25.5046 17.7503 25.5253 17.8146 25.5334C17.879 25.5415 17.9443 25.5369 18.0068 25.5197C18.0693 25.5026 18.1279 25.4732 18.1791 25.4334C18.2303 25.3936 18.2731 25.3441 18.3051 25.2877C18.3372 25.2314 18.3578 25.1692 18.3658 25.1049C18.3738 25.0405 18.369 24.9752 18.3517 24.9127C18.3345 24.8502 18.305 24.7917 18.2652 24.7406C18.2253 24.6895 18.1757 24.6468 18.1192 24.6148L16.2976 23.578ZM26.4223 58.1888C26.3584 58.1774 26.2929 58.1787 26.2295 58.1927C26.1662 58.2068 26.1062 58.2332 26.0531 58.2705C26.0001 58.3078 25.9549 58.3553 25.9202 58.4101C25.8856 58.465 25.8621 58.5262 25.8513 58.5901L25.6936 59.4908C25.6712 59.6197 25.7009 59.7523 25.7761 59.8593C25.8514 59.9664 25.966 60.0392 26.0949 60.0618C26.123 60.0665 26.1513 60.0689 26.1798 60.069C26.2959 60.0689 26.4083 60.0279 26.4972 59.9532C26.5861 59.8785 26.6459 59.7748 26.6659 59.6604L26.8236 58.7598C26.846 58.6309 26.8163 58.4983 26.7411 58.3913C26.6658 58.2842 26.5512 58.2114 26.4223 58.1888ZM33.6968 9.99522C33.7252 10.0004 33.754 10.003 33.7828 10.003C33.8988 10.0028 34.011 9.96181 34.0999 9.88724C34.1888 9.81268 34.2486 9.70926 34.269 9.59506L34.4278 8.6944C34.4502 8.56564 34.4207 8.43325 34.3457 8.32623C34.2707 8.2192 34.1563 8.14627 34.0277 8.1234C33.9637 8.11076 33.8978 8.11117 33.834 8.12462C33.7702 8.13806 33.7098 8.16425 33.6564 8.20162C33.6029 8.23899 33.5576 8.28677 33.5231 8.34209C33.4886 8.39741 33.4656 8.45914 33.4555 8.52356L33.2966 9.42422C33.2742 9.55297 33.3038 9.68536 33.3788 9.79239C33.4538 9.89941 33.5681 9.97235 33.6968 9.99522ZM60.5601 41.3152L59.6869 41.0459C59.625 41.0266 59.5599 41.0197 59.4953 41.0257C59.4307 41.0316 59.368 41.0502 59.3106 41.0804C59.2532 41.1106 59.2024 41.1519 59.1609 41.2017C59.1195 41.2516 59.0883 41.3092 59.0692 41.3711C59.05 41.4331 59.0433 41.4982 59.0493 41.5627C59.0553 41.6273 59.074 41.69 59.1043 41.7474C59.1346 41.8047 59.1759 41.8555 59.2259 41.8968C59.2758 41.9382 59.3334 41.9693 59.3954 41.9883L60.2686 42.2577C60.3306 42.2769 60.3957 42.2837 60.4603 42.2777C60.5249 42.2717 60.5877 42.253 60.645 42.2227C60.7024 42.1924 60.7532 42.1511 60.7946 42.1011C60.836 42.0512 60.8671 41.9936 60.8862 41.9316C60.9246 41.8066 60.9119 41.6715 60.8507 41.5559C60.7896 41.4403 60.685 41.3537 60.5601 41.3152ZM1.52039 22.8983L0.657946 22.5931C0.534654 22.5498 0.399223 22.5571 0.281347 22.6135C0.163472 22.6699 0.0727713 22.7708 0.0291319 22.894C-0.0145075 23.0171 -0.0075243 23.1526 0.0485504 23.2706C0.104625 23.3886 0.205215 23.4796 0.328266 23.5236L1.1907 23.8288C1.31406 23.8724 1.44967 23.8652 1.56774 23.8088C1.6858 23.7525 1.77667 23.6515 1.82036 23.5282C1.86405 23.4049 1.857 23.2693 1.80075 23.1512C1.7445 23.033 1.64366 22.9421 1.52039 22.8983Z" fill="url(#paint16_radial_293_28485)"/>
  <path style="mix-blend-mode:overlay" d="M41.2485 42.3902C41.293 42.4373 41.3277 42.4927 41.3508 42.5532C41.3739 42.6137 41.3848 42.6781 41.383 42.7428C41.3812 42.8075 41.3666 42.8713 41.3401 42.9304C41.3137 42.9895 41.2758 43.0428 41.2288 43.0872C41.1817 43.1317 41.1264 43.1665 41.0659 43.1896C41.0054 43.2126 40.9409 43.2236 40.8762 43.2217C40.8115 43.2199 40.7477 43.2053 40.6886 43.1789C40.6296 43.1524 40.5762 43.1146 40.5318 43.0675L32.8144 34.8936L41.049 48.444C41.0746 48.4861 41.0825 48.5367 41.0709 48.5847C41.0592 48.6326 41.029 48.6739 40.9869 48.6996C40.9579 48.7176 40.9243 48.7271 40.8901 48.7271C40.8582 48.727 40.8268 48.7187 40.799 48.703C40.7712 48.6873 40.7479 48.6648 40.7313 48.6375L38.3115 44.6558L31.5927 33.5996L31.4377 33.4357L31.057 46.6767C31.0531 46.805 30.9995 46.9268 30.9074 47.0162C30.8153 47.1056 30.692 47.1556 30.5636 47.1557H30.5493C30.4185 47.1516 30.2947 47.0959 30.2049 47.0008C30.1152 46.9056 30.0667 46.7788 30.0703 46.648L30.3934 35.4135L27.7398 46.2896C27.7341 46.3135 27.7238 46.336 27.7094 46.3558C27.6951 46.3756 27.6769 46.3924 27.656 46.4052C27.6351 46.4179 27.6119 46.4265 27.5877 46.4302C27.5634 46.434 27.5387 46.4329 27.5149 46.4271C27.4911 46.4213 27.4687 46.4108 27.449 46.3962C27.4293 46.3817 27.4126 46.3634 27.4 46.3424C27.3874 46.3215 27.379 46.2982 27.3754 46.2739C27.3718 46.2497 27.3731 46.225 27.3791 46.2013L30.4445 33.6371L30.451 33.408L20.82 42.5013C20.7729 42.5461 20.7175 42.5811 20.6568 42.6044C20.5962 42.6277 20.5315 42.6388 20.4666 42.637C20.4016 42.6353 20.3377 42.6207 20.2784 42.5942C20.219 42.5676 20.1656 42.5297 20.121 42.4824C20.0764 42.4351 20.0416 42.3795 20.0185 42.3188C19.9955 42.258 19.9847 42.1933 19.9867 42.1284C19.9887 42.0635 20.0035 41.9996 20.0303 41.9404C20.0571 41.8812 20.0953 41.8278 20.1427 41.7834L28.3158 34.0671L14.7663 42.3013C14.7372 42.3193 14.7037 42.3288 14.6695 42.3287C14.6289 42.3287 14.5895 42.3153 14.5572 42.2908C14.5249 42.2662 14.5014 42.2318 14.4905 42.1927C14.4795 42.1537 14.4817 42.1121 14.4965 42.0743C14.5113 42.0366 14.5381 42.0047 14.5727 41.9835L18.554 39.5641L29.6101 32.8453L29.774 32.6904L17.7991 32.3462C17.6684 32.3422 17.5445 32.2865 17.4548 32.1913C17.365 32.0962 17.3166 31.9693 17.3201 31.8386C17.3337 31.7113 17.3923 31.5931 17.4854 31.5052C17.5785 31.4174 17.6999 31.3657 17.8278 31.3596L27.7941 31.646L16.92 28.9927C16.8722 28.9808 16.831 28.9504 16.8056 28.9083C16.7801 28.8661 16.7723 28.8155 16.784 28.7677C16.7957 28.7198 16.8259 28.6785 16.8679 28.6529C16.91 28.6272 16.9605 28.6192 17.0084 28.6307L29.5758 31.6972L29.8028 31.7037L20.709 22.0723C20.6646 22.0252 20.6298 21.9699 20.6067 21.9094C20.5836 21.8489 20.5727 21.7844 20.5745 21.7197C20.5764 21.655 20.5909 21.5912 20.6174 21.5322C20.6439 21.4731 20.6817 21.4198 20.7288 21.3753C20.7758 21.3308 20.8312 21.296 20.8917 21.273C20.9522 21.2499 21.0166 21.239 21.0813 21.2408C21.1461 21.2426 21.2098 21.2572 21.2689 21.2836C21.328 21.3101 21.3813 21.3479 21.4257 21.395L29.143 29.5689L20.9084 16.0185C20.8828 15.9764 20.8749 15.9258 20.8865 15.8778C20.8982 15.8299 20.9284 15.7886 20.9705 15.7629C21.0127 15.7372 21.0633 15.7294 21.1112 15.741C21.1591 15.7527 21.2005 15.7829 21.2262 15.825L23.6456 19.8066L30.3647 30.8629L30.5197 31.0268L30.9005 17.7858C30.9142 17.6586 30.9729 17.5405 31.066 17.4527C31.159 17.3649 31.2804 17.3132 31.4082 17.3068C31.5389 17.3109 31.6627 17.3666 31.7525 17.4617C31.8423 17.5569 31.8907 17.6837 31.8872 17.8145L31.564 29.049L34.2176 18.1728C34.223 18.1489 34.2331 18.1263 34.2474 18.1064C34.2618 18.0864 34.2799 18.0696 34.3009 18.0568C34.3218 18.0441 34.3451 18.0356 34.3694 18.0321C34.3937 18.0285 34.4184 18.0299 34.4422 18.0361C34.4901 18.0479 34.5313 18.0783 34.5569 18.1205C34.5824 18.1627 34.5901 18.2133 34.5784 18.2612L31.513 30.8254L31.5064 31.0551L41.1386 21.9612C41.2338 21.8716 41.3607 21.8234 41.4914 21.8273C41.6221 21.8312 41.7459 21.8869 41.8356 21.9821C41.9252 22.0773 41.9734 22.2042 41.9695 22.335C41.9656 22.4657 41.9099 22.5895 41.8147 22.6791L33.6428 30.3947L47.1912 22.1613C47.2333 22.1356 47.2839 22.1278 47.3318 22.1394C47.3798 22.1511 47.4211 22.1813 47.4468 22.2234C47.4724 22.2656 47.4803 22.3162 47.4687 22.3641C47.457 22.412 47.4268 22.4534 47.3847 22.479L43.4034 24.8984L32.3488 31.6162L32.184 31.7721L44.1583 32.1163C44.2879 32.12 44.4109 32.1745 44.5006 32.2682C44.5903 32.3618 44.6395 32.487 44.6376 32.6167C44.6357 32.7463 44.5829 32.8701 44.4905 32.9611C44.3981 33.052 44.2736 33.103 44.144 33.1029H44.1296L34.1633 32.8165L45.0375 35.4699C45.0613 35.4756 45.0838 35.486 45.1036 35.5004C45.1235 35.5148 45.1403 35.533 45.153 35.554C45.1658 35.5749 45.1743 35.5982 45.1781 35.6224C45.1819 35.6466 45.1808 35.6714 45.175 35.6952C45.1692 35.719 45.1587 35.7415 45.1442 35.7613C45.1297 35.781 45.1114 35.7978 45.0904 35.8104C45.0694 35.8231 45.0461 35.8316 45.0219 35.8352C44.9976 35.8389 44.9729 35.8377 44.9491 35.8318L32.3817 32.7654L32.1547 32.7588L41.2485 42.3902ZM18.572 12.2642C18.5886 12.2915 18.6119 12.314 18.6398 12.3297C18.6676 12.3454 18.699 12.3537 18.7309 12.3538C18.7651 12.3538 18.7986 12.3443 18.8276 12.3263C18.8697 12.3006 18.8999 12.2593 18.9116 12.2113C18.9232 12.1634 18.9154 12.1128 18.8898 12.0707L15.1128 5.85446C15.0871 5.81232 15.0457 5.78211 14.9978 5.77046C14.9499 5.75881 14.8993 5.76668 14.8571 5.79234C14.815 5.818 14.7848 5.85935 14.7731 5.90729C14.7615 5.95523 14.7694 6.00583 14.795 6.04797L18.572 12.2642ZM42.4131 50.5941C42.387 50.5526 42.3456 50.5228 42.2979 50.5112C42.2502 50.4996 42.1998 50.5071 42.1575 50.532C42.1154 50.5577 42.0852 50.599 42.0736 50.647C42.0619 50.6949 42.0698 50.7455 42.0954 50.7876L45.8736 57.0044C45.8902 57.0317 45.9135 57.0543 45.9414 57.07C45.9692 57.0856 46.0005 57.0939 46.0325 57.094C46.0667 57.0941 46.1002 57.0846 46.1292 57.0665C46.1713 57.0409 46.2015 56.9995 46.2132 56.9516C46.2248 56.9037 46.217 56.8531 46.1913 56.8109L42.4131 50.5941ZM17.7633 44.3409L16.2391 45.7797C16.1439 45.8693 16.0882 45.9931 16.0843 46.1238C16.0804 46.2545 16.1285 46.3815 16.2182 46.4767C16.3078 46.5719 16.4316 46.6275 16.5624 46.6315C16.6931 46.6354 16.82 46.5872 16.9152 46.4976L18.4394 45.0588C18.5346 44.9691 18.5903 44.8453 18.5942 44.7146C18.5981 44.5839 18.5499 44.457 18.4603 44.3618C18.3706 44.2666 18.2468 44.2109 18.1161 44.207C17.9854 44.203 17.8585 44.2512 17.7633 44.3409ZM48.3677 27.278L46.392 27.9756C46.2823 28.0143 46.1898 28.0906 46.1308 28.1909C46.0719 28.2912 46.0503 28.4091 46.0699 28.5238C46.0895 28.6385 46.149 28.7426 46.2379 28.8177C46.3267 28.8928 46.4393 28.9341 46.5557 28.9342C46.6114 28.9343 46.6668 28.9248 46.7193 28.9061L48.695 28.2085C48.8184 28.1651 48.9195 28.0745 48.9761 27.9565C49.0327 27.8386 49.0401 27.703 48.9967 27.5796C48.9533 27.4562 48.8626 27.3551 48.7447 27.2985C48.6267 27.242 48.4911 27.2346 48.3677 27.278ZM16.2976 23.578C16.2413 23.5456 16.1791 23.5247 16.1147 23.5165C16.0503 23.5082 15.9848 23.5128 15.9222 23.5299C15.8595 23.547 15.8008 23.5763 15.7495 23.6161C15.6982 23.656 15.6553 23.7055 15.6232 23.762C15.5911 23.8185 15.5705 23.8808 15.5625 23.9452C15.5545 24.0097 15.5594 24.0751 15.5768 24.1377C15.5941 24.2003 15.6237 24.2588 15.6638 24.31C15.7039 24.3611 15.7536 24.4038 15.8103 24.4356L17.6319 25.4725C17.6882 25.5046 17.7503 25.5253 17.8146 25.5334C17.879 25.5415 17.9443 25.5369 18.0068 25.5197C18.0693 25.5026 18.1279 25.4732 18.1791 25.4334C18.2303 25.3936 18.2731 25.3441 18.3051 25.2877C18.3372 25.2314 18.3578 25.1692 18.3658 25.1049C18.3738 25.0405 18.369 24.9752 18.3517 24.9127C18.3345 24.8502 18.305 24.7917 18.2652 24.7406C18.2253 24.6895 18.1757 24.6468 18.1192 24.6148L16.2976 23.578ZM26.4223 58.1888C26.3584 58.1774 26.2929 58.1787 26.2295 58.1927C26.1662 58.2068 26.1062 58.2332 26.0531 58.2705C26.0001 58.3078 25.9549 58.3553 25.9202 58.4101C25.8856 58.465 25.8621 58.5262 25.8513 58.5901L25.6936 59.4908C25.6712 59.6197 25.7009 59.7523 25.7761 59.8593C25.8514 59.9664 25.966 60.0392 26.0949 60.0618C26.123 60.0665 26.1513 60.0689 26.1798 60.069C26.2959 60.0689 26.4083 60.0279 26.4972 59.9532C26.5861 59.8785 26.6459 59.7748 26.6659 59.6604L26.8236 58.7598C26.846 58.6309 26.8163 58.4983 26.7411 58.3913C26.6658 58.2842 26.5512 58.2114 26.4223 58.1888ZM33.6968 9.99522C33.7252 10.0004 33.754 10.003 33.7828 10.003C33.8988 10.0028 34.011 9.96181 34.0999 9.88724C34.1888 9.81268 34.2486 9.70926 34.269 9.59506L34.4278 8.6944C34.4502 8.56564 34.4207 8.43325 34.3457 8.32623C34.2707 8.2192 34.1563 8.14627 34.0277 8.1234C33.9637 8.11076 33.8978 8.11117 33.834 8.12462C33.7702 8.13806 33.7098 8.16425 33.6564 8.20162C33.6029 8.23899 33.5576 8.28677 33.5231 8.34209C33.4886 8.39741 33.4656 8.45914 33.4555 8.52356L33.2966 9.42422C33.2742 9.55297 33.3038 9.68536 33.3788 9.79239C33.4538 9.89941 33.5681 9.97235 33.6968 9.99522ZM60.5601 41.3152L59.6869 41.0459C59.625 41.0266 59.5599 41.0197 59.4953 41.0257C59.4307 41.0316 59.368 41.0502 59.3106 41.0804C59.2532 41.1106 59.2024 41.1519 59.1609 41.2017C59.1195 41.2516 59.0883 41.3092 59.0692 41.3711C59.05 41.4331 59.0433 41.4982 59.0493 41.5627C59.0553 41.6273 59.074 41.69 59.1043 41.7474C59.1346 41.8047 59.1759 41.8555 59.2259 41.8968C59.2758 41.9382 59.3334 41.9693 59.3954 41.9883L60.2686 42.2577C60.3306 42.2769 60.3957 42.2837 60.4603 42.2777C60.5249 42.2717 60.5877 42.253 60.645 42.2227C60.7024 42.1924 60.7532 42.1511 60.7946 42.1011C60.836 42.0512 60.8671 41.9936 60.8862 41.9316C60.9246 41.8066 60.9119 41.6715 60.8507 41.5559C60.7896 41.4403 60.685 41.3537 60.5601 41.3152ZM1.52039 22.8983L0.657946 22.5931C0.534654 22.5498 0.399223 22.5571 0.281347 22.6135C0.163472 22.6699 0.0727713 22.7708 0.0291319 22.894C-0.0145075 23.0171 -0.0075243 23.1526 0.0485504 23.2706C0.104625 23.3886 0.205215 23.4796 0.328266 23.5236L1.1907 23.8288C1.31406 23.8724 1.44967 23.8652 1.56774 23.8088C1.6858 23.7525 1.77667 23.6515 1.82036 23.5282C1.86405 23.4049 1.857 23.2693 1.80075 23.1512C1.7445 23.033 1.64366 22.9421 1.52039 22.8983Z" fill="url(#paint17_radial_293_28485)"/>
  <path d="M37.182 23.022L33.292 26.962L30.886 32.352" stroke="url(#paint18_linear_293_28485)" stroke-width="1.5" stroke-linecap="round" stroke-linejoin="round"/>
  <path d="M40.3667 17.6602L35.1197 22.9753C34.8692 23.2291 34.8718 23.6379 35.1256 23.8885L36.2402 24.9888C36.494 25.2394 36.9029 25.2367 37.1535 24.9829L42.4004 19.6679C42.6509 19.4141 42.6483 19.0052 42.3945 18.7547L41.2799 17.6543C41.0261 17.4038 40.6172 17.4064 40.3667 17.6602Z" fill="url(#paint19_linear_293_28485)"/>
  <path d="M41.9486 15.4369L36.7017 20.7519C36.4512 21.0057 36.4538 21.4146 36.7076 21.6651L38.443 23.3783C38.6968 23.6288 39.1057 23.6262 39.3562 23.3724L44.6031 18.0574C44.8537 17.8035 44.851 17.3947 44.5972 17.1441L42.8618 15.431C42.608 15.1804 42.1992 15.1831 41.9486 15.4369Z" fill="url(#paint20_linear_293_28485)"/>
  <path d="M54.5862 13.358C49.8692 15.9977 48.6591 16.8487 45.222 21.0206C45.0238 21.2029 44.7881 21.3395 44.5314 21.4209C44.2747 21.5023 44.0033 21.5265 43.7363 21.4918C43.4692 21.4571 43.213 21.3643 42.9857 21.22C42.7583 21.0757 42.5654 20.8833 42.4203 20.6565L39.9558 17.7062C39.6379 17.3813 39.4396 16.9581 39.3932 16.5059C39.3467 16.0537 39.455 15.5991 39.7001 15.2164C43.3411 10.7514 44.8157 9.67954 49.8574 6.89128C50.2777 6.71813 50.7443 6.69256 51.181 6.81873C51.6177 6.94491 51.9988 7.21538 52.262 7.58601L54.7265 10.5362C54.924 10.7193 55.0789 10.9435 55.1804 11.1929C55.282 11.4423 55.3277 11.7109 55.3143 11.9798C55.3009 12.2488 55.2288 12.5115 55.103 12.7496C54.9773 12.9877 54.8008 13.1954 54.5862 13.358Z" fill="url(#paint21_linear_293_28485)"/>
  <path d="M53.1438 15.3155C56.0778 15.3155 58.4563 12.937 58.4563 10.003C58.4563 7.06899 56.0778 4.69049 53.1438 4.69049C50.2098 4.69049 47.8313 7.06899 47.8313 10.003C47.8313 12.937 50.2098 15.3155 53.1438 15.3155Z" fill="url(#paint22_linear_293_28485)"/>
  <path d="M53.1438 13.7595C55.2185 13.7595 56.9003 12.0776 56.9003 10.003C56.9003 7.92831 55.2185 6.24646 53.1438 6.24646C51.0691 6.24646 49.3873 7.92831 49.3873 10.003C49.3873 12.0776 51.0691 13.7595 53.1438 13.7595Z" fill="url(#paint23_linear_293_28485)"/>
  <defs>
    <linearGradient id="paint0_linear_293_28485" x1="42.2452" y1="86.3058" x2="90.3353" y2="28.994" gradientUnits="userSpaceOnUse">
      <stop offset="0.18391" stop-color="#ADB8CC"/>
      <stop offset="0.20291" stop-color="#B2BCCF"/>
      <stop offset="0.38929" stop-color="#DCE0E9"/>
      <stop offset="0.53568" stop-color="#F5F7F9"/>
      <stop offset="0.6231" stop-color="white"/>
    </linearGradient>
    <linearGradient id="paint1_linear_293_28485" x1="60.1676" y1="80" x2="60.1676" y2="71.6813" gradientUnits="userSpaceOnUse">
      <stop stop-color="#1B2B40"/>
      <stop offset="0.23305" stop-color="#283B53"/>
      <stop offset="0.70535" stop-color="#486386"/>
      <stop offset="1" stop-color="#5E7FA8"/>
    </linearGradient>
    <linearGradient id="paint2_linear_293_28485" x1="54.8455" y1="34.7115" x2="69.0021" y2="17.8403" gradientUnits="userSpaceOnUse">
      <stop offset="0.18391" stop-color="#ADB8CC"/>
      <stop offset="0.21426" stop-color="#B2BCCF"/>
      <stop offset="0.51207" stop-color="#DCE0E9"/>
      <stop offset="0.74597" stop-color="#F5F7F9"/>
      <stop offset="0.88564" stop-color="white"/>
    </linearGradient>
    <linearGradient id="paint3_linear_293_28485" x1="66.7912" y1="34.2146" x2="79.6292" y2="38.6313" gradientUnits="userSpaceOnUse">
      <stop stop-color="#89929E"/>
      <stop offset="0.47564" stop-color="#A6B5BF"/>
      <stop offset="0.62504" stop-color="#B0C1CB"/>
      <stop offset="0.64286" stop-color="#ACBBC6"/>
      <stop offset="0.69943" stop-color="#A3B0BC"/>
      <stop offset="0.77895" stop-color="#9DA9B7"/>
      <stop offset="1" stop-color="#9CA7B5"/>
    </linearGradient>
    <linearGradient id="paint4_linear_293_28485" x1="69.2062" y1="35.0454" x2="77.2143" y2="37.8004" gradientUnits="userSpaceOnUse">
      <stop stop-color="#1B2B40"/>
      <stop offset="0.22519" stop-color="#1D2D43"/>
      <stop offset="0.39543" stop-color="#23354D"/>
      <stop offset="0.54715" stop-color="#2D425D"/>
      <stop offset="0.68537" stop-color="#3B5473"/>
      <stop offset="0.74341" stop-color="#354C6A"/>
      <stop offset="0.83994" stop-color="#253850"/>
      <stop offset="0.89024" stop-color="#1B2B40"/>
    </linearGradient>
    <linearGradient id="paint5_linear_293_28485" x1="11.8062" y1="68.6572" x2="48.6176" y2="31.8458" gradientUnits="userSpaceOnUse">
      <stop stop-color="#ABABAB"/>
      <stop offset="0.08494" stop-color="#C5C5C5"/>
      <stop offset="0.21028" stop-color="#F2F2F2"/>
      <stop offset="0.21896" stop-color="#EDEEEE"/>
      <stop offset="0.23724" stop-color="#E6E8E9"/>
      <stop offset="0.25582" stop-color="#E1E4E6"/>
      <stop offset="0.32656" stop-color="#D6D9DD"/>
      <stop offset="0.42599" stop-color="#CFD3D7"/>
      <stop offset="0.70234" stop-color="#CDD1D6"/>
      <stop offset="0.75372" stop-color="#BFC5C7"/>
      <stop offset="0.91615" stop-color="#97A39C"/>
      <stop offset="0.9991" stop-color="#87968C"/>
    </linearGradient>
    <linearGradient id="paint6_linear_293_28485" x1="8.71002" y1="71.7534" x2="45.9094" y2="34.554" gradientUnits="userSpaceOnUse">
      <stop stop-color="#9DABB0"/>
      <stop offset="0.15535" stop-color="#FFEBF1"/>
      <stop offset="0.31329" stop-color="#97B0BD"/>
      <stop offset="0.70528" stop-color="#FFEDFC"/>
      <stop offset="1" stop-color="#80A6A2"/>
    </linearGradient>
    <linearGradient id="paint7_linear_293_28485" x1="13.9577" y1="66.5057" x2="40.3386" y2="40.1248" gradientUnits="userSpaceOnUse">
      <stop stop-color="#ABABAB"/>
      <stop offset="0.08494" stop-color="#C5C5C5"/>
      <stop offset="0.21028" stop-color="#F2F2F2"/>
      <stop offset="0.21896" stop-color="#EDEEEE"/>
      <stop offset="0.23724" stop-color="#E6E8E9"/>
      <stop offset="0.25582" stop-color="#E1E4E6"/>
      <stop offset="0.32656" stop-color="#D6D9DD"/>
      <stop offset="0.42599" stop-color="#CFD3D7"/>
      <stop offset="0.70234" stop-color="#CDD1D6"/>
      <stop offset="0.75372" stop-color="#BFC5C7"/>
      <stop offset="0.91615" stop-color="#97A39C"/>
      <stop offset="0.9991" stop-color="#87968C"/>
    </linearGradient>
    <linearGradient id="paint8_linear_293_28485" x1="6.82997" y1="53.1537" x2="47.7897" y2="53.1537" gradientUnits="userSpaceOnUse">
      <stop stop-color="#9DABB0"/>
      <stop offset="0.15535" stop-color="#FFEBF1"/>
      <stop offset="0.31329" stop-color="#97B0BD"/>
      <stop offset="0.70528" stop-color="#FFEDFC"/>
      <stop offset="1" stop-color="#80A6A2"/>
    </linearGradient>
    <linearGradient id="paint9_linear_293_28485" x1="8.90397" y1="71.5594" x2="45.7154" y2="34.748" gradientUnits="userSpaceOnUse">
      <stop offset="0.3383" stop-color="#FBB8FF" stop-opacity="0"/>
      <stop offset="0.44854" stop-color="#F8ACD9" stop-opacity="0.36483"/>
      <stop offset="0.6447" stop-color="#F29898"/>
      <stop offset="0.76139" stop-color="#F5A08D"/>
      <stop offset="0.9641" stop-color="#FDB771"/>
      <stop offset="1" stop-color="#FFBB6B"/>
    </linearGradient>
    <linearGradient id="paint10_linear_293_28485" x1="14.0427" y1="76.1328" x2="40.5767" y2="30.1746" gradientUnits="userSpaceOnUse">
      <stop stop-color="#EDEDED"/>
      <stop offset="0.66412" stop-color="#BFBDD4"/>
      <stop offset="1" stop-color="#FF52E2"/>
    </linearGradient>
    <linearGradient id="paint11_linear_293_28485" x1="13.9577" y1="66.5057" x2="40.3386" y2="40.1248" gradientUnits="userSpaceOnUse">
      <stop offset="0.3383" stop-color="#FBB8FF" stop-opacity="0"/>
      <stop offset="0.44854" stop-color="#F8ACD9" stop-opacity="0.36483"/>
      <stop offset="0.6447" stop-color="#F29898"/>
      <stop offset="0.76139" stop-color="#F5A08D"/>
      <stop offset="0.9641" stop-color="#FDB771"/>
      <stop offset="1" stop-color="#FFBB6B"/>
    </linearGradient>
    <linearGradient id="paint12_linear_293_28485" x1="16.9553" y1="71.0882" x2="37.6642" y2="35.2192" gradientUnits="userSpaceOnUse">
      <stop stop-color="#EDEDED"/>
      <stop offset="0.66412" stop-color="#BFBDD4"/>
      <stop offset="1" stop-color="#FF52E2"/>
    </linearGradient>
    <linearGradient id="paint13_linear_293_28485" x1="8.55041" y1="71.913" x2="46.069" y2="34.3944" gradientUnits="userSpaceOnUse">
      <stop offset="0.29343" stop-color="#FF75AF" stop-opacity="0"/>
      <stop offset="0.49608" stop-color="#FEA7B7" stop-opacity="0.42331"/>
      <stop offset="0.70366" stop-color="#FCD8C0" stop-opacity="0.83529"/>
      <stop offset="0.79668" stop-color="#FCEBC3"/>
      <stop offset="0.98813" stop-color="#F7C652"/>
    </linearGradient>
    <linearGradient id="paint14_linear_293_28485" x1="34.626" y1="33.7829" x2="19.9936" y2="72.5245" gradientUnits="userSpaceOnUse">
      <stop stop-color="white"/>
      <stop offset="0.21228" stop-color="#F9D47C"/>
      <stop offset="0.27945" stop-color="#F7C652"/>
      <stop offset="0.31567" stop-color="#F7BF51" stop-opacity="0.97369"/>
      <stop offset="0.37487" stop-color="#F8AA4D" stop-opacity="0.90223"/>
      <stop offset="0.44966" stop-color="#F88947" stop-opacity="0.78577"/>
      <stop offset="0.53623" stop-color="#F95B3F" stop-opacity="0.62595"/>
      <stop offset="0.59513" stop-color="#FA3939" stop-opacity="0.50513"/>
      <stop offset="0.67939" stop-color="#FC4D60" stop-opacity="0.33971"/>
      <stop offset="0.83472" stop-color="#FF75AF" stop-opacity="0"/>
    </linearGradient>
    <radialGradient id="paint15_radial_293_28485" cx="0" cy="0" r="1" gradientUnits="userSpaceOnUse" gradientTransform="translate(30.8861 32.3523) rotate(9.95392) scale(21.9279 21.9555)">
      <stop stop-color="#FF6EED"/>
      <stop offset="0.04271" stop-color="#FF70DF" stop-opacity="0.91872"/>
      <stop offset="0.17933" stop-color="#FF75B4" stop-opacity="0.67871"/>
      <stop offset="0.315" stop-color="#FF798F" stop-opacity="0.47157"/>
      <stop offset="0.4464" stop-color="#FF7D71" stop-opacity="0.30229"/>
      <stop offset="0.57274" stop-color="#FF7F59" stop-opacity="0.17063"/>
      <stop offset="0.69268" stop-color="#FF8149" stop-opacity="0.07644"/>
      <stop offset="0.80361" stop-color="#FF833E" stop-opacity="0.01958"/>
      <stop offset="0.8968" stop-color="#FF833B" stop-opacity="0"/>
    </radialGradient>
    <radialGradient id="paint16_radial_293_28485" cx="0" cy="0" r="1" gradientUnits="userSpaceOnUse" gradientTransform="translate(31.6253 31.9626) scale(28.8503 28.8503)">
      <stop stop-color="white"/>
      <stop offset="0.18301" stop-color="#FFFEFC"/>
      <stop offset="0.33597" stop-color="#FEFBF1"/>
      <stop offset="0.47807" stop-color="#FEF5E0"/>
      <stop offset="0.61366" stop-color="#FCEDC8"/>
      <stop offset="0.74463" stop-color="#FBE2A8"/>
      <stop offset="0.87212" stop-color="#F9D681"/>
      <stop offset="0.99467" stop-color="#F7C754"/>
      <stop offset="1" stop-color="#F7C652"/>
    </radialGradient>
    <radialGradient id="paint17_radial_293_28485" cx="0" cy="0" r="1" gradientUnits="userSpaceOnUse" gradientTransform="translate(31.6253 31.9626) scale(28.8503 28.8503)">
      <stop stop-color="white"/>
      <stop offset="0.04372" stop-color="#FFFDFA"/>
      <stop offset="0.09828" stop-color="#FEF8EA"/>
      <stop offset="0.15859" stop-color="#FDF0D1"/>
      <stop offset="0.22307" stop-color="#FBE4AD"/>
      <stop offset="0.29011" stop-color="#F9D580"/>
      <stop offset="0.34946" stop-color="#F7C652"/>
      <stop offset="0.49557" stop-color="#F8B656"/>
      <stop offset="0.77968" stop-color="#FC8C5F"/>
      <stop offset="1" stop-color="#FF6868"/>
    </radialGradient>
    <linearGradient id="paint18_linear_293_28485" x1="29.621" y1="32.1574" x2="38.4472" y2="23.2167" gradientUnits="userSpaceOnUse">
      <stop stop-color="white"/>
      <stop offset="0.02181" stop-color="#FFFDFA"/>
      <stop offset="0.04904" stop-color="#FFF9EA"/>
      <stop offset="0.07916" stop-color="#FFF1D1"/>
      <stop offset="0.11135" stop-color="#FFE7AD"/>
      <stop offset="0.14486" stop-color="#FFD980"/>
      <stop offset="0.1524" stop-color="#FFD675"/>
      <stop offset="0.16234" stop-color="#FFC973"/>
      <stop offset="0.19656" stop-color="#FFA36B"/>
      <stop offset="0.23052" stop-color="#FF8565"/>
      <stop offset="0.26374" stop-color="#FF6F61"/>
      <stop offset="0.29588" stop-color="#FF625F"/>
      <stop offset="0.3257" stop-color="#FF5E5E"/>
      <stop offset="0.57308" stop-color="#CFAAB3"/>
      <stop offset="0.66981" stop-color="#BCC9D6"/>
    </linearGradient>
    <linearGradient id="paint19_linear_293_28485" x1="35.3611" y1="24.1736" x2="42.159" y2="18.4695" gradientUnits="userSpaceOnUse">
      <stop stop-color="#5E7FA8"/>
      <stop offset="0.29465" stop-color="#486386"/>
      <stop offset="0.76695" stop-color="#283B53"/>
      <stop offset="1" stop-color="#1B2B40"/>
    </linearGradient>
    <linearGradient id="paint20_linear_293_28485" x1="37.8711" y1="21.7384" x2="44.7315" y2="15.9818" gradientUnits="userSpaceOnUse">
      <stop stop-color="#5E7FA8"/>
      <stop offset="0.29465" stop-color="#486386"/>
      <stop offset="0.76695" stop-color="#283B53"/>
      <stop offset="1" stop-color="#1B2B40"/>
    </linearGradient>
    <linearGradient id="paint21_linear_293_28485" x1="40.6946" y1="22.0335" x2="52.9681" y2="9.17327" gradientUnits="userSpaceOnUse">
      <stop offset="0.18391" stop-color="#ADB8CC"/>
      <stop offset="0.21426" stop-color="#B2BCCF"/>
      <stop offset="0.51207" stop-color="#DCE0E9"/>
      <stop offset="0.74597" stop-color="#F5F7F9"/>
      <stop offset="0.88564" stop-color="white"/>
    </linearGradient>
    <linearGradient id="paint22_linear_293_28485" x1="48.1202" y1="8.27471" x2="58.1673" y2="11.7313" gradientUnits="userSpaceOnUse">
      <stop stop-color="#89929E"/>
      <stop offset="0.47564" stop-color="#A6B5BF"/>
      <stop offset="0.62504" stop-color="#B0C1CB"/>
      <stop offset="0.64286" stop-color="#ACBBC6"/>
      <stop offset="0.69943" stop-color="#A3B0BC"/>
      <stop offset="0.77895" stop-color="#9DA9B7"/>
      <stop offset="1" stop-color="#9CA7B5"/>
    </linearGradient>
    <linearGradient id="paint23_linear_293_28485" x1="49.5916" y1="8.78088" x2="56.696" y2="11.2251" gradientUnits="userSpaceOnUse">
      <stop stop-color="#1B2B40"/>
      <stop offset="0.22519" stop-color="#1D2D43"/>
      <stop offset="0.39543" stop-color="#23354D"/>
      <stop offset="0.54715" stop-color="#2D425D"/>
      <stop offset="0.68537" stop-color="#3B5473"/>
      <stop offset="0.74341" stop-color="#354C6A"/>
      <stop offset="0.83994" stop-color="#253850"/>
      <stop offset="0.89024" stop-color="#1B2B40"/>
    </linearGradient>
  </defs>
</svg>