<svg width="98" height="98" viewBox="0 0 98 98" fill="none" xmlns="http://www.w3.org/2000/svg">
    <circle cx="49" cy="49" r="49" fill="#BFA64A"/>
    <path d="M30.5149 22.2295H50.0687C58.0832 22.2295 64.3291 24.5547 68.8063 29.2051C73.2835 33.8554 75.5221 40.4105 75.5221 48.8702C75.5221 57.3546 73.2835 63.9592 68.8063 68.6837C64.3291 73.4083 58.0832 75.7706 50.0687 75.7706H30.5149V22.2295ZM40.0878 30.3182V67.6819H49.0669C54.4594 67.6819 58.5903 66.0741 61.4597 62.8584C64.3291 59.6427 65.7637 54.9924 65.7637 48.9073C65.7637 42.9212 64.3167 38.3326 61.4226 35.1417C58.5285 31.926 54.4099 30.3182 49.0669 30.3182H40.0878Z" fill="white"/>
    <path d="M57.1311 44.1895V53.8111H23.2749L23.2749 44.1895H57.1311Z" fill="white"/>
</svg>
