<svg width="104" height="104" viewBox="0 0 104 104" fill="none" xmlns="http://www.w3.org/2000/svg">
    <g clip-path="url(#clip0_327_30009)">
        <path d="M15.2411 30.9436L51.4884 52M51.4884 52L87.6891 30.9436M51.4884 52L87.6891 73.0563M51.4884 52L15.2411 73.0563M51.4884 10.1721L51.4651 93.8479M51.5001 10.1721L87.724 31.086V72.9139L51.5001 93.8278L15.2761 72.9139V31.086L51.5001 10.1721Z" stroke="url(#paint0_radial_327_30009)" stroke-width="1.3" stroke-miterlimit="10"/>
        <path d="M51.4324 10.192L44.3279 6.06445L44.3513 14.2805L51.4558 18.408L51.4324 10.192Z" fill="url(#paint1_linear_327_30009)"/>
        <path d="M58.5824 6.06459L51.4779 1.93579L44.3279 6.06459L51.4324 10.1921L58.5824 6.06459Z" fill="url(#paint2_linear_327_30009)"/>
        <path d="M51.4324 10.192L51.4558 18.408L58.6058 14.2805L58.5824 6.06445L51.4324 10.192Z" fill="url(#paint3_linear_327_30009)"/>
        <path d="M87.6894 30.9437L80.5862 26.8149L80.6083 35.0309L87.7128 39.1597L87.6894 30.9437Z" fill="url(#paint4_linear_327_30009)"/>
        <path d="M94.8394 26.815L87.7362 22.6875L80.5862 26.815L87.6894 30.9438L94.8394 26.815Z" fill="url(#paint5_linear_327_30009)"/>
        <path d="M87.6895 30.9437L87.7129 39.1597L94.8629 35.0309L94.8395 26.8149L87.6895 30.9437Z" fill="url(#paint6_linear_327_30009)"/>
        <path d="M87.6894 72.9574L80.5862 68.8286L80.6083 77.0446L87.7128 81.1734L87.6894 72.9574Z" fill="url(#paint7_linear_327_30009)"/>
        <path d="M94.8394 68.8284L87.7362 64.7009L80.5862 68.8284L87.6894 72.9572L94.8394 68.8284Z" fill="url(#paint8_linear_327_30009)"/>
        <path d="M87.6895 72.9574L87.7129 81.1734L94.8629 77.0446L94.8395 68.8286L87.6895 72.9574Z" fill="url(#paint9_linear_327_30009)"/>
        <path d="M15.2404 30.9437L8.13721 26.8149L8.16061 35.0309L15.2638 39.1597L15.2404 30.9437Z" fill="url(#paint10_linear_327_30009)"/>
        <path d="M22.3917 26.815L15.2872 22.6875L8.13721 26.815L15.2404 30.9438L22.3917 26.815Z" fill="url(#paint11_linear_327_30009)"/>
        <path d="M15.2405 30.9437L15.2639 39.1597L22.4139 35.0309L22.3918 26.8149L15.2405 30.9437Z" fill="url(#paint12_linear_327_30009)"/>
        <path d="M15.2404 72.9574L8.13721 68.8286L8.16061 77.0446L15.2638 81.1734L15.2404 72.9574Z" fill="url(#paint13_linear_327_30009)"/>
        <path d="M22.3917 68.8284L15.2872 64.7009L8.13721 68.8284L15.2404 72.9572L22.3917 68.8284Z" fill="url(#paint14_linear_327_30009)"/>
        <path d="M15.2405 72.9574L15.2639 81.1734L22.4139 77.0446L22.3918 68.8286L15.2405 72.9574Z" fill="url(#paint15_linear_327_30009)"/>
        <path d="M51.4649 93.8485L44.3617 89.7197L44.3851 97.9357L51.4883 102.065L51.4649 93.8485Z" fill="url(#paint16_linear_327_30009)"/>
        <path d="M58.6149 89.7195L51.5117 85.592L44.3617 89.7195L51.4649 93.8483L58.6149 89.7195Z" fill="url(#paint17_linear_327_30009)"/>
        <path d="M51.4648 93.8485L51.4882 102.065L58.6382 97.9357L58.6148 89.7197L51.4648 93.8485Z" fill="url(#paint18_linear_327_30009)"/>
        <path d="M51.5 74.3907C55.9284 74.3907 60.2574 73.0775 63.9395 70.6172C67.6216 68.1569 70.4915 64.66 72.1862 60.5686C73.8809 56.4773 74.3243 51.9753 73.4603 47.632C72.5964 43.2886 70.4639 39.299 67.3325 36.1677C64.2011 33.0363 60.2115 30.9038 55.8682 30.0399C51.5249 29.1759 47.0229 29.6193 42.9315 31.314C38.8402 33.0087 35.3433 35.8785 32.883 39.5606C30.4227 43.2427 29.1095 47.5717 29.1095 52.0002C29.1095 57.9385 31.4685 63.6336 35.6676 67.8326C39.8666 72.0316 45.5617 74.3906 51.5 74.3907Z" fill="url(#paint19_linear_327_30009)" stroke="url(#paint20_linear_327_30009)" stroke-width="0.713128" stroke-miterlimit="10"/>
        <path d="M51.5 70.214C55.1024 70.214 58.6239 69.1457 61.6191 67.1444C64.6144 65.143 66.9489 62.2984 68.3275 58.9702C69.7061 55.6421 70.0668 51.9798 69.364 48.4467C68.6612 44.9135 66.9265 41.6681 64.3792 39.1209C61.832 36.5736 58.5866 34.8389 55.0534 34.1361C51.5202 33.4333 47.858 33.794 44.5299 35.1726C41.2017 36.5512 38.3571 38.8857 36.3557 41.8809C34.3544 44.8762 33.2861 48.3977 33.2861 52.0001C33.2862 56.8307 35.2051 61.4634 38.6209 64.8792C42.0367 68.295 46.6694 70.2139 51.5 70.214Z" fill="url(#paint21_linear_327_30009)" stroke="url(#paint22_linear_327_30009)" stroke-width="0.713128" stroke-miterlimit="10"/>
        <path d="M49.0896 60.2762L42.666 53.2691C42.605 53.2028 42.5728 53.115 42.5765 53.025C42.5801 52.935 42.6194 52.8501 42.6857 52.7891L45.5022 50.1943C45.5685 50.1332 45.6563 50.101 45.7463 50.1047C45.8363 50.1084 45.9212 50.1477 45.9822 50.2139L50.2355 54.8652C50.2699 54.9026 50.3123 54.9318 50.3595 54.9506C50.4066 54.9694 50.4575 54.9774 50.5082 54.974C50.5589 54.9706 50.6081 54.9558 50.6524 54.9308C50.6966 54.9058 50.7347 54.8713 50.7638 54.8296L59.5056 42.3166C59.5311 42.28 59.5636 42.2488 59.6012 42.2248C59.6388 42.2008 59.6808 42.1844 59.7247 42.1766C59.7686 42.1688 59.8137 42.1698 59.8572 42.1794C59.9008 42.189 59.9421 42.2071 59.9786 42.2326L63.118 44.4259C63.1918 44.4775 63.2421 44.5563 63.2579 44.6451C63.2736 44.7338 63.2535 44.8251 63.2019 44.899L52.6254 60.0378C52.4307 60.3166 52.1759 60.5481 51.8798 60.7153C51.5837 60.8826 51.2539 60.9813 50.9146 61.0041C50.5754 61.027 50.2353 60.9735 49.9194 60.8475C49.6036 60.7215 49.32 60.5263 49.0896 60.2762Z" fill="url(#paint23_linear_327_30009)" stroke="url(#paint24_linear_327_30009)" stroke-width="0.344955" stroke-miterlimit="10"/>
        <path d="M51.5 70.214C55.1024 70.214 58.6239 69.1457 61.6191 67.1444C64.6144 65.143 66.9489 62.2984 68.3275 58.9702C69.7061 55.6421 70.0668 51.9798 69.364 48.4467C68.6612 44.9135 66.9265 41.6681 64.3792 39.1209C61.832 36.5736 58.5866 34.8389 55.0534 34.1361C51.5202 33.4333 47.858 33.794 44.5299 35.1726C41.2017 36.5512 38.3571 38.8857 36.3557 41.8809C34.3544 44.8762 33.2861 48.3977 33.2861 52.0001C33.2862 56.8307 35.2051 61.4634 38.6209 64.8792C42.0367 68.295 46.6694 70.2139 51.5 70.214Z" fill="url(#paint25_linear_327_30009)" stroke="url(#paint26_linear_327_30009)" stroke-width="0.713128" stroke-miterlimit="10"/>
    </g>
    <defs>
        <radialGradient id="paint0_radial_327_30009" cx="0" cy="0" r="1" gradientUnits="userSpaceOnUse" gradientTransform="translate(51.5001 52) scale(39.8285 39.8285)">
            <stop offset="0.41849" stop-color="#E5FF55"/>
            <stop offset="0.48501" stop-color="#DFFF5B"/>
            <stop offset="0.57407" stop-color="#CFFF6C"/>
            <stop offset="0.67586" stop-color="#B4FF88"/>
            <stop offset="0.78637" stop-color="#8EFFAF"/>
            <stop offset="0.83026" stop-color="#7DFFC0"/>
            <stop offset="0.86611" stop-color="#79FAC3"/>
            <stop offset="0.90642" stop-color="#6DEDCC"/>
            <stop offset="0.94887" stop-color="#59D6DA"/>
            <stop offset="0.99255" stop-color="#3DB7EE"/>
            <stop offset="1" stop-color="#38B1F2"/>
        </radialGradient>
        <linearGradient id="paint1_linear_327_30009" x1="45.0998" y1="15.0282" x2="50.6838" y2="9.44413" gradientUnits="userSpaceOnUse">
            <stop stop-color="#8E6FF2"/>
            <stop offset="0.6812" stop-color="#4EA1F5"/>
        </linearGradient>
        <linearGradient id="paint2_linear_327_30009" x1="50.3811" y1="7.13834" x2="57.5079" y2="0.0115567" gradientUnits="userSpaceOnUse">
            <stop stop-color="#8E6FF2"/>
            <stop offset="1" stop-color="#4EA1F5"/>
        </linearGradient>
        <linearGradient id="paint3_linear_327_30009" x1="48.6134" y1="18.6414" x2="58.3488" y2="8.90591" gradientUnits="userSpaceOnUse">
            <stop stop-color="#8E6FF2"/>
            <stop offset="1" stop-color="#4EA1F5"/>
        </linearGradient>
        <linearGradient id="paint4_linear_327_30009" x1="81.3569" y1="35.7795" x2="86.941" y2="30.1954" gradientUnits="userSpaceOnUse">
            <stop stop-color="#8E6FF2"/>
            <stop offset="0.6812" stop-color="#4EA1F5"/>
        </linearGradient>
        <linearGradient id="paint5_linear_327_30009" x1="86.6382" y1="27.8896" x2="93.765" y2="20.7628" gradientUnits="userSpaceOnUse">
            <stop stop-color="#8E6FF2"/>
            <stop offset="1" stop-color="#4EA1F5"/>
        </linearGradient>
        <linearGradient id="paint6_linear_327_30009" x1="84.8706" y1="39.3926" x2="94.606" y2="29.6572" gradientUnits="userSpaceOnUse">
            <stop stop-color="#8E6FF2"/>
            <stop offset="1" stop-color="#4EA1F5"/>
        </linearGradient>
        <linearGradient id="paint7_linear_327_30009" x1="81.3569" y1="77.7931" x2="86.941" y2="72.209" gradientUnits="userSpaceOnUse">
            <stop stop-color="#8E6FF2"/>
            <stop offset="0.6812" stop-color="#4EA1F5"/>
        </linearGradient>
        <linearGradient id="paint8_linear_327_30009" x1="86.6382" y1="69.9029" x2="93.765" y2="62.7761" gradientUnits="userSpaceOnUse">
            <stop stop-color="#8E6FF2"/>
            <stop offset="1" stop-color="#4EA1F5"/>
        </linearGradient>
        <linearGradient id="paint9_linear_327_30009" x1="84.8706" y1="81.4062" x2="94.606" y2="71.6708" gradientUnits="userSpaceOnUse">
            <stop stop-color="#8E6FF2"/>
            <stop offset="1" stop-color="#4EA1F5"/>
        </linearGradient>
        <linearGradient id="paint10_linear_327_30009" x1="8.90894" y1="35.7795" x2="14.493" y2="30.1954" gradientUnits="userSpaceOnUse">
            <stop stop-color="#8E6FF2"/>
            <stop offset="0.6812" stop-color="#4EA1F5"/>
        </linearGradient>
        <linearGradient id="paint11_linear_327_30009" x1="14.1902" y1="27.8896" x2="21.317" y2="20.7628" gradientUnits="userSpaceOnUse">
            <stop stop-color="#8E6FF2"/>
            <stop offset="1" stop-color="#4EA1F5"/>
        </linearGradient>
        <linearGradient id="paint12_linear_327_30009" x1="12.4226" y1="39.3926" x2="22.158" y2="29.6572" gradientUnits="userSpaceOnUse">
            <stop stop-color="#8E6FF2"/>
            <stop offset="1" stop-color="#4EA1F5"/>
        </linearGradient>
        <linearGradient id="paint13_linear_327_30009" x1="8.90894" y1="77.7931" x2="14.493" y2="72.209" gradientUnits="userSpaceOnUse">
            <stop stop-color="#8E6FF2"/>
            <stop offset="0.6812" stop-color="#4EA1F5"/>
        </linearGradient>
        <linearGradient id="paint14_linear_327_30009" x1="14.1902" y1="69.9029" x2="21.317" y2="62.7761" gradientUnits="userSpaceOnUse">
            <stop stop-color="#8E6FF2"/>
            <stop offset="1" stop-color="#4EA1F5"/>
        </linearGradient>
        <linearGradient id="paint15_linear_327_30009" x1="12.4226" y1="81.4062" x2="22.158" y2="71.6708" gradientUnits="userSpaceOnUse">
            <stop stop-color="#8E6FF2"/>
            <stop offset="1" stop-color="#4EA1F5"/>
        </linearGradient>
        <linearGradient id="paint16_linear_327_30009" x1="45.1329" y1="98.6842" x2="50.717" y2="93.1001" gradientUnits="userSpaceOnUse">
            <stop stop-color="#8E6FF2"/>
            <stop offset="0.6812" stop-color="#4EA1F5"/>
        </linearGradient>
        <linearGradient id="paint17_linear_327_30009" x1="50.4142" y1="90.794" x2="57.541" y2="83.6672" gradientUnits="userSpaceOnUse">
            <stop stop-color="#8E6FF2"/>
            <stop offset="1" stop-color="#4EA1F5"/>
        </linearGradient>
        <linearGradient id="paint18_linear_327_30009" x1="48.6465" y1="102.297" x2="58.3819" y2="92.5619" gradientUnits="userSpaceOnUse">
            <stop stop-color="#8E6FF2"/>
            <stop offset="1" stop-color="#4EA1F5"/>
        </linearGradient>
        <linearGradient id="paint19_linear_327_30009" x1="35.6674" y1="67.8327" x2="67.3324" y2="36.1676" gradientUnits="userSpaceOnUse">
            <stop stop-color="#F9E183"/>
            <stop offset="0.31858" stop-color="#DBAE58"/>
            <stop offset="0.39396" stop-color="#DCB05C"/>
            <stop offset="0.46907" stop-color="#DEB668"/>
            <stop offset="0.54412" stop-color="#E1BF7C"/>
            <stop offset="0.61918" stop-color="#E6CC98"/>
            <stop offset="0.6935" stop-color="#ECDDBC"/>
            <stop offset="0.74808" stop-color="#F1ECDB"/>
            <stop offset="0.79031" stop-color="#F2E8D1"/>
            <stop offset="0.86175" stop-color="#F6DEB7"/>
            <stop offset="0.95309" stop-color="#FCCD8C"/>
            <stop offset="1" stop-color="#FFC373"/>
        </linearGradient>
        <linearGradient id="paint20_linear_327_30009" x1="28.7529" y1="52.0002" x2="74.2471" y2="52.0002" gradientUnits="userSpaceOnUse">
            <stop stop-color="#F9E183"/>
            <stop offset="0.31858" stop-color="#ECAB2A"/>
            <stop offset="0.38348" stop-color="#ECAC2E"/>
            <stop offset="0.44816" stop-color="#ECB13A"/>
            <stop offset="0.5128" stop-color="#EDB84E"/>
            <stop offset="0.57742" stop-color="#EEC36A"/>
            <stop offset="0.6421" stop-color="#EFD08E"/>
            <stop offset="0.7059" stop-color="#F0E0BA"/>
            <stop offset="0.74808" stop-color="#F1ECDB"/>
            <stop offset="0.77963" stop-color="#F2EBD1"/>
            <stop offset="0.833" stop-color="#F4E7B7"/>
            <stop offset="0.90169" stop-color="#F8E28B"/>
            <stop offset="0.98223" stop-color="#FEDA50"/>
            <stop offset="1" stop-color="#FFD842"/>
        </linearGradient>
        <linearGradient id="paint21_linear_327_30009" x1="39.4641" y1="64.036" x2="63.2446" y2="40.2554" gradientUnits="userSpaceOnUse">
            <stop stop-color="#F9E183"/>
            <stop offset="0.31858" stop-color="#DBAE58"/>
            <stop offset="0.39396" stop-color="#DCB05C"/>
            <stop offset="0.46907" stop-color="#DEB668"/>
            <stop offset="0.54412" stop-color="#E1BF7C"/>
            <stop offset="0.61918" stop-color="#E6CC98"/>
            <stop offset="0.6935" stop-color="#ECDDBC"/>
            <stop offset="0.74808" stop-color="#F1ECDB"/>
            <stop offset="0.79031" stop-color="#F2E8D1"/>
            <stop offset="0.86175" stop-color="#F6DEB7"/>
            <stop offset="0.95309" stop-color="#FCCD8C"/>
            <stop offset="1" stop-color="#FFC373"/>
        </linearGradient>
        <linearGradient id="paint22_linear_327_30009" x1="32.9296" y1="4.94839e-05" x2="70.0705" y2="4.94839e-05" gradientUnits="userSpaceOnUse">
            <stop stop-color="#F9E183"/>
            <stop offset="0.31858" stop-color="#ECAB2A"/>
            <stop offset="0.38348" stop-color="#ECAC2E"/>
            <stop offset="0.44816" stop-color="#ECB13A"/>
            <stop offset="0.5128" stop-color="#EDB84E"/>
            <stop offset="0.57742" stop-color="#EEC36A"/>
            <stop offset="0.6421" stop-color="#EFD08E"/>
            <stop offset="0.7059" stop-color="#F0E0BA"/>
            <stop offset="0.74808" stop-color="#F1ECDB"/>
            <stop offset="0.77963" stop-color="#F2EBD1"/>
            <stop offset="0.833" stop-color="#F4E7B7"/>
            <stop offset="0.90169" stop-color="#F8E28B"/>
            <stop offset="0.98223" stop-color="#FEDA50"/>
            <stop offset="1" stop-color="#FFD842"/>
        </linearGradient>
        <linearGradient id="paint23_linear_327_30009" x1="52.9196" y1="61.0093" x2="52.9196" y2="42.1713" gradientUnits="userSpaceOnUse">
            <stop offset="0.1683" stop-color="#7AFF8E"/>
            <stop offset="0.43426" stop-color="#61ECA0"/>
            <stop offset="1" stop-color="#30C7C4"/>
        </linearGradient>
        <linearGradient id="paint24_linear_327_30009" x1="52.9196" y1="61.1818" x2="52.9196" y2="41.9988" gradientUnits="userSpaceOnUse">
            <stop stop-color="#A8FFD5"/>
            <stop offset="0.3519" stop-color="#A4F0E1"/>
            <stop offset="0.9878" stop-color="#99CCFF"/>
        </linearGradient>
        <linearGradient id="paint25_linear_327_30009" x1="39.4641" y1="64.036" x2="63.2446" y2="40.2554" gradientUnits="userSpaceOnUse">
            <stop offset="0.58293" stop-color="#F1ECDB" stop-opacity="0"/>
            <stop offset="0.74808" stop-color="white" stop-opacity="0.5"/>
            <stop offset="0.7629" stop-color="#FEFEFC" stop-opacity="0.46137"/>
            <stop offset="0.78798" stop-color="#FBFAF5" stop-opacity="0.35727"/>
            <stop offset="0.82001" stop-color="#F6F3E9" stop-opacity="0.18928"/>
            <stop offset="0.85122" stop-color="#F1ECDB" stop-opacity="0"/>
        </linearGradient>
        <linearGradient id="paint26_linear_327_30009" x1="32.9296" y1="4.94839e-05" x2="70.0705" y2="4.94839e-05" gradientUnits="userSpaceOnUse">
            <stop stop-color="#F9E183"/>
            <stop offset="0.31858" stop-color="#ECAB2A"/>
            <stop offset="0.38348" stop-color="#ECAC2E"/>
            <stop offset="0.44816" stop-color="#ECB13A"/>
            <stop offset="0.5128" stop-color="#EDB84E"/>
            <stop offset="0.57742" stop-color="#EEC36A"/>
            <stop offset="0.6421" stop-color="#EFD08E"/>
            <stop offset="0.7059" stop-color="#F0E0BA"/>
            <stop offset="0.74808" stop-color="#F1ECDB"/>
            <stop offset="0.77963" stop-color="#F2EBD1"/>
            <stop offset="0.833" stop-color="#F4E7B7"/>
            <stop offset="0.90169" stop-color="#F8E28B"/>
            <stop offset="0.98223" stop-color="#FEDA50"/>
            <stop offset="1" stop-color="#FFD842"/>
        </linearGradient>
        <clipPath id="clip0_327_30009">
            <rect width="104" height="104" fill="white"/>
        </clipPath>
    </defs>
</svg>
