<svg width="98" height="98" viewBox="0 0 98 98" fill="none" xmlns="http://www.w3.org/2000/svg">
    <circle cx="49.0001" cy="50.1437" r="47.8214" fill="#F00500"/>
    <path d="M61.7604 31.033C59.4452 30.2516 53.7035 28.6888 49.2582 28.6888C43.7711 28.6888 38.2321 29.9043 36.1485 30.5121C27.8832 21.066 21.4758 17.8942 19.3053 17.489C14.6518 25.1292 18.6398 40.178 21.2155 46.7474C19.016 50.7701 14.8601 60.4477 15.8325 66.9766C17.048 75.1377 32.2415 90.3312 49.7792 90.3312C67.3169 90.3312 80.6004 74.7904 81.4686 66.9766C82.1632 60.7255 78.5168 50.8859 76.6067 46.7474C82.3716 29.6612 80.6873 20.412 79.1245 17.9231C72.8734 17.9926 64.9438 26.692 61.7604 31.033Z" fill="#FFA409"/>
    <path d="M38.0736 46.5648C37.3569 44.5196 35.8012 43.2654 33.66 43.5277C31.5188 43.7899 29.9673 44.9479 29.9673 47.3295C29.9673 49.7112 32.0648 49.8204 34.4028 49.6456C36.7407 49.4708 38.9694 49.1212 38.0736 46.5648Z" fill="white"/>
    <path d="M49.7778 90.3313C67.3155 90.3313 80.599 74.7905 81.4672 66.9767C77.9199 65.942 69.2248 65.5551 62.8229 72.2854C62.2529 68.136 58.7054 59.8371 49.075 59.8371C39.4447 59.8371 35.3044 68.136 34.438 72.2854C32.6349 69.909 26.3893 65.5202 15.8311 66.9767C17.0465 75.1378 32.2401 90.3313 49.7778 90.3313Z" fill="white"/>
    <path d="M63.3062 43.5277C61.165 43.2654 59.6092 44.5196 58.8926 46.5648C57.9967 49.1212 60.2254 49.4708 62.5634 49.6456C64.9013 49.8204 66.9989 49.7112 66.9989 47.3295C66.9989 44.9479 65.4474 43.7899 63.3062 43.5277Z" fill="white"/>
    <path d="M22.7063 42.0752C21.0806 38.5528 18.3168 29.7893 20.2677 22.9148C22.3966 23.3019 27.8388 25.6089 32.5767 31.7402C30.4865 32.824 25.5863 36.4084 22.7063 42.0752Z" fill="#FF8300"/>
    <path d="M74.4068 42.0752C76.0326 38.5528 78.7963 29.7893 76.8454 22.9148C74.7165 23.3019 69.2743 25.6089 64.5365 31.7402C66.6266 32.824 71.5268 36.4084 74.4068 42.0752Z" fill="#FF8300"/>
    <path d="M41.5487 59.4697C41.5286 58.4836 40.0274 55.5886 35.342 53.5599C30.6568 51.5313 29.2922 51.48 29.0507 51.5001C28.7086 52.1038 28.1572 53.8064 28.6885 55.7868C30.703 57.3326 36.2085 60.742 41.5487 59.4697Z" fill="black"/>
    <path d="M56.3054 59.4697C56.3256 58.4836 57.8267 55.5886 62.5121 53.5599C67.1973 51.5313 68.5619 51.48 68.8034 51.5001C69.1455 52.1038 69.697 53.8064 69.1656 55.7868C67.1511 57.3326 61.6456 60.742 56.3054 59.4697Z" fill="black"/>
    <path d="M50.5506 72.8543C52.9402 72.4492 54.7599 70.3692 54.7599 67.8642V66.9414C54.7599 65.702 53.7552 64.6973 52.5159 64.6973H46.881C45.6417 64.6973 44.637 65.702 44.637 66.9414V67.8642C44.637 70.5411 46.7153 72.7327 49.3462 72.9136L48.2234 76.59L41.037 76.2478L44.0885 81.6376L44.4306 77.5596C46.5313 77.8828 51.6341 78.3353 55.2388 77.5596L55.7521 81.6376C56.6646 79.841 58.4612 76.2478 58.3472 76.2478C58.233 76.2478 53.908 76.476 51.7596 76.59L50.5619 72.8543H50.5506Z" fill="black"/>
    <path d="M52.6721 78.6718H46.3984L47.4535 79.9551L48.2234 79.2992L49.6779 80.7536L51.0182 79.2992L51.7596 79.9551L52.6721 78.6718Z" fill="black"/>
</svg>
