<svg width="98" height="98" viewBox="0 0 98 98" fill="none" xmlns="http://www.w3.org/2000/svg">
    <circle cx="49" cy="49" r="49" fill="black"/>
    <path d="M25.8057 25.1239C26.1955 24.7244 26.7239 24.5 27.275 24.5H78.1123C79.0383 24.5 79.502 25.6487 78.8468 26.3203L68.8015 36.6162C68.4118 37.0156 67.8833 37.24 67.3323 37.24H16.4949C15.5689 37.24 15.1053 36.0913 15.7603 35.4199L25.8057 25.1239Z" fill="url(#paint0_linear_423_12434)"/>
    <path d="M25.8057 63.3438C26.1955 62.9444 26.7239 62.72 27.275 62.72H78.1123C79.0383 62.72 79.502 63.8687 78.8468 64.5401L68.8015 74.8361C68.4118 75.2356 67.8833 75.46 67.3323 75.46H16.4949C15.5689 75.46 15.1053 74.3113 15.7603 73.6398L25.8057 63.3438Z" fill="url(#paint1_linear_423_12434)"/>
    <path d="M67.3323 43.61C67.8833 43.61 68.4118 43.8344 68.8015 44.2338L78.8468 54.5298C79.502 55.2013 79.0383 56.35 78.1123 56.35H27.275C26.7239 56.35 26.1955 56.1256 25.8057 55.7261L15.7603 45.4301C15.1053 44.7587 15.5689 43.61 16.4949 43.61H67.3323Z" fill="url(#paint2_linear_423_12434)"/>
    <defs>
        <linearGradient id="paint0_linear_423_12434" x1="58.5186" y1="10.4542" x2="21.9078" y2="78.8172" gradientUnits="userSpaceOnUse">
            <stop stop-color="#00FFA3"/>
            <stop offset="1" stop-color="#DC1FFF"/>
        </linearGradient>
        <linearGradient id="paint1_linear_423_12434" x1="58.5186" y1="10.4542" x2="21.9078" y2="78.8172" gradientUnits="userSpaceOnUse">
            <stop stop-color="#00FFA3"/>
            <stop offset="1" stop-color="#DC1FFF"/>
        </linearGradient>
        <linearGradient id="paint2_linear_423_12434" x1="58.5186" y1="10.4542" x2="21.9078" y2="78.8172" gradientUnits="userSpaceOnUse">
            <stop stop-color="#00FFA3"/>
            <stop offset="1" stop-color="#DC1FFF"/>
        </linearGradient>
    </defs>
</svg>
