<svg width="104" height="104" viewBox="0 0 104 104" fill="none" xmlns="http://www.w3.org/2000/svg">
    <g clip-path="url(#clip0_327_30094)">
        <g clip-path="url(#clip1_327_30094)">
            <path d="M101.866 48.1182L90.0661 50.0864L69.7172 97.1581L85.5837 97.0697L101.866 48.1182Z" fill="url(#paint0_linear_327_30094)"/>
            <path d="M96.01 104H61.4254C63.5244 97.4412 68.3551 93.1858 73.7017 93.1858H83.7337C89.0803 93.1858 93.911 97.4412 96.01 104Z" fill="url(#paint1_linear_327_30094)"/>
            <path d="M101.178 44.1207L90.0661 50.0864L67.9219 16.4671L73.2103 9.43408L101.178 44.1207Z" fill="url(#paint2_linear_327_30094)"/>
            <path d="M95.6732 56.1746C100.547 56.1746 104.498 52.2236 104.498 47.3499C104.498 42.4761 100.547 38.5251 95.6732 38.5251C90.7995 38.5251 86.8485 42.4761 86.8485 47.3499C86.8485 52.2236 90.7995 56.1746 95.6732 56.1746Z" fill="url(#paint3_linear_327_30094)"/>
            <path d="M95.6733 52.8546C98.7134 52.8546 101.178 50.39 101.178 47.3499C101.178 44.3097 98.7134 41.8452 95.6733 41.8452C92.6331 41.8452 90.1686 44.3097 90.1686 47.3499C90.1686 50.39 92.6331 52.8546 95.6733 52.8546Z" fill="url(#paint4_linear_327_30094)"/>
            <path d="M36.0027 102.938C42.6953 102.938 49.2376 100.954 54.8023 97.2354C60.367 93.5172 64.7042 88.2323 67.2653 82.0492C69.8265 75.866 70.4966 69.0622 69.1909 62.4982C67.8853 55.9341 64.6625 49.9047 59.9301 45.1723C55.1977 40.4399 49.1682 37.2171 42.6042 35.9114C36.0402 34.6058 29.2364 35.2759 23.0532 37.837C16.8701 40.3982 11.5852 44.7354 7.867 50.3001C4.14878 55.8648 2.16418 62.4071 2.16418 69.0997C2.16424 78.0742 5.72937 86.6812 12.0753 93.0271C18.4212 99.373 27.0282 102.938 36.0027 102.938Z" fill="url(#paint5_linear_327_30094)" stroke="url(#paint6_linear_327_30094)" stroke-width="0.54856" stroke-miterlimit="10"/>
            <path d="M36.0027 95.367C41.1979 95.367 46.2764 93.8265 50.596 90.9402C54.9156 88.0539 58.2824 83.9515 60.2705 79.1518C62.2586 74.3521 62.7788 69.0706 61.7652 63.9753C60.7517 58.8799 58.25 54.1996 54.5765 50.526C50.9029 46.8525 46.2225 44.3508 41.1272 43.3372C36.0319 42.3237 30.7504 42.8439 25.9507 44.832C21.151 46.8201 17.0486 50.1868 14.1623 54.5065C11.276 58.8261 9.73547 63.9046 9.73547 69.0998C9.73552 76.0663 12.503 82.7474 17.429 87.6735C22.3551 92.5995 29.0362 95.367 36.0027 95.367Z" fill="url(#paint7_linear_327_30094)" stroke="url(#paint8_linear_327_30094)" stroke-width="0.54856" stroke-miterlimit="10"/>
            <path d="M36.0027 102.938C42.6953 102.938 49.2376 100.954 54.8023 97.2354C60.367 93.5172 64.7042 88.2323 67.2653 82.0492C69.8265 75.866 70.4966 69.0622 69.1909 62.4982C67.8853 55.9341 64.6625 49.9047 59.9301 45.1723C55.1977 40.4399 49.1682 37.2171 42.6042 35.9114C36.0402 34.6058 29.2364 35.2759 23.0532 37.837C16.8701 40.3982 11.5852 44.7354 7.867 50.3001C4.14878 55.8648 2.16418 62.4071 2.16418 69.0997C2.16424 78.0742 5.72937 86.6812 12.0753 93.0271C18.4212 99.373 27.0282 102.938 36.0027 102.938Z" fill="url(#paint9_linear_327_30094)" stroke="url(#paint10_linear_327_30094)" stroke-miterlimit="10"/>
            <path d="M36.0027 95.367C41.1979 95.367 46.2764 93.8265 50.596 90.9402C54.9156 88.0539 58.2824 83.9515 60.2705 79.1518C62.2586 74.3521 62.7788 69.0706 61.7652 63.9753C60.7517 58.8799 58.25 54.1996 54.5765 50.526C50.9029 46.8525 46.2225 44.3508 41.1272 43.3372C36.0319 42.3237 30.7504 42.8439 25.9507 44.832C21.151 46.8201 17.0486 50.1868 14.1623 54.5065C11.276 58.8261 9.73547 63.9046 9.73547 69.0998C9.73552 76.0663 12.503 82.7474 17.429 87.6735C22.3551 92.5995 29.0362 95.367 36.0027 95.367Z" fill="url(#paint11_linear_327_30094)" stroke="url(#paint12_linear_327_30094)" stroke-miterlimit="10"/>
            <path d="M36.0027 102.938C42.6953 102.938 49.2376 100.954 54.8023 97.2354C60.367 93.5172 64.7042 88.2323 67.2653 82.0492C69.8265 75.866 70.4966 69.0622 69.1909 62.4982C67.8853 55.9341 64.6625 49.9047 59.9301 45.1723C55.1977 40.4399 49.1682 37.2171 42.6042 35.9114C36.0402 34.6058 29.2364 35.2759 23.0532 37.837C16.8701 40.3982 11.5852 44.7354 7.867 50.3001C4.14878 55.8648 2.16418 62.4071 2.16418 69.0997C2.16424 78.0742 5.72937 86.6812 12.0753 93.0271C18.4212 99.373 27.0282 102.938 36.0027 102.938Z" stroke="url(#paint13_linear_327_30094)" stroke-linecap="round" stroke-linejoin="round"/>
            <path d="M12.1289 58.1451C9.96225 62.8669 9.24442 68.1252 10.0662 73.2549C10.888 78.3847 13.2124 83.1556 16.7457 86.9643C20.2789 90.7729 24.8622 93.4484 29.9159 94.6522C34.9697 95.8561 40.2669 95.5343 45.1378 93.7276C50.0087 91.9208 54.2344 88.7102 57.2806 84.5019C60.3268 80.2935 62.0567 75.2763 62.2515 70.0848C62.4463 64.8933 61.0972 59.7606 58.3749 55.3358C55.6526 50.911 51.6794 47.3928 46.9576 45.2261C40.6258 42.3208 33.3993 42.0497 26.8677 44.4724C20.336 46.8952 15.0344 51.8134 12.1289 58.1451Z" stroke="url(#paint14_linear_327_30094)" stroke-linecap="round" stroke-linejoin="round"/>
            <path opacity="0.5" d="M68.7289 46.9854C71.4537 31.4593 61.092 16.6668 45.5855 13.9454C30.0789 11.2241 15.2995 21.6043 12.5747 37.1304C9.84987 52.6565 20.2115 67.449 35.7181 70.1704C51.2247 72.8918 66.0041 62.5115 68.7289 46.9854Z" fill="url(#paint15_radial_327_30094)"/>
            <path opacity="0.44" d="M24.6433 15.9436C24.6649 15.979 24.6952 16.0083 24.7314 16.0287C24.7676 16.0491 24.8083 16.0599 24.8499 16.06C24.8943 16.0601 24.9379 16.0477 24.9756 16.0243C25.0304 15.9909 25.0696 15.9372 25.0848 15.8749C25.0999 15.8126 25.0897 15.7468 25.0564 15.692L20.1463 7.61091C20.1129 7.55613 20.0592 7.51685 19.9969 7.50171C19.9345 7.48657 19.8687 7.4968 19.814 7.53016C19.7592 7.56352 19.7199 7.61727 19.7048 7.67959C19.6896 7.74191 19.6999 7.8077 19.7332 7.86247L24.6433 15.9436ZM55.6368 65.7725C55.6028 65.7184 55.549 65.6798 55.487 65.6647C55.4249 65.6496 55.3595 65.6593 55.3044 65.6917C55.2497 65.7251 55.2105 65.7789 55.1953 65.8412C55.1802 65.9035 55.1904 65.9692 55.2237 66.024L60.1354 74.1059C60.157 74.1413 60.1873 74.1707 60.2235 74.1911C60.2596 74.2114 60.3004 74.2222 60.3419 74.2224C60.3864 74.2224 60.4299 74.2101 60.4677 74.1866C60.5224 74.1532 60.5617 74.0995 60.5768 74.0372C60.592 73.9749 60.5818 73.9091 60.5485 73.8543L55.6368 65.7725ZM23.592 57.6432L21.6105 59.5137C21.4868 59.6302 21.4144 59.7912 21.4093 59.9611C21.4042 60.131 21.4668 60.296 21.5834 60.4198C21.6999 60.5435 21.8608 60.6159 22.0308 60.621C22.2007 60.6261 22.3657 60.5635 22.4894 60.4469L24.4709 58.5765C24.5946 58.46 24.667 58.299 24.6721 58.1291C24.6772 57.9592 24.6146 57.7942 24.4981 57.6704C24.3815 57.5467 24.2206 57.4743 24.0506 57.4692C23.8807 57.4641 23.7157 57.5267 23.592 57.6432ZM63.3778 35.4615L60.8093 36.3684C60.6667 36.4187 60.5464 36.5178 60.4698 36.6483C60.3932 36.7787 60.3651 36.932 60.3905 37.0811C60.416 37.2302 60.4933 37.3655 60.6089 37.4631C60.7245 37.5608 60.8708 37.6144 61.0221 37.6145C61.0946 37.6147 61.1665 37.6023 61.2348 37.5781L63.8032 36.6712C63.9637 36.6148 64.0951 36.4969 64.1686 36.3436C64.2422 36.1903 64.2518 36.014 64.1954 35.8536C64.1389 35.6932 64.0211 35.5618 63.8678 35.4882C63.7144 35.4147 63.5382 35.4051 63.3778 35.4615ZM21.6866 30.6515C21.6134 30.6094 21.5326 30.5823 21.4488 30.5715C21.365 30.5608 21.28 30.5667 21.1985 30.5889C21.117 30.6112 21.0408 30.6493 20.9741 30.7011C20.9074 30.7529 20.8515 30.8173 20.8098 30.8907C20.7681 30.9642 20.7413 31.0451 20.7309 31.1289C20.7206 31.2127 20.7269 31.2978 20.7495 31.3791C20.7721 31.4605 20.8105 31.5366 20.8626 31.6031C20.9147 31.6695 20.9794 31.7251 21.053 31.7664L23.4212 33.1143C23.4944 33.1561 23.5751 33.183 23.6587 33.1936C23.7424 33.2041 23.8273 33.1981 23.9086 33.1757C23.9899 33.1534 24.0659 33.1153 24.1325 33.0636C24.199 33.0118 24.2547 32.9475 24.2964 32.8742C24.338 32.8009 24.3648 32.7201 24.3752 32.6365C24.3856 32.5528 24.3794 32.4679 24.3569 32.3867C24.3345 32.3054 24.2963 32.2294 24.2444 32.1629C24.1925 32.0965 24.1281 32.0409 24.0547 31.9994L21.6866 30.6515ZM34.8486 75.6455C34.7656 75.6307 34.6805 75.6324 34.5981 75.6507C34.5157 75.6689 34.4378 75.7033 34.3688 75.7518C34.2998 75.8003 34.2411 75.862 34.196 75.9333C34.151 76.0046 34.1205 76.0841 34.1063 76.1673L33.9014 77.3382C33.8723 77.5058 33.9108 77.6781 34.0087 77.8173C34.1065 77.9564 34.2556 78.0511 34.4231 78.0805C34.4596 78.0866 34.4964 78.0897 34.5334 78.0898C34.6844 78.0897 34.8305 78.0364 34.9461 77.9393C35.0617 77.8422 35.1393 77.7074 35.1654 77.5587L35.3704 76.3878C35.3995 76.2202 35.3609 76.0479 35.2631 75.9087C35.1653 75.7696 35.0162 75.6749 34.8486 75.6455ZM44.3055 12.9939C44.3424 13.0006 44.3799 13.004 44.4174 13.004C44.5682 13.0037 44.7141 12.9505 44.8296 12.8535C44.9451 12.7566 45.0229 12.6222 45.0494 12.4737L45.2559 11.3028C45.285 11.1355 45.2466 10.9633 45.1491 10.8242C45.0516 10.6851 44.903 10.5903 44.7357 10.5605C44.6525 10.5441 44.5669 10.5446 44.484 10.5621C44.401 10.5796 44.3224 10.6136 44.253 10.6622C44.1835 10.7108 44.1246 10.7729 44.0797 10.8448C44.0348 10.9168 44.005 10.997 43.9919 11.0807L43.7853 12.2516C43.7562 12.419 43.7946 12.5911 43.8921 12.7302C43.9896 12.8694 44.1383 12.9642 44.3055 12.9939ZM79.2278 53.7099L78.0927 53.3597C78.0122 53.3347 77.9275 53.3258 77.8436 53.3335C77.7597 53.3412 77.6781 53.3654 77.6035 53.4047C77.5289 53.4439 77.4628 53.4975 77.4089 53.5624C77.3551 53.6272 77.3145 53.702 77.2896 53.7826C77.2647 53.8631 77.2559 53.9478 77.2638 54.0317C77.2716 54.1156 77.2959 54.1972 77.3353 54.2717C77.3747 54.3462 77.4284 54.4122 77.4934 54.466C77.5583 54.5197 77.6332 54.5602 77.7138 54.5849L78.8489 54.9351C78.9295 54.9601 79.0141 54.9689 79.0981 54.9611C79.1821 54.9533 79.2637 54.929 79.3382 54.8896C79.4128 54.8502 79.4789 54.7965 79.5327 54.7316C79.5865 54.6667 79.6269 54.5918 79.6517 54.5112C79.7017 54.3487 79.6852 54.173 79.6057 54.0227C79.5262 53.8725 79.3903 53.76 79.2278 53.7099ZM2.4762 29.7679L1.35503 29.3711C1.19475 29.3148 1.01869 29.3244 0.865453 29.3977C0.712214 29.4711 0.594304 29.6021 0.537572 29.7623C0.480841 29.9224 0.489919 30.0985 0.562816 30.2519C0.635714 30.4054 0.766481 30.5236 0.926446 30.5808L2.04761 30.9776C2.20797 31.0342 2.38427 31.0249 2.53776 30.9516C2.69125 30.8783 2.80937 30.7471 2.86617 30.5868C2.92297 30.4265 2.9138 30.2502 2.84068 30.0966C2.76756 29.9431 2.63646 29.8248 2.4762 29.7679Z" fill="url(#paint16_radial_327_30094)"/>
            <path style="mix-blend-mode:overlay" d="M54.1227 55.1074C54.1805 55.1686 54.2257 55.2406 54.2557 55.3192C54.2857 55.3979 54.3 55.4816 54.2976 55.5658C54.2952 55.6499 54.2763 55.7328 54.2419 55.8096C54.2075 55.8864 54.1583 55.9557 54.0971 56.0135C54.0359 56.0713 53.964 56.1165 53.8853 56.1465C53.8067 56.1765 53.7229 56.1908 53.6388 56.1884C53.5546 56.186 53.4718 56.1671 53.3949 56.1327C53.3181 56.0983 53.2488 56.0491 53.191 55.9879L43.1584 45.3618L53.8634 62.9773C53.8967 63.0321 53.907 63.0979 53.8918 63.1602C53.8767 63.2225 53.8374 63.2762 53.7827 63.3096C53.7449 63.333 53.7013 63.3454 53.6569 63.3453C53.6154 63.3452 53.5746 63.3344 53.5384 63.314C53.5023 63.2937 53.4719 63.2643 53.4504 63.2289L50.3047 58.0527L41.5702 43.6796L41.3687 43.4665L40.8737 60.6798C40.8688 60.8466 40.799 61.0049 40.6793 61.1211C40.5596 61.2374 40.3993 61.3024 40.2324 61.3025H40.2138C40.0438 61.2972 39.8828 61.2248 39.7661 61.1011C39.6494 60.9774 39.5865 60.8125 39.5911 60.6425L40.0111 46.0377L36.5615 60.1767C36.5541 60.2076 36.5407 60.2369 36.522 60.2626C36.5033 60.2884 36.4797 60.3102 36.4525 60.3268C36.4253 60.3434 36.3951 60.3545 36.3637 60.3594C36.3322 60.3643 36.3001 60.3629 36.2691 60.3553C36.2382 60.3477 36.2091 60.3341 36.1834 60.3152C36.1578 60.2964 36.1361 60.2726 36.1197 60.2453C36.1033 60.218 36.0924 60.1877 36.0878 60.1562C36.0831 60.1247 36.0847 60.0926 36.0925 60.0618L40.0775 43.7284L40.0861 43.4305L27.5657 55.2518C27.5045 55.31 27.4324 55.3556 27.3536 55.3859C27.2747 55.4162 27.1907 55.4306 27.1062 55.4283C27.0218 55.426 26.9387 55.407 26.8616 55.3725C26.7845 55.338 26.7149 55.2887 26.657 55.2272C26.599 55.1658 26.5538 55.0935 26.5238 55.0145C26.4938 54.9356 26.4798 54.8515 26.4824 54.767C26.485 54.6826 26.5043 54.5995 26.5391 54.5226C26.5739 54.4456 26.6236 54.3763 26.6853 54.3186L37.3103 44.2874L19.6958 54.9917C19.6581 55.0152 19.6145 55.0275 19.5701 55.0275C19.5173 55.0274 19.466 55.01 19.424 54.9781C19.382 54.9462 19.3516 54.9015 19.3373 54.8507C19.3231 54.7999 19.3258 54.7458 19.3451 54.6967C19.3644 54.6476 19.3993 54.6062 19.4443 54.5787L24.6199 51.4335L38.9928 42.699L39.2059 42.4976L23.6386 42.0502C23.4686 42.045 23.3076 41.9726 23.1909 41.8489C23.0742 41.7252 23.0112 41.5603 23.0159 41.3903C23.0335 41.2248 23.1097 41.0711 23.2307 40.9569C23.3518 40.8427 23.5096 40.7756 23.6758 40.7676L36.6321 41.1399L22.4957 37.6906C22.4336 37.6751 22.3801 37.6357 22.3469 37.5808C22.3138 37.526 22.3037 37.4603 22.3189 37.3981C22.3341 37.3359 22.3733 37.2822 22.428 37.2488C22.4827 37.2155 22.5483 37.2051 22.6106 37.22L38.9483 41.2064L39.2434 41.215L27.4214 28.6941C27.3636 28.6329 27.3184 28.5609 27.2884 28.4823C27.2584 28.4036 27.2442 28.3199 27.2466 28.2357C27.249 28.1516 27.2679 28.0687 27.3023 27.9919C27.3367 27.9151 27.3859 27.8458 27.4471 27.788C27.5083 27.7302 27.5802 27.685 27.6589 27.655C27.7375 27.625 27.8213 27.6108 27.9054 27.6131C27.9896 27.6155 28.0724 27.6344 28.1492 27.6688C28.2261 27.7032 28.2954 27.7524 28.3532 27.8136L38.3856 38.4397L27.6806 20.8242C27.6473 20.7694 27.6371 20.7036 27.6522 20.6413C27.6673 20.579 27.7066 20.5252 27.7614 20.4919C27.8162 20.4585 27.882 20.4483 27.9443 20.4634C28.0066 20.4786 28.0603 20.5178 28.0937 20.5726L31.239 25.7487L39.9739 40.1219L40.1754 40.335L40.6703 23.1217C40.6882 22.9563 40.7645 22.8028 40.8854 22.6886C41.0064 22.5745 41.1642 22.5072 41.3303 22.499C41.5003 22.5043 41.6613 22.5767 41.778 22.7004C41.8947 22.8241 41.9576 22.989 41.953 23.159L41.5329 37.7638L44.9826 23.6248C44.9896 23.5937 45.0028 23.5643 45.0214 23.5384C45.04 23.5125 45.0636 23.4906 45.0909 23.474C45.1181 23.4574 45.1484 23.4465 45.18 23.4418C45.2115 23.4372 45.2437 23.439 45.2745 23.447C45.3368 23.4624 45.3904 23.5019 45.4236 23.5567C45.4568 23.6116 45.4669 23.6774 45.4516 23.7397L41.4665 40.0731L41.458 40.3717L53.9799 28.5497C54.1036 28.4332 54.2686 28.3705 54.4385 28.3756C54.6085 28.3807 54.7694 28.4531 54.886 28.5769C55.0025 28.7006 55.0651 28.8656 55.06 29.0356C55.0549 29.2055 54.9825 29.3664 54.8588 29.483L44.2353 39.5132L61.8482 28.8098C61.903 28.7765 61.9688 28.7662 62.0311 28.7814C62.0934 28.7965 62.1472 28.8358 62.1805 28.8906C62.2139 28.9453 62.2241 29.0111 62.209 29.0734C62.1938 29.1358 62.1545 29.1895 62.0998 29.2229L56.9241 32.3681L42.5532 41.1012L42.3389 41.3039L57.9055 41.7513C58.074 41.7561 58.2338 41.827 58.3505 41.9488C58.4671 42.0705 58.5311 42.2332 58.5286 42.4018C58.5262 42.5704 58.4575 42.7312 58.3374 42.8495C58.2173 42.9678 58.0554 43.034 57.8869 43.0339H57.8682L44.9119 42.6616L59.0484 46.1109C59.0794 46.1184 59.1086 46.1319 59.1344 46.1506C59.1602 46.1694 59.182 46.1931 59.1987 46.2203C59.2153 46.2475 59.2263 46.2777 59.2312 46.3092C59.2361 46.3408 59.2348 46.3729 59.2272 46.4039C59.2196 46.4349 59.206 46.4641 59.1872 46.4898C59.1683 46.5155 59.1445 46.5372 59.1172 46.5537C59.0899 46.5702 59.0597 46.5811 59.0281 46.5859C58.9966 46.5907 58.9644 46.5892 58.9335 46.5815L42.5959 42.5951L42.3008 42.5865L54.1227 55.1074ZM24.6433 15.9436C24.6649 15.979 24.6952 16.0083 24.7314 16.0287C24.7676 16.0491 24.8083 16.0599 24.8499 16.06C24.8943 16.0601 24.9379 16.0477 24.9756 16.0243C25.0304 15.9909 25.0696 15.9372 25.0848 15.8749C25.0999 15.8126 25.0897 15.7468 25.0564 15.692L20.1463 7.61091C20.1129 7.55613 20.0592 7.51685 19.9969 7.50171C19.9345 7.48657 19.8687 7.4968 19.814 7.53016C19.7592 7.56352 19.7199 7.61727 19.7048 7.67959C19.6896 7.74191 19.6999 7.8077 19.7332 7.86247L24.6433 15.9436ZM55.6368 65.7725C55.6028 65.7184 55.549 65.6798 55.487 65.6647C55.4249 65.6496 55.3595 65.6593 55.3044 65.6917C55.2497 65.7251 55.2105 65.7789 55.1953 65.8412C55.1802 65.9035 55.1904 65.9692 55.2237 66.024L60.1354 74.1059C60.157 74.1413 60.1873 74.1707 60.2235 74.1911C60.2596 74.2114 60.3004 74.2222 60.3419 74.2224C60.3864 74.2224 60.4299 74.2101 60.4677 74.1866C60.5224 74.1532 60.5617 74.0995 60.5768 74.0372C60.592 73.9749 60.5818 73.9091 60.5485 73.8543L55.6368 65.7725ZM23.592 57.6432L21.6105 59.5137C21.4868 59.6302 21.4144 59.7912 21.4093 59.9611C21.4042 60.131 21.4668 60.296 21.5834 60.4198C21.6999 60.5435 21.8608 60.6159 22.0308 60.621C22.2007 60.6261 22.3657 60.5635 22.4894 60.4469L24.4709 58.5765C24.5946 58.46 24.667 58.299 24.6721 58.1291C24.6772 57.9592 24.6146 57.7942 24.4981 57.6704C24.3815 57.5467 24.2206 57.4743 24.0506 57.4692C23.8807 57.4641 23.7157 57.5267 23.592 57.6432ZM63.3778 35.4615L60.8093 36.3684C60.6667 36.4187 60.5464 36.5178 60.4698 36.6483C60.3932 36.7787 60.3651 36.932 60.3905 37.0811C60.416 37.2302 60.4933 37.3655 60.6089 37.4631C60.7245 37.5608 60.8708 37.6144 61.0221 37.6145C61.0946 37.6147 61.1665 37.6023 61.2348 37.5781L63.8032 36.6712C63.9637 36.6148 64.0951 36.4969 64.1686 36.3436C64.2422 36.1903 64.2518 36.014 64.1954 35.8536C64.1389 35.6932 64.0211 35.5618 63.8678 35.4882C63.7144 35.4147 63.5382 35.4051 63.3778 35.4615ZM21.6866 30.6515C21.6134 30.6094 21.5326 30.5823 21.4488 30.5715C21.365 30.5608 21.28 30.5667 21.1985 30.5889C21.117 30.6112 21.0408 30.6493 20.9741 30.7011C20.9074 30.7529 20.8515 30.8173 20.8098 30.8907C20.7681 30.9642 20.7413 31.0451 20.7309 31.1289C20.7206 31.2127 20.7269 31.2978 20.7495 31.3791C20.7721 31.4605 20.8105 31.5366 20.8626 31.6031C20.9147 31.6695 20.9794 31.7251 21.053 31.7664L23.4212 33.1143C23.4944 33.1561 23.5751 33.183 23.6587 33.1936C23.7424 33.2041 23.8273 33.1981 23.9086 33.1757C23.9899 33.1534 24.0659 33.1153 24.1325 33.0636C24.199 33.0118 24.2547 32.9475 24.2964 32.8742C24.338 32.8009 24.3648 32.7201 24.3752 32.6365C24.3856 32.5528 24.3794 32.4679 24.3569 32.3867C24.3345 32.3054 24.2963 32.2294 24.2444 32.1629C24.1925 32.0965 24.1281 32.0409 24.0547 31.9994L21.6866 30.6515ZM34.8486 75.6455C34.7656 75.6307 34.6805 75.6324 34.5981 75.6507C34.5157 75.6689 34.4378 75.7033 34.3688 75.7518C34.2998 75.8003 34.2411 75.862 34.196 75.9333C34.151 76.0046 34.1205 76.0841 34.1063 76.1673L33.9014 77.3382C33.8723 77.5058 33.9108 77.6781 34.0087 77.8173C34.1065 77.9564 34.2556 78.0511 34.4231 78.0805C34.4596 78.0866 34.4964 78.0897 34.5334 78.0898C34.6844 78.0897 34.8305 78.0364 34.9461 77.9393C35.0617 77.8422 35.1393 77.7074 35.1654 77.5587L35.3704 76.3878C35.3995 76.2202 35.3609 76.0479 35.2631 75.9087C35.1653 75.7696 35.0162 75.6749 34.8486 75.6455ZM44.3055 12.9939C44.3424 13.0006 44.3799 13.004 44.4174 13.004C44.5682 13.0037 44.7141 12.9505 44.8296 12.8535C44.9451 12.7566 45.0229 12.6222 45.0494 12.4737L45.2559 11.3028C45.285 11.1355 45.2466 10.9633 45.1491 10.8242C45.0516 10.6851 44.903 10.5903 44.7357 10.5605C44.6525 10.5441 44.5669 10.5446 44.484 10.5621C44.401 10.5796 44.3224 10.6136 44.253 10.6622C44.1835 10.7108 44.1246 10.7729 44.0797 10.8448C44.0348 10.9168 44.005 10.997 43.9919 11.0807L43.7853 12.2516C43.7562 12.419 43.7946 12.5911 43.8921 12.7302C43.9896 12.8694 44.1383 12.9642 44.3055 12.9939ZM79.2278 53.7099L78.0927 53.3597C78.0122 53.3347 77.9275 53.3258 77.8436 53.3335C77.7597 53.3412 77.6781 53.3654 77.6035 53.4047C77.5289 53.4439 77.4628 53.4975 77.4089 53.5624C77.3551 53.6272 77.3145 53.702 77.2896 53.7826C77.2647 53.8631 77.2559 53.9478 77.2638 54.0317C77.2716 54.1156 77.2959 54.1972 77.3353 54.2717C77.3747 54.3462 77.4284 54.4122 77.4934 54.466C77.5583 54.5197 77.6332 54.5602 77.7138 54.5849L78.8489 54.9351C78.9295 54.9601 79.0141 54.9689 79.0981 54.9611C79.1821 54.9533 79.2637 54.929 79.3382 54.8896C79.4128 54.8502 79.4789 54.7965 79.5327 54.7316C79.5865 54.6667 79.6269 54.5918 79.6517 54.5112C79.7017 54.3487 79.6852 54.173 79.6057 54.0227C79.5262 53.8725 79.3903 53.76 79.2278 53.7099ZM2.4762 29.7679L1.35503 29.3711C1.19475 29.3148 1.01869 29.3244 0.865453 29.3977C0.712214 29.4711 0.594304 29.6021 0.537572 29.7623C0.480841 29.9224 0.489919 30.0985 0.562816 30.2519C0.635714 30.4054 0.766481 30.5236 0.926446 30.5808L2.04761 30.9776C2.20797 31.0342 2.38427 31.0249 2.53776 30.9516C2.69125 30.8783 2.80937 30.7471 2.86617 30.5868C2.92297 30.4265 2.9138 30.2502 2.84068 30.0966C2.76756 29.9431 2.63646 29.8248 2.4762 29.7679Z" fill="url(#paint17_radial_327_30094)"/>
            <path d="M48.8365 29.9287L43.7795 35.0507L40.6517 42.0577" stroke="url(#paint18_linear_327_30094)" stroke-width="1.5" stroke-linecap="round" stroke-linejoin="round"/>
            <path d="M52.9766 22.9583L46.1556 29.8679C45.8298 30.1979 45.8333 30.7294 46.1632 31.0551L47.6122 32.4855C47.9422 32.8112 48.4737 32.8078 48.7994 32.4779L55.6204 25.5683C55.9461 25.2384 55.9427 24.7068 55.6127 24.3811L54.1637 22.9507C53.8338 22.625 53.3023 22.6284 52.9766 22.9583Z" fill="url(#paint19_linear_327_30094)"/>
            <path d="M55.0332 20.068L48.2122 26.9775C47.8865 27.3075 47.8899 27.839 48.2199 28.1647L50.4759 30.3918C50.8058 30.7175 51.3373 30.7141 51.663 30.3841L58.484 23.4746C58.8097 23.1446 58.8063 22.6131 58.4764 22.2874L56.2204 20.0603C55.8904 19.7346 55.3589 19.738 55.0332 20.068Z" fill="url(#paint20_linear_327_30094)"/>
            <path d="M71.462 17.3655C65.3299 20.7971 63.7567 21.9034 59.2886 27.3269C59.0309 27.5638 58.7244 27.7414 58.3907 27.8472C58.057 27.9531 57.7042 27.9845 57.3571 27.9394C57.0099 27.8943 56.6769 27.7737 56.3813 27.5861C56.0858 27.3985 55.8349 27.1484 55.6463 26.8535L52.4425 23.0181C52.0292 22.5957 51.7714 22.0456 51.7111 21.4578C51.6507 20.8699 51.7914 20.2789 52.1101 19.7813C56.8434 13.9769 58.7603 12.5835 65.3145 8.95871C65.8609 8.73362 66.4675 8.70037 67.0352 8.8644C67.603 9.02843 68.0984 9.38004 68.4406 9.86186L71.6444 13.6971C71.9011 13.9352 72.1025 14.2265 72.2345 14.5508C72.3665 14.875 72.4259 15.2242 72.4085 15.5738C72.3912 15.9235 72.2974 16.265 72.1339 16.5746C71.9704 16.8841 71.741 17.1541 71.462 17.3655Z" fill="url(#paint21_linear_327_30094)"/>
            <path d="M69.5868 19.9102C73.401 19.9102 76.4931 16.8182 76.4931 13.0039C76.4931 9.1897 73.401 6.09766 69.5868 6.09766C65.7726 6.09766 62.6805 9.1897 62.6805 13.0039C62.6805 16.8182 65.7726 19.9102 69.5868 19.9102Z" fill="url(#paint22_linear_327_30094)"/>
            <path d="M69.5868 17.8873C72.2839 17.8873 74.4703 15.7009 74.4703 13.0038C74.4703 10.3068 72.2839 8.12036 69.5868 8.12036C66.8898 8.12036 64.7034 10.3068 64.7034 13.0038C64.7034 15.7009 66.8898 17.8873 69.5868 17.8873Z" fill="url(#paint23_linear_327_30094)"/>
        </g>
    </g>
    <defs>
        <linearGradient id="paint0_linear_327_30094" x1="55.4187" y1="112.197" x2="117.936" y2="37.6921" gradientUnits="userSpaceOnUse">
            <stop offset="0.18391" stop-color="#ADB8CC"/>
            <stop offset="0.20291" stop-color="#B2BCCF"/>
            <stop offset="0.38929" stop-color="#DCE0E9"/>
            <stop offset="0.53568" stop-color="#F5F7F9"/>
            <stop offset="0.6231" stop-color="white"/>
        </linearGradient>
        <linearGradient id="paint1_linear_327_30094" x1="78.7177" y1="104" x2="78.7177" y2="93.1858" gradientUnits="userSpaceOnUse">
            <stop stop-color="#1B2B40"/>
            <stop offset="0.23305" stop-color="#283B53"/>
            <stop offset="0.70535" stop-color="#486386"/>
            <stop offset="1" stop-color="#5E7FA8"/>
        </linearGradient>
        <linearGradient id="paint2_linear_327_30094" x1="71.7991" y1="45.1249" x2="90.2027" y2="23.1924" gradientUnits="userSpaceOnUse">
            <stop offset="0.18391" stop-color="#ADB8CC"/>
            <stop offset="0.21426" stop-color="#B2BCCF"/>
            <stop offset="0.51207" stop-color="#DCE0E9"/>
            <stop offset="0.74597" stop-color="#F5F7F9"/>
            <stop offset="0.88564" stop-color="white"/>
        </linearGradient>
        <linearGradient id="paint3_linear_327_30094" x1="87.3285" y1="44.479" x2="104.018" y2="50.2208" gradientUnits="userSpaceOnUse">
            <stop stop-color="#89929E"/>
            <stop offset="0.47564" stop-color="#A6B5BF"/>
            <stop offset="0.62504" stop-color="#B0C1CB"/>
            <stop offset="0.64286" stop-color="#ACBBC6"/>
            <stop offset="0.69943" stop-color="#A3B0BC"/>
            <stop offset="0.77895" stop-color="#9DA9B7"/>
            <stop offset="1" stop-color="#9CA7B5"/>
        </linearGradient>
        <linearGradient id="paint4_linear_327_30094" x1="90.468" y1="45.5591" x2="100.878" y2="49.1407" gradientUnits="userSpaceOnUse">
            <stop stop-color="#1B2B40"/>
            <stop offset="0.22519" stop-color="#1D2D43"/>
            <stop offset="0.39543" stop-color="#23354D"/>
            <stop offset="0.54715" stop-color="#2D425D"/>
            <stop offset="0.68537" stop-color="#3B5473"/>
            <stop offset="0.74341" stop-color="#354C6A"/>
            <stop offset="0.83994" stop-color="#253850"/>
            <stop offset="0.89024" stop-color="#1B2B40"/>
        </linearGradient>
        <linearGradient id="paint5_linear_327_30094" x1="15.8479" y1="89.2543" x2="63.7028" y2="41.3994" gradientUnits="userSpaceOnUse">
            <stop stop-color="#ABABAB"/>
            <stop offset="0.08494" stop-color="#C5C5C5"/>
            <stop offset="0.21028" stop-color="#F2F2F2"/>
            <stop offset="0.21896" stop-color="#EDEEEE"/>
            <stop offset="0.23724" stop-color="#E6E8E9"/>
            <stop offset="0.25582" stop-color="#E1E4E6"/>
            <stop offset="0.32656" stop-color="#D6D9DD"/>
            <stop offset="0.42599" stop-color="#CFD3D7"/>
            <stop offset="0.70234" stop-color="#CDD1D6"/>
            <stop offset="0.75372" stop-color="#BFC5C7"/>
            <stop offset="0.91615" stop-color="#97A39C"/>
            <stop offset="0.9991" stop-color="#87968C"/>
        </linearGradient>
        <linearGradient id="paint6_linear_327_30094" x1="11.8229" y1="93.2793" x2="60.1821" y2="44.9202" gradientUnits="userSpaceOnUse">
            <stop stop-color="#9DABB0"/>
            <stop offset="0.15535" stop-color="#FFEBF1"/>
            <stop offset="0.31329" stop-color="#97B0BD"/>
            <stop offset="0.70528" stop-color="#FFEDFC"/>
            <stop offset="1" stop-color="#80A6A2"/>
        </linearGradient>
        <linearGradient id="paint7_linear_327_30094" x1="18.645" y1="86.4574" x2="52.9402" y2="52.1622" gradientUnits="userSpaceOnUse">
            <stop stop-color="#ABABAB"/>
            <stop offset="0.08494" stop-color="#C5C5C5"/>
            <stop offset="0.21028" stop-color="#F2F2F2"/>
            <stop offset="0.21896" stop-color="#EDEEEE"/>
            <stop offset="0.23724" stop-color="#E6E8E9"/>
            <stop offset="0.25582" stop-color="#E1E4E6"/>
            <stop offset="0.32656" stop-color="#D6D9DD"/>
            <stop offset="0.42599" stop-color="#CFD3D7"/>
            <stop offset="0.70234" stop-color="#CDD1D6"/>
            <stop offset="0.75372" stop-color="#BFC5C7"/>
            <stop offset="0.91615" stop-color="#97A39C"/>
            <stop offset="0.9991" stop-color="#87968C"/>
        </linearGradient>
        <linearGradient id="paint8_linear_327_30094" x1="9.37891" y1="69.0998" x2="62.6265" y2="69.0998" gradientUnits="userSpaceOnUse">
            <stop stop-color="#9DABB0"/>
            <stop offset="0.15535" stop-color="#FFEBF1"/>
            <stop offset="0.31329" stop-color="#97B0BD"/>
            <stop offset="0.70528" stop-color="#FFEDFC"/>
            <stop offset="1" stop-color="#80A6A2"/>
        </linearGradient>
        <linearGradient id="paint9_linear_327_30094" x1="12.0751" y1="93.0272" x2="59.9299" y2="45.1723" gradientUnits="userSpaceOnUse">
            <stop offset="0.3383" stop-color="#FBB8FF" stop-opacity="0"/>
            <stop offset="0.44854" stop-color="#F8ACD9" stop-opacity="0.36483"/>
            <stop offset="0.6447" stop-color="#F29898"/>
            <stop offset="0.76139" stop-color="#F5A08D"/>
            <stop offset="0.9641" stop-color="#FDB771"/>
            <stop offset="1" stop-color="#FFBB6B"/>
        </linearGradient>
        <linearGradient id="paint10_linear_327_30094" x1="18.7555" y1="98.9726" x2="53.2496" y2="39.227" gradientUnits="userSpaceOnUse">
            <stop stop-color="#EDEDED"/>
            <stop offset="0.66412" stop-color="#BFBDD4"/>
            <stop offset="1" stop-color="#FF52E2"/>
        </linearGradient>
        <linearGradient id="paint11_linear_327_30094" x1="18.645" y1="86.4574" x2="52.9402" y2="52.1622" gradientUnits="userSpaceOnUse">
            <stop offset="0.3383" stop-color="#FBB8FF" stop-opacity="0"/>
            <stop offset="0.44854" stop-color="#F8ACD9" stop-opacity="0.36483"/>
            <stop offset="0.6447" stop-color="#F29898"/>
            <stop offset="0.76139" stop-color="#F5A08D"/>
            <stop offset="0.9641" stop-color="#FDB771"/>
            <stop offset="1" stop-color="#FFBB6B"/>
        </linearGradient>
        <linearGradient id="paint12_linear_327_30094" x1="22.5418" y1="92.4146" x2="49.4634" y2="45.785" gradientUnits="userSpaceOnUse">
            <stop stop-color="#EDEDED"/>
            <stop offset="0.66412" stop-color="#BFBDD4"/>
            <stop offset="1" stop-color="#FF52E2"/>
        </linearGradient>
        <linearGradient id="paint13_linear_327_30094" x1="11.6154" y1="93.4868" x2="60.3896" y2="44.7127" gradientUnits="userSpaceOnUse">
            <stop offset="0.29343" stop-color="#FF75AF" stop-opacity="0"/>
            <stop offset="0.49608" stop-color="#FEA7B7" stop-opacity="0.42331"/>
            <stop offset="0.70366" stop-color="#FCD8C0" stop-opacity="0.83529"/>
            <stop offset="0.79668" stop-color="#FCEBC3"/>
            <stop offset="0.98813" stop-color="#F7C652"/>
        </linearGradient>
        <linearGradient id="paint14_linear_327_30094" x1="45.5138" y1="43.9179" x2="26.4917" y2="94.282" gradientUnits="userSpaceOnUse">
            <stop stop-color="white"/>
            <stop offset="0.21228" stop-color="#F9D47C"/>
            <stop offset="0.27945" stop-color="#F7C652"/>
            <stop offset="0.31567" stop-color="#F7BF51" stop-opacity="0.97369"/>
            <stop offset="0.37487" stop-color="#F8AA4D" stop-opacity="0.90223"/>
            <stop offset="0.44966" stop-color="#F88947" stop-opacity="0.78577"/>
            <stop offset="0.53623" stop-color="#F95B3F" stop-opacity="0.62595"/>
            <stop offset="0.59513" stop-color="#FA3939" stop-opacity="0.50513"/>
            <stop offset="0.67939" stop-color="#FC4D60" stop-opacity="0.33971"/>
            <stop offset="0.83472" stop-color="#FF75AF" stop-opacity="0"/>
        </linearGradient>
        <radialGradient id="paint15_radial_327_30094" cx="0" cy="0" r="1" gradientUnits="userSpaceOnUse" gradientTransform="translate(40.6519 42.058) rotate(9.95392) scale(28.5063 28.5421)">
            <stop stop-color="#FF6EED"/>
            <stop offset="0.04271" stop-color="#FF70DF" stop-opacity="0.91872"/>
            <stop offset="0.17933" stop-color="#FF75B4" stop-opacity="0.67871"/>
            <stop offset="0.315" stop-color="#FF798F" stop-opacity="0.47157"/>
            <stop offset="0.4464" stop-color="#FF7D71" stop-opacity="0.30229"/>
            <stop offset="0.57274" stop-color="#FF7F59" stop-opacity="0.17063"/>
            <stop offset="0.69268" stop-color="#FF8149" stop-opacity="0.07644"/>
            <stop offset="0.80361" stop-color="#FF833E" stop-opacity="0.01958"/>
            <stop offset="0.8968" stop-color="#FF833B" stop-opacity="0"/>
        </radialGradient>
        <radialGradient id="paint16_radial_327_30094" cx="0" cy="0" r="1" gradientUnits="userSpaceOnUse" gradientTransform="translate(41.6126 41.5515) scale(37.5053 37.5053)">
            <stop stop-color="white"/>
            <stop offset="0.18301" stop-color="#FFFEFC"/>
            <stop offset="0.33597" stop-color="#FEFBF1"/>
            <stop offset="0.47807" stop-color="#FEF5E0"/>
            <stop offset="0.61366" stop-color="#FCEDC8"/>
            <stop offset="0.74463" stop-color="#FBE2A8"/>
            <stop offset="0.87212" stop-color="#F9D681"/>
            <stop offset="0.99467" stop-color="#F7C754"/>
            <stop offset="1" stop-color="#F7C652"/>
        </radialGradient>
        <radialGradient id="paint17_radial_327_30094" cx="0" cy="0" r="1" gradientUnits="userSpaceOnUse" gradientTransform="translate(41.6126 41.5515) scale(37.5053 37.5053)">
            <stop stop-color="white"/>
            <stop offset="0.04372" stop-color="#FFFDFA"/>
            <stop offset="0.09828" stop-color="#FEF8EA"/>
            <stop offset="0.15859" stop-color="#FDF0D1"/>
            <stop offset="0.22307" stop-color="#FBE4AD"/>
            <stop offset="0.29011" stop-color="#F9D580"/>
            <stop offset="0.34946" stop-color="#F7C652"/>
            <stop offset="0.49557" stop-color="#F8B656"/>
            <stop offset="0.77968" stop-color="#FC8C5F"/>
            <stop offset="1" stop-color="#FF6868"/>
        </radialGradient>
        <linearGradient id="paint18_linear_327_30094" x1="39.0073" y1="41.8047" x2="50.4813" y2="30.1817" gradientUnits="userSpaceOnUse">
            <stop stop-color="white"/>
            <stop offset="0.02181" stop-color="#FFFDFA"/>
            <stop offset="0.04904" stop-color="#FFF9EA"/>
            <stop offset="0.07916" stop-color="#FFF1D1"/>
            <stop offset="0.11135" stop-color="#FFE7AD"/>
            <stop offset="0.14486" stop-color="#FFD980"/>
            <stop offset="0.1524" stop-color="#FFD675"/>
            <stop offset="0.16234" stop-color="#FFC973"/>
            <stop offset="0.19656" stop-color="#FFA36B"/>
            <stop offset="0.23052" stop-color="#FF8565"/>
            <stop offset="0.26374" stop-color="#FF6F61"/>
            <stop offset="0.29588" stop-color="#FF625F"/>
            <stop offset="0.3257" stop-color="#FF5E5E"/>
            <stop offset="0.57308" stop-color="#CFAAB3"/>
            <stop offset="0.66981" stop-color="#BCC9D6"/>
        </linearGradient>
        <linearGradient id="paint19_linear_327_30094" x1="46.4694" y1="31.4258" x2="55.3066" y2="24.0105" gradientUnits="userSpaceOnUse">
            <stop stop-color="#5E7FA8"/>
            <stop offset="0.29465" stop-color="#486386"/>
            <stop offset="0.76695" stop-color="#283B53"/>
            <stop offset="1" stop-color="#1B2B40"/>
        </linearGradient>
        <linearGradient id="paint20_linear_327_30094" x1="49.7325" y1="28.2599" x2="58.651" y2="20.7764" gradientUnits="userSpaceOnUse">
            <stop stop-color="#5E7FA8"/>
            <stop offset="0.29465" stop-color="#486386"/>
            <stop offset="0.76695" stop-color="#283B53"/>
            <stop offset="1" stop-color="#1B2B40"/>
        </linearGradient>
        <linearGradient id="paint21_linear_327_30094" x1="53.4029" y1="28.6436" x2="69.3584" y2="11.9253" gradientUnits="userSpaceOnUse">
            <stop offset="0.18391" stop-color="#ADB8CC"/>
            <stop offset="0.21426" stop-color="#B2BCCF"/>
            <stop offset="0.51207" stop-color="#DCE0E9"/>
            <stop offset="0.74597" stop-color="#F5F7F9"/>
            <stop offset="0.88564" stop-color="white"/>
        </linearGradient>
        <linearGradient id="paint22_linear_327_30094" x1="63.0562" y1="10.7571" x2="76.1174" y2="15.2507" gradientUnits="userSpaceOnUse">
            <stop stop-color="#89929E"/>
            <stop offset="0.47564" stop-color="#A6B5BF"/>
            <stop offset="0.62504" stop-color="#B0C1CB"/>
            <stop offset="0.64286" stop-color="#ACBBC6"/>
            <stop offset="0.69943" stop-color="#A3B0BC"/>
            <stop offset="0.77895" stop-color="#9DA9B7"/>
            <stop offset="1" stop-color="#9CA7B5"/>
        </linearGradient>
        <linearGradient id="paint23_linear_327_30094" x1="64.969" y1="11.4151" x2="74.2047" y2="14.5925" gradientUnits="userSpaceOnUse">
            <stop stop-color="#1B2B40"/>
            <stop offset="0.22519" stop-color="#1D2D43"/>
            <stop offset="0.39543" stop-color="#23354D"/>
            <stop offset="0.54715" stop-color="#2D425D"/>
            <stop offset="0.68537" stop-color="#3B5473"/>
            <stop offset="0.74341" stop-color="#354C6A"/>
            <stop offset="0.83994" stop-color="#253850"/>
            <stop offset="0.89024" stop-color="#1B2B40"/>
        </linearGradient>
        <clipPath id="clip0_327_30094">
            <rect width="104" height="104" fill="white"/>
        </clipPath>
        <clipPath id="clip1_327_30094">
            <rect width="104" height="104" fill="white" transform="translate(0.5)"/>
        </clipPath>
    </defs>
</svg>
