<svg width="98" height="98" viewBox="0 0 98 98" fill="none" xmlns="http://www.w3.org/2000/svg">
    <g clip-path="url(#clip0_423_12412)">
        <path d="M49 98C76.1543 98 98 76.1543 98 49C98 21.8457 76.1543 0 49 0C21.8457 0 0 21.8457 0 49C0 76.1543 21.8457 98 49 98Z" fill="#2775CA"/>
        <path d="M62.4749 56.7582C62.4749 49.6125 58.1874 47.1625 49.6124 46.1419C43.4874 45.325 42.2624 43.6919 42.2624 40.8332C42.2624 37.9745 44.3042 36.1375 48.3874 36.1375C52.0624 36.1375 54.1042 37.3625 55.1249 40.425C55.3292 41.0375 55.9417 41.4457 56.5542 41.4457H59.8205C60.6374 41.4457 61.2499 40.8332 61.2499 40.0169V39.8125C60.433 35.3207 56.758 31.85 52.0624 31.4419V26.5419C52.0624 25.725 51.4499 25.1125 50.4292 24.9082H47.3667C46.5499 24.9082 45.9374 25.5207 45.733 26.5419V31.2375C39.608 32.0544 35.7292 36.1375 35.7292 41.2419C35.7292 47.9794 39.8124 50.6332 48.3874 51.6544C54.1042 52.675 55.9417 53.9 55.9417 57.1669C55.9417 60.4337 53.083 62.6794 49.2042 62.6794C43.8955 62.6794 42.058 60.4332 41.4455 57.3707C41.2417 56.5544 40.6292 56.1457 40.0167 56.1457H36.5455C35.7292 56.1457 35.1167 56.7582 35.1167 57.575V57.7794C35.933 62.8832 39.1999 66.5582 45.9374 67.5794V72.4794C45.9374 73.2957 46.5499 73.9082 47.5705 74.1125H50.633C51.4499 74.1125 52.0624 73.5 52.2667 72.4794V67.5794C58.3917 66.5582 62.4749 62.2707 62.4749 56.7582Z" fill="white"/>
        <path d="M38.5876 78.1956C22.6626 72.4793 14.4957 54.7168 20.4169 38.9956C23.4794 30.4206 30.2169 23.8874 38.5876 20.8249C39.4044 20.4167 39.8126 19.8042 39.8126 18.7831V15.9249C39.8126 15.1081 39.4044 14.4956 38.5876 14.2917C38.3832 14.2917 37.9751 14.2917 37.7707 14.4956C18.3751 20.6206 7.75824 41.2418 13.8832 60.6374C17.5582 72.0706 26.3376 80.8499 37.7707 84.5249C38.5876 84.9331 39.4044 84.5249 39.6082 83.7081C39.8126 83.5043 39.8126 83.2999 39.8126 82.8918V80.0331C39.8126 79.4206 39.2001 78.6043 38.5876 78.1956ZM60.2294 14.4956C59.4126 14.0874 58.5958 14.4956 58.3919 15.3124C58.1876 15.5167 58.1876 15.7206 58.1876 16.1292V18.9874C58.1876 19.8042 58.8001 20.6206 59.4126 21.0293C75.3376 26.7456 83.5044 44.5081 77.5833 60.2293C74.5208 68.8043 67.7833 75.3374 59.4126 78.3999C58.5957 78.8081 58.1876 79.4206 58.1876 80.4418V83.2999C58.1876 84.1168 58.5957 84.7293 59.4126 84.9331C59.6169 84.9331 60.0251 84.9331 60.2294 84.7293C79.6251 78.6043 90.2419 57.9831 84.1169 38.5874C80.4419 26.9499 71.4583 18.1706 60.2294 14.4956Z" fill="white"/>
    </g>
    <defs>
        <clipPath id="clip0_423_12412">
            <rect width="98" height="98" fill="white"/>
        </clipPath>
    </defs>
</svg>
