<svg width="40" height="40" viewBox="0 0 40 40" fill="none" xmlns="http://www.w3.org/2000/svg">
    <g clip-path="url(#clip0_235_3859)">
        <path fill-rule="evenodd" clip-rule="evenodd" d="M19.968 1.58615C18.5042 1.58615 15.8242 2.18124 13.0429 2.93852L13.0412 2.93897C10.2837 3.68328 7.4913 4.56904 5.84615 5.10916L5.84591 5.10923C5.47573 5.23064 5.14202 5.45901 4.89031 5.76308C4.64414 6.06045 4.48405 6.42337 4.4291 6.8098C4.42836 6.81678 4.42753 6.82376 4.4266 6.83072C2.99148 17.6131 6.31379 25.524 10.2975 30.7343C10.3129 30.7544 10.3272 30.7752 10.3405 30.7965C12.0181 33.0007 14.015 34.9451 16.2656 36.5614C17.1685 37.1996 17.9794 37.6691 18.635 37.9776L18.637 37.9785C19.3094 38.2972 19.7627 38.4138 19.9652 38.4138C20.1645 38.4138 20.6131 38.298 21.2861 37.9822C22.1168 37.5797 22.9088 37.106 23.6595 36.5661L23.6604 36.5654C25.9194 34.9453 27.9211 32.9953 29.6045 30.7838C29.6196 30.761 29.6359 30.7389 29.6534 30.7176C33.6306 25.507 36.9428 17.6024 35.5095 6.83349C35.5086 6.82652 35.5077 6.81955 35.507 6.81256C35.4521 6.42644 35.292 6.06247 35.0441 5.7611C34.7941 5.45702 34.4641 5.23069 34.0888 5.10604C31.7066 4.3248 29.3079 3.60134 26.89 2.93563C24.1071 2.18356 21.4316 1.58615 19.968 1.58615ZM12.627 1.40786C15.3719 0.660538 18.2567 0 19.968 0C21.6794 0 24.5628 0.663606 27.3057 1.40492L27.3093 1.4059C29.7529 2.07868 32.1771 2.80981 34.5844 3.5993L34.5869 3.6001C35.2456 3.81851 35.8281 4.21714 36.2692 4.75362C36.709 5.28834 36.9903 5.93548 37.0817 6.62127C37.0828 6.62935 37.0838 6.63744 37.0846 6.64555C38.5715 17.8605 35.1174 26.1691 30.9212 31.6709C30.9137 31.682 30.9058 31.6929 30.8977 31.7036C29.1131 34.0565 26.9872 36.1314 24.5851 37.8541C23.7606 38.4471 22.8889 38.9684 21.9732 39.4118L21.9649 39.4158C21.2628 39.7457 20.54 40 19.9652 40C19.3882 40 18.6638 39.7463 17.9593 39.4126C17.205 39.0576 16.3131 38.5376 15.3473 37.8547L15.3427 37.8513C12.9434 36.1287 10.8173 34.0537 9.03526 31.7003C9.02108 31.6816 9.0078 31.6623 8.99541 31.6426C4.80799 26.1406 1.36686 17.8403 2.85148 6.64276C2.85231 6.63466 2.85326 6.62658 2.85434 6.61851C2.94573 5.93305 3.22705 5.28489 3.66848 4.75164C4.10821 4.22044 4.69272 3.81821 5.35138 3.60214M12.627 1.40786C9.83088 2.16262 7.0089 3.05797 5.35162 3.60207L12.627 1.40786Z" fill="url(#paint0_linear_235_3859)"/>
        <path d="M25.571 19.3183H14.4287V11.8465C14.4287 10.369 15.0157 8.95193 16.0605 7.90714C17.1053 6.86235 18.5223 6.27539 19.9999 6.27539C21.4774 6.27539 22.8945 6.86235 23.9392 7.90714C24.984 8.95193 25.571 10.369 25.571 11.8465V19.3183ZM16.6145 17.1325H23.3852V11.8465C23.3852 10.9487 23.0286 10.0876 22.3937 9.4527C21.7588 8.81782 20.8977 8.46115 19.9999 8.46115C19.102 8.46115 18.2409 8.81782 17.606 9.4527C16.9711 10.0876 16.6145 10.9487 16.6145 11.8465V17.1325Z" fill="url(#paint1_linear_235_3859)"/>
        <path d="M24.692 14.5977H15.3082C13.7708 14.5977 12.5244 15.844 12.5244 17.3815V25.4759C12.5244 27.0134 13.7708 28.2597 15.3082 28.2597H24.692C26.2294 28.2597 27.4758 27.0134 27.4758 25.4759V17.3815C27.4758 15.844 26.2294 14.5977 24.692 14.5977Z" fill="url(#paint2_linear_235_3859)"/>
    </g>
    <defs>
        <linearGradient id="paint0_linear_235_3859" x1="3.75" y1="-4.58333" x2="33.3333" y2="48.3333" gradientUnits="userSpaceOnUse">
            <stop stop-color="#BE74C5"/>
            <stop offset="1" stop-color="#8C3495"/>
        </linearGradient>
        <linearGradient id="paint1_linear_235_3859" x1="14.8274" y1="4.78089" x2="24.5844" y2="21.8515" gradientUnits="userSpaceOnUse">
            <stop stop-color="#BE74C5"/>
            <stop offset="1" stop-color="#8C3495"/>
        </linearGradient>
        <linearGradient id="paint2_linear_235_3859" x1="13.0594" y1="13.0322" x2="21.8865" y2="32.8164" gradientUnits="userSpaceOnUse">
            <stop stop-color="#BE74C5"/>
            <stop offset="1" stop-color="#8C3495"/>
        </linearGradient>
        <clipPath id="clip0_235_3859">
            <rect width="40" height="40" fill="white"/>
        </clipPath>
    </defs>
</svg>
