<svg width="48" height="48" viewBox="0 0 48 48" fill="none" xmlns="http://www.w3.org/2000/svg">
    <rect width="48" height="48" rx="4" fill="#EBEBEE"/>
    <path fill-rule="evenodd" clip-rule="evenodd" d="M30.4012 10.0525C28.2423 10.4105 26.4489 11.6753 25.4676 13.5318C25.162 14.11 24.9151 14.8316 24.8025 15.4751C24.6402 16.4034 24.7195 17.7174 24.9898 18.5811L25.0996 18.9321L24.0715 19.9593L23.0434 20.9864L24.2561 22.1961L25.469 23.4058L25.8404 23.2914C26.6237 23.05 27.4102 23.2005 28.0349 23.7112L28.1947 23.8419L28.6722 23.3678L29.1497 22.8938L29.5008 23.0013C30.3857 23.2723 31.6552 23.3362 32.5854 23.1565C35.1923 22.6528 37.2304 20.7 37.8455 18.1164C37.9884 17.5162 38.0447 16.3763 37.9608 15.7826C37.911 15.4308 37.8785 15.3502 37.7342 15.2212C37.5513 15.0577 37.2722 15.0211 37.0559 15.1323C36.9899 15.1662 36.5259 15.597 36.0246 16.0895C35.2318 16.8684 35.0603 17.0099 34.7066 17.1764C33.0334 17.9641 31.073 17.0663 30.5943 15.2932C30.4977 14.9356 30.5109 14.1529 30.6197 13.7769C30.8042 13.1394 31.0097 12.8508 31.9937 11.8469C32.9072 10.915 32.9272 10.8896 32.9272 10.6605C32.9272 10.3916 32.8055 10.222 32.5283 10.1051C32.2664 9.99448 30.9474 9.96189 30.4012 10.0525ZM12.1732 11.7563C11.879 11.8608 10.2539 13.4642 10.0993 13.8027C9.97673 14.071 9.9965 14.3259 10.1617 14.6091C10.4373 15.0813 13.0286 18.5049 13.1747 18.5897C13.3529 18.6932 13.756 18.7164 13.9692 18.6356C14.0417 18.6081 14.2348 18.4616 14.3983 18.3101L14.6957 18.0346L19.2092 22.5332L23.7227 27.0318L23.3715 27.4031C23.1274 27.6612 23.0012 27.8453 22.9576 28.0068C22.8219 28.5093 22.6108 28.2701 27.4536 33.0993C32.1091 37.7415 32.0392 37.6781 32.7296 37.8884C33.3793 38.0863 34.1849 38.0175 34.8204 37.7099C35.1997 37.5264 35.8562 36.884 36.0424 36.5141C36.3479 35.9076 36.4364 35.1301 36.2724 34.4954C36.0701 33.7131 36.1831 33.8394 31.5032 29.1593C28.5742 26.2301 27.0886 24.7819 26.9379 24.709C26.5181 24.5059 26.2049 24.5964 25.7152 25.0623L25.399 25.3631L20.8831 20.8586L16.3672 16.3541L16.541 16.1916C17.139 15.6326 17.1917 14.9815 16.6726 14.566C16.3431 14.3022 12.9903 11.8549 12.8835 11.8002C12.6804 11.6961 12.393 11.6784 12.1732 11.7563ZM14.9064 29.1057C11.0231 32.9845 10.4853 33.5418 10.3347 33.8435C9.64335 35.2289 10.0474 36.7584 11.3217 37.58C11.7451 37.8529 12.2233 37.9853 12.8011 37.9895C13.3228 37.9933 13.6604 37.9151 14.1465 37.6776C14.4329 37.5378 14.9793 37.0155 18.3155 33.6931L22.1551 29.8696L22.0132 29.7015C21.7981 29.4464 21.5919 28.9877 21.5206 28.6055C21.4485 28.2188 21.5203 27.628 21.6758 27.3281L21.7633 27.1593L20.5354 25.9346L19.3075 24.7099L14.9064 29.1057Z" fill="#9696A5"/>
</svg>
