<svg width="40" height="40" viewBox="0 0 40 40" fill="none" xmlns="http://www.w3.org/2000/svg">
    <path fill-rule="evenodd" clip-rule="evenodd" d="M27.6399 0.937772C27.2751 1.06798 26.8629 1.37786 26.6159 1.70775C26.3913 2.0077 9.49105 35.2335 9.32794 35.6958C8.82713 37.1153 9.91683 38.6528 11.4239 38.6528C11.6983 38.6528 12.0949 38.5942 12.3052 38.5225C13.1494 38.2348 12.6221 39.2007 21.7716 21.1854C26.378 12.1156 30.262 4.46627 30.4028 4.18687C30.6223 3.75132 30.6595 3.59454 30.6637 3.0874C30.6678 2.57784 30.6359 2.432 30.4327 2.03451C30.1711 1.52283 29.6436 1.06321 29.1475 0.914561C28.7544 0.796782 28.0025 0.808349 27.6399 0.937772ZM7.25506 3.48427C4.03832 4.02876 1.34091 6.38198 0.384615 9.47821C-1.42199 15.3273 3.39183 21.2194 9.47167 20.6009C13.1104 20.2308 16.0405 17.7193 17.0096 14.1399C17.1988 13.4415 17.2179 13.243 17.2162 12.0023C17.2144 10.7696 17.1936 10.5576 17.0052 9.85484C16.8903 9.42601 16.6229 8.72035 16.411 8.2866C15.1838 5.77395 12.9245 4.03814 10.2117 3.5235C9.55459 3.39884 7.8903 3.3768 7.25506 3.48427ZM9.60429 8.05987C11.1415 8.42219 12.4206 9.81779 12.6668 11.4011C12.8632 12.6645 12.4446 13.9342 11.5305 14.8479C10.6797 15.6982 9.80155 16.0671 8.63221 16.0653C7.49976 16.0637 6.57762 15.6826 5.78303 14.888C4.50998 13.615 4.20635 11.839 4.98906 10.2438C5.27386 9.66344 5.81804 9.01116 6.28447 8.69112C7.27366 8.01236 8.45207 7.78837 9.60429 8.05987ZM30.3569 18.8882C28.58 19.0752 26.6626 19.9891 25.3723 21.2642C24.1755 22.4468 23.4282 23.7259 22.9914 25.3392C22.8022 26.0376 22.7831 26.2361 22.7848 27.4768C22.7866 28.7094 22.8074 28.9215 22.9958 29.6242C23.4059 31.154 24.313 32.6684 25.4782 33.7682C26.7096 34.9306 28.3338 35.7273 30.024 35.9981C30.9703 36.1498 32.677 36.057 33.5993 35.8038C36.4497 35.0213 38.7514 32.8016 39.6164 30.0008C41.209 24.8447 37.6639 19.4699 32.2872 18.8886C31.4001 18.7927 31.2641 18.7927 30.3569 18.8882ZM32.3879 23.5193C33.66 23.86 34.7484 24.8692 35.223 26.1482C35.7185 27.484 35.321 29.24 34.2882 30.2777C33.5218 31.0476 32.6464 31.4524 31.6064 31.5177C29.0461 31.6783 26.9482 29.3974 27.3331 26.8711C27.5668 25.3366 28.805 23.9251 30.2613 23.5327C30.7844 23.3918 31.886 23.3849 32.3879 23.5193Z" fill="url(#paint0_linear_235_3854)"/>
    <defs>
        <linearGradient id="paint0_linear_235_3854" x1="35.4167" y1="3.45502" x2="12.1037" y2="33.2517" gradientUnits="userSpaceOnUse">
            <stop stop-color="#0ADBA1"/>
            <stop offset="1" stop-color="#009D72"/>
        </linearGradient>
    </defs>
</svg>
