<svg width="82" height="24" fill="none" xmlns="http://www.w3.org/2000/svg"><path d="M24.75 16.32c0-.683.138-1.23.276-1.776.138-.547.552-1.093.965-1.503.414-.41.828-.683 1.38-.957a3.848 3.848 0 0 1 1.793-.41c.551 0 .965.137 1.379.274.413.137.827.41 1.103.683v-.683h2.207v8.744h-2.207v-.683c-.414.273-.69.547-1.103.683-.414.137-.828.273-1.38.273-.69 0-1.24-.136-1.793-.41-.551-.273-.965-.546-1.379-.956-.413-.41-.69-.82-.965-1.503-.276-.683-.276-1.093-.276-1.776Zm4.69 2.596h.551c.138 0 .414-.137.552-.137.138-.136.413-.273.551-.41l.552-.546V15.09c-.138-.273-.414-.41-.552-.546-.138-.137-.413-.273-.551-.41-.138-.137-.414-.137-.552-.137h-.552c-.413 0-.69 0-.965.137-.276.137-.552.273-.69.547-.276.273-.413.546-.551.82-.138.273-.138.682-.138.956 0 .273 0 .683.138.956.137.273.275.547.551.82.276.273.552.41.69.546.276.137.552.137.965.137Zm9.792-4.919c-1.103 0-1.931.684-1.931 1.777v4.918h-2.207v-4.918c0-2.05 1.793-3.963 4.138-3.963 2.345 0 4.138 1.913 4.138 3.963v4.918h-2.207v-4.918c0-1.093-.966-1.777-1.931-1.777Zm5.103 2.323c0-.683.138-1.23.276-1.776.138-.547.552-1.093.965-1.503.414-.41.828-.683 1.38-.957a3.848 3.848 0 0 1 1.792-.41c.552 0 .966.137 1.38.274.413.137.827.41 1.103.683V9.215h2.207v11.34H51.23v-.683c-.414.274-.69.547-1.103.684-.414.136-.828.273-1.38.273-.69 0-1.24-.137-1.792-.41-.552-.273-.966-.547-1.38-.956-.413-.41-.69-.82-.965-1.503-.276-.684-.276-.957-.276-1.64Zm4.69 2.596h.551c.138 0 .414-.137.552-.137.138-.136.413-.273.551-.41l.552-.546V15.09c-.138-.273-.414-.41-.552-.546-.138-.137-.413-.273-.551-.41-.138-.137-.414-.137-.552-.137h-.552c-.413 0-.69 0-.965.137-.276.137-.552.273-.69.547-.276.273-.413.546-.551.82-.138.273-.138.682-.138.956 0 .273 0 .683.138.956.138.273.275.547.551.82.276.273.552.41.69.546.276.137.552.137.965.137Zm14.62 0c.275 0 .55 0 .964-.137.276-.136.552-.273.69-.546.276-.273.414-.547.552-.82.138-.273.138-.683.138-.956 0-.274 0-.684-.138-.957-.138-.273-.276-.546-.552-.82-.276-.273-.552-.41-.69-.546-.275-.137-.551-.137-.965-.137-.276 0-.551 0-.965.137-.276.137-.552.273-.69.547-.276.273-.414.546-.552.82-.138.273-.138.682-.138.956 0 .273 0 .683.138.956.138.273.276.547.552.82.276.273.552.41.69.546.276 0 .69.137.965.137Zm0 2.05a4.282 4.282 0 0 1-1.794-.41c-.552-.274-1.103-.547-1.517-.957-.414-.41-.69-.82-.966-1.503a3.752 3.752 0 0 1-.413-1.776c0-.546.138-1.23.413-1.776.276-.547.552-1.093.966-1.503.414-.41.965-.683 1.517-.957a3.848 3.848 0 0 1 1.793-.41c.552 0 1.241.137 1.793.41.552.274 1.103.547 1.517.957.414.41.69.82.966 1.503.276.546.413 1.093.413 1.776s-.137 1.23-.413 1.776c-.276.547-.552 1.093-.966 1.503-.413.41-.965.683-1.517.957a3.848 3.848 0 0 1-1.793.41Zm6.62-9.701c-.139 0-.414 0-.552-.137-.138-.136-.276-.136-.414-.273-.138-.137-.276-.273-.276-.41-.138-.137-.138-.273-.138-.546 0-.137 0-.41.138-.547.138-.137.138-.273.276-.41.138-.137.276-.273.414-.273.138-.137.276-.137.551-.137.138 0 .414 0 .552.137.138.136.276.136.414.273.138.137.276.273.276.41.138.137.138.273.138.547 0 .136 0 .41-.138.546-.138.137-.138.273-.276.41-.138.137-.276.273-.414.273-.276.137-.276.137-.552.137Zm-1.104.82h2.207v8.744H69.16v-8.745Zm3.31 4.235c0-.683.138-1.23.276-1.776.276-.547.552-1.093.966-1.503.413-.41.827-.683 1.379-.957a3.845 3.845 0 0 1 1.792-.41c.553 0 .966.137 1.38.274.414.137.828.41 1.104.683V9.215h2.206v11.34h-2.206v-.683c-.414.274-.69.547-1.104.684-.413.136-.827.273-1.38.273-.69 0-1.241-.137-1.792-.41-.552-.273-.966-.547-1.38-.956-.413-.41-.69-.82-.965-1.503-.276-.41-.276-.957-.276-1.64Zm4.552 2.596h.552c.138 0 .413-.137.551-.137.138-.136.414-.273.552-.41l.552-.546V15.09c-.138-.273-.414-.41-.552-.546-.138-.137-.414-.273-.552-.41-.138-.137-.413-.137-.551-.137h-.552c-.415 0-.69 0-.966.137s-.552.273-.69.547c-.275.273-.413.546-.551.82-.138.273-.138.682-.138.956 0 .273 0 .683.138.956.138.273.276.547.552.82.275.273.55.41.689.546.413.137.69.137.966.137Zm-18.206-4.919c-1.517 0-2.069.684-2.069 1.777v4.918h-2.207v-4.918c0-2.05 1.242-4.1 4.276-4.1" fill="#2B2B37"/><path d="m5.832.193 1.13 1.887C4.94 3.082 3.57 4.968 3.57 7.15h12.854c0-2.182-1.369-4.127-3.392-5.07l1.13-1.887s.06-.118-.059-.176c-.119-.06-.178.058-.178.058l-1.131 1.946a7.48 7.48 0 0 0-2.856-.59c-1.012 0-1.964.236-2.857.59L5.951.075s-.06-.117-.179-.058c.06.117.06.176.06.176Zm1.13 3.714c.357 0 .595.295.595.59 0 .353-.297.59-.595.59-.357 0-.595-.237-.595-.59 0-.295.238-.59.595-.59Zm6.13 0c.356 0 .595.295.595.59 0 .353-.298.59-.596.59-.357 0-.595-.237-.595-.59 0-.295.238-.59.595-.59ZM3.512 7.975v9.667c0 .472.595 1.12 1.07 1.12H6.13v3.301c0 .826.595 1.533 1.369 1.533.773 0 1.368-.648 1.368-1.533v-3.3h2.202v3.3c0 .826.595 1.533 1.369 1.533.773 0 1.368-.648 1.368-1.533v-3.3h1.548c.476 0 1.07-.65 1.07-1.12V7.974H3.513ZM1.369 7.738c.773 0 1.368.708 1.368 1.533v5.718c0 .825-.595 1.532-1.368 1.532C.595 16.521 0 15.814 0 14.99V9.271c0-.825.655-1.533 1.369-1.533ZM18.685 7.738c.774 0 1.369.708 1.369 1.533v5.718c0 .825-.595 1.532-1.37 1.532-.773 0-1.368-.707-1.368-1.532V9.271c-.06-.825.595-1.533 1.369-1.533Z" fill="#A4C639"/><path d="M24.813 1.432h1.131c.774 0 1.31.118 1.666.294.357.177.655.472.893.885.238.412.357.884.357 1.414 0 .413-.06.767-.179 1.061-.119.354-.297.59-.535.826-.238.235-.476.353-.774.471-.297.06-.714.118-1.428.118h-1.19v-5.07h.06Zm1.012.943v3.183h.476c.476 0 .774-.059.952-.177.179-.118.357-.295.476-.53.12-.236.179-.53.179-.885 0-.53-.179-.943-.476-1.237-.298-.295-.714-.413-1.31-.413h-.297v.059ZM32.253 1.313c.714 0 1.369.236 1.845.767.476.53.773 1.179.773 1.886 0 .767-.238 1.356-.773 1.886-.536.531-1.131.767-1.905.767-.773 0-1.428-.236-1.904-.767-.476-.53-.773-1.178-.773-1.886 0-.471.119-.943.357-1.356a2.43 2.43 0 0 1 .952-.943c.416-.236.952-.354 1.428-.354Zm0 .944a1.67 1.67 0 0 0-1.19.471c-.298.354-.476.767-.476 1.238 0 .59.178 1.002.595 1.356.297.236.654.413 1.07.413.477 0 .834-.177 1.191-.472.357-.295.476-.766.476-1.238s-.178-.884-.476-1.238c-.297-.353-.714-.53-1.19-.53ZM35.465 1.432h.952l.714 3.242.893-3.242h.833l.952 3.242.714-3.242h.952l-1.13 5.07h-.953L38.44 3.2l-.952 3.301h-.952l-1.071-5.07ZM42.25 1.432h.952l2.202 3.36v-3.36h.952v5.07h-.952l-2.202-3.36v3.36h-.952v-5.07ZM47.547 1.432h.952v4.185h1.428v.943h-2.38V1.432ZM53.081 1.313c.714 0 1.369.236 1.845.767.476.53.773 1.179.773 1.886 0 .767-.238 1.356-.773 1.886-.536.531-1.13.767-1.904.767s-1.429-.236-1.905-.767c-.535-.53-.773-1.178-.773-1.886 0-.471.119-.943.357-1.356a2.43 2.43 0 0 1 .952-.943c.535-.236.952-.354 1.428-.354Zm0 .944a1.67 1.67 0 0 0-1.19.471c-.298.354-.476.767-.476 1.238 0 .59.178 1.002.595 1.356.297.236.654.413 1.071.413.476 0 .833-.177 1.19-.472s.476-.766.476-1.238-.178-.884-.476-1.238c-.297-.353-.714-.53-1.19-.53ZM58.257 1.432h1.011l1.964 5.07H60.22l-.416-1.062H57.72l-.416 1.061h-1.012l1.964-5.07Zm.476 1.355-.714 1.769h1.368l-.654-1.769ZM61.946 1.432h1.13c.774 0 1.31.118 1.667.294.357.177.655.472.893.885.238.412.357.884.357 1.414 0 .413-.06.767-.179 1.061-.119.295-.297.59-.535.826-.238.235-.476.353-.774.471-.297.06-.714.118-1.428.118h-1.19v-5.07h.06Zm1.012.943v3.183h.476c.476 0 .773-.059.952-.177.179-.118.357-.295.476-.53.12-.236.179-.53.179-.885 0-.53-.179-.943-.476-1.237-.298-.295-.715-.413-1.31-.413h-.297v.059ZM70.514 1.432h1.012l1.964 5.07h-1.012l-.416-1.062h-2.083l-.417 1.061h-1.011l1.963-5.07Zm.536 1.355-.714 1.769h1.369l-.655-1.769ZM74.266 1.432h1.011c.536 0 .952.059 1.19.176.238.118.417.295.595.472.18.177.239.53.239.825 0 .354-.12.649-.298.885a1.164 1.164 0 0 1-.774.471c-.178.06-.536.06-1.011.06V6.5h-.952v-5.07Zm.952 2.004h.297c.238 0 .417 0 .536-.059.118-.059.178-.118.238-.177s.06-.177.06-.295c0-.176-.06-.353-.24-.412-.117-.06-.296-.118-.594-.118h-.297v1.06ZM78.25 1.432h1.011V3.2l1.369-1.768h1.19l-1.786 2.24L82 6.502h-1.131l-1.607-2.24v2.24H78.25v-5.07Z" fill="#2B2B37"/></svg>
