<svg width="31" height="19" fill="none" xmlns="http://www.w3.org/2000/svg"><path d="M30.484 9.734c0 1.584-.333 3.037-1 4.36-.666 1.312-1.599 2.344-2.797 3.094-1.197.75-2.546 1.125-4.046 1.125a6.928 6.928 0 0 1-4.032-1.266c-1.208-.854-2.255-2.151-3.14-3.89-1.771 3.437-4.162 5.155-7.172 5.155-1.49 0-2.833-.37-4.031-1.109-1.188-.74-2.12-1.77-2.797-3.094-.667-1.333-1-2.796-1-4.39V9.39c0-1.584.333-3.042 1-4.375.677-1.334 1.61-2.37 2.797-3.11 1.187-.75 2.52-1.125 4-1.125 3.041 0 5.442 1.703 7.203 5.11C17.229 2.484 19.63.78 22.672.78c1.479 0 2.812.375 4 1.125 1.187.74 2.114 1.771 2.781 3.094.677 1.313 1.021 2.755 1.031 4.328v.406Zm-3.734-.343c0-1.605-.38-2.922-1.14-3.954-.761-1.03-1.777-1.546-3.047-1.546-1.709 0-3.136 1.046-4.282 3.14-.416.771-.703 1.5-.86 2.188v.562c.157.719.475 1.521.954 2.406 1.115 2.032 2.5 3.047 4.156 3.047 1.26 0 2.276-.505 3.047-1.515.781-1.021 1.172-2.375 1.172-4.063v-.265Zm-22.547.343c0 1.636.38 2.964 1.14 3.985.761 1.01 1.782 1.515 3.063 1.515 1.094 0 2.089-.463 2.985-1.39.896-.938 1.567-2.156 2.015-3.656l.11-.407V9.22c-.157-.688-.443-1.417-.86-2.188-1.146-2.093-2.573-3.14-4.281-3.14-1.26 0-2.27.51-3.031 1.53-.76 1.011-1.14 2.449-1.14 4.313Z" fill="#fff"/></svg>
