<svg width="64" height="64" fill="none" xmlns="http://www.w3.org/2000/svg"><path d="M36.086 5.962h-25.89C4.566 5.962 0 10.527 0 16.158v10.29c0 3.73 2.004 6.99 4.994 8.767.387.23.625.646.625 1.096v5.566a.765.765 0 0 0 1.306.54l5.4-5.4c.238-.239.563-.373.9-.373h22.861c5.632 0 10.197-4.565 10.197-10.196v-10.29c0-5.631-4.566-10.196-10.197-10.196Z" fill="#00C26F"/><path d="M38.98 6.38c.272.918.42 1.889.42 2.894v10.29c0 5.631-4.566 10.197-10.197 10.197H3.313c-1.006 0-1.977-.149-2.895-.42A10.221 10.221 0 0 0 5 35.218c.385.23.62.645.62 1.093v5.565a.765.765 0 0 0 1.305.541l5.4-5.4c.24-.239.564-.373.902-.373h22.86c5.631 0 10.196-4.565 10.196-10.196v-10.29c0-4.626-3.081-8.53-7.303-9.777Z" fill="#00AF64"/><path d="M8.449 18.934a1.425 1.425 0 1 0 0-2.85 1.425 1.425 0 0 0 0 2.85ZM12.765 18.934a1.425 1.425 0 1 0 0-2.85 1.425 1.425 0 0 0 0 2.85ZM17.054 18.934a1.425 1.425 0 1 0 0-2.85 1.425 1.425 0 0 0 0 2.85ZM53.803 20.289H27.786c-5.631 0-10.196 4.565-10.196 10.196v10.29c0 5.631 4.565 10.196 10.196 10.196h22.022c.338 0 .663.134.902.373l6.468 6.469a.765.765 0 0 0 1.306-.54v-6.697c0-.442.228-.854.605-1.084A10.187 10.187 0 0 0 64 40.775v-10.29c0-5.631-4.565-10.196-10.196-10.196Z" fill="#E5E5E9"/><path d="M56.696 20.708c.27.917.419 1.888.419 2.893v10.29c0 5.632-4.565 10.197-10.197 10.197H20.902c-1.006 0-1.977-.148-2.894-.42 1.247 4.222 5.151 7.303 9.777 7.303h22.022c.338 0 .662.134.901.373l6.47 6.469a.765.765 0 0 0 1.305-.54v-6.697c0-.442.227-.854.605-1.084a10.187 10.187 0 0 0 4.91-8.717v-10.29c0-4.626-3.08-8.53-7.302-9.777Z" fill="#D7D7D7"/><path d="M36.41 44.483a.956.956 0 0 1 0-1.911 3.432 3.432 0 0 0 3.428-3.429v-6.476a6.819 6.819 0 0 0-6.81-6.811 6.819 6.819 0 0 0-6.812 6.811v3.383a.956.956 0 1 1-1.911 0v-3.383c0-4.81 3.913-8.723 8.722-8.723 4.81 0 8.723 3.913 8.723 8.723v6.476a5.346 5.346 0 0 1-5.34 5.34Z" fill="#00C26F"/><path d="M25.303 39.913h-.084a2.14 2.14 0 0 1-2.14-2.14v-3.531a2.14 2.14 0 0 1 2.14-2.14h.084a2.14 2.14 0 0 1 2.14 2.14v3.53a2.14 2.14 0 0 1-2.14 2.141ZM40.838 39.913h-.084a2.14 2.14 0 0 1-2.14-2.14v-3.531a2.14 2.14 0 0 1 2.14-2.14h.084a2.14 2.14 0 0 1 2.14 2.14v3.53a2.14 2.14 0 0 1-2.14 2.141Z" fill="#00C26F"/><path d="M25.68 32.142c.026.136.041.275.041.418v3.447a2.182 2.182 0 0 1-2.6 2.141 2.182 2.182 0 0 0 4.324-.418v-3.446c0-1.063-.76-1.947-1.765-2.142ZM41.212 32.142c.026.136.04.275.04.418v3.447a2.183 2.183 0 0 1-2.6 2.141 2.182 2.182 0 0 0 4.324-.418v-3.446c0-1.063-.76-1.947-1.764-2.142Z" fill="#00AF64"/><path d="M35.352 45.292c1.24 0 2.247-.79 2.247-1.765 0-.975-1.006-1.765-2.247-1.765-1.24 0-2.246.79-2.246 1.765 0 .975 1.005 1.765 2.246 1.765Z" fill="#00C26F"/><path d="M36.348 41.947c.035.124.055.253.055.385 0 .975-1.006 1.765-2.246 1.765-.359 0-.696-.067-.997-.185.224.79 1.12 1.38 2.191 1.38 1.241 0 2.247-.79 2.247-1.765 0-.693-.51-1.291-1.25-1.58Z" fill="#00AF64"/><path d="M54.03 29.361h-7.613a.956.956 0 1 1 0-1.911h7.614a.956.956 0 1 1 0 1.911ZM52.288 33.64h-5.871a.956.956 0 1 1 0-1.911h5.87a.956.956 0 1 1 0 1.911Z" fill="#59547A"/></svg>