<svg width="48" height="48" fill="none" xmlns="http://www.w3.org/2000/svg"><rect width="48" height="48" rx="4" fill="#C76E73"/><path d="m25.05 30.204 5.502 1.65M16.145 17.447l1.65 5.498-1.65-5.498ZM23.59 24.41l7.453-7.453M15.59 17.53a1.941 1.941 0 1 0 0-3.883 1.941 1.941 0 0 0 0 3.882ZM32.414 17.53a1.941 1.941 0 1 0 0-3.883 1.941 1.941 0 0 0 0 3.882ZM32.414 34.353a1.941 1.941 0 1 0 0-3.883 1.941 1.941 0 0 0 0 3.883ZM19.472 34.353a5.824 5.824 0 1 0 0-11.647 5.824 5.824 0 0 0 0 11.647Z" stroke="#fff" stroke-width="2" stroke-linecap="round" stroke-linejoin="round"/></svg>