<svg width="48" height="48" fill="none" xmlns="http://www.w3.org/2000/svg"><rect width="48" height="48" rx="4" fill="#85BBC9"/><path fill-rule="evenodd" clip-rule="evenodd" d="M23.133 12.015c-.078.01-.341.042-.586.07-2.939.335-5.89 1.969-7.78 4.307-.223.276-.36.41-.38.373a20.744 20.744 0 0 1-.277-1.028l-.247-.968-.639.163c-.35.09-.655.18-.677.2-.055.052 1.095 4.461 1.164 4.461.068 0 4.395-1.123 4.418-1.147.02-.019-.303-1.297-.335-1.329-.016-.015-1.785.424-2.156.535-.153.046.317-.525.953-1.158a9.984 9.984 0 0 1 2.886-2.047 10.505 10.505 0 0 1 12.164 2.217c1.769 1.851 2.758 4.16 2.931 6.837l.033.505H36v-.155c0-.413-.112-1.482-.213-2.032a12.036 12.036 0 0 0-3.325-6.335c-1.829-1.831-4.11-2.97-6.775-3.379-.466-.071-2.241-.134-2.554-.09Zm-.188 4.973c-2.956.479-5.232 2.64-5.895 5.601-.086.385-.102.603-.103 1.417-.002.84.012 1.025.107 1.45.515 2.301 2.036 4.167 4.144 5.083.89.387 1.754.562 2.779.565 1.067.002 1.906-.166 2.838-.568a7.191 7.191 0 0 0 3.892-4.205c.289-.843.345-1.214.346-2.301.002-.864-.012-1.047-.107-1.474-.316-1.414-.928-2.529-1.95-3.553-1.032-1.034-2.148-1.64-3.586-1.949-.6-.129-1.866-.163-2.465-.066Zm1.768 2.964.014.452.246.063c.36.093.607.233.904.517a2.03 2.03 0 0 1 .582 2.015c-.04.154-.115.35-.165.436l-.093.157.232.254c.642.703.778 1.64.362 2.48A2.21 2.21 0 0 1 25 27.56l-.296.028v.878h-1.406v-.892H21.234v-1.408h.844V21.8h-.844V20.39H23.296V19.5H24.7l.013.453Zm-1.229 2.505v.657h.592c.512 0 .613-.013.745-.095.425-.262.382-.904-.074-1.137-.126-.065-.28-.082-.712-.082h-.55v.657Zm-11.483 1.749c.001.361.092 1.318.168 1.772.657 3.93 3.252 7.337 6.813 8.948C20.63 35.67 22.177 36.002 24 36c1.43-.002 2.414-.157 3.703-.583 2.178-.72 4.125-2.06 5.538-3.807.186-.23.345-.412.353-.404.008.008.132.466.275 1.018.142.551.265 1.009.272 1.016.013.013 1.307-.317 1.336-.34.017-.014-1.117-4.444-1.146-4.476-.017-.019-4.434 1.117-4.467 1.15-.022.02.306 1.284.342 1.321.014.014.453-.087.976-.223.523-.135 1.019-.262 1.102-.282l.15-.035-.213.279c-.118.153-.397.47-.62.705-2.045 2.153-5.088 3.394-8 3.263a10.3 10.3 0 0 1-4.265-1.087c-1.081-.529-1.833-1.053-2.68-1.871-1.893-1.826-3.005-4.217-3.208-6.898l-.057-.74H12v.2Zm11.515.348c-.018.017-.032.387-.032.822v.79h.74c.675 0 .76-.01.95-.106a.788.788 0 0 0-.189-1.486c-.259-.056-1.418-.071-1.47-.02Z" fill="#fff"/></svg>