<svg width="48" height="48" fill="none" xmlns="http://www.w3.org/2000/svg"><rect width="48" height="48" rx="4" fill="#D93B3B"/><circle cx="20.978" cy="20.979" fill="#D93B3B" stroke="#fff" stroke-width="2" r="8.056"/><path d="M17.305 17.07h5.212a1.955 1.955 0 1 1 0 3.91 1.955 1.955 0 1 1 0 3.909h-5.212M18.605 17.07v7.819M18.605 20.979h3.91M19.258 15.115v1.955M21.863 15.115v1.955M19.258 24.889v1.954M21.863 24.889v1.954" stroke="#fff" stroke-linecap="round" stroke-linejoin="round"/><circle cx="26.091" cy="27.021" fill="#D93B3B" stroke="#fff" stroke-width="2" r="8.056"/><g clip-path="url(#a)" stroke="#fff" stroke-linecap="round" stroke-linejoin="round"><path d="m22.418 27.021 3.91-5.864 3.909 5.864-3.91 5.864-3.909-5.864Z"/><path d="m22.418 27.021 3.91-1.955 3.909 1.955-3.91 1.303-3.909-1.303Z"/></g><defs><clipPath id="a"><path fill="#fff" transform="translate(21.055 19.972)" d="M0 0h10.07v14.098H0z"/></clipPath></defs></svg>