<svg width="48" height="48" fill="none" xmlns="http://www.w3.org/2000/svg"><rect width="48" height="48" rx="4" fill="#EE9A79"/><path d="M30.236 18.589v-3.883a1.294 1.294 0 0 0-1.294-1.294H16A2.588 2.588 0 0 0 13.412 16m0 0A2.588 2.588 0 0 0 16 18.59h15.53a1.294 1.294 0 0 1 1.294 1.294v3.882M13.412 16v15.53A2.588 2.588 0 0 0 16 34.118h15.53a1.294 1.294 0 0 0 1.294-1.294v-3.882" stroke="#fff" stroke-width="2" stroke-linecap="round" stroke-linejoin="round"/><path d="M34.118 23.763v5.176h-5.176a2.588 2.588 0 1 1 0-5.176h5.176Z" stroke="#fff" stroke-width="2" stroke-linecap="round" stroke-linejoin="round"/></svg>