<svg width="48" height="48" fill="none" xmlns="http://www.w3.org/2000/svg"><rect width="48" height="48" rx="4" fill="#D95B96"/><path d="M34.286 30.088v-4.105m0 0h-4.468m4.468 0-4.468 4.105a8.708 8.708 0 0 1-3.721 2.15 8.855 8.855 0 0 1-4.32.124 8.737 8.737 0 0 1-3.846-1.93 8.467 8.467 0 0 1-2.412-3.508m-1.804-9.012v4.105m0 0h4.468m-4.468 0 4.468-4.105a8.708 8.708 0 0 1 3.721-2.15 8.856 8.856 0 0 1 4.32-.125c1.429.316 2.751.98 3.846 1.932a8.467 8.467 0 0 1 2.412 3.507" stroke="#fff" stroke-width="2" stroke-linecap="round" stroke-linejoin="round"/></svg>