<svg width="48" height="48" fill="none" xmlns="http://www.w3.org/2000/svg"><rect width="48" height="48" rx="4" fill="#BA85D7"/><path fill-rule="evenodd" clip-rule="evenodd" d="M23.576 12.076c-.841.18-1.673.834-2.056 1.614-.33.675-.332.694-.333 3.926l-.001 2.87h-.668c-1.7.001-2.981.501-4.07 1.59a5.378 5.378 0 0 0-1.361 2.265c-.062.213-.132.364-.168.364-.049 0-.06-.421-.06-2.169v-2.168l.246-.115c.303-.142.77-.603.919-.907.42-.86.273-1.783-.39-2.448-.828-.832-2.122-.832-2.958 0-.814.811-.838 2.054-.056 2.912.133.146.346.308.528.402l.304.157v4.427l-.27.13c-.33.158-.799.613-.944.916-.222.463-.237.613-.238 2.34 0 1.038.019 1.717.053 1.875.086.405.273.743.577 1.048.474.473.926.63 1.82.63h.526l.106.382c.46 1.65 1.8 3.042 3.47 3.602.83.277.897.281 5.446.281 4.55 0 4.616-.004 5.446-.281a5.198 5.198 0 0 0 2.103-1.308c.658-.662 1.136-1.463 1.367-2.294l.106-.381h.525c.61 0 .922-.057 1.277-.229.542-.262.997-.85 1.123-1.45.07-.339.07-3.342-.001-3.674a2.037 2.037 0 0 0-.578-1.048c-.474-.474-.926-.63-1.823-.63h-.527l-.106-.362a6.197 6.197 0 0 0-.265-.703l-.157-.341.383-.001a3.115 3.115 0 0 0 1.438-.334c.792-.388 1.437-1.218 1.617-2.08.102-.482.102-5.984 0-6.467-.235-1.127-1.216-2.108-2.343-2.344-.475-.1-9.543-.097-10.007.003Zm10.036 1.48c.37.174.625.422.802.783l.153.31v6.004l-.153.31c-.177.361-.431.609-.802.783l-.263.123-4.453.024-4.453.023-.901.457c-.496.251-.913.457-.927.457-.014 0-.02-1.84-.012-4.09l.012-4.089.122-.26c.216-.46.562-.764 1.04-.914.16-.05 1.101-.06 4.885-.053l4.687.009.263.123Zm-9.203 2.106a.762.762 0 0 0-.364.606c0 .233.166.503.374.609.18.092.268.094 4.172.094s3.992-.002 4.173-.094a.744.744 0 0 0 .374-.609.744.744 0 0 0-.374-.609c-.181-.092-.266-.094-4.183-.092-3.887.002-4.002.005-4.172.095Zm-9.924 2.107a.744.744 0 0 1 .373.612c0 .346-.356.7-.706.7-.218 0-.508-.183-.61-.385-.174-.34-.065-.71.266-.91.225-.136.434-.142.677-.017Zm9.924.705a.762.762 0 0 0-.364.606c0 .233.166.503.374.61.18.091.268.093 4.172.093s3.992-.002 4.173-.094a.744.744 0 0 0 .374-.609.744.744 0 0 0-.374-.608c-.181-.093-.266-.095-4.183-.093-3.887.002-4.002.005-4.172.095Zm-3.223 4.556c0 1.29.02 1.375.356 1.569.33.188.402.166 1.937-.597l1.415-.703h5.9l.163.222c.253.346.476.796.62 1.256l.131.42v6.093l-.13.413c-.43 1.372-1.365 2.308-2.738 2.738l-.413.13h-8.859l-.412-.13c-1.372-.43-2.308-1.366-2.738-2.738l-.13-.413v-6.093l.13-.413c.419-1.337 1.379-2.318 2.644-2.703.49-.148.715-.177 1.456-.183l.668-.005v1.137Zm-6.328 5.19v2.11h-.45c-.535 0-.767-.098-.914-.385-.082-.161-.088-.293-.086-1.735.002-1.76.005-1.777.353-1.988.16-.096.243-.11.64-.11l.457-.001v2.109Zm5.286-2.012c-.318.167-.364.332-.364 1.309 0 .757.01.867.094 1.032a.744.744 0 0 0 .609.374.744.744 0 0 0 .609-.374c.084-.165.094-.275.094-1.032s-.01-.867-.094-1.032c-.173-.34-.597-.463-.948-.277Zm7.03 0c-.318.167-.364.332-.364 1.309 0 .757.01.867.095 1.032a.744.744 0 0 0 .608.374.744.744 0 0 0 .609-.374c.084-.165.094-.275.094-1.032s-.01-.867-.094-1.032c-.173-.34-.596-.463-.948-.277Zm7.043-.003c.119.06.219.16.28.28.088.174.094.274.094 1.735s-.006 1.561-.095 1.735c-.145.284-.364.374-.911.374h-.447V26.11h.447c.355 0 .485.02.632.095Zm-11.964 4.22a.762.762 0 0 0-.364.607c0 .233.166.503.374.609.174.089.274.094 1.735.094s1.561-.005 1.735-.094a.744.744 0 0 0 .374-.609.744.744 0 0 0-.373-.608c-.175-.09-.272-.095-1.746-.093-1.46.002-1.571.008-1.735.095Z" fill="#fff"/></svg>