<svg width="14" height="24" fill="none" xmlns="http://www.w3.org/2000/svg"><path d="M14 7.055C14 3.165 10.84 0 6.954 0A7.06 7.06 0 0 0 .04 5.69a2.107 2.107 0 1 0 4.135.813 2.836 2.836 0 0 1 2.779-2.284 2.837 2.837 0 0 1 2.832 2.836A2.837 2.837 0 0 1 6.954 9.89 2.108 2.108 0 0 0 4.847 12c0 1.165.943 2.11 2.107 2.11a2.837 2.837 0 0 1 2.832 2.835 2.837 2.837 0 0 1-2.832 2.836c-1.351 0-2.52-.96-2.78-2.284a2.107 2.107 0 1 0-4.134.813A7.06 7.06 0 0 0 6.954 24C10.839 24 14 20.835 14 16.945A7.036 7.036 0 0 0 11.974 12 7.036 7.036 0 0 0 14 7.055Z" fill="#fff"/></svg>