<svg width="64" height="64" fill="none" xmlns="http://www.w3.org/2000/svg"><path d="M55.729 43.597a23.692 23.692 0 0 0-6.943-16.123 23.687 23.687 0 0 0-16.787-6.954c-6.16 0-12.223 2.39-16.787 6.954a23.688 23.688 0 0 0-6.943 16.124.584.584 0 0 1-.585.566h48.63a.585.585 0 0 1-.585-.567Z" fill="#E5E5E9"/><path d="M19.59 27.741c4.028-4.182 9.224-6.605 14.622-7.117a23.704 23.704 0 0 0-19 6.85 23.689 23.689 0 0 0-6.943 16.124.584.584 0 0 1-.585.565h4.976c.236-5.987 2.565-11.887 6.93-16.422Z" fill="#D7D7D7"/><path d="M54.633 21.625A31.938 31.938 0 0 0 32 12.25v8.705a23.252 23.252 0 0 1 16.478 6.825l6.155-6.155Z" fill="#00DB7D"/><path d="m9.367 21.625 6.155 6.155a23.254 23.254 0 0 1 16.479-6.825V12.25c-8.063 0-15.903 2.885-22.634 9.375Z" fill="#15BA8B"/><path d="m9.367 21.625 6.155 6.155a23.254 23.254 0 0 1 16.479-6.825V12.25c-8.063 0-15.903 2.885-22.634 9.375Z" fill="#00EA86"/><path d="M0 43.572a.577.577 0 0 0 .576.591h7.556c.31 0 .566-.245.575-.555a23.249 23.249 0 0 1 6.815-15.828l-6.155-6.155A31.929 31.929 0 0 0 0 43.572Z" fill="#00FB8F"/><path d="M13.332 21.38c5.453-5.257 11.626-8.172 18.058-9.123-7.848.142-15.462 3.042-22.023 9.368l1.958 1.957a32.691 32.691 0 0 1 2.007-2.201Z" fill="#00DB7D"/><path d="M4.446 44.163a.583.583 0 0 1-.582-.598 32.256 32.256 0 0 1 7.46-19.982l-1.957-1.958A31.929 31.929 0 0 0 0 43.572a.577.577 0 0 0 .576.591h7.556-3.686Z" fill="#00EA86"/><path d="m54.632 21.625-6.155 6.155a23.253 23.253 0 0 1 6.815 15.827c.009.31.265.556.575.556h7.556a.577.577 0 0 0 .576-.591 31.954 31.954 0 0 0-9.367-21.947Z" fill="#00C26F"/><path d="m40.648 46.175 6.783-14.305a.815.815 0 0 0-.863-1.155l-15.639 2.47c-6.822 1.079-10.05 9.025-5.912 14.554 4.138 5.53 12.672 4.676 15.631-1.564Z" fill="#59547A"/><path d="M28.841 48.29c-4.138-5.53-.91-13.476 5.913-14.554l12.729-2.01a.815.815 0 0 0-.915-1.011l-15.639 2.47c-6.822 1.079-10.05 9.025-5.912 14.554 2 2.673 5.025 3.854 7.952 3.657a9.07 9.07 0 0 1-4.128-3.106Z" fill="#504A74"/><path d="M35.38 39.986a3.935 3.935 0 1 0-6.302 4.715 3.935 3.935 0 0 0 6.302-4.715Z" fill="#5E5982"/><path d="M34.662 39.25a3.937 3.937 0 0 0-5.584 5.452 3.937 3.937 0 0 0 4.612 1.296c-2.387-1.88-1.826-5.626.972-6.747Z" fill="#504A74"/></svg>