<svg width="32" height="32" viewBox="0 0 32 32" fill="none" xmlns="http://www.w3.org/2000/svg">
<path fill-rule="evenodd" clip-rule="evenodd" d="M16.1907 0.0279844L29.524 4.02798C29.8067 4.1133 30 4.37198 30 4.66667V19.3333C30 19.4027 29.9988 19.472 29.9963 19.5413C29.5918 19.1709 29.146 18.8448 28.6667 18.5708V5.16267L16 1.36267L3.33331 5.16267V19.3333C3.33331 24.0146 10.7507 28.9373 16 30.6346C16.9626 30.3234 17.9981 29.9037 19.0473 29.3969C19.3183 29.7631 19.6222 30.1034 19.9548 30.4135C18.5901 31.1005 17.2868 31.6315 16.1973 31.9707C16.1333 31.9907 16.0666 32 16 32C15.9334 32 15.8667 31.9907 15.8027 31.9707C10.9893 30.4734 2 25.2294 2 19.3334V4.66667C2 4.37198 2.19331 4.11198 2.47469 4.02798L15.808 0.0279844C15.9334 -0.00932813 16.0654 -0.00932813 16.1907 0.0279844Z" fill="white"/>
<path d="M24.0953 24.5135V26.3421C24.0953 26.6787 24.3692 26.9516 24.7072 26.9516C25.0451 26.9516 25.3191 26.6787 25.3191 26.3421V24.5135H24.0953Z" fill="#00C26F"/>
<path fill-rule="evenodd" clip-rule="evenodd" d="M21.6477 20.2468C21.6477 18.5637 23.0175 17.1992 24.7072 17.1992C26.3968 17.1992 27.7666 18.5636 27.7666 20.2468V21.4659H28.9904C29.6662 21.4659 30.2141 22.0117 30.2141 22.6849V27.5611C30.2141 28.9076 29.1183 29.9992 27.7666 29.9992H21.6477C20.296 29.9992 19.2002 28.9076 19.2002 27.5611V22.6849C19.2002 22.0117 19.7481 21.4659 20.424 21.4659H21.6477V20.2468ZM26.5428 21.4659H22.8715V20.2468C22.8715 19.2369 23.6934 18.4183 24.7072 18.4183C25.721 18.4183 26.5428 19.2369 26.5428 20.2468V21.4659ZM20.424 22.6849V27.5611C20.424 28.2344 20.9719 28.7802 21.6477 28.7802H27.7666C28.4425 28.7802 28.9904 28.2344 28.9904 27.5611V22.6849H20.424Z" fill="#00C26F"/>
</svg>
