<svg width="48" height="36" fill="none" xmlns="http://www.w3.org/2000/svg"><path d="M35 18c5.251 0 6.273.977 6.273 6 0-5.023 1.02-6 6.272-6-5.251 0-6.272-.977-6.272-6 0 5.023-1.022 6-6.273 6ZM10.224 24.08V26H1.608v-1.92h3.408v-9.36c-.176.24-.496.512-.96.816a8.856 8.856 0 0 1-1.512.744c-.544.208-1.024.312-1.44.312v-2.016c.352 0 .736-.096 1.152-.288a9.701 9.701 0 0 0 1.248-.72c.4-.272.736-.528 1.008-.768.288-.24.456-.408.504-.504h2.16V24.08h3.048ZM27.821 26V12.992L22.205 23h-1.32l-5.64-10.008V26h-2.16V8.96h2.28l6.168 11.064L27.725 8.96h2.256V26h-2.16Z" fill="#00C26F"/></svg>