<svg width="87" height="56" fill="none" xmlns="http://www.w3.org/2000/svg"><path d="M64 28c9.627 0 11.5 1.79 11.5 11 0-9.21 1.872-11 11.5-11-9.628 0-11.5-1.79-11.5-11 0 9.21-1.873 11-11.5 11ZM20.448 41.16V45H3.216v-3.84h6.816V22.44c-.352.48-.992 1.024-1.92 1.632a17.712 17.712 0 0 1-3.024 1.488c-1.088.416-2.048.624-2.88.624v-4.032c.704 0 1.472-.192 2.304-.576a19.402 19.402 0 0 0 2.496-1.44c.8-.544 1.472-1.056 2.016-1.536.576-.48.912-.816 1.008-1.008h4.32V41.16h6.096ZM55.641 45V18.984L44.41 39h-2.64L30.49 18.984V45h-4.32V10.92h4.56l12.336 22.128L55.45 10.92h4.512V45h-4.32Z" fill="#00C26F"/></svg>