<svg width="120" height="44" fill="none" xmlns="http://www.w3.org/2000/svg"><path d="M11.038 43.152c-2.432 0-4.624-.576-6.576-1.728-1.952-1.152-3.424-2.688-4.416-4.608l2.64-2.304a10.478 10.478 0 0 0 3.552 3.552 9.31 9.31 0 0 0 4.848 1.344c1.472 0 2.784-.32 3.936-.96a7.227 7.227 0 0 0 2.736-2.64c.672-1.152 1.008-2.464 1.008-3.936 0-1.44-.336-2.704-1.008-3.792a6.729 6.729 0 0 0-2.64-2.544c-1.088-.608-2.32-.912-3.696-.912a8.577 8.577 0 0 0-3.888.912 7.857 7.857 0 0 0-2.928 2.592H.814l3.84-19.536h16.56v3.888H7.774L5.71 23.328c.704-.736 1.584-1.312 2.64-1.728 1.088-.448 2.288-.672 3.6-.672 2.112 0 4 .464 5.664 1.392 1.696.928 3.024 2.208 3.984 3.84.992 1.632 1.488 3.52 1.488 5.664 0 2.24-.544 4.208-1.632 5.904a10.59 10.59 0 0 1-4.32 3.984c-1.824.96-3.856 1.44-6.096 1.44ZM79.043 36H74.82V21.984c0-2.624-.432-4.56-1.296-5.808-.832-1.248-2.08-1.872-3.744-1.872-1.696 0-3.232.624-4.608 1.872-1.376 1.216-2.352 2.8-2.928 4.752V36H58.02V21.984c0-2.656-.416-4.592-1.248-5.808-.832-1.248-2.08-1.872-3.744-1.872-1.664 0-3.2.608-4.608 1.824-1.376 1.184-2.352 2.768-2.928 4.752V36h-4.224V10.944h3.84v5.376c1.024-1.856 2.352-3.28 3.984-4.272 1.632-1.024 3.472-1.536 5.52-1.536 2.08 0 3.744.576 4.992 1.728 1.248 1.12 2.016 2.576 2.304 4.368 2.24-4.064 5.424-6.096 9.552-6.096 1.92 0 3.424.464 4.512 1.392 1.12.896 1.904 2.144 2.352 3.744.48 1.568.72 3.36.72 5.376V36Zm7.048-29.76V.96h4.224v5.28h-4.224Zm0 29.76V10.944h4.224V36h-4.224Zm33.287 0h-4.224V21.984c0-2.656-.416-4.592-1.248-5.808-.8-1.248-2.032-1.872-3.696-1.872-1.152 0-2.304.288-3.456.864a10.586 10.586 0 0 0-3.024 2.352 8.683 8.683 0 0 0-1.872 3.36V36h-4.224V10.944h3.84v5.376c.992-1.76 2.416-3.168 4.272-4.224 1.888-1.056 3.936-1.584 6.144-1.584 1.952 0 3.456.464 4.512 1.392 1.088.896 1.856 2.144 2.304 3.744.448 1.568.672 3.36.672 5.376V36Z" fill="#00C26F"/></svg>