<svg width="60" height="22" fill="none" xmlns="http://www.w3.org/2000/svg"><path d="M5.769 21.576c-1.216 0-2.312-.288-3.288-.864-.976-.576-1.712-1.344-2.208-2.304l1.32-1.152a5.24 5.24 0 0 0 1.776 1.776c.752.448 1.56.672 2.424.672.736 0 1.392-.16 1.968-.48a3.613 3.613 0 0 0 1.368-1.32c.336-.576.504-1.232.504-1.968 0-.72-.168-1.352-.504-1.896a3.364 3.364 0 0 0-1.32-1.272c-.544-.304-1.16-.456-1.848-.456-.688 0-1.336.152-1.944.456a3.928 3.928 0 0 0-1.464 1.296H.657l1.92-9.768h8.28V6.24h-6.72l-1.032 5.424a3.643 3.643 0 0 1 1.32-.864 4.684 4.684 0 0 1 1.8-.336c1.056 0 2 .232 2.832.696a5.11 5.11 0 0 1 1.992 1.92c.496.816.744 1.76.744 2.832 0 1.12-.272 2.104-.816 2.952a5.295 5.295 0 0 1-2.16 1.992c-.912.48-1.928.72-3.048.72ZM39.772 18H37.66v-7.008c0-1.312-.216-2.28-.648-2.904-.416-.624-1.04-.936-1.872-.936-.848 0-1.616.312-2.304.936-.688.608-1.176 1.4-1.464 2.376V18H29.26v-7.008c0-1.328-.208-2.296-.624-2.904-.416-.624-1.04-.936-1.872-.936-.832 0-1.6.304-2.304.912-.688.592-1.176 1.384-1.464 2.376V18h-2.112V5.472h1.92V8.16c.512-.928 1.176-1.64 1.992-2.136.816-.512 1.736-.768 2.76-.768 1.04 0 1.872.288 2.496.864.624.56 1.008 1.288 1.152 2.184 1.12-2.032 2.712-3.048 4.776-3.048.96 0 1.712.232 2.256.696.56.448.952 1.072 1.176 1.872.24.784.36 1.68.36 2.688V18Zm3.524-14.88V.48h2.112v2.64h-2.112Zm0 14.88V5.472h2.112V18h-2.112Zm16.643 0h-2.112v-7.008c0-1.328-.208-2.296-.624-2.904-.4-.624-1.016-.936-1.848-.936-.576 0-1.152.144-1.728.432-.56.288-1.064.68-1.512 1.176a4.341 4.341 0 0 0-.936 1.68V18h-2.112V5.472h1.92V8.16c.496-.88 1.208-1.584 2.136-2.112a6.19 6.19 0 0 1 3.072-.792c.976 0 1.728.232 2.256.696.544.448.928 1.072 1.152 1.872.224.784.336 1.68.336 2.688V18Z" fill="#00C26F"/></svg>