<svg width="45" height="22" fill="none" xmlns="http://www.w3.org/2000/svg"><path d="M.085 10.176c0-1.088.264-2.072.792-2.952a6.019 6.019 0 0 1 2.208-2.136c.928-.528 1.96-.792 3.096-.792 1.232 0 2.304.296 3.216.888.928.576 1.648 1.416 2.16 2.52.528 1.088.792 2.4.792 3.936 0 3.36-.584 5.872-1.752 7.536-1.168 1.68-2.712 2.52-4.632 2.52a5.792 5.792 0 0 1-3.024-.816 5.613 5.613 0 0 1-2.112-2.208L2.125 17.4a4.292 4.292 0 0 0 1.56 1.776 4.208 4.208 0 0 0 2.304.672c1.312 0 2.36-.584 3.144-1.752.8-1.168 1.208-2.808 1.224-4.92-.352.832-.928 1.496-1.728 1.992-.784.496-1.672.744-2.664.744-1.088 0-2.08-.256-2.976-.768A5.875 5.875 0 0 1 .853 13.08c-.512-.864-.768-1.832-.768-2.904ZM6.157 6.12c-.736 0-1.416.184-2.04.552a4.273 4.273 0 0 0-1.464 1.464 3.863 3.863 0 0 0-.552 2.04c0 .736.184 1.408.552 2.016a4.273 4.273 0 0 0 1.464 1.464 3.944 3.944 0 0 0 2.04.552c.752 0 1.432-.184 2.04-.552a4.273 4.273 0 0 0 1.464-1.464 3.82 3.82 0 0 0 .552-2.016A3.82 3.82 0 0 0 9.66 8.16a4.145 4.145 0 0 0-1.488-1.488 3.819 3.819 0 0 0-2.016-.552Zm20.613 7.056c0 1.008-.28 1.888-.84 2.64-.544.752-1.28 1.336-2.208 1.752-.912.416-1.912.624-3 .624-1.136 0-2.152-.224-3.048-.672-.896-.464-1.608-1.08-2.136-1.848a4.568 4.568 0 0 1-.768-2.592c0-.704.16-1.336.48-1.896.32-.56.72-1.032 1.2-1.416.496-.4 1-.696 1.512-.888a5.113 5.113 0 0 1-1.848-1.368 3.15 3.15 0 0 1-.768-2.088c0-.72.16-1.352.48-1.896.32-.56.744-1.032 1.272-1.416a5.778 5.778 0 0 1 1.752-.864A6.652 6.652 0 0 1 20.77.96c.64 0 1.28.096 1.92.288.64.192 1.224.48 1.752.864.544.368.976.832 1.296 1.392.32.544.48 1.176.48 1.896 0 .784-.264 1.488-.792 2.112a5.062 5.062 0 0 1-1.872 1.368c.864.336 1.616.88 2.256 1.632.64.736.96 1.624.96 2.664Zm-9.288-7.68c0 .56.168 1.04.504 1.44.336.4.76.704 1.272.912a4.287 4.287 0 0 0 1.512.288c.512 0 1.016-.104 1.512-.312a3.206 3.206 0 0 0 1.272-.912c.336-.4.504-.888.504-1.464 0-.544-.16-1.008-.48-1.392-.304-.384-.712-.68-1.224-.888a4.116 4.116 0 0 0-1.608-.312 3.97 3.97 0 0 0-1.608.336 2.864 2.864 0 0 0-1.2.912c-.304.384-.456.848-.456 1.392Zm7.152 7.536c0-.688-.2-1.272-.6-1.752a3.65 3.65 0 0 0-1.464-1.128 4.553 4.553 0 0 0-1.824-.384c-.64 0-1.256.136-1.848.408a3.698 3.698 0 0 0-1.416 1.152c-.368.48-.552 1.056-.552 1.728 0 .672.192 1.248.576 1.728.384.48.872.856 1.464 1.128a4.668 4.668 0 0 0 1.824.384 4.22 4.22 0 0 0 1.824-.408 3.659 3.659 0 0 0 1.44-1.152 2.708 2.708 0 0 0 .576-1.704Zm8.127-5.304a3.81 3.81 0 0 1-1.848-.456A3.799 3.799 0 0 1 29.57 6a3.317 3.317 0 0 1-.505-1.776c0-.656.168-1.248.505-1.776A3.601 3.601 0 0 1 30.913 1.2a3.66 3.66 0 0 1 1.848-.48c.688 0 1.313.16 1.872.48.56.304 1 .72 1.32 1.248.336.528.505 1.12.505 1.776 0 .64-.169 1.232-.505 1.776a3.6 3.6 0 0 1-1.32 1.272 3.86 3.86 0 0 1-1.872.456Zm-2.88 9.48 6.72-8.088L43.034.84l1.032.888-6.648 8.04-6.527 8.352-1.009-.912Zm2.88-10.632c.608 0 1.12-.232 1.536-.696.417-.48.625-1.032.625-1.656 0-.656-.216-1.208-.648-1.656-.432-.464-.937-.696-1.513-.696-.592 0-1.104.24-1.536.72a2.367 2.367 0 0 0-.623 1.632c0 .64.207 1.192.623 1.656.432.464.944.696 1.536.696Zm8.424 11.664a3.86 3.86 0 0 1-1.872-.456 3.864 3.864 0 0 1-1.32-1.272 3.317 3.317 0 0 1-.504-1.776c0-.656.169-1.248.505-1.776a3.656 3.656 0 0 1 1.32-1.248c.56-.32 1.184-.48 1.871-.48.688 0 1.313.16 1.872.48.56.304 1 .72 1.32 1.248.337.528.505 1.12.505 1.776 0 .64-.168 1.232-.505 1.776a3.6 3.6 0 0 1-1.32 1.272 3.86 3.86 0 0 1-1.872.456Zm0-1.152c.608 0 1.12-.232 1.536-.696a2.397 2.397 0 0 0 .625-1.656c0-.656-.216-1.208-.648-1.656-.432-.464-.937-.696-1.513-.696-.592 0-1.104.24-1.535.72a2.367 2.367 0 0 0-.624 1.632c0 .64.207 1.192.623 1.656.432.464.944.696 1.536.696Z" fill="#00C26F"/></svg>