<svg width="50" height="28" fill="none" xmlns="http://www.w3.org/2000/svg"><path fill-rule="evenodd" clip-rule="evenodd" d="M49.308 1.361a1.375 1.375 0 0 1 0 1.945L25.975 26.639a1.375 1.375 0 0 1-1.945 0L12.364 14.972a1.375 1.375 0 0 1 1.944-1.944l10.695 10.694 22.36-22.361a1.375 1.375 0 0 1 1.945 0Z" fill="#00C26F"/><path fill-rule="evenodd" clip-rule="evenodd" d="M37.636 1.361a1.375 1.375 0 0 1 0 1.945L25.97 14.972a1.375 1.375 0 0 1-1.945-1.944L35.692 1.36a1.375 1.375 0 0 1 1.944 0ZM.692 13.028a1.375 1.375 0 0 1 1.944 0l11.667 11.666a1.375 1.375 0 1 1-1.945 1.945L.692 14.972a1.375 1.375 0 0 1 0-1.944Z" fill="#00C26F"/></svg>