<svg width="200" height="129" viewBox="0 0 200 129" fill="none" xmlns="http://www.w3.org/2000/svg">
<path opacity="0.6" d="M108.025 37.4375C108.025 18.4141 123.447 2.99268 142.47 2.99268C161.494 2.99268 176.915 18.4141 176.915 37.4375C176.915 56.4608 161.494 71.8823 142.47 71.8823C136.841 71.8823 131.527 70.5319 126.835 68.1374" stroke="#BFA1FE" stroke-width="1.5"/>
<path d="M115.373 37.4369C115.373 22.4722 127.504 10.3409 142.469 10.3409C157.434 10.3409 169.565 22.4722 169.565 37.4369C169.565 52.4016 157.434 64.5329 142.469 64.5329C136.701 64.5329 131.354 62.7305 126.96 59.6583" stroke="#BFA1FE" stroke-width="0.850696" stroke-linecap="round" stroke-dasharray="0.85 5.1"/>
<rect x="130.193" y="38.1589" width="18.0797" height="18.0797" transform="rotate(-45 130.193 38.1589)" stroke="#BFA1FE" stroke-width="1.70139"/>
<path opacity="0.6" d="M72.2504 62.5146C67.6358 60.2263 62.4363 58.9399 56.9364 58.9399C37.8735 58.9399 22.4199 74.3935 22.4199 93.4564C22.4199 112.519 37.8735 127.973 56.9364 127.973C73.9758 127.973 88.1314 115.626 90.9446 99.3908" stroke="#BFA1FE" stroke-width="1.5"/>
<path d="M84.0318 93.4559C84.0318 108.421 71.9005 120.552 56.9358 120.552C41.9711 120.552 29.8398 108.421 29.8398 93.4559C29.8398 78.4913 41.9711 66.36 56.9358 66.36C62.8551 66.36 68.3311 68.2581 72.7884 71.4788" stroke="#BFA1FE" stroke-width="0.850696" stroke-linecap="round" stroke-dasharray="0.85 5.1"/>
<path d="M58.0283 79.1963C58.0283 79.5691 58.0283 81.5263 58.0283 82.4583" stroke="#BFA1FE" stroke-width="1.70139" stroke-linecap="round"/>
<path d="M53.2686 79.1963C53.2686 79.5691 53.2686 81.5263 53.2686 82.4583" stroke="#BFA1FE" stroke-width="1.70139" stroke-linecap="round"/>
<path d="M58.8066 105.894C58.8066 106.138 58.8066 107.421 58.8066 108.032" stroke="#BFA1FE" stroke-width="1.70139" stroke-linecap="round"/>
<path d="M53.6963 105.894C53.6963 106.138 53.6963 107.421 53.6963 108.032" stroke="#BFA1FE" stroke-width="1.70139" stroke-linecap="round"/>
<path d="M49.3838 82.6583H58.8701C61.4621 82.6583 63.5634 84.7596 63.5634 87.3516V87.3516C63.5634 89.9436 61.4621 92.0448 58.8701 92.0448H49.3838V82.6583Z" stroke="#BFA1FE" stroke-width="1.70139" stroke-linejoin="round"/>
<path d="M49.3838 92.0443H60.5894C63.4084 92.0443 65.6936 94.3295 65.6936 97.1485V99.9214C65.6936 102.74 63.4084 105.026 60.5894 105.026H49.3838V92.0443Z" stroke="#BFA1FE" stroke-width="1.70139" stroke-linejoin="round"/>
<path opacity="0.6" d="M177.038 93.4568L177.038 114.017C177.038 119.655 172.468 124.225 166.83 124.225L137.501 124.225" stroke="#BFA1FE" stroke-width="1.5" stroke-linecap="round" stroke-linejoin="round"/>
<path opacity="0.6" d="M21.9394 35.8054L21.9395 15.2456C21.9395 9.60768 26.5099 5.03725 32.1478 5.03724L61.4766 5.03723" stroke="#BFA1FE" stroke-width="1.5" stroke-linecap="round" stroke-linejoin="round"/>
<path opacity="0.6" d="M141.415 128.219L137.415 124.219L141.415 120.219" stroke="#BFA1FE" stroke-width="1.5" stroke-linecap="round" stroke-linejoin="round"/>
<path opacity="0.6" d="M57.5625 1.04346L61.5625 5.04346L57.5625 9.04346" stroke="#BFA1FE" stroke-width="1.5" stroke-linecap="round" stroke-linejoin="round"/>
<path d="M99.3925 33.2163C99.4416 33.189 99.4884 33.1629 99.5329 33.1381C99.5902 33.1726 99.6515 33.2095 99.7166 33.2485C100.209 33.544 100.925 33.967 101.819 34.4798C103.607 35.5051 106.114 36.8913 108.992 38.3356C114.409 41.0547 121.253 44.0374 127.102 45.1446V57.7226V62.6376C127.102 80.8352 116.253 97.2626 99.5559 104.42C82.8586 97.2626 72.0094 80.8352 72.0094 62.6376V57.7226V45.0691C78.1419 43.4436 85.0008 40.4695 90.3785 37.8758C93.2048 36.5127 95.6388 35.2464 97.3669 34.3205C98.2312 33.8574 98.9194 33.4792 99.3925 33.2163Z" stroke="#BFA1FE" stroke-width="2.3"/>
<path opacity="0.16" d="M99.3066 103.455V33.4889L111.685 39.9473L126.351 45.5984L125.678 48.5585V74.9303L115.453 93.2291L99.3066 103.455Z" fill="#BFA1FE"/>
</svg>
