<svg width="85" height="93" viewBox="0 0 85 93" fill="none" xmlns="http://www.w3.org/2000/svg">
<path opacity="0.5" d="M2.64258 36.9958L11.0794 29.8956C11.4399 29.5922 11.8961 29.4258 12.3673 29.4258C20.0398 29.4258 26.1534 29.4258 32.2197 29.4258M82.0989 36.9958L75.19 30.0185C74.8144 29.6392 74.3027 29.4258 73.7688 29.4258H53.9385" stroke="#BFA1FE" stroke-linecap="round" stroke-linejoin="round"/>
<path opacity="0.5" d="M17.0008 91.613C17.0008 91.613 8.45517 91.613 7.47204 91.613C7.47204 89.4955 7.47204 90.1383 7.47204 88.981H2.74023C1.63566 88.981 0.740234 88.0855 0.740234 86.981V39.1396C0.740234 38.0351 1.63566 37.1396 2.74023 37.1396H82.0005C83.1051 37.1396 84.0005 38.0351 84.0005 39.1396V86.981C84.0005 88.0855 83.1051 88.981 82.0005 88.981C80.5199 88.981 79.0046 88.981 77.463 88.981C77.463 89.7602 77.463 90.2139 77.463 91.6508C76.159 91.6508 69.3463 91.6508 67.7452 91.6508M17.0008 91.613C17.0008 91.613 17.0008 90.4408 17.0008 88.981M17.0008 91.613V88.981M17.0008 88.981C17.7658 88.981 43.775 88.981 67.7452 88.981M67.7452 88.981C67.7452 88.981 67.7452 90.3159 67.7452 91.6508M67.7452 88.981V91.6508" stroke="#BFA1FE" stroke-linecap="round" stroke-linejoin="round"/>
<rect opacity="0.5" x="7.02344" y="43.4233" width="70.6927" height="39.2737" rx="2" stroke="#BFA1FE" stroke-linecap="round" stroke-linejoin="round"/>
<path d="M23.4971 33.2107L62.3877 33.2107" stroke="#BFA1FE" stroke-width="1.5" stroke-linecap="round" stroke-linejoin="round"/>
<path d="M29.7314 71.0946L36.8229 71.0946" stroke="#BFA1FE" stroke-width="1.11556" stroke-linecap="round" stroke-linejoin="round"/>
<path d="M14.1074 71.0946L21.1988 71.0946" stroke="#BFA1FE" stroke-width="1.11556" stroke-linecap="round" stroke-linejoin="round"/>
<circle cx="25.465" cy="71.0945" r="4.26672" stroke="#BFA1FE" stroke-width="1.3"/>
<ellipse cx="25.4646" cy="71.0945" rx="1.52322" ry="1.52322" stroke="#BFA1FE" stroke-width="1.3"/>
<path d="M58.8401 17.3327C58.8401 25.0275 53.3664 31.444 46.1003 32.9006C45.0858 33.104 42.9621 33.2107 42.9621 33.2107C42.9621 33.2107 40.8383 33.104 39.8238 32.9006C32.5577 31.444 27.084 25.0275 27.084 17.3327C27.084 8.56344 34.1928 1.45459 42.9621 1.45459C51.7313 1.45459 58.8401 8.56344 58.8401 17.3327Z" stroke="#BFA1FE" stroke-width="1.5"/>
<circle cx="42.9614" cy="17.3327" r="12.2582" stroke="#BFA1FE" stroke-width="0.5" stroke-linecap="round" stroke-dasharray="0.5 3"/>
<rect x="37.8068" y="17.665" width="7.61851" height="7.61851" transform="rotate(-45 37.8068 17.665)" stroke="#BFA1FE" stroke-width="1.5"/>
<circle cx="54.0019" cy="64.1627" r="1.10247" fill="#BFA1FE"/>
<circle cx="54.0019" cy="68.5489" r="1.10247" fill="#BFA1FE"/>
<circle cx="54.0019" cy="72.9355" r="1.10247" fill="#BFA1FE"/>
<circle cx="58.8427" cy="64.1627" r="1.10247" fill="#BFA1FE"/>
<circle cx="58.8427" cy="68.5489" r="1.10247" fill="#BFA1FE"/>
<circle cx="58.8427" cy="72.9355" r="1.10247" fill="#BFA1FE"/>
<circle cx="63.6816" cy="64.1627" r="1.10247" fill="#BFA1FE"/>
<circle cx="63.6816" cy="68.5489" r="1.10247" fill="#BFA1FE"/>
<circle cx="63.6816" cy="72.9355" r="1.10247" fill="#BFA1FE"/>
<rect opacity="0.16" x="52.7715" y="53.5359" width="12.0126" height="4.38625" rx="1" fill="#BFA1FE"/>
</svg>
