<svg width="200" height="97" viewBox="0 0 200 97" fill="none" xmlns="http://www.w3.org/2000/svg">
<path opacity="0.6" d="M149.441 18.8146C153.972 16.558 159.08 15.2888 164.485 15.2888C183.144 15.2888 198.27 30.4149 198.27 49.0739C198.27 67.7328 183.144 82.8589 164.485 82.8589C159.074 82.8589 153.96 81.5868 149.426 79.3254" stroke="#BFA1FE" stroke-width="1.5"/>
<path opacity="0.6" d="M50.8281 18.8146C46.2979 16.558 41.1894 15.2888 35.7846 15.2888C17.1256 15.2888 1.99953 30.4149 1.99953 49.0739C1.99953 67.7328 17.1256 82.8589 35.7846 82.8589C41.1957 82.8589 46.3096 81.5868 50.8438 79.3254" stroke="#BFA1FE" stroke-width="1.5"/>
<path d="M153.425 26.5612C156.714 24.9691 160.404 24.0764 164.303 24.0764C178.109 24.0764 189.301 35.2684 189.301 49.0745C189.301 62.8805 178.109 74.0725 164.303 74.0725C160.404 74.0725 156.714 73.1799 153.425 71.5877" stroke="#BFA1FE" stroke-width="1.16452" stroke-linecap="round" stroke-dasharray="0.73 4.37"/>
<path d="M46.8438 26.5612C43.5549 24.9691 39.8643 24.0764 35.9652 24.0764C22.1591 24.0764 10.9671 35.2684 10.9671 49.0745C10.9671 62.8805 22.1591 74.0725 35.9652 74.0725C39.8643 74.0725 43.5549 73.1799 46.8438 71.5877" stroke="#BFA1FE" stroke-width="1.16452" stroke-linecap="round" stroke-dasharray="0.73 4.37"/>
<path d="M165.709 37.2422L157.965 58.5722H172.094" stroke="#BFA1FE" stroke-width="1.79649" stroke-linecap="round" stroke-linejoin="round"/>
<path d="M157.426 51.2349L164.829 51.2349" stroke="#BFA1FE" stroke-width="1.79649" stroke-linecap="round"/>
<path d="M21.6602 58.5158H28.6096V42.3906C28.6096 41.5209 29.722 41.1588 30.234 41.8618L38.7317 53.5303L43.1812 47.8892" stroke="#BFA1FE" stroke-width="1.79649" stroke-linecap="round" stroke-linejoin="round"/>
<circle cx="99.8869" cy="49.0741" r="33.7853" stroke="#BFA1FE" stroke-width="1.77679" stroke-linecap="round" stroke-dasharray="0.98 5.9"/>
<path d="M102.026 29.272C102.026 29.6605 102.026 31.7001 102.026 32.6714" stroke="#BFA1FE" stroke-width="2.3" stroke-linecap="round"/>
<path d="M96.043 29.272C96.043 29.6605 96.043 31.7001 96.043 32.6714" stroke="#BFA1FE" stroke-width="2.3" stroke-linecap="round"/>
<path d="M103.098 65.0081C103.098 65.3085 103.098 66.8861 103.098 67.6373" stroke="#BFA1FE" stroke-width="2.3" stroke-linecap="round"/>
<path d="M96.043 65.0081C96.043 65.3085 96.043 66.8861 96.043 67.6373" stroke="#BFA1FE" stroke-width="2.3" stroke-linecap="round"/>
<path d="M90.1504 32.9463H104.98C108.24 32.9463 110.882 35.5887 110.882 38.8483V39.9352C110.882 43.1948 108.24 45.8372 104.98 45.8372H90.1504V32.9463Z" stroke="#BFA1FE" stroke-width="2.3" stroke-linejoin="round"/>
<path d="M90.1504 45.8369H105.54C109.411 45.8369 112.55 48.9753 112.55 52.8468V56.655C112.55 60.5264 109.411 63.6648 105.54 63.6648H90.1504V45.8369Z" stroke="#BFA1FE" stroke-width="2.3" stroke-linejoin="round"/>
<circle cx="100.386" cy="49.0742" r="45.4099" stroke="#BFA1FE" stroke-width="2.3"/>
</svg>
