<svg width="33" height="56" fill="none" xmlns="http://www.w3.org/2000/svg"><path d="m.094 42.724.981-.194c-.42-2.117.97-4.183 3.126-4.602 2.158-.42 4.238.974 4.658 3.094.706 3.564 3.879 6.134 7.532 6.134 4.226 0 7.677-3.408 7.677-7.617 0-4.21-3.452-7.617-7.677-7.617-2.199 0-3.966-1.764-3.966-3.922 0-2.158 1.767-3.922 3.966-3.922 4.226 0 7.677-3.408 7.677-7.617 0-4.21-3.452-7.617-7.677-7.617-3.653 0-6.826 2.57-7.532 6.135-.42 2.119-2.5 3.513-4.658 3.093-2.156-.42-3.545-2.485-3.126-4.602C2.505 6.253 8.943 1 16.391 1 25.006 1 32 7.945 32 16.46c0 4.215-1.71 8.04-4.486 10.835l-.7.705.7.705C30.289 31.499 32 35.325 32 39.539 32 48.055 25.006 55 16.391 55 8.943 55 2.505 49.747 1.075 42.53l-.98.194Z" stroke="#59547A" stroke-width="2"/></svg>