<svg width="75" height="40" viewBox="0 0 75 40" fill="none" xmlns="http://www.w3.org/2000/svg">
<path d="M19.4175 7.11792H26.8397V8.49964H23.9173V16.2887H22.3155V8.49964H19.4053L19.4175 7.11792ZM26.5218 9.64904H27.8913V10.933H27.9157C27.9646 10.7495 28.0502 10.5783 28.1725 10.4072C28.2948 10.236 28.4415 10.077 28.6249 9.94251C28.7961 9.79578 28.9918 9.68573 29.2119 9.60014C29.4197 9.51454 29.6398 9.46563 29.8599 9.46563C30.0311 9.46563 30.1534 9.47786 30.2145 9.47786C30.2757 9.49009 30.349 9.50232 30.4102 9.50232V10.9085C30.3124 10.884 30.2023 10.8718 30.0923 10.8596C29.9822 10.8474 29.8844 10.8351 29.7743 10.8351C29.5298 10.8351 29.2975 10.884 29.0774 10.9819C28.8573 11.0797 28.6738 11.2264 28.5027 11.4098C28.3437 11.6055 28.2092 11.8378 28.1114 12.119C28.0136 12.4003 27.9646 12.7304 27.9646 13.0972V16.252H26.4973L26.5218 9.64904ZM37.1354 16.2887H35.6925V15.3594H35.6681C35.4847 15.7017 35.2156 15.9585 34.861 16.1664C34.5064 16.3743 34.1396 16.4721 33.7728 16.4721C32.9046 16.4721 32.2688 16.2642 31.8775 15.824C31.4862 15.396 31.2906 14.7358 31.2906 13.8676V9.64904H32.7579V13.7209C32.7579 14.3078 32.8679 14.7235 33.1003 14.9559C33.3204 15.2004 33.6383 15.3227 34.0418 15.3227C34.3475 15.3227 34.6043 15.2738 34.8121 15.176C35.02 15.0781 35.1912 14.9559 35.3135 14.7969C35.448 14.6379 35.5336 14.4423 35.5947 14.2222C35.6558 14.0021 35.6803 13.7575 35.6803 13.5008V9.64904H37.1476V16.2887H37.1354ZM39.6298 14.1611C39.6787 14.589 39.8377 14.8825 40.1189 15.0659C40.4002 15.2371 40.7425 15.3227 41.1338 15.3227C41.2683 15.3227 41.4273 15.3105 41.5985 15.286C41.7697 15.2615 41.9409 15.2249 42.0876 15.1637C42.2466 15.1026 42.3688 15.017 42.4667 14.8947C42.5645 14.7724 42.6134 14.6257 42.6012 14.4423C42.5889 14.2589 42.5278 14.0999 42.3933 13.9776C42.2588 13.8554 42.0998 13.7698 41.9042 13.6842C41.7085 13.6108 41.4762 13.5497 41.2194 13.5008C40.9627 13.4518 40.7059 13.3907 40.4369 13.3296C40.1679 13.2684 39.8988 13.1951 39.6421 13.1095C39.3853 13.0239 39.1652 12.9138 38.9573 12.7549C38.7617 12.6081 38.5905 12.4247 38.4804 12.1924C38.3582 11.9601 38.297 11.6911 38.297 11.3487C38.297 10.9819 38.3826 10.6884 38.566 10.4438C38.7372 10.1993 38.9695 10.0036 39.2385 9.85692C39.5076 9.71018 39.8133 9.60014 40.1434 9.539C40.4735 9.47786 40.7915 9.4534 41.0849 9.4534C41.4273 9.4534 41.7574 9.49009 42.0631 9.56345C42.3688 9.63682 42.6623 9.74687 42.9068 9.91806C43.1636 10.077 43.3715 10.2971 43.5305 10.5539C43.7016 10.8107 43.7995 11.1286 43.8484 11.4954H42.3199C42.2466 11.1408 42.0876 10.9085 41.843 10.7862C41.5863 10.6639 41.305 10.6028 40.9749 10.6028C40.8771 10.6028 40.7426 10.615 40.608 10.6273C40.4613 10.6517 40.339 10.6762 40.2045 10.7251C40.0823 10.774 39.9722 10.8474 39.8866 10.933C39.801 11.0185 39.7521 11.1408 39.7521 11.2876C39.7521 11.471 39.8132 11.6055 39.9355 11.7155C40.0578 11.8256 40.2168 11.9112 40.4246 11.9968C40.6203 12.0701 40.8526 12.1313 41.1094 12.1802C41.3662 12.2291 41.6352 12.2902 41.9042 12.3514C42.1732 12.4125 42.43 12.4859 42.6868 12.5715C42.9435 12.6571 43.1759 12.7671 43.3715 12.9261C43.5671 13.0728 43.7383 13.2562 43.8606 13.4763C43.9829 13.6964 44.044 13.9776 44.044 14.2956C44.044 14.6868 43.9584 15.017 43.775 15.2982C43.5916 15.5672 43.3593 15.7996 43.078 15.9708C42.7968 16.1419 42.4667 16.2642 42.1243 16.3498C41.7697 16.4232 41.4273 16.4721 41.0849 16.4721C40.6692 16.4721 40.2779 16.4232 39.9233 16.3254C39.5687 16.2275 39.2508 16.0808 38.994 15.8974C38.7372 15.7017 38.5293 15.4694 38.3826 15.176C38.2359 14.8947 38.1503 14.5523 38.1381 14.1488H39.6176V14.1611H39.6298ZM44.4598 9.64904H45.5725V7.64371H47.0398V9.63682H48.3604V10.7251H47.0398V14.2711C47.0398 14.4301 47.052 14.5523 47.0643 14.6746C47.0765 14.7847 47.1132 14.8825 47.1498 14.9559C47.1988 15.0292 47.2721 15.0904 47.3577 15.127C47.4555 15.1637 47.5778 15.1882 47.749 15.1882C47.8468 15.1882 47.9569 15.1882 48.0547 15.176C48.1525 15.1637 48.2626 15.1515 48.3604 15.127V16.2642C48.2014 16.2887 48.0425 16.3009 47.8835 16.3131C47.7246 16.3376 47.5778 16.3376 47.4066 16.3376C47.0153 16.3376 46.7097 16.3009 46.4773 16.2275C46.245 16.1542 46.0616 16.0441 45.9271 15.9096C45.7926 15.7629 45.707 15.5917 45.6581 15.3838C45.6092 15.176 45.5847 14.9192 45.5725 14.6502V10.7373H44.4598V9.62459V9.64904ZM49.3875 9.64904H50.7692V10.5539H50.7937C51.0016 10.1626 51.2828 9.8936 51.6496 9.72241C52.0165 9.55122 52.4077 9.46563 52.8479 9.46563C53.3737 9.46563 53.8262 9.55123 54.2174 9.74687C54.6087 9.93028 54.9266 10.1748 55.1834 10.505C55.4402 10.8229 55.6358 11.202 55.7581 11.6299C55.8804 12.0579 55.9538 12.5225 55.9538 12.9994C55.9538 13.4518 55.8926 13.8798 55.7826 14.2956C55.6603 14.7113 55.4891 15.0904 55.2568 15.4083C55.0245 15.7262 54.731 15.983 54.3642 16.1786C53.9973 16.3743 53.5816 16.4721 53.0925 16.4721C52.8846 16.4721 52.6645 16.4476 52.4567 16.4109C52.2488 16.3743 52.0409 16.3131 51.8453 16.2275C51.6496 16.1419 51.4662 16.0319 51.3073 15.8974C51.1361 15.7629 51.0016 15.6039 50.8915 15.4327H50.8671V18.7464H49.3997V9.64904H49.3875ZM54.5109 12.975C54.5109 12.6815 54.4742 12.388 54.3886 12.1068C54.3153 11.8256 54.193 11.581 54.034 11.3609C53.8751 11.1408 53.6794 10.9696 53.4593 10.8351C53.227 10.7006 52.958 10.6395 52.6645 10.6395C52.0531 10.6395 51.5885 10.8474 51.2706 11.2753C50.9649 11.7033 50.8059 12.278 50.8059 12.9872C50.8059 13.3296 50.8426 13.6353 50.9282 13.9165C51.0138 14.1977 51.1238 14.4423 51.295 14.6502C51.454 14.858 51.6496 15.017 51.882 15.1393C52.1143 15.2615 52.3711 15.3227 52.6768 15.3227C53.0191 15.3227 53.2881 15.2493 53.5205 15.1148C53.7528 14.9803 53.9362 14.7969 54.0952 14.589C54.2419 14.3689 54.3519 14.1244 54.4131 13.8431C54.4742 13.5497 54.5109 13.2684 54.5109 12.975ZM57.0909 7.11792H58.5583V8.49964H57.0909V7.11792ZM57.0909 9.64904H58.5583V16.2887H57.0909V9.64904ZM59.8666 7.11792H61.3339V16.2887H59.8666V7.11792ZM65.8093 16.4721C65.2835 16.4721 64.8066 16.3865 64.3909 16.2031C63.9751 16.0197 63.6327 15.7873 63.3393 15.4816C63.058 15.176 62.8379 14.7969 62.6912 14.3689C62.5445 13.941 62.4589 13.4641 62.4589 12.9627C62.4589 12.4614 62.5323 11.9968 62.6912 11.5688C62.8379 11.1408 63.058 10.774 63.3393 10.4561C63.6205 10.1504 63.9751 9.90583 64.3909 9.73464C64.8066 9.56345 65.2835 9.46563 65.8093 9.46563C66.3351 9.46563 66.8119 9.55123 67.2277 9.73464C67.6434 9.90583 67.9858 10.1504 68.2793 10.4561C68.5605 10.7618 68.7806 11.1408 68.9273 11.5688C69.0741 11.9968 69.1596 12.4614 69.1596 12.9627C69.1596 13.4763 69.0863 13.941 68.9273 14.3689C68.7684 14.7969 68.5605 15.1637 68.2793 15.4816C67.998 15.7873 67.6434 16.0319 67.2277 16.2031C66.8119 16.3743 66.3473 16.4721 65.8093 16.4721ZM65.8093 15.3105C66.1272 15.3105 66.4207 15.2371 66.653 15.1026C66.8975 14.9681 67.0809 14.7847 67.2399 14.5646C67.3989 14.3445 67.5089 14.0877 67.5823 13.8187C67.6556 13.5374 67.6923 13.2562 67.6923 12.9627C67.6923 12.6815 67.6556 12.4003 67.5823 12.119C67.5089 11.8378 67.3989 11.5932 67.2399 11.3731C67.0809 11.153 66.8853 10.9819 66.653 10.8474C66.4084 10.7129 66.1272 10.6395 65.8093 10.6395C65.4913 10.6395 65.1979 10.7129 64.9656 10.8474C64.721 10.9819 64.5376 11.1653 64.3786 11.3731C64.2197 11.5932 64.1096 11.8378 64.0363 12.119C63.9629 12.4003 63.9262 12.6815 63.9262 12.9627C63.9262 13.2562 63.9629 13.5374 64.0363 13.8187C64.1096 14.0999 64.2197 14.3445 64.3786 14.5646C64.5376 14.7847 64.7332 14.9681 64.9656 15.1026C65.2101 15.2493 65.4913 15.3105 65.8093 15.3105ZM69.5998 9.64904H70.7126V7.64371H72.1799V9.63682H73.5005V10.7251H72.1799V14.2711C72.1799 14.4301 72.1921 14.5523 72.2043 14.6746C72.2166 14.7847 72.2532 14.8825 72.2899 14.9559C72.3388 15.0292 72.4122 15.0904 72.4978 15.127C72.5956 15.1637 72.7179 15.1882 72.8891 15.1882C72.9869 15.1882 73.097 15.1882 73.1948 15.176C73.2926 15.1637 73.4026 15.1515 73.5005 15.127V16.2642C73.3415 16.2887 73.1825 16.3009 73.0236 16.3131C72.8646 16.3376 72.7179 16.3376 72.5467 16.3376C72.1554 16.3376 71.8497 16.3009 71.6174 16.2275C71.3851 16.1542 71.2017 16.0441 71.0672 15.9096C70.9327 15.7629 70.8471 15.5917 70.7982 15.3838C70.7492 15.176 70.7248 14.9192 70.7126 14.6502V10.7373H69.5998V9.62459V9.64904Z" fill="white"/>
<path d="M10.9929 7.11795H17.7059L13.9109 9.87022L13.9089 9.86413L10.093 12.6355L12.5795 11.99L14.3433 17.4381L8.91423 13.4886L3.48515 17.4381L5.56385 11.0553L0.134766 7.10572L6.84776 7.11795L8.92646 0.735107L10.9929 7.11795Z" fill="#00B67A"/>
<rect x="0.134766" y="25.7351" width="14" height="14" fill="#00B67A"/>
<path d="M8.28954 31.0647H12.0307L9.91571 32.5986L9.91461 32.5952L7.788 34.1397L9.17372 33.7799L10.1567 36.8161L7.13108 34.6151L4.10545 36.8161L5.26391 33.259L2.23828 31.0579L5.97943 31.0647L7.13789 27.5076L8.28954 31.0647Z" fill="white"/>
<rect x="30.1348" y="25.7351" width="14" height="14" fill="#00B67A"/>
<path d="M37.9614 31.0647H41.7026L39.5876 32.5986L39.5865 32.5952L37.4599 34.1397L38.8456 33.7799L39.8286 36.8161L36.803 34.6151L33.7773 36.8161L34.9358 33.259L31.9102 31.0579L35.6513 31.0647L36.8098 27.5076L37.9614 31.0647Z" fill="white"/>
<rect x="15.1348" y="25.7351" width="14" height="14" fill="#00B67A"/>
<path d="M22.9429 31.0647H26.684L24.569 32.5986L24.5679 32.5952L22.4413 34.1397L23.827 33.7799L24.81 36.8161L21.7844 34.6151L18.7588 36.8161L19.9172 33.259L16.8916 31.0579L20.6328 31.0647L21.7912 27.5076L22.9429 31.0647Z" fill="white"/>
<rect x="45.1348" y="25.7351" width="14" height="14" fill="#00B67A"/>
<path d="M52.8804 31.0647H56.6215L54.5065 32.5986L54.5054 32.5952L52.3788 34.1397L53.7645 33.7799L54.7475 36.8161L51.7219 34.6151L48.6963 36.8161L49.8547 33.259L46.8291 31.0579L50.5703 31.0647L51.7287 27.5076L52.8804 31.0647Z" fill="white"/>
<rect x="60.1348" y="25.7351" width="14" height="14" fill="#00B67A"/>
<path d="M67.7016 31.0647H71.4428L69.3278 32.5986L69.3267 32.5952L67.2001 34.1397L68.5858 33.7799L69.5688 36.8161L66.5432 34.6151L63.5176 36.8161L64.676 33.259L61.6504 31.0579L65.3915 31.0647L66.55 27.5076L67.7016 31.0647Z" fill="white"/>
</svg>
