<?xml version="1.0" encoding="utf-8"?><svg width="146" height="96" viewBox="0 0 146 96" xmlns="http://www.w3.org/2000/svg" xmlns:xlink="http://www.w3.org/1999/xlink"><svg width="50" height="48" fill="none" viewBox="-2 -2 50 48" id="24h" xmlns="http://www.w3.org/2000/svg"><path d="M6.6 11.9C4.3 15.1 2.9 19 2.9 23.2c0 10.5 8.5 19 19 19 8.7 0 16-5.8 18.3-13.7" stroke="#5C5683" stroke-width="3" stroke-miterlimit="10" stroke-linecap="round" stroke-linejoin="round"/><path d="M2.2 11.8l5-1.1 1.1 5" stroke="#5C5683" stroke-width="3" stroke-miterlimit="10" stroke-linecap="round" stroke-linejoin="round"/><path d="M21.3 27.4h-5.7v-1.1l2.6-3c.4-.5.7-.9.8-1.2.1-.3.2-.6.2-.9 0-.4-.1-.6-.3-.8-.2-.2-.3-.4-.7-.4-.4 0-.7.1-.9.4-.2.3-.3.6-.3 1h-1.7c0-.8.2-1.4.8-1.9.6-.5 1.2-.8 2.1-.8.9 0 1.6.2 2 .7.4.5.7 1 .7 1.8 0 .5-.1 1-.4 1.4-.3.4-.7 1-1.4 1.8L17.8 26h3.5v1.4zM27.4 24.2h1v1.3h-1v1.9h-1.7v-1.9h-3.5l-.1-1 3.5-5.7h1.7v5.4h.1zm-3.8 0h2v-3.1l-.2.4-1.8 2.7z" fill="#3BED80"/><path d="M38.4 22.3l6.1-.4M35.9 14.4l5.3-3M30.5 9.1L33.7 4M23.1 7.1V1M15.1 8.4L13 3.7" stroke="#5C5683" stroke-width="2" stroke-miterlimit="10" stroke-linecap="round" stroke-linejoin="round" stroke-dasharray="5 5"/></svg><svg width="48" height="47" fill="none" viewBox="-2 -2 48 47" id="24h-volume" x="50" xmlns="http://www.w3.org/2000/svg"><path d="M26.788 2h-9.496v38.577h9.496V2zM42 14.463h-9.496v26.114H42V14.464zM11.496 23.366H2v17.211h9.496V23.366z" stroke="#3BEC80" stroke-width="3" stroke-miterlimit="10" stroke-linecap="round" stroke-linejoin="round"/></svg><svg width="48" height="48" fill="none" viewBox="-2 -2 48 48" id="7d" y="48" xmlns="http://www.w3.org/2000/svg"><g clip-path="url(#cclip0)"><path d="M42 7H2v35h40V7zM2 14h40M11.11 4v5.814M32.998 4v5.814" stroke="#5C5683" stroke-width="3" stroke-miterlimit="10" stroke-linecap="round" stroke-linejoin="round"/><path d="M15.222 25h1.556c.666 0 1.222.556 1.222 1.222v1.556c0 .666-.556 1.222-1.222 1.222h-1.556A1.233 1.233 0 0114 27.778v-1.556c0-.666.556-1.222 1.222-1.222zM15.222 19h1.556c.666 0 1.222.556 1.222 1.222v1.556c0 .666-.556 1.222-1.222 1.222h-1.556A1.233 1.233 0 0114 21.778v-1.556c0-.666.556-1.222 1.222-1.222zM9.222 25h1.556c.666 0 1.222.556 1.222 1.222v1.556c0 .666-.556 1.222-1.222 1.222H9.222A1.233 1.233 0 018 27.778v-1.556C8 25.556 8.556 25 9.222 25zM9.222 19h1.556c.666 0 1.222.556 1.222 1.222v1.556c0 .666-.556 1.222-1.222 1.222H9.222A1.233 1.233 0 018 21.778v-1.556C8 19.556 8.556 19 9.222 19zM27.222 19h1.556c.666 0 1.222.556 1.222 1.222v1.556c0 .666-.556 1.222-1.222 1.222h-1.556A1.233 1.233 0 0126 21.778v-1.556c0-.666.556-1.222 1.222-1.222zM33.222 19h1.556c.666 0 1.222.556 1.222 1.222v1.556c0 .666-.556 1.222-1.222 1.222h-1.556A1.233 1.233 0 0132 21.778v-1.556c0-.666.556-1.222 1.222-1.222zM21.222 19h1.556c.666 0 1.222.556 1.222 1.222v1.556c0 .666-.556 1.222-1.222 1.222h-1.556A1.233 1.233 0 0120 21.778v-1.556c0-.666.556-1.222 1.222-1.222z" fill="#3BED80"/></g><defs><clipPath id="cclip0"><path fill="#fff" transform="rotate(-180 22 22)" d="M0 0h44v44H0z"/></clipPath></defs></svg><svg width="47" height="46" fill="none" viewBox="-2 -2 47 46" id="coin-supply" x="98" y="48" xmlns="http://www.w3.org/2000/svg"><path d="M36.4 17.5c-.8-9-8.3-16-17.4-16C9.3 1.5 1.5 9.3 1.5 19S9.3 36.5 19 36.5" stroke="#5C5780" stroke-width="3" stroke-miterlimit="10" stroke-linecap="round" stroke-linejoin="round"/><path d="M19 40.3c12.3 0 22.3-10 22.3-22.3H19v22.3z" stroke="#3BEC80" stroke-width="3" stroke-miterlimit="10" stroke-linecap="round" stroke-linejoin="round"/></svg><svg width="48" height="44" fill="none" viewBox="-2 -2 48 44" id="market-cap" x="48" y="48" xmlns="http://www.w3.org/2000/svg"><path d="M7.38 14.797L27.263 3.3M20.246 1.187l7.602 1.76-2.222 7.509" stroke="#3BEC80" stroke-width="2.217" stroke-miterlimit="10" stroke-linecap="round" stroke-linejoin="round"/><path d="M42 38.382H2v-4.928L42 11.16v27.222z" stroke="#5C5780" stroke-width="3" stroke-miterlimit="10" stroke-linecap="round" stroke-linejoin="round"/></svg><svg width="48" height="48" fill="none" viewBox="-2 -2 48 48" id="price" x="98" xmlns="http://www.w3.org/2000/svg"><circle cx="17.197" cy="19.44" r="2.443" transform="rotate(-39.594 17.197 19.44)" stroke="#3BEE81" stroke-width="2"/><circle cx="26.931" cy="26.609" r="2.443" transform="rotate(-39.594 26.931 26.609)" stroke="#3BEE81" stroke-width="2"/><path d="M27.155 16.912c-.302.249-6.913 8.254-10.181 12.225" stroke="#3BEE81" stroke-width="2" stroke-linecap="round" stroke-linejoin="round"/><path d="M34.965 6.88l1.242 7.403L42 19.032l-3.724 6.564 1.38 7.263-6.897 2.654-3.724 6.565-6.897-2.514-6.897 2.653-3.724-6.564-7.034-2.375 1.241-7.402L2 19.45l5.655-4.889L8.76 7.16h7.448l5.655-4.889 5.655 4.75 7.448-.14z" stroke="#5C5780" stroke-width="3" stroke-miterlimit="10" stroke-linecap="round" stroke-linejoin="round"/></svg></svg>