<?xml version="1.0" encoding="utf-8"?><svg width="1647" height="1277" viewBox="0 0 1647 1277" xmlns="http://www.w3.org/2000/svg" xmlns:xlink="http://www.w3.org/1999/xlink"><svg width="42" height="42" fill="none" viewBox="-2 -2 42 42" id="atomic" x="1421" y="567" xmlns="http://www.w3.org/2000/svg"><path d="M0 19C0 8.535 8.535 0 19 0s19 8.535 19 19-8.535 19-19 19S0 29.465 0 19zm14.323-9.412L7.015 29.815l4.502-1.578 6.197-17.305c.35-.935.818-1.286 1.52-1.286.701 0 1.17.35 1.52 1.286l6.197 17.305 4.618 1.578-7.307-20.227c-.936-2.339-2.631-3.683-4.911-3.742H19.234c-2.28.059-4.034 1.403-4.91 3.742zm5.028 15.726c1.754 0 3.098-1.462 3.098-3.215 0-1.754-1.403-3.216-3.098-3.216-1.754 0-3.099 1.462-3.099 3.216a3.108 3.108 0 003.099 3.215z" fill="url(#apaint0_linear)"/><defs><linearGradient id="apaint0_linear" x1="19" y1="0" x2="19" y2="38" gradientUnits="userSpaceOnUse"><stop stop-color="#F8D175"/><stop offset="1" stop-color="#F4C148"/></linearGradient></defs></svg><svg width="42" height="42" fill="none" viewBox="-2 -2 42 42" id="atomic-blue" x="1463" y="567" xmlns="http://www.w3.org/2000/svg"><path d="M0 19C0 8.535 8.535 0 19 0s19 8.535 19 19-8.535 19-19 19S0 29.465 0 19zm14.323-9.412L7.015 29.815l4.502-1.578 6.197-17.305c.35-.935.818-1.286 1.52-1.286.701 0 1.17.35 1.52 1.286l6.197 17.305 4.618 1.578-7.307-20.227c-.936-2.339-2.631-3.683-4.911-3.742H19.234c-2.28.059-4.034 1.403-4.91 3.742zm5.028 15.726c1.754 0 3.098-1.462 3.098-3.215 0-1.754-1.403-3.216-3.098-3.216-1.754 0-3.099 1.462-3.099 3.216a3.108 3.108 0 003.099 3.215z" fill="url(#bpaint0_linear)"/><defs><linearGradient id="bpaint0_linear" x1="19" y1="0" x2="19" y2="38" gradientUnits="userSpaceOnUse"><stop stop-color="#42C1FD"/><stop offset="1" stop-color="#1F8EFA"/></linearGradient></defs></svg><svg width="82" height="81" fill="none" viewBox="-2 -2 82 81" id="ava-coin" x="1294" y="626" xmlns="http://www.w3.org/2000/svg"><path opacity=".7" fill-rule="evenodd" clip-rule="evenodd" d="M77.315 38.75C77.315 59.875 60.19 77 39.065 77 17.941 77 .815 59.875.815 38.75S17.94.5 39.065.5s38.25 17.125 38.25 38.25zM23.967 20.632h29.392c2.214 0 3.825 1.811 3.825 3.825v4.428c0 .604-.403 1.007-1.007 1.007h-10.67v29.795c0 .604-.402 1.006-1.006 1.006h-6.24c-2.215 0-3.826-1.61-3.826-3.825V29.892H23.967c-.604 0-1.007-.402-1.007-1.006v-7.248c0-.604.403-1.006 1.007-1.006z" fill="#292A4C"/></svg><svg width="503" height="491" fill="none" viewBox="-2 -2 503 491" id="awc" x="512" y="437" xmlns="http://www.w3.org/2000/svg"><g opacity=".15" fill="#F2C94C"><path d="M148.405 76.02L0 487l91.418-32.071 127.034-351.59c7.124-19.005 16.622-26.132 30.869-26.132s23.745 7.127 30.868 26.132l125.848 351.59L498.641 487 350.236 76.02C332.428 28.506 296.81 1.188 250.508 0h-2.375c-46.302 1.188-81.919 28.507-99.728 76.02z"/><path d="M250.508 395.539c34.752 0 62.924-29.249 62.924-65.329s-28.172-65.329-62.924-65.329c-34.752 0-62.924 29.249-62.924 65.329s28.172 65.329 62.924 65.329z"/></g></svg><svg width="512" height="509" fill="none" viewBox="-2 -2 512 509" id="bnb" y="437" xmlns="http://www.w3.org/2000/svg"><path opacity=".15" fill-rule="evenodd" clip-rule="evenodd" d="M224.529 47.908l85.681 46.065 42.38-26.718L226.372 0l-30.403 18.426-11.977 7.37-79.233 47.908 38.695 23.033 81.075-48.83zm131.748 70.94l42.38-25.796 41.458 23.953v45.144l-42.38 25.797v-45.144l-41.458-23.954zm-128.984 24.876l41.459-24.876-39.617-23.954-41.458 24.876 39.616 23.954zm127.14 23.954v46.065l-85.682 52.514v92.131l-40.537 22.111-40.537-22.111v-94.895l-81.075-47.907V169.52l41.458-23.954 81.997 48.83 82.917-49.751 41.459 23.033zm42.381 164.913l-82.917 49.751v49.75l122.533-73.704V216.507l-39.616 21.19v94.894zm-43.301-69.098v48.829l-39.616 21.19v-47.908l39.616-22.111zM187.677 457.889v-49.751l40.537 21.19 39.616-21.19v49.751L228.214 480l-40.537-22.111zm-42.378-120.692l-41.459-24.875v-46.065l41.459 24.875v46.065zM64.22 143.724l40.538-23.954-42.38-25.797-41.46 23.954v45.144l43.302 25.797v-45.144zM20 215.586l43.301 25.796v96.737l80.154 48.829v45.144l-80.154-46.986-11.977-7.371L20 359.309V215.586z" fill="url(#epaint0_linear)"/><g filter="url(#efilter0_f)"><ellipse rx="86.298" ry="102.321" transform="matrix(.9771 -.21277 .5906 .80697 253.753 269.931)" fill="#F2C94C"/></g><defs><linearGradient id="epaint0_linear" x1="56.566" y1="85.433" x2="371.32" y2="404.684" gradientUnits="userSpaceOnUse"><stop offset=".026" stop-color="#FFBD00"/><stop offset="1" stop-color="#FFBD00" stop-opacity="0"/></linearGradient><filter id="efilter0_f" x=".004" y="35.327" width="507.497" height="469.21" filterUnits="userSpaceOnUse" color-interpolation-filters="sRGB"><feFlood flood-opacity="0" result="BackgroundImageFix"/><feBlend in="SourceGraphic" in2="BackgroundImageFix" result="shape"/><feGaussianBlur stdDeviation="75" result="effect1_foregroundBlur"/></filter></defs></svg><svg width="27" height="29" fill="none" viewBox="-2 -2 27 29" id="bnb-erc" x="1507" y="532" xmlns="http://www.w3.org/2000/svg"><path d="M17.686 16.267v-2.543l-2.063 1.151v2.495l2.063-1.103zM9.049 21.257v2.591L11.16 25l2.063-1.152v-2.59L11.16 22.36 9.05 21.257zM19.941 17.323l-4.318 2.59v2.592l6.382-3.839V11.276L19.94 12.38v4.943zM17.734 11.132V8.733l-2.16-1.2-4.318 2.592-4.27-2.543-2.16 1.247v2.4l4.223 2.495v4.942l2.111 1.152 2.111-1.152v-4.798l4.463-2.736zM11.112 7.486l2.16-1.296-2.064-1.248-2.16 1.296 2.064 1.248zM20.037 4.846L17.83 6.19l2.16 1.248v2.35l2.207-1.343V6.094l-2.16-1.248z" fill="#fff"/><path d="M10.968 2.495l4.463 2.4 2.207-1.392L11.064 0 9.481.96l-.624.384L4.73 3.839l2.016 1.2 4.222-2.544zM4.682 16.267l2.16 1.295v-2.399l-2.16-1.295v2.399zM2.619 7.486L4.73 6.238 2.523 4.894.363 6.142v2.351L2.62 9.837V7.486zM2.571 12.572L.316 11.228v7.486l1.631.96.624.384 4.175 2.447v-2.351L2.57 17.61v-5.038z" fill="#fff"/></svg><svg width="30" height="31" fill="none" viewBox="-2 -2 30 31" id="bnb-mainnet" x="1477" y="532" xmlns="http://www.w3.org/2000/svg"><path fill-rule="evenodd" clip-rule="evenodd" d="M7.946 10.93L13 5.876l5.054 5.054 2.938-2.938L13 0 5.008 7.992l2.938 2.938zm-5.011-.858L0 13.006l2.935 2.935 2.934-2.935-2.934-2.934zM13 20.134L7.946 15.08l-2.938 2.938L13 26.01l7.992-7.992-2.938-2.938L13 20.134zm10.066-10.062l-2.934 2.935 2.934 2.934 2.935-2.934-2.935-2.935zm-10.064-.046l2.979 2.979L13 15.984l-2.978-2.979.513-.534.267-.247 2.199-2.198z" fill="#fff"/></svg><svg width="516" height="380" viewBox="-2 -2 516 380" id="guarda" x="778" xmlns="http://www.w3.org/2000/svg"><use xlink:href="#hpath0_fill" transform="translate(0 .003) scale(1.52836)" fill="url(#hpaint0_linear)"/><g transform="translate(223.424 208.93) scale(1.52836)" fill="#7093EF"><use xlink:href="#hpath1_fill"/><use xlink:href="#hpath2_fill"/><use xlink:href="#hpath3_fill"/><use xlink:href="#hpath4_fill"/><use xlink:href="#hpath5_fill"/><use xlink:href="#hpath6_fill"/></g><g transform="translate(219.55 303.979) scale(1.52836)" fill="#7093EF"><use xlink:href="#hpath7_fill"/><use xlink:href="#hpath8_fill"/><use xlink:href="#hpath9_fill"/><use xlink:href="#hpath10_fill"/><use xlink:href="#hpath11_fill"/><use xlink:href="#hpath12_fill"/></g><defs><path id="hpath0_fill" fill-rule="evenodd" d="M143.732 17.3c.466.143.824.537.86 1.039l.004.063c.221 3.307 7.948 119.021-71.785 146.179-.107.036-.25.072-.358.072-.108 0-.25-.036-.358-.072C-8.39 137.167.207 19.521.315 18.339c.035-.502.393-.896.859-1.004L72.166.027c.18-.036.359-.036.538 0l71.028 17.272zM72.452 149.96c.073 0 .18 0 .287-.036 66.157-22.505 59.065-119.223 58.958-120.19a.952.952 0 00-.717-.825L72.632 14.683a.871.871 0 00-.43 0L13.853 28.91c-.393.072-.68.43-.716.824-.071.968-7.128 97.686 58.993 120.191a.987.987 0 00.323.036zM110.02 46.136c.254.064.442.28.461.54.052.627 4.593 62.686-37.838 77.139a.578.578 0 01-.394 0c-42.43-14.453-37.888-76.512-37.838-77.14a.608.608 0 01.46-.539l37.431-9.12a.534.534 0 01.288 0l37.43 9.12z"/><path id="hpath1_fill" d="M32.899 41.266c-1.288 1.837-3.31 3.27-6.067 4.3-2.736 1.028-5.805 1.543-9.206 1.543-3.44 0-6.499-.827-9.175-2.482-2.676-1.656-4.749-3.997-6.218-7.024C.765 34.575.02 31.103 0 27.188v-5.571c0-6.116 1.54-10.94 4.618-14.472 3.078-3.552 7.213-5.328 12.405-5.328 4.527 0 8.17 1.16 10.926 3.481 2.756 2.301 4.396 5.48 4.92 9.537h-3.713c-.543-3.23-1.861-5.672-3.954-7.327-2.072-1.675-4.789-2.512-8.149-2.512-4.105 0-7.354 1.463-9.749 4.39-2.394 2.926-3.592 7.054-3.592 12.382v5.208c0 3.35.564 6.317 1.69 8.9 1.148 2.564 2.777 4.552 4.89 5.965 2.133 1.413 4.578 2.12 7.335 2.12 3.199 0 5.945-.505 8.24-1.514 1.488-.666 2.595-1.443 3.32-2.332V28.732H17.384v-3.149h15.514v15.683z"/><path id="hpath2_fill" d="M63.594 42.356c-2.173 3.169-5.644 4.753-10.413 4.753-3.48 0-6.127-1.009-7.938-3.027-1.81-2.039-2.736-5.046-2.776-9.023V13.745h3.591v20.86c0 6.237 2.515 9.356 7.546 9.356 5.231 0 8.541-2.17 9.93-6.51V13.745h3.622v32.759h-3.502l-.06-4.148z"/><path id="hpath3_fill" d="M97.187 46.504c-.362-1.03-.594-2.554-.694-4.572-1.268 1.655-2.888 2.937-4.86 3.845a14.837 14.837 0 01-6.217 1.332c-3.14 0-5.684-.878-7.636-2.634-1.932-1.756-2.898-3.976-2.898-6.66 0-3.19 1.318-5.712 3.954-7.57 2.656-1.856 6.349-2.785 11.077-2.785h6.55v-3.724c0-2.341-.725-4.178-2.173-5.51-1.43-1.352-3.522-2.028-6.278-2.028-2.516 0-4.598.645-6.248 1.937-1.65 1.292-2.475 2.846-2.475 4.663l-3.622-.03c0-2.604 1.207-4.855 3.622-6.752 2.415-1.917 5.382-2.876 8.904-2.876 3.642 0 6.509.918 8.602 2.755 2.112 1.816 3.199 4.36 3.259 7.63v15.5c0 3.17.332 5.541.996 7.115v.364h-3.863zM85.838 43.9c2.415 0 4.568-.585 6.46-1.756 1.911-1.17 3.3-2.735 4.165-4.693v-7.205h-6.46c-3.601.04-6.418.706-8.45 1.998-2.033 1.271-3.049 3.027-3.049 5.268 0 1.837.674 3.36 2.022 4.571 1.369 1.212 3.14 1.817 5.312 1.817z"/><path id="hpath4_fill" d="M124.804 16.833a13.456 13.456 0 00-2.445-.212c-2.254 0-4.165.636-5.735 1.908-1.549 1.251-2.656 3.078-3.32 5.48v22.495h-3.591V13.745h3.531l.06 5.208c1.912-3.876 4.98-5.813 9.206-5.813 1.006 0 1.801.13 2.384.393l-.09 3.3z"/><path id="hpath5_fill" d="M128.54 29.822c0-5.087 1.126-9.133 3.38-12.14 2.274-3.028 5.352-4.542 9.236-4.542 4.406 0 7.767 1.746 10.081 5.237V0h3.591v46.504h-3.38l-.151-4.36c-2.314 3.31-5.715 4.965-10.202 4.965-3.762 0-6.801-1.514-9.115-4.541-2.294-3.048-3.44-7.155-3.44-12.322v-.424zm3.652.636c0 4.178.835 7.478 2.505 9.9 1.67 2.402 4.024 3.603 7.062 3.603 4.447 0 7.606-1.968 9.478-5.904v-15.38c-1.872-4.26-5.011-6.389-9.417-6.389-3.039 0-5.403 1.201-7.093 3.603-1.69 2.382-2.535 5.904-2.535 10.567z"/><path id="hpath6_fill" d="M184.95 46.504c-.362-1.03-.593-2.554-.694-4.572-1.268 1.655-2.887 2.937-4.859 3.845a14.841 14.841 0 01-6.218 1.332c-3.139 0-5.684-.878-7.636-2.634-1.932-1.756-2.897-3.976-2.897-6.66 0-3.19 1.317-5.712 3.953-7.57 2.656-1.856 6.349-2.785 11.077-2.785h6.55v-3.724c0-2.341-.725-4.178-2.173-5.51-1.429-1.352-3.522-2.028-6.278-2.028-2.515 0-4.598.645-6.248 1.937-1.65 1.292-2.475 2.846-2.475 4.663l-3.622-.03c0-2.604 1.208-4.855 3.622-6.752 2.415-1.917 5.383-2.876 8.904-2.876 3.642 0 6.509.918 8.602 2.755 2.113 1.816 3.199 4.36 3.26 7.63v15.5c0 3.17.332 5.541.996 7.115v.364h-3.864zM173.602 43.9c2.414 0 4.567-.585 6.459-1.756 1.911-1.17 3.3-2.735 4.165-4.693v-7.205h-6.459c-3.602.04-6.419.706-8.451 1.998-2.032 1.271-3.049 3.027-3.049 5.268 0 1.837.674 3.36 2.023 4.571 1.368 1.212 3.139 1.817 5.312 1.817z"/><path id="hpath7_fill" d="M11.832 34.605l1.358 6.843 1.66-6.54 9.537-32.486h3.35l9.417 32.486 1.63 6.6 1.449-6.903 7.938-32.183h3.803L40.716 46.504h-3.562l-9.96-34.484-1.116-4.36-1.087 4.36-10.202 34.484h-3.561L0 2.422h3.803l8.029 32.183z"/><path id="hpath8_fill" d="M77.932 46.504c-.362-1.03-.593-2.554-.694-4.572-1.268 1.655-2.887 2.937-4.86 3.845a14.838 14.838 0 01-6.217 1.332c-3.139 0-5.684-.878-7.636-2.634-1.932-1.756-2.898-3.976-2.898-6.66 0-3.19 1.319-5.712 3.954-7.57 2.656-1.856 6.349-2.785 11.077-2.785h6.55v-3.724c0-2.341-.724-4.178-2.173-5.51-1.429-1.352-3.522-2.028-6.278-2.028-2.515 0-4.598.645-6.248 1.937-1.65 1.292-2.475 2.846-2.475 4.663l-3.622-.03c0-2.604 1.208-4.855 3.622-6.752 2.415-1.917 5.383-2.876 8.904-2.876 3.642 0 6.51.918 8.602 2.755 2.113 1.816 3.2 4.36 3.26 7.63v15.5c0 3.17.332 5.541.996 7.115v.364h-3.864zM66.584 43.9c2.414 0 4.567-.585 6.459-1.756 1.911-1.17 3.3-2.735 4.165-4.693v-7.205h-6.46c-3.6.04-6.418.706-8.45 1.998-2.032 1.271-3.049 3.027-3.049 5.268 0 1.837.674 3.36 2.023 4.571 1.368 1.212 3.139 1.817 5.312 1.817z"/><path id="hpath9_fill" d="M94.502 46.504H90.88V0h3.622v46.504z"/><path id="hpath10_fill" d="M108.386 46.504h-3.622V0h3.622v46.504z"/><path id="hpath11_fill" d="M130.872 47.11c-2.777 0-5.292-.687-7.546-2.06-2.233-1.372-3.974-3.28-5.221-5.722-1.248-2.462-1.871-5.217-1.871-8.265v-1.302c0-3.148.603-5.984 1.81-8.507 1.228-2.523 2.928-4.501 5.101-5.934 2.173-1.454 4.528-2.18 7.063-2.18 3.964 0 7.103 1.362 9.417 4.087 2.334 2.705 3.501 6.408 3.501 11.111v2.029h-23.301v.696c0 3.714 1.057 6.812 3.169 9.295 2.133 2.462 4.809 3.693 8.029 3.693 1.932 0 3.632-.353 5.101-1.06 1.489-.706 2.837-1.836 4.044-3.39l2.264 1.726c-2.656 3.855-6.51 5.782-11.56 5.782zm-.664-30.882c-2.716 0-5.01.999-6.882 2.997-1.851 1.998-2.978 4.683-3.38 8.053h19.588v-.393c-.1-3.149-.996-5.712-2.686-7.69-1.69-1.978-3.904-2.967-6.64-2.967z"/><path id="hpath12_fill" d="M155.772 5.359v8.386h6.761v2.967h-6.761v21.83c0 1.816.322 3.168.966 4.056.664.888 1.761 1.332 3.29 1.332.604 0 1.58-.1 2.928-.303l.151 2.967c-.946.344-2.234.515-3.864.515-2.475 0-4.276-.716-5.402-2.15-1.127-1.453-1.691-3.582-1.691-6.388V16.712h-6.006v-2.967h6.006V5.36h3.622z"/><linearGradient id="hpaint0_linear" x1="0" y1="0" x2="1" y2="0" gradientUnits="userSpaceOnUse" gradientTransform="matrix(-154.27 117.229 -191.577 -111.581 240.583 73.052)"><stop offset="0" stop-color="#B06AB3"/><stop offset="1" stop-color="#6699F8"/></linearGradient></defs></svg><svg width="127" height="59" fill="none" viewBox="-2 -2 127 59" id="logo-atomic" x="1294" y="567" xmlns="http://www.w3.org/2000/svg"><path d="M59.714 21.685h-4.017l-.764 2.299h-2.436l4.14-11.16h2.122l4.163 11.16h-2.437l-.771-2.3zm-3.398-1.863h2.78l-1.398-4.177-1.383 4.177zm10.004-6.17v2.04h1.413v1.624H66.32v4.139c0 .306.059.526.176.659.117.133.341.2.672.2.244 0 .46-.019.649-.054v1.678a4.53 4.53 0 01-1.336.2c-1.548 0-2.337-.785-2.368-2.354v-4.468h-1.207v-1.625h1.207v-2.038h2.207zm2.07 6.11c0-.823.158-1.557.473-2.2a3.481 3.481 0 011.36-1.495c.595-.353 1.285-.529 2.07-.529 1.114 0 2.023.342 2.726 1.027.708.685 1.102 1.615 1.184 2.79l.015.567c0 1.272-.354 2.294-1.062 3.066-.707.766-1.657 1.15-2.848 1.15-1.192 0-2.144-.384-2.857-1.15-.707-.767-1.061-1.81-1.061-3.127v-.1zm2.207.16c0 .787.148 1.39.443 1.809.295.414.718.62 1.268.62.534 0 .952-.204 1.252-.613.3-.413.45-1.072.45-1.977 0-.771-.15-1.37-.45-1.793-.3-.424-.723-.637-1.268-.637-.54 0-.957.213-1.252.637-.295.419-.443 1.07-.443 1.954zm9.05-4.23l.069.927c.585-.72 1.377-1.081 2.375-1.081 1.064 0 1.795.422 2.192 1.265.58-.843 1.408-1.265 2.482-1.265.896 0 1.563.263 2 .79.439.52.658 1.308.658 2.36v5.296h-2.215v-5.288c0-.47-.092-.813-.275-1.027-.183-.22-.507-.33-.97-.33-.662 0-1.12.317-1.375.95l.008 5.695h-2.207v-5.28c0-.48-.094-.828-.283-1.043-.188-.215-.509-.322-.962-.322-.626 0-1.08.26-1.36.782v5.863h-2.207v-8.293h2.07zm13.808 8.292H91.24v-8.293h2.215v8.293zM91.11 13.545c0-.332.11-.605.329-.82.224-.214.527-.322.909-.322.376 0 .677.108.9.322.225.215.337.488.337.82 0 .338-.115.614-.344.828-.224.215-.522.322-.893.322-.372 0-.672-.107-.902-.322a1.096 1.096 0 01-.336-.828zm7.607 8.807c.407 0 .738-.113.993-.338.254-.224.387-.523.397-.896h2.07a2.863 2.863 0 01-.459 1.548 3.05 3.05 0 01-1.237 1.088 3.857 3.857 0 01-1.726.383c-1.181 0-2.113-.375-2.795-1.126-.682-.757-1.023-1.799-1.023-3.127v-.146c0-1.277.338-2.297 1.015-3.058.677-.761 1.607-1.142 2.788-1.142 1.034 0 1.861.296 2.482.89.626.587.944 1.371.955 2.352h-2.07c-.01-.43-.143-.777-.397-1.042-.255-.271-.59-.407-1.008-.407-.514 0-.904.19-1.169.568-.26.373-.39.98-.39 1.824v.23c0 .853.13 1.466.39 1.84.26.372.654.559 1.184.559zM65.236 39.098l1.496-7.94h2.284l-2.467 11.16h-2.306l-1.81-7.466-1.81 7.465h-2.306L55.85 31.158h2.283l1.505 7.925 1.833-7.925h1.94l1.825 7.94zm9.409 3.22a2.467 2.467 0 01-.222-.744c-.534.598-1.23.897-2.085.897-.81 0-1.481-.235-2.016-.705a2.275 2.275 0 01-.794-1.779c0-.878.323-1.553.97-2.023.651-.47 1.59-.708 2.818-.713h1.016v-.475c0-.383-.1-.69-.298-.92-.194-.23-.502-.344-.924-.344-.372 0-.665.089-.879.268-.209.179-.313.424-.313.736h-2.207c0-.48.148-.925.443-1.334.295-.409.713-.728 1.252-.958.54-.235 1.146-.353 1.818-.353 1.018 0 1.825.258 2.421.774.601.511.901 1.232.901 2.162V40.4c.005.787.115 1.382.329 1.786v.13h-2.23zm-1.826-1.541c.326 0 .627-.072.902-.215.275-.148.478-.345.61-.59v-1.425h-.824c-1.105 0-1.693.383-1.764 1.15l-.008.13c0 .275.097.503.29.682.194.178.458.268.794.268zm7.752 1.54h-2.215V30.545h2.215v11.772zm4.155 0H82.51V30.545h2.215v11.772zm5.628.154c-1.211 0-2.2-.373-2.963-1.12-.759-.745-1.138-1.74-1.138-2.98v-.215c0-.833.16-1.577.481-2.23.321-.66.774-1.166 1.36-1.518.59-.358 1.262-.537 2.016-.537 1.13 0 2.019.358 2.665 1.073.652.716.978 1.73.978 3.043v.904H88.49c.071.542.285.976.641 1.303.362.327.817.491 1.367.491.85 0 1.515-.31 1.994-.928l1.084 1.22c-.33.47-.779.837-1.344 1.103-.565.26-1.191.39-1.879.39zm-.252-6.806c-.438 0-.794.148-1.069.444-.27.297-.443.72-.52 1.273h3.07v-.177c-.01-.49-.142-.868-.396-1.134-.255-.27-.616-.406-1.085-.406zm7.553-3.679v2.039h1.413v1.624h-1.412v4.14c0 .306.058.525.175.658.117.133.341.2.672.2.245 0 .46-.018.65-.054v1.678c-.433.133-.879.2-1.337.2-1.548 0-2.337-.785-2.368-2.353v-4.469h-1.206v-1.624h1.206v-2.039h2.208z" fill="url(#ipaint0_linear)"/><path fill-rule="evenodd" clip-rule="evenodd" d="M13.263 45.565l11.14-30.51c1.413-3.561 4.048-5.578 7.551-5.636v-.001h.157v.001c3.503.058 6.138 2.075 7.552 5.637l11.139 30.509-6.898-2.398-9.516-26.063c-.579-1.441-1.247-1.96-2.356-1.983-1.108.023-1.776.542-2.355 1.984L20.16 43.166l-6.898 2.398zM36.88 33.948c0 2.664-2.14 4.825-4.781 4.825-2.64 0-4.781-2.16-4.781-4.826 0-2.664 2.14-4.825 4.78-4.825 2.642 0 4.782 2.16 4.782 4.825z" fill="url(#ipaint1_linear)"/><mask id="ia" maskUnits="userSpaceOnUse" x="13" y="9" width="38" height="37"><path fill-rule="evenodd" clip-rule="evenodd" d="M13.263 45.565l11.14-30.51c1.413-3.561 4.048-5.578 7.551-5.636v-.001h.157v.001c3.503.058 6.138 2.075 7.552 5.637l11.139 30.509-6.898-2.398-9.516-26.063c-.579-1.441-1.247-1.96-2.356-1.983-1.108.023-1.776.542-2.355 1.984L20.16 43.166l-6.898 2.398zM36.88 33.948c0 2.664-2.14 4.825-4.781 4.825-2.64 0-4.781-2.16-4.781-4.826 0-2.664 2.14-4.825 4.78-4.825 2.642 0 4.782 2.16 4.782 4.825z" fill="#fff"/></mask><defs><linearGradient id="ipaint0_linear" x1="88.34" y1="60.39" x2="67.281" y2="17.367" gradientUnits="userSpaceOnUse"><stop stop-color="#2293FB"/><stop offset=".923" stop-color="#40BFFE"/></linearGradient><linearGradient id="ipaint1_linear" x1="13.263" y1="9.418" x2="13.263" y2="45.565" gradientUnits="userSpaceOnUse"><stop stop-color="#42C1FD"/><stop offset="1" stop-color="#1F8EFA"/></linearGradient></defs></svg><svg width="353" height="353" fill="none" viewBox="-2 -2 353 353" id="now" x="1294" xmlns="http://www.w3.org/2000/svg"><path opacity=".05" fill-rule="evenodd" clip-rule="evenodd" d="M349 174.5c0 96.374-78.126 174.5-174.5 174.5S0 270.874 0 174.5 78.126 0 174.5 0 349 78.126 349 174.5zM84.787 252.171H73.661v-28.972h-9.97v-8.828h31.067v8.828h-9.97v28.972zm42.334-38.318c11.595 0 18.9 7.439 18.9 19.431 0 11.991-7.305 19.404-18.9 19.404-11.621 0-18.9-7.413-18.9-19.404 0-11.992 7.305-19.431 18.9-19.431zm0 8.803c-4.505 0-7.508 4.131-7.508 10.628 0 6.47 2.977 10.602 7.508 10.602 4.53 0 7.508-4.132 7.508-10.602 0-6.497-3.003-10.628-7.508-10.628zm47.087 29.515h-11.1v-37.8h11.1v16.031h.21l11.675-16.031h11.65l-12.435 16.791 13.011 21.009h-12.906l-8.247-13.884-2.958 3.982v9.902zm65.535 0v-8.828h-15.409v-6.077h14.45v-7.964h-14.45v-6.103h15.409v-8.828h-26.408v37.8h26.408zm28.17 0h-10.564v-37.8h8.689l14.71 19.594h.212v-19.594h10.564v37.8h-8.584l-14.816-19.909h-.211v19.909zm-204.74-72.493h17.926v-34.09h.359l25.142 34.09h14.566v-64.725h-17.927v33.551h-.358l-24.964-33.551H63.172v64.725zm133.075-32.34c0-20.625-12.509-33.421-32.363-33.421s-32.363 12.796-32.363 33.421 12.465 33.376 32.363 33.376c19.854 0 32.363-12.751 32.363-33.376zm-45.567 0c0-11.25 5.281-18.405 13.204-18.405 7.922 0 13.204 7.155 13.204 18.405 0 11.205-5.237 18.359-13.204 18.359-7.967 0-13.204-7.154-13.204-18.359zm88.024 32.34l9.661-37.05h.36l9.661 37.05h17.974l16.716-64.725h-19.682l-7.459 40.907h-.359l-9.662-40.907h-14.739l-9.661 40.907h-.359l-7.459-40.907h-19.682l16.716 64.725h17.974z" fill="#3BEE81"/></svg><svg width="42" height="42" fill="none" viewBox="-2 -2 42 42" id="now-black" x="1505" y="567" xmlns="http://www.w3.org/2000/svg"><rect width="38" height="38" rx="19" fill="#2B2B37"/><path fill-rule="evenodd" clip-rule="evenodd" d="M9.252 19.388H7.434V12.83H8.93l2.531 3.399h.036v-3.4h1.818v6.558h-1.477l-2.549-3.454h-.036v3.454zm8.425-6.67c2.027 0 3.304 1.299 3.304 3.393 0 2.095-1.277 3.39-3.304 3.39-2.03 0-3.303-1.295-3.303-3.39 0-2.094 1.277-3.394 3.303-3.394zm0 1.535c-.804 0-1.34.723-1.34 1.858 0 1.132.532 1.854 1.34 1.854.81 0 1.34-.722 1.34-1.854 0-1.136-.535-1.858-1.34-1.858zm8.576 1.381l-.977 3.754H23.46l-1.69-6.557h1.99l.754 4.144h.036l.977-4.144h1.49l.978 4.144h.036l.754-4.144h1.99l-1.69 6.557h-1.817l-.977-3.754h-.037zM9.618 26.755H8.494v-2.932H7.487v-.893h3.138v.893H9.618v2.932zm4.32-3.891c1.182 0 1.927.758 1.927 1.98s-.745 1.977-1.927 1.977c-1.185 0-1.927-.755-1.927-1.977s.745-1.98 1.927-1.98zm0 .896c-.47 0-.782.421-.782 1.084 0 .66.31 1.081.782 1.081.472 0 .782-.421.782-1.081 0-.663-.313-1.084-.782-1.084zm4.768 2.995h-1.124V22.93h1.124v1.622h.021l1.182-1.622h1.18l-1.26 1.7 1.318 2.125H19.84l-.835-1.405-.3.403v1.002zm6.684-.893v.893h-2.698V22.93h2.698v.893h-1.575v.618h1.477v.806h-1.477v.615h1.575zm2.865.893h-1.06V22.93h.872l1.476 1.983h.021V22.93h1.06v3.825h-.861l-1.487-2.014h-.021v2.014z" fill="#3BEE81"/></svg><svg width="42" height="42" fill="none" viewBox="-2 -2 42 42" id="now-green" x="1547" y="567" xmlns="http://www.w3.org/2000/svg"><rect width="38" height="38" rx="19" fill="#3BEE81"/><path fill-rule="evenodd" clip-rule="evenodd" d="M9.618 26.755H8.494v-2.932H7.487v-.893h3.138v.893H9.618v2.932zm4.32-3.891c1.182 0 1.927.758 1.927 1.98s-.745 1.977-1.927 1.977c-1.185 0-1.927-.755-1.927-1.977s.745-1.98 1.927-1.98zm0 .896c-.47 0-.782.421-.782 1.084 0 .66.31 1.081.782 1.081.472 0 .782-.421.782-1.081 0-.663-.313-1.084-.782-1.084zm4.768 2.995h-1.124V22.93h1.124v1.622h.021l1.182-1.622h1.18l-1.26 1.7 1.318 2.125H19.84l-.835-1.405-.3.403v1.002zm6.684-.893v.893h-2.698V22.93h2.698v.893h-1.575v.618h1.477v.806h-1.477v.615h1.575zm2.865.893h-1.06V22.93h.872l1.476 1.983h.021V22.93h1.06v3.825h-.861l-1.487-2.014h-.021v2.014zM9.252 19.388H7.434V12.83H8.93l2.531 3.399h.036v-3.4h1.818v6.558h-1.477l-2.549-3.454h-.036v3.454zm8.425-6.67c2.027 0 3.304 1.299 3.304 3.393 0 2.095-1.277 3.39-3.304 3.39-2.03 0-3.303-1.295-3.303-3.39 0-2.094 1.277-3.394 3.303-3.394zm0 1.535c-.804 0-1.34.723-1.34 1.858 0 1.132.532 1.854 1.34 1.854.81 0 1.34-.722 1.34-1.854 0-1.136-.535-1.858-1.34-1.858zm8.576 1.381l-.977 3.754H23.46l-1.69-6.557h1.99l.754 4.144h.036l.977-4.144h1.49l.978 4.144h.036l.754-4.144h1.99l-1.69 6.557h-1.817l-.977-3.754h-.037z" fill="#fff"/></svg><svg width="778" height="437" fill="none" viewBox="-2 -2 778 437" id="travala" xmlns="http://www.w3.org/2000/svg"><path opacity=".6" fill-rule="evenodd" clip-rule="evenodd" d="M754.012 32c0 17.128-13.884 31.013-31.012 31.013S691.987 49.128 691.987 32 705.872.988 723 .988 754.012 14.872 754.012 32zm-43.254-14.69h23.831c1.795 0 3.101 1.469 3.101 3.101v3.591c0 .49-.326.816-.816.816h-8.651v24.157c0 .49-.326.816-.816.816h-5.06c-1.795 0-3.101-1.305-3.101-3.1V24.817h-8.488c-.489 0-.816-.326-.816-.816v-5.876c0-.49.327-.816.816-.816z" fill="#292A4C"/><path opacity=".5" fill-rule="evenodd" clip-rule="evenodd" d="M684.475 80.5c0 14.083-11.417 25.5-25.5 25.5s-25.5-11.417-25.5-25.5 11.417-25.5 25.5-25.5 25.5 11.417 25.5 25.5zm-35.566-12.079h19.595c1.476 0 2.55 1.208 2.55 2.55v2.953c0 .402-.268.67-.671.67h-7.113v19.864c0 .403-.269.67-.671.67h-4.161c-1.476 0-2.55-1.073-2.55-2.55V74.596h-6.979c-.402 0-.671-.269-.671-.671v-4.832c0-.403.269-.671.671-.671zM774 149c0 14.083-11.417 25.5-25.5 25.5S723 163.083 723 149s11.417-25.5 25.5-25.5S774 134.917 774 149zm-35.566-12.079h19.595c1.476 0 2.55 1.208 2.55 2.55v2.953c0 .402-.268.671-.671.671h-7.113v19.863c0 .403-.269.671-.671.671h-4.161c-1.476 0-2.55-1.074-2.55-2.55v-17.984h-6.979c-.402 0-.671-.269-.671-.671v-4.832c0-.403.269-.671.671-.671zM123 254.973c0 17.127-13.885 31.012-31.012 31.012-17.128 0-31.013-13.885-31.013-31.012 0-17.128 13.885-31.013 31.013-31.013 17.127 0 31.012 13.885 31.012 31.013zm-43.254-14.691h23.831c1.795 0 3.101 1.469 3.101 3.102v3.591c0 .489-.327.816-.816.816h-8.651v24.157c0 .489-.326.816-.816.816h-5.06c-1.796 0-3.101-1.306-3.101-3.101v-21.872h-8.488c-.49 0-.816-.327-.816-.816v-5.876c0-.49.326-.817.816-.817z" fill="#292A4C"/><path opacity=".7" fill-rule="evenodd" clip-rule="evenodd" d="M77.315 352.75c0 21.125-17.125 38.25-38.25 38.25-21.124 0-38.25-17.125-38.25-38.25s17.125-38.25 38.25-38.25 38.25 17.125 38.25 38.25zm-53.348-18.118h29.392c2.214 0 3.825 1.811 3.825 3.825v4.429c0 .603-.403 1.006-1.007 1.006h-10.67v29.795c0 .604-.402 1.006-1.006 1.006h-6.24c-2.215 0-3.826-1.61-3.826-3.825v-26.976H23.967c-.604 0-1.007-.403-1.007-1.006v-7.248c0-.604.403-1.006 1.007-1.006z" fill="#292A4C"/><path opacity=".6" fill-rule="evenodd" clip-rule="evenodd" d="M178.525 407.443c0 14.083-11.417 25.5-25.5 25.5s-25.5-11.417-25.5-25.5 11.417-25.5 25.5-25.5 25.5 11.417 25.5 25.5zm-35.566-12.079h19.595c1.476 0 2.55 1.208 2.55 2.55v2.953c0 .402-.269.671-.671.671h-7.113v19.863c0 .403-.269.671-.671.671h-4.161c-1.476 0-2.55-1.074-2.55-2.55v-17.984h-6.979c-.403 0-.671-.269-.671-.671v-4.832c0-.403.268-.671.671-.671z" fill="#292A4C"/></svg><svg width="42" height="42" fill="none" viewBox="-2 -2 42 42" id="travala-dark" x="1589" y="567" xmlns="http://www.w3.org/2000/svg"><path fill="#fff" d="M0 0h38v38H0z"/><circle cx="19" cy="19" r="19" fill="url(#npaint0_linear)"/><path d="M26.13 10H11.51a.515.515 0 00-.51.52v3.601c0 .288.228.521.51.521h5.228v13.45c0 1.053.837 1.908 1.87 1.908h3.102c.282 0 .51-.233.51-.52V14.641h5.27c.282 0 .51-.233.51-.52v-2.213C28 10.855 27.163 10 26.13 10z" fill="#fff"/><defs><linearGradient id="npaint0_linear" x1="5.5" y1="31.5" x2="33" y2="6.5" gradientUnits="userSpaceOnUse"><stop stop-color="#2A2B4C"/><stop offset="1" stop-color="#5C567E"/></linearGradient></defs></svg><svg width="183" height="214" fill="none" viewBox="-2 -2 183 214" id="travala-left" x="1294" y="353" xmlns="http://www.w3.org/2000/svg"><path opacity=".5" fill-rule="evenodd" clip-rule="evenodd" d="M123 31.973c0 17.127-13.885 31.012-31.012 31.012-17.128 0-31.013-13.885-31.013-31.012C60.975 14.845 74.86.96 91.988.96 109.115.96 123 14.845 123 31.973zm-43.254-14.69h23.831c1.795 0 3.101 1.468 3.101 3.1v3.592c0 .49-.327.816-.816.816h-8.651v24.157c0 .49-.326.816-.816.816h-5.06c-1.796 0-3.101-1.306-3.101-3.101V24.79h-8.488c-.49 0-.816-.327-.816-.816v-5.877c0-.49.326-.816.816-.816z" fill="#292A4C"/><path opacity=".7" fill-rule="evenodd" clip-rule="evenodd" d="M77.315 129.75c0 21.125-17.125 38.25-38.25 38.25-21.124 0-38.25-17.125-38.25-38.25S17.94 91.5 39.065 91.5s38.25 17.125 38.25 38.25zm-53.348-18.118h29.392c2.214 0 3.825 1.811 3.825 3.825v4.429c0 .603-.403 1.006-1.007 1.006h-10.67v29.795c0 .604-.402 1.006-1.006 1.006h-6.24c-2.215 0-3.826-1.61-3.826-3.825v-26.976H23.967c-.604 0-1.007-.403-1.007-1.006v-7.248c0-.604.403-1.006 1.007-1.006z" fill="#292A4C"/><path opacity=".6" fill-rule="evenodd" clip-rule="evenodd" d="M178.525 184.443c0 14.083-11.417 25.5-25.5 25.5s-25.5-11.417-25.5-25.5 11.417-25.5 25.5-25.5 25.5 11.417 25.5 25.5zm-35.566-12.079h19.595c1.476 0 2.55 1.208 2.55 2.55v2.953c0 .402-.269.671-.671.671h-7.113v19.863c0 .403-.269.671-.671.671h-4.161c-1.476 0-2.55-1.074-2.55-2.55v-17.984h-6.979c-.403 0-.671-.269-.671-.671v-4.832c0-.403.268-.671.671-.671z" fill="#292A4C"/></svg><svg width="42" height="42" fill="none" viewBox="-2 -2 42 42" id="travala-light" x="1376" y="626" xmlns="http://www.w3.org/2000/svg"><path fill="#fff" d="M0 0h38v38H0z"/><circle cx="19" cy="19" r="19" fill="#fff"/><path d="M25.445 9H10.52a.52.52 0 00-.521.52v3.601c0 .288.233.521.52.521h5.337v13.45c0 1.053.855 1.908 1.909 1.908h3.167a.52.52 0 00.52-.52V13.641h5.38a.52.52 0 00.52-.52v-2.213A1.909 1.909 0 0025.446 9z" fill="#19192D"/></svg><svg width="42" height="42" fill="none" viewBox="-2 -2 42 42" id="travala-logo" x="1418" y="626" xmlns="http://www.w3.org/2000/svg"><path fill="#fff" d="M0 0h38v38H0z"/><circle cx="19" cy="19" r="19" fill="#fff"/><path d="M25.445 9H10.52a.52.52 0 00-.521.52v3.601c0 .288.233.521.52.521h5.337v13.45c0 1.053.855 1.908 1.909 1.908h3.167a.52.52 0 00.52-.52V13.641h5.38a.52.52 0 00.52-.52v-2.213A1.909 1.909 0 0025.446 9z" fill="#19192D"/></svg><svg width="145" height="179" fill="none" viewBox="-2 -2 145 179" id="travala-right" x="1477" y="353" xmlns="http://www.w3.org/2000/svg"><path opacity=".6" fill-rule="evenodd" clip-rule="evenodd" d="M121.012 32c0 17.128-13.884 31.013-31.012 31.013S58.987 49.128 58.987 32 72.872.988 90 .988 121.012 14.872 121.012 32zM77.758 17.31h23.831c1.795 0 3.101 1.469 3.101 3.101v3.591c0 .49-.326.816-.816.816h-8.65v24.157c0 .49-.327.816-.817.816h-5.06c-1.795 0-3.101-1.305-3.101-3.1V24.817h-8.488c-.49 0-.816-.326-.816-.816v-5.876c0-.49.327-.816.816-.816z" fill="#292A4C"/><path opacity=".5" fill-rule="evenodd" clip-rule="evenodd" d="M51.475 80.5c0 14.083-11.417 25.5-25.5 25.5S.475 94.583.475 80.5 11.892 55 25.975 55s25.5 11.417 25.5 25.5zM15.91 68.421h19.595c1.476 0 2.55 1.208 2.55 2.55v2.953c0 .402-.268.67-.671.67H30.27v19.864c0 .403-.269.67-.671.67h-4.16c-1.477 0-2.55-1.073-2.55-2.55V74.596h-6.98c-.402 0-.67-.269-.67-.671v-4.832c0-.403.268-.671.67-.671zM141 149c0 14.083-11.417 25.5-25.5 25.5S90 163.083 90 149s11.417-25.5 25.5-25.5S141 134.917 141 149zm-35.566-12.079h19.595c1.476 0 2.55 1.208 2.55 2.55v2.953c0 .402-.268.671-.671.671h-7.113v19.863c0 .403-.269.671-.671.671h-4.161c-1.476 0-2.55-1.074-2.55-2.55v-17.984h-6.979c-.402 0-.671-.269-.671-.671v-4.832c0-.403.269-.671.671-.671z" fill="#292A4C"/></svg><svg width="360" height="331" fill="none" viewBox="-2 -2 360 331" id="usdt" y="946" xmlns="http://www.w3.org/2000/svg"><path d="M178.264 151.441c14.295 0 20.704-.379 21.944-.472l-.041-.01c43.858-1.927 76.574-9.513 76.574-18.574 0-9.062-32.726-16.648-76.574-18.585v29.625c-1.23.113-8.063.676-21.707.676-11.37 0-19.598-.481-22.472-.686v-29.636c-43.941 1.948-76.74 9.523-76.74 18.606 0 9.082 32.799 16.667 76.74 18.584 2.832.134 10.905.472 22.276.472zM200.208 110.725c-.003 0 .004 0 0 0z" fill="#50AF95" fill-opacity=".23"/><path fill-rule="evenodd" clip-rule="evenodd" d="M0 136.905L178 327l178-190.095L284.344 0H71.656L0 136.905zm200.208-52.69v26.51c49.642 2.277 86.942 12.035 86.942 23.73 0 11.696-37.336 21.455-86.952 23.721v85.01h-44.22v-84.98c-49.73-2.275-87.128-12.034-87.128-23.74 0-11.707 37.398-21.476 87.128-23.741v-26.51H94.795V43.777h166.606v40.44h-61.193z" fill="#50AF95" fill-opacity=".23"/></svg><svg width="40" height="40" fill="none" viewBox="-2 -2 40 40" id="usdt-erc20" x="1460" y="626" xmlns="http://www.w3.org/2000/svg"><path d="M19.028 15.978c1.526 0 2.21-.04 2.343-.05l-.005-.001c4.682-.203 8.174-1.004 8.174-1.96s-3.493-1.756-8.174-1.96v3.125c-.131.012-.86.071-2.317.071-1.214 0-2.092-.05-2.399-.072v-3.127c-4.69.206-8.19 1.005-8.19 1.963 0 .958 3.5 1.759 8.19 1.961.303.014 1.165.05 2.378.05zM21.37 11.682z" fill="#50AF95"/><path fill-rule="evenodd" clip-rule="evenodd" d="M0 14.444L19 34.5l19-20.056L30.351 0H7.65L0 14.444zm21.37-5.559v2.797c5.3.24 9.28 1.27 9.28 2.504s-3.984 2.263-9.28 2.502v8.97h-4.72v-8.966c-5.309-.24-9.3-1.27-9.3-2.505 0-1.235 3.991-2.266 9.3-2.505V8.885h-6.531V4.62h17.783v4.266h-6.531z" fill="#50AF95"/></svg><svg width="28" height="28" viewBox="-2 -2 28 28" id="usdt-omni" x="1534" y="532" xmlns="http://www.w3.org/2000/svg"><path d="M13.195 10.688v1.875q-.047 0-.387.023t-.949.023q-.539 0-.914-.023t-.492-.023v-1.875q-2.063.094-3.445.422t-1.383.75 1.371.75 3.434.398q.141 0 .492.023t.891.023q.68 0 1.008-.023t.375-.023q2.063-.07 3.434-.398t1.371-.75-1.371-.75-3.434-.422zM12 .75q-2.344 0-4.383.891-2.063.867-3.586 2.391T1.64 7.618Q.749 9.657.749 12.001t.891 4.383q.867 2.039 2.391 3.574t3.586 2.402q2.039.891 4.383.891t4.383-.891q2.039-.867 3.574-2.391t2.402-3.586q.891-2.039.891-4.383t-.891-4.383q-.867-2.039-2.391-3.574t-3.586-2.402Q14.343.75 11.999.75zm1.195 12.75v5.367h-2.766V13.5q-2.344-.117-3.891-.527T4.991 12t1.547-.973 3.891-.527V8.812h-3.82V6.257h10.406v2.555h-3.82V10.5q2.344.117 3.891.527t1.547.973-1.547.973-3.891.527z"/></svg></svg>