<svg width="133" height="44" viewBox="0 0 133 44" fill="none" xmlns="http://www.w3.org/2000/svg">
    <path d="M14.5783 6.26171L16.1117 8.81993C13.3678 10.1789 11.5117 12.7372 11.5117 15.6951H20.2275H28.9432C28.9432 12.7372 27.0871 10.0991 24.3432 8.81993L25.8765 6.26171C25.8765 6.26171 25.9572 6.10184 25.7958 6.02189C25.6345 5.94195 25.5537 6.10185 25.5537 6.10185L24.0205 8.73998C22.8906 8.26032 21.5187 7.94054 20.1467 7.94054C18.7748 7.94054 17.4836 8.26032 16.2731 8.73998L14.7398 6.10185C14.7398 6.10185 14.6591 5.94195 14.4977 6.02189C14.5783 6.18178 14.5783 6.26171 14.5783 6.26171ZM16.1117 11.2982C16.596 11.2982 16.9187 11.6979 16.9187 12.0976C16.9187 12.5773 16.5152 12.8971 16.1117 12.8971C15.6275 12.8971 15.3047 12.5773 15.3047 12.0976C15.3047 11.6979 15.6275 11.2982 16.1117 11.2982ZM24.424 11.2982C24.9081 11.2982 25.231 11.6979 25.231 12.0976C25.231 12.5773 24.8275 12.8971 24.424 12.8971C23.9397 12.8971 23.617 12.5773 23.617 12.0976C23.617 11.6979 23.9397 11.2982 24.424 11.2982Z" fill="#A4C639"/>
    <path d="M11.4297 16.8145V29.9253C11.4297 30.5648 12.2367 31.4441 12.8823 31.4441H14.9804V35.9211C14.9804 37.0403 15.7876 37.9996 16.8366 37.9996C17.8857 37.9996 18.6927 37.1203 18.6927 35.9211V31.4441H21.6787V35.9211C21.6787 37.0403 22.4857 37.9996 23.5348 37.9996C24.5839 37.9996 25.3909 37.1203 25.3909 35.9211V31.4441H27.489C28.1347 31.4441 28.9418 30.5648 28.9418 29.9253V16.8145H11.4297Z" fill="#A4C639"/>
    <path d="M8.52409 16.4941C9.57321 16.4941 10.3802 17.4534 10.3802 18.5727V26.3273C10.3802 27.4464 9.57321 28.4057 8.52409 28.4057C7.47497 28.4057 6.66797 27.4464 6.66797 26.3273V18.5727C6.66797 17.4534 7.55572 16.4941 8.52409 16.4941Z" fill="#A4C639"/>
    <path d="M32.0097 16.4941C33.0588 16.4941 33.8658 17.4534 33.8658 18.5727V26.3273C33.8658 27.4464 33.0588 28.4057 32.0097 28.4057C30.9605 28.4057 30.1535 27.4464 30.1535 26.3273V18.5727C30.0729 17.4534 30.9605 16.4941 32.0097 16.4941Z" fill="#A4C639"/>
    <path d="M44 13.5165C44 12.8572 44.1331 12.3297 44.2662 11.8023C44.3993 11.2748 44.7986 10.7472 45.198 10.3517C45.5973 9.95602 45.9967 9.69231 46.5292 9.42851C47.0617 9.1648 47.5941 9.03294 48.2597 9.03294C48.7922 9.03294 49.1915 9.16489 49.5909 9.29674C49.9902 9.4286 50.3895 9.69231 50.6558 9.95602V9.29674H52.7857V17.7363H50.6558V17.077C50.2564 17.3407 49.9902 17.6044 49.5909 17.7363C49.1915 17.8681 48.7922 18 48.2597 18C47.5941 18 47.0617 17.8681 46.5292 17.6044C45.9967 17.3406 45.5973 17.0769 45.198 16.6813C44.7986 16.2857 44.5324 15.8901 44.2662 15.2308C44 14.5714 44 14.1758 44 13.5165ZM48.5259 16.022C48.6591 16.022 48.9253 16.022 49.0584 16.022C49.1915 16.022 49.4577 15.8901 49.5909 15.8901C49.724 15.7583 49.9902 15.6264 50.1233 15.4946C50.2564 15.3626 50.5227 15.0989 50.6558 14.9671V12.3297C50.5227 12.066 50.2564 11.9341 50.1233 11.8023C49.9902 11.6704 49.724 11.5385 49.5909 11.4066C49.4577 11.2747 49.1915 11.2747 49.0584 11.2747C48.9253 11.2747 48.6591 11.2747 48.5259 11.2747C48.1266 11.2747 47.8604 11.2747 47.5941 11.4066C47.3279 11.5385 47.0617 11.6703 46.9286 11.9341C46.6623 12.1978 46.5292 12.4615 46.3961 12.7252C46.2629 12.989 46.2629 13.3846 46.2629 13.6483C46.2629 13.9121 46.2629 14.3077 46.3961 14.5714C46.5292 14.8352 46.6623 15.0989 46.9286 15.3626C47.1948 15.6263 47.461 15.7583 47.5941 15.8901C47.8604 16.022 48.1266 16.022 48.5259 16.022ZM57.9773 11.2747C56.9123 11.2747 56.1136 11.934 56.1136 12.989V17.7363H53.9837V12.989C53.9837 11.011 55.7142 9.16489 57.9773 9.16489C60.2402 9.16489 61.9708 11.011 61.9708 12.989V17.7363H59.8409V12.989C59.8409 11.934 58.9091 11.2747 57.9773 11.2747ZM62.9026 13.5165C62.9026 12.8572 63.0357 12.3297 63.1688 11.8023C63.3019 11.2748 63.7013 10.7472 64.1006 10.3517C64.5 9.95602 64.8993 9.69231 65.4318 9.42851C65.9642 9.1648 66.4967 9.03294 67.1623 9.03294C67.6948 9.03294 68.0942 9.16489 68.4935 9.29674C68.8929 9.4286 69.2922 9.69231 69.5584 9.95602V6.65937H71.6883V17.6044H69.5584V16.9451C69.1591 17.2088 68.8929 17.4725 68.4935 17.6044C68.0942 17.7363 67.6948 17.8681 67.1623 17.8681C66.4967 17.8681 65.9642 17.7363 65.4318 17.4726C64.8993 17.2088 64.5 16.9451 64.1006 16.5495C63.7013 16.1538 63.4351 15.7583 63.1688 15.0989C62.9026 14.4396 62.9026 14.1758 62.9026 13.5165ZM67.4286 16.022C67.5617 16.022 67.8279 16.022 67.961 16.022C68.0942 16.022 68.3604 15.8901 68.4935 15.8901C68.6266 15.7583 68.8929 15.6264 69.026 15.4946C69.1591 15.3626 69.4253 15.0989 69.5584 14.9671V12.3297C69.4253 12.066 69.1591 11.9341 69.026 11.8023C68.8929 11.6704 68.6266 11.5385 68.4935 11.4066C68.3604 11.2747 68.0942 11.2747 67.961 11.2747C67.8279 11.2747 67.5617 11.2747 67.4286 11.2747C67.0292 11.2747 66.7629 11.2747 66.4967 11.4066C66.2305 11.5385 65.9642 11.6703 65.8311 11.9341C65.5649 12.1978 65.4318 12.4615 65.2987 12.7252C65.1655 12.989 65.1655 13.3846 65.1655 13.6483C65.1655 13.9121 65.1655 14.3077 65.2987 14.5714C65.4318 14.8352 65.5649 15.0989 65.8311 15.3626C66.0973 15.6263 66.3636 15.7583 66.4967 15.8901C66.7629 16.022 67.0292 16.022 67.4286 16.022ZM81.5389 16.022C81.8051 16.022 82.0714 16.022 82.4707 15.8901C82.737 15.7583 83.0033 15.6263 83.1364 15.3626C83.4026 15.0989 83.5357 14.8352 83.6688 14.5714C83.802 14.3077 83.802 13.9121 83.802 13.6483C83.802 13.3846 83.802 12.989 83.6688 12.7252C83.5357 12.4615 83.4026 12.1978 83.1364 11.9341C82.8702 11.6703 82.6039 11.5385 82.4707 11.4066C82.2045 11.2747 81.9383 11.2747 81.5389 11.2747C81.2727 11.2747 81.0065 11.2747 80.6071 11.4066C80.3409 11.5385 80.0747 11.6703 79.9415 11.9341C79.6753 12.1978 79.5422 12.4615 79.4091 12.7252C79.276 12.989 79.276 13.3846 79.276 13.6483C79.276 13.9121 79.276 14.3077 79.4091 14.5714C79.5422 14.8352 79.6753 15.0989 79.9415 15.3626C80.2078 15.6263 80.474 15.7583 80.6071 15.8901C80.8733 15.8901 81.2727 16.022 81.5389 16.022ZM81.5389 18C81.0065 18 80.3409 17.8681 79.8084 17.6044C79.276 17.3406 78.7435 17.0769 78.3442 16.6813C77.9448 16.2857 77.6786 15.8901 77.4123 15.2308C77.146 14.7033 77.0129 14.1758 77.0129 13.5165C77.0129 12.989 77.146 12.3297 77.4123 11.8023C77.6786 11.2748 77.9448 10.7472 78.3442 10.3517C78.7435 9.95602 79.276 9.69231 79.8084 9.42851C80.3409 9.1648 80.8733 9.03294 81.5389 9.03294C82.0714 9.03294 82.737 9.1648 83.2695 9.42851C83.802 9.69231 84.3344 9.95602 84.7338 10.3517C85.1331 10.7472 85.3993 11.1429 85.6656 11.8023C85.9318 12.3297 86.0649 12.8572 86.0649 13.5165C86.0649 14.1758 85.9318 14.7033 85.6656 15.2308C85.3993 15.7583 85.1331 16.2857 84.7338 16.6813C84.3344 17.0769 83.802 17.3406 83.2695 17.6044C82.737 17.8681 82.2045 18 81.5389 18ZM87.9286 8.63737C87.7954 8.63737 87.5292 8.63738 87.396 8.50552C87.2629 8.37366 87.1298 8.37366 86.9967 8.24181C86.8636 8.10995 86.7305 7.9781 86.7305 7.84615C86.5974 7.7143 86.5974 7.58244 86.5974 7.31873C86.5974 7.18679 86.5974 6.92308 86.7305 6.79122C86.8636 6.65928 86.8636 6.52742 86.9967 6.39557C87.1298 6.26371 87.2629 6.13185 87.396 6.13185C87.5292 6 87.6623 6 87.9286 6C88.0617 6 88.328 6 88.4611 6.13185C88.5942 6.26371 88.7273 6.26371 88.8604 6.39557C88.9935 6.52742 89.1266 6.65928 89.1266 6.79122C89.2597 6.92308 89.2597 7.05493 89.2597 7.31873C89.2597 7.45059 89.2597 7.7143 89.1266 7.84615C88.9935 7.9781 88.9935 8.10995 88.8604 8.24181C88.7273 8.37366 88.5942 8.50552 88.4611 8.50552C88.1948 8.63738 88.1948 8.63737 87.9286 8.63737ZM86.8636 9.42851H88.9935V17.8681H86.8636V9.42851ZM90.0584 13.5165C90.0584 12.8572 90.1916 12.3297 90.3247 11.8023C90.5909 11.2748 90.8571 10.7472 91.2565 10.3517C91.6558 9.95602 92.0551 9.69231 92.5876 9.42851C93.1198 9.1648 93.6522 9.03294 94.3177 9.03294C94.851 9.03294 95.2504 9.16489 95.6497 9.29674C96.049 9.4286 96.4483 9.69231 96.7145 9.95602V6.65937H98.8442V17.6044H96.7145V16.9451C96.3152 17.2088 96.049 17.4725 95.6497 17.6044C95.2504 17.7363 94.851 17.8681 94.3177 17.8681C93.6522 17.8681 93.1198 17.7363 92.5876 17.4726C92.0551 17.2088 91.6558 16.9451 91.2565 16.5495C90.8571 16.1538 90.5909 15.7583 90.3247 15.0989C90.0584 14.7033 90.0584 14.1758 90.0584 13.5165ZM94.4517 16.022C94.5848 16.022 94.851 16.022 94.9841 16.022C95.1172 16.022 95.3835 15.8901 95.5166 15.8901C95.6497 15.7583 95.9159 15.6264 96.049 15.4946C96.1821 15.3626 96.4483 15.0989 96.5814 14.9671V12.3297C96.4483 12.066 96.1821 11.9341 96.049 11.8023C95.9159 11.6704 95.6497 11.5385 95.5166 11.4066C95.3835 11.2747 95.1172 11.2747 94.9841 11.2747C94.851 11.2747 94.5848 11.2747 94.4517 11.2747C94.0515 11.2747 93.7853 11.2747 93.5191 11.4066C93.2529 11.5385 92.9867 11.6703 92.8539 11.9341C92.5876 12.1978 92.4545 12.4615 92.3214 12.7252C92.1883 12.989 92.1883 13.3846 92.1883 13.6483C92.1883 13.9121 92.1883 14.3077 92.3214 14.5714C92.4545 14.8352 92.5876 15.0989 92.8539 15.3626C93.1198 15.6263 93.386 15.7583 93.5191 15.8901C93.9184 16.022 94.1846 16.022 94.4517 16.022ZM76.8798 11.2747C75.4156 11.2747 74.8831 11.934 74.8831 12.989V17.7363H72.7533V12.989C72.7533 11.011 73.9513 9.03294 76.8798 9.03294" fill="white"/>
    <path d="M44.0786 28.1548H45.5703C46.591 28.1548 47.2977 28.3103 47.7687 28.5437C48.2398 28.777 48.6324 29.1659 48.9464 29.7103C49.2605 30.2548 49.4175 30.877 49.4175 31.577C49.4175 32.1215 49.339 32.5881 49.182 32.977C49.025 33.4437 48.7894 33.7547 48.4754 34.0659C48.1613 34.377 47.8472 34.5325 47.4547 34.6882C47.0621 34.7659 46.5125 34.8437 45.5703 34.8437H44V28.1548H44.0786ZM45.4133 29.3992V33.5992H46.0414C46.6695 33.5992 47.0621 33.5215 47.2977 33.3659C47.5331 33.2103 47.7687 32.977 47.9258 32.6659C48.0828 32.3549 48.1613 31.966 48.1613 31.4993C48.1613 30.7992 47.9258 30.2548 47.5332 29.8659C47.1406 29.477 46.591 29.3215 45.8058 29.3215H45.4133V29.3992Z" fill="white"/>
    <path d="M53.8968 28C54.839 28 55.7027 28.3111 56.3308 29.0111C56.9589 29.7111 57.3515 30.5667 57.3515 31.5C57.3515 32.5112 57.0374 33.2889 56.3308 33.9889C55.6241 34.6889 54.839 35 53.8183 35C52.7976 35 51.934 34.6889 51.3059 33.9889C50.6777 33.2889 50.2852 32.4333 50.2852 31.5C50.2852 30.8778 50.4422 30.2555 50.7563 29.7111C51.0703 29.1667 51.4629 28.7778 52.0124 28.4667C52.5621 28.1555 53.2687 28 53.8968 28ZM53.8968 29.2444C53.2687 29.2444 52.7191 29.4778 52.3266 29.8667C51.934 30.3334 51.6984 30.8778 51.6984 31.5C51.6984 32.2778 51.934 32.8222 52.4836 33.2889C52.8761 33.6 53.3473 33.8333 53.8968 33.8333C54.525 33.8333 54.996 33.6 55.4671 33.2111C55.9382 32.8222 56.0952 32.2 56.0952 31.5777C56.0952 30.9555 55.8597 30.4111 55.4671 29.9445C55.0745 29.4778 54.525 29.2444 53.8968 29.2444Z" fill="white"/>
    <path d="M58.1328 28.1553H59.3891L60.3312 32.4331L61.509 28.1553H62.6082L63.8644 32.4331L64.8066 28.1553H66.0629L64.571 34.8442H63.3148L62.0586 30.4886L60.8023 34.8442H59.5461L58.1328 28.1553Z" fill="white"/>
    <path d="M67.082 28.1553H68.3383L71.2433 32.5886V28.1553H72.4996V34.8442H71.2433L68.3383 30.4108V34.8442H67.082V28.1553Z" fill="white"/>
    <path d="M74.0781 28.1562H75.3344V33.6785H77.2187V34.923H74.0781V28.1562Z" fill="white"/>
    <path d="M81.3734 28C82.3155 28 83.1792 28.3111 83.8072 29.0111C84.4354 29.7111 84.8279 30.5667 84.8279 31.5C84.8279 32.5112 84.5139 33.2889 83.8072 33.9889C83.1007 34.6889 82.3155 35 81.2948 35C80.2741 35 79.4104 34.6889 78.7824 33.9889C78.0757 33.2889 77.7617 32.4333 77.7617 31.5C77.7617 30.8778 77.9187 30.2555 78.2327 29.7111C78.5468 29.1667 78.9394 28.7778 79.489 28.4667C80.1956 28.1555 80.7453 28 81.3734 28ZM81.3734 29.2444C80.7453 29.2444 80.1956 29.4778 79.803 29.8667C79.4104 30.3334 79.175 30.8778 79.175 31.5C79.175 32.2778 79.4104 32.8222 79.9601 33.2889C80.3527 33.6 80.8237 33.8333 81.3734 33.8333C82.0014 33.8333 82.4725 33.6 82.9437 33.2111C83.4147 32.8222 83.5718 32.2 83.5718 31.5777C83.5718 30.9555 83.3362 30.4111 82.9437 29.9445C82.5511 29.4778 82.0014 29.2444 81.3734 29.2444Z" fill="white"/>
    <path d="M88.2043 28.1553H89.539L92.1299 34.8442H90.7952L90.2457 33.4442H87.4977L86.948 34.8442H85.6133L88.2043 28.1553ZM88.8324 29.9442L87.8902 32.2775H89.6961L88.8324 29.9442Z" fill="white"/>
    <path d="M93.0747 28.1553H94.5665C95.5871 28.1553 96.2938 28.3108 96.7648 28.5442C97.2359 28.7775 97.6285 29.1664 97.9426 29.7108C98.2566 30.2553 98.4136 30.8775 98.4136 31.5775C98.4136 32.122 98.3352 32.5886 98.178 32.9775C98.021 33.3664 97.7855 33.7552 97.4715 34.0664C97.1573 34.3775 96.8433 34.533 96.4508 34.6887C96.0582 34.7664 95.5086 34.8442 94.5665 34.8442H92.9961V28.1553H93.0747ZM94.4094 29.3997V33.5997H95.0375C95.6656 33.5997 96.0582 33.522 96.2938 33.3664C96.5293 33.2108 96.7649 32.9775 96.9219 32.6664C97.0789 32.3553 97.1573 31.9665 97.1573 31.4998C97.1573 30.7997 96.9219 30.2553 96.5293 29.8664C96.1368 29.4775 95.5871 29.3219 94.8019 29.3219H94.4094V29.3997Z" fill="white"/>
    <path d="M104.38 28.1553H105.715L108.306 34.8442H106.971L106.421 33.4442H103.673L103.124 34.8442H101.789L104.38 28.1553ZM105.087 29.9442L104.144 32.2775H105.95L105.087 29.9442Z" fill="white"/>
    <path d="M109.328 28.1562H110.663C111.369 28.1562 111.919 28.234 112.234 28.3896C112.547 28.5451 112.783 28.7785 113.018 29.0118C113.254 29.2451 113.333 29.7118 113.333 30.1007C113.333 30.5673 113.175 30.9563 112.939 31.2674C112.704 31.5784 112.39 31.8118 111.919 31.8896C111.684 31.9674 111.212 31.9673 110.584 31.9673V34.8452H109.328V28.1562ZM110.584 30.8007H110.977C111.291 30.8007 111.527 30.8007 111.684 30.723C111.84 30.6451 111.919 30.5673 111.998 30.4896C112.076 30.4118 112.076 30.2562 112.076 30.1007C112.076 29.8674 111.998 29.634 111.761 29.5563C111.605 29.4785 111.369 29.4007 110.977 29.4007H110.584V30.8007Z" fill="white"/>
    <path d="M114.586 28.1562H115.92V30.4896L117.726 28.1562H119.296L116.94 31.1118L119.532 34.8452H118.04L115.92 31.8896V34.8452H114.586V28.1562Z" fill="white"/>
</svg>
