<svg width="164" height="40" viewBox="0 0 164 40" fill="none" xmlns="http://www.w3.org/2000/svg">
<rect x="0.5" y="0.5" width="163" height="39" rx="5.5" fill="#2B2B36" stroke="#3D3D4B"/>
<path d="M65.749 24.321C65.749 23.6379 65.8869 23.0914 66.0248 22.5449C66.1627 21.9984 66.5765 21.4518 66.9903 21.042C67.404 20.632 67.8178 20.3588 68.3695 20.0855C68.9212 19.8122 69.4728 19.6756 70.1625 19.6756C70.7142 19.6756 71.1279 19.8123 71.5418 19.949C71.9555 20.0856 72.3692 20.3588 72.6451 20.632V19.949H74.8519V28.6932H72.6451V28.0101C72.2313 28.2833 71.9555 28.5566 71.5418 28.6932C71.1279 28.8298 70.7142 28.9664 70.1625 28.9664C69.4728 28.9664 68.9212 28.8298 68.3695 28.5566C67.8178 28.2832 67.404 28.01 66.9903 27.6001C66.5765 27.1902 66.3007 26.7804 66.0248 26.0972C65.749 25.414 65.749 25.0042 65.749 24.321ZM70.4383 26.917C70.5763 26.917 70.8521 26.917 70.99 26.917C71.1279 26.917 71.4038 26.7804 71.5418 26.7804C71.6797 26.6438 71.9555 26.5071 72.0934 26.3705C72.2313 26.2338 72.5072 25.9606 72.6451 25.824V23.0914C72.5072 22.8182 72.2313 22.6815 72.0934 22.5449C71.9555 22.4083 71.6797 22.2716 71.5418 22.135C71.4038 21.9983 71.1279 21.9984 70.99 21.9984C70.8521 21.9984 70.5763 21.9984 70.4383 21.9984C70.0246 21.9984 69.7488 21.9983 69.4728 22.135C69.197 22.2716 68.9212 22.4082 68.7833 22.6815C68.5074 22.9548 68.3695 23.228 68.2316 23.5012C68.0937 23.7745 68.0937 24.1844 68.0937 24.4576C68.0937 24.731 68.0937 25.1408 68.2316 25.414C68.3695 25.6874 68.5074 25.9606 68.7833 26.2338C69.0591 26.507 69.3349 26.6438 69.4728 26.7804C69.7488 26.917 70.0246 26.917 70.4383 26.917ZM80.2309 21.9984C79.1275 21.9984 78.3 22.6814 78.3 23.7746V28.6932H76.0931V23.7746C76.0931 21.725 77.8861 19.8123 80.2309 19.8123C82.5755 19.8123 84.3685 21.725 84.3685 23.7746V28.6932H82.1618V23.7746C82.1618 22.6814 81.1963 21.9984 80.2309 21.9984ZM85.334 24.321C85.334 23.6379 85.4719 23.0914 85.6098 22.5449C85.7477 21.9984 86.1615 21.4518 86.5753 21.042C86.9891 20.632 87.4028 20.3588 87.9545 20.0855C88.5062 19.8122 89.0579 19.6756 89.7475 19.6756C90.2992 19.6756 90.713 19.8123 91.1267 19.949C91.5405 20.0856 91.9543 20.3588 92.2301 20.632V17.2164H94.4369V28.5566H92.2301V27.8734C91.8164 28.1466 91.5405 28.4199 91.1267 28.5566C90.713 28.6932 90.2992 28.8298 89.7475 28.8298C89.0579 28.8298 88.5062 28.6932 87.9545 28.4199C87.4028 28.1466 86.9891 27.8734 86.5753 27.4635C86.1615 27.0536 85.8857 26.6438 85.6098 25.9606C85.334 25.2775 85.334 25.0042 85.334 24.321ZM90.0234 26.917C90.1613 26.917 90.4371 26.917 90.575 26.917C90.713 26.917 90.9888 26.7804 91.1267 26.7804C91.2646 26.6438 91.5405 26.5071 91.6784 26.3705C91.8164 26.2338 92.0922 25.9606 92.2301 25.824V23.0914C92.0922 22.8182 91.8164 22.6815 91.6784 22.5449C91.5405 22.4083 91.2646 22.2716 91.1267 22.135C90.9888 21.9983 90.713 21.9984 90.575 21.9984C90.4371 21.9984 90.1613 21.9984 90.0234 21.9984C89.6095 21.9984 89.3337 21.9983 89.0579 22.135C88.7821 22.2716 88.5062 22.4082 88.3683 22.6815C88.0924 22.9548 87.9545 23.228 87.8166 23.5012C87.6786 23.7745 87.6786 24.1844 87.6786 24.4576C87.6786 24.731 87.6786 25.1408 87.8166 25.414C87.9545 25.6874 88.0924 25.9606 88.3683 26.2338C88.6441 26.507 88.92 26.6438 89.0579 26.7804C89.3337 26.917 89.6095 26.917 90.0234 26.917ZM104.643 26.917C104.919 26.917 105.195 26.917 105.609 26.7804C105.884 26.6438 106.16 26.507 106.298 26.2338C106.574 25.9606 106.712 25.6874 106.85 25.414C106.988 25.1408 106.988 24.731 106.988 24.4576C106.988 24.1844 106.988 23.7745 106.85 23.5012C106.712 23.228 106.574 22.9548 106.298 22.6815C106.022 22.4082 105.746 22.2716 105.609 22.135C105.333 21.9983 105.057 21.9984 104.643 21.9984C104.367 21.9984 104.091 21.9983 103.678 22.135C103.402 22.2716 103.126 22.4082 102.988 22.6815C102.712 22.9548 102.574 23.228 102.436 23.5012C102.298 23.7745 102.298 24.1844 102.298 24.4576C102.298 24.731 102.298 25.1408 102.436 25.414C102.574 25.6874 102.712 25.9606 102.988 26.2338C103.264 26.507 103.54 26.6438 103.678 26.7804C103.953 26.7804 104.367 26.917 104.643 26.917ZM104.643 28.9664C104.091 28.9664 103.402 28.8298 102.85 28.5566C102.298 28.2832 101.747 28.01 101.333 27.6001C100.919 27.1902 100.643 26.7804 100.368 26.0972C100.092 25.5507 99.9537 25.0042 99.9537 24.321C99.9537 23.7746 100.092 23.0914 100.368 22.5449C100.643 21.9984 100.919 21.4518 101.333 21.042C101.747 20.632 102.298 20.3588 102.85 20.0855C103.402 19.8122 103.953 19.6756 104.643 19.6756C105.195 19.6756 105.884 19.8122 106.436 20.0855C106.988 20.3588 107.539 20.632 107.953 21.042C108.367 21.4518 108.643 21.8618 108.919 22.5449C109.195 23.0914 109.332 23.6379 109.332 24.321C109.332 25.0042 109.195 25.5507 108.919 26.0972C108.643 26.6438 108.367 27.1902 107.953 27.6001C107.539 28.01 106.988 28.2832 106.436 28.5566C105.884 28.8298 105.333 28.9664 104.643 28.9664ZM111.263 19.2658C111.125 19.2658 110.85 19.2658 110.712 19.1292C110.574 18.9926 110.436 18.9926 110.298 18.8559C110.16 18.7193 110.022 18.5827 110.022 18.446C109.884 18.3094 109.884 18.1728 109.884 17.8995C109.884 17.7628 109.884 17.4896 110.022 17.353C110.16 17.2163 110.16 17.0797 110.298 16.943C110.436 16.8064 110.574 16.6698 110.712 16.6698C110.85 16.5332 110.988 16.5332 111.263 16.5332C111.401 16.5332 111.677 16.5332 111.815 16.6698C111.953 16.8064 112.091 16.8064 112.229 16.943C112.367 17.0797 112.505 17.2163 112.505 17.353C112.643 17.4896 112.643 17.6262 112.643 17.8995C112.643 18.0362 112.643 18.3094 112.505 18.446C112.367 18.5827 112.367 18.7193 112.229 18.8559C112.091 18.9926 111.953 19.1292 111.815 19.1292C111.539 19.2658 111.539 19.2658 111.263 19.2658ZM110.16 20.0855H112.367V28.8298H110.16V20.0855ZM113.47 24.321C113.47 23.6379 113.608 23.0914 113.746 22.5449C114.022 21.9984 114.298 21.4518 114.712 21.042C115.125 20.632 115.539 20.3588 116.091 20.0855C116.642 19.8122 117.194 19.6756 117.883 19.6756C118.436 19.6756 118.85 19.8123 119.263 19.949C119.677 20.0856 120.091 20.3588 120.367 20.632V17.2164H122.573V28.5566H120.367V27.8734C119.953 28.1466 119.677 28.4199 119.263 28.5566C118.85 28.6932 118.436 28.8298 117.883 28.8298C117.194 28.8298 116.642 28.6932 116.091 28.4199C115.539 28.1466 115.125 27.8734 114.712 27.4635C114.298 27.0536 114.022 26.6438 113.746 25.9606C113.47 25.5507 113.47 25.0042 113.47 24.321ZM118.022 26.917C118.16 26.917 118.436 26.917 118.574 26.917C118.712 26.917 118.987 26.7804 119.125 26.7804C119.263 26.6438 119.539 26.5071 119.677 26.3705C119.815 26.2338 120.091 25.9606 120.229 25.824V23.0914C120.091 22.8182 119.815 22.6815 119.677 22.5449C119.539 22.4083 119.263 22.2716 119.125 22.135C118.987 21.9983 118.712 21.9984 118.574 21.9984C118.436 21.9984 118.16 21.9984 118.022 21.9984C117.607 21.9984 117.332 21.9983 117.056 22.135C116.78 22.2716 116.504 22.4082 116.367 22.6815C116.091 22.9548 115.953 23.228 115.815 23.5012C115.677 23.7745 115.677 24.1844 115.677 24.4576C115.677 24.731 115.677 25.1408 115.815 25.414C115.953 25.6874 116.091 25.9606 116.367 26.2338C116.642 26.507 116.918 26.6438 117.056 26.7804C117.47 26.917 117.745 26.917 118.022 26.917ZM99.8158 21.9984C98.2987 21.9984 97.747 22.6814 97.747 23.7746V28.6932H95.5403V23.7746C95.5403 21.725 96.7815 19.6756 99.8158 19.6756" fill="white"/>
<path d="M46.8316 8.19334L47.9622 10.0797C45.939 11.0818 44.5703 12.9682 44.5703 15.1492H50.9971H57.4238C57.4238 12.9682 56.0552 11.0229 54.0319 10.0797L55.1625 8.19334C55.1625 8.19334 55.222 8.07545 55.103 8.0165C54.984 7.95756 54.9245 8.07546 54.9245 8.07546L53.7939 10.0207C52.9608 9.66706 51.9492 9.43126 50.9375 9.43126C49.9259 9.43126 48.9738 9.66706 48.0812 10.0207L46.9506 8.07546C46.9506 8.07546 46.8911 7.95756 46.7721 8.0165C46.8316 8.1344 46.8316 8.19334 46.8316 8.19334ZM47.9622 11.9071C48.3193 11.9071 48.5573 12.2018 48.5573 12.4966C48.5573 12.8503 48.2598 13.0861 47.9622 13.0861C47.6052 13.0861 47.3672 12.8503 47.3672 12.4966C47.3672 12.2018 47.6052 11.9071 47.9622 11.9071ZM54.0914 11.9071C54.4484 11.9071 54.6865 12.2018 54.6865 12.4966C54.6865 12.8503 54.389 13.0861 54.0914 13.0861C53.7344 13.0861 53.4964 12.8503 53.4964 12.4966C53.4964 12.2018 53.7344 11.9071 54.0914 11.9071Z" fill="#A4C639"/>
<path d="M44.5107 15.9746V25.6422C44.5107 26.1138 45.1058 26.7621 45.5819 26.7621H47.129V30.0633C47.129 30.8886 47.7241 31.5959 48.4976 31.5959C49.2712 31.5959 49.8663 30.9476 49.8663 30.0633V26.7621H52.0681V30.0633C52.0681 30.8886 52.6631 31.5959 53.4367 31.5959C54.2103 31.5959 54.8054 30.9476 54.8054 30.0633V26.7621H56.3525C56.8285 26.7621 57.4237 26.1138 57.4237 25.6422V15.9746H44.5107Z" fill="#A4C639"/>
<path d="M42.3687 15.7383C43.1422 15.7383 43.7373 16.4456 43.7373 17.271V22.989C43.7373 23.8142 43.1422 24.5215 42.3687 24.5215C41.5951 24.5215 41 23.8142 41 22.989V17.271C41 16.4456 41.6546 15.7383 42.3687 15.7383Z" fill="#A4C639"/>
<path d="M59.6849 15.7383C60.4585 15.7383 61.0536 16.4456 61.0536 17.271V22.989C61.0536 23.8142 60.4585 24.5215 59.6849 24.5215C58.9113 24.5215 58.3163 23.8142 58.3163 22.989V17.271C58.2568 16.4456 58.9113 15.7383 59.6849 15.7383Z" fill="#A4C639"/>
<path d="M65.8144 9.43164H66.945C67.7186 9.43164 68.2542 9.54954 68.6112 9.72638C68.9683 9.90322 69.2658 10.198 69.5038 10.6106C69.7419 11.0232 69.8609 11.4948 69.8609 12.0253C69.8609 12.438 69.8013 12.7917 69.6823 13.0864C69.5633 13.4401 69.3848 13.6759 69.1468 13.9117C68.9087 14.1475 68.6707 14.2654 68.3732 14.3833C68.0757 14.4422 67.6592 14.5012 66.945 14.5012H65.7549V9.43164H65.8144ZM66.826 10.3748V13.558H67.3021C67.7781 13.558 68.0757 13.4991 68.2542 13.3811C68.4327 13.2633 68.6112 13.0864 68.7303 12.8507C68.8493 12.6149 68.9087 12.3202 68.9087 11.9664C68.9087 11.4359 68.7303 11.0232 68.4327 10.7285C68.1351 10.4338 67.7186 10.3159 67.1235 10.3159H66.826V10.3748Z" fill="white"/>
<path d="M73.2529 9.3125C73.967 9.3125 74.6216 9.54829 75.0977 10.0788C75.5737 10.6094 75.8713 11.2578 75.8713 11.9652C75.8713 12.7315 75.6332 13.321 75.0977 13.8515C74.562 14.3821 73.967 14.6178 73.1934 14.6178C72.4198 14.6178 71.7653 14.3821 71.2892 13.8515C70.8132 13.321 70.5156 12.6725 70.5156 11.9652C70.5156 11.4936 70.6346 11.022 70.8727 10.6094C71.1107 10.1967 71.4082 9.90197 71.8247 9.66618C72.2414 9.43039 72.7769 9.3125 73.2529 9.3125ZM73.2529 10.2557C72.7769 10.2557 72.3603 10.4325 72.0628 10.7273C71.7653 11.081 71.5867 11.4936 71.5867 11.9652C71.5867 12.5547 71.7653 12.9673 72.1818 13.321C72.4793 13.5568 72.8364 13.7336 73.2529 13.7336C73.729 13.7336 74.086 13.5568 74.4431 13.262C74.8001 12.9673 74.9191 12.4957 74.9191 12.0241C74.9191 11.5525 74.7406 11.1399 74.4431 10.7862C74.1455 10.4325 73.729 10.2557 73.2529 10.2557Z" fill="white"/>
<path d="M76.4658 9.43164H77.4179L78.132 12.6738L79.0247 9.43164H79.8577L80.8099 12.6738L81.5239 9.43164H82.476L81.3454 14.5012H80.3932L79.4412 11.2001L78.4891 14.5012H77.5369L76.4658 9.43164Z" fill="white"/>
<path d="M83.249 9.43164H84.2012L86.4029 12.7917V9.43164H87.355V14.5012H86.4029L84.2012 11.1411V14.5012H83.249V9.43164Z" fill="white"/>
<path d="M88.5459 9.43164H89.498V13.617H90.9261V14.5602H88.5459V9.43164Z" fill="white"/>
<path d="M94.0801 9.3125C94.7941 9.3125 95.4487 9.54829 95.9247 10.0788C96.4008 10.6094 96.6983 11.2578 96.6983 11.9652C96.6983 12.7315 96.4603 13.321 95.9247 13.8515C95.3892 14.3821 94.7941 14.6178 94.0205 14.6178C93.2469 14.6178 92.5923 14.3821 92.1164 13.8515C91.5808 13.321 91.3428 12.6725 91.3428 11.9652C91.3428 11.4936 91.4618 11.022 91.6997 10.6094C91.9378 10.1967 92.2354 9.90197 92.6519 9.66618C93.1874 9.43039 93.604 9.3125 94.0801 9.3125ZM94.0801 10.2557C93.604 10.2557 93.1874 10.4325 92.8899 10.7273C92.5923 11.081 92.4139 11.4936 92.4139 11.9652C92.4139 12.5547 92.5923 12.9673 93.009 13.321C93.3065 13.5568 93.6635 13.7336 94.0801 13.7336C94.5561 13.7336 94.9131 13.5568 95.2702 13.262C95.6272 12.9673 95.7463 12.4957 95.7463 12.0241C95.7463 11.5525 95.5677 11.1399 95.2702 10.7862C94.9727 10.4325 94.5561 10.2557 94.0801 10.2557Z" fill="white"/>
<path d="M99.2567 9.43164H100.268L102.232 14.5012H101.22L100.804 13.4401H98.7212L98.3046 14.5012H97.293L99.2567 9.43164ZM99.7328 10.7875L99.0187 12.5559H100.387L99.7328 10.7875Z" fill="white"/>
<path d="M102.946 9.43164H104.077C104.85 9.43164 105.386 9.54954 105.743 9.72638C106.1 9.90322 106.398 10.198 106.636 10.6106C106.874 11.0232 106.993 11.4948 106.993 12.0253C106.993 12.438 106.933 12.7917 106.814 13.0864C106.695 13.3811 106.517 13.6759 106.279 13.9117C106.041 14.1475 105.803 14.2654 105.505 14.3833C105.208 14.4422 104.791 14.5012 104.077 14.5012H102.887V9.43164H102.946ZM103.958 10.3748V13.558H104.434C104.91 13.558 105.208 13.4991 105.386 13.3811C105.565 13.2633 105.743 13.0864 105.862 12.8507C105.981 12.6149 106.041 12.3202 106.041 11.9664C106.041 11.4359 105.862 11.0232 105.565 10.7285C105.267 10.4338 104.85 10.3159 104.255 10.3159H103.958V10.3748Z" fill="white"/>
<path d="M111.515 9.43164H112.527L114.491 14.5012H113.479L113.063 13.4401H110.98L110.563 14.5012H109.552L111.515 9.43164ZM112.051 10.7875L111.337 12.5559H112.706L112.051 10.7875Z" fill="white"/>
<path d="M115.264 9.43164H116.275C116.811 9.43164 117.227 9.4906 117.466 9.60849C117.703 9.72639 117.882 9.90323 118.06 10.0801C118.239 10.2569 118.299 10.6106 118.299 10.9054C118.299 11.259 118.18 11.5538 118.001 11.7896C117.823 12.0253 117.584 12.2022 117.227 12.2612C117.049 12.3202 116.691 12.3201 116.216 12.3201V14.5012H115.264V9.43164ZM116.216 11.4359H116.513C116.751 11.4359 116.93 11.4359 117.049 11.377C117.168 11.318 117.227 11.259 117.287 11.2001C117.346 11.1411 117.346 11.0232 117.346 10.9054C117.346 10.7285 117.287 10.5517 117.108 10.4927C116.99 10.4338 116.811 10.3748 116.513 10.3748H116.216V11.4359Z" fill="white"/>
<path d="M119.251 9.43164H120.262V11.2001L121.631 9.43164H122.821L121.035 11.6717L123 14.5012H121.868L120.262 12.2612V14.5012H119.251V9.43164Z" fill="white"/>
</svg>
