<svg width="41" height="40" viewBox="0 0 41 40" fill="none" xmlns="http://www.w3.org/2000/svg">
  <circle cx="21" cy="20" r="20" fill="#3E3F57"/>
  <path opacity="0.7"
        d="M15.9435 28.9152C15.5545 28.6563 15.2091 28.3391 14.9204 27.9729C14.6054 27.5934 14.3134 27.1944 14.0453 26.7814C13.4153 25.8636 12.9226 24.8597 12.5813 23.8018C12.1701 22.571 11.9702 21.3926 11.9702 20.2396C11.9702 18.9531 12.2499 17.8304 12.7943 16.8881C13.1973 16.1506 13.7977 15.5335 14.5215 15.1C15.2206 14.6657 16.0348 14.4281 16.8573 14.4117C17.1452 14.4117 17.4577 14.4526 17.7867 14.5346C18.0252 14.6001 18.3131 14.7067 18.6667 14.8378C19.1191 15.0099 19.3658 15.1164 19.4481 15.141C19.7113 15.2393 19.9333 15.2803 20.106 15.2803C20.2376 15.2803 20.4268 15.2393 20.6365 15.1738C20.7558 15.1328 20.982 15.059 21.3027 14.9197C21.6202 14.805 21.8719 14.7067 22.0717 14.6329C22.376 14.5428 22.6705 14.4608 22.9353 14.4199C23.2561 14.3707 23.5744 14.3543 23.8795 14.3789C24.4635 14.4199 24.9981 14.5428 25.4751 14.7231C26.314 15.059 26.9909 15.5835 27.4959 16.3292C27.2821 16.4603 27.0847 16.6127 26.8996 16.7799C26.4991 17.1323 26.1594 17.5502 25.888 18.0132C25.5343 18.6442 25.3534 19.3571 25.3583 20.0782C25.3706 20.9657 25.5968 21.7458 26.0492 22.4219C26.3675 22.9135 26.7927 23.3347 27.3108 23.6805C27.5658 23.8526 27.7895 23.9714 28.0017 24.0493C27.903 24.3566 27.7944 24.6557 27.6686 24.9507C27.3832 25.612 27.0435 26.2454 26.6405 26.8436C26.2852 27.3599 26.0056 27.745 25.7934 27.9991C25.4628 28.3924 25.1436 28.6874 24.8229 28.898C24.4692 29.1316 24.0539 29.2553 23.6287 29.2553C23.3408 29.2676 23.0529 29.2307 22.7782 29.1512C22.5397 29.0734 22.3045 28.9857 22.0742 28.8865C21.8332 28.7767 21.584 28.6833 21.3299 28.6079C21.0173 28.526 20.6966 28.4867 20.3725 28.4875C20.0435 28.4875 19.7228 28.5284 19.4185 28.6063C19.1635 28.6784 18.9168 28.7669 18.6725 28.8726C18.327 29.016 18.1009 29.1103 17.9693 29.1512C17.7028 29.2299 17.4297 29.2774 17.155 29.2946C16.7274 29.2946 16.3293 29.1717 15.9329 28.9259L15.9435 28.9152ZM21.5807 13.7881C21.0214 14.0667 20.4901 14.1847 19.958 14.1453C19.8758 13.616 19.958 13.0719 20.1801 12.4761C20.3775 11.9681 20.6406 11.5092 21.0025 11.0994C21.3809 10.6733 21.8332 10.3209 22.3431 10.0669C22.886 9.7883 23.4041 9.64079 23.8976 9.61621C23.9634 10.1734 23.8976 10.7225 23.692 11.3125C23.5045 11.8369 23.2248 12.3204 22.8695 12.7547C22.5118 13.1808 22.0676 13.5332 21.5651 13.7872L21.5807 13.7881Z"
        fill="white"/>
</svg>
