<svg width="151" height="72" fill="none" xmlns="http://www.w3.org/2000/svg"><path d="M13.256 11h13.488A5.256 5.256 0 0 1 32 16.256v13.488A5.256 5.256 0 0 1 26.744 35H13.256A5.256 5.256 0 0 1 8 29.744V16.256A5.256 5.256 0 0 1 13.256 11Z" fill="url(#a)"/><path d="M15.693 28.42h.002l-.82 1.422a1.085 1.085 0 0 1-1.879-1.085l.605-1.047.058-.1c.103-.15.359-.406.87-.358 0 0 1.204.13 1.29.756 0 0 .013.206-.126.412Zm11.639-3.63h-2.56c-.173-.012-.25-.074-.28-.11l-.001-.004-2.74-4.744-.003.002-.164-.235c-.27-.412-.697.641-.697.641-.51 1.173.072 2.507.276 2.91l3.804 6.59a1.085 1.085 0 1 0 1.879-1.084l-.951-1.648c-.019-.04-.05-.149.144-.149h1.293a1.085 1.085 0 0 0 0-2.17Zm-4.97 1.474s.136.695-.392.695h-9.46a1.085 1.085 0 0 1 0-2.17h2.432c.393-.022.486-.249.486-.249l.002.001 3.175-5.498h-.001a.243.243 0 0 0 .001-.223l-1.048-1.815a1.084 1.084 0 1 1 1.878-1.085l.487.842.485-.84a1.085 1.085 0 0 1 1.879 1.084l-4.418 7.651c-.019.047-.025.12.119.133h2.64v.025s1.527.024 1.735 1.45ZM43.806 30l1.08-3.317h5.249L51.215 30h3.295l-5.015-14.546h-3.963L40.511 30h3.295Zm1.861-5.717 1.79-5.505h.114l1.79 5.505h-3.694Zm10.536 9.808h3.026v-5.838h.092c.42.909 1.336 1.925 3.097 1.925 2.486 0 4.425-1.968 4.425-5.618 0-3.75-2.025-5.611-4.418-5.611-1.825 0-2.699 1.086-3.104 1.974h-.135v-1.832h-2.983v15Zm2.962-9.546c0-1.946.824-3.189 2.294-3.189 1.499 0 2.294 1.3 2.294 3.19 0 1.903-.81 3.224-2.294 3.224-1.456 0-2.294-1.279-2.294-3.224Zm9.695 9.546h3.025v-5.838h.093c.419.909 1.335 1.925 3.096 1.925 2.486 0 4.425-1.968 4.425-5.618 0-3.75-2.024-5.611-4.418-5.611-1.825 0-2.699 1.086-3.103 1.974h-.135v-1.832H68.86v15Zm2.961-9.546c0-1.946.824-3.189 2.294-3.189 1.499 0 2.294 1.3 2.294 3.19 0 1.903-.81 3.224-2.294 3.224-1.456 0-2.294-1.279-2.294-3.224Zm17.642-4.907h2.948c-.043-2.593-2.173-4.382-5.412-4.382-3.189 0-5.526 1.761-5.511 4.403-.007 2.145 1.505 3.374 3.963 3.963l1.583.398c1.584.383 2.465.838 2.472 1.818-.007 1.065-1.016 1.79-2.578 1.79-1.598 0-2.749-.739-2.848-2.195h-2.976c.078 3.146 2.33 4.773 5.86 4.773 3.55 0 5.639-1.697 5.646-4.36-.007-2.423-1.833-3.708-4.361-4.276l-1.307-.313c-1.264-.291-2.322-.76-2.301-1.804 0-.937.83-1.626 2.337-1.626 1.47 0 2.372.667 2.485 1.81Zm10.961-.547h-2.053v-2.614h-3.025v2.614h-1.492v2.273h1.492v5.681c-.014 2.138 1.442 3.196 3.636 3.104a5.893 5.893 0 0 0 1.641-.284l-.476-2.251c-.15.028-.469.1-.753.1-.604 0-1.023-.228-1.023-1.066v-5.284h2.053V19.09Zm6.783 11.122c3.309 0 5.369-2.266 5.369-5.625 0-3.38-2.06-5.64-5.369-5.64-3.31 0-5.37 2.26-5.37 5.64 0 3.36 2.06 5.625 5.37 5.625Zm.014-2.344c-1.527 0-2.308-1.399-2.308-3.302 0-1.904.781-3.31 2.308-3.31 1.498 0 2.28 1.406 2.28 3.31 0 1.903-.782 3.302-2.28 3.302ZM114.543 30h3.026v-6.172c0-1.342.98-2.265 2.315-2.265.419 0 .995.07 1.279.163V19.04a4.55 4.55 0 0 0-.952-.106c-1.222 0-2.223.71-2.621 2.06h-.113V19.09h-2.934V30Zm12.648.213c2.699 0 4.517-1.314 4.943-3.338l-2.798-.185c-.306.831-1.087 1.264-2.096 1.264-1.512 0-2.471-1-2.471-2.627v-.007h7.429v-.831c0-3.708-2.245-5.54-5.128-5.54-3.21 0-5.291 2.28-5.291 5.646 0 3.459 2.052 5.618 5.412 5.618Zm-2.422-6.768c.064-1.243 1.008-2.238 2.351-2.238 1.314 0 2.223.938 2.23 2.238h-4.581Z" fill="#fff"/><path d="m48 44 2.356 4.758 5.252.77-3.796 3.71.89 5.234L48 56.008l-4.702 2.464.89-5.233-3.797-3.711 5.253-.77L48 44ZM65 44l2.356 4.758 5.253.77-3.797 3.71.89 5.234L65 56.008l-4.702 2.464.89-5.233-3.797-3.711 5.253-.77L65 44ZM82 44l2.356 4.758 5.253.77-3.797 3.71.89 5.234L82 56.008l-4.702 2.464.89-5.233-3.797-3.711 5.253-.77L82 44ZM99 44l2.356 4.758 5.252.77-3.796 3.71.89 5.234L99 56.008l-4.702 2.464.89-5.233-3.797-3.711 5.253-.77L99 44Z" fill="#00C26F"/><path d="m116 44 2.356 4.758 5.252.77-3.796 3.71.89 5.234L116 56.008l-4.702 2.464.89-5.233-3.796-3.711 5.252-.77L116 44Z" fill="#0DC171"/><path opacity=".4" d="M131.306 52.524v-3.169l-2.242 3.17h2.242ZM131.32 55v-1.709h-3.066v-.86l3.203-4.443h.742v4.536h1.03v.767h-1.03V55h-.879Zm3.201-1.065h1.02V55h-1.02v-1.065Zm3.357-.625c.026.486.213.82.561 1.006.179.098.381.147.606.147.42 0 .778-.174 1.074-.523.296-.351.506-1.062.63-2.133-.195.309-.438.527-.728.654a2.31 2.31 0 0 1-.927.186c-.674 0-1.208-.21-1.602-.63-.391-.42-.586-.96-.586-1.622 0-.634.194-1.193.581-1.674.387-.482.959-.723 1.714-.723 1.019 0 1.722.459 2.109 1.377.215.505.323 1.136.323 1.895 0 .856-.129 1.614-.386 2.275-.427 1.1-1.149 1.65-2.168 1.65-.684 0-1.203-.179-1.558-.537-.355-.358-.532-.807-.532-1.348h.889Zm1.333-1.435c.348 0 .665-.114.952-.342.29-.23.434-.633.434-1.206 0-.514-.13-.897-.39-1.147-.257-.254-.586-.381-.986-.381-.43 0-.772.145-1.026.434-.251.287-.376.671-.376 1.153 0 .456.111.818.332 1.089.222.267.575.4 1.06.4Z" fill="#fff"/><defs><linearGradient id="a" x1="20" y1="11" x2="20" y2="35" gradientUnits="userSpaceOnUse"><stop stop-color="#17C9FB"/><stop offset="1" stop-color="#1A74E8"/></linearGradient></defs></svg>