<svg width="164" height="40" viewBox="0 0 164 40" fill="none" xmlns="http://www.w3.org/2000/svg">
<rect x="0.5" y="0.5" width="163" height="39" rx="5.5" fill="#2B2B36" stroke="#3D3D4B"/>
<path opacity="0.85" fill-rule="evenodd" clip-rule="evenodd" d="M48.6344 11.3612C49.3537 10.4627 49.846 9.2404 49.7093 8C48.6681 8.04603 47.3661 8.71925 46.6163 9.59797C45.9529 10.3723 45.3603 11.6415 45.5134 12.835C46.6829 12.9222 47.8838 12.2456 48.6344 11.3612ZM51.2685 19.1521C51.2448 16.5226 53.4078 15.2333 53.5383 15.1555L53.5409 15.1539C52.2973 13.3431 50.3697 13.0956 49.6924 13.0759C48.7019 12.9718 47.7296 13.3572 46.9351 13.6721C46.431 13.872 45.9985 14.0434 45.6783 14.0434C45.3138 14.0434 44.8687 13.8648 44.3701 13.6647C43.718 13.403 42.9741 13.1044 42.1984 13.1203C40.4371 13.1474 38.7893 14.1659 37.8857 15.7474C36.0207 18.9721 37.4116 23.7109 39.1984 26.3175C40.0923 27.5941 41.1367 29.0195 42.5038 28.9693C43.124 28.9438 43.564 28.7588 44.0185 28.5678C44.5441 28.3468 45.0892 28.1177 45.9548 28.1177C46.7714 28.1177 47.2932 28.3397 47.7941 28.5528C48.2742 28.757 48.735 28.9529 49.4175 28.9372C50.8529 28.9142 51.7565 27.6549 52.6191 26.3668C53.652 24.9037 54.0668 23.4628 54.0833 23.3887C54.0496 23.3772 51.2956 22.3275 51.2685 19.1521ZM68.7538 28.7861H70.6229L67.0796 17.8469H64.9018L61.3759 28.7861H63.1956L64.171 25.5729H67.7299L68.7538 28.7861ZM66.4953 21.3684L67.4212 24.2249H64.4804L65.3899 21.3684C65.6286 20.4601 65.8023 19.7729 65.9101 19.3077H65.943C66.2138 20.3894 66.3974 21.0766 66.4953 21.3684ZM79.6906 24.745C79.6906 26.0866 79.3277 27.1469 78.6017 27.9254C77.9515 28.6184 77.1441 28.9643 76.1803 28.9643C75.14 28.9643 74.3927 28.5911 73.9375 27.8448H73.9046V32H72.1498V23.4947C72.1498 22.6514 72.1276 21.7858 72.0848 20.898H73.6281L73.7259 22.1483H73.7589C74.3441 21.2063 75.2322 20.7362 76.424 20.7362C77.3556 20.7362 78.1334 21.1035 78.7556 21.8393C79.3795 22.5758 79.6906 23.5441 79.6906 24.745ZM77.903 24.8092C77.903 24.0414 77.7301 23.4085 77.3828 22.9104C77.0034 22.3908 76.4939 22.1311 75.8552 22.1311C75.4223 22.1311 75.0289 22.2758 74.6775 22.561C74.3251 22.8487 74.0947 23.2244 73.9869 23.6896C73.9326 23.9066 73.9054 24.0841 73.9054 24.2239V25.5391C73.9054 26.1128 74.0815 26.597 74.4338 26.9924C74.786 27.3878 75.2437 27.5851 75.8066 27.5851C76.4676 27.5851 76.9819 27.3302 77.3499 26.8222C77.7186 26.3134 77.903 25.6427 77.903 24.8092ZM87.6849 27.9254C88.4118 27.1469 88.7747 26.0866 88.7747 24.745C88.7747 23.5441 88.4628 22.5758 87.8414 21.8393C87.2175 21.1035 86.4397 20.7362 85.5088 20.7362C84.3162 20.7362 83.4281 21.2063 82.8438 22.1483H82.8109L82.7129 20.898H81.1697C81.2125 21.7858 81.2348 22.6514 81.2348 23.4947V32H82.9894V27.8448H83.0224C83.4767 28.5911 84.224 28.9643 85.2644 28.9643C86.2282 28.9643 87.0356 28.6184 87.6849 27.9254ZM86.4661 22.9104C86.8134 23.4085 86.987 24.0414 86.987 24.8092C86.987 25.6427 86.8027 26.3134 86.4339 26.8222C86.0661 27.3302 85.5516 27.5851 84.8907 27.5851C84.3261 27.5851 83.8685 27.3869 83.5162 26.9924C83.1656 26.597 82.9894 26.1128 82.9894 25.5391V24.2239C82.9894 24.0841 83.0174 23.9066 83.071 23.6896C83.1787 23.2244 83.4084 22.8487 83.7607 22.561C84.1129 22.2758 84.5056 22.1311 84.9392 22.1311C85.5788 22.1311 86.0866 22.3908 86.4661 22.9104ZM98.9307 25.7182C98.9307 26.6488 98.6072 27.4058 97.9578 27.9902C97.2443 28.629 96.2508 28.9479 94.9743 28.9479C93.7957 28.9479 92.8508 28.721 92.1356 28.2664L92.5421 26.8058C93.3125 27.271 94.1578 27.5044 95.0788 27.5044C95.7398 27.5044 96.2542 27.3549 96.6236 27.0573C96.9916 26.7597 97.1752 26.3602 97.1752 25.8621C97.1752 25.4182 97.0236 25.0442 96.72 24.7409C96.4179 24.4376 95.9134 24.1556 95.2088 23.8951C93.2911 23.1807 92.3331 22.1343 92.3331 20.7583C92.3331 19.859 92.6689 19.1217 93.3413 18.5479C94.0113 17.9733 94.9052 17.6865 96.0228 17.6865C97.0195 17.6865 97.8475 17.8599 98.5084 18.2059L98.0698 19.6346C97.4525 19.2992 96.7546 19.1315 95.9734 19.1315C95.3562 19.1315 94.8739 19.2836 94.5282 19.5861C94.236 19.8566 94.0895 20.1862 94.0895 20.5767C94.0895 21.009 94.2566 21.3665 94.5924 21.6477C94.8846 21.9074 95.4155 22.1886 96.1858 22.4919C97.1282 22.8708 97.8204 23.3139 98.2657 23.8219C98.7093 24.3283 98.9307 24.962 98.9307 25.7182ZM102.798 22.2132H104.733V20.8963H102.798V18.9325L101.075 19.452V20.8963H99.9226V22.2115H101.075V26.1876C101.075 27.183 101.271 27.8915 101.66 28.3141C102.051 28.7358 102.593 28.947 103.286 28.947C103.849 28.947 104.305 28.8821 104.65 28.753L104.602 27.4221C104.396 27.4764 104.136 27.5035 103.822 27.5035C103.139 27.5035 102.798 27.017 102.798 26.0429V22.2132ZM113.459 24.7773C113.459 25.9897 113.111 26.9852 112.419 27.7637C111.692 28.5651 110.728 28.9646 109.525 28.9646C108.367 28.9646 107.443 28.5807 106.755 27.813C106.067 27.0452 105.723 26.0761 105.723 24.908C105.723 23.6857 106.077 22.6845 106.788 21.9061C107.496 21.1268 108.452 20.7371 109.655 20.7371C110.813 20.7371 111.746 21.121 112.45 21.8896C113.124 22.6352 113.459 23.5977 113.459 24.7773ZM111.639 24.834C111.639 24.1066 111.483 23.4827 111.168 22.9623C110.8 22.3327 110.274 22.0187 109.592 22.0187C108.887 22.0187 108.351 22.3335 107.984 22.9623C107.669 23.4835 107.512 24.1173 107.512 24.8669C107.512 25.5944 107.669 26.2182 107.984 26.7378C108.362 27.3674 108.893 27.6814 109.577 27.6814C110.247 27.6814 110.773 27.3608 111.152 26.7213C111.476 26.1912 111.639 25.5607 111.639 24.834ZM118.61 22.3908C118.805 22.3908 118.989 22.4073 119.163 22.4393V20.7682C119.033 20.7477 118.886 20.7362 118.725 20.7362C118.269 20.7362 117.847 20.8767 117.456 21.1587C117.056 21.4718 116.764 21.8894 116.579 22.4081H116.53L116.466 20.8989H114.937C114.981 21.6452 115.004 22.473 115.004 23.3822L114.987 28.786H116.741V24.6472C116.741 24.02 116.887 23.5006 117.18 23.0896C117.516 22.6235 117.993 22.3908 118.61 22.3908ZM127.011 24.4689C127.011 24.7828 126.99 25.0475 126.947 25.2637H121.682C121.703 26.043 121.958 26.639 122.447 27.05C122.89 27.4174 123.464 27.6015 124.168 27.6015C124.948 27.6015 125.659 27.4774 126.299 27.2284L126.573 28.4449C125.826 28.7704 124.943 28.9324 123.925 28.9324C122.701 28.9324 121.739 28.5723 121.04 27.8531C120.342 27.1338 119.992 26.168 119.992 24.9563C119.992 23.7669 120.317 22.7764 120.968 21.9865C121.65 21.1431 122.571 20.7214 123.729 20.7214C124.868 20.7214 125.729 21.1431 126.315 21.9865C126.778 22.6564 127.011 23.4849 127.011 24.4689ZM125.338 24.0143C125.35 23.4948 125.235 23.046 124.997 22.667C124.693 22.1796 124.227 21.9363 123.599 21.9363C123.025 21.9363 122.559 22.1738 122.202 22.6506C121.91 23.0296 121.736 23.4841 121.682 24.0135L125.338 24.0143ZM65.97 13.3023C66.5503 12.8133 66.8408 12.085 66.8408 11.1175C66.8408 10.256 66.5717 9.59431 66.035 9.13152C65.5561 8.72217 64.8458 8.51749 63.9033 8.51749C63.3701 8.51749 62.8762 8.5553 62.4177 8.62928V13.9155C62.7692 13.9583 63.1889 13.9797 63.6795 13.9797C64.6688 13.9797 65.4326 13.7537 65.97 13.3023ZM65.4326 9.69788C65.7651 10.0333 65.9314 10.5141 65.9314 11.1413C65.9314 11.8433 65.7502 12.3776 65.3915 12.7442C65.0326 13.1108 64.5231 13.2942 63.863 13.2942C63.5807 13.2942 63.3865 13.2867 63.2803 13.2703V9.25153C63.4721 9.21372 63.7033 9.19564 63.9749 9.19564C64.6144 9.19564 65.1 9.36332 65.4326 9.69788ZM71.6632 11.962C71.6632 12.558 71.4928 13.0462 71.1521 13.4292C70.7948 13.823 70.3216 14.0194 69.7307 14.0194C69.1611 14.0194 68.7076 13.8312 68.3693 13.4531C68.0319 13.0758 67.8631 12.5998 67.8631 12.026C67.8631 11.426 68.0368 10.9336 68.3858 10.5514C68.7347 10.1692 69.2039 9.97765 69.7948 9.97765C70.3644 9.97765 70.822 10.1659 71.1685 10.5432C71.4977 10.9098 71.6632 11.3833 71.6632 11.962ZM70.7685 11.9899C70.7685 11.6324 70.6912 11.3257 70.5373 11.0701C70.3562 10.761 70.0985 10.6065 69.7636 10.6065C69.4171 10.6065 69.1537 10.761 68.9726 11.0701C68.8179 11.3257 68.7414 11.6373 68.7414 12.0056C68.7414 12.3631 68.8187 12.6697 68.9726 12.9253C69.1594 13.2344 69.4195 13.389 69.7554 13.389C70.0845 13.389 70.343 13.232 70.529 12.9171C70.6887 12.6566 70.7685 12.3475 70.7685 11.9899ZM77.2823 10.0577H78.129L76.9153 13.9318H76.1252L75.6222 12.2492C75.4947 11.8291 75.391 11.4115 75.3103 10.9973H75.2947C75.2198 11.4231 75.1161 11.8398 74.9827 12.2492L74.4486 13.9318H73.6494L72.5079 10.0569H73.3943L73.8329 11.899C73.9391 12.3347 74.0264 12.7498 74.0963 13.1427H74.1119C74.1762 12.8188 74.2823 12.4062 74.4321 11.9073L74.9827 10.0577H75.6856L76.2132 11.8678C76.3408 12.3092 76.4445 12.7341 76.5244 13.1435H76.5482C76.6066 12.7448 76.6947 12.3199 76.8116 11.8678L77.2823 10.0577ZM82.6007 13.9317H81.7382V11.7122C81.7382 11.0283 81.478 10.6864 80.9562 10.6864C80.7003 10.6864 80.4937 10.7801 80.3332 10.9683C80.1743 11.1566 80.0937 11.3785 80.0937 11.6325V13.9308H79.2311V11.1639C79.2311 10.8236 79.2204 10.4546 79.1998 10.0551H79.9578L79.9982 10.6609H80.022C80.1224 10.4726 80.2722 10.3173 80.469 10.1932C80.7027 10.0485 80.9645 9.97534 81.2509 9.97534C81.613 9.97534 81.9143 10.0921 82.1538 10.3263C82.4517 10.6132 82.6007 11.0415 82.6007 11.6103V13.9317ZM84.117 13.9317H84.9788V8.27874H84.117V13.9317ZM90.0574 11.962C90.0574 12.558 89.8871 13.0462 89.5463 13.4292C89.1892 13.823 88.7151 14.0194 88.1249 14.0194C87.5546 14.0194 87.1011 13.8312 86.7636 13.4531C86.4261 13.0758 86.2574 12.5998 86.2574 12.026C86.2574 11.426 86.4311 10.9336 86.7801 10.5514C87.1291 10.1692 87.5981 9.97765 88.1883 9.97765C88.7586 9.97765 89.2155 10.1659 89.5628 10.5432C89.892 10.9098 90.0574 11.3833 90.0574 11.962ZM89.162 11.9899C89.162 11.6324 89.0846 11.3257 88.9307 11.0701C88.7505 10.761 88.492 10.6065 88.1578 10.6065C87.8105 10.6065 87.5471 10.761 87.3669 11.0701C87.2121 11.3257 87.1356 11.6373 87.1356 12.0056C87.1356 12.3631 87.213 12.6697 87.3669 12.9253C87.5538 13.2344 87.8139 13.389 88.1496 13.389C88.4789 13.389 88.7364 13.232 88.9224 12.9171C89.0829 12.6566 89.162 12.3475 89.162 11.9899ZM93.4569 13.9315H94.2314C94.1943 13.703 94.1754 13.3947 94.1754 13.0075V11.5805C94.1754 10.512 93.6668 9.97765 92.6528 9.97765C92.1277 9.97765 91.6824 10.0894 91.3219 10.3122L91.4972 10.8777C91.7885 10.687 92.126 10.5909 92.5087 10.5909C93.0462 10.5909 93.3145 10.8457 93.3145 11.3562V11.4285C92.596 11.4227 92.0379 11.5452 91.6413 11.7951C91.2437 12.045 91.0462 12.4059 91.0462 12.8793C91.0462 13.1925 91.1474 13.4563 91.3499 13.6684C91.5729 13.9019 91.8692 14.0194 92.2355 14.0194C92.726 14.0194 93.1038 13.841 93.3688 13.4852H93.3927L93.4569 13.9315ZM93.3359 12.0022V12.5998C93.3359 12.6582 93.331 12.7091 93.3219 12.7511C93.2848 12.9377 93.1852 13.0898 93.0231 13.2098C92.8618 13.329 92.6848 13.389 92.4956 13.389C92.3268 13.389 92.1853 13.3389 92.0741 13.2377C91.963 13.1366 91.9087 12.9853 91.9087 12.7831C91.9087 12.2464 92.3844 11.9858 93.3359 12.0022ZM99.1333 13.9317H98.3679L98.3276 13.3094H98.3037C98.0592 13.7828 97.6428 14.0196 97.0576 14.0196C96.59 14.0196 96.2008 13.8363 95.8921 13.4697C95.5835 13.1031 95.4295 12.6271 95.4295 12.0426C95.4295 11.4155 95.5967 10.9075 95.9325 10.5195C96.2576 10.1578 96.656 9.977 97.13 9.977C97.651 9.977 98.0156 10.1521 98.223 10.5031H98.2394V8.27874H99.1029V12.8877C99.1029 13.265 99.1127 13.6127 99.1333 13.9317ZM98.2394 12.2975V11.6514C98.2394 11.5396 98.2313 11.4492 98.2156 11.3801C98.1671 11.173 98.0625 10.9987 97.9037 10.8582C97.7432 10.7176 97.5497 10.6469 97.3267 10.6469C97.0049 10.6469 96.753 10.7743 96.5679 11.03C96.3843 11.2856 96.2913 11.612 96.2913 12.0107C96.2913 12.3937 96.3794 12.7044 96.5564 12.9436C96.7432 13.1984 96.995 13.3258 97.3103 13.3258C97.5934 13.3258 97.8197 13.2198 97.9918 13.0069C98.158 12.8104 98.2394 12.5737 98.2394 12.2975ZM106 13.4292C106.34 13.0462 106.511 12.558 106.511 11.962C106.511 11.3833 106.345 10.9098 106.016 10.5432C105.67 10.1659 105.212 9.97765 104.643 9.97765C104.051 9.97765 103.582 10.1692 103.233 10.5514C102.884 10.9336 102.711 11.426 102.711 12.026C102.711 12.5998 102.879 13.0758 103.217 13.4531C103.556 13.8312 104.009 14.0194 104.578 14.0194C105.17 14.0194 105.642 13.823 106 13.4292ZM105.386 11.0701C105.54 11.3257 105.617 11.6324 105.617 11.9899C105.617 12.3475 105.536 12.6566 105.377 12.9171C105.191 13.232 104.932 13.389 104.603 13.389C104.267 13.389 104.007 13.2344 103.82 12.9253C103.666 12.6697 103.589 12.3631 103.589 12.0056C103.589 11.6373 103.665 11.3257 103.82 11.0701C104.002 10.761 104.265 10.6065 104.611 10.6065C104.947 10.6065 105.204 10.761 105.386 11.0701ZM111.147 13.9317H110.286V11.7122C110.286 11.0283 110.026 10.6864 109.503 10.6864C109.247 10.6864 109.04 10.7801 108.881 10.9683C108.721 11.1566 108.641 11.3785 108.641 11.6325V13.9308H107.778V11.1639C107.778 10.8236 107.768 10.4546 107.747 10.0551H108.505L108.545 10.6609H108.569C108.67 10.4726 108.82 10.3173 109.016 10.1932C109.251 10.0485 109.511 9.97534 109.799 9.97534C110.16 9.97534 110.461 10.0921 110.701 10.3263C111 10.6132 111.147 11.0415 111.147 11.6103V13.9317ZM116.003 10.7022H116.952V10.0561H116.002V9.09186L115.157 9.34668V10.0569H114.59V10.7022H115.157V12.656C115.157 13.1452 115.252 13.4937 115.445 13.7008C115.637 13.9079 115.902 14.0116 116.243 14.0116C116.519 14.0116 116.742 13.9795 116.913 13.9154L116.89 13.2618C116.789 13.289 116.661 13.3022 116.506 13.3022C116.172 13.3022 116.003 13.063 116.003 12.5845V10.7022ZM121.52 13.9317H120.656V11.7287C120.656 11.0341 120.396 10.6864 119.875 10.6864C119.475 10.6864 119.201 10.8878 119.052 11.2906C119.027 11.3752 119.012 11.4788 119.012 11.6005V13.9308H118.15V8.27874H119.012V10.614H119.028C119.299 10.1891 119.689 9.977 120.193 9.977C120.55 9.977 120.846 10.0937 121.081 10.328C121.373 10.6198 121.52 11.0538 121.52 11.6276V13.9317ZM126.197 12.2014C126.218 12.0953 126.23 11.9654 126.23 11.8109C126.23 11.3276 126.115 10.9207 125.884 10.5918C125.597 10.1776 125.173 9.97042 124.615 9.97042C124.045 9.97042 123.593 10.1776 123.259 10.5918C122.939 10.9798 122.78 11.4664 122.78 12.0509C122.78 12.6461 122.95 13.1203 123.295 13.4738C123.637 13.8273 124.11 14.004 124.711 14.004C125.212 14.004 125.645 13.9242 126.013 13.7648L125.878 13.1664C125.563 13.2888 125.214 13.3496 124.832 13.3496C124.487 13.3496 124.204 13.2593 123.985 13.0784C123.746 12.8762 123.622 12.5844 123.61 12.2014H126.197ZM125.24 10.9264C125.356 11.1122 125.413 11.3324 125.406 11.5881H123.61C123.639 11.3276 123.723 11.1047 123.866 10.9182C124.042 10.6839 124.271 10.5672 124.553 10.5672C124.861 10.5672 125.09 10.6872 125.24 10.9264Z" fill="white"/>
</svg>
