<svg width="44" height="44" viewBox="0 0 44 44" fill="none" xmlns="http://www.w3.org/2000/svg">
    <rect width="44" height="44" rx="4" fill="#E5E5E9"/>
    <path d="M19 21.75C18.31 21.75 17.75 22.31 17.75 23C17.75 23.69 18.31 24.25 19 24.25C19.69 24.25 20.25 23.69 20.25 23C20.25 22.31 19.69 21.75 19 21.75ZM25 21.75C24.31 21.75 23.75 22.31 23.75 23C23.75 23.69 24.31 24.25 25 24.25C25.69 24.25 26.25 23.69 26.25 23C26.25 22.31 25.69 21.75 25 21.75ZM22 12C16.48 12 12 16.48 12 22C12 27.52 16.48 32 22 32C27.52 32 32 27.52 32 22C32 16.48 27.52 12 22 12ZM22 30C17.59 30 14 26.41 14 22C14 21.71 14.02 21.42 14.05 21.14C16.41 20.09 18.28 18.16 19.26 15.77C21.07 18.33 24.05 20 27.42 20C28.2 20 28.95 19.91 29.67 19.74C29.88 20.45 30 21.21 30 22C30 26.41 26.41 30 22 30Z" fill="#2B2B36"/>
</svg>
