<svg width="66" height="66" viewBox="0 0 66 66" fill="none" xmlns="http://www.w3.org/2000/svg">
    <rect width="66" height="66" rx="4" fill="#2B2B36" fill-opacity="0.1"/>
    <path d="M27 32.5C25.62 32.5 24.5 33.62 24.5 35C24.5 36.38 25.62 37.5 27 37.5C28.38 37.5 29.5 36.38 29.5 35C29.5 33.62 28.38 32.5 27 32.5ZM39 32.5C37.62 32.5 36.5 33.62 36.5 35C36.5 36.38 37.62 37.5 39 37.5C40.38 37.5 41.5 36.38 41.5 35C41.5 33.62 40.38 32.5 39 32.5ZM33 13C21.96 13 13 21.96 13 33C13 44.04 21.96 53 33 53C44.04 53 53 44.04 53 33C53 21.96 44.04 13 33 13ZM33 49C24.18 49 17 41.82 17 33C17 32.42 17.04 31.84 17.1 31.28C21.82 29.18 25.56 25.32 27.52 20.54C31.14 25.66 37.1 29 43.84 29C45.4 29 46.9 28.82 48.34 28.48C48.76 29.9 49 31.42 49 33C49 41.82 41.82 49 33 49Z" fill="#2B2B36"/>
</svg>
