<svg width="109" height="88" viewBox="0 0 109 88" fill="none" xmlns="http://www.w3.org/2000/svg">
<circle cx="54.4141" cy="44" r="44" fill="#3778F8"/>
<circle cx="54.4122" cy="44" r="42.5333" fill="#1D3869"/>
<path d="M92.6314 44C92.6314 65.1083 75.5197 82.22 54.4114 82.22C33.3031 82.22 16.1914 65.1083 16.1914 44C16.1914 22.8917 33.3031 5.78 54.4114 5.78C75.5197 5.78 92.6314 22.8917 92.6314 44Z" stroke="#274881"/>
<rect x="54.1914" y="3.22665" width="0.439999" height="0.44" fill="#3777F7"/>
<rect x="54.1914" y="84.3333" width="0.439999" height="0.440002" fill="#3777F7"/>
<rect width="0.440004" height="0.44" transform="matrix(0.99863 -0.0523354 0.0523365 0.99863 52.0586 3.29404)" fill="#3777F7"/>
<rect width="0.440001" height="0.440058" transform="matrix(0.998629 -0.0523428 0.0523291 0.99863 56.3047 84.2896)" fill="#3777F7"/>
<rect x="49.9297" y="3.47302" width="0.439999" height="0.44" transform="rotate(-6.00001 49.9297 3.47302)" fill="#3777F7"/>
<rect width="0.439999" height="0.439972" transform="matrix(0.994523 -0.104522 0.104535 0.994521 58.4102 84.1354)" fill="#3777F7"/>
<rect width="0.439997" height="0.439999" transform="matrix(0.987688 -0.156435 0.156434 0.987688 47.8164 3.76306)" fill="#3777F7"/>
<rect width="0.439974" height="0.440003" transform="matrix(0.987687 -0.156445 0.156424 0.98769 60.5039 83.8712)" fill="#3777F7"/>
<rect width="0.439984" height="0.439999" transform="matrix(0.978146 -0.207919 0.207904 0.978149 45.7188 4.16336)" fill="#3777F7"/>
<rect width="0.440009" height="0.440006" transform="matrix(0.978148 -0.20791 0.207913 0.978147 62.582 83.4976)" fill="#3777F7"/>
<rect width="0.440008" height="0.44" transform="matrix(0.965927 -0.258814 0.258824 0.965924 43.6484 4.67291)" fill="#3777F7"/>
<rect width="0.439987" height="0.439981" transform="matrix(0.965927 -0.258816 0.258822 0.965925 64.6406 83.016)" fill="#3777F7"/>
<rect width="0.440005" height="0.440001" transform="matrix(0.951058 -0.309013 0.309021 0.951055 41.6055 5.29022)" fill="#3777F7"/>
<rect width="0.440003" height="0.440008" transform="matrix(0.951055 -0.309021 0.309013 0.951058 66.668 82.4272)" fill="#3777F7"/>
<rect width="0.440016" height="0.440003" transform="matrix(0.933585 -0.358355 0.358381 0.933576 39.5938 6.01364)" fill="#3777F7"/>
<rect width="0.440022" height="0.440039" transform="matrix(0.933574 -0.358385 0.358351 0.933587 68.6602 81.7332)" fill="#3777F7"/>
<rect width="0.440003" height="0.440003" transform="matrix(0.913546 -0.406736 0.406737 0.913545 37.6289 6.84119)" fill="#3777F7"/>
<rect x="70.6172" y="80.9359" width="0.440018" height="0.440018" transform="rotate(-24 70.6172 80.9359)" fill="#3777F7"/>
<rect width="0.439992" height="0.439997" transform="matrix(0.891003 -0.453997 0.453983 0.89101 35.707 7.77057)" fill="#3777F7"/>
<rect width="0.440015" height="0.440011" transform="matrix(0.891009 -0.453986 0.453995 0.891004 72.5273 80.0371)" fill="#3777F7"/>
<rect width="0.439996" height="0.439999" transform="matrix(0.866023 -0.500005 0.499995 0.866028 33.8359 8.79922)" fill="#3777F7"/>
<rect width="0.440013" height="0.440004" transform="matrix(0.866034 -0.499986 0.500014 0.866017 74.3906 79.0397)" fill="#3777F7"/>
<rect width="0.439998" height="0.439997" transform="matrix(0.838672 -0.544637 0.544641 0.838669 32.0195 9.92441)" fill="#3777F7"/>
<rect width="0.439975" height="0.439977" transform="matrix(0.838667 -0.544644 0.544634 0.838674 76.1953 77.9462)" fill="#3777F7"/>
<rect width="0.440003" height="0.440001" transform="matrix(0.80902 -0.58778 0.58779 0.809013 30.2695 11.1429)" fill="#3777F7"/>
<rect width="0.440009" height="0.439997" transform="matrix(0.809041 -0.587752 0.587819 0.808993 77.9414 76.7596)" fill="#3777F7"/>
<rect width="0.439998" height="0.439999" transform="matrix(0.777143 -0.629324 0.629316 0.777149 28.582 12.4516)" fill="#3777F7"/>
<rect x="79.625" y="75.4834" width="0.439982" height="0.439982" transform="rotate(-39 79.625 75.4834)" fill="#3777F7"/>
<rect width="0.440004" height="0.440004" transform="matrix(0.743148 -0.669127 0.669134 0.743141 26.9648 13.8466)" fill="#3777F7"/>
<rect width="0.440007" height="0.440006" transform="matrix(0.743149 -0.669126 0.669135 0.743141 81.2383 74.1207)" fill="#3777F7"/>
<rect width="0.439999" height="0.439999" transform="matrix(0.707103 -0.707111 0.707103 0.707111 25.4258 15.3245)" fill="#3777F7"/>
<rect width="0.439989" height="0.439989" transform="matrix(0.707089 -0.707124 0.707089 0.707124 82.7773 72.6755)" fill="#3777F7"/>
<rect width="0.439999" height="0.439999" transform="matrix(0.669125 -0.74315 0.74314 0.669136 23.9648 16.8808)" fill="#3777F7"/>
<rect width="0.439995" height="0.439997" transform="matrix(0.669144 -0.743132 0.743157 0.669117 84.2383 71.1517)" fill="#3777F7"/>
<rect width="0.439998" height="0.439997" transform="matrix(0.629316 -0.77715 0.777142 0.629325 22.5859 18.5114)" fill="#3777F7"/>
<rect width="0.440011" height="0.440003" transform="matrix(0.629288 -0.777172 0.777119 0.629353 85.6211 69.5535)" fill="#3777F7"/>
<rect width="0.440005" height="0.440005" transform="matrix(0.587786 -0.809016 0.809018 0.587784 21.2969 20.212)" fill="#3777F7"/>
<rect width="0.439999" height="0.440013" transform="matrix(0.587823 -0.808989 0.809045 0.587747 86.9141 67.8853)" fill="#3777F7"/>
<rect width="0.43999" height="0.439994" transform="matrix(0.544647 -0.838665 0.838676 0.544631 20.0977 21.9778)" fill="#3777F7"/>
<rect width="0.440006" height="0.440013" transform="matrix(0.544653 -0.838661 0.83868 0.544625 88.1211 66.1516)" fill="#3777F7"/>
<rect width="0.439997" height="0.440002" transform="matrix(0.500008 -0.866021 0.86603 0.499992 18.9922 23.8039)" fill="#3777F7"/>
<rect width="0.439992" height="0.439994" transform="matrix(0.500002 -0.866024 0.866027 0.499998 89.2305 64.3572)" fill="#3777F7"/>
<rect width="0.439991" height="0.439995" transform="matrix(0.453995 -0.891004 0.891009 0.453986 17.9844 25.6853)" fill="#3777F7"/>
<rect width="0.440003" height="0.439975" transform="matrix(0.453951 -0.891027 0.890986 0.45403 90.25 62.507)" fill="#3777F7"/>
<rect x="17.0742" y="27.617" width="0.440001" height="0.440001" transform="rotate(-66 17.0742 27.617)" fill="#3777F7"/>
<rect width="0.440016" height="0.439985" transform="matrix(0.406701 -0.913561 0.91353 0.406772 91.168 60.606)" fill="#3777F7"/>
<rect width="0.440004" height="0.439999" transform="matrix(0.358363 -0.933582 0.933578 0.358373 16.2695 29.5935)" fill="#3777F7"/>
<rect width="0.440012" height="0.439993" transform="matrix(0.358349 -0.933588 0.933573 0.358387 91.9883 58.6595)" fill="#3777F7"/>
<rect width="0.439985" height="0.439998" transform="matrix(0.309028 -0.951053 0.95106 0.309006 15.5664 31.6095)" fill="#3777F7"/>
<rect width="0.439986" height="0.440001" transform="matrix(0.309029 -0.951053 0.95106 0.309005 92.7031 56.6729)" fill="#3777F7"/>
<rect width="0.439997" height="0.440006" transform="matrix(0.258825 -0.965924 0.965927 0.258813 14.9727 33.6595)" fill="#3777F7"/>
<rect width="0.439987" height="0.440027" transform="matrix(0.258845 -0.965919 0.965933 0.258793 93.3164 54.6515)" fill="#3777F7"/>
<rect width="0.439985" height="0.440002" transform="matrix(0.20792 -0.978146 0.978149 0.207903 14.4844 35.7379)" fill="#3777F7"/>
<rect width="0.440009" height="0.440006" transform="matrix(0.20791 -0.978148 0.978147 0.207913 93.8203 52.601)" fill="#3777F7"/>
<rect width="0.44001" height="0.439997" transform="matrix(0.15643 -0.987689 0.987688 0.156439 14.1094 37.8389)" fill="#3777F7"/>
<rect width="0.44" height="0.43999" transform="matrix(0.156431 -0.987689 0.987688 0.156438 94.2148 50.5268)" fill="#3777F7"/>
<rect x="13.8398" y="39.9568" width="0.440003" height="0.440001" transform="rotate(-84 13.8398 39.9568)" fill="#3777F7"/>
<rect width="0.440003" height="0.440027" transform="matrix(0.104534 -0.994521 0.994522 0.104523 94.5039 48.4348)" fill="#3777F7"/>
<rect x="13.6836" y="42.0858" width="0.440004" height="0.440003" transform="rotate(-87 13.6836 42.0858)" fill="#3777F7"/>
<rect width="0.440008" height="0.44" transform="matrix(0.0523351 -0.99863 0.998629 0.0523368 94.6797 46.3306)" fill="#3777F7"/>
<rect x="13.6406" y="44.22" width="0.440002" height="0.439993" transform="rotate(-90 13.6406 44.22)" fill="#3777F7"/>
<rect x="94.7461" y="44.22" width="0.440002" height="0.440002" transform="rotate(-90 94.7461 44.22)" fill="#3777F7"/>
<rect width="0.439979" height="0.439997" transform="matrix(-0.0523381 -0.998629 0.99863 -0.0523338 13.707 46.3536)" fill="#3777F7"/>
<rect x="94.7031" y="42.1088" width="0.440004" height="0.44" transform="rotate(-93 94.7031 42.1088)" fill="#3777F7"/>
<rect x="13.8867" y="48.4808" width="0.439999" height="0.44" transform="rotate(-96 13.8867 48.4808)" fill="#3777F7"/>
<rect width="0.439999" height="0.439972" transform="matrix(-0.104522 -0.994523 0.994521 -0.104535 94.5508 40.0028)" fill="#3777F7"/>
<rect x="14.1758" y="50.5956" width="0.439997" height="0.439997" transform="rotate(-99 14.1758 50.5956)" fill="#3777F7"/>
<rect width="0.44001" height="0.440004" transform="matrix(-0.156432 -0.987689 0.987688 -0.156437 94.2852 37.9078)" fill="#3777F7"/>
<rect width="0.439985" height="0.440002" transform="matrix(-0.20792 -0.978146 0.978149 -0.207903 14.5781 52.6924)" fill="#3777F7"/>
<rect width="0.439997" height="0.440006" transform="matrix(-0.207916 -0.978147 0.978149 -0.207907 93.9102 35.8294)" fill="#3777F7"/>
<rect width="0.439968" height="0.439999" transform="matrix(-0.258839 -0.96592 0.965931 -0.258799 15.0859 54.7654)" fill="#3777F7"/>
<rect width="0.440004" height="0.439982" transform="matrix(-0.258805 -0.965929 0.965922 -0.258833 93.4297 33.7735)" fill="#3777F7"/>
<rect width="0.439983" height="0.439998" transform="matrix(-0.309029 -0.951053 0.95106 -0.309005 15.7031 56.8089)" fill="#3777F7"/>
<rect width="0.439995" height="0.440002" transform="matrix(-0.309023 -0.951055 0.951058 -0.309011 92.8398 31.7455)" fill="#3777F7"/>
<rect width="0.439996" height="0.439999" transform="matrix(-0.358371 -0.933579 0.933582 -0.358365 16.4258 58.8173)" fill="#3777F7"/>
<rect width="0.440004" height="0.439996" transform="matrix(-0.358361 -0.933583 0.933578 -0.358375 92.1445 29.7512)" fill="#3777F7"/>
<rect width="0.440002" height="0.440006" transform="matrix(-0.406741 -0.913543 0.913547 -0.406732 17.2539 60.785)" fill="#3777F7"/>
<rect width="0.440012" height="0.440017" transform="matrix(-0.406742 -0.913543 0.913548 -0.406731 91.3477 27.796)" fill="#3777F7"/>
<rect width="0.439994" height="0.439995" transform="matrix(-0.453993 -0.891005 0.891008 -0.453988 18.1836 62.7067)" fill="#3777F7"/>
<rect width="0.439994" height="0.439972" transform="matrix(-0.45396 -0.891022 0.890991 -0.454021 90.4492 25.8849)" fill="#3777F7"/>
<rect width="0.439995" height="0.440001" transform="matrix(-0.500011 -0.866019 0.866032 -0.499989 19.2109 64.5772)" fill="#3777F7"/>
<rect x="89.4531" y="24.0239" width="0.439995" height="0.439995" transform="rotate(-120 89.4531 24.0239)" fill="#3777F7"/>
<rect width="0.439995" height="0.440003" transform="matrix(-0.544655 -0.83866 0.838681 -0.544623 20.3359 66.3912)" fill="#3777F7"/>
<rect width="0.440004" height="0.440015" transform="matrix(-0.544663 -0.838655 0.838686 -0.544615 88.3594 22.2174)" fill="#3777F7"/>
<rect width="0.440005" height="0.440005" transform="matrix(-0.587784 -0.809018 0.809016 -0.587786 21.5547 68.1439)" fill="#3777F7"/>
<rect width="0.440012" height="0.440017" transform="matrix(-0.587799 -0.809006 0.809027 -0.587771 87.1719 20.4706)" fill="#3777F7"/>
<rect width="0.440004" height="0.440001" transform="matrix(-0.629309 -0.777155 0.777136 -0.629332 22.8633 69.8304)" fill="#3777F7"/>
<rect width="0.440008" height="0.440012" transform="matrix(-0.629338 -0.777132 0.77716 -0.629303 85.8945 18.7884)" fill="#3777F7"/>
<rect width="0.439984" height="0.439988" transform="matrix(-0.669165 -0.743114 0.743175 -0.669096 24.2578 71.4461)" fill="#3777F7"/>
<rect width="0.440005" height="0.440006" transform="matrix(-0.669137 -0.743139 0.743151 -0.669124 84.5312 17.1751)" fill="#3777F7"/>
<rect width="0.440009" height="0.440009" transform="matrix(-0.707105 -0.707109 0.707105 -0.707109 25.7344 72.9867)" fill="#3777F7"/>
<rect width="0.43999" height="0.43999" transform="matrix(-0.707088 -0.707126 0.707088 -0.707126 83.0859 15.6356)" fill="#3777F7"/>
<rect width="0.440005" height="0.440005" transform="matrix(-0.743147 -0.669128 0.669133 -0.743143 27.293 74.4477)" fill="#3777F7"/>
<rect width="0.440003" height="0.440002" transform="matrix(-0.743147 -0.669128 0.669133 -0.743143 81.5625 14.1736)" fill="#3777F7"/>
<rect width="0.43999" height="0.439987" transform="matrix(-0.777154 -0.62931 0.629331 -0.777137 28.9219 75.8253)" fill="#3777F7"/>
<rect width="0.440016" height="0.440011" transform="matrix(-0.777163 -0.629299 0.629342 -0.777128 79.9648 12.7936)" fill="#3777F7"/>
<rect width="0.439996" height="0.439988" transform="matrix(-0.809033 -0.587762 0.587808 -0.809 30.625 77.1157)" fill="#3777F7"/>
<rect width="0.439989" height="0.439994" transform="matrix(-0.809007 -0.587799 0.587771 -0.809027 78.2969 11.4989)" fill="#3777F7"/>
<rect width="0.44001" height="0.440014" transform="matrix(-0.838664 -0.544649 0.544629 -0.838677 32.3906 78.3152)" fill="#3777F7"/>
<rect width="0.440011" height="0.440003" transform="matrix(-0.838683 -0.54462 0.544658 -0.838658 76.5625 10.2935)" fill="#3777F7"/>
<rect width="0.439998" height="0.439999" transform="matrix(-0.866024 -0.500002 0.499998 -0.866027 34.2148 79.4208)" fill="#3777F7"/>
<rect width="0.440009" height="0.440003" transform="matrix(-0.866031 -0.49999 0.500009 -0.86602 74.7695 9.18045)" fill="#3777F7"/>
<rect width="0.439997" height="0.440006" transform="matrix(-0.890999 -0.454004 0.453977 -0.891014 36.0977 80.4292)" fill="#3777F7"/>
<rect width="0.439994" height="0.439998" transform="matrix(-0.891004 -0.453995 0.453986 -0.891009 72.918 8.16266)" fill="#3777F7"/>
<rect width="0.440004" height="0.44002" transform="matrix(-0.913538 -0.406754 0.406719 -0.913553 38.0273 81.3378)" fill="#3777F7"/>
<rect width="0.439981" height="0.439996" transform="matrix(-0.913538 -0.406754 0.406719 -0.913553 71.0195 7.24316)" fill="#3777F7"/>
<rect x="40.0039" y="82.144" width="0.439995" height="0.439995" transform="rotate(-159 40.0039 82.144)" fill="#3777F7"/>
<rect width="0.439996" height="0.44" transform="matrix(-0.933579 -0.358372 0.358364 -0.933582 69.0703 6.42444)" fill="#3777F7"/>
<rect width="0.440025" height="0.440005" transform="matrix(-0.951061 -0.309002 0.309032 -0.951051 42.0234 82.8457)" fill="#3777F7"/>
<rect width="0.439991" height="0.439997" transform="matrix(-0.951055 -0.309021 0.309013 -0.951058 67.0859 5.7088)" fill="#3777F7"/>
<rect width="0.439984" height="0.439981" transform="matrix(-0.965926 -0.258817 0.258821 -0.965925 44.0703 83.4409)" fill="#3777F7"/>
<rect width="0.439959" height="0.439997" transform="matrix(-0.965919 -0.258843 0.258795 -0.965932 65.0625 5.0979)" fill="#3777F7"/>
<rect width="0.440009" height="0.440006" transform="matrix(-0.978148 -0.20791 0.207913 -0.978147 46.1484 83.928)" fill="#3777F7"/>
<rect width="0.439984" height="0.439998" transform="matrix(-0.978146 -0.207918 0.207905 -0.978149 63.0117 4.59366)" fill="#3777F7"/>
<rect width="0.439993" height="0.43999" transform="matrix(-0.987688 -0.156433 0.156436 -0.987688 48.25 84.3057)" fill="#3777F7"/>
<rect width="0.439974" height="0.439999" transform="matrix(-0.987687 -0.156443 0.156425 -0.98769 60.9375 4.1976)" fill="#3777F7"/>
<rect width="0.440003" height="0.440027" transform="matrix(-0.994521 -0.104534 0.104523 -0.994522 50.3672 84.5729)" fill="#3777F7"/>
<rect width="0.440003" height="0.44" transform="matrix(-0.994522 -0.104528 0.104529 -0.994522 58.8477 3.91046)" fill="#3777F7"/>
<rect x="52.4961" y="84.7289" width="0.440004" height="0.44" transform="rotate(-177 52.4961 84.7289)" fill="#3777F7"/>
<rect width="0.440008" height="0.44" transform="matrix(-0.99863 -0.052335 0.0523369 -0.998629 56.7422 3.73328)" fill="#3777F7"/>
<path d="M35.9527 18.8466C36.1301 19.3911 36.3218 19.9851 36.3786 20.1666C36.4354 20.3481 36.5739 20.7854 36.6864 21.1384L36.8909 21.7804L36.9927 21.5051C37.0486 21.3538 37.1121 21.1639 37.1336 21.0832C37.1551 21.0026 37.2189 20.8326 37.2754 20.7055C37.3319 20.5784 37.3781 20.4071 37.3781 20.3248C37.3781 20.2425 37.4083 20.1566 37.4451 20.1339C37.4819 20.111 37.5343 19.9608 37.5615 19.7999C37.5887 19.639 37.6382 19.4905 37.6715 19.4699C37.7048 19.4493 37.7543 19.3008 37.7815 19.1399C37.8087 18.979 37.861 18.8287 37.8978 18.8059C37.9346 18.7832 37.965 18.6923 37.9652 18.6039C37.9655 18.5155 38.015 18.3487 38.0752 18.2332C38.1355 18.1176 38.1848 17.9774 38.1848 17.9215C38.1848 17.8409 38.356 17.8199 39.0129 17.8199H39.8411L39.9743 18.2416C40.0476 18.4735 40.149 18.7787 40.1998 18.9199C40.2505 19.0611 40.3508 19.3746 40.4226 19.6166C40.731 20.6558 40.7748 20.7956 40.8258 20.9023C40.8553 20.9641 40.9044 21.1291 40.9349 21.269C40.9965 21.5518 41.1926 21.8869 41.1898 21.7046C41.1882 21.5918 42.0429 18.8935 42.1424 18.6975C42.1738 18.6357 42.2244 18.4718 42.2548 18.3332C42.3652 17.8303 42.3864 17.8199 43.2991 17.8199C43.7532 17.8199 44.1248 17.8402 44.1248 17.8651C44.1248 17.9344 43.8917 18.6349 43.7822 18.8943C43.7286 19.0214 43.6848 19.1927 43.6848 19.275C43.6848 19.3573 43.6555 19.4427 43.6197 19.4648C43.584 19.4868 43.5323 19.6248 43.5048 19.7714C43.4773 19.918 43.4258 20.0916 43.3903 20.1572C43.3549 20.2229 43.2564 20.5241 43.1715 20.8266C43.0865 21.1291 42.9881 21.4302 42.9526 21.4959C42.9171 21.5615 42.8657 21.7351 42.8382 21.8817C42.8107 22.0283 42.7589 22.1663 42.7232 22.1884C42.6874 22.2104 42.6581 22.2915 42.6581 22.3684C42.6581 22.4453 42.6117 22.6166 42.5549 22.7491C42.4982 22.8815 42.3753 23.2457 42.282 23.5582L42.1122 24.1266H41.1468H40.1813L40.0183 23.5949C39.9287 23.3024 39.8302 23.0126 39.7994 22.9508C39.7686 22.889 39.7189 22.724 39.689 22.5841C39.659 22.4443 39.6097 22.2969 39.5792 22.2566C39.5488 22.2162 39.5008 22.0554 39.4727 21.8992C39.4445 21.743 39.3919 21.5615 39.3559 21.4959C39.3198 21.4302 39.2328 21.172 39.1624 20.9218C39.0211 20.4197 38.8992 20.4034 38.8108 20.8749C38.7836 21.0196 38.7326 21.1916 38.6973 21.2572C38.6409 21.3623 38.4878 21.8186 38.0669 23.1366C38.0025 23.3382 37.8992 23.6435 37.8373 23.8149L37.7248 24.1266H36.7992C35.7751 24.1266 35.7667 24.1228 35.6548 23.6132C35.6244 23.4747 35.5738 23.3108 35.5424 23.249C35.5111 23.1872 35.2812 22.4931 35.0317 21.7066C34.7822 20.9201 34.5345 20.1611 34.4813 20.0199C34.4281 19.8787 34.2798 19.4167 34.1517 18.9932C34.0236 18.5697 33.8908 18.1522 33.8567 18.0656C33.8226 17.9788 33.8154 17.8871 33.8407 17.8618C33.8661 17.8364 34.2791 17.8248 34.7585 17.8361L35.6301 17.8566L35.9527 18.8466Z" fill="#F3F8FE"/>
<path d="M50.3948 18.5166V19.1766L48.8365 19.1964L47.2781 19.2162V19.7647V20.3132H48.6743H50.0705L50.0493 20.9549L50.0281 21.5966L48.6531 21.6165L47.2781 21.6365V22.1848V22.7332H48.8915H50.5048V23.4299V24.1266H47.9748H45.4448V20.9723V17.8179L47.9198 17.8373L50.3948 17.8566V18.5166Z" fill="#F3F8FE"/>
<path d="M59.9828 17.9047C60.53 18.0933 60.9522 18.3436 61.2371 18.6481L61.4459 18.8714L60.9206 19.3724C60.6317 19.6478 60.3774 19.8732 60.3556 19.8732C60.3338 19.8732 60.1956 19.7824 60.0487 19.6716C59.603 19.3353 59.4414 19.2688 58.9788 19.2321C58.3929 19.1856 57.9677 19.3094 57.6129 19.63C57.1944 20.0081 57.0681 20.3195 57.0681 20.9732C57.0681 21.953 57.4975 22.5144 58.3881 22.6993C58.7706 22.7788 59.4813 22.7063 59.6508 22.5706C59.7089 22.5242 59.7474 22.2135 59.7608 21.6812L59.7815 20.8632H60.5515H61.3215V22.1778V23.4924L60.9181 23.692C59.5769 24.3556 58.4685 24.4393 57.1781 23.9745C56.6116 23.7704 56.0146 23.2482 55.622 22.6133C54.9223 21.4819 55.1298 19.7185 56.0733 18.7774C56.8629 17.9898 57.4623 17.7553 58.6995 17.7501C59.3599 17.7473 59.6156 17.7781 59.9828 17.9047Z" fill="#F3F8FE"/>
<path fill-rule="evenodd" clip-rule="evenodd" d="M67.5548 17.8676C67.6355 17.9102 67.8335 18.0064 67.9948 18.0814C68.3016 18.2241 68.807 18.5819 68.9702 18.7721C69.5324 19.4268 69.7915 20.1339 69.7915 21.0139C69.7915 21.6124 69.6261 22.3627 69.4798 22.4276C69.4495 22.4411 69.4248 22.4859 69.4248 22.5271C69.4248 22.6363 68.9992 23.1723 68.6961 23.4449C68.1737 23.9148 67.1562 24.2732 66.3448 24.2732C65.7798 24.2732 64.6201 23.9712 64.4211 23.7722C64.374 23.7251 64.3072 23.6866 64.2725 23.6866C64.1523 23.6866 63.5526 23.0701 63.3139 22.701C62.6864 21.7314 62.6572 20.4933 63.2348 19.3599C63.5462 18.7488 64.3133 18.1542 65.1715 17.8588C65.5518 17.7279 67.3021 17.7344 67.5548 17.8676ZM64.6885 20.5866C64.7712 20.035 65.2611 19.4483 65.7869 19.2712C65.8719 19.2426 66.1571 19.2294 66.4206 19.2419C67.0035 19.2696 67.4182 19.5011 67.7174 19.9655C67.9995 20.4035 68.0471 21.2994 67.8151 21.8085C67.6658 22.1362 67.4288 22.4399 67.3223 22.4399C67.2952 22.4399 67.2209 22.4855 67.1572 22.5413C67.0935 22.5971 66.86 22.6724 66.6381 22.7087C65.3582 22.9176 64.4819 21.9638 64.6885 20.5866Z" fill="#F3F8FE"/>
<path d="M76.3915 18.5532V19.2866H75.4381H74.4848V21.7066V24.1266H73.5681H72.6515V21.7088V19.291L71.7165 19.2704L70.7815 19.2499L70.76 18.6327C70.7482 18.2933 70.7554 17.9715 70.776 17.9177C70.8064 17.8385 71.3458 17.8199 73.6025 17.8199H76.3915V18.5532Z" fill="#F3F8FE"/>
<path fill-rule="evenodd" clip-rule="evenodd" d="M30.9981 28.9518C31.7856 29.2053 32.2749 29.5988 32.548 30.1982C32.7556 30.6539 32.7495 31.619 32.5363 32.0873C32.3887 32.4114 31.7946 33.0732 31.6514 33.0732C31.5467 33.0732 31.5736 33.2715 31.6948 33.3927C31.7553 33.4532 31.8048 33.5251 31.8048 33.5525C31.8048 33.5797 31.9038 33.7271 32.0248 33.8799C32.1458 34.0327 32.2448 34.1914 32.2448 34.2327C32.2448 34.2739 32.2715 34.3187 32.304 34.3321C32.3708 34.3596 32.8315 35.0189 32.8315 35.0869C32.8315 35.1111 32.3978 35.1216 31.8676 35.1104C30.9914 35.0917 30.8965 35.0766 30.8226 34.9432C30.778 34.8626 30.725 34.7801 30.7048 34.7599C30.5944 34.6495 30.3381 34.2416 30.3381 34.1762C30.3381 34.1342 30.3134 34.0998 30.2831 34.0998C30.2528 34.0997 30.1343 33.9512 30.0197 33.7698L29.8113 33.4399H29.3414H28.8715V34.2855V35.1311L27.9731 35.1105L27.0748 35.0899L27.0557 32.0466C27.0451 30.3728 27.0523 28.962 27.0716 28.9116C27.0985 28.8418 27.522 28.8202 28.8509 28.821C30.3164 28.8219 30.6592 28.8428 30.9981 28.9518ZM28.8715 32.0654V31.176V30.2866H29.6362C30.2182 30.2866 30.4273 30.3128 30.511 30.3966C30.5715 30.4571 30.651 30.5066 30.6879 30.5066C30.805 30.5066 30.9461 31.0671 30.8959 31.3341C30.8696 31.4741 30.7625 31.6811 30.6577 31.7942C30.4763 31.99 30.4298 32.0012 29.6694 32.0326L28.8715 32.0654Z" fill="#F3F8FE"/>
<path d="M39.3426 29.4982L39.3215 30.1766L37.7631 30.1964L36.2048 30.2162V30.7264V31.2367L37.5798 31.2566L38.9548 31.2766V31.9366V32.5966L37.5798 32.6165L36.2048 32.6365V33.1848V33.7332H37.8181H39.4315V34.4309V35.1285L36.9198 35.1092L34.4081 35.0899L34.389 31.9549L34.3699 28.8199H36.8668H39.3636L39.3426 29.4982Z" fill="#F3F8FE"/>
<path d="M42.2915 28.894C42.2915 28.9348 42.3547 29.108 42.432 29.279C42.7378 29.9552 42.8781 30.3097 42.8781 30.4059C42.8781 30.4612 42.9034 30.5066 42.9342 30.5066C42.9651 30.5066 43.0513 30.6799 43.1256 30.8916C43.2001 31.1033 43.3251 31.4251 43.4036 31.6066C43.482 31.7881 43.5726 32.0026 43.605 32.0832C43.7758 32.5089 43.9762 32.8741 43.9771 32.7616C43.9777 32.691 44.0075 32.6332 44.0435 32.6332C44.0795 32.6332 44.1314 32.5435 44.1589 32.4339C44.1864 32.3244 44.2843 32.0686 44.3765 31.8656C44.4686 31.6627 44.7008 31.1171 44.8926 30.6532C45.2601 29.7639 45.3973 29.4475 45.5839 29.0582L45.6982 28.8199H46.5614C47.0363 28.8199 47.4248 28.8415 47.4248 28.8679C47.4248 28.9193 47.0983 29.6536 46.9819 29.8639C46.9431 29.9339 46.9115 30.0246 46.9115 30.0654C46.9115 30.1062 46.8171 30.3458 46.7017 30.598C46.5864 30.8502 46.4179 31.2381 46.3274 31.4599C46.2369 31.6817 46.1333 31.8946 46.0972 31.9329C46.061 31.9712 46.0315 32.0432 46.0315 32.0928C46.0315 32.1424 45.9303 32.408 45.8068 32.6831C45.4813 33.4076 45.302 33.8225 45.0834 34.3566C45.0504 34.4372 44.9615 34.6431 44.8858 34.8141L44.7481 35.1249L43.8954 35.1258L43.8288 35.1258C43.3238 35.1265 43.1191 35.1268 42.9958 35.0267C42.9118 34.9585 42.8656 34.8436 42.7878 34.6505L42.7728 34.6132C42.6311 34.2621 42.556 34.0887 42.2587 33.4261C42.1557 33.1967 42.0715 32.9858 42.0715 32.9574C42.0715 32.9291 42.001 32.7539 41.9148 32.568C41.8287 32.382 41.7315 32.1639 41.6989 32.0832C41.6033 31.8471 41.3359 31.2216 41.2285 30.9832C41.0343 30.552 40.3115 28.8644 40.3115 28.8423C40.3115 28.83 40.757 28.8199 41.3015 28.8199C41.9197 28.8199 42.2915 28.8478 42.2915 28.894Z" fill="#F3F8FE"/>
<path d="M50.2848 31.9732V35.1266H49.4048H48.5248V31.9732V28.8199H49.4048H50.2848V31.9732Z" fill="#F3F8FE"/>
<path d="M57.2359 29.4982L57.2148 30.1766L55.6565 30.1964L54.0981 30.2162V30.7263V31.2366L55.4365 31.2565L56.7748 31.2766V31.9366V32.5966L55.4365 32.6166L54.0981 32.6365V33.1849V33.7332H55.7115H57.3248V34.4299V35.1266H54.7948H52.2648V31.9732V28.8199H54.7609H57.257L57.2359 29.4982Z" fill="#F3F8FE"/>
<path d="M60.3967 29.1866C60.4528 29.3681 60.5392 29.6321 60.5889 29.7732C60.6792 30.03 60.7865 30.3771 61.0308 31.2032C61.1023 31.4452 61.2052 31.7472 61.2595 31.8743C61.3138 32.0014 61.3581 32.1544 61.3581 32.2143C61.3581 32.2741 61.4011 32.406 61.4536 32.5072L61.5491 32.6912L61.6328 32.4973C61.6789 32.3905 61.7395 32.2042 61.7675 32.0832C61.7955 31.9622 61.8438 31.8302 61.875 31.7899C61.9061 31.7496 61.9548 31.5925 61.9832 31.4408C62.0115 31.289 62.064 31.1468 62.0997 31.1248C62.1355 31.1027 62.1648 31.0173 62.1648 30.935C62.1648 30.8527 62.2092 30.6814 62.2635 30.5543C62.3178 30.4272 62.4714 29.9849 62.6049 29.5716L62.8477 28.8199H63.6681H64.4885L64.729 29.5716C64.8613 29.9849 64.9943 30.3738 65.0245 30.4356C65.0547 30.4975 65.1021 30.6625 65.1297 30.8023C65.1574 30.9422 65.2078 31.1226 65.2416 31.2032C65.3622 31.4902 65.6115 32.3154 65.6115 32.4278C65.6115 32.4905 65.661 32.583 65.7215 32.6332C65.8116 32.708 65.8315 32.7029 65.8315 32.6046C65.8315 32.5386 65.862 32.4272 65.8994 32.3572C65.9368 32.2872 66.121 31.7349 66.3088 31.1299C66.4966 30.5249 66.697 29.9215 66.7541 29.7891C66.8113 29.6566 66.8581 29.501 66.8581 29.4432C66.8581 29.3854 66.9137 29.2216 66.9817 29.0791L67.1053 28.8199H67.935C68.3914 28.8199 68.7649 28.8446 68.7651 28.8749C68.7652 28.9052 68.6695 29.2104 68.5525 29.5532C68.4355 29.8961 68.1357 30.8201 67.8865 31.6066C67.6371 32.3931 67.4051 33.0902 67.3707 33.1559C67.3363 33.2215 67.2857 33.3951 67.2582 33.5417C67.2307 33.6883 67.1789 33.8263 67.1432 33.8484C67.1074 33.8704 67.0781 33.9559 67.0781 34.0382C67.0781 34.1204 67.0335 34.2917 66.979 34.4188C66.9246 34.5459 66.8495 34.7489 66.8124 34.8699L66.7448 35.0899L65.7768 35.1104L64.8087 35.1308L64.7631 34.927C64.7381 34.8149 64.6713 34.6192 64.6146 34.4922C64.5579 34.3651 64.5115 34.1938 64.5115 34.1115C64.5115 34.0292 64.4813 33.9433 64.4445 33.9205C64.4077 33.8977 64.3541 33.7403 64.3254 33.5707C64.2968 33.401 64.2467 33.2115 64.2142 33.1494C64.1818 33.0873 64.0832 32.7891 63.9953 32.4866C63.9073 32.1841 63.806 31.8793 63.7701 31.8093C63.7342 31.7392 63.7048 31.6081 63.7048 31.5179C63.7048 31.3575 63.7026 31.3572 63.6042 31.4985C63.5488 31.5781 63.479 31.7587 63.449 31.8999C63.4191 32.0411 63.3691 32.1896 63.3381 32.2299C63.3071 32.2702 63.2576 32.4187 63.2281 32.5599C63.1986 32.7011 63.1491 32.8496 63.1181 32.8899C63.0871 32.9302 63.0372 33.0776 63.0072 33.2175C62.9773 33.3573 62.9258 33.5223 62.8927 33.5841C62.8596 33.646 62.7784 33.8781 62.7122 34.0999C62.6459 34.3217 62.5406 34.6435 62.4783 34.8149L62.3648 35.1266H61.4276H60.4902L60.3767 34.8149C60.3142 34.6435 60.1604 34.1732 60.0349 33.7699C59.9093 33.3666 59.7804 32.986 59.7483 32.9241C59.7163 32.8623 59.6652 32.6984 59.6348 32.5599C59.6044 32.4214 59.5547 32.2575 59.5244 32.1957C59.4722 32.0891 58.8965 30.3034 58.6607 29.5166C58.6002 29.3149 58.5225 29.0926 58.4878 29.0226C58.4532 28.9526 58.4248 28.8773 58.4248 28.8554C58.4248 28.8335 58.8455 28.8247 59.3598 28.836L60.2948 28.8566L60.3967 29.1866Z" fill="#F3F8FE"/>
<path d="M75.0559 29.4982L75.0348 30.1766L73.4765 30.1964L71.9181 30.2162V30.7264V31.2367L73.2931 31.2566L74.6681 31.2766V31.9366V32.5966L73.2931 32.6165L71.9181 32.6365V33.1848V33.7332H73.5315H75.1448V34.4309V35.1285L72.6331 35.1092L70.1215 35.0899L70.1023 31.9549L70.0833 28.8199H72.5801H75.077L75.0559 29.4982Z" fill="#F3F8FE"/>
<path fill-rule="evenodd" clip-rule="evenodd" d="M80.9317 28.9404C82.1634 29.3025 82.9341 30.0113 83.2275 31.0518C83.3355 31.4345 83.3361 32.5104 83.2285 32.8899C83.0171 33.6361 82.421 34.344 81.7207 34.6805C80.9075 35.0711 80.518 35.1266 78.5855 35.1266H76.8315V31.9732V28.8199H78.6767C80.173 28.8199 80.5994 28.8427 80.9317 28.9404ZM78.6648 33.6599V31.9732V30.2866H79.5022C80.3931 30.2866 80.5787 30.3396 81.0255 30.7214C81.3241 30.9768 81.4599 31.2844 81.5052 31.8081C81.5706 32.5634 81.1538 33.3462 80.6143 33.4816C80.5093 33.508 80.4053 33.5588 80.3831 33.5947C80.3609 33.6306 79.9653 33.6599 79.5038 33.6599H78.6648Z" fill="#F3F8FE"/>
<path fill-rule="evenodd" clip-rule="evenodd" d="M52.9981 40.6203V41.2006L53.3682 41.0443C53.7331 40.8901 53.7436 40.8898 54.1143 41.0215C54.7204 41.2367 54.9769 41.5702 54.9776 42.1435C54.9783 42.7207 54.7801 43.0888 54.3475 43.3132C54.0798 43.4521 53.4027 43.4415 53.1789 43.2948C53.0125 43.1858 52.9981 43.1858 52.9981 43.2948C52.9981 43.3841 52.9259 43.4132 52.7048 43.4132H52.4115V41.7266V40.0399H52.7048H52.9981V40.6203ZM53.0884 42.5332C52.9601 42.2861 53.0368 41.8105 53.2321 41.6411C53.4439 41.4574 53.9507 41.4617 54.1667 41.6491C54.5524 41.9836 54.3948 42.7334 53.9074 42.883C53.6093 42.9745 53.2342 42.8143 53.0884 42.5332Z" fill="#F3F8FE"/>
<path d="M55.9135 41.0849C55.9538 41.1354 56.0113 41.2591 56.0412 41.3599C56.0712 41.4607 56.1689 41.7082 56.2585 41.9099C56.3479 42.1116 56.4639 42.3756 56.5161 42.4966L56.611 42.7166L56.7662 42.3775C56.8516 42.191 56.9666 41.927 57.0217 41.7908L57.0247 41.7833C57.2444 41.2409 57.3125 41.0727 57.4317 41.0199C57.4852 40.9962 57.5491 40.9958 57.6417 40.9952L57.6443 40.9951C57.8862 40.9935 57.9192 41.0118 57.8718 41.1216C57.8414 41.1921 57.7803 41.3571 57.736 41.4882C57.6918 41.6194 57.6307 41.7266 57.6002 41.7266C57.5697 41.7266 57.5448 41.7614 57.5448 41.8039C57.5448 41.871 57.453 42.0995 57.1781 42.7166C57.1422 42.7972 57.043 43.0282 56.9577 43.2299C56.6866 43.8705 56.5726 44.0528 56.3665 44.1745C56.0964 44.3341 55.5503 44.3289 55.3541 44.1649C55.2033 44.0389 55.203 44.0333 55.3373 43.8591C55.4641 43.6947 55.4912 43.6887 55.7047 43.7771C55.9065 43.8606 55.953 43.8565 56.0781 43.7432C56.3043 43.5386 56.32 43.3648 56.146 42.9914C56.0569 42.7999 55.9425 42.5442 55.8918 42.4232C55.8411 42.3022 55.7153 42.0217 55.6124 41.7999C55.5094 41.5781 55.4035 41.3059 55.377 41.1949C55.3315 41.0042 55.3429 40.9932 55.5845 40.9932C55.7251 40.9932 55.8732 41.0345 55.9135 41.0849Z" fill="#F3F8FE"/>
<path d="M49.4815 71.4283C50.1903 71.7899 50.5078 72.4521 50.3429 73.225C50.2409 73.7035 50.1482 73.8369 49.3759 74.6166L48.7222 75.2766L49.6135 75.2972L50.5048 75.3178V75.9389V76.5599H48.4881H46.4715V76.1256C46.4715 76.1018 46.4713 76.0794 46.4712 76.0581C46.4705 75.9508 46.4701 75.8724 46.4879 75.7984C46.5365 75.5967 46.7211 75.4278 47.4084 74.7988L47.4183 74.7898L47.5047 74.7107L47.5674 74.6533C47.9416 74.3104 48.3264 73.9575 48.4226 73.8688C49.0571 73.2838 49.1399 72.6089 48.592 72.4886C48.207 72.404 47.7675 72.5113 47.5005 72.7552L47.2555 72.9789L46.9347 72.7527C46.7582 72.6284 46.5869 72.5266 46.554 72.5266C46.5211 72.5266 46.4369 72.4633 46.3669 72.3859C46.2446 72.2508 46.2515 72.2333 46.5406 71.9441C46.8538 71.6309 47.4487 71.3118 47.8281 71.2534C48.2746 71.1848 49.195 71.2821 49.4815 71.4283Z" fill="#F3F8FE"/>
<path fill-rule="evenodd" clip-rule="evenodd" d="M54.3779 71.4221C54.783 71.6325 55.0927 71.9515 55.3549 72.4284C55.5757 72.8301 55.5923 72.912 55.623 73.7537C55.649 74.4653 55.63 74.7309 55.5311 75.0371C55.3893 75.4767 54.9869 76.1152 54.8498 76.118C54.7994 76.119 54.7581 76.1468 54.7581 76.1798C54.7581 76.2127 54.6178 76.3199 54.4465 76.418C54.1753 76.5732 54.0442 76.5961 53.4381 76.5943C52.8054 76.5924 52.7052 76.5722 52.3461 76.3744C51.5508 75.9363 51.1648 75.1375 51.1648 73.9299C51.1648 73.1945 51.2374 72.864 51.5131 72.3433C51.765 71.8678 52.4442 71.3428 52.9248 71.2523C53.2821 71.185 54.1069 71.2814 54.3779 71.4221ZM52.7734 72.8265C52.8666 72.6956 53.0131 72.5585 53.0989 72.5217C53.3384 72.4193 53.7712 72.493 53.944 72.6658C54.0392 72.761 54.146 73.0336 54.22 73.3705C54.3322 73.8812 54.3322 73.9589 54.2191 74.4733C54.089 75.0658 53.9756 75.2343 53.6093 75.3802C53.4141 75.4579 53.3378 75.454 53.1306 75.3557C52.7126 75.1573 52.5964 74.8349 52.6004 73.885C52.6036 73.1484 52.6213 73.0402 52.7734 72.8265Z" fill="#F3F8FE"/>
<path d="M59.3309 71.4845C59.5284 71.592 59.7427 71.7632 59.8073 71.865C59.8719 71.9667 59.9585 72.0735 59.9998 72.1024C60.0418 72.1317 60.0748 72.4546 60.0748 72.8357C60.0748 73.6553 60.0566 73.6896 59.1316 74.6166L58.4729 75.2766L59.3444 75.2974C59.9286 75.3114 60.2345 75.3476 60.2725 75.4074C60.3037 75.4565 60.3297 75.7359 60.3304 76.0283L60.3315 76.5599H58.3148H56.2981L56.3043 76.0649L56.3105 75.5699L57.1541 74.7999C58.3654 73.6942 58.503 73.5496 58.6493 73.2274C58.7652 72.9722 58.7685 72.915 58.6773 72.7386C58.4817 72.3603 57.6816 72.3645 57.264 72.7459L57.0293 72.9604L56.7554 72.8009C56.6047 72.7131 56.4705 72.6156 56.457 72.584C56.4435 72.5524 56.4009 72.5266 56.3623 72.5266C56.3236 72.5266 56.2244 72.4636 56.1417 72.3866L55.9914 72.2466L56.2989 71.9392C56.837 71.4011 57.4874 71.1909 58.4233 71.2528C58.8302 71.2797 59.0645 71.3395 59.3309 71.4845Z" fill="#F3F8FE"/>
<path fill-rule="evenodd" clip-rule="evenodd" d="M9.16667 48.1067V60.6467V65.0467H99.66V60.72V48.1067H92.5467H16.3533H9.16667Z" fill="white"/>
<path d="M16.3546 43.6333L9.16797 48.1067H16.3546V43.6333Z" fill="#D0DCF0"/>
<path d="M99.6613 48.1067L92.548 43.6333V48.1067H99.6613Z" fill="#D0DCF0"/>
<path d="M92.5467 43.6333L99.66 48.1067V60.72H108.9L105.967 52.14L108.9 43.6333H92.5467Z" fill="#EDF2F8"/>
<path d="M16.3533 43.6333H0L2.93333 52.14L0 60.6467H9.16667V48.1067L16.3533 43.6333Z" fill="#EDF2F8"/>
<path fill-rule="evenodd" clip-rule="evenodd" d="M21.3601 52.228C21.4517 52.3829 21.934 52.9789 22.0135 53.0356C22.0601 53.0689 22.1003 54.5414 22.1235 57.069L22.1602 61.05H24.9102C27.3401 61.05 27.7008 61.0352 28.0087 60.9225C28.8753 60.6054 29.3183 60.1379 29.5953 59.2481C29.7639 58.707 29.6379 58.0042 29.266 57.4102C29.0803 57.1136 28.5079 56.6146 28.3493 56.611C28.293 56.6097 28.1828 56.5602 28.1045 56.501C27.9777 56.4051 27.9761 56.3933 28.0888 56.3933C28.3278 56.3933 29.0902 55.7982 29.0902 55.6115C29.0902 55.5576 29.1206 55.5133 29.1576 55.5133C29.2286 55.5133 29.3707 55.0119 29.4356 54.5322C29.5001 54.0556 29.2267 53.3191 28.8335 52.9107C28.5312 52.5965 28.1783 52.36 28.0119 52.36C27.9354 52.36 27.8317 52.3188 27.7813 52.2683C27.6442 52.1311 21.2791 52.0912 21.3601 52.228ZM27.5499 54.7359C27.5503 54.4645 27.2872 54.0483 27.0347 53.9205C26.9087 53.8567 26.4232 53.8285 25.4397 53.8278L24.0258 53.8267L24.0463 54.7617L24.0669 55.6967L25.3682 55.7167C26.5609 55.735 26.6942 55.7241 26.966 55.5854C27.3098 55.41 27.5496 55.0612 27.5499 54.7359ZM27.6276 58.0646C27.5168 57.6948 27.3291 57.5287 26.8585 57.3844C26.4862 57.27 24.1827 57.2186 24.0791 57.3222C24.0522 57.3491 24.0302 57.8295 24.0302 58.3897V59.4082L25.5519 59.3858C26.9872 59.3646 27.0865 59.3541 27.3017 59.2006C27.6136 58.9781 27.7543 58.4875 27.6276 58.0646Z" fill="#1C293E"/>
<path d="M30.7769 56.5688C30.7769 60.5397 30.7889 61.0022 30.8929 61.0421C30.9567 61.0666 32.3922 61.0867 34.0829 61.0867H37.1569V60.2433V59.4H34.9202H32.6835V58.4247C32.6835 57.7639 32.7119 57.421 32.7715 57.3613C32.8351 57.2978 33.3452 57.2733 34.6049 57.2733H36.3502V56.5046V55.7359L34.5352 55.7163L32.7202 55.6967L32.6997 54.7617L32.6791 53.8267H34.918H37.1569V52.9833V52.14H33.9669H30.7769V56.5688Z" fill="#1C293E"/>
<path d="M37.9048 52.2683C37.9656 52.3389 38.1687 52.5877 38.3562 52.8212L38.6969 53.2457V57.1684V61.0911L39.6319 61.0705L40.5669 61.05L40.5861 58.2083C40.5967 56.6455 40.621 55.3667 40.6402 55.3667C40.7221 55.3667 40.9702 55.6271 40.9702 55.7129C40.9702 55.7645 40.9961 55.8067 41.0277 55.8067C41.0594 55.8067 41.1431 55.9045 41.2136 56.024C41.2842 56.1436 41.3844 56.2838 41.4362 56.3357C41.488 56.3875 41.657 56.6115 41.8118 56.8333C41.9666 57.0552 42.115 57.2532 42.1416 57.2733C42.1682 57.2935 42.3017 57.475 42.4382 57.6767C42.5748 57.8783 42.7211 58.0805 42.7634 58.126C42.8057 58.1715 42.8897 58.2825 42.9502 58.3728C43.0505 58.5225 43.2634 58.8119 43.4091 58.9967C43.4409 59.037 43.7194 59.4165 44.0281 59.84C44.3367 60.2635 44.6089 60.6265 44.6331 60.6467C44.6572 60.6668 44.7347 60.774 44.8053 60.885C44.9334 61.0864 44.9345 61.0867 45.8041 61.0867C46.5301 61.0867 46.6819 61.0674 46.719 60.9706C46.7435 60.9068 46.7636 58.8938 46.7636 56.4973V52.14H45.779H44.7945L44.7921 54.8624C44.7909 56.3597 44.7765 57.5982 44.7602 57.6145C44.7233 57.6514 43.9036 56.5548 43.9036 56.4685C43.9036 56.4339 43.8753 56.3946 43.8409 56.3811C43.8063 56.3677 43.2777 55.6802 42.666 54.8533C42.0544 54.0265 41.5028 53.284 41.4401 53.2033C41.3775 53.1227 41.1739 52.8505 40.9874 52.5983L40.6486 52.14H39.2214C37.8689 52.14 37.7999 52.1468 37.9048 52.2683Z" fill="#1C293E"/>
<path d="M47.8795 52.965L47.9002 53.79L49.9805 53.8267L52.0606 53.8633L51.1721 55.056C50.6834 55.7118 50.2836 56.2783 50.2836 56.3148C50.2836 56.3513 50.2528 56.3921 50.2154 56.4056C50.1778 56.419 49.9307 56.727 49.6661 57.09C49.4015 57.453 49.1105 57.8456 49.0193 57.9623C48.9281 58.079 48.7711 58.2935 48.6702 58.439C48.5694 58.5844 48.4622 58.7143 48.4319 58.7277C48.4016 58.7412 48.3769 58.799 48.3769 58.8561C48.3769 58.9132 48.3453 58.96 48.3066 58.96C48.268 58.96 48.1513 59.1053 48.0473 59.2828C47.8732 59.5797 47.8597 59.6635 47.8792 60.3278L47.9002 61.05L51.2321 61.0691C53.8489 61.0841 54.5766 61.0683 54.6226 60.9957C54.6549 60.9449 54.6818 60.5651 54.6825 60.1517L54.6836 59.4H52.516H50.3486L50.4785 59.18C50.55 59.059 50.6344 58.96 50.6661 58.96C50.6977 58.96 50.7236 58.9105 50.7236 58.85C50.7236 58.7895 50.75 58.74 50.7821 58.74C50.8143 58.74 50.9216 58.6089 51.0205 58.4486C51.1193 58.2884 51.2195 58.1564 51.243 58.1553C51.2666 58.1542 51.4151 57.9636 51.573 57.7317C51.7309 57.4997 51.9173 57.2468 51.987 57.1695C52.0568 57.0922 52.2052 56.8942 52.3168 56.7295C52.4285 56.5648 52.5396 56.4135 52.5637 56.3933C52.5878 56.3732 53.0582 55.7481 53.6089 55.0043L54.6102 53.6519V52.8959V52.14H51.2345H47.8587L47.8795 52.965Z" fill="#1C293E"/>
<path d="M56.2236 56.6133V61.0867H57.1769H58.1302V56.6133V52.14H57.1769H56.2236V56.6133Z" fill="#1C293E"/>
<path d="M59.4605 52.4517C59.594 52.6231 59.7216 52.7798 59.7442 52.8C59.7668 52.8202 59.8584 52.9319 59.9477 53.0482L60.1102 53.2598V57.1732V61.0867H61.0636H62.0169V58.2267C62.0169 56.6537 62.0349 55.3667 62.0571 55.3667C62.1278 55.3667 62.4682 55.7633 62.5761 55.9717C62.6336 56.0826 62.7128 56.1733 62.7521 56.1733C62.7914 56.1733 62.8236 56.2201 62.8236 56.2772C62.8236 56.3344 62.8483 56.3921 62.8786 56.4056C62.9088 56.419 63.0161 56.5489 63.1169 56.6944C63.2177 56.8398 63.3748 57.0543 63.466 57.171C63.5572 57.2878 63.8482 57.6803 64.1128 58.0433C64.3773 58.4063 64.6245 58.7143 64.662 58.7277C64.6995 58.7412 64.7302 58.7838 64.7302 58.8226C64.7302 58.8612 64.7635 58.9327 64.8042 58.9814C64.8449 59.0301 65.1958 59.499 65.584 60.0233C65.9721 60.5477 66.3266 61.0009 66.3717 61.0306C66.513 61.1235 67.9915 61.096 68.0889 60.9987C68.1554 60.9321 68.1769 59.8384 68.1769 56.5253V52.14H67.2236H66.2702V54.89C66.2702 56.4361 66.2418 57.64 66.2053 57.64C66.1696 57.64 65.9147 57.3347 65.6388 56.9617C63.9903 54.7325 62.5731 52.8318 62.536 52.8C62.5125 52.7798 62.398 52.6231 62.2817 52.4517L62.0703 52.14H60.6441H59.2179L59.4605 52.4517Z" fill="#1C293E"/>
<path d="M73.2369 52.1889C72.5974 52.3203 71.8073 52.5869 71.6799 52.7144C71.6328 52.7614 71.5643 52.8 71.5278 52.8C71.3776 52.8 70.6555 53.4317 70.2614 53.9078C70.0605 54.1505 69.6576 54.9612 69.5545 55.33C69.5095 55.4913 69.4594 56.0025 69.4434 56.4659C69.41 57.4269 69.5039 57.8949 69.8849 58.6667C70.1139 59.1304 70.9992 60.148 71.2511 60.237C71.3148 60.2595 71.4803 60.3472 71.6189 60.4318C72.4654 60.9486 74.0487 61.1859 75.0702 60.9491C75.6267 60.8201 76.4711 60.4933 76.6102 60.3532C76.6304 60.3329 76.7789 60.2262 76.9402 60.116C77.1016 60.0059 77.3409 59.8235 77.4719 59.7107L77.7102 59.5056V57.8395V56.1733H75.6874H73.6646L73.9072 56.485C74.0406 56.6564 74.1693 56.8132 74.1932 56.8333C74.2171 56.8535 74.3777 57.0584 74.5499 57.2886L74.8632 57.7072L75.3884 57.7286L75.9136 57.75V58.292C75.9136 58.758 75.893 58.8454 75.7669 58.9153C75.6862 58.9601 75.6037 59.017 75.5836 59.0418C75.5634 59.0666 75.4644 59.1123 75.3636 59.1433C75.2627 59.1743 75.1618 59.2282 75.1393 59.2631C75.063 59.3811 74.2293 59.4889 73.7502 59.4427C72.7776 59.3487 71.8884 58.6891 71.5425 57.8052C71.2012 56.9325 71.2881 55.7949 71.7539 55.0367C71.9841 54.6623 72.3577 54.2667 72.4813 54.2667C72.5339 54.2667 72.5769 54.2398 72.5769 54.2071C72.5769 54.1743 72.7501 54.0704 72.9619 53.9763C73.2717 53.8386 73.4777 53.8047 74.0156 53.8026C74.5981 53.8004 74.7369 53.8258 75.0935 54.0003C75.3186 54.1104 75.6499 54.3498 75.8298 54.5321L76.1567 54.8638L76.6218 54.6046C76.8776 54.462 77.1942 54.2909 77.3252 54.2244C77.4563 54.1578 77.5636 54.0657 77.5636 54.0197C77.5636 53.8884 77.0454 53.2891 76.721 53.0453C75.9047 52.4316 75.2312 52.1991 74.1902 52.1716C73.7667 52.1604 73.3377 52.1682 73.2369 52.1889Z" fill="#1C293E"/>
<path fill-rule="evenodd" clip-rule="evenodd" d="M80.6538 52.4517C80.7873 52.6231 80.9154 52.7798 80.9385 52.8C80.9617 52.8202 81.0564 52.9451 81.1489 53.0775C81.3067 53.3033 81.3099 53.3296 81.2004 53.4966C81.1362 53.5947 81.0836 53.7137 81.0836 53.7612C81.0836 53.8335 80.7214 54.8122 80.503 55.33C80.469 55.4107 80.3832 55.6252 80.3124 55.8067C80.2416 55.9882 80.1386 56.2407 80.0836 56.3677C80.0286 56.4948 79.9836 56.6516 79.9836 56.7161C79.9836 56.7806 79.9506 56.8333 79.9102 56.8333C79.8699 56.8333 79.8358 56.8911 79.8344 56.9617C79.833 57.0322 79.7682 57.222 79.6902 57.3833C79.6123 57.5447 79.5475 57.7325 79.5461 57.8007C79.5447 57.8689 79.5106 57.9451 79.4702 57.97C79.4299 57.9949 79.3969 58.0647 79.3969 58.125C79.3969 58.23 79.1762 58.7834 79.0277 59.0506C78.9887 59.1207 78.9569 59.2147 78.9569 59.2596C78.9569 59.3044 78.9119 59.4452 78.8569 59.5723C78.8019 59.6993 78.6983 59.9518 78.6269 60.1333C78.5555 60.3148 78.4519 60.5673 78.3969 60.6944C78.3419 60.8215 78.2969 60.9618 78.2969 61.0061C78.2969 61.0609 78.6349 61.0867 79.3544 61.0867H80.4119L80.4602 60.8667C80.4868 60.7457 80.5352 60.6467 80.5677 60.6467C80.6003 60.6467 80.6441 60.5559 80.665 60.445C80.7169 60.17 80.8964 59.7045 80.9845 59.6164C81.0293 59.5716 81.7795 59.5516 82.9561 59.5637L84.8554 59.5833L84.9948 59.95C85.0715 60.1517 85.169 60.3827 85.2115 60.4633C85.254 60.544 85.3092 60.709 85.3341 60.83L85.3794 61.05L86.4601 61.0703L87.5407 61.0906L87.4934 60.887C87.4674 60.775 87.4006 60.6102 87.3448 60.5209C87.2891 60.4316 87.2436 60.3105 87.2436 60.2518C87.2436 60.1932 87.1967 60.0518 87.1394 59.9376C87.0821 59.8234 86.9786 59.5815 86.9095 59.4C86.8402 59.2185 86.7386 58.966 86.6836 58.8389C86.6286 58.7118 86.5836 58.5616 86.5836 58.5053C86.5836 58.4488 86.556 58.3713 86.5223 58.333C86.4887 58.2947 86.402 58.0983 86.3298 57.8967C86.2575 57.695 86.1541 57.431 86.1002 57.31C86.0462 57.189 85.8848 56.7765 85.7416 56.3933C85.5983 56.0102 85.451 55.6307 85.4142 55.55C85.3774 55.4693 85.242 55.1228 85.1134 54.78C84.9848 54.4372 84.8339 54.0527 84.7782 53.9256C84.7225 53.7985 84.6769 53.6417 84.6769 53.5773C84.6769 53.5127 84.6465 53.46 84.6094 53.46C84.5723 53.46 84.5197 53.3588 84.4925 53.2351C84.4653 53.1114 84.3969 52.9216 84.3405 52.8134C84.284 52.7052 84.2365 52.5672 84.235 52.5067C84.2335 52.4462 84.1884 52.3389 84.1348 52.2683C84.0467 52.1522 83.865 52.14 82.2243 52.14H80.4113L80.6538 52.4517ZM83.0579 54.5198C83.0207 54.4969 82.9902 54.414 82.9902 54.3357C82.9902 54.2574 82.9407 54.1933 82.8802 54.1933C82.8197 54.1933 82.7702 54.2391 82.7702 54.295C82.7702 54.3509 82.721 54.4911 82.6607 54.6066C82.6005 54.7221 82.551 54.8678 82.5507 54.9303C82.5505 54.9929 82.5224 55.0754 82.4886 55.1137C82.4546 55.152 82.3531 55.4143 82.2628 55.6967C82.1726 55.979 82.0547 56.309 82.0009 56.43C81.9471 56.551 81.8459 56.8315 81.7761 57.0533C81.7062 57.2752 81.6208 57.4881 81.5863 57.5263C81.5518 57.5646 81.5236 57.6554 81.5236 57.728C81.5236 57.8503 81.6227 57.86 82.8802 57.86C84.3226 57.86 84.3498 57.8527 84.17 57.5106C84.0796 57.339 83.6699 56.1871 83.6092 55.9343C83.5825 55.823 83.5313 55.7138 83.4954 55.6917C83.4596 55.6695 83.43 55.5955 83.4298 55.5273C83.4295 55.4591 83.3832 55.3148 83.3267 55.2066C83.2702 55.0984 83.2019 54.9091 83.1748 54.7858C83.1478 54.6625 83.0952 54.5428 83.0579 54.5198Z" fill="#1C293E"/>
<path d="M61 72.0312L61.704 72.7188C61.9387 72.5469 62.5488 72.2031 63.112 72.2031C63.6752 72.2031 63.992 72.375 63.992 72.7188C63.992 73.0625 63.64 73.2344 63.64 73.2344H62.408V74.2656H63.64C63.64 74.2656 63.992 74.4375 63.992 74.7812C63.992 75.125 63.6752 75.2969 63.112 75.2969C62.5488 75.2969 61.9387 74.9531 61.704 74.7812L61 75.4688C61.2347 75.8125 62.0208 76.5 63.288 76.5C64.872 76.5 65.4 75.4688 65.4 75.125C65.4 74.7812 65.224 73.9219 64.52 73.75C65.224 73.5781 65.4 72.7188 65.4 72.375C65.4 72.0312 64.872 71 63.288 71C62.0208 71 61.2347 71.6875 61 72.0312Z" fill="#F3F8FE"/>
</svg>
