<svg
  width="21"
  height="20"
  viewBox="0 0 21 20"
  fill="none"
  xmlns="http://www.w3.org/2000/svg"
>
  <path
    d="M3.73358 16.6991C4.07748 17.1003 4.69817 17.1003 5.04208 16.6991L7.79082 13.4923C8.26994 12.9333 7.87278 12.0698 7.13658 12.0698L5.92858 12.0698L5.92859 5.22787C5.92859 4.75197 5.54279 4.36618 5.06689 4.36618L3.70882 4.36618C3.23292 4.36618 2.84713 4.75197 2.84713 5.22787L2.84713 12.0698H1.63924C0.903052 12.0698 0.505887 12.9333 0.984984 13.4923L3.73358 16.6991Z"
    fill="#00c26f"
  />
  <path
    d="M16.5106 3.30094C16.1667 2.89972 15.546 2.89971 15.2021 3.30092L12.4533 6.5077C11.9742 7.06666 12.3714 7.93019 13.1076 7.93019L14.3156 7.93019L14.3156 14.7721C14.3156 15.248 14.7013 15.6338 15.1772 15.6338L16.5353 15.6338C17.0112 15.6338 17.397 15.248 17.397 14.7721L17.397 7.93019L18.6049 7.93019C19.3411 7.93019 19.7383 7.06668 19.2592 6.50772L16.5106 3.30094Z"
    fill="#00c26f"
  />
</svg>
