<svg width="13" height="12" fill="none" xmlns="http://www.w3.org/2000/svg" class="new-stepper-tab__card-icon"><path d="M.104 3.137a1 1 0 011-1h10a1 1 0 011 1v6a1 1 0 01-1 1h-10a1 1 0 01-1-1v-6z" fill="url(#paint0_linear)"/><path fill-rule="evenodd" clip-rule="evenodd" d="M11.104 2.237h-10a.9.9 0 00-.9.9v6a.9.9 0 00.9.9h10a.9.9 0 00.9-.9v-6a.9.9 0 00-.9-.9zm-10-.1a1 1 0 00-1 1v6a1 1 0 001 1h10a1 1 0 001-1v-6a1 1 0 00-1-1h-10z" fill="#6D5B42"/><path d="M.104 3.625h12v1.511h-12V3.625z" fill="#000"/><path d="M1.156 6.137h10v1.51h-10v-1.51z" fill="#D8D8D8"/><path d="M1.488 6.371c.038 0 .072.012.102.035.03.023.056.058.077.106a.685.685 0 01.048.18 1.708 1.708 0 01.015.322l.022-.027.027.02-.052.058a2.156 2.156 0 01-.06.333 1.153 1.153 0 01-.09.236.441.441 0 01-.107.14.182.182 0 01-.115.046.099.099 0 01-.076-.036.115.115 0 01-.021-.04.148.148 0 01-.007-.046c0-.042.009-.086.027-.13a.803.803 0 01.076-.138c.033-.047.072-.097.116-.148a7.64 7.64 0 01.145-.161 9.539 9.539 0 00.008-.263c0-.087-.003-.159-.01-.217a.66.66 0 00-.027-.14.17.17 0 00-.043-.074.083.083 0 00-.055-.022.121.121 0 00-.08.036.318.318 0 00-.072.105.744.744 0 00-.052.168 1.16 1.16 0 00-.02.226.52.52 0 00.011.113.28.28 0 00.028.075.12.12 0 00.041.042.096.096 0 00.049.013.102.102 0 00.065-.024.215.215 0 00.052-.065.363.363 0 00.033-.092.487.487 0 00.006-.185l.033-.006a1.74 1.74 0 00.006.046l.001.035c0 .04-.005.08-.015.12a.385.385 0 01-.041.103.245.245 0 01-.066.075.145.145 0 01-.088.027.202.202 0 01-.095-.022.208.208 0 01-.07-.063.318.318 0 01-.043-.1.693.693 0 01.095-.506.509.509 0 01.07-.083.304.304 0 01.075-.053.176.176 0 01.077-.019zM1.379 7.78c.01 0 .022-.003.036-.01a.133.133 0 00.044-.034.35.35 0 00.045-.069.617.617 0 00.044-.11c.014-.044.026-.098.037-.16.011-.063.02-.136.026-.22l-.124.142a1.154 1.154 0 00-.092.12.537.537 0 00-.057.114.366.366 0 00-.02.119c0 .032.006.058.016.078.012.02.026.03.045.03zm1.069-.577l-.007.014a.193.193 0 01-.141.107.288.288 0 01-.074.112.179.179 0 01-.12.045.197.197 0 01-.16-.08.272.272 0 01-.044-.085.359.359 0 01.025-.266.275.275 0 01.117-.116.07.07 0 01.026-.008l.008.023a.183.183 0 00-.048.055.355.355 0 00-.034.081.457.457 0 00-.006.214.302.302 0 00.025.076c.011.022.025.04.04.053a.086.086 0 00.124-.014.22.22 0 00.041-.092.197.197 0 01-.065-.027.231.231 0 01-.107-.2c0-.025.003-.046.01-.065a.145.145 0 01.025-.047.103.103 0 01.136-.022c.019.01.036.025.052.046a.25.25 0 01.037.077.36.36 0 01.012.153.347.347 0 01-.008.044.166.166 0 00.101-.084l.008-.014.027.02zM2.09 7.09a.215.215 0 00.04.13.18.18 0 00.044.04.158.158 0 00.052.023.648.648 0 00-.002-.165.292.292 0 00-.02-.064.122.122 0 00-.027-.042.048.048 0 00-.032-.014c-.015 0-.028.008-.039.024a.121.121 0 00-.016.068zm.48.161a1.268 1.268 0 01-.011.14.43.43 0 01-.018.07.257.257 0 01-.032.064l-.05-.016a.502.502 0 00.02-.116 2.245 2.245 0 00-.011-.386 4.478 4.478 0 01-.015-.27.23.23 0 01.01-.073.164.164 0 01.022-.052.1.1 0 01.033-.03.07.07 0 01.036-.01.05.05 0 01.04.017c.01.012.017.028.022.049a.29.29 0 01.007.07.818.818 0 01-.015.177 2.425 2.425 0 01-.046.24v.021c.01-.02.021-.042.035-.066a.489.489 0 01.045-.068.276.276 0 01.056-.051.11.11 0 01.064-.021c.033 0 .058.01.075.033a.155.155 0 01.025.095.714.714 0 01-.016.16 6.737 6.737 0 00-.01.07.51.51 0 00-.004.068c0 .027.007.04.02.04.007 0 .015-.005.026-.017a1.104 1.104 0 00.117-.192L3 7.183l.027.02-.006.014-.049.093a.89.89 0 01-.051.085.351.351 0 01-.054.062.083.083 0 01-.055.024.081.081 0 01-.024-.004.056.056 0 01-.022-.014.078.078 0 01-.016-.026.123.123 0 01-.007-.044c0-.017 0-.037.003-.057a3.914 3.914 0 01.031-.279.108.108 0 00-.01-.055.035.035 0 00-.032-.017.074.074 0 00-.05.023.292.292 0 00-.047.059.625.625 0 00-.04.074 2.47 2.47 0 00-.03.074.299.299 0 000 .036zm-.044-.566a1.337 1.337 0 00.008.15 12.692 12.692 0 01.018.19 2.63 2.63 0 00.035-.26.564.564 0 00.002-.076.179.179 0 00-.009-.053c-.005-.013-.012-.02-.021-.02-.008 0-.016.005-.023.015a.111.111 0 00-.01.054zm.79.3a.074.074 0 00-.042.017.531.531 0 00-.128.165 25.544 25.544 0 00-.005.274c0 .006-.003.012-.009.018a.085.085 0 01-.02.012.156.156 0 01-.045.01.032.032 0 01-.019-.006c-.006-.004-.008-.013-.008-.026 0-.007 0-.015.002-.025a.547.547 0 01.011-.067l.007-.035V7a.242.242 0 01.003-.032.03.03 0 01.014-.015.087.087 0 01.02-.008.1.1 0 01.023-.004h.016c.008 0 .013.002.015.006.003.004.005.01.005.02a.883.883 0 00-.008.132.637.637 0 01.091-.11.248.248 0 01.052-.035.124.124 0 01.055-.013c.033 0 .057.01.072.031.016.021.023.05.023.085a2.041 2.041 0 01-.015.16 7.07 7.07 0 00-.009.083.76.76 0 00-.004.074c0 .029.01.043.027.043.006 0 .012-.003.02-.008a.164.164 0 00.03-.034.779.779 0 00.041-.067c.017-.028.036-.065.059-.11l.006-.014.027.02-.006.014c-.027.053-.05.097-.071.13a.621.621 0 01-.056.081.176.176 0 01-.047.042.095.095 0 01-.071.007.059.059 0 01-.024-.014.072.072 0 01-.018-.026.123.123 0 01-.006-.044.85.85 0 01.005-.09 3.85 3.85 0 01.024-.191.633.633 0 00.005-.073.065.065 0 00-.01-.039c-.007-.01-.018-.015-.032-.015zm1.354.259c0 .04 0 .07.002.092.003.023.006.04.01.051.004.012.01.019.016.022a.054.054 0 00.023.005.073.073 0 00.037-.012.202.202 0 00.038-.029.728.728 0 00.106-.15l.021-.04.027.02-.02.041-.018.033a.702.702 0 01-.118.156.263.263 0 01-.054.04.122.122 0 01-.107.005.08.08 0 01-.035-.032.197.197 0 01-.023-.064.611.611 0 01-.006-.15l.003-.054a.964.964 0 01-.172.234.456.456 0 01-.105.074.234.234 0 01-.11.029.18.18 0 01-.067-.013.156.156 0 01-.056-.038.193.193 0 01-.039-.068.293.293 0 01-.014-.097c0-.061.007-.12.02-.18a1.075 1.075 0 01.243-.467 1.067 1.067 0 01.238-.204.613.613 0 01.119-.057.337.337 0 01.108-.02c.037 0 .067.01.089.029a.098.098 0 01.033.079.173.173 0 01-.014.067.29.29 0 01-.036.063.695.695 0 01-.208.168l-.02-.027a.386.386 0 00.124-.104.301.301 0 00.064-.11c.007-.02.01-.04.01-.058a.072.072 0 00-.015-.047c-.01-.013-.025-.02-.047-.02a.208.208 0 00-.085.02.453.453 0 00-.094.058 1.106 1.106 0 00-.274.334 1.19 1.19 0 00-.112.3.748.748 0 00-.012.221c.004.02.01.037.017.052a.09.09 0 00.032.033.089.089 0 00.047.012.166.166 0 00.07-.016.308.308 0 00.067-.044.756.756 0 00.168-.23.995.995 0 00.04-.09 2.455 2.455 0 01.035-.234.098.098 0 01.009-.03.038.038 0 01.011-.01.157.157 0 01.06-.023c.014 0 .02.006.02.02a.406.406 0 01-.01.093.83.83 0 01-.024.103 5.864 5.864 0 00-.012.264zm.4-.18a.295.295 0 01.027-.047.208.208 0 01.036-.04.164.164 0 01.1-.037c.027 0 .05.006.07.019a.155.155 0 01.052.05.22.22 0 01.03.073.502.502 0 01-.003.208.372.372 0 01-.036.095.427.427 0 00.072-.072.62.62 0 00.073-.116l.007-.014.027.02-.007.014a.734.734 0 01-.067.11.488.488 0 01-.077.083.331.331 0 01-.085.053.233.233 0 01-.09.018.165.165 0 01-.076-.018.144.144 0 01-.053-.044v.313c0 .016-.002.03-.004.041a.057.057 0 01-.012.027.04.04 0 01-.022.015.108.108 0 01-.034.005c-.01 0-.017-.002-.02-.006-.005-.003-.007-.008-.007-.015 0-.003 0-.009.002-.016a.718.718 0 00.005-.1l.001-.1v-.366a8.138 8.138 0 00-.004-.24c0-.004.002-.009.007-.013a.065.065 0 01.017-.012.125.125 0 01.046-.012c.008 0 .014.002.018.006.005.004.007.01.007.02v.098zm.129-.066a.08.08 0 00-.052.019.176.176 0 00-.04.05.296.296 0 00-.036.136v.076c0 .024.003.046.01.065a.17.17 0 00.025.05c.01.013.023.024.037.032.015.007.03.01.046.01.037 0 .065-.02.084-.058a.43.43 0 00.03-.183.489.489 0 00-.006-.078.235.235 0 00-.019-.063.106.106 0 00-.032-.041.075.075 0 00-.047-.015zm.445.066a.295.295 0 01.027-.047.208.208 0 01.037-.04.164.164 0 01.1-.037c.027 0 .05.006.07.019.02.012.038.029.051.05a.22.22 0 01.031.073.502.502 0 01-.003.208.373.373 0 01-.036.095.427.427 0 00.072-.072.62.62 0 00.072-.116l.007-.014.027.02-.006.014a.733.733 0 01-.067.11.487.487 0 01-.078.083.33.33 0 01-.084.053.233.233 0 01-.09.018.165.165 0 01-.077-.018.144.144 0 01-.053-.044v.313c0 .016-.001.03-.004.041a.057.057 0 01-.012.027.04.04 0 01-.021.015.108.108 0 01-.034.005c-.01 0-.017-.002-.021-.006-.004-.003-.006-.008-.006-.015l.001-.016.003-.037a2.999 2.999 0 00.004-.163v-.366a8.138 8.138 0 00-.004-.24.02.02 0 01.006-.013.065.065 0 01.018-.012.125.125 0 01.046-.012c.007 0 .013.002.018.006.004.004.006.01.006.02v.098zm.13-.066a.08.08 0 00-.052.019.176.176 0 00-.04.05.296.296 0 00-.036.136v.076c0 .024.003.046.009.065a.17.17 0 00.026.05c.01.013.023.024.037.032.014.007.03.01.045.01.038 0 .066-.02.085-.058a.43.43 0 00.029-.183.489.489 0 00-.006-.078.235.235 0 00-.018-.063.106.106 0 00-.033-.041.075.075 0 00-.047-.015zm.5.399c.008 0 .017-.005.027-.015a.276.276 0 00.034-.043 2.486 2.486 0 00.079-.142l.006-.014.028.02-.007.014a3.366 3.366 0 01-.063.12.74.74 0 01-.05.083.211.211 0 01-.046.047.076.076 0 01-.096-.005.153.153 0 01-.035-.066.628.628 0 01-.02-.121 2.354 2.354 0 01.006-.456.97.97 0 01.035-.185.3.3 0 01.053-.107c.02-.023.041-.034.063-.034a.04.04 0 01.033.016c.01.01.014.03.014.058a.614.614 0 01-.005.076 1.775 1.775 0 01-.035.19 4.343 4.343 0 01-.079.296 3.5 3.5 0 00.009.134.742.742 0 00.012.081c.004.02.01.034.016.042.006.007.013.011.021.011zm.018-.814a.058.058 0 00-.003-.022.01.01 0 00-.01-.007c-.006 0-.01.006-.015.02a.44.44 0 00-.015.056 1.415 1.415 0 00-.022.18 2.607 2.607 0 00-.01.21 2.34 2.34 0 00.053-.238 1.682 1.682 0 00.022-.199zm.384.823a.104.104 0 00.047-.012.18.18 0 00.048-.037.426.426 0 00.052-.064.954.954 0 00.054-.096l.007-.014.027.02-.007.014a.946.946 0 01-.071.121.503.503 0 01-.07.082.24.24 0 01-.066.047.157.157 0 01-.14-.004.171.171 0 01-.057-.048.225.225 0 01-.035-.071.292.292 0 01-.013-.086.4.4 0 01.072-.23.252.252 0 01.074-.065.176.176 0 01.087-.023c.03 0 .053.007.07.023a.077.077 0 01.024.058.115.115 0 01-.02.063.282.282 0 01-.052.058.698.698 0 01-.075.055 7.665 7.665 0 01-.09.057.267.267 0 00.015.062.179.179 0 00.029.049.128.128 0 00.04.03.1.1 0 00.05.011zm.02-.365a.058.058 0 00-.014-.042.045.045 0 00-.035-.015.067.067 0 00-.036.012.11.11 0 00-.035.04.255.255 0 00-.027.068.417.417 0 00-.01.1v.016a.46.46 0 00.1-.075.261.261 0 00.04-.05.103.103 0 00.017-.054zm.634.21c0 .03-.005.059-.014.087a.223.223 0 01-.04.073.19.19 0 01-.152.07.173.173 0 01-.064-.011.142.142 0 01-.078-.075.132.132 0 010-.101.12.12 0 01.027-.039.134.134 0 01.04-.026.124.124 0 01.048-.01.14.14 0 01.033.005v.02a.107.107 0 00-.042.008.12.12 0 00-.036.023.11.11 0 00-.024.036.106.106 0 00-.01.044c0 .03.01.053.03.07.02.018.048.026.083.026a.115.115 0 00.048-.01.112.112 0 00.037-.028.123.123 0 00.024-.044.169.169 0 00.009-.055.125.125 0 00-.011-.052.202.202 0 00-.03-.047.751.751 0 00-.09-.077 2.508 2.508 0 00-.047-.034.36.36 0 01-.04-.033l-.066.146-.028-.02.068-.148a.202.202 0 01-.036-.043.106.106 0 01-.006-.08A.074.074 0 017 6.885a.061.061 0 01.026-.006c.016 0 .029.005.037.014a.05.05 0 01.013.035c0 .007 0 .014-.002.022a.227.227 0 01-.011.041 1.485 1.485 0 01-.005.016c.013.01.03.02.048.03a6.977 6.977 0 01.117.062c.02.012.038.025.053.04a.18.18 0 01.039.05c.01.018.014.039.014.062zm-.302-.342a.02.02 0 00-.015.006.024.024 0 00-.005.017.07.07 0 00.005.026.08.08 0 00.022.029.145.145 0 00.013-.054.025.025 0 00-.005-.017.017.017 0 00-.015-.007zm.612.497a.104.104 0 00.046-.012.179.179 0 00.05-.037.426.426 0 00.051-.064.954.954 0 00.054-.096l.007-.014.027.02-.007.014a.946.946 0 01-.071.121.503.503 0 01-.07.082.24.24 0 01-.066.047.157.157 0 01-.14-.004.171.171 0 01-.057-.048.225.225 0 01-.035-.071.292.292 0 01-.013-.086.4.4 0 01.071-.23.252.252 0 01.075-.065.176.176 0 01.087-.023c.03 0 .053.007.07.023a.077.077 0 01.024.058.115.115 0 01-.02.063.282.282 0 01-.052.058.698.698 0 01-.075.055 7.504 7.504 0 01-.09.057.268.268 0 00.015.062.179.179 0 00.029.049.128.128 0 00.04.03.1.1 0 00.05.011zm.02-.365a.058.058 0 00-.015-.042.045.045 0 00-.034-.015.067.067 0 00-.036.012.11.11 0 00-.035.04.255.255 0 00-.027.068.417.417 0 00-.01.1v.016a.46.46 0 00.1-.075.261.261 0 00.04-.05.103.103 0 00.017-.054zm.443.365a.104.104 0 00.047-.012.18.18 0 00.049-.037.425.425 0 00.051-.064.954.954 0 00.055-.096l.006-.014.027.02-.006.014a.946.946 0 01-.072.121.503.503 0 01-.07.082.24.24 0 01-.066.047.157.157 0 01-.14-.004.171.171 0 01-.057-.048.225.225 0 01-.035-.071.292.292 0 01-.012-.086.4.4 0 01.07-.23.252.252 0 01.076-.065.176.176 0 01.086-.023c.03 0 .054.007.07.023a.077.077 0 01.024.058.115.115 0 01-.02.063.282.282 0 01-.051.058.697.697 0 01-.076.055 7.665 7.665 0 01-.09.057.267.267 0 00.016.062.179.179 0 00.028.049.128.128 0 00.04.03.102.102 0 00.05.011zm.02-.365a.058.058 0 00-.014-.042.045.045 0 00-.034-.015.067.067 0 00-.037.012.11.11 0 00-.035.04.255.255 0 00-.026.068.417.417 0 00-.01.1v.016a.46.46 0 00.1-.075.261.261 0 00.04-.05.103.103 0 00.016-.054zm.383.44a.138.138 0 01-.07-.017.147.147 0 01-.049-.046.22.22 0 01-.028-.068.346.346 0 01-.002-.158.357.357 0 01.102-.2.213.213 0 01.058-.038.18.18 0 01.071-.014.13.13 0 01.073.019.16.16 0 01.049.047c0-.084.005-.157.012-.221a.872.872 0 01.034-.16.28.28 0 01.051-.099c.02-.022.042-.033.066-.033.008 0 .015 0 .022.003a.032.032 0 01.017.01.048.048 0 01.01.022c.003.01.005.02.005.035a.648.648 0 01-.009.1 1.551 1.551 0 01-.063.265 4.15 4.15 0 01-.05.155 7.664 7.664 0 00.005.21.838.838 0 00.006.058.214.214 0 00.008.035.039.039 0 00.012.016.03.03 0 00.016.004c.01 0 .02-.004.03-.013a.21.21 0 00.034-.04 2.64 2.64 0 00.085-.156l.007-.014.027.02-.007.014a2.533 2.533 0 01-.068.129.655.655 0 01-.053.08.168.168 0 01-.046.043.094.094 0 01-.045.012.072.072 0 01-.04-.011.095.095 0 01-.03-.037.266.266 0 01-.018-.063.86.86 0 01-.012-.093.862.862 0 01-.047.084.419.419 0 01-.051.065.21.21 0 01-.054.04.126.126 0 01-.058.015zm.095-.508a.096.096 0 00-.063.023.17.17 0 00-.045.057.3.3 0 00-.026.08.464.464 0 00-.004.158c.004.022.01.042.017.06.008.016.018.03.029.04.01.01.024.015.038.015a.086.086 0 00.041-.01.138.138 0 00.04-.034.393.393 0 00.04-.06.793.793 0 00.045-.092 2.928 2.928 0 01-.003-.145.145.145 0 00-.044-.067.097.097 0 00-.065-.025zm.278-.386a.087.087 0 00-.007-.042c-.005-.008-.01-.012-.016-.012-.01 0-.02.01-.026.031a.437.437 0 00-.016.083 1.97 1.97 0 00-.01.266v.072c.014-.044.026-.084.035-.12a1.265 1.265 0 00.036-.19.965.965 0 00.004-.088z" fill="#1B4A95"/><defs><linearGradient id="paint0_linear" x1="1.104" y1="3.637" x2="13.104" y2="12.137" gradientUnits="userSpaceOnUse"><stop stop-color="#FCFBC7"/><stop offset="1" stop-color="#B4AA81"/></linearGradient></defs></svg>