<?xml version="1.0" encoding="utf-8"?><svg width="436" height="410" viewBox="0 0 436 410" xmlns="http://www.w3.org/2000/svg" xmlns:xlink="http://www.w3.org/1999/xlink"><svg width="50" height="48" fill="none" viewBox="-2 -2 50 48" id="24h" x="202" y="45" xmlns="http://www.w3.org/2000/svg"><path d="M6.6 11.9C4.3 15.1 2.9 19 2.9 23.2c0 10.5 8.5 19 19 19 8.7 0 16-5.8 18.3-13.7" stroke="#2B2B37" stroke-width="3" stroke-miterlimit="10" stroke-linecap="round" stroke-linejoin="round"/><path d="M2.2 11.8l5-1.1 1.1 5" stroke="#2B2B37" stroke-width="3" stroke-miterlimit="10" stroke-linecap="round" stroke-linejoin="round"/><path d="M21.3 27.4h-5.7v-1.1l2.6-3c.4-.5.7-.9.8-1.2.1-.3.2-.6.2-.9 0-.4-.1-.6-.3-.8-.2-.2-.3-.4-.7-.4-.4 0-.7.1-.9.4-.2.3-.3.6-.3 1h-1.7c0-.8.2-1.4.8-1.9.6-.5 1.2-.8 2.1-.8.9 0 1.6.2 2 .7.4.5.7 1 .7 1.8 0 .5-.1 1-.4 1.4-.3.4-.7 1-1.4 1.8L17.8 26h3.5v1.4zM27.4 24.2h1v1.3h-1v1.9h-1.7v-1.9h-3.5l-.1-1 3.5-5.7h1.7v5.4h.1zm-3.8 0h2v-3.1l-.2.4-1.8 2.7z" fill="#00C26F"/><path d="M38.4 22.3l6.1-.4M35.9 14.4l5.3-3M30.5 9.1L33.7 4M23.1 7.1V1M15.1 8.4L13 3.7" stroke="#2B2B37" stroke-width="2" stroke-miterlimit="10" stroke-linecap="round" stroke-linejoin="round" stroke-dasharray="5 5"/></svg><svg width="48" height="48" fill="none" viewBox="-2 -2 48 48" id="7d" x="190" y="94" xmlns="http://www.w3.org/2000/svg"><g clip-path="url(#bclip0)"><path d="M42 7H2v35h40V7zM2 14h40M11.11 4v5.814M32.998 4v5.814" stroke="#2B2B37" stroke-width="3" stroke-miterlimit="10" stroke-linecap="round" stroke-linejoin="round"/><path d="M15.222 25h1.556c.666 0 1.222.556 1.222 1.222v1.556c0 .666-.556 1.222-1.222 1.222h-1.556A1.233 1.233 0 0114 27.778v-1.556c0-.666.556-1.222 1.222-1.222zM15.222 19h1.556c.666 0 1.222.556 1.222 1.222v1.556c0 .666-.556 1.222-1.222 1.222h-1.556A1.233 1.233 0 0114 21.778v-1.556c0-.666.556-1.222 1.222-1.222zM9.222 25h1.556c.666 0 1.222.556 1.222 1.222v1.556c0 .666-.556 1.222-1.222 1.222H9.222A1.233 1.233 0 018 27.778v-1.556C8 25.556 8.556 25 9.222 25zM9.222 19h1.556c.666 0 1.222.556 1.222 1.222v1.556c0 .666-.556 1.222-1.222 1.222H9.222A1.233 1.233 0 018 21.778v-1.556C8 19.556 8.556 19 9.222 19zM27.222 19h1.556c.666 0 1.222.556 1.222 1.222v1.556c0 .666-.556 1.222-1.222 1.222h-1.556A1.233 1.233 0 0126 21.778v-1.556c0-.666.556-1.222 1.222-1.222zM33.222 19h1.556c.666 0 1.222.556 1.222 1.222v1.556c0 .666-.556 1.222-1.222 1.222h-1.556A1.233 1.233 0 0132 21.778v-1.556c0-.666.556-1.222 1.222-1.222zM21.222 19h1.556c.666 0 1.222.556 1.222 1.222v1.556c0 .666-.556 1.222-1.222 1.222h-1.556A1.233 1.233 0 0120 21.778v-1.556c0-.666.556-1.222 1.222-1.222z" fill="#00C26F"/></g><defs><clipPath id="bclip0"><path fill="#fff" transform="rotate(-180 22 22)" d="M0 0h44v44H0z"/></clipPath></defs></svg><svg width="144" height="45" fill="none" viewBox="-2 -2 144 45" id="appstore-badge" x="148" xmlns="http://www.w3.org/2000/svg"><path opacity=".401" d="M134.747 40.296H5.763c-2.836 0-5.16-2.261-5.16-5.023V5.133C.604 2.374 2.928.112 5.764.112h128.984c2.837 0 5.16 2.262 5.16 5.023v30.14c0 2.76-2.323 5.022-5.16 5.022h-.001z" fill="#000"/><path fill-rule="evenodd" clip-rule="evenodd" d="M28.043 10.534c.888-1.11 1.496-2.619 1.327-4.15-1.286.056-2.894.888-3.82 1.973-.82.956-1.55 2.524-1.362 3.998 1.445.107 2.928-.728 3.855-1.82zm3.253 9.622c-.03-3.247 2.642-4.84 2.803-4.936l.003-.002c-1.536-2.236-3.916-2.541-4.753-2.566-1.223-.128-2.424.348-3.405.737-.623.246-1.157.458-1.552.458-.45 0-1-.22-1.616-.468-.805-.323-1.724-.692-2.682-.672-2.175.034-4.21 1.291-5.326 3.244-2.303 3.983-.586 9.835 1.621 13.054 1.104 1.577 2.394 3.337 4.082 3.275.766-.031 1.31-.26 1.87-.495.65-.273 1.323-.556 2.392-.556 1.009 0 1.653.274 2.272.537.593.252 1.162.494 2.005.475 1.772-.029 2.888-1.584 3.954-3.175 1.275-1.807 1.788-3.586 1.808-3.678-.042-.014-3.443-1.31-3.476-5.232zM52.89 32.054h2.308l-4.376-13.51h-2.69l-4.354 13.51h2.248l1.204-3.968h4.395l1.265 3.968zm-2.79-9.16l1.144 3.527h-3.632l1.123-3.528c.295-1.122.51-1.97.643-2.545h.04c.335 1.336.562 2.185.682 2.545zm16.297 4.17c0 1.656-.449 2.966-1.345 3.927-.803.856-1.8 1.283-2.99 1.283-1.285 0-2.208-.46-2.77-1.382h-.041v5.131h-2.167V25.52c0-1.041-.028-2.11-.08-3.207h1.905l.121 1.544h.041c.723-1.163 1.82-1.744 3.291-1.744 1.15 0 2.111.454 2.88 1.363.77.91 1.155 2.105 1.155 3.588zm-2.208.079c0-.949-.214-1.73-.642-2.345-.47-.642-1.098-.963-1.887-.963-.535 0-1.02.179-1.455.531-.435.355-.72.82-.852 1.394a2.83 2.83 0 00-.101.66v1.624c0 .709.217 1.307.652 1.795.435.488 1 .732 1.696.732.816 0 1.451-.315 1.906-.942.455-.629.683-1.457.683-2.486zm12.08 3.848c.898-.961 1.346-2.27 1.346-3.928 0-1.483-.385-2.679-1.152-3.588-.77-.909-1.731-1.363-2.881-1.363-1.473 0-2.57.581-3.291 1.745h-.04l-.122-1.545h-1.906c.053 1.097.08 2.166.08 3.207v10.504h2.168v-5.131h.04c.561.921 1.484 1.382 2.77 1.382 1.19 0 2.187-.427 2.988-1.283zm-1.505-6.193c.43.615.644 1.396.644 2.345 0 1.029-.228 1.857-.683 2.486-.455.627-1.09.942-1.906.942-.698 0-1.263-.245-1.698-.732-.433-.488-.65-1.086-.65-1.795V26.42c0-.173.034-.392.1-.66a2.46 2.46 0 01.852-1.394c.435-.352.92-.53 1.456-.53.79 0 1.417.32 1.885.962zm15.394 3.467c0 1.15-.4 2.084-1.202 2.806-.88.789-2.108 1.183-3.684 1.183-1.456 0-2.623-.28-3.506-.842l.502-1.804a5.947 5.947 0 003.133.863c.816 0 1.451-.184 1.908-.552.454-.367.68-.86.68-1.476a1.88 1.88 0 00-.561-1.385c-.373-.374-.996-.723-1.867-1.044-2.368-.883-3.551-2.175-3.551-3.874 0-1.11.415-2.021 1.245-2.73.828-.71 1.931-1.064 3.312-1.064 1.23 0 2.253.214 3.07.642l-.542 1.764c-.763-.414-1.625-.621-2.59-.621-.762 0-1.357.188-1.784.561-.361.334-.542.741-.542 1.224 0 .533.206.975.621 1.322.361.321 1.017.668 1.968 1.043 1.164.468 2.019 1.015 2.569 1.642.547.626.82 1.408.82 2.342zm4.776-4.328h2.39V22.31h-2.39v-2.425l-2.128.642v1.783h-1.423v1.625h1.423v4.91c0 1.23.242 2.104.723 2.626.483.52 1.151.782 2.007.782.697 0 1.259-.08 1.686-.24l-.06-1.643c-.255.067-.576.1-.963.1-.844 0-1.265-.6-1.265-1.804v-4.73zm13.166 3.166c0 1.498-.429 2.727-1.284 3.688-.898.99-2.089 1.484-3.574 1.484-1.431 0-2.571-.475-3.42-1.423-.85-.948-1.275-2.145-1.275-3.587 0-1.51.437-2.746 1.314-3.708.875-.962 2.056-1.443 3.541-1.443 1.431 0 2.583.474 3.452 1.423.832.92 1.246 2.11 1.246 3.566zm-2.248.07c0-.898-.192-1.669-.581-2.311-.455-.778-1.104-1.166-1.946-1.166-.871 0-1.533.39-1.987 1.166-.389.643-.582 1.426-.582 2.352 0 .898.193 1.669.582 2.31.468.778 1.123 1.166 1.968 1.166.827 0 1.477-.396 1.945-1.186.4-.655.601-1.433.601-2.33zm8.61-3.017c.24 0 .468.02.683.06v-2.064a3.49 3.49 0 00-.542-.04 2.62 2.62 0 00-1.566.522c-.494.387-.855.903-1.084 1.543h-.06l-.079-1.863h-1.888c.054.921.082 1.944.082 3.066l-.021 6.674h2.166v-5.111c0-.775.181-1.417.542-1.924.415-.576 1.004-.863 1.767-.863zm10.375 2.566c0 .388-.026.715-.079.982h-6.502c.026.962.34 1.698.944 2.206.547.454 1.256.681 2.126.681.963 0 1.841-.153 2.631-.46l.339 1.502c-.923.402-2.013.602-3.27.602-1.512 0-2.7-.445-3.564-1.333-.862-.889-1.294-2.081-1.294-3.578 0-1.469.402-2.692 1.206-3.667.842-1.042 1.979-1.563 3.41-1.563 1.406 0 2.47.521 3.193 1.563.572.827.86 1.85.86 3.065zm-2.067-.561c.015-.642-.127-1.196-.42-1.664-.376-.602-.952-.902-1.727-.902-.709 0-1.285.293-1.725.882-.361.468-.576 1.03-.642 1.683h4.514v.001zm-73.318-13.23c.716-.603 1.075-1.503 1.075-2.697 0-1.064-.332-1.882-.995-2.453-.591-.506-1.469-.758-2.632-.758-.66 0-1.269.046-1.835.138v6.528c.434.053.952.08 1.558.08 1.222 0 2.165-.28 2.829-.837zm-.664-4.45c.41.414.616 1.007.616 1.782 0 .867-.224 1.527-.667 1.98-.443.452-1.072.679-1.887.679-.349 0-.589-.01-.72-.03V7.93c.237-.047.523-.069.858-.069.79 0 1.39.207 1.8.62zm7.695 2.796c0 .736-.21 1.339-.631 1.812-.442.486-1.026.728-1.756.728-.703 0-1.263-.232-1.681-.699-.417-.466-.625-1.054-.625-1.762 0-.741.214-1.35.645-1.822.431-.472 1.01-.708 1.74-.708.704 0 1.269.232 1.697.698.407.453.61 1.038.61 1.753zm-1.105.034c0-.442-.096-.82-.286-1.136-.223-.382-.541-.573-.955-.573-.428 0-.753.191-.977.573-.191.316-.286.7-.286 1.155 0 .442.096.82.286 1.136.23.382.552.573.967.573.406 0 .725-.194.955-.583.197-.322.296-.703.296-1.145zm9.09-2.386v-.001zm-1.046 0h1.046l-1.499 4.784h-.976l-.62-2.078a15.553 15.553 0 01-.386-1.546h-.02c-.092.526-.22 1.04-.385 1.546l-.66 2.078h-.986l-1.41-4.785h1.095l.541 2.275c.132.538.24 1.05.326 1.536h.019c.08-.4.21-.91.395-1.526l.68-2.284h.868l.652 2.235c.158.545.286 1.07.384 1.576h.03a15.05 15.05 0 01.325-1.576l.581-2.235zm6.569 4.784h-1.066v-2.741c0-.845-.321-1.267-.965-1.267a.962.962 0 00-.77.348 1.235 1.235 0 00-.296.82v2.839H65.83v-3.417c0-.42-.013-.876-.038-1.37h.936l.05.749h.029c.124-.233.309-.425.552-.578.288-.179.612-.269.965-.269.448 0 .82.144 1.116.433.368.355.552.884.552 1.586v2.867zm1.872 0h1.064V6.728h-1.064v6.981zm7.337-2.432c0 .736-.21 1.339-.632 1.812-.44.486-1.026.728-1.755.728-.704 0-1.265-.232-1.681-.699-.417-.466-.626-1.054-.626-1.762 0-.741.215-1.35.646-1.822.431-.472 1.01-.708 1.74-.708.704 0 1.268.232 1.697.698.406.453.61 1.038.61 1.753zm-1.106.034c0-.442-.096-.82-.286-1.136-.223-.382-.542-.573-.955-.573-.428 0-.754.191-.976.573-.191.316-.286.7-.286 1.155 0 .442.096.82.286 1.136.23.382.552.573.966.573.407 0 .725-.194.955-.583.198-.322.296-.703.296-1.145zm5.304 2.398h.956a7.456 7.456 0 01-.069-1.141v-1.763c0-1.32-.628-1.98-1.88-1.98-.649 0-1.199.139-1.644.414l.217.698a2.23 2.23 0 011.249-.354c.664 0 .995.315.995.945v.09c-.887-.008-1.577.144-2.066.452-.492.309-.735.755-.735 1.34 0 .386.125.712.375.974.275.288.641.433 1.093.433.606 0 1.073-.22 1.4-.66h.03l.079.552zm-.15-2.383v.738a.907.907 0 01-.386.753c-.2.148-.418.222-.651.222a.746.746 0 01-.52-.187c-.138-.125-.205-.312-.205-.561 0-.663.587-.985 1.762-.965zm7.16 2.383h-.945l-.05-.768h-.03c-.301.584-.816.877-1.538.877-.578 0-1.058-.227-1.44-.68-.38-.452-.571-1.04-.571-1.762 0-.774.206-1.402.621-1.88.402-.448.894-.671 1.479-.671.644 0 1.094.216 1.35.65h.02V6.728h1.067v5.692c0 .466.012.895.037 1.289zm-1.104-2.018v-.798a1.212 1.212 0 00-.415-.98 1.048 1.048 0 00-.712-.26c-.398 0-.709.157-.937.473-.227.315-.342.718-.342 1.21 0 .474.109.857.328 1.153.23.314.541.472.93.472.35 0 .63-.131.842-.394a1.31 1.31 0 00.306-.876zm9.584 1.397c.42-.472.631-1.075.631-1.811 0-.715-.204-1.3-.61-1.753-.428-.466-.994-.698-1.696-.698-.731 0-1.31.236-1.741.708-.431.473-.646 1.08-.646 1.822 0 .708.209 1.296.625 1.762.419.467.98.7 1.681.7.731 0 1.315-.243 1.756-.73zm-.758-2.913c.19.316.285.694.285 1.136 0 .442-.1.823-.296 1.145-.23.389-.55.583-.956.583-.415 0-.736-.191-.967-.573-.19-.316-.285-.694-.285-1.136 0-.454.094-.84.285-1.155.225-.382.55-.573.977-.573.415 0 .732.191.957.573zm7.115 3.534h-1.064v-2.741c0-.845-.321-1.267-.966-1.267a.958.958 0 00-.769.348 1.23 1.23 0 00-.296.82v2.839h-1.066v-3.417c0-.42-.012-.876-.038-1.37h.936l.049.749h.03c.125-.233.31-.425.552-.578.29-.179.612-.269.967-.269.446 0 .818.144 1.114.433.369.355.551.884.551 1.586v2.867zm5.997-3.988h1.172v-.798h-1.173V7.732l-1.044.315v.877h-.7v.797h.7v2.413c0 .604.118 1.034.356 1.29.237.256.564.384.985.384.341 0 .617-.04.828-.12l-.028-.806c-.125.033-.283.05-.475.05-.412 0-.621-.296-.621-.887V9.721zm6.813 3.988h-1.067v-2.72c0-.859-.321-1.288-.964-1.288-.494 0-.832.249-1.017.746a1.355 1.355 0 00-.049.383v2.878h-1.065v-6.98h1.065v2.884h.02c.335-.525.816-.787 1.439-.787.441 0 .806.144 1.096.434.361.36.542.896.542 1.604v2.846zm5.777-2.137c.025-.13.04-.291.04-.482 0-.597-.142-1.1-.427-1.506-.354-.511-.878-.767-1.567-.767-.704 0-1.262.256-1.675.767-.395.48-.591 1.08-.591 1.802 0 .735.21 1.321.635 1.758.423.436 1.007.654 1.749.654.619 0 1.154-.098 1.608-.295l-.166-.74a3.54 3.54 0 01-1.292.227c-.427 0-.776-.111-1.046-.335-.296-.25-.449-.61-.463-1.083h3.195zm-1.183-1.574c.144.229.214.501.206.817h-2.218c.035-.322.139-.597.316-.828.217-.289.5-.433.848-.433.381 0 .663.148.848.444z" fill="#fff"/></svg><svg width="27" height="22" fill="none" viewBox="-2 -2 27 22" id="bug" x="292" y="262" xmlns="http://www.w3.org/2000/svg"><path d="M3.221 3l3 2M2 9.225h2.977M4.221 17l2-3M19.22 3l-2 2M20.977 9.225H18M18.22 17l-2-3" stroke="#5C5780" stroke-width="2" stroke-linecap="round"/><path d="M13.906 4h-5.37a3.13 3.13 0 00-3.124 3.31l.257 4.449a5.562 5.562 0 0011.104 0l.257-4.45A3.13 3.13 0 0013.906 4zM14.22 4a3 3 0 10-6 0" stroke="#5C5780" stroke-width="2"/><path d="M10.22 14a1 1 0 002 0h-2zm0-9v9h2V5h-2z" fill="#5C5780"/></svg><svg width="18" height="22" fill="none" viewBox="-2 -2 18 22" id="burn" x="319" y="262" xmlns="http://www.w3.org/2000/svg"><path d="M12.79 11.105a5.895 5.895 0 01-11.79 0c0-2.534 3.573-7.247 5.155-9.21a.944.944 0 011.48 0c1.582 1.963 5.155 6.676 5.155 9.21z" stroke="#5C5780" stroke-width="2" stroke-linecap="round"/><path d="M4 14.053C4 15.68 5.343 17 7 17s3-1.32 3-2.947c0-1.107-1.388-3.046-2.275-4.172a.915.915 0 00-1.45 0C5.388 11.007 4 12.946 4 14.053z" stroke="#5C5780" stroke-width="2" stroke-linecap="round"/></svg><svg width="144" height="144" fill="none" viewBox="-2 -2 144 144" id="burn-step-0" y="148" xmlns="http://www.w3.org/2000/svg"><path d="M33.882 63.398c3.054 0 3.649-.59 3.649-3.622 0 3.033.593 3.622 3.65 3.622-3.055 0-3.65.59-3.65 3.622-.002-3.032-.595-3.622-3.65-3.622zM93.552 35.933c3.394 0 4.055-.655 4.055-4.025 0 3.37.66 4.025 4.055 4.025-3.395 0-4.055.655-4.055 4.026 0-3.37-.66-4.026-4.055-4.026z" fill="#3BEE81"/><path opacity=".63" d="M82.383 110.366c2.758-12.799 3.199-24.762-6.329-35.066-1.778 5.016-3.39 9.556-4.999 14.097l-1.464-.414c-.586-1.98-1.175-3.958-1.816-6.122-3.061 4.88-6.027 9.375-8.748 14.013-2.787 4.753-.284 8.895 2.043 13.018-11.25-.843-21.302-15.944-18.392-27.477.338-1.338.734-2.698 1.355-3.92 2.993-5.897 9.523-15.12 10.33-22.964 1.47 2.014 3.228 4.706 3.784 11.585 5.614-4.492 10.047-15.48 7.23-27.239 7.82 1.405 14.932 6.185 21.012 21.869 2.528-4.468.549-6.987.941-8.771 8.014 2.492 16.125 21.132 15.35 33.582-.759 12.18-8.53 21.547-20.297 23.809z" fill="url(#fpaint0_linear)"/><path opacity=".63" d="M78.874 111.605c3.441-15.971 10.794-29.809-1.095-42.667-2.22 6.26-4.23 11.925-6.238 17.591l-1.827-.516-2.267-7.64c-3.82 6.09-7.52 11.698-10.915 17.487-3.48 5.93 7.667 11.194 10.572 16.339-26.392-3.15-34.606-19.991-30.974-34.383.42-1.67.915-3.366 1.69-4.891C41.553 65.568 52.207 54.6 51.2 36.047c1.832 2.513 9.487 9.567 10.18 18.15 3.3-10.89-3.304-16.699 3.072-29.46 6.532 9.207 11.37 6.37 18.958 25.94-.444-6.218.249-8.597-1.182-14.744 10 3.11 23.829 25.964 24.031 46.098.154 15.224-13.512 27.019-27.385 29.574z" fill="url(#fpaint1_linear)"/><path d="M70.463 113.378c15.068 0 27.283-12.215 27.283-27.283 0-15.068-12.215-27.282-27.283-27.282-15.068 0-27.283 12.214-27.283 27.282s12.215 27.283 27.283 27.283z" fill="#2B2B37"/><path d="M70.12 97.438c4.962 0 7.97-3.979 7.97-10.35 0-6.371-3.035-10.268-7.97-10.268-4.936 0-7.985 3.91-7.985 10.282 0 6.384 3.021 10.335 7.984 10.335zm0-3.31c-2.352 0-3.788-2.542-3.788-7.026 0-4.444 1.463-6.973 3.787-6.973 2.338 0 3.774 2.515 3.774 6.973 0 4.498-1.422 7.027-3.774 7.027z" fill="#3BEE81"/><g opacity=".34"><path opacity=".34" d="M62.642 60.961c-1.421 7.844-1.818 8.637-7.085 15.176-1.451 1.802-2.928 3.606-4.164 5.554-6.398 10.095-3.5 23.118 6.6 29.959 9.53 6.454 23.088 4.025 30.068-5.387 6.683-9.01 5.056-24.31-3.328-31.001-.5-.4-1.212-.53-2.013-.864-.14 4.465-.62 8.486-5.399 11.163 1.291-12.256-4.089-19.928-14.679-24.6z" fill="url(#fpaint2_linear)"/><path opacity=".34" d="M62.642 60.961c10.591 4.672 15.971 12.343 14.68 24.599 4.779-2.677 5.258-6.697 5.398-11.163.8.334 1.513.464 2.013.863 8.382 6.691 10.01 21.991 3.328 31.002-6.982 9.413-20.54 11.842-30.068 5.386-10.1-6.841-12.998-19.864-6.6-29.958 1.236-1.948 2.714-3.751 4.164-5.554 5.267-6.538 5.662-7.331 7.085-15.175z" fill="url(#fpaint3_linear)"/></g><path style="mix-blend-mode:overlay" opacity=".58" d="M70 140c38.66 0 70-31.34 70-70S108.66 0 70 0 0 31.34 0 70s31.34 70 70 70z" fill="url(#fpaint4_radial)"/><defs><linearGradient id="fpaint0_linear" x1="33.981" y1="53.303" x2="104.07" y2="104.319" gradientUnits="userSpaceOnUse"><stop stop-color="#3BEC80"/><stop offset="1" stop-color="#3BEC80" stop-opacity="0"/></linearGradient><linearGradient id="fpaint1_linear" x1="22.091" y1="39.333" x2="108.694" y2="102.371" gradientUnits="userSpaceOnUse"><stop stop-color="#3BEC80"/><stop offset="1" stop-color="#3BEC80" stop-opacity="0"/></linearGradient><linearGradient id="fpaint2_linear" x1="31.12" y1="40.547" x2="81.402" y2="107.44" gradientUnits="userSpaceOnUse"><stop stop-color="#3BEC80"/><stop offset="1" stop-color="#3BEC80" stop-opacity="0"/></linearGradient><linearGradient id="fpaint3_linear" x1="31.12" y1="40.547" x2="81.402" y2="107.44" gradientUnits="userSpaceOnUse"><stop stop-color="#3BEC80"/><stop offset="1" stop-color="#3BEC80" stop-opacity="0"/></linearGradient><radialGradient id="fpaint4_radial" cx="0" cy="0" r="1" gradientUnits="userSpaceOnUse" gradientTransform="translate(70 70) scale(70.0001)"><stop stop-color="#fff"/><stop offset="1" stop-color="#fff" stop-opacity="0"/></radialGradient></defs></svg><svg width="144" height="144" fill="none" viewBox="-2 -2 144 144" id="burn-step-1" x="144" y="148" xmlns="http://www.w3.org/2000/svg"><path d="M33.882 63.398c3.054 0 3.649-.59 3.649-3.622 0 3.033.593 3.622 3.65 3.622-3.055 0-3.65.59-3.65 3.622-.002-3.032-.595-3.622-3.65-3.622zM93.552 35.933c3.394 0 4.055-.655 4.055-4.025 0 3.37.66 4.025 4.055 4.025-3.395 0-4.055.655-4.055 4.026 0-3.37-.66-4.026-4.055-4.026z" fill="#3BEE81"/><path opacity=".63" d="M82.383 110.366c2.758-12.799 3.199-24.762-6.329-35.066-1.778 5.016-3.39 9.556-4.999 14.097l-1.464-.414c-.586-1.98-1.175-3.958-1.816-6.122-3.061 4.88-6.027 9.375-8.748 14.013-2.787 4.753-.284 8.895 2.043 13.018-11.25-.843-21.302-15.944-18.392-27.477.338-1.338.734-2.698 1.355-3.92 2.993-5.897 9.523-15.12 10.33-22.964 1.47 2.014 3.228 4.706 3.784 11.585 5.614-4.492 10.047-15.48 7.23-27.239 7.82 1.405 14.932 6.185 21.012 21.869 2.528-4.468.549-6.987.941-8.771 8.014 2.492 16.125 21.132 15.35 33.582-.759 12.18-8.53 21.547-20.297 23.809z" fill="url(#gpaint0_linear)"/><path opacity=".63" d="M78.874 111.605c3.441-15.971 10.794-29.809-1.095-42.667-2.22 6.26-4.23 11.925-6.238 17.591l-1.827-.516-2.267-7.64c-3.82 6.09-7.52 11.698-10.915 17.487-3.48 5.93 7.667 11.194 10.572 16.339-26.392-3.15-34.606-19.991-30.974-34.383.42-1.67.915-3.366 1.69-4.891C41.553 65.568 52.207 54.6 51.2 36.047c1.832 2.513 9.487 9.567 10.18 18.15 3.3-10.89-3.304-16.699 3.072-29.46 6.532 9.207 11.37 6.37 18.958 25.94-.444-6.218.249-8.597-1.182-14.744 10 3.11 23.829 25.964 24.031 46.098.154 15.224-13.512 27.019-27.385 29.574z" fill="url(#gpaint1_linear)"/><path d="M70.463 113.378c15.068 0 27.283-12.215 27.283-27.283 0-15.068-12.215-27.282-27.283-27.282-15.068 0-27.283 12.214-27.283 27.282s12.215 27.283 27.283 27.283z" fill="#2B2B37"/><path d="M69.723 97h4.088V77.272h-4.102l-5.1 3.54v3.72l5.032-3.473h.082V97z" fill="#3BEE81"/><g opacity=".34"><path opacity=".34" d="M62.642 60.961c-1.421 7.844-1.818 8.637-7.085 15.176-1.451 1.802-2.928 3.606-4.164 5.554-6.398 10.095-3.5 23.118 6.6 29.959 9.53 6.454 23.088 4.025 30.068-5.387 6.683-9.01 5.056-24.31-3.328-31.001-.5-.4-1.212-.53-2.013-.864-.14 4.465-.62 8.486-5.399 11.163 1.291-12.256-4.089-19.928-14.679-24.6z" fill="url(#gpaint2_linear)"/><path opacity=".34" d="M62.642 60.961c10.591 4.672 15.971 12.343 14.68 24.599 4.779-2.677 5.258-6.697 5.398-11.163.8.334 1.513.464 2.013.863 8.382 6.691 10.01 21.991 3.328 31.002-6.982 9.413-20.54 11.842-30.068 5.386-10.1-6.841-12.998-19.864-6.6-29.958 1.236-1.948 2.714-3.751 4.164-5.554 5.267-6.538 5.662-7.331 7.085-15.175z" fill="url(#gpaint3_linear)"/></g><path style="mix-blend-mode:overlay" opacity=".58" d="M70 140c38.66 0 70-31.34 70-70S108.66 0 70 0 0 31.34 0 70s31.34 70 70 70z" fill="url(#gpaint4_radial)"/><defs><linearGradient id="gpaint0_linear" x1="33.981" y1="53.303" x2="104.07" y2="104.319" gradientUnits="userSpaceOnUse"><stop stop-color="#3BEC80"/><stop offset="1" stop-color="#3BEC80" stop-opacity="0"/></linearGradient><linearGradient id="gpaint1_linear" x1="22.091" y1="39.333" x2="108.694" y2="102.371" gradientUnits="userSpaceOnUse"><stop stop-color="#3BEC80"/><stop offset="1" stop-color="#3BEC80" stop-opacity="0"/></linearGradient><linearGradient id="gpaint2_linear" x1="31.12" y1="40.547" x2="81.402" y2="107.44" gradientUnits="userSpaceOnUse"><stop stop-color="#3BEC80"/><stop offset="1" stop-color="#3BEC80" stop-opacity="0"/></linearGradient><linearGradient id="gpaint3_linear" x1="31.12" y1="40.547" x2="81.402" y2="107.44" gradientUnits="userSpaceOnUse"><stop stop-color="#3BEC80"/><stop offset="1" stop-color="#3BEC80" stop-opacity="0"/></linearGradient><radialGradient id="gpaint4_radial" cx="0" cy="0" r="1" gradientUnits="userSpaceOnUse" gradientTransform="translate(70 70) scale(70.0001)"><stop stop-color="#fff"/><stop offset="1" stop-color="#fff" stop-opacity="0"/></radialGradient></defs></svg><svg width="144" height="144" fill="none" viewBox="-2 -2 144 144" id="burn-step-2" x="292" xmlns="http://www.w3.org/2000/svg"><path d="M33.882 63.398c3.054 0 3.649-.59 3.649-3.622 0 3.033.593 3.622 3.65 3.622-3.055 0-3.65.59-3.65 3.622-.002-3.032-.595-3.622-3.65-3.622zM93.552 35.933c3.394 0 4.055-.655 4.055-4.025 0 3.37.66 4.025 4.055 4.025-3.395 0-4.055.655-4.055 4.026 0-3.37-.66-4.026-4.055-4.026z" fill="#3BEE81"/><path opacity=".63" d="M82.383 110.366c2.758-12.799 3.199-24.762-6.329-35.066-1.778 5.016-3.39 9.556-4.999 14.097l-1.464-.414c-.586-1.98-1.175-3.958-1.816-6.122-3.061 4.88-6.027 9.375-8.748 14.013-2.787 4.753-.284 8.895 2.043 13.018-11.25-.843-21.302-15.944-18.392-27.477.338-1.338.734-2.698 1.355-3.92 2.993-5.897 9.523-15.12 10.33-22.964 1.47 2.014 3.228 4.706 3.784 11.585 5.614-4.492 10.047-15.48 7.23-27.239 7.82 1.405 14.932 6.185 21.012 21.869 2.528-4.468.549-6.987.941-8.771 8.014 2.492 16.125 21.132 15.35 33.582-.759 12.18-8.53 21.547-20.297 23.809z" fill="url(#hpaint0_linear)"/><path opacity=".63" d="M78.874 111.605c3.441-15.971 10.794-29.809-1.095-42.667-2.22 6.26-4.23 11.925-6.238 17.591l-1.827-.516-2.267-7.64c-3.82 6.09-7.52 11.698-10.915 17.487-3.48 5.93 7.667 11.194 10.572 16.339-26.392-3.15-34.606-19.991-30.974-34.383.42-1.67.915-3.366 1.69-4.891C41.553 65.568 52.207 54.6 51.2 36.047c1.832 2.513 9.487 9.567 10.18 18.15 3.3-10.89-3.304-16.699 3.072-29.46 6.532 9.207 11.37 6.37 18.958 25.94-.444-6.218.249-8.597-1.182-14.744 10 3.11 23.829 25.964 24.031 46.098.154 15.224-13.512 27.019-27.385 29.574z" fill="url(#hpaint1_linear)"/><path d="M70.463 113.378c15.068 0 27.283-12.215 27.283-27.283 0-15.068-12.215-27.282-27.283-27.282-15.068 0-27.283 12.214-27.283 27.282s12.215 27.283 27.283 27.283z" fill="#2B2B37"/><path d="M62.832 83.205v.068h3.828v-.068c0-1.818 1.408-3.158 3.322-3.158 1.832 0 3.131 1.176 3.131 2.652 0 1.367-.615 2.365-2.611 4.362l-7.437 7.164V97h14.341v-3.281h-8.9v-.082l4.812-4.635c2.174-2.16 3.815-4.006 3.815-6.467 0-3.295-2.858-5.701-7.014-5.701-4.306 0-7.287 2.639-7.287 6.371z" fill="#3BEE81"/><g opacity=".34"><path opacity=".34" d="M62.642 60.961c-1.421 7.844-1.818 8.637-7.085 15.176-1.451 1.802-2.928 3.606-4.164 5.554-6.398 10.095-3.5 23.118 6.6 29.959 9.53 6.454 23.088 4.025 30.068-5.387 6.683-9.01 5.056-24.31-3.328-31.001-.5-.4-1.212-.53-2.013-.864-.14 4.465-.62 8.486-5.399 11.163 1.291-12.256-4.089-19.928-14.679-24.6z" fill="url(#hpaint2_linear)"/><path opacity=".34" d="M62.642 60.961c10.591 4.672 15.971 12.343 14.68 24.599 4.779-2.677 5.258-6.697 5.398-11.163.8.334 1.513.464 2.013.863 8.382 6.691 10.01 21.991 3.328 31.002-6.982 9.413-20.54 11.842-30.068 5.386-10.1-6.841-12.998-19.864-6.6-29.958 1.236-1.948 2.714-3.751 4.164-5.554 5.267-6.538 5.662-7.331 7.085-15.175z" fill="url(#hpaint3_linear)"/></g><path style="mix-blend-mode:overlay" opacity=".58" d="M70 140c38.66 0 70-31.34 70-70S108.66 0 70 0 0 31.34 0 70s31.34 70 70 70z" fill="url(#hpaint4_radial)"/><defs><linearGradient id="hpaint0_linear" x1="33.981" y1="53.303" x2="104.07" y2="104.319" gradientUnits="userSpaceOnUse"><stop stop-color="#3BEC80"/><stop offset="1" stop-color="#3BEC80" stop-opacity="0"/></linearGradient><linearGradient id="hpaint1_linear" x1="22.091" y1="39.333" x2="108.694" y2="102.371" gradientUnits="userSpaceOnUse"><stop stop-color="#3BEC80"/><stop offset="1" stop-color="#3BEC80" stop-opacity="0"/></linearGradient><linearGradient id="hpaint2_linear" x1="31.12" y1="40.547" x2="81.402" y2="107.44" gradientUnits="userSpaceOnUse"><stop stop-color="#3BEC80"/><stop offset="1" stop-color="#3BEC80" stop-opacity="0"/></linearGradient><linearGradient id="hpaint3_linear" x1="31.12" y1="40.547" x2="81.402" y2="107.44" gradientUnits="userSpaceOnUse"><stop stop-color="#3BEC80"/><stop offset="1" stop-color="#3BEC80" stop-opacity="0"/></linearGradient><radialGradient id="hpaint4_radial" cx="0" cy="0" r="1" gradientUnits="userSpaceOnUse" gradientTransform="translate(70 70) scale(70.0001)"><stop stop-color="#fff"/><stop offset="1" stop-color="#fff" stop-opacity="0"/></radialGradient></defs></svg><svg width="148" height="148" fill="none" viewBox="-2 -2 148 148" id="burn-step-3" xmlns="http://www.w3.org/2000/svg"><path d="M35.882 65.398c3.054 0 3.649-.59 3.649-3.622 0 3.033.593 3.622 3.65 3.622-3.055 0-3.65.59-3.65 3.622-.002-3.032-.595-3.622-3.65-3.622zm59.67-27.465c3.394 0 4.055-.655 4.055-4.025 0 3.37.66 4.025 4.055 4.025-3.395 0-4.055.655-4.055 4.026 0-3.37-.66-4.026-4.055-4.026z" fill="#3BEE81"/><path opacity=".63" d="M84.383 112.366c2.758-12.799 3.199-24.762-6.329-35.066-1.778 5.016-3.39 9.556-4.999 14.097l-1.464-.414c-.586-1.98-1.175-3.958-1.816-6.122-3.061 4.88-6.027 9.375-8.748 14.013-2.787 4.753-.284 8.895 2.043 13.018-11.25-.843-21.302-15.944-18.392-27.477.338-1.338.734-2.698 1.355-3.92 2.993-5.897 9.523-15.12 10.33-22.964 1.47 2.014 3.228 4.706 3.784 11.585 5.614-4.492 10.047-15.48 7.23-27.239 7.82 1.405 14.932 6.185 21.012 21.869 2.528-4.468.549-6.987.941-8.771 8.014 2.492 16.125 21.132 15.35 33.582-.759 12.18-8.53 21.547-20.297 23.809z" fill="url(#ipaint0_linear)"/><path opacity=".63" d="M80.874 113.605c3.441-15.97 10.794-29.809-1.095-42.667-2.22 6.26-4.23 11.925-6.238 17.591l-1.827-.516-2.267-7.64c-3.82 6.09-7.52 11.698-10.915 17.487-3.48 5.93 7.667 11.194 10.572 16.339-26.392-3.15-34.606-19.99-30.974-34.383.42-1.67.915-3.366 1.69-4.89C43.553 67.567 54.207 56.6 53.2 38.046c1.832 2.513 9.487 9.567 10.18 18.15 3.3-10.89-3.304-16.699 3.072-29.46 6.532 9.207 11.37 6.37 18.958 25.94-.444-6.218.25-8.597-1.182-14.744 10 3.11 23.829 25.964 24.031 46.098.154 15.224-13.512 27.019-27.385 29.574z" fill="url(#ipaint1_linear)"/><path d="M72.463 115.378c15.068 0 27.283-12.215 27.283-27.283 0-15.068-12.215-27.282-27.283-27.282-15.068 0-27.283 12.214-27.283 27.282s12.215 27.283 27.283 27.283z" fill="#2B2B37"/><path d="M69.58 86.989h2.112c1.005 0 1.75-.251 2.235-.754.484-.503.726-1.17.726-2.002 0-.804-.242-1.43-.726-1.878-.476-.448-1.134-.672-1.975-.672-.758 0-1.394.21-1.906.63-.511.412-.767.951-.767 1.618h-3.963c0-1.042.279-1.974.837-2.797.566-.832 1.352-1.48 2.358-1.947 1.014-.466 2.13-.699 3.345-.699 2.112 0 3.766.507 4.964 1.522 1.197 1.005 1.796 2.395 1.796 4.168 0 .914-.279 1.755-.836 2.523a5.434 5.434 0 01-2.194 1.769c1.124.402 1.96 1.005 2.509 1.81.558.804.836 1.755.836 2.852 0 1.773-.649 3.194-1.947 4.264C75.696 98.466 73.986 99 71.856 99c-1.992 0-3.624-.526-4.894-1.577-1.262-1.051-1.893-2.44-1.893-4.168h3.963c0 .75.279 1.362.836 1.837.567.476 1.262.713 2.084.713.942 0 1.678-.247 2.208-.74.54-.503.809-1.166.809-1.988 0-1.993-1.097-2.99-3.29-2.99H69.58V86.99z" fill="#3BEE81"/><g opacity=".34"><path opacity=".34" d="M64.642 62.96c-1.421 7.845-1.818 8.638-7.085 15.177-1.451 1.802-2.928 3.606-4.164 5.554-6.398 10.095-3.5 23.118 6.6 29.959 9.53 6.454 23.088 4.025 30.068-5.387 6.683-9.01 5.056-24.31-3.328-31.001-.5-.4-1.212-.53-2.013-.864-.14 4.465-.62 8.486-5.4 11.163 1.292-12.256-4.088-19.928-14.678-24.6z" fill="url(#ipaint2_linear)"/><path opacity=".34" d="M64.642 62.96c10.59 4.673 15.97 12.344 14.68 24.6 4.779-2.677 5.258-6.697 5.398-11.163.8.334 1.513.464 2.013.863 8.382 6.69 10.01 21.99 3.328 31.002-6.982 9.413-20.54 11.842-30.068 5.386-10.1-6.841-12.998-19.864-6.6-29.958 1.236-1.948 2.714-3.751 4.164-5.554 5.267-6.538 5.662-7.331 7.085-15.175z" fill="url(#ipaint3_linear)"/></g><path style="mix-blend-mode:overlay" opacity=".58" d="M72 142c38.66 0 70-31.34 70-70S110.66 2 72 2 2 33.34 2 72s31.34 70 70 70z" fill="url(#ipaint4_radial)"/><defs><linearGradient id="ipaint0_linear" x1="35.981" y1="55.303" x2="106.07" y2="106.319" gradientUnits="userSpaceOnUse"><stop stop-color="#3BEC80"/><stop offset="1" stop-color="#3BEC80" stop-opacity="0"/></linearGradient><linearGradient id="ipaint1_linear" x1="24.091" y1="41.333" x2="110.694" y2="104.371" gradientUnits="userSpaceOnUse"><stop stop-color="#3BEC80"/><stop offset="1" stop-color="#3BEC80" stop-opacity="0"/></linearGradient><linearGradient id="ipaint2_linear" x1="33.12" y1="42.547" x2="83.402" y2="109.44" gradientUnits="userSpaceOnUse"><stop stop-color="#3BEC80"/><stop offset="1" stop-color="#3BEC80" stop-opacity="0"/></linearGradient><linearGradient id="ipaint3_linear" x1="33.12" y1="42.547" x2="83.402" y2="109.44" gradientUnits="userSpaceOnUse"><stop stop-color="#3BEC80"/><stop offset="1" stop-color="#3BEC80" stop-opacity="0"/></linearGradient><radialGradient id="ipaint4_radial" cx="0" cy="0" r="1" gradientUnits="userSpaceOnUse" gradientTransform="translate(72 72) scale(70.0001)"><stop stop-color="#fff"/><stop offset="1" stop-color="#fff" stop-opacity="0"/></radialGradient></defs></svg><svg width="42" height="51" fill="none" viewBox="-2 -2 42 51" id="burning-logo" x="148" y="94" xmlns="http://www.w3.org/2000/svg"><path opacity=".63" d="M24.944 44.038c1.418-6.582 1.645-12.735-3.255-18.034l-2.571 7.25-.753-.213-.934-3.148c-1.574 2.51-3.1 4.821-4.499 7.206-1.433 2.445-.146 4.575 1.05 6.695-5.785-.433-10.955-8.2-9.458-14.13.174-.689.377-1.388.697-2.017 1.539-3.032 4.897-7.776 5.313-11.81.755 1.036 1.66 2.42 1.945 5.958 2.888-2.31 5.168-7.96 3.719-14.008 4.021.722 7.68 3.18 10.806 11.246 1.3-2.297.282-3.593.484-4.51 4.121 1.281 8.293 10.868 7.894 17.27-.39 6.264-4.386 11.082-10.438 12.245z" fill="url(#jpaint0_linear)"/><path opacity=".63" d="M23.139 44.675c1.77-8.213 5.551-15.33-.563-21.943l-3.208 9.047-.94-.265-1.166-3.93c-1.964 3.132-3.867 6.017-5.613 8.994-1.79 3.05 3.943 5.757 5.437 8.403C3.513 43.36-.712 34.7 1.156 27.298c.216-.858.47-1.731.87-2.515 1.92-3.784 7.4-9.424 6.88-18.966.943 1.292 4.88 4.92 5.236 9.335C15.84 9.55 12.442 6.563 15.722 0c3.36 4.735 5.848 3.276 9.75 13.341-.229-3.198.128-4.421-.608-7.582 5.143 1.598 12.255 13.352 12.359 23.707.079 7.83-6.95 13.895-14.084 15.21z" fill="url(#jpaint1_linear)"/><path d="M18.813 45.587c7.75 0 14.031-6.282 14.031-14.031 0-7.75-6.282-14.031-14.03-14.031-7.75 0-14.032 6.282-14.032 14.03 0 7.75 6.282 14.032 14.031 14.032z" fill="#2B2B37"/><path d="M11.614 31.843h-1.342V27h1.104l1.869 2.51h.026V27h1.343v4.841h-1.09l-1.883-2.55h-.027v2.55zm6.222-4.926c1.497 0 2.44.959 2.44 2.506 0 1.547-.942 2.504-2.44 2.504-1.5 0-2.44-.957-2.44-2.504 0-1.547.944-2.506 2.44-2.506zm0 1.133c-.593 0-.99.534-.99 1.373 0 .835.393 1.369.99 1.369.598 0 .99-.534.99-1.369 0-.839-.395-1.373-.99-1.373zm6.334 1.02l-.721 2.773h-1.343L20.858 27h1.47l.556 3.06h.027l.721-3.06h1.1l.722 3.06h.027l.557-3.06h1.47l-1.25 4.841h-1.342l-.72-2.771h-.026zM11.885 37.283h-.83v-2.165h-.743v-.66h2.317v.66h-.744v2.165zm3.19-2.874c.873 0 1.423.56 1.423 1.462 0 .903-.55 1.46-1.423 1.46-.874 0-1.423-.558-1.423-1.46 0-.902.55-1.462 1.423-1.462zm0 .662c-.346 0-.578.31-.578.8 0 .488.23.798.578.798.349 0 .578-.31.578-.798 0-.489-.231-.8-.578-.8zm3.521 2.212h-.83v-2.824h.83v1.198h.016l.873-1.198h.871l-.93 1.255.973 1.57h-.965l-.617-1.038-.22.298v.739zm4.936-.66v.66H21.54v-2.824h1.992v.66h-1.163v.455h1.09v.596h-1.09v.453h1.163zm2.116.66h-.783v-2.824h.644l1.09 1.464h.016v-1.464h.783v2.824h-.636l-1.098-1.488h-.016v1.488z" fill="#3BEE81"/><g opacity=".34"><path opacity=".34" d="M15.834 18.63c-.731 4.034-.935 4.442-3.644 7.805-.746.926-1.506 1.854-2.141 2.856-3.291 5.192-1.8 11.89 3.394 15.407 4.9 3.32 11.873 2.07 15.463-2.77 3.437-4.634 2.6-12.502-1.711-15.943-.258-.206-.624-.273-1.035-.444-.073 2.296-.32 4.364-2.777 5.74.664-6.303-2.103-10.248-7.55-12.651z" fill="url(#jpaint2_linear)"/><path opacity=".34" d="M15.834 18.63c5.447 2.403 8.213 6.348 7.549 12.65 2.458-1.376 2.704-3.443 2.777-5.74.41.171.777.239 1.035.444 4.31 3.441 5.148 11.31 1.711 15.943-3.59 4.842-10.563 6.09-15.463 2.77-5.194-3.518-6.685-10.215-3.394-15.406.635-1.003 1.395-1.93 2.141-2.857 2.709-3.362 2.912-3.77 3.644-7.804z" fill="url(#jpaint3_linear)"/></g><defs><linearGradient id="jpaint0_linear" x1=".051" y1="14.691" x2="36.097" y2="40.928" gradientUnits="userSpaceOnUse"><stop stop-color="#3BEC80"/><stop offset="1" stop-color="#3BEC80" stop-opacity="0"/></linearGradient><linearGradient id="jpaint1_linear" x1="-6.064" y1="7.507" x2="38.475" y2="39.926" gradientUnits="userSpaceOnUse"><stop stop-color="#3BEC80"/><stop offset="1" stop-color="#3BEC80" stop-opacity="0"/></linearGradient><linearGradient id="jpaint2_linear" x1="-.378" y1="8.131" x2="25.482" y2="42.533" gradientUnits="userSpaceOnUse"><stop stop-color="#3BEC80"/><stop offset="1" stop-color="#3BEC80" stop-opacity="0"/></linearGradient><linearGradient id="jpaint3_linear" x1="-.378" y1="8.131" x2="25.482" y2="42.533" gradientUnits="userSpaceOnUse"><stop stop-color="#3BEC80"/><stop offset="1" stop-color="#3BEC80" stop-opacity="0"/></linearGradient></defs></svg><svg width="48" height="47" fill="none" viewBox="-2 -2 48 47" id="circulating-supply" x="238" y="94" xmlns="http://www.w3.org/2000/svg"><circle cx="22" cy="22" r="6" stroke="#00C26F" stroke-width="3"/><path d="M6.4 11.2c-2.3 3.2-3.7 7.1-3.7 11.3 0 10.5 8.5 19 19 19" stroke="#2B2B37" stroke-width="3" stroke-miterlimit="10" stroke-linecap="round" stroke-linejoin="round"/><path d="M2 11.1L7 10l1.1 5M37.656 32.436c2.153-3.3 3.375-7.26 3.184-11.456C40.365 10.491 31.49 2.386 21 2.86" stroke="#2B2B37" stroke-width="3" stroke-miterlimit="10" stroke-linecap="round" stroke-linejoin="round"/><path d="M42.056 31.896l-4.945 1.325-1.325-4.945" stroke="#2B2B37" stroke-width="3" stroke-miterlimit="10" stroke-linecap="round" stroke-linejoin="round"/></svg><svg width="47" height="46" fill="none" viewBox="-2 -2 47 46" id="coin-supply" x="290" y="292" xmlns="http://www.w3.org/2000/svg"><path d="M36.4 17.5c-.8-9-8.3-16-17.4-16C9.3 1.5 1.5 9.3 1.5 19S9.3 36.5 19 36.5" stroke="#2B2B37" stroke-width="3" stroke-miterlimit="10" stroke-linecap="round" stroke-linejoin="round"/><path d="M19 40.3c12.3 0 22.3-10 22.3-22.3H19v22.3z" stroke="#00C26F" stroke-width="3" stroke-miterlimit="10" stroke-linecap="round" stroke-linejoin="round"/></svg><svg width="132" height="118" fill="none" viewBox="-2 -2 132 118" id="find" x="292" y="144" xmlns="http://www.w3.org/2000/svg"><path d="M25.92 40.07h13.764v-3.458H25.92v3.457zM34.522 50.443h20.31v-3.458h-20.31v3.458z" fill="#3B3643"/><path d="M32.687 20.517c12.352 0 22.365 10.063 22.365 22.476 0 12.413-10.013 22.475-22.365 22.475-12.351 0-22.364-10.063-22.364-22.476.014-12.406 10.019-22.46 22.364-22.475zm0 48.409c14.253 0 25.806-11.611 25.806-25.934 0-14.322-11.553-25.933-25.806-25.933-14.252 0-25.805 11.611-25.805 25.933.016 14.316 11.56 25.918 25.805 25.934z" fill="#3B3643"/><path d="M32.687 62.01v-3.457c-8.547-.01-15.474-6.971-15.483-15.56h-3.44c.012 10.498 8.477 19.005 18.923 19.017z" fill="#D8DFE9"/><path d="M97.384 108.009a8.571 8.571 0 01-12.165 0L54.807 77.448 66.973 65.22l30.411 30.563c3.359 3.376 3.359 8.849 0 12.225zm-73.298-4.505V91.401c0-.954-.77-1.729-1.72-1.729H10.322v-22.79c10.422 9.935 26.102 11.81 38.553 4.61l3.496 3.512-1.215 1.221a1.734 1.734 0 000 2.445l24.712 24.834H24.085zm-3.441-2.445l-7.89-7.929h7.89v7.929zm12.043-87.458c16.152 0 29.246 13.16 29.246 29.392s-13.094 29.39-29.246 29.39c-16.153 0-29.247-13.158-29.247-29.39C3.46 26.767 16.543 13.62 32.688 13.6zm22.117 58.955l-2.98-2.99a32.998 32.998 0 007.305-7.342l2.976 2.995-7.3 7.337h-.001zM92.9 22.246v64.141L68.189 61.554a1.714 1.714 0 00-2.432 0l-1.215 1.22-3.496-3.513c7.166-12.513 5.3-28.27-4.586-38.744h34.72c.95 0 1.72.774 1.72 1.729zm6.917 71.093l-3.476-3.494v-67.6c0-2.864-2.311-5.186-5.162-5.186H52.676C38.456 5.934 17.953 8.501 6.883 22.793c-9.176 11.846-9.176 28.44 0 40.287v28.321c0 .458.182.898.504 1.222l13.763 13.832c.323.324.76.506 1.217.506H79.31l3.475 3.494a12 12 0 0017.032 0c4.703-4.726 4.703-12.39 0-17.116h.001z" fill="#3B3643"/><path d="M66.957 75.004l2.433-2.444L91.283 94.56l-2.432 2.445-21.894-22.002z" fill="#3B3643"/><path d="M39.569 87.945h10.322v-3.458H39.569v3.458zM39.569 96.588h10.322v-3.457H39.569v3.457zM70.535 32.619h3.441v-3.458h-3.441v3.458zM80.858 32.619h3.44v-3.458h-3.44v3.458zM18.924 87.945h13.764v-3.458H18.924v3.458zM70.535 49.907h13.763v-3.458H70.535v3.458zM70.535 41.263h13.763v-3.458H70.535v3.458zM70.535 58.55h13.763v-3.458H70.535v3.458z" fill="#D8DFE9"/><path d="M18.925 87.944c.95 0 1.72-.774 1.72-1.728 0-.955-.77-1.73-1.72-1.73s-1.72.775-1.72 1.73c0 .954.77 1.728 1.72 1.728zM70.535 49.906c.95 0 1.72-.774 1.72-1.729 0-.954-.77-1.728-1.72-1.728s-1.72.774-1.72 1.728c0 .955.77 1.73 1.72 1.73zM70.535 41.263c.95 0 1.72-.774 1.72-1.729 0-.954-.77-1.728-1.72-1.728s-1.72.774-1.72 1.728c0 .955.77 1.729 1.72 1.729zM70.535 58.55c.95 0 1.72-.774 1.72-1.73 0-.954-.77-1.728-1.72-1.728s-1.72.774-1.72 1.729c0 .955.77 1.728 1.72 1.728zM70.535 32.619c.95 0 1.72-.774 1.72-1.73 0-.954-.77-1.728-1.72-1.728s-1.72.774-1.72 1.729c0 .955.77 1.729 1.72 1.729zM15.484 44.721c.95 0 1.72-.774 1.72-1.728 0-.955-.77-1.73-1.72-1.73s-1.72.775-1.72 1.73c0 .954.77 1.728 1.72 1.728zM32.687 62.01c.95 0 1.72-.774 1.72-1.729 0-.954-.77-1.728-1.72-1.728s-1.72.774-1.72 1.728c0 .955.77 1.73 1.72 1.73z" fill="#D8DFE9"/><path d="M25.92 40.07c.95 0 1.72-.775 1.72-1.73 0-.954-.77-1.728-1.72-1.728s-1.72.774-1.72 1.728c0 .955.77 1.73 1.72 1.73zM34.522 50.443c.95 0 1.72-.774 1.72-1.729 0-.954-.77-1.728-1.72-1.728s-1.72.774-1.72 1.728c0 .955.77 1.729 1.72 1.729zM39.684 40.07c.95 0 1.72-.775 1.72-1.73 0-.954-.77-1.728-1.72-1.728s-1.72.774-1.72 1.728c0 .955.77 1.73 1.72 1.73z" fill="#3B3643"/><path d="M80.858 32.619c.95 0 1.72-.774 1.72-1.73 0-.954-.77-1.728-1.72-1.728s-1.72.774-1.72 1.729c0 .955.77 1.729 1.72 1.729zM73.976 32.619c.95 0 1.72-.774 1.72-1.73 0-.954-.77-1.728-1.72-1.728s-1.72.774-1.72 1.729c0 .955.77 1.729 1.72 1.729zM84.299 32.619c.95 0 1.72-.774 1.72-1.73 0-.954-.77-1.728-1.72-1.728s-1.72.774-1.72 1.729c0 .955.77 1.729 1.72 1.729zM29.247 96.588h3.44v-3.457h-3.44v3.457z" fill="#D8DFE9"/><path d="M29.246 96.588c.95 0 1.72-.774 1.72-1.729 0-.954-.77-1.728-1.72-1.728s-1.72.774-1.72 1.728c0 .955.77 1.729 1.72 1.729zM32.688 96.588c.95 0 1.72-.774 1.72-1.729 0-.954-.77-1.728-1.72-1.728s-1.72.774-1.72 1.728c0 .955.77 1.729 1.72 1.729zM32.687 87.945c.95 0 1.72-.774 1.72-1.729 0-.955-.77-1.729-1.72-1.729s-1.72.774-1.72 1.729c0 .955.77 1.729 1.72 1.729zM84.298 49.906c.95 0 1.72-.774 1.72-1.728 0-.955-.77-1.73-1.72-1.73s-1.72.775-1.72 1.73c0 .954.77 1.728 1.72 1.728zM84.298 41.263c.95 0 1.72-.774 1.72-1.729 0-.954-.77-1.728-1.72-1.728s-1.72.774-1.72 1.728c0 .955.77 1.729 1.72 1.729zM84.298 58.55c.95 0 1.72-.774 1.72-1.729 0-.954-.77-1.728-1.72-1.728s-1.72.773-1.72 1.728.77 1.729 1.72 1.729zM39.568 87.945c.95 0 1.72-.774 1.72-1.729 0-.955-.77-1.729-1.72-1.729s-1.72.774-1.72 1.729c0 .955.77 1.729 1.72 1.729zM39.568 96.588c.95 0 1.72-.774 1.72-1.729 0-.954-.77-1.728-1.72-1.728s-1.72.773-1.72 1.728.77 1.729 1.72 1.729z" fill="#D8DFE9"/><path d="M68.173 75.51c.95 0 1.72-.773 1.72-1.728s-.77-1.728-1.72-1.728-1.72.773-1.72 1.728.77 1.729 1.72 1.729zM90.067 97.513c.95 0 1.72-.774 1.72-1.729 0-.955-.77-1.729-1.72-1.729s-1.72.774-1.72 1.729c0 .955.77 1.729 1.72 1.729z" fill="#3B3643"/><path d="M49.891 87.945c.95 0 1.72-.774 1.72-1.729 0-.955-.77-1.729-1.72-1.729s-1.72.774-1.72 1.73c0 .954.77 1.728 1.72 1.728zM49.891 96.588c.95 0 1.72-.774 1.72-1.729 0-.954-.77-1.728-1.72-1.728s-1.72.774-1.72 1.728c0 .955.77 1.729 1.72 1.729z" fill="#D8DFE9"/><path fill-rule="evenodd" clip-rule="evenodd" d="M104.851 0h-.03c-.008 5.013-4.05 9.075-9.038 9.083 4.993.009 9.038 4.078 9.038 9.099v.014h.03v-.014c0-5.02 4.045-9.09 9.038-9.098-4.988-.009-9.03-4.07-9.038-9.084zM122.106 19.404h-.019c-.005 3.269-2.64 5.917-5.893 5.922 3.256.006 5.893 2.66 5.893 5.933v.01h.019v-.01c0-3.273 2.638-5.927 5.894-5.932-3.253-.006-5.888-2.654-5.894-5.923z" fill="#3BEE81"/></svg><svg width="42" height="47" fill="none" viewBox="-2 -2 42 47" id="fire" x="242" y="340" xmlns="http://www.w3.org/2000/svg"><path d="M0 17.041c1.653 0 1.975-.319 1.975-1.96 0 1.641.321 1.96 1.975 1.96-1.653 0-1.975.32-1.975 1.96 0-1.64-.322-1.96-1.975-1.96zM32.29 2.178c1.838 0 2.195-.354 2.195-2.178 0 1.824.358 2.178 2.195 2.178-1.837 0-2.195.355-2.195 2.178 0-1.823-.357-2.178-2.194-2.178z" fill="#3BEE81"/><path opacity=".63" d="M26.247 42.458c1.492-6.926 1.73-13.4-3.425-18.977l-2.705 7.63-.792-.225-.983-3.313c-1.657 2.641-3.262 5.074-4.734 7.584-1.508 2.571-.154 4.813 1.105 7.044-6.088-.456-11.528-8.628-9.953-14.87.183-.723.397-1.46.733-2.12 1.62-3.191 5.154-8.183 5.591-12.428.795 1.09 1.747 2.547 2.047 6.27 3.038-2.431 5.438-8.377 3.913-14.74 4.232.76 8.08 3.346 11.37 11.834 1.368-2.418.298-3.781.51-4.747 4.337 1.349 8.726 11.436 8.307 18.173-.411 6.592-4.616 11.66-10.984 12.885z" fill="#3BEE81"/></svg><svg width="22" height="16" fill="none" viewBox="-2 -2 22 16" id="list" x="337" y="262" xmlns="http://www.w3.org/2000/svg"><path d="M5 1h12M5 6h12M5 11h12M1 1h1M1 6h1M1 11h1" stroke="#5C5780" stroke-width="2" stroke-linecap="round"/></svg><svg width="54" height="49" fill="none" viewBox="-2 -2 54 49" id="locked-amount" x="148" y="45" xmlns="http://www.w3.org/2000/svg"><path d="M17 10V6a4 4 0 00-4-4h-2a4 4 0 00-4 4v4" stroke="#2B2B37" stroke-width="3"/><circle cx="34" cy="29" r="14" stroke="#00C26F" stroke-width="3"/><circle cx="24" cy="29" r="14" fill="#F6F4F8" stroke="#00C26F" stroke-width="3"/><path d="M2 13a2 2 0 012-2h16a2 2 0 012 2v7a7 7 0 01-7 7H9a7 7 0 01-7-7v-7z" fill="#F6F4F8" stroke="#2B2B37" stroke-width="3"/></svg><svg width="48" height="48" fill="none" viewBox="-2 -2 48 48" id="price" x="242" y="292" xmlns="http://www.w3.org/2000/svg"><circle cx="17.197" cy="19.44" r="2.443" transform="rotate(-39.594 17.197 19.44)" stroke="#00C26F" stroke-width="2"/><circle cx="26.931" cy="26.609" r="2.443" transform="rotate(-39.594 26.931 26.609)" stroke="#00C26F" stroke-width="2"/><path d="M27.155 16.912c-.302.249-6.913 8.254-10.181 12.225" stroke="#00C26F" stroke-width="2" stroke-linecap="round" stroke-linejoin="round"/><path d="M34.965 6.88l1.242 7.403L42 19.032l-3.724 6.564 1.38 7.263-6.897 2.654-3.724 6.565-6.897-2.514-6.897 2.653-3.724-6.564-7.034-2.375 1.241-7.402L2 19.45l5.655-4.889L8.76 7.16h7.448l5.655-4.889 5.655 4.75 7.448-.14z" stroke="#2B2B37" stroke-width="3" stroke-miterlimit="10" stroke-linecap="round" stroke-linejoin="round"/></svg><svg width="125" height="118" fill="none" viewBox="-2 -2 125 118" id="report" y="292" xmlns="http://www.w3.org/2000/svg"><g clip-path="url(#rclip0)"><path d="M73.952 27.02h6.862v-3.598h-6.862v3.599zM101.867 67.059h6.862v-3.6h-6.862v3.6zM56.505 47.91h24.31v-3.6h-24.31v3.6zM32.081 47.91h13.84v-3.6H32.08v3.6zM32.081 58.355H52.9v-3.6H32.08v3.6zM70.463 67.058h20.818v-3.6H70.463v3.6zM70.463 77.503h38.265v-3.6H70.463v3.6zM70.463 87.948h38.265v-3.6H70.463v3.6zM32.08 27.02h31.288v-3.599H32.08v3.6zM32.08 37.465h48.734v-3.6H32.08v3.6z" fill="#D8DFE9"/><path d="M32.081 27.02c.996 0 1.804-.805 1.804-1.8 0-.993-.808-1.799-1.804-1.799s-1.804.806-1.804 1.8.808 1.8 1.804 1.8zM32.081 37.465c.996 0 1.804-.806 1.804-1.8s-.808-1.8-1.804-1.8-1.804.806-1.804 1.8.808 1.8 1.804 1.8zM73.952 27.02c.996 0 1.804-.805 1.804-1.8 0-.993-.808-1.799-1.804-1.799s-1.803.806-1.803 1.8.807 1.8 1.803 1.8zM101.867 67.058c.996 0 1.804-.806 1.804-1.8s-.808-1.8-1.804-1.8-1.803.806-1.803 1.8.807 1.8 1.803 1.8zM56.506 47.91c.996 0 1.804-.806 1.804-1.8s-.808-1.8-1.804-1.8-1.804.806-1.804 1.8.808 1.8 1.804 1.8zM80.814 27.02c.996 0 1.804-.805 1.804-1.8 0-.993-.808-1.799-1.804-1.799s-1.803.806-1.803 1.8.807 1.8 1.803 1.8zM108.729 67.058c.996 0 1.804-.806 1.804-1.8s-.808-1.8-1.804-1.8-1.804.806-1.804 1.8.808 1.8 1.804 1.8zM80.814 47.91c.996 0 1.804-.806 1.804-1.8s-.808-1.8-1.804-1.8-1.803.806-1.803 1.8.807 1.8 1.803 1.8zM63.368 27.02c.996 0 1.803-.805 1.803-1.8 0-.993-.807-1.799-1.803-1.799-.997 0-1.804.806-1.804 1.8s.807 1.8 1.804 1.8zM45.92 47.91c.996 0 1.804-.806 1.804-1.8s-.807-1.8-1.804-1.8c-.996 0-1.803.806-1.803 1.8s.807 1.8 1.803 1.8zM52.9 58.355c.995 0 1.803-.806 1.803-1.8s-.808-1.8-1.804-1.8-1.803.806-1.803 1.8.807 1.8 1.803 1.8zM91.281 67.058c.996 0 1.804-.806 1.804-1.8s-.808-1.8-1.804-1.8-1.803.806-1.803 1.8.807 1.8 1.803 1.8zM108.728 77.503c.997 0 1.804-.806 1.804-1.8s-.807-1.8-1.804-1.8c-.996 0-1.803.806-1.803 1.8s.807 1.8 1.803 1.8zM108.728 87.948c.997 0 1.804-.806 1.804-1.8s-.807-1.8-1.804-1.8c-.996 0-1.803.806-1.803 1.8s.807 1.8 1.803 1.8zM32.081 47.91c.996 0 1.804-.806 1.804-1.8s-.808-1.8-1.804-1.8-1.804.806-1.804 1.8.808 1.8 1.804 1.8zM32.081 58.355c.996 0 1.804-.806 1.804-1.8s-.808-1.8-1.804-1.8-1.804.806-1.804 1.8.808 1.8 1.804 1.8zM70.464 67.058c.996 0 1.803-.806 1.803-1.8s-.807-1.8-1.803-1.8c-.997 0-1.804.806-1.804 1.8s.807 1.8 1.804 1.8zM70.464 77.503c.996 0 1.803-.806 1.803-1.8s-.807-1.8-1.803-1.8c-.997 0-1.804.806-1.804 1.8s.807 1.8 1.804 1.8zM70.464 87.948c.996 0 1.803-.806 1.803-1.8s-.807-1.8-1.803-1.8c-.997 0-1.804.806-1.804 1.8s.807 1.8 1.804 1.8zM80.814 37.465c.996 0 1.804-.806 1.804-1.8s-.808-1.8-1.804-1.8-1.803.806-1.803 1.8.807 1.8 1.803 1.8z" fill="#D8DFE9"/><path fill-rule="evenodd" clip-rule="evenodd" d="M9.506 65.652h-.03c-.01 5.218-4.246 9.446-9.477 9.455 5.236.008 9.476 4.245 9.476 9.47v.015h.03v-.015c0-5.226 4.241-9.462 9.476-9.47-5.23-.009-9.467-4.236-9.476-9.455h.001zM27.597 85.85h-.02c-.006 3.402-2.768 6.158-6.179 6.163v.001c3.414.006 6.178 2.767 6.178 6.175v.01h.02v-.01c0-3.407 2.765-6.17 6.179-6.175-3.41-.006-6.173-2.762-6.178-6.165zM100.582 0h-.021c-.005 3.403-2.768 6.16-6.178 6.164 3.413.007 6.178 2.768 6.178 6.176v.01h.021l-.001-.01c0-3.407 2.765-6.17 6.179-6.175-3.41-.006-6.173-2.762-6.178-6.165z" fill="#3BEE81"/><path d="M28.532 68.74h6.98v12.186a1.743 1.743 0 002.977 1.23L51.936 68.74h6.256v-3.481h-6.978c-.463 0-.907.183-1.234.51L39 76.723v-9.725c0-.96-.78-1.74-1.744-1.74h-8.723c-4.816-.006-8.717-3.9-8.723-8.705V21.74c.006-4.805 3.908-8.698 8.723-8.704h55.83c4.815.006 8.717 3.9 8.722 8.704v29.593h3.49V21.74c-.008-6.726-5.47-12.178-12.213-12.185H28.533c-6.742.007-12.205 5.459-12.213 12.185v34.816c.008 6.726 5.471 12.178 12.213 12.185z" fill="#3B3643"/><path d="M108.787 51.332H70.405c-6.742.008-12.206 5.459-12.214 12.186v24.37c.008 6.727 5.471 12.179 12.214 12.187h18.469l13.446 13.416a1.743 1.743 0 002.978-1.23v-12.186h3.489c6.742-.007 12.205-5.458 12.213-12.186v-24.37c-.008-6.728-5.471-12.178-12.213-12.186zm8.724 36.556c-.006 4.805-3.909 8.7-8.724 8.704h-5.233c-.964 0-1.745.78-1.745 1.741v9.724l-10.98-10.955a1.746 1.746 0 00-1.232-.51H70.405c-4.815-.005-8.718-3.9-8.723-8.704v-24.37c.006-4.805 3.908-8.699 8.723-8.704h38.383c4.816.005 8.717 3.9 8.723 8.704v24.37h.001-.001z" fill="#3B3643"/></g><defs><clipPath id="rclip0"><path fill="#fff" d="M0 0h121v114H0z"/></clipPath></defs></svg><svg width="117" height="117" fill="none" viewBox="-2 -2 117 117" id="reward" x="125" y="292" xmlns="http://www.w3.org/2000/svg"><path d="M7.195 98.46V77.233H3.598V98.46h3.597z" fill="#3B3643"/><path d="M7.196 98.46a1.798 1.798 0 10-3.597.001 1.798 1.798 0 003.597 0z" fill="#3B3643"/><path d="M39.55 43.348a1.883 1.883 0 100-3.766 1.883 1.883 0 000 3.766zM56.5 26.406a1.883 1.883 0 100-3.766 1.883 1.883 0 000 3.766zM73.449 43.348a1.883 1.883 0 100-3.766 1.883 1.883 0 000 3.766zM56.5 60.29a1.883 1.883 0 100-3.766 1.883 1.883 0 000 3.767z" fill="#D8DFE9"/><path fill-rule="evenodd" clip-rule="evenodd" d="M26.382 0h-.03c-.01 5.214-4.235 9.439-9.452 9.447 5.222.009 9.452 4.242 9.452 9.463v.015h.03v-.015c0-5.222 4.23-9.454 9.451-9.463-5.216-.008-9.442-4.233-9.45-9.447zM94.176 50.355h-.02a6.17 6.17 0 01-6.163 6.16 6.171 6.171 0 016.163 6.17v.01h.02v-.01a6.171 6.171 0 016.162-6.17 6.17 6.17 0 01-6.162-6.16z" fill="#3BEE81"/><path d="M56.5 67.82c14.561 0 26.366-11.8 26.366-26.355S71.061 15.111 56.5 15.111c-14.563 0-26.367 11.8-26.367 26.354.016 14.55 11.811 26.34 26.367 26.355zm0-48.944c12.48 0 22.6 10.113 22.6 22.59 0 12.476-10.12 22.59-22.6 22.59-12.481 0-22.6-10.114-22.6-22.59.014-12.471 10.123-22.577 22.6-22.59zM108.873 78.893a8.835 8.835 0 00-8.54-.521l-21.775 10.31a8.472 8.472 0 00-7.933-11.45h-22.78a26.731 26.731 0 00-31.158-3.89l-.225.126H0v3.765h15.067v32.002H0V113h66.227a35.829 35.829 0 0017.928-4.813l24.418-14.13a8.87 8.87 0 004.425-7.498 8.867 8.867 0 00-4.125-7.666zm-2.186 11.905l-24.418 14.129a32.051 32.051 0 01-16.042 4.308H18.834V76.461a22.944 22.944 0 0126.917 3.985c.354.353.833.552 1.332.552h23.542a4.706 4.706 0 110 9.412H47.083a1.883 1.883 0 100 3.766h28.25c.279-.004.554-.068.805-.19l25.802-12.219a5.1 5.1 0 014.74 9.023l.007.008z" fill="#3B3643"/><path d="M41.433 41.465c.009-8.313 6.75-15.05 15.067-15.06v-3.764c-10.397.01-18.822 8.432-18.834 18.824h3.767zM56.5 60.29c10.397-.011 18.822-8.433 18.832-18.825h-3.766c-.01 8.313-6.75 15.05-15.066 15.06v3.765z" fill="#D8DFE9"/><path d="M54.616 32.053a5.649 5.649 0 00-5.65 5.647 5.65 5.65 0 005.65 5.648h3.767a1.883 1.883 0 110 3.765H50.85v3.765h3.766v1.883h3.767v-1.883a5.649 5.649 0 100-11.295h-3.767a1.883 1.883 0 110-3.765h7.534v-3.765h-3.767v-1.882h-3.767v1.882z" fill="#3B3643"/></svg></svg>