<?xml version="1.0" encoding="utf-8"?><svg width="1561" height="957" viewBox="0 0 1561 957" xmlns="http://www.w3.org/2000/svg" xmlns:xlink="http://www.w3.org/1999/xlink"><svg width="24" height="30" fill="none" viewBox="-2 -2 24 30" id="arrow" x="799" y="783" xmlns="http://www.w3.org/2000/svg"><path d="M18.189 15.767l-8.478 8.478-8.479-8.478M9.886 17.264V1.636" stroke="#3BEE81" stroke-width="1.953" stroke-linecap="round" stroke-linejoin="round"/></svg><svg width="50" height="49" fill="none" viewBox="-2 -2 50 49" id="atomic" x="56" y="900" xmlns="http://www.w3.org/2000/svg"><path d="M38.127 42.134L25.98 8.72c-.723-1.998-2.515-2.154-3.066-2.154h-.017c-.534 0-2.343.156-3.067 2.171L7.96 42.134 0 44.983 13.697 6.53C15.109 2.57 18.71.017 22.862 0h.035c4.152 0 7.752 2.536 9.182 6.478L46 45l-7.873-2.866z" fill="url(#abpaint0_radial)"/><path d="M23 36c3.314 0 6-2.91 6-6.5S26.314 23 23 23s-6 2.91-6 6.5 2.686 6.5 6 6.5z" fill="url(#abpaint1_radial)"/><defs><radialGradient id="abpaint0_radial" cx="0" cy="0" r="1" gradientUnits="userSpaceOnUse" gradientTransform="matrix(38.0355 0 0 38.3432 20.53 6.426)"><stop offset=".075" stop-color="#3FBFFE"/><stop offset=".83" stop-color="#2291FC"/></radialGradient><radialGradient id="abpaint1_radial" cx="0" cy="0" r="1" gradientUnits="userSpaceOnUse" gradientTransform="matrix(39.1902 0 0 42.456 20.42 3.02)"><stop offset=".075" stop-color="#3FBFFE"/><stop offset=".83" stop-color="#2291FC"/></radialGradient></defs></svg><svg width="56" height="57" fill="none" viewBox="-2 -2 56 57" id="bnb" y="900" xmlns="http://www.w3.org/2000/svg"><g clip-path="url(#acclip0)" fill="#fff"><path d="M38.867 34.486v-5.392l-4.291 2.442v5.29l4.291-2.34zM20.902 45.065v5.494L25.293 53l4.292-2.441v-5.494l-4.292 2.34-4.391-2.34zM43.558 36.724l-8.982 5.493v5.493l13.274-8.138V23.906l-4.292 2.34v10.478zM38.967 23.6v-5.086l-4.491-2.543-8.983 5.494-8.883-5.392-4.491 2.645v5.086l8.783 5.29v10.478l4.392 2.441 4.391-2.441V29.399l9.282-5.798zM25.194 15.87l4.491-2.747-4.292-2.645-4.491 2.746 4.292 2.645zM43.758 10.274l-4.591 2.849 4.491 2.645v4.985l4.591-2.849V12.92l-4.491-2.645z"/><path d="M24.894 5.29l9.282 5.086 4.592-2.95L25.094 0 21.8 2.035l-1.297.813-8.584 5.29 4.192 2.543 8.783-5.391zM11.82 34.486l4.49 2.746v-5.086l-4.49-2.747v5.087zM7.527 15.87l4.392-2.645-4.591-2.849-4.492 2.645v4.985l4.691 2.848V15.87zM7.428 26.653l-4.691-2.849v15.87l3.393 2.034 1.298.814 8.683 5.188v-4.985l-8.683-5.391V26.653z"/></g><defs><clipPath id="acclip0"><path fill="#fff" transform="translate(2.737)" d="M0 0h45.513v53H0z"/></clipPath></defs></svg><svg width="68" height="68" fill="none" viewBox="-2 -2 68 68" id="cake" x="173" y="813" xmlns="http://www.w3.org/2000/svg"><path opacity=".04" fill-rule="evenodd" clip-rule="evenodd" d="M32 64c17.673 0 32-14.327 32-32C64 14.327 49.673 0 32 0 14.327 0 0 14.327 0 32c0 17.673 14.327 32 32 32z" fill="#3D3D70"/><rect x="17" y="29" width="29" height="14" rx="2" stroke="#2B2B37" stroke-width="2" stroke-linejoin="round"/><path d="M32 28v-7M38 28v-5M26 28v-5" stroke="#2B2B37" stroke-width="2" stroke-linecap="round"/><path d="M17 33.5h29" stroke="#2B2B37" stroke-width="2"/><path d="M33 17a1 1 0 11-2 0c0-.552.448-2 1-2s1 1.448 1 2zM39 19a1 1 0 11-2 0c0-.552.448-2 1-2s1 1.448 1 2zM27 19a1 1 0 11-2 0c0-.552.448-2 1-2s1 1.448 1 2z" fill="#2B2B37" stroke="#2B2B37"/></svg><svg width="34" height="31" fill="none" viewBox="-2 -2 34 31" id="coin" x="1084" y="813" xmlns="http://www.w3.org/2000/svg"><g clip-path="url(#aeclip0)" stroke="#3BEE81" stroke-miterlimit="10" stroke-linecap="round" stroke-linejoin="round"><path d="M20.526 4.737H2.871c-.574 0-1.005-.43-1.005-.861V1.579A.981.981 0 012.871.574h17.655a.981.981 0 011.005 1.005v2.297c0 .43-.43.86-1.005.86z"/><path d="M19.09 9.043H1.58A.981.981 0 01.574 8.038V5.742A.981.981 0 011.58 4.737h17.655c.431 0 .862.43.862 1.005v2.296a.981.981 0 01-1.005 1.005z"/><path d="M20.383 13.35H2.727c-.43 0-1.004-.431-1.004-1.006v-2.296a.981.981 0 011.004-1.005h17.656a.981.981 0 011.005 1.005v2.296a.981.981 0 01-1.005 1.005z"/><path d="M21.962 17.368H4.306a.981.981 0 01-1.005-1.004V14.21a.981.981 0 011.005-1.004h17.656a.981.981 0 011.005 1.005v2.296c0 .43-.431.861-1.005.861z"/><path d="M19.234 21.531H1.58a.981.981 0 01-1.005-1.005V18.23a.981.981 0 011.005-1.005h17.655a.981.981 0 011.005 1.005v2.296a.981.981 0 01-1.005 1.005z"/><path d="M20.526 25.837H3.014a.981.981 0 01-1.004-1.005v-2.296a.981.981 0 011.004-1.005H20.67a.981.981 0 011.005 1.005v2.296c-.144.575-.575 1.005-1.149 1.005z"/><path d="M20.383 26.411a9.187 9.187 0 100-18.373 9.187 9.187 0 000 18.373z" fill="#36324A"/><path d="M20.383 23.397a6.172 6.172 0 100-12.344 6.172 6.172 0 000 12.344z" fill="#36324A"/></g><defs><clipPath id="aeclip0"><path fill="#fff" d="M0 0h30v26.986H0z"/></clipPath></defs></svg><svg width="83" height="77" fill="none" viewBox="-2 -2 83 77" id="coins" x="90" y="813" xmlns="http://www.w3.org/2000/svg"><path d="M57.482 12.438h-45.32c-1.474 0-2.58-1.106-2.58-2.211V4.33c0-1.473 1.106-2.579 2.58-2.579h45.32c1.474 0 2.58 1.106 2.58 2.58v5.895c0 1.105-1.106 2.21-2.58 2.21zM48.101 24.168H5.849c-1.474 0-2.579-1.106-2.579-2.58v-5.895c0-1.474 1.105-2.579 2.58-2.579h45.32c1.105 0 2.21 1.105 2.21 2.58v5.895c0 .754-.289 1.411-.769 1.874M32.755 35.53H7.112c-1.105 0-2.58-1.106-2.58-2.58v-5.895c0-1.474 1.106-2.58 2.58-2.58H46.01M29.599 46.523h-17.8c-1.474 0-2.58-1.105-2.58-2.58v-5.526c0-1.474 1.106-2.58 2.58-2.58h20.956M29.599 47.23h-24.8c-1.474 0-2.58 1.105-2.58 2.579v5.895c0 1.474 1.106 2.58 2.58 2.58h27.325" stroke="#fff" stroke-width="2.525" stroke-miterlimit="10" stroke-linecap="round" stroke-linejoin="round"/><path d="M31.493 58.283H8.483c-1.474 0-2.58 1.106-2.58 2.58v5.895c0 1.474 1.106 2.58 2.58 2.58h36.896" stroke="#fff" stroke-width="2.525" stroke-miterlimit="10" stroke-linecap="round" stroke-linejoin="round"/><path d="M53.363 70.811c13.023 0 23.581-10.558 23.581-23.581 0-13.024-10.558-23.582-23.581-23.582-13.024 0-23.582 10.558-23.582 23.582 0 13.023 10.558 23.581 23.582 23.581z" stroke="#fff" stroke-width="2.525" stroke-miterlimit="10" stroke-linecap="round" stroke-linejoin="round"/><path d="M53.363 63.074c8.75 0 15.844-7.094 15.844-15.844s-7.093-15.844-15.844-15.844c-8.75 0-15.843 7.094-15.843 15.844s7.093 15.844 15.843 15.844z" stroke="#fff" stroke-width="2.525" stroke-miterlimit="10" stroke-linecap="round" stroke-linejoin="round"/></svg><svg width="68" height="68" fill="none" viewBox="-2 -2 68 68" id="deliver" x="241" y="813" xmlns="http://www.w3.org/2000/svg"><path opacity=".04" fill-rule="evenodd" clip-rule="evenodd" d="M32 64c17.673 0 32-14.327 32-32C64 14.327 49.673 0 32 0 14.327 0 0 14.327 0 32c0 17.673 14.327 32 32 32z" fill="#3D3D70"/><path d="M47.056 36.998h-3.984l-5.228-17.63-6.86 24.045-6.86-13.622-3.603 7.207h-3.983" stroke="#2B2B37" stroke-width="2" stroke-linecap="round" stroke-linejoin="round"/></svg><svg width="68" height="68" fill="none" viewBox="-2 -2 68 68" id="discuss" x="309" y="813" xmlns="http://www.w3.org/2000/svg"><path opacity=".04" fill-rule="evenodd" clip-rule="evenodd" d="M32 64c17.673 0 32-14.327 32-32C64 14.327 49.673 0 32 0 14.327 0 0 14.327 0 32c0 17.673 14.327 32 32 32z" fill="#3D3D70"/><path d="M47 31V17a1 1 0 00-1-1H20a1 1 0 00-1 1v29a1 1 0 001 1h7.053M47 35.665V46a1 1 0 01-1 1H35.325M41 25H24M39 32H24M33 38h-9" stroke="#2B2B37" stroke-width="2" stroke-miterlimit="10" stroke-linecap="round" stroke-linejoin="round"/><path d="M27 50h5.244L49 33.399s-5.031-5.604-5.244-5.393C43.543 28.216 27 44.776 27 44.776V50z" stroke="#2B2B37" stroke-width="2" stroke-miterlimit="10" stroke-linecap="round" stroke-linejoin="round"/></svg><svg width="799" height="813" fill="none" viewBox="-2 -2 799 813" id="ellipse" xmlns="http://www.w3.org/2000/svg"><g opacity=".8" filter="url(#aifilter0_f)"><ellipse cx="371.537" cy="389.315" rx="174.827" ry="138.215" transform="rotate(-41.432 371.537 389.315)" fill="#6D6BD9"/></g><defs><filter id="aifilter0_f" x="-51" y="-30" width="845.073" height="838.63" filterUnits="userSpaceOnUse" color-interpolation-filters="sRGB"><feFlood flood-opacity="0" result="BackgroundImageFix"/><feBlend in="SourceGraphic" in2="BackgroundImageFix" result="shape"/><feGaussianBlur stdDeviation="100" result="effect1_foregroundBlur"/></filter></defs></svg><svg width="762" height="783" fill="none" viewBox="-2 -2 762 783" id="ellipse-green" x="799" xmlns="http://www.w3.org/2000/svg"><ellipse cx="333.5" cy="389.34" rx="260.466" ry="343.022" transform="rotate(-62.527 333.5 389.34)" fill="url(#ajpaint0_radial)"/><defs><radialGradient id="ajpaint0_radial" cx="0" cy="0" r="1" gradientUnits="userSpaceOnUse" gradientTransform="matrix(-49.72359 -266.62204 250.53736 -46.72388 321.661 364.393)"><stop stop-color="#3BEE81"/><stop offset=".459" stop-color="#3BEE81" stop-opacity=".525"/><stop offset="1" stop-color="#3BEE81" stop-opacity="0"/></radialGradient></defs></svg><svg width="34" height="37" fill="none" viewBox="-2 -2 34 37" id="fb" x="192" y="900" xmlns="http://www.w3.org/2000/svg"><path d="M1.656 32.5C.74 32.5 0 31.697 0 30.706V1.794C0 .803.741 0 1.656 0h26.688C29.26 0 30 .803 30 1.794v28.912c0 .99-.741 1.794-1.656 1.794H20.7V19.914h3.9l.584-4.905H20.7v-3.131c0-1.42.364-2.388 2.243-2.388l2.398-.001V5.102c-.415-.06-1.838-.193-3.494-.193-3.457 0-5.823 2.285-5.823 6.483v3.617h-3.91v4.905h3.91V32.5H1.656z" fill="#3BEE81"/></svg><svg width="68" height="68" fill="none" viewBox="-2 -2 68 68" id="mail" x="377" y="813" xmlns="http://www.w3.org/2000/svg"><path opacity=".04" fill-rule="evenodd" clip-rule="evenodd" d="M32 64c17.673 0 32-14.327 32-32C64 14.327 49.673 0 32 0 14.327 0 0 14.327 0 32c0 17.673 14.327 32 32 32z" fill="#fff"/><rect x="16" y="44" width="24" height="32" rx="3" transform="rotate(-90 16 44)" stroke="#fff" stroke-width="2" stroke-linecap="round" stroke-linejoin="round"/><path d="M18 22l14 12 14-12" stroke="#fff" stroke-width="2" stroke-linecap="round" stroke-linejoin="round"/></svg><svg width="34" height="34" fill="none" viewBox="-2 -2 34 34" id="medium" x="226" y="900" xmlns="http://www.w3.org/2000/svg"><path d="M0 0v30h30V0H0zm24.923 7.108l-1.615 1.538a.5.5 0 00-.185.446v11.339c-.03.169.046.338.185.446l1.569 1.538v.339h-7.908v-.339l1.631-1.584c.154-.154.154-.2.154-.446V11.23L14.23 22.723h-.616L8.37 11.231v7.708a1.03 1.03 0 00.293.876l2.107 2.585v.338h-6V22.4l2.123-2.57c.231-.23.323-.568.277-.876V10.03a.78.78 0 00-.261-.662L5.03 7.108v-.339h5.846l4.523 9.908 3.954-9.908h5.57v.339z" fill="#3BEE81"/></svg><svg width="67" height="42" fill="none" viewBox="-2 -2 67 42" id="now" x="853" y="813" xmlns="http://www.w3.org/2000/svg"><path fill-rule="evenodd" clip-rule="evenodd" d="M5.803 37.85h-3.06v-6.668H0v-2.031h8.545v2.031H5.803v6.667zM17.565 29c3.219 0 5.247 1.724 5.247 4.503S20.784 38 17.565 38c-3.226 0-5.247-1.718-5.247-4.497S14.346 29 17.565 29zm0 2.038c-1.277 0-2.129.958-2.129 2.465 0 1.501.845 2.46 2.13 2.46 1.284 0 2.128-.959 2.128-2.46 0-1.507-.851-2.465-2.129-2.465zm12.982 6.811h-3.06v-8.698h3.06v3.69h.058l3.219-3.69h3.212l-3.428 3.864 3.587 4.834h-3.559l-2.273-3.194-.816.916v2.278zm18.2-2.031v2.031H41.4v-8.698h7.347v2.031H44.46v1.405h4.02v1.832h-4.02v1.399h4.287zm7.8 2.031h-2.886v-8.698h2.374l4.02 4.509h.058v-4.51H63v8.7h-2.346l-4.049-4.582h-.057v4.581zM4.906 17.698H0V.301h4.035l6.832 9.018h.098V.301h4.906v17.397h-3.986l-6.88-9.163h-.099v9.163zM27.649 0c5.47 0 8.916 3.448 8.916 9.006S33.12 18 27.65 18c-5.483 0-8.917-3.436-8.917-8.994S22.179 0 27.649 0zm0 4.075c-2.171 0-3.618 1.917-3.618 4.93 0 3.003 1.435 4.92 3.618 4.92s3.618-1.917 3.618-4.92c0-3.013-1.447-4.93-3.618-4.93zM50.796 7.74l-2.637 9.958h-4.906L38.691.301h5.372l2.036 10.995h.098L48.834.301h4.023l2.637 10.995h.098L57.628.301H63l-4.563 17.397h-4.906L50.894 7.74h-.098z" fill="#fff"/></svg><svg width="68" height="68" fill="none" viewBox="-2 -2 68 68" id="partners" x="445" y="813" xmlns="http://www.w3.org/2000/svg"><path opacity=".04" fill-rule="evenodd" clip-rule="evenodd" d="M32 64c17.673 0 32-14.327 32-32C64 14.327 49.673 0 32 0 14.327 0 0 14.327 0 32c0 17.673 14.327 32 32 32z" fill="#3D3D70"/><path d="M28.456 15.096a4 4 0 015.088 0l.836.69a4 4 0 002.16.894l1.079.104a4 4 0 013.597 3.597l.104 1.08a4 4 0 00.895 2.159l.689.836a4 4 0 010 5.088l-.69.836a4 4 0 00-.894 2.16l-.104 1.079a4 4 0 01-3.597 3.597l-1.08.104a4 4 0 00-2.159.895l-.836.689a4 4 0 01-5.088 0l-.836-.69a4 4 0 00-2.16-.894l-1.079-.104a4 4 0 01-3.597-3.597l-.104-1.08a4 4 0 00-.895-2.159l-.689-.836a4 4 0 010-5.088l.69-.836a4 4 0 00.894-2.16l.104-1.079a4 4 0 013.597-3.597l1.08-.104a4 4 0 002.159-.895l.836-.689z" stroke="#2B2B37" stroke-width="2"/><path d="M26 37v12.5l5.26-2.77L37 49.5v-12" stroke="#2B2B37" stroke-width="2" stroke-linejoin="round"/><path d="M26 27.5l3.85 3.5L37 23" stroke="#2B2B37" stroke-width="2" stroke-linecap="round" stroke-linejoin="round"/></svg><svg width="34" height="34" fill="none" viewBox="-2 -2 34 34" id="reddit" x="260" y="900" xmlns="http://www.w3.org/2000/svg"><path fill-rule="evenodd" clip-rule="evenodd" d="M0 15c0 8.283 6.717 15 15 15 8.283 0 15-6.717 15-15 0-8.283-6.717-15-15-15C6.717 0 0 6.717 0 15zm16.875 1.875c0 .861.702 1.563 1.563 1.563s1.563-.702 1.563-1.563-.702-1.563-1.563-1.563-1.563.702-1.563 1.563zm-1.872 5.277c.6 0 2.643-.084 3.711-1.149a.41.41 0 000-.573.404.404 0 00-.573 0c-.672.672-2.112.912-3.138.912-1.029 0-2.466-.24-3.138-.912a.404.404 0 00-.573 0 .404.404 0 000 .573c1.065 1.065 3.111 1.149 3.711 1.149zm-3.441-6.84c-.861 0-1.563.702-1.563 1.563s.702 1.563 1.563 1.563 1.563-.702 1.563-1.563-.702-1.563-1.563-1.563zm11.25-2.187c1.209 0 2.187.978 2.187 2.187 0 .894-.537 1.659-1.296 2.001.033.216.051.435.051.657 0 3.366-3.918 6.093-8.751 6.093-4.833 0-8.751-2.727-8.751-6.093 0-.225.018-.447.051-.663a2.187 2.187 0 01.894-4.182 2.17 2.17 0 011.512.609c1.518-1.095 3.618-1.794 5.955-1.854l-.001-.03c-.002-.018-.003-.037.001-.057l1.092-5.145a.385.385 0 01.462-.3l3.636.774c.255-.516.78-.873 1.395-.873a1.562 1.562 0 110 3.126c-.837 0-1.515-.66-1.554-1.488l-3.255-.693-.996 4.689c2.295.081 4.356.777 5.85 1.857a2.171 2.171 0 011.518-.615z" fill="#3BEE81"/></svg><svg width="68" height="68" fill="none" viewBox="-2 -2 68 68" id="team" x="513" y="813" xmlns="http://www.w3.org/2000/svg"><path opacity=".04" fill-rule="evenodd" clip-rule="evenodd" d="M32 64c17.673 0 32-14.327 32-32C64 14.327 49.673 0 32 0 14.327 0 0 14.327 0 32c0 17.673 14.327 32 32 32z" fill="#3D3D70"/><g clip-path="url(#aqclip0)" stroke="#2B2B37" stroke-width="2" stroke-miterlimit="10" stroke-linecap="round" stroke-linejoin="round"><path d="M27.074 30.477a5.773 5.773 0 100-11.546 5.773 5.773 0 000 11.546zM40.668 33.121a4.134 4.134 0 100-8.268 4.134 4.134 0 000 8.268zM32.614 33.526c-.318-.08-.645.037-.89.254a7.032 7.032 0 01-4.687 1.762 6.919 6.919 0 01-4.694-1.795c-.241-.22-.565-.342-.883-.267a6.258 6.258 0 00-4.814 6.084v3.581a1 1 0 001 1h18.67a1 1 0 001-1v-3.58c0-2.91-2.013-5.358-4.703-6.04zM40.373 44h6.955a.972.972 0 00.972-.972v-3.154a4.82 4.82 0 00-3.477-4.624c-.31-.09-.635.027-.882.237a5.366 5.366 0 01-3.495 1.274"/></g><defs><clipPath id="aqclip0"><path fill="#fff" transform="translate(15.491 18)" d="M0 0h33.818v27.3H0z"/></clipPath></defs></svg><svg width="68" height="68" fill="none" viewBox="-2 -2 68 68" id="tel" x="581" y="813" xmlns="http://www.w3.org/2000/svg"><path opacity=".04" fill-rule="evenodd" clip-rule="evenodd" d="M32 64c17.673 0 32-14.327 32-32C64 14.327 49.673 0 32 0 14.327 0 0 14.327 0 32c0 17.673 14.327 32 32 32z" fill="#fff"/><path fill-rule="evenodd" clip-rule="evenodd" d="M46 20.709a6.91 6.91 0 01-.012-.095c-.01-.082-.02-.164-.037-.243-.26-1.249-.943-1.626-2.168-1.207-.12.04-.243.072-.366.103-.06.015-.12.03-.18.047a78.81 78.81 0 00-.638.268c-.47.198-.938.397-1.415.575-.816.308-1.636.601-2.458.895-.337.12-.674.24-1.01.362-.223.092-.445.186-.667.28-.483.205-.966.41-1.454.6-1.233.482-2.468.958-3.703 1.433l-.002.001-1.66.64c-3.68 1.42-7.363 2.838-11.047 4.257-.255.099-.51.196-.766.293-.574.217-1.148.435-1.714.67l-.211.087c-.652.268-1.308.537-1.907.897-.293.176-.616.64-.583.934.023.212.262.403.498.59.094.076.188.151.267.227.04.039.104.056.165.073l.045.013.003.001c1.951.604 3.902 1.208 5.854 1.81-.011.203.012.411.076.617l.71 2.278.933 2.988.186.582.142.446.068.211c.244.766.495 1.552.725 2.322.546 1.825 2.02 1.967 2.458 1.967.049 0 .1-.003.151-.005l.053-.002c.067.002.135.005.202.005 1.127 0 1.85-.621 2.282-.993.08-.07.155-.133.21-.175.09-.067.173-.14.244-.22.029-.03.056-.06.082-.09l.081-.087c.09-.1.176-.196.251-.27.655-.649 1.31-1.296 1.966-1.943l.778-.768.33.226 1.56 1.167.003.002c1.249.934 2.498 1.868 3.751 2.796 1.326.98 2.253.726 2.895-.772l.652-3.028v-.002l.164-.76c.249-1.26.494-2.518.74-3.776.127-.554.252-1.11.377-1.664l.001-.002.092-.408c.414-1.947.828-3.896 1.24-5.843.078-.358.154-.716.23-1.074v-.001l.17-.79c.012-.058.026-.117.04-.175.02-.09.042-.18.06-.269.383-1.813.763-3.624 1.144-5.437l.119-.564zM29.08 37.962l1.108.825 1.283.956-.497.49-.002.002-1.999 1.974c-.046.047-.09.096-.135.145l-.09.097.04-.543c.096-1.315.192-2.632.292-3.946zm1.376-8.077c1.694-1.07 3.387-2.139 5.081-3.207 1.41-.889 2.82-1.776 4.252-2.63.164-.096.382-.104.6-.112.103-.003.206-.007.304-.02-.043.075-.082.155-.12.236-.06.123-.12.247-.195.352a676.537 676.537 0 01-5.131 4.683c-.622.563-1.25 1.12-1.877 1.677-.731.65-1.463 1.299-2.186 1.956a210.47 210.47 0 00-2.143 1.993l-.445.419-.559.524-.102.108-.106.11a7.193 7.193 0 01-.1.094l-.05.046-.084.088c-.111.117-.223.234-.335.349-.08.083-.18.334.049.465a15.25 15.25 0 00-.074.714c-.094 1.236-.183 2.47-.273 3.706l-.173 2.38c-.54.094-.795-.172-.943-.67-.254-.852-.526-1.702-.798-2.55l-.329-1.033a5400.57 5400.57 0 00-1.59-5.088l.014-.006a2.11 2.11 0 00.25-.127c2.355-1.484 4.71-2.97 7.063-4.456z" fill="#fff"/></svg><svg width="40" height="34" fill="none" viewBox="-2 -2 40 34" id="tg" x="1004" y="813" xmlns="http://www.w3.org/2000/svg"><path fill-rule="evenodd" clip-rule="evenodd" d="M35.745 1.908l-.014-.105a3.66 3.66 0 00-.041-.272C35.4.136 34.636-.285 33.268.183c-.135.046-.271.08-.408.115-.068.017-.135.034-.202.053-.238.098-.475.198-.713.299-.523.222-1.047.443-1.58.643-.91.343-1.828.67-2.746.999l-1.128.404-.744.314c-.54.228-1.08.456-1.625.67-1.377.538-2.756 1.07-4.136 1.6l-1.856.716c-4.112 1.586-8.225 3.17-12.34 4.756-.285.11-.57.218-.856.326-.641.243-1.282.486-1.915.75l-.236.096c-.728.3-1.46.6-2.13 1.002-.327.197-.688.715-.65 1.044.025.237.292.45.555.66.105.084.21.167.299.252a.434.434 0 00.184.082l.05.014.004.002c2.179.674 4.358 1.348 6.538 2.02-.012.228.014.46.086.69l.793 2.544 1.042 3.338.208.65v.001l.159.498.075.236c.273.855.553 1.733.81 2.593.61 2.04 2.256 2.197 2.746 2.197.054 0 .111-.003.169-.005l.059-.003c.075.003.15.006.225.006 1.259 0 2.068-.694 2.55-1.109.088-.078.173-.149.234-.196.1-.075.193-.155.273-.245l.091-.1.09-.097c.102-.113.197-.22.28-.303.733-.724 1.463-1.447 2.197-2.17l.869-.857.368.252 1.747 1.306c1.394 1.043 2.79 2.086 4.19 3.122 1.48 1.096 2.516.812 3.233-.862.244-1.127.487-2.256.729-3.383l.183-.85c.277-1.409.552-2.813.826-4.218.142-.62.283-1.242.423-1.863l.102-.454c.463-2.175.925-4.352 1.386-6.527l.257-1.2V9.99l.188-.88.046-.198c.023-.1.047-.2.066-.3.428-2.024.854-4.048 1.28-6.073l.132-.63zm-18.9 19.272l1.237.923 1.433 1.068-.556.548-2.233 2.205a6.78 6.78 0 00-.151.162l-.101.11.045-.608c.106-1.468.214-2.939.326-4.408zm1.536-9.02c1.892-1.195 3.784-2.39 5.676-3.583 1.576-.993 3.15-1.984 4.75-2.937.183-.109.427-.117.67-.126.115-.004.23-.008.34-.023-.048.084-.091.174-.135.264a2.619 2.619 0 01-.217.393 753.036 753.036 0 01-5.732 5.232c-.695.628-1.396 1.25-2.097 1.873-.816.725-1.633 1.45-2.44 2.185a229.807 229.807 0 00-2.394 2.226c-.167.155-.333.311-.498.467l-.624.586-.115.12-.117.124a9.047 9.047 0 01-.168.156l-.094.098-.374.39c-.09.092-.201.373.055.52-.033.264-.064.532-.084.797-.104 1.38-.204 2.76-.304 4.14-.064.886-.128 1.772-.194 2.658-.602.105-.888-.192-1.053-.747-.284-.953-.587-1.902-.89-2.85l-.369-1.154c-.59-1.895-1.183-3.79-1.775-5.683l.015-.007c.097-.044.192-.087.28-.141 2.63-1.658 5.259-3.318 7.888-4.978z" fill="#3BEE81"/></svg><svg width="68" height="68" fill="none" viewBox="-2 -2 68 68" id="timer" x="649" y="813" xmlns="http://www.w3.org/2000/svg"><path opacity=".04" fill-rule="evenodd" clip-rule="evenodd" d="M32 64c17.673 0 32-14.327 32-32C64 14.327 49.673 0 32 0 14.327 0 0 14.327 0 32c0 17.673 14.327 32 32 32z" fill="#3D3D70"/><path d="M22.325 22.244A15.921 15.921 0 0133.193 18C41.923 18 49 24.94 49 33.5 49 42.06 41.923 49 33.193 49c-4.21 0-8.035-1.614-10.868-4.244m-.494-16.584H8m13.831 5.812H9.976m11.855 4.844H12.94M34.014 33.17l6.443-7.277m-7.375-8.358V12.62m-4.916 0h9.832" stroke="#2B2B37" stroke-width="2" stroke-linecap="round" stroke-linejoin="round"/></svg><svg width="31" height="31" fill="none" viewBox="-2 -2 31 31" id="token" x="1118" y="813" xmlns="http://www.w3.org/2000/svg"><path d="M13.03 25.53c6.904 0 12.5-5.596 12.5-12.5 0-6.903-5.596-12.5-12.5-12.5C6.128.53.53 6.128.53 13.03c0 6.904 5.597 12.5 12.5 12.5z" stroke="#3BEE81" stroke-linecap="round" stroke-linejoin="round"/><path d="M13.03 22.75c5.368 0 9.72-4.352 9.72-9.72 0-5.367-4.352-9.718-9.72-9.718-5.367 0-9.718 4.351-9.718 9.719 0 5.367 4.351 9.718 9.719 9.718z" stroke="#3BEE81" stroke-linecap="round" stroke-linejoin="round"/><path d="M16.35 9.629H9.55v6.798h6.799V9.63zM13.03 3.312V5.75M13.03 20.306v2.438M22.75 13.025h-2.444M5.75 13.025H3.312" stroke="#3BEE81" stroke-linecap="round" stroke-linejoin="round"/></svg><svg width="90" height="87" fill="none" viewBox="-2 -2 90 87" id="tokens" y="813" xmlns="http://www.w3.org/2000/svg"><path d="M13.774 36.757a23.439 23.439 0 01-2.895-11.32c0-13.004 10.541-23.545 23.544-23.545 12.753 0 23.138 10.14 23.533 22.796" stroke="#fff" stroke-width="2.155" stroke-linecap="round" stroke-linejoin="round"/><path d="M52.728 25.437c0-10.11-8.195-18.306-18.305-18.306s-18.305 8.196-18.305 18.306c0 3.398.926 6.581 2.54 9.308" stroke="#fff" stroke-width="2.155" stroke-linecap="round" stroke-linejoin="round"/><path d="M40.675 19.029H27.869v12.805h12.806V19.029zM34.423 7.131v4.592M52.729 25.426h-4.602M20.71 25.426h-4.592M46.72 66.928a23.44 23.44 0 0014.12 4.703c13.004 0 23.545-10.542 23.545-23.545 0-13.003-10.541-23.544-23.544-23.544-9.593 0-17.846 5.736-21.515 13.966" stroke="#fff" stroke-width="2.155" stroke-linecap="round" stroke-linejoin="round"/><path d="M48.392 61.508A18.24 18.24 0 0060.84 66.39c10.11 0 18.306-8.195 18.306-18.305S70.95 29.781 60.84 29.781c-8.119 0-15.003 5.285-17.4 12.603" stroke="#fff" stroke-width="2.155" stroke-linecap="round" stroke-linejoin="round"/><path d="M67.093 41.678H54.287v12.806h12.806V41.678zM60.841 29.78v4.593M60.841 61.789v4.592M79.146 48.076h-4.602M25.004 81.008c13.003 0 23.544-10.54 23.544-23.544 0-13.003-10.54-23.544-23.544-23.544C12 33.92 1.459 44.46 1.459 57.463c0 13.003 10.542 23.544 23.545 23.544z" stroke="#fff" stroke-width="2.155" stroke-linecap="round" stroke-linejoin="round"/><path d="M25.004 75.77c10.11 0 18.305-8.197 18.305-18.306 0-10.11-8.196-18.306-18.305-18.306-10.11 0-18.306 8.196-18.306 18.306 0 10.11 8.196 18.305 18.306 18.305z" stroke="#fff" stroke-width="2.155" stroke-linecap="round" stroke-linejoin="round"/><path d="M31.255 51.056H18.45V63.86h12.805V51.056zM25.004 39.158v4.592M25.004 71.167v4.592M43.31 57.453h-4.603M11.29 57.453H6.698" stroke="#fff" stroke-width="2.155" stroke-linecap="round" stroke-linejoin="round"/></svg><svg width="42" height="42" fill="none" viewBox="-2 -2 42 42" id="travala-dark" x="920" y="813" xmlns="http://www.w3.org/2000/svg"><path fill="#fff" d="M0 0h38v38H0z"/><circle cx="19" cy="19" r="19" fill="url(#awpaint0_linear)"/><path d="M26.13 10H11.51a.515.515 0 00-.51.52v3.601c0 .288.228.521.51.521h5.228v13.45c0 1.053.837 1.908 1.87 1.908h3.102c.282 0 .51-.233.51-.52V14.641h5.27c.282 0 .51-.233.51-.52v-2.213C28 10.855 27.163 10 26.13 10z" fill="#fff"/><defs><linearGradient id="awpaint0_linear" x1="5.5" y1="31.5" x2="33" y2="6.5" gradientUnits="userSpaceOnUse"><stop stop-color="#2A2B4C"/><stop offset="1" stop-color="#5C567E"/></linearGradient></defs></svg><svg width="42" height="42" fill="none" viewBox="-2 -2 42 42" id="travala-light" x="962" y="813" xmlns="http://www.w3.org/2000/svg"><path fill="#fff" d="M0 0h38v38H0z"/><circle cx="19" cy="19" r="19" fill="#fff"/><path d="M25.445 9H10.52a.52.52 0 00-.521.52v3.601c0 .288.233.521.52.521h5.337v13.45c0 1.053.855 1.908 1.909 1.908h3.167a.52.52 0 00.52-.52V13.641h5.38a.52.52 0 00.52-.52v-2.213A1.909 1.909 0 0025.446 9z" fill="#19192D"/></svg><svg width="42" height="49" fill="none" viewBox="-2 -2 42 49" id="travala-t" x="106" y="900" xmlns="http://www.w3.org/2000/svg"><path d="M33.82 0H1.14C.51 0 0 .524 0 1.171v8.102c0 .647.51 1.172 1.14 1.172h11.685v30.26c0 2.372 1.872 4.295 4.18 4.295h6.935c.63 0 1.14-.524 1.14-1.171V10.445h11.78c.63 0 1.14-.525 1.14-1.172V4.295C38 1.923 36.129 0 33.82 0z" fill="#fff"/></svg><svg width="40" height="34" fill="none" viewBox="-2 -2 40 34" id="tw" x="1044" y="813" xmlns="http://www.w3.org/2000/svg"><path d="M36 3.551a14.427 14.427 0 01-4.24 1.192A7.557 7.557 0 0035.006.555a14.545 14.545 0 01-4.693 1.835A7.284 7.284 0 0024.924 0c-4.077 0-7.384 3.391-7.384 7.573 0 .594.064 1.17.19 1.725C11.593 8.982 6.152 5.97 2.507 1.382a7.711 7.711 0 00-1 3.812 7.623 7.623 0 003.286 6.303 7.252 7.252 0 01-3.347-.944v.093c0 3.67 2.547 6.732 5.927 7.425a7.042 7.042 0 01-1.946.267c-.475 0-.94-.046-1.39-.134.94 3.007 3.666 5.198 6.899 5.256a14.584 14.584 0 01-9.173 3.244A14.79 14.79 0 010 26.6 20.564 20.564 0 0011.322 30c13.587 0 21.014-11.538 21.014-21.547 0-.33-.006-.659-.019-.982A15.159 15.159 0 0036 3.551z" fill="#3BEE81"/></svg><svg width="44" height="44" fill="none" viewBox="-2 -2 44 44" id="usdt" x="148" y="900" xmlns="http://www.w3.org/2000/svg"><path d="M19.529 18.062c1.566 0 2.268-.046 2.404-.056l-.005-.002c4.805-.23 8.39-1.134 8.39-2.215 0-1.08-3.586-1.986-8.39-2.216v3.533c-.134.013-.883.08-2.378.08-1.245 0-2.147-.057-2.461-.081V13.57c-4.814.232-8.407 1.136-8.407 2.219s3.593 1.988 8.407 2.217c.31.015 1.194.056 2.44.056zM21.933 13.206z" fill="#fff"/><path fill-rule="evenodd" clip-rule="evenodd" d="M0 16.328L19.5 39 39 16.328 31.15 0H7.85L0 16.328zm21.933-6.284v3.162c5.438.271 9.524 1.435 9.524 2.83s-4.09 2.559-9.525 2.829v10.139h-4.845V18.869c-5.447-.272-9.544-1.436-9.544-2.832s4.097-2.561 9.544-2.831v-3.162h-6.702V5.221h18.252v4.823h-6.704z" fill="#fff"/></svg><svg width="68" height="68" fill="none" viewBox="-2 -2 68 68" id="watches" x="717" y="813" xmlns="http://www.w3.org/2000/svg"><path opacity=".04" fill-rule="evenodd" clip-rule="evenodd" d="M32 64c17.673 0 32-14.327 32-32C64 14.327 49.673 0 32 0 14.327 0 0 14.327 0 32c0 17.673 14.327 32 32 32z" fill="#3D3D70"/><path clip-rule="evenodd" d="M32 48c8.837 0 16-7.163 16-16s-7.163-16-16-16-16 7.163-16 16 7.163 16 16 16z" stroke="#2B2B37" stroke-width="2" stroke-linecap="round" stroke-linejoin="round"/><path d="M39 35.895l-7-4.53v-9.47" stroke="#2B2B37" stroke-width="2" stroke-linecap="round" stroke-linejoin="round"/></svg><svg width="68" height="68" fill="none" viewBox="-2 -2 68 68" id="wechat" x="785" y="813" xmlns="http://www.w3.org/2000/svg"><path opacity=".04" fill-rule="evenodd" clip-rule="evenodd" d="M32 64c17.673 0 32-14.327 32-32C64 14.327 49.673 0 32 0 14.327 0 0 14.327 0 32c0 17.673 14.327 32 32 32z" fill="#fff"/><path fill-rule="evenodd" clip-rule="evenodd" d="M26.817 38.863c-1.4-.033-2.792-.19-4.132-.611-.362-.112-.657-.013-.94.144-.926.526-1.833 1.084-2.746 1.623-.223.131-.492.177-.703.033-.21-.145-.25-.355-.197-.65.138-.77.48-1.472.624-2.24.099-.526.027-.756-.4-1.052-1.8-1.255-3.042-2.93-3.79-4.986-.362-.992-.467-2.01-.513-3.061-.08-1.65.341-3.153 1.11-4.579.361-.677.821-1.288 1.314-1.879 1.058-1.261 2.378-2.188 3.777-2.995.69-.401 1.465-.638 2.227-.887.815-.27 1.656-.486 2.503-.546.874-.065 1.748-.203 2.641-.059.63.099 1.288.086 1.925.178.828.125 1.616.38 2.41.61 1.505.421 2.852 1.163 4.06 2.13 1.952 1.543 3.305 3.487 3.817 5.964.053.263-.026.328-.256.335-.42.013-.834-.053-1.261-.026-1.032.066-2.03.27-3.022.532-1.314.341-2.549.847-3.666 1.649-1.504 1.084-2.693 2.41-3.475 4.112-.545 1.19-.84 2.424-.814 3.725.013.723.13 1.445.348 2.142.118.38-.033.407-.322.407-.158-.02-.342-.013-.52-.013zm4.493-12.699c.98.013 1.623-.795 1.682-1.636.06-.854-.907-1.813-1.708-1.793-.887.02-1.734.887-1.695 1.774.026.873.815 1.754 1.721 1.655zm-8.606-3.35a1.632 1.632 0 00-1.649 1.642c0 .94.73 1.695 1.597 1.682a1.666 1.666 0 001.655-1.61 1.62 1.62 0 00-1.603-1.714z" fill="#fff"/><path fill-rule="evenodd" clip-rule="evenodd" d="M39.102 27.097c1.964-.164 3.843.328 5.597 1.209 2.417 1.215 4.19 3.048 4.973 5.708.505 1.722.315 3.417-.322 5.059-.585 1.51-1.597 2.713-2.865 3.692-.578.447-.637.539-.46 1.248l.395 1.544c.052.203.105.42-.099.571-.203.151-.42.105-.617-.006-.69-.394-1.386-.762-2.043-1.202-.414-.276-.808-.329-1.268-.19-.854.255-1.735.347-2.628.406-1.649.112-3.258-.078-4.802-.617-1.886-.657-3.587-1.63-4.848-3.245-.795-1.012-1.413-2.122-1.689-3.37-.453-2.03-.17-3.981.868-5.801.9-1.583 2.253-2.707 3.823-3.56 1.012-.553 2.063-1.045 3.206-1.275.9-.178 1.82-.237 2.779-.171zm-3.692 7.502c.84 0 1.451-.584 1.445-1.392-.007-.73-.69-1.334-1.465-1.38-.585-.033-1.354.677-1.307 1.353.046.828.551 1.42 1.327 1.42zm7.252-2.759c-.723-.033-1.373.506-1.38 1.36-.006.624.454 1.406 1.393 1.406.762 0 1.367-.605 1.367-1.393 0-.769-.625-1.419-1.38-1.373z" fill="#fff"/></svg></svg>