<svg width="292" height="48" fill="none" xmlns="http://www.w3.org/2000/svg"><g clip-path="url(#a)"><path d="M17.528 42.303 1.164 44.85l14.547-10.305 1.817 7.758ZM14.734 30.303l5.697 11.273L58.25 30.303l-3.533-7.436-22.347-7.717-17.635 15.153Z" fill="#8BC53F"/><path d="m14.734 30.303.97 4.241 1.818 7.759 2.91-.728-5.698-11.272ZM37.281 48l7.274-.104-1.937-4.398L37.281 48Z" fill="#009345"/><path d="m44.558 47.896.156-.333.934-1.968-3.027-2.097" fill="#8BC53F"/><path d="M45.648 3.515 58.255 0l3.395 2.304-16.002 1.211Z" fill="#009345"/><path d="m61.65 2.304 3.391 6.06-1.695.727h-4.62l2.924-6.787Z" fill="#8BC53F"/><path d="m65.041 8.363 1.092 3.516-7.406-2.788 6.314-.728ZM1.164 44.85l.974-2.547 3.645-.728-4.619 3.274Z" fill="#009345"/><path d="m5.78 41.576-5.495-2.12 1.85 2.847 3.645-.727Z" fill="#8BC53F"/><path d="m32.37 15.15 22.346 7.716.309-2.732-25.06-6.437 2.405 1.453Z" fill="#009345"/><path d="M45.647 3.515 29.77 13.576l.2.121 25.059 6.438 6.62-17.831-16.002 1.211Z" fill="#8BC53F"/><path d="m29.496 38.873 6.195 3.43 22.56-12-28.755 8.57Z" fill="#009345"/><path d="M58.251 30.303 35.676 42.255 37.28 48l20.97-17.697Z" fill="#8BC53F"/><path d="M91.595 23.63v2.166h-7.273v4.085h8.335v2.166h-10.95v-14.3h10.726v2.166h-8.111v3.718l7.273-.002ZM107.768 17.747h2.839l-4.922 14.3h-3.024l-4.923-14.3h2.84l3.595 11.584 3.595-11.584ZM126.958 23.63v2.166h-7.273v4.085h8.336v2.166H117.07v-14.3h10.726v2.166h-8.111v3.718l7.273-.002ZM134.919 17.747h6.394c1.756 0 5.168.245 5.168 3.983 0 2.124-1.246 3.145-2.389 3.472v.04c2.044.654 2.084 2.432 2.106 3.717.02 1.921 0 2.411.53 3.084h-2.698c-.408-.654-.449-1.143-.449-2.982 0-1.307-.103-2.697-3.024-2.697h-3.024v5.68h-2.615l.001-14.297Zm2.615 6.455h3.269c1.329 0 2.982-.205 2.982-2.145 0-2.064-1.859-2.145-2.921-2.145h-3.33v4.29ZM166.656 27.165c-.205 2.167-1.349 5.311-6.19 5.311-1.102 0-7.087-.102-7.087-7.334 0-5.884 3.391-7.823 6.945-7.823 4.902 0 6.006 3.003 6.129 5.047h-2.595c-.163-1.186-.858-2.88-3.534-2.88-3.187 0-4.148 2.594-4.148 5.556 0 3.35 1.837 5.271 4.413 5.271 2.37 0 3.392-1.612 3.472-3.146h2.595v-.003ZM180.174 17.318c1.245 0 7.007.163 7.007 7.578s-5.762 7.578-7.007 7.578c-1.246 0-7.006-.163-7.006-7.578s5.76-7.578 7.006-7.578Zm0 12.993c3.535 0 4.207-3.207 4.207-5.414 0-2.206-.672-5.413-4.207-5.413-3.536 0-4.208 3.207-4.208 5.413 0 2.207.675 5.414 4.208 5.414ZM200.328 17.747c5.864 0 6.905 4.045 6.905 7.109 0 6.476-4.536 7.19-7.416 7.19h-5.169V17.747h5.68Zm-3.064 12.134h2.431c1.267 0 4.74-.205 4.74-4.983 0-4.414-2.758-4.985-4.332-4.985h-2.839v9.968ZM224.587 23.63v2.166h-7.273v4.085h8.336v2.166h-10.951v-14.3h10.725v2.166h-8.11v3.718l7.273-.002ZM251.702 32.047h-9.581v-14.3h2.614v12.134h6.967v2.166ZM259.973 32.047h-2.797l5.393-14.3h2.614l5.393 14.3h-2.797l-1.041-3.002h-5.717l-1.048 3.002Zm6.069-5.169-2.167-6.353-2.167 6.353h4.334ZM283.784 17.747c3.637 0 4.35 2.044 4.35 3.615 0 1.574-.98 2.82-2.369 3.065v.04c1.185.205 2.963 1.02 2.963 3.575 0 3.615-3.086 4.003-5.231 4.003h-6.454V17.747h6.741Zm-4.127 5.802h3.453c1.45 0 2.328-.45 2.328-1.697 0-1.898-1.838-1.941-2.39-1.941h-3.392v3.638h.001Zm0 6.332h3.575c1.594 0 2.799-.388 2.799-2.125 0-1.92-1.653-2.045-2.738-2.045h-3.636v4.17Z" fill="#1B3070"/></g><defs><clipPath id="a"><path fill="#fff" transform="translate(.285)" d="M0 0h291.429v48H0z"/></clipPath></defs></svg>
