<svg width="164" height="40" viewBox="0 0 164 40" fill="none" xmlns="http://www.w3.org/2000/svg">
<rect x="0.5" y="0.5" width="163" height="39" rx="5.5" fill="#2B2B36" stroke="#3D3D4B"/>
<g opacity="0.85">
<path d="M64.0601 10.9725C64.0601 11.7134 63.8371 12.3043 63.391 12.7365C62.8913 13.2569 62.2311 13.5215 61.4281 13.5215C60.6519 13.5215 60.0007 13.2569 59.4564 12.7277C58.9122 12.1985 58.6445 11.537 58.6445 10.7608C58.6445 9.97576 58.9122 9.32305 59.4564 8.79383C60.0007 8.26461 60.6519 8 61.4281 8C61.8118 8 62.1776 8.07056 62.5255 8.22051C62.8735 8.37045 63.1501 8.5645 63.3642 8.81147L62.8913 9.27895C62.5345 8.86439 62.0527 8.65271 61.4281 8.65271C60.8661 8.65271 60.3754 8.84675 59.965 9.24367C59.5546 9.63176 59.3494 10.1433 59.3494 10.7696C59.3494 11.3958 59.5546 11.9074 59.965 12.2955C60.3754 12.6836 60.8661 12.8865 61.4281 12.8865C62.0259 12.8865 62.5255 12.6924 62.927 12.2955C63.1858 12.0397 63.3374 11.6781 63.3731 11.2194H61.4281V10.5844H64.0244C64.0423 10.7167 64.0601 10.849 64.0601 10.9725Z" fill="white"/>
<path d="M68.1641 8.76736H65.7284V10.4432H67.9232V11.0783H65.7284V12.7542H68.1641V13.4069H65.0415V8.11466H68.1641V8.76736Z" fill="white"/>
<path d="M71.0726 13.4069H70.3856V8.76736H68.8868V8.11466H72.5626V8.76736H71.0637V13.4069H71.0726Z" fill="white"/>
<path d="M75.2215 13.4069V8.11466H75.9085V13.4069H75.2215Z" fill="white"/>
<path d="M78.9595 13.4069H78.2726V8.76736H76.7737V8.11466H80.4495V8.76736H78.9506V13.4069H78.9595Z" fill="white"/>
<path d="M87.4266 12.7189C86.9002 13.2569 86.2489 13.5215 85.4638 13.5215C84.6786 13.5215 84.0273 13.2569 83.5009 12.7189C82.9746 12.1808 82.7158 11.5281 82.7158 10.7608C82.7158 9.9934 82.9746 9.33187 83.5009 8.80265C84.0273 8.26461 84.6786 8 85.4638 8C86.24 8 86.8912 8.26461 87.4266 8.80265C87.9529 9.34069 88.2206 9.9934 88.2206 10.7608C88.2117 11.537 87.944 12.1897 87.4266 12.7189ZM84.0095 12.2779C84.4021 12.6748 84.8928 12.8688 85.4638 12.8688C86.0348 12.8688 86.5255 12.6748 86.918 12.2779C87.3106 11.881 87.5158 11.3782 87.5158 10.7608C87.5158 10.1433 87.3195 9.64058 86.918 9.24367C86.5255 8.84675 86.0348 8.65271 85.4638 8.65271C84.8928 8.65271 84.4021 8.84675 84.0095 9.24367C83.6169 9.64058 83.4117 10.1433 83.4117 10.7608C83.4117 11.3782 83.608 11.881 84.0095 12.2779Z" fill="white"/>
<path d="M89.1752 13.4069V8.11466H90.0139L92.6191 12.2338H92.6458L92.6191 11.2106V8.11466H93.3061V13.4069H92.5923L89.8711 9.09371H89.8444L89.8711 10.1169V13.4069H89.1752Z" fill="white"/>
<path d="M64.0601 10.9725C64.0601 11.7134 63.8371 12.3043 63.391 12.7365C62.8913 13.2569 62.2311 13.5215 61.4281 13.5215C60.6519 13.5215 60.0007 13.2569 59.4564 12.7277C58.9122 12.1985 58.6445 11.537 58.6445 10.7608C58.6445 9.97576 58.9122 9.32305 59.4564 8.79383C60.0007 8.26461 60.6519 8 61.4281 8C61.8118 8 62.1776 8.07056 62.5255 8.22051C62.8735 8.37045 63.1501 8.5645 63.3642 8.81147L62.8913 9.27895C62.5345 8.86439 62.0527 8.65271 61.4281 8.65271C60.8661 8.65271 60.3754 8.84675 59.965 9.24367C59.5546 9.63176 59.3494 10.1433 59.3494 10.7696C59.3494 11.3958 59.5546 11.9074 59.965 12.2955C60.3754 12.6836 60.8661 12.8865 61.4281 12.8865C62.0259 12.8865 62.5255 12.6924 62.927 12.2955C63.1858 12.0397 63.3374 11.6781 63.3731 11.2194H61.4281V10.5844H64.0244C64.0423 10.7167 64.0601 10.849 64.0601 10.9725Z" stroke="white" stroke-width="0.178577" stroke-miterlimit="10"/>
<path d="M68.1641 8.76736H65.7284V10.4432H67.9232V11.0783H65.7284V12.7542H68.1641V13.4069H65.0415V8.11466H68.1641V8.76736Z" stroke="white" stroke-width="0.178577" stroke-miterlimit="10"/>
<path d="M71.0726 13.4069H70.3856V8.76736H68.8868V8.11466H72.5626V8.76736H71.0637V13.4069H71.0726Z" stroke="white" stroke-width="0.178577" stroke-miterlimit="10"/>
<path d="M75.2215 13.4069V8.11466H75.9085V13.4069H75.2215Z" stroke="white" stroke-width="0.178577" stroke-miterlimit="10"/>
<path d="M78.9595 13.4069H78.2726V8.76736H76.7737V8.11466H80.4495V8.76736H78.9506V13.4069H78.9595Z" stroke="white" stroke-width="0.178577" stroke-miterlimit="10"/>
<path d="M87.4266 12.7189C86.9002 13.2569 86.2489 13.5215 85.4638 13.5215C84.6786 13.5215 84.0273 13.2569 83.5009 12.7189C82.9746 12.1808 82.7158 11.5281 82.7158 10.7608C82.7158 9.9934 82.9746 9.33187 83.5009 8.80265C84.0273 8.26461 84.6786 8 85.4638 8C86.24 8 86.8912 8.26461 87.4266 8.80265C87.9529 9.34069 88.2206 9.9934 88.2206 10.7608C88.2117 11.537 87.944 12.1897 87.4266 12.7189ZM84.0095 12.2779C84.4021 12.6748 84.8928 12.8688 85.4638 12.8688C86.0348 12.8688 86.5255 12.6748 86.918 12.2779C87.3106 11.881 87.5158 11.3782 87.5158 10.7608C87.5158 10.1433 87.3195 9.64058 86.918 9.24367C86.5255 8.84675 86.0348 8.65271 85.4638 8.65271C84.8928 8.65271 84.4021 8.84675 84.0095 9.24367C83.6169 9.64058 83.4117 10.1433 83.4117 10.7608C83.4117 11.3782 83.608 11.881 84.0095 12.2779Z" stroke="white" stroke-width="0.178577" stroke-miterlimit="10"/>
<path d="M89.1752 13.4069V8.11466H90.0139L92.6191 12.2338H92.6458L92.6191 11.2106V8.11466H93.3061V13.4069H92.5923L89.8711 9.09371H89.8444L89.8711 10.1169V13.4069H89.1752Z" stroke="white" stroke-width="0.178577" stroke-miterlimit="10"/>
<path d="M82.5385 21.1241C80.4418 21.1241 78.7288 22.7029 78.7288 24.8727C78.7288 27.0337 80.4418 28.6214 82.5385 28.6214C84.6351 28.6214 86.3481 27.0337 86.3481 24.8727C86.3481 22.7029 84.6351 21.1241 82.5385 21.1241ZM82.5385 27.1484C81.3875 27.1484 80.3972 26.2134 80.3972 24.8727C80.3972 23.5232 81.3875 22.5971 82.5385 22.5971C83.6894 22.5971 84.6797 23.5232 84.6797 24.8727C84.6797 26.2134 83.6894 27.1484 82.5385 27.1484ZM74.2322 21.1241C72.1356 21.1241 70.4226 22.7029 70.4226 24.8727C70.4226 27.0337 72.1356 28.6214 74.2322 28.6214C76.3288 28.6214 78.0418 27.0337 78.0418 24.8727C78.0418 22.7029 76.3288 21.1241 74.2322 21.1241ZM74.2322 27.1484C73.0813 27.1484 72.091 26.2134 72.091 24.8727C72.091 23.5232 73.0813 22.5971 74.2322 22.5971C75.3831 22.5971 76.3734 23.5232 76.3734 24.8727C76.3734 26.2134 75.3831 27.1484 74.2322 27.1484ZM64.3468 22.2795V23.8672H68.201C68.085 24.7581 67.7817 25.4196 67.3267 25.8694C66.7646 26.4251 65.8903 27.0337 64.3557 27.0337C61.9825 27.0337 60.1267 25.1462 60.1267 22.7999C60.1267 20.4537 61.9825 18.5662 64.3557 18.5662C65.6315 18.5662 66.5683 19.0601 67.2553 19.704L68.3884 18.5838C67.4248 17.6753 66.149 16.9785 64.3468 16.9785C61.0992 16.9785 58.3691 19.5893 58.3691 22.8088C58.3691 26.0194 61.0992 28.639 64.3468 28.639C66.1044 28.639 67.4248 28.0745 68.4598 27.0072C69.5215 25.9576 69.8516 24.4758 69.8516 23.2851C69.8516 22.9146 69.8248 22.5706 69.7624 22.2884H64.3468V22.2795ZM104.772 23.5144C104.459 22.6765 103.496 21.1241 101.524 21.1241C99.5703 21.1241 97.9465 22.6412 97.9465 24.8727C97.9465 26.972 99.5524 28.6214 101.712 28.6214C103.451 28.6214 104.459 27.5718 104.87 26.9631L103.576 26.1076C103.148 26.7338 102.559 27.1484 101.712 27.1484C100.864 27.1484 100.257 26.7603 99.8736 26.0106L104.95 23.9378L104.772 23.5144ZM99.5971 24.7669C99.5524 23.3203 100.73 22.5794 101.578 22.5794C102.238 22.5794 102.8 22.9058 102.987 23.3733L99.5971 24.7669ZM95.4752 28.4009H97.1435V17.3754H95.4752V28.4009ZM92.7361 21.962H92.6826C92.3079 21.521 91.5941 21.1241 90.6841 21.1241C88.7838 21.1241 87.044 22.7735 87.044 24.8904C87.044 26.9896 88.7838 28.6302 90.6841 28.6302C91.5852 28.6302 92.3079 28.2333 92.6826 27.7746H92.7361V28.3127C92.7361 29.7504 91.9599 30.5177 90.7109 30.5177C89.6938 30.5177 89.0603 29.7945 88.8016 29.1859L87.3473 29.7857C87.7667 30.7824 88.873 31.9996 90.7109 31.9996C92.6648 31.9996 94.3153 30.8617 94.3153 28.0922V21.3534H92.7361V21.962ZM90.8269 27.1484C89.6759 27.1484 88.7124 26.1958 88.7124 24.8904C88.7124 23.5673 89.6759 22.6059 90.8269 22.6059C91.9599 22.6059 92.8521 23.5761 92.8521 24.8904C92.8521 26.1958 91.9599 27.1484 90.8269 27.1484ZM112.578 17.3754H108.59V28.4009H110.259V24.22H112.587C114.434 24.22 116.245 22.897 116.245 20.7977C116.245 18.6985 114.425 17.3754 112.578 17.3754ZM112.623 22.6853H110.259V18.9014H112.623C113.872 18.9014 114.577 19.9245 114.577 20.7889C114.577 21.6533 113.872 22.6853 112.623 22.6853ZM122.91 21.1064C121.705 21.1064 120.456 21.6357 119.939 22.7911L121.42 23.3997C121.732 22.7911 122.321 22.5883 122.937 22.5883C123.793 22.5883 124.676 23.0998 124.685 24.0083V24.123C124.382 23.9554 123.74 23.6996 122.946 23.6996C121.349 23.6996 119.734 24.564 119.734 26.1781C119.734 27.6511 121.036 28.6037 122.499 28.6037C123.615 28.6037 124.239 28.1098 124.623 27.5276H124.676V28.3832H126.282V24.1583C126.3 22.2002 124.819 21.1064 122.91 21.1064ZM122.714 27.1484C122.169 27.1484 121.411 26.8749 121.411 26.2134C121.411 25.3667 122.357 25.0403 123.178 25.0403C123.909 25.0403 124.257 25.1991 124.694 25.4108C124.56 26.4251 123.668 27.1484 122.714 27.1484ZM132.153 21.3446L130.244 26.1252H130.19L128.209 21.3446H126.416L129.387 28.0304L127.692 31.7438H129.432L134 21.3446H132.153ZM117.155 28.4009H118.824V17.3754H117.155V28.4009Z" fill="white"/>
<path d="M30.4034 8.3384C30.1546 8.60012 30.0088 9.00536 30.0088 9.52036V28.1955C30.0088 28.7189 30.1546 29.1242 30.4034 29.3774L30.4634 29.4365L41.092 18.9846V18.8579V18.7313L30.4634 8.2793L30.4034 8.3384Z" fill="url(#paint0_linear)"/>
<path d="M44.6347 22.4691L41.0918 18.9823V18.8556V18.729L44.6347 15.2422L44.7119 15.2844L48.9067 17.6315C50.1077 18.2984 50.1077 19.396 48.9067 20.0714L44.7119 22.4184L44.6347 22.4691Z" fill="url(#paint1_linear)"/>
<path d="M44.712 22.4267L41.092 18.8555L30.4033 29.375C30.7979 29.7887 31.4499 29.8393 32.1876 29.4256L44.712 22.4267Z" fill="url(#paint2_linear)"/>
<path d="M44.7128 15.2935L32.1798 8.2861C31.4421 7.87241 30.7901 7.92307 30.3955 8.33675L41.0927 18.8563L44.7128 15.2935Z" fill="url(#paint3_linear)"/>
<path opacity="0.2" d="M44.6358 22.3438L32.18 29.3089C31.4852 29.6973 30.859 29.672 30.4643 29.3174L30.4043 29.3765L30.4643 29.4356C30.8675 29.7902 31.4852 29.8155 32.18 29.4271L44.713 22.4197L44.6358 22.3438Z" fill="black"/>
<path opacity="0.12" d="M30.4034 29.2581C30.1546 28.9964 30.0088 28.5912 30.0088 28.0762V28.2028C30.0088 28.7263 30.1546 29.1315 30.4034 29.3848L30.4634 29.3257L30.4034 29.2581Z" fill="black"/>
<path opacity="0.12" d="M48.9066 19.953L44.626 22.3423L44.7032 22.4183L48.898 20.0712C49.4985 19.7335 49.7987 19.2945 49.7987 18.8555C49.7558 19.2523 49.4556 19.6491 48.9066 19.953Z" fill="black"/>
<path opacity="0.25" d="M32.1789 8.40404L48.9067 17.7585C49.4472 18.0624 49.756 18.4508 49.8075 18.856C49.8075 18.417 49.5072 17.9695 48.9067 17.6403L32.1789 8.28584C30.9779 7.61887 30 8.17609 30 9.52691V9.65355C30 8.29428 30.9865 7.73707 32.1789 8.40404Z" fill="white"/>
</g>
<defs>
<linearGradient id="paint0_linear" x1="40.1481" y1="9.32601" x2="25.9811" y2="23.7207" gradientUnits="userSpaceOnUse">
<stop stop-color="#00A0FF"/>
<stop offset="0.00657445" stop-color="#00A1FF"/>
<stop offset="0.2601" stop-color="#00BEFF"/>
<stop offset="0.5122" stop-color="#00D2FF"/>
<stop offset="0.7604" stop-color="#00DFFF"/>
<stop offset="1" stop-color="#00E3FF"/>
</linearGradient>
<linearGradient id="paint1_linear" x1="50.4716" y1="18.8569" x2="29.7147" y2="18.8569" gradientUnits="userSpaceOnUse">
<stop stop-color="#FFE000"/>
<stop offset="0.4087" stop-color="#FFBD00"/>
<stop offset="0.7754" stop-color="#FFA500"/>
<stop offset="1" stop-color="#FF9C00"/>
</linearGradient>
<linearGradient id="paint2_linear" x1="42.7449" y1="20.7941" x2="23.5334" y2="40.3145" gradientUnits="userSpaceOnUse">
<stop stop-color="#FF3A44"/>
<stop offset="1" stop-color="#C31162"/>
</linearGradient>
<linearGradient id="paint3_linear" x1="27.7081" y1="2.11985" x2="36.2869" y2="10.8365" gradientUnits="userSpaceOnUse">
<stop stop-color="#32A071"/>
<stop offset="0.0685" stop-color="#2DA771"/>
<stop offset="0.4762" stop-color="#15CF74"/>
<stop offset="0.8009" stop-color="#06E775"/>
<stop offset="1" stop-color="#00F076"/>
</linearGradient>
</defs>
</svg>
