<svg width="133" height="44" viewBox="0 0 133 44" fill="none" xmlns="http://www.w3.org/2000/svg">
    <g clip-path="url(#clip0_1501_5179)">
        <path d="M5.92532 6.49823C5.55868 6.88396 5.34375 7.48121 5.34375 8.24022V35.7636C5.34375 36.5351 5.55868 37.1323 5.92532 37.5056L6.01382 37.5927L21.6783 22.1886V22.0019V21.8153L6.01382 6.41113L5.92532 6.49823Z" fill="url(#paint0_linear_1501_5179)"/>
        <path d="M26.9012 27.3258L21.6797 22.187V22.0003V21.8137L26.9012 16.6748L27.015 16.737L33.1973 20.1961C34.9673 21.1791 34.9673 22.7966 33.1973 23.7921L27.015 27.2512L26.9012 27.3258Z" fill="url(#paint1_linear_1501_5179)"/>
        <path d="M27.014 27.2643L21.6787 22.001L5.92578 37.5047C6.50735 38.1144 7.46821 38.189 8.55549 37.5793L27.014 27.2643Z" fill="url(#paint2_linear_1501_5179)"/>
        <path d="M27.0188 16.7496L8.54768 6.42214C7.46039 5.81245 6.49954 5.8871 5.91797 6.4968L21.6836 22.0005L27.0188 16.7496Z" fill="url(#paint3_linear_1501_5179)"/>
        <path opacity="0.2" d="M26.9002 27.1392L8.54285 37.4044C7.51878 37.9768 6.59585 37.9395 6.01428 37.4169L5.92578 37.504L6.01428 37.5911C6.60849 38.1137 7.51878 38.151 8.54285 37.5786L27.014 27.2511L26.9002 27.1392Z" fill="black"/>
        <path opacity="0.12" d="M5.92141 37.3299C5.55477 36.9442 5.33984 36.3469 5.33984 35.5879V35.7745C5.33984 36.546 5.55477 37.1432 5.92141 37.5165L6.00991 37.4294L5.92141 37.3299Z" fill="black"/>
        <path opacity="0.12" d="M33.1955 23.618L26.8867 27.1394L27.0005 27.2513L33.1828 23.7922C34.0678 23.2945 34.5103 22.6475 34.5103 22.0005C34.4471 22.5853 34.0046 23.1701 33.1955 23.618Z" fill="black"/>
        <path opacity="0.25" d="M8.54331 6.59557L33.1968 20.3822C33.9933 20.8301 34.4484 21.4025 34.5243 21.9997C34.5243 21.3527 34.0818 20.6932 33.1968 20.208L8.54331 6.42137C6.77331 5.4384 5.33203 6.25962 5.33203 8.25046V8.4371C5.33203 6.43382 6.78596 5.61259 8.54331 6.59557Z" fill="white"/>
    </g>
    <path d="M71 26L72.7668 29.5683L76.7063 30.1459L73.8587 32.9288L74.5267 36.8541L71 35.0058L67.4733 36.8541L68.1413 32.9288L65.2937 30.1459L69.2332 29.5683L71 26Z" fill="#00C26F"/>
    <path d="M84 26L85.7668 29.5683L89.7063 30.1459L86.8587 32.9288L87.5267 36.8541L84 35.0058L80.4733 36.8541L81.1413 32.9288L78.2937 30.1459L82.2332 29.5683L84 26Z" fill="#00C26F"/>
    <path d="M97 26L98.7668 29.5683L102.706 30.1459L99.8587 32.9288L100.527 36.8541L97 35.0058L93.4733 36.8541L94.1413 32.9288L91.2937 30.1459L95.2332 29.5683L97 26Z" fill="#00C26F"/>
    <path d="M110 26L111.767 29.5683L115.706 30.1459L112.859 32.9288L113.527 36.8541L110 35.0058L106.473 36.8541L107.141 32.9288L104.294 30.1459L108.233 29.5683L110 26Z" fill="#00C26F"/>
    <path d="M123 26L124.767 29.5683L128.706 30.1459L125.859 32.9288L126.527 36.8541L123 35.0058L119.473 36.8541L120.141 32.9288L117.294 30.1459L121.233 29.5683L123 26Z" fill="#00C26F"/>
    <path d="M50.4746 33.1289V34.0195H44.3105V33.3809L48.1309 27.4688H49.0156L48.0664 29.1797L45.541 33.1289H50.4746ZM49.2852 27.4688V36H48.2012V27.4688H49.2852ZM51.6671 35.4258C51.6671 35.2422 51.7237 35.0879 51.837 34.9629C51.9542 34.834 52.1222 34.7695 52.3409 34.7695C52.5597 34.7695 52.7257 34.834 52.839 34.9629C52.9561 35.0879 53.0147 35.2422 53.0147 35.4258C53.0147 35.6055 52.9561 35.7578 52.839 35.8828C52.7257 36.0078 52.5597 36.0703 52.3409 36.0703C52.1222 36.0703 51.9542 36.0078 51.837 35.8828C51.7237 35.7578 51.6671 35.6055 51.6671 35.4258ZM60.1486 33.6914C60.1486 34.2109 60.0275 34.6523 59.7853 35.0156C59.5471 35.375 59.2228 35.6484 58.8127 35.8359C58.4064 36.0234 57.9474 36.1172 57.4357 36.1172C56.924 36.1172 56.4631 36.0234 56.0529 35.8359C55.6428 35.6484 55.3185 35.375 55.0803 35.0156C54.842 34.6523 54.7228 34.2109 54.7228 33.6914C54.7228 33.3516 54.7873 33.041 54.9162 32.7598C55.049 32.4746 55.2346 32.2266 55.4728 32.0156C55.715 31.8047 56.0002 31.6426 56.3283 31.5293C56.6603 31.4121 57.0256 31.3535 57.424 31.3535C57.9474 31.3535 58.4142 31.4551 58.8244 31.6582C59.2346 31.8574 59.5568 32.1328 59.7912 32.4844C60.0295 32.8359 60.1486 33.2383 60.1486 33.6914ZM59.0588 33.668C59.0588 33.3516 58.9904 33.0723 58.8537 32.8301C58.717 32.584 58.5256 32.3926 58.2795 32.2559C58.0334 32.1191 57.7482 32.0508 57.424 32.0508C57.092 32.0508 56.8049 32.1191 56.5627 32.2559C56.3244 32.3926 56.1389 32.584 56.006 32.8301C55.8732 33.0723 55.8068 33.3516 55.8068 33.668C55.8068 33.9961 55.8713 34.2773 56.0002 34.5117C56.133 34.7422 56.3205 34.9199 56.5627 35.0449C56.8088 35.166 57.0998 35.2266 57.4357 35.2266C57.7717 35.2266 58.0607 35.166 58.3029 35.0449C58.5451 34.9199 58.7307 34.7422 58.8596 34.5117C58.9924 34.2773 59.0588 33.9961 59.0588 33.668ZM59.9494 29.6895C59.9494 30.1035 59.84 30.4766 59.6213 30.8086C59.4025 31.1406 59.1037 31.4023 58.7248 31.5938C58.3459 31.7852 57.9162 31.8809 57.4357 31.8809C56.9474 31.8809 56.5119 31.7852 56.1291 31.5938C55.7502 31.4023 55.4533 31.1406 55.2385 30.8086C55.0236 30.4766 54.9162 30.1035 54.9162 29.6895C54.9162 29.1934 55.0236 28.7715 55.2385 28.4238C55.4572 28.0762 55.756 27.8105 56.1349 27.627C56.5139 27.4434 56.9455 27.3516 57.4299 27.3516C57.9182 27.3516 58.3517 27.4434 58.7307 27.627C59.1096 27.8105 59.4064 28.0762 59.6213 28.4238C59.84 28.7715 59.9494 29.1934 59.9494 29.6895ZM58.8654 29.707C58.8654 29.4219 58.8049 29.1699 58.6838 28.9512C58.5627 28.7324 58.3947 28.5605 58.1799 28.4355C57.965 28.3066 57.715 28.2422 57.4299 28.2422C57.1447 28.2422 56.8947 28.3027 56.6799 28.4238C56.4689 28.541 56.3029 28.709 56.1818 28.9277C56.0646 29.1465 56.006 29.4062 56.006 29.707C56.006 30 56.0646 30.2559 56.1818 30.4746C56.3029 30.6934 56.4709 30.8633 56.6857 30.9844C56.9006 31.1055 57.1506 31.166 57.4357 31.166C57.7209 31.166 57.9689 31.1055 58.1799 30.9844C58.3947 30.8633 58.5627 30.6934 58.6838 30.4746C58.8049 30.2559 58.8654 30 58.8654 29.707Z" fill="white"/>
    <path d="M68.1354 10.1398C66.0417 10.1398 64.3311 11.7164 64.3311 13.8831C64.3311 16.0411 66.0417 17.6265 68.1354 17.6265C70.2291 17.6265 71.9397 16.0411 71.9397 13.8831C71.9397 11.7164 70.2291 10.1398 68.1354 10.1398ZM68.1354 16.1556C66.9861 16.1556 65.9972 15.222 65.9972 13.8831C65.9972 12.5355 66.9861 11.6107 68.1354 11.6107C69.2847 11.6107 70.2737 12.5355 70.2737 13.8831C70.2737 15.222 69.2847 16.1556 68.1354 16.1556ZM59.8408 10.1398C57.7471 10.1398 56.0365 11.7164 56.0365 13.8831C56.0365 16.0411 57.7471 17.6265 59.8408 17.6265C61.9345 17.6265 63.6451 16.0411 63.6451 13.8831C63.6451 11.7164 61.9345 10.1398 59.8408 10.1398ZM59.8408 16.1556C58.6915 16.1556 57.7026 15.222 57.7026 13.8831C57.7026 12.5355 58.6915 11.6107 59.8408 11.6107C60.9901 11.6107 61.9791 12.5355 61.9791 13.8831C61.9791 15.222 60.9901 16.1556 59.8408 16.1556ZM49.9693 11.2936V12.879H53.8181C53.7023 13.7686 53.3994 14.4292 52.945 14.8785C52.3837 15.4334 51.5106 16.0411 49.9782 16.0411C47.6083 16.0411 45.7551 14.1562 45.7551 11.8133C45.7551 9.47035 47.6083 7.58544 49.9782 7.58544C51.2522 7.58544 52.1877 8.07868 52.8737 8.72167L54.0052 7.60305C53.043 6.69583 51.769 6 49.9693 6C46.7263 6 44 8.60716 44 11.8221C44 15.0282 46.7263 17.6442 49.9693 17.6442C51.7244 17.6442 53.043 17.0804 54.0765 16.0147C55.1367 14.9665 55.4663 13.4868 55.4663 12.2977C55.4663 11.9278 55.4396 11.5843 55.3772 11.3024H49.9693V11.2936ZM90.3376 12.5267C90.0257 11.69 89.0635 10.1398 87.0946 10.1398C85.1434 10.1398 83.5219 11.6547 83.5219 13.8831C83.5219 15.9794 85.1256 17.6265 87.2816 17.6265C89.019 17.6265 90.0257 16.5784 90.4356 15.9706L89.1437 15.1163C88.7161 15.7416 88.128 16.1556 87.2816 16.1556C86.4353 16.1556 85.8294 15.7681 85.4463 15.0194L90.5157 12.9495L90.3376 12.5267ZM85.1701 13.7775C85.1256 12.3329 86.3016 11.5931 87.148 11.5931C87.8073 11.5931 88.3686 11.919 88.5557 12.3858L85.1701 13.7775ZM81.054 17.4063H82.7201V6.39636H81.054V17.4063ZM78.3188 10.9765H78.2654C77.8912 10.5361 77.1784 10.1398 76.2697 10.1398C74.372 10.1398 72.6347 11.7868 72.6347 13.9008C72.6347 15.9971 74.372 17.6353 76.2697 17.6353C77.1695 17.6353 77.8912 17.239 78.2654 16.781H78.3188V17.3183C78.3188 18.754 77.5437 19.5203 76.2964 19.5203C75.2807 19.5203 74.6482 18.798 74.3898 18.1903L72.9376 18.7892C73.3563 19.7845 74.4611 21 76.2964 21C78.2476 21 79.8958 19.8638 79.8958 17.0981V10.3688H78.3188V10.9765ZM76.4122 16.1556C75.2629 16.1556 74.3007 15.2043 74.3007 13.9008C74.3007 12.5796 75.2629 11.6195 76.4122 11.6195C77.5437 11.6195 78.4347 12.5884 78.4347 13.9008C78.4347 15.2043 77.5437 16.1556 76.4122 16.1556ZM98.1332 6.39636H94.1508V17.4063H95.8168V13.2314H98.1422C99.9864 13.2314 101.795 11.9102 101.795 9.81386C101.795 7.71756 99.9775 6.39636 98.1332 6.39636ZM98.1778 11.6988H95.8168V7.92014H98.1778C99.4251 7.92014 100.129 8.94187 100.129 9.80505C100.129 10.6682 99.4251 11.6988 98.1778 11.6988ZM108.45 10.1221C107.248 10.1221 106 10.6506 105.483 11.8045L106.962 12.4122C107.274 11.8045 107.862 11.6019 108.477 11.6019C109.332 11.6019 110.214 12.1127 110.223 13.02V13.1345C109.92 12.9671 109.279 12.7117 108.486 12.7117C106.891 12.7117 105.279 13.5749 105.279 15.1867C105.279 16.6577 106.579 17.6089 108.04 17.6089C109.154 17.6089 109.778 17.1157 110.161 16.5343H110.214V17.3887H111.818V13.1697C111.836 11.2143 110.357 10.1221 108.45 10.1221ZM108.254 16.1556C107.711 16.1556 106.954 15.8826 106.954 15.222C106.954 14.3764 107.898 14.0505 108.718 14.0505C109.448 14.0505 109.796 14.209 110.232 14.4204C110.099 15.4334 109.208 16.1556 108.254 16.1556ZM117.68 10.36L115.774 15.1339H115.72L113.742 10.36H111.952L114.918 17.0364L113.226 20.7446H114.963L119.525 10.36H117.68ZM102.704 17.4063H104.37V6.39636H102.704V17.4063Z" fill="white"/>
    <defs>
        <linearGradient id="paint0_linear_1501_5179" x1="20.2871" y1="7.95379" x2="-0.592239" y2="29.1688" gradientUnits="userSpaceOnUse">
            <stop stop-color="#00A0FF"/>
            <stop offset="0.00657445" stop-color="#00A1FF"/>
            <stop offset="0.2601" stop-color="#00BEFF"/>
            <stop offset="0.5122" stop-color="#00D2FF"/>
            <stop offset="0.7604" stop-color="#00DFFF"/>
            <stop offset="1" stop-color="#00E3FF"/>
        </linearGradient>
        <linearGradient id="paint1_linear_1501_5179" x1="35.5037" y1="22.0022" x2="4.91202" y2="22.0022" gradientUnits="userSpaceOnUse">
            <stop stop-color="#FFE000"/>
            <stop offset="0.4087" stop-color="#FFBD00"/>
            <stop offset="0.7754" stop-color="#FFA500"/>
            <stop offset="1" stop-color="#FF9C00"/>
        </linearGradient>
        <linearGradient id="paint2_linear_1501_5179" x1="24.1149" y1="24.8581" x2="-4.19914" y2="53.6273" gradientUnits="userSpaceOnUse">
            <stop stop-color="#FF3A44"/>
            <stop offset="1" stop-color="#C31162"/>
        </linearGradient>
        <linearGradient id="paint3_linear_1501_5179" x1="1.95722" y1="-2.66569" x2="14.6007" y2="10.181" gradientUnits="userSpaceOnUse">
            <stop stop-color="#32A071"/>
            <stop offset="0.0685" stop-color="#2DA771"/>
            <stop offset="0.4762" stop-color="#15CF74"/>
            <stop offset="0.8009" stop-color="#06E775"/>
            <stop offset="1" stop-color="#00F076"/>
        </linearGradient>
        <clipPath id="clip0_1501_5179">
            <rect width="32" height="32" fill="white" transform="translate(4 6)"/>
        </clipPath>
    </defs>
</svg>
