<svg width="151" height="72" fill="none" xmlns="http://www.w3.org/2000/svg"><path d="M9.444 10.373c-.275.29-.436.738-.436 1.307v20.642c0 .58.161 1.027.436 1.307l.066.065L21.26 22.141v-.28L9.51 10.308l-.066.065Z" fill="url(#a)"/><path d="m25.178 25.994-3.916-3.854v-.28l3.916-3.854.085.046 4.637 2.595c1.327.737 1.327 1.95 0 2.697l-4.637 2.594-.085.056Z" fill="url(#b)"/><path d="M25.262 25.948 21.26 22 9.445 33.628c.436.457 1.157.513 1.973.056l13.844-7.736Z" fill="url(#c)"/><path d="M25.263 18.062 11.41 10.316c-.816-.457-1.536-.401-1.973.056L21.262 22l4.001-3.938Z" fill="url(#d)"/><path opacity=".2" d="m25.176 25.854-13.768 7.699c-.768.43-1.46.401-1.896.01l-.067.065.067.065c.445.392 1.128.42 1.896-.01l13.854-7.745-.086-.084Z" fill="#000"/><path opacity=".12" d="M9.444 33.497c-.275-.29-.436-.737-.436-1.307v.14c0 .579.161 1.027.436 1.307l.066-.065-.066-.075ZM29.9 23.213l-4.732 2.641.085.084 4.637-2.594c.664-.373.996-.859.996-1.344-.048.439-.38.877-.986 1.213Z" fill="#000"/><path opacity=".25" d="m11.409 10.446 18.49 10.34c.597.336.938.765.995 1.213 0-.485-.332-.98-.995-1.343l-18.49-10.34C10.08 9.578 9 10.194 9 11.687v.14c0-1.502 1.09-2.118 2.409-1.38Z" fill="#fff"/><path d="M72.18 19.52c-2.791 0-5.072 2.102-5.072 4.99 0 2.878 2.281 4.992 5.073 4.992 2.791 0 5.072-2.114 5.072-4.991 0-2.89-2.28-4.991-5.072-4.991Zm0 8.02c-1.532 0-2.85-1.244-2.85-3.03 0-1.796 1.318-3.03 2.85-3.03 1.533 0 2.852 1.234 2.852 3.03 0 1.786-1.319 3.03-2.851 3.03Zm-11.059-8.02c-2.791 0-5.072 2.102-5.072 4.99 0 2.878 2.28 4.992 5.072 4.992 2.792 0 5.072-2.114 5.072-4.991 0-2.89-2.28-4.991-5.072-4.991Zm0 8.02c-1.532 0-2.85-1.244-2.85-3.03 0-1.796 1.318-3.03 2.85-3.03s2.851 1.234 2.851 3.03c0 1.786-1.319 3.03-2.85 3.03ZM47.96 21.059v2.114h5.132c-.155 1.186-.559 2.067-1.164 2.666-.749.74-1.913 1.55-3.956 1.55-3.16 0-5.63-2.513-5.63-5.637 0-3.124 2.47-5.637 5.63-5.637 1.699 0 2.946.658 3.86 1.515l1.51-1.492C52.056 14.927 50.358 14 47.958 14 43.635 14 40 17.476 40 21.763c0 4.275 3.635 7.762 7.959 7.762 2.34 0 4.098-.751 5.476-2.172 1.414-1.398 1.853-3.37 1.853-4.956a6.34 6.34 0 0 0-.118-1.327h-7.211v-.012Zm53.824 1.644c-.415-1.115-1.698-3.182-4.324-3.182-2.601 0-4.763 2.02-4.763 4.99 0 2.796 2.138 4.992 5.013 4.992a5.018 5.018 0 0 0 4.205-2.208l-1.722-1.139c-.57.834-1.355 1.386-2.483 1.386-1.129 0-1.936-.517-2.447-1.515l6.759-2.76-.238-.564Zm-6.89 1.668c-.059-1.926 1.51-2.913 2.638-2.913.879 0 1.627.435 1.877 1.057l-4.514 1.856Zm-5.488 4.838h2.222v-14.68h-2.222v14.68Zm-3.647-8.573h-.07c-.5-.587-1.45-1.115-2.662-1.115-2.53 0-4.846 2.196-4.846 5.014 0 2.795 2.316 4.98 4.846 4.98 1.2 0 2.162-.529 2.661-1.14h.071v.717c0 1.914-1.033 2.936-2.696 2.936-1.354 0-2.198-.963-2.542-1.773l-1.937.798C79.142 32.38 80.615 34 83.062 34c2.601 0 4.8-1.515 4.8-5.203v-8.972h-2.104v.81Zm-2.542 6.906c-1.532 0-2.815-1.268-2.815-3.007 0-1.761 1.283-3.041 2.815-3.041 1.509 0 2.697 1.292 2.697 3.041 0 1.739-1.188 3.007-2.697 3.007Zm28.962-13.013h-5.31v14.68h2.221v-5.566h3.101c2.459 0 4.87-1.762 4.87-4.557 0-2.795-2.423-4.557-4.882-4.557Zm.059 7.07h-3.148V16.56h3.148a2.56 2.56 0 0 1 2.602 2.513c0 1.151-.939 2.525-2.602 2.525Zm13.697-2.102c-1.604 0-3.267.705-3.956 2.243l1.972.81c.416-.81 1.2-1.08 2.019-1.08 1.141 0 2.317.681 2.329 1.891v.153c-.404-.224-1.26-.564-2.317-.564-2.126 0-4.276 1.15-4.276 3.3 0 1.961 1.734 3.23 3.682 3.23 1.485 0 2.317-.658 2.827-1.433h.072v1.139h2.138V23.56c.024-2.608-1.948-4.064-4.49-4.064Zm-.262 8.045c-.724 0-1.734-.364-1.734-1.245 0-1.127 1.259-1.562 2.352-1.562.974 0 1.437.211 2.02.493-.179 1.35-1.367 2.314-2.638 2.314Zm12.568-7.728-2.542 6.366h-.071l-2.637-6.366h-2.388l3.956 8.902-2.257 4.944h2.316l6.082-13.846h-2.459Zm-19.968 9.396h2.221v-14.68h-2.221v14.68Z" fill="#fff"/><path d="m48 43 2.356 4.758 5.252.77-3.796 3.71.89 5.234L48 55.008l-4.702 2.464.89-5.233-3.797-3.711 5.253-.77L48 43ZM65 43l2.356 4.758 5.253.77-3.797 3.71.89 5.234L65 55.008l-4.702 2.464.89-5.233-3.797-3.711 5.253-.77L65 43ZM82 43l2.356 4.758 5.253.77-3.797 3.71.89 5.234L82 55.008l-4.702 2.464.89-5.233-3.797-3.711 5.253-.77L82 43ZM99 43l2.356 4.758 5.252.77-3.796 3.71.89 5.234L99 55.008l-4.702 2.464.89-5.233-3.797-3.711 5.253-.77L99 43ZM116 43l2.356 4.758 5.252.77-3.796 3.71.89 5.234L116 55.008l-4.702 2.464.89-5.233-3.796-3.711 5.252-.77L116 43Z" fill="#00C26F"/><path opacity=".4" d="M131.306 51.524v-3.169l-2.242 3.17h2.242ZM131.32 54v-1.709h-3.066v-.86l3.203-4.443h.742v4.536h1.03v.767h-1.03V54h-.879Zm3.201-1.065h1.02V54h-1.02v-1.065Zm4.748-2.998c.388 0 .69-.107.909-.322.218-.218.327-.477.327-.776 0-.26-.104-.5-.313-.718-.208-.218-.526-.327-.952-.327-.423 0-.729.109-.918.327a1.133 1.133 0 0 0-.283.767c0 .329.122.586.366.771.244.186.532.279.864.279Zm.054 3.462c.407 0 .744-.109 1.011-.327.27-.221.405-.55.405-.986 0-.453-.138-.796-.415-1.03-.277-.235-.631-.352-1.064-.352-.42 0-.764.12-1.031.361-.263.238-.395.569-.395.992 0 .364.12.68.361.947.244.264.62.395 1.128.395Zm-1.25-3.125a1.74 1.74 0 0 1-.571-.366c-.257-.26-.386-.599-.386-1.015 0-.521.189-.969.566-1.343.378-.374.914-.562 1.607-.562.67 0 1.196.178 1.577.532.381.352.571.764.571 1.236 0 .436-.11.79-.332 1.06-.123.152-.315.302-.576.449.29.133.518.286.684.459.309.325.464.748.464 1.27 0 .614-.207 1.137-.621 1.566-.413.427-.997.64-1.752.64-.681 0-1.257-.184-1.729-.552-.469-.37-.703-.908-.703-1.61 0-.414.101-.77.303-1.07.201-.303.501-.534.898-.694Z" fill="#fff"/><defs><linearGradient id="a" x1="20.215" y1="11.465" x2="4.556" y2="27.376" gradientUnits="userSpaceOnUse"><stop stop-color="#00A0FF"/><stop offset=".007" stop-color="#00A1FF"/><stop offset=".26" stop-color="#00BEFF"/><stop offset=".512" stop-color="#00D2FF"/><stop offset=".76" stop-color="#00DFFF"/><stop offset="1" stop-color="#00E3FF"/></linearGradient><linearGradient id="b" x1="31.63" y1="22.001" x2="8.686" y2="22.001" gradientUnits="userSpaceOnUse"><stop stop-color="#FFE000"/><stop offset=".409" stop-color="#FFBD00"/><stop offset=".775" stop-color="orange"/><stop offset="1" stop-color="#FF9C00"/></linearGradient><linearGradient id="c" x1="23.087" y1="24.143" x2="1.852" y2="45.72" gradientUnits="userSpaceOnUse"><stop stop-color="#FF3A44"/><stop offset="1" stop-color="#C31162"/></linearGradient><linearGradient id="d" x1="6.467" y1="3.5" x2="15.95" y2="13.135" gradientUnits="userSpaceOnUse"><stop stop-color="#32A071"/><stop offset=".069" stop-color="#2DA771"/><stop offset=".476" stop-color="#15CF74"/><stop offset=".801" stop-color="#06E775"/><stop offset="1" stop-color="#00F076"/></linearGradient></defs></svg>
