<svg width="41" height="24" viewBox="0 0 41 24" fill="none" xmlns="http://www.w3.org/2000/svg">
    <g clip-path="url(#clip0_1409_3750)">
        <path fill-rule="evenodd" clip-rule="evenodd" d="M11.0651 1.71908C10.2587 1.71908 8.76379 2.05053 7.19374 2.4782C7.18944 2.47937 7.18513 2.48049 7.18081 2.48155C5.63373 2.90111 4.06886 3.39792 3.1428 3.70122C2.95225 3.76466 2.78339 3.88045 2.65555 4.03535C2.52951 4.18807 2.44836 4.37271 2.42104 4.5687C2.4206 4.57266 2.42012 4.57663 2.41959 4.58058C1.61519 10.6349 3.47804 15.0717 5.70633 17.9922C5.7113 17.9987 5.71612 18.0053 5.7208 18.012C6.66231 19.2536 7.78393 20.3477 9.04859 21.2581L9.04921 21.2585C9.46605 21.5595 9.90809 21.8239 10.3704 22.0487C10.3817 22.0542 10.3927 22.0601 10.4036 22.0663C10.6097 22.1756 10.8337 22.247 11.0649 22.2772C11.2998 22.2463 11.5273 22.173 11.7363 22.0607C11.7427 22.0573 11.7492 22.0539 11.7558 22.0507C12.2186 21.8248 12.6614 21.56 13.0794 21.2591L13.4075 21.715L13.0795 21.2591C14.3462 20.3475 15.4695 19.2516 16.412 18.0078C16.4186 17.9986 16.4254 17.9896 16.4325 17.9808C16.6494 17.6971 16.8618 17.3984 17.0697 17.0847C17.241 16.8262 17.5896 16.7555 17.8481 16.9268C18.1067 17.0982 18.1774 17.4467 18.006 17.7053C17.7827 18.0423 17.5534 18.3646 17.3181 18.672C17.3176 18.6726 17.3171 18.6732 17.3167 18.6738C16.3046 20.012 15.0974 21.1908 13.7356 22.1709C13.2688 22.5068 12.7745 22.8027 12.258 23.0556C11.9054 23.2434 11.5196 23.3608 11.122 23.4013C11.0843 23.4052 11.0463 23.4052 11.0086 23.4014C10.6076 23.3609 10.2185 23.2419 9.86346 23.0513C9.34865 22.7998 8.85627 22.5047 8.39169 22.1693C7.03081 21.1895 5.82449 20.0113 4.81295 18.6739C4.80879 18.6684 4.80473 18.6628 4.80078 18.6571C2.42049 15.53 0.462 10.8093 1.30452 4.44432C1.30494 4.44051 1.3054 4.4367 1.30589 4.4329C1.3592 4.02399 1.52671 3.63839 1.78919 3.32034C2.05168 3.00229 2.39851 2.76469 2.78989 2.63479L2.792 2.63409L2.792 2.63409C3.72801 2.32753 5.32001 1.82194 6.89869 1.39418C6.90256 1.39314 6.90643 1.39213 6.91032 1.39117C8.45059 0.97196 10.0855 0.595779 11.0651 0.595779C12.0471 0.595779 13.6873 0.975059 15.2302 1.39247L15.2328 1.39321C16.6112 1.77348 17.9798 2.18677 19.3387 2.63308L19.3407 2.63376C19.7321 2.76399 20.0788 3.00184 20.3412 3.32005C20.6036 3.63826 20.771 4.02396 20.8243 4.43294C20.8274 4.457 20.829 4.48124 20.829 4.5055V4.5066C20.829 4.81679 20.5776 5.06825 20.2674 5.06825C19.9776 5.06825 19.7391 4.84884 19.7089 4.5671C19.6814 4.37149 19.6003 4.18721 19.4745 4.03469C19.3466 3.87956 19.1777 3.76355 18.987 3.69991C17.6461 3.25952 16.2956 2.8517 14.9355 2.47644C13.3641 2.05137 11.8714 1.71908 11.0651 1.71908Z" fill="url(#paint0_linear_1409_3750)"/>
        <path d="M6.98828 15.8742H8.59799V8.90202H8.62359L13.0958 15.8742H15.1408V6.78429H13.5295V13.5368H13.5055L9.11326 6.78429H6.98828V15.8742ZM17.7122 13.306C17.9333 13.8679 18.2699 14.3771 18.7002 14.8007C19.1304 15.2243 19.6448 15.5529 20.21 15.7652C20.8243 15.9975 21.4765 16.1133 22.1333 16.1066C22.7979 16.1067 23.4566 15.9828 24.0757 15.7412C24.6435 15.5185 25.161 15.1844 25.5975 14.7584C26.0296 14.3313 26.3694 13.82 26.5959 13.2563C26.8389 12.639 26.958 11.9798 26.9463 11.3165C26.9559 10.6402 26.8347 9.96847 26.5896 9.33812C26.3649 8.76967 26.0249 8.25389 25.5912 7.82324C25.1582 7.39907 24.6392 7.0727 24.0694 6.86615C23.4469 6.64208 22.7883 6.53553 22.1269 6.5519C21.4701 6.54535 20.8179 6.66116 20.2035 6.8934C19.6395 7.10838 19.1262 7.43808 18.6962 7.86163C18.2626 8.29498 17.9228 8.81283 17.6978 9.38304C17.4596 10.0175 17.3456 10.6919 17.3618 11.3694C17.3522 12.0326 17.4734 12.6913 17.7186 13.3076H17.7122L17.7122 13.306ZM19.2658 9.99386C19.4076 9.61165 19.6229 9.26091 19.8995 8.96143C20.1742 8.66458 20.5077 8.42818 20.8787 8.2673C21.2815 8.0952 21.7161 8.01 22.1541 8.01724C22.593 8.01156 23.0283 8.09669 23.4326 8.2673C23.8057 8.42708 24.1409 8.66358 24.4166 8.96143C24.6923 9.26157 24.9075 9.61213 25.0503 9.99386C25.1986 10.3994 25.2718 10.8285 25.2664 11.2603C25.2714 11.7194 25.1956 12.1758 25.0422 12.6085C24.9031 13.0021 24.6878 13.3644 24.4086 13.6747C24.1334 13.9759 23.7982 14.2162 23.4245 14.38C23.0207 14.5494 22.5872 14.6366 22.1492 14.6366C21.7113 14.6366 21.2778 14.5494 20.874 14.38C20.5029 14.2148 20.1701 13.9747 19.8964 13.6747C19.6171 13.3644 19.4018 13.0021 19.2627 12.6085C19.1107 12.1755 19.0354 11.7192 19.0402 11.2603C19.0366 10.8264 19.1125 10.3955 19.2642 9.98908L19.2658 9.99386ZM30.8203 15.8742H32.3019L34.3981 8.95347H34.4237L36.5278 15.8742H38.0608L40.6929 6.78429H39.0576L37.283 13.3332H37.2574L35.2606 6.78429H33.6749L31.6396 13.3332H31.614L29.9146 6.78429H28.1434L30.8203 15.8742Z" fill="#00C26F"/>
    </g>
    <defs>
        <linearGradient id="paint0_linear_1409_3750" x1="10.9673" y1="0.595779" x2="10.9673" y2="23.4042" gradientUnits="userSpaceOnUse">
            <stop stop-color="#FB9600"/>
            <stop offset="0.25081" stop-color="#00C26F"/>
            <stop offset="0.50428" stop-color="#6696D6"/>
            <stop offset="0.776" stop-color="#F28984"/>
            <stop offset="0.9999" stop-color="#5FCEF0"/>
        </linearGradient>
        <clipPath id="clip0_1409_3750">
            <rect width="40.8" height="24" fill="white"/>
        </clipPath>
    </defs>
</svg>
