<svg width="32" height="32" fill="none" xmlns="http://www.w3.org/2000/svg"><path fill-rule="evenodd" clip-rule="evenodd" d="M11.052.773C-.302 4.653-3.73 18.843 4.654 27.254c3.19 3.2 6.886 4.739 11.401 4.746 11.901.019 19.52-12.435 14.242-23.278-1.2-2.464-4.36-5.674-6.807-6.913C19.603-.158 14.919-.548 11.052.773Zm2.853 8.89c1.286 4.875 1.961 6.968 2.123 6.58.101-.243.613-2.067 1.138-4.054l.954-3.612 3.514-.081 3.514-.082v.954c0 .712-.165 1.027-.65 1.24-.637.28-.65.381-.65 5.208 0 4.885.006 4.923.65 5.016.548.078.65.27.65 1.23V23.2h-6.64v-1.158c0-1.043.073-1.158.723-1.158h.721l-.023-4.706c-.012-2.588-.101-4.51-.197-4.27-.096.238-.842 2.844-1.657 5.79l-1.482 5.357h-2.556l-1.454-5.357c-.8-2.946-1.537-5.552-1.638-5.79-.101-.24-.194 1.682-.207 4.27l-.022 4.706h.721c.65 0 .722.116.722 1.158V23.2H6.675v-1.158c0-.962.097-1.158.571-1.158.808 0 .905-.677.81-5.647-.08-4.188-.106-4.354-.732-4.63-.483-.212-.65-.528-.65-1.23v-.945h6.906l.325 1.23Z" fill="#000"/></svg>
