<svg width="515" height="55" fill="none" xmlns="http://www.w3.org/2000/svg"><g clip-path="url(#a)"><path d="M177 1c-8.284 0-15 6.716-15 15 0 8.284 6.716 15 15 15a1 1 0 0 0 .708-.292l14-14c.187-.188.292-.443.292-.708-.009-8.28-6.719-14.991-15-15Z" fill="#E5E5E9"/><path fill-rule="evenodd" clip-rule="evenodd" d="M176.191 1c7.105 2.045 12.302 8.588 12.302 16.337 0 9.296-3.031 13.136-12.301 13.288 1.502.434 4.795 1.125 6.433 1.125 9.402 0 10.875-4.362 10.875-13.751 0-2.26-.443-4.414-1.245-6.387C189.73 5.389 183.617 1 176.474 1h-.283Z" fill="#D7D7D7"/><path d="M193 15c-9.389 0-17 7.611-17 17s7.611 17 17 17 17-7.611 17-17c-.011-9.384-7.616-16.989-17-17Z" fill="#00C26F"/><path d="M176.998 45a9.298 9.298 0 0 1-8.566-7.164l2.116 1.058a1 1 0 0 0 .894-1.79l-4-2c-.028-.014-.06-.012-.09-.024a1.015 1.015 0 0 0-.4-.066.904.904 0 0 0-.096 0 .971.971 0 0 0-.092.032 1 1 0 0 0-.618.442c-.016.026-.042.044-.056.072l-2 4a1 1 0 0 0 .447 1.342h.001c.143.07.301.103.46.098a1 1 0 0 0 .896-.552l.776-1.552A11.166 11.166 0 0 0 176.998 47a1 1 0 0 0 0-2ZM207.448 9.102a1 1 0 0 0-1.342.447v.001l-.776 1.552A11.166 11.166 0 0 0 195 3a1 1 0 0 0 0 2 9.298 9.298 0 0 1 8.564 7.16l-2.116-1.058a1 1 0 0 0-.894 1.79l4 2h.042A.977.977 0 0 0 205 15a.965.965 0 0 0 .516-.144l.018-.016a.988.988 0 0 0 .318-.344c.012-.02.034-.028.044-.048l2-4a1 1 0 0 0-.443-1.343l-.005-.003Z" fill="#DCE2EA"/><path fill-rule="evenodd" clip-rule="evenodd" d="M192.691 15.003c7.105 2.045 12.302 8.588 12.302 16.337 0 9.296-7.472 16.847-16.743 16.999a16.98 16.98 0 0 0 4.724.661C202.376 49 210 41.39 210 32.002c0-2.26-.443-4.414-1.245-6.388-2.525-6.222-8.638-10.611-15.781-10.611h-.283Z" fill="#00AF64"/><path d="M186.572 40H184l1.769-1.84c1.294-1.347 2.571-2.712 3.886-4.037 1.868-1.883 4.813-1.969 6.828-.231.166.143.323.298.475.457 1.781 1.856 3.559 3.715 5.393 5.63h-2.304c-1.013-.935-1.937-1.761-2.83-2.62-.621-.599-1.179-1.263-1.799-1.863-1.308-1.266-3.325-1.206-4.607.12-1.32 1.366-2.633 2.738-3.95 4.107-.097.1-.202.194-.289.277Zm-2.198-15.691 5.111 5.341c2.079 2.172 5.367 2.142 7.458-.057 1.578-1.661 3.172-3.307 4.758-4.961.176-.184.342-.379.57-.632h-2.323c-.896.812-1.636 1.447-2.334 2.126-.696.679-1.343 1.408-2.023 2.104-1.441 1.473-3.462 1.44-4.872-.048-1.327-1.401-2.674-2.784-4.016-4.18h-2.597c.129.149.195.231.268.307Z" fill="#E5E5E9"/><path fill-rule="evenodd" clip-rule="evenodd" d="M177.993 8.684c.198-.377-.258-.833-.631-.637-.304.123-.382.567-.145.792.223.234.66.152.776-.155Zm-4.159.167c.023-.25-.264-.46-.491-.366-.316.085-.351.588-.045.708.231.129.56-.071.536-.342Zm7.737.349c-.354-.043-.411-.607-.069-.72.265-.13.508.114.547.368-.056.216-.235.414-.478.352Zm-6.45 1.576c.058-.445-.483-.806-.863-.564-.355.184-.404.732-.081.97.333.304.924.044.944-.406Zm4.927-.306c.169-.44.855-.454 1.048-.025.19.334-.044.747-.383.86-.45.085-.877-.405-.665-.835Zm-2.477.124c-.357.026-.698.308-.695.687-.02.31.199.562.459.69l.079.007c.147.011.3.024.432-.051.341-.153.509-.61.32-.943-.101-.24-.359-.342-.595-.39Zm-6.668 1.238c.347-.215.814.178.683.558-.072.33-.51.463-.76.253-.268-.197-.225-.67.077-.81Zm13.577.409c.035-.375-.451-.64-.745-.41-.301.188-.269.688.053.834.292.176.711-.082.692-.424Zm-5.923.272c.485-.176 1.062.035 1.338.472.365.534.171 1.348-.395 1.654-.587.363-1.444.056-1.66-.606-.246-.593.112-1.334.717-1.52Zm-1.325.573c-.26-.556-.984-.771-1.522-.515-.573.259-.837 1.022-.54 1.583.265.581 1.037.819 1.584.505.547-.28.783-1.033.478-1.573Zm-4.373.47c.041-.35.368-.578.698-.602a.773.773 0 0 1 .678.686c-.024.36-.299.71-.676.709-.415.036-.779-.381-.7-.793Zm9.421.083c.019-.494-.573-.86-.999-.609-.458.218-.492.94-.051 1.195.424.307 1.079-.062 1.05-.586Zm-7.727 1.238a1.163 1.163 0 0 1 1.313.561c.268.466.159 1.113-.257 1.455-.534.501-1.518.3-1.801-.384-.327-.627.07-1.467.745-1.632Zm6.715.492c-.261-.446-.83-.634-1.315-.494-.68.188-1.041 1.06-.683 1.678.296.597 1.128.797 1.665.415.513-.328.677-1.089.333-1.599Zm-9.924.087c.43-.164.908.316.733.747-.106.393-.654.538-.938.248-.331-.272-.208-.877.205-.995Zm12.286-.073c-.365.02-.626.339-.614.7.072.167.158.343.328.43.361.2.872-.09.845-.519.023-.324-.264-.564-.559-.611Zm-14.401.285c.259-.114.579.113.52.403-.014.33-.495.456-.671.18-.156-.19-.063-.485.151-.583Zm16.878.171c-.073-.215-.365-.309-.548-.178-.303.164-.184.73.184.696.261.04.486-.282.364-.518Zm-10.151 1.402c.682-.18 1.415.395 1.419 1.104.045.716-.677 1.351-1.375 1.186-.539-.088-.962-.613-.945-1.163a1.179 1.179 0 0 1 .901-1.127Zm4.139 1.112c.011-.725-.743-1.31-1.435-1.114a1.17 1.17 0 0 0-.848.864c-.18.63.295 1.344.937 1.428.684.14 1.383-.474 1.346-1.178Zm-6.639-.678c.479-.082.927.457.733.916-.141.49-.846.622-1.158.223-.366-.384-.093-1.086.425-1.139Zm8.831.682c.033-.468-.491-.84-.918-.66-.516.166-.602.96-.129 1.23.418.3 1.065-.055 1.047-.57Zm1.296 1.582c-.167-.315.136-.732.482-.674.163-.003.28.12.385.23l.018.02.004.031c.023.18.048.385-.096.52-.209.267-.68.19-.793-.127Zm-11.968-.097c.072-.382-.393-.706-.716-.49-.308.16-.319.655-.022.829.278.191.699-.002.738-.34Zm5.671.218c.423-.19.963.183.922.654.032.52-.635.88-1.049.568-.46-.268-.383-1.057.127-1.223Zm-2.148 1.244c.033-.408-.451-.739-.811-.547-.254.096-.358.379-.362.633.087.233.263.478.534.484.327.05.65-.236.639-.57Zm5.182-.541c.371-.232.898.1.863.537.009.455-.586.747-.931.448-.334-.235-.294-.799.068-.985Zm1.339 1.989c-.268.057-.462.36-.297.613.169.293.664.188.695-.153.045-.253-.182-.416-.398-.46Zm-8.569.394c.066-.2.225-.398.457-.346.34.024.44.54.143.7-.267.182-.576-.067-.6-.354Zm4.685-.053c-.249-.157-.628-.013-.693.282-.119.299.167.66.483.622.17.005.301-.118.403-.24.02-.083.04-.165.063-.248l-.002-.005c-.042-.157-.09-.34-.254-.411Z" fill="#00C26F"/></g><g clip-path="url(#b)"><path d="M316 1c-8.284 0-15 6.716-15 15 0 8.284 6.716 15 15 15a1 1 0 0 0 .708-.292l14-14c.187-.188.292-.443.292-.708-.009-8.28-6.719-14.991-15-15Z" fill="#E5E5E9"/><path fill-rule="evenodd" clip-rule="evenodd" d="M315.191 1c7.105 2.045 12.302 8.588 12.302 16.337 0 9.296-3.031 13.136-12.301 13.288 1.502.434 4.795 1.125 6.433 1.125 9.402 0 10.875-4.362 10.875-13.751 0-2.26-.443-4.414-1.245-6.387C328.73 5.389 322.617 1 315.474 1h-.283Z" fill="#D7D7D7"/><path d="M309.572 25H307l1.769-1.84c1.294-1.347 2.571-2.712 3.886-4.037 1.868-1.883 4.813-1.969 6.828-.231.166.143.323.298.475.457 1.781 1.856 3.559 3.715 5.393 5.63h-2.304c-1.013-.935-1.937-1.761-2.83-2.62-.621-.599-1.179-1.263-1.799-1.863-1.308-1.266-3.325-1.206-4.607.12-1.32 1.366-2.633 2.738-3.95 4.107-.097.1-.202.194-.289.277Zm-2.198-15.691 5.111 5.341c2.079 2.172 5.367 2.142 7.458-.058 1.578-1.66 3.172-3.306 4.758-4.96.176-.184.342-.378.57-.632h-2.323c-.896.812-1.636 1.447-2.334 2.126-.696.679-1.343 1.408-2.023 2.104-1.441 1.473-3.462 1.44-4.872-.048-1.327-1.402-2.674-2.784-4.016-4.18h-2.597c.129.149.195.231.268.307Z" fill="#00C26F"/><path d="M332 15c-9.389 0-17 7.611-17 17s7.611 17 17 17 17-7.611 17-17c-.011-9.384-7.616-16.989-17-17Z" fill="#00C26F"/><path d="M315.998 45a9.298 9.298 0 0 1-8.566-7.164l2.116 1.058a1 1 0 0 0 .894-1.79l-4-2c-.028-.014-.06-.012-.09-.024a1.015 1.015 0 0 0-.4-.066.904.904 0 0 0-.096 0 .971.971 0 0 0-.092.032 1 1 0 0 0-.618.442c-.016.026-.042.044-.056.072l-2 4a1 1 0 0 0 .448 1.342c.143.07.301.103.46.098a1 1 0 0 0 .896-.552l.776-1.552A11.166 11.166 0 0 0 315.998 47a1 1 0 0 0 0-2ZM346.448 9.102a1 1 0 0 0-1.342.447v.001l-.776 1.552A11.166 11.166 0 0 0 334 3a1 1 0 0 0 0 2 9.298 9.298 0 0 1 8.564 7.16l-2.116-1.058a1 1 0 0 0-.894 1.79l4 2h.042A.977.977 0 0 0 344 15a.965.965 0 0 0 .516-.144l.018-.016a.988.988 0 0 0 .318-.344c.012-.02.034-.028.044-.048l2-4a1 1 0 0 0-.443-1.343l-.005-.003Z" fill="#DCE2EA"/><path fill-rule="evenodd" clip-rule="evenodd" d="M331.691 15.003c7.105 2.045 12.302 8.588 12.302 16.337 0 9.296-7.472 16.847-16.743 16.999a16.98 16.98 0 0 0 4.724.661C341.376 49 349 41.39 349 32.002c0-2.26-.443-4.414-1.245-6.388-2.525-6.222-8.638-10.611-15.781-10.611h-.283Z" fill="#00AF64"/><path d="m337.489 39.205-.398-1.806a.347.347 0 0 0-.466-.262l-.057.023-.136.034-.211.051a7.063 7.063 0 0 1-1.403.165c-.962 0-1.828-.26-2.596-.779a4.573 4.573 0 0 1-1.699-2.108h4.397c.084 0 .16-.028.227-.085a.338.338 0 0 0 .125-.21l.273-1.273a.369.369 0 0 0-.068-.307.356.356 0 0 0-.284-.136h-5.216a10.56 10.56 0 0 1 0-1.194h5.546c.204 0 .326-.098.363-.295l.273-1.295a.332.332 0 0 0-.079-.296.335.335 0 0 0-.284-.136h-5.319a4.49 4.49 0 0 1 1.705-2c.758-.485 1.614-.728 2.568-.728.031-.015.142-.011.335.012.193.022.303.032.33.028a1.88 1.88 0 0 1 .295.034l.256.04.199.04c.057.011.1.02.131.028l.045.011a.335.335 0 0 0 .432-.25l.489-1.806a.38.38 0 0 0-.034-.273.433.433 0 0 0-.228-.17 9.062 9.062 0 0 0-2.204-.262c-1.698 0-3.214.485-4.552 1.455-1.337.97-2.259 2.25-2.767 3.84h-1.113a.354.354 0 0 0-.262.103.354.354 0 0 0-.102.261v1.296c0 .106.034.193.102.26a.355.355 0 0 0 .262.103h.761c-.023.364-.026.761-.011 1.193h-.75a.35.35 0 0 0-.256.108.35.35 0 0 0-.108.256v1.284a.35.35 0 0 0 .108.256.349.349 0 0 0 .256.108h1.079c.477 1.674 1.379 3.005 2.705 3.994 1.326.989 2.875 1.483 4.648 1.483a8.175 8.175 0 0 0 .852-.045 10.722 10.722 0 0 0 1.011-.165c.091-.02.173-.04.245-.063.072-.022.132-.04.182-.05a.558.558 0 0 0 .119-.04l.057-.011a.357.357 0 0 0 .193-.165.334.334 0 0 0 .034-.256Z" fill="#E5E5E9"/></g><path d="M12 25c0 13.255 10.745 24 24 24s24-10.745 24-24S49.255 1 36 1 12 11.745 12 25Z" fill="#fff"/><path fill-rule="evenodd" clip-rule="evenodd" d="M36 2c12.703 0 23 10.297 23 23S48.703 48 36 48 13 37.703 13 25 23.297 2 36 2Zm25 23C61 11.193 49.807 0 36 0S11 11.193 11 25s11.193 25 25 25 25-11.193 25-25Z" fill="#DCE2EA"/><path fill-rule="evenodd" clip-rule="evenodd" d="M36.862 6.067c2.568.353 4.666 1.354 6.501 3.103a11.02 11.02 0 0 1 1.034 14.856c-3.834 4.854-10.832 5.727-15.794 1.97-1.35-1.021-2.5-2.415-3.325-4.031-.297-.582-.74-1.93-.904-2.752-.221-1.111-.201-3.167.042-4.29.828-3.821 3.549-6.92 7.262-8.272 1.439-.524 3.737-.783 5.184-.584Zm7.366 23.142c3.24.455 6.633 2.366 8.686 4.893C54.008 35.447 55 37.17 55 37.721c0 .658-1.974 3.282-3.714 4.938-3.697 3.52-7.924 5.56-12.844 6.202-1.295.169-4.258.186-5.54.033a22.794 22.794 0 0 1-11.452-4.753c-.955-.754-3.02-2.842-3.756-3.797C16.774 39.15 16 37.928 16 37.671c0-.273.464-1.285.895-1.953 1.454-2.25 3.48-4.08 5.755-5.196 2.05-1.005 4.46-1.556 5.295-1.21.151.063.58.311.952.551 1.259.814 2.843 1.448 4.36 1.748 1.047.206 3.44.206 4.486 0a13.346 13.346 0 0 0 4.595-1.896c.565-.376.772-.468 1.252-.555.07-.012.357.01.638.05Z" fill="#9696A5"/><path fill-rule="evenodd" clip-rule="evenodd" d="M36 2c12.703 0 23 10.297 23 23S48.703 48 36 48 13 37.703 13 25 23.297 2 36 2Zm25 23C61 11.193 49.807 0 36 0S11 11.193 11 25s11.193 25 25 25 25-11.193 25-25Z" fill="#DCE2EA"/><rect y="36" width="70" height="19" rx="2" fill="#8080BE"/><path d="M12.49 42.838 10.366 49H9.082l2.676-7.11h.82l-.088.948ZM14.268 49l-2.13-6.162-.092-.947h.825L15.557 49h-1.29Zm-.103-2.637v.972h-3.867v-.972h3.867ZM18.418 49h-1.519l.01-.972h1.509c.44 0 .807-.096 1.104-.288.299-.192.524-.467.673-.825.153-.358.23-.785.23-1.28v-.385c0-.384-.044-.724-.132-1.02a2.001 2.001 0 0 0-.38-.748 1.595 1.595 0 0 0-.616-.459 2.089 2.089 0 0 0-.835-.156H16.87v-.976h1.592c.472 0 .903.08 1.294.239.39.156.727.382 1.01.679.287.296.507.65.66 1.064.153.413.23.876.23 1.387v.376c0 .51-.077.973-.23 1.386a3.014 3.014 0 0 1-.66 1.065c-.286.293-.628.52-1.025.679a3.56 3.56 0 0 1-1.323.234Zm-.84-7.11V49h-1.226v-7.11h1.226ZM25.547 42.838 23.423 49h-1.284l2.675-7.11h.82l-.087.948ZM27.324 49l-2.129-6.162-.093-.947h.826L28.613 49h-1.289Zm-.102-2.637v.972h-3.867v-.972h3.867ZM34.15 45.494v.938h-2.583v-.938h2.583ZM38.477 45.987l-3.287-1.225v-1.138l4.22 1.811v.772l-.933-.22Zm-3.287 1.055 3.296-1.25.923-.195v.766L35.19 48.18v-1.138ZM47.637 48.028V49h-3.775v-.972h3.775Zm-3.428-6.137V49h-1.226v-7.11h1.226Zm2.935 2.968v.957h-3.282v-.957h3.282Zm.468-2.968v.976h-3.75v-.976h3.75ZM52.627 41.89h1.22v4.752c0 .54-.117.992-.35 1.357-.235.365-.554.64-.958.825-.4.183-.848.274-1.343.274-.51 0-.966-.091-1.367-.274-.4-.185-.716-.46-.947-.825-.228-.365-.342-.817-.342-1.357V41.89h1.22v4.75c0 .342.06.624.177.845a1.1 1.1 0 0 0 .498.484c.214.104.468.156.761.156s.546-.052.757-.156a1.1 1.1 0 0 0 .498-.484c.117-.221.176-.503.176-.844V41.89ZM55.18 41.89h2.515c.54 0 1.001.082 1.382.245.381.163.672.403.874.722.205.316.308.707.308 1.172 0 .355-.065.668-.196.938-.13.27-.314.498-.551.683-.238.183-.521.324-.85.425l-.371.18h-2.26l-.01-.97h1.694c.293 0 .537-.053.732-.157.196-.104.342-.246.44-.425.1-.182.151-.387.151-.615 0-.248-.049-.462-.146-.645a.943.943 0 0 0-.44-.424c-.198-.101-.45-.152-.757-.152h-1.289V49h-1.225v-7.11ZM59.239 49l-1.67-3.193 1.285-.005 1.694 3.135V49h-1.309Z" fill="#fff"/><path d="M111.829 18.345h-2.754L108.499 20h-1.284l2.685-7.11h1.109l2.69 7.11h-1.289l-.581-1.655Zm-2.407-.996h2.06l-1.03-2.95-1.03 2.95ZM114.51 20v-7.11h2.099c.629 0 1.185.14 1.67.42.489.28.866.678 1.133 1.192.267.514.4 1.103.4 1.768v.356c0 .674-.135 1.266-.405 1.777a2.81 2.81 0 0 1-1.147 1.182c-.495.277-1.063.415-1.704.415h-2.046Zm1.235-6.113v5.127h.806c.648 0 1.144-.202 1.489-.606.348-.407.526-.99.532-1.748v-.395c0-.772-.167-1.361-.503-1.768-.335-.407-.822-.61-1.46-.61h-.864ZM124.915 18.345h-2.754L121.585 20h-1.284l2.685-7.11h1.109l2.69 7.11h-1.289l-.581-1.655Zm-2.407-.996h2.06l-1.03-2.95-1.03 2.95ZM250.188 15.459l1.494-2.568h1.425l-2.148 3.525L253.156 20h-1.44l-1.528-2.607L248.654 20h-1.435l2.202-3.584-2.153-3.525h1.425l1.495 2.568ZM256.682 17.26h-1.377V20h-1.236v-7.11h2.5c.821 0 1.454.184 1.9.552.446.368.669.9.669 1.597 0 .475-.116.874-.347 1.196a2.183 2.183 0 0 1-.957.738l1.597 2.963V20h-1.324l-1.425-2.74Zm-1.377-.99h1.269c.417 0 .742-.105.977-.313.234-.212.351-.5.351-.864 0-.381-.109-.676-.327-.884-.215-.208-.537-.316-.967-.322h-1.303v2.383ZM261.545 17.358V20h-1.235v-7.11h2.719c.795 0 1.424.207 1.89.62.469.414.703.961.703 1.641 0 .697-.229 1.239-.688 1.626-.456.388-1.096.581-1.919.581h-1.47Zm0-.99h1.484c.44 0 .775-.103 1.006-.308.231-.209.347-.508.347-.899 0-.384-.117-.69-.352-.918-.234-.231-.556-.35-.967-.356h-1.518v2.48ZM390.171 16.826h-2.92v2.188h3.413V20h-4.648v-7.11h4.614v.997h-3.379v1.963h2.92v.976ZM396.87 12.89v4.752c0 .755-.242 1.354-.727 1.797-.482.439-1.125.659-1.929.659-.814 0-1.46-.217-1.939-.65-.478-.436-.717-1.04-.717-1.811V12.89h1.23v4.755c0 .476.121.839.361 1.09.241.25.596.375 1.065.375.95 0 1.426-.501 1.426-1.504v-4.716h1.23ZM400.806 17.26h-1.377V20h-1.236v-7.11h2.5c.821 0 1.454.184 1.9.552.446.368.669.9.669 1.597 0 .475-.116.874-.347 1.196a2.183 2.183 0 0 1-.957.738l1.597 2.963V20h-1.324l-1.425-2.74Zm-1.377-.99h1.269c.417 0 .742-.105.977-.313.234-.212.351-.5.351-.864 0-.381-.109-.676-.327-.884-.215-.208-.537-.316-.967-.322h-1.303v2.383Z" fill="#2B2B37"/><path d="M453 25c0 13.255 10.745 24 24 24s24-10.745 24-24-10.745-24-24-24-24 10.745-24 24Z" fill="#fff"/><path fill-rule="evenodd" clip-rule="evenodd" d="M477 2c12.703 0 23 10.297 23 23s-10.297 23-23 23-23-10.297-23-23 10.297-23 23-23Zm25 23c0-13.807-11.193-25-25-25s-25 11.193-25 25 11.193 25 25 25 25-11.193 25-25Z" fill="#DCE2EA"/><path fill-rule="evenodd" clip-rule="evenodd" d="M477.862 6.067c2.568.353 4.666 1.354 6.501 3.103a11.019 11.019 0 0 1 1.034 14.856c-3.834 4.854-10.832 5.727-15.794 1.97-1.351-1.021-2.5-2.415-3.325-4.031-.297-.582-.74-1.93-.904-2.752-.221-1.111-.201-3.167.042-4.29.828-3.821 3.549-6.92 7.262-8.272 1.438-.524 3.737-.783 5.184-.584Zm7.366 23.142c3.241.455 6.633 2.366 8.686 4.893 1.094 1.345 2.086 3.068 2.086 3.62 0 .658-1.974 3.282-3.714 4.938-3.697 3.52-7.924 5.56-12.844 6.202-1.295.169-4.258.186-5.539.033a22.793 22.793 0 0 1-11.453-4.753c-.955-.754-3.021-2.842-3.756-3.797-.92-1.196-1.694-2.417-1.694-2.674 0-.273.464-1.285.895-1.953 1.454-2.25 3.48-4.08 5.755-5.196 2.049-1.005 4.46-1.556 5.295-1.21.151.063.579.311.952.551 1.259.814 2.843 1.448 4.36 1.748 1.047.206 3.439.206 4.486 0a13.348 13.348 0 0 0 4.595-1.896c.565-.376.772-.468 1.252-.555.07-.012.357.01.638.05Z" fill="#9696A5"/><path fill-rule="evenodd" clip-rule="evenodd" d="M477 2c12.703 0 23 10.297 23 23s-10.297 23-23 23-23-10.297-23-23 10.297-23 23-23Zm25 23c0-13.807-11.193-25-25-25s-25 11.193-25 25 11.193 25 25 25 25-11.193 25-25Z" fill="#DCE2EA"/><rect x="439" y="36" width="73.063" height="17.854" rx="2" fill="#8080BE"/><path d="m450.706 40 1.767 3.568 3.94.578-2.848 2.783.668 3.925-3.527-1.848-3.526 1.848.668-3.925L445 44.146l3.94-.578L450.706 40ZM463.12 40l1.767 3.568 3.94.578-2.848 2.783.668 3.925-3.527-1.848-3.526 1.848.668-3.925-2.848-2.783 3.94-.578L463.12 40ZM475.531 40l1.766 3.568 3.94.578-2.848 2.783.668 3.925-3.526-1.848-3.527 1.848.668-3.925-2.848-2.783 3.94-.578L475.531 40ZM487.945 40l1.766 3.568 3.94.578-2.848 2.783.668 3.925-3.526-1.848-3.527 1.848.668-3.925-2.848-2.783 3.94-.578L487.945 40ZM500.359 40l1.766 3.568 3.94.578-2.848 2.783.668 3.925-3.526-1.848-3.527 1.848.668-3.925-2.848-2.783 3.94-.578L500.359 40Z" fill="#fff"/><path fill-rule="evenodd" clip-rule="evenodd" d="m146.172 22.465 3.182 3.182a.5.5 0 0 1 0 .707l-3.182 3.182a.501.501 0 0 1-.708-.707l2.329-2.329H85v-1h62.793l-2.329-2.328a.5.5 0 0 1 .708-.707ZM285.172 22.465l3.182 3.182a.5.5 0 0 1 0 .707l-3.182 3.182a.501.501 0 0 1-.708-.707l2.329-2.329H224v-1h62.793l-2.329-2.328a.5.5 0 0 1 .708-.707ZM423.172 22.465l3.182 3.182a.5.5 0 0 1 0 .707l-3.182 3.182a.501.501 0 0 1-.708-.707l2.329-2.329H362v-1h62.793l-2.329-2.328a.5.5 0 0 1 .708-.707Z" fill="#DCE2EA"/><defs><clipPath id="a"><path fill="#fff" transform="translate(162 1)" d="M0 0h48v48H0z"/></clipPath><clipPath id="b"><path fill="#fff" transform="translate(301 1)" d="M0 0h48v48H0z"/></clipPath></defs></svg>
