<svg width="78" height="352" fill="none" xmlns="http://www.w3.org/2000/svg"><path d="M13 25c0 13.255 10.745 24 24 24s24-10.745 24-24S50.255 1 37 1 13 11.745 13 25Z" fill="#fff" stroke="#DCE2EA" stroke-width="2"/><path fill-rule="evenodd" clip-rule="evenodd" d="M37.862 6.067c2.568.353 4.666 1.354 6.501 3.103a11.02 11.02 0 0 1 1.034 14.856c-3.834 4.854-10.832 5.727-15.794 1.97-1.35-1.021-2.5-2.415-3.325-4.031-.297-.582-.74-1.93-.904-2.752-.221-1.111-.201-3.167.042-4.29.828-3.821 3.549-6.92 7.262-8.272 1.439-.524 3.737-.783 5.184-.584Zm7.366 23.142c3.24.455 6.633 2.366 8.686 4.893C55.008 35.447 56 37.17 56 37.721c0 .658-1.974 3.282-3.714 4.938-3.697 3.52-7.924 5.56-12.844 6.202-1.295.169-4.258.186-5.54.033a22.794 22.794 0 0 1-11.452-4.753c-.955-.754-3.02-2.842-3.756-3.797C17.774 39.15 17 37.928 17 37.671c0-.273.464-1.285.895-1.953 1.454-2.25 3.48-4.08 5.755-5.196 2.05-1.005 4.46-1.556 5.295-1.21.151.063.58.311.952.551 1.259.814 2.843 1.448 4.36 1.748 1.047.206 3.44.206 4.486 0a13.347 13.347 0 0 0 4.595-1.896c.565-.376.772-.468 1.252-.555.07-.012.357.01.638.05Z" fill="#9696A5"/><path d="M13 25c0 13.255 10.745 24 24 24s24-10.745 24-24S50.255 1 37 1 13 11.745 13 25Z" stroke="#DCE2EA" stroke-width="2"/><rect y="36" width="78" height="19" rx="2" fill="#8080BE"/><path d="M17.491 42.838 15.367 49h-1.284l2.676-7.11h.82l-.088.948ZM19.27 49l-2.13-6.162-.092-.947h.825L20.558 49h-1.29Zm-.103-2.637v.972h-3.867v-.972h3.867ZM23.419 49H21.9l.01-.972h1.509c.44 0 .807-.096 1.104-.288.299-.192.524-.467.673-.825.153-.358.23-.785.23-1.28v-.385c0-.384-.044-.724-.132-1.02a2 2 0 0 0-.38-.748 1.595 1.595 0 0 0-.616-.459 2.09 2.09 0 0 0-.835-.156H21.87v-.976h1.592c.472 0 .903.08 1.294.239.39.156.727.382 1.01.679.287.296.507.65.66 1.064.153.413.23.876.23 1.387v.376c0 .51-.077.973-.23 1.386a3.016 3.016 0 0 1-.66 1.065c-.286.293-.628.52-1.025.679A3.56 3.56 0 0 1 23.42 49Zm-.84-7.11V49h-1.226v-7.11h1.226Zm7.969.948L28.424 49H27.14l2.675-7.11h.82l-.087.948ZM32.325 49l-2.129-6.162-.093-.947h.826L33.614 49h-1.289Zm-.102-2.637v.972h-3.867v-.972h3.867Zm6.928-.869v.938h-2.583v-.938h2.583Zm4.326.493-3.286-1.225v-1.138l4.22 1.811v.772l-.934-.22Zm-3.286 1.055 3.296-1.25.923-.195v.766l-4.219 1.817v-1.138Zm12.447.986V49h-3.775v-.972h3.775Zm-3.428-6.137V49h-1.226v-7.11h1.226Zm2.934 2.968v.957h-3.28v-.957h3.28Zm.47-2.968v.976h-3.75v-.976h3.75Zm5.014 0h1.22v4.75c0 .541-.117.993-.35 1.358-.235.365-.554.64-.958.825-.4.183-.848.274-1.343.274-.51 0-.967-.091-1.367-.274-.4-.185-.716-.46-.947-.825-.228-.365-.342-.817-.342-1.357V41.89h1.22v4.75c0 .342.06.624.176.845a1.1 1.1 0 0 0 .498.484c.215.104.47.156.762.156.293 0 .545-.052.757-.156a1.1 1.1 0 0 0 .498-.484c.117-.221.176-.503.176-.844V41.89Zm2.554 0h2.514c.54 0 1.001.081 1.382.244.381.163.672.403.874.722.205.316.308.707.308 1.172 0 .355-.065.668-.196.938-.13.27-.314.498-.551.683-.238.183-.521.324-.85.425l-.371.18h-2.26l-.01-.97h1.694c.293 0 .537-.053.732-.157.196-.104.342-.246.44-.425.1-.182.151-.387.151-.615 0-.248-.049-.462-.146-.645a.943.943 0 0 0-.44-.424c-.198-.101-.45-.152-.757-.152h-1.289V49h-1.225v-7.11ZM64.239 49l-1.67-3.193 1.284-.005 1.695 3.135V49h-1.309Z" fill="#fff"/><path d="M50.491 75.838 48.367 82h-1.284l2.676-7.11h.82l-.088.948ZM52.27 82l-2.13-6.162-.092-.947h.825L53.558 82h-1.29Zm-.103-2.637v.972h-3.867v-.972h3.867ZM56.419 82H54.9l.01-.972h1.509c.44 0 .807-.096 1.104-.288.299-.192.523-.467.673-.825.153-.358.23-.785.23-1.28v-.385c0-.384-.044-.724-.132-1.02a2 2 0 0 0-.38-.748 1.595 1.595 0 0 0-.616-.459 2.09 2.09 0 0 0-.835-.156H54.87v-.976h1.592c.472 0 .903.08 1.294.239.39.156.727.382 1.01.679.287.296.507.65.66 1.064.153.413.23.876.23 1.387v.376c0 .51-.077.973-.23 1.386a3.016 3.016 0 0 1-.66 1.065c-.286.293-.628.52-1.025.679A3.56 3.56 0 0 1 56.42 82Zm-.84-7.11V82h-1.226v-7.11h1.226Zm7.969.948L61.424 82H60.14l2.675-7.11h.82l-.087.948ZM65.325 82l-2.129-6.162-.093-.947h.826L66.614 82h-1.289Zm-.102-2.637v.972h-3.867v-.972h3.867Z" fill="#2B2B37"/><path d="M38.646 91.354a.5.5 0 0 0 .708 0l3.181-3.182a.5.5 0 1 0-.707-.707L39 90.293l-2.828-2.829a.5.5 0 1 0-.707.708l3.181 3.182ZM38.5 67v24h1V67h-1Z" fill="#DCE2EA"/><g clip-path="url(#a)"><path d="M16 104c-8.284 0-15 6.716-15 15 0 8.284 6.716 15 15 15 .265 0 .52-.105.708-.292l14-14A1 1 0 0 0 31 119c-.009-8.281-6.72-14.991-15-15Z" fill="#E5E5E9"/><path fill-rule="evenodd" clip-rule="evenodd" d="M15.191 104c7.106 2.045 12.302 8.588 12.302 16.337 0 9.296-3.03 13.136-12.301 13.288 1.502.434 4.795 1.125 6.433 1.125 9.402 0 10.875-4.362 10.875-13.751 0-2.26-.443-4.414-1.245-6.387C28.73 108.389 22.617 104 15.475 104h-.284Z" fill="#D7D7D7"/><path d="M32 118c-9.389 0-17 7.611-17 17s7.611 17 17 17 17-7.611 17-17c-.011-9.384-7.616-16.989-17-17Z" fill="#00C26F"/><path d="M15.998 148a9.298 9.298 0 0 1-8.566-7.164l2.116 1.058a1 1 0 0 0 .894-1.79l-4-2c-.028-.014-.06-.012-.09-.024a1.011 1.011 0 0 0-.4-.066.769.769 0 0 0-.096 0 .988.988 0 0 0-.092.032.998.998 0 0 0-.618.442c-.016.026-.042.044-.056.072l-2 4a1 1 0 0 0 .447 1.342h.001a.989.989 0 0 0 .46.098 1 1 0 0 0 .896-.552l.776-1.552A11.166 11.166 0 0 0 15.998 150a1 1 0 0 0 0-2ZM46.448 112.102a1 1 0 0 0-1.342.447v.001l-.776 1.552A11.166 11.166 0 0 0 34 106a1 1 0 0 0 0 2 9.298 9.298 0 0 1 8.564 7.16l-2.116-1.058a1 1 0 0 0-.894 1.79l4 2h.042A.967.967 0 0 0 44 118a.96.96 0 0 0 .516-.144l.018-.016a.978.978 0 0 0 .318-.344c.012-.02.034-.028.044-.048l2-4a1 1 0 0 0-.443-1.343l-.005-.003Z" fill="#DCE2EA"/><path fill-rule="evenodd" clip-rule="evenodd" d="M31.691 118.003c7.105 2.045 12.302 8.588 12.302 16.337 0 9.296-7.472 16.847-16.743 16.999 1.503.434 3.086.661 4.724.661C41.376 152 49 144.391 49 135.002c0-2.26-.443-4.414-1.245-6.387-2.525-6.223-8.638-10.612-15.781-10.612h-.283Z" fill="#00AF64"/><path d="M25.572 143H23l1.77-1.84c1.293-1.347 2.57-2.712 3.885-4.037 1.868-1.883 4.813-1.969 6.828-.231.166.143.323.298.475.457 1.78 1.856 3.56 3.715 5.393 5.63h-2.304c-1.013-.935-1.937-1.761-2.83-2.621-.62-.598-1.179-1.262-1.799-1.862-1.308-1.266-3.325-1.206-4.607.12-1.32 1.366-2.633 2.738-3.95 4.107-.097.101-.202.194-.29.277Zm-2.198-15.691 5.111 5.341c2.08 2.172 5.367 2.142 7.458-.057 1.578-1.661 3.172-3.307 4.758-4.961.176-.184.342-.378.57-.632h-2.323c-.896.812-1.636 1.447-2.334 2.126-.696.679-1.343 1.408-2.023 2.104-1.44 1.473-3.462 1.441-4.872-.048-1.327-1.401-2.674-2.784-4.016-4.18h-2.597c.13.149.195.231.268.307Z" fill="#E5E5E9"/><path fill-rule="evenodd" clip-rule="evenodd" d="M16.993 111.684c.198-.377-.258-.833-.631-.637-.304.123-.382.567-.145.792.223.234.66.153.776-.155Zm-4.16.166c.024-.249-.264-.459-.49-.365-.316.085-.351.588-.045.707.231.129.56-.07.536-.342Zm7.738.35c-.354-.044-.41-.607-.07-.72.266-.131.509.114.547.367-.055.217-.234.415-.477.353Zm-6.45 1.576c.058-.445-.483-.806-.863-.563-.355.183-.404.731-.081.97.333.303.924.043.944-.407Zm4.927-.306c.17-.441.855-.454 1.048-.025.19.333-.044.747-.383.86-.45.085-.877-.406-.665-.835Zm-2.477.124c-.357.026-.698.308-.695.687-.02.309.199.562.459.691l.08.006c.146.011.299.024.43-.051.342-.153.51-.61.321-.943-.101-.241-.359-.342-.595-.39Zm-6.668 1.239c.347-.216.814.177.683.558-.072.329-.51.462-.76.252-.268-.196-.225-.67.077-.81Zm13.577.407c.035-.375-.45-.639-.744-.409-.302.188-.27.687.052.833.292.176.712-.082.692-.424Zm-5.923.273c.486-.176 1.062.035 1.339.472.365.534.17 1.348-.396 1.655-.587.362-1.443.055-1.66-.607-.246-.592.113-1.334.717-1.52Zm-1.325.573c-.26-.556-.984-.771-1.522-.515-.573.259-.837 1.022-.54 1.583.265.581 1.037.819 1.584.505.547-.279.783-1.032.478-1.573Zm-4.373.469c.04-.35.367-.577.697-.601.356.043.64.322.678.685-.023.36-.298.712-.676.709-.415.037-.779-.381-.7-.793Zm9.421.084c.02-.494-.573-.859-.999-.609-.457.218-.492.939-.05 1.195.423.307 1.078-.062 1.05-.586Zm-7.727 1.238a1.164 1.164 0 0 1 1.313.562c.268.466.159 1.113-.257 1.454-.534.501-1.518.3-1.801-.384-.327-.627.07-1.467.745-1.632Zm6.714.492c-.26-.446-.83-.634-1.314-.494-.681.188-1.041 1.06-.683 1.678.295.597 1.127.797 1.664.415.513-.328.677-1.089.333-1.599Zm-9.923.087c.43-.165.908.315.733.747-.106.392-.655.538-.938.248-.33-.272-.208-.877.205-.995Zm12.287-.073c-.366.02-.627.339-.615.699.072.168.158.344.328.431.36.201.872-.09.845-.518.023-.325-.264-.565-.558-.612Zm-14.402.285c.259-.114.58.112.52.403-.014.329-.495.455-.671.181-.156-.191-.063-.486.15-.584Zm16.878.172c-.073-.215-.365-.309-.548-.178-.303.163-.184.729.183.695.262.04.487-.282.365-.517Zm-10.15 1.4c.681-.179 1.414.395 1.418 1.104.045.716-.677 1.352-1.375 1.186-.54-.087-.962-.612-.945-1.163a1.178 1.178 0 0 1 .902-1.127Zm4.138 1.114c.011-.726-.743-1.31-1.435-1.115-.41.103-.758.445-.848.865-.18.63.295 1.343.938 1.427.683.14 1.382-.474 1.345-1.177Zm-6.64-.679c.48-.082.928.457.734.917-.141.489-.846.622-1.158.222-.366-.384-.093-1.086.425-1.139Zm8.832.682c.033-.468-.49-.841-.918-.66-.515.165-.602.96-.129 1.23.418.301 1.065-.055 1.047-.57Zm1.295 1.582c-.167-.315.137-.732.483-.674.162-.003.279.12.384.23l.019.019.004.032c.022.18.048.385-.097.521-.208.266-.68.19-.793-.128Zm-11.968-.097c.073-.382-.393-.706-.716-.489-.308.159-.319.654-.021.828.277.192.698-.001.737-.339Zm5.673.218c.423-.189.962.183.922.654.031.521-.636.881-1.05.569-.46-.269-.382-1.058.128-1.223Zm-2.149 1.244c.033-.408-.45-.739-.811-.547-.254.096-.358.379-.362.633.087.233.263.478.534.484.327.05.65-.236.64-.57Zm5.182-.541c.371-.231.898.101.863.537.01.456-.586.747-.931.448-.334-.234-.294-.798.068-.985Zm1.339 1.989c-.268.057-.462.361-.297.613.169.293.663.188.694-.153.046-.252-.182-.416-.397-.46Zm-8.57.394c.066-.2.226-.399.458-.347.34.025.44.541.143.701-.267.181-.576-.068-.6-.354Zm4.686-.053c-.25-.157-.628-.014-.693.282-.119.299.167.659.483.622.17.004.301-.118.403-.24.02-.083.04-.165.063-.248l-.002-.005c-.041-.157-.09-.341-.254-.411Z" fill="#00C26F"/></g><path d="m48.655 171.891 1.51 2.592 1.508-2.592h1.411l-2.149 3.52L53.139 179h-1.426l-1.548-2.642L48.616 179h-1.43l2.207-3.589-2.154-3.52h1.416Zm5.386 0h2.515c.54 0 1 .081 1.382.244.38.163.672.403.873.722.206.316.308.707.308 1.172 0 .355-.065.668-.195.938-.13.27-.314.498-.552.683-.238.183-.52.324-.85.425l-.37.181H54.89l-.01-.972h1.694c.293 0 .537-.052.733-.156.195-.104.341-.246.44-.425.1-.182.15-.387.15-.615 0-.248-.048-.462-.146-.645a.941.941 0 0 0-.44-.424c-.198-.101-.45-.152-.756-.152h-1.29V179h-1.225v-7.109ZM58.099 179l-1.67-3.193 1.284-.005 1.694 3.135V179H58.1Zm4.941-2.651h-1.85v-.972h1.85c.322 0 .583-.052.781-.156a.975.975 0 0 0 .435-.43c.094-.186.141-.397.141-.635 0-.224-.047-.434-.141-.63a1.079 1.079 0 0 0-.435-.478c-.198-.121-.459-.181-.781-.181h-1.475V179H60.34v-7.109h2.7c.55 0 1.017.097 1.401.293.388.192.682.459.884.8.202.339.303.726.303 1.162 0 .459-.101.853-.303 1.182a1.948 1.948 0 0 1-.884.757c-.384.176-.85.264-1.401.264Z" fill="#2B2B37"/><path d="M38.646 188.354a.5.5 0 0 0 .708 0l3.181-3.182a.501.501 0 0 0-.707-.708L39 187.293l-2.828-2.829a.5.5 0 0 0-.707.708l3.181 3.182ZM38.5 164v24h1v-24h-1Z" fill="#DCE2EA"/><g clip-path="url(#b)"><path d="M16 201c-8.284 0-15 6.716-15 15 0 8.284 6.716 15 15 15 .265 0 .52-.105.708-.292l14-14A1 1 0 0 0 31 216c-.009-8.281-6.72-14.991-15-15Z" fill="#E5E5E9"/><path fill-rule="evenodd" clip-rule="evenodd" d="M15.191 201c7.106 2.045 12.302 8.588 12.302 16.337 0 9.296-3.03 13.136-12.301 13.288 1.502.434 4.795 1.125 6.433 1.125 9.402 0 10.875-4.362 10.875-13.751 0-2.26-.443-4.414-1.245-6.387C28.73 205.389 22.617 201 15.475 201h-.284Z" fill="#D7D7D7"/><path d="M9.572 225H7l1.77-1.84c1.293-1.347 2.57-2.712 3.885-4.037 1.868-1.883 4.813-1.969 6.828-.231.166.143.323.298.475.457 1.78 1.856 3.56 3.715 5.393 5.63h-2.304c-1.013-.935-1.937-1.761-2.83-2.621-.62-.598-1.179-1.262-1.799-1.862-1.308-1.266-3.325-1.206-4.607.12-1.32 1.366-2.633 2.738-3.95 4.107-.097.101-.202.194-.29.277Zm-2.198-15.691 5.111 5.341c2.08 2.172 5.367 2.142 7.457-.057 1.58-1.661 3.173-3.307 4.759-4.961.176-.184.342-.378.57-.632h-2.323c-.896.812-1.636 1.447-2.334 2.126-.696.679-1.343 1.408-2.023 2.104-1.44 1.473-3.462 1.441-4.872-.048-1.327-1.401-2.673-2.784-4.016-4.18H7.106c.13.149.195.231.268.307Z" fill="#00C26F"/><path d="M32 215c-9.389 0-17 7.611-17 17s7.611 17 17 17 17-7.611 17-17c-.011-9.384-7.616-16.989-17-17Z" fill="#00C26F"/><path d="M15.998 245a9.298 9.298 0 0 1-8.566-7.164l2.116 1.058a1 1 0 0 0 .894-1.79l-4-2c-.028-.014-.06-.012-.09-.024a1.011 1.011 0 0 0-.4-.066.769.769 0 0 0-.096 0 .988.988 0 0 0-.092.032.998.998 0 0 0-.618.442c-.016.026-.042.044-.056.072l-2 4a1 1 0 0 0 .447 1.342h.001a.989.989 0 0 0 .46.098 1 1 0 0 0 .896-.552l.776-1.552A11.166 11.166 0 0 0 15.998 247a1 1 0 0 0 0-2ZM46.448 209.102a1 1 0 0 0-1.342.447v.001l-.776 1.552A11.166 11.166 0 0 0 34 203a1 1 0 0 0 0 2 9.298 9.298 0 0 1 8.564 7.16l-2.116-1.058a1 1 0 0 0-.894 1.79l4 2h.042A.967.967 0 0 0 44 215a.96.96 0 0 0 .516-.144l.018-.016a.978.978 0 0 0 .318-.344c.012-.02.034-.028.044-.048l2-4a1 1 0 0 0-.443-1.343l-.005-.003Z" fill="#DCE2EA"/><path fill-rule="evenodd" clip-rule="evenodd" d="M31.691 215.003c7.105 2.045 12.302 8.588 12.302 16.337 0 9.296-7.472 16.847-16.743 16.999 1.503.434 3.086.661 4.724.661C41.376 249 49 241.391 49 232.002c0-2.26-.443-4.414-1.245-6.387-2.525-6.223-8.638-10.612-15.781-10.612h-.283Z" fill="#00AF64"/><path d="m37.489 239.205-.398-1.807a.346.346 0 0 0-.17-.238.34.34 0 0 0-.296-.023l-.057.023-.136.034-.21.051a6.752 6.752 0 0 1-.614.108 9.79 9.79 0 0 1-.38.04 5.09 5.09 0 0 1-.41.017c-.962 0-1.828-.26-2.596-.779a4.572 4.572 0 0 1-1.7-2.108h4.398c.084 0 .16-.028.227-.085a.346.346 0 0 0 .125-.21l.273-1.273a.37.37 0 0 0-.068-.307.354.354 0 0 0-.284-.136h-5.216a10.186 10.186 0 0 1 0-1.193h5.546c.204 0 .326-.099.363-.296l.273-1.295a.334.334 0 0 0-.08-.296.334.334 0 0 0-.283-.136h-5.319a4.487 4.487 0 0 1 1.705-2c.758-.485 1.614-.728 2.568-.728.03-.015.142-.011.335.012.193.022.303.032.33.028.026-.004.125.008.295.034l.256.04.199.04c.057.011.1.02.13.028l.046.011a.332.332 0 0 0 .432-.25l.489-1.806a.377.377 0 0 0-.034-.273.435.435 0 0 0-.228-.171 9.074 9.074 0 0 0-2.204-.261c-1.698 0-3.215.485-4.552 1.455-1.337.969-2.26 2.25-2.767 3.841h-1.113a.354.354 0 0 0-.262.102.354.354 0 0 0-.102.261v1.296c0 .106.034.193.102.261a.355.355 0 0 0 .262.102h.761c-.023.364-.026.761-.011 1.193h-.75a.35.35 0 0 0-.256.108.35.35 0 0 0-.108.256v1.284a.35.35 0 0 0 .108.256.348.348 0 0 0 .256.107h1.08c.477 1.675 1.378 3.006 2.704 3.995 1.326.989 2.875 1.483 4.648 1.483.144 0 .29-.004.437-.011.148-.008.286-.019.415-.034a11.037 11.037 0 0 0 1.011-.165c.091-.019.173-.04.245-.063a2.53 2.53 0 0 1 .182-.05.584.584 0 0 0 .119-.04l.057-.012a.357.357 0 0 0 .227-.42Z" fill="#E5E5E9"/></g><path d="M52.376 275.028V276h-3.774v-.972h3.774Zm-3.428-6.137V276h-1.225v-7.109h1.225Zm2.935 2.968v.957h-3.281v-.957h3.28Zm.469-2.968v.976h-3.75v-.976h3.75Zm5.014 0h1.22v4.751c0 .54-.116.992-.35 1.357-.235.365-.554.64-.958.825-.4.183-.848.274-1.343.274-.51 0-.966-.091-1.367-.274-.4-.185-.716-.46-.947-.825-.228-.365-.342-.817-.342-1.357v-4.751H54.5v4.751c0 .341.059.623.176.844.117.218.283.38.498.484.215.104.469.156.761.156a1.7 1.7 0 0 0 .757-.156c.215-.104.381-.266.498-.484.118-.221.176-.503.176-.844v-4.751Zm2.554 0h2.515c.54 0 1 .081 1.381.244.381.163.673.403.874.722.206.316.308.707.308 1.172 0 .355-.065.668-.195.938-.13.27-.314.498-.552.683-.238.183-.52.324-.85.425l-.37.181H60.77l-.01-.972h1.694c.293 0 .537-.052.733-.156.195-.104.341-.246.439-.425.1-.182.151-.387.151-.615 0-.248-.049-.462-.146-.645a.941.941 0 0 0-.44-.424c-.198-.101-.45-.152-.756-.152h-1.29V276H59.92v-7.109ZM63.977 276l-1.67-3.193 1.285-.005 1.694 3.135V276h-1.309Z" fill="#2B2B37"/><path d="M38.646 285.354a.5.5 0 0 0 .708 0l3.181-3.182a.501.501 0 0 0-.707-.708L39 284.293l-2.828-2.829a.5.5 0 0 0-.707.708l3.181 3.182ZM38.5 261v24h1v-24h-1Z" fill="#DCE2EA"/><path d="M15 322c0 13.255 10.745 24 24 24s24-10.745 24-24-10.745-24-24-24-24 10.745-24 24Z" fill="#fff" stroke="#DCE2EA" stroke-width="2"/><path fill-rule="evenodd" clip-rule="evenodd" d="M39.862 303.067c2.568.353 4.666 1.354 6.501 3.103a11.02 11.02 0 0 1 1.034 14.856c-3.834 4.854-10.832 5.727-15.794 1.971-1.35-1.022-2.5-2.417-3.325-4.032-.297-.582-.74-1.931-.904-2.752-.221-1.111-.201-3.167.042-4.29.828-3.821 3.549-6.92 7.262-8.272 1.439-.524 3.737-.783 5.184-.584Zm7.366 23.142c3.24.455 6.633 2.366 8.686 4.893 1.094 1.345 2.086 3.068 2.086 3.621 0 .657-1.974 3.281-3.714 4.937-3.697 3.519-7.924 5.56-12.844 6.202-1.295.169-4.258.186-5.54.033a22.79 22.79 0 0 1-11.452-4.753c-.955-.754-3.02-2.842-3.756-3.797-.92-1.196-1.694-2.417-1.694-2.674 0-.273.464-1.285.895-1.952 1.454-2.251 3.48-4.08 5.755-5.197 2.05-1.005 4.46-1.556 5.295-1.209.151.062.58.31.952.551 1.259.813 2.843 1.447 4.36 1.747 1.047.206 3.44.206 4.486 0a13.361 13.361 0 0 0 4.595-1.896c.565-.376.772-.468 1.252-.555.07-.012.357.01.638.049Z" fill="#9696A5"/><path d="M15 322c0 13.255 10.745 24 24 24s24-10.745 24-24-10.745-24-24-24-24 10.745-24 24Z" stroke="#DCE2EA" stroke-width="2"/><rect x="1" y="333" width="76" height="19" rx="2" fill="#8080BE"/><path d="m13 337 1.767 3.568 3.94.578-2.848 2.783.668 3.925L13 346.006l-3.527 1.848.668-3.925-2.847-2.783 3.94-.578L13 337ZM26 337l1.767 3.568 3.94.578-2.848 2.783.668 3.925L26 346.006l-3.527 1.848.668-3.925-2.847-2.783 3.94-.578L26 337ZM39 337l1.767 3.568 3.94.578-2.848 2.783.668 3.925L39 346.006l-3.527 1.848.668-3.925-2.847-2.783 3.94-.578L39 337ZM52 337l1.767 3.568 3.94.578-2.848 2.783.668 3.925L52 346.006l-3.527 1.848.668-3.925-2.847-2.783 3.94-.578L52 337ZM65 337l1.767 3.568 3.94.578-2.848 2.783.668 3.925L65 346.006l-3.527 1.848.668-3.925-2.847-2.783 3.94-.578L65 337Z" fill="#fff"/><defs><clipPath id="a"><path fill="#fff" transform="translate(1 104)" d="M0 0h48v48H0z"/></clipPath><clipPath id="b"><path fill="#fff" transform="translate(1 201)" d="M0 0h48v48H0z"/></clipPath></defs></svg>
