<svg width="76" height="352" fill="none" xmlns="http://www.w3.org/2000/svg"><path d="M14.5 25c0 13.255 10.745 24 24 24s24-10.745 24-24-10.745-24-24-24-24 10.745-24 24Z" fill="#fff" stroke="#DCE2EA" stroke-width="2"/><path fill-rule="evenodd" clip-rule="evenodd" d="M39.362 6.067c2.568.353 4.666 1.354 6.501 3.103a11.02 11.02 0 0 1 1.034 14.856c-3.834 4.854-10.832 5.727-15.794 1.97-1.35-1.021-2.5-2.415-3.325-4.031-.297-.582-.74-1.93-.904-2.752-.221-1.111-.201-3.167.042-4.29.828-3.821 3.549-6.92 7.262-8.272 1.439-.524 3.737-.783 5.184-.584Zm7.366 23.142c3.24.455 6.633 2.366 8.686 4.893 1.094 1.345 2.086 3.068 2.086 3.62 0 .658-1.974 3.282-3.714 4.938-3.697 3.52-7.924 5.56-12.844 6.202-1.295.169-4.258.186-5.54.033a22.794 22.794 0 0 1-11.452-4.753c-.955-.754-3.02-2.842-3.756-3.797-.92-1.196-1.694-2.417-1.694-2.674 0-.273.464-1.285.895-1.953 1.454-2.25 3.48-4.08 5.755-5.196 2.05-1.005 4.46-1.556 5.295-1.21.151.063.58.311.952.551 1.259.814 2.843 1.448 4.36 1.748 1.047.206 3.44.206 4.486 0a13.346 13.346 0 0 0 4.595-1.896c.565-.376.772-.468 1.252-.555.07-.012.357.01.638.05Z" fill="#9696A5"/><path d="M14.5 25c0 13.255 10.745 24 24 24s24-10.745 24-24-10.745-24-24-24-24 10.745-24 24Z" stroke="#DCE2EA" stroke-width="2"/><rect x="2.5" y="36" width="71" height="19" rx="2" fill="#8080BE"/><path d="M14.423 41.89v4.752c0 .755-.243 1.354-.728 1.796-.482.44-1.124.66-1.928.66-.814 0-1.46-.217-1.939-.65-.478-.436-.718-1.04-.718-1.811V41.89h1.23v4.756c0 .475.121.838.362 1.088.241.251.596.376 1.065.376.95 0 1.425-.501 1.425-1.504v-4.716h1.23Zm5.039 5.279c0-.313-.11-.553-.332-.723-.218-.169-.614-.34-1.187-.512-.573-.173-1.028-.365-1.367-.577-.648-.407-.972-.937-.972-1.591 0-.573.233-1.045.699-1.416.468-.372 1.076-.557 1.821-.557.495 0 .936.091 1.323.273.388.183.692.443.913.782.222.335.332.708.332 1.118h-1.23c0-.371-.117-.661-.352-.87-.23-.21-.563-.317-.996-.317-.403 0-.718.087-.942.26-.221.172-.332.413-.332.722 0 .26.12.478.361.654.241.173.638.342 1.192.508.553.163.997.35 1.333.561.335.209.58.45.737.723.156.27.234.588.234.952 0 .593-.228 1.065-.683 1.416-.453.348-1.068.523-1.846.523-.514 0-.988-.095-1.42-.283-.43-.193-.766-.456-1.007-.792a1.974 1.974 0 0 1-.356-1.171h1.235c0 .403.134.716.4.937.267.221.65.332 1.148.332.43 0 .752-.086.967-.259a.847.847 0 0 0 .327-.693ZM21.782 49v-7.11h2.099c.628 0 1.185.14 1.67.42.488.28.866.678 1.133 1.192.267.514.4 1.103.4 1.767v.357c0 .674-.135 1.266-.405 1.777a2.81 2.81 0 0 1-1.148 1.182c-.494.277-1.063.415-1.704.415h-2.046Zm1.235-6.113v5.127h.805c.648 0 1.145-.202 1.49-.606.348-.407.525-.99.532-1.748v-.395c0-.772-.168-1.361-.503-1.768-.335-.407-.822-.61-1.46-.61h-.864Zm9.975 3.57H30.43v-.958h2.563v.957Zm4.014-.563-3.018-1.108V43.62l4.219 1.816v.943l-4.219 1.816v-1.167l3.018-1.133ZM41.78 49v-7.11h2.1c.628 0 1.185.14 1.67.42.488.28.866.678 1.133 1.192.267.514.4 1.103.4 1.767v.357c0 .674-.135 1.266-.405 1.777a2.81 2.81 0 0 1-1.148 1.182c-.495.277-1.063.415-1.704.415h-2.046Zm1.236-6.113v5.127h.805c.648 0 1.145-.202 1.49-.606.348-.407.525-.99.532-1.748v-.395c0-.772-.168-1.361-.503-1.768-.336-.407-.822-.61-1.46-.61h-.864Zm10.971 2.744c0 .697-.12 1.309-.361 1.836-.24.524-.586.928-1.035 1.21-.446.28-.96.42-1.543.42-.576 0-1.09-.14-1.543-.42a2.81 2.81 0 0 1-1.045-1.205c-.244-.521-.368-1.122-.371-1.802v-.4c0-.694.122-1.306.366-1.836.247-.531.594-.936 1.04-1.216.45-.283.964-.425 1.543-.425.58 0 1.092.14 1.538.42.45.277.796.677 1.04 1.201.244.52.368 1.128.371 1.821v.396Zm-1.235-.371c0-.788-.15-1.392-.45-1.812-.295-.42-.717-.63-1.264-.63-.534 0-.952.21-1.255.63-.3.417-.452 1.008-.459 1.773v.41c0 .781.152 1.385.454 1.811.306.427.73.64 1.27.64.547 0 .967-.208 1.26-.625.296-.417.444-1.025.444-1.826v-.371Zm7.915 2.817c-.257.335-.614.59-1.07.762-.455.172-.973.259-1.552.259-.596 0-1.123-.135-1.582-.406a2.718 2.718 0 0 1-1.065-1.157c-.247-.504-.376-1.092-.385-1.762v-.557c0-1.074.257-1.913.771-2.515.515-.605 1.232-.908 2.154-.908.79 0 1.419.195 1.884.586.466.39.746.954.84 1.69h-1.21c-.138-.857-.634-1.285-1.49-1.285-.553 0-.975.2-1.265.6-.286.398-.434.982-.444 1.754v.547c0 .768.161 1.365.483 1.792.326.423.777.634 1.353.634.631 0 1.08-.143 1.347-.43V46.29h-1.464v-.938h2.695v2.725Zm5.513-2.25h-2.92v2.187h3.413V49h-4.649v-7.11h4.615v.997h-3.38v1.963h2.92v.976Z" fill="#fff"/><path d="M51.923 74.89v4.752c0 .755-.243 1.354-.728 1.797-.481.439-1.124.659-1.928.659-.814 0-1.46-.217-1.939-.65-.478-.436-.718-1.04-.718-1.811V74.89h1.23v4.755c0 .476.121.839.362 1.09.241.25.596.375 1.065.375.95 0 1.425-.501 1.425-1.504v-4.716h1.23Zm5.039 5.279c0-.313-.11-.553-.332-.723-.218-.169-.614-.34-1.187-.512-.573-.173-1.028-.365-1.367-.577-.648-.406-.971-.937-.971-1.591 0-.573.232-1.045.698-1.416.469-.371 1.076-.557 1.821-.557.495 0 .936.091 1.323.273.388.183.692.443.913.782.222.335.332.708.332 1.118h-1.23c0-.371-.117-.661-.352-.87-.23-.21-.563-.317-.996-.317-.403 0-.717.087-.942.26-.221.172-.332.412-.332.722 0 .26.12.478.361.654.241.173.638.342 1.192.508.553.163.997.35 1.333.561.335.209.58.45.737.723.156.27.234.588.234.952 0 .593-.228 1.065-.683 1.416-.453.349-1.068.523-1.846.523-.514 0-.988-.095-1.42-.284-.43-.192-.766-.455-1.007-.79a1.974 1.974 0 0 1-.356-1.172h1.235c0 .403.134.716.4.937.267.221.65.332 1.148.332.43 0 .752-.086.967-.259a.847.847 0 0 0 .327-.693ZM59.282 82v-7.11h2.099c.628 0 1.185.14 1.67.42.488.28.866.678 1.133 1.192.267.514.4 1.104.4 1.767v.357c0 .674-.135 1.266-.405 1.777a2.81 2.81 0 0 1-1.148 1.182c-.495.277-1.063.415-1.704.415h-2.046Zm1.235-6.113v5.127h.805c.648 0 1.145-.202 1.49-.606.348-.407.525-.99.532-1.748v-.395c0-.772-.168-1.361-.503-1.768-.336-.407-.822-.61-1.46-.61h-.864Z" fill="#2B2B37"/><path d="M37.646 91.354a.5.5 0 0 0 .708 0l3.181-3.182a.5.5 0 1 0-.707-.707L38 90.293l-2.828-2.829a.5.5 0 1 0-.707.708l3.181 3.182ZM37.5 67v24h1V67h-1Z" fill="#DCE2EA"/><g clip-path="url(#a)"><path d="M29 104c-8.284 0-15 6.716-15 15 0 8.284 6.716 15 15 15 .265 0 .52-.105.708-.292l14-14A1 1 0 0 0 44 119c-.009-8.281-6.72-14.991-15-15Z" fill="#E5E5E9"/><path fill-rule="evenodd" clip-rule="evenodd" d="M28.191 104c7.106 2.045 12.302 8.588 12.302 16.337 0 9.296-3.03 13.136-12.302 13.288 1.503.434 4.796 1.125 6.434 1.125 9.402 0 10.875-4.362 10.875-13.751 0-2.26-.443-4.414-1.245-6.387C41.73 108.389 35.617 104 28.475 104h-.284Z" fill="#D7D7D7"/><path d="M30 118.07v-6c2.25.286 4 1.514 4 2.936a1 1 0 0 0 2 0c0-2.56-2.57-4.6-6-4.93V109a1 1 0 0 0-2 0v1.07c-3.43.34-6 2.37-6 4.93 0 2.56 2.57 4.6 6 4.93v6c-2.25-.286-4-1.514-4-2.936a1 1 0 0 0-2 0c0 2.56 2.57 4.6 6 4.93V129a1 1 0 0 0 2 0v-1.07c3.43-.34 6-2.37 6-4.93 0-2.56-2.57-4.6-6-4.93ZM24 115c0-1.422 1.75-2.65 4-2.936v5.874c-2.25-.288-4-1.516-4-2.938Zm6 10.936v-5.872c2.25.286 4 1.514 4 2.936s-1.75 2.65-4 2.936Z" fill="#00C26B"/><path d="M45 118c-9.389 0-17 7.611-17 17s7.611 17 17 17 17-7.611 17-17c-.011-9.384-7.616-16.989-17-17Z" fill="#00C26F"/><path d="M28.998 148a9.298 9.298 0 0 1-8.566-7.164l2.116 1.058a1 1 0 0 0 .894-1.79l-4-2c-.028-.014-.06-.012-.09-.024a1.012 1.012 0 0 0-.4-.066.769.769 0 0 0-.096 0 .989.989 0 0 0-.092.032.998.998 0 0 0-.618.442c-.016.026-.042.044-.056.072l-2 4a1 1 0 0 0 .447 1.342h.001a.989.989 0 0 0 .46.098 1 1 0 0 0 .896-.552l.776-1.552A11.166 11.166 0 0 0 28.998 150a1 1 0 0 0 0-2ZM59.448 112.102a1 1 0 0 0-1.342.447v.001l-.776 1.552A11.166 11.166 0 0 0 47 106a1 1 0 0 0 0 2 9.298 9.298 0 0 1 8.564 7.16l-2.116-1.058a1 1 0 0 0-.894 1.79l4 2h.042A.967.967 0 0 0 57 118a.96.96 0 0 0 .516-.144l.018-.016a.978.978 0 0 0 .318-.344c.012-.02.034-.028.044-.048l2-4a1 1 0 0 0-.443-1.343l-.005-.003Z" fill="#DCE2EA"/><path fill-rule="evenodd" clip-rule="evenodd" d="M44.691 118.003c7.105 2.045 12.302 8.588 12.302 16.337 0 9.296-7.472 16.847-16.743 16.999 1.503.434 3.086.661 4.724.661C54.376 152 62 144.391 62 135.002c0-2.26-.443-4.414-1.245-6.387-2.525-6.223-8.638-10.612-15.781-10.612h-.283Z" fill="#00AF64"/><path d="M38.572 143H36l1.77-1.84c1.293-1.347 2.57-2.712 3.885-4.037 1.868-1.883 4.813-1.969 6.828-.231.166.143.323.298.475.457 1.78 1.856 3.56 3.715 5.393 5.63h-2.304c-1.013-.935-1.937-1.761-2.83-2.621-.62-.598-1.179-1.262-1.799-1.862-1.308-1.266-3.325-1.206-4.607.12-1.32 1.366-2.633 2.738-3.95 4.107-.097.101-.202.194-.29.277Zm-2.198-15.691 5.111 5.341c2.08 2.172 5.367 2.142 7.458-.057 1.578-1.661 3.172-3.307 4.758-4.961.176-.184.342-.378.57-.632h-2.323c-.896.812-1.636 1.447-2.334 2.126-.696.679-1.343 1.408-2.023 2.104-1.44 1.473-3.462 1.441-4.872-.048-1.327-1.401-2.674-2.784-4.016-4.18h-2.597c.13.149.195.231.268.307Z" fill="#E5E5E9"/></g><path d="m49.169 174.459 1.494-2.568h1.426l-2.149 3.525L52.138 179h-1.44l-1.53-2.607L47.637 179H46.2l2.202-3.584-2.153-3.525h1.426l1.494 2.568Zm6.494 1.802h-1.377V179h-1.235v-7.109h2.5c.82 0 1.453.184 1.9.551.445.368.668.9.668 1.597 0 .475-.115.874-.346 1.196a2.186 2.186 0 0 1-.958.738l1.597 2.964V179H57.09l-1.426-2.739Zm-1.377-.991h1.27c.416 0 .742-.105.976-.313.235-.212.352-.5.352-.864 0-.381-.11-.676-.327-.884-.215-.208-.538-.316-.967-.322h-1.304v2.383Zm6.24 1.088V179h-1.235v-7.109h2.72c.794 0 1.424.206 1.89.62.468.413.702.96.702 1.64 0 .697-.229 1.239-.688 1.626-.456.388-1.095.581-1.919.581h-1.47Zm0-.991h1.485c.44 0 .774-.102 1.006-.307.23-.209.346-.508.346-.899 0-.384-.117-.69-.351-.918-.235-.231-.557-.35-.967-.356h-1.519v2.48Z" fill="#2B2B37"/><path d="M37.646 188.354a.5.5 0 0 0 .708 0l3.181-3.182a.501.501 0 0 0-.707-.708L38 187.293l-2.828-2.829a.5.5 0 0 0-.707.708l3.181 3.182ZM37.5 164v24h1v-24h-1Z" fill="#DCE2EA"/><g clip-path="url(#b)"><path d="M29 201c-8.284 0-15 6.716-15 15 0 8.284 6.716 15 15 15 .265 0 .52-.105.708-.292l14-14A1 1 0 0 0 44 216c-.009-8.281-6.72-14.991-15-15Z" fill="#E5E5E9"/><path fill-rule="evenodd" clip-rule="evenodd" d="M28.191 201c7.106 2.045 12.302 8.588 12.302 16.337 0 9.296-3.03 13.136-12.302 13.288 1.503.434 4.796 1.125 6.434 1.125 9.402 0 10.875-4.362 10.875-13.751 0-2.26-.443-4.414-1.245-6.387C41.73 205.389 35.617 201 28.475 201h-.284Z" fill="#D7D7D7"/><path d="M22.572 225H20l1.77-1.84c1.293-1.347 2.57-2.712 3.885-4.037 1.868-1.883 4.813-1.969 6.828-.231.166.143.323.298.475.457 1.78 1.856 3.56 3.715 5.393 5.63h-2.304c-1.013-.935-1.937-1.761-2.83-2.621-.62-.598-1.179-1.262-1.799-1.862-1.308-1.266-3.325-1.206-4.607.12-1.32 1.366-2.633 2.738-3.95 4.107-.097.101-.202.194-.29.277Zm-2.198-15.691 5.111 5.341c2.08 2.172 5.367 2.142 7.458-.057 1.578-1.661 3.172-3.307 4.758-4.961.176-.184.342-.378.57-.632h-2.323c-.896.812-1.636 1.447-2.334 2.126-.696.679-1.343 1.408-2.023 2.104-1.44 1.473-3.462 1.441-4.872-.048-1.327-1.401-2.674-2.784-4.016-4.18h-2.597c.13.149.195.231.268.307Z" fill="#00C26F"/><path d="M45 215c-9.389 0-17 7.611-17 17s7.611 17 17 17 17-7.611 17-17c-.011-9.384-7.616-16.989-17-17Z" fill="#00C26F"/><path d="M28.998 245a9.298 9.298 0 0 1-8.566-7.164l2.116 1.058a1 1 0 0 0 .894-1.79l-4-2c-.028-.014-.06-.012-.09-.024a1.012 1.012 0 0 0-.4-.066.769.769 0 0 0-.096 0 .989.989 0 0 0-.092.032.998.998 0 0 0-.618.442c-.016.026-.042.044-.056.072l-2 4a1 1 0 0 0 .447 1.342h.001a.989.989 0 0 0 .46.098 1 1 0 0 0 .896-.552l.776-1.552A11.166 11.166 0 0 0 28.998 247a1 1 0 0 0 0-2ZM59.448 209.102a1 1 0 0 0-1.342.447v.001l-.776 1.552A11.166 11.166 0 0 0 47 203a1 1 0 0 0 0 2 9.298 9.298 0 0 1 8.564 7.16l-2.116-1.058a1 1 0 0 0-.894 1.79l4 2h.042A.967.967 0 0 0 57 215a.96.96 0 0 0 .516-.144l.018-.016a.978.978 0 0 0 .318-.344c.012-.02.034-.028.044-.048l2-4a1 1 0 0 0-.443-1.343l-.005-.003Z" fill="#DCE2EA"/><path fill-rule="evenodd" clip-rule="evenodd" d="M44.691 215.003c7.105 2.045 12.302 8.588 12.302 16.337 0 9.296-7.472 16.847-16.743 16.999 1.503.434 3.086.661 4.724.661C54.376 249 62 241.391 62 232.002c0-2.26-.443-4.414-1.245-6.387-2.525-6.223-8.638-10.612-15.781-10.612h-.283Z" fill="#00AF64"/><path fill-rule="evenodd" clip-rule="evenodd" d="M44.315 224h-5.163v6.857H36v2.286h3.152V240h5.163c2.726 0 3.313-.285 4.487-.856l.285-.138c1.382-.663 2.456-1.596 3.221-2.8.766-1.204 1.149-2.606 1.149-4.206 0-1.6-.383-3.002-1.149-4.206-.765-1.204-1.839-2.137-3.22-2.8-1.382-.663-2.973-.994-4.773-.994Zm-1.323 9.143v3.817h1.137c1.658 0 2.98-.446 3.967-1.337.987-.892 1.48-2.099 1.48-3.623s-.493-2.731-1.48-3.623c-.987-.891-2.31-1.337-3.967-1.337h-1.137v3.817h3.666v2.286h-3.666Z" fill="#E5E5E9"/></g><path d="M46.723 276v-7.109h2.1c.627 0 1.184.14 1.67.42.487.279.865.677 1.132 1.191.267.514.4 1.103.4 1.768v.356c0 .674-.135 1.266-.405 1.777-.267.511-.65.905-1.147 1.182-.495.277-1.063.415-1.704.415h-2.046Zm1.235-6.113v5.127h.806c.647 0 1.144-.202 1.489-.606.348-.407.526-.989.532-1.748v-.395c0-.772-.167-1.361-.503-1.768-.335-.407-.822-.61-1.46-.61h-.864Zm10.972 2.744c0 .696-.12 1.308-.362 1.836-.24.524-.586.928-1.035 1.211-.446.28-.96.42-1.543.42-.576 0-1.09-.14-1.543-.42a2.808 2.808 0 0 1-1.045-1.206c-.244-.521-.367-1.122-.37-1.802v-.4c0-.694.121-1.306.366-1.836.247-.531.593-.936 1.04-1.216.449-.283.963-.425 1.542-.425.58 0 1.093.14 1.539.42.449.277.796.677 1.04 1.201.244.521.367 1.128.37 1.821v.396Zm-1.236-.371c0-.788-.15-1.392-.449-1.812-.296-.42-.718-.63-1.264-.63-.534 0-.953.21-1.255.63-.3.417-.453 1.008-.46 1.773v.41c0 .781.152 1.385.455 1.811.306.427.729.64 1.27.64.546 0 .966-.208 1.259-.625.296-.417.444-1.025.444-1.826v-.371Zm7.915 2.817c-.257.335-.613.589-1.069.762a4.374 4.374 0 0 1-1.553.259c-.595 0-1.123-.135-1.582-.406a2.718 2.718 0 0 1-1.064-1.157c-.248-.504-.376-1.092-.386-1.763v-.556c0-1.074.257-1.913.772-2.515.514-.605 1.232-.908 2.153-.908.79 0 1.42.195 1.885.586.465.391.745.954.84 1.689h-1.211c-.137-.856-.634-1.284-1.49-1.284-.553 0-.975.2-1.264.601-.287.397-.435.981-.445 1.753v.547c0 .768.161 1.365.484 1.792.325.423.776.634 1.352.634.632 0 1.081-.143 1.348-.429v-1.392h-1.465v-.937h2.695v2.724Zm5.513-2.251h-2.92v2.188h3.413V276h-4.648v-7.109h4.614v.996h-3.379v1.963h2.92v.976Z" fill="#2B2B37"/><path d="M37.646 285.354a.5.5 0 0 0 .708 0l3.181-3.182a.501.501 0 0 0-.707-.708L38 284.293l-2.828-2.829a.5.5 0 0 0-.707.708l3.181 3.182ZM37.5 261v24h1v-24h-1Z" fill="#DCE2EA"/><path d="M14 322c0 13.255 10.745 24 24 24s24-10.745 24-24-10.745-24-24-24-24 10.745-24 24Z" fill="#fff" stroke="#DCE2EA" stroke-width="2"/><path fill-rule="evenodd" clip-rule="evenodd" d="M38.862 303.067c2.568.353 4.666 1.354 6.501 3.103a11.02 11.02 0 0 1 1.034 14.856c-3.834 4.854-10.832 5.727-15.794 1.971-1.35-1.022-2.5-2.417-3.325-4.032-.297-.582-.74-1.931-.904-2.752-.221-1.111-.201-3.167.042-4.29.828-3.821 3.549-6.92 7.262-8.272 1.439-.524 3.737-.783 5.184-.584Zm7.366 23.142c3.24.455 6.633 2.366 8.686 4.893 1.094 1.345 2.086 3.068 2.086 3.621 0 .657-1.974 3.281-3.714 4.937-3.697 3.519-7.924 5.56-12.844 6.202-1.295.169-4.258.186-5.54.033a22.79 22.79 0 0 1-11.452-4.753c-.955-.754-3.02-2.842-3.756-3.797-.92-1.196-1.694-2.417-1.694-2.674 0-.273.464-1.285.895-1.952 1.454-2.251 3.48-4.08 5.755-5.197 2.05-1.005 4.46-1.556 5.295-1.209.151.062.58.31.952.551 1.259.813 2.843 1.447 4.36 1.747 1.047.206 3.44.206 4.486 0a13.36 13.36 0 0 0 4.595-1.896c.565-.376.772-.468 1.252-.555.07-.012.357.01.638.049Z" fill="#9696A5"/><path d="M14 322c0 13.255 10.745 24 24 24s24-10.745 24-24-10.745-24-24-24-24 10.745-24 24Z" stroke="#DCE2EA" stroke-width="2"/><rect y="333" width="76" height="19" rx="2" fill="#8080BE"/><path d="m12 337 1.767 3.568 3.94.578-2.848 2.783.668 3.925L12 346.006l-3.527 1.848.668-3.925-2.847-2.783 3.94-.578L12 337ZM25 337l1.767 3.568 3.94.578-2.848 2.783.668 3.925L25 346.006l-3.527 1.848.668-3.925-2.847-2.783 3.94-.578L25 337ZM38 337l1.767 3.568 3.94.578-2.848 2.783.668 3.925L38 346.006l-3.527 1.848.668-3.925-2.847-2.783 3.94-.578L38 337ZM51 337l1.767 3.568 3.94.578-2.848 2.783.668 3.925L51 346.006l-3.527 1.848.668-3.925-2.847-2.783 3.94-.578L51 337ZM64 337l1.767 3.568 3.94.578-2.848 2.783.668 3.925L64 346.006l-3.527 1.848.668-3.925-2.847-2.783 3.94-.578L64 337Z" fill="#fff"/><defs><clipPath id="a"><path fill="#fff" transform="translate(14 104)" d="M0 0h48v48H0z"/></clipPath><clipPath id="b"><path fill="#fff" transform="translate(14 201)" d="M0 0h48v48H0z"/></clipPath></defs></svg>