<svg width="1239" height="200" viewBox="0 0 1239 200" fill="none" xmlns="http://www.w3.org/2000/svg">
    <path d="M409.882 116.425C410.209 116.425 410.475 116.159 410.475 115.83C410.475 115.502 410.209 115.235 409.882 115.235C409.554 115.235 409.288 115.502 409.288 115.83C409.288 116.159 409.554 116.425 409.882 116.425Z"
          fill="black"/>
    <path d="M598.273 119.031H599.273" stroke="black"/>
    <rect y="68" width="1239" height="65" rx="12" fill="url(#paint0_radial)"/>
    <path d="M145 133H1117C1153.12 133 1182.46 103.99 1182.99 68H1182H79.0074C79.542 103.99 108.883 133 145 133Z"
          fill="white" fill-opacity="0.03"/>
    <path d="M1053 133C1081.17 133 1104 109.667 1104 81.5C1104 76.8398 1103.37 72.3118 1102.2 68H145.796C144.625 72.3118 144 76.8398 144 81.5C144 109.667 166.834 133 195 133H1053Z"
          fill="white" fill-opacity="0.03"/>
    <path d="M144.468 89L144.218 92.7357L142 95.7515L145.74 95.994L148.746 98.2142L148.996 94.4785L151.214 91.4627L147.474 91.2202L144.468 89Z"
          fill="white"/>
    <path opacity="0.73"
          d="M235.044 68.4778L233.842 73.1158L230.333 76.3662L234.963 77.5636L238.213 81.0721L239.419 76.4475L242.927 73.1971L238.289 71.9948L235.044 68.4778Z"
          fill="#10CF6C"/>
    <g filter="url(#filter0_f)">
        <path d="M144.468 89L144.218 92.7357L142 95.7515L145.74 95.994L148.746 98.2142L148.996 94.4785L151.214 91.4627L147.474 91.2202L144.468 89Z"
              fill="white"/>
    </g>
    <path d="M208.129 108.399L207.583 110.488L206.017 111.942L208.096 112.483L209.554 114.063L210.087 111.978L211.666 110.52L209.587 109.979L208.129 108.399Z"
          fill="#10CF6C"/>
    <path d="M190.572 128.498L191.759 126.713L193.732 125.851L191.939 124.659L191.085 122.691L189.885 124.479L187.925 125.337L189.705 126.533L190.572 128.498Z"
          fill="white"/>
    <path d="M548.102 103.07C548.102 102.57 547.924 102.185 547.57 101.914C547.221 101.643 546.589 101.37 545.672 101.094C544.755 100.818 544.026 100.51 543.484 100.172C542.448 99.5208 541.93 98.6719 541.93 97.625C541.93 96.7083 542.302 95.9531 543.047 95.3594C543.797 94.7656 544.768 94.4688 545.961 94.4688C546.753 94.4688 547.458 94.6146 548.078 94.9062C548.698 95.1979 549.185 95.6146 549.539 96.1562C549.893 96.6927 550.07 97.2891 550.07 97.9453H548.102C548.102 97.3516 547.914 96.888 547.539 96.5547C547.169 96.2161 546.638 96.0469 545.945 96.0469C545.299 96.0469 544.797 96.1849 544.438 96.4609C544.083 96.737 543.906 97.1224 543.906 97.6172C543.906 98.0339 544.099 98.3828 544.484 98.6641C544.87 98.9401 545.505 99.2109 546.391 99.4766C547.276 99.737 547.987 100.036 548.523 100.375C549.06 100.708 549.453 101.094 549.703 101.531C549.953 101.964 550.078 102.471 550.078 103.055C550.078 104.003 549.714 104.758 548.984 105.32C548.26 105.878 547.276 106.156 546.031 106.156C545.208 106.156 544.451 106.005 543.758 105.703C543.07 105.396 542.534 104.974 542.148 104.438C541.768 103.901 541.578 103.276 541.578 102.562H543.555C543.555 103.208 543.768 103.708 544.195 104.062C544.622 104.417 545.234 104.594 546.031 104.594C546.719 104.594 547.234 104.456 547.578 104.18C547.927 103.898 548.102 103.529 548.102 103.07ZM554.008 95.4922V97.5469H555.5V98.9531H554.008V103.672C554.008 103.995 554.07 104.229 554.195 104.375C554.326 104.516 554.555 104.586 554.883 104.586C555.102 104.586 555.323 104.56 555.547 104.508V105.977C555.115 106.096 554.698 106.156 554.297 106.156C552.839 106.156 552.109 105.352 552.109 103.742V98.9531H550.719V97.5469H552.109V95.4922H554.008ZM562.008 106C561.924 105.839 561.852 105.576 561.789 105.211C561.185 105.841 560.445 106.156 559.57 106.156C558.721 106.156 558.029 105.914 557.492 105.43C556.956 104.945 556.688 104.346 556.688 103.633C556.688 102.732 557.021 102.042 557.688 101.562C558.359 101.078 559.318 100.836 560.562 100.836H561.727V100.281C561.727 99.8438 561.604 99.4948 561.359 99.2344C561.115 98.9688 560.742 98.8359 560.242 98.8359C559.81 98.8359 559.456 98.9453 559.18 99.1641C558.904 99.3776 558.766 99.651 558.766 99.9844H556.867C556.867 99.5208 557.021 99.0885 557.328 98.6875C557.635 98.2812 558.052 97.9635 558.578 97.7344C559.109 97.5052 559.701 97.3906 560.352 97.3906C561.341 97.3906 562.13 97.6406 562.719 98.1406C563.307 98.6354 563.609 99.3333 563.625 100.234V104.047C563.625 104.807 563.732 105.414 563.945 105.867V106H562.008ZM559.922 104.633C560.297 104.633 560.648 104.542 560.977 104.359C561.31 104.177 561.56 103.932 561.727 103.625V102.031H560.703C560 102.031 559.471 102.154 559.117 102.398C558.763 102.643 558.586 102.99 558.586 103.438C558.586 103.802 558.706 104.094 558.945 104.312C559.19 104.526 559.516 104.633 559.922 104.633ZM568.359 102.375L567.516 103.242V106H565.617V94H567.516V100.922L568.109 100.18L570.445 97.5469H572.727L569.586 101.07L573.062 106H570.867L568.359 102.375ZM577.539 106.156C576.336 106.156 575.359 105.779 574.609 105.023C573.865 104.263 573.492 103.253 573.492 101.992V101.758C573.492 100.914 573.654 100.161 573.977 99.5C574.305 98.8333 574.763 98.3151 575.352 97.9453C575.94 97.5755 576.596 97.3906 577.32 97.3906C578.471 97.3906 579.359 97.7578 579.984 98.4922C580.615 99.2266 580.93 100.266 580.93 101.609V102.375H575.406C575.464 103.073 575.695 103.625 576.102 104.031C576.513 104.438 577.029 104.641 577.648 104.641C578.518 104.641 579.227 104.289 579.773 103.586L580.797 104.562C580.458 105.068 580.005 105.461 579.438 105.742C578.875 106.018 578.242 106.156 577.539 106.156ZM577.312 98.9141C576.792 98.9141 576.37 99.0964 576.047 99.4609C575.729 99.8255 575.526 100.333 575.438 100.984H579.055V100.844C579.013 100.208 578.844 99.7292 578.547 99.4062C578.25 99.0781 577.839 98.9141 577.312 98.9141Z"
          fill="#00C26F"/>
    <path d="M590.289 100.016L592.906 94.625H595.094L591.281 101.812V106H589.297V101.812L585.477 94.625H587.672L590.289 100.016ZM595.273 101.695C595.273 100.867 595.438 100.122 595.766 99.4609C596.094 98.7943 596.555 98.2839 597.148 97.9297C597.742 97.5703 598.424 97.3906 599.195 97.3906C600.336 97.3906 601.26 97.7578 601.969 98.4922C602.682 99.2266 603.068 100.201 603.125 101.414L603.133 101.859C603.133 102.693 602.971 103.438 602.648 104.094C602.331 104.75 601.872 105.258 601.273 105.617C600.68 105.977 599.992 106.156 599.211 106.156C598.018 106.156 597.062 105.76 596.344 104.969C595.63 104.172 595.273 103.112 595.273 101.789V101.695ZM597.172 101.859C597.172 102.729 597.352 103.411 597.711 103.906C598.07 104.396 598.57 104.641 599.211 104.641C599.852 104.641 600.349 104.391 600.703 103.891C601.062 103.391 601.242 102.659 601.242 101.695C601.242 100.841 601.057 100.164 600.688 99.6641C600.323 99.1641 599.826 98.9141 599.195 98.9141C598.576 98.9141 598.083 99.1615 597.719 99.6562C597.354 100.146 597.172 100.88 597.172 101.859ZM609.859 105.172C609.302 105.828 608.51 106.156 607.484 106.156C606.568 106.156 605.872 105.888 605.398 105.352C604.93 104.815 604.695 104.039 604.695 103.023V97.5469H606.594V103C606.594 104.073 607.039 104.609 607.93 104.609C608.852 104.609 609.474 104.279 609.797 103.617V97.5469H611.695V106H609.906L609.859 105.172ZM618.055 99.2812C617.805 99.2396 617.547 99.2188 617.281 99.2188C616.411 99.2188 615.826 99.5521 615.523 100.219V106H613.625V97.5469H615.438L615.484 98.4922C615.943 97.7578 616.578 97.3906 617.391 97.3906C617.661 97.3906 617.885 97.4271 618.062 97.5L618.055 99.2812ZM632.445 106H630.469L625.398 97.9297V106H623.422V94.625H625.398L630.484 102.727V94.625H632.445V106ZM643.859 100.609C643.859 101.724 643.667 102.703 643.281 103.547C642.896 104.385 642.344 105.031 641.625 105.484C640.911 105.932 640.089 106.156 639.156 106.156C638.234 106.156 637.411 105.932 636.688 105.484C635.969 105.031 635.411 104.388 635.016 103.555C634.625 102.721 634.427 101.76 634.422 100.672V100.031C634.422 98.9219 634.617 97.9427 635.008 97.0938C635.404 96.2448 635.958 95.5964 636.672 95.1484C637.391 94.6953 638.214 94.4688 639.141 94.4688C640.068 94.4688 640.888 94.6927 641.602 95.1406C642.32 95.5833 642.875 96.224 643.266 97.0625C643.656 97.8958 643.854 98.8672 643.859 99.9766V100.609ZM641.883 100.016C641.883 98.7552 641.643 97.7891 641.164 97.1172C640.69 96.4453 640.016 96.1094 639.141 96.1094C638.286 96.1094 637.617 96.4453 637.133 97.1172C636.654 97.7839 636.409 98.7292 636.398 99.9531V100.609C636.398 101.859 636.641 102.826 637.125 103.508C637.615 104.19 638.292 104.531 639.156 104.531C640.031 104.531 640.703 104.198 641.172 103.531C641.646 102.865 641.883 101.891 641.883 100.609V100.016ZM654.75 103.188L656.5 94.625H658.461L655.836 106H653.945L651.781 97.6953L649.57 106H647.672L645.047 94.625H647.008L648.773 103.172L650.945 94.625H652.602L654.75 103.188ZM666.086 95.4922V97.5469H667.578V98.9531H666.086V103.672C666.086 103.995 666.148 104.229 666.273 104.375C666.404 104.516 666.633 104.586 666.961 104.586C667.18 104.586 667.401 104.56 667.625 104.508V105.977C667.193 106.096 666.776 106.156 666.375 106.156C664.917 106.156 664.188 105.352 664.188 103.742V98.9531H662.797V97.5469H664.188V95.4922H666.086ZM668.445 101.695C668.445 100.867 668.609 100.122 668.938 99.4609C669.266 98.7943 669.727 98.2839 670.32 97.9297C670.914 97.5703 671.596 97.3906 672.367 97.3906C673.508 97.3906 674.432 97.7578 675.141 98.4922C675.854 99.2266 676.24 100.201 676.297 101.414L676.305 101.859C676.305 102.693 676.143 103.438 675.82 104.094C675.503 104.75 675.044 105.258 674.445 105.617C673.852 105.977 673.164 106.156 672.383 106.156C671.19 106.156 670.234 105.76 669.516 104.969C668.802 104.172 668.445 103.112 668.445 101.789V101.695ZM670.344 101.859C670.344 102.729 670.523 103.411 670.883 103.906C671.242 104.396 671.742 104.641 672.383 104.641C673.023 104.641 673.521 104.391 673.875 103.891C674.234 103.391 674.414 102.659 674.414 101.695C674.414 100.841 674.229 100.164 673.859 99.6641C673.495 99.1641 672.997 98.9141 672.367 98.9141C671.747 98.9141 671.255 99.1615 670.891 99.6562C670.526 100.146 670.344 100.88 670.344 101.859ZM680.656 102.375L679.812 103.242V106H677.914V94H679.812V100.922L680.406 100.18L682.742 97.5469H685.023L681.883 101.07L685.359 106H683.164L680.656 102.375ZM689.836 106.156C688.633 106.156 687.656 105.779 686.906 105.023C686.161 104.263 685.789 103.253 685.789 101.992V101.758C685.789 100.914 685.951 100.161 686.273 99.5C686.602 98.8333 687.06 98.3151 687.648 97.9453C688.237 97.5755 688.893 97.3906 689.617 97.3906C690.768 97.3906 691.656 97.7578 692.281 98.4922C692.911 99.2266 693.227 100.266 693.227 101.609V102.375H687.703C687.76 103.073 687.992 103.625 688.398 104.031C688.81 104.438 689.326 104.641 689.945 104.641C690.815 104.641 691.523 104.289 692.07 103.586L693.094 104.562C692.755 105.068 692.302 105.461 691.734 105.742C691.172 106.018 690.539 106.156 689.836 106.156ZM689.609 98.9141C689.089 98.9141 688.667 99.0964 688.344 99.4609C688.026 99.8255 687.823 100.333 687.734 100.984H691.352V100.844C691.31 100.208 691.141 99.7292 690.844 99.4062C690.547 99.0781 690.135 98.9141 689.609 98.9141ZM696.469 97.5469L696.523 98.5234C697.148 97.7682 697.969 97.3906 698.984 97.3906C700.745 97.3906 701.641 98.3984 701.672 100.414V106H699.773V100.523C699.773 99.987 699.656 99.5911 699.422 99.3359C699.193 99.0755 698.815 98.9453 698.289 98.9453C697.523 98.9453 696.953 99.2917 696.578 99.9844V106H694.68V97.5469H696.469ZM708.352 103.703C708.352 103.365 708.211 103.107 707.93 102.93C707.654 102.753 707.193 102.596 706.547 102.461C705.901 102.326 705.362 102.154 704.93 101.945C703.982 101.487 703.508 100.823 703.508 99.9531C703.508 99.224 703.815 98.6146 704.43 98.125C705.044 97.6354 705.826 97.3906 706.773 97.3906C707.784 97.3906 708.599 97.6406 709.219 98.1406C709.844 98.6406 710.156 99.2891 710.156 100.086H708.258C708.258 99.7214 708.122 99.4193 707.852 99.1797C707.581 98.9349 707.221 98.8125 706.773 98.8125C706.357 98.8125 706.016 98.9089 705.75 99.1016C705.49 99.2943 705.359 99.5521 705.359 99.875C705.359 100.167 705.482 100.393 705.727 100.555C705.971 100.716 706.466 100.88 707.211 101.047C707.956 101.208 708.539 101.404 708.961 101.633C709.388 101.857 709.703 102.128 709.906 102.445C710.115 102.763 710.219 103.148 710.219 103.602C710.219 104.362 709.904 104.979 709.273 105.453C708.643 105.922 707.818 106.156 706.797 106.156C706.104 106.156 705.487 106.031 704.945 105.781C704.404 105.531 703.982 105.188 703.68 104.75C703.378 104.312 703.227 103.841 703.227 103.336H705.07C705.096 103.784 705.266 104.13 705.578 104.375C705.891 104.615 706.305 104.734 706.82 104.734C707.32 104.734 707.701 104.641 707.961 104.453C708.221 104.26 708.352 104.01 708.352 103.703ZM720.914 106C720.831 105.839 720.758 105.576 720.695 105.211C720.091 105.841 719.352 106.156 718.477 106.156C717.628 106.156 716.935 105.914 716.398 105.43C715.862 104.945 715.594 104.346 715.594 103.633C715.594 102.732 715.927 102.042 716.594 101.562C717.266 101.078 718.224 100.836 719.469 100.836H720.633V100.281C720.633 99.8438 720.51 99.4948 720.266 99.2344C720.021 98.9688 719.648 98.8359 719.148 98.8359C718.716 98.8359 718.362 98.9453 718.086 99.1641C717.81 99.3776 717.672 99.651 717.672 99.9844H715.773C715.773 99.5208 715.927 99.0885 716.234 98.6875C716.542 98.2812 716.958 97.9635 717.484 97.7344C718.016 97.5052 718.607 97.3906 719.258 97.3906C720.247 97.3906 721.036 97.6406 721.625 98.1406C722.214 98.6354 722.516 99.3333 722.531 100.234V104.047C722.531 104.807 722.638 105.414 722.852 105.867V106H720.914ZM718.828 104.633C719.203 104.633 719.555 104.542 719.883 104.359C720.216 104.177 720.466 103.932 720.633 103.625V102.031H719.609C718.906 102.031 718.378 102.154 718.023 102.398C717.669 102.643 717.492 102.99 717.492 103.438C717.492 103.802 717.612 104.094 717.852 104.312C718.096 104.526 718.422 104.633 718.828 104.633ZM726.281 97.5469L726.336 98.5234C726.961 97.7682 727.781 97.3906 728.797 97.3906C730.557 97.3906 731.453 98.3984 731.484 100.414V106H729.586V100.523C729.586 99.987 729.469 99.5911 729.234 99.3359C729.005 99.0755 728.628 98.9453 728.102 98.9453C727.336 98.9453 726.766 99.2917 726.391 99.9844V106H724.492V97.5469H726.281ZM733.07 101.711C733.07 100.409 733.372 99.3646 733.977 98.5781C734.581 97.7865 735.391 97.3906 736.406 97.3906C737.302 97.3906 738.026 97.7031 738.578 98.3281V94H740.477V106H738.758L738.664 105.125C738.096 105.812 737.339 106.156 736.391 106.156C735.401 106.156 734.599 105.758 733.984 104.961C733.375 104.164 733.07 103.081 733.07 101.711ZM734.969 101.875C734.969 102.734 735.133 103.406 735.461 103.891C735.794 104.37 736.266 104.609 736.875 104.609C737.651 104.609 738.219 104.263 738.578 103.57V99.9609C738.229 99.2839 737.667 98.9453 736.891 98.9453C736.276 98.9453 735.802 99.1901 735.469 99.6797C735.135 100.164 734.969 100.896 734.969 101.875ZM746.109 101.711C746.109 100.398 746.417 99.3516 747.031 98.5703C747.651 97.7839 748.471 97.3906 749.492 97.3906C750.456 97.3906 751.214 97.7266 751.766 98.3984L751.852 97.5469H753.562V105.742C753.562 106.852 753.216 107.727 752.523 108.367C751.836 109.008 750.906 109.328 749.734 109.328C749.115 109.328 748.508 109.198 747.914 108.938C747.326 108.682 746.878 108.346 746.57 107.93L747.469 106.789C748.052 107.482 748.771 107.828 749.625 107.828C750.255 107.828 750.753 107.656 751.117 107.312C751.482 106.974 751.664 106.474 751.664 105.812V105.242C751.117 105.852 750.388 106.156 749.477 106.156C748.487 106.156 747.677 105.763 747.047 104.977C746.422 104.19 746.109 103.102 746.109 101.711ZM748 101.875C748 102.724 748.172 103.393 748.516 103.883C748.865 104.367 749.346 104.609 749.961 104.609C750.727 104.609 751.294 104.281 751.664 103.625V99.9062C751.305 99.2656 750.742 98.9453 749.977 98.9453C749.352 98.9453 748.865 99.1927 748.516 99.6875C748.172 100.182 748 100.911 748 101.875ZM759.242 106.156C758.039 106.156 757.062 105.779 756.312 105.023C755.568 104.263 755.195 103.253 755.195 101.992V101.758C755.195 100.914 755.357 100.161 755.68 99.5C756.008 98.8333 756.466 98.3151 757.055 97.9453C757.643 97.5755 758.299 97.3906 759.023 97.3906C760.174 97.3906 761.062 97.7578 761.688 98.4922C762.318 99.2266 762.633 100.266 762.633 101.609V102.375H757.109C757.167 103.073 757.398 103.625 757.805 104.031C758.216 104.438 758.732 104.641 759.352 104.641C760.221 104.641 760.93 104.289 761.477 103.586L762.5 104.562C762.161 105.068 761.708 105.461 761.141 105.742C760.578 106.018 759.945 106.156 759.242 106.156ZM759.016 98.9141C758.495 98.9141 758.073 99.0964 757.75 99.4609C757.432 99.8255 757.229 100.333 757.141 100.984H760.758V100.844C760.716 100.208 760.547 99.7292 760.25 99.4062C759.953 99.0781 759.542 98.9141 759.016 98.9141ZM766.492 95.4922V97.5469H767.984V98.9531H766.492V103.672C766.492 103.995 766.555 104.229 766.68 104.375C766.81 104.516 767.039 104.586 767.367 104.586C767.586 104.586 767.807 104.56 768.031 104.508V105.977C767.599 106.096 767.182 106.156 766.781 106.156C765.323 106.156 764.594 105.352 764.594 103.742V98.9531H763.203V97.5469H764.594V95.4922H766.492ZM778.547 105.172C777.99 105.828 777.198 106.156 776.172 106.156C775.255 106.156 774.56 105.888 774.086 105.352C773.617 104.815 773.383 104.039 773.383 103.023V97.5469H775.281V103C775.281 104.073 775.727 104.609 776.617 104.609C777.539 104.609 778.161 104.279 778.484 103.617V97.5469H780.383V106H778.594L778.547 105.172ZM789.719 101.859C789.719 103.167 789.422 104.211 788.828 104.992C788.234 105.768 787.438 106.156 786.438 106.156C785.51 106.156 784.768 105.852 784.211 105.242V109.25H782.312V97.5469H784.062L784.141 98.4062C784.698 97.7292 785.456 97.3906 786.414 97.3906C787.445 97.3906 788.253 97.776 788.836 98.5469C789.424 99.3125 789.719 100.378 789.719 101.742V101.859ZM787.828 101.695C787.828 100.852 787.659 100.182 787.32 99.6875C786.987 99.1927 786.508 98.9453 785.883 98.9453C785.107 98.9453 784.549 99.2656 784.211 99.9062V103.656C784.555 104.312 785.117 104.641 785.898 104.641C786.503 104.641 786.974 104.398 787.312 103.914C787.656 103.424 787.828 102.685 787.828 101.695ZM797.695 95.4922V97.5469H799.188V98.9531H797.695V103.672C797.695 103.995 797.758 104.229 797.883 104.375C798.013 104.516 798.242 104.586 798.57 104.586C798.789 104.586 799.01 104.56 799.234 104.508V105.977C798.802 106.096 798.385 106.156 797.984 106.156C796.526 106.156 795.797 105.352 795.797 103.742V98.9531H794.406V97.5469H795.797V95.4922H797.695ZM800.055 101.695C800.055 100.867 800.219 100.122 800.547 99.4609C800.875 98.7943 801.336 98.2839 801.93 97.9297C802.523 97.5703 803.206 97.3906 803.977 97.3906C805.117 97.3906 806.042 97.7578 806.75 98.4922C807.464 99.2266 807.849 100.201 807.906 101.414L807.914 101.859C807.914 102.693 807.753 103.438 807.43 104.094C807.112 104.75 806.654 105.258 806.055 105.617C805.461 105.977 804.773 106.156 803.992 106.156C802.799 106.156 801.844 105.76 801.125 104.969C800.411 104.172 800.055 103.112 800.055 101.789V101.695ZM801.953 101.859C801.953 102.729 802.133 103.411 802.492 103.906C802.852 104.396 803.352 104.641 803.992 104.641C804.633 104.641 805.13 104.391 805.484 103.891C805.844 103.391 806.023 102.659 806.023 101.695C806.023 100.841 805.839 100.164 805.469 99.6641C805.104 99.1641 804.607 98.9141 803.977 98.9141C803.357 98.9141 802.865 99.1615 802.5 99.6562C802.135 100.146 801.953 100.88 801.953 101.859ZM821.102 106H813.305V104.453L816.984 100.531C817.49 99.9792 817.862 99.4974 818.102 99.0859C818.346 98.6745 818.469 98.2839 818.469 97.9141C818.469 97.4089 818.341 97.013 818.086 96.7266C817.831 96.4349 817.466 96.2891 816.992 96.2891C816.482 96.2891 816.078 96.4661 815.781 96.8203C815.49 97.1693 815.344 97.6302 815.344 98.2031H813.078C813.078 97.5104 813.242 96.8776 813.57 96.3047C813.904 95.7318 814.372 95.2839 814.977 94.9609C815.581 94.6328 816.266 94.4688 817.031 94.4688C818.203 94.4688 819.112 94.75 819.758 95.3125C820.409 95.875 820.734 96.6693 820.734 97.6953C820.734 98.2578 820.589 98.8307 820.297 99.4141C820.005 99.9974 819.505 100.677 818.797 101.453L816.211 104.18H821.102V106ZM822.828 100.406L823.484 94.625H829.859V96.5078H825.336L825.055 98.9531C825.591 98.6667 826.161 98.5234 826.766 98.5234C827.849 98.5234 828.698 98.8594 829.312 99.5312C829.927 100.203 830.234 101.143 830.234 102.352C830.234 103.086 830.078 103.745 829.766 104.328C829.458 104.906 829.016 105.357 828.438 105.68C827.859 105.997 827.177 106.156 826.391 106.156C825.703 106.156 825.065 106.018 824.477 105.742C823.888 105.461 823.422 105.068 823.078 104.562C822.74 104.057 822.56 103.482 822.539 102.836H824.773C824.82 103.31 824.984 103.68 825.266 103.945C825.552 104.206 825.924 104.336 826.383 104.336C826.893 104.336 827.286 104.154 827.562 103.789C827.839 103.419 827.977 102.898 827.977 102.227C827.977 101.581 827.818 101.086 827.5 100.742C827.182 100.398 826.732 100.227 826.148 100.227C825.612 100.227 825.177 100.367 824.844 100.648L824.625 100.852L822.828 100.406ZM831.648 96.8125C831.648 96.1146 831.875 95.5495 832.328 95.1172C832.781 94.6797 833.375 94.4609 834.109 94.4609C834.854 94.4609 835.453 94.6771 835.906 95.1094C836.359 95.5365 836.586 96.1172 836.586 96.8516V97.4141C836.586 98.1172 836.359 98.6823 835.906 99.1094C835.453 99.5365 834.859 99.75 834.125 99.75C833.385 99.75 832.786 99.5365 832.328 99.1094C831.875 98.6771 831.648 98.0964 831.648 97.3672V96.8125ZM833.148 97.4141C833.148 97.7266 833.237 97.9792 833.414 98.1719C833.596 98.3594 833.833 98.4531 834.125 98.4531C834.417 98.4531 834.648 98.3568 834.82 98.1641C834.992 97.9714 835.078 97.7135 835.078 97.3906V96.8125C835.078 96.5 834.992 96.2474 834.82 96.0547C834.648 95.862 834.411 95.7656 834.109 95.7656C833.823 95.7656 833.591 95.862 833.414 96.0547C833.237 96.2422 833.148 96.5052 833.148 96.8438V97.4141ZM837.086 103.211C837.086 102.508 837.315 101.943 837.773 101.516C838.232 101.083 838.826 100.867 839.555 100.867C840.294 100.867 840.891 101.081 841.344 101.508C841.802 101.93 842.031 102.513 842.031 103.258V103.82C842.031 104.518 841.807 105.083 841.359 105.516C840.911 105.943 840.315 106.156 839.57 106.156C838.82 106.156 838.219 105.94 837.766 105.508C837.312 105.076 837.086 104.503 837.086 103.789V103.211ZM838.586 103.82C838.586 104.107 838.68 104.352 838.867 104.555C839.055 104.758 839.289 104.859 839.57 104.859C840.206 104.859 840.523 104.508 840.523 103.805V103.211C840.523 102.898 840.435 102.648 840.258 102.461C840.081 102.268 839.846 102.172 839.555 102.172C839.263 102.172 839.029 102.268 838.852 102.461C838.674 102.648 838.586 102.906 838.586 103.234V103.82ZM834.57 105.148L833.469 104.555L839.023 95.6641L840.125 96.2578L834.57 105.148ZM847.32 101.695C847.32 100.867 847.484 100.122 847.812 99.4609C848.141 98.7943 848.602 98.2839 849.195 97.9297C849.789 97.5703 850.471 97.3906 851.242 97.3906C852.383 97.3906 853.307 97.7578 854.016 98.4922C854.729 99.2266 855.115 100.201 855.172 101.414L855.18 101.859C855.18 102.693 855.018 103.438 854.695 104.094C854.378 104.75 853.919 105.258 853.32 105.617C852.727 105.977 852.039 106.156 851.258 106.156C850.065 106.156 849.109 105.76 848.391 104.969C847.677 104.172 847.32 103.112 847.32 101.789V101.695ZM849.219 101.859C849.219 102.729 849.398 103.411 849.758 103.906C850.117 104.396 850.617 104.641 851.258 104.641C851.898 104.641 852.396 104.391 852.75 103.891C853.109 103.391 853.289 102.659 853.289 101.695C853.289 100.841 853.104 100.164 852.734 99.6641C852.37 99.1641 851.872 98.9141 851.242 98.9141C850.622 98.9141 850.13 99.1615 849.766 99.6562C849.401 100.146 849.219 100.88 849.219 101.859ZM857.453 106V98.9531H856.164V97.5469H857.453V96.7734C857.453 95.8359 857.714 95.112 858.234 94.6016C858.755 94.0911 859.484 93.8359 860.422 93.8359C860.755 93.8359 861.109 93.8828 861.484 93.9766L861.438 95.4609C861.229 95.4193 860.987 95.3984 860.711 95.3984C859.805 95.3984 859.352 95.8646 859.352 96.7969V97.5469H861.07V98.9531H859.352V106H857.453ZM869.398 103.281L871.117 97.5469H873.141L869.781 107.281C869.266 108.703 868.391 109.414 867.156 109.414C866.88 109.414 866.576 109.367 866.242 109.273V107.805L866.602 107.828C867.081 107.828 867.44 107.74 867.68 107.562C867.924 107.391 868.117 107.099 868.258 106.688L868.531 105.961L865.562 97.5469H867.609L869.398 103.281ZM877.852 106.156C876.648 106.156 875.672 105.779 874.922 105.023C874.177 104.263 873.805 103.253 873.805 101.992V101.758C873.805 100.914 873.966 100.161 874.289 99.5C874.617 98.8333 875.076 98.3151 875.664 97.9453C876.253 97.5755 876.909 97.3906 877.633 97.3906C878.784 97.3906 879.672 97.7578 880.297 98.4922C880.927 99.2266 881.242 100.266 881.242 101.609V102.375H875.719C875.776 103.073 876.008 103.625 876.414 104.031C876.826 104.438 877.341 104.641 877.961 104.641C878.831 104.641 879.539 104.289 880.086 103.586L881.109 104.562C880.771 105.068 880.318 105.461 879.75 105.742C879.188 106.018 878.555 106.156 877.852 106.156ZM877.625 98.9141C877.104 98.9141 876.682 99.0964 876.359 99.4609C876.042 99.8255 875.839 100.333 875.75 100.984H879.367V100.844C879.326 100.208 879.156 99.7292 878.859 99.4062C878.562 99.0781 878.151 98.9141 877.625 98.9141ZM887.773 106C887.69 105.839 887.617 105.576 887.555 105.211C886.951 105.841 886.211 106.156 885.336 106.156C884.487 106.156 883.794 105.914 883.258 105.43C882.721 104.945 882.453 104.346 882.453 103.633C882.453 102.732 882.786 102.042 883.453 101.562C884.125 101.078 885.083 100.836 886.328 100.836H887.492V100.281C887.492 99.8438 887.37 99.4948 887.125 99.2344C886.88 98.9688 886.508 98.8359 886.008 98.8359C885.576 98.8359 885.221 98.9453 884.945 99.1641C884.669 99.3776 884.531 99.651 884.531 99.9844H882.633C882.633 99.5208 882.786 99.0885 883.094 98.6875C883.401 98.2812 883.818 97.9635 884.344 97.7344C884.875 97.5052 885.466 97.3906 886.117 97.3906C887.107 97.3906 887.896 97.6406 888.484 98.1406C889.073 98.6354 889.375 99.3333 889.391 100.234V104.047C889.391 104.807 889.497 105.414 889.711 105.867V106H887.773ZM885.688 104.633C886.062 104.633 886.414 104.542 886.742 104.359C887.076 104.177 887.326 103.932 887.492 103.625V102.031H886.469C885.766 102.031 885.237 102.154 884.883 102.398C884.529 102.643 884.352 102.99 884.352 103.438C884.352 103.802 884.471 104.094 884.711 104.312C884.956 104.526 885.281 104.633 885.688 104.633ZM895.805 99.2812C895.555 99.2396 895.297 99.2188 895.031 99.2188C894.161 99.2188 893.576 99.5521 893.273 100.219V106H891.375V97.5469H893.188L893.234 98.4922C893.693 97.7578 894.328 97.3906 895.141 97.3906C895.411 97.3906 895.635 97.4271 895.812 97.5L895.805 99.2812ZM899.023 106H897.125V94H899.023V106ZM904.055 103.281L905.773 97.5469H907.797L904.438 107.281C903.922 108.703 903.047 109.414 901.812 109.414C901.536 109.414 901.232 109.367 900.898 109.273V107.805L901.258 107.828C901.737 107.828 902.096 107.74 902.336 107.562C902.581 107.391 902.773 107.099 902.914 106.688L903.188 105.961L900.219 97.5469H902.266L904.055 103.281ZM917.305 99.2812C917.055 99.2396 916.797 99.2188 916.531 99.2188C915.661 99.2188 915.076 99.5521 914.773 100.219V106H912.875V97.5469H914.688L914.734 98.4922C915.193 97.7578 915.828 97.3906 916.641 97.3906C916.911 97.3906 917.135 97.4271 917.312 97.5L917.305 99.2812ZM922.07 106.156C920.867 106.156 919.891 105.779 919.141 105.023C918.396 104.263 918.023 103.253 918.023 101.992V101.758C918.023 100.914 918.185 100.161 918.508 99.5C918.836 98.8333 919.294 98.3151 919.883 97.9453C920.471 97.5755 921.128 97.3906 921.852 97.3906C923.003 97.3906 923.891 97.7578 924.516 98.4922C925.146 99.2266 925.461 100.266 925.461 101.609V102.375H919.938C919.995 103.073 920.227 103.625 920.633 104.031C921.044 104.438 921.56 104.641 922.18 104.641C923.049 104.641 923.758 104.289 924.305 103.586L925.328 104.562C924.99 105.068 924.536 105.461 923.969 105.742C923.406 106.018 922.773 106.156 922.07 106.156ZM921.844 98.9141C921.323 98.9141 920.901 99.0964 920.578 99.4609C920.26 99.8255 920.057 100.333 919.969 100.984H923.586V100.844C923.544 100.208 923.375 99.7292 923.078 99.4062C922.781 99.0781 922.37 98.9141 921.844 98.9141ZM934.367 103.383L935.711 97.5469H937.562L935.258 106H933.695L931.883 100.195L930.102 106H928.539L926.227 97.5469H928.078L929.445 103.32L931.18 97.5469H932.609L934.367 103.383ZM943.883 106C943.799 105.839 943.727 105.576 943.664 105.211C943.06 105.841 942.32 106.156 941.445 106.156C940.596 106.156 939.904 105.914 939.367 105.43C938.831 104.945 938.562 104.346 938.562 103.633C938.562 102.732 938.896 102.042 939.562 101.562C940.234 101.078 941.193 100.836 942.438 100.836H943.602V100.281C943.602 99.8438 943.479 99.4948 943.234 99.2344C942.99 98.9688 942.617 98.8359 942.117 98.8359C941.685 98.8359 941.331 98.9453 941.055 99.1641C940.779 99.3776 940.641 99.651 940.641 99.9844H938.742C938.742 99.5208 938.896 99.0885 939.203 98.6875C939.51 98.2812 939.927 97.9635 940.453 97.7344C940.984 97.5052 941.576 97.3906 942.227 97.3906C943.216 97.3906 944.005 97.6406 944.594 98.1406C945.182 98.6354 945.484 99.3333 945.5 100.234V104.047C945.5 104.807 945.607 105.414 945.82 105.867V106H943.883ZM941.797 104.633C942.172 104.633 942.523 104.542 942.852 104.359C943.185 104.177 943.435 103.932 943.602 103.625V102.031H942.578C941.875 102.031 941.346 102.154 940.992 102.398C940.638 102.643 940.461 102.99 940.461 103.438C940.461 103.802 940.581 104.094 940.82 104.312C941.065 104.526 941.391 104.633 941.797 104.633ZM951.914 99.2812C951.664 99.2396 951.406 99.2188 951.141 99.2188C950.271 99.2188 949.685 99.5521 949.383 100.219V106H947.484V97.5469H949.297L949.344 98.4922C949.802 97.7578 950.438 97.3906 951.25 97.3906C951.521 97.3906 951.745 97.4271 951.922 97.5L951.914 99.2812ZM952.602 101.711C952.602 100.409 952.904 99.3646 953.508 98.5781C954.112 97.7865 954.922 97.3906 955.938 97.3906C956.833 97.3906 957.557 97.7031 958.109 98.3281V94H960.008V106H958.289L958.195 105.125C957.628 105.812 956.87 106.156 955.922 106.156C954.932 106.156 954.13 105.758 953.516 104.961C952.906 104.164 952.602 103.081 952.602 101.711ZM954.5 101.875C954.5 102.734 954.664 103.406 954.992 103.891C955.326 104.37 955.797 104.609 956.406 104.609C957.182 104.609 957.75 104.263 958.109 103.57V99.9609C957.76 99.2839 957.198 98.9453 956.422 98.9453C955.807 98.9453 955.333 99.1901 955 99.6797C954.667 100.164 954.5 100.896 954.5 101.875Z"
          fill="white"/>
    <path d="M423.545 102.887C423.545 102.356 423.357 101.946 422.981 101.659C422.61 101.371 421.938 101.08 420.964 100.787C419.99 100.494 419.215 100.167 418.64 99.8076C417.538 99.1159 416.988 98.2139 416.988 97.1016C416.988 96.1276 417.383 95.3252 418.175 94.6943C418.972 94.0635 420.004 93.748 421.271 93.748C422.112 93.748 422.862 93.903 423.521 94.2129C424.179 94.5228 424.696 94.9655 425.073 95.541C425.449 96.111 425.637 96.7446 425.637 97.4419H423.545C423.545 96.811 423.346 96.3185 422.948 95.9644C422.555 95.6047 421.99 95.4248 421.254 95.4248C420.568 95.4248 420.034 95.5715 419.652 95.8647C419.276 96.158 419.088 96.5675 419.088 97.0933C419.088 97.536 419.293 97.9067 419.702 98.2056C420.112 98.4989 420.787 98.7866 421.728 99.0688C422.668 99.3455 423.424 99.6637 423.994 100.023C424.564 100.378 424.981 100.787 425.247 101.252C425.513 101.711 425.646 102.251 425.646 102.871C425.646 103.878 425.258 104.68 424.483 105.278C423.714 105.87 422.668 106.166 421.346 106.166C420.471 106.166 419.666 106.006 418.93 105.685C418.2 105.358 417.63 104.91 417.22 104.34C416.816 103.77 416.614 103.106 416.614 102.348H418.714C418.714 103.034 418.941 103.565 419.395 103.941C419.849 104.318 420.499 104.506 421.346 104.506C422.076 104.506 422.624 104.359 422.989 104.066C423.36 103.767 423.545 103.374 423.545 102.887ZM437.921 95.6074H434.152V106H432.069V95.6074H428.333V93.9141H437.921V95.6074ZM446.983 103.186H442.302L441.322 106H439.139L443.705 93.9141H445.589L450.163 106H447.971L446.983 103.186ZM442.891 101.493H446.394L444.643 96.479L442.891 101.493ZM456.71 100.779L455.341 102.231V106H453.241V93.9141H455.341V99.5835L456.503 98.1475L460.039 93.9141H462.579L458.088 99.2681L462.836 106H460.346L456.71 100.779ZM467.882 106H465.79V93.9141H467.882V106ZM481.75 106H479.65L474.263 97.4253V106H472.163V93.9141H474.263L479.667 102.522V93.9141H481.75V106ZM495.196 104.431C494.759 105.001 494.153 105.433 493.378 105.726C492.603 106.019 491.724 106.166 490.739 106.166C489.726 106.166 488.829 105.936 488.049 105.477C487.269 105.018 486.666 104.362 486.24 103.51C485.819 102.652 485.6 101.653 485.584 100.513V99.5669C485.584 97.7407 486.021 96.3158 486.895 95.292C487.77 94.2627 488.99 93.748 490.556 93.748C491.901 93.748 492.969 94.0801 493.76 94.7441C494.551 95.4082 495.027 96.3656 495.188 97.6162H493.129C492.897 96.1608 492.053 95.4331 490.597 95.4331C489.657 95.4331 488.94 95.7734 488.448 96.4541C487.961 97.1292 487.709 98.1226 487.692 99.4341V100.364C487.692 101.67 487.966 102.685 488.514 103.41C489.067 104.13 489.834 104.489 490.813 104.489C491.887 104.489 492.651 104.246 493.104 103.759V101.393H490.614V99.7993H495.196V104.431Z"
          fill="white"/>
    <g filter="url(#filter1_di)">
        <rect x="273.977" y="43.5669" width="111.672" height="111.672" rx="32.6616" fill="#2B2B36"/>
    </g>
    <g style="mix-blend-mode:overlay" opacity="0.74" filter="url(#filter2_f)">
        <circle cx="329.502" cy="100.337" r="55.4674" fill="white"/>
    </g>
    <g style="mix-blend-mode:overlay" opacity="0.74" filter="url(#filter3_f)">
        <circle cx="329.502" cy="100.336" r="60.5017" fill="#11D883"/>
    </g>
    <g clip-path="url(#clip0)">
        <path d="M329.502 141.552C352.952 141.552 371.962 122.757 371.962 99.5724C371.962 76.3877 352.952 57.5928 329.502 57.5928C306.052 57.5928 287.042 76.3877 287.042 99.5724C287.042 122.757 306.052 141.552 329.502 141.552Z"
              fill="#2B2B37"/>
        <path d="M307.752 100.429H303.679V85.9501H306.972L312.604 93.4893H312.691V85.9501H316.763V100.429H313.471L307.838 92.804H307.752V100.429ZM326.555 85.6931C331.061 85.6931 333.921 88.606 333.921 93.2323C333.921 97.8587 331.061 100.686 326.555 100.686C322.049 100.686 319.19 97.8587 319.19 93.2323C319.19 88.606 322.049 85.6931 326.555 85.6931ZM326.555 89.12C324.736 89.12 323.522 90.7478 323.522 93.2323C323.522 95.7168 324.736 97.3446 326.555 97.3446C328.375 97.3446 329.588 95.7168 329.588 93.2323C329.502 90.6621 328.375 89.12 326.555 89.12ZM345.706 92.1186L343.539 100.429H339.467L335.654 85.9501H340.073L341.72 95.1171H341.806L343.973 85.9501H347.265L349.432 95.1171H349.518L351.165 85.9501H355.584L352.031 100.429H347.959L345.706 92.1186Z"
              fill="#00C26F"/>
        <path d="M308.532 116.707H306.019V110.196H303.766V108.225H310.785V110.196H308.532V116.707ZM318.15 108.14C320.75 108.14 322.483 109.853 322.483 112.509C322.483 115.165 320.836 116.878 318.15 116.878C315.464 116.878 313.817 115.25 313.817 112.509C313.817 109.767 315.551 108.14 318.15 108.14ZM318.15 110.11C317.11 110.11 316.417 111.053 316.417 112.509C316.417 113.965 317.11 114.908 318.15 114.908C319.19 114.908 319.883 113.965 319.883 112.509C319.97 111.053 319.277 110.11 318.15 110.11ZM328.808 116.707H326.296V108.225H328.808V111.824H328.895L331.495 108.225H334.094L331.321 111.995L334.268 116.707H331.321L329.502 113.623L328.808 114.479V116.707ZM343.799 114.736V116.707H337.734V108.225H343.799V110.196H340.247V111.567H343.54V113.366H340.247V114.736H343.799ZM350.212 116.707H347.872V108.225H349.779L353.071 112.595H353.158V108.225H355.498V116.707H353.591L350.298 112.252H350.212V116.707Z"
              fill="#00C26F"/>
    </g>
    <path d="M369.709 41.9091C380.67 41.9091 382.774 39.8157 382.774 29C382.774 39.8157 384.878 41.9091 395.839 41.9091C384.878 41.9091 382.774 44.0025 382.774 54.8182C382.774 44.0025 380.67 41.9091 369.709 41.9091Z"
          fill="#00C26F"/>
    <g filter="url(#filter4_f)">
        <path d="M369.709 41.9091C380.67 41.9091 382.774 39.8157 382.774 29C382.774 39.8157 384.878 41.9091 395.839 41.9091C384.878 41.9091 382.774 44.0025 382.774 54.8182C382.774 44.0025 380.67 41.9091 369.709 41.9091Z"
              fill="#61D1A1"/>
    </g>
    <path d="M274.288 143.127C280.874 143.127 282.174 141.842 282.174 135.331C282.174 141.842 283.473 143.127 290.059 143.127C283.473 143.127 282.174 144.412 282.174 150.923C282.174 144.412 280.874 143.127 274.288 143.127Z"
          fill="#00C26F"/>
    <g style="mix-blend-mode:overlay" filter="url(#filter5_f)">
        <path d="M274.288 143.246C280.976 143.246 282.296 141.941 282.296 135.331C282.296 141.941 283.616 143.246 290.304 143.246C283.616 143.246 282.296 144.551 282.296 151.161C282.296 144.551 280.976 143.246 274.288 143.246Z"
              fill="#CEFFEA"/>
    </g>
    <path d="M974 99.0999C983.002 99.0999 984.73 97.3806 984.73 88.4976C984.73 97.3806 986.458 99.0999 995.46 99.0999C986.458 99.0999 984.73 100.819 984.73 109.702C984.73 100.819 983.002 99.0999 974 99.0999Z"
          fill="#00C26F"/>
    <g filter="url(#filter6_f)">
        <path d="M974 99.0999C983.002 99.0999 984.73 97.3806 984.73 88.4976C984.73 97.3806 986.458 99.0999 995.46 99.0999C986.458 99.0999 984.73 100.819 984.73 109.702C984.73 100.819 983.002 99.0999 974 99.0999Z"
              fill="#61D1A1"/>
    </g>
    <path d="M508 99.0999C517.002 99.0999 518.73 97.3806 518.73 88.4976C518.73 97.3806 520.458 99.0999 529.46 99.0999C520.458 99.0999 518.73 100.819 518.73 109.702C518.73 100.819 517.002 99.0999 508 99.0999Z"
          fill="#00C26F"/>
    <g filter="url(#filter7_f)">
        <path d="M508 99.0999C517.002 99.0999 518.73 97.3806 518.73 88.4976C518.73 97.3806 520.458 99.0999 529.46 99.0999C520.458 99.0999 518.73 100.819 518.73 109.702C518.73 100.819 517.002 99.0999 508 99.0999Z"
              fill="#61D1A1"/>
    </g>
    <defs>
        <filter id="filter0_f" x="132.018" y="79.018" width="29.1782" height="29.1782" filterUnits="userSpaceOnUse"
                color-interpolation-filters="sRGB">
            <feFlood flood-opacity="0" result="BackgroundImageFix"/>
            <feBlend mode="normal" in="SourceGraphic" in2="BackgroundImageFix" result="shape"/>
            <feGaussianBlur stdDeviation="4.99101" result="effect1_foregroundBlur"/>
        </filter>
        <filter id="filter1_di" x="268.067" y="38.2788" width="124.736" height="124.736" filterUnits="userSpaceOnUse"
                color-interpolation-filters="sRGB">
            <feFlood flood-opacity="0" result="BackgroundImageFix"/>
            <feColorMatrix in="SourceAlpha" type="matrix" values="0 0 0 0 0 0 0 0 0 0 0 0 0 0 0 0 0 0 127 0"/>
            <feOffset dx="0.622126" dy="1.24425"/>
            <feGaussianBlur stdDeviation="3.26616"/>
            <feColorMatrix type="matrix" values="0 0 0 0 0.168627 0 0 0 0 0.168627 0 0 0 0 0.211765 0 0 0 0.05 0"/>
            <feBlend mode="normal" in2="BackgroundImageFix" result="effect1_dropShadow"/>
            <feBlend mode="normal" in="SourceGraphic" in2="effect1_dropShadow" result="shape"/>
            <feColorMatrix in="SourceAlpha" type="matrix" values="0 0 0 0 0 0 0 0 0 0 0 0 0 0 0 0 0 0 127 0"
                           result="hardAlpha"/>
            <feOffset dx="0.622126" dy="2.17744"/>
            <feGaussianBlur stdDeviation="2.64403"/>
            <feComposite in2="hardAlpha" operator="arithmetic" k2="-1" k3="1"/>
            <feColorMatrix type="matrix" values="0 0 0 0 0.344861 0 0 0 0 0.344861 0 0 0 0 0.433333 0 0 0 1 0"/>
            <feBlend mode="normal" in2="shape" result="effect2_innerShadow"/>
        </filter>
        <filter id="filter2_f" x="237.697" y="8.53215" width="183.609" height="183.609" filterUnits="userSpaceOnUse"
                color-interpolation-filters="sRGB">
            <feFlood flood-opacity="0" result="BackgroundImageFix"/>
            <feBlend mode="normal" in="SourceGraphic" in2="BackgroundImageFix" result="shape"/>
            <feGaussianBlur stdDeviation="18.1685" result="effect1_foregroundBlur"/>
        </filter>
        <filter id="filter3_f" x="230" y="0.834229" width="199.003" height="199.003" filterUnits="userSpaceOnUse"
                color-interpolation-filters="sRGB">
            <feFlood flood-opacity="0" result="BackgroundImageFix"/>
            <feBlend mode="normal" in="SourceGraphic" in2="BackgroundImageFix" result="shape"/>
            <feGaussianBlur stdDeviation="19.5" result="effect1_foregroundBlur"/>
        </filter>
        <filter id="filter4_f" x="362.555" y="21.8456" width="40.4382" height="40.1271" filterUnits="userSpaceOnUse"
                color-interpolation-filters="sRGB">
            <feFlood flood-opacity="0" result="BackgroundImageFix"/>
            <feBlend mode="normal" in="SourceGraphic" in2="BackgroundImageFix" result="shape"/>
            <feGaussianBlur stdDeviation="3.57722" result="effect1_foregroundBlur"/>
        </filter>
        <filter id="filter5_f" x="267.756" y="128.798" width="29.0801" height="28.8952" filterUnits="userSpaceOnUse"
                color-interpolation-filters="sRGB">
            <feFlood flood-opacity="0" result="BackgroundImageFix"/>
            <feBlend mode="normal" in="SourceGraphic" in2="BackgroundImageFix" result="shape"/>
            <feGaussianBlur stdDeviation="3.26616" result="effect1_foregroundBlur"/>
        </filter>
        <filter id="filter6_f" x="968.124" y="82.6215" width="33.2123" height="32.9568" filterUnits="userSpaceOnUse"
                color-interpolation-filters="sRGB">
            <feFlood flood-opacity="0" result="BackgroundImageFix"/>
            <feBlend mode="normal" in="SourceGraphic" in2="BackgroundImageFix" result="shape"/>
            <feGaussianBlur stdDeviation="2.93801" result="effect1_foregroundBlur"/>
        </filter>
        <filter id="filter7_f" x="502.124" y="82.6215" width="33.2123" height="32.9568" filterUnits="userSpaceOnUse"
                color-interpolation-filters="sRGB">
            <feFlood flood-opacity="0" result="BackgroundImageFix"/>
            <feBlend mode="normal" in="SourceGraphic" in2="BackgroundImageFix" result="shape"/>
            <feGaussianBlur stdDeviation="2.93801" result="effect1_foregroundBlur"/>
        </filter>
        <radialGradient id="paint0_radial" cx="0" cy="0" r="1" gradientUnits="userSpaceOnUse"
                        gradientTransform="translate(647.5 86.5) rotate(102.71) scale(188.622 3595.42)">
            <stop stop-color="#373B4A"/>
            <stop offset="1" stop-color="#2D2D3A"/>
        </radialGradient>
        <clipPath id="clip0">
            <rect width="84.9202" height="86.7865" fill="white" transform="translate(287.042 54.7659)"/>
        </clipPath>
    </defs>
</svg>
