<svg width="314" height="122" viewBox="0 0 314 122" fill="none" xmlns="http://www.w3.org/2000/svg">
<rect x="6" y="14" width="308" height="92" rx="12" fill="url(#paint0_radial)"/>
<g filter="url(#filter0_di)">
<rect x="21.0214" y="26.8433" width="67.7925" height="67.7925" rx="19.8279" fill="#2B2B36"/>
</g>
<g style="mix-blend-mode:overlay" opacity="0.74" filter="url(#filter1_f)">
<circle cx="54.7288" cy="61.3062" r="33.6726" fill="white"/>
</g>
<g style="mix-blend-mode:overlay" opacity="0.74" filter="url(#filter2_f)">
<circle cx="54.7288" cy="61.306" r="36.7288" fill="#11D883"/>
</g>
<g clip-path="url(#clip0)">
<path d="M54.7288 86.3272C68.9647 86.3272 80.5051 74.9173 80.5051 60.8425C80.5051 46.7678 68.9647 35.3579 54.7288 35.3579C40.493 35.3579 28.9526 46.7678 28.9526 60.8425C28.9526 74.9173 40.493 86.3272 54.7288 86.3272Z" fill="#2B2B37"/>
<path d="M41.5248 61.3621H39.0524V52.5725H41.0514L44.4707 57.1494H44.5233V52.5725H46.9957V61.3621H44.9968L41.5775 56.7333H41.5248V61.3621ZM52.9401 52.4165C55.6755 52.4165 57.4114 54.1848 57.4114 56.9933C57.4114 59.8018 55.6755 61.5182 52.9401 61.5182C50.2046 61.5182 48.4687 59.8018 48.4687 56.9933C48.4687 54.1848 50.2046 52.4165 52.9401 52.4165ZM52.9401 54.4969C51.8354 54.4969 51.0989 55.4851 51.0989 56.9933C51.0989 58.5016 51.8354 59.4898 52.9401 59.4898C54.0447 59.4898 54.7812 58.5016 54.7812 56.9933C54.7286 55.4331 54.0447 54.4969 52.9401 54.4969ZM64.5657 56.3172L63.2506 61.3621H60.7781L58.4635 52.5725H61.1464L62.1459 58.1375H62.1985L63.5136 52.5725H65.5126L66.8277 58.1375H66.8803L67.8798 52.5725H70.5626L68.4058 61.3621H65.9334L64.5657 56.3172Z" fill="#11DD86"/>
<path d="M41.9985 71.2444H40.4729V67.2917H39.1052V66.0955H43.3662V67.2917H41.9985V71.2444ZM47.8376 66.0435C49.4157 66.0435 50.4678 67.0836 50.4678 68.6959C50.4678 70.3082 49.4683 71.3484 47.8376 71.3484C46.2069 71.3484 45.2074 70.3602 45.2074 68.6959C45.2074 67.0316 46.2595 66.0435 47.8376 66.0435ZM47.8376 67.2397C47.2063 67.2397 46.7855 67.8118 46.7855 68.6959C46.7855 69.5801 47.2063 70.1522 47.8376 70.1522C48.4688 70.1522 48.8897 69.5801 48.8897 68.6959C48.9423 67.8118 48.5215 67.2397 47.8376 67.2397ZM54.308 71.2444H52.7824V66.0955H54.308V68.2799H54.3606L55.9387 66.0955H57.5168L55.8335 68.3839L57.6221 71.2444H55.8335L54.7288 69.3721L54.308 69.8922V71.2444ZM63.4086 70.0482V71.2444H59.7262V66.0955H63.4086V67.2917H61.2518V68.1238H63.2507V69.216H61.2518V70.0482H63.4086ZM67.3013 71.2444H65.881V66.0955H67.0383L69.0373 68.7479H69.0899V66.0955H70.5102V71.2444H69.3529L67.3539 68.5399H67.3013V71.2444Z" fill="#11DD86"/>
</g>
<path d="M79.1376 25.8367C85.7913 25.8367 87.0688 24.5659 87.0688 18C87.0688 24.5659 88.3463 25.8367 95 25.8367C88.3463 25.8367 87.0688 27.1076 87.0688 33.6735C87.0688 27.1076 85.7913 25.8367 79.1376 25.8367Z" fill="#00C26F"/>
<g filter="url(#filter3_f)">
<path d="M79.1376 25.8367C85.7913 25.8367 87.0688 24.5659 87.0688 18C87.0688 24.5659 88.3463 25.8367 95 25.8367C88.3463 25.8367 87.0688 27.1076 87.0688 33.6735C87.0688 27.1076 85.7913 25.8367 79.1376 25.8367Z" fill="#61D1A1"/>
</g>
<path d="M21.2102 87.2832C25.2082 87.2832 25.9972 86.503 25.9972 82.5503C25.9972 86.503 26.7863 87.2832 30.7842 87.2832C26.7863 87.2832 25.9972 88.0633 25.9972 92.016C25.9972 88.0633 25.2082 87.2832 21.2102 87.2832Z" fill="#00C26F"/>
<g style="mix-blend-mode:overlay" filter="url(#filter4_f)">
<path d="M21.2102 87.3554C25.2702 87.3554 26.0715 86.5634 26.0715 82.5503C26.0715 86.5634 26.8728 87.3554 30.9327 87.3554C26.8728 87.3554 26.0715 88.1475 26.0715 92.1606C26.0715 88.1475 25.2702 87.3554 21.2102 87.3554Z" fill="#CEFFEA"/>
</g>
<path d="M111.658 39.2534C111.658 38.7847 111.492 38.4233 111.16 38.1694C110.833 37.9155 110.239 37.6592 109.38 37.4004C108.521 37.1416 107.837 36.8535 107.329 36.5361C106.357 35.9258 105.872 35.1299 105.872 34.1484C105.872 33.2891 106.221 32.5811 106.919 32.0244C107.622 31.4678 108.533 31.1895 109.651 31.1895C110.393 31.1895 111.055 31.3262 111.636 31.5996C112.217 31.873 112.673 32.2637 113.005 32.7715C113.337 33.2744 113.503 33.8335 113.503 34.4487H111.658C111.658 33.8921 111.482 33.4575 111.13 33.145C110.784 32.8276 110.286 32.6689 109.636 32.6689C109.031 32.6689 108.56 32.7983 108.223 33.0571C107.891 33.3159 107.725 33.6772 107.725 34.1411C107.725 34.5317 107.905 34.8589 108.267 35.1226C108.628 35.3813 109.224 35.6353 110.054 35.8843C110.884 36.1284 111.55 36.4092 112.053 36.7266C112.556 37.0391 112.925 37.4004 113.159 37.8105C113.394 38.2158 113.511 38.6919 113.511 39.2388C113.511 40.1274 113.169 40.8354 112.485 41.3628C111.807 41.8853 110.884 42.1465 109.717 42.1465C108.945 42.1465 108.235 42.0049 107.585 41.7217C106.941 41.4336 106.438 41.0381 106.077 40.5352C105.72 40.0322 105.542 39.4463 105.542 38.7773H107.395C107.395 39.3828 107.595 39.8516 107.996 40.1836C108.396 40.5156 108.97 40.6816 109.717 40.6816C110.361 40.6816 110.845 40.5522 111.167 40.2935C111.494 40.0298 111.658 39.6831 111.658 39.2534ZM124.342 32.8301H121.017V42H119.178V32.8301H115.882V31.3359H124.342V32.8301ZM132.338 39.5171H128.208L127.343 42H125.417L129.445 31.3359H131.108L135.144 42H133.21L132.338 39.5171ZM128.728 38.0229H131.818L130.273 33.5991L128.728 38.0229ZM140.921 37.3931L139.712 38.6748V42H137.859V31.3359H139.712V36.3384L140.738 35.0713L143.858 31.3359H146.099L142.137 36.0601L146.326 42H144.129L140.921 37.3931ZM150.778 42H148.932V31.3359H150.778V42ZM163.015 42H161.162L156.409 34.4341V42H154.556V31.3359H156.409L161.177 38.9312V31.3359H163.015V42ZM174.879 40.6157C174.493 41.1187 173.958 41.4995 173.275 41.7583C172.591 42.0171 171.815 42.1465 170.946 42.1465C170.052 42.1465 169.261 41.9438 168.573 41.5386C167.884 41.1333 167.352 40.5547 166.976 39.8027C166.605 39.0459 166.412 38.1646 166.397 37.1587V36.3237C166.397 34.7124 166.783 33.4551 167.555 32.5518C168.326 31.6436 169.403 31.1895 170.785 31.1895C171.971 31.1895 172.914 31.4824 173.612 32.0684C174.31 32.6543 174.73 33.499 174.872 34.6025H173.055C172.85 33.3184 172.105 32.6763 170.821 32.6763C169.991 32.6763 169.359 32.9766 168.924 33.5771C168.495 34.1729 168.272 35.0493 168.258 36.2065V37.0269C168.258 38.1792 168.5 39.0752 168.983 39.7148C169.471 40.3496 170.147 40.667 171.012 40.667C171.959 40.667 172.633 40.4521 173.033 40.0225V37.9351H170.836V36.5288H174.879V40.6157Z" fill="white"/>
<path d="M110.214 61.4365C110.214 60.999 110.059 60.6618 109.749 60.4248C109.444 60.1878 108.89 59.9486 108.088 59.707C107.286 59.4655 106.648 59.1966 106.174 58.9004C105.267 58.3307 104.813 57.5879 104.813 56.6719C104.813 55.8698 105.139 55.209 105.791 54.6895C106.447 54.1699 107.297 53.9102 108.341 53.9102C109.034 53.9102 109.651 54.0378 110.193 54.293C110.736 54.5482 111.162 54.9128 111.472 55.3867C111.782 55.8561 111.937 56.3779 111.937 56.9521H110.214C110.214 56.4326 110.05 56.027 109.722 55.7354C109.398 55.4391 108.933 55.291 108.327 55.291C107.762 55.291 107.322 55.4118 107.008 55.6533C106.698 55.8949 106.543 56.2321 106.543 56.665C106.543 57.0296 106.712 57.335 107.049 57.5811C107.386 57.8226 107.942 58.0596 108.717 58.292C109.492 58.5199 110.114 58.7819 110.583 59.0781C111.052 59.3698 111.396 59.707 111.615 60.0898C111.834 60.4681 111.943 60.9124 111.943 61.4229C111.943 62.2523 111.624 62.9131 110.986 63.4053C110.353 63.8929 109.492 64.1367 108.402 64.1367C107.682 64.1367 107.019 64.0046 106.413 63.7402C105.812 63.4714 105.342 63.1022 105.005 62.6328C104.672 62.1634 104.506 61.6165 104.506 60.9922H106.235C106.235 61.5573 106.422 61.9948 106.796 62.3047C107.17 62.6146 107.705 62.7695 108.402 62.7695C109.004 62.7695 109.455 62.6488 109.756 62.4072C110.061 62.1611 110.214 61.8376 110.214 61.4365ZM115.382 54.8057V56.6035H116.688V57.834H115.382V61.9629C115.382 62.2454 115.437 62.4505 115.546 62.5781C115.66 62.7012 115.86 62.7627 116.147 62.7627C116.339 62.7627 116.533 62.7399 116.729 62.6943V63.9795C116.35 64.0843 115.986 64.1367 115.635 64.1367C114.359 64.1367 113.721 63.4326 113.721 62.0244V57.834H112.504V56.6035H113.721V54.8057H115.382ZM122.382 64C122.309 63.8587 122.245 63.6286 122.19 63.3096C121.662 63.861 121.015 64.1367 120.249 64.1367C119.506 64.1367 118.9 63.9248 118.431 63.501C117.961 63.0771 117.727 62.5531 117.727 61.9287C117.727 61.1403 118.018 60.5365 118.602 60.1172C119.189 59.6934 120.028 59.4814 121.117 59.4814H122.136V58.9961C122.136 58.6133 122.029 58.3079 121.814 58.0801C121.6 57.8477 121.274 57.7314 120.837 57.7314C120.459 57.7314 120.149 57.8271 119.907 58.0186C119.666 58.2054 119.545 58.4447 119.545 58.7363H117.884C117.884 58.3307 118.018 57.9525 118.287 57.6016C118.556 57.2461 118.921 56.9681 119.381 56.7676C119.846 56.5671 120.363 56.4668 120.933 56.4668C121.799 56.4668 122.489 56.6855 123.004 57.123C123.519 57.556 123.783 58.1667 123.797 58.9551V62.291C123.797 62.9564 123.89 63.4873 124.077 63.8838V64H122.382ZM120.557 62.8037C120.885 62.8037 121.192 62.724 121.479 62.5645C121.771 62.4049 121.99 62.1908 122.136 61.9219V60.5273H121.24C120.625 60.5273 120.162 60.6344 119.853 60.8486C119.543 61.0628 119.388 61.3659 119.388 61.7578C119.388 62.0768 119.493 62.332 119.702 62.5234C119.916 62.7103 120.201 62.8037 120.557 62.8037ZM127.939 60.8281L127.201 61.5869V64H125.54V53.5H127.201V59.5566L127.721 58.9072L129.765 56.6035H131.761L129.013 59.6865L132.055 64H130.134L127.939 60.8281ZM135.972 64.1367C134.919 64.1367 134.064 63.8063 133.408 63.1455C132.757 62.4801 132.431 61.596 132.431 60.4932V60.2881C132.431 59.5498 132.572 58.8913 132.854 58.3125C133.142 57.7292 133.543 57.2757 134.058 56.9521C134.573 56.6286 135.147 56.4668 135.78 56.4668C136.787 56.4668 137.564 56.7881 138.111 57.4307C138.663 58.0732 138.938 58.9824 138.938 60.1582V60.8281H134.105C134.156 61.4388 134.358 61.9219 134.714 62.2773C135.074 62.6328 135.525 62.8105 136.067 62.8105C136.828 62.8105 137.448 62.5029 137.927 61.8877L138.822 62.7422C138.526 63.1842 138.13 63.5283 137.633 63.7744C137.141 64.016 136.587 64.1367 135.972 64.1367ZM135.773 57.7998C135.318 57.7998 134.949 57.9593 134.666 58.2783C134.388 58.5973 134.21 59.0417 134.133 59.6113H137.298V59.4883C137.261 58.9323 137.113 58.513 136.854 58.2305C136.594 57.9434 136.234 57.7998 135.773 57.7998Z" fill="#00C26F"/>
<path d="M147.128 58.7637L149.418 54.0469H151.332L147.996 60.3359V64H146.26V60.3359L142.917 54.0469H144.838L147.128 58.7637ZM151.489 60.2334C151.489 59.5088 151.633 58.8571 151.92 58.2783C152.207 57.695 152.61 57.2484 153.13 56.9385C153.649 56.624 154.246 56.4668 154.921 56.4668C155.919 56.4668 156.728 56.7881 157.348 57.4307C157.972 58.0732 158.309 58.9255 158.359 59.9873L158.366 60.377C158.366 61.1061 158.225 61.7578 157.942 62.332C157.664 62.9062 157.263 63.3506 156.739 63.665C156.22 63.9795 155.618 64.1367 154.935 64.1367C153.891 64.1367 153.055 63.7904 152.426 63.0977C151.801 62.4004 151.489 61.473 151.489 60.3154V60.2334ZM153.15 60.377C153.15 61.138 153.308 61.735 153.622 62.168C153.937 62.5964 154.374 62.8105 154.935 62.8105C155.495 62.8105 155.93 62.5918 156.24 62.1543C156.555 61.7168 156.712 61.0765 156.712 60.2334C156.712 59.486 156.55 58.8936 156.227 58.4561C155.908 58.0186 155.472 57.7998 154.921 57.7998C154.379 57.7998 153.948 58.0163 153.629 58.4492C153.31 58.8776 153.15 59.5202 153.15 60.377ZM164.252 63.2754C163.764 63.8496 163.072 64.1367 162.174 64.1367C161.372 64.1367 160.763 63.902 160.349 63.4326C159.938 62.9632 159.733 62.2842 159.733 61.3955V56.6035H161.395V61.375C161.395 62.3138 161.784 62.7832 162.563 62.7832C163.37 62.7832 163.915 62.4938 164.197 61.915V56.6035H165.858V64H164.293L164.252 63.2754ZM171.423 58.1211C171.204 58.0846 170.979 58.0664 170.746 58.0664C169.985 58.0664 169.472 58.3581 169.208 58.9414V64H167.547V56.6035H169.133L169.174 57.4307C169.575 56.7881 170.131 56.4668 170.842 56.4668C171.079 56.4668 171.275 56.4987 171.43 56.5625L171.423 58.1211ZM184.015 64H182.285L177.849 56.9385V64H176.119V54.0469H177.849L182.299 61.1357V54.0469H184.015V64ZM194.002 59.2832C194.002 60.2585 193.833 61.1152 193.496 61.8535C193.159 62.5872 192.676 63.1523 192.047 63.5488C191.423 63.9408 190.702 64.1367 189.887 64.1367C189.08 64.1367 188.36 63.9408 187.727 63.5488C187.098 63.1523 186.61 62.5895 186.264 61.8604C185.922 61.1312 185.749 60.2904 185.744 59.3379V58.7773C185.744 57.8066 185.915 56.9499 186.257 56.207C186.603 55.4642 187.089 54.8968 187.713 54.5049C188.342 54.1084 189.062 53.9102 189.873 53.9102C190.684 53.9102 191.402 54.1061 192.026 54.498C192.655 54.8854 193.141 55.446 193.482 56.1797C193.824 56.9089 193.997 57.7588 194.002 58.7295V59.2832ZM192.272 58.7637C192.272 57.6608 192.063 56.8154 191.644 56.2275C191.229 55.6396 190.639 55.3457 189.873 55.3457C189.126 55.3457 188.54 55.6396 188.116 56.2275C187.697 56.8109 187.483 57.638 187.474 58.709V59.2832C187.474 60.377 187.686 61.2223 188.109 61.8193C188.538 62.4163 189.13 62.7148 189.887 62.7148C190.652 62.7148 191.24 62.4232 191.65 61.8398C192.065 61.2565 192.272 60.4043 192.272 59.2832V58.7637ZM203.531 61.5391L205.062 54.0469H206.778L204.481 64H202.827L200.934 56.7334L198.999 64H197.338L195.041 54.0469H196.757L198.302 61.5254L200.202 54.0469H201.651L203.531 61.5391ZM213.45 54.8057V56.6035H214.756V57.834H213.45V61.9629C213.45 62.2454 213.505 62.4505 213.614 62.5781C213.728 62.7012 213.929 62.7627 214.216 62.7627C214.407 62.7627 214.601 62.7399 214.797 62.6943V63.9795C214.419 64.0843 214.054 64.1367 213.703 64.1367C212.427 64.1367 211.789 63.4326 211.789 62.0244V57.834H210.572V56.6035H211.789V54.8057H213.45ZM215.515 60.2334C215.515 59.5088 215.658 58.8571 215.945 58.2783C216.232 57.695 216.636 57.2484 217.155 56.9385C217.675 56.624 218.272 56.4668 218.946 56.4668C219.944 56.4668 220.753 56.7881 221.373 57.4307C221.997 58.0732 222.335 58.9255 222.385 59.9873L222.392 60.377C222.392 61.1061 222.25 61.7578 221.968 62.332C221.69 62.9062 221.289 63.3506 220.765 63.665C220.245 63.9795 219.644 64.1367 218.96 64.1367C217.916 64.1367 217.08 63.7904 216.451 63.0977C215.827 62.4004 215.515 61.473 215.515 60.3154V60.2334ZM217.176 60.377C217.176 61.138 217.333 61.735 217.647 62.168C217.962 62.5964 218.399 62.8105 218.96 62.8105C219.521 62.8105 219.956 62.5918 220.266 62.1543C220.58 61.7168 220.737 61.0765 220.737 60.2334C220.737 59.486 220.576 58.8936 220.252 58.4561C219.933 58.0186 219.498 57.7998 218.946 57.7998C218.404 57.7998 217.973 58.0163 217.654 58.4492C217.335 58.8776 217.176 59.5202 217.176 60.377ZM226.199 60.8281L225.461 61.5869V64H223.8V53.5H225.461V59.5566L225.98 58.9072L228.024 56.6035H230.021L227.272 59.6865L230.314 64H228.394L226.199 60.8281ZM234.231 64.1367C233.179 64.1367 232.324 63.8063 231.668 63.1455C231.016 62.4801 230.69 61.596 230.69 60.4932V60.2881C230.69 59.5498 230.832 58.8913 231.114 58.3125C231.401 57.7292 231.802 57.2757 232.317 56.9521C232.832 56.6286 233.407 56.4668 234.04 56.4668C235.047 56.4668 235.824 56.7881 236.371 57.4307C236.923 58.0732 237.198 58.9824 237.198 60.1582V60.8281H232.365C232.415 61.4388 232.618 61.9219 232.974 62.2773C233.334 62.6328 233.785 62.8105 234.327 62.8105C235.088 62.8105 235.708 62.5029 236.187 61.8877L237.082 62.7422C236.786 63.1842 236.389 63.5283 235.893 63.7744C235.4 64.016 234.847 64.1367 234.231 64.1367ZM234.033 57.7998C233.577 57.7998 233.208 57.9593 232.926 58.2783C232.648 58.5973 232.47 59.0417 232.393 59.6113H235.558V59.4883C235.521 58.9323 235.373 58.513 235.113 58.2305C234.854 57.9434 234.493 57.7998 234.033 57.7998ZM240.035 56.6035L240.083 57.458C240.63 56.7972 241.348 56.4668 242.236 56.4668C243.777 56.4668 244.561 57.3486 244.588 59.1123V64H242.927V59.208C242.927 58.7386 242.824 58.3923 242.619 58.1689C242.419 57.9411 242.088 57.8271 241.628 57.8271C240.958 57.8271 240.459 58.1302 240.131 58.7363V64H238.47V56.6035H240.035ZM250.433 61.9902C250.433 61.694 250.31 61.4684 250.063 61.3135C249.822 61.1585 249.419 61.0218 248.854 60.9033C248.288 60.7848 247.817 60.6344 247.438 60.4521C246.609 60.0511 246.194 59.4701 246.194 58.709C246.194 58.071 246.463 57.5378 247.001 57.1094C247.539 56.681 248.222 56.4668 249.052 56.4668C249.936 56.4668 250.649 56.6855 251.191 57.123C251.738 57.5605 252.012 58.1279 252.012 58.8252H250.351C250.351 58.5062 250.232 58.2419 249.995 58.0322C249.758 57.818 249.444 57.7109 249.052 57.7109C248.687 57.7109 248.389 57.7952 248.156 57.9639C247.928 58.1325 247.814 58.3581 247.814 58.6406C247.814 58.8958 247.922 59.0941 248.136 59.2354C248.35 59.3766 248.783 59.5202 249.435 59.666C250.086 59.8073 250.597 59.9782 250.966 60.1787C251.34 60.3747 251.615 60.6117 251.793 60.8896C251.975 61.1676 252.066 61.5049 252.066 61.9014C252.066 62.5667 251.791 63.1068 251.239 63.5215C250.688 63.9316 249.965 64.1367 249.072 64.1367C248.466 64.1367 247.926 64.0273 247.452 63.8086C246.978 63.5898 246.609 63.2891 246.345 62.9062C246.08 62.5234 245.948 62.111 245.948 61.6689H247.562C247.584 62.0609 247.732 62.3639 248.006 62.5781C248.279 62.7878 248.642 62.8926 249.093 62.8926C249.53 62.8926 249.863 62.8105 250.091 62.6465C250.319 62.4779 250.433 62.2591 250.433 61.9902ZM261.425 64C261.352 63.8587 261.288 63.6286 261.233 63.3096C260.705 63.861 260.058 64.1367 259.292 64.1367C258.549 64.1367 257.943 63.9248 257.474 63.501C257.004 63.0771 256.77 62.5531 256.77 61.9287C256.77 61.1403 257.061 60.5365 257.645 60.1172C258.232 59.6934 259.071 59.4814 260.16 59.4814H261.179V58.9961C261.179 58.6133 261.072 58.3079 260.857 58.0801C260.643 57.8477 260.317 57.7314 259.88 57.7314C259.502 57.7314 259.192 57.8271 258.95 58.0186C258.709 58.2054 258.588 58.4447 258.588 58.7363H256.927C256.927 58.3307 257.061 57.9525 257.33 57.6016C257.599 57.2461 257.964 56.9681 258.424 56.7676C258.889 56.5671 259.406 56.4668 259.976 56.4668C260.841 56.4668 261.532 56.6855 262.047 57.123C262.562 57.556 262.826 58.1667 262.84 58.9551V62.291C262.84 62.9564 262.933 63.4873 263.12 63.8838V64H261.425ZM259.6 62.8037C259.928 62.8037 260.235 62.724 260.522 62.5645C260.814 62.4049 261.033 62.1908 261.179 61.9219V60.5273H260.283C259.668 60.5273 259.205 60.6344 258.896 60.8486C258.586 61.0628 258.431 61.3659 258.431 61.7578C258.431 62.0768 258.535 62.332 258.745 62.5234C258.959 62.7103 259.244 62.8037 259.6 62.8037ZM266.121 56.6035L266.169 57.458C266.716 56.7972 267.434 56.4668 268.322 56.4668C269.863 56.4668 270.646 57.3486 270.674 59.1123V64H269.013V59.208C269.013 58.7386 268.91 58.3923 268.705 58.1689C268.505 57.9411 268.174 57.8271 267.714 57.8271C267.044 57.8271 266.545 58.1302 266.217 58.7363V64H264.556V56.6035H266.121ZM272.062 60.2471C272.062 59.1077 272.326 58.194 272.854 57.5059C273.383 56.8132 274.092 56.4668 274.98 56.4668C275.764 56.4668 276.398 56.7402 276.881 57.2871V53.5H278.542V64H277.038L276.956 63.2344C276.459 63.8359 275.796 64.1367 274.967 64.1367C274.101 64.1367 273.399 63.7881 272.861 63.0908C272.328 62.3936 272.062 61.4456 272.062 60.2471ZM273.723 60.3906C273.723 61.1426 273.866 61.7305 274.153 62.1543C274.445 62.5736 274.857 62.7832 275.391 62.7832C276.07 62.7832 276.566 62.4801 276.881 61.874V58.7158C276.576 58.1234 276.083 57.8271 275.404 57.8271C274.867 57.8271 274.452 58.0413 274.16 58.4697C273.868 58.8936 273.723 59.5339 273.723 60.3906ZM104.561 80.2471C104.561 79.0986 104.829 78.1826 105.367 77.499C105.91 76.8109 106.627 76.4668 107.521 76.4668C108.364 76.4668 109.027 76.7607 109.51 77.3486L109.585 76.6035H111.082V83.7744C111.082 84.7451 110.779 85.5107 110.173 86.0713C109.571 86.6318 108.758 86.9121 107.732 86.9121C107.19 86.9121 106.659 86.7982 106.14 86.5703C105.625 86.347 105.233 86.0531 104.964 85.6885L105.75 84.6904C106.26 85.2965 106.889 85.5996 107.637 85.5996C108.188 85.5996 108.623 85.4492 108.942 85.1484C109.261 84.8522 109.421 84.4147 109.421 83.8359V83.3369C108.942 83.8701 108.304 84.1367 107.507 84.1367C106.641 84.1367 105.932 83.7926 105.381 83.1045C104.834 82.4163 104.561 81.4639 104.561 80.2471ZM106.215 80.3906C106.215 81.1335 106.365 81.7191 106.666 82.1475C106.971 82.5713 107.393 82.7832 107.931 82.7832C108.601 82.7832 109.097 82.4961 109.421 81.9219V78.668C109.106 78.1074 108.614 77.8271 107.944 77.8271C107.397 77.8271 106.971 78.0436 106.666 78.4766C106.365 78.9095 106.215 79.5475 106.215 80.3906ZM116.052 84.1367C114.999 84.1367 114.145 83.8063 113.488 83.1455C112.837 82.4801 112.511 81.596 112.511 80.4932V80.2881C112.511 79.5498 112.652 78.8913 112.935 78.3125C113.222 77.7292 113.623 77.2757 114.138 76.9521C114.653 76.6286 115.227 76.4668 115.86 76.4668C116.868 76.4668 117.645 76.7881 118.191 77.4307C118.743 78.0732 119.019 78.9824 119.019 80.1582V80.8281H114.186C114.236 81.4388 114.438 81.9219 114.794 82.2773C115.154 82.6328 115.605 82.8105 116.147 82.8105C116.909 82.8105 117.528 82.5029 118.007 81.8877L118.902 82.7422C118.606 83.1842 118.21 83.5283 117.713 83.7744C117.221 84.016 116.667 84.1367 116.052 84.1367ZM115.854 77.7998C115.398 77.7998 115.029 77.9593 114.746 78.2783C114.468 78.5973 114.29 79.0417 114.213 79.6113H117.378V79.4883C117.341 78.9323 117.193 78.513 116.934 78.2305C116.674 77.9434 116.314 77.7998 115.854 77.7998ZM122.396 74.8057V76.6035H123.701V77.834H122.396V81.9629C122.396 82.2454 122.45 82.4505 122.56 82.5781C122.674 82.7012 122.874 82.7627 123.161 82.7627C123.353 82.7627 123.546 82.7399 123.742 82.6943V83.9795C123.364 84.0843 122.999 84.1367 122.648 84.1367C121.372 84.1367 120.734 83.4326 120.734 82.0244V77.834H119.518V76.6035H120.734V74.8057H122.396ZM132.943 83.2754C132.456 83.8496 131.763 84.1367 130.865 84.1367C130.063 84.1367 129.455 83.902 129.04 83.4326C128.63 82.9632 128.425 82.2842 128.425 81.3955V76.6035H130.086V81.375C130.086 82.3138 130.476 82.7832 131.255 82.7832C132.062 82.7832 132.606 82.4938 132.889 81.915V76.6035H134.55V84H132.984L132.943 83.2754ZM142.719 80.377C142.719 81.5208 142.459 82.4346 141.939 83.1182C141.42 83.7972 140.723 84.1367 139.848 84.1367C139.036 84.1367 138.387 83.8701 137.899 83.3369V86.8438H136.238V76.6035H137.77L137.838 77.3555C138.326 76.763 138.989 76.4668 139.827 76.4668C140.729 76.4668 141.436 76.804 141.946 77.4785C142.461 78.1484 142.719 79.0804 142.719 80.2744V80.377ZM141.064 80.2334C141.064 79.4951 140.916 78.9095 140.62 78.4766C140.328 78.0436 139.909 77.8271 139.362 77.8271C138.683 77.8271 138.196 78.1074 137.899 78.668V81.9492C138.2 82.5234 138.692 82.8105 139.376 82.8105C139.905 82.8105 140.317 82.5986 140.613 82.1748C140.914 81.7464 141.064 81.0993 141.064 80.2334ZM149.698 74.8057V76.6035H151.004V77.834H149.698V81.9629C149.698 82.2454 149.753 82.4505 149.862 82.5781C149.976 82.7012 150.177 82.7627 150.464 82.7627C150.655 82.7627 150.849 82.7399 151.045 82.6943V83.9795C150.667 84.0843 150.302 84.1367 149.951 84.1367C148.675 84.1367 148.037 83.4326 148.037 82.0244V77.834H146.82V76.6035H148.037V74.8057H149.698ZM151.763 80.2334C151.763 79.5088 151.906 78.8571 152.193 78.2783C152.48 77.695 152.884 77.2484 153.403 76.9385C153.923 76.624 154.52 76.4668 155.194 76.4668C156.192 76.4668 157.001 76.7881 157.621 77.4307C158.245 78.0732 158.583 78.9255 158.633 79.9873L158.64 80.377C158.64 81.1061 158.498 81.7578 158.216 82.332C157.938 82.9062 157.537 83.3506 157.013 83.665C156.493 83.9795 155.892 84.1367 155.208 84.1367C154.164 84.1367 153.328 83.7904 152.699 83.0977C152.075 82.4004 151.763 81.473 151.763 80.3154V80.2334ZM153.424 80.377C153.424 81.138 153.581 81.735 153.896 82.168C154.21 82.5964 154.647 82.8105 155.208 82.8105C155.769 82.8105 156.204 82.5918 156.514 82.1543C156.828 81.7168 156.985 81.0765 156.985 80.2334C156.985 79.486 156.824 78.8936 156.5 78.4561C156.181 78.0186 155.746 77.7998 155.194 77.7998C154.652 77.7998 154.221 78.0163 153.902 78.4492C153.583 78.8776 153.424 79.5202 153.424 80.377ZM170.179 84H163.356V82.6465L166.576 79.2148C167.018 78.7318 167.344 78.3102 167.554 77.9502C167.768 77.5902 167.875 77.2484 167.875 76.9248C167.875 76.4827 167.763 76.1364 167.54 75.8857C167.317 75.6305 166.998 75.5029 166.583 75.5029C166.136 75.5029 165.783 75.6579 165.523 75.9678C165.268 76.2731 165.141 76.6764 165.141 77.1777H163.158C163.158 76.5716 163.302 76.0179 163.589 75.5166C163.881 75.0153 164.291 74.6234 164.819 74.3408C165.348 74.0537 165.947 73.9102 166.617 73.9102C167.643 73.9102 168.438 74.1562 169.003 74.6484C169.573 75.1406 169.857 75.8356 169.857 76.7334C169.857 77.2256 169.73 77.7269 169.475 78.2373C169.219 78.7477 168.782 79.3424 168.162 80.0215L165.899 82.4072H170.179V84ZM171.689 79.1055L172.264 74.0469H177.842V75.6943H173.884L173.638 77.834C174.107 77.5833 174.606 77.458 175.135 77.458C176.083 77.458 176.826 77.752 177.363 78.3398C177.901 78.9277 178.17 79.7503 178.17 80.8076C178.17 81.4502 178.033 82.0267 177.76 82.5371C177.491 83.043 177.104 83.4372 176.598 83.7197C176.092 83.9977 175.495 84.1367 174.807 84.1367C174.205 84.1367 173.647 84.016 173.132 83.7744C172.617 83.5283 172.209 83.1842 171.908 82.7422C171.612 82.3001 171.455 81.7965 171.437 81.2314H173.392C173.433 81.6462 173.576 81.9697 173.822 82.2021C174.073 82.43 174.399 82.5439 174.8 82.5439C175.246 82.5439 175.59 82.3844 175.832 82.0654C176.074 81.7419 176.194 81.2861 176.194 80.6982C176.194 80.1331 176.055 79.7002 175.777 79.3994C175.499 79.0986 175.105 78.9482 174.595 78.9482C174.125 78.9482 173.745 79.0713 173.453 79.3174L173.262 79.4951L171.689 79.1055ZM179.407 75.9609C179.407 75.3503 179.605 74.8558 180.002 74.4775C180.398 74.0947 180.918 73.9033 181.561 73.9033C182.212 73.9033 182.736 74.0924 183.133 74.4707C183.529 74.8444 183.728 75.3525 183.728 75.9951V76.4873C183.728 77.1025 183.529 77.597 183.133 77.9707C182.736 78.3444 182.217 78.5312 181.574 78.5312C180.927 78.5312 180.403 78.3444 180.002 77.9707C179.605 77.5924 179.407 77.0843 179.407 76.4463V75.9609ZM180.72 76.4873C180.72 76.7607 180.797 76.9818 180.952 77.1504C181.112 77.3145 181.319 77.3965 181.574 77.3965C181.829 77.3965 182.032 77.3122 182.183 77.1436C182.333 76.9749 182.408 76.7493 182.408 76.4668V75.9609C182.408 75.6875 182.333 75.4665 182.183 75.2979C182.032 75.1292 181.825 75.0449 181.561 75.0449C181.31 75.0449 181.107 75.1292 180.952 75.2979C180.797 75.4619 180.72 75.6921 180.72 75.9883V76.4873ZM184.165 81.5596C184.165 80.9443 184.366 80.4499 184.767 80.0762C185.168 79.6979 185.687 79.5088 186.325 79.5088C186.972 79.5088 187.494 79.6956 187.891 80.0693C188.292 80.4385 188.492 80.9489 188.492 81.6006V82.0928C188.492 82.7035 188.296 83.1979 187.904 83.5762C187.512 83.9499 186.991 84.1367 186.339 84.1367C185.683 84.1367 185.156 83.9476 184.76 83.5693C184.363 83.1911 184.165 82.6898 184.165 82.0654V81.5596ZM185.478 82.0928C185.478 82.3434 185.56 82.5576 185.724 82.7354C185.888 82.9131 186.093 83.002 186.339 83.002C186.895 83.002 187.173 82.6943 187.173 82.0791V81.5596C187.173 81.2861 187.095 81.0674 186.94 80.9033C186.785 80.7347 186.58 80.6504 186.325 80.6504C186.07 80.6504 185.865 80.7347 185.71 80.9033C185.555 81.0674 185.478 81.293 185.478 81.5801V82.0928ZM181.964 83.2549L181 82.7354L185.86 74.9561L186.824 75.4756L181.964 83.2549ZM193.12 80.2334C193.12 79.5088 193.264 78.8571 193.551 78.2783C193.838 77.695 194.241 77.2484 194.761 76.9385C195.28 76.624 195.877 76.4668 196.552 76.4668C197.55 76.4668 198.359 76.7881 198.979 77.4307C199.603 78.0732 199.94 78.9255 199.99 79.9873L199.997 80.377C199.997 81.1061 199.856 81.7578 199.573 82.332C199.295 82.9062 198.894 83.3506 198.37 83.665C197.851 83.9795 197.249 84.1367 196.565 84.1367C195.522 84.1367 194.686 83.7904 194.057 83.0977C193.432 82.4004 193.12 81.473 193.12 80.3154V80.2334ZM194.781 80.377C194.781 81.138 194.938 81.735 195.253 82.168C195.567 82.5964 196.005 82.8105 196.565 82.8105C197.126 82.8105 197.561 82.5918 197.871 82.1543C198.186 81.7168 198.343 81.0765 198.343 80.2334C198.343 79.486 198.181 78.8936 197.857 78.4561C197.538 78.0186 197.103 77.7998 196.552 77.7998C196.009 77.7998 195.579 78.0163 195.26 78.4492C194.941 78.8776 194.781 79.5202 194.781 80.377ZM201.986 84V77.834H200.858V76.6035H201.986V75.9268C201.986 75.1064 202.214 74.473 202.67 74.0264C203.126 73.5798 203.764 73.3564 204.584 73.3564C204.876 73.3564 205.186 73.3975 205.514 73.4795L205.473 74.7783C205.29 74.7419 205.078 74.7236 204.837 74.7236C204.044 74.7236 203.647 75.1315 203.647 75.9473V76.6035H205.151V77.834H203.647V84H201.986ZM212.438 81.6211L213.942 76.6035H215.713L212.773 85.1211C212.322 86.3652 211.557 86.9873 210.477 86.9873C210.235 86.9873 209.968 86.9463 209.677 86.8643V85.5791L209.991 85.5996C210.41 85.5996 210.725 85.5221 210.935 85.3672C211.149 85.2168 211.317 84.9616 211.44 84.6016L211.68 83.9658L209.082 76.6035H210.873L212.438 81.6211ZM219.835 84.1367C218.782 84.1367 217.928 83.8063 217.271 83.1455C216.62 82.4801 216.294 81.596 216.294 80.4932V80.2881C216.294 79.5498 216.435 78.8913 216.718 78.3125C217.005 77.7292 217.406 77.2757 217.921 76.9521C218.436 76.6286 219.01 76.4668 219.644 76.4668C220.651 76.4668 221.428 76.7881 221.975 77.4307C222.526 78.0732 222.802 78.9824 222.802 80.1582V80.8281H217.969C218.019 81.4388 218.222 81.9219 218.577 82.2773C218.937 82.6328 219.388 82.8105 219.931 82.8105C220.692 82.8105 221.312 82.5029 221.79 81.8877L222.686 82.7422C222.389 83.1842 221.993 83.5283 221.496 83.7744C221.004 84.016 220.45 84.1367 219.835 84.1367ZM219.637 77.7998C219.181 77.7998 218.812 77.9593 218.529 78.2783C218.251 78.5973 218.074 79.0417 217.996 79.6113H221.161V79.4883C221.125 78.9323 220.977 78.513 220.717 78.2305C220.457 77.9434 220.097 77.7998 219.637 77.7998ZM228.517 84C228.444 83.8587 228.38 83.6286 228.325 83.3096C227.797 83.861 227.149 84.1367 226.384 84.1367C225.641 84.1367 225.035 83.9248 224.565 83.501C224.096 83.0771 223.861 82.5531 223.861 81.9287C223.861 81.1403 224.153 80.5365 224.736 80.1172C225.324 79.6934 226.163 79.4814 227.252 79.4814H228.271V78.9961C228.271 78.6133 228.163 78.3079 227.949 78.0801C227.735 77.8477 227.409 77.7314 226.972 77.7314C226.593 77.7314 226.284 77.8271 226.042 78.0186C225.8 78.2054 225.68 78.4447 225.68 78.7363H224.019C224.019 78.3307 224.153 77.9525 224.422 77.6016C224.691 77.2461 225.055 76.9681 225.516 76.7676C225.98 76.5671 226.498 76.4668 227.067 76.4668C227.933 76.4668 228.624 76.6855 229.139 77.123C229.654 77.556 229.918 78.1667 229.932 78.9551V82.291C229.932 82.9564 230.025 83.4873 230.212 83.8838V84H228.517ZM226.691 82.8037C227.02 82.8037 227.327 82.724 227.614 82.5645C227.906 82.4049 228.125 82.1908 228.271 81.9219V80.5273H227.375C226.76 80.5273 226.297 80.6344 225.987 80.8486C225.677 81.0628 225.522 81.3659 225.522 81.7578C225.522 82.0768 225.627 82.332 225.837 82.5234C226.051 82.7103 226.336 82.8037 226.691 82.8037ZM235.544 78.1211C235.325 78.0846 235.1 78.0664 234.867 78.0664C234.106 78.0664 233.593 78.3581 233.329 78.9414V84H231.668V76.6035H233.254L233.295 77.4307C233.696 76.7881 234.252 76.4668 234.963 76.4668C235.2 76.4668 235.396 76.4987 235.551 76.5625L235.544 78.1211ZM238.36 84H236.699V73.5H238.36V84ZM242.763 81.6211L244.267 76.6035H246.037L243.098 85.1211C242.646 86.3652 241.881 86.9873 240.801 86.9873C240.559 86.9873 240.293 86.9463 240.001 86.8643V85.5791L240.315 85.5996C240.735 85.5996 241.049 85.5221 241.259 85.3672C241.473 85.2168 241.642 84.9616 241.765 84.6016L242.004 83.9658L239.406 76.6035H241.197L242.763 81.6211ZM254.356 78.1211C254.138 78.0846 253.912 78.0664 253.68 78.0664C252.919 78.0664 252.406 78.3581 252.142 78.9414V84H250.48V76.6035H252.066L252.107 77.4307C252.508 76.7881 253.064 76.4668 253.775 76.4668C254.012 76.4668 254.208 76.4987 254.363 76.5625L254.356 78.1211ZM258.526 84.1367C257.474 84.1367 256.619 83.8063 255.963 83.1455C255.311 82.4801 254.985 81.596 254.985 80.4932V80.2881C254.985 79.5498 255.127 78.8913 255.409 78.3125C255.696 77.7292 256.097 77.2757 256.612 76.9521C257.127 76.6286 257.701 76.4668 258.335 76.4668C259.342 76.4668 260.119 76.7881 260.666 77.4307C261.217 78.0732 261.493 78.9824 261.493 80.1582V80.8281H256.66C256.71 81.4388 256.913 81.9219 257.269 82.2773C257.629 82.6328 258.08 82.8105 258.622 82.8105C259.383 82.8105 260.003 82.5029 260.481 81.8877L261.377 82.7422C261.081 83.1842 260.684 83.5283 260.188 83.7744C259.695 84.016 259.142 84.1367 258.526 84.1367ZM258.328 77.7998C257.872 77.7998 257.503 77.9593 257.221 78.2783C256.943 78.5973 256.765 79.0417 256.688 79.6113H259.853V79.4883C259.816 78.9323 259.668 78.513 259.408 78.2305C259.148 77.9434 258.788 77.7998 258.328 77.7998ZM269.286 81.71L270.462 76.6035H272.082L270.065 84H268.698L267.112 78.9209L265.554 84H264.187L262.163 76.6035H263.783L264.979 81.6553L266.497 76.6035H267.748L269.286 81.71ZM277.612 84C277.539 83.8587 277.476 83.6286 277.421 83.3096C276.892 83.861 276.245 84.1367 275.479 84.1367C274.737 84.1367 274.131 83.9248 273.661 83.501C273.192 83.0771 272.957 82.5531 272.957 81.9287C272.957 81.1403 273.249 80.5365 273.832 80.1172C274.42 79.6934 275.258 79.4814 276.348 79.4814H277.366V78.9961C277.366 78.6133 277.259 78.3079 277.045 78.0801C276.831 77.8477 276.505 77.7314 276.067 77.7314C275.689 77.7314 275.379 77.8271 275.138 78.0186C274.896 78.2054 274.775 78.4447 274.775 78.7363H273.114C273.114 78.3307 273.249 77.9525 273.518 77.6016C273.786 77.2461 274.151 76.9681 274.611 76.7676C275.076 76.5671 275.593 76.4668 276.163 76.4668C277.029 76.4668 277.719 76.6855 278.234 77.123C278.749 77.556 279.014 78.1667 279.027 78.9551V82.291C279.027 82.9564 279.121 83.4873 279.308 83.8838V84H277.612ZM275.787 82.8037C276.115 82.8037 276.423 82.724 276.71 82.5645C277.002 82.4049 277.22 82.1908 277.366 81.9219V80.5273H276.471C275.855 80.5273 275.393 80.6344 275.083 80.8486C274.773 81.0628 274.618 81.3659 274.618 81.7578C274.618 82.0768 274.723 82.332 274.933 82.5234C275.147 82.7103 275.432 82.8037 275.787 82.8037ZM284.64 78.1211C284.421 78.0846 284.195 78.0664 283.963 78.0664C283.202 78.0664 282.689 78.3581 282.425 78.9414V84H280.764V76.6035H282.35L282.391 77.4307C282.792 76.7881 283.348 76.4668 284.059 76.4668C284.296 76.4668 284.492 76.4987 284.646 76.5625L284.64 78.1211ZM285.241 80.2471C285.241 79.1077 285.506 78.194 286.034 77.5059C286.563 76.8132 287.271 76.4668 288.16 76.4668C288.944 76.4668 289.577 76.7402 290.061 77.2871V73.5H291.722V84H290.218L290.136 83.2344C289.639 83.8359 288.976 84.1367 288.146 84.1367C287.281 84.1367 286.579 83.7881 286.041 83.0908C285.508 82.3936 285.241 81.4456 285.241 80.2471ZM286.902 80.3906C286.902 81.1426 287.046 81.7305 287.333 82.1543C287.625 82.5736 288.037 82.7832 288.57 82.7832C289.249 82.7832 289.746 82.4801 290.061 81.874V78.7158C289.755 78.1234 289.263 77.8271 288.584 77.8271C288.046 77.8271 287.632 78.0413 287.34 78.4697C287.048 78.8936 286.902 79.5339 286.902 80.3906Z" fill="white"/>
<defs>
<filter id="filter0_di" x="17.4335" y="23.633" width="75.7237" height="75.7237" filterUnits="userSpaceOnUse" color-interpolation-filters="sRGB">
<feFlood flood-opacity="0" result="BackgroundImageFix"/>
<feColorMatrix in="SourceAlpha" type="matrix" values="0 0 0 0 0 0 0 0 0 0 0 0 0 0 0 0 0 0 127 0"/>
<feOffset dx="0.377674" dy="0.755348"/>
<feGaussianBlur stdDeviation="1.98279"/>
<feColorMatrix type="matrix" values="0 0 0 0 0.168627 0 0 0 0 0.168627 0 0 0 0 0.211765 0 0 0 0.05 0"/>
<feBlend mode="normal" in2="BackgroundImageFix" result="effect1_dropShadow"/>
<feBlend mode="normal" in="SourceGraphic" in2="effect1_dropShadow" result="shape"/>
<feColorMatrix in="SourceAlpha" type="matrix" values="0 0 0 0 0 0 0 0 0 0 0 0 0 0 0 0 0 0 127 0" result="hardAlpha"/>
<feOffset dx="0.377674" dy="1.32186"/>
<feGaussianBlur stdDeviation="1.60512"/>
<feComposite in2="hardAlpha" operator="arithmetic" k2="-1" k3="1"/>
<feColorMatrix type="matrix" values="0 0 0 0 0.344861 0 0 0 0 0.344861 0 0 0 0 0.433333 0 0 0 1 0"/>
<feBlend mode="normal" in2="shape" result="effect2_innerShadow"/>
</filter>
<filter id="filter1_f" x="-1.00291" y="5.57442" width="111.463" height="111.463" filterUnits="userSpaceOnUse" color-interpolation-filters="sRGB">
<feFlood flood-opacity="0" result="BackgroundImageFix"/>
<feBlend mode="normal" in="SourceGraphic" in2="BackgroundImageFix" result="shape"/>
<feGaussianBlur stdDeviation="11.0296" result="effect1_foregroundBlur"/>
</filter>
<filter id="filter2_f" x="-5.67576" y="0.901392" width="120.809" height="120.809" filterUnits="userSpaceOnUse" color-interpolation-filters="sRGB">
<feFlood flood-opacity="0" result="BackgroundImageFix"/>
<feBlend mode="normal" in="SourceGraphic" in2="BackgroundImageFix" result="shape"/>
<feGaussianBlur stdDeviation="11.8379" result="effect1_foregroundBlur"/>
</filter>
<filter id="filter3_f" x="74.7944" y="13.6567" width="24.5488" height="24.36" filterUnits="userSpaceOnUse" color-interpolation-filters="sRGB">
<feFlood flood-opacity="0" result="BackgroundImageFix"/>
<feBlend mode="normal" in="SourceGraphic" in2="BackgroundImageFix" result="shape"/>
<feGaussianBlur stdDeviation="2.17163" result="effect1_foregroundBlur"/>
</filter>
<filter id="filter4_f" x="17.2446" y="78.5847" width="17.6537" height="17.5414" filterUnits="userSpaceOnUse" color-interpolation-filters="sRGB">
<feFlood flood-opacity="0" result="BackgroundImageFix"/>
<feBlend mode="normal" in="SourceGraphic" in2="BackgroundImageFix" result="shape"/>
<feGaussianBlur stdDeviation="1.98279" result="effect1_foregroundBlur"/>
</filter>
<radialGradient id="paint0_radial" cx="0" cy="0" r="1" gradientUnits="userSpaceOnUse" gradientTransform="translate(166.96 40.1846) rotate(92.2684) scale(260.635 915.511)">
<stop stop-color="#373B4A"/>
<stop offset="1" stop-color="#2D2D3A"/>
</radialGradient>
<clipPath id="clip0">
<rect width="51.5525" height="52.6856" fill="white" transform="translate(28.9526 33.6418)"/>
</clipPath>
</defs>
</svg>
