<svg width="39" height="26" viewBox="0 0 39 26" fill="none" xmlns="http://www.w3.org/2000/svg">
    <path d="M29.8253 6.51275C30.1661 6.35699 30.5508 6.61765 30.5325 6.99194L30.2777 12.2017C30.2709 12.339 30.3211 12.4731 30.4163 12.5723L34.0944 16.4052C34.3621 16.6842 34.2254 17.1484 33.8493 17.2378L28.7955 18.4398C28.6569 18.4727 28.539 18.5632 28.4713 18.6884L26.0297 23.2051C25.8494 23.5387 25.3776 23.5579 25.1708 23.2399L22.2666 18.7758C22.1932 18.663 22.0773 18.5845 21.9453 18.5581L16.7226 17.5158C16.3507 17.4415 16.1936 16.9963 16.4366 16.7051L19.7263 12.7631C19.8175 12.6538 19.8578 12.5107 19.8371 12.3699L19.0798 7.23058C19.0235 6.8481 19.404 6.5491 19.7623 6.6943L24.6856 8.68939C24.8131 8.74104 24.9561 8.73791 25.0812 8.68076L29.8253 6.51275Z" fill="#E0A843"/>
    <path d="M7.21038 2.0257C7.48596 1.77177 7.93261 1.90002 8.03148 2.26147L8.68111 4.63635C8.71739 4.76899 8.8067 4.88084 8.92803 4.94557L11.1276 6.11913C11.4687 6.30112 11.483 6.78482 11.1533 6.98669L9.08628 8.25222C8.96484 8.32657 8.88086 8.44918 8.85541 8.58928L8.42575 10.9546C8.35796 11.3279 7.91553 11.4926 7.62013 11.2547L5.66002 9.67563C5.55518 9.59117 5.42072 9.55256 5.28704 9.56853L2.7878 9.86708C2.41114 9.91208 2.12353 9.5377 2.26407 9.18536L3.1548 6.95239C3.20756 6.82012 3.20142 6.67164 3.13792 6.54418L2.05721 4.37481C1.88482 4.02876 2.1536 3.62635 2.53929 3.65305L5.02639 3.82524C5.16357 3.83473 5.29861 3.78731 5.39974 3.69413L7.21038 2.0257Z" fill="#E0A843"/>
</svg>
