<svg width="120" height="85" viewBox="0 0 108 85" fill="none" xmlns="http://www.w3.org/2000/svg">
    <path d="M10.7812 75.3994H6.46777V78.9268H11.4785V80H5.15527V70.0469H11.4102V71.127H6.46777V74.3262H10.7812V75.3994ZM15.6888 75.3037L17.3295 72.6035H18.806L16.3861 76.2607L18.8812 80H17.4183L15.7093 77.2314L14.0004 80H12.5306L15.0258 76.2607L12.6058 72.6035H14.0687L15.6888 75.3037ZM23.2761 79.1045C23.7273 79.1045 24.1215 78.9678 24.4587 78.6943C24.796 78.4209 24.9828 78.0791 25.0193 77.6689H26.2156C26.1928 78.0928 26.047 78.4961 25.7781 78.8789C25.5092 79.2617 25.1492 79.5671 24.698 79.7949C24.2514 80.0228 23.7774 80.1367 23.2761 80.1367C22.269 80.1367 21.4669 79.8018 20.8699 79.1318C20.2774 78.4574 19.9812 77.5368 19.9812 76.3701V76.1582C19.9812 75.4382 20.1134 74.7979 20.3777 74.2373C20.642 73.6768 21.0203 73.2415 21.5124 72.9316C22.0092 72.6217 22.5948 72.4668 23.2693 72.4668C24.0987 72.4668 24.7869 72.7152 25.3337 73.2119C25.8852 73.7087 26.1791 74.3535 26.2156 75.1465H25.0193C24.9828 74.668 24.8005 74.276 24.4724 73.9707C24.1488 73.6608 23.7478 73.5059 23.2693 73.5059C22.6267 73.5059 22.1277 73.7383 21.7722 74.2031C21.4213 74.6634 21.2458 75.3311 21.2458 76.2061V76.4453C21.2458 77.2975 21.4213 77.9538 21.7722 78.4141C22.1231 78.8743 22.6244 79.1045 23.2761 79.1045ZM31.0001 80.1367C29.9975 80.1367 29.1818 79.8086 28.5529 79.1523C27.9239 78.4915 27.6095 77.6097 27.6095 76.5068V76.2744C27.6095 75.5407 27.7485 74.8867 28.0265 74.3125C28.309 73.7337 28.701 73.2826 29.2023 72.959C29.7081 72.6309 30.255 72.4668 30.8429 72.4668C31.8045 72.4668 32.5519 72.7835 33.0851 73.417C33.6183 74.0505 33.8849 74.9574 33.8849 76.1377V76.6641H28.8741C28.8924 77.3932 29.1043 77.9834 29.5099 78.4346C29.92 78.8812 30.4396 79.1045 31.0685 79.1045C31.5151 79.1045 31.8933 79.0133 32.2032 78.8311C32.5131 78.6488 32.7843 78.4072 33.0167 78.1064L33.7892 78.708C33.1694 79.6605 32.2397 80.1367 31.0001 80.1367ZM30.8429 73.5059C30.3325 73.5059 29.9041 73.6927 29.5577 74.0664C29.2114 74.4355 28.9972 74.9551 28.9152 75.625H32.6202V75.5293C32.5838 74.8867 32.4106 74.39 32.1007 74.0391C31.7908 73.6836 31.3715 73.5059 30.8429 73.5059ZM37.022 80H35.7573V69.5H37.022V80ZM40.7196 80H39.4549V69.5H40.7196V80ZM46.1125 80.1367C45.1099 80.1367 44.2942 79.8086 43.6653 79.1523C43.0364 78.4915 42.7219 77.6097 42.7219 76.5068V76.2744C42.7219 75.5407 42.8609 74.8867 43.1389 74.3125C43.4215 73.7337 43.8134 73.2826 44.3147 72.959C44.8205 72.6309 45.3674 72.4668 45.9553 72.4668C46.9169 72.4668 47.6643 72.7835 48.1975 73.417C48.7307 74.0505 48.9973 74.9574 48.9973 76.1377V76.6641H43.9866C44.0048 77.3932 44.2167 77.9834 44.6223 78.4346C45.0325 78.8812 45.552 79.1045 46.1809 79.1045C46.6275 79.1045 47.0058 79.0133 47.3157 78.8311C47.6256 78.6488 47.8967 78.4072 48.1291 78.1064L48.9016 78.708C48.2818 79.6605 47.3521 80.1367 46.1125 80.1367ZM45.9553 73.5059C45.4449 73.5059 45.0165 73.6927 44.6702 74.0664C44.3238 74.4355 44.1096 74.9551 44.0276 75.625H47.7327V75.5293C47.6962 74.8867 47.523 74.39 47.2131 74.0391C46.9032 73.6836 46.484 73.5059 45.9553 73.5059ZM51.9567 72.6035L51.9977 73.5332C52.5628 72.8223 53.3011 72.4668 54.2125 72.4668C55.7757 72.4668 56.5641 73.3486 56.5777 75.1123V80H55.3131V75.1055C55.3085 74.5723 55.1855 74.1781 54.944 73.9229C54.707 73.6676 54.3356 73.54 53.8297 73.54C53.4195 73.54 53.0595 73.6494 52.7496 73.8682C52.4397 74.0869 52.1982 74.374 52.025 74.7295V80H50.7604V72.6035H51.9567ZM60.4941 70.8125V72.6035H61.875V73.5811H60.4941V78.168C60.4941 78.4642 60.5556 78.6875 60.6787 78.8379C60.8017 78.9837 61.0114 79.0566 61.3076 79.0566C61.4534 79.0566 61.654 79.0293 61.9092 78.9746V80C61.5765 80.0911 61.2529 80.1367 60.9385 80.1367C60.3734 80.1367 59.9473 79.9658 59.6601 79.624C59.373 79.2822 59.2295 78.7969 59.2295 78.168V73.5811H57.8828V72.6035H59.2295V70.8125H60.4941ZM71.2663 75.9736H68.9284V80H67.6091V70.0469H70.904C72.0251 70.0469 72.8865 70.3021 73.488 70.8125C74.0941 71.3229 74.3972 72.0658 74.3972 73.041C74.3972 73.6608 74.2286 74.2008 73.8913 74.6611C73.5587 75.1214 73.0938 75.4655 72.4968 75.6934L74.8347 79.918V80H73.4265L71.2663 75.9736ZM68.9284 74.9004H70.945C71.5967 74.9004 72.114 74.7318 72.4968 74.3945C72.8842 74.0573 73.0779 73.6061 73.0779 73.041C73.0779 72.4258 72.8933 71.9541 72.5242 71.626C72.1596 71.2979 71.6309 71.1315 70.9382 71.127H68.9284V74.9004ZM80.9044 80C80.8315 79.8542 80.7722 79.5944 80.7267 79.2207C80.1388 79.8314 79.4369 80.1367 78.6212 80.1367C77.892 80.1367 77.2927 79.9316 76.8233 79.5215C76.3585 79.1068 76.1261 78.5827 76.1261 77.9492C76.1261 77.179 76.4177 76.582 77.0011 76.1582C77.589 75.7298 78.4138 75.5156 79.4757 75.5156H80.7062V74.9346C80.7062 74.4925 80.574 74.1416 80.3097 73.8818C80.0453 73.6175 79.6557 73.4854 79.1407 73.4854C78.6896 73.4854 78.3113 73.5993 78.006 73.8271C77.7006 74.055 77.548 74.3307 77.548 74.6543H76.2765C76.2765 74.2852 76.4063 73.9297 76.6661 73.5879C76.9304 73.2415 77.2859 72.9681 77.7325 72.7676C78.1837 72.5671 78.6782 72.4668 79.2159 72.4668C80.0681 72.4668 80.7358 72.681 81.2188 73.1094C81.7019 73.5332 81.9526 74.1188 81.9708 74.8662V78.2705C81.9708 78.9495 82.0574 79.4896 82.2306 79.8906V80H80.9044ZM78.8058 79.0361C79.2022 79.0361 79.5782 78.9336 79.9337 78.7285C80.2892 78.5234 80.5466 78.2568 80.7062 77.9287V76.4111H79.7149C78.1655 76.4111 77.3907 76.8646 77.3907 77.7715C77.3907 78.168 77.5229 78.4779 77.7872 78.7012C78.0515 78.9245 78.391 79.0361 78.8058 79.0361ZM85.9624 70.8125V72.6035H87.3432V73.5811H85.9624V78.168C85.9624 78.4642 86.0239 78.6875 86.1469 78.8379C86.27 78.9837 86.4796 79.0566 86.7759 79.0566C86.9217 79.0566 87.1222 79.0293 87.3774 78.9746V80C87.0447 80.0911 86.7212 80.1367 86.4067 80.1367C85.8416 80.1367 85.4155 79.9658 85.1284 79.624C84.8413 79.2822 84.6977 78.7969 84.6977 78.168V73.5811H83.3511V72.6035H84.6977V70.8125H85.9624ZM90.494 80H89.2293V72.6035H90.494V80ZM89.1268 70.6416C89.1268 70.4365 89.1883 70.2633 89.3114 70.1221C89.439 69.9808 89.6258 69.9102 89.8719 69.9102C90.118 69.9102 90.3049 69.9808 90.4325 70.1221C90.5601 70.2633 90.6239 70.4365 90.6239 70.6416C90.6239 70.8467 90.5601 71.0176 90.4325 71.1543C90.3049 71.291 90.118 71.3594 89.8719 71.3594C89.6258 71.3594 89.439 71.291 89.3114 71.1543C89.1883 71.0176 89.1268 70.8467 89.1268 70.6416ZM94.0139 72.6035L94.0549 73.5332C94.62 72.8223 95.3583 72.4668 96.2698 72.4668C97.8329 72.4668 98.6213 73.3486 98.635 75.1123V80H97.3703V75.1055C97.3658 74.5723 97.2427 74.1781 97.0012 73.9229C96.7642 73.6676 96.3928 73.54 95.8869 73.54C95.4768 73.54 95.1168 73.6494 94.8069 73.8682C94.497 74.0869 94.2554 74.374 94.0823 74.7295V80H92.8176V72.6035H94.0139ZM100.535 76.2402C100.535 75.0872 100.801 74.1712 101.335 73.4922C101.868 72.8086 102.574 72.4668 103.454 72.4668C104.356 72.4668 105.06 72.7858 105.566 73.4238L105.628 72.6035H106.783V79.8223C106.783 80.7793 106.498 81.5335 105.928 82.085C105.363 82.6364 104.602 82.9121 103.645 82.9121C103.112 82.9121 102.59 82.7982 102.08 82.5703C101.569 82.3424 101.18 82.0303 100.911 81.6338L101.567 80.875C102.109 81.5449 102.772 81.8799 103.556 81.8799C104.171 81.8799 104.65 81.7067 104.992 81.3604C105.338 81.014 105.511 80.5264 105.511 79.8975V79.2617C105.005 79.8451 104.315 80.1367 103.44 80.1367C102.574 80.1367 101.872 79.7881 101.335 79.0908C100.801 78.3936 100.535 77.4434 100.535 76.2402ZM101.806 76.3838C101.806 77.2178 101.977 77.874 102.319 78.3525C102.661 78.8265 103.139 79.0635 103.754 79.0635C104.552 79.0635 105.138 78.7012 105.511 77.9766V74.5996C105.124 73.8932 104.543 73.54 103.768 73.54C103.153 73.54 102.672 73.7793 102.326 74.2578C101.979 74.7363 101.806 75.445 101.806 76.3838Z" fill="white"/>
    <path d="M28.67 10.1746H39.5127V12.1931H35.2435V23.5717H32.9035V12.1931H28.6521L28.67 10.1746ZM39.0483 13.8722H41.0489V15.7478H41.0847C41.1561 15.4798 41.2812 15.2298 41.4598 14.9797C41.6384 14.7296 41.8528 14.4974 42.1207 14.3009C42.3708 14.0865 42.6566 13.9258 42.9781 13.8007C43.2818 13.6757 43.6033 13.6042 43.9249 13.6042C44.175 13.6042 44.3536 13.6221 44.4429 13.6221C44.5322 13.64 44.6394 13.6578 44.7287 13.6578V15.7121C44.5858 15.6763 44.425 15.6585 44.2643 15.6406C44.1035 15.6227 43.9606 15.6049 43.7998 15.6049C43.4426 15.6049 43.1032 15.6763 42.7816 15.8192C42.4601 15.9621 42.1922 16.1765 41.9421 16.4444C41.7099 16.7302 41.5134 17.0696 41.3705 17.4805C41.2276 17.8913 41.1561 18.3736 41.1561 18.9095V23.5181H39.0126L39.0483 13.8722ZM54.5533 23.5717H52.4455V22.2141H52.4097C52.1418 22.7143 51.7488 23.0894 51.2308 23.3931C50.7128 23.6968 50.1769 23.8397 49.641 23.8397C48.3727 23.8397 47.4439 23.536 46.8722 22.8929C46.3006 22.2677 46.0148 21.3031 46.0148 20.0349V13.8722H48.1584V19.8205C48.1584 20.6779 48.3191 21.2853 48.6585 21.6247C48.9801 21.9819 49.4445 22.1606 50.034 22.1606C50.4806 22.1606 50.8557 22.0891 51.1593 21.9462C51.463 21.8033 51.7131 21.6247 51.8917 21.3925C52.0882 21.1602 52.2133 20.8744 52.3026 20.5529C52.3919 20.2314 52.4276 19.8741 52.4276 19.499V13.8722H54.5712V23.5717H54.5533ZM58.1973 20.4636C58.2688 21.0888 58.501 21.5175 58.9118 21.7854C59.3227 22.0355 59.8228 22.1606 60.3945 22.1606C60.5909 22.1606 60.8232 22.1427 61.0732 22.107C61.3233 22.0712 61.5734 22.0177 61.7878 21.9283C62.02 21.839 62.1986 21.714 62.3415 21.5354C62.4844 21.3567 62.5559 21.1424 62.538 20.8744C62.5201 20.6065 62.4308 20.3743 62.2343 20.1956C62.0378 20.017 61.8056 19.892 61.5198 19.7669C61.234 19.6598 60.8946 19.5704 60.5195 19.499C60.1444 19.4275 59.7693 19.3382 59.3763 19.2489C58.9833 19.1596 58.5903 19.0524 58.2152 18.9274C57.8401 18.8023 57.5185 18.6416 57.2149 18.4094C56.9291 18.195 56.679 17.9271 56.5182 17.5877C56.3396 17.2483 56.2503 16.8553 56.2503 16.3551C56.2503 15.8192 56.3753 15.3905 56.6432 15.0333C56.8933 14.676 57.2327 14.3902 57.6257 14.1758C58.0187 13.9615 58.4653 13.8007 58.9476 13.7114C59.4299 13.6221 59.8943 13.5864 60.323 13.5864C60.8232 13.5864 61.3055 13.64 61.752 13.7471C62.1986 13.8543 62.6273 14.0151 62.9846 14.2652C63.3597 14.4974 63.6634 14.8189 63.8956 15.194C64.1457 15.5691 64.2886 16.0336 64.36 16.5695H62.1272C62.02 16.0515 61.7878 15.7121 61.4305 15.5334C61.0554 15.3548 60.6445 15.2655 60.1622 15.2655C60.0193 15.2655 59.8228 15.2833 59.6264 15.3012C59.412 15.3369 59.2334 15.3727 59.0369 15.4441C58.8583 15.5156 58.6975 15.6227 58.5724 15.7478C58.4474 15.8728 58.376 16.0514 58.376 16.2658C58.376 16.5337 58.4653 16.7302 58.6439 16.891C58.8225 17.0518 59.0547 17.1768 59.3584 17.3019C59.6442 17.409 59.9836 17.4983 60.3587 17.5698C60.7339 17.6412 61.1268 17.7306 61.5198 17.8199C61.9128 17.9092 62.2879 18.0164 62.663 18.1414C63.0382 18.2664 63.3776 18.4272 63.6634 18.6594C63.9492 18.8738 64.1993 19.1417 64.3779 19.4633C64.5565 19.7848 64.6458 20.1956 64.6458 20.6601C64.6458 21.2317 64.5208 21.714 64.2528 22.1248C63.9849 22.5178 63.6455 22.8572 63.2347 23.1073C62.8238 23.3574 62.3415 23.536 61.8414 23.661C61.3233 23.7682 60.8232 23.8397 60.323 23.8397C59.7157 23.8397 59.1441 23.7682 58.626 23.6253C58.108 23.4824 57.6436 23.2681 57.2684 23.0001C56.8933 22.7143 56.5897 22.3749 56.3753 21.9462C56.1609 21.5354 56.0359 21.0352 56.018 20.4457H58.1795V20.4636H58.1973ZM65.2532 13.8722H66.8787V10.9427H69.0222V13.8543H70.9514V15.4441H69.0222V20.6244C69.0222 20.8566 69.0401 21.0352 69.058 21.2138C69.0758 21.3746 69.1294 21.5175 69.183 21.6247C69.2545 21.7318 69.3616 21.8212 69.4867 21.8748C69.6296 21.9283 69.8082 21.9641 70.0583 21.9641C70.2012 21.9641 70.3619 21.9641 70.5049 21.9462C70.6478 21.9283 70.8085 21.9105 70.9514 21.8748V23.536C70.7192 23.5717 70.487 23.5896 70.2548 23.6075C70.0226 23.6432 69.8082 23.6432 69.5581 23.6432C68.9865 23.6432 68.5399 23.5896 68.2005 23.4824C67.8611 23.3752 67.5932 23.2145 67.3967 23.018C67.2002 22.8036 67.0752 22.5535 67.0037 22.2499C66.9323 21.9462 66.8966 21.5711 66.8787 21.1781V15.462H65.2532V13.8365V13.8722ZM72.4519 13.8722H74.4704V15.194H74.5061C74.8098 14.6224 75.2207 14.2294 75.7565 13.9794C76.2924 13.7293 76.864 13.6042 77.5071 13.6042C78.2752 13.6042 78.9361 13.7293 79.5078 14.0151C80.0794 14.283 80.5438 14.6403 80.9189 15.1226C81.294 15.587 81.5798 16.1408 81.7585 16.766C81.9371 17.3912 82.0443 18.07 82.0443 18.7666C82.0443 19.4275 81.955 20.0527 81.7942 20.6601C81.6156 21.2674 81.3655 21.8212 81.0261 22.2856C80.6867 22.75 80.258 23.1252 79.7221 23.411C79.1862 23.6968 78.5789 23.8397 77.8644 23.8397C77.5607 23.8397 77.2392 23.8039 76.9355 23.7504C76.6318 23.6968 76.3282 23.6075 76.0424 23.4824C75.7565 23.3574 75.4886 23.1966 75.2564 23.0001C75.0063 22.8036 74.8098 22.5714 74.649 22.3213H74.6133V27.1622H72.4698V13.8722H72.4519ZM79.9365 18.7309C79.9365 18.3022 79.8829 17.8735 79.7578 17.4626C79.6507 17.0518 79.472 16.6945 79.2398 16.373C79.0076 16.0514 78.7218 15.8014 78.4003 15.6049C78.0609 15.4084 77.6679 15.3191 77.2392 15.3191C76.346 15.3191 75.6672 15.6227 75.2028 16.2479C74.7562 16.8731 74.524 17.7127 74.524 18.7487C74.524 19.2489 74.5776 19.6955 74.7026 20.1063C74.8277 20.5172 74.9884 20.8744 75.2385 21.1781C75.4707 21.4818 75.7565 21.714 76.0959 21.8926C76.4353 22.0712 76.8105 22.1606 77.257 22.1606C77.7572 22.1606 78.1502 22.0534 78.4896 21.8569C78.829 21.6604 79.0969 21.3925 79.3291 21.0888C79.5435 20.7673 79.7042 20.41 79.7936 19.9992C79.8829 19.5704 79.9365 19.1596 79.9365 18.7309ZM83.7055 10.1746H85.8491V12.1931H83.7055V10.1746ZM83.7055 13.8722H85.8491V23.5717H83.7055V13.8722ZM87.7604 10.1746H89.904V23.5717H87.7604V10.1746ZM96.4418 23.8397C95.6737 23.8397 94.977 23.7146 94.3697 23.4467C93.7623 23.1787 93.2622 22.8394 92.8335 22.3928C92.4226 21.9462 92.1011 21.3925 91.8867 20.7673C91.6724 20.1421 91.5473 19.4454 91.5473 18.713C91.5473 17.9806 91.6545 17.3019 91.8867 16.6767C92.1011 16.0515 92.4226 15.5156 92.8335 15.0511C93.2443 14.6046 93.7623 14.2473 94.3697 13.9972C94.977 13.7471 95.6737 13.6042 96.4418 13.6042C97.2099 13.6042 97.9065 13.7293 98.5139 13.9972C99.1212 14.2473 99.6214 14.6046 100.05 15.0511C100.461 15.4977 100.782 16.0515 100.997 16.6767C101.211 17.3019 101.336 17.9806 101.336 18.713C101.336 19.4633 101.229 20.1421 100.997 20.7673C100.765 21.3925 100.461 21.9283 100.05 22.3928C99.6392 22.8394 99.1212 23.1966 98.5139 23.4467C97.9065 23.6968 97.2277 23.8397 96.4418 23.8397ZM96.4418 22.1427C96.9062 22.1427 97.3349 22.0355 97.6743 21.839C98.0316 21.6425 98.2995 21.3746 98.5317 21.0531C98.7639 20.7315 98.9247 20.3564 99.0319 19.9634C99.1391 19.5526 99.1927 19.1417 99.1927 18.713C99.1927 18.3022 99.1391 17.8913 99.0319 17.4805C98.9247 17.0696 98.7639 16.7124 98.5317 16.3908C98.2995 16.0693 98.0137 15.8192 97.6743 15.6227C97.3171 15.4263 96.9062 15.3191 96.4418 15.3191C95.9773 15.3191 95.5486 15.4263 95.2092 15.6227C94.852 15.8192 94.584 16.0872 94.3518 16.3908C94.1196 16.7124 93.9588 17.0696 93.8517 17.4805C93.7445 17.8913 93.6909 18.3022 93.6909 18.713C93.6909 19.1417 93.7445 19.5526 93.8517 19.9634C93.9588 20.3743 94.1196 20.7315 94.3518 21.0531C94.584 21.3746 94.8698 21.6425 95.2092 21.839C95.5665 22.0534 95.9773 22.1427 96.4418 22.1427ZM101.979 13.8722H103.605V10.9427H105.748V13.8543H107.678V15.4441H105.748V20.6244C105.748 20.8566 105.766 21.0352 105.784 21.2138C105.802 21.3746 105.856 21.5175 105.909 21.6247C105.981 21.7318 106.088 21.8212 106.213 21.8748C106.356 21.9283 106.534 21.9641 106.784 21.9641C106.927 21.9641 107.088 21.9641 107.231 21.9462C107.374 21.9283 107.535 21.9105 107.678 21.8748V23.536C107.445 23.5717 107.213 23.5896 106.981 23.6075C106.749 23.6432 106.534 23.6432 106.284 23.6432C105.713 23.6432 105.266 23.5896 104.927 23.4824C104.587 23.3752 104.319 23.2145 104.123 23.018C103.926 22.8036 103.801 22.5535 103.73 22.2499C103.658 21.9462 103.623 21.5711 103.605 21.1781V15.462H101.979V13.8365V13.8722Z" fill="white"/>
    <path d="M16.3622 10.1745H26.169L20.6249 14.1952L20.6221 14.1863L15.0475 18.235L18.68 17.2919L21.2567 25.2508L13.3256 19.4811L5.39443 25.2508L8.43112 15.9264L0.5 10.1567L10.3067 10.1745L13.3434 0.850098L16.3622 10.1745Z" fill="#00B67A"/>
    <rect x="0.5" y="36.9224" width="19.6754" height="19.6754" fill="#00B67A"/>
    <path d="M12.0229 45.1573H17.4882L14.3985 47.398L14.3969 47.3931L11.2902 49.6494L13.3145 49.1238L14.7506 53.5593L10.3305 50.3439L5.91053 53.5593L7.60288 48.3628L3.18286 45.1474L8.64815 45.1573L10.3405 39.9608L12.0229 45.1573Z" fill="white"/>
    <rect x="44.2295" y="36.9224" width="19.6754" height="19.6754" fill="#00B67A"/>
    <path d="M55.7592 45.1573H61.2245L58.1348 47.398L58.1332 47.3931L55.0265 49.6494L57.0509 49.1238L58.4869 53.5593L54.0669 50.3439L49.6469 53.5593L51.3392 48.3628L46.9192 45.1474L52.3845 45.1573L54.0768 39.9608L55.7592 45.1573Z" fill="white"/>
    <rect x="22.2966" y="36.9224" width="19.6754" height="19.6754" fill="#00B67A"/>
    <path d="M33.8188 45.1573H39.2841L36.1944 47.398L36.1928 47.3931L33.0861 49.6494L35.1104 49.1238L36.5465 53.5593L32.1264 50.3439L27.7064 53.5593L29.3988 48.3628L24.9788 45.1474L30.444 45.1573L32.1364 39.9608L33.8188 45.1573Z" fill="white"/>
    <rect x="66.0261" y="36.9224" width="19.6754" height="19.6754" fill="#00B67A"/>
    <path d="M77.5537 45.1573H83.0189L79.9293 47.398L79.9277 47.3931L76.821 49.6494L78.8453 49.1238L80.2813 53.5593L75.8613 50.3439L71.4413 53.5593L73.1336 48.3628L68.7136 45.1474L74.1789 45.1573L75.8713 39.9608L77.5537 45.1573Z" fill="white"/>
    <rect x="87.6824" y="36.9224" width="19.6754" height="19.6754" fill="#00B67A"/>
    <path d="M99.2053 45.1573H104.671L101.581 47.398L101.579 47.3931L98.4726 49.6494L100.497 49.1238L101.933 53.5593L97.5129 50.3439L93.0929 53.5593L94.7852 48.3628L90.3652 45.1474L95.8305 45.1573L97.5229 39.9608L99.2053 45.1573Z" fill="white"/>
</svg>
