<svg width="151" height="72" fill="none" xmlns="http://www.w3.org/2000/svg"><path d="m48.531 48 2.356 4.758 5.253.77-3.797 3.71.89 5.234-4.702-2.464-4.702 2.464.89-5.233-3.796-3.711 5.253-.77L48.53 48ZM65.531 48l2.356 4.758 5.253.77-3.797 3.71.89 5.234-4.702-2.464-4.702 2.464.89-5.233-3.796-3.711 5.253-.77L65.53 48ZM82.531 48l2.356 4.758 5.253.77-3.797 3.71.89 5.234-4.702-2.464-4.702 2.464.89-5.233-3.796-3.711 5.253-.77L82.53 48ZM99.531 48l2.356 4.758 5.253.77-3.797 3.71.891 5.234-4.703-2.464-4.702 2.464.89-5.233-3.796-3.711 5.253-.77L99.53 48ZM116.531 48l2.356 4.758 5.253.77-3.797 3.71.891 5.234-4.703-2.464-4.702 2.464.891-5.233-3.797-3.711 5.253-.77L116.531 48Z" fill="#00C26F"/><g clip-path="url(#a)"><path d="M41.242 18.342h13.193v2.461h-5.187v13.838h-2.853V20.803H41.23v-2.461h.012Zm12.63 4.497h2.438v2.278h.046c.08-.322.23-.633.449-.932.218-.299.483-.587.794-.828.31-.253.655-.449 1.035-.61.38-.15.77-.23 1.161-.23.3 0 .518.012.633.023.115.012.23.035.357.046v2.508a8.296 8.296 0 0 0-.564-.08 4.779 4.779 0 0 0-.563-.035 3.05 3.05 0 0 0-1.243.264 2.862 2.862 0 0 0-1.012.771c-.288.345-.518.76-.69 1.265-.173.506-.253 1.081-.253 1.737v5.613h-2.6V22.84h.012Zm18.864 11.802h-2.554v-1.645h-.046c-.322.598-.793 1.07-1.426 1.426-.633.357-1.277.54-1.932.54-1.553 0-2.68-.379-3.37-1.15-.69-.77-1.036-1.932-1.036-3.485V22.84h2.6v7.235c0 1.036.195 1.772.598 2.197.39.426.955.645 1.668.645.552 0 1-.081 1.368-.254.369-.172.668-.39.886-.678.23-.276.391-.621.495-1.012.103-.392.15-.817.15-1.277V22.85h2.599v11.79Zm4.428-3.784c.08.759.368 1.288.863 1.598.506.3 1.104.46 1.806.46.242 0 .517-.023.828-.057.31-.034.61-.115.874-.219a1.68 1.68 0 0 0 .679-.471c.172-.207.253-.472.242-.805a1.111 1.111 0 0 0-.369-.817c-.23-.219-.517-.38-.874-.518a8.763 8.763 0 0 0-1.22-.333c-.46-.092-.92-.196-1.39-.3a13.19 13.19 0 0 1-1.404-.39 4.281 4.281 0 0 1-1.208-.621 2.73 2.73 0 0 1-.851-.99c-.219-.402-.322-.897-.322-1.495 0-.644.16-1.173.471-1.61.311-.438.714-.783 1.185-1.047a5.492 5.492 0 0 1 1.599-.564 9.738 9.738 0 0 1 1.68-.16c.609 0 1.196.068 1.748.195a4.505 4.505 0 0 1 1.507.632c.448.288.816.668 1.115 1.128.3.46.483 1.023.564 1.679h-2.715c-.126-.621-.402-1.047-.85-1.254-.45-.218-.967-.322-1.542-.322-.184 0-.403.012-.656.046a3.589 3.589 0 0 0-.713.173c-.218.08-.403.207-.564.368a.89.89 0 0 0-.23.632c0 .322.115.576.334.771.218.196.506.357.863.495.356.126.759.241 1.219.333.46.092.932.196 1.415.3.471.103.931.24 1.391.39.46.15.863.357 1.22.622.356.264.644.586.863.977.218.391.333.886.333 1.461 0 .702-.161 1.288-.483 1.783a3.822 3.822 0 0 1-1.242 1.185 5.84 5.84 0 0 1-1.703.667 8.543 8.543 0 0 1-1.852.207c-.747 0-1.437-.08-2.07-.253-.633-.173-1.185-.426-1.645-.76a3.766 3.766 0 0 1-1.093-1.276c-.264-.506-.402-1.116-.425-1.818h2.622v-.023Zm8.581-8.018h1.967v-3.542h2.6v3.542h2.346v1.944h-2.346v6.304c0 .276.011.506.034.713.023.195.08.368.161.506.08.138.207.241.38.31.172.07.39.104.69.104.184 0 .368 0 .552-.012.184-.011.368-.034.552-.08v2.013c-.287.034-.575.057-.84.092a6.726 6.726 0 0 1-.84.046c-.69 0-1.241-.07-1.656-.196-.414-.126-.747-.322-.977-.575-.242-.253-.391-.563-.483-.943a7.093 7.093 0 0 1-.15-1.3v-6.959h-1.967V22.84h-.023Zm8.754 0h2.461v1.6h.046c.368-.691.874-1.174 1.53-1.473a5.04 5.04 0 0 1 2.128-.449c.932 0 1.737.161 2.427.495.69.322 1.265.77 1.725 1.346.46.575.794 1.242 1.024 2.001.23.76.345 1.576.345 2.439 0 .793-.103 1.564-.31 2.3a6.158 6.158 0 0 1-.932 1.979 4.574 4.574 0 0 1-1.587 1.368c-.645.345-1.392.518-2.266.518-.38 0-.76-.035-1.14-.104a5.006 5.006 0 0 1-1.092-.333 3.941 3.941 0 0 1-.966-.587 3.64 3.64 0 0 1-.748-.828h-.046v5.89h-2.6V22.838Zm9.087 5.913c0-.53-.069-1.047-.207-1.553a4.19 4.19 0 0 0-.622-1.335 3.17 3.17 0 0 0-1.023-.931 2.871 2.871 0 0 0-1.415-.357c-1.093 0-1.921.38-2.473 1.139-.552.76-.828 1.771-.828 3.037 0 .598.069 1.15.218 1.656.15.506.357.943.656 1.311.287.368.633.656 1.035.863.403.218.874.322 1.403.322.599 0 1.093-.127 1.507-.368a3.177 3.177 0 0 0 1.012-.943c.265-.391.461-.828.576-1.323.103-.495.161-1 .161-1.518Zm4.589-10.41h2.6v2.461h-2.6v-2.461Zm0 4.497h2.6v11.802h-2.6V22.839Zm4.923-4.497h2.6V34.64h-2.6v-16.3Zm10.571 16.62c-.943 0-1.783-.16-2.519-.47a5.566 5.566 0 0 1-1.875-1.289 5.618 5.618 0 0 1-1.162-1.967 7.606 7.606 0 0 1-.402-2.507c0-.898.138-1.726.402-2.485a5.619 5.619 0 0 1 1.162-1.967c.506-.552 1.139-.978 1.875-1.288.736-.31 1.576-.472 2.519-.472.943 0 1.783.161 2.519.472.736.31 1.357.747 1.875 1.288a5.619 5.619 0 0 1 1.162 1.967c.264.76.402 1.587.402 2.485 0 .908-.138 1.748-.402 2.507a5.618 5.618 0 0 1-1.162 1.967c-.506.552-1.139.978-1.875 1.288-.736.31-1.576.472-2.519.472Zm0-2.058c.575 0 1.081-.127 1.507-.368.425-.242.77-.564 1.047-.955.276-.39.471-.84.609-1.334.127-.495.196-1 .196-1.518 0-.506-.069-1.001-.196-1.507a3.926 3.926 0 0 0-.609-1.335 3.19 3.19 0 0 0-1.047-.943c-.426-.241-.932-.368-1.507-.368-.575 0-1.081.127-1.507.368a3.312 3.312 0 0 0-1.047.943 4.168 4.168 0 0 0-.609 1.335c-.127.506-.196 1-.196 1.507 0 .517.069 1.023.196 1.518.126.494.333.943.609 1.334.276.391.622.713 1.047.955.426.253.932.368 1.507.368Zm6.717-10.065h1.967v-3.542h2.6v3.542h2.346v1.944h-2.346v6.304c0 .276.011.506.034.713.023.195.081.368.161.506a.743.743 0 0 0 .38.31c.173.07.391.104.69.104.184 0 .368 0 .552-.012.184-.011.368-.034.552-.08v2.013c-.287.034-.575.057-.839.092a6.726 6.726 0 0 1-.84.046c-.69 0-1.242-.07-1.656-.196-.414-.126-.748-.322-.978-.575-.242-.253-.391-.563-.483-.943a7.091 7.091 0 0 1-.15-1.3v-6.959h-1.967V22.84h-.023Z" fill="#fff"/><path d="M38.206 18.341H26.29L22.609 7l-3.692 11.341L7 18.33l9.65 7.017-3.692 11.33 9.65-7.005 9.64 7.004-3.68-11.33 9.638-7.005Z" fill="#00B67A"/><path d="m29.396 27.912-.828-2.565-5.959 4.325 6.787-1.76Z" fill="#005128"/></g><path opacity=".4" d="M131.748 56.524v-3.169l-2.242 3.17h2.242Zm.014 2.476v-1.709h-3.066v-.86l3.203-4.443h.742v4.536h1.03v.767h-1.03V59h-.879Zm3.201-1.065h1.02V59h-1.02v-1.065Zm4.748-2.998c.388 0 .69-.107.909-.322.218-.218.327-.477.327-.776 0-.26-.104-.5-.313-.718-.208-.218-.526-.327-.952-.327-.423 0-.729.109-.918.327a1.133 1.133 0 0 0-.283.767c0 .329.122.586.366.771.244.186.532.279.864.279Zm.054 3.462c.407 0 .744-.109 1.011-.327.27-.221.405-.55.405-.986 0-.453-.138-.796-.415-1.03-.277-.235-.631-.352-1.064-.352-.42 0-.764.12-1.031.361-.263.238-.395.569-.395.992 0 .364.12.68.361.947.244.264.62.395 1.128.395Zm-1.25-3.125a1.74 1.74 0 0 1-.571-.366c-.257-.26-.386-.599-.386-1.015 0-.521.189-.969.566-1.343.378-.374.914-.562 1.607-.562.67 0 1.196.178 1.577.532.381.352.571.764.571 1.236 0 .436-.11.79-.332 1.06-.123.152-.315.302-.576.449.29.133.518.286.684.459.309.325.464.748.464 1.27 0 .614-.207 1.137-.621 1.566-.413.427-.997.64-1.752.64-.681 0-1.257-.184-1.729-.552-.469-.37-.703-.908-.703-1.61 0-.414.101-.77.303-1.07.201-.303.501-.534.898-.694Z" fill="#fff"/><defs><clipPath id="a"><path fill="#fff" transform="translate(7 7)" d="M0 0h130.3v32H0z"/></clipPath></defs></svg>
