<svg width="32" height="32" fill="none" xmlns="http://www.w3.org/2000/svg"><path fill-rule="evenodd" clip-rule="evenodd" d="M0 16C0 7.163 7.163 0 16 0s16 7.163 16 16-7.163 16-16 16S0 24.837 0 16Z" fill="#55ACEE"/><path fill-rule="evenodd" clip-rule="evenodd" d="m15.52 13.005.034.553-.56-.068c-2.036-.26-3.816-1.14-5.326-2.62l-.74-.735-.19.542c-.402 1.209-.145 2.486.695 3.345.447.474.346.542-.426.26-.268-.091-.503-.159-.526-.125-.078.08.19 1.107.403 1.514.291.565.884 1.119 1.533 1.446l.549.26-.65.012c-.626 0-.648.01-.581.248.224.735 1.108 1.514 2.093 1.853l.693.237-.604.362a6.302 6.302 0 0 1-3 .836c-.503.011-.917.056-.917.09 0 .113 1.365.746 2.16.995 2.384.734 5.215.418 7.342-.837 1.51-.892 3.021-2.666 3.727-4.383.38-.916.76-2.588.76-3.39 0-.52.034-.588.66-1.209.37-.362.717-.757.784-.87.112-.215.101-.215-.47-.022-.951.338-1.085.293-.615-.215.347-.362.76-1.017.76-1.21 0-.033-.167.023-.357.125-.202.113-.65.283-.985.384l-.605.192-.548-.372c-.302-.204-.727-.43-.951-.498-.571-.158-1.444-.135-1.959.046-1.399.508-2.283 1.819-2.182 3.254Z" fill="#fff"/></svg>
