<svg fill="none" xmlns="http://www.w3.org/2000/svg" viewBox="0 0 863 148"><rect x="1.49" y=".5" width="861.01" height="146" rx="7.5" fill="#fff" stroke="#F0F0F0"/><path d="M727.466 0h100.651v13c0 12.703-10.297 23-23 23h-54.651c-12.702 0-23-10.297-23-23V0zM381.669 1H482.32v13c0 12.703-10.297 23-23 23h-54.651c-12.702 0-23-10.297-23-23V1zM557.072 1h100.651v13c0 12.703-10.298 23-23 23h-54.651c-12.703 0-23-10.297-23-23V1zM209.267 1h100.651v13c0 12.703-10.297 23-23 23h-54.651c-12.702 0-23-10.297-23-23V1zM36.866 1h100.651v13c0 12.703-10.298 23-23 23H59.866c-12.703 0-23-10.297-23-23V1z" fill="#C4C4C4" fill-opacity=".14"/><path d="M68.626 18.34l5.502 2.224v1.722l-7.189-3.33v-1.284l7.19-3.322v1.722l-5.503 2.268zM81.872 24h-1.635V13.163l-3.278 1.204v-1.476l4.658-1.75h.255V24zM95.222 21.759l1.828-7.269h1.626L95.908 24h-1.319l-2.311-7.207L90.028 24h-1.319l-2.76-9.51h1.618l1.872 7.12 2.215-7.12h1.31l2.258 7.269zM234.571 24h-1.635V13.163l-3.278 1.204v-1.476l4.658-1.75h.255V24zM247.921 21.759l1.829-7.269h1.625L248.607 24h-1.318l-2.312-7.207-2.25 7.207h-1.318l-2.76-9.51h1.617l1.872 7.12 2.215-7.12h1.31l2.258 7.269zM260.885 19.227h-4.289V17.9h4.289v1.328zM272.118 24h-1.635V13.163l-3.278 1.204v-1.476l4.658-1.75h.255V24zM278.578 14.49l.044 1.055c.697-.82 1.637-1.23 2.821-1.23 1.33 0 2.235.51 2.716 1.529a3.609 3.609 0 011.23-1.108c.51-.28 1.111-.421 1.802-.421 2.086 0 3.146 1.104 3.182 3.313V24h-1.626v-6.275c0-.68-.156-1.187-.466-1.52-.311-.34-.832-.51-1.565-.51-.603 0-1.104.181-1.503.544-.398.358-.63.841-.694 1.45V24h-1.635v-6.231c0-1.383-.676-2.075-2.03-2.075-1.066 0-1.796.454-2.188 1.363V24h-1.626v-9.51h1.538zM406.055 24h-1.635V13.163l-3.278 1.204v-1.476l4.658-1.75h.255V24zM412.515 14.49l.044 1.055c.697-.82 1.638-1.23 2.821-1.23 1.33 0 2.236.51 2.716 1.529a3.621 3.621 0 011.231-1.108c.509-.28 1.11-.421 1.801-.421 2.086 0 3.147 1.104 3.182 3.313V24h-1.626v-6.275c0-.68-.155-1.187-.466-1.52-.31-.34-.832-.51-1.564-.51-.604 0-1.105.181-1.503.544-.399.358-.63.841-.694 1.45V24h-1.635v-6.231c0-1.383-.677-2.075-2.03-2.075-1.067 0-1.796.454-2.189 1.363V24h-1.626v-9.51h1.538zM434.62 19.227h-4.289V17.9h4.289v1.328zM446.889 11.194v1.38h-.299c-1.265.024-2.273.399-3.023 1.125-.75.727-1.184 1.75-1.301 3.068.674-.774 1.594-1.16 2.76-1.16 1.113 0 2.001.392 2.663 1.177.668.785 1.002 1.799 1.002 3.041 0 1.319-.36 2.373-1.081 3.164-.715.791-1.676 1.187-2.883 1.187-1.225 0-2.218-.469-2.979-1.406-.762-.944-1.143-2.157-1.143-3.64v-.623c0-2.356.501-4.155 1.503-5.397 1.008-1.248 2.505-1.886 4.491-1.916h.29zm-2.136 5.766c-.556 0-1.069.167-1.538.5a2.61 2.61 0 00-.975 1.258v.597c0 1.055.237 1.905.712 2.55.474.644 1.066.966 1.775.966.732 0 1.307-.27 1.723-.808.422-.54.633-1.246.633-2.119 0-.879-.214-1.588-.642-2.127-.422-.545-.984-.817-1.688-.817zM452.312 14.49l.044 1.055c.697-.82 1.638-1.23 2.821-1.23 1.33 0 2.236.51 2.716 1.529a3.612 3.612 0 011.231-1.108c.509-.28 1.11-.421 1.801-.421 2.086 0 3.147 1.104 3.182 3.313V24h-1.626v-6.275c0-.68-.155-1.187-.466-1.52-.31-.34-.832-.51-1.564-.51-.604 0-1.105.181-1.503.544-.399.358-.63.841-.695 1.45V24h-1.634v-6.231c0-1.383-.677-2.075-2.031-2.075-1.066 0-1.796.454-2.188 1.363V24h-1.626v-9.51h1.538zM585.626 11.194v1.38h-.298c-1.266.024-2.274.399-3.024 1.125-.75.727-1.183 1.75-1.301 3.068.674-.774 1.594-1.16 2.76-1.16 1.113 0 2.001.392 2.663 1.177.668.785 1.002 1.799 1.002 3.041 0 1.319-.36 2.373-1.081 3.164-.715.791-1.676 1.187-2.883 1.187-1.224 0-2.217-.469-2.979-1.406-.762-.944-1.143-2.157-1.143-3.64v-.623c0-2.356.501-4.155 1.503-5.397 1.008-1.248 2.505-1.886 4.491-1.916h.29zm-2.135 5.766c-.557 0-1.07.167-1.538.5a2.612 2.612 0 00-.976 1.258v.597c0 1.055.237 1.905.712 2.55.475.644 1.066.966 1.775.966.733 0 1.307-.27 1.723-.808.422-.54.633-1.246.633-2.119 0-.879-.214-1.588-.642-2.127-.422-.545-.984-.817-1.687-.817zM591.049 14.49l.044 1.055c.698-.82 1.638-1.23 2.822-1.23 1.33 0 2.235.51 2.715 1.529a3.621 3.621 0 011.231-1.108c.51-.28 1.11-.421 1.802-.421 2.086 0 3.146 1.104 3.181 3.313V24h-1.626v-6.275c0-.68-.155-1.187-.466-1.52-.31-.34-.832-.51-1.564-.51-.604 0-1.105.181-1.503.544-.398.358-.63.841-.694 1.45V24h-1.635v-6.231c0-1.383-.677-2.075-2.03-2.075-1.067 0-1.796.454-2.189 1.363V24h-1.626v-9.51h1.538zM613.154 19.227h-4.289V17.9h4.289v1.328zM624.386 24h-1.635V13.163l-3.278 1.204v-1.476l4.658-1.75h.255V24zM632.428 21.618l2.215-7.128h1.74l-3.823 10.978c-.592 1.582-1.532 2.373-2.821 2.373l-.308-.027-.606-.114v-1.318l.439.035c.551 0 .979-.111 1.283-.334.311-.223.566-.63.765-1.222l.36-.966-3.392-9.405h1.775l2.373 7.128z" fill="#64646C"/><path d="M861.989 42v97a8 8 0 01-8 8H.99 6.18c218.811-.166 687.935-21.268 855.808-105z" fill="#C4C4C4" fill-opacity=".1"/><path fill-rule="evenodd" clip-rule="evenodd" d="M450.751 127.405C284.259 142.98 111.883 148.082 3.989 147.999l.001-2c107.846.083 280.158-5.018 446.575-20.585 83.208-7.784 164.929-18.183 236.374-31.856 71.463-13.677 133.08-30.86 175.112-51.697v2.16c-42.28 20.96-103.224 37.815-174.736 51.501-71.529 13.689-153.318 24.096-236.564 31.883z" fill="url(#paint0_linear)" fill-opacity=".7"/><path d="M791.49 83c12.978 0 23.5-4.03 23.5-9s-10.522-9-23.5-9c-9.429 0-17.561 2.127-21.304 5.196-2.555-1.94-6.619-3.196-11.196-3.196-7.732 0-14 3.582-14 8s6.268 8 14 8c5.407 0 10.097-1.751 12.43-4.316C775.547 81.272 782.992 83 791.49 83z" fill="#fff"/><path d="M758.181 23h-1.635V12.163l-3.278 1.204v-1.476l4.658-1.75h.255V23zM766.223 20.618l2.215-7.128h1.74l-3.823 10.978c-.592 1.582-1.532 2.373-2.821 2.373l-.308-.027-.606-.114v-1.318l.439.035c.551 0 .979-.111 1.283-.334.311-.223.566-.63.765-1.222l.36-.966-3.392-9.405h1.775l2.373 7.128zM779.486 18.227h-4.289V16.9h4.289v1.328zM801.845 18.368c0 .862-.184 1.667-.553 2.417-.37.75-.882 1.339-1.539 1.767a3.919 3.919 0 01-2.179.633c-.85 0-1.623-.27-2.321-.809-.697-.54-1.28-1.327-1.749-2.364-.474 1.049-1.057 1.84-1.749 2.373-.691.533-1.459.8-2.302.8-.803 0-1.53-.208-2.18-.624-.65-.422-1.163-1.008-1.538-1.758a5.406 5.406 0 01-.563-2.452v-.211c0-.862.185-1.667.554-2.417.369-.75.879-1.34 1.529-1.767a3.91 3.91 0 012.18-.641c.85 0 1.62.269 2.312.808.697.533 1.283 1.324 1.757 2.373.469-1.037 1.052-1.825 1.749-2.364.704-.545 1.483-.817 2.338-.817 1.207 0 2.218.468 3.033 1.406.814.931 1.221 2.11 1.221 3.533v.114zm-15.047 0c0 1.037.244 1.878.73 2.523.486.644 1.128.966 1.925.966.668 0 1.271-.275 1.81-.826.545-.55.97-1.303 1.275-2.258l.096-.343v-.37a6.208 6.208 0 00-.712-1.713c-.334-.563-.714-.985-1.142-1.266-.428-.287-.876-.43-1.345-.43-.785 0-1.421.322-1.907.966-.486.645-.73 1.509-.73 2.593v.158zm13.421-.228c0-1.02-.243-1.855-.729-2.505-.487-.656-1.119-.985-1.899-.985-.674 0-1.286.279-1.837.835-.55.551-.981 1.319-1.292 2.303l-.079.273v.369a6.1 6.1 0 00.703 1.722c.346.575.73 1.002 1.152 1.284.422.28.867.421 1.336.421.797 0 1.435-.325 1.916-.975.486-.65.729-1.515.729-2.593v-.15z" fill="#64646C"/><g opacity=".4" fill="#2B2B36"><path d="M71.846 97.4c-3.866 0-6.813-1.307-8.84-3.92-2-2.613-3-6.267-3-10.96 0-4.693 1.08-8.187 3.24-10.48 2.16-2.32 5.107-3.48 8.84-3.48 3.76 0 6.707 1.147 8.84 3.44 2.16 2.293 3.24 5.947 3.24 10.96 0 5.013-1.08 8.68-3.24 11-2.16 2.293-5.186 3.44-9.08 3.44zm-3.64-15.92v3.56c0 2.587.014 4.413.04 5.48.054 1.067.2 2.173.44 3.32.24 1.147.627 1.893 1.16 2.24.534.32 1.16.48 1.88.48s1.254-.04 1.6-.12c.374-.08.694-.24.96-.48.294-.267.534-.52.72-.76.187-.267.334-.667.44-1.2.134-.533.24-1.027.32-1.48.08-.453.134-1.12.16-2 .054-1.707.08-3.427.08-5.16v-3.52c0-5.227-.2-8.6-.6-10.12-.373-1.547-1.466-2.32-3.28-2.32-1.813 0-2.92.787-3.32 2.36-.4 1.573-.6 4.813-.6 9.72zM108.009 97.4c-2.08 0-3.72-.613-4.92-1.84-1.173-1.253-1.76-2.853-1.76-4.8 0-1.973.64-3.613 1.92-4.92 1.28-1.307 2.973-1.96 5.08-1.96 2.133 0 3.787.573 4.96 1.72 1.2 1.147 1.8 2.787 1.8 4.92 0 2.107-.653 3.787-1.96 5.04-1.307 1.227-3.013 1.84-5.12 1.84zm-1.52-11.2c-.107.64-.173 1.24-.2 1.8-.027.56-.04 1.467-.04 2.72 0 1.253.013 2.147.04 2.68.027.533.093 1.12.2 1.76.133.613.333 1.04.6 1.28.293.213.68.32 1.16.32.48 0 .853-.12 1.12-.36.293-.24.493-.693.6-1.36.16-.987.24-2.28.24-3.88s-.013-2.68-.04-3.24a10.84 10.84 0 00-.24-1.8c-.107-.613-.293-1.027-.56-1.24-.267-.24-.64-.36-1.12-.36-.48 0-.867.12-1.16.36-.267.213-.467.653-.6 1.32zM91.529 97l16.84-28h1.6l-16.8 28h-1.64zm1.72-14.92c-2.08 0-3.72-.613-4.92-1.84-1.173-1.253-1.76-2.853-1.76-4.8 0-1.973.64-3.613 1.92-4.92 1.28-1.307 2.973-1.96 5.08-1.96 2.133 0 3.787.573 4.96 1.72 1.2 1.147 1.8 2.787 1.8 4.92 0 2.107-.653 3.787-1.96 5.04-1.307 1.227-3.013 1.84-5.12 1.84zm-1.52-11.2c-.107.64-.174 1.24-.2 1.8-.027.56-.04 1.467-.04 2.72 0 1.253.013 2.147.04 2.68.026.533.093 1.12.2 1.76.133.613.333 1.04.6 1.28.293.213.68.32 1.16.32.48 0 .853-.12 1.12-.36.293-.24.493-.693.6-1.36.16-1.013.24-2.307.24-3.88 0-1.6-.013-2.68-.04-3.24a10.756 10.756 0 00-.24-1.8c-.107-.613-.293-1.027-.56-1.24-.267-.24-.64-.36-1.12-.36-.48 0-.867.12-1.16.36-.267.213-.467.653-.6 1.32z"/></g><g opacity=".5" fill="#2B2B36"><path d="M250.487 87.64c0-2.533-.227-4.307-.68-5.32-.427-1.013-1.413-1.52-2.96-1.52s-3.24.573-5.08 1.72l-.68-.32V69.44l.64-.48c1.627.24 4.093.533 7.4.88 3.307.32 5.213.48 5.72.48.533 0 .907-.12 1.12-.36.24-.267.44-.707.6-1.32l.6.08c-.4 4.08-.92 6.507-1.56 7.28-.347.4-.787.6-1.32.6s-1.653-.227-3.36-.68l-8.72-2.28-.2 7.76c1.947-1.04 3.96-1.56 6.04-1.56s3.813.24 5.2.72c1.387.453 2.453 1.093 3.2 1.92 1.413 1.573 2.12 3.48 2.12 5.72 0 2.853-1.027 5.107-3.08 6.76-2.027 1.627-4.827 2.44-8.4 2.44-1.92 0-3.693-.4-5.32-1.2a5.756 5.756 0 01-2.16-1.92c-.533-.853-.8-1.827-.8-2.92 0-1.12.307-2.04.92-2.76.64-.72 1.507-1.08 2.6-1.08 1.12 0 1.987.28 2.6.84.64.533.96 1.24.96 2.12 0 .853-.12 1.587-.36 2.2h-1.32c-.16.427-.24.933-.24 1.52 0 .56.227 1.107.68 1.64.453.507 1.12.76 2 .76.88 0 1.547-.133 2-.4.453-.293.8-.64 1.04-1.04s.427-1.027.56-1.88c.16-1.227.24-3.107.24-5.64zM282.409 97.4c-2.08 0-3.72-.613-4.92-1.84-1.174-1.253-1.76-2.853-1.76-4.8 0-1.973.64-3.613 1.92-4.92 1.28-1.307 2.973-1.96 5.08-1.96 2.133 0 3.786.573 4.96 1.72 1.2 1.147 1.8 2.787 1.8 4.92 0 2.107-.654 3.787-1.96 5.04-1.307 1.227-3.014 1.84-5.12 1.84zm-1.52-11.2c-.107.64-.174 1.24-.2 1.8-.027.56-.04 1.467-.04 2.72 0 1.253.013 2.147.04 2.68.026.533.093 1.12.2 1.76.133.613.333 1.04.6 1.28.293.213.68.32 1.16.32.48 0 .853-.12 1.12-.36.293-.24.493-.693.6-1.36.16-.987.24-2.28.24-3.88s-.014-2.68-.04-3.24a10.84 10.84 0 00-.24-1.8c-.107-.613-.294-1.027-.56-1.24-.267-.24-.64-.36-1.12-.36-.48 0-.867.12-1.16.36-.267.213-.467.653-.6 1.32zM265.929 97l16.84-28h1.6l-16.8 28h-1.64zm1.72-14.92c-2.08 0-3.72-.613-4.92-1.84-1.174-1.253-1.76-2.853-1.76-4.8 0-1.973.64-3.613 1.92-4.92 1.28-1.307 2.973-1.96 5.08-1.96 2.133 0 3.786.573 4.96 1.72 1.2 1.147 1.8 2.787 1.8 4.92 0 2.107-.654 3.787-1.96 5.04-1.307 1.227-3.014 1.84-5.12 1.84zm-1.52-11.2c-.107.64-.174 1.24-.2 1.8-.027.56-.04 1.467-.04 2.72 0 1.253.013 2.147.04 2.68.026.533.093 1.12.2 1.76.133.613.333 1.04.6 1.28.293.213.68.32 1.16.32.48 0 .853-.12 1.12-.36.293-.24.493-.693.6-1.36.16-1.013.24-2.307.24-3.88 0-1.6-.014-2.68-.04-3.24a10.84 10.84 0 00-.24-1.8c-.107-.613-.294-1.027-.56-1.24-.267-.24-.64-.36-1.12-.36-.48 0-.867.12-1.16.36-.267.213-.467.653-.6 1.32z"/></g><g opacity=".6" fill="#2B2B36"><path d="M404.694 70.04l-4.4.56-.08-.8 9.04-1.24h3.24v27.68h3.12V97h-15.12v-.76h4.2v-26.2zM429.647 97.4c-3.867 0-6.814-1.307-8.84-3.92-2-2.613-3-6.267-3-10.96 0-4.693 1.08-8.187 3.24-10.48 2.16-2.32 5.106-3.48 8.84-3.48 3.76 0 6.706 1.147 8.84 3.44 2.16 2.293 3.24 5.947 3.24 10.96 0 5.013-1.08 8.68-3.24 11-2.16 2.293-5.187 3.44-9.08 3.44zm-3.64-15.92v3.56c0 2.587.013 4.413.04 5.48.053 1.067.2 2.173.44 3.32.24 1.147.626 1.893 1.16 2.24.533.32 1.16.48 1.88.48s1.253-.04 1.6-.12c.373-.08.693-.24.96-.48a6.22 6.22 0 00.72-.76c.186-.267.333-.667.44-1.2.133-.533.24-1.027.32-1.48.08-.453.133-1.12.16-2 .053-1.707.08-3.427.08-5.16v-3.52c0-5.227-.2-8.6-.6-10.12-.374-1.547-1.467-2.32-3.28-2.32-1.814 0-2.92.787-3.32 2.36-.4 1.573-.6 4.813-.6 9.72zM465.809 97.4c-2.08 0-3.72-.613-4.92-1.84-1.173-1.253-1.76-2.853-1.76-4.8 0-1.973.64-3.613 1.92-4.92 1.28-1.307 2.973-1.96 5.08-1.96 2.133 0 3.787.573 4.96 1.72 1.2 1.147 1.8 2.787 1.8 4.92 0 2.107-.653 3.787-1.96 5.04-1.307 1.227-3.013 1.84-5.12 1.84zm-1.52-11.2c-.107.64-.173 1.24-.2 1.8-.027.56-.04 1.467-.04 2.72 0 1.253.013 2.147.04 2.68.027.533.093 1.12.2 1.76.133.613.333 1.04.6 1.28.293.213.68.32 1.16.32.48 0 .853-.12 1.12-.36.293-.24.493-.693.6-1.36.16-.987.24-2.28.24-3.88s-.013-2.68-.04-3.24a10.84 10.84 0 00-.24-1.8c-.107-.613-.293-1.027-.56-1.24-.267-.24-.64-.36-1.12-.36-.48 0-.867.12-1.16.36-.267.213-.467.653-.6 1.32zM449.329 97l16.84-28h1.6l-16.8 28h-1.64zm1.72-14.92c-2.08 0-3.72-.613-4.92-1.84-1.173-1.253-1.76-2.853-1.76-4.8 0-1.973.64-3.613 1.92-4.92 1.28-1.307 2.973-1.96 5.08-1.96 2.133 0 3.787.573 4.96 1.72 1.2 1.147 1.8 2.787 1.8 4.92 0 2.107-.653 3.787-1.96 5.04-1.307 1.227-3.013 1.84-5.12 1.84zm-1.52-11.2c-.107.64-.173 1.24-.2 1.8-.027.56-.04 1.467-.04 2.72 0 1.253.013 2.147.04 2.68.027.533.093 1.12.2 1.76.133.613.333 1.04.6 1.28.293.213.68.32 1.16.32.48 0 .853-.12 1.12-.36.293-.24.493-.693.6-1.36.16-1.013.24-2.307.24-3.88 0-1.6-.013-2.68-.04-3.24a10.84 10.84 0 00-.24-1.8c-.107-.613-.293-1.027-.56-1.24-.267-.24-.64-.36-1.12-.36-.48 0-.867.12-1.16.36-.267.213-.467.653-.6 1.32z"/></g><g opacity=".7" fill="#2B2B36"><path d="M583.065 70.04l-4.4.56-.08-.8 9.04-1.24h3.24v27.68h3.12V97h-15.12v-.76h4.2v-26.2zM607.298 87.64c0-2.533-.227-4.307-.68-5.32-.427-1.013-1.414-1.52-2.96-1.52-1.547 0-3.24.573-5.08 1.72l-.68-.32V69.44l.64-.48c1.626.24 4.093.533 7.4.88 3.306.32 5.213.48 5.72.48.533 0 .906-.12 1.12-.36.24-.267.44-.707.6-1.32l.6.08c-.4 4.08-.92 6.507-1.56 7.28-.347.4-.787.6-1.32.6-.534 0-1.654-.227-3.36-.68l-8.72-2.28-.2 7.76c1.946-1.04 3.96-1.56 6.04-1.56s3.813.24 5.2.72c1.386.453 2.453 1.093 3.2 1.92 1.413 1.573 2.12 3.48 2.12 5.72 0 2.853-1.027 5.107-3.08 6.76-2.027 1.627-4.827 2.44-8.4 2.44-1.92 0-3.694-.4-5.32-1.2a5.756 5.756 0 01-2.16-1.92c-.534-.853-.8-1.827-.8-2.92 0-1.12.306-2.04.92-2.76.64-.72 1.506-1.08 2.6-1.08 1.12 0 1.986.28 2.6.84.64.533.96 1.24.96 2.12 0 .853-.12 1.587-.36 2.2h-1.32c-.16.427-.24.933-.24 1.52 0 .56.226 1.107.68 1.64.453.507 1.12.76 2 .76.88 0 1.546-.133 2-.4.453-.293.8-.64 1.04-1.04s.426-1.027.56-1.88c.16-1.227.24-3.107.24-5.64zM639.219 97.4c-2.08 0-3.72-.613-4.92-1.84-1.173-1.253-1.76-2.853-1.76-4.8 0-1.973.64-3.613 1.92-4.92 1.28-1.307 2.974-1.96 5.08-1.96 2.134 0 3.787.573 4.96 1.72 1.2 1.147 1.8 2.787 1.8 4.92 0 2.107-.653 3.787-1.96 5.04-1.306 1.227-3.013 1.84-5.12 1.84zm-1.52-11.2c-.106.64-.173 1.24-.2 1.8-.026.56-.04 1.467-.04 2.72 0 1.253.014 2.147.04 2.68.027.533.094 1.12.2 1.76.134.613.334 1.04.6 1.28.294.213.68.32 1.16.32.48 0 .854-.12 1.12-.36.294-.24.494-.693.6-1.36.16-.987.24-2.28.24-3.88s-.013-2.68-.04-3.24a10.633 10.633 0 00-.24-1.8c-.106-.613-.293-1.027-.56-1.24-.266-.24-.64-.36-1.12-.36-.48 0-.866.12-1.16.36-.266.213-.466.653-.6 1.32zM622.739 97l16.84-28h1.6l-16.8 28h-1.64zm1.72-14.92c-2.08 0-3.72-.613-4.92-1.84-1.173-1.253-1.76-2.853-1.76-4.8 0-1.973.64-3.613 1.92-4.92 1.28-1.307 2.974-1.96 5.08-1.96 2.134 0 3.787.573 4.96 1.72 1.2 1.147 1.8 2.787 1.8 4.92 0 2.107-.653 3.787-1.96 5.04-1.306 1.227-3.013 1.84-5.12 1.84zm-1.52-11.2c-.106.64-.173 1.24-.2 1.8-.026.56-.04 1.467-.04 2.72 0 1.253.014 2.147.04 2.68.027.533.094 1.12.2 1.76.134.613.334 1.04.6 1.28.294.213.68.32 1.16.32.48 0 .854-.12 1.12-.36.294-.24.494-.693.6-1.36.16-1.013.24-2.307.24-3.88 0-1.6-.013-2.68-.04-3.24a10.633 10.633 0 00-.24-1.8c-.106-.613-.293-1.027-.56-1.24-.266-.24-.64-.36-1.12-.36-.48 0-.866.12-1.16.36-.266.213-.466.653-.6 1.32z"/></g><path d="M749.797 74.68c0-1.787.774-3.253 2.32-4.4 1.547-1.147 3.867-1.72 6.96-1.72 3.094 0 5.467.573 7.12 1.72 1.68 1.147 2.52 2.867 2.52 5.16 0 .747-.066 1.427-.2 2.04-.133.587-.44 1.213-.92 1.88-.453.64-.906 1.213-1.36 1.72-.426.507-1.173 1.173-2.24 2-1.6 1.28-3.28 2.56-5.04 3.84a707.487 707.487 0 00-3.08 2.2l-2.44 1.76h9.6c1.84 0 3.147-.4 3.92-1.2.774-.8 1.32-2.053 1.64-3.76h.68l-.4 11.08h-18.8v-4.64l4.04-3.72c2.747-2.507 4.694-4.733 5.84-6.68 1.147-1.973 1.72-4.133 1.72-6.48 0-2.373-.253-3.987-.76-4.84-.506-.88-1.36-1.32-2.56-1.32s-2.04.307-2.52.92-.72 1.2-.72 1.76.08 1.053.24 1.48h1.2c.214.56.32 1.24.32 2.04 0 .773-.333 1.453-1 2.04-.666.56-1.546.84-2.64.84-1.093 0-1.946-.347-2.56-1.04-.586-.72-.88-1.613-.88-2.68zM782.788 87.64c0-2.533-.227-4.307-.68-5.32-.427-1.013-1.414-1.52-2.96-1.52-1.547 0-3.24.573-5.08 1.72l-.68-.32V69.44l.64-.48c1.626.24 4.093.533 7.4.88 3.306.32 5.213.48 5.72.48.533 0 .906-.12 1.12-.36.24-.267.44-.707.6-1.32l.6.08c-.4 4.08-.92 6.507-1.56 7.28-.347.4-.787.6-1.32.6-.534 0-1.654-.227-3.36-.68l-8.72-2.28-.2 7.76c1.946-1.04 3.96-1.56 6.04-1.56s3.813.24 5.2.72c1.386.453 2.453 1.093 3.2 1.92 1.413 1.573 2.12 3.48 2.12 5.72 0 2.853-1.027 5.107-3.08 6.76-2.027 1.627-4.827 2.44-8.4 2.44-1.92 0-3.694-.4-5.32-1.2a5.756 5.756 0 01-2.16-1.92c-.534-.853-.8-1.827-.8-2.92 0-1.12.306-2.04.92-2.76.64-.72 1.506-1.08 2.6-1.08 1.12 0 1.986.28 2.6.84.64.533.96 1.24.96 2.12 0 .853-.12 1.587-.36 2.2h-1.32c-.16.427-.24.933-.24 1.52 0 .56.226 1.107.68 1.64.453.507 1.12.76 2 .76.88 0 1.546-.133 2-.4.453-.293.8-.64 1.04-1.04s.426-1.027.56-1.88c.16-1.227.24-3.107.24-5.64zM814.709 97.4c-2.08 0-3.72-.613-4.92-1.84-1.173-1.253-1.76-2.853-1.76-4.8 0-1.973.64-3.613 1.92-4.92 1.28-1.307 2.974-1.96 5.08-1.96 2.134 0 3.787.573 4.96 1.72 1.2 1.147 1.8 2.787 1.8 4.92 0 2.107-.653 3.787-1.96 5.04-1.306 1.227-3.013 1.84-5.12 1.84zm-1.52-11.2c-.106.64-.173 1.24-.2 1.8-.026.56-.04 1.467-.04 2.72 0 1.253.014 2.147.04 2.68.027.533.094 1.12.2 1.76.134.613.334 1.04.6 1.28.294.213.68.32 1.16.32.48 0 .854-.12 1.12-.36.294-.24.494-.693.6-1.36.16-.987.24-2.28.24-3.88s-.013-2.68-.04-3.24a10.633 10.633 0 00-.24-1.8c-.106-.613-.293-1.027-.56-1.24-.266-.24-.64-.36-1.12-.36-.48 0-.866.12-1.16.36-.266.213-.466.653-.6 1.32zM798.229 97l16.84-28h1.6l-16.8 28h-1.64zm1.72-14.92c-2.08 0-3.72-.613-4.92-1.84-1.173-1.253-1.76-2.853-1.76-4.8 0-1.973.64-3.613 1.92-4.92 1.28-1.307 2.974-1.96 5.08-1.96 2.134 0 3.787.573 4.96 1.72 1.2 1.147 1.8 2.787 1.8 4.92 0 2.107-.653 3.787-1.96 5.04-1.306 1.227-3.013 1.84-5.12 1.84zm-1.52-11.2c-.106.64-.173 1.24-.2 1.8-.026.56-.04 1.467-.04 2.72 0 1.253.014 2.147.04 2.68.027.533.094 1.12.2 1.76.134.613.334 1.04.6 1.28.294.213.68.32 1.16.32.48 0 .854-.12 1.12-.36.294-.24.494-.693.6-1.36.16-1.013.24-2.307.24-3.88 0-1.6-.013-2.68-.04-3.24a10.633 10.633 0 00-.24-1.8c-.106-.613-.293-1.027-.56-1.24-.266-.24-.64-.36-1.12-.36-.48 0-.866.12-1.16.36-.266.213-.466.653-.6 1.32z" fill="#2B2B36" fill-opacity=".99"/><path d="M346.791 0v147M173.392 0v147M520.189 0v147M693.587 0v147" stroke="#000" stroke-opacity=".05"/><defs><linearGradient id="paint0_linear" x1="765.278" y1="70.732" x2="89.315" y2="141.258" gradientUnits="userSpaceOnUse"><stop stop-color="#00C26F"/><stop offset="1" stop-color="#00C26F" stop-opacity="0"/></linearGradient></defs></svg>
