<svg width="58" height="19" viewBox="0 0 58 19" fill="none" xmlns="http://www.w3.org/2000/svg">
<g clip-path="url(#clip0_3416_10171)">
<path d="M40.6234 20.5541C42.8969 20.5541 43.967 19.7086 44.9016 17.146L48.9964 5.95328H46.6256L43.8797 14.6127H43.8316L41.0857 5.965H38.6477L42.598 16.6182L42.3864 17.2662C42.237 18.1937 41.3826 18.8554 40.4208 18.787C40.2373 18.787 39.8813 18.7684 39.7368 18.7498V20.5091C40.0307 20.5482 40.3275 20.5668 40.6234 20.5658V20.5541ZM32.7228 14.9489C31.4792 14.9489 30.6899 14.3625 30.6899 13.475C30.6899 12.5553 31.4511 12.0197 32.9063 11.9347L35.4977 11.7754V12.6023C35.4405 13.9647 34.2602 15.0251 32.8622 14.9694C32.815 14.9675 32.7689 14.9636 32.7228 14.9596V14.9489ZM32.097 16.6857C33.508 16.7228 34.8278 16.0064 35.5368 14.8169H35.585V16.5762H37.7431V9.28998C37.7431 7.17693 36.0092 5.81547 33.3395 5.81547C30.8634 5.81547 29.0322 7.1955 28.965 9.09256H31.066C31.3167 8.1279 32.2574 7.49164 33.2723 7.59915C34.6984 7.59915 35.4977 8.24714 35.4977 9.43952V10.2468L32.5894 10.4159C29.8816 10.5752 28.4174 11.6552 28.4174 13.5337C28.4154 15.4386 29.9278 16.6964 32.096 16.6964L32.097 16.6857ZM19.5901 3.85L22.2778 3.85C24.3016 3.85 25.458 4.90164 25.458 6.75178C25.458 8.60192 24.3016 9.66236 22.2688 9.66236L19.5901 9.66236L19.5901 3.85ZM17.2585 1.93437L17.2585 16.5733H19.5901V11.5829L22.8184 11.5829C25.4479 11.7207 27.6934 9.75521 27.8348 7.19257C27.8428 7.04694 27.8438 6.90229 27.8378 6.75667C27.9621 4.22237 25.9554 2.07023 23.3549 1.94806C23.2015 1.94121 23.0491 1.94219 22.8956 1.94903L17.2585 1.93437ZM9.51931 4.66609C8.17948 4.59084 7.0332 5.40791 6.39737 5.40791C5.76155 5.40791 4.77874 4.70421 3.7187 4.72376C2.31468 4.75894 1.03502 5.5164 0.356072 6.71464C-1.08907 9.13752 -0.0200028 12.7244 1.377 14.6958C2.06096 15.6731 2.88131 16.7433 3.95939 16.7052C4.98032 16.6681 5.38547 16.0572 6.61901 16.0572C7.85254 16.0572 8.21859 16.7052 9.29768 16.6857C10.4149 16.6671 11.1189 15.7083 11.8049 14.7309C12.2882 14.039 12.6643 13.2815 12.9221 12.483C11.6053 11.922 10.7518 10.6583 10.7448 9.25773C10.7649 8.02235 11.4288 6.88275 12.5079 6.23476C11.8199 5.28281 10.7157 4.69835 9.52132 4.6573L9.51931 4.66609ZM8.68292 3.37305C8.09624 4.09336 7.19867 4.50678 6.25496 4.49017C6.19479 3.59295 6.50769 2.7104 7.12245 2.03993C7.7342 1.34796 8.59667 0.91401 9.52934 0.828979C9.59553 1.75161 9.29166 2.66251 8.68091 3.37011" fill="#BFBFC3"/>
</g>
<defs>
<clipPath id="clip0_3416_10171">
<rect width="57" height="18" fill="white" transform="translate(0.00195312 0.5)"/>
</clipPath>
</defs>
</svg>
