<svg width="44" height="17" viewBox="0 0 44 17" fill="none" xmlns="http://www.w3.org/2000/svg">
<path fill-rule="evenodd" clip-rule="evenodd" d="M19.8341 13.2976V8.30874H22.5158C23.6146 8.30874 24.5422 7.9552 25.2983 7.25793L25.4797 7.08116C26.8609 5.63752 26.7702 3.38859 25.2983 2.05298C24.5623 1.3459 23.5542 0.96289 22.5158 0.982531H18.2109V13.2976H19.8341ZM19.832 6.79676V2.49482H22.5545C23.1393 2.49482 23.6939 2.7109 24.1073 3.10377C24.9845 3.9288 25.0047 5.30385 24.1577 6.15835C23.7443 6.58068 23.1595 6.81641 22.5545 6.79676H19.832ZM33.0518 5.52932C32.3562 4.91062 31.4085 4.59636 30.2088 4.59636C28.6663 4.59636 27.507 5.14632 26.7408 6.23641L28.1723 7.11045C28.6966 6.36408 29.4124 5.99089 30.3197 5.99089C30.8944 5.99089 31.4489 6.19713 31.8824 6.57031C32.3058 6.92386 32.5477 7.43453 32.5477 7.97467V8.33803C31.9227 8.00413 31.1363 7.82736 30.1685 7.82736C29.0394 7.82736 28.132 8.08269 27.4566 8.60319C26.7811 9.12368 26.4383 9.81113 26.4383 10.6852C26.4182 11.4806 26.771 12.2368 27.3961 12.7475C28.0312 13.2975 28.8377 13.5724 29.7854 13.5724C30.9044 13.5724 31.7916 13.0912 32.4671 12.1288H32.5377V13.2975H34.0902V8.10233C34.0902 7.01224 33.7474 6.14802 33.0518 5.52932ZM28.6477 11.7461C28.3149 11.5104 28.1133 11.1273 28.1133 10.7148C28.1133 10.2532 28.3351 9.87013 28.7687 9.56565C29.2123 9.26118 29.7669 9.10403 30.4223 9.10403C31.3298 9.09421 32.0356 9.29064 32.5398 9.68351C32.5398 10.3514 32.2675 10.9309 31.7331 11.422C31.2491 11.8934 30.5937 12.1586 29.9081 12.1586C29.4543 12.1684 29.0107 12.0211 28.6477 11.7461ZM37.5773 17L43.0012 4.87148H41.2369L38.7266 10.921H38.6964L36.1256 4.87148H34.3613L37.9201 12.7575L35.9038 17H37.5773Z" fill="#BFBFC3"/>
<path d="M14.2242 7.22854C14.2242 6.74727 14.1838 6.266 14.1032 5.79456H7.25781V8.51519H11.1795C11.0182 9.38933 10.494 10.1751 9.72779 10.6662V12.4341H12.0667C13.4378 11.2064 14.2242 9.38933 14.2242 7.22854Z" fill="#BFBFC3"/>
<path d="M7.26369 14.1428C9.21951 14.1428 10.8729 13.5142 12.0726 12.4338L9.73367 10.6659C9.07837 11.098 8.2416 11.3436 7.26369 11.3436C5.36836 11.3436 3.76539 10.0962 3.19074 8.42651H0.78125V10.2534C2.0112 12.6401 4.52151 14.1428 7.26369 14.1428Z" fill="#BFBFC3"/>
<path d="M3.1888 8.42702C2.8863 7.55288 2.8863 6.60016 3.1888 5.7162V3.89917H0.778924C-0.259641 5.89299 -0.259641 8.25022 0.778924 10.244L3.1888 8.42702Z" fill="#BFBFC3"/>
<path d="M7.26369 2.79964C8.30209 2.77999 9.30016 3.16304 10.0462 3.86039L12.123 1.8371C10.8023 0.638844 9.06828 -0.0192161 7.26369 0.000427454C4.52151 0.000427454 2.0112 1.51298 0.78125 3.89968L3.19074 5.72653C3.76539 4.04701 5.36836 2.79964 7.26369 2.79964Z" fill="#BFBFC3"/>
</svg>
