<svg width="29" height="21" viewBox="0 0 29 21" fill="none" xmlns="http://www.w3.org/2000/svg">
<path d="M27.1535 20.6969V20.7504H27.206C27.2235 20.7504 27.2235 20.7504 27.241 20.7504L27.2585 20.7326C27.2585 20.7147 27.2585 20.7147 27.241 20.7147C27.241 20.7147 27.2235 20.7147 27.206 20.7147H27.1535V20.6969ZM27.206 20.6612C27.241 20.6612 27.2585 20.6612 27.276 20.6791C27.2935 20.6969 27.2935 20.7147 27.2935 20.7326C27.2935 20.7504 27.2935 20.7682 27.276 20.7682C27.2585 20.786 27.241 20.7861 27.2235 20.7861L27.2935 20.8752H27.241L27.171 20.7861H27.1535V20.8752H27.101V20.6612H27.206ZM27.1885 20.9465C27.206 20.9465 27.241 20.9465 27.2585 20.9287C27.276 20.9109 27.2935 20.9109 27.311 20.893C27.3285 20.8752 27.346 20.8574 27.346 20.8395C27.3635 20.8217 27.3635 20.786 27.3635 20.7682C27.3635 20.7504 27.3635 20.7147 27.346 20.6969C27.3285 20.6791 27.3285 20.6612 27.311 20.6434C27.2935 20.6256 27.276 20.6078 27.2585 20.6078C27.241 20.5899 27.206 20.5899 27.1885 20.5899C27.171 20.5899 27.136 20.5899 27.1185 20.6078C27.101 20.6256 27.0835 20.6256 27.066 20.6434C27.0485 20.6612 27.031 20.6791 27.031 20.6969C27.0135 20.7147 27.0135 20.7504 27.0135 20.7682C27.0135 20.786 27.0135 20.8217 27.031 20.8395C27.0485 20.8574 27.0485 20.8752 27.066 20.893C27.0835 20.9109 27.101 20.9287 27.1185 20.9287C27.1535 20.9465 27.171 20.9465 27.1885 20.9465ZM27.1885 20.5364C27.2235 20.5364 27.2585 20.5364 27.276 20.5543C27.311 20.5721 27.3285 20.5899 27.346 20.6078C27.3635 20.6256 27.381 20.6612 27.3985 20.6791C27.416 20.7147 27.416 20.7326 27.416 20.7682C27.416 20.8039 27.416 20.8217 27.3985 20.8574C27.381 20.893 27.3635 20.9109 27.346 20.9287C27.3285 20.9465 27.2935 20.9643 27.276 20.9822C27.241 21 27.2235 21 27.1885 21C27.1535 21 27.1185 21 27.101 20.9822C27.0835 20.9643 27.0485 20.9465 27.031 20.9287C27.0135 20.9109 26.996 20.8752 26.9785 20.8574C26.961 20.8217 26.961 20.8039 26.961 20.7682C26.961 20.7326 26.961 20.7147 26.9785 20.6791C26.996 20.6434 27.0135 20.6256 27.031 20.6078C27.0485 20.5899 27.0835 20.5721 27.101 20.5543C27.136 20.5364 27.1535 20.5364 27.1885 20.5364ZM5.76851 19.6985C5.76851 19.2884 6.03101 18.9496 6.46851 18.9496C6.88851 18.9496 7.16851 19.2706 7.16851 19.6985C7.16851 20.1264 6.88851 20.4473 6.46851 20.4473C6.03101 20.4473 5.76851 20.1085 5.76851 19.6985ZM7.62352 19.6985V18.5217H7.11602V18.807C6.95852 18.593 6.71352 18.4682 6.39852 18.4682C5.75102 18.4682 5.24351 18.9853 5.24351 19.6985C5.24351 20.4116 5.75102 20.9287 6.39852 20.9287C6.73102 20.9287 6.95852 20.8039 7.11602 20.5899V20.8752H7.62352V19.6985ZM24.4935 19.6985C24.4935 19.2884 24.756 18.9496 25.1935 18.9496C25.6135 18.9496 25.8935 19.2706 25.8935 19.6985C25.8935 20.1264 25.6135 20.4473 25.1935 20.4473C24.7735 20.4473 24.4935 20.1085 24.4935 19.6985ZM26.366 19.6985V17.5946H25.8585V18.807C25.701 18.593 25.456 18.4682 25.141 18.4682C24.4935 18.4682 23.986 18.9853 23.986 19.6985C23.986 20.4116 24.4935 20.9287 25.141 20.9287C25.4735 20.9287 25.701 20.8039 25.8585 20.5899V20.8752H26.366V19.6985ZM13.8185 18.9318C14.1335 18.9318 14.3435 19.1457 14.396 19.5023H13.206C13.2585 19.1636 13.4685 18.9318 13.8185 18.9318ZM13.836 18.4682C13.171 18.4682 12.6985 18.9675 12.6985 19.6985C12.6985 20.4473 13.1885 20.9287 13.871 20.9287C14.221 20.9287 14.536 20.8395 14.816 20.6078L14.571 20.2333C14.3785 20.3938 14.1335 20.4829 13.906 20.4829C13.591 20.4829 13.2935 20.3225 13.2235 19.9124H14.921C14.921 19.8411 14.9385 19.7876 14.9385 19.7163C14.921 18.9675 14.4835 18.4682 13.836 18.4682ZM19.856 19.6985C19.856 19.2884 20.1185 18.9496 20.556 18.9496C20.976 18.9496 21.256 19.2706 21.256 19.6985C21.256 20.1264 20.976 20.4473 20.556 20.4473C20.136 20.4473 19.856 20.1085 19.856 19.6985ZM21.7285 19.6985V18.5217H21.221V18.807C21.0635 18.593 20.8185 18.4682 20.5035 18.4682C19.856 18.4682 19.3485 18.9853 19.3485 19.6985C19.3485 20.4116 19.856 20.9287 20.5035 20.9287C20.836 20.9287 21.0635 20.8039 21.221 20.5899V20.8752H21.7285V19.6985ZM17.0385 19.6985C17.0385 20.4116 17.5285 20.9287 18.2635 20.9287C18.6135 20.9287 18.841 20.8574 19.086 20.6434L18.841 20.2333C18.6485 20.376 18.456 20.4473 18.246 20.4473C17.8435 20.4473 17.546 20.1442 17.546 19.6985C17.546 19.2527 17.8435 18.9496 18.246 18.9496C18.456 18.9496 18.666 19.0209 18.841 19.1636L19.086 18.7535C18.841 18.5574 18.6135 18.4682 18.2635 18.4682C17.5285 18.4682 17.0385 18.9853 17.0385 19.6985ZM23.4785 18.4682C23.1985 18.4682 23.006 18.6109 22.866 18.807V18.5217H22.376V20.8574H22.8835V19.538C22.8835 19.1457 23.041 18.9318 23.3735 18.9318C23.4785 18.9318 23.5835 18.9496 23.6885 18.9853L23.846 18.5039C23.7235 18.4861 23.5835 18.4682 23.4785 18.4682ZM10.091 18.7178C9.84602 18.5574 9.51352 18.4682 9.14602 18.4682C8.56852 18.4682 8.18352 18.7535 8.18352 19.2171C8.18352 19.5915 8.46352 19.8411 8.97102 19.9124L9.19852 19.9481C9.47852 19.9837 9.60102 20.055 9.60102 20.1977C9.60102 20.376 9.42602 20.4829 9.07602 20.4829C8.72602 20.4829 8.48101 20.376 8.30601 20.2333L8.07852 20.6256C8.35852 20.8395 8.69102 20.9287 9.07602 20.9287C9.74102 20.9287 10.126 20.6078 10.126 20.162C10.126 19.7519 9.82852 19.538 9.32102 19.4667L9.09351 19.431C8.88351 19.3954 8.70852 19.3597 8.70852 19.1992C8.70852 19.0209 8.86602 18.9318 9.14602 18.9318C9.44352 18.9318 9.72352 19.0388 9.86352 19.1279L10.091 18.7178ZM16.531 18.4682C16.251 18.4682 16.0585 18.6109 15.9185 18.807V18.5217H15.4285V20.8574H15.936V19.538C15.936 19.1457 16.0935 18.9318 16.426 18.9318C16.531 18.9318 16.636 18.9496 16.741 18.9853L16.8985 18.5039C16.776 18.4861 16.636 18.4682 16.531 18.4682ZM12.2785 18.5217H11.456V17.8085H10.9485V18.5217H10.476V18.9853H10.9485V20.055C10.9485 20.5899 11.1585 20.9287 11.7535 20.9287C11.9635 20.9287 12.226 20.8574 12.3835 20.7504L12.2435 20.3225C12.086 20.4116 11.9285 20.4473 11.806 20.4473C11.561 20.4473 11.4735 20.2868 11.4735 20.055V19.0031H12.296V18.5217H12.2785ZM4.80601 20.8752V19.4132C4.80601 18.8605 4.45602 18.4861 3.89602 18.4861C3.59852 18.4861 3.30102 18.5752 3.09102 18.8961C2.93352 18.6287 2.68852 18.4861 2.33852 18.4861C2.09352 18.4861 1.84852 18.5574 1.67352 18.8248V18.5395H1.16602V20.8752H1.67352V19.5737C1.67352 19.1636 1.90102 18.9496 2.23352 18.9496C2.56602 18.9496 2.74102 19.1636 2.74102 19.5737V20.8752H3.24852V19.5737C3.24852 19.1636 3.47602 18.9496 3.80852 18.9496C4.14102 18.9496 4.31602 19.1636 4.31602 19.5737V20.8752H4.80601Z" fill="#E6E7E8"/>
<path d="M17.4993 14.7567H9.91602V1.70264H17.4993V14.7567Z" fill="#95959C"/>
<path d="M10.6945 8.24653C10.6945 5.61435 11.9895 3.28204 14.002 1.76603C12.532 0.666516 10.677 0.000134468 8.64696 0.000134468C3.86946 0.000134468 0.00195312 3.68186 0.00195312 8.22987C0.00195312 12.7779 3.86946 16.4596 8.64696 16.4596C10.6595 16.4596 12.5145 15.7932 14.002 14.6937C11.9895 13.211 10.6945 10.8787 10.6945 8.24653Z" fill="#BFBFC3"/>
<path d="M28 8.24649C28 12.7853 24.1325 16.4596 19.355 16.4596C17.3425 16.4596 15.4875 15.7946 14 14.6973C16.0125 13.1843 17.3075 10.8567 17.3075 8.22986C17.3075 5.603 16.0125 3.2754 14 1.76246C15.47 0.665159 17.325 0.000134468 19.355 0.000134468C24.1325 0.0167606 28 3.70767 28 8.24649Z" fill="#B0B0B1"/>
</svg>
