<svg width="20" height="56" viewBox="0 0 20 56" fill="none" xmlns="http://www.w3.org/2000/svg">
<path d="M1.40311 6.69772L1.40312 6.69773C1.52453 6.95102 1.80097 7.32036 2.17315 7.68615C2.54521 8.05182 2.91997 8.32257 3.17674 8.4405L3.17678 8.44051C3.94746 8.7945 4.34078 8.87777 7.26754 8.87777H9.98595H10.986V9.87777V30.675C10.986 38.1106 10.9948 43.3486 11.0147 46.7788C11.0246 48.4944 11.0373 49.7543 11.053 50.6094C11.0608 51.0376 11.0693 51.3591 11.0783 51.5835C11.0866 51.7893 11.0941 51.8612 11.0925 51.8615C11.0922 51.8615 11.0917 51.8597 11.0909 51.8564C11.2515 52.5933 11.5879 53.1988 12.1779 53.7758L11.5173 54.4515L12.178 53.7758C13.7743 55.3366 16.216 55.3346 17.7984 53.7804C18.3811 53.208 18.7173 52.6083 18.88 51.8877C18.8811 51.8719 18.8829 51.843 18.885 51.797C18.8897 51.6954 18.8945 51.5497 18.8993 51.3595C18.9087 50.9804 18.9176 50.4439 18.9258 49.7701C18.9423 48.4234 18.956 46.5413 18.967 44.3006C18.989 39.8198 19 33.9128 19 28.005C19 22.0972 18.989 16.1901 18.967 11.7094C18.956 9.46869 18.9423 7.58655 18.9258 6.23991C18.9176 5.56606 18.9087 5.02958 18.8993 4.65046C18.8945 4.46024 18.8897 4.31456 18.885 4.21292C18.8829 4.16733 18.8811 4.1385 18.88 4.1226C18.5451 2.65571 17.2571 1.41242 15.7929 1.13947C15.795 1.13986 15.794 1.13976 15.7895 1.13925C15.776 1.13771 15.7298 1.13248 15.636 1.12609C15.5247 1.11851 15.3772 1.11119 15.1953 1.10436C14.8322 1.09073 14.353 1.07983 13.7932 1.07169C12.6749 1.05544 11.2536 1.0505 9.83499 1.05583C8.41632 1.06116 7.00558 1.07674 5.90821 1.10131C5.35878 1.11362 4.89318 1.12807 4.54643 1.14431C4.37246 1.15247 4.23493 1.16078 4.13472 1.16892C4.06141 1.17487 4.02829 1.17929 4.02201 1.17987C3.29837 1.35576 2.75943 1.65657 2.17289 2.2315L1.40311 6.69772ZM1.40311 6.69772C0.658911 5.14517 0.961803 3.41881 2.17284 2.23154L1.40311 6.69772Z" stroke="#D3D7DA" stroke-width="2"/>
</svg>
