<svg width="36" height="21" viewBox="0 0 36 21" fill="none" xmlns="http://www.w3.org/2000/svg">
<path fill-rule="evenodd" clip-rule="evenodd" d="M20.4473 9.89463H22.0122C22.5084 9.87558 22.8102 9.83494 22.9188 9.77128C23.0672 9.68435 23.1668 9.51036 23.2163 9.24932C23.248 9.07558 23.2639 8.81731 23.2639 8.47416C23.2639 8.05384 23.2324 7.74228 23.1691 7.53875C23.0788 7.25372 22.8626 7.08009 22.5201 7.01703C22.4524 7.00751 22.2903 7.00244 22.0334 7.00244H20.4473V9.89463ZM17.9395 14.7662V4.82764H22.6164C23.2579 4.82764 23.7474 4.88346 24.0837 4.99499C24.8529 5.25181 25.369 5.77763 25.6334 6.57233C25.7698 6.98939 25.8381 7.61733 25.8381 8.4558C25.8381 9.46391 25.7624 10.1884 25.6127 10.6295C25.3127 11.5017 24.6952 12.0041 23.7628 12.1344C23.6531 12.1539 23.1866 12.1714 22.3631 12.1854L21.9464 12.2002H20.4497V14.7662H17.9395ZM5.33372 7.99781H7.66906C7.68411 7.77825 7.69169 7.61403 7.69169 7.50419C7.69169 6.16498 7.18362 5.35003 6.16735 5.05909C5.75093 4.94008 5.05241 4.88003 4.07224 4.88003C3.44965 4.88003 2.88364 4.90427 2.37341 4.95165C1.76021 5.00422 1.25644 5.18014 0.862763 5.47976C0.594014 5.67497 0.39927 5.96037 0.278418 6.33632C0.157679 6.71214 0.0972532 7.2118 0.0972532 7.83492C0.0972532 8.65313 0.209053 9.26479 0.432538 9.66908C0.686803 10.1449 1.19635 10.4582 1.96095 10.6106C2.25132 10.6636 2.7698 10.7182 3.51619 10.775C4.44566 10.8416 4.96641 10.8942 5.07833 10.932C5.37763 11.0275 5.52756 11.2937 5.52756 11.7312C5.52756 11.9266 5.50979 12.0862 5.47404 12.2096C5.40671 12.4099 5.26583 12.5548 5.05117 12.6447C4.93054 12.6927 4.65093 12.7166 4.21278 12.7166H3.35426C3.12568 12.7113 2.93128 12.6665 2.77026 12.5813C2.53794 12.4577 2.4215 12.1801 2.4215 11.7486L2.42128 11.5419H0.0859375C0.0859375 12.3506 0.141498 12.9283 0.25375 13.2752C0.455283 13.8983 0.871702 14.3121 1.50335 14.5164C2.01799 14.6831 2.92947 14.7661 4.23734 14.7661C5.02084 14.7661 5.60337 14.7278 5.98415 14.6514C6.89303 14.4707 7.47715 14.0403 7.73718 13.359C7.88067 12.9876 7.95229 12.4016 7.95229 11.6015C7.95229 11.2544 7.93668 10.942 7.90522 10.6659C7.85147 10.2043 7.68298 9.83052 7.40043 9.54452C7.04138 9.17798 6.46269 8.95179 5.66448 8.86606C5.41304 8.83748 4.78265 8.7872 3.77328 8.71583L3.30232 8.68038C3.09558 8.66615 2.92981 8.61852 2.80432 8.5375C2.62915 8.42332 2.54179 8.18506 2.54179 7.82322C2.54179 7.42352 2.64046 7.16393 2.83758 7.04456C3.03482 6.92556 3.43902 6.86611 4.04871 6.86611C4.6765 6.86611 5.06011 6.96945 5.19906 7.17587C5.28868 7.31537 5.33372 7.58943 5.33372 7.99781ZM0.09375 16.7371L0.443859 16.6995C0.464906 16.8253 0.50768 16.9175 0.572066 16.9766C0.636566 17.0356 0.723471 17.065 0.832894 17.065C0.948767 17.065 1.03601 17.0388 1.09485 16.9865C1.15358 16.934 1.18289 16.8728 1.18289 16.8026C1.18289 16.7576 1.17056 16.7194 1.146 16.6877C1.12133 16.6561 1.07833 16.6287 1.01689 16.6052C0.974793 16.5899 0.879062 16.5624 0.729581 16.5229C0.537101 16.4722 0.402217 16.4098 0.324591 16.3356C0.215507 16.2315 0.160965 16.1044 0.160965 15.9544C0.160965 15.858 0.186652 15.7677 0.238139 15.6838C0.289512 15.5998 0.363744 15.5357 0.460493 15.4919C0.557356 15.448 0.674247 15.4259 0.811168 15.4259C1.03477 15.4259 1.20303 15.4784 1.31608 15.583C1.42912 15.6878 1.48841 15.8275 1.49407 16.0024L1.13344 16.0174C1.11805 15.9198 1.08501 15.8496 1.03431 15.8067C0.983733 15.7639 0.907804 15.7424 0.806528 15.7424C0.701971 15.7424 0.620271 15.7653 0.56109 15.8111C0.522956 15.8404 0.503945 15.8797 0.503945 15.9289C0.503945 15.9739 0.521824 16.0122 0.557469 16.0443C0.602732 16.0848 0.712834 16.1272 0.887775 16.1709C1.0626 16.2148 1.19194 16.2603 1.27579 16.3075C1.35953 16.3547 1.42516 16.4192 1.47257 16.5009C1.51987 16.5829 1.54364 16.684 1.54364 16.8043C1.54364 16.9135 1.51523 17.0157 1.45843 17.1109C1.40162 17.2062 1.32139 17.2769 1.21763 17.3232C1.11386 17.3695 0.984525 17.3928 0.829612 17.3928C0.604203 17.3928 0.431072 17.337 0.31022 17.2253C0.189481 17.1137 0.117287 16.951 0.09375 16.7371ZM1.91992 15.9832H2.2629L2.2629 17.3584H1.91992V15.9832ZM1.91992 15.4597H2.2629V15.7952H1.91992V15.4597ZM3.52008 17.3592H3.86306L3.86306 16.5028C3.86306 16.3964 3.85673 16.3147 3.84417 16.2577C3.8316 16.2005 3.80931 16.1495 3.77729 16.1045C3.74527 16.0596 3.69808 16.0225 3.63573 15.9936C3.57338 15.9647 3.50447 15.9501 3.4291 15.9501C3.25824 15.9501 3.11634 16.0287 3.00375 16.186V15.984H2.68555L2.68555 17.3592H3.02853L3.02853 16.735C3.02853 16.5809 3.03713 16.4754 3.05455 16.4184C3.07187 16.3612 3.10389 16.3154 3.15074 16.2808C3.19758 16.2462 3.25043 16.2288 3.30938 16.2288C3.35533 16.2288 3.3947 16.241 3.42741 16.2651C3.46011 16.2894 3.48365 16.3235 3.49824 16.3671C3.51273 16.4108 3.52008 16.507 3.52008 16.6558L3.52008 17.3592ZM4.55664 16.6417C4.55664 16.7881 4.58289 16.8953 4.63562 16.9632C4.68824 17.0313 4.7532 17.0652 4.83048 17.0652C4.9132 17.0652 4.98313 17.0303 5.04028 16.9606C5.09731 16.8909 5.12594 16.7876 5.12594 16.6508C5.12594 16.508 5.09855 16.4019 5.0439 16.3326C4.98913 16.2634 4.9201 16.2286 4.83648 16.2286C4.75523 16.2286 4.68824 16.2628 4.63562 16.3306C4.58289 16.3988 4.55664 16.5023 4.55664 16.6417ZM4.24751 17.4496L4.63643 17.4949C4.643 17.5461 4.65805 17.5813 4.68158 17.6006C4.71417 17.6281 4.76543 17.6418 4.83536 17.6418C4.92487 17.6418 4.99197 17.6276 5.03678 17.5992C5.06677 17.5801 5.08963 17.5495 5.10513 17.5072C5.11565 17.4768 5.12097 17.4212 5.12097 17.3399L5.12199 17.1392C5.02083 17.2859 4.89251 17.3592 4.7368 17.3592C4.56311 17.3592 4.42573 17.2811 4.32435 17.1245C4.2448 17.0007 4.20508 16.8467 4.20508 16.6624C4.20508 16.4314 4.25713 16.255 4.36135 16.133C4.46557 16.0111 4.59524 15.9501 4.75016 15.9501C4.90993 15.9501 5.04176 16.0249 5.14564 16.1745V15.984H5.46395V17.2202C5.46395 17.3828 5.45139 17.5044 5.42616 17.5847C5.40104 17.6652 5.36573 17.7283 5.32024 17.7741C5.27475 17.8199 5.2141 17.8559 5.13817 17.8818C5.06224 17.9077 4.96629 17.9207 4.8503 17.9207C4.63112 17.9207 4.47564 17.8804 4.38387 17.8C4.2921 17.7196 4.24627 17.6176 4.24627 17.494C4.24627 17.4818 4.24672 17.4671 4.24751 17.4496ZM6.21798 15.46H5.875V17.359H6.21798V15.46ZM7.41024 16.5564C7.40786 16.4493 7.38218 16.368 7.33318 16.3122C7.28429 16.2565 7.22477 16.2285 7.15462 16.2285C7.07959 16.2285 7.01758 16.2581 6.9687 16.3168C6.9197 16.3755 6.89571 16.4554 6.8965 16.5564H7.41024ZM7.39515 16.9259L7.73462 16.9862C7.69072 17.1187 7.62136 17.2197 7.52664 17.289C7.43193 17.3585 7.31334 17.3931 7.1711 17.3931C6.94581 17.3931 6.77913 17.3146 6.67106 17.1577C6.58563 17.0321 6.54297 16.8735 6.54297 16.6818C6.54297 16.4532 6.59898 16.2739 6.71123 16.1443C6.82337 16.0147 6.96516 15.95 7.13659 15.95C7.3293 15.95 7.48127 16.018 7.59261 16.1538C7.70396 16.29 7.75714 16.4982 7.75228 16.7789H6.89308C6.89545 16.8872 6.92329 16.9713 6.97647 17.0316C7.02966 17.0917 7.09597 17.1218 7.1754 17.1218C7.22938 17.1218 7.27487 17.1064 7.31164 17.0754C7.34842 17.0445 7.37637 16.9946 7.39515 16.9259ZM8.87109 15.46V17.359H10.2255V17.0387H9.23184V16.5226H10.123V16.2023H9.23184V15.7803H10.1902V15.46H8.87109ZM11.4531 17.3587V17.1527C11.4059 17.2261 11.344 17.2845 11.2671 17.3278C11.1903 17.371 11.1093 17.3927 11.024 17.3927C10.937 17.3927 10.8591 17.3723 10.79 17.3317C10.7209 17.291 10.6709 17.2339 10.64 17.1604C10.6091 17.0869 10.5938 16.9852 10.5938 16.8555V15.9834H10.9367V16.6159C10.9367 16.8096 10.943 16.9282 10.9556 16.9717C10.9682 17.0156 10.991 17.0501 11.0243 17.0757C11.0576 17.1011 11.0997 17.1138 11.1508 17.1138C11.2092 17.1138 11.2616 17.0969 11.3078 17.0627C11.3541 17.0285 11.3856 16.9862 11.4027 16.9356C11.4197 16.885 11.4283 16.7612 11.4283 16.5642V15.9834H11.7713V17.3587H11.4531ZM12.1836 17.3592H12.5266V16.9339C12.5266 16.6998 12.5362 16.5458 12.5553 16.4724C12.5744 16.399 12.6007 16.3482 12.6341 16.32C12.6675 16.292 12.7081 16.2779 12.7562 16.2779C12.8057 16.2779 12.8596 16.2978 12.9173 16.3375L13.0216 16.019C12.9494 15.9731 12.8743 15.9501 12.7965 15.9501C12.7412 15.9501 12.692 15.9653 12.6486 15.9955C12.6051 16.0259 12.5562 16.0872 12.5018 16.1795V15.984H12.1836V17.3592ZM13.5117 16.6716C13.5117 16.8087 13.5422 16.9135 13.6032 16.9863C13.6641 17.0591 13.7393 17.0956 13.8288 17.0956C13.9182 17.0956 13.9932 17.0591 14.0537 16.9863C14.1143 16.9135 14.1446 16.8077 14.1446 16.6691C14.1446 16.5339 14.1143 16.4297 14.0537 16.357C13.9932 16.2842 13.9182 16.2478 13.8288 16.2478C13.7393 16.2478 13.6641 16.2842 13.6032 16.357C13.5422 16.4297 13.5117 16.5348 13.5117 16.6716ZM13.1602 16.6519C13.1602 16.5306 13.1881 16.4132 13.2441 16.2996C13.3 16.1862 13.3792 16.0995 13.4819 16.0397C13.5844 15.9799 13.699 15.95 13.8255 15.95C14.0209 15.95 14.1811 16.0177 14.306 16.1534C14.4308 16.289 14.4933 16.4605 14.4933 16.6676C14.4933 16.8764 14.4301 17.0497 14.3041 17.187C14.178 17.3244 14.0192 17.3931 13.8279 17.3931C13.7095 17.3931 13.5966 17.3644 13.4892 17.3074C13.3817 17.2501 13.3 17.1663 13.2441 17.0557C13.1881 16.9452 13.1602 16.8107 13.1602 16.6519ZM15.9707 16.3231V15.7805L16.1441 15.7805C16.2735 15.7805 16.3595 15.7849 16.4024 15.7935C16.4606 15.8049 16.5087 15.8331 16.5467 15.8783C16.5847 15.9235 16.6037 15.9809 16.6037 16.0505C16.6037 16.107 16.5901 16.1566 16.5631 16.1992C16.536 16.2418 16.4986 16.2732 16.4509 16.2932C16.4032 16.3132 16.3086 16.3231 16.1671 16.3231H15.9707ZM15.6094 15.46V17.359H15.97V16.6431H16.2045C16.3671 16.6431 16.4913 16.6341 16.5772 16.6159C16.6404 16.6012 16.7025 16.5713 16.7636 16.5258C16.8247 16.4805 16.8752 16.418 16.9148 16.3387C16.9545 16.259 16.9743 16.1611 16.9743 16.0445C16.9743 15.8933 16.9399 15.77 16.871 15.6746C16.8021 15.5791 16.7166 15.517 16.6146 15.4885C16.5481 15.4696 16.4054 15.46 16.1867 15.46L15.6094 15.46ZM18.0534 16.6998C18.0096 16.7155 17.9405 16.7341 17.8459 16.7558C17.7513 16.7774 17.6894 16.7987 17.6604 16.8194C17.6158 16.8533 17.5938 16.8962 17.5938 16.9482C17.5938 16.9995 17.6114 17.0436 17.6469 17.081C17.6826 17.1182 17.7278 17.1369 17.7829 17.1369C17.8444 17.1369 17.9029 17.1152 17.9588 17.0719C18 17.0389 18.0271 16.9986 18.04 16.9509C18.0489 16.9196 18.0534 16.8602 18.0534 16.7725V16.6998ZM17.5931 16.4021L17.2854 16.3418C17.3203 16.2086 17.3802 16.1101 17.4653 16.046C17.5505 15.982 17.6771 15.95 17.8449 15.95C17.9973 15.95 18.1109 15.9692 18.1855 16.0076C18.2601 16.0463 18.3127 16.0951 18.343 16.1543C18.3734 16.2135 18.3887 16.3224 18.3887 16.4807L18.3852 16.9063C18.3852 17.0274 18.3906 17.1169 18.4015 17.1742C18.4125 17.2318 18.433 17.2934 18.4629 17.3591H18.1235C18.1144 17.3353 18.1036 17.3 18.0905 17.2532C18.0849 17.2319 18.0808 17.2179 18.0785 17.211C18.0202 17.2717 17.9578 17.3172 17.8914 17.3476C17.825 17.3779 17.7542 17.3931 17.6789 17.3931C17.546 17.3931 17.4412 17.3545 17.3647 17.2776C17.2882 17.2005 17.25 17.1031 17.25 16.9854C17.25 16.9077 17.2674 16.8382 17.3022 16.7772C17.3371 16.7162 17.386 16.6694 17.4488 16.637C17.5117 16.6047 17.6024 16.5761 17.7207 16.5519C17.8804 16.5199 17.9911 16.4901 18.0527 16.4624V16.4256C18.0527 16.3547 18.0364 16.3042 18.0039 16.2739C17.9712 16.2438 17.9097 16.2287 17.8192 16.2287C17.7581 16.2287 17.7104 16.2416 17.6762 16.2672C17.6419 16.2929 17.6141 16.3378 17.5931 16.4021ZM18.997 15.9834H18.6328L19.1249 17.3625C19.1046 17.4402 19.0753 17.5042 19.0369 17.5546C18.9985 17.6047 18.9396 17.6299 18.8596 17.6299C18.8165 17.6299 18.7678 17.6244 18.7141 17.6129L18.746 17.8981C18.8092 17.9128 18.874 17.9202 18.9397 17.9202C19.0046 17.9202 19.0629 17.9128 19.1145 17.898C19.1661 17.8834 19.2094 17.8626 19.2448 17.8362C19.2801 17.81 19.3114 17.7755 19.3386 17.7332C19.3657 17.6907 19.3944 17.6293 19.4245 17.5488L19.9624 15.9834H19.6088L19.3064 16.9598L18.997 15.9834ZM20.2305 15.984H20.5452V16.1718C20.6582 16.024 20.7927 15.9501 20.9489 15.9501C21.0317 15.9501 21.1037 15.9682 21.1647 16.0045C21.2257 16.0409 21.2757 16.0958 21.3146 16.1693C21.3714 16.0958 21.4329 16.0409 21.4985 16.0045C21.5644 15.9682 21.6344 15.9501 21.7091 15.9501C21.8041 15.9501 21.8845 15.9706 21.9502 16.0118C22.016 16.0527 22.0652 16.1131 22.0977 16.1928C22.1211 16.2515 22.1329 16.3466 22.1329 16.4782V17.3592H21.7899V16.5715C21.7899 16.4348 21.7781 16.3466 21.7547 16.3068C21.723 16.2548 21.6745 16.2288 21.609 16.2288C21.5611 16.2288 21.5161 16.2444 21.474 16.2756C21.4319 16.3068 21.4015 16.3524 21.383 16.4126C21.3643 16.4726 21.3549 16.5676 21.3549 16.6974V17.3592H21.0119V16.6041C21.0119 16.4697 21.0059 16.3834 20.9937 16.3443C20.9816 16.3054 20.9628 16.2765 20.9373 16.2574C20.9117 16.2385 20.8772 16.2288 20.8334 16.2288C20.7808 16.2288 20.7333 16.244 20.6912 16.2743C20.6492 16.3046 20.6191 16.3483 20.6007 16.4054C20.5825 16.4625 20.5734 16.5572 20.5734 16.6895V17.3592H20.2305V15.984ZM23.2393 16.3126C23.2884 16.3684 23.314 16.4497 23.3165 16.5567H22.8028C22.802 16.4558 22.826 16.3759 22.8749 16.3171C22.9237 16.2584 22.9858 16.2289 23.0607 16.2289C23.1309 16.2289 23.1905 16.2569 23.2393 16.3126ZM23.6371 16.9863L23.2976 16.926C23.2788 16.9947 23.251 17.0446 23.214 17.0755C23.1772 17.1065 23.1318 17.1219 23.0779 17.1219C22.9983 17.1219 22.932 17.0918 22.8789 17.0317C22.8257 16.9714 22.7979 16.8873 22.7954 16.779H23.6547C23.6596 16.4983 23.6063 16.2901 23.4949 16.154C23.3836 16.0181 23.2317 15.9501 23.039 15.9501C22.8675 15.9501 22.7258 16.0148 22.6136 16.1444C22.5016 16.2741 22.4453 16.4533 22.4453 16.6819C22.4453 16.8737 22.488 17.0322 22.5734 17.1579C22.6816 17.3147 22.8483 17.3932 23.0734 17.3932C23.2158 17.3932 23.3343 17.3586 23.4291 17.2892C23.5238 17.2198 23.5931 17.1188 23.6371 16.9863ZM25.1814 17.3592H24.8384V16.6558C24.8384 16.507 24.8311 16.4108 24.8167 16.3671C24.8021 16.3235 24.7785 16.2894 24.7458 16.2651C24.7131 16.241 24.6737 16.2288 24.6277 16.2288C24.5689 16.2288 24.5159 16.2462 24.4692 16.2808C24.4224 16.3154 24.3903 16.3612 24.3729 16.4184C24.3556 16.4754 24.3469 16.5809 24.3469 16.735V17.3592H24.0039V15.984H24.3221V16.186C24.4348 16.0287 24.5766 15.9501 24.7475 15.9501C24.8228 15.9501 24.8919 15.9647 24.9541 15.9936C25.0164 16.0225 25.0637 16.0596 25.0958 16.1045C25.1278 16.1495 25.15 16.2005 25.1625 16.2577C25.1752 16.3147 25.1814 16.3964 25.1814 16.5028V17.3592ZM26.191 16.2738V15.9837H25.9576V15.4939L25.6146 15.7086V15.9837H25.459V16.2738H25.6146V16.8749C25.6146 17.0038 25.6181 17.0896 25.6254 17.132C25.6343 17.1917 25.6501 17.2391 25.6731 17.274C25.6962 17.3091 25.7323 17.3378 25.7814 17.3598C25.8306 17.3818 25.8857 17.3929 25.9471 17.3929C26.0471 17.3929 26.1366 17.3747 26.2157 17.3384L26.1857 17.0565C26.1266 17.0798 26.0818 17.0915 26.0506 17.0915C26.0283 17.0915 26.0095 17.0853 25.9939 17.0733C25.9784 17.0611 25.9684 17.0458 25.9641 17.0271C25.9597 17.0085 25.9576 16.9428 25.9576 16.8302V16.2738H26.191ZM26.3848 16.9712L26.7277 16.9147C26.7423 16.9849 26.7719 17.0382 26.8163 17.0748C26.8609 17.1113 26.9232 17.1294 27.0033 17.1294C27.0917 17.1294 27.1581 17.112 27.2026 17.0773C27.2325 17.0528 27.2476 17.0204 27.2476 16.9794C27.2476 16.9517 27.2393 16.9285 27.223 16.9104C27.2058 16.893 27.1676 16.8769 27.1081 16.8621C26.8309 16.7969 26.6552 16.7374 26.5812 16.6838C26.4785 16.6094 26.4272 16.5058 26.4272 16.3735C26.4272 16.2539 26.4714 16.1535 26.5603 16.0722C26.6492 15.9908 26.7869 15.9501 26.9735 15.9501C27.1512 15.9501 27.2831 15.9806 27.3696 16.0415C27.4559 16.1025 27.5154 16.1925 27.5481 16.3118L27.2263 16.3758C27.2124 16.3224 27.1859 16.2813 27.147 16.2528C27.108 16.2243 27.0524 16.21 26.9803 16.21C26.8893 16.21 26.824 16.2234 26.7848 16.2505C26.7584 16.2696 26.7454 16.2943 26.7454 16.3247C26.7454 16.3509 26.7567 16.373 26.7796 16.3914C26.8105 16.4156 26.9174 16.45 27.1001 16.4943C27.2829 16.5387 27.4105 16.593 27.4831 16.6572C27.5546 16.7223 27.5906 16.8131 27.5906 16.9295C27.5906 17.0562 27.541 17.1652 27.4422 17.2564C27.3432 17.3476 27.197 17.3932 27.0033 17.3932C26.8275 17.3932 26.6884 17.3552 26.5858 17.2796C26.4833 17.2038 26.4163 17.1012 26.3848 16.9712ZM29.4302 15.9046L29.6793 16.6092H29.1894L29.4302 15.9046ZM29.9538 17.3588H30.3422L29.6225 15.4598H29.2432L28.5528 17.3588H28.9345L29.0814 16.9293H29.7997L29.9538 17.3588ZM30.9289 17.3592H30.5859V15.984H30.9041V16.1795C30.9586 16.0872 31.0073 16.0259 31.0509 15.9955C31.0942 15.9653 31.1435 15.9501 31.1988 15.9501C31.2767 15.9501 31.3517 15.9731 31.424 16.019L31.3197 16.3375C31.2618 16.2978 31.2081 16.2779 31.1585 16.2779C31.1103 16.2779 31.0697 16.292 31.0363 16.32C31.0029 16.3482 30.9767 16.399 30.9577 16.4724C30.9384 16.5458 30.9289 16.6998 30.9289 16.9339V17.3592ZM32.3351 16.3126C32.384 16.3684 32.4097 16.4497 32.4122 16.5567H31.8985C31.8976 16.4558 31.9217 16.3759 31.9707 16.3171C32.0195 16.2584 32.0814 16.2289 32.1566 16.2289C32.2266 16.2289 32.2861 16.2569 32.3351 16.3126ZM32.7367 16.9862L32.3972 16.9259C32.3783 16.9946 32.3505 17.0445 32.3137 17.0754C32.2768 17.1064 32.2314 17.1218 32.1773 17.1218C32.098 17.1218 32.0317 17.0917 31.9784 17.0316C31.9254 16.9713 31.8975 16.8872 31.895 16.7789H32.7543C32.7592 16.4982 32.7059 16.29 32.5947 16.1538C32.4832 16.018 32.3312 15.95 32.1386 15.95C31.9672 15.95 31.8253 16.0147 31.7133 16.1443C31.601 16.2739 31.5449 16.4532 31.5449 16.6818C31.5449 16.8735 31.5876 17.0321 31.673 17.1577C31.7811 17.3146 31.9479 17.3931 32.1732 17.3931C32.3154 17.3931 32.434 17.3585 32.5287 17.289C32.6234 17.2197 32.6928 17.1187 32.7367 16.9862ZM33.8171 16.6998C33.7734 16.7155 33.7041 16.7341 33.6095 16.7558C33.5149 16.7774 33.4532 16.7987 33.4241 16.8194C33.3795 16.8533 33.3574 16.8962 33.3574 16.9482C33.3574 16.9995 33.3751 17.0436 33.4107 17.081C33.4462 17.1182 33.4915 17.1369 33.5466 17.1369C33.6081 17.1369 33.6666 17.1152 33.7225 17.0719C33.7636 17.0389 33.7908 16.9986 33.8037 16.9509C33.8125 16.9196 33.8171 16.8602 33.8171 16.7725V16.6998ZM33.3567 16.4022L33.049 16.3419C33.0838 16.2087 33.1438 16.1102 33.2289 16.0462C33.3141 15.9821 33.4406 15.9501 33.6084 15.9501C33.7609 15.9501 33.8745 15.9694 33.949 16.0077C34.0236 16.0464 34.0762 16.0952 34.1065 16.1544C34.137 16.2136 34.1523 16.3225 34.1523 16.4808L34.1488 16.9065C34.1488 17.0275 34.1542 17.117 34.1651 17.1744C34.176 17.2319 34.1965 17.2935 34.2264 17.3592H33.887C33.878 17.3355 33.8672 17.3001 33.8541 17.2533C33.8485 17.232 33.8444 17.218 33.8421 17.2111C33.7837 17.2718 33.7215 17.3174 33.655 17.3478C33.5886 17.378 33.5178 17.3932 33.4424 17.3932C33.3096 17.3932 33.2048 17.3546 33.1283 17.2777C33.0519 17.2007 33.0137 17.1032 33.0137 16.9856C33.0137 16.9078 33.031 16.8383 33.0658 16.7773C33.1007 16.7163 33.1496 16.6695 33.2124 16.6371C33.2753 16.6048 33.3659 16.5762 33.4843 16.552C33.644 16.52 33.7546 16.4902 33.8163 16.4625V16.4257C33.8163 16.3548 33.8 16.3043 33.7674 16.2741C33.7348 16.2439 33.6733 16.2288 33.5827 16.2288C33.5216 16.2288 33.474 16.2417 33.4397 16.2673C33.4055 16.293 33.3777 16.338 33.3567 16.4022ZM29.5205 6.80387L30.6966 11.1121H28.3791L29.5205 6.80387ZM27.8391 13.0485H31.1955L31.6744 14.7662H34.217L31.3802 4.82764H27.5935L24.791 14.7662H27.3882L27.8391 13.0485Z" fill="#BFBFC3"/>
<path fill-rule="evenodd" clip-rule="evenodd" d="M14.4748 6.22605C15.5102 6.22605 16.4342 6.73426 17.0416 7.53028L17.5828 6.29405C16.7364 5.44172 15.5846 4.91626 14.3142 4.91626C12.3362 4.91626 10.6442 6.18915 9.94972 7.99099H8.89453L8.27148 9.41424H9.62892C9.61874 9.54627 9.61217 9.67842 9.61217 9.81322C9.61217 9.97635 9.62009 10.1376 9.63526 10.2968H8.95303L8.3301 11.7206H9.98208C10.6963 13.4768 12.3672 14.7098 14.3142 14.7098C15.2954 14.7098 16.2059 14.3966 16.9597 13.8615V12.1166C16.3526 12.8531 15.4647 13.3185 14.4748 13.3185C13.3176 13.3185 12.2998 12.6827 11.7071 11.7206H15.1664L15.7893 10.2968H11.1981C11.1744 10.1255 11.1617 9.95043 11.1617 9.7721C11.1617 9.65153 11.1676 9.53216 11.1785 9.41424H16.1754L16.7983 7.99099H11.6106C12.1844 6.93598 13.252 6.22605 14.4748 6.22605Z" fill="#BFBFC3"/>
</svg>
