<svg width="51" height="17" viewBox="0 0 51 17" fill="none" xmlns="http://www.w3.org/2000/svg">
<g clip-path="url(#clip0_3416_10093)">
<path d="M8.7719 0C7.0379 0 5.3549 0.492754 3.9269 1.42899C2.4989 2.36522 1.3769 3.69565 0.713896 5.22319C0.0508961 6.8 -0.102104 8.47536 0.203896 10.1507C0.509896 11.8261 1.3259 13.3043 2.5499 14.487C3.7739 15.6696 5.3549 16.5072 7.0379 16.8029C8.7209 17.1478 10.5059 16.9507 12.0869 16.3101C13.6679 15.6696 15.0449 14.5855 16.0139 13.1565C16.9829 11.7768 17.4929 10.1014 17.4929 8.42609C17.4929 6.15942 16.5749 3.9913 14.9429 2.41449C13.3109 0.886956 11.0669 0 8.7719 0ZM0.611896 8.82029H3.3149C3.3149 10.0029 3.5189 11.1855 3.8759 12.3188H1.6319C1.0199 11.2348 0.662896 10.0029 0.611896 8.82029ZM9.0779 4.08985V0.64058C10.6079 0.788406 11.9339 2.11884 12.7499 4.08985H9.0779ZM12.9539 4.68116C13.3109 5.81449 13.5149 6.9971 13.5659 8.17971H9.0779V4.68116H12.9539ZM8.4149 0.64058V4.08985H4.7429C5.5589 2.11884 6.9359 0.788406 8.4149 0.64058ZM8.4149 4.68116V8.17971H3.9269C3.9269 6.9971 4.1309 5.81449 4.5389 4.68116H8.4149ZM3.3149 8.17971H0.611896C0.662896 6.94782 1.0199 5.76522 1.6319 4.68116H3.8759C3.5189 5.81449 3.3659 6.9971 3.3149 8.17971ZM3.9269 8.82029H8.4149V12.3188H4.5389C4.1819 11.1855 3.9779 10.0029 3.9269 8.82029ZM8.4149 12.9101V16.3594C6.8849 16.2116 5.5589 14.8812 4.7429 12.9101H8.4149ZM9.0779 16.3594V12.8609H12.7499C11.9339 14.8812 10.6079 16.2116 9.0779 16.3594ZM9.0779 12.2696V8.77101H13.5659C13.5659 9.95362 13.3619 11.1362 12.9539 12.2696H9.0779ZM14.1779 8.82029H16.8809C16.8299 10.0522 16.4729 11.2348 15.8609 12.3188H13.6169C13.9739 11.1362 14.1779 10.0029 14.1779 8.82029ZM14.1779 8.17971C14.1779 6.9971 13.9739 5.81449 13.6169 4.68116H15.8609C16.4729 5.76522 16.8299 6.94782 16.8809 8.17971H14.1779ZM15.5039 4.08985H13.4129C13.2089 3.54783 12.9539 3.05507 12.6479 2.56232C12.2909 1.97101 11.8829 1.47826 11.3729 1.03478C13.0559 1.57681 14.4839 2.66087 15.5039 4.08985ZM6.1199 1.03478C5.6609 1.47826 5.2019 1.97101 4.8449 2.56232C4.5389 3.05507 4.2839 3.54783 4.0799 4.08985H1.9889C3.0089 2.66087 4.4369 1.57681 6.1199 1.03478ZM1.9889 12.9101H4.0799C4.2839 13.4522 4.5389 13.9449 4.8449 14.4377C5.2019 14.9797 5.6099 15.5217 6.1199 15.9652C4.4369 15.4232 3.0089 14.3391 1.9889 12.9101ZM11.3729 15.9652C11.8829 15.5217 12.2909 15.029 12.6479 14.4377C12.9539 13.9449 13.2089 13.4029 13.4129 12.9101H15.5039C14.4839 14.3391 13.0559 15.4232 11.3729 15.9652ZM41.5649 6.06087H40.1369V13.6493H41.5649V6.06087ZM40.8509 5.02609C41.3609 5.02609 41.8199 4.63188 41.8199 4.08985C41.8199 3.54783 41.4119 3.15362 40.8509 3.15362C40.3409 3.15362 39.8819 3.54783 39.8819 4.08985C39.8819 4.63188 40.3409 5.02609 40.8509 5.02609ZM44.4719 8.08116H46.5629V6.89855H44.4719V5.81449C44.4719 5.02609 45.0329 4.58261 46.0019 4.58261H46.5629V3.2029H46.0019C44.1659 3.2029 43.0439 4.18841 43.0439 5.76522V13.6985H44.4719V8.08116ZM50.4389 13.6985H50.9999V12.3188H50.4389C49.4699 12.3188 48.9089 11.8754 48.9089 11.087V8.08116H50.9999V6.89855H48.9089V3.2029H47.4809V11.1362C47.4809 12.6638 48.6029 13.6493 50.4389 13.6985ZM32.3849 13.6985L33.8129 8.03188L35.2409 13.6985H36.8729L39.0659 6.11014H37.5869L36.0569 11.9246L34.5779 6.11014H32.9969L31.5179 11.9246L29.9879 6.11014H28.5599L30.7529 13.6985H32.3849ZM24.6329 12.4174C23.4089 12.4174 22.3889 11.6783 22.0319 10.9391L20.7059 11.629C21.3179 12.9594 22.8479 13.8464 24.5819 13.8464C26.8259 13.8464 28.4069 12.6145 28.4069 10.8406C28.4069 6.75072 22.4399 8.47536 22.4399 6.11014C22.4399 5.07536 23.3579 4.58261 24.6329 4.58261C25.6529 4.58261 26.5709 5.12464 27.1319 5.81449L28.2539 4.87826C27.4889 3.84348 26.1119 3.25217 24.6329 3.25217C22.3379 3.25217 20.9099 4.63188 20.9099 6.11014C20.9099 10.1014 26.9279 8.13043 26.9279 10.8899C26.9279 11.7768 26.0099 12.4174 24.6329 12.4174Z" fill="#BFBFC3"/>
</g>
<defs>
<clipPath id="clip0_3416_10093">
<rect width="51" height="17" fill="white"/>
</clipPath>
</defs>
</svg>
