<svg width="33" height="57" viewBox="0 0 33 57" fill="none" xmlns="http://www.w3.org/2000/svg">
<path d="M8.85909 15.188L8.85908 15.1881C8.43966 17.3007 6.36074 18.6942 4.2005 18.2746C2.04368 17.8555 0.656021 15.7936 1.0749 13.684C2.50485 6.48236 8.94137 1.23898 16.3912 1.23898C25.0073 1.23898 32 8.17165 32 16.6683C32 20.8728 30.2897 24.6907 27.5147 27.4799L26.813 28.1852L27.5147 28.8905C30.2897 31.6798 32 35.4976 32 39.7021C32 48.1988 25.0073 55.1314 16.3912 55.1314C8.94137 55.1314 2.50485 49.8881 1.07501 42.6865L0.0947048 42.8811L1.07501 42.6865C0.656121 40.5768 2.04374 38.5149 4.2007 38.0958L4.20081 38.0958C6.36072 37.6759 8.43964 39.0694 8.85919 41.1824C9.56588 44.7417 12.7393 47.3066 16.3912 47.3066C20.6146 47.3066 24.0678 43.9062 24.0678 39.7021C24.0678 35.498 20.6146 32.0976 16.3912 32.0976C14.1905 32.0976 12.4251 30.3358 12.4251 28.1852C12.4251 26.0346 14.1905 24.2728 16.3912 24.2728C20.6146 24.2728 24.0678 20.8724 24.0678 16.6683C24.0678 12.4642 20.6146 9.06383 16.3912 9.06383C12.7393 9.06383 9.5659 11.6287 8.85909 15.188Z" stroke="#D3D7DA" stroke-width="2"/>
</svg>
