<svg width="41" height="11" viewBox="0 0 41 11" fill="none" xmlns="http://www.w3.org/2000/svg">
<path d="M14.0887 10.849L16.1234 0.18107H19.3605L17.3257 10.849H14.0887Z" fill="#BFBFC3"/>
<path d="M29.0715 0.442767C28.4241 0.221383 27.4221 0 26.1735 0C22.9827 0 20.7167 1.43899 20.7013 3.51447C20.6859 5.05031 22.3044 5.89434 23.5376 6.40629C24.8016 6.93208 25.2178 7.26415 25.2178 7.73459C25.2024 8.45409 24.2159 8.77233 23.2756 8.77233C21.9807 8.77233 21.2871 8.60629 20.2234 8.21887L19.8073 8.05283L19.3602 10.4327C20.1155 10.7371 21.5183 10.9862 22.9673 11C26.3739 11 28.5782 9.57484 28.609 7.36101C28.6245 6.1434 27.7612 5.23019 25.8961 4.46918C24.7708 3.97107 24.0771 3.65283 24.0771 3.14088C24.0771 2.69811 24.6629 2.22767 25.9269 2.22767C26.9905 2.21384 27.7458 2.42138 28.347 2.64277L28.6399 2.7673L29.0715 0.442767Z" fill="#BFBFC3"/>
<path d="M37.3643 0.192627H34.8672C34.0964 0.192627 33.5107 0.386338 33.1715 1.07816L28.3622 10.8467H31.7688C31.7688 10.8467 32.3237 9.53225 32.4471 9.24169C32.817 9.24169 36.1157 9.24169 36.5936 9.24169C36.6861 9.61527 36.9944 10.8329 36.9944 10.8329H40.0002L37.3643 0.192627ZM33.3719 7.06936C33.634 6.46055 34.6668 4.09452 34.6668 4.09452C34.6514 4.12219 34.9288 3.47187 35.0984 3.07062L35.3142 3.98382C35.3142 3.98382 35.9308 6.52974 36.0695 7.05552H33.3719V7.06936Z" fill="#BFBFC3"/>
<path d="M11.3754 0.192627L8.21542 7.45678L7.8763 5.97628C7.29054 4.28823 5.44078 2.43414 3.39062 1.50709L6.28859 10.8329H9.71065L14.8129 0.192627H11.3754Z" fill="#BFBFC3"/>
<path d="M5.27378 0.192627H0.0481972L0.00195312 0.414011C4.05602 1.29955 6.75359 3.43036 7.86344 5.99011L6.72276 1.092C6.53778 0.414011 5.98285 0.206463 5.27378 0.192627Z" fill="#BFBFC3"/>
</svg>
