<svg width="138" height="104" viewBox="0 0 138 104" fill="none" xmlns="http://www.w3.org/2000/svg">
<path fill-rule="evenodd" clip-rule="evenodd" d="M36.2499 44.1801C38.0558 37.6115 44.0047 32.601 50.8211 31.9459C52.2376 31.8042 52.5385 31.8042 54.7694 32.0167C59.1425 32.4239 64.0114 35.4515 66.6141 39.3643C70.6508 45.4549 70.3145 53.369 65.7288 59.1409C62.2055 63.6203 56.3628 66.0459 50.7149 65.3908C44.9431 64.7357 39.9325 61.2301 37.4007 56.0956C35.5771 52.3776 35.1698 48.146 36.2499 44.1801ZM30.0711 80.7589C30.496 73.4821 32.2311 70.3306 38.2863 65.7804C39.3309 64.9836 40.287 64.3817 40.3932 64.4525C40.4249 64.4736 40.4962 64.5201 40.5962 64.5853C40.8307 64.7381 41.2229 64.9938 41.6325 65.2669C44.1113 66.9312 47.3867 68.0643 50.7153 68.4007C55.053 68.8433 59.975 67.6217 63.5337 65.2138C64.1357 64.7889 64.7377 64.4525 64.8439 64.4525C65.2511 64.4525 68.7922 67.2676 70.4387 68.9142C73.6965 72.1719 74.9358 75.6598 75.0598 81.8566C75.0952 84.4592 74.9004 85.0081 73.4663 86.3183C72.2801 87.3806 70.8459 88.1065 68.3318 88.9386C56.8058 92.7275 37.1886 91.3111 31.6115 86.3183C30.0534 84.9019 29.8587 84.2114 30.0711 80.7589Z" fill="url(#paint0_linear_1769_20567)"/>
<path fill-rule="evenodd" clip-rule="evenodd" d="M70.9532 22.2788C73.2548 16.7903 78.6903 12.7535 84.6746 12.0984C92.9429 11.1955 100.804 16.5955 102.911 24.5982C105.283 33.6278 99.7239 42.8876 90.5173 45.2246C89.2425 45.5433 88.4458 45.6319 86.5336 45.6319C83.7362 45.6319 81.8418 45.2246 79.5224 44.1446C71.1302 40.2495 67.4298 30.7773 70.9532 22.2788ZM72.3324 45.8445L73.2707 45.1717C73.3733 45.1 73.4718 45.0308 73.5642 44.966C73.9508 44.6949 74.2302 44.4989 74.2445 44.4989C74.2555 44.4989 74.4718 44.6426 74.7954 44.8576C74.9925 44.9885 75.2293 45.1459 75.4839 45.3134C78.7416 47.4911 82.4774 48.6065 86.5319 48.6065C90.5863 48.6065 94.3221 47.4911 97.5975 45.3134L98.8192 44.4812L99.6159 45.0655C106.645 50.0229 108.504 53.1567 109.017 60.7876C109.247 64.1162 109.124 64.7004 107.92 66.0283C106.432 67.6395 103.954 68.808 99.97 69.7995C95.1719 70.9857 88.6565 71.5523 83.3272 71.2336C79.2197 70.9857 75.5193 70.4546 75.2891 70.0651C74.1206 68.1529 71.695 65.7096 68.8976 63.6027L67.1094 62.2571L68.1186 60.9824C71.0222 57.3351 72.4032 53.2275 72.3501 48.3232L72.3324 45.8445Z" fill="url(#paint1_linear_1769_20567)"/>
<path d="M130.49 43.4858C130.745 43.3403 131.062 43.5223 131.066 43.8159L131.109 47.6007C131.11 47.7076 131.156 47.8092 131.235 47.8812L134.035 50.4277C134.252 50.6252 134.177 50.9835 133.899 51.0774L130.314 52.2875C130.212 52.3217 130.13 52.3965 130.086 52.494L128.53 55.9441C128.409 56.2118 128.046 56.2512 127.87 56.0156L125.611 52.9787C125.548 52.8929 125.451 52.8375 125.345 52.8258L121.583 52.4117C121.291 52.3795 121.141 52.0456 121.311 51.8061L123.5 48.7191C123.562 48.6319 123.585 48.5228 123.563 48.4181L122.794 44.712C122.735 44.4245 123.006 44.1787 123.286 44.2663L126.898 45.3953C127 45.4272 127.111 45.4152 127.204 45.3622L130.49 43.4858Z" fill="url(#paint2_linear_1769_20567)" fill-opacity="0.8"/>
<path d="M119.928 2.18975C120.183 2.04419 120.5 2.22619 120.504 2.5198L120.522 4.10233C120.523 4.20927 120.569 4.31089 120.648 4.38285L121.818 5.44761C122.036 5.64516 121.961 6.00342 121.683 6.09729L120.183 6.60328C120.082 6.63747 120 6.71228 119.956 6.80977L119.305 8.25238C119.185 8.52003 118.821 8.55944 118.645 8.32385L117.701 7.05405C117.637 6.96823 117.54 6.91284 117.434 6.90114L115.861 6.72796C115.57 6.69583 115.42 6.36193 115.589 6.12245L116.505 4.83168C116.567 4.74445 116.589 4.63541 116.568 4.53069L116.246 2.98105C116.187 2.69354 116.458 2.44777 116.738 2.53535L118.248 3.00742C118.35 3.03932 118.461 3.02732 118.554 2.9743L119.928 2.18975Z" fill="url(#paint3_linear_1769_20567)" fill-opacity="0.9"/>
<path d="M109.51 95.9505C109.765 95.8049 110.082 95.9869 110.086 96.2805L110.104 97.8631C110.105 97.97 110.151 98.0716 110.23 98.1436L111.4 99.2084C111.618 99.4059 111.543 99.7642 111.265 99.858L109.765 100.364C109.664 100.398 109.582 100.473 109.538 100.571L108.887 102.013C108.767 102.281 108.403 102.32 108.227 102.085L107.283 100.815C107.219 100.729 107.122 100.674 107.016 100.662L105.443 100.489C105.152 100.457 105.002 100.123 105.171 99.8832L106.087 98.5924C106.149 98.5052 106.172 98.3962 106.15 98.2914L105.828 96.7418C105.769 96.4543 106.04 96.2085 106.32 96.2961L107.83 96.7682C107.932 96.8001 108.043 96.7881 108.136 96.735L109.51 95.9505Z" fill="url(#paint4_linear_1769_20567)" fill-opacity="0.9"/>
<path d="M4.12154 55.9402C4.09774 55.6476 4.39714 55.4372 4.66451 55.5586L6.10554 56.2129C6.20292 56.2571 6.31431 56.2588 6.41301 56.2176L7.87359 55.6084C8.14457 55.4954 8.43733 55.7151 8.40449 56.0068L8.22748 57.5791C8.21551 57.6853 8.2483 57.7918 8.31797 57.8729L9.34897 59.0735C9.54026 59.2962 9.42178 59.6424 9.13412 59.7013L7.58369 60.0187C7.47891 60.0402 7.38779 60.1042 7.33214 60.1956L6.50877 61.5467C6.356 61.7974 5.99002 61.7917 5.84508 61.5364L5.06387 60.1603C5.01108 60.0673 4.92198 60.0004 4.81791 59.9757L3.27804 59.6103C2.99234 59.5425 2.88463 59.1927 3.08271 58.9761L4.15033 57.8081C4.22247 57.7292 4.25853 57.6238 4.24986 57.5173L4.12154 55.9402Z" fill="url(#paint5_linear_1769_20567)" fill-opacity="0.9"/>
<path d="M17.0342 7.95811C16.9879 7.66822 17.2701 7.43528 17.5461 7.53567L22.7085 9.41385C22.809 9.45041 22.9202 9.44354 23.0154 9.39487L27.9068 6.89512C28.1683 6.7615 28.4771 6.9579 28.4669 7.25129L28.2757 12.7401C28.272 12.8469 28.3129 12.9505 28.3886 13.026L32.2784 16.9045C32.4863 17.1118 32.3949 17.4661 32.1127 17.547L26.8321 19.0611C26.7293 19.0906 26.6434 19.1615 26.5949 19.2568L24.1076 24.1536C23.9746 24.4153 23.6093 24.4379 23.4451 24.1945L20.3727 19.6415C20.3129 19.5529 20.2189 19.4931 20.1132 19.4765L14.6861 18.6244C14.396 18.5789 14.2617 18.2385 14.4424 18.0072L17.8242 13.6792C17.89 13.5949 17.9178 13.4871 17.9009 13.3815L17.0342 7.95811Z" fill="url(#paint6_linear_1769_20567)" fill-opacity="0.7"/>
<defs>
<linearGradient id="paint0_linear_1769_20567" x1="52.5317" y1="31.8472" x2="104.025" y2="126.385" gradientUnits="userSpaceOnUse">
<stop stop-color="#03D392"/>
<stop offset="0.227497" stop-color="#00C26F" stop-opacity="0.890625"/>
<stop offset="1" stop-color="#00C26F" stop-opacity="0"/>
</linearGradient>
<linearGradient id="paint1_linear_1769_20567" x1="100.527" y1="66.4677" x2="54.2348" y2="-10.793" gradientUnits="userSpaceOnUse">
<stop stop-color="#158B5E"/>
<stop offset="1" stop-color="#158B5E" stop-opacity="0"/>
</linearGradient>
<linearGradient id="paint2_linear_1769_20567" x1="128.185" y1="56.7235" x2="130.97" y2="33.4712" gradientUnits="userSpaceOnUse">
<stop stop-color="#03A76B"/>
<stop offset="1" stop-color="#3BD091" stop-opacity="0"/>
</linearGradient>
<linearGradient id="paint3_linear_1769_20567" x1="118.996" y1="8.9444" x2="120.45" y2="-3.19279" gradientUnits="userSpaceOnUse">
<stop stop-color="#03A76B"/>
<stop offset="1" stop-color="#3BD091" stop-opacity="0"/>
</linearGradient>
<linearGradient id="paint4_linear_1769_20567" x1="108.578" y1="102.705" x2="110.032" y2="90.568" gradientUnits="userSpaceOnUse">
<stop stop-color="#03A76B"/>
<stop offset="1" stop-color="#3BD091" stop-opacity="0"/>
</linearGradient>
<linearGradient id="paint5_linear_1769_20567" x1="9.84484" y1="59.6466" x2="-0.532417" y2="53.1861" gradientUnits="userSpaceOnUse">
<stop stop-color="#03A76B"/>
<stop offset="1" stop-color="#3BD091" stop-opacity="0"/>
</linearGradient>
<linearGradient id="paint6_linear_1769_20567" x1="32.9392" y1="17.553" x2="4.45804" y2="2.74151" gradientUnits="userSpaceOnUse">
<stop stop-color="#03A76B"/>
<stop offset="1" stop-color="#3BD091" stop-opacity="0"/>
</linearGradient>
</defs>
</svg>
