<svg width="15" height="16" viewBox="0 0 15 16" fill="none" xmlns="http://www.w3.org/2000/svg">
<path d="M14 2.68628H0V12.0197H14V2.68628Z" fill="#D80027"/>
<path d="M4.89249 5.53662L5.29324 6.77002H6.59013L5.54092 7.53231L5.9417 8.76577L4.89249 8.00345L3.84328 8.76577L4.24403 7.53231L3.19482 6.77002H4.49171L4.89249 5.53662Z" fill="#FFDA44"/>
<path d="M7.41851 9.63868L7.02504 9.3528L6.63162 9.63865L6.78187 9.17616L6.38843 8.89028H6.87476L7.02504 8.42773L7.17537 8.89028H7.66167L7.26823 9.17613L7.41851 9.63868Z" fill="#FFDA44"/>
<path d="M8.44487 8.22594H7.95856L7.80828 8.68843L7.65799 8.22597L7.17163 8.22594L7.56513 7.94006L7.4148 7.47754L7.80828 7.76336L8.20172 7.47754L8.05144 7.94006L8.44487 8.22594Z" fill="#FFDA44"/>
<path d="M8.44487 6.47964L8.05144 6.76552L8.2017 7.22801L7.80828 6.94218L7.4148 7.22806L7.56513 6.76549L7.17163 6.47969L7.65802 6.47964L7.80828 6.01709L7.95856 6.47964H8.44487Z" fill="#FFDA44"/>
<path d="M7.41849 5.06692L7.26824 5.52947L7.66166 5.81529L7.17535 5.81532L7.02502 6.27789L6.87474 5.81529L6.38843 5.81535L6.78188 5.52944L6.6316 5.06689L7.02502 5.35277L7.41849 5.06692Z" fill="#FFDA44"/>
</svg>
