<svg width="15" height="16" viewBox="0 0 15 16" fill="none" xmlns="http://www.w3.org/2000/svg">
<g clip-path="url(#clip0)">
<path d="M14 2.34888H0V11.682H14V2.34888Z" fill="#F0F0F0"/>
<path d="M14 2.34888H0V5.45991H14V2.34888Z" fill="#6DA544"/>
<path d="M14.0005 8.57129H0.000488281V11.6823H14.0005V8.57129Z" fill="#D80027"/>
<path d="M8.21316 6.04175H7.72472C7.72877 6.09542 7.73106 6.14959 7.73106 6.20406C7.73106 6.56519 7.6408 6.91527 7.48341 7.16443C7.43488 7.24132 7.35328 7.34982 7.24407 7.42299V6.04175H6.75711V7.42299C6.64789 7.34979 6.56633 7.24126 6.51777 7.16443C6.36038 6.91524 6.27014 6.56519 6.27014 6.20406C6.27014 6.14959 6.27247 6.0954 6.27648 6.04175H5.78804C5.7849 6.09515 5.7832 6.14926 5.7832 6.20406C5.78323 7.20531 6.31797 7.98958 7.00063 7.98958C7.68329 7.98958 8.21803 7.20531 8.21803 6.20406C8.218 6.14926 8.21628 6.09515 8.21316 6.04175Z" fill="#D80027"/>
<path d="M1.82647 5.0542H1.21777V5.72196H1.82647V5.0542Z" fill="#F0F0F0"/>
<path d="M0.609432 5.05518H0.000732422V5.72294H0.609432V5.05518Z" fill="#F0F0F0"/>
<path d="M3.04425 5.0542H2.43555V5.72196H3.04425V5.0542Z" fill="#F0F0F0"/>
<path d="M4.26153 5.0542H3.65283V5.72196H4.26153V5.0542Z" fill="#F0F0F0"/>
<path d="M5.47882 5.0542H4.87012V5.72196H5.47882V5.0542Z" fill="#F0F0F0"/>
<path d="M6.69635 5.0542H6.08765V5.72196H6.69635V5.0542Z" fill="#F0F0F0"/>
<path d="M7.91363 5.0542H7.30493V5.72196H7.91363V5.0542Z" fill="#F0F0F0"/>
<path d="M9.13092 5.0542H8.52222V5.72196H9.13092V5.0542Z" fill="#F0F0F0"/>
<path d="M10.3482 5.0542H9.7395V5.72196H10.3482V5.0542Z" fill="#F0F0F0"/>
<path d="M11.5657 5.0542H10.957V5.72196H11.5657V5.0542Z" fill="#F0F0F0"/>
<path d="M12.7833 5.0542H12.1746V5.72196H12.7833V5.0542Z" fill="#F0F0F0"/>
<path d="M14.0005 5.0542H13.3918V5.72196H14.0005V5.0542Z" fill="#F0F0F0"/>
<path d="M1.82647 8.27856H1.21777V8.97676H1.82647V8.27856Z" fill="#F0F0F0"/>
<path d="M0.609187 8.27856H0.000488281V8.97676H0.609187V8.27856Z" fill="#F0F0F0"/>
<path d="M3.04425 8.27856H2.43555V8.97676H3.04425V8.27856Z" fill="#F0F0F0"/>
<path d="M4.26153 8.27856H3.65283V8.97676H4.26153V8.27856Z" fill="#F0F0F0"/>
<path d="M5.47882 8.27856H4.87012V8.97676H5.47882V8.27856Z" fill="#F0F0F0"/>
<path d="M6.69635 8.27856H6.08765V8.97676H6.69635V8.27856Z" fill="#F0F0F0"/>
<path d="M7.91363 8.27856H7.30493V8.97676H7.91363V8.27856Z" fill="#F0F0F0"/>
<path d="M9.13092 8.27856H8.52222V8.97676H9.13092V8.27856Z" fill="#F0F0F0"/>
<path d="M10.3482 8.27856H9.7395V8.97676H10.3482V8.27856Z" fill="#F0F0F0"/>
<path d="M11.5657 8.27856H10.957V8.97676H11.5657V8.27856Z" fill="#F0F0F0"/>
<path d="M12.7833 8.27856H12.1746V8.97676H12.7833V8.27856Z" fill="#F0F0F0"/>
<path d="M14.0005 8.27856H13.3918V8.97676H14.0005V8.27856Z" fill="#F0F0F0"/>
</g>
<defs>
<clipPath id="clip0">
<rect y="0.015625" width="14" height="14" fill="white"/>
</clipPath>
</defs>
</svg>
