<svg width="15" height="16" viewBox="0 0 15 16" fill="none" xmlns="http://www.w3.org/2000/svg">
<g clip-path="url(#clip0)">
<path d="M14 2.86157H0V12.1947H14V2.86157Z" fill="#D80027"/>
<path d="M5.3769 2.86157V7.68031V12.1947H0V2.86157H5.3769Z" fill="#6DA544"/>
<path d="M5.37695 9.27832C6.34345 9.27832 7.12695 8.49482 7.12695 7.52832C7.12695 6.56182 6.34345 5.77832 5.37695 5.77832C4.41045 5.77832 3.62695 6.56182 3.62695 7.52832C3.62695 8.49482 4.41045 9.27832 5.37695 9.27832Z" fill="#FFDA44"/>
<path d="M4.39258 6.65332V7.7471C4.39258 8.29075 4.8333 8.73147 5.37695 8.73147C5.9206 8.73147 6.36133 8.29075 6.36133 7.7471V6.65332H4.39258Z" fill="#D80027"/>
<path d="M5.37671 8.0752C5.19578 8.0752 5.04858 7.928 5.04858 7.74707V7.30957H5.70486V7.74707C5.70483 7.92798 5.55762 8.0752 5.37671 8.0752Z" fill="#F0F0F0"/>
</g>
<defs>
<clipPath id="clip0">
<rect y="0.52832" width="14" height="14" fill="white"/>
</clipPath>
</defs>
</svg>
