<svg width="15" height="16" viewBox="0 0 15 16" fill="none" xmlns="http://www.w3.org/2000/svg">
<g clip-path="url(#clip0)">
<path d="M14 2.62097H0V11.9544H14V2.62097Z" fill="#6DA544"/>
<path d="M5.0188 8.20056C5.0188 8.53675 5.28488 8.80926 5.61314 8.80926H7.39617C7.39617 9.08937 7.61793 9.31651 7.89148 9.31651H8.48582C8.75937 9.31651 8.98113 9.0894 8.98113 8.80926V8.20056H5.0188Z" fill="#F0F0F0"/>
<path d="M9.03076 5.25854V6.67883C9.03076 6.90258 8.85303 7.08461 8.63452 7.08461V7.69331C9.18074 7.69331 9.62508 7.23823 9.62508 6.67883V5.25854H9.03076Z" fill="#F0F0F0"/>
<path d="M4.77124 6.67981C4.77124 6.90357 4.5935 7.0856 4.375 7.0856V7.6943C4.92122 7.6943 5.36555 7.23921 5.36555 6.67981V5.25952H4.77121V6.67981H4.77124Z" fill="#F0F0F0"/>
<path d="M8.7335 5.25842H8.13916V6.67871H8.7335V5.25842Z" fill="#F0F0F0"/>
<path d="M7.24755 6.07016C7.24755 6.12611 7.20311 6.17161 7.14848 6.17161C7.09385 6.17161 7.04942 6.12611 7.04942 6.07016V5.25854H6.45507V6.07016C6.45507 6.12611 6.41064 6.17161 6.35601 6.17161C6.30137 6.17161 6.25694 6.12611 6.25694 6.07016V5.25854H5.6626V6.07016C5.6626 6.46172 5.97366 6.7803 6.35598 6.7803C6.50323 6.7803 6.63981 6.73292 6.75222 6.65242C6.8646 6.73292 7.00121 6.7803 7.14845 6.7803C7.1781 6.7803 7.20724 6.77817 7.23595 6.77442C7.19384 6.95213 7.03758 7.08464 6.85128 7.08464V7.69334C7.3975 7.69334 7.84184 7.23826 7.84184 6.67886V6.07016V5.25854H7.24749L7.24755 6.07016Z" fill="#F0F0F0"/>
<path d="M6.55403 7.08447H5.6626V7.69317H6.55403V7.08447Z" fill="#F0F0F0"/>
</g>
<defs>
<clipPath id="clip0">
<rect y="0.28772" width="14" height="14" fill="white"/>
</clipPath>
</defs>
</svg>
