<svg width="15" height="16" viewBox="0 0 15 16" fill="none" xmlns="http://www.w3.org/2000/svg">
<path d="M14 3.03931H0V12.3727H14V3.03931Z" fill="#F0F0F0"/>
<path d="M8.70434 7.7058C8.70434 8.1319 7.94128 9.1971 7 9.1971C6.05871 9.1971 5.29565 8.13187 5.29565 7.7058C5.29565 6.76452 6.05871 6.00146 7 6.00146C7.94128 6.00146 8.70434 6.76452 8.70434 7.7058Z" fill="#D80027"/>
<path d="M8.70434 7.70605C8.70434 8.64733 7.94128 9.41038 7 9.41038C6.05871 9.41038 5.29565 8.64733 5.29565 7.70605" fill="#0052B4"/>
<path d="M9.25955 8.76072L8.80762 9.21265L9.10889 9.51392L9.56082 9.06199L9.25955 8.76072Z" fill="black"/>
<path d="M8.50638 9.5134L8.05444 9.96533L8.35572 10.2666L8.80765 9.81467L8.50638 9.5134Z" fill="black"/>
<path d="M10.1636 9.66403L9.71167 10.116L10.0129 10.4172L10.4649 9.96531L10.1636 9.66403Z" fill="black"/>
<path d="M9.41019 10.4175L8.95825 10.8694L9.25953 11.1707L9.71146 10.7187L9.41019 10.4175Z" fill="black"/>
<path d="M9.71146 9.21237L9.25952 9.66431L9.5608 9.96558L10.0127 9.51365L9.71146 9.21237Z" fill="black"/>
<path d="M8.95853 9.96555L8.50659 10.4175L8.80787 10.7188L9.2598 10.2668L8.95853 9.96555Z" fill="black"/>
<path d="M8.50677 4.99409L9.71191 6.19922L10.0132 5.89795L8.80805 4.69281L8.50677 4.99409Z" fill="black"/>
<path d="M8.05466 5.44627L8.50659 5.89819L8.80785 5.59694L8.35592 5.14501L8.05466 5.44627Z" fill="black"/>
<path d="M8.80759 6.19943L9.25952 6.65137L9.56078 6.35011L9.10884 5.89818L8.80759 6.19943Z" fill="black"/>
<path d="M8.95798 4.54221L9.40991 4.99414L9.71119 4.69286L9.25925 4.24093L8.95798 4.54221Z" fill="black"/>
<path d="M9.7114 5.29562L10.1633 5.74756L10.4646 5.44628L10.0127 4.99435L9.7114 5.29562Z" fill="black"/>
<path d="M5.04156 10.8692L3.83643 9.66406L3.53515 9.96534L4.74029 11.1705L5.04156 10.8692Z" fill="black"/>
<path d="M5.49319 10.4175L5.04126 9.96558L4.74 10.2668L5.19194 10.7188L5.49319 10.4175Z" fill="black"/>
<path d="M4.74026 9.66432L4.28833 9.2124L3.98706 9.51367L4.43899 9.96559L4.74026 9.66432Z" fill="black"/>
<path d="M5.94561 9.96563L4.74048 8.7605L4.43921 9.06177L5.64434 10.2669L5.94561 9.96563Z" fill="black"/>
<path d="M3.83661 5.74737L5.04175 4.54224L4.74047 4.24096L3.53533 5.44609L3.83661 5.74737Z" fill="black"/>
<path d="M4.28803 6.19927L5.49316 4.99414L5.19189 4.69287L3.98676 5.898L4.28803 6.19927Z" fill="black"/>
<path d="M4.74018 6.65118L5.94531 5.44604L5.64406 5.14479L4.43892 6.34992L4.74018 6.65118Z" fill="black"/>
</svg>
