<svg width="40" height="40" viewBox="0 0 40 40" fill="none" xmlns="http://www.w3.org/2000/svg">
<path fill-rule="evenodd" clip-rule="evenodd" d="M10.483 12.4069C10.483 10.5253 12.0083 9 13.8899 9H24.777C26.6586 9 28.1839 10.5253 28.1839 12.4069V13.499C28.1839 15.3806 26.6586 16.9059 24.777 16.9059H13.8899C12.0083 16.9059 10.483 15.3806 10.483 13.499V12.4069ZM13.8899 11.3088C13.2834 11.3088 12.7918 11.8004 12.7918 12.4069V13.499C12.7918 14.1055 13.2834 14.5971 13.8899 14.5971H24.777C25.3835 14.5971 25.8751 14.1055 25.8751 13.499V12.4069C25.8751 11.8004 25.3835 11.3088 24.777 11.3088H13.8899ZM10.483 22.2019C10.483 20.3203 12.0083 18.795 13.8899 18.795H24.777C26.6586 18.795 28.1839 20.3203 28.1839 22.2019V24.6933C28.1839 26.5749 26.6586 28.1002 24.777 28.1002H13.8899C12.0083 28.1002 10.483 26.5749 10.483 24.6933V22.2019ZM13.8899 21.1038C13.2834 21.1038 12.7918 21.5954 12.7918 22.2019V24.6933C12.7918 25.2998 13.2834 25.7914 13.8899 25.7914H24.777C25.3835 25.7914 25.8751 25.2998 25.8751 24.6933V22.2019C25.8751 21.5954 25.3835 21.1038 24.777 21.1038H13.8899Z" fill="#2B2B36"/>
</svg>
