<svg width="48" height="48" viewBox="0 0 48 48" fill="none" xmlns="http://www.w3.org/2000/svg">
<rect width="48" height="48" rx="4" fill="#FFB803"/>
<path d="M36.6436 18.7978C36.3365 18.5356 35.903 18.4803 35.5398 18.6572L29.9821 21.3628L24.7673 15.3502C24.5744 15.1278 24.2944 15 24 15C23.7056 15 23.4257 15.1278 23.2328 15.3502L18.0179 21.3627L12.4602 18.6571C12.097 18.4803 11.6636 18.5355 11.3564 18.7977C11.0492 19.0599 10.9265 19.4793 11.0439 19.8657L14.9033 32.561C15.0334 32.9889 15.4279 33.2812 15.875 33.2812H32.125C32.5721 33.2812 32.9667 32.9889 33.0967 32.5611L36.956 19.8658C37.0735 19.4793 36.9509 19.06 36.6436 18.7978ZM31.3722 31.25H16.6277L13.6646 21.5026L17.8298 23.5304C18.2433 23.7317 18.7403 23.63 19.0416 23.2827L24 17.5657L28.9585 23.2827C29.2597 23.6301 29.7568 23.7316 30.1702 23.5304L34.3354 21.5026L31.3722 31.25Z" fill="white"/>
</svg>
