<svg width="254" height="234" viewBox="0 0 254 234" fill="none" xmlns="http://www.w3.org/2000/svg">
<path style="mix-blend-mode:multiply" opacity="0.2" d="M25.4218 196.54H91.752L47.8755 171.171C47.4296 170.907 47.0603 170.53 46.8037 170.079C46.5472 169.628 46.4123 169.118 46.4123 168.599C46.4123 168.08 46.5472 167.569 46.8037 167.118C47.0603 166.667 47.4296 166.291 47.8755 166.026L91.752 140.657H25.4218C23.974 140.656 22.5516 141.038 21.2986 141.764L-19.3958 165.285C-19.9742 165.621 -20.4542 166.104 -20.788 166.684C-21.1217 167.264 -21.2973 167.922 -21.2973 168.591C-21.2973 169.261 -21.1217 169.918 -20.788 170.499C-20.4542 171.079 -19.9742 171.561 -19.3958 171.897L21.3061 195.426C22.5562 196.154 23.9759 196.538 25.4218 196.54Z" fill="url(#paint0_linear_1772_20319)"/>
<path style="mix-blend-mode:multiply" opacity="0.2" d="M-49.2727 163.355H34.3496L-9.52689 137.986C-9.97274 137.722 -10.3421 137.345 -10.5986 136.894C-10.8551 136.443 -10.99 135.933 -10.99 135.414C-10.99 134.895 -10.8551 134.384 -10.5986 133.933C-10.3421 133.482 -9.97274 133.106 -9.52689 132.841L34.3496 107.472H-49.2727C-50.7202 107.473 -52.1421 107.855 -53.3959 108.579L-94.0903 132.108C-94.6706 132.442 -95.1526 132.924 -95.4877 133.504C-95.8228 134.085 -95.9993 134.743 -95.9993 135.414C-95.9993 136.084 -95.8228 136.743 -95.4877 137.323C-95.1526 137.903 -94.6706 138.385 -94.0903 138.719L-53.3959 162.249C-52.1421 162.973 -50.7202 163.355 -49.2727 163.355Z" fill="url(#paint1_linear_1772_20319)"/>
<path style="mix-blend-mode:multiply" opacity="0.2" d="M191.696 262.902H206.561L162.684 237.54C162.236 237.276 161.866 236.899 161.608 236.447C161.35 235.995 161.215 235.484 161.215 234.964C161.215 234.443 161.35 233.932 161.608 233.48C161.866 233.028 162.236 232.651 162.684 232.387L206.561 207.026H191.696C190.246 207.026 188.821 207.407 187.565 208.132L146.871 231.662C146.293 231.998 145.812 232.48 145.479 233.06C145.145 233.64 144.969 234.298 144.969 234.967C144.969 235.637 145.145 236.295 145.479 236.875C145.812 237.455 146.293 237.937 146.871 238.273L187.565 261.765C188.819 262.5 190.243 262.893 191.696 262.902Z" fill="url(#paint2_linear_1772_20319)"/>
<path style="mix-blend-mode:multiply" opacity="0.2" d="M103.907 229.724H149.158L105.282 204.355C104.834 204.091 104.463 203.714 104.206 203.262C103.948 202.811 103.812 202.299 103.812 201.779C103.812 201.259 103.948 200.747 104.206 200.295C104.463 199.844 104.834 199.467 105.282 199.202L149.158 173.841H103.907C102.46 173.84 101.037 174.222 99.7841 174.948L59.0822 198.477C58.5039 198.813 58.0238 199.295 57.6901 199.875C57.3563 200.455 57.1807 201.113 57.1807 201.783C57.1807 202.452 57.3563 203.11 57.6901 203.69C58.0238 204.27 58.5039 204.752 59.0822 205.088L99.7841 228.618C101.037 229.344 102.46 229.726 103.907 229.724Z" fill="url(#paint3_linear_1772_20319)"/>
<path style="mix-blend-mode:multiply" d="M49.2206 107.472H34.3487L78.2326 132.841C78.6784 133.106 79.0478 133.482 79.3043 133.933C79.5609 134.384 79.6958 134.895 79.6958 135.414C79.6958 135.933 79.5609 136.443 79.3043 136.894C79.0478 137.345 78.6784 137.722 78.2326 137.986L34.3487 163.355H49.2206C50.6681 163.355 52.09 162.973 53.3439 162.249L94.0383 138.719C94.6185 138.385 95.1005 137.903 95.4357 137.323C95.7708 136.743 95.9473 136.084 95.9473 135.414C95.9473 134.743 95.7708 134.085 95.4357 133.504C95.1005 132.924 94.6185 132.442 94.0383 132.108L53.3439 108.579C52.09 107.855 50.6681 107.473 49.2206 107.472Z" fill="url(#paint4_linear_1772_20319)"/>
<g style="mix-blend-mode:multiply">
<path d="M79.952 138.727L39.2277 162.294C36.5386 163.85 31.8402 163.663 28.7329 161.868L-10.5124 139.199C-12.1408 138.256 -13.0073 137.067 -13.082 135.923C-13.1567 134.778 -12.5591 133.873 -11.2743 133.133L29.4724 109.552C32.1614 107.996 36.8598 108.19 39.9672 109.985L79.205 132.662C80.8259 133.597 81.6924 134.786 81.7671 135.93C81.8418 137.075 81.2592 137.987 79.952 138.727Z" fill="#9396B5"/>
</g>
<path d="M81.7801 134.337V28.8301H-13.0839V134.33C-13.0092 135.474 -12.1428 136.663 -10.5144 137.598L28.7309 160.267C30.453 161.218 32.3817 161.732 34.3481 161.763C36.0381 161.855 37.7221 161.494 39.2257 160.716L79.95 137.127C81.2497 136.386 81.8473 135.369 81.7801 134.337Z" fill="url(#paint5_linear_1772_20319)"/>
<path d="M79.952 31.6268L39.2053 55.2008C36.5162 56.7564 31.8178 56.562 28.7105 54.767L-10.5349 32.098C-12.1632 31.1631 -13.0297 29.974 -13.1044 28.8297C-13.1791 27.6854 -12.5815 26.7804 -11.2967 26.0325L29.4724 2.45851C32.1614 0.902871 36.8598 1.09733 39.9672 2.8923L79.205 25.5613C80.8259 26.4962 81.6924 27.6854 81.7671 28.8297C81.8418 29.974 81.2592 30.8864 79.952 31.6268Z" fill="white"/>
<path d="M79.952 30.2133L39.2053 53.7872C36.5162 55.3429 31.8178 55.1559 28.7105 53.3609L-10.5124 30.662C-12.1408 29.7197 -13.0073 28.5305 -13.082 27.3937C-13.1567 26.2569 -12.5591 25.3369 -11.2743 24.5965L29.4724 1.05244C32.1465 -0.503203 36.8598 -0.316227 39.9672 1.4937L79.205 24.1478C80.8259 25.0901 81.6924 26.2793 81.7671 27.4236C81.8418 28.5679 81.2592 29.4728 79.952 30.2133Z" fill="url(#paint6_linear_1772_20319)"/>
<path style="mix-blend-mode:multiply" opacity="0.2" d="M106.617 140.657H91.7529L135.629 166.033C136.075 166.298 136.445 166.675 136.701 167.126C136.958 167.577 137.093 168.087 137.093 168.606C137.093 169.125 136.958 169.635 136.701 170.086C136.445 170.538 136.075 170.914 135.629 171.179L91.7529 196.548H106.617C108.067 196.548 109.492 196.166 110.748 195.441L151.443 171.912C152.023 171.577 152.505 171.096 152.84 170.515C153.175 169.935 153.352 169.276 153.352 168.606C153.352 167.936 153.175 167.277 152.84 166.697C152.505 166.116 152.023 165.635 151.443 165.3L110.748 141.771C109.493 141.043 108.068 140.659 106.617 140.657Z" fill="url(#paint7_linear_1772_20319)"/>
<g style="mix-blend-mode:multiply">
<path d="M137.376 171.912L96.6289 195.486C93.9399 197.041 89.2415 196.847 86.1341 195.052L46.8814 172.383C45.2605 171.448 44.394 170.259 44.3193 169.114C44.2446 167.97 44.8422 167.065 46.1269 166.317L86.8662 142.743C89.5552 141.188 94.2611 141.382 97.361 143.177L136.614 165.846C138.242 166.781 139.109 167.97 139.183 169.114C139.258 170.259 138.653 171.171 137.376 171.912Z" fill="#9396B5"/>
</g>
<path d="M139.184 167.529V105.782H44.3203V167.514C44.395 168.658 45.2615 169.847 46.8824 170.782L86.1352 193.451C87.8586 194.399 89.7865 194.912 91.7523 194.947C93.4423 195.039 95.1262 194.677 96.63 193.9L137.377 170.326C138.654 169.57 139.252 168.561 139.184 167.529Z" fill="url(#paint8_linear_1772_20319)"/>
<path d="M137.376 108.579L96.6289 132.153C93.9399 133.709 89.2415 133.514 86.1341 131.719L46.8814 109.05C45.2605 108.115 44.394 106.926 44.3193 105.782C44.2446 104.637 44.8422 103.725 46.1269 102.985L86.8662 79.4106C89.5552 77.855 94.2611 78.0494 97.361 79.8369L136.614 102.506C138.242 103.448 139.109 104.637 139.183 105.782C139.258 106.926 138.653 107.831 137.376 108.579Z" fill="white"/>
<path d="M137.376 107.165L96.6289 130.739C93.9399 132.294 89.2415 132.1 86.1341 130.305L46.8814 107.636C45.2605 106.701 44.394 105.512 44.3193 104.368C44.2446 103.223 44.8422 102.318 46.1269 101.57L86.8662 77.9964C89.5552 76.4408 94.2611 76.6352 97.361 78.4302L136.614 101.099C138.242 102.034 139.109 103.223 139.183 104.368C139.258 105.512 138.653 106.424 137.376 107.165Z" fill="url(#paint9_linear_1772_20319)"/>
<path style="mix-blend-mode:multiply" opacity="0.2" d="M164.021 173.841H149.157L193.033 199.202C193.481 199.467 193.852 199.844 194.11 200.295C194.367 200.747 194.503 201.259 194.503 201.779C194.503 202.299 194.367 202.811 194.11 203.262C193.852 203.714 193.481 204.091 193.033 204.355L149.157 229.724H164.021C165.471 229.724 166.896 229.343 168.152 228.618L208.847 205.088C209.425 204.752 209.905 204.27 210.239 203.69C210.572 203.11 210.748 202.452 210.748 201.783C210.748 201.113 210.572 200.455 210.239 199.875C209.905 199.295 209.425 198.813 208.847 198.477L168.152 174.948C166.896 174.223 165.471 173.841 164.021 173.841Z" fill="url(#paint10_linear_1772_20319)"/>
<g style="mix-blend-mode:multiply">
<path d="M194.774 205.096L154.035 228.67C151.346 230.226 146.647 230.032 143.54 228.237L104.287 205.568C102.666 204.633 101.8 203.444 101.725 202.299C101.65 201.155 102.248 200.25 103.533 199.502L144.272 175.928C146.961 174.373 151.659 174.567 154.729 176.362L194.02 199.031C195.648 199.966 196.507 201.155 196.582 202.299C196.656 203.444 196.059 204.356 194.774 205.096Z" fill="#9396B5"/>
</g>
<path d="M196.581 200.698V174.26H101.717V200.437C101.709 200.534 101.709 200.631 101.717 200.728C101.791 201.873 102.658 203.062 104.279 203.997L143.539 226.613C145.263 227.561 147.19 228.074 149.156 228.109C150.846 228.201 152.53 227.839 154.034 227.062L194.773 203.496C196.058 202.748 196.648 201.745 196.581 200.698Z" fill="url(#paint11_linear_1772_20319)"/>
<path d="M194.774 177.027L154.035 200.601C151.346 202.157 146.647 201.963 143.54 200.168L104.287 177.499C102.666 176.564 101.8 175.375 101.725 174.23C101.65 173.086 102.248 172.174 103.533 171.433L144.272 147.859C146.961 146.304 151.659 146.498 154.729 148.293L194.02 170.962C195.648 171.897 196.507 173.086 196.582 174.23C196.656 175.375 196.059 176.28 194.774 177.027Z" fill="white"/>
<path d="M194.774 175.614L154.035 199.188C151.346 200.744 146.647 200.549 143.54 198.762L104.287 176.093C102.666 175.15 101.8 173.961 101.725 172.817C101.65 171.672 102.248 170.768 103.533 170.02L144.272 146.446C146.961 144.89 151.659 145.084 154.729 146.879L194.02 169.548C195.648 170.483 196.507 171.672 196.582 172.817C196.656 173.961 196.059 174.874 194.774 175.614Z" fill="url(#paint12_linear_1772_20319)"/>
<g style="mix-blend-mode:multiply">
<path d="M252.178 238.28L211.416 261.854C208.727 263.41 204.028 263.216 200.958 261.421L161.706 238.752C160.085 237.817 159.218 236.628 159.144 235.483C159.069 234.339 159.667 233.427 160.951 232.686L201.705 209.112C204.395 207.557 209.093 207.751 212.2 209.546L251.423 232.215C253.044 233.15 253.911 234.339 253.993 235.483C254.075 236.628 253.462 237.533 252.178 238.28Z" fill="#9396B5"/>
</g>
<path d="M253.994 233.882V229.986L238.061 237.734L212.172 222.776C209.064 220.981 204.366 220.787 201.677 222.342L175.078 237.734L159.13 229.986V233.591C159.122 233.688 159.122 233.785 159.13 233.882C159.205 235.027 160.071 236.216 161.692 237.151L200.96 259.82C202.684 260.764 204.611 261.277 206.577 261.316C208.254 261.401 209.924 261.04 211.417 260.269L252.179 236.68C253.464 235.932 254.054 234.93 253.994 233.882Z" fill="url(#paint13_linear_1772_20319)"/>
<path d="M252.178 232.784L211.416 256.358C208.727 257.914 204.028 257.719 200.958 255.924L161.706 233.255C160.085 232.32 159.218 231.131 159.144 229.987C159.069 228.843 159.667 227.93 160.951 227.19L201.705 203.616C204.395 202.06 209.093 202.255 212.2 204.042L251.423 226.711C253.044 227.653 253.911 228.858 253.993 229.987C254.075 231.116 253.462 232.036 252.178 232.784Z" fill="white"/>
<path d="M252.178 231.37L211.416 254.944C208.727 256.5 204.028 256.305 200.958 254.51L161.691 231.849C160.07 230.914 159.203 229.725 159.129 228.58C159.054 227.436 159.652 226.531 160.936 225.783L201.705 202.202C204.395 200.646 209.093 200.841 212.2 202.636L251.423 225.305C253.044 226.239 253.911 227.429 253.993 228.573C254.075 229.717 253.462 230.63 252.178 231.37Z" fill="url(#paint14_linear_1772_20319)"/>
<path d="M144.23 177.252C145.149 178.837 144.514 180.655 142.325 181.904C140.582 182.769 138.662 183.215 136.717 183.205C134.772 183.196 132.855 182.733 131.121 181.851C128.021 180.057 128.013 177.17 131.121 175.405C133.626 174.139 136.486 173.762 139.233 174.335C139.233 174.335 142.377 174.769 143.124 173.004C143.782 171.441 140.883 170.797 140.883 170.797C139.476 170.645 138.113 170.216 136.872 169.533C133.765 167.739 133.757 164.852 136.872 163.087C138.614 162.219 140.534 161.771 142.48 161.779C144.425 161.786 146.342 162.25 148.077 163.131C151.177 164.926 151.184 167.821 148.077 169.586C148.077 169.586 145.343 170.955 147.763 172.353C148.501 172.779 149.344 172.989 150.195 172.96C151.047 172.931 151.873 172.663 152.581 172.189C153.664 171.441 159.752 169.892 163.785 172.241C166.87 174.028 166.878 176.938 163.785 178.695C159.849 180.939 154.015 179.443 152.581 178.643C152.073 178.353 151.607 177.993 151.199 177.573C150.646 176.968 150.773 176.728 150.415 176.324C150.415 176.324 149.317 174.709 146.441 175.113C143.565 175.517 144.23 177.252 144.23 177.252Z" fill="#BCC1E8"/>
<path d="M201.863 228.82L205.919 232.806L217.922 225.865L220.992 229.515L202.177 240.39L196.754 234.908L194.438 237.667L192.07 235.491L194.49 232.612L185.557 223.569L192.466 219.576L199.57 226.561L201.684 224.041L204.051 226.217L201.863 228.82Z" fill="#BCC1E8"/>
<path d="M109.022 114.353L102.845 100.704L99.9613 109.118L109.022 114.353ZM88.0547 102.23L85.7466 108.976L97.4141 107.644L99.7222 100.898L88.0547 102.23ZM74.4824 94.384L82.8633 109.305L85.7242 100.883L74.4824 94.384Z" fill="#BCC1E8"/>
<path d="M74.4824 94.384L100.29 99.2305L85.7242 100.883L74.4824 94.384Z" fill="#BCC1E8"/>
<path d="M85.4177 110.778L109.022 114.353L99.9613 109.118L85.4177 110.778Z" fill="#BCC1E8"/>
<path d="M50.327 24.5965C52.2616 25.7183 53.2327 27.072 53.2327 28.4183C53.2327 29.7645 52.411 31.0808 50.7154 32.1578L55.0254 34.6558L52.0375 36.3087L47.7351 33.8256L45.9797 34.8129L50.2747 37.2959L47.2869 38.9562L42.9919 36.4732L37.7034 39.4274L34.2375 37.423L37.1058 35.8225L21.7259 26.9225L18.8725 28.523L15.4141 26.5186L18.2749 24.9181L20.6951 23.5644L16.4001 21.0813L19.3879 19.421L23.6829 21.904L25.4084 20.9392L21.1134 18.4337L24.1012 16.7734L28.4485 19.2938C30.2625 18.5131 32.2269 18.1452 34.2001 18.2168C36.0845 18.2592 37.9284 18.7735 39.5633 19.7126C40.3333 20.099 40.9878 20.6821 41.4606 21.4029C41.7131 21.9258 41.7533 22.5263 41.5726 23.0782L41.7594 23.1904C43.0332 22.9573 44.3342 22.9119 45.6212 23.0558C47.2766 23.2506 48.8765 23.7744 50.327 24.5965ZM33.5353 21.1561C32.573 21.1537 31.6253 21.3929 30.779 21.8517L25.3935 24.8433L30.5699 27.8349L36.5082 24.5142C36.7593 24.4046 36.968 24.2161 37.1028 23.9773C37.2375 23.7385 37.291 23.4623 37.2552 23.1904C37.1658 22.8906 37.0127 22.6138 36.8064 22.3788C36.6001 22.1439 36.3455 21.9564 36.0601 21.8292C35.2903 21.3911 34.4207 21.1593 33.5353 21.1561ZM46.6819 26.5934C45.8141 26.0733 44.837 25.7634 43.8285 25.6884C42.595 25.5932 41.3588 25.8335 40.2505 26.384L34.0358 29.8617L40.8107 33.7733L46.8536 30.3927C47.2365 30.2136 47.5657 29.937 47.8082 29.5904C48.0507 29.2439 48.1981 28.8397 48.2355 28.4183C48.1907 27.7825 47.6156 27.1319 46.6819 26.5934Z" fill="#BCC1E8"/>
<defs>
<linearGradient id="paint0_linear_1772_20319" x1="91.7594" y1="168.599" x2="-21.2781" y2="168.599" gradientUnits="userSpaceOnUse">
<stop stop-color="#BCC1E8"/>
<stop offset="1" stop-color="#BCC1E8"/>
</linearGradient>
<linearGradient id="paint1_linear_1772_20319" x1="-90915.3" y1="80823.9" x2="-113656" y2="80823.9" gradientUnits="userSpaceOnUse">
<stop stop-color="#BCC1E8"/>
<stop offset="1" stop-color="#BCC1E8"/>
</linearGradient>
<linearGradient id="paint2_linear_1772_20319" x1="-28568.8" y1="73475.6" x2="-33647.6" y2="73475.6" gradientUnits="userSpaceOnUse">
<stop stop-color="#BCC1E8"/>
<stop offset="1" stop-color="#BCC1E8"/>
</linearGradient>
<linearGradient id="paint3_linear_1772_20319" x1="-49891.2" y1="75931.7" x2="-61216.4" y2="75931.7" gradientUnits="userSpaceOnUse">
<stop stop-color="#BCC1E8"/>
<stop offset="1" stop-color="#BCC1E8"/>
</linearGradient>
<linearGradient id="paint4_linear_1772_20319" x1="383664" y1="10225.7" x2="388744" y2="10225.7" gradientUnits="userSpaceOnUse">
<stop stop-color="#BCC1E8"/>
<stop offset="1" stop-color="#BCC1E8"/>
</linearGradient>
<linearGradient id="paint5_linear_1772_20319" x1="-12.5611" y1="95.289" x2="81.7128" y2="95.289" gradientUnits="userSpaceOnUse">
<stop offset="0.4" stop-color="#BCC1E8"/>
<stop offset="0.61" stop-color="#D0D4F6"/>
</linearGradient>
<linearGradient id="paint6_linear_1772_20319" x1="-13.0895" y1="27.4236" x2="81.782" y2="27.4236" gradientUnits="userSpaceOnUse">
<stop stop-color="#F7F8FF"/>
<stop offset="1" stop-color="#F3F3FA"/>
</linearGradient>
<linearGradient id="paint7_linear_1772_20319" x1="388341" y1="12740.2" x2="393420" y2="12740.2" gradientUnits="userSpaceOnUse">
<stop stop-color="#BCC1E8"/>
<stop offset="1" stop-color="#BCC1E8"/>
</linearGradient>
<linearGradient id="paint8_linear_1772_20319" x1="-26520" y1="18034.4" x2="-14337.8" y2="18034.4" gradientUnits="userSpaceOnUse">
<stop offset="0.4" stop-color="#BCC1E8"/>
<stop offset="0.61" stop-color="#D0D4F6"/>
</linearGradient>
<linearGradient id="paint9_linear_1772_20319" x1="-599014" y1="7730.36" x2="-611064" y2="7730.36" gradientUnits="userSpaceOnUse">
<stop stop-color="#F7F8FF"/>
<stop offset="1" stop-color="#F3F3FA"/>
</linearGradient>
<linearGradient id="paint10_linear_1772_20319" x1="392969" y1="15251.2" x2="398048" y2="15251.2" gradientUnits="userSpaceOnUse">
<stop stop-color="#BCC1E8"/>
<stop offset="1" stop-color="#BCC1E8"/>
</linearGradient>
<linearGradient id="paint11_linear_1772_20319" x1="-19060.1" y1="14662.9" x2="-7131.54" y2="14662.9" gradientUnits="userSpaceOnUse">
<stop offset="0.4" stop-color="#BCC1E8"/>
<stop offset="0.61" stop-color="#D0D4F6"/>
</linearGradient>
<linearGradient id="paint12_linear_1772_20319" x1="-606200" y1="12818.2" x2="-618250" y2="12818.2" gradientUnits="userSpaceOnUse">
<stop stop-color="#F7F8FF"/>
<stop offset="1" stop-color="#F3F3FA"/>
</linearGradient>
<linearGradient id="paint13_linear_1772_20319" x1="-11837.7" y1="13138.6" x2="265.383" y2="13138.6" gradientUnits="userSpaceOnUse">
<stop offset="0.4" stop-color="#BCC1E8"/>
<stop offset="0.61" stop-color="#D0D4F6"/>
</linearGradient>
<linearGradient id="paint14_linear_1772_20319" x1="-613489" y1="16962.4" x2="-625539" y2="16962.4" gradientUnits="userSpaceOnUse">
<stop stop-color="#F7F8FF"/>
<stop offset="1" stop-color="#F3F3FA"/>
</linearGradient>
</defs>
</svg>
