<svg width="48" height="48" viewBox="0 0 48 48" fill="none" xmlns="http://www.w3.org/2000/svg">
<rect width="48" height="48" rx="4" fill="#99BFAD"/>
<path fill-rule="evenodd" clip-rule="evenodd" d="M16.4119 24.961C14.6242 26.7488 14.6242 29.6473 16.4119 31.4351C18.1997 33.2229 21.0983 33.2229 22.8861 31.4351L25.6827 28.6385L27.2877 30.2435L24.4911 33.0401C21.8169 35.7143 17.4811 35.7143 14.8069 33.0401C12.1327 30.3659 12.1327 26.0302 14.8069 23.356L17.6036 20.5594L19.2086 22.1644L16.4119 24.961ZM25.1126 16.2604L22.3159 19.057L20.7109 17.452L23.5075 14.6554C26.1817 11.9812 30.5175 11.9812 33.1917 14.6554C35.8659 17.3296 35.8659 21.6653 33.1917 24.3395L30.3951 27.1362L28.7901 25.5311L31.5867 22.7345C33.3745 20.9467 33.3745 18.0482 31.5867 16.2604C29.7989 14.4726 26.9003 14.4726 25.1126 16.2604Z" fill="white"/>
<path fill-rule="evenodd" clip-rule="evenodd" d="M28.4225 20.9752L21.4917 27.906L19.8867 26.301L26.8175 19.3702L28.4225 20.9752Z" fill="white"/>
</svg>
