<svg width="48" height="48" viewBox="0 0 48 48" fill="none" xmlns="http://www.w3.org/2000/svg">
<rect width="48" height="48" rx="4" fill="#D95B96"/>
<path fill-rule="evenodd" clip-rule="evenodd" d="M24.1 20.2C21.3938 20.2 19.2 22.3938 19.2 25.1C19.2 26.4358 19.7331 27.645 20.6006 28.53C21.4912 29.4384 22.729 30 24.1 30C25.4359 30 26.645 29.4669 27.53 28.5993C28.4384 27.7088 29 26.471 29 25.1C29 22.3938 26.8062 20.2 24.1 20.2ZM17 25.1C17 21.1788 20.1788 18 24.1 18C28.0212 18 31.2 21.1788 31.2 25.1C31.2 27.0859 30.3832 28.8831 29.07 30.1704C27.7905 31.4247 26.0347 32.2 24.1 32.2C22.1141 32.2 20.3169 31.3832 19.0296 30.07C17.7753 28.7905 17 27.0347 17 25.1Z" fill="white"/>
<path fill-rule="evenodd" clip-rule="evenodd" d="M24.1 16.2C19.1847 16.2 15.2 20.1847 15.2 25.1C15.2 27.526 16.1692 29.7235 17.7441 31.33L16.1731 32.87C14.2114 30.869 13 28.1249 13 25.1C13 18.9696 17.9696 14 24.1 14C30.2304 14 35.2 18.9696 35.2 25.1C35.2 28.2049 33.9238 31.0137 31.87 33.0269L30.33 31.4559C31.979 29.8394 33 27.5899 33 25.1C33 20.1847 29.0153 16.2 24.1 16.2Z" fill="white"/>
<path fill-rule="evenodd" clip-rule="evenodd" d="M11 32.1C11 31.4925 11.4925 31 12.1 31H36.1C36.7075 31 37.2 31.4925 37.2 32.1C37.2 32.7075 36.7075 33.2 36.1 33.2H12.1C11.4925 33.2 11 32.7075 11 32.1Z" fill="white"/>
</svg>
