<svg width="48" height="48" viewBox="0 0 48 48" fill="none" xmlns="http://www.w3.org/2000/svg">
<rect width="48" height="48" rx="4" fill="#637AA6"/>
<path d="M20.1273 12L28.2794 12.0024C30.3836 12.0276 31.4716 12.2604 32.5997 12.8638C33.6901 13.4469 34.5531 14.3099 35.1362 15.4003C35.7773 16.5989 36 17.7523 36 20.1273V27.8727C36 30.2477 35.7773 31.4011 35.1362 32.5997C34.5531 33.6901 33.6901 34.5531 32.5997 35.1362C31.4011 35.7773 30.2477 36 27.8727 36H20.1273C17.7523 36 16.5989 35.7773 15.4003 35.1362C14.3099 34.5531 13.4469 33.6901 12.8638 32.5997C12.2227 31.4011 12 30.2477 12 27.8727L12.0024 19.7206C12.0276 17.6164 12.2604 16.5284 12.8638 15.4003C13.4469 14.3099 14.3099 13.4469 15.4003 12.8638C16.5989 12.2227 17.7523 12 20.1273 12ZM27.8727 14.427H20.1273C18.355 14.427 17.5432 14.5435 16.8279 14.8644L16.5448 15.0039C15.8774 15.3609 15.3609 15.8774 15.0039 16.5448C14.5766 17.3438 14.427 18.1187 14.427 20.1273V27.8727C14.427 29.645 14.5435 30.4568 14.8644 31.1721L15.0039 31.4552C15.3609 32.1226 15.8774 32.6391 16.5448 32.9961C17.2498 33.3731 17.936 33.534 19.4676 33.5666L20.1273 33.573H27.8727C29.645 33.573 30.4568 33.4565 31.1721 33.1356L31.4552 32.9961C32.1226 32.6391 32.6392 32.1226 32.9961 31.4552C33.3731 30.7502 33.534 30.064 33.5666 28.5324L33.573 27.8727V20.1273C33.573 18.355 33.4566 17.5432 33.1356 16.8279L32.9961 16.5448C32.6392 15.8774 32.1226 15.3609 31.4552 15.0039C30.6562 14.5766 29.8813 14.427 27.8727 14.427ZM24 18.7416C26.9042 18.7416 29.2584 21.0959 29.2584 24C29.2584 26.9041 26.9042 29.2584 24 29.2584C21.0959 29.2584 18.7416 26.9041 18.7416 24C18.7416 21.0959 21.0959 18.7416 24 18.7416ZM24 21.1685C22.4362 21.1685 21.1685 22.4362 21.1685 24C21.1685 25.5638 22.4362 26.8315 24 26.8315C25.5638 26.8315 26.8315 25.5638 26.8315 24C26.8315 22.4362 25.5638 21.1685 24 21.1685Z" fill="white"/>
</svg>
