<svg width="182" height="24" viewBox="0 0 182 24" fill="none" xmlns="http://www.w3.org/2000/svg">
<path d="M108.372 0.366211V23.6349H106.049L91.1198 5.35236V23.6349H88.3867V0.366211H90.7098L105.639 18.7152V0.366211H108.372Z" fill="#2B2B37"/>
<path d="M115.646 21.7734C114.143 20.2665 113.392 18.3939 113.392 16.1557C113.392 13.8953 114.143 12.0338 115.646 10.5712C117.172 9.08643 119.154 8.34405 121.591 8.34405C124.028 8.34405 125.998 9.08643 127.501 10.5712C129.027 12.0338 129.79 13.8953 129.79 16.1557C129.79 18.4161 129.027 20.2886 127.501 21.7734C125.998 23.236 124.028 23.9673 121.591 23.9673C119.177 23.9673 117.195 23.236 115.646 21.7734ZM117.799 12.333C116.797 13.308 116.296 14.5823 116.296 16.1557C116.296 17.7291 116.785 19.0033 117.765 19.9784C118.767 20.9756 120.042 21.4742 121.591 21.4742C123.14 21.4742 124.404 20.9867 125.383 20.0116C126.385 19.0144 126.886 17.7291 126.886 16.1557C126.886 14.6266 126.385 13.3524 125.383 12.333C124.404 11.3357 123.14 10.8371 121.591 10.8371C120.042 10.8371 118.778 11.3357 117.799 12.333Z" fill="#2B2B37"/>
<path d="M147.741 23.6349H145.007V21.7402C143.641 23.1806 142.012 23.9008 140.122 23.9008C137.867 23.9008 136.068 23.2028 134.724 21.8067C133.381 20.3884 132.709 18.538 132.709 16.2554C132.709 13.9285 133.494 12.0338 135.066 10.5712C136.66 9.08643 138.676 8.34405 141.113 8.34405C142.662 8.34405 143.96 8.69862 145.007 9.40776V0.366211H147.741V23.6349ZM140.635 21.4078C142.32 21.4078 143.778 20.7429 145.007 19.4133V12.0006C143.732 11.2249 142.468 10.8371 141.215 10.8371C139.644 10.8371 138.311 11.3357 137.218 12.333C136.148 13.308 135.613 14.5934 135.613 16.1889C135.613 17.7845 136.068 19.0587 136.979 20.0116C137.913 20.9424 139.131 21.4078 140.635 21.4078Z" fill="#2B2B37"/>
<path d="M164.778 19.9119L165.632 22.0061C164.152 23.3136 162.227 23.9673 159.859 23.9673C157.353 23.9673 155.361 23.2582 153.88 21.8399C152.377 20.4216 151.625 18.5269 151.625 16.1557C151.625 13.9175 152.331 12.056 153.743 10.5712C155.133 9.08643 157.069 8.34405 159.551 8.34405C161.601 8.34405 163.298 8.98671 164.642 10.272C166.008 11.5352 166.691 13.1751 166.691 15.1917C166.691 15.8344 166.634 16.4327 166.521 16.9867H154.7C154.814 18.3828 155.349 19.4798 156.306 20.2776C157.285 21.0754 158.538 21.4742 160.064 21.4742C162.068 21.4742 163.639 20.9535 164.778 19.9119ZM159.415 10.8371C158.071 10.8371 156.955 11.2028 156.067 11.9341C155.201 12.6654 154.689 13.6294 154.529 14.826H163.856C163.787 13.585 163.355 12.61 162.558 11.9008C161.783 11.1917 160.736 10.8371 159.415 10.8371Z" fill="#2B2B37"/>
<path d="M178.188 19.5795C178.188 19.0477 177.904 18.6044 177.334 18.2499C176.765 17.8953 176.07 17.6072 175.25 17.3856C174.453 17.1418 173.645 16.8648 172.825 16.5546C172.005 16.2443 171.31 15.7568 170.741 15.092C170.171 14.405 169.887 13.5629 169.887 12.5657C169.887 11.3025 170.365 10.2831 171.322 9.50749C172.278 8.73186 173.542 8.34405 175.114 8.34405C177.369 8.34405 179.134 8.93131 180.409 10.1058L179.111 12.1335C177.972 11.1585 176.685 10.6709 175.25 10.6709C174.522 10.6709 173.929 10.8482 173.474 11.2028C173.018 11.5573 172.791 12.0006 172.791 12.5324C172.791 13.1086 173.075 13.585 173.645 13.9618C174.214 14.3163 174.897 14.6155 175.695 14.8593C176.514 15.0809 177.334 15.3468 178.154 15.6571C178.974 15.9452 179.669 16.4105 180.238 17.0532C180.808 17.6958 181.092 18.4936 181.092 19.4465C181.092 20.9313 180.523 22.0615 179.384 22.8371C178.268 23.5906 176.856 23.9673 175.148 23.9673C173.941 23.9673 172.791 23.7235 171.697 23.236C170.581 22.7263 169.841 22.1945 169.477 21.6404L171.014 19.7457C171.47 20.2554 172.13 20.6986 172.996 21.0754C173.907 21.4521 174.727 21.6404 175.455 21.6404C176.253 21.6404 176.902 21.4632 177.403 21.1086C177.927 20.7319 178.188 20.2222 178.188 19.5795Z" fill="#2B2B37"/>
<path d="M20.4297 0.36565V23.6343H17.0817L3.92879 7.51247V23.6343H0V0.36565H3.34801L16.5009 16.554V0.36565H20.4297Z" fill="#A52DE7"/>
<path d="M25.2807 12C25.2807 8.60942 26.4422 5.76177 28.7653 3.45706C31.134 1.15235 34.1176 0 37.7161 0C41.3147 0 44.2869 1.10803 46.6328 3.3241C49.0014 5.56233 50.1858 8.45429 50.1858 12C50.1858 15.4792 49.0014 18.349 46.6328 20.6094C44.2641 22.8698 41.2919 24 37.7161 24C34.1176 24 31.1454 22.892 28.7995 20.6759C26.4536 18.4598 25.2807 15.5679 25.2807 12ZM29.7219 12C29.7219 14.349 30.4849 16.2992 32.0108 17.8504C33.5368 19.4017 35.4386 20.1773 37.7161 20.1773C40.1759 20.1773 42.1232 19.4017 43.5581 17.8504C45.0157 16.2992 45.7445 14.349 45.7445 12C45.7445 9.62881 44.9702 7.66759 43.4214 6.11634C41.8727 4.58726 39.9709 3.82271 37.7161 3.82271C35.4158 3.82271 33.5026 4.58726 31.9767 6.11634C30.4735 7.64543 29.7219 9.60665 29.7219 12Z" fill="#A52DE7"/>
<path d="M80.5829 0.36565H84.6142L77.7815 23.6343H73.8527L68.0791 6.8144L62.408 23.6343H58.445L51.3049 0.36565H56.0194L60.8365 16.9529L66.166 0.36565H70.3339L75.8001 16.9862L80.5829 0.36565Z" fill="#A52DE7"/>
</svg>
