<svg width="249" height="32" viewBox="0 0 249 32" fill="none" xmlns="http://www.w3.org/2000/svg">
<path d="M18.8477 21.0519L18.0777 21.2972V1.60048H20.8778V24.3814H18.0777L3.30739 4.96505L4.07741 4.71971V24.3814H1.27734V1.60048H4.07741L18.8477 21.0519ZM37.5321 24.7319C35.4548 24.7319 33.5648 24.2534 31.8619 23.295C30.1819 22.3136 28.8397 20.9468 27.8368 19.1944C26.8325 17.442 26.3303 15.3742 26.3303 12.991C26.3303 10.6077 26.8325 8.53991 27.8368 6.78752C28.8397 5.01229 30.1804 3.64543 31.8619 2.68695C33.5648 1.72848 35.4548 1.25 37.5321 1.25C39.6077 1.25 41.4871 1.72848 43.1672 2.68695C44.87 3.64543 46.2229 5.01229 47.2273 6.78752C48.2301 8.53991 48.7323 10.6077 48.7323 12.991C48.7323 15.3742 48.2301 17.442 47.2257 19.1944C46.2665 20.9024 44.8643 22.3192 43.1672 23.295C41.4871 24.2534 39.6077 24.7319 37.5321 24.7319ZM37.5321 22.1033C39.1177 22.1033 40.5421 21.765 41.8021 21.087C43.0622 20.386 44.065 19.3574 44.8122 18.0028C45.5579 16.6466 45.9322 14.9765 45.9322 12.991C45.9322 11.0054 45.5579 9.346 44.8122 8.01419C44.065 6.658 43.0622 5.63095 41.8021 4.93C40.5421 4.22905 39.1177 3.87857 37.5321 3.87857C35.9677 3.87857 34.5448 4.22905 33.262 4.93C32.0019 5.63095 30.9976 6.65952 30.2519 8.01419C29.5047 9.346 29.1319 11.0054 29.1319 12.991C29.1319 14.9765 29.5047 16.6481 30.2519 18.0028C30.9976 19.359 32.0019 20.386 33.262 21.087C34.5448 21.765 35.9677 22.1033 37.5321 22.1033ZM59.2325 24.3814L51.0454 1.60048H54.0555L61.0906 21.3673H60.2506L67.0027 1.60048H70.0128L76.7679 21.3673H75.9279L82.9646 1.60048H85.9046L77.7845 24.3814H74.8444L68.1242 3.91362H68.8943L62.1741 24.3814H59.234H59.2325Z" fill="#64ACFF"/>
<path d="M92.494 16.3196V13.691H99.6341C101.034 13.691 102.165 13.2583 103.028 12.3943C103.916 11.5059 104.359 10.3615 104.359 8.95961C104.359 7.51199 103.916 6.36609 103.029 5.52494C102.165 4.66094 101.034 4.22818 99.6341 4.22818H93.054V24.3806H90.2539V1.59961H99.6341C100.684 1.59961 101.664 1.76266 102.574 2.09028C103.484 2.4179 104.279 2.89637 104.954 3.52723C105.654 4.15809 106.191 4.92913 106.564 5.84037C106.96 6.75161 107.158 7.79085 107.158 8.95961C107.158 10.1284 106.96 11.1676 106.564 12.0788C106.21 12.9624 105.66 13.7535 104.954 14.392C104.267 15.029 103.457 15.518 102.574 15.8289C101.63 16.1619 100.635 16.3279 99.6341 16.3196H92.494ZM117.87 24.731C116.511 24.7366 115.182 24.3337 114.054 23.5745C112.912 22.7806 111.989 21.7048 111.289 20.3501C110.612 18.971 110.274 17.4061 110.274 15.6537C110.274 13.9013 110.624 12.3364 111.324 10.9573C112.024 9.57828 112.968 8.4918 114.159 7.6979C115.365 6.9058 116.778 6.49097 118.22 6.50628C119.852 6.50628 121.09 6.92685 121.93 7.76799C122.792 8.58628 123.375 9.68342 123.68 11.0625C124.007 12.4415 124.17 13.9714 124.17 15.6537C124.17 16.5421 124.077 17.5112 123.89 18.5627C123.701 19.5961 123.371 20.5985 122.91 21.5417C122.481 22.458 121.832 23.253 121.02 23.8548C120.202 24.4385 119.152 24.731 117.87 24.731ZM118.57 22.0674C119.76 22.0674 120.74 21.7748 121.51 21.1912C122.302 20.6076 122.887 19.835 123.26 18.8781C123.632 17.8968 123.82 16.8209 123.82 15.6537C123.82 14.3691 123.622 13.2461 123.225 12.2891C122.852 11.3078 122.267 10.5489 121.475 10.011C120.705 9.45028 119.737 9.1699 118.568 9.1699C116.818 9.1699 115.467 9.78856 114.509 11.0274C113.552 12.2419 113.074 13.7855 113.074 15.6537C113.074 16.8926 113.307 18.0019 113.774 18.9832C114.225 19.896 114.9 20.6797 115.734 21.2613C116.581 21.8007 117.566 22.0808 118.57 22.0674ZM123.82 6.85675H126.62V24.3806H124.063L123.995 23.7497C123.966 23.2586 123.93 22.7679 123.888 22.2777C123.847 21.8115 123.824 21.3438 123.82 20.8758V6.85675ZM130.52 6.85675H133.53L139.795 23.6796L137.345 24.3806L130.52 6.85675ZM146.795 6.85675L137.03 31.3901H133.985L138.22 21.9272L143.82 6.85675H146.795ZM150.679 6.85675H153.479V24.3806H150.679V6.85675ZM159.499 6.50628C160.432 6.50628 161.272 6.64647 162.019 6.92685C162.766 7.20723 163.396 7.61561 163.909 8.15351C164.422 8.69142 164.819 9.34513 165.099 10.1162C165.379 10.8628 165.519 11.7162 165.519 12.6747V24.3806H162.719V13.3756C162.719 12.0194 162.404 11.0046 161.774 10.3265C161.144 9.64837 160.199 9.31009 158.939 9.31009C157.982 9.31009 157.096 9.55542 156.279 10.0461C155.449 10.5502 154.752 11.2475 154.249 12.0788C153.736 12.92 153.421 13.9013 153.304 15.0228L153.269 12.9901C153.386 12.0088 153.619 11.1204 153.969 10.3265C154.31 9.57893 154.771 8.89229 155.334 8.2937C155.869 7.72748 156.511 7.27458 157.224 6.9619C157.947 6.65713 158.706 6.50628 159.499 6.50628ZM171.259 6.50628C172.192 6.50628 173.032 6.64647 173.779 6.92685C174.527 7.20723 175.157 7.61561 175.669 8.15351C176.182 8.69142 176.579 9.34513 176.859 10.1162C177.139 10.8628 177.28 11.7162 177.28 12.6747V24.3806H174.479V13.3756C174.479 12.0194 174.164 11.0046 173.534 10.3265C172.904 9.64837 171.959 9.31009 170.699 9.31009C169.742 9.31009 168.856 9.55542 168.039 10.0461C167.209 10.5502 166.513 11.2475 166.009 12.0788C165.496 12.92 165.181 13.9013 165.064 15.0228L165.029 12.9901C165.146 12.0088 165.379 11.1204 165.729 10.3265C166.071 9.57893 166.532 8.89229 167.094 8.2937C167.629 7.72748 168.272 7.27458 168.984 6.9619C169.707 6.65713 170.467 6.50628 171.259 6.50628ZM195.121 18.7379H197.746C197.572 19.8503 197.14 20.9066 196.486 21.8221C195.832 22.7299 194.967 23.4639 193.966 23.96C192.939 24.4735 191.749 24.731 190.396 24.731C188.761 24.731 187.291 24.3455 185.986 23.5745C184.686 22.7878 183.613 21.6767 182.87 20.3501C182.123 18.971 181.75 17.4061 181.75 15.6537C181.75 13.9013 182.111 12.3364 182.835 10.9573C183.543 9.61923 184.594 8.49416 185.881 7.6979C187.163 6.90399 188.611 6.50628 190.221 6.50628C191.924 6.50628 193.359 6.8918 194.526 7.66285C195.716 8.40951 196.591 9.52037 197.151 10.9924C197.734 12.44 197.968 14.2289 197.851 16.3547H184.551C184.666 17.499 184.981 18.5032 185.496 19.3688C185.986 20.2104 186.685 20.9106 187.526 21.4015C188.366 21.8693 189.321 22.1025 190.396 22.1025C191.586 22.1025 192.589 21.7977 193.406 21.1912C194.246 20.5604 194.818 19.7436 195.121 18.7379ZM190.326 9.13485C188.878 9.13485 187.666 9.55542 186.686 10.3966C185.706 11.2377 185.051 12.3821 184.726 13.8312H194.981C194.886 12.2891 194.386 11.1204 193.476 10.3265C192.615 9.54224 191.489 9.11608 190.326 9.13485ZM202.374 6.85675H205.174V24.3806H202.374V6.85675ZM211.194 6.50628C212.128 6.50628 212.968 6.64647 213.714 6.92685C214.461 7.20723 215.091 7.61561 215.604 8.15351C216.118 8.69142 216.514 9.34513 216.794 10.1162C217.074 10.8628 217.214 11.7162 217.214 12.6747V24.3806H214.414V13.3756C214.414 12.0194 214.099 11.0046 213.469 10.3265C212.839 9.64837 211.894 9.31009 210.634 9.31009C209.678 9.31009 208.791 9.55542 207.974 10.0461C207.144 10.5506 206.447 11.2479 205.944 12.0788C205.431 12.92 205.116 13.9013 204.999 15.0228L204.964 12.9901C205.081 12.0088 205.314 11.1204 205.664 10.3265C206.038 9.53256 206.493 8.85447 207.029 8.2937C207.563 7.72748 208.206 7.27458 208.919 6.9619C209.643 6.65713 210.401 6.50628 211.194 6.50628ZM221.443 6.85675H231.733V9.48532H221.443V6.85675ZM225.188 2.30056H227.988V24.3806H225.188V2.30056ZM235.114 18.7379H237.704C237.775 19.7436 238.147 20.5604 238.825 21.1912C239.525 21.8221 240.527 22.1375 241.835 22.1375C242.627 22.1375 243.245 22.0324 243.69 21.8221C244.155 21.6118 244.495 21.3314 244.705 20.9809C244.915 20.6076 245.02 20.1977 245.02 19.7543C245.02 19.2164 244.88 18.7958 244.6 18.4926C244.308 18.1399 243.936 17.8633 243.515 17.6865C243.015 17.4545 242.5 17.2555 241.975 17.0907C241.274 16.8243 240.574 16.5556 239.875 16.2846C239.175 15.9798 238.51 15.6293 237.88 15.2331C237.294 14.8345 236.794 14.322 236.409 13.7261C236.035 13.1181 235.849 12.3943 235.849 11.5531C235.849 10.8522 235.989 10.1969 236.269 9.59047C236.541 8.97075 236.947 8.41983 237.46 7.97828C238.006 7.50497 238.635 7.13665 239.315 6.8918C240.08 6.6277 240.885 6.4973 241.695 6.50628C242.86 6.50628 243.84 6.73942 244.635 7.20723C245.45 7.67504 246.07 8.34094 246.49 9.20494C246.933 10.0461 247.165 11.0274 247.19 12.1489H244.775C244.61 11.0975 244.272 10.3387 243.76 9.87085C243.27 9.38018 242.557 9.13485 241.625 9.13485C240.667 9.13485 239.932 9.34513 239.42 9.76571C238.905 10.1863 238.65 10.747 238.65 11.448C238.65 11.9615 238.835 12.3943 239.21 12.7448C239.582 13.0724 240.06 13.3756 240.645 13.656C241.25 13.9135 241.892 14.1817 242.57 14.4621C243.245 14.7425 243.9 15.0228 244.53 15.3032C245.16 15.5836 245.72 15.9112 246.21 16.2846C246.7 16.6579 247.085 17.1257 247.365 17.6865C247.668 18.2244 247.82 18.9009 247.82 19.7192C247.82 20.7006 247.585 21.5768 247.12 22.3478C246.675 23.0945 246.01 23.6796 245.125 24.1002C244.26 24.5208 243.2 24.731 241.94 24.731C240.795 24.731 239.815 24.5909 239 24.3105C238.272 24.0456 237.596 23.6541 237.005 23.1539C236.505 22.7101 236.08 22.1896 235.744 21.6118C235.479 21.1174 235.291 20.5857 235.184 20.0347C235.094 19.6086 235.071 19.1712 235.114 18.7379Z" fill="#13171C"/>
</svg>
