<svg width="48" height="48" viewBox="0 0 48 48" fill="none" xmlns="http://www.w3.org/2000/svg">
<rect width="48" height="48" rx="4" fill="#75AAF8"/>
<path fill-rule="evenodd" clip-rule="evenodd" d="M35 21H13V30C13 30.5523 13.4477 31 14 31H34C34.5523 31 35 30.5523 35 30V21ZM35 19H13V18C13 17.4477 13.4477 17 14 17H34C34.5523 17 35 17.4477 35 18V19ZM37 18C37 16.3431 35.6569 15 34 15H14C12.3431 15 11 16.3431 11 18V30C11 31.6569 12.3431 33 14 33H34C35.6569 33 37 31.6569 37 30V18Z" fill="white"/>
<path d="M15 27C15 26.4477 15.4477 26 16 26H17C17.5523 26 18 26.4477 18 27V28C18 28.5523 17.5523 29 17 29H16C15.4477 29 15 28.5523 15 28V27Z" fill="white"/>
</svg>
