<svg width="48" height="48" viewBox="0 0 48 48" fill="none" xmlns="http://www.w3.org/2000/svg">
<rect width="48" height="48" rx="4" fill="#E99A50"/>
<path fill-rule="evenodd" clip-rule="evenodd" d="M12.8163 15.5493C13.2672 15.5493 13.6327 15.7817 13.6327 16.0685V26.8611C13.6327 27.1478 13.2672 27.3803 12.8163 27.3803C12.3655 27.3803 12 27.1478 12 26.8611V16.0685C12 15.7817 12.3655 15.5493 12.8163 15.5493Z" fill="white"/>
<path fill-rule="evenodd" clip-rule="evenodd" d="M27.1835 15.5493C27.6344 15.5493 27.9998 15.7805 27.9998 16.0658V26.8638C27.9998 27.149 27.6344 27.3803 27.1835 27.3803C26.7327 27.3803 26.3672 27.149 26.3672 26.8638V16.0658C26.3672 15.7805 26.7327 15.5493 27.1835 15.5493Z" fill="white"/>
<path fill-rule="evenodd" clip-rule="evenodd" d="M24.9154 17.2135C26.2106 16.575 26.3113 16.0233 26.3113 15.9705C26.3113 15.9178 26.2106 15.366 24.9154 14.7275C23.742 14.1491 22.0061 13.7448 20.0003 13.7448C17.9945 13.7448 16.2587 14.1491 15.0852 14.7275C13.79 15.366 13.6893 15.9178 13.6893 15.9705C13.6893 16.0233 13.79 16.575 15.0852 17.2135C16.2587 17.792 17.9945 18.1963 20.0003 18.1963C22.0061 18.1963 23.742 17.792 24.9154 17.2135ZM20.0003 19.8864C24.3875 19.8864 27.944 18.1332 27.944 15.9705C27.944 13.8078 24.3875 12.0546 20.0003 12.0546C15.6131 12.0546 12.0566 13.8078 12.0566 15.9705C12.0566 18.1332 15.6131 19.8864 20.0003 19.8864Z" fill="white"/>
<path d="M12.0566 19.5776C12.0566 21.7403 15.6131 23.4935 20.0003 23.4935C24.3875 23.4935 27.944 21.7403 27.944 19.5776H26.3113C26.3113 19.6304 26.2106 20.1821 24.9154 20.8206C23.742 21.3991 22.0061 21.8034 20.0003 21.8034C17.9945 21.8034 16.2587 21.3991 15.0852 20.8206C13.79 20.1821 13.6893 19.6304 13.6893 19.5776L12.0566 19.5776Z" fill="white"/>
<path d="M12.0566 26.9886C12.0566 29.1513 15.6131 30.9045 20.0003 30.9045C24.3875 30.9045 27.944 29.1513 27.944 26.9886H26.3113C26.3113 27.0414 26.2106 27.5931 24.9154 28.2316C23.742 28.8101 22.0061 29.2144 20.0003 29.2144C17.9945 29.2144 16.2587 28.8101 15.0852 28.2316C13.79 27.5931 13.6893 27.0414 13.6893 26.9886H12.0566Z" fill="white"/>
<path d="M12.0566 23.4106C12.0566 25.5733 15.6131 27.3265 20.0003 27.3265C24.3875 27.3265 27.944 25.5733 27.944 23.4106H26.3113C26.3113 23.4634 26.2106 24.0152 24.9154 24.6536C23.742 25.2321 22.0061 25.6364 20.0003 25.6364C17.9945 25.6364 16.2587 25.2321 15.0852 24.6536C13.79 24.0152 13.6893 23.4634 13.6893 23.4106H12.0566Z" fill="white"/>
<path d="M22.037 22.5001L21 24.0001V29.5001L21.5185 31.0001L22.5556 32.0001L25.1481 32.5001L27.2222 33.0001L30.3333 32.5001L32.4074 32.0001L34.4815 31.0001L35 30.0001V28.0001V26.5001L34.4815 24.0001L33.963 22.5001L32.4074 21.5001L30.8519 21.0001H28.7778H26.7037L24.1111 21.5001L22.037 22.5001Z" fill="#E99A50"/>
<path fill-rule="evenodd" clip-rule="evenodd" d="M20.8163 24.169C21.2672 24.169 21.6327 24.3317 21.6327 24.5324V32.0873C21.6327 32.288 21.2672 32.4507 20.8163 32.4507C20.3655 32.4507 20 32.288 20 32.0873V24.5324C20 24.3317 20.3655 24.169 20.8163 24.169Z" fill="white"/>
<path fill-rule="evenodd" clip-rule="evenodd" d="M35.1835 24.169C35.6344 24.169 35.9998 24.3309 35.9998 24.5306V32.0891C35.9998 32.2888 35.6344 32.4507 35.1835 32.4507C34.7327 32.4507 34.3672 32.2888 34.3672 32.0891V24.5306C34.3672 24.3309 34.7327 24.169 35.1835 24.169Z" fill="white"/>
<path fill-rule="evenodd" clip-rule="evenodd" d="M32.9154 25.7786C34.2106 25.1402 34.3113 24.5884 34.3113 24.5356C34.3113 24.4829 34.2106 23.9311 32.9154 23.2927C31.742 22.7142 30.0061 22.3099 28.0003 22.3099C25.9945 22.3099 24.2587 22.7142 23.0852 23.2927C21.79 23.9311 21.6893 24.4829 21.6893 24.5356C21.6893 24.5884 21.79 25.1402 23.0852 25.7786C24.2587 26.3571 25.9945 26.7614 28.0003 26.7614C30.0061 26.7614 31.742 26.3571 32.9154 25.7786ZM28.0003 28.4515C32.3875 28.4515 35.944 26.6983 35.944 24.5356C35.944 22.373 32.3875 20.6198 28.0003 20.6198C23.6131 20.6198 20.0566 22.373 20.0566 24.5356C20.0566 26.6983 23.6131 28.4515 28.0003 28.4515Z" fill="white"/>
<path d="M20.0566 28.1427C20.0566 30.3054 23.6131 32.0586 28.0003 32.0586C32.3875 32.0586 35.944 30.3054 35.944 28.1427H34.3113C34.3113 28.1955 34.2106 28.7472 32.9154 29.3857C31.742 29.9642 30.0061 30.3685 28.0003 30.3685C25.9945 30.3685 24.2587 29.9642 23.0852 29.3857C21.79 28.7472 21.6893 28.1955 21.6893 28.1427L20.0566 28.1427Z" fill="white"/>
<path d="M20.0566 31.9758C20.0566 34.1385 23.6131 35.8917 28.0003 35.8917C32.3875 35.8917 35.944 34.1385 35.944 31.9758H34.3113C34.3113 32.0286 34.2106 32.5803 32.9154 33.2188C31.742 33.7973 30.0061 34.2016 28.0003 34.2016C25.9945 34.2016 24.2587 33.7973 23.0852 33.2188C21.79 32.5803 21.6893 32.0286 21.6893 31.9758H20.0566Z" fill="white"/>
</svg>
