<svg width="40" height="40" viewBox="0 0 40 40" fill="none" xmlns="http://www.w3.org/2000/svg">
<path fill-rule="evenodd" clip-rule="evenodd" d="M20.072 25.2002C20.6795 25.2002 21.172 25.6927 21.172 26.3002V30.0903C21.172 30.6978 20.6795 31.1903 20.072 31.1903C19.4645 31.1903 18.972 30.6978 18.972 30.0903V26.3002C18.972 25.6927 19.4645 25.2002 20.072 25.2002Z" fill="#2B2B36"/>
<path fill-rule="evenodd" clip-rule="evenodd" d="M14.8504 13.2428C14.8504 10.292 17.2425 7.89999 20.1932 7.89999C23.1439 7.89999 25.536 10.292 25.536 13.2428V17.3673C25.536 20.318 23.1439 22.71 20.1932 22.71C17.2425 22.71 14.8504 20.318 14.8504 17.3672V13.2428ZM20.1932 10.1C18.4575 10.1 17.0504 11.5071 17.0504 13.2428V17.3672C17.0504 19.103 18.4575 20.51 20.1932 20.51C21.9289 20.51 23.336 19.103 23.336 17.3673V13.2428C23.336 11.5071 21.9289 10.1 20.1932 10.1Z" fill="#2B2B36"/>
<path fill-rule="evenodd" clip-rule="evenodd" d="M11.2352 18.9376C11.8099 18.7405 12.4355 19.0466 12.6326 19.6212C13.7103 22.7628 16.6902 25.0184 20.1941 25.0184C23.698 25.0184 26.6779 22.7628 27.7556 19.6212C27.9527 19.0466 28.5783 18.7405 29.153 18.9376C29.7276 19.1348 30.0337 19.7604 29.8365 20.3351C28.4633 24.3384 24.6664 27.2184 20.1941 27.2184C15.7218 27.2184 11.925 24.3384 10.5517 20.3351C10.3545 19.7604 10.6606 19.1348 11.2352 18.9376Z" fill="#2B2B36"/>
</svg>
