<svg width="350" height="293" viewBox="0 0 350 293" fill="none" xmlns="http://www.w3.org/2000/svg">
<path d="M-107 145.706L-90.6602 288.666C-90.6388 288.938 -90.5645 289.191 -90.4485 289.386C-90.3326 289.581 -90.1815 289.707 -90.0183 289.746C-89.8551 289.784 -89.6888 289.732 -89.545 289.598C-89.4011 289.464 -89.2876 289.256 -89.2218 289.004L-78.7444 251.688C-78.6821 251.447 -78.576 251.245 -78.441 251.111C-78.306 250.976 -78.149 250.915 -77.9921 250.938C-77.8353 250.96 -77.6867 251.063 -77.5672 251.234C-77.4477 251.404 -77.3634 251.633 -77.3262 251.888L-63.9985 327.045C-63.956 327.329 -63.8554 327.58 -63.714 327.754C-63.5726 327.927 -63.3993 328.014 -63.2238 327.998C-63.0483 327.982 -62.8816 327.865 -62.7523 327.667C-62.623 327.469 -62.5392 327.202 -62.5153 326.912L-50.7381 225.98C-50.7127 225.677 -50.6223 225.4 -50.4835 225.2C-50.3448 225 -50.1672 224.89 -49.9836 224.892C-49.8 224.893 -49.6229 225.005 -49.4851 225.207C-49.3474 225.409 -49.2582 225.687 -49.2343 225.99L-46.5719 249.696C-46.5482 249.997 -46.4602 250.274 -46.3239 250.476C-46.1877 250.677 -46.0124 250.791 -45.8302 250.795C-45.6479 250.799 -45.4708 250.693 -45.3314 250.498C-45.1919 250.302 -45.0995 250.03 -45.0709 249.73L-36.7551 184.324C-36.727 184.028 -36.6363 183.757 -36.4993 183.562C-36.3623 183.367 -36.1879 183.259 -36.0075 183.259C-35.8271 183.259 -35.6525 183.365 -35.5152 183.56C-35.378 183.755 -35.2869 184.025 -35.2585 184.322L-30.1544 224.088C-30.1262 224.382 -30.0365 224.65 -29.9012 224.844C-29.7659 225.038 -29.5936 225.147 -29.4149 225.15C-29.2362 225.153 -29.0625 225.051 -28.9247 224.862C-28.7869 224.672 -28.6937 224.408 -28.6618 224.115L-26.1253 206.047C-26.0932 205.754 -25.9995 205.488 -25.861 205.299C-25.7224 205.109 -25.548 205.008 -25.3687 205.012C-25.1894 205.017 -25.0169 205.127 -24.8819 205.324C-24.7469 205.52 -24.6581 205.79 -24.6313 206.085L-17.1483 266.657C-17.1203 266.961 -17.0265 267.238 -16.8846 267.435C-16.7427 267.633 -16.5624 267.737 -16.3775 267.729C-16.1927 267.721 -16.0159 267.601 -15.8805 267.391C-15.7451 267.181 -15.6603 266.896 -15.6421 266.59L-3.74837 140.832C-3.73061 140.531 -3.64834 140.25 -3.51659 140.041C-3.38483 139.832 -3.21237 139.709 -3.03065 139.694C-2.84893 139.68 -2.67006 139.774 -2.52669 139.961C-2.38332 140.147 -2.28499 140.413 -2.24965 140.71L7.56506 206.877C7.59906 207.166 7.69283 207.426 7.83004 207.612C7.96725 207.798 8.13924 207.898 8.31612 207.894C8.49299 207.891 8.66357 207.785 8.79819 207.594C8.93282 207.402 9.02297 207.139 9.05299 206.849L13.3958 174.81C13.4256 174.521 13.515 174.258 13.6485 174.067C13.782 173.877 13.9514 173.769 14.1273 173.764C14.3033 173.759 14.4748 173.856 14.6124 174.038C14.75 174.221 14.8451 174.478 14.8812 174.764L17.1587 189.365C17.1972 189.665 17.3001 189.932 17.448 190.115C17.5959 190.298 17.7789 190.386 17.9626 190.361C18.1464 190.336 18.3185 190.201 18.4468 189.98C18.5752 189.76 18.6509 189.469 18.66 189.163L25.6651 85.6222C25.6754 85.298 25.7599 84.9928 25.9011 84.769C26.0423 84.5453 26.2297 84.4201 26.4246 84.4191C26.6195 84.4181 26.8073 84.5415 26.9493 84.7638C27.0914 84.9861 27.1769 85.2905 27.1884 85.6145L36.5293 217.408C36.5398 217.721 36.6195 218.016 36.7529 218.236C36.8863 218.457 37.0641 218.587 37.2518 218.602C37.4395 218.617 37.624 218.516 37.7695 218.318C37.9151 218.12 38.0116 217.84 38.0402 217.53L43.6412 172.092C43.6691 171.788 43.7624 171.511 43.9038 171.314C44.0453 171.116 44.2251 171.011 44.4096 171.018C44.5941 171.026 44.7707 171.144 44.9064 171.353C45.0421 171.561 45.1276 171.845 45.1468 172.15L53.8031 260.787C53.8212 261.081 53.9009 261.355 54.0281 261.562C54.1553 261.768 54.322 261.893 54.4991 261.915C54.6761 261.938 54.8522 261.856 54.9967 261.684C55.1411 261.512 55.2446 261.261 55.2892 260.975L63.5009 215.885C63.5415 215.619 63.6334 215.382 63.7627 215.212C63.8919 215.041 64.0512 214.946 64.2161 214.941C64.381 214.935 64.5424 215.021 64.6754 215.183C64.8084 215.346 64.9056 215.576 64.9521 215.84L69.9802 240.463C70.0271 240.728 70.1252 240.96 70.2593 241.123C70.3934 241.285 70.556 241.37 70.7219 241.363C70.8877 241.355 71.0475 241.257 71.1764 241.083C71.3053 240.909 71.396 240.669 71.4345 240.401L80.4585 188.483C80.5012 188.192 80.6046 187.936 80.7501 187.761C80.8957 187.585 81.074 187.501 81.2531 187.524C81.4323 187.548 81.6007 187.676 81.7283 187.887C81.8559 188.097 81.9343 188.377 81.9497 188.675L93.9204 324.573C93.9367 324.883 94.021 325.172 94.1571 325.385C94.2933 325.598 94.4717 325.72 94.6585 325.728C94.8452 325.735 95.0271 325.628 95.1694 325.427C95.3118 325.226 95.4047 324.944 95.4303 324.636L100.603 279.731C100.626 279.446 100.707 279.182 100.832 278.984C100.958 278.786 101.12 278.666 101.293 278.643C101.465 278.621 101.637 278.697 101.779 278.86C101.922 279.023 102.026 279.263 102.076 279.538L106.629 301.835C106.68 302.119 106.79 302.365 106.94 302.527C107.089 302.69 107.268 302.76 107.446 302.724C107.623 302.688 107.787 302.55 107.909 302.332C108.03 302.115 108.102 301.833 108.112 301.536L121.117 114.896C121.127 114.582 121.207 114.286 121.341 114.065C121.475 113.844 121.653 113.713 121.842 113.699C122.03 113.685 122.215 113.787 122.361 113.987C122.506 114.187 122.602 114.47 122.629 114.781L130.076 177.469C130.101 177.761 130.186 178.03 130.318 178.228C130.45 178.426 130.619 178.54 130.797 178.551C130.974 178.563 131.148 178.469 131.289 178.288C131.429 178.107 131.527 177.85 131.564 177.561L138.326 135.419C138.36 135.151 138.446 134.91 138.57 134.732C138.695 134.553 138.851 134.447 139.015 134.43C139.179 134.413 139.341 134.486 139.478 134.637C139.615 134.789 139.718 135.01 139.772 135.269L146.161 162.574C146.218 162.842 146.327 163.07 146.471 163.221C146.616 163.372 146.786 163.438 146.956 163.407C147.125 163.376 147.283 163.25 147.405 163.05C147.526 162.851 147.603 162.588 147.623 162.307L158.454 62.0091C158.478 61.692 158.574 61.4018 158.721 61.1967C158.868 60.9915 159.056 60.8865 159.248 60.9025C159.44 60.9186 159.621 61.0546 159.755 61.2834C159.889 61.5122 159.967 61.8168 159.972 62.1364L167.254 197.014C167.259 197.327 167.333 197.625 167.461 197.852C167.59 198.08 167.765 198.22 167.952 198.245C168.139 198.271 168.325 198.181 168.474 197.992C168.624 197.803 168.726 197.529 168.762 197.222L176.019 146.699C176.051 146.414 176.141 146.157 176.273 145.97C176.406 145.783 176.573 145.677 176.747 145.672C176.921 145.666 177.09 145.76 177.227 145.938C177.364 146.116 177.46 146.367 177.499 146.649L182.405 176.139C182.445 176.427 182.544 176.682 182.685 176.861C182.827 177.039 183.001 177.129 183.178 177.116C183.355 177.102 183.524 176.985 183.654 176.785C183.785 176.586 183.87 176.316 183.893 176.023L191.559 109.004C191.584 108.701 191.674 108.423 191.812 108.222C191.951 108.021 192.128 107.91 192.312 107.91C192.495 107.91 192.673 108.022 192.811 108.223C192.949 108.424 193.039 108.702 193.063 109.006L204.59 210.359C204.616 210.668 204.709 210.951 204.851 211.153C204.994 211.355 205.177 211.462 205.364 211.453C205.552 211.445 205.73 211.322 205.867 211.107C206.003 210.892 206.086 210.602 206.101 210.29L223.671 2.16227C223.686 1.8498 223.771 1.55801 223.908 1.34336C224.045 1.12871 224.225 1.00645 224.414 1.00025C224.602 0.994044 224.785 1.10435 224.927 1.30979C225.069 1.51523 225.161 1.80121 225.184 2.11241L234.373 88.9661C234.394 89.2662 234.479 89.5436 234.613 89.7478C234.747 89.952 234.92 90.0695 235.102 90.079C235.283 90.0885 235.461 89.9893 235.602 89.7995C235.743 89.6097 235.839 89.3418 235.871 89.0446L241.523 48.7862C241.556 48.4868 241.653 48.2173 241.796 48.0273C241.939 47.8374 242.118 47.7397 242.301 47.7524C242.483 47.765 242.657 47.8871 242.79 48.0962C242.923 48.3053 243.006 48.5872 243.024 48.8902L252.517 149.013C252.534 149.313 252.616 149.592 252.746 149.801C252.877 150.009 253.048 150.133 253.229 150.15C253.41 150.166 253.588 150.075 253.732 149.892C253.875 149.708 253.975 149.446 254.013 149.151L260.513 107.48C260.549 107.193 260.644 106.936 260.781 106.753C260.919 106.571 261.09 106.474 261.266 106.479C261.442 106.484 261.612 106.591 261.745 106.782C261.879 106.973 261.968 107.236 261.998 107.524L273.013 188.601C273.042 188.882 273.127 189.138 273.255 189.328C273.383 189.518 273.545 189.629 273.716 189.644C273.887 189.66 274.056 189.578 274.195 189.412C274.335 189.247 274.436 189.007 274.483 188.733L283.642 142.309C283.685 142.053 283.776 141.827 283.901 141.663C284.027 141.499 284.181 141.405 284.34 141.396C284.5 141.388 284.657 141.464 284.788 141.613C284.92 141.763 285.02 141.979 285.073 142.23L292.432 173.205C292.488 173.466 292.594 173.689 292.734 173.839C292.874 173.989 293.04 174.058 293.206 174.034C293.372 174.01 293.529 173.896 293.651 173.708C293.774 173.52 293.856 173.27 293.884 172.997L310.641 50.925C310.672 50.6319 310.764 50.3665 310.901 50.1758C311.039 49.9852 311.212 49.8815 311.391 49.8831C311.569 49.8847 311.742 49.9916 311.878 50.1848C312.014 50.378 312.104 50.645 312.133 50.9386L337.005 240.559C337.033 240.849 337.122 241.113 337.255 241.306C337.388 241.499 337.557 241.608 337.734 241.615C337.91 241.622 338.082 241.526 338.221 241.343C338.359 241.161 338.455 240.904 338.491 240.617L348.458 177.23C348.493 176.949 348.586 176.697 348.719 176.515C348.853 176.333 349.02 176.234 349.193 176.232C349.365 176.231 349.533 176.328 349.668 176.507C349.802 176.686 349.896 176.937 349.934 177.218L355.894 213.779C355.93 214.053 356.021 214.299 356.151 214.478C356.281 214.657 356.444 214.757 356.613 214.764C356.781 214.77 356.946 214.683 357.082 214.514C357.217 214.346 357.314 214.107 357.358 213.836L373.951 126.535C373.993 126.272 374.085 126.039 374.214 125.872C374.343 125.704 374.502 125.611 374.665 125.607C374.829 125.603 374.989 125.687 375.121 125.848C375.253 126.009 375.35 126.237 375.397 126.498L384.72 171.196C384.763 171.439 384.851 171.655 384.97 171.813C385.089 171.972 385.235 172.066 385.387 172.083C385.539 172.1 385.691 172.039 385.822 171.909C385.953 171.778 386.057 171.584 386.119 171.352L394.272 143.526C394.338 143.285 394.448 143.085 394.586 142.955C394.724 142.824 394.884 142.77 395.042 142.801C395.199 142.831 395.348 142.944 395.464 143.123C395.581 143.302 395.661 143.538 395.693 143.797L417 282.49" stroke="#F7F7F9" stroke-width="0.93431" stroke-miterlimit="10"/>
<path d="M399.13 221.172C399.099 221.172 399.069 221.162 399.04 221.142C399.012 221.123 398.986 221.094 398.964 221.058C398.943 221.022 398.926 220.979 398.914 220.932C398.902 220.885 398.896 220.834 398.896 220.783V74.9454C398.896 74.8423 398.921 74.7435 398.965 74.6706C399.008 74.5977 399.068 74.5568 399.13 74.5568C399.192 74.5568 399.251 74.5977 399.295 74.6706C399.338 74.7435 399.363 74.8423 399.363 74.9454V220.783C399.363 220.834 399.357 220.885 399.345 220.932C399.334 220.979 399.317 221.022 399.295 221.058C399.273 221.094 399.247 221.123 399.219 221.142C399.191 221.162 399.16 221.172 399.13 221.172Z" fill="url(#paint0_linear_1772_21224)"/>
<path d="M393.755 100.976V198.177H404.503V100.976H393.755Z" fill="url(#paint1_linear_1772_21224)"/>
<path d="M227.467 219.019C227.436 219.019 227.406 219.009 227.377 218.989C227.349 218.97 227.323 218.941 227.302 218.905C227.28 218.869 227.263 218.826 227.251 218.779C227.239 218.732 227.233 218.681 227.233 218.63V72.7926C227.233 72.7413 227.239 72.6904 227.251 72.6429C227.262 72.5954 227.279 72.5522 227.301 72.5158C227.323 72.4793 227.349 72.4504 227.377 72.4307C227.406 72.411 227.436 72.4008 227.467 72.4008C227.498 72.4008 227.528 72.411 227.557 72.4307C227.585 72.4504 227.611 72.4793 227.633 72.5158C227.654 72.5522 227.671 72.5954 227.683 72.6429C227.695 72.6904 227.701 72.7413 227.7 72.7926V218.63C227.7 218.681 227.694 218.732 227.683 218.779C227.671 218.826 227.654 218.869 227.632 218.905C227.61 218.941 227.585 218.97 227.556 218.989C227.528 219.009 227.498 219.019 227.467 219.019Z" fill="url(#paint2_linear_1772_21224)"/>
<path d="M222.093 98.8198V196.024H232.841V98.8198H222.093Z" fill="url(#paint3_linear_1772_21224)"/>
<path d="M356.213 257.951C356.182 257.951 356.152 257.941 356.123 257.921C356.095 257.902 356.069 257.873 356.048 257.837C356.026 257.801 356.009 257.758 355.997 257.711C355.985 257.664 355.979 257.613 355.979 257.562V147.865C355.979 147.814 355.985 147.763 355.997 147.715C356.008 147.668 356.025 147.624 356.047 147.588C356.069 147.552 356.095 147.523 356.123 147.503C356.152 147.483 356.182 147.473 356.213 147.473C356.244 147.473 356.274 147.483 356.303 147.503C356.331 147.523 356.357 147.552 356.379 147.588C356.4 147.624 356.417 147.668 356.429 147.715C356.441 147.763 356.447 147.814 356.446 147.865V257.562C356.446 257.613 356.44 257.664 356.429 257.711C356.417 257.758 356.4 257.801 356.378 257.837C356.356 257.873 356.331 257.902 356.302 257.921C356.274 257.941 356.244 257.951 356.213 257.951Z" fill="url(#paint4_linear_1772_21224)"/>
<path d="M350.84 167.444V240.556H361.587V167.444H350.84Z" fill="url(#paint5_linear_1772_21224)"/>
<path d="M341.909 215.168C341.878 215.168 341.848 215.158 341.819 215.138C341.791 215.119 341.765 215.09 341.744 215.054C341.722 215.018 341.705 214.975 341.693 214.928C341.681 214.881 341.675 214.83 341.675 214.779V105.082C341.676 104.979 341.701 104.881 341.744 104.809C341.788 104.737 341.847 104.696 341.909 104.696C341.97 104.696 342.029 104.737 342.073 104.809C342.117 104.881 342.142 104.979 342.142 105.082V214.779C342.142 214.83 342.136 214.881 342.124 214.928C342.113 214.975 342.096 215.018 342.074 215.054C342.052 215.09 342.026 215.119 341.998 215.138C341.97 215.158 341.939 215.168 341.909 215.168Z" fill="url(#paint6_linear_1772_21224)"/>
<path d="M336.536 124.662V197.776H347.282V124.662H336.536Z" fill="url(#paint7_linear_1772_21224)"/>
<path d="M384.824 240.947C384.793 240.947 384.763 240.937 384.735 240.918C384.706 240.898 384.681 240.869 384.659 240.833C384.637 240.797 384.62 240.754 384.608 240.707C384.597 240.66 384.591 240.609 384.591 240.558V114.611C384.591 114.508 384.615 114.409 384.659 114.336C384.703 114.263 384.762 114.222 384.824 114.222C384.886 114.222 384.945 114.263 384.989 114.336C385.033 114.409 385.057 114.508 385.057 114.611V240.558C385.058 240.609 385.052 240.66 385.04 240.707C385.028 240.754 385.011 240.797 384.989 240.833C384.968 240.869 384.942 240.898 384.913 240.918C384.885 240.937 384.855 240.947 384.824 240.947Z" fill="url(#paint8_linear_1772_21224)"/>
<path d="M379.451 137.089V221.032H390.198V137.089H379.451Z" fill="url(#paint9_linear_1772_21224)"/>
<path d="M313.298 207.595C313.267 207.595 313.237 207.585 313.208 207.565C313.18 207.546 313.154 207.517 313.132 207.481C313.111 207.445 313.093 207.402 313.082 207.355C313.07 207.308 313.064 207.257 313.064 207.206V81.2587C313.065 81.1561 313.089 81.0581 313.133 80.9858C313.177 80.9136 313.236 80.8731 313.298 80.8731C313.359 80.8731 313.418 80.9136 313.462 80.9858C313.506 81.0581 313.53 81.1561 313.531 81.2587V207.206C313.531 207.257 313.525 207.308 313.513 207.355C313.502 207.402 313.484 207.445 313.463 207.481C313.441 207.517 313.415 207.546 313.387 207.565C313.359 207.585 313.328 207.595 313.298 207.595Z" fill="url(#paint10_linear_1772_21224)"/>
<path d="M307.925 103.738V187.681H318.671V103.738H307.925Z" fill="url(#paint11_linear_1772_21224)"/>
<path d="M270.382 284.397C270.352 284.397 270.321 284.387 270.293 284.367C270.264 284.348 270.239 284.319 270.217 284.283C270.195 284.247 270.178 284.204 270.166 284.157C270.155 284.11 270.149 284.059 270.149 284.008V158.06C270.149 158.009 270.154 157.958 270.166 157.911C270.178 157.863 270.195 157.82 270.216 157.784C270.238 157.747 270.264 157.718 270.292 157.699C270.321 157.679 270.351 157.669 270.382 157.669C270.413 157.669 270.444 157.679 270.472 157.699C270.5 157.718 270.526 157.747 270.548 157.784C270.57 157.82 270.587 157.863 270.598 157.911C270.61 157.958 270.616 158.009 270.616 158.06V284.008C270.616 284.059 270.61 284.11 270.598 284.157C270.586 284.204 270.569 284.247 270.547 284.283C270.526 284.319 270.5 284.348 270.472 284.367C270.443 284.387 270.413 284.397 270.382 284.397Z" fill="url(#paint12_linear_1772_21224)"/>
<path d="M265.009 180.541V264.484H275.756V180.541H265.009Z" fill="url(#paint13_linear_1772_21224)"/>
<path d="M213.16 284.397C213.129 284.397 213.099 284.387 213.07 284.367C213.042 284.348 213.016 284.319 212.995 284.283C212.973 284.247 212.956 284.204 212.944 284.157C212.932 284.11 212.926 284.059 212.926 284.008V158.06C212.926 158.009 212.932 157.958 212.944 157.911C212.955 157.863 212.972 157.82 212.994 157.784C213.016 157.747 213.042 157.718 213.07 157.699C213.098 157.679 213.129 157.669 213.16 157.669C213.191 157.669 213.221 157.679 213.25 157.699C213.278 157.718 213.304 157.747 213.326 157.784C213.347 157.82 213.364 157.863 213.376 157.911C213.388 157.958 213.393 158.009 213.393 158.06V284.008C213.393 284.059 213.387 284.11 213.376 284.157C213.364 284.204 213.347 284.247 213.325 284.283C213.303 284.319 213.278 284.348 213.249 284.367C213.221 284.387 213.19 284.397 213.16 284.397Z" fill="url(#paint14_linear_1772_21224)"/>
<path d="M207.787 180.541V264.484H218.534V180.541H207.787Z" fill="url(#paint15_linear_1772_21224)"/>
<path d="M127.328 248.461C127.297 248.461 127.267 248.451 127.238 248.431C127.21 248.412 127.184 248.383 127.163 248.347C127.141 248.311 127.124 248.268 127.112 248.221C127.1 248.174 127.094 248.123 127.094 248.072V122.125C127.094 122.022 127.119 121.923 127.163 121.85C127.206 121.777 127.266 121.736 127.328 121.736C127.39 121.736 127.449 121.777 127.493 121.85C127.536 121.923 127.561 122.022 127.561 122.125V248.072C127.561 248.123 127.555 248.174 127.543 248.221C127.532 248.268 127.515 248.311 127.493 248.347C127.471 248.383 127.445 248.412 127.417 248.431C127.389 248.451 127.358 248.461 127.328 248.461Z" fill="url(#paint16_linear_1772_21224)"/>
<path d="M121.956 144.603V228.549H132.703V144.603H121.956Z" fill="url(#paint17_linear_1772_21224)"/>
<path d="M70.1068 180.37C70.0761 180.37 70.0457 180.36 70.0174 180.34C69.989 180.321 69.9633 180.292 69.9416 180.256C69.9199 180.22 69.9027 180.177 69.891 180.13C69.8793 180.083 69.8733 180.032 69.8734 179.981V54.0336C69.8734 53.9305 69.8979 53.8317 69.9417 53.7588C69.9855 53.6859 70.0449 53.645 70.1068 53.645C70.1687 53.645 70.228 53.6859 70.2718 53.7588C70.3156 53.8317 70.3402 53.9305 70.3402 54.0336V179.981C70.3402 180.032 70.3342 180.083 70.3225 180.13C70.3108 180.177 70.2936 180.22 70.2719 180.256C70.2502 180.292 70.2245 180.321 70.1961 180.34C70.1678 180.36 70.1374 180.37 70.1068 180.37Z" fill="url(#paint18_linear_1772_21224)"/>
<path d="M64.7339 76.5123V160.455H75.4805V76.5123H64.7339Z" fill="url(#paint19_linear_1772_21224)"/>
<path d="M-30.028 203.586C-30.0587 203.586 -30.0891 203.576 -30.1174 203.557C-30.1457 203.537 -30.1715 203.508 -30.1932 203.472C-30.2149 203.436 -30.2321 203.393 -30.2438 203.346C-30.2555 203.299 -30.2615 203.248 -30.2614 203.197V77.2474C-30.2609 77.1449 -30.2361 77.0468 -30.1924 76.9746C-30.1487 76.9024 -30.0896 76.8618 -30.028 76.8618C-29.9664 76.8618 -29.9073 76.9024 -29.8636 76.9746C-29.8199 77.0468 -29.7951 77.1449 -29.7946 77.2474V203.197C-29.7946 203.248 -29.8005 203.299 -29.8123 203.346C-29.824 203.393 -29.8412 203.436 -29.8628 203.472C-29.8845 203.508 -29.9103 203.537 -29.9386 203.557C-29.967 203.576 -29.9974 203.586 -30.028 203.586Z" fill="url(#paint20_linear_1772_21224)"/>
<path d="M-35.4038 99.7292V183.674H-24.6557V99.7292H-35.4038Z" fill="url(#paint21_linear_1772_21224)"/>
<path d="M55.8012 202.108C55.7705 202.108 55.7401 202.098 55.7118 202.078C55.6834 202.059 55.6577 202.03 55.636 201.994C55.6143 201.958 55.5971 201.915 55.5854 201.868C55.5737 201.821 55.5677 201.77 55.5678 201.719V75.7716C55.5678 75.6685 55.5923 75.5697 55.6361 75.4968C55.6799 75.4239 55.7393 75.383 55.8012 75.383C55.8631 75.383 55.9224 75.4239 55.9662 75.4968C56.01 75.5697 56.0346 75.6685 56.0346 75.7716V201.719C56.0346 201.77 56.0286 201.821 56.0169 201.868C56.0052 201.915 55.988 201.958 55.9663 201.994C55.9446 202.03 55.9189 202.059 55.8905 202.078C55.8622 202.098 55.8318 202.108 55.8012 202.108Z" fill="url(#paint22_linear_1772_21224)"/>
<path d="M50.4283 98.2503V182.195H61.1764V98.2503H50.4283Z" fill="url(#paint23_linear_1772_21224)"/>
<path d="M256.078 220.592C256.047 220.592 256.017 220.582 255.989 220.562C255.96 220.543 255.935 220.514 255.913 220.478C255.891 220.442 255.874 220.399 255.862 220.352C255.851 220.305 255.845 220.254 255.845 220.203V117.111C255.845 117.008 255.87 116.91 255.914 116.838C255.957 116.766 256.016 116.725 256.078 116.725C256.14 116.725 256.199 116.766 256.242 116.838C256.286 116.91 256.311 117.008 256.311 117.111V220.203C256.312 220.254 256.306 220.305 256.294 220.352C256.282 220.399 256.265 220.442 256.243 220.478C256.222 220.514 256.196 220.543 256.167 220.562C256.139 220.582 256.109 220.592 256.078 220.592Z" fill="url(#paint24_linear_1772_21224)"/>
<path d="M250.702 135.51V204.224H261.45V135.51H250.702Z" fill="url(#paint25_linear_1772_21224)"/>
<path d="M298.993 219.565C298.963 219.565 298.932 219.555 298.904 219.536C298.876 219.516 298.85 219.488 298.828 219.452C298.807 219.415 298.789 219.373 298.778 219.325C298.766 219.278 298.76 219.228 298.76 219.176V115.71C298.76 115.607 298.785 115.509 298.829 115.437C298.873 115.365 298.932 115.324 298.993 115.324C299.055 115.324 299.114 115.365 299.158 115.437C299.202 115.509 299.226 115.607 299.227 115.71V219.176C299.227 219.227 299.221 219.278 299.209 219.325C299.197 219.372 299.18 219.415 299.159 219.451C299.137 219.488 299.111 219.516 299.083 219.536C299.054 219.555 299.024 219.565 298.993 219.565Z" fill="url(#paint26_linear_1772_21224)"/>
<path d="M293.619 134.176V203.137H304.367V134.176H293.619Z" fill="url(#paint27_linear_1772_21224)"/>
<path d="M170.244 268.183C170.214 268.183 170.183 268.173 170.155 268.154C170.127 268.134 170.101 268.105 170.079 268.069C170.058 268.033 170.04 267.99 170.029 267.943C170.017 267.896 170.011 267.845 170.011 267.794V164.325C170.011 164.274 170.017 164.223 170.028 164.176C170.04 164.128 170.057 164.085 170.079 164.049C170.1 164.012 170.126 163.983 170.155 163.964C170.183 163.944 170.214 163.934 170.244 163.934C170.275 163.934 170.306 163.944 170.334 163.964C170.363 163.983 170.388 164.012 170.41 164.049C170.432 164.085 170.449 164.128 170.461 164.176C170.472 164.223 170.478 164.274 170.478 164.325V267.794C170.478 267.845 170.472 267.896 170.46 267.943C170.449 267.99 170.431 268.033 170.41 268.069C170.388 268.105 170.362 268.134 170.334 268.154C170.306 268.173 170.275 268.183 170.244 268.183Z" fill="url(#paint28_linear_1772_21224)"/>
<path d="M164.872 182.792V251.754H175.618V182.792H164.872Z" fill="url(#paint29_linear_1772_21224)"/>
<path d="M141.633 263.789C141.603 263.789 141.572 263.779 141.544 263.76C141.516 263.74 141.49 263.712 141.468 263.675C141.446 263.639 141.429 263.596 141.418 263.549C141.406 263.502 141.4 263.451 141.4 263.4V159.932C141.4 159.829 141.425 159.731 141.469 159.659C141.513 159.587 141.572 159.546 141.633 159.546C141.695 159.546 141.754 159.587 141.798 159.659C141.841 159.731 141.866 159.829 141.867 159.932V263.4C141.867 263.451 141.861 263.502 141.849 263.549C141.837 263.596 141.82 263.639 141.798 263.675C141.777 263.712 141.751 263.74 141.723 263.76C141.694 263.779 141.664 263.789 141.633 263.789Z" fill="url(#paint30_linear_1772_21224)"/>
<path d="M136.26 178.4V247.361H147.007V178.4H136.26Z" fill="url(#paint31_linear_1772_21224)"/>
<path d="M98.7179 234.586C98.6873 234.586 98.6569 234.576 98.6286 234.556C98.6002 234.537 98.5745 234.508 98.5528 234.472C98.5311 234.436 98.5139 234.393 98.5022 234.346C98.4905 234.299 98.4845 234.248 98.4845 234.197V130.728C98.485 130.626 98.5098 130.528 98.5536 130.456C98.5973 130.383 98.6564 130.343 98.718 130.343C98.7795 130.343 98.8386 130.383 98.8824 130.456C98.9261 130.528 98.9509 130.626 98.9514 130.728V234.197C98.9514 234.248 98.9454 234.299 98.9337 234.346C98.922 234.393 98.9048 234.436 98.8831 234.472C98.8614 234.508 98.8357 234.537 98.8073 234.556C98.779 234.576 98.7486 234.586 98.7179 234.586Z" fill="url(#paint32_linear_1772_21224)"/>
<path d="M93.3451 149.196V218.158H104.092V149.196H93.3451Z" fill="url(#paint33_linear_1772_21224)"/>
<path d="M12.8858 202.492C12.8552 202.492 12.8248 202.482 12.7964 202.462C12.7681 202.443 12.7424 202.414 12.7207 202.378C12.699 202.342 12.6818 202.299 12.6701 202.252C12.6584 202.205 12.6524 202.154 12.6524 202.103V98.6365C12.6524 98.5334 12.677 98.4346 12.7208 98.3617C12.7646 98.2888 12.8239 98.2479 12.8858 98.2479C12.9477 98.2479 13.0071 98.2888 13.0509 98.3617C13.0946 98.4346 13.1192 98.5334 13.1192 98.6365V202.103C13.1193 202.154 13.1133 202.205 13.1016 202.252C13.0899 202.299 13.0727 202.342 13.051 202.378C13.0293 202.414 13.0036 202.443 12.9752 202.462C12.9469 202.482 12.9165 202.492 12.8858 202.492Z" fill="url(#paint34_linear_1772_21224)"/>
<path d="M7.51299 117.104V186.066H18.2611V117.104H7.51299Z" fill="url(#paint35_linear_1772_21224)"/>
<path d="M84.4138 196.725C84.3832 196.725 84.3528 196.715 84.3245 196.695C84.2961 196.676 84.2704 196.647 84.2487 196.611C84.227 196.575 84.2098 196.532 84.1981 196.485C84.1864 196.438 84.1804 196.387 84.1804 196.336V92.8695C84.1809 92.767 84.2057 92.6689 84.2494 92.5967C84.2932 92.5245 84.3523 92.484 84.4138 92.484C84.4754 92.484 84.5345 92.5245 84.5782 92.5967C84.622 92.6689 84.6468 92.767 84.6473 92.8695V196.336C84.6473 196.387 84.6413 196.438 84.6296 196.485C84.6179 196.532 84.6007 196.575 84.579 196.611C84.5574 196.647 84.5316 196.676 84.5032 196.695C84.4749 196.715 84.4445 196.725 84.4138 196.725Z" fill="url(#paint36_linear_1772_21224)"/>
<path d="M79.0395 111.335V180.297H89.7876V111.335H79.0395Z" fill="url(#paint37_linear_1772_21224)"/>
<path d="M370.52 215.866C370.489 215.866 370.459 215.856 370.431 215.836C370.402 215.817 370.376 215.788 370.355 215.752C370.333 215.716 370.316 215.673 370.304 215.626C370.292 215.579 370.286 215.528 370.287 215.477V147.865C370.286 147.814 370.292 147.763 370.304 147.715C370.315 147.668 370.333 147.624 370.354 147.588C370.376 147.552 370.402 147.523 370.43 147.503C370.459 147.483 370.489 147.473 370.52 147.473C370.551 147.473 370.581 147.483 370.61 147.503C370.638 147.523 370.664 147.552 370.686 147.588C370.707 147.624 370.724 147.668 370.736 147.715C370.748 147.763 370.754 147.814 370.753 147.865V215.477C370.753 215.528 370.747 215.579 370.736 215.626C370.724 215.673 370.707 215.716 370.685 215.752C370.663 215.788 370.638 215.817 370.609 215.836C370.581 215.856 370.551 215.866 370.52 215.866Z" fill="url(#paint38_linear_1772_21224)"/>
<path d="M365.146 159.932V204.995H375.894V159.932H365.146Z" fill="url(#paint39_linear_1772_21224)"/>
<path d="M-45.2952 232.078C-45.3258 232.078 -45.3562 232.068 -45.3845 232.049C-45.4129 232.029 -45.4386 232 -45.4603 231.964C-45.482 231.928 -45.4992 231.885 -45.5109 231.838C-45.5226 231.791 -45.5286 231.74 -45.5286 231.689V85.8517C-45.5281 85.7491 -45.5033 85.6511 -45.4595 85.5789C-45.4158 85.5066 -45.3567 85.4661 -45.2951 85.4661C-45.2336 85.4661 -45.1745 85.5066 -45.1308 85.5789C-45.087 85.6511 -45.0622 85.7491 -45.0617 85.8517V231.689C-45.0617 231.74 -45.0677 231.791 -45.0794 231.838C-45.0911 231.885 -45.1083 231.928 -45.13 231.964C-45.1517 232 -45.1774 232.029 -45.2058 232.049C-45.2341 232.068 -45.2645 232.078 -45.2952 232.078Z" fill="url(#paint40_linear_1772_21224)"/>
<path d="M-50.668 111.883V209.084H-39.9214V111.883H-50.668Z" fill="url(#paint41_linear_1772_21224)"/>
<path d="M-59.5993 251.853C-59.6299 251.853 -59.6603 251.843 -59.6887 251.824C-59.717 251.804 -59.7428 251.776 -59.7644 251.739C-59.7861 251.703 -59.8033 251.66 -59.815 251.613C-59.8267 251.566 -59.8327 251.515 -59.8327 251.464V125.517C-59.8322 125.414 -59.8074 125.316 -59.7637 125.244C-59.7199 125.172 -59.6609 125.131 -59.5993 125.131C-59.5377 125.131 -59.4786 125.172 -59.4349 125.244C-59.3912 125.316 -59.3664 125.414 -59.3659 125.517V251.464C-59.3658 251.515 -59.3718 251.566 -59.3835 251.613C-59.3952 251.66 -59.4124 251.703 -59.4341 251.739C-59.4558 251.776 -59.4815 251.804 -59.5099 251.824C-59.5382 251.843 -59.5686 251.853 -59.5993 251.853Z" fill="url(#paint42_linear_1772_21224)"/>
<path d="M-64.9751 147.996V231.941H-54.227V147.996H-64.9751Z" fill="url(#paint43_linear_1772_21224)"/>
<path d="M-73.9063 226.772C-73.937 226.773 -73.9674 226.763 -73.9957 226.743C-74.0241 226.724 -74.0498 226.695 -74.0715 226.659C-74.0932 226.623 -74.1104 226.58 -74.1221 226.533C-74.1338 226.485 -74.1398 226.435 -74.1397 226.384V158.772C-74.14 158.72 -74.1341 158.67 -74.1225 158.622C-74.1109 158.575 -74.0937 158.531 -74.072 158.495C-74.0503 158.459 -74.0245 158.43 -73.9961 158.41C-73.9676 158.39 -73.9371 158.38 -73.9063 158.38C-73.8755 158.38 -73.845 158.39 -73.8166 158.41C-73.7881 158.43 -73.7623 158.459 -73.7406 158.495C-73.7189 158.531 -73.7018 158.575 -73.6901 158.622C-73.6785 158.67 -73.6727 158.72 -73.6729 158.772V226.384C-73.6729 226.435 -73.6789 226.485 -73.6906 226.533C-73.7023 226.58 -73.7195 226.623 -73.7412 226.659C-73.7628 226.695 -73.7886 226.724 -73.8169 226.743C-73.8453 226.763 -73.8757 226.773 -73.9063 226.772Z" fill="url(#paint44_linear_1772_21224)"/>
<path d="M-79.2792 170.839V215.904H-68.5326V170.839H-79.2792Z" fill="url(#paint45_linear_1772_21224)"/>
<path d="M113.025 183.769C112.994 183.769 112.964 183.759 112.936 183.74C112.907 183.72 112.882 183.692 112.86 183.656C112.838 183.62 112.821 183.577 112.809 183.529C112.798 183.482 112.792 183.432 112.792 183.381V115.769C112.792 115.666 112.817 115.568 112.861 115.496C112.904 115.424 112.963 115.383 113.025 115.383C113.087 115.383 113.146 115.424 113.189 115.496C113.233 115.568 113.258 115.666 113.258 115.769V183.381C113.259 183.432 113.253 183.482 113.241 183.529C113.229 183.577 113.212 183.62 113.19 183.656C113.169 183.692 113.143 183.72 113.114 183.74C113.086 183.759 113.056 183.769 113.025 183.769Z" fill="url(#paint46_linear_1772_21224)"/>
<path d="M107.649 127.84V172.902H118.397V127.84H107.649Z" fill="url(#paint47_linear_1772_21224)"/>
<path d="M-1.41977 158.857C-1.45043 158.857 -1.48081 158.847 -1.50915 158.827C-1.5375 158.808 -1.56324 158.779 -1.58493 158.743C-1.60661 158.707 -1.62381 158.664 -1.63552 158.617C-1.64723 158.57 -1.65322 158.519 -1.65317 158.468V90.856C-1.65317 90.7529 -1.62857 90.6541 -1.5848 90.5812C-1.54103 90.5083 -1.48167 90.4673 -1.41977 90.4673C-1.35786 90.4673 -1.29849 90.5083 -1.25472 90.5812C-1.21095 90.6541 -1.18636 90.7529 -1.18636 90.856V158.468C-1.1863 158.519 -1.1923 158.57 -1.20401 158.617C-1.21572 158.664 -1.23291 158.707 -1.25459 158.743C-1.27628 158.779 -1.30204 158.808 -1.33038 158.827C-1.35872 158.847 -1.3891 158.857 -1.41977 158.857Z" fill="url(#paint48_linear_1772_21224)"/>
<path d="M-6.79261 102.924V147.989H3.95394V102.924H-6.79261Z" fill="url(#paint49_linear_1772_21224)"/>
<path d="M-15.7239 178.426C-15.7545 178.426 -15.7849 178.416 -15.8133 178.396C-15.8416 178.377 -15.8674 178.348 -15.8891 178.312C-15.9107 178.276 -15.9279 178.233 -15.9396 178.186C-15.9514 178.139 -15.9574 178.088 -15.9573 178.037V110.425C-15.9568 110.323 -15.932 110.225 -15.8883 110.152C-15.8446 110.08 -15.7855 110.04 -15.7239 110.04C-15.6623 110.04 -15.6032 110.08 -15.5595 110.152C-15.5158 110.225 -15.491 110.323 -15.4905 110.425V178.037C-15.4904 178.088 -15.4964 178.139 -15.5081 178.186C-15.5198 178.233 -15.537 178.276 -15.5587 178.312C-15.5804 178.348 -15.6061 178.377 -15.6345 178.396C-15.6628 178.416 -15.6932 178.426 -15.7239 178.426Z" fill="url(#paint50_linear_1772_21224)"/>
<path d="M-21.0982 122.494V167.556H-10.3502V122.494H-21.0982Z" fill="url(#paint51_linear_1772_21224)"/>
<path d="M41.4985 192.255C41.4679 192.255 41.4375 192.245 41.4091 192.226C41.3808 192.206 41.355 192.178 41.3334 192.141C41.3117 192.105 41.2945 192.062 41.2828 192.015C41.2711 191.968 41.2651 191.918 41.2651 191.866V124.254C41.2649 124.203 41.2707 124.152 41.2823 124.105C41.294 124.057 41.3111 124.014 41.3328 123.978C41.3545 123.941 41.3803 123.912 41.4088 123.893C41.4372 123.873 41.4677 123.863 41.4985 123.863C41.5293 123.863 41.5598 123.873 41.5883 123.893C41.6167 123.912 41.6425 123.941 41.6642 123.978C41.6859 124.014 41.7031 124.057 41.7147 124.105C41.7263 124.152 41.7322 124.203 41.7319 124.254V191.866C41.732 191.918 41.726 191.968 41.7143 192.015C41.7026 192.062 41.6854 192.105 41.6637 192.141C41.642 192.178 41.6162 192.206 41.5879 192.226C41.5596 192.245 41.5292 192.255 41.4985 192.255Z" fill="url(#paint52_linear_1772_21224)"/>
<path d="M36.1227 136.322V181.384H46.8708V136.322H36.1227Z" fill="url(#paint53_linear_1772_21224)"/>
<path d="M-89.423 201.638C-89.4537 201.638 -89.4841 201.628 -89.5124 201.608C-89.5408 201.589 -89.5665 201.56 -89.5882 201.524C-89.6099 201.488 -89.6271 201.445 -89.6388 201.398C-89.6505 201.351 -89.6565 201.3 -89.6564 201.249V133.637C-89.656 133.535 -89.6311 133.437 -89.5874 133.364C-89.5437 133.292 -89.4846 133.252 -89.423 133.252C-89.3614 133.252 -89.3024 133.292 -89.2586 133.364C-89.2149 133.437 -89.1901 133.535 -89.1896 133.637V201.249C-89.1896 201.3 -89.1956 201.351 -89.2073 201.398C-89.219 201.445 -89.2362 201.488 -89.2579 201.524C-89.2796 201.56 -89.3053 201.589 -89.3337 201.608C-89.362 201.628 -89.3924 201.638 -89.423 201.638Z" fill="url(#paint54_linear_1772_21224)"/>
<path d="M-94.7988 145.706V190.768H-84.0508V145.706H-94.7988Z" fill="url(#paint55_linear_1772_21224)"/>
<path d="M27.1915 215.866C27.1608 215.866 27.1304 215.856 27.1021 215.836C27.0737 215.817 27.048 215.788 27.0263 215.752C27.0046 215.716 26.9874 215.673 26.9757 215.626C26.964 215.579 26.958 215.528 26.958 215.477V147.865C26.9578 147.814 26.9636 147.763 26.9753 147.715C26.9869 147.668 27.004 147.624 27.0257 147.588C27.0474 147.552 27.0733 147.523 27.1017 147.503C27.1301 147.483 27.1607 147.473 27.1915 147.473C27.2223 147.473 27.2528 147.483 27.2812 147.503C27.3097 147.523 27.3355 147.552 27.3572 147.588C27.3789 147.624 27.396 147.668 27.4076 147.715C27.4193 147.763 27.4251 147.814 27.4249 147.865V215.477C27.4249 215.528 27.4189 215.579 27.4072 215.626C27.3955 215.673 27.3783 215.716 27.3566 215.752C27.3349 215.788 27.3092 215.817 27.2808 215.836C27.2525 215.856 27.2221 215.866 27.1915 215.866Z" fill="url(#paint56_linear_1772_21224)"/>
<path d="M21.8186 159.932V204.995H32.5651V159.932H21.8186Z" fill="url(#paint57_linear_1772_21224)"/>
<path d="M327.603 172.939C327.572 172.939 327.542 172.929 327.514 172.909C327.485 172.89 327.46 172.861 327.438 172.825C327.416 172.789 327.399 172.746 327.387 172.699C327.376 172.652 327.37 172.601 327.37 172.55V104.938C327.37 104.835 327.394 104.736 327.438 104.663C327.482 104.59 327.541 104.55 327.603 104.55C327.665 104.55 327.724 104.59 327.768 104.663C327.812 104.736 327.837 104.835 327.837 104.938V172.55C327.837 172.601 327.831 172.652 327.819 172.699C327.807 172.746 327.79 172.789 327.768 172.825C327.747 172.861 327.721 172.89 327.693 172.909C327.664 172.929 327.634 172.939 327.603 172.939Z" fill="url(#paint58_linear_1772_21224)"/>
<path d="M322.229 117.006V162.071H332.977V117.006H322.229Z" fill="url(#paint59_linear_1772_21224)"/>
<path d="M284.686 230.072C284.656 230.072 284.625 230.062 284.597 230.043C284.569 230.023 284.543 229.995 284.521 229.959C284.499 229.923 284.482 229.88 284.471 229.833C284.459 229.785 284.453 229.735 284.453 229.684V162.072C284.453 162.02 284.459 161.97 284.47 161.922C284.482 161.875 284.499 161.831 284.521 161.795C284.542 161.758 284.568 161.73 284.597 161.71C284.625 161.69 284.656 161.68 284.686 161.68C284.717 161.68 284.748 161.69 284.776 161.71C284.805 161.73 284.83 161.758 284.852 161.795C284.874 161.831 284.891 161.875 284.903 161.922C284.914 161.97 284.92 162.02 284.92 162.072V229.684C284.92 229.735 284.914 229.785 284.902 229.833C284.89 229.88 284.873 229.923 284.851 229.959C284.83 229.995 284.804 230.024 284.776 230.043C284.747 230.062 284.717 230.072 284.686 230.072Z" fill="url(#paint60_linear_1772_21224)"/>
<path d="M279.313 174.137V219.202H290.06V174.137H279.313Z" fill="url(#paint61_linear_1772_21224)"/>
<path d="M241.771 230.863C241.74 230.863 241.71 230.853 241.682 230.834C241.653 230.814 241.628 230.786 241.606 230.749C241.584 230.713 241.567 230.67 241.555 230.623C241.544 230.576 241.538 230.525 241.538 230.474V162.862C241.538 162.76 241.563 162.662 241.607 162.59C241.65 162.517 241.709 162.477 241.771 162.477C241.833 162.477 241.892 162.517 241.935 162.59C241.979 162.662 242.004 162.76 242.004 162.862V230.474C242.004 230.525 241.998 230.576 241.987 230.623C241.975 230.67 241.958 230.713 241.936 230.749C241.914 230.785 241.889 230.814 241.86 230.834C241.832 230.853 241.802 230.863 241.771 230.863Z" fill="url(#paint62_linear_1772_21224)"/>
<path d="M236.398 174.931V219.996H247.145V174.931H236.398Z" fill="url(#paint63_linear_1772_21224)"/>
<path d="M198.856 260.837C198.825 260.837 198.795 260.827 198.766 260.807C198.738 260.788 198.712 260.759 198.691 260.723C198.669 260.687 198.652 260.644 198.64 260.597C198.628 260.55 198.622 260.499 198.622 260.448V192.836C198.622 192.733 198.647 192.634 198.691 192.561C198.734 192.488 198.794 192.448 198.856 192.448C198.918 192.448 198.977 192.488 199.021 192.561C199.064 192.634 199.089 192.733 199.089 192.836V260.448C199.089 260.499 199.083 260.55 199.071 260.597C199.06 260.644 199.042 260.687 199.021 260.723C198.999 260.759 198.973 260.788 198.945 260.807C198.917 260.827 198.886 260.837 198.856 260.837Z" fill="url(#paint64_linear_1772_21224)"/>
<path d="M193.483 204.904V249.967H204.229V204.904H193.483Z" fill="url(#paint65_linear_1772_21224)"/>
<path d="M155.94 226.061C155.91 226.061 155.879 226.051 155.851 226.032C155.823 226.012 155.797 225.984 155.775 225.947C155.753 225.911 155.736 225.868 155.725 225.821C155.713 225.774 155.707 225.724 155.707 225.672V158.06C155.707 158.009 155.713 157.958 155.724 157.911C155.736 157.863 155.753 157.82 155.775 157.784C155.796 157.747 155.822 157.718 155.851 157.699C155.879 157.679 155.91 157.669 155.94 157.669C155.971 157.669 156.002 157.679 156.03 157.699C156.059 157.718 156.084 157.747 156.106 157.784C156.128 157.82 156.145 157.863 156.157 157.911C156.168 157.958 156.174 158.009 156.174 158.06V225.672C156.174 225.724 156.168 225.774 156.156 225.821C156.144 225.868 156.127 225.911 156.105 225.947C156.084 225.984 156.058 226.012 156.03 226.032C156.001 226.051 155.971 226.061 155.94 226.061Z" fill="url(#paint66_linear_1772_21224)"/>
<path d="M150.566 170.128V215.19H161.314V170.128H150.566Z" fill="url(#paint67_linear_1772_21224)"/>
<path d="M184.552 284.06C184.521 284.061 184.491 284.051 184.462 284.031C184.434 284.012 184.408 283.983 184.386 283.947C184.365 283.911 184.348 283.868 184.336 283.821C184.324 283.773 184.318 283.723 184.318 283.672V216.06C184.319 215.957 184.343 215.859 184.387 215.787C184.431 215.715 184.49 215.674 184.552 215.674C184.613 215.674 184.672 215.715 184.716 215.787C184.76 215.859 184.784 215.957 184.785 216.06V283.672C184.785 283.723 184.779 283.773 184.767 283.821C184.756 283.868 184.738 283.911 184.717 283.947C184.695 283.983 184.669 284.012 184.641 284.031C184.613 284.051 184.582 284.061 184.552 284.06Z" fill="url(#paint68_linear_1772_21224)"/>
<path d="M179.176 228.126V273.191H189.924V228.126H179.176Z" fill="url(#paint69_linear_1772_21224)"/>
<defs>
<linearGradient id="paint0_linear_1772_21224" x1="-107.46" y1="169.277" x2="418.669" y2="169.277" gradientUnits="userSpaceOnUse">
<stop stop-color="#E4E9FC"/>
<stop offset="0.446696" stop-color="#F1EBFF"/>
<stop offset="1" stop-color="#E9F8F6"/>
</linearGradient>
<linearGradient id="paint1_linear_1772_21224" x1="-107.46" y1="169.277" x2="418.669" y2="169.277" gradientUnits="userSpaceOnUse">
<stop stop-color="#E4E9FC"/>
<stop offset="0.446696" stop-color="#F1EBFF"/>
<stop offset="1" stop-color="#E9F8F6"/>
</linearGradient>
<linearGradient id="paint2_linear_1772_21224" x1="-107.46" y1="169.277" x2="418.669" y2="169.277" gradientUnits="userSpaceOnUse">
<stop stop-color="#E4E9FC"/>
<stop offset="0.446696" stop-color="#F1EBFF"/>
<stop offset="1" stop-color="#E9F8F6"/>
</linearGradient>
<linearGradient id="paint3_linear_1772_21224" x1="-107.46" y1="169.277" x2="418.669" y2="169.277" gradientUnits="userSpaceOnUse">
<stop stop-color="#E4E9FC"/>
<stop offset="0.446696" stop-color="#F1EBFF"/>
<stop offset="1" stop-color="#E9F8F6"/>
</linearGradient>
<linearGradient id="paint4_linear_1772_21224" x1="-107.46" y1="169.277" x2="418.669" y2="169.277" gradientUnits="userSpaceOnUse">
<stop stop-color="#E4E9FC"/>
<stop offset="0.446696" stop-color="#F1EBFF"/>
<stop offset="1" stop-color="#E9F8F6"/>
</linearGradient>
<linearGradient id="paint5_linear_1772_21224" x1="-107.46" y1="169.277" x2="418.669" y2="169.277" gradientUnits="userSpaceOnUse">
<stop stop-color="#E4E9FC"/>
<stop offset="0.446696" stop-color="#F1EBFF"/>
<stop offset="1" stop-color="#E9F8F6"/>
</linearGradient>
<linearGradient id="paint6_linear_1772_21224" x1="-107.46" y1="169.277" x2="418.669" y2="169.277" gradientUnits="userSpaceOnUse">
<stop stop-color="#E4E9FC"/>
<stop offset="0.446696" stop-color="#F1EBFF"/>
<stop offset="1" stop-color="#E9F8F6"/>
</linearGradient>
<linearGradient id="paint7_linear_1772_21224" x1="-107.46" y1="169.277" x2="418.669" y2="169.277" gradientUnits="userSpaceOnUse">
<stop stop-color="#E4E9FC"/>
<stop offset="0.446696" stop-color="#F1EBFF"/>
<stop offset="1" stop-color="#E9F8F6"/>
</linearGradient>
<linearGradient id="paint8_linear_1772_21224" x1="-107.46" y1="169.277" x2="418.669" y2="169.277" gradientUnits="userSpaceOnUse">
<stop stop-color="#E4E9FC"/>
<stop offset="0.446696" stop-color="#F1EBFF"/>
<stop offset="1" stop-color="#E9F8F6"/>
</linearGradient>
<linearGradient id="paint9_linear_1772_21224" x1="-107.46" y1="169.277" x2="418.669" y2="169.277" gradientUnits="userSpaceOnUse">
<stop stop-color="#E4E9FC"/>
<stop offset="0.446696" stop-color="#F1EBFF"/>
<stop offset="1" stop-color="#E9F8F6"/>
</linearGradient>
<linearGradient id="paint10_linear_1772_21224" x1="-107.46" y1="169.277" x2="418.669" y2="169.277" gradientUnits="userSpaceOnUse">
<stop stop-color="#E4E9FC"/>
<stop offset="0.446696" stop-color="#F1EBFF"/>
<stop offset="1" stop-color="#E9F8F6"/>
</linearGradient>
<linearGradient id="paint11_linear_1772_21224" x1="-107.46" y1="169.277" x2="418.669" y2="169.277" gradientUnits="userSpaceOnUse">
<stop stop-color="#E4E9FC"/>
<stop offset="0.446696" stop-color="#F1EBFF"/>
<stop offset="1" stop-color="#E9F8F6"/>
</linearGradient>
<linearGradient id="paint12_linear_1772_21224" x1="-107.46" y1="169.277" x2="418.669" y2="169.277" gradientUnits="userSpaceOnUse">
<stop stop-color="#E4E9FC"/>
<stop offset="0.446696" stop-color="#F1EBFF"/>
<stop offset="1" stop-color="#E9F8F6"/>
</linearGradient>
<linearGradient id="paint13_linear_1772_21224" x1="-107.46" y1="169.277" x2="418.669" y2="169.277" gradientUnits="userSpaceOnUse">
<stop stop-color="#E4E9FC"/>
<stop offset="0.446696" stop-color="#F1EBFF"/>
<stop offset="1" stop-color="#E9F8F6"/>
</linearGradient>
<linearGradient id="paint14_linear_1772_21224" x1="-107.46" y1="169.277" x2="418.669" y2="169.277" gradientUnits="userSpaceOnUse">
<stop stop-color="#E4E9FC"/>
<stop offset="0.446696" stop-color="#F1EBFF"/>
<stop offset="1" stop-color="#E9F8F6"/>
</linearGradient>
<linearGradient id="paint15_linear_1772_21224" x1="-107.46" y1="169.277" x2="418.669" y2="169.277" gradientUnits="userSpaceOnUse">
<stop stop-color="#E4E9FC"/>
<stop offset="0.446696" stop-color="#F1EBFF"/>
<stop offset="1" stop-color="#E9F8F6"/>
</linearGradient>
<linearGradient id="paint16_linear_1772_21224" x1="-107.46" y1="169.277" x2="418.669" y2="169.277" gradientUnits="userSpaceOnUse">
<stop stop-color="#E4E9FC"/>
<stop offset="0.446696" stop-color="#F1EBFF"/>
<stop offset="1" stop-color="#E9F8F6"/>
</linearGradient>
<linearGradient id="paint17_linear_1772_21224" x1="-107.46" y1="169.277" x2="418.669" y2="169.277" gradientUnits="userSpaceOnUse">
<stop stop-color="#E4E9FC"/>
<stop offset="0.446696" stop-color="#F1EBFF"/>
<stop offset="1" stop-color="#E9F8F6"/>
</linearGradient>
<linearGradient id="paint18_linear_1772_21224" x1="-107.46" y1="169.277" x2="418.669" y2="169.277" gradientUnits="userSpaceOnUse">
<stop stop-color="#E4E9FC"/>
<stop offset="0.446696" stop-color="#F1EBFF"/>
<stop offset="1" stop-color="#E9F8F6"/>
</linearGradient>
<linearGradient id="paint19_linear_1772_21224" x1="-107.46" y1="169.277" x2="418.669" y2="169.277" gradientUnits="userSpaceOnUse">
<stop stop-color="#E4E9FC"/>
<stop offset="0.446696" stop-color="#F1EBFF"/>
<stop offset="1" stop-color="#E9F8F6"/>
</linearGradient>
<linearGradient id="paint20_linear_1772_21224" x1="-107.46" y1="169.277" x2="418.669" y2="169.277" gradientUnits="userSpaceOnUse">
<stop stop-color="#E4E9FC"/>
<stop offset="0.446696" stop-color="#F1EBFF"/>
<stop offset="1" stop-color="#E9F8F6"/>
</linearGradient>
<linearGradient id="paint21_linear_1772_21224" x1="-107.46" y1="169.277" x2="418.669" y2="169.277" gradientUnits="userSpaceOnUse">
<stop stop-color="#E4E9FC"/>
<stop offset="0.446696" stop-color="#F1EBFF"/>
<stop offset="1" stop-color="#E9F8F6"/>
</linearGradient>
<linearGradient id="paint22_linear_1772_21224" x1="-107.46" y1="169.277" x2="418.669" y2="169.277" gradientUnits="userSpaceOnUse">
<stop stop-color="#E4E9FC"/>
<stop offset="0.446696" stop-color="#F1EBFF"/>
<stop offset="1" stop-color="#E9F8F6"/>
</linearGradient>
<linearGradient id="paint23_linear_1772_21224" x1="-107.46" y1="169.277" x2="418.669" y2="169.277" gradientUnits="userSpaceOnUse">
<stop stop-color="#E4E9FC"/>
<stop offset="0.446696" stop-color="#F1EBFF"/>
<stop offset="1" stop-color="#E9F8F6"/>
</linearGradient>
<linearGradient id="paint24_linear_1772_21224" x1="-107.46" y1="169.277" x2="418.669" y2="169.277" gradientUnits="userSpaceOnUse">
<stop stop-color="#E4E9FC"/>
<stop offset="0.446696" stop-color="#F1EBFF"/>
<stop offset="1" stop-color="#E9F8F6"/>
</linearGradient>
<linearGradient id="paint25_linear_1772_21224" x1="-107.46" y1="169.277" x2="418.669" y2="169.277" gradientUnits="userSpaceOnUse">
<stop stop-color="#E4E9FC"/>
<stop offset="0.446696" stop-color="#F1EBFF"/>
<stop offset="1" stop-color="#E9F8F6"/>
</linearGradient>
<linearGradient id="paint26_linear_1772_21224" x1="-107.46" y1="169.277" x2="418.669" y2="169.277" gradientUnits="userSpaceOnUse">
<stop stop-color="#E4E9FC"/>
<stop offset="0.446696" stop-color="#F1EBFF"/>
<stop offset="1" stop-color="#E9F8F6"/>
</linearGradient>
<linearGradient id="paint27_linear_1772_21224" x1="-107.46" y1="169.277" x2="418.669" y2="169.277" gradientUnits="userSpaceOnUse">
<stop stop-color="#E4E9FC"/>
<stop offset="0.446696" stop-color="#F1EBFF"/>
<stop offset="1" stop-color="#E9F8F6"/>
</linearGradient>
<linearGradient id="paint28_linear_1772_21224" x1="-107.46" y1="169.277" x2="418.669" y2="169.277" gradientUnits="userSpaceOnUse">
<stop stop-color="#E4E9FC"/>
<stop offset="0.446696" stop-color="#F1EBFF"/>
<stop offset="1" stop-color="#E9F8F6"/>
</linearGradient>
<linearGradient id="paint29_linear_1772_21224" x1="-107.46" y1="169.277" x2="418.669" y2="169.277" gradientUnits="userSpaceOnUse">
<stop stop-color="#E4E9FC"/>
<stop offset="0.446696" stop-color="#F1EBFF"/>
<stop offset="1" stop-color="#E9F8F6"/>
</linearGradient>
<linearGradient id="paint30_linear_1772_21224" x1="-107.46" y1="169.277" x2="418.669" y2="169.277" gradientUnits="userSpaceOnUse">
<stop stop-color="#E4E9FC"/>
<stop offset="0.446696" stop-color="#F1EBFF"/>
<stop offset="1" stop-color="#E9F8F6"/>
</linearGradient>
<linearGradient id="paint31_linear_1772_21224" x1="-107.46" y1="169.277" x2="418.669" y2="169.277" gradientUnits="userSpaceOnUse">
<stop stop-color="#E4E9FC"/>
<stop offset="0.446696" stop-color="#F1EBFF"/>
<stop offset="1" stop-color="#E9F8F6"/>
</linearGradient>
<linearGradient id="paint32_linear_1772_21224" x1="-107.46" y1="169.277" x2="418.669" y2="169.277" gradientUnits="userSpaceOnUse">
<stop stop-color="#E4E9FC"/>
<stop offset="0.446696" stop-color="#F1EBFF"/>
<stop offset="1" stop-color="#E9F8F6"/>
</linearGradient>
<linearGradient id="paint33_linear_1772_21224" x1="-107.46" y1="169.277" x2="418.669" y2="169.277" gradientUnits="userSpaceOnUse">
<stop stop-color="#E4E9FC"/>
<stop offset="0.446696" stop-color="#F1EBFF"/>
<stop offset="1" stop-color="#E9F8F6"/>
</linearGradient>
<linearGradient id="paint34_linear_1772_21224" x1="-107.46" y1="169.277" x2="418.669" y2="169.277" gradientUnits="userSpaceOnUse">
<stop stop-color="#E4E9FC"/>
<stop offset="0.446696" stop-color="#F1EBFF"/>
<stop offset="1" stop-color="#E9F8F6"/>
</linearGradient>
<linearGradient id="paint35_linear_1772_21224" x1="-107.46" y1="169.277" x2="418.669" y2="169.277" gradientUnits="userSpaceOnUse">
<stop stop-color="#E4E9FC"/>
<stop offset="0.446696" stop-color="#F1EBFF"/>
<stop offset="1" stop-color="#E9F8F6"/>
</linearGradient>
<linearGradient id="paint36_linear_1772_21224" x1="-107.46" y1="169.277" x2="418.669" y2="169.277" gradientUnits="userSpaceOnUse">
<stop stop-color="#E4E9FC"/>
<stop offset="0.446696" stop-color="#F1EBFF"/>
<stop offset="1" stop-color="#E9F8F6"/>
</linearGradient>
<linearGradient id="paint37_linear_1772_21224" x1="-107.46" y1="169.277" x2="418.669" y2="169.277" gradientUnits="userSpaceOnUse">
<stop stop-color="#E4E9FC"/>
<stop offset="0.446696" stop-color="#F1EBFF"/>
<stop offset="1" stop-color="#E9F8F6"/>
</linearGradient>
<linearGradient id="paint38_linear_1772_21224" x1="-107.46" y1="169.277" x2="418.669" y2="169.277" gradientUnits="userSpaceOnUse">
<stop stop-color="#E4E9FC"/>
<stop offset="0.446696" stop-color="#F1EBFF"/>
<stop offset="1" stop-color="#E9F8F6"/>
</linearGradient>
<linearGradient id="paint39_linear_1772_21224" x1="-107.46" y1="169.277" x2="418.669" y2="169.277" gradientUnits="userSpaceOnUse">
<stop stop-color="#E4E9FC"/>
<stop offset="0.446696" stop-color="#F1EBFF"/>
<stop offset="1" stop-color="#E9F8F6"/>
</linearGradient>
<linearGradient id="paint40_linear_1772_21224" x1="-107.46" y1="169.277" x2="418.669" y2="169.277" gradientUnits="userSpaceOnUse">
<stop stop-color="#E4E9FC"/>
<stop offset="0.446696" stop-color="#F1EBFF"/>
<stop offset="1" stop-color="#E9F8F6"/>
</linearGradient>
<linearGradient id="paint41_linear_1772_21224" x1="-107.46" y1="169.277" x2="418.669" y2="169.277" gradientUnits="userSpaceOnUse">
<stop stop-color="#E4E9FC"/>
<stop offset="0.446696" stop-color="#F1EBFF"/>
<stop offset="1" stop-color="#E9F8F6"/>
</linearGradient>
<linearGradient id="paint42_linear_1772_21224" x1="-107.46" y1="169.277" x2="418.669" y2="169.277" gradientUnits="userSpaceOnUse">
<stop stop-color="#E4E9FC"/>
<stop offset="0.446696" stop-color="#F1EBFF"/>
<stop offset="1" stop-color="#E9F8F6"/>
</linearGradient>
<linearGradient id="paint43_linear_1772_21224" x1="-107.46" y1="169.277" x2="418.669" y2="169.277" gradientUnits="userSpaceOnUse">
<stop stop-color="#E4E9FC"/>
<stop offset="0.446696" stop-color="#F1EBFF"/>
<stop offset="1" stop-color="#E9F8F6"/>
</linearGradient>
<linearGradient id="paint44_linear_1772_21224" x1="-107.46" y1="169.277" x2="418.669" y2="169.277" gradientUnits="userSpaceOnUse">
<stop stop-color="#E4E9FC"/>
<stop offset="0.446696" stop-color="#F1EBFF"/>
<stop offset="1" stop-color="#E9F8F6"/>
</linearGradient>
<linearGradient id="paint45_linear_1772_21224" x1="-107.46" y1="169.277" x2="418.669" y2="169.277" gradientUnits="userSpaceOnUse">
<stop stop-color="#E4E9FC"/>
<stop offset="0.446696" stop-color="#F1EBFF"/>
<stop offset="1" stop-color="#E9F8F6"/>
</linearGradient>
<linearGradient id="paint46_linear_1772_21224" x1="-107.46" y1="169.277" x2="418.669" y2="169.277" gradientUnits="userSpaceOnUse">
<stop stop-color="#E4E9FC"/>
<stop offset="0.446696" stop-color="#F1EBFF"/>
<stop offset="1" stop-color="#E9F8F6"/>
</linearGradient>
<linearGradient id="paint47_linear_1772_21224" x1="-107.46" y1="169.277" x2="418.669" y2="169.277" gradientUnits="userSpaceOnUse">
<stop stop-color="#E4E9FC"/>
<stop offset="0.446696" stop-color="#F1EBFF"/>
<stop offset="1" stop-color="#E9F8F6"/>
</linearGradient>
<linearGradient id="paint48_linear_1772_21224" x1="-107.46" y1="169.277" x2="418.669" y2="169.277" gradientUnits="userSpaceOnUse">
<stop stop-color="#E4E9FC"/>
<stop offset="0.446696" stop-color="#F1EBFF"/>
<stop offset="1" stop-color="#E9F8F6"/>
</linearGradient>
<linearGradient id="paint49_linear_1772_21224" x1="-107.46" y1="169.277" x2="418.669" y2="169.277" gradientUnits="userSpaceOnUse">
<stop stop-color="#E4E9FC"/>
<stop offset="0.446696" stop-color="#F1EBFF"/>
<stop offset="1" stop-color="#E9F8F6"/>
</linearGradient>
<linearGradient id="paint50_linear_1772_21224" x1="-107.46" y1="169.277" x2="418.669" y2="169.277" gradientUnits="userSpaceOnUse">
<stop stop-color="#E4E9FC"/>
<stop offset="0.446696" stop-color="#F1EBFF"/>
<stop offset="1" stop-color="#E9F8F6"/>
</linearGradient>
<linearGradient id="paint51_linear_1772_21224" x1="-107.46" y1="169.277" x2="418.669" y2="169.277" gradientUnits="userSpaceOnUse">
<stop stop-color="#E4E9FC"/>
<stop offset="0.446696" stop-color="#F1EBFF"/>
<stop offset="1" stop-color="#E9F8F6"/>
</linearGradient>
<linearGradient id="paint52_linear_1772_21224" x1="-107.46" y1="169.277" x2="418.669" y2="169.277" gradientUnits="userSpaceOnUse">
<stop stop-color="#E4E9FC"/>
<stop offset="0.446696" stop-color="#F1EBFF"/>
<stop offset="1" stop-color="#E9F8F6"/>
</linearGradient>
<linearGradient id="paint53_linear_1772_21224" x1="-107.46" y1="169.277" x2="418.669" y2="169.277" gradientUnits="userSpaceOnUse">
<stop stop-color="#E4E9FC"/>
<stop offset="0.446696" stop-color="#F1EBFF"/>
<stop offset="1" stop-color="#E9F8F6"/>
</linearGradient>
<linearGradient id="paint54_linear_1772_21224" x1="-107.46" y1="169.277" x2="418.669" y2="169.277" gradientUnits="userSpaceOnUse">
<stop stop-color="#E4E9FC"/>
<stop offset="0.446696" stop-color="#F1EBFF"/>
<stop offset="1" stop-color="#E9F8F6"/>
</linearGradient>
<linearGradient id="paint55_linear_1772_21224" x1="-107.46" y1="169.277" x2="418.669" y2="169.277" gradientUnits="userSpaceOnUse">
<stop stop-color="#E4E9FC"/>
<stop offset="0.446696" stop-color="#F1EBFF"/>
<stop offset="1" stop-color="#E9F8F6"/>
</linearGradient>
<linearGradient id="paint56_linear_1772_21224" x1="-107.46" y1="169.277" x2="418.669" y2="169.277" gradientUnits="userSpaceOnUse">
<stop stop-color="#E4E9FC"/>
<stop offset="0.446696" stop-color="#F1EBFF"/>
<stop offset="1" stop-color="#E9F8F6"/>
</linearGradient>
<linearGradient id="paint57_linear_1772_21224" x1="-107.46" y1="169.277" x2="418.669" y2="169.277" gradientUnits="userSpaceOnUse">
<stop stop-color="#E4E9FC"/>
<stop offset="0.446696" stop-color="#F1EBFF"/>
<stop offset="1" stop-color="#E9F8F6"/>
</linearGradient>
<linearGradient id="paint58_linear_1772_21224" x1="-107.46" y1="169.277" x2="418.669" y2="169.277" gradientUnits="userSpaceOnUse">
<stop stop-color="#E4E9FC"/>
<stop offset="0.446696" stop-color="#F1EBFF"/>
<stop offset="1" stop-color="#E9F8F6"/>
</linearGradient>
<linearGradient id="paint59_linear_1772_21224" x1="-107.46" y1="169.277" x2="418.669" y2="169.277" gradientUnits="userSpaceOnUse">
<stop stop-color="#E4E9FC"/>
<stop offset="0.446696" stop-color="#F1EBFF"/>
<stop offset="1" stop-color="#E9F8F6"/>
</linearGradient>
<linearGradient id="paint60_linear_1772_21224" x1="-107.46" y1="169.277" x2="418.669" y2="169.277" gradientUnits="userSpaceOnUse">
<stop stop-color="#E4E9FC"/>
<stop offset="0.446696" stop-color="#F1EBFF"/>
<stop offset="1" stop-color="#E9F8F6"/>
</linearGradient>
<linearGradient id="paint61_linear_1772_21224" x1="-107.46" y1="169.277" x2="418.669" y2="169.277" gradientUnits="userSpaceOnUse">
<stop stop-color="#E4E9FC"/>
<stop offset="0.446696" stop-color="#F1EBFF"/>
<stop offset="1" stop-color="#E9F8F6"/>
</linearGradient>
<linearGradient id="paint62_linear_1772_21224" x1="-107.46" y1="169.277" x2="418.669" y2="169.277" gradientUnits="userSpaceOnUse">
<stop stop-color="#E4E9FC"/>
<stop offset="0.446696" stop-color="#F1EBFF"/>
<stop offset="1" stop-color="#E9F8F6"/>
</linearGradient>
<linearGradient id="paint63_linear_1772_21224" x1="-107.46" y1="169.277" x2="418.669" y2="169.277" gradientUnits="userSpaceOnUse">
<stop stop-color="#E4E9FC"/>
<stop offset="0.446696" stop-color="#F1EBFF"/>
<stop offset="1" stop-color="#E9F8F6"/>
</linearGradient>
<linearGradient id="paint64_linear_1772_21224" x1="-107.46" y1="169.277" x2="418.669" y2="169.277" gradientUnits="userSpaceOnUse">
<stop stop-color="#E4E9FC"/>
<stop offset="0.446696" stop-color="#F1EBFF"/>
<stop offset="1" stop-color="#E9F8F6"/>
</linearGradient>
<linearGradient id="paint65_linear_1772_21224" x1="-107.46" y1="169.277" x2="418.669" y2="169.277" gradientUnits="userSpaceOnUse">
<stop stop-color="#E4E9FC"/>
<stop offset="0.446696" stop-color="#F1EBFF"/>
<stop offset="1" stop-color="#E9F8F6"/>
</linearGradient>
<linearGradient id="paint66_linear_1772_21224" x1="-107.46" y1="169.277" x2="418.669" y2="169.277" gradientUnits="userSpaceOnUse">
<stop stop-color="#E4E9FC"/>
<stop offset="0.446696" stop-color="#F1EBFF"/>
<stop offset="1" stop-color="#E9F8F6"/>
</linearGradient>
<linearGradient id="paint67_linear_1772_21224" x1="-107.46" y1="169.277" x2="418.669" y2="169.277" gradientUnits="userSpaceOnUse">
<stop stop-color="#E4E9FC"/>
<stop offset="0.446696" stop-color="#F1EBFF"/>
<stop offset="1" stop-color="#E9F8F6"/>
</linearGradient>
<linearGradient id="paint68_linear_1772_21224" x1="-107.46" y1="169.277" x2="418.669" y2="169.277" gradientUnits="userSpaceOnUse">
<stop stop-color="#E4E9FC"/>
<stop offset="0.446696" stop-color="#F1EBFF"/>
<stop offset="1" stop-color="#E9F8F6"/>
</linearGradient>
<linearGradient id="paint69_linear_1772_21224" x1="-107.46" y1="169.277" x2="418.669" y2="169.277" gradientUnits="userSpaceOnUse">
<stop stop-color="#E4E9FC"/>
<stop offset="0.446696" stop-color="#F1EBFF"/>
<stop offset="1" stop-color="#E9F8F6"/>
</linearGradient>
</defs>
</svg>
