<svg width="24" height="24" viewBox="0 0 24 24" fill="none" xmlns="http://www.w3.org/2000/svg">
<g clip-path="url(#clip0_3010_14096)">
<circle cx="12" cy="12" r="12" fill="#5865F2"/>
<path d="M17.7271 6.3197C16.659 5.81998 15.517 5.4568 14.323 5.25C14.1764 5.51511 14.005 5.87168 13.8869 6.15534C12.6177 5.96446 11.3602 5.96446 10.1143 6.15534C9.99621 5.87168 9.82101 5.51511 9.67306 5.25C8.47781 5.4568 7.33446 5.82131 6.26638 6.32235C4.11207 9.5778 3.52807 12.7524 3.82007 15.8819C5.24892 16.9489 6.63366 17.5971 7.99502 18.0213C8.33115 17.5587 8.63093 17.0669 8.88918 16.5486C8.39733 16.3618 7.92624 16.1311 7.48111 15.8634C7.5992 15.7759 7.71471 15.6844 7.82631 15.5903C10.5413 16.8601 13.4911 16.8601 16.1736 15.5903C16.2865 15.6844 16.402 15.7759 16.5188 15.8634C16.0724 16.1324 15.6 16.3631 15.1082 16.55C15.3664 17.0669 15.6649 17.56 16.0023 18.0226C17.365 17.5984 18.751 16.9503 20.1799 15.8819C20.5225 12.254 19.5946 9.10857 17.7271 6.3197ZM9.25906 13.9573C8.44406 13.9573 7.77569 13.1964 7.77569 12.2699C7.77569 11.3434 8.42979 10.5812 9.25906 10.5812C10.0884 10.5812 10.7567 11.342 10.7424 12.2699C10.7437 13.1964 10.0884 13.9573 9.25906 13.9573ZM14.7409 13.9573C13.9259 13.9573 13.2575 13.1964 13.2575 12.2699C13.2575 11.3434 13.9116 10.5812 14.7409 10.5812C15.5702 10.5812 16.2385 11.342 16.2243 12.2699C16.2243 13.1964 15.5702 13.9573 14.7409 13.9573Z" fill="white"/>
</g>
<defs>
<clipPath id="clip0_3010_14096">
<rect width="24" height="24" fill="white"/>
</clipPath>
</defs>
</svg>
