<svg width="24" height="24" viewBox="0 0 24 24" fill="none" xmlns="http://www.w3.org/2000/svg">
<g clip-path="url(#clip0_3010_14119)">
<circle cx="12" cy="12" r="12" fill="#1877F2"/>
<path d="M24 12C24 18.6274 18.6274 24 12 24C5.37258 24 0 18.6274 0 12C0 5.37258 5.37258 0 12 0C18.6274 0 24 5.37258 24 12Z" fill="#1877F2"/>
<path d="M13.5712 24V15.1196H16.6809L17.1432 11.6426H13.5712V9.42796C13.5712 8.42463 13.8613 7.73769 15.356 7.73769H17.25V4.63779C16.3285 4.54265 15.4022 4.49671 14.4754 4.50018C11.7267 4.50018 9.83949 6.11677 9.83949 9.08449V11.6361H6.75V15.1131H9.84624V24H13.5712Z" fill="white"/>
</g>
<defs>
<clipPath id="clip0_3010_14119">
<rect width="24" height="24" fill="white"/>
</clipPath>
</defs>
</svg>
