<svg width="24" height="24" viewBox="0 0 24 24" fill="none" xmlns="http://www.w3.org/2000/svg">
<g clip-path="url(#clip0_3010_14109)">
<circle cx="12" cy="12" r="12" fill="#0A66C2"/>
<path fill-rule="evenodd" clip-rule="evenodd" d="M8.06268 18.8506V9.76217H5.04186V18.8506H8.06268ZM6.55225 8.5213C7.60567 8.5213 8.26134 7.82341 8.26134 6.95125C8.24171 6.05946 7.60568 5.38094 6.57224 5.38094C5.5389 5.38094 4.86328 6.05946 4.86328 6.95125C4.86328 7.82341 5.51881 8.5213 6.53256 8.5213H6.55225Z" fill="white"/>
<path fill-rule="evenodd" clip-rule="evenodd" d="M9.73438 18.8506H12.7552V13.7752C12.7552 13.5036 12.7748 13.2322 12.8546 13.0381C13.0729 12.4954 13.57 11.9333 14.4045 11.9333C15.4976 11.9333 15.9349 12.7667 15.9349 13.9885V18.8506H18.9554V13.6394C18.9554 10.8479 17.4651 9.5489 15.4776 9.5489C13.848 9.5489 13.1326 10.4598 12.7351 11.0802H12.7552V9.76217H9.73446C9.7741 10.615 9.73438 18.8506 9.73438 18.8506Z" fill="white"/>
</g>
<defs>
<clipPath id="clip0_3010_14109">
<rect width="24" height="24" fill="white"/>
</clipPath>
</defs>
</svg>
