<svg width="24" height="24" viewBox="0 0 24 24" fill="none" xmlns="http://www.w3.org/2000/svg">
<g clip-path="url(#clip0_3010_14115)">
<circle cx="12" cy="12" r="12" fill="white"/>
<path d="M13.0616 12.2074C13.0616 14.8013 10.9797 16.9042 8.41156 16.9042C5.8434 16.9042 3.76172 14.8019 3.76172 12.2074C3.76172 9.61283 5.84356 7.51074 8.41156 7.51074C10.9796 7.51074 13.0616 9.61347 13.0616 12.2074ZM18.1627 12.2074C18.1627 14.6492 17.1217 16.6286 15.8377 16.6286C14.5537 16.6286 13.5127 14.6486 13.5127 12.2074C13.5127 9.76616 14.5537 7.7862 15.8377 7.7862C17.1217 7.7862 18.1627 9.76616 18.1627 12.2074ZM20.2491 12.2074C20.2491 14.3952 19.8829 16.1686 19.4314 16.1686C18.9798 16.1686 18.6136 14.3945 18.6136 12.2074C18.6136 10.0202 18.9798 8.24618 19.4315 8.24618C19.8832 8.24618 20.2491 10.0198 20.2491 12.2074Z" fill="black"/>
</g>
<defs>
<clipPath id="clip0_3010_14115">
<rect width="24" height="24" fill="white"/>
</clipPath>
</defs>
</svg>
