<svg width="24" height="24" viewBox="0 0 24 24" fill="none" xmlns="http://www.w3.org/2000/svg">
<g clip-path="url(#clip0_3010_14099)">
<circle cx="12" cy="12" r="12" fill="#1D9BF0"/>
<path d="M21 7.59108C20.3932 7.85995 19.7414 8.04162 19.0561 8.12374C19.7632 7.70066 20.2922 7.03478 20.5444 6.25035C19.8801 6.64493 19.153 6.92268 18.3949 7.0715C17.885 6.52712 17.2097 6.1663 16.4737 6.04505C15.7378 5.9238 14.9824 6.04891 14.3249 6.40096C13.6673 6.75301 13.1444 7.3123 12.8373 7.99199C12.5302 8.67169 12.4561 9.43376 12.6265 10.1599C11.2804 10.0923 9.96364 9.74245 8.76156 9.13303C7.55948 8.5236 6.49898 7.66822 5.64888 6.62242C5.35821 7.12382 5.19107 7.70517 5.19107 8.3243C5.19075 8.88166 5.328 9.43048 5.59066 9.92207C5.85331 10.4137 6.23325 10.8328 6.69675 11.1424C6.15921 11.1253 5.63353 10.98 5.16346 10.7187V10.7623C5.1634 11.544 5.43381 12.3017 5.92879 12.9067C6.42376 13.5118 7.11283 13.927 7.87906 14.0818C7.3804 14.2167 6.8576 14.2366 6.35013 14.1399C6.56631 14.8125 6.98742 15.4007 7.5545 15.8221C8.12158 16.2435 8.80625 16.4771 9.51264 16.49C8.3135 17.4314 6.83256 17.942 5.30807 17.9397C5.03802 17.9398 4.7682 17.924 4.5 17.8925C6.04745 18.8874 7.84879 19.4155 9.6885 19.4134C15.9161 19.4134 19.3206 14.2555 19.3206 9.78202C19.3206 9.63668 19.317 9.48989 19.3105 9.34456C19.9727 8.86566 20.5443 8.27263 20.9985 7.59326L21 7.59108V7.59108Z" fill="white"/>
</g>
<defs>
<clipPath id="clip0_3010_14099">
<rect width="24" height="24" fill="white"/>
</clipPath>
</defs>
</svg>
