<svg width="84" height="84" fill="none" xmlns="http://www.w3.org/2000/svg"><path fill-rule="evenodd" clip-rule="evenodd" d="M42 84c23.196 0 42-18.804 42-42S65.196 0 42 0 0 18.804 0 42s18.804 42 42 42Z" fill="#00C26F"/><path fill-rule="evenodd" clip-rule="evenodd" d="M50.519 41.334a6.169 6.169 0 0 0-.875-7.714 6.354 6.354 0 0 0-4.456-1.797h-1.533v-2.33a.785.785 0 0 0-.785-.784h-2.36a.785.785 0 0 0-.784.785v2.33h-7.043a.785.785 0 0 0-.785.784v2.39c0 .433.352.784.785.784h2.03V48.63h-2.03a.785.785 0 0 0-.785.784v2.366a.785.785 0 0 0 .785.785h7.037v2.36a.785.785 0 0 0 .785.784h2.36a.785.785 0 0 0 .784-.785v-2.36h3.228a6.324 6.324 0 0 0 4.324-1.652 6.163 6.163 0 0 0 .162-8.864c-.26-.262-.542-.5-.844-.713Zm-11.87-5.546h6.683a2.228 2.228 0 1 1 0 4.456h-6.684v-4.456Zm9.941 12.206a2.216 2.216 0 0 1-1.575.653H38.63v-4.468h8.385a2.228 2.228 0 0 1 1.575 3.815Z" fill="#fff"/></svg>
