<svg width="80" height="80" viewBox="0 0 80 80" fill="none" xmlns="http://www.w3.org/2000/svg">
<path d="M77.9167 57.2602C76.4244 55.067 73.893 54.5316 71.143 55.8256L69.6855 56.4674C71.9836 51.5689 72.2687 46.1084 71.1247 40.9506C69.8108 35.0267 66.6372 29.288 61.6922 23.8938C61.255 23.4167 60.5139 23.3845 60.0367 23.8219C59.5597 24.2591 59.5275 25.0002 59.9648 25.4774C64.6283 30.5642 67.6133 35.9409 68.837 41.458C70.1259 47.2694 69.3761 53.2625 66.0869 58.0517L51.5022 64.4734L51.5142 62.8263C51.5145 62.7847 51.5126 62.7431 51.5084 62.7017C51.1717 59.3163 48.5839 56.6189 45.2153 56.1424C45.2053 56.1408 45.1953 56.1395 45.1851 56.1385L32.2225 54.646C27.238 53.9364 25.9542 50.9494 19.2036 49.2461C18.7372 45.2883 19.3589 41.0744 21.063 36.8499C23.6294 30.4877 28.6501 24.3064 35.6105 18.9263C38.2047 20.7656 49.7786 20.9945 52.3686 18.6217C53.6955 19.6294 54.9619 20.6678 56.1415 21.7189C56.3648 21.918 56.6433 22.0158 56.9206 22.0158C57.2431 22.0158 57.5644 21.8834 57.7958 21.6236C58.2262 21.1405 58.1834 20.3999 57.7003 19.9694C56.4072 18.8174 55.0162 17.6806 53.5573 16.582C53.8992 15.1324 53.4208 13.4356 52.1583 12.4256C55.8269 6.86126 56.8939 3.21923 55.42 1.3111C54.4076 0.000323653 53.1483 0.61548 52.6105 0.878292C51.6989 1.32329 51.2019 1.34673 50.3631 0.79798C48.763 -0.249051 47.0811 -0.282801 45.4294 0.79798C44.58 1.35376 43.9111 1.35376 43.062 0.79798C41.4617 -0.249051 39.7805 -0.282801 38.1284 0.79798C37.28 1.35329 36.7811 1.31892 35.8839 0.87298C35.3467 0.605949 34.0887 -0.0193639 33.07 1.29157C31.6292 3.14595 32.5931 6.67314 36.0142 12.0483C35.8047 12.1616 35.605 12.2945 35.4186 12.4464C34.058 11.0095 31.8287 9.51095 28.605 9.87095C25.9311 10.1702 23.9594 9.28657 22.7759 8.49282C22.2384 8.13282 21.5106 8.27626 21.1503 8.81345C20.79 9.35095 20.9336 10.0788 21.4709 10.4391C22.9795 11.4505 25.4867 12.5764 28.865 12.1997C31.3556 11.9203 33.0456 13.1931 34.0976 14.4884C34.0833 14.5384 34.07 14.5888 34.0576 14.6391C33.1603 14.6531 31.8192 14.7369 30.3423 15.0441C26.7905 15.783 24.1539 17.4709 22.7175 19.9259C22.3908 20.4844 22.5786 21.2022 23.137 21.5291C23.6956 21.8558 24.4133 21.6678 24.74 21.1094C26.8765 17.458 32.0917 17.0114 34.1631 16.9834C34.172 17.0092 34.1825 17.0347 34.1919 17.0603C26.8 22.7624 21.6537 29.1213 18.89 35.9728C17.1431 40.3036 16.4453 44.6424 16.7995 48.7656C15.6759 48.5994 14.5394 48.5102 13.3973 48.5024V47.7938C13.3973 45.9189 11.872 44.3938 9.99717 44.3938H4.61842C2.74357 44.3938 1.21826 45.9191 1.21826 47.7938V75.0819C1.21826 76.9569 2.74357 78.482 4.61842 78.482H9.99701C11.8719 78.482 13.3972 76.9567 13.3972 75.0819V74.7481L25.1301 79.1152C26.7069 79.7019 28.3594 79.9995 30.0417 79.9995H47.5239C50.1967 79.9995 52.8028 79.2433 55.0603 77.8128C78.382 63.0285 76.9658 63.9483 77.1005 63.8289C78.979 62.1614 79.33 59.3374 77.9167 57.2602ZM50.1698 17.2333C45.8851 18.3152 41.7192 18.3152 37.4336 17.2333C35.5947 16.7684 36.1275 13.4888 38.1037 13.9844C41.9378 14.9469 45.6653 14.9469 49.4997 13.9844C51.4415 13.4969 52.0383 16.7611 50.1698 17.2333ZM34.8137 2.95814C34.823 2.96267 34.8322 2.96736 34.8409 2.97173C36.4267 3.75986 37.8162 3.80267 39.4114 2.75907C41.4076 1.45235 41.6244 3.54751 44.2455 3.54751C45.5073 3.54751 46.2037 3.09189 46.7122 2.75907C47.5617 2.20314 48.2308 2.20345 49.0801 2.75907C50.6823 3.80751 52.0383 3.75579 53.6701 2.96876C53.9112 3.83782 53.3656 6.4286 49.8912 11.6014C48.1659 11.572 45.6622 13.2666 38.5744 11.6892C35.1075 6.44954 34.5714 3.83361 34.8137 2.95814ZM75.6083 62.0191L53.8061 75.8342C51.9244 77.0266 49.752 77.657 47.524 77.657H30.0419C28.6395 77.657 27.262 77.4089 25.9476 76.9197L13.3972 72.2483V59.6303C13.3972 58.9831 12.8726 58.4586 12.2256 58.4586C11.5786 58.4586 11.054 58.9831 11.054 59.6303V75.0825C11.054 75.6653 10.5798 76.1394 9.99717 76.1394H4.61842C4.03561 76.1394 3.56154 75.6652 3.56154 75.0825V47.7944C3.56154 47.2116 4.03561 46.7377 4.61842 46.7377H9.99701C10.5798 46.7377 11.0539 47.2117 11.0539 47.7944V54.1528C11.0539 54.8 11.5784 55.3245 12.2255 55.3245C12.8725 55.3245 13.397 54.8 13.397 54.1528V50.8463C23.0894 50.9205 25.2686 56.0291 31.9089 56.9683C31.9189 56.9699 31.9289 56.9711 31.9389 56.9722L44.9009 58.4645C47.1706 58.7922 48.9173 60.5995 49.1701 62.875L49.1539 65.1038H37.0656C36.4186 65.1038 35.8939 65.6283 35.8939 66.2755C35.8939 66.9227 36.4184 67.4472 37.0656 67.4472H50.317C50.465 67.4472 50.6359 67.4144 50.7847 67.3495C50.8086 67.3389 72.0758 57.9753 72.1006 57.9644C73.6336 57.2831 75.0312 57.1858 75.979 58.5786C76.7159 59.6609 76.5528 61.1242 75.6083 62.0191Z" fill="#8080BE"/>
<path fill-rule="evenodd" clip-rule="evenodd" d="M53.0837 37.648C53.4603 35.1263 51.5403 33.7707 48.915 32.8663L49.7666 29.4504L47.6867 28.9322L46.8576 32.2581C46.3115 32.1219 45.7501 31.9934 45.1922 31.8661L46.0273 28.5182L43.9491 28L43.0969 31.4148C42.6445 31.3117 42.2003 31.2099 41.7692 31.1027L41.7715 31.092L38.904 30.376L38.3508 32.5969C38.3508 32.5969 39.8936 32.9504 39.861 32.9723C40.7031 33.1826 40.8559 33.7399 40.8299 34.1817L39.8598 38.0732C39.9179 38.088 39.9931 38.1093 40.076 38.1425L39.8569 38.088L38.4965 43.5394C38.3935 43.7953 38.1323 44.179 37.5436 44.0334C37.5643 44.0636 36.0323 43.6561 36.0323 43.6561L35 46.0369L37.7065 46.7114C38.012 46.788 38.3138 46.8667 38.6123 46.9446C38.8056 46.995 38.9976 47.0451 39.1882 47.094L38.3277 50.5496L40.4047 51.0678L41.2575 47.6495C41.8242 47.8035 42.375 47.9456 42.9139 48.0795L42.0647 51.4818L44.144 52L45.0045 48.5515C48.5502 49.2225 51.217 48.9518 52.338 45.7455C53.2424 43.1634 52.2936 41.6739 50.4281 40.7021C51.7867 40.3876 52.81 39.4939 53.0831 37.648H53.0837ZM48.3325 44.3098C47.7422 46.6797 44.0319 45.6991 42.3358 45.2508C42.1839 45.2107 42.0482 45.1748 41.9323 45.146L43.0741 40.5687C43.2158 40.604 43.3888 40.6429 43.5849 40.6869C45.3396 41.0806 48.9356 41.8876 48.3331 44.3098H48.3325ZM43.9371 38.5632C45.3523 38.9408 48.4372 39.7638 48.9746 37.6109C49.524 35.4085 46.5243 34.7446 45.0593 34.4204C44.8946 34.384 44.7493 34.3518 44.6306 34.3223L43.5954 38.4738C43.6933 38.4982 43.8083 38.5289 43.9371 38.5632Z" fill="#8080BE"/>
</svg>
