<svg width="80" height="80" viewBox="0 0 80 80" fill="none" xmlns="http://www.w3.org/2000/svg">
<g clip-path="url(#clip0)">
<path fill-rule="evenodd" clip-rule="evenodd" d="M40.4767 0.0699609L73.81 10.07C74.5167 10.2832 75 10.93 75 11.6667V44.8321C73.968 44.3812 72.8453 44.0995 71.6667 44.0219V12.9067L40 3.40668L8.33328 12.9067V48.3332C8.33328 60.0365 26.8767 72.3432 40 76.5865C41.5218 76.0945 43.1165 75.494 44.7467 74.7986C45.1758 75.8426 45.7764 76.7981 46.5135 77.6298C44.3455 78.5893 42.3015 79.3637 40.4933 79.9267C40.3333 79.9767 40.1666 80 40 80C39.8334 80 39.6667 79.9767 39.5067 79.9267C27.4733 76.1834 5 63.0734 5 48.3334V11.6667C5 10.93 5.48328 10.28 6.18672 10.07L39.52 0.0699609C39.8334 -0.0233203 40.1634 -0.0233203 40.4767 0.0699609Z" fill="#8080BE"/>
<path d="M60.2377 61.2857V65.8571C60.2377 66.6987 60.9226 67.381 61.7674 67.381C62.6123 67.381 63.2972 66.6987 63.2972 65.8571V61.2857H60.2377Z" fill="#8080BE"/>
<path fill-rule="evenodd" clip-rule="evenodd" d="M54.1189 50.619C54.1189 46.4112 57.5432 43 61.7674 43C65.9916 43 69.416 46.4109 69.416 50.6189V53.6667H72.4755C74.1651 53.6667 75.5349 55.0311 75.5349 56.7143V68.9048C75.5349 72.2711 72.7954 75 69.416 75H54.1189C50.7395 75 48 72.2711 48 68.9048V56.7143C48 55.0311 49.3698 53.6667 51.0594 53.6667H54.1189V50.619ZM66.3566 53.6667H57.1783V50.619C57.1783 48.0943 59.2329 46.0476 61.7674 46.0476C64.302 46.0476 66.3566 48.0942 66.3566 50.6189V53.6667ZM51.0594 56.7143V68.9048C51.0594 70.5879 52.4292 71.9524 54.1189 71.9524H69.416C71.1057 71.9524 72.4755 70.5879 72.4755 68.9048V56.7143H51.0594Z" fill="#8080BE"/>
</g>
<defs>
<clipPath id="clip0">
<rect width="80" height="80" fill="white"/>
</clipPath>
</defs>
</svg>
