<svg width="13" height="13" viewBox="0 0 13 13" version="1.1" xmlns="http://www.w3.org/2000/svg" xmlns:xlink="http://www.w3.org/1999/xlink">
<title>Group</title>
<desc>Created using Figma</desc>
<g id="Canvas" transform="translate(-7782 -958)">
<g id="Group">
<g id="Group">
<g id="Ellipse">
<use xlink:href="#path0_fill" transform="translate(7782 958)" fill="#B3B3B3"/>
</g>
</g>
<g id="?">
<use xlink:href="#path1_fill" transform="translate(7786 963)" fill="#FFFFFF"/>
</g>
</g>
</g>
<defs>
<path id="path0_fill" d="M 13 6.5C 13 10.0899 10.0899 13 6.5 13C 2.91015 13 0 10.0899 0 6.5C 0 2.91015 2.91015 0 6.5 0C 10.0899 0 13 2.91015 13 6.5Z"/>
<path id="path1_fill" d="M 1.69434 2.81738C 1.69434 2.36165 1.74967 1.9987 1.86035 1.72852C 1.97103 1.45833 2.17285 1.19303 2.46582 0.932617C 2.76204 0.668945 2.95898 0.455729 3.05664 0.292969C 3.1543 0.126953 3.20312 -0.0472005 3.20312 -0.229492C 3.20312 -0.779622 2.94922 -1.05469 2.44141 -1.05469C 2.20052 -1.05469 2.00684 -0.979818 1.86035 -0.830078C 1.71712 -0.683594 1.64225 -0.480143 1.63574 -0.219727L 0.219727 -0.219727C 0.226237 -0.841471 0.426432 -1.32812 0.820312 -1.67969C 1.21745 -2.03125 1.75781 -2.20703 2.44141 -2.20703C 3.13151 -2.20703 3.66699 -2.03939 4.04785 -1.7041C 4.42871 -1.37207 4.61914 -0.901693 4.61914 -0.292969C 4.61914 -0.016276 4.55729 0.245768 4.43359 0.493164C 4.3099 0.737305 4.09342 1.00911 3.78418 1.30859L 3.38867 1.68457C 3.14128 1.9222 2.99967 2.20052 2.96387 2.51953L 2.94434 2.81738L 1.69434 2.81738ZM 1.55273 4.31641C 1.55273 4.09831 1.62598 3.91927 1.77246 3.7793C 1.9222 3.63607 2.11263 3.56445 2.34375 3.56445C 2.57487 3.56445 2.76367 3.63607 2.91016 3.7793C 3.0599 3.91927 3.13477 4.09831 3.13477 4.31641C 3.13477 4.53125 3.06152 4.70866 2.91504 4.84863C 2.77181 4.98861 2.58138 5.05859 2.34375 5.05859C 2.10612 5.05859 1.91406 4.98861 1.76758 4.84863C 1.62435 4.70866 1.55273 4.53125 1.55273 4.31641Z"/>
</defs>
</svg>
