<?xml version="1.0" encoding="utf-8"?><svg width="327" height="265" viewBox="0 0 327 265" xmlns="http://www.w3.org/2000/svg" xmlns:xlink="http://www.w3.org/1999/xlink"><svg width="25" height="23" viewBox="-2 -2 25 23" id="exchange-arrows" x="295" y="55" xmlns="http://www.w3.org/2000/svg"><path d="M18.006 4.99l-2.992 2.996-.338.338.675.676.34-.338 3.65-3.655.507-.507-.337-.338L15.69.338 15.35 0l-.674.676.338.338 2.97 2.976H1v1h17.006zm-15.166 10l2.99 2.996.34.338-.676.676-.338-.338-3.65-3.655L1 14.5l.338-.338 3.818-3.824.338-.338.675.676-.34.338-2.97 2.976h16.983v1H2.84z" stroke="#3BEE81" fill="#3BEE81" fill-rule="evenodd" stroke-linecap="square"/></svg><svg width="75" height="44" fill="none" viewBox="-2 -2 75 44" id="logotype" x="97" y="168" xmlns="http://www.w3.org/2000/svg"><path d="M8.234 7.035a4.373 4.373 0 00-1.551-1.19 4.651 4.651 0 00-1.81-.41 5.128 5.128 0 00-2.021.344 4.501 4.501 0 00-1.544 1.014c-.429.437-.761.96-.974 1.535a5.807 5.807 0 000 3.883c.211.58.544 1.107.974 1.548.439.441.965.787 1.544 1.013.644.25 1.331.368 2.022.345a4.65 4.65 0 001.809-.41 4.39 4.39 0 001.551-1.19l-1.06-.822c-.24.358-.56.654-.933.867a2.63 2.63 0 01-1.367.353 3.388 3.388 0 01-1.445-.255 3.155 3.155 0 01-1.097-.735 3.314 3.314 0 01-.688-1.174 4.687 4.687 0 010-2.934c.146-.434.38-.832.688-1.17.304-.33.675-.592 1.088-.768a3.392 3.392 0 011.445-.254c.48-.01.952.113 1.368.353.373.212.693.509.933.866l1.06-.821.008.012zm3.103 7.86h1.297v-4.728a4.115 4.115 0 01.41-1.97c.214-.417.519-.78.892-1.063a2.4 2.4 0 01.937-.448c.184-.032.37-.054.557-.065.955 0 1.61.273 1.965.82.397.72.581 1.537.532 2.357v5.098h1.297V9.041a3.853 3.853 0 00-.843-2.668c-.57-.613-1.445-.919-2.623-.919-.31 0-.616.044-.913.127a4.086 4.086 0 00-.876.353c-.27.148-.52.33-.745.542-.216.202-.4.434-.549.69h-.04V0h-1.298v14.896zm18.215-4.588v.669c.002.39-.055.78-.168 1.153a2.51 2.51 0 01-1.396 1.584 2.948 2.948 0 01-1.228.239c-.262 0-.523-.031-.778-.09a2.13 2.13 0 01-.695-.296 1.555 1.555 0 01-.5-.534 1.535 1.535 0 01-.188-.78 1.324 1.324 0 01.483-1.083 3.115 3.115 0 011.158-.583 7.09 7.09 0 011.417-.238c.49-.033.9-.05 1.227-.05l.668.009zm-.647-1.063c-.546 0-1.152.026-1.818.078a7.158 7.158 0 00-1.866.41 3.545 3.545 0 00-1.453.956 2.529 2.529 0 00-.581 1.765c-.01.408.082.811.266 1.174a2.6 2.6 0 00.708.846c.301.234.644.408 1.01.513.384.112.78.169 1.18.168a4.084 4.084 0 001.895-.41 3.522 3.522 0 001.347-1.33h.04c0 .249.01.505.03.767.018.263.05.501.093.715h1.228a14.595 14.595 0 01-.106-.957 9.407 9.407 0 01-.033-1.096V8.74c.013-.5-.08-.997-.274-1.457a2.987 2.987 0 00-.729-1.014 2.911 2.911 0 00-1.072-.6 4.226 4.226 0 00-1.285-.197c-1.73 0-3.027.446-3.889 1.339l.786.927a4.054 4.054 0 012.808-1.083c1.572 0 2.357.794 2.357 2.384v.238l-.642-.032zm6.246-3.567c.027.342.05.703.07 1.083.019.38.028.695.028.944v7.192h1.298v-4.729a4.114 4.114 0 01.41-1.97c.214-.417.518-.78.892-1.063a2.4 2.4 0 01.937-.448c.181-.036.364-.062.548-.078.955 0 1.61.274 1.965.821a4.33 4.33 0 01.532 2.356v5.11h1.298V9.043a3.853 3.853 0 00-.843-2.668c-.565-.613-1.437-.919-2.616-.919-.309 0-.616.044-.913.127a4.088 4.088 0 00-.876.353 3.631 3.631 0 00-.757.53c-.215.202-.4.434-.548.69h-.041v-.74c0-.243-.017-.49-.05-.738h-1.334zM48.778 8.8a3.525 3.525 0 011.81-1.892 3.173 3.173 0 011.345-.287c.5-.007.994.09 1.453.287.416.178.79.44 1.102.768.302.324.536.707.687 1.124.16.44.24.904.238 1.371.02.498-.064.994-.246 1.457-.17.422-.427.801-.757 1.113a3.597 3.597 0 01-2.456.976 3.168 3.168 0 01-1.347-.287 3.514 3.514 0 01-1.08-.767 3.594 3.594 0 01-.729-1.125 3.666 3.666 0 010-2.738h-.02zm-1.466 8.969a5.706 5.706 0 001.965 1.4 6.3 6.3 0 002.456.45 5.717 5.717 0 002.513-.471 4.14 4.14 0 001.502-1.182 3.95 3.95 0 00.729-1.556 7.47 7.47 0 00.188-1.597V5.677h-1.297v1.535h-.041a4.255 4.255 0 00-1.76-1.42 4.133 4.133 0 00-.925-.275 5.23 5.23 0 00-.876-.078 4.736 4.736 0 00-1.875.365 4.387 4.387 0 00-1.474 1.014c-.417.44-.748.955-.974 1.518a4.908 4.908 0 00-.352 1.872 4.68 4.68 0 00.373 1.872c.237.56.585 1.065 1.023 1.486.44.42.957.751 1.523.976a4.943 4.943 0 001.874.354 4.716 4.716 0 001.908-.41 3.545 3.545 0 001.53-1.339h.041v1.642c.003.476-.06.95-.188 1.408-.114.427-.32.824-.606 1.161a2.898 2.898 0 01-1.109.78c-.532.204-1.1.302-1.67.287a4.435 4.435 0 01-2.047-.463 4.145 4.145 0 01-1.481-1.232l-.95 1.039zm14.597-8.21c0-.383.092-.762.266-1.104.177-.354.417-.674.708-.944.301-.28.65-.504 1.031-.66a3.132 3.132 0 011.228-.247 2.907 2.907 0 012.202.821 2.953 2.953 0 01.774 2.135h-6.21zm7.621 1.064v-.575a5.348 5.348 0 00-.295-1.781 4.264 4.264 0 00-.855-1.457 4.143 4.143 0 00-1.375-.998 4.492 4.492 0 00-1.867-.373 4.562 4.562 0 00-1.826.365 4.502 4.502 0 00-1.473 1.014 4.673 4.673 0 00-.982 1.535 5.164 5.164 0 00-.352 1.929 5.03 5.03 0 00.364 1.93c.229.57.565 1.09.99 1.534.426.438.938.783 1.503 1.014a4.9 4.9 0 001.895.365 5.072 5.072 0 002.132-.451 4.984 4.984 0 001.818-1.498l-1.003-.821a3.601 3.601 0 01-1.15 1.112c-.54.332-1.164.5-1.797.484a3.168 3.168 0 01-1.277-.254 3.394 3.394 0 01-1.768-1.753 3.957 3.957 0 01-.336-1.3l7.654-.021z" fill="#fff"/><path d="M1.125 39.523h3.3V25.26h.052l9.17 14.263h4.19V20.925h-3.303v13.816h-.049L5.48 20.925H1.125v18.598zm21.98-5.254a8.864 8.864 0 002.03 3.06 8.833 8.833 0 003.091 1.972 10.81 10.81 0 003.942.698c1.362 0 2.712-.254 3.983-.747a9.33 9.33 0 003.119-2.011 9.099 9.099 0 002.046-3.075c.497-1.262.74-2.611.717-3.969a10.7 10.7 0 00-.733-4.047 9.032 9.032 0 00-2.047-3.099 8.708 8.708 0 00-3.119-1.958 11 11 0 00-3.982-.644 10.816 10.816 0 00-3.942.698 8.9 8.9 0 00-3.09 1.982 9.105 9.105 0 00-2.047 3.111 10.796 10.796 0 00-.688 4.064 10.345 10.345 0 00.733 3.965h-.012zm3.185-6.777a6.44 6.44 0 011.298-2.113 5.96 5.96 0 012.005-1.42 6.412 6.412 0 012.616-.514 6.51 6.51 0 012.62.513c.764.327 1.452.81 2.018 1.42a6.452 6.452 0 011.297 2.114 7.28 7.28 0 01.442 2.59c.01.94-.145 1.873-.458 2.759a6.486 6.486 0 01-1.298 2.18 5.997 5.997 0 01-2.018 1.444 6.362 6.362 0 01-2.62.525 6.269 6.269 0 01-2.607-.525 6.026 6.026 0 01-2.006-1.445 6.473 6.473 0 01-1.297-2.18 8.013 8.013 0 01-.454-2.758 7.27 7.27 0 01.458-2.602l.004.012zm23.688 12.031h3.037l4.298-14.16h.053l4.314 14.16h3.144l5.395-18.598h-3.353l-3.643 13.397h-.053l-4.093-13.397h-3.25l-4.171 13.397h-.053l-3.484-13.397h-3.63l5.489 18.598z" fill="#00C26F"/></svg><svg width="126" height="30" fill="none" viewBox="-2 -2 126 30" id="logotype-sub" x="151" y="79" xmlns="http://www.w3.org/2000/svg"><path d="M26.266 13.293c-.106.902-.44 1.6-1.002 2.092-.559.488-1.303.732-2.233.732-1.008 0-1.816-.361-2.425-1.084-.606-.723-.909-1.69-.909-2.9v-.82c0-.793.14-1.49.422-2.092.285-.602.688-1.063 1.207-1.383.52-.324 1.121-.486 1.805-.486.906 0 1.633.253 2.18.761.546.504.865 1.203.955 2.098h-1.131c-.098-.68-.31-1.172-.639-1.477-.324-.304-.78-.457-1.365-.457-.719 0-1.283.266-1.694.797-.406.531-.609 1.287-.609 2.268v.826c0 .926.194 1.662.58 2.209.387.547.928.82 1.623.82.625 0 1.104-.14 1.436-.422.336-.285.558-.779.668-1.482h1.13zm5.285-2.66a3.254 3.254 0 00-.533-.041c-.711 0-1.193.303-1.447.908V16h-1.084V9.66h1.054l.018.733c.355-.567.86-.85 1.512-.85.21 0 .37.027.48.082v1.008zm4.032 3.78l1.476-4.753h1.16l-2.548 7.319c-.395 1.054-1.022 1.582-1.881 1.582l-.205-.018-.404-.076v-.88l.292.024c.368 0 .653-.074.856-.222.207-.149.377-.42.51-.815l.24-.644-2.262-6.27h1.184l1.582 4.752zm9.815-1.513c0 .965-.221 1.743-.663 2.332-.44.59-1.038.885-1.792.885-.77 0-1.375-.244-1.817-.732v3.053h-1.084V9.66h.99l.053.703c.442-.547 1.055-.82 1.84-.82.762 0 1.363.287 1.805.861.445.575.668 1.373.668 2.397v.1zm-1.084-.123c0-.714-.153-1.279-.457-1.693-.305-.414-.723-.621-1.254-.621-.657 0-1.149.29-1.477.873v3.03c.324.577.82.866 1.489.866.519 0 .931-.205 1.236-.615.308-.414.463-1.027.463-1.84zM49.1 8.125V9.66h1.184v.838H49.1v3.932c0 .254.053.445.158.574.106.125.285.187.54.187.124 0 .296-.023.515-.07V16a3.144 3.144 0 01-.832.117c-.484 0-.85-.146-1.096-.44-.246-.292-.369-.708-.369-1.247v-3.932h-1.154V9.66h1.154V8.125H49.1zm2.901 4.646c0-.62.121-1.18.363-1.675a2.758 2.758 0 011.02-1.149 2.79 2.79 0 011.494-.404c.863 0 1.56.299 2.092.897.535.597.802 1.392.802 2.384v.076c0 .618-.119 1.172-.357 1.665a2.67 2.67 0 01-1.014 1.142c-.437.273-.941.41-1.511.41-.86 0-1.557-.299-2.092-.896-.531-.598-.797-1.389-.797-2.373v-.077zm1.09.13c0 .703.162 1.267.486 1.693.328.426.766.638 1.313.638.55 0 .988-.214 1.312-.644.324-.434.486-1.04.486-1.816 0-.696-.166-1.258-.498-1.688a1.564 1.564 0 00-1.312-.65c-.535 0-.967.213-1.295.638-.328.426-.492 1.035-.492 1.828zm15.71-.844h-3.698v3.023H69.4V16h-5.42V7.469h5.362v.926h-4.237v2.742h3.698v.92zm4.805-.082l1.406-2.315h1.265l-2.074 3.135L76.343 16h-1.254l-1.465-2.373L72.16 16H70.9l2.14-3.205-2.075-3.135h1.254l1.389 2.315zm7.102 3.257c.386 0 .724-.117 1.013-.351.29-.235.45-.527.48-.879h1.026c-.02.363-.144.709-.375 1.037-.23.328-.539.59-.926.785a2.645 2.645 0 01-1.218.293c-.864 0-1.551-.287-2.063-.861-.508-.578-.762-1.367-.762-2.367v-.182c0-.617.114-1.166.34-1.647.227-.48.551-.853.973-1.119.426-.265.928-.398 1.506-.398.71 0 1.3.213 1.77.639.472.425.724.978.755 1.658h-1.025a1.477 1.477 0 00-.469-1.008 1.433 1.433 0 00-1.031-.398c-.551 0-.979.199-1.284.597-.3.395-.45.967-.45 1.717v.205c0 .73.15 1.293.45 1.688.301.394.731.591 1.29.591zm5.672-4.804c.48-.59 1.105-.885 1.875-.885 1.34 0 2.016.756 2.027 2.268V16H89.2v-4.195c-.004-.457-.11-.795-.316-1.014-.203-.219-.522-.328-.955-.328-.352 0-.66.094-.926.281a1.909 1.909 0 00-.621.738V16h-1.084V7h1.084v3.428zM96.67 16c-.063-.125-.114-.348-.153-.668-.504.523-1.106.785-1.805.785-.625 0-1.138-.176-1.54-.527a1.728 1.728 0 01-.598-1.348c0-.66.25-1.172.75-1.535.504-.367 1.21-.55 2.12-.55H96.5v-.499c0-.379-.113-.68-.34-.902-.226-.227-.56-.34-1.001-.34-.387 0-.711.098-.973.293-.262.195-.393.432-.393.709h-1.09c0-.316.112-.621.334-.914a2.32 2.32 0 01.915-.703c.386-.172.81-.258 1.271-.258.73 0 1.303.184 1.717.55.414.364.629.866.644 1.507v2.918c0 .582.075 1.044.223 1.388V16H96.67zm-1.8-.826c.34 0 .663-.088.967-.264a1.59 1.59 0 00.662-.685v-1.301h-.85c-1.327 0-1.991.389-1.991 1.166 0 .34.113.605.34.797.226.191.517.287.873.287zm6.288-5.514l.035.797c.485-.61 1.117-.914 1.899-.914 1.339 0 2.015.756 2.027 2.268V16h-1.084v-4.195c-.004-.457-.109-.795-.316-1.014-.204-.219-.522-.328-.956-.328-.351 0-.66.094-.925.281a1.903 1.903 0 00-.621.738V16h-1.084V9.66h1.025zm6.188 3.117c0-.988.228-1.773.685-2.355.457-.586 1.063-.879 1.817-.879.773 0 1.377.273 1.81.82l.053-.703h.99v6.188c0 .82-.244 1.466-.732 1.94-.484.472-1.137.708-1.957.708-.457 0-.904-.098-1.342-.293-.437-.195-.771-.463-1.002-.803l.563-.65c.464.574 1.033.861 1.705.861.527 0 .937-.148 1.23-.445.297-.297.446-.715.446-1.254v-.545c-.434.5-1.026.75-1.776.75-.742 0-1.344-.299-1.805-.896-.457-.598-.685-1.412-.685-2.444zm1.09.123c0 .715.146 1.278.439 1.688.293.406.703.61 1.231.61.683 0 1.185-.311 1.506-.932V11.37c-.333-.605-.831-.908-1.495-.908-.527 0-.939.205-1.236.615-.297.41-.445 1.018-.445 1.822zm9.387 3.217c-.86 0-1.559-.281-2.098-.844-.539-.566-.808-1.322-.808-2.267v-.2c0-.628.119-1.189.357-1.681a2.811 2.811 0 011.008-1.16 2.533 2.533 0 011.406-.422c.824 0 1.465.271 1.922.814.457.543.685 1.32.685 2.333v.45h-4.294c.015.626.197 1.131.544 1.518.352.383.797.574 1.336.574.383 0 .707-.078.973-.234.266-.156.498-.363.697-.621l.662.516c-.531.816-1.328 1.224-2.39 1.224zm-.135-5.683c-.437 0-.805.16-1.101.48-.297.316-.481.762-.551 1.336h3.176v-.082c-.032-.55-.18-.977-.446-1.277-.265-.305-.625-.457-1.078-.457z" fill="#8B86AF"/><path d="M1.5.5v24.083" stroke="#8B86AF" stroke-linecap="square"/></svg><svg width="151" height="132" fill="none" viewBox="-2 -2 151 132" id="mail"><g clip-path="url(#dclip0)"><path fill="url(#dpaint0_linear)" d="M119.604 125.003h-92.6c-5.478 0-9.912-4.423-9.912-9.89V61.8c0-5.465 4.434-9.89 9.912-9.89h13.738v4.772H27.004c-2.826 0-5.13 2.299-5.13 5.118v53.27c0 2.82 2.304 5.118 5.13 5.118h92.6c2.826 0 5.13-2.299 5.13-5.118V61.8c0-2.82-2.304-5.118-5.13-5.118h-13.65V51.91h13.65c5.478 0 9.912 4.425 9.912 9.89v53.27c0 5.509-4.434 9.933-9.912 9.933z"/><path fill="#3BEE81" d="M14.202 13.214c11.161 0 13.332-2.15 13.332-13.214 0 11.063 2.17 13.214 13.333 13.214-11.163 0-13.333 2.151-13.333 13.215 0-11.064-2.17-13.215-13.332-13.215zM.512 31.074c6.938 0 8.288-1.337 8.288-8.214 0 6.877 1.35 8.214 8.287 8.214-6.938 0-8.287 1.337-8.287 8.215 0-6.878-1.35-8.215-8.288-8.215z"/><path fill="url(#dpaint1_linear)" d="M73.303 88.08c-3.478 0-6.912-.91-9.999-2.689l-43.822-25.55 2.391-4.121 43.822 25.55a15.146 15.146 0 0015.216 0l43.822-25.55 2.391 4.121-43.822 25.55a19.988 19.988 0 01-9.999 2.69v-.001z"/><path fill="url(#dpaint2_linear)" d="M108.335 69.436h-4.782v-41.6a3.778 3.778 0 00-3.782-3.774H46.906a3.78 3.78 0 00-3.782 3.774v41.036h-4.782V27.836c0-4.729 3.87-8.546 8.564-8.546h52.866c4.739 0 8.564 3.817 8.564 8.546v41.6h-.001z"/><path fill="#D8DFE9" d="M95.078 36.765H50.56a2.474 2.474 0 01-2.478-2.472v-.13a2.474 2.474 0 012.478-2.473h44.518a2.475 2.475 0 012.478 2.473v.13a2.447 2.447 0 01-2.478 2.472zm0 9.54H50.56a2.474 2.474 0 01-2.478-2.472v-.13a2.474 2.474 0 012.478-2.473h44.518a2.473 2.473 0 012.478 2.473v.13a2.446 2.446 0 01-2.478 2.472zM63.385 59.72H50.56a2.475 2.475 0 01-2.478-2.473v-4.164a2.474 2.474 0 012.478-2.473h12.825a2.473 2.473 0 012.478 2.473v4.164a2.446 2.446 0 01-2.478 2.473zm50.43 52.052H100.99a2.471 2.471 0 01-2.478-2.473v-6.116a2.472 2.472 0 012.478-2.473h12.825a2.469 2.469 0 012.289 1.526c.125.3.189.622.189.947v6.116c.043 1.388-1.087 2.473-2.478 2.473z"/><path fill="url(#dpaint3_linear)" d="M47.002 100.36h-27.52v4.772h27.52v-4.772z"/><path fill="url(#dpaint4_linear)" d="M47.002 107.95h-27.52v4.772h27.52v-4.772z"/></g><defs><linearGradient id="dpaint0_linear" x1="-117.761" x2="-71.877" y1="115.952" y2="-252.794" gradientUnits="userSpaceOnUse"><stop stop-color="#56527B"/><stop offset=".11" stop-color="#4C4763"/><stop offset=".232" stop-color="#413C4E"/><stop offset=".36" stop-color="#37333D"/><stop offset=".495" stop-color="#2F2B31"/><stop offset=".638" stop-color="#282528"/><stop offset=".797" stop-color="#242122"/><stop offset="1" stop-color="#231F20"/></linearGradient><linearGradient id="dpaint1_linear" x1="-121.285" x2="-75.401" y1="115.506" y2="-253.24" gradientUnits="userSpaceOnUse"><stop stop-color="#56527B"/><stop offset=".11" stop-color="#4C4763"/><stop offset=".232" stop-color="#413C4E"/><stop offset=".36" stop-color="#37333D"/><stop offset=".495" stop-color="#2F2B31"/><stop offset=".638" stop-color="#282528"/><stop offset=".797" stop-color="#242122"/><stop offset="1" stop-color="#231F20"/></linearGradient><linearGradient id="dpaint2_linear" x1="-122.66" x2="-76.776" y1="115.344" y2="-253.402" gradientUnits="userSpaceOnUse"><stop stop-color="#56527B"/><stop offset=".11" stop-color="#4C4763"/><stop offset=".232" stop-color="#413C4E"/><stop offset=".36" stop-color="#37333D"/><stop offset=".495" stop-color="#2F2B31"/><stop offset=".638" stop-color="#282528"/><stop offset=".797" stop-color="#242122"/><stop offset="1" stop-color="#231F20"/></linearGradient><linearGradient id="dpaint3_linear" x1="-155.462" x2="-109.578" y1="111.257" y2="-257.489" gradientUnits="userSpaceOnUse"><stop stop-color="#56527B"/><stop offset=".11" stop-color="#4C4763"/><stop offset=".232" stop-color="#413C4E"/><stop offset=".36" stop-color="#37333D"/><stop offset=".495" stop-color="#2F2B31"/><stop offset=".638" stop-color="#282528"/><stop offset=".797" stop-color="#242122"/><stop offset="1" stop-color="#231F20"/></linearGradient><linearGradient id="dpaint4_linear" x1="-154.528" x2="-108.644" y1="111.371" y2="-257.375" gradientUnits="userSpaceOnUse"><stop stop-color="#56527B"/><stop offset=".11" stop-color="#4C4763"/><stop offset=".232" stop-color="#413C4E"/><stop offset=".36" stop-color="#37333D"/><stop offset=".495" stop-color="#2F2B31"/><stop offset=".638" stop-color="#282528"/><stop offset=".797" stop-color="#242122"/><stop offset="1" stop-color="#231F20"/></linearGradient><clipPath id="dclip0"><path fill="#fff" d="M0 0h146v128H0z" transform="translate(.512)"/></clipPath></defs></svg><svg width="97" height="97" viewBox="-2 -2 97 97" id="play-btn" y="168" xmlns="http://www.w3.org/2000/svg"><use xlink:href="#epath0_fill" fill="#3BEE81"/><use xlink:href="#epath1_fill" transform="rotate(90 15.78 46.52)" fill="#FFF"/><defs><path id="epath0_fill" d="M93 46.5C93 72.181 72.181 93 46.5 93S0 72.181 0 46.5 20.819 0 46.5 0 93 20.819 93 46.5z"/><path id="epath1_fill" d="M14.897 1.5a1 1 0 011.732 0l11.919 20.644a1 1 0 01-.866 1.5H3.844a1 1 0 01-.866-1.5L14.897 1.5z"/></defs></svg><svg width="144" height="45" viewBox="-2 -2 144 45" id="play-market" x="151" xmlns="http://www.w3.org/2000/svg"><defs><linearGradient x1="91.49%" y1="4.96%" x2="-38.317%" y2="71.909%" id="fa"><stop stop-color="#00A0FF" offset="0%"/><stop stop-color="#00A1FF" offset=".66%"/><stop stop-color="#00BEFF" offset="26.01%"/><stop stop-color="#00D2FF" offset="51.22%"/><stop stop-color="#00DFFF" offset="76.04%"/><stop stop-color="#00E3FF" offset="100%"/></linearGradient><linearGradient x1="107.586%" y1="50.016%" x2="-130.492%" y2="50.016%" id="fb"><stop stop-color="#FFE000" offset="0%"/><stop stop-color="#FFBD00" offset="40.87%"/><stop stop-color="orange" offset="77.54%"/><stop stop-color="#FF9C00" offset="100%"/></linearGradient><linearGradient x1="86.238%" y1="117.851%" x2="-50.131%" y2="294.785%" id="fc"><stop stop-color="#FF3A44" offset="0%"/><stop stop-color="#C31162" offset="100%"/></linearGradient><linearGradient x1="-18.801%" y1="-154.171%" x2="42.094%" y2="-75.137%" id="fd"><stop stop-color="#32A071" offset="0%"/><stop stop-color="#2DA771" offset="6.85%"/><stop stop-color="#15CF74" offset="47.62%"/><stop stop-color="#06E775" offset="80.09%"/><stop stop-color="#00F076" offset="100%"/></linearGradient></defs><g fill-rule="nonzero" fill="none"><path d="M134.168 40.825H5.184c-2.836 0-5.16-2.261-5.16-5.023V5.663C.025 2.902 2.349.64 5.185.64h128.984c2.837 0 5.16 2.262 5.16 5.023v30.14c0 2.76-2.323 5.022-5.16 5.022z" fill="#000" opacity=".401"/><path d="M48.954 10.931c0 .84-.258 1.51-.767 2.012-.584.594-1.345.893-2.277.893-.892 0-1.653-.304-2.277-.903-.626-.608-.938-1.354-.938-2.247 0-.893.312-1.639.938-2.241.624-.604 1.385-.908 2.277-.908.443 0 .866.089 1.27.255.402.167.73.393.967.672l-.539.53c-.414-.476-.977-.711-1.698-.711-.65 0-1.214.22-1.693.667-.473.447-.71 1.026-.71 1.736 0 .711.237 1.295.71 1.742a2.42 2.42 0 001.693.667c.69 0 1.27-.226 1.728-.672.302-.295.473-.702.518-1.222H45.91v-.726h2.997c.036.157.047.31.047.456zM53.71 8.415h-2.817v1.908h2.539v.726h-2.539v1.909h2.816v.74h-3.613V7.675h3.613zM57.065 13.698h-.797V8.415h-1.727v-.74h4.253v.74h-1.729v5.283zM61.871 13.698V7.675h.796v6.023zM66.195 13.698h-.79V8.415H63.67v-.74h4.257v.74h-1.733zM75.98 12.923c-.61.609-1.366.913-2.268.913-.907 0-1.663-.304-2.273-.913-.608-.608-.912-1.354-.912-2.237s.304-1.628.912-2.236c.61-.61 1.366-.913 2.273-.913.897 0 1.652.304 2.262.918.614.613.918 1.354.918 2.231 0 .883-.304 1.63-.912 2.237zm-3.951-.505c.459.45 1.018.677 1.683.677.66 0 1.224-.226 1.678-.677.458-.45.69-1.03.69-1.732s-.232-1.28-.69-1.731c-.454-.451-1.018-.677-1.678-.677-.665 0-1.224.226-1.683.677-.458.45-.69 1.03-.69 1.731 0 .702.232 1.281.69 1.732zM78.01 13.698V7.675h.967l3.008 4.684h.035l-.035-1.158V7.675h.796v6.023h-.83L78.8 8.783h-.035l.034 1.162v3.753h-.79z" stroke="#FFF" stroke-width=".625" fill="#FFF"/><path d="M70.331 22.493c-2.423 0-4.403 1.796-4.403 4.274 0 2.457 1.98 4.272 4.403 4.272 2.43 0 4.41-1.815 4.41-4.272 0-2.478-1.98-4.274-4.41-4.274zm0 6.863c-1.33 0-2.474-1.068-2.474-2.59 0-1.54 1.145-2.59 2.474-2.59 1.33 0 2.48 1.05 2.48 2.59 0 1.522-1.15 2.59-2.48 2.59zm-9.608-6.863c-2.428 0-4.403 1.796-4.403 4.274 0 2.457 1.975 4.272 4.403 4.272 2.428 0 4.404-1.815 4.404-4.272 0-2.478-1.976-4.274-4.404-4.274zm0 6.863c-1.33 0-2.479-1.068-2.479-2.59 0-1.54 1.148-2.59 2.48-2.59 1.33 0 2.473 1.05 2.473 2.59 0 1.522-1.144 2.59-2.474 2.59zM49.29 23.803v1.816h4.454c-.13 1.015-.479 1.76-1.013 2.28-.65.628-1.662 1.325-3.44 1.325-2.742 0-4.888-2.153-4.888-4.822 0-2.668 2.146-4.822 4.887-4.822 1.482 0 2.56.564 3.356 1.295l1.315-1.28c-1.113-1.035-2.594-1.83-4.67-1.83-3.76 0-6.918 2.978-6.918 6.637 0 3.66 3.159 6.637 6.917 6.637 2.032 0 3.558-.648 4.757-1.864 1.23-1.196 1.612-2.88 1.612-4.238 0-.422-.036-.81-.1-1.134H49.29zm46.752 1.408c-.363-.956-1.48-2.718-3.759-2.718-2.257 0-4.136 1.732-4.136 4.274 0 2.393 1.86 4.272 4.353 4.272a4.378 4.378 0 003.658-1.894l-1.496-.97c-.5.71-1.18 1.181-2.162 1.181-.976 0-1.677-.436-2.126-1.294l5.87-2.365-.202-.486zm-5.985 1.423a2.373 2.373 0 012.292-2.492c.766 0 1.416.373 1.633.907l-3.925 1.585zm-4.771 4.145h1.93V18.221h-1.93V30.78zm-3.16-7.334h-.065c-.433-.5-1.26-.952-2.307-.952-2.198 0-4.208 1.879-4.208 4.288 0 2.394 2.01 4.258 4.208 4.258 1.047 0 1.874-.456 2.307-.97h.065v.612c0 1.634-.897 2.512-2.343 2.512-1.179 0-1.91-.83-2.212-1.526l-1.678.682c.484 1.133 1.765 2.526 3.89 2.526 2.263 0 4.172-1.296 4.172-4.449v-7.673h-1.83v.692zm-2.207 5.911c-1.33 0-2.443-1.084-2.443-2.575 0-1.506 1.113-2.605 2.443-2.605 1.31 0 2.343 1.099 2.343 2.605 0 1.491-1.033 2.575-2.343 2.575zm25.157-11.135h-4.615V30.78h1.924v-4.758h2.69c2.138 0 4.234-1.506 4.234-3.9s-2.101-3.9-4.233-3.9zm.05 6.053h-2.74v-4.306h2.74a2.208 2.208 0 012.257 2.152c0 .972-.82 2.154-2.257 2.154zm11.896-1.805c-1.39 0-2.836.598-3.43 1.923l1.707.697c.368-.697 1.044-.923 1.758-.923.999 0 2.011.584 2.027 1.615v.132c-.349-.196-1.094-.486-2.011-.486-1.84 0-3.714.986-3.714 2.825 0 1.683 1.507 2.767 3.2 2.767 1.295 0 2.01-.569 2.459-1.23h.066v.97h1.858v-4.817c0-2.227-1.708-3.473-3.92-3.473zm-.232 6.882c-.63 0-1.506-.304-1.506-1.063 0-.972 1.093-1.345 2.04-1.345.848 0 1.245.182 1.76.422-.151 1.162-1.18 1.986-2.294 1.986zm10.924-6.607l-2.212 5.444h-.066l-2.287-5.444h-2.075l3.436 7.608-1.96 4.233h2.01l5.295-11.84h-2.141zm-17.347 8.035h1.93V18.221h-1.93V30.78z" fill="#FFF"/><path d="M10.792 32.786c-.303-.309-.478-.79-.478-1.412V9.156c0-.623.175-1.104.478-1.413l.075-.068L23.655 20.12v.294L10.867 32.86l-.075-.073z" fill="url(#fa)" transform="matrix(1 0 0 -1 0 41)"/><path d="M27.912 15.97l-4.257 4.15v.294l4.262 4.15.096-.053 5.048-2.797c1.441-.794 1.441-2.1 0-2.898l-5.048-2.792-.1-.054z" fill="url(#fb)" transform="matrix(1 0 0 -1 0 41)"/><path d="M28.013 16.024l-4.358 4.243L10.792 7.743c.479-.49 1.26-.549 2.147-.059l15.074 8.34" fill="url(#fc)" transform="matrix(1 0 0 -1 0 41)"/><path d="M28.013 24.51l-15.074 8.34c-.888.485-1.668.426-2.147-.064l12.863-12.519 4.358 4.244z" fill="url(#fd)" transform="matrix(1 0 0 -1 0 41)"/></g></svg><svg width="32" height="55" viewBox="-2 -2 32 55" id="slider-arrow" x="295"><path fill="#FFF" fill-rule="evenodd" d="M27.75 25.68L3.001 50.427.88 48.306l24.749-24.748 2.121 2.121z"/><path fill="#FFF" fill-rule="evenodd" d="M25.75 27.75L1.001 3.001 3.123.88 27.87 25.629l-2.12 2.121z"/></svg><svg width="110" height="22" viewBox="-2 -2 110 22" id="stars" x="151" y="109" xmlns="http://www.w3.org/2000/svg"><g fill="none" fill-rule="evenodd"><rect fill="#3A5A3D" width="18" height="18" rx="2"/><path d="M16 7h-5.356L9 2.028 7.356 7H2l4.38 3.06-1.705 4.97L9 11.95l4.325 3.08-1.71-4.97" fill-rule="nonzero" fill="#FFF"/><g transform="translate(22)"><rect fill="#3A5A3D" width="18" height="18" rx="2"/><path d="M16 7h-5.356L9 2.028 7.356 7H2l4.38 3.06-1.705 4.97L9 11.95l4.325 3.08-1.71-4.97" fill-rule="nonzero" fill="#FFF"/></g><g transform="translate(44)"><rect fill="#3A5A3D" width="18" height="18" rx="2"/><path d="M16 7h-5.356L9 2.028 7.356 7H2l4.38 3.06-1.705 4.97L9 11.95l4.325 3.08-1.71-4.97" fill-rule="nonzero" fill="#FFF"/></g><g transform="translate(66)"><rect fill="#3A5A3D" width="18" height="18" rx="2"/><path d="M16 7h-5.356L9 2.028 7.356 7H2l4.38 3.06-1.705 4.97L9 11.95l4.325 3.08-1.71-4.97" fill-rule="nonzero" fill="#FFF"/></g><g transform="translate(88)"><rect fill="#3A5A3D" width="18" height="18" rx="2"/><path d="M16 7h-5.356L9 2.028 7.356 7H2l4.38 3.06-1.705 4.97L9 11.95l4.325 3.08-1.71-4.97" fill-rule="nonzero" fill="#FFF"/></g></g></svg><svg width="59" height="30" viewBox="-2 -2 59 30" id="stars-yellow" x="118" y="132" xmlns="http://www.w3.org/2000/svg"><use xlink:href="#ipath0_fill" transform="translate(30 3)" fill="#FB0"/><use xlink:href="#ipath1_fill" transform="translate(-.42)" fill="#FB0"/><defs><path id="ipath0_fill" fill-rule="evenodd" d="M12.5 18.75l-7.347 3.863 1.403-8.182L.612 8.637l8.214-1.193L12.5 0l3.674 7.444 8.214 1.193-5.944 5.794 1.403 8.182L12.5 18.75z"/><path id="ipath1_fill" fill-rule="evenodd" d="M8.5 12.75l-4.996 2.627.954-5.564-4.042-3.94 5.586-.811L8.5 0l2.498 5.062 5.586.811-4.042 3.94.954 5.564L8.5 12.75z"/></defs></svg><svg width="134" height="34" viewBox="-2 -2 712.66 145" id="trustpilot-full" x="151" y="45"><defs><path id="ja" d="M0 0h708.66v141H0z"/></defs><clipPath id="jb"><use overflow="visible" xlink:href="#ja"/></clipPath><g clip-path="url(#jb)"><defs><path id="jc" d="M0 0h708.66v141H0z"/></defs><clipPath id="jd"><use overflow="visible" xlink:href="#jc"/></clipPath><path fill="#FFF" d="M202.794 43.693a11.1 11.1 0 01-.092 1.537c-.07.443-.17.79-.31 1.057-.14.26-.313.455-.508.583a1.302 1.302 0 01-.684.184h-17.012v52.444c0 .256-.066.468-.19.658-.123.185-.344.336-.654.44a7.36 7.36 0 01-1.236.288c-.517.066-1.163.115-1.94.115-.746 0-1.387-.05-1.917-.116-.534-.08-.95-.18-1.266-.287-.31-.105-.522-.257-.65-.44a1.171 1.171 0 01-.185-.66V47.055h-17.02c-.25 0-.47-.06-.677-.184a1.376 1.376 0 01-.487-.583c-.127-.266-.23-.614-.31-1.057a9.326 9.326 0 01-.11-1.537c0-.596.036-1.117.11-1.566.08-.457.183-.823.31-1.1.125-.275.288-.483.487-.61a1.32 1.32 0 01.677-.187h42.07c.25 0 .476.067.684.186.195.128.367.336.508.61.14.278.24.644.31 1.1.06.45.092.97.092 1.567m51.608 55.804c0 .256-.044.47-.15.658-.088.186-.287.346-.6.46-.315.132-.747.22-1.308.288-.56.06-1.312.096-2.244.096-.813 0-1.475-.035-1.988-.096-.512-.068-.924-.168-1.237-.307a1.597 1.597 0 01-.725-.586c-.176-.243-.322-.552-.45-.937l-5.556-14.254a54.992 54.992 0 00-2.033-4.464c-.702-1.352-1.536-2.518-2.503-3.506a10.222 10.222 0 00-3.41-2.285c-1.308-.547-2.88-.82-4.718-.82h-5.382v25.752c0 .256-.066.47-.212.658-.14.186-.353.336-.654.44-.3.108-.697.208-1.21.288-.516.066-1.16.115-1.944.115-.777 0-1.422-.05-1.934-.115a7.5 7.5 0 01-1.246-.287c-.31-.105-.52-.256-.654-.44-.12-.19-.18-.403-.18-.66v-55.99c0-1.218.313-2.065.96-2.552.635-.48 1.31-.724 2.03-.724h12.85c1.528 0 2.8.045 3.812.12 1.01.07 1.925.167 2.734.26 2.336.402 4.4 1.042 6.193 1.913 1.79.87 3.296 1.974 4.515 3.32a13.402 13.402 0 012.73 4.604c.61 1.722.91 3.636.91 5.72 0 2.033-.275 3.844-.822 5.45-.543 1.6-1.325 3.02-2.354 4.25a15.627 15.627 0 01-3.693 3.205c-1.432.908-3.04 1.668-4.82 2.29 1.007.435 1.903.987 2.716 1.653.808.676 1.56 1.48 2.266 2.408.698.94 1.36 2.016 1.993 3.238a53.712 53.712 0 011.864 4.112l5.42 13.314c.437 1.123.714 1.914.843 2.36.12.456.19.804.19 1.052m-12.11-42.486c0-2.367-.53-4.373-1.59-6.007-1.06-1.63-2.836-2.81-5.326-3.526-.783-.22-1.66-.374-2.642-.473-.984-.093-2.266-.137-3.857-.137h-6.78v20.382h7.855c2.12 0 3.944-.26 5.494-.773 1.542-.52 2.827-1.234 3.852-2.154 1.028-.92 1.785-2 2.27-3.246.48-1.247.724-2.605.724-4.068m65.979 21.046c0 3.617-.52 6.848-1.58 9.684-1.056 2.845-2.567 5.24-4.537 7.204-1.962 1.96-4.356 3.445-7.178 4.457-2.814 1.022-6.025 1.526-9.61 1.526-3.29 0-6.274-.477-8.978-1.428-2.694-.95-5.013-2.354-6.948-4.213-1.933-1.855-3.417-4.184-4.46-6.963-1.04-2.795-1.562-6.016-1.562-9.66V41.705c0-.247.057-.456.18-.65.124-.18.34-.325.64-.432a6.76 6.76 0 011.202-.274c.487-.08 1.13-.12 1.93-.12.74 0 1.366.04 1.887.12.517.072.928.168 1.22.274.287.107.5.25.623.433.123.193.185.402.185.65v35.98c0 2.765.335 5.17 1.008 7.222.68 2.058 1.652 3.767 2.923 5.13a12.06 12.06 0 004.603 3.086c1.788.688 3.807 1.036 6.05 1.036 2.298 0 4.347-.33 6.136-1.02 1.802-.667 3.318-1.68 4.564-3.03 1.24-1.354 2.186-3.025 2.844-5.023.668-1.983.995-4.315.995-6.987V41.706c0-.247.06-.456.184-.65.124-.18.336-.325.64-.432.31-.106.716-.202 1.22-.274.507-.08 1.148-.12 1.913-.12.737 0 1.356.04 1.86.12.507.072.904.168 1.196.274.296.107.508.25.65.433.137.193.198.402.198.65v36.35zm45.354 5.49c0 2.775-.517 5.24-1.533 7.396a15.873 15.873 0 01-4.236 5.49c-1.81 1.507-3.94 2.642-6.386 3.4-2.452.757-5.08 1.142-7.912 1.142-1.98 0-3.807-.164-5.49-.51-1.692-.33-3.194-.736-4.52-1.227-1.32-.486-2.433-.986-3.33-1.503-.896-.517-1.514-.954-1.86-1.32-.358-.366-.618-.835-.78-1.392-.17-.564-.253-1.32-.253-2.262 0-.665.03-1.218.093-1.66.057-.44.15-.8.273-1.074.12-.272.273-.462.45-.57.185-.104.402-.157.64-.157.425 0 1.03.26 1.803.772.777.52 1.77 1.086 2.99 1.686 1.214.615 2.682 1.185 4.395 1.705 1.72.535 3.702.805 5.95.805 1.7 0 3.266-.22 4.68-.684 1.412-.46 2.628-1.104 3.652-1.936a8.544 8.544 0 002.345-3.08c.538-1.213.813-2.596.813-4.146 0-1.678-.38-3.11-1.13-4.29-.765-1.187-1.763-2.226-3.013-3.124-1.25-.895-2.668-1.717-4.267-2.46-1.59-.745-3.23-1.51-4.898-2.282a50.47 50.47 0 01-4.882-2.576 20.653 20.653 0 01-4.237-3.327c-1.25-1.277-2.26-2.78-3.038-4.492-.773-1.714-1.16-3.776-1.16-6.175 0-2.468.45-4.66 1.35-6.59a13.47 13.47 0 013.736-4.86c1.596-1.303 3.496-2.304 5.7-2.985 2.2-.69 4.584-1.03 7.134-1.03 1.308 0 2.62.12 3.95.34 1.316.23 2.565.54 3.735.916 1.172.38 2.21.808 3.127 1.272.902.472 1.512.856 1.795 1.148.29.287.48.512.568.68.098.168.173.385.23.637.06.26.11.57.138.94.03.363.052.83.052 1.404 0 .553-.03 1.04-.074 1.463-.04.43-.116.79-.208 1.08-.09.28-.222.5-.386.634a.901.901 0 01-.567.207c-.342 0-.857-.214-1.578-.643a52.007 52.007 0 00-2.62-1.436c-1.034-.53-2.262-1.01-3.666-1.457-1.42-.436-3.01-.663-4.772-.663-1.638 0-3.07.227-4.285.663-1.214.446-2.223 1.034-3.008 1.753a7.02 7.02 0 00-1.78 2.598 8.725 8.725 0 00-.593 3.2c0 1.638.38 3.048 1.14 4.24.76 1.187 1.77 2.236 3.03 3.144a27.2 27.2 0 004.313 2.504c1.61.76 3.254 1.533 4.924 2.312a64.495 64.495 0 014.925 2.547 21.075 21.075 0 014.316 3.284 15.039 15.039 0 013.044 4.475c.78 1.718 1.17 3.74 1.17 6.077m49.937-39.864c0 .59-.032 1.104-.094 1.533-.066.437-.163.793-.305 1.054-.132.266-.313.46-.512.583-.2.128-.43.184-.678.184h-16.983v52.357c0 .248-.06.47-.188.65-.122.19-.343.34-.652.45-.312.104-.72.198-1.236.272-.518.08-1.162.12-1.935.12-.75 0-1.392-.04-1.912-.12a7.16 7.16 0 01-1.26-.274c-.313-.11-.53-.26-.657-.45-.12-.18-.187-.4-.187-.65V47.042H359.98c-.247 0-.473-.055-.677-.183-.202-.124-.365-.317-.49-.583a4.69 4.69 0 01-.305-1.055 9.021 9.021 0 01-.118-1.534c0-.588.043-1.118.118-1.56.08-.456.187-.825.306-1.1.125-.274.288-.482.49-.61.205-.12.43-.185.678-.185h41.993c.25 0 .48.067.68.186.197.128.38.336.512.61.142.275.238.644.305 1.1.06.44.092.972.092 1.56m46.712 14.255c0 3.025-.498 5.752-1.502 8.185-1 2.43-2.42 4.506-4.277 6.21-1.85 1.72-4.125 3.046-6.824 3.978-2.695.938-5.905 1.4-9.653 1.4h-6.867v21.78c0 .257-.076.47-.213.66-.14.185-.355.335-.652.44a6.635 6.635 0 01-1.22.287c-.508.066-1.156.115-1.935.115-.777 0-1.428-.05-1.935-.115a7.151 7.151 0 01-1.246-.287c-.316-.105-.53-.256-.653-.44a1.12 1.12 0 01-.188-.66V43.694c0-1.246.327-2.133.98-2.667.654-.53 1.383-.796 2.2-.796h12.943c1.313 0 2.562.053 3.768.168 1.196.105 2.618.34 4.244.698 1.64.358 3.31 1.03 5.01 2.01 1.698.98 3.137 2.19 4.32 3.622 1.188 1.435 2.1 3.092 2.734 4.978.643 1.888.966 3.963.966 6.237m-8.464.655c0-2.46-.46-4.514-1.383-6.16-.916-1.654-2.054-2.89-3.41-3.7-1.357-.808-2.758-1.325-4.202-1.54a29.262 29.262 0 00-4.236-.327h-7.43v24.255h7.245c2.43 0 4.448-.312 6.05-.936 1.604-.628 2.955-1.482 4.042-2.59 1.09-1.108 1.92-2.43 2.482-3.972.557-1.54.84-3.22.84-5.03m27.487 40.861c0 .245-.06.466-.186.647s-.34.33-.653.438c-.31.11-.715.203-1.23.283-.505.076-1.154.11-1.927.11-.742 0-1.38-.034-1.904-.11-.53-.08-.95-.172-1.254-.283-.31-.106-.53-.256-.655-.438a1.16 1.16 0 01-.182-.648V41.72c0-.252.07-.47.204-.653.14-.182.37-.333.7-.434a7.08 7.08 0 011.25-.283c.518-.075 1.128-.12 1.84-.12.772 0 1.422.045 1.926.12.517.072.923.173 1.23.283.314.1.53.252.655.434.126.183.187.4.187.653v57.74zm46.219-1.962c0 .613-.027 1.14-.088 1.56-.063.42-.164.786-.31 1.077-.137.295-.305.518-.51.648-.196.143-.44.217-.728.217h-26.738c-.716 0-1.386-.242-2.027-.73-.636-.48-.955-1.334-.955-2.548V41.728c0-.247.055-.468.183-.654.13-.185.344-.336.65-.44.316-.112.736-.208 1.268-.284a13.75 13.75 0 011.92-.12c.775 0 1.42.045 1.936.12.517.076.925.172 1.237.283.312.105.53.256.653.44.127.187.19.408.19.655v52.305h21.685c.29 0 .532.07.73.213.204.137.372.342.508.605.146.267.247.614.31 1.056.06.434.088.963.088 1.592m54.762-27.634c0 4.754-.562 9.053-1.686 12.88-1.123 3.82-2.8 7.07-5.033 9.76-2.225 2.68-5.024 4.745-8.39 6.187-3.366 1.443-7.303 2.162-11.786 2.162-4.432 0-8.264-.658-11.494-1.973-3.23-1.325-5.905-3.24-8.014-5.765-2.105-2.514-3.68-5.642-4.71-9.373-1.03-3.734-1.554-8.027-1.554-12.877 0-4.642.57-8.857 1.688-12.66 1.122-3.787 2.81-7.014 5.058-9.67 2.243-2.66 5.05-4.7 8.42-6.14 3.37-1.44 7.293-2.165 11.784-2.165 4.34 0 8.116.655 11.336 1.957 3.21 1.308 5.89 3.212 8.032 5.71 2.136 2.507 3.726 5.603 4.774 9.286 1.047 3.686 1.577 7.913 1.577 12.682m-8.28.545c0-3.34-.3-6.44-.89-9.313-.595-2.86-1.58-5.35-2.958-7.46-1.377-2.106-3.22-3.758-5.52-4.942-2.304-1.176-5.156-1.77-8.55-1.77-3.393 0-6.242.638-8.547 1.91-2.302 1.277-4.17 2.97-5.61 5.095-1.444 2.128-2.47 4.61-3.092 7.44-.624 2.843-.932 5.823-.932 8.946 0 3.46.286 6.645.866 9.565.574 2.903 1.546 5.417 2.905 7.522 1.368 2.112 3.196 3.756 5.48 4.918 2.286 1.17 5.158 1.754 8.622 1.754 3.418 0 6.3-.637 8.635-1.914 2.328-1.275 4.21-2.99 5.634-5.162 1.422-2.174 2.44-4.684 3.043-7.527.606-2.853.917-5.876.917-9.06m55.22-26.72c0 .583-.03 1.105-.098 1.537-.058.443-.163.79-.306 1.057-.137.26-.307.455-.508.583a1.268 1.268 0 01-.675.184h-17.01v52.444c0 .256-.066.468-.2.658-.118.185-.335.336-.647.44a7.274 7.274 0 01-1.243.288c-.506.066-1.156.115-1.94.115-.74 0-1.386-.05-1.91-.116-.53-.08-.955-.18-1.263-.287-.312-.105-.53-.257-.652-.44a1.158 1.158 0 01-.188-.66V47.055H573.56c-.24 0-.464-.06-.667-.184a1.38 1.38 0 01-.497-.583 4.69 4.69 0 01-.302-1.057 8.672 8.672 0 01-.115-1.537c0-.596.034-1.117.114-1.566.078-.457.186-.823.302-1.1.126-.275.293-.483.497-.61a1.3 1.3 0 01.667-.187h42.078c.25 0 .47.067.675.186.2.128.37.336.51.61.142.278.247.644.305 1.1.065.45.097.97.097 1.567" clip-path="url(#jd)"/></g><g clip-path="url(#jb)"><defs><path id="je" d="M139.565 41.326a.37.37 0 00.05-.035l-.05.036zm.05-.035l.02-.013c-.006.004-.012.01-.02.014"/></defs><clipPath id="jg"><use overflow="visible" xlink:href="#je"/></clipPath><linearGradient id="jf" x2="1" y1="141" y2="141" gradientTransform="matrix(0 .0484 .0484 0 132.774 41.278)" gradientUnits="userSpaceOnUse"><stop offset="0" stop-color="#484848"/><stop offset="1"/></linearGradient><path fill="url(#jf)" d="M139.565 41.277h.07v.05h-.07z" clip-path="url(#jg)"/></g><g clip-path="url(#jb)"><defs><path id="jh" d="M139.565 41.326c-24.388 14.97-28.74 51.45-28.74 51.45-9.87-16.554-29.264-25.812-29.264-25.812V88.14c16.142.798 26.076 11.36 26.076 11.36l7.014-.02s10.846-29.357 24.986-33.188V41.326h-.07z"/></defs><use fill="#FFF" overflow="visible" xlink:href="#jh"/><clipPath id="ji"><use overflow="visible" xlink:href="#jh"/></clipPath><path fill="#FFF" d="M81.56 41.326h58.076v58.176H81.56z" clip-path="url(#ji)"/></g></svg><svg width="118" height="36" viewBox="-2 -2 118 36" id="visa-master" y="132" xmlns="http://www.w3.org/2000/svg"><g fill="none" fill-rule="evenodd"><path d="M66-6h54v44H66z"/><path d="M79.55 31.82v-2.158a1.268 1.268 0 00-.374-.99c-.263-.26-.628-.4-1.002-.377a1.363 1.363 0 00-1.23.61 1.294 1.294 0 00-1.157-.61c-.41-.02-.8.174-1.025.51v-.424H74v3.44h.77v-1.89a.773.773 0 01.208-.65.864.864 0 01.648-.26c.505 0 .76.33.76.91v1.92h.77v-1.91a.805.805 0 01.21-.65.863.863 0 01.647-.26c.52 0 .768.33.768.91v1.92l.77-.01zm11.375-3.44h-1.252v-1.04h-.77v1.043h-.694v.685h.71v1.582c0 .8.31 1.274 1.21 1.274.33.002.66-.09.95-.265l-.22-.64c-.21.12-.44.18-.68.19-.37 0-.51-.23-.51-.58v-1.57h1.24l-.01-.69zm6.495-.085a1.039 1.039 0 00-.923.504v-.42h-.754v3.44h.762v-1.93c0-.57.25-.89.732-.89.163 0 .325.02.476.08l.234-.72c-.174-.06-.357-.1-.542-.1l.015.01zm-9.82.36a2.647 2.647 0 00-1.427-.36c-.886 0-1.464.417-1.464 1.1 0 .562.42.907 1.2 1.015l.36.05c.41.058.61.166.61.36 0 .266-.28.417-.8.417a1.9 1.9 0 01-1.17-.36l-.37.583c.442.305.973.46 1.514.446 1.01 0 1.6-.467 1.6-1.122s-.46-.92-1.223-1.03l-.365-.05c-.33-.042-.59-.107-.59-.337 0-.23.25-.403.663-.403.387.004.765.106 1.1.295l.34-.61zm20.397-.36a1.039 1.039 0 00-.923.504v-.42h-.754v3.44h.762v-1.93c0-.57.25-.89.732-.89.163 0 .325.02.476.08l.234-.72c-.174-.06-.357-.1-.542-.1l.015.01zm-9.812 1.8c-.018.487.174.96.53 1.303.355.342.84.522 1.337.494a1.85 1.85 0 001.26-.41l-.366-.604a1.571 1.571 0 01-.916.31 1.114 1.114 0 01-1.033-1.102c0-.575.45-1.054 1.033-1.1.33.003.652.112.916.31l.366-.605a1.901 1.901 0 00-1.26-.41c-.496-.02-.982.16-1.338.5-.355.34-.547.82-.53 1.31v.02zm7.132 0V28.38h-.76v.42a1.343 1.343 0 00-1.1-.505c-1.01 0-1.83.805-1.83 1.8 0 .992.82 1.797 1.83 1.797.427.016.836-.172 1.1-.504v.418h.76v-1.712zm-2.834 0c.034-.566.52-1 1.096-.98.57.022 1.02.49 1.01 1.056-.01.57-.48 1.02-1.06 1.03-.3.01-.58-.11-.78-.32-.2-.21-.31-.49-.29-.78zm-9.19-1.8c-1.01.014-1.818.83-1.804 1.824.01.99.84 1.78 1.85 1.77.52.02 1.04-.14 1.45-.47l-.37-.56c-.29.22-.65.35-1.02.36a.97.97 0 01-1.05-.85h2.6v-.28c0-1.08-.69-1.8-1.67-1.8l-.01-.01zm0 .67c.23-.006.454.08.62.236a.87.87 0 01.267.6h-1.83c.027-.48.44-.85.93-.83h.014zm19.08 1.136V27h-.733v1.8a1.338 1.338 0 00-1.1-.505c-1.01 0-1.83.805-1.83 1.8 0 .992.82 1.797 1.83 1.797.43.016.837-.172 1.1-.504v.418h.732V30.1zm1.27 1.22a.35.35 0 01.14.03c.04.02.08.04.112.07a.342.342 0 010 .49.269.269 0 01-.113.07.363.363 0 01-.47-.18.326.326 0 010-.26c.02-.04.046-.07.078-.11a.43.43 0 01.113-.07.26.26 0 01.15-.02h-.01zm0 .61c.036 0 .072 0 .106-.02.03-.01.06-.03.08-.05.09-.1.09-.26 0-.36a.405.405 0 00-.09-.05c-.04-.01-.07-.02-.11-.02-.04 0-.08.01-.11.03-.04.016-.07.03-.09.06-.1.1-.1.257 0 .36.02.024.05.043.08.056.04.018.08.025.12.02h-.01zm.02-.43c.036 0 .07.01.097.03.022.02.035.05.032.08a.09.09 0 01-.025.07.108.108 0 01-.077.03l.106.12h-.084l-.1-.12h-.032v.12h-.07v-.31h.154zm-.08.06v.09h.08c.016.01.03.01.045 0a.027.027 0 000-.03.027.027 0 000-.03h-.044l-.08-.02zm-4.026-1.46c.033-.56.52-.99 1.096-.97.575.02 1.027.49 1.018 1.06-.01.57-.47 1.02-1.05 1.02-.29.01-.57-.11-.77-.32-.2-.21-.3-.49-.28-.78zm-25.712 0v-1.72h-.762v.42c-.262-.33-.67-.52-1.098-.5-1.01 0-1.83.81-1.83 1.8s.82 1.8 1.83 1.8c.427.02.836-.17 1.098-.5v.42h.762V30.1zm-2.834 0c.04-.56.53-.99 1.1-.97.58.02 1.03.49 1.02 1.06-.01.57-.47 1.02-1.05 1.02-.29.01-.58-.11-.78-.31-.2-.21-.31-.49-.29-.78h.01z" fill="#FFF" fill-rule="nonzero"/><g fill-rule="nonzero"><path fill="#FF5F00" d="M86.675 2.903h11.577V23.84H86.675z"/><path d="M87.41 13.374a13.326 13.326 0 015.053-10.47A13.17 13.17 0 0074.568 4.34c-4.68 5.1-4.68 12.964 0 18.065a13.17 13.17 0 0017.895 1.435 13.318 13.318 0 01-5.053-10.466z" fill="#EB001B"/><path d="M113.87 13.374c0 5.098-2.89 9.75-7.448 11.976a13.162 13.162 0 01-13.96-1.51 13.34 13.34 0 005.057-10.468 13.36 13.36 0 00-5.06-10.47c3.98-3.15 9.4-3.735 13.96-1.508 4.55 2.228 7.45 6.88 7.45 11.977v.01zm-1.263 8.248v-.43h.173v-.088h-.438v.09h.188v.428h.077zm.85 0v-.518h-.133l-.155.37-.16-.37h-.12v.518h.09v-.388l.14.336h.1l.14-.336v.392l.07-.004z" fill="#F79E1B"/></g><path d="M54.405 7.318l3.83 17.43h-4.39s-.437-2.005-.578-2.613l-6.062-.008c-.184.47-.994 2.62-.994 2.62h-4.97l7.03-15.982c.5-1.137 1.35-1.447 2.48-1.447h3.66zm-5.837 11.24H52.5l-1.097-5.034-.32-1.504c-.244.657-.655 1.713-.63 1.665 0 0-1.496 3.873-1.885 4.874zm-6.998.482c-.032 3.624-3.266 5.96-8.24 5.96-2.122-.022-4.167-.44-5.274-.93l.666-3.902.61.28c1.554.65 2.56.912 4.457.912 1.36 0 2.81-.536 2.83-1.703.01-.764-.61-1.308-2.46-2.164-1.8-.835-4.18-2.233-4.15-4.738.02-3.39 3.32-5.755 8-5.755 1.83 0 3.3.38 4.24.732l-.64 3.78-.43-.202c-.88-.352-2-.692-3.55-.667-1.86 0-2.72.775-2.72 1.5-.01.816 1 1.354 2.66 2.163 2.73 1.24 3.993 2.753 3.972 4.735z" fill="#FFF"/><path d="M0 7.5l.06-.35H7.4c.99.037 1.787.354 2.062 1.416l1.596 7.706C9.49 12.242 5.71 8.89 0 7.5z" fill="#F79E1B"/><path d="M13.95 24.72l-5.01.01-4.238-14.543c3.047 1.958 5.643 5.065 6.557 7.23l.49 1.795L16.39 7.32l5.014-.005L13.95 24.72zM23.318 7.3h4.736l-2.962 17.44h-4.734" fill="#FFF"/></g></svg></svg>