<svg width="82" height="81" viewBox="0 0 82 81" fill="none" xmlns="http://www.w3.org/2000/svg">
<g filter="url(#filter0_f_355_1771)">
<path d="M57.3162 19.8893L53.958 18.2204L57.1778 16.2859L58.8624 12.9346L60.7812 16.1475L64.1483 17.8388L60.9129 19.7667L59.2439 23.1246L57.3162 19.8893Z" fill="white"/>
<path d="M23.1392 24.8978L21.4749 24.0708L23.0706 23.112L23.9055 21.4511L24.8564 23.0434L26.5252 23.8816L24.9217 24.8371L24.0946 26.5013L23.1392 24.8978Z" fill="white"/>
<path d="M65.3802 48.3305L66.4165 48.812L67.0296 49.7821L67.5111 48.7459L68.4813 48.1327L67.4421 47.6445L66.8319 46.6811L66.3455 47.7155L65.3802 48.3305Z" fill="white"/>
</g>
<path d="M54.3156 18.2859L57.6738 19.9547L59.6016 23.1901L61.2705 19.8321L64.5059 17.9042L61.1388 16.213L59.22 13L57.5354 16.3513L54.3156 18.2859Z" fill="white"/>
<path d="M21.8325 24.1362L23.4968 24.9633L24.4522 26.5667L25.2793 24.9025L26.8828 23.947L25.214 23.1089L24.2631 21.5165L23.4282 23.1774L21.8325 24.1362Z" fill="white"/>
<path d="M0.773173 80.1632L0 79.804L0.720214 79.3451L1.08305 78.5734L1.53832 79.2921L2.31366 79.6564L1.58986 80.1139L1.23061 80.887L0.773173 80.1632Z" fill="white"/>
<path d="M65.7378 48.396L66.7741 48.8774L67.3872 49.8476L67.8688 48.8113L68.8389 48.1982L67.7997 47.7099L67.1895 46.7466L66.7031 47.7809L65.7378 48.396Z" fill="white"/>
<defs>
<filter id="filter0_f_355_1771" x="8.78502" y="0.244736" width="72.3861" height="62.2273" filterUnits="userSpaceOnUse" color-interpolation-filters="sRGB">
<feFlood flood-opacity="0" result="BackgroundImageFix"/>
<feBlend mode="normal" in="SourceGraphic" in2="BackgroundImageFix" result="shape"/>
<feGaussianBlur stdDeviation="6.34492" result="effect1_foregroundBlur_355_1771"/>
</filter>
</defs>
</svg>
