<svg width="99" height="24" viewBox="0 0 99 24" fill="none" xmlns="http://www.w3.org/2000/svg">
<path d="M26.6257 8.50391L36.5157 8.50391V10.345L32.6216 10.345V20.7239H30.4872V10.345H26.6094L26.6257 8.50391ZM36.0921 11.8766H37.9169V13.5874H37.9495C38.0147 13.343 38.1287 13.1149 38.2917 12.8868C38.4546 12.6587 38.6501 12.4469 38.8945 12.2676C39.1226 12.0721 39.3833 11.9255 39.6766 11.8114C39.9536 11.6974 40.2469 11.6322 40.5401 11.6322C40.7682 11.6322 40.9312 11.6485 41.0126 11.6485C41.0941 11.6648 41.1919 11.6811 41.2733 11.6811V13.5548C41.143 13.5222 40.9963 13.5059 40.8497 13.4896C40.7031 13.4734 40.5727 13.4571 40.4261 13.4571C40.1002 13.4571 39.7906 13.5222 39.4974 13.6526C39.2041 13.7829 38.9597 13.9784 38.7316 14.2228C38.5198 14.4835 38.3405 14.7931 38.2102 15.1679C38.0798 15.5426 38.0147 15.9825 38.0147 16.4713V20.675H36.0595L36.0921 11.8766ZM50.2346 20.7239L48.312 20.7239V19.4856H48.2794C48.035 19.9418 47.6766 20.2839 47.2041 20.5609C46.7316 20.8379 46.2428 20.9683 45.754 20.9683C44.5972 20.9683 43.7499 20.6913 43.2285 20.1047C42.7071 19.5345 42.4464 18.6546 42.4464 17.4978V11.8766H44.4016V17.3023C44.4016 18.0844 44.5483 18.6383 44.8578 18.9479C45.1511 19.2738 45.5747 19.4367 46.1124 19.4367C46.5198 19.4367 46.8619 19.3715 47.1389 19.2412C47.4159 19.1108 47.644 18.9479 47.8069 18.7361C47.9862 18.5243 48.1002 18.2636 48.1817 17.9703C48.2631 17.677 48.2957 17.3512 48.2957 17.009V11.8766H50.2509V20.7239H50.2346ZM53.5585 17.8888C53.6236 18.4591 53.8354 18.8501 54.2102 19.0945C54.5849 19.3226 55.0411 19.4367 55.5625 19.4367C55.7418 19.4367 55.9536 19.4204 56.1817 19.3878C56.4098 19.3552 56.6379 19.3063 56.8334 19.2249C57.0452 19.1434 57.2082 19.0294 57.3385 18.8664C57.4688 18.7035 57.534 18.508 57.5177 18.2636C57.5014 18.0192 57.42 17.8074 57.2407 17.6444C57.0615 17.4815 56.8497 17.3674 56.589 17.2534C56.3283 17.1556 56.0187 17.0742 55.6766 17.009C55.3344 16.9438 54.9923 16.8624 54.6338 16.7809C54.2754 16.6994 53.9169 16.6017 53.5748 16.4876C53.2326 16.3736 52.9393 16.2269 52.6623 16.0151C52.4016 15.8196 52.1735 15.5752 52.0269 15.2656C51.864 14.956 51.7825 14.5976 51.7825 14.1414C51.7825 13.6526 51.8965 13.2615 52.1409 12.9357C52.369 12.6098 52.6786 12.3491 53.0371 12.1536C53.3955 11.9581 53.8029 11.8114 54.2428 11.73C54.6827 11.6485 55.1063 11.6159 55.4974 11.6159C55.9536 11.6159 56.3935 11.6648 56.8008 11.7626C57.2082 11.8603 57.5992 12.007 57.9251 12.2351C58.2672 12.4469 58.5442 12.7402 58.756 13.0823C58.9841 13.4245 59.1145 13.8481 59.1796 14.3369H57.143C57.0452 13.8644 56.8334 13.5548 56.5075 13.3919C56.1654 13.229 55.7906 13.1475 55.3507 13.1475C55.2204 13.1475 55.0411 13.1638 54.8619 13.1801C54.6664 13.2127 54.5035 13.2453 54.3242 13.3104C54.1613 13.3756 54.0147 13.4734 53.9006 13.5874C53.7866 13.7015 53.7214 13.8644 53.7214 14.0599C53.7214 14.3043 53.8029 14.4835 53.9658 14.6302C54.1287 14.7768 54.3405 14.8909 54.6175 15.0049C54.8782 15.1027 55.1878 15.1841 55.5299 15.2493C55.8721 15.3145 56.2306 15.396 56.589 15.4774C56.9475 15.5589 57.2896 15.6567 57.6318 15.7707C57.9739 15.8848 58.2835 16.0314 58.5442 16.2432C58.8049 16.4387 59.033 16.6831 59.1959 16.9764C59.3589 17.2697 59.4403 17.6444 59.4403 18.0681C59.4403 18.5894 59.3263 19.0294 59.0819 19.4041C58.8375 19.7626 58.5279 20.0721 58.1532 20.3002C57.7784 20.5283 57.3385 20.6913 56.8823 20.8053C56.4098 20.9031 55.9536 20.9683 55.4974 20.9683C54.9434 20.9683 54.422 20.9031 53.9495 20.7727C53.477 20.6424 53.0534 20.4469 52.7112 20.2025C52.369 19.9418 52.0921 19.6322 51.8965 19.2412C51.701 18.8664 51.587 18.4102 51.5707 17.8725H53.5422V17.8888H53.5585ZM59.9943 11.8766H61.477V9.20452L63.4322 9.20452V11.8603L65.1919 11.8603V13.3104H63.4322V18.0355C63.4322 18.2473 63.4485 18.4102 63.4648 18.5732C63.4811 18.7198 63.5299 18.8501 63.5788 18.9479C63.644 19.0457 63.7418 19.1271 63.8558 19.176C63.9862 19.2249 64.1491 19.2575 64.3772 19.2575C64.5075 19.2575 64.6542 19.2575 64.7845 19.2412C64.9149 19.2249 65.0615 19.2086 65.1919 19.176V20.6913C64.98 20.7239 64.7682 20.7402 64.5564 20.7564C64.3446 20.789 64.1491 20.789 63.921 20.789C63.3996 20.789 62.9923 20.7402 62.6827 20.6424C62.3731 20.5446 62.1287 20.398 61.9495 20.2188C61.7703 20.0233 61.6562 19.7951 61.591 19.5182C61.5259 19.2412 61.4933 18.899 61.477 18.5406V13.3267H59.9943V11.844V11.8766ZM66.5605 11.8766H68.4016V13.0823H68.4342C68.7112 12.5609 69.086 12.2025 69.5748 11.9744C70.0635 11.7463 70.5849 11.6322 71.1715 11.6322C71.8721 11.6322 72.475 11.7463 72.9963 12.007C73.5177 12.2514 73.9414 12.5772 74.2835 13.0171C74.6257 13.4408 74.8864 13.9459 75.0493 14.5161C75.2122 15.0864 75.31 15.7055 75.31 16.341C75.31 16.9438 75.2285 17.5141 75.0819 18.0681C74.9189 18.622 74.6908 19.1271 74.3813 19.5507C74.0717 19.9744 73.6807 20.3165 73.1919 20.5772C72.7031 20.8379 72.1491 20.9683 71.4974 20.9683C71.2204 20.9683 70.9271 20.9357 70.6501 20.8868C70.3731 20.8379 70.0961 20.7565 69.8354 20.6424C69.5748 20.5283 69.3304 20.3817 69.1185 20.2025C68.8904 20.0233 68.7112 19.8114 68.5646 19.5833H68.532V23.9988H66.5768V11.8766H66.5605ZM73.3874 16.3084C73.3874 15.9173 73.3385 15.5263 73.2244 15.1516C73.1267 14.7768 72.9638 14.4509 72.7519 14.1577C72.5401 13.8644 72.2794 13.6363 71.9862 13.4571C71.6766 13.2778 71.3181 13.1964 70.9271 13.1964C70.1124 13.1964 69.4933 13.4734 69.0697 14.0436C68.6623 14.6139 68.4505 15.3797 68.4505 16.3247C68.4505 16.7809 68.4994 17.1882 68.6134 17.563C68.7275 17.9377 68.8741 18.2636 69.1022 18.5406C69.3141 18.8175 69.5748 19.0294 69.8843 19.1923C70.1939 19.3552 70.5361 19.4367 70.9434 19.4367C71.3996 19.4367 71.7581 19.3389 72.0676 19.1597C72.3772 18.9805 72.6216 18.7361 72.8334 18.4591C73.0289 18.1658 73.1756 17.84 73.257 17.4652C73.3385 17.0742 73.3874 16.6994 73.3874 16.3084ZM76.8253 8.50391L78.7805 8.50391V10.345H76.8253V8.50391ZM76.8253 11.8766H78.7805V20.7239H76.8253V11.8766ZM80.5238 8.50391H82.479V20.7239H80.5238V8.50391ZM88.4424 20.9683C87.7418 20.9683 87.1063 20.8542 86.5523 20.6098C85.9984 20.3654 85.5422 20.0558 85.1511 19.6485C84.7764 19.2412 84.4831 18.7361 84.2876 18.1658C84.0921 17.5956 83.978 16.9601 83.978 16.2921C83.978 15.6241 84.0758 15.0049 84.2876 14.4347C84.4831 13.8644 84.7764 13.3756 85.1511 12.952C85.5259 12.5446 85.9984 12.2188 86.5523 11.9907C87.1063 11.7626 87.7418 11.6322 88.4424 11.6322C89.143 11.6322 89.7784 11.7463 90.3324 11.9907C90.8864 12.2188 91.3426 12.5446 91.7336 12.952C92.1084 13.3593 92.4016 13.8644 92.5972 14.4347C92.7927 15.0049 92.9067 15.6241 92.9067 16.2921C92.9067 16.9764 92.809 17.5956 92.5972 18.1658C92.3853 18.7361 92.1084 19.2249 91.7336 19.6485C91.3589 20.0558 90.8864 20.3817 90.3324 20.6098C89.7784 20.8379 89.1593 20.9683 88.4424 20.9683ZM88.4424 19.4204C88.866 19.4204 89.257 19.3226 89.5666 19.1434C89.8925 18.9642 90.1369 18.7198 90.3487 18.4265C90.5605 18.1332 90.7071 17.7911 90.8049 17.4326C90.9026 17.0579 90.9515 16.6831 90.9515 16.2921C90.9515 15.9173 90.9026 15.5426 90.8049 15.1679C90.7071 14.7931 90.5605 14.4672 90.3487 14.174C90.1369 13.8807 89.8762 13.6526 89.5666 13.4734C89.2407 13.2941 88.866 13.1964 88.4424 13.1964C88.0187 13.1964 87.6277 13.2941 87.3181 13.4734C86.9923 13.6526 86.7479 13.897 86.5361 14.174C86.3242 14.4672 86.1776 14.7931 86.0798 15.1679C85.9821 15.5426 85.9332 15.9173 85.9332 16.2921C85.9332 16.6831 85.9821 17.0579 86.0798 17.4326C86.1776 17.8074 86.3242 18.1332 86.5361 18.4265C86.7479 18.7198 87.0086 18.9642 87.3181 19.1434C87.644 19.3389 88.0187 19.4204 88.4424 19.4204ZM93.4933 11.8766L94.976 11.8766V9.20452H96.9312V11.8603H98.6908V13.3104H96.9312V18.0355C96.9312 18.2473 96.9475 18.4102 96.9638 18.5732C96.9801 18.7198 97.0289 18.8501 97.0778 18.9479C97.143 19.0457 97.2407 19.1271 97.3548 19.176C97.4851 19.2249 97.6481 19.2575 97.8762 19.2575C98.0065 19.2575 98.1532 19.2575 98.2835 19.2412C98.4139 19.2249 98.5605 19.2086 98.6908 19.176V20.6913C98.479 20.7239 98.2672 20.7402 98.0554 20.7564C97.8436 20.789 97.6481 20.789 97.42 20.789C96.8986 20.789 96.4912 20.7402 96.1817 20.6424C95.8721 20.5446 95.6277 20.398 95.4485 20.2188C95.2692 20.0233 95.1552 19.7951 95.09 19.5182C95.0249 19.2412 94.9923 18.899 94.976 18.5406V13.3267H93.4933V11.844V11.8766Z" fill="white"/>
<path d="M24.3451 8.50509L15.4001 8.50509L12.6465 0L9.87668 8.50509L0.931641 8.4888L8.16588 13.7515L5.39601 22.2566L12.6302 16.9939L19.8645 22.2566L17.1109 13.7515L24.3451 8.50509Z" fill="#00B67A"/>
<path d="M17.73 15.6746L17.1108 13.752L12.6465 16.9943L17.73 15.6746Z" fill="#005128"/>
</svg>
