<svg width="64" height="64" viewBox="0 0 64 64" fill="none" xmlns="http://www.w3.org/2000/svg">
<path d="M2.79753e-06 32C4.89568e-06 8 8.00001 2.73372e-06 32 4.83187e-06C56 6.93001e-06 64 8.00001 64 32C64 56 56 64 32 64C8 64 6.99382e-07 56 2.79753e-06 32Z" fill="#6CB0FF"/>
<path d="M2.79753e-06 32C4.89568e-06 8 8.00001 2.73372e-06 32 4.83187e-06C56 6.93001e-06 64 8.00001 64 32C64 56 56 64 32 64C8 64 6.99382e-07 56 2.79753e-06 32Z" fill="#1B895A"/>
<path d="M45.1129 40.1143V34.809M45.1129 34.809H39.5741M45.1129 34.809L39.5741 40.1143C38.2912 41.4227 36.704 42.3785 34.9607 42.8925C33.2174 43.4065 31.3748 43.462 29.6047 43.0538C27.8347 42.6455 26.195 41.7869 24.8385 40.5579C23.4821 39.329 22.4532 37.7698 21.8477 36.0258M19.6113 24.3794L19.6113 29.6847M19.6113 29.6847H25.1501M19.6113 29.6847L25.1501 24.3794C26.433 23.071 28.0202 22.1152 29.7635 21.6012C31.5068 21.0871 33.3494 21.0317 35.1195 21.4399C36.8895 21.8482 38.5292 22.7068 39.8857 23.9358C41.2421 25.1647 42.271 26.7239 42.8765 28.4679" stroke="white" stroke-width="3" stroke-linecap="round" stroke-linejoin="round"/>
</svg>
