<svg width="64" height="64" viewBox="0 0 64 64" fill="none" xmlns="http://www.w3.org/2000/svg">
<path d="M2.79753e-06 32C4.89568e-06 8 8.00001 2.73372e-06 32 4.83187e-06C56 6.93001e-06 64 8.00001 64 32C64 56 56 64 32 64C8 64 6.99382e-07 56 2.79753e-06 32Z" fill="#2262CE"/>
<path fill-rule="evenodd" clip-rule="evenodd" d="M31.8478 16.3482C30.6035 16.3482 28.3256 16.8541 25.9615 17.4977L25.96 17.4981C23.6161 18.1308 21.2426 18.8837 19.8442 19.3428C19.5296 19.446 19.2457 19.6402 19.0318 19.8986C18.8225 20.1514 18.6864 20.4599 18.6397 20.7883C18.6391 20.7943 18.6384 20.8002 18.6376 20.8061C17.4178 29.9711 20.2417 36.6954 23.6279 41.1242C23.641 41.1412 23.6532 41.1589 23.6644 41.177C25.0904 43.0506 26.7878 44.7033 28.7008 46.0772C29.4682 46.6196 30.1575 47.0187 30.7148 47.281L30.7164 47.2818C31.288 47.5526 31.6733 47.6518 31.8454 47.6518C32.0148 47.6518 32.3961 47.5533 32.9682 47.2848C33.6742 46.9427 34.3475 46.5401 34.9856 46.0812C36.9057 44.7041 38.608 43.046 40.0388 41.1662C40.0517 41.1468 40.0655 41.128 40.0804 41.11C43.461 36.681 46.2764 29.9621 45.0581 20.8085C45.0573 20.8025 45.0566 20.7966 45.0559 20.7907C45.0093 20.4625 44.8732 20.1531 44.6625 19.8969C44.45 19.6385 44.1695 19.4461 43.8505 19.3401C41.8256 18.6761 39.7867 18.0611 37.7315 17.4953C35.366 16.856 33.0918 16.3482 31.8478 16.3482ZM25.608 16.1967C27.9411 15.5615 30.3932 15 31.8478 15C33.3025 15 35.7534 15.5641 38.0848 16.1942L38.0879 16.195C40.165 16.7669 42.2255 17.3883 44.2718 18.0594L44.2739 18.0601C44.8338 18.2457 45.3288 18.5846 45.7038 19.0406C46.0776 19.4951 46.3168 20.0452 46.3945 20.6281C46.3954 20.6349 46.3962 20.6418 46.3969 20.6487C47.6608 30.1814 44.7248 37.2437 41.158 41.9202C41.1516 41.9297 41.1449 41.9389 41.138 41.948C39.6212 43.948 37.8141 45.7117 35.7723 47.176C35.0715 47.6801 34.3306 48.1232 33.5522 48.5L33.5451 48.5034C32.9484 48.7838 32.334 49 31.8454 49C31.355 49 30.7392 48.7844 30.1404 48.5007C29.4992 48.199 28.7411 47.7569 27.9202 47.1765L27.9163 47.1736C25.8769 45.7094 24.0697 43.9456 22.555 41.9453C22.5429 41.9294 22.5316 41.913 22.5211 41.8962C18.9618 37.2195 16.0368 30.1643 17.2988 20.6463C17.2995 20.6395 17.3003 20.6326 17.3012 20.6257C17.3789 20.0431 17.618 19.4922 17.9932 19.0389C18.367 18.5874 18.8638 18.2455 19.4237 18.0618M25.608 16.1967C23.2312 16.8382 20.8324 17.5993 19.4237 18.0618L25.608 16.1967Z" fill="white"/>
<path d="M25.9615 17.4977C28.3256 16.8541 30.6035 16.3482 31.8478 16.3482C33.0918 16.3482 35.366 16.856 37.7315 17.4953C39.7867 18.0611 41.8256 18.6761 43.8505 19.3401C44.1695 19.4461 44.45 19.6385 44.6625 19.8969C44.8732 20.1531 45.0093 20.4625 45.0559 20.7907L45.0581 20.8085C46.2764 29.9621 43.461 36.681 40.0804 41.11C40.0655 41.128 40.0517 41.1468 40.0388 41.1662C38.608 43.046 36.9057 44.7041 34.9856 46.0812C34.3475 46.5401 33.6742 46.9427 32.9682 47.2848C32.3961 47.5533 32.0148 47.6518 31.8454 47.6518C31.6733 47.6518 31.288 47.5526 30.7164 47.2818L30.7148 47.281C30.1575 47.0187 29.4682 46.6196 28.7008 46.0772C26.7878 44.7033 25.0904 43.0506 23.6644 41.177C23.6532 41.1589 23.641 41.1412 23.6279 41.1242C20.2417 36.6954 17.4178 29.9711 18.6376 20.8061L18.6397 20.7883C18.6864 20.4599 18.8225 20.1514 19.0318 19.8986C19.2457 19.6402 19.5296 19.446 19.8442 19.3428C21.2426 18.8837 23.6161 18.1308 25.96 17.4981L25.9615 17.4977Z" fill="white"/>
</svg>
