<svg width="64" height="64" viewBox="0 0 64 64" fill="none" xmlns="http://www.w3.org/2000/svg">
<path d="M2.79753e-06 32C4.89568e-06 8 8.00001 2.73372e-06 32 4.83187e-06C56 6.93001e-06 64 8.00001 64 32C64 56 56 64 32 64C8 64 6.99382e-07 56 2.79753e-06 32Z" fill="#9660AB"/>
<path d="M21.1294 39.5103L31.2772 45.2901C31.947 45.6717 33.1176 45.6232 33.8918 45.1856L43.6695 39.6269C44.0735 39.3952 44.2885 39.1045 44.307 38.8244C44.3254 38.5442 44.1764 38.3216 43.8569 38.1384L33.709 32.3571C33.0392 31.9755 31.8687 32.024 31.1037 32.4631L21.3168 38.0218C20.9112 38.2505 20.6977 38.5427 20.6793 38.8229C20.6608 39.1045 20.8098 39.3286 21.1294 39.5103Z" fill="white"/>
<path fill-rule="evenodd" clip-rule="evenodd" d="M35.344 47.7568C34.4785 48.246 33.5174 48.4617 32.6633 48.4962C31.8383 48.5295 30.7785 48.4059 29.8141 47.8565M29.8141 47.8565L19.6679 42.0777C19.6675 42.0774 19.667 42.0772 19.6666 42.0769C19.6665 42.0769 19.6667 42.077 19.6666 42.0769C19.2434 41.8361 18.7158 41.4467 18.3079 40.8261C17.8675 40.1561 17.6808 39.3882 17.7305 38.6296L17.7305 38.6286C17.8408 36.9526 19.011 35.9313 19.8597 35.4513L29.639 29.8969C30.5058 29.4012 31.4691 29.1854 32.3201 29.1506C33.1458 29.1169 34.2057 29.2409 35.1699 29.7902C35.1699 29.7902 35.1699 29.7902 35.1699 29.7902L45.325 35.5756C45.7412 35.8143 46.266 36.2009 46.6734 36.8186C47.1141 37.487 47.3034 38.2554 47.2532 39.018C47.1422 40.7048 45.9565 41.7195 45.1376 42.189L45.1281 42.1945L35.344 47.7568M33.7077 32.3568C33.038 31.9752 31.8674 32.0237 31.1024 32.4628L21.3155 38.0215C20.91 38.2502 20.6964 38.5424 20.678 38.8225C20.6596 39.1042 20.8086 39.3283 21.1281 39.51L31.276 45.2898C31.9458 45.6714 33.1163 45.6229 33.8905 45.1853L43.6682 39.6266C44.0722 39.3949 44.2873 39.1042 44.3057 38.8241C44.3242 38.5439 44.1752 38.3213 43.8556 38.1381L33.7077 32.3568Z" fill="#9660AB"/>
<path d="M21.1294 33.2076L31.2772 38.9874C31.947 39.369 33.1176 39.3205 33.8918 38.8829L43.6695 33.3242C44.0735 33.0925 44.2885 32.8018 44.307 32.5216C44.3254 32.2415 44.1764 32.0189 43.8569 31.8357L33.709 26.0544C33.0392 25.6728 31.8687 25.7212 31.1037 26.1604L21.3168 31.7191C20.9112 31.9477 20.6977 32.24 20.6793 32.5201C20.6608 32.8018 20.8098 33.0259 21.1294 33.2076Z" fill="white"/>
<path fill-rule="evenodd" clip-rule="evenodd" d="M35.344 41.4551C34.4785 41.9443 33.5174 42.1599 32.6633 42.1944C31.8383 42.2278 30.7785 42.1041 29.8141 41.5548M29.8141 41.5548L19.6679 35.7759C19.6675 35.7757 19.667 35.7754 19.6666 35.7752C19.6665 35.7751 19.6667 35.7753 19.6666 35.7752C19.2434 35.5343 18.7158 35.145 18.3079 34.5243C17.8675 33.8543 17.6808 33.0865 17.7305 32.3279L17.7305 32.3268C17.8408 30.6509 19.011 29.6295 19.8597 29.1496L29.639 23.5952C30.5058 23.0994 31.4691 22.8837 32.3201 22.8489C33.1458 22.8151 34.2057 22.9392 35.1699 23.4885C35.1699 23.4885 35.1699 23.4885 35.1699 23.4885L45.325 29.2739C45.7412 29.5125 46.266 29.8991 46.6734 30.5169C47.1141 31.1852 47.3034 31.9537 47.2532 32.7163C47.1422 34.403 45.9565 35.4177 45.1376 35.8873L45.1281 35.8927L35.344 41.4551M33.7077 26.055C33.038 25.6734 31.8674 25.7219 31.1024 26.161L21.3155 31.7198C20.91 31.9484 20.6964 32.2407 20.678 32.5208C20.6596 32.8024 20.8086 33.0265 21.1281 33.2082L31.276 38.9881C31.9458 39.3696 33.1163 39.3212 33.8905 38.8836L43.6682 33.3248C44.0722 33.0932 44.2873 32.8024 44.3057 32.5223C44.3242 32.2422 44.1752 32.0196 43.8556 31.8364L33.7077 26.055Z" fill="#9660AB"/>
<path d="M21.1294 26.1187L31.2772 31.8985C31.947 32.2801 33.1176 32.2316 33.8918 31.794L43.6695 26.2353C44.0735 26.0036 44.2885 25.7129 44.307 25.4328C44.3254 25.1526 44.1764 24.93 43.8569 24.7468L33.709 18.9655C33.0392 18.5839 31.8687 18.6324 31.1037 19.0715L21.3168 24.6302C20.9112 24.8589 20.6977 25.1511 20.6793 25.4313C20.6608 25.7129 20.8098 25.937 21.1294 26.1187Z" fill="white"/>
<path fill-rule="evenodd" clip-rule="evenodd" d="M35.344 34.3652C34.4785 34.8544 33.5174 35.0701 32.6633 35.1046C31.8383 35.1379 30.7785 35.0143 29.8141 34.4649M29.8141 34.4649L19.6679 28.6861C19.6675 28.6858 19.667 28.6856 19.6666 28.6853C19.6665 28.6853 19.6667 28.6854 19.6666 28.6853C19.2434 28.4444 18.7158 28.0551 18.3079 27.4345C17.8675 26.7645 17.6808 25.9966 17.7305 25.238L17.7305 25.237C17.8408 23.561 19.011 22.5397 19.8597 22.0597L29.639 16.5053C30.5058 16.0096 31.4691 15.7938 32.3201 15.759C33.1458 15.7253 34.2057 15.8493 35.1699 16.3986C35.1699 16.3986 35.1699 16.3986 35.1699 16.3986L45.325 22.184C45.7412 22.4227 46.266 22.8093 46.6734 23.427C47.1141 24.0954 47.3034 24.8638 47.2532 25.6264C47.1422 27.3132 45.9565 28.3278 45.1376 28.7974L45.1281 28.8029L35.344 34.3652M33.7077 18.9652C33.038 18.5836 31.8674 18.6321 31.1024 19.0712L21.3155 24.6299C20.91 24.8586 20.6964 25.1508 20.678 25.4309C20.6596 25.7126 20.8086 25.9367 21.1281 26.1184L31.276 31.8982C31.9458 32.2798 33.1163 32.2313 33.8905 31.7937L43.6682 26.235C44.0722 26.0033 44.2873 25.7126 44.3057 25.4325C44.3242 25.1523 44.1752 24.9297 43.8556 24.7465L33.7077 18.9652Z" fill="#9660AB"/>
</svg>
