<svg width="64" height="64" viewBox="0 0 64 64" fill="none" xmlns="http://www.w3.org/2000/svg">
<path d="M2.79753e-06 32C4.89568e-06 8 8.00001 2.73372e-06 32 4.83187e-06C56 6.93001e-06 64 8.00001 64 32C64 56 56 64 32 64C8 64 6.99382e-07 56 2.79753e-06 32Z" fill="#6CB0FF"/>
<path d="M21.6621 26.7935C21.6621 24.5032 23.5188 22.6465 25.8092 22.6465H38.192C40.4823 22.6465 42.339 24.5032 42.339 26.7935V39.1764C42.339 41.4667 40.4823 43.3234 38.192 43.3234H25.8092C23.5188 43.3234 21.6621 41.4667 21.6621 39.1763V26.7935Z" fill="white"/>
</svg>
