<svg width="64" height="64" viewBox="0 0 64 64" fill="none" xmlns="http://www.w3.org/2000/svg">
<path d="M2.79753e-06 32C4.89568e-06 8 8.00001 2.73372e-06 32 4.83187e-06C56 6.93001e-06 64 8.00001 64 32C64 56 56 64 32 64C8 64 6.99382e-07 56 2.79753e-06 32Z" fill="#8080BE"/>
<path d="M45.75 32V34.5C45.75 38.6425 39.5938 42 32 42C24.5413 42 18.47 38.7613 18.2562 34.7213L18.25 34.5V32C18.25 36.1425 24.4063 39.5 32 39.5C39.5938 39.5 45.75 36.1425 45.75 32ZM32 22C39.5938 22 45.75 25.3575 45.75 29.5C45.75 33.6425 39.5938 37 32 37C24.4063 37 18.25 33.6425 18.25 29.5C18.25 25.3575 24.4063 22 32 22Z" fill="white"/>
</svg>
