<svg width="19" height="23" viewBox="0 0 19 23" fill="none" xmlns="http://www.w3.org/2000/svg">
<path d="M0.949031 8.52101C-0.953252 11.8216 0.255966 16.832 2.35849 19.8681C3.40829 21.3869 4.47122 22.7502 5.92734 22.7502C5.95455 22.7502 5.98226 22.7502 6.01045 22.7502C6.69428 22.723 7.18905 22.5121 7.6668 22.3089C8.20143 22.08 8.75841 21.8438 9.62935 21.8438C10.4556 21.8438 10.9858 22.0727 11.4966 22.2934C12.0075 22.514 12.5173 22.7371 13.2857 22.7225C14.926 22.6919 15.933 21.2212 16.8215 19.9235C17.4878 18.9448 18.0105 17.8757 18.3738 16.7488L18.3801 16.7289C18.3945 16.6859 18.3926 16.6391 18.3747 16.5974C18.3567 16.5557 18.3241 16.5221 18.2829 16.5029L18.2698 16.4971C17.9806 16.379 15.447 15.2548 15.4208 12.1919C15.396 9.70301 17.3211 8.38541 17.7075 8.14629L17.7255 8.13462C17.7462 8.12131 17.764 8.10399 17.7778 8.08367C17.7917 8.06335 17.8013 8.04046 17.8062 8.01634C17.811 7.99223 17.811 7.96738 17.8061 7.94329C17.8011 7.91919 17.7914 7.89633 17.7775 7.87606C16.4487 5.93197 14.4123 5.64037 13.5919 5.60294C13.4733 5.59128 13.3489 5.58496 13.2269 5.58496C12.2641 5.58496 11.3411 5.9485 10.6024 6.24109C10.0906 6.44327 9.64831 6.61727 9.34406 6.61727C9.00142 6.61727 8.55671 6.44084 8.0425 6.23671C7.35381 5.96357 6.57374 5.65349 5.74799 5.65349H5.68967C3.76358 5.68265 1.94877 6.78154 0.949031 8.52101Z" fill="white"/>
<path d="M13.59 0.250135C12.427 0.298737 11.0321 1.01318 10.1986 1.9896C9.48947 2.81049 8.79787 4.17669 8.98013 5.55845C8.98557 5.60034 9.00525 5.63909 9.03586 5.66821C9.06648 5.69732 9.10617 5.71502 9.14829 5.71835C9.22702 5.72418 9.30722 5.72758 9.38692 5.72758C10.5237 5.72758 11.7504 5.09818 12.5883 4.08532C13.47 3.01607 13.9157 1.64355 13.781 0.413923C13.7757 0.367583 13.753 0.324967 13.7176 0.294601C13.6822 0.264236 13.6366 0.248357 13.59 0.250135Z" fill="white"/>
</svg>
