<svg width="88" height="32" fill="none" xmlns="http://www.w3.org/2000/svg"><path fill-rule="evenodd" clip-rule="evenodd" d="M21.295 1.692c-.468.93-.873 1.713-.9 1.74-.039.04-.236.045-1.047.03-.99-.02-2.885.03-3.843.099-4.432.32-7.601 1.325-10.682 3.384-1.086.726-2.16 1.795-2.978 2.964-.859 1.226-1.51 2.664-1.743 3.844-.112.566-.134 1.306-.054 1.784.294 1.76 1.454 3.142 3.102 3.694.69.23.98.272 1.932.272.744 0 .928-.01 1.33-.082 1.716-.305 2.964-.84 4.108-1.762 1.601-1.29 2.49-3.168 2.096-4.433-.262-.843-1.428-1.578-2.597-1.639-.439-.022-.515.005-.617.218-.123.26-.074.314.318.35.51.046.796.229 1.004.639.32.63.283 1.287-.125 2.217a6.538 6.538 0 0 1-1.4 2.034c-1.166 1.171-2.545 1.704-4.002 1.546-1.45-.157-2.472-.803-2.907-1.839-.201-.478-.26-.815-.26-1.49 0-1.15.292-2.228.966-3.577.636-1.272 1.368-2.292 2.336-3.254.808-.803 1.546-1.311 2.896-1.993a15.71 15.71 0 0 1 2.338-.974c1.802-.602 3.615-.923 5.878-1.041.754-.04 2.925-.044 3.186-.006l.165.023-.339.612c-.186.336-.986 1.808-1.779 3.272a2228.34 2228.34 0 0 1-2.186 4.027c-.41.751-1.17 2.15-1.69 3.11-2.208 4.073-5.577 10.151-6.044 10.903-.636 1.026-1.289 1.55-2.392 1.919-.611.204-1.384.207-1.855.006-.25-.107-.267-.146-.105-.237.19-.106.462-.407.555-.61.12-.262.11-.644-.022-.93-.275-.596-.846-.844-1.522-.661-.872.235-1.407.937-1.28 1.68.13.762.708 1.302 1.649 1.54.945.24 1.999.184 3.088-.165.399-.127.991-.357 1.212-.47.08-.04.15-.066.16-.057.008.008-.397.798-.901 1.755-.504.957-.927 1.769-.94 1.803-.023.06.052.063 1.381.054l1.405-.009 1.282-2.589c3.616-7.305 3.83-7.728 6.89-13.573a728.782 728.782 0 0 1 3.327-6.292c.508-.934 1.657-2.886 2.084-3.537.808-1.233 1.052-1.47 1.691-1.63.38-.097 1.674-.087 2.275.017.623.108 1.028.231 1.492.454.921.443 1.47 1.117 1.656 2.035.05.245.057.428.041 1.004-.03 1.103-.187 1.73-.689 2.754a8.06 8.06 0 0 1-2.01 2.6c-.58.496-1.81 1.402-2.102 1.55-.447.224-.947.333-1.86.403-.656.05-1.052.015-1.67-.15-.433-.114-1.084-.177-1.343-.128a.675.675 0 0 0-.263.14c-.19.166-.262.35-.263.672 0 .333.074.477.297.575.136.06.197.063.588.034.24-.018.612-.064.827-.102l.822-.145c.238-.042.707-.092 1.043-.111.336-.02.83-.05 1.096-.07 1.464-.104 2.054-.02 2.924.414.54.27.857.488 1.197.825.937.93 1.209 2.038.964 3.934-.227 1.757-.914 3.365-1.984 4.642-.697.832-1.57 1.5-2.673 2.048-1.171.58-2.308.844-3.843.888-1.11.033-1.66-.06-2.355-.4-1.023-.5-1.475-1.207-1.403-2.195.069-.943.351-1.56.836-1.825.198-.107.54-.206.716-.206.064 0 .125-.014.135-.03.029-.047-.36-.324-.644-.459-.369-.174-.774-.245-1.243-.217-.896.055-1.563.348-2.096.924a2.28 2.28 0 0 0-.623 1.724c.036.666.27 1.17.789 1.706.173.179.315.33.315.334 0 .005-.47.901-1.043 1.99a199.464 199.464 0 0 0-1.043 1.996c0 .008.631.014 1.402.014h1.403l.737-1.474c.457-.914.757-1.474.789-1.474.028 0 .186.032.35.071.765.184 1.305.233 2.564.233 1.244 0 1.51-.021 2.427-.2 1.695-.332 3.443-1.007 4.87-1.88 2.238-1.37 3.983-3.344 4.6-5.202.231-.698.291-1.102.292-1.957 0-.816-.028-1.038-.2-1.57-.414-1.276-1.405-2.266-2.895-2.89a9.871 9.871 0 0 0-2.362-.628l-.316-.043.351-.159c1.335-.6 2.909-1.715 3.754-2.656.833-.928 1.298-1.776 1.606-2.927.128-.482.13-.5.131-1.19.001-.545-.013-.768-.063-1-.118-.539-.293-.975-.539-1.337-.263-.389-.824-.888-1.292-1.15-.113-.063-.206-.13-.206-.149 0-.018.047-.117.104-.22.169-.303 2.197-4.164 2.197-4.182C32.03.007 31.4 0 30.629 0h-1.403l-.935 1.87c-.514 1.028-.947 1.87-.962 1.87-.014-.001-.123-.017-.242-.037-.521-.086-2.424-.21-3.344-.22a5.004 5.004 0 0 1-.565-.027l-.098-.022.182-.324c.976-1.74 1.686-3.038 1.686-3.086 0-.013-.63-.024-1.401-.024h-1.4l-.852 1.692ZM58.406 5.27a514.333 514.333 0 0 1-6.538 12.425c-2.744 5.068-3.374 6.34-3.718 7.51l-.1.341-.791.793c-.828.829-1.291 1.225-1.925 1.646-.694.46-1.233.67-1.728.67-.639.002-.95-.341-.944-1.042.011-1.23 1.214-3.728 4.518-9.384l1.022-1.753.087-.152h-2.65l-.431.987c-.237.544-.44.989-.453.99-.012 0-.066-.104-.12-.23-.434-1.022-1.242-1.696-2.34-1.95-.4-.093-1.382-.094-1.815-.002-1.359.29-2.733 1.136-4.154 2.558a13.532 13.532 0 0 0-2.478 3.372c-1.332 2.561-1.492 4.658-.472 6.191.349.524.79.85 1.37 1.01.125.034.419.067.7.078.772.03 1.239-.082 2.06-.5 1.057-.536 2.135-1.415 3.2-2.608.198-.223.366-.4.373-.392.007.006-.03.197-.082.422a3.202 3.202 0 0 0-.096.824c-.002.735.168 1.172.637 1.637.453.45.81.59 1.585.619.345.013.55.002.784-.042 1.057-.198 2.11-.862 3.45-2.173l.53-.52v.367c0 .475.078.85.254 1.216.256.532.653.87 1.232 1.049.265.081.356.09.923.092.553.002.664-.008.913-.08 1.075-.311 2.103-.997 3.433-2.29l.518-.504-.02.198a4.3 4.3 0 0 0 .014.591c.09 1.065.63 1.763 1.56 2.018a4 4 0 0 0 .719.077c.757.028 1.222-.084 2.004-.482.824-.42 1.613-1.052 2.82-2.262.585-.585.84-.819.854-.781.012.03.02.125.02.211 0 .208.118.802.215 1.091.416 1.23 1.407 2.01 2.797 2.198.514.07 1.496.027 2.054-.09 1.705-.357 3.496-1.329 5.267-2.859l.409-.353.02.401c.05 1.037.5 1.84 1.338 2.39.29.19.667.355 1.072.467.172.047.365.061.851.06.688-.001.996-.054 1.6-.275 1.508-.55 3.45-2.137 5.339-4.362.907-1.068 2.584-3.377 3.675-5.058l.132-.205-.178-.114a.944.944 0 0 0-.233-.12c-.035-.002-.193.207-.422.561-.785 1.21-1.964 2.835-2.774 3.822-2.08 2.531-4.266 4.378-5.781 4.884-.817.272-1.628.27-2.171-.006-.436-.222-.592-.498-.617-1.089-.026-.608.11-1.135.566-2.19.28-.649 1.171-2.421 1.98-3.936.337-.633.96-1.843 1.385-2.688l.773-1.537h2.422c2.274 0 2.424-.004 2.448-.063l.128-.341.104-.279-2.367-.01-2.366-.008 1.13-2.05c.623-1.127 1.14-2.07 1.15-2.095.014-.036-.232-.043-1.21-.036l-1.23.01-1.138 2.094-1.138 2.094-1.021.009-1.022.01-.103.27c-.057.148-.113.297-.124.332-.019.059.042.063.935.063.526 0 .955.01.955.021 0 .039-.894 1.73-1.513 2.862-.869 1.588-1.464 2.734-1.751 3.373-.256.568-.583 1.406-.583 1.493 0 .054-.732.752-1.168 1.114-1.38 1.145-2.802 2-3.962 2.384-.562.185-.88.239-1.414.238-.416 0-.514-.011-.684-.08-.441-.175-.853-.638-1.08-1.212-.175-.442-.251-.86-.274-1.512a6.56 6.56 0 0 1 .331-2.374l.128-.398.475-.119a26.025 26.025 0 0 0 3.477-1.178c2.406-1.025 3.945-2.186 4.302-3.246.099-.292.09-.806-.018-1.124-.212-.62-.726-1.012-1.533-1.167-.385-.074-1.227-.044-1.722.062-1.227.26-2.367.847-3.688 1.899-.46.365-1.457 1.369-1.847 1.858-1.118 1.4-1.933 3.015-2.212 4.38l-.072.35-.425.493c-1.113 1.289-2.46 2.478-3.445 3.04-.753.43-1.55.603-1.946.423-.512-.232-.58-1.043-.18-2.167.452-1.276 1.043-2.415 5.027-9.7 3.49-6.383 7.076-13.05 7.076-13.154 0-.033-.33-.041-1.386-.034l-1.387.01-.989 1.941a524.148 524.148 0 0 1-6.485 12.35c-2.484 4.602-3.061 5.75-3.469 6.893-.09.253-.184.496-.208.539-.078.136-.928 1.017-1.375 1.424-1.427 1.3-2.487 1.91-3.396 1.956-.308.015-.36.009-.505-.067-.296-.153-.411-.426-.408-.965.006-1.1.583-2.306 4.614-9.653 3.465-6.315 7.803-14.328 7.803-14.415 0-.012-.629-.021-1.398-.021h-1.398l-.887 1.746ZM42.07 16.76c.624.132 1.114.622 1.276 1.275.077.313.087 1.375.017 1.776-.16.916-.55 2.064-1.014 2.987-1.163 2.313-3.428 4.679-5.062 5.286-.274.102-.357.117-.689.12-.347.002-.393-.005-.568-.097-.378-.2-.657-.612-.787-1.168-.093-.395-.092-1.811.001-2.31.277-1.482.952-3.075 1.902-4.49 1.04-1.549 2.462-2.826 3.623-3.254.414-.153.936-.203 1.301-.125Zm29.762.072c.367.183.512.476.515 1.038.003.651-.242 1.135-.91 1.796-.996.988-2.662 1.86-4.635 2.428-.242.07-.46.126-.487.126-.063 0 .052-.288.366-.916.611-1.22 1.357-2.268 2.257-3.165.71-.709 1.34-1.155 1.871-1.323.426-.135.731-.13 1.023.016Z" fill="url(#a)"/><defs><linearGradient id="a" x1="0" y1="16" x2="88" y2="16" gradientUnits="userSpaceOnUse"><stop stop-color="#E3BE7C"/><stop offset="1" stop-color="#F9E2AB"/></linearGradient></defs></svg>