<svg width="219" height="33" fill="none" xmlns="http://www.w3.org/2000/svg"><path fill="#AFDCD0" d="M0 .027h32v32H0z"/><path fill="#77D3B9" d="M0 10.6h10.7v10.7H0z"/><path fill="#0AC18E" d="M10.699 10.6h10.7v10.7h-10.7z"/><path fill="#0AC18E" d="M21.301 0h10.7v10.7h-10.7zM0 21.3h10.7V32H0z"/><path fill="#77D3B9" d="M10.699 21.3h10.7V32h-10.7zM21.301 10.6h10.7v10.7h-10.7z"/><path fill="#77D3B9" d="M10.699 0h10.7v10.7h-10.7z"/><path d="M42.02 7.969v5.078h5.656c1.01 0 1.828-.188 2.453-.563.635-.385.953-1.062.953-2.03 0-1.074-.417-1.782-1.25-2.126-.719-.24-1.635-.36-2.75-.36h-5.063Zm0 8.89V23h5.656c1.01 0 1.797-.135 2.36-.406 1.02-.5 1.53-1.459 1.53-2.875 0-1.198-.494-2.021-1.484-2.469-.552-.25-1.328-.38-2.328-.39H42.02Zm6.593-12.89c2.823.041 4.823.86 6 2.453.709.979 1.063 2.15 1.063 3.516 0 1.406-.354 2.536-1.063 3.39-.396.48-.979.917-1.75 1.313 1.177.427 2.063 1.104 2.657 2.03.604.928.906 2.053.906 3.376 0 1.364-.344 2.588-1.032 3.672a6.363 6.363 0 0 1-1.64 1.812c-.74.563-1.615.948-2.625 1.157-1 .208-2.089.312-3.266.312H37.426V3.969h11.187Zm16.078 3.969h-4.515v-4.11h4.515v4.11Zm-4.515 2.03h4.515V27h-4.515V9.969Zm7.093 3.329v-3.172h2.375v-4.75h4.407v4.75h2.765v3.172h-2.765v9c0 .698.088 1.135.265 1.312.177.167.72.25 1.625.25h.422l.453-.03v3.327l-2.109.078c-2.104.073-3.542-.291-4.313-1.093-.5-.51-.75-1.297-.75-2.36V13.297H67.27Zm22.579 2.781a3.952 3.952 0 0 0-.641-1.719c-.5-.687-1.276-1.03-2.328-1.03-1.5 0-2.526.744-3.078 2.233-.292.792-.438 1.844-.438 3.157 0 1.25.146 2.255.438 3.015.531 1.417 1.531 2.125 3 2.125 1.041 0 1.781-.28 2.218-.843.438-.563.704-1.292.797-2.188h4.547c-.104 1.354-.594 2.636-1.469 3.844-1.395 1.948-3.463 2.922-6.203 2.922s-4.755-.813-6.047-2.438c-1.291-1.625-1.937-3.734-1.937-6.328 0-2.927.714-5.203 2.14-6.828 1.428-1.625 3.397-2.438 5.907-2.438 2.135 0 3.88.48 5.234 1.438 1.365.958 2.172 2.651 2.422 5.078h-4.562Zm15.281 7.781c1.302 0 2.302-.463 3-1.39.698-.927 1.047-2.245 1.047-3.953 0-1.709-.349-3.021-1.047-3.938-.698-.927-1.698-1.39-3-1.39s-2.307.463-3.016 1.39c-.698.917-1.047 2.23-1.047 3.938 0 1.708.349 3.026 1.047 3.953.709.927 1.714 1.39 3.016 1.39Zm8.719-5.343c0 2.5-.719 4.64-2.157 6.422-1.437 1.77-3.619 2.656-6.546 2.656-2.928 0-5.11-.886-6.547-2.657-1.438-1.78-2.157-3.921-2.157-6.421 0-2.459.72-4.589 2.157-6.391 1.437-1.802 3.619-2.703 6.547-2.703 2.927 0 5.109.9 6.546 2.703 1.438 1.802 2.157 3.932 2.157 6.39Zm7.781-10.578h-4.516v-4.11h4.516v4.11Zm-4.516 2.03h4.516V27h-4.516V9.969Zm18.282-.405c1.76 0 3.197.463 4.312 1.39 1.125.917 1.688 2.443 1.688 4.578V27h-4.563V16.64c0-.895-.12-1.583-.359-2.062-.438-.875-1.271-1.312-2.5-1.312-1.511 0-2.547.64-3.11 1.921-.291.678-.437 1.542-.437 2.594V27h-4.438V10h4.297v2.484c.573-.875 1.115-1.505 1.625-1.89.917-.688 2.078-1.031 3.485-1.031Zm10.046 12.78h4.735V27h-4.735v-4.656Zm19.157-6.265a3.958 3.958 0 0 0-.641-1.719c-.5-.687-1.276-1.03-2.328-1.03-1.5 0-2.526.744-3.078 2.233-.292.792-.438 1.844-.438 3.157 0 1.25.146 2.255.438 3.015.531 1.417 1.531 2.125 3 2.125 1.041 0 1.781-.28 2.219-.843.437-.563.703-1.292.796-2.188h4.547c-.104 1.354-.593 2.636-1.468 3.844-1.396 1.948-3.464 2.922-6.204 2.922-2.739 0-4.755-.813-6.046-2.438-1.292-1.625-1.938-3.734-1.938-6.328 0-2.927.714-5.203 2.141-6.828s3.395-2.438 5.906-2.438c2.135 0 3.88.48 5.234 1.438 1.365.958 2.172 2.651 2.422 5.078h-4.562Zm15.281 7.781c1.302 0 2.302-.463 3-1.39.698-.927 1.047-2.245 1.047-3.953 0-1.709-.349-3.021-1.047-3.938-.698-.927-1.698-1.39-3-1.39s-2.307.463-3.016 1.39c-.698.917-1.047 2.23-1.047 3.938 0 1.708.349 3.026 1.047 3.953.709.927 1.714 1.39 3.016 1.39Zm8.719-5.343c0 2.5-.719 4.64-2.157 6.422-1.437 1.77-3.619 2.656-6.546 2.656-2.928 0-5.11-.886-6.547-2.657-1.438-1.78-2.157-3.921-2.157-6.421 0-2.459.719-4.589 2.157-6.391 1.437-1.802 3.619-2.703 6.547-2.703 2.927 0 5.109.9 6.546 2.703 1.438 1.802 2.157 3.932 2.157 6.39Zm22.234-8.922c.75 0 1.49.146 2.219.437.729.292 1.39.802 1.984 1.531.479.594.802 1.323.969 2.188.104.573.156 1.412.156 2.516L216.129 27h-4.563V16.156c0-.646-.104-1.177-.312-1.593-.396-.792-1.125-1.188-2.188-1.188-1.229 0-2.078.51-2.546 1.531-.24.542-.36 1.193-.36 1.953V27h-4.484V16.86c0-1.011-.104-1.745-.313-2.204-.375-.823-1.109-1.234-2.203-1.234-1.271 0-2.125.411-2.562 1.234-.24.469-.36 1.167-.36 2.094V27h-4.515V10h4.328v2.484c.552-.885 1.073-1.515 1.562-1.89.865-.667 1.985-1 3.36-1 1.302 0 2.354.286 3.156.86.646.53 1.135 1.213 1.469 2.046.583-1 1.307-1.734 2.172-2.203.916-.469 1.937-.703 3.062-.703Z" fill="#fff"/></svg>