<svg width="86" height="34" viewBox="0 0 86 34" fill="none" xmlns="http://www.w3.org/2000/svg">
    <g clip-path="url(#clip0_293_28234)">
        <path fill-rule="evenodd" clip-rule="evenodd" d="M14.6339 1.98924C8.25385 3.15933 3.1807 7.73818 1.48478 13.8569C1.13185 15.1302 1.09198 15.5342 1.09198 17.8301C1.09198 20.1422 1.13034 20.5247 1.49516 21.8429C3.05643 27.4849 7.61012 31.8942 13.4513 33.4199C14.763 33.7625 15.1791 33.8012 17.5442 33.8012C19.9259 33.8012 20.32 33.764 21.6778 33.4098C27.4898 31.8942 32.0319 27.4737 33.6036 21.8033C33.9565 20.53 33.9964 20.126 33.9964 17.8301C33.9964 15.518 33.958 15.1355 33.5932 13.8173C32.0307 8.17121 27.426 3.71692 21.6371 2.25226C19.7711 1.78011 16.4536 1.65554 14.6339 1.98924ZM20.0704 9.59116C22.401 10.0565 24.3566 11.4622 25.4288 13.4431C26.1112 14.7036 26.4141 16.0297 26.4176 17.7702C26.4253 21.6612 24.4544 24.4992 20.952 25.6406C19.8485 26.0001 19.7244 26.0084 15.4491 26.0084H11.0752V21.5542V17.0999H13.1814H15.2876V19.5976V22.0954L17.1305 22.0384C19.2733 21.9724 19.7878 21.7837 20.8364 20.6794C21.7157 19.7533 22.0788 18.905 22.0855 17.76C22.0923 16.6103 21.6059 15.4933 20.7267 14.6398C19.61 13.5557 19.5136 13.5324 15.8141 13.4497C12.5628 13.3771 12.4892 13.3685 11.6428 12.9651C10.6528 12.4931 9.73449 11.5485 8.99643 10.2428L8.49742 9.35969H13.704C17.8688 9.35969 19.1429 9.40598 20.0704 9.59116ZM39.8348 10.2725C40.1066 10.7745 40.7368 11.5846 41.2353 12.073C42.539 13.3504 42.9187 13.4485 46.5684 13.4503C49.3529 13.4516 49.5537 13.4704 50.265 13.7979C51.2379 14.2456 52.0285 15.0591 52.5327 16.1309C52.878 16.8649 52.9254 17.1265 52.8642 17.9576C52.7506 19.4992 51.8171 20.8962 50.4394 21.5864C49.7353 21.9393 49.5027 21.9761 47.9332 21.9838L46.2031 21.9923L46.1619 19.469L46.1208 16.9457L44.0557 16.9863L41.9908 17.0269L41.951 21.5907L41.9113 26.1545L45.8625 26.152C48.7517 26.1501 50.0966 26.0917 50.8668 25.9348C53.9783 25.3006 56.2665 23.1676 57.0545 20.1668C57.358 19.0111 57.3924 16.6105 57.1215 15.4934C56.5752 13.241 54.9562 11.1677 53.0346 10.2597C51.2229 9.40379 50.8201 9.35969 44.8087 9.35969H39.3405L39.8348 10.2725ZM60.1894 9.50733C59.5764 9.69047 58.8213 10.4309 58.6081 11.0578C58.2653 12.0663 58.8594 13.258 59.9189 13.6878C60.615 13.9701 61.7565 13.937 62.3779 13.6165C63.9573 12.8017 63.9906 10.6504 62.4371 9.76964C61.87 9.44805 60.804 9.32376 60.1894 9.50733ZM81.7509 9.49653C80.2391 9.96678 79.5657 11.4574 80.2956 12.718C81.4722 14.7504 85.092 13.9793 85.092 11.6963C85.092 10.2092 83.285 9.01941 81.7509 9.49653ZM58.7649 20.2398C58.7649 25.3756 58.7759 25.581 59.0658 25.8624C59.3346 26.1234 59.5672 26.1545 61.2472 26.1545H63.1277V20.5319V14.9092H60.9463H58.7649V20.2398ZM64.7825 15.0573C64.7825 15.2554 69.4447 25.7378 69.6384 25.9757C69.7519 26.1149 70.3398 26.1519 71.9614 26.1218L74.1322 26.0815L76.6034 20.5449C77.9625 17.4996 79.0744 14.9843 79.0744 14.955C79.0744 14.9258 78.0174 14.9199 76.7257 14.9421L74.377 14.9823L73.1655 17.9333C72.4992 19.5564 71.9111 20.8587 71.8585 20.8272C71.806 20.7956 71.2247 19.4516 70.567 17.8406L69.3709 14.9114L67.0767 14.9103C65.626 14.9097 64.7825 14.9637 64.7825 15.0573ZM80.4283 20.3045V25.6998L80.7628 25.9271C81.0212 26.1029 81.5159 26.1545 82.9441 26.1545H84.7911V20.5319V14.9092H82.6097H80.4283V20.3045Z" fill="url(#paint0_linear_293_28234)"/>
    </g>
    <defs>
        <linearGradient id="paint0_linear_293_28234" x1="85.0378" y1="19.6183" x2="1.09198" y2="19.6183" gradientUnits="userSpaceOnUse">
            <stop stop-color="#EC213F"/>
            <stop offset="1" stop-color="#EC2629"/>
        </linearGradient>
        <clipPath id="clip0_293_28234">
            <rect width="85" height="33" fill="white" transform="translate(0.54599 0.900635)"/>
        </clipPath>
    </defs>
</svg>
