<svg width="124" height="28" viewBox="0 0 124 28" fill="none" xmlns="http://www.w3.org/2000/svg">
    <g clip-path="url(#clip0_293_28245)">
        <mask id="mask0_293_28245" style="mask-type:luminance" maskUnits="userSpaceOnUse" x="0" y="1" width="123" height="27">
            <path d="M122.732 1.80127H0.731689V27.8013H122.732V1.80127Z" fill="white"/>
        </mask>
        <g mask="url(#mask0_293_28245)">
            <path d="M25.6232 9.06083L14.9594 1.80127V5.86014L21.8003 10.4756L20.9955 13.1197H14.9594V16.4828H20.9955L21.8003 19.1269L14.9594 23.7424V27.8012L25.6232 20.5648L23.8795 14.8128L25.6232 9.06083Z" fill="url(#paint0_linear_293_28245)"/>
            <path d="M5.68164 16.4828H11.6954V13.1197H5.65929L4.87682 10.4756L11.6954 5.86014V1.80127L1.03156 9.06083L2.77534 14.8128L1.03156 20.5648L11.7178 27.8012V23.7424L4.87682 19.1269L5.68164 16.4828Z" fill="url(#paint1_linear_293_28245)"/>
            <mask id="mask1_293_28245" style="mask-type:alpha" maskUnits="userSpaceOnUse" x="1" y="1" width="25" height="27">
                <path d="M25.6233 9.06083L14.9594 1.80127V5.86014L21.8004 10.4756L20.9956 13.1197H14.9594V16.4828H20.9956L21.8004 19.1269L14.9594 23.7424V27.8012L25.6233 20.5649L23.8795 14.8128L25.6233 9.06083Z" fill="url(#paint2_linear_293_28245)"/>
                <path d="M5.68164 16.4828H11.6954V13.1197H5.65929L4.87682 10.4756L11.6954 5.86014V1.80127L1.03156 9.06083L2.77534 14.8128L1.03156 20.5649L11.7178 27.8012V23.7424L4.87682 19.1269L5.68164 16.4828Z" fill="url(#paint3_linear_293_28245)"/>
            </mask>
            <g mask="url(#mask1_293_28245)">
                <path d="M25.4604 1.80127H1.04486V27.8012H25.4604V1.80127Z" fill="url(#paint4_linear_293_28245)"/>
            </g>
            <path d="M46.8396 8.95117V11.2242H36.7505V13.5501H45.3229V15.8231H36.7505V18.3781H46.8396V20.6511H34.1622V8.95117H46.8396Z" fill="white"/>
            <path d="M48.2705 20.6511L54.0669 14.7307L48.4347 8.95117H51.998L55.9719 13.1272L59.7817 8.95117H63.1147L57.4991 14.7307L63.2954 20.6511H59.6992L55.9719 16.3517L51.7191 20.6511H48.2705Z" fill="white"/>
            <path d="M70.2464 8.95117C74.9426 8.95117 77.7668 11.3929 77.7668 14.8011C77.7668 18.2094 74.9426 20.6511 70.2464 20.6511C65.5501 20.6511 62.7416 18.2094 62.7416 14.8011C62.7416 11.3929 65.5501 8.95117 70.2464 8.95117ZM70.2464 11.1385C67.4221 11.1385 65.34 12.6138 65.34 14.8011C65.34 16.9885 67.4221 18.4638 70.2464 18.4638C73.0868 18.4638 75.1684 16.9885 75.1684 14.8011C75.1684 12.6138 73.0868 11.1385 70.2464 11.1385Z" fill="white"/>
            <path d="M87.1279 8.95117C90.8897 8.95117 93.156 11.1184 93.156 14.7835C93.156 18.4838 90.9059 20.6511 87.1608 20.6511H79.5396V8.95117H87.1279ZM90.4953 14.7835C90.4953 12.4929 89.1812 11.2242 86.7994 11.2242H82.1183V18.3781H86.7994C89.1812 18.3781 90.4953 17.0918 90.4953 14.7835Z" fill="white"/>
            <path d="M101.685 20.6511C97.7242 20.6511 94.7202 18.7846 94.7202 15.3455V8.95117H97.3116V15.0863C97.3116 17.212 99.4403 18.197 101.685 18.197C103.946 18.197 106.076 17.2293 106.076 15.0863V8.95117H108.65V15.3455C108.65 18.7846 105.663 20.6511 101.685 20.6511Z" fill="white"/>
            <path d="M115.903 20.6511C113.775 20.6511 111.481 20.2442 109.852 19.4811L110.7 17.3107C112.163 18.0059 114.174 18.4468 115.986 18.4468C118.064 18.4468 120.009 17.9889 120.009 17.175C120.009 16.5816 119.394 16.3272 118.114 16.1238L114.49 15.7168C111.697 15.3268 110.334 14.3264 110.334 12.5629C110.334 10.2907 112.645 8.95117 116.036 8.95117C118.081 8.95117 120.891 9.34117 122.337 10.0194L121.489 12.0881C120.06 11.4777 117.632 11.1724 115.92 11.1724C114.158 11.1724 112.994 11.5964 112.994 12.3764C112.994 12.9189 113.576 13.1903 115.072 13.4107L118.597 13.8177C121.29 14.2077 122.686 15.1572 122.686 17.0055C122.686 19.3455 119.727 20.6511 115.903 20.6511Z" fill="white"/>
        </g>
    </g>
    <defs>
        <linearGradient id="paint0_linear_293_28245" x1="22.1735" y1="29.5887" x2="14.5062" y2="-0.922335" gradientUnits="userSpaceOnUse">
            <stop stop-color="#0B46F9"/>
            <stop offset="1" stop-color="#BBFBE0"/>
        </linearGradient>
        <linearGradient id="paint1_linear_293_28245" x1="22.1735" y1="29.5887" x2="14.5063" y2="-0.922337" gradientUnits="userSpaceOnUse">
            <stop stop-color="#0B46F9"/>
            <stop offset="1" stop-color="#BBFBE0"/>
        </linearGradient>
        <linearGradient id="paint2_linear_293_28245" x1="22.1735" y1="29.5887" x2="14.5062" y2="-0.922335" gradientUnits="userSpaceOnUse">
            <stop stop-color="#0B46F9"/>
            <stop offset="1" stop-color="#BBFBE0"/>
        </linearGradient>
        <linearGradient id="paint3_linear_293_28245" x1="22.1735" y1="29.5887" x2="14.5063" y2="-0.922337" gradientUnits="userSpaceOnUse">
            <stop stop-color="#0B46F9"/>
            <stop offset="1" stop-color="#BBFBE0"/>
        </linearGradient>
        <linearGradient id="paint4_linear_293_28245" x1="2.60996" y1="7.65126" x2="15.3031" y2="16.7815" gradientUnits="userSpaceOnUse">
            <stop offset="0.119792" stop-color="#8952FF" stop-opacity="0.87"/>
            <stop offset="1" stop-color="#DABDFF" stop-opacity="0"/>
        </linearGradient>
        <clipPath id="clip0_293_28245">
            <rect width="123" height="27" fill="white" transform="translate(0.365845 0.900635)"/>
        </clipPath>
    </defs>
</svg>
