<svg width="104" height="34" viewBox="0 0 104 34" fill="none" xmlns="http://www.w3.org/2000/svg">
    <g clip-path="url(#clip0_293_28264)">
        <path fill-rule="evenodd" clip-rule="evenodd" d="M103.278 14.7649C103.278 3.9202 103.257 3.56867 102.579 3.22413C102.195 3.02854 101.553 2.58772 101.155 2.24418C100.442 1.63143 100.421 1.63376 100.001 2.38113C99.7666 2.79963 99.1493 3.41439 98.6298 3.74693L97.6853 4.35169L97.9552 9.0702C98.1034 11.6655 98.1474 16.3377 98.0527 19.4531L97.8804 25.1176L99.2594 26.2315L100.639 27.3454L101.568 26.648C102.08 26.2645 102.674 25.9506 102.888 25.9506C103.167 25.9506 103.278 22.7698 103.278 14.7649ZM7.71591 12.001C6.90492 11.7841 6.88639 11.6955 6.90877 8.11923L6.93114 4.45899L5.46366 3.24079L3.99619 2.02227L3.08802 2.74099C2.58849 3.13617 1.94564 3.60932 1.65899 3.79258C1.2091 4.08047 1.18114 5.02911 1.4538 10.7899C1.62718 14.4551 1.67577 19.3672 1.56147 21.7059L1.35382 25.9576L2.32771 26.3104C2.86324 26.5047 3.53756 26.8639 3.8263 27.1091C4.27374 27.4887 4.56283 27.3747 5.78212 26.3361L7.21254 25.1176L6.95491 21.6189C6.81333 19.6947 6.76859 18.0077 6.85563 17.8704C6.94302 17.7328 7.71276 17.6205 8.56675 17.6205H10.1192L10.122 21.2024L10.1248 24.7844L11.5636 25.5291L13.0024 26.2735L14.0347 25.4458C14.6024 24.9903 15.1725 24.6178 15.3022 24.6178C15.4316 24.6178 15.5375 20.2695 15.5375 14.9549C15.5375 9.64031 15.4249 5.292 15.2875 5.292C15.1498 5.292 14.494 4.83717 13.8298 4.28106C13.0248 3.60765 12.54 3.39673 12.3767 3.64864C12.2418 3.85689 11.6035 4.23741 10.9589 4.49431L9.78604 4.96112L10.0059 8.62536L10.2261 12.2892L9.38613 12.2559C8.92401 12.2376 8.17244 12.123 7.71591 12.001ZM93.7999 4.62559C93.5856 4.62559 93.0102 4.3257 92.5212 3.95918C92.0325 3.59266 91.5788 3.30477 91.5127 3.31976C91.447 3.33442 90.7251 3.82157 89.9085 4.40267L88.4243 5.4586L88.6396 8.87393C88.7581 10.7525 88.7742 12.2892 88.6753 12.2892C88.2048 12.2892 84.5766 7.32154 84.5766 6.67679C84.5766 6.18165 84.2631 5.82812 83.616 5.59388C83.0875 5.40229 82.4023 5.02743 82.093 4.76054C81.5997 4.33503 81.4742 4.3407 81.0691 4.80585C80.8153 5.0974 80.191 5.54123 79.6817 5.79213L78.756 6.24862L78.8105 14.7599L78.8651 23.2713L80.142 24.0973L81.419 24.9233L82.8658 24.3059L84.3127 23.6885L84.2505 19.9046L84.1882 16.1211L85.6278 17.9537C88.0132 20.9899 88.5617 21.9955 88.4781 23.178C88.4351 23.7868 88.5501 24.2846 88.7336 24.2846C88.9172 24.2846 89.553 24.6741 90.1469 25.1506L91.2264 26.0162L92.6372 25.3512L94.0484 24.6857L94.1191 14.6557C94.1697 7.46016 94.0796 4.62559 93.7999 4.62559ZM31.8234 6.79141L30.0168 6.53818C29.023 6.39923 27.4821 5.94208 26.5928 5.52257C25.1124 4.82451 24.8887 4.80085 23.9466 5.24168C23.3807 5.50658 21.8387 5.79713 20.5195 5.8871C18.6168 6.01672 18.1617 6.14999 18.3151 6.53151C18.4217 6.79608 18.5088 10.8022 18.5088 15.4337V23.8551L20.7425 24.0537C21.9709 24.1633 23.4992 24.4562 24.1385 24.7047C25.1939 25.1152 25.4312 25.0883 26.7113 24.4129C27.487 24.0033 28.751 23.5692 29.5201 23.4476C30.2891 23.3263 31.1543 23.1667 31.4427 23.0934C31.8929 22.9784 31.9569 21.8192 31.8954 14.8756L31.8234 6.79141ZM75.1964 6.58116L73.8701 5.93674C72.9807 5.50442 72.6147 5.31212 72.2894 5.36596C72.0295 5.40898 71.7956 5.60908 71.3417 5.9694C70.888 6.32992 70.3294 6.62481 70.1008 6.62481C69.79 6.62481 69.6893 8.69168 69.7023 14.7919C69.7194 22.6622 69.7456 22.9664 70.4192 23.1613C70.8037 23.2726 71.3795 23.5818 71.6983 23.8484C72.2065 24.2732 72.4096 24.2682 73.3412 23.8091C73.9261 23.5209 74.6091 23.285 74.8587 23.285C75.2208 23.2846 75.3012 21.591 75.2548 14.9329L75.1964 6.58116ZM39.533 7.13994C39.1716 7.03032 38.5948 6.6448 38.2512 6.28294C37.4898 5.48126 37.4189 5.48192 36.3852 6.3026C35.9315 6.66313 35.332 6.95801 35.0533 6.95801C34.6318 6.95801 34.593 7.3652 34.8219 9.37374C34.9733 10.7022 35.0918 14.2635 35.0855 17.2873L35.074 22.7852L37.0162 22.8601C38.0844 22.9014 39.6169 23.1723 40.422 23.4626C41.73 23.9344 41.9929 23.9374 42.9 23.4902C43.4583 23.215 44.959 22.8165 46.2345 22.6049L48.5543 22.2197L48.4756 17.8377C48.4323 15.4274 48.5263 12.0683 48.685 10.3734C48.8993 8.08457 48.8682 7.29122 48.564 7.29122C48.3393 7.29122 47.7111 6.99 47.1686 6.62181L46.1825 5.9524L44.9446 6.70511L43.7072 7.45782L43.6873 11.956C43.6642 17.1443 43.3569 18.1203 41.7461 18.1203C40.1392 18.1203 39.7085 16.4833 39.9763 11.3966C40.1755 7.61909 40.1448 7.32487 39.533 7.13994ZM64.7388 7.62109C64.2102 7.61942 62.9361 7.24458 61.9077 6.78808C59.877 5.8871 59.6229 5.85111 58.4512 6.3006C58.0208 6.46521 56.2905 6.69945 54.6059 6.82073L51.5427 7.04098L51.4976 9.7486C51.4728 11.2377 51.4039 13.2805 51.3445 14.2885C51.2851 15.2964 51.3683 17.5832 51.5298 19.3698L51.823 22.6186H53.9788C55.1649 22.6186 56.9707 22.8551 57.9922 23.1443C59.8124 23.6595 59.8889 23.6528 61.857 22.8111C62.9612 22.3387 64.1991 21.9521 64.6077 21.9521C65.2698 21.9521 65.3512 21.7622 65.3579 20.2028C65.3617 19.2405 65.5673 17.5345 65.814 16.4113C66.0612 15.2881 66.1475 14.0885 66.0063 13.7457C65.8647 13.4028 65.7382 11.8854 65.7246 10.3734L65.7001 7.62442L64.7388 7.62109ZM23.4778 14.2558C23.5408 12.4435 23.7537 11.1887 24.0571 10.8405C24.7594 10.0352 25.7493 10.1678 26.4303 11.1583C27.1326 12.1796 27.236 16.5369 26.5946 18.059C26.2758 18.8154 26.0139 18.977 25.2459 18.892C23.7963 18.7317 23.3618 17.5918 23.4778 14.2558ZM56.961 14.3364C56.961 11.9887 57.0892 10.9624 57.3979 10.8438C57.6384 10.7515 57.8506 10.6639 57.8702 10.6496C57.8894 10.6353 58.3879 10.7835 58.978 10.9798C60.1322 11.3633 61.1557 12.958 61.1557 14.3728C61.1557 14.8219 60.7967 15.6989 60.358 16.3217C59.7274 17.2167 59.288 17.4756 58.2606 17.5572L56.961 17.6608V14.3364ZM39.547 27.8622C39.9759 27.2184 39.891 27.0428 39.0457 26.8269C36.4275 26.1582 34.2392 26.9779 34.2392 28.6275C34.2392 29.7041 34.9642 30.2849 37.1231 30.9373C37.8443 31.1552 38.434 31.5441 38.434 31.8013C38.434 32.4611 36.8963 32.7496 35.6277 32.3281C34.7468 32.0356 34.5199 32.0649 34.3472 32.4937C33.912 33.575 36.7058 34.227 38.578 33.4813C41.0928 32.4797 40.4859 30.3519 37.4524 29.5352C36.581 29.3006 35.8028 28.9228 35.7235 28.6955C35.5123 28.0914 37.0392 27.6643 38.2382 27.9918C38.9583 28.1887 39.3555 28.1494 39.547 27.8622ZM45.1338 31.1192C45.0058 30.9996 44.5738 29.9754 44.1739 28.8428C43.6132 27.2551 43.273 26.7593 42.6882 26.677C42.2708 26.6187 41.9297 26.686 41.9297 26.8266C41.9297 26.9675 42.4351 28.5522 43.0528 30.3485C44.0987 33.39 44.2392 33.6143 45.1023 33.6143C45.9255 33.6143 46.0975 33.401 46.646 31.6983C46.9854 30.6448 47.3825 29.6565 47.5286 29.5029C47.6751 29.3493 48.1393 30.2113 48.5609 31.4188C49.2509 33.395 49.4205 33.6139 50.2605 33.6106C51.1306 33.6073 51.2606 33.4 52.1981 30.5285C52.7508 28.8355 53.2793 27.2501 53.373 27.0055C53.4898 26.7003 53.2933 26.5957 52.7455 26.6723C52.1139 26.7606 51.7972 27.2111 51.2211 28.8428C50.8212 29.9754 50.3965 30.9926 50.2776 31.1039C50.1584 31.2149 49.6865 30.2882 49.2289 29.0447C48.6046 27.3484 48.2187 26.7593 47.6835 26.6863C47.0822 26.6043 46.8452 26.9602 46.1685 28.9627C45.7273 30.2686 45.2617 31.2389 45.1338 31.1192ZM61.7308 33.564C62.4292 33.4533 62.3831 33.2811 60.7849 30.0323C59.4408 27.3001 58.9587 26.617 58.3739 26.617C57.939 26.617 57.5196 26.9205 57.3385 27.3667C57.171 27.7789 56.467 29.2973 55.7742 30.7404C55.081 32.1835 54.514 33.4207 54.514 33.4893C54.514 33.558 54.8891 33.6143 55.347 33.6143C55.8864 33.6143 56.2447 33.379 56.3632 32.9479C56.6359 31.9532 59.811 31.9786 60.509 32.9808C60.8107 33.4143 61.276 33.6363 61.7308 33.564ZM70.7104 29.282C70.7104 28.4929 70.4384 27.9545 69.7589 27.3974C68.9982 26.7736 68.4015 26.617 66.7876 26.617C65.6767 26.617 64.6629 26.717 64.535 26.8392C64.4067 26.9612 64.3018 28.5356 64.3018 30.3379C64.3018 33.6106 64.3029 33.6143 65.1757 33.6143C65.9137 33.6143 66.0497 33.4587 66.0497 32.6147C66.0497 31.6557 66.1122 31.615 67.5839 31.615C69.588 31.615 70.7104 30.7774 70.7104 29.282ZM68.0971 30.4092C66.6897 30.881 66.0497 30.4798 66.0497 29.1264C66.0497 28.0121 66.1119 27.9498 67.2305 27.9498C69.2894 27.9498 69.9386 29.7921 68.0971 30.4092ZM57.4874 30.3655C57.6262 30.0447 57.8184 29.5202 57.9153 29.1993C58.1614 28.3833 58.5281 28.4726 59.0021 29.4649C59.6096 30.7354 59.5117 30.9486 58.3218 30.9486C57.4245 30.9486 57.2794 30.8473 57.4874 30.3655Z" fill="white"/>
    </g>
    <defs>
        <clipPath id="clip0_293_28264">
            <rect width="103" height="33" fill="white" transform="translate(0.63916 0.900635)"/>
        </clipPath>
    </defs>
</svg>
