<svg width="138" height="20" viewBox="0 0 138 20" fill="none" xmlns="http://www.w3.org/2000/svg">
    <g clip-path="url(#clip0_293_28243)">
        <path fill-rule="evenodd" clip-rule="evenodd" d="M0.397067 2.02859C0.120098 2.35571 0.112078 5.53736 0.387303 5.8318C0.540839 5.99586 0.9302 6.02706 2.82807 6.02706H5.08625L5.08671 12.2104C5.08706 18.1931 5.09473 18.407 5.32172 18.8051C5.67993 19.4335 6.13798 19.5744 7.82153 19.5744C8.62675 19.5744 9.38688 19.5165 9.51054 19.4458C9.72847 19.321 9.73533 19.1145 9.73533 12.6721V6.02706H11.9935C13.8913 6.02706 14.2807 5.99586 14.4342 5.8318C14.5764 5.67979 14.6168 5.35553 14.6168 4.36943C14.6168 2.90283 14.4396 2.39747 13.796 2.02834C13.4263 1.81631 12.9763 1.80127 6.99481 1.80127C0.936941 1.80127 0.578962 1.81357 0.397067 2.02859ZM66.826 1.95041C66.7204 2.06339 66.6866 4.07524 66.687 10.2466C66.6873 17.9983 66.698 18.4122 66.9057 18.7765C67.2698 19.415 67.7542 19.5744 69.3302 19.5744C70.5275 19.5744 70.7449 19.5431 70.9108 19.3471C71.0856 19.1406 71.1032 18.3903 71.1032 11.1318C71.1032 2.28288 71.1265 2.56452 70.3507 2.05183C70.0218 1.83445 69.7726 1.80127 68.4685 1.80127C67.4544 1.80127 66.9201 1.84974 66.826 1.95041ZM96.7072 6.83592C94.9017 7.25552 93.4772 8.40195 92.722 10.0436C92.1464 11.2942 91.9782 12.2173 92.0612 13.6707C92.2337 16.6914 93.774 18.6425 96.5643 19.3743C97.5505 19.633 99.3855 19.6344 100.318 19.3774C101.121 19.1559 102.444 18.4536 102.888 18.0132C103.36 17.5463 103.267 17.2482 102.326 16.2068C101.359 15.136 101.024 14.9897 100.243 15.2972C99.0066 15.7839 98.316 15.7964 97.4867 15.347C96.9611 15.0621 96.6889 14.7329 96.4928 14.145C96.1345 13.0707 96.3545 11.928 97.0662 11.167C97.857 10.3213 99.0687 10.1547 100.148 10.7432C100.405 10.8836 100.714 10.9985 100.835 10.9985C100.955 10.9985 101.375 10.6399 101.769 10.2015C102.446 9.44796 102.485 9.37127 102.485 8.79979C102.485 8.04512 102.282 7.72595 101.549 7.32885C100.339 6.67298 98.3009 6.46554 96.7072 6.83592ZM108.088 6.83803C104.811 7.59917 102.891 10.6344 103.407 14.2423C103.755 16.6856 105.211 18.4661 107.532 19.2883C108.352 19.5788 108.662 19.6215 109.982 19.6256C111.648 19.6308 112.321 19.477 113.579 18.8036C114.997 18.0438 115.86 16.9773 116.4 15.3157C116.754 14.2298 116.795 12.4132 116.491 11.29C115.86 8.94944 114.23 7.35196 111.947 6.8348C110.955 6.60997 109.064 6.61146 108.088 6.83803ZM123.58 6.8215C122.941 7.03665 122.645 7.21948 122.127 7.7206C121.727 8.10652 121.674 8.1269 121.612 7.91859C121.575 7.79095 121.384 7.52286 121.189 7.32288C120.844 6.96891 120.798 6.9581 119.46 6.91808C118.136 6.87843 118.079 6.88738 117.898 7.16317C117.733 7.4156 117.711 8.065 117.711 12.6394C117.711 18.4828 117.723 18.5848 118.507 19.106C118.888 19.3594 119.076 19.388 120.364 19.388C121.648 19.388 121.814 19.363 121.962 19.1467C122.095 18.952 122.128 18.2331 122.129 15.4181C122.131 12.0305 122.139 11.9165 122.393 11.4359C122.691 10.8733 123.059 10.6302 123.617 10.6276C124.677 10.6225 124.801 11.0695 124.801 14.9284C124.801 18.3605 124.847 18.6091 125.589 19.0993C125.935 19.3278 126.222 19.3826 127.306 19.427C129.23 19.5057 129.101 19.7918 129.101 15.4606C129.101 12.5295 129.131 11.9015 129.285 11.5529C129.74 10.5278 131.048 10.3747 131.516 11.2916C131.685 11.6232 131.724 12.1793 131.774 14.9758C131.814 17.2613 131.876 18.3515 131.976 18.538C132.055 18.6856 132.297 18.9233 132.513 19.0662C132.856 19.2933 133.088 19.3258 134.356 19.3258C135.641 19.3258 135.829 19.2986 136.009 19.0858C136.196 18.865 136.209 18.5187 136.164 14.7668C136.119 11.0061 136.096 10.6248 135.865 9.87998C135.57 8.9262 134.957 7.91114 134.403 7.45935C133.643 6.83952 132.793 6.61866 131.367 6.67074C130.27 6.7109 129.99 6.76644 129.391 7.06237C129.008 7.25204 128.508 7.60054 128.281 7.83681L127.869 8.26635L127.272 7.651C126.85 7.21624 126.496 6.97885 126.065 6.84201C125.343 6.61258 124.229 6.60338 123.58 6.8215ZM19.2659 7.02496C18.9782 7.16715 18.5477 7.48657 18.3091 7.73477C18.0706 7.98285 17.8614 8.16158 17.8442 8.13187C17.8271 8.10217 17.7559 7.96595 17.6859 7.82923C17.6161 7.69251 17.3861 7.45489 17.1748 7.30101C16.8285 7.04883 16.6518 7.02136 15.3783 7.02136C14.4348 7.02136 13.9197 7.07083 13.8265 7.17051C13.7221 7.28212 13.687 8.73281 13.687 12.9331C13.687 18.5033 13.689 18.5493 13.939 18.8891C14.3458 19.442 14.809 19.5747 16.3275 19.5725C17.0806 19.5714 17.7753 19.5176 17.8712 19.453C18.0175 19.3543 18.0548 18.7463 18.1036 15.6729C18.1584 12.2202 18.1755 11.9909 18.4014 11.6676C19.0474 10.7432 20.1179 10.4935 21.2338 11.0067C21.6887 11.2159 21.8993 11.2566 22.0397 11.1622C22.1442 11.0919 22.5625 10.4054 22.9693 9.63638C23.8587 7.95514 23.848 7.86801 22.6761 7.25055C21.9852 6.88663 21.7568 6.8307 20.838 6.80062C19.9748 6.77241 19.6963 6.81206 19.2659 7.02496ZM27.5302 6.96953C25.6327 7.51516 24.173 9.16111 23.6215 11.377C23.3907 12.3047 23.3985 14.4941 23.6356 15.3571C23.9339 16.4424 24.5967 17.6719 25.1916 18.2439C27.0656 20.0457 30.0842 20.2893 32.0283 18.7957L32.5754 18.3754L32.8078 18.7575C33.1998 19.402 33.6843 19.574 35.1095 19.5742C35.8008 19.5743 36.4677 19.5165 36.5914 19.4458C36.8085 19.3215 36.8162 19.1261 36.8162 13.6832C36.8162 8.15798 36.8115 8.04276 36.5735 7.71923C36.1391 7.12874 35.7862 7.02136 34.2792 7.02136C32.774 7.02136 32.7162 7.04572 32.5779 7.73701L32.4968 8.14206L32.0173 7.70296C31.0864 6.85096 29.0819 6.52321 27.5302 6.96953ZM55.4031 7.0006C53.892 7.42244 52.5016 8.67675 51.8441 10.2112C50.7359 12.7976 51.1979 16.3281 52.8798 18.1242C53.9693 19.2878 55.5766 19.9044 57.214 19.7871C58.3266 19.7073 58.9758 19.4757 59.8198 18.8576C60.2792 18.5214 60.4642 18.4423 60.5027 18.5658C60.5317 18.6589 60.7014 18.91 60.8798 19.1237L61.2042 19.5123L62.8068 19.5534C64.2337 19.5901 64.4259 19.5704 64.56 19.3743C64.6779 19.202 64.7107 17.9891 64.7104 13.8024C64.7103 8.95292 64.6913 8.41065 64.507 8.02449C64.1258 7.22494 63.8154 7.08847 62.2713 7.04224C61.0029 7.00421 60.8751 7.02148 60.6523 7.25974C60.508 7.41398 60.4103 7.67897 60.4103 7.91574V8.31296L60.0325 7.92916C58.9985 6.8783 57.1613 6.50979 55.4031 7.0006ZM76.7354 6.93846C74.7504 7.48036 73.1718 9.26264 72.6729 11.5255C72.3159 13.1447 72.5149 15.2717 73.15 16.6249C73.7996 18.0089 74.6537 18.8246 76.0707 19.4146C76.7378 19.6922 77.0405 19.7422 78.0768 19.7453C79.4623 19.7497 80.2508 19.4996 81.1394 18.7742L81.637 18.3681L81.826 18.7201C82.2013 19.4196 82.6295 19.5734 84.2011 19.5739C85.5341 19.5744 85.6291 19.558 85.7992 19.2981C85.9562 19.0586 85.9802 18.3192 85.98 13.7362C85.9799 7.84315 85.9843 7.87919 85.1785 7.30349C84.8238 7.05007 84.6444 7.02136 83.4144 7.02136C81.9677 7.02136 81.6798 7.12427 81.6798 7.64155C81.6798 8.18917 81.5534 8.27034 81.267 7.90641C81.1159 7.71426 80.6636 7.39944 80.2621 7.2068C79.6594 6.91758 79.339 6.84959 78.4266 6.8174C77.7807 6.79466 77.0778 6.845 76.7354 6.93846ZM37.8855 7.17051C37.8088 7.25254 37.746 7.41759 37.746 7.53728C37.746 7.71215 41.4378 17.0906 42.1356 18.688C42.4777 19.4715 42.7969 19.5734 44.9088 19.5739C46.2704 19.5743 46.8145 19.5319 46.8974 19.4191C46.9601 19.3337 47.4956 18.0053 48.0873 16.4672C48.679 14.9292 49.5501 12.6691 50.0229 11.4449C51.0187 8.86753 51.0971 8.503 50.7888 7.89137C50.4361 7.19201 49.9823 7.02173 48.4706 7.02161C47.2448 7.02136 47.1555 7.03826 46.9971 7.30101C46.6228 7.92183 45.4897 11.3258 44.7588 14.0251C44.6615 14.3844 44.5484 14.1495 44.08 12.6143C43.5022 10.7205 42.4221 7.65162 42.2102 7.30101C42.0455 7.02882 41.9878 7.02136 40.033 7.02136C38.6262 7.02136 37.9832 7.06598 37.8855 7.17051ZM111.032 10.7351C111.953 11.182 112.436 12.1805 112.339 13.4324C112.213 15.0618 110.96 16.0852 109.524 15.7319C108.364 15.4467 107.722 14.5472 107.718 13.2007C107.714 12.0498 108.232 11.0686 109.052 10.6775C109.548 10.4409 110.483 10.468 111.032 10.7351ZM31.0845 10.7583C31.9142 11.0945 32.3944 12.0027 32.3944 13.2357C32.3944 14.1949 32.1325 14.8999 31.5972 15.3816C30.5208 16.3501 28.6945 15.9803 28.1031 14.6736C27.6331 13.6354 27.8467 11.8609 28.5184 11.2246C29.1257 10.6495 30.2925 10.4374 31.0845 10.7583ZM59.0185 10.9053C60.4062 11.6559 60.7218 13.8457 59.6402 15.2204C59.0117 16.0189 57.4888 16.2068 56.6466 15.5897C55.54 14.7789 55.3189 12.7709 56.198 11.5132C56.7976 10.6553 58.0549 10.3842 59.0185 10.9053ZM80.1322 10.7576C81.568 11.3365 82.0254 13.7487 80.948 15.0608C80.0603 16.142 78.5852 16.2534 77.6272 15.3116C76.4967 14.2002 76.7512 11.6589 78.0676 10.9144C78.6276 10.5978 79.5601 10.5269 80.1322 10.7576ZM88.4791 15.1276C86.8108 15.7601 86.5075 18.1291 87.9632 19.1592C88.6542 19.6482 89.8072 19.7213 90.5737 19.3245C91.9159 18.6297 92.1906 16.7333 91.1013 15.681C90.4208 15.0235 89.3497 14.7975 88.4791 15.1276Z" fill="white"/>
    </g>
    <defs>
        <clipPath id="clip0_293_28243">
            <rect width="137" height="19" fill="white" transform="translate(0.0925293 0.900635)"/>
        </clipPath>
    </defs>
</svg>
