<svg width="129" height="32" fill="none" xmlns="http://www.w3.org/2000/svg"><path d="M11.018 0a7.934 7.934 0 0 0-7.934 7.942v2.977C1.544 11.2 0 11.57 0 12.053v15.535s0 .43.482.633c1.748.71 8.624 3.146 10.204 3.704.203.075.26.075.314.075.075 0 .11 0 .314-.075 1.58-.558 8.474-2.995 10.221-3.704.447-.186.465-.615.465-.615V12.053c0-.483-1.522-.873-3.066-1.134V7.942C18.956 3.552 15.385 0 11.018 0Zm0 3.796c2.584 0 4.146 1.564 4.146 4.15v2.588a56.246 56.246 0 0 0-8.288 0V7.947c0-2.592 1.562-4.15 4.142-4.15ZM11 14.343c3.606 0 6.633.28 6.633.78v9.692c0 .15-.018.168-.15.221-.129.058-6.151 2.233-6.151 2.233s-.244.075-.314.075c-.075 0-.315-.093-.315-.093s-6.022-2.175-6.15-2.232c-.128-.058-.15-.075-.15-.222v-9.692c-.036-.5 2.99-.762 6.597-.762ZM34.497 27.691V15.425h-4.481v-4.399H43.99v4.399h-4.438v12.266h-5.055ZM55.313 27.691l-2.3-5.24h-1.83v5.24H46.13V11.026h8.895c3.904 0 5.998 2.589 5.998 5.71 0 2.877-1.663 4.399-2.999 5.055l3.02 5.895h-5.73v.005Zm.597-10.955c0-.905-.803-1.296-1.644-1.296h-3.083v2.632h3.083c.841-.02 1.644-.411 1.644-1.336ZM63.672 27.691V11.026H76.31v4.399h-7.603v1.644h7.417v4.399h-7.417v1.83h7.603v4.393H63.672ZM78.938 27.712v-4.008l6.35-8.259h-6.35v-4.398h13.004v3.968l-6.37 8.303h6.556v4.399l-13.19-.005ZM93.363 19.389c0-5.118 3.968-8.631 9.125-8.631 5.138 0 9.126 3.493 9.126 8.63 0 5.118-3.969 8.612-9.126 8.612s-9.125-3.494-9.125-8.611Zm13.113 0c0-2.324-1.58-4.174-4.007-4.174-2.427 0-4.007 1.85-4.007 4.174 0 2.324 1.58 4.173 4.007 4.173 2.446 0 4.007-1.85 4.007-4.173ZM122.91 27.712l-2.299-5.24h-1.83v5.24h-5.054V11.047h8.895c3.904 0 5.998 2.588 5.998 5.71 0 2.877-1.663 4.398-2.999 5.054l3.019 5.896h-5.73v.005Zm.617-10.975c0-.905-.802-1.296-1.644-1.296H118.8v2.632h3.083c.846-.02 1.644-.411 1.644-1.336Z" fill="#fff"/></svg>