<svg width="25" height="27" viewBox="0 0 25 27" fill="none" xmlns="http://www.w3.org/2000/svg">
<path d="M16.012 18.052H9.64346V16.7885L12.649 13.5851C13.0617 13.1342 13.3659 12.7407 13.5616 12.4046C13.7615 12.0685 13.8615 11.7495 13.8615 11.4474C13.8615 11.0347 13.7572 10.7114 13.5488 10.4775C13.3403 10.2392 13.0425 10.1201 12.6554 10.1201C12.2385 10.1201 11.9088 10.2647 11.6663 10.554C11.4281 10.8391 11.309 11.2156 11.309 11.6835H9.45841C9.45841 11.1177 9.59241 10.6008 9.86043 10.1329C10.1327 9.66491 10.5156 9.29905 11.0091 9.03529C11.5025 8.76728 12.062 8.63327 12.6873 8.63327C13.6445 8.63327 14.3869 8.863 14.9144 9.32245C15.4461 9.7819 15.712 10.4307 15.712 11.2687C15.712 11.7282 15.5929 12.1961 15.3547 12.6726C15.1165 13.1491 14.7081 13.7042 14.1295 14.3381L12.0173 16.5652H16.012V18.052Z" fill="#2BF07C"/>
<path fill-rule="evenodd" clip-rule="evenodd" d="M12.5761 24.7939C18.8758 24.7939 23.9827 19.6869 23.9827 13.3872C23.9827 7.08752 18.8758 1.98059 12.5761 1.98059C6.27636 1.98059 1.16943 7.08752 1.16943 13.3872C1.16943 19.6869 6.27636 24.7939 12.5761 24.7939Z" stroke="#3BEE81" stroke-width="1.2674" stroke-linecap="round" stroke-linejoin="round"/>
</svg>
