<svg width="25" height="27" viewBox="0 0 25 27" fill="none" xmlns="http://www.w3.org/2000/svg">
<path d="M11.8899 12.5896H12.8726C13.3406 12.5896 13.6873 12.4727 13.9128 12.2387C14.1382 12.0047 14.251 11.6941 14.251 11.307C14.251 10.9326 14.1382 10.6412 13.9128 10.4328C13.6916 10.2243 13.3853 10.1201 12.9939 10.1201C12.6408 10.1201 12.3451 10.2179 12.1069 10.4136C11.8686 10.6051 11.7495 10.8561 11.7495 11.1666H9.90534C9.90534 10.6817 10.0351 10.2477 10.2946 9.86485C10.5584 9.47772 10.9242 9.17568 11.3922 8.95872C11.8644 8.74175 12.3834 8.63327 12.9492 8.63327C13.9319 8.63327 14.7019 8.86938 15.2592 9.34159C15.8165 9.80955 16.0952 10.4562 16.0952 11.2815C16.0952 11.7069 15.9654 12.0983 15.7059 12.4556C15.4464 12.813 15.1061 13.0874 14.6849 13.2788C15.2082 13.466 15.5974 13.7468 15.8527 14.1211C16.1122 14.4955 16.2419 14.938 16.2419 15.4485C16.2419 16.2738 15.9399 16.9353 15.3358 17.433C14.736 17.9308 13.9404 18.1796 12.9492 18.1796C12.0218 18.1796 11.2624 17.935 10.6711 17.4458C10.084 16.9566 9.79048 16.3099 9.79048 15.5059H11.6347C11.6347 15.8547 11.7644 16.1398 12.0239 16.361C12.2877 16.5822 12.611 16.6928 12.9939 16.6928C13.432 16.6928 13.7745 16.5779 14.0213 16.3482C14.2722 16.1142 14.3977 15.8058 14.3977 15.4229C14.3977 14.4955 13.8872 14.0318 12.8662 14.0318H11.8899V12.5896Z" fill="#2BF07C"/>
<path fill-rule="evenodd" clip-rule="evenodd" d="M12.9463 24.7939C19.246 24.7939 24.3529 19.6869 24.3529 13.3872C24.3529 7.08752 19.246 1.98059 12.9463 1.98059C6.6466 1.98059 1.53967 7.08752 1.53967 13.3872C1.53967 19.6869 6.6466 24.7939 12.9463 24.7939Z" stroke="#3BEE81" stroke-width="1.2674" stroke-linecap="round" stroke-linejoin="round"/>
</svg>  
