<svg width="20" height="20" viewBox="0 0 20 20" fill="none" xmlns="http://www.w3.org/2000/svg">
<g clip-path="url(#clip0_4017_53451)">
<path d="M20 10C20 4.47715 15.5228 0 10 0C4.47715 0 0 4.47715 0 10C0 15.5228 4.47715 20 10 20C15.5228 20 20 15.5228 20 10Z" fill="white"/>
<path fill-rule="evenodd" clip-rule="evenodd" d="M10.0001 0.939319C4.99596 0.939319 0.939303 4.99597 0.939303 10.0001C0.939303 15.0042 4.99596 19.0609 10.0001 19.0609C15.0042 19.0609 19.0609 15.0042 19.0609 10.0001C19.0609 4.99597 15.0042 0.939319 10.0001 0.939319ZM-0.0322266 10.0001C-0.0322266 4.45941 4.45939 -0.0322113 10.0001 -0.0322113C15.5408 -0.0322113 20.0324 4.45941 20.0324 10.0001C20.0324 15.5408 15.5408 20.0324 10.0001 20.0324C4.45939 20.0324 -0.0322266 15.5408 -0.0322266 10.0001Z" fill="url(#paint0_linear_4017_53451)"/>
<path fill-rule="evenodd" clip-rule="evenodd" d="M16.16 11.143C16.4287 11.3883 16.7862 11.5379 17.1786 11.5379C18.0133 11.5379 18.6899 10.8613 18.6899 10.0266C18.6899 9.19191 18.0133 8.51531 17.1786 8.51531C16.7941 8.51531 16.4431 8.65891 16.1764 8.89546L14.4693 6.63876C14.348 6.47841 14.0924 6.56421 14.0924 6.76526V8.36311L11.6354 9.53526C11.2381 9.72481 11.2372 10.29 11.6339 10.4808L14.0923 11.6633V13.2594C14.0923 13.4606 14.3483 13.5463 14.4695 13.3856L16.16 11.143Z" fill="url(#paint1_linear_4017_53451)"/>
<path fill-rule="evenodd" clip-rule="evenodd" d="M8.85915 16.155C8.61275 16.4228 8.46175 16.7798 8.4602 17.1723C8.457 18.0069 9.131 18.6862 9.96565 18.6894C10.8003 18.6926 11.4795 18.0186 11.4827 17.1839C11.4842 16.7995 11.3421 16.4479 11.1066 16.1803L13.37 14.4818C13.5309 14.3611 13.4461 14.1052 13.245 14.1044L11.6472 14.0983L10.4845 11.6368C10.2965 11.2388 9.7313 11.2357 9.53895 11.6317L8.347 14.0855L6.75095 14.0793C6.5497 14.0786 6.46305 14.3342 6.62325 14.456L8.85915 16.155Z" fill="url(#paint2_linear_4017_53451)"/>
<path fill-rule="evenodd" clip-rule="evenodd" d="M3.87596 8.83501C3.60919 8.58766 3.25282 8.43526 2.86036 8.43226C2.02572 8.42581 1.34389 9.09721 1.33745 9.93181C1.331 10.7665 2.00238 11.4483 2.83702 11.4548C3.22153 11.4577 3.57362 11.3168 3.84217 11.0824L5.53179 13.3522C5.65189 13.5135 5.90814 13.4297 5.90969 13.2286L5.92204 11.6309L8.38794 10.4777C8.78664 10.2912 8.79194 9.72606 8.39674 9.53221L5.94754 8.33076L5.95984 6.73476C5.96139 6.53351 5.70609 6.44586 5.58369 6.60561L3.87596 8.83501Z" fill="url(#paint3_linear_4017_53451)"/>
<path fill-rule="evenodd" clip-rule="evenodd" d="M11.2155 3.8803C11.4639 3.61448 11.6176 3.2587 11.6222 2.86625C11.6318 2.03165 10.9631 1.34723 10.1285 1.33757C9.29386 1.3279 8.60941 1.99664 8.59976 2.83125C8.59531 3.21577 8.73486 3.56841 8.96831 3.83787L6.69196 5.51875C6.53021 5.6382 6.61301 5.89475 6.81406 5.8971L8.41176 5.9156L9.55541 8.3859C9.74036 8.7854 10.3055 8.79285 10.5009 8.39835L11.7118 5.95385L13.3077 5.9723C13.509 5.97465 13.5976 5.7197 13.4383 5.5967L11.2155 3.8803Z" fill="url(#paint4_linear_4017_53451)"/>
</g>
<defs>
<linearGradient id="paint0_linear_4017_53451" x1="11.1896" y1="-3.55404" x2="8.27069" y2="23.3572" gradientUnits="userSpaceOnUse">
<stop stop-color="#FFC85F"/>
<stop offset="1" stop-color="#DF2D62"/>
</linearGradient>
<linearGradient id="paint1_linear_4017_53451" x1="19.9806" y1="10.4222" x2="10.1335" y2="9.28641" gradientUnits="userSpaceOnUse">
<stop stop-color="#FFC85F"/>
<stop offset="1" stop-color="#DF2D62"/>
</linearGradient>
<linearGradient id="paint2_linear_4017_53451" x1="9.5653" y1="19.9785" x2="10.7392" y2="10.1359" gradientUnits="userSpaceOnUse">
<stop stop-color="#FFC85F"/>
<stop offset="1" stop-color="#DF2D62"/>
</linearGradient>
<linearGradient id="paint3_linear_4017_53451" x1="0.0499128" y1="9.52631" x2="9.88789" y2="10.7382" gradientUnits="userSpaceOnUse">
<stop stop-color="#FFC85F"/>
<stop offset="1" stop-color="#DF2D62"/>
</linearGradient>
<linearGradient id="paint4_linear_4017_53451" x1="10.539" y1="0.0516054" x2="9.28916" y2="9.88485" gradientUnits="userSpaceOnUse">
<stop stop-color="#FFC85F"/>
<stop offset="1" stop-color="#DF2D62"/>
</linearGradient>
<clipPath id="clip0_4017_53451">
<rect width="20" height="20" fill="white"/>
</clipPath>
</defs>
</svg>
