<svg width="20" height="20" viewBox="0 0 20 20" fill="none" xmlns="http://www.w3.org/2000/svg">
<circle cx="10" cy="10" r="10" fill="#F0B90B"/>
<path d="M6.30809 11.0856L6.73917 7.70358L3 4.99312L6.41643 6.20151L7.22328 4.90887L10.1694 3L16.6634 6.7359L17 12.436L14.1069 16.6341L11.82 17L13.0026 14.7397V12.5636L12.1428 10.8642L11.2691 10.26L9.92508 11.7067V13.2376L8.87617 14.2631L7.54372 14.4316L6.95357 14.7806L5.98535 14.458L5.58192 12.9415L6.30809 11.8752V11.0856Z" fill="white"/>
<path d="M13 4.14001C12.1452 3.95731 11.2102 4.00584 11.2102 4.00584C11.2102 4.00584 10.9032 5.47032 9 5.8557C9.01383 5.8557 11.5145 6.73781 13 4.14001Z" fill="#94A6C3"/>
<path d="M12.8744 15.9128C13.7961 15.2058 14.488 14.2324 14.8068 13.1308C14.8216 13.0896 14.9501 13.0169 15.0366 12.9613C15.1799 12.8765 15.3257 12.8063 15.3529 12.6925C15.4097 12.368 15.4394 12.0291 15.4394 11.6901C15.4394 11.5642 15.3084 11.4358 15.1799 11.3099C15.0786 11.2252 14.9773 11.1259 14.9773 11.0557C14.834 9.76998 14.2286 8.56901 13.2624 7.69492L13.1611 7.79419C14.0976 8.65617 14.703 9.82809 14.834 11.0702C14.8488 11.184 14.9625 11.2954 15.0786 11.4092C15.1799 11.4939 15.2961 11.6223 15.2961 11.678C15.2961 12.0024 15.2664 12.3269 15.2096 12.6513C15.1948 12.707 15.0663 12.7651 14.965 12.8208C14.8216 12.891 14.6907 12.9613 14.6635 13.0751C14.3175 14.276 13.5243 15.322 12.4717 16C12.6595 15.6053 13.25 14.3196 13.5663 13.6683L13.5095 11.5787L11.6785 9.84262L10.6406 9.98305L9.50147 11.7918C9.50147 11.7918 10.0352 12.4552 9.28402 13.2324C8.55012 13.9952 7.97189 14.1646 7.97189 14.1646L7.43815 13.8814C7.5963 13.6828 7.91506 13.3874 8.15969 13.1889C8.5773 12.8499 8.99491 12.8208 8.99491 12.4552C9.0122 11.6901 8.17452 11.9007 8.17452 11.9007L7.87058 12.184L7.74209 13.23L7.1095 14.0073L7.03784 13.9927L6 13.7676C6 13.7676 6.63506 13.4431 6.73637 13.0751C6.83768 12.7216 6.53375 11.5496 6.51892 11.4794C6.53375 11.4939 6.82286 11.7337 6.95135 12.1283C7.18116 11.5061 7.4851 10.9128 7.57158 10.8571C7.65807 10.8015 8.8244 10.1937 8.8244 10.1937L8.43645 11.1961L8.72556 11.0412L9.41746 9.3753C9.41746 9.3753 10.0945 9.05085 10.5986 9.05085C11.5055 9.03632 12.8473 7.94915 12.2419 6C12.4148 6.07022 15.4122 7.53995 15.9311 10.4213C16.3191 12.6368 15.0366 14.7119 12.8744 15.9128Z" fill="#94A6C3"/>
<path d="M9.77081 4.67645C10.1049 4.4031 9.97525 4 9.97525 4L9.00045 4.99996C8.98549 4.99996 9.34699 5.01034 9.77081 4.67645Z" fill="#1B314F"/>
<path d="M6.64379 12.4436L6.82381 12C6.82381 12 6.08458 12.6435 6.01947 12.7329C5.95052 12.8338 6.06543 13.0109 6.35269 12.9995C6.64379 12.9881 7 12.7767 7 12.6225C7 12.4226 6.64379 12.4436 6.64379 12.4436Z" fill="#1B314F"/>
<path d="M14.7878 3.6743C14.7878 3.6743 15.4901 3.70316 16.2189 3.78735C14.5762 2.49573 13.0201 2.1181 11.7574 2.1181C10.0185 2.1181 8.84005 2.83487 8.7679 2.87576L9.31626 2.00505C9.31626 2.00505 7.12762 1.79339 6.35559 4.10965C6.15837 3.61898 5.97799 2.90221 5.97799 2.90221C5.97799 2.90221 4.84038 3.90039 5.37431 5.55521C4.06835 5.07897 2.2044 4.41752 2.13225 4.4055C2.03364 4.39107 2.00478 4.43436 2.00478 4.43436C2.00478 4.43436 1.97591 4.47525 2.06009 4.54741C2.21642 4.67008 5.16266 6.84683 5.80963 7.26775C5.67014 7.77286 5.67014 8.01098 5.80963 8.2491C6.00685 8.5714 6.01888 8.73977 5.99242 8.97789C5.96356 9.21601 5.71102 11.2797 5.65571 11.5323C5.60039 11.7848 5.01114 12.682 5.0376 12.949C5.06646 13.2159 5.42963 14.3512 5.75432 14.4787C5.99242 14.5629 6.58167 14.7457 6.9737 14.7457C7.11319 14.7457 7.24066 14.7168 7.29598 14.6615C7.53409 14.4522 7.60383 14.409 7.77219 14.409C7.78662 14.409 7.80105 14.409 7.81308 14.409C7.88282 14.409 7.967 14.4234 8.06561 14.4234C8.28929 14.4234 8.58511 14.3801 8.79435 14.1853C9.10221 13.8774 9.63614 13.4565 9.80449 13.2592C10.0161 12.9923 10.1268 12.6291 10.0715 12.2635C10.0282 11.9267 10.211 11.6309 10.4226 11.3374C10.6896 10.9863 11.1802 10.3561 11.1802 10.3561C12.1495 11.0825 12.7531 12.1913 12.7531 13.4252C12.7531 15.614 10.8459 17.3818 8.48891 17.3818C8.12333 17.3818 7.77459 17.341 7.42345 17.2568C8.50334 17.6344 9.41487 17.7619 10.1604 17.7619C11.7454 17.7619 12.5872 17.187 12.5872 17.187C12.5872 17.187 12.2938 17.5671 11.8152 18C11.8296 18 11.8296 18 11.8296 18C14.4535 17.6344 15.7306 15.4745 15.7306 15.4745C15.7306 15.4745 15.632 16.1768 15.507 16.6531C18.9968 14.0289 18.4075 10.7458 18.3931 10.6351C18.4219 10.676 18.7731 11.0969 18.9535 11.323C19.5163 5.54078 14.7878 3.6743 14.7878 3.6743ZM9.41487 12.9081C9.35955 12.9778 9.12145 13.1895 8.95309 13.3434C8.78473 13.4974 8.60195 13.6513 8.46245 13.7932C8.40714 13.8485 8.2941 13.8774 8.12574 13.8774C8.07042 13.8774 8.0127 13.8774 7.97181 13.8774C7.94295 13.8774 7.9165 13.8774 7.88763 13.8774C7.85877 13.8774 7.84434 13.8774 7.83232 13.8774C7.78903 13.8774 7.74814 13.8774 7.70485 13.8774C7.9165 13.596 8.5322 12.9514 8.74385 12.8119C8.99638 12.6435 9.12385 12.4751 8.96752 12.1817C8.8136 11.8858 8.40713 11.958 8.40713 11.958C8.40713 11.958 8.64524 11.8594 8.85689 11.8594C8.58992 11.7896 8.25321 11.8594 8.09928 12.0133C7.93093 12.1673 7.95979 12.7157 7.89004 13.0644C7.82029 13.43 7.58219 13.6128 7.21661 13.9495C7.0194 14.1323 6.8799 14.1877 6.76686 14.1877C6.52876 14.1468 6.24736 14.0746 6.05014 14.0049C5.91065 13.8221 5.699 13.2184 5.64368 12.9658C5.68457 12.8263 5.85293 12.5304 5.9371 12.3621C6.10546 12.0398 6.20407 11.857 6.23293 11.6886C6.28825 11.4505 6.47103 9.97607 6.54078 9.36032C6.72357 9.59844 6.9761 9.99291 6.91838 10.2455C7.32484 9.6706 7.03142 9.10777 6.88952 8.88408C6.76446 8.66039 6.5961 8.21061 6.73559 7.73437C6.87509 7.25813 7.38016 5.93765 7.38016 5.93765C7.38016 5.93765 7.54852 6.23349 7.78662 6.17577C8.02472 6.12045 9.94639 3.22933 9.94639 3.22933C9.94639 3.22933 10.4659 4.36461 9.91753 5.19442C9.35715 6.02183 8.80879 6.17577 8.80879 6.17577C8.80879 6.17577 9.58082 6.31527 10.2951 5.79574C10.5886 6.48364 10.87 7.198 10.8844 7.29661C10.8411 7.39523 10.2807 8.74217 10.2254 8.82636C10.1965 8.85522 10.0017 8.91054 9.85981 8.9394C9.62171 9.00916 9.48221 9.05245 9.42449 9.09334C9.32588 9.17752 8.87613 10.4114 8.66689 11.0151C8.41435 11.0849 8.16182 11.2268 7.97903 11.5058C8.07764 11.4361 8.38549 11.3928 8.61157 11.3663C8.80879 11.3519 9.41006 11.6742 9.56639 12.2779C9.56639 12.2923 9.56639 12.2923 9.56639 12.3068C9.59766 12.528 9.52791 12.7397 9.41487 12.9081ZM8.09688 13.0764C8.22435 12.8936 8.20992 12.5858 8.22435 12.4872C8.23878 12.3885 8.26523 12.2057 8.37827 12.1793C8.49131 12.1504 8.75828 12.1937 8.75828 12.3885C8.75828 12.5713 8.56106 12.6122 8.42157 12.7397C8.32055 12.8359 8.12333 13.0476 8.09688 13.0764ZM13.6935 10.3946C13.833 9.68022 13.8475 9.06207 13.8066 8.55697C14.3525 9.28576 14.6892 10.1709 14.7878 11.0825C14.8023 11.1955 14.9129 11.3062 15.026 11.4192C15.1246 11.5034 15.2376 11.6165 15.2376 11.6862C15.2376 12.0085 15.2087 12.3308 15.1534 12.6555C15.139 12.6964 15.0139 12.7686 14.9153 12.8239C14.7758 12.8936 14.6484 12.9634 14.6219 13.0764C14.314 14.1564 13.6526 15.1113 12.77 15.7848C14.0735 14.4234 14.7037 12.1769 13.6935 10.3946ZM12.8109 15.9098C13.7224 15.2075 14.4247 14.2262 14.7325 13.1173C14.747 13.0764 14.872 13.0043 14.9562 12.949C15.0957 12.8792 15.2376 12.795 15.2641 12.682C15.3194 12.3597 15.3482 12.0229 15.3482 11.6862C15.3482 11.5611 15.2208 11.4337 15.0957 11.3086C15.026 11.2244 14.9129 11.1258 14.9129 11.056C14.7999 10.0314 14.3934 9.06448 13.7633 8.26353C13.4819 6.57985 12.3611 6.06031 12.3322 6.04588C12.3611 6.08918 13.0899 7.14027 12.5848 8.37417C12.0653 9.6225 10.7329 9.42767 10.6198 9.4397C10.5068 9.4397 10.0739 10.0001 9.5255 11.0392C9.45576 11.0103 9.15993 10.9406 8.82322 10.9983C9.07575 10.296 9.45576 9.30019 9.5255 9.21601C9.55436 9.18715 9.76361 9.13182 9.90551 9.09093C10.1725 9.02118 10.2975 8.97789 10.3408 8.92257C10.3697 8.87927 10.5092 8.55697 10.6487 8.22023C10.7762 8.22023 11.0984 8.19137 11.1249 8.17694C11.1538 8.14807 11.4207 7.46258 11.4207 7.37839C11.4207 7.30864 10.8724 5.94727 10.6631 5.42773C10.7617 5.31468 10.8603 5.17518 10.9565 5.02124C13.833 5.33152 16.0794 7.77286 16.0794 10.7313C16.0794 13.0043 14.747 14.9838 12.8109 15.9098Z" fill="#1B314F"/>
<path d="M9.80557 7.97363C10.1945 7.64766 9.99129 7.03902 9.27294 6.93461C9.45866 6.62392 9.72147 6 9.72147 6C9.72147 6 7.63649 8.37599 7.45428 8.42183C7.26856 8.46767 7.08634 7.94561 7.08634 7.94561C6.69738 9.03047 7.74162 9.17817 7.86426 8.83693C8.43544 8.72997 9.41661 8.28431 9.80557 7.97363Z" fill="#1B314F"/>
<path d="M8 9L8.73057 7C8.73057 7 9.15252 7.33911 8.94034 7.87861C8.67511 8.50674 8 9 8 9Z" fill="#FFD923"/>
<path d="M16.9482 14.2434C16.6728 14.492 16.363 14.7513 16 15C18.3532 11.9245 16.1095 9.11052 16.0188 9C16.1846 9.11265 16.3473 9.23592 16.4944 9.34644C18.3 10.7088 18.519 12.7556 16.9482 14.2434Z" fill="#D82122"/>
<path d="M19 10C18.3346 8.30835 17.3909 6.8683 15.3112 5.56961C13.3049 4.31166 11.1493 4.4099 11.0304 4.42427C11.0152 4.42427 11 4.42427 11 4.42427C11.0734 4.39552 11.1467 4.38114 11.2201 4.36916C11.6781 4.23019 12.2676 4.11757 12.8596 4.04808C14.4257 3.83483 16.0044 4.33801 17.0822 5.41626C17.0974 5.43063 17.0974 5.43063 17.1126 5.44501C18.3371 6.67421 18.9722 8.21011 19 10Z" fill="#D82122"/>
<path d="M15 2.67423C12.6294 2.3042 11.1017 2.48808 10.0023 2.83314C9.9696 2.72645 9.85776 2.51532 9.76228 2.34279C9.43219 2.67423 9.08028 3.07151 8.85931 3.3235C8.2537 3.66856 8 4 8 4C8.34918 3.00568 9.36945 2.26561 10.6107 2.07946C10.9599 2.02724 11.3418 2 11.7564 2C12.8531 2.01362 13.9497 2.23837 15 2.67423Z" fill="#D82122"/>
<path d="M7 5C5.60451 4.97335 6.06899 4.0533 6.09355 4C6.09355 4.00695 6.18767 4.72306 7 5Z" fill="#D82122"/>
<path d="M8 2C7.08565 2.88566 7.26852 5 7.26852 5C6.39423 2.85473 7.92859 2.05061 8 2Z" fill="#D82122"/>
<path d="M5.90485 6.31499C5.97496 6.42063 6.04506 6.61369 5.96294 6.89053C5.91687 7.03988 5.84676 7.01802 5.7406 6.93424C5.6004 6.80675 4.75914 5.9143 4 5C4.8653 5.55368 5.7406 6.14743 5.88081 6.27492C5.88081 6.27492 5.89283 6.29678 5.90485 6.31499Z" fill="white"/>
</svg>
