<svg width="20" height="20" viewBox="0 0 20 20" fill="none" xmlns="http://www.w3.org/2000/svg">
<path fill-rule="evenodd" clip-rule="evenodd" d="M9.99736 0.130005L18.5449 5.06485V14.9346L9.99775 19.8694L1.4502 14.9346V5.06486L9.99736 0.130005ZM9.62002 1.21935L2.58226 5.28272L7.8171 8.30508L9.6201 5.18211L9.62002 1.21935ZM9.62013 6.69152L8.47071 8.68244L9.62018 9.34609L9.62013 6.69152ZM9.24284 9.9997L8.09336 9.33605L6.94391 11.327L9.24284 9.9997ZM5.63673 12.0817L7.43975 8.95869L2.20491 5.93633V14.0631L5.63673 12.0817ZM2.58227 14.7167L5.91268 12.7939L9.62029 14.9347L9.62037 18.7801L2.58227 14.7167ZM10.3751 18.7801L17.4128 14.7167L14.0826 12.794L10.375 14.9344L10.3751 18.7801ZM10.375 14.0629L13.3279 12.3582L10.3749 10.6533L10.375 14.0629ZM10.7523 9.9997L13.0518 11.3273L11.902 9.33588L10.7523 9.9997ZM11.5247 8.68227L10.3748 6.69064L10.3749 9.34611L11.5247 8.68227ZM12.1783 8.30491L10.3748 5.18112L10.3747 1.21935L17.4128 5.28273L12.1783 8.30491ZM12.5556 8.95852L14.3589 12.082L17.7902 14.0631V5.93633L12.5556 8.95852ZM9.62021 10.6533L6.66738 12.3581L9.62028 14.0632L9.62021 10.6533Z" fill="url(#paint0_linear_4079_54147)"/>
<defs>
<linearGradient id="paint0_linear_4079_54147" x1="1.63887" y1="9.21593" x2="18.62" y2="9.21593" gradientUnits="userSpaceOnUse">
<stop stop-color="#46FFFF"/>
<stop offset="0.495595" stop-color="#65C9F9"/>
<stop offset="1" stop-color="#95A8FF"/>
</linearGradient>
</defs>
</svg>
