<svg width="20" height="20" viewBox="0 0 20 20" fill="none" xmlns="http://www.w3.org/2000/svg">
<circle cx="10" cy="10" r="10" fill="#050F66"/>
<path fill-rule="evenodd" clip-rule="evenodd" d="M9.10952 5.40686L8.27622 6.82447L8.28808 8.79833L8.29995 10.7722L8.42257 10.6798C8.6204 10.5306 9.15634 10.2927 9.51709 10.1938C9.99443 10.0629 10.714 10.0337 11.1883 10.1257C11.394 10.1657 11.5933 10.2097 11.6311 10.2236C11.6915 10.2459 11.6998 10.0434 11.6998 8.53724V6.82556L10.8593 5.41823C10.397 4.64418 10.0017 4.00603 9.98079 4.00004C9.95993 3.99409 9.56783 4.62717 9.10952 5.40686ZM5.48826 11.4857L4 13.9781L5.48383 13.9897C6.29993 13.996 6.97497 13.9942 6.98387 13.9857C6.99281 13.9771 6.99477 12.8503 6.98829 11.4817L6.97652 8.99331L5.48826 11.4857ZM12.9776 11.4988V14H14.4888H16L15.9335 13.9016C15.8969 13.8475 15.2343 12.7407 14.4611 11.442C13.6879 10.1433 13.0378 9.06205 13.0164 9.03922C12.995 9.01631 12.9776 10.1194 12.9776 11.4988ZM9.94282 11.2622C9.17633 11.4413 8.48956 12.1184 8.32801 12.8543C8.26289 13.1508 8.26298 13.5577 8.32819 13.8057L8.37921 14H10.0395H11.6998V12.7733V11.5467L11.4144 11.4187C10.9385 11.2054 10.4215 11.1504 9.94282 11.2622Z" fill="white"/>
</svg>
