<svg width="20" height="20" viewBox="0 0 20 20" fill="none" xmlns="http://www.w3.org/2000/svg">
<path d="M16.9229 18.7841C17.0773 18.7839 17.2289 18.7436 17.362 18.6673L13.3333 14.0886H5.34973L2.63743 18.6675C2.77075 18.7438 2.92251 18.7841 3.07707 18.7841H16.9229Z" fill="url(#paint0_linear_3713_22665)"/>
<path d="M12.9872 1.65329C12.9116 1.5218 12.8015 1.41236 12.6682 1.33621L10 6.00236L14.6503 14.0887H20C20 13.9435 19.9618 13.8007 19.8892 13.674L12.9872 1.65329Z" fill="url(#paint1_linear_3713_22665)"/>
<path d="M0.110807 13.674C0.0381516 13.8007 0 13.9435 0 14.0887H5.34973L9.24812 7.30979L7.33184 1.33621C7.19852 1.41236 7.08838 1.5218 7.01275 1.65329L0.110807 13.674Z" fill="url(#paint2_linear_3713_22665)"/>
<path d="M2.31851 18.3499C2.39401 18.4816 2.5041 18.5912 2.63743 18.6675L5.34973 14.0887H0C0 14.2339 0.0381516 14.3767 0.110807 14.5034L2.31851 18.3499Z" fill="#5C59FD"/>
<path d="M17.3622 18.6673L14.6504 14.0887H13.3335L17.3622 18.6673Z" fill="#4036F0"/>
<path d="M19.8893 14.5034C19.962 14.3767 20.0001 14.2339 20.0001 14.0887H14.6504L17.3621 18.6673C17.4953 18.591 17.6052 18.4814 17.6806 18.3499L19.8893 14.5034Z" fill="#5B6FFD"/>
<path d="M10.0002 6.00236L7.33203 1.33621L9.24831 7.30979L10.0002 6.00236Z" fill="#405CF0"/>
<path d="M12.2289 1.22H7.7715C7.61704 1.21993 7.46535 1.26002 7.33203 1.33617L10.0002 6.00232L12.6683 1.33617C12.535 1.26002 12.3833 1.21993 12.2289 1.22Z" fill="#647FFE"/>
<defs>
<linearGradient id="paint0_linear_3713_22665" x1="14.4551" y1="15.3546" x2="3.10897" y2="18.4956" gradientUnits="userSpaceOnUse">
<stop stop-color="#6869FB"/>
<stop offset="1" stop-color="#6560F9"/>
</linearGradient>
<linearGradient id="paint1_linear_3713_22665" x1="16.7308" y1="8.01491" x2="12.2115" y2="10.8675" gradientUnits="userSpaceOnUse">
<stop stop-color="#7792FB"/>
<stop offset="1" stop-color="#6477F9"/>
</linearGradient>
<linearGradient id="paint2_linear_3713_22665" x1="8.39744" y1="4.20081" x2="0.384615" y2="14.1047" gradientUnits="userSpaceOnUse">
<stop stop-color="#778BF9"/>
<stop offset="1" stop-color="#7063F7"/>
</linearGradient>
</defs>
</svg>
