<svg width="20" height="20" viewBox="0 0 20 20" fill="none" xmlns="http://www.w3.org/2000/svg">
<rect width="20" height="20" fill="url(#paint0_linear_4017_53409)"/>
<path fill-rule="evenodd" clip-rule="evenodd" d="M8.83665 5.17773C8.7187 5.17773 8.61437 5.37407 8.69002 5.44117C8.76566 5.50827 9.21287 5.9422 9.21287 5.9422V7.09822C9.21287 7.09822 7.88911 9.44357 7.71602 9.79834C7.54294 10.1531 7.82885 10.5663 8.12758 10.5663C8.26197 10.5663 8.98075 10.5617 9.77152 10.5568L9.77223 10.5567C10.739 10.5507 11.8131 10.5439 12.0585 10.5439C12.5046 10.5439 12.6123 9.98162 12.522 9.81387C12.4316 9.64612 10.8895 7.09822 10.8895 7.09822V5.9422L11.3783 5.44117C11.4796 5.343 11.4254 5.17773 11.2806 5.17773H8.83665ZM9.95603 7.39011L8.6412 9.96128H9.08502L10.0421 8.12032L10.5465 9.08367L9.81331 9.08752L9.6305 9.48346L10.7146 9.4719L10.9815 9.96899L11.4458 9.96128L10.1339 7.38722L9.95603 7.39011ZM10.2053 6.32754C10.4213 6.32754 10.5964 6.15501 10.5964 5.9422C10.5964 5.72938 10.4213 5.55686 10.2053 5.55686C9.98937 5.55686 9.8143 5.72938 9.8143 5.9422C9.8143 6.15501 9.98937 6.32754 10.2053 6.32754Z" fill="#48BCD0"/>
<ellipse cx="12.2089" cy="4.93069" rx="0.439904" ry="0.433506" fill="#48BCD0"/>
<ellipse cx="10.5963" cy="4.01551" rx="0.586538" ry="0.578007" fill="#48BCD0"/>
<path fill-rule="evenodd" clip-rule="evenodd" d="M2.01304 12.1799C1.90619 12.4845 1.55153 13.506 1.22483 14.4499L0.630859 16.1659L0.884635 16.1357C1.12218 16.1074 1.18377 15.976 1.84587 14.0825C2.23494 12.9698 2.58423 11.9619 2.62216 11.8427C2.68091 11.658 2.65539 11.6259 2.44913 11.6259C2.24218 11.6259 2.17903 11.7062 2.01304 12.1799ZM19.1514 11.7945C19.1139 11.8873 18.7587 12.9087 18.3623 14.0645L17.6416 16.1658L17.8939 16.1356C18.1296 16.1074 18.1933 15.9703 18.8689 14.0343C19.2665 12.8951 19.6162 11.8873 19.6462 11.7945C19.6881 11.6651 19.6449 11.6259 19.4602 11.6259C19.3224 11.6259 19.1906 11.6979 19.1514 11.7945ZM16.8706 12.2762C16.8952 12.4864 16.952 12.5411 17.1459 12.5411C17.3399 12.5411 17.3967 12.4864 17.4212 12.2762C17.4492 12.0371 17.4224 12.0113 17.1459 12.0113C16.8695 12.0113 16.8427 12.0371 16.8706 12.2762ZM2.63428 12.4505C2.40064 12.8019 2.4678 13.1191 2.77573 13.1191C3.00145 13.1191 3.02051 13.0842 3.02472 12.6615C3.03 12.1426 2.88952 12.0666 2.63428 12.4505Z" fill="#FCFDFD"/>
<path d="M4.4617 13.3289C4.12882 13.3182 3.80122 13.4129 3.52695 13.5991L3.72948 13.9707C3.92315 13.8268 4.15997 13.7506 4.4025 13.7542C4.77172 13.7542 4.95399 13.9292 4.95399 14.2286V14.2608H4.38068C3.70767 14.2608 3.45996 14.5464 3.45996 14.9118C3.45996 15.2772 3.77933 15.5658 4.28565 15.5658C4.61749 15.5658 4.85896 15.4599 4.98204 15.271V15.5366H5.47122V14.2501C5.47122 13.6206 5.102 13.3289 4.46325 13.3289M4.95244 14.855C4.90657 14.9621 4.82783 15.0525 4.72725 15.1133C4.62668 15.1741 4.50931 15.2025 4.39159 15.1943C4.12519 15.1943 3.96784 15.0761 3.96784 14.8872C3.96784 14.7337 4.06287 14.5971 4.41652 14.5971H4.95244V14.8504V14.855Z" fill="#FCFDFD"/>
<path d="M6.93089 12.4999H6.41211V15.5351H6.93089V12.4999Z" fill="#FCFDFD"/>
<path d="M9.57309 15.5336H10.204L9.19141 14.267L10.1168 13.3504H9.49364L8.41869 14.3315V12.4999H7.8999V15.5336H8.41869V14.9578L8.80505 14.5971L9.57309 15.5336Z" fill="#FCFDFD"/>
<path d="M11.3166 13.3504H10.7979V15.5351H11.3166V13.3504Z" fill="#FCFDFD"/>
<path d="M15.0822 13.3474C14.9248 13.3417 14.7682 13.3716 14.6243 13.4346C14.4804 13.4977 14.353 13.5923 14.2518 13.7112C14.1708 13.591 14.059 13.494 13.9276 13.4301C13.7963 13.3662 13.6502 13.3376 13.504 13.3474C13.3674 13.342 13.2314 13.3668 13.1058 13.4199C12.9802 13.4731 12.8682 13.5532 12.778 13.6544V13.3765H12.2842V15.5597H12.803V14.4512C12.803 14.0183 13.0351 13.7972 13.3794 13.7972C13.691 13.7972 13.8779 13.986 13.8779 14.3744V15.5597H14.3967V14.4512C14.3967 14.0183 14.6335 13.7972 14.9731 13.7972C15.2847 13.7972 15.4717 13.986 15.4717 14.3744V15.5597H15.9904V14.3084C15.9904 13.6498 15.6165 13.352 15.0822 13.352" fill="#FCFDFD"/>
<path d="M17.4392 13.3504H16.9204V15.5351H17.4392V13.3504Z" fill="#FCFDFD"/>
<defs>
<linearGradient id="paint0_linear_4017_53409" x1="10" y1="0" x2="10" y2="20" gradientUnits="userSpaceOnUse">
<stop stop-color="#015C64"/>
<stop offset="1" stop-color="#000707"/>
</linearGradient>
</defs>
</svg>
