<svg width="21" height="20" viewBox="0 0 21 20" fill="none" xmlns="http://www.w3.org/2000/svg">
<g clip-path="url(#clip0)">
<path d="M10.5 20C16.0228 20 20.5 15.5228 20.5 10C20.5 4.47715 16.0228 0 10.5 0C4.97715 0 0.5 4.47715 0.5 10C0.5 15.5228 4.97715 20 10.5 20Z" fill="#F0F0F0"/>
<path d="M6.1521 13.4783L7.02167 19.3781C8.10495 19.7801 9.27671 20 10.4999 20C14.7995 20 18.465 17.2863 19.8779 13.4783H6.1521Z" fill="black"/>
<path d="M6.1521 6.52176L7.02167 0.621914C8.10495 0.219922 9.27671 0 10.4999 0C14.7995 0 18.465 2.71375 19.8779 6.52176H6.1521Z" fill="#6DA544"/>
<path d="M0.5 10.0001C0.5 14.2997 3.21379 17.9652 7.02176 19.3781V0.62207C3.21379 2.035 0.5 5.70043 0.5 10.0001Z" fill="#A2001D"/>
</g>
<defs>
<clipPath id="clip0">
<rect width="20" height="20" fill="white" transform="translate(0.5)"/>
</clipPath>
</defs>
</svg>
