<svg width="20" height="20" viewBox="0 0 20 20" fill="none" xmlns="http://www.w3.org/2000/svg">
<circle cx="10" cy="10" r="10" fill="#141414"/>
<path fill-rule="evenodd" clip-rule="evenodd" d="M9.36234 6.00701C9.17745 6.36399 8.86223 7.58966 9.70732 8.8957C10.0087 9.36154 10.3297 9.87763 10.6473 10.4177C11.4122 10.1055 12.1329 9.77823 12.7234 9.43549C13.4063 9.03918 13.775 8.70004 13.9121 8.45679C14.3519 7.67655 14.4137 6.99339 14.2647 6.45169C14.1155 5.90889 13.7223 5.38999 13.0293 4.99823C11.737 4.26773 10.0982 4.71965 9.36234 6.00701ZM11.5998 12.1458C12.332 11.8411 13.0671 11.503 13.7076 11.1312C14.4518 10.6993 15.213 10.142 15.6202 9.41942C16.2691 8.26809 16.4638 7.05416 16.1552 5.93189C15.8469 4.81072 15.0685 3.89876 13.9941 3.29143C11.7553 2.02591 8.91452 2.81489 7.649 5.05367L7.64321 5.06391L7.63767 5.07429C7.17774 5.93555 6.75701 7.94519 8.06124 9.96082C8.29797 10.3267 8.54529 10.7219 8.79165 11.1327C8.50515 11.2398 8.22578 11.3442 7.95543 11.4478C7.25898 11.7146 6.542 12.0034 6.1164 12.3013C5.4823 12.7452 4.90806 13.2104 4.52067 13.8561C4.12016 14.5236 3.98271 15.2723 3.98271 16.1679L5.94334 16.1679C5.94334 15.4705 6.05097 15.1164 6.20189 14.8648C6.36592 14.5914 6.64946 14.3214 7.24075 13.9075C7.42784 13.7766 7.89208 13.5716 8.65684 13.2786C8.90097 13.1851 9.17044 13.0844 9.4548 12.9781C9.55599 12.9402 9.65906 12.9017 9.76355 12.8626C9.85921 13.0465 9.95177 13.2299 10.0403 13.4115C10.3276 14.0007 10.565 14.5567 10.729 15.0467C10.8972 15.5496 10.9674 15.9237 10.9674 16.1679L12.9281 16.1679C12.9281 15.6156 12.7839 15.0094 12.5883 14.4248C12.3884 13.8272 12.1128 13.1885 11.8027 12.5523C11.7368 12.4172 11.6691 12.2816 11.5998 12.1458Z" fill="white"/>
<path fill-rule="evenodd" clip-rule="evenodd" d="M13.0293 4.99823C11.9435 4.38448 10.6108 4.60504 9.77678 5.45737C9.61695 5.62071 9.47481 5.80796 9.35581 6.01848L7.649 5.05367C7.85249 4.69369 8.09762 4.37007 8.3754 4.08617C9.8153 2.61459 12.1154 2.22947 13.9941 3.29143C15.0685 3.89876 15.8469 4.81072 16.1552 5.93189C16.4638 7.05416 16.2691 8.2681 15.6202 9.41942C15.4408 9.73765 15.1992 10.0139 14.9394 10.2527L13.6126 8.80927C13.7694 8.66511 13.8618 8.54613 13.9121 8.45679C14.3519 7.67655 14.4137 6.99339 14.2647 6.45169C14.1155 5.90889 13.7223 5.38999 13.0293 4.99823Z" fill="#C42D74"/>
</svg>
