<svg width="20" height="20" viewBox="0 0 20 20" fill="none" xmlns="http://www.w3.org/2000/svg">
<g clip-path="url(#clip0_567_44)">
<path d="M10 20C15.5228 20 20 15.5228 20 10C20 4.47715 15.5228 0 10 0C4.47715 0 0 4.47715 0 10C0 15.5228 4.47715 20 10 20Z" fill="#1D0D4A"/>
<path fill-rule="evenodd" clip-rule="evenodd" d="M12.4459 10.6534C13.0011 11.2968 13.3362 12.1009 13.4021 12.9482C13.4655 13.7697 13.2572 14.5898 12.8057 15.2875C12.3415 15.9161 11.7527 16.4422 11.076 16.833C11.0366 16.8694 10.9813 16.8847 10.9281 16.8766C10.8749 16.8686 10.8276 16.8351 10.8021 16.7885C10.7894 16.7714 10.7805 16.7519 10.7759 16.7311C10.7713 16.7103 10.7712 16.6887 10.7755 16.6679C10.7798 16.647 10.7885 16.6273 10.801 16.6101C10.8135 16.5929 10.8295 16.5785 10.848 16.5679C11.4063 16.1487 11.8586 15.6044 12.1684 14.9787C12.4444 14.3844 12.5245 13.7209 12.3964 13.0808C12.3055 12.4652 11.9988 11.902 11.5311 11.4916C10.9995 11.0496 10.419 10.6643 9.80144 10.3438C9.08322 9.99035 8.42328 9.52911 7.84451 8.9761C7.55082 8.66072 7.3054 8.30363 7.11621 7.91643C6.94138 7.52524 6.83355 7.10744 6.79722 6.68051C6.72765 5.83552 6.95452 4.99269 7.43885 4.2968C7.87191 3.6344 8.48905 3.11294 9.21443 2.79651C9.23402 2.7785 9.25744 2.76515 9.28292 2.75748C9.3084 2.74981 9.33529 2.74801 9.36157 2.75221C9.38785 2.75642 9.41283 2.76652 9.43465 2.78176C9.45647 2.797 9.47455 2.81698 9.48754 2.84021C9.50455 2.87705 9.50927 2.91838 9.50101 2.95811C9.49275 2.99784 9.47194 3.03387 9.44166 3.06088C8.90315 3.5071 8.46698 4.06399 8.16277 4.69372C7.90887 5.25976 7.83122 5.88911 7.93992 6.49989C8.06233 7.09146 8.36421 7.63088 8.8044 8.04461C9.33965 8.49991 9.9191 8.90053 10.5341 9.24047C11.2392 9.61201 11.8838 10.0884 12.4459 10.6534ZM10.7371 2.93558C10.7479 2.98431 10.7763 3.02735 10.8168 3.05656C11.1824 3.40833 11.513 3.79214 11.8044 4.20435C12.1448 4.79061 12.3165 5.4596 12.3004 6.13734C12.2844 6.81509 12.0812 7.47519 11.7133 8.04466C11.6647 8.12659 11.6429 8.22169 11.6509 8.31664C11.659 8.41158 11.6966 8.50162 11.7585 8.57413C11.8358 8.67672 11.9485 8.74704 12.0746 8.77151C12.2007 8.79599 12.3315 8.77289 12.4416 8.70668C13.2039 8.08426 13.3296 6.84563 13.3801 6.34808C13.387 6.2809 13.3924 6.22723 13.3979 6.19042C13.3971 5.87725 13.3505 5.56481 13.2609 5.26402C13.167 4.97343 13.0454 4.69304 12.8968 4.42503C12.7562 4.16211 12.5713 3.92323 12.3506 3.71858C11.9629 3.32043 11.4983 3.00526 10.985 2.79219C10.9511 2.77045 10.9117 2.75889 10.8714 2.75889C10.8311 2.75889 10.7917 2.77045 10.7578 2.79219C10.7336 2.83584 10.7262 2.88686 10.7371 2.93558ZM9.51969 16.8104C9.56485 16.766 9.56485 16.6779 9.47381 16.5898C9.10311 16.2394 8.76736 15.8549 8.4724 15.442C8.1321 14.8558 7.96049 14.1869 7.97656 13.5093C7.99263 12.8317 8.19574 12.1718 8.56344 11.6024C8.62972 11.53 8.66648 11.4354 8.66648 11.3373C8.66648 11.2391 8.62972 11.1446 8.56344 11.0722C8.4861 10.9698 8.37362 10.8996 8.24764 10.8751C8.12166 10.8506 7.99108 10.8736 7.88103 10.9396C7.11889 11.5619 6.99306 12.8007 6.94253 13.2981C6.9357 13.3654 6.93024 13.4191 6.92478 13.4559C6.92558 13.7699 6.9717 14.0822 7.0617 14.383C7.1556 14.6736 7.27756 14.9543 7.42584 15.2213C7.56746 15.4854 7.75206 15.7242 7.97206 15.9277C8.35977 16.3259 8.82436 16.6411 9.33762 16.8541C9.38277 16.8985 9.47454 16.8548 9.51969 16.8104Z" fill="white"/>
</g>
<defs>
<clipPath id="clip0_567_44">
<rect width="20" height="20" fill="white"/>
</clipPath>
</defs>
</svg>
