<svg width="20" height="20" viewBox="0 0 20 20" fill="none" xmlns="http://www.w3.org/2000/svg">
<rect width="20" height="20" fill="black"/>
<path d="M3.33747 12.7408C3.2717 12.7408 3.21859 12.7302 3.17812 12.709C3.14271 12.693 3.125 12.6718 3.125 12.6452C3.125 12.5975 3.14776 12.5656 3.19329 12.5497C3.24388 12.5284 3.27676 12.5151 3.29194 12.5098C3.48923 12.4674 3.64099 12.4063 3.74723 12.3266C3.85346 12.2417 3.90658 12.1116 3.90658 11.9364V8.24072C3.90658 8.11329 3.89393 8.02036 3.86864 7.96196C3.84334 7.89824 3.79782 7.8531 3.73205 7.82656C3.66629 7.7947 3.57017 7.76815 3.4437 7.74691C3.27676 7.71505 3.19329 7.66195 3.19329 7.58761C3.19329 7.55575 3.21353 7.53451 3.254 7.52389C3.29447 7.50796 3.34759 7.5 3.41335 7.5C3.54994 7.5 3.6587 7.50266 3.73964 7.50797C3.82564 7.51327 3.90658 7.51858 3.98246 7.52389C4.05834 7.52389 4.15193 7.52389 4.26322 7.52389C4.38969 7.52389 4.49846 7.52389 4.58951 7.52389C4.68057 7.51858 4.77416 7.51327 4.87027 7.50797C4.96639 7.50266 5.08274 7.5 5.21933 7.5C5.28509 7.5 5.33821 7.50796 5.37868 7.52389C5.41915 7.53451 5.43939 7.55575 5.43939 7.58761C5.43939 7.62478 5.41915 7.65664 5.37868 7.68319C5.33821 7.70974 5.27498 7.73098 5.18898 7.74691C5.0018 7.78408 4.84245 7.82921 4.71092 7.88231C4.5794 7.9301 4.51363 8.03098 4.51363 8.18497V11.9364C4.51363 12.101 4.54904 12.2231 4.61987 12.3028C4.69069 12.3824 4.85004 12.4222 5.09792 12.4222H6.03885C6.17544 12.4222 6.29432 12.401 6.39549 12.3585C6.50173 12.3107 6.58014 12.2629 6.63072 12.2151C6.7319 12.1249 6.80525 12.0452 6.85078 11.9762C6.90137 11.9019 6.95954 11.793 7.02531 11.6496C7.03543 11.6178 7.05566 11.57 7.08601 11.5063C7.12143 11.4426 7.15684 11.4107 7.19225 11.4107C7.2226 11.4107 7.24536 11.4266 7.26054 11.4585C7.27572 11.4903 7.28331 11.5222 7.28331 11.5541C7.28331 11.5594 7.28078 11.5673 7.27572 11.578C7.27572 11.5833 7.27572 11.5886 7.27572 11.5939C7.24031 11.7319 7.20742 11.8567 7.17707 11.9682C7.15178 12.0797 7.12901 12.1859 7.10878 12.2868C7.0936 12.3877 7.08096 12.4939 7.07084 12.6054C7.06578 12.6426 7.05566 12.6744 7.04049 12.701C7.03037 12.7275 7.00507 12.7408 6.9646 12.7408C6.71167 12.7408 6.46884 12.7382 6.23614 12.7329C6.00344 12.7275 5.77832 12.7222 5.5608 12.7169C5.34833 12.7169 5.14345 12.7143 4.94616 12.709C4.74886 12.7036 4.5541 12.701 4.36187 12.701C4.2354 12.701 4.09122 12.7036 3.92934 12.709C3.77252 12.7143 3.63341 12.7196 3.512 12.7249C3.39564 12.7355 3.33747 12.7408 3.33747 12.7408Z" fill="#FEFEFE"/>
<path d="M9.12711 12.8125C8.84382 12.8125 8.58835 12.7435 8.3607 12.6054C8.13306 12.4674 7.95094 12.2789 7.81436 12.0399C7.68283 11.7957 7.61707 11.5196 7.61707 11.2116C7.61707 10.9886 7.65754 10.7709 7.73848 10.5585C7.82448 10.3461 7.94336 10.1523 8.09512 9.97704C8.24688 9.80182 8.42394 9.66376 8.62629 9.56287C8.82864 9.45668 9.04617 9.40358 9.27887 9.40358C9.57228 9.40358 9.83533 9.47792 10.068 9.62659C10.3058 9.77527 10.493 9.97173 10.6296 10.216C10.7712 10.4549 10.842 10.7178 10.842 11.0045C10.842 11.3125 10.7763 11.6045 10.6447 11.8806C10.5183 12.1567 10.3286 12.3824 10.0756 12.5576C9.82269 12.7275 9.50651 12.8125 9.12711 12.8125ZM9.28646 12.5736C9.45846 12.5736 9.61275 12.539 9.74934 12.47C9.88592 12.401 9.99216 12.2895 10.068 12.1355C10.1287 12.0134 10.1692 11.8647 10.1894 11.6895C10.2097 11.5142 10.2198 11.3496 10.2198 11.1957C10.2198 10.9408 10.1743 10.6965 10.0832 10.4629C9.99722 10.224 9.87328 10.0301 9.71139 9.88147C9.55457 9.72748 9.3674 9.65049 9.14987 9.65049C9.01329 9.65049 8.88935 9.67438 8.77805 9.72217C8.67182 9.76465 8.57317 9.84695 8.48211 9.96908C8.38094 10.1018 8.31518 10.2638 8.28482 10.4549C8.25447 10.6461 8.23929 10.8372 8.23929 11.0284C8.23929 11.2886 8.28482 11.5381 8.37588 11.7771C8.46694 12.0107 8.59088 12.2019 8.7477 12.3505C8.90452 12.4992 9.08411 12.5736 9.28646 12.5736Z" fill="#FEFEFE"/>
<path d="M12.8841 12.8125C12.6008 12.8125 12.3454 12.7435 12.1177 12.6054C11.8901 12.4674 11.708 12.2789 11.5714 12.0399C11.4399 11.7957 11.3741 11.5196 11.3741 11.2116C11.3741 10.9886 11.4146 10.7709 11.4955 10.5585C11.5815 10.3461 11.7004 10.1523 11.8521 9.97704C12.0039 9.80182 12.181 9.66376 12.3833 9.56287C12.5857 9.45668 12.8032 9.40358 13.0359 9.40358C13.3293 9.40358 13.5924 9.47792 13.8251 9.62659C14.0628 9.77527 14.25 9.97173 14.3866 10.216C14.5282 10.4549 14.5991 10.7178 14.5991 11.0045C14.5991 11.3125 14.5333 11.6045 14.4018 11.8806C14.2753 12.1567 14.0856 12.3824 13.8326 12.5576C13.5797 12.7275 13.2635 12.8125 12.8841 12.8125ZM13.0435 12.5736C13.2155 12.5736 13.3698 12.539 13.5064 12.47C13.6429 12.401 13.7492 12.2895 13.8251 12.1355C13.8858 12.0134 13.9262 11.8647 13.9465 11.6895C13.9667 11.5142 13.9768 11.3496 13.9768 11.1957C13.9768 10.9408 13.9313 10.6965 13.8402 10.4629C13.7542 10.224 13.6303 10.0301 13.4684 9.88147C13.3116 9.72748 13.1244 9.65049 12.9069 9.65049C12.7703 9.65049 12.6464 9.67438 12.5351 9.72217C12.4288 9.76465 12.3302 9.84695 12.2391 9.96908C12.138 10.1018 12.0722 10.2638 12.0418 10.4549C12.0115 10.6461 11.9963 10.8372 11.9963 11.0284C11.9963 11.2886 12.0418 11.5381 12.1329 11.7771C12.224 12.0107 12.3479 12.2019 12.5047 12.3505C12.6615 12.4992 12.8411 12.5736 13.0435 12.5736Z" fill="#FEFEFE"/>
<path d="M16.2997 12.8125C16.0518 12.8125 15.857 12.7329 15.7154 12.5736C15.5788 12.4143 15.5105 12.178 15.5105 11.8647V10.0169C15.5105 9.97439 15.4953 9.94518 15.465 9.92925C15.4346 9.90801 15.3689 9.8974 15.2677 9.8974H15.2222C15.1969 9.8974 15.1741 9.88147 15.1539 9.84961C15.1387 9.81244 15.1311 9.77527 15.1311 9.7381C15.1311 9.72748 15.1387 9.71155 15.1539 9.69031C15.1691 9.66907 15.1792 9.6558 15.1842 9.65049C15.2854 9.57615 15.3765 9.50181 15.4574 9.42747C15.5434 9.35314 15.6193 9.28145 15.685 9.21243C15.7559 9.13809 15.814 9.07171 15.8596 9.01331C15.8849 8.98676 15.9051 8.96552 15.9203 8.94959C15.9405 8.92835 15.9633 8.91773 15.9886 8.91773C16.0139 8.91773 16.0366 8.92304 16.0569 8.93366C16.0822 8.94428 16.0923 8.96817 16.0872 9.00534L16.0493 9.36376C16.0442 9.42216 16.0569 9.46199 16.0872 9.48323C16.1176 9.50447 16.1656 9.51509 16.2314 9.51509H17.0964C17.1167 9.51509 17.1344 9.53367 17.1496 9.57084C17.1647 9.6027 17.1723 9.64252 17.1723 9.69031C17.1723 9.7381 17.1647 9.78589 17.1496 9.83368C17.1344 9.87616 17.1167 9.8974 17.0964 9.8974H16.3452C16.2187 9.8974 16.1353 9.90801 16.0948 9.92925C16.0594 9.95049 16.0417 10.0142 16.0417 10.1204V11.6895C16.0417 11.9019 16.0847 12.0691 16.1707 12.1912C16.2567 12.3134 16.3806 12.3744 16.5425 12.3744C16.6892 12.3744 16.803 12.3638 16.884 12.3426C16.9649 12.316 17.0383 12.2789 17.104 12.2311C17.1141 12.2205 17.1243 12.2151 17.1344 12.2151C17.1546 12.2151 17.1673 12.2284 17.1723 12.255C17.1824 12.2762 17.1875 12.3001 17.1875 12.3266C17.1875 12.3532 17.1445 12.4063 17.0585 12.4859C16.9776 12.5656 16.8688 12.6399 16.7322 12.709C16.6007 12.778 16.4565 12.8125 16.2997 12.8125Z" fill="#FEFEFE"/>
</svg>
