<svg width="20" height="20" viewBox="0 0 20 20" fill="none" xmlns="http://www.w3.org/2000/svg">
<path fill-rule="evenodd" clip-rule="evenodd" d="M8.27498 0.114699C6.19446 0.509475 4.45732 1.41638 2.97672 2.88074C-0.962635 6.77685 -0.996291 13.0779 2.9012 17.0289C7.37025 21.5593 14.897 20.804 18.3646 15.4774C19.3822 13.9141 19.8872 12.3471 19.9866 10.444C20.2343 5.69904 17.0313 1.41959 12.3579 0.251707C11.2821 -0.0171941 9.31734 -0.0830904 8.27498 0.114699ZM12.1075 1.5235C13.5978 1.90614 15.1283 2.80451 16.2257 3.9408C17.0331 4.77669 17.4204 5.34348 17.9164 6.41467C18.5081 7.69268 18.6607 8.42656 18.6607 9.99263C18.6607 11.5587 18.5081 12.2926 17.9164 13.5706C17.4204 14.6418 17.0331 15.2086 16.2257 16.0445C15.4276 16.8708 14.6596 17.4129 13.5718 17.9178C12.301 18.5077 11.5663 18.6607 10.0039 18.6607C8.44146 18.6607 7.70682 18.5077 6.43597 17.9178C5.34823 17.4129 4.58023 16.8708 3.78208 16.0445C2.97472 15.2086 2.58736 14.6418 2.09143 13.5706C1.49973 12.2926 1.34707 11.5587 1.34707 9.99263C1.34707 8.42656 1.49973 7.69268 2.09143 6.41467C2.58736 5.34348 2.97472 4.77669 3.78208 3.9408C5.06575 2.61174 6.62258 1.76742 8.45127 1.40855C9.33527 1.23514 11.2142 1.29421 12.1075 1.5235ZM10.3692 7.46008C4.96719 13.9084 5.18495 13.6344 5.21631 13.9436C5.25477 14.3233 5.6857 14.656 6.02778 14.5701C6.19566 14.5278 7.14717 13.4656 8.95923 11.2973C10.4349 9.53156 11.6793 8.08695 11.7246 8.08695C11.7699 8.08695 11.8069 9.4791 11.8069 11.1807C11.8069 14.0504 11.8202 14.2864 11.9902 14.4404C12.2422 14.6688 12.7641 14.651 13.009 14.4058C13.203 14.2115 13.2093 14.0715 13.2093 9.99263C13.2093 5.91378 13.203 5.77376 13.009 5.57948C12.8856 5.45591 12.6751 5.37888 12.4607 5.37888C12.1307 5.37888 12.0226 5.4865 10.3692 7.46008Z" fill="#27201D"/>
<path fill-rule="evenodd" clip-rule="evenodd" d="M12.1076 1.5235C13.5979 1.90614 15.1284 2.80452 16.2258 3.9408C17.0332 4.77669 17.4205 5.34348 17.9165 6.41467C18.5082 7.69268 18.6608 8.42657 18.6608 9.99263C18.6608 11.5587 18.5082 12.2926 17.9165 13.5706C17.4205 14.6418 17.0332 15.2086 16.2258 16.0445C15.4277 16.8708 14.6597 17.4129 13.5719 17.9178C12.3011 18.5077 11.5664 18.6607 10.004 18.6607C8.44156 18.6607 7.70692 18.5077 6.43607 17.9178C5.34833 17.4129 4.58033 16.8708 3.78218 16.0445C2.97482 15.2086 2.58746 14.6418 2.09153 13.5706C1.49983 12.2926 1.34717 11.5587 1.34717 9.99263C1.34717 8.42657 1.49983 7.69268 2.09153 6.41467C2.58746 5.34348 2.97482 4.77669 3.78218 3.9408C5.06585 2.61174 6.62268 1.76743 8.45137 1.40856C9.33537 1.23514 11.2143 1.29422 12.1076 1.5235ZM5.21641 13.9436C5.18505 13.6344 4.96729 13.9084 10.3693 7.46009C12.0227 5.48651 12.1308 5.37889 12.4607 5.37889C12.6752 5.37889 12.8857 5.45592 13.0091 5.57949C13.2031 5.77376 13.2094 5.91378 13.2094 9.99263C13.2094 14.0715 13.2031 14.2115 13.0091 14.4058C12.7642 14.651 12.2423 14.6688 11.9903 14.4404C11.8203 14.2864 11.807 14.0504 11.807 11.1807C11.807 9.4791 11.77 8.08696 11.7247 8.08696C11.6794 8.08696 10.435 9.53156 8.95933 11.2973C7.14727 13.4656 6.19576 14.5278 6.02788 14.5701C5.6858 14.656 5.25487 14.3233 5.21641 13.9436Z" fill="white"/>
</svg>
