<svg width="20" height="20" fill="none" xmlns="http://www.w3.org/2000/svg"><circle cx="10" cy="10" r="10" fill="#fff"/><path fill-rule="evenodd" clip-rule="evenodd" d="M12 10.832c0 .21-.11.403-.289.507l-1.422.833a.57.57 0 01-.578 0l-1.422-.833a.587.587 0 01-.29-.507V9.168c0-.21.11-.403.29-.507l1.422-.833a.57.57 0 01.578 0l1.422.833a.587.587 0 01.289.507v1.664zm-.578 0L10 11.665l-1.423-.833V9.168L10 8.335l1.422.833v1.664z" fill="#fff"/><path fill-rule="evenodd" clip-rule="evenodd" d="M12 10.832c0 .21-.11.403-.289.507l-1.422.833a.57.57 0 01-.578 0l-1.422-.833a.587.587 0 01-.29-.507V9.168c0-.21.11-.403.29-.507l1.422-.833a.57.57 0 01.578 0l1.422.833a.587.587 0 01.289.507v1.664zm-.578 0L10 11.665l-1.423-.833V9.168L10 8.335l1.422.833v1.664z" fill="#fff"/><path fill-rule="evenodd" clip-rule="evenodd" d="M12 10.832c0 .21-.11.403-.289.507l-1.422.833a.57.57 0 01-.578 0l-1.422-.833a.587.587 0 01-.29-.507V9.168c0-.21.11-.403.29-.507l1.422-.833a.57.57 0 01.578 0l1.422.833a.587.587 0 01.289.507v1.664zm-.578 0L10 11.665l-1.423-.833V9.168L10 8.335l1.422.833v1.664z" fill="url(#paint0_linear)"/><path fill-rule="evenodd" clip-rule="evenodd" d="M14.423 13.264c.357-.21.577-.596.577-1.014v-4.5c0-.418-.22-.804-.577-1.013l-3.846-2.25a1.142 1.142 0 00-1.154 0l-3.846 2.25A1.173 1.173 0 005 7.75v4.5c0 .418.22.804.577 1.014l3.846 2.25c.357.209.797.209 1.154 0l3.846-2.25zm-4.308 1.439l3.846-2.25a.235.235 0 00.115-.203v-4.5a.235.235 0 00-.115-.203l-3.846-2.25a.228.228 0 00-.23 0l-3.846 2.25a.235.235 0 00-.115.203v4.5c0 .084.044.16.115.203l3.845 2.25c.072.042.16.042.231 0z" fill="#fff"/><path fill-rule="evenodd" clip-rule="evenodd" d="M14.423 13.264c.357-.21.577-.596.577-1.014v-4.5c0-.418-.22-.804-.577-1.013l-3.846-2.25a1.142 1.142 0 00-1.154 0l-3.846 2.25A1.173 1.173 0 005 7.75v4.5c0 .418.22.804.577 1.014l3.846 2.25c.357.209.797.209 1.154 0l3.846-2.25zm-4.308 1.439l3.846-2.25a.235.235 0 00.115-.203v-4.5a.235.235 0 00-.115-.203l-3.846-2.25a.228.228 0 00-.23 0l-3.846 2.25a.235.235 0 00-.115.203v4.5c0 .084.044.16.115.203l3.845 2.25c.072.042.16.042.231 0z" fill="#fff"/><path fill-rule="evenodd" clip-rule="evenodd" d="M14.423 13.264c.357-.21.577-.596.577-1.014v-4.5c0-.418-.22-.804-.577-1.013l-3.846-2.25a1.142 1.142 0 00-1.154 0l-3.846 2.25A1.173 1.173 0 005 7.75v4.5c0 .418.22.804.577 1.014l3.846 2.25c.357.209.797.209 1.154 0l3.846-2.25zm-4.308 1.439l3.846-2.25a.235.235 0 00.115-.203v-4.5a.235.235 0 00-.115-.203l-3.846-2.25a.228.228 0 00-.23 0l-3.846 2.25a.235.235 0 00-.115.203v4.5c0 .084.044.16.115.203l3.845 2.25c.072.042.16.042.231 0z" fill="url(#paint1_linear)"/><path fill-rule="evenodd" clip-rule="evenodd" d="M16.845 15.357A2.347 2.347 0 0018 13.33V6.67c0-.836-.44-1.609-1.155-2.027l-5.69-3.33a2.283 2.283 0 00-2.31 0l-5.69 3.33A2.346 2.346 0 002 6.67v6.66c0 .836.44 1.609 1.155 2.027l5.69 3.33a2.283 2.283 0 002.31 0l5.69-3.33zm-6.268 2.316l5.69-3.33c.358-.209.578-.595.578-1.013V6.67c0-.418-.22-.804-.577-1.013l-5.69-3.33a1.142 1.142 0 00-1.155 0l-5.69 3.33a1.173 1.173 0 00-.578 1.013v6.66c0 .418.22.804.577 1.013l5.69 3.33c.358.209.798.209 1.155 0z" fill="#fff"/><path fill-rule="evenodd" clip-rule="evenodd" d="M16.845 15.357A2.347 2.347 0 0018 13.33V6.67c0-.836-.44-1.609-1.155-2.027l-5.69-3.33a2.283 2.283 0 00-2.31 0l-5.69 3.33A2.346 2.346 0 002 6.67v6.66c0 .836.44 1.609 1.155 2.027l5.69 3.33a2.283 2.283 0 002.31 0l5.69-3.33zm-6.268 2.316l5.69-3.33c.358-.209.578-.595.578-1.013V6.67c0-.418-.22-.804-.577-1.013l-5.69-3.33a1.142 1.142 0 00-1.155 0l-5.69 3.33a1.173 1.173 0 00-.578 1.013v6.66c0 .418.22.804.577 1.013l5.69 3.33c.358.209.798.209 1.155 0z" fill="#fff"/><path fill-rule="evenodd" clip-rule="evenodd" d="M16.845 15.357A2.347 2.347 0 0018 13.33V6.67c0-.836-.44-1.609-1.155-2.027l-5.69-3.33a2.283 2.283 0 00-2.31 0l-5.69 3.33A2.346 2.346 0 002 6.67v6.66c0 .836.44 1.609 1.155 2.027l5.69 3.33a2.283 2.283 0 002.31 0l5.69-3.33zm-6.268 2.316l5.69-3.33c.358-.209.578-.595.578-1.013V6.67c0-.418-.22-.804-.577-1.013l-5.69-3.33a1.142 1.142 0 00-1.155 0l-5.69 3.33a1.173 1.173 0 00-.578 1.013v6.66c0 .418.22.804.577 1.013l5.69 3.33c.358.209.798.209 1.155 0z" fill="url(#paint2_linear)"/><defs><linearGradient id="paint0_linear" x1="10" y1="1" x2="10" y2="19" gradientUnits="userSpaceOnUse"><stop stop-color="#762DF5"/><stop offset="1" stop-color="#DA75F8"/></linearGradient><linearGradient id="paint1_linear" x1="10" y1="1" x2="10" y2="19" gradientUnits="userSpaceOnUse"><stop stop-color="#762DF5"/><stop offset="1" stop-color="#DA75F8"/></linearGradient><linearGradient id="paint2_linear" x1="10" y1="1" x2="10" y2="19" gradientUnits="userSpaceOnUse"><stop stop-color="#762DF5"/><stop offset="1" stop-color="#DA75F8"/></linearGradient></defs></svg>