<svg width="20" height="20" viewBox="0 0 20 20" fill="none" xmlns="http://www.w3.org/2000/svg">
<path fill-rule="evenodd" clip-rule="evenodd" d="M10.0196 0.483487C4.75289 0.483487 0.483396 4.75298 0.483396 10.0197C0.483396 15.2864 4.75289 19.5559 10.0196 19.5559C15.2863 19.5559 19.5558 15.2864 19.5558 10.0197C19.5558 4.75298 15.2863 0.483487 10.0196 0.483487ZM0.0410156 10.0197C0.0410156 4.50866 4.50857 0.0411072 10.0196 0.0411072C15.5306 0.0411072 19.9982 4.50866 19.9982 10.0197C19.9982 15.5307 15.5306 19.9982 10.0196 19.9982C4.50857 19.9982 0.0410156 15.5307 0.0410156 10.0197Z" fill="#F5C09A"/>
<path fill-rule="evenodd" clip-rule="evenodd" d="M10.0195 12.6182C10.1417 12.6182 10.2407 12.7172 10.2407 12.8393V19.7771C10.2407 19.8992 10.1417 19.9982 10.0195 19.9982C9.89737 19.9982 9.79834 19.8992 9.79834 19.7771V12.8393C9.79834 12.7172 9.89737 12.6182 10.0195 12.6182Z" fill="#F5C09A"/>
<path fill-rule="evenodd" clip-rule="evenodd" d="M10.0195 0.0411072C10.1417 0.0411072 10.2407 0.140137 10.2407 0.262297V2.31476C10.2407 2.43692 10.1417 2.53595 10.0195 2.53595C9.89737 2.53595 9.79834 2.43692 9.79834 2.31476V0.262297C9.79834 0.140137 9.89737 0.0411072 10.0195 0.0411072Z" fill="#F5C09A"/>
<path fill-rule="evenodd" clip-rule="evenodd" d="M9.88247 2.14135C9.96293 2.07764 10.0766 2.07764 10.1571 2.14135L16.8063 7.40693C16.8593 7.44891 16.8902 7.51282 16.8902 7.58044C16.8901 7.64806 16.8592 7.71195 16.8061 7.75387L13.8356 10.1014C13.7398 10.1772 13.6007 10.1609 13.5249 10.065C13.4492 9.96917 13.4655 9.83008 13.5613 9.75433L16.3125 7.58015L10.0198 2.5969L3.72703 7.58022L10.157 12.6659C10.2528 12.7416 10.2691 12.8807 10.1933 12.9766C10.1175 13.0724 9.97838 13.0886 9.88257 13.0128L3.23339 7.75382C3.18037 7.71188 3.14943 7.648 3.14941 7.5804C3.14939 7.5128 3.18029 7.4489 3.23328 7.40693L9.88247 2.14135Z" fill="#F5C09A"/>
<path fill-rule="evenodd" clip-rule="evenodd" d="M16.669 7.35914C16.7911 7.35914 16.8901 7.45817 16.8901 7.58033V12.4918C16.8901 12.5592 16.8594 12.623 16.8066 12.665L15.7836 13.4781C15.688 13.5541 15.5489 13.5382 15.4729 13.4426C15.3968 13.3469 15.4127 13.2078 15.5084 13.1318L16.4478 12.3851V7.58033C16.4478 7.45817 16.5468 7.35914 16.669 7.35914Z" fill="#F5C09A"/>
<path fill-rule="evenodd" clip-rule="evenodd" d="M3.3706 7.35914C3.49276 7.35914 3.59179 7.45817 3.59179 7.58033V12.3848L10.0199 17.4753L12.8859 15.2101C12.9817 15.1343 13.1208 15.1506 13.1966 15.2464C13.2723 15.3423 13.2561 15.4814 13.1602 15.5571L10.1569 17.9309C10.0765 17.9945 9.96286 17.9944 9.88247 17.9308L3.23328 12.6652C3.18031 12.6233 3.14941 12.5594 3.14941 12.4918V7.58033C3.14941 7.45817 3.24844 7.35914 3.3706 7.35914Z" fill="#F5C09A"/>
<path fill-rule="evenodd" clip-rule="evenodd" d="M4.64824 13.2248C4.75407 13.2858 4.79038 13.4211 4.72936 13.5269L3.7862 15.1624H7.02299C7.14515 15.1624 7.24418 15.2614 7.24418 15.3836C7.24418 15.5058 7.14515 15.6048 7.02299 15.6048H3.40332C3.32432 15.6048 3.25131 15.5627 3.21179 15.4943C3.17227 15.4258 3.17224 15.3416 3.21171 15.2731L4.34613 13.3059C4.40716 13.2001 4.54242 13.1638 4.64824 13.2248Z" fill="#F5C09A"/>
<path fill-rule="evenodd" clip-rule="evenodd" d="M10.0197 3.70012C10.0987 3.7001 10.1718 3.74227 10.2113 3.81073L16.8277 15.273C16.8672 15.3415 16.8672 15.4258 16.8277 15.4942C16.7882 15.5626 16.7152 15.6048 16.6361 15.6048H10.0197C9.89758 15.6048 9.79855 15.5058 9.79855 15.3836C9.79855 15.2614 9.89758 15.1624 10.0197 15.1624H16.2531L10.0198 4.36394L6.75562 10.0252C6.6946 10.1311 6.55934 10.1674 6.45352 10.1064C6.34769 10.0454 6.31136 9.9101 6.37238 9.80427L9.82812 3.81082C9.8676 3.74234 9.94064 3.70014 10.0197 3.70012Z" fill="#F5C09A"/>
</svg>
