<svg width="20" height="20" viewBox="0 0 20 20" fill="none" xmlns="http://www.w3.org/2000/svg">
<circle cx="10" cy="10" r="10" fill="white"/>
<path fill-rule="evenodd" clip-rule="evenodd" d="M8.70366 0.0898237C7.92785 0.20291 7.61452 0.274885 6.91353 0.501058C4.31668 1.3389 2.12075 3.28093 0.953902 5.77161C0.682174 6.35155 0.308594 7.44266 0.308594 7.6563V7.78032L0.553038 7.65556C0.687483 7.58698 0.807112 7.53087 0.818841 7.53087C0.830569 7.53087 0.788409 7.77396 0.725137 8.071C0.574026 8.78013 0.514828 10.3998 0.612853 11.142C1.04211 14.3932 3.04995 17.1593 6.01699 18.5872L6.63279 18.8835L6.33045 19.0172L6.02816 19.1509L6.37366 19.2966C6.56366 19.3767 6.9639 19.5133 7.26304 19.5999C10.3196 20.4857 13.6083 19.8453 16.1419 17.8709C17.2702 16.9917 18.4268 15.5525 19.0204 14.2892C19.2832 13.7298 19.5788 12.8928 19.5308 12.844C19.5164 12.8295 19.394 12.8798 19.2585 12.9559C19.1231 13.032 19.0123 13.0711 19.0123 13.0427C19.0123 13.0143 19.079 12.7277 19.1604 12.406C19.5919 10.7024 19.5254 8.74661 18.9788 7.06316C18.6415 6.02427 17.9985 4.85618 17.2795 3.97618C16.5745 3.11334 15.3779 2.12624 14.4601 1.6505C14.248 1.54056 14.083 1.42285 14.0934 1.3889C14.1038 1.35495 14.2011 1.28192 14.3098 1.22668L14.5074 1.12612L14.3679 1.03661C13.9324 0.757293 12.5822 0.309824 11.6975 0.151614C10.9281 0.0140212 9.43495 -0.0167812 8.70366 0.0898237ZM15.1217 4.42902C14.6232 5.94093 13.8888 8.2084 13.8888 8.23563C13.8888 8.25402 14.4317 8.27655 15.0952 8.28575L16.3016 8.30248L15.7412 8.73458L15.1807 9.16668L14.3675 9.19754L13.5543 9.2284L13.3358 9.92155L13.1172 10.6147L12.4228 10.616C12.0409 10.6167 11.7283 10.5939 11.7283 10.5653C11.7283 10.5366 11.8223 10.2172 11.9371 9.85538L12.1459 9.19754H10.5463H8.94668L8.02761 9.90921L7.10847 10.6208L6.25483 10.6037L5.40119 10.5864L6.28291 9.90742L7.1647 9.2284L5.2644 9.19754L3.36415 9.16668L3.76538 8.84933C4.7647 8.05902 6.81859 6.48945 6.83372 6.50458C6.84298 6.51384 6.72582 6.89316 6.57341 7.3476C6.42094 7.80205 6.29625 8.19587 6.29625 8.22272C6.29625 8.24964 6.77545 8.26976 7.36106 8.26748L8.42588 8.26328L11.1111 6.17229L13.7962 4.0813L14.5175 4.07772L15.2388 4.07408L15.1217 4.42902ZM11.7042 7.06723C10.8954 7.69161 10.2182 8.21803 10.1991 8.23705C10.1801 8.25606 10.6819 8.27161 11.3141 8.27161H12.4636L12.8339 7.11655C13.0375 6.48124 13.1975 5.95482 13.1895 5.94668C13.1814 5.93859 12.513 6.44285 11.7042 7.06723ZM5.27501 12.7624L5.44304 12.963H5.29279C5.21014 12.963 5.09224 12.9074 5.03082 12.8395C4.9352 12.7338 4.84069 12.7161 4.37526 12.7161C3.89464 12.7161 3.82378 12.7304 3.76538 12.8395C3.70038 12.9609 3.36285 13.0233 3.40532 12.9061C3.41662 12.8748 3.64267 12.6116 3.90767 12.3211L4.38946 11.7929L4.74822 12.1773C4.94551 12.3888 5.18261 12.652 5.27501 12.7624ZM6.40699 12.2685L6.42514 12.7161H6.97798C7.28205 12.7161 7.53082 12.7277 7.53082 12.7419C7.53082 12.9367 7.44199 12.963 6.78347 12.963H6.11106V12.3722C6.11106 11.7949 6.11421 11.782 6.24995 11.8012C6.37742 11.8194 6.39032 11.8578 6.40699 12.2685ZM9.83927 11.9083C9.98156 12.0264 9.96835 12.3869 9.81884 12.467C9.75316 12.5021 9.43545 12.5309 9.11285 12.5309H8.52631L8.50693 12.7315C8.49211 12.8853 8.4552 12.9367 8.34872 12.9519C8.21285 12.9711 8.20983 12.9584 8.20983 12.3734V11.7753L8.97508 11.8007C9.4881 11.8178 9.77292 11.8532 9.83927 11.9083ZM11.0493 12.3809C11.0493 12.9582 11.0462 12.9711 10.9104 12.9519C10.7816 12.9335 10.7703 12.8967 10.7533 12.4437C10.7321 11.8747 10.7542 11.7901 10.924 11.7901C11.0412 11.7901 11.0493 11.8282 11.0493 12.3809ZM12.8958 12.1296C13.233 12.3164 13.525 12.4691 13.5446 12.4691C13.5641 12.4691 13.5802 12.3145 13.5802 12.1253C13.5802 11.8041 13.5893 11.7828 13.7191 11.8012C13.8494 11.8198 13.8591 11.8543 13.8758 12.3611C13.8886 12.7489 13.8729 12.9012 13.8198 12.9012C13.7793 12.9012 13.447 12.7346 13.0814 12.5309C12.7159 12.3272 12.3869 12.1605 12.3504 12.1605C12.3097 12.1605 12.2839 12.3163 12.2839 12.5617C12.2839 12.9218 12.2712 12.963 12.1604 12.963C12.0456 12.963 12.037 12.9218 12.037 12.3766C12.037 11.6537 12.0364 11.6538 12.8958 12.1296ZM16.358 11.9136C16.358 12.0288 16.3168 12.037 15.7407 12.037C15.1646 12.037 15.1234 12.0453 15.1234 12.1605C15.1234 12.2757 15.1646 12.284 15.7407 12.284C16.2482 12.284 16.358 12.3004 16.358 12.3766C16.358 12.4527 16.2482 12.4691 15.7407 12.4691C15.1646 12.4691 15.1234 12.4774 15.1234 12.5926C15.1234 12.7079 15.1646 12.7161 15.7452 12.7161C16.3042 12.7161 16.365 12.727 16.3462 12.8241C16.3278 12.9198 16.2411 12.9321 15.5855 12.9321H14.8456L14.8274 12.4437C14.8174 12.1751 14.8235 11.9182 14.8409 11.8727C14.865 11.8101 15.0519 11.7901 15.6153 11.7901C16.3168 11.7901 16.358 11.797 16.358 11.9136ZM8.51847 12.1938V12.3505L9.05859 12.3327C9.56545 12.3159 9.59995 12.3062 9.61847 12.1759C9.63767 12.0407 9.62359 12.037 9.07835 12.037C8.52001 12.037 8.51847 12.0375 8.51847 12.1938ZM4.20822 12.3491L4.06464 12.5309H4.38217H4.6997L4.56785 12.3457C4.49532 12.2438 4.41705 12.162 4.3939 12.1639C4.37075 12.1658 4.28717 12.2491 4.20822 12.3491ZM7.34563 13.8889C7.34563 13.9228 7.24637 13.9506 7.12508 13.9506C6.94859 13.9506 6.90859 13.9721 6.9252 14.0582C6.93705 14.1196 7.02495 14.1827 7.13032 14.2052L7.31477 14.2446L7.11804 14.252C6.94427 14.2584 6.91847 14.2827 6.89643 14.4599C6.88279 14.5702 6.86711 14.473 6.86168 14.2438L6.8518 13.8272H7.09872C7.23452 13.8272 7.34563 13.8549 7.34563 13.8889ZM7.95125 14.2438L7.93958 14.6605L7.9173 14.3056C7.89804 13.9987 7.87822 13.9506 7.771 13.9506C7.70279 13.9506 7.66415 13.9228 7.68514 13.8889C7.70612 13.8549 7.77717 13.8272 7.8431 13.8272C7.951 13.8272 7.96174 13.8685 7.95125 14.2438ZM9.84563 13.8889C9.8673 13.9239 9.81538 13.9506 9.72582 13.9506C9.576 13.9506 9.56724 13.969 9.55619 14.3056L9.54452 14.6605L9.52224 14.3056C9.50322 14.0024 9.48242 13.9506 9.37958 13.9506C9.31341 13.9506 9.25921 13.9228 9.25921 13.8889C9.25921 13.8549 9.38254 13.8272 9.53335 13.8272C9.68415 13.8272 9.82464 13.8549 9.84563 13.8889ZM10.7407 13.8889C10.7407 13.9228 10.6414 13.9506 10.5201 13.9506C10.3437 13.9506 10.3037 13.9721 10.3203 14.0582C10.3322 14.1206 10.4185 14.1811 10.5254 14.2024L10.7098 14.239L10.5252 14.2645C10.4115 14.2803 10.3327 14.3317 10.32 14.3982C10.3036 14.4847 10.3434 14.5062 10.5201 14.5062C10.6414 14.5062 10.7407 14.534 10.7407 14.5679C10.7407 14.6019 10.6296 14.6296 10.4938 14.6296H10.2469V14.2284V13.8272H10.4938C10.6296 13.8272 10.7407 13.8549 10.7407 13.8889ZM11.6164 14.1989C11.7377 14.5557 11.7357 14.7506 11.613 14.5214C11.518 14.344 11.34 14.344 11.2082 14.5216L11.1051 14.6605L11.135 14.4753C11.1815 14.1866 11.3558 13.8162 11.4331 13.8419C11.4715 13.8547 11.554 14.0154 11.6164 14.1989ZM12.4028 14.1552C12.4512 14.3143 12.5088 14.4445 12.5309 14.4445C12.5529 14.4445 12.6119 14.3125 12.6619 14.1512C12.7895 13.7406 12.9264 13.7594 12.951 14.1909C12.9614 14.374 12.9406 14.5532 12.9047 14.5891C12.8588 14.6349 12.838 14.5543 12.8346 14.3179L12.8299 13.9815L12.7213 14.2901C12.6616 14.4599 12.5759 14.5988 12.5308 14.5988C12.4858 14.5988 12.4009 14.4599 12.3423 14.2901L12.2357 13.9815L12.2095 14.321L12.1833 14.6605L12.1719 14.2387C12.1583 13.7379 12.2641 13.6996 12.4028 14.1552ZM8.51847 13.9506C8.51847 13.9846 8.49069 14.0124 8.45674 14.0124C8.42279 14.0124 8.39501 13.9846 8.39501 13.9506C8.39501 13.9167 8.42279 13.8889 8.45674 13.8889C8.49069 13.8889 8.51847 13.9167 8.51847 13.9506ZM11.358 14.069C11.358 14.1002 11.3411 14.1696 11.3205 14.2233C11.2933 14.2943 11.3204 14.321 11.4197 14.321C11.519 14.321 11.5461 14.2943 11.5189 14.2233C11.4983 14.1696 11.4814 14.1002 11.4814 14.069C11.4814 14.0378 11.4537 14.0124 11.4197 14.0124C11.3858 14.0124 11.358 14.0378 11.358 14.069ZM10.1083 15.8796C10.0944 15.9221 9.96014 15.9654 9.80995 15.9759C9.55396 15.9938 9.54464 15.9891 9.66045 15.9007C9.81254 15.7845 10.1448 15.7689 10.1083 15.8796Z" fill="black"/>
<path d="M10.1083 15.8796C10.0944 15.9221 9.96014 15.9654 9.80995 15.9759C9.55396 15.9938 9.54464 15.9891 9.66045 15.9007C9.81254 15.7845 10.1448 15.7689 10.1083 15.8796Z" fill="black"/>
<path fill-rule="evenodd" clip-rule="evenodd" d="M10 20C15.5229 20 20 15.5228 20 10C20 4.47715 15.5229 0 10 0C4.47715 0 0 4.47715 0 10C0 15.5228 4.47715 20 10 20ZM10 19.4444C15.216 19.4444 19.4444 15.216 19.4444 10C19.4444 4.78398 15.216 0.555556 10 0.555556C4.78398 0.555556 0.555556 4.78398 0.555556 10C0.555556 15.216 4.78398 19.4444 10 19.4444Z" fill="url(#paint0_linear_3497_21438)"/>
<path fill-rule="evenodd" clip-rule="evenodd" d="M8.88867 15.9876L9.01213 15.8333H9.84546L9.69114 15.9876H8.88867Z" fill="#0075C9"/>
<path d="M10.9878 15.9876L11.1113 15.8333H10.2471L10.0928 15.9876H10.9878Z" fill="#E1251B"/>
<path d="M9.84573 15.8333L9.69141 15.9876H10.0926L10.247 15.8333H9.84573Z" fill="#FEFFFD"/>
<defs>
<linearGradient id="paint0_linear_3497_21438" x1="3.98148" y1="1.54321" x2="15.679" y2="18.5494" gradientUnits="userSpaceOnUse">
<stop stop-color="#3A3A3A"/>
<stop offset="0.474611" stop-color="#F8F8F8"/>
<stop offset="1" stop-color="#424242"/>
</linearGradient>
</defs>
</svg>
