<svg width="20" height="20" viewBox="0 0 20 20" fill="none" xmlns="http://www.w3.org/2000/svg">
<circle cx="10" cy="10" r="10" fill="white"/>
<path fill-rule="evenodd" clip-rule="evenodd" d="M10.2396 4.00533C10.2299 4.0083 10.1189 4.03983 9.99289 4.0754C9.86688 4.11098 9.75011 4.14399 9.7334 4.14875L9.70301 4.15742L9.67365 4.23228C9.6575 4.27346 9.58833 4.45518 9.51994 4.63611C8.90835 6.25409 8.49566 7.31315 7.16447 10.6808C6.26628 12.953 5.90637 13.8582 5.82963 14.038C5.699 14.3439 5.55439 14.6147 5.42274 14.7998C5.21535 15.0915 4.96972 15.2621 4.61249 15.3626C4.48199 15.3994 4.32911 15.4348 4.19492 15.4595C4.12384 15.4725 4.05247 15.4867 4.03632 15.4909L4.00694 15.4985L4.00208 15.5422C3.99759 15.5826 4.00107 15.9931 4.00595 15.998C4.00997 16.002 7.93076 15.9876 7.95743 15.9834L7.98387 15.9793L7.98556 15.7503C7.98649 15.6243 7.9858 15.5131 7.98402 15.5032L7.9808 15.4852L7.89128 15.4721C7.63278 15.4344 7.40408 15.3936 7.29069 15.3652C7.01025 15.2948 6.83501 15.1989 6.7474 15.0679C6.7146 15.0189 6.68675 14.9507 6.67573 14.8924C6.6657 14.8393 6.66586 14.6382 6.67599 14.5755C6.69197 14.4766 6.71937 14.3433 6.73931 14.2673C6.77649 14.1258 6.99436 13.4561 7.16459 12.96C7.45071 12.1263 7.60297 11.706 8.28902 9.85617C8.89475 8.22296 9.181 7.43615 9.4558 6.64907C9.52079 6.46293 9.52992 6.44068 9.54432 6.43323C9.55958 6.42534 9.56101 6.42581 9.573 6.44264C9.57994 6.45239 9.59165 6.47946 9.59903 6.50281C9.6064 6.52616 9.67732 6.73031 9.75661 6.95647C10.624 9.43048 11.256 11.2171 11.9914 13.2743C12.4236 14.4834 12.4374 14.5247 12.467 14.7018C12.4812 14.7867 12.4814 14.9261 12.4674 14.9779C12.4052 15.2087 12.187 15.3314 11.6583 15.4328C11.5985 15.4442 11.5048 15.4603 11.4501 15.4685C11.3292 15.4867 11.2986 15.4933 11.2928 15.5025C11.2855 15.514 11.2872 15.9602 11.2946 15.9815L11.3011 16H13.4943C15.0461 16 15.6961 15.9981 15.7171 15.9936L15.7468 15.9873V15.7594C15.7468 15.6341 15.7452 15.5235 15.7432 15.5136C15.7389 15.4921 15.7478 15.4945 15.5882 15.4714C15.3573 15.4379 15.0884 15.378 14.9684 15.3333C14.8867 15.3029 14.7915 15.2557 14.7192 15.2099C14.4678 15.0505 14.3076 14.8465 14.0962 14.4169C13.9651 14.1505 13.9484 14.108 13.4413 12.7462C13.0821 11.7817 12.5692 10.3805 12.1605 9.24746C11.6811 7.91815 11.0696 6.214 10.8388 5.56425C10.65 5.03261 10.3183 4.10646 10.2944 4.04427C10.2759 3.99614 10.274 3.9948 10.2396 4.00533Z" fill="black"/>
</svg>
