<svg width="20" height="20" viewBox="0 0 20 20" fill="none" xmlns="http://www.w3.org/2000/svg">
<path d="M10 20C15.5228 20 20 15.5228 20 10C20 4.47715 15.5228 0 10 0C4.47715 0 0 4.47715 0 10C0 15.5228 4.47715 20 10 20Z" fill="#3776E0"/>
<path d="M8.13394 2.79007C9.28871 2.12336 10.7114 2.12336 11.8662 2.79007L15.311 4.77893C16.4658 5.44565 17.1772 6.67784 17.1772 8.01123V8.92584H15.1414V8.01123C15.1414 7.40511 14.818 6.84501 14.2931 6.54197L10.8483 4.55311C10.3234 4.25006 9.67673 4.25006 9.15184 4.55311L5.70703 6.54197C5.18214 6.84502 4.85879 7.40508 4.85879 8.01118V8.92584H2.823V8.01118C2.823 6.67776 3.53437 5.44564 4.68914 4.77893L8.13394 2.79007Z" fill="white"/>
<path fill-rule="evenodd" clip-rule="evenodd" d="M4.85879 11.4076V11.9889C4.85879 12.595 5.18213 13.155 5.70703 13.4581L9.0074 15.3636V13.1018C7.58147 12.6752 6.54219 11.3532 6.54219 9.78846C6.54219 7.87871 8.09035 6.33055 10.0001 6.33055C11.9099 6.33055 13.458 7.87871 13.458 9.78846C13.458 11.3347 12.4431 12.6439 11.0432 13.0863V15.3345L14.2931 13.4581C14.818 13.1551 15.1414 12.595 15.1414 11.9889V11.4076H17.1772V11.9889C17.1772 13.3223 16.4658 14.5544 15.311 15.2211L11.8662 17.21C10.7114 17.8767 9.28871 17.8767 8.13394 17.21L4.68914 15.2211C3.53436 14.5544 2.823 13.3223 2.823 11.9889V11.4076H4.85879ZM11.4222 9.78846C11.4222 10.5739 10.7855 11.2106 10.0001 11.2106C9.21468 11.2106 8.57798 10.5739 8.57798 9.78846C8.57798 9.00305 9.21468 8.36634 10.0001 8.36634C10.7855 8.36634 11.4222 9.00305 11.4222 9.78846Z" fill="white"/>
</svg>
