<svg width="21" height="21" viewBox="0 0 21 21" fill="none" xmlns="http://www.w3.org/2000/svg">
<path d="M10.3281 20.0048C15.8522 20.0048 20.3304 15.5265 20.3304 10.0024C20.3304 4.47822 15.8522 0 10.3281 0C4.8039 0 0.325684 4.47822 0.325684 10.0024C0.325684 15.5265 4.8039 20.0048 10.3281 20.0048Z" fill="white"/>
<path d="M18.809 8.5115C18.8839 6.95488 17.7967 5.92224 16.5697 5.21327L15.7722 9.89857C16.3244 9.86775 16.5943 10.0774 16.6924 10.176C16.8151 10.2993 17.1219 10.6692 16.7538 11.2549C17.5206 11.1316 18.7184 10.3918 18.809 8.5115Z" fill="url(#paint0_linear)"/>
<path fill-rule="evenodd" clip-rule="evenodd" d="M8.50732 3.13356L7.56828 2.18992C8.9819 2.01745 12.7118 2.23863 16.3225 4.50336C16.3831 4.74688 16.3225 5.11216 16.3225 5.11216L16.6254 5.26436C16.8879 5.63981 17.3342 6.70722 17.0192 7.97353C16.7042 9.23984 16.1609 9.77963 15.9287 9.89125C15.4441 9.89125 14.6201 10.1713 14.3535 11.4133C14.087 12.6552 13.5761 12.9251 13.354 12.9048L8.02265 12.9657L4.50884 10.8958L3.9939 6.60373L4.99352 5.26436L6.78071 3.80324L8.05296 3.28576L8.50732 3.13356ZM14.8038 4.90655C14.5688 5.15144 14.3489 5.2689 14.2862 5.30077C12.9134 5.00877 12.4189 4.29859 12.4189 4.29859C13.7137 4.29058 14.8824 4.59858 15.7375 5.11957C15.7375 5.11957 15.2746 4.96957 14.8038 4.90655Z" fill="url(#paint1_linear)"/>
<path fill-rule="evenodd" clip-rule="evenodd" d="M14.3065 11.4143C13.3654 11.8762 12.2497 12.1435 11.0534 12.1435C7.6908 12.1435 4.96483 10.0311 4.96483 7.42533C4.96483 5.50044 6.45233 3.84474 8.58513 3.11092C4.52887 3.3446 1.26929 6.60319 1.26929 10.6239C1.26929 15.2643 5.40566 19.0985 10.5082 19.0985C14.3183 19.0985 17.4899 16.8895 19.1483 13.9339C16.8665 14.447 14.1653 13.4714 14.3065 11.4143Z" fill="url(#paint2_linear)"/>
<defs>
<linearGradient id="paint0_linear" x1="17.3054" y1="6.56229" x2="17.7865" y2="12.2921" gradientUnits="userSpaceOnUse">
<stop stop-color="#01E8F7"/>
<stop offset="1" stop-color="#00C2FF"/>
</linearGradient>
<linearGradient id="paint1_linear" x1="8.2434" y1="3.3047" x2="13.7396" y2="12.0278" gradientUnits="userSpaceOnUse">
<stop stop-color="#01E8F7"/>
<stop offset="1" stop-color="#00B3EC"/>
</linearGradient>
<linearGradient id="paint2_linear" x1="10.2852" y1="7.63288" x2="10.7759" y2="21.7067" gradientUnits="userSpaceOnUse">
<stop stop-color="#01E8F7"/>
<stop offset="1" stop-color="#00C2FF"/>
</linearGradient>
</defs>
</svg>
