<svg width="20" height="20" viewBox="0 0 20 20" fill="none" xmlns="http://www.w3.org/2000/svg">
<path d="M20 10C20 4.47715 15.5228 0 10 0C4.47715 0 0 4.47715 0 10C0 15.5228 4.47715 20 10 20C15.5228 20 20 15.5228 20 10Z" fill="url(#paint0_radial_2631_4320)"/>
<path d="M16.8 6.87849C16.7581 7.12329 16.7091 7.24199 16.6517 7.37936L16.6516 7.37966C16.5897 7.52858 16.5195 7.69759 16.4558 8.0329C16.4305 8.1671 16.4178 8.26555 16.4068 8.35234L16.4061 8.3577L16.4054 8.36276C16.3878 8.50177 16.3759 8.59539 16.3195 8.76199C16.2736 8.89805 16.197 9.12509 16.0124 9.36964C15.8634 9.56754 15.6139 9.89875 15.281 9.93849C15.2521 9.94039 15.1916 9.94344 15.1669 9.93086C14.2225 9.44853 13.4109 9.09215 13.1301 9.01216C12.8033 8.91962 12.8451 8.20726 12.8821 7.57882C12.8987 7.29793 12.9144 7.03233 12.9012 6.8049C12.8553 6.0115 12.7148 5.14308 12.0239 4.71972C11.6114 4.46705 11.0792 4.39294 10.5708 4.39189C10.665 4.34706 10.7701 4.28615 10.8846 4.21948L10.8881 4.21747C11.1875 4.0441 11.5591 3.82891 11.9283 3.79104C12.0491 3.77913 12.1678 3.76515 12.2848 3.75221C13.0292 3.66791 13.6723 3.59549 14.3506 3.82776C14.6581 3.93324 15.2889 4.2851 15.4517 4.61188C15.5663 4.84245 15.7597 5.0223 16.1457 5.38109C16.3467 5.56801 16.4791 5.67671 16.5759 5.75625L16.5804 5.75988C16.7165 5.87177 16.7433 5.89517 16.7837 5.97791C16.9088 6.23279 16.8633 6.50348 16.8 6.87849Z" fill="white"/>
<path d="M13.3445 10.1335C13.3989 10.1521 13.4193 10.2182 13.3881 10.2664C13.2898 10.4179 13.1777 10.6218 13.0443 10.8691C12.9793 10.9902 12.9177 11.1044 12.8661 11.1935C12.6831 11.5078 12.6682 11.7723 12.6566 11.9846C12.644 12.2067 12.6328 12.3086 12.5001 12.3971C12.3906 12.4706 12.2785 12.495 11.5007 12.6134C11.3651 12.6345 11.3048 12.6607 11.2519 12.6839C11.2434 12.6875 11.2349 12.6912 11.2261 12.6948C11.1722 12.717 11.1186 12.6706 11.1216 12.6124C11.1271 12.5039 11.1306 12.3704 11.1311 12.2051V12.1714C11.1351 12.019 11.1287 11.8953 11.1233 11.7956C11.113 11.597 11.1117 11.5134 11.1647 11.427C11.2296 11.3226 11.2804 11.2907 11.3636 11.2379C11.4799 11.1648 11.6394 11.0641 11.8755 10.7397C12.001 10.568 12.0288 10.4748 12.0462 10.3943C12.0536 10.3609 12.0564 10.3484 12.153 10.2752C12.2551 10.1977 12.5661 9.96202 12.9644 10.0289C13.0698 10.0468 13.2028 10.0852 13.3445 10.1335Z" fill="white"/>
<path d="M10.27 13.7254C10.253 13.7475 10.2333 13.7577 10.2046 13.7592C10.1233 13.7624 10.0662 13.7424 10.0284 13.6969C9.94817 13.5992 9.95901 13.4031 9.97771 13.2884L10.3066 13.2007C10.3323 13.3748 10.3445 13.6284 10.27 13.7254Z" fill="white"/>
<path d="M10.2966 12.5389C10.2911 12.5869 10.2851 12.6409 10.2854 12.6973C10.2857 12.7184 10.286 12.7395 10.2867 12.7602C10.2873 12.8139 10.2894 12.8993 10.282 12.9381C10.1792 12.9755 10.0915 12.9755 9.97622 12.9735C9.97452 12.9402 9.97662 12.8905 9.97792 12.8569C9.97858 12.831 9.98002 12.8053 9.98028 12.7807C9.98067 12.7535 9.98028 12.7266 9.98028 12.6998C9.97988 12.6366 9.97897 12.5329 9.99452 12.5023C10.0255 12.4979 10.0571 12.4911 10.0911 12.4832C10.1591 12.4686 10.2478 12.4499 10.3043 12.4584C10.3034 12.4804 10.3 12.513 10.2966 12.5389Z" fill="white"/>
<path d="M9.68803 13.6241C9.67208 13.7926 9.62005 14.0011 9.46191 14.0328C9.3908 14.0473 9.35642 14.026 9.33472 14.0056C9.22794 13.9066 9.21094 13.6077 9.22584 13.3938C9.29696 13.3951 9.39015 13.3792 9.5006 13.3578C9.56791 13.3444 9.63497 13.3295 9.68829 13.3172C9.69444 13.3964 9.69887 13.5094 9.68803 13.6241Z" fill="white"/>
<path d="M9.61355 13.0191L9.25684 13.1442C9.27488 13.0057 9.29905 12.8108 9.30756 12.6813C9.31369 12.5902 9.33854 12.5622 9.34559 12.5562C9.34794 12.5541 9.35278 12.5498 9.36598 12.5498C9.36808 12.5498 9.37003 12.5502 9.37239 12.5502L9.37983 12.5513L9.60532 12.539C9.61485 12.645 9.61485 12.8776 9.61355 13.0191Z" fill="white"/>
<path d="M9.03695 12.9081C9.01683 12.9618 8.99304 13.1138 8.97814 13.2209L8.53125 13.2073C8.55647 13.0689 8.59137 12.9281 8.62981 12.8158C8.66863 12.7043 8.71045 12.6207 8.74888 12.5972C8.79371 12.5702 8.89239 12.5642 8.95291 12.6158C9.05121 12.6996 9.0784 12.7956 9.03695 12.9081Z" fill="white"/>
<path d="M8.87011 14.2759C8.83547 14.3233 8.79704 14.3473 8.74934 14.3524C8.70071 14.3578 8.66294 14.3469 8.63274 14.3186C8.49236 14.1891 8.50387 13.7647 8.50895 13.5607C8.6943 13.5184 8.89429 13.4825 8.98919 13.477C9.00343 13.6479 9.00749 14.0888 8.87011 14.2759Z" fill="white"/>
<path d="M8.28683 13.1954C8.26501 13.2535 8.24396 13.3086 8.22802 13.3572C8.17599 13.3735 8.01718 13.3593 7.85498 13.3235L7.96646 12.6203C8.14972 12.5716 8.36225 12.556 8.41362 12.6105C8.48132 12.6824 8.34539 13.0421 8.28683 13.1954Z" fill="white"/>
<path d="M8.0845 14.3834C7.99785 14.4902 7.86792 14.5401 7.68663 14.5382C7.56116 14.536 7.51631 14.4884 7.49384 14.4528C7.3932 14.2933 7.49174 13.9175 7.59043 13.6774L8.19574 13.7137C8.20188 13.756 8.20698 13.8072 8.20933 13.8631C8.216 14.0339 8.19456 14.2466 8.0845 14.3834Z" fill="white"/>
<path d="M13.0867 9.27931C12.5418 9.12494 12.5887 8.32814 12.6341 7.55802C12.6501 7.28549 12.6653 7.02785 12.6529 6.81716C12.6111 6.0963 12.4899 5.31127 11.9101 4.95588C11.2865 4.57452 10.2663 4.66144 9.63689 4.74154C9.6363 4.74161 9.63577 4.74197 9.63519 4.74203C9.63494 4.74204 9.63471 4.74207 9.63447 4.74215C9.40391 4.81202 9.18825 4.85732 9.02103 4.84844C8.64969 4.82921 8.3607 4.67289 8.10621 4.53565C7.90767 4.42807 7.73447 4.33514 7.57135 4.33514C7.56273 4.33514 7.55371 4.33514 7.54481 4.33554C7.05688 4.36717 6.83259 4.48637 6.62881 4.66819C6.57757 4.71354 6.5151 4.8449 6.31054 5.4344C6.20729 5.73227 6.1882 5.89527 6.16899 6.05369C6.15174 6.19838 6.13421 6.34727 6.05723 6.56934C6.00364 6.72252 5.96417 6.85467 5.92587 6.98211C5.82496 7.32064 5.74523 7.58729 5.50564 7.90438C5.47753 7.94191 5.44263 7.99706 5.40237 8.05993C5.34801 8.14554 5.28082 8.25193 5.19208 8.37506C5.12946 8.46185 4.98568 8.78667 4.99353 8.88561C5.00529 9.04312 5.05652 9.14089 5.11508 9.255C5.17338 9.36754 5.23978 9.49497 5.25194 9.67091L5.2539 9.6994C5.27533 9.97847 5.23546 10.1185 4.70466 10.5927C4.36529 10.8963 4.12417 11.1889 3.96156 11.4036C3.94721 11.4225 3.96587 11.4507 3.98956 11.4488C3.99504 11.448 4.00054 11.4476 4.00564 11.4476C4.01583 11.4468 4.02602 11.4465 4.03609 11.4465C4.04628 11.4465 4.05648 11.4468 4.06654 11.4472C4.07674 11.4476 4.08654 11.4484 4.09661 11.45C4.22497 11.4646 4.3501 11.5189 4.44044 11.6125C4.45614 11.6287 4.48055 11.6331 4.50155 11.6247C4.58794 11.5888 4.68296 11.5947 4.77368 11.6032C4.88161 11.6132 4.99062 11.6447 5.06497 11.7116C5.09329 11.7371 5.13214 11.7507 5.16946 11.743C5.25395 11.7257 5.34199 11.7286 5.42382 11.7583C5.4845 11.7809 5.53655 11.8153 5.57919 11.8583C5.61938 11.8989 5.68741 11.907 5.73704 11.8787C5.75688 11.8674 5.77825 11.8577 5.80144 11.8498C5.91671 11.8107 6.04416 11.833 6.15605 11.8732C6.2112 11.8931 6.26897 11.9107 6.31865 11.9439C6.40067 11.9985 6.45401 12.0759 6.4898 12.1631C6.5173 12.23 6.60882 12.2528 6.66756 12.2106C6.73812 12.1598 6.79635 12.1533 6.85507 12.1793C6.87937 12.1903 6.89832 12.2042 6.91285 12.221C6.95493 12.2695 7.02252 12.3178 7.08501 12.303C7.25907 12.2619 7.46979 12.2892 7.62441 12.372C7.6815 12.402 7.73767 12.4477 7.7787 12.5169C7.77875 12.517 7.77877 12.517 7.7788 12.5171C7.77884 12.5174 7.7792 12.5173 7.77924 12.517L7.78394 12.4862C7.78606 12.4723 7.79595 12.4608 7.80939 12.4567L7.84688 12.4451C7.93524 12.417 8.38553 12.2872 8.56067 12.4716C8.56826 12.4792 8.58146 12.4799 8.58871 12.472C8.61259 12.4459 8.63195 12.4315 8.64433 12.4244C8.75844 12.3553 8.95398 12.3509 9.08417 12.4623C9.11035 12.4843 9.15282 12.4763 9.17255 12.4484C9.18471 12.4312 9.19851 12.416 9.21395 12.403C9.25971 12.3635 9.31761 12.3447 9.38165 12.3486L9.62908 12.3353C9.69131 12.3318 9.8846 12.3187 9.94557 12.3058C9.95018 12.3048 9.95492 12.304 9.95977 12.3032C9.98553 12.2993 10.0161 12.2927 10.0481 12.286C10.1681 12.2598 10.3042 12.2304 10.4159 12.2821C10.5234 12.3317 10.5098 12.4541 10.4969 12.5619C10.4918 12.6057 10.4863 12.6514 10.4867 12.6948C10.4874 12.7151 10.4878 12.7355 10.4882 12.7563C10.4898 12.8492 10.4918 12.9352 10.4734 13.0011C10.4734 13.0013 10.4733 13.0014 10.4733 13.0016C10.4733 13.0017 10.4733 13.0018 10.4734 13.0019L10.4847 13.053C10.4965 13.1032 10.5502 13.1315 10.5941 13.1044C10.6776 13.0528 10.7637 12.9876 10.7911 12.949C10.7937 12.9455 10.7956 12.9416 10.7971 12.9375C10.801 12.9271 10.8077 12.9056 10.8151 12.8623C10.8304 12.7704 10.8475 12.5836 10.8491 12.2043C10.8491 12.1843 10.8491 12.1699 10.8495 12.1633C10.8526 12.0225 10.8471 11.9095 10.8417 11.8098C10.8315 11.6042 10.8232 11.4424 10.9253 11.2777C11.0247 11.1175 11.1211 11.0568 11.2138 10.9981C11.3216 10.9305 11.4433 10.8538 11.6481 10.5728C11.7486 10.4344 11.7611 10.3786 11.7709 10.334C11.7931 10.2296 11.8276 10.1667 11.9828 10.0494C12.109 9.95402 12.4933 9.66281 13.0117 9.74999C13.1817 9.77886 13.4573 9.86954 13.7292 9.97668C13.7294 9.97674 13.7295 9.97677 13.7297 9.97677C13.7298 9.97677 13.7298 9.97678 13.7299 9.97681C13.7397 9.97968 13.7498 9.98305 13.759 9.98776C13.7633 9.98995 13.7676 9.99217 13.7721 9.99395C14.0072 10.0878 14.236 10.1923 14.3875 10.2773C14.4306 10.3016 14.4854 10.2871 14.5169 10.249C14.5637 10.1922 14.6144 10.1576 14.6688 10.125C14.6906 10.1116 14.7075 10.1016 14.7235 10.0879C14.7745 10.0445 14.774 9.95369 14.7145 9.92309C13.9907 9.55128 13.3123 9.34346 13.0867 9.27931ZM7.89394 9.44701C7.72545 10.1847 6.58267 10.9955 6.06325 10.9955H6.05304C6.04481 10.9951 6.03579 10.9943 6.02612 10.9928C6.01632 10.9912 6.00574 10.9888 5.99448 10.9857C5.989 10.9841 5.98311 10.9822 5.97723 10.9806C5.88299 10.9509 5.75242 10.8785 5.6536 10.7813C5.58563 10.7145 5.53205 10.6358 5.51518 10.551C5.51205 10.5361 5.50891 10.5213 5.50578 10.5064C5.47767 10.3809 5.44277 10.2242 5.55348 9.96774C5.56877 9.93336 5.58236 9.90121 5.59492 9.87194C5.59884 9.86214 5.60315 9.85233 5.60707 9.84305C5.61884 9.81534 5.62929 9.78985 5.6387 9.76685C5.65439 9.72777 5.66719 9.69456 5.67778 9.66633C5.68209 9.65535 5.68602 9.64477 5.68954 9.63509C5.72118 9.54634 5.7251 9.51315 5.72941 9.47877C5.73333 9.45184 5.73726 9.4189 5.74824 9.37198C5.78065 9.23355 5.7975 9.11632 5.81242 9.01188C5.83895 8.82418 5.86207 8.66198 5.96324 8.51309C5.9805 8.48774 5.99959 8.4646 6.02115 8.44434C6.02861 8.43728 6.03567 8.43061 6.04337 8.42395C6.05122 8.41728 6.05905 8.4114 6.06677 8.40553C6.09134 8.38828 6.11761 8.3731 6.1461 8.36017C6.15591 8.35585 6.16572 8.35154 6.17538 8.34802C6.19538 8.34056 6.21643 8.33429 6.23839 8.32879C6.33145 8.30618 6.44125 8.30266 6.56752 8.3186C6.70554 8.32958 6.83337 8.35572 6.9467 8.38735C7.04133 8.4135 7.12576 8.44408 7.19726 8.47257C7.20471 8.47532 7.21178 8.47807 7.21882 8.4812C7.23255 8.4867 7.24576 8.49218 7.2587 8.49807C7.27831 8.5063 7.29621 8.51414 7.31307 8.52146C7.33529 8.53166 7.35568 8.54067 7.37372 8.54878L7.39058 8.55662C7.47031 8.59296 7.53881 8.63282 7.59737 8.67466C7.62625 8.69583 7.6533 8.71727 7.67749 8.73909C7.68572 8.74615 7.69356 8.75359 7.70088 8.76144C7.70873 8.76889 7.71617 8.77634 7.72311 8.7838C7.94269 9.01501 7.93184 9.28244 7.89394 9.44701ZM8.42357 6.65102L8.40134 6.78474C8.35011 7.08615 8.23247 7.49932 7.79852 7.60572C7.38104 7.7078 7.28209 7.72964 6.98499 7.74297C6.97832 7.74374 6.97127 7.74374 6.96421 7.74374C6.74723 7.74374 6.32975 7.6069 6.25578 7.26679C6.20846 7.04785 6.30505 6.88917 6.46412 6.62606C6.49066 6.58267 6.51929 6.53614 6.54974 6.48411C6.76005 6.12989 6.84292 5.87344 6.90945 5.66784C6.97428 5.46694 7.02825 5.30082 7.16707 5.16317C7.1991 5.13116 7.23543 5.10095 7.27765 5.07207C7.30458 5.05365 7.33281 5.03731 7.36248 5.02202C7.40195 5.00241 7.44338 4.98528 7.48678 4.97157C7.58337 4.94071 7.68768 4.92502 7.79212 4.92502C7.99458 4.92502 8.19678 4.98332 8.34096 5.09899C8.40579 5.15102 8.49807 5.25494 8.55167 5.56144C8.57924 5.71933 8.53232 6.00951 8.42357 6.65102ZM11.5194 7.50874C11.37 7.76519 11.2883 7.90634 11.1593 8.01222C10.9032 8.22253 10.6046 8.27573 10.3587 8.27573C10.182 8.27573 10.0319 8.24841 9.94357 8.23233C9.68948 8.1858 9.21644 8.0998 9.05893 7.72649C9.02809 7.65264 9.02769 7.60572 9.02769 7.54625C9.02769 7.48755 9.02769 7.38875 9.00039 7.15373L8.99881 7.13804C8.98626 7.03165 8.97228 6.91127 9.00273 6.7569L9.00626 6.73848C9.09541 6.28505 9.11958 6.21577 9.13958 6.17668C9.18572 6.08754 9.29512 6.05238 9.38426 6.09814C9.47067 6.14309 9.50662 6.2478 9.46596 6.33576C9.45694 6.36151 9.43158 6.4581 9.3627 6.80879L9.35918 6.82723C9.33957 6.92617 9.3482 7.0012 9.35957 7.09622L9.36113 7.1123C9.39081 7.36757 9.39081 7.48324 9.39081 7.54585C9.39081 7.55687 9.39081 7.56902 9.39118 7.57623C9.39132 7.579 9.39267 7.58271 9.39354 7.58534C9.42001 7.64804 9.47609 7.6972 9.54579 7.73611C9.60573 7.76959 9.67025 7.71089 9.65738 7.64343C9.58232 7.25026 9.59003 6.799 9.73915 6.5177C9.78913 6.42203 9.88162 6.26561 9.96947 6.11953C9.96972 6.11912 9.97002 6.11875 9.97024 6.11833C9.97044 6.11791 9.97075 6.11754 9.97099 6.11713C9.97988 6.10244 9.98878 6.08787 9.99756 6.07317C10.005 6.06061 10.0125 6.0486 10.0194 6.03683C10.0581 5.97265 10.0944 5.9137 10.1234 5.86678C10.1273 5.86011 10.1313 5.85344 10.1352 5.84717C10.1379 5.84246 10.1407 5.83815 10.1434 5.83423C10.1497 5.82404 10.1552 5.81463 10.1603 5.80652C10.1626 5.8026 10.165 5.79908 10.1669 5.79554C10.1681 5.79397 10.1689 5.79241 10.1697 5.79123C10.1724 5.78652 10.1752 5.78221 10.1775 5.77868C10.1822 5.77123 10.1858 5.76574 10.1877 5.76222C10.1879 5.76193 10.188 5.76165 10.1882 5.76138C10.1886 5.76059 10.1894 5.75944 10.1899 5.75865C10.1902 5.75811 10.1903 5.75803 10.1906 5.75753C10.2122 5.72603 10.2337 5.69568 10.2548 5.66656C10.3023 5.60091 10.2467 5.51702 10.1728 5.55034C10.046 5.60755 9.96062 5.67271 9.94187 5.68758C9.86331 5.75019 9.74908 5.73725 9.68699 5.6587C9.62477 5.58014 9.63771 5.46563 9.71626 5.40302C9.80972 5.32957 10.305 4.96829 10.8981 5.13795C11.3254 5.25951 11.5494 5.58602 11.6339 5.70875C11.7019 5.80848 11.9103 6.11108 11.9037 6.53365C11.8987 6.85585 11.7642 7.08773 11.5194 7.50874Z" fill="white"/>
<path d="M7.66738 5.29886C7.63705 5.37231 7.60071 5.46342 7.56164 5.56237C7.47052 5.7915 7.36714 6.05108 7.31746 6.14519C7.23172 6.3078 7.16507 6.4104 7.11174 6.49313C7.05082 6.58803 7.0022 6.66318 6.96548 6.76788C6.90116 6.95113 6.88967 7.15596 6.93149 7.37868C6.8179 7.36614 6.63191 7.28784 6.61087 7.18928C6.59518 7.11582 6.6408 7.03558 6.77516 6.81455C6.80209 6.77037 6.83097 6.7224 6.86261 6.66906C7.09357 6.28008 7.18703 5.99069 7.25578 5.77908C7.32988 5.5489 7.36492 5.4523 7.48295 5.37166C7.53575 5.33493 7.60006 5.31154 7.66738 5.29886Z" fill="white"/>
<path d="M7.44175 13.457C7.31587 13.7141 7.15915 13.9514 7.06152 14.0691C6.98061 13.8505 6.84009 13.3495 6.87722 12.9466C6.87827 12.9349 6.87957 12.9234 6.88127 12.9122C6.89617 12.7878 6.92923 12.6735 6.98806 12.582C7.02688 12.5219 7.13432 12.4852 7.2564 12.4852C7.34645 12.4852 7.44448 12.5049 7.52879 12.5501H7.52945C7.57467 12.5743 7.63624 12.6232 7.64264 12.7654C7.65192 12.9574 7.56043 13.2156 7.44175 13.457Z" fill="white"/>
<path d="M14.339 10.5752C14.3488 10.5831 14.3549 10.5949 14.3494 10.6062C14.3118 10.6817 14.2666 10.7347 14.2134 10.7971C14.1492 10.8736 14.0758 10.9604 14.0073 11.0957C13.91 11.2874 13.8789 11.4623 13.8626 11.9101C13.8432 12.4362 13.8635 12.7318 13.8789 12.9473C13.8934 13.1554 13.9024 13.2809 13.8653 13.4839C13.7905 13.8932 13.6153 14.1644 13.3935 14.5075C13.1161 14.9366 12.829 15.38 12.3536 15.5215C12.3094 15.5351 12.308 15.5351 12.184 15.5355C12.0761 15.5355 11.8967 15.5358 11.557 15.5484C10.936 15.5709 10.6245 15.582 10.358 15.6333C10.0784 15.6875 9.93252 15.7469 9.7911 15.8041C9.66353 15.8556 9.54289 15.9048 9.31166 15.9522C9.17389 15.9801 8.96789 16.0105 8.266 16.0114C7.53652 16.0128 7.09616 16.0132 6.51464 15.9469C5.71679 15.8558 5.3163 15.8102 5.05031 15.6682C4.42291 15.3335 4.15797 14.7316 3.7197 13.7346C3.71895 13.7328 3.71819 13.731 3.71744 13.7293C3.71203 13.7169 3.72714 13.7049 3.73879 13.7118C3.75958 13.7248 3.78127 13.7354 3.80415 13.743C3.82322 13.7498 3.84322 13.755 3.86336 13.7584C3.90348 13.7652 3.94531 13.7656 3.98778 13.7584C3.99524 13.757 4.00204 13.7554 4.00857 13.7525C4.00982 13.7521 4.01106 13.7514 4.0123 13.7509C4.01971 13.7472 4.02897 13.7503 4.0321 13.758C4.05995 13.8348 4.10425 13.9031 4.17863 13.9426C4.25313 13.9815 4.33782 13.9845 4.42069 13.9838C4.50604 13.9825 4.59205 13.9777 4.67714 13.9675C4.72223 13.9627 4.76834 13.9848 4.78562 14.0267C4.86347 14.2155 4.96001 14.3522 5.10495 14.3724C5.11279 14.3735 5.12299 14.3747 5.13593 14.3747C5.16419 14.3747 5.20569 14.3676 5.26237 14.3342C5.33229 14.2929 5.43761 14.3189 5.49074 14.3803C5.52199 14.4165 5.55627 14.4444 5.58648 14.4686C5.73574 14.6219 6.0986 14.6954 6.40328 14.6954C6.56954 14.6954 6.71855 14.6736 6.80625 14.6308C6.93173 14.5699 6.93173 14.4765 6.92558 14.4386C6.91491 14.3709 6.90528 14.3037 6.89702 14.237C6.89603 14.2291 6.90814 14.226 6.91133 14.2333C6.92963 14.2731 6.95185 14.3227 7.01133 14.3322C7.01773 14.3329 7.02493 14.3344 7.03316 14.3344C7.11812 14.3344 7.25019 14.362 7.27298 14.4438C7.28457 14.4854 7.30104 14.5245 7.32333 14.5599C7.3743 14.6405 7.47808 14.7367 7.68382 14.7401H7.69977C7.93608 14.7401 8.11842 14.6629 8.24142 14.5102C8.2494 14.5003 8.25702 14.4902 8.26431 14.4799C8.30853 14.4177 8.4398 14.415 8.49604 14.4667C8.55931 14.5252 8.63891 14.5554 8.72766 14.5554C8.74191 14.5554 8.75629 14.5547 8.77118 14.5531C8.87693 14.5418 8.96842 14.4857 9.03678 14.3902C9.0815 14.3278 9.11414 14.251 9.13799 14.168C9.14501 14.1435 9.17856 14.1363 9.19729 14.1535C9.24252 14.1952 9.31493 14.2395 9.41936 14.2395C9.44484 14.2395 9.47244 14.2367 9.50172 14.2306C9.7069 14.1894 9.8091 14.0195 9.8575 13.8278C9.85912 13.8214 9.86842 13.8196 9.87265 13.8246C9.92468 13.8879 10.0206 13.961 10.1875 13.961C10.196 13.961 10.2049 13.961 10.2137 13.9605C10.302 13.9565 10.3765 13.9177 10.4303 13.8483C10.4934 13.766 10.5196 13.6454 10.5267 13.5229C10.5293 13.4777 10.5583 13.4381 10.5997 13.42C10.7733 13.3444 10.9782 13.1907 11.0392 13.0852C11.0397 13.0845 11.0401 13.0837 11.0405 13.083C11.0593 13.0499 11.0888 13.023 11.1261 13.0157C11.255 12.9905 11.3127 12.9655 11.3653 12.9426C11.4095 12.9232 11.445 12.9079 11.5442 12.8925C12.3331 12.7722 12.4871 12.7456 12.6578 12.6318C12.9132 12.4615 12.9261 12.2271 12.9387 12.0003C12.9495 11.8086 12.9618 11.5909 13.1107 11.3355C13.1648 11.2423 13.2273 11.126 13.2937 11.003C13.4072 10.7924 13.5649 10.4994 13.6804 10.3386C13.7066 10.3021 13.7548 10.2907 13.7962 10.3083C14.0635 10.4223 14.2896 10.5355 14.339 10.5752Z" fill="white"/>
<path d="M6.67736 12.9218C6.64612 13.1946 6.62703 13.559 6.67121 14.0337C6.68376 14.1676 6.70114 14.3068 6.72284 14.4475C6.68546 14.4679 6.57384 14.4966 6.37529 14.4933C6.08996 14.4876 5.8122 14.4159 5.7288 14.3257L5.71586 14.314C5.64646 14.2582 5.60098 14.2215 5.59444 14.1219C5.59235 14.0883 5.60672 14.055 5.63758 14.0079C5.65457 13.9814 5.67705 13.9509 5.70488 13.9131C5.75286 13.8487 5.81233 13.7684 5.87324 13.6652C6.05178 13.3634 6.1195 13.2702 6.2055 13.1526C6.2123 13.1431 6.21948 13.1335 6.22694 13.1237C6.27765 13.0543 6.33712 12.9713 6.42653 12.835C6.49318 12.7337 6.54861 12.6543 6.59423 12.5921C6.67044 12.4885 6.72035 12.4323 6.75238 12.4017C6.74767 12.4486 6.73709 12.5146 6.7269 12.5755C6.71173 12.6691 6.69265 12.7837 6.67736 12.9218Z" fill="white"/>
<path d="M6.54644 8.68141C6.54475 8.68376 6.54266 8.68612 6.54096 8.68859C6.50384 8.73997 6.46135 8.79813 6.41077 8.91131C6.2747 9.21366 6.27209 9.38474 6.27 9.52238C6.26868 9.59454 6.26791 9.65191 6.24817 9.71896C6.23458 9.76315 6.21248 9.81386 6.187 9.87228C6.10674 10.0559 6.00204 10.2967 6.04897 10.6207C5.984 10.5895 5.88467 10.518 5.87082 10.48C5.86742 10.4623 5.86362 10.4449 5.85957 10.4275C5.83709 10.3265 5.82219 10.2606 5.88651 10.1127C6.0555 9.72289 6.07629 9.63047 6.08949 9.52434C6.09224 9.50121 6.09498 9.48317 6.10177 9.45389C6.13746 9.30017 6.15615 9.16855 6.17145 9.06281C6.19418 8.90231 6.20949 8.79617 6.2636 8.71631C6.28332 8.68677 6.33915 8.67148 6.41901 8.67148C6.45064 8.67148 6.48632 8.67382 6.52515 8.67931L6.53429 8.67997C6.53821 8.68036 6.5424 8.68076 6.54644 8.68141Z" fill="white"/>
<path d="M6.32375 12.5259C6.31461 12.4325 6.29827 12.3389 6.26429 12.2508C6.26193 12.2463 6.25174 12.2239 6.24965 12.2196C6.24351 12.2083 6.23645 12.1977 6.2299 12.1866C6.22952 12.1862 6.22925 12.1862 6.22925 12.186C6.22886 12.1853 6.2286 12.1853 6.2286 12.1849C6.22482 12.1809 6.22141 12.1768 6.21775 12.173C6.21226 12.1675 6.20624 12.1622 6.20037 12.1573C6.19932 12.156 6.19827 12.155 6.19736 12.1546C6.19461 12.1522 6.19057 12.1491 6.18612 12.1465C6.17894 12.1427 6.17214 12.1386 6.16507 12.135C6.16298 12.1337 6.15789 12.1316 6.15318 12.1299C6.15318 12.1299 6.15279 12.1299 6.15279 12.1295C6.15174 12.1291 6.15069 12.1288 6.14978 12.1284C6.14873 12.1278 6.14808 12.1274 6.14743 12.1271C6.14638 12.1267 6.14573 12.1265 6.14507 12.1265C6.14442 12.1265 6.14442 12.1261 6.14442 12.1261C6.14234 12.125 6.14103 12.1248 6.13999 12.1244C6.08561 12.1044 6.03045 12.0826 5.97268 12.0741C5.97229 12.0741 5.97137 12.0737 5.97058 12.0737H5.96928C5.96287 12.0737 5.94954 12.0724 5.94888 12.0724C5.94079 12.072 5.93294 12.072 5.9251 12.0724C5.92131 12.0724 5.91765 12.0724 5.91424 12.0728H5.91124C5.90993 12.0728 5.90823 12.0732 5.90654 12.0732C5.90589 12.0738 5.90484 12.0738 5.90445 12.0738C5.90405 12.0738 5.9038 12.0738 5.9038 12.0738C5.89086 12.0776 5.87725 12.081 5.86431 12.085C5.85883 12.0878 5.85282 12.0905 5.84733 12.0939C5.84263 12.0967 5.83778 12.1001 5.83307 12.1024C5.83268 12.1028 5.83204 12.1035 5.83137 12.1035L5.83034 12.1045C5.82419 12.1107 5.81778 12.1164 5.81165 12.1226C5.80955 12.1247 5.8038 12.1317 5.79975 12.1368C5.79871 12.1375 5.79805 12.1381 5.79805 12.1388C5.79766 12.1392 5.79766 12.1392 5.7974 12.1394C5.79701 12.1398 5.79701 12.1401 5.79635 12.1405C5.79596 12.1409 5.79596 12.1411 5.7957 12.1411C5.794 12.1441 5.7923 12.1466 5.79165 12.1479C5.76982 12.1819 5.74773 12.2156 5.72498 12.2492C5.67257 12.3295 5.61884 12.4093 5.56448 12.4887C5.5148 12.5604 5.46514 12.6322 5.41586 12.704C5.38829 12.7441 5.36109 12.7838 5.3339 12.8239C5.3292 12.8307 5.32476 12.8375 5.32031 12.8443C5.3526 12.8505 5.38488 12.8569 5.41756 12.863C5.49063 12.8764 5.56343 12.8892 5.63754 12.8994C5.7902 12.9201 5.94536 12.9297 6.09999 12.9242C6.10744 12.9238 6.11488 12.9242 6.12181 12.9255C6.15894 12.8724 6.20272 12.8092 6.25853 12.7245C6.28951 12.6772 6.31905 12.6334 6.3469 12.5929C6.33434 12.5735 6.3265 12.5504 6.32375 12.5259Z" fill="white"/>
<path d="M5.77998 13.1568C5.76677 13.2744 5.63515 13.5791 5.42968 13.8692C5.25767 14.1117 5.15323 14.1705 5.13244 14.1725C5.04945 14.1611 4.96749 13.9556 4.90252 13.752C4.87639 13.6694 4.85286 13.587 4.83312 13.518C4.78855 13.3629 4.78044 13.1551 4.78829 13.0245C4.96173 13.1207 5.26641 13.1466 5.69422 13.1483H5.69553C5.72378 13.1513 5.75173 13.1545 5.77998 13.1568Z" fill="white"/>
<path d="M5.47563 12.1882V12.1889C5.47353 12.1916 5.47183 12.1946 5.46987 12.1974C5.39641 12.3055 5.32231 12.4131 5.2482 12.5208C5.20976 12.5762 5.17173 12.6316 5.13395 12.6874C5.11318 12.7177 5.08533 12.7511 5.06115 12.787C5.00024 12.7728 4.93946 12.7588 4.8792 12.7418C4.82992 12.7275 4.7813 12.7123 4.7336 12.6932C4.72405 12.6898 4.7149 12.686 4.70602 12.6817C4.69817 12.6657 4.68693 12.6513 4.67334 12.6405C4.67373 12.6401 4.67373 12.6392 4.67399 12.6388C4.69138 12.6034 4.70903 12.5677 4.7264 12.5324C4.75934 12.4674 4.79241 12.4029 4.82914 12.3403C4.8945 12.2273 4.97331 12.1124 5.0839 12.0392C5.08938 12.0352 5.09539 12.0314 5.10127 12.0277C5.14414 12.0008 5.18703 11.9818 5.23969 11.9753C5.24584 11.9747 5.28284 11.9749 5.30021 11.9764C5.30322 11.9764 5.30571 11.9768 5.30741 11.9768H5.30779C5.30911 11.9772 5.31158 11.9778 5.31524 11.9791C5.32818 11.9832 5.34112 11.9859 5.35406 11.9903C5.35851 11.9924 5.36256 11.9944 5.367 11.9968C5.37825 12.0035 5.38975 12.0097 5.40033 12.0182C5.38334 12.0052 5.42386 12.0471 5.42386 12.0441C5.45654 12.0893 5.46647 12.1271 5.47563 12.1882Z" fill="white"/>
<path d="M4.89388 11.8809C4.75781 11.9928 4.65887 12.1418 4.57626 12.2968C4.52999 12.3828 4.48817 12.4705 4.44464 12.5579C4.44019 12.5668 4.43574 12.5753 4.43066 12.5841C4.38949 12.5752 4.3483 12.5633 4.30818 12.5505C4.26531 12.5369 4.22283 12.5212 4.18204 12.5023C4.16335 12.4934 4.14467 12.4842 4.12598 12.4744C4.16675 12.3972 4.21538 12.323 4.26165 12.251C4.327 12.1493 4.39772 12.0494 4.47457 11.9555C4.50346 11.9198 4.53404 11.8807 4.57456 11.8572C4.616 11.8328 4.66606 11.8385 4.71364 11.8413C4.76396 11.8444 4.81807 11.8457 4.86565 11.8648C4.87546 11.869 4.88604 11.8755 4.89388 11.8809Z" fill="white"/>
<path d="M4.67788 13.7067C4.67108 13.7124 4.66532 13.7186 4.66023 13.7257C4.65552 13.7271 4.65068 13.7281 4.64767 13.7288C4.61501 13.7322 4.58167 13.7347 4.54874 13.7367C4.48547 13.7408 4.42116 13.7435 4.35724 13.7412C4.32156 13.7398 4.28928 13.7344 4.27464 13.7117C4.25112 13.6759 4.24405 13.6137 4.23555 13.5664C4.19373 13.3341 4.18824 13.0921 4.2179 12.8571C4.33933 12.9006 4.46416 12.9343 4.59226 12.9554C4.56468 13.1672 4.61161 13.4783 4.63918 13.5736C4.65199 13.6179 4.66493 13.6627 4.67788 13.7067Z" fill="white"/>
<path d="M4.28694 11.8039C4.1795 11.9358 4.08159 12.0763 3.99376 12.2218C3.95834 12.281 3.91821 12.3422 3.88867 12.4054C3.84619 12.3936 3.80776 12.3766 3.76698 12.3513C3.73574 12.332 3.70542 12.3105 3.67588 12.2881C3.66842 12.2819 3.64803 12.266 3.63536 12.2558C3.63236 12.2534 3.62961 12.2511 3.62646 12.2494C3.63627 12.2215 3.65432 12.1906 3.66425 12.1698C3.68672 12.1205 3.71183 12.0721 3.7381 12.025C3.78803 11.9366 3.84384 11.8502 3.9071 11.7706C3.93063 11.7413 3.95298 11.7035 3.98944 11.6927C4.02278 11.6831 4.0667 11.6876 4.09349 11.6923C4.17309 11.7077 4.23531 11.7438 4.28694 11.8039Z" fill="white"/>
<path d="M3.45853 12.3789C3.46028 12.372 3.4691 12.3711 3.47324 12.3769C3.50134 12.416 3.53994 12.4502 3.58129 12.4824C3.59982 12.4965 3.61824 12.5106 3.63696 12.5238C3.63988 12.5259 3.64125 12.5295 3.64042 12.533C3.59714 12.7125 3.56725 12.9028 3.56626 13.0906C3.5662 13.101 3.55054 13.1032 3.54812 13.0932C3.49453 12.8689 3.4249 12.5105 3.45853 12.3789Z" fill="white"/>
<path d="M3.98544 12.7772C3.96362 12.9377 3.95315 13.0986 3.96021 13.2604C3.96362 13.3492 3.97315 13.4373 3.98504 13.525C3.98504 13.5256 3.98504 13.5263 3.98544 13.5267V13.5271C3.96635 13.5226 3.94636 13.522 3.92597 13.525C3.93002 13.5237 3.91956 13.5243 3.91513 13.5243H3.91381C3.91081 13.5239 3.90636 13.5237 3.90492 13.5233C3.88245 13.5178 3.88049 13.5155 3.8627 13.5042C3.83957 13.4893 3.81513 13.462 3.79879 13.4341C3.75566 13.3594 3.74612 13.2685 3.74272 13.1839C3.73631 13.0176 3.75055 12.8516 3.78153 12.6887C3.80806 12.6996 3.83121 12.7095 3.86963 12.7261C3.90767 12.7427 3.94714 12.759 3.98557 12.7768V12.7772H3.98544Z" fill="white"/>
<mask id="mask0_2631_4320" style="mask-type:alpha" maskUnits="userSpaceOnUse" x="0" y="0" width="20" height="20">
<path d="M20 10C20 4.47715 15.5228 0 10 0C4.47715 0 0 4.47715 0 10C0 15.5228 4.47715 20 10 20C15.5228 20 20 15.5228 20 10Z" fill="url(#paint1_radial_2631_4320)"/>
</mask>
<g mask="url(#mask0_2631_4320)">
<g opacity="0.8">
<g opacity="0.8">
<path d="M8.22947 21.1759C7.49706 21.1759 6.80242 21.1297 6.21952 21.0842L6.05883 21.0717L5.89835 21.0494C5.82818 21.0396 5.73273 21.0292 5.64065 21.0192C5.07989 20.9582 4.03705 20.8446 2.8858 20.3039L2.70699 20.2197L2.54026 20.1263C0.327603 18.8861 -0.500466 17.0196 -0.946351 16.0162C-0.974736 15.9524 -1.00915 15.8748 -1.04156 15.8034C-1.26663 15.3427 -1.40899 14.9275 -1.52969 14.5473L-1.5565 14.4623L-1.57886 14.3799C-1.90003 13.2385 -1.98116 12.2528 -1.83409 11.2781C-1.68658 10.2994 -1.32407 9.40901 -0.694244 8.47701L-0.36771 7.94374C-0.301378 7.83603 -0.254544 7.71747 -0.229362 7.59351C0.0196182 6.35956 0.584628 5.48546 0.862215 5.06796C0.938624 4.56264 1.06462 4.06608 1.23837 3.58547L1.26429 3.51261L1.29201 3.44154C1.29648 3.42902 1.30229 3.41137 1.31302 3.37918C1.43773 3.00348 1.73007 2.12445 2.4788 1.20139L2.75996 0.860777L3.04649 0.601965C3.78246 -0.0667892 4.65921 -0.561729 5.61205 -0.84632C6.144 -1.00496 6.69242 -1.10193 7.24652 -1.1353L7.30015 -1.13933L7.38083 -1.14313C7.47672 -1.1476 7.57215 -1.14983 7.66535 -1.14983C8.0111 -1.15048 8.35626 -1.12139 8.69703 -1.06289C8.90995 -1.02706 9.12865 -1.05208 9.32797 -1.13508C9.91878 -1.38152 10.5397 -1.54823 11.1745 -1.6308C11.2275 -1.63841 11.2738 -1.64422 11.3102 -1.64891C11.4103 -1.66143 11.5695 -1.6802 11.7617 -1.69853C12.0969 -1.73049 12.611 -1.76871 13.1682 -1.76871C14.2564 -1.76871 15.193 -1.62767 16.0317 -1.3378L16.103 -1.31299L16.1726 -1.28684C18.0232 -0.587506 18.9653 0.389416 19.6427 1.25124L19.6749 1.29236L19.7681 1.37528C20.3801 1.85405 20.9007 2.43951 21.3045 3.10339L21.4307 3.31124L21.5374 3.52916C22.4426 5.37683 22.1549 7.08282 22.0465 7.72381L22.0407 7.758C21.9627 8.23088 21.8387 8.69499 21.6703 9.14371C21.6084 9.57633 21.5065 10.0023 21.366 10.4161C21.1257 11.1517 20.7711 11.8449 20.3155 12.4703C20.053 12.8414 19.7568 13.1874 19.4304 13.5038C19.3151 13.6152 19.2402 13.7622 19.2179 13.9211C19.2038 14.0189 19.1877 14.1156 19.1694 14.2116C18.9041 15.6348 18.2816 16.6254 18.0275 17.0199L17.2593 18.1231C16.3343 19.2756 15.2367 20.0358 13.9084 20.4444L13.5866 20.5452L13.239 20.6057C12.8414 20.6759 12.4383 20.7107 12.0346 20.7099C11.9789 20.7099 11.9228 20.7099 11.8607 20.7083H11.8428L11.7742 20.7125L11.7007 20.7152H11.6986C11.5447 20.7204 11.3921 20.7456 11.2447 20.7901C10.3867 21.0525 9.41626 21.1759 8.22947 21.1759Z" stroke="url(#paint2_linear_2631_4320)" stroke-width="0.1" stroke-miterlimit="10"/>
<path d="M8.22947 20.418C7.52767 20.418 6.8545 20.3733 6.28882 20.3286L6.15472 20.3182L6.02061 20.2997C5.93702 20.2882 5.83488 20.2774 5.73633 20.2663C5.19166 20.2069 4.28112 20.108 3.26463 19.6313L3.11533 19.5611L2.97653 19.4831C1.02404 18.3879 0.301682 16.7619 -0.130121 15.7902C-0.160964 15.721 -0.198733 15.6358 -0.234046 15.5584C-0.435197 15.1458 -0.567062 14.7648 -0.678365 14.414L-0.700715 14.3434L-0.72016 14.2746C-1.00579 13.2595 -1.07955 12.3932 -0.952153 11.5479C-0.824759 10.7026 -0.503812 9.9215 0.0560571 9.09811L0.474449 8.41487C0.548437 8.29382 0.599218 8.16004 0.624194 8.02039C0.832496 6.85975 1.38075 6.03683 1.62995 5.66223L1.66146 5.61486L1.67309 5.59608C1.67822 5.58468 1.68314 5.57373 1.68784 5.56188C1.70303 5.51249 1.718 5.46467 1.73253 5.41906C1.79807 4.94294 1.91381 4.47507 2.07784 4.02331L2.10019 3.96252L2.12411 3.9015C2.1317 3.88205 2.13886 3.86105 2.15986 3.79801C2.27854 3.44042 2.52551 2.69795 3.17166 1.90139L3.40611 1.61755L3.64414 1.40231C4.28226 0.82249 5.04248 0.393389 5.86864 0.146689C6.33767 0.00744691 6.82113 -0.0775192 7.30954 -0.106539L7.35425 -0.110113L7.42129 -0.113243C7.50287 -0.117042 7.58423 -0.11883 7.66356 -0.11883C8.01393 -0.119453 8.36344 -0.220311 8.70665 -0.149841C8.97151 -0.0950577 9.24686 -0.124359 9.49426 -0.233653C9.95646 -0.437486 10.5787 -0.518897 11.291 -0.607626C11.3417 -0.615001 11.386 -0.62059 11.4204 -0.624837C11.514 -0.636682 11.6638 -0.65434 11.845 -0.67155C12.1602 -0.701722 12.6452 -0.7386 13.1666 -0.7386C14.1538 -0.7386 14.9948 -0.613661 15.7379 -0.356635L15.7974 -0.336075L15.8555 -0.313725C17.4958 0.306042 18.3065 1.13568 18.9381 1.94005C18.9732 1.98476 19.0091 2.03057 19.0226 2.04645L19.0375 2.05985L19.1572 2.16646L19.1734 2.18301C19.719 2.60099 20.1821 3.1169 20.539 3.70437L20.6441 3.87758L20.7334 4.05906C21.5121 5.64838 21.268 7.0942 21.1639 7.71174L21.1583 7.7446C21.0845 8.19321 20.9635 8.6328 20.7975 9.05609C20.7453 9.46805 20.6515 9.87367 20.5178 10.2668C20.3053 10.9177 19.9918 11.5311 19.5887 12.0845C19.3158 12.4725 19.0002 12.8286 18.648 13.1462C18.4845 13.2929 18.3813 13.4951 18.3585 13.7136C18.3415 13.8746 18.3185 14.031 18.2895 14.1845C18.0555 15.4408 17.5085 16.3098 17.2582 16.6989L16.636 17.6034C15.8091 18.666 14.8292 19.3608 13.6421 19.7267L13.374 19.8107L13.0835 19.861C12.7367 19.9222 12.3851 19.9527 12.033 19.952C11.9818 19.952 11.9295 19.952 11.8732 19.9506H11.824C11.824 19.9506 11.8129 19.9506 11.7901 19.9522L11.7286 19.9561L11.6667 19.9582L11.5431 19.963C11.3797 19.9687 11.2179 19.9969 11.0621 20.0465C10.2718 20.2989 9.3586 20.418 8.22947 20.418Z" stroke="url(#paint3_linear_2631_4320)" stroke-width="0.1" stroke-miterlimit="10"/>
<path d="M8.22947 19.5239C7.55897 19.5239 6.90679 19.4804 6.35786 19.4377L6.25082 19.4294L6.14399 19.4147C6.0472 19.4012 5.93835 19.3894 5.83309 19.3778C5.31256 19.3212 4.5265 19.2356 3.64502 18.8222L3.52544 18.7661L3.4137 18.7037C1.72045 17.7546 1.09868 16.3543 0.686987 15.4276C0.651898 15.3483 0.612115 15.2589 0.575237 15.1761C0.396437 14.8124 0.277087 14.4654 0.175394 14.1444L0.157513 14.088L0.141868 14.0328C-0.108228 13.1441 -0.174383 12.397 -0.066656 11.682C0.0426358 10.957 0.327375 10.2811 0.828909 9.55473L0.888585 9.46846L0.953177 9.38554C0.993855 9.33369 1.03296 9.2825 1.07141 9.23243L1.32307 8.77091C1.40561 8.62007 1.46133 8.45604 1.48778 8.28614C1.64781 7.25067 2.14667 6.5026 2.37687 6.15752L2.378 6.15573C2.39118 6.13607 2.40816 6.11103 2.41688 6.09717L2.46605 6.01872C2.48528 5.97671 2.51075 5.92083 2.5331 5.86227C2.55546 5.79231 2.58205 5.70582 2.6111 5.61642C2.66566 5.17532 2.77018 4.74185 2.92267 4.32437L2.9401 4.27565L2.9591 4.22648C2.97518 4.18558 2.98703 4.15004 3.01027 4.08008C3.12046 3.74907 3.32474 3.13467 3.86807 2.46439L4.05604 2.23709L4.24578 2.06567C4.78595 1.57482 5.42944 1.21156 6.12878 1.0027C6.53469 0.882231 6.9532 0.809182 7.37592 0.785011L7.41167 0.782328L7.46599 0.779871C7.53303 0.776742 7.60008 0.775178 7.66713 0.775178C8.0306 0.774677 8.39264 0.82072 8.74441 0.912184C9.04895 0.989227 9.37098 0.955234 9.65271 0.816301C10.1035 0.597494 10.7065 0.365275 11.413 0.278557C11.4615 0.271629 11.5024 0.266265 11.5357 0.262018C11.6235 0.251067 11.7635 0.234528 11.9333 0.217318C12.229 0.188933 12.6836 0.155186 13.1699 0.155186C14.0562 0.155186 14.8015 0.26403 15.4496 0.487977L15.4973 0.504518L15.5438 0.52195C17.0503 1.09143 17.7249 1.83725 18.2387 2.49144C18.3521 2.63559 18.3692 2.65795 18.447 2.72701L18.543 2.81238L18.5802 2.8506C18.8281 3.04258 19.3349 3.43796 19.7786 4.16925L19.8628 4.30782L19.934 4.45288C20.5861 5.78382 20.3832 6.98581 20.2858 7.56356L20.2804 7.59552C20.2106 8.01914 20.0926 8.43337 19.9285 8.83014L19.9242 8.86657C19.8808 9.24612 19.797 9.61993 19.674 9.98162C19.4895 10.548 19.2168 11.0817 18.8661 11.5631C18.5726 11.9838 18.2198 12.3598 17.8187 12.6795C17.7234 12.7551 17.6451 12.8504 17.5896 12.9587C17.534 13.0671 17.5023 13.1861 17.4964 13.3078C17.4855 13.5466 17.4581 13.7844 17.4143 14.0193C17.2117 15.1087 16.7362 15.8639 16.4934 16.241L16.0111 16.9537C15.2841 17.9244 14.4223 18.5527 13.3807 18.872L13.1664 18.939L12.9346 18.9793C12.6382 19.0317 12.3378 19.0577 12.0368 19.0571C11.9901 19.0571 11.9425 19.0571 11.8911 19.0558H11.8278C11.8191 19.0558 11.7925 19.0558 11.7384 19.059L11.6893 19.0622L11.3931 19.0732C11.219 19.0792 11.0467 19.1102 10.8815 19.1654C10.1576 19.4092 9.30361 19.5239 8.22947 19.5239Z" stroke="url(#paint4_linear_2631_4320)" stroke-width="0.1" stroke-miterlimit="10"/>
<path d="M8.22933 18.6299C7.58856 18.6299 6.9585 18.5876 6.42702 18.5464L6.34679 18.5401L6.26656 18.5291C6.15682 18.5139 6.04127 18.5012 5.92929 18.4891C5.44004 18.4356 4.7711 18.3631 4.02439 18.0128L3.93499 17.9706L3.85163 17.9239C2.41765 17.1193 1.89019 15.9322 1.50487 15.0649C1.46487 14.9755 1.42329 14.8814 1.38216 14.7913C1.21834 14.4619 1.11397 14.1456 1.02725 13.875L1.01384 13.8327L1.00222 13.7914C0.582931 12.3013 0.7405 11.256 1.56433 10.0634L1.60902 9.99856L1.65752 9.93642C1.71227 9.86646 1.76346 9.7992 1.81397 9.73526C1.88996 9.63559 1.96684 9.53412 2.05067 9.42974C2.10267 9.36471 2.14464 9.29223 2.17514 9.21473L2.26969 8.97336C2.30976 8.87072 2.3349 8.76286 2.34434 8.65309C2.42637 7.69717 2.89124 7.0003 3.12146 6.65499L3.12279 6.6532C3.13955 6.62771 3.16503 6.58973 3.17352 6.57609L3.22739 6.49004L3.24393 6.46769C3.27254 6.40981 3.32864 6.28755 3.37803 6.15948C3.40463 6.07188 3.44664 5.93733 3.48777 5.81507C3.48777 5.81038 3.48777 5.80524 3.48955 5.79988C3.53362 5.39932 3.62592 5.00556 3.76446 4.62717L3.77765 4.59052L3.79195 4.55363C3.81698 4.48993 3.83464 4.43675 3.85901 4.36321C3.95735 4.06774 4.12184 3.57314 4.56259 3.02958L4.70361 2.85883L4.84509 2.73099C5.88615 1.78648 7.05105 1.7049 7.44038 1.67875L7.4672 1.67673L7.50833 1.67472C7.56129 1.67226 7.61426 1.67114 7.66611 1.67114C8.12834 1.67278 8.58562 1.7663 9.01136 1.94627C9.08678 1.97761 9.1682 1.99185 9.24978 1.98799C9.33135 1.98412 9.41106 1.96224 9.48317 1.92392H9.4854C9.88122 1.69439 10.6063 1.27823 11.5307 1.16693C11.5754 1.16022 11.6165 1.15508 11.6467 1.15128C11.728 1.141 11.8579 1.12581 12.0174 1.11038C12.2937 1.08401 12.7179 1.0525 13.1689 1.0525C13.9541 1.0525 14.6041 1.14547 15.156 1.33634L15.1918 1.34863L15.2266 1.36182C16.5178 1.84973 17.0747 2.46189 17.5341 3.04702C17.6577 3.20347 17.7129 3.27611 17.8513 3.39814L17.9232 3.46229L17.9809 3.52151L18.0256 3.55682C18.2445 3.72623 18.6514 4.04159 19.0126 4.63566L19.0759 4.73959L19.1292 4.84844C19.6545 5.92124 19.4902 6.89414 19.4019 7.41713L19.3967 7.44819C19.3345 7.82837 19.2264 8.19958 19.0745 8.55362L19.0617 8.58403C19.0604 8.5905 19.0586 8.60011 19.0559 8.61419C19.049 8.65018 19.045 8.67879 19.0402 8.71521L19.0349 8.75634C18.9992 9.07697 18.9285 9.39276 18.8246 9.69818C18.6681 10.1799 18.4366 10.6339 18.1382 11.0432C17.8432 11.462 17.5125 11.8031 17.1412 12.0731C16.9782 12.1921 16.8451 12.3474 16.7525 12.5267C16.6597 12.706 16.61 12.9043 16.607 13.1061C16.6039 13.3578 16.5793 13.6087 16.5334 13.8562C16.3623 14.779 15.9685 15.4039 15.7234 15.7848L15.3729 16.3102C14.7453 17.1871 14.0049 17.7469 13.1137 18.0197L13.0666 18.0346C12.9909 18.0582 12.9138 18.077 12.8357 18.0903L12.7791 18.1003C12.5333 18.1438 12.2841 18.1654 12.0344 18.1648C11.9922 18.1648 11.9493 18.1648 11.9028 18.1637H11.8952C11.874 18.1637 11.8505 18.1637 11.8255 18.1637C11.808 18.1637 11.762 18.1637 11.6788 18.1688L11.642 18.171L11.606 18.1724C11.4864 18.1769 11.3378 18.182 11.2052 18.1879C11.0236 18.1954 10.8441 18.2306 10.6731 18.2922C10.0316 18.5214 9.24671 18.6299 8.22933 18.6299Z" stroke="url(#paint5_linear_2631_4320)" stroke-width="0.1" stroke-miterlimit="10"/>
</g>
<g opacity="0.8">
<g opacity="0.8">
<path d="M8.22953 17.7359C7.61915 17.7359 7.011 17.695 6.49649 17.655L6.44286 17.6509L6.38945 17.6434C6.26629 17.6264 6.1436 17.6129 6.02536 17.6001C5.57568 17.5513 5.01603 17.4902 4.40408 17.2033L4.34419 17.1751L4.28876 17.1441C3.11404 16.4854 2.67509 15.4966 2.32195 14.702C2.2786 14.6042 2.23256 14.5031 2.18785 14.4048C2.04951 14.1288 1.95585 13.8461 1.87897 13.604L1.87003 13.5761L1.86221 13.5486C1.51623 12.3193 1.63044 11.5391 2.29938 10.5707L2.3291 10.5275L2.36151 10.4862C2.41985 10.4115 2.47327 10.3418 2.52422 10.2745C2.69878 10.0457 2.86663 9.82529 3.11762 9.55731C3.17266 9.49851 3.20559 9.42246 3.21082 9.34209L3.22981 9.05288L3.22244 8.95812L3.22578 8.85978C3.25193 8.06657 3.65044 7.46982 3.86366 7.14931C3.88825 7.11221 3.91395 7.07399 3.92915 7.04964L3.96513 6.99242L3.99844 6.94772C4.03822 6.88269 4.14282 6.66097 4.22193 6.4482C4.2492 6.3588 4.30195 6.18827 4.34844 6.05304C4.36207 6.00991 4.3634 5.99941 4.37459 5.90688C4.41093 5.57214 4.488 5.2431 4.60413 4.92706L4.61283 4.90247L4.62244 4.87766C4.65553 4.79318 4.67855 4.72412 4.70515 4.6441C4.7894 4.39065 4.91634 4.00869 5.25472 3.59141L5.34905 3.47742L5.44247 3.39295C6.17176 2.73072 6.96629 2.60533 7.50248 2.56934L7.52058 2.56778H7.54829C7.58719 2.566 7.62585 2.5651 7.66384 2.5651C8.1218 2.5651 8.6696 2.7848 8.95724 2.91756C9.02603 2.94913 9.10039 2.96677 9.17603 2.96951C9.25167 2.97223 9.32709 2.95997 9.39799 2.93342C9.57696 2.86859 9.75138 2.79183 9.92009 2.70367C10.286 2.49134 10.893 2.14068 11.6468 2.05284C11.6884 2.04658 11.7257 2.04189 11.7566 2.03786C11.8324 2.02847 11.9519 2.01551 12.1001 2.00009C12.3571 1.97551 12.7507 1.94623 13.1666 1.94623C13.8505 1.94623 14.4051 2.02311 14.8617 2.18091L14.8853 2.18917L14.9078 2.19789C15.9862 2.60533 16.4153 3.07356 16.8281 3.59902C16.9621 3.76843 17.0569 3.88956 17.2538 4.06568L17.3017 4.10838L17.3463 4.15307C17.3866 4.19288 17.4298 4.22941 17.4757 4.26236C17.6609 4.40563 17.9711 4.64567 18.2462 5.0987L18.2882 5.16798L18.324 5.24062C18.7226 6.05439 18.5946 6.8134 18.518 7.26688L18.5128 7.29772C18.4619 7.61077 18.3727 7.91636 18.2471 8.2076V8.20983C18.2123 8.28515 18.1883 8.36497 18.1758 8.44696C18.1651 8.50418 18.1583 8.55022 18.1519 8.60118L18.1464 8.64276C18.1177 8.90433 18.0606 9.16199 17.976 9.41115C17.8483 9.80866 17.6574 10.183 17.4106 10.5197C17.0464 11.0394 16.6253 11.405 16.118 11.6372C15.9947 11.6935 15.8894 11.7827 15.8138 11.895C15.738 12.0073 15.6947 12.1384 15.6889 12.2737C15.6864 12.3292 15.6855 12.3748 15.6871 12.4002C15.7121 12.7911 15.7404 13.2341 15.6534 13.6905C15.5136 14.4453 15.194 14.9527 14.9538 15.3252C14.9538 15.3252 13.8515 16.8593 12.8484 17.1654L12.7404 17.1992L12.6244 17.2196C12.4292 17.2543 12.2313 17.2714 12.0331 17.2708C11.9955 17.2708 11.9571 17.2708 11.9157 17.2697H11.9121C11.8855 17.2697 11.8567 17.2697 11.8241 17.2697C11.7848 17.2697 11.7206 17.2697 11.6209 17.2766L11.5966 17.2781H11.5724C11.1887 17.292 10.8259 17.3049 10.7251 17.3246C10.6712 17.3331 10.6186 17.3484 10.5687 17.3706C10.001 17.6195 9.25651 17.7359 8.22953 17.7359Z" stroke="url(#paint6_linear_2631_4320)" stroke-width="0.1" stroke-miterlimit="10"/>
<path d="M8.2295 16.8419C7.64975 16.8419 7.06305 16.8025 6.56554 16.7637L6.53894 16.7618L6.51234 16.758C6.37624 16.7392 6.24705 16.725 6.12189 16.7114C5.69857 16.6654 5.26074 16.6178 4.78357 16.394L4.75362 16.3797L4.72591 16.3644C3.80955 15.8503 3.46916 15.0826 3.13905 14.3392C3.09211 14.2337 3.04361 14.1246 2.99355 14.0162C2.8818 13.7954 2.80268 13.5585 2.73161 13.3341L2.72713 13.3203L2.72312 13.3062C2.44799 12.3277 2.51793 11.8282 3.03602 11.0788L3.051 11.0564L3.06708 11.0356C3.12787 10.9581 3.18308 10.8857 3.23627 10.8157C3.48525 10.4892 3.70048 10.2069 4.18279 9.76169L4.18414 9.76035C4.2195 9.72655 4.24433 9.68326 4.25564 9.63567C4.26694 9.58807 4.26423 9.53822 4.24784 9.49214L4.16089 9.24428C4.14342 9.16614 4.13117 9.08692 4.12423 9.00715V9.00447L4.11887 8.93742L4.12067 8.88825C4.13832 8.34984 4.4215 7.92541 4.60879 7.64447C4.63807 7.59978 4.666 7.55886 4.68769 7.52401L4.70557 7.4954L4.72568 7.46835C4.82513 7.33425 4.98672 6.96301 5.07166 6.73303C5.094 6.66219 5.15123 6.47198 5.19883 6.33409C5.23272 6.23038 5.2547 6.12315 5.26432 6.01448C5.29242 5.74537 5.35414 5.48085 5.44803 5.22708L5.45251 5.21457L5.45742 5.20228C5.49877 5.09612 5.52783 5.00895 5.55599 4.92447C5.63086 4.6994 5.71557 4.44416 5.95136 4.1534L5.99874 4.09617L6.04501 4.05438C6.56308 3.58368 7.131 3.48892 7.56905 3.45987H7.59252C7.61711 3.45987 7.64169 3.45831 7.66606 3.45831C8.09228 3.45831 8.41992 3.63308 8.63671 3.74885L8.68723 3.77568L8.69483 3.7797C8.75428 3.81189 8.80658 3.84005 8.85508 3.86395C8.98979 3.93153 9.14459 3.94744 9.29024 3.90866C9.58704 3.82887 10.0501 3.65319 10.3617 3.482L10.3682 3.4782C10.6958 3.28823 11.1893 3.00215 11.7677 2.93866C11.8042 2.93285 11.839 2.92861 11.8719 2.92436C11.9389 2.91587 12.0507 2.90201 12.1873 2.88972C12.4251 2.86737 12.7883 2.83987 13.1689 2.83987C13.7517 2.83987 14.2106 2.90068 14.5717 3.02538L14.5836 3.02963L14.5957 3.03411C15.4608 3.36108 15.7765 3.70326 16.1281 4.1516C16.2711 4.33375 16.4063 4.50586 16.6626 4.73405L16.6866 4.7564L16.7089 4.77874C16.7783 4.84866 16.853 4.91302 16.9324 4.97118C17.0862 5.09031 17.2969 5.25346 17.4863 5.56502L17.5072 5.59967L17.5251 5.63609C17.7972 6.19149 17.7066 6.72835 17.6404 7.12014L17.6353 7.15097C17.5957 7.39816 17.5249 7.6393 17.4245 7.86865C17.366 8.00067 17.3244 8.13961 17.3007 8.28212C17.2851 8.36481 17.276 8.42941 17.2683 8.4893L17.2629 8.53176C17.2414 8.73431 17.1976 8.93384 17.1321 9.12673C17.033 9.43964 16.883 9.73411 16.6883 9.99837C16.3598 10.47 15.9955 10.7607 15.5116 10.9147C15.2798 10.9881 15.0802 11.1392 14.9468 11.3425L14.9083 11.4015L14.8659 11.45C14.743 11.5899 14.7776 12.1321 14.7988 12.4558C14.8213 12.8109 14.8451 13.1781 14.7788 13.5239C14.6697 14.115 14.4165 14.514 14.1898 14.8649C14.1898 14.8649 13.3481 16.0792 12.5887 16.3098L12.5335 16.3272L12.4753 16.3373C12.3307 16.3631 12.184 16.3759 12.0371 16.3752C12.004 16.3752 11.97 16.3752 11.934 16.3752C11.9021 16.3752 11.867 16.3752 11.8281 16.3752C11.7765 16.3752 11.694 16.3752 11.5684 16.3839H11.5442C11.0349 16.4026 10.7276 16.4135 10.5577 16.4465C10.4434 16.4668 10.3318 16.5001 10.2251 16.546C9.77032 16.7476 9.13512 16.8419 8.2295 16.8419Z" stroke="url(#paint7_linear_2631_4320)" stroke-width="0.1" stroke-miterlimit="10"/>
</g>
</g>
</g>
</g>
<defs>
<radialGradient id="paint0_radial_2631_4320" cx="0" cy="0" r="1" gradientUnits="userSpaceOnUse" gradientTransform="translate(10 11.0479) rotate(90) scale(11.2348)">
<stop offset="0.166667" stop-color="#073183"/>
<stop offset="1" stop-color="#0054F9"/>
</radialGradient>
<radialGradient id="paint1_radial_2631_4320" cx="0" cy="0" r="1" gradientUnits="userSpaceOnUse" gradientTransform="translate(10 11.0479) rotate(90) scale(11.2348)">
<stop offset="0.166667" stop-color="#073183"/>
<stop offset="1" stop-color="#0054F9"/>
</radialGradient>
<linearGradient id="paint2_linear_2631_4320" x1="0.777772" y1="1.0525" x2="18.3204" y2="19.7352" gradientUnits="userSpaceOnUse">
<stop offset="0.205697" stop-color="#89D0FF"/>
<stop offset="0.398413" stop-color="#EBBF9A"/>
<stop offset="0.601546" stop-color="#EB80E7"/>
<stop offset="0.841139" stop-color="#A281FF"/>
</linearGradient>
<linearGradient id="paint3_linear_2631_4320" x1="0.777772" y1="1.0525" x2="18.3204" y2="19.7352" gradientUnits="userSpaceOnUse">
<stop offset="0.205697" stop-color="#89D0FF"/>
<stop offset="0.398413" stop-color="#EBBF9A"/>
<stop offset="0.601546" stop-color="#EB80E7"/>
<stop offset="0.841139" stop-color="#A281FF"/>
</linearGradient>
<linearGradient id="paint4_linear_2631_4320" x1="0.777772" y1="1.0525" x2="18.3204" y2="19.7352" gradientUnits="userSpaceOnUse">
<stop offset="0.205697" stop-color="#89D0FF"/>
<stop offset="0.398413" stop-color="#EBBF9A"/>
<stop offset="0.601546" stop-color="#EB80E7"/>
<stop offset="0.841139" stop-color="#A281FF"/>
</linearGradient>
<linearGradient id="paint5_linear_2631_4320" x1="0.777772" y1="1.0525" x2="18.3204" y2="19.7352" gradientUnits="userSpaceOnUse">
<stop offset="0.205697" stop-color="#89D0FF"/>
<stop offset="0.398413" stop-color="#EBBF9A"/>
<stop offset="0.601546" stop-color="#EB80E7"/>
<stop offset="0.841139" stop-color="#A281FF"/>
</linearGradient>
<linearGradient id="paint6_linear_2631_4320" x1="2.5646" y1="2.83987" x2="16.5237" y2="17.9385" gradientUnits="userSpaceOnUse">
<stop offset="0.205697" stop-color="#89D0FF"/>
<stop offset="0.398413" stop-color="#EBBF9A"/>
<stop offset="0.601546" stop-color="#A280EB"/>
<stop offset="0.841139" stop-color="#A281FF"/>
</linearGradient>
<linearGradient id="paint7_linear_2631_4320" x1="2.5646" y1="2.83987" x2="16.5237" y2="17.9385" gradientUnits="userSpaceOnUse">
<stop offset="0.205697" stop-color="#89D0FF"/>
<stop offset="0.398413" stop-color="#EBBF9A"/>
<stop offset="0.601546" stop-color="#A280EB"/>
<stop offset="0.841139" stop-color="#A281FF"/>
</linearGradient>
</defs>
</svg>
