<svg width="20" height="20" viewBox="0 0 20 20" fill="none" xmlns="http://www.w3.org/2000/svg">
<rect width="20" height="20" fill="black"/>
<path d="M13.335 7.81316C13.7121 8.45492 14.0936 9.09667 14.4706 9.73842C15.1034 10.8169 15.7317 11.8999 16.3601 12.9784C16.405 13.0542 16.4409 13.1344 16.4813 13.2101C16.3332 13.2725 16.2658 13.1522 16.1895 13.0764C15.9202 12.8224 15.6644 12.555 15.3996 12.2965C15.2111 12.1049 15.0226 11.9177 14.8431 11.7216C14.7758 11.6771 14.7129 11.628 14.6546 11.5701C14.0532 10.9462 13.4248 10.3579 12.8144 9.73842C12.7112 9.63592 12.59 9.54233 12.5586 9.38635C12.6798 8.83819 12.9491 8.35241 13.2094 7.86218C13.2318 7.81762 13.2857 7.79533 13.335 7.81316Z" fill="#626362"/>
<path d="M5.64209 11.1913C6.65193 9.422 7.66626 7.64826 8.6761 5.87897C8.68508 5.8656 8.70752 5.85669 8.72098 5.84778C8.8287 5.94582 8.7883 6.06615 8.76137 6.17757C8.69854 6.44497 8.63571 6.71236 8.55492 6.97531C8.45169 7.26944 8.4113 7.58141 8.30807 7.87555C8.08366 8.82481 7.81437 9.7607 7.57201 10.7055C7.5361 10.8392 7.51366 10.9774 7.39248 11.0709C7.19949 11.2046 6.97059 11.1423 6.75965 11.1824C6.49036 11.2358 6.21209 11.2314 5.93831 11.2715C5.83957 11.2849 5.72737 11.2849 5.64209 11.1913Z" fill="#626362"/>
<path d="M12.4957 15.9822H6.22119C6.2571 15.8307 6.39623 15.8396 6.49946 15.8129C6.81363 15.7327 7.13229 15.6524 7.44646 15.5633C7.72473 15.5054 8.003 15.4296 8.27678 15.3405C8.38449 15.287 8.49221 15.2246 8.61788 15.2157C9.18339 15.1667 9.713 14.9483 10.265 14.8324C10.7183 14.7388 11.1582 14.5784 11.6205 14.516C11.9167 14.6987 12.1815 14.9929 12.2219 15.2736C12.2623 15.5544 12.5136 15.7148 12.4957 15.9822Z" fill="#626362"/>
<path d="M8.8694 5.56704C9.32271 4.7693 9.77153 3.96711 10.2248 3.16937C10.355 2.94654 10.5076 2.94208 10.6422 3.16491C10.7993 3.4234 10.9385 3.69079 11.0866 3.95374C10.8038 4.70691 10.4403 5.42888 10.1216 6.16422C10.0453 6.33358 9.99593 6.5163 9.89719 6.67674C9.76255 6.75696 9.70869 6.63663 9.63239 6.57423C9.56058 6.50738 9.47979 6.42271 9.40349 6.34695C9.27783 6.23999 9.16113 6.12411 9.04444 6.0127C8.93224 5.88346 8.83798 5.74976 8.8694 5.56704Z" fill="#464646"/>
<path d="M12.1547 5.78983C12.5317 6.38702 12.8998 6.99757 13.2184 7.62596C13.2184 7.63933 13.2139 7.6527 13.2139 7.66607C13.0479 8.21869 12.7472 8.71338 12.5452 9.25263C12.5317 9.27491 12.5093 9.2972 12.4824 9.30611C12.2759 9.27491 12.1816 9.09219 12.047 8.97186C11.8226 8.76686 11.6116 8.54403 11.4052 8.32119C11.3648 8.28108 11.3379 8.23652 11.3244 8.18304C11.2795 8.03597 11.2257 7.8889 11.3244 7.73737C11.3738 7.66607 11.3468 7.59031 11.3109 7.519C11.284 7.46552 11.2705 7.40758 11.2661 7.34965C11.2571 7.10899 11.3109 7.07334 11.5623 7.14464C11.6072 7.03323 11.5219 6.93964 11.5084 6.83714C11.4815 6.58756 11.5578 6.53408 11.8001 6.62322C11.8405 6.52071 11.7553 6.43604 11.7553 6.34245C11.7553 6.20875 11.661 5.99483 11.9527 6.05723C11.9752 6.06168 11.9976 6.06614 11.9931 6.05277C11.9842 6.02603 11.9797 5.99483 11.9797 5.96809C12.0066 5.87896 12.0021 5.75863 12.1547 5.78983Z" fill="#606160"/>
<path d="M5.64229 11.1913C6.23473 11.169 6.82717 11.1111 7.41512 11.0131C7.43308 11.0933 7.39717 11.1423 7.31638 11.1601C6.78678 11.227 6.25268 11.2582 5.72308 11.3429C6.25717 11.2537 6.79575 11.227 7.32985 11.169C7.42859 11.2314 7.40166 11.3206 7.37922 11.4052C7.29394 11.7618 7.20867 12.1183 7.07851 12.4659C7.01119 12.5551 7.05607 12.6843 6.97079 12.769C6.79127 13.023 6.49953 12.9428 6.25717 12.9829C5.99237 13.0275 5.70961 12.9472 5.45379 13.0765C5.32812 13.2681 5.13064 13.3127 4.92418 13.3439C4.71773 13.3751 4.57411 13.3305 4.55615 13.0943L5.64229 11.1913Z" fill="#606160"/>
<path d="M12.4955 15.9822C12.4148 15.8708 12.334 15.7638 12.2487 15.6569C12.1724 15.5544 12.1724 15.5544 12.2307 15.4073C12.2532 15.3538 12.1993 15.3226 12.1724 15.2825C12.0018 15.0463 11.8313 14.8056 11.6562 14.5694C11.7101 14.4357 11.8403 14.4268 11.9525 14.4001C12.2801 14.3154 12.6077 14.2352 12.9354 14.155C13.0386 14.1372 13.1373 14.1015 13.2451 14.1149C13.3977 14.1773 13.5233 14.2931 13.5996 14.4357C13.7747 14.7477 14.0529 14.9973 14.237 15.3137C14.2773 15.3806 14.3492 15.3806 14.421 15.3716C14.6229 15.5321 14.8339 15.6836 14.8249 15.9822H12.4955Z" fill="#606160"/>
<path d="M12.1546 5.78985C11.9167 5.88789 12.1546 6.08399 12.0693 6.22214C11.9705 6.20432 11.9661 6.04388 11.8494 6.07062C11.6564 6.29345 12.0962 6.54302 11.8135 6.76139C11.7416 6.71683 11.7282 6.60096 11.616 6.60096C11.4185 6.82379 11.8494 7.07336 11.5756 7.29173C11.5038 7.25162 11.4813 7.14466 11.3646 7.12684C11.3063 7.25608 11.3377 7.38532 11.3601 7.51456C11.1627 7.62152 11.2255 7.82653 11.1896 7.99142C10.8979 7.96914 10.8081 7.68837 10.6061 7.55022C10.4939 7.42543 10.3503 7.32739 10.283 7.16249C10.2157 6.81042 10.4356 6.54748 10.5882 6.27116C10.642 6.16866 10.7094 6.08844 10.7139 5.96811C10.7183 5.87007 10.7587 5.75865 10.844 5.71409C10.9562 5.65615 10.9158 5.54919 10.9562 5.48234C11.1402 5.18375 11.1402 4.79602 11.4185 4.54199C11.6923 4.94755 11.9391 5.36201 12.1546 5.78985Z" fill="#565756"/>
<path d="M4.55589 13.0898C4.75786 13.3572 5.05408 13.3349 5.44006 13.0274C5.74077 13.1344 6.04597 13.0675 6.34668 13.0408C6.53069 13.023 6.71022 12.9517 6.89872 12.965C7.0199 13.1032 6.89423 13.2235 6.86731 13.3483C6.83589 13.5087 6.75959 13.6647 6.72368 13.8252C6.70573 13.941 6.69227 14.0569 6.60699 14.146C6.14471 14.1951 5.6914 14.3154 5.22014 14.3109C4.93739 14.3109 4.65014 14.36 4.36739 14.4001C3.96345 14.458 3.92755 14.4357 4.01282 14.0346C4.19684 13.7227 4.37637 13.4062 4.55589 13.0898Z" fill="#565756"/>
<path d="M14.8295 15.9822L14.4121 15.4028C14.1832 15.1755 14.0081 14.9081 13.8376 14.6452C13.7927 14.5739 13.7702 14.4892 13.6895 14.4357C13.5458 14.3466 13.5144 14.2129 13.5548 14.0569C13.6984 13.9143 13.9004 13.9366 14.0709 13.8608C14.2011 13.7984 14.3358 13.7494 14.4794 13.8073C14.5153 13.8296 14.4749 13.8162 14.5063 13.8118C14.6769 13.7984 14.614 14.0435 14.8025 14.048C14.9641 14.048 15.0224 14.2574 15.1122 14.3822C15.4488 14.8234 15.772 15.2736 16.0951 15.7192C16.1535 15.7994 16.2253 15.8708 16.1983 15.9866L14.8295 15.9822Z" fill="#565756"/>
<path d="M3.12891 15.5811C3.25009 15.3538 3.36229 15.1176 3.52387 14.9126C3.65402 15.0017 3.8156 14.9349 3.92331 14.9126C4.36316 14.8146 4.81646 14.8146 5.26079 14.7611C5.58394 14.721 5.91158 14.6095 6.24819 14.7076C6.30654 14.7254 6.36937 14.5472 6.48158 14.6497C6.52646 14.8636 6.37835 15.0374 6.3604 15.2379C6.35142 15.3271 6.32 15.4117 6.26166 15.4786C6.08213 15.6212 5.87118 15.5098 5.68268 15.5276C5.30118 15.5544 4.93764 15.6479 4.56064 15.6925C4.30032 15.7192 4.03552 15.7282 3.7752 15.7192C3.68544 15.7103 3.59568 15.7192 3.51489 15.746C3.33985 15.8084 3.20521 15.7549 3.12891 15.5811Z" fill="#4A4A4A"/>
<path d="M17.8139 15.9822H16.9791C16.6874 15.951 16.5976 15.6836 16.4719 15.4964C16.0725 14.9082 15.6102 14.3645 15.2152 13.7717C15.1883 13.7316 15.1524 13.696 15.1704 13.6425C15.296 13.4999 15.489 13.5177 15.6461 13.4598C15.7045 13.4464 15.7628 13.4464 15.8211 13.4553C16.1219 13.6469 16.4136 13.8341 16.5303 14.2085C16.5841 14.3778 16.7592 14.4937 16.8759 14.6319C16.9881 14.7566 17.0868 14.8725 17.1586 15.033C17.2753 15.3137 17.4863 15.541 17.7107 15.7505C17.7735 15.8129 17.8408 15.8797 17.8139 15.9822Z" fill="#4A4A4A"/>
<path d="M11.4228 4.54646C11.3555 4.72473 11.1939 4.86734 11.2792 5.09463C11.3106 5.17931 11.1311 5.20605 11.1311 5.21942C11.0682 5.52247 10.8573 5.76312 10.79 6.05726C10.763 6.15977 10.7227 6.20879 10.6778 6.28009C10.5207 6.54749 10.2963 6.81489 10.3456 7.16696C10.1751 7.19816 10.1212 7.03772 10.0135 6.96642C9.95068 6.88174 9.8295 6.82826 9.86541 6.69456C9.87438 6.38705 10.0629 6.1464 10.1751 5.879C10.4219 5.28627 10.6957 4.69799 10.9605 4.11417C10.9875 4.05178 11.0144 3.98493 11.0907 3.96265C11.2164 4.14091 11.342 4.33255 11.4228 4.54646Z" fill="#4F5150"/>
<path d="M6.4591 14.6319C6.23469 14.8502 5.92501 14.7656 5.67367 14.7967C5.25627 14.8458 4.82989 14.8948 4.408 14.926C4.15218 14.9438 3.89186 14.9661 3.64052 15.0018C3.55076 15.0151 3.5373 14.9839 3.52832 14.9171C3.65848 14.6051 3.84698 14.3288 4.01753 14.0436C4.00407 14.3466 4.13422 14.3867 4.42596 14.3422C4.96005 14.2575 5.50312 14.2397 6.04619 14.1906C6.22572 14.1728 6.39178 13.9856 6.58477 14.1595C6.66107 14.2575 6.59823 14.3555 6.58477 14.4536C6.55784 14.5204 6.53091 14.5917 6.4591 14.6319Z" fill="#4F5150"/>
<path d="M15.1839 13.6826C15.3904 13.6603 15.4128 13.8965 15.4487 13.9678C15.5924 14.2442 15.8078 14.4804 15.9918 14.7166C16.2342 15.0285 16.4182 15.3851 16.7009 15.6703C16.7952 15.7683 16.8446 15.9109 16.9747 15.9822H16.1983C15.7674 15.3895 15.341 14.7923 14.8967 14.213C14.7845 14.0703 14.6094 13.9768 14.4658 13.8609C14.569 13.6158 14.8249 13.7138 14.9999 13.6336C15.0672 13.6158 15.139 13.6381 15.1839 13.6826Z" fill="#4F5150"/>
<path d="M17.8139 15.9822C17.6927 15.7994 17.5491 15.6301 17.383 15.4875C17.1541 15.2825 17.1586 14.9527 16.9252 14.7922C16.7412 14.663 16.7367 14.3555 16.4495 14.351C16.4405 14.351 16.418 14.302 16.4225 14.2797C16.4899 13.9722 16.2655 13.8073 16.059 13.736C15.9019 13.6825 16.0141 13.4864 15.8525 13.5043C15.8705 13.3349 16.0276 13.375 16.1263 13.326C16.252 13.2993 16.3777 13.2592 16.5123 13.2592C16.9925 14.0747 17.4728 14.8947 17.953 15.7103C18.0248 15.8574 18.0383 15.9777 17.8139 15.9822Z" fill="#3F403F"/>
<path d="M3.12879 15.5811C3.32627 15.7549 3.53722 15.6524 3.75265 15.6257C4.08477 15.5811 4.41241 15.6658 4.758 15.5366C4.95099 15.4653 5.24721 15.385 5.41776 15.4162C5.69154 15.4608 5.96083 15.3939 6.22115 15.4653C6.29745 15.5455 6.26603 15.6301 6.24359 15.7193C6.21217 15.8173 6.18075 15.9154 6.10445 15.9911C5.14398 15.9956 4.18351 16 3.22304 16C2.95375 15.9911 2.9358 15.8975 3.12879 15.5811Z" fill="#3F403F"/>
<path d="M8.86919 5.56702C8.93203 5.70963 8.98589 5.8567 9.0936 5.97703C9.03975 6.35584 8.81982 6.67226 8.6762 7.01542C8.62234 7.14466 8.51912 7.1714 8.49219 6.98423C8.53258 6.5965 8.72557 6.24442 8.72557 5.84778C8.77045 5.7542 8.81982 5.66061 8.86919 5.56702Z" fill="#2F302F"/>
<path d="M16.5036 13.2637C16.4004 13.3573 16.2747 13.3795 16.1445 13.384C15.8708 13.1032 15.6733 12.7734 15.4399 12.4615C15.395 12.3991 15.3591 12.3233 15.4264 12.2476C15.6957 12.506 15.9605 12.7645 16.2298 13.0186C16.3061 13.0899 16.3645 13.1924 16.4812 13.2102C16.4946 13.228 16.5036 13.2458 16.5036 13.2637Z" fill="#303130"/>
<path d="M6.1001 15.9866L6.15844 15.7014C6.53994 15.5499 6.94387 15.5677 7.33883 15.5276C7.39718 15.5232 7.48694 15.5321 7.46899 15.639L6.21679 15.9911L6.1001 15.9866Z" fill="#2F302F"/>
<path d="M13.335 7.81316C13.0208 8.3123 12.7829 8.85155 12.6169 9.41309C12.5226 9.43091 12.4822 9.3908 12.4957 9.29276C12.7201 8.73568 13.0029 8.20534 13.2093 7.63935L13.2183 7.62598C13.2901 7.67054 13.308 7.74631 13.335 7.81316Z" fill="#606160"/>
<path d="M12.4958 9.29721C12.5183 9.35069 12.5587 9.39526 12.617 9.41754C13.2364 10.0415 13.8558 10.6654 14.4751 11.2893C14.5559 11.374 14.6322 11.4676 14.7085 11.5567C14.6008 11.628 14.5245 11.5478 14.4437 11.5032C14.2103 11.3874 13.9904 11.2403 13.757 11.1244C13.6673 11.062 13.5775 10.9952 13.4653 10.9684C13.3351 10.9194 13.187 10.9105 13.0703 10.8214C12.6843 10.4247 12.1368 10.2821 11.6835 9.98353C11.4052 9.80081 11.118 9.627 10.8532 9.41754C10.7499 8.97633 11.0327 8.651 11.1943 8.29001C11.2526 8.15631 11.3424 8.29001 11.4187 8.29001C11.6835 8.54404 11.9483 8.79807 12.2131 9.04764C12.3073 9.13232 12.4016 9.21254 12.4958 9.29721Z" fill="#565756"/>
<path d="M15.4266 12.2476C15.5029 12.5373 15.7453 12.7155 15.8934 12.9562C15.9787 13.0988 16.1133 13.2147 16.1447 13.384C16.0594 13.4598 15.9248 13.4063 15.844 13.5043H15.6645C15.3638 13.2771 15.2785 12.9027 15.0406 12.6308C14.9239 12.4971 14.8342 12.3456 14.6816 12.2387C14.5873 12.1763 14.5245 12.0871 14.4976 11.9802C14.4976 11.9534 14.502 11.9267 14.511 11.9C14.6187 11.793 14.7624 11.7484 14.888 11.6771L15.4266 12.2476Z" fill="#343434"/>
<path d="M14.8833 11.677C14.825 11.8464 14.6679 11.8597 14.5288 11.9043C14.421 11.9444 14.3627 11.8642 14.3043 11.8063C14.1203 11.6325 13.9363 11.4586 13.7703 11.2715C13.7299 11.2224 13.5907 11.1467 13.7568 11.0709C14.1024 11.1779 14.3672 11.4319 14.7038 11.5522L14.8833 11.677Z" fill="#292929"/>
<path d="M6.99756 12.4971L7.35661 11.1913C7.33417 11.1779 7.32968 11.1645 7.33417 11.1512C7.33866 11.1378 7.34764 11.1333 7.35661 11.1333C7.37457 11.0932 7.39701 11.0531 7.41496 11.013C7.68874 9.96571 7.96701 8.9184 8.24078 7.87109L8.28118 7.90675C8.37543 8.11175 8.30811 8.33458 8.33952 8.5485C8.34401 8.9184 8.32157 9.28385 8.33952 9.65375C8.33952 10.5094 8.3485 11.3606 8.34401 12.2163C8.3485 12.3233 8.33952 12.4302 8.32606 12.5372C8.30811 12.6531 8.24078 12.7021 8.1196 12.7065C7.89071 12.7155 7.6663 12.7511 7.4374 12.7778C7.18157 12.8135 7.04693 12.7466 6.99756 12.4971Z" fill="#565756"/>
<path d="M8.49197 6.97973C8.54583 7.06887 8.57275 7.10452 8.6311 6.97082C8.77472 6.63212 8.8959 6.2845 9.09787 5.97253L9.45244 6.27113C9.44346 6.48059 9.36267 6.68114 9.23252 6.84603C9.16968 6.93517 9.12929 7.04213 9.11582 7.14908C9.07543 7.41203 8.8959 7.61257 8.83307 7.85769C8.79716 7.99584 8.68496 8.0315 8.56827 8.06715C8.50094 8.07606 8.42913 8.06269 8.3663 8.0315C8.29 8.00476 8.29449 7.92454 8.26307 7.8666L8.24512 7.86214C8.32142 7.57692 8.36181 7.26496 8.49197 6.97973Z" fill="#343434"/>
<path d="M12.9759 14.2174L11.6608 14.5739C10.7677 14.8012 9.87455 15.0285 8.98141 15.2513C8.86022 15.2825 8.73904 15.3404 8.60889 15.2825C8.62684 15.0998 8.79739 15.073 8.91857 15.0017C9.04873 14.926 9.16991 14.8457 9.30455 14.7789C9.44818 14.7076 9.60077 14.6496 9.72196 14.5338C9.80723 14.458 9.88353 14.3778 9.99125 14.3332C10.3548 14.1772 10.7004 13.9856 11.0235 13.7628C11.4095 13.5132 11.8359 13.326 12.2668 13.17C12.6034 13.4464 12.931 13.736 12.9759 14.2174Z" fill="#565756"/>
<path d="M7.47324 15.6346C7.28922 15.5054 7.10072 15.6213 6.91222 15.6257C6.66088 15.6302 6.40954 15.6703 6.1582 15.697C6.20308 15.6257 6.22104 15.541 6.21655 15.4608C6.26143 15.3895 6.28387 15.3093 6.27938 15.2246C6.58009 15.0865 6.91222 15.1444 7.2219 15.0731C7.45978 15.0152 7.70214 15.0998 7.92655 15.0018C8.04773 14.9483 8.15993 14.9795 8.26765 15.0374C8.2856 15.0597 8.29906 15.082 8.30804 15.1087C8.33048 15.2068 8.33048 15.3048 8.31702 15.4029C8.04324 15.5098 7.76048 15.5856 7.47324 15.6346Z" fill="#343434"/>
<path d="M8.31712 15.4028C8.21389 15.3181 8.26775 15.2067 8.25429 15.1042C8.29019 15.0685 8.27224 15.0017 8.32161 14.9794C8.61334 14.8591 8.91405 14.7699 9.22373 14.7209C9.2731 14.712 9.3494 14.7165 9.33145 14.8101L8.60885 15.278L8.31712 15.4028Z" fill="#292929"/>
<path d="M8.55029 8.04937C8.82856 7.90676 8.85549 7.5948 8.98116 7.3586C9.10683 7.12239 9.07092 6.81043 9.33572 6.63662C9.22801 6.47173 9.40754 6.39596 9.44344 6.27563L9.86084 6.6901L10.0404 6.9263C10.009 6.96195 9.93265 6.97532 9.93265 7.01989C9.93265 7.31403 9.64092 7.49229 9.64092 7.78643C9.64092 7.92459 9.47037 7.97361 9.43446 8.12068C9.38509 8.32123 9.38958 8.45938 9.58706 8.56189C9.70824 8.62873 9.82494 8.7045 9.93265 8.78472C9.96856 8.81146 9.99549 8.8382 10.0224 8.87385C10.1077 9.00309 10.184 9.14125 10.0493 9.27495C9.90572 9.4131 9.95509 9.83203 10.1481 9.90779C10.5834 10.0682 11.0278 10.2064 11.4811 10.3178C11.6651 10.3624 11.8446 10.4158 12.0241 10.4782C12.087 10.5005 12.1992 10.5228 12.1094 10.6342C11.9389 10.71 11.7504 10.661 11.5753 10.7189C11.4721 10.7367 11.3734 10.7679 11.2701 10.7635C10.7675 10.6922 10.2603 10.7055 9.75313 10.652C9.59155 10.6342 9.40305 10.6164 9.44793 10.3891C9.50628 10.1039 9.42998 9.89887 9.17864 9.80528C8.851 9.68496 8.82407 9.63593 8.90486 9.30169C8.94525 9.12788 8.96321 8.94516 9.0395 8.78917C9.16069 8.5396 9.06643 8.40145 8.84202 8.3034C8.76124 8.26775 8.72533 8.17862 8.64455 8.14296C8.60415 8.12959 8.56376 8.09394 8.55029 8.04937Z" fill="#3F403F"/>
<path d="M9.98657 8.88271L9.92822 8.82477C9.98657 8.63759 9.95964 8.41031 10.0943 8.26769C10.184 8.18302 10.2379 8.06715 10.2469 7.94682C10.2693 7.70616 10.4489 7.60366 10.6463 7.52344L11.1849 7.99584C11.2881 8.01367 11.324 8.09834 11.3644 8.1741L11.4273 8.28998C11.2029 8.38357 10.9066 8.90945 10.9066 9.21696C10.9066 9.28381 10.8932 9.35066 10.8887 9.41751C10.5162 9.34174 10.2424 9.12337 9.98657 8.88271Z" fill="#4F5150"/>
<path d="M13.2093 7.6438C13.1914 7.98696 12.9804 8.26327 12.8503 8.56632C12.7425 8.81144 12.6842 9.08775 12.4912 9.29721C12.554 8.89611 12.7829 8.55741 12.94 8.19197C13.0208 8.00479 13.0612 7.79532 13.2093 7.6438Z" fill="#626362"/>
<path d="M11.36 8.16971C11.2792 8.13406 11.2163 8.07167 11.1804 7.99145C11.1131 7.78644 11.0099 7.56807 11.36 7.51904C11.4183 7.55915 11.4766 7.64383 11.4363 7.67948C11.2792 7.83101 11.36 8.00482 11.36 8.16971Z" fill="#5A5B5A"/>
<path d="M6.99782 12.4971C7.20428 12.8803 7.55435 12.6842 7.83711 12.6798C7.97175 12.6798 8.11089 12.6352 8.25002 12.6753C8.39813 12.8759 8.31734 13.1076 8.33081 13.326C8.33081 13.3706 8.32183 13.4196 8.30837 13.4642C8.259 13.6068 8.17372 13.638 8.01215 13.6692C7.57679 13.7494 7.13247 13.7628 6.69711 13.8608C6.67467 13.8653 6.65223 13.8251 6.63428 13.8029C6.72853 13.531 6.85869 13.2681 6.87215 12.9739C6.83625 12.8803 6.92601 12.8179 6.9305 12.7377C7.01128 12.6664 6.94845 12.5684 6.99782 12.4971Z" fill="#505150"/>
<path d="M6.9349 12.7333C7.0112 12.8358 6.90797 12.8937 6.87655 12.9695C6.60726 13.1121 6.30207 13.1299 6.01034 13.1567C5.92955 13.1656 5.84876 13.1121 5.75002 13.1567C5.61986 13.219 5.50766 13.1656 5.44482 13.0274C5.55703 12.9784 5.6423 12.9026 5.7949 12.9115C6.12254 12.9294 6.45915 12.8937 6.79128 12.8625C6.84065 12.8625 6.88553 12.7823 6.9349 12.7333Z" fill="#5A5B5A"/>
<path d="M7.35652 11.1334V11.1914L5.69141 11.3741C6.23448 11.2136 6.7955 11.1691 7.35652 11.1334Z" fill="#626362"/>
<path d="M12.976 14.2174C12.8234 13.8207 12.5496 13.5088 12.2579 13.2102C12.231 13.0586 12.3656 13.0453 12.4509 13.0007C12.6169 12.916 12.7965 12.8625 12.9266 12.7199C13.0164 12.6174 13.0927 12.4837 13.2632 12.6085C13.555 12.8091 13.8332 13.0185 13.8826 13.4152C13.8916 13.531 13.9679 13.6335 14.0756 13.6826C14.2058 13.736 14.2327 13.8252 14.1115 13.9232C13.941 14.0168 13.7345 13.9856 13.5729 14.1015C13.4966 14.1817 13.3755 14.204 13.2722 14.1639L12.976 14.2174Z" fill="#505150"/>
<path d="M13.272 14.1594C13.3617 14.106 13.4695 14.0881 13.5727 14.097C13.5772 14.2798 13.7791 14.3466 13.824 14.458C13.9587 14.8146 14.2998 15.0374 14.412 15.4028C14.3312 15.5677 14.2324 15.4697 14.1965 15.3895C14.0215 15.0062 13.6355 14.7655 13.4964 14.36C13.4605 14.2664 13.2989 14.2753 13.272 14.1594Z" fill="#5B5C5B"/>
<path d="M10.6418 7.51906C10.5026 7.69733 10.2333 7.79092 10.3052 8.09843C10.3141 8.14299 10.2917 8.29452 10.1526 8.28115C10.1122 8.27669 10.1032 8.29898 10.0987 8.32571C10.0763 8.50398 10.0628 8.68224 9.92366 8.8204C9.72169 8.78029 9.58256 8.62431 9.41201 8.52626C9.25941 8.43713 9.32673 7.94244 9.50177 7.8756C9.59602 7.83994 9.58705 7.79983 9.58256 7.74635C9.56012 7.43885 9.90571 7.25167 9.85634 6.92188C9.84736 6.86394 9.97752 6.9397 10.0404 6.92188L10.3366 7.15808L10.6418 7.51906Z" fill="#4A4A4A"/>
<path d="M6.63876 13.8029C6.80033 13.7717 6.94396 13.6781 7.12797 13.7137C7.24915 13.736 7.3838 13.7048 7.50947 13.6781C7.72041 13.6291 7.91789 13.5399 8.1423 13.6291C8.16025 13.6335 8.21411 13.5488 8.2545 13.5043C8.42057 13.4909 8.39364 13.6023 8.3712 13.6959C8.32183 13.9054 8.31734 14.1193 8.30387 14.3287C8.2949 14.3555 8.28592 14.3778 8.26348 14.4001C7.78324 14.4714 7.28954 14.4624 6.80931 14.5694C6.68813 14.5961 6.60734 14.5115 6.51758 14.4535C6.53553 14.3555 6.55797 14.2574 6.57592 14.1549C6.59837 14.0391 6.6612 13.9277 6.63876 13.8029Z" fill="#4A4A4A"/>
<path d="M14.1113 13.9188C14.1203 13.9009 14.1337 13.8698 14.1337 13.8653C13.7298 13.5444 13.8061 12.8581 13.2181 12.6754C13.1867 12.5372 13.3034 12.5194 13.3887 12.4793C13.5682 12.3901 13.7477 12.3144 13.9317 12.2431C13.9587 12.2386 13.9856 12.2431 14.0125 12.252C14.0843 12.35 14.1203 12.457 14.2639 12.5105C14.4524 12.5773 14.4883 12.8091 14.5601 12.9606C14.6543 13.1701 14.7935 13.3528 14.964 13.5043C15.0224 13.5489 15.0403 13.6246 15.0089 13.687C14.8473 13.8029 14.6274 13.7316 14.4703 13.8653C14.3402 13.8252 14.2235 13.8698 14.1113 13.9188Z" fill="#4A4A4A"/>
<path d="M6.51756 14.4535C6.94394 14.4936 7.3793 14.4535 7.79221 14.3287C7.91788 14.5337 8.11985 14.2262 8.25449 14.3956C8.42504 14.4936 8.2904 14.6452 8.3263 14.7699C8.31732 14.8635 8.29488 14.9571 8.25449 15.0463C7.99418 15.0819 7.71591 15.18 7.47355 15.1265C7.34339 15.0997 7.19079 15.327 7.10552 15.0997C6.93945 15.3627 6.60284 15.0373 6.43229 15.2958C6.38292 15.278 6.32906 15.2557 6.28418 15.229L6.46371 14.6362L6.51756 14.4535Z" fill="#3F403F"/>
<path d="M15.0044 13.6826C14.982 13.5043 14.789 13.4865 14.6992 13.3528C14.5556 13.1389 14.4389 12.9072 14.3402 12.671C14.3132 12.6041 14.2683 12.5194 14.201 12.5328C13.9093 12.5996 14.0125 12.3857 13.9901 12.2609C14.0125 12.0649 14.21 12.0738 14.3267 11.9891C14.394 11.9624 14.4569 11.9356 14.5287 11.9668C14.605 12.1584 14.8608 12.2075 14.8967 12.4303C15.1346 12.3857 15.0269 12.7512 15.2513 12.7244C15.2019 12.9473 15.5206 13.0141 15.4712 13.2548C15.4577 13.3261 15.7719 13.286 15.6642 13.5088C15.5295 13.6291 15.3231 13.5667 15.1884 13.6871L15.0044 13.6826Z" fill="#3F403F"/>
<path d="M9.98674 8.88281L10.8844 9.41761C11.3646 9.70729 11.8493 9.99697 12.3296 10.2867C12.5899 10.4426 12.9085 10.505 13.0971 10.7769C13.0656 10.8125 13.0163 10.8259 12.9714 10.8214C12.7604 10.7858 12.563 10.7145 12.352 10.6833C12.2757 10.6744 12.1949 10.6655 12.1411 10.5942L10.4804 10.095C10.4176 10.0772 10.3503 10.0594 10.283 10.0371C10.1573 9.99697 10.0316 9.9524 9.90596 9.90784C10.0137 9.72066 9.84761 9.55131 9.87903 9.37304C9.888 9.33293 9.82068 9.14575 10.0361 9.2126C10.0945 9.23043 9.99572 8.99868 9.98674 8.88281Z" fill="#4A4A4A"/>
<path d="M12.3746 10.603C12.5765 10.6565 12.7875 10.6699 12.976 10.7768C13.1241 10.9373 13.2947 11.0175 13.5056 10.9061C13.5999 10.9417 13.6986 10.9729 13.7525 11.071C13.7031 11.2091 13.8377 11.2448 13.905 11.3116C14.107 11.5166 14.318 11.7083 14.5289 11.9044V11.9623L14.3494 12.0247C14.0936 12.0158 13.9993 11.7618 13.8063 11.6592C13.721 11.6147 13.6627 11.53 13.5909 11.4587C13.3261 11.2002 13.3036 11.2002 13.0209 11.4676C12.9895 11.4988 12.9536 11.5166 12.9087 11.5211C12.7247 11.4899 12.5855 11.3651 12.4509 11.2582C12.2579 11.1022 12.1367 11.1557 12.029 11.3473C11.9886 11.423 11.9347 11.4988 11.8988 11.579C11.8091 11.735 11.7283 11.8999 11.5802 12.0158C11.3333 12.1272 11.266 12.0915 11.2525 11.8375C11.248 11.7618 11.2705 11.6815 11.248 11.6058C11.2615 11.3072 11.3243 11.022 11.4904 10.7679C11.5891 10.7546 11.5847 10.8481 11.6251 10.8972C11.7597 11.0621 11.9572 11.071 12.1053 10.915C12.1995 10.8169 12.2624 10.6877 12.3746 10.603Z" fill="#2C2D2C"/>
<path d="M13.5057 10.9061C13.4384 11.0041 13.3217 11.1111 13.2274 11.0309C13.1421 10.9596 12.8998 11.0041 12.9761 10.7769H13.0928L13.5057 10.9061Z" fill="#212121"/>
<path d="M8.25439 13.3884C8.25439 13.1522 8.25439 12.9115 8.25439 12.6753C8.25439 11.6681 8.25439 10.6609 8.25888 9.64929C8.39802 9.65375 8.38904 9.77854 8.42046 9.86321C8.51022 10.1128 8.56408 10.3757 8.66282 10.6253C8.69872 10.7055 8.72565 10.7902 8.74809 10.8704C8.92762 11.5344 9.11164 12.1985 9.26423 12.8714C9.29565 12.9739 9.30912 13.0854 9.30463 13.1923C9.29565 13.2993 9.21038 13.433 9.13408 13.3839C8.95006 13.2636 8.86479 13.4954 8.72116 13.4553C8.56857 13.4107 8.41148 13.3884 8.25439 13.3884Z" fill="#4A4A4A"/>
<path d="M8.60447 10.6654C8.42495 10.349 8.41597 9.9702 8.25439 9.64932C8.25439 9.27496 8.25439 8.90061 8.25439 8.52179C8.32172 8.35244 8.24542 8.14744 8.37109 7.99146L8.55061 8.04939L8.66731 8.11178C8.7077 8.48614 8.52368 8.82039 8.46085 9.17692C8.43841 9.31953 8.4025 9.45323 8.5955 9.50225C8.88274 9.60921 8.87376 9.85433 8.86927 10.095C8.86479 10.2643 8.8603 10.4292 8.77502 10.5808C8.73912 10.6342 8.6718 10.6699 8.60447 10.6654Z" fill="#282828"/>
<path d="M8.37109 7.99148C8.37109 8.1742 8.33069 8.35693 8.25439 8.52182L8.25888 7.87561L8.37109 7.99148Z" fill="#202020"/>
<path d="M12.976 12.7332C12.8907 12.9561 12.6529 12.9516 12.4913 13.0586C12.415 13.1076 12.2983 13.0987 12.2579 13.2101C11.7822 13.4998 11.2436 13.6602 10.7903 14.0034C10.5569 14.1772 10.2921 14.3421 9.9824 14.3956C9.96893 14.3733 9.96444 14.3421 9.97342 14.3154C10.1081 14.1059 10.328 13.9722 10.4626 13.7672C10.521 13.6736 10.5883 13.5889 10.6691 13.5132C11.1044 13.0809 11.5757 12.6887 12.0111 12.2608C12.3252 11.9533 12.6798 12.0291 12.8279 12.4391C12.8683 12.5416 13.0388 12.5817 12.976 12.7332Z" fill="#4A4A4A"/>
<path d="M8.25445 15.0463C8.1961 14.9661 8.25445 14.8903 8.25445 14.8101C8.38012 14.663 8.56413 14.6496 8.73468 14.5917C9.00846 14.5026 9.2957 14.4625 9.55153 14.3198C9.59192 14.3109 9.63681 14.3243 9.66374 14.3555C9.71759 14.4134 9.7535 14.4937 9.7535 14.5739C9.65476 14.7165 9.49318 14.7655 9.3361 14.8145C8.94563 14.8012 8.59106 14.9215 8.25894 15.1087L8.25445 15.0463Z" fill="#2E2F2E"/>
<path d="M9.74862 14.5739L9.62744 14.3956C9.81594 14.195 9.88776 14.1861 9.9865 14.3377C9.9865 14.3555 9.98201 14.3778 9.98201 14.3956L9.74862 14.5739Z" fill="#222222"/>
<path d="M11.5398 10.7768C11.4141 11.062 11.3558 11.3651 11.2885 11.6637C11.2705 12.0291 11.1628 12.3723 11.0641 12.7199C11.0012 12.8492 11.0192 13.0185 10.8711 13.1032C10.7544 13.1121 10.7005 13.0185 10.6242 12.9561C10.5614 12.8893 10.4941 12.8224 10.4267 12.76C10.2741 12.613 10.0901 12.506 9.95099 12.35C9.71312 12.1094 9.47525 11.8732 9.23289 11.637C9.15659 11.5255 8.99052 11.4721 9.0354 11.2938C9.10273 11.2359 9.19249 11.2136 9.27328 11.1824C9.4169 11.1378 9.56052 11.1022 9.70414 11.062C10.2203 10.9462 10.7095 10.7278 11.2436 10.7055L11.5398 10.6565C11.5712 10.6788 11.5802 10.7278 11.5533 10.759C11.5488 10.7679 11.5443 10.7724 11.5398 10.7768Z" fill="black"/>
<path d="M11.2388 10.71C10.7316 10.8794 10.211 11.0175 9.68587 11.1289C9.70831 10.8615 9.58264 10.7278 9.31784 10.7011C9.21012 10.6877 9.10241 10.6788 8.9902 10.6788C8.89595 10.6744 8.8017 10.6788 8.72989 10.5986C8.75233 10.407 8.78823 10.2198 8.79721 10.0281C8.80619 9.80531 8.7613 9.63596 8.55036 9.53345C8.52792 9.50226 8.4965 9.4666 8.50548 9.42649C8.58627 9.01648 8.62217 8.59756 8.85107 8.22766C8.9139 8.25886 8.98571 8.28114 9.0306 8.32571C9.12934 8.4193 9.25949 8.46386 9.13831 8.68224C9.0306 8.87833 9.01713 9.14127 8.94532 9.37302C8.88249 9.58248 8.98123 9.68498 9.19217 9.734C9.32233 9.7652 9.58713 9.80531 9.52878 9.94346C9.448 10.1396 9.62752 10.2019 9.61855 10.3312C9.59611 10.5718 9.59162 10.5362 9.87437 10.5763C10.3277 10.6565 10.79 10.5852 11.2388 10.71Z" fill="#333333"/>
<path d="M11.5397 10.7768L11.5352 10.661C11.7282 10.554 11.9392 10.6209 12.1367 10.5941L12.37 10.603C12.3341 10.7635 12.2354 10.8883 12.1187 10.9908C12.0514 11.0531 12.011 11.2091 11.8719 11.1289C11.7327 11.0487 11.4634 11.0665 11.5397 10.7768Z" fill="#1F2020"/>
<path d="M8.85132 8.22763L8.55061 9.52897C8.37557 9.53342 8.29927 9.4844 8.3621 9.28385C8.4788 8.89613 8.56856 8.49949 8.67179 8.1073C8.77951 8.07611 8.75706 8.23654 8.85132 8.22763Z" fill="#2E2F2E"/>
<path d="M9.03993 11.3205C9.12072 11.4141 9.2015 11.5077 9.2778 11.6058C9.47079 11.9846 9.69072 12.35 9.90166 12.7199C9.93756 12.7779 9.96449 12.8447 9.97796 12.916C9.96449 12.9918 10.0004 13.0453 9.85229 13.0809C9.55607 13.1522 9.45284 13.433 9.48875 13.6959C9.5067 13.8029 9.5067 13.9098 9.43489 14.0034C9.17906 14.1995 8.91426 14.3644 8.56867 14.2976C8.46095 14.2753 8.3667 14.3778 8.2545 14.3377C8.21859 14.1104 8.24103 13.8786 8.31733 13.6603C8.35324 13.5667 8.32182 13.5399 8.2545 13.5043C8.2545 13.4642 8.2545 13.4241 8.2545 13.3884C8.35773 13.2993 8.49686 13.2725 8.60009 13.3349C8.85143 13.482 8.94119 13.3617 8.97709 13.1433C9.13867 13.1433 8.98607 13.4018 9.14765 13.3438C9.30922 13.2859 9.24639 13.1344 9.21497 13.0096C9.03544 12.3055 8.8604 11.5968 8.68087 10.8927C8.90528 10.9417 8.94119 11.1556 9.03993 11.3205Z" fill="#3F403F"/>
<path d="M10.8216 13.0899C10.9742 13.0186 10.8889 12.8269 11.0011 12.7333C11.2076 12.4971 11.3063 12.1852 11.5397 11.9623C11.6833 11.8554 11.7596 11.6994 11.8359 11.5479C11.9302 11.4677 12.0289 11.4409 12.1187 11.5568C12.3027 11.7885 12.4957 11.7752 12.6976 11.5791C12.7605 11.5211 12.8413 11.5211 12.9131 11.4899L12.9714 11.432C13.0522 11.383 13.1554 11.2983 13.2138 11.4365C13.308 11.6548 13.519 11.7217 13.685 11.8509C13.8107 11.9534 13.9992 12.0381 13.9274 12.2609C13.7748 12.4036 13.5728 12.457 13.3888 12.5462C13.317 12.5818 13.2407 12.5952 13.2093 12.6754C13.0836 12.515 13.0522 12.7289 12.9714 12.7333C12.9086 12.5818 12.6572 12.5283 12.756 12.2921C12.7739 12.2476 12.7066 12.2164 12.6528 12.252C12.6079 12.2832 12.5585 12.31 12.5226 12.2565C12.3206 11.9579 12.1905 12.1807 12.0469 12.3189C11.598 12.7333 11.1492 13.1523 10.7004 13.5667C10.6241 13.3751 10.7857 13.2503 10.8216 13.0899Z" fill="#3F403F"/>
<path d="M8.25409 14.3332C8.40669 14.2664 8.53236 14.1327 8.73882 14.2753C8.81512 14.3288 8.98118 14.1015 9.15173 14.1416C9.16968 14.0034 9.32677 14.0569 9.38511 13.9767C9.42551 14.0213 9.48834 14.0123 9.53322 14.0435C9.56913 14.0836 9.59606 14.1282 9.60503 14.1817C9.6185 14.2352 9.60055 14.2931 9.56015 14.3332C9.44346 14.5694 9.18315 14.507 8.99913 14.5917C8.76575 14.6987 8.49646 14.7388 8.24512 14.8101C8.24512 14.6719 8.24512 14.5338 8.24512 14.3956C8.25409 14.3733 8.25409 14.3555 8.25409 14.3332Z" fill="#343434"/>
<path d="M13.932 12.2609C13.8826 11.9579 13.5639 11.9089 13.3934 11.7217C13.3126 11.637 13.169 11.6415 13.1735 11.4543C13.1779 11.3384 13.0433 11.4498 12.9805 11.4275C13.2857 11.071 13.3036 11.0755 13.6313 11.3874C13.8646 11.6058 14.116 11.8108 14.3539 12.0203L13.9948 12.2565L13.932 12.2609Z" fill="#343434"/>
<path d="M12.913 11.4899C12.8277 11.5612 12.7469 11.628 12.6662 11.6993C12.4597 11.8776 12.2577 11.8464 12.1096 11.6414C12.0243 11.5255 11.9525 11.5166 11.8403 11.5478C12.1455 10.9818 12.1455 10.9818 12.6706 11.3294C12.7514 11.3829 12.8322 11.4364 12.913 11.4899Z" fill="#343434"/>
<path d="M11.5396 11.9623C11.3914 12.2297 11.2523 12.5015 11.0997 12.7689C11.0503 12.8536 11.0144 12.8091 11.001 12.7333C11.0593 12.3678 11.1715 12.0158 11.2882 11.6637C11.3825 11.7216 11.3062 11.8108 11.3107 11.8776C11.3241 12.1049 11.4139 12.0603 11.5396 11.9623Z" fill="#363636"/>
<path d="M9.03994 11.3206C8.83348 11.2493 8.84695 10.9953 8.67191 10.8928C8.64947 10.817 8.62703 10.7412 8.6001 10.6655C8.62703 10.6209 8.6764 10.5942 8.72577 10.5986H9.02199C9.40348 10.7591 9.47978 10.9685 9.26435 11.2404L9.03994 11.3206Z" fill="#202020"/>
<path d="M10.8214 13.0899C10.9515 13.2904 10.6822 13.3929 10.7002 13.5623L10.5206 13.7985C10.4039 13.8743 10.3636 13.7762 10.3097 13.7094C10.2738 13.647 10.2469 13.5801 10.2334 13.5088C10.2558 13.0899 10.3142 13.0052 10.6373 12.9116L10.8214 13.0899Z" fill="#212121"/>
<path d="M10.3459 13.6826C10.4088 13.7183 10.4312 13.8119 10.521 13.7985C10.3684 13.999 10.1888 14.1818 9.98687 14.3333C9.83427 14.1728 9.7445 14.3511 9.62781 14.3912L9.56947 14.3288C9.56947 14.2709 9.56947 14.2085 9.56947 14.1506C9.53805 14.0436 9.62781 14.0169 9.69065 13.9857C9.90608 13.8876 10.108 13.7495 10.3459 13.6826Z" fill="#292929"/>
<path d="M9.26873 11.2448C9.4303 10.9418 9.22385 10.7724 9.02637 10.6031C9.21038 10.5719 9.37645 10.6521 9.55597 10.6699C9.7355 10.6878 9.78936 10.9418 9.68613 11.1334C9.55597 11.1958 9.41684 11.2359 9.26873 11.2448Z" fill="#292929"/>
<path d="M10.6375 12.9115C10.4176 13.0497 10.2695 13.2279 10.2829 13.5042C10.2605 13.5221 10.2246 13.5221 10.2022 13.5042C10.09 13.3616 10.0002 13.2056 9.99121 13.0185C10.1079 12.6575 10.1797 12.6129 10.458 12.7332C10.5343 12.7733 10.5971 12.8357 10.6375 12.9115Z" fill="#2A2A2A"/>
<path d="M10.4578 12.7333C10.1885 12.6531 10.1032 12.8224 10.0449 13.0274C9.92816 13.0631 9.97753 12.9338 9.92817 12.9071C9.91021 12.8492 9.88777 12.7912 9.86533 12.7288C9.82494 12.6709 9.79352 12.613 9.76659 12.5506C9.7262 12.457 9.69029 12.3634 9.77108 12.2787C9.85187 12.194 9.93265 12.3055 10.0134 12.3055L10.4578 12.7333Z" fill="#303130"/>
<path d="M10.0094 12.31C9.75802 12.261 9.72211 12.3679 9.81188 12.5729C9.83432 12.6264 9.84778 12.6843 9.86573 12.7378C9.59195 12.4169 9.45282 12.0203 9.22841 11.6682C9.22392 11.6593 9.25983 11.6281 9.27778 11.6058C9.55605 11.8019 9.78495 12.0604 10.0094 12.31Z" fill="#343434"/>
<path d="M9.92825 12.9116L10.0449 13.0319L10.2245 13.5044C10.1751 13.6425 10.0404 13.6737 9.92825 13.7272C9.76667 13.794 9.61856 13.901 9.50636 14.0391C9.44352 14.0703 9.38518 14.0837 9.38518 13.9812C9.4121 13.9188 9.47045 13.852 9.43006 13.7896C9.27297 13.5489 9.56919 13.3484 9.48392 13.1122C9.46596 13.0676 9.54226 13.0765 9.59163 13.0854C9.73974 13.1033 9.88785 13.1033 9.92825 12.9116Z" fill="#343434"/>
<path d="M9.50665 14.0391C9.48869 13.9054 9.5605 13.8296 9.6772 13.7717C9.86121 13.687 10.0407 13.5934 10.2203 13.5043H10.2786L10.3414 13.6825C10.1395 13.9321 9.7894 13.9455 9.56499 14.1549C9.5246 14.1327 9.50216 14.0881 9.50665 14.0391Z" fill="#2E2F2E"/>
</svg>
