<svg width="20" height="20" viewBox="0 0 20 20" fill="none" xmlns="http://www.w3.org/2000/svg">
<path fill-rule="evenodd" clip-rule="evenodd" d="M9.52433 0.162724C9.3454 0.249206 9.05563 0.653089 8.88042 1.06026C6.46803 6.66801 1.56006 18.6085 1.56006 18.8699C1.56006 19.4199 2.10987 20 2.631 20C2.99336 20 3.25027 19.8181 3.92719 19.0822C4.96423 17.9546 5.9236 17.4644 7.09731 17.4623C8.43681 17.4599 9.27131 17.8315 10.3411 18.9065C11.3606 19.9311 11.7927 20.0735 12.3106 19.5556C13.0356 18.8306 12.7754 17.9403 11.481 16.7161C10.0773 15.3884 7.97497 14.7058 6.30866 15.0365C5.87386 15.1226 5.49761 15.1731 5.47252 15.1486C5.44742 15.1241 5.64055 14.5948 5.90179 13.9725C6.48342 12.5869 7.10478 11.8378 8.15317 11.2584C8.82859 10.8852 9.11687 10.8166 9.99916 10.8191C11.2613 10.8227 12.1306 11.1757 12.9638 12.0223C13.425 12.4911 13.8307 13.2998 15.018 16.1165C15.8316 18.0471 16.6108 19.7107 16.7496 19.8133C17.4142 20.3055 18.4383 19.7165 18.4383 18.842C18.4383 18.518 11.6828 2.14524 10.9581 0.712984C10.5918 -0.0108377 10.1969 -0.162443 9.52433 0.162724ZM10.9965 6.48249L11.8024 8.42424H10.042C9.07385 8.42424 8.28192 8.39063 8.28237 8.34955C8.28266 8.30848 8.5911 7.53552 8.96765 6.63186C9.3442 5.7282 9.71597 4.82664 9.79394 4.62843C9.87624 4.41917 9.98901 4.32522 10.0631 4.40438C10.1331 4.47936 10.5533 5.41454 10.9965 6.48249Z" fill="#FC452D"/>
</svg>
