<svg width="20" height="20" viewBox="0 0 20 20" fill="none" xmlns="http://www.w3.org/2000/svg">
<path d="M10.0001 19.274C15.122 19.274 19.2741 15.1219 19.2741 10C19.2741 4.87813 15.122 0.726013 10.0001 0.726013C4.87819 0.726013 0.726074 4.87813 0.726074 10C0.726074 15.1219 4.87819 19.274 10.0001 19.274Z" fill="white"/>
<path d="M11.5468 13.5292C11.4965 13.428 11.4572 13.3216 11.4295 13.2121C11.3954 13.0873 11.3678 12.9609 11.3468 12.8333C11.236 12.9527 11.1137 13.061 10.9816 13.1564C10.8409 13.2605 10.6898 13.3497 10.5307 13.4225C10.3502 13.5015 10.1617 13.561 9.96852 13.5998C9.75354 13.6451 9.53436 13.6673 9.31468 13.666C8.95722 13.6696 8.60164 13.6137 8.26252 13.5006C7.96145 13.4002 7.68237 13.243 7.44034 13.0377C7.20852 12.8415 7.02285 12.5966 6.89658 12.3204C6.7703 12.0442 6.70654 11.7436 6.70984 11.4399C6.70984 10.6553 7.00244 10.0486 7.58764 9.61969C8.17284 9.19081 9.04663 8.97587 10.209 8.97486H11.2762V8.53596C11.2837 8.37702 11.2561 8.21838 11.1953 8.07133C11.1345 7.92428 11.042 7.79245 10.9245 7.68522C10.6915 7.47629 10.3533 7.37258 9.9129 7.37258C9.5221 7.37258 9.23802 7.45525 9.05915 7.62359C8.96873 7.70972 8.8979 7.81431 8.85147 7.93024C8.80505 8.04617 8.78412 8.17073 8.7901 8.29547H6.87668C6.87632 7.98265 6.94834 7.67398 7.08711 7.39362C7.23308 7.10061 7.44259 6.84386 7.70037 6.64208C7.99443 6.41245 8.32813 6.23872 8.68489 6.12953C9.11577 5.9948 9.5652 5.92886 10.0166 5.93413C10.4416 5.93093 10.865 5.98657 11.2747 6.09947C11.6385 6.19837 11.9806 6.36458 12.2833 6.58947C12.5708 6.80494 12.8023 7.08642 12.9581 7.41016C13.1254 7.76624 13.2083 8.15615 13.2001 8.54949V11.745C13.195 12.0773 13.2201 12.4094 13.2753 12.7371C13.3172 12.9712 13.3915 13.1984 13.4963 13.412V13.5292H11.5468ZM9.72051 12.1854C9.90008 12.1865 10.079 12.1637 10.2526 12.1178C10.4093 12.0752 10.5607 12.0147 10.7035 11.9374C10.8293 11.8701 10.9452 11.7856 11.0477 11.6864C11.1362 11.6022 11.2126 11.5061 11.2747 11.4008V10.1202H10.2992C10.042 10.1154 9.78534 10.1442 9.53563 10.2059C9.34949 10.2507 9.17387 10.3314 9.01857 10.4434C8.88868 10.5404 8.7853 10.6686 8.71796 10.8161C8.65271 10.9648 8.61991 11.1257 8.62176 11.2881C8.61897 11.409 8.64238 11.5292 8.69038 11.6402C8.73837 11.7512 8.80983 11.8506 8.89983 11.9314C9.0812 12.1018 9.35476 12.1864 9.72051 12.1854Z" fill="#222326"/>
<path d="M9.99984 19.274C15.1217 19.274 19.2739 15.1219 19.2739 10C19.2739 4.87813 15.1217 0.726013 9.99984 0.726013C4.87795 0.726013 0.72583 4.87813 0.72583 10C0.72583 15.1219 4.87795 19.274 9.99984 19.274Z" stroke="#222326" stroke-miterlimit="10"/>
</svg>
