<svg width="20" height="20" viewBox="0 0 20 20" fill="none" xmlns="http://www.w3.org/2000/svg">
<path d="M12.1606 9.16341L13.6293 6.67135L17.5881 12.8373L17.59 14.0203L17.577 5.87762C17.5724 5.7794 17.5442 5.68373 17.4949 5.5987C17.4455 5.51366 17.3764 5.44175 17.2934 5.38904L10.1661 1.28956C10.0809 1.2491 9.98778 1.22832 9.89351 1.22877C9.79924 1.22921 9.70627 1.25087 9.62151 1.29213C9.59951 1.30315 9.57819 1.31548 9.55765 1.32904L9.53286 1.34472L2.6145 5.35369L2.58756 5.36581C2.5517 5.38241 2.51749 5.40236 2.48537 5.42538C2.35562 5.51804 2.26719 5.65771 2.23894 5.81462C2.23462 5.83842 2.23166 5.86246 2.2301 5.8866L2.24094 12.522L5.92837 6.80674C6.39258 6.04893 7.40408 5.80479 8.34305 5.81804L9.44506 5.84655L2.95157 16.2601L3.71708 16.7008L10.2884 5.85695L13.1929 5.8464L6.63858 16.9634L9.37023 18.5355L9.69662 18.7232C9.83741 18.7792 9.9937 18.7822 10.1366 18.7319L17.3641 14.5435L15.9816 15.3442L12.1606 9.16341ZM12.721 17.2342L9.96229 12.9044L11.6462 10.0469L15.2692 15.7574L12.721 17.2342Z" fill="#2D374B"/>
<path d="M9.96228 12.9044L12.721 17.2341L15.2694 15.7572L11.6465 10.0469L9.96228 12.9044Z" fill="#28A0F0"/>
<path d="M17.5904 14.0204L17.5885 12.8374L13.6297 6.67148L12.1602 9.16326L15.9819 15.344L17.3644 14.5433C17.4313 14.4891 17.486 14.4213 17.525 14.3445C17.564 14.2676 17.5863 14.1834 17.5905 14.0974L17.5904 14.0204Z" fill="#28A0F0"/>
<path d="M1.00073 15.1364L2.95206 16.2607L9.44555 5.84722L8.34353 5.81871C7.40457 5.80546 6.39306 6.04946 5.92886 6.80742L2.24142 12.5227L1.00145 14.4287V15.1369L1.00073 15.1364Z" fill="white"/>
<path d="M13.1932 5.84708L10.2888 5.85762L3.71753 16.7014L6.01434 18.0239L6.63889 16.9645L13.1932 5.84708Z" fill="white"/>
<path d="M18.8139 5.83215C18.8006 5.53241 18.7146 5.2404 18.5633 4.98131C18.412 4.72221 18.2 4.50379 17.9455 4.34489L10.7248 0.192538C10.4671 0.0658673 10.1837 0 9.89648 0C9.60927 0 9.32588 0.0658673 9.06812 0.192538C9.00783 0.222896 2.04614 4.26052 2.04614 4.26052C1.94942 4.30696 1.8569 4.3617 1.76964 4.42414C1.54359 4.58489 1.3569 4.79477 1.2236 5.03802C1.0903 5.28126 1.01385 5.55156 1 5.82859V14.4283L2.23998 12.5223L2.23043 5.88717C2.23623 5.7962 2.26213 5.70765 2.30627 5.6279C2.35041 5.54814 2.41169 5.47917 2.48569 5.42595C2.51847 5.40244 9.59903 1.30396 9.62154 1.2927C9.70631 1.25144 9.79927 1.22978 9.89355 1.22934C9.98782 1.22889 10.081 1.24967 10.1661 1.29013L17.2934 5.38989C17.3764 5.44261 17.4455 5.51452 17.4949 5.59955C17.5443 5.68459 17.5724 5.78026 17.5771 5.87847V14.0982C17.5753 14.1835 17.5554 14.2673 17.5187 14.3442C17.482 14.4211 17.4292 14.4893 17.364 14.5442L15.9815 15.3449L15.2689 15.7582L12.7205 17.2351L10.1361 18.7329C9.99318 18.7833 9.83687 18.7802 9.69609 18.7242L6.63847 16.9656L6.01392 18.0248L8.76183 19.6069C8.85276 19.6585 8.93371 19.7044 9.00013 19.7417C9.10303 19.7987 9.17316 19.8379 9.19782 19.8499C9.42771 19.9506 9.67627 20.0018 9.92726 20C10.1575 20.0003 10.3857 19.9574 10.6 19.8734L18.1064 15.5263C18.3182 15.3616 18.4913 15.1524 18.6134 14.9136C18.7356 14.6747 18.804 14.412 18.8136 14.1438L18.8139 5.83215Z" fill="#96BEDC"/>
</svg>
