<svg width="21" height="20" viewBox="0 0 21 20" fill="none" xmlns="http://www.w3.org/2000/svg">
<path d="M12.1605 9.16341L13.6292 6.67135L17.588 12.8373L17.5899 14.0203L17.5769 5.87762C17.5723 5.7794 17.5441 5.68373 17.4947 5.5987C17.4454 5.51366 17.3763 5.44175 17.2933 5.38904L10.166 1.28956C10.0808 1.2491 9.98766 1.22832 9.89339 1.22877C9.79911 1.22921 9.70615 1.25087 9.62138 1.29213C9.59939 1.30315 9.57807 1.31548 9.55753 1.32904L9.53273 1.34472L2.61437 5.35369L2.58744 5.36581C2.55158 5.38241 2.51736 5.40236 2.48524 5.42538C2.3555 5.51804 2.26707 5.65771 2.23882 5.81462C2.23449 5.83842 2.23154 5.86246 2.22998 5.8866L2.24081 12.522L5.92825 6.80674C6.39246 6.04893 7.40396 5.80479 8.34293 5.81804L9.44494 5.84655L2.95145 16.2601L3.71696 16.7008L10.2883 5.85695L13.1928 5.8464L6.63846 16.9634L9.37011 18.5355L9.6965 18.7232C9.83729 18.7792 9.99358 18.7822 10.1365 18.7319L17.364 14.5435L15.9815 15.3442L12.1605 9.16341ZM12.7209 17.2342L9.96217 12.9044L11.6461 10.0469L15.2691 15.7574L12.7209 17.2342Z" fill="#2D374B"/>
<path d="M9.9624 12.9044L12.7211 17.234L15.2695 15.7572L11.6466 10.0469L9.9624 12.9044Z" fill="#28A0F0"/>
<path d="M17.5904 14.0204L17.5885 12.8375L13.6297 6.67151L12.1602 9.16329L15.9819 15.3441L17.3644 14.5434C17.4313 14.4891 17.486 14.4213 17.525 14.3445C17.564 14.2677 17.5863 14.1835 17.5905 14.0974L17.5904 14.0204Z" fill="#28A0F0"/>
<path d="M1.00049 15.1364L2.95181 16.2608L9.4453 5.84725L8.34329 5.81875C7.40433 5.80549 6.39282 6.04949 5.92861 6.80745L2.24118 12.5227L1.0012 14.4287V15.137L1.00049 15.1364Z" fill="white"/>
<path d="M13.193 5.84705L10.2886 5.85759L3.71729 16.7014L6.01409 18.0239L6.63864 16.9645L13.193 5.84705Z" fill="white"/>
<path d="M18.8139 5.83215C18.8006 5.53241 18.7146 5.2404 18.5633 4.98131C18.412 4.72221 18.2 4.50379 17.9455 4.34489L10.7248 0.192538C10.4671 0.0658673 10.1837 0 9.89648 0C9.60927 0 9.32588 0.0658673 9.06812 0.192538C9.00783 0.222896 2.04614 4.26052 2.04614 4.26052C1.94942 4.30696 1.8569 4.3617 1.76964 4.42414C1.54359 4.58489 1.3569 4.79477 1.2236 5.03802C1.0903 5.28126 1.01385 5.55156 1 5.82859V14.4283L2.23998 12.5223L2.23043 5.88717C2.23623 5.7962 2.26213 5.70765 2.30627 5.6279C2.35041 5.54814 2.41169 5.47917 2.48569 5.42595C2.51847 5.40244 9.59903 1.30396 9.62154 1.2927C9.70631 1.25144 9.79927 1.22978 9.89355 1.22934C9.98782 1.22889 10.081 1.24967 10.1661 1.29013L17.2934 5.38989C17.3764 5.44261 17.4455 5.51452 17.4949 5.59955C17.5443 5.68459 17.5724 5.78026 17.5771 5.87847V14.0982C17.5753 14.1835 17.5554 14.2673 17.5187 14.3442C17.482 14.4211 17.4292 14.4893 17.364 14.5442L15.9815 15.3449L15.2689 15.7582L12.7205 17.2351L10.1361 18.7329C9.99318 18.7833 9.83687 18.7802 9.69609 18.7242L6.63847 16.9656L6.01392 18.0248L8.76183 19.6069C8.85276 19.6585 8.93371 19.7044 9.00013 19.7417C9.10303 19.7987 9.17316 19.8379 9.19782 19.8499C9.42771 19.9506 9.67627 20.0018 9.92726 20C10.1575 20.0003 10.3857 19.9574 10.6 19.8734L18.1064 15.5263C18.3182 15.3616 18.4913 15.1524 18.6134 14.9136C18.7356 14.6747 18.804 14.412 18.8136 14.1438L18.8139 5.83215Z" fill="#96BEDC"/>
<path d="M17.0312 10L20.071 15.0231L17.0425 13.7287L17.0312 10Z" fill="#E68F7B"/>
<path d="M14 15.0231L17.0314 10L17.0427 13.7287L14 15.0231Z" fill="#F8EC7C"/>
<path d="M17.0314 16.875L14 15.0229L17.0427 13.7285L17.0314 16.875Z" fill="#6EB87D"/>
<path d="M20.071 15.0229L17.0425 13.7285L17.0312 16.875L20.071 15.0229Z" fill="#946BA7"/>
<path d="M17.0312 17.5126L20.071 15.7107L17.0312 19.9938V17.5126Z" fill="#697CB9"/>
<path d="M17.0314 17.5126L14 15.7107L17.0314 19.9938V17.5126Z" fill="#4FADD0"/>
</svg>
