<svg width="20" height="20" viewBox="0 0 20 20" fill="none" xmlns="http://www.w3.org/2000/svg">
<circle cx="10" cy="10" r="10" fill="black"/>
<path d="M3.60001 11.8998L5.25001 11.2998L10.2 3.9498L15.25 11.4998L17.15 12.3498L11.1 3.2498C10.9833 3.01647 10.64 2.5498 10.2 2.5498C9.76001 2.5498 9.41667 3.01647 9.30001 3.2498L3.60001 11.8998Z" fill="white"/>
<mask id="mask0_705_1222" style="mask-type:alpha" maskUnits="userSpaceOnUse" x="0" y="0" width="20" height="20">
<circle cx="10" cy="10" r="10" fill="black"/>
</mask>
<g mask="url(#mask0_705_1222)">
<g filter="url(#filter0_f_705_1222)">
<path d="M1 16.3999C4.53333 14.7165 12.76 11.9899 17.4 14.5499" stroke="url(#paint0_linear_705_1222)" stroke-width="1.6" stroke-linecap="round"/>
</g>
<path fill-rule="evenodd" clip-rule="evenodd" d="M8.83068 14.1294C5.7773 14.6969 2.85809 15.7916 1.10752 16.6256C0.982874 16.6849 0.833686 16.632 0.774302 16.5074C0.714918 16.3827 0.767824 16.2336 0.892472 16.1742C2.67523 15.3248 5.63603 14.2145 8.73932 13.6378C11.8316 13.0631 15.1218 13.0074 17.5208 14.331C17.6417 14.3977 17.6856 14.5497 17.6189 14.6706C17.5522 14.7915 17.4001 14.8355 17.2792 14.7688C15.0382 13.5323 11.895 13.5599 8.83068 14.1294Z" fill="url(#paint1_linear_705_1222)"/>
</g>
<defs>
<filter id="filter0_f_705_1222" x="-0.200201" y="12.3021" width="18.8003" height="5.29805" filterUnits="userSpaceOnUse" color-interpolation-filters="sRGB">
<feFlood flood-opacity="0" result="BackgroundImageFix"/>
<feBlend mode="normal" in="SourceGraphic" in2="BackgroundImageFix" result="shape"/>
<feGaussianBlur stdDeviation="0.2" result="effect1_foregroundBlur_705_1222"/>
</filter>
<linearGradient id="paint0_linear_705_1222" x1="17.4" y1="14.9999" x2="1.75" y2="16.3999" gradientUnits="userSpaceOnUse">
<stop stop-color="#1B7FB0"/>
<stop offset="1"/>
</linearGradient>
<linearGradient id="paint1_linear_705_1222" x1="17.4" y1="14.9999" x2="1.75" y2="16.3999" gradientUnits="userSpaceOnUse">
<stop stop-color="white"/>
<stop offset="1" stop-color="white" stop-opacity="0"/>
</linearGradient>
</defs>
</svg>
