<svg width="20" height="20" viewBox="0 0 20 20" fill="none" xmlns="http://www.w3.org/2000/svg">
<circle cx="10.054" cy="10.0541" r="7.89189" fill="#00A182"/>
<path fill-rule="evenodd" clip-rule="evenodd" d="M9.99999 19.4594C15.2243 19.4594 19.4594 15.2243 19.4594 9.99999C19.4594 4.77568 15.2243 0.540527 9.99999 0.540527C4.77566 0.540527 0.540527 4.77568 0.540527 9.99999C0.540527 15.2243 4.77566 19.4594 9.99999 19.4594ZM10.0511 17.5164C14.1741 17.5164 17.5164 14.1741 17.5164 10.0511C17.5164 5.92815 14.1741 2.58582 10.0511 2.58582C5.92813 2.58582 2.58582 5.92815 2.58582 10.0511C2.58582 14.1741 5.92813 17.5164 10.0511 17.5164Z" fill="#009275"/>
<path fill-rule="evenodd" clip-rule="evenodd" d="M10 20C15.5229 20 20 15.5228 20 10C20 4.47716 15.5229 0 10 0C4.47714 0 0 4.47716 0 10C0 15.5228 4.47714 20 10 20ZM10.0541 17.9459C14.4126 17.9459 17.9459 14.4126 17.9459 10.0541C17.9459 5.69548 14.4126 2.16216 10.0541 2.16216C5.69547 2.16216 2.16216 5.69548 2.16216 10.0541C2.16216 14.4126 5.69547 17.9459 10.0541 17.9459Z" fill="url(#paint0_linear_4005_53229)"/>
<path d="M6.83919 14.5946H5.08105L9.70772 4.04578H10.3554L14.9821 14.5946H13.224L9.98531 7.46951L6.83919 14.5946Z" fill="#01826B"/>
<path d="M6.83919 14.2244H5.08105L9.70772 3.67566H10.3554L14.9821 14.2244H13.224L9.98531 7.09939L6.83919 14.2244Z" fill="#01CFBA"/>
<path d="M6.83919 14.4095H5.08105L9.70772 3.86072H10.3554L14.9821 14.4095H13.224L9.98531 7.28445L6.83919 14.4095Z" fill="#00B48F"/>
<path d="M9.98545 14.5946L12.2988 12.3738L9.98545 12.8364V14.5946Z" fill="#01826B"/>
<path d="M7.76465 12.3738L9.98545 14.5946V12.8364L7.76465 12.3738Z" fill="#01826B"/>
<path d="M9.98545 11.3559L7.76465 12.3738L9.98545 12.8364V11.3559Z" fill="#01826B"/>
<path d="M12.2988 12.3738L9.98545 11.3559V12.8364L12.2988 12.3738Z" fill="#01826B"/>
<path d="M9.98545 14.4095L12.2988 12.1887L9.98545 12.6514V14.4095Z" fill="#007D65"/>
<path d="M12.2987 12.1887L9.98535 11.1708V12.6514L12.2987 12.1887Z" fill="#02B492"/>
<path d="M9.98545 11.1708L7.76465 12.1887L9.98545 12.6514V11.1708Z" fill="#01D2BD"/>
<path d="M7.76465 12.1887L9.98545 14.4095V12.6514L7.76465 12.1887Z" fill="#03B291"/>
<defs>
<linearGradient id="paint0_linear_4005_53229" x1="10" y1="0" x2="10" y2="20" gradientUnits="userSpaceOnUse">
<stop stop-color="#00B491"/>
<stop offset="1" stop-color="#00B491"/>
</linearGradient>
</defs>
</svg>
