<svg width="20" height="20" viewBox="0 0 20 20" fill="none" xmlns="http://www.w3.org/2000/svg">
<circle cx="10" cy="10" r="10" fill="url(#paint0_linear_4005_53536)"/>
<path d="M13.4596 5.27187C13.7524 5.36262 14.3186 5.69872 14.3186 5.78182C14.3186 5.80499 13.7401 6.11423 13.0331 6.46903L11.7476 7.11409L9.89892 7.11437C8.7302 7.11451 7.98529 7.13271 7.8737 7.1638C7.77658 7.19084 7.62159 7.28237 7.52928 7.36718L7.36139 7.52141L7.34729 8.46844L7.33319 9.41546L6.42949 9.88861C5.93247 10.1488 5.48937 10.3766 5.44478 10.3948C5.36832 10.426 5.36377 10.3383 5.36377 8.82333C5.36377 7.92458 5.38439 7.10976 5.41066 6.97088C5.55673 6.19821 6.19754 5.49174 6.97169 5.24985C7.13876 5.19766 7.74333 5.1849 10.1693 5.18241C13.0405 5.17946 13.1729 5.18305 13.4596 5.27187Z" fill="white"/>
<path d="M14.9351 11.3962C14.7417 12.0696 14.2671 12.5878 13.572 12.8847C13.3333 12.9867 13.307 12.9877 10.3463 13.0105L7.36139 13.0336L7.33843 14.1161C7.31666 15.1428 7.31019 15.2061 7.21306 15.3427C7.03217 15.5971 6.88072 15.6363 6.08011 15.6363H5.36377V13.9661V12.2959L6.65938 11.6167L7.95498 10.9376H10.2305C13.2466 10.9376 12.9983 11.0729 13.0328 9.41021L13.0558 8.30389L14.0201 7.80937L14.9845 7.3148L14.9965 9.22779C15.0068 10.8679 14.998 11.1772 14.9351 11.3962Z" fill="white"/>
<defs>
<linearGradient id="paint0_linear_4005_53536" x1="2.68027e-07" y1="9.45455" x2="20" y2="9.31818" gradientUnits="userSpaceOnUse">
<stop stop-color="#B58F31"/>
<stop offset="1" stop-color="#F2DE98"/>
</linearGradient>
</defs>
</svg>
