<svg width="20" height="20" viewBox="0 0 20 20" fill="none" xmlns="http://www.w3.org/2000/svg">
<path d="M14.983 14.9599L9.96 19.9829L7.46835 17.4913C10.1552 17.3324 12.7495 16.4589 14.983 14.9599V14.9599ZM19.7446 9.80123L19.1292 9.18907L9.96 0.0166016L0.787535 9.18907L0 9.9766L0.284571 10.2215C0.605541 10.4895 0.936439 10.7443 1.27726 10.9825C4.90389 13.5371 9.40078 14.308 13.5535 13.2922C15.2477 12.8819 16.8559 12.1771 18.3085 11.2108C18.6692 10.9726 19.02 10.7145 19.3641 10.4432C19.5527 10.291 19.738 10.1354 19.92 9.9766L19.7446 9.80123ZM12.3789 12.1076C9.64234 10.4266 6.4922 9.54313 3.2825 9.55636C7.46504 7.73312 12.5973 7.48495 17.3026 10.1917C15.8036 11.1447 14.1293 11.7965 12.3789 12.1076V12.1076Z" fill="#2B71FF"/>
</svg>
