<svg width="20" height="20" viewBox="0 0 20 20" fill="none" xmlns="http://www.w3.org/2000/svg">
<g clip-path="url(#clip0_5016_67621)">
<path d="M19.9741 9.32155C19.5998 3.81088 14.8298 -0.35112 9.32079 0.023213C6.57645 0.210213 4.16645 1.48855 2.48445 3.40355L2.47945 3.40021C2.46745 3.41555 2.45712 3.43088 2.44679 3.44621C0.776454 5.37321 -0.163546 7.93355 0.0231205 10.6785C0.0404538 10.9405 0.0711205 11.1972 0.108787 11.4519C0.108787 11.4642 0.11212 11.4742 0.113787 11.4862C0.139454 11.6539 0.168787 11.8219 0.20112 11.9862C0.231769 12.1381 0.266001 12.2893 0.303787 12.4395C1.45912 17.0449 5.77345 20.3065 10.6781 19.9729C16.1871 19.5982 20.3508 14.8285 19.9761 9.31821L19.9741 9.32155V9.32155ZM17.7975 9.47021C17.8438 10.1482 17.8008 10.8122 17.6795 11.4522C17.6795 11.4489 17.6761 11.4455 17.6761 11.4419C16.9501 9.67055 15.5161 8.39055 14.2565 7.68355C14.5115 4.68188 13.4931 3.41555 12.3398 3.21021C12.1163 3.16823 11.8866 3.17238 11.6648 3.22239C11.443 3.27241 11.2337 3.36724 11.0499 3.50107C10.8661 3.6349 10.7115 3.80489 10.5958 4.00061C10.48 4.19633 10.4055 4.41365 10.3768 4.63921C10.3487 4.85681 10.3638 5.0778 10.4212 5.28955C10.4787 5.5013 10.5773 5.69964 10.7115 5.87321C10.8457 6.04679 11.0128 6.19219 11.2033 6.3011C11.3937 6.41 11.6038 6.48027 11.8215 6.50788C11.9018 6.51821 11.9805 6.52155 12.0575 6.51988C12.0631 6.62701 12.066 6.73427 12.0661 6.84155C10.9998 6.57821 10.0038 6.52488 9.09512 6.60721C8.75342 6.62963 8.41337 6.67248 8.07679 6.73555C8.19012 5.72221 8.57145 4.58255 9.30912 3.75088C10.0225 2.94488 11.0838 2.48455 12.2405 2.60255C12.4598 2.62488 12.6941 2.67955 12.9045 2.74988C12.9148 2.75321 12.9251 2.75655 12.9338 2.75821C15.6138 3.85021 17.5871 6.39488 17.7958 9.47021H17.7975V9.47021ZM10.8271 10.9969C10.8271 10.9969 10.8271 10.9985 10.8255 11.0002C10.5726 11.3636 10.2861 11.7023 9.96979 12.0119C9.49067 11.5058 9.08504 10.9349 8.76479 10.3159C8.74945 10.2832 8.73245 10.2542 8.71679 10.2215V10.2182C8.52912 9.81707 8.37903 9.39939 8.26845 8.97055C8.97845 8.80288 9.67512 8.74121 10.3411 8.77388L10.4471 8.77888H10.4505C10.8681 8.81321 11.3028 8.89021 11.7528 9.01355C11.5439 9.71594 11.2325 10.3837 10.8288 10.9952L10.8271 10.9969V10.9969ZM7.41112 2.62321L7.40612 2.62988C6.23379 4.14288 5.84345 6.02355 5.86079 7.46788C3.13279 8.74788 2.54745 10.2625 2.94445 11.3645C2.95445 11.3955 2.96679 11.4245 2.97879 11.4539C3.14983 11.8625 3.47608 12.1864 3.88586 12.3545C4.29564 12.5227 4.7554 12.5212 5.16412 12.3505C5.57269 12.1795 5.89664 11.8532 6.06478 11.4435C6.23291 11.0337 6.23148 10.5739 6.06079 10.1652C6.02972 10.0926 5.99375 10.0222 5.95312 9.95455C6.03879 9.89788 6.13112 9.84188 6.23045 9.78355C6.53479 10.8395 6.98512 11.7312 7.51045 12.4772C7.70045 12.7595 7.90579 13.0315 8.12979 13.2935C7.19545 13.7025 6.01812 13.9422 4.92779 13.7195C3.87379 13.5042 2.94445 12.8162 2.46712 11.7549C2.37568 11.5467 2.30684 11.3294 2.26179 11.1065C2.23364 10.9152 2.21252 10.7228 2.19845 10.5299C1.95512 6.94788 4.17679 3.75955 7.41112 2.62321V2.62321ZM10.5291 17.7979C8.40212 17.9432 6.41345 17.2179 4.91079 15.9272C6.80712 16.1859 8.63145 15.5832 9.87412 14.8459C12.3468 16.5692 13.9521 16.3192 14.7085 15.4242C14.8566 15.2515 14.9679 15.0503 15.0356 14.833C15.1032 14.6156 15.1256 14.3868 15.1016 14.1605C15.0776 13.9342 15.0075 13.7152 14.8958 13.5169C14.784 13.3186 14.6329 13.1453 14.4518 13.0075C14.2773 12.8745 14.0783 12.7772 13.8662 12.7211C13.654 12.665 13.4329 12.6513 13.2155 12.6807C12.9981 12.7101 12.7886 12.7821 12.5989 12.8925C12.4093 13.0029 12.2433 13.1496 12.1105 13.3242C12.0628 13.3875 12.0198 13.4562 11.9821 13.5245C11.8915 13.4782 11.7955 13.4269 11.6981 13.3705C12.3948 12.6517 12.9658 11.8209 13.3871 10.9129C13.538 10.6055 13.6705 10.2895 13.7841 9.96655C14.6058 10.5725 15.4031 11.4709 15.7558 12.5265C16.0965 13.5465 15.9661 14.6965 15.2851 15.6399C15.1506 15.8229 14.9968 15.991 14.8265 16.1412L14.8198 16.1479C13.5892 17.1172 12.0942 17.6918 10.5311 17.7962L10.5291 17.7979V17.7979Z" fill="url(#paint0_linear_5016_67621)"/>
<path style="mix-blend-mode:overlay" opacity="0.9" d="M12.34 3.20867C12.1524 3.17305 11.96 3.17079 11.7717 3.202C12.7287 3.722 13.425 5.17167 13.059 8.033C12.9378 8.96356 12.6644 9.86786 12.2497 10.7097C11.8923 11.4779 11.4272 12.1911 10.8683 12.828C11.1333 13.0273 11.4105 13.2096 11.6983 13.374C12.3952 12.6553 12.9662 11.8246 13.3877 10.9167C13.8034 10.0752 14.0769 9.17079 14.197 8.24C14.6337 4.83433 13.5623 3.42767 12.3403 3.21V3.20867H12.34Z" fill="url(#paint1_radial_5016_67621)"/>
<g style="mix-blend-mode:overlay" opacity="0.8">
<path d="M13.0587 8.03133C13.425 5.17133 12.7283 3.72033 11.7717 3.2C11.734 3.205 11.6983 3.21366 11.6603 3.22233C12.5967 3.76133 13.2707 5.209 12.9097 8.03133C12.7885 8.96189 12.5151 9.86619 12.1003 10.708C11.7559 11.449 11.3107 12.1389 10.7773 12.758C10.808 12.782 10.8373 12.8043 10.868 12.8263C11.4263 12.1891 11.8913 11.4757 12.249 10.7077C12.6648 9.86626 12.9384 8.9618 13.0587 8.031V8.03133Z" fill="white"/>
</g>
<path style="mix-blend-mode:overlay" opacity="0.5" d="M9.42198 14.519C9.33131 14.4507 9.24565 14.3787 9.15865 14.3067C7.74665 14.8957 5.79031 15.265 3.84631 14.8133C4.1629 15.2188 4.51886 15.592 4.90898 15.9273C6.80531 16.186 8.62965 15.5833 9.87231 14.846C9.71959 14.7393 9.56889 14.6297 9.42031 14.5173L9.42198 14.519V14.519Z" fill="url(#paint2_radial_5016_67621)"/>
<path style="mix-blend-mode:overlay" opacity="0.6" d="M9.16001 14.3067C9.11735 14.2707 9.07301 14.235 9.03201 14.199C7.60968 14.767 5.64335 15.1077 3.70435 14.6233C3.75235 14.6867 3.80035 14.7517 3.84801 14.8133C5.79068 15.265 7.74835 14.8957 9.16035 14.3067H9.16001Z" fill="url(#paint3_linear_5016_67621)"/>
<path style="mix-blend-mode:overlay" opacity="0.9" d="M2.94632 11.3667C2.95632 11.3973 2.96865 11.4267 2.98065 11.4557C3.04399 11.6063 3.12599 11.7413 3.22532 11.863C3.19799 10.7747 4.10499 9.44467 6.76432 8.33234C7.63073 7.97197 8.55062 7.75686 9.48699 7.69567C10.3312 7.62039 11.1819 7.66652 12.013 7.83267C12.056 7.47334 12.073 7.138 12.0697 6.84167C11.0989 6.5973 10.094 6.51808 9.09699 6.60734C8.16053 6.66867 7.24056 6.88377 6.37399 7.244C3.20665 8.56867 2.52365 10.1997 2.94665 11.3683V11.3667H2.94632Z" fill="url(#paint4_radial_5016_67621)"/>
<g style="mix-blend-mode:overlay" opacity="0.8">
<path d="M6.76434 8.334C4.10501 9.44667 3.19768 10.7763 3.22534 11.8647C3.24934 11.8937 3.27501 11.9213 3.30068 11.9487C3.29868 10.8687 4.21601 9.56134 6.83968 8.46234C7.70609 8.10198 8.62597 7.88688 9.56234 7.82567C10.3763 7.75367 11.1964 7.79405 11.9993 7.94567C12.0047 7.90811 12.0093 7.87043 12.013 7.83267C11.1818 7.6675 10.3312 7.62148 9.48701 7.696C8.55067 7.75739 7.63081 7.97249 6.76434 8.33267V8.334V8.334Z" fill="white"/>
</g>
<path style="mix-blend-mode:overlay" opacity="0.4" d="M14.2003 8.23834C14.187 8.35134 14.168 8.46067 14.149 8.572C15.364 9.49967 16.663 11.0107 17.245 12.9187C17.4373 12.4412 17.5824 11.9461 17.678 11.4403C16.954 9.669 15.52 8.39034 14.2603 7.68367C14.245 7.86367 14.226 8.04667 14.202 8.23834H14.2003Z" fill="url(#paint5_radial_5016_67621)"/>
<path style="mix-blend-mode:overlay" opacity="0.5" d="M14.149 8.57201C14.1387 8.62667 14.13 8.68334 14.1197 8.73801C15.323 9.68601 16.6014 11.218 17.1507 13.1397C17.183 13.0663 17.214 12.9923 17.243 12.919C16.6614 11.0107 15.364 9.50134 14.147 8.57201H14.149V8.57201Z" fill="url(#paint6_linear_5016_67621)"/>
<path style="mix-blend-mode:overlay" opacity="0.9" d="M14.7087 15.4227C14.8323 15.277 14.9307 15.1116 14.9997 14.9333C14.0703 15.5013 12.4663 15.38 10.1717 13.6323C9.42573 13.0625 8.77922 12.3732 8.25834 11.5923C7.77099 10.8991 7.38541 10.1396 7.11334 9.33701C6.78134 9.47901 6.48201 9.63301 6.22534 9.78367C6.49967 10.7464 6.93346 11.6564 7.50867 12.4757C8.02201 13.2423 8.66201 13.9357 9.42201 14.5157C12.1533 16.5967 13.9077 16.3723 14.7067 15.4223H14.7087V15.4227Z" fill="url(#paint7_radial_5016_67621)"/>
<g style="mix-blend-mode:overlay" opacity="0.8">
<path d="M10.1733 13.6327C12.4663 15.3797 14.0716 15.5013 15.0006 14.933C15.0143 14.8973 15.0263 14.8613 15.0366 14.827C14.1023 15.3697 12.5106 15.2273 10.2483 13.5043C9.50237 12.9345 8.85586 12.2452 8.33497 11.4643C7.86562 10.7957 7.49075 10.0654 7.22097 9.29433C7.18497 9.30966 7.15097 9.32333 7.11664 9.33866C7.38857 10.1413 7.77404 10.9009 8.2613 11.5943C8.77464 12.361 9.41464 13.0543 10.1746 13.6343L10.173 13.6327H10.1733Z" fill="white"/>
</g>
<path style="mix-blend-mode:overlay" opacity="0.3" d="M6.37232 7.24067C6.47666 7.19767 6.58099 7.15834 6.68699 7.119C6.88232 5.60267 7.54099 3.722 8.90366 2.26567C8.39366 2.339 7.89199 2.459 7.40599 2.62834C6.23332 4.14134 5.84332 6.022 5.86066 7.46667C6.02299 7.39 6.19266 7.31434 6.37066 7.241H6.37232V7.24067Z" fill="url(#paint8_radial_5016_67621)"/>
<path style="mix-blend-mode:overlay" opacity="0.4" d="M6.68665 7.119C6.73998 7.10033 6.79131 7.07966 6.84431 7.061C7.06331 5.54433 7.75131 3.67233 9.13931 2.23466C9.06065 2.24333 8.98165 2.25366 8.90298 2.264C7.54065 3.722 6.88198 5.601 6.68698 7.11733V7.119H6.68665Z" fill="url(#paint9_linear_5016_67621)"/>
<path style="mix-blend-mode:multiply" opacity="0.4" d="M9.32099 0.0236635C6.57599 0.21033 4.16666 1.48866 2.48432 3.40366L2.44666 3.44633C2.77332 3.77166 3.84466 4.41166 4.27766 4.67866C5.14049 3.74911 6.21672 3.04367 7.41332 2.62333C7.49732 2.51366 7.58599 2.406 7.67866 2.30166C8.80799 1.02666 10.35 0.353997 12.14 0.353997C12.3387 0.353997 12.7443 0.386663 12.7527 0.386663C11.6388 0.0662557 10.4775 -0.0567111 9.32132 0.0233301L9.32099 0.0236635Z" fill="url(#paint10_linear_5016_67621)"/>
<path style="mix-blend-mode:multiply" opacity="0.4" d="M10.5293 17.7997C8.40235 17.945 6.41368 17.2197 4.91102 15.9293C4.76989 15.9109 4.62947 15.8874 4.49002 15.859C2.82135 15.5183 1.46602 14.519 0.572683 12.9703C0.474316 12.7992 0.384647 12.6232 0.304016 12.443C1.45935 17.0483 5.77368 20.3103 10.6767 19.9763C10.699 19.4717 10.55 18.2997 10.5277 17.7997H10.5293Z" fill="url(#paint11_linear_5016_67621)"/>
<path style="mix-blend-mode:multiply" opacity="0.4" d="M19.9747 9.32166C19.6667 9.29066 18.1673 9.40899 17.798 9.47033C17.844 10.1483 17.8013 10.8123 17.6797 11.4523C17.731 11.579 17.7807 11.709 17.825 11.8407C18.3643 13.4563 18.176 15.1283 17.2827 16.6787C17.1838 16.8495 17.0764 17.0152 16.961 17.1753C16.961 17.1753 16.966 17.1717 16.9677 17.1683C18.9993 15.1917 20.1817 12.3713 19.9747 9.32333V9.32166Z" fill="url(#paint12_linear_5016_67621)"/>
<path style="mix-blend-mode:multiply" opacity="0.5" d="M12.2427 2.601C12.4617 2.62333 12.696 2.678 12.9067 2.74833C12.9167 2.75167 12.9273 2.755 12.9357 2.75667C13.7941 3.10705 14.5839 3.60652 15.2683 4.232C15.2683 4.232 15.2717 4.23367 15.2733 4.23533C15.602 3.86067 16.2333 3.44833 16.2333 3.44833C16.2333 3.44833 15.2667 2.459 13.7863 2.151C12.751 1.93533 10.415 1.72833 8.94135 4.23533L8.95501 4.222C9.06468 4.05733 9.17935 3.89667 9.31101 3.74933C10.0247 2.94333 11.0857 2.48267 12.2427 2.601V2.601Z" fill="url(#paint13_linear_5016_67621)"/>
<path style="mix-blend-mode:multiply" opacity="0.5" d="M15.2853 15.6417C15.1508 15.8247 14.997 15.9928 14.8267 16.143C14.82 16.1497 14.8113 16.1567 14.8043 16.1637C14.0716 16.7315 13.2444 17.1654 12.3607 17.4453C12.359 17.4453 12.3573 17.4453 12.3553 17.447C12.5163 17.9193 12.5573 18.6723 12.5573 18.6723C12.5573 18.6723 13.8973 18.3303 14.904 17.2023C15.6073 16.4133 16.9557 14.4933 15.5213 11.964C15.5213 11.964 15.5233 11.9723 15.5267 11.9827C15.6157 12.1593 15.696 12.3403 15.7577 12.527C16.0983 13.547 15.968 14.697 15.287 15.64L15.2853 15.6417V15.6417Z" fill="url(#paint14_linear_5016_67621)"/>
<path style="mix-blend-mode:multiply" opacity="0.5" d="M2.47097 11.7587C2.37939 11.5504 2.31044 11.333 2.2653 11.11C2.26364 11.1 2.2603 11.0893 2.25864 11.079C2.13197 10.1567 2.17297 9.22233 2.36997 8.32233V8.317C1.8803 8.221 1.20797 7.879 1.20797 7.879C1.20797 7.879 0.834637 9.21233 1.30897 10.6463C1.64097 11.6507 2.6283 13.778 5.53564 13.8003C5.53564 13.8003 5.5273 13.7983 5.51697 13.795C5.3203 13.783 5.12364 13.7627 4.9303 13.7233C3.87597 13.5077 2.94664 12.8197 2.46897 11.7587H2.47097V11.7587Z" fill="url(#paint15_linear_5016_67621)"/>
<path style="mix-blend-mode:multiply" opacity="0.6" d="M11.8216 6.50667C11.902 6.51667 11.9806 6.52 12.0576 6.51833C12.0576 6.51833 12.0046 5.47967 11.878 4.94567C11.7496 4.41333 11.5613 4.059 11.356 3.859C11.2073 3.71533 10.74 3.537 10.3773 4.63567C10.3492 4.85326 10.3642 5.07427 10.4216 5.28604C10.479 5.4978 10.5776 5.69617 10.7118 5.86978C10.8459 6.04339 11.013 6.18882 11.2035 6.29777C11.3939 6.40671 11.604 6.47702 11.8216 6.50467V6.50633V6.50667Z" fill="url(#paint16_linear_5016_67621)"/>
<path style="mix-blend-mode:multiply" opacity="0.5" d="M6.06336 10.1687C6.03217 10.0962 5.99609 10.0259 5.95536 9.95833C5.95536 9.95833 5.08069 10.523 4.68369 10.8993C4.28669 11.276 4.07436 11.6167 4.00436 11.8953C3.95469 12.0957 4.03336 12.5887 5.16636 12.354C5.57493 12.183 5.89888 11.8567 6.06702 11.4469C6.23515 11.0371 6.23372 10.5774 6.06303 10.1687H6.06336Z" fill="url(#paint17_linear_5016_67621)"/>
<path style="mix-blend-mode:multiply" opacity="0.6" d="M12.1126 13.3227C12.0646 13.386 12.022 13.4547 11.9843 13.5227C11.9843 13.5227 12.9103 13.997 13.4356 14.1527C13.961 14.3087 14.3613 14.3223 14.637 14.2433C14.8356 14.187 15.2223 13.8703 14.4536 13.008C14.2792 12.875 14.0802 12.7777 13.8681 12.7217C13.656 12.6656 13.4349 12.6519 13.2175 12.6813C13.0001 12.7107 12.7907 12.7827 12.6011 12.8931C12.4115 13.0035 12.2455 13.1501 12.1126 13.3247V13.3227V13.3227Z" fill="url(#paint18_linear_5016_67621)"/>
<path style="mix-blend-mode:multiply" opacity="0.3" d="M11.7533 9.01534C11.5433 9.71367 11.2487 10.3487 10.8877 10.908C10.8687 10.937 10.85 10.9663 10.8293 10.997C10.8293 10.997 10.8293 10.9987 10.8277 11.0003C10.5748 11.3637 10.2883 11.7024 9.97198 12.012C10.2013 12.255 10.4477 12.491 10.72 12.7153C11.0292 12.9586 11.3564 13.1782 11.6987 13.3723C12.3955 12.6537 12.9665 11.823 13.388 10.915C13.5387 10.6075 13.6712 10.2914 13.7847 9.96834C13.4323 9.71 13.0763 9.503 12.748 9.36267C12.4243 9.22396 12.0914 9.10791 11.7517 9.01534H11.7537H11.7533Z" fill="url(#paint19_linear_5016_67621)"/>
<path style="mix-blend-mode:multiply" opacity="0.3" d="M4.91132 15.9293C6.80732 16.1877 8.63165 15.5853 9.87431 14.8477C9.72159 14.741 9.5709 14.6314 9.42232 14.519C8.9497 14.1575 8.51623 13.7475 8.12898 13.2957C7.19431 13.7043 6.01698 13.944 4.92665 13.7213C3.87265 13.506 2.94331 12.818 2.46565 11.757C2.37419 11.5488 2.30535 11.3313 2.26031 11.1083C2.53598 13.042 3.51131 14.7293 4.90965 15.929H4.91132V15.9293Z" fill="url(#paint20_linear_5016_67621)"/>
<path style="mix-blend-mode:multiply" opacity="0.3" d="M9.97169 12.0117C9.49272 11.5056 9.0872 10.9348 8.76703 10.316C8.75169 10.2833 8.73436 10.2543 8.71903 10.2217V10.2183C8.53136 9.81719 8.38127 9.39952 8.27069 8.97067C7.94536 9.04767 7.61869 9.14367 7.29003 9.26701C6.92516 9.4128 6.57164 9.5855 6.23236 9.78367C6.53703 10.8397 6.98703 11.7313 7.51236 12.4773C7.70236 12.7597 7.90803 13.0317 8.13236 13.2937C8.53236 13.119 8.89036 12.912 9.17569 12.698C9.45678 12.4869 9.72328 12.2571 9.97336 12.01L9.97169 12.0117V12.0117Z" fill="url(#paint21_linear_5016_67621)"/>
<path style="mix-blend-mode:multiply" opacity="0.3" d="M7.40666 2.63C6.23433 4.143 5.84399 6.02366 5.86133 7.468C6.03028 7.38866 6.20087 7.31287 6.37299 7.24066C6.92156 7.01151 7.49286 6.84112 8.07733 6.73233C8.19066 5.719 8.572 4.57933 9.30966 3.74766C10.023 2.94166 11.0843 2.481 12.2413 2.59933C12.4603 2.62166 12.6947 2.67633 12.9053 2.74666C12.9153 2.75 12.9257 2.75333 12.9343 2.755C11.8362 2.30689 10.6499 2.11668 9.46666 2.199C8.74799 2.24866 8.05999 2.394 7.40966 2.62333C7.40799 2.625 7.40633 2.62833 7.40466 2.63H7.40633H7.40666Z" fill="url(#paint22_linear_5016_67621)"/>
<path style="mix-blend-mode:multiply" opacity="0.3" d="M17.678 11.4387C16.9526 9.66733 15.5183 8.387 14.2586 7.68033C14.2433 7.86033 14.2246 8.04499 14.1986 8.23833C14.1223 8.82786 13.9841 9.40772 13.7863 9.96833C14.608 10.5743 15.4053 11.4727 15.758 12.5287C16.0983 13.5487 15.9683 14.6987 15.2873 15.6417C15.1528 15.8247 14.999 15.9928 14.8286 16.143L14.822 16.1497C16.2903 14.9963 17.3286 13.333 17.685 11.4507C17.685 11.4473 17.6816 11.4437 17.6816 11.4403L17.6783 11.4387H17.678Z" fill="url(#paint23_linear_5016_67621)"/>
<path style="mix-blend-mode:multiply" opacity="0.3" d="M8.07197 7.937C8.11385 8.28564 8.17956 8.631 8.26864 8.97066C8.97897 8.803 9.67531 8.74133 10.3413 8.774L10.4473 8.779H10.4506C10.8683 8.81333 11.303 8.89033 11.7533 9.01366C11.849 8.69366 11.9296 8.36133 11.9876 8.01566C12.051 7.58466 12.0696 7.18566 12.068 6.83833C11.002 6.575 10.006 6.52166 9.09731 6.604C8.75561 6.6264 8.41555 6.66925 8.07897 6.73233C8.03097 7.167 8.02898 7.57933 8.07364 7.93566L8.07197 7.937V7.937Z" fill="url(#paint24_linear_5016_67621)"/>
</g>
<defs>
<linearGradient id="paint0_linear_5016_67621" x1="3.17545" y1="16.8242" x2="15.9251" y2="4.07288" gradientUnits="userSpaceOnUse">
<stop stop-color="#E6007A"/>
<stop offset="0.21" stop-color="#703AC2"/>
<stop offset="0.46" stop-color="#0070EB"/>
<stop offset="0.77" stop-color="#0297FB"/>
<stop offset="1" stop-color="#0AE2FF"/>
</linearGradient>
<radialGradient id="paint1_radial_5016_67621" cx="0" cy="0" r="1" gradientUnits="userSpaceOnUse" gradientTransform="translate(12.85 7.97467) scale(3.80267)">
<stop stop-color="white"/>
<stop offset="1" stop-color="white" stop-opacity="0"/>
</radialGradient>
<radialGradient id="paint2_radial_5016_67621" cx="0" cy="0" r="1" gradientUnits="userSpaceOnUse" gradientTransform="translate(7.22998 15.029) scale(2.21279 2.2128)">
<stop stop-color="white"/>
<stop offset="1" stop-color="white" stop-opacity="0"/>
</radialGradient>
<linearGradient id="paint3_linear_5016_67621" x1="3.90968" y1="14.6543" x2="6.04235" y2="14.625" gradientUnits="userSpaceOnUse">
<stop stop-color="white" stop-opacity="0"/>
<stop offset="1" stop-color="white"/>
</linearGradient>
<radialGradient id="paint4_radial_5016_67621" cx="0" cy="0" r="1" gradientUnits="userSpaceOnUse" gradientTransform="translate(6.8214 8.54235) rotate(-120) scale(3.80267)">
<stop stop-color="white"/>
<stop offset="1" stop-color="white" stop-opacity="0"/>
</radialGradient>
<radialGradient id="paint5_radial_5016_67621" cx="0" cy="0" r="1" gradientUnits="userSpaceOnUse" gradientTransform="translate(15.7409 9.88268) rotate(-120) scale(2.21279)">
<stop stop-color="white"/>
<stop offset="1" stop-color="white" stop-opacity="0"/>
</radialGradient>
<linearGradient id="paint6_linear_5016_67621" x1="17.0757" y1="12.944" x2="15.984" y2="11.112" gradientUnits="userSpaceOnUse">
<stop stop-color="white" stop-opacity="0"/>
<stop offset="1" stop-color="white"/>
</linearGradient>
<radialGradient id="paint7_radial_5016_67621" cx="0" cy="0" r="1" gradientUnits="userSpaceOnUse" gradientTransform="translate(10.1469 13.3037) rotate(120) scale(3.80267)">
<stop stop-color="white"/>
<stop offset="1" stop-color="white" stop-opacity="0"/>
</radialGradient>
<radialGradient id="paint8_radial_5016_67621" cx="0" cy="0" r="1" gradientUnits="userSpaceOnUse" gradientTransform="translate(7.02746 5.08669) rotate(120) scale(2.21279)">
<stop stop-color="white"/>
<stop offset="1" stop-color="white" stop-opacity="0"/>
</radialGradient>
<linearGradient id="paint9_linear_5016_67621" x1="9.01065" y1="2.39766" x2="7.97098" y2="4.26" gradientUnits="userSpaceOnUse">
<stop stop-color="white" stop-opacity="0"/>
<stop offset="1" stop-color="white"/>
</linearGradient>
<linearGradient id="paint10_linear_5016_67621" x1="9.47532" y1="1.451" x2="6.21665" y2="2.399" gradientUnits="userSpaceOnUse">
<stop stop-color="#231F20"/>
<stop offset="1" stop-color="white"/>
</linearGradient>
<linearGradient id="paint11_linear_5016_67621" x1="3.31935" y1="13.8757" x2="6.04402" y2="16.7197" gradientUnits="userSpaceOnUse">
<stop stop-color="#231F20"/>
<stop offset="1" stop-color="white"/>
</linearGradient>
<linearGradient id="paint12_linear_5016_67621" x1="17.9417" y1="13.4477" x2="18.8897" y2="10.5657" gradientUnits="userSpaceOnUse">
<stop stop-color="#231F20"/>
<stop offset="1" stop-color="white"/>
</linearGradient>
<linearGradient id="paint13_linear_5016_67621" x1="10.959" y1="3.10067" x2="15.3267" y2="4.10033" gradientUnits="userSpaceOnUse">
<stop stop-color="#231F20"/>
<stop offset="1" stop-color="white"/>
</linearGradient>
<linearGradient id="paint14_linear_5016_67621" x1="15.4953" y1="14.28" x2="12.4437" y2="17.5633" gradientUnits="userSpaceOnUse">
<stop stop-color="#231F20"/>
<stop offset="1" stop-color="white"/>
</linearGradient>
<linearGradient id="paint15_linear_5016_67621" x1="3.5443" y1="12.6203" x2="2.22764" y2="8.33733" gradientUnits="userSpaceOnUse">
<stop stop-color="#231F20"/>
<stop offset="1" stop-color="white"/>
</linearGradient>
<linearGradient id="paint16_linear_5016_67621" x1="11.914" y1="4.711" x2="10.533" y2="6.094" gradientUnits="userSpaceOnUse">
<stop stop-color="#231F20"/>
<stop offset="1" stop-color="white"/>
</linearGradient>
<linearGradient id="paint17_linear_5016_67621" x1="4.46303" y1="10.9837" x2="6.35036" y2="11.4907" gradientUnits="userSpaceOnUse">
<stop stop-color="#231F20"/>
<stop offset="1" stop-color="white"/>
</linearGradient>
<linearGradient id="paint18_linear_5016_67621" x1="13.6203" y1="14.301" x2="13.1146" y2="12.4143" gradientUnits="userSpaceOnUse">
<stop stop-color="#231F20"/>
<stop offset="1" stop-color="white"/>
</linearGradient>
<linearGradient id="paint19_linear_5016_67621" x1="10.7473" y1="12.6227" x2="11.5773" y2="11.478" gradientUnits="userSpaceOnUse">
<stop stop-color="#231F20"/>
<stop offset="1" stop-color="white"/>
</linearGradient>
<linearGradient id="paint20_linear_5016_67621" x1="7.89265" y1="12.1267" x2="6.23431" y2="12.9173" gradientUnits="userSpaceOnUse">
<stop stop-color="#231F20"/>
<stop offset="1" stop-color="white"/>
</linearGradient>
<linearGradient id="paint21_linear_5016_67621" x1="7.29003" y1="9.36601" x2="7.80336" y2="10.4323" gradientUnits="userSpaceOnUse">
<stop stop-color="#231F20"/>
<stop offset="1" stop-color="white"/>
</linearGradient>
<linearGradient id="paint22_linear_5016_67621" x1="9.67766" y1="6.07333" x2="9.32333" y2="4.84966" gradientUnits="userSpaceOnUse">
<stop stop-color="#231F20"/>
<stop offset="1" stop-color="white"/>
</linearGradient>
<linearGradient id="paint23_linear_5016_67621" x1="13.5076" y1="11.678" x2="14.5343" y2="11.9143" gradientUnits="userSpaceOnUse">
<stop stop-color="#231F20"/>
<stop offset="1" stop-color="white"/>
</linearGradient>
<linearGradient id="paint24_linear_5016_67621" x1="11.897" y1="8.20933" x2="10.5946" y2="7.973" gradientUnits="userSpaceOnUse">
<stop stop-color="#231F20"/>
<stop offset="1" stop-color="white"/>
</linearGradient>
<clipPath id="clip0_5016_67621">
<rect width="20" height="20" fill="white"/>
</clipPath>
</defs>
</svg>
