<svg width="20" height="20" viewBox="0 0 20 20" fill="none" xmlns="http://www.w3.org/2000/svg">
<rect width="20" height="20" rx="10" fill="white"/>
<path fill-rule="evenodd" clip-rule="evenodd" d="M10.0866 6.96918L6.8853 14.2293C6.77957 14.462 6.72465 14.6508 6.4919 14.6508L4.37736 14.6517C4.07413 14.6517 3.90702 14.5685 4.0543 14.2301L9.22481 2.34288C9.33053 2.14537 9.39617 2 9.62892 2H10.5445C10.7771 2 10.8427 2.14537 10.9485 2.34288L16.1191 14.2301C16.2662 14.5685 16.0991 14.6517 15.7959 14.6517L13.6814 14.6508C13.4486 14.6508 13.3937 14.462 13.288 14.2293L10.0866 6.96918Z" fill="#17181D"/>
<path fill-rule="evenodd" clip-rule="evenodd" d="M10.0911 18L7.97656 13.7709H12.1352L10.0911 18Z" fill="#32FEFF"/>
</svg>
