<svg width="20" height="20" viewBox="0 0 20 20" fill="none" xmlns="http://www.w3.org/2000/svg">
<path d="M10 20C15.5228 20 20 15.5228 20 10C20 4.47715 15.5228 0 10 0C4.47715 0 0 4.47715 0 10C0 15.5228 4.47715 20 10 20Z" fill="white"/>
<path d="M7.49081 8.20004C6.96016 8.51775 6.56115 9.01535 6.36633 9.60235C6.17151 10.1894 6.19382 10.8268 6.42921 11.3987L6.43031 11.4006L8.71031 15.5183C8.95025 15.8424 9.26285 16.1056 9.623 16.2869C9.98316 16.4682 10.3808 16.5624 10.784 16.5621C12.2098 16.5621 13.3657 15.4062 13.3657 13.9804C13.3662 13.5627 13.2648 13.1512 13.0703 12.7814L12.5219 11.7932L12.5222 11.793L12.5222 11.7929L10.9522 8.96394C10.5817 8.41892 10.0169 8.0362 9.37331 7.89417C8.72978 7.75215 8.05628 7.86158 7.49081 8.20004Z" fill="url(#paint0_linear_3661_21777)"/>
<path d="M13.671 10.2774C13.8471 9.64439 13.7753 8.96803 13.4702 8.38611L11.3521 4.56891C11.1155 4.22034 10.7972 3.93502 10.4249 3.73789C10.0526 3.54077 9.63772 3.43784 9.21647 3.43811C7.79017 3.43811 6.63477 4.59401 6.63477 6.02001C6.63448 6.35739 6.70053 6.69152 6.82917 7.00341L6.83027 7.00531L7.49107 8.20001L9.11018 11.123C9.4934 11.6395 10.0556 11.9945 10.6867 12.1184C11.3176 12.2423 11.9721 12.1263 12.5221 11.7932L12.5225 11.793L12.5224 11.7929C13.0841 11.4522 13.4948 10.9103 13.671 10.2774Z" fill="url(#paint1_linear_3661_21777)"/>
<defs>
<linearGradient id="paint0_linear_3661_21777" x1="7.5499" y1="8.20004" x2="12.1999" y2="16.05" gradientUnits="userSpaceOnUse">
<stop stop-color="#E3372D" stop-opacity="0"/>
<stop offset="1" stop-color="#E3372D"/>
</linearGradient>
<linearGradient id="paint1_linear_3661_21777" x1="7.85015" y1="3.90001" x2="12.6001" y2="11.65" gradientUnits="userSpaceOnUse">
<stop stop-color="#2354A3"/>
<stop offset="1" stop-color="#2354A3" stop-opacity="0"/>
</linearGradient>
</defs>
</svg>
