<svg width="20" height="20" viewBox="0 0 20 20" fill="none" xmlns="http://www.w3.org/2000/svg">
<path d="M10 20C15.5228 20 20 15.5228 20 10C20 4.47715 15.5228 0 10 0C4.47715 0 0 4.47715 0 10C0 15.5228 4.47715 20 10 20Z" fill="#1B1E36"/>
<path d="M10.0206 1.27576C8.94113 1.27576 8.06585 5.19096 8.06585 10.0206C8.06585 14.8503 8.94113 18.7655 10.0206 18.7655C11.1 18.7655 11.9753 14.8503 11.9753 10.0206C11.9753 5.19096 11.1 1.27576 10.0206 1.27576ZM10.1555 18.272C10.0321 18.4366 9.90865 18.3131 9.90865 18.3131C9.41153 17.7371 9.16297 16.667 9.16297 16.667C8.29345 13.8687 8.50041 7.86048 8.50041 7.86048C8.90905 3.09056 9.65241 1.96376 9.90537 1.7136C9.93121 1.68807 9.96522 1.67246 10.0014 1.66954C10.0376 1.66661 10.0737 1.67655 10.1033 1.6976C10.4703 1.95768 10.7782 3.04536 10.7782 3.04536C11.6872 6.41984 11.6049 9.58856 11.6049 9.58856C11.6872 12.3458 11.1494 15.4322 11.1494 15.4322C10.7354 17.7778 10.1555 18.272 10.1555 18.272Z" fill="white"/>
<path d="M17.6058 5.66871C17.0683 4.73207 13.2371 5.92135 9.04577 8.32471C4.85449 10.7281 1.89801 13.4358 2.43505 14.3721C2.97209 15.3083 6.80378 14.1194 10.9951 11.7161C15.1863 9.31271 18.1428 6.60495 17.6058 5.66871ZM2.93089 14.2436C2.72513 14.2177 2.77161 14.0486 2.77161 14.0486C3.02401 13.3309 3.82721 12.5827 3.82721 12.5827C5.82265 10.4358 11.1375 7.62551 11.1375 7.62551C15.4779 5.60615 16.826 5.69135 17.168 5.78551C17.2031 5.79531 17.2336 5.81722 17.2541 5.84735C17.2746 5.87749 17.2838 5.9139 17.28 5.95015C17.2389 6.39815 16.4467 7.20615 16.4467 7.20615C13.9737 9.67487 11.184 11.1806 11.184 11.1806C8.83338 12.6246 5.88857 13.6934 5.88857 13.6934C3.64785 14.5008 2.93089 14.2436 2.93089 14.2436Z" fill="white"/>
<path d="M17.5868 14.4033C18.1284 13.4691 15.1794 10.7489 11.0028 8.32749C6.82625 5.90605 2.99545 4.70206 2.45433 5.63782C1.91321 6.57357 4.86177 9.29213 9.04073 11.7136C13.2197 14.135 17.0457 15.3391 17.5868 14.4033ZM2.81321 5.99878C2.73321 5.8091 2.90209 5.76342 2.90209 5.76342C3.64977 5.62222 4.70001 5.94398 4.70001 5.94398C7.55721 6.59462 12.652 9.78597 12.652 9.78597C16.5746 12.5309 17.1762 13.7399 17.2664 14.0831C17.2756 14.1183 17.272 14.1556 17.2563 14.1884C17.2407 14.2213 17.2139 14.2475 17.1808 14.2625C16.7718 14.4498 15.6762 14.1708 15.6762 14.1708C12.2997 13.2654 9.59929 11.6066 9.59929 11.6066C7.17297 10.298 4.77377 8.28437 4.77377 8.28437C2.95073 6.74942 2.81377 6.00086 2.81377 6.00086L2.81321 5.99878Z" fill="white"/>
<path d="M10 11.0288C10.5682 11.0288 11.0288 10.5682 11.0288 9.99998C11.0288 9.43179 10.5682 8.97118 10 8.97118C9.43182 8.97118 8.97121 9.43179 8.97121 9.99998C8.97121 10.5682 9.43182 11.0288 10 11.0288Z" fill="white"/>
<path d="M14.2181 6.66662C14.5476 6.66662 14.8148 6.39026 14.8148 6.04934C14.8148 5.70843 14.5476 5.43207 14.2181 5.43207C13.8885 5.43207 13.6214 5.70843 13.6214 6.04934C13.6214 6.39026 13.8885 6.66662 14.2181 6.66662Z" fill="white"/>
<path d="M4.42385 8.76541C4.75341 8.76541 5.02057 8.48904 5.02057 8.14813C5.02057 7.80722 4.75341 7.53085 4.42385 7.53085C4.09429 7.53085 3.82713 7.80722 3.82713 8.14813C3.82713 8.48904 4.09429 8.76541 4.42385 8.76541Z" fill="white"/>
<path d="M8.78601 16.3374C9.11557 16.3374 9.38273 16.061 9.38273 15.7201C9.38273 15.3792 9.11557 15.1029 8.78601 15.1029C8.45645 15.1029 8.18929 15.3792 8.18929 15.7201C8.18929 16.061 8.45645 16.3374 8.78601 16.3374Z" fill="white"/>
</svg>
