<svg width="20" height="20" viewBox="0 0 20 20" fill="none" xmlns="http://www.w3.org/2000/svg">
<circle cx="10" cy="10" r="10" fill="#D700D4"/>
<mask id="mask0_2151_3014" style="mask-type:alpha" maskUnits="userSpaceOnUse" x="0" y="0" width="20" height="20">
<circle cx="10" cy="10" r="10" fill="#D700D4"/>
</mask>
<g mask="url(#mask0_2151_3014)">
<path d="M5.75 -2C2.99 -2 0.766667 -0.47619 0 0.285714V22L46 20.8571V11.7143C43.7 13.2381 37.49 16.5143 31.05 17.4286C23 18.5714 14.95 6 13.8 3.71429C12.65 1.42857 9.2 -2 5.75 -2Z" fill="#BD27D9"/>
<path d="M5 1C2.6 1 0.666667 2.33333 0 3V22L40 21V13C38 14.3333 32.6 17.2 27 18C20 19 13 8 12 6C11 4 8 1 5 1Z" fill="#7319C2"/>
<path d="M4.25 4C2.21 4 0.566667 5.14286 0 5.71429V22L34 21.1429V14.2857C32.3 15.4286 27.71 17.8857 22.95 18.5714C17 19.4286 11.05 10 10.2 8.28571C9.35 6.57143 6.8 4 4.25 4Z" fill="#3913AB"/>
<path d="M3.25 8C1.69 8 0.433333 8.88889 0 9.33333V22L26 21.3333V16C24.7 16.8889 21.19 18.8 17.55 19.3333C13 20 8.45 12.6667 7.8 11.3333C7.15 10 5.2 8 3.25 8Z" fill="#891CCA"/>
<path d="M2.5 11.5C1.3 11.5 0.333333 12.1667 0 12.5V22L20 21.5V17.5C19 18.1667 16.3 19.6 13.5 20C10 20.5 6.5 15 6 14C5.5 13 4 11.5 2.5 11.5Z" fill="#270C83"/>
</g>
<path fill-rule="evenodd" clip-rule="evenodd" d="M9.97244 5.1156C9.91557 5.17983 9.61436 5.66804 9.3031 6.20044C8.99185 6.73285 8.1077 8.23107 7.3383 9.52987C6.08555 11.6445 5.94715 11.9078 6.01351 12.05C6.08747 12.2086 6.08931 12.2088 7.30563 12.2088C8.1889 12.2088 8.54718 12.1858 8.6091 12.1253C8.65612 12.0795 8.99246 11.5374 9.35655 10.9207C9.95679 9.90426 10.0346 9.80145 10.1894 9.81921C10.3326 9.83563 10.4796 10.0394 11.0948 11.0739C11.4987 11.7532 11.8298 12.3293 11.8305 12.3543C11.8312 12.3792 11.7834 12.4467 11.7243 12.5045C11.6339 12.5927 11.4029 12.6094 10.2654 12.6094C9.06334 12.6094 8.90245 12.6222 8.81032 12.7262C8.60001 12.9633 7.66248 14.6068 7.66248 14.7384C7.66248 14.8132 7.72242 14.9058 7.79569 14.9441C7.88495 14.9908 9.24207 15.0081 11.9054 14.9965C15.8359 14.9795 15.8828 14.9777 15.9753 14.8417C16.061 14.7156 15.972 14.5389 14.9154 12.7387C12.4806 8.59003 10.8056 5.75155 10.5744 5.38264C10.3196 4.97588 10.1591 4.90471 9.97244 5.1156Z" fill="white"/>
</svg>
