<svg width="20" height="20" viewBox="0 0 20 20" fill="none" xmlns="http://www.w3.org/2000/svg">
<rect width="20" height="20" fill="#6FD24D"/>
<path d="M10.0001 4.05613C10.2581 4.05533 10.5112 4.12496 10.7307 4.25714C10.9502 4.38931 11.1274 4.57876 11.2422 4.80403L15.1484 12.4212C15.2544 12.6277 15.3045 12.8571 15.2939 13.0878C15.2833 13.3184 15.2124 13.5426 15.088 13.739C14.9635 13.9354 14.7896 14.0976 14.5828 14.21C14.376 14.3224 14.1431 14.3814 13.9063 14.3814H6.09394C5.85718 14.3813 5.62436 14.3223 5.41759 14.2098C5.21083 14.0974 5.03698 13.9353 4.91257 13.7389C4.78816 13.5424 4.71731 13.3183 4.70676 13.0877C4.69622 12.8571 4.74631 12.6276 4.8523 12.4212L8.75806 4.80403C8.87286 4.57876 9.05004 4.38931 9.26955 4.25714C9.48905 4.12496 9.74212 4.05533 10.0001 4.05613M10.0001 3.125C9.56494 3.12496 9.13834 3.24305 8.76811 3.46606C8.39787 3.68906 8.09863 4.00816 7.90391 4.38763L3.99773 12.0048C3.81893 12.3532 3.73446 12.7404 3.75235 13.1296C3.77023 13.5188 3.88988 13.8971 4.09992 14.2285C4.30996 14.56 4.60341 14.8335 4.95241 15.0233C5.30141 15.213 5.69436 15.3125 6.09394 15.3125H13.9063C14.3058 15.3125 14.6987 15.2129 15.0477 15.0231C15.3966 14.8334 15.69 14.5598 15.9 14.2284C16.11 13.897 16.2296 13.5187 16.2475 13.1295C16.2653 12.7404 16.1809 12.3532 16.0021 12.0048L12.0963 4.38763C11.9016 4.00816 11.6024 3.68906 11.2321 3.46606C10.8619 3.24305 10.4353 3.12496 10.0001 3.125V3.125Z" fill="#FCFDF4"/>
</svg>
