<svg width="20" height="20" viewBox="0 0 20 20" fill="none" xmlns="http://www.w3.org/2000/svg">
<path d="M10 20C15.5228 20 20 15.5228 20 10C20 4.47715 15.5228 0 10 0C4.47715 0 0 4.47715 0 10C0 15.5228 4.47715 20 10 20Z" fill="#E84142"/>
<path d="M13.5275 10.2598C13.8739 9.66139 14.433 9.66139 14.7794 10.2598L16.9369 14.0472C17.2834 14.6456 16.9999 15.1338 16.307 15.1338H11.9605C11.2755 15.1338 10.992 14.6456 11.3306 14.0472L13.5275 10.2598ZM9.35425 2.96847C9.7007 2.37005 10.2519 2.37005 10.5983 2.96847L11.0787 3.83461L12.2125 5.82674C12.4881 6.39367 12.4881 7.06296 12.2125 7.62989L8.40936 14.2204C8.06291 14.7559 7.4881 15.0945 6.85031 15.1338H3.69283C2.99991 15.1338 2.71645 14.6535 3.0629 14.0472L9.35425 2.96847Z" fill="white"/>
</svg>
