<svg width="20" height="20" viewBox="0 0 20 20" fill="none" xmlns="http://www.w3.org/2000/svg">
<path d="M1.78999 17.69L18.17 17.4C20.28 17.4 20.31 15.56 19.53 14.54L10.63 3.16001C10.4774 2.9585 10.2779 2.79736 10.0488 2.69061C9.81973 2.58387 9.56801 2.53477 9.31559 2.54759C9.06318 2.56041 8.81772 2.63475 8.60062 2.76416C8.38352 2.89356 8.20135 3.07408 8.06999 3.29001L0.369992 15.19C0.231729 15.4427 0.160357 15.7266 0.162651 16.0146C0.164946 16.3027 0.240831 16.5854 0.383101 16.8358C0.525372 17.0863 0.729305 17.2963 0.975538 17.4458C1.22177 17.5953 1.50213 17.6793 1.78999 17.69V17.69Z" fill="black"/>
<path d="M1.58994 17.54L17.9999 17.25C18.2869 17.2458 18.5672 17.1621 18.8094 17.0081C19.0516 16.854 19.2463 16.6358 19.3717 16.3776C19.4972 16.1194 19.5485 15.8315 19.5199 15.5459C19.4914 15.2603 19.384 14.9882 19.2099 14.76L10.2099 2.91998C10.0566 2.71896 9.85644 2.55849 9.62688 2.45258C9.39731 2.34666 9.14532 2.2985 8.89288 2.31231C8.64044 2.32612 8.3952 2.40146 8.17856 2.53178C7.96191 2.6621 7.78043 2.84344 7.64994 3.05998L0.229939 15.19C0.0867328 15.4275 0.00987663 15.6991 0.0073867 15.9764C0.00489677 16.2537 0.0768643 16.5267 0.215783 16.7667C0.354702 17.0067 0.555483 17.2051 0.797186 17.3411C1.03889 17.4771 1.31266 17.5458 1.58994 17.54V17.54Z" fill="url(#paint0_linear_2469_3483)"/>
<defs>
<linearGradient id="paint0_linear_2469_3483" x1="0.299939" y1="9.92998" x2="19.8099" y2="9.92998" gradientUnits="userSpaceOnUse">
<stop stop-color="#32C54E"/>
<stop offset="0.36" stop-color="#7CDD51"/>
<stop offset="0.52" stop-color="#A0E952"/>
<stop offset="1" stop-color="#FFFF65"/>
</linearGradient>
</defs>
</svg>
