<svg width="20" height="20" viewBox="0 0 20 20" fill="none" xmlns="http://www.w3.org/2000/svg">
<circle cx="10" cy="10" r="10" fill="white"/>
<path d="M8.81587 10.8352C8.92962 10.7261 9.01989 10.5965 9.08149 10.4536C9.14309 10.3108 9.1748 10.1577 9.1748 10.0031C9.1748 9.8484 9.14309 9.69527 9.08149 9.55246C9.01989 9.40966 8.92962 9.27999 8.81587 9.17092L4.23742 4.78295L2.5 6.44758L6.21048 10.0029L2.50037 13.5585L4.23705 15.2232L8.81587 10.8352Z" fill="black"/>
<path d="M10.8717 8.86509L15.4501 4.47712L13.7135 2.8125L10.0034 6.36816L6.29325 2.8125L4.55583 4.47712L9.13464 8.86509C9.37475 9.09509 9.68905 9.21009 10.0034 9.21009C10.3177 9.21009 10.632 9.09509 10.8717 8.86509Z" fill="black"/>
<path d="M17.5 13.5524L13.7899 9.99713L17.4996 6.44147L15.763 4.77684L11.1845 9.16481C11.0705 9.27379 10.98 9.40345 10.9183 9.5463C10.8566 9.68915 10.8248 9.84237 10.8248 9.99713C10.8248 10.1519 10.8566 10.3051 10.9183 10.448C10.98 10.5908 11.0705 10.7205 11.1845 10.8294L15.763 15.2174L17.5 13.5524Z" fill="black"/>
<path d="M9.99702 13.6318L13.7067 17.1875L15.4442 15.5229L10.8654 11.1349C10.6344 10.9141 10.3222 10.7902 9.99683 10.7902C9.67148 10.7902 9.35931 10.9141 9.12831 11.1349L4.54986 15.5229L6.28654 17.1875L9.99702 13.6318Z" fill="black"/>
</svg>
