<svg width="20" height="20" viewBox="0 0 20 20" fill="none" xmlns="http://www.w3.org/2000/svg">
<path d="M4.2923 0.925128C4.28364 0.911151 4.21162 0.863371 4.13223 0.819C3.9671 0.726723 3.9523 0.72394 3.90972 0.777411C3.86882 0.828756 3.68304 1.23451 3.68304 1.2725C3.68304 1.28873 3.67 1.32647 3.65409 1.35634C3.63817 1.3862 3.59471 1.55133 3.55753 1.72331C3.52032 1.8953 3.47701 2.08526 3.46125 2.14545C3.36062 2.53029 3.32551 3.84104 3.39721 4.53757C3.45575 5.10633 3.46075 5.11352 3.60246 4.83357C3.66747 4.70517 3.75087 4.55086 3.78783 4.49067C3.79886 4.45402 3.81581 4.41404 3.83794 4.37124C3.85046 4.31242 3.8525 4.23474 3.85018 4.0998C3.84749 3.94501 3.83561 3.73698 3.82376 3.63751C3.80878 3.51171 3.81397 3.44248 3.84086 3.41012C3.86919 3.37597 3.87379 3.28047 3.85806 3.05211C3.84236 2.82428 3.84724 2.72162 3.87629 2.66978C3.89808 2.63076 3.91888 2.53554 3.92244 2.45815C3.93245 2.2407 3.95862 2.05511 3.98526 2.01234C3.99855 1.99095 4.00524 1.94108 4.00015 1.90146C3.99502 1.86184 4.00409 1.81259 4.02029 1.79201C4.03648 1.77144 4.05931 1.69195 4.071 1.61543C4.08273 1.53889 4.10381 1.46149 4.11788 1.44345C4.13195 1.42538 4.15481 1.3684 4.16869 1.31681C4.18254 1.26522 4.19589 1.21597 4.19833 1.20737C4.20077 1.19877 4.22648 1.13748 4.2554 1.07116C4.28436 1.00483 4.30093 0.939106 4.2923 0.925128Z" fill="#DF6C00"/>
<path d="M16.6461 1.30396C16.6159 1.21093 16.5486 1.04558 16.4965 0.936542C16.4444 0.827536 16.386 0.739638 16.3667 0.741264C16.3249 0.744766 16.1087 0.870469 16.059 0.920188C16.0259 0.953333 16.0657 1.09008 16.1635 1.27841C16.1793 1.30887 16.2009 1.3972 16.2115 1.47469C16.2221 1.55218 16.2429 1.62306 16.2578 1.63219C16.2726 1.64136 16.2847 1.68939 16.2847 1.73895C16.2847 1.78851 16.2981 1.83739 16.3146 1.84758C16.3311 1.85774 16.3447 1.9043 16.345 1.95105C16.3456 2.07266 16.3788 2.30927 16.403 2.36434C16.4256 2.41584 16.4342 2.53995 16.4529 3.09236C16.4599 3.29498 16.4828 3.50255 16.504 3.55361C16.5344 3.62713 16.5344 3.65611 16.5039 3.69289C16.4794 3.72231 16.4647 3.85117 16.4635 4.04464L16.4617 4.34995L16.6525 4.70761C16.6721 4.74436 16.6898 4.77829 16.7059 4.80902C16.77 4.93195 16.8073 5.00363 16.8336 4.99978C16.8704 4.99438 16.8855 4.84125 16.9218 4.47395C16.9283 4.40831 16.9354 4.33584 16.9435 4.25614C16.9824 3.87165 16.9628 2.75339 16.9128 2.50505C16.8954 2.41906 16.8668 2.25724 16.8491 2.14545C16.7985 1.826 16.7537 1.60368 16.7262 1.5357C16.7123 1.5013 16.6762 1.39702 16.6461 1.30396Z" fill="#DF6C00"/>
<path d="M4.29224 0.925122C4.30087 0.939099 4.28429 1.00483 4.25534 1.07115C4.22641 1.13747 4.20071 1.19876 4.19827 1.20736C4.19583 1.21596 4.18248 1.26521 4.16863 1.3168C4.15475 1.3684 4.13189 1.42537 4.11782 1.44345C4.10375 1.46149 4.08267 1.53888 4.07094 1.61543C4.05925 1.69194 4.03642 1.77143 4.02022 1.79201C4.00403 1.81258 3.99496 1.86183 4.00009 1.90145C4.00518 1.94107 3.99849 1.99094 3.9852 2.01233C3.95856 2.05511 3.93239 2.24069 3.92238 2.45814C3.91882 2.53553 3.89802 2.63075 3.87623 2.66977C3.84718 2.72162 3.8423 2.82427 3.858 3.0521C3.87373 3.28047 3.86913 3.37596 3.8408 3.41011C3.81391 3.44247 3.80872 3.5117 3.8237 3.6375C3.83555 3.73697 3.84743 3.945 3.85012 4.09979C3.85244 4.23473 3.8504 4.31241 3.83788 4.37123C4.08912 3.88523 5.00772 3.03537 5.51096 2.56979C5.71158 2.38418 5.84618 2.25965 5.84618 2.24358C5.84618 1.93496 4.81645 1.24046 4.29224 0.925122Z" fill="#C64F00"/>
<path d="M16.4616 4.34994L16.4635 4.04463C16.4646 3.85116 16.4794 3.7223 16.5038 3.69288C16.5343 3.65611 16.5343 3.62712 16.5039 3.5536C16.4827 3.50254 16.4598 3.29497 16.4529 3.09235C16.4341 2.53994 16.4256 2.41583 16.4029 2.36433C16.3788 2.30927 16.3455 2.07265 16.3449 1.95104C16.3447 1.90429 16.331 1.85773 16.3145 1.84757C16.2981 1.83738 16.2846 1.7885 16.2846 1.73894C16.2846 1.68938 16.2725 1.64135 16.2577 1.63219C16.2429 1.62306 16.2221 1.55217 16.2115 1.47468C16.2009 1.3972 16.1792 1.30886 16.1634 1.2784C16.0657 1.09007 16.0258 0.953327 16.059 0.920181C15.5347 1.23552 14.505 1.93002 14.505 2.23864C14.505 2.25465 14.6314 2.36868 14.8202 2.539C15.338 3.0061 16.3251 3.89661 16.4616 4.34994Z" fill="#C64F00"/>
<path fill-rule="evenodd" clip-rule="evenodd" d="M4.81621 0.523804C5.24876 0.671834 5.82484 1.02477 6.39642 1.49185C6.94254 1.93819 6.96928 1.95782 7.03031 1.95782C7.06293 1.95782 7.18497 1.91405 7.30148 1.86058C7.86214 1.60317 8.37947 1.4445 9.0299 1.33046C9.59069 1.23212 10.714 1.23175 11.2746 1.32971C11.9261 1.44357 12.4556 1.60238 12.9664 1.83722C13.1107 1.90354 13.2607 1.95782 13.2997 1.95782C13.3427 1.95782 13.4729 1.86961 13.6299 1.73412C14.3193 1.13944 15.0626 0.665236 15.5611 0.502166C15.81 0.420771 15.8592 0.454605 15.6747 0.580277C15.0651 0.995474 14.5705 1.45457 14.197 1.95195C13.9069 2.33806 13.9112 2.35463 14.395 2.73009C14.7282 2.98872 15.3426 3.62236 15.6195 3.99316C16.3478 4.96823 16.8214 6.05457 17.0154 7.19547C17.1351 7.89878 17.1596 8.36757 17.0974 8.76317C17.0802 8.87264 17.0512 9.05719 17.0329 9.17326C16.9697 9.57355 16.75 10.1129 16.492 10.5013C15.8284 11.5003 14.5301 12.2379 12.8135 12.5911C12.1623 12.7251 10.9659 12.838 10.1863 12.8389C9.61302 12.8396 8.65498 12.7771 8.23253 12.7114C7.17984 12.5478 6.53016 12.3743 5.8259 12.0687C4.55214 11.5159 3.66906 10.5946 3.37265 9.50941C3.3351 9.37183 3.29026 9.21704 3.27303 9.16545C3.2558 9.11385 3.23341 8.80429 3.22328 8.47752C3.20533 7.89956 3.24783 7.34725 3.33751 6.99222C3.63457 5.81629 3.90846 5.1663 4.45086 4.34994C4.87628 3.70961 5.38119 3.16417 6.0199 2.65495C6.32146 2.41452 6.37478 2.33071 6.30733 2.20307C6.09686 1.80482 5.21377 0.937531 4.66712 0.592159C4.432 0.443661 4.49611 0.414267 4.81621 0.523804ZM5.56362 6.11204C5.70502 5.81042 5.98403 5.58418 6.28894 5.52383C6.36043 5.5097 6.46168 5.49659 6.51396 5.49472C6.65611 5.48959 6.95039 5.57436 7.08469 5.65916C7.50767 5.92618 7.70101 6.51201 7.48678 6.87755C7.33003 7.14503 6.99282 7.29775 6.4941 7.32708C5.99726 7.35632 5.70427 7.24006 5.5527 6.95354C5.44548 6.75085 5.45064 6.35304 5.56362 6.11204ZM12.7583 6.45275C12.7955 5.99412 13.1472 5.60157 13.5927 5.5213C13.6715 5.50713 13.82 5.50266 13.9226 5.51135C14.4533 5.55641 14.846 6.001 14.846 6.55663C14.846 6.8975 14.7296 7.10497 14.4552 7.25307C14.3452 7.31242 14.283 7.32026 13.9392 7.31814C13.6006 7.31604 13.5173 7.30472 13.3166 7.23352C12.9097 7.08928 12.7273 6.83418 12.7583 6.45275ZM8.95717 7.62908C8.89498 7.29175 9.21189 6.98881 9.73572 6.88477C10.1751 6.7975 10.6041 6.8419 10.9603 7.01148C11.2576 7.153 11.3438 7.27242 11.3438 7.5425C11.3438 7.93893 11.0367 8.35726 10.609 8.54362C10.4768 8.60122 10.4071 8.64891 10.4127 8.67799C10.4236 8.73465 10.8087 8.94706 11.0128 9.00904C11.1294 9.04443 11.1949 9.048 11.2847 9.02383C11.4426 8.9813 11.7156 8.72711 11.8265 8.51939C11.9938 8.20597 12.0983 8.14769 12.2621 8.27655C12.3736 8.36423 12.3671 8.45651 12.2315 8.71464C12.1036 8.95797 11.8747 9.20616 11.6514 9.34356C11.5682 9.39472 11.5002 9.44303 11.5002 9.45088C11.5002 9.45872 11.4782 9.57176 11.4513 9.70203C11.265 10.6037 10.5504 11.2038 9.89122 11.0121C9.65117 10.9423 9.51796 10.8541 9.3047 10.6238C9.04782 10.3463 8.91824 10.0636 8.79773 9.51789C8.78563 9.46304 8.71946 9.38868 8.61246 9.30963C8.38213 9.13946 8.21005 8.93515 8.07327 8.66948C7.96414 8.45747 7.95973 8.43812 8.00104 8.35191C8.05545 8.2384 8.18406 8.18674 8.29091 8.23543C8.33413 8.2551 8.41027 8.35059 8.46574 8.45469C8.6658 8.83005 8.91493 9.03515 9.17077 9.03515C9.30973 9.03515 9.69413 8.87298 9.84031 8.75269C9.92455 8.68336 9.91305 8.58715 9.82043 8.58668C9.7274 8.58618 9.46092 8.41545 9.30182 8.25438C9.15073 8.10144 8.99075 7.81113 8.95717 7.62908Z" fill="#FDFDFD"/>
<path d="M4.50002 9.48718C3.67951 9.53846 3.08977 8.95299 2.89746 8.65384V7.37179L3.15387 6.28205L3.53849 5.32051L4.11541 4.35897L4.75644 3.46154L5.78208 2.5641L5.97438 2.30769L5.20515 1.34615L4.37182 0.705126L4.11541 0.320511H4.75644L5.46156 0.576921L6.10259 0.961536L6.61541 1.47436L7.00002 1.73077L7.83336 1.47436L8.60259 1.21795L9.24361 1.08974H10.1411H11.0385L11.6795 1.21795L12.4487 1.47436L13.2821 1.73077L13.6667 1.47436L14.1795 0.961536L14.8205 0.576921L15.5257 0.320511H16.1667L15.9103 0.705126L15.0769 1.34615L14.3077 2.30769L14.5 2.5641L15.5257 3.46154L16.1667 4.35897L16.7436 5.32051L17.1282 6.28205L17.3846 7.37179V8.65384C17.1923 8.95299 16.6026 9.53846 15.7821 9.48718C13.0898 9.31891 12.6411 6.28205 10.1411 6.28205C7.64105 6.28205 7.19233 9.31891 4.50002 9.48718Z" fill="#FDA624"/>
<path d="M4.82071 0.320511H4.17969C4.99165 0.876066 6.70533 2.03846 7.0643 2.24359C7.51302 2.5 7.51302 1.48422 10.2053 1.53846C12.8976 1.48422 12.8976 2.5 13.3464 2.24359C13.7053 2.03846 15.419 0.876066 16.231 0.320511H15.5899L14.8848 0.576921L14.2438 0.961536L13.731 1.47436L13.3464 1.73077L12.513 1.47436L11.7438 1.21795L11.1028 1.08974H10.2053H9.30789L8.66687 1.21795L7.89764 1.47436L7.0643 1.73077L6.67969 1.47436L6.16687 0.961536L5.52584 0.576921L4.82071 0.320511Z" fill="#FBCA5F"/>
<path d="M10.0131 12.1795C5.8589 12.1795 3.62417 10.3205 3.02588 9.35898C3.21819 10.5983 4.8846 13.141 10.0131 13.141C16.5515 13.141 16.9789 10.641 17.2566 9.35898C16.5729 10.2778 15.1413 12.1795 10.0131 12.1795Z" fill="#DEDEDE"/>
<path d="M10.6238 9.95952C10.8825 10.0297 10.885 10.0707 10.6464 10.3296C10.3984 10.5986 10.1555 10.6608 9.8887 10.5235C9.73135 10.4425 9.45527 10.1437 9.47622 10.077C9.48245 10.0572 9.57813 10.0099 9.68886 9.97193C9.8528 9.91571 9.94539 9.90461 10.1873 9.91227C10.3506 9.91743 10.5471 9.93869 10.6238 9.95952Z" fill="#FB877E"/>
<path d="M6.81904 5.90045C6.91663 5.94495 6.99765 6.0856 6.99765 6.21061C6.99765 6.36236 6.82444 6.52318 6.66103 6.52318C6.42094 6.52318 6.26144 6.29279 6.35178 6.07653C6.43082 5.88735 6.62757 5.81321 6.81904 5.90045Z" fill="#F8F8F8"/>
<path d="M13.8256 5.90148C14.0247 5.99216 14.0513 6.29351 13.8735 6.44313C13.6855 6.60129 13.4127 6.51821 13.3478 6.283C13.2694 5.99923 13.5495 5.77565 13.8256 5.90148Z" fill="#F8F8F8"/>
<ellipse cx="7.25654" cy="4.48717" rx="0.769231" ry="0.641026" fill="#FDFDFC"/>
<ellipse cx="13.0256" cy="4.48717" rx="0.769231" ry="0.641026" fill="#FDFDFC"/>
<path d="M2.79216 13.082C3.07684 13.8411 3.64694 14.4763 4.41752 14.8931C4.58687 14.9846 4.70294 15.0676 4.70954 15.1018C4.73059 15.2112 4.68534 15.2948 4.57211 15.3558C4.50929 15.3896 4.37821 15.5043 4.28081 15.6105C4.10294 15.8046 4.01186 15.9876 3.88165 16.4122C3.85132 16.5111 3.81101 16.592 3.79209 16.592C3.69159 16.592 3.18418 16.1136 2.97953 15.8259C2.65063 15.3635 2.47405 14.8438 2.44294 14.2467C2.42312 13.8667 2.45814 13.5389 2.53712 13.3653C2.56305 13.3083 2.60961 13.1879 2.64066 13.0976C2.67168 13.0073 2.70595 12.9334 2.71677 12.9334C2.72759 12.9334 2.76151 13.0002 2.79216 13.082Z" fill="#EF8100"/>
<path d="M4.24353 16.0897C3.1666 15.6282 2.57686 14.1667 2.51276 13.2051L2.32045 13.6538L2.25635 14.4231L2.38455 15.1282L2.89737 16.0897L3.98712 16.9231C4.17942 16.9231 4.30763 16.1172 4.24353 16.0897Z" fill="#DEDEDE"/>
<path d="M10.4621 13.4885C10.4689 13.6317 10.4605 13.6846 10.4308 13.6864C10.2482 13.6975 9.90577 13.6877 9.87797 13.6706C9.84386 13.6494 9.83523 13.4381 9.86415 13.331C9.87747 13.2817 9.91268 13.2761 10.166 13.2841L10.4528 13.293L10.4621 13.4885Z" fill="#C4C5C4"/>
<path d="M14.8221 13.3008C14.8942 13.383 14.9895 13.5844 15.0707 13.8268C15.1356 14.0206 15.1432 14.1013 15.1432 14.5907C15.1432 15.1634 15.1321 15.2419 14.9663 15.8415C14.6429 17.011 13.744 18.7893 13.2577 19.2216C12.998 19.4525 12.828 19.5101 12.3625 19.525C11.9323 19.5387 11.7848 19.5137 11.6447 19.4035C11.4644 19.2617 11.4585 19.2248 11.4473 18.1867C11.4316 16.7192 11.4194 16.5254 11.3381 16.4575C11.2495 16.3835 11.1298 16.4009 11.0579 16.4982C11.0043 16.5707 10.9996 16.667 10.9923 17.8271L10.9844 19.0779H10.163H9.34162L9.32355 17.8115C9.30372 16.4197 9.30154 16.4043 9.12314 16.4043C8.97464 16.4043 8.90554 16.4994 8.90154 16.7092C8.89963 16.8081 8.88872 17.4026 8.87727 18.0304C8.85726 19.1302 8.85404 19.1757 8.78831 19.2814C8.65923 19.489 8.57421 19.5158 8.04506 19.515C7.59982 19.5144 7.56664 19.51 7.39081 19.4283C7.10241 19.2944 6.96633 19.1606 6.67368 18.7232C6.10104 17.8673 5.44832 16.3694 5.26802 15.4975C5.16749 15.0114 5.15867 14.9418 5.15501 14.6063C5.15007 14.1552 5.22627 13.7982 5.39863 13.465C5.45329 13.3593 5.51089 13.2895 5.54807 13.2839C5.58131 13.2789 5.71373 13.3299 5.84231 13.3972C6.47199 13.7269 7.89259 14.1063 8.73299 14.1692C8.87058 14.1795 9.01633 14.1948 9.05688 14.2032C9.14015 14.2203 9.13896 14.2367 9.03227 14.5408C8.99666 14.6424 8.96751 14.788 8.96751 14.8643C8.96751 15.1923 9.18271 15.6133 9.4475 15.8035C9.69641 15.9822 9.86098 16.0367 10.1573 16.0382C10.4023 16.0394 10.4445 16.03 10.6626 15.925C10.9339 15.7946 11.1058 15.6225 11.2418 15.3451C11.3177 15.1904 11.3281 15.1333 11.3279 14.8721C11.3277 14.6261 11.3148 14.5464 11.2526 14.4081C11.1954 14.2809 11.1868 14.2353 11.2163 14.2171C11.2377 14.2039 11.3912 14.1839 11.5575 14.1726C11.7239 14.1614 11.9303 14.139 12.0163 14.1228C12.528 14.0265 12.7417 13.9807 13.0638 13.8978C13.4431 13.8003 13.4894 13.7858 13.9863 13.6076C14.2921 13.498 14.6813 13.3162 14.7103 13.2696C14.7336 13.2319 14.7705 13.2422 14.8221 13.3008Z" fill="#FDA624"/>
<path d="M5.65365 14.6795C5.65365 14.0641 5.78185 13.5684 5.84595 13.3974L5.52544 13.0769L5.20493 13.2051L5.01262 13.5897L4.82031 14.0385V14.6795L4.88442 15.5769L5.01262 16.0897L5.26903 16.6026L5.52544 17.3077L6.10236 18.3974L6.61518 19.2308L7.128 19.6795L7.89723 19.8077C8.19638 19.765 8.65364 19.6795 8.08954 19.6795C7.38441 19.6795 5.65365 15.4487 5.65365 14.6795Z" fill="#EF8200"/>
<path d="M14.6393 14.6795C14.6393 14.0641 14.5111 13.5684 14.447 13.3974L14.7675 13.0769L15.088 13.2051L15.2803 13.5897L15.4727 14.0385V14.6795L15.4086 15.5769L15.2803 16.0897L15.0239 16.6026L14.7675 17.3077L14.1906 18.3974L13.6778 19.2308L13.165 19.6795L12.3846 19.8077C12.0854 19.765 11.6282 19.6795 12.1923 19.6795C12.8974 19.6795 14.6393 15.4487 14.6393 14.6795Z" fill="#EF8200"/>
<path d="M7.89701 18.718C7.0765 18.6667 6.7859 18.953 6.74316 19.1026L6.99957 19.4872L7.51239 19.6795L8.02522 19.7436H8.34573L8.66624 19.6154L8.98675 19.4231V19.1026C8.96539 18.9957 8.71752 18.7692 7.89701 18.718Z" fill="#FDFCFB"/>
<path fill-rule="evenodd" clip-rule="evenodd" d="M8.08954 19.6795C7.87963 19.6795 7.57883 19.3046 7.25985 18.7576C6.91523 18.8369 6.77236 19.0012 6.74339 19.1026L6.68844 19.2949L7.128 19.6795L7.89723 19.8077C8.19638 19.765 8.65364 19.6795 8.08954 19.6795Z" fill="#DBDBDB"/>
<path d="M12.5767 18.718C11.7562 18.6667 11.4656 18.953 11.4229 19.1026L11.6152 19.4872L12.1921 19.6795L12.7049 19.7436H13.0254L13.3459 19.6154L13.6664 19.4231V19.1026C13.6451 18.9957 13.3972 18.7692 12.5767 18.718Z" fill="#FDFCFB"/>
<path fill-rule="evenodd" clip-rule="evenodd" d="M12.1923 19.6795C12.4006 19.6795 12.6995 19.3102 13.0171 18.7699C13.4906 18.8581 13.6497 19.0179 13.6666 19.1026L13.6778 19.2308L13.165 19.6795L12.3846 19.8077C12.0854 19.765 11.6282 19.6795 12.1923 19.6795Z" fill="#DBDBDB"/>
<path d="M9.06399 17.2436C8.03836 16.6667 6.05119 15 6.24348 13.5898L6.82041 13.6539L7.26913 13.7821L7.78195 13.9103L8.67939 14.0385H10.1537H11.6281L12.5255 13.9103L13.0384 13.7821L13.4871 13.6539L14.064 13.5898C14.2563 15 11.9486 16.9818 11.4999 17.2436C11.2435 17.3932 10.2675 17.9206 9.06399 17.2436Z" fill="#FDFDFD"/>
<path d="M9.2434 16.6026C9.2434 15.9615 8.47417 14.6795 7.76904 14.0385H10.2049H12.6408C11.9357 14.6795 11.1665 15.9615 11.1665 16.6026C11.1665 17.2436 11.1665 18.4615 10.2049 18.4615C9.2434 18.4615 9.2434 17.2436 9.2434 16.6026Z" fill="#DEDEDE"/>
<path d="M10.5078 14.1839C10.5596 14.1846 10.7899 14.4219 10.8463 14.5326C10.9215 14.68 10.9275 15.0117 10.8581 15.178C10.7071 15.5393 10.2347 15.7231 9.87089 15.562C9.59215 15.4386 9.43327 15.2049 9.41251 14.8878C9.402 14.7275 9.41335 14.6752 9.49031 14.5287C9.65291 14.2192 10.0302 14.0481 10.3438 14.1416C10.4212 14.1647 10.495 14.1837 10.5078 14.1839Z" fill="#FDFDFD"/>
<ellipse cx="9.94892" cy="14.8718" rx="0.769231" ry="0.76923" fill="#F8E036"/>
<path fill-rule="evenodd" clip-rule="evenodd" d="M4.06557 0.0164027C3.55891 0.146859 3.15209 0.965901 2.94277 2.27688C2.87157 2.72275 2.86153 4.24854 2.92686 4.69392C2.97223 5.00336 3.0717 5.51014 3.12032 5.67962C3.16704 5.84251 3.15797 6.0037 3.09274 6.17024C3.00372 6.39754 2.90775 6.81777 2.83558 7.2961C2.78033 7.66246 2.77289 7.82315 2.78611 8.36808C2.80656 9.21027 2.88883 9.59757 3.18198 10.2314C3.54568 11.0178 4.25128 11.7412 5.12917 12.2277L5.34024 12.3447V12.5381C5.34024 12.7201 5.33123 12.7439 5.18777 12.9407C4.90584 13.3273 4.77595 13.6709 4.71894 14.1802C4.70293 14.3235 4.67638 14.4541 4.66 14.4705C4.61178 14.5187 4.09227 14.1498 3.85672 13.9001C3.4448 13.4634 3.19743 12.9829 3.07204 12.3758C3.04493 12.2445 3.00025 12.1122 2.97276 12.0818C2.90384 12.0057 2.76375 12.0127 2.67048 12.097C2.54734 12.2082 2.29327 12.6857 2.1884 13.0029C1.84077 14.0545 1.97592 15.0982 2.57973 16.025C2.74315 16.2758 3.28383 16.8089 3.54634 16.9781L3.76932 17.1218L3.79071 17.3025C3.81616 17.5175 3.93502 18.0064 4.02948 18.2845C4.19987 18.7861 4.49843 19.1863 4.82598 19.3522C5.15309 19.5179 5.27635 19.5383 6.0438 19.554L6.763 19.5688L6.95756 19.6907C7.1422 19.8064 7.36078 19.888 7.6937 19.9656C8.11566 20.064 8.71387 19.9436 8.99486 19.7037L9.16021 19.5626H10.1691C11.1568 19.5626 11.1792 19.5639 11.2375 19.6287C11.3795 19.7865 11.563 19.878 11.8663 19.9423C12.413 20.0582 13.0288 19.9471 13.397 19.6661L13.5123 19.5782L14.2339 19.557C15.1989 19.5285 15.4611 19.455 15.8099 19.115C16.0235 18.9067 16.1717 18.6408 16.3165 18.2061C16.496 17.6674 16.5463 17.3608 16.5249 16.9359C16.4893 16.2286 16.2125 15.6673 15.7541 15.3732L15.5979 15.273L15.6177 14.7941C15.6386 14.2864 15.6079 13.9814 15.5023 13.6511C15.4202 13.3939 15.2641 13.0957 15.123 12.9262C15.0017 12.7806 14.9999 12.7747 15.009 12.5532L15.0181 12.3282L15.2793 12.1782C16.4508 11.5055 17.207 10.5061 17.4526 9.30617C17.6481 8.35051 17.5608 7.16146 17.2186 6.1224C17.1829 6.01377 17.1605 5.89416 17.1688 5.85661C17.3703 4.95289 17.4729 4.16559 17.4727 3.52409C17.4725 2.8133 17.3248 1.78232 17.1431 1.223C16.9561 0.647359 16.6805 0.222344 16.3975 0.0733757C16.2099 -0.0254047 15.759 -0.0242791 15.4559 0.0757208C14.9213 0.252175 14.2333 0.664714 13.599 1.18907C13.4205 1.33673 13.2569 1.45752 13.2355 1.45752C13.2141 1.45752 13.114 1.42059 13.013 1.37547C12.558 1.17225 11.8266 0.967934 11.2189 0.874282C10.7079 0.795514 9.58417 0.795514 9.10821 0.874282C8.44023 0.984851 7.93755 1.12172 7.40743 1.33741C7.24508 1.40349 7.10024 1.45752 7.08554 1.45752C7.07085 1.45752 6.91484 1.34098 6.73892 1.19852C5.79902 0.437478 5.01666 0.0346014 4.41779 0.00320684C4.2802 -0.00398515 4.1217 0.00192493 4.06557 0.0164027ZM4.81635 0.523813C5.2489 0.671843 5.82498 1.02478 6.39655 1.49185C6.94267 1.9382 6.96941 1.95783 7.03045 1.95783C7.06306 1.95783 7.18511 1.91406 7.30162 1.86058C7.86228 1.60317 8.3796 1.44451 9.03004 1.33047C9.59083 1.23213 10.7142 1.23175 11.2747 1.32972C11.9263 1.44357 12.4557 1.60239 12.9666 1.83723C13.1108 1.90355 13.2608 1.95783 13.2998 1.95783C13.3428 1.95783 13.473 1.86962 13.63 1.73413C14.3194 1.13945 15.0627 0.665245 15.5613 0.502174C15.8101 0.42078 15.8593 0.454614 15.6748 0.580286C15.0652 0.995482 14.5707 1.45458 14.1971 1.95195C13.9071 2.33807 13.9113 2.35464 14.3951 2.7301C14.7284 2.98873 15.3427 3.62237 15.6197 3.99317C16.348 4.96824 16.8215 6.05458 17.0156 7.19548C17.1352 7.89879 17.1597 8.36758 17.0976 8.76317C17.0804 8.87265 17.0513 9.0572 17.033 9.17327C16.9698 9.57355 16.7501 10.113 16.4921 10.5014C15.8285 11.5003 14.5302 12.2379 12.8136 12.5911C12.1624 12.7251 10.966 12.838 10.1865 12.8389C9.61315 12.8396 8.65512 12.7771 8.23267 12.7115C7.17998 12.5478 6.53029 12.3743 5.82604 12.0687C4.55228 11.5159 3.66919 10.5946 3.37279 9.50942C3.33524 9.37183 3.29039 9.21705 3.27317 9.16546C3.25594 9.11386 3.23355 8.80429 3.22342 8.47753C3.20547 7.89957 3.24796 7.34726 3.33764 6.99222C3.6347 5.8163 3.90859 5.1663 4.45099 4.34995C4.87642 3.70961 5.38132 3.16418 6.02004 2.65496C6.3216 2.41452 6.37491 2.33072 6.30747 2.20308C6.09699 1.80483 5.21391 0.93754 4.66725 0.592168C4.43214 0.443669 4.49624 0.414276 4.81635 0.523813ZM4.13214 0.818997C4.21153 0.863369 4.28355 0.911148 4.29221 0.925126C4.81642 1.24047 5.84615 1.93496 5.84615 2.24359C5.84615 2.25965 5.71155 2.38419 5.51093 2.56979C5.00769 3.03538 4.08909 3.88524 3.83785 4.37124C3.82824 4.41637 3.81246 4.4504 3.78774 4.49066C3.75078 4.55086 3.66738 4.70517 3.60237 4.83356C3.46066 5.11352 3.45565 5.10633 3.39712 4.53757C3.32542 3.84104 3.36053 2.53028 3.46116 2.14545C3.47692 2.08526 3.52023 1.89529 3.55744 1.72331C3.59462 1.55133 3.63808 1.3862 3.654 1.35633C3.66991 1.32647 3.68295 1.28873 3.68295 1.2725C3.68295 1.23451 3.86872 0.828753 3.90962 0.777409C3.95221 0.723938 3.967 0.726721 4.13214 0.818997ZM16.4964 0.936539C16.5485 1.04558 16.6158 1.21093 16.646 1.30396C16.6762 1.39701 16.7122 1.5013 16.7261 1.53569C16.7536 1.60367 16.7984 1.826 16.849 2.14545C16.8667 2.25724 16.8953 2.41906 16.9127 2.50505C16.9627 2.75339 16.9823 3.87165 16.9434 4.25614C16.9353 4.33584 16.9282 4.40831 16.9217 4.47395C16.8854 4.84124 16.8703 4.99438 16.8336 4.99977C16.8073 5.00363 16.7699 4.93195 16.7058 4.80901C16.6897 4.77829 16.6721 4.74436 16.6525 4.70761L16.4616 4.34995C16.3251 3.89662 15.338 3.00611 14.8202 2.53901C14.6314 2.36868 14.505 2.25466 14.505 2.23865C14.505 1.93002 15.5347 1.23553 16.0589 0.920185C16.1086 0.870467 16.3248 0.744763 16.3666 0.741261C16.3859 0.739635 16.4444 0.827534 16.4964 0.936539ZM6.28908 5.52384C5.98417 5.58419 5.70515 5.81042 5.56375 6.11205C5.45077 6.35304 5.44562 6.75086 5.55284 6.95354C5.7044 7.24007 5.9974 7.35633 6.49424 7.32709C6.99296 7.29776 7.33017 7.14504 7.48692 6.87756C7.70115 6.51202 7.50781 5.92618 7.08482 5.65917C6.95052 5.57437 6.65625 5.4896 6.51409 5.49473C6.46181 5.4966 6.36056 5.50971 6.28908 5.52384ZM13.5929 5.52131C13.1473 5.60158 12.7956 5.99413 12.7584 6.45276C12.7274 6.83419 12.9098 7.08929 13.3167 7.23353C13.5175 7.30473 13.6008 7.31605 13.9394 7.31815C14.2831 7.32027 14.3453 7.31242 14.4553 7.25308C14.7297 7.10498 14.8462 6.89751 14.8462 6.55664C14.8462 6.00101 14.4534 5.55642 13.9227 5.51136C13.8201 5.50267 13.6717 5.50714 13.5929 5.52131ZM6.81891 5.90045C6.9165 5.94495 6.99752 6.0856 6.99752 6.21061C6.99752 6.36236 6.82432 6.52318 6.6609 6.52318C6.42082 6.52318 6.26131 6.29279 6.35165 6.07653C6.4307 5.88735 6.62745 5.81321 6.81891 5.90045ZM13.8255 5.90148C14.0245 5.99216 14.0511 6.29351 13.8733 6.44313C13.6854 6.60129 13.4126 6.51821 13.3477 6.283C13.2693 5.99923 13.5494 5.77565 13.8255 5.90148ZM9.73585 6.88478C9.21203 6.98882 8.89511 7.29176 8.95731 7.62909C8.99089 7.81114 9.15086 8.10145 9.30196 8.25439C9.46106 8.41546 9.72754 8.58619 9.82056 8.58669C9.91318 8.58716 9.92469 8.68337 9.84045 8.7527C9.69426 8.87299 9.30987 9.03516 9.17091 9.03516C8.91506 9.03516 8.66594 8.83006 8.46587 8.4547C8.4104 8.3506 8.33426 8.25511 8.29105 8.23544C8.1842 8.18675 8.05559 8.23841 8.00118 8.35192C7.95987 8.43813 7.96428 8.45748 8.07341 8.66949C8.21018 8.93516 8.38226 9.13947 8.61259 9.30964C8.7196 9.38869 8.78576 9.46305 8.79786 9.5179C8.91838 10.0636 9.04796 10.3463 9.30484 10.6238C9.51809 10.8541 9.6513 10.9423 9.89136 11.0121C10.5505 11.2038 11.2652 10.6037 11.4514 9.70204C11.4783 9.57177 11.5003 9.45873 11.5003 9.45088C11.5003 9.44304 11.5684 9.39473 11.6516 9.34357C11.8748 9.20617 12.1038 8.95798 12.2316 8.71464C12.3673 8.45651 12.3737 8.36424 12.2622 8.27656C12.0984 8.1477 11.9939 8.20598 11.8266 8.5194C11.7157 8.72712 11.4428 8.98131 11.2849 9.02384C11.195 9.04801 11.1296 9.04444 11.0129 9.00905C10.8088 8.94707 10.4238 8.73466 10.4128 8.678C10.4072 8.64892 10.4769 8.60123 10.6091 8.54363C11.0369 8.35726 11.344 7.93894 11.344 7.54251C11.344 7.27243 11.2577 7.15301 10.9604 7.01149C10.6042 6.84191 10.1752 6.79751 9.73585 6.88478ZM10.6236 9.95951C10.8823 10.0297 10.8848 10.0707 10.6461 10.3296C10.3981 10.5986 10.1552 10.6608 9.88845 10.5235C9.7311 10.4425 9.45502 10.1437 9.47597 10.077C9.4822 10.0572 9.57788 10.0099 9.68861 9.97193C9.85255 9.91571 9.94514 9.90461 10.187 9.91227C10.3504 9.91743 10.5468 9.93869 10.6236 9.95951ZM2.79208 13.082C3.07676 13.8411 3.64687 14.4763 4.41744 14.8931C4.5868 14.9847 4.70287 15.0676 4.70947 15.1018C4.73051 15.2112 4.68527 15.2948 4.57204 15.3558C4.50922 15.3896 4.37814 15.5043 4.28073 15.6105C4.10287 15.8046 4.01178 15.9876 3.88158 16.4122C3.85124 16.5111 3.81094 16.592 3.79202 16.592C3.69152 16.592 3.18411 16.1136 2.97945 15.8259C2.65056 15.3635 2.47398 14.8438 2.44287 14.2468C2.42304 13.8667 2.45806 13.5389 2.53705 13.3653C2.56297 13.3084 2.60953 13.1879 2.64058 13.0976C2.6716 13.0073 2.70587 12.9334 2.71669 12.9334C2.72751 12.9334 2.76144 13.0003 2.79208 13.082ZM14.8221 13.3008C14.8942 13.383 14.9894 13.5844 15.0707 13.8268C15.1356 14.0206 15.1432 14.1013 15.1432 14.5907C15.1432 15.1634 15.1321 15.2419 14.9663 15.8415C14.6429 17.011 13.744 18.7893 13.2577 19.2216C12.998 19.4525 12.828 19.5101 12.3625 19.525C11.9323 19.5387 11.7848 19.5137 11.6446 19.4035C11.4644 19.2617 11.4585 19.2248 11.4473 18.1867C11.4316 16.7192 11.4194 16.5254 11.3381 16.4575C11.2495 16.3835 11.1298 16.4009 11.0579 16.4982C11.0043 16.5707 10.9995 16.667 10.9923 17.8271L10.9844 19.0779H10.163H9.34161L9.32353 17.8115C9.30371 16.4197 9.30152 16.4043 9.12313 16.4043C8.97463 16.4043 8.90552 16.4994 8.90152 16.7092C8.89961 16.8081 8.8887 17.4026 8.87726 18.0304C8.85724 19.1302 8.85402 19.1757 8.78829 19.2814C8.65921 19.489 8.57419 19.5158 8.04505 19.515C7.5998 19.5144 7.56663 19.51 7.3908 19.4283C7.1024 19.2944 6.96631 19.1606 6.67366 18.7232C6.10102 17.8673 5.4483 16.3695 5.268 15.4975C5.16747 15.0114 5.15865 14.9418 5.155 14.6064C5.15006 14.1552 5.22626 13.7982 5.39862 13.465C5.45328 13.3593 5.51087 13.2895 5.54805 13.2839C5.58129 13.2789 5.71372 13.3299 5.8423 13.3972C6.47197 13.7269 7.89258 14.1063 8.73298 14.1692C8.87056 14.1796 9.01631 14.1948 9.05687 14.2032C9.14014 14.2203 9.13895 14.2367 9.03226 14.5408C8.99664 14.6424 8.9675 14.788 8.9675 14.8644C8.9675 15.1923 9.1827 15.6134 9.44749 15.8035C9.69639 15.9822 9.86096 16.0367 10.1573 16.0382C10.4022 16.0394 10.4445 16.03 10.6626 15.925C10.9339 15.7946 11.1057 15.6225 11.2418 15.3451C11.3177 15.1904 11.3281 15.1333 11.3279 14.8721C11.3277 14.6261 11.3147 14.5464 11.2526 14.4081C11.1954 14.2809 11.1868 14.2353 11.2163 14.2171C11.2377 14.2039 11.3912 14.1839 11.5575 14.1726C11.7238 14.1614 11.9303 14.139 12.0163 14.1228C12.528 14.0266 12.7417 13.9807 13.0638 13.8978C13.4431 13.8003 13.4894 13.7858 13.9863 13.6076C14.2921 13.498 14.6813 13.3162 14.7102 13.2696C14.7336 13.2319 14.7705 13.2422 14.8221 13.3008ZM10.4621 13.4885C10.4689 13.6316 10.4606 13.6846 10.4308 13.6864C10.2482 13.6975 9.9058 13.6877 9.878 13.6705C9.84389 13.6494 9.83526 13.4381 9.86418 13.331C9.87751 13.2816 9.91271 13.2761 10.166 13.2841L10.4528 13.293L10.4621 13.4885ZM10.5074 14.1839C10.5591 14.1846 10.7894 14.4219 10.8459 14.5326C10.9211 14.68 10.9271 15.0117 10.8576 15.178C10.7067 15.5393 10.2343 15.7231 9.87047 15.562C9.59173 15.4386 9.43285 15.2049 9.41209 14.8878C9.40158 14.7275 9.41293 14.6752 9.48989 14.5287C9.65249 14.2192 10.0298 14.0481 10.3434 14.1416C10.4207 14.1647 10.4946 14.1837 10.5074 14.1839ZM4.87313 15.9119C5.0882 16.7139 5.73423 18.1726 6.15618 18.8089C6.24055 18.9361 6.30959 19.0523 6.30959 19.0669C6.30959 19.1104 5.49796 19.0973 5.3246 19.051C4.86482 18.9282 4.66153 18.6973 4.43992 18.046C4.18251 17.2895 4.18233 16.7441 4.43927 16.2207C4.53695 16.0217 4.73661 15.779 4.80262 15.779C4.82182 15.779 4.85356 15.8388 4.87313 15.9119ZM15.751 15.999C15.903 16.1913 15.9944 16.429 16.0593 16.8007C16.1125 17.1053 16.0981 17.273 15.9833 17.6864C15.7258 18.6144 15.546 18.8769 15.0642 19.0291C14.8994 19.0811 14.7774 19.0935 14.431 19.0935C14.195 19.0935 14.0019 19.087 14.0019 19.079C14.0019 19.071 14.0767 18.9478 14.1682 18.8054C14.3464 18.5279 14.6615 17.9365 14.7812 17.6551C14.8214 17.5605 14.8955 17.3932 14.9457 17.2833C15.0873 16.9738 15.2401 16.576 15.3621 16.2C15.4232 16.0114 15.4797 15.8389 15.4876 15.8167C15.5103 15.7526 15.6117 15.8228 15.751 15.999Z" fill="#301F1B"/>
<path d="M4.873 15.9119C5.08807 16.7139 5.7341 18.1726 6.15605 18.8089C6.24042 18.9362 6.30946 19.0523 6.30946 19.0669C6.30946 19.1104 5.49783 19.0973 5.32447 19.051C4.86468 18.9282 4.6614 18.6973 4.43979 18.046C4.18238 17.2895 4.18219 16.7441 4.43914 16.2207C4.53682 16.0217 4.73648 15.779 4.80249 15.779C4.82169 15.779 4.85343 15.8388 4.873 15.9119Z" fill="#EF8100"/>
<path d="M15.7508 15.999C15.9029 16.1913 15.9942 16.429 16.0591 16.8007C16.1124 17.1054 16.098 17.273 15.9832 17.6864C15.7256 18.6144 15.5459 18.8769 15.064 19.0291C14.8992 19.0811 14.7773 19.0935 14.4308 19.0935C14.1948 19.0935 14.0018 19.087 14.0018 19.079C14.0018 19.071 14.0766 18.9478 14.1681 18.8054C14.3463 18.5279 14.6614 17.9365 14.7811 17.6551C14.8213 17.5605 14.8953 17.3932 14.9456 17.2833C15.0871 16.9738 15.24 16.576 15.3619 16.2C15.4231 16.0115 15.4796 15.8389 15.4874 15.8167C15.5101 15.7526 15.6116 15.8228 15.7508 15.999Z" fill="#EF8100"/>
<ellipse cx="10.141" cy="7.49999" rx="0.833333" ry="0.320514" fill="#5B3B37"/>
<path d="M5.71777 12.8205C5.71777 13.3333 8.11094 13.7179 9.30752 13.8461V13.3333C9.30752 13.3333 7.64085 13.2051 7.38444 13.141C7.12803 13.0769 5.71777 12.6282 5.71777 12.8205Z" fill="#B1151F"/>
<path d="M14.564 12.8205C14.564 13.3333 12.1708 13.7179 10.9742 13.8461V13.3333C10.9742 13.3333 12.6409 13.2051 12.8973 13.141C13.1537 13.0769 14.564 12.6282 14.564 12.8205Z" fill="#B1151F"/>
</svg>
