<svg width="20" height="20" viewBox="0 0 20 20" fill="none" xmlns="http://www.w3.org/2000/svg">
<path d="M14.4043 9.8431C14.5489 9.80525 14.6958 9.89652 14.7314 10.0434L14.9673 11.0179C15.0028 11.1625 14.9138 11.3116 14.7692 11.3472C14.6246 11.385 14.4777 11.2938 14.4421 11.1469L14.2063 10.1724C14.1707 10.0278 14.2597 9.87867 14.4043 9.8431ZM7.095 2.71623C7.01266 2.58718 7.0505 2.4203 7.17063 2.33797L8.00284 1.78838C8.12967 1.70606 8.2965 1.74388 8.37885 1.86626C8.46119 1.99531 8.42334 2.16219 8.30321 2.24452L7.47101 2.79411C7.34645 2.87866 7.17955 2.84084 7.095 2.71623Z" fill="white"/>
<path fill-rule="evenodd" clip-rule="evenodd" d="M11.3935 6.1233C10.4305 5.9064 9.39706 6.08482 8.55017 6.65912C9.82509 6.23191 11.2914 6.52785 12.3061 7.5536C13.7345 8.99764 13.7345 11.3496 12.3061 12.7936C12.1348 12.9672 11.9478 13.1207 11.7498 13.252C12.2727 13.0718 12.7666 12.778 13.1827 12.3575C14.1928 11.3364 14.4887 9.86136 14.0702 8.57435C12.9047 8.11474 11.9505 7.23576 11.3935 6.1233Z" fill="#FFAE54"/>
<path d="M17.4034 14.4087L17.4034 14.4088C15.0878 18.6886 9.77611 20.252 5.54685 17.9168C1.31598 15.5809 -0.243709 10.214 2.07319 5.93171C3.59763 3.11408 6.42064 1.4719 9.37878 1.34555C9.7713 1.32879 10.0755 1.5356 10.2868 1.90239C10.5033 2.27804 10.5997 2.79382 10.5481 3.28167C10.5282 3.47063 10.5179 3.66239 10.5179 3.85642C10.5179 4.76707 10.7429 5.6252 11.1403 6.37823C9.30093 5.68368 7.18449 6.44544 6.21811 8.22967C5.15939 10.1845 5.87185 12.6475 7.81297 13.7202C9.75649 14.7942 12.1989 14.0672 13.2585 12.1108L13.2586 12.1105C13.8515 11.0133 13.8879 9.75579 13.4622 8.6739C14.202 9.05352 15.0406 9.26776 15.9293 9.26776C16.4275 9.26776 16.9105 9.20035 17.3694 9.07396C17.6316 9.00175 17.9127 9.03263 18.1228 9.14023C18.3258 9.24421 18.4467 9.40763 18.46 9.61851C18.5614 11.2294 18.2274 12.8873 17.4034 14.4087Z" fill="url(#paint0_radial)" stroke="#AC562A" stroke-width="1.08"/>
<mask id="mask0" mask-type="alpha" maskUnits="userSpaceOnUse" x="5" y="1" width="14" height="16">
<path d="M10.9246 3.04549C11.0753 2.10039 10.5994 0.992331 9.64236 1.00004C8.45636 1.0096 7.27138 1.25246 6.16044 1.72837C4.06222 2.72298 5.33272 7.52022 9.06857 6.52782C10.2101 6.32535 11.4227 6.66801 12.3039 7.55578C13.6678 8.93533 13.7488 11.1164 12.5116 12.5716C12.7542 12.6161 13.1805 12.5132 13.848 12.0949C14.3754 11.7656 14.9695 12.0927 15.163 12.6467C15.341 13.1533 15.1098 13.597 14.8785 14.041C14.7511 14.2853 14.6237 14.5298 14.5645 14.785C14.3931 15.526 14.5823 16.2936 15.3811 16.505C15.7304 16.5962 16.1532 16.4427 16.5826 16.169C18.1823 14.2971 18.9116 11.9308 18.7713 9.60893C18.7287 8.90501 17.9351 8.56723 17.2543 8.75109C16.832 8.86514 16.3877 8.92602 15.9293 8.92602C13.1295 8.92602 10.8598 6.6563 10.8598 3.85642C10.8598 3.58355 10.8821 3.31153 10.9246 3.04549Z" fill="white"/>
</mask>
<g mask="url(#mask0)">
<path d="M10.9246 3.04549C11.0753 2.10039 10.5994 0.992331 9.64236 1.00004C8.45636 1.0096 7.27138 1.25246 6.16044 1.72837C4.06222 2.72298 5.33272 7.52022 9.06857 6.52782C10.2101 6.32535 11.4227 6.66801 12.3039 7.55578C13.6678 8.93533 13.7488 11.1164 12.5116 12.5716C12.7542 12.6161 13.1805 12.5132 13.848 12.0949C14.3754 11.7656 14.9695 12.0927 15.163 12.6467C15.341 13.1533 15.1098 13.597 14.8785 14.041C14.7511 14.2853 14.6237 14.5298 14.5645 14.785C14.3931 15.526 14.5823 16.2936 15.3811 16.505C15.7304 16.5962 16.1532 16.4427 16.5826 16.169C18.1823 14.2971 18.9116 11.9308 18.7713 9.60893C18.7287 8.90501 17.9351 8.56723 17.2543 8.75109C16.832 8.86514 16.3877 8.92602 15.9293 8.92602C13.1295 8.92602 10.8598 6.6563 10.8598 3.85642C10.8598 3.58355 10.8821 3.31153 10.9246 3.04549Z" fill="#AC562A"/>
<path d="M6.16035 1.72836L5.89117 1.10005L5.87927 1.10515L5.86757 1.1107L6.16035 1.72836ZM9.06848 6.52781L8.94912 5.85478L8.92083 5.85978L8.89304 5.86718L9.06848 6.52781ZM12.3038 7.55577L12.7898 7.07521L12.7889 7.07426L12.3038 7.55577ZM12.5115 12.5715L11.9908 12.1288L11.2243 13.0303L12.3882 13.2439L12.5115 12.5715ZM13.8479 12.0949L13.4858 11.5151L13.485 11.5157L13.8479 12.0949ZM15.1629 12.6467L14.5177 12.8722L14.518 12.8733L15.1629 12.6467ZM14.8784 14.041L15.4846 14.3568L14.8784 14.041ZM14.5644 14.785L13.8986 14.6304L13.8984 14.631L14.5644 14.785ZM15.381 16.505L15.2061 17.1657L15.2083 17.1663L15.381 16.505ZM16.5825 16.169L16.9499 16.7454L17.0359 16.6906L17.1021 16.6131L16.5825 16.169ZM18.7712 9.60892L18.0889 9.65018L18.7712 9.60892ZM17.2542 8.75108L17.0761 8.09115L17.2542 8.75108ZM9.64227 1.00003L9.63677 0.316516L9.64227 1.00003ZM10.9245 3.04548L10.2495 2.93779L10.9245 3.04548ZM9.63677 0.316516C8.36121 0.326794 7.08654 0.587988 5.89117 1.10005L6.42952 2.35668C7.45609 1.91692 8.55134 1.69238 9.64778 1.68355L9.63677 0.316516ZM5.86757 1.1107C5.10567 1.47186 4.68467 2.16736 4.53457 2.90028C4.38582 3.62657 4.48875 4.43141 4.79992 5.14611C5.11283 5.86471 5.65352 6.53072 6.42167 6.93977C7.20008 7.35426 8.15944 7.47653 9.24399 7.18843L8.89304 5.86718C8.10963 6.07528 7.50926 5.97003 7.06426 5.73307C6.60908 5.49067 6.26275 5.08128 6.05332 4.60032C5.84219 4.11541 5.78744 3.59648 5.87383 3.17458C5.95889 2.7593 6.16592 2.48217 6.45313 2.34602L5.86757 1.1107ZM9.18791 7.20084C10.1166 7.03609 11.1011 7.31432 11.8186 8.03729L12.7889 7.07426C11.7442 6.02167 10.3033 5.61459 8.94912 5.85478L9.18791 7.20084ZM11.8177 8.0364C12.9345 9.16595 12.9962 10.9462 11.9908 12.1288L13.0323 13.0143C14.5012 11.2865 14.4009 8.70469 12.7898 7.07521L11.8177 8.0364ZM12.3882 13.2439C12.6627 13.2942 12.9526 13.2486 13.2338 13.1561C13.5219 13.0615 13.8462 12.9027 14.2109 12.6741L13.485 11.5157C13.1822 11.7054 12.9596 11.8072 12.8069 11.8574C12.6474 11.9098 12.603 11.8934 12.6349 11.8992L12.3882 13.2439ZM14.2099 12.6747C14.2473 12.6514 14.2717 12.6476 14.2846 12.6469C14.299 12.6461 14.3187 12.6485 14.3448 12.6605C14.4013 12.6865 14.477 12.7557 14.5177 12.8722L15.8082 12.4212C15.6553 11.9837 15.3372 11.6123 14.9165 11.4186C14.479 11.2173 13.9543 11.2226 13.4858 11.5151L14.2099 12.6747ZM14.518 12.8733C14.5827 13.0572 14.53 13.2303 14.2722 13.7251L15.4846 14.3568C15.6894 13.9636 16.0991 13.2494 15.8078 12.4202L14.518 12.8733ZM14.2722 13.7251C14.1534 13.9532 13.981 14.2757 13.8986 14.6304L15.2302 14.9396C15.2663 14.784 15.3487 14.6175 15.4846 14.3568L14.2722 13.7251ZM13.8984 14.631C13.7913 15.0941 13.782 15.6221 13.9752 16.0998C14.18 16.6064 14.5945 17.0039 15.2061 17.1657L15.5558 15.8442C15.3687 15.7946 15.2892 15.7027 15.2426 15.5873C15.1843 15.4432 15.1661 15.2169 15.2304 14.939L13.8984 14.631ZM15.2083 17.1663C15.8521 17.3345 16.4923 17.037 16.9499 16.7454L16.2152 15.5925C15.8139 15.8483 15.6085 15.8579 15.5537 15.8436L15.2083 17.1663ZM17.1021 16.6131C18.8216 14.601 19.604 12.0589 19.4535 9.56772L18.0889 9.65018C18.219 11.8026 17.5428 13.9931 16.0629 15.7249L17.1021 16.6131ZM17.0761 8.09115C16.7113 8.18969 16.327 8.24247 15.9292 8.24247V9.60955C16.4484 9.60955 16.9525 9.54056 17.4324 9.41094L17.0761 8.09115ZM15.9292 8.24247C13.5069 8.24247 11.5432 6.27876 11.5432 3.85641H10.1761C10.1761 7.03375 12.7519 9.60955 15.9292 9.60955V8.24247ZM11.5432 3.85641C11.5432 3.62071 11.5626 3.3847 11.5995 3.15316L10.2495 2.93779C10.2015 3.23833 10.1761 3.54637 10.1761 3.85641H11.5432ZM19.4535 9.56772C19.4151 8.93304 19.0282 8.47905 18.5662 8.24001C18.1181 8.00811 17.573 7.95697 17.0761 8.09115L17.4324 9.41094C17.6163 9.36132 17.8084 9.38715 17.938 9.45417C18.0536 9.51405 18.0847 9.58088 18.0889 9.65018L19.4535 9.56772ZM9.64778 1.68355C9.81651 1.68219 9.97139 1.76441 10.1018 1.9983C10.2402 2.24661 10.303 2.60261 10.2495 2.93779L11.5995 3.15316C11.6967 2.54324 11.5969 1.87266 11.2958 1.3326C10.9867 0.778113 10.4251 0.310162 9.63677 0.316516L9.64778 1.68355Z" fill="#AC562A"/>
<path d="M9.72064 16.5588C9.97232 16.5588 10.1763 16.3548 10.1763 16.1031C10.1763 15.8514 9.97232 15.6474 9.72064 15.6474C9.46897 15.6474 9.26495 15.8514 9.26495 16.1031C9.26495 16.3548 9.46897 16.5588 9.72064 16.5588Z" fill="#AC562A"/>
<path d="M6.92965 17.2424C7.33861 17.2424 7.67014 16.9109 7.67014 16.5019C7.67014 16.0929 7.33861 15.7614 6.92965 15.7614C6.52068 15.7614 6.18915 16.0929 6.18915 16.5019C6.18915 16.9109 6.52068 17.2424 6.92965 17.2424Z" fill="#AC562A"/>
</g>
<defs>
<radialGradient id="paint0_radial" cx="0" cy="0" r="1" gradientUnits="userSpaceOnUse" gradientTransform="translate(9.73877 10.1689) rotate(90) scale(9.17301 9.08054)">
<stop offset="0.333505" stop-color="#F7B450"/>
<stop offset="0.64773" stop-color="#FFC977"/>
<stop offset="1" stop-color="#FF9900"/>
</radialGradient>
</defs>
</svg>
