<svg width="20" height="20" viewBox="0 0 20 20" fill="none" xmlns="http://www.w3.org/2000/svg">
<path d="M17.1969 3.01036C16.4362 3.44006 15.6021 4.05146 15.3406 4.37159C15.2005 4.53983 15.186 4.6239 15.2841 4.69572C15.3313 4.73159 15.3699 4.73766 15.4727 4.72447C15.5938 4.71011 15.6044 4.71639 15.5425 4.77218C15.4582 4.84804 15.4694 4.93489 15.568 4.94441C15.6348 4.95027 15.6519 4.96656 15.609 4.987C15.5706 5.00525 15.4373 4.94642 15.276 4.8369C14.9677 4.6318 14.6102 4.61192 14.0069 4.76734C13.8458 4.80827 13.7531 4.84674 13.2593 5.07419C12.6658 5.3491 12.3364 5.52277 11.9571 5.76538C11.7301 5.90913 11.6396 5.99171 11.6028 6.08826C11.5828 6.13726 11.597 6.19073 11.6338 6.21272C11.6608 6.22997 11.7284 6.22977 11.8283 6.21423L11.9159 6.20074L11.8277 6.35936C11.7789 6.44655 11.7345 6.54295 11.7285 6.57399C11.7184 6.62774 11.7212 6.63767 11.7981 6.74783C11.9008 6.90029 11.9156 6.95909 11.9593 7.40674C12.0042 7.86886 12.1804 10.6823 12.1651 10.6896C12.1344 10.7042 12.0625 10.4938 12.0017 10.2198C11.8936 9.72383 11.8731 9.60565 11.7625 8.88693C11.5695 7.63927 11.4372 6.97788 11.2822 6.51362C11.209 6.29259 11.1838 6.25563 11.1132 6.25349C11.0502 6.2515 10.7167 6.32555 10.508 6.38912C9.85902 6.58695 9.09334 7.00212 9.05648 7.17769C9.03381 7.28819 9.12685 7.30976 9.31443 7.23743C9.39098 7.20853 9.47805 7.18591 9.50617 7.1857C9.55401 7.18739 9.56072 7.1936 9.58079 7.25554C9.60006 7.31974 9.60678 7.32595 9.70727 7.35527L9.81148 7.38845L9.85696 7.51168C9.9017 7.63337 10.1528 8.70664 10.16 8.8086C10.1641 8.86871 10.139 8.90697 10.0792 8.93544C9.98257 8.98143 9.86843 8.91158 9.68422 8.69447C9.53264 8.51826 9.44523 8.44133 9.2014 8.28081C8.73324 7.97306 8.22467 7.71087 8.08335 7.7104C8.02032 7.70841 7.96363 7.73162 7.55801 7.91901C6.85641 8.24348 6.50658 8.45323 6.44856 8.58431C6.42787 8.63178 6.43057 8.64931 6.46715 8.72221C6.53299 8.85267 6.52832 8.85866 6.29632 8.98788C6.18573 9.04803 6.02962 9.14301 5.94722 9.19916C5.74239 9.33802 5.28261 9.69228 5.23672 9.7461C5.21649 9.77078 5.19405 9.83037 5.18476 9.87807C5.17774 9.92656 5.13235 10.0328 5.08669 10.1148C5.00879 10.2515 4.97627 10.3611 4.99816 10.4071C5.01495 10.4424 5.09441 10.4591 5.16994 10.4439C5.4697 10.3859 5.51819 10.3929 5.57148 10.5049C5.63791 10.6445 5.62552 10.8122 5.50991 11.3639C5.43437 11.7309 5.42062 11.8127 5.41079 12.0055L5.40395 12.1612L5.30734 12.0886C5.04818 11.8959 4.77028 11.8852 4.32179 12.0497C4.21617 12.0887 4.10295 12.1275 4.07089 12.1352L4.01362 12.1493L4.10672 11.9733C4.15801 11.8755 4.29736 11.6267 4.4161 11.4216C4.55376 11.1811 4.6462 10.9998 4.67375 10.9114C4.80883 10.4916 4.63217 10.1598 4.24866 10.1091C3.96295 10.0701 3.56204 10.0934 3.22554 10.1651C2.65246 10.2892 1.75658 10.6403 0.965919 11.0504C0.423182 11.3331 0.263714 11.4448 0.176904 11.6103C0.150891 11.6584 0.148913 11.6819 0.167892 11.7218C0.210961 11.8123 0.33534 11.8246 0.629037 11.7657C0.723625 11.7471 0.808205 11.735 0.819524 11.739C0.830844 11.7431 0.797891 11.7964 0.73959 11.8636C0.617435 12.0102 0.584842 12.084 0.616962 12.1515C0.645431 12.2113 0.717655 12.2484 0.827646 12.2582L0.91412 12.266L0.892255 12.3742C0.879677 12.4347 0.870518 12.5539 0.87108 12.642C0.872426 12.8069 1.10156 14.7749 1.28059 16.1553C1.33803 16.6002 1.38518 16.9878 1.38306 17.019C1.38247 17.0493 1.3617 17.1401 1.33889 17.2187C1.24299 17.539 1.24631 17.6804 1.35469 17.7342L1.40208 17.7587L1.39365 17.8793C1.39086 17.9446 1.38968 18.0054 1.39406 18.0146C1.39844 18.0238 1.43276 18.0169 1.47265 17.9979C1.52634 17.9723 1.61386 17.8874 1.83741 17.6456C1.99887 17.4709 2.24448 17.228 2.38138 17.1045C2.75337 16.7713 4.2812 15.4592 4.63411 15.1689C4.8017 15.0309 4.97571 14.8747 5.02079 14.8231C5.06513 14.7701 5.1032 14.7275 5.10626 14.726C5.10933 14.7246 5.11105 14.8705 5.10983 15.0498C5.10606 15.5163 5.13897 15.6605 5.24918 15.6589C5.3442 15.6569 5.53869 15.4252 5.69499 15.125C5.80394 14.9151 5.93083 14.5255 6.0894 13.9139C6.16653 13.6213 6.24563 13.3447 6.26704 13.2988C6.34713 13.1271 6.77421 12.4234 6.81658 12.3939C6.84967 12.3725 6.8718 12.3676 6.89663 12.3802C6.95388 12.4057 7.03213 12.6017 7.09093 12.8597C7.11887 12.9856 7.16848 13.2085 7.19985 13.3535C7.2774 13.7022 7.30981 13.794 7.36764 13.8286L7.41197 13.8545L7.4572 13.7954C7.48606 13.7572 7.52923 13.7254 7.57751 13.7043C7.61812 13.6868 7.69263 13.6457 7.74114 13.6132L7.83194 13.555L7.89128 13.7074L7.95215 13.859L8.0008 13.8584C8.0639 13.8566 8.10854 13.7883 8.17002 13.5973C8.23405 13.3918 8.25293 13.2418 8.24869 12.9522C8.24505 12.6322 8.23682 12.5477 8.15224 11.9746C8.07306 11.4366 8.07018 11.2724 8.13502 11.0252C8.20733 10.7462 8.21123 10.624 8.14631 10.5627C8.11871 10.5363 8.01901 10.5837 7.91396 10.6714C7.79422 10.7716 7.71533 10.8035 7.66276 10.7721C7.62296 10.7477 7.61785 10.737 7.58983 10.6149C7.55977 10.4806 7.42872 9.7189 7.38096 9.4011C7.35347 9.21288 7.37556 9.09325 7.44305 9.06113C7.49061 9.0385 7.61271 9.08951 7.67222 9.15526C7.76225 9.25352 7.87044 9.47295 7.98525 9.78141C8.20464 10.3769 8.24973 10.5981 8.24479 11.0463C8.24047 11.3852 8.25075 11.4423 8.32043 11.4543C8.34694 11.4587 8.38426 11.4541 8.40267 11.4453C8.43488 11.43 8.4416 11.4362 8.47226 11.5006C8.54015 11.6433 8.59535 12.0083 8.59979 12.326C8.60036 12.4142 8.59241 12.6268 8.58222 12.7991C8.55934 13.1543 8.56478 13.3041 8.60423 13.5412C8.62889 13.6799 8.64107 13.7174 8.68247 13.7767L8.73278 13.8468L8.79583 13.7698C8.83163 13.7264 8.88189 13.6818 8.90643 13.6701C8.93251 13.6577 9.00067 13.5914 9.0605 13.5234L9.16702 13.3994L9.22879 13.4659C9.26377 13.5039 9.30101 13.5426 9.31145 13.5527C9.3427 13.5867 9.38109 13.4104 9.39408 13.1728C9.40523 12.9511 9.38237 12.3694 9.33369 11.6701C9.30852 11.2851 9.25207 10.6723 9.23544 10.59C9.22077 10.5236 9.23925 10.511 9.27547 10.5634C9.29321 10.5888 9.44899 10.9003 9.62368 11.2556C9.8145 11.6407 9.96021 11.9232 9.98993 11.958C10.0567 12.0391 10.1539 12.0812 10.2975 12.0863C10.4402 12.0937 10.5405 12.0553 10.5868 11.9787C10.6363 11.8931 10.707 11.3101 10.7935 10.2586C10.8201 9.95063 10.8457 9.72772 10.8629 9.70071L10.8896 9.65791L10.9592 9.82796C11.0367 10.0225 11.1295 10.4468 11.1838 10.8612C11.217 11.105 11.2716 11.7337 11.321 12.4383C11.3446 12.7883 11.3669 12.9696 11.3827 12.9752C11.3948 12.9808 11.7501 12.4862 11.8115 12.378C11.8383 12.3314 11.8687 12.2491 11.8796 12.1969C11.9107 12.0448 11.9695 11.9115 12.0099 11.9054C12.0458 11.8977 12.0458 11.8977 12.0509 11.9875C12.0601 12.1017 12.0754 12.1339 12.132 12.154C12.2067 12.1805 12.325 12.1129 12.5586 11.9039C12.6714 11.8051 12.8301 11.6562 12.9107 11.5764C13.2208 11.2633 13.4836 11.0724 13.9666 10.8106C14.7754 10.3712 15.3467 9.98639 15.659 9.67409C15.7954 9.53769 15.9834 9.28452 16.0788 9.10933C16.1663 8.94918 16.1849 8.92903 16.2301 8.9489C16.2497 8.9584 16.2521 8.98733 16.2377 9.06759C16.2229 9.16305 16.2241 9.17751 16.2578 9.20476C16.2906 9.23427 16.2904 9.24567 16.2458 9.39297C16.1929 9.57051 16.1995 9.65955 16.2684 9.67381C16.3138 9.68229 16.3806 9.64864 16.967 9.30748C17.5703 8.9583 18.4453 8.39329 18.9671 8.01516C19.623 7.53934 19.8834 7.31949 19.895 7.2293C19.9027 7.18613 19.8613 7.12682 19.8152 7.113C19.7759 7.1016 19.74 7.11305 19.5645 7.19094C19.4526 7.24043 19.3523 7.27875 19.341 7.27473C19.3296 7.27071 19.3676 7.19242 19.425 7.09552C19.4838 7.00168 19.5415 6.88958 19.556 6.84504L19.5818 6.76879L19.5279 6.76622C19.4975 6.76563 19.4511 6.7708 19.4221 6.77708C19.3572 6.79101 19.3202 6.78041 19.3049 6.7482C19.2822 6.70064 19.3246 6.55254 19.4053 6.38998C19.5121 6.17549 19.5358 6.08705 19.5044 6.02109C19.4519 5.91065 19.3437 5.9245 19.0656 6.07941C18.8321 6.20936 18.6296 6.34523 18.4288 6.50849C18.2436 6.65685 18.1991 6.67802 18.1757 6.62893C18.1451 6.56451 17.7219 4.61176 17.6815 4.34501C17.6611 4.21924 17.6886 4.17418 17.8285 4.09256C18.0222 3.9778 18.9706 3.38914 19.0562 3.32774C19.1594 3.25604 19.3025 3.08634 19.319 3.01827C19.344 2.90858 19.2755 2.87533 19.1007 2.91144L18.9863 2.9358L19.0999 2.83847C19.2158 2.73815 19.3076 2.63052 19.2851 2.61488C19.2776 2.61093 19.2114 2.6142 19.1375 2.62112L19.0005 2.63365L19.0167 2.58457C19.0248 2.55814 19.0655 2.49738 19.1075 2.44729C19.2856 2.23647 19.3542 2.14739 19.3484 2.13512C19.325 2.08603 19.0486 2.15739 18.6534 2.31534C18.3738 2.42767 17.4504 2.86712 17.1969 3.01036ZM14.0541 5.85487C14.039 5.89029 14.0151 5.94301 13.9985 5.97537C13.9645 6.04613 13.9819 6.05103 14.1354 6.00995C14.2951 5.96595 14.3026 5.96989 14.2591 6.05643C14.1934 6.19117 14.1833 6.20161 13.6796 6.66519C13.5032 6.82817 13.3525 6.95821 13.3434 6.95499C13.3321 6.95097 13.3064 6.82585 13.282 6.67568L13.2387 6.40281L13.4422 6.25328C13.554 6.17187 13.7336 6.03935 13.8408 5.96013C14.0867 5.77724 14.0868 5.77724 14.0541 5.85487ZM3.0161 11.2036C2.99906 11.2982 2.99972 11.3036 3.03747 11.3157C3.05938 11.3222 3.09977 11.3161 3.12585 11.3037C3.15193 11.2913 3.19546 11.28 3.22439 11.2775L3.27537 11.274L3.25162 11.3229C3.19688 11.4411 2.86447 11.81 2.60857 12.0353C2.42608 12.1974 2.35522 12.2462 2.34208 12.2185C2.3166 12.1611 2.17567 11.7503 2.17736 11.7419C2.1805 11.7367 2.30257 11.6334 2.45006 11.5125C2.70567 11.3024 2.8498 11.1981 2.97646 11.1321L3.03402 11.1029L3.0161 11.2036ZM16.8257 4.78426C16.861 4.76747 16.8639 4.76981 16.8985 4.86623C16.9419 4.98105 17.1671 6.05914 17.2037 6.3258C17.2363 6.56428 17.232 6.93881 17.1964 7.04982C17.1641 7.14797 17.1804 7.13081 16.7787 7.46873C16.5817 7.63586 16.3911 7.78108 16.3853 7.76881C16.3853 7.76881 16.3715 7.62113 16.356 7.44225C16.3278 7.13016 16.3243 7.11489 16.258 6.97151C16.196 6.83732 16.1819 6.81957 16.1011 6.75644C15.991 6.67147 15.8496 6.63908 15.707 6.66366C15.6513 6.67321 15.5229 6.71554 15.4202 6.75686C15.3183 6.7997 15.2235 6.83357 15.2121 6.83335C15.1969 6.83305 15.2303 6.75695 15.2971 6.64048C15.4631 6.34888 15.5434 6.1696 15.6116 5.94524C15.735 5.53656 15.7778 5.44849 15.9006 5.34678C16.0048 5.26142 16.6366 4.85732 16.7085 4.83061C16.7536 4.81477 16.8057 4.79375 16.8257 4.78426ZM6.54727 10.4601C6.55311 10.4723 6.63082 10.7345 6.66147 10.8384L6.67636 10.8934L6.91719 10.7788C7.19791 10.6452 7.18973 10.636 7.04439 10.9196C6.91096 11.1769 6.91212 11.1951 7.0853 11.4326C7.13787 11.5035 7.15831 11.5464 7.17509 11.6212C7.18852 11.6732 7.19515 11.7227 7.19121 11.7302C7.17557 11.7527 7.01476 11.6994 6.81977 11.606C6.71585 11.5576 6.62924 11.5179 6.62464 11.5201C6.60316 11.5303 6.5583 11.61 6.4861 11.7666C6.40513 11.9444 6.3455 12.0405 6.32287 12.0324C6.30928 12.0276 6.30923 11.9524 6.32516 11.6024C6.33633 11.3412 6.31896 11.2968 6.19999 11.28L6.11286 11.267L6.21404 11.1831C6.38089 11.0435 6.38242 11.0427 6.42089 10.8231C6.46624 10.5626 6.52172 10.4064 6.54727 10.4601ZM14.9107 7.71424C14.902 7.73155 14.868 7.79852 14.8349 7.86322C14.8024 7.92946 14.777 7.98671 14.7799 7.99285C14.7828 7.99898 14.8237 8.00586 14.8723 8.00908L14.9573 8.01378L14.9427 8.06213C14.9135 8.15502 14.6482 8.47128 14.4393 8.66477C14.0408 9.03315 13.7169 9.31711 13.7033 9.31228C13.6897 9.30746 13.6625 8.51894 13.6739 8.47965C13.682 8.45701 14.4226 7.96157 14.6178 7.84987C14.8629 7.70875 14.9274 7.67809 14.9107 7.71424ZM4.10269 12.882L4.17113 12.8796L4.13861 12.9496C4.12187 12.9895 4.0754 13.0737 4.03689 13.1391C3.99838 13.2045 3.96893 13.273 3.97236 13.2921C3.97753 13.3385 4.04516 13.3779 4.12031 13.3816L4.17881 13.382L4.14016 13.4549C4.07944 13.5685 3.9974 13.6452 3.49304 14.0639C3.01645 14.4619 2.89146 14.559 2.88562 14.5467C2.86883 14.5115 2.79428 13.8527 2.80247 13.8225C2.82666 13.7508 3.33511 13.3169 3.64082 13.1093C3.86026 12.9616 4.0122 12.8856 4.10269 12.882Z" fill="#FFC700"/>
</svg>
