<svg width="20" height="20" viewBox="0 0 20 20" fill="none" xmlns="http://www.w3.org/2000/svg">
<path d="M10 20C15.5228 20 20 15.5228 20 10C20 4.47715 15.5228 0 10 0C4.47715 0 0 4.47715 0 10C0 15.5228 4.47715 20 10 20Z" fill="#516AFF"/>
<path d="M11.7438 7.275L13.5 8.30625V3.31875L10.025 1.48125L4.5813 4.55V15.4125L10.025 18.5187L15.4188 15.35V9.95625L10.2125 6.83125L8.4938 7.7L13.6625 10.7875L13.7063 14.4813L10.025 16.5813L6.2938 14.4438L6.3188 5.4375L10 3.38125L11.725 4.325L11.7438 7.275Z" fill="white"/>
<path d="M9.825 10.2437L11 9.61875L12.3312 10.4062L8.4375 12.5812V8.125L9.825 8.93125" fill="white"/>
</svg>
