<svg width="21" height="20" viewBox="0 0 21 20" fill="none" xmlns="http://www.w3.org/2000/svg">
<g clip-path="url(#clip0)">
<path d="M10.5073 20C16.0302 20 20.5073 15.5228 20.5073 10C20.5073 4.47715 16.0302 0 10.5073 0C4.98448 0 0.507324 4.47715 0.507324 10C0.507324 15.5228 4.98448 20 10.5073 20Z" fill="#516AFF"/>
<path d="M12.2511 7.275L14.0074 8.30625V3.31875L10.5324 1.48125L5.08862 4.55V15.4125L10.5324 18.5187L15.9261 15.35V9.95625L10.7199 6.83125L9.00112 7.7L14.1699 10.7875L14.2136 14.4813L10.5324 16.5813L6.80112 14.4438L6.82612 5.4375L10.5074 3.38125L12.2324 4.325L12.2511 7.275Z" fill="white"/>
<path d="M10.3323 10.2437L11.5073 9.61875L12.8386 10.4062L8.94482 12.5812V8.125L10.3323 8.93125" fill="white"/>
</g>
<defs>
<clipPath id="clip0">
<rect width="20" height="20" fill="white" transform="translate(0.507324)"/>
</clipPath>
</defs>
</svg>
