<svg width="20" height="20" viewBox="0 0 20 20" fill="none" xmlns="http://www.w3.org/2000/svg">
<path d="M6.04991 8.23703V9.38495L6.44565 9.3739C6.8143 9.36357 6.8475 9.35713 6.93012 9.27983C7.10552 9.11575 7.11212 9.07791 7.11212 8.23484C7.11212 7.36043 7.09513 7.27121 6.90665 7.15633C6.81367 7.09963 6.73932 7.08931 6.42334 7.08921L6.04991 7.08908V8.23703Z" fill="#200A93"/>
<path d="M6.04991 11.6199V12.8979H6.51629C7.00016 12.8979 7.14568 12.8654 7.19109 12.747C7.20241 12.7175 7.2117 12.2412 7.2117 11.6885C7.2117 10.6992 7.21054 10.682 7.13635 10.571C7.01101 10.3833 6.88561 10.3421 6.43994 10.3421L6.04991 10.342V11.6199Z" fill="#200A93"/>
<path fill-rule="evenodd" clip-rule="evenodd" d="M9.18712 1.48149C6.24565 1.78713 3.71075 3.51992 2.37903 6.13527C1.54091 7.78122 1.26377 9.59808 1.57109 11.4318C1.79581 12.7727 2.36376 14.0775 3.20567 15.1872C3.52735 15.6112 4.19678 16.297 4.62256 16.6388C5.58609 17.4122 6.75253 17.9987 7.9113 18.2924C8.67288 18.4855 9.01577 18.5227 10.0166 18.5213C10.8722 18.5201 10.9843 18.513 11.4274 18.4328C11.9363 18.3406 12.5095 18.1857 13.0041 18.0066C13.4198 17.856 14.3002 17.4054 14.697 17.1401C15.7143 16.4598 16.6357 15.5163 17.2528 14.523C18.6769 12.231 18.9438 9.44367 17.9799 6.93191C17.3602 5.31719 16.1879 3.85268 14.7468 2.89267C13.665 2.17204 12.5239 1.73416 11.195 1.52972C10.7776 1.46553 9.61068 1.43748 9.18712 1.48149ZM8.04498 6.87648C7.93776 6.60854 7.68927 6.35876 7.42747 6.2557C7.23464 6.17978 7.19318 6.17696 6.12459 6.16644L5.02089 6.15562V10.0081V13.8605L6.0748 13.8598C6.65444 13.8595 7.23019 13.8445 7.35424 13.8266C7.88976 13.7491 8.16916 13.459 8.24404 12.9028C8.26452 12.7505 8.27451 12.2112 8.26817 11.6004C8.25775 10.5983 8.25447 10.5524 8.18376 10.4202C8.08617 10.2377 7.87957 10.0656 7.64874 9.97443C7.5453 9.93357 7.44811 9.88919 7.43278 9.87578C7.41744 9.8624 7.47985 9.82652 7.57146 9.79611C7.80804 9.71751 7.98775 9.57574 8.07243 9.40082C8.14366 9.25367 8.14502 9.22605 8.13437 8.16142C8.12378 7.1071 8.12096 7.06624 8.04498 6.87648ZM11.6597 7.08908V6.62437V6.15967H10.3816H9.10351L9.11194 10.0018L9.12037 13.8439L9.62628 13.853L10.1322 13.8622L10.1408 12.1104L10.1494 10.3586L10.8216 10.3496L11.4937 10.3406V9.87661V9.4126H10.8133H10.1328V8.25084V7.08908H10.8963H11.6597ZM14.9791 7.08908V6.62437V6.15967H13.4854H11.9917V6.62437V7.08908H12.4728H12.954L12.9624 10.4665L12.9709 13.8439L13.4771 13.853L13.9833 13.8622V10.4756V7.08908H14.4812H14.9791Z" fill="#200A93"/>
<path fill-rule="evenodd" clip-rule="evenodd" d="M9.13697 0.0209257C7.09828 0.200932 5.12379 1.02034 3.56035 2.33519C3.1733 2.66071 2.4909 3.35704 2.187 3.73657C1.02318 5.19 0.28468 6.96122 0.054445 8.85117C-0.0106156 9.38518 -0.019113 10.54 0.0384125 11.0225C0.234092 12.6629 0.727125 14.0794 1.55084 15.3677C3.22877 17.992 5.95358 19.6598 9.0658 19.9673C9.50754 20.0109 10.4925 20.0109 10.9342 19.9673C14.0464 19.6598 16.7713 17.992 18.4492 15.3677C19.2507 14.1142 19.75 12.7083 19.9452 11.1552C20.018 10.5759 20.0183 9.44559 19.9457 8.85117C19.7171 6.97874 19.023 5.29466 17.8652 3.80296C17.5546 3.40275 16.8168 2.64657 16.4069 2.30827C14.9159 1.0778 13.1899 0.324411 11.2742 0.0677946C10.7994 0.00419645 9.61951 -0.0216943 9.13697 0.0209257ZM14.0871 1.86328C13.1508 1.39373 12.3422 1.13887 11.278 0.978017C10.8657 0.915681 9.71225 0.868978 9.38592 0.901441C7.97988 1.04118 7.02459 1.30577 5.91288 1.86328C3.43315 3.10689 1.61155 5.47991 1.07334 8.16786C0.76324 9.71668 0.849445 11.2951 1.32499 12.7753C2.43623 16.2342 5.5044 18.7122 9.11785 19.0692C9.5825 19.1151 10.4175 19.1151 10.8822 19.0692C15.1686 18.6457 18.5785 15.2718 19.065 10.9727C19.1565 10.1634 19.1011 9.03898 18.9267 8.16786C18.3885 5.47991 16.5669 3.10689 14.0871 1.86328Z" fill="#82109C"/>
<path fill-rule="evenodd" clip-rule="evenodd" d="M11.2782 0.977997C12.3424 1.13885 13.151 1.39371 14.0873 1.86326C16.5671 3.10687 18.3887 5.47989 18.9269 8.16784C19.1013 9.03896 19.1567 10.1634 19.0652 10.9727C18.5787 15.2718 15.1688 18.6457 10.8824 19.0692C10.4177 19.1151 9.58268 19.1151 9.11803 19.0692C5.50457 18.7122 2.4364 16.2342 1.32516 12.7752C0.849623 11.2951 0.763418 9.71666 1.07352 8.16784C1.61173 5.47989 3.43332 3.10687 5.91306 1.86326C7.02477 1.30575 7.98006 1.04116 9.3861 0.901421C9.71243 0.868958 10.8658 0.915661 11.2782 0.977997ZM2.37921 6.13525C3.71093 3.5199 6.24583 1.78711 9.1873 1.48147C9.61086 1.43746 10.7778 1.46551 11.1952 1.5297C12.5241 1.73414 13.6652 2.17202 14.747 2.89265C16.1881 3.85266 17.3604 5.31717 17.9801 6.93189C18.944 9.44365 18.6771 12.2309 17.253 14.523C16.6359 15.5163 15.7144 16.4598 14.6972 17.1401C14.3004 17.4054 13.42 17.856 13.0043 18.0066C12.5097 18.1856 11.9364 18.3406 11.4275 18.4328C10.9844 18.513 10.8724 18.5201 10.0168 18.5213C9.01595 18.5227 8.67306 18.4854 7.91148 18.2924C6.75271 17.9987 5.58626 17.4122 4.62274 16.6388C4.19696 16.297 3.52753 15.6112 3.20584 15.1872C2.36394 14.0775 1.79599 12.7727 1.57126 11.4318C1.26395 9.59806 1.54109 7.7812 2.37921 6.13525Z" fill="white"/>
<path fill-rule="evenodd" clip-rule="evenodd" d="M7.42764 6.25568C7.68945 6.35874 7.93794 6.60852 8.04516 6.87646C8.12114 7.06622 8.12396 7.10708 8.13455 8.1614C8.1452 9.22603 8.14384 9.25365 8.07261 9.4008C7.98793 9.57572 7.80822 9.71749 7.57164 9.79609C7.48003 9.8265 7.41762 9.86238 7.43296 9.87576C7.44829 9.88917 7.54548 9.93355 7.64892 9.97441C7.87975 10.0656 8.08635 10.2377 8.18394 10.4202C8.25464 10.5524 8.25793 10.5982 8.26835 11.6003C8.27469 12.2112 8.2647 12.7505 8.24422 12.9027C8.16933 13.459 7.88994 13.7491 7.35442 13.8265C7.23037 13.8445 6.65462 13.8594 6.07498 13.8598L5.02107 13.8605V10.008V6.1556L6.12477 6.16642C7.19336 6.17694 7.23482 6.17976 7.42764 6.25568ZM6.05009 9.38493V8.23701V7.08906L6.42352 7.08919C6.7395 7.08929 6.81385 7.09961 6.90683 7.15631C7.0953 7.27119 7.1123 7.36041 7.1123 8.23482C7.1123 9.07789 7.10569 9.11573 6.9303 9.27981C6.84768 9.35711 6.81448 9.36355 6.44583 9.37388L6.05009 9.38493ZM6.05009 12.8979V11.6199V10.342L6.44012 10.3421C6.88578 10.3421 7.01119 10.3833 7.13653 10.571C7.21072 10.682 7.21188 10.6991 7.21188 11.6885C7.21188 12.2411 7.20259 12.7175 7.19127 12.747C7.14586 12.8653 7.00034 12.8979 6.51646 12.8979H6.05009Z" fill="white"/>
<path d="M11.6599 6.62435V7.08906H10.8964H10.133V8.25082V9.41258H10.8134H11.4939V9.87659V10.3406L10.8217 10.3496L10.1496 10.3586L10.141 12.1104L10.1324 13.8622L9.62646 13.853L9.12055 13.8439L9.11212 10.0018L9.10368 6.15965H10.3818H11.6599V6.62435Z" fill="white"/>
<path d="M14.9793 6.62435V7.08906H14.4814H13.9835V10.4756V13.8622L13.4773 13.853L12.9711 13.8439L12.9626 10.4665L12.9542 7.08906H12.473H11.9918V6.62435V6.15965H13.4856H14.9793V6.62435Z" fill="white"/>
</svg>
