<svg width="20" height="20" viewBox="0 0 20 20" fill="none" xmlns="http://www.w3.org/2000/svg">
<circle cx="10" cy="10" r="10" fill="white"/>
<circle cx="10" cy="10" r="9.5" fill="black"/>
<path d="M11.5 5.34C11.13 5.13 10.7 5 10.25 5H7.75C8.44 5 9 5.56 9 6.25V8.75V10H10.25C10.71 10 11.13 9.88 11.5 9.66C11.78 9.5 12.02 9.29 12.21 9.04C12.55 8.61 12.75 8.08 12.75 7.49C12.75 6.58 12.25 5.77 11.5 5.34Z" fill="#D85111"/>
<path d="M12.21 9.05C12.01 9.3 11.77 9.51 11.5 9.67C11.13 9.88 10.7 10.01 10.25 10.01H9V8.75V6.25C9 5.56 8.44 5 7.75 5C7.06 5 6.5 5.56 6.5 6.25V8.75V10V13.75V15H7.75H10.87C11.09 15 11.29 14.98 11.49 14.94C12.92 14.65 13.99 13.39 13.99 11.88C14 10.63 13.27 9.55 12.21 9.05Z" fill="white"/>
</svg>
