<svg width="20" height="20" viewBox="0 0 20 20" fill="none" xmlns="http://www.w3.org/2000/svg">
<circle cx="10" cy="10" r="10" fill="#ADFF00"/>
<path fill-rule="evenodd" clip-rule="evenodd" d="M3.75 9.83741V14.9873H6.0029C8.11111 14.9873 8.29104 14.9686 8.80556 14.6954C9.64722 14.2486 9.93699 13.5957 9.93636 12.1471C9.93586 10.8728 9.71364 10.294 9.12071 10.0227L8.80896 9.88013L9.12033 9.5086C9.41111 9.16167 9.43169 9.0429 9.4298 7.72069C9.4279 6.49101 9.39053 6.23851 9.14558 5.80449C8.64609 4.91909 8.29861 4.80627 5.87525 4.74302L3.75 4.6875V9.83741ZM10.5682 5.4805V6.25372L11.2942 6.21569L12.0202 6.17766V5.4805V4.78333L11.2942 4.7453L10.5682 4.70727V5.4805ZM13.4722 6.17766V7.63538H12.0202H10.5682V11.3177V15L11.2942 14.962L12.0202 14.9239L12.0542 12.0402L12.0881 9.15647H12.7802H13.4722V12.0719V14.9873H14.8611H16.25V14.2268V13.4662H15.5556H14.8611V11.3114V9.15647H15.5556H16.25V8.39592V7.63538H15.5556H14.8611V6.17766V4.71995H14.1667H13.4722V6.17766ZM7.84634 6.52282C7.98056 6.71512 8.04293 7.09716 8.04293 7.72702C8.04293 9.04226 7.90669 9.15647 6.33838 9.15647H5.13889V7.69876V6.24104H6.39432C7.54861 6.24104 7.66566 6.26373 7.84634 6.52282ZM8.14104 10.7482C8.3947 10.9265 8.42172 11.0521 8.42172 12.0538C8.42172 12.7468 8.3649 13.2191 8.2702 13.3141C8.16944 13.4153 7.61919 13.4662 6.62879 13.4662H5.13889V12.0085V10.5508H6.49962C7.52702 10.5508 7.92929 10.5992 8.14104 10.7482Z" fill="black"/>
</svg>
