<svg width="20" height="20" viewBox="0 0 20 20" fill="none" xmlns="http://www.w3.org/2000/svg">
<path d="M12 2C12 2.18333 11.975 2.35833 11.9292 2.525L15.5667 4.60417C15.9292 4.22917 16.4375 4 17 4C18.1042 4 19 4.89583 19 6C19 6.93333 18.3625 7.71667 17.5 7.9375V12.0625C18.3625 12.2833 19 13.0667 19 14C19 15.1042 18.1042 16 17 16C16.4375 16 15.9292 15.7667 15.5667 15.3958L11.9292 17.475C11.975 17.6417 12 17.8208 12 18C12 19.1042 11.1042 20 10 20C8.89583 20 8 19.1042 8 18C8 17.8167 8.025 17.6417 8.07083 17.475L4.43333 15.3958C4.07083 15.7708 3.5625 16 3 16C1.89583 16 1 15.1042 1 14C1 13.0667 1.6375 12.2833 2.5 12.0625V7.9375C1.6375 7.71667 1 6.93333 1 6C1 4.89583 1.89583 4 3 4C3.5625 4 4.07083 4.23333 4.43333 4.60417L8.07083 2.525C8.025 2.35833 8 2.17917 8 2C8 0.895833 8.89583 0 10 0C11.1042 0 12 0.895833 12 2ZM9.5 3.9375C9.1375 3.84583 8.81667 3.65417 8.56667 3.39583L4.92917 5.475C4.975 5.64167 5 5.82083 5 6C5 6.93333 4.3625 7.71667 3.5 7.9375V12.0625C3.8625 12.1542 4.18333 12.3458 4.43333 12.6042L8.07083 10.525C8.025 10.3583 8 10.1792 8 10C8 9.06667 8.6375 8.28333 9.5 8.0625V3.9375ZM10.5 3.9375V8.0625C11.3625 8.28333 12 9.06667 12 10C12 10.1833 11.975 10.3583 11.9292 10.525L15.5667 12.6042C15.8167 12.3458 16.1375 12.1542 16.5 12.0625V7.9375C15.6375 7.71667 15 6.93333 15 6C15 5.81667 15.025 5.64167 15.0708 5.475L11.4333 3.39583C11.1833 3.65417 10.8625 3.84583 10.5 3.9375ZM10 12C9.4375 12 8.92917 11.7667 8.56667 11.3958L4.92917 13.475C4.975 13.6417 5 13.8208 5 14C5 14.1792 4.975 14.3583 4.92917 14.525L8.56667 16.6042C8.92917 16.2292 9.4375 16 10 16C10.5625 16 11.0708 16.2333 11.4333 16.6042L15.0708 14.525C15.025 14.3583 15 14.1792 15 14C15 13.8208 15.025 13.6417 15.0708 13.475L11.4333 11.3958C11.0708 11.7667 10.5625 12 10 12Z" fill="#10171F"/>
</svg>
