<svg width="20" height="20" viewBox="0 0 20 20" fill="none" xmlns="http://www.w3.org/2000/svg">
<g clip-path="url(#clip0_4463_57714)">
<path d="M9.99961 0L1.33984 5.00071V15.0021L9.99961 20L18.6622 15.0021V5.00071L9.99961 0Z" fill="#F72C6A"/>
<path d="M10.0001 1.7926L3.04785 5.80905V13.8363L10.0001 17.8499L16.9551 13.8363V5.80905L10.0001 1.7926Z" fill="white"/>
<path d="M3.04785 5.80905L10.0001 10.0269L16.9551 5.80905L10.0001 1.7926L3.04785 5.80905Z" fill="#FB8DAE"/>
<path d="M3.04785 5.80908L10.0001 10.0269V17.8499L3.04785 13.8363V5.80908Z" fill="#FED6E2"/>
<path d="M16.955 5.80908L10 10.0269V17.8499L16.955 13.8363V5.80908Z" fill="#FCA4BE"/>
<path d="M10.0279 5.15955H9.97404L7.19145 6.66572L7.19429 3.33569L5.91504 4.05332V12.2195L9.99957 14.5767H10.0563L14.1125 12.194V7.4883L10.0279 5.15955ZM12.7992 11.4083L9.99957 13.0251L7.19996 11.4083V8.17472L9.99957 6.55793L12.7992 8.17472V11.4083Z" fill="#F72C6A"/>
<path d="M9.99957 13.0251L7.19996 11.4083V8.32788L5.91504 7.54785V12.2195L9.99957 14.5766V13.0251Z" fill="#821635"/>
<path d="M12.7996 8.32793V11.4083L10 13.0251V14.5767H10.0028H10.0596L14.1157 12.1941V7.53088L12.7996 8.32793Z" fill="#DD275E"/>
</g>
<defs>
<clipPath id="clip0_4463_57714">
<rect width="20" height="20" fill="white"/>
</clipPath>
</defs>
</svg>
