<svg width="21" height="20" viewBox="0 0 21 20" fill="none" xmlns="http://www.w3.org/2000/svg">
<circle cx="10.239" cy="10" r="10" fill="#154181"/>
<path fill-rule="evenodd" clip-rule="evenodd" d="M11.0704 5.06793C11.2976 4.84098 11.4254 4.5331 11.4256 4.21198V4.21019C11.4254 3.88907 11.2976 3.58119 11.0704 3.35425C10.8432 3.1273 10.5352 2.99988 10.2141 3C9.89293 3.00012 9.585 3.12777 9.35798 3.35488C9.13095 3.58199 9.00342 3.88996 9.00342 4.21109C9.00342 4.53221 9.13095 4.84019 9.35798 5.0673C9.585 5.29441 9.89293 5.42205 10.2141 5.42217C10.5352 5.42229 10.8432 5.29487 11.0704 5.06793ZM5.30949 6.7756C5.14015 6.60627 5.02483 6.39053 4.97811 6.15566C4.93138 5.92078 4.95535 5.67733 5.04699 5.45608C5.13863 5.23484 5.29382 5.04573 5.49294 4.91269C5.69205 4.77964 5.92615 4.70863 6.16562 4.70863C6.40509 4.70863 6.63919 4.77964 6.8383 4.91269C7.03742 5.04573 7.19261 5.23484 7.28425 5.45608C7.37589 5.67733 7.39986 5.92078 7.35314 6.15566C7.30641 6.39053 7.19109 6.60627 7.02175 6.7756C6.90942 6.88794 6.77607 6.97705 6.6293 7.03785C6.48253 7.09865 6.32523 7.12995 6.16636 7.12995C6.0075 7.12995 5.8502 7.09865 5.70343 7.03785C5.55666 6.97705 5.42331 6.88794 5.31098 6.7756H5.30949ZM13.4691 5.17114C13.6385 5.0018 13.8542 4.88648 14.0891 4.83975C14.3239 4.79303 14.5674 4.817 14.7886 4.90864C15.0099 5.00028 15.199 5.15547 15.332 5.35458C15.4651 5.5537 15.5361 5.7878 15.5361 6.02727C15.5361 6.26674 15.4651 6.50084 15.332 6.69996C15.199 6.89907 15.0099 7.05426 14.7886 7.1459C14.5674 7.23754 14.3239 7.26151 14.0891 7.21479C13.8542 7.16806 13.6385 7.05274 13.4691 6.8834C13.2424 6.65679 13.1149 6.34946 13.1146 6.02892C13.1143 5.70837 13.2413 5.40082 13.4676 5.17382H13.4691V5.17114ZM5.18806 13.0329C5.4153 12.8069 5.72298 12.6802 6.04351 12.6809C6.36404 12.6815 6.67122 12.8093 6.89757 13.0363C7.12392 13.2632 7.25095 13.5707 7.25074 13.8913C7.25053 14.2118 7.1231 14.5191 6.89645 14.7458C6.6698 14.9724 6.36246 15.0999 6.04193 15.1001C5.7214 15.1003 5.41389 14.9733 5.18694 14.7469C4.96 14.5206 4.83217 14.2134 4.83155 13.8928C4.83092 13.5723 4.95754 13.2646 5.1836 13.0374L5.18806 13.0329ZM8.01821 13.379L6.74072 12.1015L7.90803 10.9282C8.02399 11.217 8.19722 11.4793 8.41729 11.6994C8.63735 11.9195 8.89969 12.0927 9.1885 12.2087L8.01821 13.379ZM12.4853 8.97562L13.6555 7.80533L12.3781 6.52784L11.2078 7.69813C11.4966 7.81402 11.759 7.98724 11.979 8.20734C12.1988 8.42587 12.3712 8.68742 12.4853 8.97562ZM13.0969 14.0648C13.1436 14.2997 13.2589 14.5154 13.4283 14.6847L13.4298 14.6862C13.5422 14.7985 13.6756 14.8875 13.8224 14.9481C13.9693 15.0088 14.1266 15.04 14.2854 15.0398C14.4443 15.0397 14.6016 15.0083 14.7483 14.9473C14.895 14.8864 15.0283 14.7972 15.1405 14.6847C15.3099 14.5154 15.4252 14.2997 15.4719 14.0648C15.5186 13.8299 15.4947 13.5865 15.403 13.3652C15.3114 13.144 15.1562 12.9549 14.9571 12.8218C14.758 12.6888 14.5239 12.6178 14.2844 12.6178C14.0449 12.6178 13.8108 12.6888 13.6117 12.8218C13.4126 12.9549 13.2574 13.144 13.1658 13.3652C13.0741 13.5865 13.0502 13.8299 13.0969 14.0648ZM13.559 12.0505L12.2815 13.328L11.1083 12.1607C11.3971 12.0448 11.6594 11.8715 11.8795 11.6515C12.0996 11.4314 12.2728 11.1691 12.3887 10.8802L13.559 12.0505ZM9.28617 7.63173L8.11587 6.46144L6.83838 7.73893L8.00867 8.90922C8.12456 8.62037 8.29778 8.35801 8.51788 8.13796C8.73642 7.91815 8.99797 7.74582 9.28617 7.63173ZM11.4256 15.788C11.4254 16.1091 11.2976 16.417 11.0704 16.644C10.8432 16.8709 10.5352 16.9983 10.2141 16.9982C9.89293 16.9981 9.585 16.8705 9.35798 16.6433C9.13095 16.4162 9.00342 16.1083 9.00342 15.7871C9.00342 15.466 9.13095 15.158 9.35798 14.9309C9.585 14.7038 9.89293 14.5762 10.2141 14.576C10.5352 14.5759 10.8432 14.7033 11.0704 14.9303C11.2976 15.1572 11.4254 15.4651 11.4256 15.7862V15.788ZM9.89148 6.05824H10.6538V7.55906C10.4016 7.51529 10.1437 7.51529 9.89148 7.55906V6.05824ZM10.6538 12.507C10.4016 12.5508 10.1437 12.5508 9.89148 12.507V14.0079H10.6538V12.507ZM14.7202 10.5251C14.9472 10.7522 15.255 10.88 15.5762 10.8802H15.5779C15.8991 10.88 16.2069 10.7522 16.4339 10.5251C16.6608 10.2979 16.7882 9.98984 16.7881 9.66872C16.788 9.34759 16.6604 9.03966 16.4332 8.81264C16.2061 8.58561 15.8982 8.45808 15.577 8.45808C15.2559 8.45808 14.9479 8.58561 14.7208 8.81264C14.4937 9.03966 14.3661 9.34759 14.366 9.66872C14.3658 9.98984 14.4933 10.2979 14.7202 10.5251ZM4.45099 11.086C4.2113 11.086 3.97699 11.0149 3.77768 10.8818C3.57838 10.7486 3.42304 10.5594 3.3313 10.3379C3.23956 10.1165 3.21554 9.87279 3.26228 9.6377C3.30902 9.40261 3.42442 9.18665 3.59389 9.01714C3.76336 8.84763 3.97928 8.73218 4.21437 8.68538C4.44945 8.63858 4.69313 8.66254 4.91459 8.75423C5.13606 8.84591 5.32536 9.00121 5.45857 9.20048C5.59178 9.39975 5.66291 9.63404 5.66297 9.87374C5.66301 10.0329 5.63169 10.1906 5.5708 10.3376C5.50991 10.4847 5.42064 10.6184 5.3081 10.7309C5.19555 10.8435 5.06193 10.9328 4.91487 10.9937C4.7678 11.0547 4.61018 11.086 4.45099 11.086ZM13.9952 10.2552H12.4944V10.254C12.5382 10.0018 12.5382 9.74391 12.4944 9.49168H13.9952V10.2552ZM7.83115 10.2552C7.78738 10.003 7.78738 9.7451 7.83115 9.49287H6.33032V10.2552H7.83115ZM11.6061 10.918C11.7949 10.6354 11.8956 10.3032 11.8956 9.96337C11.8955 9.50772 11.7144 9.07078 11.3922 8.74859C11.07 8.4264 10.6331 8.24532 10.1774 8.24516C9.83761 8.24516 9.50541 8.34593 9.22285 8.53473C8.94029 8.72353 8.72007 8.99188 8.59002 9.30584C8.45997 9.6198 8.42595 9.96527 8.49224 10.2986C8.55854 10.6319 8.72219 10.938 8.96248 11.1783C9.20278 11.4186 9.50893 11.5823 9.84223 11.6486C10.1755 11.7149 10.521 11.6808 10.835 11.5508C11.1489 11.4207 11.4173 11.2005 11.6061 10.918Z" fill="white"/>
</svg>
