<svg width="20" height="20" viewBox="0 0 20 20" fill="none" xmlns="http://www.w3.org/2000/svg">
<g clip-path="url(#clip0_562_2130)">
<path d="M10 20C15.5228 20 20 15.5228 20 10C20 4.47715 15.5228 0 10 0C4.47715 0 0 4.47715 0 10C0 15.5228 4.47715 20 10 20Z" fill="#0F59D1"/>
<path d="M9.94999 3.67499L7.12624 5.32936L9.94999 6.98436L12.8269 5.32936L9.94999 3.67499ZM10.4144 12.5087V15.8181L14.25 13.63V10.32L10.4144 12.5087ZM13.2912 6.36999V9.67999L10.4137 11.335V8.02499L13.2912 6.36999ZM6.36499 9.67999L9.24249 11.335V8.02499L6.36499 6.36999V9.67999ZM6.36499 14.1637L9.24249 15.8181V12.5087L6.36499 10.8544V14.1631V14.1637Z" fill="white"/>
</g>
<defs>
<clipPath id="clip0_562_2130">
<rect width="20" height="20" fill="white"/>
</clipPath>
</defs>
</svg>
