<svg width="21" height="21" fill="none" xmlns="http://www.w3.org/2000/svg"><path d="m17.4749 15.071-2.7605 1.3489-6.45335-.6328.54845-.8326-.91408-.4996c-.45704-.2498-.2925-2.4313-.2925-2.4313-3.0713-3.93009-1.40768-6.46132-1.40768-6.46132-.71298 3.03081 3.98536 4.42965 3.98536 4.42965-.93234-1.93173.3474-2.94755.3474-2.94755 1.0237 2.26478 2.2303 2.34804 2.2303 2.34804l1.1883.08327 1.5539-1.43214c-1.2979-1.84846.256-3.2806.256-3.2806.7495 2.6811 2.3217 2.6811 2.3217 2.6811l2.3218.06661L13.2519.99942c-1.0238-.932556-2.7057-.932556-3.7477 0L1.16782 8.59309c-1.023768.93256-1.023768 2.46461 0 3.41381l8.33638 7.5937c1.0238.9325 2.7057.9325 3.7477 0l4.5704-4.1632-.3474-.3664Z" fill="url(#a)"/><path d="M13.9813 10.6353c.3821-.1059.8849-.3179 1.267-.7115.0804-.09083.2212-.03028.2614.07569.1005.33301.2815.96891-1.4881.84781-.1408-.0152-.181-.1666-.0403-.212Z" fill="url(#b)"/><defs><linearGradient id="a" x1="8.26438" y1="4.07313" x2="12.6674" y2="16.7408" gradientUnits="userSpaceOnUse"><stop stop-color="#EB5F41"/><stop offset="1" stop-color="#E72A58"/></linearGradient><linearGradient id="b" x1="11.0479" y1="3.154" x2="14.473" y2="15.0775" gradientUnits="userSpaceOnUse"><stop stop-color="#EB5F41"/><stop offset="1" stop-color="#E72A58"/></linearGradient></defs></svg>