<svg width="20" height="20" viewBox="0 0 20 20" fill="none" xmlns="http://www.w3.org/2000/svg">
<rect width="20" height="20" fill="black"/>
<path fill-rule="evenodd" clip-rule="evenodd" d="M6.30654 2.83096C6.32684 2.83096 6.34344 2.82681 6.34344 2.82173C6.34344 2.81626 6.37727 2.8125 6.42648 2.8125C6.47568 2.8125 6.50951 2.81626 6.50951 2.82173C6.50951 2.82681 6.52612 2.83096 6.54641 2.83096C6.56671 2.83096 6.58332 2.83511 6.58332 2.84019C6.58332 2.84527 6.59577 2.84942 6.61099 2.84942C6.62622 2.84942 6.63867 2.85357 6.63867 2.85865C6.63867 2.86373 6.64606 2.86788 6.65509 2.86788C6.66412 2.86788 6.67749 2.87619 6.6848 2.88634C6.69212 2.89649 6.70349 2.9048 6.71007 2.9048C6.72686 2.9048 6.84164 3.02141 6.84164 3.03846C6.84164 3.04617 6.84579 3.05248 6.85087 3.05248C6.85594 3.05248 6.86009 3.06079 6.86009 3.07094C6.86009 3.08109 6.86425 3.0894 6.86932 3.0894C6.8744 3.0894 6.87855 3.09771 6.87855 3.10786C6.87855 3.11801 6.8827 3.12632 6.88777 3.12632C6.89285 3.12632 6.897 3.13878 6.897 3.15401C6.897 3.16924 6.90115 3.1817 6.90622 3.1817C6.9113 3.1817 6.91545 3.20247 6.91545 3.22785C6.91545 3.25323 6.9196 3.274 6.92468 3.274C6.92981 3.274 6.9339 3.29861 6.9339 3.32938C6.9339 3.36014 6.938 3.38476 6.94313 3.38476C6.94826 3.38476 6.95235 3.40937 6.95235 3.44014C6.95235 3.4709 6.95645 3.49552 6.96158 3.49552C6.96671 3.49552 6.97081 3.52013 6.97081 3.5509C6.97081 3.58166 6.9749 3.60628 6.98003 3.60628C6.98511 3.60628 6.98926 3.62704 6.98926 3.65243C6.98926 3.67781 6.99341 3.69858 6.99848 3.69858C7.00361 3.69858 7.00771 3.72319 7.00771 3.75396C7.00771 3.78472 7.01181 3.80934 7.01694 3.80934C7.02207 3.80934 7.02616 3.83395 7.02616 3.86472C7.02616 3.89548 7.03026 3.92009 7.03539 3.92009C7.04052 3.92009 7.04461 3.94471 7.04461 3.97547C7.04461 4.00624 7.04871 4.03085 7.05384 4.03085C7.05897 4.03085 7.06307 4.05547 7.06307 4.08623C7.06307 4.117 7.06716 4.14161 7.07229 4.14161C7.07742 4.14161 7.08152 4.16623 7.08152 4.19699C7.08152 4.22776 7.08561 4.25237 7.09074 4.25237C7.09587 4.25237 7.09997 4.27699 7.09997 4.30775C7.09997 4.33852 7.10407 4.36313 7.1092 4.36313C7.11433 4.36313 7.11842 4.38775 7.11842 4.41851C7.11842 4.44928 7.12252 4.47389 7.12765 4.47389C7.13272 4.47389 7.13687 4.49466 7.13687 4.52004C7.13687 4.54542 7.14103 4.56619 7.1461 4.56619C7.15123 4.56619 7.15533 4.59081 7.15533 4.62157C7.15533 4.65234 7.15942 4.67695 7.16455 4.67695C7.16968 4.67695 7.17378 4.70157 7.17378 4.73233C7.17378 4.76309 7.17787 4.78771 7.183 4.78771C7.18813 4.78771 7.19223 4.81233 7.19223 4.84309C7.19223 4.87385 7.19633 4.89847 7.20146 4.89847C7.20658 4.89847 7.21068 4.92309 7.21068 4.95385C7.21068 4.98461 7.21478 5.00923 7.21991 5.00923C7.22504 5.00923 7.22913 5.03385 7.22913 5.06461C7.22913 5.09537 7.23323 5.11999 7.23836 5.11999C7.24349 5.11999 7.24758 5.14461 7.24758 5.17537C7.24758 5.20613 7.25168 5.23075 7.25681 5.23075C7.26194 5.23075 7.26604 5.25537 7.26604 5.28613C7.26604 5.31689 7.27013 5.34151 7.27526 5.34151C7.28034 5.34151 7.28449 5.36228 7.28449 5.38766C7.28449 5.41304 7.28864 5.43381 7.29371 5.43381C7.29884 5.43381 7.30294 5.45842 7.30294 5.48919C7.30294 5.51995 7.30704 5.54457 7.31217 5.54457C7.3173 5.54457 7.32139 5.56918 7.32139 5.59995C7.32139 5.63071 7.32549 5.65533 7.33062 5.65533C7.33575 5.65533 7.33984 5.67994 7.33984 5.71071C7.33984 5.74147 7.34394 5.76609 7.34907 5.76609C7.3542 5.76609 7.3583 5.7907 7.3583 5.82147C7.3583 5.85223 7.36239 5.87685 7.36752 5.87685C7.37265 5.87685 7.37675 5.90146 7.37675 5.93223C7.37675 5.96299 7.38084 5.98761 7.38597 5.98761C7.3911 5.98761 7.3952 6.01222 7.3952 6.04299C7.3952 6.07375 7.3993 6.09836 7.40443 6.09836C7.40956 6.09836 7.41365 6.12298 7.41365 6.15374C7.41365 6.18451 7.41775 6.20912 7.42288 6.20912C7.42801 6.20912 7.4321 6.23374 7.4321 6.2645C7.4321 6.29527 7.4362 6.31988 7.44133 6.31988C7.4464 6.31988 7.45056 6.34065 7.45056 6.36603C7.45056 6.39142 7.45471 6.41218 7.45978 6.41218C7.46491 6.41218 7.46901 6.4368 7.46901 6.46756C7.46901 6.49833 7.4731 6.52294 7.47823 6.52294C7.48336 6.52294 7.48746 6.54756 7.48746 6.57832C7.48746 6.60909 7.49156 6.6337 7.49669 6.6337C7.50182 6.6337 7.50591 6.65832 7.50591 6.68908C7.50591 6.71985 7.51001 6.74446 7.51514 6.74446C7.52027 6.74446 7.52436 6.76908 7.52436 6.79984C7.52436 6.83061 7.52846 6.85522 7.53359 6.85522C7.53872 6.85522 7.54282 6.87984 7.54282 6.9106C7.54282 6.94136 7.54691 6.96598 7.55204 6.96598C7.55717 6.96598 7.56127 6.9906 7.56127 7.02136C7.56127 7.05212 7.56536 7.07674 7.57049 7.07674C7.57562 7.07674 7.57972 7.10136 7.57972 7.13212C7.57972 7.16288 7.58382 7.1875 7.58895 7.1875C7.59402 7.1875 7.59817 7.20827 7.59817 7.23365C7.59817 7.25903 7.60232 7.2798 7.6074 7.2798C7.61253 7.2798 7.61662 7.30442 7.61662 7.33518C7.61662 7.36594 7.62072 7.39056 7.62585 7.39056C7.63098 7.39056 7.63507 7.41518 7.63507 7.44594C7.63507 7.4767 7.63917 7.50132 7.6443 7.50132C7.64943 7.50132 7.65353 7.52593 7.65353 7.5567C7.65353 7.58746 7.65762 7.61208 7.66275 7.61208C7.66788 7.61208 7.67198 7.63669 7.67198 7.66746C7.67198 7.69822 7.67607 7.72284 7.6812 7.72284C7.68633 7.72284 7.69043 7.74745 7.69043 7.77822C7.69043 7.80898 7.69453 7.8336 7.69966 7.8336C7.70479 7.8336 7.70888 7.85821 7.70888 7.88898C7.70888 7.91974 7.71298 7.94436 7.71811 7.94436C7.72324 7.94436 7.72733 7.96897 7.72733 7.99974C7.72733 8.0305 7.73143 8.05512 7.73656 8.05512C7.74163 8.05512 7.74579 8.07588 7.74579 8.10127C7.74579 8.12665 7.74994 8.14742 7.75501 8.14742C7.76014 8.14742 7.76424 8.17203 7.76424 8.2028C7.76424 8.23356 7.76833 8.25817 7.77346 8.25817C7.77859 8.25817 7.78269 8.28279 7.78269 8.31355C7.78269 8.34432 7.78679 8.36893 7.79192 8.36893C7.79705 8.36893 7.80114 8.39355 7.80114 8.42431C7.80114 8.45508 7.80524 8.47969 7.81037 8.47969C7.8155 8.47969 7.81959 8.50431 7.81959 8.53507C7.81959 8.56584 7.82369 8.59045 7.82882 8.59045C7.83395 8.59045 7.83805 8.61507 7.83805 8.64583C7.83805 8.6766 7.84214 8.70121 7.84727 8.70121C7.8524 8.70121 7.8565 8.72583 7.8565 8.75659C7.8565 8.78736 7.86059 8.81197 7.86572 8.81197C7.87085 8.81197 7.87495 8.83659 7.87495 8.86735C7.87495 8.89812 7.87905 8.92273 7.88418 8.92273C7.88925 8.92273 7.8934 8.9435 7.8934 8.96888C7.8934 8.99426 7.89755 9.01503 7.90263 9.01503C7.90776 9.01503 7.91185 9.03965 7.91185 9.07041C7.91185 9.10117 7.91595 9.12579 7.92108 9.12579C7.92621 9.12579 7.93031 9.15041 7.93031 9.18117C7.93031 9.21193 7.9344 9.23655 7.93953 9.23655C7.94466 9.23655 7.94876 9.26117 7.94876 9.29193C7.94876 9.32269 7.95285 9.34731 7.95798 9.34731C7.96311 9.34731 7.96721 9.37193 7.96721 9.40269C7.96721 9.43345 7.97131 9.45807 7.97643 9.45807C7.98156 9.45807 7.98566 9.48269 7.98566 9.51345C7.98566 9.54421 7.98976 9.56883 7.99489 9.56883C8.00002 9.56883 8.00411 9.59345 8.00411 9.62421C8.00411 9.65497 8.00821 9.67959 8.01334 9.67959C8.01847 9.67959 8.02256 9.70421 8.02256 9.73497C8.02256 9.76573 8.02666 9.79035 8.03179 9.79035C8.03692 9.79035 8.04102 9.81496 8.04102 9.84573C8.04102 9.87649 8.04511 9.90111 8.05024 9.90111C8.05532 9.90111 8.05947 9.92188 8.05947 9.94726C8.05947 9.97264 8.06362 9.99341 8.06869 9.99341C8.07382 9.99341 8.07792 10.018 8.07792 10.0488C8.07792 10.0796 8.08202 10.1042 8.08715 10.1042C8.09228 10.1042 8.09637 10.1288 8.09637 10.1595C8.09637 10.1903 8.10047 10.2149 8.1056 10.2149C8.11073 10.2149 8.11482 10.2395 8.11482 10.2703C8.11482 10.3011 8.11892 10.3257 8.12405 10.3257C8.12918 10.3257 8.13328 10.3503 8.13328 10.3811C8.13328 10.4118 8.13737 10.4364 8.1425 10.4364C8.14763 10.4364 8.15173 10.4611 8.15173 10.4918C8.15173 10.5226 8.15582 10.5472 8.16095 10.5472C8.16608 10.5472 8.17018 10.5718 8.17018 10.6026C8.17018 10.6333 8.17428 10.658 8.17941 10.658C8.18454 10.658 8.18863 10.6826 8.18863 10.7133C8.18863 10.7441 8.19273 10.7687 8.19786 10.7687C8.20293 10.7687 8.20708 10.7895 8.20708 10.8149C8.20708 10.8403 8.21124 10.861 8.21631 10.861C8.22144 10.861 8.22554 10.8856 8.22554 10.9164C8.22554 10.9472 8.22963 10.9718 8.23476 10.9718C8.23989 10.9718 8.24399 10.9964 8.24399 11.0272C8.24399 11.0579 8.24808 11.0825 8.25321 11.0825C8.25834 11.0825 8.26244 11.1072 8.26244 11.1379C8.26244 11.1687 8.26654 11.1933 8.27167 11.1933C8.27679 11.1933 8.28089 11.2179 8.28089 11.2487C8.28089 11.2794 8.28499 11.3041 8.29012 11.3041C8.29575 11.3041 8.29934 11.3471 8.29934 11.4148C8.29934 11.4825 8.29575 11.5256 8.29012 11.5256C8.28504 11.5256 8.28089 11.5422 8.28089 11.5625C8.28089 11.5828 8.27674 11.5994 8.27167 11.5994C8.26659 11.5994 8.26244 11.6077 8.26244 11.6179C8.26244 11.628 8.25829 11.6363 8.25321 11.6363C8.24814 11.6363 8.24399 11.6437 8.24399 11.6528C8.24399 11.6618 8.23568 11.6752 8.22554 11.6825C8.21539 11.6898 8.20708 11.7012 8.20708 11.7078C8.20708 11.7234 8.10963 11.8209 8.09399 11.8209C8.0874 11.8209 8.07601 11.8292 8.06869 11.8394C8.06138 11.8496 8.04801 11.8579 8.03898 11.8579C8.02995 11.8579 8.02256 11.862 8.02256 11.8671C8.02256 11.8722 8.01011 11.8763 7.99489 11.8763C7.97966 11.8763 7.96721 11.8805 7.96721 11.8855C7.96721 11.8906 7.95475 11.8948 7.93953 11.8948C7.92431 11.8948 7.91185 11.8989 7.91185 11.904C7.91185 11.9096 7.87188 11.9132 7.81037 11.9132C7.74886 11.9132 7.70888 11.9096 7.70888 11.904C7.70888 11.8989 7.69228 11.8948 7.67198 11.8948C7.65168 11.8948 7.63507 11.8906 7.63507 11.8855C7.63507 11.8805 7.62677 11.8763 7.61662 11.8763C7.60647 11.8763 7.59817 11.8722 7.59817 11.8671C7.59817 11.862 7.58987 11.8579 7.57972 11.8579C7.56957 11.8579 7.56127 11.8537 7.56127 11.8486C7.56127 11.8436 7.55498 11.8394 7.54728 11.8394C7.52905 11.8394 7.3952 11.7055 7.3952 11.6873C7.3952 11.6796 7.39105 11.6733 7.38597 11.6733C7.3809 11.6733 7.37675 11.665 7.37675 11.6548C7.37675 11.6446 7.3726 11.6363 7.36752 11.6363C7.36245 11.6363 7.3583 11.628 7.3583 11.6179C7.3583 11.6077 7.35414 11.5994 7.34907 11.5994C7.344 11.5994 7.33984 11.587 7.33984 11.5717C7.33984 11.5565 7.33569 11.544 7.33062 11.544C7.32554 11.544 7.32139 11.5233 7.32139 11.4979C7.32139 11.4725 7.31724 11.4517 7.31217 11.4517C7.30704 11.4517 7.30294 11.4271 7.30294 11.3964C7.30294 11.3656 7.29884 11.341 7.29371 11.341C7.28858 11.341 7.28449 11.3164 7.28449 11.2856C7.28449 11.2548 7.28039 11.2302 7.27526 11.2302C7.27013 11.2302 7.26604 11.2056 7.26604 11.1748C7.26604 11.1441 7.26194 11.1195 7.25681 11.1195C7.25174 11.1195 7.24758 11.0987 7.24758 11.0733C7.24758 11.0479 7.24343 11.0272 7.23836 11.0272C7.23323 11.0272 7.22913 11.0025 7.22913 10.9718C7.22913 10.941 7.22504 10.9164 7.21991 10.9164C7.21478 10.9164 7.21068 10.8918 7.21068 10.861C7.21068 10.8303 7.20658 10.8056 7.20146 10.8056C7.19633 10.8056 7.19223 10.781 7.19223 10.7503C7.19223 10.7195 7.18813 10.6949 7.183 10.6949C7.17787 10.6949 7.17378 10.6703 7.17378 10.6395C7.17378 10.6087 7.16968 10.5841 7.16455 10.5841C7.15942 10.5841 7.15533 10.5595 7.15533 10.5287C7.15533 10.498 7.15123 10.4734 7.1461 10.4734C7.14097 10.4734 7.13687 10.4487 7.13687 10.418C7.13687 10.3872 7.13278 10.3626 7.12765 10.3626C7.12252 10.3626 7.11842 10.338 7.11842 10.3072C7.11842 10.2765 7.11433 10.2518 7.1092 10.2518C7.10412 10.2518 7.09997 10.2311 7.09997 10.2057C7.09997 10.1803 7.09582 10.1595 7.09074 10.1595C7.08561 10.1595 7.08152 10.1349 7.08152 10.1042C7.08152 10.0734 7.07742 10.0488 7.07229 10.0488C7.06716 10.0488 7.06307 10.0242 7.06307 9.99341C7.06307 9.96264 7.05897 9.93803 7.05384 9.93803C7.04871 9.93803 7.04461 9.91341 7.04461 9.88265C7.04461 9.85188 7.04052 9.82727 7.03539 9.82727C7.03026 9.82727 7.02616 9.80265 7.02616 9.77189C7.02616 9.74112 7.02207 9.71651 7.01694 9.71651C7.01181 9.71651 7.00771 9.69189 7.00771 9.66113C7.00771 9.63037 7.00361 9.60575 6.99848 9.60575C6.99335 9.60575 6.98926 9.58113 6.98926 9.55037C6.98926 9.51961 6.98516 9.49499 6.98003 9.49499C6.9749 9.49499 6.97081 9.47037 6.97081 9.43961C6.97081 9.40885 6.96671 9.38423 6.96158 9.38423C6.95651 9.38423 6.95235 9.36346 6.95235 9.33808C6.95235 9.3127 6.9482 9.29193 6.94313 9.29193C6.938 9.29193 6.9339 9.26731 6.9339 9.23655C6.9339 9.20579 6.92981 9.18117 6.92468 9.18117C6.91955 9.18117 6.91545 9.15655 6.91545 9.12579C6.91545 9.09503 6.91135 9.07041 6.90622 9.07041C6.9011 9.07041 6.897 9.0458 6.897 9.01503C6.897 8.98427 6.8929 8.95965 6.88777 8.95965C6.88264 8.95965 6.87855 8.93504 6.87855 8.90427C6.87855 8.87351 6.87445 8.84889 6.86932 8.84889C6.86419 8.84889 6.86009 8.82428 6.86009 8.79351C6.86009 8.76275 6.856 8.73813 6.85087 8.73813C6.84574 8.73813 6.84164 8.71352 6.84164 8.68275C6.84164 8.65199 6.83755 8.62737 6.83242 8.62737C6.82729 8.62737 6.82319 8.60276 6.82319 8.57199C6.82319 8.54123 6.81909 8.51661 6.81397 8.51661C6.80884 8.51661 6.80474 8.492 6.80474 8.46123C6.80474 8.43047 6.80064 8.40585 6.79551 8.40585C6.79044 8.40585 6.78629 8.38509 6.78629 8.3597C6.78629 8.33432 6.78214 8.31355 6.77706 8.31355C6.77193 8.31355 6.76784 8.28894 6.76784 8.25817C6.76784 8.22741 6.76374 8.2028 6.75861 8.2028C6.75348 8.2028 6.74938 8.17818 6.74938 8.14742C6.74938 8.11665 6.74529 8.09204 6.74016 8.09204C6.73503 8.09204 6.73093 8.06742 6.73093 8.03666C6.73093 8.00589 6.72684 7.98128 6.72171 7.98128C6.71658 7.98128 6.71248 7.95666 6.71248 7.9259C6.71248 7.89513 6.70838 7.87052 6.70325 7.87052C6.69812 7.87052 6.69403 7.8459 6.69403 7.81514C6.69403 7.78437 6.68993 7.75976 6.6848 7.75976C6.67967 7.75976 6.67558 7.73514 6.67558 7.70438C6.67558 7.67361 6.67148 7.649 6.66635 7.649C6.66122 7.649 6.65712 7.62438 6.65712 7.59362C6.65712 7.56285 6.65303 7.53824 6.6479 7.53824C6.64282 7.53824 6.63867 7.51747 6.63867 7.49209C6.63867 7.46671 6.63452 7.44594 6.62945 7.44594C6.62432 7.44594 6.62022 7.42132 6.62022 7.39056C6.62022 7.3598 6.61612 7.33518 6.61099 7.33518C6.60586 7.33518 6.60177 7.31056 6.60177 7.2798C6.60177 7.24904 6.59767 7.22442 6.59254 7.22442C6.58741 7.22442 6.58332 7.1998 6.58332 7.16904C6.58332 7.13828 6.57922 7.11366 6.57409 7.11366C6.56896 7.11366 6.56486 7.08904 6.56486 7.05828C6.56486 7.02752 6.56077 7.0029 6.55564 7.0029C6.55051 7.0029 6.54641 6.97828 6.54641 6.94752C6.54641 6.91676 6.54232 6.89214 6.53719 6.89214C6.53206 6.89214 6.52796 6.86753 6.52796 6.83676C6.52796 6.806 6.52386 6.78138 6.51873 6.78138C6.51361 6.78138 6.50951 6.75677 6.50951 6.726C6.50951 6.69524 6.50541 6.67062 6.50028 6.67062C6.49521 6.67062 6.49106 6.64986 6.49106 6.62447C6.49106 6.59909 6.48691 6.57832 6.48183 6.57832C6.4767 6.57832 6.47261 6.55371 6.47261 6.52294C6.47261 6.49218 6.46851 6.46756 6.46338 6.46756C6.45825 6.46756 6.45415 6.44295 6.45415 6.41218C6.45415 6.38142 6.45006 6.3568 6.44493 6.3568C6.4398 6.3568 6.4357 6.33219 6.4357 6.30142C6.4357 6.27066 6.4316 6.24604 6.42648 6.24604C6.42135 6.24604 6.41725 6.22143 6.41725 6.19066C6.41725 6.1599 6.41315 6.13528 6.40802 6.13528C6.40289 6.13528 6.3988 6.11067 6.3988 6.0799C6.3988 6.04914 6.3947 6.02453 6.38957 6.02453C6.38444 6.02453 6.38035 5.99991 6.38035 5.96915C6.38035 5.93838 6.37625 5.91377 6.37112 5.91377C6.36599 5.91377 6.36189 5.88915 6.36189 5.85839C6.36189 5.82762 6.3578 5.80301 6.35267 5.80301C6.34759 5.80301 6.34344 5.78224 6.34344 5.75686C6.34344 5.73147 6.33929 5.71071 6.33422 5.71071C6.32909 5.71071 6.32499 5.68609 6.32499 5.65533C6.32499 5.62456 6.32089 5.59995 6.31576 5.59995C6.31063 5.59995 6.30654 5.57533 6.30654 5.54457C6.30654 5.5138 6.30244 5.48919 6.29731 5.48919C6.29218 5.48919 6.28809 5.46457 6.28809 5.43381C6.28809 5.40304 6.28399 5.37843 6.27886 5.37843C6.27373 5.37843 6.26963 5.35381 6.26963 5.32305C6.26963 5.29229 6.26554 5.26767 6.26041 5.26767C6.25528 5.26767 6.25118 5.24305 6.25118 5.21229C6.25118 5.18153 6.24709 5.15691 6.24196 5.15691C6.23683 5.15691 6.23273 5.13229 6.23273 5.10153C6.23273 5.07077 6.22863 5.04615 6.2235 5.04615C6.21837 5.04615 6.21428 5.02153 6.21428 4.99077C6.21428 4.96001 6.21018 4.93539 6.20505 4.93539C6.19992 4.93539 6.19583 4.91077 6.19583 4.88001C6.19583 4.84925 6.19173 4.82463 6.1866 4.82463C6.18153 4.82463 6.17737 4.80386 6.17737 4.77848C6.17737 4.7531 6.17322 4.73233 6.16815 4.73233C6.16302 4.73233 6.15892 4.70771 6.15892 4.67695C6.15892 4.64619 6.15483 4.62157 6.1497 4.62157C6.14457 4.62157 6.14047 4.59696 6.14047 4.56619C6.14047 4.53543 6.13637 4.51081 6.13124 4.51081C6.12612 4.51081 6.12202 4.4862 6.12202 4.45543C6.12202 4.42467 6.11792 4.40005 6.11279 4.40005C6.10766 4.40005 6.10357 4.37544 6.10357 4.34467C6.10357 4.31391 6.09947 4.28929 6.09434 4.28929C6.08921 4.28929 6.08512 4.26468 6.08512 4.23391C6.08512 4.20315 6.08102 4.17853 6.07589 4.17853C6.07076 4.17853 6.06666 4.15392 6.06666 4.12315C6.06666 4.09239 6.06257 4.06777 6.05744 4.06777C6.05231 4.06777 6.04821 4.04316 6.04821 4.01239C6.04821 3.98163 6.04412 3.95701 6.03899 3.95701C6.03391 3.95701 6.02976 3.93625 6.02976 3.91086C6.02976 3.88548 6.02561 3.86472 6.02053 3.86472C6.0154 3.86472 6.01131 3.8401 6.01131 3.80934C6.01131 3.77857 6.00721 3.75396 6.00208 3.75396C5.99695 3.75396 5.99286 3.72934 5.99286 3.69858C5.99286 3.66781 5.98876 3.6432 5.98363 3.6432C5.9785 3.6432 5.9744 3.61858 5.9744 3.58782C5.9744 3.55705 5.97031 3.53244 5.96518 3.53244C5.96005 3.53244 5.95595 3.50782 5.95595 3.47706C5.95595 3.44629 5.95186 3.42168 5.94673 3.42168C5.94109 3.42168 5.9375 3.3786 5.9375 3.31092C5.9375 3.24323 5.94109 3.20016 5.94673 3.20016C5.9518 3.20016 5.95595 3.1877 5.95595 3.17247C5.95595 3.15724 5.9601 3.14478 5.96518 3.14478C5.97025 3.14478 5.9744 3.13232 5.9744 3.11709C5.9744 3.10186 5.97856 3.0894 5.98363 3.0894C5.9887 3.0894 5.99286 3.08201 5.99286 3.07298C5.99286 3.06394 6.00116 3.05057 6.01131 3.04325C6.02146 3.03593 6.02976 3.02454 6.02976 3.01794C6.02976 3.00113 6.12779 2.9048 6.14488 2.9048C6.1526 2.9048 6.15892 2.90065 6.15892 2.89557C6.15892 2.89049 6.16723 2.88634 6.17737 2.88634C6.18752 2.88634 6.19583 2.88219 6.19583 2.87711C6.19583 2.87203 6.20413 2.86788 6.21428 2.86788C6.22443 2.86788 6.23273 2.86373 6.23273 2.85865C6.23273 2.85357 6.24103 2.84942 6.25118 2.84942C6.26133 2.84942 6.26963 2.84527 6.26963 2.84019C6.26963 2.83511 6.28624 2.83096 6.30654 2.83096ZM9.89543 8.18434C9.99385 8.18434 10.0523 8.18089 10.0523 8.17511C10.0523 8.16963 10.0861 8.16588 10.1353 8.16588C10.1845 8.16588 10.2183 8.16963 10.2183 8.17511C10.2183 8.18087 10.2737 8.18434 10.366 8.18434C10.4582 8.18434 10.5136 8.1878 10.5136 8.19357C10.5136 8.19895 10.5443 8.2028 10.5874 8.2028C10.6304 8.2028 10.6612 8.20664 10.6612 8.21203C10.6612 8.21716 10.6858 8.22126 10.7165 8.22126C10.7473 8.22126 10.7719 8.22535 10.7719 8.23049C10.7719 8.23562 10.7965 8.23972 10.8273 8.23972C10.858 8.23972 10.8826 8.24381 10.8826 8.24895C10.8826 8.25402 10.8992 8.25817 10.9195 8.25817C10.9398 8.25817 10.9564 8.26233 10.9564 8.2674C10.9564 8.27248 10.9772 8.27664 11.0025 8.27664C11.0279 8.27664 11.0487 8.28079 11.0487 8.28587C11.0487 8.29094 11.0653 8.29509 11.0856 8.29509C11.1059 8.29509 11.1225 8.29925 11.1225 8.30432C11.1225 8.3094 11.1349 8.31355 11.1502 8.31355C11.1654 8.31355 11.1778 8.31771 11.1778 8.32278C11.1778 8.32786 11.1944 8.33201 11.2147 8.33201C11.235 8.33201 11.2516 8.33617 11.2516 8.34124C11.2516 8.34632 11.2641 8.35047 11.2793 8.35047C11.2945 8.35047 11.307 8.35463 11.307 8.3597C11.307 8.36478 11.3195 8.36893 11.3347 8.36893C11.3499 8.36893 11.3624 8.37309 11.3624 8.37816C11.3624 8.38324 11.3748 8.38739 11.39 8.38739C11.4053 8.38739 11.4177 8.39155 11.4177 8.39662C11.4177 8.4017 11.4302 8.40585 11.4454 8.40585C11.4606 8.40585 11.4731 8.41001 11.4731 8.41508C11.4731 8.42016 11.4814 8.42431 11.4915 8.42431C11.5017 8.42431 11.51 8.42847 11.51 8.43354C11.51 8.43862 11.5224 8.44277 11.5377 8.44277C11.5529 8.44277 11.5653 8.44693 11.5653 8.452C11.5653 8.45708 11.5736 8.46123 11.5838 8.46123C11.5939 8.46123 11.6022 8.46539 11.6022 8.47046C11.6022 8.47554 11.6147 8.47969 11.6299 8.47969C11.6451 8.47969 11.6576 8.48385 11.6576 8.48892C11.6576 8.494 11.6659 8.49815 11.676 8.49815C11.6862 8.49815 11.6945 8.50231 11.6945 8.50738C11.6945 8.51246 11.7028 8.51661 11.7129 8.51661C11.7231 8.51661 11.7314 8.52077 11.7314 8.52584C11.7314 8.53092 11.7397 8.53507 11.7498 8.53507C11.76 8.53507 11.7683 8.53923 11.7683 8.5443C11.7683 8.54938 11.7766 8.55353 11.7868 8.55353C11.7969 8.55353 11.8052 8.55769 11.8052 8.56276C11.8052 8.56784 11.8135 8.57199 11.8237 8.57199C11.8338 8.57199 11.8421 8.57615 11.8421 8.58122C11.8421 8.5863 11.8504 8.59045 11.8606 8.59045C11.8707 8.59045 11.879 8.59461 11.879 8.59968C11.879 8.60476 11.8873 8.60891 11.8975 8.60891C11.9076 8.60891 11.9159 8.61307 11.9159 8.61814C11.9159 8.62322 11.9242 8.62737 11.9344 8.62737C11.9445 8.62737 11.9528 8.63153 11.9528 8.6366C11.9528 8.64168 11.9611 8.64583 11.9713 8.64583C11.9814 8.64583 11.9897 8.64999 11.9897 8.65506C11.9897 8.66014 11.9971 8.66429 12.0061 8.66429C12.0152 8.66429 12.0285 8.6726 12.0359 8.68275C12.0432 8.69291 12.0565 8.70121 12.0656 8.70121C12.0746 8.70121 12.082 8.70537 12.082 8.71044C12.082 8.71552 12.0903 8.71967 12.1004 8.71967C12.1106 8.71967 12.1189 8.72383 12.1189 8.7289C12.1189 8.73398 12.1263 8.73813 12.1353 8.73813C12.1443 8.73813 12.1577 8.74644 12.165 8.75659C12.1723 8.76675 12.1848 8.77505 12.1927 8.77505C12.2006 8.77505 12.2131 8.78336 12.2204 8.79351C12.2277 8.80367 12.2401 8.81197 12.248 8.81197C12.256 8.81197 12.2684 8.82028 12.2757 8.83043C12.283 8.84059 12.2955 8.84889 12.3034 8.84889C12.3113 8.84889 12.3238 8.8572 12.3311 8.86735C12.3384 8.87751 12.3501 8.88581 12.3571 8.88581C12.3641 8.88581 12.3814 8.89827 12.3957 8.9135C12.4099 8.92873 12.4265 8.94119 12.4326 8.94119C12.4386 8.94119 12.4553 8.95365 12.4695 8.96888C12.4837 8.98411 12.5002 8.99657 12.5062 8.99657C12.5122 8.99657 12.533 9.01319 12.5525 9.03349C12.572 9.0538 12.5926 9.07041 12.5983 9.07041C12.604 9.07041 12.6415 9.10364 12.6817 9.14425C12.7218 9.18486 12.7591 9.21809 12.7644 9.21809C12.7771 9.21809 12.9492 9.39025 12.9492 9.40297C12.9492 9.40833 12.9824 9.44558 13.023 9.48576C13.0636 9.52594 13.0968 9.56347 13.0968 9.56916C13.0968 9.57485 13.1134 9.59547 13.1337 9.61498C13.154 9.63449 13.1706 9.65526 13.1706 9.66113C13.1706 9.667 13.1873 9.68777 13.2075 9.70728C13.2278 9.72679 13.2445 9.74839 13.2445 9.75528C13.2445 9.76218 13.2528 9.7738 13.2629 9.78112C13.2731 9.78844 13.2814 9.8009 13.2814 9.80881C13.2814 9.81672 13.2897 9.82918 13.2998 9.8365C13.31 9.84382 13.3183 9.85553 13.3183 9.86253C13.3183 9.86951 13.3307 9.88688 13.3459 9.90111C13.3612 9.91533 13.3736 9.93362 13.3736 9.94173C13.3736 9.94985 13.3778 9.95649 13.3828 9.95649C13.3879 9.95649 13.3921 9.96388 13.3921 9.97291C13.3921 9.98194 13.4004 9.99532 13.4105 10.0026C13.4207 10.01 13.429 10.0224 13.429 10.0303C13.429 10.0382 13.4373 10.0507 13.4474 10.058C13.4576 10.0653 13.4659 10.0787 13.4659 10.0877C13.4659 10.0968 13.47 10.1042 13.4751 10.1042C13.4802 10.1042 13.4843 10.1125 13.4843 10.1226C13.4843 10.1328 13.4885 10.1411 13.4936 10.1411C13.4986 10.1411 13.5028 10.1485 13.5028 10.1575C13.5028 10.1665 13.5111 10.1799 13.5212 10.1872C13.5314 10.1946 13.5397 10.2079 13.5397 10.217C13.5397 10.226 13.5438 10.2334 13.5489 10.2334C13.554 10.2334 13.5581 10.2417 13.5581 10.2518C13.5581 10.262 13.5623 10.2703 13.5674 10.2703C13.5724 10.2703 13.5766 10.2786 13.5766 10.2888C13.5766 10.2989 13.5807 10.3072 13.5858 10.3072C13.5909 10.3072 13.595 10.3155 13.595 10.3257C13.595 10.3358 13.5992 10.3441 13.6043 10.3441C13.6093 10.3441 13.6135 10.3525 13.6135 10.3626C13.6135 10.3728 13.6176 10.3811 13.6227 10.3811C13.6278 10.3811 13.6319 10.3894 13.6319 10.3995C13.6319 10.4097 13.6361 10.418 13.6412 10.418C13.6462 10.418 13.6504 10.4304 13.6504 10.4457C13.6504 10.4609 13.6545 10.4734 13.6596 10.4734C13.6647 10.4734 13.6688 10.4817 13.6688 10.4918C13.6688 10.502 13.673 10.5103 13.6781 10.5103C13.6831 10.5103 13.6873 10.5186 13.6873 10.5287C13.6873 10.5389 13.6914 10.5472 13.6965 10.5472C13.7016 10.5472 13.7057 10.5597 13.7057 10.5749C13.7057 10.5901 13.7099 10.6026 13.715 10.6026C13.72 10.6026 13.7242 10.6109 13.7242 10.621C13.7242 10.6312 13.7284 10.6395 13.7334 10.6395C13.7385 10.6395 13.7427 10.652 13.7427 10.6672C13.7427 10.6824 13.7468 10.6949 13.7519 10.6949C13.757 10.6949 13.7611 10.7032 13.7611 10.7133C13.7611 10.7235 13.7653 10.7318 13.7703 10.7318C13.7754 10.7318 13.7796 10.7443 13.7796 10.7595C13.7796 10.7747 13.7837 10.7872 13.7888 10.7872C13.7939 10.7872 13.798 10.7996 13.798 10.8149C13.798 10.8301 13.8022 10.8426 13.8072 10.8426C13.8123 10.8426 13.8165 10.855 13.8165 10.8703C13.8165 10.8855 13.8206 10.8979 13.8257 10.8979C13.8308 10.8979 13.8349 10.9146 13.8349 10.9349C13.8349 10.9552 13.8391 10.9718 13.8441 10.9718C13.8492 10.9718 13.8534 10.9842 13.8534 10.9995C13.8534 11.0147 13.8575 11.0272 13.8626 11.0272C13.8677 11.0272 13.8718 11.0438 13.8718 11.0641C13.8718 11.0844 13.876 11.101 13.881 11.101C13.8861 11.101 13.8903 11.1176 13.8903 11.1379C13.8903 11.1582 13.8944 11.1748 13.8995 11.1748C13.9046 11.1748 13.9087 11.1915 13.9087 11.2118C13.9087 11.2321 13.9129 11.2487 13.9179 11.2487C13.923 11.2487 13.9272 11.2694 13.9272 11.2948C13.9272 11.3202 13.9313 11.341 13.9364 11.341C13.9415 11.341 13.9456 11.3656 13.9456 11.3964C13.9456 11.4271 13.9497 11.4517 13.9549 11.4517C13.9601 11.4517 13.9641 11.4794 13.9641 11.5164C13.9641 11.5533 13.968 11.581 13.9733 11.581C13.9789 11.581 13.9825 11.621 13.9825 11.6825C13.9825 11.744 13.9862 11.784 13.9918 11.784C13.9977 11.784 14.001 11.8825 14.001 12.0609C14.001 12.2394 13.9977 12.3378 13.9918 12.3378C13.9862 12.3378 13.9825 12.3747 13.9825 12.4301C13.9825 12.4855 13.9788 12.5224 13.9733 12.5224C13.9679 12.5224 13.9641 12.5532 13.9641 12.5963C13.9641 12.6393 13.9602 12.6701 13.9549 12.6701C13.9498 12.6701 13.9456 12.6909 13.9456 12.7162C13.9456 12.7416 13.9415 12.7624 13.9364 12.7624C13.9313 12.7624 13.9272 12.787 13.9272 12.8178C13.9272 12.8485 13.9231 12.8732 13.9179 12.8732C13.9129 12.8732 13.9087 12.8898 13.9087 12.9101C13.9087 12.9304 13.9046 12.947 13.8995 12.947C13.8944 12.947 13.8903 12.9636 13.8903 12.9839C13.8903 13.0042 13.8861 13.0208 13.881 13.0208C13.876 13.0208 13.8718 13.0374 13.8718 13.0578C13.8718 13.0781 13.8677 13.0947 13.8626 13.0947C13.8575 13.0947 13.8534 13.1071 13.8534 13.1224C13.8534 13.1376 13.8492 13.1501 13.8441 13.1501C13.8391 13.1501 13.8349 13.1667 13.8349 13.187C13.8349 13.2073 13.8308 13.2239 13.8257 13.2239C13.8206 13.2239 13.8165 13.2364 13.8165 13.2516C13.8165 13.2668 13.8123 13.2793 13.8072 13.2793C13.8022 13.2793 13.798 13.2917 13.798 13.307C13.798 13.3222 13.7939 13.3347 13.7888 13.3347C13.7837 13.3347 13.7796 13.3471 13.7796 13.3623C13.7796 13.3776 13.7754 13.39 13.7703 13.39C13.7653 13.39 13.7611 13.3983 13.7611 13.4085C13.7611 13.4186 13.757 13.427 13.7519 13.427C13.7468 13.427 13.7427 13.4394 13.7427 13.4546C13.7427 13.4699 13.7385 13.4823 13.7334 13.4823C13.7284 13.4823 13.7242 13.4906 13.7242 13.5008C13.7242 13.5109 13.72 13.5193 13.715 13.5193C13.7099 13.5193 13.7057 13.5317 13.7057 13.5469C13.7057 13.5622 13.7016 13.5746 13.6965 13.5746C13.6914 13.5746 13.6873 13.5829 13.6873 13.5931C13.6873 13.6032 13.6831 13.6116 13.6781 13.6116C13.673 13.6116 13.6688 13.6199 13.6688 13.63C13.6688 13.6402 13.6647 13.6485 13.6596 13.6485C13.6545 13.6485 13.6504 13.6568 13.6504 13.6669C13.6504 13.6771 13.6462 13.6854 13.6412 13.6854C13.6361 13.6854 13.6319 13.6979 13.6319 13.7131C13.6319 13.7283 13.6278 13.7408 13.6227 13.7408C13.6176 13.7408 13.6135 13.7491 13.6135 13.7592C13.6135 13.7694 13.6093 13.7777 13.6043 13.7777C13.5992 13.7777 13.595 13.786 13.595 13.7961C13.595 13.8063 13.5909 13.8146 13.5858 13.8146C13.5807 13.8146 13.5766 13.8229 13.5766 13.8331C13.5766 13.8432 13.5724 13.8515 13.5674 13.8515C13.5623 13.8515 13.5581 13.8589 13.5581 13.868C13.5581 13.877 13.5498 13.8904 13.5397 13.8977C13.5295 13.905 13.5212 13.9184 13.5212 13.9274C13.5212 13.9364 13.5171 13.9438 13.512 13.9438C13.5069 13.9438 13.5028 13.9521 13.5028 13.9623C13.5028 13.9724 13.4986 13.9807 13.4936 13.9807C13.4885 13.9807 13.4843 13.9881 13.4843 13.9972C13.4843 14.0062 13.476 14.0196 13.4659 14.0269C13.4557 14.0342 13.4474 14.0476 13.4474 14.0566C13.4474 14.0657 13.4433 14.073 13.4382 14.073C13.4331 14.073 13.429 14.0804 13.429 14.0895C13.429 14.0985 13.4207 14.1119 13.4105 14.1192C13.4004 14.1265 13.3921 14.139 13.3921 14.1469C13.3921 14.1548 13.3838 14.1673 13.3736 14.1746C13.3635 14.1819 13.3552 14.1944 13.3552 14.2023C13.3552 14.2102 13.3469 14.2226 13.3367 14.23C13.3266 14.2373 13.3183 14.2497 13.3183 14.2576C13.3183 14.2656 13.31 14.278 13.2998 14.2853C13.2897 14.2927 13.2814 14.3044 13.2814 14.3114C13.2814 14.3184 13.2689 14.3357 13.2537 14.3499C13.2385 14.3642 13.226 14.3808 13.226 14.3869C13.226 14.3929 13.2135 14.4096 13.1983 14.4238C13.1831 14.438 13.1706 14.4545 13.1706 14.4604C13.1706 14.4663 13.1499 14.4914 13.1245 14.5161C13.0991 14.5408 13.0784 14.5656 13.0784 14.5712C13.0784 14.5768 13.041 14.6185 12.9954 14.6638C12.9497 14.7091 12.9123 14.7505 12.9123 14.756C12.9123 14.7687 12.8328 14.8484 12.82 14.8484C12.8146 14.8484 12.769 14.8899 12.7186 14.9407C12.6682 14.9914 12.6223 15.033 12.6167 15.033C12.611 15.033 12.5905 15.0496 12.571 15.0699C12.5515 15.0902 12.5307 15.1068 12.5248 15.1068C12.519 15.1068 12.4982 15.1234 12.4787 15.1437C12.4592 15.164 12.4376 15.1806 12.4307 15.1806C12.4238 15.1806 12.4122 15.189 12.4049 15.1991C12.3976 15.2093 12.3859 15.2176 12.3789 15.2176C12.3719 15.2176 12.3545 15.23 12.3403 15.2453C12.3261 15.2605 12.3087 15.2729 12.3017 15.2729C12.2948 15.2729 12.283 15.2813 12.2757 15.2914C12.2684 15.3016 12.256 15.3099 12.248 15.3099C12.2401 15.3099 12.2277 15.3182 12.2204 15.3283C12.2131 15.3385 12.1997 15.3468 12.1907 15.3468C12.1816 15.3468 12.1742 15.3509 12.1742 15.356C12.1742 15.3611 12.1669 15.3652 12.1578 15.3652C12.1488 15.3652 12.1354 15.3735 12.1281 15.3837C12.1208 15.3939 12.1074 15.4022 12.0984 15.4022C12.0894 15.4022 12.082 15.4063 12.082 15.4114C12.082 15.4165 12.0737 15.4206 12.0635 15.4206C12.0534 15.4206 12.0451 15.4248 12.0451 15.4299C12.0451 15.4349 12.0377 15.4391 12.0287 15.4391C12.0196 15.4391 12.0063 15.4474 11.9989 15.4575C11.9916 15.4677 11.9783 15.476 11.9692 15.476C11.9602 15.476 11.9528 15.4802 11.9528 15.4852C11.9528 15.4903 11.9445 15.4945 11.9344 15.4945C11.9242 15.4945 11.9159 15.4986 11.9159 15.5037C11.9159 15.5088 11.9076 15.5129 11.8975 15.5129C11.8873 15.5129 11.879 15.5171 11.879 15.5222C11.879 15.5272 11.8707 15.5314 11.8606 15.5314C11.8504 15.5314 11.8421 15.5355 11.8421 15.5406C11.8421 15.5457 11.8338 15.5498 11.8237 15.5498C11.8135 15.5498 11.8052 15.554 11.8052 15.5591C11.8052 15.5641 11.7969 15.5683 11.7868 15.5683C11.7766 15.5683 11.7683 15.5725 11.7683 15.5775C11.7683 15.5826 11.76 15.5868 11.7498 15.5868C11.7397 15.5868 11.7314 15.5909 11.7314 15.596C11.7314 15.6011 11.7231 15.6052 11.7129 15.6052C11.7028 15.6052 11.6945 15.6094 11.6945 15.6145C11.6945 15.6195 11.682 15.6237 11.6668 15.6237C11.6516 15.6237 11.6391 15.6278 11.6391 15.6329C11.6391 15.638 11.6308 15.6421 11.6207 15.6421C11.6105 15.6421 11.6022 15.6463 11.6022 15.6514C11.6022 15.6564 11.5898 15.6606 11.5746 15.6606C11.5593 15.6606 11.5469 15.6648 11.5469 15.6698C11.5469 15.6749 11.5386 15.6791 11.5284 15.6791C11.5183 15.6791 11.51 15.6832 11.51 15.6883C11.51 15.6934 11.4975 15.6975 11.4823 15.6975C11.4671 15.6975 11.4546 15.7017 11.4546 15.7068C11.4546 15.7118 11.4422 15.716 11.4269 15.716C11.4117 15.716 11.3993 15.7201 11.3993 15.7252C11.3993 15.7303 11.391 15.7344 11.3808 15.7344C11.3707 15.7344 11.3624 15.7386 11.3624 15.7437C11.3624 15.7487 11.3458 15.7529 11.3255 15.7529C11.3052 15.7529 11.2886 15.7571 11.2886 15.7621C11.2886 15.7672 11.2761 15.7714 11.2609 15.7714C11.2457 15.7714 11.2332 15.7755 11.2332 15.7806C11.2332 15.7857 11.2207 15.7898 11.2055 15.7898C11.1903 15.7898 11.1778 15.794 11.1778 15.7991C11.1778 15.8041 11.1612 15.8083 11.1409 15.8083C11.1206 15.8083 11.104 15.8124 11.104 15.8175C11.104 15.8226 11.0874 15.8267 11.0671 15.8267C11.0468 15.8267 11.0302 15.8309 11.0302 15.836C11.0302 15.841 11.0136 15.8452 10.9933 15.8452C10.973 15.8452 10.9564 15.8494 10.9564 15.8544C10.9564 15.8595 10.9357 15.8637 10.9103 15.8637C10.8849 15.8637 10.8642 15.8678 10.8642 15.8729C10.8642 15.878 10.8434 15.8821 10.818 15.8821C10.7927 15.8821 10.7719 15.8863 10.7719 15.8914C10.7719 15.8966 10.7442 15.9006 10.7073 15.9006C10.6704 15.9006 10.6427 15.9045 10.6427 15.9098C10.6427 15.9153 10.6089 15.919 10.5597 15.919C10.5105 15.919 10.4767 15.9228 10.4767 15.9283C10.4767 15.9343 10.3506 15.9375 10.1169 15.9375C9.88313 15.9375 9.75704 15.9343 9.75704 15.9283C9.75704 15.9228 9.72321 15.919 9.67401 15.919C9.62481 15.919 9.59098 15.9153 9.59098 15.9098C9.59098 15.9047 9.56637 15.9006 9.53562 15.9006C9.50487 15.9006 9.48026 15.8965 9.48026 15.8914C9.48026 15.8862 9.45566 15.8821 9.42491 15.8821C9.39416 15.8821 9.36955 15.878 9.36955 15.8729C9.36955 15.8678 9.34879 15.8637 9.32342 15.8637C9.29805 15.8637 9.27729 15.8595 9.27729 15.8544C9.27729 15.8494 9.26069 15.8452 9.24039 15.8452C9.22009 15.8452 9.20349 15.841 9.20349 15.836C9.20349 15.8309 9.18688 15.8267 9.16658 15.8267C9.14629 15.8267 9.12968 15.8226 9.12968 15.8175C9.12968 15.8124 9.11307 15.8083 9.09277 15.8083C9.07248 15.8083 9.05587 15.8041 9.05587 15.7991C9.05587 15.794 9.04342 15.7898 9.02819 15.7898C9.01297 15.7898 9.00052 15.7857 9.00052 15.7806C9.00052 15.7755 8.98806 15.7714 8.97284 15.7714C8.95761 15.7714 8.94516 15.7672 8.94516 15.7621C8.94516 15.7571 8.9327 15.7529 8.91748 15.7529C8.90226 15.7529 8.8898 15.7487 8.8898 15.7437C8.8898 15.7386 8.87735 15.7344 8.86213 15.7344C8.8469 15.7344 8.83445 15.7303 8.83445 15.7252C8.83445 15.7201 8.82199 15.716 8.80677 15.716C8.79155 15.716 8.77909 15.7118 8.77909 15.7068C8.77909 15.7017 8.76664 15.6975 8.75141 15.6975C8.73619 15.6975 8.72374 15.6934 8.72374 15.6883C8.72374 15.6832 8.71543 15.6791 8.70528 15.6791C8.69514 15.6791 8.68683 15.6749 8.68683 15.6698C8.68683 15.6648 8.67438 15.6606 8.65916 15.6606C8.64393 15.6606 8.63148 15.6564 8.63148 15.6514C8.63148 15.6463 8.62317 15.6421 8.61303 15.6421C8.60288 15.6421 8.59457 15.638 8.59457 15.6329C8.59457 15.6278 8.58627 15.6237 8.57612 15.6237C8.56597 15.6237 8.55767 15.6195 8.55767 15.6145C8.55767 15.6094 8.54521 15.6052 8.52999 15.6052C8.51477 15.6052 8.50231 15.6011 8.50231 15.596C8.50231 15.5909 8.49401 15.5868 8.48386 15.5868C8.47371 15.5868 8.46541 15.5826 8.46541 15.5775C8.46541 15.5725 8.45711 15.5683 8.44696 15.5683C8.43681 15.5683 8.42851 15.5641 8.42851 15.5591C8.42851 15.554 8.4202 15.5498 8.41005 15.5498C8.39991 15.5498 8.3916 15.5457 8.3916 15.5406C8.3916 15.5355 8.3833 15.5314 8.37315 15.5314C8.363 15.5314 8.3547 15.5272 8.3547 15.5222C8.3547 15.5171 8.3464 15.5129 8.33625 15.5129C8.3261 15.5129 8.31779 15.5088 8.31779 15.5037C8.31779 15.4986 8.30949 15.4945 8.29934 15.4945C8.28919 15.4945 8.28089 15.4903 8.28089 15.4852C8.28089 15.4802 8.2735 15.476 8.26448 15.476C8.25545 15.476 8.24208 15.4677 8.23476 15.4575C8.22745 15.4474 8.21408 15.4391 8.20504 15.4391C8.19602 15.4391 8.18863 15.4349 8.18863 15.4299C8.18863 15.4248 8.18124 15.4206 8.17222 15.4206C8.16319 15.4206 8.14982 15.4123 8.1425 15.4022C8.13519 15.392 8.12182 15.3837 8.11279 15.3837C8.10376 15.3837 8.09637 15.3795 8.09637 15.3745C8.09637 15.3694 8.08898 15.3652 8.07996 15.3652C8.07093 15.3652 8.05756 15.3569 8.05024 15.3468C8.04293 15.3366 8.03047 15.3283 8.02256 15.3283C8.01466 15.3283 8.0022 15.32 7.99489 15.3099C7.98757 15.2997 7.97512 15.2914 7.96721 15.2914C7.9593 15.2914 7.94685 15.2831 7.93953 15.2729C7.93221 15.2628 7.91976 15.2545 7.91185 15.2545C7.90395 15.2545 7.89149 15.2462 7.88418 15.236C7.87686 15.2259 7.86515 15.2176 7.85816 15.2176C7.85117 15.2176 7.83381 15.2051 7.81959 15.1899C7.80538 15.1746 7.78877 15.1622 7.78269 15.1622C7.77661 15.1622 7.76 15.1497 7.74579 15.1345C7.73157 15.1193 7.7151 15.1068 7.7092 15.1068C7.70329 15.1068 7.67824 15.086 7.65353 15.0607C7.62881 15.0353 7.60415 15.0145 7.59872 15.0145C7.58582 15.0145 7.17378 14.6023 7.17378 14.5894C7.17378 14.5839 7.15302 14.5593 7.12765 14.5345C7.10228 14.5098 7.08152 14.4848 7.08152 14.479C7.08152 14.4732 7.06491 14.4525 7.04461 14.433C7.02432 14.4135 7.00771 14.3919 7.00771 14.385C7.00771 14.3781 6.99941 14.3665 6.98926 14.3592C6.97911 14.3519 6.97081 14.3401 6.97081 14.3331C6.97081 14.3262 6.95835 14.3088 6.94313 14.2946C6.92791 14.2803 6.91545 14.263 6.91545 14.256C6.91545 14.249 6.90715 14.2373 6.897 14.23C6.88685 14.2226 6.87855 14.2102 6.87855 14.2023C6.87855 14.1944 6.87024 14.1819 6.86009 14.1746C6.84995 14.1673 6.84164 14.1539 6.84164 14.1448C6.84164 14.1358 6.83749 14.1284 6.83242 14.1284C6.82734 14.1284 6.82319 14.121 6.82319 14.112C6.82319 14.103 6.81489 14.0896 6.80474 14.0823C6.79459 14.075 6.78629 14.0616 6.78629 14.0525C6.78629 14.0435 6.78214 14.0361 6.77706 14.0361C6.77199 14.0361 6.76784 14.0287 6.76784 14.0197C6.76784 14.0107 6.75953 13.9973 6.74938 13.99C6.73924 13.9827 6.73093 13.9693 6.73093 13.9602C6.73093 13.9512 6.72678 13.9438 6.72171 13.9438C6.71663 13.9438 6.71248 13.9355 6.71248 13.9254C6.71248 13.9152 6.70833 13.9069 6.70325 13.9069C6.69818 13.9069 6.69403 13.8986 6.69403 13.8884C6.69403 13.8783 6.68988 13.87 6.6848 13.87C6.67973 13.87 6.67558 13.8617 6.67558 13.8515C6.67558 13.8414 6.67142 13.8331 6.66635 13.8331C6.66128 13.8331 6.65712 13.8248 6.65712 13.8146C6.65712 13.8045 6.65297 13.7961 6.6479 13.7961C6.64282 13.7961 6.63867 13.7878 6.63867 13.7777C6.63867 13.7675 6.63452 13.7592 6.62945 13.7592C6.62437 13.7592 6.62022 13.7509 6.62022 13.7408C6.62022 13.7306 6.61607 13.7223 6.61099 13.7223C6.60592 13.7223 6.60177 13.714 6.60177 13.7038C6.60177 13.6937 6.59762 13.6854 6.59254 13.6854C6.58747 13.6854 6.58332 13.6771 6.58332 13.6669C6.58332 13.6568 6.57916 13.6485 6.57409 13.6485C6.56902 13.6485 6.56486 13.6402 6.56486 13.63C6.56486 13.6199 6.56071 13.6116 6.55564 13.6116C6.55056 13.6116 6.54641 13.5991 6.54641 13.5839C6.54641 13.5686 6.54226 13.5562 6.53719 13.5562C6.53211 13.5562 6.52796 13.5479 6.52796 13.5377C6.52796 13.5276 6.52381 13.5193 6.51873 13.5193C6.51366 13.5193 6.50951 13.5068 6.50951 13.4916C6.50951 13.4763 6.50536 13.4639 6.50028 13.4639C6.49521 13.4639 6.49106 13.4556 6.49106 13.4454C6.49106 13.4353 6.48691 13.427 6.48183 13.427C6.47676 13.427 6.47261 13.4145 6.47261 13.3993C6.47261 13.384 6.46845 13.3716 6.46338 13.3716C6.4583 13.3716 6.45415 13.3591 6.45415 13.3439C6.45415 13.3287 6.45 13.3162 6.44493 13.3162C6.43985 13.3162 6.4357 13.3037 6.4357 13.2885C6.4357 13.2733 6.43155 13.2608 6.42648 13.2608C6.4214 13.2608 6.41725 13.2484 6.41725 13.2331C6.41725 13.2179 6.4131 13.2054 6.40802 13.2054C6.40295 13.2054 6.3988 13.193 6.3988 13.1777C6.3988 13.1625 6.39465 13.1501 6.38957 13.1501C6.3845 13.1501 6.38035 13.1334 6.38035 13.1131C6.38035 13.0928 6.37619 13.0762 6.37112 13.0762C6.36605 13.0762 6.36189 13.0596 6.36189 13.0393C6.36189 13.019 6.35774 13.0024 6.35267 13.0024C6.34759 13.0024 6.34344 12.9858 6.34344 12.9655C6.34344 12.9451 6.33929 12.9285 6.33422 12.9285C6.32914 12.9285 6.32499 12.9119 6.32499 12.8916C6.32499 12.8713 6.32084 12.8547 6.31576 12.8547C6.31069 12.8547 6.30654 12.8339 6.30654 12.8085C6.30654 12.7832 6.30239 12.7624 6.29731 12.7624C6.29218 12.7624 6.28809 12.7378 6.28809 12.707C6.28809 12.6763 6.28399 12.6516 6.27886 12.6516C6.27348 12.6516 6.26963 12.6209 6.26963 12.5778C6.26963 12.5347 6.26579 12.504 6.26041 12.504C6.25477 12.504 6.25118 12.4609 6.25118 12.3932C6.25118 12.3255 6.24759 12.2824 6.24196 12.2824C6.23606 12.2824 6.23273 12.2024 6.23273 12.0609C6.23273 11.9194 6.23606 11.8394 6.24196 11.8394C6.24759 11.8394 6.25118 11.7963 6.25118 11.7286C6.25118 11.661 6.25477 11.6179 6.26041 11.6179C6.26579 11.6179 6.26963 11.5871 6.26963 11.544C6.26963 11.501 6.27348 11.4702 6.27886 11.4702C6.28399 11.4702 6.28809 11.4456 6.28809 11.4148C6.28809 11.3841 6.29218 11.3594 6.29731 11.3594C6.30239 11.3594 6.30654 11.3387 6.30654 11.3133C6.30654 11.2879 6.31069 11.2671 6.31576 11.2671C6.32084 11.2671 6.32499 11.2505 6.32499 11.2302C6.32499 11.2099 6.32914 11.1933 6.33422 11.1933C6.33929 11.1933 6.34344 11.1767 6.34344 11.1564C6.34344 11.1361 6.34759 11.1195 6.35267 11.1195C6.35774 11.1195 6.36189 11.1028 6.36189 11.0825C6.36189 11.0622 6.36605 11.0456 6.37112 11.0456C6.37619 11.0456 6.38035 11.029 6.38035 11.0087C6.38035 10.9884 6.3845 10.9718 6.38957 10.9718C6.39465 10.9718 6.3988 10.9593 6.3988 10.9441C6.3988 10.9289 6.40295 10.9164 6.40802 10.9164C6.4131 10.9164 6.41725 10.9039 6.41725 10.8887C6.41725 10.8735 6.4214 10.861 6.42648 10.861C6.43155 10.861 6.4357 10.8486 6.4357 10.8333C6.4357 10.8181 6.43985 10.8056 6.44493 10.8056C6.45 10.8056 6.45415 10.7932 6.45415 10.778C6.45415 10.7627 6.4583 10.7503 6.46338 10.7503C6.46845 10.7503 6.47261 10.7378 6.47261 10.7226C6.47261 10.7073 6.47676 10.6949 6.48183 10.6949C6.48691 10.6949 6.49106 10.6866 6.49106 10.6764C6.49106 10.6663 6.49521 10.658 6.50028 10.658C6.50536 10.658 6.50951 10.6455 6.50951 10.6303C6.50951 10.615 6.51366 10.6026 6.51873 10.6026C6.52381 10.6026 6.52796 10.5943 6.52796 10.5841C6.52796 10.574 6.53211 10.5657 6.53719 10.5657C6.54226 10.5657 6.54641 10.5532 6.54641 10.538C6.54641 10.5227 6.55056 10.5103 6.55564 10.5103C6.56071 10.5103 6.56486 10.502 6.56486 10.4918C6.56486 10.4817 6.56902 10.4734 6.57409 10.4734C6.57916 10.4734 6.58332 10.4651 6.58332 10.4549C6.58332 10.4448 6.58747 10.4364 6.59254 10.4364C6.59762 10.4364 6.60177 10.4281 6.60177 10.418C6.60177 10.4078 6.60592 10.3995 6.61099 10.3995C6.61607 10.3995 6.62022 10.3912 6.62022 10.3811C6.62022 10.3709 6.62437 10.3626 6.62945 10.3626C6.63452 10.3626 6.63867 10.3543 6.63867 10.3441C6.63867 10.334 6.64282 10.3257 6.6479 10.3257C6.65297 10.3257 6.65712 10.3174 6.65712 10.3072C6.65712 10.2971 6.66128 10.2888 6.66635 10.2888C6.67142 10.2888 6.67558 10.2805 6.67558 10.2703C6.67558 10.2602 6.67973 10.2518 6.6848 10.2518C6.68988 10.2518 6.69403 10.2435 6.69403 10.2334C6.69403 10.2232 6.69818 10.2149 6.70325 10.2149C6.70833 10.2149 6.71248 10.2066 6.71248 10.1965C6.71248 10.1863 6.71663 10.178 6.72171 10.178C6.72678 10.178 6.73093 10.1706 6.73093 10.1616C6.73093 10.1526 6.73924 10.1392 6.74938 10.1319C6.75953 10.1245 6.76784 10.1112 6.76784 10.1021C6.76784 10.0931 6.77199 10.0857 6.77706 10.0857C6.78214 10.0857 6.78629 10.0783 6.78629 10.0693C6.78629 10.0603 6.79459 10.0469 6.80474 10.0396C6.81489 10.0322 6.82319 10.0189 6.82319 10.0098C6.82319 10.0008 6.82734 9.99341 6.83242 9.99341C6.83749 9.99341 6.84164 9.98601 6.84164 9.97699C6.84164 9.96795 6.84995 9.95458 6.86009 9.94726C6.87024 9.93994 6.87855 9.92845 6.87855 9.92173C6.87855 9.90995 6.91857 9.86419 6.92887 9.86419C6.93164 9.86419 6.9339 9.88911 6.9339 9.91957C6.9339 9.95033 6.938 9.97495 6.94313 9.97495C6.94826 9.97495 6.95235 9.99956 6.95235 10.0303C6.95235 10.0611 6.95645 10.0857 6.96158 10.0857C6.96671 10.0857 6.97081 10.1103 6.97081 10.1411C6.97081 10.1718 6.9749 10.1965 6.98003 10.1965C6.98516 10.1965 6.98926 10.2211 6.98926 10.2518C6.98926 10.2826 6.99335 10.3072 6.99848 10.3072C7.00361 10.3072 7.00771 10.3318 7.00771 10.3626C7.00771 10.3934 7.01181 10.418 7.01694 10.418C7.02201 10.418 7.02616 10.4388 7.02616 10.4641C7.02616 10.4895 7.03031 10.5103 7.03539 10.5103C7.04052 10.5103 7.04461 10.5349 7.04461 10.5657C7.04461 10.5964 7.04871 10.621 7.05384 10.621C7.05897 10.621 7.06307 10.6457 7.06307 10.6764C7.06307 10.7072 7.06716 10.7318 7.07229 10.7318C7.07742 10.7318 7.08152 10.7564 7.08152 10.7872C7.08152 10.8179 7.08561 10.8426 7.09074 10.8426C7.09587 10.8426 7.09997 10.8672 7.09997 10.8979C7.09997 10.9287 7.10407 10.9533 7.1092 10.9533C7.11433 10.9533 7.11842 10.9779 7.11842 11.0087C7.11842 11.0395 7.12252 11.0641 7.12765 11.0641C7.13278 11.0641 7.13687 11.0887 7.13687 11.1195C7.13687 11.1502 7.14097 11.1748 7.1461 11.1748C7.15123 11.1748 7.15533 11.1995 7.15533 11.2302C7.15533 11.261 7.15942 11.2856 7.16455 11.2856C7.16963 11.2856 7.17378 11.3064 7.17378 11.3318C7.17378 11.3571 7.17793 11.3779 7.183 11.3779C7.18808 11.3779 7.19223 11.3904 7.19223 11.4056C7.19223 11.4208 7.18808 11.4333 7.183 11.4333C7.17787 11.4333 7.17378 11.4579 7.17378 11.4887C7.17378 11.5194 7.16968 11.544 7.16455 11.544C7.15942 11.544 7.15533 11.5687 7.15533 11.5994C7.15533 11.6302 7.15123 11.6548 7.1461 11.6548C7.14063 11.6548 7.13687 11.6886 7.13687 11.7379C7.13687 11.7871 7.13312 11.8209 7.12765 11.8209C7.12173 11.8209 7.11842 11.9071 7.11842 12.0609C7.11842 12.2148 7.12173 12.3009 7.12765 12.3009C7.13312 12.3009 7.13687 12.3347 7.13687 12.384C7.13687 12.4332 7.14063 12.467 7.1461 12.467C7.15123 12.467 7.15533 12.4917 7.15533 12.5224C7.15533 12.5532 7.15942 12.5778 7.16455 12.5778C7.16968 12.5778 7.17378 12.6024 7.17378 12.6332C7.17378 12.6639 7.17787 12.6886 7.183 12.6886C7.18808 12.6886 7.19223 12.7052 7.19223 12.7255C7.19223 12.7458 7.19638 12.7624 7.20146 12.7624C7.20653 12.7624 7.21068 12.779 7.21068 12.7993C7.21068 12.8196 7.21483 12.8362 7.21991 12.8362C7.22498 12.8362 7.22913 12.8487 7.22913 12.8639C7.22913 12.8792 7.23328 12.8916 7.23836 12.8916C7.24343 12.8916 7.24758 12.9082 7.24758 12.9285C7.24758 12.9488 7.25174 12.9655 7.25681 12.9655C7.26189 12.9655 7.26604 12.9779 7.26604 12.9931C7.26604 13.0084 7.27019 13.0208 7.27526 13.0208C7.28034 13.0208 7.28449 13.0333 7.28449 13.0485C7.28449 13.0638 7.28864 13.0762 7.29371 13.0762C7.29879 13.0762 7.30294 13.0845 7.30294 13.0947C7.30294 13.1048 7.30709 13.1131 7.31217 13.1131C7.31724 13.1131 7.32139 13.1256 7.32139 13.1408C7.32139 13.1561 7.32554 13.1685 7.33062 13.1685C7.33569 13.1685 7.33984 13.1768 7.33984 13.187C7.33984 13.1971 7.344 13.2054 7.34907 13.2054C7.35414 13.2054 7.3583 13.2179 7.3583 13.2331C7.3583 13.2484 7.36245 13.2608 7.36752 13.2608C7.3726 13.2608 7.37675 13.2691 7.37675 13.2793C7.37675 13.2894 7.3809 13.2977 7.38597 13.2977C7.39105 13.2977 7.3952 13.306 7.3952 13.3162C7.3952 13.3263 7.39935 13.3347 7.40443 13.3347C7.4095 13.3347 7.41365 13.343 7.41365 13.3531C7.41365 13.3633 7.4178 13.3716 7.42288 13.3716C7.42795 13.3716 7.4321 13.3799 7.4321 13.39C7.4321 13.4002 7.43626 13.4085 7.44133 13.4085C7.4464 13.4085 7.45056 13.4168 7.45056 13.427C7.45056 13.4371 7.45471 13.4454 7.45978 13.4454C7.46486 13.4454 7.46901 13.4537 7.46901 13.4639C7.46901 13.474 7.47316 13.4823 7.47823 13.4823C7.48331 13.4823 7.48746 13.4906 7.48746 13.5008C7.48746 13.5109 7.49161 13.5193 7.49669 13.5193C7.50176 13.5193 7.50591 13.5266 7.50591 13.5357C7.50591 13.5447 7.51421 13.5581 7.52436 13.5654C7.53451 13.5727 7.54282 13.5861 7.54282 13.5951C7.54282 13.6042 7.54697 13.6116 7.55204 13.6116C7.55712 13.6116 7.56127 13.6189 7.56127 13.628C7.56127 13.637 7.56957 13.6504 7.57972 13.6577C7.58987 13.665 7.59817 13.6775 7.59817 13.6854C7.59817 13.6933 7.60647 13.7058 7.61662 13.7131C7.62677 13.7204 7.63507 13.7329 7.63507 13.7408C7.63507 13.7487 7.64338 13.7611 7.65353 13.7685C7.66368 13.7758 7.67198 13.7875 7.67198 13.7945C7.67198 13.8015 7.68443 13.8188 7.69966 13.8331C7.71488 13.8473 7.72733 13.8638 7.72733 13.8698C7.72733 13.8758 7.74394 13.8966 7.76424 13.9161C7.78454 13.9357 7.80114 13.9563 7.80114 13.962C7.80114 13.9677 7.8302 14.0011 7.86572 14.0361C7.90124 14.0712 7.93031 14.1043 7.93031 14.1097C7.93031 14.1225 8.06541 14.2576 8.07822 14.2576C8.08362 14.2576 8.1167 14.2867 8.15173 14.3223C8.18676 14.3578 8.22009 14.3869 8.22581 14.3869C8.23153 14.3869 8.25216 14.4035 8.27167 14.4238C8.29117 14.4441 8.31276 14.4607 8.31965 14.4607C8.32654 14.4607 8.33816 14.469 8.34547 14.4792C8.35279 14.4893 8.3645 14.4976 8.37149 14.4976C8.37847 14.4976 8.39584 14.5101 8.41005 14.5253C8.42427 14.5405 8.44163 14.553 8.44862 14.553C8.45561 14.553 8.46732 14.5613 8.47464 14.5715C8.48195 14.5816 8.49532 14.5899 8.50435 14.5899C8.51338 14.5899 8.52077 14.5941 8.52077 14.5992C8.52077 14.6042 8.52816 14.6084 8.53718 14.6084C8.54621 14.6084 8.55958 14.6167 8.5669 14.6268C8.57421 14.637 8.58758 14.6453 8.59661 14.6453C8.60564 14.6453 8.61303 14.6495 8.61303 14.6545C8.61303 14.6596 8.62042 14.6638 8.62944 14.6638C8.63847 14.6638 8.65184 14.6721 8.65916 14.6822C8.66647 14.6924 8.67984 14.7007 8.68887 14.7007C8.6979 14.7007 8.70528 14.7048 8.70528 14.7099C8.70528 14.715 8.71359 14.7191 8.72374 14.7191C8.73389 14.7191 8.74219 14.7233 8.74219 14.7284C8.74219 14.7335 8.75049 14.7376 8.76064 14.7376C8.77079 14.7376 8.77909 14.7418 8.77909 14.7468C8.77909 14.7519 8.7874 14.7561 8.79754 14.7561C8.80769 14.7561 8.816 14.7602 8.816 14.7653C8.816 14.7704 8.8243 14.7745 8.83445 14.7745C8.8446 14.7745 8.8529 14.7787 8.8529 14.7838C8.8529 14.7888 8.86536 14.793 8.88058 14.793C8.8958 14.793 8.90826 14.7971 8.90826 14.8022C8.90826 14.8073 8.91656 14.8114 8.92671 14.8114C8.93686 14.8114 8.94516 14.8156 8.94516 14.8207C8.94516 14.8258 8.95346 14.8299 8.96361 14.8299C8.97376 14.8299 8.98206 14.8341 8.98206 14.8391C8.98206 14.8442 8.99452 14.8484 9.00974 14.8484C9.02496 14.8484 9.03742 14.8525 9.03742 14.8576C9.03742 14.8627 9.04572 14.8668 9.05587 14.8668C9.06602 14.8668 9.07432 14.871 9.07432 14.8761C9.07432 14.8811 9.08678 14.8853 9.102 14.8853C9.11722 14.8853 9.12968 14.8894 9.12968 14.8945C9.12968 14.8996 9.14213 14.9037 9.15736 14.9037C9.17258 14.9037 9.18503 14.9079 9.18503 14.913C9.18503 14.9181 9.19749 14.9222 9.21271 14.9222C9.22793 14.9222 9.24039 14.9264 9.24039 14.9314C9.24039 14.9365 9.257 14.9407 9.27729 14.9407C9.29759 14.9407 9.3142 14.9448 9.3142 14.9499C9.3142 14.955 9.32665 14.9591 9.34188 14.9591C9.3571 14.9591 9.36955 14.9633 9.36955 14.9684C9.36955 14.9734 9.39031 14.9776 9.41568 14.9776C9.44105 14.9776 9.46181 14.9817 9.46181 14.9868C9.46181 14.9919 9.47842 14.996 9.49872 14.996C9.51901 14.996 9.53562 15.0002 9.53562 15.0053C9.53562 15.0104 9.56023 15.0145 9.59098 15.0145C9.62173 15.0145 9.64633 15.0186 9.64633 15.0237C9.64633 15.029 9.67401 15.033 9.71091 15.033C9.74782 15.033 9.7755 15.0369 9.7755 15.0422C9.7755 15.048 9.83392 15.0514 9.93234 15.0514C10.0307 15.0514 10.0892 15.0549 10.0892 15.0607C10.0892 15.0657 10.1016 15.0699 10.1169 15.0699C10.1321 15.0699 10.1445 15.0657 10.1445 15.0607C10.1445 15.0549 10.203 15.0514 10.3014 15.0514C10.3998 15.0514 10.4582 15.048 10.4582 15.0422C10.4582 15.0369 10.4859 15.033 10.5228 15.033C10.5597 15.033 10.5874 15.029 10.5874 15.0237C10.5874 15.0186 10.612 15.0145 10.6427 15.0145C10.6735 15.0145 10.6981 15.0104 10.6981 15.0053C10.6981 15.0002 10.7188 14.996 10.7442 14.996C10.7696 14.996 10.7903 14.9919 10.7903 14.9868C10.7903 14.9817 10.807 14.9776 10.8273 14.9776C10.8476 14.9776 10.8642 14.9734 10.8642 14.9684C10.8642 14.9633 10.8766 14.9591 10.8918 14.9591C10.9071 14.9591 10.9195 14.955 10.9195 14.9499C10.9195 14.9448 10.9361 14.9407 10.9564 14.9407C10.9767 14.9407 10.9933 14.9365 10.9933 14.9314C10.9933 14.9264 11.0058 14.9222 11.021 14.9222C11.0362 14.9222 11.0487 14.9181 11.0487 14.913C11.0487 14.9079 11.0611 14.9037 11.0764 14.9037C11.0916 14.9037 11.104 14.8996 11.104 14.8945C11.104 14.8894 11.1165 14.8853 11.1317 14.8853C11.1469 14.8853 11.1594 14.8811 11.1594 14.8761C11.1594 14.871 11.1677 14.8668 11.1778 14.8668C11.188 14.8668 11.1963 14.8627 11.1963 14.8576C11.1963 14.8525 11.2087 14.8484 11.224 14.8484C11.2392 14.8484 11.2516 14.8442 11.2516 14.8391C11.2516 14.8341 11.26 14.8299 11.2701 14.8299C11.2802 14.8299 11.2886 14.8258 11.2886 14.8207C11.2886 14.8156 11.301 14.8114 11.3162 14.8114C11.3315 14.8114 11.3439 14.8073 11.3439 14.8022C11.3439 14.7971 11.3522 14.793 11.3624 14.793C11.3725 14.793 11.3808 14.7888 11.3808 14.7838C11.3808 14.7787 11.3891 14.7745 11.3993 14.7745C11.4094 14.7745 11.4177 14.7704 11.4177 14.7653C11.4177 14.7602 11.426 14.7561 11.4362 14.7561C11.4463 14.7561 11.4546 14.7519 11.4546 14.7468C11.4546 14.7418 11.4629 14.7376 11.4731 14.7376C11.4832 14.7376 11.4915 14.7335 11.4915 14.7284C11.4915 14.7233 11.4998 14.7191 11.51 14.7191C11.5201 14.7191 11.5284 14.715 11.5284 14.7099C11.5284 14.7048 11.5358 14.7007 11.5448 14.7007C11.5539 14.7007 11.5672 14.6924 11.5746 14.6822C11.5819 14.6721 11.5952 14.6638 11.6043 14.6638C11.6133 14.6638 11.6207 14.6596 11.6207 14.6545C11.6207 14.6495 11.629 14.6453 11.6391 14.6453C11.6493 14.6453 11.6576 14.6412 11.6576 14.6361C11.6576 14.631 11.665 14.6268 11.674 14.6268C11.683 14.6268 11.6964 14.6185 11.7037 14.6084C11.711 14.5982 11.7235 14.5899 11.7314 14.5899C11.7393 14.5899 11.7518 14.5816 11.7591 14.5715C11.7664 14.5613 11.7788 14.553 11.7868 14.553C11.7947 14.553 11.8071 14.5447 11.8144 14.5345C11.8217 14.5244 11.8335 14.5161 11.8404 14.5161C11.8474 14.5161 11.8648 14.5036 11.879 14.4884C11.8932 14.4732 11.9098 14.4607 11.9157 14.4607C11.9217 14.4607 11.9425 14.4441 11.962 14.4238C11.9815 14.4035 12.0023 14.3869 12.0081 14.3869C12.0138 14.3869 12.0388 14.3661 12.0635 14.3407C12.0882 14.3153 12.1129 14.2946 12.1184 14.2946C12.1313 14.2946 12.3403 14.0855 12.3403 14.0726C12.3403 14.0672 12.3652 14.0383 12.3957 14.0084C12.4261 13.9785 12.451 13.9494 12.451 13.9436C12.451 13.9379 12.4676 13.9172 12.4879 13.8977C12.5082 13.8782 12.5248 13.8566 12.5248 13.8497C12.5248 13.8428 12.5331 13.8312 12.5433 13.8238C12.5534 13.8165 12.5617 13.8048 12.5617 13.7978C12.5617 13.7908 12.5742 13.7735 12.5894 13.7592C12.6046 13.745 12.6171 13.7276 12.6171 13.7206C12.6171 13.7137 12.6254 13.7019 12.6355 13.6946C12.6457 13.6873 12.654 13.6739 12.654 13.6649C12.654 13.6559 12.6581 13.6485 12.6632 13.6485C12.6683 13.6485 12.6724 13.6411 12.6724 13.632C12.6724 13.623 12.6807 13.6096 12.6909 13.6023C12.701 13.595 12.7093 13.5816 12.7093 13.5726C12.7093 13.5636 12.7135 13.5562 12.7186 13.5562C12.7236 13.5562 12.7278 13.5479 12.7278 13.5377C12.7278 13.5276 12.732 13.5193 12.737 13.5193C12.7421 13.5193 12.7463 13.5109 12.7463 13.5008C12.7463 13.4906 12.7504 13.4823 12.7555 13.4823C12.7606 13.4823 12.7647 13.4749 12.7647 13.4659C12.7647 13.4569 12.773 13.4435 12.7832 13.4362C12.7933 13.4289 12.8016 13.4155 12.8016 13.4065C12.8016 13.3974 12.8058 13.39 12.8108 13.39C12.8159 13.39 12.8201 13.3817 12.8201 13.3716C12.8201 13.3614 12.8242 13.3531 12.8293 13.3531C12.8344 13.3531 12.8385 13.3407 12.8385 13.3254C12.8385 13.3102 12.8427 13.2977 12.8477 13.2977C12.8528 13.2977 12.857 13.2894 12.857 13.2793C12.857 13.2691 12.8611 13.2608 12.8662 13.2608C12.8713 13.2608 12.8754 13.2525 12.8754 13.2424C12.8754 13.2322 12.8796 13.2239 12.8846 13.2239C12.8897 13.2239 12.8939 13.2114 12.8939 13.1962C12.8939 13.181 12.898 13.1685 12.9031 13.1685C12.9082 13.1685 12.9123 13.1602 12.9123 13.1501C12.9123 13.1399 12.9165 13.1316 12.9215 13.1316C12.9266 13.1316 12.9308 13.1191 12.9308 13.1039C12.9308 13.0887 12.9349 13.0762 12.94 13.0762C12.9451 13.0762 12.9492 13.0638 12.9492 13.0485C12.9492 13.0333 12.9534 13.0208 12.9584 13.0208C12.9635 13.0208 12.9677 13.0084 12.9677 12.9931C12.9677 12.9779 12.9718 12.9655 12.9769 12.9655C12.982 12.9655 12.9861 12.953 12.9861 12.9378C12.9861 12.9225 12.9903 12.9101 12.9954 12.9101C13.0004 12.9101 13.0046 12.8935 13.0046 12.8732C13.0046 12.8528 13.0087 12.8362 13.0138 12.8362C13.0189 12.8362 13.023 12.8238 13.023 12.8085C13.023 12.7933 13.0272 12.7809 13.0323 12.7809C13.0373 12.7809 13.0415 12.7601 13.0415 12.7347C13.0415 12.7093 13.0456 12.6886 13.0507 12.6886C13.0558 12.6886 13.0599 12.6678 13.0599 12.6424C13.0599 12.617 13.0641 12.5963 13.0692 12.5963C13.0743 12.5963 13.0784 12.5716 13.0784 12.5409C13.0784 12.5101 13.0825 12.4855 13.0876 12.4855C13.093 12.4855 13.0968 12.4547 13.0968 12.4117C13.0968 12.3686 13.1007 12.3378 13.1061 12.3378C13.112 12.3378 13.1153 12.2394 13.1153 12.0609C13.1153 11.8825 13.112 11.784 13.1061 11.784C13.1007 11.784 13.0968 11.7533 13.0968 11.7102C13.0968 11.6671 13.093 11.6363 13.0876 11.6363C13.0825 11.6363 13.0784 11.6117 13.0784 11.581C13.0784 11.5502 13.0743 11.5256 13.0692 11.5256C13.0641 11.5256 13.0599 11.5048 13.0599 11.4794C13.0599 11.454 13.0558 11.4333 13.0507 11.4333C13.0456 11.4333 13.0415 11.4125 13.0415 11.3871C13.0415 11.3617 13.0373 11.341 13.0323 11.341C13.0272 11.341 13.023 11.3244 13.023 11.3041C13.023 11.2838 13.0189 11.2671 13.0138 11.2671C13.0087 11.2671 13.0046 11.2547 13.0046 11.2395C13.0046 11.2242 13.0004 11.2118 12.9954 11.2118C12.9903 11.2118 12.9861 11.1993 12.9861 11.1841C12.9861 11.1688 12.982 11.1564 12.9769 11.1564C12.9718 11.1564 12.9677 11.1439 12.9677 11.1287C12.9677 11.1135 12.9635 11.101 12.9584 11.101C12.9534 11.101 12.9492 11.0885 12.9492 11.0733C12.9492 11.0581 12.9451 11.0456 12.94 11.0456C12.9349 11.0456 12.9308 11.0332 12.9308 11.0179C12.9308 11.0027 12.9266 10.9902 12.9215 10.9902C12.9165 10.9902 12.9123 10.9778 12.9123 10.9626C12.9123 10.9473 12.9082 10.9349 12.9031 10.9349C12.898 10.9349 12.8939 10.9266 12.8939 10.9164C12.8939 10.9062 12.8897 10.8979 12.8846 10.8979C12.8796 10.8979 12.8754 10.8896 12.8754 10.8795C12.8754 10.8693 12.8713 10.861 12.8662 10.861C12.8611 10.861 12.857 10.8486 12.857 10.8333C12.857 10.8181 12.8528 10.8056 12.8477 10.8056C12.8427 10.8056 12.8385 10.7973 12.8385 10.7872C12.8385 10.777 12.8344 10.7687 12.8293 10.7687C12.8242 10.7687 12.8201 10.7604 12.8201 10.7503C12.8201 10.7401 12.8159 10.7318 12.8108 10.7318C12.8058 10.7318 12.8016 10.7235 12.8016 10.7133C12.8016 10.7032 12.7975 10.6949 12.7924 10.6949C12.7873 10.6949 12.7832 10.6866 12.7832 10.6764C12.7832 10.6663 12.779 10.658 12.7739 10.658C12.7689 10.658 12.7647 10.6506 12.7647 10.6415C12.7647 10.6325 12.7564 10.6191 12.7463 10.6118C12.7361 10.6045 12.7278 10.5911 12.7278 10.5821C12.7278 10.5731 12.7236 10.5657 12.7186 10.5657C12.7135 10.5657 12.7093 10.5583 12.7093 10.5492C12.7093 10.5402 12.701 10.5268 12.6909 10.5195C12.6807 10.5122 12.6724 10.4988 12.6724 10.4898C12.6724 10.4808 12.6683 10.4734 12.6632 10.4734C12.6581 10.4734 12.654 10.466 12.654 10.4569C12.654 10.4479 12.6457 10.4345 12.6355 10.4272C12.6254 10.4199 12.6171 10.4074 12.6171 10.3995C12.6171 10.3916 12.6088 10.3792 12.5986 10.3718C12.5885 10.3645 12.5802 10.3528 12.5802 10.3458C12.5802 10.3388 12.5677 10.3214 12.5525 10.3072C12.5373 10.293 12.5248 10.2764 12.5248 10.2703C12.5248 10.2642 12.5124 10.2476 12.4972 10.2334C12.4819 10.2192 12.4695 10.2027 12.4695 10.1969C12.4695 10.191 12.4446 10.1618 12.4141 10.1319C12.3837 10.102 12.3588 10.0731 12.3588 10.0677C12.3588 10.0548 12.1128 9.80881 12.0999 9.80881C12.0945 9.80881 12.0698 9.78804 12.0451 9.76266C12.0204 9.73728 11.9954 9.71651 11.9896 9.71651C11.9838 9.71651 11.9631 9.69989 11.9436 9.67959C11.9241 9.65928 11.9025 9.64267 11.8956 9.64267C11.8887 9.64267 11.8771 9.63436 11.8698 9.62421C11.8625 9.61406 11.85 9.60575 11.8421 9.60575C11.8342 9.60575 11.8217 9.59744 11.8144 9.58729C11.8071 9.57714 11.7947 9.56883 11.7868 9.56883C11.7788 9.56883 11.7664 9.56052 11.7591 9.55037C11.7518 9.54022 11.7393 9.53191 11.7314 9.53191C11.7235 9.53191 11.711 9.5236 11.7037 9.51345C11.6964 9.5033 11.683 9.49499 11.674 9.49499C11.665 9.49499 11.6576 9.49084 11.6576 9.48576C11.6576 9.48068 11.6502 9.47653 11.6412 9.47653C11.6321 9.47653 11.6188 9.46822 11.6115 9.45807C11.6041 9.44792 11.5908 9.43961 11.5817 9.43961C11.5727 9.43961 11.5653 9.43546 11.5653 9.43038C11.5653 9.4253 11.557 9.42115 11.5469 9.42115C11.5367 9.42115 11.5284 9.417 11.5284 9.41192C11.5284 9.40684 11.5201 9.40269 11.51 9.40269C11.4998 9.40269 11.4915 9.39854 11.4915 9.39346C11.4915 9.38838 11.4832 9.38423 11.4731 9.38423C11.4629 9.38423 11.4546 9.38008 11.4546 9.375C11.4546 9.36992 11.4463 9.36577 11.4362 9.36577C11.426 9.36577 11.4177 9.36162 11.4177 9.35654C11.4177 9.35146 11.4094 9.34731 11.3993 9.34731C11.3891 9.34731 11.3808 9.34316 11.3808 9.33808C11.3808 9.333 11.3725 9.32885 11.3624 9.32885C11.3522 9.32885 11.3439 9.3247 11.3439 9.31962C11.3439 9.31454 11.3356 9.31039 11.3255 9.31039C11.3153 9.31039 11.307 9.30624 11.307 9.30116C11.307 9.29608 11.2945 9.29193 11.2793 9.29193C11.2641 9.29193 11.2516 9.28778 11.2516 9.2827C11.2516 9.27762 11.2433 9.27347 11.2332 9.27347C11.223 9.27347 11.2147 9.26932 11.2147 9.26424C11.2147 9.25916 11.2023 9.25501 11.1871 9.25501C11.1718 9.25501 11.1594 9.25086 11.1594 9.24578C11.1594 9.2407 11.1469 9.23655 11.1317 9.23655C11.1165 9.23655 11.104 9.2324 11.104 9.22732C11.104 9.22224 11.0916 9.21809 11.0764 9.21809C11.0611 9.21809 11.0487 9.21394 11.0487 9.20886C11.0487 9.20378 11.0362 9.19963 11.021 9.19963C11.0058 9.19963 10.9933 9.19548 10.9933 9.1904C10.9933 9.18532 10.9809 9.18117 10.9656 9.18117C10.9504 9.18117 10.938 9.17702 10.938 9.17194C10.938 9.16686 10.9214 9.16271 10.9011 9.16271C10.8808 9.16271 10.8642 9.15856 10.8642 9.15348C10.8642 9.1484 10.8476 9.14425 10.8273 9.14425C10.807 9.14425 10.7903 9.1401 10.7903 9.13502C10.7903 9.12994 10.7737 9.12579 10.7534 9.12579C10.7331 9.12579 10.7165 9.12164 10.7165 9.11656C10.7165 9.11143 10.6919 9.10733 10.6612 9.10733C10.6304 9.10733 10.6058 9.10323 10.6058 9.0981C10.6058 9.09283 10.5782 9.08887 10.5412 9.08887C10.5043 9.08887 10.4767 9.08491 10.4767 9.07964C10.4767 9.074 10.4336 9.07041 10.366 9.07041C10.2983 9.07041 10.2552 9.06682 10.2552 9.06118C10.2552 9.05547 10.206 9.05195 10.1261 9.05195C10.0461 9.05195 9.99692 9.05547 9.99692 9.06118C9.99692 9.06686 9.95079 9.07041 9.87698 9.07041C9.80317 9.07041 9.75704 9.07397 9.75704 9.07964C9.75704 9.08491 9.72937 9.08887 9.69246 9.08887C9.65556 9.08887 9.62788 9.09283 9.62788 9.0981C9.62788 9.10318 9.60712 9.10733 9.58175 9.10733C9.55638 9.10733 9.53562 9.11148 9.53562 9.11656C9.53562 9.12164 9.51486 9.12579 9.48949 9.12579C9.46412 9.12579 9.44336 9.12994 9.44336 9.13502C9.44336 9.1401 9.42675 9.14425 9.40646 9.14425C9.38616 9.14425 9.36955 9.1484 9.36955 9.15348C9.36955 9.15856 9.35295 9.16271 9.33265 9.16271C9.31235 9.16271 9.29575 9.16686 9.29575 9.17194C9.29575 9.17702 9.28329 9.18117 9.26807 9.18117C9.25285 9.18117 9.24039 9.18532 9.24039 9.1904C9.24039 9.19548 9.22793 9.19963 9.21271 9.19963C9.19749 9.19963 9.18503 9.20378 9.18503 9.20886C9.18503 9.21394 9.17258 9.21809 9.15736 9.21809C9.14213 9.21809 9.12968 9.22224 9.12968 9.22732C9.12968 9.2324 9.11722 9.23655 9.102 9.23655C9.08678 9.23655 9.07432 9.2407 9.07432 9.24578C9.07432 9.25086 9.06187 9.25501 9.04665 9.25501C9.03142 9.25501 9.01897 9.25916 9.01897 9.26424C9.01897 9.26932 9.01066 9.27347 9.00052 9.27347C8.99037 9.27347 8.98206 9.27762 8.98206 9.2827C8.98206 9.28778 8.97376 9.29193 8.96361 9.29193C8.95346 9.29193 8.94516 9.29608 8.94516 9.30116C8.94516 9.30624 8.9327 9.31039 8.91748 9.31039C8.90226 9.31039 8.8898 9.31454 8.8898 9.31962C8.8898 9.3247 8.8815 9.32885 8.87135 9.32885C8.8612 9.32885 8.8529 9.333 8.8529 9.33808C8.8529 9.34316 8.8446 9.34731 8.83445 9.34731C8.8243 9.34731 8.816 9.35146 8.816 9.35654C8.816 9.36162 8.80769 9.36577 8.79754 9.36577C8.7874 9.36577 8.77909 9.36992 8.77909 9.375C8.77909 9.38008 8.77079 9.38423 8.76064 9.38423C8.75049 9.38423 8.74219 9.38838 8.74219 9.39346C8.74219 9.39854 8.73389 9.40269 8.72374 9.40269C8.71359 9.40269 8.70528 9.40684 8.70528 9.41192C8.70528 9.417 8.6979 9.42115 8.68887 9.42115C8.67984 9.42115 8.66647 9.42946 8.65916 9.43961C8.65184 9.44976 8.63847 9.45807 8.62944 9.45807C8.62042 9.45807 8.61303 9.46222 8.61303 9.4673C8.61303 9.47238 8.60564 9.47653 8.59661 9.47653C8.58758 9.47653 8.57421 9.48484 8.5669 9.49499C8.55958 9.50514 8.54621 9.51345 8.53718 9.51345C8.52816 9.51345 8.52077 9.5176 8.52077 9.52268C8.52077 9.52776 8.51338 9.53191 8.50435 9.53191C8.49532 9.53191 8.48195 9.54022 8.47464 9.55037C8.46732 9.56052 8.45487 9.56883 8.44696 9.56883C8.43905 9.56883 8.4266 9.57714 8.41928 9.58729C8.41196 9.59744 8.40026 9.60575 8.39326 9.60575C8.38628 9.60575 8.36892 9.61821 8.3547 9.63344C8.34048 9.64867 8.32396 9.66113 8.31798 9.66113C8.31201 9.66113 8.29117 9.67774 8.27167 9.69805C8.25216 9.71835 8.23132 9.73497 8.22535 9.73497C8.21937 9.73497 8.20285 9.74743 8.18863 9.76266C8.17441 9.77789 8.16029 9.79035 8.15725 9.79035C8.15421 9.79035 8.15173 9.77789 8.15173 9.76266C8.15173 9.74743 8.14758 9.73497 8.1425 9.73497C8.13743 9.73497 8.13328 9.7142 8.13328 9.68882C8.13328 9.66344 8.12912 9.64267 8.12405 9.64267C8.11892 9.64267 8.11482 9.61805 8.11482 9.58729C8.11482 9.55653 8.11073 9.53191 8.1056 9.53191C8.10047 9.53191 8.09637 9.50729 8.09637 9.47653C8.09637 9.44577 8.09228 9.42115 8.08715 9.42115C8.08202 9.42115 8.07792 9.39653 8.07792 9.36577C8.07792 9.33501 8.07382 9.31039 8.06869 9.31039C8.06356 9.31039 8.05947 9.28577 8.05947 9.25501C8.05947 9.22425 8.05537 9.19963 8.05024 9.19963C8.04511 9.19963 8.04102 9.17501 8.04102 9.14425C8.04102 9.11349 8.03692 9.08887 8.03179 9.08887C8.02666 9.08887 8.02256 9.06425 8.02256 9.03349C8.02256 9.00273 8.01847 8.97811 8.01334 8.97811C8.00821 8.97811 8.00411 8.9535 8.00411 8.92273C8.00411 8.89197 8.00002 8.86735 7.99489 8.86735C7.98088 8.86735 7.98386 8.82168 7.99884 8.8067C8.00609 8.79945 8.01763 8.79351 8.02448 8.79351C8.03134 8.79351 8.04293 8.78521 8.05024 8.77505C8.05756 8.7649 8.07001 8.75659 8.07792 8.75659C8.08583 8.75659 8.09828 8.74829 8.1056 8.73813C8.11291 8.72798 8.12628 8.71967 8.13531 8.71967C8.14434 8.71967 8.15173 8.71552 8.15173 8.71044C8.15173 8.70537 8.15912 8.70121 8.16814 8.70121C8.17717 8.70121 8.19054 8.69291 8.19786 8.68275C8.20517 8.6726 8.21854 8.66429 8.22757 8.66429C8.2366 8.66429 8.24399 8.66014 8.24399 8.65506C8.24399 8.64999 8.25229 8.64583 8.26244 8.64583C8.27259 8.64583 8.28089 8.64168 8.28089 8.6366C8.28089 8.63153 8.28919 8.62737 8.29934 8.62737C8.30949 8.62737 8.31779 8.62322 8.31779 8.61814C8.31779 8.61307 8.3261 8.60891 8.33625 8.60891C8.3464 8.60891 8.3547 8.60476 8.3547 8.59968C8.3547 8.59461 8.363 8.59045 8.37315 8.59045C8.3833 8.59045 8.3916 8.5863 8.3916 8.58122C8.3916 8.57615 8.39991 8.57199 8.41005 8.57199C8.4202 8.57199 8.42851 8.56784 8.42851 8.56276C8.42851 8.55769 8.43681 8.55353 8.44696 8.55353C8.45711 8.55353 8.46541 8.54938 8.46541 8.5443C8.46541 8.53923 8.47371 8.53507 8.48386 8.53507C8.49401 8.53507 8.50231 8.53092 8.50231 8.52584C8.50231 8.52077 8.51062 8.51661 8.52077 8.51661C8.53091 8.51661 8.53922 8.51246 8.53922 8.50738C8.53922 8.50231 8.55167 8.49815 8.5669 8.49815C8.58212 8.49815 8.59457 8.494 8.59457 8.48892C8.59457 8.48385 8.60288 8.47969 8.61303 8.47969C8.62317 8.47969 8.63148 8.47554 8.63148 8.47046C8.63148 8.46539 8.64393 8.46123 8.65916 8.46123C8.67438 8.46123 8.68683 8.45708 8.68683 8.452C8.68683 8.44693 8.69514 8.44277 8.70528 8.44277C8.71543 8.44277 8.72374 8.43862 8.72374 8.43354C8.72374 8.42847 8.73619 8.42431 8.75141 8.42431C8.76664 8.42431 8.77909 8.42016 8.77909 8.41508C8.77909 8.41001 8.7874 8.40585 8.79754 8.40585C8.80769 8.40585 8.816 8.4017 8.816 8.39662C8.816 8.39155 8.82845 8.38739 8.84367 8.38739C8.8589 8.38739 8.87135 8.38324 8.87135 8.37816C8.87135 8.37309 8.88381 8.36893 8.89903 8.36893C8.91425 8.36893 8.92671 8.36478 8.92671 8.3597C8.92671 8.35463 8.94331 8.35047 8.96361 8.35047C8.98391 8.35047 9.00052 8.34632 9.00052 8.34124C9.00052 8.33617 9.01297 8.33201 9.02819 8.33201C9.04342 8.33201 9.05587 8.32786 9.05587 8.32278C9.05587 8.31771 9.07248 8.31355 9.09277 8.31355C9.11307 8.31355 9.12968 8.3094 9.12968 8.30432C9.12968 8.29925 9.14629 8.29509 9.16658 8.29509C9.18688 8.29509 9.20349 8.29094 9.20349 8.28587C9.20349 8.28079 9.22009 8.27664 9.24039 8.27664C9.26069 8.27664 9.27729 8.27248 9.27729 8.2674C9.27729 8.26233 9.29805 8.25817 9.32342 8.25817C9.34879 8.25817 9.36955 8.25402 9.36955 8.24895C9.36955 8.24387 9.39031 8.23972 9.41568 8.23972C9.44105 8.23972 9.46181 8.23556 9.46181 8.23049C9.46181 8.22535 9.48642 8.22126 9.51717 8.22126C9.54792 8.22126 9.57252 8.21716 9.57252 8.21203C9.57252 8.20655 9.60636 8.2028 9.65556 8.2028C9.70476 8.2028 9.73859 8.19904 9.73859 8.19357C9.73859 8.18778 9.79702 8.18434 9.89543 8.18434Z" fill="#CCFF00"/>
<path d="M8.87117 10.3904C8.87117 10.3955 8.85456 10.3996 8.83427 10.3996C8.81397 10.3996 8.79736 10.4038 8.79736 10.4088C8.79736 10.4139 8.78491 10.4181 8.76969 10.4181C8.75446 10.4181 8.74201 10.4222 8.74201 10.4273C8.74201 10.4324 8.7337 10.4365 8.72356 10.4365C8.71341 10.4365 8.7051 10.4407 8.7051 10.4458C8.7051 10.4508 8.69771 10.455 8.68869 10.455C8.67966 10.455 8.66629 10.4633 8.65897 10.4734C8.65166 10.4836 8.64025 10.4919 8.63363 10.4919C8.61796 10.4919 8.53904 10.5709 8.53904 10.5865C8.53904 10.5932 8.53073 10.6046 8.52059 10.6119C8.51044 10.6192 8.50213 10.6326 8.50213 10.6416C8.50213 10.6507 8.49798 10.658 8.49291 10.658C8.48783 10.658 8.48368 10.6664 8.48368 10.6765C8.48368 10.6867 8.47953 10.695 8.47446 10.695C8.46938 10.695 8.46523 10.7033 8.46523 10.7134C8.46523 10.7236 8.46108 10.7319 8.456 10.7319C8.45093 10.7319 8.44678 10.7485 8.44678 10.7688C8.44678 10.7891 8.44263 10.8057 8.43755 10.8057C8.43191 10.8057 8.42833 10.8488 8.42833 10.9165C8.42833 10.9842 8.43191 11.0272 8.43755 11.0272C8.44263 11.0272 8.44678 11.0397 8.44678 11.0549C8.44678 11.0702 8.45093 11.0826 8.456 11.0826C8.46108 11.0826 8.46523 11.0951 8.46523 11.1103C8.46523 11.1255 8.46938 11.138 8.47446 11.138C8.47953 11.138 8.48368 11.1454 8.48368 11.1544C8.48368 11.1635 8.49198 11.1768 8.50213 11.1842C8.51228 11.1915 8.52059 11.2028 8.52059 11.2094C8.52059 11.2262 8.65565 11.3595 8.67267 11.3595C8.68036 11.3595 8.68665 11.3637 8.68665 11.3688C8.68665 11.3738 8.69496 11.378 8.7051 11.378C8.71525 11.378 8.72356 11.3821 8.72356 11.3872C8.72356 11.3923 8.73186 11.3964 8.74201 11.3964C8.75216 11.3964 8.76046 11.4006 8.76046 11.4057C8.76046 11.4108 8.77291 11.4149 8.78814 11.4149C8.80336 11.4149 8.81582 11.4191 8.81582 11.4241C8.81582 11.4299 8.8681 11.4334 8.9542 11.4334C9.04031 11.4334 9.09259 11.4299 9.09259 11.4241C9.09259 11.4191 9.10505 11.4149 9.12027 11.4149C9.13549 11.4149 9.14795 11.4108 9.14795 11.4057C9.14795 11.4006 9.15625 11.3964 9.1664 11.3964C9.17655 11.3964 9.18485 11.3923 9.18485 11.3872C9.18485 11.3821 9.19316 11.378 9.20331 11.378C9.21345 11.378 9.22176 11.3738 9.22176 11.3688C9.22176 11.3637 9.22805 11.3595 9.23574 11.3595C9.25276 11.3595 9.38782 11.2262 9.38782 11.2094C9.38782 11.2028 9.39613 11.1915 9.40628 11.1842C9.41642 11.1768 9.42473 11.1635 9.42473 11.1544C9.42473 11.1454 9.42888 11.138 9.43395 11.138C9.43903 11.138 9.44318 11.1255 9.44318 11.1103C9.44318 11.0951 9.44733 11.0826 9.45241 11.0826C9.45748 11.0826 9.46163 11.0702 9.46163 11.0549C9.46163 11.0397 9.46578 11.0272 9.47086 11.0272C9.47653 11.0272 9.48008 10.9811 9.48008 10.9073C9.48008 10.8334 9.47653 10.7873 9.47086 10.7873C9.46578 10.7873 9.46163 10.7748 9.46163 10.7596C9.46163 10.7443 9.45748 10.7319 9.45241 10.7319C9.44733 10.7319 9.44318 10.7236 9.44318 10.7134C9.44318 10.7033 9.43903 10.695 9.43395 10.695C9.42888 10.695 9.42473 10.6867 9.42473 10.6765C9.42473 10.6664 9.42058 10.658 9.4155 10.658C9.41043 10.658 9.40628 10.6507 9.40628 10.6416C9.40628 10.6326 9.39797 10.6192 9.38782 10.6119C9.37768 10.6046 9.36937 10.5932 9.36937 10.5865C9.36937 10.5709 9.29045 10.4919 9.27478 10.4919C9.26815 10.4919 9.25675 10.4836 9.24943 10.4734C9.24212 10.4633 9.22875 10.455 9.21972 10.455C9.2107 10.455 9.20331 10.4508 9.20331 10.4458C9.20331 10.4407 9.195 10.4365 9.18485 10.4365C9.1747 10.4365 9.1664 10.4324 9.1664 10.4273C9.1664 10.4222 9.15395 10.4181 9.13872 10.4181C9.1235 10.4181 9.11105 10.4139 9.11105 10.4088C9.11105 10.4038 9.09444 10.3996 9.07414 10.3996C9.05384 10.3996 9.03724 10.3955 9.03724 10.3904C9.03724 10.3849 9.00341 10.3811 8.9542 10.3811C8.905 10.3811 8.87117 10.3849 8.87117 10.3904Z" fill="#1CD7D2"/>
<path d="M8.50213 12.0702C8.50213 12.0753 8.48968 12.0795 8.47446 12.0795C8.45923 12.0795 8.44678 12.0836 8.44678 12.0887C8.44678 12.0938 8.43432 12.0979 8.4191 12.0979C8.40388 12.0979 8.39142 12.1021 8.39142 12.1072C8.39142 12.1122 8.38403 12.1164 8.37501 12.1164C8.36598 12.1164 8.35261 12.1247 8.34529 12.1348C8.33798 12.145 8.32662 12.1533 8.32004 12.1533C8.30326 12.1533 8.17 12.2884 8.17 12.3054C8.17 12.3131 8.16585 12.3194 8.16077 12.3194C8.1557 12.3194 8.15155 12.3277 8.15155 12.3379C8.15155 12.3481 8.1474 12.3564 8.14232 12.3564C8.13725 12.3564 8.1331 12.3647 8.1331 12.3748C8.1331 12.385 8.12894 12.3933 8.12387 12.3933C8.11879 12.3933 8.11464 12.4057 8.11464 12.421C8.11464 12.4362 8.11049 12.4487 8.10542 12.4487C8.09968 12.4487 8.09619 12.501 8.09619 12.5871C8.09619 12.6733 8.09968 12.7256 8.10542 12.7256C8.11049 12.7256 8.11464 12.738 8.11464 12.7532C8.11464 12.7685 8.11879 12.7809 8.12387 12.7809C8.12894 12.7809 8.1331 12.7892 8.1331 12.7994C8.1331 12.8096 8.13725 12.8179 8.14232 12.8179C8.1474 12.8179 8.15155 12.8262 8.15155 12.8363C8.15155 12.8465 8.1557 12.8548 8.16077 12.8548C8.16585 12.8548 8.17 12.8611 8.17 12.8688C8.17 12.887 8.32234 13.0394 8.34055 13.0394C8.34824 13.0394 8.35452 13.0435 8.35452 13.0486C8.35452 13.0537 8.36282 13.0578 8.37297 13.0578C8.38312 13.0578 8.39142 13.062 8.39142 13.0671C8.39142 13.0721 8.39973 13.0763 8.40987 13.0763C8.42002 13.0763 8.42833 13.0805 8.42833 13.0855C8.42833 13.0906 8.44493 13.0948 8.46523 13.0948C8.48553 13.0948 8.50213 13.0989 8.50213 13.104C8.50213 13.1097 8.54826 13.1132 8.62207 13.1132C8.69588 13.1132 8.74201 13.1097 8.74201 13.104C8.74201 13.0989 8.75446 13.0948 8.76969 13.0948C8.78491 13.0948 8.79736 13.0906 8.79736 13.0855C8.79736 13.0805 8.80567 13.0763 8.81582 13.0763C8.82596 13.0763 8.83427 13.0721 8.83427 13.0671C8.83427 13.062 8.84257 13.0578 8.85272 13.0578C8.86287 13.0578 8.87117 13.0537 8.87117 13.0486C8.87117 13.0435 8.87856 13.0394 8.88758 13.0394C8.89662 13.0394 8.90998 13.0311 8.9173 13.0209C8.92462 13.0108 8.93602 13.0025 8.94264 13.0025C8.95832 13.0025 9.03724 12.9235 9.03724 12.9078C9.03724 12.9012 9.04554 12.8898 9.05569 12.8825C9.06584 12.8751 9.07414 12.8618 9.07414 12.8527C9.07414 12.8437 9.07829 12.8363 9.08337 12.8363C9.08844 12.8363 9.09259 12.828 9.09259 12.8179C9.09259 12.8077 9.09675 12.7994 9.10182 12.7994C9.10689 12.7994 9.11105 12.7869 9.11105 12.7717C9.11105 12.7565 9.1152 12.744 9.12027 12.744C9.12535 12.744 9.1295 12.7274 9.1295 12.7071C9.1295 12.6868 9.13365 12.6702 9.13872 12.6702C9.14419 12.6702 9.14795 12.6363 9.14795 12.5871C9.14795 12.5379 9.14419 12.504 9.13872 12.504C9.13365 12.504 9.1295 12.4874 9.1295 12.4671C9.1295 12.4468 9.12535 12.4302 9.12027 12.4302C9.1152 12.4302 9.11105 12.4177 9.11105 12.4025C9.11105 12.3873 9.10689 12.3748 9.10182 12.3748C9.09675 12.3748 9.09259 12.3665 9.09259 12.3564C9.09259 12.3462 9.08844 12.3379 9.08337 12.3379C9.07829 12.3379 9.07414 12.3313 9.07414 12.3231C9.07414 12.315 9.06169 12.2967 9.04646 12.2825C9.03124 12.2683 9.01879 12.252 9.01879 12.2462C9.01879 12.2317 8.95753 12.1718 8.94271 12.1718C8.93605 12.1718 8.92462 12.1635 8.9173 12.1533C8.90998 12.1431 8.89662 12.1348 8.88758 12.1348C8.87856 12.1348 8.87117 12.1307 8.87117 12.1256C8.87117 12.1205 8.86287 12.1164 8.85272 12.1164C8.84257 12.1164 8.83427 12.1122 8.83427 12.1072C8.83427 12.1021 8.82596 12.0979 8.81582 12.0979C8.80567 12.0979 8.79736 12.0938 8.79736 12.0887C8.79736 12.0836 8.78076 12.0795 8.76046 12.0795C8.74016 12.0795 8.72356 12.0753 8.72356 12.0702C8.72356 12.0646 8.6805 12.061 8.61284 12.061C8.54519 12.061 8.50213 12.0646 8.50213 12.0702Z" fill="#1CD7D2"/>
<path d="M9.86757 13.2701C9.86757 13.2753 9.84297 13.2794 9.81222 13.2794C9.78147 13.2794 9.75686 13.2835 9.75686 13.2886C9.75686 13.2937 9.74441 13.2978 9.72918 13.2978C9.71396 13.2978 9.70151 13.302 9.70151 13.307C9.70151 13.3121 9.6932 13.3163 9.68305 13.3163C9.67291 13.3163 9.6646 13.3204 9.6646 13.3255C9.6646 13.3306 9.65721 13.3347 9.64819 13.3347C9.63916 13.3347 9.62579 13.343 9.61847 13.3532C9.61116 13.3633 9.59977 13.3717 9.59318 13.3717C9.57754 13.3717 9.48008 13.4692 9.48008 13.4848C9.48008 13.4914 9.47178 13.5028 9.46163 13.5101C9.45148 13.5174 9.44318 13.5308 9.44318 13.5398C9.44318 13.5489 9.43903 13.5563 9.43395 13.5563C9.42888 13.5563 9.42473 13.5646 9.42473 13.5747C9.42473 13.5849 9.42058 13.5932 9.4155 13.5932C9.41043 13.5932 9.40628 13.6056 9.40628 13.6209C9.40628 13.6361 9.40212 13.6486 9.39705 13.6486C9.39192 13.6486 9.38782 13.6732 9.38782 13.7039C9.38782 13.7347 9.38373 13.7593 9.3786 13.7593C9.37352 13.7593 9.36937 13.7759 9.36937 13.7962C9.36937 13.8165 9.37352 13.8332 9.3786 13.8332C9.38373 13.8332 9.38782 13.8578 9.38782 13.8885C9.38782 13.9193 9.39192 13.9439 9.39705 13.9439C9.40212 13.9439 9.40628 13.9564 9.40628 13.9716C9.40628 13.9868 9.41043 13.9993 9.4155 13.9993C9.42058 13.9993 9.42473 14.0076 9.42473 14.0178C9.42473 14.0279 9.42888 14.0362 9.43395 14.0362C9.43903 14.0362 9.44318 14.0436 9.44318 14.0526C9.44318 14.0617 9.45148 14.075 9.46163 14.0824C9.47178 14.0897 9.48008 14.1011 9.48008 14.1077C9.48008 14.1233 9.57754 14.2208 9.59318 14.2208C9.59977 14.2208 9.61116 14.2291 9.61847 14.2393C9.62579 14.2494 9.63916 14.2577 9.64819 14.2577C9.65721 14.2577 9.6646 14.2619 9.6646 14.267C9.6646 14.272 9.67291 14.2762 9.68305 14.2762C9.6932 14.2762 9.70151 14.2803 9.70151 14.2854C9.70151 14.2905 9.71396 14.2947 9.72918 14.2947C9.74441 14.2947 9.75686 14.2988 9.75686 14.3039C9.75686 14.309 9.77347 14.3131 9.79377 14.3131C9.81406 14.3131 9.83067 14.3173 9.83067 14.3223C9.83067 14.3277 9.86142 14.3316 9.90448 14.3316C9.94754 14.3316 9.97829 14.3277 9.97829 14.3223C9.97829 14.3173 9.99904 14.3131 10.0244 14.3131C10.0498 14.3131 10.0705 14.309 10.0705 14.3039C10.0705 14.2988 10.0788 14.2947 10.089 14.2947C10.0991 14.2947 10.1074 14.2905 10.1074 14.2854C10.1074 14.2803 10.1158 14.2762 10.1259 14.2762C10.136 14.2762 10.1444 14.272 10.1444 14.267C10.1444 14.2619 10.1527 14.2577 10.1628 14.2577C10.173 14.2577 10.1813 14.2536 10.1813 14.2485C10.1813 14.2434 10.1875 14.2393 10.1952 14.2393C10.2135 14.2393 10.3473 14.1054 10.3473 14.0871C10.3473 14.0794 10.3515 14.0731 10.3565 14.0731C10.3616 14.0731 10.3658 14.0648 10.3658 14.0547C10.3658 14.0445 10.3699 14.0362 10.375 14.0362C10.3801 14.0362 10.3842 14.0279 10.3842 14.0178C10.3842 14.0076 10.3884 13.9993 10.3935 13.9993C10.3985 13.9993 10.4027 13.9868 10.4027 13.9716C10.4027 13.9564 10.4068 13.9439 10.4119 13.9439C10.417 13.9439 10.4211 13.9273 10.4211 13.907C10.4211 13.8867 10.4253 13.8701 10.4304 13.8701C10.4357 13.8701 10.4396 13.8393 10.4396 13.7962C10.4396 13.7532 10.4357 13.7224 10.4304 13.7224C10.4253 13.7224 10.4211 13.7058 10.4211 13.6855C10.4211 13.6652 10.417 13.6486 10.4119 13.6486C10.4068 13.6486 10.4027 13.6361 10.4027 13.6209C10.4027 13.6056 10.3985 13.5932 10.3935 13.5932C10.3884 13.5932 10.3842 13.5849 10.3842 13.5747C10.3842 13.5646 10.3801 13.5563 10.375 13.5563C10.3699 13.5563 10.3658 13.5489 10.3658 13.5398C10.3658 13.5308 10.3575 13.5174 10.3473 13.5101C10.3372 13.5028 10.3289 13.4914 10.3289 13.4848C10.3289 13.4692 10.2314 13.3717 10.2158 13.3717C10.2092 13.3717 10.1978 13.3633 10.1905 13.3532C10.1832 13.343 10.1698 13.3347 10.1608 13.3347C10.1517 13.3347 10.1444 13.3306 10.1444 13.3255C10.1444 13.3204 10.136 13.3163 10.1259 13.3163C10.1158 13.3163 10.1074 13.3121 10.1074 13.307C10.1074 13.302 10.095 13.2978 10.0798 13.2978C10.0645 13.2978 10.0521 13.2937 10.0521 13.2886C10.0521 13.2835 10.0275 13.2794 9.99674 13.2794C9.96599 13.2794 9.94138 13.2753 9.94138 13.2701C9.94138 13.2651 9.92477 13.2609 9.90448 13.2609C9.88418 13.2609 9.86757 13.2651 9.86757 13.2701Z" fill="#1CD7D2"/>
<path d="M10.1259 11.5349C10.1259 11.54 10.1134 11.5441 10.0982 11.5441C10.083 11.5441 10.0705 11.5483 10.0705 11.5534C10.0705 11.5584 10.0622 11.5626 10.0521 11.5626C10.0419 11.5626 10.0336 11.5667 10.0336 11.5718C10.0336 11.5769 10.0253 11.581 10.0152 11.581C10.005 11.581 9.99674 11.5852 9.99674 11.5903C9.99674 11.5954 9.9901 11.5995 9.98198 11.5995C9.97388 11.5995 9.9556 11.612 9.94138 11.6272C9.92716 11.6424 9.91067 11.6549 9.90473 11.6549C9.8908 11.6549 9.86757 11.6781 9.86757 11.6921C9.86757 11.698 9.85512 11.7145 9.8399 11.7287C9.82467 11.7429 9.81222 11.7612 9.81222 11.7693C9.81222 11.7775 9.80807 11.7841 9.80299 11.7841C9.79792 11.7841 9.79377 11.7924 9.79377 11.8026C9.79377 11.8127 9.78961 11.821 9.78454 11.821C9.77947 11.821 9.77531 11.8293 9.77531 11.8395C9.77531 11.8496 9.77116 11.8579 9.76609 11.8579C9.76101 11.8579 9.75686 11.8704 9.75686 11.8856C9.75686 11.9009 9.75271 11.9133 9.74764 11.9133C9.7419 11.9133 9.73841 11.9656 9.73841 12.0518C9.73841 12.1379 9.7419 12.1902 9.74764 12.1902C9.75271 12.1902 9.75686 12.2027 9.75686 12.2179C9.75686 12.2331 9.76101 12.2456 9.76609 12.2456C9.77116 12.2456 9.77531 12.2539 9.77531 12.2641C9.77531 12.2742 9.77947 12.2825 9.78454 12.2825C9.78961 12.2825 9.79377 12.2899 9.79377 12.2989C9.79377 12.308 9.80207 12.3214 9.81222 12.3287C9.82237 12.336 9.83067 12.3474 9.83067 12.354C9.83067 12.3708 9.94723 12.4856 9.96427 12.4856C9.97198 12.4856 9.97829 12.4897 9.97829 12.4948C9.97829 12.4999 9.98659 12.504 9.99674 12.504C10.0069 12.504 10.0152 12.5082 10.0152 12.5133C10.0152 12.5183 10.0235 12.5225 10.0336 12.5225C10.0438 12.5225 10.0521 12.5267 10.0521 12.5317C10.0521 12.5368 10.0604 12.541 10.0705 12.541C10.0807 12.541 10.089 12.5451 10.089 12.5502C10.089 12.5553 10.1056 12.5594 10.1259 12.5594C10.1462 12.5594 10.1628 12.5636 10.1628 12.5687C10.1628 12.5742 10.1997 12.5779 10.2551 12.5779C10.3104 12.5779 10.3473 12.5742 10.3473 12.5687C10.3473 12.5636 10.3639 12.5594 10.3842 12.5594C10.4045 12.5594 10.4211 12.5553 10.4211 12.5502C10.4211 12.5451 10.4336 12.541 10.4488 12.541C10.464 12.541 10.4765 12.5368 10.4765 12.5317C10.4765 12.5267 10.4848 12.5225 10.4949 12.5225C10.5051 12.5225 10.5134 12.5183 10.5134 12.5133C10.5134 12.5082 10.5199 12.504 10.5279 12.504C10.536 12.504 10.5585 12.4874 10.578 12.4671C10.5975 12.4468 10.62 12.4302 10.628 12.4302C10.636 12.4302 10.6426 12.4236 10.6426 12.4154C10.6426 12.4073 10.655 12.389 10.6702 12.3748C10.6855 12.3606 10.6979 12.3432 10.6979 12.3362C10.6979 12.3292 10.7062 12.3175 10.7164 12.3102C10.7265 12.3029 10.7348 12.2895 10.7348 12.2805C10.7348 12.2715 10.739 12.2641 10.744 12.2641C10.7491 12.2641 10.7533 12.2516 10.7533 12.2364C10.7533 12.2211 10.7574 12.2087 10.7625 12.2087C10.7676 12.2087 10.7717 12.1921 10.7717 12.1718C10.7717 12.1515 10.7759 12.1348 10.7809 12.1348C10.7864 12.1348 10.7902 12.101 10.7902 12.0518C10.7902 12.0025 10.7864 11.9687 10.7809 11.9687C10.7759 11.9687 10.7717 11.9479 10.7717 11.9226C10.7717 11.8972 10.7676 11.8764 10.7625 11.8764C10.7574 11.8764 10.7533 11.8681 10.7533 11.8579C10.7533 11.8478 10.7491 11.8395 10.744 11.8395C10.739 11.8395 10.7348 11.8312 10.7348 11.821C10.7348 11.8109 10.7307 11.8026 10.7256 11.8026C10.7205 11.8026 10.7164 11.7952 10.7164 11.7861C10.7164 11.7771 10.7081 11.7637 10.6979 11.7564C10.6878 11.7491 10.6795 11.7377 10.6795 11.7311C10.6795 11.7155 10.582 11.618 10.5664 11.618C10.5598 11.618 10.5484 11.6097 10.5411 11.5995C10.5338 11.5894 10.5204 11.581 10.5114 11.581C10.5023 11.581 10.4949 11.5769 10.4949 11.5718C10.4949 11.5667 10.4825 11.5626 10.4673 11.5626C10.452 11.5626 10.4396 11.5584 10.4396 11.5534C10.4396 11.5483 10.4271 11.5441 10.4119 11.5441C10.3967 11.5441 10.3842 11.54 10.3842 11.5349C10.3842 11.5292 10.335 11.5257 10.2551 11.5257C10.1751 11.5257 10.1259 11.5292 10.1259 11.5349Z" fill="#1CD7D2"/>
<path d="M10.4949 9.7812C10.4949 9.78628 10.4825 9.79043 10.4673 9.79043C10.452 9.79043 10.4396 9.79459 10.4396 9.79966C10.4396 9.80474 10.4271 9.80889 10.4119 9.80889C10.3967 9.80889 10.3842 9.81305 10.3842 9.81812C10.3842 9.8232 10.3768 9.82735 10.3678 9.82735C10.3588 9.82735 10.3454 9.83566 10.3381 9.84581C10.3308 9.85597 10.3194 9.86427 10.3128 9.86427C10.2961 9.86427 10.1628 9.9994 10.1628 10.0164C10.1628 10.0241 10.1587 10.0304 10.1536 10.0304C10.1485 10.0304 10.1444 10.0387 10.1444 10.0489C10.1444 10.059 10.1402 10.0673 10.1351 10.0673C10.1301 10.0673 10.1259 10.0756 10.1259 10.0858C10.1259 10.0959 10.1217 10.1043 10.1167 10.1043C10.1116 10.1043 10.1074 10.1209 10.1074 10.1412C10.1074 10.1615 10.1033 10.1781 10.0982 10.1781C10.0925 10.1781 10.089 10.2242 10.089 10.2981C10.089 10.3719 10.0925 10.4181 10.0982 10.4181C10.1033 10.4181 10.1074 10.4305 10.1074 10.4458C10.1074 10.461 10.1116 10.4734 10.1167 10.4734C10.1217 10.4734 10.1259 10.4859 10.1259 10.5011C10.1259 10.5164 10.1301 10.5288 10.1351 10.5288C10.1402 10.5288 10.1444 10.5362 10.1444 10.5452C10.1444 10.5543 10.1527 10.5677 10.1628 10.575C10.173 10.5823 10.1813 10.5937 10.1813 10.6003C10.1813 10.6159 10.2972 10.7319 10.3128 10.7319C10.3194 10.7319 10.3308 10.7402 10.3381 10.7503C10.3454 10.7605 10.3588 10.7688 10.3678 10.7688C10.3768 10.7688 10.3842 10.773 10.3842 10.778C10.3842 10.7831 10.3967 10.7873 10.4119 10.7873C10.4271 10.7873 10.4396 10.7914 10.4396 10.7965C10.4396 10.8016 10.4562 10.8057 10.4765 10.8057C10.4968 10.8057 10.5134 10.8099 10.5134 10.815C10.5134 10.8206 10.5534 10.8242 10.6149 10.8242C10.6764 10.8242 10.7164 10.8206 10.7164 10.815C10.7164 10.8099 10.733 10.8057 10.7533 10.8057C10.7736 10.8057 10.7902 10.8016 10.7902 10.7965C10.7902 10.7914 10.7985 10.7873 10.8086 10.7873C10.8188 10.7873 10.8271 10.7831 10.8271 10.778C10.8271 10.773 10.8354 10.7688 10.8455 10.7688C10.8557 10.7688 10.864 10.7647 10.864 10.7596C10.864 10.7545 10.8714 10.7503 10.8804 10.7503C10.8894 10.7503 10.9028 10.742 10.9101 10.7319C10.9174 10.7217 10.9288 10.7134 10.9354 10.7134C10.9511 10.7134 11.03 10.6345 11.03 10.6188C11.03 10.6122 11.0383 10.6008 11.0485 10.5934C11.0586 10.5861 11.0669 10.5727 11.0669 10.5637C11.0669 10.5547 11.0711 10.5473 11.0762 10.5473C11.0812 10.5473 11.0854 10.539 11.0854 10.5288C11.0854 10.5187 11.0896 10.5104 11.0946 10.5104C11.0997 10.5104 11.1039 10.5021 11.1039 10.4919C11.1039 10.4818 11.108 10.4734 11.1131 10.4734C11.1182 10.4734 11.1223 10.4568 11.1223 10.4365C11.1223 10.4162 11.1265 10.3996 11.1315 10.3996C11.1371 10.3996 11.1408 10.3596 11.1408 10.2981C11.1408 10.2365 11.1371 10.1966 11.1315 10.1966C11.1265 10.1966 11.1223 10.1799 11.1223 10.1596C11.1223 10.1393 11.1182 10.1227 11.1131 10.1227C11.108 10.1227 11.1039 10.1144 11.1039 10.1043C11.1039 10.0941 11.0997 10.0858 11.0946 10.0858C11.0896 10.0858 11.0854 10.0775 11.0854 10.0673C11.0854 10.0572 11.0812 10.0489 11.0762 10.0489C11.0711 10.0489 11.0669 10.0415 11.0669 10.0325C11.0669 10.0234 11.0586 10.01 11.0485 10.0027C11.0383 9.9954 11.03 9.98401 11.03 9.97741C11.03 9.96177 10.9326 9.86427 10.917 9.86427C10.9104 9.86427 10.899 9.85597 10.8917 9.84581C10.8843 9.83566 10.871 9.82735 10.8619 9.82735C10.8529 9.82735 10.8455 9.8232 10.8455 9.81812C10.8455 9.81305 10.8331 9.80889 10.8178 9.80889C10.8026 9.80889 10.7902 9.80474 10.7902 9.79966C10.7902 9.79459 10.7777 9.79043 10.7625 9.79043C10.7473 9.79043 10.7348 9.78628 10.7348 9.7812C10.7348 9.77553 10.6887 9.77197 10.6149 9.77197C10.5411 9.77197 10.4949 9.77553 10.4949 9.7812Z" fill="#1CD7D2"/>
<path d="M11.8235 10.9811C11.8235 10.9862 11.8027 10.9903 11.7773 10.9903C11.752 10.9903 11.7312 10.9945 11.7312 10.9996C11.7312 11.0046 11.7229 11.0088 11.7128 11.0088C11.7026 11.0088 11.6943 11.0129 11.6943 11.018C11.6943 11.0231 11.686 11.0272 11.6759 11.0272C11.6657 11.0272 11.6574 11.0314 11.6574 11.0365C11.6574 11.0416 11.6491 11.0457 11.639 11.0457C11.6288 11.0457 11.6205 11.0499 11.6205 11.0549C11.6205 11.06 11.6142 11.0642 11.6065 11.0642C11.5988 11.0642 11.5615 11.0953 11.5235 11.1332C11.4855 11.1712 11.4544 11.2086 11.4544 11.2163C11.4544 11.224 11.4503 11.2303 11.4452 11.2303C11.4401 11.2303 11.436 11.2386 11.436 11.2488C11.436 11.2589 11.4318 11.2672 11.4268 11.2672C11.4217 11.2672 11.4175 11.2755 11.4175 11.2857C11.4175 11.2958 11.4134 11.3041 11.4083 11.3041C11.4032 11.3041 11.3991 11.3166 11.3991 11.3318C11.3991 11.3471 11.3949 11.3595 11.3899 11.3595C11.3848 11.3595 11.3806 11.3761 11.3806 11.3964C11.3806 11.4168 11.3765 11.4334 11.3714 11.4334C11.3661 11.4334 11.3622 11.4611 11.3622 11.498C11.3622 11.5349 11.3661 11.5626 11.3714 11.5626C11.3765 11.5626 11.3806 11.5834 11.3806 11.6087C11.3806 11.6341 11.3848 11.6549 11.3899 11.6549C11.3949 11.6549 11.3991 11.6673 11.3991 11.6826C11.3991 11.6978 11.4032 11.7103 11.4083 11.7103C11.4134 11.7103 11.4175 11.7186 11.4175 11.7287C11.4175 11.7389 11.4217 11.7472 11.4268 11.7472C11.4318 11.7472 11.436 11.7546 11.436 11.7636C11.436 11.7726 11.4443 11.786 11.4544 11.7933C11.4646 11.8007 11.4729 11.812 11.4729 11.8186C11.4729 11.8253 11.4956 11.8534 11.5234 11.8812C11.5512 11.909 11.5794 11.9318 11.586 11.9318C11.5926 11.9318 11.604 11.9401 11.6113 11.9502C11.6186 11.9604 11.632 11.9687 11.641 11.9687C11.65 11.9687 11.6574 11.9729 11.6574 11.9779C11.6574 11.983 11.6657 11.9872 11.6759 11.9872C11.686 11.9872 11.6943 11.9913 11.6943 11.9964C11.6943 12.0015 11.7068 12.0056 11.722 12.0056C11.7372 12.0056 11.7497 12.0098 11.7497 12.0149C11.7497 12.02 11.7743 12.0241 11.805 12.0241C11.8358 12.0241 11.8604 12.0282 11.8604 12.0333C11.8604 12.0384 11.877 12.0425 11.8973 12.0425C11.9176 12.0425 11.9342 12.0384 11.9342 12.0333C11.9342 12.0282 11.9588 12.0241 11.9895 12.0241C12.0203 12.0241 12.0449 12.02 12.0449 12.0149C12.0449 12.0098 12.0574 12.0056 12.0726 12.0056C12.0878 12.0056 12.1003 12.0015 12.1003 11.9964C12.1003 11.9913 12.1086 11.9872 12.1187 11.9872C12.1289 11.9872 12.1372 11.983 12.1372 11.9779C12.1372 11.9729 12.1445 11.9687 12.1536 11.9687C12.1626 11.9687 12.176 11.9604 12.1833 11.9502C12.1906 11.9401 12.202 11.9318 12.2086 11.9318C12.2152 11.9318 12.2433 11.909 12.2711 11.8812C12.2989 11.8534 12.3217 11.8253 12.3217 11.8186C12.3217 11.812 12.33 11.8007 12.3401 11.7933C12.3503 11.786 12.3586 11.7726 12.3586 11.7636C12.3586 11.7546 12.3627 11.7472 12.3678 11.7472C12.3729 11.7472 12.377 11.7389 12.377 11.7287C12.377 11.7186 12.3812 11.7103 12.3863 11.7103C12.3913 11.7103 12.3955 11.6978 12.3955 11.6826C12.3955 11.6673 12.3996 11.6549 12.4047 11.6549C12.4098 11.6549 12.4139 11.6303 12.4139 11.5995C12.4139 11.5687 12.418 11.5441 12.4232 11.5441C12.4282 11.5441 12.4324 11.5275 12.4324 11.5072C12.4324 11.4869 12.4282 11.4703 12.4232 11.4703C12.418 11.4703 12.4139 11.4457 12.4139 11.4149C12.4139 11.3841 12.4098 11.3595 12.4047 11.3595C12.3996 11.3595 12.3955 11.3471 12.3955 11.3318C12.3955 11.3166 12.3913 11.3041 12.3863 11.3041C12.3812 11.3041 12.377 11.2958 12.377 11.2857C12.377 11.2755 12.3729 11.2672 12.3678 11.2672C12.3627 11.2672 12.3586 11.2598 12.3586 11.2508C12.3586 11.2418 12.3503 11.2284 12.3401 11.2211C12.33 11.2138 12.3217 11.2024 12.3217 11.1958C12.3217 11.1892 12.2989 11.161 12.2711 11.1332C12.2433 11.1054 12.2152 11.0826 12.2086 11.0826C12.202 11.0826 12.1906 11.0743 12.1833 11.0642C12.176 11.054 12.1626 11.0457 12.1536 11.0457C12.1445 11.0457 12.1372 11.0416 12.1372 11.0365C12.1372 11.0314 12.1289 11.0272 12.1187 11.0272C12.1086 11.0272 12.1003 11.0231 12.1003 11.018C12.1003 11.0129 12.0878 11.0088 12.0726 11.0088C12.0574 11.0088 12.0449 11.0046 12.0449 10.9996C12.0449 10.9945 12.0283 10.9903 12.008 10.9903C11.9877 10.9903 11.9711 10.9862 11.9711 10.9811C11.9711 10.9757 11.9403 10.9719 11.8973 10.9719C11.8542 10.9719 11.8235 10.9757 11.8235 10.9811Z" fill="#1CD7D2"/>
<path d="M11.4729 12.6609C11.4729 12.666 11.4563 12.6702 11.436 12.6702C11.4157 12.6702 11.3991 12.6743 11.3991 12.6794C11.3991 12.6845 11.3866 12.6886 11.3714 12.6886C11.3562 12.6886 11.3437 12.6928 11.3437 12.6979C11.3437 12.7029 11.3354 12.7071 11.3253 12.7071C11.3151 12.7071 11.3068 12.7113 11.3068 12.7163C11.3068 12.7214 11.2994 12.7256 11.2904 12.7256C11.2814 12.7256 11.268 12.7339 11.2607 12.744C11.2534 12.7542 11.242 12.7625 11.2353 12.7625C11.2197 12.7625 11.1408 12.8414 11.1408 12.8571C11.1408 12.8637 11.1325 12.8751 11.1223 12.8825C11.1122 12.8898 11.1039 12.9032 11.1039 12.9122C11.1039 12.9212 11.0997 12.9286 11.0946 12.9286C11.0896 12.9286 11.0854 12.9369 11.0854 12.9471C11.0854 12.9572 11.0812 12.9655 11.0762 12.9655C11.0711 12.9655 11.0669 12.9738 11.0669 12.984C11.0669 12.9942 11.0628 13.0025 11.0577 13.0025C11.0526 13.0025 11.0485 13.0191 11.0485 13.0394C11.0485 13.0597 11.0443 13.0763 11.0393 13.0763C11.0337 13.0763 11.03 13.1163 11.03 13.1778C11.03 13.2394 11.0337 13.2794 11.0393 13.2794C11.0443 13.2794 11.0485 13.296 11.0485 13.3163C11.0485 13.3366 11.0526 13.3532 11.0577 13.3532C11.0628 13.3532 11.0669 13.3657 11.0669 13.3809C11.0669 13.3961 11.0711 13.4086 11.0762 13.4086C11.0812 13.4086 11.0854 13.416 11.0854 13.425C11.0854 13.434 11.0937 13.4474 11.1039 13.4547C11.114 13.462 11.1223 13.4734 11.1223 13.48C11.1223 13.4956 11.2383 13.6116 11.2539 13.6116C11.2605 13.6116 11.2718 13.6199 11.2791 13.6301C11.2865 13.6402 11.2998 13.6486 11.3089 13.6486C11.3179 13.6486 11.3253 13.6527 11.3253 13.6578C11.3253 13.6629 11.3336 13.667 11.3437 13.667C11.3539 13.667 11.3622 13.6712 11.3622 13.6762C11.3622 13.6813 11.3788 13.6855 11.3991 13.6855C11.4194 13.6855 11.436 13.6896 11.436 13.6947C11.436 13.7004 11.4852 13.7039 11.5651 13.7039C11.6451 13.7039 11.6943 13.7004 11.6943 13.6947C11.6943 13.6896 11.7068 13.6855 11.722 13.6855C11.7372 13.6855 11.7497 13.6813 11.7497 13.6762C11.7497 13.6712 11.758 13.667 11.7681 13.667C11.7783 13.667 11.7866 13.6629 11.7866 13.6578C11.7866 13.6527 11.7949 13.6486 11.805 13.6486C11.8152 13.6486 11.8235 13.6444 11.8235 13.6393C11.8235 13.6342 11.8298 13.6301 11.8374 13.6301C11.8451 13.6301 11.8866 13.5948 11.9297 13.5518C11.9728 13.5087 12.008 13.4672 12.008 13.4595C12.008 13.4518 12.0121 13.4455 12.0172 13.4455C12.0223 13.4455 12.0264 13.4372 12.0264 13.427C12.0264 13.4169 12.0306 13.4086 12.0357 13.4086C12.0407 13.4086 12.0449 13.4003 12.0449 13.3901C12.0449 13.38 12.049 13.3717 12.0541 13.3717C12.0592 13.3717 12.0633 13.355 12.0633 13.3347C12.0633 13.3144 12.0675 13.2978 12.0726 13.2978C12.0782 13.2978 12.0818 13.2517 12.0818 13.1778C12.0818 13.104 12.0782 13.0578 12.0726 13.0578C12.0675 13.0578 12.0633 13.0454 12.0633 13.0301C12.0633 13.0149 12.0592 13.0025 12.0541 13.0025C12.049 13.0025 12.0449 12.99 12.0449 12.9748C12.0449 12.9595 12.0407 12.9471 12.0357 12.9471C12.0306 12.9471 12.0264 12.9397 12.0264 12.9307C12.0264 12.9216 12.0181 12.9082 12.008 12.9009C11.9978 12.8936 11.9895 12.8822 11.9895 12.8756C11.9895 12.86 11.8921 12.7625 11.8765 12.7625C11.8699 12.7625 11.8585 12.7542 11.8512 12.744C11.8438 12.7339 11.8305 12.7256 11.8214 12.7256C11.8124 12.7256 11.805 12.7214 11.805 12.7163C11.805 12.7113 11.7967 12.7071 11.7866 12.7071C11.7764 12.7071 11.7681 12.7029 11.7681 12.6979C11.7681 12.6928 11.7598 12.6886 11.7497 12.6886C11.7395 12.6886 11.7312 12.6845 11.7312 12.6794C11.7312 12.6743 11.7146 12.6702 11.6943 12.6702C11.674 12.6702 11.6574 12.666 11.6574 12.6609C11.6574 12.6554 11.6205 12.6517 11.5651 12.6517C11.5098 12.6517 11.4729 12.6554 11.4729 12.6609Z" fill="#1CD7D2"/>
</svg>
