<svg width="20" height="20" viewBox="0 0 20 20" fill="none" xmlns="http://www.w3.org/2000/svg">
<rect width="20" height="20" fill="#2B9BCD"/>
<path fill-rule="evenodd" clip-rule="evenodd" d="M11.7247 4.91219C8.76142 6.06375 6.33695 7.02255 6.33695 7.04288C6.33695 7.06321 7.3594 7.90161 8.60911 8.90595C9.85878 9.91029 10.8811 10.7434 10.8808 10.7572C10.8806 10.771 9.06219 12.22 6.83988 13.9772C4.61761 15.7344 2.80527 17.179 2.81252 17.1875C2.82577 17.2029 13.6436 13.0317 13.6768 12.9983C13.6866 12.9885 13.4217 11.5518 13.0881 9.80574C12.7546 8.05965 12.4946 6.61009 12.5103 6.58443C12.5261 6.55877 13.5849 5.70814 14.8632 4.69414C16.1416 3.68014 17.1875 2.84087 17.1875 2.82915C17.1875 2.81743 17.1706 2.81023 17.15 2.81315C17.1293 2.81607 14.688 3.76064 11.7247 4.91219ZM6.28695 10.7543C6.28695 12.5822 6.29605 14.0778 6.30715 14.0778C6.34205 14.0778 10.4616 10.803 10.4725 10.7666C10.4807 10.7389 6.74947 7.75686 6.38575 7.50052C6.28765 7.43134 6.28695 7.45439 6.28695 10.7543Z" fill="white"/>
</svg>
