<svg width="20" height="20" viewBox="0 0 20 20" fill="none" xmlns="http://www.w3.org/2000/svg">
<path fill-rule="evenodd" clip-rule="evenodd" d="M9.13629 0.0104468C4.3294 0.46224 0.579684 4.16906 0.055841 8.98714C-0.353419 12.751 1.51456 16.5502 4.75119 18.5368C5.82892 19.1982 6.99946 19.6449 8.29899 19.8905C8.85871 19.9963 10.5747 20.0374 11.2027 19.96C15.355 19.4484 18.7804 16.3976 19.7457 12.3512C20.002 11.2769 20.0752 9.65794 19.9165 8.57622C19.3321 4.59351 16.4662 1.35261 12.6326 0.33901C11.7005 0.0926003 11.2084 0.0236646 10.2527 0.00571893C9.76426 -0.00348267 9.26188 -0.00134749 9.13629 0.0104468ZM13.5393 4.94296C13.6697 5.02369 13.8455 5.18841 13.9301 5.30899C14.0712 5.51011 14.0839 5.56288 14.0839 5.94695C14.0839 6.31898 14.0683 6.38934 13.9439 6.57759C13.867 6.69416 13.7088 6.85263 13.5926 6.92975L13.3811 7.07001L10.561 7.09609C7.80727 7.12156 7.73435 7.12481 7.46789 7.2335C7.11135 7.3789 6.83312 7.57523 6.64328 7.81539L6.48988 8.00943L6.59685 8.15991C6.77166 8.40587 7.10491 8.66295 7.40694 8.78486C7.68284 8.89619 7.75094 8.8998 10.0751 8.92507L12.4601 8.951L12.8046 9.11444C13.2655 9.33319 13.7086 9.76094 13.9202 10.1916C14.0772 10.5112 14.0839 10.55 14.0839 11.137C14.0839 11.7288 14.0783 11.7607 13.9138 12.0954C13.6945 12.5418 13.3042 12.9327 12.8587 13.1526L12.5133 13.323L9.67033 13.3484C7.10059 13.3714 6.81196 13.3823 6.66693 13.4618C6.06174 13.7936 6.05677 14.6352 6.65804 14.9738C6.84261 15.0777 6.89168 15.0792 9.6275 15.0655L12.4094 15.0515L12.7021 14.9075C13.2863 14.6201 13.7221 14.0427 13.7943 13.4603C13.828 13.1884 13.8393 13.1695 13.977 13.1537L14.1239 13.1369L14.0977 13.4632C14.0329 14.2716 13.3981 15.0303 12.5698 15.2893C12.2982 15.3742 12.044 15.3818 9.52505 15.3808C6.42259 15.3796 6.53656 15.3932 6.18571 14.9825C5.68577 14.3974 5.85556 13.5232 6.53423 13.1884L6.77664 13.0688L9.59421 13.0434L12.4118 13.018L12.7466 12.8528C13.0858 12.6854 13.5004 12.301 13.5004 12.1538C13.5004 12.0066 13.0858 11.6221 12.7467 11.4547L12.4118 11.2895L10.0256 11.2619C7.44251 11.232 7.42217 11.2298 6.96323 10.9394C6.4304 10.6023 5.97243 9.89963 5.90742 9.31957L5.87464 9.02725H6.02226C6.16242 9.02725 6.17277 9.04266 6.22773 9.33238C6.35246 9.98986 6.69773 10.4449 7.29728 10.7419L7.68447 10.9337L10.0751 10.9591L12.4657 10.9845L12.8485 11.1741C13.0607 11.2792 13.335 11.4677 13.4642 11.5971L13.6972 11.8305L13.7567 11.6313C13.8588 11.29 13.8011 10.6734 13.6356 10.3354C13.4467 9.94975 13.0907 9.59053 12.7138 9.40554L12.4094 9.25602L10.0243 9.22933C7.37355 9.19969 7.41836 9.20529 6.86483 8.83788C5.97025 8.2442 5.64847 7.06411 6.10736 6.05997C6.32318 5.58774 6.83114 5.1124 7.32159 4.92385C7.64676 4.79879 8.50527 4.7659 11.029 4.78181L13.3023 4.79614L13.5393 4.94296ZM7.69005 5.13238C6.64663 5.38657 5.99775 6.42371 6.24254 7.446L6.30486 7.70624L6.58015 7.45419C6.73152 7.3156 7.00839 7.12669 7.19539 7.03442L7.53543 6.86666L10.3783 6.84124C13.5734 6.81267 13.4217 6.83168 13.6891 6.42686C13.978 5.98951 13.8049 5.37579 13.3321 5.1607C13.1321 5.06975 12.9697 5.06436 10.5318 5.06736C8.68293 5.06965 7.87131 5.08821 7.69005 5.13238Z" fill="#14120E"/>
<path fill-rule="evenodd" clip-rule="evenodd" d="M13.5392 4.94295C13.6695 5.02368 13.8454 5.1884 13.93 5.30898C14.0711 5.5101 14.0838 5.56287 14.0838 5.94694C14.0838 6.31897 14.0682 6.38933 13.9438 6.57758C13.8668 6.69415 13.7087 6.85261 13.5925 6.92974L13.381 7.07L10.5608 7.09608C7.80714 7.12155 7.73422 7.1248 7.46776 7.23349C7.11122 7.37889 6.83299 7.57522 6.64315 7.81538L6.48975 8.00942L6.59672 8.1599C6.77153 8.40586 7.10478 8.66294 7.40681 8.78485C7.68272 8.89618 7.75082 8.89979 10.0749 8.92506L12.46 8.95099L12.8044 9.11443C13.2654 9.33318 13.7085 9.76093 13.9201 10.1916C14.0771 10.5111 14.0838 10.55 14.0838 11.137C14.0838 11.7288 14.0781 11.7607 13.9137 12.0954C13.6943 12.5417 13.3041 12.9327 12.8586 13.1526L12.5132 13.323L9.6702 13.3484C7.10047 13.3714 6.81183 13.3823 6.6668 13.4618C6.06161 13.7936 6.05664 14.6352 6.65792 14.9738C6.84248 15.0777 6.89155 15.0792 9.62737 15.0655L12.4092 15.0515L12.7019 14.9075C13.2862 14.6201 13.722 14.0427 13.7942 13.4603C13.8279 13.1883 13.8391 13.1695 13.9769 13.1537L14.1238 13.1369L14.0976 13.4632C14.0328 14.2715 13.3979 15.0302 12.5696 15.2893C12.298 15.3742 12.0439 15.3818 9.52492 15.3808C6.42246 15.3796 6.53643 15.3932 6.18558 14.9825C5.68564 14.3974 5.85543 13.5232 6.5341 13.1884L6.77651 13.0688L9.59408 13.0434L12.4117 13.018L12.7465 12.8528C13.0857 12.6854 13.5002 12.301 13.5002 12.1538C13.5002 12.0066 13.0857 11.6221 12.7465 11.4547L12.4117 11.2895L10.0255 11.2619C7.44239 11.232 7.42204 11.2298 6.9631 10.9394C6.43027 10.6022 5.9723 9.89962 5.90729 9.31956L5.87451 9.02724H6.02213C6.16229 9.02724 6.17264 9.04265 6.2276 9.33237C6.35233 9.98985 6.6976 10.4449 7.29715 10.7419L7.68434 10.9337L10.0749 10.9591L12.4656 10.9845L12.8483 11.1741C13.0605 11.2792 13.3349 11.4677 13.4641 11.5971L13.697 11.8305L13.7566 11.6312C13.8587 11.29 13.801 10.6734 13.6355 10.3354C13.4466 9.94974 13.0905 9.59052 12.7137 9.40553L12.4092 9.25601L10.0242 9.22932C7.37342 9.19968 7.41823 9.20528 6.8647 8.83787C5.97012 8.24419 5.64834 7.0641 6.10723 6.05996C6.32305 5.58773 6.83101 5.11239 7.32146 4.92384C7.64664 4.79878 8.50514 4.76589 11.0289 4.7818L13.3022 4.79613L13.5392 4.94295ZM6.24241 7.44599C5.99762 6.4237 6.6465 5.38656 7.68992 5.13237C7.87118 5.0882 8.6828 5.06964 10.5317 5.06735C12.9696 5.06435 13.132 5.06974 13.332 5.16069C13.8048 5.37578 13.9779 5.98949 13.689 6.42685C13.4215 6.83167 13.5733 6.81266 10.3782 6.84123L7.5353 6.86665L7.19526 7.03441C7.00826 7.12668 6.7314 7.31559 6.58002 7.45418L6.30473 7.70623L6.24241 7.44599Z" fill="white"/>
</svg>
