<svg width="20" height="20" viewBox="0 0 20 20" fill="none" xmlns="http://www.w3.org/2000/svg">
<g clip-path="url(#clip0_5056_68073)">
<circle cx="10" cy="10" r="10" fill="#35BAEB"/>
<g clip-path="url(#clip1_5056_68073)">
<path d="M8.13706 11.401L5.00052 8.17034V12.0532H7.89128C7.92503 11.8204 8.00867 11.5975 8.13706 11.401ZM7.89128 12.6902H5.00052C5.06729 13.7013 5.45174 14.6634 6.09593 15.4304L8.13706 13.3046C8.0072 13.1232 7.92282 12.9124 7.89128 12.6902ZM12.4505 8.86105C11.7138 8.18545 10.7762 7.78795 9.79081 7.73203V10.7065C10.0124 10.7435 10.223 10.8282 10.4093 10.9566L12.4505 8.86105ZM10.8862 13.2736L12.9274 15.376C13.5598 14.6195 13.9362 13.6711 14 12.6743H11.0946C11.0601 12.8852 10.9897 13.0877 10.8862 13.2736ZM11.0953 12.0539H13.9861C13.9193 11.0428 13.5349 10.0808 12.8907 9.31372L10.8488 11.4236C10.9772 11.6111 11.0616 11.8272 11.0953 12.0539ZM6.53174 15.8717C7.2691 16.5473 8.20676 16.9448 9.19212 17V14.0187C8.97054 13.9817 8.75997 13.8971 8.57361 13.7686L6.53174 15.8717ZM9.79081 14.018V16.9955C10.7762 16.9275 11.7116 16.5254 12.4512 15.8513L10.424 13.7633C10.2318 13.891 10.0168 13.9772 9.79081 14.018ZM5.00052 7.20757C5.7753 8.00559 8.20456 10.5304 8.61397 10.9445C8.78858 10.8334 8.98008 10.7526 9.18038 10.7065V5.84503L5.00786 2C5.00052 2 5.00052 7.0655 5.00052 7.20757Z" fill="white"/>
</g>
</g>
<defs>
<clipPath id="clip0_5056_68073">
<rect width="20" height="20" fill="white"/>
</clipPath>
<clipPath id="clip1_5056_68073">
<rect width="9" height="15" fill="white" transform="translate(5 2)"/>
</clipPath>
</defs>
</svg>
