<svg width="20" height="20" viewBox="0 0 20 20" fill="none" xmlns="http://www.w3.org/2000/svg">
<path d="M10 20C15.5228 20 20 15.5228 20 10C20 4.47715 15.5228 0 10 0C4.47715 0 0 4.47715 0 10C0 15.5228 4.47715 20 10 20Z" fill="black"/>
<path d="M17.3394 8.46189C17.2405 7.98176 17.0944 7.5126 16.9031 7.06126C16.7146 6.61671 16.484 6.19122 16.2144 5.79064C15.947 5.39488 15.6421 5.02587 15.3037 4.68876C14.9664 4.35041 14.5972 4.04545 14.2012 3.77814C13.8001 3.50988 13.3749 3.27931 12.9312 3.08939C12.0137 2.70024 11.0273 2.49969 10.0306 2.49969C9.03397 2.49969 8.04752 2.70024 7.12999 3.08939C6.24277 3.46361 5.43693 4.00707 4.75749 4.68939C4.4192 5.0263 4.11424 5.39509 3.84686 5.79064C3.57857 6.19202 3.348 6.61738 3.15811 7.06126C2.76896 7.97879 2.56842 8.96524 2.56842 9.96189C2.56842 10.9585 2.76896 11.945 3.15811 12.8625C3.34186 13.3063 3.57936 13.7269 3.84686 14.1325C4.11423 14.5285 4.41918 14.8977 4.75749 15.235C5.09479 15.5734 5.46401 15.8783 5.85999 16.1456C6.25749 16.4131 6.68624 16.6431 7.12999 16.8344C8.04752 17.2235 9.03397 17.4241 10.0306 17.4241C11.0273 17.4241 12.0137 17.2235 12.9312 16.8344C13.375 16.6506 13.7956 16.4131 14.2012 16.1456C14.5972 15.8783 14.9664 15.5734 15.3037 15.235C15.6421 14.8977 15.9471 14.5285 16.2144 14.1325C16.4819 13.735 16.7119 13.3063 16.9031 12.8625C17.4919 11.4739 17.644 9.93904 17.3394 8.46189V8.46189ZM10.0375 16.49C6.43311 16.49 3.51749 13.5663 3.51749 9.96939C3.51749 6.37251 6.44124 3.44876 10.0375 3.44876C13.6344 3.44876 16.5581 6.37251 16.5581 9.96939C16.5581 13.5663 13.635 16.49 10.0375 16.49Z" fill="white"/>
<path d="M10.1531 15.9238H10.3294C10.36 15.9238 10.39 15.9238 10.4206 15.9157H10.4288C10.4594 15.9157 10.4819 15.9157 10.5125 15.9082H10.5356C10.5588 15.9082 10.5819 15.9082 10.6044 15.9007H10.6275C10.6506 15.9007 10.6738 15.8932 10.7044 15.8932H10.7194C10.75 15.8932 10.7806 15.885 10.8113 15.885C10.8419 15.885 10.865 15.8775 10.8956 15.87H10.9106C10.9338 15.87 10.9569 15.8625 10.9794 15.8625H10.995C11.0256 15.8544 11.0488 15.8544 11.0794 15.8469C11.14 15.8394 11.2013 15.8238 11.255 15.8088H11.2706C11.2931 15.8013 11.3238 15.8013 11.3469 15.7931H11.3544C11.4156 15.7781 11.4694 15.7625 11.5306 15.7475C10.9574 15.7657 10.3842 15.7117 9.82439 15.5869C8.98189 15.4032 8.17877 15.0744 7.49751 14.5075C6.96044 14.0606 6.52943 13.4998 6.23563 12.8659C5.94184 12.2319 5.79262 11.5406 5.79876 10.8419C5.80428 9.79954 6.17517 8.79212 6.84689 7.99503C7.71939 6.9619 8.95939 6.41815 10.2294 6.38753H10.4056V5.37003H10.2069C9.82053 5.3771 9.43587 5.42317 9.05877 5.50753C8.67928 5.59334 8.30994 5.71903 7.95689 5.88253C7.59689 6.05128 7.26001 6.25753 6.94626 6.49503C6.62205 6.74148 6.32683 7.02391 6.06626 7.3369C5.82093 7.62657 5.608 7.9422 5.43126 8.27815C5.25642 8.60202 5.11527 8.94297 5.01001 9.29565C4.90677 9.64288 4.83769 9.99936 4.80376 10.36L4.78064 10.6963V10.895C4.78814 11.2857 4.83439 11.6682 4.91814 12.0432C5.00251 12.4263 5.13251 12.7932 5.29314 13.1457C5.48501 13.5663 5.82939 14.1863 6.34189 14.6532C7.38833 15.4781 8.68252 15.9258 10.015 15.9238H10.1531Z" fill="white"/>
<path d="M11.8212 14.9438C11.4438 14.9303 11.0678 14.8893 10.6962 14.8213C9.11999 14.5381 7.76499 13.5738 7.26811 12.12C6.66311 10.3519 7.58936 8.43875 9.34936 7.8575C9.68477 7.7451 10.0362 7.6881 10.39 7.68875C10.8419 7.68875 11.2931 7.78063 11.7069 7.94875L12.135 7.03813C12.0062 6.98651 11.8762 6.93816 11.745 6.89313C11.3065 6.75551 10.8496 6.68574 10.39 6.68625C9.92955 6.68711 9.47225 6.76203 9.03561 6.90813C8.47834 7.09193 7.96509 7.38898 7.52811 7.78063C7.31737 7.96836 7.12523 8.17599 6.95436 8.40063C6.78546 8.6227 6.6393 8.86119 6.51811 9.1125C6.27133 9.61776 6.12569 10.1664 6.08936 10.7275C6.05124 11.3088 6.12749 11.89 6.31874 12.4413C6.5136 13.0083 6.82677 13.5275 7.23749 13.9644C7.61249 14.37 8.04874 14.6763 8.57624 14.9594C9.12749 15.25 9.80874 15.4031 10.52 15.5031C10.9794 15.5638 11.5919 15.5794 11.9512 15.5794C12.265 15.4644 12.395 15.4106 12.5637 15.3419C12.7094 15.2731 12.8544 15.2044 13 15.12C13.1456 15.0356 13.1687 15.02 13.4131 14.86C13.4349 14.8465 13.4554 14.831 13.4744 14.8138C12.6325 14.9594 12.4181 14.9513 11.8212 14.9438V14.9438Z" fill="white"/>
<path d="M13.7044 13.8038C13.4669 13.8188 13.13 13.8413 12.7475 13.8413C12.0663 13.8413 11.2319 13.7806 10.5206 13.5431C9.41813 13.1763 8.37751 12.235 8.37751 11.0713C8.37726 10.7958 8.43133 10.5231 8.53662 10.2685C8.64191 10.014 8.79636 9.78277 8.99112 9.58801C9.18588 9.39325 9.41714 9.2388 9.67165 9.13351C9.92617 9.02822 10.1989 8.97415 10.4744 8.9744C11.2625 8.9744 11.9438 9.41065 12.3038 10.0456L13.2144 9.5944C13.0716 9.32558 12.8882 9.0804 12.6706 8.86752C12.3824 8.57875 12.04 8.34965 11.6631 8.19334C11.2861 8.03703 10.8821 7.95657 10.4741 7.95657C10.066 7.95657 9.662 8.03703 9.28509 8.19334C8.90818 8.34965 8.56579 8.57875 8.27751 8.86752C7.98883 9.15579 7.75981 9.49814 7.60356 9.875C7.44731 10.2518 7.36688 10.6558 7.36688 11.0638C7.36892 11.4913 7.46047 11.9137 7.63563 12.3038C7.79563 12.6556 8.01813 12.985 8.30126 13.2913C8.79876 13.8263 9.47938 14.255 10.2069 14.5C10.9031 14.7294 11.9288 14.8138 12.9238 14.745C13.1988 14.7219 13.4056 14.6988 13.7575 14.6225C14.0971 14.3546 14.4053 14.0491 14.6763 13.7119C14.4388 13.735 14.0025 13.7806 13.7044 13.8038V13.8038Z" fill="white"/>
</svg>
