<svg width="20" height="20" viewBox="0 0 20 20" fill="none" xmlns="http://www.w3.org/2000/svg">
<rect width="20" height="20" fill="black"/>
<path d="M7.60966 10.4949L8.00739 10.568L8.10284 10.7951C8.16648 10.9413 8.29773 11.0491 8.45683 11.0876L8.49262 11.0953C8.75512 11.1569 9.02159 11.0145 9.10512 10.7643L8.95796 10.6873L5.625 9.0017L8.37329 4.6875L7.10455 8.4783L10 9.61746L12.8994 8.4783L11.6267 4.6875L14.375 9.00555L11.042 10.6912L10.8949 10.7643C10.9784 11.0106 11.2449 11.1569 11.5074 11.0953L11.5432 11.0876C11.7023 11.0491 11.8335 10.9413 11.8972 10.7951L11.9926 10.568L12.3903 10.4949L12.633 11.23L10.4614 13.5737C10.4653 13.5776 10.4653 13.5776 10.4693 13.5814L10.4733 13.5853C10.6364 13.7392 10.8909 13.7585 11.0778 13.6276L11.1256 13.5968C11.2449 13.5122 11.3165 13.3775 11.3165 13.2312V13.008L11.7341 12.7194L11.8057 13.5583L10.004 15.625L8.20227 13.5583L8.27386 12.7194L8.69146 13.008V13.2312C8.69146 13.3736 8.76308 13.5122 8.88238 13.5968L8.93012 13.6276C9.11704 13.7585 9.37159 13.7392 9.53466 13.5853L9.53863 13.5814C9.54262 13.5776 9.54262 13.5776 9.54659 13.5737L7.375 11.23L7.60966 10.4949Z" fill="white"/>
</svg>
