<svg width="20" height="20" viewBox="0 0 20 20" fill="none" xmlns="http://www.w3.org/2000/svg">
<circle cx="10" cy="10" r="10" fill="#FACFD8"/>
<path d="M8.40778 13.4499C8.16134 13.2109 7.856 13.0914 7.49174 13.0914C7.13817 13.0914 6.83552 13.2109 6.58373 13.4499C6.33193 13.6889 6.20605 13.9943 6.20605 14.3662C6.20605 14.738 6.33193 15.0407 6.58373 15.2744C6.83552 15.5082 7.13817 15.625 7.49174 15.625C7.856 15.625 8.16134 15.5082 8.40778 15.2744C8.65421 15.0407 8.77739 14.738 8.77739 14.3662C8.77739 13.9943 8.65421 13.6889 8.40778 13.4499Z" fill="#EC6998"/>
<path d="M13.3257 13.4499C13.0793 13.2109 12.774 13.0914 12.4097 13.0914C12.0561 13.0914 11.7534 13.2109 11.5017 13.4499C11.2499 13.6889 11.124 13.9943 11.124 14.3662C11.124 14.738 11.2499 15.0407 11.5017 15.2744C11.7534 15.5082 12.0561 15.625 12.4097 15.625C12.774 15.625 13.0793 15.5082 13.3257 15.2744C13.5722 15.0407 13.6954 14.738 13.6954 14.3662C13.6954 13.9943 13.5722 13.6889 13.3257 13.4499Z" fill="#EC6998"/>
<path d="M8.53645 4.375H6.4633V7.33889C6.4633 7.79301 6.47203 8.22914 6.48948 8.64712C6.34549 8.69438 6.2026 8.74474 6.06083 8.79824C4.86057 9.25117 3.78772 9.8662 2.84231 10.6433L2.8125 10.668L3.63747 11.9095C4.52138 11.2668 5.49121 10.7653 6.54697 10.405C6.57111 10.3968 6.59529 10.3887 6.61943 10.3806C6.67076 10.8774 6.73175 11.3753 6.80235 11.8745L6.81684 11.9759H8.19895C8.28642 11.3013 8.36066 10.6311 8.42164 9.96514C8.91447 9.89809 9.42148 9.86456 9.94265 9.86456C10.475 9.86456 10.9931 9.89955 11.4969 9.96953C11.5556 10.6026 11.6299 11.2376 11.7201 11.8745L11.7345 11.9759H13.1167C13.1856 11.4443 13.2463 10.9154 13.2988 10.3892L13.3457 10.405C14.3939 10.7611 15.3509 11.255 16.2169 11.8869L16.2478 11.9095L17.0728 10.668C16.1201 9.87917 15.0374 9.25595 13.8244 8.79824C13.6932 8.74873 13.561 8.70187 13.4279 8.65775C13.4448 8.25381 13.4535 7.83114 13.4541 7.38969L13.4542 4.375H11.381V7.33889C11.381 7.6336 11.3847 7.9207 11.392 8.20018C10.9194 8.14123 10.4362 8.11173 9.94265 8.11173C9.46037 8.11173 8.98804 8.1399 8.52573 8.19624C8.53246 7.9347 8.536 7.66585 8.5364 7.38969L8.53645 4.375Z" fill="#EC6998"/>
</svg>
