<svg width="20" height="20" viewBox="0 0 20 20" fill="none" xmlns="http://www.w3.org/2000/svg">
<path fill-rule="evenodd" clip-rule="evenodd" d="M9.64103 0.0512821C9.64103 0.0794872 9.59487 0.102564 9.53846 0.102564C9.48205 0.102564 9.4359 0.125641 9.4359 0.153846C9.4359 0.182051 9.38974 0.205128 9.33333 0.205128C9.27692 0.205128 9.23077 0.228205 9.23077 0.25641C9.23077 0.284615 9.1961 0.307692 9.15379 0.307692C9.06046 0.307692 0.307692 9.04923 0.307692 9.14246C0.307692 9.17856 0.261538 9.24138 0.205128 9.28205C0.144923 9.32549 0.102564 9.41482 0.102564 9.49851C0.102564 9.57687 0.0794872 9.64103 0.0512821 9.64103C0.022 9.64103 0 9.79487 0 10C0 10.2051 0.022 10.359 0.0512821 10.359C0.0794872 10.359 0.102564 10.4231 0.102564 10.5015C0.102564 10.5852 0.144923 10.6745 0.205128 10.7179C0.261538 10.7586 0.307692 10.8214 0.307692 10.8575C0.307692 10.9508 9.06046 19.6923 9.15379 19.6923C9.1961 19.6923 9.23077 19.7154 9.23077 19.7436C9.23077 19.7718 9.27692 19.7949 9.33333 19.7949C9.38974 19.7949 9.4359 19.8179 9.4359 19.8462C9.4359 19.8744 9.48205 19.8974 9.53846 19.8974C9.59487 19.8974 9.64103 19.9205 9.64103 19.9487C9.64103 19.978 9.79487 20 10 20C10.2051 20 10.359 19.978 10.359 19.9487C10.359 19.9205 10.4231 19.8974 10.5015 19.8974C10.5852 19.8974 10.6745 19.8551 10.7179 19.7949C10.7586 19.7385 10.8214 19.6923 10.8575 19.6923C10.9434 19.6923 19.6923 10.9434 19.6923 10.8575C19.6923 10.8214 19.7385 10.7586 19.7949 10.7179C19.8551 10.6745 19.8974 10.5852 19.8974 10.5015C19.8974 10.4231 19.9205 10.359 19.9487 10.359C19.978 10.359 20 10.2051 20 10C20 9.79487 19.978 9.64103 19.9487 9.64103C19.9205 9.64103 19.8974 9.57687 19.8974 9.49851C19.8974 9.41482 19.8551 9.32549 19.7949 9.28205C19.7385 9.24138 19.6923 9.17856 19.6923 9.14246C19.6923 9.05656 10.9434 0.307692 10.8575 0.307692C10.8214 0.307692 10.7586 0.261538 10.7179 0.205128C10.6745 0.144923 10.5852 0.102564 10.5015 0.102564C10.4231 0.102564 10.359 0.0794872 10.359 0.0512821C10.359 0.022 10.2051 0 10 0C9.79487 0 9.64103 0.022 9.64103 0.0512821Z" fill="#F0B80B"/>
<path fill-rule="evenodd" clip-rule="evenodd" d="M9.32213 5.94304C8.1287 6.02678 7.16454 6.25576 6.48911 6.61576C5.69147 7.04088 5.20265 7.78504 5.093 8.74099C5.02562 9.32858 5.04834 9.33632 6.34044 9.16565C7.16095 9.05724 7.30962 9.00637 7.45526 8.78406C7.55172 8.63694 7.86957 8.5255 8.05803 8.57278C8.12947 8.59073 8.26424 8.68571 8.35757 8.78391L8.52726 8.96247L10.5337 8.99699C12.5294 9.03135 12.541 9.03094 12.7192 8.92078C12.9716 8.76478 13.1344 8.78017 13.3604 8.9815C13.5403 9.14165 13.6064 9.16201 14.3686 9.29212C15.4239 9.47227 15.3806 9.50637 15.2052 8.63227C15.0627 7.92237 14.9072 7.55145 14.6309 7.26227C13.836 6.43037 12.8599 6.08094 10.9375 5.94001C10.1568 5.88278 10.1808 5.88278 9.32213 5.94304ZM11.1916 6.27376C11.2835 6.34324 11.285 6.35632 11.2097 6.43165C11.1402 6.50109 11.099 6.50437 10.9428 6.45283C10.7331 6.38365 10.7219 6.3616 10.8478 6.26606C10.9643 6.1776 11.0675 6.17991 11.1916 6.27376ZM9.56947 6.33022C9.56034 6.37658 9.46839 6.46791 9.36511 6.53324L9.17731 6.65201L9.09244 6.52247C8.97341 6.34078 9.06444 6.24596 9.35783 6.24596C9.54208 6.24596 9.58285 6.26222 9.56947 6.33022ZM13.063 6.6134C13.1769 6.71945 13.178 6.72745 13.0885 6.79289C13.037 6.83053 12.9659 6.86135 12.9306 6.86135C12.824 6.86135 12.5845 6.62699 12.6246 6.56206C12.6848 6.46468 12.9348 6.49396 13.063 6.6134ZM7.66024 6.61268C7.68157 6.64719 7.62424 6.73089 7.52229 6.81417C7.36167 6.94524 7.34065 6.95012 7.25803 6.8754C7.20865 6.83073 7.16829 6.76427 7.16829 6.72776C7.16829 6.58191 7.58152 6.4853 7.66024 6.61268ZM10.2351 6.58668L10.3531 6.61827L10.239 6.73981C10.1155 6.87119 9.94321 6.89781 9.84593 6.80053C9.79901 6.7536 9.80434 6.71842 9.86926 6.64668C9.95803 6.54858 10.0416 6.53483 10.2351 6.58668ZM11.8684 6.63247C11.9056 6.72945 11.7485 6.91263 11.6281 6.91263C11.5167 6.91263 11.4045 6.78171 11.4512 6.70617C11.5363 6.56842 11.8243 6.51755 11.8684 6.63247ZM8.64854 6.72478C8.69193 6.77704 8.67813 6.81883 8.59075 6.90027L8.47598 7.00709L8.32844 6.88863C8.24711 6.82335 8.19665 6.74458 8.21608 6.71319C8.26531 6.63345 8.57977 6.64191 8.64854 6.72478ZM8.14265 9.30309C8.01572 9.31427 7.41572 9.35863 6.80931 9.4016C5.49285 9.49499 5.13926 9.54653 4.78598 9.69673C4.30952 9.89924 4.15167 10.0938 4.32403 10.2662C4.44675 10.3889 4.67398 10.3666 5.06936 10.1931C5.41398 10.0418 5.42803 10.0399 5.5887 10.123C5.72516 10.1936 5.84321 10.2027 6.26875 10.1755C6.71218 10.1472 6.82111 10.1569 7.05347 10.2456C7.20183 10.3022 7.41506 10.3485 7.52726 10.3485C7.79331 10.3485 8.22424 10.1827 8.4029 10.0115L8.54444 9.87591L8.81788 9.96755C9.17065 10.0857 9.48603 10.0845 9.82167 9.96376L10.0905 9.86704L10.2573 9.99032C10.3707 10.0743 10.4815 10.1101 10.6038 10.1025C11.1041 10.0716 11.3235 10.0868 11.6109 10.1725C11.9141 10.2629 11.9361 10.2629 12.2263 10.1742C12.6817 10.035 12.8777 10.0205 13.0565 10.113C13.2699 10.2233 13.5207 10.2153 13.7067 10.0921C13.8927 9.96894 14.0821 9.96247 14.3366 10.0705C14.4415 10.115 14.7086 10.2181 14.9302 10.2997C15.3038 10.4371 15.3439 10.4424 15.48 10.3721C15.6689 10.2744 15.7524 10.1228 15.6859 9.99858C15.6239 9.88273 14.8851 9.65109 14.3478 9.57894C13.0147 9.40006 11.7243 9.31535 10.0914 9.29945C9.14649 9.29027 8.26957 9.29191 8.14265 9.30309ZM13.2196 10.9414C10.7692 11.1841 9.24459 11.2053 6.51111 11.0347C5.54495 10.9745 5.24757 10.9707 5.19059 11.018C5.0927 11.0992 5.09572 11.4465 5.19501 11.5289C5.27106 11.5921 7.95926 11.7935 8.05742 11.7434C8.08106 11.7313 8.41567 11.7128 8.801 11.7023C12.3191 11.6057 14.4615 11.4689 14.9452 11.3101C15.1497 11.2429 15.2657 11.0555 15.2033 10.893C15.16 10.7801 14.7453 10.7902 13.2196 10.9414ZM14.8003 11.6567C14.7651 11.6919 13.4884 11.8672 12.758 11.9371C12.4337 11.9682 11.6952 12.0119 11.117 12.0344C9.94003 12.08 9.89485 12.0923 9.45695 12.4848C9.02957 12.8679 8.80141 12.8372 8.52726 12.36C8.44265 12.2127 8.32726 12.0812 8.27085 12.0679C8.11639 12.0313 6.07675 11.9143 5.57854 11.9134L5.14265 11.9126L5.12654 12.1082C5.10295 12.3946 5.35906 12.9066 5.68454 13.2237C6.18044 13.7067 6.71639 13.8963 7.83495 13.9845C10.8595 14.223 13.293 14.0034 14.3281 13.3986C14.6538 13.2084 15.0322 12.7631 15.1326 12.452C15.2209 12.1788 15.245 11.859 15.1884 11.7117C15.1591 11.6353 14.8636 11.5934 14.8003 11.6567Z" fill="#1E2125"/>
</svg>
