<svg width="20" height="20" viewBox="0 0 20 20" fill="none" xmlns="http://www.w3.org/2000/svg">
<g clip-path="url(#clip0_4774_59438)">
<circle cx="10" cy="10" r="10" fill="#131419"/>
<path d="M10.0001 3L11.7345 4.77083L7.36724 9.125L5.63288 7.39583L10.0001 3Z" fill="#F0B90B"/>
<path d="M12.633 5.625L14.3674 7.39583L7.36724 14.375L5.63288 12.6458L12.633 5.625Z" fill="#F0B90B"/>
<path d="M4.73436 8.25L6.46872 10.0208L4.73436 11.75L3 10.0208L4.73436 8.25Z" fill="#F0B90B"/>
<path d="M15.2659 8.25L17.0002 10.0208L10.0001 17L8.26576 15.2708L15.2659 8.25Z" fill="#F0B90B"/>
<circle cx="15" cy="15" r="5" fill="#525252"/>
<path fill-rule="evenodd" clip-rule="evenodd" d="M13.4097 14.3483L15 12.7579L16.5903 14.3483L17.5148 13.4238L15 10.909L12.4852 13.4238L13.4097 14.3483ZM11.8327 14.0782L10.9093 15.0016L11.8327 15.925L12.7561 15.0016L11.8327 14.0782ZM15 17.2445L13.4097 15.6541L12.4852 16.5786L15 19.0934L17.5148 16.5786L16.5903 15.6541L15 17.2445ZM18.1675 14.0783L17.2441 15.0017L18.1675 15.9251L19.0909 15.0017L18.1675 14.0783ZM15.0005 14.0638L15.9379 15.0012L15.0005 15.9386L14.0631 15.0012L14.2247 14.8331L14.3087 14.7556L15.0005 14.0638Z" fill="#E5E5E5"/>
</g>
<defs>
<clipPath id="clip0_4774_59438">
<rect width="20" height="20" fill="white"/>
</clipPath>
</defs>
</svg>
