<svg width="20" height="20" viewBox="0 0 20 20" fill="none" xmlns="http://www.w3.org/2000/svg">
<g clip-path="url(#clip0_4774_59441)">
<circle cx="10" cy="10" r="10" fill="#131419"/>
<path d="M10.0001 3L11.7345 4.77083L7.36724 9.125L5.63288 7.39583L10.0001 3Z" fill="#F0B90B"/>
<path d="M12.633 5.625L14.3674 7.39583L7.36724 14.375L5.63288 12.6458L12.633 5.625Z" fill="#F0B90B"/>
<path d="M4.73436 8.25L6.46872 10.0208L4.73436 11.75L3 10.0208L4.73436 8.25Z" fill="#F0B90B"/>
<path d="M15.2659 8.25L17.0002 10.0208L10.0001 17L8.26576 15.2708L15.2659 8.25Z" fill="#F0B90B"/>
<path d="M17.0315 10L20.0713 15.0231L17.0427 13.7287L17.0315 10Z" fill="#E68F7B"/>
<path d="M14 15.0231L17.0314 10L17.0427 13.7287L14 15.0231Z" fill="#F8EC7C"/>
<path d="M17.0314 16.875L14 15.0229L17.0427 13.7285L17.0314 16.875Z" fill="#6EB87D"/>
<path d="M20.0713 15.0229L17.0427 13.7285L17.0315 16.875L20.0713 15.0229Z" fill="#946BA7"/>
<path d="M17.0315 17.5127L20.0713 15.7108L17.0315 19.9939V17.5127Z" fill="#697CB9"/>
<path d="M17.0314 17.5127L14 15.7108L17.0314 19.9939V17.5127Z" fill="#4FADD0"/>
</g>
<defs>
<clipPath id="clip0_4774_59441">
<rect width="20" height="20" fill="white"/>
</clipPath>
</defs>
</svg>
