<svg width="20" height="20" viewBox="0 0 20 20" fill="none" xmlns="http://www.w3.org/2000/svg">
<g clip-path="url(#clip0_4774_59447)">
<circle cx="10" cy="10" r="10" fill="#131419"/>
<path d="M10.0001 3L11.7345 4.77083L7.36724 9.125L5.63288 7.39583L10.0001 3Z" fill="#F0B90B"/>
<path d="M12.633 5.625L14.3674 7.39583L7.36724 14.375L5.63288 12.6458L12.633 5.625Z" fill="#F0B90B"/>
<path d="M4.73436 8.25L6.46872 10.0208L4.73436 11.75L3 10.0208L4.73436 8.25Z" fill="#F0B90B"/>
<path d="M15.2659 8.25L17.0002 10.0208L10.0001 17L8.26576 15.2708L15.2659 8.25Z" fill="#F0B90B"/>
<g clip-path="url(#clip1_4774_59447)">
<path d="M15 20C17.7614 20 20 17.7614 20 15C20 12.2386 17.7614 10 15 10C12.2386 10 10 12.2386 10 15C10 17.7614 12.2386 20 15 20Z" fill="#E84142"/>
<path d="M16.7638 15.1299C16.937 14.8307 17.2165 14.8307 17.3898 15.1299L18.4685 17.0236C18.6417 17.3228 18.5 17.5669 18.1535 17.5669H15.9803C15.6378 17.5669 15.4961 17.3228 15.6653 17.0236L16.7638 15.1299ZM14.6772 11.4842C14.8504 11.185 15.126 11.185 15.2992 11.4842L15.5394 11.9173L16.1063 12.9134C16.2441 13.1968 16.2441 13.5315 16.1063 13.8149L14.2047 17.1102C14.0315 17.3779 13.7441 17.5472 13.4252 17.5669H11.8464C11.5 17.5669 11.3583 17.3268 11.5315 17.0236L14.6772 11.4842Z" fill="white"/>
</g>
</g>
<defs>
<clipPath id="clip0_4774_59447">
<rect width="20" height="20" fill="white"/>
</clipPath>
<clipPath id="clip1_4774_59447">
<rect width="10" height="10" fill="white" transform="translate(10 10)"/>
</clipPath>
</defs>
</svg>
