<svg width="20" height="20" viewBox="0 0 20 20" fill="none" xmlns="http://www.w3.org/2000/svg">
<circle cx="10" cy="10" r="10" fill="#FAD716"/>
<path d="M11.2934 16.4491C13.7405 15.9375 15.681 14.0449 16.2632 11.6255H12.7879C11.8882 13.3417 10.7818 12.9637 9.76118 13.372C9.4008 13.5156 9.10342 13.7954 8.95473 14.3145C8.95473 14.3145 8.48094 13.9239 8.37761 13.8458C8.27177 13.7676 7.87106 13.687 7.61905 13.6442C7.36703 13.6013 7.04445 13.5307 6.95372 13.3669C6.86552 13.2031 6.88316 12.999 6.91592 12.8805C6.94616 12.7646 6.90332 12.6033 6.87812 12.5529C6.8504 12.5025 6.72943 12.3967 6.71179 12.2858C6.69163 12.1724 6.926 11.9632 6.926 11.9632C6.926 11.9632 6.71935 11.9002 6.65634 11.8574C6.59334 11.8145 6.5757 11.7339 6.54294 11.6507C6.5127 11.5701 6.53034 11.4642 6.53034 11.4642L6.51774 11.1719C6.51774 11.1719 6.41693 11.0937 6.36905 11.066C6.32116 11.0383 6.24052 11.0307 6.19516 10.9224C6.14979 10.814 6.17247 10.6578 6.17247 10.6578C6.17247 10.6578 6.27832 10.3831 6.3388 10.1512C6.40181 9.92188 6.61854 9.61442 6.61854 9.56905C6.61854 9.52369 6.54042 9.48085 6.54042 9.48085C6.54042 9.48085 6.40181 9.35736 6.37661 9.29687C6.35392 9.23891 6.37409 9.11542 6.37409 9.11542L6.44717 8.99446C6.44717 8.99446 6.47489 8.67944 6.46733 8.60887C6.45977 8.53831 6.55302 8.29385 6.55302 8.29385C6.55302 8.29385 6.6387 7.89819 6.72439 7.67137C6.81007 7.44708 7.54092 6.72379 7.54092 6.72379C7.24102 6.25756 8.16592 5.89214 8.58679 5.76865C9.00766 5.64516 9.85443 5.43599 10.9885 5.65272C12.3242 5.90474 13.0979 7.39415 13.1281 8.89113H16.3312C15.8474 6.31804 13.8464 4.28175 11.2909 3.74496V2.8125H8.50614V3.7752C5.62056 4.43296 3.46582 7.01613 3.46582 10.1008C3.46582 13.1855 5.62056 15.7686 8.50614 16.4264V17.5H11.2909V16.4491H11.2934ZM12.1957 12.8125C11.8151 13.6946 10.8398 14.5338 9.56965 14.9798L9.61249 15.5091C9.61249 15.7611 9.43356 15.8367 9.31512 15.7182L8.95221 15.4814L8.73548 15.6603C8.4759 15.8745 8.37257 15.7182 8.31713 15.5645C8.20624 15.2571 8.16844 14.9622 8.30957 14.5943C8.4633 14.5791 8.60191 14.6018 8.83124 14.7026L9.06814 14.5766C9.19415 14.5035 9.30251 14.5161 9.34032 14.6598L9.42852 14.874L9.44112 14.3296C9.44112 14.3296 10.9608 14.2213 12.1957 12.815V12.8125Z" fill="black"/>
</svg>
