<svg width="21" height="20" viewBox="0 0 21 20" fill="none" xmlns="http://www.w3.org/2000/svg">
<circle cx="10" cy="10" r="10" fill="white"/>
<path d="M10 0C4.47619 0 0 4.47619 0 10C0 14.381 2.85714 18.2857 6.95238 19.5238C7.14286 19.5238 7.33333 19.5238 7.52381 19.4286H7.61905C8.28571 19.1429 8.76191 18.4762 8.76191 17.8095V11.5238H6.66667C6 11.5238 5.42857 10.9524 5.42857 10.2857C5.42857 9.61905 6 9.04762 6.66667 9.04762H13.3333C14 9.04762 14.5714 9.61905 14.5714 10.2857C14.5714 10.9524 14 11.5238 13.3333 11.5238H11.2381V17.8095C11.2381 18.5714 11.7143 19.2381 12.4762 19.5238C12.5714 19.5238 12.6667 19.619 12.8571 19.619C12.9524 19.619 12.9524 19.619 13.0476 19.619C18.2857 17.9048 21.2381 12.2857 19.5238 7.04762C18.1905 2.85714 14.381 0 10 0ZM2.95238 11.619C2.28571 11.619 1.71429 11.0476 1.71429 10.381C1.71429 9.71428 2.28571 9.14286 2.95238 9.14286C3.61905 9.14286 4.19048 9.71428 4.19048 10.381C4.19048 11.0476 3.61905 11.619 2.95238 11.619ZM10 7.23809C8.66667 7.23809 7.61905 6.19048 7.61905 4.85714C7.61905 3.52381 8.66667 2.47619 10 2.47619C11.3333 2.47619 12.381 3.52381 12.381 4.85714C12.381 6.19048 11.3333 7.23809 10 7.23809ZM17.1429 11.619C16.4762 11.619 15.9048 11.0476 15.9048 10.381C15.9048 9.71428 16.4762 9.14286 17.1429 9.14286C17.8095 9.14286 18.381 9.71428 18.381 10.381C18.2857 11.0476 17.8095 11.619 17.1429 11.619Z" fill="black"/>
</svg>
