<svg width="20" height="20" viewBox="0 0 20 20" fill="none" xmlns="http://www.w3.org/2000/svg">
<path fill-rule="evenodd" clip-rule="evenodd" d="M9.63934 20C15.2527 20 19.541 15.5806 19.541 9.96721C19.541 4.13115 14.8852 0.590164 11.6721 0C11.4253 0 10.6885 0.131148 10.0328 0.393443C9.31147 0.393443 8.55177 0.582939 8.51216 1.04918C8.43415 1.96721 9.11475 2.42623 9.11475 2.42623C9.44629 2.63419 9.77182 2.73916 10.1304 2.85478C10.4546 2.95935 10.8059 3.07263 11.2131 3.27869C11.495 3.42134 11.8829 3.34016 12.0818 3.29856C12.1364 3.28713 12.1768 3.27869 12.1967 3.27869C14.2951 4.19672 16.3934 5.31148 17.2459 9.96721C17.2459 14.6752 13.8883 18.4262 9.18033 18.4262C4.47234 18.4262 0.721311 14.6752 0.721311 9.96721C0.721311 5.63745 4.26229 2.55738 8.13115 1.31148C4.13115 1.96721 0 5.01075 0 9.96721C0 15.5806 4.026 20 9.63934 20ZM10.6885 2.16393C11.0145 2.16393 11.2787 2.01714 11.2787 1.83607C11.2787 1.65499 11.0145 1.5082 10.6885 1.5082C10.3626 1.5082 10.0984 1.65499 10.0984 1.83607C10.0984 2.01714 10.3626 2.16393 10.6885 2.16393Z" fill="#486B94"/>
<path d="M9.86852 3.55627C9.50997 3.44065 9.18444 3.33568 8.85291 3.12772C8.85291 3.12772 8.40003 2.82229 8.27546 2.21143C4.99445 2.58442 2.3482 5.11734 1.71739 8.39348C4.1316 8.39348 7.27914 7.99022 10.689 3.85615C10.39 3.72443 10.1211 3.63771 9.86852 3.55627Z" fill="#B85C80"/>
<path d="M9.1143 17.6393C13.2791 17.6393 16.5897 14.5573 16.393 9.9016C16.393 7.7802 15.0033 5.98746 13.4031 4.65568C13.2427 4.52513 13.0489 4.41114 12.852 4.31519C11.4094 8.72126 9.57332 12.7868 2.42578 13.4787C3.68442 15.9515 6.20726 17.6393 9.1143 17.6393Z" fill="#2F4B69"/>
<path d="M11.8199 3.99998C11.6211 4.04158 11.2331 4.12276 10.9513 3.98011C10.8612 3.93453 10.7739 3.89349 10.689 3.85608C7.27914 7.99015 4.1316 8.39341 1.71739 8.39341C1.62346 8.88123 1.57422 9.38553 1.57422 9.90163C1.57422 11.1922 1.88213 12.4089 2.42668 13.4787C9.57422 12.7869 11.4103 8.72128 12.8529 4.31521C12.4961 4.14128 12.1294 4.02663 11.9349 3.98011C11.9149 3.98011 11.8746 3.98855 11.8199 3.99998Z" fill="#486C94"/>
<path fill-rule="evenodd" clip-rule="evenodd" d="M13.494 12.5902C12.6687 13.9651 11.1633 14.8852 9.44299 14.8852C6.83554 14.8852 4.72168 12.7714 4.72168 10.1639C4.72168 7.55644 6.83554 5.44263 9.44299 5.44263C11.1633 5.44263 12.6687 6.36275 13.494 7.73771L12.159 8.52459C11.6216 7.6215 10.6357 7.0164 9.50856 7.0164C7.80646 7.0164 6.4266 8.39625 6.4266 10.0984C6.4266 11.8005 7.80646 13.1803 9.50856 13.1803C10.6357 13.1803 11.6216 12.5752 12.159 11.6721L13.494 12.5902Z" fill="#F6F7F5"/>
</svg>
