<svg width="20" height="20" viewBox="0 0 20 20" fill="none" xmlns="http://www.w3.org/2000/svg">
<g clip-path="url(#clip0_973_83)">
<circle cx="9.97949" cy="10" r="10" fill="url(#paint0_linear_973_83)"/>
<path d="M4.60054 10C4.60054 7.14683 6.9135 4.83388 9.76667 4.83388C10.8804 4.83388 11.9095 5.18534 12.7524 5.78348L13.0949 6.02649C13.284 6.1607 13.5461 6.11617 13.6804 5.92704L14.1664 5.24214C14.3006 5.05301 14.2561 4.79089 14.0669 4.65669L13.7245 4.41368C12.6068 3.6206 11.24 3.15424 9.76667 3.15424C5.98586 3.15424 2.9209 6.21919 2.9209 10C2.9209 13.7808 5.98586 16.8458 9.76667 16.8458C11.612 16.8458 13.2882 16.1146 14.5186 14.9279L14.8208 14.6364C14.9877 14.4754 14.9925 14.2096 14.8316 14.0427L14.2485 13.4382C14.0876 13.2712 13.8217 13.2664 13.6548 13.4274L13.3526 13.7189C12.4226 14.6158 11.1598 15.1661 9.76667 15.1661C6.9135 15.1661 4.60054 12.8532 4.60054 10Z" fill="white"/>
<path fill-rule="evenodd" clip-rule="evenodd" d="M15.4294 5.90601C14.5182 5.90601 13.7795 6.64467 13.7795 7.55586C13.7795 8.46704 14.5182 9.20571 15.4294 9.20571C16.3406 9.20571 17.0792 8.46704 17.0792 7.55586C17.0792 6.64467 16.3406 5.90601 15.4294 5.90601ZM14.9553 7.55586C14.9553 7.29402 15.1676 7.08175 15.4294 7.08175C15.6912 7.08175 15.9035 7.29402 15.9035 7.55586C15.9035 7.8177 15.6912 8.02996 15.4294 8.02996C15.1676 8.02996 14.9553 7.8177 14.9553 7.55586Z" fill="white"/>
</g>
<defs>
<linearGradient id="paint0_linear_973_83" x1="9.97949" y1="0" x2="-0.0205078" y2="10" gradientUnits="userSpaceOnUse">
<stop stop-color="#F1C26F"/>
<stop offset="1" stop-color="#E47F3E"/>
</linearGradient>
<clipPath id="clip0_973_83">
<rect width="20" height="20" fill="white"/>
</clipPath>
</defs>
</svg>
