<svg width="20" height="20" viewBox="0 0 20 20" fill="none" xmlns="http://www.w3.org/2000/svg">
<circle cx="10" cy="10" r="10" fill="#FBCC5C"/>
<path d="M8.68421 14.9342C10.6826 14.9342 12.3026 13.3142 12.3026 11.3158C12.3026 9.31738 10.6826 7.69738 8.68421 7.69738C6.68579 7.69738 5.06579 9.31738 5.06579 11.3158C5.06579 13.3142 6.68579 14.9342 8.68421 14.9342ZM8.68421 16.25C5.95921 16.25 3.75 14.0408 3.75 11.3158C3.75 8.5908 5.95921 6.38159 8.68421 6.38159C11.4092 6.38159 13.6184 8.5908 13.6184 11.3158C13.6184 14.0408 11.4092 16.25 8.68421 16.25Z" fill="#FFFEFC"/>
<path d="M11.3158 12.3026C13.3142 12.3026 14.9342 10.6826 14.9342 8.68421C14.9342 6.68579 13.3142 5.06579 11.3158 5.06579C9.31738 5.06579 7.69738 6.68579 7.69738 8.68421C7.69738 10.6826 9.31738 12.3026 11.3158 12.3026ZM11.3158 13.6184C8.5908 13.6184 6.38159 11.4092 6.38159 8.68421C6.38159 5.95921 8.5908 3.75 11.3158 3.75C14.0408 3.75 16.25 5.95921 16.25 8.68421C16.25 11.4092 14.0408 13.6184 11.3158 13.6184Z" fill="#FFFEFC"/>
</svg>
