<svg width="20" height="20" viewBox="0 0 20 20" fill="none" xmlns="http://www.w3.org/2000/svg">
<path fill-rule="evenodd" clip-rule="evenodd" d="M8.93512 0.0485437C8.93512 0.0762621 8.78949 0.0970874 8.59532 0.0970874C8.40114 0.0970874 8.25551 0.117913 8.25551 0.145631C8.25551 0.17233 8.14629 0.194175 8.01279 0.194175C7.8793 0.194175 7.77008 0.216019 7.77008 0.242718C7.77008 0.269417 7.6827 0.291262 7.5759 0.291262C7.46911 0.291262 7.38173 0.313107 7.38173 0.339806C7.38173 0.366505 7.31619 0.38835 7.2361 0.38835C7.156 0.38835 7.09046 0.410194 7.09046 0.436893C7.09046 0.463592 7.02493 0.485437 6.94483 0.485437C6.86474 0.485437 6.7992 0.507282 6.7992 0.533981C6.7992 0.56068 6.73367 0.582524 6.65357 0.582524C6.57347 0.582524 6.50794 0.604369 6.50794 0.631068C6.50794 0.657767 6.44241 0.679612 6.36231 0.679612C6.28221 0.679612 6.21668 0.701456 6.21668 0.728155C6.21668 0.754854 6.17299 0.776699 6.11959 0.776699C6.06619 0.776699 6.0225 0.798544 6.0225 0.825243C6.0225 0.851942 5.97881 0.873786 5.92542 0.873786C5.87202 0.873786 5.82833 0.895631 5.82833 0.92233C5.82833 0.949029 5.78464 0.970874 5.73124 0.970874C5.67784 0.970874 5.63415 0.992718 5.63415 1.01942C5.63415 1.04612 5.59046 1.06796 5.53707 1.06796C5.48367 1.06796 5.43998 1.08981 5.43998 1.1165C5.43998 1.1432 5.39629 1.16505 5.34289 1.16505C5.28949 1.16505 5.2458 1.18689 5.2458 1.21359C5.2458 1.24029 5.20692 1.26214 5.15944 1.26214C5.11192 1.26214 5.04158 1.30583 5.00309 1.35922C4.96459 1.41262 4.89425 1.45631 4.84673 1.45631C4.79925 1.45631 4.76037 1.47816 4.76037 1.50485C4.76037 1.53155 4.72148 1.5534 4.67401 1.5534C4.62648 1.5534 4.55614 1.59709 4.51765 1.65049C4.47915 1.70388 4.41755 1.74757 4.38076 1.74757C4.34401 1.74757 4.25265 1.81311 4.17784 1.8932C4.10304 1.9733 4.0176 2.03883 3.98804 2.03883C3.91784 2.03883 2.52736 3.42932 2.52736 3.49951C2.52736 3.52908 2.46182 3.61451 2.38173 3.68932C2.30163 3.76413 2.2361 3.85548 2.2361 3.89223C2.2361 3.92903 2.19241 3.99063 2.13901 4.02913C2.08561 4.06762 2.04192 4.13316 2.04192 4.17476C2.04192 4.21636 1.99823 4.28189 1.94483 4.32039C1.89144 4.35888 1.84775 4.42922 1.84775 4.47675C1.84775 4.52422 1.8259 4.56311 1.7992 4.56311C1.7725 4.56311 1.75066 4.60199 1.75066 4.64947C1.75066 4.69699 1.70697 4.76733 1.65357 4.80583C1.60017 4.84432 1.55648 4.91466 1.55648 4.96218C1.55648 5.00966 1.53464 5.04854 1.50794 5.04854C1.48124 5.04854 1.4594 5.09223 1.4594 5.14563C1.4594 5.19903 1.43755 5.24272 1.41085 5.24272C1.38415 5.24272 1.36231 5.28641 1.36231 5.33981C1.36231 5.3932 1.34046 5.43689 1.31377 5.43689C1.28707 5.43689 1.26522 5.50243 1.26522 5.58252C1.26522 5.66262 1.24338 5.72816 1.21668 5.72816C1.18998 5.72816 1.16813 5.77184 1.16813 5.82524C1.16813 5.87864 1.14629 5.92233 1.11959 5.92233C1.09289 5.92233 1.07105 5.98786 1.07105 6.06796C1.07105 6.14806 1.0492 6.21359 1.0225 6.21359C0.995805 6.21359 0.97396 6.25728 0.97396 6.31068C0.97396 6.36408 0.952115 6.40777 0.925416 6.40777C0.853329 6.40777 0.866678 6.55015 0.946242 6.62966C0.984348 6.66782 1.04508 6.69903 1.08114 6.69903C1.11721 6.69903 1.17818 6.74272 1.21668 6.79612C1.25517 6.84951 1.32551 6.8932 1.37304 6.8932C1.42051 6.8932 1.4594 6.91505 1.4594 6.94175C1.4594 6.96845 1.49828 6.99029 1.54576 6.99029C1.59328 6.99029 1.66362 7.03398 1.70212 7.08738C1.74061 7.14078 1.80032 7.18447 1.83483 7.18447C1.92309 7.18447 2.81862 8.08971 2.81862 8.17898C2.81862 8.21937 2.84046 8.25243 2.86716 8.25243C2.89386 8.25243 2.91571 8.29131 2.91571 8.33879C2.91571 8.38631 2.9594 8.45665 3.01279 8.49515C3.06619 8.53364 3.10988 8.60398 3.10988 8.65151C3.10988 8.69898 3.13173 8.73786 3.15843 8.73786C3.18512 8.73786 3.20697 8.8034 3.20697 8.88349C3.20697 8.96359 3.22881 9.02913 3.25551 9.02913C3.28221 9.02913 3.30406 9.09466 3.30406 9.17476C3.30406 9.25485 3.3259 9.32039 3.3526 9.32039C3.3793 9.32039 3.40114 9.40777 3.40114 9.51456C3.40114 9.62136 3.42299 9.70874 3.44969 9.70874C3.47911 9.70874 3.49823 9.91908 3.49823 10.2427C3.49823 10.5664 3.47911 10.7767 3.44969 10.7767C3.42299 10.7767 3.40114 10.8422 3.40114 10.9223C3.40114 11.0024 3.3793 11.068 3.3526 11.068C3.3259 11.068 3.30406 11.1335 3.30406 11.2136C3.30406 11.2937 3.28221 11.3592 3.25551 11.3592C3.22881 11.3592 3.20697 11.4029 3.20697 11.4563C3.20697 11.5097 3.18512 11.5534 3.15843 11.5534C3.13173 11.5534 3.10988 11.5883 3.10988 11.631C3.10988 11.6737 3.04435 11.7699 2.96425 11.8447C2.88415 11.9195 2.81862 12.0052 2.81862 12.0351C2.81862 12.106 2.30323 12.6214 2.23236 12.6214C2.20246 12.6214 2.11673 12.6869 2.04192 12.767C1.96712 12.8471 1.87095 12.9126 1.82828 12.9126C1.78556 12.9126 1.75066 12.9345 1.75066 12.9612C1.75066 12.9879 1.70697 13.0097 1.65357 13.0097C1.60017 13.0097 1.55648 13.0316 1.55648 13.0583C1.55648 13.085 1.51279 13.1068 1.4594 13.1068C1.406 13.1068 1.36231 13.1286 1.36231 13.1553C1.36231 13.182 1.31862 13.2039 1.26522 13.2039C1.21182 13.2039 1.16813 13.2257 1.16813 13.2524C1.16813 13.2791 1.12445 13.301 1.07105 13.301C1.01765 13.301 0.97396 13.3228 0.97396 13.3495C0.97396 13.3762 0.930271 13.3981 0.876873 13.3981C0.812164 13.3981 0.779785 13.4304 0.779785 13.4951C0.779785 13.5485 0.80163 13.5922 0.828329 13.5922C0.855028 13.5922 0.876873 13.6578 0.876873 13.7379C0.876873 13.818 0.898717 13.8835 0.925416 13.8835C0.952115 13.8835 0.97396 13.949 0.97396 14.0291C0.97396 14.1092 0.995805 14.1748 1.0225 14.1748C1.0492 14.1748 1.07105 14.2403 1.07105 14.3204C1.07105 14.4005 1.09289 14.466 1.11959 14.466C1.14629 14.466 1.16813 14.5316 1.16813 14.6117C1.16813 14.6917 1.18998 14.7573 1.21668 14.7573C1.24338 14.7573 1.26522 14.801 1.26522 14.8544C1.26522 14.9078 1.28707 14.9515 1.31377 14.9515C1.34046 14.9515 1.36231 14.9951 1.36231 15.0485C1.36231 15.1019 1.38415 15.1456 1.41085 15.1456C1.43755 15.1456 1.4594 15.1893 1.4594 15.2427C1.4594 15.2961 1.48124 15.3398 1.50794 15.3398C1.53464 15.3398 1.55648 15.3835 1.55648 15.4369C1.55648 15.4903 1.57833 15.534 1.60503 15.534C1.63173 15.534 1.65357 15.5777 1.65357 15.6311C1.65357 15.6845 1.67542 15.7282 1.70212 15.7282C1.72881 15.7282 1.75066 15.767 1.75066 15.8145C1.75066 15.862 1.79435 15.9324 1.84775 15.9709C1.90114 16.0094 1.94483 16.0749 1.94483 16.1165C1.94483 16.1581 1.98852 16.2236 2.04192 16.2621C2.09532 16.3006 2.13901 16.3617 2.13901 16.398C2.13901 16.4343 2.22639 16.5479 2.33318 16.6505C2.43998 16.7531 2.52736 16.861 2.52736 16.8902C2.52736 16.9595 3.23779 17.6699 3.30707 17.6699C3.33629 17.6699 3.44415 17.7573 3.54678 17.8641C3.6494 17.9709 3.75906 18.0583 3.79046 18.0583C3.82192 18.0583 3.90886 18.1238 3.98367 18.2039C4.05847 18.284 4.15464 18.3495 4.19731 18.3495C4.24003 18.3495 4.27493 18.3714 4.27493 18.3981C4.27493 18.4248 4.31381 18.4466 4.36129 18.4466C4.40881 18.4466 4.47915 18.4903 4.51765 18.5437C4.55614 18.5971 4.62648 18.6408 4.67401 18.6408C4.72148 18.6408 4.76037 18.6626 4.76037 18.6893C4.76037 18.716 4.80406 18.7379 4.85745 18.7379C4.91085 18.7379 4.95454 18.7597 4.95454 18.7864C4.95454 18.8131 4.99823 18.835 5.05163 18.835C5.10503 18.835 5.14872 18.8568 5.14872 18.8835C5.14872 18.9102 5.19241 18.932 5.2458 18.932C5.2992 18.932 5.34289 18.9539 5.34289 18.9806C5.34289 19.0073 5.38658 19.0291 5.43998 19.0291C5.49338 19.0291 5.53707 19.051 5.53707 19.0777C5.53707 19.1044 5.58076 19.1262 5.63415 19.1262C5.68755 19.1262 5.73124 19.1481 5.73124 19.1748C5.73124 19.2015 5.79678 19.2233 5.87687 19.2233C5.95697 19.2233 6.0225 19.2451 6.0225 19.2718C6.0225 19.2985 6.06619 19.3204 6.11959 19.3204C6.17299 19.3204 6.21668 19.3422 6.21668 19.3689C6.21668 19.3956 6.28221 19.4175 6.36231 19.4175C6.44241 19.4175 6.50794 19.4393 6.50794 19.466C6.50794 19.4927 6.59532 19.5146 6.70212 19.5146C6.80891 19.5146 6.89629 19.5364 6.89629 19.5631C6.89629 19.5898 6.96182 19.6116 7.04192 19.6116C7.12202 19.6116 7.18755 19.6335 7.18755 19.6602C7.18755 19.6869 7.29678 19.7087 7.43027 19.7087C7.56377 19.7087 7.67299 19.7306 7.67299 19.7573C7.67299 19.784 7.78221 19.8058 7.91571 19.8058C8.0492 19.8058 8.15843 19.8277 8.15843 19.8544C8.15843 19.8821 8.30406 19.9029 8.49823 19.9029C8.69241 19.9029 8.83804 19.9237 8.83804 19.9515C8.83804 19.9828 9.37202 20 10.3429 20C11.3138 20 11.8477 19.9828 11.8477 19.9515C11.8477 19.9237 11.9934 19.9029 12.1876 19.9029C12.3817 19.9029 12.5274 19.8821 12.5274 19.8544C12.5274 19.8277 12.6366 19.8058 12.7701 19.8058C12.9036 19.8058 13.0128 19.784 13.0128 19.7573C13.0128 19.7306 13.1002 19.7087 13.207 19.7087C13.3138 19.7087 13.4011 19.6869 13.4011 19.6602C13.4011 19.6335 13.4885 19.6116 13.5953 19.6116C13.7021 19.6116 13.7895 19.5898 13.7895 19.5631C13.7895 19.5364 13.855 19.5146 13.9351 19.5146C14.0152 19.5146 14.0808 19.4927 14.0808 19.466C14.0808 19.4393 14.1463 19.4175 14.2264 19.4175C14.3065 19.4175 14.372 19.3956 14.372 19.3689C14.372 19.3422 14.4376 19.3204 14.5176 19.3204C14.5977 19.3204 14.6633 19.2985 14.6633 19.2718C14.6633 19.2451 14.707 19.2233 14.7604 19.2233C14.8138 19.2233 14.8575 19.2015 14.8575 19.1748C14.8575 19.1481 14.9011 19.1262 14.9545 19.1262C15.0079 19.1262 15.0516 19.1044 15.0516 19.0777C15.0516 19.051 15.1172 19.0291 15.1973 19.0291C15.2774 19.0291 15.3429 19.0073 15.3429 18.9806C15.3429 18.9539 15.3866 18.932 15.44 18.932C15.4934 18.932 15.5371 18.9102 15.5371 18.8835C15.5371 18.8568 15.5808 18.835 15.6342 18.835C15.6876 18.835 15.7312 18.8131 15.7312 18.7864C15.7312 18.7597 15.7749 18.7379 15.8283 18.7379C15.8817 18.7379 15.9254 18.716 15.9254 18.6893C15.9254 18.6626 15.9643 18.6408 16.0118 18.6408C16.0593 18.6408 16.1296 18.5971 16.1681 18.5437C16.2066 18.4903 16.277 18.4466 16.3245 18.4466C16.372 18.4466 16.4109 18.4248 16.4109 18.3981C16.4109 18.3714 16.4497 18.3495 16.4972 18.3495C16.5447 18.3495 16.6151 18.3058 16.6536 18.2524C16.6921 18.199 16.7576 18.1553 16.7992 18.1553C16.8408 18.1553 16.9063 18.1116 16.9448 18.0583C16.9833 18.0049 17.0449 17.9612 17.0817 17.9612C17.1185 17.9612 17.2098 17.8956 17.2846 17.8155C17.3594 17.7354 17.4449 17.6699 17.4745 17.6699C17.5437 17.6699 18.7409 16.4742 18.7409 16.4051C18.7409 16.3764 18.8502 16.2466 18.9837 16.1165C19.1172 15.9865 19.2264 15.8551 19.2264 15.8246C19.2264 15.7941 19.139 15.6851 19.0322 15.5825C18.9254 15.4799 18.838 15.3707 18.838 15.3398C18.838 15.3089 18.7507 15.1997 18.6439 15.0971C18.5371 14.9945 18.4497 14.8852 18.4497 14.8544C18.4497 14.8235 18.3623 14.7143 18.2555 14.6117C18.1487 14.509 18.0613 14.3998 18.0613 14.3689C18.0613 14.3381 17.974 14.2288 17.8672 14.1262C17.7604 14.0236 17.673 13.9144 17.673 13.8835C17.673 13.8526 17.5856 13.7434 17.4788 13.6408C17.372 13.5382 17.2846 13.4289 17.2846 13.3981C17.2846 13.3672 17.1973 13.258 17.0905 13.1553C16.9837 13.0527 16.8963 12.9435 16.8963 12.9126C16.8963 12.8817 16.8089 12.7725 16.7021 12.6699C16.5953 12.5673 16.5079 12.4576 16.5079 12.4262C16.5079 12.3948 16.4424 12.3078 16.3623 12.233C16.2822 12.1582 16.2167 12.0716 16.2167 12.0405C16.2167 12.0094 16.1075 11.8776 15.974 11.7476C15.8405 11.6175 15.7312 11.4872 15.7312 11.4579C15.7312 11.3893 15.4111 11.068 15.3428 11.068C15.3143 11.068 15.0741 11.2864 14.8089 11.5534C14.5438 11.8204 14.3021 12.0388 14.2718 12.0388C14.2416 12.0388 14.1556 12.1044 14.0808 12.1845C14.0059 12.2646 13.9146 12.3301 13.8778 12.3301C13.841 12.3301 13.7794 12.3738 13.7409 12.4272C13.7025 12.4806 13.6321 12.5243 13.5846 12.5243C13.5371 12.5243 13.4982 12.5461 13.4982 12.5728C13.4982 12.5995 13.4545 12.6214 13.4011 12.6214C13.3477 12.6214 13.3041 12.6432 13.3041 12.6699C13.3041 12.6966 13.2604 12.7184 13.207 12.7184C13.1536 12.7184 13.1099 12.7403 13.1099 12.767C13.1099 12.7937 13.0662 12.8155 13.0128 12.8155C12.9594 12.8155 12.9157 12.8374 12.9157 12.8641C12.9157 12.8908 12.8502 12.9126 12.7701 12.9126C12.69 12.9126 12.6244 12.9345 12.6244 12.9612C12.6244 12.9879 12.5589 13.0097 12.4788 13.0097C12.3987 13.0097 12.3332 13.0316 12.3332 13.0583C12.3332 13.085 12.2676 13.1068 12.1876 13.1068C12.1075 13.1068 12.0419 13.1286 12.0419 13.1553C12.0419 13.182 11.9545 13.2039 11.8477 13.2039C11.7409 13.2039 11.6536 13.2257 11.6536 13.2524C11.6536 13.2816 11.4594 13.301 11.1681 13.301C10.8769 13.301 10.6827 13.3204 10.6827 13.3495C10.6827 13.3762 10.639 13.3981 10.5856 13.3981C10.5322 13.3981 10.4885 13.3762 10.4885 13.3495C10.4885 13.3207 10.3105 13.301 10.0516 13.301C9.79275 13.301 9.61474 13.2812 9.61474 13.2524C9.61474 13.2257 9.50551 13.2039 9.37202 13.2039C9.23852 13.2039 9.1293 13.182 9.1293 13.1553C9.1293 13.1286 9.06377 13.1068 8.98367 13.1068C8.90357 13.1068 8.83804 13.085 8.83804 13.0583C8.83804 13.0316 8.7725 13.0097 8.69241 13.0097C8.61231 13.0097 8.54678 12.9879 8.54678 12.9612C8.54678 12.9345 8.50309 12.9126 8.44969 12.9126C8.39629 12.9126 8.3526 12.8908 8.3526 12.8641C8.3526 12.8374 8.31372 12.8155 8.26624 12.8155C8.21872 12.8155 8.14838 12.7718 8.10988 12.7184C8.07139 12.665 8.01095 12.6214 7.97561 12.6214C7.89731 12.6214 7.67299 12.8384 7.67299 12.9142C7.67299 12.9442 7.58561 13.0527 7.47881 13.1553C7.37202 13.258 7.28464 13.3676 7.28464 13.399C7.28464 13.4305 7.21911 13.5174 7.13901 13.5922C7.05891 13.667 6.99338 13.7544 6.99338 13.7864C6.99338 13.8184 6.9259 13.9076 6.84347 13.9846C6.70949 14.1097 6.70139 14.1324 6.76721 14.1982C6.8077 14.2387 6.87512 14.2718 6.91712 14.2718C6.95906 14.2718 6.99338 14.2937 6.99338 14.3204C6.99338 14.3471 7.03707 14.3689 7.09046 14.3689C7.14386 14.3689 7.18755 14.3908 7.18755 14.4175C7.18755 14.4442 7.23124 14.466 7.28464 14.466C7.33804 14.466 7.38173 14.4879 7.38173 14.5146C7.38173 14.5413 7.42542 14.5631 7.47881 14.5631C7.53221 14.5631 7.5759 14.585 7.5759 14.6117C7.5759 14.6383 7.61959 14.6602 7.67299 14.6602C7.72639 14.6602 7.77008 14.682 7.77008 14.7087C7.77008 14.7354 7.81377 14.7573 7.86716 14.7573C7.92056 14.7573 7.96425 14.7791 7.96425 14.8058C7.96425 14.8325 8.02978 14.8544 8.10988 14.8544C8.18998 14.8544 8.25551 14.8762 8.25551 14.9029C8.25551 14.9296 8.32105 14.9515 8.40114 14.9515C8.48124 14.9515 8.54678 14.9733 8.54678 15C8.54678 15.0267 8.63415 15.0485 8.74095 15.0485C8.84775 15.0485 8.93512 15.0704 8.93512 15.0971C8.93512 15.1241 9.06459 15.1456 9.22639 15.1456C9.38818 15.1456 9.51765 15.1672 9.51765 15.1942C9.51765 15.2251 9.92216 15.2427 10.6342 15.2427C11.3461 15.2427 11.7507 15.2251 11.7507 15.1942C11.7507 15.1675 11.8599 15.1456 11.9934 15.1456C12.1269 15.1456 12.2361 15.1238 12.2361 15.0971C12.2361 15.0704 12.3235 15.0485 12.4303 15.0485C12.5371 15.0485 12.6244 15.0267 12.6244 15C12.6244 14.9733 12.7118 14.9515 12.8186 14.9515C12.9254 14.9515 13.0128 14.9296 13.0128 14.9029C13.0128 14.8762 13.0783 14.8544 13.1584 14.8544C13.2385 14.8544 13.3041 14.8325 13.3041 14.8058C13.3041 14.7791 13.3477 14.7573 13.4011 14.7573C13.4545 14.7573 13.4982 14.7354 13.4982 14.7087C13.4982 14.682 13.5638 14.6602 13.6439 14.6602C13.724 14.6602 13.7895 14.6383 13.7895 14.6117C13.7895 14.585 13.8332 14.5631 13.8866 14.5631C13.94 14.5631 13.9837 14.5413 13.9837 14.5146C13.9837 14.4879 14.0274 14.466 14.0808 14.466C14.1342 14.466 14.1778 14.4442 14.1778 14.4175C14.1778 14.3908 14.2167 14.3689 14.2642 14.3689C14.3117 14.3689 14.3821 14.3252 14.4206 14.2718C14.4591 14.2184 14.5294 14.1748 14.5769 14.1748C14.6244 14.1748 14.6633 14.1529 14.6633 14.1262C14.6633 14.0995 14.7022 14.0777 14.7496 14.0777C14.7972 14.0777 14.8675 14.034 14.906 13.9806C15.0221 13.8195 15.3429 13.891 15.3429 14.078C15.3429 14.1087 15.4303 14.2178 15.5371 14.3204C15.6439 14.423 15.7312 14.5322 15.7312 14.5631C15.7312 14.594 15.8186 14.7032 15.9254 14.8058C16.0322 14.9084 16.1196 15.0177 16.1196 15.0485C16.1196 15.0794 16.207 15.1886 16.3138 15.2913C16.4206 15.3939 16.5079 15.5043 16.5079 15.5366C16.5079 15.5689 16.5537 15.6351 16.6096 15.6836L16.7114 15.7718L16.5876 15.8956C16.5195 15.9637 16.4388 16.0194 16.4083 16.0194C16.3777 16.0194 16.2915 16.085 16.2167 16.165C16.1419 16.2451 16.0545 16.3107 16.0225 16.3107C15.9905 16.3107 15.9031 16.3762 15.8283 16.4563C15.7535 16.5364 15.6574 16.6019 15.6147 16.6019C15.572 16.6019 15.5371 16.6238 15.5371 16.6505C15.5371 16.6772 15.4982 16.699 15.4507 16.699C15.4032 16.699 15.3328 16.7427 15.2943 16.7961C15.2559 16.8495 15.1855 16.8932 15.138 16.8932C15.0905 16.8932 15.0516 16.915 15.0516 16.9417C15.0516 16.9684 15.0079 16.9903 14.9545 16.9903C14.9011 16.9903 14.8575 17.0121 14.8575 17.0388C14.8575 17.0655 14.8138 17.0874 14.7604 17.0874C14.707 17.0874 14.6633 17.1092 14.6633 17.1359C14.6633 17.1626 14.6196 17.1845 14.5662 17.1845C14.5128 17.1845 14.4691 17.2063 14.4691 17.233C14.4691 17.2597 14.4036 17.2816 14.3235 17.2816C14.2434 17.2816 14.1778 17.3034 14.1778 17.3301C14.1778 17.3568 14.1342 17.3786 14.0808 17.3786C14.0274 17.3786 13.9837 17.4005 13.9837 17.4272C13.9837 17.4539 13.9181 17.4757 13.838 17.4757C13.7579 17.4757 13.6924 17.4976 13.6924 17.5243C13.6924 17.551 13.6269 17.5728 13.5468 17.5728C13.4667 17.5728 13.4011 17.5947 13.4011 17.6214C13.4011 17.6481 13.3356 17.6699 13.2555 17.6699C13.1754 17.6699 13.1099 17.6917 13.1099 17.7184C13.1099 17.7451 13.0225 17.767 12.9157 17.767C12.8089 17.767 12.7215 17.7888 12.7215 17.8155C12.7215 17.8422 12.6342 17.8641 12.5274 17.8641C12.4206 17.8641 12.3332 17.8859 12.3332 17.9126C12.3332 17.9396 12.2037 17.9612 12.0419 17.9612C11.8801 17.9612 11.7507 17.9827 11.7507 18.0097C11.7507 18.0388 11.5565 18.0583 11.2652 18.0583C10.974 18.0583 10.7798 18.0777 10.7798 18.1068C10.7798 18.1356 10.6018 18.1553 10.3429 18.1553C10.084 18.1553 9.906 18.1356 9.906 18.1068C9.906 18.0774 9.69566 18.0583 9.37202 18.0583C9.04838 18.0583 8.83804 18.0391 8.83804 18.0097C8.83804 17.9827 8.70857 17.9612 8.54678 17.9612C8.38498 17.9612 8.25551 17.9396 8.25551 17.9126C8.25551 17.8859 8.16813 17.8641 8.06134 17.8641C7.95454 17.8641 7.86716 17.8422 7.86716 17.8155C7.86716 17.7888 7.77978 17.767 7.67299 17.767C7.56619 17.767 7.47881 17.7451 7.47881 17.7184C7.47881 17.6917 7.41328 17.6699 7.33318 17.6699C7.25309 17.6699 7.18755 17.6481 7.18755 17.6214C7.18755 17.5947 7.12202 17.5728 7.04192 17.5728C6.96182 17.5728 6.89629 17.551 6.89629 17.5243C6.89629 17.4976 6.83076 17.4757 6.75066 17.4757C6.67056 17.4757 6.60503 17.4539 6.60503 17.4272C6.60503 17.4005 6.56134 17.3786 6.50794 17.3786C6.45454 17.3786 6.41085 17.3568 6.41085 17.3301C6.41085 17.3034 6.36716 17.2816 6.31377 17.2816C6.26037 17.2816 6.21668 17.2597 6.21668 17.233C6.21668 17.2063 6.17299 17.1845 6.11959 17.1845C6.06619 17.1845 6.0225 17.1626 6.0225 17.1359C6.0225 17.1092 5.97881 17.0874 5.92542 17.0874C5.87202 17.0874 5.82833 17.0655 5.82833 17.0388C5.82833 17.0121 5.78464 16.9903 5.73124 16.9903C5.67784 16.9903 5.63415 16.9684 5.63415 16.9417C5.63415 16.915 5.59527 16.8932 5.54779 16.8932C5.50027 16.8932 5.42993 16.8495 5.39144 16.7961C5.35294 16.7427 5.28741 16.699 5.2458 16.699C5.2042 16.699 5.13867 16.6553 5.10017 16.6019C5.06168 16.5485 5.00202 16.5049 4.9676 16.5049C4.88595 16.5049 3.69241 15.3113 3.69241 15.2297C3.69241 15.1952 3.64872 15.1356 3.59532 15.0971C3.54192 15.0586 3.49823 14.9883 3.49823 14.9407C3.49823 14.8933 3.47639 14.8544 3.44969 14.8544C3.42299 14.8544 3.40114 14.8155 3.40114 14.768C3.40114 14.7205 3.35745 14.6501 3.30406 14.6117C3.14469 14.4967 3.21411 14.1748 3.39823 14.1748C3.47309 14.1748 4.46911 13.1693 4.46911 13.0938C4.46911 13.0593 4.51279 12.9997 4.56619 12.9612C4.61959 12.9227 4.66328 12.8571 4.66328 12.8155C4.66328 12.7739 4.70697 12.7084 4.76037 12.6699C4.81377 12.6314 4.85745 12.5611 4.85745 12.5135C4.85745 12.4661 4.8793 12.4272 4.906 12.4272C4.9327 12.4272 4.95454 12.3835 4.95454 12.3301C4.95454 12.2767 4.97639 12.233 5.00309 12.233C5.02979 12.233 5.05163 12.1893 5.05163 12.1359C5.05163 12.0825 5.07347 12.0388 5.10017 12.0388C5.12687 12.0388 5.14872 11.9733 5.14872 11.8932C5.14872 11.8131 5.17056 11.7476 5.19726 11.7476C5.22396 11.7476 5.2458 11.6602 5.2458 11.5534C5.2458 11.4466 5.26765 11.3592 5.29435 11.3592C5.32105 11.3592 5.34289 11.25 5.34289 11.1165C5.34289 10.983 5.36474 10.8738 5.39144 10.8738C5.4211 10.8738 5.43998 10.6472 5.43998 10.2913C5.43998 9.93529 5.4211 9.70874 5.39144 9.70874C5.36372 9.70874 5.34289 9.56311 5.34289 9.36893C5.34289 9.17476 5.32207 9.02913 5.29435 9.02913C5.26765 9.02913 5.2458 8.94175 5.2458 8.83495C5.2458 8.72816 5.22396 8.64078 5.19726 8.64078C5.17056 8.64078 5.14872 8.57524 5.14872 8.49515C5.14872 8.41505 5.12687 8.34951 5.10017 8.34951C5.07347 8.34951 5.05163 8.30583 5.05163 8.25243C5.05163 8.19903 5.02979 8.15534 5.00309 8.15534C4.97639 8.15534 4.95454 8.11165 4.95454 8.05825C4.95454 8.00485 4.9327 7.96116 4.906 7.96116C4.8793 7.96116 4.85745 7.91748 4.85745 7.86408C4.85745 7.81068 4.83561 7.76699 4.80891 7.76699C4.78221 7.76699 4.76037 7.7233 4.76037 7.6699C4.76037 7.6165 4.73852 7.57282 4.71182 7.57282C4.68512 7.57282 4.66328 7.52913 4.66328 7.47573C4.66328 7.42233 4.64144 7.37864 4.61474 7.37864C4.58804 7.37864 4.56619 7.33976 4.56619 7.29228C4.56619 7.24476 4.5225 7.17442 4.46911 7.13592C4.41571 7.09743 4.37202 7.03631 4.37202 7.00005C4.37202 6.96379 4.28464 6.85019 4.17784 6.74757C4.07105 6.64495 3.98367 6.53689 3.98367 6.50738C3.98367 6.43777 3.56561 6.01942 3.49605 6.01942C3.4176 6.01942 3.30406 5.89223 3.30406 5.80442C3.30406 5.76248 3.3259 5.72816 3.3526 5.72816C3.3793 5.72816 3.40114 5.68927 3.40114 5.6418C3.40114 5.59427 3.44483 5.52393 3.49823 5.48544C3.55163 5.44694 3.59532 5.38141 3.59532 5.33981C3.59532 5.2982 3.63901 5.23267 3.69241 5.19417C3.7458 5.15568 3.78949 5.09456 3.78949 5.0583C3.78949 5.02204 3.87687 4.90845 3.98367 4.80583C4.09046 4.7032 4.17784 4.59534 4.17784 4.56612C4.17784 4.53689 4.34134 4.34951 4.54114 4.14971C4.74095 3.9499 4.92833 3.78641 4.95755 3.78641C4.98678 3.78641 5.09464 3.69903 5.19726 3.59223C5.29988 3.48544 5.41347 3.39806 5.44974 3.39806C5.486 3.39806 5.54712 3.35437 5.58561 3.30097C5.62411 3.24757 5.68964 3.20388 5.73124 3.20388C5.77284 3.20388 5.83838 3.16019 5.87687 3.1068C5.91537 3.0534 5.98571 3.00971 6.03323 3.00971C6.08071 3.00971 6.11959 2.98786 6.11959 2.96116C6.11959 2.93447 6.16328 2.91262 6.21668 2.91262C6.27008 2.91262 6.31377 2.89078 6.31377 2.86408C6.31377 2.83738 6.35745 2.81553 6.41085 2.81553C6.46425 2.81553 6.50794 2.79369 6.50794 2.76699C6.50794 2.74029 6.55163 2.71845 6.60503 2.71845C6.65843 2.71845 6.70212 2.6966 6.70212 2.6699C6.70212 2.6432 6.7458 2.62136 6.7992 2.62136C6.8526 2.62136 6.89629 2.59951 6.89629 2.57282C6.89629 2.54612 6.96182 2.52427 7.04192 2.52427C7.12202 2.52427 7.18755 2.50243 7.18755 2.47573C7.18755 2.44903 7.23124 2.42718 7.28464 2.42718C7.33804 2.42718 7.38173 2.40534 7.38173 2.37864C7.38173 2.35194 7.46911 2.3301 7.5759 2.3301C7.6827 2.3301 7.77008 2.30825 7.77008 2.28155C7.77008 2.25485 7.83561 2.23301 7.91571 2.23301C7.9958 2.23301 8.06134 2.21116 8.06134 2.18447C8.06134 2.15777 8.14872 2.13592 8.25551 2.13592C8.36231 2.13592 8.44969 2.11408 8.44969 2.08738C8.44969 2.06039 8.57915 2.03883 8.74095 2.03883C8.90275 2.03883 9.03221 2.01728 9.03221 1.99029C9.03221 1.96116 9.22639 1.94175 9.51765 1.94175C9.80891 1.94175 10.0031 1.92233 10.0031 1.8932C10.0031 1.8649 10.1649 1.84466 10.3914 1.84466C10.618 1.84466 10.7798 1.8649 10.7798 1.8932C10.7798 1.92262 10.9901 1.94175 11.3138 1.94175C11.6374 1.94175 11.8477 1.96087 11.8477 1.99029C11.8477 2.01728 11.9772 2.03883 12.139 2.03883C12.3008 2.03883 12.4303 2.06039 12.4303 2.08738C12.4303 2.11408 12.5176 2.13592 12.6244 2.13592C12.7312 2.13592 12.8186 2.15777 12.8186 2.18447C12.8186 2.21116 12.906 2.23301 13.0128 2.23301C13.1196 2.23301 13.207 2.25485 13.207 2.28155C13.207 2.30825 13.2725 2.3301 13.3526 2.3301C13.4327 2.3301 13.4982 2.35194 13.4982 2.37864C13.4982 2.40534 13.5638 2.42718 13.6439 2.42718C13.724 2.42718 13.7895 2.44903 13.7895 2.47573C13.7895 2.50243 13.8332 2.52427 13.8866 2.52427C13.94 2.52427 13.9837 2.54612 13.9837 2.57282C13.9837 2.59951 14.0492 2.62136 14.1293 2.62136C14.2094 2.62136 14.2749 2.6432 14.2749 2.6699C14.2749 2.6966 14.3186 2.71845 14.372 2.71845C14.4254 2.71845 14.4691 2.74029 14.4691 2.76699C14.4691 2.79369 14.5128 2.81553 14.5662 2.81553C14.6196 2.81553 14.6633 2.83738 14.6633 2.86408C14.6633 2.89078 14.7022 2.91262 14.7496 2.91262C14.7972 2.91262 14.8675 2.95631 14.906 3.00971C14.9445 3.06311 15.0148 3.1068 15.0624 3.1068C15.1098 3.1068 15.1487 3.12864 15.1487 3.15534C15.1487 3.18204 15.1836 3.20388 15.2263 3.20388C15.269 3.20388 15.3652 3.26942 15.44 3.34951C15.5148 3.42961 15.6017 3.49515 15.6332 3.49515C15.6646 3.49515 15.7743 3.58252 15.8769 3.68932C15.9795 3.79612 16.088 3.8835 16.118 3.8835C16.1989 3.8835 16.4109 4.11024 16.4109 4.19684C16.4109 4.23811 16.389 4.27184 16.3623 4.27184C16.3356 4.27184 16.3138 4.30675 16.3138 4.34947C16.3138 4.39214 16.2482 4.4883 16.1681 4.56311C16.088 4.63791 16.0225 4.72529 16.0225 4.75728C16.0225 4.78927 15.957 4.87665 15.8769 4.95146C15.7968 5.02626 15.7312 5.11364 15.7312 5.14563C15.7312 5.17762 15.6657 5.265 15.5856 5.33981C15.5055 5.41461 15.44 5.50199 15.44 5.53398C15.44 5.56597 15.3744 5.65335 15.2943 5.72816C15.2143 5.80296 15.1487 5.89913 15.1487 5.9418C15.1487 5.98451 15.1269 6.01942 15.1002 6.01942C15.0735 6.01942 15.0516 5.99757 15.0516 5.97087C15.0516 5.94417 15.0079 5.92233 14.9545 5.92233C14.9011 5.92233 14.8575 5.90049 14.8575 5.87379C14.8575 5.84709 14.8186 5.82524 14.7711 5.82524C14.7236 5.82524 14.6532 5.78155 14.6147 5.72816C14.5762 5.67476 14.5059 5.63107 14.4584 5.63107C14.4109 5.63107 14.372 5.60922 14.372 5.58252C14.372 5.55583 14.3331 5.53398 14.2857 5.53398C14.2381 5.53398 14.1678 5.49029 14.1293 5.43689C14.0908 5.38349 14.0205 5.33981 13.9729 5.33981C13.9255 5.33981 13.8866 5.31796 13.8866 5.29126C13.8866 5.26456 13.821 5.24272 13.7409 5.24272C13.6609 5.24272 13.5953 5.22087 13.5953 5.19417C13.5953 5.16748 13.5516 5.14563 13.4982 5.14563C13.4448 5.14563 13.4011 5.12379 13.4011 5.09709C13.4011 5.07039 13.3575 5.04854 13.3041 5.04854C13.2507 5.04854 13.207 5.0267 13.207 5C13.207 4.9733 13.1414 4.95146 13.0613 4.95146C12.9812 4.95146 12.9157 4.92961 12.9157 4.90291C12.9157 4.87621 12.8502 4.85437 12.7701 4.85437C12.69 4.85437 12.6244 4.83252 12.6244 4.80583C12.6244 4.77913 12.5371 4.75728 12.4303 4.75728C12.3235 4.75728 12.2361 4.73544 12.2361 4.70874C12.2361 4.68102 12.0905 4.66019 11.8963 4.66019C11.7021 4.66019 11.5565 4.63937 11.5565 4.61165C11.5565 4.58146 11.2814 4.56311 10.8283 4.56311C10.3753 4.56311 10.1002 4.58146 10.1002 4.61165C10.1002 4.63937 9.95454 4.66019 9.76037 4.66019C9.56619 4.66019 9.42056 4.68102 9.42056 4.70874C9.42056 4.73544 9.31134 4.75728 9.17784 4.75728C9.04435 4.75728 8.93512 4.77913 8.93512 4.80583C8.93512 4.83252 8.86959 4.85437 8.78949 4.85437C8.7094 4.85437 8.64386 4.87621 8.64386 4.90291C8.64386 4.92961 8.57833 4.95146 8.49823 4.95146C8.41813 4.95146 8.3526 4.9733 8.3526 5C8.3526 5.0267 8.30891 5.04854 8.25551 5.04854C8.20212 5.04854 8.15843 5.07039 8.15843 5.09709C8.15843 5.12379 8.11474 5.14563 8.06134 5.14563C8.00794 5.14563 7.96425 5.16748 7.96425 5.19417C7.96425 5.22087 7.92056 5.24272 7.86716 5.24272C7.81377 5.24272 7.77008 5.26456 7.77008 5.29126C7.77008 5.31796 7.72639 5.33981 7.67299 5.33981C7.61959 5.33981 7.5759 5.36165 7.5759 5.38835C7.5759 5.41505 7.541 5.43689 7.49828 5.43689C7.45561 5.43689 7.35945 5.50243 7.28464 5.58252C7.20983 5.66262 7.12304 5.72816 7.09177 5.72816C7.06056 5.72816 7.00289 5.76024 6.96367 5.79947C6.90095 5.86218 6.96561 5.94403 7.50066 6.47908C7.83522 6.81364 8.14192 7.08738 8.18221 7.08738C8.22255 7.08738 8.25551 7.10922 8.25551 7.13592C8.25551 7.16262 8.2992 7.18447 8.3526 7.18447C8.406 7.18447 8.44969 7.16262 8.44969 7.13592C8.44969 7.10922 8.48857 7.08738 8.53605 7.08738C8.58357 7.08738 8.65391 7.04369 8.69241 6.99029C8.73352 6.9333 8.81809 6.8932 8.89731 6.8932C8.97148 6.8932 9.03221 6.87136 9.03221 6.84466C9.03221 6.81796 9.0759 6.79612 9.1293 6.79612C9.1827 6.79612 9.22639 6.77427 9.22639 6.74757C9.22639 6.72087 9.31377 6.69903 9.42056 6.69903C9.52736 6.69903 9.61474 6.67718 9.61474 6.65049C9.61474 6.62379 9.72396 6.60194 9.85745 6.60194C9.99095 6.60194 10.1002 6.5801 10.1002 6.5534C10.1002 6.5232 10.3753 6.50485 10.8283 6.50485C11.2814 6.50485 11.5565 6.5232 11.5565 6.5534C11.5565 6.5801 11.6439 6.60194 11.7507 6.60194C11.8575 6.60194 11.9448 6.62379 11.9448 6.65049C11.9448 6.67718 12.0322 6.69903 12.139 6.69903C12.2458 6.69903 12.3332 6.72087 12.3332 6.74757C12.3332 6.77427 12.3769 6.79612 12.4303 6.79612C12.4837 6.79612 12.5274 6.81796 12.5274 6.84466C12.5274 6.87136 12.5929 6.8932 12.673 6.8932C12.7531 6.8932 12.8186 6.91505 12.8186 6.94175C12.8186 6.96845 12.8623 6.99029 12.9157 6.99029C12.9691 6.99029 13.0128 7.01214 13.0128 7.03883C13.0128 7.06553 13.0565 7.08738 13.1099 7.08738C13.1633 7.08738 13.207 7.10922 13.207 7.13592C13.207 7.16262 13.2459 7.18447 13.2933 7.18447C13.3409 7.18447 13.4112 7.22816 13.4497 7.28155C13.4882 7.33495 13.5537 7.37864 13.5953 7.37864C13.6369 7.37864 13.7025 7.42233 13.7409 7.47573C13.7794 7.52913 13.845 7.57282 13.8866 7.57282C13.9282 7.57282 13.9937 7.6165 14.0322 7.6699C14.0707 7.7233 14.1309 7.76699 14.1659 7.76699C14.2009 7.76699 14.4684 8.00728 14.7604 8.30097C15.0524 8.59466 15.3148 8.83495 15.3436 8.83495C15.4131 8.83495 15.6342 8.61146 15.6342 8.54112C15.6342 8.51053 15.6997 8.42432 15.7798 8.34951C15.8599 8.27471 15.9254 8.18335 15.9254 8.1466C15.9254 8.10981 15.9691 8.0482 16.0225 8.00971C16.0759 7.97121 16.1196 7.90961 16.1196 7.87281C16.1196 7.83607 16.1851 7.74471 16.2652 7.6699C16.3453 7.5951 16.4109 7.50772 16.4109 7.47573C16.4109 7.44374 16.4764 7.35636 16.5565 7.28155C16.6366 7.20675 16.7021 7.11937 16.7021 7.08738C16.7021 7.05539 16.7676 6.96801 16.8477 6.8932C16.9278 6.8184 16.9934 6.73102 16.9934 6.69903C16.9934 6.66704 17.0589 6.57966 17.139 6.50485C17.2191 6.43005 17.2846 6.34267 17.2846 6.31068C17.2846 6.27869 17.3502 6.19131 17.4303 6.1165C17.5104 6.0417 17.5759 5.95432 17.5759 5.92233C17.5759 5.89034 17.6414 5.80296 17.7215 5.72816C17.8016 5.65335 17.8672 5.56597 17.8672 5.53398C17.8672 5.50199 17.9327 5.41461 18.0128 5.33981C18.0929 5.265 18.1584 5.17762 18.1584 5.14563C18.1584 5.11364 18.224 5.02626 18.3041 4.95146C18.3842 4.87665 18.4497 4.78529 18.4497 4.74854C18.4497 4.71175 18.4934 4.65015 18.5468 4.61165C18.6002 4.57316 18.6439 4.51155 18.6439 4.47476C18.6439 4.43801 18.7117 4.34451 18.7946 4.26704L18.9454 4.12621L18.7946 3.98539C18.7117 3.90791 18.6439 3.8184 18.6439 3.78641C18.6439 3.75442 18.5783 3.66704 18.4982 3.59223C18.4181 3.51743 18.3526 3.43194 18.3526 3.40233C18.3526 3.33262 17.2539 2.23301 17.1843 2.23301C17.1552 2.23301 17.0475 2.14563 16.9448 2.03883C16.8422 1.93204 16.7286 1.84466 16.6924 1.84466C16.6561 1.84466 16.595 1.80097 16.5565 1.74757C16.518 1.69417 16.4525 1.65049 16.4109 1.65049C16.3693 1.65049 16.3037 1.6068 16.2652 1.5534C16.2267 1.5 16.1564 1.45631 16.1089 1.45631C16.0614 1.45631 16.0225 1.43447 16.0225 1.40777C16.0225 1.38107 15.9788 1.35922 15.9254 1.35922C15.872 1.35922 15.8283 1.33738 15.8283 1.31068C15.8283 1.28398 15.7894 1.26214 15.742 1.26214C15.6944 1.26214 15.6241 1.21845 15.5856 1.16505C15.5445 1.10806 15.4599 1.06796 15.3807 1.06796C15.3065 1.06796 15.2458 1.04612 15.2458 1.01942C15.2458 0.992718 15.2021 0.970874 15.1487 0.970874C15.0953 0.970874 15.0516 0.949029 15.0516 0.92233C15.0516 0.895631 15.0079 0.873786 14.9545 0.873786C14.9011 0.873786 14.8575 0.851942 14.8575 0.825243C14.8575 0.798544 14.8138 0.776699 14.7604 0.776699C14.707 0.776699 14.6633 0.754854 14.6633 0.728155C14.6633 0.701456 14.5977 0.679612 14.5176 0.679612C14.4376 0.679612 14.372 0.657767 14.372 0.631068C14.372 0.604369 14.3065 0.582524 14.2264 0.582524C14.1463 0.582524 14.0808 0.56068 14.0808 0.533981C14.0808 0.507282 14.0152 0.485437 13.9351 0.485437C13.855 0.485437 13.7895 0.463592 13.7895 0.436893C13.7895 0.410194 13.724 0.38835 13.6439 0.38835C13.5638 0.38835 13.4982 0.366505 13.4982 0.339806C13.4982 0.313107 13.389 0.291262 13.2555 0.291262C13.122 0.291262 13.0128 0.269417 13.0128 0.242718C13.0128 0.216019 12.9036 0.194175 12.7701 0.194175C12.6366 0.194175 12.5274 0.17233 12.5274 0.145631C12.5274 0.118641 12.3979 0.0970874 12.2361 0.0970874C12.0743 0.0970874 11.9448 0.075534 11.9448 0.0485437C11.9448 0.017233 11.4109 0 10.44 0C9.46911 0 8.93512 0.017233 8.93512 0.0485437Z" fill="url(#paint0_linear_3770_22529)"/>
<defs>
<linearGradient id="paint0_linear_3770_22529" x1="18.8066" y1="0.355712" x2="0.806642" y2="15.8557" gradientUnits="userSpaceOnUse">
<stop stop-color="#F499B7"/>
<stop offset="0.294984" stop-color="#E850C3"/>
<stop offset="1" stop-color="#7D1DEA"/>
</linearGradient>
</defs>
</svg>
