<svg width="20" height="20" viewBox="0 0 20 20" fill="none" xmlns="http://www.w3.org/2000/svg">
<circle cx="10" cy="10" r="10" fill="white"/>
<g clip-path="url(#clip0_5375_41402)">
<path d="M13.6272 11.7228L9.95051 15.5624L7.90427 13.4255L11.581 9.58591L9.94579 7.87828L4.61609 13.444L9.9311 18.9944L15.2607 13.4287L13.6272 11.7228Z" fill="#1A1A1A"/>
<path d="M16.9081 8.25216L9.96383 1L3 8.27243L3.02221 11.6716L9.93428 4.45343L16.8965 11.7244L16.9081 8.25216Z" fill="#38A1DB"/>
</g>
<circle cx="15" cy="15" r="5" fill="#131419"/>
<path fill-rule="evenodd" clip-rule="evenodd" d="M13.4097 14.3483L15 12.7579L16.5903 14.3483L17.5148 13.4238L15 10.909L12.4852 13.4238L13.4097 14.3483ZM11.8327 14.0782L10.9093 15.0016L11.8327 15.925L12.7561 15.0016L11.8327 14.0782ZM15 17.2445L13.4097 15.6542L12.4852 16.5786L15 19.0934L17.5148 16.5786L16.5903 15.6542L15 17.2445ZM18.1675 14.0783L17.2441 15.0017L18.1675 15.9251L19.0909 15.0017L18.1675 14.0783ZM15.0005 14.0638L15.9379 15.0012L15.0005 15.9386L14.0631 15.0012L14.2247 14.8332L14.3087 14.7556L15.0005 14.0638Z" fill="#F0B90B"/>
<defs>
<clipPath id="clip0_5375_41402">
<rect width="14" height="18" fill="white" transform="translate(3 1)"/>
</clipPath>
</defs>
</svg>
