<svg width="20" height="20" viewBox="0 0 20 20" fill="none" xmlns="http://www.w3.org/2000/svg">
<circle cx="10" cy="10" r="10" fill="white"/>
<path fill-rule="evenodd" clip-rule="evenodd" d="M0.409468 12.8212C-1.26092 7.04159 2.33847 1.24807 8.30962 0.10521C9.29379 -0.0831548 11.2926 -0.00949948 12.3404 0.253627C13.8027 0.620797 15.7936 1.59059 15.4862 1.7859C15.2697 1.92345 14.8032 1.88622 13.9963 1.66676C13.5823 1.55417 12.7663 1.43573 12.183 1.40354C10.9189 1.3337 10.4938 1.47417 10.1827 2.06462C10.0625 2.29253 9.98934 2.36126 9.98653 2.24866C9.98272 2.09431 9.95031 2.08585 9.75632 2.18829C9.63218 2.25379 9.49731 2.35733 9.45677 2.41821C9.41522 2.48059 9.3824 2.42183 9.3815 2.28368L9.38 2.03846L9.07893 2.32765C8.68585 2.70518 8.68936 2.48603 9.08365 2.03585C9.47312 1.59099 10.1579 1.35795 11.3369 1.269L12.2401 1.20078L11.2799 1.18569C10.1885 1.16838 9.52922 1.32465 8.89759 1.74998C8.23978 2.19302 7.95979 2.64089 7.98869 3.20427C8.01518 3.71996 7.86786 3.96648 7.3377 4.29421C7.06283 4.46406 7.05992 4.47372 7.26464 4.53882C7.47709 4.60644 7.47689 4.60805 7.20362 5.11146C7.05289 5.38918 6.81636 5.70563 6.67797 5.81481C6.44113 6.00156 6.41886 6.00307 6.29943 5.83936C6.18694 5.6851 6.14338 5.72958 5.91327 6.23349C5.62977 6.85443 5.608 7.45806 5.86892 7.46128C5.95251 7.46229 6.18493 7.58867 6.38554 7.74202C6.58605 7.89537 6.90126 8.06441 7.08601 8.11744C7.47869 8.23044 8.2191 8.22843 8.57716 8.11342L8.82805 8.03282L8.5586 8.02286C8.17455 8.00857 7.77895 7.84013 7.71081 7.66193C7.50488 7.1241 8.13129 6.57722 8.8983 6.62502C9.26449 6.64786 9.37939 6.61807 9.41221 6.49179C9.44643 6.36048 9.5524 6.33875 9.96486 6.37849L10.4753 6.42759L10.4173 6.06898C10.3653 5.74789 10.3917 5.69054 10.6699 5.52089C10.9142 5.37197 10.9545 5.30506 10.8586 5.20886C10.6929 5.04273 10.9264 4.89713 11.3617 4.89502C11.8267 4.89281 12.4256 5.4574 12.5926 6.05539C12.9624 7.37958 12.0293 8.13032 8.47681 9.36717C5.96034 10.2433 4.99052 10.8352 4.16441 11.9994L3.81588 12.4905L4.15136 12.2101C4.50742 11.9124 5.06478 11.5925 5.06478 11.6858C5.06478 11.7165 4.93452 12.0006 4.77526 12.3173C4.20244 13.4561 4.04438 14.1731 4.04489 15.6296C4.04509 16.373 4.09165 17.0373 4.15056 17.1389C4.23767 17.289 4.25633 17.2552 4.25894 16.943C4.26055 16.7355 4.30711 16.5657 4.3623 16.5657C4.4175 16.5657 4.46266 16.6449 4.46276 16.7418C4.46286 17.03 5.05083 18.1881 5.43689 18.6605L5.79606 19.1L5.35521 18.8752C3.04576 17.6977 1.14717 15.3735 0.409468 12.8212ZM8.26737 4.70867C8.32608 4.59859 8.43115 4.48559 8.5008 4.45742C8.86779 4.3092 8.74596 4.59456 8.35207 4.80597C8.18217 4.89713 8.17264 4.88617 8.26737 4.70867Z" fill="#D21318"/>
<path d="M11.5391 1.82522C11.1757 1.95502 10.8855 2.20426 10.8855 2.38659C10.8855 2.42553 11.2624 2.45562 11.723 2.4535C12.4181 2.45028 12.658 2.49435 13.1328 2.7123C13.7541 2.99746 14.2238 3.35387 14.6412 3.85647L14.908 4.17786L14.5275 4.1201L14.147 4.06225L14.5454 4.47963C14.9786 4.93343 15.6234 5.29416 16.0101 5.29899C16.2341 5.30181 16.2389 5.31117 16.0672 5.41119C15.9643 5.47116 15.6335 5.49973 15.3322 5.47468C14.8125 5.43141 14.7879 5.43996 14.8543 5.6393C14.8927 5.75481 14.9459 6.2222 14.9723 6.67792C15.0168 7.44395 14.9974 7.55584 14.7139 8.1631C14.2024 9.25917 12.9699 10.248 11.4922 10.7478L10.8353 10.97L11.2561 11.0448C11.4875 11.086 11.8036 11.1885 11.9586 11.2727C12.2351 11.4231 12.2281 11.426 11.5765 11.4299C10.6588 11.4354 9.94266 11.5877 9.20415 11.9342C6.92963 13.0014 6.02143 15.8226 7.52513 17.1497C7.95154 17.5261 8.52466 17.7731 8.97123 17.7731C9.09236 17.7731 9.16341 17.8183 9.12929 17.8737C9.09517 17.9291 8.95969 17.9744 8.82823 17.9744C8.69676 17.9744 8.55697 18.0267 8.51753 18.0907C8.42209 18.2454 9.45112 18.1299 10.115 17.9114C10.6294 17.742 12.0897 16.8159 12.0897 16.659C12.0897 16.6076 12.1365 16.5656 12.1936 16.5656C12.2652 16.5656 12.2652 16.6261 12.1936 16.7602C12.0067 17.1105 12.0797 17.0778 12.9183 16.4362C14.1867 15.4658 14.5704 15.3077 15.6523 15.3089C16.313 15.3097 16.6363 15.3556 16.8565 15.4799L17.1576 15.65L16.6423 15.592C16.2196 15.5445 16.03 15.5804 15.5886 15.7912C15.2924 15.9325 14.9373 16.1424 14.7993 16.2575L14.5484 16.4667L14.9498 16.4081C15.1706 16.3758 15.4641 16.3952 15.6021 16.4511L15.853 16.5529L15.5519 16.5615C14.8196 16.5823 13.8574 17.3024 12.9792 18.4865C12.436 19.2188 12.2583 19.3325 12.5461 18.7635L12.7161 18.4272L12.428 18.6917C12.0344 19.0531 11.3466 19.4752 10.6848 19.7613L10.1328 20L10.9858 19.9485C13.1592 19.8172 15.4766 18.7035 17.1149 17.0026C18.8583 15.193 19.8054 13.0735 19.9792 10.5928C20.1902 7.58432 18.7917 4.29378 16.4835 2.36777C15.9988 1.96327 15.8576 1.89223 15.7033 1.97494C15.425 2.12437 14.793 2.09569 13.4445 1.87281C12.0355 1.63977 12.0571 1.64027 11.5391 1.82522Z" fill="#3D3D3C"/>
</svg>
