<svg width="20" height="20" viewBox="0 0 20 20" fill="none" xmlns="http://www.w3.org/2000/svg">
<path d="M10 20C15.5228 20 20 15.5228 20 10C20 4.47715 15.5228 0 10 0C4.47715 0 0 4.47715 0 10C0 15.5228 4.47715 20 10 20Z" fill="#201A26"/>
<path d="M9.88486 5.00208C12.3879 4.93454 15 6.51985 15 8.97401C15 8.97401 12.4223 8.97401 12.4092 8.94147C12.0439 8.02995 11.2204 7.67783 10.2502 7.67152C8.84692 7.66232 7.66445 8.77046 7.69268 10.1456C7.72038 11.4943 8.87397 12.5315 10.2502 12.5221C11.2204 12.5153 11.8779 12.1644 12.3428 11.2527C12.3606 11.2178 15.0074 11.1878 15 11.2527C14.7343 13.5641 12.5922 14.9058 10.2502 14.9961C7.43539 15.1047 5.0855 12.9054 5.00229 10.1456C4.91961 7.40322 7.08664 5.07758 9.88486 5.00208Z" fill="#FFB0C3"/>
<path d="M13 7C14.1046 7 15 6.10457 15 5C15 3.89543 14.1046 3 13 3C11.8954 3 11 3.89543 11 5C11 6.10457 11.8954 7 13 7Z" fill="#CA8FE9" fill-opacity="0.6"/>
</svg>
