<svg width="20" height="20" viewBox="0 0 20 20" fill="none" xmlns="http://www.w3.org/2000/svg">
<circle cx="10" cy="10" r="10" fill="#BA272D"/>
<path fill-rule="evenodd" clip-rule="evenodd" d="M4.82371 5.99258C4.89138 5.99258 4.9577 5.98683 5.02223 5.9758L6.62167 9.75351C6.35094 9.96778 6.17725 10.2993 6.17725 10.6714C6.17725 11.3175 6.70103 11.8413 7.34715 11.8413C7.39942 11.8413 7.45089 11.8378 7.50134 11.8312L9.2732 16.0161C9.04626 16.2295 8.90454 16.5325 8.90454 16.8686C8.90454 17.5147 9.42832 18.0385 10.0744 18.0385C10.7206 18.0385 11.2443 17.5147 11.2443 16.8686C11.2443 16.5326 11.1027 16.2296 10.8758 16.0163L12.6468 11.8334C12.6917 11.8386 12.7374 11.8413 12.7837 11.8413C13.4298 11.8413 13.9536 11.3175 13.9536 10.6714C13.9536 10.3056 13.7857 9.97899 13.5228 9.76447L15.1203 5.99126C15.1389 5.99214 15.1575 5.99258 15.1763 5.99258C15.8224 5.99258 16.3462 5.46879 16.3462 4.82267C16.3462 4.17655 15.8224 3.65277 15.1763 3.65277C14.71 3.65277 14.3075 3.92548 14.1195 4.32008L5.88046 4.32008C5.69245 3.92548 5.28993 3.65277 4.82371 3.65277C4.17759 3.65277 3.65381 4.17655 3.65381 4.82267C3.65381 5.46879 4.17759 5.99258 4.82371 5.99258ZM7.71538 9.56059C7.69903 9.55517 7.68251 9.55011 7.66585 9.5454L6.32016 6.36703L9.21618 8.47824L7.71538 9.56059ZM8.37743 11.2261C8.4665 11.061 8.51705 10.8721 8.51705 10.6714C8.51705 10.545 8.497 10.4232 8.45991 10.3092L10.1026 9.12449L11.6823 10.276C11.6379 10.3995 11.6138 10.5326 11.6138 10.6714C11.6138 10.8797 11.6682 11.0754 11.7637 11.2448L10.0745 15.2345L8.37743 11.2261ZM13.7862 6.46797L12.4856 9.53977C12.4751 9.54253 12.4647 9.54544 12.4543 9.54848L10.9924 8.4828L13.7862 6.46797ZM6.71258 5.36277L13.5361 5.36277L10.106 7.83655L6.71258 5.36277Z" fill="white"/>
</svg>
