<svg width="20" height="20" viewBox="0 0 20 20" fill="none" xmlns="http://www.w3.org/2000/svg">
<path d="M9.29586 18.5095C10.4352 18.5095 11.3588 17.5859 11.3588 16.4466C11.3588 15.3072 10.4352 14.3836 9.29586 14.3836C8.15652 14.3836 7.23291 15.3072 7.23291 16.4466C7.23291 17.5859 8.15652 18.5095 9.29586 18.5095Z" fill="#666554" stroke="#FFFE55" stroke-width="0.08627" stroke-linecap="round" stroke-linejoin="round"/>
<path d="M9.64954 14.6003L9.6084 14.8696" stroke="#FFFE55" stroke-width="0.08627" stroke-linecap="round" stroke-linejoin="round"/>
<path d="M10.001 14.7064L9.9082 14.9626" stroke="#FFFE55" stroke-width="0.08627" stroke-linecap="round" stroke-linejoin="round"/>
<path d="M10.3254 14.879L10.1846 15.1122" stroke="#FFFE55" stroke-width="0.08627" stroke-linecap="round" stroke-linejoin="round"/>
<path d="M10.6103 15.1114L10.4268 15.3127" stroke="#FFFE55" stroke-width="0.08627" stroke-linecap="round" stroke-linejoin="round"/>
<path d="M10.8442 15.3947L10.625 15.5565" stroke="#FFFE55" stroke-width="0.08627" stroke-linecap="round" stroke-linejoin="round"/>
<path d="M11.0185 15.7181L10.772 15.8342" stroke="#FFFE55" stroke-width="0.08627" stroke-linecap="round" stroke-linejoin="round"/>
<path d="M11.1262 16.0693L10.8618 16.1351" stroke="#FFFE55" stroke-width="0.08627" stroke-linecap="round" stroke-linejoin="round"/>
<path d="M11.1298 16.8005L10.8604 16.7605" stroke="#FFFE55" stroke-width="0.08627" stroke-linecap="round" stroke-linejoin="round"/>
<path d="M11.0251 17.1527L10.7686 17.061" stroke="#FFFE55" stroke-width="0.08627" stroke-linecap="round" stroke-linejoin="round"/>
<path d="M10.8539 17.4778L10.6201 17.338" stroke="#FFFE55" stroke-width="0.08627" stroke-linecap="round" stroke-linejoin="round"/>
<path d="M10.623 17.7634L10.4209 17.5807" stroke="#FFFE55" stroke-width="0.08627" stroke-linecap="round" stroke-linejoin="round"/>
<path d="M10.3404 17.9984L10.1777 17.7799" stroke="#FFFE55" stroke-width="0.08627" stroke-linecap="round" stroke-linejoin="round"/>
<path d="M10.018 18.1741L9.90088 17.9281" stroke="#FFFE55" stroke-width="0.08627" stroke-linecap="round" stroke-linejoin="round"/>
<path d="M9.66708 18.2837L9.6001 18.0196" stroke="#FFFE55" stroke-width="0.08627" stroke-linecap="round" stroke-linejoin="round"/>
<path d="M8.93604 18.2902L8.97493 18.0206" stroke="#FFFE55" stroke-width="0.08627" stroke-linecap="round" stroke-linejoin="round"/>
<path d="M8.58301 18.187L8.67362 17.9301" stroke="#FFFE55" stroke-width="0.08627" stroke-linecap="round" stroke-linejoin="round"/>
<path d="M8.25732 18.0171L8.39619 17.7828" stroke="#FFFE55" stroke-width="0.08627" stroke-linecap="round" stroke-linejoin="round"/>
<path d="M7.9707 17.7872L8.15252 17.5843" stroke="#FFFE55" stroke-width="0.08627" stroke-linecap="round" stroke-linejoin="round"/>
<path d="M7.73486 17.5058L7.95268 17.3422" stroke="#FFFE55" stroke-width="0.08627" stroke-linecap="round" stroke-linejoin="round"/>
<path d="M7.55762 17.1838L7.80311 17.0657" stroke="#FFFE55" stroke-width="0.08627" stroke-linecap="round" stroke-linejoin="round"/>
<path d="M7.44678 16.8336L7.71056 16.7656" stroke="#FFFE55" stroke-width="0.08627" stroke-linecap="round" stroke-linejoin="round"/>
<path d="M7.43701 16.1024L7.70681 16.1402" stroke="#FFFE55" stroke-width="0.08627" stroke-linecap="round" stroke-linejoin="round"/>
<path d="M7.53857 15.7494L7.79586 15.8389" stroke="#FFFE55" stroke-width="0.08627" stroke-linecap="round" stroke-linejoin="round"/>
<path d="M7.70703 15.4229L7.94198 15.5607" stroke="#FFFE55" stroke-width="0.08627" stroke-linecap="round" stroke-linejoin="round"/>
<path d="M8.21631 14.8979L8.38084 15.1151" stroke="#FFFE55" stroke-width="0.08627" stroke-linecap="round" stroke-linejoin="round"/>
<path d="M8.5376 14.7196L8.65673 14.9646" stroke="#FFFE55" stroke-width="0.08627" stroke-linecap="round" stroke-linejoin="round"/>
<path d="M8.88721 14.6071L8.95639 14.8706" stroke="#FFFE55" stroke-width="0.08627" stroke-linecap="round" stroke-linejoin="round"/>
<path d="M7.33894 5.66049L7.07539 4.7717L6.82024 4.65204L6.05762 4.90347L6.60996 5.52871L7.33894 5.66049Z" fill="#001F29" stroke="#FFFE55" stroke-width="0.06045" stroke-linecap="round" stroke-linejoin="round"/>
<path d="M9.17236 13.8082L8.95927 14.2287L7.86581 14.7839L7.74805 14.3128L9.17236 13.8082Z" fill="#001F29" stroke="#FFFE55" stroke-width="0.05958" stroke-linecap="round" stroke-linejoin="round"/>
<path d="M9.17259 13.9708L9.00436 14.526L8.01744 14.9634L7.89551 14.539L9.17259 13.9708Z" fill="#001F29" stroke="#FFFE55" stroke-width="0.05958" stroke-linecap="round" stroke-linejoin="round"/>
<path d="M7.80402 14.1334L7.89518 14.6493L6.7528 15.9642L6.25635 15.6587L7.80402 14.1334Z" fill="#001F29" stroke="#FFFE55" stroke-width="0.05958" stroke-linecap="round" stroke-linejoin="round"/>
<path d="M7.90271 14.4363L8.04499 15.0041L7.21862 16.2333L6.72217 15.9278L7.90271 14.4363Z" fill="#001F29" stroke="#FFFE55" stroke-width="0.05958" stroke-linecap="round" stroke-linejoin="round"/>
<path d="M6.17963 17.5866L6.07227 15.5911L6.7218 15.8177L6.85078 17.6705L6.17963 17.5866Z" fill="#001F29" stroke="#FFFE55" stroke-width="0.05958" stroke-linecap="round" stroke-linejoin="round"/>
<path d="M7.77607 17.6705L7.38326 16.3203L6.67139 15.8493L6.81718 17.6998L7.77607 17.6705Z" fill="#001F29" stroke="#FFFE55" stroke-width="0.05958" stroke-linecap="round" stroke-linejoin="round"/>
<path d="M8.13506 18.8493L7.4229 19.1297L5.7749 17.5432L6.85094 17.6705L8.13506 18.8493Z" fill="#001F29" stroke="#FFFE55" stroke-width="0.05958" stroke-linecap="round" stroke-linejoin="round"/>
<path d="M8.57265 18.4119L7.9334 18.8942L6.72217 17.6522L7.61377 17.6998L8.53412 18.4063" fill="#001F29"/>
<path d="M8.57265 18.4119L7.9334 18.8942L6.72217 17.6522L7.61377 17.6998L8.53412 18.4063" stroke="#FFFE55" stroke-width="0.05958" stroke-linecap="round" stroke-linejoin="round"/>
<path d="M9.69968 18.9783L7.82677 18.9222L6.85107 19.4213L9.44174 19.6456L9.69968 18.9783Z" fill="#001F29" stroke="#FFFE55" stroke-width="0.05958" stroke-linecap="round" stroke-linejoin="round"/>
<path d="M9.64339 18.4232H8.48824L7.74805 19.0017L9.5817 19.0736L9.64339 18.4232Z" fill="#001F29" stroke="#FFFE55" stroke-width="0.05958" stroke-linecap="round" stroke-linejoin="round"/>
<path d="M11.1912 18.6475L11.4211 19.1858L9.25098 19.9596L9.55939 19.0007L11.1912 18.6475Z" fill="#001F29" stroke="#FFFE55" stroke-width="0.05958" stroke-linecap="round" stroke-linejoin="round"/>
<path d="M10.5968 18.0363L11.3034 18.8213L9.48096 19.0736L9.69965 18.4232L10.5968 18.0363Z" fill="#001F29" stroke="#FFFE55" stroke-width="0.05958" stroke-linecap="round" stroke-linejoin="round"/>
<path d="M12.3299 17.3047L11.2246 18.8101L11.5097 19.4014L12.8115 17.5821L12.3299 17.3047Z" fill="#001F29" stroke="#FFFE55" stroke-width="0.05958" stroke-linecap="round" stroke-linejoin="round"/>
<path d="M11.2079 17.2568L12.3911 17.3073L11.2273 18.8625L10.5967 18.0082L11.2079 17.2568Z" fill="#001F29" stroke="#FFFE55" stroke-width="0.05958" stroke-linecap="round" stroke-linejoin="round"/>
<path d="M11.365 16.0848L11.208 17.2568L12.3912 17.3073V16.3204L11.365 16.0848Z" fill="#001F29" stroke="#FFFE55" stroke-width="0.05958" stroke-linecap="round" stroke-linejoin="round"/>
<path d="M12.3913 16.1914L12.3496 17.363L12.8791 17.6045L13.0585 16.1914H12.3913Z" fill="#001F29" stroke="#FFFE55" stroke-width="0.05958" stroke-linecap="round" stroke-linejoin="round"/>
<path d="M11.208 15.44L12.2342 14.9633L12.3912 16.3203L11.3507 16.1914L11.208 15.44Z" fill="#001F29" stroke="#FFFE55" stroke-width="0.05958" stroke-linecap="round" stroke-linejoin="round"/>
<path d="M12.2344 14.9633L12.6662 14.9072L13.1428 16.1914L12.3899 16.2333L12.2344 14.9633Z" fill="#001F29" stroke="#FFFE55" stroke-width="0.05958" stroke-linecap="round" stroke-linejoin="round"/>
<path d="M12.666 14.9073L12.9576 14.8568L13.5015 16.2643L13.0585 16.1914L12.666 14.9073Z" fill="#001F29" stroke="#FFFE55" stroke-width="0.05958" stroke-linecap="round" stroke-linejoin="round"/>
<path d="M10.5659 14.3227L11.1799 15.4792L12.2342 14.9633L11.5458 13.8727L10.5659 14.3227Z" fill="#001F29" stroke="#FFFE55" stroke-width="0.05958" stroke-linecap="round" stroke-linejoin="round"/>
<path d="M12.1389 13.8082L11.5459 13.8727L12.2211 14.9425L12.666 14.9072L12.1389 13.8082Z" fill="#001F29" stroke="#FFFE55" stroke-width="0.05958" stroke-linecap="round" stroke-linejoin="round"/>
<path d="M12.5763 13.7759L12.106 13.8082L12.666 14.9073L13.1651 14.8568L12.5763 13.7759Z" fill="#001F29" stroke="#FFFE55" stroke-width="0.05958" stroke-linecap="round" stroke-linejoin="round"/>
<path d="M10.6627 13.0189L9.7627 13.6203L10.1244 14.5792L11.5459 13.8727L10.6627 13.0189Z" fill="#001F29" stroke="#FFFE55" stroke-width="0.05958" stroke-linecap="round" stroke-linejoin="round"/>
<path d="M11.7519 13.0189H10.6626L11.5458 13.8727L12.1388 13.8082L11.7519 13.0189Z" fill="#001F29" stroke="#FFFE55" stroke-width="0.05958" stroke-linecap="round" stroke-linejoin="round"/>
<path d="M12.265 12.9979L11.752 13.0189L12.1175 13.8309L12.8118 13.776L12.265 12.9979Z" fill="#001F29" stroke="#FFFE55" stroke-width="0.05958" stroke-linecap="round" stroke-linejoin="round"/>
<path d="M11.6118 12.1708L11.752 13.0189L12.5875 12.9979L12.0212 12.1428L11.6118 12.1708Z" fill="#001F29" stroke="#FFFE55" stroke-width="0.05958" stroke-linecap="round" stroke-linejoin="round"/>
<path d="M10.0359 11.0717L9.93311 12.182H12.0995L11.4995 11.2512L10.0359 11.0717Z" fill="#001F29" stroke="#FFFE55" stroke-width="0.05958" stroke-linecap="round" stroke-linejoin="round"/>
<path d="M13.0304 12.4338L12.6355 13.1129L11.3706 11.1615L11.7996 11.1222L13.0304 12.4338Z" fill="#001F29" stroke="#FFFE55" stroke-width="0.05958" stroke-linecap="round" stroke-linejoin="round"/>
<path d="M13.2942 12.6923L11.6904 11.0437L11.7521 10.8194L13.5409 11.9521L13.2942 12.6923Z" fill="#001F29" stroke="#FFFE55" stroke-width="0.05958" stroke-linecap="round" stroke-linejoin="round"/>
<path d="M13.6697 12.0082L11.6903 10.8194L11.5459 10.5726H11.8473L13.6361 11.453L13.6697 12.0082Z" fill="#001F29" stroke="#FFFE55" stroke-width="0.05958" stroke-linecap="round" stroke-linejoin="round"/>
<path d="M13.6234 11.0002L11.7939 10.1129L11.8472 10.5727L13.5641 11.4176L13.6234 11.0002Z" fill="#001F29" stroke="#FFFE55" stroke-width="0.05958" stroke-linecap="round" stroke-linejoin="round"/>
<path d="M13.7412 11.0381L13.6486 10.5082L11.7519 9.69647L11.7183 10.1128L13.7412 11.0381Z" fill="#001F29" stroke="#FFFE55" stroke-width="0.05958" stroke-linecap="round" stroke-linejoin="round"/>
<path d="M13.4972 10.3673L13.308 9.73852L11.7939 9.29272L11.8318 9.75534L13.4972 10.3673Z" fill="#001F29" stroke="#FFFE55" stroke-width="0.05958" stroke-linecap="round" stroke-linejoin="round"/>
<path d="M13.4424 9.81006L13.1144 9.29276L11.8779 8.96472V9.31753L13.4424 9.81006Z" fill="#001F29" stroke="#FFFE55" stroke-width="0.05958" stroke-linecap="round" stroke-linejoin="round"/>
<path d="M10.6545 13.0483L9.89746 12.182L11.612 12.1708L11.7521 13.0189L10.6545 13.0483Z" fill="#001F29" stroke="#FFFE55" stroke-width="0.05958" stroke-linecap="round" stroke-linejoin="round"/>
<path d="M9.38404 13.7991L10.6541 13.0484L9.89713 12.182L8.90039 12.6923L9.38404 13.7991Z" fill="#001F29" stroke="#FFFE55" stroke-width="0.05958" stroke-linecap="round" stroke-linejoin="round"/>
<path d="M9.13184 11.1432L10.036 11.0717L9.93321 12.182L9.13184 11.1432Z" fill="#001F29" stroke="#FFFE55" stroke-width="0.05958" stroke-linecap="round" stroke-linejoin="round"/>
<path d="M8.46027 12.8969L9.93314 12.182L9.13177 11.1432L8.15186 11.6479L8.46027 12.8969Z" fill="#001F29" stroke="#FFFE55" stroke-width="0.05958" stroke-linecap="round" stroke-linejoin="round"/>
<path d="M7.83232 10.6343C7.82391 10.647 7.77344 11.8456 7.77344 11.8456L9.13186 11.1432L8.73232 10.4535L7.83231 10.6343H7.83232Z" fill="#001F29" stroke="#FFFE55" stroke-width="0.05958" stroke-linecap="round" stroke-linejoin="round"/>
<path d="M10.1918 10.3672L8.73242 10.4535L9.13195 11.1432L10.0362 11.0717L10.1918 10.3672Z" fill="#001F29" stroke="#FFFE55" stroke-width="0.05958" stroke-linecap="round" stroke-linejoin="round"/>
<path d="M11.752 10.5926L10.1917 10.3694L10.0361 11.0717L11.911 11.2705L11.752 10.5926Z" fill="#001F29" stroke="#FFFE55" stroke-width="0.05958" stroke-linecap="round" stroke-linejoin="round"/>
<path d="M7.68939 9.61236C7.68098 9.62498 7.41602 10.8199 7.41602 10.8199L8.73238 10.4535L8.60621 9.48199L7.68938 9.61236H7.68939Z" fill="#001F29" stroke="#FFFE55" stroke-width="0.05958" stroke-linecap="round" stroke-linejoin="round"/>
<path d="M10.3429 9.38629L8.60596 9.48197L8.73213 10.4535L10.1915 10.3673L10.3429 9.38629Z" fill="#001F29" stroke="#FFFE55" stroke-width="0.05958" stroke-linecap="round" stroke-linejoin="round"/>
<path d="M11.7938 9.69649L10.3428 9.38843L10.1914 10.3673L11.9438 10.6203L11.7938 9.69649Z" fill="#001F29" stroke="#FFFE55" stroke-width="0.05958" stroke-linecap="round" stroke-linejoin="round"/>
<path d="M8.07389 7.78571C8.06427 7.79743 7.32178 9.65981 7.32178 9.65981L8.70191 9.48199L9.13161 7.87471L8.07389 7.78572V7.78571Z" fill="#001F29" stroke="#FFFE55" stroke-width="0.05958" stroke-linecap="round" stroke-linejoin="round"/>
<path d="M10.6544 8.20416L9.13184 7.87469L8.70215 9.48197L10.2828 9.3558L10.6544 8.20416Z" fill="#001F29" stroke="#FFFE55" stroke-width="0.05958" stroke-linecap="round" stroke-linejoin="round"/>
<path d="M11.8151 8.58156L10.6541 8.2063L10.2827 9.35584L11.8835 9.69649L11.8151 8.58156Z" fill="#001F29" stroke="#FFFE55" stroke-width="0.05958" stroke-linecap="round" stroke-linejoin="round"/>
<path d="M8.70192 6.62634C8.69065 6.63648 7.86572 7.73663 7.86572 7.73663L9.13162 7.87469L9.7162 6.80718L8.70192 6.62634Z" fill="#001F29" stroke="#FFFE55" stroke-width="0.05958" stroke-linecap="round" stroke-linejoin="round"/>
<path d="M11.1326 7.04582L9.71642 6.80719L9.13184 7.8747L10.5397 8.17937L11.1326 7.04582Z" fill="#001F29" stroke="#FFFE55" stroke-width="0.05958" stroke-linecap="round" stroke-linejoin="round"/>
<path d="M12.1219 7.36446L11.1324 7.04584L10.5396 8.17939L12.1618 8.75232L12.1219 7.36446Z" fill="#001F29" stroke="#FFFE55" stroke-width="0.05958" stroke-linecap="round" stroke-linejoin="round"/>
<path d="M9.63219 5.51605C9.62092 5.52619 8.56396 6.5969 8.56396 6.5969L9.7163 6.80718L10.3976 5.70951L9.63218 5.51605H9.63219Z" fill="#001F29" stroke="#FFFE55" stroke-width="0.05958" stroke-linecap="round" stroke-linejoin="round"/>
<path d="M11.5121 6.08804L10.3976 5.70953L9.71631 6.8072L11.1042 7.06795L11.5121 6.08804Z" fill="#001F29" stroke="#FFFE55" stroke-width="0.05958" stroke-linecap="round" stroke-linejoin="round"/>
<path d="M12.6054 6.52125L11.512 6.08807L11.104 7.06798L12.7821 7.61892L12.6054 6.52125Z" fill="#001F29" stroke="#FFFE55" stroke-width="0.05958" stroke-linecap="round" stroke-linejoin="round"/>
<path d="M12.0516 5.28455L10.1624 5.10394L9.49512 5.47263L11.5124 6.10909L12.0516 5.28455Z" fill="#001F29" stroke="#FFFE55" stroke-width="0.05958" stroke-linecap="round" stroke-linejoin="round"/>
<path d="M13.0094 5.47404L12.0514 5.28455L11.5122 6.10909L13.1286 6.73432L13.0094 5.47404Z" fill="#001F29" stroke="#FFFE55" stroke-width="0.05958" stroke-linecap="round" stroke-linejoin="round"/>
<path d="M12.3602 4.49133L10.7508 4.44647L10.0303 5.12778L12.0512 5.28456L12.3602 4.49133Z" fill="#001F29" stroke="#FFFE55" stroke-width="0.05958" stroke-linecap="round" stroke-linejoin="round"/>
<path d="M13.6752 4.34772L12.3602 4.4913L12.0513 5.28453L13.3023 5.62175L13.6752 4.34772Z" fill="#001F29" stroke="#FFFE55" stroke-width="0.05958" stroke-linecap="round" stroke-linejoin="round"/>
<path d="M14.2249 4.24595L13.4342 3.60669L12.3604 4.49128L14.2249 4.24595Z" fill="#001F29" stroke="#FFFE55" stroke-width="0.05958" stroke-linecap="round" stroke-linejoin="round"/>
<path d="M12.1431 3.66978L13.4342 3.60669L12.3604 4.49128L12.1431 3.66978Z" fill="#001F29" stroke="#FFFE55" stroke-width="0.05958" stroke-linecap="round" stroke-linejoin="round"/>
<path d="M12.1431 3.66983L13.5519 3.52683L13.3795 2.57635L12.1431 3.66983Z" fill="#001F29" stroke="#FFFE55" stroke-width="0.05958" stroke-linecap="round" stroke-linejoin="round"/>
<path d="M12.1431 3.66978L12.7024 2.21463L13.9017 2.1145L12.1431 3.66978Z" fill="#001F29" stroke="#FFFE55" stroke-width="0.05958" stroke-linecap="round" stroke-linejoin="round"/>
<path d="M12.143 3.6698L10.751 4.40578L12.3603 4.4913L12.143 3.6698Z" fill="#001F29" stroke="#FFFE55" stroke-width="0.06045" stroke-linecap="round" stroke-linejoin="round"/>
<path d="M12.143 3.66979L10.751 4.40577L11.3902 2.90857L12.143 3.66979Z" fill="#001F29" stroke="#FFFE55" stroke-width="0.06045" stroke-linecap="round" stroke-linejoin="round"/>
<path d="M12.1429 3.66978L12.6771 2.14734L11.3901 2.90856L12.1429 3.66978Z" fill="#001F29" stroke="#FFFE55" stroke-width="0.06045" stroke-linecap="round" stroke-linejoin="round"/>
<path d="M12.0336 1.69739L12.6771 2.14739L11.3901 2.90861L12.0336 1.69739Z" fill="#001F29" stroke="#FFFE55" stroke-width="0.06045" stroke-linecap="round" stroke-linejoin="round"/>
<path d="M12.3907 1.0257L11.354 1.44364L11.3905 2.9086L12.3907 1.0257Z" fill="#001F29" stroke="#FFFE55" stroke-width="0.06045" stroke-linecap="round" stroke-linejoin="round"/>
<path d="M10.0303 2.48659L11.3536 1.4436L11.3901 2.90856L10.0303 2.48659Z" fill="#001F29" stroke="#FFFE55" stroke-width="0.06045" stroke-linecap="round" stroke-linejoin="round"/>
<path d="M9.9155 2.8511L9.44727 1.09174L9.60709 0.0403442L10.2887 0.796684L9.9155 2.8511Z" fill="#001F29" stroke="#FFFE55" stroke-width="0.06045" stroke-linecap="round" stroke-linejoin="round"/>
<path d="M10.1444 1.59127L10.0078 2.52807L11.2978 1.44363L10.7104 1.20221L10.1444 1.59127Z" fill="#001F29" stroke="#FFFE55" stroke-width="0.06045" stroke-linecap="round" stroke-linejoin="round"/>
<path d="M10.1445 1.59126L10.2889 0.877258H11.1129L10.7106 1.2022L10.1445 1.59126Z" fill="#001F29" stroke="#FFFE55" stroke-width="0.06045" stroke-linecap="round" stroke-linejoin="round"/>
<path d="M9.86807 2.67256L9.44736 1.09177L8.49268 1.07495L8.66098 1.9173L9.86807 2.67256Z" fill="#001F29" stroke="#FFFE55" stroke-width="0.06045" stroke-linecap="round" stroke-linejoin="round"/>
<path d="M9.88488 2.73612L8.72663 3.34794L8.29492 2.82029L8.66088 1.9173L9.88488 2.73612Z" fill="#001F29" stroke="#FFFE55" stroke-width="0.06045" stroke-linecap="round" stroke-linejoin="round"/>
<path d="M9.88481 2.73608L8.72656 3.37662L9.18021 4.22493L9.88481 2.73608Z" fill="#001F29" stroke="#FFFE55" stroke-width="0.06045" stroke-linecap="round" stroke-linejoin="round"/>
<path d="M8.29492 4.37636L8.64073 3.2243L9.0735 3.99182L8.29492 4.37636Z" fill="#001F29" stroke="#FFFE55" stroke-width="0.06045" stroke-linecap="round" stroke-linejoin="round"/>
<path d="M8.29478 4.37636L7.12842 4.91748L8.0232 3.78967L8.49244 3.70135L8.29478 4.37636Z" fill="#001F29" stroke="#FFFE55" stroke-width="0.06045" stroke-linecap="round" stroke-linejoin="round"/>
<path d="M6.80613 4.68194L6.60986 5.52868L7.12856 4.91746L8.02334 3.78965L7.78496 3.55621L6.80613 4.68194Z" fill="#001F29" stroke="#FFFE55" stroke-width="0.06045" stroke-linecap="round" stroke-linejoin="round"/>
<path d="M9.88475 2.73608L10.2885 4.37634L8.97803 4.65201L9.88475 2.73608Z" fill="#001F29" stroke="#FFFE55" stroke-width="0.06045" stroke-linecap="round" stroke-linejoin="round"/>
<path d="M9.88477 2.73608L10.2886 4.37634L10.9387 3.88418L9.88477 2.73608Z" fill="#001F29" stroke="#FFFE55" stroke-width="0.06045" stroke-linecap="round" stroke-linejoin="round"/>
<path d="M7.54199 2.22308L7.82219 2.90468L8.2948 2.82028L8.50445 2.30299L7.54199 2.22308Z" fill="#001F29" stroke="#FFFE55" stroke-width="0.06045" stroke-linecap="round" stroke-linejoin="round"/>
<path d="M10.0305 2.48663L9.91553 2.85112L10.9738 3.88421L11.3903 2.9086L10.0305 2.48663Z" fill="#001F29" stroke="#FFFE55" stroke-width="0.06045" stroke-linecap="round" stroke-linejoin="round"/>
<path d="M7.63232 3.40694L7.8221 2.90465L8.29471 2.82025L8.64052 3.22428L8.49237 3.70133L8.02313 3.78965L7.63232 3.40694Z" fill="#001F29" stroke="#FFFE55" stroke-width="0.06045" stroke-linecap="round" stroke-linejoin="round"/>
<path d="M9.29581 17.8713C10.0827 17.8713 10.7205 17.2334 10.7205 16.4466C10.7205 15.6597 10.0827 15.0219 9.29581 15.0219C8.50896 15.0219 7.87109 15.6597 7.87109 16.4466C7.87109 17.2334 8.50896 17.8713 9.29581 17.8713Z" fill="#666554" stroke="#FFFE55" stroke-width="0.05958" stroke-linecap="round" stroke-linejoin="round"/>
<path d="M9.29581 17.8713C10.0827 17.8713 10.7205 17.2334 10.7205 16.4466C10.7205 15.6597 10.0827 15.0219 9.29581 15.0219C8.50896 15.0219 7.87109 15.6597 7.87109 16.4466C7.87109 17.2334 8.50896 17.8713 9.29581 17.8713Z" fill="#666554" stroke="#FFFE55" stroke-width="0.05958" stroke-linecap="round" stroke-linejoin="round"/>
<path d="M9.29571 17.6031C9.93446 17.6031 10.4523 17.0853 10.4523 16.4465C10.4523 15.8078 9.93446 15.29 9.29571 15.29C8.65697 15.29 8.13916 15.8078 8.13916 16.4465C8.13916 17.0853 8.65697 17.6031 9.29571 17.6031Z" fill="#666554" stroke="#FFFE55" stroke-width="0.05958" stroke-linecap="round" stroke-linejoin="round"/>
<path d="M10.4529 15.2773L9.29636 16.4465L9.27393 15.8619L10.4529 15.2773Z" fill="#00968E"/>
<path d="M10.4524 15.2773L9.2959 16.4465L9.87418 16.4603L10.4524 15.2773Z" fill="#00071B"/>
<path d="M10.4651 17.6031L9.2959 16.4465L9.88048 16.4241L10.4651 17.6031Z" fill="#00968E"/>
<path d="M10.4652 17.6031L9.29605 16.4465L9.28223 17.0248L10.4652 17.6031Z" fill="#00071B"/>
<path d="M8.13965 17.6157L9.2962 16.4465L9.31863 17.0311L8.13965 17.6157Z" fill="#00968E"/>
<path d="M8.13965 17.6157L9.2962 16.4465L8.71793 16.4327L8.13965 17.6157Z" fill="#00071B"/>
<path d="M8.12695 15.29L9.29612 16.4465L8.71154 16.469L8.12695 15.29Z" fill="#00968E"/>
<path d="M8.12695 15.29L9.29612 16.4465L9.30995 15.8682L8.12695 15.29Z" fill="#00071B"/>
<path d="M9.29613 17.2568C9.74364 17.2568 10.1064 16.894 10.1064 16.4465C10.1064 15.999 9.74364 15.6362 9.29613 15.6362C8.84862 15.6362 8.48584 15.999 8.48584 16.4465C8.48584 16.894 8.84862 17.2568 9.29613 17.2568Z" fill="#807C4A" stroke="#FFFE55" stroke-width="0.10888" stroke-linecap="round" stroke-linejoin="round"/>
<path d="M11.609 16.4465H9.2959L9.53079 16.1566L11.609 16.4465Z" fill="#00968E"/>
<path d="M11.609 16.4465H9.2959L9.55244 16.7262L11.609 16.4465Z" fill="#00071B"/>
<path d="M9.29577 14.1334V16.4465L9.00586 16.2116L9.29577 14.1334Z" fill="#00968E"/>
<path d="M9.2959 14.1334V16.4465L9.57558 16.19L9.2959 14.1334Z" fill="#00071B"/>
<path d="M9.2959 18.7596V16.4465L9.58582 16.6814L9.2959 18.7596Z" fill="#00968E"/>
<path d="M9.29578 18.7596V16.4465L9.01611 16.7031L9.29578 18.7596Z" fill="#00071B"/>
<path d="M6.98291 16.4465H9.29601L9.06112 16.7364L6.98291 16.4465Z" fill="#00968E"/>
<path d="M6.98291 16.4466H9.29601L9.03947 16.1669L6.98291 16.4466Z" fill="#00071B"/>
<path d="M9.29583 16.8366C9.51126 16.8366 9.6859 16.662 9.6859 16.4465C9.6859 16.2311 9.51126 16.0565 9.29583 16.0565C9.0804 16.0565 8.90576 16.2311 8.90576 16.4465C8.90576 16.662 9.0804 16.8366 9.29583 16.8366Z" fill="#00182B" stroke="#00968E" stroke-width="0.05532" stroke-miterlimit="10"/>
<path d="M9.29589 16.6316C9.39809 16.6316 9.48094 16.5487 9.48094 16.4465C9.48094 16.3443 9.39809 16.2615 9.29589 16.2615C9.19369 16.2615 9.11084 16.3443 9.11084 16.4465C9.11084 16.5487 9.19369 16.6316 9.29589 16.6316Z" fill="#00182B" stroke="#00968E" stroke-width="0.05958" stroke-miterlimit="10"/>
</svg>
