<svg width="21" height="20" viewBox="0 0 21 20" fill="none" xmlns="http://www.w3.org/2000/svg">
<g clip-path="url(#clip0)">
<path d="M10.5 20C16.0228 20 20.5 15.5228 20.5 10C20.5 4.47715 16.0228 0 10.5 0C4.97715 0 0.5 4.47715 0.5 10C0.5 15.5228 4.97715 20 10.5 20Z" fill="#F0F0F0"/>
<path d="M20.5 9.99999C20.5 15.5228 16.0228 20 10.5 20C4.97719 20 0.5 15.5228 0.5 9.99999C0.5 4.47718 10.5 9.99999 10.5 9.99999C10.5 9.99999 18.0688 9.99999 20.5 9.99999Z" fill="#D80027"/>
<path d="M0.5 10C0.5 4.47719 4.97719 0 10.5 0C10.5 3.80293 10.5 10 10.5 10C10.5 10 3.97824 10 0.5 10Z" fill="#0052B4"/>
<path d="M6.45269 3.47824L7.10022 5.47113H9.19565L7.50042 6.70277L8.14792 8.69566L6.45269 7.46398L4.75745 8.69566L5.40495 6.70277L3.70972 5.47113H5.80515L6.45269 3.47824Z" fill="#F0F0F0"/>
</g>
<defs>
<clipPath id="clip0">
<rect width="20" height="20" fill="white" transform="translate(0.5)"/>
</clipPath>
</defs>
</svg>
