<svg width="20" height="20" viewBox="0 0 20 20" fill="none" xmlns="http://www.w3.org/2000/svg">
<path fill-rule="evenodd" clip-rule="evenodd" d="M15 10C17.7643 10 20 7.76431 20 5C20 2.23568 17.7533 0 15 0C12.2467 0 10.022 2.22467 10 4.96697C9.97796 2.22467 7.75333 0 5 0C2.23568 0 0 2.23568 0 5C0 7.75333 2.22467 9.98897 4.97797 10C2.22467 10.011 0 12.2467 0 15C0 17.7644 2.23568 20 5 20C7.76429 20 10 17.7644 10 15C10 12.2467 7.77532 10.011 5.02202 10C7.76429 9.98897 9.97796 7.77533 10 5.03305C10.011 7.77533 12.2467 10 15 10Z" fill="#06E594"/>
<path d="M15 20.0001C17.7614 20.0001 20 17.7614 20 15C20 12.2386 17.7614 10 15 10C12.2386 10 10 12.2386 10 15C10 17.7614 12.2386 20.0001 15 20.0001Z" fill="#06E594"/>
</svg>
