<svg width="32" height="32" viewBox="0 0 32 32" fill="none" xmlns="http://www.w3.org/2000/svg">
<rect width="32" height="32" rx="3" fill="#00C26F"/>
<path d="M11.1871 7.97852H20.8127C21.6637 7.97852 22.4798 8.18979 23.0815 8.56587C23.6833 8.94194 24.0213 9.45201 24.0213 9.98386V24.0213L15.9999 21.0133L7.97852 24.0213V9.98386C7.97852 9.45201 8.31656 8.94194 8.91828 8.56587C9.52 8.18979 10.3361 7.97852 11.1871 7.97852Z" stroke="white" stroke-width="1.3" stroke-linecap="round" stroke-linejoin="round"/>
<path d="M15.4648 16.1484C15.4076 16.7552 15.1836 17.2292 14.793 17.5703C14.4023 17.9089 13.8828 18.0781 13.2344 18.0781C12.7812 18.0781 12.3815 17.9714 12.0352 17.7578C11.6914 17.5417 11.4258 17.2357 11.2383 16.8398C11.0508 16.444 10.9531 15.9844 10.9453 15.4609V14.9297C10.9453 14.3932 11.0404 13.9206 11.2305 13.5117C11.4206 13.1029 11.6927 12.7878 12.0469 12.5664C12.4036 12.3451 12.8151 12.2344 13.2812 12.2344C13.9089 12.2344 14.4141 12.4049 14.7969 12.7461C15.1797 13.0872 15.4023 13.569 15.4648 14.1914H14.4805C14.4336 13.7826 14.3138 13.4883 14.1211 13.3086C13.931 13.1263 13.651 13.0352 13.2812 13.0352C12.8516 13.0352 12.5208 13.1927 12.2891 13.5078C12.0599 13.8203 11.9427 14.2799 11.9375 14.8867V15.3906C11.9375 16.0052 12.0469 16.474 12.2656 16.7969C12.487 17.1198 12.8099 17.2812 13.2344 17.2812C13.6224 17.2812 13.9141 17.194 14.1094 17.0195C14.3047 16.8451 14.4284 16.5547 14.4805 16.1484H15.4648ZM20.8633 18H19.875L17.3398 13.9648V18H16.3516V12.3125H17.3398L19.8828 16.3633V12.3125H20.8633V18Z" fill="white"/>
</svg>
