<svg width="20" height="20" viewBox="0 0 20 20" fill="none" xmlns="http://www.w3.org/2000/svg">
<circle cx="10" cy="10" r="10" fill="#09B709"/>
<path d="M13.416 3.31093C14.1002 3.63716 14.8142 4.22472 15.0273 4.63699C15.2001 4.97103 15.2362 5.88004 15.0766 5.88004C15.0194 5.88004 14.9726 5.763 14.9726 5.61996C14.9726 5.28676 14.3478 4.65915 13.6982 4.33988C12.5443 3.77271 10.9071 3.80299 9.82803 4.41135C8.94919 4.90674 8.69255 5.92674 9.26398 6.65318C9.5278 6.98857 10.1946 7.33395 11.4695 7.79542C12.6325 8.21633 13.4354 8.61143 13.9473 9.01454C14.1558 9.1787 14.3604 9.313 14.4019 9.313C14.4435 9.313 14.4565 9.02359 14.4309 8.66989C14.3867 8.05841 14.3604 8.00515 13.8946 7.58352C13.4475 7.17863 12.439 6.60824 12.1703 6.60824C12.1095 6.60824 12.0598 6.72527 12.0598 6.86831C12.0598 7.01135 12.0319 7.12839 11.9977 7.12839C11.9635 7.12839 11.7183 6.93708 11.4528 6.70332C11.1872 6.46957 10.7002 6.11181 10.3705 5.90833C10.0409 5.70485 9.77113 5.50335 9.77113 5.46049C9.77113 5.32743 11.4265 4.92837 12.2308 4.86762C13.0168 4.80812 13.1729 4.88739 12.7678 5.14028C12.549 5.27687 12.5695 5.29705 13.2619 5.62828C14.6943 6.31342 15.2255 7.00116 15.2242 8.16868C15.2236 8.64961 15.1535 9.00258 14.9812 9.39092C14.8106 9.77541 14.7704 9.97557 14.8452 10.0671C15.0228 10.2848 15.2847 11.3002 15.2847 11.7714C15.2847 13.0571 14.7904 14.1804 13.7785 15.1945C12.9366 16.0382 12.1153 16.4858 10.7975 16.819C9.69435 17.098 8.07431 17.0492 7.12119 16.7084C6.36042 16.4364 6.24276 16.3338 6.45186 16.1246C6.59168 15.9849 6.67501 15.9906 7.21794 16.1774C7.87322 16.4028 8.21069 16.4425 8.21069 16.2941C8.21069 16.1867 7.95966 16.0761 7.70802 16.0724C7.49164 16.0694 6.42274 15.6341 6.08006 15.4095C5.92402 15.3074 5.84797 15.1816 5.88449 15.0864C5.96813 14.8685 6.16308 14.8911 6.74502 15.186C7.4003 15.518 8.19217 15.7189 8.32439 15.5867C8.38868 15.5224 8.19966 15.4239 7.79748 15.3122C7.30657 15.1757 7.17039 15.094 7.17039 14.9363C7.17039 14.8255 7.21305 14.7085 7.26517 14.6762C7.31728 14.644 7.81309 14.6942 8.36694 14.7878C9.20542 14.9294 9.49763 14.9376 10.1124 14.836C12.0014 14.524 12.8022 13.2723 11.825 12.1592C11.4174 11.6951 11.0863 11.5353 9.25358 10.9185C8.4254 10.6398 7.52888 10.2645 7.26121 10.0844L6.77477 9.7569L6.71755 10.043C6.55756 10.843 7.12025 11.5714 8.36673 12.1777L9.09494 12.5319L9.12771 12.2205L9.16047 11.9092L9.7059 12.3751C10.0058 12.6314 10.5253 13.0061 10.8603 13.2079L11.4695 13.5747L11.1145 13.7229C10.3133 14.0576 8.21069 14.3475 8.21069 14.1234C8.21069 14.0799 8.30796 13.9836 8.42686 13.9093C8.62857 13.7834 8.58831 13.7478 7.82869 13.38C6.82158 12.8923 6.4166 12.5576 6.13822 11.9825C5.84985 11.3867 5.84797 10.3705 6.13416 9.73973L6.3418 9.28221L6.10649 8.80347C5.75549 8.08941 5.77661 6.68148 6.15059 5.86703C6.98907 4.0409 9.16651 2.92696 11.7477 3.00373C12.6721 3.03119 12.9285 3.07842 13.416 3.31093Z" fill="white"/>
<path d="M5.80574 15.4712C6.24859 15.7402 6.33785 15.8505 6.26534 16.0394C6.18368 16.2526 5.85775 16.2066 5.39982 15.9175C4.95571 15.6372 4.91618 15.5619 5.11061 15.3675C5.28299 15.1951 5.37329 15.2087 5.80574 15.4712Z" fill="white"/>
<path d="M5.40699 14.2284C6.05094 14.763 5.86254 15.3027 5.19727 14.8291C4.77481 14.5282 4.62105 14.235 4.78323 14.0397C4.94729 13.842 4.93845 13.8394 5.40699 14.2284Z" fill="white"/>
<path d="M6.74523 14.2804C7.08291 14.4727 7.17081 14.793 6.91292 14.892C6.7265 14.9635 6.02607 14.5491 6.02607 14.3673C6.02607 14.0521 6.28823 14.0203 6.74523 14.2804Z" fill="white"/>
</svg>
