<svg width="32" height="32" viewBox="0 0 32 32" fill="none" xmlns="http://www.w3.org/2000/svg">
<rect width="32" height="32" rx="3" fill="#5F4036"/>
<path d="M7.66675 17.8517C8.43527 18.4462 9.5899 18.7934 10.9075 18.7777C12.2251 18.7934 13.3797 18.4462 14.1482 17.8517C14.9167 17.2573 16.0714 16.9101 17.389 16.9258C18.7066 16.9101 19.8612 17.2573 20.6297 17.8517" stroke="white" stroke-width="1.3" stroke-linecap="round" stroke-linejoin="round"/>
<path d="M12.2963 7.66675C12.0032 7.87709 11.7658 8.15561 11.6045 8.47825C11.4432 8.80089 11.3628 9.15796 11.3704 9.5186C11.3628 9.87924 11.4432 10.2363 11.6045 10.5589C11.7658 10.8816 12.0032 11.1601 12.2963 11.3705" stroke="white" stroke-width="1.3" stroke-linecap="round" stroke-linejoin="round"/>
<path d="M15.9999 7.66675C15.7069 7.87709 15.4694 8.15561 15.3081 8.47825C15.1468 8.80089 15.0664 9.15796 15.074 9.5186C15.0664 9.87924 15.1468 10.2363 15.3081 10.5589C15.4694 10.8816 15.7069 11.1601 15.9999 11.3705" stroke="white" stroke-width="1.3" stroke-linecap="round" stroke-linejoin="round"/>
<path d="M7.66675 14.1479H20.6297V18.7776C20.6297 20.251 20.0444 21.6641 19.0025 22.706C17.9607 23.7478 16.5476 24.3331 15.0742 24.3331H13.2223C11.7489 24.3331 10.3358 23.7478 9.29393 22.706C8.25206 21.6641 7.66675 20.251 7.66675 18.7776V14.1479Z" stroke="white" stroke-width="1.3" stroke-linecap="round" stroke-linejoin="round"/>
<path d="M20.3945 20.3757C20.808 20.5656 21.2619 20.6509 21.7161 20.6243C22.1703 20.5976 22.611 20.4598 22.9995 20.2229C23.388 19.9861 23.7124 19.6574 23.9441 19.2658C24.1758 18.8742 24.3077 18.4317 24.3284 17.9771C24.349 17.5226 24.2576 17.07 24.0623 16.659C23.867 16.248 23.5738 15.8913 23.2083 15.6203C22.8429 15.3492 22.4164 15.172 21.9665 15.1044C21.5166 15.0367 21.0569 15.0806 20.6279 15.2322" stroke="white" stroke-width="1.3" stroke-linecap="round" stroke-linejoin="round"/>
</svg>
