<svg width="32" height="32" viewBox="0 0 32 32" fill="none" xmlns="http://www.w3.org/2000/svg">
<rect width="32" height="32" rx="3" fill="#FFA800"/>
<path d="M7.66675 9.74984C7.66675 9.1973 7.88624 8.6674 8.27694 8.2767C8.66764 7.886 9.19755 7.6665 9.75008 7.6665H20.1667C20.443 7.6665 20.708 7.77625 20.9033 7.9716C21.0987 8.16695 21.2084 8.4319 21.2084 8.70817V11.8332H22.2501M7.66675 9.74984C7.66675 10.3024 7.88624 10.8323 8.27694 11.223C8.66764 11.6137 9.19755 11.8332 9.75008 11.8332H22.2501M7.66675 9.74984V22.2498C7.66675 22.8024 7.88624 23.3323 8.27694 23.723C8.66764 24.1137 9.19755 24.3332 9.75008 24.3332H22.2501C22.5263 24.3332 22.7913 24.2234 22.9867 24.0281C23.182 23.8327 23.2917 23.5678 23.2917 23.2915V20.1665M22.2501 11.8332C22.5263 11.8332 22.7913 11.9429 22.9867 12.1383M22.2501 11.8332L22.9867 12.1383M22.9867 12.1383C23.182 12.3336 23.2917 12.5986 23.2917 12.8748M22.9867 12.1383L23.2917 12.8748M23.2917 12.8748V15.9998" stroke="white" stroke-width="1.3" stroke-linecap="round" stroke-linejoin="round"/>
<path d="M24.3333 16V20.1667H20.1666C19.6141 20.1667 19.0841 19.9472 18.6934 19.5565C18.3027 19.1658 18.0833 18.6359 18.0833 18.0833C18.0833 17.5308 18.3027 17.0009 18.6934 16.6102C19.0841 16.2195 19.6141 16 20.1666 16H24.3333Z" stroke="white" stroke-width="1.3" stroke-linecap="round" stroke-linejoin="round"/>
</svg>
