<svg width="20" height="20" viewBox="0 0 20 20" fill="none" xmlns="http://www.w3.org/2000/svg">
<path d="M14.839 18.2791L12.5809 14.7307L5.69922 18.2791H14.839Z" fill="#B37AAF"/>
<path d="M15.0004 18.2791L20.0004 9.99948L12.5811 14.7307L14.8391 18.2791H15.0004Z" fill="#B388BD"/>
<path d="M5.69937 18.2791L12.5811 14.7307L3.54883 8.17153L5.16173 18.2791H5.69937Z" fill="#B397C9"/>
<path d="M20.0004 9.99953L11.6133 4.94577L12.581 14.7307L20.0004 9.99953Z" fill="#B3C1EE"/>
<path d="M0 9.99948L5 18.2791H5.16129L3.54839 8.17153L0 9.99948Z" fill="#B3A5D6"/>
<path d="M3.54883 8.17157L12.5811 14.7307L11.6133 4.94577L3.54883 8.17157Z" fill="#B2B3E1"/>
<path d="M5.00044 1.71994L3.54883 8.17156L11.6133 4.94575L5.69937 1.71994H5.00044Z" fill="#B4CFFA"/>
<path d="M20.0004 9.99951L15.0004 1.71994H14.8392L11.6133 4.94575L20.0004 9.99951Z" fill="#B4CFFA"/>
<path d="M5 1.71994L0 9.99951L3.54839 8.17156L5 1.71994Z" fill="#B7FAFF"/>
<path d="M5.69892 1.71994L11.6129 4.94575L14.8387 1.71994L5.69892 1.71994Z" fill="#B7FAFF"/>
</svg>
