<svg width="20" height="20" viewBox="0 0 20 20" fill="none" xmlns="http://www.w3.org/2000/svg">
<path d="M11.5289 9.04956H8.42973V9.6694H10.6198V19.0082H0.661133V20H11.5289V9.04956Z" fill="#808080"/>
<path fill-rule="evenodd" clip-rule="evenodd" d="M0.0410156 5.90906H8.26416V8.42972H7.72697V6.44625H0.578206L0.619528 18.719H0.0410156V5.90906Z" fill="#808080"/>
<path d="M7.72689 6.44629H0.578125L0.619447 18.719H10.3302V9.00827H7.72689V8.42976V6.44629Z" fill="white"/>
<path d="M7.72697 9.0082H10.3303V18.7189H0.619528H0.0410156V19.3388H10.9088V8.42969H8.26416H7.72697V9.0082Z" fill="black"/>
<rect x="1.9834" y="9.09082" width="5.04132" height="0.578512" fill="#0000FF"/>
<rect x="1.9834" y="10.3306" width="7.02479" height="0.578512" fill="#0000FF"/>
<rect x="1.9834" y="12.8926" width="7.02479" height="0.578512" fill="#0000FF"/>
<rect x="1.9834" y="15.5371" width="7.02479" height="0.578512" fill="#0000FF"/>
<rect x="1.9834" y="11.6528" width="7.02479" height="0.578512" fill="#0000FF"/>
<rect x="1.9834" y="14.2148" width="7.02479" height="0.578512" fill="#0000FF"/>
<rect x="1.9834" y="16.8595" width="7.02479" height="0.578512" fill="#0000FF"/>
<path d="M5 5.82643H8.22314V8.76031H8.63636V9.38015H11.3636V14.3801H12.2314V13.3471H16.281V14.876H17.8099V15.3719H19.8347V3.76031H19.4628V3.47106L17.8099 1.6942H17.2727V1.23965H8.76033L7.97521 0.49585H6.36364V3.47106H5V5.82643Z" fill="white"/>
<path d="M12.4794 15.0413H11.6529V13.5537H12.4794V15.0413Z" fill="black"/>
<path d="M12.562 13.5537V13.0578H16.0331V13.5537H16.529V14.5454H16.6116V14.6281H17.438V15.0413H16.0331V13.5537H12.562Z" fill="black"/>
<path d="M17.6033 15.5372V15.124H19.5868V3.96692H17.6033V3.5537H19.1736V3.47106H20V15.5372H17.6033Z" fill="black"/>
<path d="M10 4.04957H9.50416V7.02478H9.66945V7.10742H10V4.04957Z" fill="black"/>
<path d="M5.78516 3.47106V3.22312H6.44631V3.47106H5.78516Z" fill="black"/>
<path d="M8.01656 3.47106V3.05783H8.09921V2.97519H8.51243V0.991717H9.0083V1.40494H8.92565V3.05783H9.0083V3.47106H8.01656Z" fill="black"/>
<path d="M7.43805 1.07436H6.52896V1.40494H7.43805V1.07436Z" fill="black"/>
<path d="M8.51243 0.49585H8.09921V0.909073H8.42978V0.578494H8.51243V0.49585Z" fill="black"/>
<path d="M12.5624 13.0579H12.0666V13.5537H12.5624V13.0579Z" fill="#808080"/>
<path d="M16.0335 13.0579H16.5294V13.5537H17.0252V14.5455H16.5294V13.5537H16.0335V13.0579Z" fill="#808080"/>
<path d="M19.0914 2.97521H19.5872V3.47107H19.0914V3.55372H17.6038V3.96694H17.1079V1.40496H9.00871V0.991736H17.5211V1.4876H18.017V1.90083H17.5211V3.47107H19.0914V2.97521Z" fill="#808080"/>
<path d="M19.0087 2.47934H18.5955V2.97521H19.0087V2.47934Z" fill="#808080"/>
<path d="M18.5128 2.06612H18.0996V2.47934H18.5128V2.06612Z" fill="#808080"/>
<path d="M7.93433 0H6.52937V0.495868H7.93433V0Z" fill="#808080"/>
<path d="M6.44673 0.495868H5.95086V0.991736H5.78557V1.32231H6.44673V1.4876H6.52937V0.991736H6.44673V0.495868Z" fill="#808080"/>
<path d="M7.52111 1.40496V0.991736H7.93433V1.40496H7.52111Z" fill="#808080"/>
<path d="M8.51284 1.4876H8.01697V2.97521H8.51284V1.4876Z" fill="#808080"/>
<path d="M9.00871 3.47107V3.05785H9.50458V3.47107H10.0004V3.96694H9.50458V4.46281H9.00871V7.02479H9.66987V7.68595V7.7686H10.331V8.42975H9.66987V7.7686V7.68595H9.00871V7.10744H8.34755V6.1157H8.26491V6.03306V5.86777H7.93433H7.52111H6.94259H6.52937H5.95086H5.53763H4.95912H4.5459V3.47107H4.95912V2.97521H5.12441V3.47107H4.95912V5.86777H5.53763V5.53719H5.95086V5.86777H6.52937V5.53719H6.94259V5.86777H7.52111V5.53719H7.93433V5.86777H8.26491V6.03306H8.4302H8.51284V5.95041H8.59549V5.45455H8.01697V5.04132H8.59549V4.46281H7.93433V4.95868H7.52111V4.46281H6.94259V4.95868H6.52937V4.46281H5.95086V4.95868H5.53763V4.04959H9.00871V3.96694H9.50458V3.47107H9.00871Z" fill="#808080"/>
<path d="M6.44673 5.04132H5.95086V5.45455H6.44673V5.04132Z" fill="#808080"/>
<path d="M7.02524 5.45455V5.04132H7.43846V5.45455H7.02524Z" fill="#808080"/>
<path d="M19.0908 3.96692H19.5867V14.5454H19.0908V3.96692Z" fill="#C0C0C0"/>
<path d="M9.00818 3.96692V3.47106H9.50405V3.96692H9.00818Z" fill="#C0C0C0"/>
<path d="M8.42967 3.47106H8.01645V3.96692H8.42967V3.47106Z" fill="#C0C0C0"/>
<path d="M7.02471 3.96692V3.47106H7.43794V3.96692H7.02471Z" fill="#C0C0C0"/>
<path d="M6.4462 3.47106H5.95033V3.96692H6.4462V3.47106Z" fill="#C0C0C0"/>
<path d="M7.52058 0.909073V0.49585H7.9338V0.909073H7.52058Z" fill="#C0C0C0"/>
<path d="M8.01645 1.40494V0.991717H8.42967V1.40494H8.01645Z" fill="#C0C0C0"/>
<path d="M9.00818 7.10742H8.34703V7.68593H9.00818V7.10742Z" fill="#C0C0C0"/>
<path d="M9.66934 7.76858H9.09083V8.34709H9.66934V7.76858Z" fill="#C0C0C0"/>
<path d="M12.5619 13.0578V12.562H16.033V13.0578H12.5619Z" fill="#C0C0C0"/>
<path fill-rule="evenodd" clip-rule="evenodd" d="M8.01645 5.53717H8.51232V5.9504H8.42967V6.03304H8.26438V5.82643H7.9338V5.53717H7.52058V5.82643H6.94207V5.53717H6.52884V5.82643H5.95033V5.53717H6.4462V5.0413H5.95033V4.95866V4.46279H6.52884V5.0413H6.94207L7.02471 5.53717H7.43794L7.52058 5.0413H7.9338L8.01645 5.53717ZM7.52058 5.0413V4.46279H6.94207V5.0413H7.02471H7.43794H7.52058ZM5.95033 5.0413L5.53711 4.95866V5.53717H5.95033V5.0413ZM8.59496 5.0413H8.01645H7.9338V4.46279H8.59496V5.0413Z" fill="#C0C0C0"/>
<path d="M5.53711 4.95866L5.95033 5.0413V4.95866H5.53711Z" fill="#C0C0C0"/>
<path d="M7.43794 5.53717L7.52058 5.0413H7.43794V5.53717Z" fill="#C0C0C0"/>
<path d="M6.94207 5.0413L7.02471 5.53717V5.0413H6.94207Z" fill="#C0C0C0"/>
<path d="M7.9338 5.0413L8.01645 5.53717V5.0413H7.9338Z" fill="#C0C0C0"/>
<path d="M3.22268 3.22312V5.12394H2.56152V3.22312H3.22268V2.56196H3.84252V1.98345H5.12351V0.661133H5.78466V1.32229H6.44582V1.98345H7.10698V2.56196H6.44582V3.22312H5.78466V3.88427H5.12351V2.56196H3.84252V3.22312H3.22268Z" fill="#FF0000"/>
<path d="M9.0078 4.54543H9.50367V7.02477H9.0078V4.54543Z" fill="#FF0000"/>
<path d="M12.2309 19.3388H14.2144V18.7603H14.7929V19.3388H14.2144V20H12.2309V19.3388Z" fill="#FF0000"/>
<path d="M14.8756 18.6777V17.4793H13.5533V16.7768H14.2144V16.1157H14.8756V15.5785H15.4541V16.1157H16.1152V16.7768H16.7764V17.4793H15.4541V18.6777H14.8756Z" fill="#FF0000"/>
<path d="M16.0335 3.55371H15.1244V7.02479H16.0335V3.55371Z" fill="#0000FF"/>
<path d="M18.5129 3.96693H17.6038V7.02479H18.5129V3.96693Z" fill="#0000FF"/>
<path d="M14.4633 8.59503H13.5542V11.9835H14.4633V8.59503Z" fill="#0000FF"/>
<path d="M11.9839 11.6529H11.5707V12.2314H11.9839V11.6529Z" fill="#0000FF"/>
<path d="M11.9839 8.59503H11.4054V9.21487H11.5707V11.157H11.9839V8.59503Z" fill="#0000FF"/>
<path d="M11.2401 7.76859H10.3311V8.3471H11.2401V7.76859Z" fill="#0000FF"/>
<path fill-rule="evenodd" clip-rule="evenodd" d="M11.5707 4.04958H11.0749V6.44627H11.5707V7.02479H13.9674V6.44627H14.4633V4.04958H13.9674V3.55371H11.5707V4.04958ZM11.8187 3.80164V4.04958V4.29751H11.3228V6.19834H11.8187V6.77685H13.7195V6.19834H14.2154V4.29751H13.7195V3.80164H11.8187Z" fill="#0000FF"/>
<path fill-rule="evenodd" clip-rule="evenodd" d="M15.6203 8.59503H18.017V9.0909H18.5129V11.4876H18.017V11.9835H15.6203V11.4876H15.1244V9.0909H15.6203V8.59503ZM17.7691 8.84297H15.8682V9.33883H15.3724V11.2397H15.8682V11.7355H17.7691V11.2397H18.2649V9.33883H17.7691V8.84297Z" fill="#0000FF"/>
<path fill-rule="evenodd" clip-rule="evenodd" d="M11.8187 3.80164V4.04958V4.29751H11.3228V6.19834H11.8187V6.77685H13.7195V6.19834H14.2154V4.29751H13.7195V3.80164H11.8187ZM13.5542 3.96693H11.9839V6.52892H13.5542V3.96693Z" fill="#0000FF"/>
<path fill-rule="evenodd" clip-rule="evenodd" d="M17.7691 8.84297H15.8682V9.33883H15.3724V11.2397H15.8682V11.7355H17.7691V11.2397H18.2649V9.33883H17.7691V8.84297ZM17.6038 9.00826H16.0335V11.5702H17.6038V9.00826Z" fill="#0000FF"/>
</svg>
