<svg width="21" height="20" viewBox="0 0 21 20" fill="none" xmlns="http://www.w3.org/2000/svg">
<g clip-path="url(#clip0)">
<path d="M10.0167 20C15.5584 20 20.0167 15.5417 20.0167 10C20.0167 4.4583 15.5584 0 10.0167 0C4.47502 0 0.0167236 4.4583 0.0167236 10C0.0167236 15.5417 4.47502 20 10.0167 20Z" fill="white"/>
<path d="M2.14714 8.62951C1.83684 8.62951 1.7334 8.73295 1.7334 8.99154V15.2495C1.7334 15.508 1.83684 15.6115 2.14714 15.6115C5.14681 15.6632 8.81881 12.9738 11.8185 10.9051V3.66455C8.81881 5.73328 5.04337 8.68123 2.14714 8.62951V8.62951Z" fill="url(#paint0_linear)"/>
<path d="M17.8696 11.4224C18.1282 11.4224 18.2833 11.319 18.2833 11.0604V4.80246C18.2833 4.54387 18.1799 4.44043 17.8696 4.44043C14.8182 4.38871 11.1979 7.07807 8.19824 9.1468V16.3356C11.1979 14.3186 14.9733 11.3707 17.8696 11.4224V11.4224Z" fill="url(#paint1_linear)"/>
</g>
<defs>
<linearGradient id="paint0_linear" x1="7.69238" y1="14.7059" x2="5.92879" y2="4.70978" gradientUnits="userSpaceOnUse">
<stop offset="0.1" stop-color="#194AAD"/>
<stop offset="0.5" stop-color="#248FCB"/>
<stop offset="0.8" stop-color="#2BBFDF"/>
</linearGradient>
<linearGradient id="paint1_linear" x1="14.3646" y1="3.83067" x2="12.0321" y2="17.0576" gradientUnits="userSpaceOnUse">
<stop offset="0.1" stop-color="#194AAD"/>
<stop offset="0.5" stop-color="#248FCB"/>
<stop offset="0.8" stop-color="#2BBFDF"/>
</linearGradient>
<clipPath id="clip0">
<rect width="20" height="20" fill="white" transform="translate(0.0167236)"/>
</clipPath>
</defs>
</svg>
