<svg width="20" height="20" viewBox="0 0 20 20" fill="none" xmlns="http://www.w3.org/2000/svg">
<circle cx="10" cy="10" r="10" fill="white"/>
<path d="M9.96148 5.73145V2C5.56237 2 2 5.57973 2 9.99981C2 14.4201 5.56257 18 9.96148 18V14.2686C7.61348 14.2686 5.71358 12.3593 5.71358 9.99981C5.71358 7.64067 7.61348 5.73145 9.96148 5.73145Z" fill="#000426"/>
<path d="M14.2259 5.73145C13.9821 5.73145 13.7406 5.68321 13.5154 5.58943C13.2901 5.49568 13.0854 5.35825 12.913 5.185C12.7406 5.01175 12.6038 4.80607 12.5105 4.57971C12.4172 4.35335 12.3691 4.11074 12.3691 3.86573C12.3691 3.62072 12.4172 3.37811 12.5105 3.15174C12.6038 2.92539 12.7406 2.71971 12.913 2.54646C13.0854 2.37321 13.2901 2.23578 13.5154 2.14202C13.7406 2.04826 13.9821 2 14.2259 2C14.7184 2 15.1907 2.19657 15.5389 2.54646C15.8871 2.89635 16.0827 3.37091 16.0827 3.86573C16.0827 4.36055 15.8871 4.83511 15.5389 5.185C15.1907 5.5349 14.7184 5.73145 14.2259 5.73145Z" fill="#00D8D5"/>
<path d="M14.1947 17.9997C13.7022 17.9997 13.23 17.8032 12.8817 17.4533C12.5335 17.1034 12.3379 16.6288 12.3379 16.134C12.3379 15.6392 12.5335 15.1646 12.8817 14.8147C13.23 14.4648 13.7022 14.2683 14.1947 14.2683C14.6871 14.2683 15.1594 14.4648 15.5076 14.8147C15.8558 15.1646 16.0515 15.6392 16.0515 16.134C16.0515 16.6288 15.8558 17.1034 15.5076 17.4533C15.1594 17.8032 14.6871 17.9997 14.1947 17.9997Z" fill="#FF4B8A"/>
<path d="M14.21 9.99978C14.21 12.3593 12.3101 14.2685 9.96191 14.2685V5.73125C12.3099 5.73125 14.21 7.64047 14.21 9.99978Z" fill="#000426"/>
</svg>
