<svg width="20" height="20" viewBox="0 0 20 20" fill="none" xmlns="http://www.w3.org/2000/svg">
<path d="M14.6908 13.1778C14.377 13.2604 14.0631 13.3265 13.7163 13.3265H2.71561C2.12098 13.3265 1.5759 13.6403 1.27858 14.1523L0.0232535 16.3161C-0.0428166 16.4317 0.039771 16.5804 0.171911 16.5804L11.09 16.5474C12.3123 16.5474 13.452 15.8867 14.0631 14.8295L14.8725 13.4256C14.9551 13.2934 14.8395 13.1282 14.6908 13.1778Z" fill="#34C47F"/>
<path d="M19.7621 3.51504C18.6389 3.97753 16.5412 4.06012 15.4841 4.07664H8.66233C7.39048 4.07664 6.21773 4.75386 5.59007 5.86053L4.79723 7.18193C4.73116 7.31407 4.83026 7.46273 4.97892 7.42969C5.30927 7.34711 5.65614 7.31407 6.00301 7.31407H16.4751C17.3671 7.31407 18.1764 6.83506 18.6224 6.07526L19.9768 3.74629C20.0594 3.61415 19.9108 3.44897 19.7621 3.51504Z" fill="#34C47F"/>
<path d="M17.2176 8.5694C17.2011 8.5694 17.1846 8.5694 17.1846 8.5694C16.8543 8.65198 16.5074 8.68502 16.1605 8.68502H5.20941C4.61478 8.68502 4.0697 8.99885 3.77239 9.5109L2.45099 11.8068C2.38492 11.9225 2.46751 12.0711 2.59965 12.0711H2.63268C2.96303 11.9885 3.3099 11.9555 3.65677 11.9555H14.1289C15.0208 11.9555 15.8302 11.4765 16.2762 10.7167L17.3663 8.83368C17.4324 8.71806 17.3498 8.5694 17.2176 8.5694Z" fill="#34C47F"/>
</svg>
