<svg width="20" height="20" viewBox="0 0 20 20" fill="none" xmlns="http://www.w3.org/2000/svg">
<g clip-path="url(#clip0_4079_54097)">
<path d="M10 0C4.47126 0 0 4.48276 0 10C0 15.5172 4.47126 20 10 20C15.5287 20 20 15.5287 20 10C20 4.48276 15.5172 0 10 0ZM10.8046 10.4713L14.3103 13.977C14.5977 14.2644 14.5632 14.7356 14.2414 14.977C13.1609 15.8276 11.8046 16.3333 10.3333 16.3333C6.5977 16.3333 3.6092 13.092 4.04598 9.27586C4.36782 6.34483 6.74713 3.98851 9.68966 3.70115C11.4253 3.52874 13.0345 4.05747 14.2759 5.03448C14.5862 5.27586 14.5977 5.73563 14.3218 6.01149L10.8046 9.52874C10.5402 9.7931 10.5402 10.2069 10.8046 10.4713Z" fill="#69E2DC"/>
</g>
<defs>
<clipPath id="clip0_4079_54097">
<rect width="20" height="20" fill="white"/>
</clipPath>
</defs>
</svg>
