<svg width="21" height="20" viewBox="0 0 21 20" fill="none" xmlns="http://www.w3.org/2000/svg">
<path d="M10 20C15.5228 20 20 15.5228 20 10C20 4.47715 15.5228 0 10 0C4.47715 0 0 4.47715 0 10C0 15.5228 4.47715 20 10 20Z" fill="#103F68"/>
<path d="M9.98474 1.61777L17.25 5.80216V14.1969L9.99313 18.3935L9.93437 18.379L2.75 14.1969V5.80216L9.93437 1.61777H9.98474ZM9.96108 2.48624L3.51316 6.24098V13.7581L9.96032 17.5121L10.7479 17.0564L16.4868 13.7558V6.2425L10.7479 2.92277L9.96108 2.48624ZM4.51213 10.5833L6.42079 9.15624L8.10813 10.2338V12.1722L9.38489 13.4025L9.38413 13.9794L8.15392 15.1318H7.11526L4.51213 10.5833ZM10.5434 13.9809L10.5411 13.4009L11.8133 12.1722V10.2338L13.4823 9.1425L15.3871 10.5841L12.7977 15.1188H11.7721L10.5434 13.9809ZM8.73468 10.2338L8.11347 8.60753H11.8056L11.1966 10.2338L11.3767 12.0517L9.95192 12.0547L8.54389 12.057L8.73468 10.2338ZM9.95192 8.16185L6.44292 8.16032L7.09542 5.24506H12.7916L13.4785 8.16413L9.95192 8.16185Z" fill="white"/>
<path d="M17.0315 10L20.0713 15.0231L17.0427 13.7287L17.0315 10Z" fill="#E68F7B"/>
<path d="M14 15.0231L17.0314 10L17.0427 13.7287L14 15.0231Z" fill="#F8EC7C"/>
<path d="M17.0314 16.875L14 15.0229L17.0427 13.7285L17.0314 16.875Z" fill="#6EB87D"/>
<path d="M20.0713 15.0229L17.0427 13.7285L17.0315 16.875L20.0713 15.0229Z" fill="#946BA7"/>
<path d="M17.0315 17.5127L20.0713 15.7108L17.0315 19.9939V17.5127Z" fill="#697CB9"/>
<path d="M17.0314 17.5127L14 15.7108L17.0314 19.9939V17.5127Z" fill="#4FADD0"/>
</svg>
