<svg width="20" height="20" viewBox="0 0 20 20" fill="none" xmlns="http://www.w3.org/2000/svg">
<path fill-rule="evenodd" clip-rule="evenodd" d="M0 0H20V20H0V0Z" fill="#2992FB"/>
<path fill-rule="evenodd" clip-rule="evenodd" d="M13.8373 5.80312L13.4779 6.1625C12.5882 5.42557 11.4676 5.02512 10.3123 5.03125C9.05131 5.03135 7.83728 5.5097 6.91514 6.36979C5.99299 7.22987 5.43136 8.40769 5.34355 9.66562H4.82793C4.91171 8.26926 5.5265 6.95786 6.54625 6.00028C7.566 5.04271 8.91344 4.51152 10.3123 4.51562C11.6021 4.52226 12.8495 4.97745 13.8404 5.80312V5.80312H13.8373ZM10.3123 6.34375C10.8947 6.34368 11.4689 6.48122 11.988 6.74514C12.5072 7.00907 12.9567 7.39192 13.2998 7.8625L13.6592 7.5C13.1322 6.79749 12.3975 6.2786 11.5593 6.01681C10.721 5.75502 9.82162 5.7636 8.98851 6.04135C8.1554 6.3191 7.43079 6.85193 6.91731 7.56437C6.40384 8.27681 6.12754 9.13274 6.12754 10.0109C6.12754 10.8891 6.40384 11.7451 6.91731 12.4575C7.43079 13.1699 8.1554 13.7028 8.98851 13.9805C9.82162 14.2583 10.721 14.2669 11.5593 14.0051C12.3975 13.7433 13.1322 13.2244 13.6592 12.5219L13.2998 12.1625C12.9328 12.6753 12.4401 13.0851 11.8691 13.3526C11.2981 13.6201 10.6678 13.7363 10.039 13.6901C9.41006 13.6438 8.80363 13.4367 8.27788 13.0885C7.75213 12.7403 7.32472 12.2628 7.03671 11.7018C6.74869 11.1409 6.60973 10.5153 6.63318 9.88511C6.65663 9.25495 6.84169 8.64141 7.1706 8.1034C7.49951 7.56538 7.96122 7.12096 8.51139 6.81281C9.06156 6.50467 9.68171 6.34314 10.3123 6.34375V6.34375ZM14.2529 6.19062L13.8904 6.5625C14.0092 6.68519 14.1208 6.81457 14.2248 6.95L14.5842 6.5625C14.4802 6.42704 14.3686 6.29766 14.2498 6.175L14.2529 6.19062ZM4.7998 10.3594C4.86292 11.3739 5.20645 12.3511 5.79212 13.1819C6.3778 14.0128 7.18263 14.6647 8.11697 15.0651C9.05131 15.4656 10.0785 15.5988 11.084 15.4499C12.0896 15.301 13.0341 14.8759 13.8123 14.2219L13.4373 13.8625C12.5517 14.5989 11.4359 15.0014 10.2842 15C9.02164 15.0006 7.80598 14.5217 6.88301 13.6602C5.96005 12.7988 5.39864 11.619 5.3123 10.3594H4.7998ZM13.8873 13.4844L14.2467 13.8437C14.3671 13.7151 14.4798 13.5794 14.5842 13.4375L14.2248 13.0781C14.1208 13.2136 14.0092 13.3429 13.8904 13.4656V13.4656L13.8873 13.4844ZM10.3123 16.2312C8.65967 16.2312 7.07473 15.5747 5.90614 14.4062C4.73756 13.2376 4.08105 11.6526 4.08105 10C4.08105 8.34737 4.73756 6.76243 5.90614 5.59384C7.07473 4.42525 8.65967 3.76875 10.3123 3.76875C11.2283 3.76828 12.1329 3.97129 12.9609 4.3631C13.7888 4.75492 14.5194 5.32576 15.0998 6.03437L15.4592 5.675C14.7302 4.80747 13.7942 4.13781 12.7377 3.72798C11.6813 3.31815 10.5386 3.18139 9.41525 3.33036C8.29194 3.47932 7.22434 3.9092 6.31124 4.58021C5.39813 5.25123 4.66901 6.14171 4.19135 7.16926C3.71368 8.19681 3.50289 9.32823 3.57849 10.4589C3.65408 11.5895 4.01362 12.6828 4.62383 13.6376C5.23404 14.5924 6.07521 15.3779 7.06952 15.9214C8.06383 16.4649 9.17916 16.7488 10.3123 16.7469C11.2965 16.7496 12.269 16.5338 13.1596 16.115C14.0502 15.6962 14.8367 15.0848 15.4623 14.325L15.1029 13.9656C14.5261 14.6791 13.7958 15.2533 12.9663 15.6455C12.1369 16.0378 11.2298 16.238 10.3123 16.2312Z" fill="white"/>
</svg>
