<svg width="20" height="20" viewBox="0 0 20 20" fill="none" xmlns="http://www.w3.org/2000/svg">
<path d="M15.5696 2.00733C15.4139 2.03138 15.1683 2.08581 15.1202 2.10733C15.1063 2.11366 15.0582 2.13138 15.0126 2.14657C14.9012 2.18454 14.5708 2.34657 14.5443 2.37568C14.5405 2.37948 14.5151 2.39594 14.4886 2.41239C14.3924 2.47062 14.1949 2.63264 14.0949 2.73518C13.9658 2.86809 13.9481 2.88834 13.8455 3.02632C13.4177 3.60606 13.262 4.33518 13.4101 5.06809C13.4215 5.11999 13.4354 5.17948 13.4417 5.201C13.4493 5.22378 13.4696 5.28707 13.4873 5.34277C13.505 5.39847 13.524 5.45543 13.5303 5.46935C13.6189 5.66176 13.6519 5.72758 13.7126 5.82758C13.7519 5.8934 13.8164 5.99214 13.8569 6.04783C13.9417 6.16682 14.2265 6.46302 14.2557 6.46302C14.267 6.46302 14.2848 6.4491 14.2949 6.43264C14.3063 6.41619 14.3227 6.39594 14.3316 6.38581C14.3405 6.37568 14.386 6.32252 14.4303 6.26682C14.4759 6.21113 14.5227 6.15416 14.5354 6.14024C14.5481 6.12632 14.581 6.08581 14.6088 6.0491L14.6595 5.98454L14.6291 5.93518C14.6 5.88834 14.5443 5.74404 14.5443 5.71366C14.5443 5.70606 14.5265 5.66176 14.5038 5.61619C14.4746 5.55669 14.4354 5.5048 14.3645 5.43644C14.3038 5.37695 14.2658 5.33011 14.2658 5.31366C14.2658 5.2453 14.3936 5.22632 14.5101 5.27821C14.5835 5.30986 14.6531 5.37442 14.6911 5.44404C14.7038 5.46809 14.7177 5.48834 14.7227 5.48834C14.7417 5.48834 14.8025 5.41492 14.8278 5.36176C14.8531 5.30859 14.8544 5.28834 14.8506 5.0453C14.8493 4.90226 14.8506 4.76935 14.8557 4.75037C14.8696 4.68328 14.9658 4.67568 15.0088 4.73897C15.0253 4.76556 15.0329 4.81366 15.0392 4.95796C15.0519 5.21492 15.081 5.26049 15.143 5.12125C15.162 5.07948 15.1772 5.04277 15.1772 5.03771C15.1772 5.03391 15.1848 5.01239 15.1949 4.99087C15.205 4.96809 15.2278 4.91745 15.2455 4.87821C15.2911 4.77442 15.3519 4.75037 15.4139 4.81239C15.4531 4.85163 15.4493 4.901 15.3949 5.01366C15.3746 5.05543 15.3531 5.10353 15.3481 5.12125C15.343 5.13897 15.3329 5.15923 15.3265 5.16682C15.3202 5.17568 15.3126 5.21113 15.3076 5.24657C15.2974 5.33771 15.3177 5.33264 15.4455 5.21239C15.6354 5.03391 15.6974 4.9972 15.7392 5.03897C15.7848 5.08581 15.7468 5.16176 15.6139 5.28834C15.5303 5.36682 15.4936 5.42125 15.4936 5.46809C15.4936 5.49467 15.5 5.501 15.5253 5.501C15.543 5.501 15.567 5.49594 15.5797 5.48961C15.6734 5.43897 15.8265 5.37442 15.8531 5.37442C15.8962 5.37442 15.9329 5.43771 15.9101 5.47188C15.9012 5.48454 15.8354 5.53391 15.762 5.58328C15.6253 5.67568 15.6202 5.67948 15.5481 5.83644C15.5025 5.93264 15.362 6.07695 15.2658 6.12378C15.2278 6.14277 15.1658 6.16682 15.1278 6.17568C15.0645 6.19214 15.0582 6.1972 15.0379 6.2491C15.0265 6.27948 15.0025 6.33644 14.9848 6.37442C14.967 6.41239 14.9164 6.52632 14.8734 6.62632L14.7949 6.80986L14.8215 6.83011C14.8784 6.87188 15.162 6.96682 15.386 7.01872C15.6202 7.07188 16.1658 7.07188 16.3987 7.01872C16.6481 6.96049 16.8114 6.9048 17 6.81492C17.0924 6.77062 17.2557 6.67821 17.2658 6.66556C17.2696 6.66049 17.286 6.6491 17.3038 6.64024C17.4506 6.56429 17.786 6.24404 17.9468 6.02632C18.0253 5.91872 18.0721 5.84151 18.1645 5.66556C18.2038 5.5934 18.2531 5.47568 18.2531 5.45923C18.2531 5.45037 18.2582 5.43771 18.2645 5.43011C18.2696 5.42378 18.2898 5.37062 18.3088 5.31113C18.3265 5.25163 18.3481 5.18581 18.3544 5.16556C18.3607 5.14404 18.3759 5.07315 18.386 5.00733C18.4443 4.66429 18.4443 4.36935 18.386 4.05163C18.3607 3.91239 18.3012 3.69847 18.2658 3.62125C18.2595 3.60733 18.2367 3.5529 18.2151 3.501C18.1455 3.33138 18.0101 3.10986 17.8633 2.92505C17.7291 2.75669 17.4519 2.49973 17.4291 2.52252C17.4139 2.53897 17.305 2.75416 17.2708 2.83644C17.2531 2.87821 17.2329 2.92632 17.224 2.94277C17.2151 2.95923 17.2088 3.01366 17.2101 3.06302C17.2114 3.17442 17.243 3.27568 17.3455 3.48834C17.4202 3.64277 17.4215 3.65037 17.4329 3.79087C17.4481 3.99847 17.481 4.09973 17.5595 4.18454C17.5759 4.20226 17.6025 4.23897 17.6189 4.26682C17.6468 4.31492 17.6468 4.31745 17.624 4.33391C17.5924 4.35669 17.4949 4.34404 17.4177 4.3048C17.3367 4.26302 17.2924 4.20859 17.2215 4.06302C17.1481 3.91113 17.1227 3.88075 17.0683 3.88075C17.0202 3.88075 16.9949 3.90606 16.8734 4.08075C16.8278 4.1453 16.7443 4.26176 16.6873 4.33897C16.5784 4.48834 16.4354 4.72125 16.3443 4.89847C16.3151 4.95543 16.2227 5.0453 16.1936 5.0453C16.0544 5.0453 16.081 4.91619 16.3126 4.45416C16.3797 4.31999 16.4303 4.20606 16.4253 4.201C16.4114 4.18707 16.3417 4.26556 16.1253 4.53897C15.862 4.87315 15.8215 4.91113 15.7481 4.88707C15.6848 4.86682 15.7253 4.75037 15.8797 4.51366C16.0012 4.32632 16.1265 4.11492 16.1265 4.0972C16.1265 4.03391 15.9962 4.17062 15.7759 4.46556C15.6202 4.67315 15.5367 4.73518 15.4797 4.68328C15.4493 4.65543 15.4493 4.63391 15.4835 4.55037C15.5189 4.46302 15.7012 4.17442 15.781 4.07695C15.8114 4.04024 15.9417 3.83391 15.9468 3.81492C15.967 3.73644 15.7734 3.85543 15.6 4.02632C15.4506 4.17315 15.4063 4.20986 15.3746 4.20986C15.324 4.20986 15.3101 4.17948 15.3354 4.12505C15.3595 4.07315 15.5076 3.84783 15.5417 3.80986C15.6303 3.71366 15.7936 3.45796 15.8924 3.26176C15.9784 3.08961 16.0164 3.03897 16.2076 2.8491C16.3063 2.75163 16.3949 2.65923 16.4063 2.6453C16.4455 2.5934 16.5151 2.46682 16.5316 2.41745C16.5405 2.39087 16.5519 2.36176 16.5569 2.35543C16.5696 2.33771 16.6329 2.13644 16.6329 2.11492C16.6329 2.1048 16.6101 2.09087 16.5797 2.08328C16.5493 2.07568 16.505 2.06429 16.481 2.05796C16.3202 2.01492 16.2227 2.0048 15.9367 2.001C15.7734 1.99847 15.6076 2.001 15.5696 2.00733Z" fill="#0CACE0"/>
<path d="M10.1646 14.4506C11.9557 16.71 12.9747 17.5138 15.1709 17.5138C12.9373 17.5138 11.0578 15.9974 10.506 13.9379L10.1646 14.4506Z" fill="url(#paint0_radial_5442_43287)"/>
<path fill-rule="evenodd" clip-rule="evenodd" d="M0 12.21C0 9.28084 2.37459 6.90625 5.3038 6.90625C6.8907 6.90625 8.25928 7.69932 9.20859 8.79233C9.68354 9.29233 10.4367 10.4316 10.5633 10.6974L11.1768 9.96954C12.0459 8.69352 13.5106 7.85562 15.1709 7.85562C17.8379 7.85562 20 10.0177 20 12.6847C20 15.3518 17.8379 17.5138 15.1709 17.5138C12.9373 17.5138 11.0578 15.9974 10.506 13.9379L10.5633 13.8389L9.36518 12.4302C9.28193 12.5604 9.2051 12.6815 9.13924 12.786C8.05696 10.4506 6.89873 9.4379 5.32278 9.4379C3.68341 9.4379 2.35443 10.7669 2.35443 12.4062C2.35443 14.0456 3.68341 15.3746 5.32278 15.3746C6.40992 15.4704 7.7783 14.7009 8.78409 13.324L9.90464 14.786L9.36518 15.4822C8.41707 16.7174 6.99611 17.5138 5.3038 17.5138C2.37459 17.5138 0 15.1393 0 12.21ZM18.5886 12.6847C18.3797 14.7607 17.5447 16.0835 15.6013 16.0835C13.691 16.0835 12.5642 14.1756 11.5105 12.3915C11.4922 12.3605 11.474 12.3296 11.4557 12.2987C12.4114 10.5771 13.2911 9.34929 15.2595 9.19106C17.2722 9.19106 18.5886 10.7412 18.5886 12.6847Z" fill="url(#paint1_radial_5442_43287)"/>
<path fill-rule="evenodd" clip-rule="evenodd" d="M10.5633 10.6974C10.4418 10.7531 9.56329 12.113 9.13924 12.786L10.1646 14.4506L10.506 13.9379L11.4557 12.2987C12.4114 10.5771 13.2911 9.34929 15.2595 9.19106C17.2722 9.19106 18.5886 10.7412 18.5886 12.6847C18.3797 14.7607 17.5447 16.0835 15.6013 16.0835C14.9222 16.0835 14.3421 15.8424 13.8291 15.4514L12.6381 16.7972C13.3745 17.2516 14.2421 17.5138 15.1709 17.5138C17.8379 17.5138 20 15.3518 20 12.6847C20 10.0177 17.8379 7.85562 15.1709 7.85562C13.5106 7.85562 12.0459 8.69352 11.1768 9.96954L10.5633 10.6974Z" fill="url(#paint2_radial_5442_43287)"/>
<path d="M13.4198 15.0961L12.2361 16.5201C12.3651 16.6189 12.4993 16.7115 12.6381 16.7972L13.8291 15.4514C13.6878 15.3437 13.5516 15.2247 13.4198 15.0961Z" fill="url(#paint3_radial_5442_43287)"/>
<path fill-rule="evenodd" clip-rule="evenodd" d="M12.6381 16.7972L12.5759 16.8674C13.3119 17.3234 14.102 17.5138 15.1709 17.5138C14.2421 17.5138 13.3745 17.2516 12.6381 16.7972Z" fill="url(#paint4_radial_5442_43287)"/>
<path d="M12.2361 16.5201L12.1772 16.5909C12.3092 16.6922 12.4417 16.7842 12.5759 16.8674L12.6381 16.7972C12.4993 16.7115 12.3651 16.6189 12.2361 16.5201Z" fill="url(#paint5_radial_5442_43287)"/>
<path d="M13.4194 15.0962L12.2358 16.5201C12.3648 16.619 12.499 16.7115 12.6378 16.7972L13.8288 15.4515C13.6875 15.3438 13.5512 15.2247 13.4194 15.0962Z" fill="url(#paint6_linear_5442_43287)"/>
<path d="M12.2358 16.5201L13.4194 15.0962C13.309 14.9885 13.2017 14.8742 13.0972 14.7544L11.7832 16.1266C11.9257 16.2669 12.0768 16.3983 12.2358 16.5201Z" fill="url(#paint7_linear_5442_43287)"/>
<path d="M12.1769 16.5909L12.2358 16.5201C12.0768 16.3983 11.9257 16.2669 11.7832 16.1266L11.7148 16.198C11.8697 16.3421 12.023 16.4728 12.1769 16.5909Z" fill="url(#paint8_linear_5442_43287)"/>
<path d="M12.2358 16.5201L12.1769 16.5909C12.3089 16.6923 12.4413 16.7843 12.5756 16.8675L12.6378 16.7972C12.499 16.7115 12.3648 16.619 12.2358 16.5201Z" fill="url(#paint9_linear_5442_43287)"/>
<path d="M10.1647 14.4506L10.5061 13.9379L10.5634 13.839L9.36527 12.4302C9.28202 12.5604 9.2052 12.6815 9.13933 12.786C9.0273 12.9743 8.90851 13.1538 8.78418 13.324L9.90473 14.786L10.1647 14.4506Z" fill="url(#paint10_linear_5442_43287)"/>
<defs>
<radialGradient id="paint0_radial_5442_43287" cx="0" cy="0" r="1" gradientUnits="userSpaceOnUse" gradientTransform="translate(10 12.21) rotate(-159.56) scale(8.06474 15.2056)">
<stop stop-color="#3085FF"/>
<stop offset="1" stop-color="#194484"/>
</radialGradient>
<radialGradient id="paint1_radial_5442_43287" cx="0" cy="0" r="1" gradientUnits="userSpaceOnUse" gradientTransform="translate(10 12.21) rotate(-159.56) scale(8.06474 15.2056)">
<stop stop-color="#3085FF"/>
<stop offset="1" stop-color="#194484"/>
</radialGradient>
<radialGradient id="paint2_radial_5442_43287" cx="0" cy="0" r="1" gradientUnits="userSpaceOnUse" gradientTransform="translate(10 12.21) rotate(-7.61622) scale(8.88216 16.7468)">
<stop stop-color="#3085FF"/>
<stop offset="1" stop-color="#A8D7F2"/>
</radialGradient>
<radialGradient id="paint3_radial_5442_43287" cx="0" cy="0" r="1" gradientUnits="userSpaceOnUse" gradientTransform="translate(10 12.21) rotate(-7.61622) scale(8.88216 16.7468)">
<stop stop-color="#3085FF"/>
<stop offset="1" stop-color="#A8D7F2"/>
</radialGradient>
<radialGradient id="paint4_radial_5442_43287" cx="0" cy="0" r="1" gradientUnits="userSpaceOnUse" gradientTransform="translate(10 12.21) rotate(-7.61622) scale(8.88216 16.7468)">
<stop stop-color="#3085FF"/>
<stop offset="1" stop-color="#A8D7F2"/>
</radialGradient>
<radialGradient id="paint5_radial_5442_43287" cx="0" cy="0" r="1" gradientUnits="userSpaceOnUse" gradientTransform="translate(10 12.21) rotate(-7.61622) scale(8.88216 16.7468)">
<stop stop-color="#3085FF"/>
<stop offset="1" stop-color="#A8D7F2"/>
</radialGradient>
<linearGradient id="paint6_linear_5442_43287" x1="12.2971" y1="15.5265" x2="13.1579" y2="16.2354" gradientUnits="userSpaceOnUse">
<stop stop-color="#2669C9"/>
<stop offset="1" stop-color="#60A6FB"/>
</linearGradient>
<linearGradient id="paint7_linear_5442_43287" x1="12.2971" y1="15.5265" x2="13.1579" y2="16.2354" gradientUnits="userSpaceOnUse">
<stop stop-color="#2669C9"/>
<stop offset="1" stop-color="#60A6FB"/>
</linearGradient>
<linearGradient id="paint8_linear_5442_43287" x1="12.2971" y1="15.5265" x2="13.1579" y2="16.2354" gradientUnits="userSpaceOnUse">
<stop stop-color="#2669C9"/>
<stop offset="1" stop-color="#60A6FB"/>
</linearGradient>
<linearGradient id="paint9_linear_5442_43287" x1="12.2971" y1="15.5265" x2="13.1579" y2="16.2354" gradientUnits="userSpaceOnUse">
<stop stop-color="#2669C9"/>
<stop offset="1" stop-color="#60A6FB"/>
</linearGradient>
<linearGradient id="paint10_linear_5442_43287" x1="10.0444" y1="13.6847" x2="9.24061" y2="14.1531" gradientUnits="userSpaceOnUse">
<stop stop-color="#3689FF"/>
<stop offset="1" stop-color="#2E7DF0"/>
</linearGradient>
</defs>
</svg>
