<svg width="20" height="20" viewBox="0 0 20 20" fill="none" xmlns="http://www.w3.org/2000/svg">
<path fill-rule="evenodd" clip-rule="evenodd" d="M9.70038 0.037594C9.70038 0.0582707 9.64963 0.075188 9.5876 0.075188C9.52557 0.075188 9.47482 0.0921053 9.47482 0.112782C9.47482 0.133459 9.4447 0.150376 9.40794 0.150376C9.37113 0.150376 9.31666 0.184211 9.28685 0.225564C9.25703 0.266917 9.20628 0.300752 9.17406 0.300752C9.14185 0.300752 9.09109 0.334586 9.06128 0.37594C9.03147 0.417293 8.977 0.451128 8.94019 0.451128C8.90342 0.451128 8.87331 0.468045 8.87331 0.488722C8.87331 0.509398 8.8432 0.526316 8.80643 0.526316C8.76963 0.526316 8.71515 0.56015 8.68534 0.601504C8.65553 0.642857 8.60478 0.676692 8.57256 0.676692C8.54034 0.676692 8.48959 0.710526 8.45978 0.75188C8.42997 0.793233 8.37549 0.827068 8.33869 0.827068C8.30192 0.827068 8.27181 0.843985 8.27181 0.864662C8.27181 0.885338 8.24169 0.902256 8.20493 0.902256C8.16812 0.902256 8.11365 0.93609 8.08384 0.977444C8.05403 1.0188 8.00327 1.05263 7.97106 1.05263C7.93884 1.05263 7.88809 1.08647 7.85827 1.12782C7.82846 1.16917 7.77399 1.20301 7.73718 1.20301C7.70042 1.20301 7.6703 1.21992 7.6703 1.2406C7.6703 1.26128 7.64019 1.2782 7.60342 1.2782C7.56662 1.2782 7.51215 1.31203 7.48233 1.35338C7.45252 1.39474 7.40177 1.42857 7.36955 1.42857C7.33733 1.42857 7.28658 1.46241 7.25677 1.50376C7.22696 1.54511 7.17248 1.57895 7.13568 1.57895C7.09891 1.57895 7.0688 1.59586 7.0688 1.61654C7.0688 1.63722 7.03869 1.65414 7.00192 1.65414C6.96512 1.65414 6.91064 1.68797 6.88083 1.72932C6.85102 1.77068 6.80027 1.80451 6.76805 1.80451C6.73583 1.80451 6.68508 1.83835 6.65527 1.8797C6.62545 1.92105 6.57098 1.95489 6.53418 1.95489C6.49741 1.95489 6.4673 1.9718 6.4673 1.99248C6.4673 2.01316 6.43718 2.03008 6.40042 2.03008C6.36361 2.03008 6.30914 2.06391 6.27933 2.10526C6.24951 2.14662 6.19876 2.18045 6.16654 2.18045C6.13433 2.18045 6.08357 2.21429 6.05376 2.25564C6.02395 2.29699 5.96948 2.33083 5.93267 2.33083C5.89591 2.33083 5.86579 2.34774 5.86579 2.36842C5.86579 2.3891 5.83568 2.40601 5.79891 2.40601C5.76211 2.40601 5.70763 2.43985 5.67782 2.4812C5.64801 2.52256 5.59726 2.55639 5.56504 2.55639C5.53282 2.55639 5.48207 2.59023 5.45226 2.63158C5.42245 2.67293 5.37169 2.70677 5.33948 2.70677C5.30726 2.70677 5.25651 2.7406 5.22669 2.78195C5.19688 2.82331 5.14241 2.85714 5.1056 2.85714C5.06884 2.85714 5.03872 2.87406 5.03872 2.89474C5.03872 2.91541 5.00861 2.93233 4.97185 2.93233C4.93504 2.93233 4.88057 2.96617 4.85075 3.00752C4.82094 3.04887 4.77019 3.08271 4.73797 3.08271C4.70575 3.08271 4.655 3.11654 4.62519 3.15789C4.59538 3.19925 4.54091 3.23308 4.5041 3.23308C4.46733 3.23308 4.43722 3.25 4.43722 3.27068C4.43722 3.29135 4.40711 3.30827 4.37034 3.30827C4.33354 3.30827 4.27906 3.34211 4.24925 3.38346C4.21944 3.42481 4.16869 3.45865 4.13647 3.45865C4.10425 3.45865 4.0535 3.49248 4.02369 3.53383C3.99388 3.57519 3.9394 3.60902 3.9026 3.60902C3.86583 3.60902 3.83572 3.62594 3.83572 3.64662C3.83572 3.66729 3.8056 3.68421 3.76884 3.68421C3.73203 3.68421 3.67756 3.71804 3.64775 3.7594C3.61794 3.80075 3.56718 3.83459 3.53497 3.83459C3.50275 3.83459 3.452 3.86842 3.42218 3.90977C3.39237 3.95113 3.3379 3.98496 3.30109 3.98496C3.26433 3.98496 3.23421 4.00188 3.23421 4.02256C3.23421 4.04323 3.2041 4.06015 3.16733 4.06015C3.13053 4.06015 3.07606 4.09398 3.04624 4.13534C3.01643 4.17669 2.96568 4.21053 2.93346 4.21053C2.90124 4.21053 2.85049 4.24436 2.82068 4.28571C2.79087 4.32707 2.73639 4.3609 2.69959 4.3609C2.66282 4.3609 2.63271 4.37782 2.63271 4.3985C2.63271 4.41917 2.6026 4.43609 2.56583 4.43609C2.52903 4.43609 2.47455 4.46992 2.44474 4.51128C2.41493 4.55263 2.36418 4.58647 2.33196 4.58647C2.29974 4.58647 2.24899 4.6203 2.21918 4.66165C2.18936 4.70301 2.1429 4.73684 2.11591 4.73684C2.04745 4.73684 1.73045 5.06064 1.73045 5.1306C1.73045 5.16214 1.71354 5.18797 1.69286 5.18797C1.67218 5.18797 1.65527 5.23872 1.65527 5.30075C1.65527 5.36278 1.63835 5.41353 1.61767 5.41353C1.5947 5.41353 1.58008 5.58898 1.58008 5.86466C1.58008 6.14034 1.5947 6.31579 1.61767 6.31579C1.64117 6.31579 1.65527 6.54135 1.65527 6.91729C1.65527 7.29323 1.66936 7.5188 1.69286 7.5188C1.71636 7.5188 1.73045 7.74436 1.73045 8.1203C1.73045 8.49624 1.74455 8.7218 1.76805 8.7218C1.79162 8.7218 1.80564 8.95989 1.80564 9.3609C1.80564 9.76192 1.81966 10 1.84324 10C1.86673 10 1.88083 10.2256 1.88083 10.6015C1.88083 10.9774 1.89493 11.203 1.91842 11.203C1.942 11.203 1.95602 11.4411 1.95602 11.8421C1.95602 12.2431 1.97004 12.4812 1.99361 12.4812C2.01711 12.4812 2.03121 12.7068 2.03121 13.0827C2.03121 13.4586 2.0453 13.6842 2.0688 13.6842C2.0923 13.6842 2.10639 13.9098 2.10639 14.2857C2.10639 14.6617 2.12049 14.8872 2.14399 14.8872C2.16756 14.8872 2.18158 15.1253 2.18158 15.5263C2.18158 15.9273 2.1956 16.1654 2.21918 16.1654C2.24267 16.1654 2.25677 16.391 2.25677 16.7669C2.25677 17.1429 2.27087 17.3684 2.29436 17.3684C2.31786 17.3684 2.33196 17.594 2.33196 17.9699C2.33196 18.3459 2.34606 18.5714 2.36955 18.5714C2.39147 18.5714 2.40715 18.6967 2.40715 18.8722C2.40715 19.0476 2.42282 19.1729 2.44474 19.1729C2.46542 19.1729 2.48233 19.2068 2.48233 19.2481C2.48233 19.2895 2.49925 19.3233 2.51993 19.3233C2.5406 19.3233 2.55752 19.3491 2.55752 19.3805C2.55752 19.455 2.95218 19.8496 3.02662 19.8496C3.05809 19.8496 3.08384 19.8665 3.08384 19.8872C3.08384 19.9079 3.15151 19.9248 3.23421 19.9248C3.31692 19.9248 3.38459 19.9417 3.38459 19.9624C3.38459 19.9873 5.61515 20 10.0011 20C14.3871 20 16.6177 19.9873 16.6177 19.9624C16.6177 19.9417 16.6684 19.9248 16.7305 19.9248C16.7925 19.9248 16.8432 19.9079 16.8432 19.8872C16.8432 19.8665 16.8771 19.8496 16.9184 19.8496C16.9598 19.8496 16.9936 19.8327 16.9936 19.812C16.9936 19.7914 17.0194 19.7744 17.051 19.7744C17.1256 19.7744 17.4447 19.4553 17.4447 19.3807C17.4447 19.3491 17.4617 19.3233 17.4823 19.3233C17.503 19.3233 17.5199 19.2726 17.5199 19.2105C17.5199 19.1485 17.5368 19.0977 17.5575 19.0977C17.5805 19.0977 17.5951 18.9223 17.5951 18.6466C17.5951 18.3709 17.6097 18.1955 17.6327 18.1955C17.6562 18.1955 17.6703 17.9699 17.6703 17.594C17.6703 17.218 17.6844 16.9925 17.7079 16.9925C17.7314 16.9925 17.7455 16.7669 17.7455 16.391C17.7455 16.015 17.7596 15.7895 17.7831 15.7895C17.8067 15.7895 17.8207 15.5514 17.8207 15.1504C17.8207 14.7494 17.8347 14.5113 17.8583 14.5113C17.8818 14.5113 17.8959 14.2857 17.8959 13.9098C17.8959 13.5338 17.91 13.3083 17.9335 13.3083C17.957 13.3083 17.9711 13.0702 17.9711 12.6692C17.9711 12.2682 17.9851 12.0301 18.0086 12.0301C18.0321 12.0301 18.0462 11.8045 18.0462 11.4286C18.0462 11.0526 18.0603 10.8271 18.0838 10.8271C18.1073 10.8271 18.1214 10.6015 18.1214 10.2256C18.1214 9.84962 18.1355 9.62406 18.159 9.62406C18.1826 9.62406 18.1966 9.38598 18.1966 8.98496C18.1966 8.58395 18.2106 8.34586 18.2342 8.34586C18.2577 8.34586 18.2718 8.1203 18.2718 7.74436C18.2718 7.36842 18.2859 7.14286 18.3094 7.14286C18.3329 7.14286 18.347 6.91729 18.347 6.54135C18.347 6.16541 18.3611 5.93985 18.3846 5.93985C18.4055 5.93985 18.4222 5.83959 18.4222 5.71429C18.4222 5.58898 18.4055 5.48872 18.3846 5.48872C18.3639 5.48872 18.347 5.43797 18.347 5.37594C18.347 5.31391 18.3301 5.26316 18.3094 5.26316C18.2887 5.26316 18.2718 5.22932 18.2718 5.18797C18.2718 5.14662 18.2549 5.11278 18.2342 5.11278C18.2135 5.11278 18.1966 5.08665 18.1966 5.0547C18.1966 4.98365 18.0309 4.81203 17.9623 4.81203C17.9349 4.81203 17.8881 4.7782 17.8583 4.73684C17.8285 4.69549 17.7777 4.66165 17.7455 4.66165C17.7133 4.66165 17.6625 4.62782 17.6327 4.58647C17.6029 4.54511 17.5521 4.51128 17.5199 4.51128C17.4877 4.51128 17.437 4.47744 17.4071 4.43609C17.3773 4.39474 17.3229 4.3609 17.2861 4.3609C17.2493 4.3609 17.2192 4.34398 17.2192 4.32331C17.2192 4.30263 17.1891 4.28571 17.1523 4.28571C17.1155 4.28571 17.061 4.25188 17.0312 4.21053C17.0014 4.16917 16.9506 4.13534 16.9184 4.13534C16.8862 4.13534 16.8355 4.1015 16.8056 4.06015C16.7758 4.0188 16.7214 3.98496 16.6846 3.98496C16.6478 3.98496 16.6177 3.96804 16.6177 3.94737C16.6177 3.92669 16.5876 3.90977 16.5508 3.90977C16.514 3.90977 16.4595 3.87594 16.4297 3.83459C16.3999 3.79323 16.3491 3.7594 16.3169 3.7594C16.2847 3.7594 16.234 3.72556 16.2041 3.68421C16.1743 3.64286 16.1199 3.60902 16.083 3.60902C16.0463 3.60902 16.0162 3.59211 16.0162 3.57143C16.0162 3.55075 15.9861 3.53383 15.9493 3.53383C15.9125 3.53383 15.858 3.5 15.8282 3.45865C15.7984 3.41729 15.7476 3.38346 15.7154 3.38346C15.6832 3.38346 15.6324 3.34962 15.6026 3.30827C15.5728 3.26692 15.5183 3.23308 15.4815 3.23308C15.4448 3.23308 15.4147 3.21617 15.4147 3.19549C15.4147 3.17481 15.3846 3.15789 15.3478 3.15789C15.311 3.15789 15.2565 3.12406 15.2267 3.08271C15.1969 3.04135 15.1461 3.00752 15.1139 3.00752C15.0817 3.00752 15.0309 2.97368 15.0011 2.93233C14.9713 2.89098 14.9168 2.85714 14.88 2.85714C14.8433 2.85714 14.8132 2.84023 14.8132 2.81955C14.8132 2.79887 14.783 2.78195 14.7463 2.78195C14.7095 2.78195 14.655 2.74812 14.6252 2.70677C14.5954 2.66541 14.5446 2.63158 14.5124 2.63158C14.4802 2.63158 14.4294 2.59774 14.3996 2.55639C14.3698 2.51504 14.3153 2.4812 14.2785 2.4812C14.2418 2.4812 14.2117 2.46429 14.2117 2.44361C14.2117 2.42293 14.1815 2.40601 14.1448 2.40601C14.108 2.40601 14.0535 2.37218 14.0237 2.33083C13.9939 2.28947 13.9431 2.25564 13.9109 2.25564C13.8787 2.25564 13.8279 2.2218 13.7981 2.18045C13.7683 2.1391 13.7138 2.10526 13.677 2.10526C13.6403 2.10526 13.6102 2.08835 13.6102 2.06767C13.6102 2.04699 13.58 2.03008 13.5433 2.03008C13.5065 2.03008 13.452 1.99624 13.4222 1.95489C13.3924 1.91353 13.3416 1.8797 13.3094 1.8797C13.2772 1.8797 13.2264 1.84586 13.1966 1.80451C13.1668 1.76316 13.1123 1.72932 13.0755 1.72932C13.0388 1.72932 13.0086 1.71241 13.0086 1.69173C13.0086 1.67105 12.9785 1.65414 12.9418 1.65414C12.905 1.65414 12.8505 1.6203 12.8207 1.57895C12.7909 1.53759 12.7401 1.50376 12.7079 1.50376C12.6757 1.50376 12.6249 1.46992 12.5951 1.42857C12.5653 1.38722 12.5108 1.35338 12.474 1.35338C12.4373 1.35338 12.4071 1.33647 12.4071 1.31579C12.4071 1.29511 12.377 1.2782 12.3403 1.2782C12.3035 1.2782 12.249 1.24436 12.2192 1.20301C12.1894 1.16165 12.1386 1.12782 12.1064 1.12782C12.0742 1.12782 12.0234 1.09398 11.9936 1.05263C11.9638 1.01128 11.9093 0.977444 11.8725 0.977444C11.8358 0.977444 11.8056 0.960526 11.8056 0.93985C11.8056 0.919173 11.7755 0.902256 11.7388 0.902256C11.702 0.902256 11.6475 0.868421 11.6177 0.827068C11.5879 0.785714 11.5371 0.75188 11.5049 0.75188C11.4727 0.75188 11.4219 0.718045 11.3921 0.676692C11.3623 0.635338 11.3078 0.601504 11.271 0.601504C11.2343 0.601504 11.2041 0.584586 11.2041 0.56391C11.2041 0.543233 11.174 0.526316 11.1373 0.526316C11.1005 0.526316 11.046 0.492481 11.0162 0.451128C10.9864 0.409774 10.9356 0.37594 10.9034 0.37594C10.8712 0.37594 10.8204 0.342105 10.7906 0.300752C10.7608 0.259398 10.7063 0.225564 10.6695 0.225564C10.6327 0.225564 10.6026 0.208647 10.6026 0.18797C10.6026 0.167293 10.5688 0.150376 10.5274 0.150376C10.4861 0.150376 10.4523 0.133459 10.4523 0.112782C10.4523 0.0921053 10.4015 0.075188 10.3395 0.075188C10.2774 0.075188 10.2267 0.0582707 10.2267 0.037594C10.2267 0.0161278 10.1139 0 9.96354 0C9.81316 0 9.70038 0.0161278 9.70038 0.037594ZM10.2643 1.95489C10.2941 1.99624 10.3449 2.03008 10.3771 2.03008C10.4093 2.03008 10.46 2.06391 10.4899 2.10526C10.5197 2.14662 10.5741 2.18045 10.6109 2.18045C10.6477 2.18045 10.6778 2.19737 10.6778 2.21804C10.6778 2.23872 10.7079 2.25564 10.7447 2.25564C10.7815 2.25564 10.836 2.28947 10.8658 2.33083C10.8956 2.37218 10.9464 2.40601 10.9786 2.40601C11.0108 2.40601 11.0615 2.43985 11.0914 2.4812C11.1212 2.52256 11.1756 2.55639 11.2124 2.55639C11.2492 2.55639 11.2793 2.57331 11.2793 2.59398C11.2793 2.61466 11.3094 2.63158 11.3462 2.63158C11.383 2.63158 11.4375 2.66541 11.4673 2.70677C11.4971 2.74812 11.5479 2.78195 11.5801 2.78195C11.6123 2.78195 11.663 2.81579 11.6929 2.85714C11.7227 2.8985 11.7771 2.93233 11.814 2.93233C11.8507 2.93233 11.8808 2.94925 11.8808 2.96992C11.8808 2.9906 11.9109 3.00752 11.9477 3.00752C11.9845 3.00752 12.039 3.04135 12.0688 3.08271C12.0986 3.12406 12.1494 3.15789 12.1816 3.15789C12.2138 3.15789 12.2646 3.19173 12.2944 3.23308C12.3242 3.27444 12.3787 3.30827 12.4155 3.30827C12.4522 3.30827 12.4823 3.32519 12.4823 3.34586C12.4823 3.36654 12.5124 3.38346 12.5492 3.38346C12.586 3.38346 12.6405 3.41729 12.6703 3.45865C12.7001 3.5 12.7509 3.53383 12.7831 3.53383C12.8153 3.53383 12.8661 3.56767 12.8959 3.60902C12.9257 3.65038 12.9802 3.68421 13.017 3.68421C13.0537 3.68421 13.0838 3.70113 13.0838 3.7218C13.0838 3.74248 13.114 3.7594 13.1507 3.7594C13.1875 3.7594 13.242 3.79323 13.2718 3.83459C13.3016 3.87594 13.3524 3.90977 13.3846 3.90977C13.4168 3.90977 13.4676 3.94361 13.4974 3.98496C13.5272 4.02632 13.5817 4.06015 13.6185 4.06015C13.6552 4.06015 13.6853 4.07707 13.6853 4.09774C13.6853 4.11842 13.7155 4.13534 13.7522 4.13534C13.789 4.13534 13.8435 4.16917 13.8733 4.21053C13.9031 4.25188 13.9539 4.28571 13.9861 4.28571C14.0183 4.28571 14.0691 4.31955 14.0989 4.3609C14.1287 4.40226 14.1832 4.43609 14.22 4.43609C14.2567 4.43609 14.2868 4.45301 14.2868 4.47368C14.2868 4.49436 14.317 4.51128 14.3537 4.51128C14.3905 4.51128 14.445 4.54511 14.4748 4.58647C14.5046 4.62782 14.5554 4.66165 14.5876 4.66165C14.6198 4.66165 14.6706 4.69549 14.7004 4.73684C14.7302 4.7782 14.7847 4.81203 14.8215 4.81203C14.8582 4.81203 14.8883 4.82895 14.8883 4.84962C14.8883 4.8703 14.9185 4.88722 14.9552 4.88722C14.992 4.88722 15.0465 4.92105 15.0763 4.96241C15.1061 5.00376 15.1569 5.03759 15.1891 5.03759C15.2213 5.03759 15.2721 5.07143 15.3019 5.11278C15.3317 5.15414 15.3862 5.18797 15.423 5.18797C15.4597 5.18797 15.4899 5.20489 15.4899 5.22556C15.4899 5.24624 15.52 5.26316 15.5567 5.26316C15.5935 5.26316 15.648 5.29699 15.6778 5.33835C15.7076 5.3797 15.7584 5.41353 15.7906 5.41353C15.8228 5.41353 15.8736 5.44737 15.9034 5.48872C15.9332 5.53008 15.9877 5.56391 16.0245 5.56391C16.0612 5.56391 16.0914 5.58083 16.0914 5.6015C16.0914 5.62218 16.1215 5.6391 16.1582 5.6391C16.195 5.6391 16.2495 5.67293 16.2793 5.71429C16.3091 5.75564 16.3559 5.78947 16.3833 5.78947C16.4519 5.78947 16.6177 5.96109 16.6177 6.03214C16.6177 6.0641 16.6346 6.09023 16.6553 6.09023C16.6759 6.09023 16.6929 6.17481 16.6929 6.2782C16.6929 6.38158 16.6759 6.46617 16.6553 6.46617C16.6318 6.46617 16.6177 6.69173 16.6177 7.06767C16.6177 7.44361 16.6036 7.66917 16.5801 7.66917C16.5565 7.66917 16.5425 7.90726 16.5425 8.30827C16.5425 8.70929 16.5285 8.94737 16.5049 8.94737C16.4814 8.94737 16.4673 9.17293 16.4673 9.54887C16.4673 9.92481 16.4532 10.1504 16.4297 10.1504C16.4061 10.1504 16.3921 10.3885 16.3921 10.7895C16.3921 11.1905 16.3781 11.4286 16.3545 11.4286C16.331 11.4286 16.3169 11.6541 16.3169 12.0301C16.3169 12.406 16.3028 12.6316 16.2793 12.6316C16.2558 12.6316 16.2417 12.8697 16.2417 13.2707C16.2417 13.6717 16.2277 13.9098 16.2041 13.9098C16.1806 13.9098 16.1665 14.1353 16.1665 14.5113C16.1665 14.8872 16.1524 15.1128 16.129 15.1128C16.1054 15.1128 16.0914 15.3509 16.0914 15.7519C16.0914 16.1529 16.0773 16.391 16.0538 16.391C16.0303 16.391 16.0162 16.6165 16.0162 16.9925C16.0162 17.3684 16.0021 17.594 15.9786 17.594C15.9577 17.594 15.941 17.6942 15.941 17.8195C15.941 17.9448 15.9243 18.0451 15.9034 18.0451C15.8827 18.0451 15.8658 18.0789 15.8658 18.1203C15.8658 18.1704 15.8407 18.1955 15.7906 18.1955C15.7493 18.1955 15.7154 18.2124 15.7154 18.2331C15.7154 18.258 13.7788 18.2707 9.98064 18.2707H4.24583L4.15357 18.1784C4.10282 18.1276 4.06128 18.06 4.06128 18.028C4.06128 17.9961 4.04436 17.9699 4.02369 17.9699C4.00057 17.9699 3.98609 17.782 3.98609 17.4812C3.98609 17.1805 3.97162 16.9925 3.9485 16.9925C3.925 16.9925 3.91091 16.7669 3.91091 16.391C3.91091 16.015 3.89681 15.7895 3.87331 15.7895C3.84974 15.7895 3.83572 15.5514 3.83572 15.1504C3.83572 14.7494 3.82169 14.5113 3.79812 14.5113C3.77463 14.5113 3.76053 14.2857 3.76053 13.9098C3.76053 13.5338 3.74643 13.3083 3.72294 13.3083C3.69944 13.3083 3.68534 13.0827 3.68534 12.7068C3.68534 12.3308 3.67124 12.1053 3.64775 12.1053C3.62418 12.1053 3.61015 11.8672 3.61015 11.4662C3.61015 11.0652 3.59613 10.8271 3.57256 10.8271C3.54906 10.8271 3.53497 10.6015 3.53497 10.2256C3.53497 9.84962 3.52087 9.62406 3.49737 9.62406C3.4738 9.62406 3.45978 9.38598 3.45978 8.98496C3.45978 8.58395 3.44575 8.34586 3.42218 8.34586C3.39869 8.34586 3.38459 8.1203 3.38459 7.74436C3.38459 7.36842 3.37049 7.14286 3.347 7.14286C3.32361 7.14286 3.3094 6.92981 3.3094 6.57895C3.3094 6.22808 3.32361 6.01504 3.347 6.01504C3.36767 6.01504 3.38459 5.9812 3.38459 5.93985C3.38459 5.89282 3.40966 5.86466 3.45147 5.86466C3.48827 5.86466 3.54275 5.83083 3.57256 5.78947C3.60237 5.74812 3.65685 5.71429 3.69365 5.71429C3.73042 5.71429 3.76053 5.69737 3.76053 5.67669C3.76053 5.65601 3.79064 5.6391 3.82741 5.6391C3.86421 5.6391 3.91869 5.60526 3.9485 5.56391C3.97831 5.52256 4.02906 5.48872 4.06128 5.48872C4.0935 5.48872 4.14425 5.45489 4.17406 5.41353C4.20388 5.37218 4.25835 5.33835 4.29515 5.33835C4.33192 5.33835 4.36203 5.32143 4.36203 5.30075C4.36203 5.28008 4.39215 5.26316 4.42891 5.26316C4.46572 5.26316 4.52019 5.22932 4.55 5.18797C4.57982 5.14662 4.63057 5.11278 4.66279 5.11278C4.695 5.11278 4.74575 5.07895 4.77557 5.03759C4.80538 4.99624 4.85985 4.96241 4.89666 4.96241C4.93342 4.96241 4.96354 4.94549 4.96354 4.92481C4.96354 4.90414 4.99365 4.88722 5.03042 4.88722C5.06722 4.88722 5.12169 4.85338 5.15151 4.81203C5.18132 4.77068 5.23207 4.73684 5.26429 4.73684C5.29651 4.73684 5.34726 4.70301 5.37707 4.66165C5.40688 4.6203 5.46136 4.58647 5.49816 4.58647C5.53493 4.58647 5.56504 4.56955 5.56504 4.54887C5.56504 4.5282 5.59515 4.51128 5.63192 4.51128C5.66873 4.51128 5.7232 4.47744 5.75301 4.43609C5.78282 4.39474 5.83357 4.3609 5.86579 4.3609C5.89801 4.3609 5.94876 4.32707 5.97857 4.28571C6.00839 4.24436 6.05914 4.21053 6.09136 4.21053C6.12357 4.21053 6.17433 4.17669 6.20414 4.13534C6.23395 4.09398 6.28842 4.06015 6.32523 4.06015C6.362 4.06015 6.39211 4.04323 6.39211 4.02256C6.39211 4.00188 6.42222 3.98496 6.45899 3.98496C6.49579 3.98496 6.55027 3.95113 6.58008 3.90977C6.60989 3.86842 6.66064 3.83459 6.69286 3.83459C6.72508 3.83459 6.77583 3.80075 6.80564 3.7594C6.83545 3.71804 6.88993 3.68421 6.92673 3.68421C6.9635 3.68421 6.99361 3.66729 6.99361 3.64662C6.99361 3.62594 7.02373 3.60902 7.06049 3.60902C7.0973 3.60902 7.15177 3.57519 7.18158 3.53383C7.21139 3.49248 7.26215 3.45865 7.29436 3.45865C7.32658 3.45865 7.37733 3.42481 7.40715 3.38346C7.43696 3.34211 7.49143 3.30827 7.52824 3.30827C7.565 3.30827 7.59512 3.29135 7.59512 3.27068C7.59512 3.25 7.62523 3.23308 7.662 3.23308C7.6988 3.23308 7.75327 3.19925 7.78309 3.15789C7.8129 3.11654 7.86365 3.08271 7.89587 3.08271C7.92809 3.08271 7.97884 3.04887 8.00865 3.00752C8.03846 2.96617 8.09294 2.93233 8.12974 2.93233C8.16651 2.93233 8.19662 2.91541 8.19662 2.89474C8.19662 2.87406 8.22673 2.85714 8.2635 2.85714C8.3003 2.85714 8.35478 2.82331 8.38459 2.78195C8.4144 2.7406 8.46515 2.70677 8.49737 2.70677C8.52959 2.70677 8.58034 2.67293 8.61015 2.63158C8.63997 2.59023 8.69444 2.55639 8.73124 2.55639C8.76801 2.55639 8.79812 2.53947 8.79812 2.5188C8.79812 2.49812 8.82824 2.4812 8.865 2.4812C8.90181 2.4812 8.95628 2.44737 8.98609 2.40601C9.01591 2.36466 9.06666 2.33083 9.09888 2.33083C9.13109 2.33083 9.18185 2.29699 9.21166 2.25564C9.24147 2.21429 9.29594 2.18045 9.33275 2.18045C9.36951 2.18045 9.39963 2.16353 9.39963 2.14286C9.39963 2.12218 9.42974 2.10526 9.46651 2.10526C9.50331 2.10526 9.55779 2.07143 9.5876 2.03008C9.61741 1.98872 9.67188 1.95489 9.70869 1.95489C9.74545 1.95489 9.77557 1.93797 9.77557 1.91729C9.77557 1.89658 9.87305 1.8797 9.99282 1.8797C10.167 1.8797 10.2209 1.89462 10.2643 1.95489ZM9.92594 4.24812C9.92594 4.2688 9.89583 4.28571 9.85906 4.28571C9.82226 4.28571 9.76779 4.31955 9.73797 4.3609C9.70816 4.40226 9.65741 4.43609 9.62519 4.43609C9.59297 4.43609 9.54222 4.46992 9.51241 4.51128C9.4826 4.55263 9.42812 4.58647 9.39132 4.58647C9.35455 4.58647 9.32444 4.60338 9.32444 4.62406C9.32444 4.64474 9.29433 4.66165 9.25756 4.66165C9.22076 4.66165 9.16628 4.69549 9.13647 4.73684C9.10666 4.7782 9.05591 4.81203 9.02369 4.81203C8.99147 4.81203 8.94072 4.84586 8.91091 4.88722C8.88109 4.92857 8.82662 4.96241 8.78982 4.96241C8.75305 4.96241 8.72294 4.97932 8.72294 5C8.72294 5.02068 8.69282 5.03759 8.65606 5.03759C8.61925 5.03759 8.56478 5.07143 8.53497 5.11278C8.50515 5.15414 8.4544 5.18797 8.42218 5.18797C8.38997 5.18797 8.33921 5.2218 8.3094 5.26316C8.27959 5.30451 8.22512 5.33835 8.18831 5.33835C8.15155 5.33835 8.12143 5.35526 8.12143 5.37594C8.12143 5.39662 8.09132 5.41353 8.05455 5.41353C8.01775 5.41353 7.96327 5.44737 7.93346 5.48872C7.90365 5.53008 7.8529 5.56391 7.82068 5.56391C7.78846 5.56391 7.73771 5.59774 7.7079 5.6391C7.67809 5.68045 7.62361 5.71429 7.58681 5.71429C7.55004 5.71429 7.51993 5.7312 7.51993 5.75188C7.51993 5.77256 7.48982 5.78947 7.45305 5.78947C7.41624 5.78947 7.36177 5.82331 7.33196 5.86466C7.30215 5.90601 7.25139 5.93985 7.21918 5.93985C7.18696 5.93985 7.13621 5.97368 7.10639 6.01504C7.07658 6.05639 7.02211 6.09023 6.9853 6.09023C6.94854 6.09023 6.91842 6.10714 6.91842 6.12782C6.91842 6.1485 6.88831 6.16541 6.85154 6.16541C6.81474 6.16541 6.76027 6.19925 6.73045 6.2406C6.70064 6.28195 6.64989 6.31579 6.61767 6.31579C6.58545 6.31579 6.5347 6.34962 6.50489 6.39098C6.47508 6.43233 6.4206 6.46617 6.3838 6.46617C6.34703 6.46617 6.31692 6.48308 6.31692 6.50376C6.31692 6.52444 6.28681 6.54135 6.25004 6.54135C6.21324 6.54135 6.15876 6.57519 6.12895 6.61654C6.09914 6.65789 6.04839 6.69173 6.01617 6.69173C5.98395 6.69173 5.9332 6.72556 5.90339 6.76692C5.87357 6.80827 5.8191 6.8421 5.7823 6.8421C5.74553 6.8421 5.71542 6.85902 5.71542 6.8797C5.71542 6.90038 5.68929 6.91729 5.65733 6.91729C5.62538 6.91729 5.55771 6.95883 5.50696 7.00959C5.42527 7.09124 5.41466 7.13447 5.41466 7.38553C5.41466 7.54955 5.43053 7.66917 5.45226 7.66917C5.47575 7.66917 5.48985 7.89474 5.48985 8.27068C5.48985 8.64662 5.50395 8.87218 5.52745 8.87218C5.55094 8.87218 5.56504 9.09774 5.56504 9.47368C5.56504 9.84962 5.57914 10.0752 5.60263 10.0752C5.62613 10.0752 5.64023 10.3008 5.64023 10.6767C5.64023 11.0526 5.65433 11.2782 5.67782 11.2782C5.69974 11.2782 5.71542 11.4035 5.71542 11.5789V11.8797H8.83572H11.956V12.5564C11.956 12.9824 11.9421 13.2331 11.9184 13.2331C11.8959 13.2331 11.8808 13.3835 11.8808 13.609V13.985H10.0011C8.14651 13.985 8.12143 13.9839 8.12143 13.9098C8.12143 13.8684 8.10451 13.8346 8.08384 13.8346C8.06034 13.8346 8.04624 13.609 8.04624 13.2331C8.04624 12.8571 8.03215 12.6316 8.00865 12.6316C7.98797 12.6316 7.97106 12.5977 7.97106 12.5564C7.97106 12.4829 7.94598 12.4812 6.88083 12.4812H5.7906V13.1203C5.7906 13.5213 5.80463 13.7594 5.8282 13.7594C5.85177 13.7594 5.86579 13.9975 5.86579 14.3985C5.86579 14.7995 5.87982 15.0376 5.90339 15.0376C5.92688 15.0376 5.94098 15.2632 5.94098 15.6391V16.2406H9.96354H13.9861V15.9398C13.9861 15.7644 14.0018 15.6391 14.0237 15.6391C14.0473 15.6391 14.0613 15.401 14.0613 15C14.0613 14.599 14.0753 14.3609 14.0989 14.3609C14.1224 14.3609 14.1365 14.1353 14.1365 13.7594C14.1365 13.3835 14.1506 13.1579 14.1741 13.1579C14.1976 13.1579 14.2117 12.9198 14.2117 12.5188C14.2117 12.1178 14.2257 11.8797 14.2493 11.8797C14.2727 11.8797 14.2868 11.6541 14.2868 11.2782C14.2868 10.9023 14.3009 10.6767 14.3244 10.6767C14.3477 10.6767 14.362 10.4762 14.362 10.1504V9.62406H11.0914H7.82068V9.28571C7.82068 9.08523 7.80538 8.94737 7.78309 8.94737C7.76094 8.94737 7.74549 8.81523 7.74549 8.62613C7.74549 8.33515 7.75418 8.29617 7.83779 8.21259C7.88854 8.16184 7.95245 8.1203 7.97985 8.1203C8.00722 8.1203 8.05403 8.08647 8.08384 8.04511C8.11365 8.00376 8.16812 7.96992 8.20493 7.96992C8.24169 7.96992 8.27181 7.95301 8.27181 7.93233C8.27181 7.91165 8.30192 7.89474 8.33869 7.89474C8.37549 7.89474 8.42997 7.8609 8.45978 7.81955C8.48959 7.77819 8.54034 7.74436 8.57256 7.74436C8.60478 7.74436 8.65553 7.71053 8.68534 7.66917C8.71515 7.62782 8.76963 7.59398 8.80643 7.59398C8.8432 7.59398 8.87331 7.57707 8.87331 7.55639C8.87331 7.53571 8.90342 7.5188 8.94019 7.5188C8.977 7.5188 9.03147 7.48496 9.06128 7.44361C9.09109 7.40226 9.14185 7.36842 9.17406 7.36842C9.20628 7.36842 9.25703 7.33459 9.28685 7.29323C9.31666 7.25188 9.37113 7.21804 9.40794 7.21804C9.4447 7.21804 9.47482 7.20113 9.47482 7.18045C9.47482 7.15977 9.50493 7.14286 9.5417 7.14286C9.5785 7.14286 9.63297 7.10902 9.66279 7.06767C9.6926 7.02632 9.74707 6.99248 9.78388 6.99248C9.82064 6.99248 9.85076 6.97556 9.85076 6.95489C9.85076 6.93421 9.90151 6.91729 9.96354 6.91729C10.0256 6.91729 10.0763 6.93421 10.0763 6.95489C10.0763 6.97556 10.1102 6.99248 10.1515 6.99248C10.1929 6.99248 10.2267 7.0094 10.2267 7.03008C10.2267 7.05075 10.2568 7.06767 10.2936 7.06767C10.3304 7.06767 10.3849 7.1015 10.4147 7.14286C10.4445 7.18421 10.4952 7.21804 10.5274 7.21804C10.5597 7.21804 10.6104 7.25188 10.6402 7.29323C10.67 7.33459 10.7245 7.36842 10.7613 7.36842C10.7981 7.36842 10.8282 7.38534 10.8282 7.40601C10.8282 7.42669 10.8583 7.44361 10.8951 7.44361C10.9319 7.44361 10.9864 7.47744 11.0162 7.5188C11.046 7.56015 11.0967 7.59398 11.129 7.59398C11.1612 7.59398 11.2119 7.62782 11.2417 7.66917C11.2715 7.71053 11.326 7.74436 11.3628 7.74436C11.3996 7.74436 11.4297 7.76128 11.4297 7.78195C11.4297 7.80263 11.4598 7.81955 11.4966 7.81955C11.5334 7.81955 11.5879 7.85338 11.6177 7.89474C11.6475 7.93609 11.702 7.96992 11.7388 7.96992C11.7755 7.96992 11.8056 7.98684 11.8056 8.00752C11.8056 8.0282 11.8358 8.04511 11.8725 8.04511C11.9093 8.04511 11.9638 8.07895 11.9936 8.1203C12.0234 8.16165 12.0779 8.19549 12.1147 8.19549C12.1751 8.19549 12.1816 8.23921 12.1816 8.64662V9.09774H13.3094H14.4372V8.60902C14.4372 8.30827 14.4517 8.1203 14.4748 8.1203C14.498 8.1203 14.5124 7.92549 14.5124 7.61109C14.5124 7.12053 14.509 7.09846 14.4201 7.00959C14.3694 6.95883 14.3055 6.91729 14.278 6.91729C14.2507 6.91729 14.2039 6.88346 14.1741 6.8421C14.1443 6.80075 14.0898 6.76692 14.053 6.76692C14.0162 6.76692 13.9861 6.75 13.9861 6.72932C13.9861 6.70865 13.956 6.69173 13.9192 6.69173C13.8824 6.69173 13.8279 6.65789 13.7981 6.61654C13.7683 6.57519 13.7176 6.54135 13.6853 6.54135C13.6531 6.54135 13.6024 6.50752 13.5726 6.46617C13.5427 6.42481 13.4883 6.39098 13.4515 6.39098C13.4147 6.39098 13.3846 6.37406 13.3846 6.35338C13.3846 6.33271 13.3545 6.31579 13.3177 6.31579C13.2809 6.31579 13.2264 6.28195 13.1966 6.2406C13.1668 6.19925 13.1161 6.16541 13.0838 6.16541C13.0516 6.16541 13.0009 6.13158 12.9711 6.09023C12.9412 6.04887 12.8868 6.01504 12.85 6.01504C12.8132 6.01504 12.7831 5.99812 12.7831 5.97744C12.7831 5.95677 12.753 5.93985 12.7162 5.93985C12.6794 5.93985 12.6249 5.90601 12.5951 5.86466C12.5653 5.82331 12.5146 5.78947 12.4823 5.78947C12.4501 5.78947 12.3994 5.75564 12.3696 5.71429C12.3397 5.67293 12.2853 5.6391 12.2485 5.6391C12.2117 5.6391 12.1816 5.62218 12.1816 5.6015C12.1816 5.58083 12.1515 5.56391 12.1147 5.56391C12.0779 5.56391 12.0234 5.53008 11.9936 5.48872C11.9638 5.44737 11.913 5.41353 11.8808 5.41353C11.8486 5.41353 11.7979 5.3797 11.768 5.33835C11.7382 5.29699 11.6838 5.26316 11.647 5.26316C11.6102 5.26316 11.5801 5.24624 11.5801 5.22556C11.5801 5.20489 11.55 5.18797 11.5132 5.18797C11.4764 5.18797 11.4219 5.15414 11.3921 5.11278C11.3623 5.07143 11.3115 5.03759 11.2793 5.03759C11.2471 5.03759 11.1964 5.00376 11.1665 4.96241C11.1367 4.92105 11.0823 4.88722 11.0455 4.88722C11.0087 4.88722 10.9786 4.8703 10.9786 4.84962C10.9786 4.82895 10.9485 4.81203 10.9117 4.81203C10.8749 4.81203 10.8204 4.7782 10.7906 4.73684C10.7608 4.69549 10.71 4.66165 10.6778 4.66165C10.6456 4.66165 10.5949 4.62782 10.565 4.58647C10.5352 4.54511 10.4808 4.51128 10.444 4.51128C10.4072 4.51128 10.3771 4.49436 10.3771 4.47368C10.3771 4.45301 10.347 4.43609 10.3102 4.43609C10.2734 4.43609 10.2189 4.40226 10.1891 4.3609C10.1593 4.31955 10.1048 4.28571 10.068 4.28571C10.0312 4.28571 10.0011 4.2688 10.0011 4.24812C10.0011 4.22744 9.98421 4.21053 9.96354 4.21053C9.94286 4.21053 9.92594 4.22744 9.92594 4.24812Z" fill="#E1AB4C"/>
</svg>
