<svg width="20" height="20" viewBox="0 0 20 20" fill="none" xmlns="http://www.w3.org/2000/svg">
<path d="M10 20C15.5228 20 20 15.5228 20 10C20 4.47715 15.5228 0 10 0C4.47715 0 0 4.47715 0 10C0 15.5228 4.47715 20 10 20Z" fill="black"/>
<path d="M12.4305 7.25283C13.4013 7.25283 14.3493 7.2601 15.2971 7.24808C15.5569 7.24478 15.6998 7.31864 15.794 7.57807C16.3557 9.12498 16.936 10.6652 17.5073 12.2086C17.6763 12.665 17.6219 12.7352 17.1259 12.735C16.258 12.7345 14.2081 12.7313 14.2081 12.7313C14.2081 12.7313 11.2926 15.959 9.91949 17.4668C9.88334 17.5065 9.84841 17.5474 9.8114 17.5862C9.56332 17.8467 9.41971 17.8207 9.29418 17.4841C8.76913 16.0762 8.2469 14.6673 7.72328 13.2589C7.66129 13.0922 7.59715 12.9263 7.52449 12.7349C7.25203 12.7349 6.98497 12.7348 6.7179 12.7349C6.01997 12.7353 5.32195 12.7296 4.62417 12.7402C4.41139 12.7434 4.29896 12.6656 4.22591 12.467C3.6423 10.8805 3.05054 9.29689 2.46355 7.71155C2.3343 7.36247 2.41297 7.25476 2.78997 7.25412C3.6937 7.25259 5.71842 7.25505 5.71842 7.25505C5.71842 7.25505 8.71328 3.98525 10.1158 2.44397C10.3926 2.13987 10.53 2.16959 10.6737 2.55567C11.2199 4.0225 12.383 7.13763 12.4305 7.25283H12.4305ZM17.0423 12.2609L15.3552 7.71292C14.3759 7.71292 12.356 7.71986 12.356 7.71986C12.356 7.71986 10.4493 9.81468 10.2536 10.0325L11.0857 12.2609H17.0423L17.0423 12.2609ZM4.64595 12.2812C5.60489 12.2812 6.52537 12.2852 7.4457 12.2748C7.53621 12.2738 7.64684 12.2044 7.71245 12.1336C8.34433 11.4521 8.97239 10.7669 9.58931 10.0719C9.65404 9.99897 9.68294 9.84355 9.65483 9.7481C9.5616 9.43165 9.43619 9.12458 9.32032 8.81495C9.18345 8.4492 9.04368 8.08455 8.91191 7.73721H2.95775L4.64596 12.2811L4.64595 12.2812ZM13.6135 12.7337C12.6994 12.7337 11.8768 12.7287 11.0543 12.7372C10.8531 12.7393 10.7361 12.6725 10.6758 12.4784C10.6122 12.2736 10.0989 10.9259 9.90531 10.4107L7.94759 12.5592L9.63591 17.1034L13.6135 12.7337ZM10.3147 2.89535L6.36933 7.25332C6.54512 7.25332 8.22348 7.25924 8.96552 7.25113C9.15917 7.24901 9.26042 7.32669 9.32294 7.50155C9.51855 8.04863 9.72103 8.59326 9.92258 9.13821C9.96738 9.25933 10.0192 9.37783 10.0746 9.5141C10.1309 9.4684 12.0074 7.37174 12.0074 7.37174C12.0074 7.37174 10.5561 3.54126 10.3147 2.89535H10.3147Z" fill="white"/>
</svg>
