<svg width="20" height="20" viewBox="0 0 20 20" fill="none" xmlns="http://www.w3.org/2000/svg">
<path d="M19.754 17.73L10.381 1.49583C10.3479 1.43734 10.294 1.39345 10.23 1.37287C10.166 1.35228 10.0966 1.35649 10.0355 1.38467C9.9745 1.41285 9.92629 1.46294 9.90046 1.525C9.87463 1.58707 9.87306 1.65658 9.89608 1.71974L14.3198 14.1996C14.3321 14.2343 14.3371 14.2713 14.3345 14.308C14.3319 14.3448 14.3217 14.3807 14.3046 14.4133C14.2875 14.446 14.2639 14.4748 14.2351 14.4979C14.2064 14.521 14.1732 14.5379 14.1376 14.5476L10.8892 15.4421C10.8306 15.4578 10.779 15.4929 10.743 15.5416C10.7069 15.5904 10.6884 15.6499 10.6906 15.7105C10.6927 15.7712 10.7154 15.8292 10.7548 15.8753C10.7943 15.9214 10.8482 15.9527 10.9077 15.9642L19.754 17.73Z" fill="url(#paint0_linear_4260_56384)"/>
<path d="M6.07707 15.1544L7.10381 11.6878C7.12015 11.6395 7.11904 11.587 7.1007 11.5395C7.08235 11.4919 7.04791 11.4522 7.00337 11.4274C6.95884 11.4026 6.90701 11.3942 6.8569 11.4036C6.80679 11.413 6.76157 11.4397 6.72908 11.479L0.789062 18.6441H19.7774C19.8324 18.6436 19.8852 18.6227 19.9257 18.5856C19.9662 18.5485 19.9915 18.4977 19.9969 18.443C20.0022 18.3883 19.9871 18.3336 19.9545 18.2893C19.9219 18.2451 19.8741 18.2144 19.8203 18.2033L6.24646 15.4351C6.21626 15.429 6.18766 15.4166 6.16248 15.3989C6.13729 15.3811 6.11607 15.3583 6.10015 15.3319C6.08423 15.3055 6.07396 15.2761 6.06999 15.2456C6.06602 15.215 6.06843 15.184 6.07707 15.1544Z" fill="url(#paint1_radial_4260_56384)"/>
<path d="M9.43988 1.73828L0.0321422 18.0304C0.00142768 18.086 -0.00767887 18.1509 0.00657083 18.2128C0.0208205 18.2747 0.0574222 18.3291 0.109349 18.3656C0.161276 18.4022 0.224868 18.4182 0.287918 18.4108C0.350967 18.4033 0.40903 18.3728 0.45096 18.3251L9.24961 7.94514C9.27329 7.91729 9.30261 7.8948 9.33565 7.87916C9.36868 7.86352 9.40467 7.8551 9.44121 7.85444C9.47775 7.85378 9.51402 7.86091 9.54759 7.87534C9.58117 7.88978 9.61129 7.9112 9.63595 7.93818L12.0491 10.5752C12.0894 10.6183 12.1432 10.6462 12.2016 10.6544C12.2601 10.6625 12.3195 10.6503 12.37 10.6199C12.4205 10.5895 12.4591 10.5426 12.4792 10.4872C12.4994 10.4318 12.4999 10.3711 12.4807 10.3153L9.43988 1.73828Z" fill="url(#paint2_linear_4260_56384)"/>
<defs>
<linearGradient id="paint0_linear_4260_56384" x1="14.8163" y1="17.7299" x2="14.8163" y2="1.36009" gradientUnits="userSpaceOnUse">
<stop stop-color="#5AC1DC"/>
<stop offset="1" stop-color="#3179BD"/>
</linearGradient>
<radialGradient id="paint1_radial_4260_56384" cx="0" cy="0" r="1" gradientUnits="userSpaceOnUse" gradientTransform="translate(10.4167 15.0233) scale(7.25379 7.40182)">
<stop stop-color="white"/>
<stop offset="1" stop-color="#8F8F8F"/>
</radialGradient>
<linearGradient id="paint2_linear_4260_56384" x1="-0.00614312" y1="10.0775" x2="12.4969" y2="10.0775" gradientUnits="userSpaceOnUse">
<stop stop-color="#5AC1DC"/>
<stop offset="1" stop-color="#3179BD"/>
</linearGradient>
</defs>
</svg>
