<svg width="20" height="20" viewBox="0 0 20 20" fill="none" xmlns="http://www.w3.org/2000/svg">
<circle cx="10" cy="10" r="10" fill="#45CD85"/>
<path d="M11.4596 4.39306C11.4842 4.78202 11.4842 4.78616 11.3898 4.78616C11.2296 4.78616 10.6548 4.94754 10.4372 5.05512C10.1252 5.20823 9.86649 5.4565 9.72689 5.74616C9.61603 5.96547 9.59961 6.04409 9.59961 6.33374C9.59961 6.7434 9.64477 6.91305 9.81722 7.17374C10.0728 7.5601 10.5134 7.78285 11.4596 7.98458C11.5774 8.00971 11.7031 8.03451 11.8373 8.05926C12.1031 8.10724 12.3114 8.1492 12.4778 8.19C12.8282 8.27588 12.9931 8.35656 13.1183 8.47719C13.3647 8.71719 13.2785 9.07719 12.9295 9.26754C12.7936 9.34223 12.6443 9.39469 12.4778 9.42557C12.2015 9.4768 11.8777 9.46863 11.4883 9.40409C11.4787 9.40251 11.4691 9.40092 11.4596 9.39932C10.9463 9.31318 10.609 9.20237 9.68994 8.81237C9.64888 8.79581 9.64067 8.91168 9.64888 9.37926L9.6612 9.96685L9.90755 10.0662C10.2483 10.2068 10.9094 10.3682 11.2953 10.3972C11.5992 10.4262 11.6156 10.4303 11.5951 10.5131C11.5827 10.5627 11.5581 10.7365 11.5417 10.902L11.517 11.2H12.0837H12.6503L12.6256 10.902C12.6092 10.7365 12.5887 10.5627 12.5723 10.5172C12.5517 10.4386 12.5805 10.4262 12.8432 10.3806C13.2128 10.3186 13.6685 10.1075 13.9149 9.88409C14.0175 9.79305 14.1653 9.59857 14.2392 9.45374C14.3624 9.22616 14.3829 9.14754 14.3953 8.82064C14.4158 8.38202 14.3665 8.17512 14.1859 7.90202C13.9295 7.51263 13.495 7.29602 12.4778 7.07133C12.3708 7.0477 12.2574 7.02397 12.137 6.99995C11.8628 6.94568 11.6399 6.89677 11.4596 6.84873C10.8975 6.699 10.7493 6.55765 10.7493 6.28823C10.7493 6.07305 10.856 5.94478 11.1516 5.80823C11.2227 5.77516 11.3305 5.74914 11.4596 5.73064C11.75 5.689 12.148 5.68541 12.4778 5.72522C12.5517 5.73414 12.6222 5.74524 12.6872 5.75857C12.9746 5.8165 13.492 5.97374 13.7589 6.08961C13.8245 6.11857 13.8287 6.07719 13.8287 5.55581V4.99719L13.6562 4.94754C13.3647 4.86892 12.8761 4.7903 12.6708 4.78616H12.4778L12.5025 4.39306L12.5271 3.99995H11.981H11.4349L11.4596 4.39306Z" fill="white"/>
<path d="M11.8373 8.05926C12.1031 8.10724 12.3114 8.1492 12.4778 8.19V9.42557C12.2015 9.4768 11.8777 9.46863 11.4883 9.40409L11.4596 9.39932V7.98458C11.5774 8.00971 11.7031 8.03451 11.8373 8.05926Z" fill="white"/>
<path d="M12.137 6.99995C11.8628 6.94568 11.6399 6.89677 11.4596 6.84873V5.73064C11.75 5.689 12.148 5.68541 12.4778 5.72522V7.07133C12.3708 7.0477 12.2574 7.02397 12.137 6.99995Z" fill="white"/>
<path d="M7.65075 6.54344C6.69644 7.01251 5.95644 7.75655 5.50759 8.70682C5.22454 9.30528 5.12344 9.73796 5.09918 10.4618C5.07492 11.1613 5.11536 11.5172 5.29328 12.055C5.81896 13.6725 7.2383 14.8937 8.89621 15.1606C9.39763 15.2414 10.3519 15.1929 10.8291 15.0595C12.1069 14.7077 13.1542 13.8383 13.7446 12.6373C13.8538 12.4149 13.9427 12.2167 13.9427 12.2006C13.9427 12.1804 13.6556 12.1682 13.3079 12.1682H12.669L12.4951 12.4513C11.561 13.9636 9.55534 14.4812 7.99851 13.6159C7.66289 13.4299 7.25852 13.0861 7.01185 12.7829C6.49021 12.1318 6.25972 11.4768 6.25972 10.6316C6.25972 9.46299 6.8501 8.40354 7.83676 7.79294L8.11982 7.61906V6.98016C8.11982 6.6324 8.10769 6.3453 8.08747 6.3453C8.0713 6.3453 7.87316 6.43426 7.65075 6.54344Z" fill="white"/>
</svg>
