<svg width="20" height="20" viewBox="0 0 20 20" fill="none" xmlns="http://www.w3.org/2000/svg">
<path d="M11.1454 10.7785C11.539 10.5851 11.8704 10.2851 12.1021 9.91275C12.3338 9.54037 12.4564 9.11047 12.4559 8.6719C12.4559 7.3778 11.4097 6.329 10.1201 6.329C8.83047 6.329 7.78368 7.3777 7.78368 8.6718C7.78317 9.11051 7.90584 9.54056 8.13771 9.91298C8.36959 10.2854 8.70136 10.5853 9.09527 10.7784V13.672H11.1453V10.7785H11.1454ZM10.1202 17.5C5.99749 17.5 2.64392 14.1358 2.64392 10C2.64392 5.8642 5.99799 2.5006 10.1202 2.5006C13.4843 2.5006 16.3359 4.7406 17.2715 7.8122H19.8482C18.854 3.3417 14.876 0 10.1202 0C4.6148 0 0.151733 4.4771 0.151733 10C0.151733 15.5229 4.6148 20 10.1202 20C14.876 20 18.854 16.6583 19.8483 12.1877H17.2716C16.3353 15.26 13.4843 17.5 10.1202 17.5Z" fill="#3AB03E"/>
</svg>
