<svg width="20" height="20" viewBox="0 0 20 20" fill="none" xmlns="http://www.w3.org/2000/svg">
<g clip-path="url(#clip0_5120_31951)">
<path d="M10 20C15.5228 20 20 15.5228 20 10C20 4.47715 15.5228 0 10 0C4.47715 0 0 4.47715 0 10C0 15.5228 4.47715 20 10 20Z" fill="#1F2EE3"/>
<path d="M5.59323 6.14917L3.32031 7.54021V9.91517L5.59323 8.79553V6.14917Z" fill="#F3F3F3"/>
<path d="M5.59323 8.79553L3.32031 9.91517L4.57551 12.0526L6.67879 10.8312L5.59323 8.79553Z" fill="#F3F3F3"/>
<path d="M6.67848 10.8313L4.5752 12.0527L6.67848 13.4098L8.71392 12.0527L6.67848 10.8313Z" fill="#F3F3F3"/>
<path d="M8.71415 12.0526L6.67871 13.4097H9.12123L11.1906 12.0526H8.71415Z" fill="#F3F3F3"/>
<path d="M5.59323 6.1492L6.67879 4.1814L4.43979 5.43672L3.32031 7.54024L5.59323 6.1492Z" fill="#F3F3F3"/>
<path d="M9.12123 15.7507H6.67871L8.71415 17.04H11.1906L9.12123 15.7507Z" fill="#F3F3F3"/>
<path d="M11.1905 14.5294L9.12109 15.7508L11.1905 17.0401L13.3616 15.7508L11.1905 14.5294Z" fill="#7396FF"/>
<path d="M11.1904 14.5293L13.3616 15.7507L14.5829 13.715L12.4795 12.4258L11.1904 14.5293Z" fill="#7396FF"/>
<path d="M12.4795 10.0509V12.4259L14.5828 13.7151V11.2723L12.4795 10.0509Z" fill="#7396FF"/>
<path d="M12.4796 10.0509L14.5829 11.2723L13.4295 9.16878L11.3262 8.01526L12.4796 10.0509Z" fill="#7396FF"/>
<path d="M16.7198 7.54029L15.5664 5.53857V8.01529L16.7198 9.98309V7.54029Z" fill="#F3F3F3"/>
<path d="M15.5669 8.01524V5.53852L13.4297 4.1814V6.65812L15.5669 8.01524Z" fill="#F3F3F3"/>
<path d="M10.9189 6.65812H13.4293V4.1814H10.9189V6.65812Z" fill="#F3F3F3"/>
<path d="M10.9187 4.1814L8.81543 5.301V7.91344L10.9187 6.65812V4.1814Z" fill="#F3F3F3"/>
<path d="M8.81571 5.30103L7.56055 7.40455V9.91523L8.81571 7.91347V5.30103Z" fill="#F3F3F3"/>
<path d="M5.59323 6.14916L6.67879 4.18136M5.59323 6.14916L7.56083 7.40448M5.59323 6.14916L3.32031 7.5402M5.59323 6.14916V8.79552M6.67879 4.18136L8.81599 5.30096M6.67879 4.18136L4.43979 5.43668L3.32031 7.5402M6.67879 4.18136L8.81599 2.95996M7.56083 7.40448L8.81599 5.30096M7.56083 7.40448V9.91516M3.32031 7.5402V9.91516M5.59323 8.79552L7.56083 9.91516M5.59323 8.79552L3.32031 9.91516M5.59323 8.79552L6.67879 10.8312M8.81599 5.30096L10.9193 4.18136M8.81599 5.30096V7.9134M8.81599 2.95996L10.9193 4.18136M8.81599 2.95996H11.3264L13.4297 4.18136M10.9193 4.18136V6.65808M10.9193 4.18136H13.4297M8.81599 7.9134L7.56083 9.91516M8.81599 7.9134L11.3264 8.0152M8.81599 7.9134L10.9193 6.65808M7.56083 9.91516L8.71423 12.0526M3.32031 9.91516L4.57551 12.0526M3.32031 9.91516V12.4936L4.57551 14.5293M13.4297 4.18136L15.5669 5.53848M13.4297 4.18136V6.65808M10.9193 6.65808H13.4297M11.3264 8.0152L12.4798 10.0508M11.3264 8.0152L13.4297 9.16872M11.3264 8.0152L13.4297 6.65808M8.71423 12.0526L6.67879 10.8312M8.71423 12.0526L6.67879 13.4097M8.71423 12.0526H11.1907M6.67879 10.8312L4.57551 12.0526M4.57551 12.0526V14.5293M4.57551 12.0526L6.67879 13.4097M4.57551 14.5293L6.67879 15.7507M6.67879 13.4097V15.7507M6.67879 13.4097H9.12131M11.1907 12.0526L9.12131 13.4097M11.1907 12.0526V14.5293M11.1907 12.0526L12.4798 10.0508M6.67879 15.7507H9.12131M6.67879 15.7507L8.71423 17.04H11.1907M9.12131 13.4097V15.7507M9.12131 15.7507L11.1907 14.5293M9.12131 15.7507L11.1907 17.04M11.1907 17.04L13.3618 15.7507M11.1907 14.5293L13.3618 15.7507M11.1907 14.5293L12.4798 12.4258M12.4798 10.0508V12.4258M12.4798 10.0508L14.5831 11.2722M13.3618 15.7507L14.5831 13.715M13.3618 15.7507L15.499 14.5293L16.7203 12.4258M12.4798 12.4258L14.5831 13.715M14.5831 13.715V11.2722M14.5831 13.715L16.7203 12.4258M16.7203 12.4258V9.983M14.5831 11.2722L16.7203 9.983M14.5831 11.2722L13.4297 9.16872M16.7203 9.983V7.5402L15.5669 5.53848M16.7203 9.983L15.5669 8.0152M13.4297 9.16872L15.5669 8.0152M15.5669 5.53848V8.0152M15.5669 8.0152L13.4297 6.65808" stroke="black" stroke-width="0.12"/>
<path d="M4.57551 12.0526L3.32031 9.91516V12.4936L4.57551 14.5293V12.0526Z" fill="white"/>
<path d="M4.5752 12.0526V14.5293L6.67848 15.7507V13.4097L4.5752 12.0526Z" fill="white"/>
<path d="M6.67871 13.4097V15.7507H9.12123V13.4097H6.67871Z" fill="white"/>
<path d="M11.1905 12.0526L9.12109 13.4097V15.7507L11.1905 14.5293V12.0526Z" fill="white"/>
<path d="M11.1904 12.0527V14.5294L12.4795 12.4259V10.0509L11.1904 12.0527Z" fill="white"/>
<path d="M14.5826 13.715L13.3613 15.7507L15.4985 14.5293L16.7198 12.4258L14.5826 13.715Z" fill="white"/>
<path d="M14.583 11.2723V13.7151L16.7202 12.4258V9.98303L14.583 11.2723Z" fill="white"/>
<path d="M16.7203 9.98306L15.5669 8.01526L13.4297 9.16878L14.5831 11.2723L16.7203 9.98306Z" fill="white"/>
<path d="M13.4295 9.16872L15.5667 8.0152L13.4295 6.65808L11.3262 8.0152L13.4295 9.16872Z" fill="white"/>
<path d="M11.3258 8.0152L13.4291 6.65808H10.9187L8.81543 7.9134L11.3258 8.0152Z" fill="white"/>
<path d="M8.81543 2.95996L10.9187 4.18136H13.4291L11.3258 2.95996H8.81543Z" fill="white"/>
<path d="M6.67871 4.18136L8.81591 5.30096L10.9192 4.18136L8.81591 2.95996L6.67871 4.18136Z" fill="#7396FF"/>
<path d="M6.67833 4.1814L5.59277 6.1492L7.56037 7.40452L8.81553 5.301L6.67833 4.1814Z" fill="#7396FF"/>
<path d="M7.56037 7.40449L5.59277 6.14917V8.79553L7.56037 9.91517V7.40449Z" fill="#7396FF"/>
<path d="M7.56037 9.91517L5.59277 8.79553L6.67833 10.8312L8.71377 12.0526L7.56037 9.91517Z" fill="#7396FF"/>
<path fill-rule="evenodd" clip-rule="evenodd" d="M8.79951 2.90002H11.342L13.4603 4.13014L15.611 5.4958L16.7798 7.52421V12.442L15.5423 14.5735L13.3919 15.8024L13.3911 15.8029L11.2066 17.1H8.69628L6.64713 15.8021L4.5318 14.5737L3.25977 12.5107V7.52529L4.39455 5.39302L6.64847 4.12933L6.6489 4.12909L8.79951 2.90002ZM6.5241 4.33664L4.48394 5.48047L3.47608 7.37425L5.54782 6.10634L6.5241 4.33664ZM5.53269 6.25629L3.37977 7.57389V9.81878L5.53269 8.75826V6.25629ZM5.56708 8.87508L3.4042 9.94052L4.59647 11.9708L6.59807 10.8084L5.56708 8.87508ZM6.67775 10.9009L4.68981 12.0554L6.67771 13.338L8.60152 12.0553L6.67775 10.9009ZM8.74949 11.9927H11.1574L12.4092 10.0489L11.2901 8.07386L8.84779 7.97483L7.62969 9.91749L8.74949 11.9927ZM7.62029 9.70659V7.42109L8.75545 5.51867V7.89621L7.62029 9.70659ZM9.01929 7.86168L11.3093 7.95454L13.2255 6.71814H10.9353L9.01929 7.86168ZM10.9788 6.59814H13.3691V4.24142H10.9788V6.59814ZM10.7954 4.17914L8.81521 3.02927L6.80317 4.17914L8.81522 5.23317L10.7954 4.17914ZM8.73142 5.32474L6.70242 4.26182L5.67241 6.12892L7.54044 7.32071L8.73142 5.32474ZM7.50029 7.43744L5.65269 6.25868V8.76069L7.50029 9.81205V7.43744ZM5.74316 8.95024L6.72337 10.7884L8.55702 11.8887L7.51566 9.95886L5.74316 8.95024ZM8.87545 5.33706L10.8588 4.28133V6.62408L8.87545 7.80778V5.33706ZM9.03825 3.02002L10.9349 4.12142H13.2063L11.3097 3.02002H9.03825ZM13.4891 4.2906V6.62517L15.5064 7.90609V5.57152L13.4891 4.2906ZM15.6264 5.76285L16.6598 7.55631V9.76205L15.6264 7.99898V5.76285ZM15.4478 8.01106L13.4294 6.72938L11.443 8.01108L13.4294 9.10048L15.4478 8.01106ZM13.3849 9.21298L11.4822 8.16942L12.5234 10.0072L14.4263 11.1122L13.3849 9.21298ZM14.6426 11.3062V13.6088L16.6598 12.392V10.0893L14.6426 11.3062ZM16.638 9.96229L14.6051 11.1886L13.5108 9.1929L15.5439 8.09558L16.638 9.96229ZM16.5504 12.5981L14.6263 13.7588L13.5309 15.5848L15.4547 14.4853L16.5504 12.5981ZM13.3399 15.6699L14.5005 13.7352L12.499 12.5084L11.2738 14.5076L13.3399 15.6699ZM11.1908 14.5986L9.23646 15.7522L11.1909 16.9698L13.2414 15.7522L11.1908 14.5986ZM10.9804 16.98L9.1036 15.8108H6.8851L8.73109 16.98H10.9804ZM6.73825 15.6908H9.06077V13.4697H6.73825V15.6908ZM6.8764 13.3497L8.73185 12.1127H10.9892L9.10285 13.3497H6.8764ZM9.18077 13.4421V15.6457L11.1301 14.4951V12.1638L9.18077 13.4421ZM11.2501 12.0703V14.3167L12.4192 12.4089V10.2549L11.2501 12.0703ZM12.5392 10.1551V12.3923L14.5226 13.608V11.3068L12.5392 10.1551ZM6.61825 13.4424L4.63497 12.1628V14.4948L6.61825 15.6466V13.4424ZM4.51497 14.3178V12.069L3.37977 10.1359V12.4767L4.51497 14.3178Z" fill="#1F2EE3"/>
</g>
<defs>
<clipPath id="clip0_5120_31951">
<rect width="20" height="20" fill="white"/>
</clipPath>
</defs>
</svg>
