<svg width="20" height="20" viewBox="0 0 20 20" fill="none" xmlns="http://www.w3.org/2000/svg">
<g clip-path="url(#clip0_2950_4898)">
<path d="M12.5378 3.89978H11.2495V6.00284H12.5378V3.89978Z" fill="#1682FE"/>
<path d="M8.84049 0H7.55225V2.10306H8.84049V0Z" fill="#1682FE"/>
<path d="M5.14323 2.00562H3.85498V4.10868H5.14323V2.00562Z" fill="#60D8A4"/>
<path d="M3.30113 10H2V16.0028H3.30113V10Z" fill="#F4BB3B"/>
<path d="M3.30113 3.99719H2V9.99998H3.30113V3.99719Z" fill="#60D8A4"/>
<path d="M14.38 5.90527H13.0918V8.00834H14.38V5.90527Z" fill="#1682FE"/>
<path d="M14.38 11.9917H13.0918V14.0948H14.38V11.9917Z" fill="#FF5A5A"/>
<path d="M12.5378 13.9972H11.2495V16.1003H12.5378V13.9972Z" fill="#FF5A5A"/>
<path d="M8.84049 17.897H7.55225V20H8.84049V17.897Z" fill="#FF5A5A"/>
<path d="M5.14323 15.8914H3.85498V17.9944H5.14323V15.8914Z" fill="#F4BB3B"/>
<path d="M18.0002 7.99443V3.99721H16.1451V2.00557H12.4478V0H8.75058V2.00557H5.05331V4.01114H3.19824V16.0028H5.05331V18.0084H8.75058V20.0139H12.4478V18.0084H16.1451V16.0028H18.0002V11.9916H14.3029V13.9972H12.4478V16.0028H8.75058V13.9972H6.90839V6.00279H8.76346V3.99721H12.4607V6.00279H14.3158V8.00836H18.0002V7.99443Z" fill="#3A3A3A"/>
</g>
<defs>
<clipPath id="clip0_2950_4898">
<rect width="16" height="20" fill="white" transform="translate(2)"/>
</clipPath>
</defs>
</svg>
