<svg width="20" height="20" viewBox="0 0 20 20" fill="none" xmlns="http://www.w3.org/2000/svg">
<path d="M12.3122 9.99994H13.8249C13.8249 12.0886 12.1317 13.7817 10.0431 13.7817C7.9545 13.7817 6.26134 12.0886 6.26134 9.99994C6.26134 7.91132 7.9545 6.21816 10.0431 6.21816C10.0485 6.21816 10.0537 6.21854 10.059 6.21856V7.7313C10.0537 7.73126 10.0485 7.7309 10.0431 7.7309C8.78997 7.7309 7.77409 8.74678 7.77409 9.99993C7.77409 11.2531 8.78997 12.269 10.0431 12.269C11.2963 12.269 12.3122 11.2531 12.3122 9.99993V9.99994ZM10 3.20691C9.72604 3.20691 9.45645 3.225 9.19098 3.25653V4.72988C9.4548 4.68972 9.72496 4.66881 10 4.66881C12.9443 4.66881 15.3311 7.05564 15.3311 9.99994C15.3311 12.9442 12.9443 15.3311 10 15.3311C7.0557 15.3311 4.66887 12.9442 4.66887 9.99994C4.66887 9.72655 4.68963 9.45803 4.72932 9.19572H3.25598C3.22482 9.45965 3.20697 9.72763 3.20697 9.99994C3.20697 13.7516 6.24831 16.793 10 16.793C13.7517 16.793 16.793 13.7516 16.793 9.99994C16.793 6.24825 13.7517 3.20691 10 3.20691V3.20691ZM1.60613 10.6567C1.58938 10.4398 1.57819 10.2212 1.57819 10C1.57819 5.34876 5.34876 1.57819 10 1.57819L19.057 1.55569V0H10C4.47715 0 0 4.47715 0 10C0 10.2207 0.00794 10.4395 0.02202 10.6567H1.60613ZM18.3754 9.11575C18.4057 9.40642 18.4218 9.70131 18.4218 10C18.4218 14.5319 14.8419 18.2261 10.356 18.4128L0.96693 18.4346V19.993H10.356C15.7139 19.8055 20 15.4036 20 10C20 9.70195 19.9862 9.40716 19.9606 9.11574H18.3754V9.11575Z" fill="#00E0D6"/>
</svg>
