<svg width="20" height="20" viewBox="0 0 20 20" fill="none" xmlns="http://www.w3.org/2000/svg">
<g clip-path="url(#clip0_5554_44603)">
<path d="M10 0C15.5234 0 20 4.47754 20 10C20 15.5234 15.5234 20 10 20C4.47754 20 0 15.5229 0 10C0 4.47754 4.47754 0 10 0Z" fill="#F5AC37"/>
<path d="M10.3654 10.7015H14.1652C14.2462 10.7015 14.2845 10.7015 14.2903 10.5953C14.3214 10.2087 14.3214 9.81994 14.2903 9.43293C14.2903 9.35778 14.253 9.32673 14.1715 9.32673H6.60918C6.51558 9.32673 6.49038 9.35778 6.49038 9.44553V10.5579C6.49038 10.7015 6.49038 10.7015 6.64023 10.7015H10.3654V10.7015ZM13.8659 8.02667C13.8767 7.99832 13.8767 7.96727 13.8659 7.93937C13.8025 7.80122 13.7273 7.66937 13.64 7.54561C13.5086 7.33411 13.3538 7.13926 13.1774 6.96421C13.0942 6.85846 12.9979 6.76351 12.8899 6.68296C12.349 6.2226 11.7059 5.8968 11.0147 5.733C10.666 5.6547 10.3096 5.61735 9.95226 5.6205H6.59613C6.50253 5.6205 6.48992 5.65785 6.48992 5.7393V7.95782C6.48992 8.05142 6.48992 8.07662 6.60873 8.07662H13.8209C13.8209 8.07662 13.8835 8.06402 13.8961 8.02667H13.8655H13.8659ZM13.8659 12.0016C13.7597 11.9899 13.6526 11.9899 13.5464 12.0016H6.61548C6.52188 12.0016 6.49038 12.0016 6.49038 12.1267V14.2957C6.49038 14.3956 6.49038 14.4208 6.61548 14.4208H9.81546C9.96846 14.4325 10.1215 14.4217 10.2713 14.3897C10.7357 14.3564 11.1925 14.2556 11.6281 14.0896C11.7865 14.0347 11.9395 13.9631 12.0839 13.8772H12.1276C12.8777 13.487 13.487 12.8741 13.8713 12.1217C13.8713 12.1217 13.915 12.0272 13.8659 12.0025V12.0016ZM5.23441 15.5453V15.508V14.0518V13.5581V12.0893C5.23441 12.0079 5.23441 11.9957 5.13451 11.9957H3.7782C3.70305 11.9957 3.672 11.9957 3.672 11.8958V10.7082H5.12191C5.20291 10.7082 5.23441 10.7082 5.23441 10.602V9.42708C5.23441 9.35193 5.23441 9.33348 5.13451 9.33348H3.7782C3.70305 9.33348 3.672 9.33348 3.672 9.23358V8.13377C3.672 8.06492 3.672 8.04647 3.7719 8.04647H5.11561C5.20921 8.04647 5.23441 8.04647 5.23441 7.92767V4.55894C5.23441 4.45903 5.23441 4.43383 5.35951 4.43383H10.0468C10.387 4.44733 10.7249 4.48468 11.0593 4.54633C11.7482 4.67369 12.4102 4.91984 13.0154 5.27129C13.4168 5.50754 13.7863 5.79285 14.1153 6.12135C14.3628 6.3783 14.586 6.65641 14.784 6.95251C14.9806 7.25266 15.144 7.57352 15.2722 7.90877C15.288 7.99607 15.3717 8.05502 15.459 8.04017H16.5777C16.7212 8.04017 16.7212 8.04017 16.7275 8.17787V9.20298C16.7275 9.30288 16.6902 9.32808 16.5898 9.32808H15.7272C15.6399 9.32808 15.6147 9.32808 15.621 9.44058C15.6552 9.82129 15.6552 10.2033 15.621 10.584C15.621 10.6902 15.621 10.7028 15.7402 10.7028H16.7271C16.7707 10.7591 16.7271 10.8153 16.7271 10.872C16.7334 10.9445 16.7334 11.0178 16.7271 11.0903V11.8468C16.7271 11.953 16.696 11.9845 16.602 11.9845H15.4207C15.3384 11.9687 15.2583 12.0214 15.2394 12.1033C14.9581 12.8345 14.5081 13.4902 13.9267 14.0158C13.7143 14.207 13.4911 14.387 13.258 14.5531C13.0078 14.6971 12.7643 14.8469 12.5078 14.9657C12.0358 15.1781 11.5408 15.3347 11.0327 15.4342C10.5503 15.5206 10.0612 15.5597 9.57021 15.553H5.23261V15.5467L5.23441 15.5453Z" fill="#FEFEFD"/>
<path d="M16.0804 14.5817L16.8147 13.3357L18.7941 16.4187L18.7951 17.0101L18.7886 12.9388C18.7863 12.8897 18.7722 12.8419 18.7475 12.7994C18.7228 12.7568 18.6883 12.7209 18.6468 12.6945L15.0831 10.6448C15.0405 10.6246 14.994 10.6142 14.9468 10.6144C14.8997 10.6146 14.8532 10.6254 14.8108 10.6461C14.7998 10.6516 14.7892 10.6577 14.7789 10.6645L14.7665 10.6724L11.3073 12.6769L11.2938 12.6829C11.2759 12.6912 11.2588 12.7012 11.2427 12.7127C11.1779 12.759 11.1337 12.8289 11.1195 12.9073C11.1174 12.9192 11.1159 12.9312 11.1151 12.9433L11.1205 16.261L12.9642 13.4034C13.1964 13.0245 13.7021 12.9024 14.1716 12.909L14.7226 12.9233L11.4758 18.13L11.8586 18.3504L15.1443 12.9285L16.5965 12.9232L13.3193 18.4817L14.6852 19.2678L14.8484 19.3616C14.9188 19.3896 14.9969 19.3911 15.0684 19.366L18.6821 17.2717L17.9909 17.6721L16.0804 14.5817ZM16.3606 18.6171L14.9812 16.4522L15.8232 15.0235L17.6347 17.8787L16.3606 18.6171Z" fill="#2D374B"/>
<path d="M14.9812 16.4522L16.3606 18.617L17.6348 17.8786L15.8233 15.0235L14.9812 16.4522Z" fill="#28A0F0"/>
<path d="M18.7952 17.0102L18.7943 16.4187L16.8149 13.3357L16.0801 14.5816L17.9909 17.672L18.6822 17.2717C18.7156 17.2445 18.743 17.2107 18.7625 17.1722C18.782 17.1338 18.7932 17.0917 18.7953 17.0487L18.7952 17.0102Z" fill="#28A0F0"/>
<path d="M10.5004 17.5682L11.476 18.1304L14.7228 12.9236L14.1718 12.9094C13.7023 12.9027 13.1965 13.0247 12.9644 13.4037L11.1207 16.2614L10.5007 17.2144V17.5685L10.5004 17.5682Z" fill="white"/>
<path d="M16.5966 12.9235L15.1444 12.9288L11.8588 18.3507L13.0072 19.012L13.3194 18.4823L16.5966 12.9235Z" fill="white"/>
<path d="M19.407 12.9161C19.4003 12.7662 19.3573 12.6202 19.2817 12.4907C19.206 12.3611 19.1 12.2519 18.9727 12.1724L15.3624 10.0963C15.2335 10.0329 15.0918 10 14.9482 10C14.8046 10 14.6629 10.0329 14.5341 10.0963C14.5039 10.1114 11.0231 12.1303 11.0231 12.1303C10.9747 12.1535 10.9285 12.1809 10.8848 12.2121C10.7718 12.2924 10.6785 12.3974 10.6118 12.519C10.5452 12.6406 10.5069 12.7758 10.5 12.9143V17.2142L11.12 16.2612L11.1152 12.9436C11.1181 12.8981 11.1311 12.8538 11.1531 12.8139C11.1752 12.7741 11.2058 12.7396 11.2428 12.713C11.2592 12.7012 14.7995 10.652 14.8108 10.6463C14.8532 10.6257 14.8996 10.6149 14.9468 10.6147C14.9939 10.6144 15.0405 10.6248 15.0831 10.6451L18.6467 12.6949C18.6882 12.7213 18.7228 12.7573 18.7475 12.7998C18.7721 12.8423 18.7862 12.8901 18.7885 12.9392V17.0491C18.7877 17.0917 18.7777 17.1337 18.7594 17.1721C18.741 17.2106 18.7146 17.2447 18.682 17.2721L17.9907 17.6725L17.6344 17.8791L16.3602 18.6175L15.068 19.3664C14.9966 19.3917 14.9184 19.3901 14.848 19.3621L13.3192 18.4828L13.007 19.0124L14.3809 19.8034C14.4264 19.8292 14.4669 19.8522 14.5001 19.8708C14.5515 19.8994 14.5866 19.919 14.5989 19.9249C14.7139 19.9753 14.8381 20.0009 14.9636 20C15.0787 20.0001 15.1928 19.9787 15.3 19.9367L19.0532 17.7632C19.1591 17.6808 19.2456 17.5762 19.3067 17.4568C19.3678 17.3374 19.402 17.206 19.4068 17.0719L19.407 12.9161Z" fill="#96BEDC"/>
</g>
<defs>
<clipPath id="clip0_5554_44603">
<rect width="20" height="20" fill="white"/>
</clipPath>
</defs>
</svg>
