<svg width="20" height="20" viewBox="0 0 20 20" fill="none" xmlns="http://www.w3.org/2000/svg">
<path fill-rule="evenodd" clip-rule="evenodd" d="M8.8629 0.0467529C5.93016 0.387818 3.24591 2.04129 1.64235 4.49458C-0.135769 7.21487 -0.493108 10.6301 0.683094 13.6629C1.9743 16.9924 5.05288 19.4184 8.61952 19.917C9.79421 20.0812 11.2956 19.9976 12.4627 19.7029C14.409 19.2115 16.2456 18.0785 17.5447 16.5677C20.1895 13.4923 20.7487 9.20344 18.9732 5.61268C17.427 2.48553 14.5201 0.442602 11.052 0.0457576C10.5152 -0.0156781 9.39533 -0.0151541 8.8629 0.0467529ZM15.2906 1.98205C14.3404 1.34256 13.0796 0.820957 11.8618 0.563535C11.1482 0.412643 9.28127 0.371529 8.54538 0.490472C5.09906 1.04758 2.25102 3.35668 1.01911 6.59251C0.612766 7.6598 0.466831 8.45228 0.435951 9.75898C0.413536 10.708 0.423516 10.878 0.542176 11.5672C0.614229 11.9856 0.747414 12.5603 0.838173 12.8443C1.89237 16.1431 4.43904 18.5155 7.83859 19.3657C8.7085 19.5832 10.3639 19.6456 11.39 19.4994C14.6671 19.0326 17.5103 16.8251 18.8188 13.7319C20.6199 9.47438 19.1501 4.57958 15.2906 1.98205Z" fill="black"/>
<path fill-rule="evenodd" clip-rule="evenodd" d="M15.2909 1.98204C14.3408 1.34254 13.08 0.820939 11.8622 0.563517C11.1486 0.412625 9.28165 0.371511 8.54576 0.490454C5.09945 1.04756 2.2514 3.35667 1.0195 6.59249C0.613148 7.65978 0.467213 8.45226 0.436334 9.75896C0.413918 10.7079 0.423898 10.878 0.542558 11.5672C0.614611 11.9856 0.747797 12.5603 0.838555 12.8443C1.89275 16.143 4.43942 18.5155 7.83897 19.3657C8.70888 19.5832 10.3643 19.6455 11.3904 19.4994C14.6674 19.0325 17.5107 16.8251 18.8192 13.7319C20.6203 9.47436 19.1504 4.57956 15.2909 1.98204ZM5.27349 1.87608C4.37578 2.3517 3.79016 4.71385 4.02142 6.92638C4.05967 7.29216 4.05058 7.38298 3.9442 7.69649C3.71957 8.35841 3.64094 8.87184 3.64433 9.65421C3.64956 10.8507 3.87601 11.6733 4.51085 12.8017C5.04505 13.7512 5.29497 14.1019 5.80002 14.6103C7.84927 16.6738 11.005 16.973 13.4367 15.3344C13.8569 15.0513 14.7057 14.2037 14.9817 13.7918C15.2683 13.364 15.5879 12.7153 15.7299 12.273C15.7947 12.0713 15.8934 11.815 15.9493 11.7034C16.0052 11.5919 16.1069 11.3239 16.1753 11.1079C16.5258 10.0009 16.4609 8.85372 15.9887 7.80983C15.9032 7.62081 15.8332 7.43101 15.8332 7.38801C15.8332 7.36295 15.8261 7.34648 15.8071 7.33752L15.8437 7.29907C15.8614 7.31683 15.9865 7.31479 16.1217 7.29447L16.3675 7.25749L16.3443 6.97629C16.3226 6.7141 16.3288 6.69504 16.4364 6.69504C16.4998 6.69504 16.6256 6.68021 16.7158 6.66214L16.8801 6.6292L16.8459 6.36099C16.8272 6.21345 16.8062 6.08581 16.7993 6.07738C16.7923 6.06895 16.4135 6.11017 15.9573 6.16893C15.5011 6.22775 15.0798 6.27588 15.0211 6.27593C14.8805 6.27609 14.3163 5.79749 14.2024 5.58149C14.0371 5.26803 13.956 4.78917 13.9068 3.83532C13.8498 2.7321 13.785 2.52961 13.4311 2.34861C12.8913 2.07259 12.3858 2.30215 11.3837 3.27842L10.9313 3.7192L10.3425 3.65683C9.97558 3.61796 9.52012 3.60854 9.13347 3.63184L8.51316 3.66919L8.1797 3.50462C7.92937 3.38107 7.69184 3.18624 7.22644 2.72256C6.32764 1.82716 5.79866 1.59787 5.27349 1.87608Z" fill="url(#paint0_linear_4289_56400)"/>
<path d="M5.27349 1.87608C4.37578 2.3517 3.79016 4.71385 4.02142 6.92638C4.05967 7.29216 4.05058 7.38298 3.9442 7.69649C3.71957 8.35841 3.64094 8.87184 3.64433 9.65421C3.64956 10.8507 3.87601 11.6733 4.51085 12.8017C5.04505 13.7512 5.29497 14.1019 5.80002 14.6103C7.84927 16.6738 11.005 16.973 13.4367 15.3344C13.8569 15.0513 14.7057 14.2037 14.9817 13.7918C15.2683 13.364 15.5879 12.7153 15.7299 12.273C15.7947 12.0713 15.8934 11.815 15.9493 11.7034C16.0052 11.5919 16.1069 11.3239 16.1753 11.1079C16.5258 10.0009 16.4609 8.85372 15.9887 7.80983C15.9032 7.62081 15.8332 7.43101 15.8332 7.38801C15.8332 7.36295 15.8261 7.34648 15.8071 7.33752L15.8437 7.29907C15.8614 7.31683 15.9865 7.31479 16.1217 7.29447L16.3675 7.25749L16.3443 6.97629C16.3226 6.7141 16.3288 6.69504 16.4364 6.69504C16.4998 6.69504 16.6256 6.68021 16.7158 6.66214L16.8801 6.6292L16.8459 6.36099C16.8272 6.21345 16.8062 6.08581 16.7993 6.07738C16.7923 6.06895 16.4135 6.11017 15.9573 6.16893C15.5011 6.22775 15.0798 6.27588 15.0211 6.27593C14.8805 6.27609 14.3163 5.79749 14.2024 5.58149C14.0371 5.26803 13.956 4.78917 13.9068 3.83532C13.8498 2.7321 13.785 2.52961 13.4311 2.34861C12.8913 2.07259 12.3858 2.30215 11.3837 3.27842L10.9313 3.7192L10.3425 3.65683C9.97558 3.61796 9.52012 3.60854 9.13347 3.63184L8.51316 3.66919L8.1797 3.50462C7.92937 3.38107 7.69184 3.18624 7.22644 2.72256C6.32764 1.82716 5.79866 1.59787 5.27349 1.87608Z" fill="url(#paint1_linear_4289_56400)"/>
<path fill-rule="evenodd" clip-rule="evenodd" d="M4.02075 8.19042C3.78949 5.9779 4.37511 3.61574 5.27282 3.14012C5.79798 2.86191 6.32696 3.09121 7.22577 3.9866C7.69116 4.45028 7.92869 4.64511 8.17902 4.76867L8.51248 4.93323L9.13279 4.89588C9.51945 4.87258 9.97491 4.882 10.3419 4.92087L10.9307 4.98325L11.3831 4.54246C12.3851 3.56619 12.8906 3.33663 13.4304 3.61265C13.7844 3.79366 13.8492 3.99614 13.9061 5.09936C13.9554 6.05321 14.0365 6.53207 14.2017 6.84554C14.3156 7.06153 14.8798 7.54013 15.0204 7.53997C15.0792 7.53992 15.5004 7.49179 15.9566 7.43297C16.4128 7.37421 16.7917 7.33299 16.7986 7.34142C16.8055 7.34985 16.8265 7.47749 16.8453 7.62503L16.8794 7.89324L16.7152 7.92619C16.6249 7.94426 16.4991 7.95908 16.4357 7.95908C16.3282 7.95908 16.3219 7.97814 16.3436 8.24033L16.3669 8.52153L16.121 8.55851C15.9859 8.57883 15.8607 8.58087 15.843 8.56312C15.8253 8.54536 15.798 8.42024 15.7825 8.28511L15.7542 8.03947L15.5192 8.0566C15.3899 8.06603 15.2642 8.08609 15.2398 8.10117C15.2155 8.11625 15.2115 8.23514 15.231 8.3654C15.2498 8.49125 15.2508 8.56981 15.2179 8.61819C15.1784 8.67632 15.0899 8.69088 14.9246 8.69154L14.722 8.69232L14.7472 8.95535C14.7611 9.10001 14.7855 9.23142 14.8014 9.24734C14.8172 9.26326 14.9411 9.25965 15.0766 9.23927L15.3228 9.20225L15.2898 8.9211C15.2711 8.76091 15.2677 8.69008 15.2898 8.66003C15.3017 8.64397 15.3208 8.63956 15.3488 8.63937C15.3994 8.63906 15.5289 8.62418 15.6366 8.60633C15.7272 8.59133 15.7791 8.58865 15.8064 8.60157C15.8254 8.61052 15.8326 8.62699 15.8326 8.65205C15.8326 8.69505 15.9025 8.88485 15.988 9.07388C16.4602 10.1178 16.5251 11.265 16.1746 12.3719C16.1063 12.5879 16.0045 12.8559 15.9486 12.9675C15.8927 13.0791 15.794 13.3354 15.7293 13.537C15.5872 13.9794 15.2676 14.6281 14.981 15.0559C14.705 15.4678 13.8562 16.3153 13.4361 16.5985C11.0043 18.237 7.84859 17.9378 5.79934 15.8744C5.29429 15.3659 5.04438 15.0153 4.51018 14.0658C3.87534 12.9374 3.64888 12.1148 3.64366 10.9183C3.64026 10.1359 3.7189 9.62245 3.94352 8.96054C4.0499 8.64702 4.059 8.5562 4.02075 8.19042ZM6.94257 4.29546C6.60211 3.95576 6.2315 3.63706 6.10088 3.57169C5.60957 3.32574 5.32287 3.45552 5.00268 4.06883C4.52428 4.98524 4.29621 6.58764 4.43723 8.04136L4.49858 8.67352L4.34292 9.14123C4.10644 9.85159 4.05889 10.2266 4.09186 11.1227C4.11413 11.728 4.16237 12.1461 4.29745 12.5754C4.41124 12.9369 4.58664 13.3064 4.86004 13.8021C4.89863 13.8721 4.93918 13.9446 4.98178 14.0199C5.43375 14.8193 5.52315 14.9517 5.87584 15.3439C6.6738 16.2313 7.71635 16.8385 8.90765 17.1098C9.36792 17.2146 10.6107 17.2281 11.0517 17.133C12.2291 16.879 13.1799 16.3735 13.9705 15.581C14.5769 14.9732 15.0222 14.2597 15.3307 13.4017C15.3488 13.3512 15.3688 13.2962 15.39 13.2388C15.4821 12.9882 15.5951 12.6915 15.6658 12.5157C16.0583 11.539 16.0874 10.578 15.7537 9.61396C15.6102 9.19968 15.5714 9.14683 15.4459 9.19512C15.3734 9.22299 15.3581 9.28358 15.3695 9.49774C15.3802 9.70017 15.3651 9.76789 15.3077 9.77528C15.2659 9.78067 14.9378 9.82294 14.5786 9.86913C14.2193 9.91533 13.8392 9.96582 13.7337 9.98132L13.542 10.0094L13.5068 9.72673L13.4715 9.44396L13.1948 9.46695L12.918 9.48994L12.8809 9.21901L12.8436 8.94802L12.5616 8.98332L12.2796 9.01862L12.2788 8.86857C12.2785 8.78602 12.2633 8.6631 12.2452 8.59538C12.2137 8.47717 12.1985 8.47361 11.8671 8.50655C11.8397 8.50928 11.8134 8.51188 11.7881 8.51438C11.3928 8.55345 11.2515 8.56741 11.2049 8.64136C11.1789 8.68253 11.1823 8.74227 11.1876 8.83527C11.1882 8.84597 11.1888 8.85712 11.1895 8.86872L11.2036 9.13688L10.9462 9.17381C10.8008 9.19467 10.7174 9.19788 10.6698 9.15932C10.6187 9.11791 10.6089 9.02835 10.6083 8.86076L10.6076 8.63634L10.3332 8.67143C10.1824 8.6907 10.0519 8.71233 10.0433 8.71951C10.0346 8.72663 10.0435 8.85291 10.063 9.00013L10.0984 9.26777L10.3713 9.23566L10.6442 9.2035L10.6781 9.37346C10.7511 9.73924 10.7307 9.79214 10.5161 9.79298C10.2255 9.79419 10.1802 9.84316 10.1992 10.136L10.2157 10.3908L9.32743 10.5008C8.83889 10.5614 8.42376 10.6034 8.4049 10.5943C8.38604 10.5852 8.35443 10.4599 8.33467 10.316L8.29878 10.0543L8.02206 10.0869L7.7454 10.1195L7.70767 9.84457L7.66995 9.56966L7.38837 9.60281L7.1068 9.63596L7.10607 9.46532C7.1057 9.37142 7.09232 9.24598 7.07639 9.18648L7.04744 9.07833L6.2803 9.1704C6.19415 9.18074 6.11548 9.19036 6.04363 9.19914C5.52238 9.26287 5.36009 9.28272 5.30414 9.21468C5.27885 9.18393 5.2753 9.13521 5.27013 9.06446C5.26856 9.04288 5.26684 9.01926 5.2643 8.99348C5.24941 8.84227 5.24053 8.715 5.2446 8.71066C5.2561 8.69835 10.9463 8.01748 13.5559 7.71616L14.3359 7.62608L14.1257 7.43905C13.7216 7.07929 13.5498 6.46006 13.4885 5.14184C13.4519 4.35637 13.4324 4.21747 13.3411 4.09434C13.2048 3.9105 12.9361 3.88227 12.6612 4.02285C12.4138 4.14939 11.651 4.81266 11.3302 5.18023L11.0921 5.45305L10.7965 5.39826C10.3043 5.30708 9.45622 5.27487 9.02218 5.33086C8.6651 5.37695 8.57497 5.37082 8.32099 5.28325C7.83893 5.11701 7.58013 4.93155 6.94257 4.29546ZM5.43286 6.28696C5.37528 5.70916 5.42487 4.87603 5.54306 4.43598C5.57352 4.32264 5.60576 4.23816 5.6148 4.24827C5.62378 4.25838 5.70012 4.43247 5.78445 4.63516C5.98264 5.11156 6.3325 5.65071 6.70546 6.05442C7.02513 6.40035 7.04713 6.44021 6.91849 6.44021C6.77757 6.44021 6.1281 6.80741 5.87667 7.02927C5.7461 7.14449 5.63198 7.22992 5.62315 7.21918C5.55716 7.1391 5.4803 6.76237 5.43286 6.28696ZM10.1366 9.66906C10.1362 9.57835 10.1217 9.45113 10.1044 9.38629C10.0725 9.26693 10.0256 9.25745 9.70624 9.30595C9.57572 9.3258 9.56261 9.34779 9.56334 9.54687C9.56443 9.84546 9.60085 9.87992 9.88912 9.85525C10.1284 9.83478 10.1373 9.82807 10.1366 9.66906ZM12.1353 11.0205C12.2136 10.7864 12.3786 10.6531 12.7575 10.518C13.1729 10.3698 13.9429 10.4012 14.2571 10.579C14.666 10.8105 14.7323 11.1431 14.4731 11.663C14.3846 11.8407 14.1994 12.0882 14.0508 12.2275C13.7926 12.4696 13.7795 12.475 13.5091 12.4525C13.1355 12.4215 12.6877 12.1856 12.4057 11.8711C12.1254 11.5586 12.0426 11.2982 12.1353 11.0205ZM14.9704 11.5729C14.8774 11.4098 14.8711 11.2235 14.9574 11.1886C15.3205 11.0418 15.5675 11.6677 15.39 12.2851C15.3191 12.5316 15.2452 12.6488 15.0251 12.8635C14.8678 13.0171 14.6791 13.1482 14.5861 13.1687C14.4687 13.1946 14.3988 13.2554 14.3372 13.3857C14.2295 13.6132 13.9518 13.8456 13.7004 13.9188C13.5943 13.9497 13.1453 13.9761 12.7027 13.9775C12.0158 13.9797 11.8645 13.9652 11.6685 13.8783C11.304 13.7167 11.136 13.5721 10.97 13.2773C10.8561 13.075 10.7601 12.9774 10.6066 12.9081C10.3487 12.7915 10.276 12.7077 10.3178 12.5754C10.3715 12.4058 10.4928 12.4042 10.8183 12.569C11.0527 12.6876 11.1534 12.7753 11.2316 12.9289C11.4615 13.3806 11.8029 13.5839 12.3318 13.5841C12.7245 13.5842 13.1136 13.4409 13.3949 13.1927C13.6619 12.9571 13.9285 12.8299 14.1555 12.8299C14.2408 12.8299 14.3767 12.8048 14.4576 12.7741C14.9064 12.6036 15.1855 11.95 14.9704 11.5729ZM13.6903 14.5763C14.0643 14.3957 14.2513 14.237 14.4566 13.9261C14.5195 13.8308 14.5695 13.7682 14.6059 13.7375C14.6249 13.7215 14.6401 13.7141 14.6516 13.7154C14.6968 13.7201 14.6834 13.8571 14.6059 14.119C14.4975 14.4847 14.2238 14.7824 13.8067 14.9882C13.4919 15.1435 13.4129 15.1604 13.0085 15.1583C12.6297 15.1563 12.5146 15.1339 12.2711 15.0145C12.1329 14.9467 12.0238 14.8805 11.9483 14.8202C11.836 14.7305 11.7978 14.6536 11.8479 14.6034C11.8891 14.5621 11.975 14.5733 12.1576 14.6439C12.3376 14.7135 12.5454 14.7414 12.8804 14.7409C13.2994 14.7404 13.3877 14.7224 13.6903 14.5763Z" fill="black"/>
<path fill-rule="evenodd" clip-rule="evenodd" d="M6.10137 3.57171C6.232 3.63707 6.60261 3.95577 6.94307 4.29548C7.58062 4.93157 7.83942 5.11703 8.32148 5.28327C8.57547 5.37084 8.6656 5.37697 9.02267 5.33088C9.45672 5.27489 10.3048 5.3071 10.797 5.39828L11.0926 5.45307L11.3307 5.18025C11.6515 4.81268 12.4143 4.1494 12.6617 4.02287C12.9366 3.88229 13.2052 3.91052 13.3416 4.09436C13.4329 4.21749 13.4524 4.35639 13.489 5.14186C13.5503 6.46008 13.722 7.0793 14.1262 7.43907L14.3364 7.6261L13.5564 7.71618C10.9468 8.01749 5.25659 8.69837 5.2451 8.71067C5.24102 8.71502 5.2499 8.84229 5.26479 8.9935C5.27564 9.10384 5.27163 9.17457 5.30464 9.2147C5.36829 9.29211 5.56964 9.25575 6.2808 9.17042L7.04793 9.07835L7.07688 9.1865C7.09282 9.246 7.10619 9.37143 7.10656 9.46534L7.10729 9.63598L7.38887 9.60283L7.67044 9.56967L7.70817 9.84459L7.74589 10.1195L8.02256 10.0869L8.29927 10.0544L8.33517 10.316C8.35492 10.4599 8.38653 10.5852 8.40539 10.5943C8.42425 10.6034 8.83938 10.5614 9.32792 10.5008L10.2162 10.3908L10.1997 10.136C10.1807 9.84317 10.226 9.7942 10.5166 9.793C10.7312 9.79216 10.7516 9.73926 10.6786 9.37348L10.6447 9.20352L10.6703 9.15934C10.7178 9.1979 10.8013 9.19469 10.9467 9.17382L11.2041 9.1369L11.19 8.86874C11.184 8.75629 11.1764 8.68728 11.2054 8.64138C11.255 8.5627 11.4118 8.55192 11.8676 8.50657C12.199 8.47363 12.2142 8.47719 12.2457 8.5954C12.2638 8.66312 12.279 8.78604 12.2793 8.86858L12.2801 9.01864L12.5621 8.98334L12.8441 8.94804L12.8813 9.21902L12.9185 9.48996L13.1953 9.46697L13.472 9.44397L13.5073 9.72675L13.5425 10.0095L13.7342 9.98134C13.8397 9.96584 14.2198 9.91535 14.5791 9.86915C14.5791 10.1065 14.4223 10.2898 14.156 10.2636C14.0721 10.2553 13.968 10.2314 13.8466 10.2034C13.4853 10.1203 12.9713 10.002 12.3845 10.1588C11.8501 10.3017 11.3722 10.7426 11.2425 10.8622C11.2237 10.8795 11.2122 10.8901 11.2089 10.8921C11.2073 10.8931 11.2036 10.8956 11.198 10.8996C11.1139 10.9587 10.5884 11.3282 9.74592 11.3635C9.12732 11.3893 8.27257 10.6789 8.16343 10.5882C8.16229 10.5873 8.16124 10.5864 8.16027 10.5856C8.15602 10.5821 8.15333 10.5798 8.15229 10.579C7.94329 10.4207 6.42804 9.66908 5.33078 10.2636C4.45298 10.7392 4.27648 12.003 4.29795 12.5754C4.16286 12.1462 4.11463 11.728 4.09235 11.1227C4.05938 10.2267 4.10693 9.85161 4.34342 9.14125L4.49907 8.67354L4.43773 8.04138C4.2967 6.58766 4.52478 4.98525 5.00318 4.06885C5.32337 3.45554 5.61006 3.32576 6.10137 3.57171ZM5.54355 4.436C5.42536 4.87605 5.37577 5.70918 5.43335 6.28698C5.4808 6.76238 5.55766 7.13912 5.62365 7.2192C5.63248 7.22993 5.74659 7.14451 5.87717 7.02929C6.12859 6.80743 6.77806 6.44023 6.91898 6.44023C7.04762 6.44023 7.02562 6.40037 6.70596 6.05443C6.333 5.65073 5.98313 5.11158 5.78494 4.63518C5.70061 4.43249 5.62428 4.2584 5.61529 4.24829C5.60625 4.23818 5.57401 4.32266 5.54355 4.436ZM8.98829 7.56628C9.05796 7.35678 9.30702 6.93255 9.74592 6.9116C10.2945 6.88541 10.399 7.40916 10.399 7.46153C10.399 7.51391 10.3729 7.85434 9.61529 7.85434C9.00919 7.85434 8.94475 7.6623 8.98829 7.56628ZM12.4107 6.78066C12.5883 6.57116 13.4961 6.84608 13.0899 7.43299C12.9071 7.69722 11.9665 7.30441 12.4107 6.78066Z" fill="url(#paint2_linear_4289_56400)"/>
<path d="M8.98839 7.56627C9.05806 7.35677 9.30711 6.93254 9.74602 6.91159C10.2946 6.8854 10.3991 7.40915 10.3991 7.46152C10.3991 7.5139 10.373 7.85433 9.61539 7.85433C9.00929 7.85433 8.94485 7.66229 8.98839 7.56627Z" fill="#FFE1A1"/>
<path d="M12.4108 6.78065C12.5884 6.57115 13.4962 6.84607 13.09 7.43298C12.9071 7.69721 11.9666 7.3044 12.4108 6.78065Z" fill="#FFE1A1"/>
<path d="M10.3715 9.23568L10.6444 9.20352L10.6699 9.15934C10.6188 9.11793 10.6091 9.02837 10.6085 8.86078L10.6077 8.63635L10.3334 8.67144C10.1826 8.69072 10.052 8.71235 10.0434 8.71952C10.0348 8.72665 10.0437 8.85292 10.0632 9.00015L10.0986 9.26778L10.3715 9.23568Z" fill="white"/>
<path d="M10.1046 9.38631C10.1218 9.45115 10.1364 9.57837 10.1367 9.66908C10.1375 9.82809 10.1285 9.83479 9.88928 9.85527C9.60102 9.87994 9.5646 9.84548 9.5635 9.54689C9.56277 9.34781 9.57589 9.32582 9.70641 9.30597C10.0258 9.25747 10.0726 9.26695 10.1046 9.38631Z" fill="white"/>
<path d="M15.323 9.20226L15.29 8.92111C15.2712 8.76093 15.2679 8.6901 15.29 8.66005L15.2181 8.61821C15.1786 8.67634 15.0901 8.6909 14.9248 8.69156L14.7222 8.69234L14.7474 8.95537C14.7612 9.10003 14.7856 9.23144 14.8015 9.24736C14.8174 9.26328 14.9412 9.25967 15.0767 9.23929L15.323 9.20226Z" fill="white"/>
<path d="M15.3489 8.63939C15.3995 8.63908 15.5291 8.6242 15.6368 8.60634C15.7273 8.59135 15.7793 8.58867 15.8066 8.60158L15.8432 8.56313C15.8254 8.54538 15.7982 8.42025 15.7826 8.28513L15.7544 8.03949L15.5193 8.05662C15.3901 8.06604 15.2644 8.0861 15.24 8.10119C15.2157 8.11627 15.2117 8.23516 15.2311 8.36542C15.25 8.49127 15.251 8.56983 15.2181 8.61821L15.29 8.66005C15.3018 8.64399 15.321 8.63957 15.3489 8.63939Z" fill="white"/>
<path fill-rule="evenodd" clip-rule="evenodd" d="M15.3078 9.77527C15.266 9.78067 14.9379 9.82293 14.5787 9.86913C14.5787 10.1064 14.4219 10.2897 14.1556 10.2636C14.0717 10.2553 13.9676 10.2313 13.8462 10.2034C13.4849 10.1203 12.9709 10.002 12.3842 10.1588C11.8498 10.3017 11.3718 10.7426 11.2421 10.8622C11.2233 10.8795 11.2118 10.8901 11.2085 10.8921C11.2069 10.893 11.2033 10.8956 11.1976 10.8996C11.1136 10.9587 10.588 11.3282 9.74554 11.3634C9.12694 11.3893 8.2722 10.6789 8.16305 10.5882L8.15989 10.5856C8.15564 10.582 8.15295 10.5798 8.15191 10.579C7.94291 10.4207 6.42766 9.66906 5.33041 10.2636C4.45261 10.7392 4.2761 12.0029 4.29757 12.5754C4.41135 12.9369 4.58675 13.3064 4.86016 13.8021C5.69616 14.5517 7.76004 16.0405 9.32754 15.9986C10.895 15.9567 11.7279 15.1955 11.9484 14.8202C11.8361 14.7304 11.7979 14.6536 11.848 14.6034C11.8892 14.5621 11.9752 14.5733 12.1577 14.6439C12.3377 14.7135 12.5455 14.7414 12.8806 14.7409C13.2995 14.7404 13.3878 14.7224 13.6904 14.5763C14.0644 14.3957 14.2514 14.237 14.4567 13.9261C14.5196 13.8308 14.5696 13.7682 14.606 13.7375C14.625 13.7215 14.6403 13.7141 14.6518 13.7154C14.9061 13.591 15.348 13.3524 15.3901 13.2388C15.4822 12.9882 15.5952 12.6915 15.6659 12.5157C16.0584 11.539 16.0875 10.578 15.7538 9.61396C15.6103 9.19967 15.5715 9.14683 15.446 9.19512C15.3736 9.22298 15.3583 9.28358 15.3696 9.49774C15.3803 9.70017 15.3653 9.76789 15.3078 9.77527ZM12.1355 11.0205C12.2137 10.7864 12.3787 10.6531 12.7577 10.518C13.173 10.3698 13.9431 10.4012 14.2572 10.579C14.6661 10.8105 14.7325 11.1431 14.4732 11.663C14.3847 11.8407 14.1995 12.0881 14.051 12.2275C13.7927 12.4696 13.7796 12.475 13.5092 12.4525C13.1356 12.4215 12.6879 12.1856 12.4058 11.8711C12.1255 11.5586 12.0427 11.2982 12.1355 11.0205ZM14.9706 11.5729C14.8776 11.4098 14.8712 11.2235 14.9575 11.1886C15.3206 11.0417 15.5676 11.6677 15.3901 12.2851C15.3192 12.5316 15.2453 12.6488 15.0253 12.8635C14.8679 13.0171 14.6793 13.1482 14.5862 13.1687C14.4688 13.1946 14.3989 13.2554 14.3373 13.3857C14.2296 13.6132 13.9519 13.8456 13.7006 13.9187C13.5944 13.9496 13.1455 13.9761 12.7028 13.9775C12.0159 13.9797 11.8646 13.9652 11.6686 13.8783C11.3042 13.7167 11.1361 13.5721 10.9701 13.2773C10.8562 13.075 10.7602 12.9774 10.6067 12.9081C10.3488 12.7915 10.2761 12.7077 10.3179 12.5754C10.3717 12.4058 10.4929 12.4042 10.8184 12.5689C11.0528 12.6876 11.1535 12.7752 11.2317 12.9289C11.4616 13.3806 11.803 13.5839 12.3319 13.5841C12.7246 13.5842 13.1137 13.4409 13.3951 13.1927C13.6621 12.9571 13.9286 12.8299 14.1556 12.8299C14.2409 12.8299 14.3768 12.8048 14.4577 12.774C14.9065 12.6036 15.1856 11.95 14.9706 11.5729Z" fill="white"/>
<path d="M13.9708 15.581C14.5772 14.9732 15.0225 14.2597 15.331 13.4017C15.3491 13.3512 15.3692 13.2962 15.3903 13.2388C15.3482 13.3524 14.9063 13.591 14.652 13.7154C14.6971 13.7201 14.6838 13.8571 14.6062 14.119C14.4978 14.4847 14.2241 14.7824 13.807 14.9882C13.4922 15.1436 13.4132 15.1604 13.0088 15.1583C12.63 15.1563 12.5149 15.1339 12.2715 15.0145C12.1332 14.9467 12.0241 14.8805 11.9486 14.8202C11.7281 15.1955 10.8952 15.9567 9.32774 15.9986C7.76024 16.0405 5.69635 14.5517 4.86035 13.8021C4.89895 13.8721 4.93949 13.9446 4.9821 14.02C5.43406 14.8194 5.52346 14.9518 5.87615 15.3439C6.67411 16.2313 7.71666 16.8385 8.90796 17.1098C9.36823 17.2147 10.6111 17.2281 11.052 17.133C12.2294 16.879 13.1802 16.3735 13.9708 15.581Z" fill="#F7EDE0"/>
<defs>
<linearGradient id="paint0_linear_4289_56400" x1="10.0046" y1="0.421326" x2="10.0046" y2="19.5787" gradientUnits="userSpaceOnUse">
<stop stop-color="#AC39F9"/>
<stop offset="1" stop-color="#7972F4"/>
</linearGradient>
<linearGradient id="paint1_linear_4289_56400" x1="10.0046" y1="0.421326" x2="10.0046" y2="19.5787" gradientUnits="userSpaceOnUse">
<stop stop-color="#AC39F9"/>
<stop offset="1" stop-color="#7972F4"/>
</linearGradient>
<linearGradient id="paint2_linear_4289_56400" x1="9.33103" y1="3.4545" x2="9.35415" y2="11.2849" gradientUnits="userSpaceOnUse">
<stop stop-color="#FCEC6E"/>
<stop offset="0.797556" stop-color="#FFA826"/>
</linearGradient>
</defs>
</svg>
