<svg width="20" height="20" viewBox="0 0 20 20" fill="none" xmlns="http://www.w3.org/2000/svg">
<path fill-rule="evenodd" clip-rule="evenodd" d="M9.5227 3.08507C8.17642 3.31133 6.77398 4.0394 5.76954 5.03332C5.49683 5.3032 5.04065 5.67923 4.75578 5.86901C3.95623 6.40163 3.63723 6.67439 3.26807 7.14126C2.84734 7.67338 2.50075 8.36492 2.17401 9.32443C1.97457 9.91009 1.94791 10.027 2.04359 9.8969C2.39988 9.41232 3.70206 8.30707 3.80058 8.40559C3.81535 8.42037 3.78864 8.627 3.74126 8.86482C3.60796 9.53341 3.62093 10.688 3.76983 11.4111C3.88569 11.9735 4.04581 12.5013 4.23178 12.9333L4.31847 13.1346L4.03256 13.0363C3.87533 12.9822 3.59247 12.8601 3.40405 12.7649L3.06144 12.592L2.62942 12.9262L2.19739 13.2604L2.34525 13.3844C2.4266 13.4526 2.61584 13.5879 2.76577 13.6851C2.98975 13.8304 3.01008 13.8554 2.87983 13.8253C2.5677 13.7533 0.794901 13.0773 0.377817 12.8713C-0.0297255 12.6699 -0.0436283 12.6669 0.0427326 12.7987C0.105322 12.8942 0.110284 12.9234 0.0590344 12.8941C0.0184164 12.8709 0.0601793 12.9353 0.151883 13.0373C0.243533 13.1393 0.424324 13.3637 0.553647 13.536C0.82298 13.8949 1.39632 14.4469 1.697 14.6367C2.03934 14.8528 2.97508 15.2621 3.45628 15.4063C4.13201 15.6088 5.35131 15.8473 6.08544 15.9206C6.71226 15.9832 6.74895 15.9942 7.203 16.2545C7.9561 16.6863 8.80989 16.9863 9.67661 17.1235C10.3462 17.2296 11.7941 17.1609 12.4463 16.9922C14.432 16.4786 16.0646 15.2236 17.0052 13.4877C17.1341 13.25 17.3111 13.0203 17.4603 12.8974C18.0526 12.4093 19.1085 11.2777 19.0343 11.2106C19.0226 11.1999 18.8823 11.1256 18.7226 11.0454L18.4323 10.8995L18.8118 10.5001C19.2497 10.039 19.5871 9.50032 19.7935 8.93221C19.9237 8.57412 19.9382 8.45957 19.9373 7.79785C19.9364 7.15467 19.9201 7.02055 19.8076 6.73469C19.1042 4.94608 16.9042 3.70426 14.0516 3.48553C13.5385 3.44622 13.1483 3.38368 12.8614 3.29481C12.6267 3.22214 12.2248 3.12607 11.9683 3.08131C11.3936 2.9811 10.1297 2.98301 9.5227 3.08507ZM13.467 8.58606C13.4752 6.90812 13.4686 5.48001 13.4522 5.41256C13.4234 5.2936 13.4022 5.28989 12.7511 5.28989C12.3819 5.28989 12.0634 5.30625 12.0434 5.32626C12.0234 5.34621 12.007 6.90414 12.007 8.78833V12.214L12.1297 12.214C12.2981 12.214 12.7323 12.0426 13.1247 11.8214L13.4518 11.6369L13.467 8.58606ZM11.1357 12.6469L11.1216 9.90889L11.1075 7.17086L10.4521 7.15565C9.98863 7.14491 9.77704 7.16007 9.72966 7.20744C9.62738 7.30972 9.633 12.9939 9.73544 13.0789C9.79002 13.1242 9.93406 13.0985 10.311 12.9763C10.5874 12.8868 10.8862 12.7759 10.9747 12.7301L11.1357 12.6469ZM8.73242 13.3883C8.77157 13.3642 8.79032 12.7083 8.79032 11.3657V9.37895H8.08155H7.37278V11.4315V13.484L8.02365 13.4541C8.38163 13.4376 8.70058 13.408 8.73242 13.3883Z" fill="#0052FF"/>
<path d="M8.7901 11.3658C8.7901 12.7083 8.77134 13.3642 8.7322 13.3883C8.70036 13.408 8.38141 13.4376 8.02343 13.4541L7.37256 13.4841V11.4315V9.37898H8.08133H8.7901V11.3658Z" fill="white"/>
<path d="M11.1214 9.90892L11.1355 12.6469L10.9745 12.7302C10.8859 12.7759 10.5872 12.8868 10.3107 12.9764C9.93384 13.0985 9.78979 13.1242 9.73522 13.0789C9.63277 12.9939 9.62716 7.30975 9.72944 7.20747C9.77682 7.16009 9.98841 7.14493 10.4518 7.15567L11.1072 7.17088L11.1214 9.90892Z" fill="white"/>
<path d="M13.452 5.41259C13.4684 5.48003 13.475 6.90815 13.4667 8.58608L13.4516 11.637L13.1245 11.8214C12.7321 12.0426 12.2979 12.214 12.1295 12.214L12.0068 12.2141V8.78835C12.0068 6.90417 12.0232 5.34624 12.0432 5.32628C12.0631 5.30627 12.3817 5.28992 12.7509 5.28992C13.402 5.28992 13.4232 5.29362 13.452 5.41259Z" fill="white"/>
<path fill-rule="evenodd" clip-rule="evenodd" d="M10.0227 3.02726C10.0227 3.04315 9.93184 3.05452 9.80461 3.05452C9.67739 3.05452 9.58653 3.06589 9.58653 3.08178C9.58653 3.09677 9.52519 3.10904 9.45023 3.10904C9.37526 3.10904 9.31393 3.12131 9.31393 3.1363C9.31393 3.1513 9.26486 3.16356 9.20488 3.16356C9.14491 3.16356 9.09584 3.17583 9.09584 3.19082C9.09584 3.20582 9.04677 3.21808 8.9868 3.21808C8.92683 3.21808 8.87776 3.23035 8.87776 3.24534C8.87776 3.26034 8.84096 3.2726 8.79598 3.2726C8.751 3.2726 8.7142 3.28487 8.7142 3.29986C8.7142 3.31486 8.67739 3.32712 8.63242 3.32712C8.58744 3.32712 8.55063 3.33939 8.55063 3.35439C8.55063 3.36938 8.51383 3.38165 8.46885 3.38165C8.42387 3.38165 8.38707 3.39391 8.38707 3.40891C8.38707 3.4239 8.35027 3.43617 8.30529 3.43617C8.26031 3.43617 8.22351 3.44843 8.22351 3.46343C8.22351 3.47842 8.18671 3.49069 8.14173 3.49069C8.09675 3.49069 8.05995 3.50295 8.05995 3.51795C8.05995 3.53294 8.03541 3.54521 8.00543 3.54521C7.97544 3.54521 7.95091 3.55748 7.95091 3.57247C7.95091 3.58746 7.92637 3.59973 7.89638 3.59973C7.8664 3.59973 7.84186 3.612 7.84186 3.62699C7.84186 3.64198 7.81733 3.65425 7.78734 3.65425C7.75736 3.65425 7.73282 3.66652 7.73282 3.68151C7.73282 3.6965 7.70829 3.70877 7.6783 3.70877C7.64831 3.70877 7.62378 3.72104 7.62378 3.73603C7.62378 3.75102 7.59925 3.76329 7.56926 3.76329C7.53927 3.76329 7.51474 3.77556 7.51474 3.79055C7.51474 3.80554 7.4902 3.81781 7.46022 3.81781C7.43023 3.81781 7.4057 3.83008 7.4057 3.84507C7.4057 3.86007 7.38116 3.87233 7.35118 3.87233C7.32119 3.87233 7.29666 3.8846 7.29666 3.89959C7.29666 3.91459 7.27482 3.92685 7.24816 3.92685C7.22147 3.92685 7.18197 3.95139 7.16035 3.98137C7.13874 4.01136 7.09924 4.0359 7.07255 4.0359C7.04589 4.0359 7.02405 4.04816 7.02405 4.06316C7.02405 4.07815 7.00222 4.09042 6.97556 4.09042C6.94887 4.09042 6.90937 4.11495 6.88775 4.14494C6.86613 4.17492 6.82933 4.19946 6.80597 4.19946C6.78261 4.19946 6.7458 4.22399 6.72419 4.25398C6.70257 4.28396 6.66825 4.3085 6.64789 4.3085C6.62752 4.3085 6.56373 4.35757 6.5061 4.41754C6.44848 4.47751 6.3873 4.52658 6.37016 4.52658C6.35304 4.52658 6.27927 4.58792 6.20624 4.66288C6.13321 4.73785 6.06026 4.79919 6.0441 4.79919C6.00609 4.79919 5.49747 5.30729 5.49747 5.34529C5.49747 5.38646 5.37054 5.50796 5.32753 5.50796C5.30768 5.50796 5.27374 5.53249 5.25213 5.56248C5.23051 5.59246 5.19371 5.617 5.17034 5.617C5.14698 5.617 5.11018 5.64153 5.08856 5.67152C5.06695 5.70151 5.03014 5.72604 5.00678 5.72604C4.98342 5.72604 4.94662 5.75057 4.925 5.78056C4.90338 5.81055 4.86658 5.83508 4.84322 5.83508C4.81986 5.83508 4.78306 5.85962 4.76144 5.8896C4.73982 5.91959 4.70302 5.94412 4.67966 5.94412C4.6563 5.94412 4.61949 5.96866 4.59788 5.99864C4.57626 6.02863 4.53946 6.05316 4.5161 6.05316C4.49273 6.05316 4.45593 6.0777 4.43431 6.10769C4.4127 6.13767 4.3781 6.16221 4.35744 6.16221C4.3368 6.16221 4.2855 6.19901 4.24349 6.24399C4.20148 6.28897 4.15241 6.32577 4.13445 6.32577C4.11649 6.32577 4.06742 6.36257 4.02541 6.40755C3.9834 6.45253 3.93534 6.48933 3.91863 6.48933C3.87954 6.48933 3.4802 6.88782 3.4802 6.92683C3.4802 6.94303 3.41886 7.01603 3.3439 7.08906C3.26893 7.16209 3.2076 7.2361 3.2076 7.25355C3.2076 7.271 3.17079 7.31966 3.12582 7.36166C3.08084 7.40367 3.04403 7.45498 3.04403 7.47561C3.04403 7.49627 3.0195 7.53087 2.98951 7.55249C2.95953 7.5741 2.93499 7.6136 2.93499 7.64029C2.93499 7.66695 2.92273 7.68879 2.90773 7.68879C2.89274 7.68879 2.88047 7.71332 2.88047 7.74331C2.88047 7.7733 2.8682 7.79783 2.85321 7.79783C2.83822 7.79783 2.82595 7.82236 2.82595 7.85235C2.82595 7.88234 2.81368 7.90687 2.79869 7.90687C2.7837 7.90687 2.77143 7.93141 2.77143 7.96139C2.77143 7.99138 2.75916 8.01591 2.74417 8.01591C2.72918 8.01591 2.71691 8.04045 2.71691 8.07043C2.71691 8.10042 2.70464 8.12495 2.68965 8.12495C2.67466 8.12495 2.66239 8.14949 2.66239 8.17948C2.66239 8.20946 2.65012 8.234 2.63513 8.234C2.62013 8.234 2.60787 8.25853 2.60787 8.28852C2.60787 8.3185 2.5956 8.34304 2.58061 8.34304C2.56561 8.34304 2.55335 8.36757 2.55335 8.39756C2.55335 8.42755 2.54108 8.45208 2.52609 8.45208C2.51109 8.45208 2.49883 8.48888 2.49883 8.53386C2.49883 8.57884 2.48656 8.61564 2.47157 8.61564C2.45657 8.61564 2.44431 8.64018 2.44431 8.67016C2.44431 8.70015 2.43204 8.72468 2.41704 8.72468C2.40205 8.72468 2.38978 8.76148 2.38978 8.80646C2.38978 8.85144 2.37752 8.88825 2.36252 8.88825C2.34753 8.88825 2.33526 8.91278 2.33526 8.94277C2.33526 8.97275 2.323 8.99729 2.308 8.99729C2.29301 8.99729 2.28074 9.03409 2.28074 9.07907C2.28074 9.12405 2.26848 9.16085 2.25348 9.16085C2.23849 9.16085 2.22622 9.19765 2.22622 9.24263C2.22622 9.28761 2.21395 9.32441 2.19896 9.32441C2.18397 9.32441 2.1717 9.36121 2.1717 9.40619C2.1717 9.45117 2.15943 9.48797 2.14444 9.48797C2.12945 9.48797 2.11718 9.51251 2.11718 9.5425C2.11718 9.57248 2.12945 9.59702 2.14444 9.59702C2.15943 9.59702 2.1717 9.57248 2.1717 9.5425C2.1717 9.51251 2.18397 9.48797 2.19896 9.48797C2.21395 9.48797 2.22622 9.46344 2.22622 9.43345C2.22622 9.40347 2.23849 9.37893 2.25348 9.37893C2.26848 9.37893 2.28074 9.3544 2.28074 9.32441C2.28074 9.29443 2.29301 9.26989 2.308 9.26989C2.323 9.26989 2.33526 9.24536 2.33526 9.21537C2.33526 9.18538 2.34753 9.16085 2.36252 9.16085C2.37752 9.16085 2.38978 9.13901 2.38978 9.11235C2.38978 9.08567 2.41432 9.04616 2.44431 9.02455C2.47429 9.00293 2.49883 8.96343 2.49883 8.93674C2.49883 8.91008 2.51109 8.88825 2.52609 8.88825C2.54108 8.88825 2.55335 8.86641 2.55335 8.83975C2.55335 8.81306 2.57788 8.77356 2.60787 8.75194C2.63785 8.73033 2.66239 8.69352 2.66239 8.67016C2.66239 8.6468 2.68692 8.61 2.71691 8.58838C2.7469 8.56676 2.77143 8.53217 2.77143 8.51151C2.77143 8.49087 2.80823 8.43957 2.85321 8.39756C2.89819 8.35555 2.93499 8.30648 2.93499 8.28852C2.93499 8.27055 2.97179 8.22148 3.01677 8.17948C3.06175 8.13747 3.09855 8.089 3.09855 8.07182C3.09855 8.05462 3.18442 7.95586 3.28938 7.85235C3.39433 7.74884 3.4802 7.65111 3.4802 7.63514C3.4802 7.61919 3.57201 7.51432 3.68422 7.40212C3.79642 7.28991 3.90129 7.1981 3.91724 7.1981C3.93321 7.1981 4.03094 7.11223 4.13445 7.00728C4.23796 6.90233 4.33713 6.81646 4.35482 6.81646C4.37254 6.81646 4.41003 6.78996 4.4381 6.75757C4.46621 6.72516 4.49829 6.70845 4.50944 6.72042C4.52059 6.73236 4.5144 6.74762 4.49565 6.7543C4.47692 6.76101 4.46157 6.78999 4.46157 6.81872C4.46157 6.84745 4.44931 6.87098 4.43431 6.87098C4.41932 6.87098 4.40705 6.89551 4.40705 6.9255C4.40705 6.95548 4.39479 6.98002 4.37979 6.98002C4.3648 6.98002 4.35253 7.00455 4.35253 7.03454C4.35253 7.06453 4.34027 7.08906 4.32527 7.08906C4.31028 7.08906 4.29801 7.11359 4.29801 7.14358C4.29801 7.17357 4.28574 7.1981 4.27075 7.1981C4.25576 7.1981 4.24349 7.2349 4.24349 7.27988C4.24349 7.32486 4.23122 7.36166 4.21623 7.36166C4.20124 7.36166 4.18897 7.3862 4.18897 7.41618C4.18897 7.44617 4.1767 7.47071 4.16171 7.47071C4.14672 7.47071 4.13445 7.50751 4.13445 7.55249C4.13445 7.59747 4.12218 7.63427 4.10719 7.63427C4.0922 7.63427 4.07993 7.6588 4.07993 7.68879C4.07993 7.71877 4.06766 7.74331 4.05267 7.74331C4.03767 7.74331 4.02541 7.76258 4.02541 7.78614C4.02541 7.83553 3.96162 7.90687 3.91746 7.90687C3.90091 7.90687 3.75321 8.04181 3.58924 8.20674C3.42527 8.37166 3.27231 8.5066 3.24936 8.5066C3.22638 8.5066 3.2076 8.52544 3.2076 8.54844C3.2076 8.57145 3.08492 8.71209 2.93499 8.86099C2.78506 9.00988 2.66239 9.14948 2.66239 9.17126C2.66239 9.19302 2.64707 9.2163 2.62831 9.223C2.60959 9.22968 2.60277 9.24435 2.61318 9.25558C2.62362 9.26681 2.70573 9.20103 2.79569 9.10938C2.88565 9.01773 2.9734 8.94277 2.99069 8.94277C3.008 8.94277 3.05655 8.90596 3.09855 8.86099C3.14056 8.81601 3.19187 8.7792 3.2125 8.7792C3.23317 8.7792 3.26776 8.75467 3.28938 8.72468C3.31099 8.6947 3.3478 8.67016 3.37116 8.67016C3.39452 8.67016 3.43132 8.64563 3.45294 8.61564C3.47456 8.58566 3.51136 8.56112 3.53472 8.56112C3.55808 8.56112 3.59488 8.53659 3.6165 8.5066C3.63812 8.47661 3.67492 8.45208 3.69828 8.45208C3.72165 8.45208 3.75845 8.42755 3.78006 8.39756C3.83897 8.31583 3.86185 8.33107 3.86185 8.45208C3.86185 8.51205 3.84958 8.56112 3.83459 8.56112C3.81959 8.56112 3.80732 8.62246 3.80732 8.69742C3.80732 8.77239 3.79506 8.83372 3.78006 8.83372C3.7645 8.83372 3.7528 8.91551 3.7528 9.02455C3.7528 9.13359 3.74111 9.21537 3.72554 9.21537C3.70878 9.21537 3.69828 9.35167 3.69828 9.56976C3.69828 9.78784 3.68779 9.92414 3.67102 9.92414C3.65587 9.92414 3.64376 9.99684 3.64376 10.0877C3.64376 10.1786 3.65587 10.2513 3.67102 10.2513C3.68779 10.2513 3.69828 10.3876 3.69828 10.6057C3.69828 10.8237 3.70878 10.96 3.72554 10.96C3.7407 10.96 3.7528 11.0327 3.7528 11.1236C3.7528 11.2145 3.76491 11.2872 3.78006 11.2872C3.79506 11.2872 3.80732 11.3485 3.80732 11.4235C3.80732 11.4984 3.81959 11.5598 3.83459 11.5598C3.84958 11.5598 3.86185 11.6088 3.86185 11.6688C3.86185 11.7288 3.87411 11.7778 3.88911 11.7778C3.9041 11.7778 3.91637 11.8269 3.91637 11.8869C3.91637 11.9469 3.92863 11.9959 3.94363 11.9959C3.95862 11.9959 3.97089 12.045 3.97089 12.105C3.97089 12.1649 3.98315 12.214 3.99815 12.214C4.01314 12.214 4.02541 12.2508 4.02541 12.2958C4.02541 12.3408 4.03767 12.3776 4.05267 12.3776C4.06766 12.3776 4.07993 12.4144 4.07993 12.4594C4.07993 12.5043 4.0922 12.5411 4.10719 12.5411C4.12218 12.5411 4.13445 12.5657 4.13445 12.5957C4.13445 12.6256 4.14672 12.6502 4.16171 12.6502C4.1767 12.6502 4.18897 12.687 4.18897 12.732C4.18897 12.7769 4.20124 12.8137 4.21623 12.8137C4.23122 12.8137 4.24349 12.8383 4.24349 12.8683C4.24349 12.8982 4.25576 12.9228 4.27075 12.9228C4.28574 12.9228 4.29801 12.9473 4.29801 12.9773C4.29801 13.0073 4.31028 13.0318 4.32527 13.0318C4.34027 13.0318 4.35253 13.0564 4.35253 13.0863C4.35253 13.1163 4.34027 13.1409 4.32527 13.1409C4.31028 13.1409 4.29801 13.1286 4.29801 13.1136C4.29801 13.0986 4.24894 13.0863 4.18897 13.0863C4.129 13.0863 4.07993 13.0741 4.07993 13.0591C4.07993 13.0441 4.05539 13.0318 4.02541 13.0318C3.99542 13.0318 3.97089 13.0196 3.97089 13.0046C3.97089 12.9896 3.93409 12.9773 3.88911 12.9773C3.84413 12.9773 3.80732 12.965 3.80732 12.95C3.80732 12.9351 3.78279 12.9228 3.7528 12.9228C3.72282 12.9228 3.69828 12.9105 3.69828 12.8955C3.69828 12.8805 3.67375 12.8683 3.64376 12.8683C3.61378 12.8683 3.58924 12.856 3.58924 12.841C3.58924 12.826 3.56471 12.8137 3.53472 12.8137C3.50473 12.8137 3.4802 12.8015 3.4802 12.7865C3.4802 12.7715 3.45567 12.7592 3.42568 12.7592C3.39569 12.7592 3.37116 12.747 3.37116 12.732C3.37116 12.717 3.34662 12.7047 3.31664 12.7047C3.28665 12.7047 3.26212 12.6924 3.26212 12.6774C3.26212 12.6624 3.23758 12.6502 3.2076 12.6502C3.17761 12.6502 3.15308 12.6379 3.15308 12.6229C3.15308 12.5681 3.06391 12.5978 2.98951 12.6774C2.9475 12.7224 2.89868 12.7592 2.88102 12.7592C2.86338 12.7592 2.8018 12.8083 2.74417 12.8683C2.68654 12.9282 2.62496 12.9773 2.60732 12.9773C2.58966 12.9773 2.54083 13.0141 2.49883 13.0591C2.45682 13.1041 2.40808 13.1409 2.39052 13.1409C2.35026 13.1409 2.28074 13.2091 2.28074 13.2487C2.28074 13.2909 2.5172 13.5225 2.56024 13.5225C2.57982 13.5225 2.61351 13.547 2.63513 13.577C2.65675 13.607 2.69355 13.6316 2.71691 13.6316C2.74027 13.6316 2.77707 13.6561 2.79869 13.6861C2.82031 13.7161 2.85981 13.7406 2.8865 13.7406C2.91316 13.7406 2.93499 13.7529 2.93499 13.7679C2.93499 13.7829 2.95953 13.7951 2.98951 13.7951C3.0195 13.7951 3.04403 13.8074 3.04403 13.8224C3.04403 13.8374 3.00723 13.8496 2.96225 13.8496C2.91727 13.8496 2.88047 13.8374 2.88047 13.8224C2.88047 13.8074 2.8314 13.7951 2.77143 13.7951C2.71146 13.7951 2.66239 13.7829 2.66239 13.7679C2.66239 13.7529 2.62559 13.7406 2.58061 13.7406C2.53563 13.7406 2.49883 13.7283 2.49883 13.7133C2.49883 13.6983 2.46202 13.6861 2.41704 13.6861C2.37207 13.6861 2.33526 13.6738 2.33526 13.6588C2.33526 13.6438 2.31073 13.6316 2.28074 13.6316C2.25076 13.6316 2.22622 13.6193 2.22622 13.6043C2.22622 13.5893 2.18942 13.577 2.14444 13.577C2.09946 13.577 2.06266 13.5648 2.06266 13.5498C2.06266 13.5348 2.03813 13.5225 2.00814 13.5225C1.97815 13.5225 1.95362 13.5102 1.95362 13.4953C1.95362 13.4803 1.91682 13.468 1.87184 13.468C1.82686 13.468 1.79006 13.4557 1.79006 13.4407C1.79006 13.4257 1.75325 13.4135 1.70827 13.4135C1.66329 13.4135 1.62649 13.4012 1.62649 13.3862C1.62649 13.3712 1.60196 13.359 1.57197 13.359C1.54199 13.359 1.51745 13.3467 1.51745 13.3317C1.51745 13.3167 1.48065 13.3044 1.43567 13.3044C1.39069 13.3044 1.35389 13.2922 1.35389 13.2772C1.35389 13.2622 1.31709 13.2499 1.27211 13.2499C1.22713 13.2499 1.19033 13.2376 1.19033 13.2226C1.19033 13.2077 1.16579 13.1954 1.13581 13.1954C1.10582 13.1954 1.08129 13.1831 1.08129 13.1681C1.08129 13.1531 1.04448 13.1409 0.999504 13.1409C0.954524 13.1409 0.917723 13.1286 0.917723 13.1136C0.917723 13.0986 0.893188 13.0863 0.863202 13.0863C0.833216 13.0863 0.808681 13.0741 0.808681 13.0591C0.808681 13.0441 0.77188 13.0318 0.7269 13.0318C0.68192 13.0318 0.645119 13.0196 0.645119 13.0046C0.645119 12.9896 0.620584 12.9773 0.590598 12.9773C0.560612 12.9773 0.536077 12.965 0.536077 12.95C0.536077 12.9351 0.511543 12.9228 0.481557 12.9228C0.45157 12.9228 0.427036 12.9105 0.427036 12.8955C0.427036 12.8805 0.402501 12.8683 0.372515 12.8683C0.342528 12.8683 0.317994 12.856 0.317994 12.841C0.317994 12.826 0.296159 12.8137 0.269498 12.8137C0.24281 12.8137 0.20331 12.7892 0.181692 12.7592C0.160075 12.7292 0.121583 12.7047 0.0961763 12.7047C0.0707423 12.7047 0.0444633 12.6894 0.0377572 12.6706C0.0310785 12.6519 0.0158126 12.6457 0.00387257 12.6568C-0.00809474 12.668 0.00861588 12.7001 0.0410285 12.7282C0.0734138 12.7563 0.0999109 12.7935 0.0999109 12.811C0.0999109 12.8546 0.280402 13.0318 0.3247 13.0318C0.344382 13.0318 0.378158 13.0564 0.399775 13.0863C0.421393 13.1163 0.458194 13.1409 0.481557 13.1409C0.504919 13.1409 0.54172 13.1654 0.563338 13.1954C0.584955 13.2254 0.624456 13.2499 0.651143 13.2499C0.677804 13.2499 0.69964 13.2622 0.69964 13.2772C0.69964 13.2922 0.721475 13.3044 0.748136 13.3044C0.774824 13.3044 0.814324 13.329 0.835942 13.359C0.857559 13.3889 0.89706 13.4135 0.923747 13.4135C0.950408 13.4135 0.972244 13.4257 0.972244 13.4407C0.972244 13.4557 0.996778 13.468 1.02676 13.468C1.05675 13.468 1.08129 13.4803 1.08129 13.4953C1.08129 13.5102 1.10582 13.5225 1.13581 13.5225C1.16579 13.5225 1.19033 13.5348 1.19033 13.5498C1.19033 13.5648 1.21486 13.577 1.24485 13.577C1.27483 13.577 1.29937 13.5893 1.29937 13.6043C1.29937 13.6193 1.3239 13.6316 1.35389 13.6316C1.38388 13.6316 1.40841 13.6438 1.40841 13.6588C1.40841 13.6738 1.43294 13.6861 1.46293 13.6861C1.49292 13.6861 1.51745 13.6983 1.51745 13.7133C1.51745 13.7283 1.54199 13.7406 1.57197 13.7406C1.60196 13.7406 1.62649 13.7529 1.62649 13.7679C1.62649 13.7829 1.65103 13.7951 1.68101 13.7951C1.711 13.7951 1.73553 13.8074 1.73553 13.8224C1.73553 13.8374 1.76007 13.8496 1.79006 13.8496C1.82004 13.8496 1.84458 13.8619 1.84458 13.8769C1.84458 13.8919 1.88138 13.9042 1.92636 13.9042C1.97134 13.9042 2.00814 13.9164 2.00814 13.9314C2.00814 13.9464 2.03267 13.9587 2.06266 13.9587C2.09265 13.9587 2.11718 13.9709 2.11718 13.9859C2.11718 14.0009 2.14171 14.0132 2.1717 14.0132C2.20169 14.0132 2.22622 14.0255 2.22622 14.0405C2.22622 14.0555 2.26302 14.0677 2.308 14.0677C2.35298 14.0677 2.38978 14.08 2.38978 14.095C2.38978 14.11 2.41432 14.1222 2.44431 14.1222C2.47429 14.1222 2.49883 14.1345 2.49883 14.1495C2.49883 14.1645 2.53563 14.1768 2.58061 14.1768C2.62559 14.1768 2.66239 14.189 2.66239 14.204C2.66239 14.219 2.69919 14.2313 2.74417 14.2313C2.78915 14.2313 2.82595 14.2436 2.82595 14.2585C2.82595 14.2735 2.87502 14.2858 2.93499 14.2858C2.99497 14.2858 3.04403 14.2981 3.04403 14.3131C3.04403 14.3281 3.08084 14.3403 3.12582 14.3403C3.17079 14.3403 3.2076 14.3526 3.2076 14.3676C3.2076 14.3826 3.2444 14.3948 3.28938 14.3948C3.33436 14.3948 3.37116 14.4071 3.37116 14.4221C3.37116 14.4371 3.42023 14.4494 3.4802 14.4494C3.54017 14.4494 3.58924 14.4616 3.58924 14.4766C3.58924 14.4916 3.63831 14.5039 3.69828 14.5039C3.75826 14.5039 3.80732 14.5162 3.80732 14.5311C3.80732 14.5461 3.85639 14.5584 3.91637 14.5584C3.97634 14.5584 4.02541 14.5707 4.02541 14.5857C4.02541 14.6007 4.08674 14.6129 4.16171 14.6129C4.23668 14.6129 4.29801 14.6252 4.29801 14.6402C4.29801 14.6552 4.35935 14.6674 4.43431 14.6674C4.50928 14.6674 4.57062 14.6797 4.57062 14.6947C4.57062 14.7099 4.64332 14.722 4.73418 14.722C4.82504 14.722 4.89774 14.7341 4.89774 14.7492C4.89774 14.7644 4.97044 14.7765 5.0613 14.7765C5.15216 14.7765 5.22487 14.7886 5.22487 14.8038C5.22487 14.8199 5.32483 14.831 5.47021 14.831C5.61559 14.831 5.71555 14.8421 5.71555 14.8583C5.71555 14.8752 5.87004 14.8855 6.12446 14.8855C6.37888 14.8855 6.53336 14.8958 6.53336 14.9128C6.53336 14.9304 6.84231 14.9401 7.4057 14.9401C7.96909 14.9401 8.27803 14.9304 8.27803 14.9128C8.27803 14.896 8.41433 14.8855 8.63242 14.8855C8.8505 14.8855 8.9868 14.875 8.9868 14.8583C8.9868 14.8419 9.09584 14.831 9.2594 14.831C9.42297 14.831 9.53201 14.8201 9.53201 14.8038C9.53201 14.7879 9.62287 14.7765 9.75009 14.7765C9.87732 14.7765 9.96817 14.7651 9.96817 14.7492C9.96817 14.7341 10.0409 14.722 10.1317 14.722C10.2226 14.722 10.2953 14.7099 10.2953 14.6947C10.2953 14.6796 10.368 14.6674 10.4589 14.6674C10.5497 14.6674 10.6224 14.6553 10.6224 14.6402C10.6224 14.625 10.6951 14.6129 10.786 14.6129C10.8768 14.6129 10.9495 14.6008 10.9495 14.5857C10.9495 14.5707 11.0109 14.5584 11.0859 14.5584C11.1608 14.5584 11.2222 14.5461 11.2222 14.5311C11.2222 14.5162 11.2835 14.5039 11.3585 14.5039C11.4334 14.5039 11.4948 14.4916 11.4948 14.4766C11.4948 14.4616 11.5438 14.4494 11.6038 14.4494C11.6638 14.4494 11.7128 14.4371 11.7128 14.4221C11.7128 14.4071 11.7619 14.3948 11.8219 14.3948C11.8819 14.3948 11.9309 14.3826 11.9309 14.3676C11.9309 14.3526 11.98 14.3403 12.04 14.3403C12.0999 14.3403 12.149 14.3281 12.149 14.3131C12.149 14.2981 12.1981 14.2858 12.258 14.2858C12.318 14.2858 12.3671 14.2735 12.3671 14.2585C12.3671 14.2436 12.4162 14.2313 12.4761 14.2313C12.5361 14.2313 12.5852 14.219 12.5852 14.204C12.5852 14.189 12.622 14.1768 12.667 14.1768C12.7119 14.1768 12.7487 14.1645 12.7487 14.1495C12.7487 14.1345 12.7978 14.1222 12.8578 14.1222C12.9177 14.1222 12.9668 14.11 12.9668 14.095C12.9668 14.08 13.0036 14.0677 13.0486 14.0677C13.0936 14.0677 13.1304 14.0555 13.1304 14.0405C13.1304 14.0255 13.1672 14.0132 13.2122 14.0132C13.2571 14.0132 13.2939 14.0009 13.2939 13.9859C13.2939 13.9709 13.3307 13.9587 13.3757 13.9587C13.4207 13.9587 13.4575 13.9464 13.4575 13.9314C13.4575 13.9164 13.482 13.9042 13.512 13.9042C13.542 13.9042 13.5665 13.8919 13.5665 13.8769C13.5665 13.8619 13.6033 13.8496 13.6483 13.8496C13.6933 13.8496 13.7301 13.8374 13.7301 13.8224C13.7301 13.8074 13.7669 13.7951 13.8119 13.7951C13.8569 13.7951 13.8937 13.7829 13.8937 13.7679C13.8937 13.7529 13.9182 13.7406 13.9482 13.7406C13.9782 13.7406 14.0027 13.7283 14.0027 13.7133C14.0027 13.6983 14.0395 13.6861 14.0845 13.6861C14.1295 13.6861 14.1663 13.6738 14.1663 13.6588C14.1663 13.6438 14.2031 13.6316 14.2481 13.6316C14.293 13.6316 14.3298 13.6193 14.3298 13.6043C14.3298 13.5893 14.3544 13.577 14.3844 13.577C14.4143 13.577 14.4389 13.5648 14.4389 13.5498C14.4389 13.5348 14.4757 13.5225 14.5207 13.5225C14.5656 13.5225 14.6024 13.5102 14.6024 13.4953C14.6024 13.4803 14.627 13.468 14.657 13.468C14.6869 13.468 14.7115 13.4557 14.7115 13.4407C14.7115 13.4257 14.736 13.4135 14.766 13.4135C14.796 13.4135 14.8205 13.4012 14.8205 13.3862C14.8205 13.3712 14.8573 13.359 14.9023 13.359C14.9473 13.359 14.9841 13.3467 14.9841 13.3317C14.9841 13.3167 15.0086 13.3044 15.0386 13.3044C15.0686 13.3044 15.0931 13.2922 15.0931 13.2772C15.0931 13.2622 15.1177 13.2499 15.1476 13.2499C15.1776 13.2499 15.2022 13.2376 15.2022 13.2226C15.2022 13.2077 15.2267 13.1954 15.2567 13.1954C15.2867 13.1954 15.3112 13.1831 15.3112 13.1681C15.3112 13.1531 15.3357 13.1409 15.3657 13.1409C15.3957 13.1409 15.4203 13.1286 15.4203 13.1136C15.4203 13.0986 15.4448 13.0863 15.4748 13.0863C15.5048 13.0863 15.5293 13.0741 15.5293 13.0591C15.5293 13.0441 15.5538 13.0318 15.5838 13.0318C15.6138 13.0318 15.6383 13.0196 15.6383 13.0046C15.6383 12.9896 15.6629 12.9773 15.6929 12.9773C15.7228 12.9773 15.7474 12.965 15.7474 12.95C15.7474 12.9351 15.7719 12.9228 15.8019 12.9228C15.8319 12.9228 15.8564 12.9105 15.8564 12.8955C15.8564 12.8805 15.881 12.8683 15.9109 12.8683C15.9409 12.8683 15.9655 12.856 15.9655 12.841C15.9655 12.826 15.99 12.8137 16.02 12.8137C16.05 12.8137 16.0745 12.8015 16.0745 12.7865C16.0745 12.7715 16.0963 12.7592 16.123 12.7592C16.1497 12.7592 16.1892 12.7347 16.2108 12.7047C16.2324 12.6747 16.2719 12.6502 16.2986 12.6502C16.3253 12.6502 16.3471 12.6379 16.3471 12.6229C16.3471 12.6079 16.3689 12.5957 16.3956 12.5957C16.4223 12.5957 16.4618 12.5711 16.4834 12.5411C16.505 12.5112 16.5418 12.4866 16.5652 12.4866C16.5886 12.4866 16.6254 12.4621 16.647 12.4321C16.6686 12.4021 16.7081 12.3776 16.7348 12.3776C16.7614 12.3776 16.7833 12.3653 16.7833 12.3503C16.7833 12.3353 16.8051 12.3231 16.8318 12.3231C16.8585 12.3231 16.898 12.2985 16.9196 12.2685C16.9412 12.2385 16.978 12.214 17.0014 12.214C17.0247 12.214 17.0615 12.1895 17.0831 12.1595C17.1048 12.1295 17.1416 12.105 17.1649 12.105C17.1883 12.105 17.2251 12.0804 17.2467 12.0505C17.2683 12.0205 17.3029 11.9959 17.3236 11.9959C17.3442 11.9959 17.3955 11.9591 17.4375 11.9141C17.4795 11.8692 17.5308 11.8324 17.5515 11.8324C17.5721 11.8324 17.6067 11.8078 17.6283 11.7778C17.65 11.7479 17.6843 11.7233 17.7046 11.7233C17.725 11.7233 17.7888 11.6743 17.8464 11.6143C17.9041 11.5543 17.9656 11.5052 17.9833 11.5052C18.0009 11.5052 18.0498 11.4684 18.0918 11.4235C18.1338 11.3785 18.1826 11.3417 18.2003 11.3417C18.2179 11.3417 18.281 11.2911 18.3404 11.2292C18.3998 11.1674 18.4571 11.1261 18.4677 11.1376C18.4784 11.149 18.4717 11.1638 18.453 11.1705C18.4342 11.1772 18.4189 11.2013 18.4189 11.224C18.4189 11.2467 18.3821 11.2997 18.3371 11.3417C18.2921 11.3837 18.2553 11.4316 18.2553 11.4482C18.2553 11.487 17.2566 12.4866 17.2179 12.4866C17.2018 12.4866 17.1289 12.548 17.0559 12.6229C16.9828 12.6979 16.9091 12.7592 16.892 12.7592C16.8748 12.7592 16.8136 12.8083 16.756 12.8683C16.6984 12.9282 16.6346 12.9773 16.6142 12.9773C16.5939 12.9773 16.5595 13.0018 16.5379 13.0318C16.5163 13.0618 16.4795 13.0863 16.4561 13.0863C16.4328 13.0863 16.396 13.1109 16.3744 13.1409C16.3527 13.1709 16.3182 13.1954 16.2975 13.1954C16.2769 13.1954 16.2256 13.2322 16.1835 13.2772C16.1415 13.3221 16.0875 13.359 16.0636 13.359C16.0396 13.359 16.02 13.3712 16.02 13.3862C16.02 13.4012 15.9981 13.4135 15.9715 13.4135C15.9448 13.4135 15.9053 13.438 15.8837 13.468C15.8621 13.498 15.8226 13.5225 15.7959 13.5225C15.7692 13.5225 15.7474 13.5348 15.7474 13.5498C15.7474 13.5648 15.7255 13.577 15.6989 13.577C15.6722 13.577 15.6327 13.6016 15.6111 13.6316C15.5895 13.6615 15.55 13.6861 15.5233 13.6861C15.4966 13.6861 15.4748 13.6983 15.4748 13.7133C15.4748 13.7283 15.4502 13.7406 15.4203 13.7406C15.3903 13.7406 15.3657 13.7529 15.3657 13.7679C15.3657 13.7829 15.3412 13.7951 15.3112 13.7951C15.2812 13.7951 15.2567 13.8074 15.2567 13.8224C15.2567 13.8374 15.2322 13.8496 15.2022 13.8496C15.1722 13.8496 15.1476 13.8619 15.1476 13.8769C15.1476 13.8919 15.1258 13.9042 15.0992 13.9042C15.0725 13.9042 15.033 13.9287 15.0113 13.9587C14.9897 13.9887 14.9502 14.0132 14.9235 14.0132C14.8969 14.0132 14.875 14.0255 14.875 14.0405C14.875 14.0555 14.8382 14.0677 14.7933 14.0677C14.7483 14.0677 14.7115 14.08 14.7115 14.095C14.7115 14.11 14.6869 14.1222 14.657 14.1222C14.627 14.1222 14.6024 14.1345 14.6024 14.1495C14.6024 14.1645 14.5779 14.1768 14.5479 14.1768C14.5179 14.1768 14.4934 14.189 14.4934 14.204C14.4934 14.219 14.4689 14.2313 14.4389 14.2313C14.4089 14.2313 14.3844 14.2436 14.3844 14.2585C14.3844 14.2735 14.3598 14.2858 14.3298 14.2858C14.2999 14.2858 14.2753 14.2981 14.2753 14.3131C14.2753 14.3281 14.2385 14.3403 14.1935 14.3403C14.1486 14.3403 14.1118 14.3526 14.1118 14.3676C14.1118 14.3826 14.0872 14.3948 14.0572 14.3948C14.0272 14.3948 14.0027 14.4071 14.0027 14.4221C14.0027 14.4371 13.9659 14.4494 13.9209 14.4494C13.876 14.4494 13.8392 14.4616 13.8392 14.4766C13.8392 14.4916 13.8146 14.5039 13.7846 14.5039C13.7546 14.5039 13.7301 14.5162 13.7301 14.5311C13.7301 14.5461 13.6933 14.5584 13.6483 14.5584C13.6033 14.5584 13.5665 14.5707 13.5665 14.5857C13.5665 14.6007 13.5297 14.6129 13.4848 14.6129C13.4398 14.6129 13.403 14.6252 13.403 14.6402C13.403 14.6552 13.3662 14.6674 13.3212 14.6674C13.2762 14.6674 13.2394 14.6797 13.2394 14.6947C13.2394 14.7097 13.2026 14.722 13.1576 14.722C13.1127 14.722 13.0759 14.7342 13.0759 14.7492C13.0759 14.7642 13.0391 14.7765 12.9941 14.7765C12.9491 14.7765 12.9123 14.7888 12.9123 14.8038C12.9123 14.8187 12.8755 14.831 12.8305 14.831C12.7855 14.831 12.7487 14.8433 12.7487 14.8583C12.7487 14.8733 12.7119 14.8855 12.667 14.8855C12.622 14.8855 12.5852 14.8978 12.5852 14.9128C12.5852 14.9278 12.5484 14.9401 12.5034 14.9401C12.4584 14.9401 12.4216 14.9523 12.4216 14.9673C12.4216 14.9823 12.3725 14.9946 12.3126 14.9946C12.2526 14.9946 12.2035 15.0068 12.2035 15.0218C12.2035 15.0368 12.1545 15.0491 12.0945 15.0491C12.0345 15.0491 11.9854 15.0614 11.9854 15.0764C11.9854 15.0913 11.9364 15.1036 11.8764 15.1036C11.8164 15.1036 11.7674 15.1159 11.7674 15.1309C11.7674 15.1459 11.7183 15.1581 11.6583 15.1581C11.5983 15.1581 11.5493 15.1704 11.5493 15.1854C11.5493 15.2004 11.4879 15.2127 11.413 15.2127C11.338 15.2127 11.2767 15.2249 11.2767 15.2399C11.2767 15.2551 11.204 15.2672 11.1131 15.2672C11.0223 15.2672 10.9495 15.2793 10.9495 15.2944C10.9495 15.3094 10.8882 15.3217 10.8132 15.3217C10.7383 15.3217 10.6769 15.334 10.6769 15.349C10.6769 15.3641 10.6042 15.3762 10.5134 15.3762C10.4225 15.3762 10.3498 15.3883 10.3498 15.4035C10.3498 15.419 10.268 15.4307 10.159 15.4307C10.05 15.4307 9.96817 15.4424 9.96817 15.458C9.96817 15.4742 9.86821 15.4853 9.72283 15.4853C9.57745 15.4853 9.47749 15.4964 9.47749 15.5125C9.47749 15.5292 9.35026 15.5398 9.15036 15.5398C8.95046 15.5398 8.82324 15.5504 8.82324 15.567C8.82324 15.5848 8.42341 15.5943 7.6783 15.5943C6.93319 15.5943 6.53336 15.5848 6.53336 15.567C6.53336 15.5507 6.42432 15.5398 6.26076 15.5398C6.0972 15.5398 5.98816 15.5289 5.98816 15.5125C5.98816 15.4966 5.8973 15.4853 5.77007 15.4853C5.64285 15.4853 5.55199 15.4739 5.55199 15.458C5.55199 15.4428 5.47929 15.4307 5.38843 15.4307C5.29757 15.4307 5.22487 15.4186 5.22487 15.4035C5.22487 15.3885 5.16353 15.3762 5.08856 15.3762C5.0136 15.3762 4.95226 15.364 4.95226 15.349C4.95226 15.334 4.89093 15.3217 4.81596 15.3217C4.74099 15.3217 4.67966 15.3094 4.67966 15.2944C4.67966 15.2794 4.63059 15.2672 4.57062 15.2672C4.51064 15.2672 4.46157 15.2549 4.46157 15.2399C4.46157 15.2249 4.40024 15.2127 4.32527 15.2127C4.25031 15.2127 4.18897 15.2004 4.18897 15.1854C4.18897 15.1704 4.15217 15.1581 4.10719 15.1581C4.06221 15.1581 4.02541 15.1459 4.02541 15.1309C4.02541 15.1159 3.97634 15.1036 3.91637 15.1036C3.85639 15.1036 3.80732 15.0913 3.80732 15.0764C3.80732 15.0614 3.75826 15.0491 3.69828 15.0491C3.63831 15.0491 3.58924 15.0368 3.58924 15.0218C3.58924 15.0068 3.55244 14.9946 3.50746 14.9946C3.46248 14.9946 3.42568 14.9823 3.42568 14.9673C3.42568 14.9523 3.40114 14.9401 3.37116 14.9401C3.34117 14.9401 3.31664 14.9278 3.31664 14.9128C3.31664 14.8978 3.27984 14.8855 3.23486 14.8855C3.18988 14.8855 3.15308 14.8733 3.15308 14.8583C3.15308 14.8433 3.11627 14.831 3.07129 14.831C3.02631 14.831 2.98951 14.8187 2.98951 14.8038C2.98951 14.7888 2.96498 14.7765 2.93499 14.7765C2.90501 14.7765 2.88047 14.7642 2.88047 14.7492C2.88047 14.7342 2.84367 14.722 2.79869 14.722C2.75371 14.722 2.71691 14.7097 2.71691 14.6947C2.71691 14.6797 2.69237 14.6674 2.66239 14.6674C2.6324 14.6674 2.60787 14.6552 2.60787 14.6402C2.60787 14.6252 2.58333 14.6129 2.55335 14.6129C2.52336 14.6129 2.49883 14.6007 2.49883 14.5857C2.49883 14.5707 2.46202 14.5584 2.41704 14.5584C2.37207 14.5584 2.33526 14.5461 2.33526 14.5311C2.33526 14.5162 2.31073 14.5039 2.28074 14.5039C2.25076 14.5039 2.22622 14.4916 2.22622 14.4766C2.22622 14.4616 2.20169 14.4494 2.1717 14.4494C2.14171 14.4494 2.11718 14.4371 2.11718 14.4221C2.11718 14.4071 2.09265 14.3948 2.06266 14.3948C2.03267 14.3948 2.00814 14.3826 2.00814 14.3676C2.00814 14.3526 1.9836 14.3403 1.95362 14.3403C1.92363 14.3403 1.8991 14.3281 1.8991 14.3131C1.8991 14.2981 1.87456 14.2858 1.84458 14.2858C1.81459 14.2858 1.79006 14.2735 1.79006 14.2585C1.79006 14.2436 1.76822 14.2313 1.74156 14.2313C1.71487 14.2313 1.67537 14.2067 1.65375 14.1768C1.63214 14.1468 1.59533 14.1222 1.57197 14.1222C1.54861 14.1222 1.51181 14.0977 1.49019 14.0677C1.46857 14.0377 1.42907 14.0132 1.40239 14.0132C1.37572 14.0132 1.35389 14.0009 1.35389 13.9859C1.35389 13.9709 1.33205 13.9587 1.30539 13.9587C1.27871 13.9587 1.2392 13.9341 1.21759 13.9042C1.19597 13.8742 1.16138 13.8496 1.14071 13.8496C1.12008 13.8496 1.06877 13.8128 1.02676 13.7679C0.984756 13.7229 0.935687 13.6861 0.917723 13.6861C0.899758 13.6861 0.85069 13.6493 0.808681 13.6043C0.766673 13.5593 0.71785 13.5225 0.700185 13.5225C0.682547 13.5225 0.619494 13.4719 0.560066 13.4101C0.500639 13.3482 0.443337 13.307 0.432706 13.3184C0.422102 13.3298 0.428753 13.3446 0.447481 13.3513C0.466236 13.358 0.481557 13.3818 0.481557 13.4043C0.481557 13.4267 0.530625 13.4921 0.590598 13.5498C0.650571 13.6074 0.69964 13.6679 0.69964 13.6842C0.69964 13.7229 1.37155 14.3948 1.41029 14.3948C1.42659 14.3948 1.48708 14.4439 1.54471 14.5039C1.60234 14.5639 1.66883 14.6129 1.69252 14.6129C1.71618 14.6129 1.73553 14.6252 1.73553 14.6402C1.73553 14.6552 1.76007 14.6674 1.79006 14.6674C1.82004 14.6674 1.84458 14.6797 1.84458 14.6947C1.84458 14.7097 1.86911 14.722 1.8991 14.722C1.92908 14.722 1.95362 14.7342 1.95362 14.7492C1.95362 14.7642 1.97815 14.7765 2.00814 14.7765C2.03813 14.7765 2.06266 14.7888 2.06266 14.8038C2.06266 14.8187 2.08719 14.831 2.11718 14.831C2.14717 14.831 2.1717 14.8433 2.1717 14.8583C2.1717 14.8733 2.19624 14.8855 2.22622 14.8855C2.25621 14.8855 2.28074 14.8978 2.28074 14.9128C2.28074 14.9278 2.30528 14.9401 2.33526 14.9401C2.36525 14.9401 2.38978 14.9523 2.38978 14.9673C2.38978 14.9823 2.41432 14.9946 2.44431 14.9946C2.47429 14.9946 2.49883 15.0068 2.49883 15.0218C2.49883 15.0368 2.52336 15.0491 2.55335 15.0491C2.58333 15.0491 2.60787 15.0614 2.60787 15.0764C2.60787 15.0913 2.6324 15.1036 2.66239 15.1036C2.69237 15.1036 2.71691 15.1159 2.71691 15.1309C2.71691 15.1459 2.75371 15.1581 2.79869 15.1581C2.84367 15.1581 2.88047 15.1704 2.88047 15.1854C2.88047 15.2004 2.90501 15.2127 2.93499 15.2127C2.96498 15.2127 2.98951 15.2249 2.98951 15.2399C2.98951 15.2549 3.02631 15.2672 3.07129 15.2672C3.11627 15.2672 3.15308 15.2794 3.15308 15.2944C3.15308 15.3094 3.18988 15.3217 3.23486 15.3217C3.27984 15.3217 3.31664 15.334 3.31664 15.349C3.31664 15.364 3.35344 15.3762 3.39842 15.3762C3.4434 15.3762 3.4802 15.3885 3.4802 15.4035C3.4802 15.4185 3.517 15.4307 3.56198 15.4307C3.60696 15.4307 3.64376 15.443 3.64376 15.458C3.64376 15.473 3.69283 15.4853 3.7528 15.4853C3.81278 15.4853 3.86185 15.4975 3.86185 15.5125C3.86185 15.5275 3.91091 15.5398 3.97089 15.5398C4.03086 15.5398 4.07993 15.552 4.07993 15.567C4.07993 15.582 4.14126 15.5943 4.21623 15.5943C4.2912 15.5943 4.35253 15.6066 4.35253 15.6216C4.35253 15.6366 4.4016 15.6488 4.46157 15.6488C4.52155 15.6488 4.57062 15.6611 4.57062 15.6761C4.57062 15.6911 4.63195 15.7033 4.70692 15.7033C4.78188 15.7033 4.84322 15.7156 4.84322 15.7306C4.84322 15.7456 4.90456 15.7579 4.97952 15.7579C5.05449 15.7579 5.11582 15.7701 5.11582 15.7851C5.11582 15.8003 5.18853 15.8124 5.27939 15.8124C5.37024 15.8124 5.44295 15.8245 5.44295 15.8396C5.44295 15.8558 5.54291 15.8669 5.68829 15.8669C5.83367 15.8669 5.93364 15.878 5.93364 15.8942C5.93364 15.9107 6.05175 15.9214 6.2335 15.9214C6.41525 15.9214 6.53336 15.9322 6.53336 15.9487C6.53336 15.9637 6.5947 15.9759 6.66967 15.9759C6.74463 15.9759 6.80597 15.9882 6.80597 16.0032C6.80597 16.0182 6.8305 16.0305 6.86049 16.0305C6.89048 16.0305 6.91501 16.0427 6.91501 16.0577C6.91501 16.0727 6.93685 16.085 6.96351 16.085C6.99019 16.085 7.0297 16.1095 7.05131 16.1395C7.07293 16.1695 7.11243 16.194 7.13912 16.194C7.16578 16.194 7.18761 16.2063 7.18761 16.2213C7.18761 16.2363 7.20945 16.2486 7.23611 16.2486C7.2628 16.2486 7.3023 16.2731 7.32392 16.3031C7.34553 16.3331 7.38503 16.3576 7.41172 16.3576C7.43838 16.3576 7.46022 16.3699 7.46022 16.3849C7.46022 16.3998 7.48475 16.4121 7.51474 16.4121C7.54473 16.4121 7.56926 16.4244 7.56926 16.4394C7.56926 16.4544 7.59379 16.4666 7.62378 16.4666C7.65377 16.4666 7.6783 16.4789 7.6783 16.4939C7.6783 16.5089 7.70284 16.5212 7.73282 16.5212C7.76281 16.5212 7.78734 16.5334 7.78734 16.5484C7.78734 16.5634 7.81188 16.5757 7.84186 16.5757C7.87185 16.5757 7.89638 16.5879 7.89638 16.6029C7.89638 16.6179 7.93319 16.6302 7.97817 16.6302C8.02315 16.6302 8.05995 16.6425 8.05995 16.6575C8.05995 16.6725 8.08448 16.6847 8.11447 16.6847C8.14445 16.6847 8.16899 16.697 8.16899 16.712C8.16899 16.727 8.20579 16.7392 8.25077 16.7392C8.29575 16.7392 8.33255 16.7515 8.33255 16.7665C8.33255 16.7815 8.36935 16.7938 8.41433 16.7938C8.45931 16.7938 8.49611 16.806 8.49611 16.821C8.49611 16.836 8.53292 16.8483 8.57789 16.8483C8.62287 16.8483 8.65968 16.8605 8.65968 16.8755C8.65968 16.8905 8.69648 16.9028 8.74146 16.9028C8.78644 16.9028 8.82324 16.9151 8.82324 16.9301C8.82324 16.9451 8.87231 16.9573 8.93228 16.9573C8.99225 16.9573 9.04132 16.9696 9.04132 16.9846C9.04132 16.9996 9.09039 17.0118 9.15036 17.0118C9.21034 17.0118 9.2594 17.0241 9.2594 17.0391C9.2594 17.0541 9.32074 17.0664 9.39571 17.0664C9.47067 17.0664 9.53201 17.0786 9.53201 17.0936C9.53201 17.1092 9.61379 17.1209 9.72283 17.1209C9.83187 17.1209 9.91365 17.1326 9.91365 17.1481C9.91365 17.1657 10.2044 17.1754 10.7315 17.1754C11.2585 17.1754 11.5493 17.1657 11.5493 17.1481C11.5493 17.1323 11.6401 17.1209 11.7674 17.1209C11.8946 17.1209 11.9854 17.1095 11.9854 17.0936C11.9854 17.0786 12.0468 17.0664 12.1217 17.0664C12.1967 17.0664 12.258 17.0541 12.258 17.0391C12.258 17.0241 12.3071 17.0118 12.3671 17.0118C12.4271 17.0118 12.4761 16.9996 12.4761 16.9846C12.4761 16.9696 12.5252 16.9573 12.5852 16.9573C12.6451 16.9573 12.6942 16.9451 12.6942 16.9301C12.6942 16.9151 12.7433 16.9028 12.8033 16.9028C12.8632 16.9028 12.9123 16.8905 12.9123 16.8755C12.9123 16.8605 12.9491 16.8483 12.9941 16.8483C13.0391 16.8483 13.0759 16.836 13.0759 16.821C13.0759 16.806 13.1004 16.7938 13.1304 16.7938C13.1604 16.7938 13.1849 16.7815 13.1849 16.7665C13.1849 16.7515 13.2217 16.7392 13.2667 16.7392C13.3117 16.7392 13.3485 16.727 13.3485 16.712C13.3485 16.697 13.3853 16.6847 13.4302 16.6847C13.4752 16.6847 13.512 16.6725 13.512 16.6575C13.512 16.6425 13.5366 16.6302 13.5665 16.6302C13.5965 16.6302 13.6211 16.6179 13.6211 16.6029C13.6211 16.5879 13.6579 16.5757 13.7028 16.5757C13.7478 16.5757 13.7846 16.5634 13.7846 16.5484C13.7846 16.5334 13.8092 16.5212 13.8392 16.5212C13.8691 16.5212 13.8937 16.5089 13.8937 16.4939C13.8937 16.4789 13.9182 16.4666 13.9482 16.4666C13.9782 16.4666 14.0027 16.4544 14.0027 16.4394C14.0027 16.4244 14.0245 16.4121 14.0512 16.4121C14.0779 16.4121 14.1174 16.3876 14.139 16.3576C14.1606 16.3276 14.2001 16.3031 14.2268 16.3031C14.2535 16.3031 14.2753 16.2908 14.2753 16.2758C14.2753 16.2608 14.2999 16.2486 14.3298 16.2486C14.3598 16.2486 14.3844 16.2363 14.3844 16.2213C14.3844 16.2063 14.4062 16.194 14.4329 16.194C14.4595 16.194 14.499 16.1695 14.5207 16.1395C14.5423 16.1095 14.5791 16.085 14.6024 16.085C14.6258 16.085 14.6626 16.0605 14.6842 16.0305C14.7058 16.0005 14.7426 15.9759 14.766 15.9759C14.7894 15.9759 14.8262 15.9514 14.8478 15.9214C14.8694 15.8914 14.904 15.8669 14.9247 15.8669C14.9453 15.8669 14.9966 15.8301 15.0386 15.7851C15.0806 15.7401 15.1294 15.7033 15.1471 15.7033C15.1647 15.7033 15.2263 15.6543 15.284 15.5943C15.3416 15.5343 15.4021 15.4853 15.4184 15.4853C15.4568 15.4853 16.1835 14.7589 16.1835 14.7204C16.1835 14.7043 16.2449 14.6314 16.3198 14.5584C16.3948 14.4854 16.4561 14.4114 16.4561 14.3939C16.4561 14.3765 16.493 14.3278 16.5379 14.2858C16.5829 14.2438 16.6197 14.1925 16.6197 14.1719C16.6197 14.1512 16.6442 14.1166 16.6742 14.095C16.7042 14.0734 16.7288 14.0339 16.7288 14.0072C16.7288 13.9805 16.741 13.9587 16.756 13.9587C16.771 13.9587 16.7833 13.9368 16.7833 13.9102C16.7833 13.8835 16.8078 13.844 16.8378 13.8224C16.8678 13.8008 16.8923 13.7613 16.8923 13.7346C16.8923 13.7079 16.9046 13.6861 16.9196 13.6861C16.9346 13.6861 16.9468 13.6642 16.9468 13.6376C16.9468 13.6109 16.9714 13.5714 17.0014 13.5498C17.0313 13.5282 17.0559 13.4887 17.0559 13.462C17.0559 13.4353 17.0681 13.4135 17.0831 13.4135C17.0981 13.4135 17.1104 13.3889 17.1104 13.359C17.1104 13.329 17.1227 13.3044 17.1377 13.3044C17.1527 13.3044 17.1649 13.2799 17.1649 13.2499C17.1649 13.2199 17.1772 13.1954 17.1922 13.1954C17.2072 13.1954 17.2194 13.1761 17.2194 13.1526C17.2194 13.1028 17.2833 13.0318 17.328 13.0318C17.3449 13.0318 17.431 12.9582 17.5193 12.8683C17.6076 12.7783 17.6929 12.7047 17.7088 12.7047C17.747 12.7047 18.746 11.7051 18.746 11.6668C18.746 11.6506 18.7951 11.5901 18.8551 11.5325C18.915 11.4749 18.9641 11.4111 18.9641 11.3907C18.9641 11.3704 18.9886 11.336 19.0186 11.3144C19.0486 11.2928 19.0731 11.2533 19.0731 11.2266C19.0731 11.1963 19.0527 11.1781 19.0186 11.1781C18.9886 11.1781 18.9641 11.1659 18.9641 11.1509C18.9641 11.1359 18.9396 11.1236 18.9096 11.1236C18.8796 11.1236 18.8551 11.1113 18.8551 11.0963C18.8551 11.0813 18.8305 11.0691 18.8005 11.0691C18.7706 11.0691 18.746 11.0568 18.746 11.0418C18.746 11.0268 18.7215 11.0146 18.6915 11.0146C18.6615 11.0146 18.637 11.0023 18.637 10.9873C18.637 10.9723 18.6177 10.96 18.5942 10.96C18.5706 10.96 18.5331 10.9419 18.511 10.9197C18.4753 10.884 18.5058 10.8443 18.7719 10.5798C18.9376 10.415 19.0731 10.2664 19.0731 10.2494C19.0731 10.2325 19.1099 10.1842 19.1549 10.1422C19.1999 10.1002 19.2367 10.0511 19.2367 10.0332C19.2367 10.0152 19.2735 9.96615 19.3185 9.92414C19.3635 9.88213 19.4003 9.82813 19.4003 9.80417C19.4003 9.78018 19.4125 9.76058 19.4275 9.76058C19.4425 9.76058 19.4548 9.73874 19.4548 9.71208C19.4548 9.68539 19.4793 9.64589 19.5093 9.62428C19.5393 9.60266 19.5638 9.56316 19.5638 9.53647C19.5638 9.50981 19.5761 9.48797 19.5911 9.48797C19.6061 9.48797 19.6184 9.46344 19.6184 9.43345C19.6184 9.40347 19.6306 9.37893 19.6456 9.37893C19.6606 9.37893 19.6729 9.3544 19.6729 9.32441C19.6729 9.29443 19.6851 9.26989 19.7001 9.26989C19.7151 9.26989 19.7274 9.23309 19.7274 9.18811C19.7274 9.14313 19.7397 9.10633 19.7547 9.10633C19.7696 9.10633 19.7819 9.08179 19.7819 9.05181C19.7819 9.02182 19.7942 8.99729 19.8092 8.99729C19.8242 8.99729 19.8364 8.96049 19.8364 8.91551C19.8364 8.87053 19.8487 8.83372 19.8637 8.83372C19.8787 8.83372 19.891 8.78466 19.891 8.72468C19.891 8.66471 19.9032 8.61564 19.9182 8.61564C19.9332 8.61564 19.9455 8.55431 19.9455 8.47934C19.9455 8.40437 19.9577 8.34304 19.9727 8.34304C19.99 8.34304 20 8.14314 20 7.79783C20 7.45252 19.99 7.25262 19.9727 7.25262C19.9577 7.25262 19.9455 7.19129 19.9455 7.11632C19.9455 7.04135 19.9332 6.98002 19.9182 6.98002C19.9032 6.98002 19.891 6.94322 19.891 6.89824C19.891 6.85326 19.8787 6.81646 19.8637 6.81646C19.8487 6.81646 19.8364 6.77965 19.8364 6.73467C19.8364 6.68969 19.8242 6.65289 19.8092 6.65289C19.7942 6.65289 19.7819 6.62836 19.7819 6.59837C19.7819 6.56839 19.7696 6.54385 19.7547 6.54385C19.7397 6.54385 19.7274 6.51932 19.7274 6.48933C19.7274 6.45934 19.7151 6.43481 19.7001 6.43481C19.6851 6.43481 19.6729 6.41028 19.6729 6.38029C19.6729 6.3503 19.6606 6.32577 19.6456 6.32577C19.6306 6.32577 19.6184 6.30123 19.6184 6.27125C19.6184 6.24126 19.6061 6.21673 19.5911 6.21673C19.5761 6.21673 19.5638 6.19489 19.5638 6.16823C19.5638 6.14154 19.5393 6.10204 19.5093 6.08042C19.4793 6.05881 19.4548 6.02201 19.4548 5.99864C19.4548 5.97528 19.4303 5.93848 19.4003 5.91686C19.3703 5.89524 19.3458 5.86177 19.3458 5.84244C19.3458 5.79967 18.6225 5.07179 18.58 5.07179C18.5634 5.07179 18.5154 5.03499 18.4734 4.99001C18.4314 4.94503 18.3823 4.90823 18.3644 4.90823C18.3464 4.90823 18.2973 4.87143 18.2553 4.82645C18.2133 4.78147 18.162 4.74467 18.1414 4.74467C18.1207 4.74467 18.0861 4.72013 18.0645 4.69014C18.0429 4.66016 18.0034 4.63562 17.9767 4.63562C17.95 4.63562 17.9282 4.62336 17.9282 4.60836C17.9282 4.59337 17.9037 4.5811 17.8737 4.5811C17.8437 4.5811 17.8192 4.56884 17.8192 4.55384C17.8192 4.53885 17.7946 4.52658 17.7646 4.52658C17.7347 4.52658 17.7101 4.51432 17.7101 4.49932C17.7101 4.48433 17.6856 4.47206 17.6556 4.47206C17.6256 4.47206 17.6011 4.45979 17.6011 4.4448C17.6011 4.42981 17.5766 4.41754 17.5466 4.41754C17.5166 4.41754 17.492 4.40527 17.492 4.39028C17.492 4.37529 17.4702 4.36302 17.4435 4.36302C17.4169 4.36302 17.3774 4.33849 17.3557 4.3085C17.3327 4.2765 17.2852 4.25398 17.2407 4.25398C17.199 4.25398 17.1649 4.24171 17.1649 4.22672C17.1649 4.21172 17.1404 4.19946 17.1104 4.19946C17.0804 4.19946 17.0559 4.18719 17.0559 4.1722C17.0559 4.1572 17.0191 4.14494 16.9741 4.14494C16.9291 4.14494 16.8923 4.13267 16.8923 4.11768C16.8923 4.10268 16.8678 4.09042 16.8378 4.09042C16.8078 4.09042 16.7833 4.07815 16.7833 4.06316C16.7833 4.04816 16.7587 4.0359 16.7288 4.0359C16.6988 4.0359 16.6742 4.02363 16.6742 4.00863C16.6742 3.99364 16.6374 3.98137 16.5925 3.98137C16.5475 3.98137 16.5107 3.96911 16.5107 3.95411C16.5107 3.93912 16.4739 3.92685 16.4289 3.92685C16.3839 3.92685 16.3471 3.91459 16.3471 3.89959C16.3471 3.8846 16.298 3.87233 16.2381 3.87233C16.1781 3.87233 16.129 3.86007 16.129 3.84507C16.129 3.83008 16.0922 3.81781 16.0472 3.81781C16.0023 3.81781 15.9655 3.80554 15.9655 3.79055C15.9655 3.77556 15.9164 3.76329 15.8564 3.76329C15.7964 3.76329 15.7474 3.75102 15.7474 3.73603C15.7474 3.72104 15.6983 3.70877 15.6383 3.70877C15.5784 3.70877 15.5293 3.6965 15.5293 3.68151C15.5293 3.66652 15.468 3.65425 15.393 3.65425C15.318 3.65425 15.2567 3.64198 15.2567 3.62699C15.2567 3.61183 15.184 3.59973 15.0931 3.59973C15.0023 3.59973 14.9296 3.58763 14.9296 3.57247C14.9296 3.5569 14.8478 3.54521 14.7387 3.54521C14.6297 3.54521 14.5479 3.53351 14.5479 3.51795C14.5479 3.50099 14.3934 3.49069 14.139 3.49069C13.8846 3.49069 13.7301 3.48038 13.7301 3.46343C13.7301 3.44726 13.6301 3.43617 13.4848 3.43617C13.3394 3.43617 13.2394 3.42507 13.2394 3.40891C13.2394 3.39391 13.2026 3.38165 13.1576 3.38165C13.1127 3.38165 13.0759 3.36938 13.0759 3.35439C13.0759 3.33939 13.0391 3.32712 12.9941 3.32712C12.9491 3.32712 12.9123 3.31486 12.9123 3.29986C12.9123 3.28487 12.8755 3.2726 12.8305 3.2726C12.7855 3.2726 12.7487 3.26034 12.7487 3.24534C12.7487 3.23035 12.6997 3.21808 12.6397 3.21808C12.5797 3.21808 12.5307 3.20582 12.5307 3.19082C12.5307 3.17583 12.4693 3.16356 12.3944 3.16356C12.3194 3.16356 12.258 3.1513 12.258 3.1363C12.258 3.12131 12.209 3.10904 12.149 3.10904C12.089 3.10904 12.04 3.09677 12.04 3.08178C12.04 3.06589 11.9491 3.05452 11.8219 3.05452C11.6947 3.05452 11.6038 3.04315 11.6038 3.02726C11.6038 3.0097 11.3221 3 10.8132 3C10.3044 3 10.0227 3.0097 10.0227 3.02726ZM11.2767 3.46343C11.2767 3.47959 11.3766 3.49069 11.522 3.49069C11.6674 3.49069 11.7674 3.50178 11.7674 3.51795C11.7674 3.53294 11.8287 3.54521 11.9037 3.54521C11.9786 3.54521 12.04 3.55748 12.04 3.57247C12.04 3.58746 12.1013 3.59973 12.1763 3.59973C12.2512 3.59973 12.3126 3.612 12.3126 3.62699C12.3126 3.64198 12.3616 3.65425 12.4216 3.65425C12.4816 3.65425 12.5307 3.66652 12.5307 3.68151C12.5307 3.6965 12.5797 3.70877 12.6397 3.70877C12.6997 3.70877 12.7487 3.72104 12.7487 3.73603C12.7487 3.75102 12.7855 3.76329 12.8305 3.76329C12.8755 3.76329 12.9123 3.77556 12.9123 3.79055C12.9123 3.80554 12.9368 3.81781 12.9668 3.81781C12.9968 3.81781 13.0213 3.83008 13.0213 3.84507C13.0213 3.86007 13.0581 3.87233 13.1031 3.87233C13.1481 3.87233 13.1849 3.8846 13.1849 3.89959C13.1849 3.91459 13.2217 3.92685 13.2667 3.92685C13.3117 3.92685 13.3485 3.93912 13.3485 3.95411C13.3485 3.96911 13.373 3.98137 13.403 3.98137C13.433 3.98137 13.4575 3.99364 13.4575 4.00863C13.4575 4.02363 13.482 4.0359 13.512 4.0359C13.542 4.0359 13.5665 4.04816 13.5665 4.06316C13.5665 4.07815 13.5911 4.09042 13.6211 4.09042C13.6511 4.09042 13.6756 4.10268 13.6756 4.11768C13.6756 4.13267 13.7001 4.14494 13.7301 4.14494C13.7601 4.14494 13.7846 4.1572 13.7846 4.1722C13.7846 4.18719 13.8092 4.19946 13.8392 4.19946C13.8691 4.19946 13.8937 4.21172 13.8937 4.22672C13.8937 4.24171 13.9182 4.25398 13.9482 4.25398C13.9782 4.25398 14.0027 4.26625 14.0027 4.28124C14.0027 4.29623 14.0272 4.3085 14.0572 4.3085C14.0872 4.3085 14.1118 4.32077 14.1118 4.33576C14.1118 4.35075 14.1336 4.36302 14.1603 4.36302C14.1869 4.36302 14.2264 4.38755 14.2481 4.41754C14.2697 4.44753 14.3065 4.47206 14.3298 4.47206C14.3532 4.47206 14.39 4.4966 14.4116 4.52658C14.4332 4.55657 14.47 4.5811 14.4934 4.5811C14.5168 4.5811 14.5536 4.60564 14.5752 4.63562C14.5968 4.66561 14.6314 4.69014 14.6521 4.69014C14.6727 4.69014 14.724 4.72695 14.766 4.77193C14.808 4.81691 14.8567 4.85371 14.8741 4.85371C14.8916 4.85371 14.9656 4.91504 15.0386 4.99001C15.1116 5.06498 15.1846 5.12631 15.2008 5.12631C15.2391 5.12631 15.7474 5.63461 15.7474 5.67294C15.7474 5.6891 15.8087 5.76205 15.8837 5.83508C15.9586 5.90811 16.02 5.98212 16.02 5.99957C16.02 6.01702 16.0568 6.06568 16.1018 6.10769C16.1467 6.14969 16.1835 6.201 16.1835 6.22163C16.1835 6.2423 16.2081 6.27689 16.2381 6.29851C16.2681 6.32013 16.2926 6.35693 16.2926 6.38029C16.2926 6.40365 16.3171 6.44045 16.3471 6.46207C16.3771 6.48369 16.4016 6.52049 16.4016 6.54385C16.4016 6.56721 16.4262 6.60402 16.4561 6.62563C16.4861 6.64725 16.5107 6.68675 16.5107 6.71344C16.5107 6.7401 16.5229 6.76193 16.5379 6.76193C16.5529 6.76193 16.5652 6.78647 16.5652 6.81646C16.5652 6.84644 16.5775 6.87098 16.5925 6.87098C16.6074 6.87098 16.6197 6.89551 16.6197 6.9255C16.6197 6.95548 16.632 6.98002 16.647 6.98002C16.662 6.98002 16.6742 7.00455 16.6742 7.03454C16.6742 7.06453 16.6865 7.08906 16.7015 7.08906C16.7165 7.08906 16.7288 7.11359 16.7288 7.14358C16.7288 7.17357 16.741 7.1981 16.756 7.1981C16.771 7.1981 16.7833 7.22264 16.7833 7.25262C16.7833 7.28261 16.7955 7.30714 16.8105 7.30714C16.8255 7.30714 16.8378 7.33168 16.8378 7.36166C16.8378 7.39165 16.8501 7.41618 16.8651 7.41618C16.88 7.41618 16.8923 7.44072 16.8923 7.47071C16.8923 7.50069 16.9046 7.52523 16.9196 7.52523C16.9346 7.52523 16.9468 7.56203 16.9468 7.60701C16.9468 7.65199 16.9591 7.68879 16.9741 7.68879C16.9891 7.68879 17.0014 7.71332 17.0014 7.74331C17.0014 7.7733 17.0136 7.79783 17.0286 7.79783C17.0436 7.79783 17.0559 7.83463 17.0559 7.87961C17.0559 7.92459 17.0681 7.96139 17.0831 7.96139C17.0981 7.96139 17.1104 7.99819 17.1104 8.04317C17.1104 8.08815 17.1227 8.12495 17.1377 8.12495C17.1527 8.12495 17.1649 8.17402 17.1649 8.234C17.1649 8.29397 17.1527 8.34304 17.1377 8.34304C17.1227 8.34304 17.1104 8.39211 17.1104 8.45208C17.1104 8.51205 17.0981 8.56112 17.0831 8.56112C17.0681 8.56112 17.0559 8.58566 17.0559 8.61564C17.0559 8.64563 17.0436 8.67016 17.0286 8.67016C17.0136 8.67016 17.0014 8.6947 17.0014 8.72468C17.0014 8.75467 16.9891 8.7792 16.9741 8.7792C16.9591 8.7792 16.9468 8.80374 16.9468 8.83372C16.9468 8.86371 16.9346 8.88825 16.9196 8.88825C16.9046 8.88825 16.8923 8.91008 16.8923 8.93674C16.8923 8.96343 16.8678 9.00293 16.8378 9.02455C16.8078 9.04616 16.7833 9.08076 16.7833 9.10142C16.7833 9.12206 16.7465 9.17336 16.7015 9.21537C16.6565 9.25738 16.6197 9.30533 16.6197 9.32193C16.6197 9.36097 15.7299 10.2513 15.6909 10.2513C15.6746 10.2513 15.6142 10.3003 15.5566 10.3603C15.4989 10.4203 15.4376 10.4693 15.4203 10.4693C15.4029 10.4693 15.3416 10.5184 15.284 10.5784C15.2263 10.6384 15.1625 10.6874 15.1422 10.6874C15.1218 10.6874 15.0875 10.712 15.0659 10.742C15.0443 10.7719 15.0097 10.7965 14.989 10.7965C14.9684 10.7965 14.9171 10.8333 14.875 10.8783C14.833 10.9232 14.7817 10.96 14.7611 10.96C14.7404 10.96 14.7058 10.9846 14.6842 11.0146C14.6626 11.0445 14.6231 11.0691 14.5964 11.0691C14.5698 11.0691 14.5479 11.0813 14.5479 11.0963C14.5479 11.1113 14.5261 11.1236 14.4994 11.1236C14.4727 11.1236 14.4332 11.1481 14.4116 11.1781C14.39 11.2081 14.3532 11.2326 14.3298 11.2326C14.3065 11.2326 14.2697 11.2572 14.2481 11.2872C14.2264 11.3171 14.1869 11.3417 14.1603 11.3417C14.1336 11.3417 14.1118 11.3539 14.1118 11.3689C14.1118 11.3839 14.0899 11.3962 14.0633 11.3962C14.0366 11.3962 13.9971 11.4207 13.9755 11.4507C13.9538 11.4807 13.9143 11.5052 13.8876 11.5052C13.861 11.5052 13.8392 11.5175 13.8392 11.5325C13.8392 11.5475 13.8146 11.5598 13.7846 11.5598C13.7546 11.5598 13.7301 11.572 13.7301 11.587C13.7301 11.602 13.7056 11.6143 13.6756 11.6143C13.6456 11.6143 13.6211 11.6266 13.6211 11.6415C13.6211 11.6565 13.5965 11.6688 13.5665 11.6688C13.5366 11.6688 13.512 11.6811 13.512 11.6961C13.512 11.7111 13.4875 11.7233 13.4575 11.7233C13.4275 11.7233 13.403 11.7356 13.403 11.7506C13.403 11.7656 13.3785 11.7778 13.3485 11.7778C13.3185 11.7778 13.2939 11.7901 13.2939 11.8051C13.2939 11.8201 13.2694 11.8324 13.2394 11.8324C13.2094 11.8324 13.1849 11.8446 13.1849 11.8596C13.1849 11.8746 13.1604 11.8869 13.1304 11.8869C13.1004 11.8869 13.0759 11.8992 13.0759 11.9141C13.0759 11.9291 13.0513 11.9414 13.0213 11.9414C12.9914 11.9414 12.9668 11.9537 12.9668 11.9687C12.9668 11.9837 12.9423 11.9959 12.9123 11.9959C12.8823 11.9959 12.8578 12.0082 12.8578 12.0232C12.8578 12.0382 12.821 12.0505 12.776 12.0505C12.731 12.0505 12.6942 12.0627 12.6942 12.0777C12.6942 12.0927 12.6697 12.105 12.6397 12.105C12.6097 12.105 12.5852 12.1172 12.5852 12.1322C12.5852 12.1472 12.5606 12.1595 12.5307 12.1595C12.5007 12.1595 12.4761 12.1718 12.4761 12.1868C12.4761 12.2017 12.4393 12.214 12.3944 12.214C12.3494 12.214 12.3126 12.2263 12.3126 12.2413C12.3126 12.2563 12.288 12.2685 12.258 12.2685C12.2281 12.2685 12.2035 12.2808 12.2035 12.2958C12.2035 12.3108 12.1667 12.3231 12.1217 12.3231C12.0768 12.3231 12.04 12.3353 12.04 12.3503C12.04 12.3653 12.0154 12.3776 11.9854 12.3776C11.9555 12.3776 11.9309 12.3898 11.9309 12.4048C11.9309 12.4198 11.8941 12.4321 11.8491 12.4321C11.8042 12.4321 11.7674 12.4444 11.7674 12.4594C11.7674 12.4744 11.7306 12.4866 11.6856 12.4866C11.6406 12.4866 11.6038 12.4989 11.6038 12.5139C11.6038 12.5289 11.567 12.5411 11.522 12.5411C11.477 12.5411 11.4402 12.5534 11.4402 12.5684C11.4402 12.5834 11.4034 12.5957 11.3585 12.5957C11.3135 12.5957 11.2767 12.6079 11.2767 12.6229C11.2767 12.6379 11.2521 12.6502 11.2222 12.6502C11.1922 12.6502 11.1676 12.6624 11.1676 12.6774C11.1676 12.6924 11.1431 12.7047 11.1131 12.7047C11.0831 12.7047 11.0586 12.717 11.0586 12.732C11.0586 12.747 11.0341 12.7592 11.0041 12.7592C10.9741 12.7592 10.9495 12.7715 10.9495 12.7865C10.9495 12.8015 10.9127 12.8137 10.8678 12.8137C10.8228 12.8137 10.786 12.826 10.786 12.841C10.786 12.856 10.7492 12.8683 10.7042 12.8683C10.6592 12.8683 10.6224 12.8805 10.6224 12.8955C10.6224 12.9105 10.5856 12.9228 10.5406 12.9228C10.4957 12.9228 10.4589 12.9351 10.4589 12.95C10.4589 12.965 10.4221 12.9773 10.3771 12.9773C10.3321 12.9773 10.2953 12.9896 10.2953 13.0046C10.2953 13.0196 10.2585 13.0318 10.2135 13.0318C10.1685 13.0318 10.1317 13.0441 10.1317 13.0591C10.1317 13.0741 10.0949 13.0863 10.05 13.0863C10.005 13.0863 9.96817 13.0986 9.96817 13.1136C9.96817 13.1286 9.91911 13.1409 9.85913 13.1409C9.79916 13.1409 9.75009 13.1286 9.75009 13.1136C9.75009 13.0986 9.70102 13.0863 9.64105 13.0863C9.58108 13.0863 9.53201 13.0986 9.53201 13.1136C9.53201 13.1286 9.48294 13.1409 9.42297 13.1409C9.36299 13.1409 9.31393 13.1531 9.31393 13.1681C9.31393 13.1831 9.26486 13.1954 9.20488 13.1954C9.14491 13.1954 9.09584 13.2077 9.09584 13.2226C9.09584 13.2376 9.05171 13.2499 8.99773 13.2499C8.92388 13.2499 8.88076 13.2701 8.82324 13.3317C8.76572 13.3932 8.72259 13.4135 8.64874 13.4135C8.59477 13.4135 8.55063 13.4257 8.55063 13.4407C8.55063 13.4585 8.09628 13.468 7.24214 13.468C6.38799 13.468 5.93364 13.4585 5.93364 13.4407C5.93364 13.4244 5.82459 13.4135 5.66103 13.4135C5.49747 13.4135 5.38843 13.4026 5.38843 13.3862C5.38843 13.3711 5.31572 13.359 5.22487 13.359C5.13401 13.359 5.0613 13.3468 5.0613 13.3317C5.0613 13.3167 5.03677 13.3044 5.00678 13.3044C4.97044 13.3044 4.95226 13.2862 4.95226 13.2499C4.95226 13.2199 4.93999 13.1954 4.925 13.1954C4.91001 13.1954 4.89774 13.1709 4.89774 13.1409C4.89774 13.1109 4.88547 13.0863 4.87048 13.0863C4.85549 13.0863 4.84322 13.0618 4.84322 13.0318C4.84322 13.0018 4.83095 12.9773 4.81596 12.9773C4.80097 12.9773 4.7887 12.9528 4.7887 12.9228C4.7887 12.8928 4.77643 12.8683 4.76144 12.8683C4.74645 12.8683 4.73418 12.8315 4.73418 12.7865C4.73418 12.7415 4.72191 12.7047 4.70692 12.7047C4.69192 12.7047 4.67966 12.6802 4.67966 12.6502C4.67966 12.6202 4.66739 12.5957 4.6524 12.5957C4.6374 12.5957 4.62514 12.5711 4.62514 12.5411C4.62514 12.5112 4.61287 12.4866 4.59788 12.4866C4.58288 12.4866 4.57062 12.4498 4.57062 12.4048C4.57062 12.3599 4.55835 12.3231 4.54336 12.3231C4.52836 12.3231 4.5161 12.2863 4.5161 12.2413C4.5161 12.1963 4.50383 12.1595 4.48883 12.1595C4.47384 12.1595 4.46157 12.1227 4.46157 12.0777C4.46157 12.0327 4.44931 11.9959 4.43431 11.9959C4.41932 11.9959 4.40705 11.9469 4.40705 11.8869C4.40705 11.8269 4.39479 11.7778 4.37979 11.7778C4.3648 11.7778 4.35253 11.7288 4.35253 11.6688C4.35253 11.6088 4.34027 11.5598 4.32527 11.5598C4.31028 11.5598 4.29801 11.5107 4.29801 11.4507C4.29801 11.3907 4.28574 11.3417 4.27075 11.3417C4.25576 11.3417 4.24349 11.2803 4.24349 11.2054C4.24349 11.1304 4.23122 11.0691 4.21623 11.0691C4.20034 11.0691 4.18897 10.9782 4.18897 10.851C4.18897 10.7238 4.1776 10.6329 4.16171 10.6329C4.14448 10.6329 4.13445 10.4421 4.13445 10.115C4.13445 9.78784 4.14448 9.59702 4.16171 9.59702C4.17788 9.59702 4.18897 9.49705 4.18897 9.35167C4.18897 9.20629 4.20007 9.10633 4.21623 9.10633C4.23139 9.10633 4.24349 9.03363 4.24349 8.94277C4.24349 8.85191 4.25559 8.7792 4.27075 8.7792C4.28574 8.7792 4.29801 8.73014 4.29801 8.67016C4.29801 8.61019 4.31028 8.56112 4.32527 8.56112C4.34027 8.56112 4.35253 8.51205 4.35253 8.45208C4.35253 8.39211 4.3648 8.34304 4.37979 8.34304C4.39479 8.34304 4.40705 8.30624 4.40705 8.26126C4.40705 8.21628 4.41932 8.17948 4.43431 8.17948C4.44931 8.17948 4.46157 8.13041 4.46157 8.07043C4.46157 8.01046 4.47384 7.96139 4.48883 7.96139C4.50383 7.96139 4.5161 7.93686 4.5161 7.90687C4.5161 7.87688 4.52836 7.85235 4.54336 7.85235C4.55835 7.85235 4.57062 7.81555 4.57062 7.77057C4.57062 7.72559 4.58288 7.68879 4.59788 7.68879C4.61287 7.68879 4.62514 7.66425 4.62514 7.63427C4.62514 7.60428 4.6374 7.57975 4.6524 7.57975C4.66739 7.57975 4.67966 7.54294 4.67966 7.49797C4.67966 7.45299 4.69192 7.41618 4.70692 7.41618C4.72191 7.41618 4.73418 7.39165 4.73418 7.36166C4.73418 7.33168 4.74645 7.30714 4.76144 7.30714C4.77643 7.30714 4.7887 7.28261 4.7887 7.25262C4.7887 7.22264 4.80097 7.1981 4.81596 7.1981C4.83095 7.1981 4.84322 7.17357 4.84322 7.14358C4.84322 7.11359 4.85549 7.08906 4.87048 7.08906C4.88547 7.08906 4.89774 7.06453 4.89774 7.03454C4.89774 7.00455 4.91001 6.98002 4.925 6.98002C4.93999 6.98002 4.95226 6.95548 4.95226 6.9255C4.95226 6.89551 4.96453 6.87098 4.97952 6.87098C4.99451 6.87098 5.00678 6.84914 5.00678 6.82248C5.00678 6.79579 5.03132 6.75629 5.0613 6.73467C5.09129 6.71306 5.11582 6.67356 5.11582 6.64687C5.11582 6.62021 5.12809 6.59837 5.14308 6.59837C5.15808 6.59837 5.17034 6.57654 5.17034 6.54988C5.17034 6.52319 5.19488 6.48369 5.22487 6.46207C5.25485 6.44045 5.27939 6.40586 5.27939 6.3852C5.27939 6.36456 5.31619 6.31326 5.36117 6.27125C5.40615 6.22924 5.44295 6.18017 5.44295 6.16221C5.44295 6.14424 5.47975 6.09517 5.52473 6.05316C5.56971 6.01116 5.60651 5.96261 5.60651 5.9453C5.60651 5.92801 5.68011 5.8416 5.77007 5.7533C5.86003 5.665 5.93364 5.57954 5.93364 5.5634C5.93364 5.52524 6.22336 5.23535 6.2615 5.23535C6.27753 5.23535 6.37534 5.14948 6.47884 5.04453C6.58235 4.93958 6.68332 4.85371 6.70322 4.85371C6.72312 4.85371 6.75709 4.82917 6.77871 4.79919C6.80033 4.7692 6.83492 4.74467 6.85558 4.74467C6.87622 4.74467 6.92752 4.70786 6.96953 4.66288C7.01154 4.6179 7.06554 4.5811 7.0895 4.5811C7.11349 4.5811 7.13309 4.56884 7.13309 4.55384C7.13309 4.53885 7.15493 4.52658 7.18159 4.52658C7.20828 4.52658 7.24778 4.50205 7.2694 4.47206C7.29101 4.44208 7.32781 4.41754 7.35118 4.41754C7.37454 4.41754 7.41134 4.39301 7.43296 4.36302C7.45458 4.33303 7.49408 4.3085 7.52076 4.3085C7.54742 4.3085 7.56926 4.29623 7.56926 4.28124C7.56926 4.26625 7.59379 4.25398 7.62378 4.25398C7.65377 4.25398 7.6783 4.24171 7.6783 4.22672C7.6783 4.21172 7.70284 4.19946 7.73282 4.19946C7.76281 4.19946 7.78734 4.18719 7.78734 4.1722C7.78734 4.1572 7.81188 4.14494 7.84186 4.14494C7.87185 4.14494 7.89638 4.13267 7.89638 4.11768C7.89638 4.10268 7.92092 4.09042 7.95091 4.09042C7.98089 4.09042 8.00543 4.07815 8.00543 4.06316C8.00543 4.04816 8.02996 4.0359 8.05995 4.0359C8.08993 4.0359 8.11447 4.02363 8.11447 4.00863C8.11447 3.99364 8.15127 3.98137 8.19625 3.98137C8.24123 3.98137 8.27803 3.96911 8.27803 3.95411C8.27803 3.93912 8.30256 3.92685 8.33255 3.92685C8.36254 3.92685 8.38707 3.91459 8.38707 3.89959C8.38707 3.8846 8.42387 3.87233 8.46885 3.87233C8.51383 3.87233 8.55063 3.86007 8.55063 3.84507C8.55063 3.83008 8.58744 3.81781 8.63242 3.81781C8.67739 3.81781 8.7142 3.80554 8.7142 3.79055C8.7142 3.77556 8.751 3.76329 8.79598 3.76329C8.84096 3.76329 8.87776 3.75102 8.87776 3.73603C8.87776 3.72104 8.92683 3.70877 8.9868 3.70877C9.04677 3.70877 9.09584 3.6965 9.09584 3.68151C9.09584 3.66652 9.14491 3.65425 9.20488 3.65425C9.26486 3.65425 9.31393 3.64198 9.31393 3.62699C9.31393 3.612 9.36299 3.59973 9.42297 3.59973C9.48294 3.59973 9.53201 3.58746 9.53201 3.57247C9.53201 3.55731 9.60471 3.54521 9.69557 3.54521C9.78643 3.54521 9.85913 3.5331 9.85913 3.51795C9.85913 3.50178 9.9591 3.49069 10.1045 3.49069C10.2499 3.49069 10.3498 3.47959 10.3498 3.46343C10.3498 3.44633 10.5225 3.43617 10.8132 3.43617C11.104 3.43617 11.2767 3.44633 11.2767 3.46343ZM14.766 4.00863C14.766 4.02379 14.8387 4.0359 14.9296 4.0359C15.0204 4.0359 15.0931 4.048 15.0931 4.06316C15.0931 4.07815 15.1545 4.09042 15.2294 4.09042C15.3044 4.09042 15.3657 4.10268 15.3657 4.11768C15.3657 4.13267 15.4148 4.14494 15.4748 4.14494C15.5347 4.14494 15.5838 4.1572 15.5838 4.1722C15.5838 4.18719 15.6329 4.19946 15.6929 4.19946C15.7528 4.19946 15.8019 4.21172 15.8019 4.22672C15.8019 4.24171 15.8387 4.25398 15.8837 4.25398C15.9287 4.25398 15.9655 4.26625 15.9655 4.28124C15.9655 4.29623 16.0023 4.3085 16.0472 4.3085C16.0922 4.3085 16.129 4.32077 16.129 4.33576C16.129 4.35075 16.1658 4.36302 16.2108 4.36302C16.2558 4.36302 16.2926 4.37529 16.2926 4.39028C16.2926 4.40527 16.3294 4.41754 16.3744 4.41754C16.4193 4.41754 16.4561 4.42981 16.4561 4.4448C16.4561 4.45979 16.493 4.47206 16.5379 4.47206C16.5829 4.47206 16.6197 4.48433 16.6197 4.49932C16.6197 4.51432 16.6442 4.52658 16.6742 4.52658C16.7042 4.52658 16.7288 4.53885 16.7288 4.55384C16.7288 4.56884 16.7533 4.5811 16.7833 4.5811C16.8133 4.5811 16.8378 4.59337 16.8378 4.60836C16.8378 4.62336 16.8623 4.63562 16.8923 4.63562C16.9223 4.63562 16.9468 4.64789 16.9468 4.66288C16.9468 4.67788 16.9714 4.69014 17.0014 4.69014C17.0313 4.69014 17.0559 4.70241 17.0559 4.7174C17.0559 4.7324 17.0804 4.74467 17.1104 4.74467C17.1404 4.74467 17.1649 4.75693 17.1649 4.77193C17.1649 4.78692 17.1895 4.79919 17.2194 4.79919C17.2494 4.79919 17.274 4.81145 17.274 4.82645C17.274 4.84144 17.2985 4.85371 17.3285 4.85371C17.3585 4.85371 17.383 4.86597 17.383 4.88097C17.383 4.89596 17.4075 4.90823 17.4375 4.90823C17.4675 4.90823 17.492 4.92049 17.492 4.93549C17.492 4.95048 17.5139 4.96275 17.5405 4.96275C17.5672 4.96275 17.6067 4.98728 17.6283 5.01727C17.65 5.04726 17.6895 5.07179 17.7162 5.07179C17.7428 5.07179 17.7646 5.08406 17.7646 5.09905C17.7646 5.11404 17.784 5.12631 17.8077 5.12631C17.8314 5.12631 17.8978 5.17538 17.9555 5.23535C18.0131 5.29533 18.0736 5.34439 18.0899 5.34439C18.129 5.34439 18.746 5.9619 18.746 6.00104C18.746 6.01767 18.7828 6.06568 18.8278 6.10769C18.8728 6.14969 18.9096 6.201 18.9096 6.22163C18.9096 6.2423 18.9341 6.27689 18.9641 6.29851C18.9941 6.32013 19.0186 6.35963 19.0186 6.38631C19.0186 6.41297 19.0309 6.43481 19.0459 6.43481C19.0609 6.43481 19.0731 6.45934 19.0731 6.48933C19.0731 6.51932 19.0854 6.54385 19.1004 6.54385C19.1154 6.54385 19.1277 6.56839 19.1277 6.59837C19.1277 6.62836 19.1399 6.65289 19.1549 6.65289C19.1699 6.65289 19.1822 6.68969 19.1822 6.73467C19.1822 6.77965 19.1945 6.81646 19.2094 6.81646C19.2244 6.81646 19.2367 6.84099 19.2367 6.87098C19.2367 6.90096 19.249 6.9255 19.264 6.9255C19.279 6.9255 19.2912 6.97457 19.2912 7.03454C19.2912 7.09451 19.3035 7.14358 19.3185 7.14358C19.3336 7.14358 19.3458 7.21628 19.3458 7.30714C19.3458 7.398 19.3579 7.47071 19.373 7.47071C19.3897 7.47071 19.4003 7.59793 19.4003 7.79783C19.4003 7.99773 19.3897 8.12495 19.373 8.12495C19.3579 8.12495 19.3458 8.19766 19.3458 8.28852C19.3458 8.37938 19.3336 8.45208 19.3185 8.45208C19.3035 8.45208 19.2912 8.50115 19.2912 8.56112C19.2912 8.62109 19.279 8.67016 19.264 8.67016C19.249 8.67016 19.2367 8.70696 19.2367 8.75194C19.2367 8.79692 19.2244 8.83372 19.2094 8.83372C19.1945 8.83372 19.1822 8.87053 19.1822 8.91551C19.1822 8.96049 19.1699 8.99729 19.1549 8.99729C19.1399 8.99729 19.1277 9.02182 19.1277 9.05181C19.1277 9.08179 19.1154 9.10633 19.1004 9.10633C19.0854 9.10633 19.0731 9.13086 19.0731 9.16085C19.0731 9.19084 19.0609 9.21537 19.0459 9.21537C19.0309 9.21537 19.0186 9.2399 19.0186 9.26989C19.0186 9.29988 19.0064 9.32441 18.9914 9.32441C18.9764 9.32441 18.9641 9.34895 18.9641 9.37893C18.9641 9.40892 18.9518 9.43345 18.9368 9.43345C18.9219 9.43345 18.9096 9.45529 18.9096 9.48195C18.9096 9.50864 18.885 9.54814 18.8551 9.56976C18.8251 9.59137 18.8005 9.62817 18.8005 9.65154C18.8005 9.6749 18.776 9.7117 18.746 9.73332C18.716 9.75494 18.6915 9.78953 18.6915 9.81019C18.6915 9.83083 18.6547 9.88213 18.6097 9.92414C18.5647 9.96615 18.5279 10.0141 18.5279 10.0307C18.5279 10.0697 17.5836 11.0146 17.5446 11.0146C17.5284 11.0146 17.4679 11.0636 17.4103 11.1236C17.3526 11.1836 17.2913 11.2326 17.274 11.2326C17.2566 11.2326 17.1953 11.2817 17.1377 11.3417C17.08 11.4017 17.0184 11.4507 17.0008 11.4507C16.9831 11.4507 16.9343 11.4875 16.8923 11.5325C16.8503 11.5775 16.799 11.6143 16.7784 11.6143C16.7577 11.6143 16.7231 11.6388 16.7015 11.6688C16.6799 11.6988 16.6431 11.7233 16.6197 11.7233C16.5963 11.7233 16.5595 11.7479 16.5379 11.7778C16.5163 11.8078 16.4795 11.8324 16.4561 11.8324C16.4328 11.8324 16.396 11.8569 16.3744 11.8869C16.3527 11.9169 16.3159 11.9414 16.2926 11.9414C16.2692 11.9414 16.2324 11.9659 16.2108 11.9959C16.1892 12.0259 16.1524 12.0505 16.129 12.0505C16.1057 12.0505 16.0689 12.075 16.0472 12.105C16.0256 12.135 15.9861 12.1595 15.9594 12.1595C15.9328 12.1595 15.9109 12.1718 15.9109 12.1868C15.9109 12.2017 15.8864 12.214 15.8564 12.214C15.8264 12.214 15.8019 12.2263 15.8019 12.2413C15.8019 12.2563 15.7801 12.2685 15.7534 12.2685C15.7267 12.2685 15.6872 12.2931 15.6656 12.3231C15.644 12.353 15.6045 12.3776 15.5778 12.3776C15.5511 12.3776 15.5293 12.3898 15.5293 12.4048C15.5293 12.4198 15.5048 12.4321 15.4748 12.4321C15.4448 12.4321 15.4203 12.4444 15.4203 12.4594C15.4203 12.4744 15.3957 12.4866 15.3657 12.4866C15.3357 12.4866 15.3112 12.4989 15.3112 12.5139C15.3112 12.5289 15.2867 12.5411 15.2567 12.5411C15.2267 12.5411 15.2022 12.5534 15.2022 12.5684C15.2022 12.5834 15.1776 12.5957 15.1476 12.5957C15.1177 12.5957 15.0931 12.6079 15.0931 12.6229C15.0931 12.6379 15.0686 12.6502 15.0386 12.6502C15.0086 12.6502 14.9841 12.6624 14.9841 12.6774C14.9841 12.6924 14.9596 12.7047 14.9296 12.7047C14.8996 12.7047 14.875 12.717 14.875 12.732C14.875 12.747 14.8505 12.7592 14.8205 12.7592C14.7905 12.7592 14.766 12.7715 14.766 12.7865C14.766 12.8015 14.7415 12.8137 14.7115 12.8137C14.6815 12.8137 14.657 12.826 14.657 12.841C14.657 12.856 14.6324 12.8683 14.6024 12.8683C14.5725 12.8683 14.5479 12.8805 14.5479 12.8955C14.5479 12.9105 14.5234 12.9228 14.4934 12.9228C14.4634 12.9228 14.4389 12.9351 14.4389 12.95C14.4389 12.965 14.4021 12.9773 14.3571 12.9773C14.3121 12.9773 14.2753 12.9896 14.2753 13.0046C14.2753 13.0196 14.2508 13.0318 14.2208 13.0318C14.1908 13.0318 14.1663 13.0441 14.1663 13.0591C14.1663 13.0741 14.1417 13.0863 14.1118 13.0863C14.0818 13.0863 14.0572 13.0986 14.0572 13.1136C14.0572 13.1286 14.0204 13.1409 13.9755 13.1409C13.9305 13.1409 13.8937 13.1531 13.8937 13.1681C13.8937 13.1831 13.8691 13.1954 13.8392 13.1954C13.8092 13.1954 13.7846 13.2077 13.7846 13.2226C13.7846 13.2376 13.7478 13.2499 13.7028 13.2499C13.6579 13.2499 13.6211 13.2622 13.6211 13.2772C13.6211 13.2922 13.5843 13.3044 13.5393 13.3044C13.4943 13.3044 13.4575 13.3167 13.4575 13.3317C13.4575 13.3467 13.433 13.359 13.403 13.359C13.373 13.359 13.3485 13.3712 13.3485 13.3862C13.3485 13.4012 13.3117 13.4135 13.2667 13.4135C13.2217 13.4135 13.1849 13.4257 13.1849 13.4407C13.1849 13.4557 13.1481 13.468 13.1031 13.468C13.0581 13.468 13.0213 13.4803 13.0213 13.4953C13.0213 13.5102 12.9845 13.5225 12.9396 13.5225C12.8946 13.5225 12.8578 13.5348 12.8578 13.5498C12.8578 13.5648 12.8087 13.577 12.7487 13.577C12.6888 13.577 12.6397 13.5893 12.6397 13.6043C12.6397 13.6193 12.6029 13.6316 12.5579 13.6316C12.5129 13.6316 12.4761 13.6438 12.4761 13.6588C12.4761 13.6738 12.4393 13.6861 12.3944 13.6861C12.3494 13.6861 12.3126 13.6983 12.3126 13.7133C12.3126 13.7283 12.2758 13.7406 12.2308 13.7406C12.1858 13.7406 12.149 13.7529 12.149 13.7679C12.149 13.7829 12.0999 13.7951 12.04 13.7951C11.98 13.7951 11.9309 13.8074 11.9309 13.8224C11.9309 13.8374 11.8941 13.8496 11.8491 13.8496C11.8042 13.8496 11.7674 13.8619 11.7674 13.8769C11.7674 13.8919 11.7183 13.9042 11.6583 13.9042C11.5983 13.9042 11.5493 13.9164 11.5493 13.9314C11.5493 13.9464 11.4879 13.9587 11.413 13.9587C11.338 13.9587 11.2767 13.9709 11.2767 13.9859C11.2767 14.0009 11.2276 14.0132 11.1676 14.0132C11.1077 14.0132 11.0586 14.0255 11.0586 14.0405C11.0586 14.0555 10.9973 14.0677 10.9223 14.0677C10.8473 14.0677 10.786 14.08 10.786 14.095C10.786 14.11 10.7247 14.1222 10.6497 14.1222C10.5747 14.1222 10.5134 14.1345 10.5134 14.1495C10.5134 14.1645 10.452 14.1768 10.3771 14.1768C10.3021 14.1768 10.2408 14.189 10.2408 14.204C10.2408 14.2196 10.159 14.2313 10.05 14.2313C9.94091 14.2313 9.85913 14.243 9.85913 14.2585C9.85913 14.2737 9.78643 14.2858 9.69557 14.2858C9.60471 14.2858 9.53201 14.2979 9.53201 14.3131C9.53201 14.329 9.44115 14.3403 9.31393 14.3403C9.1867 14.3403 9.09584 14.3517 9.09584 14.3676C9.09584 14.3842 8.96862 14.3948 8.76872 14.3948C8.56882 14.3948 8.44159 14.4054 8.44159 14.4221C8.44159 14.4394 8.22351 14.4494 7.84186 14.4494C7.46022 14.4494 7.24214 14.4394 7.24214 14.4221C7.24214 14.4052 7.08765 14.3948 6.83323 14.3948C6.57881 14.3948 6.42432 14.3845 6.42432 14.3676C6.42432 14.3514 6.32436 14.3403 6.17898 14.3403C6.0336 14.3403 5.93364 14.3292 5.93364 14.3131C5.93364 14.2981 5.8723 14.2858 5.79733 14.2858C5.72237 14.2858 5.66103 14.2735 5.66103 14.2585C5.66103 14.2436 5.5997 14.2313 5.52473 14.2313C5.44976 14.2313 5.38843 14.219 5.38843 14.204C5.38843 14.189 5.33936 14.1768 5.27939 14.1768C5.21941 14.1768 5.17034 14.1645 5.17034 14.1495C5.17034 14.1345 5.12128 14.1222 5.0613 14.1222C5.00133 14.1222 4.95226 14.11 4.95226 14.095C4.95226 14.08 4.90319 14.0677 4.84322 14.0677C4.78325 14.0677 4.73418 14.0555 4.73418 14.0405C4.73418 14.0255 4.69738 14.0132 4.6524 14.0132C4.60742 14.0132 4.57062 14.0009 4.57062 13.9859C4.57062 13.9709 4.53381 13.9587 4.48883 13.9587C4.44385 13.9587 4.40705 13.9464 4.40705 13.9314C4.40705 13.9164 4.38252 13.9042 4.35253 13.9042C4.32255 13.9042 4.29801 13.8919 4.29801 13.8769C4.29801 13.8619 4.26121 13.8496 4.21623 13.8496C4.17125 13.8496 4.13445 13.8374 4.13445 13.8224C4.13445 13.8074 4.10992 13.7951 4.07993 13.7951C4.04994 13.7951 4.02541 13.7829 4.02541 13.7679C4.02541 13.7529 4.00087 13.7406 3.97089 13.7406C3.9409 13.7406 3.91637 13.7283 3.91637 13.7133C3.91637 13.6983 3.87956 13.6861 3.83459 13.6861C3.78961 13.6861 3.7528 13.6738 3.7528 13.6588C3.7528 13.6438 3.73097 13.6316 3.70431 13.6316C3.67762 13.6316 3.63812 13.607 3.6165 13.577C3.59488 13.547 3.55538 13.5225 3.5287 13.5225C3.50204 13.5225 3.4802 13.5102 3.4802 13.4953C3.4802 13.4803 3.45567 13.468 3.42568 13.468C3.39569 13.468 3.37116 13.4557 3.37116 13.4407C3.37116 13.4257 3.34932 13.4135 3.32266 13.4135C3.29597 13.4135 3.25647 13.3889 3.23486 13.359C3.21324 13.329 3.17865 13.3044 3.15798 13.3044C3.13735 13.3044 3.08604 13.2676 3.04403 13.2226C3.00203 13.1777 2.95328 13.1409 2.93573 13.1409C2.89012 13.1409 2.81554 13.0601 2.84007 13.0373C2.85141 13.0268 2.86616 13.0335 2.87284 13.0523C2.87954 13.071 2.90852 13.0863 2.93725 13.0863C2.96599 13.0863 2.98951 13.0986 2.98951 13.1136C2.98951 13.1286 3.01405 13.1409 3.04403 13.1409C3.07402 13.1409 3.09855 13.1531 3.09855 13.1681C3.09855 13.1831 3.12309 13.1954 3.15308 13.1954C3.18306 13.1954 3.2076 13.2077 3.2076 13.2226C3.2076 13.2376 3.23213 13.2499 3.26212 13.2499C3.2921 13.2499 3.31664 13.2622 3.31664 13.2772C3.31664 13.2922 3.34117 13.3044 3.37116 13.3044C3.40114 13.3044 3.42568 13.3167 3.42568 13.3317C3.42568 13.3467 3.46248 13.359 3.50746 13.359C3.55244 13.359 3.58924 13.3712 3.58924 13.3862C3.58924 13.4012 3.62604 13.4135 3.67102 13.4135C3.716 13.4135 3.7528 13.4257 3.7528 13.4407C3.7528 13.4557 3.77734 13.468 3.80732 13.468C3.83731 13.468 3.86185 13.4803 3.86185 13.4953C3.86185 13.5102 3.91091 13.5225 3.97089 13.5225C4.03086 13.5225 4.07993 13.5348 4.07993 13.5498C4.07993 13.5648 4.11673 13.577 4.16171 13.577C4.20669 13.577 4.24349 13.5893 4.24349 13.6043C4.24349 13.6193 4.29256 13.6316 4.35253 13.6316C4.41251 13.6316 4.46157 13.6438 4.46157 13.6588C4.46157 13.6738 4.52291 13.6861 4.59788 13.6861C4.67284 13.6861 4.73418 13.6983 4.73418 13.7133C4.73418 13.7283 4.78325 13.7406 4.84322 13.7406C4.90319 13.7406 4.95226 13.7529 4.95226 13.7679C4.95226 13.7834 5.03404 13.7951 5.14308 13.7951C5.25213 13.7951 5.33391 13.8068 5.33391 13.8224C5.33391 13.8379 5.41569 13.8496 5.52473 13.8496C5.63377 13.8496 5.71555 13.8613 5.71555 13.8769C5.71555 13.8946 6.06994 13.9042 6.72419 13.9042C7.37844 13.9042 7.73282 13.8946 7.73282 13.8769C7.73282 13.8605 7.84186 13.8496 8.00543 13.8496C8.16899 13.8496 8.27803 13.8387 8.27803 13.8224C8.27803 13.8068 8.35981 13.7951 8.46885 13.7951C8.57789 13.7951 8.65968 13.7834 8.65968 13.7679C8.65968 13.7527 8.73238 13.7406 8.82324 13.7406C8.9141 13.7406 8.9868 13.7285 8.9868 13.7133C8.9868 13.6983 9.04814 13.6861 9.1231 13.6861C9.19807 13.6861 9.2594 13.6738 9.2594 13.6588C9.2594 13.6438 9.32074 13.6316 9.39571 13.6316C9.47067 13.6316 9.53201 13.6193 9.53201 13.6043C9.53201 13.5893 9.58108 13.577 9.64105 13.577C9.70102 13.577 9.75009 13.5648 9.75009 13.5498C9.75009 13.5348 9.79916 13.5225 9.85913 13.5225C9.91911 13.5225 9.96817 13.5102 9.96817 13.4953C9.96817 13.4803 10.0172 13.468 10.0772 13.468C10.1372 13.468 10.1863 13.4557 10.1863 13.4407C10.1863 13.4257 10.2353 13.4135 10.2953 13.4135C10.3553 13.4135 10.4043 13.4012 10.4043 13.3862C10.4043 13.3712 10.4534 13.359 10.5134 13.359C10.5734 13.359 10.6224 13.3467 10.6224 13.3317C10.6224 13.3167 10.6715 13.3044 10.7315 13.3044C10.7914 13.3044 10.8405 13.2922 10.8405 13.2772C10.8405 13.2622 10.8773 13.2499 10.9223 13.2499C10.9673 13.2499 11.0041 13.2376 11.0041 13.2226C11.0041 13.2077 11.0409 13.1954 11.0859 13.1954C11.1308 13.1954 11.1676 13.1831 11.1676 13.1681C11.1676 13.1531 11.2167 13.1409 11.2767 13.1409C11.3366 13.1409 11.3857 13.1286 11.3857 13.1136C11.3857 13.0986 11.4225 13.0863 11.4675 13.0863C11.5125 13.0863 11.5493 13.0741 11.5493 13.0591C11.5493 13.0441 11.5738 13.0318 11.6038 13.0318C11.6338 13.0318 11.6583 13.0196 11.6583 13.0046C11.6583 12.9896 11.6951 12.9773 11.7401 12.9773C11.7851 12.9773 11.8219 12.965 11.8219 12.95C11.8219 12.9351 11.8587 12.9228 11.9037 12.9228C11.9486 12.9228 11.9854 12.9105 11.9854 12.8955C11.9854 12.8805 12.0222 12.8683 12.0672 12.8683C12.1122 12.8683 12.149 12.856 12.149 12.841C12.149 12.826 12.1735 12.8137 12.2035 12.8137C12.2335 12.8137 12.258 12.8015 12.258 12.7865C12.258 12.7715 12.2948 12.7592 12.3398 12.7592C12.3848 12.7592 12.4216 12.747 12.4216 12.732C12.4216 12.717 12.4584 12.7047 12.5034 12.7047C12.5484 12.7047 12.5852 12.6924 12.5852 12.6774C12.5852 12.6624 12.6097 12.6502 12.6397 12.6502C12.6697 12.6502 12.6942 12.6379 12.6942 12.6229C12.6942 12.6079 12.7187 12.5957 12.7487 12.5957C12.7787 12.5957 12.8033 12.5834 12.8033 12.5684C12.8033 12.5534 12.8401 12.5411 12.885 12.5411C12.93 12.5411 12.9668 12.5289 12.9668 12.5139C12.9668 12.4989 12.9914 12.4866 13.0213 12.4866C13.0513 12.4866 13.0759 12.4744 13.0759 12.4594C13.0759 12.4444 13.1004 12.4321 13.1304 12.4321C13.1604 12.4321 13.1849 12.4198 13.1849 12.4048C13.1849 12.3898 13.2094 12.3776 13.2394 12.3776C13.2694 12.3776 13.2939 12.3653 13.2939 12.3503C13.2939 12.3353 13.3185 12.3231 13.3485 12.3231C13.3785 12.3231 13.403 12.3108 13.403 12.2958C13.403 12.2808 13.4275 12.2685 13.4575 12.2685C13.4875 12.2685 13.512 12.2563 13.512 12.2413C13.512 12.2263 13.5366 12.214 13.5665 12.214C13.5965 12.214 13.6211 12.2017 13.6211 12.1868C13.6211 12.1718 13.6456 12.1595 13.6756 12.1595C13.7056 12.1595 13.7301 12.1472 13.7301 12.1322C13.7301 12.1172 13.7546 12.105 13.7846 12.105C13.8146 12.105 13.8392 12.0927 13.8392 12.0777C13.8392 12.0627 13.8637 12.0505 13.8937 12.0505C13.9237 12.0505 13.9482 12.0382 13.9482 12.0232C13.9482 12.0082 13.9727 11.9959 14.0027 11.9959C14.0327 11.9959 14.0572 11.9837 14.0572 11.9687C14.0572 11.9537 14.0818 11.9414 14.1118 11.9414C14.1417 11.9414 14.1663 11.9291 14.1663 11.9141C14.1663 11.8992 14.1881 11.8869 14.2148 11.8869C14.2415 11.8869 14.281 11.8624 14.3026 11.8324C14.3242 11.8024 14.3637 11.7778 14.3904 11.7778C14.417 11.7778 14.4389 11.7656 14.4389 11.7506C14.4389 11.7356 14.4634 11.7233 14.4934 11.7233C14.5234 11.7233 14.5479 11.7111 14.5479 11.6961C14.5479 11.6811 14.5698 11.6688 14.5964 11.6688C14.6231 11.6688 14.6626 11.6443 14.6842 11.6143C14.7058 11.5843 14.7426 11.5598 14.766 11.5598C14.7894 11.5598 14.8262 11.5352 14.8478 11.5052C14.8694 11.4753 14.9062 11.4507 14.9296 11.4507C14.9529 11.4507 14.9897 11.4262 15.0113 11.3962C15.033 11.3662 15.0698 11.3417 15.0931 11.3417C15.1165 11.3417 15.1533 11.3171 15.1749 11.2872C15.1965 11.2572 15.2333 11.2326 15.2567 11.2326C15.2801 11.2326 15.3169 11.2081 15.3385 11.1781C15.3601 11.1481 15.3969 11.1236 15.4203 11.1236C15.4436 11.1236 15.4804 11.0991 15.502 11.0691C15.5237 11.0391 15.558 11.0146 15.5783 11.0146C15.5987 11.0146 15.6625 10.9655 15.7201 10.9055C15.7777 10.8455 15.8391 10.7965 15.8564 10.7965C15.8738 10.7965 15.9351 10.7474 15.9927 10.6874C16.0504 10.6275 16.1108 10.5784 16.1271 10.5784C16.166 10.5784 17.2194 9.52445 17.2194 9.48547C17.2194 9.46889 17.2562 9.42094 17.3012 9.37893C17.3462 9.33692 17.383 9.28292 17.383 9.25896C17.383 9.23497 17.3953 9.21537 17.4103 9.21537C17.4253 9.21537 17.4375 9.19353 17.4375 9.16687C17.4375 9.14019 17.4621 9.10069 17.492 9.07907C17.522 9.05745 17.5466 9.01795 17.5466 8.99126C17.5466 8.9646 17.5588 8.94277 17.5738 8.94277C17.5888 8.94277 17.6011 8.90596 17.6011 8.86099C17.6011 8.81601 17.6134 8.7792 17.6283 8.7792C17.6433 8.7792 17.6556 8.75467 17.6556 8.72468C17.6556 8.6947 17.6679 8.67016 17.6829 8.67016C17.6979 8.67016 17.7101 8.63336 17.7101 8.58838C17.7101 8.5434 17.7224 8.5066 17.7374 8.5066C17.7524 8.5066 17.7646 8.45753 17.7646 8.39756C17.7646 8.33759 17.7769 8.28852 17.7919 8.28852C17.809 8.28852 17.8192 8.11588 17.8192 7.82509C17.8192 7.5343 17.809 7.36166 17.7919 7.36166C17.7769 7.36166 17.7646 7.32486 17.7646 7.27988C17.7646 7.2349 17.7524 7.1981 17.7374 7.1981C17.7224 7.1981 17.7101 7.1613 17.7101 7.11632C17.7101 7.07134 17.6979 7.03454 17.6829 7.03454C17.6679 7.03454 17.6556 7.01 17.6556 6.98002C17.6556 6.95003 17.6433 6.9255 17.6283 6.9255C17.6134 6.9255 17.6011 6.90096 17.6011 6.87098C17.6011 6.84099 17.5888 6.81646 17.5738 6.81646C17.5588 6.81646 17.5466 6.79462 17.5466 6.76796C17.5466 6.74127 17.522 6.70177 17.492 6.68015C17.4621 6.65854 17.4375 6.62498 17.4375 6.60554C17.4375 6.56282 17.0419 6.16221 16.9997 6.16221C16.9833 6.16221 16.9227 6.11314 16.8651 6.05316C16.8074 5.99319 16.7436 5.94412 16.7233 5.94412C16.7029 5.94412 16.6686 5.91959 16.647 5.8896C16.6254 5.85962 16.5917 5.83508 16.5722 5.83508C16.5304 5.83508 16.2381 5.54923 16.2381 5.50834C16.2381 5.47069 15.4015 4.63562 15.3638 4.63562C15.3475 4.63562 15.2871 4.58656 15.2294 4.52658C15.1718 4.46661 15.1102 4.41754 15.0926 4.41754C15.0749 4.41754 15.0261 4.38074 14.9841 4.33576C14.9421 4.29078 14.8908 4.25398 14.8701 4.25398C14.8495 4.25398 14.8149 4.22944 14.7933 4.19946C14.7716 4.16947 14.7348 4.14494 14.7115 4.14494C14.6881 4.14494 14.6513 4.1204 14.6297 4.09042C14.6081 4.06043 14.5686 4.0359 14.5419 4.0359C14.5152 4.0359 14.4934 4.02363 14.4934 4.00863C14.4934 3.99364 14.5547 3.98137 14.6297 3.98137C14.7047 3.98137 14.766 3.99364 14.766 4.00863ZM2.06266 9.6788C2.06266 9.69379 2.07493 9.70606 2.08992 9.70606C2.10491 9.70606 2.11718 9.69379 2.11718 9.6788C2.11718 9.6638 2.10491 9.65154 2.08992 9.65154C2.07493 9.65154 2.06266 9.6638 2.06266 9.6788ZM2.00814 9.84236C2.00814 9.85735 2.02041 9.86962 2.0354 9.86962C2.05039 9.86962 2.06266 9.85735 2.06266 9.84236C2.06266 9.82737 2.05039 9.8151 2.0354 9.8151C2.02041 9.8151 2.00814 9.82737 2.00814 9.84236ZM16.2381 13.8932C16.2381 13.9172 16.2013 13.9712 16.1563 14.0132C16.1113 14.0552 16.0745 14.1039 16.0745 14.1213C16.0745 14.1388 16.0132 14.2128 15.9382 14.2858C15.8632 14.3588 15.8019 14.4318 15.8019 14.4479C15.8019 14.4864 15.1298 15.1581 15.0912 15.1581C15.0749 15.1581 15.0145 15.2072 14.9568 15.2672C14.8992 15.3272 14.8376 15.3762 14.82 15.3762C14.8023 15.3762 14.7535 15.413 14.7115 15.458C14.6695 15.503 14.6182 15.5398 14.5975 15.5398C14.5769 15.5398 14.5423 15.5643 14.5207 15.5943C14.499 15.6243 14.4622 15.6488 14.4389 15.6488C14.4155 15.6488 14.3787 15.6734 14.3571 15.7033C14.3355 15.7333 14.296 15.7579 14.2693 15.7579C14.2426 15.7579 14.2208 15.7701 14.2208 15.7851C14.2208 15.8001 14.1963 15.8124 14.1663 15.8124C14.1363 15.8124 14.1118 15.8247 14.1118 15.8396C14.1118 15.8546 14.0899 15.8669 14.0633 15.8669C14.0366 15.8669 13.9971 15.8914 13.9755 15.9214C13.9538 15.9514 13.9143 15.9759 13.8876 15.9759C13.861 15.9759 13.8392 15.9882 13.8392 16.0032C13.8392 16.0182 13.8146 16.0305 13.7846 16.0305C13.7546 16.0305 13.7301 16.0427 13.7301 16.0577C13.7301 16.0727 13.6933 16.085 13.6483 16.085C13.6033 16.085 13.5665 16.0973 13.5665 16.1123C13.5665 16.1272 13.542 16.1395 13.512 16.1395C13.482 16.1395 13.4575 16.1518 13.4575 16.1668C13.4575 16.1818 13.433 16.194 13.403 16.194C13.373 16.194 13.3485 16.2063 13.3485 16.2213C13.3485 16.2363 13.3117 16.2486 13.2667 16.2486C13.2217 16.2486 13.1849 16.2608 13.1849 16.2758C13.1849 16.2908 13.1604 16.3031 13.1304 16.3031C13.1004 16.3031 13.0759 16.3153 13.0759 16.3303C13.0759 16.3453 13.0391 16.3576 12.9941 16.3576C12.9491 16.3576 12.9123 16.3699 12.9123 16.3849C12.9123 16.3998 12.8755 16.4121 12.8305 16.4121C12.7855 16.4121 12.7487 16.4244 12.7487 16.4394C12.7487 16.4544 12.6997 16.4666 12.6397 16.4666C12.5797 16.4666 12.5307 16.4789 12.5307 16.4939C12.5307 16.5089 12.4816 16.5212 12.4216 16.5212C12.3616 16.5212 12.3126 16.5334 12.3126 16.5484C12.3126 16.5634 12.2635 16.5757 12.2035 16.5757C12.1436 16.5757 12.0945 16.5879 12.0945 16.6029C12.0945 16.6185 12.0127 16.6302 11.9037 16.6302C11.7946 16.6302 11.7128 16.6419 11.7128 16.6575C11.7128 16.6734 11.622 16.6847 11.4948 16.6847C11.3675 16.6847 11.2767 16.6961 11.2767 16.712C11.2767 16.7292 11.0859 16.7392 10.7587 16.7392C10.4316 16.7392 10.2408 16.7292 10.2408 16.712C10.2408 16.6958 10.1408 16.6847 9.99543 16.6847C9.85006 16.6847 9.75009 16.6736 9.75009 16.6575C9.75009 16.6423 9.67739 16.6302 9.58653 16.6302C9.49567 16.6302 9.42297 16.6181 9.42297 16.6029C9.42297 16.5879 9.3739 16.5757 9.31393 16.5757C9.25395 16.5757 9.20488 16.5634 9.20488 16.5484C9.20488 16.5334 9.15582 16.5212 9.09584 16.5212C9.03587 16.5212 8.9868 16.5089 8.9868 16.4939C8.9868 16.4789 8.95 16.4666 8.90502 16.4666C8.86004 16.4666 8.82324 16.4544 8.82324 16.4394C8.82324 16.4244 8.78644 16.4121 8.74146 16.4121C8.69648 16.4121 8.65968 16.3998 8.65968 16.3849C8.65968 16.3699 8.63514 16.3576 8.60515 16.3576C8.57517 16.3576 8.55063 16.3453 8.55063 16.3303C8.55063 16.3153 8.51383 16.3031 8.46885 16.3031C8.42387 16.3031 8.38707 16.2908 8.38707 16.2758C8.38707 16.2608 8.35027 16.2486 8.30529 16.2486C8.26031 16.2486 8.22351 16.2363 8.22351 16.2213C8.22351 16.2063 8.19898 16.194 8.16899 16.194C8.139 16.194 8.11447 16.1818 8.11447 16.1668C8.11447 16.1518 8.07767 16.1395 8.03269 16.1395C7.98771 16.1395 7.95091 16.1272 7.95091 16.1123C7.95091 16.0973 7.93163 16.085 7.90808 16.085C7.86675 16.085 7.78734 16.0235 7.78734 15.9915C7.78734 15.983 8.02042 15.9759 8.30529 15.9759C8.63242 15.9759 8.82324 15.9659 8.82324 15.9487C8.82324 15.9319 8.95954 15.9214 9.17762 15.9214C9.39571 15.9214 9.53201 15.9109 9.53201 15.8942C9.53201 15.8778 9.64105 15.8669 9.80461 15.8669C9.96817 15.8669 10.0772 15.856 10.0772 15.8396C10.0772 15.8241 10.159 15.8124 10.268 15.8124C10.3771 15.8124 10.4589 15.8007 10.4589 15.7851C10.4589 15.77 10.5316 15.7579 10.6224 15.7579C10.7133 15.7579 10.786 15.7458 10.786 15.7306C10.786 15.7154 10.8587 15.7033 10.9495 15.7033C11.0404 15.7033 11.1131 15.6912 11.1131 15.6761C11.1131 15.6611 11.1744 15.6488 11.2494 15.6488C11.3244 15.6488 11.3857 15.6366 11.3857 15.6216C11.3857 15.6066 11.4348 15.5943 11.4948 15.5943C11.5547 15.5943 11.6038 15.582 11.6038 15.567C11.6038 15.552 11.6651 15.5398 11.7401 15.5398C11.8151 15.5398 11.8764 15.5275 11.8764 15.5125C11.8764 15.4975 11.9255 15.4853 11.9854 15.4853C12.0454 15.4853 12.0945 15.473 12.0945 15.458C12.0945 15.443 12.1436 15.4307 12.2035 15.4307C12.2635 15.4307 12.3126 15.4185 12.3126 15.4035C12.3126 15.3885 12.3616 15.3762 12.4216 15.3762C12.4816 15.3762 12.5307 15.364 12.5307 15.349C12.5307 15.334 12.5797 15.3217 12.6397 15.3217C12.6997 15.3217 12.7487 15.3094 12.7487 15.2944C12.7487 15.2794 12.7855 15.2672 12.8305 15.2672C12.8755 15.2672 12.9123 15.2549 12.9123 15.2399C12.9123 15.2249 12.9491 15.2127 12.9941 15.2127C13.0391 15.2127 13.0759 15.2004 13.0759 15.1854C13.0759 15.1704 13.1127 15.1581 13.1576 15.1581C13.2026 15.1581 13.2394 15.1459 13.2394 15.1309C13.2394 15.1159 13.2885 15.1036 13.3485 15.1036C13.4084 15.1036 13.4575 15.0913 13.4575 15.0764C13.4575 15.0614 13.482 15.0491 13.512 15.0491C13.542 15.0491 13.5665 15.0368 13.5665 15.0218C13.5665 15.0068 13.6033 14.9946 13.6483 14.9946C13.6933 14.9946 13.7301 14.9823 13.7301 14.9673C13.7301 14.9523 13.7669 14.9401 13.8119 14.9401C13.8569 14.9401 13.8937 14.9278 13.8937 14.9128C13.8937 14.8978 13.9182 14.8855 13.9482 14.8855C13.9782 14.8855 14.0027 14.8733 14.0027 14.8583C14.0027 14.8433 14.0395 14.831 14.0845 14.831C14.1295 14.831 14.1663 14.8187 14.1663 14.8038C14.1663 14.7888 14.2031 14.7765 14.2481 14.7765C14.293 14.7765 14.3298 14.7642 14.3298 14.7492C14.3298 14.7342 14.3544 14.722 14.3844 14.722C14.4143 14.722 14.4389 14.7097 14.4389 14.6947C14.4389 14.6797 14.4757 14.6674 14.5207 14.6674C14.5656 14.6674 14.6024 14.6552 14.6024 14.6402C14.6024 14.6252 14.627 14.6129 14.657 14.6129C14.6869 14.6129 14.7115 14.6007 14.7115 14.5857C14.7115 14.5707 14.736 14.5584 14.766 14.5584C14.796 14.5584 14.8205 14.5461 14.8205 14.5311C14.8205 14.5162 14.8451 14.5039 14.875 14.5039C14.905 14.5039 14.9296 14.4916 14.9296 14.4766C14.9296 14.4616 14.9541 14.4494 14.9841 14.4494C15.0141 14.4494 15.0386 14.4371 15.0386 14.4221C15.0386 14.4071 15.0631 14.3948 15.0931 14.3948C15.1231 14.3948 15.1476 14.3826 15.1476 14.3676C15.1476 14.3526 15.1722 14.3403 15.2022 14.3403C15.2322 14.3403 15.2567 14.3281 15.2567 14.3131C15.2567 14.2981 15.2812 14.2858 15.3112 14.2858C15.3412 14.2858 15.3657 14.2735 15.3657 14.2585C15.3657 14.2436 15.3903 14.2313 15.4203 14.2313C15.4502 14.2313 15.4748 14.219 15.4748 14.204C15.4748 14.189 15.4993 14.1768 15.5293 14.1768C15.5593 14.1768 15.5838 14.1645 15.5838 14.1495C15.5838 14.1345 15.6083 14.1222 15.6383 14.1222C15.6683 14.1222 15.6929 14.11 15.6929 14.095C15.6929 14.08 15.7174 14.0677 15.7474 14.0677C15.7774 14.0677 15.8019 14.0555 15.8019 14.0405C15.8019 14.0255 15.8264 14.0132 15.8564 14.0132C15.8864 14.0132 15.9109 14.0009 15.9109 13.9859C15.9109 13.9709 15.9477 13.9587 15.9927 13.9587C16.0377 13.9587 16.0745 13.9464 16.0745 13.9314C16.0745 13.9164 16.099 13.9042 16.129 13.9042C16.159 13.9042 16.1835 13.8919 16.1835 13.8769C16.1835 13.8619 16.1958 13.8496 16.2108 13.8496C16.2258 13.8496 16.2381 13.8692 16.2381 13.8932Z" fill="white"/>
</svg>
