<svg width="20" height="20" viewBox="0 0 20 20" fill="none" xmlns="http://www.w3.org/2000/svg">
<g clip-path="url(#clip0_4243_56112)">
<path d="M13.9179 7.92484L11.5468 12.0486L10.7839 10.729L12.2478 7.92484H5.19629L9.91794 16.0486L11.5674 13.2032L11.9798 12.5022L14.6396 7.92484H13.9179ZM11.4849 8.41969L10.4746 10.1723L9.44371 8.41969H11.4849ZM9.91794 14.8527L6.16536 8.41969H8.78392L11.2169 12.6053L9.91794 14.8527Z" fill="url(#paint0_linear_4243_56112)"/>
<path d="M13.7317 1.43H6.04102L15.0719 7.2032L13.7317 1.43Z" fill="url(#paint1_linear_4243_56112)"/>
<path d="M4.70117 7.22381H15.0723L6.04138 1.43L4.70117 7.22381Z" fill="url(#paint2_linear_4243_56112)"/>
<path d="M15.9798 18.564L19.8148 11.8836L10.2891 16.8115L15.9798 18.564Z" fill="url(#paint3_linear_4243_56112)"/>
<path d="M15.4849 7.84238L10.2891 16.8115L19.8148 11.8836L15.4849 7.84238Z" fill="white"/>
<path d="M15.4849 7.84238L10.2891 16.8115L19.8148 11.8836L15.4849 7.84238Z" fill="url(#paint4_linear_4243_56112)"/>
<path d="M3.85567 18.564L0 11.8836L9.52577 16.8114L3.85567 18.564Z" fill="url(#paint5_linear_4243_56112)"/>
<path d="M4.35052 7.84237L9.52577 16.8114L0 11.8836L4.35052 7.84237Z" fill="url(#paint6_linear_4243_56112)"/>
</g>
<defs>
<linearGradient id="paint0_linear_4243_56112" x1="14.6395" y1="8.00732" x2="7.73233" y2="12.5434" gradientUnits="userSpaceOnUse">
<stop stop-color="#C71822"/>
<stop offset="0.510417" stop-color="#F29127"/>
<stop offset="0.729167" stop-color="#F6BB38"/>
<stop offset="1" stop-color="#D79712"/>
</linearGradient>
<linearGradient id="paint1_linear_4243_56112" x1="7.11322" y1="1.40938" x2="15.0514" y2="6.25474" gradientUnits="userSpaceOnUse">
<stop stop-color="#DFA600"/>
<stop offset="1" stop-color="#F9BF3B"/>
</linearGradient>
<linearGradient id="paint2_linear_4243_56112" x1="5.87647" y1="3.16196" x2="13.0382" y2="9.01546" gradientUnits="userSpaceOnUse">
<stop stop-color="#CC8C03"/>
<stop offset="1" stop-color="#F7BC39"/>
</linearGradient>
<linearGradient id="paint3_linear_4243_56112" x1="19.7941" y1="11.9249" x2="11.2911" y2="17.5747" gradientUnits="userSpaceOnUse">
<stop stop-color="#DFA600"/>
<stop offset="1" stop-color="#F9BF3B"/>
</linearGradient>
<linearGradient id="paint4_linear_4243_56112" x1="15.0519" y1="7.84238" x2="17.2994" y2="16.8733" gradientUnits="userSpaceOnUse">
<stop stop-color="#CC8C03"/>
<stop offset="1" stop-color="#F7BC39"/>
</linearGradient>
<linearGradient id="paint5_linear_4243_56112" x1="0.309278" y1="11.9248" x2="9.11117" y2="16.1473" gradientUnits="userSpaceOnUse">
<stop stop-color="#DFA600"/>
<stop offset="1" stop-color="#F9BF3B"/>
</linearGradient>
<linearGradient id="paint6_linear_4243_56112" x1="4.76289" y1="7.84237" x2="7.01031" y2="16.8733" gradientUnits="userSpaceOnUse">
<stop stop-color="#CC8C03"/>
<stop offset="1" stop-color="#F7BC39"/>
</linearGradient>
<clipPath id="clip0_4243_56112">
<rect width="20" height="20" fill="white"/>
</clipPath>
</defs>
</svg>
