<svg width="20" height="20" viewBox="0 0 20 20" fill="none" xmlns="http://www.w3.org/2000/svg">
<g clip-path="url(#clip0_4059_53931)">
<path d="M4.72985 9.32539C4.58861 10.4694 4.82395 11.6282 5.40024 12.6264C5.97653 13.6247 6.86239 14.408 7.92368 14.8577C8.8068 15.2265 9.7727 15.3517 10.7207 15.2201L14.3149 18.7927C12.974 19.451 11.5009 19.7952 10.0072 19.7994C8.51352 19.8035 7.03849 19.4675 5.69402 18.8167C4.46386 18.2224 3.37175 17.3772 2.488 16.3354C1.60425 15.2935 0.948427 14.0782 0.562757 12.7676C0.0127137 10.9005 0.0286678 8.91225 0.608602 7.05423L4.72985 9.32539Z" fill="url(#paint0_radial_4059_53931)"/>
<path d="M4.97105 9.5074L0.610691 7.10397C0.825651 6.45825 1.09877 5.83337 1.4267 5.23702C2.05828 4.09682 2.91375 3.096 3.94175 2.29464C4.96975 1.49328 6.14908 0.907913 7.40894 0.573676C9.27789 0.0599143 11.2573 0.112304 13.0964 0.72421C14.9356 1.33612 16.5518 2.48002 17.7404 4.01107C18.929 5.54211 19.6366 7.39144 19.7735 9.32488C19.9104 11.2583 19.4705 13.1889 18.5095 14.8722C18.188 15.4343 17.8161 15.966 17.3985 16.4609L4.97105 9.5074ZM6.49565 6.05102L15.1866 10.9891C15.3909 9.89375 15.2422 8.76182 14.7619 7.7564C14.4105 7.01795 13.8927 6.37101 13.2491 5.86637C12.6056 5.36174 11.8538 5.01314 11.0529 4.84795C10.252 4.68276 9.42362 4.70547 8.63293 4.9143C7.84224 5.12313 7.11072 5.5124 6.4958 6.05155L6.49565 6.05102Z" fill="#7FFFD4"/>
</g>
<defs>
<radialGradient id="paint0_radial_4059_53931" cx="0" cy="0" r="1" gradientUnits="userSpaceOnUse" gradientTransform="translate(9.9798 10.0114) scale(9.81817 9.78802)">
<stop stop-color="#979797"/>
<stop offset="1" stop-color="#777777"/>
</radialGradient>
<clipPath id="clip0_4059_53931">
<rect width="20" height="20" fill="white"/>
</clipPath>
</defs>
</svg>
