<svg width="20" height="20" viewBox="0 0 20 20" fill="none" xmlns="http://www.w3.org/2000/svg">
<path fill-rule="evenodd" clip-rule="evenodd" d="M9.99444 0C15.5172 0 19.9944 4.47722 19.9944 10C19.9944 15.4675 15.6064 19.9103 10.16 19.9986L9.99444 20V11.5717L8.725 12.8411L8.56278 16.0094L9.88667 19.9944C9.12054 19.9852 8.35807 19.8873 7.61445 19.7028L7.43278 19.6561L6.79222 17.73L4.97667 18.6406C4.31515 18.2563 3.69936 17.7983 3.14111 17.2753L3.00333 17.1433L6.36611 15.4578L6.46444 13.53L4.53667 13.6289L2.85111 16.9911C2.31714 16.4438 1.84769 15.837 1.45194 15.1828L1.35389 15.0178L2.265 13.2017L0.337778 12.5617C0.140876 11.8241 0.0289461 11.0664 0.00416667 10.3033L0 10.1075L3.98556 11.4314L7.15389 11.2697L8.42333 10L7.15389 8.73L3.98556 8.56833L0 9.89222C0.00833333 9.10889 0.112222 8.34972 0.291667 7.62L0.337778 7.43833L2.265 6.79833L1.35389 4.98222C1.73774 4.32038 2.19579 3.70446 2.71917 3.14639L2.85111 3.00889L4.53667 6.37111L6.46444 6.47L6.36611 4.54167L3.00333 2.85667C3.55067 2.3226 4.15751 1.85313 4.81194 1.4575L4.97667 1.35944L6.79222 2.27L7.43278 0.343889C8.17049 0.146512 8.9284 0.0343905 9.69167 0.00972222L9.88694 0.00555556L8.56306 3.99056L8.72528 7.15889L9.99472 8.42833L9.99444 0ZM12.2167 2.54556V17.4544C15.4261 16.4961 17.7722 13.5167 17.7722 10C17.7722 6.52222 15.4775 3.57 12.3222 2.57778L12.2167 2.54556Z" fill="#FF00AF"/>
</svg>
