<svg width="20" height="20" viewBox="0 0 20 20" fill="none" xmlns="http://www.w3.org/2000/svg">
<circle cx="10" cy="10" r="10" fill="#006CFF"/>
<path fill-rule="evenodd" clip-rule="evenodd" d="M9.70887 3.12802C9.70476 3.13206 9.60429 3.14126 9.48563 3.14847C9.04874 3.17496 8.40693 3.28491 8.0089 3.40144C7.52474 3.54319 6.88499 3.80697 6.49026 4.02761C6.23535 4.17009 5.72624 4.5067 5.61292 4.60765C5.59122 4.62699 5.48467 4.71549 5.37614 4.80433C5.26762 4.89317 5.14082 5.00383 5.09438 5.05025L5.00993 5.13466L5.31385 5.44194C5.48101 5.61094 5.78051 5.90851 5.97942 6.1032C6.31783 6.43444 6.34275 6.45602 6.36695 6.43886C6.38119 6.42878 6.45544 6.36443 6.53196 6.29586C6.89002 5.97505 7.21933 5.75353 7.65939 5.53747C8.09746 5.32239 8.49592 5.18662 8.96733 5.09181C9.30958 5.02296 9.43109 5.01333 9.95392 5.01361C10.3913 5.01386 10.4597 5.01679 10.6291 5.04265C11.3379 5.1509 11.9142 5.34003 12.4594 5.64336C12.8256 5.84711 13.2867 6.19214 13.5465 6.45673C14.0554 6.97515 14.3435 7.3852 14.6166 7.97966C14.7923 8.36189 14.911 8.75975 14.9989 9.26069C15.0356 9.46997 15.0404 9.52898 15.0472 9.85454C15.0571 10.3332 15.0343 10.6076 14.9516 11.0035C14.768 11.8829 14.3696 12.6627 13.7546 13.3466C13.5617 13.5612 13.3939 13.7161 13.0843 13.9655C12.8765 14.1328 12.4059 14.4129 12.1113 14.5444C11.9016 14.638 11.8825 14.6456 11.6494 14.7283C11.2889 14.8563 10.7657 14.9698 10.4037 14.9986C10.1937 15.0153 9.68806 15.0157 9.48693 14.9993C9.19468 14.9754 8.76953 14.8929 8.44772 14.7976C8.08201 14.6893 7.49402 14.4215 7.19804 14.2284C6.98948 14.0923 6.83439 13.9748 6.54887 13.7364L6.34037 13.5623L5.67018 14.2194L5 14.8765L5.08941 14.9576C5.33522 15.1806 5.49295 15.3157 5.60634 15.4004C5.67508 15.4518 5.79051 15.538 5.86286 15.5921C6.00202 15.6962 6.02451 15.7106 6.33788 15.8968C6.58327 16.0426 7.11572 16.3027 7.36247 16.3974C7.71504 16.5326 8.1675 16.6694 8.43457 16.7215C9.10897 16.8532 9.30666 16.8729 9.97365 16.8748C10.502 16.8764 10.6387 16.8667 11.0523 16.7983C11.67 16.6962 12.2858 16.5179 12.7953 16.2936C12.9617 16.2204 13.3238 16.0373 13.4825 15.9461C13.7913 15.7687 14.2813 15.4283 14.512 15.2308C14.689 15.0793 15.1689 14.6036 15.2993 14.4504C15.9148 13.7276 16.3683 12.9103 16.6497 12.0169C17.0058 10.8866 17.0526 9.68484 16.7867 8.49951C16.5068 7.25205 15.8252 6.04578 14.8775 5.12068C14.6403 4.88922 14.4364 4.7185 14.1132 4.48102C13.8418 4.28155 13.7301 4.20929 13.44 4.0454C12.5186 3.52491 11.413 3.20024 10.388 3.14918C9.95597 3.12766 9.71685 3.12021 9.70887 3.12802ZM9.78291 5.42909C9.18832 5.46066 8.72695 5.55994 8.19121 5.7716C7.67816 5.97429 7.27873 6.21868 6.8626 6.58452C6.58698 6.82684 6.41837 7.00387 6.23804 7.2403C5.91958 7.6578 5.75485 7.95374 5.56963 8.44095C5.45129 8.75226 5.38718 9.00285 5.32855 9.38333C5.29396 9.60772 5.27935 10.2019 5.30307 10.4193C5.36004 10.9416 5.45496 11.3169 5.64172 11.7582C5.88802 12.3403 6.19538 12.7888 6.66476 13.2509C7.09855 13.6781 7.56398 13.9875 8.12544 14.222C8.73287 14.4757 9.2886 14.5861 9.95845 14.5859C10.6175 14.5858 11.0957 14.4919 11.7495 14.2341C12.1798 14.0644 12.5799 13.8253 12.9663 13.5069C13.426 13.1281 13.822 12.6374 14.1069 12.0936C14.319 11.6888 14.4883 11.1885 14.5568 10.7647C14.5889 10.5663 14.6341 10.0562 14.6209 10.0417C14.6112 10.0311 11.2891 10.0275 11.2891 10.0382C11.2891 10.0436 11.5504 10.3046 11.8698 10.6181L12.4505 11.1881L12.3874 11.2959C12.1441 11.7112 11.8291 12.0448 11.4601 12.278C11.1089 12.4999 10.7354 12.6388 10.3386 12.6951C10.0987 12.7291 9.61695 12.7164 9.40143 12.6703C9.22438 12.6324 9.03215 12.5791 8.97736 12.5527C8.95737 12.5431 8.88481 12.511 8.81612 12.4815C8.51793 12.3533 8.28226 12.1964 8.02182 11.9526C7.93303 11.8694 7.85491 11.7819 7.6924 11.5835C7.59149 11.4603 7.41105 11.1077 7.33027 10.876C7.25938 10.6726 7.24386 10.6107 7.21028 10.3968C7.18551 10.239 7.18282 10.1815 7.18912 9.94491C7.1977 9.62278 7.22389 9.46393 7.31258 9.19614C7.4717 8.71569 7.69168 8.37247 8.06069 8.02892C8.29216 7.81343 8.49996 7.67834 8.82722 7.5306C9.02965 7.43923 9.08576 7.41924 9.2633 7.37532C9.4966 7.3176 9.64478 7.30171 9.95392 7.30122C10.2811 7.30072 10.3927 7.31294 10.6417 7.37658C11.0869 7.49036 11.5439 7.73613 11.8148 8.00743C11.8544 8.04703 11.8932 8.07944 11.9011 8.07944C11.9199 8.07944 13.1992 6.80808 13.2158 6.77291C13.2269 6.74939 13.2158 6.73411 13.1303 6.6555C12.9234 6.46517 12.6094 6.22906 12.4046 6.10972C12.2271 6.0063 11.9028 5.83904 11.8187 5.80752C11.5212 5.696 11.4015 5.65624 11.1996 5.60181C10.7975 5.49346 10.5563 5.45374 10.1775 5.43351C10.0401 5.42616 9.91281 5.42122 9.89472 5.42252C9.87663 5.42382 9.82632 5.42678 9.78291 5.42909ZM9.42116 7.77008C9.40307 7.77608 9.31428 7.80531 9.22384 7.83502C8.83293 7.96342 8.50759 8.16491 8.25193 8.43698C7.99169 8.71392 7.81093 9.02866 7.70477 9.38962C7.64657 9.58753 7.62917 9.71196 7.62241 9.9786C7.61616 10.225 7.61711 10.2371 7.65775 10.4304C7.68072 10.5397 7.71684 10.6801 7.73804 10.7424C7.89536 11.2051 8.23888 11.6466 8.65162 11.9166C8.87465 12.0625 9.26771 12.2289 9.45076 12.2549L9.51324 12.2638L9.51154 10.2071C9.51061 9.07595 9.50616 8.06337 9.50168 7.95694C9.49288 7.74851 9.49202 7.74653 9.42116 7.77008Z" fill="white"/>
</svg>
