<svg width="20" height="20" viewBox="0 0 20 20" fill="none" xmlns="http://www.w3.org/2000/svg">
<path d="M10.0002 19.2658C15.1176 19.2658 19.2661 15.1174 19.2661 10C19.2661 4.88262 15.1176 0.734159 10.0002 0.734159C4.88283 0.734159 0.734375 4.88262 0.734375 10C0.734375 15.1174 4.88283 19.2658 10.0002 19.2658Z" fill="#FFD500" stroke="url(#paint0_linear_3417_21159)" stroke-width="1.33691" stroke-miterlimit="10"/>
<path d="M9.932 19.6833C4.60876 19.6833 1.37048 15.9069 0.545282 11.9948C-0.381968 7.59831 1.54821 2.12663 7.97741 0.502611C10.537 -0.0384092 13.1283 0.447921 15.3011 1.86296C17.4745 3.27898 18.9667 5.45671 19.5023 7.9948C20.6073 13.2341 17.244 18.3962 12.0048 19.5026C11.2826 19.6247 10.5907 19.6833 9.932 19.6833V19.6833ZM10.0023 1.17937C9.40075 1.17937 8.7904 1.24089 8.17858 1.3698C2.33727 2.84636 0.575072 7.81804 1.41735 11.8112C2.26012 15.8034 5.88561 19.6462 11.8383 18.6266C16.579 17.6257 19.6332 12.9372 18.6302 8.17839C17.7552 4.03191 14.0814 1.17937 10.0023 1.17937Z" fill="url(#paint1_linear_3417_21159)"/>
<path d="M9.99991 18.1884C14.5222 18.1884 18.1883 14.5223 18.1883 10C18.1883 5.47768 14.5222 1.81161 9.99991 1.81161C5.47759 1.81161 1.81152 5.47768 1.81152 10C1.81152 14.5223 5.47759 18.1884 9.99991 18.1884Z" stroke="url(#paint2_linear_3417_21159)" stroke-width="0.318" stroke-miterlimit="10"/>
<path d="M10.0001 18.6525C14.7788 18.6525 18.6526 14.7786 18.6526 9.99999C18.6526 5.22136 14.7788 1.34751 10.0001 1.34751C5.2215 1.34751 1.34766 5.22136 1.34766 9.99999C1.34766 14.7786 5.2215 18.6525 10.0001 18.6525Z" stroke="#C0922E" stroke-width="0.14656" stroke-miterlimit="10"/>
<path d="M10.6554 17.5377C10.5984 17.5377 10.5498 17.4941 10.5446 17.4362C10.5391 17.375 10.5843 17.3209 10.6457 17.3154C10.9355 17.2895 11.2284 17.2457 11.5159 17.1849C11.8076 17.1233 12.0973 17.0438 12.377 16.9485C12.4353 16.9286 12.4986 16.9598 12.5185 17.018C12.5383 17.0763 12.5072 17.1395 12.449 17.1594C12.1607 17.2576 11.8623 17.3396 11.5621 17.4028C11.2657 17.4655 10.9641 17.5108 10.6654 17.5373L10.6554 17.5378V17.5377ZM8.85995 17.4803L8.84269 17.479C8.24169 17.3858 7.65128 17.2193 7.08785 16.984C7.03113 16.9602 7.00429 16.8949 7.02794 16.8382C7.05173 16.7812 7.11701 16.755 7.17373 16.7783C7.72062 17.0068 8.29362 17.1684 8.87693 17.2588C8.93771 17.2682 8.97935 17.3251 8.96992 17.386C8.96136 17.441 8.91393 17.4803 8.85996 17.4803L8.85995 17.4803ZM14.0306 16.3845C13.9939 16.3845 13.9581 16.3665 13.9367 16.3333C13.9035 16.2815 13.9185 16.2126 13.9703 16.1794C14.4665 15.8605 14.9246 15.4806 15.3318 15.0497C15.374 15.0054 15.4444 15.003 15.4894 15.0454C15.534 15.0876 15.5359 15.1581 15.4937 15.2029C15.0742 15.6467 14.602 16.0384 14.0907 16.3668C14.0721 16.3788 14.0512 16.3845 14.0306 16.3845L14.0306 16.3845ZM5.56816 16.1058C5.54524 16.1058 5.52203 16.0987 5.50216 16.084C5.0117 15.7217 4.56563 15.3007 4.17628 14.8326C4.13697 14.7853 4.1435 14.7151 4.19079 14.6756C4.23779 14.6364 4.30829 14.6428 4.34775 14.6901C4.7255 15.1445 5.15837 15.5531 5.63447 15.9047C5.68394 15.9413 5.69453 16.0111 5.65797 16.0605C5.63607 16.0901 5.60241 16.1058 5.56818 16.1058H5.56816ZM16.4812 13.7939C16.4626 13.7939 16.4436 13.7893 16.4262 13.7794C16.3728 13.749 16.3541 13.6809 16.3844 13.6274C16.6773 13.1126 16.9074 12.5635 17.0682 11.9951C17.0851 11.9359 17.1464 11.9014 17.2058 11.9182C17.265 11.9351 17.2993 11.9966 17.2826 12.0558C17.1168 12.6414 16.8798 13.2073 16.5782 13.7376C16.5576 13.7738 16.5199 13.7939 16.4812 13.7939L16.4812 13.7939ZM3.28994 13.3626C3.24845 13.3626 3.2087 13.3394 3.18956 13.2997C2.92554 12.7538 2.7271 12.1734 2.59988 11.5747C2.58711 11.5145 2.62541 11.4553 2.68561 11.4426C2.74567 11.4292 2.80485 11.4681 2.81776 11.5283C2.94135 12.1096 3.13385 12.6729 3.39004 13.2028C3.41688 13.2582 3.39367 13.3248 3.33825 13.3515C3.32273 13.359 3.30619 13.3626 3.28994 13.3626V13.3626ZM17.4518 10.3619H17.448C17.3865 10.3597 17.3384 10.3082 17.3404 10.2467C17.3432 10.1672 17.3445 10.0874 17.3445 10.0075C17.3445 9.49873 17.2906 8.98607 17.1847 8.48386L17.1792 8.45891C17.1666 8.39871 17.2052 8.33967 17.2654 8.3269C17.3244 8.31471 17.3845 8.35272 17.3974 8.41307L17.4023 8.43599C17.5119 8.95517 17.5673 9.48335 17.5673 10.0075C17.5673 10.09 17.566 10.1721 17.5632 10.2542C17.561 10.3144 17.5117 10.3619 17.4518 10.3619ZM2.5475 9.87372H2.54402C2.48251 9.87169 2.43421 9.82034 2.43609 9.75883C2.45495 9.15043 2.54837 8.54406 2.7136 7.9567C2.73014 7.89766 2.79063 7.86226 2.85098 7.87967C2.91017 7.89635 2.94469 7.95786 2.92801 8.01705C2.76771 8.58701 2.67719 9.17539 2.65892 9.7658C2.65703 9.82615 2.60757 9.87373 2.54751 9.87373L2.5475 9.87372ZM16.7046 6.8487C16.6632 6.8487 16.6235 6.82563 16.6042 6.78589C16.3461 6.25452 16.0231 5.75463 15.6439 5.30015C15.6046 5.25286 15.6108 5.18265 15.6581 5.14319C15.7054 5.10373 15.7755 5.10997 15.8151 5.15741C16.2057 5.62568 16.5388 6.14094 16.8047 6.68871C16.8315 6.74398 16.8085 6.81071 16.753 6.83755C16.7374 6.84509 16.7208 6.84872 16.7046 6.84872L16.7046 6.8487ZM3.51203 6.44005C3.49346 6.44005 3.4746 6.43541 3.45734 6.42554C3.40367 6.39522 3.38495 6.32733 3.41527 6.2738C3.71541 5.74359 4.07952 5.24994 4.4973 4.80633C4.53951 4.76165 4.60987 4.75947 4.65484 4.80169C4.69952 4.8439 4.7017 4.9144 4.65948 4.95923C4.25388 5.38963 3.90051 5.86893 3.60907 6.38347C3.58862 6.41974 3.5509 6.44004 3.51202 6.44004L3.51203 6.44005ZM14.421 4.10945C14.3981 4.10945 14.375 4.10234 14.3551 4.08784C13.8786 3.73708 13.3603 3.44405 12.8145 3.21702C12.7577 3.19337 12.7308 3.12824 12.7545 3.07138C12.7783 3.01451 12.8437 2.98782 12.9001 3.01132C13.4622 3.24516 13.9962 3.54704 14.4871 3.90825C14.5367 3.94481 14.5473 4.01458 14.5109 4.06405C14.489 4.09379 14.4552 4.10946 14.421 4.10946L14.421 4.10945ZM5.95867 3.84514C5.92211 3.84514 5.88628 3.82715 5.86496 3.79408C5.8316 3.74244 5.84639 3.67353 5.89818 3.64017C6.40953 3.31015 6.96135 3.04251 7.53856 2.84478C7.59731 2.82462 7.65998 2.85595 7.68014 2.91412C7.70001 2.97229 7.66897 3.03568 7.6108 3.0557C7.05071 3.24747 6.51513 3.50714 6.01887 3.8273C6.0003 3.83934 5.97927 3.84514 5.95867 3.84514ZM11.1277 2.74062L11.1108 2.73931C10.5279 2.6501 9.92834 2.63254 9.34156 2.68578C9.27817 2.69057 9.22594 2.64603 9.22043 2.58496C9.21492 2.5236 9.26003 2.46949 9.32125 2.46383C9.9266 2.409 10.5441 2.42713 11.1444 2.5191C11.2053 2.52838 11.247 2.58525 11.2377 2.64603C11.2293 2.70115 11.1818 2.74061 11.1277 2.74061V2.74062Z" fill="#F4BB00"/>
<g opacity="0.4">
<path d="M9.9292 19.0934V19.6915" stroke="white" stroke-width="0.14855" stroke-linecap="round" stroke-linejoin="round"/>
<path d="M10.7222 19.065L10.7743 19.6607" stroke="white" stroke-width="0.14855" stroke-linecap="round" stroke-linejoin="round"/>
<path d="M11.5098 18.9675L11.6136 19.5565" stroke="white" stroke-width="0.14855" stroke-linecap="round" stroke-linejoin="round"/>
<path d="M12.2852 18.8018L12.4399 19.3795" stroke="white" stroke-width="0.14855" stroke-linecap="round" stroke-linejoin="round"/>
<path d="M13.0439 18.5692L13.2485 19.1312" stroke="white" stroke-width="0.14855" stroke-linecap="round" stroke-linejoin="round"/>
<path d="M13.7793 18.2713L14.032 18.8133" stroke="white" stroke-width="0.14855" stroke-linecap="round" stroke-linejoin="round"/>
<path d="M14.4854 17.9104L14.7844 18.4284" stroke="white" stroke-width="0.14855" stroke-linecap="round" stroke-linejoin="round"/>
<path d="M15.1577 17.4894L15.5007 17.9793" stroke="white" stroke-width="0.14855" stroke-linecap="round" stroke-linejoin="round"/>
<path d="M15.791 17.0114L16.1754 17.4695" stroke="white" stroke-width="0.14855" stroke-linecap="round" stroke-linejoin="round"/>
<path d="M16.3799 16.48L16.8028 16.9029" stroke="white" stroke-width="0.14855" stroke-linecap="round" stroke-linejoin="round"/>
<path d="M16.9204 15.8993L17.3785 16.2837" stroke="white" stroke-width="0.14855" stroke-linecap="round" stroke-linejoin="round"/>
<path d="M17.4082 15.2736L17.8981 15.6167" stroke="white" stroke-width="0.14855" stroke-linecap="round" stroke-linejoin="round"/>
<path d="M17.8398 14.6079L18.3578 14.9069" stroke="white" stroke-width="0.14855" stroke-linecap="round" stroke-linejoin="round"/>
<path d="M18.2114 13.9071L18.7534 14.1598" stroke="white" stroke-width="0.14855" stroke-linecap="round" stroke-linejoin="round"/>
<path d="M18.521 13.1765L19.083 13.3811" stroke="white" stroke-width="0.14855" stroke-linecap="round" stroke-linejoin="round"/>
<path d="M18.7651 12.4218L19.3428 12.5766" stroke="white" stroke-width="0.14855" stroke-linecap="round" stroke-linejoin="round"/>
<path d="M18.9429 11.6486L19.5318 11.7525" stroke="white" stroke-width="0.14855" stroke-linecap="round" stroke-linejoin="round"/>
<path d="M19.0527 10.8629L19.6485 10.915" stroke="white" stroke-width="0.14855" stroke-linecap="round" stroke-linejoin="round"/>
<path d="M19.0933 10.0706H19.6913" stroke="white" stroke-width="0.14855" stroke-linecap="round" stroke-linejoin="round"/>
<path d="M19.0649 9.27784L19.6607 9.22572" stroke="white" stroke-width="0.14855" stroke-linecap="round" stroke-linejoin="round"/>
<path d="M18.9678 8.49052L19.5567 8.38667" stroke="white" stroke-width="0.14855" stroke-linecap="round" stroke-linejoin="round"/>
<path d="M18.8018 7.7147L19.3794 7.55991" stroke="white" stroke-width="0.14855" stroke-linecap="round" stroke-linejoin="round"/>
<path d="M18.5693 6.95626L19.1313 6.75172" stroke="white" stroke-width="0.14855" stroke-linecap="round" stroke-linejoin="round"/>
<path d="M18.2715 6.22099L18.8135 5.96824" stroke="white" stroke-width="0.14855" stroke-linecap="round" stroke-linejoin="round"/>
<path d="M17.9106 5.51448L18.4286 5.21546" stroke="white" stroke-width="0.14855" stroke-linecap="round" stroke-linejoin="round"/>
<path d="M17.4893 4.84211L17.9791 4.49908" stroke="white" stroke-width="0.14855" stroke-linecap="round" stroke-linejoin="round"/>
<path d="M17.0112 4.20899L17.4694 3.82457" stroke="white" stroke-width="0.14855" stroke-linecap="round" stroke-linejoin="round"/>
<path d="M16.48 3.61994L16.9029 3.19706" stroke="white" stroke-width="0.14855" stroke-linecap="round" stroke-linejoin="round"/>
<path d="M15.8994 3.07945L16.2838 2.62133" stroke="white" stroke-width="0.14855" stroke-linecap="round" stroke-linejoin="round"/>
<path d="M15.2739 2.59163L15.617 2.10175" stroke="white" stroke-width="0.14855" stroke-linecap="round" stroke-linejoin="round"/>
<path d="M14.6079 2.1602L14.9069 1.64228" stroke="white" stroke-width="0.14855" stroke-linecap="round" stroke-linejoin="round"/>
<path d="M13.9072 1.78843L14.16 1.24641" stroke="white" stroke-width="0.14855" stroke-linecap="round" stroke-linejoin="round"/>
<path d="M13.1768 1.47915L13.3813 0.91717" stroke="white" stroke-width="0.14855" stroke-linecap="round" stroke-linejoin="round"/>
<path d="M12.4219 1.23472L12.5767 0.657061" stroke="white" stroke-width="0.14855" stroke-linecap="round" stroke-linejoin="round"/>
<path d="M11.6489 1.057L11.7528 0.46805" stroke="white" stroke-width="0.14855" stroke-linecap="round" stroke-linejoin="round"/>
<path d="M10.8628 0.94735L10.9149 0.35158" stroke="white" stroke-width="0.14855" stroke-linecap="round" stroke-linejoin="round"/>
<path d="M10.0708 0.90659V0.30854" stroke="white" stroke-width="0.14855" stroke-linecap="round" stroke-linejoin="round"/>
<path d="M9.27771 0.93503L9.22559 0.33926" stroke="white" stroke-width="0.14855" stroke-linecap="round" stroke-linejoin="round"/>
<path d="M8.49057 1.03247L8.38672 0.44351" stroke="white" stroke-width="0.14855" stroke-linecap="round" stroke-linejoin="round"/>
<path d="M7.71485 1.19815L7.56006 0.62048" stroke="white" stroke-width="0.14855" stroke-linecap="round" stroke-linejoin="round"/>
<path d="M6.95649 1.43082L6.75195 0.868841" stroke="white" stroke-width="0.14855" stroke-linecap="round" stroke-linejoin="round"/>
<path d="M6.22101 1.72871L5.96826 1.1867" stroke="white" stroke-width="0.14855" stroke-linecap="round" stroke-linejoin="round"/>
<path d="M5.51435 2.08955L5.21533 1.57163" stroke="white" stroke-width="0.14855" stroke-linecap="round" stroke-linejoin="round"/>
<path d="M4.84205 2.51059L4.49902 2.0207" stroke="white" stroke-width="0.14855" stroke-linecap="round" stroke-linejoin="round"/>
<path d="M4.20913 2.98863L3.82471 2.5305" stroke="white" stroke-width="0.14855" stroke-linecap="round" stroke-linejoin="round"/>
<path d="M3.62015 3.52003L3.19727 3.09715" stroke="white" stroke-width="0.14855" stroke-linecap="round" stroke-linejoin="round"/>
<path d="M3.0797 4.10074L2.62158 3.71633" stroke="white" stroke-width="0.14855" stroke-linecap="round" stroke-linejoin="round"/>
<path d="M2.59144 4.72636L2.10156 4.38333" stroke="white" stroke-width="0.14855" stroke-linecap="round" stroke-linejoin="round"/>
<path d="M2.16001 5.39211L1.64209 5.09308" stroke="white" stroke-width="0.14855" stroke-linecap="round" stroke-linejoin="round"/>
<path d="M1.7886 6.09292L1.24658 5.84018" stroke="white" stroke-width="0.14855" stroke-linecap="round" stroke-linejoin="round"/>
<path d="M1.47897 6.82348L0.916992 6.61894" stroke="white" stroke-width="0.14855" stroke-linecap="round" stroke-linejoin="round"/>
<path d="M1.23489 7.57821L0.657227 7.42342" stroke="white" stroke-width="0.14855" stroke-linecap="round" stroke-linejoin="round"/>
<path d="M1.05721 8.35137L0.468262 8.24752" stroke="white" stroke-width="0.14855" stroke-linecap="round" stroke-linejoin="round"/>
<path d="M0.947333 9.13707L0.351562 9.08495" stroke="white" stroke-width="0.14855" stroke-linecap="round" stroke-linejoin="round"/>
<path d="M0.906644 9.92935H0.308594" stroke="white" stroke-width="0.14855" stroke-linecap="round" stroke-linejoin="round"/>
<path d="M0.935125 10.7222L0.339355 10.7743" stroke="white" stroke-width="0.14855" stroke-linecap="round" stroke-linejoin="round"/>
<path d="M1.03232 11.5095L0.443359 11.6133" stroke="white" stroke-width="0.14855" stroke-linecap="round" stroke-linejoin="round"/>
<path d="M1.19828 12.2853L0.620605 12.4401" stroke="white" stroke-width="0.14855" stroke-linecap="round" stroke-linejoin="round"/>
<path d="M1.43063 13.0437L0.868652 13.2483" stroke="white" stroke-width="0.14855" stroke-linecap="round" stroke-linejoin="round"/>
<path d="M1.72853 13.779L1.18652 14.0318" stroke="white" stroke-width="0.14855" stroke-linecap="round" stroke-linejoin="round"/>
<path d="M2.0897 14.4855L1.57178 14.7845" stroke="white" stroke-width="0.14855" stroke-linecap="round" stroke-linejoin="round"/>
<path d="M2.51089 15.1579L2.021 15.5009" stroke="white" stroke-width="0.14855" stroke-linecap="round" stroke-linejoin="round"/>
<path d="M2.98889 15.791L2.53076 16.1754" stroke="white" stroke-width="0.14855" stroke-linecap="round" stroke-linejoin="round"/>
<path d="M3.52005 16.3801L3.09717 16.8029" stroke="white" stroke-width="0.14855" stroke-linecap="round" stroke-linejoin="round"/>
<path d="M4.10072 16.9205L3.71631 17.3787" stroke="white" stroke-width="0.14855" stroke-linecap="round" stroke-linejoin="round"/>
<path d="M4.72633 17.4084L4.3833 17.8983" stroke="white" stroke-width="0.14855" stroke-linecap="round" stroke-linejoin="round"/>
<path d="M5.39229 17.8398L5.09326 18.3577" stroke="white" stroke-width="0.14855" stroke-linecap="round" stroke-linejoin="round"/>
<path d="M6.09307 18.2116L5.84033 18.7536" stroke="white" stroke-width="0.14855" stroke-linecap="round" stroke-linejoin="round"/>
<path d="M6.82368 18.5209L6.61914 19.0828" stroke="white" stroke-width="0.14855" stroke-linecap="round" stroke-linejoin="round"/>
<path d="M7.57813 18.7653L7.42334 19.3429" stroke="white" stroke-width="0.14855" stroke-linecap="round" stroke-linejoin="round"/>
<path d="M8.35141 18.943L8.24756 19.5319" stroke="white" stroke-width="0.14855" stroke-linecap="round" stroke-linejoin="round"/>
<path d="M9.13708 19.0527L9.08496 19.6484" stroke="white" stroke-width="0.14855" stroke-linecap="round" stroke-linejoin="round"/>
</g>
<path d="M3.59013 11.6537C3.52683 10.9182 3.59571 10.1937 3.78011 9.48053C3.80663 9.37797 3.79652 9.30241 3.74455 9.2117C3.37819 8.5723 3.18407 7.87554 3.09669 7.14957C3.03958 6.67516 3.01766 6.19637 3.12225 5.72414C3.23814 5.20087 3.47814 4.99889 4.00978 4.94008C4.60549 4.87418 5.19741 4.92734 5.7893 4.98512C6.03181 5.00879 6.27294 5.04646 6.51528 5.07219C6.56195 5.07714 6.61579 5.06568 6.65885 5.0457C7.29039 4.75269 7.94812 4.66353 8.63479 4.78021C8.6864 4.78898 8.75051 4.78778 8.79511 4.76472C9.50688 4.39687 10.2689 4.30031 11.0572 4.32799C11.151 4.33128 11.2588 4.30338 11.3396 4.25545C12.0425 3.83851 12.7453 3.4224 13.5234 3.15513C13.6359 3.11648 13.7505 3.08403 13.8641 3.04871H14.1998C14.4973 3.15152 14.6944 3.36837 14.8546 3.6266C14.8919 3.68688 14.9293 3.74764 14.9605 3.81123C15.4155 4.73995 15.634 5.71921 15.5777 6.75451C15.5718 6.86425 15.5995 6.9427 15.6661 7.02891C15.9421 7.38598 16.2165 7.74478 16.4762 8.11379C16.654 8.36661 16.7255 8.66381 16.7594 8.96904L16.6384 8.87303C16.6424 8.94703 16.6499 9.00756 16.6481 9.06781C16.636 9.47423 16.623 9.88063 16.6055 10.2868C16.6047 10.3061 16.5592 10.3235 16.5345 10.3417L16.4883 9.95058C16.4677 9.76938 16.4585 9.58604 16.4243 9.40749C16.3435 8.98567 16.3017 8.54935 16.0261 8.19069C15.7816 7.8725 15.5443 7.54835 15.289 7.2391C15.1847 7.1127 15.1403 6.99053 15.1414 6.82709C15.1437 6.4483 15.1526 6.06589 15.1068 5.6913C15.0326 5.08365 14.866 4.49418 14.5596 3.95938C14.2343 3.39175 14.1195 3.38319 13.5542 3.58939C12.8877 3.83249 12.2727 4.18147 11.6735 4.55543C11.4406 4.70081 11.2143 4.79857 10.9342 4.75598C10.8051 4.73635 10.6702 4.75009 10.5382 4.75446C9.96643 4.77337 9.42445 4.90243 8.91865 5.17908C8.84641 5.21859 8.7399 5.22609 8.65668 5.21001C7.99465 5.08212 7.36388 5.162 6.7611 5.46635C6.70911 5.4926 6.64433 5.51524 6.5888 5.50919C6.24089 5.4713 5.89498 5.40346 5.5464 5.3862C5.04044 5.36114 4.53202 5.35174 4.02609 5.37182C3.68624 5.38531 3.57279 5.50086 3.52899 5.83682C3.48991 6.13654 3.47368 6.44371 3.48983 6.74531C3.53606 7.60866 3.74764 8.42715 4.20976 9.17038C4.24569 9.22817 4.26296 9.32291 4.24309 9.38605C4.07534 9.91913 4.02984 10.4673 3.992 11.0213C3.95109 11.6203 4.10997 12.1644 4.34809 12.6977L4.34587 12.7502C4.31595 12.727 4.27676 12.7097 4.25756 12.6796C4.06868 12.3839 3.88382 12.0856 3.69594 11.7893C3.66539 11.7411 3.62565 11.6987 3.59016 11.6537L3.59013 11.6537Z" fill="#6E362E"/>
<path d="M16.9515 10.3402L16.9515 11.0734C16.8945 12.3132 16.5423 13.449 15.7572 14.4286C15.0323 15.333 14.0805 15.9071 13.0001 16.2804C11.9351 16.6485 10.8377 16.8412 9.70842 16.8059C6.22204 16.6968 4.23687 14.2307 3.65538 11.9973C3.62608 11.8847 3.61167 11.7683 3.59033 11.6537C3.62582 11.6987 3.66555 11.7411 3.69611 11.7893C3.88399 12.0856 4.06885 12.3839 4.25773 12.6796C4.27694 12.7097 4.31613 12.727 4.34604 12.7502L4.34576 12.7497L4.37591 12.812L4.55063 13.1207C4.56158 13.1487 4.56942 13.1784 4.58391 13.2044C5.66586 15.1476 7.3094 16.2279 9.53357 16.3723C10.814 16.4554 12.0545 16.2189 13.2412 15.7348C14.6687 15.1525 15.7206 14.1881 16.2282 12.6977C16.4239 12.1228 16.5351 11.5314 16.5225 10.9208L16.5489 10.4936L16.5484 10.4623L16.5347 10.3417C16.5594 10.3234 16.6049 10.3061 16.6057 10.2868C16.6232 9.8806 16.6362 9.47419 16.6483 9.06778C16.6501 9.00753 16.6426 8.947 16.6386 8.873L16.7596 8.96901C16.8024 9.18861 16.8548 9.40688 16.8854 9.62815C16.9181 9.86402 16.9303 10.1027 16.9515 10.3402V10.3402Z" fill="#41150F"/>
<path d="M16.5489 10.4936L16.5225 10.9208C16.4814 10.9955 16.4269 11.0658 16.4011 11.1454C15.976 12.4582 15.1482 13.468 14.0244 14.2348C13.2767 14.7449 12.4475 15.1008 11.5522 15.2571C11.1845 15.3213 10.8412 15.4694 10.4428 15.4501C9.74499 15.4162 9.0484 15.4032 8.36038 15.2609C8.33574 15.3028 8.31808 15.3395 8.29449 15.3718C8.19713 15.5052 7.98796 15.568 7.82817 15.5139C7.65694 15.4559 7.57305 15.3509 7.58091 15.1603C7.5855 15.049 7.52086 15.0208 7.4446 14.9902C7.25643 14.9146 7.06413 14.8483 6.8798 14.7644C6.04819 14.3858 5.31138 13.8729 4.68636 13.2029C4.65164 13.1657 4.5963 13.1477 4.55056 13.1207L4.37584 12.812L4.3457 12.7497L4.34598 12.7502L4.34821 12.6977C4.71838 12.6992 5.02513 12.5843 5.20276 12.2324C5.24921 12.2513 5.29665 12.2682 5.34196 12.2896C5.61734 12.4194 5.89895 12.4789 6.20648 12.4172C6.59256 12.3397 7.02048 11.9795 7.06851 11.5826C7.08322 11.4611 7.10918 11.341 7.12998 11.2202C7.2242 11.268 7.31686 11.3193 7.41292 11.363C7.8036 11.541 8.16069 11.4893 8.4758 11.1948C8.57872 11.0987 8.6718 10.9919 8.76939 10.89C8.78312 10.9162 8.79888 10.9415 8.81027 10.9687C8.94446 11.2884 9.18887 11.4272 9.52977 11.4084C9.92657 11.3867 10.1814 10.9942 10.0396 10.6249C10.022 10.5792 10.0134 10.53 10.0006 10.4825C10.1416 10.5231 10.2823 10.5645 10.4235 10.6043C11.1941 10.8218 11.9213 10.5509 12.3683 9.88038L12.3904 9.87782C12.5544 9.88012 12.7209 9.9021 12.8818 9.88118C13.4631 9.80559 13.7975 9.42123 13.8044 8.84217C14.05 9.00338 14.2891 9.17583 14.5425 9.32357C15.1441 9.6742 15.7726 9.95024 16.4884 9.95061L16.5346 10.3417L16.5484 10.4623L16.5488 10.4936L16.5489 10.4936ZM14.9933 11.5906L14.9943 11.5915C14.8946 11.383 14.5772 11.2415 14.3237 11.2925C14.0535 11.3469 13.8544 11.5675 13.8342 11.8352C13.8347 12.0659 13.9461 12.2376 14.144 12.3369C14.397 12.4639 14.6542 12.4664 14.8801 12.2676C15.0991 12.0748 15.1512 11.8224 15.0242 11.6218L14.9933 11.5906ZM8.16042 15.0088C8.02172 14.8801 7.90033 14.88 7.75749 15.0085L7.7313 15.0348L7.67263 15.0983C7.67306 15.1386 7.6568 15.1934 7.67696 15.2168C7.74507 15.2958 7.81455 15.3959 7.90487 15.4282C8.04245 15.4774 8.16897 15.396 8.23214 15.2707C8.27737 15.181 8.27635 15.0707 8.16042 15.0087V15.0088ZM11.0916 14.5509C10.9332 14.3703 10.7253 14.324 10.5109 14.3904C10.2942 14.4577 10.1244 14.5959 10.1133 14.8543C10.1198 15.0747 10.2365 15.2263 10.427 15.3157C10.6342 15.4129 10.8432 15.3865 11.0294 15.2589C11.2198 15.1285 11.2791 14.8692 11.1794 14.6732L11.1488 14.6116L11.0916 14.5509H11.0916ZM11.6841 13.1174C11.8713 13.1174 11.9708 13.0285 11.9719 12.8604C11.9728 12.7282 11.8314 12.5999 11.684 12.5991C11.5394 12.5982 11.389 12.7294 11.3928 12.853C11.3972 12.9984 11.5284 13.1175 11.6841 13.1174V13.1174ZM7.4219 13.6165L7.41805 13.5468C7.35261 13.5067 7.27673 13.4241 7.2243 13.437C7.15317 13.4545 7.1 13.5451 7.03913 13.6043C7.10629 13.6551 7.16978 13.738 7.24182 13.7462C7.29617 13.7525 7.36148 13.6633 7.4219 13.6165ZM15.6158 10.3094C15.7647 10.2908 15.8285 10.2143 15.8061 10.127C15.7903 10.0657 15.6934 9.99113 15.6286 9.98708C15.5755 9.98376 15.4656 10.0831 15.4715 10.1237C15.4814 10.1912 15.5639 10.248 15.6158 10.3094ZM13.9098 13.779C13.8299 13.8802 13.7572 13.9317 13.7492 13.9918C13.7359 14.0906 13.7926 14.1612 13.9128 14.1561C14.006 14.1521 14.0887 14.1207 14.0708 14.0225C14.0577 13.9507 13.9862 13.8896 13.9098 13.779V13.779Z" fill="#FCFCFC"/>
<path d="M5.20242 12.2323C5.02478 12.5843 4.71804 12.6992 4.34786 12.6977C4.10974 12.1644 3.95084 11.6203 3.99176 11.0213C4.02961 10.4672 4.0751 9.91913 4.24285 9.38605C4.26272 9.3229 4.24545 9.22816 4.20952 9.17038C3.7474 8.42714 3.53582 7.60866 3.48959 6.74531C3.47344 6.4437 3.48968 6.13654 3.52875 5.83682C3.57255 5.50086 3.686 5.38531 4.02585 5.37182C4.53179 5.35174 5.04021 5.36114 5.54616 5.3862C5.89475 5.40346 6.24066 5.4713 6.58856 5.50919C6.64409 5.51524 6.70888 5.4926 6.76087 5.46635C7.36365 5.162 7.99442 5.08212 8.65645 5.21001C8.73968 5.22609 8.84618 5.21859 8.91841 5.17908C9.42421 4.90243 9.96619 4.77337 10.5379 4.75446C10.67 4.75009 10.8048 4.73635 10.934 4.75598C11.2141 4.79856 11.4403 4.70081 11.6733 4.55543C12.2724 4.18148 12.8875 3.83249 13.5539 3.58939C14.1192 3.38319 14.2341 3.39176 14.5594 3.95938C14.8658 4.49417 15.0323 5.08364 15.1066 5.6913C15.1523 6.06589 15.1435 6.4483 15.1411 6.82709C15.1401 6.99053 15.1844 7.11269 15.2888 7.2391C15.5441 7.54835 15.7814 7.87251 16.0258 8.19069C16.3014 8.54935 16.3433 8.98567 16.4241 9.40749C16.4583 9.58604 16.4675 9.76939 16.4881 9.95058C15.7723 9.95024 15.1437 9.67421 14.5422 9.32357C14.2887 9.17583 14.0496 9.00339 13.804 8.84218L13.8017 8.81751L13.7708 8.6305C13.5713 8.02905 12.7814 7.69629 12.1981 7.97059C12.011 8.05861 11.8243 8.15094 11.7291 8.3534L11.6699 8.37125C11.5778 8.38879 11.4863 8.41393 11.3935 8.4208C11.3434 8.4245 11.2911 8.3969 11.2398 8.38342C11.2272 8.3463 11.2226 8.30349 11.2008 8.27291C10.908 7.86169 10.5427 7.53581 10.0797 7.32439C9.73085 7.16506 9.36094 7.13246 8.98473 7.13229C8.76136 6.9553 8.51796 6.97309 8.27165 7.0667C8.03081 7.15823 7.89815 7.33518 7.88424 7.59593L7.85091 7.65219L7.55508 7.97821C7.53996 7.9273 7.52726 7.87424 7.50858 7.82337C7.4216 7.58648 7.1894 7.41539 6.93475 7.42153C6.68136 7.42764 6.48993 7.5509 6.37957 7.78236C6.27203 8.00791 6.32264 8.27611 6.49847 8.4575C6.72705 8.6933 7.03833 8.70157 7.36544 8.48052L7.36363 8.47837L7.36558 8.93512C7.33414 8.97009 7.30764 9.01198 7.27027 9.03863C7.18362 9.10041 7.08953 9.15172 7.00231 9.21275C6.55708 9.52427 6.16369 9.88557 5.90188 10.3715C5.89346 10.3736 5.88492 10.3749 5.87624 10.3754C5.47062 10.3991 5.13533 10.5612 4.90872 10.9031C4.7859 11.0884 4.71342 11.298 4.77269 11.5293C4.81225 11.8182 4.97924 12.0263 5.19847 12.2014L5.20239 12.2323L5.20242 12.2323ZM11.3315 6.12891L11.3009 6.22178C11.3202 6.28602 11.324 6.36194 11.3619 6.41215C11.4476 6.5257 11.5866 6.52204 11.6965 6.48172C11.7634 6.45721 11.823 6.35678 11.8448 6.27896C11.8762 6.16679 11.8296 6.06931 11.6998 6.03773C11.5729 5.9853 11.4553 5.98369 11.3589 6.09963L11.3315 6.12891ZM15.0847 6.8842C14.9872 6.23496 14.9055 5.61206 14.7965 4.99396C14.7324 4.63006 14.6319 4.27071 14.4341 3.95036C14.2738 3.69087 14.0742 3.59745 13.7879 3.68926C13.0735 3.91837 12.5447 4.42116 12.0295 4.93437C11.9235 5.04 12.0105 5.2242 12.1664 5.24482C12.4886 5.28743 12.7643 5.43274 13.0265 5.61048C13.6224 6.01443 14.1488 6.49772 14.6314 7.02992C14.7093 7.11579 14.8073 7.18485 14.9094 7.12114C14.9863 7.07315 15.0267 6.9666 15.0847 6.88421V6.8842ZM3.58318 6.30914H3.58887C3.58887 6.38024 3.57712 6.45367 3.59074 6.52205C3.69267 7.0337 3.78705 7.5474 3.90968 8.05419C3.98456 8.36365 4.099 8.66431 4.20799 8.96445C4.26761 9.12863 4.43976 9.18203 4.5457 9.07773C4.59344 9.03073 4.62241 8.95931 4.64597 8.89395C4.86677 8.28125 5.12351 7.68503 5.46322 7.12796C5.64879 6.82366 5.84903 6.53184 6.16163 6.33442C6.22599 6.29378 6.29185 6.18699 6.28386 6.11931C6.27568 6.04984 6.18958 5.95891 6.1174 5.9325C5.54965 5.72472 4.9738 5.534 4.36439 5.50635C3.8392 5.48252 3.61879 5.66203 3.58359 6.17195C3.58045 6.21748 3.58317 6.26341 3.58317 6.30915L3.58318 6.30914ZM10.5991 7.25489C10.5992 7.59101 10.875 7.86665 11.2108 7.86622C11.5462 7.86578 11.82 7.58954 11.8197 7.25195C11.8194 6.9114 11.5519 6.64674 11.2077 6.64633C10.8659 6.64592 10.599 6.91284 10.5991 7.25489ZM7.28946 7.42013C7.46142 7.35279 7.62265 7.31569 7.75436 7.23208C7.96227 7.10011 7.9686 6.85732 7.79262 6.68758C7.54979 6.45334 7.06439 6.44209 6.81172 6.66484C6.63083 6.82431 6.61793 7.05808 6.81291 7.19927C6.95014 7.29864 7.12479 7.34634 7.28946 7.42013ZM10.38 6.77556C10.6083 6.76194 10.8447 6.6509 10.9999 6.40393C11.1533 6.1599 11.0559 5.91505 10.7771 5.85106C10.4759 5.78193 10.2289 5.89983 10.0242 6.11369C9.90442 6.23887 9.84688 6.39343 9.91783 6.56121C9.99097 6.73416 10.1487 6.7756 10.38 6.77556ZM14.6254 7.71421C14.7534 7.68524 14.8303 7.6355 14.8017 7.54342C14.7818 7.47956 14.6968 7.4032 14.6338 7.3963C14.587 7.39116 14.4849 7.49029 14.4871 7.53941C14.4898 7.59962 14.5756 7.65611 14.6254 7.7142V7.71421Z" fill="#FDA749"/>
<path d="M4.55029 13.1207C4.59603 13.1477 4.65137 13.1657 4.68609 13.2029C5.31111 13.8729 6.04792 14.3858 6.87953 14.7644C7.06385 14.8483 7.25616 14.9146 7.44433 14.9902C7.52059 15.0208 7.58523 15.049 7.58064 15.1603C7.57278 15.3509 7.65667 15.4559 7.8279 15.5139C7.98769 15.568 8.19686 15.5052 8.29422 15.3718C8.31781 15.3395 8.33546 15.3028 8.36011 15.2609C9.04813 15.4032 9.74472 15.4162 10.4425 15.4501C10.8409 15.4694 11.1842 15.3213 11.552 15.2571C12.4472 15.1007 13.2765 14.7449 14.0241 14.2348C15.1479 13.468 15.9757 12.4582 16.4009 11.1454C16.4266 11.0658 16.4811 10.9955 16.5222 10.9208C16.5348 11.5315 16.4236 12.1229 16.2278 12.6977C15.7203 14.1881 14.6684 15.1525 13.2409 15.7348C12.0542 16.2189 10.8137 16.4554 9.53325 16.3723C7.30908 16.2279 5.66554 15.1476 4.58359 13.2044C4.5691 13.1784 4.56126 13.1487 4.55031 13.1207L4.55029 13.1207Z" fill="#CDD8DA"/>
<path d="M4.3457 12.7497L4.37584 12.812L4.3457 12.7497Z" fill="#6E362E"/>
<path d="M16.5488 10.4936L16.5483 10.4623L16.5488 10.4936Z" fill="#6E362E"/>
<path d="M7.36581 8.48052C7.0387 8.70157 6.72742 8.69331 6.49884 8.4575C6.32301 8.27611 6.2724 8.0079 6.37994 7.78236C6.49031 7.55089 6.68175 7.42764 6.93513 7.42153C7.18977 7.41539 7.42198 7.58648 7.50896 7.82337C7.52764 7.87424 7.54034 7.9273 7.55545 7.97821L7.85129 7.65219C7.9677 8.12918 8.33303 8.29736 8.69753 8.26845C9.00203 8.2443 9.27398 8.02666 9.30846 7.71008C9.33477 7.46853 9.31075 7.30624 8.95223 7.16685L8.98512 7.13227C9.36131 7.13245 9.73123 7.16505 10.0801 7.32438C10.5431 7.53581 10.9083 7.86168 11.2012 8.2729C11.223 8.30348 11.2276 8.34628 11.2401 8.38341C11.2241 8.37327 11.207 8.36454 11.1923 8.35277C10.8538 8.08152 10.5064 7.82461 10.0935 7.67381L10.0605 7.66466L10.0756 7.69139C10.3442 8.29674 9.95621 9.17973 9.49046 9.48826C9.33855 9.58889 9.30806 9.87151 9.43189 10.0062C9.44718 10.0229 9.47368 10.0401 9.49429 10.0393C9.87947 10.0243 10.2238 10.194 10.5879 10.2736C10.772 10.3139 10.9738 10.3426 11.1556 10.3098C11.5216 10.2437 11.8105 10.0292 12.0336 9.73022L12.0569 9.72785L12.3683 9.88037C11.9213 10.5509 11.1941 10.8218 10.4235 10.6043C10.2823 10.5645 10.1416 10.5231 10.0006 10.4825L9.99732 10.4854L9.92927 10.4651L9.86755 10.432C9.63181 10.2454 9.34663 10.22 9.09043 10.3628C8.90099 10.4684 8.80225 10.6275 8.83644 10.7722L8.7694 10.89C8.67182 10.9919 8.57874 11.0987 8.47581 11.1948C8.1607 11.4893 7.80361 11.5409 7.41293 11.363C7.31686 11.3192 7.22421 11.268 7.12999 11.2202L7.02946 11.1352C7.02896 10.964 6.93249 10.8509 6.80139 10.7588C6.80435 10.7506 6.80652 10.7421 6.80789 10.7335C6.91107 10.6451 7.00642 10.6591 7.10665 10.7449C7.19116 10.8172 7.281 10.8854 7.37604 10.943C7.79885 11.1991 8.0498 11.1615 8.37546 10.7886C8.58583 10.5477 8.78198 10.2932 9.07663 10.1675L8.98563 9.68327C8.22042 9.53618 7.81161 9.04244 7.62196 8.29397L7.36596 8.93512L7.36401 8.47838L7.37876 8.46951L7.37178 8.47077L7.36582 8.48052H7.36581ZM6.92094 7.82098C6.93104 7.93453 6.99329 8.00071 7.10445 8.01028C7.20653 8.01907 7.30683 7.91783 7.29666 7.81641C7.28554 7.70548 7.21798 7.63544 7.10625 7.63722C6.99468 7.639 6.93265 7.71027 6.92094 7.82098Z" fill="#6E362E"/>
<path d="M7.02934 11.1352L7.12987 11.2202C7.10906 11.3409 7.0831 11.4611 7.0684 11.5826C7.02036 11.9794 6.59245 12.3397 6.20637 12.4172C5.89884 12.4789 5.61724 12.4194 5.34185 12.2895C5.29653 12.2682 5.2491 12.2513 5.20265 12.2323L5.19873 12.2014C5.22026 12.1507 5.24479 12.101 5.26286 12.0491C5.4361 11.5513 5.60825 11.0532 5.78072 10.5552L5.80155 10.5496C5.9991 10.5705 6.20074 10.5739 6.39282 10.6185C6.52649 10.6495 6.64703 10.7371 6.77343 10.7994C6.76174 10.9852 6.91131 11.0482 7.02936 11.1352L7.02934 11.1352Z" fill="#E7EBED"/>
<path d="M12.0565 9.72786L12.0332 9.73023C12.0077 9.70715 11.983 9.68303 11.9565 9.66115C11.7358 9.47886 11.6013 9.24596 11.5469 8.96581C11.561 8.96108 11.5869 8.95748 11.5875 8.95143C11.6095 8.72391 11.7385 8.54438 11.8511 8.35747L11.9411 8.32734C12.1673 8.34268 12.3948 8.34739 12.6194 8.37563C13.0468 8.42938 13.4299 8.61026 13.8017 8.8175L13.804 8.84217C13.7971 9.42123 13.4627 9.80559 12.8815 9.88118C12.7206 9.90211 12.554 9.88012 12.3901 9.87782C12.4542 9.79991 12.5104 9.7134 12.5843 9.64625C12.6788 9.56026 12.7133 9.46969 12.6272 9.37006C12.5387 9.26759 12.4285 9.29316 12.3464 9.37805C12.2414 9.48657 12.1524 9.61055 12.0566 9.72786H12.0565Z" fill="#E7EBED"/>
<path d="M15.024 11.6218C15.151 11.8224 15.0989 12.0748 14.8799 12.2676C14.654 12.4664 14.3969 12.4639 14.1438 12.3369C13.9459 12.2376 13.8346 12.0659 13.834 11.8352C13.858 11.8076 13.8897 11.7836 13.9049 11.7517C14.0499 11.4467 14.3106 11.3157 14.6384 11.4101C14.764 11.4462 14.8759 11.5296 14.9941 11.5915L14.9931 11.5906L15.024 11.6218V11.6218Z" fill="#E7EBED"/>
<path d="M9.8672 10.432L9.92892 10.4651L9.99697 10.4854L10.0003 10.4825C10.0131 10.53 10.0217 10.5792 10.0393 10.6249C10.181 10.9941 9.92622 11.3867 9.52942 11.4084C9.18852 11.4272 8.94411 11.2884 8.80992 10.9687C8.79853 10.9415 8.78277 10.9162 8.76904 10.89L8.83608 10.7722C9.12839 10.503 9.44831 10.3175 9.86719 10.4319L9.8672 10.432Z" fill="#E7EBED"/>
<path d="M11.1794 14.6732C11.2791 14.8692 11.2198 15.1285 11.0294 15.2589C10.8432 15.3865 10.6342 15.4129 10.427 15.3157C10.2365 15.2262 10.1199 15.0747 10.1133 14.8543C10.137 14.8268 10.1693 14.8029 10.1831 14.771C10.2762 14.5561 10.4432 14.4488 10.671 14.4631C10.8124 14.4721 10.9515 14.5203 11.0916 14.5509L11.1488 14.6116L11.1794 14.6732H11.1794Z" fill="#E7EBED"/>
<path d="M11.6839 13.1174C11.5283 13.1175 11.3971 12.9984 11.3926 12.853C11.3889 12.7294 11.5393 12.5982 11.6839 12.599C11.8313 12.5999 11.9727 12.7282 11.9718 12.8604C11.9707 13.0285 11.8712 13.1173 11.6839 13.1174V13.1174Z" fill="#E7EBED"/>
<path d="M7.73097 15.0348L7.75721 15.0085L8.16009 15.0088C8.27602 15.0707 8.27703 15.181 8.23181 15.2707C8.16864 15.396 8.04212 15.4774 7.90454 15.4282C7.81422 15.3959 7.74474 15.2958 7.67663 15.2168C7.65647 15.1934 7.67273 15.1386 7.67228 15.0983L7.73097 15.0348Z" fill="#E7EBED"/>
<path d="M12.0566 9.72786C12.1525 9.61054 12.2415 9.48657 12.3465 9.37805C12.4286 9.29317 12.5388 9.26759 12.6273 9.37006C12.7134 9.46969 12.6789 9.56026 12.5843 9.64625C12.5105 9.7134 12.4542 9.79991 12.3902 9.87782L12.368 9.88037L12.0567 9.72785L12.0566 9.72786Z" fill="#59231E"/>
<path d="M14.9941 11.5915C14.8759 11.5296 14.764 11.4462 14.6384 11.4101C14.3106 11.3157 14.0499 11.4467 13.9049 11.7517C13.8897 11.7836 13.858 11.8076 13.834 11.8352C13.8543 11.5675 14.0533 11.3469 14.3235 11.2925C14.577 11.2415 14.8945 11.383 14.9941 11.5915L14.9941 11.5915Z" fill="#CDD8DA"/>
<path d="M7.42183 13.6165C7.3614 13.6633 7.29609 13.7525 7.24175 13.7462C7.1697 13.738 7.10622 13.6551 7.03906 13.6043C7.09993 13.5451 7.1531 13.4545 7.22423 13.437C7.27666 13.4241 7.35255 13.5067 7.41798 13.5468L7.42183 13.6165Z" fill="#E7EBED"/>
<path d="M11.0916 14.5509C10.9515 14.5203 10.8124 14.4721 10.671 14.4631C10.4432 14.4488 10.2762 14.5561 10.1831 14.771C10.1693 14.8029 10.137 14.8268 10.1133 14.8543C10.1244 14.5959 10.2942 14.4576 10.511 14.3904C10.7253 14.324 10.9332 14.3703 11.0916 14.5509Z" fill="#CDD8DA"/>
<path d="M15.6158 10.3094C15.5638 10.248 15.4813 10.1912 15.4714 10.1237C15.4655 10.0831 15.5754 9.98375 15.6286 9.98708C15.6933 9.99113 15.7902 10.0657 15.806 10.127C15.8285 10.2143 15.7646 10.2908 15.6158 10.3094Z" fill="#E7EBED"/>
<path d="M13.9096 13.779C13.986 13.8896 14.0575 13.9507 14.0706 14.0225C14.0885 14.1207 14.0058 14.1521 13.9126 14.156C13.7924 14.1612 13.7357 14.0906 13.749 13.9918C13.757 13.9316 13.8297 13.8802 13.9096 13.779V13.779Z" fill="#E7EBED"/>
<path d="M8.1602 15.0088L7.75732 15.0085C7.90011 14.88 8.0215 14.8801 8.1602 15.0088Z" fill="#CDD8DA"/>
<path d="M7.73105 15.0348L7.67236 15.0983L7.73105 15.0348Z" fill="#CDD8DA"/>
<path d="M15.024 11.6218L14.9932 11.5906L15.024 11.6218Z" fill="#CDD8DA"/>
<path d="M11.179 14.6732L11.1484 14.6116L11.179 14.6732Z" fill="#CDD8DA"/>
<path d="M7.36558 8.93512L7.62158 8.29397C7.81123 9.04245 8.22004 9.53618 8.98525 9.68327L9.07625 10.1675C8.7816 10.2932 8.58546 10.5477 8.37508 10.7886C8.04941 11.1614 7.79846 11.1991 7.37566 10.943C7.28062 10.8854 7.19078 10.8172 7.10627 10.7449C7.00604 10.6591 6.91068 10.6451 6.8075 10.7335C6.5532 10.4938 6.24565 10.3873 5.90186 10.3715C6.16367 9.88556 6.55705 9.52426 7.00229 9.21274C7.08952 9.15171 7.1836 9.1004 7.27025 9.03862C7.30762 9.01197 7.33413 8.97008 7.36557 8.93511L7.36558 8.93512Z" fill="#FBFBFB"/>
<path d="M11.5471 8.9658C11.6016 9.24597 11.7361 9.47887 11.9568 9.66116C11.9833 9.68304 12.0079 9.70716 12.0334 9.73024C11.8104 10.0292 11.5214 10.2437 11.1554 10.3098C10.9737 10.3426 10.7719 10.3139 10.5878 10.2736C10.2237 10.194 9.87935 10.0243 9.49417 10.0393C9.47356 10.0401 9.44707 10.0229 9.43177 10.0062C9.30795 9.87153 9.33843 9.58892 9.49034 9.48828C9.95609 9.17975 10.3441 8.29676 10.0755 7.69141L10.0934 7.67376C10.5063 7.82462 10.8537 8.08153 11.1922 8.35278C11.2069 8.36455 11.224 8.37328 11.24 8.38342C11.2913 8.39689 11.3437 8.4245 11.3937 8.42079C11.4866 8.41392 11.5781 8.38877 11.6701 8.37131L11.5472 8.9658H11.5471Z" fill="#FBFBFB"/>
<path d="M15.0847 6.8842C15.0267 6.9666 14.9864 7.07314 14.9094 7.12113C14.8074 7.18484 14.7093 7.11578 14.6315 7.02991C14.1489 6.4977 13.6224 6.01442 13.0265 5.61047C12.7643 5.43274 12.4886 5.28743 12.1664 5.24481C12.0106 5.22419 11.9235 5.03999 12.0296 4.93436C12.5447 4.42115 13.0736 3.91836 13.7879 3.68925C14.0742 3.59744 14.2738 3.69086 14.4341 3.95035C14.632 4.2707 14.7324 4.63005 14.7966 4.99395C14.9056 5.61204 14.9873 6.23495 15.0847 6.88419V6.8842ZM14.5735 6.34998C14.5677 6.24503 14.5697 6.1853 14.5603 6.12742C14.5018 5.76709 14.4588 5.40287 14.3747 5.04847C14.3063 4.75974 14.1909 4.48169 14.0893 4.20147C14.0511 4.09615 13.9663 4.05576 13.8559 4.09796C13.3886 4.27656 13.0249 4.60407 12.6371 4.92391C13.3912 5.25055 13.9702 5.77503 14.5735 6.34998H14.5735Z" fill="#70372E"/>
<path d="M3.58362 6.30914C3.58362 6.2634 3.58089 6.21747 3.58404 6.17194C3.61924 5.66202 3.83964 5.48251 4.36483 5.50634C4.97425 5.53399 5.55011 5.72471 6.11785 5.93249C6.19002 5.9589 6.27612 6.04984 6.28431 6.1193C6.29229 6.18698 6.22644 6.29377 6.16208 6.33441C5.84946 6.53182 5.64924 6.82365 5.46367 7.12795C5.12395 7.68502 4.86721 8.28125 4.64642 8.89394C4.62287 8.9593 4.59389 9.03073 4.54615 9.07772C4.44021 9.18202 4.26806 9.12862 4.20844 8.96444C4.09945 8.6643 3.985 8.36365 3.91012 8.05418C3.78749 7.54739 3.69313 7.03369 3.59119 6.52204C3.57757 6.45366 3.58932 6.38022 3.58932 6.30913H3.58363L3.58362 6.30914ZM4.38946 8.2644C4.74216 7.52846 5.07123 6.80523 5.6343 6.20581C5.17016 6.06469 4.72952 5.9225 4.26066 5.92272C4.0635 5.92281 4.00801 5.97102 4.01307 6.16641C4.01976 6.42446 4.0277 6.68647 4.07715 6.93853C4.16451 7.38377 4.28363 7.82279 4.38945 8.26441L4.38946 8.2644Z" fill="#6E362E"/>
<path d="M8.95201 7.16685C9.31053 7.30623 9.33455 7.46852 9.30824 7.71008C9.27376 8.02666 9.00181 8.2443 8.69731 8.26845C8.33281 8.29736 7.96747 8.12917 7.85107 7.65219L7.8844 7.59593L7.94745 7.54674C8.23119 7.34626 8.54641 7.22254 8.88724 7.16123L8.95202 7.16685H8.95201Z" fill="#59231E"/>
<path d="M10.5991 7.25489C10.599 6.91283 10.8659 6.64592 11.2077 6.64633C11.5519 6.64674 11.8194 6.9114 11.8197 7.25195C11.82 7.58954 11.5461 7.86579 11.2108 7.86622C10.875 7.86666 10.5992 7.59102 10.5991 7.25489ZM11.3652 7.22809C11.4811 7.22858 11.5678 7.14567 11.571 7.0471C11.5744 6.94123 11.4856 6.85334 11.3764 6.85857C11.2599 6.86415 11.1982 6.9323 11.199 7.04451C11.1999 7.1583 11.2699 7.21737 11.3652 7.22809Z" fill="#6E362E"/>
<path d="M7.28952 7.42013C7.12485 7.34634 6.9502 7.29864 6.81297 7.19927C6.61799 7.05808 6.63088 6.82431 6.81177 6.66484C7.06444 6.44209 7.54985 6.45334 7.79268 6.68758C7.96865 6.85732 7.96232 7.10011 7.75442 7.23208C7.6227 7.31569 7.46146 7.35279 7.28952 7.42013Z" fill="#FBFBFB"/>
<path d="M10.3803 6.77556C10.149 6.7756 9.99131 6.73416 9.91816 6.56121C9.84721 6.39343 9.90474 6.23887 10.0245 6.11369C10.2292 5.89984 10.4763 5.78193 10.7774 5.85106C11.0562 5.91505 11.1536 6.1599 11.0002 6.40393C10.845 6.6509 10.6086 6.76194 10.3803 6.77556Z" fill="#FBFBFB"/>
<path d="M5.78073 10.5552C5.60827 11.0532 5.43612 11.5514 5.26287 12.0491C5.2448 12.101 5.22027 12.1507 5.19874 12.2014C4.97952 12.0263 4.81252 11.8182 4.77295 11.5293C4.79732 11.4603 4.82483 11.3923 4.84559 11.3222C4.98408 10.8548 5.32034 10.6296 5.78073 10.5552Z" fill="#EE973A"/>
<path d="M13.802 8.81751C13.4302 8.61027 13.0471 8.4294 12.6196 8.37564C12.3951 8.3474 12.1676 8.34269 11.9414 8.32735C11.9978 8.27873 12.0472 8.21631 12.1117 8.18399C12.3395 8.06989 12.5765 8.01739 12.8383 8.0473C13.2099 8.08976 13.4943 8.25353 13.6959 8.56689C13.7129 8.5933 13.7457 8.60954 13.7711 8.6305L13.802 8.81751H13.802Z" fill="#EE973A"/>
<path d="M13.7712 8.6305C13.7457 8.60954 13.7129 8.5933 13.696 8.56689C13.4944 8.25353 13.21 8.08976 12.8384 8.0473C12.5766 8.01739 12.3395 8.06989 12.1118 8.18399C12.0473 8.21631 11.9978 8.27873 11.9415 8.32735L11.8514 8.35748L11.7295 8.3534C11.8246 8.15094 12.0113 8.05861 12.1985 7.97059C12.7818 7.69629 13.5716 8.02905 13.7712 8.6305H13.7712Z" fill="#D68625"/>
<path d="M5.78077 10.5552C5.32038 10.6296 4.98412 10.8548 4.84563 11.3222C4.82488 11.3923 4.79737 11.4603 4.77299 11.5293C4.71373 11.2979 4.7862 11.0884 4.90903 10.9031C5.13564 10.5612 5.47092 10.3991 5.87654 10.3754L5.80159 10.5496L5.78076 10.5552L5.78077 10.5552Z" fill="#D68625"/>
<path d="M11.7002 6.03773C11.83 6.06932 11.8765 6.16679 11.8452 6.27896C11.8234 6.35678 11.7638 6.45721 11.6969 6.48172C11.5869 6.52204 11.448 6.5257 11.3623 6.41215C11.3244 6.36194 11.3206 6.28603 11.3013 6.22178L11.3319 6.12891L11.3593 6.09963L11.7002 6.03773H11.7002Z" fill="#EE973A"/>
<path d="M5.80127 10.5496L5.87622 10.3754C5.8849 10.375 5.89345 10.3737 5.90186 10.3715C6.24564 10.3873 6.5532 10.4938 6.8075 10.7335C6.80613 10.7421 6.80396 10.7506 6.80101 10.7588L6.77315 10.7994C6.64675 10.7371 6.5262 10.6495 6.39254 10.6185C6.20046 10.5739 5.99883 10.5705 5.80127 10.5496V10.5496Z" fill="#CDD8DA"/>
<path d="M8.9519 7.16685L8.88713 7.16124C8.74934 7.14321 8.61094 7.10673 8.47389 7.11129C8.24618 7.11887 7.99686 7.33849 7.94733 7.54674L7.88428 7.59593C7.89819 7.33518 8.03085 7.15823 8.27169 7.0667C8.518 6.97309 8.76139 6.9553 8.98476 7.13229L8.95189 7.16685H8.9519Z" fill="#D68625"/>
<path d="M14.6257 7.71421C14.5758 7.65611 14.49 7.59963 14.4873 7.53942C14.4851 7.4903 14.5873 7.39117 14.6341 7.39631C14.697 7.40321 14.7821 7.47957 14.8019 7.54343C14.8306 7.63551 14.7537 7.68525 14.6257 7.71422V7.71421Z" fill="#EE973A"/>
<path d="M11.7291 8.35339L11.851 8.35747C11.7385 8.54438 11.6095 8.72392 11.5875 8.95143C11.5869 8.95748 11.561 8.96109 11.5469 8.96581L11.6699 8.3713L11.7291 8.35338L11.7291 8.35339Z" fill="#CDD8DA"/>
<path d="M11.7003 6.03773L11.3594 6.09963C11.4557 5.98369 11.5734 5.9853 11.7003 6.03773Z" fill="#D68625"/>
<path d="M11.3319 6.12891L11.3013 6.22178L11.3319 6.12891Z" fill="#D68625"/>
<path d="M9.86739 10.4319C9.44851 10.3175 9.12859 10.503 8.83628 10.7722C8.80209 10.6275 8.90083 10.4684 9.09027 10.3628C9.34647 10.22 9.63165 10.2454 9.86739 10.4319Z" fill="#59231E"/>
<path d="M6.9209 7.82098C6.93261 7.71027 6.99464 7.639 7.10621 7.63722C7.21794 7.63543 7.2855 7.70548 7.29662 7.81641C7.30679 7.91783 7.20649 8.01907 7.10441 8.01028C6.99325 8.00071 6.931 7.93453 6.9209 7.82098Z" fill="#FBFBFB"/>
<path d="M6.77359 10.7994L6.80145 10.7588C6.93254 10.8509 7.02901 10.964 7.02952 11.1352C6.91147 11.0482 6.76191 10.9853 6.77359 10.7994V10.7994Z" fill="#59231E"/>
<path d="M9.99725 10.4854L9.9292 10.4651L9.99725 10.4854Z" fill="#FCFCFC"/>
<path d="M7.36558 8.48052L7.37154 8.47077L7.37852 8.46951L7.36377 8.47838L7.36558 8.48053V8.48052Z" fill="#FDA749"/>
<path d="M10.0757 7.69141L10.0605 7.66468L10.0936 7.67383L10.0757 7.69142V7.69141Z" fill="#FBFBFB"/>
<path d="M14.5736 6.34999C13.9703 5.77504 13.3913 5.25056 12.6372 4.92392C13.0251 4.60408 13.3887 4.27656 13.856 4.09797C13.9665 4.05577 14.0512 4.09616 14.0894 4.20148C14.191 4.4817 14.3064 4.75975 14.3749 5.04848C14.4589 5.40288 14.5019 5.7671 14.5604 6.12743C14.5698 6.18531 14.5678 6.24503 14.5736 6.34999H14.5736Z" fill="#FCD68B"/>
<path d="M4.38939 8.2644C4.28356 7.82278 4.16444 7.38377 4.07709 6.93852C4.02764 6.68646 4.0197 6.42445 4.01301 6.1664C4.00794 5.971 4.06344 5.9228 4.2606 5.92271C4.72945 5.9225 5.17009 6.06469 5.63424 6.2058C5.07117 6.80522 4.7421 7.52845 4.3894 8.26439L4.38939 8.2644Z" fill="#FCD68B"/>
<path d="M7.94775 7.54674C7.99728 7.33849 8.2466 7.11887 8.47431 7.11129C8.61135 7.10673 8.74976 7.14321 8.88755 7.16124C8.54672 7.22254 8.23149 7.34626 7.94775 7.54674Z" fill="#EE973A"/>
<path d="M11.3654 7.22809C11.2701 7.21737 11.2001 7.1583 11.1992 7.04451C11.1984 6.9323 11.2601 6.86415 11.3766 6.85857C11.4858 6.85334 11.5745 6.94123 11.5712 7.0471C11.568 7.14566 11.4813 7.22858 11.3654 7.22809Z" fill="#FBFBFB"/>
<defs>
<linearGradient id="paint0_linear_3417_21159" x1="16.6377" y1="17.3936" x2="3.36272" y2="2.60645" gradientUnits="userSpaceOnUse">
<stop stop-color="#CFBA00"/>
<stop offset="0.18498" stop-color="#A35600"/>
<stop offset="0.5324" stop-color="#EBD73C"/>
<stop offset="0.85453" stop-color="#E38100"/>
<stop offset="1" stop-color="#EAC932"/>
</linearGradient>
<linearGradient id="paint1_linear_3417_21159" x1="-5.57901" y1="19.0941" x2="15.7545" y2="6.64978" gradientUnits="userSpaceOnUse">
<stop offset="0.50828" stop-color="white" stop-opacity="0"/>
<stop offset="0.67764" stop-color="white" stop-opacity="0.8"/>
<stop offset="0.84595" stop-color="white" stop-opacity="0"/>
</linearGradient>
<linearGradient id="paint2_linear_3417_21159" x1="15.5772" y1="16.2125" x2="4.42263" y2="3.78744" gradientUnits="userSpaceOnUse">
<stop stop-color="#CFBA00"/>
<stop offset="0.10088" stop-color="#FCD95B"/>
<stop offset="0.22709" stop-color="#C28B28"/>
<stop offset="0.38461" stop-color="#FFF375"/>
<stop offset="0.56939" stop-color="#F29213"/>
<stop offset="0.74014" stop-color="#FCDC5E"/>
<stop offset="0.85618" stop-color="#F5AB2D"/>
<stop offset="1" stop-color="#F9E96D"/>
</linearGradient>
</defs>
</svg>
