<svg width="20" height="20" viewBox="0 0 20 20" fill="none" xmlns="http://www.w3.org/2000/svg">
<circle cx="10" cy="10" r="10" transform="rotate(90 10 10)" fill="#30239D"/>
<path fill-rule="evenodd" clip-rule="evenodd" d="M8.06064 2.7887H8.11924C11.1152 2.7887 13.9584 3.99923 15.184 5.84396L15.1846 5.84484C15.8559 6.86457 16.124 8.02144 16.2266 8.93018C16.2781 9.38615 16.2884 9.78374 16.2858 10.0764C16.2845 10.2229 16.28 10.3431 16.2758 10.4312C16.274 10.4705 16.2722 10.5035 16.2708 10.5288L16.2703 10.5373C16.2687 10.5663 16.2683 10.5767 16.2683 10.5767C16.2683 11.0196 16.2286 11.6416 16.0995 12.0931C15.6133 14.0574 14.1393 15.5412 11.8808 16.4177C11.0392 16.7636 10.2256 16.9613 9.62323 17.0728C9.32135 17.1286 9.07146 17.1629 8.89628 17.1834C8.80866 17.1936 8.73965 17.2004 8.69209 17.2046C8.66831 17.2067 8.64988 17.2082 8.63716 17.2092L8.6224 17.2103L8.61832 17.2105L8.61711 17.2106C8.61711 17.2106 8.61648 17.2107 8.60248 16.9934L8.61711 17.2106L8.60844 17.2112H8.50861L5.90176 16.0849L5.76416 15.8574L5.76416 4.42222L5.85195 4.20449L7.95519 2.841L8.06064 2.7887ZM7.61392 16.0498C8.6129 15.9214 9.56717 15.6726 10.407 15.3278C11.5208 14.8706 12.4528 14.2364 13.011 13.4708C13.608 12.687 13.8372 11.7453 13.9204 11.0481C13.9633 10.7684 13.9628 10.4933 13.9426 10.2083C13.9415 10.1576 13.9333 10.1123 13.9286 10.0866C13.9278 10.0825 13.9272 10.079 13.9266 10.0758C13.9248 10.0661 13.9237 10.0603 13.9228 10.0545L13.9226 10.0534V10.0404L13.9197 10.0215C13.7352 8.82644 13.0261 8.06957 12.2542 7.58542C11.5423 7.13885 10.7642 6.9159 10.2738 6.78345V5.99639C11.4763 6.11376 12.7116 6.41163 13.6782 7.0465C14.7027 7.7194 15.441 8.77991 15.5079 10.4673L15.508 10.4694C15.5275 10.8771 15.5064 11.5039 15.3956 11.9253L15.3947 11.9288C14.8625 14.0785 13.0721 15.2079 11.6173 15.7735L11.6157 15.7741C10.2572 16.3132 8.9803 16.4538 8.63976 16.4874L7.61392 16.0498ZM9.57335 13.2796V5.48672L9.86133 5.24864L9.96098 5.25557C12.3054 5.41852 14.0545 6.1198 15.1073 7.35213C14.9703 6.97089 14.7931 6.59135 14.5653 6.23729C14.0588 5.45591 13.1679 4.77686 12.0445 4.28988C10.9925 3.83383 9.7517 3.55311 8.46948 3.51237V13.3106C8.86098 13.3379 9.17545 13.3253 9.57335 13.2796ZM6.46464 15.4139C7.74723 15.3769 8.96242 15.1291 9.9855 14.7294C11.0037 14.3317 11.8159 13.7901 12.3216 13.1723C11.8178 13.4744 11.2456 13.6873 10.6658 13.8257C9.77253 14.0388 8.84057 14.0804 8.06924 13.9873L7.96837 13.9751L7.769 13.7279V3.81773L6.46464 4.66602V15.4139ZM10.2738 7.4752C10.723 7.59848 11.308 7.78645 11.8428 8.11468C12.4972 8.51638 13.0591 9.11699 13.2051 10.0581L13.2111 10.0971L13.2222 10.119V10.173L13.2237 10.1869C13.241 10.3412 13.2421 10.6348 13.2052 10.934C13.1151 11.3722 12.9029 11.7436 12.5556 12.0885C12.005 12.6174 11.1501 12.9812 10.2738 13.1611V7.4752Z" fill="white"/>
</svg>
