<svg width="20" height="20" viewBox="0 0 20 20" fill="none" xmlns="http://www.w3.org/2000/svg">
<circle cx="10" cy="10" r="10" fill="#A6D48C"/>
<path d="M7.83996 6.64974C7.99209 6.69512 8.009 6.71575 8.10197 6.98806C8.22875 7.35114 8.32594 7.47904 8.48653 7.49555C8.65557 7.51205 8.83306 7.36352 8.98942 7.07058L9.11198 6.84365H9.61909C9.89801 6.84365 10.2952 6.83953 10.5065 6.83128L10.8869 6.82302L10.9968 7.02107C11.3771 7.70597 11.749 7.64821 11.9645 6.87253C12.0364 6.60848 12.1209 6.57547 12.5984 6.63736C12.797 6.66211 13.0041 6.7075 13.0633 6.73225C13.2154 6.80652 13.283 7.1531 13.2534 7.71835C13.2408 7.9659 13.2408 8.16395 13.2534 8.16395C13.3506 8.16395 13.7225 7.92464 13.8704 7.77199C13.9972 7.63996 14.0606 7.5987 14.0817 7.63583C14.1155 7.70184 14.3057 8.47339 14.3944 8.90661C14.4325 9.07577 14.479 9.29857 14.5043 9.40172C14.5804 9.71942 14.5677 10.7055 14.4874 11.0067C14.3353 11.5596 14.0521 11.9433 13.5493 12.2692C13.283 12.4425 13.2027 12.4838 12.7886 12.6488C12.0195 12.9541 10.5065 13.1522 9.30215 13.0985C7.07083 13.0078 5.9763 12.4178 5.64245 11.1346C5.52835 10.6973 5.54102 9.92984 5.68048 9.00976C5.82839 8.02779 5.88755 7.65233 5.90868 7.6317C5.91714 7.61933 6.01011 7.69772 6.11576 7.80499C6.26367 7.95353 6.6102 8.16395 6.70739 8.16395C6.71585 8.16395 6.71162 7.98653 6.69472 7.77199C6.66936 7.36352 6.73698 6.79414 6.82572 6.724C6.96518 6.6126 7.56527 6.57134 7.83996 6.64974Z" fill="white"/>
<path d="M6.55579 9.89683C6.08127 9.89685 5.71059 9.7593 5.58381 9.66991L5.45703 9.60799L5.49929 9.17477L5.58381 8.55588L5.71059 7.95762L5.79511 7.50377L6.13319 7.00866L6.61918 6.65796L7.50663 6.47229L8.05601 6.55481L9.34493 6.69922H10.655L11.5847 6.59607L12.3031 6.47229L13.1272 6.59607L13.9301 7.13244L14.2048 7.56566L14.3316 8.10203L14.4372 8.55588L14.4795 9.13353C14.3527 9.22292 13.3056 9.65418 12.8314 9.66987C11.5847 9.71112 11.3945 8.61782 9.9577 8.67966C8.52087 8.61782 8.3307 9.89677 6.55579 9.89683Z" fill="#F69A25"/>
<path d="M9.04896 1.62849C8.65172 1.71101 8.26716 1.83479 7.93331 1.99157C7.65017 2.1236 7.63326 2.12773 7.48958 2.06997C7.30786 1.9957 6.93175 1.98745 6.69509 2.05346C6.44154 2.1236 6.1753 2.33402 6.01471 2.59396C5.90906 2.77137 5.85413 2.82088 5.78228 2.81263C5.73157 2.8085 5.56253 2.792 5.4104 2.7755C5.05542 2.74249 4.89483 2.81263 4.70889 3.07669C4.53562 3.3325 4.468 3.68732 4.50604 4.18243C4.53139 4.54139 4.69198 5.47797 4.78073 5.77091C4.81876 5.89882 4.80186 5.95245 4.63704 6.28665C4.2229 7.10771 4.08767 7.73485 4.09189 8.80346C4.09189 9.62452 4.15951 10.0536 4.37926 10.6808C4.56098 11.1882 4.68776 11.4399 4.92441 11.7741C5.02161 11.9103 5.11458 12.0423 5.13148 12.0712C5.15261 12.1042 5.09345 12.1578 4.95822 12.2238C4.70466 12.3476 4.51872 12.5498 4.42152 12.8015C4.26516 13.1934 4.40461 13.8164 4.72579 14.1795L4.84412 14.3116L5.00048 14.2084C5.19487 14.0805 5.22868 14.0805 5.47801 14.2167C5.58789 14.2744 5.81187 14.3652 5.9809 14.4147L6.28095 14.5055L6.26405 14.8521C6.25137 15.1821 6.24292 15.211 6.01049 15.6112C5.87526 15.8381 5.74425 16.1146 5.71044 16.2301C5.57098 16.7128 5.68931 17.208 6.0612 17.6536C6.3063 17.9506 6.52606 18.1033 6.98246 18.2931C7.32477 18.4333 7.33322 18.4333 7.79808 18.4086C8.05586 18.3962 8.31787 18.3591 8.38126 18.3302C8.51227 18.2642 8.65172 18.0868 8.68976 17.93C8.70666 17.8681 8.73202 17.8103 8.74892 17.8021C8.7616 17.7938 8.94754 17.8227 9.15461 17.864C9.56453 17.9465 10.3168 17.9671 10.5703 17.9052C10.6506 17.8846 10.7858 17.8557 10.8704 17.8433C11.0225 17.8186 11.0267 17.8186 11.1366 18.0414C11.2803 18.3302 11.3944 18.3797 11.9945 18.4086L12.4636 18.4333L12.7974 18.2889C12.9791 18.2106 13.1735 18.1198 13.2327 18.095C13.4313 18.0001 13.7652 17.6329 13.9426 17.3028C14.0441 17.1213 14.2385 16.8449 14.3737 16.6881C14.9104 16.0816 15.2358 15.046 15.0963 14.3858C15.0499 14.1672 15.0499 14.1424 15.1301 14.0558C15.2823 13.899 15.4006 13.5359 15.4048 13.2182C15.4091 12.7478 15.1766 12.3889 14.7498 12.2032C14.6357 12.1496 14.5427 12.1042 14.5427 12.0918C14.5427 12.0836 14.6653 11.9474 14.8174 11.7865C15.8612 10.6849 16.1655 9.37696 15.7514 7.75135C15.6415 7.314 15.4175 6.70749 15.1893 6.23301L15.0372 5.91532L15.1132 5.56462C15.3288 4.5744 15.3922 3.85649 15.3076 3.45215C15.2485 3.17984 15.0668 2.91578 14.8724 2.81676C14.7456 2.75074 14.5174 2.75074 14.0567 2.8085C13.9976 2.81676 13.9511 2.77962 13.9004 2.6806C13.613 2.11948 12.958 1.83891 12.3959 2.03696L12.1804 2.11123L11.8508 1.96682C11.1493 1.65737 10.6844 1.56248 9.90261 1.5666C9.58144 1.5666 9.2011 1.59548 9.04896 1.62849ZM10.9718 2.13598C11.1577 2.18136 11.5127 2.32165 11.762 2.4413L12.2142 2.65997L12.3706 2.5692C12.5734 2.44955 12.7721 2.41654 12.9749 2.47018C13.2918 2.5527 13.5285 2.83326 13.5285 3.1262C13.5285 3.22522 13.4947 3.26648 13.3341 3.35313C13.2242 3.41089 13.1228 3.4604 13.1017 3.4604C13.0805 3.4604 13.0636 3.39026 13.0636 3.30361C13.0636 3.11382 12.9369 2.90753 12.7594 2.80025C12.5734 2.69298 12.2438 2.68885 12.0621 2.79613C11.9226 2.88277 11.7367 3.15508 11.686 3.349C11.6606 3.45627 11.6479 3.46453 11.5169 3.43977C10.6379 3.27886 9.03206 3.26235 8.19532 3.40264C8.06431 3.42326 8.0305 3.41501 8.00937 3.35313C7.92908 3.10557 7.83188 2.94466 7.70088 2.83739C7.57832 2.73836 7.51071 2.71773 7.32477 2.71773C6.95288 2.71773 6.70777 2.9034 6.65706 3.2211C6.62748 3.39026 6.58099 3.41089 6.43731 3.31187C6.24292 3.17984 6.35702 2.792 6.64861 2.58158C6.8261 2.45367 7.22757 2.43717 7.42196 2.54857C7.62058 2.6641 7.64171 2.65997 7.95866 2.49493C8.3221 2.30102 8.61369 2.19374 9.02361 2.09885C9.50114 1.98745 10.4816 2.00808 10.9718 2.13598ZM7.53184 3.00242C7.61636 3.06844 7.62481 3.09732 7.58678 3.15921C7.50226 3.29124 7.18108 3.27886 7.12614 3.1427C7.10924 3.09319 7.13037 3.04368 7.18953 2.9983C7.31209 2.9034 7.40929 2.9034 7.53184 3.00242ZM12.434 3.0313C12.5227 3.13445 12.4297 3.23347 12.2396 3.23347C12.1382 3.23347 12.0621 3.20872 12.0367 3.16333C11.9691 3.06431 12.0705 2.96529 12.2396 2.96529C12.3156 2.96529 12.4002 2.99417 12.434 3.0313ZM5.84567 3.34075C6.26405 3.4769 6.76694 3.73271 6.76694 3.81523C6.76694 3.83998 6.70777 3.88537 6.64016 3.91425C6.53028 3.95964 6.4838 3.95551 6.35279 3.90187C5.92174 3.72033 5.67241 3.70795 5.49914 3.86061C5.31743 4.02565 5.27094 4.30209 5.33433 4.89622C5.37236 5.2593 5.37236 5.3872 5.3301 5.4821C5.30052 5.55224 5.26671 5.60588 5.24981 5.60588C5.19065 5.60588 5.01738 4.73943 4.9709 4.20306C4.93709 3.80698 4.99625 3.40676 5.10613 3.28711C5.20332 3.17984 5.39349 3.19221 5.84567 3.34075ZM14.7709 3.349C14.8893 3.50578 14.9104 4.07516 14.8216 4.65691C14.7414 5.17678 14.6611 5.52336 14.623 5.52336C14.6061 5.52336 14.5681 5.45322 14.5301 5.36657C14.4836 5.24692 14.4793 5.15202 14.5089 4.90447C14.5554 4.55377 14.5301 4.12467 14.454 3.98852C14.3145 3.73271 14.0821 3.68732 13.6637 3.83586C13.5327 3.88124 13.3933 3.93075 13.3552 3.94313C13.3214 3.95138 13.2454 3.92663 13.1904 3.88124C13.0383 3.76159 13.089 3.71621 13.706 3.43977C13.9976 3.30774 14.3526 3.21697 14.5174 3.22522C14.6399 3.22935 14.7033 3.26235 14.7709 3.349ZM10.9084 3.60481C11.8043 3.71621 12.5312 3.84823 12.7932 3.939C12.9411 3.99264 13.3764 4.29796 13.6088 4.50838C14.0229 4.89209 14.3314 5.40783 14.8386 6.55896C15.6626 8.43625 15.6711 9.83494 14.8639 11.0232C14.6695 11.3079 14.6019 11.3615 14.6442 11.1924C14.7625 10.7468 14.7878 10.0289 14.7118 9.45536C14.6864 9.27794 14.6104 8.86535 14.5427 8.53528C14.3019 7.38002 14.1878 7.12834 13.7905 6.82302C13.4778 6.58372 13.182 6.47644 12.6749 6.41868C12.3156 6.37742 12.1931 6.38567 11.6606 6.46407C10.1858 6.68686 9.04051 6.66211 7.7051 6.38155C7.25715 6.28665 6.48802 6.51358 6.11191 6.8519C5.75693 7.16547 5.71044 7.31813 5.49914 8.72919C5.28362 10.2186 5.3301 11.1057 5.65973 11.7535C5.82454 12.0753 5.82454 12.0794 5.64705 11.9185C5.25404 11.5596 4.90751 10.9118 4.72156 10.1898C4.4342 9.0799 4.50604 7.73897 4.89483 6.82715C5.08077 6.39392 5.75693 5.18091 5.964 4.90447C6.34856 4.40111 6.87259 3.98026 7.31631 3.81935C7.50648 3.75334 8.0136 3.65844 8.54185 3.5883C9.0067 3.53054 10.3844 3.53879 10.9084 3.60481ZM6.08233 4.0174C6.20066 4.05453 6.31053 4.09992 6.32321 4.12055C6.34011 4.1453 6.26827 4.24432 6.16262 4.34335C6.0612 4.44237 5.89638 4.64866 5.79074 4.7972C5.68931 4.94573 5.59211 5.06951 5.57944 5.06951C5.53718 5.06951 5.49914 4.78894 5.49914 4.49188C5.49914 4.29796 5.52027 4.18656 5.58366 4.08754C5.68086 3.93488 5.75693 3.9225 6.08233 4.0174ZM14.23 4.04215C14.2934 4.10817 14.3145 4.20719 14.3272 4.47537C14.3441 4.94573 14.3188 5.00762 14.1708 4.82195C14.1117 4.74356 13.9511 4.56614 13.8159 4.42586C13.6806 4.28971 13.5708 4.15355 13.5708 4.1288C13.5708 4.07929 13.9046 3.96376 14.061 3.95963C14.1075 3.95551 14.1835 3.99264 14.23 4.04215ZM7.84033 6.64973C7.99247 6.69512 8.00937 6.71575 8.10235 6.98806C8.22913 7.35114 8.32632 7.47904 8.48691 7.49554C8.65595 7.51205 8.83344 7.36352 8.9898 7.07058L9.11235 6.84365H9.61947C9.89839 6.84365 10.2956 6.83952 10.5069 6.83127L10.8873 6.82302L10.9971 7.02106C11.3775 7.70597 11.7494 7.6482 11.9649 6.87253C12.0367 6.60847 12.1213 6.57547 12.5988 6.63735C12.7974 6.66211 13.0045 6.7075 13.0636 6.73225C13.2158 6.80652 13.2834 7.15309 13.2538 7.71834C13.2411 7.9659 13.2411 8.16394 13.2538 8.16394C13.351 8.16394 13.7229 7.92464 13.8708 7.77198C13.9976 7.63995 14.061 7.59869 14.0821 7.63583C14.1159 7.70184 14.3061 8.47339 14.3948 8.90661C14.4329 9.07577 14.4793 9.29857 14.5047 9.40172C14.5808 9.71941 14.5681 10.7055 14.4878 11.0067C14.3357 11.5596 14.0525 11.9433 13.5496 12.2692C13.2834 12.4425 13.2031 12.4838 12.789 12.6488C12.0198 12.9541 10.5069 13.1522 9.30252 13.0985C7.07121 13.0078 5.97668 12.4178 5.64283 11.1346C5.52872 10.6973 5.5414 9.92984 5.68086 9.00976C5.82877 8.02779 5.88793 7.65233 5.90906 7.6317C5.91751 7.61932 6.01049 7.69771 6.11614 7.80499C6.26405 7.95352 6.61058 8.16394 6.70777 8.16394C6.71622 8.16394 6.712 7.98653 6.69509 7.77198C6.66974 7.36352 6.73735 6.79414 6.8261 6.724C6.96556 6.6126 7.56565 6.57134 7.84033 6.64973ZM8.80808 6.78589C8.90528 6.81477 8.90106 6.85603 8.77005 7.06232C8.58411 7.35114 8.49536 7.36764 8.37703 7.14072C8.33477 7.0582 8.28406 6.92617 8.26716 6.8519L8.23758 6.71162L8.48691 6.7405C8.62214 6.75701 8.76582 6.77763 8.80808 6.78589ZM11.7367 6.88904C11.6944 7.14897 11.5972 7.30575 11.4874 7.28925C11.3902 7.27687 11.1662 6.99218 11.162 6.87666C11.162 6.80652 11.3859 6.73225 11.6437 6.724C11.762 6.71987 11.762 6.724 11.7367 6.88904ZM6.47957 7.4089C6.47112 7.62345 6.44576 7.79261 6.42463 7.79261C6.36547 7.79261 6.09501 7.49967 6.06542 7.40065C6.04429 7.33876 6.08655 7.281 6.24292 7.14484C6.35279 7.04582 6.45844 6.98393 6.47112 7.00043C6.4838 7.01694 6.48802 7.20261 6.47957 7.4089ZM13.7187 7.14897L13.93 7.33051L13.8497 7.48317C13.7736 7.6152 13.5454 7.82562 13.5116 7.78849C13.482 7.75135 13.4482 6.96743 13.4778 6.96743C13.4947 6.96743 13.6046 7.04995 13.7187 7.14897ZM6.30208 12.6736C7.02472 12.9665 7.76004 13.1604 8.44888 13.2429C8.86725 13.2925 8.96444 13.3296 8.79541 13.3832C8.75315 13.3956 8.60101 13.4905 8.46578 13.5854C8.22912 13.7587 8.21645 13.7752 8.1277 14.0888C8.07699 14.2703 8.00515 14.6086 7.97134 14.8438C7.90795 15.2646 7.87837 16.0857 7.92063 16.1558C7.93331 16.1765 7.98402 16.4199 8.0305 16.6922C8.08122 16.9645 8.14883 17.2575 8.18264 17.34C8.25025 17.5009 8.26716 17.765 8.20799 17.8516C8.18687 17.8887 8.13615 17.897 8.06009 17.8764C7.9967 17.864 7.92485 17.8722 7.89105 17.897C7.85724 17.9259 7.7854 17.9341 7.72623 17.9217C7.66707 17.9052 7.58255 17.9135 7.53606 17.9382C7.47267 17.9712 7.38815 17.9506 7.14305 17.8557C6.66129 17.6659 6.42886 17.4679 6.23446 17.0842C6.13727 16.8944 6.12459 16.8325 6.14149 16.5891C6.16262 16.3085 6.23869 16.1311 6.5979 15.5287C6.69509 15.3678 6.72468 15.2688 6.72468 15.0749C6.7289 14.9387 6.75426 14.6829 6.78384 14.5096C6.81342 14.3322 6.8261 14.1713 6.81342 14.1506C6.80074 14.13 6.712 14.1011 6.61903 14.0846C6.12036 14.0062 5.74002 13.8701 5.48224 13.6844C5.4104 13.6267 5.4104 13.6225 5.53718 13.5689C5.60902 13.54 5.71044 13.4616 5.75693 13.3997C5.81609 13.3131 5.87948 13.2801 5.964 13.2801C6.13304 13.2801 6.25982 13.1357 6.25982 12.9541V12.8056L6.17107 12.95C6.05697 13.1315 6.01894 13.1563 5.833 13.1563C5.71467 13.1563 5.67241 13.1769 5.63437 13.2595C5.57944 13.3709 5.43153 13.4451 5.25826 13.4451C5.19487 13.4451 5.11881 13.4864 5.06809 13.5483C5.02161 13.606 4.9709 13.6514 4.95399 13.6514C4.82721 13.6514 4.7765 13.0738 4.88638 12.8716C4.99203 12.6694 5.34701 12.5127 5.73157 12.5003C5.80341 12.5003 6.05697 12.5787 6.30208 12.6736ZM14.5089 12.5911C14.8597 12.7355 15.0118 13.0408 14.9231 13.408C14.8597 13.6597 14.809 13.6927 14.6906 13.5606C14.6315 13.4946 14.5385 13.4492 14.4202 13.4327C14.2342 13.4121 14.0779 13.309 14.0779 13.2141C14.0779 13.1811 14.006 13.1563 13.8793 13.1481C13.706 13.1357 13.6764 13.1192 13.6172 13.0036C13.537 12.8427 13.4862 12.8304 13.4862 12.9706C13.4862 13.1068 13.6637 13.2801 13.799 13.2801C13.8708 13.2801 13.9384 13.3213 13.9976 13.4039C14.0483 13.4699 14.1455 13.5359 14.2131 13.5483C14.2765 13.5648 14.3314 13.5895 14.3314 13.6102C14.3314 13.6267 14.2385 13.7009 14.1201 13.7752C13.8962 13.9155 13.5961 14.0062 13.1989 14.0558L12.958 14.0846L12.9622 14.2497C12.9664 14.3404 12.9833 14.6251 13.0003 14.8809C13.0298 15.2853 13.051 15.3719 13.1397 15.4998C13.389 15.8505 13.6553 16.4282 13.6553 16.6056C13.6553 17.0635 13.2327 17.6412 12.789 17.7897C12.6749 17.831 12.5143 17.8929 12.4424 17.93C12.341 17.9795 12.2903 17.9836 12.248 17.9506C12.2184 17.9259 12.1297 17.9052 12.0494 17.9052C11.6184 17.897 11.5676 17.8846 11.5254 17.765C11.4916 17.6742 11.5043 17.5875 11.5761 17.373C11.7071 16.9893 11.8804 15.9908 11.8804 15.636C11.8804 14.8727 11.6817 13.9402 11.4704 13.7257C11.4071 13.6638 11.238 13.54 11.0859 13.4492C10.7901 13.2718 10.7943 13.2677 11.1831 13.2182C12.1043 13.1027 12.9242 12.8757 13.4017 12.5993C13.5792 12.5003 13.6215 12.492 13.9722 12.5085C14.1835 12.5168 14.4244 12.5539 14.5089 12.5911ZM10.4816 13.342C10.7858 13.4204 11.107 13.5771 11.3141 13.7504C11.5085 13.9113 11.5719 14.0846 11.6902 14.7407C11.8001 15.3802 11.7494 16.259 11.5592 16.8738C11.5338 16.9604 11.1577 17.1254 10.7394 17.2368C10.4942 17.3028 10.2999 17.3235 9.86458 17.3235C9.27294 17.3235 9.01093 17.2863 8.61369 17.1461C8.32632 17.047 8.27561 16.9852 8.14883 16.5767C8.06854 16.3126 8.05586 16.1765 8.05586 15.57C8.05586 14.9511 8.07276 14.8108 8.17419 14.3982C8.25025 14.0764 8.31787 13.8948 8.38126 13.8247C8.52917 13.672 9.00248 13.4121 9.26026 13.3461C9.56031 13.2677 10.19 13.2636 10.4816 13.342ZM14.6273 14.5179C14.6737 14.6045 14.6484 15.0295 14.5808 15.343C14.5216 15.6112 14.2385 16.1558 14.0356 16.3951C13.8243 16.6386 13.7821 16.6633 13.7821 16.5272C13.7821 16.3621 13.6764 16.1187 13.4271 15.6937C13.2961 15.4751 13.1904 15.2811 13.1904 15.2605C13.1904 15.2399 13.3426 15.145 13.5243 15.0542C13.7102 14.9593 14.0103 14.7819 14.192 14.6581C14.3695 14.5344 14.5343 14.4353 14.5512 14.4353C14.5681 14.4353 14.6019 14.4725 14.6273 14.5179ZM13.6975 14.8067C13.6975 14.8397 13.482 14.9717 13.4229 14.9717C13.3933 14.9717 13.3975 14.8273 13.4313 14.7943C13.4736 14.7489 13.6975 14.7613 13.6975 14.8067Z" fill="black"/>
<path d="M6.47976 7.40894C6.47131 7.62348 6.44595 7.79265 6.42482 7.79265C6.36566 7.79265 6.0952 7.49971 6.06562 7.40068C6.04449 7.3388 6.08675 7.28103 6.24311 7.14488C6.35298 7.04586 6.45863 6.98397 6.47131 7.00047C6.48399 7.01697 6.48821 7.20264 6.47976 7.40894Z" fill="#FFFEFC"/>
<path d="M8.80827 6.78592C8.90547 6.8148 8.90125 6.85606 8.77024 7.06236C8.5843 7.35117 8.49555 7.36768 8.37723 7.14075C8.33497 7.05823 8.28425 6.9262 8.26735 6.85194L8.23777 6.71166L8.4871 6.74054C8.62233 6.75704 8.76602 6.77767 8.80827 6.78592Z" fill="#FFFEFC"/>
<path d="M11.7369 6.88907C11.6946 7.149 11.5974 7.30579 11.4875 7.28928C11.3903 7.27691 11.1664 6.99222 11.1621 6.87669C11.1621 6.80655 11.3861 6.73228 11.6439 6.72403C11.7622 6.71991 11.7622 6.72403 11.7369 6.88907Z" fill="#FFFEFC"/>
<path d="M13.7189 7.149L13.9302 7.33054L13.8499 7.4832C13.7738 7.61523 13.5456 7.82565 13.5118 7.78852C13.4822 7.75139 13.4484 6.96746 13.478 6.96746C13.4949 6.96746 13.6048 7.04998 13.7189 7.149Z" fill="#FFFEFC"/>
<path d="M6.08221 4.01747C6.20054 4.0546 6.31041 4.09999 6.32309 4.12062C6.33999 4.14537 6.26815 4.2444 6.1625 4.34342C6.06108 4.44244 5.89627 4.64874 5.79062 4.79727C5.68919 4.9458 5.592 5.06958 5.57932 5.06958C5.53706 5.06958 5.49902 4.78902 5.49902 4.49195C5.49902 4.29803 5.52015 4.18663 5.58354 4.08761C5.68074 3.93495 5.75681 3.92258 6.08221 4.01747Z" fill="#DEDDDB"/>
<path d="M14.2299 4.04223C14.2933 4.10824 14.3144 4.20726 14.3271 4.47545C14.344 4.9458 14.3186 5.00769 14.1707 4.82203C14.1116 4.74363 13.951 4.56622 13.8157 4.42594C13.6805 4.28978 13.5706 4.15363 13.5706 4.12887C13.5706 4.07936 13.9045 3.96383 14.0609 3.95971C14.1073 3.95558 14.1834 3.99271 14.2299 4.04223Z" fill="#DEDDDB"/>
<path d="M10.9713 2.13595C11.1573 2.18134 11.5123 2.32162 11.7616 2.44127L12.2138 2.65994L12.3701 2.56917C12.573 2.44952 12.7716 2.41652 12.9745 2.47015C13.2914 2.55267 13.5281 2.83323 13.5281 3.12617C13.5281 3.2252 13.4943 3.26645 13.3337 3.3531C13.2238 3.41086 13.1224 3.46037 13.1012 3.46037C13.0801 3.46037 13.0632 3.39023 13.0632 3.30359C13.0632 3.1138 12.9364 2.9075 12.7589 2.80023C12.573 2.69295 12.2434 2.68883 12.0616 2.7961C11.9222 2.88274 11.7362 3.15506 11.6855 3.34897C11.6602 3.45625 11.6475 3.4645 11.5165 3.43974C10.6375 3.27883 9.03162 3.26233 8.19488 3.40261C8.06387 3.42324 8.03006 3.41499 8.00893 3.3531C7.92864 3.10554 7.83144 2.94463 7.70044 2.83736C7.57788 2.73834 7.51027 2.71771 7.32433 2.71771C6.95244 2.71771 6.70733 2.90337 6.65662 3.22107C6.62704 3.39023 6.58055 3.41086 6.43687 3.31184C6.24248 3.17981 6.35658 2.79197 6.64817 2.58155C6.82566 2.45365 7.22713 2.43715 7.42152 2.54855C7.62014 2.66407 7.64127 2.65994 7.95822 2.49491C8.32166 2.30099 8.61325 2.19372 9.02317 2.09882C9.5007 1.98742 10.4811 2.00805 10.9713 2.13595Z" fill="#84C341"/>
<path d="M5.84523 3.34072C6.26361 3.47688 6.7665 3.73268 6.7665 3.8152C6.7665 3.83996 6.70733 3.88534 6.63972 3.91422C6.52984 3.95961 6.48336 3.95548 6.35235 3.90185C5.9213 3.72031 5.67197 3.70793 5.4987 3.86059C5.31699 4.02562 5.2705 4.30206 5.33389 4.89619C5.37192 5.25927 5.37192 5.38718 5.32966 5.48207C5.30008 5.55221 5.26627 5.60585 5.24937 5.60585C5.19021 5.60585 5.01694 4.73941 4.97046 4.20304C4.93665 3.80695 4.99581 3.40674 5.10569 3.28708C5.20288 3.17981 5.39305 3.19219 5.84523 3.34072Z" fill="#84C341"/>
<path d="M14.7705 3.34897C14.8888 3.50576 14.91 4.07514 14.8212 4.65689C14.7409 5.17675 14.6606 5.52333 14.6226 5.52333C14.6057 5.52333 14.5677 5.45319 14.5296 5.36655C14.4831 5.24689 14.4789 5.152 14.5085 4.90444C14.555 4.55374 14.5296 4.12465 14.4536 3.98849C14.3141 3.73268 14.0817 3.6873 13.6633 3.83583C13.5323 3.88122 13.3928 3.93073 13.3548 3.9431C13.321 3.95136 13.2449 3.9266 13.19 3.88122C13.0378 3.76156 13.0886 3.71618 13.7056 3.43974C13.9971 3.30771 14.3521 3.21694 14.5169 3.2252C14.6395 3.22932 14.7029 3.26233 14.7705 3.34897Z" fill="#84C341"/>
<path d="M10.908 3.60478C11.8039 3.71618 12.5307 3.84821 12.7927 3.93898C12.9407 3.99262 13.3759 4.29793 13.6084 4.50836C14.0225 4.89207 14.331 5.40781 14.8381 6.55894C15.6622 8.43623 15.6706 9.83491 14.8635 11.0232C14.6691 11.3079 14.6015 11.3615 14.6437 11.1923C14.762 10.7467 14.7874 10.0288 14.7113 9.45533C14.686 9.27792 14.6099 8.86532 14.5423 8.53525C14.3014 7.37999 14.1873 7.12831 13.7901 6.823C13.4774 6.58369 13.1815 6.47642 12.6744 6.41865C12.3152 6.3774 12.1927 6.38565 11.6602 6.46404C10.1853 6.68684 9.04007 6.66208 7.70466 6.38152C7.25671 6.28663 6.48758 6.51355 6.11147 6.85188C5.75649 7.16545 5.71 7.31811 5.4987 8.72917C5.28318 10.2186 5.32966 11.1057 5.65929 11.7535C5.8241 12.0753 5.8241 12.0794 5.64661 11.9185C5.2536 11.5595 4.90707 10.9118 4.72112 10.1897C4.43376 9.07987 4.5056 7.73895 4.89439 6.82712C5.08033 6.3939 5.75649 5.18088 5.96356 4.90444C6.34812 4.40108 6.87215 3.98024 7.31587 3.81933C7.50604 3.75331 8.01316 3.65842 8.54141 3.58828C9.00626 3.53051 10.3839 3.53877 10.908 3.60478Z" fill="#84C341"/>
<path d="M6.30164 12.6735C7.02428 12.9665 7.7596 13.1604 8.44844 13.2429C8.86681 13.2924 8.964 13.3296 8.79497 13.3832C8.75271 13.3956 8.60057 13.4905 8.46534 13.5854C8.22868 13.7587 8.21601 13.7752 8.12726 14.0887C8.07655 14.2703 8.00471 14.6086 7.9709 14.8438C7.90751 15.2646 7.87793 16.0857 7.92019 16.1558C7.93287 16.1764 7.98358 16.4199 8.03006 16.6922C8.08078 16.9645 8.14839 17.2574 8.1822 17.34C8.24982 17.5009 8.26672 17.7649 8.20756 17.8516C8.18643 17.8887 8.13571 17.897 8.05965 17.8763C7.99626 17.8639 7.92441 17.8722 7.89061 17.897C7.8568 17.9258 7.78496 17.9341 7.72579 17.9217C7.66663 17.9052 7.58211 17.9135 7.53562 17.9382C7.47224 17.9712 7.38772 17.9506 7.14261 17.8557C6.66085 17.6659 6.42842 17.4679 6.23402 17.0842C6.13683 16.8944 6.12415 16.8325 6.14105 16.589C6.16218 16.3085 6.23825 16.1311 6.59746 15.5287C6.69465 15.3678 6.72424 15.2687 6.72424 15.0748C6.72846 14.9387 6.75382 14.6829 6.7834 14.5096C6.81298 14.3322 6.82566 14.1713 6.81298 14.1506C6.8003 14.13 6.71156 14.1011 6.61859 14.0846C6.11992 14.0062 5.73958 13.8701 5.4818 13.6844C5.40996 13.6266 5.40996 13.6225 5.53674 13.5689C5.60858 13.54 5.71 13.4616 5.75649 13.3997C5.81565 13.3131 5.87904 13.2801 5.96356 13.2801C6.1326 13.2801 6.25938 13.1356 6.25938 12.9541V12.8056L6.17063 12.95C6.05653 13.1315 6.0185 13.1563 5.83256 13.1563C5.71423 13.1563 5.67197 13.1769 5.63393 13.2594C5.579 13.3708 5.43109 13.4451 5.25782 13.4451C5.19443 13.4451 5.11837 13.4864 5.06765 13.5482C5.02117 13.606 4.97046 13.6514 4.95355 13.6514C4.82677 13.6514 4.77606 13.0738 4.88594 12.8716C4.99159 12.6694 5.34657 12.5126 5.73113 12.5003C5.80297 12.5003 6.05653 12.5786 6.30164 12.6735Z" fill="#84C341"/>
<path d="M14.5085 12.591C14.8593 12.7354 15.0114 13.0408 14.9226 13.408C14.8593 13.6596 14.8085 13.6926 14.6902 13.5606C14.631 13.4946 14.5381 13.4492 14.4198 13.4327C14.2338 13.4121 14.0774 13.3089 14.0774 13.214C14.0774 13.181 14.0056 13.1563 13.8788 13.148C13.7056 13.1356 13.676 13.1191 13.6168 13.0036C13.5365 12.8427 13.4858 12.8303 13.4858 12.9706C13.4858 13.1068 13.6633 13.2801 13.7985 13.2801C13.8704 13.2801 13.938 13.3213 13.9972 13.4038C14.0479 13.4698 14.1451 13.5359 14.2127 13.5482C14.2761 13.5647 14.331 13.5895 14.331 13.6101C14.331 13.6266 14.238 13.7009 14.1197 13.7752C13.8957 13.9154 13.5957 14.0062 13.1984 14.0557L12.9576 14.0846L12.9618 14.2496C12.966 14.3404 12.9829 14.6251 12.9998 14.8809C13.0294 15.2853 13.0505 15.3719 13.1393 15.4998C13.3886 15.8505 13.6548 16.4281 13.6548 16.6055C13.6548 17.0635 13.2323 17.6412 12.7885 17.7897C12.6744 17.8309 12.5138 17.8928 12.442 17.93C12.3406 17.9795 12.2899 17.9836 12.2476 17.9506C12.218 17.9258 12.1293 17.9052 12.049 17.9052C11.6179 17.897 11.5672 17.8846 11.525 17.7649C11.4911 17.6742 11.5038 17.5875 11.5757 17.373C11.7067 16.9893 11.8799 15.9908 11.8799 15.636C11.8799 14.8727 11.6813 13.9402 11.47 13.7257C11.4066 13.6638 11.2376 13.54 11.0855 13.4492C10.7896 13.2718 10.7939 13.2677 11.1827 13.2182C12.1039 13.1026 12.9238 12.8757 13.4013 12.5993C13.5788 12.5003 13.621 12.492 13.9718 12.5085C14.1831 12.5168 14.424 12.5539 14.5085 12.591Z" fill="#84C341"/>
<path d="M14.6268 14.5178C14.6733 14.6045 14.648 15.0294 14.5803 15.343C14.5212 15.6112 14.238 16.1558 14.0352 16.3951C13.8239 16.6386 13.7816 16.6633 13.7816 16.5272C13.7816 16.3621 13.676 16.1187 13.4266 15.6937C13.2956 15.475 13.19 15.2811 13.19 15.2605C13.19 15.2399 13.3421 15.145 13.5238 15.0542C13.7098 14.9593 14.0098 14.7819 14.1915 14.6581C14.369 14.5343 14.5339 14.4353 14.5508 14.4353C14.5677 14.4353 14.6015 14.4724 14.6268 14.5178Z" fill="#84C341"/>
<path d="M10.4814 13.342C10.7856 13.4204 11.1068 13.5772 11.3139 13.7504C11.5083 13.9114 11.5717 14.0846 11.69 14.7407C11.7999 15.3802 11.7492 16.259 11.559 16.8738C11.5336 16.9604 11.1575 17.1254 10.7392 17.2368C10.4941 17.3029 10.2997 17.3235 9.86438 17.3235C9.27275 17.3235 9.01073 17.2864 8.61349 17.1461C8.32613 17.047 8.27541 16.9852 8.14864 16.5767C8.06834 16.3126 8.05566 16.1765 8.05566 15.57C8.05566 14.9511 8.07257 14.8108 8.17399 14.3982C8.25006 14.0764 8.31767 13.8948 8.38106 13.8247C8.52897 13.672 9.00228 13.4121 9.26007 13.3461C9.56011 13.2677 10.1898 13.2636 10.4814 13.342Z" fill="#D6DF22"/>
<path d="M7.67103 4.43837C7.57806 4.50438 7.52734 4.65704 7.52734 4.88397C7.52734 5.07376 7.54425 5.13152 7.63299 5.21817C7.84429 5.42446 8.09785 5.23055 8.09362 4.87159C8.09362 4.59516 8.00065 4.43424 7.84429 4.41774C7.77245 4.41361 7.69638 4.42187 7.67103 4.43837Z" fill="black"/>
<path d="M11.9482 4.46298C11.8425 4.53724 11.7833 4.83431 11.8383 5.0241C11.9735 5.51921 12.4257 5.32942 12.3792 4.79717C12.3496 4.46298 12.1552 4.31444 11.9482 4.46298Z" fill="black"/>
<path d="M7.16883 7.37588C7.15615 7.40064 7.1646 7.4584 7.18996 7.50378C7.22377 7.5698 7.22377 7.67295 7.18573 7.89987C7.10121 8.41974 7.20686 8.82408 7.4731 9.00974C7.64636 9.1294 8.05628 9.14177 8.238 9.0345C8.38169 8.94373 8.55072 8.63841 8.61411 8.3496L8.64792 8.18456L8.86767 8.18044C9.07475 8.17631 9.26069 8.08966 9.26069 7.99889C9.26069 7.97827 9.11278 7.95764 8.93529 7.94938C8.63102 7.93701 8.58031 7.9205 8.26758 7.73896C7.98444 7.57393 7.72243 7.4749 7.26603 7.35525C7.22799 7.34287 7.18573 7.35525 7.16883 7.37588ZM8.19574 7.98239C8.3352 8.07729 8.30562 8.25058 8.14926 8.30421C7.92105 8.38261 7.6844 8.1433 7.82386 7.97414C7.89147 7.89575 8.07741 7.89987 8.19574 7.98239Z" fill="black"/>
<path d="M8.19578 7.98243C8.33524 8.07732 8.30565 8.25061 8.14929 8.30425C7.92109 8.38264 7.68444 8.14334 7.82389 7.97417C7.89151 7.89578 8.07745 7.89991 8.19578 7.98243Z" fill="#E6ECF9"/>
<path d="M12.5566 7.43791C12.2439 7.52868 11.8551 7.7061 11.6058 7.87114C11.5086 7.93715 11.4114 7.95778 11.1747 7.95778C11.0057 7.95778 10.8662 7.97428 10.8662 7.99079C10.8662 8.07743 11.0353 8.16408 11.2296 8.18058C11.3437 8.18883 11.4494 8.19708 11.4663 8.20121C11.479 8.20534 11.5043 8.28373 11.5212 8.37862C11.555 8.58492 11.6861 8.8531 11.8002 8.96038C11.9143 9.06765 12.0706 9.11304 12.3115 9.11304C12.5059 9.11304 12.5397 9.09653 12.7045 8.93562C12.975 8.67569 13.0257 8.43226 12.9285 7.86701C12.8905 7.64421 12.8905 7.55757 12.9327 7.49568C12.9792 7.42141 12.9623 7.33477 12.9031 7.34302C12.8862 7.34302 12.7299 7.38428 12.5566 7.43791ZM12.2819 7.97016C12.3369 8.01142 12.3495 8.0568 12.3284 8.13932C12.265 8.38275 11.8593 8.38688 11.8593 8.14345C11.8593 7.95778 12.1129 7.85463 12.2819 7.97016Z" fill="black"/>
<path d="M12.282 7.97016C12.3369 8.01142 12.3496 8.05681 12.3285 8.13933C12.2651 8.38276 11.8594 8.38688 11.8594 8.14345C11.8594 7.95779 12.1129 7.85464 12.282 7.97016Z" fill="#E6ECF9"/>
<path d="M9.65781 8.89429C9.33241 8.9438 9.19295 9.09646 9.19295 9.39765C9.19295 9.60394 9.33663 9.78136 9.63245 9.92577C9.86488 10.0413 9.91559 10.0867 9.88601 10.1651C9.83107 10.2971 9.12956 10.3631 8.77881 10.2723C8.68161 10.2435 8.51257 10.1774 8.41114 10.1238C8.3055 10.0702 8.21252 10.0413 8.20407 10.0578C8.16604 10.1114 8.51257 11.2213 8.6309 11.4317C8.93094 11.9681 9.37467 12.2074 10.0846 12.2074C10.8284 12.2074 11.3609 11.8856 11.6187 11.2873C11.7074 11.0728 11.9863 10.0949 11.961 10.0702C11.9525 10.0578 11.8426 10.0991 11.7201 10.1568C11.4369 10.293 11.1031 10.3425 10.7439 10.3095C10.4523 10.2765 10.2494 10.1857 10.2494 10.0826C10.2494 10.0454 10.3466 9.97528 10.4734 9.92164C10.8073 9.77311 10.8833 9.68646 10.8833 9.44303C10.8833 9.278 10.8622 9.21611 10.7692 9.11296C10.5875 8.92317 10.0889 8.82415 9.65781 8.89429ZM8.93939 10.5447C8.93939 10.5859 8.91826 10.6478 8.89713 10.6808C8.8591 10.7344 8.85065 10.7344 8.81261 10.6808C8.74077 10.5777 8.7619 10.4745 8.85487 10.4745C8.90558 10.4745 8.93939 10.5034 8.93939 10.5447ZM11.3693 10.5158C11.3989 10.5612 11.3186 10.7221 11.2679 10.7221C11.2087 10.7221 11.1792 10.5405 11.2341 10.5075C11.3017 10.4663 11.3397 10.4663 11.3693 10.5158ZM10.8242 11.6133C10.8495 11.6463 10.896 11.671 10.9298 11.671C10.9636 11.671 10.9256 11.7082 10.8495 11.7535C10.7735 11.7989 10.6932 11.8278 10.6678 11.8154C10.6467 11.7989 10.6298 11.8113 10.6298 11.8361C10.6298 11.8608 10.6044 11.8773 10.5791 11.8732C10.5495 11.8691 10.4692 11.8897 10.4016 11.9227C10.3213 11.9598 10.2706 11.964 10.2621 11.9351C10.2537 11.9103 10.1734 11.9021 10.0424 11.9186C9.90292 11.9351 9.80994 11.9268 9.76346 11.8897C9.7212 11.8608 9.67049 11.8484 9.64936 11.8608C9.59865 11.8897 9.36199 11.7989 9.27747 11.7164C9.22253 11.6628 9.22676 11.6587 9.30705 11.6793C9.36199 11.6917 9.41693 11.6875 9.42961 11.6669C9.44228 11.6463 9.42538 11.6298 9.3958 11.6298C9.36622 11.6298 9.37467 11.6091 9.42115 11.5803C9.47187 11.5514 9.63668 11.5473 9.88601 11.5638C10.1227 11.5803 10.2959 11.572 10.334 11.5473C10.4185 11.4936 10.765 11.539 10.8242 11.6133Z" fill="black"/>
<path d="M10.8242 11.6133C10.8495 11.6463 10.896 11.671 10.9298 11.671C10.9636 11.671 10.9256 11.7082 10.8495 11.7535C10.7735 11.7989 10.6932 11.8278 10.6678 11.8154C10.6467 11.7989 10.6298 11.8113 10.6298 11.8361C10.6298 11.8608 10.6044 11.8773 10.5791 11.8732C10.5495 11.8691 10.4692 11.8897 10.4016 11.9227C10.3213 11.9598 10.2706 11.964 10.2621 11.9351C10.2537 11.9103 10.1734 11.9021 10.0424 11.9186C9.90292 11.9351 9.80994 11.9268 9.76346 11.8897C9.7212 11.8608 9.67049 11.8484 9.64936 11.8608C9.59865 11.8897 9.36199 11.7989 9.27747 11.7164C9.22253 11.6628 9.22676 11.6587 9.30705 11.6793C9.36199 11.6917 9.41693 11.6875 9.42961 11.6669C9.44228 11.6463 9.42538 11.6298 9.3958 11.6298C9.36622 11.6298 9.37467 11.6091 9.42115 11.5803C9.47187 11.5514 9.63668 11.5473 9.88601 11.5638C10.1227 11.5803 10.2959 11.572 10.334 11.5473C10.4185 11.4936 10.765 11.539 10.8242 11.6133Z" fill="black"/>
<path d="M8.93925 10.5446C8.93925 10.5859 8.91812 10.6478 8.89699 10.6808C8.85896 10.7344 8.85051 10.7344 8.81247 10.6808C8.74063 10.5776 8.76176 10.4745 8.85473 10.4745C8.90545 10.4745 8.93925 10.5034 8.93925 10.5446Z" fill="white"/>
<path d="M11.3692 10.5158C11.3988 10.5611 11.3185 10.722 11.2678 10.722C11.2086 10.722 11.179 10.5405 11.234 10.5075C11.3016 10.4662 11.3396 10.4662 11.3692 10.5158Z" fill="white"/>
<path d="M9.72585 11.4235C9.87799 11.407 10.0287 11.4991 10.0851 11.5472C10.1414 11.4991 10.2921 11.407 10.4443 11.4235C10.6344 11.4441 10.9725 11.5679 10.9936 11.6916C11.0148 11.8154 10.5499 12.0217 10.0851 12.0217C9.6202 12.0217 9.15535 11.8154 9.17648 11.6916C9.19761 11.5679 9.53568 11.4441 9.72585 11.4235Z" fill="#EE4063"/>
<ellipse cx="0.656425" cy="0.298553" rx="0.656425" ry="0.298553" transform="matrix(0.992183 0.124791 -0.130815 0.991407 9.42285 8.94788)" fill="#63686B"/>
</svg>
