<svg width="20" height="20" viewBox="0 0 20 20" fill="none" xmlns="http://www.w3.org/2000/svg">
<path d="M19.1814 8.11633C19.045 7.4595 18.8041 6.82882 18.4678 6.24835C17.7752 5.09398 16.264 3.4149 14.3751 2.09262C14.3751 2.09262 12.9478 1.16912 12.2762 0.854293C9.82055 -0.279089 7.07104 -0.509963 4.72033 1.5679C0.774476 5.07299 -1.19845 9.96333 0.774476 14.8327C0.816453 14.9376 1.90786 17.918 8.45629 19.9119C11.3317 19.9959 13.0108 19.828 14.8578 18.7575C17.2715 17.3723 18.6777 14.8537 19.1814 12.2931C19.3284 11.5165 19.3494 8.89291 19.1814 8.11633" fill="#04FFCC"/>
<path d="M11.5438 1.2111V5.89155L6.12874 5.55573L3.90396 8.3682L3.6311 13.6783L5.4781 15.6512L8.24859 17.0365L11.8796 17.4353L15.8255 16.4278V6.66813L15.0699 2.61733C15.0699 2.61733 12.95 0.959238 11.5648 0.560455" fill="#7DF8FB"/>
<path d="M17.8802 12.8178C17.1246 12.7758 17.5443 11.5794 17.2085 10.2152C16.8097 8.70401 17.3974 7.65459 18.174 7.69656C18.5385 7.75396 18.884 7.89791 19.1814 8.11633C19.045 7.4595 18.8041 6.82882 18.4678 6.24835C17.7752 5.09398 16.264 3.4149 14.3751 2.09262V14.7487C14.3754 15.0394 14.2766 15.3214 14.095 15.5484C13.9135 15.7754 13.66 15.9337 13.3764 15.9973C13.0928 16.0608 12.796 16.0259 12.535 15.8981C12.2739 15.7703 12.0642 15.5574 11.9404 15.2944C11.1913 15.7587 10.3325 16.0159 9.45162 16.0398C8.5707 16.0636 7.69921 15.8534 6.9261 15.4304C6.153 15.0075 5.50595 14.387 5.05101 13.6322C4.59607 12.8775 4.34952 12.0156 4.33653 11.1344C4.32354 10.2533 4.54458 9.38445 4.97707 8.61664C5.40957 7.84882 6.03804 7.20951 6.79834 6.76394C7.55865 6.31838 8.42356 6.08252 9.3048 6.08043C10.186 6.07835 11.0521 6.31011 11.8145 6.75208V1.84076C11.8108 1.65196 11.8506 1.46485 11.9306 1.29383C12.0107 1.12281 12.1289 0.972437 12.2762 0.854293C9.82055 -0.279089 7.07104 -0.509963 4.72033 1.5679C0.774476 5.07299 -1.19845 9.96333 0.774476 14.8327C0.816453 14.9376 0.85843 15.0426 0.900408 15.1265C0.95725 15.0082 1.03553 14.9015 1.13128 14.8117C2.15972 13.7623 3.2931 15.9031 5.70679 17.1414C7.23895 17.918 8.12047 18.9464 8.45629 19.9119C10.7021 20.1848 13.0108 19.828 14.8578 18.7575C17.2715 17.3723 18.6777 14.8537 19.1814 12.2931C18.8193 12.6097 18.3607 12.7947 17.8802 12.8178V12.8178ZM9.65474 2.86919C10.2214 2.84821 10.7461 3.51984 10.7671 3.83467C10.7881 4.1495 10.2844 4.02357 9.73869 4.21246C9.13002 4.42235 8.68926 4.23345 8.66827 3.91862C8.64729 3.60379 9.06496 2.89018 9.65474 2.86919Z" fill="#2C398F"/>
<path d="M8.41436 12.9017C9.63169 13.5943 11.1009 13.3215 11.3737 11.7683C11.5207 10.8658 11.4367 9.45959 10.6391 9.01883C7.99459 7.50765 5.7698 11.3905 8.41436 12.9017Z" fill="#2C398F"/>
</svg>
