<svg width="20" height="20" viewBox="0 0 20 20" fill="none" xmlns="http://www.w3.org/2000/svg">
<circle cx="10" cy="10" r="10" fill="#FFF706"/>
<path d="M4.16941 12.5H2.8125V15.9375H4.16941C5.1585 15.9375 5.9375 15.1816 5.9375 14.2286C5.9375 13.2615 5.16131 12.5 4.16941 12.5ZM4.15025 15.1911H3.6343V13.2464H4.15025C4.67634 13.2464 5.08696 13.6787 5.08696 14.2286C5.08696 14.7678 4.67634 15.1911 4.15025 15.1911Z" fill="black"/>
<path d="M8.28316 12.5C7.31773 12.5 6.5625 13.2589 6.5625 14.2188C6.5625 15.1786 7.31609 15.9375 8.28152 15.9375C9.24695 15.9375 10 15.1808 10 14.2188C10 13.2566 9.24803 12.5 8.28316 12.5ZM8.28316 15.1853C7.76794 15.1853 7.37733 14.7711 7.37733 14.2188C7.37733 13.6664 7.76794 13.2522 8.28316 13.2522C8.79836 13.2522 9.18845 13.6664 9.18845 14.2188C9.18845 14.7711 8.79782 15.1853 8.28316 15.1853Z" fill="black"/>
<path d="M11.9819 12.5H10.625V15.9375H11.9819C12.971 15.9375 13.75 15.1816 13.75 14.2286C13.75 13.2615 12.971 12.5 11.9819 12.5ZM11.9628 15.1911H11.4468V13.2464H11.9628C12.4888 13.2464 12.8995 13.6787 12.8995 14.2286C12.8995 14.7678 12.4888 15.1911 11.9628 15.1911Z" fill="black"/>
<path d="M15.9377 12.5C14.8846 12.5 14.0625 13.2566 14.0625 14.2188C14.0625 15.1808 14.8846 15.9375 15.9377 15.9375C16.991 15.9375 17.8125 15.1808 17.8125 14.2188C17.8125 13.2566 16.9903 12.5 15.9377 12.5ZM15.9377 15.1853C15.3763 15.1853 14.9496 14.7711 14.9496 14.2188C14.9496 13.6664 15.3757 13.2522 15.9377 13.2522C16.4998 13.2522 16.9254 13.6664 16.9254 14.2188C16.9254 14.7711 16.4987 15.1853 15.9377 15.1853Z" fill="black"/>
<path d="M14.9378 5.67467C14.084 4.88887 13.0366 4.34402 11.903 4.09589C11.962 4.04751 12.021 3.99559 12.0776 3.93895C12.5791 3.43747 12.7573 2.80382 12.4753 2.52299C12.2228 2.27048 11.6847 2.38848 11.2151 2.77904C11.1266 2.08286 10.7773 1.5625 10.3596 1.5625C9.94189 1.5625 9.59143 2.08286 9.50294 2.77904C9.03095 2.38848 8.49644 2.27048 8.24275 2.52299C7.9619 2.805 8.13889 3.43865 8.6404 3.93895C8.6982 3.99559 8.75836 4.04869 8.81739 4.09707C7.4488 4.39987 6.21278 5.13206 5.28963 6.18679C4.36649 7.24157 3.80452 8.56368 3.68571 9.9603L3.57715 11.25H5.2704L5.36834 10.1031C5.47184 8.8829 6.02974 7.74601 6.93159 6.9176C7.83344 6.08919 9.01348 5.62958 10.2381 5.62983H10.4906C11.7151 5.62937 12.8951 6.08889 13.7968 6.91739C14.6986 7.74589 15.2561 8.8829 15.3591 10.1031L15.457 11.25H17.1515L17.0441 9.9603C16.9052 8.31792 16.1533 6.788 14.9378 5.67467Z" fill="black"/>
<path d="M8.70924 7.79749C8.3741 7.79749 8.10156 8.28127 8.10156 8.87833C8.10156 9.47538 8.3741 9.95917 8.70924 9.95917C9.04433 9.95917 9.31691 9.47538 9.31691 8.87833C9.31691 8.28127 9.04433 7.79749 8.70924 7.79749Z" fill="black"/>
<path d="M12.0188 7.79749C11.6837 7.79749 11.4111 8.28127 11.4111 8.87833C11.4111 9.47538 11.6837 9.95917 12.0188 9.95917C12.3539 9.95917 12.6265 9.47538 12.6265 8.87833C12.6265 8.28127 12.3539 7.79749 12.0188 7.79749Z" fill="black"/>
</svg>
