<svg width="20" height="20" viewBox="0 0 20 20" fill="none" xmlns="http://www.w3.org/2000/svg">
<circle cx="10" cy="10" r="10" fill="#BFA64A"/>
<path d="M6.22755 4.53662H10.2181C11.8537 4.53662 13.1284 5.01115 14.0421 5.9602C14.9558 6.90926 15.4127 8.24702 15.4127 9.9735C15.4127 11.705 14.9558 13.0529 14.0421 14.0171C13.1284 14.9813 11.8537 15.4634 10.2181 15.4634H6.22755V4.53662ZM8.1812 6.18737V13.8126H10.0137C11.1142 13.8126 11.9572 13.4845 12.5428 12.8282C13.1284 12.172 13.4212 11.2229 13.4212 9.98107C13.4212 8.75941 13.1259 7.82298 12.5352 7.17176C11.9446 6.5155 11.1041 6.18737 10.0137 6.18737H8.1812Z" fill="white"/>
<path d="M11.6594 9.01825V10.9818H4.75L4.75 9.01825H11.6594Z" fill="white"/>
<circle cx="15" cy="15" r="5" fill="#131419"/>
<path fill-rule="evenodd" clip-rule="evenodd" d="M13.4097 14.3483L15 12.7579L16.5903 14.3483L17.5148 13.4238L15 10.909L12.4852 13.4238L13.4097 14.3483ZM11.8327 14.0782L10.9093 15.0016L11.8327 15.925L12.7561 15.0016L11.8327 14.0782ZM15 17.2445L13.4097 15.6542L12.4852 16.5786L15 19.0934L17.5148 16.5786L16.5903 15.6542L15 17.2445ZM18.1675 14.0783L17.2441 15.0017L18.1675 15.9251L19.0909 15.0017L18.1675 14.0783ZM15.0005 14.0638L15.9379 15.0012L15.0005 15.9386L14.0631 15.0012L14.2247 14.8332L14.3087 14.7556L15.0005 14.0638Z" fill="#F0B90B"/>
</svg>
