<svg width="20" height="20" viewBox="0 0 20 20" fill="none" xmlns="http://www.w3.org/2000/svg">
<rect width="20" height="20" rx="10" fill="white"/>
<path d="M14.9471 9.1842C14.3373 8.16451 12.7322 9.43059 10.9265 9.90453C9.9337 10.1623 10.4746 9.46174 10.3488 10.4344C10.96 10.4913 10.3158 10.6796 10.7093 11.1831C12.3077 12.9368 16.4191 10.3409 14.9471 9.1842Z" fill="#FF7F38"/>
<path d="M7.51246 6.33617C6.21531 6.73529 6.27518 6.87498 8.33066 8.53134C9.72759 9.64889 9.7675 9.64889 9.50807 9.03025C9.34842 8.67104 9.1289 7.85283 8.98921 7.21424C8.74974 5.99691 8.70983 5.97696 7.51246 6.33617Z" fill="#FF7F38"/>
<path d="M5.41714 7.71315C5.13775 8.09232 3.9803 12.3829 4.00025 13.0215C4.00025 13.4605 4.4792 13.9395 6.51473 15.6357C8.47043 17.2522 9.08907 17.6713 9.32854 17.5116C9.64784 17.3121 11.4239 12.343 11.3242 11.9239C11.2643 11.6844 6.01582 7.47368 5.77635 7.47368C5.69653 7.47368 5.53688 7.59342 5.41714 7.71315ZM8.07131 10.9261C8.8496 11.7044 9.12898 12.782 8.76977 13.6601C8.45047 14.4583 7.75201 14.618 6.85398 14.139C5.79631 13.5803 5.77635 13.4805 6.11561 12.0636C6.61451 10.0281 6.97372 9.8285 8.07131 10.9261Z" fill="#FF7F38"/>
<path d="M7.33351 11.7842C7.27364 11.884 7.17386 12.2033 7.09403 12.5226C6.99425 12.9217 7.05412 13.1013 7.29359 13.2011C7.61289 13.3208 7.9721 12.9816 7.9721 12.5426C7.9721 12.2233 7.45324 11.5847 7.33351 11.7842Z" fill="#FF7F38"/>
<path d="M15.0794 11.19C14.5805 11.4095 12.9017 11.9667 12.742 12.1663C11.9242 12.4685 13.0813 11.991 12.742 12.2704C12.4427 12.2106 12.3853 12.2476 12.2257 12.3873C11.8864 12.6468 9.99057 17.8753 10.1702 18.0549C10.3099 18.1946 14.9996 16.3586 15.239 16.0593C15.4186 15.8198 16.9153 11.4693 16.8156 11.4494C16.7956 11.4294 16.596 11.2897 16.3765 11.1101C16.0173 10.8108 15.9175 10.8108 15.0794 11.19ZM15.4785 12.5669C15.4785 12.9461 15.0113 13.0174 14.4526 13.2967C14.1732 13.4364 14.273 14.0209 14.4526 13.981C15.2708 13.7415 15.1393 14.2782 14.3011 14.6374C13.9219 14.7771 13.6226 15.1363 13.423 15.6552C13.2035 16.214 13.0039 16.5182 12.7046 16.5182C12.4651 16.5182 12.2855 16.4783 12.2855 16.4384C12.2855 16.0393 13.3432 13.1257 13.5428 12.986C13.8221 12.7465 14.8599 12.3674 15.239 12.3474C15.3588 12.3275 15.4785 12.4472 15.4785 12.5669Z" fill="#FF7F38"/>
<g clip-path="url(#clip0_4918_59966)">
<path d="M6.83287 2.18977C6.76689 2.37222 6.86219 3.20422 7.10411 4.37194C7.22874 4.9777 7.42667 6.05054 7.54396 6.77307C7.88851 8.86036 8.20374 9.75805 8.89283 10.663C9.91915 12.0132 12.4116 13.2831 12.9614 12.7357C13.0421 12.6555 13.1154 12.5095 13.1154 12.4219C13.1154 12.1227 12.8075 11.6264 12.4116 11.2907C12.1917 11.1009 12.0304 10.9404 12.0451 10.9185C12.0671 10.9039 12.5069 10.7944 13.0348 10.6776L13.9951 10.466L14.7428 11.0936C15.9011 12.057 16.3849 12.2467 16.7441 11.8891C17.2207 11.422 16.7002 10.4733 15.0141 8.74359C14.0024 7.70724 13.9218 7.58317 13.7458 6.91173C13.5699 6.24029 13.5992 5.59075 13.8558 4.5544C14.127 3.43047 14.215 2.37222 14.0464 2.22626C13.9438 2.14598 13.8631 2.16057 13.5406 2.32114C13.328 2.42331 12.9394 2.64226 12.6755 2.80282C12.1477 3.13124 12.1184 3.13854 11.0774 2.94149C10.6082 2.85391 10.4616 2.86121 9.75054 2.97798C9.30336 3.05096 8.87817 3.08745 8.78287 3.05826C8.68757 3.02907 8.27704 2.79552 7.88118 2.54008C7.13343 2.0584 6.91351 1.98542 6.83287 2.18977ZM10.5863 4.01433C10.7402 4.1165 10.7915 4.1165 11.1141 3.99973C11.5832 3.83917 12.0084 3.94864 12.397 4.33545C12.8368 4.77335 12.7488 5.20394 12.1551 5.50317C12.0011 5.58345 11.7926 5.75861 11.7926 5.7951C11.7926 5.97026 12.2645 5.83889 12.6237 5.50317L12.854 5.35445L12.929 5.36621C13.1196 5.59245 13.152 5.88998 12.9468 6.13082C12.7928 6.30598 12.7195 6.32787 12.4043 6.32057C12.0378 6.31328 12.0304 6.32057 11.9864 6.56142C11.9571 6.70008 11.8765 6.84605 11.8032 6.88984C11.5979 6.99201 11.0921 7.0577 10.8795 7.00661C10.7109 6.96282 10.6962 6.92633 10.6962 6.59791C10.6962 6.29138 10.6669 6.2184 10.5129 6.11622C10.293 5.97026 10.1831 6.03594 10.3443 6.2111C10.5643 6.45924 10.5716 6.65629 10.3737 6.85335C10.1244 7.10149 9.82385 7.09419 9.55994 6.83145C9.44998 6.72198 9.22272 6.58331 9.06144 6.52493C8.75355 6.41545 8.3741 6.11915 8.4694 5.96589C8.55004 5.84182 9.0028 5.96411 9.20073 6.11737C9.30336 6.19765 9.50548 6.25926 9.52747 6.25926C9.54213 6.25926 9.47197 5.94107 9.42798 5.76591C9.35468 5.45208 9.45291 5.18354 9.30629 5.28572C9.11569 5.41708 8.90016 5.67833 8.76088 5.53236C8.45298 5.23314 8.65231 4.54687 9.0775 4.54687C9.2461 4.54687 9.23476 4.59996 9.35205 4.8335C9.43269 4.98676 9.81232 5.21915 9.87829 5.24834C10.0542 5.31403 10.315 5.14556 10.359 5.07258C10.403 4.99959 10.2417 4.91931 10.0511 4.91931C9.86783 4.91931 9.6699 4.69307 9.6699 4.48142C9.6699 4.00703 10.1757 3.74429 10.5863 4.01433Z" fill="#151515"/>
<path d="M11.1465 4.29166C11.1465 4.32815 11.2711 4.59089 11.3444 4.72226C11.4837 4.9485 11.8996 5.12291 12.052 4.99972C12.1619 4.93403 12.0378 4.72226 11.8691 4.72226C11.7812 4.72226 11.6712 4.62575 11.5686 4.50898C11.378 4.29733 11.1465 4.18219 11.1465 4.29166Z" fill="#151515"/>
<path d="M11.0643 5.16745C10.991 5.34991 11.0334 5.92806 11.1141 5.92806C11.1581 5.92806 11.344 5.64068 11.344 5.45822C11.344 5.11521 11.1376 4.9777 11.0643 5.16745Z" fill="#151515"/>
<path d="M9.7944 4.10156C9.42832 4.46384 9.53509 4.81858 10.0537 4.91669C10.4045 4.99217 10.4427 5.09783 10.1529 5.2035C9.87829 5.29407 9.59611 5.14312 9.35205 4.76574C9.13851 4.44875 9.06224 4.42611 8.78768 4.63744C8.56651 4.81103 8.45974 5.24124 8.58176 5.46766C8.68854 5.6639 8.97835 5.6639 9.16139 5.46012L9.30629 5.30162L9.35205 5.62616C9.37493 5.8073 9.42069 6.01863 9.45883 6.08656C9.53509 6.27525 9.32917 6.26015 9.15376 6.07147C8.97835 5.88278 8.42923 5.85259 8.42923 6.04128C8.42923 6.22996 8.85632 6.59979 9.06987 6.59979C9.19952 6.59979 9.32155 6.67527 9.43595 6.82622C9.5656 7.00736 9.65712 7.05264 9.87829 7.05264C10.1681 7.05264 10.507 6.85048 10.507 6.63914C10.507 6.57876 10.5294 6.45095 10.4455 6.34528C10.2929 6.14905 10.2376 6.03835 10.3443 6.03835C10.3748 6.03835 10.3359 6.06392 10.4732 6.14694C10.7172 6.29034 10.7096 6.32518 10.6791 6.65727V7.01491L11.0681 7.03755C11.579 7.06774 11.9465 6.94698 12.0075 6.68282C12.0914 6.34318 12.0824 6.29789 12.3875 6.34318C12.784 6.40356 13.0815 6.16204 13.0815 5.76956C13.0815 5.61107 13.0357 5.44502 12.9671 5.39219C12.8756 5.31671 12.8069 5.33936 12.5781 5.54314C12.2502 5.82994 11.9759 5.90077 11.8691 5.7951C11.7929 5.71963 11.9849 5.6092 12.4349 5.32239C12.8772 5.02804 12.6842 4.44875 12.2113 4.1393C11.8071 3.88268 11.3695 3.87514 10.9958 4.04118C10.706 4.16949 10.7092 4.07892 10.5129 3.99973C10.2384 3.7884 10.0613 3.84495 9.7944 4.10156ZM10.4655 4.11666C10.7172 4.26761 10.7249 4.27515 11.0986 4.1393C11.4189 4.02609 11.518 4.01854 11.7926 4.10156C12.2502 4.23742 12.5629 4.56951 12.5324 4.87896C12.5171 5.08274 12.4408 5.17331 12.151 5.35445C11.7621 5.59597 11.6248 5.8224 11.7926 5.92806C11.968 6.04128 12.2654 5.92806 12.5705 5.63371C12.8069 5.39974 12.8679 5.37709 12.929 5.46766C13.173 5.85259 12.8146 6.34318 12.3493 6.25261C12.0595 6.19977 11.8917 6.32053 11.846 6.60734C11.8155 6.83377 11.5333 6.97717 11.1214 6.97717H10.7935V6.68282C10.7935 6.2828 10.7325 6.16204 10.4808 6.03373C10.0385 5.8073 9.87067 6.00354 10.1834 6.39601C10.3664 6.62244 10.374 6.70546 10.2139 6.85641C10.0308 7.0451 9.67237 7.00736 9.52747 6.78848C9.45883 6.68282 9.27579 6.5696 9.108 6.52432C8.94784 6.47903 8.74192 6.35072 8.65803 6.23751L8.49024 6.03373L8.68854 6.01109C8.80294 5.99599 8.97072 6.04882 9.08512 6.13939C9.19952 6.22996 9.35968 6.29789 9.44357 6.29789C9.5656 6.29789 9.58085 6.2677 9.53509 6.08656C9.50459 5.97335 9.46645 5.72428 9.44357 5.5205C9.42069 5.32426 9.38256 5.16576 9.35205 5.16576C9.32155 5.16576 9.21477 5.24879 9.11563 5.35445C8.89446 5.58842 8.74955 5.59597 8.66566 5.37709C8.57414 5.13557 8.65803 4.87896 8.8792 4.70536L9.0775 4.54687L9.19189 4.71291C9.48171 5.13557 9.69488 5.30162 9.94656 5.30162C10.2593 5.30162 10.5342 5.15822 10.4655 4.99972C10.4427 4.93934 10.2825 4.86386 10.1147 4.83367C9.60373 4.7582 9.53509 4.38082 9.96981 4.07892C10.1834 3.92797 10.1529 3.92797 10.4655 4.11666Z" fill="#EC6B40"/>
<path d="M11.0921 4.29166C11.0408 4.41573 11.2167 4.76605 11.4 4.92661C11.7225 5.21124 12.1624 5.18205 12.1624 4.87552C12.1624 4.73685 12.1184 4.68577 11.9425 4.64928C11.8178 4.62738 11.6566 4.51791 11.5686 4.40114C11.4073 4.17489 11.1581 4.1238 11.0921 4.29166ZM11.4953 4.47412C11.5832 4.59089 11.7445 4.70036 11.8691 4.72226C12.0964 4.77335 12.1697 4.9485 11.9791 5.02149C11.7665 5.10177 11.4293 4.91201 11.2827 4.62008C11.1067 4.28436 11.1067 4.26247 11.2387 4.26247C11.2973 4.26247 11.4146 4.35735 11.4953 4.47412Z" fill="#EC6B40"/>
<path d="M11.0848 5.05068C10.9308 5.14556 10.8868 5.73671 11.0188 5.90457L11.1361 6.05054L11.246 5.90457C11.3267 5.8097 11.356 5.64184 11.3413 5.401C11.3193 5.03608 11.2534 4.9485 11.0848 5.05068ZM11.2827 5.42289C11.2827 5.56886 11.2387 5.75131 11.1874 5.83159C11.0921 5.95566 11.0848 5.94836 11.0408 5.73671C11.0114 5.60535 11.0114 5.45208 11.0261 5.3937C11.0481 5.33531 11.0774 5.23314 11.0994 5.16745C11.1654 4.9704 11.2827 5.13826 11.2827 5.42289Z" fill="#EC6B40"/>
</g>
<defs>
<clipPath id="clip0_4918_59966">
<rect width="10.2632" height="10.9474" fill="white" transform="translate(6.7373 2)"/>
</clipPath>
</defs>
</svg>
