<svg width="20" height="20" viewBox="0 0 20 20" fill="none" xmlns="http://www.w3.org/2000/svg">
<circle cx="10.3367" cy="10" r="10" fill="white"/>
<path d="M10.5498 2C9.0796 2.00532 7.67118 2.57278 6.63158 3.57865C5.59198 4.58452 5.0055 5.94725 5 7.36977C4.99993 7.96286 5.09868 8.55209 5.29246 9.11477C5.36204 9.29893 5.50177 9.45036 5.68302 9.53805C5.86427 9.62574 6.07332 9.64303 6.26733 9.58639C6.45563 9.51716 6.60949 9.38098 6.6975 9.20567C6.78551 9.03036 6.80101 8.82915 6.74084 8.64315C6.576 8.20557 6.50263 7.74068 6.52498 7.27544C6.548 6.52442 6.79625 5.79609 7.23947 5.17914C7.6827 4.5622 8.30178 4.08328 9.0213 3.8007C9.74083 3.51812 10.5298 3.44409 11.292 3.58762C12.0542 3.73114 12.7569 4.08604 13.3144 4.60907C13.8719 5.13211 14.2602 5.80072 14.4319 6.53346C14.6037 7.2662 14.5515 8.03145 14.2818 8.73602C14.012 9.44058 13.5364 10.0541 12.9127 10.5017C12.289 10.9494 11.5443 11.2119 10.7691 11.2573C10.7691 11.2573 9.99273 11.3045 9.60278 11.3516C9.45979 11.3711 9.318 11.3981 9.17802 11.4325C9.16796 11.4398 9.15552 11.4433 9.14298 11.4424C9.13044 11.4416 9.11864 11.4364 9.10975 11.4278C9.10086 11.4192 9.09548 11.4078 9.09459 11.3956C9.0937 11.3835 9.09736 11.3715 9.1049 11.3617L9.22676 10.725L9.95791 7.52136C9.99993 7.33061 9.96191 7.13152 9.85221 6.9679C9.74252 6.80427 9.57014 6.68951 9.37299 6.64886C9.17585 6.6082 8.97008 6.64499 8.80097 6.75113C8.63186 6.85726 8.51325 7.02405 8.47124 7.2148C8.47124 7.2148 6.7304 15.037 6.7304 15.1078C6.70642 15.2021 6.70261 15.3003 6.7192 15.3961C6.73578 15.492 6.77241 15.5835 6.82684 15.6652C6.88127 15.7469 6.95236 15.817 7.03576 15.8711C7.11915 15.9253 7.21309 15.9624 7.31184 15.9803C7.4096 16.0029 7.51111 16.0061 7.61019 15.9896C7.70927 15.9732 7.80385 15.9374 7.88819 15.8845C7.97253 15.8315 8.04487 15.7625 8.10081 15.6817C8.15675 15.6009 8.19512 15.5099 8.21359 15.4143C8.23796 15.32 8.45731 14.2824 8.45731 14.2824C8.53811 13.9005 8.73795 13.5517 9.02992 13.2831C9.32188 13.0144 9.69194 12.8388 10.0902 12.78C10.2573 12.7564 10.9641 12.7092 10.9641 12.7092C12.3765 12.5829 13.6853 11.9378 14.6212 10.9066C15.5571 9.87532 16.0492 8.53631 15.9961 7.16485C15.9431 5.79339 15.3489 4.49372 14.3359 3.53306C13.3229 2.57241 11.968 2.02379 10.5498 2Z" fill="#1E1E1E"/>
<path d="M15.2023 14.0198C15.0731 13.9938 14.94 13.9934 14.8107 14.0187C14.6813 14.0439 14.5583 14.0944 14.4486 14.1671C14.3389 14.2398 14.2448 14.3333 14.1716 14.4423C14.0984 14.5513 14.0476 14.6737 14.022 14.8022C13.9943 14.9308 13.9927 15.0636 14.0175 15.1928C14.0422 15.322 14.0928 15.4449 14.1661 15.5543C14.2395 15.6638 14.3342 15.7574 14.4446 15.8298C14.555 15.9022 14.6788 15.9519 14.8089 15.9759C14.938 16.0051 15.0718 16.0078 15.2021 15.9838C15.3324 15.9599 15.4564 15.9098 15.5665 15.8365C15.6766 15.7633 15.7705 15.6685 15.8426 15.5579C15.9146 15.4473 15.9632 15.3233 15.9853 15.1935C16.0295 14.9355 15.9731 14.6705 15.8276 14.4524C15.6821 14.2343 15.4585 14.0796 15.2023 14.0198V14.0198Z" fill="#E6007A"/>
</svg>
