<svg width="20" height="20" viewBox="0 0 20 20" fill="none" xmlns="http://www.w3.org/2000/svg">
<g clip-path="url(#clip0_978_64)">
<circle cx="9.97949" cy="10" r="10" fill="#7957DE"/>
<path d="M11.1436 19.933L11.061 19.911L5.6416 14.4914L7.4925 7.50644L12.6081 6.28564L19.2542 13.746C17.9108 17.069 14.8334 19.5052 11.1436 19.933Z" fill="#361D67"/>
<path d="M10.3131 15.9185C13.2481 15.9185 14.9884 14.1029 14.9884 11.0927C14.9884 8.09181 13.2481 6.28564 10.3789 6.28564H7.04883V15.9185H10.3131ZM8.79385 14.4087V7.79549H10.2802C12.2368 7.79549 12.7702 8.71295 12.7702 10.9189C12.7702 13.1343 11.8705 13.6907 9.86208 13.6907L8.79385 14.4087Z" fill="#9479E5"/>
<path d="M8.87315 14.4579C11.8082 14.4579 13.5485 12.6423 13.5485 9.63204C13.5485 6.63118 11.8082 4.82501 8.939 4.82501H5.60889V14.4579H8.87315ZM7.3539 12.948V6.33485H8.84023C10.7969 6.33485 11.8176 7.42608 11.8176 9.63204C11.8176 11.8474 10.7969 12.948 8.78849 12.948H7.3539Z" fill="white"/>
</g>
<defs>
<clipPath id="clip0_978_64">
<rect width="20" height="20" fill="white"/>
</clipPath>
</defs>
</svg>
