<svg width="20" height="20" viewBox="0 0 20 20" fill="none" xmlns="http://www.w3.org/2000/svg">
<path fill-rule="evenodd" clip-rule="evenodd" d="M11.8228 1.19849C10.3934 1.3787 8.65992 1.79598 7.05054 2.34721C5.56885 2.85472 3.01879 3.95743 3.11178 4.05055C3.136 4.07464 3.77372 3.96105 4.52914 3.79806C10.1226 2.59127 13.3628 2.7916 15.1684 4.45591C15.8816 5.11339 16.1528 5.56549 16.3905 6.49329C16.7555 7.91787 16.3036 9.29452 15.0649 10.5318C13.1292 12.4653 8.72364 13.4116 7.28665 12.2024C6.59796 11.6228 6.86913 10.5761 7.90004 9.83503C8.9094 9.10961 10.633 8.81351 11.5693 9.20465C11.9722 9.37294 11.9835 9.37065 11.863 9.14575C11.4038 8.28745 9.07503 8.19831 7.51589 8.97927C6.28235 9.597 5.72148 10.3741 5.72232 11.4642C5.72305 12.5716 6.37788 13.2611 7.81994 13.6732C8.77508 13.9462 10.8107 13.864 12.2268 13.4953C15.6058 12.6155 18.6688 10.1545 19.712 7.4812C20.1201 6.43559 20.0924 5.10339 19.6422 4.11584C19.0532 2.82352 17.7515 1.8438 16.0007 1.37472C15.1534 1.14777 12.9592 1.05514 11.8228 1.19849ZM9.20983 6.1431C5.52067 6.65471 1.93077 9.02974 0.508713 11.8995C0.0174676 12.891 -0.000119865 12.9663 5.97749e-07 14.08C0.00012106 15.4389 0.215147 16.0266 1.0432 16.9305C1.74032 17.6913 2.45888 18.1327 3.57376 18.4851C6.46244 19.3977 11.1467 18.6413 15.6118 16.541C16.2692 16.2318 16.7887 15.9605 16.7663 15.9383C16.7439 15.9158 16.2419 16.0026 15.6507 16.1309C12.8862 16.731 11.5751 16.9028 9.6971 16.9109C8.21083 16.9171 7.68357 16.8738 7.11234 16.6979C5.48031 16.1956 4.39194 15.3769 3.82697 14.2266C3.53979 13.6416 3.49401 13.4042 3.49847 12.523C3.50437 11.3456 3.71976 10.748 4.45313 9.87286C5.47803 8.65004 7.05608 7.7838 8.96071 7.39856C10.2638 7.13499 11.773 7.19667 12.3564 7.53733C13.9563 8.47176 12.6181 10.4413 10.0876 10.8765C9.35848 11.0021 8.90277 10.948 8.20505 10.6532C7.7785 10.4731 8.0652 10.8831 8.56138 11.1629C9.84431 11.8863 12.379 11.4013 13.5156 10.2148C14.498 9.18947 14.522 7.75633 13.5702 6.95538C12.7209 6.2408 10.922 5.90567 9.20983 6.1431Z" fill="#57B8E5"/>
</svg>
