<svg width="20" height="20" viewBox="0 0 20 20" fill="none" xmlns="http://www.w3.org/2000/svg">
<circle cx="10" cy="10" r="10" fill="url(#paint0_linear_4144_54843)"/>
<path fill-rule="evenodd" clip-rule="evenodd" d="M10 19.52C15.2577 19.52 19.52 15.2577 19.52 10C19.52 4.74225 15.2577 0.48 10 0.48C4.74225 0.48 0.48 4.74225 0.48 10C0.48 15.2577 4.74225 19.52 10 19.52ZM10 20C15.5228 20 20 15.5228 20 10C20 4.47715 15.5228 0 10 0C4.47715 0 0 4.47715 0 10C0 15.5228 4.47715 20 10 20Z" fill="url(#paint1_linear_4144_54843)"/>
<g filter="url(#filter0_d_4144_54843)">
<path d="M8.97512 12.5699C8.11844 11.9776 7.96625 11.8822 6.69793 12.226C6.42745 12.2992 6.76555 11.8652 7.3631 11.6229C7.90982 11.409 8.42281 11.4763 8.75532 12.023C8.87937 12.226 9.0485 12.5811 8.97512 12.5699Z" fill="url(#paint2_linear_4144_54843)"/>
<path d="M2.17219 11.4481C2.18864 11.9554 2.40894 11.6568 2.44843 11.5102C2.52642 11.2007 2.6785 10.9148 2.89158 10.6771C3.10465 10.4395 3.37232 10.2573 3.67151 10.1461C4.09418 9.96002 4.33669 10.0729 4.31974 9.76769C4.29161 9.11386 4.42125 8.95608 4.06604 9.09132C3.86769 9.16679 3.67706 9.26117 3.49679 9.37315C2.77534 9.81935 2.1383 10.5464 2.17219 11.4481Z" fill="url(#paint3_linear_4144_54843)"/>
<path d="M12.706 7.62146C12.1537 7.63791 10.2766 7.6101 8.83965 7.68348C8.30988 7.71162 7.81959 7.98785 7.66165 8.23579C7.60522 8.32595 8.67052 8.23579 9.67396 8.28647C9.74322 8.28373 9.81157 8.30294 9.86927 8.34135C9.92697 8.37975 9.97107 8.4354 9.99527 8.50035C10.0178 8.55564 10.0274 8.61531 10.0235 8.67487C10.0196 8.73442 10.0022 8.79232 9.97273 8.84421C9.50482 9.70089 9.12165 10.2025 7.93789 10.4566C7.32355 10.5298 6.04963 10.5748 5.93693 9.80832C5.92558 9.63919 5.94252 5.17513 5.93693 4.69044C5.8805 3.97459 6.7204 4.16626 7.44744 4.12677C8.64847 4.16067 9.80344 5.27664 10.0571 6.12773C10.1529 6.50614 9.9163 6.74207 9.65125 6.88866C9.38637 6.96763 9.0764 6.99577 9.11572 7.03525C9.24537 7.17609 11.3929 7.07474 11.6297 7.11982C11.7142 5.51899 10.6261 3.89019 8.52952 3.55752C6.68684 3.2645 6.12268 3.62514 4.07664 3.51803C3.7216 3.53448 3.49603 3.63633 3.86276 3.83935C4.05443 3.94086 4.31932 4.3298 4.43761 4.63417C4.90552 5.86284 4.75334 7.01271 3.69922 7.1649C1.77148 7.44114 1.16849 7.1593 1.19103 7.3903C1.20239 7.4974 1.48981 7.4974 1.93502 7.49181C2.60019 7.49181 3.47942 7.63264 3.84581 7.85261C4.71336 8.18463 5.13684 10.0675 4.09984 10.2813C2.00873 10.7091 2.3075 13.3927 3.95325 13.9733C4.55064 14.1255 5.12566 14.1761 5.78507 13.8943C6.52906 13.5786 6.85037 13.2969 7.35761 13.1841C7.79722 13.0883 8.43409 13.2405 8.57509 13.4603C8.57509 13.511 8.41731 13.511 8.28767 13.4767C8.02278 13.4993 8.28767 13.7416 8.47934 13.8092C8.95844 13.984 9.31348 14.7336 9.0486 15.0888C8.95284 15.2523 8.83998 15.2916 8.88506 15.3818C9.16689 15.6016 9.51634 15.1394 9.56701 14.9817C9.85444 14.0516 9.40924 12.6819 8.38342 12.2704C7.60555 11.9605 6.92918 12.1183 5.71811 12.7665C5.26155 13.0088 3.90833 13.24 3.72275 12.5016C3.61005 12.062 3.7114 11.7913 3.97645 11.4588C4.03847 11.3799 4.17931 11.2334 4.31471 11.2779C3.91459 11.5541 3.38465 12.6025 4.29826 12.8562C4.43909 12.8956 3.77408 12.4284 4.56874 11.7797C4.90155 11.4925 5.29159 11.2794 5.71301 11.1545C5.91044 11.115 6.44581 11.194 7.33062 11.2109C9.38719 11.4363 11.0621 9.65515 11.4002 8.58426C11.4277 8.53823 11.4644 8.49839 11.5081 8.46725C11.5517 8.4361 11.6014 8.41432 11.6539 8.40328C11.9284 8.34335 12.1484 8.30878 12.3246 8.29933L12.706 7.62146Z" fill="url(#paint4_linear_4144_54843)"/>
</g>
<g filter="url(#filter1_d_4144_54843)">
<path d="M17.4991 15.2844C17.3828 15.0767 17.1841 15.1766 17.001 15.218C16.6056 15.2907 16.1985 15.2679 15.8137 15.1516C15.0914 14.9442 14.0707 13.9642 14.0208 13.9157C13.9708 13.8673 13.9461 13.8244 14.0622 13.7829C15.6061 13.3014 16.0378 11.8487 16.0875 10.8689C16.1372 9.88919 15.5811 8.51107 14.2613 8.01309C13.0576 7.55654 11.9038 7.67383 10.8082 8.72699C9.77893 9.7232 10.003 11.3669 10.0612 11.7241C10.2099 12.2759 10.5124 12.774 10.9335 13.1604C11.3318 13.5588 12.245 13.8992 12.245 13.8992C12.5099 14.0476 12.7626 14.217 13.0005 14.4057C13.3324 14.6548 14.312 15.5098 15.1917 15.8502C15.9719 16.149 16.9433 15.9581 17.3239 15.651C17.4327 15.5594 17.5737 15.4184 17.4991 15.2844ZM11.6969 12.6454C11.1573 12.0561 10.8586 10.6031 11.174 9.6568C11.5133 8.64387 12.2532 8.37828 12.8507 8.38652C13.5398 8.40324 14.0791 8.61891 14.461 9.13361C14.8428 9.64832 15.1416 10.9932 14.9923 11.7735C14.8346 12.5623 14.4108 13.077 13.7472 13.276C13.3801 13.3573 12.9982 13.3419 12.6388 13.2314C12.2795 13.1209 11.9549 12.919 11.6969 12.6454V12.6454Z" fill="white"/>
<path d="M17.4991 15.2844C17.3828 15.0767 17.1841 15.1766 17.001 15.218C16.6056 15.2907 16.1985 15.2679 15.8137 15.1516C15.0914 14.9442 14.0707 13.9642 14.0208 13.9157C13.9708 13.8673 13.9461 13.8244 14.0622 13.7829C15.6061 13.3014 16.0378 11.8487 16.0875 10.8689C16.1372 9.88919 15.5811 8.51107 14.2613 8.01309C13.0576 7.55654 11.9038 7.67383 10.8082 8.72699C9.77893 9.7232 10.003 11.3669 10.0612 11.7241C10.2099 12.2759 10.5124 12.774 10.9335 13.1604C11.3318 13.5588 12.245 13.8992 12.245 13.8992C12.5099 14.0476 12.7626 14.217 13.0005 14.4057C13.3324 14.6548 14.312 15.5098 15.1917 15.8502C15.9719 16.149 16.9433 15.9581 17.3239 15.651C17.4327 15.5594 17.5737 15.4184 17.4991 15.2844ZM11.6969 12.6454C11.1573 12.0561 10.8586 10.6031 11.174 9.6568C11.5133 8.64387 12.2532 8.37828 12.8507 8.38652C13.5398 8.40324 14.0791 8.61891 14.461 9.13361C14.8428 9.64832 15.1416 10.9932 14.9923 11.7735C14.8346 12.5623 14.4108 13.077 13.7472 13.276C13.3801 13.3573 12.9982 13.3419 12.6388 13.2314C12.2795 13.1209 11.9549 12.919 11.6969 12.6454V12.6454Z" fill="url(#paint5_linear_4144_54843)"/>
</g>
<defs>
<filter id="filter0_d_4144_54843" x="0.19043" y="2.44" width="13.5156" height="14" filterUnits="userSpaceOnUse" color-interpolation-filters="sRGB">
<feFlood flood-opacity="0" result="BackgroundImageFix"/>
<feColorMatrix in="SourceAlpha" type="matrix" values="0 0 0 0 0 0 0 0 0 0 0 0 0 0 0 0 0 0 127 0" result="hardAlpha"/>
<feOffset/>
<feGaussianBlur stdDeviation="0.5"/>
<feComposite in2="hardAlpha" operator="out"/>
<feColorMatrix type="matrix" values="0 0 0 0 0 0 0 0 0 0 0 0 0 0 0 0 0 0 1 0"/>
<feBlend mode="normal" in2="BackgroundImageFix" result="effect1_dropShadow_4144_54843"/>
<feBlend mode="normal" in="SourceGraphic" in2="effect1_dropShadow_4144_54843" result="shape"/>
</filter>
<filter id="filter1_d_4144_54843" x="9" y="6.76" width="9.51953" height="10.24" filterUnits="userSpaceOnUse" color-interpolation-filters="sRGB">
<feFlood flood-opacity="0" result="BackgroundImageFix"/>
<feColorMatrix in="SourceAlpha" type="matrix" values="0 0 0 0 0 0 0 0 0 0 0 0 0 0 0 0 0 0 127 0" result="hardAlpha"/>
<feOffset/>
<feGaussianBlur stdDeviation="0.5"/>
<feComposite in2="hardAlpha" operator="out"/>
<feColorMatrix type="matrix" values="0 0 0 0 0 0 0 0 0 0 0 0 0 0 0 0 0 0 1 0"/>
<feBlend mode="normal" in2="BackgroundImageFix" result="effect1_dropShadow_4144_54843"/>
<feBlend mode="normal" in="SourceGraphic" in2="effect1_dropShadow_4144_54843" result="shape"/>
</filter>
<linearGradient id="paint0_linear_4144_54843" x1="10" y1="0" x2="10" y2="20" gradientUnits="userSpaceOnUse">
<stop stop-color="#6D96C5"/>
<stop offset="0.557292" stop-color="#93A2F0"/>
<stop offset="1" stop-color="#64C8FF"/>
</linearGradient>
<linearGradient id="paint1_linear_4144_54843" x1="4" y1="2" x2="14.85" y2="18.65" gradientUnits="userSpaceOnUse">
<stop stop-color="#4E4E4B"/>
<stop offset="0.603818" stop-color="#FEFEFE"/>
<stop offset="1" stop-color="#535450"/>
</linearGradient>
<linearGradient id="paint2_linear_4144_54843" x1="7.25291" y1="11.5242" x2="7.35571" y2="12.612" gradientUnits="userSpaceOnUse">
<stop stop-color="#D2D9DD"/>
<stop offset="0.408767" stop-color="#101011"/>
<stop offset="0.870346" stop-color="#0452F6"/>
</linearGradient>
<linearGradient id="paint3_linear_4144_54843" x1="2.75519" y1="9.08255" x2="3.44581" y2="11.6786" gradientUnits="userSpaceOnUse">
<stop stop-color="#D2D9DD"/>
<stop offset="0.408767" stop-color="#101011"/>
<stop offset="0.870346" stop-color="#0452F6"/>
</linearGradient>
<linearGradient id="paint4_linear_4144_54843" x1="4.32012" y1="3.6" x2="6.94821" y2="15.44" gradientUnits="userSpaceOnUse">
<stop stop-color="#D2D9DD"/>
<stop offset="0.408767" stop-color="#101011"/>
<stop offset="0.870346" stop-color="#0452F6"/>
</linearGradient>
<linearGradient id="paint5_linear_4144_54843" x1="12.0438" y1="7.86987" x2="13.932" y2="15.9599" gradientUnits="userSpaceOnUse">
<stop stop-color="#D2D9DD"/>
<stop offset="0.408767" stop-color="#101011"/>
<stop offset="0.870346" stop-color="#3610BA"/>
</linearGradient>
</defs>
</svg>
