<svg width="20" height="20" viewBox="0 0 20 20" fill="none" xmlns="http://www.w3.org/2000/svg">
<circle cx="10" cy="10" r="10" fill="white"/>
<path fill-rule="evenodd" clip-rule="evenodd" d="M10.0467 4.06997C10.0467 4.10845 10.0362 4.13994 10.0233 4.13994C10.0105 4.13994 10 4.19241 10 4.25655C10 4.32069 9.9895 4.37317 9.97667 4.37317C9.96383 4.37317 9.95333 4.41515 9.95333 4.46646C9.95333 4.51777 9.94283 4.55975 9.93 4.55975C9.91717 4.55975 9.90667 4.60173 9.90667 4.65304C9.90667 4.70435 9.89617 4.74633 9.88333 4.74633C9.8705 4.74633 9.86 4.78832 9.86 4.83963C9.86 4.89094 9.8495 4.93292 9.83667 4.93292C9.82383 4.93292 9.81333 4.98539 9.81333 5.04953C9.81333 5.11367 9.80283 5.16615 9.79 5.16615C9.77717 5.16615 9.76667 5.20813 9.76667 5.25944C9.76667 5.31075 9.75617 5.35273 9.74333 5.35273C9.7305 5.35273 9.72 5.39471 9.72 5.44602C9.72 5.49733 9.7095 5.53932 9.69667 5.53932C9.68383 5.53932 9.67333 5.59179 9.67333 5.65593C9.67333 5.72007 9.66283 5.77254 9.65 5.77254C9.63717 5.77254 9.62667 5.80403 9.62667 5.84251V5.91248H8.55333H7.48V5.98245C7.48 6.02093 7.4695 6.05242 7.45667 6.05242C7.44383 6.05242 7.43333 6.1049 7.43333 6.16903C7.43333 6.23317 7.42283 6.28565 7.41 6.28565C7.39717 6.28565 7.38667 6.32763 7.38667 6.37894C7.38667 6.43025 7.37617 6.47223 7.36333 6.47223C7.3505 6.47223 7.34 6.51421 7.34 6.56553C7.34 6.61684 7.3295 6.65882 7.31667 6.65882C7.30383 6.65882 7.29333 6.7008 7.29333 6.75211C7.29333 6.80342 7.28283 6.8454 7.27 6.8454C7.25717 6.8454 7.24667 6.89788 7.24667 6.96202C7.24667 7.02615 7.23617 7.07863 7.22333 7.07863C7.2105 7.07863 7.2 7.12061 7.2 7.17192C7.2 7.22323 7.1895 7.26521 7.17667 7.26521C7.16383 7.26521 7.15333 7.30719 7.15333 7.35851C7.15333 7.40982 7.14283 7.4518 7.13 7.4518C7.11717 7.4518 7.10667 7.49378 7.10667 7.54509C7.10667 7.5964 7.09617 7.63838 7.08333 7.63838C7.0705 7.63838 7.06 7.67586 7.06 7.72167C7.06 7.87746 7.10328 7.87161 5.95332 7.87161C4.9289 7.87161 4.91333 7.87231 4.91333 7.91826C4.91333 7.94391 4.90283 7.9649 4.89 7.9649C4.87717 7.9649 4.86667 8.00688 4.86667 8.05819C4.86667 8.1095 4.85617 8.15149 4.84333 8.15149C4.8305 8.15149 4.82 8.20396 4.82 8.2681C4.82 8.33224 4.8095 8.38472 4.79667 8.38472C4.78383 8.38472 4.77333 8.4267 4.77333 8.47801C4.77333 8.52932 4.76283 8.5713 4.75 8.5713C4.73717 8.5713 4.72667 8.61328 4.72667 8.66459C4.72667 8.7159 4.71617 8.75788 4.70333 8.75788C4.6905 8.75788 4.68 8.81036 4.68 8.8745C4.68 8.93864 4.6695 8.99111 4.65667 8.99111C4.64383 8.99111 4.63333 9.03309 4.63333 9.0844C4.63333 9.13571 4.62283 9.1777 4.61 9.1777C4.59717 9.1777 4.58667 9.21968 4.58667 9.27099C4.58667 9.3223 4.57617 9.36428 4.56333 9.36428C4.5505 9.36428 4.54 9.40626 4.54 9.45757C4.54 9.50888 4.5295 9.55086 4.51667 9.55086C4.50383 9.55086 4.49333 9.60334 4.49333 9.66748C4.49333 9.73162 4.48283 9.78409 4.47 9.78409C4.45717 9.78409 4.44667 9.82607 4.44667 9.87738C4.44667 9.9287 4.43617 9.97068 4.42333 9.97068C4.4105 9.97068 4.4 10.0127 4.4 10.064C4.4 10.1153 4.3895 10.1573 4.37667 10.1573C4.36383 10.1573 4.35333 10.1992 4.35333 10.2506C4.35333 10.3019 4.34283 10.3438 4.33 10.3438C4.31717 10.3438 4.30667 10.3963 4.30667 10.4605C4.30667 10.5246 4.29617 10.5771 4.28333 10.5771C4.2705 10.5771 4.26 10.6191 4.26 10.6704C4.26 10.7217 4.2495 10.7637 4.23667 10.7637C4.22383 10.7637 4.21333 10.8056 4.21333 10.8569C4.21333 10.9083 4.20283 10.9502 4.19 10.9502C4.17717 10.9502 4.16667 10.9922 4.16667 11.0435C4.16667 11.0948 4.15617 11.1368 4.14333 11.1368C4.1305 11.1368 4.12 11.1893 4.12 11.2534C4.12 11.3176 4.1095 11.3701 4.09667 11.3701C4.08383 11.3701 4.07333 11.412 4.07333 11.4633C4.07333 11.5147 4.06283 11.5566 4.05 11.5566C4.03717 11.5566 4.02667 11.5986 4.02667 11.6499C4.02667 11.7012 4.01617 11.7432 4.00333 11.7432C3.9905 11.7432 3.98 11.7957 3.98 11.8598C3.98 11.924 3.9695 11.9765 3.95667 11.9765C3.94383 11.9765 3.93333 12.0184 3.93333 12.0697C3.93333 12.1211 3.92283 12.163 3.91 12.163C3.89717 12.163 3.88667 12.205 3.88667 12.2563C3.88667 12.3076 3.87617 12.3496 3.86333 12.3496C3.8505 12.3496 3.84 12.3916 3.84 12.4429C3.84 12.4942 3.8295 12.5362 3.81667 12.5362C3.80383 12.5362 3.79333 12.5887 3.79333 12.6528C3.79333 12.717 3.78283 12.7694 3.77 12.7694C3.75717 12.7694 3.74667 12.8114 3.74667 12.8627C3.74667 12.914 3.73617 12.956 3.72333 12.956C3.7105 12.956 3.7 12.998 3.7 13.0493C3.7 13.1006 3.6895 13.1426 3.67667 13.1426C3.66383 13.1426 3.65333 13.1846 3.65333 13.2359C3.65333 13.2872 3.64283 13.3292 3.63 13.3292C3.61717 13.3292 3.60667 13.3817 3.60667 13.4458C3.60667 13.5099 3.59617 13.5624 3.58333 13.5624C3.5705 13.5624 3.56 13.6044 3.56 13.6557C3.56 13.707 3.5495 13.749 3.53667 13.749C3.52383 13.749 3.51333 13.791 3.51333 13.8423C3.51333 13.8936 3.50283 13.9356 3.49 13.9356C3.47717 13.9356 3.46667 13.9881 3.46667 14.0522C3.46667 14.1163 3.45617 14.1688 3.44333 14.1688C3.4305 14.1688 3.42 14.2108 3.42 14.2621C3.42 14.3134 3.4095 14.3554 3.39667 14.3554C3.38383 14.3554 3.37333 14.3974 3.37333 14.4487C3.37333 14.5 3.36283 14.542 3.35 14.542C3.33717 14.542 3.32667 14.584 3.32667 14.6353C3.32667 14.6866 3.31617 14.7286 3.30333 14.7286C3.2905 14.7286 3.28 14.781 3.28 14.8452C3.28 14.9093 3.2695 14.9618 3.25667 14.9618C3.24383 14.9618 3.23333 15.0038 3.23333 15.0551C3.23333 15.1064 3.22283 15.1484 3.21 15.1484C3.19717 15.1484 3.18667 15.1904 3.18667 15.2417C3.18667 15.293 3.17617 15.335 3.16333 15.335C3.1505 15.335 3.14 15.3769 3.14 15.4282C3.14 15.4796 3.1295 15.5215 3.11667 15.5215C3.10383 15.5215 3.09333 15.574 3.09333 15.6382C3.09333 15.7023 3.08283 15.7548 3.07 15.7548C3.05717 15.7548 3.04667 15.7968 3.04667 15.8481C3.04667 15.8994 3.03617 15.9414 3.02333 15.9414C3.0105 15.9414 3 15.9518 3 15.9647C3 15.9801 4.11223 15.988 6.29 15.988C8.46777 15.988 9.58 15.9801 9.58 15.9647C9.58 15.9508 9.66556 15.9414 9.79 15.9414C9.91444 15.9414 10 15.9319 10 15.918C10 15.9051 10.0622 15.8947 10.14 15.8947C10.2178 15.8947 10.28 15.8844 10.28 15.8714C10.28 15.8586 10.322 15.8481 10.3733 15.8481C10.4247 15.8481 10.4667 15.8376 10.4667 15.8247C10.4667 15.8119 10.5087 15.8014 10.56 15.8014C10.6113 15.8014 10.6533 15.7909 10.6533 15.7781C10.6533 15.7653 10.6953 15.7548 10.7467 15.7548C10.798 15.7548 10.84 15.7443 10.84 15.7314C10.84 15.7186 10.882 15.7081 10.9333 15.7081C10.9847 15.7081 11.0267 15.6976 11.0267 15.6848C11.0267 15.672 11.0582 15.6615 11.0967 15.6615C11.1352 15.6615 11.1667 15.651 11.1667 15.6382C11.1667 15.6253 11.1982 15.6148 11.2367 15.6148C11.2752 15.6148 11.3067 15.6043 11.3067 15.5915C11.3067 15.5787 11.3382 15.5682 11.3767 15.5682C11.4152 15.5682 11.4467 15.5577 11.4467 15.5449C11.4467 15.532 11.4782 15.5215 11.5167 15.5215C11.5552 15.5215 11.5867 15.511 11.5867 15.4982C11.5867 15.4854 11.6182 15.4749 11.6567 15.4749C11.6952 15.4749 11.7267 15.4644 11.7267 15.4516C11.7267 15.4387 11.7477 15.4282 11.7733 15.4282C11.799 15.4282 11.82 15.4178 11.82 15.4049C11.82 15.3921 11.8515 15.3816 11.89 15.3816C11.9285 15.3816 11.96 15.3711 11.96 15.3583C11.96 15.3455 11.981 15.335 12.0067 15.335C12.0323 15.335 12.0533 15.3245 12.0533 15.3116C12.0533 15.2988 12.0743 15.2883 12.1 15.2883C12.1257 15.2883 12.1467 15.2778 12.1467 15.265C12.1467 15.2522 12.1677 15.2417 12.1933 15.2417C12.219 15.2417 12.24 15.2312 12.24 15.2183C12.24 15.2055 12.2715 15.195 12.31 15.195C12.3485 15.195 12.38 15.1845 12.38 15.1717C12.38 15.1589 12.401 15.1484 12.4267 15.1484C12.4523 15.1484 12.4733 15.1379 12.4733 15.125C12.4733 15.1122 12.4943 15.1017 12.52 15.1017C12.5457 15.1017 12.5667 15.0912 12.5667 15.0784C12.5667 15.0656 12.5877 15.0551 12.6133 15.0551C12.639 15.0551 12.66 15.0446 12.66 15.0318C12.66 15.0189 12.6787 15.0084 12.7015 15.0084C12.7244 15.0084 12.7582 14.9874 12.7767 14.9618C12.7952 14.9361 12.829 14.9151 12.8518 14.9151C12.8746 14.9151 12.8933 14.9046 12.8933 14.8918C12.8933 14.879 12.9143 14.8685 12.94 14.8685C12.9657 14.8685 12.9867 14.858 12.9867 14.8452C12.9867 14.8323 13.0054 14.8219 13.0282 14.8219C13.051 14.8219 13.0848 14.8009 13.1033 14.7752C13.1218 14.7495 13.1556 14.7286 13.1785 14.7286C13.2013 14.7286 13.22 14.7181 13.22 14.7052C13.22 14.6924 13.2387 14.6819 13.2615 14.6819C13.2844 14.6819 13.3182 14.6609 13.3367 14.6353C13.3552 14.6096 13.3867 14.5886 13.4067 14.5886C13.4267 14.5886 13.4582 14.5676 13.4767 14.542C13.4952 14.5163 13.5267 14.4953 13.5467 14.4953C13.5667 14.4953 13.5982 14.4743 13.6167 14.4487C13.6352 14.423 13.6648 14.402 13.6825 14.402C13.7001 14.402 13.744 14.3706 13.78 14.3321C13.816 14.2936 13.8599 14.2621 13.8775 14.2621C13.8952 14.2621 13.9248 14.2411 13.9433 14.2155C13.9618 14.1898 13.9912 14.1688 14.0086 14.1688C14.0261 14.1688 14.0807 14.1268 14.13 14.0755C14.1793 14.0242 14.2315 13.9822 14.246 13.9822C14.2604 13.9822 14.3447 13.9088 14.4333 13.819C14.5219 13.7292 14.6055 13.6557 14.6191 13.6557C14.6327 13.6557 14.754 13.5456 14.8886 13.4111C15.0232 13.2765 15.1333 13.1553 15.1333 13.1417C15.1333 13.1281 15.2068 13.0446 15.2967 12.956C15.3865 12.8675 15.46 12.783 15.46 12.7682C15.46 12.7535 15.4915 12.7121 15.53 12.6761C15.5685 12.6402 15.6 12.5982 15.6 12.5828C15.6 12.5675 15.6315 12.5255 15.67 12.4896C15.7085 12.4536 15.74 12.4116 15.74 12.3963C15.74 12.3809 15.7715 12.3389 15.81 12.303C15.8485 12.267 15.88 12.2231 15.88 12.2055C15.88 12.1878 15.901 12.1582 15.9267 12.1397C15.9523 12.1212 15.9733 12.0874 15.9733 12.0646C15.9733 12.0418 15.9838 12.0231 15.9967 12.0231C16.0095 12.0231 16.02 12.0044 16.02 11.9816C16.02 11.9588 16.041 11.925 16.0667 11.9065C16.0923 11.888 16.1133 11.8542 16.1133 11.8314C16.1133 11.8085 16.1238 11.7899 16.1367 11.7899C16.1495 11.7899 16.16 11.7689 16.16 11.7432C16.16 11.7176 16.1705 11.6966 16.1833 11.6966C16.1962 11.6966 16.2067 11.6779 16.2067 11.6551C16.2067 11.6323 16.2277 11.5985 16.2533 11.58C16.279 11.5615 16.3 11.5277 16.3 11.5048C16.3 11.482 16.3105 11.4633 16.3233 11.4633C16.3362 11.4633 16.3467 11.4424 16.3467 11.4167C16.3467 11.391 16.3572 11.3701 16.37 11.3701C16.3828 11.3701 16.3933 11.3491 16.3933 11.3234C16.3933 11.2978 16.4038 11.2768 16.4167 11.2768C16.4295 11.2768 16.44 11.2453 16.44 11.2068C16.44 11.1683 16.4505 11.1368 16.4633 11.1368C16.4762 11.1368 16.4867 11.1158 16.4867 11.0902C16.4867 11.0645 16.4972 11.0435 16.51 11.0435C16.5228 11.0435 16.5333 11.0225 16.5333 10.9969C16.5333 10.9712 16.5438 10.9502 16.5567 10.9502C16.5695 10.9502 16.58 10.9188 16.58 10.8803C16.58 10.8418 16.5905 10.8103 16.6033 10.8103C16.6162 10.8103 16.6267 10.7788 16.6267 10.7403C16.6267 10.7019 16.6372 10.6704 16.65 10.6704C16.6628 10.6704 16.6733 10.6494 16.6733 10.6237C16.6733 10.5981 16.6838 10.5771 16.6967 10.5771C16.7095 10.5771 16.72 10.5351 16.72 10.4838C16.72 10.4325 16.7305 10.3905 16.7433 10.3905C16.7562 10.3905 16.7667 10.359 16.7667 10.3205C16.7667 10.282 16.7772 10.2506 16.79 10.2506C16.8028 10.2506 16.8133 10.2086 16.8133 10.1573C16.8133 10.1059 16.8238 10.064 16.8367 10.064C16.8495 10.064 16.86 10.022 16.86 9.97068C16.86 9.91937 16.8705 9.87738 16.8833 9.87738C16.8963 9.87738 16.9067 9.81518 16.9067 9.73745C16.9067 9.65971 16.917 9.59751 16.93 9.59751C16.9436 9.59751 16.9533 9.51977 16.9533 9.41093C16.9533 9.30208 16.9631 9.22434 16.9767 9.22434C16.9914 9.22434 17 9.06108 17 8.78121C17 8.50133 16.9914 8.33807 16.9767 8.33807C16.9631 8.33807 16.9533 8.26033 16.9533 8.15149C16.9533 8.04264 16.9436 7.9649 16.93 7.9649C16.9172 7.9649 16.9067 7.91243 16.9067 7.84829C16.9067 7.78415 16.8962 7.73167 16.8833 7.73167C16.8705 7.73167 16.86 7.68969 16.86 7.63838C16.86 7.58707 16.8495 7.54509 16.8367 7.54509C16.8238 7.54509 16.8133 7.5136 16.8133 7.47512C16.8133 7.43664 16.8028 7.40515 16.79 7.40515C16.7772 7.40515 16.7667 7.37367 16.7667 7.33518C16.7667 7.2967 16.7562 7.26521 16.7433 7.26521C16.7305 7.26521 16.72 7.23373 16.72 7.19524C16.72 7.15676 16.7095 7.12528 16.6967 7.12528C16.6838 7.12528 16.6733 7.10429 16.6733 7.07863C16.6733 7.05297 16.6628 7.03198 16.65 7.03198C16.6372 7.03198 16.6267 7.0005 16.6267 6.96202C16.6267 6.92353 16.6162 6.89205 16.6033 6.89205C16.5905 6.89205 16.58 6.87106 16.58 6.8454C16.58 6.81975 16.5695 6.79875 16.5567 6.79875C16.5438 6.79875 16.5333 6.77776 16.5333 6.75211C16.5333 6.72645 16.5228 6.70546 16.51 6.70546C16.4972 6.70546 16.4867 6.68447 16.4867 6.65882C16.4867 6.63316 16.4762 6.61217 16.4633 6.61217C16.4505 6.61217 16.44 6.59349 16.44 6.57068C16.44 6.54785 16.419 6.51405 16.3933 6.49556C16.3677 6.47706 16.3467 6.44327 16.3467 6.42043C16.3467 6.39762 16.3362 6.37894 16.3233 6.37894C16.3105 6.37894 16.3 6.36026 16.3 6.33745C16.3 6.31462 16.279 6.28082 16.2533 6.26233C16.2277 6.24383 16.2067 6.21423 16.2067 6.19656C16.2067 6.1789 16.1752 6.13501 16.1367 6.09907C16.0982 6.06313 16.0667 6.02159 16.0667 6.00678C16.0667 5.99199 16.0037 5.91806 15.9267 5.84251C15.8497 5.76697 15.7867 5.69374 15.7867 5.67977C15.7867 5.64683 15.6326 5.49267 15.5996 5.49267C15.5858 5.49267 15.5019 5.4192 15.4133 5.32941C15.3247 5.23962 15.2383 5.16615 15.2213 5.16615C15.2042 5.16615 15.1752 5.14516 15.1567 5.1195C15.1382 5.09385 15.1086 5.07286 15.0909 5.07286C15.0732 5.07286 15.0293 5.04137 14.9933 5.00289C14.9574 4.9644 14.9112 4.93292 14.8906 4.93292C14.8701 4.93292 14.8533 4.92242 14.8533 4.9096C14.8533 4.89677 14.8346 4.88627 14.8118 4.88627C14.789 4.88627 14.7552 4.86528 14.7367 4.83963C14.7182 4.81397 14.6844 4.79298 14.6615 4.79298C14.6387 4.79298 14.62 4.78249 14.62 4.76966C14.62 4.75683 14.599 4.74633 14.5733 4.74633C14.5477 4.74633 14.5267 4.73584 14.5267 4.72301C14.5267 4.71018 14.5057 4.69969 14.48 4.69969C14.4543 4.69969 14.4333 4.68919 14.4333 4.67637C14.4333 4.66354 14.4123 4.65304 14.3867 4.65304C14.361 4.65304 14.34 4.64255 14.34 4.62972C14.34 4.61689 14.319 4.6064 14.2933 4.6064C14.2677 4.6064 14.2467 4.5959 14.2467 4.58307C14.2467 4.57025 14.2257 4.55975 14.2 4.55975C14.1743 4.55975 14.1533 4.54926 14.1533 4.53643C14.1533 4.5236 14.1323 4.51311 14.1067 4.51311C14.081 4.51311 14.06 4.50261 14.06 4.48978C14.06 4.47695 14.0285 4.46646 13.99 4.46646C13.9515 4.46646 13.92 4.45596 13.92 4.44314C13.92 4.43031 13.899 4.41981 13.8733 4.41981C13.8477 4.41981 13.8267 4.40932 13.8267 4.39649C13.8267 4.38366 13.7952 4.37317 13.7567 4.37317C13.7182 4.37317 13.6867 4.36267 13.6867 4.34984C13.6867 4.33702 13.6552 4.32652 13.6167 4.32652C13.5782 4.32652 13.5467 4.31603 13.5467 4.3032C13.5467 4.29037 13.5047 4.27988 13.4533 4.27988C13.402 4.27988 13.36 4.26938 13.36 4.25655C13.36 4.24372 13.3285 4.23323 13.29 4.23323C13.2515 4.23323 13.22 4.22273 13.22 4.20991C13.22 4.19708 13.1675 4.18658 13.1033 4.18658C13.0392 4.18658 12.9867 4.17609 12.9867 4.16326C12.9867 4.15043 12.9342 4.13994 12.87 4.13994C12.8058 4.13994 12.7533 4.12944 12.7533 4.11661C12.7533 4.10365 12.6911 4.09329 12.6133 4.09329C12.5356 4.09329 12.4733 4.08294 12.4733 4.06997C12.4733 4.05584 12.3722 4.04665 12.2167 4.04665C12.0611 4.04665 11.96 4.03746 11.96 4.02332C11.96 4.00816 11.6256 4 11.0033 4H10.0467V4.06997ZM11.96 4.8163C11.96 4.82962 12.03 4.83963 12.1233 4.83963C12.2167 4.83963 12.2867 4.84963 12.2867 4.86295C12.2867 4.87592 12.3489 4.88627 12.4267 4.88627C12.5044 4.88627 12.5667 4.89663 12.5667 4.9096C12.5667 4.92242 12.6087 4.93292 12.66 4.93292C12.7113 4.93292 12.7533 4.94341 12.7533 4.95624C12.7533 4.96907 12.7953 4.97956 12.8467 4.97956C12.898 4.97956 12.94 4.99006 12.94 5.00289C12.94 5.01571 12.982 5.02621 13.0333 5.02621C13.0847 5.02621 13.1267 5.03671 13.1267 5.04953C13.1267 5.06236 13.1582 5.07286 13.1967 5.07286C13.2352 5.07286 13.2667 5.08335 13.2667 5.09618C13.2667 5.10901 13.2877 5.1195 13.3133 5.1195C13.339 5.1195 13.36 5.13 13.36 5.14282C13.36 5.15565 13.3915 5.16615 13.43 5.16615C13.4685 5.16615 13.5 5.17664 13.5 5.18947C13.5 5.2023 13.521 5.21279 13.5467 5.21279C13.5723 5.21279 13.5933 5.22329 13.5933 5.23612C13.5933 5.24894 13.6143 5.25944 13.64 5.25944C13.6657 5.25944 13.6867 5.26993 13.6867 5.28276C13.6867 5.29559 13.7182 5.30609 13.7567 5.30609C13.7952 5.30609 13.8267 5.31658 13.8267 5.32941C13.8267 5.34224 13.8454 5.35273 13.8682 5.35273C13.891 5.35273 13.9248 5.37372 13.9433 5.39938C13.9618 5.42503 13.9956 5.44602 14.0185 5.44602C14.0413 5.44602 14.06 5.45652 14.06 5.46935C14.06 5.48217 14.081 5.49267 14.1067 5.49267C14.1323 5.49267 14.1533 5.50316 14.1533 5.51599C14.1533 5.52882 14.172 5.53932 14.1948 5.53932C14.2177 5.53932 14.2515 5.56031 14.27 5.58596C14.2885 5.61162 14.3181 5.63261 14.3358 5.63261C14.3535 5.63261 14.3974 5.66409 14.4333 5.70258C14.4693 5.74106 14.5109 5.77254 14.5259 5.77254C14.5408 5.77254 14.6042 5.82502 14.6667 5.88916C14.7292 5.9533 14.7918 6.00577 14.8058 6.00577C14.8389 6.00577 15.04 6.20677 15.04 6.23991C15.04 6.25391 15.0925 6.31646 15.1567 6.37894C15.2208 6.44142 15.2733 6.50475 15.2733 6.51967C15.2733 6.5346 15.3048 6.57623 15.3433 6.61217C15.3818 6.64811 15.4133 6.69201 15.4133 6.70966C15.4133 6.72734 15.4343 6.75694 15.46 6.77543C15.4857 6.79393 15.5067 6.82772 15.5067 6.85055C15.5067 6.87336 15.5172 6.89205 15.53 6.89205C15.5428 6.89205 15.5533 6.91304 15.5533 6.93869C15.5533 6.96435 15.5638 6.98534 15.5767 6.98534C15.5895 6.98534 15.6 7.00633 15.6 7.03198C15.6 7.05764 15.6105 7.07863 15.6233 7.07863C15.6362 7.07863 15.6467 7.09962 15.6467 7.12528C15.6467 7.15093 15.6572 7.17192 15.67 7.17192C15.6828 7.17192 15.6933 7.19291 15.6933 7.21857C15.6933 7.24422 15.7038 7.26521 15.7167 7.26521C15.7295 7.26521 15.74 7.2862 15.74 7.31186C15.74 7.33751 15.7505 7.35851 15.7633 7.35851C15.7762 7.35851 15.7867 7.38999 15.7867 7.42847C15.7867 7.46696 15.7972 7.49844 15.81 7.49844C15.8228 7.49844 15.8333 7.52993 15.8333 7.56841C15.8333 7.60689 15.8438 7.63838 15.8567 7.63838C15.8695 7.63838 15.88 7.66987 15.88 7.70835C15.88 7.74683 15.8905 7.77832 15.9033 7.77832C15.9162 7.77832 15.9267 7.8203 15.9267 7.87161C15.9267 7.92292 15.9372 7.9649 15.95 7.9649C15.9628 7.9649 15.9733 8.01738 15.9733 8.08152C15.9733 8.14566 15.9838 8.19813 15.9967 8.19813C16.0105 8.19813 16.02 8.28366 16.02 8.40804C16.02 8.53242 16.0295 8.61795 16.0433 8.61795C16.0575 8.61795 16.0667 8.719 16.0667 8.8745C16.0667 9.02999 16.0575 9.13105 16.0433 9.13105C16.0295 9.13105 16.02 9.21658 16.02 9.34096C16.02 9.46534 16.0105 9.55086 15.9967 9.55086C15.9837 9.55086 15.9733 9.61307 15.9733 9.6908C15.9733 9.76854 15.963 9.83074 15.95 9.83074C15.9372 9.83074 15.9267 9.87272 15.9267 9.92403C15.9267 9.97534 15.9162 10.0173 15.9033 10.0173C15.8905 10.0173 15.88 10.0593 15.88 10.1106C15.88 10.1619 15.8695 10.2039 15.8567 10.2039C15.8438 10.2039 15.8333 10.2354 15.8333 10.2739C15.8333 10.3124 15.8228 10.3438 15.81 10.3438C15.7972 10.3438 15.7867 10.3753 15.7867 10.4138C15.7867 10.4523 15.7762 10.4838 15.7633 10.4838C15.7505 10.4838 15.74 10.5153 15.74 10.5538C15.74 10.5922 15.7295 10.6237 15.7167 10.6237C15.7038 10.6237 15.6933 10.6447 15.6933 10.6704C15.6933 10.696 15.6828 10.717 15.67 10.717C15.6572 10.717 15.6467 10.7485 15.6467 10.787C15.6467 10.8255 15.6362 10.8569 15.6233 10.8569C15.6105 10.8569 15.6 10.8779 15.6 10.9036C15.6 10.9292 15.5895 10.9502 15.5767 10.9502C15.5638 10.9502 15.5533 10.9712 15.5533 10.9969C15.5533 11.0225 15.5428 11.0435 15.53 11.0435C15.5172 11.0435 15.5067 11.0645 15.5067 11.0902C15.5067 11.1158 15.4962 11.1368 15.4833 11.1368C15.4705 11.1368 15.46 11.1578 15.46 11.1835C15.46 11.2091 15.4495 11.2301 15.4367 11.2301C15.4238 11.2301 15.4133 11.2511 15.4133 11.2768C15.4133 11.3024 15.4028 11.3234 15.39 11.3234C15.3772 11.3234 15.3667 11.3421 15.3667 11.3649C15.3667 11.3877 15.3457 11.4215 15.32 11.44C15.2943 11.4585 15.2733 11.49 15.2733 11.51C15.2733 11.53 15.2523 11.5615 15.2267 11.58C15.201 11.5985 15.18 11.6323 15.18 11.6551C15.18 11.6779 15.1695 11.6966 15.1567 11.6966C15.1438 11.6966 15.1333 11.7133 15.1333 11.7339C15.1333 11.7544 15.1018 11.8006 15.0633 11.8365C15.0248 11.8725 14.9933 11.9144 14.9933 11.9298C14.9933 11.9452 14.9618 11.9872 14.9233 12.0231C14.8848 12.059 14.8533 12.1008 14.8533 12.1159C14.8533 12.131 14.8113 12.1837 14.76 12.233C14.7087 12.2823 14.6667 12.334 14.6667 12.3479C14.6667 12.3808 13.8115 13.2359 13.7786 13.2359C13.7649 13.2359 13.7025 13.2884 13.64 13.3525C13.5775 13.4166 13.5141 13.4691 13.4992 13.4691C13.4843 13.4691 13.4426 13.5006 13.4067 13.5391C13.3707 13.5776 13.3268 13.6091 13.3091 13.6091C13.2914 13.6091 13.2618 13.63 13.2433 13.6557C13.2248 13.6814 13.1952 13.7023 13.1775 13.7023C13.1599 13.7023 13.116 13.7338 13.08 13.7723C13.044 13.8108 13.0001 13.8423 12.9825 13.8423C12.9648 13.8423 12.9352 13.8633 12.9167 13.8889C12.8982 13.9146 12.8644 13.9356 12.8415 13.9356C12.8187 13.9356 12.8 13.9461 12.8 13.9589C12.8 13.9717 12.7813 13.9822 12.7585 13.9822C12.7356 13.9822 12.7018 14.0032 12.6833 14.0289C12.6648 14.0545 12.631 14.0755 12.6082 14.0755C12.5854 14.0755 12.5667 14.086 12.5667 14.0988C12.5667 14.1117 12.548 14.1222 12.5252 14.1222C12.5023 14.1222 12.4685 14.1432 12.45 14.1688C12.4315 14.1945 12.3977 14.2155 12.3748 14.2155C12.352 14.2155 12.3333 14.2259 12.3333 14.2388C12.3333 14.2516 12.3123 14.2621 12.2867 14.2621C12.261 14.2621 12.24 14.2726 12.24 14.2854C12.24 14.2983 12.219 14.3087 12.1933 14.3087C12.1677 14.3087 12.1467 14.3192 12.1467 14.3321C12.1467 14.3449 12.1257 14.3554 12.1 14.3554C12.0743 14.3554 12.0533 14.3659 12.0533 14.3787C12.0533 14.3915 12.0323 14.402 12.0067 14.402C11.981 14.402 11.96 14.4125 11.96 14.4254C11.96 14.4382 11.939 14.4487 11.9133 14.4487C11.8877 14.4487 11.8667 14.4592 11.8667 14.472C11.8667 14.4848 11.8457 14.4953 11.82 14.4953C11.7943 14.4953 11.7733 14.5058 11.7733 14.5187C11.7733 14.5315 11.7523 14.542 11.7267 14.542C11.701 14.542 11.68 14.5525 11.68 14.5653C11.68 14.5781 11.6485 14.5886 11.61 14.5886C11.5715 14.5886 11.54 14.5991 11.54 14.6119C11.54 14.6248 11.519 14.6353 11.4933 14.6353C11.4677 14.6353 11.4467 14.6458 11.4467 14.6586C11.4467 14.6714 11.4152 14.6819 11.3767 14.6819C11.3382 14.6819 11.3067 14.6924 11.3067 14.7052C11.3067 14.7181 11.2857 14.7286 11.26 14.7286C11.2343 14.7286 11.2133 14.7391 11.2133 14.7519C11.2133 14.7647 11.1818 14.7752 11.1433 14.7752C11.1048 14.7752 11.0733 14.7857 11.0733 14.7985C11.0733 14.8114 11.0418 14.8219 11.0033 14.8219C10.9648 14.8219 10.9333 14.8323 10.9333 14.8452C10.9333 14.858 10.9018 14.8685 10.8633 14.8685C10.8248 14.8685 10.7933 14.879 10.7933 14.8918C10.7933 14.9046 10.7618 14.9151 10.7233 14.9151C10.6848 14.9151 10.6533 14.9256 10.6533 14.9385C10.6533 14.9513 10.6113 14.9618 10.56 14.9618C10.5087 14.9618 10.4667 14.9723 10.4667 14.9851C10.4667 14.9979 10.4142 15.0084 10.35 15.0084C10.2858 15.0084 10.2333 15.0189 10.2333 15.0318C10.2333 15.0446 10.1808 15.0551 10.1167 15.0551C10.0525 15.0551 10 15.0656 10 15.0784C10 15.092 9.92223 15.1017 9.81333 15.1017C9.70444 15.1017 9.62667 15.1115 9.62667 15.125C9.62667 15.1389 9.5411 15.1484 9.41667 15.1484C9.29223 15.1484 9.20667 15.1579 9.20667 15.1717C9.20667 15.1862 9.07444 15.195 8.85667 15.195C8.6389 15.195 8.50667 15.2038 8.50667 15.2183C8.50667 15.2337 7.96223 15.2417 6.92 15.2417C5.87777 15.2417 5.33333 15.2497 5.33333 15.265C5.33333 15.28 5.10777 15.2883 4.70333 15.2883C4.0889 15.2883 4.07333 15.2872 4.07333 15.2417C4.07333 15.216 4.08383 15.195 4.09667 15.195C4.1095 15.195 4.12 15.1425 4.12 15.0784C4.12 15.0143 4.1305 14.9618 4.14333 14.9618C4.15617 14.9618 4.16667 14.9198 4.16667 14.8685C4.16667 14.8172 4.17717 14.7752 4.19 14.7752C4.20283 14.7752 4.21333 14.7332 4.21333 14.6819C4.21333 14.6306 4.22383 14.5886 4.23667 14.5886C4.2495 14.5886 4.26 14.5466 4.26 14.4953C4.26 14.444 4.2705 14.402 4.28333 14.402C4.29617 14.402 4.30667 14.3496 4.30667 14.2854C4.30667 14.2213 4.31717 14.1688 4.33 14.1688C4.34283 14.1688 4.35333 14.1268 4.35333 14.0755C4.35333 14.0242 4.36383 13.9822 4.37667 13.9822C4.3895 13.9822 4.4 13.9402 4.4 13.8889C4.4 13.8376 4.4105 13.7956 4.42333 13.7956C4.43617 13.7956 4.44667 13.7432 4.44667 13.679C4.44667 13.6149 4.45717 13.5624 4.47 13.5624C4.48283 13.5624 4.49333 13.5204 4.49333 13.4691C4.49333 13.4178 4.50383 13.3758 4.51667 13.3758C4.5295 13.3758 4.54 13.3338 4.54 13.2825C4.54 13.2312 4.5505 13.1892 4.56333 13.1892C4.57617 13.1892 4.58667 13.1368 4.58667 13.0726C4.58667 13.0085 4.59717 12.956 4.61 12.956C4.62283 12.956 4.63333 12.914 4.63333 12.8627C4.63333 12.8114 4.64383 12.7694 4.65667 12.7694C4.6695 12.7694 4.68 12.7274 4.68 12.6761C4.68 12.6248 4.6905 12.5828 4.70333 12.5828C4.71617 12.5828 4.72667 12.5409 4.72667 12.4896C4.72667 12.4382 4.73717 12.3963 4.75 12.3963C4.76283 12.3963 4.77333 12.3438 4.77333 12.2796C4.77333 12.2155 4.78383 12.163 4.79667 12.163C4.8095 12.163 4.82 12.1211 4.82 12.0697C4.82 12.0184 4.8305 11.9765 4.84333 11.9765C4.85617 11.9765 4.86667 11.9345 4.86667 11.8832C4.86667 11.8318 4.87717 11.7899 4.89 11.7899C4.90283 11.7899 4.91333 11.7374 4.91333 11.6733C4.91333 11.6091 4.92383 11.5566 4.93667 11.5566C4.9495 11.5566 4.96 11.5147 4.96 11.4633C4.96 11.412 4.9705 11.3701 4.98333 11.3701C4.99617 11.3701 5.00667 11.3281 5.00667 11.2768C5.00667 11.2255 5.01717 11.1835 5.03 11.1835C5.04283 11.1835 5.05333 11.131 5.05333 11.0669C5.05333 11.0027 5.06383 10.9502 5.07667 10.9502C5.0895 10.9502 5.1 10.9083 5.1 10.8569C5.1 10.8056 5.1105 10.7637 5.12333 10.7637C5.13617 10.7637 5.14667 10.7217 5.14667 10.6704C5.14667 10.6191 5.15717 10.5771 5.17 10.5771C5.18283 10.5771 5.19333 10.5246 5.19333 10.4605C5.19333 10.3963 5.20383 10.3438 5.21667 10.3438C5.2295 10.3438 5.24 10.3019 5.24 10.2506C5.24 10.1992 5.2505 10.1573 5.26333 10.1573C5.27617 10.1573 5.28667 10.1153 5.28667 10.064C5.28667 10.0127 5.29717 9.97068 5.31 9.97068C5.32283 9.97068 5.33333 9.9287 5.33333 9.87738C5.33333 9.82607 5.34383 9.78409 5.35667 9.78409C5.3695 9.78409 5.38 9.73162 5.38 9.66748C5.38 9.60334 5.3905 9.55086 5.40333 9.55086C5.41617 9.55086 5.42667 9.50888 5.42667 9.45757C5.42667 9.40626 5.43717 9.36428 5.45 9.36428C5.46283 9.36428 5.47333 9.3223 5.47333 9.27099C5.47333 9.21968 5.48383 9.1777 5.49667 9.1777C5.5095 9.1777 5.52 9.12522 5.52 9.06108C5.52 8.99694 5.5305 8.94447 5.54333 8.94447C5.55617 8.94447 5.56667 8.90249 5.56667 8.85117C5.56667 8.79986 5.57717 8.75788 5.59 8.75788C5.60283 8.75788 5.61333 8.74139 5.61333 8.72124C5.61333 8.62457 5.65431 8.61795 6.25334 8.61795H6.82667V8.73456C6.82667 8.7987 6.81617 8.85117 6.80333 8.85117C6.7905 8.85117 6.78 8.89316 6.78 8.94447C6.78 8.99578 6.7695 9.03776 6.75667 9.03776C6.74383 9.03776 6.73333 9.09023 6.73333 9.15437C6.73333 9.21851 6.72283 9.27099 6.71 9.27099C6.69717 9.27099 6.68667 9.31297 6.68667 9.36428C6.68667 9.41559 6.67617 9.45757 6.66333 9.45757C6.6505 9.45757 6.64 9.49955 6.64 9.55086C6.64 9.60217 6.6295 9.64416 6.61667 9.64416C6.60383 9.64416 6.59333 9.68614 6.59333 9.73745C6.59333 9.78876 6.58283 9.83074 6.57 9.83074C6.55717 9.83074 6.54667 9.88322 6.54667 9.94735C6.54667 10.0115 6.53617 10.064 6.52333 10.064C6.5105 10.064 6.5 10.1059 6.5 10.1573C6.5 10.2086 6.4895 10.2506 6.47667 10.2506C6.46383 10.2506 6.45333 10.2925 6.45333 10.3438C6.45333 10.3952 6.44283 10.4371 6.43 10.4371C6.41717 10.4371 6.40667 10.4791 6.40667 10.5304C6.40667 10.5817 6.39617 10.6237 6.38333 10.6237C6.3705 10.6237 6.36 10.6762 6.36 10.7403C6.36 10.8045 6.3495 10.8569 6.33667 10.8569C6.32383 10.8569 6.31333 10.8989 6.31333 10.9502C6.31333 11.0016 6.30283 11.0435 6.29 11.0435C6.27717 11.0435 6.26667 11.0855 6.26667 11.1368C6.26667 11.1881 6.25617 11.2301 6.24333 11.2301C6.2305 11.2301 6.22 11.2826 6.22 11.3467C6.22 11.4109 6.2095 11.4633 6.19667 11.4633C6.18383 11.4633 6.17333 11.5053 6.17333 11.5566C6.17333 11.6079 6.16283 11.6499 6.15 11.6499C6.13717 11.6499 6.12667 11.6919 6.12667 11.7432C6.12667 11.7945 6.11617 11.8365 6.10333 11.8365C6.0905 11.8365 6.08 11.8785 6.08 11.9298C6.08 11.9811 6.0695 12.0231 6.05667 12.0231C6.04383 12.0231 6.03333 12.0756 6.03333 12.1397C6.03333 12.2038 6.02283 12.2563 6.01 12.2563C5.99717 12.2563 5.98667 12.2983 5.98667 12.3496C5.98667 12.4009 5.97617 12.4429 5.96333 12.4429C5.9505 12.4429 5.94 12.4849 5.94 12.5362C5.94 12.5875 5.9295 12.6295 5.91667 12.6295C5.90383 12.6295 5.89333 12.6715 5.89333 12.7228C5.89333 12.7741 5.88283 12.8161 5.87 12.8161C5.85717 12.8161 5.84667 12.8686 5.84667 12.9327C5.84667 12.9968 5.83617 13.0493 5.82333 13.0493C5.8105 13.0493 5.8 13.0913 5.8 13.1426C5.8 13.1939 5.7895 13.2359 5.77667 13.2359C5.76383 13.2359 5.75333 13.2779 5.75333 13.3292C5.75333 13.3805 5.74283 13.4225 5.73 13.4225C5.71717 13.4225 5.70667 13.475 5.70667 13.5391C5.70667 13.6032 5.69617 13.6557 5.68333 13.6557C5.6705 13.6557 5.66 13.6977 5.66 13.749C5.66 13.8003 5.6495 13.8423 5.63667 13.8423C5.62383 13.8423 5.61333 13.8843 5.61333 13.9356C5.61333 13.9869 5.60283 14.0289 5.59 14.0289C5.57717 14.0289 5.56667 14.0499 5.56667 14.0755C5.56667 14.1218 5.58223 14.1222 7.62 14.1222C8.97333 14.1222 9.67333 14.1142 9.67333 14.0988C9.67333 14.0852 9.7511 14.0755 9.86 14.0755C9.9689 14.0755 10.0467 14.0658 10.0467 14.0522C10.0467 14.0394 10.0992 14.0289 10.1633 14.0289C10.2275 14.0289 10.28 14.0184 10.28 14.0055C10.28 13.9927 10.322 13.9822 10.3733 13.9822C10.4247 13.9822 10.4667 13.9717 10.4667 13.9589C10.4667 13.9461 10.5087 13.9356 10.56 13.9356C10.6113 13.9356 10.6533 13.9251 10.6533 13.9123C10.6533 13.8994 10.6953 13.8889 10.7467 13.8889C10.798 13.8889 10.84 13.8784 10.84 13.8656C10.84 13.8528 10.8715 13.8423 10.91 13.8423C10.9485 13.8423 10.98 13.8318 10.98 13.819C10.98 13.8061 11.0115 13.7956 11.05 13.7956C11.0885 13.7956 11.12 13.7851 11.12 13.7723C11.12 13.7595 11.141 13.749 11.1667 13.749C11.1923 13.749 11.2133 13.7385 11.2133 13.7257C11.2133 13.7128 11.2448 13.7023 11.2833 13.7023C11.3218 13.7023 11.3533 13.6919 11.3533 13.679C11.3533 13.6662 11.3743 13.6557 11.4 13.6557C11.4257 13.6557 11.4467 13.6452 11.4467 13.6324C11.4467 13.6196 11.4782 13.6091 11.5167 13.6091C11.5552 13.6091 11.5867 13.5986 11.5867 13.5857C11.5867 13.5729 11.6077 13.5624 11.6333 13.5624C11.659 13.5624 11.68 13.5519 11.68 13.5391C11.68 13.5263 11.701 13.5158 11.7267 13.5158C11.7523 13.5158 11.7733 13.5053 11.7733 13.4924C11.7733 13.4796 11.7943 13.4691 11.82 13.4691C11.8457 13.4691 11.8667 13.4586 11.8667 13.4458C11.8667 13.433 11.8877 13.4225 11.9133 13.4225C11.939 13.4225 11.96 13.412 11.96 13.3992C11.96 13.3863 11.9787 13.3758 12.0015 13.3758C12.0244 13.3758 12.0582 13.3548 12.0767 13.3292C12.0952 13.3035 12.129 13.2825 12.1518 13.2825C12.1746 13.2825 12.1933 13.272 12.1933 13.2592C12.1933 13.2464 12.212 13.2359 12.2348 13.2359C12.2577 13.2359 12.2915 13.2149 12.31 13.1892C12.3285 13.1636 12.36 13.1426 12.38 13.1426C12.4 13.1426 12.4315 13.1216 12.45 13.096C12.4685 13.0703 12.5 13.0493 12.52 13.0493C12.54 13.0493 12.5715 13.0283 12.59 13.0027C12.6085 12.977 12.6381 12.956 12.6558 12.956C12.6735 12.956 12.7174 12.9245 12.7533 12.886C12.7893 12.8476 12.8307 12.8161 12.8454 12.8161C12.86 12.8161 12.9551 12.7321 13.0567 12.6295C13.1582 12.5269 13.253 12.4429 13.2673 12.4429C13.3009 12.4429 13.36 12.3839 13.36 12.3503C13.36 12.336 13.444 12.2412 13.5467 12.1397C13.6493 12.0382 13.7333 11.9431 13.7333 11.9285C13.7333 11.9139 13.7648 11.8725 13.8033 11.8365C13.8418 11.8006 13.8733 11.7567 13.8733 11.739C13.8733 11.7213 13.8943 11.6917 13.92 11.6733C13.9457 11.6548 13.9667 11.6233 13.9667 11.6033C13.9667 11.5833 13.9877 11.5518 14.0133 11.5333C14.039 11.5148 14.06 11.481 14.06 11.4582C14.06 11.4354 14.0705 11.4167 14.0833 11.4167C14.0962 11.4167 14.1067 11.398 14.1067 11.3752C14.1067 11.3524 14.1277 11.3186 14.1533 11.3001C14.179 11.2816 14.2 11.2478 14.2 11.225C14.2 11.2022 14.2105 11.1835 14.2233 11.1835C14.2362 11.1835 14.2467 11.1625 14.2467 11.1368C14.2467 11.1112 14.2572 11.0902 14.27 11.0902C14.2828 11.0902 14.2933 11.0692 14.2933 11.0435C14.2933 11.0179 14.3038 10.9969 14.3167 10.9969C14.3295 10.9969 14.34 10.9759 14.34 10.9502C14.34 10.9246 14.3505 10.9036 14.3633 10.9036C14.3762 10.9036 14.3867 10.8826 14.3867 10.8569C14.3867 10.8313 14.3972 10.8103 14.41 10.8103C14.4228 10.8103 14.4333 10.7788 14.4333 10.7403C14.4333 10.7019 14.4438 10.6704 14.4567 10.6704C14.4695 10.6704 14.48 10.6389 14.48 10.6004C14.48 10.5619 14.4905 10.5304 14.5033 10.5304C14.5162 10.5304 14.5267 10.5094 14.5267 10.4838C14.5267 10.4581 14.5372 10.4371 14.55 10.4371C14.5628 10.4371 14.5733 10.3952 14.5733 10.3438C14.5733 10.2925 14.5838 10.2506 14.5967 10.2506C14.6095 10.2506 14.62 10.2191 14.62 10.1806C14.62 10.1421 14.6305 10.1106 14.6433 10.1106C14.6562 10.1106 14.6667 10.0581 14.6667 9.994C14.6667 9.92986 14.6772 9.87738 14.69 9.87738C14.7033 9.87738 14.7133 9.80742 14.7133 9.71412C14.7133 9.62083 14.7233 9.55086 14.7367 9.55086C14.7508 9.55086 14.76 9.4498 14.76 9.29431C14.76 9.13882 14.7508 9.03776 14.7367 9.03776C14.7233 9.03776 14.7133 8.96779 14.7133 8.8745C14.7133 8.78121 14.7033 8.71124 14.69 8.71124C14.6772 8.71124 14.6667 8.65876 14.6667 8.59462C14.6667 8.53048 14.6562 8.47801 14.6433 8.47801C14.6305 8.47801 14.62 8.44652 14.62 8.40804C14.62 8.36956 14.6095 8.33807 14.5967 8.33807C14.5838 8.33807 14.5733 8.30658 14.5733 8.2681C14.5733 8.22962 14.5628 8.19813 14.55 8.19813C14.5372 8.19813 14.5267 8.17714 14.5267 8.15149C14.5267 8.12583 14.5162 8.10484 14.5033 8.10484C14.4905 8.10484 14.48 8.07335 14.48 8.03487C14.48 7.99639 14.4695 7.9649 14.4567 7.9649C14.4438 7.9649 14.4333 7.94391 14.4333 7.91826C14.4333 7.8926 14.4228 7.87161 14.41 7.87161C14.3972 7.87161 14.3867 7.85293 14.3867 7.83012C14.3867 7.80729 14.3657 7.77349 14.34 7.755C14.3143 7.7365 14.2933 7.70271 14.2933 7.67987C14.2933 7.65706 14.2828 7.63838 14.27 7.63838C14.2572 7.63838 14.2467 7.6197 14.2467 7.59689C14.2467 7.57406 14.2257 7.54026 14.2 7.52177C14.1743 7.50327 14.1533 7.47367 14.1533 7.456C14.1533 7.43834 14.1218 7.39445 14.0833 7.35851C14.0448 7.32256 14.0133 7.28152 14.0133 7.26729C14.0133 7.23093 13.437 6.65882 13.4004 6.65882C13.3838 6.65882 13.3552 6.63783 13.3367 6.61217C13.3182 6.58652 13.2886 6.56553 13.2709 6.56553C13.2532 6.56553 13.2093 6.53404 13.1733 6.49556C13.1374 6.45707 13.0912 6.42559 13.0706 6.42559C13.0501 6.42559 13.0333 6.41509 13.0333 6.40226C13.0333 6.38944 13.0123 6.37894 12.9867 6.37894C12.961 6.37894 12.94 6.36845 12.94 6.35562C12.94 6.34279 12.9213 6.3323 12.8985 6.3323C12.8756 6.3323 12.8418 6.3113 12.8233 6.28565C12.8036 6.25827 12.7629 6.239 12.7248 6.239C12.6892 6.239 12.66 6.22851 12.66 6.21568C12.66 6.20285 12.639 6.19236 12.6133 6.19236C12.5877 6.19236 12.5667 6.18186 12.5667 6.16903C12.5667 6.15621 12.5457 6.14571 12.52 6.14571C12.4943 6.14571 12.4733 6.13522 12.4733 6.12239C12.4733 6.10956 12.4418 6.09907 12.4033 6.09907C12.3648 6.09907 12.3333 6.08857 12.3333 6.07574C12.3333 6.06292 12.2913 6.05242 12.24 6.05242C12.1887 6.05242 12.1467 6.04192 12.1467 6.0291C12.1467 6.01627 12.1047 6.00577 12.0533 6.00577C12.002 6.00577 11.96 5.99528 11.96 5.98245C11.96 5.96913 11.89 5.95913 11.7967 5.95913C11.7033 5.95913 11.6333 5.94912 11.6333 5.93581C11.6333 5.9209 11.4311 5.91248 11.0733 5.91248H10.5133V5.81919C10.5133 5.76788 10.5238 5.7259 10.5367 5.7259C10.5495 5.7259 10.56 5.68392 10.56 5.63261C10.56 5.5813 10.5705 5.53932 10.5833 5.53932C10.5962 5.53932 10.6067 5.49733 10.6067 5.44602C10.6067 5.39471 10.6172 5.35273 10.63 5.35273C10.6428 5.35273 10.6533 5.30025 10.6533 5.23612C10.6533 5.17198 10.6638 5.1195 10.6767 5.1195C10.6895 5.1195 10.7 5.07752 10.7 5.02621C10.7 4.9749 10.7105 4.93292 10.7233 4.93292C10.7362 4.93292 10.7467 4.90143 10.7467 4.86295V4.79298H11.3533C11.7422 4.79298 11.96 4.80135 11.96 4.8163ZM11.4933 6.72879C11.4933 6.74175 11.5556 6.75211 11.6333 6.75211C11.7111 6.75211 11.7733 6.76246 11.7733 6.77543C11.7733 6.78826 11.8153 6.79875 11.8667 6.79875C11.918 6.79875 11.96 6.80925 11.96 6.82208C11.96 6.83491 11.9915 6.8454 12.03 6.8454C12.0685 6.8454 12.1 6.8559 12.1 6.86872C12.1 6.88155 12.121 6.89205 12.1467 6.89205C12.1723 6.89205 12.1933 6.90254 12.1933 6.91537C12.1933 6.9282 12.2248 6.93869 12.2633 6.93869C12.3018 6.93869 12.3333 6.94919 12.3333 6.96202C12.3333 6.97484 12.3543 6.98534 12.38 6.98534C12.4057 6.98534 12.4267 6.99583 12.4267 7.00866C12.4267 7.02149 12.4454 7.03198 12.4682 7.03198C12.491 7.03198 12.5248 7.05297 12.5433 7.07863C12.5618 7.10429 12.5956 7.12528 12.6185 7.12528C12.6413 7.12528 12.66 7.13577 12.66 7.1486C12.66 7.16143 12.6768 7.17192 12.6973 7.17192C12.7178 7.17192 12.764 7.20341 12.8 7.24189C12.836 7.28037 12.8771 7.31186 12.8913 7.31186C12.9278 7.31186 13.36 7.74781 13.36 7.78452C13.36 7.80111 13.381 7.82979 13.4067 7.84829C13.4323 7.86678 13.4533 7.89827 13.4533 7.91826C13.4533 7.93824 13.4743 7.96973 13.5 7.98823C13.5257 8.00672 13.5467 8.04052 13.5467 8.06335C13.5467 8.08616 13.5572 8.10484 13.57 8.10484C13.5828 8.10484 13.5933 8.12583 13.5933 8.15149C13.5933 8.17714 13.6038 8.19813 13.6167 8.19813C13.6295 8.19813 13.64 8.21912 13.64 8.24478C13.64 8.27043 13.6505 8.29142 13.6633 8.29142C13.6762 8.29142 13.6867 8.32291 13.6867 8.36139C13.6867 8.39988 13.6972 8.43136 13.71 8.43136C13.7228 8.43136 13.7333 8.46285 13.7333 8.50133C13.7333 8.53981 13.7438 8.5713 13.7567 8.5713C13.7695 8.5713 13.78 8.61328 13.78 8.66459C13.78 8.7159 13.7905 8.75788 13.8033 8.75788C13.8172 8.75788 13.8267 8.84341 13.8267 8.96779C13.8267 9.09217 13.8362 9.1777 13.85 9.1777C13.863 9.1777 13.8733 9.2399 13.8733 9.31763C13.8733 9.39537 13.863 9.45757 13.85 9.45757C13.8364 9.45757 13.8267 9.53531 13.8267 9.64416C13.8267 9.753 13.8169 9.83074 13.8033 9.83074C13.7905 9.83074 13.78 9.88322 13.78 9.94735C13.78 10.0115 13.7695 10.064 13.7567 10.064C13.7438 10.064 13.7333 10.0955 13.7333 10.1339C13.7333 10.1724 13.7228 10.2039 13.71 10.2039C13.6972 10.2039 13.6867 10.2354 13.6867 10.2739C13.6867 10.3124 13.6762 10.3438 13.6633 10.3438C13.6505 10.3438 13.64 10.3753 13.64 10.4138C13.64 10.4523 13.6295 10.4838 13.6167 10.4838C13.6038 10.4838 13.5933 10.5048 13.5933 10.5304C13.5933 10.5561 13.5828 10.5771 13.57 10.5771C13.5572 10.5771 13.5467 10.5981 13.5467 10.6237C13.5467 10.6494 13.5362 10.6704 13.5233 10.6704C13.5105 10.6704 13.5 10.6914 13.5 10.717C13.5 10.7427 13.4895 10.7637 13.4767 10.7637C13.4638 10.7637 13.4533 10.7846 13.4533 10.8103C13.4533 10.836 13.4428 10.8569 13.43 10.8569C13.4172 10.8569 13.4067 10.8779 13.4067 10.9036C13.4067 10.9292 13.3962 10.9502 13.3833 10.9502C13.3705 10.9502 13.36 10.9689 13.36 10.9917C13.36 11.0146 13.339 11.0484 13.3133 11.0669C13.2877 11.0854 13.2667 11.1191 13.2667 11.142C13.2667 11.1648 13.2562 11.1835 13.2433 11.1835C13.2305 11.1835 13.22 11.2002 13.22 11.2208C13.22 11.2413 13.1885 11.2875 13.15 11.3234C13.1115 11.3593 13.08 11.401 13.08 11.4159C13.08 11.4308 13.0275 11.4942 12.9633 11.5566C12.8992 11.6191 12.8467 11.6816 12.8467 11.6955C12.8467 11.7283 12.5519 12.0231 12.5191 12.0231C12.5053 12.0231 12.4322 12.0861 12.3567 12.163C12.2811 12.24 12.2052 12.303 12.1881 12.303C12.171 12.303 12.1418 12.324 12.1233 12.3496C12.1048 12.3753 12.0752 12.3963 12.0575 12.3963C12.0399 12.3963 11.996 12.4277 11.96 12.4662C11.924 12.5047 11.8778 12.5362 11.8573 12.5362C11.8368 12.5362 11.82 12.5467 11.82 12.5595C11.82 12.5724 11.8013 12.5828 11.7785 12.5828C11.7556 12.5828 11.7218 12.6038 11.7033 12.6295C11.6848 12.6551 11.651 12.6761 11.6282 12.6761C11.6054 12.6761 11.5867 12.6866 11.5867 12.6995C11.5867 12.7123 11.5657 12.7228 11.54 12.7228C11.5143 12.7228 11.4933 12.7333 11.4933 12.7461C11.4933 12.7589 11.4723 12.7694 11.4467 12.7694C11.421 12.7694 11.4 12.7799 11.4 12.7928C11.4 12.8056 11.379 12.8161 11.3533 12.8161C11.3277 12.8161 11.3067 12.8266 11.3067 12.8394C11.3067 12.8522 11.2857 12.8627 11.26 12.8627C11.2343 12.8627 11.2133 12.8732 11.2133 12.886C11.2133 12.8989 11.1818 12.9094 11.1433 12.9094C11.0889 12.9094 11.0733 12.899 11.0733 12.8627C11.0733 12.8371 11.0628 12.8161 11.05 12.8161C11.0372 12.8161 11.0267 12.7846 11.0267 12.7461C11.0267 12.7076 11.0162 12.6761 11.0033 12.6761C10.9905 12.6761 10.98 12.6447 10.98 12.6062C10.98 12.5677 10.9695 12.5362 10.9567 12.5362C10.9438 12.5362 10.9333 12.5047 10.9333 12.4662C10.9333 12.4277 10.9228 12.3963 10.91 12.3963C10.8972 12.3963 10.8867 12.3648 10.8867 12.3263C10.8867 12.2878 10.8762 12.2563 10.8633 12.2563C10.8505 12.2563 10.84 12.2248 10.84 12.1864C10.84 12.1479 10.8295 12.1164 10.8167 12.1164C10.8038 12.1164 10.7933 12.0849 10.7933 12.0464C10.7933 12.0079 10.7828 11.9765 10.77 11.9765C10.7572 11.9765 10.7467 11.945 10.7467 11.9065C10.7467 11.868 10.7362 11.8365 10.7233 11.8365C10.7105 11.8365 10.7 11.805 10.7 11.7665C10.7 11.7281 10.6895 11.6966 10.6767 11.6966C10.6638 11.6966 10.6533 11.6546 10.6533 11.6033C10.6533 11.552 10.6428 11.51 10.63 11.51C10.6172 11.51 10.6067 11.4785 10.6067 11.44C10.6067 11.4015 10.5962 11.3701 10.5833 11.3701C10.5705 11.3701 10.56 11.3386 10.56 11.3001C10.56 11.2616 10.5495 11.2301 10.5367 11.2301C10.5238 11.2301 10.5133 11.1986 10.5133 11.1601C10.5133 11.1217 10.5028 11.0902 10.49 11.0902C10.4772 11.0902 10.4667 11.0797 10.4667 11.0669C10.4667 11.054 10.4982 11.0435 10.5367 11.0435C10.5752 11.0435 10.6067 11.033 10.6067 11.0202C10.6067 11.0074 10.6382 10.9969 10.6767 10.9969C10.7152 10.9969 10.7467 10.9864 10.7467 10.9736C10.7467 10.9607 10.7782 10.9502 10.8167 10.9502C10.8552 10.9502 10.8867 10.9397 10.8867 10.9269C10.8867 10.9141 10.9077 10.9036 10.9333 10.9036C10.959 10.9036 10.98 10.8931 10.98 10.8803C10.98 10.8674 11.0092 10.8569 11.0448 10.8569C11.0829 10.8569 11.1236 10.8377 11.1433 10.8103C11.1618 10.7846 11.1956 10.7637 11.2185 10.7637C11.2413 10.7637 11.26 10.7532 11.26 10.7403C11.26 10.7275 11.2787 10.717 11.3015 10.717C11.3244 10.717 11.3582 10.696 11.3767 10.6704C11.3952 10.6447 11.4245 10.6237 11.442 10.6237C11.4594 10.6237 11.514 10.5817 11.5633 10.5304C11.6127 10.4791 11.6648 10.4371 11.6792 10.4371C11.7135 10.4371 11.82 10.3303 11.82 10.296C11.82 10.2813 11.8515 10.2398 11.89 10.2039C11.9285 10.168 11.96 10.1241 11.96 10.1064C11.96 10.0887 11.981 10.0591 12.0067 10.0406C12.0323 10.0222 12.0533 9.98836 12.0533 9.96552C12.0533 9.94271 12.0638 9.92403 12.0767 9.92403C12.0895 9.92403 12.1 9.90304 12.1 9.87738C12.1 9.85173 12.1105 9.83074 12.1233 9.83074C12.1362 9.83074 12.1467 9.80975 12.1467 9.78409C12.1467 9.75844 12.1572 9.73745 12.17 9.73745C12.1828 9.73745 12.1933 9.69547 12.1933 9.64416C12.1933 9.59284 12.2038 9.55086 12.2167 9.55086C12.2295 9.55086 12.24 9.50888 12.24 9.45757C12.24 9.40626 12.2505 9.36428 12.2633 9.36428C12.2776 9.36428 12.2867 9.25543 12.2867 9.0844C12.2867 8.91338 12.2776 8.80453 12.2633 8.80453C12.2505 8.80453 12.24 8.77304 12.24 8.73456C12.24 8.69608 12.2295 8.66459 12.2167 8.66459C12.2038 8.66459 12.1933 8.6436 12.1933 8.61795C12.1933 8.59229 12.1828 8.5713 12.17 8.5713C12.1572 8.5713 12.1467 8.55031 12.1467 8.52465C12.1467 8.499 12.1362 8.47801 12.1233 8.47801C12.1105 8.47801 12.1 8.46208 12.1 8.44258C12.1 8.3995 11.8097 8.10484 11.7672 8.10484C11.7506 8.10484 11.7218 8.08385 11.7033 8.05819C11.6848 8.03254 11.651 8.01155 11.6282 8.01155C11.6054 8.01155 11.5867 8.00105 11.5867 7.98823C11.5867 7.9754 11.5552 7.9649 11.5167 7.9649C11.4782 7.9649 11.4467 7.95441 11.4467 7.94158C11.4467 7.92875 11.4047 7.91826 11.3533 7.91826C11.302 7.91826 11.26 7.90776 11.26 7.89493C11.26 7.87961 10.6922 7.87161 9.60333 7.87161H7.94667V7.755C7.94667 7.69086 7.95717 7.63838 7.97 7.63838C7.98283 7.63838 7.99333 7.5964 7.99333 7.54509C7.99333 7.49378 8.00383 7.4518 8.01667 7.4518C8.0295 7.4518 8.04 7.40982 8.04 7.35851C8.04 7.30719 8.0505 7.26521 8.06333 7.26521C8.07617 7.26521 8.08667 7.21274 8.08667 7.1486C8.08667 7.08446 8.09717 7.03198 8.11 7.03198C8.12283 7.03198 8.13333 6.99 8.13333 6.93869C8.13333 6.88738 8.14383 6.8454 8.15667 6.8454C8.1695 6.8454 8.18 6.81391 8.18 6.77543V6.70546H9.83667C10.9256 6.70546 11.4933 6.71346 11.4933 6.72879ZM10.7 8.68791C10.7 8.70074 10.7315 8.71124 10.77 8.71124C10.8085 8.71124 10.84 8.72173 10.84 8.73456C10.84 8.74739 10.861 8.75788 10.8867 8.75788C10.9123 8.75788 10.9333 8.76838 10.9333 8.78121C10.9333 8.79403 10.9494 8.80453 10.9691 8.80453C11.0156 8.80453 11.1667 8.95557 11.1667 9.002C11.1667 9.02167 11.1772 9.03776 11.19 9.03776C11.2028 9.03776 11.2133 9.06924 11.2133 9.10773C11.2133 9.14621 11.2238 9.1777 11.2367 9.1777C11.25 9.1777 11.26 9.24766 11.26 9.34096C11.26 9.43425 11.25 9.50422 11.2367 9.50422C11.2238 9.50422 11.2133 9.5357 11.2133 9.57419C11.2133 9.61267 11.2028 9.64416 11.19 9.64416C11.1772 9.64416 11.1667 9.66008 11.1667 9.67958C11.1667 9.72569 10.8749 10.0173 10.8288 10.0173C10.8093 10.0173 10.7933 10.0278 10.7933 10.0406C10.7933 10.0535 10.7723 10.064 10.7467 10.064C10.721 10.064 10.7 10.0745 10.7 10.0873C10.7 10.1001 10.679 10.1106 10.6533 10.1106C10.6277 10.1106 10.6067 10.1211 10.6067 10.1339C10.6067 10.1468 10.5752 10.1573 10.5367 10.1573C10.4982 10.1573 10.4667 10.1678 10.4667 10.1806C10.4667 10.1936 10.4044 10.2039 10.3267 10.2039C10.2489 10.2039 10.1867 10.2143 10.1867 10.2272C10.1867 10.2424 9.8289 10.2506 9.16 10.2506H8.13333V10.3205C8.13333 10.359 8.12283 10.3905 8.11 10.3905C8.09717 10.3905 8.08667 10.4325 8.08667 10.4838C8.08667 10.5351 8.07617 10.5771 8.06333 10.5771C8.0505 10.5771 8.04 10.6295 8.04 10.6937C8.04 10.7578 8.0295 10.8103 8.01667 10.8103C8.00383 10.8103 7.99333 10.8523 7.99333 10.9036C7.99333 10.9549 7.98283 10.9969 7.97 10.9969C7.95717 10.9969 7.94667 11.0074 7.94667 11.0202C7.94667 11.0353 8.20333 11.0435 8.67 11.0435C9.37777 11.0435 9.39333 11.0445 9.39333 11.0902C9.39333 11.1158 9.40383 11.1368 9.41667 11.1368C9.4295 11.1368 9.44 11.1683 9.44 11.2068C9.44 11.2453 9.4505 11.2768 9.46333 11.2768C9.47617 11.2768 9.48667 11.3082 9.48667 11.3467C9.48667 11.3852 9.49717 11.4167 9.51 11.4167C9.52283 11.4167 9.53333 11.4482 9.53333 11.4867C9.53333 11.5252 9.54383 11.5566 9.55667 11.5566C9.5695 11.5566 9.58 11.5881 9.58 11.6266C9.58 11.6651 9.5905 11.6966 9.60333 11.6966C9.61617 11.6966 9.62667 11.7281 9.62667 11.7665C9.62667 11.805 9.63717 11.8365 9.65 11.8365C9.66283 11.8365 9.67333 11.868 9.67333 11.9065C9.67333 11.945 9.68383 11.9765 9.69667 11.9765C9.7095 11.9765 9.72 12.0079 9.72 12.0464C9.72 12.0849 9.7305 12.1164 9.74333 12.1164C9.75617 12.1164 9.76667 12.1479 9.76667 12.1864C9.76667 12.2248 9.77717 12.2563 9.79 12.2563C9.80283 12.2563 9.81333 12.2878 9.81333 12.3263C9.81333 12.3648 9.82383 12.3963 9.83667 12.3963C9.8495 12.3963 9.86 12.4277 9.86 12.4662C9.86 12.5047 9.8705 12.5362 9.88333 12.5362C9.89617 12.5362 9.90667 12.5677 9.90667 12.6062C9.90667 12.6447 9.91717 12.6761 9.93 12.6761C9.94283 12.6761 9.95333 12.7076 9.95333 12.7461C9.95333 12.7846 9.96383 12.8161 9.97667 12.8161C9.9895 12.8161 10 12.8476 10 12.886C10 12.9245 10.0105 12.956 10.0233 12.956C10.0362 12.956 10.0467 12.9875 10.0467 13.026C10.0467 13.0645 10.0572 13.096 10.07 13.096C10.0828 13.096 10.0933 13.1379 10.0933 13.1892V13.2825H9.95333C9.87556 13.2825 9.81333 13.2929 9.81333 13.3059C9.81333 13.3212 9.2689 13.3292 8.22667 13.3292C6.65556 13.3292 6.64 13.3287 6.64 13.2825C6.64 13.2569 6.6505 13.2359 6.66333 13.2359C6.67617 13.2359 6.68667 13.1939 6.68667 13.1426C6.68667 13.0913 6.69717 13.0493 6.71 13.0493C6.72283 13.0493 6.73333 12.9968 6.73333 12.9327C6.73333 12.8686 6.74383 12.8161 6.75667 12.8161C6.7695 12.8161 6.78 12.7741 6.78 12.7228C6.78 12.6715 6.7905 12.6295 6.80333 12.6295C6.81617 12.6295 6.82667 12.5875 6.82667 12.5362C6.82667 12.4849 6.83717 12.4429 6.85 12.4429C6.86283 12.4429 6.87333 12.3904 6.87333 12.3263C6.87333 12.2622 6.88383 12.2097 6.89667 12.2097C6.9095 12.2097 6.92 12.1677 6.92 12.1164C6.92 12.0651 6.9305 12.0231 6.94333 12.0231C6.95617 12.0231 6.96667 11.9811 6.96667 11.9298C6.96667 11.8785 6.97717 11.8365 6.99 11.8365C7.00283 11.8365 7.01333 11.7945 7.01333 11.7432C7.01333 11.6919 7.02383 11.6499 7.03667 11.6499C7.0495 11.6499 7.06 11.5975 7.06 11.5333C7.06 11.4692 7.0705 11.4167 7.08333 11.4167C7.09617 11.4167 7.10667 11.3747 7.10667 11.3234C7.10667 11.2721 7.11717 11.2301 7.13 11.2301C7.14283 11.2301 7.15333 11.1881 7.15333 11.1368C7.15333 11.0855 7.16383 11.0435 7.17667 11.0435C7.1895 11.0435 7.2 11.0016 7.2 10.9502C7.2 10.8989 7.2105 10.8569 7.22333 10.8569C7.23617 10.8569 7.24667 10.8045 7.24667 10.7403C7.24667 10.6762 7.25717 10.6237 7.27 10.6237C7.28283 10.6237 7.29333 10.5817 7.29333 10.5304C7.29333 10.4791 7.30383 10.4371 7.31667 10.4371C7.3295 10.4371 7.34 10.3952 7.34 10.3438C7.34 10.2925 7.3505 10.2506 7.36333 10.2506C7.37617 10.2506 7.38667 10.1981 7.38667 10.1339C7.38667 10.0698 7.39717 10.0173 7.41 10.0173C7.42283 10.0173 7.43333 9.97534 7.43333 9.92403C7.43333 9.87272 7.44383 9.83074 7.45667 9.83074C7.4695 9.83074 7.48 9.78876 7.48 9.73745C7.48 9.68614 7.4905 9.64416 7.50333 9.64416C7.51617 9.64416 7.52667 9.60217 7.52667 9.55086C7.52667 9.49955 7.53717 9.45757 7.55 9.45757C7.56283 9.45757 7.57333 9.40509 7.57333 9.34096C7.57333 9.27682 7.58383 9.22434 7.59667 9.22434C7.6095 9.22434 7.62 9.18236 7.62 9.13105C7.62 9.07974 7.6305 9.03776 7.64333 9.03776C7.65617 9.03776 7.66667 8.99578 7.66667 8.94447C7.66667 8.89316 7.67717 8.85117 7.69 8.85117C7.70283 8.85117 7.71333 8.80919 7.71333 8.75788V8.66459H9.20667C10.1867 8.66459 10.7 8.67261 10.7 8.68791Z" fill="#0D4A80"/>
</svg>
