<svg width="20" height="20" viewBox="0 0 20 20" fill="none" xmlns="http://www.w3.org/2000/svg">
<path d="M13.8398 4.91969C13.8398 4.91969 14.1553 4.60422 14.2988 4.28875C14.2988 4.28875 13.9545 3.88713 14.2988 3.48566C14.2988 3.48566 14.3848 2.96999 14.0118 2.68257C14.0118 2.68257 14.6716 2.1669 15.4174 3.05538C15.4174 3.05538 15.6467 2.88338 15.8475 3.17019C15.8475 3.17019 18.0559 3.7438 17.339 7.73058L13.8398 4.91969Z" fill="#1797E5" stroke="#122A44" stroke-width="0.286821" stroke-miterlimit="10"/>
<path d="M15.0593 4.47515C15.0593 4.47515 15.3171 4.56114 15.4608 4.41782C15.4608 4.41782 15.9675 5.38334 15.5994 6.33461L14.457 5.56504C14.457 5.56504 15.0593 5.27808 15.0593 4.47515V4.47515Z" fill="url(#paint0_linear_3661_22066)" stroke="#122A44" stroke-width="0.0860419" stroke-linejoin="round"/>
<path d="M15.668 4.27146C15.668 4.27146 15.9258 4.27267 16.0705 4.07262C16.0705 4.07262 17.299 5.04436 16.7002 7.23552L15.8583 6.39482C15.8583 6.39482 16.3508 5.39335 15.668 4.27146V4.27146Z" fill="url(#paint1_linear_3661_22066)" stroke="#122A44" stroke-width="0.0860419" stroke-linejoin="round"/>
<path d="M2.82008 6.69452C2.82008 6.69452 1.04782 7.35762 1.30596 8.30418C1.30596 8.30418 1.36057 8.61571 1.92129 8.53169C1.92129 8.53169 3.15678 6.77703 2.82008 6.69452Z" fill="#1797E5" stroke="#122A44" stroke-width="0.315502" stroke-miterlimit="10"/>
<path d="M2.15852 13.123C2.15852 13.123 1.41231 14.0107 2.06949 14.9788C2.08967 15.0088 2.11911 15.0314 2.15331 15.0431C2.18752 15.0548 2.22461 15.055 2.25892 15.0436C2.47566 14.9711 2.94689 14.7251 3.37111 13.897L2.15852 13.123ZM3.3335 15.5139C3.27283 15.823 3.20352 16.524 3.72132 16.9282C3.73755 16.941 3.75675 16.9494 3.77712 16.9527C3.79749 16.956 3.81836 16.9541 3.8378 16.9472C3.98037 16.8964 4.33118 16.7174 4.63497 16.132C4.64253 16.1175 4.64713 16.1017 4.64852 16.0855C4.6499 16.0692 4.64805 16.0528 4.64305 16.0373C4.63805 16.0218 4.63002 16.0074 4.61941 15.995C4.60881 15.9826 4.59585 15.9725 4.58128 15.9651L3.50868 15.4288C3.49184 15.4204 3.47329 15.416 3.45447 15.4158C3.43564 15.4157 3.41703 15.4199 3.4001 15.4282C3.38316 15.4364 3.36834 15.4484 3.3568 15.4633C3.34525 15.4782 3.33728 15.4955 3.3335 15.5139V15.5139Z" fill="#1797E5" stroke="#122A44" stroke-width="0.331761" stroke-miterlimit="10"/>
<path d="M15.1025 4.51822C15.1025 4.51822 15.0811 5.2388 14.6475 5.43779L14.8818 5.46236C14.8818 5.46236 15.1603 5.1205 15.1603 4.54689L15.1025 4.51822ZM15.7336 4.31741C15.7336 4.31741 16.2785 5.17783 15.963 6.03825L16.135 6.1244C16.135 6.1244 16.508 5.26398 15.8482 4.2892L15.7336 4.31741Z" fill="#7DA4B7"/>
<path d="M1.94482 9.62932C1.94482 9.62932 0.517765 11.0265 1.17131 11.8193C1.17131 11.8193 1.3571 12.0933 1.86231 11.7713C1.8617 11.7713 2.30579 9.56274 1.94482 9.62932Z" fill="#1797E5" stroke="#122A44" stroke-width="0.331761" stroke-miterlimit="10"/>
<path d="M5.33105 17.8863C5.33105 17.8863 5.53308 18.6098 6.03298 18.8373C6.03298 18.8373 6.84426 19.0105 6.34284 17.5602L5.33105 17.8863Z" fill="#122A44"/>
<path d="M2.48248 7.15681C2.48248 7.15681 1.44992 7.5871 1.56458 8.36152C1.56458 8.36152 1.36392 8.33286 1.44992 7.98872C1.44992 7.98872 1.50725 7.5011 2.42515 7.04215L2.65462 6.92749L2.51114 7.15681H2.48248ZM1.76539 10.0824C1.76539 10.0824 0.761641 11.1723 1.33525 11.7459C1.33525 11.7459 1.30659 10.656 1.93753 10.2545L1.76539 10.0824ZM2.31033 13.3807C2.31033 13.3807 1.90887 14.0978 2.28167 14.7862C2.28167 14.7862 2.45381 14.7287 2.48248 14.6714C2.48248 14.6714 2.45381 14.8149 2.22464 14.9009C2.22464 14.9009 1.62236 14.2986 2.19598 13.3235L2.31033 13.3807ZM3.54371 15.8761C3.54371 15.8761 3.57237 16.5071 3.85918 16.7079C3.85918 16.7079 3.88784 16.7079 3.94518 16.6792C3.94518 16.6792 3.91651 16.7652 3.80185 16.7939C3.80185 16.7939 3.37156 16.4784 3.45756 15.8761H3.54371Z" fill="#5DC5F9"/>
<path d="M17.4827 12.6351C17.4827 12.6351 18.888 10.025 17.282 7.81657L16.8231 6.95615C16.8231 6.95615 16.7657 6.81267 16.6223 6.84134C16.6223 6.84134 16.2208 6.15306 15.7332 6.03825C15.7332 6.03825 15.3602 5.46464 14.6715 5.43597C14.6715 5.43597 14.4993 4.63213 13.5816 4.77636C13.5816 4.77636 13.3808 3.97328 12.549 4.31741C12.549 4.31741 12.4057 3.88713 11.8894 4.03061C11.8894 4.03061 11.8608 3.25618 9.88162 3.85846C9.88162 3.85846 3.94453 3.02671 2.76834 6.61186C2.76834 6.61186 2.7148 6.74594 2.86647 6.78082C2.86806 6.78114 2.86954 6.78187 2.87076 6.78294C2.87198 6.78401 2.8729 6.78538 2.87342 6.78692C2.87395 6.78846 2.87406 6.7901 2.87374 6.7917C2.87342 6.79329 2.8727 6.79477 2.87163 6.79599C2.67364 7.02496 2.55668 7.31283 2.53886 7.615C2.53886 7.615 1.53497 8.30343 2.02319 9.42199C2.02319 9.42199 1.67905 10.2258 2.08052 10.77C2.08052 10.77 1.50691 11.5158 2.138 12.2327C2.138 12.2327 1.73638 13.0645 2.5968 13.5234C2.5968 13.5234 2.25267 14.3838 3.02709 14.6707C3.02709 14.6707 2.99842 15.7032 3.94484 15.9902C3.94484 15.9902 3.9735 16.5638 4.57593 16.6499C4.57593 16.6499 4.28913 17.4538 5.32154 17.7398C5.32154 17.7398 5.80915 18.7149 6.52625 18.2273C6.52625 18.2273 6.98504 18.8584 8.04627 18.7149C8.04627 18.7149 8.70603 19.2885 9.76726 19.0017C9.76726 19.0017 10.4842 19.346 11.4021 18.8297C11.4021 18.8297 11.9471 19.0876 12.4347 18.6576C12.4347 18.6576 13.2664 18.6862 13.5532 18.3708C13.5532 18.3708 14.0408 18.5429 14.4423 18.256C14.4423 18.256 15.3601 18.0553 15.6182 18.4568C15.6182 18.4568 15.9625 19.1165 15.3027 19.8335C15.3027 19.8335 16.9089 20.1778 17.0237 18.17C17.0237 18.17 17.1097 17.0801 15.819 16.7933L17.4827 12.6351Z" fill="url(#paint2_linear_3661_22066)" stroke="#122A44" stroke-width="0.286821" stroke-miterlimit="10"/>
<path d="M10.4557 18.3139C14.1623 18.3139 17.1672 15.3604 17.1672 11.7172C17.1672 8.07394 14.1623 5.1205 10.4557 5.1205C6.74899 5.1205 3.74414 8.07394 3.74414 11.7172C3.74414 15.3604 6.74899 18.3139 10.4557 18.3139Z" fill="url(#paint3_linear_3661_22066)"/>
<path d="M11.7778 7.6875L12.2343 8.21834C12.2343 8.21834 12.5784 7.01379 11.7753 11.7462L11.3164 13.0942L5.59451 12.5634C5.59451 12.5634 4.82009 12.4199 4.92004 11.5487L11.7778 7.6875Z" fill="url(#paint4_linear_3661_22066)" stroke="#122A44" stroke-width="0.200764" stroke-linejoin="round"/>
<path d="M5.32174 8.47618L5.60854 6.69801L11.8038 7.5011L11.5456 9.33675L11.0868 12.3196L4.8916 11.5452L5.32174 8.47618V8.47618Z" fill="#C91111" stroke="#122A44" stroke-width="0.286821" stroke-miterlimit="10"/>
<path d="M5.26471 9.8817L5.17871 10.4266L7.07169 10.656L9.93976 11.2871V10.9716L11.3363 11.246L11.4026 10.656L5.26471 9.8817V9.8817Z" fill="#750606"/>
<path d="M10.7682 7.7873L6.58392 7.18563C6.37325 7.7873 5.78083 7.84524 5.78083 7.84524L5.32324 10.676C5.98513 10.8565 6.01106 11.5165 6.01106 11.5165L10.2275 12.0902C10.4381 11.4281 11.001 11.5452 11.001 11.5452L11.4313 8.61966C10.6488 8.34878 10.7682 7.7873 10.7682 7.7873ZM10.9144 11.4304C10.9144 11.4304 10.3408 11.3444 10.14 11.9753L6.12496 11.4304C6.12496 11.4304 6.09675 10.7988 5.46536 10.6273L5.83892 8.47618L5.92507 7.96051C5.92507 7.96051 6.49868 7.87451 6.69934 7.3009L10.6579 7.87451C10.6579 7.87451 10.542 8.44797 11.2876 8.70581L10.9144 11.4304Z" fill="#3D0000"/>
<path d="M9.73884 9.1646L11.6318 9.48008L12.6069 10.8854L11.7465 11.3731L11.4883 10.7994L9.62402 10.4553L9.73884 9.1646V9.1646Z" fill="url(#paint5_linear_3661_22066)" stroke="#4F1A00" stroke-width="0.286821" stroke-miterlimit="10"/>
<path d="M5.02023 8.57658L7.0852 8.83442L6.88485 10.1254L4.9632 9.89595L4.90572 10.1828C4.90572 10.1828 4.87675 8.86339 5.02023 8.57658Z" fill="url(#paint6_linear_3661_22066)" stroke="#4F1A00" stroke-width="0.200764" stroke-linejoin="round"/>
<path d="M6.92778 8.18938L6.6123 10.6273L9.65251 11.0576L9.9968 8.591L6.92778 8.18938V8.18938Z" fill="#F7AE2D" stroke="#4F1A00" stroke-width="0.286821" stroke-miterlimit="10"/>
<path opacity="0.63" d="M9.79598 9.02113L9.70999 9.59489L8.70609 10.6848L8.59128 10.2688L9.79598 9.02113V9.02113ZM8.30447 8.50484L6.82388 10.0752L6.77246 10.5055L6.84177 10.5126L8.76342 8.56233L8.30447 8.50484V8.50484ZM8.9069 8.59099L6.92777 10.5413L7.15725 10.398L8.9929 8.59099H8.9069V8.59099Z" fill="white"/>
<path d="M8.16118 9.62356L7.8457 10.2545L8.57371 10.3252L8.44737 9.65223C8.44737 9.65223 8.67685 9.62356 8.70521 9.36542C8.70521 9.36542 8.76254 8.99246 8.38974 8.93513C8.38974 8.93513 8.07427 8.90647 7.98812 9.22194C7.98903 9.22149 7.9317 9.50875 8.16118 9.62356Z" fill="#4F1A00"/>
<path d="M8.44727 8.8778C8.44727 8.8778 8.82007 8.93513 8.82007 9.30793C8.82007 9.30793 8.84873 9.62356 8.59059 9.73822L8.64868 10.541H8.76334L8.64868 9.79525C8.64868 9.79525 8.96916 9.62265 8.85586 9.20889C8.83315 9.12357 8.78456 9.04738 8.71678 8.99079C8.63998 8.92748 8.54625 8.88819 8.44727 8.8778V8.8778Z" fill="#4F1A00"/>
<path d="M8.39062 8.90646C8.39062 8.90646 8.73552 8.96364 8.73552 9.33675C8.73552 9.33675 8.73552 9.56607 8.47768 9.68089L8.59234 10.57H8.70716L8.56368 9.70955C8.56368 9.70955 8.75069 9.6363 8.78436 9.39302C8.79251 9.3367 8.7893 9.27931 8.77492 9.22425C8.76054 9.16919 8.73529 9.11756 8.70064 9.07241C8.666 9.02726 8.62266 8.98951 8.5732 8.96137C8.52373 8.93324 8.46913 8.91529 8.41262 8.90859L8.39062 8.90646Z" fill="white"/>
<path d="M10.8003 11.6599C10.8003 11.6599 10.4591 11.6209 10.2424 12.2141L10.9149 12.1475L10.8003 11.6599ZM10.9436 7.52976C10.9436 7.52976 10.7141 8.27552 11.5172 8.53366L11.6607 7.61576L10.9436 7.52976ZM5.72358 6.84134L5.5801 7.70191C5.5801 7.70191 6.2972 7.67309 6.38319 6.92749L5.72358 6.84134ZM5.1213 10.7708L5.03516 11.4304L5.86691 11.5452C5.86691 11.5452 5.75225 10.9141 5.1213 10.7708V10.7708Z" fill="#3D0000"/>
<path d="M10.1689 4.17394C10.1689 4.17394 10.7712 3.68647 11.6891 4.17394L11.6325 4.28875C11.6325 4.28875 12.2061 4.20275 12.6076 5.03451C12.6076 5.03451 12.7797 3.88713 13.4393 5.03451C13.4393 5.03451 14.2999 4.91969 14.4146 5.52197C14.4146 5.52197 14.2711 5.80893 14.4432 6.00959C14.4432 6.00959 14.3286 5.57945 14.6154 5.60812C14.6154 5.60812 15.1029 5.63679 15.4471 6.09574L15.5618 6.18173C15.5618 6.18173 15.9348 6.23906 16.4222 6.92749C16.5772 7.12994 16.717 7.34351 16.8407 7.56647C16.9105 7.69406 16.9868 7.81798 17.0692 7.93776C17.3495 8.34484 17.9658 9.38332 17.7416 10.3692C17.7416 10.3692 17.6556 11.918 17.3115 12.3483C17.3115 12.3483 17.8271 11.4591 17.9137 10.3692C17.9137 10.3692 18.0284 8.9638 17.1393 7.84524L16.6517 6.92749L16.4797 6.84134C16.4797 6.84134 16.1068 6.23906 15.5607 6.09574V6.03825C15.5607 6.03825 15.2453 5.55079 14.5568 5.52258L14.5282 5.40792C14.5282 5.40792 14.3275 4.71949 13.4665 4.9203C13.4665 4.9203 13.3805 4.11721 12.5487 4.4615C12.5487 4.4615 12.0331 4.17454 11.717 4.23203C11.717 4.23203 12.0611 3.6296 10.7418 3.80174C10.7418 3.80174 10.2129 3.89274 10.0615 3.96175L10.1689 4.17394Z" fill="#5DC5F9"/>
<path d="M3.48633 5.58749C3.48633 5.58749 5.5507 3.16988 8.0179 4.08794C9.8898 4.7844 9.76755 5.40746 9.76755 5.40746C9.76755 5.40746 8.49748 5.60645 7.90794 6.41136C7.90794 6.41136 6.75813 5.15569 5.28406 6.21813C5.28406 6.21843 5.25555 4.53855 3.48633 5.58749V5.58749Z" fill="url(#paint7_linear_3661_22066)"/>
<path d="M11.9761 18.5147C11.9761 18.5147 11.7873 18.7574 11.2651 18.4493C11.2651 18.4493 10.8002 18.8303 9.73898 18.601C9.73898 18.601 9.02188 19.0598 8.16162 18.3432C8.16162 18.3432 6.98557 18.601 6.69877 17.6547C6.69877 17.6547 5.98183 18.3432 5.63708 17.3679C5.63708 17.3679 4.91999 17.4541 4.83324 16.5362C4.83324 16.5362 5.00523 16.2494 4.83324 16.106C4.83324 16.106 4.25947 16.7083 4.25947 15.7044C4.25947 15.7044 2.76811 15.2455 3.7438 14.5285C3.7438 14.5285 2.33828 14.5285 2.99804 13.41C2.99804 13.41 2.02281 12.9797 2.53909 12.1193C2.53909 12.1193 1.93681 11.8325 2.25228 10.8572L2.45309 10.7712C2.45309 10.7712 1.90815 10.1403 2.36695 9.53786L2.39576 9.4232C2.39576 9.4232 1.93681 8.16116 2.68257 8.0465L2.96938 8.01784C2.96938 8.01784 2.71154 7.32941 3.22721 6.87046C3.22721 6.87046 2.99774 5.7519 5.14886 4.60468H4.7483C4.7483 4.60468 3.25694 5.26444 2.88399 6.72713L2.9988 6.87046C2.9988 6.87046 2.75613 7.01637 2.67241 7.57633C2.65815 7.67142 2.61174 7.76212 2.53227 7.81672C2.28171 7.98872 1.76619 8.55414 2.16705 9.42275C2.16705 9.42275 1.82276 10.1685 2.22438 10.7708C2.22438 10.7708 1.6221 11.5452 2.31037 12.2048C2.31037 12.2048 1.7947 12.9792 2.76932 13.4669C2.76932 13.4669 2.33904 14.3273 3.17079 14.5854C3.17079 14.5854 3.05613 15.6471 4.06003 15.8761C4.06003 15.8761 4.03136 16.4497 4.66231 16.5357L4.71964 16.6792C4.71964 16.6792 4.40417 17.3675 5.40806 17.6256C5.40806 17.6256 5.86686 18.6295 6.55529 18.0559C6.55529 18.0559 6.95676 18.7442 8.04665 18.5716L8.19013 18.6576C8.19013 18.6576 8.84974 19.1452 9.76749 18.8584C9.76749 18.8584 10.4844 19.2025 11.4023 18.6862C11.4023 18.6862 11.8899 18.9441 12.3201 18.5716L11.9761 18.5147Z" fill="#5DC5F9"/>
<path d="M8.21822 14.4419C8.21822 14.4419 6.61204 14.0118 6.81285 12.6067C6.81285 12.6067 6.32523 11.947 6.52604 11.2872C6.52604 11.2872 6.64071 10.8283 6.78388 10.8569C6.78388 10.8569 7.21402 10.2833 7.61564 10.3413C7.61564 10.3413 7.58697 10.6281 7.70163 10.6855C7.70163 10.6855 8.18925 9.96845 8.6482 10.0258C8.6482 10.0258 8.44739 10.5707 8.6482 10.8289C8.6482 10.8289 9.021 10.1979 9.42262 10.1979C9.42262 10.1979 9.36514 10.5707 9.45129 10.7429C9.45129 10.7429 9.91009 10.5994 9.91009 12.0624C9.91009 12.0624 10.2544 12.1771 10.4258 12.4925L10.3684 14.0987L8.21822 14.4419Z" fill="#1797E5" stroke="#122A44" stroke-width="0.258141" stroke-miterlimit="10"/>
<path d="M9.05533 11.0165C9.05533 11.0165 10.026 13.2087 8.76367 13.897L10.1117 13.6957L10.169 12.3477C10.169 12.3477 9.99462 12.1947 9.78061 12.1564C9.78061 12.1564 9.85357 11.2578 9.56676 10.9135L9.05533 11.0165Z" fill="url(#paint8_linear_3661_22066)"/>
<path d="M6.84199 10.9716C6.84199 10.9716 6.44037 11.7459 7.0428 12.5778C7.0428 12.5778 6.84199 13.811 8.30469 14.2126L7.93189 14.2417C7.93189 14.2417 6.69851 13.6957 6.92799 12.5778C6.92799 12.5778 6.26838 11.8607 6.81333 10.9141L6.84199 10.9716ZM13.7863 18.1378L14.4713 17.9698C14.4713 17.9698 15.1597 17.7978 15.7046 18.0559C15.7046 18.0559 16.3929 18.486 15.7906 19.7194H15.5608C15.5608 19.7194 15.8763 19.3753 15.8476 18.8303C15.8476 18.8303 15.8476 18.5725 15.733 18.3714C15.733 18.3714 15.5322 17.9698 14.6144 18.0846L14.385 18.1419C14.2789 18.2192 14.1558 18.27 14.026 18.2899C13.8963 18.3099 13.7636 18.2984 13.6392 18.2566L13.7863 18.1378Z" fill="#5DC5F9"/>
<path d="M12.1477 10.9141C12.1477 10.9141 11.1438 10.8568 10.943 12.0902L10.3407 12.2048C10.3407 12.2048 10.0253 12.6064 10.2834 13.0652C10.2834 13.0652 10.1686 13.4382 10.3121 13.6677C10.3121 13.6677 7.96015 13.4955 7.44387 15.245C7.44387 15.245 7.12839 18.314 11.8321 18.486C11.8321 18.486 14.643 18.6295 16.7368 16.0194L17.1956 15.8761L17.8267 17.1093C17.8267 17.1093 18.056 15.3598 19.3467 14.8149C19.3467 14.8149 17.9127 13.4095 18.6298 11.6602L17.1956 12.5206C17.1956 12.5206 16.9086 11.6027 16.6505 11.6027C16.6505 11.6027 16.6218 11.4019 16.4497 11.3449C16.4497 11.3449 16.2777 11.0007 16.4785 10.4271C16.4785 10.4271 15.9047 10.1403 15.1305 11.0294C15.1305 11.0294 14.8437 10.9146 14.7575 11.2302L14.4134 11.1154C14.4134 11.1154 14.2987 10.7139 14.0117 10.7426C14.0117 10.7426 13.8971 10.6278 14.2126 9.65268C14.2126 9.65268 13.3808 9.53786 12.8359 10.4271C12.8359 10.4271 12.5204 10.3123 12.4344 10.6278C12.4344 10.6273 12.2336 10.656 12.1477 10.9141Z" fill="#1797E5" stroke="#122A44" stroke-width="0.286821" stroke-linejoin="round"/>
<path d="M11.976 12.8071L10.7139 12.5493L11.1489 12.4408C11.1641 12.4391 11.1783 12.4328 11.1899 12.4228C11.2014 12.4128 11.2096 12.3996 11.2135 12.3848C11.2704 12.166 11.5439 11.2942 12.3207 11.1439L12.2347 11.0579C12.2347 11.0579 11.3743 11.0292 11.0875 12.2338L10.4277 12.3773V12.8646L11.8044 13.2087L11.976 12.8071Z" fill="url(#paint9_linear_3661_22066)"/>
<path d="M9.99678 17.9698C9.99678 17.9698 8.87807 16.2776 10.1688 16.3924C10.1688 16.3924 10.4556 16.3924 11.5455 16.7079C11.5455 16.7079 11.8898 16.7652 11.4881 16.3063C11.4881 16.3063 10.9145 15.8186 10.4842 15.6753C10.4842 15.6753 10.1114 15.2164 10.9719 15.4175L11.4595 15.5035C11.4595 15.5035 11.9184 15.6183 12.0331 15.102C12.0331 15.102 12.1191 14.5863 11.4022 14.6431C11.4022 14.6431 11.316 14.6431 11.2013 14.729C11.2013 14.729 11.603 14.1554 12.2912 14.5284C12.394 14.5728 12.4904 14.6306 12.578 14.7004L12.9216 14.3846L13.2372 14.3273L12.9794 13.4955C12.9794 13.4955 12.6637 13.5815 12.8645 13.266L13.5816 13.1227C13.5816 13.1227 14.0406 12.9792 14.2126 12.8071C14.2126 12.8071 15.0164 12.1475 15.9909 12.1762C15.9909 12.1762 16.5645 12.1475 16.5932 11.6605C16.5932 11.6605 16.8227 11.8613 17.0521 12.5209C17.0521 12.5209 17.0808 12.6644 17.2241 12.6644L18.1238 12.1164L18.3008 12.3905C18.3008 12.3905 17.9706 13.3234 18.8884 14.7001C18.8884 14.7001 18.0566 15.618 17.7412 16.5644L17.327 15.6327L16.5653 15.9048C16.5653 15.9048 14.8152 19.1171 9.99678 17.9698V17.9698Z" fill="url(#paint10_radial_3661_22066)"/>
<path d="M10.6857 5.00584C10.6857 5.00584 10.6283 4.1166 10.2555 4.57555C10.2555 4.57555 9.5671 3.48566 10.6857 1.99415C10.6857 1.99415 11.2013 1.73631 11.0298 1.24854C11.0298 1.24854 11.1159 0.961734 11.7182 0.818255C11.7182 0.818255 11.3741 0.0724981 10.3702 0.330639C10.3702 0.330639 10.1123 -0.0708291 9.59576 0.301974C9.59576 0.301974 4.74857 -0.730589 2.68359 4.94836C2.68359 4.94836 4.69124 4.26008 5.46566 4.63289C5.46566 4.63289 5.8098 4.77636 5.69514 5.37864C5.69514 5.37864 7.21516 4.54689 7.96092 5.63648C7.96092 5.63648 8.87867 4.66125 9.50977 4.89072C9.50977 4.89072 9.7676 5.00554 9.91123 5.37834" fill="#1797E5"/>
<path d="M10.6857 5.00584C10.6857 5.00584 10.6283 4.1166 10.2555 4.57555C10.2555 4.57555 9.5671 3.48566 10.6857 1.99415C10.6857 1.99415 11.2013 1.73631 11.0298 1.24854C11.0298 1.24854 11.1159 0.961734 11.7182 0.818255C11.7182 0.818255 11.3741 0.0724981 10.3702 0.330639C10.3702 0.330639 10.1123 -0.0708291 9.59576 0.301974C9.59576 0.301974 4.74857 -0.730589 2.68359 4.94836C2.68359 4.94836 4.69124 4.26008 5.46566 4.63289C5.46566 4.63289 5.8098 4.77636 5.69514 5.37864C5.69514 5.37864 7.21516 4.54689 7.96092 5.63648C7.96092 5.63648 8.87867 4.66125 9.50977 4.89072C9.50977 4.89072 9.7676 5.00554 9.91123 5.37834" stroke="#122A44" stroke-width="0.286821" stroke-miterlimit="10"/>
<path d="M11.001 6.55453C11.001 6.55453 9.93932 5.26398 8.73522 6.15306C8.73522 6.15306 7.94654 6.13866 7.60225 6.85575C7.60225 6.85575 7.54492 6.94174 7.54492 6.99907C7.54492 6.99907 8.00387 7.11389 8.00387 7.6875C8.00387 7.6875 8.11853 7.6875 8.40534 6.94174C8.40534 6.94174 8.86429 7.02789 8.92102 7.65883C8.92102 7.65883 9.03583 7.6875 9.29397 7.48669C9.29397 7.48669 9.37997 6.99907 9.52329 6.94174C9.52329 6.94174 9.89625 6.94174 9.98224 7.57284C9.98224 7.57284 10.0396 7.6875 10.5559 7.22855L11.3303 7.3147C11.3303 7.3147 11.4744 7.08522 11.001 6.55453V6.55453Z" fill="#1797E5" stroke="#122A44" stroke-width="0.0860419" stroke-miterlimit="10"/>
<path d="M11.976 12.6351C11.976 12.6351 11.8905 13.0652 11.7752 13.0939L10.4845 12.7784C10.4845 12.7784 10.4558 12.549 10.5706 12.4056L11.1153 12.3278C11.1312 12.3256 11.1459 12.3181 11.157 12.3064C11.168 12.2947 11.1747 12.2795 11.176 12.2635C11.1931 12.0393 11.3185 11.214 12.2345 11.1149L12.1738 11.0576C12.1738 11.0576 11.2882 10.9716 11.0875 12.0615C11.0875 12.0615 11.0589 12.2048 10.9441 12.2335L10.4284 12.3196C10.4284 12.3196 10.2276 12.6064 10.3711 12.9219L11.7764 13.2947C11.7764 13.2947 12.0333 13.352 11.976 12.6351V12.6351ZM13.1232 12.9506C13.1232 12.9506 12.8654 13.2084 12.8654 13.4382C12.8654 13.4382 14.6151 13.3807 15.5328 13.9257L12.7218 13.5529C12.7218 13.5529 12.521 13.352 13.1232 12.9506V12.9506ZM11.1156 14.9869C11.1156 14.9869 11.2157 14.6361 11.5568 14.6606C11.6139 14.6647 11.6673 14.6903 11.7062 14.7322C11.7732 14.8043 11.8615 14.9497 11.8615 15.2164C11.8614 15.2164 11.6892 14.6141 11.1156 14.9869V14.9869ZM9.53809 14.4708C9.53809 14.4708 9.63834 14.1204 9.97944 14.1444C10.0365 14.1484 10.0899 14.174 10.1288 14.2159C10.1959 14.288 10.2841 14.4334 10.2841 14.7001C10.2838 14.7001 10.1117 14.0978 9.53809 14.4708V14.4708Z" fill="#5DC5F9"/>
<path d="M13.1235 12.9222C13.1235 12.9222 12.6318 13.1574 12.6451 13.4617C12.647 13.502 12.6631 13.5403 12.6904 13.57C12.7178 13.5996 12.7547 13.6187 12.7947 13.6238L15.5328 13.9839M11.1588 15.0013C11.1588 15.0013 11.6177 14.5997 11.7325 15.2021L11.1588 15.0013ZM9.63086 14.5147C9.63086 14.5147 10.0135 14.1052 10.174 14.6455L9.63086 14.5147Z" stroke="#122A44" stroke-width="0.172084" stroke-miterlimit="10" stroke-linecap="round"/>
<path d="M13.061 13.6586C13.061 13.6586 12.9163 14.2795 13.5855 14.5816C13.828 14.69 14.0972 14.7241 14.359 14.6798C14.6801 14.6264 15.1101 14.4573 15.2366 13.9443L13.061 13.6586Z" fill="#F3F5F7" stroke="#122A44" stroke-width="0.172084" stroke-linejoin="round"/>
<path d="M12.0336 12.6351C12.0336 12.6351 12.0791 13.0091 11.9846 13.2277C11.9617 13.2783 11.9213 13.319 11.8709 13.3425C11.8206 13.3659 11.7634 13.3706 11.7099 13.3555L10.2627 12.9677" stroke="#122A44" stroke-width="0.172084" stroke-linecap="round" stroke-linejoin="round"/>
<path d="M11.6028 13.352C11.6028 13.352 11.8321 13.6963 11.5453 14.0118C11.5453 14.0118 10.9717 13.725 10.1973 13.725L10.3127 13.0079L11.6028 13.352Z" fill="#F3F5F7" stroke="#122A44" stroke-width="0.172084" stroke-linecap="round" stroke-linejoin="round"/>
<path d="M11.8906 14.2986C11.8906 14.2986 11.5827 13.9839 11.1914 13.8827" stroke="#122A44" stroke-width="0.143403" stroke-linecap="round" stroke-linejoin="round"/>
<path d="M17.236 7.73057C17.236 7.73057 16.3493 7.40145 16.4644 8.72006C16.4644 8.72006 16.5648 7.5011 17.3806 7.95868L17.236 7.73057Z" fill="#122A44"/>
<path d="M9.33668 0.70359C9.33668 0.70359 9.26494 1.0908 9.40842 1.31952C9.40842 1.31952 7.45811 1.97928 5.96659 4.56054C5.96659 4.56054 5.62246 3.52812 3.5 4.35988C3.5 4.36048 4.36042 0.775178 9.33668 0.70359V0.70359Z" fill="url(#paint11_linear_3661_22066)" stroke="#122A44" stroke-width="0.0860419" stroke-linejoin="round"/>
<path d="M9.46576 1.52094L9.7236 1.77877C9.7236 1.77877 8.20433 3.38525 7.85959 4.87677C7.85959 4.87677 7.25731 4.44648 6.28223 4.79062C6.28207 4.79062 7.28597 2.52483 9.46576 1.52094Z" fill="url(#paint12_linear_3661_22066)" stroke="#122A44" stroke-width="0.0860419" stroke-linejoin="round"/>
<path d="M9.92494 2.00855C9.92494 2.00855 8.94971 3.27059 9.92494 4.79062C9.92494 4.79062 9.15052 4.10234 8.2041 4.90543C8.20456 4.90543 8.77771 2.84031 9.92494 2.00855Z" fill="url(#paint13_linear_3661_22066)" stroke="#122A44" stroke-width="0.0860419" stroke-linejoin="round"/>
<path d="M14.4386 13.8395C14.4386 13.8395 14.1136 14.3949 14.7085 14.5762C14.7085 14.5762 15.1492 14.2966 15.1976 13.9391L14.4386 13.8395ZM11.0622 13.2078C11.0622 13.2078 10.7428 13.6102 11.0015 13.7823L11.5465 13.9257C11.5465 13.9257 11.7838 13.5359 11.4644 13.3149L11.0622 13.2078Z" fill="#122A44"/>
<path d="M14.414 14.4707C14.4932 14.4707 14.5575 14.4065 14.5575 14.3273C14.5575 14.248 14.4932 14.1838 14.414 14.1838C14.3347 14.1838 14.2705 14.248 14.2705 14.3273C14.2705 14.4065 14.3347 14.4707 14.414 14.4707Z" fill="white"/>
<path d="M10.9433 13.639C11.0225 13.639 11.0868 13.5748 11.0868 13.4955C11.0868 13.4163 11.0225 13.352 10.9433 13.352C10.864 13.352 10.7998 13.4163 10.7998 13.4955C10.7998 13.5748 10.864 13.639 10.9433 13.639Z" fill="white"/>
<path d="M14.5859 9.45141C14.5859 9.45141 14.6146 9.10727 14.8727 9.07861C14.8727 9.07861 15.2169 9.07861 15.2455 9.39408C15.2455 9.39408 15.1596 8.8784 15.5324 8.7918" stroke="black" stroke-width="0.0573613" stroke-linecap="round" stroke-linejoin="round"/>
<path d="M18.0522 10.276C18.0522 10.276 17.6553 9.91036 17.139 11.0289C17.139 11.0289 17.8136 10.3265 18.0499 10.3908L18.0522 10.276ZM17.9833 9.45566C17.9833 9.45566 17.4828 8.73432 17.1676 9.73822C17.1676 9.73822 17.3228 9.46673 17.4896 9.35419C17.5212 9.33289 17.5588 9.32239 17.5969 9.32428C17.6349 9.32617 17.6713 9.34033 17.7006 9.36466C17.7968 9.44565 17.9416 9.6416 18.0505 10.1134L17.9833 9.45566ZM16.5925 6.79311C16.5925 6.79311 15.9341 6.89928 16.1634 7.55843C16.1634 7.55843 16.1204 6.92536 16.8308 6.96935L16.5925 6.79311ZM15.809 6.06085C15.809 6.06085 15.3717 6.0974 15.6642 6.78067C15.675 6.80619 15.6767 6.83471 15.6687 6.8613C15.6608 6.88789 15.6439 6.91088 15.6208 6.92627C15.5971 6.9421 15.5685 6.94889 15.5402 6.94541C15.5119 6.94193 15.4858 6.92841 15.4667 6.90731C15.4042 6.83846 15.2847 6.69983 15.1718 6.62248C15.1594 6.61385 15.1451 6.60837 15.1301 6.60652C15.1151 6.60466 15.0998 6.60648 15.0857 6.61183C15.0715 6.61717 15.0589 6.62587 15.0488 6.63719C15.0388 6.6485 15.0317 6.66209 15.0281 6.67678C15.0023 6.78659 15.0012 7.02289 15.1025 7.52976C15.1025 7.52976 14.7264 6.9654 14.8902 6.5606C14.9492 6.41439 15.1271 6.35114 15.2609 6.43471C15.3104 6.46713 15.3541 6.50763 15.3902 6.55453C15.3902 6.55453 15.1961 5.79649 15.809 6.06085V6.06085ZM14.8483 5.45584C14.8483 5.45584 14.1658 5.50559 14.4423 5.99851C14.4521 6.01553 14.4644 6.03088 14.479 6.04401L14.5919 6.14715C14.607 6.1657 14.6161 6.1885 14.6179 6.21242C14.6196 6.23634 14.6139 6.26021 14.6016 6.28077C14.5894 6.30119 14.5712 6.31736 14.5495 6.3271C14.5278 6.33684 14.5036 6.33968 14.4802 6.33522C14.3361 6.30731 14.0129 6.18188 13.82 6.48598C13.8055 6.50832 13.7961 6.53361 13.7925 6.56002C13.789 6.58644 13.7913 6.61331 13.7994 6.63871C13.8267 6.72218 13.8819 6.79376 13.9556 6.84149C13.9556 6.84149 13.4968 6.61202 13.8409 6.26788C13.8409 6.26788 13.9556 6.12455 14.2711 6.12455C14.2711 6.12455 13.8444 5.37455 14.6601 5.39093L14.8483 5.45584ZM11.3448 4.48941C11.3448 4.48941 12.0027 3.85877 12.4877 4.6347C12.5084 4.66801 12.5251 4.70365 12.5373 4.74087L12.6067 4.94896C12.6067 4.94896 12.2625 4.9203 12.091 5.23577L11.9763 5.12111C11.9763 5.12111 12.0336 5.46524 12.5213 5.95286C12.5213 5.95286 12.5499 5.72339 12.2345 5.37925C12.2345 5.37925 12.5786 4.86357 12.9516 5.2071C12.9516 5.2071 13.1235 5.29325 13.439 5.80953C13.439 5.80953 13.353 5.32192 12.8081 4.97763C12.8081 4.97763 12.6359 4.23202 12.091 4.08854C12.091 4.08794 11.5747 3.97373 11.3448 4.48941V4.48941ZM10.1677 0.172903C10.1677 0.172903 9.94016 0.359304 10.1407 0.990399C10.1407 0.990399 9.88283 0.588779 9.96867 0.158646L10.1677 0.172903ZM10.2841 1.19106C10.2841 1.19106 10.6671 1.59344 11.0636 1.40658L11.0414 1.59738C11.0414 1.59738 10.4275 1.59253 10.2841 1.19106Z" fill="#122A44"/>
<path d="M9.50873 0.732258C9.50873 0.732258 9.62339 0.416786 9.99635 0.216583L9.56606 0.245249C9.56606 0.245249 9.48022 0.359304 9.50873 0.732258ZM10.1112 1.56401C10.1112 1.56401 10.312 1.96548 10.9429 1.50668L10.8856 1.90815C10.8856 1.90815 10.2546 2.02296 10.1112 1.56401Z" fill="#122A44"/>
<path d="M11.603 0.789588C11.603 0.789588 11.0292 0.961732 10.9432 1.33469C10.9432 1.33469 10.1401 1.07685 10.3123 0.38812C10.3129 0.387968 11.3442 0.129979 11.603 0.789588Z" fill="url(#paint14_linear_3661_22066)"/>
<path d="M14.127 2.7399C14.127 2.7399 14.491 3.14652 14.3848 3.51432C14.3848 3.51432 15.1886 3.68647 15.3599 3.11285C15.3602 3.11285 14.6727 2.28823 14.127 2.7399Z" fill="url(#paint15_linear_3661_22066)"/>
<path d="M16.3563 10.5022C16.3563 10.5022 16.1341 11.0761 16.3351 11.4017C16.3351 11.4017 15.5312 11.6312 15.1592 11.1723C15.1592 11.1723 15.7901 10.2832 16.3563 10.5022Z" fill="url(#paint16_linear_3661_22066)"/>
<path d="M14.0694 9.79555C14.0694 9.79555 13.7826 10.3405 13.8972 10.8572C13.8972 10.8572 13.1777 11.0678 12.8594 10.5604C12.8594 10.56 13.4383 9.53741 14.0694 9.79555Z" fill="url(#paint17_linear_3661_22066)"/>
<path d="M9.39143 10.2304C9.39143 10.2304 9.27359 10.5706 9.4521 10.8854C9.4521 10.8854 9.07293 11.154 8.76367 10.8854C8.76307 10.8854 8.93521 10.3692 9.39143 10.2304Z" fill="url(#paint18_linear_3661_22066)"/>
<path d="M8.52033 10.137C8.52033 10.137 8.36457 10.4614 8.50517 10.7944C8.50517 10.7944 8.09793 11.0182 7.82129 10.716C7.82129 10.716 8.05122 10.2225 8.52033 10.137V10.137Z" fill="url(#paint19_linear_3661_22066)"/>
<path d="M7.48694 8.03164C7.48694 8.03164 7.65014 7.73725 8.00262 7.65883C8.00262 7.65883 7.95135 7.12556 7.54488 7.07521C7.54549 7.07521 7.28492 7.59953 7.48694 8.03164Z" fill="url(#paint20_linear_3661_22066)" stroke="#122A44" stroke-width="0.12907" stroke-linejoin="round"/>
<path d="M8.39669 7.92319C8.39669 7.92319 8.53941 7.70858 8.89249 7.63017C8.89249 7.63017 8.82076 7.04215 8.44795 6.98482C8.44735 6.98482 8.16115 7.5011 8.39669 7.92319Z" fill="url(#paint21_linear_3661_22066)" stroke="#122A44" stroke-width="0.12907" stroke-linejoin="round"/>
<path d="M9.42937 7.92319C9.42937 7.92319 9.60333 7.60818 9.95642 7.52961C9.95642 7.52961 9.91577 7.03502 9.5093 6.98482C9.50915 6.98482 9.22735 7.49109 9.42937 7.92319Z" fill="url(#paint22_linear_3661_22066)" stroke="#122A44" stroke-width="0.12907" stroke-linejoin="round"/>
<path d="M7.58739 10.4266C7.58739 10.4266 7.38946 10.6907 7.53021 11.0239C7.53021 11.0239 7.15104 11.1908 6.875 10.8874C6.875 10.8882 7.12844 10.3978 7.58739 10.4266V10.4266Z" fill="url(#paint23_linear_3661_22066)"/>
<path d="M10.3518 0.306824C10.3518 0.306824 10.1977 0.933066 11.0008 1.33469L10.9435 1.42068C10.9435 1.42068 10.083 1.16284 10.2552 0.330787L10.3518 0.306824ZM15.5898 3.02671C15.5898 3.02671 15.676 3.42772 15.1884 3.71589C15.1884 3.71589 15.676 3.57241 15.7041 3.11361L15.5898 3.02671Z" fill="#122A44"/>
<path d="M7.07149 17.7978C7.07149 17.7978 2.91257 15.3312 3.94513 9.70956L2.82657 10.7988C2.82657 10.7988 2.62576 15.5613 7.07149 17.7978Z" fill="url(#paint24_radial_3661_22066)"/>
<path d="M4.11719 8.67699C4.11719 8.67699 4.37503 9.04979 4.71947 8.67699C4.71947 8.67699 4.4184 9.1646 4.11719 8.67699V8.67699Z" fill="#5DC5F9"/>
<path d="M15.7308 3.21159C15.7308 3.21159 15.8598 3.46776 15.766 3.8298C15.766 3.8298 15.9091 3.68055 15.9466 3.30851L15.7308 3.21159ZM14.2705 3.71589C14.2705 3.71589 14.5 4.06003 15.0163 3.80189C15.0163 3.80189 14.5006 3.9167 14.2993 3.62975L14.2705 3.71589Z" fill="#122A44"/>
<path d="M14.2708 3.77247C14.2708 3.77247 14.3569 4.28814 14.9019 4.23142C14.9019 4.23142 14.6041 4.40917 14.28 4.26297L14.2708 3.77247ZM15.3607 3.05538C15.3607 3.05538 15.1887 3.71514 14.3282 3.457L14.2996 3.60032C14.2996 3.60032 15.2747 3.88713 15.5615 3.02671L15.3607 3.05538ZM9.13676 18.2566C9.13676 18.2566 9.98854 18.2334 10.0073 19.0768L9.67215 19.0261C9.67215 19.0261 9.88252 18.4581 9.13676 18.2566ZM7.78873 17.6543C7.78873 17.6543 8.42847 17.9672 8.16593 18.8003L7.96148 18.7255C7.96148 18.7255 8.19004 17.8838 7.78873 17.6543ZM4.97799 15.8191C4.97799 15.8191 5.3508 16.5648 4.51904 16.7657L4.34705 16.5078C4.34705 16.5078 5.00666 16.6792 4.97799 15.8191ZM3.57263 14.4133C3.57263 14.4133 3.54396 14.7862 2.99902 14.7001L3.02586 14.5389C3.02603 14.5376 3.02648 14.5364 3.02719 14.5354C3.02789 14.5344 3.02883 14.5336 3.02993 14.533C3.03102 14.5324 3.03224 14.532 3.03348 14.532C3.03473 14.532 3.03596 14.5322 3.03708 14.5328C3.09108 14.5584 3.36696 14.6708 3.57263 14.4133V14.4133ZM2.94229 9.93903C2.94229 9.93903 2.71221 10.9716 2.13844 10.7135L2.02363 10.9428C2.02363 10.9428 2.94229 11.3157 2.94229 9.93903ZM1.99512 9.16461C1.99512 9.16461 2.39628 9.99636 2.76954 8.67699C2.76954 8.67699 2.82687 9.85288 2.02378 9.59489L1.99512 9.16461ZM2.68354 7.52977C2.68354 7.52977 2.62606 8.16071 3.37182 7.90257C3.37182 7.90257 2.71221 8.52441 2.41099 7.79746L2.68354 7.52977ZM2.91287 6.55453C2.91287 6.55453 3.11368 7.15681 4.00276 6.26773C4.00276 6.26773 3.14234 7.52977 3.94543 7.58725C3.94543 7.58725 3.22849 7.70206 3.54396 6.87016C3.54396 6.87016 3.21105 7.19063 2.83263 6.84392L2.91287 6.55453ZM3.62996 9.02113C3.62996 9.02113 3.94543 9.10728 4.08891 8.73432C4.08891 8.73432 4.2609 9.0498 4.57653 8.8778C4.57653 8.8778 4.69119 8.82047 4.77718 8.56233C4.77718 8.56233 4.57653 9.02113 4.26151 8.82017C4.26151 8.82017 4.08952 8.73402 4.08952 8.47588C4.08891 8.47618 4.00276 9.02113 3.62996 9.02113V9.02113Z" fill="#122A44"/>
<path d="M9.82508 0.703592C9.82508 0.703592 10.0259 1.21927 10.2265 1.4492C10.2265 1.4492 9.71042 1.2772 9.82508 0.703592ZM3.1709 4.51822C3.1709 4.51822 4.23258 1.90815 6.26859 1.16239C6.26859 1.16239 7.84595 0.502782 9.42331 0.560113C9.42331 0.560113 6.7559 0.244641 5.14973 1.6218C5.15003 1.62134 3.74466 2.68257 3.1709 4.51822V4.51822ZM10.2265 2.05163C10.2265 2.05163 9.33746 3.02671 10.0546 4.66155C10.0546 4.66155 9.02199 3.31351 10.2265 2.05163ZM14.7332 3.99041C14.7332 3.99041 15.3399 4.04107 15.6988 3.62762C15.6988 3.62762 15.4646 4.28996 14.7332 3.99041ZM16.2211 3.8298C16.2211 3.8298 17.1675 4.71888 17.025 6.89882C17.0242 6.89882 17.5117 4.77636 16.2211 3.8298V3.8298Z" fill="#5DC5F9"/>
<path d="M12.4057 11.3157C12.4057 11.3157 12.463 11.5165 12.7212 11.6599C12.7212 11.6599 12.3196 10.9428 13.18 10.9141L12.6635 10.541C12.6635 10.541 12.291 10.8854 12.4057 11.3157Z" fill="url(#paint25_linear_3661_22066)"/>
<path d="M3.77342 4.23157L3.54395 4.31757C3.54395 4.31757 3.97362 2.73991 5.55098 1.76483C5.55098 1.76483 6.95635 0.703142 9.30828 0.732262C9.29113 0.768172 9.28138 0.807167 9.27962 0.846924C9.27962 0.846924 4.97798 0.846924 3.77342 4.23157ZM6.35483 4.71889C6.35483 4.71889 7.38739 2.51043 9.45252 1.56417L9.50955 1.62135C9.50955 1.62135 7.93219 2.13702 6.46934 4.69022L6.35483 4.71889Z" fill="#7DA4B7"/>
<path d="M12.664 10.541C12.6569 10.5811 12.6584 10.6223 12.6683 10.6618C12.6782 10.7014 12.6963 10.7384 12.7214 10.7705C12.7214 10.7705 12.3771 11.0283 12.4636 11.4301C12.4636 11.4304 12.1483 10.7708 12.664 10.541Z" fill="#5DC5F9"/>
<path d="M9.7669 2.19495C9.7669 2.19495 8.82034 2.96938 8.27539 4.80503L8.3902 4.71888C8.3902 4.71888 8.6488 3.57165 9.7669 2.19495Z" fill="#7DA4B7"/>
<path d="M12.8079 10.484C12.8079 10.484 13.152 10.9997 13.9838 10.7994L14.0986 10.8568C14.0986 10.8568 13.2668 11.3157 12.6357 10.5126L12.8079 10.484Z" fill="#122A44"/>
<path d="M12.5785 10.57C12.5785 10.57 12.7793 11.0856 13.2383 11.1436C13.2383 11.1436 12.808 11.1722 12.4639 10.656L12.5785 10.57Z" fill="#122A44"/>
<path d="M14.9354 11.1654C14.9354 11.1654 14.5285 11.8033 14.7007 12.0328C14.7007 12.0328 14.7293 12.1762 14.9585 12.2335C14.9585 12.2335 14.8438 11.832 15.1018 11.6025C15.2392 11.6899 15.3831 11.7666 15.5321 11.832L15.6759 11.6027C15.6759 11.6027 15.3422 11.5887 14.9354 11.1656" fill="url(#paint26_linear_3661_22066)"/>
<path d="M13.4672 11.2009C13.4672 11.2009 14.0983 11.2297 14.0983 10.7994L14.213 10.9428C14.213 10.9428 14.1552 11.2871 13.4672 11.2009ZM12.463 10.6848C12.463 10.6848 12.2622 10.9716 12.463 11.4304C12.463 11.4304 12.0901 11.0863 12.1188 10.8854L12.463 10.6848Z" fill="#122A44"/>
<path d="M13.6396 11.6599C13.6396 11.6599 14.2706 11.8893 14.3854 11.0863L14.2133 10.8568C14.2133 10.8568 14.2133 11.6027 13.6396 11.6599V11.6599ZM14.873 11.2871C14.873 11.2871 14.5862 11.6885 14.7295 12.0902C14.7295 12.0902 14.4141 11.918 14.7009 11.2009L14.873 11.2871ZM15.4466 12.377C15.4466 12.377 16.5323 12.9773 16.7064 11.6159L16.5652 11.4304C16.5652 11.4304 16.5652 12.6924 15.4466 12.377Z" fill="#122A44"/>
<path d="M7.10044 11.0576C7.10044 11.0576 6.8426 12.1761 8.16212 12.8646C8.16212 12.8646 7.70317 11.8939 7.58851 11.0401L7.10044 11.0576Z" fill="url(#paint27_linear_3661_22066)"/>
<path d="M8.06054 10.8281C8.06054 10.8281 7.84547 12.1476 8.96403 12.8358L8.9067 12.4343C8.9067 12.4343 8.53374 11.4304 8.59107 10.7988L8.06054 10.8281Z" fill="url(#paint28_linear_3661_22066)"/>
<path d="M15.7617 11.8605C15.7617 11.8605 16.4712 11.9829 16.561 11.5058L16.5075 11.4016C16.5075 11.4016 16.45 11.832 15.7617 11.8605V11.8605ZM14.8727 11.1436C14.8727 11.1436 14.8152 11.4014 15.3028 11.7172C15.3028 11.7172 14.9873 11.6885 14.7871 11.2584L14.8727 11.1436Z" fill="#122A44"/>
<path d="M15.1308 11.087C15.1308 11.087 15.5036 11.6606 16.3927 11.3165L16.5075 11.5173C16.5075 11.5173 15.475 12.0048 14.9014 11.1157L15.1308 11.087Z" fill="#122A44"/>
<path d="M15.0161 12.0328C15.0161 12.0328 15.4177 12.2335 16.2208 12.1188C16.2208 12.1184 15.4464 12.6351 15.0161 12.0328V12.0328ZM12.8076 11.3157C12.8076 11.3157 13.1804 11.4877 13.9835 11.3731C13.9834 11.3731 13.3526 11.918 12.8076 11.3157Z" fill="#5DC5F9"/>
<path d="M6.75586 10.9716C6.75586 10.9716 7.04267 11.2584 7.61628 11.1149L7.70227 10.6848L7.5051 10.602C7.5051 10.602 7.4141 10.7991 7.44353 11.0003C7.44353 11.0003 7.09939 11.0863 6.84125 10.8568L6.75586 10.9716Z" fill="#122A44"/>
<path d="M6.76998 10.9858C6.76998 10.9858 6.79865 11.1867 7.11412 11.2153C7.11412 11.2153 6.84111 11.2584 6.69824 11.0289L6.76998 10.9858ZM7.27201 11.2297C7.27201 11.2297 7.55881 11.2584 7.61614 11.0576L7.64481 11.2297C7.58591 11.255 7.52249 11.268 7.45841 11.268C7.39432 11.268 7.33091 11.255 7.27201 11.2297V11.2297Z" fill="#122A44"/>
<path d="M7.78864 10.7421C7.78864 10.7421 7.61665 11.4591 7.81746 11.918C7.81746 11.918 7.4445 11.3731 7.64531 10.7135L7.78864 10.7421ZM7.84612 10.6273C7.84612 10.6273 8.13293 10.8851 8.59173 10.7135V10.7988C8.59173 10.7988 8.10426 11.0567 7.81746 10.7128L7.84612 10.6273Z" fill="#122A44"/>
<path d="M7.75948 10.7135C7.84537 10.8448 7.97922 10.9373 8.13243 10.9713C8.13243 10.9713 7.84563 10.9713 7.70215 10.7991L7.75948 10.7135ZM8.33309 10.9716C8.33309 10.9716 8.59093 10.9141 8.59093 10.7708L8.61975 10.9141C8.61975 10.9141 8.5339 11.0003 8.33309 10.9716Z" fill="#122A44"/>
<path d="M8.59116 10.8854C8.59116 10.8854 8.30436 11.4011 8.82064 12.1761C8.82064 12.1761 8.50517 11.3157 8.70598 10.8854H8.59116Z" fill="#122A44"/>
<path d="M8.73604 10.8281C8.73604 10.8281 9.13751 11.0859 9.4818 10.8281L9.59646 10.9141C9.59646 10.9141 9.19499 11.2584 8.67871 10.9428L8.73604 10.8281Z" fill="#122A44"/>
<path d="M8.64911 10.9428C8.64911 10.9428 8.73511 11.1149 9.10791 11.1723C9.10791 11.1723 8.8211 11.2009 8.62045 11.0863L8.64911 10.9428ZM9.25154 11.1436C9.25154 11.1436 9.48102 11.1436 9.59568 10.8857L9.68167 11.0292C9.55786 11.1202 9.40421 11.1611 9.25154 11.1436V11.1436ZM9.36605 11.3731C9.36605 11.3731 9.65286 11.3444 9.73901 11.1152L9.76722 11.2584C9.76722 11.2584 9.65286 11.4017 9.36605 11.3731ZM9.5382 6.89882C9.5382 6.89882 9.5382 6.35388 10.3986 6.38315C10.3986 6.38315 9.30872 6.15367 9.42353 7.04276L9.5382 6.89882ZM9.99715 7.12845C9.99715 7.12845 10.1118 7.30059 10.0545 7.55874L10.1813 7.52021C10.1813 7.52021 10.1691 7.21429 9.99715 7.12845ZM8.46589 6.9604C8.46589 6.9604 8.62045 6.35372 9.62419 6.26773C9.62419 6.26773 8.41964 6.23906 8.3623 6.95615L8.46589 6.9604Z" fill="#122A44"/>
<path d="M10.6282 6.26773C10.6282 6.26773 11.3453 6.81268 11.3165 7.27163L10.543 7.18563C10.543 7.18563 10.9437 6.92749 10.6282 6.26773Z" fill="url(#paint29_linear_3661_22066)"/>
<path d="M8.44727 16.1343C8.44727 16.1343 9.04954 15.2164 11.0573 16.3349C11.0579 16.3348 9.36562 14.8149 8.44727 16.1343Z" fill="#122A44"/>
<path d="M8.44727 16.3062C8.44727 16.3062 8.99221 15.4458 11.0863 16.4784C11.0863 16.4784 9.27963 15.073 8.44727 16.3062Z" fill="#5DC5F9"/>
<path d="M11.8036 14.4133C11.8036 14.4133 9.44829 13.1632 8.05915 14.7574C7.9247 14.9123 7.83356 15.0999 7.79494 15.3013C7.75632 15.5027 7.7716 15.7107 7.83923 15.9043C8.09085 16.6292 8.80081 17.7615 10.7998 18.0852C10.7998 18.0852 14.1555 18.8023 16.4788 15.9054L16.9089 15.5038C16.9089 15.5038 14.5858 19.5473 9.6811 17.9986C9.6811 17.9986 7.46142 17.344 7.55773 15.298C7.55867 15.2799 7.56136 15.262 7.56577 15.2444C7.61628 15.0448 7.98377 13.8896 9.73889 13.811C9.73889 13.811 11.2876 13.6677 11.8319 14.3559L11.8902 14.4708C11.8643 14.4474 11.8351 14.428 11.8036 14.4133V14.4133Z" fill="#5DC5F9"/>
<path d="M18.3004 12.3905C18.3004 12.3905 18.097 13.4942 19.0162 14.6423L18.9167 14.9009C18.9167 14.9009 18.171 15.3025 17.7694 16.6792L17.3106 15.79C17.3106 15.79 17.2531 15.704 17.0811 15.7613L16.7656 15.8761L16.7943 15.7613L17.1384 15.618C17.1384 15.618 17.3392 15.5606 17.4252 15.7326L17.7407 16.3924C17.7407 16.3924 17.9415 15.4172 18.8306 14.7862C18.8306 14.7862 18.0275 13.5242 18.171 12.5778L18.3004 12.3905" fill="#5DC5F9"/>
<path d="M16.2783 16.3348C16.2783 16.3348 16.9953 15.4743 17.0527 15.2162C17.0527 15.2162 16.8519 15.9333 16.5371 16.3348H16.2783Z" fill="#122A44"/>
<path d="M17.0527 13.4095C17.0527 13.4095 17.741 13.0079 18.1144 12.1188L18.3437 12.0615C18.3437 12.0615 18.4008 13.18 17.0527 13.4095V13.4095Z" fill="#5DC5F9"/>
<path d="M18.2286 11.8605C18.2286 11.8605 17.9991 12.8931 17.0527 13.4094C17.0527 13.4094 18.0278 12.9791 18.4581 12.0039L18.2286 11.8605ZM17.3682 14.2126C17.3682 14.2126 18.1159 14.7997 19.1761 14.6209V14.8972C19.1761 14.8972 18.114 14.9296 17.3682 14.2126Z" fill="#122A44"/>
<path opacity="0.63" d="M5.46481 9.85288L6.41123 8.84913H6.35389L5.40748 9.85288H5.46481V9.85288ZM5.23533 9.82421L6.2679 8.82047L6.00976 8.79165L5.00586 9.79555L5.23533 9.82421V9.82421Z" fill="white"/>
<path d="M5.83801 8.90646L6.69843 9.07861V8.99246L5.83801 8.90646V8.90646ZM5.66602 9.70955L6.61243 9.79555L6.58377 9.8817L5.66602 9.70955V9.70955ZM8.33342 8.67699L9.62397 8.8778L9.42332 10.5126L9.53798 10.4553L9.73879 8.82047L8.33342 8.67699ZM9.99693 9.39408L10.8287 9.56607L9.96811 9.50874L9.99693 9.39408V9.39408ZM9.85345 10.2258L10.6852 10.398L9.85345 10.3118V10.2258V10.2258Z" fill="#4F1A00"/>
<path d="M10.1973 9.42274L11.5453 9.62355L12.1477 10.5126L11.6028 9.82421L11.5166 10.6273H11.4593L11.5166 9.70955L10.1973 9.42274V9.42274Z" fill="white"/>
<path d="M11.2871 10.484C11.2871 10.484 11.6601 10.484 11.7461 10.8854C11.7461 10.8854 11.7461 10.4553 11.2871 10.484Z" fill="#4F1A00"/>
<path d="M7.243 8.64832C7.243 8.64832 7.12833 9.8817 7.01367 10.3405C7.01367 10.3405 7.09967 9.04979 7.243 8.64832Z" fill="white"/>
<path d="M8.07552 8.56233L7.12895 8.47618C7.12895 8.47618 6.98547 9.85288 6.87111 10.4266C6.87111 10.4266 6.95711 8.90647 7.07192 8.36152L8.07552 8.56233ZM5.03516 9.76689L5.2073 8.79165L6.61267 8.9638L5.1213 8.70566L5.03516 9.76689V9.76689Z" fill="white"/>
<path opacity="0.63" d="M9.59504 8.39018L9.3369 8.64833L9.10742 8.61966L9.36556 8.36152L9.59504 8.39018Z" fill="white"/>
<defs>
<linearGradient id="paint0_linear_3661_22066" x1="15.7766" y1="5.45827" x2="14.6266" y2="5.0753" gradientUnits="userSpaceOnUse">
<stop offset="0.33" stop-color="#F3F5F7"/>
<stop offset="0.78" stop-color="#8099B9"/>
</linearGradient>
<linearGradient id="paint1_linear_3661_22066" x1="16.8021" y1="5.67512" x2="15.4786" y2="5.60768" gradientUnits="userSpaceOnUse">
<stop offset="0.33" stop-color="#F3F5F7"/>
<stop offset="0.37" stop-color="#E4E9EF"/>
<stop offset="0.48" stop-color="#C0CCDC"/>
<stop offset="0.59" stop-color="#A4B6CC"/>
<stop offset="0.7" stop-color="#90A6C2"/>
<stop offset="0.81" stop-color="#849CBB"/>
<stop offset="0.91" stop-color="#8099B9"/>
</linearGradient>
<linearGradient id="paint2_linear_3661_22066" x1="14.7773" y1="14.2486" x2="17.5596" y2="15.8161" gradientUnits="userSpaceOnUse">
<stop offset="0.12" stop-color="#1797E5"/>
<stop offset="0.14" stop-color="#1693E1"/>
<stop offset="0.33" stop-color="#0A6FBA"/>
<stop offset="0.48" stop-color="#0358A2"/>
<stop offset="0.57" stop-color="#005099"/>
<stop offset="0.71" stop-color="#0663AD"/>
<stop offset="0.99" stop-color="#1694E2"/>
<stop offset="1" stop-color="#1797E5"/>
</linearGradient>
<linearGradient id="paint3_linear_3661_22066" x1="6.07954" y1="7.64882" x2="15.9104" y2="16.7883" gradientUnits="userSpaceOnUse">
<stop offset="0.13" stop-color="#1797E5"/>
<stop offset="0.26" stop-color="#1693E1"/>
<stop offset="0.4" stop-color="#1287D4"/>
<stop offset="0.54" stop-color="#0B73BE"/>
<stop offset="0.69" stop-color="#0257A0"/>
<stop offset="0.72" stop-color="#005099"/>
</linearGradient>
<linearGradient id="paint4_linear_3661_22066" x1="10.8385" y1="14.6758" x2="7.64826" y2="8.00267" gradientUnits="userSpaceOnUse">
<stop offset="0.33" stop-color="#F3F5F7"/>
<stop offset="0.78" stop-color="#8099B9"/>
</linearGradient>
<linearGradient id="paint5_linear_3661_22066" x1="11.9346" y1="10.4802" x2="9.02038" y2="9.84393" gradientUnits="userSpaceOnUse">
<stop offset="0.17" stop-color="#F7AE2D"/>
<stop offset="0.86" stop-color="#B04211"/>
</linearGradient>
<linearGradient id="paint6_linear_3661_22066" x1="4.90375" y1="9.37452" x2="7.07762" y2="9.56456" gradientUnits="userSpaceOnUse">
<stop offset="0.17" stop-color="#F7AE2D"/>
<stop offset="0.86" stop-color="#B04211"/>
</linearGradient>
<linearGradient id="paint7_linear_3661_22066" x1="5.63942" y1="8.59888" x2="7.41259" y2="3.02974" gradientUnits="userSpaceOnUse">
<stop offset="0.26" stop-color="#1797E5"/>
<stop offset="0.4" stop-color="#1694E2"/>
<stop offset="0.51" stop-color="#138BD8"/>
<stop offset="0.61" stop-color="#0E7CC8"/>
<stop offset="0.7" stop-color="#0767B1"/>
<stop offset="0.77" stop-color="#005099"/>
</linearGradient>
<linearGradient id="paint8_linear_3661_22066" x1="10.5259" y1="12.8145" x2="9.18" y2="12.41" gradientUnits="userSpaceOnUse">
<stop offset="0.26" stop-color="#1797E5"/>
<stop offset="0.77" stop-color="#005099"/>
</linearGradient>
<linearGradient id="paint9_linear_3661_22066" x1="12.3934" y1="12.0365" x2="10.5498" y2="12.4658" gradientUnits="userSpaceOnUse">
<stop offset="0.26" stop-color="#1797E5"/>
<stop offset="0.77" stop-color="#005099"/>
</linearGradient>
<radialGradient id="paint10_radial_3661_22066" cx="0" cy="0" r="1" gradientUnits="userSpaceOnUse" gradientTransform="translate(15.3158 14.6365) rotate(6.68) scale(6.13138 4.23065)">
<stop offset="0.26" stop-color="#1797E5"/>
<stop offset="0.77" stop-color="#005099"/>
</radialGradient>
<linearGradient id="paint11_linear_3661_22066" x1="3.62058" y1="2.24713" x2="8.85089" y2="2.77964" gradientUnits="userSpaceOnUse">
<stop offset="0.33" stop-color="#F3F5F7"/>
<stop offset="0.78" stop-color="#8099B9"/>
</linearGradient>
<linearGradient id="paint12_linear_3661_22066" x1="6.28207" y1="3.19885" x2="9.7239" y2="3.19885" gradientUnits="userSpaceOnUse">
<stop offset="0.33" stop-color="#F3F5F7"/>
<stop offset="0.78" stop-color="#8099B9"/>
</linearGradient>
<linearGradient id="paint13_linear_3661_22066" x1="8.2041" y1="3.45699" x2="9.92494" y2="3.45699" gradientUnits="userSpaceOnUse">
<stop offset="0.33" stop-color="#F3F5F7"/>
<stop offset="0.78" stop-color="#8099B9"/>
</linearGradient>
<linearGradient id="paint14_linear_3661_22066" x1="11.3454" y1="1.38838" x2="10.5448" y2="0.141809" gradientUnits="userSpaceOnUse">
<stop offset="0.33" stop-color="#F3F5F7"/>
<stop offset="0.78" stop-color="#8099B9"/>
</linearGradient>
<linearGradient id="paint15_linear_3661_22066" x1="15.2338" y1="2.71323" x2="14.1079" y2="3.30391" gradientUnits="userSpaceOnUse">
<stop offset="0.33" stop-color="#F3F5F7"/>
<stop offset="0.78" stop-color="#8099B9"/>
</linearGradient>
<linearGradient id="paint16_linear_3661_22066" x1="16.5424" y1="11.3777" x2="15.3318" y2="10.5736" gradientUnits="userSpaceOnUse">
<stop offset="0.33" stop-color="#F3F5F7"/>
<stop offset="0.78" stop-color="#8099B9"/>
</linearGradient>
<linearGradient id="paint17_linear_3661_22066" x1="14.1859" y1="10.4563" x2="12.9408" y2="10.0692" gradientUnits="userSpaceOnUse">
<stop offset="0.33" stop-color="#F3F5F7"/>
<stop offset="0.78" stop-color="#8099B9"/>
</linearGradient>
<linearGradient id="paint18_linear_3661_22066" x1="8.73444" y1="10.6563" x2="9.56504" y2="10.5947" gradientUnits="userSpaceOnUse">
<stop offset="0.33" stop-color="#F3F5F7"/>
<stop offset="0.78" stop-color="#8099B9"/>
</linearGradient>
<linearGradient id="paint19_linear_3661_22066" x1="7.8189" y1="10.4845" x2="8.65121" y2="10.5178" gradientUnits="userSpaceOnUse">
<stop offset="0.33" stop-color="#F3F5F7"/>
<stop offset="0.78" stop-color="#8099B9"/>
</linearGradient>
<linearGradient id="paint20_linear_3661_22066" x1="7.33516" y1="7.19267" x2="7.88389" y2="7.90176" gradientUnits="userSpaceOnUse">
<stop offset="0.33" stop-color="#F3F5F7"/>
<stop offset="0.78" stop-color="#8099B9"/>
</linearGradient>
<linearGradient id="paint21_linear_3661_22066" x1="8.23048" y1="7.10433" x2="8.80941" y2="7.85237" gradientUnits="userSpaceOnUse">
<stop offset="0.33" stop-color="#F3F5F7"/>
<stop offset="0.78" stop-color="#8099B9"/>
</linearGradient>
<linearGradient id="paint22_linear_3661_22066" x1="9.29127" y1="7.10277" x2="9.81256" y2="7.77644" gradientUnits="userSpaceOnUse">
<stop offset="0.33" stop-color="#F3F5F7"/>
<stop offset="0.78" stop-color="#8099B9"/>
</linearGradient>
<linearGradient id="paint23_linear_3661_22066" x1="6.86961" y1="10.7256" x2="7.71037" y2="10.7593" gradientUnits="userSpaceOnUse">
<stop offset="0.33" stop-color="#F3F5F7"/>
<stop offset="0.78" stop-color="#8099B9"/>
</linearGradient>
<radialGradient id="paint24_radial_3661_22066" cx="0" cy="0" r="1" gradientUnits="userSpaceOnUse" gradientTransform="translate(4.94827 13.7812) scale(5.70898 3.59666)">
<stop offset="0.17" stop-color="#3FC0E5"/>
<stop offset="0.62" stop-color="#20A1E6"/>
</radialGradient>
<linearGradient id="paint25_linear_3661_22066" x1="13.1803" y1="11.3489" x2="12.3648" y2="10.9337" gradientUnits="userSpaceOnUse">
<stop offset="0.26" stop-color="#1797E5"/>
<stop offset="0.77" stop-color="#005099"/>
</linearGradient>
<linearGradient id="paint26_linear_3661_22066" x1="15.7076" y1="12.0944" x2="14.6684" y2="11.5654" gradientUnits="userSpaceOnUse">
<stop offset="0.26" stop-color="#1797E5"/>
<stop offset="0.77" stop-color="#005099"/>
</linearGradient>
<linearGradient id="paint27_linear_3661_22066" x1="8.98492" y1="12.4182" x2="6.58067" y2="11.4092" gradientUnits="userSpaceOnUse">
<stop offset="0.26" stop-color="#1797E5"/>
<stop offset="0.77" stop-color="#005099"/>
</linearGradient>
<linearGradient id="paint28_linear_3661_22066" x1="9.81717" y1="12.2025" x2="7.16933" y2="11.2222" gradientUnits="userSpaceOnUse">
<stop offset="0.26" stop-color="#1797E5"/>
<stop offset="0.77" stop-color="#005099"/>
</linearGradient>
<linearGradient id="paint29_linear_3661_22066" x1="10.3171" y1="6.54392" x2="11.537" y2="7.37567" gradientUnits="userSpaceOnUse">
<stop offset="0.26" stop-color="#1797E5"/>
<stop offset="0.77" stop-color="#005099"/>
</linearGradient>
</defs>
</svg>
