<svg width="48" height="48" viewBox="0 0 48 48" fill="none" xmlns="http://www.w3.org/2000/svg">
<path fill-rule="evenodd" clip-rule="evenodd" d="M7.25993 1.64224C7.21041 1.76893 5.57872 6.2285 3.63399 11.5522C1.68926 16.876 0.0575595 21.336 0.00804243 21.4632C-0.0772956 21.6827 0.369415 21.6928 8.71845 21.6607L17.5188 21.6269L21.1725 11.6181C23.1819 6.11326 24.8286 1.56493 24.8317 1.51054C24.8347 1.45615 20.9026 1.41177 16.0936 1.41177C7.88851 1.41177 7.34448 1.426 7.25993 1.64224ZM24.4421 17.281L21.0839 26.5611L14.616 26.5633L8.14808 26.5654L4.46011 36.7064L0.772134 46.8474L17.1742 46.814L33.576 46.7805L40.5915 27.4873C44.4502 16.876 47.6101 8.14966 47.6137 8.09527C47.6173 8.04088 43.1609 7.99742 37.7103 7.9986L27.8003 8.00084L24.4421 17.281Z" fill="#66EDA8"/>
</svg>
