<svg width="20" height="20" viewBox="0 0 20 20" fill="none" xmlns="http://www.w3.org/2000/svg">
<g clip-path="url(#clip0_4289_56456)">
<path d="M9.94394 18.2123C14.5103 18.2123 18.2121 14.5105 18.2121 9.94412C18.2121 5.37774 14.5103 1.67596 9.94394 1.67596C5.37756 1.67596 1.67578 5.37774 1.67578 9.94412C1.67578 14.5105 5.37756 18.2123 9.94394 18.2123Z" fill="white"/>
<path d="M12.2015 8.04471C12.0786 7.57543 11.7881 7.27377 11.3076 7.13969C10.9054 7.02796 10.492 6.98325 10.0786 6.96091C9.60933 6.97208 9.12888 7.00561 8.67078 7.13969C8.19034 7.27377 7.89983 7.57543 7.77693 8.04471C7.70989 8.30169 7.68754 8.56985 7.67637 8.82683C7.65402 9.07264 7.65402 9.10616 7.82162 9.10616H12.0451C12.3356 9.10616 12.3356 9.10617 12.3021 8.81567C12.2909 8.56986 12.2574 8.30169 12.2015 8.04471Z" fill="#496DDB"/>
<path d="M12.1228 10.8268H7.9105C7.62 10.8268 7.62 10.8268 7.65351 11.1173C7.66469 11.3743 7.68703 11.6425 7.75407 11.8994C7.87698 12.3687 8.16748 12.6704 8.64793 12.8045C9.05016 12.9162 9.46357 12.9609 9.87698 12.9832C10.3463 12.9721 10.8267 12.9385 11.2848 12.8045C11.7652 12.6704 12.0557 12.3687 12.1787 11.8994C12.2457 11.6425 12.268 11.3743 12.2792 11.1173C12.3016 10.8715 12.3016 10.838 12.1228 10.8268Z" fill="#496DDB"/>
<path d="M9.96648 0C4.46927 0 0 4.46927 0 9.96648C0 15.4637 4.46927 19.933 9.96648 19.933C15.4749 19.933 19.933 15.4637 19.933 9.96648C19.933 4.46927 15.4749 0 9.96648 0ZM14.1676 7.72067C14.2123 8.01117 14.2458 8.30168 14.2793 8.60335V9.11732H15.8212C15.9441 9.11732 16.0559 9.11732 16.1676 9.13966C16.4358 9.18436 16.6034 9.34078 16.6145 9.59776V10.3464C16.6034 10.6034 16.4358 10.7598 16.1676 10.8045C16.0559 10.8268 15.9441 10.8268 15.8212 10.8268H14.257V11.3296C14.2235 11.6313 14.1899 11.9218 14.1453 12.2123C14.1006 12.5028 14.0223 12.7598 13.9218 12.9832H15.8994C16.1341 12.9832 16.3575 13.0056 16.514 13.2291C16.7486 13.5978 16.6257 14.0894 16.257 14.324C16.2123 14.3575 16.1564 14.3911 16.1006 14.4022C15.6872 14.5363 15.2626 14.5587 14.8268 14.581C13.0503 14.6145 11.229 14.6257 10 14.6257C8.54749 14.6257 6.60335 14.6034 5.12849 14.5698C4.69274 14.5587 4.26816 14.5363 3.86592 14.3911C3.79888 14.3799 3.75419 14.3575 3.7095 14.3128C3.34078 14.0782 3.21788 13.5978 3.45251 13.2179C3.59777 12.9944 3.82123 12.9721 4.05587 12.9721H6.01117C5.92179 12.7486 5.84358 12.4916 5.79888 12.2123C5.75419 11.9218 5.72067 11.6313 5.68715 11.3296V10.8156H4.12291C4 10.8156 3.88827 10.8156 3.77654 10.7933C3.50838 10.7486 3.34078 10.5922 3.32961 10.3352V9.58659C3.34078 9.32961 3.50838 9.17318 3.77654 9.12849C3.88827 9.10614 4 9.10614 4.12291 9.10614H5.68715V8.60335C5.72067 8.30168 5.75419 8.01117 5.79888 7.72067C5.84358 7.43017 5.92179 7.17318 6.02235 6.94972H4.04469C3.81006 6.94972 3.58659 6.92737 3.43017 6.70391C3.19553 6.3352 3.31844 5.84358 3.68715 5.60894C3.73184 5.57542 3.78771 5.5419 3.84358 5.53073C4.25698 5.39665 4.68156 5.3743 5.10615 5.35196C6.88268 5.31844 8.70391 5.30726 9.93296 5.30726C11.3855 5.30726 13.3408 5.32961 14.8045 5.36313C15.2402 5.3743 15.6648 5.39665 16.067 5.5419C16.1341 5.55307 16.1788 5.57542 16.2235 5.62011C16.5922 5.85475 16.7151 6.3352 16.4804 6.71508C16.3352 6.93855 16.1117 6.96089 15.8771 6.96089H13.9218C14.0447 7.18436 14.1117 7.43017 14.1676 7.72067Z" fill="#496DDB"/>
</g>
<defs>
<clipPath id="clip0_4289_56456">
<rect width="20" height="20" fill="white"/>
</clipPath>
</defs>
</svg>
