<svg width="20" height="20" viewBox="0 0 20 20" fill="none" xmlns="http://www.w3.org/2000/svg">
<g opacity="0.6" clip-path="url(#clip0_562_2109)">
<path d="M15.8103 13.9878C18.1234 13.9878 19.9985 12.1126 19.9985 9.79954C19.9985 7.48646 18.1234 5.61133 15.8103 5.61133C13.4972 5.61133 11.6221 7.48646 11.6221 9.79954C11.6221 12.1126 13.4972 13.9878 15.8103 13.9878Z" fill="#2B5EBA"/>
<path d="M10.5175 4.03902C11.6328 4.03902 12.5369 3.13485 12.5369 2.01951C12.5369 0.904165 11.6328 0 10.5175 0C9.40218 0 8.49805 0.904165 8.49805 2.01951C8.49805 3.13485 9.40218 4.03902 10.5175 4.03902Z" fill="#2B5EBA"/>
<path d="M10.5175 19.6083C11.6328 19.6083 12.5369 18.7041 12.5369 17.5888C12.5369 16.4735 11.6328 15.5693 10.5175 15.5693C9.40218 15.5693 8.49805 16.4735 8.49805 17.5888C8.49805 18.7041 9.40218 19.6083 10.5175 19.6083Z" fill="#2B5EBA"/>
<path d="M9.59225 12.8234C9.71162 12.8632 9.84095 12.8831 9.97028 12.8831C10.6667 12.8831 11.2337 12.316 11.2337 11.6197C11.2337 10.9233 10.6667 10.3562 9.97028 10.3562C9.52261 10.3562 9.13463 10.585 8.90582 10.9332V10.9432C8.86602 10.9929 8.83618 11.0526 8.81628 11.1123C7.42353 13.5695 4.62807 11.928 4.62807 11.928C4.17045 11.6594 3.64319 11.5003 3.06619 11.5003C1.38494 11.5003 0.0220292 12.8632 0.0220292 14.5444C0.0220292 16.2257 1.38494 17.5886 3.06619 17.5886C4.24009 17.5886 5.26476 16.922 5.76217 15.9471V15.9372C5.8517 15.768 5.92134 15.589 5.98103 15.4C7.43347 12.0673 9.59225 12.8234 9.59225 12.8234ZM8.87597 8.35666C8.93566 8.46609 9.01525 8.57551 9.10478 8.66505C9.60219 9.16246 10.3981 9.16246 10.8855 8.66505C11.3829 8.16764 11.3829 7.37179 10.8855 6.88433C10.5672 6.56599 10.1295 6.45656 9.73152 6.54609H9.72157C9.66188 6.55604 9.59225 6.57593 9.53256 6.60578C6.80674 7.36184 5.99098 4.21822 5.99098 4.21822C5.86165 3.70091 5.59305 3.21345 5.19512 2.81553C4.00133 1.62175 2.08132 1.62175 0.897475 2.80558C-0.286367 3.98941 -0.296315 5.91936 0.897475 7.10319C1.73313 7.93883 2.91697 8.18754 3.97148 7.8493H3.98143C4.1605 7.78961 4.33957 7.71002 4.51864 7.62049C7.89109 6.28744 8.87597 8.35666 8.87597 8.35666Z" fill="#2B5EBA"/>
</g>
<defs>
<clipPath id="clip0_562_2109">
<rect width="20" height="20" fill="white"/>
</clipPath>
</defs>
</svg>
