<svg width="20" height="20" viewBox="0 0 20 20" fill="none" xmlns="http://www.w3.org/2000/svg">
<path fill-rule="evenodd" clip-rule="evenodd" d="M4.9619 3.26285C4.92991 3.11438 4.86138 2.98008 4.8097 2.96446C4.75793 2.94883 4.5638 2.91481 4.37822 2.88892C3.9264 2.82592 3.72495 2.99823 3.57796 3.57361C3.26353 4.80437 3.2676 6.17261 3.58976 7.54362C3.71885 8.09311 3.71942 8.16335 3.59676 8.52035C3.40157 9.08873 3.31587 9.59475 3.20769 10.8177C3.09814 12.0555 3.08617 12.12 2.96563 12.12C2.8625 12.12 2.8406 12.0599 2.71916 11.4421C2.6678 11.1811 2.61034 10.9831 2.59137 11.002C2.57249 11.0209 2.48255 11.381 2.39155 11.8021C2.30055 12.2231 2.1608 12.7014 2.08095 12.8649C1.98702 13.0573 1.97099 13.1487 2.03553 13.1239C2.16373 13.0747 2.26352 13.2311 2.14908 13.3019C2.08933 13.3388 2.09357 13.393 2.16283 13.4764C2.24268 13.5727 2.24211 13.6106 2.15998 13.6614C2.08038 13.7105 2.08592 13.7365 2.18416 13.7742C2.25945 13.8031 2.29176 13.8753 2.26295 13.9503C2.19222 14.1346 2.56932 14.6659 3.32425 15.4459C4.14706 16.2959 5.07113 17.0235 6.01132 17.5614C6.65702 17.9308 7.14889 18.1524 9.05058 18.9304C9.33074 19.045 9.69026 19.2424 9.84955 19.3689C10.021 19.5052 10.1915 19.5789 10.2676 19.5498C10.3407 19.5217 10.4387 19.5587 10.495 19.6357C10.5841 19.7576 10.6242 19.7425 10.8982 19.4842C11.2732 19.1304 11.452 19.0371 12.6144 18.5878C14.6215 17.8121 15.909 17.0015 17.261 15.6626C18.1038 14.8278 18.576 14.2293 18.6369 13.9183C18.6509 13.847 18.6693 13.7703 18.6779 13.7479C18.6865 13.7255 18.6984 13.6523 18.7044 13.5851C18.7105 13.518 18.7693 13.4749 18.8352 13.4894C18.9275 13.5097 18.9216 13.4788 18.8096 13.355C18.6656 13.196 18.7455 13.0303 18.9156 13.1353C18.9585 13.1619 18.9252 13.0267 18.8415 12.8349C18.7579 12.6432 18.5687 12.0513 18.421 11.5197C18.2733 10.9881 18.1449 10.5852 18.1357 10.6244C17.9998 11.2018 17.6463 12.12 17.5599 12.12C17.4703 12.12 17.4603 11.8768 17.5049 10.7896L17.5594 9.45915L17.2896 9.40519C16.9618 9.33966 16.4771 8.98495 16.4771 8.8106C16.4771 8.71537 16.5287 8.69673 16.6843 8.7358C17.0826 8.83575 17.056 8.68175 16.6259 8.39679C15.9812 7.96972 15.8119 7.79903 15.9126 7.67767C15.9749 7.60263 15.953 7.56161 15.8302 7.52262C15.5012 7.41819 15.6822 7.15496 16.0831 7.15496C16.2206 7.15496 16.2053 7.12126 15.9828 6.93397C15.7251 6.71714 15.1748 5.93421 15.1748 5.78436C15.1748 5.74252 15.4146 5.663 15.7078 5.60774C16.1935 5.51609 16.7543 5.53578 17.2707 5.66251C17.3218 5.67508 17.3587 5.68286 17.3853 5.67194C17.4517 5.64463 17.4538 5.50044 17.4538 5.02178C17.4538 4.24194 17.3331 3.48408 17.1535 3.13677C17.0319 2.90178 17.0273 2.90048 16.4622 2.94785C15.9201 2.99334 15.753 3.04671 15.6717 3.27258C15.6574 3.33047 15.6438 3.38158 15.6329 3.41953C15.6055 3.55652 15.3814 3.97822 15.1347 4.35654C14.8882 4.73478 14.6864 5.07843 14.6864 5.12002C14.6864 5.16169 14.6128 5.23519 14.5229 5.2833C14.3831 5.35802 14.3475 5.33987 14.2787 5.15876C14.2343 5.04213 14.198 4.91361 14.198 4.87315C14.198 4.8327 14.1378 4.82277 14.0641 4.85101C13.9845 4.88154 13.8897 4.84678 13.83 4.76514C13.7386 4.6402 13.7254 4.64435 13.6816 4.8117C13.6349 4.99044 13.6251 4.98735 13.3257 4.69596C13.0454 4.42329 12.9875 4.40058 12.6796 4.44241C12.4935 4.46765 12.0955 4.44551 11.795 4.39317C11.1666 4.28378 11.0131 4.32911 11.509 4.47766C11.7775 4.55807 11.8202 4.5943 11.7155 4.6529C11.5445 4.74862 10.0655 4.77239 9.43647 4.68953L8.94811 4.62522L9.15159 4.78948L9.35508 4.95373H9.0295C8.85044 4.95373 8.54423 4.88129 8.34913 4.79273L8.34535 4.79102C8.08637 4.67351 7.97888 4.62474 7.94698 4.65518C7.92434 4.67678 7.93976 4.73826 7.96613 4.84336L7.96666 4.84548C8.00817 5.01071 7.994 5.04921 7.90423 5.01478C7.83048 4.98645 7.79182 5.01982 7.79833 5.10618C7.80484 5.1923 7.76374 5.22803 7.6865 5.20353C7.44223 5.12629 6.89559 5.18253 6.70333 5.30479C6.0464 5.72234 5.06503 5.46464 4.70942 4.78118C4.5809 4.53414 4.45775 3.655 4.55168 3.655C4.58578 3.655 4.76013 3.82137 4.93911 4.0247C5.1181 4.22802 5.41568 4.47001 5.60052 4.56247L5.93652 4.73063L5.59946 4.376C5.22912 3.98628 5.05062 3.6747 4.9619 3.26285ZM5.70237 11.8051C5.74314 11.6892 5.86743 11.5484 5.97862 11.4921C6.25487 11.3524 7.16201 11.3613 7.65835 11.5087C8.17187 11.6612 8.35737 11.857 8.32302 12.2102C8.28371 12.6147 7.92329 12.7919 7.13149 12.7958C6.04211 12.8013 5.48732 12.4166 5.70237 11.8051ZM12.6658 12.5228C12.2635 12.1479 12.5553 11.6464 13.2739 11.4775C13.7815 11.3582 14.6682 11.3739 14.9248 11.5065C15.5359 11.8226 15.2504 12.5839 14.4602 12.745C13.7808 12.8836 12.9415 12.7796 12.6658 12.5228ZM9.76378 15.2725C9.24847 14.5977 9.22935 14.2175 9.69728 13.9548C9.85901 13.864 10.0942 13.8336 10.5098 13.8498C10.9973 13.8689 11.1295 13.9053 11.3034 14.0687C11.6345 14.3797 11.5783 14.6907 11.0783 15.3147C10.9438 15.4826 10.8511 15.6373 10.8724 15.6586C10.8936 15.6799 11.3301 15.8016 11.8423 15.9292C12.7798 16.1626 12.9675 16.2869 12.708 16.5023C12.6289 16.5679 12.4779 16.5746 12.2091 16.5243C11.9362 16.4733 11.701 16.4849 11.4033 16.5642C10.8624 16.7083 10.0123 16.7089 9.53604 16.5655C9.26728 16.4846 9.0528 16.4734 8.77378 16.5255C8.47148 16.582 8.35973 16.5723 8.26905 16.4816C8.05189 16.2644 8.2282 16.1453 9.04971 15.9543C9.49624 15.8506 9.90419 15.7393 9.95628 15.7071C10.021 15.6671 9.96019 15.5298 9.76378 15.2725Z" fill="url(#paint0_radial_2151_2635)"/>
<path d="M4.34043 3.65502C3.78695 4.01315 4.05555 6.08328 4.25904 7.07358C4.51949 6.48754 6.09041 5.3643 6.94505 4.99803C6.30746 4.40113 4.89391 3.29688 4.34043 3.65502Z" fill="white"/>
<path d="M16.5497 3.65502C17.1032 4.01315 16.8346 6.08328 16.6311 7.07358C16.3706 6.48754 14.7997 5.3643 13.9451 4.99803C14.5827 4.40113 15.9962 3.29688 16.5497 3.65502Z" fill="white"/>
<path d="M2.60219 12.8526C2.21149 13.113 2.19521 13.8564 2.23591 14.1956C2.80568 14.9688 4.16497 16.6211 5.04403 17.0444C6.14285 17.5734 7.60795 18.6723 8.82887 18.9164C9.8056 19.1118 10.1583 19.5676 10.2126 19.7711L10.4568 19.6083L10.7009 19.7711C10.7552 19.5676 11.1079 19.1118 12.0846 18.9164C13.3056 18.6723 14.7707 17.5734 15.8695 17.0444C16.7485 16.6211 18.1078 14.9688 18.6776 14.1956C18.7183 13.8564 18.702 13.113 18.3113 12.8526C17.9206 12.5921 17.5516 12.527 17.416 12.527C16.4799 12.4049 14.852 14.0653 13.8753 14.0328C12.6544 13.9921 11.8812 12.8526 10.4568 12.8526C9.03235 12.8526 8.25911 13.9921 7.03819 14.0328C6.06146 14.0653 4.43357 12.4049 3.49754 12.527C3.36187 12.527 2.99288 12.5921 2.60219 12.8526Z" fill="url(#paint1_linear_2151_2635)"/>
<ellipse cx="10.2936" cy="17.578" rx="0.394212" ry="0.244184" transform="rotate(7.20024 10.2936 17.578)" fill="#E6E6E6"/>
<path fill-rule="evenodd" clip-rule="evenodd" d="M15.7548 2.77262C15.7548 2.90099 15.711 3.11264 15.6716 3.27259C15.7529 3.04672 15.92 2.99334 16.4621 2.94786C17.0272 2.90049 17.0318 2.90179 17.1533 3.13678C17.333 3.48408 17.4537 4.24195 17.4537 5.02179C17.4537 5.50045 17.4516 5.64464 17.3852 5.67195C17.3586 5.68287 17.3217 5.67508 17.2706 5.66252C16.7542 5.53579 16.1934 5.51609 15.7077 5.60774C15.4145 5.66301 15.1747 5.74253 15.1747 5.78437C15.1747 5.93422 15.725 6.71715 15.9827 6.93398C16.2052 7.12127 16.2205 7.15497 16.0829 7.15497C15.6821 7.15497 15.501 7.4182 15.8301 7.52263C15.9529 7.56161 15.9748 7.60264 15.9125 7.67768C15.8118 7.79904 15.9811 7.96973 16.6257 8.3968C17.0559 8.68176 17.0825 8.83576 16.6842 8.73581C16.5286 8.69674 16.477 8.71538 16.477 8.81061C16.477 8.98496 16.9617 9.33967 17.2894 9.4052L17.5593 9.45916L17.5047 10.7896C17.4602 11.8768 17.4702 12.12 17.5597 12.12C17.6462 12.12 17.9997 11.2018 18.1355 10.6244C18.1448 10.5853 18.2732 10.9882 18.4209 11.5197C18.5685 12.0513 18.7578 12.6432 18.8414 12.8349C18.9251 13.0267 18.9583 13.1619 18.9155 13.1353C18.7454 13.0303 18.6655 13.196 18.8095 13.355C18.9215 13.4788 18.9274 13.5097 18.8351 13.4894C18.7692 13.4749 18.7103 13.518 18.7043 13.5851C18.6983 13.6523 18.6863 13.7255 18.6778 13.7479C18.6692 13.7703 18.6508 13.847 18.6368 13.9183C18.5759 14.2294 18.1037 14.8278 17.2609 15.6626C15.9089 17.0015 14.6214 17.8121 12.6143 18.5878C11.4518 19.0371 11.2731 19.1304 10.898 19.4842C10.6241 19.7425 10.5839 19.7576 10.4949 19.6357C10.4386 19.5587 10.3406 19.5217 10.2675 19.5498C10.1914 19.5789 10.0208 19.5052 9.84943 19.3689C9.69014 19.2424 9.33062 19.0451 9.05046 18.9304C7.14876 18.1524 6.6569 17.9308 6.0112 17.5614C5.07101 17.0235 4.14694 16.296 3.32412 15.446C2.56919 14.666 2.19209 14.1346 2.26282 13.9503C2.29164 13.8753 2.25932 13.8031 2.18403 13.7742C2.08579 13.7365 2.08026 13.7105 2.15986 13.6614C2.24199 13.6106 2.24256 13.5727 2.16271 13.4765C2.09344 13.393 2.08921 13.3388 2.14895 13.3019C2.26339 13.2311 2.1636 13.0747 2.03541 13.1239C1.97086 13.1487 1.9869 13.0574 2.08083 12.8649C2.16067 12.7014 2.30043 12.2231 2.39143 11.8021C2.48243 11.381 2.57237 11.021 2.59125 11.002C2.61021 10.9831 2.66768 11.1811 2.71904 11.4421C2.84048 12.0599 2.86237 12.12 2.9655 12.12C3.08605 12.12 3.09801 12.0556 3.20757 10.8177C3.31574 9.59476 3.40145 9.08873 3.59663 8.52036C3.71929 8.16336 3.71872 8.09312 3.58963 7.54363C3.26747 6.17262 3.2634 4.80438 3.57783 3.57362C3.72483 2.99824 3.92628 2.82593 4.3781 2.88893C4.56368 2.91481 4.7578 2.94884 4.80957 2.96446C4.86126 2.98009 4.92979 3.11439 4.96178 3.26285C4.94129 3.15943 4.90033 2.90887 4.90033 2.73404L4.51281 2.66363C3.73883 2.52298 3.47015 2.81779 3.25168 4.04741C3.24186 4.10268 3.23265 4.15484 3.22396 4.20409C3.12677 4.75462 3.0938 4.9414 2.9834 5.04797C3.0399 5.15304 3.04488 6.07631 3.0403 6.52481L2.77903 6.90094L2.51783 7.27706V8.70195V10.1269L2.24972 10.6727C2.10223 10.9729 1.89167 11.2892 1.7817 11.3758C1.67174 11.4622 1.5818 11.5552 1.5818 11.5823C1.5818 11.6976 1.87083 11.6179 2.04461 11.4547C2.2651 11.2475 2.26632 11.2572 2.11176 11.9869C1.98275 12.5959 1.66921 13.207 1.41649 13.3423C1.20934 13.4532 1.21072 13.5851 1.41901 13.5851C1.50854 13.5851 1.57268 13.6284 1.56145 13.6814C1.5503 13.7344 1.64187 13.828 1.76493 13.8894C1.88808 13.9507 1.98877 14.0376 1.98877 14.0824C1.98877 14.2836 2.69161 15.1573 3.42505 15.8679C4.77237 17.1731 5.94689 17.9267 7.77973 18.6622C9.1846 19.2259 9.53606 19.4031 9.86033 19.7112C10.0796 19.9196 10.1416 19.9427 10.247 19.8553C10.3517 19.7683 10.3724 19.7743 10.3724 19.892C10.3724 20.005 10.4167 20.0219 10.5962 19.9769C10.7193 19.9461 10.8489 19.8697 10.8841 19.8071C11.0142 19.5761 11.6599 19.2141 12.6102 18.8394C14.895 17.9382 16.2945 17.0439 17.694 15.5908C18.2824 14.9799 18.8444 14.2167 18.798 14.0917C18.7759 14.0319 18.8796 13.9305 19.0426 13.8527C19.1984 13.7785 19.3258 13.6922 19.3258 13.6609C19.3258 13.6296 19.4031 13.5839 19.4976 13.5592C19.6601 13.5167 19.6541 13.4985 19.3856 13.222C18.9993 12.8242 18.6414 11.7621 18.7145 11.2303C18.7427 11.0254 18.7303 10.6994 18.6868 10.5062C18.6479 10.3327 18.6324 10.2454 18.6468 10.2106C18.6585 10.1826 18.6894 10.1884 18.743 10.2106C19.2513 10.4206 19.2771 10.3296 18.8775 9.73623C18.7205 9.50311 18.6289 9.30003 18.674 9.28498C18.8148 9.23809 18.7635 9.02704 18.6114 9.02704C18.4269 9.02704 18.1309 8.82087 18.0213 8.616C17.9382 8.46061 17.9449 8.46078 18.3568 8.62316C18.588 8.71424 18.7992 8.76682 18.8261 8.73988C18.853 8.71294 18.8133 8.58344 18.7379 8.45199C18.6625 8.32062 18.6287 8.21309 18.6628 8.21309C18.697 8.21309 18.796 8.16092 18.8829 8.09711C19.035 7.98535 19.0322 7.9777 18.8052 7.8911L18.5695 7.80116L18.758 7.60044C18.9868 7.35699 18.9238 7.27372 18.5364 7.30709L18.2442 7.33225L18.417 7.06047C18.7684 6.50788 18.7836 6.454 18.6642 6.18198C18.6018 6.03995 18.4707 5.90695 18.3672 5.88082C18.232 5.84664 18.2043 5.80692 18.2647 5.73407C18.3809 5.59399 18.2854 5.52708 17.9692 5.52708H17.6979V5.12011C17.6979 4.8126 17.7277 4.71314 17.82 4.71314C17.8871 4.71314 17.9421 4.6582 17.9421 4.59105C17.9421 4.5239 17.8898 4.46896 17.8259 4.46896C17.6305 4.46896 17.6373 4.19702 17.839 3.94999C18.0675 3.67032 18.0397 3.52511 17.7636 3.55425C17.5915 3.57248 17.5469 3.52698 17.4635 3.24869C17.3159 2.75593 17.091 2.64735 16.3598 2.71589L15.7548 2.77262ZM3.02329 10.4939C3.0097 10.8352 3.00053 11.0659 2.91277 11.1433C2.68667 9.81385 2.41625 7.07358 3.14338 6.748C3.1627 7.00753 3.26407 7.24835 3.35538 7.46527C3.46448 7.72446 3.55923 7.94954 3.48253 8.1317C3.07917 9.08968 3.04539 9.93835 3.02329 10.4939Z" fill="url(#paint2_linear_2151_2635)"/>
<path d="M7.61963 0.0966972C7.43161 0.323299 7.19027 1.01873 7.14315 1.47015C7.1158 1.73175 7.06509 1.94573 7.03058 1.94573C6.99599 1.94573 6.81846 1.77627 6.63622 1.5692L6.3047 1.19259L6.14354 1.38606C6.0549 1.49245 5.94014 1.70765 5.88853 1.86434C5.83685 2.02102 5.76538 2.18104 5.72957 2.22003C5.66413 2.29133 5.49003 1.78327 5.48921 1.51841C5.48897 1.44011 5.43777 1.37597 5.37551 1.37597C5.23933 1.37597 5.01306 1.91171 4.94762 2.38901L4.90033 2.73404C4.90033 2.90887 4.94129 3.15943 4.96178 3.26285C5.0505 3.67471 5.229 3.98629 5.59934 4.376L5.93639 4.73064L5.6004 4.56248C5.41555 4.47001 5.11797 4.22803 4.93899 4.02471C4.76 3.82138 4.58565 3.65501 4.55155 3.65501C4.45762 3.65501 4.58077 4.53415 4.70929 4.78118C5.0649 5.46465 6.04628 5.72235 6.70321 5.30479C6.89546 5.18254 7.44211 5.1263 7.68637 5.20354C7.76361 5.22804 7.80472 5.19231 7.79821 5.10619C7.7917 5.01983 7.83036 4.98646 7.9041 5.01479C7.99388 5.04922 8.00804 5.01072 7.96653 4.84549L7.966 4.84337C7.93964 4.73827 7.92422 4.67679 7.94686 4.65519C7.97876 4.62475 8.08625 4.67352 8.34522 4.79103L8.349 4.79274C8.54411 4.8813 8.85031 4.95374 9.02938 4.95374H9.35496L9.15147 4.78949L8.94798 4.62523L9.43635 4.68953C10.0654 4.77239 11.5444 4.74863 11.7154 4.65291C11.8201 4.5943 11.7774 4.55808 11.5089 4.47767C11.013 4.32912 11.1665 4.28378 11.7949 4.39318C12.0953 4.44551 12.4934 4.46765 12.6794 4.44242C12.9874 4.40058 13.0453 4.42329 13.3255 4.69596C13.625 4.98736 13.6348 4.99045 13.6815 4.81171C13.7253 4.64436 13.7384 4.64021 13.8299 4.76515C13.8896 4.84679 13.9844 4.88154 14.064 4.85102C14.1377 4.82278 14.1979 4.83271 14.1979 4.87316C14.1979 4.91361 14.2342 5.04213 14.2786 5.15877C14.3474 5.33988 14.383 5.35803 14.5228 5.28331C14.6127 5.2352 14.6863 5.1617 14.6863 5.12003C14.6863 5.07844 14.8881 4.73479 15.1346 4.35655C15.3812 3.97823 15.6054 3.55653 15.6328 3.41954C15.644 3.36371 15.6563 3.31509 15.6716 3.27259C15.711 3.11264 15.7548 2.90099 15.7548 2.77262L15.6567 2.44517C15.6028 2.26504 15.4526 1.98912 15.323 1.83186C14.9179 1.34032 13.4654 0.745084 13.4654 1.07058C13.4654 1.13814 13.5766 1.23947 13.7125 1.2958C14.2087 1.50132 14.7518 2.20286 14.8772 2.80037C14.9095 2.95404 14.8394 2.8628 14.6881 2.55407C14.1202 1.39591 13.3998 1.05039 11.5526 1.05039C10.6017 1.05039 9.99895 0.96664 9.45133 0.758514C8.83753 0.525157 8.93952 0.89721 9.57879 1.22352C9.74671 1.30915 9.88402 1.40161 9.88402 1.4288C9.88402 1.50742 8.89964 1.375 8.62208 1.25901C8.27054 1.11209 7.95587 0.70862 7.89035 0.320694C7.83231 -0.0226269 7.76492 -0.078382 7.61963 0.0966972Z" fill="url(#paint3_linear_2151_2635)"/>
<path d="M3.14338 6.748C2.41625 7.07358 2.68667 9.81385 2.91277 11.1433C3.00053 11.0659 3.0097 10.8352 3.02329 10.4939C3.04539 9.93835 3.07917 9.08968 3.48253 8.1317C3.55923 7.94954 3.46448 7.72446 3.35538 7.46527C3.26407 7.24835 3.1627 7.00753 3.14338 6.748Z" fill="url(#paint4_linear_2151_2635)"/>
<path d="M2.66833 5.21534C2.35643 5.3533 2.17264 5.37699 1.64992 5.34671C0.962956 5.30699 0.836632 5.39123 1.19517 5.65007C1.36439 5.77216 1.36594 5.78022 1.21552 5.75637C0.916806 5.709 1.04272 5.96157 1.44025 6.20738C1.7515 6.39979 1.94726 6.45465 2.43408 6.48591L3.0403 6.52481C3.04488 6.07631 3.0399 5.15304 2.9834 5.04797C2.91685 5.1122 2.82217 5.14729 2.66833 5.21534Z" fill="url(#paint5_linear_2151_2635)"/>
<path d="M4.90033 2.73404L4.51281 2.66363C3.73883 2.52298 3.47015 2.81779 3.25168 4.04741C3.16422 4.68561 3.07291 5.80152 3.14338 6.748C3.1627 7.00753 3.26407 7.24835 3.35538 7.46527C3.46448 7.72446 3.55923 7.94954 3.48253 8.1317C3.07917 9.08968 3.04539 9.93835 3.02329 10.4939C3.0097 10.8352 3.00053 11.0659 2.91277 11.1433C2.68667 9.81385 2.41625 7.07358 3.14338 6.748C3.07291 5.80152 3.16422 4.68561 3.25168 4.04741C3.24186 4.10268 3.23265 4.15484 3.22396 4.20409C3.12677 4.75462 3.0938 4.9414 2.9834 5.04797C3.0399 5.15304 3.04488 6.07631 3.0403 6.52481L2.77903 6.90094L2.51783 7.27706V8.70195V10.1269L2.24972 10.6727C2.10223 10.9729 1.89167 11.2892 1.7817 11.3758C1.67174 11.4622 1.5818 11.5552 1.5818 11.5823C1.5818 11.6976 1.87083 11.6179 2.04461 11.4547C2.2651 11.2475 2.26632 11.2572 2.11176 11.9869C1.98275 12.5959 1.66921 13.207 1.41649 13.3423C1.20934 13.4532 1.21072 13.5851 1.41901 13.5851C1.50854 13.5851 1.57268 13.6284 1.56145 13.6814C1.5503 13.7344 1.64187 13.828 1.76493 13.8894C1.88808 13.9507 1.98877 14.0376 1.98877 14.0824C1.98877 14.2836 2.69161 15.1573 3.42505 15.8679C4.77237 17.1731 5.94689 17.9267 7.77973 18.6622C9.1846 19.2259 9.53606 19.4031 9.86033 19.7112C10.0796 19.9196 10.1416 19.9427 10.247 19.8553C10.3517 19.7683 10.3724 19.7743 10.3724 19.892C10.3724 20.005 10.4167 20.0219 10.5962 19.9769C10.7193 19.9461 10.8489 19.8697 10.8841 19.8071C11.0142 19.5761 11.6599 19.2141 12.6102 18.8394C14.895 17.9382 16.2945 17.0439 17.694 15.5908C18.2824 14.9799 18.8444 14.2167 18.798 14.0917C18.7759 14.0319 18.8796 13.9305 19.0426 13.8527C19.1984 13.7785 19.3258 13.6922 19.3258 13.6609C19.3258 13.6296 19.4031 13.5839 19.4976 13.5592C19.6601 13.5167 19.6541 13.4985 19.3856 13.222C18.9993 12.8242 18.6414 11.7621 18.7145 11.2303C18.7427 11.0254 18.7303 10.6994 18.6868 10.5062C18.6479 10.3327 18.6324 10.2454 18.6468 10.2106C18.4067 10.5063 18.3962 11.2066 18.4209 11.5197C18.5685 12.0513 18.7578 12.6432 18.8414 12.8349C18.9251 13.0267 18.9583 13.1619 18.9155 13.1353C18.7454 13.0303 18.6655 13.196 18.8095 13.355C18.9215 13.4788 18.9274 13.5097 18.8351 13.4894C18.7692 13.4749 18.7103 13.518 18.7043 13.5851C18.6983 13.6523 18.6863 13.7255 18.6778 13.7479C18.6692 13.7703 18.6508 13.847 18.6368 13.9183C18.5759 14.2294 18.1037 14.8278 17.2609 15.6626C15.9089 17.0015 14.6214 17.8121 12.6143 18.5878C11.4518 19.0371 11.2731 19.1304 10.898 19.4842C10.6241 19.7425 10.5839 19.7576 10.4949 19.6357C10.4386 19.5587 10.3406 19.5217 10.2675 19.5498C10.1914 19.5789 10.0208 19.5052 9.84943 19.3689C9.69014 19.2424 9.33062 19.0451 9.05046 18.9304C7.14876 18.1524 6.6569 17.9308 6.0112 17.5614C5.07101 17.0235 4.14694 16.296 3.32412 15.446C2.56919 14.666 2.19209 14.1346 2.26282 13.9503C2.29164 13.8753 2.25932 13.8031 2.18403 13.7742C2.08579 13.7365 2.08026 13.7105 2.15986 13.6614C2.24199 13.6106 2.24256 13.5727 2.16271 13.4765C2.09344 13.393 2.08921 13.3388 2.14895 13.3019C2.26339 13.2311 2.1636 13.0747 2.03541 13.1239C1.97086 13.1487 1.9869 13.0574 2.08083 12.8649C2.16067 12.7014 2.30043 12.2231 2.39143 11.8021C2.48243 11.381 2.57237 11.021 2.59125 11.002C2.61021 10.9831 2.66768 11.1811 2.71904 11.4421C2.84048 12.0599 2.86237 12.12 2.9655 12.12C3.08605 12.12 3.09801 12.0556 3.20757 10.8177C3.31574 9.59476 3.40145 9.08873 3.59663 8.52036C3.71929 8.16336 3.71872 8.09312 3.58963 7.54363C3.26747 6.17262 3.2634 4.80438 3.57783 3.57362C3.72483 2.99824 3.92628 2.82593 4.3781 2.88893C4.56368 2.91481 4.7578 2.94884 4.80957 2.96446C4.86126 2.98009 4.92979 3.11439 4.96178 3.26285C4.94129 3.15943 4.90033 2.90887 4.90033 2.73404Z" fill="black"/>
<path d="M17.6979 5.52708V5.12011C17.6979 4.8126 17.7277 4.71314 17.82 4.71314C17.8871 4.71314 17.9421 4.6582 17.9421 4.59105C17.9421 4.5239 17.8898 4.46896 17.8259 4.46896C17.6305 4.46896 17.6373 4.19702 17.839 3.94999C18.0675 3.67032 18.0397 3.52511 17.7636 3.55425C17.5915 3.57248 17.5469 3.52698 17.4635 3.24869C17.3159 2.75593 17.091 2.64735 16.3598 2.71589L15.7548 2.77262C15.7548 2.90099 15.711 3.11264 15.6716 3.27259C15.7529 3.04672 15.92 2.99334 16.4621 2.94786C17.0272 2.90049 17.0318 2.90179 17.1533 3.13678C17.333 3.48408 17.4537 4.24195 17.4537 5.02179C17.4537 5.50045 17.4516 5.64464 17.3852 5.67195C17.5353 5.67948 17.6562 5.57851 17.6979 5.52708Z" fill="black"/>
<path fill-rule="evenodd" clip-rule="evenodd" d="M5.70224 11.8051C5.74302 11.6892 5.86731 11.5484 5.97849 11.4921C6.25475 11.3524 7.16189 11.3613 7.65823 11.5088C8.17175 11.6612 8.35724 11.857 8.32289 12.2102C8.28358 12.6147 7.92317 12.7919 7.13136 12.7958C6.04198 12.8013 5.4872 12.4166 5.70224 11.8051ZM12.6657 12.5228C12.2634 12.1479 12.5552 11.6464 13.2738 11.4775C13.7814 11.3583 14.6681 11.3739 14.9246 11.5066C15.5358 11.8226 15.2503 12.5839 14.4601 12.7451C13.7806 12.8836 12.9414 12.7796 12.6657 12.5228ZM6.31709 11.6767C6.35388 11.8535 6.49836 11.8643 6.53141 11.6927C6.5485 11.6036 6.50861 11.5503 6.42478 11.5503C6.34656 11.5503 6.30171 11.6029 6.31709 11.6767ZM13.4798 11.6767C13.5166 11.8535 13.6611 11.8643 13.6941 11.6927C13.7112 11.6036 13.6713 11.5503 13.5875 11.5503C13.5093 11.5503 13.4644 11.6029 13.4798 11.6767ZM9.76366 15.2725C9.24835 14.5977 9.22922 14.2176 9.69716 13.9548C9.85889 13.864 10.094 13.8336 10.5097 13.8498C10.9972 13.8689 11.1294 13.9053 11.3033 14.0687C11.6343 14.3797 11.5782 14.6907 11.0782 15.3148C10.9436 15.4826 10.851 15.6373 10.8722 15.6586C10.8935 15.6799 11.33 15.8017 11.8422 15.9292C12.7797 16.1626 12.9673 16.2869 12.7079 16.5023C12.6288 16.5679 12.4778 16.5746 12.209 16.5244C11.9361 16.4733 11.7009 16.485 11.4032 16.5642C10.8622 16.7083 10.0122 16.7089 9.53591 16.5655C9.26715 16.4846 9.05268 16.4734 8.77366 16.5255C8.47136 16.582 8.3596 16.5723 8.26893 16.4816C8.05177 16.2644 8.22807 16.1453 9.04958 15.9543C9.49611 15.8506 9.90406 15.7393 9.95615 15.7072C10.0209 15.6671 9.96006 15.5298 9.76366 15.2725ZM10.0468 14.4805C10.2539 14.4805 10.344 14.2761 10.2087 14.1131C10.0795 13.9574 9.89201 13.9579 9.83211 14.1142C9.75902 14.3046 9.86214 14.4805 10.0468 14.4805ZM9.77057 16.3747C9.84432 16.4485 10.9338 16.4424 11.1196 16.3672C11.2196 16.3267 11.1533 16.2773 10.8733 16.1834C10.5237 16.0662 10.4563 16.0663 10.1009 16.1853C9.88664 16.257 9.73802 16.3422 9.77057 16.3747Z" fill="black"/>
<path d="M7.43013 9.80029C6.6813 9.80029 6.03286 10.2615 5.80225 10.4921C5.93248 10.3619 6.48053 10.5464 6.73828 10.6549C6.9689 10.8313 7.53595 11.1921 7.9592 11.2247C8.48826 11.2654 8.77314 10.7363 8.77314 10.4921C8.77314 10.248 8.36617 9.80029 7.43013 9.80029Z" fill="white"/>
<path d="M13.0363 9.30178C13.7674 9.13966 14.5003 9.44956 14.7754 9.62478C14.6201 9.52584 14.1249 9.82461 13.8968 9.98636C13.7098 10.2085 13.2344 10.6835 12.8282 10.8069C12.3205 10.9612 11.9278 10.5064 11.875 10.268C11.8221 10.0296 12.1225 9.50444 13.0363 9.30178Z" fill="white"/>
<defs>
<radialGradient id="paint0_radial_2151_2635" cx="0" cy="0" r="1" gradientUnits="userSpaceOnUse" gradientTransform="translate(10.4654 11.2931) rotate(90) scale(8.41643 8.46886)">
<stop stop-color="#FBEFC2"/>
<stop offset="1" stop-color="#F9B263"/>
</radialGradient>
<linearGradient id="paint1_linear_2151_2635" x1="2.54628" y1="14.8467" x2="18.6624" y2="14.4398" gradientUnits="userSpaceOnUse">
<stop stop-color="#E6E6E6"/>
<stop offset="0.329027" stop-color="white"/>
<stop offset="0.483956" stop-color="white"/>
<stop offset="0.631335" stop-color="white"/>
<stop offset="1" stop-color="#E6E6E6"/>
</linearGradient>
<linearGradient id="paint2_linear_2151_2635" x1="10.3031" y1="0" x2="10.279" y2="11.9572" gradientUnits="userSpaceOnUse">
<stop stop-color="#877C6A"/>
<stop offset="0.387911" stop-color="#544840"/>
<stop offset="1" stop-color="#634F21"/>
</linearGradient>
<linearGradient id="paint3_linear_2151_2635" x1="10.3031" y1="0" x2="10.279" y2="11.9572" gradientUnits="userSpaceOnUse">
<stop stop-color="#877C6A"/>
<stop offset="0.387911" stop-color="#544840"/>
<stop offset="1" stop-color="#634F21"/>
</linearGradient>
<linearGradient id="paint4_linear_2151_2635" x1="10.3031" y1="0" x2="10.279" y2="11.9572" gradientUnits="userSpaceOnUse">
<stop stop-color="#877C6A"/>
<stop offset="0.387911" stop-color="#544840"/>
<stop offset="1" stop-color="#634F21"/>
</linearGradient>
<linearGradient id="paint5_linear_2151_2635" x1="10.3031" y1="0" x2="10.279" y2="11.9572" gradientUnits="userSpaceOnUse">
<stop stop-color="#877C6A"/>
<stop offset="0.387911" stop-color="#544840"/>
<stop offset="1" stop-color="#634F21"/>
</linearGradient>
</defs>
</svg>
