<svg width="20" height="20" viewBox="0 0 20 20" fill="none" xmlns="http://www.w3.org/2000/svg">
<g clip-path="url(#clip0_5646_44693)">
<ellipse cx="10.0004" cy="10" rx="10.0454" ry="10" fill="#E8E2C0"/>
<ellipse cx="10.0005" cy="10.0227" rx="9.63719" ry="9.61451" fill="#0C0C0C"/>
<path d="M13.5125 5.775C13.9125 6 14.25 6.2125 14.25 6.25C14.25 6.4125 7.60005 10.1375 7.42505 10.075C7.27505 10.025 7.25005 9.825 7.27505 9.1625L7.31255 8.325L9.87505 6.85C11.275 6.0375 12.5125 5.375 12.6 5.375C12.6875 5.375 13.1 5.5625 13.5125 5.775Z" fill="#F1F1EF"/>
<path d="M15.3625 8.7125C15.3375 10.1 15.45 9.975 12.7 11.5625C11.325 12.35 10.1375 13 10.05 13C9.81255 13 8.50005 12.2125 8.50005 12.0625C8.50005 11.95 15.05 8.0375 15.2875 8.0125C15.3375 8 15.3625 8.325 15.3625 8.7125Z" fill="#F1F1EF"/>
<path d="M14.725 5.0125C15.4375 5.4125 15.4875 5.575 14.9625 5.875C14.65 6.05 14.575 6.0375 13.925 5.6875C12.9875 5.175 12.9 5.0625 13.3375 4.825C13.825 4.5625 13.975 4.575 14.725 5.0125Z" fill="#F1F1EF"/>
<path d="M16.6 8.3375C16.6375 9.1875 16.625 9.2375 16.2875 9.4625C15.6 9.9375 15.625 9.9625 15.625 8.85C15.625 7.85 15.6375 7.8 15.975 7.6C16.1625 7.475 16.375 7.4 16.4375 7.425C16.5125 7.4375 16.575 7.85 16.6 8.3375Z" fill="#F1F1EF"/>
<path d="M10.9125 2.8375C11.375 3.1 11.75 3.3375 11.75 3.375C11.75 3.4125 10.2875 4.275 8.5 5.3125L5.25 7.1875L5.275 9.925L5.3125 12.675L7.65 14.025L9.9875 15.375L13.15 13.55C14.8875 12.5375 16.35 11.7 16.4125 11.6625C16.4625 11.6375 16.5 12.0875 16.5 12.6625V13.725L13.2375 15.6125L9.9875 17.5L7.15 15.8625C5.5875 14.9625 4.1 14.0875 3.8375 13.925L3.375 13.625L3.4 9.8625L3.4375 6.1L6.625 4.25C8.375 3.225 9.875 2.3875 9.95 2.3875C10.025 2.375 10.4625 2.5875 10.9125 2.8375Z" fill="url(#paint0_linear_5646_44693)"/>
</g>
<defs>
<linearGradient id="paint0_linear_5646_44693" x1="3.356" y1="14.1497" x2="15.2381" y2="4.0136" gradientUnits="userSpaceOnUse">
<stop stop-color="#D5A050"/>
<stop offset="0.334468" stop-color="#C8893D"/>
<stop offset="0.636121" stop-color="#F7D372"/>
<stop offset="0.907738" stop-color="#D6A94E"/>
</linearGradient>
<clipPath id="clip0_5646_44693">
<rect width="20" height="20" fill="white"/>
</clipPath>
</defs>
</svg>
