<svg width="20" height="20" viewBox="0 0 20 20" fill="none" xmlns="http://www.w3.org/2000/svg">
<circle cx="10" cy="10" r="10" fill="black"/>
<path d="M11.9088 6.50533H14.0862V4.94619H6.31742V6.20963H8.57548C7.87656 7.09672 6.57132 9.25674 6.61312 10.8333C6.6794 13.3333 8.10953 14.6594 8.76366 15.5913H6.31742V16.8548H14.0862V15.2956H11.9088C10.5647 15.1075 8.06474 13.7365 8.06474 10.8333C8.06474 7.93006 10.6902 6.64869 11.9088 6.50533Z" fill="#CB954F"/>
<path d="M5.77979 17.2043H14.0862V16.8548H6.31742V15.5913H8.76366C8.10953 14.6594 6.6794 13.3333 6.61312 10.8333C6.57132 9.25674 7.87656 7.09672 8.57548 6.20963H6.31742V4.94619H14.0862V4.67737H5.77979V6.50533H7.90344C7.28516 7.15049 6.15613 9.11285 6.15613 10.8333C6.15613 12.5537 7.12387 14.758 8.01097 15.2956H5.77979V17.2043Z" fill="#CB954F"/>
<path d="M11.5594 11.8279H14.0862V10.215H11.5594V11.8279Z" fill="#CB954F"/>
<path d="M5.77979 17.2043H14.0862V16.8548H6.31742V15.5913H8.76366C8.10953 14.6594 6.6794 13.3333 6.61312 10.8333C6.57132 9.25674 7.87656 7.09672 8.57548 6.20963H6.31742V4.94619H14.0862V4.67737H5.77979V6.50533H7.90344C7.28516 7.15049 6.15613 9.11285 6.15613 10.8333C6.15613 12.5537 7.12387 14.758 8.01097 15.2956H5.77979V17.2043Z" fill="#7D4C14"/>
<path d="M14.0862 9.94619H11.1024V11.8279H11.5594V10.215H14.0862V9.94619Z" fill="#7D4C14"/>
</svg>
