<svg width="20" height="20" viewBox="0 0 20 20" fill="none" xmlns="http://www.w3.org/2000/svg">
<rect width="20" height="20" fill="#313131"/>
<path fill-rule="evenodd" clip-rule="evenodd" d="M15.4551 6.73227C15.3749 6.52544 15.2719 6.32812 15.1451 6.14237C15.1114 6.0931 15.0764 6.04511 15.0401 5.9984C13.6118 4.16003 10.1514 4.29672 7.19043 6.34424C4.15427 8.44378 2.7931 11.7574 4.15016 13.7455C5.00471 14.9974 6.73335 15.4251 8.6545 15.046C9.78422 14.823 10.9805 14.3211 12.1048 13.5436C14.8573 11.6402 16.2331 8.73904 15.4551 6.73227ZM6.94385 11.8694C7.02798 9.27259 10.2249 6.81695 12.3843 8.00243C12.3843 10.0065 9.27146 13.3371 6.94385 11.8694Z" fill="url(#paint0_linear_3732_22250)"/>
<path fill-rule="evenodd" clip-rule="evenodd" d="M12.8899 13.5436C15.6424 11.6402 17.0183 8.73904 16.2403 6.73227C15.927 7.56334 15.6217 8.30242 15.3208 8.96211C13.4802 12.9972 11.8017 14.0624 9.43966 15.046C10.5694 14.823 11.7657 14.3211 12.8899 13.5436Z" fill="url(#paint1_linear_3732_22250)"/>
<path d="M15.9302 6.14235C15.8966 6.09308 15.8616 6.04509 15.8253 5.99837C15.6643 5.91586 15.4957 5.84545 15.3208 5.78656C15.7856 6.90421 15.5144 8.36926 15.3208 8.96208C15.6217 8.30239 15.927 7.56332 16.2402 6.73225C16.1601 6.52542 16.057 6.3281 15.9302 6.14235Z" fill="#DD8DDC"/>
<path d="M7.72924 11.8694C7.81337 9.27259 11.0103 6.81695 13.1697 8.00243C15.6095 12.2928 7.42076 15.7928 4.93555 13.7455C5.7901 14.9974 7.51873 15.4251 9.43989 15.046C11.802 14.0624 13.4804 12.9972 15.3211 8.96211C15.5147 8.36929 15.7858 6.90423 15.3211 5.78659C11.726 4.57635 5.45615 8.23569 7.72924 11.8694Z" fill="url(#paint2_linear_3732_22250)"/>
<path d="M15.8256 5.9984C14.3972 4.16003 10.9368 4.29672 7.97585 6.34424C7.72044 6.52086 7.47688 6.70607 7.2458 6.89836C5.71548 8.17179 4.55363 12.4621 4.93558 13.7455C7.42079 15.7928 15.6095 12.2928 13.1697 8.00243C13.1697 10.0065 10.0569 13.3371 7.72927 11.8694C5.45618 8.23569 11.7261 4.57634 15.3211 5.78658C15.496 5.84547 15.6646 5.91589 15.8256 5.9984Z" fill="url(#paint3_linear_3732_22250)"/>
<path d="M4.93531 13.7455C3.69241 11.9247 4.72965 8.99192 7.24554 6.89838C5.71522 8.17181 4.55336 12.4621 4.93531 13.7455Z" fill="#56ACE8"/>
<defs>
<linearGradient id="paint0_linear_3732_22250" x1="3.79625" y1="10.7968" x2="12.5258" y2="8.39843" gradientUnits="userSpaceOnUse">
<stop stop-color="#313E58"/>
<stop offset="1" stop-color="#4F3859"/>
</linearGradient>
<linearGradient id="paint1_linear_3732_22250" x1="16.3316" y1="6.90163" x2="9.66184" y2="15.0165" gradientUnits="userSpaceOnUse">
<stop stop-color="#DB7ACE"/>
<stop offset="0.468493" stop-color="#AF45E8"/>
<stop offset="1" stop-color="#464FE0"/>
</linearGradient>
<linearGradient id="paint2_linear_3732_22250" x1="15.3223" y1="5.85728" x2="4.89532" y2="13.949" gradientUnits="userSpaceOnUse">
<stop stop-color="#D16ED4"/>
<stop offset="1" stop-color="#3A6ED3"/>
</linearGradient>
<linearGradient id="paint3_linear_3732_22250" x1="16.8367" y1="4.70001" x2="4.83463" y2="13.6294" gradientUnits="userSpaceOnUse">
<stop offset="0.223166" stop-color="#3772D6"/>
<stop offset="1" stop-color="#57B3E8"/>
</linearGradient>
</defs>
</svg>
