<svg width="20" height="20" viewBox="0 0 20 20" fill="none" xmlns="http://www.w3.org/2000/svg">
<g clip-path="url(#clip0_4059_53835)">
<rect width="20" height="20" fill="black"/>
<path d="M16.7071 7.20787C15.9584 6.47285 14.9523 6.06122 13.9045 6.06122C12.8567 6.06122 11.8507 6.47285 11.102 7.20787L10.5078 7.80222L11.06 8.35453L11.6547 7.76018C12.2549 7.16811 13.0632 6.83631 13.9052 6.83631C14.7472 6.83631 15.5555 7.16811 16.1558 7.76018C16.4506 8.05654 16.6842 8.40822 16.8435 8.79514C17.0027 9.18206 17.0843 9.59664 17.0838 10.0152C17.0832 10.4338 17.0005 10.8481 16.8402 11.2346C16.68 11.6211 16.4454 11.9722 16.1498 12.2678C15.8543 12.5634 15.5036 12.7977 15.1177 12.9573C14.7319 13.117 14.3184 13.1989 13.901 13.1983C13.058 13.1972 12.25 12.8603 11.6547 12.2618L11.06 11.6674L10.5078 12.2193L11.1024 12.8136C11.8511 13.5486 12.8572 13.9603 13.905 13.9603C14.9528 13.9603 15.9588 13.5486 16.7075 12.8136C17.0765 12.4475 17.3682 12.0106 17.5651 11.529C17.7621 11.0474 17.8603 10.531 17.8539 10.0105C17.8602 9.49007 17.7619 8.9737 17.5648 8.49219C17.3678 8.01068 17.0761 7.57388 16.7071 7.20787V7.20787Z" fill="#22ACE6"/>
<path d="M11.0579 10.5628L12.7565 8.86382C12.9822 8.63966 13.269 8.48747 13.5808 8.42645C13.8925 8.36542 14.2154 8.39828 14.5086 8.52089C14.8018 8.6435 15.0522 8.85037 15.2284 9.11544C15.4046 9.38052 15.4986 9.69194 15.4986 10.0105C15.4986 10.329 15.4046 10.6405 15.2284 10.9055C15.0522 11.1706 14.8018 11.3775 14.5086 11.5001C14.2154 11.6227 13.8925 11.6556 13.5808 11.5945C13.269 11.5335 12.9822 11.3813 12.7565 11.1572L12.1618 10.5628L11.6096 11.1151L12.2042 11.7095C12.5404 12.0517 12.9705 12.286 13.4398 12.3824C13.9091 12.4788 14.3964 12.433 14.8397 12.2509C15.283 12.0687 15.6622 11.7585 15.9291 11.3595C16.196 10.9606 16.3386 10.4911 16.3386 10.0107C16.3386 9.53035 16.196 9.06083 15.9291 8.66192C15.6622 8.263 15.283 7.95274 14.8397 7.7706C14.3964 7.58845 13.9091 7.54268 13.4398 7.63908C12.9705 7.73549 12.5404 7.96973 12.2042 8.31199L11.9493 8.56665L10.5481 10.0105L8.89188 11.6669L8.72226 11.837L8.38254 12.1767L8.29773 12.2618C7.69744 12.8538 6.88916 13.1856 6.04716 13.1856C5.20516 13.1856 4.39689 12.8538 3.7966 12.2618C3.50055 11.9669 3.26561 11.6162 3.10528 11.23C2.94495 10.8437 2.86241 10.4294 2.86241 10.011C2.86241 9.59256 2.94495 9.17828 3.10528 8.79198C3.26561 8.40569 3.50055 8.05502 3.7966 7.76016C4.08175 7.46103 4.42508 7.22375 4.80535 7.06301C5.18561 6.90226 5.59473 6.82147 6.00738 6.82562C6.85132 6.82593 7.66066 7.16204 8.25771 7.76016L9.40407 8.90682L7.23856 11.0726L7.15375 11.1576C6.84689 11.4571 6.43556 11.6246 6.00738 11.6244C5.7387 11.6249 5.47503 11.5516 5.24504 11.4123L7.5797 9.07643L8.04664 8.60917L7.70692 8.31199C7.61709 8.21679 7.51742 8.13142 7.40961 8.05733C7.00231 7.75859 6.51198 7.5952 6.00738 7.59007C5.69053 7.59105 5.37705 7.65541 5.08531 7.77937C4.79357 7.90333 4.52941 8.0844 4.30832 8.31199C4.08011 8.5318 3.89854 8.79557 3.77451 9.08748C3.65049 9.37939 3.58655 9.69343 3.58655 10.0107C3.58655 10.328 3.65049 10.6421 3.77451 10.934C3.89854 11.2259 4.08011 11.4897 4.30832 11.7095C4.52868 11.9379 4.79262 12.1196 5.08443 12.2436C5.37624 12.3677 5.68995 12.4316 6.0069 12.4316C6.32385 12.4316 6.63757 12.3677 6.92937 12.2436C7.22118 12.1196 7.48512 11.9379 7.70549 11.7095L8.80945 10.6053L9.44648 9.96845L9.9987 9.41613L10.508 8.90635L10.5504 8.86382L8.85186 7.16532C8.10316 6.43031 7.09708 6.01868 6.04931 6.01868C5.00153 6.01868 3.99546 6.43031 3.24676 7.16532C2.87778 7.53144 2.58611 7.96833 2.38915 8.44992C2.1922 8.93152 2.09399 9.44796 2.10039 9.96845C2.10713 11.0162 2.51794 12.0207 3.24676 12.7716C3.99546 13.5066 5.00153 13.9182 6.04931 13.9182C7.09708 13.9182 8.10316 13.5066 8.85186 12.7716L9.44648 12.1772L11.0579 10.5628ZM4.39313 10.011C4.39088 9.79799 4.43114 9.58672 4.51153 9.38958C4.59192 9.19244 4.71082 9.01341 4.86123 8.86303C5.01164 8.71265 5.19052 8.59396 5.38736 8.51393C5.58419 8.4339 5.795 8.39416 6.00738 8.39703C6.30922 8.39629 6.60457 8.48488 6.85643 8.65169L4.64803 10.86C4.4813 10.6084 4.3926 10.313 4.39313 10.011V10.011Z" fill="#22ACE6"/>
</g>
<defs>
<clipPath id="clip0_4059_53835">
<rect width="20" height="20" fill="white"/>
</clipPath>
</defs>
</svg>
