<svg width="20" height="20" viewBox="0 0 20 20" fill="none" xmlns="http://www.w3.org/2000/svg">
<path d="M9.99921 0L16.0788 10.0461L10.0217 7.45733L9.99921 0Z" fill="#E68F7B"/>
<path d="M3.93622 10.0461L9.9991 0L10.0216 7.45733L3.93622 10.0461Z" fill="#F8EC7C"/>
<path d="M9.9991 13.75L3.93622 10.0458L10.0216 7.457L9.9991 13.75Z" fill="#6EB87D"/>
<path d="M16.0788 10.0458L10.0217 7.457L9.99921 13.75L16.0788 10.0458Z" fill="#946BA7"/>
<path d="M9.99921 15.0254L16.0788 11.4215L9.99921 19.9878V15.0254Z" fill="#697CB9"/>
<path d="M9.9991 15.0254L3.93622 11.4215L9.9991 19.9878V15.0254Z" fill="#4FADD0"/>
<circle cx="15" cy="15" r="5" fill="#131419"/>
<path fill-rule="evenodd" clip-rule="evenodd" d="M13.4096 14.3483L15 12.7579L16.5903 14.3483L17.5148 13.4238L15 10.909L12.4852 13.4238L13.4096 14.3483ZM11.8327 14.0782L10.9093 15.0016L11.8327 15.925L12.7561 15.0016L11.8327 14.0782ZM15 17.2445L13.4096 15.6541L12.4852 16.5786L15 19.0934L17.5148 16.5786L16.5903 15.6541L15 17.2445ZM18.1675 14.0783L17.2441 15.0017L18.1675 15.9251L19.0909 15.0017L18.1675 14.0783ZM15.0005 14.0638L15.9379 15.0012L15.0005 15.9386L14.0631 15.0012L14.2247 14.8331L14.3087 14.7555L15.0005 14.0638Z" fill="#F0B90B"/>
</svg>
