<svg width="20" height="20" viewBox="0 0 20 20" fill="none" xmlns="http://www.w3.org/2000/svg">
<path d="M9.99921 0L16.0788 10.0461L10.0217 7.45733L9.99921 0Z" fill="#E68F7B"/>
<path d="M3.93622 10.0461L9.9991 0L10.0216 7.45733L3.93622 10.0461Z" fill="#F8EC7C"/>
<path d="M9.9991 13.75L3.93622 10.0458L10.0216 7.457L9.9991 13.75Z" fill="#6EB87D"/>
<path d="M16.0788 10.0458L10.0217 7.457L9.99921 13.75L16.0788 10.0458Z" fill="#946BA7"/>
<path d="M9.99921 15.0254L16.0788 11.4215L9.99921 19.9878V15.0254Z" fill="#697CB9"/>
<path d="M9.9991 15.0254L3.93622 11.4215L9.9991 19.9878V15.0254Z" fill="#4FADD0"/>
<circle cx="15" cy="15" r="5" fill="#FE0420"/>
<path fill-rule="evenodd" clip-rule="evenodd" d="M13.5611 13.6475C13.4621 13.6733 13.3323 13.7191 13.2728 13.7493C13.1155 13.8291 12.8905 14.0648 12.7984 14.2462C12.6539 14.5308 12.4807 15.3003 12.5018 15.5639C12.5244 15.8476 12.6758 16.0647 12.9367 16.1874C13.1229 16.2749 13.2534 16.2993 13.5408 16.3C14.1198 16.3014 14.4866 16.0937 14.7112 15.6374C14.8703 15.3142 15.0331 14.5822 15.0004 14.3371C14.9522 13.976 14.6835 13.7078 14.2873 13.6255C14.0889 13.5843 13.7661 13.594 13.5611 13.6475ZM14.2752 14.5613C14.2894 14.3503 14.26 14.2648 14.1507 14.1985C14.002 14.1084 13.7196 14.1458 13.5609 14.2769C13.4956 14.3307 13.4049 14.5077 13.3638 14.6614C13.2832 14.963 13.2252 15.2835 13.2252 15.427C13.2252 15.5533 13.2353 15.5853 13.2969 15.6539C13.3594 15.7235 13.3884 15.7352 13.5208 15.7447C13.7821 15.7635 13.9558 15.6705 14.0669 15.4524C14.1397 15.3096 14.2593 14.7979 14.2752 14.5613Z" fill="white"/>
<path fill-rule="evenodd" clip-rule="evenodd" d="M15.6681 13.6685C15.6312 13.6996 15.5959 13.8166 15.5306 14.1233C15.4823 14.3505 15.3623 14.9117 15.2639 15.3705C15.1241 16.0227 15.0915 16.2125 15.1146 16.2402C15.1548 16.2884 15.6864 16.2907 15.7521 16.243C15.7839 16.2199 15.8218 16.0944 15.8826 15.8113C15.9297 15.5918 15.9732 15.3992 15.9792 15.3834C15.9867 15.3638 16.1293 15.3514 16.4261 15.3444C16.9121 15.333 17.0488 15.3009 17.2636 15.1476C17.4986 14.9797 17.6608 14.6401 17.6631 14.311C17.6651 14.0316 17.5501 13.8619 17.2732 13.736C17.0829 13.6495 16.821 13.6219 16.2144 13.6245C15.7885 13.6263 15.7106 13.6326 15.6681 13.6685ZM16.9427 14.4381C16.9553 14.3163 16.9502 14.2963 16.8917 14.2381C16.8289 14.1757 16.8157 14.1734 16.5261 14.1734H16.2257L16.2094 14.238C16.1834 14.341 16.0944 14.7773 16.0944 14.8018C16.0944 14.8141 16.2138 14.8241 16.3597 14.8241C16.5743 14.8241 16.6436 14.8146 16.7225 14.7746C16.8566 14.7066 16.9258 14.6008 16.9427 14.4381Z" fill="white"/>
</svg>
