<svg width="20" height="20" viewBox="0 0 20 20" fill="none" xmlns="http://www.w3.org/2000/svg">
<path d="M4 10.08L10.05 0V7.53L4 10.08Z" fill="url(#paint0_linear_4141_54307)"/>
<path d="M16.0898 10.08L10.0498 0V7.53L16.0898 10.08Z" fill="url(#paint1_linear_4141_54307)"/>
<path d="M10.05 7.5L4 10.05L10.05 13.58V7.5Z" fill="url(#paint2_linear_4141_54307)"/>
<path d="M10.0498 7.5L16.0998 10.05L10.0498 13.58V7.5Z" fill="url(#paint3_linear_4141_54307)"/>
<path d="M4 11.23L10.05 20V14.76L4 11.23Z" fill="url(#paint4_linear_4141_54307)"/>
<path d="M16.0898 11.23L10.0498 20V14.76L16.0898 11.23Z" fill="url(#paint5_linear_4141_54307)"/>
<path d="M6.79004 5.54999L7.12004 11.56" stroke="#B0B4E9" stroke-width="0.1985"/>
<path d="M13.1503 5.54999L12.8203 11.56" stroke="#B0B4E9" stroke-width="0.1985"/>
<path d="M10.0601 7.53998L7.12012 11.5" stroke="#B0B4E9" stroke-width="0.1985"/>
<path d="M9.94043 7.53998L12.8804 11.5" stroke="#B0B4E9" stroke-width="0.1985"/>
<path d="M6.79957 6.35C7.20957 6.35 7.53957 6.02 7.53957 5.61C7.53957 5.2 7.20957 4.87 6.79957 4.87C6.38957 4.87 6.05957 5.2 6.05957 5.61C6.05957 6.01 6.38957 6.35 6.79957 6.35Z" fill="url(#paint6_linear_4141_54307)"/>
<path d="M7.31965 5.32002C7.27965 5.36002 7.17965 5.33002 7.09965 5.26002C7.00965 5.18002 6.96965 5.08002 7.00965 5.04002C7.04965 5.00002 7.14965 5.02002 7.23965 5.10002C7.32965 5.18002 7.35965 5.28002 7.31965 5.32002Z" fill="url(#paint7_radial_4141_54307)"/>
<path d="M7.1201 12.25C7.5301 12.25 7.8601 11.92 7.8601 11.51C7.8601 11.1 7.5301 10.77 7.1201 10.77C6.7101 10.77 6.3801 11.1 6.3801 11.51C6.3701 11.91 6.7101 12.25 7.1201 12.25Z" fill="url(#paint8_linear_4141_54307)"/>
<path d="M7.64019 11.22C7.60019 11.26 7.50019 11.24 7.41019 11.16C7.32019 11.08 7.28019 10.98 7.32019 10.94C7.36019 10.9 7.47019 10.92 7.55019 11C7.64019 11.08 7.68019 11.18 7.64019 11.22Z" fill="url(#paint9_radial_4141_54307)"/>
<path d="M13.1697 6.35C13.5797 6.35 13.9097 6.02 13.9097 5.61C13.9097 5.2 13.5797 4.87 13.1697 4.87C12.7597 4.87 12.4297 5.2 12.4297 5.61C12.4297 6.01 12.7597 6.35 13.1697 6.35Z" fill="url(#paint10_linear_4141_54307)"/>
<path d="M13.6898 5.32001C13.6498 5.36001 13.5498 5.33001 13.4698 5.26001C13.3798 5.18001 13.3398 5.08001 13.3798 5.04001C13.4198 4.99001 13.5198 5.02001 13.6098 5.10001C13.6898 5.18001 13.7298 5.28001 13.6898 5.32001Z" fill="url(#paint11_radial_4141_54307)"/>
<path d="M12.8201 12.25C13.2301 12.25 13.5601 11.92 13.5601 11.51C13.5601 11.1 13.2301 10.77 12.8201 10.77C12.4101 10.77 12.0801 11.1 12.0801 11.51C12.0801 11.91 12.4101 12.25 12.8201 12.25Z" fill="url(#paint12_linear_4141_54307)"/>
<path d="M13.3502 11.22C13.3102 11.26 13.2102 11.24 13.1202 11.16C13.0302 11.08 12.9902 10.98 13.0302 10.94C13.0702 10.9 13.1702 10.92 13.2602 11C13.3502 11.08 13.3902 11.18 13.3502 11.22Z" fill="url(#paint13_radial_4141_54307)"/>
<path d="M10.0596 8.29C10.4696 8.29 10.7996 7.96 10.7996 7.55C10.7996 7.14 10.4696 6.81 10.0596 6.81C9.64955 6.81 9.31955 7.14 9.31955 7.55C9.30955 7.95 9.64955 8.29 10.0596 8.29Z" fill="url(#paint14_linear_4141_54307)"/>
<path d="M10.5796 7.26001C10.5396 7.30001 10.4396 7.28001 10.3496 7.20001C10.2596 7.12001 10.2196 7.02001 10.2596 6.98001C10.2996 6.93001 10.3996 6.96001 10.4896 7.04001C10.5796 7.12001 10.6196 7.22001 10.5796 7.26001Z" fill="url(#paint15_radial_4141_54307)"/>
<defs>
<linearGradient id="paint0_linear_4141_54307" x1="3.867" y1="9.9429" x2="11.9286" y2="1.8813" gradientUnits="userSpaceOnUse">
<stop offset="0.3243" stop-color="#AC9CF2"/>
<stop offset="0.326" stop-color="#AC9CF2"/>
<stop offset="0.4645" stop-color="#B1B3EA"/>
<stop offset="0.6134" stop-color="#B4C3E5"/>
<stop offset="0.7803" stop-color="#B6CDE2"/>
<stop offset="1" stop-color="#B7D0E1"/>
</linearGradient>
<linearGradient id="paint1_linear_4141_54307" x1="16.2272" y1="9.9429" x2="8.16571" y2="1.8813" gradientUnits="userSpaceOnUse">
<stop offset="0.3243" stop-color="#B2DBF5"/>
<stop offset="0.4427" stop-color="#C4E3F4"/>
<stop offset="0.5977" stop-color="#D4EAF4"/>
<stop offset="0.7713" stop-color="#DEEFF3"/>
<stop offset="1" stop-color="#E1F0F3"/>
</linearGradient>
<linearGradient id="paint2_linear_4141_54307" x1="6.6604" y1="10.5428" x2="12.7401" y2="10.5428" gradientUnits="userSpaceOnUse">
<stop offset="0.3243" stop-color="#D6CDFB"/>
<stop offset="0.4284" stop-color="#D9D4FA"/>
<stop offset="0.6546" stop-color="#DCDEF9"/>
<stop offset="0.9528" stop-color="#DDE1F9"/>
</linearGradient>
<linearGradient id="paint3_linear_4141_54307" x1="13.4339" y1="10.5428" x2="7.3541" y2="10.5428" gradientUnits="userSpaceOnUse">
<stop offset="0.3243" stop-color="#ECF2F2"/>
<stop offset="0.3653" stop-color="#EEF4F3"/>
<stop offset="0.6187" stop-color="#F8FAF6"/>
<stop offset="0.9528" stop-color="#FBFCF7"/>
</linearGradient>
<linearGradient id="paint4_linear_4141_54307" x1="4" y1="15.617" x2="10.0472" y2="15.617" gradientUnits="userSpaceOnUse">
<stop offset="0.3243" stop-color="#6E89D3"/>
<stop offset="0.3255" stop-color="#6E89D3"/>
<stop offset="0.5001" stop-color="#6A83E3"/>
<stop offset="0.6954" stop-color="#6880ED"/>
<stop offset="0.9528" stop-color="#677FF0"/>
</linearGradient>
<linearGradient id="paint5_linear_4141_54307" x1="16.0943" y1="15.617" x2="10.047" y2="15.617" gradientUnits="userSpaceOnUse">
<stop offset="0.3243" stop-color="#C4C5FC"/>
<stop offset="0.5439" stop-color="#C8CBF8"/>
<stop offset="0.9528" stop-color="#CACEF6"/>
</linearGradient>
<linearGradient id="paint6_linear_4141_54307" x1="6.47867" y1="6.2309" x2="7.16017" y2="4.9082" gradientUnits="userSpaceOnUse">
<stop stop-color="#718BD4"/>
<stop offset="0.0121" stop-color="#758ED5"/>
<stop offset="0.0579" stop-color="#7790D6"/>
<stop offset="0.099" stop-color="#7A92D7"/>
<stop offset="0.2589" stop-color="#889DDD"/>
<stop offset="0.473" stop-color="#9AAAE4"/>
<stop offset="0.695" stop-color="#AEB9EC"/>
<stop offset="1" stop-color="#C6CBF5"/>
</linearGradient>
<radialGradient id="paint7_radial_4141_54307" cx="0" cy="0" r="1" gradientUnits="userSpaceOnUse" gradientTransform="translate(7.0847 5.1199) rotate(42.0001) scale(0.160772)">
<stop stop-color="#DADCF4"/>
<stop offset="0.00819061" stop-color="#DADCF4"/>
<stop offset="0.0579" stop-color="#DADCF4"/>
<stop offset="0.099" stop-color="#DADCF4"/>
<stop offset="0.473" stop-color="#DADCF4"/>
<stop offset="1" stop-color="#DADCF4"/>
</radialGradient>
<linearGradient id="paint8_linear_4141_54307" x1="6.7933" y1="12.1337" x2="7.4748" y2="10.811" gradientUnits="userSpaceOnUse">
<stop stop-color="#718BD4"/>
<stop offset="0.0121" stop-color="#758ED5"/>
<stop offset="0.0579" stop-color="#7790D6"/>
<stop offset="0.099" stop-color="#7A92D7"/>
<stop offset="0.2589" stop-color="#889DDD"/>
<stop offset="0.473" stop-color="#9AAAE4"/>
<stop offset="0.695" stop-color="#AEB9EC"/>
<stop offset="1" stop-color="#C6CBF5"/>
</linearGradient>
<radialGradient id="paint9_radial_4141_54307" cx="0" cy="0" r="1" gradientUnits="userSpaceOnUse" gradientTransform="translate(7.41987 11.0352) rotate(42.0001) scale(0.160772)">
<stop stop-color="#DADCF4"/>
<stop offset="0.00819061" stop-color="#DADCF4"/>
<stop offset="0.0579" stop-color="#DADCF4"/>
<stop offset="0.099" stop-color="#DADCF4"/>
<stop offset="0.473" stop-color="#DADCF4"/>
<stop offset="1" stop-color="#DADCF4"/>
</radialGradient>
<linearGradient id="paint10_linear_4141_54307" x1="12.8485" y1="6.2309" x2="13.5301" y2="4.9082" gradientUnits="userSpaceOnUse">
<stop stop-color="#718BD4"/>
<stop offset="0.0121" stop-color="#758ED5"/>
<stop offset="0.0579" stop-color="#7790D6"/>
<stop offset="0.099" stop-color="#7A92D7"/>
<stop offset="0.2589" stop-color="#889DDD"/>
<stop offset="0.473" stop-color="#9AAAE4"/>
<stop offset="0.695" stop-color="#AEB9EC"/>
<stop offset="1" stop-color="#C6CBF5"/>
</linearGradient>
<radialGradient id="paint11_radial_4141_54307" cx="0" cy="0" r="1" gradientUnits="userSpaceOnUse" gradientTransform="translate(13.4743 5.13449) rotate(42.0002) scale(0.160772)">
<stop stop-color="#DADCF4"/>
<stop offset="0.00819061" stop-color="#DADCF4"/>
<stop offset="0.0579" stop-color="#DADCF4"/>
<stop offset="0.099" stop-color="#DADCF4"/>
<stop offset="0.473" stop-color="#DADCF4"/>
<stop offset="1" stop-color="#DADCF4"/>
</radialGradient>
<linearGradient id="paint12_linear_4141_54307" x1="12.5007" y1="12.1336" x2="13.1822" y2="10.8109" gradientUnits="userSpaceOnUse">
<stop stop-color="#718BD4"/>
<stop offset="0.0121" stop-color="#758ED5"/>
<stop offset="0.0579" stop-color="#7790D6"/>
<stop offset="0.099" stop-color="#7A92D7"/>
<stop offset="0.2589" stop-color="#889DDD"/>
<stop offset="0.473" stop-color="#9AAAE4"/>
<stop offset="0.695" stop-color="#AEB9EC"/>
<stop offset="1" stop-color="#C6CBF5"/>
</linearGradient>
<radialGradient id="paint13_radial_4141_54307" cx="0" cy="0" r="1" gradientUnits="userSpaceOnUse" gradientTransform="translate(13.3005 11.1039) rotate(42.0013) scale(0.160768)">
<stop stop-color="#DADCF4"/>
<stop offset="0.00819061" stop-color="#DADCF4"/>
<stop offset="0.0579" stop-color="#DADCF4"/>
<stop offset="0.099" stop-color="#DADCF4"/>
<stop offset="0.473" stop-color="#DADCF4"/>
<stop offset="1" stop-color="#DADCF4"/>
</radialGradient>
<linearGradient id="paint14_linear_4141_54307" x1="9.73135" y1="8.1729" x2="10.4129" y2="6.8502" gradientUnits="userSpaceOnUse">
<stop stop-color="#718BD4"/>
<stop offset="0.0121" stop-color="#758ED5"/>
<stop offset="0.0579" stop-color="#7790D6"/>
<stop offset="0.099" stop-color="#7A92D7"/>
<stop offset="0.2589" stop-color="#889DDD"/>
<stop offset="0.473" stop-color="#9AAAE4"/>
<stop offset="0.695" stop-color="#AEB9EC"/>
<stop offset="1" stop-color="#C6CBF5"/>
</linearGradient>
<radialGradient id="paint15_radial_4141_54307" cx="0" cy="0" r="1" gradientUnits="userSpaceOnUse" gradientTransform="translate(10.5301 7.14299) rotate(42.0013) scale(0.160768)">
<stop stop-color="#DADCF4"/>
<stop offset="0.00819061" stop-color="#DADCF4"/>
<stop offset="0.0579" stop-color="#DADCF4"/>
<stop offset="0.099" stop-color="#DADCF4"/>
<stop offset="0.473" stop-color="#DADCF4"/>
<stop offset="1" stop-color="#DADCF4"/>
</radialGradient>
</defs>
</svg>
