<svg width="20" height="20" viewBox="0 0 20 20" fill="none" xmlns="http://www.w3.org/2000/svg">
<g clip-path="url(#clip0_4175_54951)">
<path d="M13.761 7.93205L15.393 9.16724L16.425 9.94707L15.2722 10.5331L12.957 11.715L13.7513 12.2624L14.8605 13.0326L13.6593 13.6525L6.29688 17.45C7.52107 18.1236 8.89569 18.4769 10.293 18.4769C14.8703 18.4769 18.5809 14.7666 18.5809 10.189C18.5852 8.24816 17.9042 6.36811 16.658 4.88025L13.761 7.93205Z" fill="#091B26"/>
<path d="M6.4862 12.6479L4.85422 11.4079L3.82223 10.628L4.97502 10.042L7.29027 8.8599L6.49588 8.3079L5.38669 7.53759L6.58796 6.9176L14.3427 2.91669C13.0293 2.09266 11.5093 1.65768 9.9588 1.66214C5.38149 1.66214 1.6709 5.37242 1.6709 9.95004C1.6709 12.0764 2.47497 14.0188 3.79247 15.4865L6.4862 12.6479Z" fill="#091B26"/>
<path d="M3.16292 15.902C1.70014 14.2987 0.80887 12.1675 0.80887 9.83276C0.80887 4.85826 4.85826 0.80887 9.83276 0.80887C11.6685 0.80887 13.4558 1.3659 14.9623 2.41685L15.7664 2.0003C14.1198 0.745911 12.0609 0 9.83276 0C4.41267 0 0 4.41267 0 9.83276C0 12.3999 0.988148 14.7346 2.60109 16.4878L3.16292 15.9017V15.902Z" fill="#091B26"/>
<path d="M17.0352 4.25917C18.377 5.83339 19.1907 7.87745 19.1907 10.1007C19.1907 15.0752 15.1413 19.1246 10.1668 19.1246C8.48126 19.1246 6.82952 18.6548 5.40546 17.7635L4.57715 18.1897C6.21921 19.328 8.17119 19.9337 10.1668 19.9337C15.5869 19.9337 19.9996 15.521 19.9996 10.1009C19.9996 7.64497 19.0939 5.39284 17.5972 3.66846L17.0353 4.25941L17.0352 4.25917Z" fill="#091B26"/>
<path d="M5.39893 10.8045L7.75299 12.587L2.43457 18.1912L13.0084 12.7372L11.1 11.4149L14.6214 9.61303L12.2673 7.83049L17.5857 2.2312L7.01196 7.68522L8.92033 9.00784L5.39893 10.8045Z" fill="#23BEE2"/>
</g>
<defs>
<clipPath id="clip0_4175_54951">
<rect width="20" height="20" fill="white"/>
</clipPath>
</defs>
</svg>
