<svg width="20" height="20" viewBox="0 0 20 20" fill="none" xmlns="http://www.w3.org/2000/svg">
<path fill-rule="evenodd" clip-rule="evenodd" d="M3.66206 1.38646L0.0153586 9.04636C0.00148187 9.07486 -0.00291558 9.10704 0.00280934 9.13821C0.00853427 9.16938 0.0240812 9.1979 0.0471767 9.2196L9.89604 18.6572C9.92402 18.684 9.96128 18.699 10 18.699C10.0388 18.699 10.0761 18.684 10.104 18.6572L19.9529 9.22019C19.976 9.19849 19.9915 9.16997 19.9973 9.1388C20.003 9.10763 19.9986 9.07545 19.9847 9.04695L16.338 1.38705C16.3263 1.36132 16.3073 1.33953 16.2835 1.32428C16.2597 1.30902 16.232 1.30095 16.2037 1.30102H3.79758C3.76916 1.30067 3.74124 1.30855 3.71719 1.32371C3.69314 1.33887 3.674 1.36066 3.66206 1.38646Z" fill="#50AF95"/>
<path fill-rule="evenodd" clip-rule="evenodd" d="M11.2653 9.83298C11.1946 9.83828 10.8293 9.86008 10.0144 9.86008C9.36621 9.86008 8.90603 9.84064 8.74458 9.83298C6.2398 9.72279 4.37019 9.28677 4.37019 8.76471C4.37019 8.24266 6.2398 7.80723 8.74458 7.69527V9.39872C8.90838 9.4105 9.37741 9.4382 10.0256 9.4382C10.8033 9.4382 11.1928 9.40579 11.2629 9.39931V7.69645C13.7624 7.80782 15.6279 8.24384 15.6279 8.76471C15.6279 9.28559 13.763 9.72161 11.2629 9.83239L11.2653 9.83298ZM11.2653 7.52028V5.99596H14.7535V3.67147H5.25638V5.99596H8.74399V7.51969C5.90924 7.6499 3.77744 8.21143 3.77744 8.88433C3.77744 9.55722 5.90924 10.1182 8.74399 10.249V15.1336H11.2647V10.2472C14.093 10.117 16.2212 9.55604 16.2212 8.88374C16.2212 8.21143 14.0947 7.65049 11.2647 7.51969L11.2653 7.52028Z" fill="white"/>
</svg>
