<svg width="20" height="20" viewBox="0 0 20 20" fill="none" xmlns="http://www.w3.org/2000/svg">
<path d="M10 20C15.5228 20 20 15.5228 20 10C20 4.47715 15.5228 0 10 0C4.47715 0 0 4.47715 0 10C0 15.5228 4.47715 20 10 20Z" fill="white"/>
<path d="M10.5313 7.25818L6.30029 12.6815L9.99277 17.4509C10.0312 17.4894 10.1082 17.5279 10.1466 17.5279C10.2235 17.5279 10.262 17.4894 10.3005 17.4509L17.9547 7.56588C17.9931 7.52742 17.9931 7.48896 17.9931 7.45049C17.9931 7.33511 17.9162 7.25818 17.8008 7.25818H10.5313Z" fill="url(#paint0_linear)"/>
<path d="M10.5313 7.25818L6.30029 12.6815L9.99277 17.4509C10.0312 17.4894 10.1082 17.5279 10.1466 17.5279C10.2235 17.5279 10.262 17.4894 10.3005 17.4509L17.9547 7.56588C17.9931 7.52742 17.9931 7.48896 17.9931 7.45049C17.9931 7.33511 17.9162 7.25818 17.8008 7.25818H10.5313Z" fill="url(#paint1_linear)"/>
<path d="M6.6869 5.45596L3.68677 9.30229L6.30227 12.6871L11.6487 5.76367C11.8025 5.64828 11.6871 5.45596 11.5333 5.45596H6.6869Z" fill="url(#paint2_linear)"/>
<path d="M6.6869 5.45596L3.68677 9.30229L6.30227 12.6871L11.6487 5.76367C11.8025 5.64828 11.6871 5.45596 11.5333 5.45596H6.6869Z" fill="url(#paint3_linear)"/>
<path d="M4.30918 4.52948C4.23225 4.52948 4.19379 4.56794 4.15532 4.60641C3.30913 5.72184 2.27063 7.10652 2.27063 7.14498C2.23216 7.26037 2.23216 7.37576 2.30909 7.49115L3.73223 9.33739L7.19392 4.87565C7.30931 4.76026 7.19392 4.56794 7.04007 4.56794H4.30918V4.52948Z" fill="url(#paint4_linear)"/>
<path d="M4.30918 4.52948C4.23225 4.52948 4.19379 4.56794 4.15532 4.60641C3.30913 5.72184 2.27063 7.10652 2.27063 7.14498C2.23216 7.26037 2.23216 7.37576 2.30909 7.49115L3.73223 9.33739L7.19392 4.87565C7.30931 4.76026 7.19392 4.56794 7.04007 4.56794H4.30918V4.52948Z" fill="url(#paint5_linear)"/>
<defs>
<linearGradient id="paint0_linear" x1="15.5116" y1="7.27368" x2="7.67661" y2="17.4429" gradientUnits="userSpaceOnUse">
<stop stop-color="#EF0054"/>
<stop offset="1" stop-color="#C30570"/>
</linearGradient>
<linearGradient id="paint1_linear" x1="15.5116" y1="7.27368" x2="7.67661" y2="17.4429" gradientUnits="userSpaceOnUse">
<stop stop-color="#EF0054"/>
<stop offset="1" stop-color="#C30570"/>
</linearGradient>
<linearGradient id="paint2_linear" x1="5.15628" y1="11.3217" x2="8.67374" y2="4.89278" gradientUnits="userSpaceOnUse">
<stop stop-color="#ED0E67"/>
<stop offset="1" stop-color="#FF3185"/>
</linearGradient>
<linearGradient id="paint3_linear" x1="5.15628" y1="11.3217" x2="8.67374" y2="4.89278" gradientUnits="userSpaceOnUse">
<stop stop-color="#ED0E67"/>
<stop offset="1" stop-color="#FF3185"/>
</linearGradient>
<linearGradient id="paint4_linear" x1="5.90301" y1="4.1493" x2="2.61853" y2="9.77934" gradientUnits="userSpaceOnUse">
<stop stop-color="#FF8711"/>
<stop offset="1" stop-color="#ED0E67"/>
</linearGradient>
<linearGradient id="paint5_linear" x1="5.90301" y1="4.1493" x2="2.61853" y2="9.77934" gradientUnits="userSpaceOnUse">
<stop stop-color="#FF8711"/>
<stop offset="1" stop-color="#ED0E67"/>
</linearGradient>
</defs>
</svg>
