<svg width="20" height="20" viewBox="0 0 20 20" fill="none" xmlns="http://www.w3.org/2000/svg">
<g clip-path="url(#clip0_5013_67521)">
<path d="M9.99198 0C4.47474 0 0 4.47474 0 9.99198C0 15.5092 4.47474 19.984 9.99198 19.984C15.5092 19.984 19.984 15.5092 19.984 9.99198C20 4.47474 15.5253 0 9.99198 0ZM9.5429 14.9158C8.9976 15.3007 8.34002 15.5253 7.68244 15.5253C6.52767 15.5253 5.46913 14.8998 4.6672 13.745C3.94547 12.6383 3.54451 11.3553 3.51243 10.0401C3.51243 9.99198 3.54451 9.94387 3.59262 9.92783L4.37851 9.57498C4.44266 9.5429 4.50682 9.57498 4.53889 9.63913C4.53889 9.65517 4.55493 9.67121 4.55493 9.68725C4.55493 11.0024 4.90778 12.2374 5.53328 13.1516C6.1267 14.0176 6.89655 14.4828 7.69848 14.4828C8.13152 14.4828 8.56456 14.3545 8.9174 14.1139C8.96552 14.0818 9.04571 14.0978 9.07779 14.1459C9.23817 14.3545 9.39856 14.5469 9.57498 14.7394C9.59102 14.7875 9.59102 14.8677 9.5429 14.9158ZM15.3328 13.745C14.5469 14.8837 13.4723 15.5253 12.3176 15.5253C11.1628 15.5253 10.1043 14.8837 9.30233 13.745C8.54852 12.6544 8.13152 11.2109 8.13152 9.68725C8.13152 8.27586 8.94948 7.16921 9.97594 7.16921C11.0024 7.16921 11.8204 8.27586 11.8204 9.68725C11.8364 10.9222 11.5477 12.1251 10.9703 13.2157C10.9383 13.2799 10.8581 13.2959 10.8099 13.2638C10.7939 13.2638 10.7939 13.2478 10.7779 13.2318C10.6816 13.1195 10.5854 13.0072 10.5052 12.8949C10.409 12.7506 10.3288 12.6223 10.2486 12.4619C10.2326 12.4298 10.2326 12.3817 10.2486 12.3496C10.6175 11.4996 10.7939 10.5854 10.7939 9.67121C10.7939 8.98156 10.4411 8.19567 9.97594 8.19567C9.51083 8.19567 9.15798 8.98156 9.15798 9.67121C9.15798 10.9864 9.51083 12.2213 10.1363 13.1355C10.7298 14.0016 11.4996 14.4667 12.3015 14.4667C13.1034 14.4667 13.8733 13.9856 14.4667 13.1355C15.0922 12.2213 15.4451 10.9864 15.4451 9.67121C15.4451 8.35605 15.0922 7.12109 14.4667 6.2069C14.2903 5.93424 14.0658 5.69366 13.8252 5.48516C13.7771 5.43705 13.7771 5.35686 13.8091 5.30874C13.8252 5.2927 13.8412 5.27666 13.8573 5.27666L14.6431 4.92382C14.6913 4.90778 14.7394 4.90778 14.7715 4.95589C14.98 5.16439 15.1564 5.38893 15.3168 5.61347C16.0706 6.70409 16.4876 8.14755 16.4876 9.67121C16.4876 11.1949 16.0866 12.6544 15.3328 13.745Z" fill="#A566FF"/>
</g>
<defs>
<clipPath id="clip0_5013_67521">
<rect width="20" height="20" fill="white"/>
</clipPath>
</defs>
</svg>
