<svg width="20" height="20" viewBox="0 0 20 20" fill="none" xmlns="http://www.w3.org/2000/svg">
<circle cx="9.8374" cy="10.1626" r="9.8374" fill="#F1552C"/>
<circle cx="9.83786" cy="10.813" r="8.69919" fill="#2D2D2D"/>
<path d="M15.4048 12.5213C15.3837 12.4296 15.3608 12.3266 15.337 12.2165C15.3189 12.1329 15.3003 12.0451 15.2817 11.9551C15.2561 11.8314 15.2308 11.716 15.2053 11.608L15.2024 11.5956C15.2076 11.6332 15.2151 11.6771 15.2243 11.7255C15.256 11.8918 15.308 12.1111 15.3556 12.3121C15.373 12.3854 15.3898 12.4563 15.4048 12.5213Z" fill="#1B1B1C"/>
<path fill-rule="evenodd" clip-rule="evenodd" d="M5.76545 1.06202C5.76751 0.815491 5.8176 0.475614 5.87681 0.306845C5.93602 0.138075 6.00895 0 6.03885 0C6.06884 0 6.32823 0.220803 6.61535 0.490815C7.12549 0.970327 7.14372 0.978317 7.41339 0.839657C8.62649 0.216126 11.0482 0.216126 12.2613 0.839657C12.5309 0.978317 12.5492 0.970327 13.0593 0.490815C13.3464 0.220803 13.6058 0 13.6358 0C13.7447 0 13.9056 0.6247 13.9092 1.06202L13.9129 1.51035L14.404 0.987087C14.6739 0.699243 14.9125 0.481363 14.9342 0.502898C14.9558 0.524335 15.0041 0.944407 15.0414 1.43639L15.1094 2.33081L15.5367 2.08185L15.9641 1.83288V2.22333C15.9641 2.43809 15.8979 2.95746 15.817 3.37753C15.7362 3.7976 15.67 4.15405 15.67 4.16973C15.67 4.18542 15.8613 4.08671 16.0952 3.95049C16.3291 3.81427 16.5538 3.70279 16.5946 3.70279C16.6887 3.70279 16.5681 4.59185 16.3973 5.15682C16.3258 5.3938 16.1334 5.77295 15.9698 5.9993L15.6724 6.411L16.0653 6.5672C16.2814 6.65314 16.5234 6.72349 16.6032 6.72349C16.683 6.72349 16.7481 6.75643 16.7479 6.79657C16.7469 7.00646 16.313 7.52758 15.9434 7.763C15.7121 7.91034 15.5065 8.04169 15.4864 8.05504C15.4663 8.06829 15.6293 8.28188 15.8487 8.52968C16.0681 8.77747 16.3157 9.18497 16.399 9.4352C16.568 9.94307 16.7078 10.8161 16.6202 10.8161C16.589 10.8161 16.4052 10.7232 16.2118 10.6098L15.8601 10.4035L15.9366 10.829C16.0699 11.5707 16.0183 12.9682 15.8353 13.5688C15.7413 13.877 15.6272 14.1291 15.5817 14.1291C15.5362 14.1291 15.3881 13.8769 15.2527 13.5688L15.0066 13.0085L14.9375 13.3983C14.7781 14.2983 14.5493 15.0936 14.2787 15.6881L13.9905 16.3215L13.6907 15.5536L13.3909 14.7855L13.0077 15.5629C12.5635 16.4641 11.7567 17.4793 11.1284 17.9279C10.8871 18.1001 10.5248 18.4791 10.3233 18.77C10.1216 19.0609 9.92114 19.3209 9.87771 19.3476C9.83429 19.3742 9.61304 19.1343 9.38601 18.8144C9.15907 18.4945 8.77863 18.0937 8.54062 17.9238C7.91745 17.479 7.1097 16.4612 6.66691 15.5629L6.28372 14.7855L5.98395 15.5536L5.68418 16.3215L5.39598 15.6881C5.12533 15.0936 4.89653 14.2983 4.73714 13.3983L4.66803 13.0085L4.42198 13.5688C4.2866 13.877 4.13848 14.1291 4.093 14.1291C4.04741 14.1291 3.93331 13.877 3.8394 13.5688C3.65638 12.9682 3.60472 11.5707 3.73804 10.829L3.8146 10.4035L3.46287 10.6098C3.26946 10.7232 3.08566 10.8161 3.05449 10.8161C2.96685 10.8161 3.10664 9.94307 3.27564 9.4352C3.35896 9.18497 3.60658 8.77747 3.82597 8.52968C4.04535 8.28188 4.20837 8.06829 4.18828 8.05504C4.16818 8.04169 3.96252 7.91034 3.73127 7.763C3.36161 7.52758 2.92774 7.00646 2.92676 6.79657C2.92656 6.75643 2.99165 6.72349 3.07145 6.72349C3.15124 6.72349 3.39327 6.65314 3.60933 6.5672L4.00222 6.411L3.7049 5.9993C3.54129 5.77295 3.34887 5.3938 3.27731 5.15682C3.10654 4.59185 2.98597 3.70279 3.08007 3.70279C3.12085 3.70279 3.34553 3.81427 3.57943 3.95049C3.81332 4.08671 4.00467 4.18542 4.00467 4.16973C4.00467 4.15405 3.9385 3.7976 3.85763 3.37753C3.77676 2.95746 3.71059 2.43809 3.71059 2.22333V1.83288L4.13799 2.08185L4.56529 2.33081L4.63323 1.43639C4.67058 0.944407 4.7188 0.524335 4.74047 0.502898C4.76213 0.481363 5.00073 0.699243 5.2707 0.987087L5.76172 1.51035L5.76545 1.06202ZM12.022 1.17164C11.7811 1.06562 11.3674 0.937294 11.1028 0.886234C9.86428 0.647599 8.785 0.723993 7.78639 1.12117C7.45025 1.25486 7.14088 1.36419 7.09892 1.36419C7.05706 1.36419 6.85101 1.22894 6.64103 1.06368C6.43106 0.898415 6.25931 0.78928 6.25931 0.821338C6.02988 1.92439 6.40706 2.16827 6.71418 2.36685C6.77449 2.40585 6.8321 2.4431 6.88189 2.48477C7.00991 2.59195 7.19489 2.80457 7.29282 2.95726C7.4427 3.19083 7.33183 3.1389 6.59555 2.63054C6.11413 2.29807 5.57116 1.88803 5.38902 1.71946L5.05788 1.41291C4.99586 1.92285 4.92355 2.9749 5.13042 3.10352C5.10915 3.12457 4.89133 3.02499 4.64626 2.88223C4.35854 2.71463 4.22428 2.6562 4.21854 2.72837C4.07594 3.04019 4.47584 4.06489 4.69361 4.53826C4.749 4.68316 4.77605 4.81987 4.7537 4.84218C4.73125 4.8644 4.43403 4.76988 4.093 4.63219L3.47307 4.38177C3.67046 5.06646 4.20623 6.44512 4.77017 6.48223C4.74812 6.50415 4.47864 6.63258 4.17132 6.76773C3.81841 6.92285 3.63461 7.02927 3.62789 7.07672C3.62733 7.08066 3.62799 7.08419 3.62987 7.08731C3.69841 7.40582 4.55568 7.74484 4.98034 7.87574L5.26374 8.04705L4.78321 8.26619C4.46344 8.41206 4.20896 8.62244 4.02222 8.89547C3.73784 9.31135 3.47797 9.93528 3.55669 10.0134C3.56706 10.0238 3.60483 10.0124 3.65908 9.98509C4.00917 9.89282 4.54065 9.79763 4.48021 10.0004C4.12887 10.6927 3.95634 11.7508 4.07064 12.5126L4.15965 13.1059C4.21298 12.95 4.79743 12.1315 5.08299 11.7418C4.95746 13.1059 5.43148 14.6488 5.68418 15.2497C5.77304 15.1717 6.20266 14.2752 6.40636 13.8368C6.50268 15.0229 7.82053 16.5879 8.50312 17.2593C8.51532 17.2741 8.52781 17.2864 8.54062 17.2959C8.52835 17.2841 8.51585 17.2719 8.50312 17.2593C8.21723 16.9128 8.09821 15.1806 8.0742 14.324C7.89885 14.4799 7.88716 15.5257 7.90324 16.0292C7.53229 15.9902 6.92446 13.8634 6.66691 12.8048C6.52245 12.8758 6.01908 13.6523 5.78545 14.0316C5.57488 13.8747 5.5475 12.6257 5.52846 11.757C5.51794 11.2773 5.50997 10.9135 5.4751 10.9135C5.39668 10.9135 4.76648 11.4007 4.46119 11.6443C4.5502 11.0006 4.8832 10.3571 5.34726 9.93187L5.78545 9.5304L5.57312 9.3057L5.36089 9.0811L5.66301 9.01513C6.13364 8.91243 6.50036 9.03988 7.00726 9.48256C7.30899 9.74595 7.44427 9.82137 7.38938 9.69547C7.2987 9.48773 7.19401 8.67233 7.25802 8.67233C7.279 8.67233 7.46917 8.76003 7.68072 8.86721C7.89226 8.9744 8.13439 9.0621 8.21879 9.0621C8.45935 9.0621 8.80804 8.77708 8.80804 8.58054C8.80803 8.19642 8.661 7.99024 8.51396 7.99024C8.39633 7.99024 8.26353 8.12484 8.21183 8.19214C7.94039 8.36285 7.45741 8.28812 7.14529 8.02707C6.80503 7.74254 5.72575 5.63175 5.63164 5.06698C5.57645 4.73607 5.5837 4.74104 5.87318 5.23234C5.96524 6.23628 8.51396 7.74663 9.0041 7.81085C9.22244 7.83945 9.84556 7.00351 9.33503 6.67847C9.2621 6.48944 8.68364 6.08993 7.84707 5.65095C7.28292 5.35482 6.25931 4.40817 6.25931 4.1825C6.25931 4.13349 6.52987 4.31005 6.86052 4.5749C7.46094 5.05577 8.89793 5.87507 8.76441 5.6603C8.58581 5.37304 8.05185 3.89768 8.12645 3.89768C8.17262 3.89768 8.46611 4.25256 8.77882 4.68637C9.09143 5.12018 9.46119 5.5425 9.60059 5.62483C9.83125 5.76125 9.87722 5.7595 10.1147 5.60486C10.2582 5.51141 10.6194 5.0891 10.9174 4.6663C11.2154 4.2436 11.4981 3.89768 11.5457 3.89768C11.6221 3.89768 11.0922 5.36759 10.9102 5.6603C10.7767 5.87507 12.2137 5.05577 12.8141 4.5749C13.1448 4.31005 13.4153 4.13349 13.4153 4.1825C13.4153 4.44092 12.3852 5.35619 11.654 5.74742C10.8749 6.16421 10.5284 6.41039 10.4255 6.65802C9.91497 6.98306 10.4689 7.82026 10.6872 7.79165C11.1774 7.72744 13.7261 6.21709 13.8181 5.21314C13.973 4.94518 14.1001 4.7768 14.1007 4.83906C14.1026 5.08686 13.7239 6.13738 13.5387 6.39784C13.4302 6.55014 13.2424 6.90532 13.1211 7.18702C12.7432 8.06449 12.0335 8.49294 11.4618 8.18892C11.4543 8.18492 11.4466 8.18144 11.4388 8.17845C10.7654 7.87718 10.7868 8.34199 10.9003 8.67323C10.9047 8.7003 10.9141 8.72608 10.9291 8.7498C11.1681 9.12836 11.5038 9.11442 12.3723 8.69016C12.4734 8.64076 12.406 9.41893 12.2853 9.69547C12.2304 9.82137 12.3657 9.74595 12.6674 9.48256C13.1743 9.03988 13.541 8.91243 14.0116 9.01513L14.3138 9.0811L14.1003 9.30707L13.8868 9.53294L14.2953 9.8999C14.776 10.3316 14.9957 10.7245 15.2024 11.5956L15.1927 11.5879C14.8839 11.3419 14.2587 10.8648 14.1811 10.8648C14.1462 10.8648 14.1382 11.2285 14.1277 11.7082C14.1087 12.577 14.0813 13.826 13.8707 13.9829C13.6371 13.6035 13.1337 12.8271 12.9893 12.7561C12.7317 13.8147 12.1239 15.9415 11.7529 15.9805C11.769 15.477 11.7573 14.4311 11.582 14.2752C11.558 15.1319 11.439 16.864 11.1531 17.2106C11.8357 16.5391 13.1535 14.9742 13.2498 13.788C13.4535 14.2265 13.8832 15.123 13.972 15.2009C14.2247 14.6 14.6987 13.0572 14.5732 11.693C14.6818 11.8412 14.8361 12.0337 14.9887 12.2239C15.2045 12.4932 15.4168 12.7579 15.4907 12.8863C15.4927 12.8898 15.4946 12.8932 15.4964 12.8964C15.4989 12.9009 15.5011 12.9052 15.5032 12.9093C15.508 12.9237 15.5118 12.9324 15.5143 12.9349C15.6038 13.0239 15.6823 11.9399 15.6202 11.4738C15.5532 10.9714 15.3345 10.2397 15.1518 9.85439C15.2403 9.74696 15.6698 9.85877 15.9689 9.95999C16.0477 10.0047 16.1048 10.0265 16.118 10.0134C16.1967 9.93528 15.9368 9.31135 15.6524 8.89547C15.4667 8.6239 15.2113 8.41206 14.8962 8.26843L14.4206 8.05153C14.8869 7.87156 15.8633 7.42793 16.0388 7.09319C16.0877 7.0575 15.9059 6.9447 15.5033 6.76773C15.196 6.63258 14.9292 6.50678 14.9103 6.48807C15.4418 5.94733 16.4441 4.76904 16.2016 4.38177L15.5817 4.63219C14.92 4.89938 14.8137 4.89607 14.9659 4.61251C14.9681 4.6085 14.9703 4.60409 14.9725 4.59928C15.2358 4.06702 15.6932 2.97457 15.4661 2.75789C15.4577 2.67359 15.317 2.71417 15.0384 2.87649L14.6029 3.13013C14.7686 2.98381 14.6812 1.92435 14.6168 1.41291L14.2856 1.71946C14.1035 1.88803 13.5605 2.29807 13.0791 2.63054C12.3448 3.13753 12.2326 3.19025 12.3831 2.95726C12.4817 2.80457 12.6837 2.57003 12.8318 2.43605C13.5805 2.31912 13.5328 1.31287 13.4153 0.824359C13.4153 0.790741 13.2436 0.898415 13.0336 1.06368L13.0318 1.06507C12.8133 1.23711 12.7012 1.32537 12.5791 1.34225C12.4505 1.36003 12.3108 1.29862 12.024 1.17252L12.022 1.17164ZM8.00205 7.81085C7.79158 7.94356 7.63347 7.90342 7.38222 7.65358C6.99119 7.26498 7.10588 7.17923 7.63445 7.46522C7.9749 7.64939 8.08851 7.75628 8.00205 7.81085ZM12.4019 7.54132C12.2178 7.82059 11.915 7.94035 11.6981 7.81971C11.5773 7.75248 11.6431 7.68135 12.013 7.47915C12.2702 7.33855 12.4984 7.2412 12.5202 7.26274C12.5419 7.28437 12.4887 7.40968 12.4019 7.54132ZM10.1788 8.05348C10.4428 8.2086 10.4476 8.22527 10.3164 8.53757C10.2655 8.65845 10.2218 8.83094 10.1997 8.98426L10.5235 8.57489L10.6216 8.99346C10.6712 9.01253 10.7314 9.05348 10.8118 9.11394C10.9165 9.19257 11.1752 9.25698 11.3868 9.25698C11.6852 9.21691 12.1101 9.01292 12.2853 8.91594C12.2156 9.34468 11.6046 9.97487 11.3078 10.2364L11.0627 11.0597L10.3765 12.8048L9.84468 13.7393L9.31287 12.8048L8.62667 11.0597L8.3816 10.2364C8.08478 9.97487 7.47372 9.34468 7.40408 8.91594C7.57918 9.01289 8.0039 9.2168 8.30235 9.25695C8.54066 9.25514 8.78024 9.18134 8.93194 9.06278L9.10213 8.92973L9.15114 8.57489L9.48129 8.98426C9.44112 8.80541 9.38984 8.62569 9.34582 8.5174C9.23142 8.23638 9.24044 8.20568 9.48129 8.05718C9.80517 7.85733 9.84439 7.85713 10.1788 8.05348ZM8.61199 15.5536L8.98703 16.1266C9.15479 16.825 9.56118 18.2119 9.84468 18.1729C10.1282 18.1339 10.5461 16.695 10.7196 15.9805L11.0137 15.4933C11.1284 16.5651 10.199 18.6601 9.87771 18.6601C9.44522 18.6601 8.61199 16.5651 8.61199 15.5536Z" fill="#1B1B1C"/>
<path d="M12.0225 1.17165C11.7817 1.06563 11.368 0.9373 11.1033 0.886241C9.86485 0.647605 8.78556 0.724 7.78695 1.12117C7.45082 1.25486 7.14144 1.36419 7.09949 1.36419C7.05763 1.36419 6.85157 1.22894 6.6416 1.06368C6.43162 0.898421 6.25988 0.789286 6.25988 0.821344C6.25988 0.853305 6.34751 1.19679 6.45476 1.5847C6.58082 2.04122 6.73169 2.35859 6.88245 2.48478C7.01048 2.59196 7.19546 2.80458 7.29339 2.95727C7.44327 3.19084 7.3324 3.1389 6.59611 2.63055C6.1147 2.29808 5.57172 1.88804 5.38959 1.71947L5.05845 1.41291L5.13001 1.70524C5.20206 1.99951 5.20275 3.03211 5.13099 3.10353C5.10972 3.12458 4.8919 3.02499 4.64683 2.88224C4.35911 2.71464 4.22484 2.65621 4.21911 2.72838C4.21497 2.78041 4.27763 2.90032 4.39774 3.09613C4.51518 3.2877 4.5934 3.58694 4.5934 3.84497C4.5934 4.08136 4.63879 4.39337 4.69418 4.53827C4.74956 4.68316 4.77662 4.81987 4.75427 4.84219C4.73182 4.8644 4.4346 4.76989 4.09356 4.6322L3.47363 4.38177L3.77399 4.70002C3.93917 4.87503 4.15002 5.21305 4.24256 5.4511C4.3351 5.68925 4.50087 6.00964 4.61085 6.16321C4.72084 6.31678 4.79279 6.46031 4.77074 6.48223C4.74868 6.50416 4.4792 6.63259 4.17188 6.76774C3.81898 6.92285 3.63518 7.02927 3.62845 7.07673C3.62902 7.08025 3.62968 7.08378 3.63044 7.08731C3.64605 7.11315 3.74561 7.11073 3.93172 7.07673C4.21629 7.02479 4.27423 7.05519 4.47391 7.36155C4.59693 7.5502 4.82504 7.78162 4.98091 7.87575L5.26431 8.04705L4.78377 8.2662C4.46401 8.41207 4.20953 8.62245 4.02278 8.89548C3.73841 9.31136 3.47853 9.93528 3.55725 10.0134C3.58884 10.0042 3.62327 9.99469 3.65964 9.9851C3.72891 9.95026 3.82503 9.88955 3.92525 9.81523C4.10405 9.68271 4.36069 9.55487 4.49547 9.53119L4.74074 9.48812L4.48077 10.0004C4.12944 10.6927 3.95691 11.7508 4.07121 12.5126L4.16022 13.1059L4.28403 12.57C4.35216 12.2753 4.43215 11.8587 4.46175 11.6443C4.55076 11.0006 4.88376 10.3571 5.34783 9.93187L5.78601 9.53041L5.57368 9.30571L5.36145 9.08111L5.66357 9.01514C6.13421 8.91243 6.50093 9.03989 7.00783 9.48257C7.30956 9.74595 7.44484 9.82137 7.38994 9.69548C7.29927 9.48773 7.19457 8.67234 7.25859 8.67234C7.27956 8.67234 7.46974 8.76003 7.68128 8.86722C7.89283 8.97441 8.13495 9.0621 8.21936 9.0621C8.45992 9.0621 8.8086 8.77709 8.8086 8.58055C8.8086 8.34444 8.39679 8.07609 8.2124 8.19214C7.94096 8.36286 7.45797 8.28812 7.14585 8.02708C6.8056 7.74255 5.72631 5.63176 5.63221 5.06699C5.57702 4.73607 5.58427 4.74104 5.87375 5.23234C6.49201 6.28199 7.84244 7.21071 8.75008 7.21071C9.22355 7.21071 9.45862 6.99702 9.3356 6.67848C9.26267 6.48944 8.6842 6.08993 7.84763 5.65096C7.28348 5.35483 6.25988 4.40818 6.25988 4.18251C6.25988 4.13349 6.53043 4.31006 6.86108 4.5749C7.4615 5.05578 8.89849 5.87507 8.76498 5.66031C8.58637 5.37305 8.05241 3.89768 8.12701 3.89768C8.17318 3.89768 8.46668 4.25257 8.77939 4.68638C9.092 5.12019 9.46176 5.5425 9.60116 5.62484C9.83182 5.76126 9.87779 5.75951 10.1153 5.60487C10.2587 5.51142 10.62 5.08911 10.918 4.6663C11.216 4.2436 11.4987 3.89768 11.5462 3.89768C11.6227 3.89768 11.0927 5.36759 10.9108 5.66031C10.7773 5.87507 12.2143 5.05578 12.8147 4.5749C13.1454 4.31006 13.4159 4.13349 13.4159 4.18251C13.4159 4.44092 12.3857 5.35619 11.6545 5.74742C10.8755 6.16422 10.5289 6.4104 10.4261 6.65803C10.4244 6.66207 10.4228 6.66612 10.4212 6.67016C10.4204 6.67227 10.4196 6.67437 10.4189 6.67648C10.3928 6.74759 10.3864 6.81917 10.3952 6.89529C10.4235 7.14026 10.465 7.16442 10.9033 7.19219C11.8065 7.24929 13.1812 6.31609 13.8187 5.21315C13.9736 4.94518 14.1006 4.7768 14.1012 4.83907C14.1032 5.08686 13.7245 6.13738 13.5392 6.39785C13.4308 6.55015 13.243 6.90533 13.1216 7.18703C12.7437 8.06449 12.0341 8.49295 11.4624 8.18893C11.4546 8.18534 11.447 8.18185 11.4394 8.17846C11.2095 8.09062 10.8616 8.43293 10.9009 8.67324C10.91 8.69977 10.9197 8.72545 10.9296 8.7498C11.1686 9.12836 11.5044 9.11443 12.3729 8.69017C12.474 8.64077 12.4066 9.41894 12.2858 9.69548C12.2309 9.82137 12.3662 9.74595 12.668 9.48257C13.1749 9.03989 13.5416 8.91243 14.0122 9.01514L14.3143 9.08111L14.1008 9.30707L13.8873 9.53294L14.2959 9.89991C14.7766 10.3316 14.9963 10.7245 15.2029 11.5956L15.2059 11.608C15.2314 11.716 15.2567 11.8314 15.2823 11.9551C15.3009 12.0451 15.3195 12.1329 15.3376 12.2165L15.4215 12.5825L15.5149 12.9349C15.6044 13.0239 15.6829 11.9399 15.6208 11.4738C15.5537 10.9714 15.335 10.2397 15.1524 9.8544C15.1052 9.75499 15.0605 9.67865 15.0214 9.63526C14.8935 9.49319 14.9064 9.48237 15.1524 9.52593C15.3026 9.55243 15.5717 9.68271 15.7505 9.81523C15.8298 9.87403 15.9065 9.92431 15.9694 9.96C16.0245 9.97865 16.0752 9.99694 16.1185 10.0134C16.1973 9.93528 15.9374 9.31136 15.653 8.89548C15.4672 8.62391 15.2119 8.41207 14.8968 8.26844L14.4212 8.05153L14.7273 7.84671C14.8956 7.73407 15.1216 7.50284 15.2294 7.3328C15.4012 7.06201 15.4649 7.03064 15.7441 7.07936C15.9144 7.10909 16.0123 7.11297 16.0394 7.0932C16.0883 7.0575 15.9065 6.94471 15.5039 6.76774C15.1966 6.63259 14.9298 6.50679 14.9108 6.48808C14.892 6.46937 14.9864 6.29329 15.1205 6.09675C15.2547 5.90031 15.4165 5.57719 15.4801 5.3789C15.5437 5.18051 15.7322 4.87503 15.899 4.70002L16.2022 4.38177L15.5822 4.6322C14.9205 4.89939 14.8143 4.89607 14.9665 4.61252L14.9731 4.59929C15.0254 4.48615 15.0953 4.15742 15.1319 3.84896C15.17 3.5274 15.2627 3.16716 15.3378 3.04848C15.4284 2.90549 15.4717 2.80886 15.4667 2.75789C15.4583 2.6736 15.3175 2.71418 15.039 2.87649L14.6034 3.13013L14.5387 2.78743C14.4574 2.35644 14.4597 2.07649 14.5479 1.70524L14.6173 1.41291L14.2862 1.71947C14.1041 1.88804 13.5611 2.29808 13.0797 2.63055C12.3453 3.13754 12.2332 3.19025 12.3837 2.95727C12.4823 2.80458 12.6842 2.57004 12.8323 2.43605C13.0224 2.26407 13.1477 2.00039 13.2588 1.539C13.3451 1.17964 13.4159 0.85808 13.4159 0.824365C13.4159 0.790748 13.2442 0.898421 13.0342 1.06368L13.0324 1.06508C12.8139 1.23712 12.7018 1.32537 12.5797 1.34226C12.4511 1.36004 12.3114 1.29863 12.0245 1.17253L12.0225 1.17165Z" fill="#C4C1C0"/>
<path d="M11.387 9.25698H11.7716L11.6007 9.52495C11.5066 9.67238 11.3323 9.90254 11.2133 10.0365C11.0944 10.1705 10.8972 10.6309 10.7754 11.0597C10.6534 11.4884 10.3942 12.1861 10.1993 12.61L9.8449 13.3808L9.56973 12.8048C9.41838 12.4882 9.15635 11.7905 8.98725 11.2545C8.81825 10.7186 8.5822 10.1705 8.4627 10.0365C8.34321 9.90254 8.16852 9.67238 8.07442 9.52495L7.90346 9.25698H8.29361C8.29659 9.25698 8.29958 9.25697 8.30257 9.25695C8.00411 9.2168 7.57939 9.0129 7.4043 8.91594C7.47394 9.34468 8.085 9.97487 8.38182 10.2364L8.62689 11.0597L9.31309 12.8048L9.8449 13.7393L10.3767 12.8048L11.0629 11.0597L11.308 10.2364C11.6048 9.97487 12.2159 9.34468 12.2855 8.91594C12.1103 9.01292 11.6854 9.21692 11.387 9.25698Z" fill="#ED570C"/>
<path d="M9.18056 8.86858L9.38926 9.28203L9.59787 9.69547L9.53327 9.25698C9.52094 9.17348 9.50278 9.07899 9.48151 8.98427L9.15136 8.57489L9.10234 8.92973L9.18056 8.86858Z" fill="#ED570C"/>
<path d="M10.1846 9.18078L10.1885 9.50059L10.3347 9.23262C10.4506 9.02031 10.5086 8.94995 10.6218 8.99346L10.5237 8.57489L10.1999 8.98427C10.1895 9.05649 10.1839 9.12446 10.1846 9.18078Z" fill="#ED570C"/>
<path d="M8.93065 9.42564C8.7442 9.49025 8.78332 9.77829 9.03956 10.2267L9.271 10.6318L9.32433 10.2364C9.40942 9.60581 9.26551 9.30949 8.93065 9.42564Z" fill="#F7970D"/>
<path d="M10.4828 9.48265C10.3691 9.59568 10.3346 10.4495 10.4395 10.5538C10.5131 10.6269 10.9647 9.81872 10.9647 9.6138C10.9647 9.43646 10.6229 9.3434 10.4828 9.48265Z" fill="#F7970D"/>
<path fill-rule="evenodd" clip-rule="evenodd" d="M10.3165 8.53756C10.4477 8.22526 10.4429 8.20859 10.1788 8.05347C10.0542 8.05347 9.8993 8.62844 9.83742 8.91592C9.79821 8.62305 9.58372 8.22139 9.48137 8.05717C9.24052 8.20567 9.2315 8.23637 9.3459 8.51739C9.41324 8.68304 9.49755 9.0158 9.53313 9.25697L9.59773 9.69546L9.38913 9.28201L9.18043 8.86857L8.93202 9.06277C8.77841 9.18282 8.53472 9.25697 8.29347 9.25697H7.90332L8.07428 9.52494C8.16839 9.67237 8.34307 9.90252 8.46257 10.0365C8.58206 10.1705 8.81812 10.7186 8.98712 11.2545C9.15621 11.7905 9.41824 12.4881 9.5696 12.8048L9.84476 13.3808L10.1991 12.6099C10.3941 12.1861 10.6533 11.4884 10.7752 11.0596C10.8971 10.6309 11.0942 10.1705 11.2131 10.0365C11.3321 9.90252 11.5064 9.67237 11.6005 9.52494L11.7715 9.25697H11.3868C11.1753 9.25697 10.9166 9.19256 10.8119 9.11393C10.5481 8.91553 10.5013 8.92723 10.3346 9.23261L10.1883 9.50058L10.1844 9.18077C10.1823 9.00489 10.2417 8.71539 10.3165 8.53756ZM9.03956 10.2267C8.78332 9.77829 8.7442 9.49025 8.93065 9.42564C9.26551 9.30949 9.40942 9.60581 9.32433 10.2364L9.271 10.6318L9.03956 10.2267ZM10.4395 10.5538C10.3346 10.4495 10.3691 9.59568 10.4828 9.48265C10.6229 9.3434 10.9647 9.43646 10.9647 9.6138C10.9647 9.81872 10.5131 10.6269 10.4395 10.5538Z" fill="#F7970D"/>
<path d="M8.93064 9.42563C8.74419 9.49024 8.78331 9.77827 9.03955 10.2267L9.271 10.6318L9.32432 10.2363C9.40941 9.6058 9.26551 9.30948 8.93064 9.42563Z" fill="#1B1B1C"/>
<path d="M10.4828 9.48264C10.3691 9.59567 10.3346 10.4495 10.4395 10.5538C10.5131 10.6269 10.9647 9.81871 10.9647 9.61379C10.9647 9.43645 10.6229 9.34339 10.4828 9.48264Z" fill="#1B1B1C"/>
<path d="M8.00259 7.81086C7.79213 7.94358 7.63401 7.90343 7.38276 7.65359C6.99173 7.26499 7.10642 7.17924 7.63499 7.46523C7.97544 7.6494 8.08905 7.75629 8.00259 7.81086Z" fill="#FCD227"/>
<path d="M12.4025 7.54134C12.2184 7.82061 11.9156 7.94036 11.6986 7.81973C11.5779 7.75249 11.6436 7.68136 12.0135 7.47917C12.2707 7.33856 12.4989 7.24122 12.5207 7.26275C12.5425 7.28438 12.4892 7.40969 12.4025 7.54134Z" fill="#FCD227"/>
<path d="M10.1793 8.05349C9.84493 7.85715 9.80572 7.85734 9.48183 8.05719C9.58418 8.22142 9.79867 8.62308 9.83788 8.91595C9.89976 8.62846 10.0547 8.05349 10.1793 8.05349Z" fill="#FCD227"/>
<path d="M9.83788 10.3289C9.64182 10.54 9.36735 11.2253 9.83788 12.2777C10.3084 11.2253 10.0339 10.54 9.83788 10.3289Z" fill="#FCD227"/>
<path d="M8.61254 15.5535L8.98759 16.1266C9.15535 16.8249 9.56174 18.2118 9.84524 18.1729C10.1287 18.1339 10.5466 16.695 10.7201 15.9804L11.0142 15.4932C11.1289 16.5651 10.1996 18.6601 9.87827 18.6601C9.44578 18.6601 8.61254 16.5651 8.61254 15.5535Z" fill="#7A7A7C"/>
<path d="M4.46174 11.6443C4.43214 11.8586 4.35215 12.2752 4.28402 12.57L4.16021 13.1059C4.21354 12.95 4.79799 12.1315 5.08354 11.7417C4.95802 13.1059 5.43204 14.6487 5.68474 15.2496C5.77359 15.1717 6.20321 14.2752 6.40692 13.8367C6.50324 15.0229 7.82109 16.5878 8.50368 17.2593C8.21779 16.9127 8.09876 15.1806 8.07476 14.3239C7.8994 14.4798 7.88772 15.5257 7.9038 16.0292C7.53285 15.9902 6.92502 13.8633 6.66747 12.8048C6.52301 12.8757 6.01963 13.6522 5.786 14.0316C5.57544 13.8746 5.54806 12.6257 5.52901 11.7569C5.5185 11.2772 5.51052 10.9134 5.47565 10.9134C5.39724 10.9134 4.76704 11.4007 4.46174 11.6443Z" fill="#7A7A7C"/>
<path d="M15.4053 12.5212L15.4215 12.5824L15.3375 12.2164C15.3613 12.3266 15.3843 12.4296 15.4053 12.5212C15.3903 12.4563 15.3735 12.3854 15.3561 12.312C15.3085 12.1111 15.2566 11.8918 15.2249 11.7255L15.1933 11.5879C14.8844 11.3419 14.2592 10.8647 14.1816 10.8647C14.1468 10.8647 14.1388 11.2285 14.1283 11.7082C14.1092 12.577 14.0819 13.8259 13.8713 13.9829C13.6377 13.6035 13.1343 12.827 12.9898 12.7561C12.7323 13.8146 12.1244 15.9415 11.7535 15.9804C11.7696 15.477 11.7579 14.4311 11.5825 14.2752C11.5585 15.1319 11.4395 16.864 11.1536 17.2106C11.8362 16.5391 13.1541 14.9742 13.2504 13.788C13.4541 14.2265 13.8837 15.1229 13.9726 15.2009C14.2253 14.6 14.6993 13.0572 14.5738 11.693C14.6823 11.8412 14.8367 12.0337 14.9892 12.2239C15.2051 12.4931 15.4174 12.7579 15.4913 12.8863L15.461 12.7544C15.4448 12.6902 15.426 12.6111 15.4053 12.5212Z" fill="#7A7A7C"/>
<path d="M4.48077 10.0003L4.74074 9.48806L4.49547 9.53113C4.36069 9.55481 4.10405 9.68266 3.92525 9.81518C3.82503 9.8895 3.72891 9.95021 3.65964 9.98504C4.00974 9.89277 4.54122 9.79758 4.48077 10.0003Z" fill="#7A7A7C"/>
<path d="M9.3356 6.67842C9.45862 6.99696 9.22355 7.21065 8.75008 7.21065C7.84244 7.21065 6.49201 6.28193 5.87375 5.23229C5.9658 6.23623 8.51453 7.74658 9.00466 7.8108C9.22301 7.8394 9.84613 7.00346 9.3356 6.67842Z" fill="#7A7A7C"/>
<path d="M13.8187 5.21309C13.1812 6.31604 11.8065 7.24924 10.9033 7.19214C10.465 7.16437 10.4235 7.1402 10.3952 6.89523C10.3864 6.81912 10.3928 6.74754 10.4189 6.67643C10.4211 6.67027 10.4235 6.66412 10.4261 6.65797C9.91554 6.98301 10.4694 7.82021 10.6878 7.7916C11.1779 7.72739 13.7266 6.21704 13.8187 5.21309Z" fill="#7A7A7C"/>
<path d="M15.7505 9.81518C15.5717 9.68266 15.3026 9.55238 15.1524 9.52587C14.9064 9.48232 14.8935 9.49313 15.0214 9.6352C15.0605 9.67859 15.1052 9.75494 15.1524 9.85434C15.2408 9.74691 15.6703 9.85872 15.9694 9.95994C15.9065 9.92426 15.8298 9.87397 15.7505 9.81518Z" fill="#7A7A7C"/>
<path d="M15.7441 7.0793C15.4649 7.03058 15.4012 7.06196 15.2294 7.33275C15.1216 7.50278 14.8956 7.73401 14.7273 7.84666L14.4212 8.05148C14.8875 7.87151 15.8639 7.42788 16.0394 7.09314C16.0123 7.11291 15.9144 7.10903 15.7441 7.0793Z" fill="#7A7A7C"/>
<path d="M4.98091 7.87569C4.82504 7.78156 4.59693 7.55014 4.47391 7.36149C4.27423 7.05513 4.21629 7.02473 3.93172 7.07667C3.74561 7.11068 3.64605 7.1131 3.63044 7.08726C3.69898 7.40578 4.55624 7.74479 4.98091 7.87569Z" fill="#7A7A7C"/>
<path d="M4.77074 6.48218C4.79279 6.46025 4.72084 6.31672 4.61085 6.16315C4.50087 6.00958 4.3351 5.68919 4.24256 5.45105C4.15002 5.213 3.93917 4.87497 3.77399 4.69996L3.47363 4.38172C3.67103 5.06641 4.2068 6.44507 4.77074 6.48218Z" fill="#7A7A7C"/>
<path d="M16.2022 4.38172L15.899 4.69996C15.7322 4.87497 15.5437 5.18045 15.4801 5.37884C15.4165 5.57714 15.2547 5.90025 15.1205 6.0967C14.9864 6.29324 14.892 6.46931 14.9108 6.48802C15.4423 5.94729 16.4447 4.76899 16.2022 4.38172Z" fill="#7A7A7C"/>
<path d="M4.69418 4.53821C4.63879 4.39331 4.5934 4.08131 4.5934 3.84491C4.5934 3.58689 4.51518 3.28764 4.39774 3.09607C4.27763 2.90026 4.21497 2.78035 4.21911 2.72832C4.0765 3.04014 4.4764 4.06484 4.69418 4.53821Z" fill="#7A7A7C"/>
<path d="M5.13099 3.10348C5.20275 3.03205 5.20206 1.99946 5.13001 1.70518L5.05845 1.41286C4.99643 1.9228 4.92411 2.97485 5.13099 3.10348Z" fill="#7A7A7C"/>
<path d="M6.88245 2.48472C6.73169 2.35853 6.58082 2.04116 6.45476 1.58465C6.34751 1.19673 6.25988 0.85325 6.25988 0.821289C5.98539 2.14096 6.57916 2.23087 6.88245 2.48472Z" fill="#7A7A7C"/>
<path d="M13.4159 0.82431C13.4159 0.858024 13.3451 1.17958 13.2588 1.53895C13.1477 2.00034 13.0224 2.26401 12.8323 2.436C13.581 2.31907 13.5333 1.31282 13.4159 0.82431Z" fill="#7A7A7C"/>
<path d="M14.6173 1.41286L14.5479 1.70518C14.4597 2.07644 14.4574 2.35639 14.5387 2.78737L14.6034 3.13008C14.7692 2.98376 14.6818 1.9243 14.6173 1.41286Z" fill="#7A7A7C"/>
<path d="M15.3378 3.04842C15.2627 3.16711 15.17 3.52735 15.1319 3.84891C15.0953 4.15737 15.0253 4.4861 14.9731 4.59924C15.2363 4.06697 15.6937 2.97452 15.4667 2.75784C15.4717 2.80881 15.4284 2.90544 15.3378 3.04842Z" fill="#7A7A7C"/>
<path d="M10.9009 8.67319C10.8616 8.43288 11.2095 8.09057 11.4394 8.17841C10.766 7.87713 10.7874 8.34195 10.9009 8.67319Z" fill="#7A7A7C"/>
<path d="M8.21238 8.19209C8.39677 8.07604 8.80858 8.34439 8.80858 8.5805C8.80857 8.19638 8.66155 7.99019 8.51451 7.99019C8.39687 7.99019 8.26407 8.12479 8.21238 8.19209Z" fill="#7A7A7C"/>
<path d="M6.30887 9.45182L7.28915 10.1826L6.55394 11.2058L7.48521 10.7186V12.0828L8.22041 11.2545C8.5145 12.6187 9.24971 15.4055 9.83787 15.6394C10.426 15.4055 11.1612 12.6187 11.4553 11.2545L12.1905 12.0828V10.7186L13.1218 11.2058L12.3866 10.1826L13.3669 9.45182L12.9257 10.3288C13.1872 10.6698 13.6708 11.4591 13.5139 11.8879L12.5826 11.2058L12.4356 13.1546L11.7004 12.0828C11.5043 13.6905 10.23 16.4676 9.83787 16.4676C9.44577 16.4676 8.17141 13.6905 7.97535 12.0828L7.24014 13.1546L7.0931 11.2058L6.16183 11.8879C6.00499 11.4591 6.48859 10.6698 6.75 10.3288L6.30887 9.45182Z" fill="#7A7A7C"/>
<path d="M4.20084 9.54931C4.12242 9.00364 4.72366 8.38001 5.03408 8.13641C4.09301 8.37027 3.62901 9.53307 3.51465 10.0852L4.20084 9.54931Z" fill="white"/>
<path d="M6.06337 8.96466L5.52422 9.0621C5.52422 8.82824 5.88365 8.7373 6.06337 8.72106C7.04365 8.76003 7.3214 9.45187 7.33773 9.79292C7.02404 9.36417 6.35746 9.0621 6.06337 8.96466Z" fill="white"/>
<path d="M4.88704 6.47989L3.7107 6.9671C4.25966 7.20096 5.08309 6.86966 5.42619 6.67478L4.88704 6.47989Z" fill="white"/>
<path d="M6.79858 5.35931C7.23971 5.9602 8.30872 7.17554 8.80815 6.82094C9.15125 6.57734 7.53379 5.99268 6.79858 5.35931Z" fill="white"/>
<path d="M3.7107 4.48233C4.08648 4.83962 4.89684 5.51522 5.13211 5.35931C5.36737 5.2034 4.28253 4.7097 3.7107 4.48233Z" fill="white"/>
<path d="M4.69098 3.50791L4.24986 2.67966L5.13211 3.21559L5.42619 4.28745L4.69098 3.50791Z" fill="white"/>
<path d="M5.86732 3.02071C5.4752 2.74787 5.2138 1.86764 5.13211 1.46163L7.38675 3.21559C7.09266 3.18311 6.55351 3.12789 6.74957 3.16687C6.94562 3.20584 7.35407 4.06009 7.53379 4.48233C7.14168 4.10881 6.25943 3.29354 5.86732 3.02071Z" fill="white"/>
<path d="M7.43576 2.09501V2.97198L6.30844 0.779541L7.09266 1.41291L7.43576 2.09501Z" fill="white"/>
<path d="M15.474 9.54931C15.5525 9.00364 14.9512 8.38001 14.6408 8.13641C15.5819 8.37027 16.0459 9.53307 16.1602 10.0852L15.474 9.54931Z" fill="white"/>
<path d="M13.6115 8.96466L14.1507 9.0621C14.1507 8.82824 13.7912 8.7373 13.6115 8.72106C12.6312 8.76003 12.3535 9.45187 12.3372 9.79292C12.6508 9.36417 13.3174 9.0621 13.6115 8.96466Z" fill="white"/>
<path d="M14.7878 6.47989L15.9642 6.9671C15.4152 7.20096 14.5918 6.86966 14.2487 6.67478L14.7878 6.47989Z" fill="white"/>
<path d="M12.8763 5.35931C12.4352 5.9602 11.3662 7.17554 10.8667 6.82094C10.5236 6.57734 12.1411 5.99268 12.8763 5.35931Z" fill="white"/>
<path d="M15.9642 4.48233C15.5884 4.83962 14.778 5.51522 14.5428 5.35931C14.3075 5.2034 15.3924 4.7097 15.9642 4.48233Z" fill="white"/>
<path d="M14.9839 3.50791L15.425 2.67966L14.5428 3.21559L14.2487 4.28745L14.9839 3.50791Z" fill="white"/>
<path d="M13.8076 3.02071C14.1997 2.74787 14.4611 1.86764 14.5428 1.46163L12.2881 3.21559C12.5822 3.18311 13.1214 3.12789 12.9253 3.16687C12.7293 3.20584 12.3208 4.06009 12.1411 4.48233C12.5332 4.10881 13.4155 3.29354 13.8076 3.02071Z" fill="white"/>
<path d="M12.2391 2.09501V2.97198L13.3664 0.779541L12.5822 1.41291L12.2391 2.09501Z" fill="white"/>
<path d="M9.78843 0.779541C8.69052 0.779541 7.72984 1.13683 7.38675 1.31547C7.77886 1.23427 8.80815 1.07187 9.78843 1.07187C10.7687 1.07187 11.896 1.23427 12.3372 1.31547C11.945 1.13683 10.8863 0.779541 9.78843 0.779541Z" fill="white"/>
<path d="M9.73941 3.31303C9.50415 3.27405 9.0859 2.22493 8.90618 1.70524C8.75914 2.07877 8.49446 2.90377 8.61209 3.21559C8.46505 3.02071 8.17097 2.56273 8.17097 2.28989C8.17097 2.72838 8.29841 3.62485 8.80815 3.7028L8.90618 2.5335C9.0859 2.92326 9.50415 3.71254 9.73941 3.75152C9.97468 3.71254 10.3929 2.92326 10.5727 2.5335L10.6707 3.7028C11.1804 3.62485 11.3079 2.72838 11.3079 2.28989C11.3079 2.56273 11.0138 3.02071 10.8667 3.21559C10.9844 2.90377 10.7197 2.07877 10.5727 1.70524C10.3929 2.22493 9.97468 3.27405 9.73941 3.31303Z" fill="white"/>
<path d="M8.31801 3.9464C8.43564 4.06333 9.37998 4.93706 9.83744 5.35931C10.2949 4.93706 11.2392 4.06333 11.3569 3.9464C11.5039 3.80024 10.2786 5.74908 9.83744 5.74908C9.39632 5.74908 8.17097 3.80024 8.31801 3.9464Z" fill="white"/>
</svg>
