<svg width="20" height="20" viewBox="0 0 20 20" fill="none" xmlns="http://www.w3.org/2000/svg">
<rect width="20" height="20" fill="#9CF04B"/>
<path fill-rule="evenodd" clip-rule="evenodd" d="M5.78772 3.86504C5.69672 3.97444 5.63902 4.37874 5.61642 5.06504L5.58232 6.09994H5.10632C4.14692 6.09994 3.44822 6.51504 3.03492 7.33084C2.69942 7.99294 2.67892 8.68684 2.97782 9.26274C3.27092 9.82724 4.03282 10.48 4.48692 10.5557C4.68692 10.589 4.89552 10.6275 4.95052 10.6413C5.00552 10.6551 5.14502 11.2002 5.26052 11.8527L5.47062 13.0392L5.21052 13.5416C4.99442 13.9591 4.95192 14.1712 4.95892 14.7969C4.96892 15.6952 5.13172 16.1212 5.70102 16.7389C6.48342 17.5876 6.54362 17.5999 9.93322 17.5999C12.7874 17.5999 12.9209 17.5913 13.3724 17.3791C14.246 16.9684 14.8377 16.1862 14.9623 15.277C15.041 14.7029 14.8484 13.7984 14.5556 13.3669L14.3228 13.0239L14.5489 11.908C14.6732 11.2943 14.7919 10.7794 14.8127 10.7638C14.8335 10.7482 15.0729 10.6529 15.3446 10.5521C15.9511 10.3271 16.6687 9.68574 16.9134 9.14994C17.5769 7.69724 16.2864 5.89804 14.6657 6.01634L14.2505 6.04664L14.2005 4.99834C14.173 4.42174 14.1141 3.89374 14.0696 3.82494C13.8093 3.42284 13.0606 3.87154 11.7027 5.24344L10.8549 6.09994L10.0027 6.09874L9.15052 6.09764L7.75052 4.90254C6.34242 3.70054 6.05212 3.54714 5.78772 3.86504ZM5.20052 7.69404C5.20052 7.74584 5.16312 7.81124 5.11742 7.83944C5.07172 7.86774 4.97872 8.13964 4.91062 8.44364C4.84262 8.74774 4.74862 9.02024 4.70172 9.04914C4.54902 9.14354 4.20052 8.58234 4.20052 8.24214C4.20052 8.01364 4.26922 7.86314 4.42282 7.75564C4.66552 7.58554 5.20052 7.54324 5.20052 7.69404ZM12.8668 7.81004C13.2308 8.03494 13.6493 8.72844 13.5606 8.95964C13.531 9.03684 13.4266 9.10094 13.3286 9.10214C12.9868 9.10634 12.3004 9.49064 12.1859 9.74204C12.0354 10.0723 12.1708 10.2355 12.7834 10.4624C13.0403 10.5575 13.2656 10.6463 13.2841 10.6595C13.3025 10.6728 13.2626 11.0249 13.1954 11.4418L13.0731 12.1999H9.94062H6.80822L6.70202 11.8055C6.64362 11.5886 6.58562 11.2456 6.57322 11.0432C6.55192 10.698 6.57502 10.6665 6.94392 10.5364C7.98652 10.1687 7.93442 9.56074 6.83292 9.24054C6.36052 9.10324 6.30052 9.05554 6.30092 8.81784C6.30142 8.42974 6.65422 7.91044 7.02752 7.74824C7.27652 7.63994 7.94342 7.60684 9.93872 7.60384C12.3974 7.60014 12.5439 7.61044 12.8668 7.81004ZM15.4932 7.86344C15.7568 8.19854 15.7572 8.54324 15.4943 8.80624C15.2133 9.08714 15.0618 9.00764 14.9905 8.54184C14.9576 8.32624 14.8964 8.02624 14.8547 7.87494C14.7864 7.62724 14.804 7.59994 15.0324 7.59994C15.1872 7.59994 15.3667 7.70254 15.4932 7.86344ZM13.1605 14.0399C13.4591 14.3385 13.5005 14.4426 13.5005 14.8947C13.5005 15.3217 13.4558 15.4509 13.2383 15.6524C12.9655 15.9053 12.4117 16.064 12.1513 15.964C12.0538 15.9266 12.0004 15.7725 12.0001 15.528C11.9997 15.0525 11.6757 14.4999 11.3974 14.4999C11.2841 14.4999 11.081 14.6104 10.946 14.7454C10.7497 14.9416 10.7005 15.0927 10.7005 15.4996V16.0083L9.93642 15.9791L9.17222 15.9499L9.14072 15.6499C9.08882 15.1551 8.99382 14.8597 8.82722 14.6749C8.43582 14.2406 7.89132 14.7061 7.82272 15.5337L7.77832 16.069L7.38652 15.9973C6.92312 15.9126 6.62382 15.6702 6.43672 15.2281C6.23882 14.7605 6.26862 14.4482 6.54162 14.1305L6.78262 13.8499L8.46662 13.7951C9.39272 13.765 10.7512 13.7313 11.4855 13.7201L12.8205 13.6999L13.1605 14.0399Z" fill="black"/>
</svg>
