<svg width="20" height="20" viewBox="0 0 20 20" fill="none" xmlns="http://www.w3.org/2000/svg">
<g clip-path="url(#clip0_978_28)">
<circle cx="9.97949" cy="10" r="10" fill="#9FC7FF"/>
<path d="M9.97949 20C15.5023 20 19.9795 15.5228 19.9795 10H-0.0205078C-0.0205078 15.5228 4.45664 20 9.97949 20Z" fill="#FFE3A0"/>
<path d="M11.9695 3.05205C12.703 3.01715 13.4353 3.03211 14.1676 3.08197C14.2337 3.03273 14.2368 2.98412 14.1919 2.91058C14.1371 2.82208 14.0511 2.7878 13.9676 2.75602C13.335 2.51358 12.6737 2.52542 12.0175 2.58587C11.5373 2.62996 11.0593 2.7063 10.582 2.78253C10.4925 2.79682 10.403 2.81112 10.3136 2.8252C10.0181 2.87131 9.72149 2.91993 9.43356 3.00593C9.34132 3.03335 9.26217 3.08446 9.27276 3.20225C9.4641 3.25959 9.65605 3.26083 9.85361 3.2278C10.0574 3.19415 10.2637 3.1742 10.4694 3.158C10.5508 3.15161 10.6321 3.14511 10.7135 3.13862L10.7136 3.13861C11.1319 3.10524 11.55 3.07187 11.9695 3.05205Z" fill="#EFBB08"/>
<path fill-rule="evenodd" clip-rule="evenodd" d="M8.59033 6.8095C8.61746 6.84035 8.61326 6.87574 8.60913 6.91063C8.60841 6.91662 8.60771 6.9226 8.60716 6.92854C8.57526 7.25641 8.57703 7.58457 8.5788 7.91283C8.57962 8.06564 8.58044 8.21848 8.57787 8.37131C8.57744 8.39603 8.57702 8.42074 8.57661 8.44545L8.5766 8.44591C8.56912 8.89089 8.56164 9.33522 8.49435 9.77732C8.48346 9.8477 8.502 9.92304 8.52034 9.99756C8.52718 10.0253 8.53398 10.053 8.53923 10.0802C8.55792 10.1737 8.55605 10.2341 8.43141 10.2466C8.04013 10.2859 7.68946 10.4459 7.33925 10.6056C7.26218 10.6407 7.18513 10.6758 7.10767 10.7097C7.00982 10.7527 6.9556 10.7913 7.07588 10.8892C7.25724 11.0369 7.3956 11.2195 7.52586 11.4195C7.57824 11.5 7.63656 11.5772 7.69507 11.6545C7.78691 11.7759 7.87922 11.898 7.94965 12.0347C8.12789 12.3793 8.2837 12.7333 8.37407 13.1122C8.37582 13.1196 8.37774 13.1273 8.37972 13.1352C8.40161 13.2232 8.43079 13.3404 8.32733 13.3758C8.2326 13.4083 8.13911 13.3198 8.08676 13.2219C8.04176 13.137 7.99745 13.0517 7.95313 12.9663L7.95303 12.9661C7.85193 12.7714 7.75075 12.5765 7.64115 12.3868C7.23668 11.6869 6.65957 11.1914 5.88738 10.9222C5.13452 10.6598 4.37107 10.6243 3.59452 10.7801C3.58437 10.7821 3.57249 10.7832 3.55999 10.7843C3.51031 10.7888 3.45093 10.7941 3.45243 10.8624C3.45411 10.9301 3.51619 10.9305 3.56947 10.9307C3.57547 10.9308 3.58136 10.9308 3.58704 10.9309C3.64812 10.9322 3.69424 10.959 3.6905 11.02C3.68879 11.0453 3.6934 11.074 3.69803 11.1028C3.70859 11.1684 3.71927 11.2347 3.6556 11.2637C3.4706 11.3478 3.31396 11.4711 3.15759 11.5942C3.06006 11.6709 2.96263 11.7476 2.85849 11.8147C2.84835 11.7284 2.83718 11.6422 2.82601 11.5559C2.79939 11.3504 2.77275 11.1447 2.76002 10.9384C2.75411 10.8435 2.74917 10.7485 2.74424 10.6536C2.73202 10.4183 2.7198 10.1832 2.69271 9.94871C2.6684 9.7393 2.73633 9.65081 2.93452 9.60344C3.19939 9.53987 3.4356 9.41148 3.66682 9.2725C3.78648 9.20083 3.82262 9.08304 3.82138 8.95279C3.81951 8.77205 3.8139 8.59069 3.8033 8.41058C3.79707 8.2984 3.71481 8.27471 3.56648 8.32083C3.36954 8.38253 3.17135 8.44049 2.97067 8.48973C2.9621 8.49183 2.95301 8.49439 2.94359 8.49705C2.88316 8.5141 2.80932 8.53493 2.77373 8.46106C2.73197 8.37381 2.75378 8.28655 2.8186 8.20242C3.03798 7.91636 3.33962 7.78049 3.67866 7.69199C3.89016 7.63725 4.09993 7.57561 4.30971 7.51398C4.53695 7.44721 4.76424 7.38043 4.99367 7.32242C5.57016 7.17596 6.15226 7.05131 6.7437 6.98089C6.82973 6.97069 6.91566 6.95951 7.00162 6.94832C7.1311 6.93146 7.26063 6.9146 7.39061 6.90112C7.44825 6.89505 7.49481 6.8697 7.54195 6.84405L7.54201 6.84402C7.55295 6.83806 7.56393 6.83208 7.57509 6.82633C7.65673 6.92729 7.86676 6.9329 8.002 6.83817C8.1681 6.87774 8.33115 6.85119 8.49406 6.82467C8.52615 6.81944 8.55823 6.81422 8.59033 6.8095ZM4.05138 8.72628C4.05004 8.77976 4.0487 8.83337 4.05384 8.8861C4.06444 8.98956 4.12053 9.04627 4.23271 9.02633C4.40335 8.99578 4.57411 8.96575 4.7449 8.93571L4.74534 8.93564C5.104 8.87256 5.46278 8.80947 5.8207 8.74151C6.54801 8.60316 7.27719 8.47976 8.01135 8.38503C8.16155 8.36571 8.21078 8.30214 8.20081 8.16565C8.19817 8.12826 8.19495 8.09088 8.19174 8.05349C8.18434 7.96749 8.17694 7.88145 8.17651 7.79545L8.17648 7.78617C8.17593 7.59513 8.17591 7.58699 7.98206 7.60723C7.3956 7.66956 6.81288 7.75806 6.23203 7.85715C5.60942 7.96372 4.99243 8.09585 4.37854 8.24106C4.05771 8.31786 4.05757 8.32695 4.05269 8.64761L4.0526 8.65364C4.0526 8.67776 4.05199 8.70201 4.05138 8.72628Z" fill="#EFBB08"/>
<path d="M17.6191 10.0796C17.5324 10.0914 17.5038 10.0341 17.5087 9.96741C17.5171 9.85626 17.4602 9.78579 17.3961 9.70656L17.3878 9.6963C17.0881 9.32548 16.7528 8.98831 16.4038 8.66548C16.061 8.34826 15.6733 8.08837 15.2315 7.93942C15.0748 7.88658 14.9086 7.86274 14.7421 7.83886C14.6219 7.82162 14.5016 7.80436 14.3845 7.77613C14.1601 7.72191 13.9351 7.70633 13.7102 7.72378C13.1617 7.76491 12.6139 7.83846 12.1029 8.04724C11.5887 8.25727 11.0889 8.49721 10.6919 8.91041C10.4189 9.1946 10.1908 9.50684 9.99883 9.84775C9.93339 9.96429 9.86359 10.0765 9.77633 10.1806C9.67226 10.3058 9.542 10.3021 9.40988 10.2915C9.29832 10.2821 9.32512 10.1874 9.34631 10.1238C9.48716 9.69942 9.65543 9.28809 9.85362 8.88486C10.1023 8.37942 10.4912 8.0061 10.933 7.69324C11.3394 7.40531 11.8087 7.22956 12.2942 7.09432C12.4528 7.05001 12.6137 7.01759 12.7745 6.98518C12.8942 6.96107 13.0138 6.93696 13.1324 6.90797C13.3979 6.84316 13.6871 6.83007 13.9676 6.87743C14.1368 6.90614 14.3056 6.90016 14.4748 6.89416L14.5073 6.89302C14.5683 6.96905 14.6438 6.9971 14.7441 7.01018C15.2302 7.07375 15.6833 7.24888 16.1227 7.45828C16.1562 7.47433 16.1898 7.49026 16.2234 7.5062L16.2236 7.50632C16.4693 7.62287 16.7158 7.73979 16.9372 7.90202L16.9427 7.906C16.99 7.94064 17.0349 7.97352 17.0295 8.03415C17.0106 8.24313 17.091 8.42261 17.1713 8.60174C17.2048 8.67635 17.2382 8.75092 17.2644 8.82752C17.3648 9.11982 17.4595 9.41336 17.5418 9.71126C17.5513 9.74533 17.5646 9.77869 17.5779 9.81212C17.6116 9.89673 17.6454 9.98176 17.6191 10.0796Z" fill="#EFBB08"/>
<path d="M13.6379 14.259C12.3958 14.201 11.4466 13.4089 11.4316 12.1157C11.4173 10.8393 12.3927 9.89948 13.6341 9.90633C14.9286 9.91319 15.8086 10.8443 15.8372 12.1126C15.8659 13.359 14.8338 14.2291 13.6379 14.259Z" fill="#EFBB08"/>
<path d="M3.3259 13.5846C3.32404 14.4241 3.99089 15.0953 4.82976 15.0978C5.69542 15.1003 6.36727 14.4609 6.37101 13.6295C6.37537 12.767 5.65928 12.0889 4.85095 12.0833C4.05134 12.0777 3.32777 12.7564 3.3259 13.5846Z" fill="#EFBB08"/>
<path d="M14.4518 12.0732C14.4518 12.5186 14.0907 12.8797 13.6453 12.8797C13.1999 12.8797 12.8388 12.5186 12.8388 12.0732C12.8388 11.6278 13.1999 11.2668 13.6453 11.2668C14.0907 11.2668 14.4518 11.6278 14.4518 12.0732Z" fill="#262624"/>
<path d="M4.80977 14.1916C5.11542 14.1916 5.3632 13.9438 5.3632 13.6382C5.3632 13.3325 5.11542 13.0847 4.80977 13.0847C4.50412 13.0847 4.25634 13.3325 4.25634 13.6382C4.25634 13.9438 4.50412 14.1916 4.80977 14.1916Z" fill="#262624"/>
<path fill-rule="evenodd" clip-rule="evenodd" d="M14.1676 3.08189C14.0996 3.22312 14.1327 3.36208 14.1652 3.499C14.1778 3.5518 14.1903 3.60431 14.1969 3.65651C14.2487 4.07566 14.2871 4.49602 14.3256 4.91653C14.3422 5.09751 14.3587 5.27857 14.3763 5.45951C14.4023 5.72491 14.4295 5.9903 14.4567 6.25582C14.4754 6.43737 14.494 6.61899 14.5122 6.8007C14.5144 6.82166 14.5123 6.84323 14.5102 6.86476C14.5093 6.87395 14.5084 6.88319 14.5078 6.89232L14.4756 6.89345C14.3062 6.89945 14.1369 6.90545 13.9681 6.87674C13.6883 6.82937 13.3991 6.84246 13.133 6.90728C13.0144 6.93626 12.8948 6.96036 12.7751 6.98448C12.6143 7.01688 12.4534 7.04932 12.2948 7.09362C11.8099 7.22949 11.34 7.40461 10.9336 7.69255C10.4924 8.00541 10.1029 8.37872 9.85419 8.88416C9.656 9.28739 9.48773 9.69872 9.34688 10.1231C9.32569 10.1861 9.29889 10.2814 9.41045 10.2908C9.54258 10.3014 9.67283 10.3051 9.77691 10.1799C9.86416 10.0752 9.93396 9.9636 9.9994 9.84705C10.1914 9.50552 10.4195 9.19391 10.6924 8.90971C11.0894 8.49651 11.5893 8.25657 12.1034 8.04654C12.6151 7.83776 13.1623 7.76422 13.7107 7.72308C13.9357 7.70626 14.1607 7.72121 14.3851 7.77544C14.5021 7.80366 14.6225 7.82092 14.7427 7.83817C14.9092 7.86205 15.0753 7.88588 15.232 7.93872C15.6739 8.08767 16.0616 8.34756 16.4043 8.66478C16.7533 8.98824 17.0886 9.32479 17.3884 9.69561L17.3967 9.70586C17.4607 9.78509 17.5177 9.85556 17.5093 9.96671C17.5043 10.0334 17.533 10.0907 17.6196 10.0789C17.6122 10.1967 17.5467 10.2297 17.4389 10.2023C17.4329 10.2008 17.4268 10.199 17.4206 10.1972C17.3853 10.187 17.3475 10.1761 17.3236 10.2116C17.2946 10.2542 17.3249 10.2806 17.3527 10.3049C17.3608 10.3119 17.3686 10.3187 17.3747 10.3257C17.4595 10.4217 17.5037 10.5326 17.538 10.6548C17.5808 10.8077 17.6325 10.9577 17.6843 11.1078C17.7049 11.1676 17.7255 11.2274 17.7455 11.2873C17.7773 11.3821 17.7624 11.44 17.6502 11.4687C17.3922 11.5356 17.3957 11.5451 17.4901 11.7988L17.4944 11.8102C17.6246 12.1592 17.7119 12.5213 17.7673 12.8903C17.7793 12.9707 17.7541 13.0446 17.7291 13.1178C17.7241 13.1326 17.7191 13.1473 17.7144 13.162C17.6823 13.2627 17.6489 13.363 17.6156 13.4633C17.5822 13.5637 17.5489 13.664 17.5168 13.7647C17.4545 13.961 17.3741 14.0034 17.1971 13.8974C17.0718 13.822 17.0263 13.8762 16.9958 13.9809C16.981 14.031 16.9666 14.0811 16.9522 14.1312C16.8982 14.3194 16.8442 14.5073 16.7689 14.6889C16.6418 14.9949 16.4592 15.2498 16.1812 15.4449C16.0447 15.5403 15.912 15.6468 15.783 15.754C15.6758 15.8431 15.6066 15.8089 15.548 15.7023C15.5438 15.6947 15.5402 15.6868 15.5366 15.6789C15.5315 15.6679 15.5265 15.657 15.52 15.6468C15.4059 15.4661 15.3966 15.4692 15.2333 15.6182C15.0823 15.756 14.9083 15.8605 14.7342 15.965L14.7341 15.965L14.734 15.9651C14.6688 16.0043 14.6036 16.0434 14.5396 16.0843C14.535 16.0873 14.5303 16.0902 14.5257 16.0932L14.5197 16.0969C14.4834 16.1198 14.4477 16.1424 14.415 16.1703C14.2903 16.2769 14.1582 16.3517 13.9825 16.3424C13.8341 16.3349 13.6853 16.3363 13.5364 16.3376C13.4619 16.3383 13.3875 16.339 13.3131 16.3386C13.1299 16.3374 13.0906 16.295 13.1 16.118C13.1112 15.9167 13.1018 15.9067 12.9012 15.9167C12.6263 15.9304 12.3515 15.9354 12.0773 15.9036C11.871 15.8799 11.6722 15.8301 11.5145 15.6842C11.4301 15.6061 11.3306 15.5521 11.2309 15.498C11.1341 15.4454 11.0371 15.3927 10.9536 15.3178C10.8059 15.185 10.7897 15.1663 10.9143 15.023C11.0022 14.922 10.9916 14.8647 10.8769 14.793C10.5821 14.6085 10.3135 14.3904 10.0717 14.1392C9.97759 14.0414 9.88847 13.9454 9.85294 13.8071C9.83175 13.7254 9.78626 13.6674 9.67719 13.6681C9.19187 13.6713 8.70622 13.6698 8.22072 13.6682H8.22C8.04674 13.6677 7.8735 13.6672 7.70031 13.6668C7.47657 13.6662 7.47221 13.6799 7.44104 13.8962C7.32325 14.717 6.93187 15.3695 6.22762 15.8244C5.53334 16.2725 4.78983 16.3498 4.00954 16.1074C3.66427 16.0002 3.35577 15.8151 3.09277 15.5683C2.33991 14.8634 2.07504 14.0046 2.3156 12.9962C2.39974 12.6441 2.55118 12.325 2.77866 12.0433C2.83475 11.9741 2.86155 11.9018 2.85906 11.8152C2.96387 11.7479 3.06172 11.6709 3.15963 11.5938C3.31557 11.471 3.47164 11.3481 3.65617 11.2643C3.71984 11.2353 3.70916 11.1689 3.6986 11.1033C3.69397 11.0745 3.68936 11.0459 3.69107 11.0206C3.69543 10.9589 3.64869 10.9321 3.58762 10.9315C3.58169 10.9313 3.57554 10.9313 3.56927 10.9313C3.51616 10.9311 3.45467 10.9309 3.453 10.8629C3.45152 10.7953 3.50988 10.7898 3.5593 10.7852C3.57224 10.784 3.58462 10.7828 3.59509 10.7806C4.37164 10.6242 5.13447 10.6604 5.88796 10.9227C6.65951 11.192 7.23662 11.6868 7.64172 12.3873C7.74827 12.5718 7.84656 12.7611 7.94487 12.9504L7.9449 12.9505C7.99207 13.0413 8.03925 13.1322 8.08733 13.2225C8.13906 13.3203 8.23255 13.4082 8.3279 13.3764C8.43233 13.3408 8.40258 13.2234 8.38018 13.1349C8.37825 13.1273 8.37637 13.1199 8.37464 13.1128C8.28427 12.7345 8.12847 12.3805 7.95022 12.0352C7.87991 11.8995 7.78828 11.7782 7.69715 11.6577C7.63805 11.5794 7.57914 11.5015 7.52643 11.4201C7.39617 11.2194 7.25781 11.0374 7.07645 10.8897C6.95617 10.7919 7.00977 10.7532 7.10824 10.7102C7.18652 10.6761 7.26434 10.6406 7.34215 10.6051C7.69185 10.4458 8.04148 10.2864 8.43198 10.2472C8.55725 10.2347 8.5585 10.1736 8.5398 10.0808C8.53459 10.0546 8.52803 10.028 8.52143 10.0013C8.50277 9.92575 8.48387 9.84926 8.49493 9.77787C8.56221 9.33578 8.56969 8.89144 8.57717 8.44646L8.57718 8.44601C8.5776 8.42129 8.57801 8.39658 8.57844 8.37187C8.58101 8.21905 8.58019 8.06617 8.57937 7.91331C8.5776 7.58491 8.57584 7.25654 8.60773 6.92909C8.6083 6.92288 8.60907 6.91663 8.60983 6.91036C8.61406 6.87573 8.61834 6.84066 8.5909 6.81005C8.66507 6.79136 8.67504 6.73402 8.68563 6.66858C8.77164 6.13323 8.89192 5.60722 9.0683 5.09306C9.1892 4.74218 9.3151 4.39441 9.47651 4.05974C9.5245 3.96002 9.53073 3.86467 9.37991 3.84597C9.34376 3.84161 9.30388 3.82852 9.29141 3.79175C9.27943 3.75593 9.26495 3.72015 9.25044 3.68435C9.18648 3.52643 9.12233 3.36803 9.27272 3.20342C9.46405 3.26076 9.656 3.26201 9.85357 3.22898C10.0567 3.19532 10.2637 3.17538 10.4693 3.15917C10.5286 3.15445 10.5878 3.14968 10.6471 3.14492L10.6472 3.1449L10.6476 3.14488C11.0879 3.10947 11.5279 3.07409 11.9694 3.05322C12.703 3.01708 13.4353 3.03203 14.1676 3.08189ZM13.6378 14.2589C14.8332 14.2284 15.8659 13.3589 15.8372 12.1125C15.8085 10.8436 14.9285 9.91311 13.6341 9.90626C12.3926 9.8994 11.4173 10.8392 11.4316 12.1156C11.4465 13.4088 12.3963 14.2009 13.6378 14.2589ZM4.82971 15.0978C5.69476 15.1003 6.36722 14.4602 6.37096 13.6288C6.37532 12.7663 5.65923 12.0882 4.8509 12.0826C4.0513 12.077 3.32773 12.7557 3.32586 13.5839C3.32399 14.424 3.99084 15.0959 4.82971 15.0978Z" fill="#262624"/>
<path d="M8.00195 6.83996C7.86671 6.9347 7.65668 6.92846 7.57504 6.82812C7.57338 6.80603 7.57125 6.78394 7.56912 6.76182L7.56911 6.76175C7.56481 6.71715 7.5605 6.67242 7.56008 6.62744C7.55858 6.35623 7.55769 6.08501 7.55679 5.8138C7.55544 5.40694 7.5541 5.00008 7.55073 4.59322C7.54886 4.34518 7.50212 4.11458 7.30705 3.93011C7.18676 3.81605 7.20048 3.71198 7.31141 3.60852C7.42982 3.49821 7.51708 3.57175 7.60246 3.65775C7.86235 3.92013 7.99634 4.233 7.99572 4.60444C7.99572 5.16282 7.99782 5.72154 7.99992 6.28036L7.99992 6.28062L7.99993 6.28373C8.00063 6.46914 8.00133 6.65455 8.00195 6.83996Z" fill="#262624"/>
<path d="M4.05264 8.64751L4.05255 8.65356C4.05255 8.67793 4.05194 8.70229 4.05133 8.72664C4.04999 8.78013 4.04865 8.83354 4.05379 8.88665C4.06439 8.99011 4.12048 9.04682 4.23266 9.02688C4.39973 8.997 4.56681 8.96762 4.73385 8.93825L4.73413 8.9382C5.09662 8.87445 5.45893 8.81074 5.82065 8.74206C6.54796 8.6037 7.27776 8.48031 8.0113 8.38557C8.16088 8.36625 8.21073 8.30268 8.20076 8.1662C8.19812 8.1288 8.1949 8.09141 8.19169 8.05402C8.18429 7.96802 8.17689 7.882 8.17646 7.796L8.17643 7.78669C8.17588 7.59505 8.17586 7.58693 7.98201 7.60778C7.39555 7.66948 6.81345 7.75798 6.23198 7.8577C5.61 7.96427 4.993 8.0964 4.37849 8.24161C4.05767 8.31717 4.05752 8.32687 4.05264 8.64751Z" fill="#262624"/>
<path d="M9.38624 8.02788C9.38624 8.02788 9.13695 5.9089 10.2899 3.77434C10.2899 3.77434 11.6766 3.49389 13.5775 3.66528L13.78 6.25168C13.78 6.25106 11.2404 5.8927 9.38624 8.02788Z" fill="#4988E2"/>
</g>
<defs>
<clipPath id="clip0_978_28">
<rect width="20" height="20" fill="white"/>
</clipPath>
</defs>
</svg>
