<svg width="20" height="20" viewBox="0 0 20 20" fill="none" xmlns="http://www.w3.org/2000/svg">
<circle cx="10" cy="10" r="10" fill="#000B6A"/>
<path d="M7.61426 4.05267H9.07755V5.55516H7.61426V4.05267ZM3.92422 4.05267H5.45113V5.55516H3.92422V4.05267ZM5.38751 7.68367V9.18616H3.8606V7.68367H5.38751ZM5.00578 15.9473H4.36957V15.3839H4.94216V15.9473H5.00578ZM5.45113 12.9424H3.92422V11.5025H5.45113V12.9424ZM8.69582 15.9473H8.12323V15.3839H8.69582V15.9473ZM8.69582 12.4415H8.12323V11.8781H8.69582V12.4415ZM9.14117 9.24876H7.61426V7.74628H9.14117V9.24876ZM12.3859 15.9473H11.8133V15.3839H12.3859V15.9473ZM12.3859 12.4415H11.8133V11.8781H12.3859V12.4415ZM12.3859 8.74793H11.8133V8.1845H12.3859V8.74793ZM12.8948 5.55516H11.3679V4.05267H12.8948V5.55516ZM16.1395 15.9473H15.5669V15.3839H16.1395V15.9473ZM16.1395 12.4415H15.5669V11.8781H16.1395V12.4415ZM16.1395 8.74793H15.5669V8.1845H16.1395V8.74793ZM16.1395 5.11693H15.5669V4.5535H16.1395V5.11693Z" fill="white"/>
</svg>
