<svg width="20" height="20" viewBox="0 0 20 20" fill="none" xmlns="http://www.w3.org/2000/svg">
<circle cx="10" cy="10" r="10" fill="#03001A"/>
<path fill-rule="evenodd" clip-rule="evenodd" d="M9.8477 5.98805L9.84375 2.59784L10.1562 2.59747L10.1602 5.98769L9.8477 5.98805Z" fill="#F3F3F3"/>
<path fill-rule="evenodd" clip-rule="evenodd" d="M13.5003 11.6386L16.3592 13.3351L16.1997 13.6038L13.3408 11.9074L13.5003 11.6386Z" fill="#F3F3F3"/>
<path fill-rule="evenodd" clip-rule="evenodd" d="M6.8035 11.9074L3.94463 13.6038L3.78516 13.3351L6.64403 11.6386L6.8035 11.9074Z" fill="#F3F3F3"/>
<path fill-rule="evenodd" clip-rule="evenodd" d="M9.84506 5.68464C9.94251 5.62786 10.063 5.628 10.1603 5.68501L13.4951 7.63853C13.591 7.6947 13.6499 7.79757 13.6497 7.9087C13.6495 8.01983 13.5903 8.1225 13.4942 8.17835L10.1594 10.1168C10.0622 10.1733 9.94214 10.1732 9.84501 10.1166L6.50572 8.17019C6.40965 8.11419 6.35058 8.01137 6.35059 7.90017C6.3506 7.78898 6.40969 7.68616 6.50577 7.63019L9.84506 5.68464ZM7.28375 7.90026L10.0026 9.485L12.7171 7.90712L10.0019 6.31657L7.28375 7.90026Z" fill="#F3F3F3"/>
<path fill-rule="evenodd" clip-rule="evenodd" d="M6.50719 7.62931C6.60419 7.57348 6.72363 7.57378 6.82034 7.6301L10.1627 9.57648C10.2588 9.63245 10.318 9.7353 10.318 9.84652V13.7175C10.318 13.8292 10.2583 13.9324 10.1616 13.9882C10.0648 14.044 9.94563 14.0439 9.84895 13.988L6.51087 12.0566C6.41443 12.0008 6.355 11.8979 6.35487 11.7864L6.35059 7.90049C6.35046 7.78858 6.4102 7.68514 6.50719 7.62931ZM6.97619 8.4441L6.97967 11.6058L9.69295 13.1757V10.0262L6.97619 8.4441Z" fill="#F3F3F3"/>
<path fill-rule="evenodd" clip-rule="evenodd" d="M13.4938 7.63731C13.5907 7.69308 13.6504 7.79636 13.6504 7.90814V11.7948C13.6504 11.9065 13.5907 12.0098 13.4939 12.0656L10.156 13.9883C10.0593 14.044 9.94023 14.0439 9.84362 13.9881C9.747 13.9323 9.6875 13.8291 9.6875 13.7175V9.84655C9.6875 9.73519 9.74676 9.63224 9.84307 9.57631L13.181 7.63791C13.2776 7.58177 13.3969 7.58154 13.4938 7.63731ZM10.3125 10.0264V13.1769L13.0254 11.6141V8.45099L10.3125 10.0264Z" fill="#F3F3F3"/>
<path fill-rule="evenodd" clip-rule="evenodd" d="M10.0005 2.06494L16.63 5.9608V13.7377L10.0005 17.6335L3.37109 13.7377V5.9608L10.0005 2.06494ZM10.0005 3.15234L4.30859 6.49726V13.2012L10.0005 16.5461L15.6925 13.2012V6.49727L10.0005 3.15234Z" fill="#F3F3F3"/>
<path d="M10.0001 9.85553L9.80595 10.1908L9.99976 10.3048L10.1937 10.191L10.0001 9.85553ZM3.65527 6.57051L9.80595 10.1908L10.1942 9.52029L4.04355 5.90007L3.65527 6.57051ZM10.1937 10.191L16.3645 6.57079L15.9772 5.89978L9.80642 9.52003L10.1937 10.191Z" fill="#F3F3F3"/>
<path fill-rule="evenodd" clip-rule="evenodd" d="M10 9.38684C10.2589 9.38684 10.4688 9.59671 10.4688 9.85559V17.0898C10.4688 17.3487 10.2589 17.5586 10 17.5586C9.74112 17.5586 9.53125 17.3487 9.53125 17.0898V9.85559C9.53125 9.59671 9.74112 9.38684 10 9.38684Z" fill="#F3F3F3"/>
</svg>
