<svg width="20" height="20" viewBox="0 0 20 20" fill="none" xmlns="http://www.w3.org/2000/svg">
<path d="M20 10C20 15.5228 15.5228 20 10 20C4.47715 20 0 15.5228 0 10C0 4.47715 4.47715 0 10 0C15.5228 0 20 4.47715 20 10Z" fill="white"/>
<path d="M6.42261 14.0462C6.31985 14.2518 6.10148 14.3802 5.87026 14.3802V14.3866H1.01097H1.00835C0.359666 13.0636 0 11.5735 0 10.0064C0 4.47656 4.48298 0 10.0064 0C12.8709 0 15.4464 1.20103 17.2704 3.12781H17.2645H12.5626C12.3314 3.12781 12.1195 3.25626 12.0103 3.46179L9.21644 8.75401H5.61978C5.27938 8.75401 4.99679 9.03019 4.99679 9.37701V10.6294C4.99679 10.9698 5.27296 11.2524 5.61978 11.2524H7.89338L6.42261 14.0462Z" fill="#9B1C2E"/>
<path d="M13.5773 5.95376C13.68 5.74823 13.8984 5.61978 14.1296 5.61978V5.61336H18.989H18.9915C19.6402 6.93642 19.9999 8.42646 19.9999 9.99358C19.9999 10.8783 19.8851 11.736 19.6698 12.5527C19.0792 12.3388 18.4421 12.2222 17.7778 12.2222C14.7095 12.2222 12.2222 14.7095 12.2222 17.7778C12.2222 18.4421 12.3388 19.0792 12.5527 19.6697C11.7357 19.8852 10.8779 20 9.99346 20C7.12898 20 4.55351 18.799 2.72949 16.8722H2.73546H7.43726C7.66848 16.8722 7.88042 16.7437 7.98961 16.5382L10.7834 11.246H14.3801C14.7205 11.246 15.0031 10.9698 15.0031 10.623V9.37058C15.0031 9.03019 14.7269 8.74759 14.3801 8.74759H12.1065L13.5773 5.95376Z" fill="#9B1C2E"/>
<path fill-rule="evenodd" clip-rule="evenodd" d="M10 20C15.5228 20 20 15.5228 20 10C20 8.42644 19.6366 6.93777 18.989 5.61336H14.1296V5.61978C13.8984 5.61978 13.68 5.74823 13.5773 5.95376L12.1065 8.74759H14.3801C14.7269 8.74759 15.0031 9.03019 15.0031 9.37058V10.623C15.0031 10.9698 14.7205 11.246 14.3801 11.246H10.7834L7.98961 16.5382C7.88042 16.7437 7.66848 16.8722 7.43726 16.8722H2.73546C4.55823 18.7984 7.13878 20 10 20ZM1.01097 14.3866C0.363446 13.0622 0 11.5736 0 10C0 4.47715 4.47715 0 10 0C12.8612 0 15.4418 1.20165 17.2645 3.12781H12.5626C12.3314 3.12781 12.1195 3.25626 12.0103 3.46179L9.21644 8.75401H5.61978C5.27938 8.75401 4.99679 9.03019 4.99679 9.37701V10.6294C4.99679 10.9698 5.27296 11.2524 5.61978 11.2524H7.89338L6.42261 14.0462C6.31985 14.2518 6.10148 14.3802 5.87026 14.3802V14.3866H1.01097Z" fill="#9B1C2E"/>
</svg>
