<svg width="20" height="20" viewBox="0 0 20 20" fill="none" xmlns="http://www.w3.org/2000/svg">
<circle cx="10" cy="10" r="10" fill="#23292F"/>
<path d="M3.64258 3.66724C3.64258 3.7732 5.43679 12.6913 5.46504 12.716C5.50743 12.7584 6.12904 12.7019 6.40806 12.6312C6.67296 12.5677 7.16742 12.3805 7.25925 12.3134C7.32283 12.2639 7.31929 12.2251 7.06147 11.0348C6.91313 10.3602 6.49283 8.41766 6.12904 6.72587L5.46151 3.64252H4.55381C4.05228 3.64252 3.64258 3.65311 3.64258 3.66724Z" fill="#00F3AB"/>
<path d="M14.2555 3.7203C14.192 3.99579 12.758 12.2852 12.7686 12.317C12.8039 12.4053 14.0507 12.7196 14.3721 12.7196H14.5063L14.69 11.8437C15.2692 9.07114 16.357 3.798 16.357 3.76622C16.357 3.73796 16.078 3.71324 15.467 3.68498C14.252 3.62494 14.2803 3.62494 14.2555 3.7203Z" fill="#00F3AB"/>
<path d="M8.81356 9.88694C8.49922 10.95 8.24846 11.826 8.25199 11.8295C8.25905 11.8366 8.40386 11.8118 8.57693 11.7694C8.74646 11.7306 9.04314 11.6776 9.23386 11.6529C9.57292 11.6105 9.57646 11.6105 9.60471 11.501C9.62237 11.4445 9.68948 11.1937 9.75305 10.943C9.81663 10.6957 9.87667 10.5015 9.88726 10.5121C9.89786 10.5192 9.97203 10.7699 10.0533 11.0666L10.2016 11.607L10.5619 11.6317C10.7632 11.6458 11.1022 11.6988 11.3177 11.7483C11.5331 11.7942 11.7133 11.833 11.7168 11.826C11.7239 11.8189 11.3813 10.7346 10.7031 8.61192L10.4912 7.95146H9.93671H9.3822L8.81356 9.88694Z" fill="#00F3AB"/>
<path d="M8.85224 13.5213C8.3613 13.5813 7.76088 13.6908 7.72556 13.7261C7.70084 13.7509 7.63373 13.9451 7.57722 14.1535L7.47479 14.5385L7.44301 14.157C7.40769 13.7191 7.46067 13.7438 6.96267 13.9381C6.58122 14.0899 6.3022 14.1641 6.00199 14.1924C5.86424 14.203 5.76182 14.2312 5.76182 14.2524C5.75829 14.2736 5.85012 14.7575 5.96314 15.3226L6.16799 16.3574H7.16399H8.15998L8.26594 16.0113C8.49905 15.2555 9.01117 13.5354 9.01117 13.5178C9.01117 13.5036 9.00058 13.5001 8.98645 13.5001C8.96879 13.5036 8.91228 13.5142 8.85224 13.5213Z" fill="#00F3AB"/>
<path d="M10.8125 13.5389C10.8125 13.5636 11.0103 14.2029 11.2505 14.9623L11.6849 16.3397H12.7233H13.7581L13.9771 15.2801C14.2102 14.1641 14.2102 14.1676 14.0265 14.1676C13.8923 14.1676 13.2566 14.0051 12.9882 13.9062C12.6032 13.7614 12.6138 13.7508 12.6138 14.1923L12.6102 14.5738L12.4725 14.1464L12.3312 13.719L12.144 13.6802C11.9074 13.6272 11.3564 13.5425 11.0527 13.5142C10.8655 13.4965 10.8125 13.5001 10.8125 13.5389Z" fill="#00F3AB"/>
</svg>
