<svg width="20" height="20" viewBox="0 0 20 20" fill="none" xmlns="http://www.w3.org/2000/svg">
<rect width="20" height="20" fill="#F9D549"/>
<path d="M6.76634 3.90667C5.85967 4.55333 5.45967 4.92 5.24634 5.29333C5.10634 5.53333 5.05301 5.56 4.36634 5.78C3.57967 6.02667 3.33301 6.2 3.33301 6.51333C3.33301 7 3.73301 8.04 4.16634 8.69333C4.29967 8.9 4.96634 9.58667 5.68634 10.26C6.39301 10.9133 7.71967 12.18 8.63301 13.0667C11.533 15.8733 12.553 16.48 14.3463 16.4733C15.573 16.4733 16.1997 16.1867 16.533 15.4933C16.653 15.2467 16.6797 15.1133 16.653 14.7733C16.5997 14.1533 16.373 13.7733 15.6663 13.1267C15.333 12.82 15.0463 12.5 15.033 12.42C15.013 12.3333 14.9863 12.1933 14.9663 12.1C14.9197 11.8867 14.6663 11.76 14.1863 11.7133C12.7997 11.58 11.5397 9.88667 11.693 8.38C11.7663 7.66 12.1197 7.22 12.773 7.02667C13.2863 6.88 13.333 6.78667 13.333 5.89333C13.333 5.23333 13.3197 5.12667 13.1863 4.93333C12.9397 4.57333 12.713 4.44667 12.2863 4.42C11.5663 4.37333 11.133 4.8 11.133 5.55333V5.94667L10.853 5.9C10.0997 5.77333 9.63301 5.41333 9.43301 4.78667C9.22634 4.16667 8.82634 3.73333 8.21301 3.46C7.73967 3.25333 7.63301 3.28667 6.76634 3.90667ZM8.14634 4.71334C8.21301 4.78 8.30634 4.97333 8.36634 5.13334C8.63301 5.88667 9.07301 6.35333 9.83967 6.70667C10.373 6.94667 10.533 7.14667 10.533 7.56C10.533 7.73333 10.4863 7.82667 10.353 7.93333C10.0997 8.13334 9.77967 8.08 9.33301 7.77333C8.92634 7.49333 8.71967 7.47333 8.49967 7.7C8.15301 8.04 8.35301 8.47333 9.25967 9.35333C9.79301 9.87333 9.94634 10.1267 9.81967 10.32C9.66634 10.5733 9.57301 10.5667 8.97301 10.28C8.87301 10.2333 9.18634 10.72 9.67301 11.3667C10.5663 12.56 12.253 14.26 13.313 15.0467C13.5463 15.22 13.7197 15.3667 13.713 15.38C13.6597 15.4333 12.9263 15.1667 12.5663 14.9667C11.853 14.56 10.9997 13.8333 8.79967 11.7067C7.60634 10.56 6.35301 9.37333 6.01301 9.06667C5.30634 8.43333 4.97967 8.02 4.75967 7.48C4.51967 6.90667 4.53967 6.84667 4.95301 6.71334C5.15301 6.65333 5.32634 6.6 5.35301 6.6C5.37301 6.6 5.58634 6.84 5.82634 7.12667C6.31301 7.71334 6.56634 7.85333 6.85301 7.71334C7.07967 7.60667 7.23301 7.33333 7.17967 7.12667C7.15301 7.04 6.92634 6.72 6.66634 6.41333L6.19967 5.86L6.31967 5.68C6.37967 5.58667 6.74634 5.27333 7.13301 4.99333C7.85967 4.46 7.90634 4.44667 8.14634 4.71334ZM14.0663 13.0133C14.1063 13.1 14.4463 13.4533 14.813 13.8067L15.4863 14.4467L15.5197 14.8333L15.553 15.22L15.313 15.18C14.9797 15.1267 14.3863 14.8333 13.993 14.52C13.6197 14.2267 13.333 13.72 13.333 13.3533C13.333 12.96 13.913 12.6933 14.0663 13.0133Z" fill="black"/>
<path d="M13.4994 7.70001C13.4061 7.78667 13.3327 7.90667 13.3327 7.96667C13.3327 8.02001 13.2927 8.06667 13.2394 8.06667C13.1861 8.06667 13.0594 8.14001 12.9594 8.22001C12.7127 8.44001 12.7127 8.76001 12.9594 8.98001C13.4394 9.38667 14.3261 8.90667 14.4461 8.17334C14.4794 7.97334 14.4527 7.90667 14.2794 7.73334C14.0194 7.48001 13.7261 7.46667 13.4994 7.70001Z" fill="black"/>
<path d="M14.1264 9.20001C14.0664 9.23335 13.9797 9.34668 13.9397 9.44668C13.893 9.55335 13.7664 9.68001 13.6464 9.73335C13.233 9.92668 13.2264 10.4667 13.6397 10.64C14.233 10.8867 14.9997 10.3333 14.9997 9.66668C14.9997 9.26668 14.4864 8.99335 14.1264 9.20001Z" fill="black"/>
</svg>
