<svg width="20" height="20" viewBox="0 0 20 20" fill="none" xmlns="http://www.w3.org/2000/svg">
<g clip-path="url(#clip0_3146_15487)">
<path d="M10.0245 20.0001C15.5609 20.0001 20.0491 15.523 20.0491 10.0001C20.0491 4.47727 15.5609 0.00012207 10.0245 0.00012207C4.48814 0.00012207 0 4.47727 0 10.0001C0 15.523 4.48814 20.0001 10.0245 20.0001Z" fill="black"/>
<path d="M7.07403 7.0435L6.97072 7.14693L4.60398 9.51661L3.8902 10.2313C3.85259 10.2868 3.80478 10.3347 3.74932 10.3723C3.64319 10.4421 3.51374 10.4669 3.38941 10.4411C3.26507 10.4153 3.15604 10.3412 3.08626 10.235C3.03363 10.156 3.00612 10.0629 3.00736 9.96796V7.72055C3.02682 7.1925 3.2501 6.6926 3.63022 6.32604C4.01033 5.95949 4.51764 5.75486 5.04539 5.75522H7.07403L6.48234 6.35704L5.79674 7.0435H7.07403Z" fill="url(#paint0_linear_3146_15487)"/>
<path d="M16.7759 8.34118V8.49163C16.7417 9.76906 16.2481 10.9911 15.3859 11.9333L8.67073 18.6568C8.2987 18.9897 7.81727 19.1738 7.31831 19.174C7.18295 19.1714 7.04797 19.1588 6.91446 19.1364L6.52 19.0141C6.09815 18.8675 5.68704 18.6915 5.28967 18.4876L5.20514 18.4405C5.16885 18.4133 5.13965 18.3777 5.12004 18.3368C5.10041 18.2958 5.09095 18.2508 5.09244 18.2054C5.09149 18.1413 5.11126 18.0787 5.14879 18.0268L12.6811 10.4758C12.7176 10.4359 12.7492 10.3917 12.775 10.3441C12.8219 10.2541 12.8596 10.1596 12.8877 10.062C12.9017 10.0001 12.9111 9.93726 12.9158 9.87391C12.9241 9.83376 12.9273 9.7927 12.9252 9.75171C12.9252 9.41751 12.7926 9.09701 12.5566 8.86069C12.3206 8.62439 12.0005 8.49163 11.6667 8.49163H8.91492L10.7651 6.63915C10.8206 6.60149 10.8684 6.55363 10.906 6.4981C10.9558 6.41939 10.9819 6.32797 10.9811 6.2348C10.9811 6.1076 10.9307 5.98562 10.8408 5.89569C10.751 5.80574 10.6292 5.75522 10.5021 5.75522H6.57635C6.57635 5.75522 6.95202 5.34146 7.10229 5.19101C7.44039 4.82427 7.85364 4.3541 8.30445 4.02498C9.21337 3.35561 10.313 2.9963 11.4413 3C12.1095 3.00083 12.7717 3.12516 13.3948 3.36673L13.6484 3.47017C14.0994 3.67797 14.5197 3.94693 14.8975 4.26947L14.9726 4.33529H14.982C15.5457 4.83701 15.997 5.4525 16.3062 6.1413C16.6153 6.8301 16.7754 7.57661 16.7759 8.33177V8.34118Z" fill="url(#paint1_linear_3146_15487)"/>
<path d="M11.3378 5.75522H6.60435L4.39727 7.96504C4.35461 8.00897 4.32591 8.06457 4.31476 8.12481C4.30361 8.18505 4.31052 8.24726 4.33463 8.30357C4.35874 8.35989 4.39895 8.4078 4.45022 8.44126C4.50147 8.47473 4.56148 8.49226 4.62267 8.49163H9.7506L11.7323 6.4981C11.7892 6.42232 11.8189 6.32958 11.8168 6.2348C11.8168 6.1076 11.7663 5.98562 11.6765 5.89569C11.5867 5.80574 11.4648 5.75522 11.3378 5.75522ZM9.36554 7.12813C9.28495 7.12817 9.20751 7.09677 9.14965 7.04059C9.09179 6.98441 9.05806 6.90788 9.05561 6.82722C9.05688 6.77071 9.07308 6.71555 9.10257 6.66736C9.12644 6.62935 9.15854 6.59721 9.19649 6.57332C9.24406 6.54253 9.29952 6.5262 9.35615 6.52631C9.43586 6.52505 9.51281 6.55557 9.57007 6.61112C9.62726 6.66667 9.66017 6.74271 9.6614 6.82251C9.66262 6.90232 9.63216 6.97935 9.5767 7.03667C9.52118 7.09398 9.44525 7.12688 9.36554 7.12813Z" fill="#E35CC7"/>
<path d="M7.2147 5.75522H6.56667L4.38776 7.92742C4.34082 7.97346 4.30873 8.03253 4.29564 8.09701C4.28256 8.16148 4.28907 8.2284 4.31435 8.28913C4.33962 8.34986 4.3825 8.40162 4.43743 8.43771C4.49237 8.47381 4.55685 8.49259 4.62256 8.49163H5.62748L8.3605 5.75522H7.2147Z" fill="#8961D0"/>
<path d="M9.3562 7.1281C9.52215 7.1281 9.65676 6.99338 9.65676 6.82719C9.65676 6.661 9.52215 6.52628 9.3562 6.52628C9.19022 6.52628 9.05566 6.661 9.05566 6.82719C9.05566 6.99338 9.19022 7.1281 9.3562 7.1281Z" fill="#8961D0"/>
<path opacity="0.48" d="M9.3562 7.1281C9.52215 7.1281 9.65676 6.99338 9.65676 6.82719C9.65676 6.661 9.52215 6.52628 9.3562 6.52628C9.19022 6.52628 9.05566 6.661 9.05566 6.82719C9.05566 6.99338 9.19022 7.1281 9.3562 7.1281Z" fill="url(#paint2_linear_3146_15487)"/>
<path opacity="0.48" d="M9.64735 6.82719C9.64742 6.74899 9.61702 6.67384 9.56272 6.61767C9.50836 6.5615 9.4343 6.52872 9.35623 6.52628C9.3034 6.52769 9.25174 6.54216 9.20586 6.56842C9.15997 6.59467 9.12129 6.63188 9.09326 6.67673C9.15054 6.62707 9.22411 6.60028 9.29988 6.6015C9.33812 6.6015 9.37597 6.60905 9.41129 6.6237C9.44662 6.63834 9.47874 6.65982 9.50572 6.68688C9.53277 6.71396 9.55422 6.74609 9.56884 6.78146C9.58352 6.81683 9.591 6.85474 9.591 6.89301V6.90242C9.59286 6.95214 9.57979 7.00126 9.55345 7.04347C9.58327 7.01596 9.6071 6.98251 9.62326 6.94526C9.63943 6.90802 9.64761 6.8678 9.64735 6.82719Z" fill="#480061"/>
<path opacity="0.75" d="M11.3378 5.75522H6.60427L4.40658 7.96504C4.36448 8.00839 4.33594 8.06313 4.32448 8.12251C4.31301 8.18189 4.31914 8.24333 4.34209 8.29927C4.36504 8.35522 4.40381 8.40323 4.45365 8.4374C4.50348 8.47158 4.56221 8.49043 4.6226 8.49164H9.75052L11.7322 6.4981C11.7891 6.42232 11.8189 6.32958 11.8167 6.2348C11.8167 6.1076 11.7662 5.98562 11.6765 5.89569C11.5866 5.80574 11.4648 5.75522 11.3378 5.75522ZM9.35608 7.12813C9.31662 7.12813 9.27754 7.12035 9.24107 7.10522C9.20461 7.0901 9.17148 7.06793 9.14357 7.03999C9.11566 7.01205 9.09353 6.97888 9.07842 6.94237C9.06332 6.90586 9.05555 6.86673 9.05555 6.82722C9.05681 6.77071 9.07301 6.71555 9.10251 6.66736C9.12636 6.62935 9.15846 6.59721 9.19642 6.57332C9.24399 6.54253 9.29944 6.5262 9.35608 6.52631C9.43415 6.52875 9.50822 6.56153 9.56258 6.6177C9.61688 6.67387 9.64728 6.74901 9.64721 6.82722C9.64521 6.90479 9.61417 6.97879 9.56026 7.03452C9.50635 7.09027 9.43347 7.12367 9.35608 7.12813Z" fill="url(#paint3_linear_3146_15487)"/>
<path d="M7.2147 5.75522H6.56667L4.38776 7.92742C4.34082 7.97346 4.30873 8.03253 4.29564 8.09701C4.28256 8.16148 4.28907 8.2284 4.31435 8.28913C4.33962 8.34986 4.3825 8.40162 4.43743 8.43771C4.49237 8.47381 4.55685 8.49259 4.62256 8.49163H5.62748L8.3605 5.75522H7.2147Z" fill="url(#paint4_linear_3146_15487)"/>
<path opacity="0.43" d="M10.314 8.49166L11.6946 6.54514L9.75049 8.49166H10.314Z" fill="url(#paint5_linear_3146_15487)"/>
</g>
<defs>
<linearGradient id="paint0_linear_3146_15487" x1="3.00736" y1="8.10327" x2="7.07403" y2="8.10327" gradientUnits="userSpaceOnUse">
<stop stop-color="#4750D9"/>
<stop offset="0.41" stop-color="#5C45DC"/>
<stop offset="1" stop-color="#8131E1"/>
</linearGradient>
<linearGradient id="paint1_linear_3146_15487" x1="5.09244" y1="11.087" x2="16.7759" y2="11.087" gradientUnits="userSpaceOnUse">
<stop stop-color="#E96161"/>
<stop offset="0.2" stop-color="#E65B76"/>
<stop offset="0.61" stop-color="#DF4AAC"/>
<stop offset="1" stop-color="#D739E6"/>
</linearGradient>
<linearGradient id="paint2_linear_3146_15487" x1="9.05472" y1="6.82719" x2="9.64923" y2="6.82719" gradientUnits="userSpaceOnUse">
<stop stop-color="#B100D3"/>
<stop offset="0.23" stop-color="#9C00C0"/>
<stop offset="0.69" stop-color="#67008E"/>
<stop offset="1" stop-color="#40006A"/>
</linearGradient>
<linearGradient id="paint3_linear_3146_15487" x1="4.31924" y1="7.12342" x2="11.8167" y2="7.12342" gradientUnits="userSpaceOnUse">
<stop stop-color="#D0D7D3"/>
<stop offset="0.52" stop-color="#D9C5E8"/>
<stop offset="1" stop-color="#E3B1FF"/>
</linearGradient>
<linearGradient id="paint4_linear_3146_15487" x1="4.29478" y1="7.12342" x2="8.35956" y2="7.12342" gradientUnits="userSpaceOnUse">
<stop stop-color="#B277EC"/>
<stop offset="0.77" stop-color="#9336E7"/>
<stop offset="1" stop-color="#8921E6"/>
</linearGradient>
<linearGradient id="paint5_linear_3146_15487" x1="9.74772" y1="7.5184" x2="11.6956" y2="7.5184" gradientUnits="userSpaceOnUse">
<stop stop-opacity="0.5"/>
<stop offset="0.1" stop-color="#201322" stop-opacity="0.59"/>
<stop offset="0.25" stop-color="#4A2C4E" stop-opacity="0.72"/>
<stop offset="0.4" stop-color="#6D4173" stop-opacity="0.82"/>
<stop offset="0.55" stop-color="#885190" stop-opacity="0.9"/>
<stop offset="0.7" stop-color="#9B5DA4" stop-opacity="0.95"/>
<stop offset="0.85" stop-color="#A664B0" stop-opacity="0.99"/>
<stop offset="1" stop-color="#AA66B4"/>
</linearGradient>
<clipPath id="clip0_3146_15487">
<rect width="20" height="20" fill="white"/>
</clipPath>
</defs>
</svg>
