<svg width="20" height="20" viewBox="0 0 20 20" fill="none" xmlns="http://www.w3.org/2000/svg">
<path fill-rule="evenodd" clip-rule="evenodd" d="M10.091 1.40705C10.2329 1.5489 10.403 1.55551 10.6087 1.42703C10.8158 1.29769 11.0119 1.42205 11.1094 1.74447L11.1838 1.99102L11.6581 1.94244C12.0374 1.90357 12.1575 1.91904 12.2582 2.01962C12.416 2.17748 12.6827 2.17974 13.0497 2.02638C13.366 1.89425 13.4832 1.9265 13.4832 2.14546C13.4832 2.35206 13.623 2.41331 13.8352 2.29975C14.0964 2.15992 14.2282 2.24223 14.453 2.6859C14.6349 3.04477 14.675 3.07819 14.9245 3.07819C15.248 3.07819 15.3487 3.26108 15.3487 3.84847C15.3487 4.2406 15.4775 4.43414 15.7762 4.49065C15.9374 4.52112 15.9549 4.64339 15.8848 5.24943C15.8565 5.49427 15.8738 5.52062 16.0939 5.56741C16.2259 5.59547 16.3746 5.6435 16.4242 5.67421C16.5844 5.77323 16.5208 6.19273 16.2762 6.65178L16.0377 7.09926L16.1739 7.71199C16.3496 8.50325 16.351 10.2712 16.1767 11.381C16.035 12.2832 15.9953 12.3901 15.8659 12.2172C15.8051 12.1361 15.7399 12.1203 15.6637 12.1684C15.5698 12.2276 15.605 12.354 15.8738 12.9249C16.4018 14.0467 16.5277 14.4326 16.5723 15.0676C16.6149 15.6751 16.5614 15.7971 16.3592 15.5534C16.1647 15.3191 15.926 15.4219 15.9637 15.7238C15.9717 15.7877 15.8886 15.8024 15.6965 15.7712C15.4571 15.7324 15.4114 15.7495 15.374 15.8923C15.3252 16.0793 15.1962 16.1065 15.046 15.9615C14.9649 15.8833 14.9221 15.8985 14.8266 16.0392C14.6823 16.2518 14.1587 16.2819 13.8891 16.093C13.7031 15.9628 13.561 15.9999 13.561 16.1785C13.561 16.2705 13.5052 16.2665 13.2306 16.1545C12.3539 15.797 11.8736 15.462 11.0191 14.612C10.0199 13.618 10.1966 13.6365 9.28597 14.4306C8.74841 14.8994 7.4778 15.8494 6.88971 16.2224C6.43656 16.5098 5.98085 16.5328 5.89962 16.2724C5.82011 16.0177 5.70958 15.9774 5.45354 16.1098C5.21251 16.2345 5.12157 16.1942 5.07509 15.9421C5.05068 15.8095 4.98508 15.7866 4.63041 15.7866C4.19024 15.7866 4.16008 15.7634 4.02569 15.3203C3.97393 15.1496 3.90902 15.0887 3.78342 15.0932C3.68905 15.0966 3.61187 15.0777 3.61187 15.0512C3.61187 14.8059 3.90413 13.9997 4.12472 13.6366C4.40477 13.1755 4.41332 13.0273 4.15969 13.0273C3.96437 13.0273 3.94081 12.9407 3.76554 11.5753C3.52886 9.73235 3.56796 8.41223 3.88384 7.57861C3.98123 7.32179 3.97121 7.23933 3.76204 6.57204C3.4366 5.53406 3.46186 5.24274 3.88392 5.16486C3.99421 5.14457 4.05064 5.05736 4.07824 4.86506C4.11275 4.62427 4.14601 4.59108 4.37477 4.56916C4.51654 4.55555 4.68031 4.58408 4.73876 4.63266C4.85162 4.72624 4.97467 4.59014 5.16883 4.15666C5.22106 4.04007 5.39673 3.89021 5.57884 3.80688C5.85804 3.67918 5.9091 3.61466 5.99188 3.28533C6.10762 2.82527 6.13141 2.79961 6.35145 2.89833C6.58728 3.00404 6.72097 2.9459 6.72097 2.73751C6.72097 2.44642 6.85792 2.38276 7.37971 2.4315C7.83628 2.47409 7.86822 2.4657 8.02959 2.26058L8.19934 2.0448L8.50885 2.1844L8.81844 2.324L9.30556 1.80719C9.57348 1.52302 9.83356 1.29046 9.88354 1.29046C9.93352 1.29046 10.0269 1.34293 10.091 1.40705ZM12.5885 10.8447C12.5895 10.3654 12.7923 10.0055 13.2026 9.75536C13.5064 9.57006 13.8985 9.56936 14.2994 9.7535C14.6716 9.92442 14.8349 10.0966 15.0004 10.4926C15.1409 10.8289 15.1014 11.1378 14.8821 11.4165L14.7372 11.6007L15.0084 11.6988C15.2587 11.7893 15.2777 11.8188 15.2558 12.0817C15.2294 12.3996 15.0161 12.4875 14.9748 12.1975C14.9564 12.0683 14.8556 11.9999 14.5473 11.9076C14.3255 11.841 14.039 11.7772 13.9108 11.7657C13.709 11.7476 13.6795 11.716 13.6922 11.531C13.7101 11.2703 13.6358 11.2642 13.0105 11.4749C12.7532 11.5616 12.5094 11.612 12.4688 11.5869C12.3633 11.5216 12.3777 11.336 12.4914 11.2982C12.5521 11.2779 12.5881 11.1101 12.5885 10.8447ZM5.39688 11.385C5.22526 10.7475 5.54985 10.049 6.13654 9.79337C6.6905 9.55195 7.29677 9.72971 7.67872 10.2454C7.86613 10.4983 7.94556 11.218 7.81335 11.465C7.73034 11.62 7.68284 11.6305 7.26957 11.5837C6.87852 11.5394 6.79543 11.5537 6.6605 11.6887C6.57453 11.7746 6.36272 11.8688 6.1897 11.8981C5.96025 11.9369 5.86869 11.9925 5.85112 12.1038C5.83565 12.2023 5.62618 12.3651 5.2607 12.563C4.77732 12.8247 4.68731 12.8513 4.64611 12.7441C4.61323 12.6582 4.69702 12.5361 4.9107 12.3587C5.40675 11.9466 5.49863 11.7627 5.39688 11.385ZM9.16977 11.7077C9.09647 11.374 9.21796 11.2622 9.75304 11.1708C10.6068 11.0249 11.3846 11.2286 11.3846 11.598C11.3846 11.8799 10.5022 12.7941 10.2302 12.7941C9.96795 12.7941 9.24594 12.0545 9.16977 11.7077Z" fill="white"/>
<path d="M7.34279 10.3481C7.34279 10.4722 7.13619 10.5926 7.05776 10.5141C7.03296 10.4893 7.03335 10.415 7.05869 10.349C7.11831 10.1937 7.34279 10.193 7.34279 10.3481Z" fill="white"/>
<path d="M14.6492 10.3411C14.6492 10.4931 14.4985 10.5759 14.4004 10.4778C14.3566 10.434 14.3442 10.3601 14.3729 10.3136C14.4491 10.1903 14.6492 10.2102 14.6492 10.3411Z" fill="white"/>
<path d="M17.2386 8.2061C17.8214 8.83561 18.6085 9.97548 18.9946 10.7493C19.4026 11.5669 19.737 12.6964 19.6148 12.8437C19.4761 13.0108 19.2243 12.9681 18.9787 12.7358L18.7528 12.5221L18.6346 12.697C18.5105 12.8808 18.2015 12.9286 17.9922 12.7962C17.9141 12.7469 17.8191 12.7605 17.7007 12.8381C17.5443 12.9406 17.5038 12.9392 17.3304 12.8256C17.1824 12.7286 17.1101 12.7192 17.0293 12.7863C16.9157 12.8805 16.8282 12.7842 16.5676 12.2782C16.4528 12.0555 16.4523 11.9679 16.5614 11.2678C16.6969 10.3982 16.7147 8.68739 16.5948 8.0616C16.5507 7.8313 16.5146 7.62897 16.5146 7.61187C16.5146 7.51363 16.8599 7.79702 17.2386 8.2061Z" fill="white"/>
<path d="M9.51915 16.0454C9.75094 16.2007 9.86496 16.2232 10.2899 16.197C10.7594 16.168 10.8049 16.1478 11.0689 15.8504L11.3492 15.5345L11.6099 15.7521C12.252 16.2881 13.4445 16.7122 13.79 16.5273C13.8706 16.4841 14.0447 16.488 14.2386 16.5372C14.4877 16.6004 14.6112 16.5925 14.816 16.5002C15.078 16.3821 15.5819 16.2869 15.5819 16.3555C15.5819 16.3758 15.4245 16.5605 15.2321 16.7662C15.0397 16.9719 14.8823 17.2131 14.8823 17.3021C14.8823 17.4905 14.6314 18.0085 14.4544 18.1855C14.3734 18.2665 14.2571 18.2926 14.1093 18.2631C13.9291 18.227 13.8676 18.2537 13.7897 18.4016C13.6009 18.7599 13.4023 18.7897 13.1338 18.5C12.9315 18.2819 12.9129 18.2859 12.4619 18.6443C12.2744 18.7933 12.1041 18.8631 11.9567 18.8513C11.5629 18.8196 11.4857 18.852 11.2975 19.1277C11.0616 19.4732 10.9305 19.5212 10.7505 19.328C10.5859 19.1512 10.4078 19.186 10.3502 19.4063C10.2935 19.6232 9.95186 19.5979 9.63069 19.353C9.43793 19.2059 9.31014 19.1629 9.16954 19.1975C9.06258 19.2239 8.89034 19.2665 8.78681 19.2923C8.6242 19.3326 8.55899 19.2795 8.30839 18.9021C8.01676 18.4628 7.89139 18.3904 7.46684 18.4158C7.26071 18.4282 7.23032 18.3955 7.11683 18.0407C6.98594 17.6313 6.88365 17.5842 6.43889 17.7282C6.3 17.7733 6.20921 17.6967 5.87537 17.2533C5.44997 16.6883 5.33143 16.3609 5.66605 16.6752C5.83581 16.8347 5.90172 16.8471 6.32176 16.7983C6.81338 16.7413 7.36416 16.4283 8.46983 15.578L8.9362 15.2194L9.09165 15.5412C9.17715 15.7181 9.36953 15.945 9.51915 16.0454Z" fill="white"/>
<path d="M3.28977 8.58634C3.18942 9.34006 3.27119 10.6949 3.49202 11.9391C3.61926 12.6558 3.60083 12.6924 2.80374 13.3059C2.17835 13.7873 1.78691 13.8993 1.699 13.6221C1.66387 13.5116 1.60588 13.4898 1.44732 13.5274C1.06031 13.6192 1.00964 13.6101 0.932142 13.4354C0.88947 13.3391 0.79713 13.2605 0.72702 13.2605C0.656832 13.2605 0.541562 13.3391 0.47083 13.4354C0.347399 13.6032 0.344135 13.5915 0.389683 13.1439C0.483966 12.2172 1.1874 10.5092 1.92612 9.41297C2.23268 8.95811 3.29871 7.79134 3.3556 7.84832C3.37138 7.86402 3.34169 8.19615 3.28977 8.58634Z" fill="white"/>
<path d="M4.2751 6.77025C4.24401 7.08116 3.87351 7.23661 3.69215 7.27547L3.26465 6.03184V5.17683L3.69215 4.94365L4.04192 4.32183L4.70261 4.47729L4.97465 3.77774L5.59647 3.46683L5.82965 2.65069H6.33488L6.76238 2.22319L7.50079 2.33978L8.08375 1.83456L8.62784 2.02888L8.82216 1.83456L9.17193 1.52365L9.48284 1.29046L9.87148 1.13501L10.2601 1.29046L10.5322 1.13501L10.9985 1.29046L11.2124 1.83456L11.9313 1.71797L12.4365 1.95115L12.9028 1.83456L13.3303 1.71797L13.5635 2.22319L13.7578 2.02888H14.0688L14.3019 2.22319L14.6517 2.88388H15.0403L15.3513 3.15592V3.66115C15.416 3.90729 15.4912 4.38401 15.2735 4.32183C15.0015 4.24411 14.8849 3.35024 14.6517 3.27251C14.4185 3.19479 14.4185 3.31138 14.1465 3.15592C13.8744 3.00047 14.2631 2.76729 13.9522 2.65069C13.6413 2.5341 13.2915 2.68956 13.0583 2.57297C12.8251 2.45638 12.7474 2.37865 12.5142 2.33978C12.281 2.30092 12.0867 2.61183 12.009 2.57297C11.9313 2.5341 11.6592 2.49524 11.2706 2.49524C10.8819 2.49524 11.0374 2.1066 10.5322 2.02888C10.0269 1.95115 9.24966 2.76729 8.93875 2.76729C8.62784 2.76729 8.16147 2.49524 7.92829 2.49524C7.69511 2.49524 7.65625 2.88388 7.50079 2.88388C7.34534 2.88388 7.15102 2.68956 6.9567 2.76729C6.76238 2.84501 6.56806 3.35024 6.41261 3.46683C6.25715 3.58342 5.98511 3.54456 5.82965 3.66115C5.6742 3.77774 5.82965 4.16638 5.71306 4.32183C5.59647 4.47729 5.44102 4.32183 5.28556 4.47729C5.13011 4.63274 5.28556 4.86592 5.09124 4.94365C4.89692 5.02138 4.58601 4.98252 4.3917 5.17683C4.19738 5.37115 4.31397 6.38161 4.2751 6.77025Z" fill="#D5D5D5"/>
<path d="M4.39142 15.398C4.19711 15.398 4.04165 15.1259 3.84733 15.1259L3.49756 15.2425L3.69188 15.398L3.84733 15.7866L4.23597 16.0198L4.70233 15.9421L4.81892 16.2918L5.12983 16.4862L5.47961 16.253L5.82938 16.6028L6.68438 16.525L7.46166 15.9421L8.62757 15.0871L9.36598 14.4653C9.5862 14.3098 10.0033 13.9756 9.91007 13.8823C9.79348 13.7657 9.59916 13.8046 9.48257 13.8046C9.36598 13.8046 7.92802 14.8928 7.46166 15.0871C6.99529 15.2814 6.29574 15.3591 6.14029 15.398C5.98483 15.4368 5.75165 15.2425 5.63506 15.2425C5.51847 15.2425 5.40188 15.5146 5.24642 15.5146C5.09097 15.5146 5.01324 15.2425 4.89665 15.2425C4.78006 15.2425 4.58574 15.398 4.39142 15.398Z" fill="#D5D5D5"/>
<path d="M8.86073 19.0512C8.51096 19.0512 7.96687 18.5071 7.69482 18.5071L8.08346 19.1289L8.66642 19.5564L9.09392 19.3232L9.98778 19.7896L10.4541 19.4398L10.8428 19.6341L11.2314 19.3621L11.4257 19.0512H11.8921L12.2807 18.8957L12.7082 18.5848L13.3301 18.8957L13.8742 18.4682L14.496 18.3128L14.6126 18.1184L14.768 17.8075L14.8457 17.38C14.8328 17.3412 14.6747 17.2634 14.1462 17.2634C13.4855 17.2634 13.3301 18.1184 13.0969 18.1184C12.8637 18.1184 12.9026 17.963 12.5916 17.9241C12.2807 17.8853 12.2419 18.3128 12.1253 18.3128C12.0087 18.3128 12.1253 18.1962 11.8921 18.1962C11.6589 18.1962 11.3869 18.818 11.1926 18.818C10.9982 18.818 11.0371 18.7014 10.6873 18.7403C10.3376 18.7791 10.0655 19.2455 9.87119 19.2455C9.67687 19.2455 9.59914 18.818 9.3271 18.818C9.05505 18.818 9.21051 19.0512 8.86073 19.0512Z" fill="#D5D5D5"/>
<path d="M9.01661 15.5146C7.74188 16.8515 6.38683 16.9266 5.86865 16.7971L6.84024 16.3696L7.50093 15.9809L8.12275 15.398L8.66684 15.0093H8.97775L9.01661 15.5146Z" fill="#D5D5D5"/>
<path d="M10.9209 15.7089C11.6049 16.5483 12.8123 16.5768 13.3304 16.4862L12.4754 16.1753L11.737 15.7866L11.3484 15.2037L11.0375 15.3591L10.9209 15.7089Z" fill="#D5D5D5"/>
<path d="M13.2527 15.9809C13.0351 16.012 12.4366 15.8384 12.1646 15.7478V15.9809L13.3693 16.4084L13.6025 16.1753L13.9523 16.3307L14.4964 16.4084L14.8461 16.0975L15.2736 16.1753L15.4291 15.9809H15.8955L16.0509 15.67L16.4784 15.9809L16.6339 15.7478V15.0482L16.5561 14.3487L16.2452 13.5325L15.8955 12.833L15.9732 12.4832L16.2452 10.8121L16.3618 9.9182L16.4007 9.21866L16.2452 8.55797L16.0509 7.27547C15.8696 7.13297 15.5301 6.87906 15.6234 7.00343C15.74 7.15888 15.8566 9.21866 15.8177 9.76275C15.7789 10.3068 15.3902 11.6282 15.3902 11.9003C15.3902 12.1723 15.5068 12.2112 15.6234 12.5998C15.74 12.9884 15.9732 15.0871 15.7789 15.2425C15.5846 15.398 14.8461 15.0871 14.6907 15.2425C14.5352 15.398 14.6907 15.5534 14.4964 15.5923C14.3021 15.6312 14.2243 15.5534 14.0689 15.5534C13.9134 15.5534 14.1077 15.7478 14.03 15.8255C13.9523 15.9032 13.758 15.7478 13.5636 15.7478C13.3693 15.7478 13.5248 15.9421 13.2527 15.9809Z" fill="#D5D5D5"/>
<path d="M2.44841 13.0662C2.66605 13.004 3.03137 10.7084 3.18682 9.56843L3.30341 10.2291L3.38114 10.9287L3.45887 11.5893L3.5366 12.25L3.57546 12.7164L3.42 12.9107L3.18682 13.0662L2.75932 13.4159L2.44841 13.7268L2.09864 13.8823L1.82659 13.9212L1.55455 13.9989L1.43796 13.8046L1.32137 13.6103L1.20477 13.7268L0.971592 13.8046H0.777274L0.660683 13.6103L0.544092 13.4159L0.388637 13.6103L0.155455 13.7268H0.0388637L0 13.5325L0.0388637 12.9884C0.0647728 12.9366 0.139909 12.8485 0.233182 12.9107C0.349773 12.9884 0.427501 12.9884 0.544092 12.9884C0.660683 12.9884 0.816138 12.7553 0.971592 12.7553C1.12705 12.7553 1.08818 13.0662 1.20477 13.0662C1.32137 13.0662 1.39909 12.9107 1.55455 12.9107C1.71 12.9107 1.74887 13.1828 1.82659 13.1828C1.90432 13.1828 2.05978 12.9107 2.1375 12.9107C2.19969 12.9107 2.37069 13.0143 2.44841 13.0662Z" fill="#D5D5D5"/>
<path d="M16.9055 12.2889C16.9366 11.9469 16.6334 9.71093 16.478 8.6357L16.0894 12.2112L16.7889 12.9884L16.9832 12.9107L17.3719 13.1439L17.7216 12.9107L18.1103 13.0662L18.4212 12.9496L18.6155 12.7941L18.7709 12.833L19.043 13.105H19.4316L19.7037 12.9107L19.626 12.4055L19.5094 11.978L19.3539 11.4728L19.1207 10.9675L18.9264 10.5012L18.6155 10.1125C18.8616 10.9287 19.3073 12.5765 19.1207 12.6387C18.8875 12.7164 18.4989 12.1723 18.3046 12.1723C18.1103 12.1723 17.8771 12.5609 17.7605 12.5609C17.6439 12.5609 17.4496 12.3278 17.333 12.2889C17.2397 12.2578 17.0091 12.2759 16.9055 12.2889Z" fill="#D5D5D5"/>
<path fill-rule="evenodd" clip-rule="evenodd" d="M9.40489 1.1291C9.27789 1.21483 9.06375 1.41622 8.92897 1.57673C8.70232 1.84675 8.66882 1.8616 8.48009 1.77563C8.22865 1.66106 7.93383 1.75706 7.80643 1.99506C7.72769 2.14227 7.67678 2.15588 7.3937 2.10559C6.89399 2.0169 6.69602 2.05009 6.51833 2.25257C6.42832 2.35517 6.24403 2.46337 6.10894 2.49306C5.84102 2.5519 5.63278 2.85433 5.63278 3.18452C5.63278 3.32878 5.56081 3.41156 5.34232 3.51875C5.18259 3.59702 4.97101 3.78256 4.87214 3.93094C4.71622 4.1649 4.65629 4.19754 4.42016 4.17726C4.07007 4.1471 3.79523 4.3289 3.72792 4.63507C3.69667 4.77754 3.60223 4.90906 3.4966 4.95717C3.09732 5.13913 3.04197 5.74463 3.34457 6.62139L3.5437 7.19813L2.76946 7.95582C1.66465 9.03708 0.831796 10.378 0.351441 11.8494C0.0654044 12.7255 -0.0786245 13.627 0.0438738 13.7746C0.151837 13.9048 0.438418 13.9156 0.559984 13.794C0.625819 13.7282 0.682482 13.7401 0.783372 13.8409C0.878666 13.9362 0.993158 13.9638 1.17216 13.9348C1.34169 13.9073 1.45727 13.9314 1.52038 14.0075C1.59073 14.0923 1.70623 14.1087 1.97213 14.0716C2.35463 14.0184 2.73083 13.8086 3.31861 13.3208C3.66387 13.0342 3.84505 12.9947 3.84505 13.2061C3.84505 13.2566 3.71797 13.5551 3.56259 13.8695C3.27368 14.4544 3.16525 14.9622 3.25401 15.3156C3.29358 15.4734 3.35187 15.5146 3.53562 15.5146C3.71548 15.5146 3.76733 15.5493 3.76733 15.67C3.76733 15.9271 4.04303 16.1364 4.38153 16.1364C4.64868 16.1364 4.69454 16.1642 4.76612 16.3696C4.81082 16.4978 4.88606 16.6028 4.93324 16.6028C4.98042 16.6028 5.0548 16.7054 5.09856 16.8308C5.14225 16.9563 5.26241 17.1141 5.36556 17.1817C5.4687 17.2493 5.62089 17.4375 5.70383 17.6002C5.91012 18.0044 6.0557 18.1068 6.40532 18.0931C6.68583 18.0821 6.70698 18.0972 6.75284 18.3418C6.82846 18.7448 7.03662 18.888 7.4621 18.8296C7.80231 18.783 7.82306 18.7916 7.94929 19.0294C8.27893 19.6503 8.68755 19.8528 9.08505 19.5925C9.25573 19.4806 9.28341 19.4866 9.52063 19.6862C9.78063 19.9049 9.78825 19.9059 10.6851 19.8424C11.1989 19.806 11.3478 19.7364 11.5513 19.4378C11.7088 19.2066 11.767 19.1749 11.9676 19.2113C12.1417 19.2428 12.293 19.1947 12.5647 19.0214C12.866 18.8292 12.9437 18.8076 13.017 18.8958C13.2406 19.1653 13.7791 19.0955 14.0123 18.7668C14.069 18.6869 14.2086 18.6237 14.3281 18.6237C14.6802 18.6237 15.0026 18.1868 15.1517 17.5076C15.1785 17.3854 15.3737 17.1022 15.5855 16.8782C15.7973 16.6544 15.9705 16.4308 15.9705 16.3815C15.9705 16.3322 16.0406 16.2217 16.1264 16.136C16.2535 16.0088 16.309 15.9968 16.427 16.0706C16.7991 16.303 17.0118 15.8945 16.9595 15.0482C16.9211 14.4277 16.79 13.972 16.4352 13.2243C16.3142 12.9693 16.2334 12.7312 16.2556 12.6952C16.2779 12.6593 16.4197 12.7572 16.5708 12.9127C16.7634 13.1111 16.892 13.1835 17.0009 13.155C17.0863 13.1327 17.2343 13.1656 17.3297 13.2281C17.5053 13.3432 17.7583 13.3075 17.7583 13.1676C17.7583 13.1224 17.8783 13.1116 18.0532 13.1412C18.2154 13.1686 18.4465 13.1536 18.5667 13.108C18.7472 13.0393 18.8307 13.0529 19.0459 13.1859C19.253 13.314 19.3391 13.3296 19.4651 13.2622C19.5759 13.2029 19.6692 13.2016 19.7744 13.258C19.879 13.3139 19.9406 13.3136 19.9756 13.2571C20.054 13.1301 19.9366 12.4286 19.7224 11.7448C19.1849 10.029 17.6383 7.83231 16.5239 7.20202C16.4377 7.15328 16.4666 7.03995 16.6709 6.62497C16.8959 6.1677 16.9172 6.07093 16.8559 5.78093C16.7924 5.48051 16.6761 5.35747 16.3409 5.23637C16.3095 5.22502 16.324 5.08488 16.3732 4.92499C16.5013 4.50791 16.3771 4.27581 15.9663 4.16521C15.6528 4.0808 15.6455 4.07147 15.694 3.81271C15.759 3.46644 15.6164 2.94668 15.4289 2.84633C15.3477 2.80288 15.1809 2.76728 15.0583 2.76728C14.8647 2.76728 14.814 2.71645 14.6716 2.37934C14.512 2.00174 14.2033 1.76468 14.0193 1.87847C13.9792 1.90319 13.8396 1.83346 13.7089 1.72356C13.4279 1.48711 13.3154 1.47973 12.8958 1.67031C12.5876 1.8103 12.5762 1.81015 12.3952 1.66363C12.2574 1.55201 12.1115 1.5189 11.8242 1.53414C11.4909 1.55186 11.43 1.53196 11.3768 1.38824C11.2794 1.12475 10.958 0.954211 10.6658 1.01087C10.372 1.06785 10.357 1.06793 9.94665 1.01398C9.71487 0.983593 9.57698 1.0129 9.40489 1.1291ZM10.091 1.40705C10.2329 1.5489 10.403 1.55551 10.6087 1.42703C10.8158 1.29769 11.0119 1.42205 11.1094 1.74447L11.1838 1.99102L11.6581 1.94244C12.0374 1.90357 12.1575 1.91904 12.2582 2.01962C12.416 2.17748 12.6827 2.17974 13.0497 2.02638C13.366 1.89425 13.4832 1.9265 13.4832 2.14546C13.4832 2.35206 13.623 2.41331 13.8352 2.29975C14.0964 2.15992 14.2282 2.24223 14.453 2.6859C14.6349 3.04477 14.675 3.07819 14.9245 3.07819C15.248 3.07819 15.3487 3.26108 15.3487 3.84847C15.3487 4.2406 15.4775 4.43414 15.7762 4.49065C15.9374 4.52112 15.9549 4.64339 15.8848 5.24943C15.8565 5.49427 15.8738 5.52062 16.0939 5.56741C16.2259 5.59547 16.3746 5.6435 16.4242 5.67421C16.5844 5.77323 16.5208 6.19273 16.2762 6.65178L16.0377 7.09926L16.1739 7.71199C16.3496 8.50325 16.351 10.2712 16.1767 11.381C16.035 12.2832 15.9953 12.3901 15.8659 12.2172C15.8051 12.1361 15.7399 12.1203 15.6637 12.1684C15.5698 12.2276 15.605 12.354 15.8738 12.9249C16.4018 14.0467 16.5277 14.4326 16.5723 15.0676C16.6149 15.6751 16.5614 15.7971 16.3592 15.5534C16.1647 15.3191 15.926 15.4219 15.9637 15.7238C15.9717 15.7877 15.8886 15.8024 15.6965 15.7712C15.4571 15.7324 15.4114 15.7495 15.374 15.8923C15.3252 16.0793 15.1962 16.1065 15.046 15.9615C14.9649 15.8833 14.9221 15.8985 14.8266 16.0392C14.6823 16.2518 14.1587 16.2819 13.8891 16.093C13.7031 15.9628 13.561 15.9999 13.561 16.1785C13.561 16.2705 13.5052 16.2665 13.2306 16.1545C12.3539 15.797 11.8736 15.462 11.0191 14.612C10.0199 13.618 10.1966 13.6365 9.28597 14.4306C8.74841 14.8994 7.4778 15.8494 6.88971 16.2224C6.43656 16.5098 5.98085 16.5328 5.89962 16.2724C5.82011 16.0177 5.70958 15.9774 5.45354 16.1098C5.21251 16.2345 5.12157 16.1942 5.07509 15.9421C5.05068 15.8095 4.98508 15.7866 4.63041 15.7866C4.19024 15.7866 4.16008 15.7634 4.02569 15.3203C3.97393 15.1496 3.90902 15.0887 3.78342 15.0932C3.68905 15.0966 3.61187 15.0777 3.61187 15.0512C3.61187 14.8059 3.90413 13.9997 4.12472 13.6366C4.40477 13.1755 4.41332 13.0273 4.15969 13.0273C3.96437 13.0273 3.94081 12.9407 3.76554 11.5753C3.52886 9.73235 3.56796 8.41223 3.88384 7.57861C3.98123 7.32179 3.97121 7.23933 3.76204 6.57204C3.4366 5.53406 3.46186 5.24274 3.88392 5.16486C3.99421 5.14457 4.05064 5.05736 4.07824 4.86506C4.11275 4.62427 4.14601 4.59108 4.37477 4.56916C4.51654 4.55555 4.68031 4.58408 4.73876 4.63266C4.85162 4.72624 4.97467 4.59014 5.16883 4.15666C5.22106 4.04007 5.39673 3.89021 5.57884 3.80688C5.85804 3.67918 5.9091 3.61466 5.99188 3.28533C6.10762 2.82527 6.13141 2.79961 6.35145 2.89833C6.58728 3.00404 6.72097 2.9459 6.72097 2.73751C6.72097 2.44642 6.85792 2.38276 7.37971 2.4315C7.83628 2.47409 7.86822 2.4657 8.02959 2.26058L8.19934 2.0448L8.50885 2.1844L8.81844 2.324L9.30556 1.80719C9.57348 1.52302 9.83356 1.29046 9.88354 1.29046C9.93352 1.29046 10.0269 1.34293 10.091 1.40705ZM17.2386 8.2061C17.8214 8.83561 18.6085 9.97548 18.9946 10.7493C19.4026 11.5669 19.737 12.6964 19.6148 12.8437C19.4761 13.0108 19.2243 12.9681 18.9787 12.7358L18.7528 12.5221L18.6346 12.697C18.5105 12.8808 18.2015 12.9286 17.9922 12.7962C17.9141 12.7469 17.8191 12.7605 17.7007 12.8381C17.5443 12.9406 17.5038 12.9392 17.3304 12.8256C17.1824 12.7286 17.1101 12.7192 17.0293 12.7863C16.9157 12.8805 16.8282 12.7842 16.5676 12.2782C16.4528 12.0555 16.4523 11.9679 16.5614 11.2678C16.6969 10.3982 16.7147 8.68739 16.5948 8.0616C16.5507 7.8313 16.5146 7.62897 16.5146 7.61187C16.5146 7.51363 16.8599 7.79702 17.2386 8.2061ZM3.28977 8.58634C3.18942 9.34006 3.27119 10.6949 3.49202 11.9391C3.61926 12.6558 3.60083 12.6924 2.80374 13.3059C2.17835 13.7873 1.78691 13.8993 1.699 13.6221C1.66387 13.5116 1.60588 13.4898 1.44732 13.5274C1.06031 13.6192 1.00964 13.6101 0.932142 13.4354C0.88947 13.3391 0.79713 13.2605 0.72702 13.2605C0.656832 13.2605 0.541562 13.3391 0.47083 13.4354C0.347399 13.6032 0.344135 13.5915 0.389683 13.1439C0.483966 12.2172 1.1874 10.5092 1.92612 9.41297C2.23268 8.95811 3.29871 7.79134 3.3556 7.84832C3.37138 7.86402 3.34169 8.19615 3.28977 8.58634ZM13.2026 9.75536C12.7923 10.0055 12.5895 10.3654 12.5885 10.8447C12.5881 11.1101 12.5521 11.2779 12.4914 11.2982C12.3777 11.336 12.3633 11.5216 12.4688 11.5869C12.5094 11.612 12.7532 11.5616 13.0105 11.4749C13.6358 11.2642 13.7101 11.2703 13.6922 11.531C13.6795 11.716 13.709 11.7476 13.9108 11.7657C14.039 11.7772 14.3255 11.841 14.5473 11.9076C14.8556 11.9999 14.9564 12.0683 14.9748 12.1975C15.0161 12.4875 15.2294 12.3996 15.2558 12.0817C15.2777 11.8188 15.2587 11.7893 15.0084 11.6988L14.7372 11.6007L14.8821 11.4165C15.1014 11.1378 15.1409 10.8289 15.0004 10.4926C14.8349 10.0966 14.6716 9.92442 14.2994 9.7535C13.8985 9.56936 13.5064 9.57006 13.2026 9.75536ZM6.13654 9.79337C5.54985 10.049 5.22526 10.7475 5.39688 11.385C5.49863 11.7627 5.40675 11.9466 4.9107 12.3587C4.69702 12.5361 4.61323 12.6582 4.64611 12.7441C4.68731 12.8513 4.77732 12.8247 5.2607 12.563C5.62618 12.3651 5.83565 12.2023 5.85112 12.1038C5.86869 11.9925 5.96025 11.9369 6.1897 11.8981C6.36272 11.8688 6.57453 11.7746 6.6605 11.6887C6.79543 11.5537 6.87852 11.5394 7.26957 11.5837C7.68284 11.6305 7.73034 11.62 7.81335 11.465C7.94556 11.218 7.86613 10.4983 7.67872 10.2454C7.29677 9.72971 6.6905 9.55195 6.13654 9.79337ZM7.34279 10.3481C7.34279 10.4722 7.13619 10.5926 7.05776 10.5141C7.03296 10.4893 7.03335 10.415 7.05869 10.349C7.11831 10.1937 7.34279 10.193 7.34279 10.3481ZM14.6492 10.3411C14.6492 10.4931 14.4985 10.5759 14.4004 10.4778C14.3566 10.434 14.3442 10.3601 14.3729 10.3136C14.4491 10.1903 14.6492 10.2102 14.6492 10.3411ZM9.75304 11.1708C9.21796 11.2622 9.09647 11.374 9.16977 11.7077C9.24594 12.0545 9.96795 12.7941 10.2302 12.7941C10.5022 12.7941 11.3846 11.8799 11.3846 11.598C11.3846 11.2286 10.6068 11.0249 9.75304 11.1708ZM9.96756 15.0871C10.0162 15.4821 10.0488 15.5534 10.1801 15.5534C10.3148 15.5534 10.3404 15.4883 10.3742 15.0587L10.413 14.564L10.6722 14.8874C10.9199 15.1965 10.9259 15.2193 10.8078 15.3995C10.4836 15.8943 9.53011 15.717 9.41655 15.1407C9.38476 14.979 9.43132 14.8732 9.62214 14.674C9.77394 14.5155 9.87685 14.4558 9.88952 14.5186C9.90087 14.5748 9.93593 14.8306 9.96756 15.0871ZM9.51915 16.0454C9.75094 16.2007 9.86496 16.2232 10.2899 16.197C10.7594 16.168 10.8049 16.1478 11.0689 15.8504L11.3492 15.5345L11.6099 15.7521C12.252 16.2881 13.4445 16.7122 13.79 16.5273C13.8706 16.4841 14.0447 16.488 14.2386 16.5372C14.4877 16.6004 14.6112 16.5925 14.816 16.5002C15.078 16.3821 15.5819 16.2869 15.5819 16.3555C15.5819 16.3758 15.4245 16.5605 15.2321 16.7662C15.0397 16.9719 14.8823 17.2131 14.8823 17.3021C14.8823 17.4905 14.6314 18.0085 14.4544 18.1855C14.3734 18.2665 14.2571 18.2926 14.1093 18.2631C13.9291 18.227 13.8676 18.2537 13.7897 18.4016C13.6009 18.7599 13.4023 18.7897 13.1338 18.5C12.9315 18.2819 12.9129 18.2859 12.4619 18.6443C12.2744 18.7933 12.1041 18.8631 11.9567 18.8513C11.5629 18.8196 11.4857 18.852 11.2975 19.1277C11.0616 19.4732 10.9305 19.5212 10.7505 19.328C10.5859 19.1512 10.4078 19.186 10.3502 19.4063C10.2935 19.6232 9.95186 19.5979 9.63069 19.353C9.43793 19.2059 9.31014 19.1629 9.16954 19.1975C9.06258 19.2239 8.89034 19.2665 8.78681 19.2923C8.6242 19.3326 8.55899 19.2795 8.30839 18.9021C8.01676 18.4628 7.89139 18.3904 7.46684 18.4158C7.26071 18.4282 7.23032 18.3955 7.11683 18.0407C6.98594 17.6313 6.88365 17.5842 6.43889 17.7282C6.3 17.7733 6.20921 17.6967 5.87537 17.2533C5.44997 16.6883 5.33143 16.3609 5.66605 16.6752C5.83581 16.8347 5.90172 16.8471 6.32176 16.7983C6.81338 16.7413 7.36416 16.4283 8.46983 15.578L8.9362 15.2194L9.09165 15.5412C9.17715 15.7181 9.36953 15.945 9.51915 16.0454Z" fill="black"/>
<path d="M9.96742 15.0871C10.0161 15.4821 10.0486 15.5534 10.18 15.5534C10.3147 15.5534 10.3403 15.4883 10.374 15.0587L10.4129 14.564L10.6721 14.8874C10.9197 15.1965 10.9257 15.2193 10.8076 15.3995C10.4834 15.8944 9.52997 15.717 9.41641 15.1407C9.38462 14.979 9.43118 14.8732 9.622 14.674C9.7738 14.5155 9.87671 14.4558 9.88938 14.5186C9.90073 14.5748 9.93578 14.8306 9.96742 15.0871Z" fill="#FF8C8D"/>
<ellipse rx="0.31091" ry="0.699546" transform="matrix(0.878108 0.478463 -0.478465 0.878106 6.53645 5.55123)" fill="#F0F0F0"/>
<ellipse cx="5.68436" cy="8.68457" rx="0.31091" ry="1.01836" transform="rotate(56.5244 5.68436 8.68457)" fill="#F0F0F0"/>
<ellipse rx="0.310913" ry="1.01836" transform="matrix(-0.282592 0.95924 -0.959238 -0.2826 6.09447 14.3147)" fill="#F0F0F0"/>
<ellipse cx="13.0559" cy="14.0797" rx="0.31091" ry="1.01836" transform="rotate(106.415 13.0559 14.0797)" fill="#F0F0F0"/>
<ellipse rx="0.395963" ry="0.910446" transform="matrix(-0.282597 0.959239 -0.959239 -0.282595 14.1974 8.4103)" fill="#F0F0F0"/>
<ellipse rx="0.395962" ry="0.763168" transform="matrix(-0.864876 0.501986 -0.501984 -0.864877 14.4268 5.56928)" fill="#F0F0F0"/>
<ellipse cx="11.6009" cy="3.80959" rx="0.395964" ry="0.76317" transform="rotate(91.8573 11.6009 3.80959)" fill="#F0F0F0"/>
<ellipse cx="9.81327" cy="4.27596" rx="0.395961" ry="0.763166" transform="rotate(91.8573 9.81327 4.27596)" fill="#F0F0F0"/>
<ellipse rx="0.26628" ry="0.513212" transform="matrix(-0.0324097 0.999475 -0.999475 -0.0324108 8.39347 11.3669)" fill="#F0F0F0"/>
</svg>
