<svg width="20" height="20" viewBox="0 0 20 20" fill="none" xmlns="http://www.w3.org/2000/svg">
<g clip-path="url(#clip0_2339_3425)">
<path d="M9.97417 -3.68377e-05C11.9308 0.013087 13.8398 0.6053 15.4604 1.70192C17.0809 2.79854 18.3405 4.35046 19.0802 6.16198C19.8199 7.97349 20.0066 9.96348 19.6169 11.881C19.2271 13.7985 18.2783 15.5577 16.8901 16.9366C15.5018 18.3156 13.7364 19.2527 11.8163 19.6296C9.89623 20.0065 7.90754 19.8065 6.10101 19.0547C4.29448 18.3029 2.75101 17.033 1.66525 15.4051C0.579483 13.7773 4.40115e-05 11.8644 0 9.90768C0.00888276 7.2712 1.0647 4.74622 2.93521 2.88818C4.80571 1.03014 7.33769 -0.00877795 9.97417 -3.68377e-05V-3.68377e-05Z" fill="#2B61D1"/>
<path d="M11.1564 15.6606L10.0202 16.3167L7.57959 14.9096L8.68798 14.2696L8.71572 14.2535L8.7583 14.278L11.1564 15.6606Z" fill="white"/>
<path d="M15.5176 6.7961V8.11674L13.115 6.72965L12.4634 6.35352L11.8118 6.72965L8.75826 8.49351L8.10665 8.86964V9.64835L6.93182 8.97029L6.28021 8.59416L5.6286 8.97029L4.52344 9.6077V6.7961L10.0202 3.62256L15.5176 6.7961Z" fill="white"/>
<path d="M15.5174 9.61931V13.1483L12.4639 14.9096H12.46L9.40967 13.1483V9.61931L12.4639 7.85544L15.5174 9.61931Z" fill="white"/>
<path d="M8.03633 11.1109V13.1387L6.27956 14.1535L4.52344 13.1393V11.1116L6.28021 10.0974L8.03633 11.1109Z" fill="white"/>
</g>
<defs>
<clipPath id="clip0_2339_3425">
<rect width="19.9999" height="20" fill="white"/>
</clipPath>
</defs>
</svg>
