<svg width="20" height="20" viewBox="0 0 20 20" fill="none" xmlns="http://www.w3.org/2000/svg">
<path d="M0 3.53846C0 1.58422 1.58422 0 3.53846 0H16.4615C18.4158 0 20 1.58422 20 3.53846V16.4615C20 18.4158 18.4158 20 16.4615 20H3.53846C1.58422 20 0 18.4158 0 16.4615V3.53846Z" fill="#46C6AD"/>
<path d="M6.92285 8.69396V16.4421C7.01367 16.7183 7.35041 17.2625 7.97079 17.2294C8.59117 17.1962 8.91393 16.6907 8.99777 16.4421V12.1123H13.1266C13.469 12.1054 14.1536 11.8968 14.1536 11.1179C14.1536 10.3389 13.469 10.0613 13.1266 10.0199H8.99777C8.87202 9.62623 8.83429 8.51165 9.68941 7.20234C10.5445 5.89303 12.5049 5.77287 13.3781 5.87646C13.6366 5.82812 14.1536 5.5657 14.1536 4.90276C14.1536 4.23981 13.6366 3.92215 13.3781 3.84619C10.7793 3.84619 10.3182 4.05336 8.78818 5.19279C7.6169 6.06509 7.02066 7.83766 6.92285 8.69396Z" fill="white"/>
</svg>
