<svg width="20" height="20" viewBox="0 0 20 20" fill="none" xmlns="http://www.w3.org/2000/svg">
<path d="M20 20H0V0H20V20Z" fill="black"/>
<path d="M7.38883 16.3068C6.51841 15.6748 5.7012 15.0815 4.86099 14.4714C5.74453 13.4143 6.5318 12.3337 7.09977 11.0216C6.45538 10.7332 5.86449 10.4363 5.24955 10.2026C4.6333 9.9685 3.99306 9.79749 3.28711 9.57476C3.60022 8.60579 3.91274 7.63861 4.23565 6.6393C5.52692 7.15603 6.80154 7.54957 8.15989 7.69759C8.53642 6.36373 8.38904 5.01199 8.43234 3.65137H11.4645C11.5149 4.9814 11.3712 6.33134 11.7452 7.68627C13.0906 7.56307 14.3573 7.15129 15.6745 6.64436C15.9951 7.62865 16.3087 8.59139 16.6354 9.59431C15.2886 9.94611 14.0367 10.357 12.8397 11.0489C13.3691 12.3237 14.166 13.3973 15.0527 14.4726C14.2137 15.0805 13.3868 15.6796 12.5273 16.3024C11.7941 15.1372 11.0016 14.077 9.97531 13.1403C8.93291 14.0483 8.13389 15.1184 7.38882 16.3068H7.38883Z" fill="white"/>
</svg>
