<svg width="20" height="20" viewBox="0 0 20 20" fill="none" xmlns="http://www.w3.org/2000/svg">
<circle cx="10" cy="10" r="10" fill="white"/>
<path fill-rule="evenodd" clip-rule="evenodd" d="M4.46756 3.06664C4.38483 3.11899 4.39488 3.14826 4.5185 3.21446C4.60324 3.25981 4.74056 3.2969 4.82367 3.2969C4.9067 3.2969 5.16042 3.36638 5.38747 3.45135C5.85067 3.62464 6.1102 3.9068 6.23851 4.3767C6.29376 4.57903 6.32005 6.37224 6.32027 9.96693C6.32079 15.8769 6.32549 15.8153 5.83608 16.245C5.66971 16.3911 5.34905 16.5423 4.94327 16.6662C4.59498 16.7723 4.31006 16.8908 4.31006 16.9293C4.31006 17.0243 10.4673 17.0232 10.5261 16.9282C10.5502 16.8891 10.4265 16.822 10.2512 16.779C9.08806 16.494 8.79681 16.3147 8.57877 15.7497C8.45202 15.4213 8.44308 15.045 8.44308 10.0363V4.67457L8.60759 4.31831C8.86748 3.75533 8.97717 3.73061 11.1922 3.73545C13.2228 3.73984 13.557 3.78594 14.1713 4.14592C14.5475 4.36642 15.0242 5.00916 15.1886 5.51771C15.3186 5.91999 15.5472 6.35012 15.6308 6.35012C15.7324 6.35012 15.7184 5.67752 15.5914 4.45117C15.5321 3.87776 15.4828 3.38477 15.482 3.35565C15.4811 3.32654 15.407 3.23434 15.3174 3.15087C15.1565 3.00096 15.086 2.99902 9.86254 3.00014C6.95207 3.00081 4.52431 3.03067 4.46756 3.06664Z" fill="black"/>
</svg>
