<svg width="20" height="20" viewBox="0 0 20 20" fill="none" xmlns="http://www.w3.org/2000/svg">
<circle cx="10" cy="10" r="10" fill="#386FF9"/>
<path fill-rule="evenodd" clip-rule="evenodd" d="M14.2804 5.60881L13.7957 8.51352L12.0721 6.48739L14.2804 5.60881ZM13.7957 9.75071L14.2265 11.3465L10.9231 12.261L13.7957 9.75071ZM6.61433 8.96178L8.39171 6.64876H11.4617L13.4186 8.96178H6.61433ZM13.2032 9.51762L10.0075 12.3147L6.74001 9.51762H13.2032ZM7.79925 6.48739L6.21936 8.54938L5.73462 5.60881L7.79925 6.48739ZM9.05599 12.261L5.71667 11.3465L6.1655 9.78657L9.05599 12.261ZM9.6664 13.014L9.03803 13.6954C8.49943 13.1933 7.92493 12.7451 7.29656 12.3506L9.6664 13.014ZM12.7185 12.3506C12.0901 12.7451 11.5156 13.1933 10.977 13.6954L10.3307 12.9961L12.7185 12.3506ZM14.9985 4.69436L11.5335 6.07499H8.30195L4.99854 4.69436L5.75257 9.23073L5.03444 11.6872L6.91954 12.8168C7.81721 13.3547 8.60715 14.0181 9.28938 14.7891L10.0255 15.6319L10.7975 14.7533C11.4617 14.0002 12.2337 13.3547 13.0775 12.8168L14.9088 11.6693L14.2445 9.23073L14.9985 4.69436Z" fill="white"/>
</svg>
