<svg width="20" height="20" viewBox="0 0 20 20" fill="none" xmlns="http://www.w3.org/2000/svg">
<path d="M9.99991 19.4174C15.201 19.4174 19.4173 15.2011 19.4173 10C19.4173 4.79895 15.201 0.582642 9.99991 0.582642C4.79883 0.582642 0.58252 4.79895 0.58252 10C0.58252 15.2011 4.79883 19.4174 9.99991 19.4174Z" fill="black"/>
<path fill-rule="evenodd" clip-rule="evenodd" d="M10 1.16521C5.12068 1.16521 1.16521 5.12068 1.16521 10C1.16521 14.8793 5.12068 18.8348 10 18.8348C14.8793 18.8348 18.8348 14.8793 18.8348 10C18.8348 5.12068 14.8793 1.16521 10 1.16521ZM0 10C0 4.47715 4.47715 0 10 0C15.5228 0 20 4.47715 20 10C20 15.5228 15.5228 20 10 20C4.47715 20 0 15.5228 0 10Z" fill="black"/>
<path d="M4.80473 4.76195C4.40765 5.17888 4.08006 5.52964 4.07675 5.53625C4.07344 5.54618 4.43082 5.89693 4.87091 6.31387C5.31101 6.73411 5.69485 7.10141 5.72132 7.12457L5.77096 7.1709L5.68162 7.3198C4.89738 8.61693 4.73524 10.1788 5.22828 11.6149C5.32094 11.8862 5.47977 12.2337 5.61544 12.462C5.68162 12.5745 5.7114 12.6473 5.70478 12.6605C5.69816 12.6737 5.29777 13.0973 4.81466 13.6036C4.33155 14.1065 3.93778 14.5268 3.93116 14.5334C3.92785 14.5433 5.28123 15.8504 5.41028 15.9563L5.45991 15.9993L6.22429 15.2018C6.64453 14.7617 7.0383 14.3481 7.09786 14.2852L7.21037 14.1727L7.31626 14.2389C7.85562 14.583 8.48764 14.8213 9.18584 14.947C9.53659 15.0099 10.205 15.0264 10.5789 14.9801C11.3003 14.8974 12.015 14.6558 12.6007 14.3018L12.7529 14.2091L12.9151 14.368C13.2691 14.7121 14.5927 15.9695 14.606 15.9761C14.6192 15.9827 16.0719 14.4639 16.0685 14.4441C16.0652 14.4341 15.0692 13.4778 14.4604 12.9054L14.2585 12.7135L14.3512 12.5612C15.1288 11.2674 15.2909 9.69897 14.788 8.25294C14.7152 8.04116 14.4935 7.56467 14.3644 7.34627L14.3015 7.23708L15.152 6.34696C15.6185 5.86053 15.9991 5.45353 15.9957 5.4436C15.9825 5.41051 14.4935 4.00419 14.4736 4.00419C14.4604 4.00419 14.0865 4.38472 13.6397 4.8546C13.193 5.32117 12.8224 5.70501 12.8125 5.70832C12.8059 5.71163 12.7629 5.69178 12.7232 5.662C12.6106 5.58589 12.3261 5.43037 12.1672 5.35757C11.6841 5.13587 11.2341 5.0002 10.7113 4.92409C10.4399 4.88438 9.62593 4.87776 9.37445 4.91416C8.77221 5.0002 8.27917 5.1491 7.77621 5.40058C7.63061 5.47007 7.46185 5.56273 7.39567 5.60243L7.27655 5.67523L7.14088 5.54287C7.06808 5.47007 6.73718 5.15903 6.40959 4.84467C6.082 4.53363 5.7478 4.21597 5.66838 4.13655L5.52278 3.99426L4.80473 4.76195ZM10.3605 6.91941C10.8867 6.98228 11.3565 7.16097 11.79 7.4654C12.0117 7.62092 12.3426 7.95182 12.4981 8.17352C13.3816 9.42432 13.2129 11.1251 12.1011 12.1675C11.1514 13.0543 9.77815 13.2528 8.62331 12.6638C7.78944 12.237 7.20044 11.456 7.01183 10.5196C6.95227 10.2218 6.95227 9.66588 7.01183 9.37138C7.06808 9.08018 7.14419 8.87172 7.28648 8.58053C7.85562 7.43562 9.08988 6.7672 10.3605 6.91941Z" fill="white"/>
</svg>
