<svg width="20" height="20" viewBox="0 0 20 20" fill="none" xmlns="http://www.w3.org/2000/svg">
<circle cx="10" cy="10" r="10" fill="#422E2A"/>
<path fill-rule="evenodd" clip-rule="evenodd" d="M15.4748 3.43039H6V16.9304H7.14894V12.3346H11.1702L11.7447 11.1857H7.34578C7.62332 10.6131 7.98595 9.91179 8.36845 9.30014C8.62573 8.88873 8.87815 8.54051 9.10624 8.30196C9.22009 8.18289 9.31385 8.10609 9.38506 8.06208C9.42573 8.03695 9.44906 8.02862 9.45695 8.02619C9.71868 8.02933 9.84862 8.15545 10.1472 8.52862L10.173 8.56102C10.4473 8.90505 10.8917 9.4623 11.7447 9.4623C12.3048 9.4623 12.7344 9.07669 13.0284 8.71775C13.3422 8.33454 13.6258 7.82865 13.8778 7.3063C14.2267 6.58294 14.5535 5.74119 14.827 5.03698C14.9448 4.73347 15.0527 4.4555 15.1482 4.22359L15.4748 3.43039ZM7.39431 8.69096C7.31119 8.82389 7.22921 8.96024 7.14894 9.09812V4.57933H13.7716L13.7323 4.68073C13.4663 5.36638 13.172 6.12506 12.843 6.80714C12.6042 7.30207 12.3672 7.71174 12.1395 7.98977C11.8919 8.29207 11.7591 8.31337 11.7447 8.31337C11.4761 8.31337 11.3467 8.18884 11.0443 7.81088L11.0185 7.77848C10.7442 7.43446 10.2998 6.8772 9.44681 6.8772C9.18838 6.8772 8.96107 6.97347 8.78105 7.08472C8.59868 7.19743 8.42944 7.34728 8.27581 7.50795C7.96893 7.82891 7.66842 8.25264 7.39431 8.69096Z" fill="white"/>
</svg>
