<svg width="20" height="20" viewBox="0 0 20 20" fill="none" xmlns="http://www.w3.org/2000/svg">
<g clip-path="url(#clip0_5410_41368)">
<path fill-rule="evenodd" clip-rule="evenodd" d="M10 0C11.9778 0 13.9112 0.58649 15.5557 1.6853C17.2002 2.78412 18.4819 4.3459 19.2388 6.17317C19.9957 8.00043 20.1937 10.0111 19.8079 11.9509C19.422 13.8907 18.4696 15.6725 17.0711 17.0711C15.6725 18.4696 13.8907 19.422 11.9509 19.8079C10.0111 20.1937 8.00043 19.9957 6.17317 19.2388C4.3459 18.4819 2.78412 17.2002 1.6853 15.5557C0.58649 13.9112 0 11.9778 0 10C0 7.34784 1.05357 4.8043 2.92893 2.92893C4.8043 1.05357 7.34784 0 10 0Z" fill="black"/>
<path d="M7.76779 5.58506C5.28747 9.38931 3.76394 14.6722 3.16973 16.4668C2.83554 13.0791 4.59987 8.46823 5.89176 5.74254C5.29754 5.77001 2.12962 5.99341 0.374451 7.80718C0.374451 7.80718 1.32208 4.89563 6.79361 4.01209L6.81192 3.97455C11.0941 -2.28529 14.3078 1.45395 14.3078 1.45395C12.3567 1.128 10.6574 2.10493 9.208 3.69529C9.91391 3.66783 14.4845 3.61198 15.8002 7.22945C15.8002 7.22945 13.1523 5.33236 7.76504 5.5814L7.76779 5.58506ZM10.8615 9.9469C10.4677 9.94636 10.0826 10.0626 9.75494 10.281C9.42725 10.4994 9.1717 10.8101 9.02062 11.1737C8.86955 11.5374 8.82974 11.9377 8.90623 12.324C8.98272 12.7103 9.17208 13.0652 9.45034 13.3439C9.72861 13.6225 10.0833 13.8124 10.4695 13.8894C10.8556 13.9664 11.256 13.9272 11.6199 13.7766C11.9838 13.626 12.2948 13.3709 12.5136 13.0435C12.7325 12.7161 12.8493 12.3312 12.8493 11.9374C12.8499 11.676 12.7989 11.4172 12.6992 11.1756C12.5996 10.934 12.4533 10.7144 12.2686 10.5295C12.0839 10.3446 11.8646 10.198 11.6231 10.098C11.3817 9.998 11.1229 9.94666 10.8615 9.9469Z" fill="#FEFEFE"/>
</g>
<defs>
<clipPath id="clip0_5410_41368">
<rect width="20" height="20" fill="white"/>
</clipPath>
</defs>
</svg>
