<svg width="20" height="20" viewBox="0 0 20 20" fill="none" xmlns="http://www.w3.org/2000/svg">
<rect width="20" height="20" fill="#065DEA"/>
<path fill-rule="evenodd" clip-rule="evenodd" d="M6.17051 5.20838C5.66556 5.49369 4.94801 5.89887 4.57594 6.10874L3.89946 6.49033L3.8868 8.34423C3.87694 9.79069 3.88757 10.2089 3.93512 10.2474C3.96866 10.2744 4.28965 10.4638 4.64842 10.6681C5.0072 10.8725 5.70533 11.2748 6.19979 11.5621C6.69425 11.8495 7.12937 12.0846 7.16672 12.0846C7.22654 12.0846 7.69332 11.8208 9.13079 10.9744C9.35041 10.8451 9.54064 10.7393 9.55359 10.7393C9.5665 10.7393 9.57708 11.256 9.57708 11.8875V13.0356L9.34756 13.1769C9.15379 13.2961 7.31212 14.366 7.19475 14.4275C7.17344 14.4386 6.956 14.33 6.71155 14.1861C6.46714 14.0423 6.11948 13.8403 5.93901 13.7373C5.75853 13.6344 5.47586 13.4709 5.31084 13.3741C5.14583 13.2774 4.92201 13.151 4.81348 13.0933L4.6161 12.9885L4.21963 13.1867C4.00156 13.2957 3.83447 13.4032 3.84834 13.4255C3.86216 13.4477 4.16203 13.6277 4.51462 13.8254C4.86726 14.0231 5.60753 14.4386 6.15968 14.7487L7.16358 15.3125L7.75425 14.9793C8.0791 14.7961 8.81787 14.3812 9.39588 14.0572L10.4468 13.4682V12.1758C10.4468 11.465 10.4556 10.8835 10.4664 10.8835C10.4771 10.8835 10.8088 11.0735 11.2033 11.3058C12.3707 11.993 12.7975 12.2288 12.8738 12.2288C12.9134 12.2288 13.4001 11.9665 13.9553 11.6459C14.5105 11.3254 15.2312 10.9101 15.5567 10.7232L16.1486 10.3833V8.51994V6.65652L15.9563 6.53583C15.8505 6.46943 15.7546 6.41509 15.7431 6.41509C15.7316 6.41509 15.5736 6.33096 15.3918 6.22814C15.2101 6.12536 14.5722 5.76511 13.9742 5.42758L12.887 4.81397L12.5488 4.99597C12.1016 5.23659 10.7251 6.00846 10.434 6.18182C10.3074 6.25725 10.1841 6.31899 10.16 6.31899C10.1359 6.31899 9.91339 6.20354 9.66546 6.06242C8.00948 5.11993 7.21736 4.68568 7.15749 4.68751C7.11961 4.68866 6.67545 4.92308 6.17051 5.20838ZM16.1748 5.56648C16.0202 5.82886 16.0212 5.86817 16.1849 5.95283C16.4142 6.07145 16.5395 6.24505 16.5752 6.49364L16.6089 6.72739H16.8982H17.1875L17.184 6.41509C17.1812 6.16298 17.1557 6.06372 17.0515 5.90012C16.9284 5.70673 16.4814 5.35805 16.3567 5.35805C16.3242 5.35805 16.2424 5.45184 16.1748 5.56648ZM7.8721 5.98997C8.23846 6.20536 8.70765 6.48427 8.9148 6.60973L9.29141 6.83781L8.60072 7.23338C8.22083 7.45094 7.74695 7.72629 7.54763 7.84535L7.18523 8.06176L6.96779 7.94433C6.36572 7.61915 5.08359 6.8676 5.08345 6.83978C5.0833 6.80667 5.28833 6.67843 6.41211 6.0089C6.78417 5.78721 7.11502 5.60415 7.1473 5.60208C7.17958 5.59997 7.50574 5.77452 7.8721 5.98997ZM13.4922 6.09341C13.8237 6.28647 14.3614 6.60483 14.6869 6.80091L15.2789 7.15737V8.55506V9.95275L15.0977 10.0495C14.8968 10.1566 13.1406 11.1656 12.9764 11.2681C12.8812 11.3276 12.7936 11.2871 11.9134 10.7761C11.3858 10.4699 10.8672 10.1718 10.7609 10.1139C10.6546 10.0559 10.5405 9.98643 10.5072 9.95957C10.4615 9.92257 10.4468 9.57726 10.4468 8.53348V7.15617L11.1339 6.74959C11.5118 6.52598 11.8383 6.33571 11.8595 6.32673C11.8807 6.31779 12.1089 6.18264 12.3665 6.02643C12.6242 5.87023 12.8472 5.74243 12.8622 5.74243C12.8771 5.74243 13.1606 5.90036 13.4922 6.09341ZM5.96635 8.31295L6.72242 8.74537L6.7243 9.83546L6.72619 10.9256L6.06179 10.5386C5.69639 10.3259 5.25059 10.0668 5.07122 9.96293L4.74506 9.77411V8.6942V7.61434L4.97768 7.74743C5.10558 7.82061 5.55051 8.07512 5.96635 8.31295ZM9.5865 8.70929C9.57843 9.28408 9.55669 9.76926 9.53818 9.78747C9.48169 9.84306 7.6737 10.8835 7.63354 10.8835C7.61286 10.8835 7.59595 10.4073 7.59595 9.82523V8.76704L7.80131 8.64635C7.91424 8.57999 8.25673 8.38295 8.56235 8.20845C8.86798 8.03399 9.19414 7.84146 9.28716 7.78063C9.61018 7.56947 9.60288 7.54679 9.5865 8.70929ZM2.83038 13.1641C2.77143 13.3168 2.86609 13.76 2.99993 13.9581C3.13383 14.1564 3.54914 14.487 3.66433 14.487C3.73314 14.487 3.98982 14.0808 3.96411 14.0126C3.95513 13.9889 3.84993 13.8958 3.73034 13.8058C3.53991 13.6627 3.50662 13.6097 3.46216 13.38L3.41143 13.1177L3.13542 13.1032C2.9202 13.092 2.85299 13.1054 2.83038 13.1641Z" fill="white"/>
</svg>
