<svg width="20" height="20" viewBox="0 0 20 20" fill="none" xmlns="http://www.w3.org/2000/svg">
<path d="M19.2566 4.53121L19.1718 4.48746C19.1462 4.46849 19.1191 4.45127 19.0907 4.43596L10.9462 0.260479C10.8634 0.219004 10.777 0.183379 10.6879 0.153933C10.4716 0.0502877 10.229 -0.00267794 9.9832 3.84231e-05C9.73738 0.00275479 9.4964 0.0610635 9.28302 0.169457L4.11454 2.81108L0.901001 4.44021C0.866475 4.45866 0.833772 4.47966 0.803243 4.50301L0.750031 4.53124C0.529854 4.64365 0.346978 4.80565 0.21987 5.00089C0.0927614 5.19613 0.0259195 5.41768 0.0260929 5.64319V14.208C0.0261796 14.4786 0.106581 14.7444 0.259199 14.9786C0.411816 15.2129 0.631261 15.4072 0.895425 15.5422L9.28299 19.8285C9.50229 19.9408 9.75101 19.9999 10.0042 19.9999C10.2574 19.9999 10.5061 19.9408 10.7254 19.8285L19.2575 15.4688C19.4777 15.3563 19.6606 15.1943 19.7878 14.9991C19.915 14.8039 19.9821 14.5824 19.9823 14.3568V5.64319C19.982 5.41759 19.9147 5.19603 19.7873 5.00083C19.6599 4.80562 19.4769 4.64365 19.2566 4.53121Z" fill="#EC1966"/>
<g opacity="0.1">
<path d="M0.00236403 5.8351L0.0929696 14.1854C0.0955515 14.4633 0.179645 14.7358 0.336964 14.9761C0.494282 15.2164 0.719396 15.4161 0.99012 15.5556L9.12177 19.7233C9.21487 19.7712 9.32061 19.7964 9.42824 19.7963C9.53586 19.7961 9.64152 19.7707 9.73446 19.7225C9.8274 19.6743 9.90431 19.6051 9.95735 19.522C10.0104 19.4388 10.0377 19.3447 10.0364 19.2491L9.93865 10.3084C9.93787 10.2142 9.90937 10.1218 9.85599 10.0404C9.80261 9.95893 9.7262 9.89129 9.63432 9.84415L0.89715 5.36732C0.807321 5.32027 0.70505 5.2952 0.600757 5.29468C0.521805 5.2947 0.443631 5.30853 0.370703 5.33539C0.297775 5.36225 0.231523 5.4016 0.175732 5.4512C0.119941 5.5008 0.0757058 5.55968 0.0455528 5.62447C0.0153998 5.68925 -7.93229e-05 5.75868 3.05664e-07 5.82878V5.83373" fill="black"/>
<mask id="mask0_5342_41349" style="mask-type:luminance" maskUnits="userSpaceOnUse" x="0" y="5" width="11" height="15">
<path d="M0.00236403 5.8351L0.0929696 14.1854C0.0955515 14.4633 0.179645 14.7358 0.336964 14.9761C0.494282 15.2164 0.719396 15.4161 0.99012 15.5556L9.12177 19.7233C9.21487 19.7712 9.32061 19.7964 9.42824 19.7963C9.53586 19.7961 9.64152 19.7707 9.73446 19.7225C9.8274 19.6743 9.90431 19.6051 9.95735 19.522C10.0104 19.4388 10.0377 19.3447 10.0364 19.2491L9.93865 10.3084C9.93787 10.2142 9.90937 10.1218 9.85599 10.0404C9.80261 9.95893 9.7262 9.89129 9.63432 9.84415L0.89715 5.36732C0.807321 5.32027 0.70505 5.2952 0.600757 5.29468C0.521805 5.2947 0.443631 5.30853 0.370703 5.33539C0.297775 5.36225 0.231523 5.4016 0.175732 5.4512C0.119941 5.5008 0.0757058 5.55968 0.0455528 5.62447C0.0153998 5.68925 -7.93229e-05 5.75868 3.05664e-07 5.82878V5.83373" fill="white"/>
</mask>
<g mask="url(#mask0_5342_41349)">
<path d="M7.49819 1.4071L-7.17699 9.00787L2.55079 23.8145L17.226 16.2137L7.49819 1.4071Z" fill="black"/>
</g>
</g>
<g opacity="0.2">
<path d="M19.098 5.3567L10.2503 9.84265C10.1558 9.89043 10.0773 9.95977 10.0231 10.0435C9.9689 10.1272 9.94088 10.2223 9.94195 10.3189L10.0397 19.271C10.0407 19.3657 10.0696 19.4586 10.1235 19.5403C10.1775 19.622 10.2546 19.6897 10.3472 19.7366C10.4399 19.7836 10.5447 19.8082 10.6514 19.808C10.7581 19.8077 10.8628 19.7827 10.9552 19.7353L19.0995 15.5619C19.3733 15.4217 19.6007 15.2199 19.7587 14.9769C19.9168 14.7339 19.9999 14.4582 19.9998 14.1776V5.81956C20.0016 5.75053 19.9881 5.68187 19.96 5.61749C19.9319 5.55311 19.8897 5.49428 19.836 5.44436C19.7823 5.39444 19.718 5.3544 19.6469 5.32653C19.5757 5.29866 19.4991 5.2835 19.4214 5.28193C19.3093 5.27922 19.1986 5.30518 19.1027 5.35673" fill="black"/>
<mask id="mask1_5342_41349" style="mask-type:luminance" maskUnits="userSpaceOnUse" x="9" y="5" width="11" height="15">
<path d="M19.098 5.3567L10.2503 9.84265C10.1558 9.89043 10.0773 9.95977 10.0231 10.0435C9.9689 10.1272 9.94088 10.2223 9.94195 10.3189L10.0397 19.271C10.0407 19.3657 10.0696 19.4586 10.1235 19.5403C10.1775 19.622 10.2546 19.6897 10.3472 19.7366C10.4399 19.7836 10.5447 19.8082 10.6514 19.808C10.7581 19.8077 10.8628 19.7827 10.9552 19.7353L19.0995 15.5619C19.3733 15.4217 19.6007 15.2199 19.7587 14.9769C19.9168 14.7339 19.9999 14.4582 19.9998 14.1776V5.81956C20.0016 5.75053 19.9881 5.68187 19.96 5.61749C19.9319 5.55311 19.8897 5.49428 19.836 5.44436C19.7823 5.39444 19.718 5.3544 19.6469 5.32653C19.5757 5.29866 19.4991 5.2835 19.4214 5.28193C19.3093 5.27922 19.1986 5.30518 19.1027 5.35673" fill="white"/>
</mask>
<g mask="url(#mask1_5342_41349)">
<path d="M18.6338 2.21868L4.29089 7.26337L11.3065 22.9883L25.6495 17.9436L18.6338 2.21868Z" fill="black"/>
</g>
</g>
<path d="M14.2926 15.2782C14.1817 15.2782 14.0753 15.2393 13.9967 15.1699C13.9181 15.1005 13.8736 15.0062 13.8729 14.9078L13.8507 11.325C13.8504 11.249 13.8762 11.1748 13.9248 11.1123C13.9733 11.0497 14.0423 11.0018 14.1223 10.9751C14.2024 10.9483 14.2897 10.9438 14.3727 10.9624C14.4556 10.9809 14.5303 11.0215 14.5865 11.0787L16.1941 12.7185L16.1846 10.2539C16.1844 10.1552 16.2282 10.0605 16.3066 9.99051C16.385 9.92053 16.4914 9.88103 16.6026 9.88068H16.6041C16.7152 9.8806 16.8217 9.91963 16.9004 9.98921C16.9791 10.0588 17.0235 10.1532 17.0238 10.2518L17.0365 13.7161C17.037 13.7921 17.0113 13.8664 16.9628 13.9289C16.9143 13.9915 16.8454 14.0394 16.7653 14.0662C16.6852 14.0929 16.5979 14.0972 16.5149 14.0786C16.432 14.0599 16.3575 14.0191 16.3015 13.9617L14.6963 12.324L14.7122 14.9042C14.7126 15.0029 14.669 15.0977 14.5908 15.1678C14.5125 15.238 14.4062 15.2777 14.295 15.2782H14.2926Z" fill="white"/>
<path d="M10.5156 6.32689C10.1775 6.3268 9.84275 6.26783 9.53025 6.15332C9.51402 6.14765 9.49834 6.14081 9.48337 6.13287L6.67107 4.71045C6.57663 4.66274 6.50742 4.58367 6.47865 4.49064C6.44987 4.39761 6.4639 4.29824 6.51764 4.21439C6.57139 4.13055 6.66044 4.06909 6.76522 4.04355C6.86999 4.018 6.98191 4.03045 7.07634 4.07817L9.86467 5.48856C10.0773 5.56412 10.3047 5.60153 10.5338 5.59863C11.1974 5.59863 11.6932 5.31147 11.7042 5.05113C11.6984 4.9843 11.6752 4.91958 11.6365 4.86204C11.5977 4.80451 11.5445 4.75573 11.481 4.71952C11.4654 4.71354 11.4503 4.7067 11.4357 4.69905L11.3109 4.63485L9.0557 3.47844C9.0091 3.45454 8.96827 3.42272 8.93552 3.3848C8.90278 3.34689 8.87876 3.30361 8.86485 3.25746C8.85094 3.2113 8.84741 3.16316 8.85445 3.11579C8.86149 3.06842 8.87897 3.02275 8.9059 2.98138C8.93282 2.94001 8.96866 2.90375 9.01136 2.87467C9.05407 2.8456 9.1028 2.82428 9.15479 2.81193C9.20677 2.79958 9.26099 2.79644 9.31434 2.80269C9.36769 2.80894 9.41913 2.82446 9.46573 2.84837L11.8084 4.04995C11.8217 4.05461 11.8347 4.06 11.8473 4.06609C12.0425 4.16101 12.2072 4.2987 12.3256 4.46607C12.444 4.63344 12.5122 4.82491 12.5237 5.02229L12.5245 5.04204C12.5245 5.76241 11.6512 6.32686 10.5371 6.32686L10.5156 6.32689Z" fill="white"/>
<path d="M3.26587 15.2494C3.1436 15.2493 3.02637 15.2062 2.93982 15.1295C2.85327 15.0528 2.80444 14.9488 2.8041 14.8402L2.7883 10.1871C2.78806 10.1154 2.80907 10.0448 2.84914 9.98249C2.88922 9.92018 2.94698 9.8683 3.0167 9.83202C3.08642 9.79573 3.16564 9.77631 3.24646 9.77571C3.32727 9.77511 3.40683 9.79335 3.47722 9.8286L7.02545 11.6081C7.07877 11.6343 7.12574 11.6697 7.16359 11.7121C7.20144 11.7546 7.22948 11.8033 7.24604 11.8554C7.26259 11.9075 7.26735 11.9619 7.26006 12.0157C7.25278 12.0694 7.2336 12.1214 7.2036 12.1685C7.1736 12.2156 7.13334 12.257 7.08523 12.2903C7.03712 12.3235 6.98211 12.348 6.9233 12.3623C6.86448 12.3766 6.80302 12.3803 6.74254 12.3734C6.68207 12.3665 6.62374 12.3491 6.57091 12.322L3.7142 10.8898L3.71976 12.4175L6.37234 13.7134C6.46213 13.7573 6.53293 13.8265 6.57357 13.91C6.61421 13.9936 6.62235 14.0868 6.59677 14.1749C6.57119 14.263 6.51335 14.3411 6.43229 14.3968C6.35124 14.4525 6.25159 14.4827 6.14909 14.4825C6.07143 14.4826 5.99503 14.4651 5.92715 14.4316L3.7232 13.3554L3.72858 14.8382C3.72882 14.947 3.68044 15.0514 3.59399 15.1285C3.50755 15.2056 3.39012 15.2491 3.26759 15.2494H3.26587Z" fill="white"/>
</svg>
