<svg width="20" height="20" viewBox="0 0 20 20" fill="none" xmlns="http://www.w3.org/2000/svg">
<path d="M20 10C20 15.5228 15.5228 20 10 20C4.47715 20 0 15.5228 0 10C0 4.47715 4.47715 1.13893e-06 10 1.13893e-06C15.5228 1.13893e-06 20 4.47715 20 10Z" fill="#72F34B"/>
<path d="M8.8666 0.037965C8.82123 0.0662968 8.65107 0.0946285 8.49793 0.0946285C8.33911 0.0946285 8.12358 0.122961 8.01582 0.156959C7.90805 0.190957 7.71521 0.241954 7.59042 0.264619C7.23309 0.338282 7.00622 0.40628 6.45604 0.604602C6.05901 0.746261 4.95299 1.29023 4.78283 1.42622C4.70343 1.48855 4.57297 1.57921 4.48789 1.61888C4.40281 1.66421 4.2837 1.73787 4.23266 1.78887C4.17594 1.83987 4.01712 1.9532 3.87533 2.04386C3.53501 2.26484 2.30988 3.48878 2.0036 3.91942C1.86747 4.10641 1.74269 4.27073 1.72 4.28773C1.70299 4.30473 1.6406 4.40673 1.58955 4.52005C1.5385 4.63338 1.4591 4.75804 1.40805 4.79771C1.36267 4.83737 1.32297 4.89403 1.32297 4.92803C1.32297 4.95636 1.26058 5.06969 1.18117 5.17169C1.10177 5.27368 1.03938 5.37567 1.03938 5.39267C1.03938 5.43234 0.976985 5.58533 0.744437 6.10097C0.585624 6.45228 0.551593 6.53728 0.443826 6.89426C0.387107 7.06425 0.324716 7.26257 0.296357 7.33623C0.267997 7.4099 0.24531 7.52889 0.24531 7.60822C0.24531 7.68755 0.21695 7.80654 0.182919 7.86887C-0.0609729 8.32218 -0.0609729 11.6993 0.182919 12.1526C0.21695 12.215 0.24531 12.3623 0.24531 12.47C0.24531 12.5833 0.273669 12.6739 0.302029 12.6739C0.33606 12.6739 0.358748 12.7306 0.358748 12.7986C0.36442 12.9233 0.517561 13.4276 0.591296 13.5522C0.613983 13.5806 0.642343 13.6769 0.665031 13.7619C0.682046 13.8469 0.733093 13.9489 0.772797 13.9885C0.806828 14.0282 0.886235 14.2039 0.948626 14.3738C1.00534 14.5438 1.11311 14.7648 1.18685 14.8612C1.26058 14.9575 1.32297 15.0651 1.32297 15.0935C1.32297 15.1275 1.36267 15.1841 1.40805 15.2238C1.4591 15.2635 1.5385 15.3881 1.58955 15.5015C1.64627 15.6148 1.72 15.7394 1.76538 15.7848C1.80508 15.8301 1.88449 15.9264 1.93554 16.0114C2.21913 16.4477 3.52367 17.751 3.94906 18.023C4.13056 18.1363 4.27236 18.2496 4.27236 18.2723C4.27236 18.295 4.35744 18.3516 4.45953 18.397C4.55596 18.4366 4.66939 18.499 4.69775 18.5216C4.7885 18.601 5.35569 18.9636 5.38973 18.9636C5.42376 18.9636 5.70735 19.0826 6.08737 19.2583C6.22917 19.3206 6.39365 19.3942 6.45604 19.4169C6.99487 19.6096 7.25578 19.6889 7.59042 19.7512C7.72088 19.7739 7.85133 19.8136 7.89103 19.8362C8.25971 20.0629 11.7139 20.0515 12.145 19.8192C12.2074 19.7852 12.3548 19.7569 12.4626 19.7569C12.576 19.7569 12.6668 19.7286 12.6668 19.7002C12.6668 19.6662 12.7235 19.6436 12.7916 19.6436C12.905 19.6436 13.1943 19.5529 13.5459 19.4169C13.6083 19.3942 13.7444 19.3432 13.8465 19.3036C13.943 19.2639 14.028 19.2129 14.028 19.1846C14.028 19.1563 14.0734 19.1336 14.1301 19.1336C14.2322 19.1336 14.5215 19.0203 14.7087 18.9069C15.4403 18.465 15.6842 18.3063 15.8204 18.193C15.9054 18.1193 15.9962 18.057 16.0245 18.057C16.0472 18.057 16.1663 17.9663 16.2798 17.8587C16.3932 17.751 16.5067 17.6603 16.5237 17.6603C16.569 17.6603 17.6581 16.5724 17.6581 16.5327C17.6581 16.5157 17.7488 16.4024 17.8566 16.2777C17.9643 16.1588 18.0551 16.0398 18.0551 16.0114C18.0551 15.9888 18.1118 15.9094 18.1855 15.8358C18.2536 15.7621 18.35 15.6261 18.3954 15.5355C18.4408 15.4391 18.5145 15.3315 18.5542 15.2861C18.5939 15.2465 18.679 15.1218 18.7357 15.0028C18.7981 14.8895 18.8718 14.7592 18.9002 14.7138C19.0136 14.5325 19.1327 14.2379 19.1327 14.1359C19.1327 14.0792 19.1498 14.0339 19.1781 14.0339C19.2235 14.0339 19.3596 13.7562 19.3596 13.6542C19.3596 13.6146 19.3766 13.5806 19.405 13.5806C19.4277 13.5806 19.4787 13.4616 19.5184 13.3086C19.5581 13.1612 19.6149 12.9516 19.6489 12.8439C19.6829 12.7363 19.7226 12.5549 19.7396 12.4473C19.7567 12.3396 19.7907 12.2206 19.819 12.1866C20.0516 11.9033 20.0629 8.27118 19.8361 7.90287C19.8134 7.86321 19.7737 7.73288 19.751 7.60255C19.6886 7.26824 19.6205 7.04158 19.4163 6.46928C19.3937 6.40695 19.3086 6.2143 19.2292 6.0443C19.1498 5.87431 19.0307 5.61933 18.9683 5.47767C18.8435 5.20002 18.5769 4.72971 18.5145 4.68438C18.4975 4.66738 18.4408 4.57672 18.3954 4.48606C18.35 4.38973 18.2933 4.30473 18.2763 4.28773C18.2593 4.27073 18.1345 4.10641 17.9984 3.91942C17.8622 3.73243 17.4709 3.29612 17.1249 2.95614C16.484 2.32151 16.3819 2.23085 15.9848 1.94186C15.8601 1.8512 15.7466 1.76054 15.7296 1.73787C15.7126 1.72087 15.6615 1.68688 15.6162 1.66421C15.5708 1.64155 15.3553 1.51122 15.1341 1.36956C14.9185 1.2279 14.6973 1.09757 14.6519 1.08058C14.6066 1.06358 14.4931 1.01258 14.4081 0.967248C14.3173 0.927584 14.1982 0.88792 14.1358 0.88792C14.0791 0.88792 14.028 0.870919 14.028 0.842588C14.028 0.797257 13.9146 0.74626 13.319 0.525272C13.0978 0.445943 12.8653 0.377946 12.7916 0.377946C12.7235 0.377946 12.6668 0.349614 12.6668 0.321283C12.6668 0.287284 12.576 0.264619 12.4626 0.264619C12.3548 0.264619 12.2074 0.236287 12.145 0.202289C12.0769 0.168291 11.8217 0.111629 11.5664 0.083297C10.9085 -0.0016984 8.9687 -0.0300313 8.8666 0.037965ZM17.193 8.03886L17.1759 8.96248L14.9185 8.97948C13.1489 8.99081 12.6611 9.00781 12.6838 9.06447C12.7008 9.11547 13.234 9.13814 14.9355 9.1608L17.1703 9.18913L17.2043 9.31946C17.2213 9.38746 17.2213 9.77277 17.2043 10.1694L17.1759 10.889L14.9696 10.9004C13.7558 10.906 12.7519 10.9287 12.7348 10.9457C12.7178 10.9627 12.7065 11.3877 12.7178 11.8863C12.7292 12.5266 12.7122 12.8156 12.6668 12.8779C12.6101 12.9403 12.4172 12.9573 11.7593 12.9573C11.2942 12.9573 10.8801 12.9403 10.8291 12.9233C10.7497 12.8949 10.7383 12.6229 10.7383 10.4811C10.7383 8.23152 10.744 8.06153 10.8461 7.84054C10.9539 7.60255 11.1467 7.39856 11.419 7.21724C11.5437 7.13791 11.8727 7.12658 14.3854 7.12658L17.2043 7.12091L17.193 8.03886ZM9.88754 8.87748L7.23877 8.88882L4.58432 8.90581V11.2687L6.30857 11.2574C7.25578 11.2574 8.04985 11.2404 8.07254 11.229C8.1406 11.1894 8.11791 10.9174 8.04985 10.9117C8.01582 10.9117 7.40892 10.9117 6.69993 10.9174L5.40674 10.923V9.33079H7.28414C9.42245 9.33079 9.32603 9.31379 9.67768 9.8181L9.88754 10.1297V11.144C9.88754 12.147 9.88754 12.1583 9.7344 12.4133C9.64365 12.5549 9.5529 12.6739 9.52454 12.6739C9.49051 12.6739 9.4111 12.7306 9.3317 12.7986L9.19557 12.9289H3.38754L3.21739 12.7873C3.12096 12.7079 2.98484 12.5493 2.9111 12.4246C2.78632 12.2093 2.78632 12.1866 2.79199 10.0901C2.79767 8.07853 2.80334 7.95953 2.9111 7.74421C2.97349 7.61955 3.12096 7.45523 3.2344 7.3759L3.44993 7.23424H9.88754V8.87748Z" fill="black"/>
<path d="M11.5328 7.37588C11.4534 7.42121 11.3003 7.54587 11.1925 7.6592L10.994 7.86319L10.96 12.7363L12.5254 12.7023L12.5424 11.7276L12.5538 10.7474L14.7828 10.736L17.0062 10.719L17.0402 9.38744H12.5651L12.5424 9.16645C12.5311 9.04179 12.5311 8.91147 12.5424 8.88313C12.5594 8.8378 13.2741 8.8208 14.7998 8.8208H17.0346V7.29089L14.3574 7.29655C12.2418 7.30222 11.6463 7.31922 11.5328 7.37588Z" fill="black"/>
</svg>
