<svg width="20" height="20" viewBox="0 0 20 20" fill="none" xmlns="http://www.w3.org/2000/svg">
<circle cx="10" cy="10" r="10" fill="white"/>
<path fill-rule="evenodd" clip-rule="evenodd" d="M8.3034 3.00655C7.29174 3.5582 5.8675 4.33066 5.13846 4.72325C4.40943 5.11584 3.74885 5.48396 3.67048 5.54122C3.54444 5.63335 3.90976 5.86615 6.85717 7.57142L10.1863 9.49757L11.4667 8.75398L12.7471 8.01031L12.2047 7.69817L11.6623 7.38604L10.9221 7.81286L10.182 8.23959L7.94104 6.94611C6.7085 6.23475 5.70995 5.64478 5.72211 5.63511C5.86862 5.51875 10.1067 3.2759 10.1802 3.2759C10.2354 3.2759 11.5178 3.94495 13.03 4.76268L15.7794 6.24954L16.3077 5.95404C16.6013 5.78993 16.8056 5.62815 16.7675 5.59008C16.7298 5.55233 16.1415 5.22005 15.4602 4.85153C14.7788 4.48309 13.3148 3.68992 12.2069 3.089C11.0989 2.488 10.1812 1.99801 10.1676 2.00001C10.1539 2.00201 9.31506 2.45497 8.3034 3.00655ZM3.00438 9.97365L3.02517 13.7924L6.42403 15.8865L9.82289 17.9807L9.84369 14.0519C9.85504 11.8911 9.83705 10.0967 9.8037 10.0645C9.69246 9.95726 7.37571 8.6341 7.2991 8.6341C7.25767 8.6341 7.22376 8.89609 7.22376 9.21639V9.79859L7.98287 10.236L8.74205 10.6734L8.74261 13.3325C8.74301 14.795 8.71622 15.9898 8.68327 15.9876C8.65033 15.9853 7.62307 15.3642 6.40052 14.6071L4.17775 13.2307L4.18294 10.0172L4.18814 6.80375L3.63273 6.47938C3.32723 6.30088 3.0562 6.15493 3.03045 6.15493C3.0047 6.15493 2.99294 7.87332 3.00438 9.97365ZM13.9015 8.10844L10.5427 10.0525L10.5209 11.5426C10.5089 12.3621 10.5235 13.0326 10.5532 13.0326C10.583 13.0326 10.8357 12.9049 11.1148 12.7488L11.6223 12.465L11.6228 11.5692L11.6232 10.6734L13.802 9.41848C15.0004 8.72823 16.0348 8.14307 16.1008 8.11795C16.2061 8.07805 16.2185 8.38714 16.2022 10.6525L16.1836 13.2326L13.3432 14.9818L10.5027 16.731V17.3655V18L10.7226 17.8688C10.8436 17.7966 12.382 16.8499 14.1414 15.765L17.3404 13.7924L17.3612 9.97365C17.3726 7.87332 17.3546 6.15701 17.3212 6.15965C17.2877 6.16221 15.7489 7.0392 13.9015 8.10844Z" fill="black"/>
</svg>
