<svg width="20" height="20" viewBox="0 0 20 20" fill="none" xmlns="http://www.w3.org/2000/svg">
<path d="M19.985 9.4525C19.9486 8.775 19.8447 8.11528 19.6797 7.48028C19.5821 7.1031 19.462 6.73208 19.3203 6.36917C18.6131 4.55444 17.3908 2.99694 15.8333 1.87694C14.8125 1.14222 13.6475 0.595556 12.3889 0.287222C11.6233 0.0994444 10.8233 0 10 0C9.17667 0 8.37667 0.0994444 7.61111 0.287222C6.3525 0.595556 5.1875 1.1425 4.16667 1.87694C2.60917 2.99722 1.38694 4.55444 0.679722 6.36917C0.539167 6.72972 0.418611 7.10056 0.320278 7.48028C0.155278 8.11528 0.0513889 8.775 0.015 9.4525C0.005 9.63389 0 9.81639 0 10C0 10.1892 0.00527778 10.3769 0.0158333 10.5636C0.0522222 11.2214 0.152222 11.8625 0.31 12.4803C0.406944 12.8597 0.525556 13.2306 0.664722 13.5914C1.36944 15.4231 2.59778 16.9947 4.16667 18.1231C5.1875 18.8575 6.3525 19.4044 7.61111 19.7128C8.37667 19.9006 9.17667 20 10 20C10.8233 20 11.6233 19.9006 12.3889 19.7128C13.6475 19.4044 14.8125 18.8578 15.8333 18.1231C17.4022 16.9947 18.6306 15.4231 19.3356 13.5914C19.4747 13.2306 19.5931 12.8597 19.69 12.4803C19.8478 11.8625 19.9478 11.2214 19.9842 10.5636C19.9947 10.3769 20 10.1892 20 10C20 9.81639 19.995 9.63389 19.985 9.4525V9.4525Z" fill="#3671FF"/>
<path d="M6.91592 9.50889L9.50869 6.91611C9.72564 6.69917 9.72564 6.3475 9.50869 6.13055C9.29175 5.91361 8.94008 5.91361 8.72314 6.13055L6.13036 8.72333C5.91342 8.94028 5.91342 9.29194 6.13036 9.50889C6.34731 9.72583 6.69897 9.72583 6.91592 9.50889V9.50889ZM13.0443 10.4517L10.4515 13.0444C10.2346 13.2614 10.2346 13.6131 10.4515 13.83C10.6684 14.0469 11.0201 14.0469 11.2371 13.83L13.8298 11.2372C14.0468 11.0203 14.0468 10.6686 13.8298 10.4517C13.6132 10.2347 13.2612 10.2347 13.0443 10.4517ZM13.339 5.87528L5.87511 13.3392C5.65817 13.5561 5.65817 13.9078 5.87511 14.1247C6.09206 14.3417 6.44372 14.3417 6.66067 14.1247L14.1246 6.66083C14.3415 6.44389 14.3415 6.09222 14.1246 5.87528C13.9076 5.65833 13.5559 5.65833 13.339 5.87528V5.87528Z" fill="white"/>
</svg>
