<svg width="20" height="20" viewBox="0 0 20 20" fill="none" xmlns="http://www.w3.org/2000/svg">
<circle cx="10" cy="10" r="10" fill="url(#paint0_linear_3988_53153)"/>
<ellipse cx="9.95598" cy="9.9123" rx="8.28947" ry="8.24561" fill="url(#paint1_linear_3988_53153)"/>
<path opacity="0.5" fill-rule="evenodd" clip-rule="evenodd" d="M10.0001 17.1052C13.9727 17.1052 17.1931 13.8848 17.1931 9.91226C17.1931 5.93968 13.9727 2.71927 10.0001 2.71927C6.02751 2.71927 2.8071 5.93968 2.8071 9.91226C2.8071 13.8848 6.02751 17.1052 10.0001 17.1052ZM10.0001 17.3684C14.118 17.3684 17.4562 14.0302 17.4562 9.91226C17.4562 5.79434 14.118 2.45612 10.0001 2.45612C5.88217 2.45612 2.54395 5.79434 2.54395 9.91226C2.54395 14.0302 5.88217 17.3684 10.0001 17.3684Z" fill="url(#paint2_linear_3988_53153)"/>
<path opacity="0.5" d="M17.1931 9.91228C17.1931 13.8849 13.9727 17.1053 10.0001 17.1053C6.02754 17.1053 2.80713 13.8849 2.80713 9.91228C2.80713 5.93971 6.02754 2.7193 10.0001 2.7193C13.9727 2.7193 17.1931 5.93971 17.1931 9.91228Z" fill="url(#paint3_linear_3988_53153)"/>
<circle opacity="0.5" cx="10.0002" cy="9.91226" r="5.64035" stroke="black"/>
<circle cx="10.0002" cy="9.91226" r="6.14035" fill="url(#paint4_linear_3988_53153)"/>
<path fill-rule="evenodd" clip-rule="evenodd" d="M16.1348 10.1804L15.8719 10.1691C15.8756 10.0839 15.8774 9.99833 15.8774 9.91226C15.8774 9.8262 15.8756 9.74058 15.8719 9.65545L16.1348 9.64416C16.1386 9.73305 16.1406 9.82243 16.1406 9.91226C16.1406 10.0021 16.1386 10.0915 16.1348 10.1804ZM16.0887 9.11028L15.8277 9.14431C15.8054 8.97357 15.7758 8.80516 15.7393 8.6394L15.9962 8.58267C16.0345 8.75591 16.0654 8.93189 16.0887 9.11028ZM15.8579 8.06526C15.804 7.89409 15.7428 7.72615 15.6746 7.56181L15.4315 7.66261C15.4968 7.81986 15.5553 7.98055 15.6069 8.14433L15.8579 8.06526ZM15.4479 7.07638L15.2146 7.19809C15.1353 7.04615 15.0496 6.89809 14.9578 6.75428L15.1796 6.61268C15.2755 6.76292 15.3651 6.91761 15.4479 7.07638ZM14.872 6.17411L14.6633 6.33446C14.559 6.19876 14.4489 6.06772 14.3334 5.94174L14.5274 5.7639C14.648 5.89549 14.763 6.03236 14.872 6.17411ZM14.1486 5.38507L13.9707 5.57905C13.8448 5.46354 13.7137 5.35346 13.578 5.24917L13.7384 5.04051C13.8801 5.14945 14.017 5.26443 14.1486 5.38507ZM13.2998 4.73287L13.1582 4.95468C13.0144 4.86288 12.8663 4.77717 12.7144 4.69791L12.8361 4.46459C12.9949 4.5474 13.1496 4.63696 13.2998 4.73287ZM12.3507 4.23784L12.2499 4.48093C12.0926 4.41572 11.9319 4.35715 11.7681 4.30556L11.8472 4.05456C12.0184 4.10848 12.1863 4.1697 12.3507 4.23784ZM11.3298 3.91625L11.2731 4.17322C11.1073 4.13663 10.9389 4.10703 10.7682 4.08476L10.8022 3.82381C10.9806 3.84708 11.1566 3.87801 11.3298 3.91625ZM10.2683 3.77766L10.257 4.04058C10.1719 4.03692 10.0863 4.03507 10.0002 4.03507C9.91415 4.03507 9.82853 4.03692 9.7434 4.04058L9.73211 3.77766C9.821 3.77384 9.91038 3.77191 10.0002 3.77191C10.09 3.77191 10.1794 3.77384 10.2683 3.77766ZM9.19823 3.82381L9.23227 4.08476C9.06152 4.10703 8.89311 4.13663 8.72735 4.17322L8.67062 3.91625C8.84386 3.87801 9.01984 3.84708 9.19823 3.82381ZM8.15321 4.05456L8.23228 4.30556C8.0685 4.35715 7.90781 4.41572 7.75057 4.48093L7.64976 4.23784C7.8141 4.1697 7.98204 4.10848 8.15321 4.05456ZM7.16433 4.46459L7.28604 4.69791C7.1341 4.77717 6.98604 4.86288 6.84223 4.95468L6.70063 4.73287C6.85087 4.63696 7.00557 4.5474 7.16433 4.46459ZM6.26207 5.04051C6.12031 5.14945 5.98344 5.26443 5.85185 5.38507L6.02969 5.57905C6.15568 5.46354 6.28671 5.35346 6.42242 5.24917L6.26207 5.04051ZM5.47302 5.7639L5.667 5.94174C5.55149 6.06772 5.44141 6.19876 5.33713 6.33446L5.12846 6.17411C5.2374 6.03236 5.35238 5.89549 5.47302 5.7639ZM4.82082 6.61268L5.04263 6.75428C4.95083 6.89809 4.86512 7.04615 4.78586 7.19809L4.55254 7.07638C4.63535 6.91762 4.72491 6.76292 4.82082 6.61268ZM4.3258 7.56181L4.56888 7.66261C4.50367 7.81986 4.4451 7.98055 4.39351 8.14433L4.14251 8.06526C4.19643 7.89409 4.25765 7.72615 4.3258 7.56181ZM4.0042 8.58267L4.26117 8.6394C4.22458 8.80516 4.19498 8.97357 4.17271 9.14431L3.91176 9.11027C3.93503 8.93189 3.96596 8.75591 4.0042 8.58267ZM3.86561 9.64416C3.86179 9.73305 3.85986 9.82243 3.85986 9.91226C3.85986 10.0021 3.86179 10.0915 3.86561 10.1804L4.12853 10.1691C4.12487 10.0839 4.12302 9.99833 4.12302 9.91226C4.12302 9.8262 4.12487 9.74058 4.12853 9.65545L3.86561 9.64416ZM3.91176 10.7142L4.17271 10.6802C4.19498 10.851 4.22458 11.0194 4.26117 11.1851L4.0042 11.2419C3.96596 11.0686 3.93503 10.8926 3.91176 10.7142ZM4.14251 11.7593L4.39351 11.6802C4.4451 11.844 4.50367 12.0047 4.56888 12.1619L4.3258 12.2627C4.25765 12.0984 4.19643 11.9304 4.14251 11.7593ZM4.55254 12.7481L4.78586 12.6264C4.86512 12.7784 4.95083 12.9264 5.04263 13.0702L4.82082 13.2118C4.72491 13.0616 4.63535 12.9069 4.55254 12.7481ZM5.12846 13.6504L5.33713 13.4901C5.44141 13.6258 5.55149 13.7568 5.667 13.8828L5.47302 14.0606C5.35238 13.929 5.2374 13.7922 5.12846 13.6504ZM5.85185 14.4395L6.02969 14.2455C6.15568 14.361 6.28671 14.4711 6.42242 14.5754L6.26207 14.784C6.12031 14.6751 5.98344 14.5601 5.85185 14.4395ZM6.70063 15.0917L6.84223 14.8698C6.98604 14.9616 7.1341 15.0474 7.28604 15.1266L7.16433 15.3599C7.00557 15.2771 6.85087 15.1876 6.70063 15.0917ZM7.64976 15.5867L7.75057 15.3436C7.90781 15.4088 8.0685 15.4674 8.23228 15.519L8.15321 15.77C7.98204 15.716 7.8141 15.6548 7.64976 15.5867ZM8.67062 15.9083L8.72735 15.6513C8.89311 15.6879 9.06152 15.7175 9.23226 15.7398L9.19823 16.0007C9.01984 15.9774 8.84386 15.9465 8.67062 15.9083ZM9.73211 16.0469L9.7434 15.784C9.82853 15.7876 9.91415 15.7895 10.0002 15.7895C10.0863 15.7895 10.1719 15.7876 10.257 15.784L10.2683 16.0469C10.1794 16.0507 10.09 16.0526 10.0002 16.0526C9.91038 16.0526 9.821 16.0507 9.73211 16.0469ZM10.8022 16.0007L10.7682 15.7398C10.9389 15.7175 11.1073 15.6879 11.2731 15.6513L11.3298 15.9083C11.1566 15.9465 10.9806 15.9774 10.8022 16.0007ZM11.8472 15.77L11.7681 15.519C11.9319 15.4674 12.0926 15.4088 12.2499 15.3436L12.3507 15.5867C12.1863 15.6548 12.0184 15.716 11.8472 15.77ZM12.8361 15.3599L12.7144 15.1266C12.8663 15.0474 13.0144 14.9616 13.1582 14.8698L13.2998 15.0917C13.1496 15.1876 12.9949 15.2771 12.8361 15.3599ZM13.7384 14.784L13.578 14.5754C13.7137 14.4711 13.8448 14.361 13.9707 14.2455L14.1486 14.4395C14.017 14.5601 13.8801 14.6751 13.7384 14.784ZM14.5274 14.0606L14.3334 13.8828C14.4489 13.7568 14.559 13.6258 14.6633 13.4901L14.872 13.6504C14.763 13.7922 14.648 13.929 14.5274 14.0606ZM15.1796 13.2118L14.9578 13.0702C15.0496 12.9264 15.1353 12.7784 15.2146 12.6264L15.4479 12.7481C15.3651 12.9069 15.2755 13.0616 15.1796 13.2118ZM15.6746 12.2627L15.4315 12.1619C15.4968 12.0047 15.5553 11.844 15.6069 11.6802L15.8579 11.7593C15.804 11.9304 15.7428 12.0984 15.6746 12.2627ZM15.9962 11.2419L15.7393 11.1851C15.7758 11.0194 15.8054 10.851 15.8277 10.6802L16.0887 10.7142C16.0654 10.8926 16.0345 11.0686 15.9962 11.2419Z" fill="#601F62"/>
<path fill-rule="evenodd" clip-rule="evenodd" d="M10.0351 4.98626C9.768 5.09986 9.4157 5.45046 9.26381 5.75385C9.12034 6.04037 9.0146 6.53081 9.01392 6.91276C9.01365 7.03206 8.98867 7.14468 8.95829 7.16306C8.92792 7.18138 8.82054 7.13485 8.71967 7.0596C8.56054 6.94092 8.53186 6.93393 8.50312 7.00717C8.45258 7.13594 8.52577 7.68858 8.61589 7.85907C8.65992 7.94234 8.69596 8.01998 8.69596 8.03157C8.69596 8.04316 8.55593 8.1372 8.38473 8.24056C7.7836 8.60342 7.2746 9.27133 7.0573 9.98235C6.97395 10.2551 6.96215 10.2677 6.7747 10.2831C6.58074 10.299 6.5791 10.3011 6.5791 10.5309C6.5791 10.7528 6.58529 10.7619 6.72464 10.7477C6.85392 10.7345 6.87202 10.7516 6.88673 10.901C6.90219 11.0577 6.89224 11.0692 6.7412 11.0692C6.58471 11.0692 6.5791 11.0771 6.5791 11.299C6.5791 11.5264 6.58106 11.5289 6.77438 11.5449C6.95733 11.5599 6.97358 11.5757 7.03126 11.7938C7.16928 12.3163 7.40404 12.7072 7.83128 13.1263C8.55276 13.834 9.3026 14.1228 10.4181 14.1228C11.3918 14.1228 12.2689 13.8615 12.7642 13.4239L12.9826 13.2309V11.7619V10.2929H11.6596H10.3365V10.9123V11.5318L10.9584 11.5463L11.5802 11.5609L11.5953 12.0325C11.6099 12.4867 11.6055 12.5072 11.4773 12.5893C11.2421 12.7401 10.6653 12.8419 10.2042 12.8141C9.47889 12.7703 8.91966 12.4733 8.58684 11.9551C8.3643 11.6086 8.3787 11.544 8.68273 11.5249L8.93411 11.5091L8.95025 11.2917L8.96639 11.0743L8.63272 11.0588C8.3163 11.0441 8.29905 11.0367 8.29905 10.914C8.29905 10.7932 8.32022 10.7829 8.61658 10.7587L8.93411 10.7328L8.95036 10.5128L8.96666 10.2929H8.69898C8.54387 10.2929 8.43136 10.2695 8.43136 10.2374C8.43136 10.1128 8.72152 9.71069 8.96766 9.49424C9.32123 9.18334 9.69809 9.05075 10.2279 9.05075C10.7648 9.05075 11.2079 9.18531 11.5831 9.46241L11.8735 9.67684L12.3487 9.24825C12.61 9.01255 12.8238 8.79197 12.8238 8.75807C12.8238 8.65243 12.3383 8.28471 11.9647 8.10744C11.6399 7.95337 11.6102 7.92625 11.6382 7.80861C11.6551 7.73744 11.6811 7.58036 11.696 7.45951L11.7231 7.23981L11.5636 7.27102L11.4042 7.30218L11.4329 6.89351C11.4576 6.53997 11.4457 6.45467 11.3446 6.2608L11.2277 6.03669L11.0574 6.19807C10.5981 6.63349 10.1804 6.17773 10.2484 5.31532C10.2659 5.09256 10.2632 4.91121 10.2423 4.9123C10.2213 4.91344 10.1281 4.94666 10.0351 4.98626Z" fill="black"/>
<path fill-rule="evenodd" clip-rule="evenodd" d="M9.85936 4.81078C9.59221 4.92438 9.23991 5.27498 9.08803 5.57837C8.94456 5.86489 8.83882 6.35533 8.83814 6.73729C8.83787 6.85659 8.81289 6.96921 8.78251 6.98758C8.75214 7.0059 8.64476 6.95937 8.54389 6.88412C8.38476 6.76544 8.35607 6.75846 8.32734 6.83169C8.2768 6.96046 8.34999 7.51311 8.44011 7.68359C8.48414 7.76687 8.52018 7.8445 8.52018 7.8561C8.52018 7.86769 8.38015 7.96173 8.20895 8.06508C7.60782 8.42794 7.09882 9.09585 6.88152 9.80688C6.79817 10.0796 6.78637 10.0922 6.59892 10.1076C6.40496 10.1235 6.40332 10.1256 6.40332 10.3554C6.40332 10.5773 6.40951 10.5865 6.54885 10.5722C6.67814 10.559 6.69624 10.5761 6.71095 10.7255C6.72641 10.8823 6.71646 10.8937 6.56542 10.8937C6.40893 10.8937 6.40332 10.9017 6.40332 11.1235C6.40332 11.351 6.40528 11.3534 6.5986 11.3694C6.78155 11.3844 6.7978 11.4002 6.85548 11.6183C6.9935 12.1408 7.22826 12.5318 7.6555 12.9508C8.37698 13.6585 9.12682 13.9473 10.2424 13.9473C11.216 13.9473 12.0931 13.686 12.5884 13.2484L12.8068 13.0554V11.5864V10.1174H11.4838H10.1608V10.7368V11.3563L10.7826 11.3708L11.4044 11.3854L11.4195 11.857C11.4341 12.3112 11.4298 12.3317 11.3015 12.4139C11.0663 12.5646 10.4895 12.6664 10.0284 12.6386C9.3031 12.5949 8.74388 12.2978 8.41106 11.7796C8.18852 11.4331 8.20292 11.3685 8.50695 11.3495L8.75833 11.3337L8.77447 11.1162L8.79061 10.8988L8.45694 10.8833C8.14052 10.8686 8.12327 10.8612 8.12327 10.7385C8.12327 10.6177 8.14444 10.6074 8.4408 10.5832L8.75833 10.5573L8.77458 10.3374L8.79088 10.1174H8.5232C8.36809 10.1174 8.25557 10.0941 8.25557 10.0619C8.25557 9.9373 8.54574 9.53521 8.79188 9.31877C9.14545 9.00787 9.52231 8.87527 10.0522 8.87527C10.589 8.87527 11.0321 9.00984 11.4073 9.28694L11.6977 9.50136L12.1729 9.07277C12.4342 8.83707 12.6481 8.61649 12.6481 8.58259C12.6481 8.47696 12.1625 8.10923 11.7889 7.93197C11.4641 7.77789 11.4345 7.75077 11.4624 7.63313C11.4793 7.56197 11.5053 7.40489 11.5203 7.28404L11.5473 7.06433L11.3878 7.09554L11.2284 7.1267L11.2571 6.71804C11.2818 6.36449 11.2699 6.2792 11.1688 6.08532L11.0519 5.86122L10.8816 6.02259C10.4223 6.45801 10.0046 6.00225 10.0726 5.13984C10.0902 4.91709 10.0874 4.73573 10.0665 4.73682C10.0455 4.73796 9.95235 4.77119 9.85936 4.81078Z" fill="url(#paint5_linear_3988_53153)"/>
<defs>
<linearGradient id="paint0_linear_3988_53153" x1="10" y1="0" x2="10" y2="20" gradientUnits="userSpaceOnUse">
<stop stop-color="#CDA74F"/>
<stop offset="0.471109" stop-color="#E3CA7C"/>
<stop offset="0.804258" stop-color="#CEAA54"/>
<stop offset="1" stop-color="#815320"/>
</linearGradient>
<linearGradient id="paint1_linear_3988_53153" x1="4.07878" y1="4.29827" x2="15.6139" y2="15.9211" gradientUnits="userSpaceOnUse">
<stop stop-color="#642565"/>
<stop offset="0.1456" stop-color="#D9D4DC"/>
<stop offset="0.320792" stop-color="#C95E7D"/>
<stop offset="0.455476" stop-color="#632062"/>
<stop offset="0.709079" stop-color="#BD4E7D"/>
<stop offset="1" stop-color="#601F61"/>
</linearGradient>
<linearGradient id="paint2_linear_3988_53153" x1="6.14044" y1="3.55261" x2="10.0001" y2="17.3684" gradientUnits="userSpaceOnUse">
<stop stop-color="#FBF9F7"/>
<stop offset="0.114336" stop-color="#F0C812"/>
<stop offset="1" stop-color="#B27523"/>
</linearGradient>
<linearGradient id="paint3_linear_3988_53153" x1="6.14046" y1="3.55263" x2="14.2106" y2="16.0965" gradientUnits="userSpaceOnUse">
<stop stop-color="#601F62"/>
<stop offset="0.227149" stop-color="#C25278"/>
<stop offset="0.413856" stop-color="#6F2765"/>
<stop offset="0.693569" stop-color="#C15179"/>
<stop offset="1" stop-color="#601F62"/>
</linearGradient>
<linearGradient id="paint4_linear_3988_53153" x1="6.57916" y1="4.82454" x2="13.9914" y2="14.0789" gradientUnits="userSpaceOnUse">
<stop stop-color="#C85677"/>
<stop offset="1" stop-color="#692565"/>
</linearGradient>
<linearGradient id="paint5_linear_3988_53153" x1="8.64016" y1="6.09647" x2="12.0174" y2="12.9386" gradientUnits="userSpaceOnUse">
<stop stop-color="#DEAE0A"/>
<stop offset="1" stop-color="#F0C80F"/>
</linearGradient>
</defs>
</svg>
