<svg width="20" height="20" viewBox="0 0 20 20" fill="none" xmlns="http://www.w3.org/2000/svg">
<path d="M10 20C15.5228 20 20 15.5228 20 10C20 4.47715 15.5228 0 10 0C4.47715 0 0 4.47715 0 10C0 15.5228 4.47715 20 10 20Z" fill="#7190EB"/>
<path d="M16.3205 4.8175C16.3185 4.79602 16.3107 4.77454 16.297 4.75696C16.2834 4.74133 16.2658 4.72961 16.2443 4.72376L10.0236 3.16125C10.008 3.15735 9.99236 3.15735 9.97673 3.16125L3.75798 4.72376C3.7365 4.72961 3.71892 4.74133 3.70525 4.75696C3.69158 4.77454 3.68376 4.79407 3.68181 4.81555C3.67205 4.92102 2.91814 15.5265 9.96697 17.9952C9.98845 18.0031 10.0119 18.0031 10.0314 17.9952C17.0822 15.5284 16.3283 4.92297 16.3205 4.8175ZM9.99431 6.01868L12.676 10.5577L9.99431 12.1281L7.32439 10.5577L9.99431 6.01868ZM9.99431 15.1476L7.19939 11.2003L9.99431 12.8663L12.799 11.2003L9.99431 15.1476Z" fill="white"/>
</svg>
