<svg width="20" height="20" viewBox="0 0 20 20" fill="none" xmlns="http://www.w3.org/2000/svg">
<g clip-path="url(#clip0_5237_41230)">
<path d="M11.9534 18.6092C11.62 18.7963 11.2153 18.691 10.9059 18.5039C10.9059 18.5039 5.91837 15.6969 4.26379 14.7378C3.21629 14.1296 2.78778 13.7203 2.78778 12.2349C2.78778 10.3635 2.81158 4.73784 2.81158 4.73784C2.81158 4.38697 2.91871 4.001 3.2401 3.80216L1.0975 5.03023C0.930853 5.12381 0.81182 5.28755 0.752303 5.46297C0.692787 5.62671 0.668978 5.79045 0.668978 5.9659C0.668978 5.9659 0.645172 11.5916 0.645172 13.463C0.645172 14.6794 1.31176 15.4747 1.97835 15.884C2.38306 16.1296 8.76324 19.732 8.76324 19.732C8.94182 19.8373 9.14417 19.9074 9.35843 19.9308C9.51317 19.9425 9.67982 19.9074 9.81075 19.8373L11.9534 18.6092Z" fill="#FF2B42"/>
<path d="M12.4771 15.0185C12.4771 14.4922 12.2747 14.1998 11.8462 13.9659C10.644 13.3109 7.09678 11.2642 7.09678 11.2642L4.95416 12.4922C4.95416 12.4922 8.53707 14.4922 9.70361 15.194C10.0726 15.4162 10.3345 15.6852 10.3345 16.27C10.3345 16.9133 10.3226 18.8314 10.3226 18.8314C10.3226 19.194 10.2155 19.5916 9.88216 19.7905L12.0248 18.5624C12.1676 18.4805 12.2866 18.3519 12.3581 18.1881C12.4414 18.001 12.4771 17.8022 12.4771 17.6033C12.4652 17.5682 12.4771 15.4981 12.4771 15.0185Z" fill="#FF2B42"/>
<path d="M15.8458 12.4922C15.8339 12.6794 15.8696 15.8373 15.7981 15.9074C15.7505 16.153 15.6077 16.3753 15.3934 16.5039L13.2508 17.732C13.5841 17.5332 13.6912 17.1355 13.6912 16.7729L13.7031 13.7203L15.8458 12.4922Z" fill="#FF2B42"/>
<path d="M12.4771 10.1881C12.4771 9.00684 11.9891 8.29339 11.1677 7.80216C10.3583 7.32261 4.3233 3.89574 4.3233 3.89574C4.10905 3.77877 3.85908 3.68519 3.60911 3.6969C3.47817 3.6969 3.35914 3.73197 3.2401 3.80216L1.0975 5.03023C1.4427 4.8431 1.85932 4.94836 2.18071 5.13548C2.18071 5.13548 7.91811 8.37526 8.82279 8.90158C9.79885 9.47468 10.3345 9.94252 10.3345 11.2992C10.3345 11.9893 10.3345 12.8665 10.3345 12.9835L12.4771 11.7554C12.4771 11.7554 12.4771 11.0419 12.4771 10.1881Z" fill="#FF2B42"/>
<path d="M15.8457 8.34016C15.8457 7.15887 15.3577 6.44545 14.5364 5.95419C13.7269 5.47468 7.69193 2.04777 7.69193 2.04777C7.47767 1.93081 7.22771 1.83725 6.97774 1.84895C6.8468 1.84895 6.72777 1.88403 6.60874 1.95421L4.46613 3.18228C4.81132 2.99514 5.22793 3.1004 5.54932 3.28755C5.54932 3.28755 11.2867 6.52729 12.1914 7.05361C13.1675 7.62671 13.7031 8.09455 13.7031 9.45129C13.7031 10.1414 13.7031 11.0185 13.7031 11.1355L15.8457 9.90742C15.8457 9.90742 15.8457 9.19397 15.8457 8.34016Z" fill="#FF2B42"/>
<path d="M19.1906 6.49223C19.1906 5.31094 18.7026 4.59748 17.8812 4.10626C17.0718 3.62671 11.0368 0.199821 11.0368 0.199821C10.8225 0.0828619 10.5726 -0.0107067 10.3226 0.000989158C10.1917 0.000989158 10.0726 0.0360797 9.95359 0.106255L7.81097 1.33433C8.15617 1.14719 8.57278 1.25245 8.8942 1.43959C8.8942 1.43959 14.6316 4.67936 15.5363 5.20568C16.5123 5.77877 17.048 6.24661 17.048 7.60332C17.048 8.29339 17.048 9.17058 17.048 9.28755L19.1906 8.05948C19.1906 8.05948 19.1906 7.34603 19.1906 6.49223Z" fill="#FF2B42"/>
<path d="M19.1906 10.7261C19.1787 10.9133 19.2144 14.0712 19.143 14.1414C19.0954 14.387 18.9525 14.6092 18.7383 14.7378L16.5956 15.9659C16.9289 15.7671 17.0361 15.3694 17.0361 15.0068L17.048 11.9542L19.1906 10.7261Z" fill="#FF2B42"/>
</g>
<defs>
<clipPath id="clip0_5237_41230">
<rect width="20" height="20" fill="white"/>
</clipPath>
</defs>
</svg>
