<svg width="20" height="20" viewBox="0 0 20 20" fill="none" xmlns="http://www.w3.org/2000/svg">
<path fill-rule="evenodd" clip-rule="evenodd" d="M9.21053 0.0438596C9.21053 0.0694298 9.06434 0.0877193 8.85965 0.0877193C8.65496 0.0877193 8.50877 0.106009 8.50877 0.131579C8.50877 0.155702 8.41009 0.175439 8.28947 0.175439C8.16886 0.175439 8.07018 0.195175 8.07018 0.219298C8.07018 0.243421 7.97149 0.263158 7.85088 0.263158C7.73026 0.263158 7.63158 0.282895 7.63158 0.307018C7.63158 0.33114 7.55263 0.350877 7.45614 0.350877C7.35965 0.350877 7.2807 0.370614 7.2807 0.394737C7.2807 0.41886 7.20175 0.438596 7.10526 0.438596C7.00877 0.438596 6.92982 0.458333 6.92982 0.482456C6.92982 0.506579 6.89035 0.526316 6.84211 0.526316C6.79386 0.526316 6.75439 0.546053 6.75439 0.570175C6.75439 0.594298 6.69518 0.614035 6.62281 0.614035C6.55044 0.614035 6.49123 0.633772 6.49123 0.657895C6.49123 0.682018 6.45175 0.701754 6.40351 0.701754C6.35526 0.701754 6.31579 0.721491 6.31579 0.745614C6.31579 0.769737 6.25658 0.789474 6.18421 0.789474C6.11184 0.789474 6.05263 0.799517 6.05263 0.811842C6.05263 0.824123 6.29917 1.0807 6.60044 1.38202C7.09351 1.87509 7.16364 1.92982 7.30219 1.92982C7.38689 1.92982 7.45614 1.91009 7.45614 1.88596C7.45614 1.86184 7.51535 1.84211 7.58772 1.84211C7.66009 1.84211 7.7193 1.82237 7.7193 1.79825C7.7193 1.77412 7.79825 1.75439 7.89474 1.75439C7.99123 1.75439 8.07018 1.73465 8.07018 1.71053C8.07018 1.6864 8.16886 1.66667 8.28947 1.66667C8.41009 1.66667 8.50877 1.64693 8.50877 1.62281C8.50877 1.59724 8.65496 1.57895 8.85965 1.57895C9.06434 1.57895 9.21053 1.56066 9.21053 1.53509C9.21053 1.50746 9.50294 1.49123 10 1.49123C10.4971 1.49123 10.7895 1.50746 10.7895 1.53509C10.7895 1.56066 10.9357 1.57895 11.1404 1.57895C11.345 1.57895 11.4912 1.59724 11.4912 1.62281C11.4912 1.64693 11.5899 1.66667 11.7105 1.66667C11.8311 1.66667 11.9298 1.6864 11.9298 1.71053C11.9298 1.73465 12.0088 1.75439 12.1053 1.75439C12.2018 1.75439 12.2807 1.77412 12.2807 1.79825C12.2807 1.82237 12.3399 1.84211 12.4123 1.84211C12.4846 1.84211 12.5439 1.86184 12.5439 1.88596C12.5439 1.91009 12.6031 1.92982 12.6754 1.92982C12.7478 1.92982 12.807 1.94956 12.807 1.97368C12.807 1.99781 12.8662 2.01754 12.9386 2.01754C13.011 2.01754 13.0702 2.03728 13.0702 2.0614C13.0702 2.08553 13.1294 2.10526 13.2018 2.10526C13.2741 2.10526 13.3333 2.125 13.3333 2.14912C13.3333 2.17325 13.3728 2.19298 13.4211 2.19298C13.4693 2.19298 13.5088 2.21272 13.5088 2.23684C13.5088 2.26096 13.5482 2.2807 13.5965 2.2807C13.6447 2.2807 13.6842 2.30044 13.6842 2.32456C13.6842 2.34868 13.7237 2.36842 13.7719 2.36842C13.8202 2.36842 13.8596 2.38816 13.8596 2.41228C13.8596 2.4364 13.8991 2.45614 13.9474 2.45614C13.9956 2.45614 14.0351 2.47588 14.0351 2.5C14.0351 2.52412 14.0746 2.54386 14.1228 2.54386C14.2949 2.54386 14.2039 2.68294 13.7066 3.18031C13.3316 3.55531 13.1745 3.68421 13.0926 3.68421C13.032 3.68421 12.9825 3.66447 12.9825 3.64035C12.9825 3.61623 12.943 3.59649 12.8947 3.59649C12.8465 3.59649 12.807 3.57675 12.807 3.55263C12.807 3.52851 12.7675 3.50877 12.7193 3.50877C12.6711 3.50877 12.6316 3.48904 12.6316 3.46491C12.6316 3.44079 12.5724 3.42105 12.5 3.42105C12.4276 3.42105 12.3684 3.40132 12.3684 3.37719C12.3684 3.35307 12.3092 3.33333 12.2368 3.33333C12.1645 3.33333 12.1053 3.3136 12.1053 3.28947C12.1053 3.26535 12.0461 3.24561 11.9737 3.24561C11.9013 3.24561 11.8421 3.22588 11.8421 3.20175C11.8421 3.17763 11.7632 3.15789 11.6667 3.15789C11.5702 3.15789 11.4912 3.13816 11.4912 3.11404C11.4912 3.08965 11.3743 3.07018 11.2281 3.07018C11.0819 3.07018 10.9649 3.0507 10.9649 3.02632C10.9649 2.99842 10.614 2.98246 10 2.98246C9.38597 2.98246 9.03509 2.99842 9.03509 3.02632C9.03509 3.0507 8.91811 3.07018 8.77193 3.07018C8.62575 3.07018 8.50877 3.08965 8.50877 3.11404C8.50877 3.13816 8.42982 3.15789 8.33333 3.15789C8.23684 3.15789 8.1579 3.17763 8.1579 3.20175C8.1579 3.22588 8.09868 3.24561 8.02632 3.24561C7.95395 3.24561 7.89474 3.26535 7.89474 3.28947C7.89474 3.3136 7.83553 3.33333 7.76316 3.33333C7.69079 3.33333 7.63158 3.35307 7.63158 3.37719C7.63158 3.40132 7.57237 3.42105 7.5 3.42105C7.42763 3.42105 7.36842 3.44079 7.36842 3.46491C7.36842 3.48904 7.32895 3.50877 7.2807 3.50877C7.23246 3.50877 7.19298 3.52851 7.19298 3.55263C7.19298 3.57675 7.15351 3.59649 7.10526 3.59649C7.05702 3.59649 7.01754 3.61623 7.01754 3.64035C7.01754 3.66447 6.97807 3.68421 6.92982 3.68421C6.88158 3.68421 6.84211 3.70395 6.84211 3.72807C6.84211 3.75219 6.80263 3.77193 6.75439 3.77193C6.70614 3.77193 6.66667 3.79167 6.66667 3.81579C6.66667 3.83991 6.62719 3.85965 6.57895 3.85965C6.5307 3.85965 6.49123 3.87939 6.49123 3.90351C6.49123 3.92763 6.4561 3.94737 6.4132 3.94737C6.37026 3.94737 6.30671 3.98684 6.27193 4.03509C6.23715 4.08333 6.17794 4.12281 6.14035 4.12281C6.10276 4.12281 6.04355 4.16228 6.00877 4.21053C5.97399 4.25877 5.91939 4.29825 5.88746 4.29825C5.81829 4.29825 5.61404 4.49373 5.61404 4.55991C5.61404 4.58544 5.82105 4.81329 6.07404 5.06632C6.55632 5.54855 6.675 5.60956 6.79825 5.4386C6.83303 5.39035 6.89224 5.35088 6.92982 5.35088C6.96741 5.35088 7.02662 5.3114 7.0614 5.26316C7.09618 5.21491 7.15974 5.17544 7.20268 5.17544C7.24557 5.17544 7.2807 5.1557 7.2807 5.13158C7.2807 5.10746 7.32018 5.08772 7.36842 5.08772C7.41667 5.08772 7.45614 5.06798 7.45614 5.04386C7.45614 5.01974 7.49561 5 7.54386 5C7.59211 5 7.63158 4.98026 7.63158 4.95614C7.63158 4.93202 7.67105 4.91228 7.7193 4.91228C7.76754 4.91228 7.80702 4.89254 7.80702 4.86842C7.80702 4.8443 7.86623 4.82456 7.9386 4.82456C8.01097 4.82456 8.07018 4.80482 8.07018 4.7807C8.07018 4.75658 8.12939 4.73684 8.20175 4.73684C8.27412 4.73684 8.33333 4.71711 8.33333 4.69298C8.33333 4.66886 8.41228 4.64912 8.50877 4.64912C8.60526 4.64912 8.68421 4.62939 8.68421 4.60526C8.68421 4.58114 8.76316 4.5614 8.85965 4.5614C8.95614 4.5614 9.03509 4.54167 9.03509 4.51754C9.03509 4.49154 9.19592 4.47368 9.42982 4.47368C9.66373 4.47368 9.82456 4.45583 9.82456 4.42982C9.82456 4.40544 9.94153 4.38596 10.0877 4.38596C10.2339 4.38596 10.3509 4.40544 10.3509 4.42982C10.3509 4.45487 10.4825 4.47368 10.6579 4.47368C10.8333 4.47368 10.9649 4.4925 10.9649 4.51754C10.9649 4.54167 11.0439 4.5614 11.1404 4.5614C11.2368 4.5614 11.3158 4.58114 11.3158 4.60526C11.3158 4.62939 11.3947 4.64912 11.4912 4.64912C11.5877 4.64912 11.6667 4.66886 11.6667 4.69298C11.6667 4.71711 11.7259 4.73684 11.7982 4.73684C11.8706 4.73684 11.9298 4.75658 11.9298 4.7807C11.9298 4.80482 11.989 4.82456 12.0614 4.82456C12.1338 4.82456 12.193 4.8443 12.193 4.86842C12.193 4.89254 12.2325 4.91228 12.2807 4.91228C12.3289 4.91228 12.3684 4.93202 12.3684 4.95614C12.3684 4.98026 12.4079 5 12.4561 5C12.5044 5 12.5439 5.01974 12.5439 5.04386C12.5439 5.06798 12.5833 5.08772 12.6316 5.08772C12.6798 5.08772 12.7193 5.10746 12.7193 5.13158C12.7193 5.1557 12.7544 5.17544 12.7973 5.17544C12.8403 5.17544 12.9038 5.21491 12.9386 5.26316C12.9734 5.3114 13.0326 5.35088 13.0702 5.35088C13.1078 5.35088 13.167 5.39035 13.2018 5.4386C13.3434 5.63518 13.4089 5.58268 14.9782 4.01333C15.8104 3.18118 16.4912 2.47908 16.4912 2.45316C16.4912 2.39075 16.3791 2.2807 16.3155 2.2807C16.2878 2.2807 16.1892 2.20175 16.0965 2.10526C16.0038 2.00877 15.9011 1.92982 15.8684 1.92982C15.8356 1.92982 15.7804 1.89035 15.7456 1.84211C15.7108 1.79386 15.6516 1.75439 15.614 1.75439C15.5764 1.75439 15.5172 1.71491 15.4825 1.66667C15.4477 1.61842 15.3885 1.57895 15.3509 1.57895C15.3133 1.57895 15.2541 1.53947 15.2193 1.49123C15.1845 1.44298 15.121 1.40351 15.078 1.40351C15.0351 1.40351 15 1.38377 15 1.35965C15 1.33553 14.9605 1.31579 14.9123 1.31579C14.864 1.31579 14.8246 1.29605 14.8246 1.27193C14.8246 1.24781 14.7851 1.22807 14.7368 1.22807C14.6886 1.22807 14.6491 1.20833 14.6491 1.18421C14.6491 1.16009 14.6096 1.14035 14.5614 1.14035C14.5132 1.14035 14.4737 1.12061 14.4737 1.09649C14.4737 1.07237 14.4342 1.05263 14.386 1.05263C14.3377 1.05263 14.2982 1.03289 14.2982 1.00877C14.2982 0.984649 14.2588 0.964912 14.2105 0.964912C14.1623 0.964912 14.1228 0.945175 14.1228 0.921053C14.1228 0.89693 14.0833 0.877193 14.0351 0.877193C13.9868 0.877193 13.9474 0.857456 13.9474 0.833333C13.9474 0.809211 13.8882 0.789474 13.8158 0.789474C13.7434 0.789474 13.6842 0.769737 13.6842 0.745614C13.6842 0.721491 13.6447 0.701754 13.5965 0.701754C13.5482 0.701754 13.5088 0.682018 13.5088 0.657895C13.5088 0.633772 13.4496 0.614035 13.3772 0.614035C13.3048 0.614035 13.2456 0.594298 13.2456 0.570175C13.2456 0.546053 13.2061 0.526316 13.1579 0.526316C13.1096 0.526316 13.0702 0.506579 13.0702 0.482456C13.0702 0.458333 12.9912 0.438596 12.8947 0.438596C12.7982 0.438596 12.7193 0.41886 12.7193 0.394737C12.7193 0.370614 12.6404 0.350877 12.5439 0.350877C12.4474 0.350877 12.3684 0.33114 12.3684 0.307018C12.3684 0.282895 12.2697 0.263158 12.1491 0.263158C12.0285 0.263158 11.9298 0.243421 11.9298 0.219298C11.9298 0.195175 11.8311 0.175439 11.7105 0.175439C11.5899 0.175439 11.4912 0.155702 11.4912 0.131579C11.4912 0.106009 11.345 0.0877193 11.1404 0.0877193C10.9357 0.0877193 10.7895 0.0694298 10.7895 0.0438596C10.7895 0.0162281 10.4971 0 10 0C9.50294 0 9.21053 0.0162281 9.21053 0.0438596ZM4.51754 1.66667C4.48276 1.71491 4.42355 1.75439 4.38596 1.75439C4.34838 1.75439 4.28917 1.79386 4.25439 1.84211C4.21961 1.89035 4.16395 1.92982 4.1307 1.92982C4.0975 1.92982 4.01496 1.98904 3.94737 2.0614C3.87978 2.13377 3.80189 2.19298 3.77425 2.19298C3.71118 2.19298 3.50877 2.39246 3.50877 2.45465C3.50877 2.48018 3.71579 2.70803 3.96877 2.96105C4.45105 3.44329 4.56974 3.5043 4.69298 3.33333C4.72776 3.28509 4.78342 3.24561 4.81667 3.24561C4.84987 3.24561 4.93241 3.1864 5 3.11404C5.06759 3.04167 5.15013 2.98246 5.18333 2.98246C5.21658 2.98246 5.27224 2.94298 5.30702 2.89474C5.3418 2.84649 5.3964 2.80702 5.42833 2.80702C5.46031 2.80702 5.53544 2.75803 5.59535 2.69811L5.70421 2.58925L5.19908 2.08408C4.92123 1.80627 4.66847 1.57895 4.63732 1.57895C4.60623 1.57895 4.55232 1.61842 4.51754 1.66667ZM2.29167 3.61952C2.23741 3.6775 2.19298 3.74732 2.19298 3.77469C2.19298 3.80206 2.13377 3.87978 2.0614 3.94737C1.98904 4.01496 1.92982 4.0939 1.92982 4.12281C1.92982 4.15171 1.87061 4.23066 1.79825 4.29825C1.72588 4.36583 1.66667 4.45272 1.66667 4.49127C1.66667 4.52987 1.64693 4.5614 1.62281 4.5614C1.59868 4.5614 1.57895 4.59654 1.57895 4.63943C1.57895 4.68237 1.53947 4.74592 1.49123 4.7807C1.44298 4.81548 1.40351 4.87903 1.40351 4.92197C1.40351 4.96487 1.38377 5 1.35965 5C1.33553 5 1.31579 5.03513 1.31579 5.07803C1.31579 5.12097 1.27632 5.18452 1.22807 5.2193C1.17969 5.25417 1.14035 5.33285 1.14035 5.39474C1.14035 5.45662 1.10101 5.53531 1.05263 5.57018C1.00439 5.60496 0.964912 5.66851 0.964912 5.71145C0.964912 5.75434 0.945175 5.78947 0.921053 5.78947C0.89693 5.78947 0.877193 5.84868 0.877193 5.92105C0.877193 5.99342 0.857456 6.05263 0.833333 6.05263C0.809211 6.05263 0.789474 6.09211 0.789474 6.14035C0.789474 6.1886 0.769737 6.22807 0.745614 6.22807C0.721491 6.22807 0.701754 6.28728 0.701754 6.35965C0.701754 6.43202 0.682018 6.49123 0.657895 6.49123C0.633772 6.49123 0.614035 6.5307 0.614035 6.57895C0.614035 6.62719 0.594298 6.66667 0.570175 6.66667C0.546053 6.66667 0.526316 6.72588 0.526316 6.79825C0.526316 6.87061 0.506579 6.92982 0.482456 6.92982C0.458333 6.92982 0.438596 6.98904 0.438596 7.0614C0.438596 7.13377 0.41886 7.19298 0.394737 7.19298C0.370614 7.19298 0.350877 7.29167 0.350877 7.41228C0.350877 7.53289 0.33114 7.63158 0.307018 7.63158C0.282895 7.63158 0.263158 7.71053 0.263158 7.80702C0.263158 7.90351 0.243421 7.98246 0.219298 7.98246C0.195175 7.98246 0.175439 8.08114 0.175439 8.20175C0.175439 8.32237 0.155702 8.42105 0.131579 8.42105C0.107193 8.42105 0.0877193 8.53803 0.0877193 8.68421C0.0877193 8.83039 0.0682456 8.94737 0.0438596 8.94737C0.0158333 8.94737 0 9.3275 0 10C0 10.6725 0.0158333 11.0526 0.0438596 11.0526C0.0689035 11.0526 0.0877193 11.1842 0.0877193 11.3596C0.0877193 11.5351 0.106535 11.6667 0.131579 11.6667C0.155702 11.6667 0.175439 11.7654 0.175439 11.886C0.175439 12.0066 0.195175 12.1053 0.219298 12.1053C0.243421 12.1053 0.263158 12.1842 0.263158 12.2807C0.263158 12.3772 0.282895 12.4561 0.307018 12.4561C0.33114 12.4561 0.350877 12.5351 0.350877 12.6316C0.350877 12.7281 0.370614 12.807 0.394737 12.807C0.41886 12.807 0.438596 12.886 0.438596 12.9825C0.438596 13.0789 0.458333 13.1579 0.482456 13.1579C0.506579 13.1579 0.526316 13.1974 0.526316 13.2456C0.526316 13.2939 0.546053 13.3333 0.570175 13.3333C0.594298 13.3333 0.614035 13.3925 0.614035 13.4649C0.614035 13.5373 0.633772 13.5965 0.657895 13.5965C0.682018 13.5965 0.701754 13.636 0.701754 13.6842C0.701754 13.7325 0.721491 13.7719 0.745614 13.7719C0.769737 13.7719 0.789474 13.8114 0.789474 13.8596C0.789474 13.9079 0.799517 13.9474 0.811842 13.9474C0.824123 13.9474 1.0807 13.7008 1.38202 13.3996C1.87583 12.9057 2.01395 12.7193 1.88596 12.7193C1.86184 12.7193 1.84211 12.6601 1.84211 12.5877C1.84211 12.5154 1.82237 12.4561 1.79825 12.4561C1.77412 12.4561 1.75439 12.3772 1.75439 12.2807C1.75439 12.1842 1.73465 12.1053 1.71053 12.1053C1.6864 12.1053 1.66667 12.0066 1.66667 11.886C1.66667 11.7654 1.64693 11.6667 1.62281 11.6667C1.59724 11.6667 1.57895 11.5205 1.57895 11.3158C1.57895 11.1111 1.56066 10.9649 1.53509 10.9649C1.50719 10.9649 1.49123 10.614 1.49123 10C1.49123 9.38597 1.50719 9.03509 1.53509 9.03509C1.56013 9.03509 1.57895 8.90351 1.57895 8.72807C1.57895 8.55263 1.59776 8.42105 1.62281 8.42105C1.64693 8.42105 1.66667 8.32237 1.66667 8.20175C1.66667 8.08114 1.6864 7.98246 1.71053 7.98246C1.73465 7.98246 1.75439 7.90351 1.75439 7.80702C1.75439 7.71053 1.77412 7.63158 1.79825 7.63158C1.82237 7.63158 1.84211 7.57237 1.84211 7.5C1.84211 7.42763 1.86184 7.36842 1.88596 7.36842C1.91009 7.36842 1.92982 7.30921 1.92982 7.23684C1.92982 7.16447 1.94956 7.10526 1.97368 7.10526C1.99781 7.10526 2.01754 7.06579 2.01754 7.01754C2.01754 6.9693 2.03728 6.92982 2.0614 6.92982C2.08553 6.92982 2.10526 6.87061 2.10526 6.79825C2.10526 6.72588 2.125 6.66667 2.14912 6.66667C2.17325 6.66667 2.19298 6.62719 2.19298 6.57895C2.19298 6.5307 2.21272 6.49123 2.23684 6.49123C2.26096 6.49123 2.2807 6.45175 2.2807 6.40351C2.2807 6.35526 2.30044 6.31579 2.32456 6.31579C2.34868 6.31579 2.36842 6.27632 2.36842 6.22807C2.36842 6.17982 2.38816 6.14035 2.41228 6.14035C2.4364 6.14035 2.45614 6.10088 2.45614 6.05263C2.45614 6.00439 2.47588 5.96491 2.5 5.96491C2.52412 5.96491 2.54386 5.92544 2.54386 5.87719C2.54386 5.70509 2.68294 5.79605 3.18031 6.29338C3.63504 6.74816 3.76636 6.92982 3.64035 6.92982C3.61623 6.92982 3.59649 6.9693 3.59649 7.01754C3.59649 7.06579 3.57675 7.10526 3.55263 7.10526C3.52851 7.10526 3.50877 7.16447 3.50877 7.23684C3.50877 7.30921 3.48904 7.36842 3.46491 7.36842C3.44079 7.36842 3.42105 7.42763 3.42105 7.5C3.42105 7.57237 3.40132 7.63158 3.37719 7.63158C3.35307 7.63158 3.33333 7.69079 3.33333 7.76316C3.33333 7.83553 3.3136 7.89474 3.28947 7.89474C3.26535 7.89474 3.24561 7.95395 3.24561 8.02632C3.24561 8.09868 3.22588 8.1579 3.20175 8.1579C3.17763 8.1579 3.15789 8.2171 3.15789 8.28947C3.15789 8.36184 3.13816 8.42105 3.11404 8.42105C3.08965 8.42105 3.07018 8.53803 3.07018 8.68421C3.07018 8.83039 3.0507 8.94737 3.02632 8.94737C2.99825 8.94737 2.98246 9.3421 2.98246 10.0439C2.98246 10.7456 2.99825 11.1404 3.02632 11.1404C3.05044 11.1404 3.07018 11.239 3.07018 11.3596C3.07018 11.4803 3.08991 11.5789 3.11404 11.5789C3.13816 11.5789 3.15789 11.6579 3.15789 11.7544C3.15789 11.8509 3.17763 11.9298 3.20175 11.9298C3.22588 11.9298 3.24561 11.989 3.24561 12.0614C3.24561 12.1338 3.26535 12.193 3.28947 12.193C3.3136 12.193 3.33333 12.2522 3.33333 12.3246C3.33333 12.3969 3.35307 12.4561 3.37719 12.4561C3.40132 12.4561 3.42105 12.5154 3.42105 12.5877C3.42105 12.6601 3.44079 12.7193 3.46491 12.7193C3.48904 12.7193 3.50877 12.7588 3.50877 12.807C3.50877 12.8553 3.52851 12.8947 3.55263 12.8947C3.57675 12.8947 3.59649 12.9342 3.59649 12.9825C3.59649 13.0307 3.61623 13.0702 3.64035 13.0702C3.66447 13.0702 3.68421 13.1096 3.68421 13.1579C3.68421 13.2061 3.70395 13.2456 3.72807 13.2456C3.75219 13.2456 3.77193 13.2851 3.77193 13.3333C3.77193 13.3816 3.79167 13.4211 3.81579 13.4211C3.83991 13.4211 3.85965 13.4605 3.85965 13.5088C3.85965 13.557 3.87939 13.5965 3.90351 13.5965C3.92763 13.5965 3.94737 13.628 3.94737 13.6666C3.94737 13.7052 4.00658 13.7921 4.07895 13.8596C4.15132 13.9272 4.21053 14.0098 4.21053 14.043C4.21053 14.0762 4.25 14.1319 4.29825 14.1667C4.34649 14.2014 4.38596 14.265 4.38596 14.3079C4.38596 14.362 4.41978 14.386 4.49614 14.386C4.5775 14.386 4.7264 14.2659 5.06632 13.926C5.4821 13.5102 5.60627 13.3333 5.48246 13.3333C5.45833 13.3333 5.4386 13.2982 5.4386 13.2553C5.4386 13.2124 5.39912 13.1488 5.35088 13.114C5.30263 13.0793 5.26316 13.02 5.26316 12.9825C5.26316 12.9449 5.22368 12.8857 5.17544 12.8509C5.12719 12.8161 5.08772 12.7525 5.08772 12.7096C5.08772 12.6667 5.06798 12.6316 5.04386 12.6316C5.01974 12.6316 5 12.5921 5 12.5439C5 12.4956 4.98026 12.4561 4.95614 12.4561C4.93202 12.4561 4.91228 12.4167 4.91228 12.3684C4.91228 12.3202 4.89254 12.2807 4.86842 12.2807C4.8443 12.2807 4.82456 12.2215 4.82456 12.1491C4.82456 12.0768 4.80482 12.0175 4.7807 12.0175C4.75658 12.0175 4.73684 11.9583 4.73684 11.886C4.73684 11.8136 4.71711 11.7544 4.69298 11.7544C4.66886 11.7544 4.64912 11.6952 4.64912 11.6228C4.64912 11.5504 4.62939 11.4912 4.60526 11.4912C4.58114 11.4912 4.5614 11.4123 4.5614 11.3158C4.5614 11.2193 4.54167 11.1404 4.51754 11.1404C4.49316 11.1404 4.47368 11.0234 4.47368 10.8772C4.47368 10.731 4.45421 10.614 4.42982 10.614C4.40268 10.614 4.38596 10.3801 4.38596 10C4.38596 9.61987 4.40268 9.38597 4.42982 9.38597C4.45395 9.38597 4.47368 9.28728 4.47368 9.16667C4.47368 9.04605 4.49342 8.94737 4.51754 8.94737C4.54167 8.94737 4.5614 8.86842 4.5614 8.77193C4.5614 8.67544 4.58114 8.59649 4.60526 8.59649C4.62939 8.59649 4.64912 8.51754 4.64912 8.42105C4.64912 8.32456 4.66886 8.24561 4.69298 8.24561C4.71711 8.24561 4.73684 8.1864 4.73684 8.11404C4.73684 8.04167 4.75658 7.98246 4.7807 7.98246C4.80482 7.98246 4.82456 7.94298 4.82456 7.89474C4.82456 7.84649 4.8443 7.80702 4.86842 7.80702C4.89254 7.80702 4.91228 7.76754 4.91228 7.7193C4.91228 7.67105 4.93202 7.63158 4.95614 7.63158C4.98026 7.63158 5 7.59211 5 7.54386C5 7.49561 5.01974 7.45614 5.04386 7.45614C5.06798 7.45614 5.08772 7.41667 5.08772 7.36842C5.08772 7.32018 5.10746 7.2807 5.13158 7.2807C5.1557 7.2807 5.17544 7.24123 5.17544 7.19298C5.17544 7.14474 5.19518 7.10526 5.2193 7.10526C5.24342 7.10526 5.26316 7.07373 5.26316 7.03513C5.26316 6.99658 5.32237 6.90969 5.39474 6.84211C5.46711 6.77452 5.52632 6.69746 5.52632 6.67083C5.52632 6.63009 2.43399 3.5036 2.40145 3.51145C2.39535 3.51294 2.34592 3.56158 2.29167 3.61952ZM17.0724 4.01618C16.801 4.29145 16.5789 4.54211 16.5789 4.5732C16.5789 4.6043 16.6184 4.6582 16.6667 4.69298C16.7149 4.72776 16.7544 4.78342 16.7544 4.81667C16.7544 4.84987 16.8136 4.93241 16.886 5C16.9583 5.06759 17.0175 5.15013 17.0175 5.18333C17.0175 5.21658 17.057 5.27224 17.1053 5.30702C17.1535 5.3418 17.193 5.3964 17.193 5.42833C17.193 5.46031 17.242 5.53544 17.3019 5.59535L17.4107 5.70421L17.9159 5.19908C18.3718 4.7432 18.5033 4.5614 18.3772 4.5614C18.3531 4.5614 18.3333 4.52987 18.3333 4.49127C18.3333 4.45272 18.2741 4.36583 18.2018 4.29825C18.1294 4.23066 18.0702 4.15171 18.0702 4.12281C18.0702 4.0939 18.011 4.01496 17.9386 3.94737C17.8662 3.87978 17.807 3.80189 17.807 3.77425C17.807 3.72925 17.6105 3.50373 17.5787 3.51224C17.5716 3.51417 17.3438 3.74096 17.0724 4.01618ZM14.9671 6.12145C14.6957 6.39671 14.4737 6.64382 14.4737 6.67057C14.4737 6.69732 14.5329 6.77452 14.6053 6.84211C14.6776 6.90969 14.7368 6.99658 14.7368 7.03513C14.7368 7.07373 14.7566 7.10526 14.7807 7.10526C14.8048 7.10526 14.8246 7.14474 14.8246 7.19298C14.8246 7.24123 14.8443 7.2807 14.8684 7.2807C14.8925 7.2807 14.9123 7.32018 14.9123 7.36842C14.9123 7.41667 14.932 7.45614 14.9561 7.45614C14.9803 7.45614 15 7.49561 15 7.54386C15 7.59211 15.0197 7.63158 15.0439 7.63158C15.068 7.63158 15.0877 7.67105 15.0877 7.7193C15.0877 7.76754 15.1075 7.80702 15.1316 7.80702C15.1557 7.80702 15.1754 7.84649 15.1754 7.89474C15.1754 7.94298 15.1952 7.98246 15.2193 7.98246C15.2434 7.98246 15.2632 8.04167 15.2632 8.11404C15.2632 8.1864 15.2829 8.24561 15.307 8.24561C15.3311 8.24561 15.3509 8.32456 15.3509 8.42105C15.3509 8.51754 15.3706 8.59649 15.3947 8.59649C15.4189 8.59649 15.4386 8.67544 15.4386 8.77193C15.4386 8.86842 15.4583 8.94737 15.4825 8.94737C15.5068 8.94737 15.5263 9.06434 15.5263 9.21053C15.5263 9.35671 15.5458 9.47368 15.5702 9.47368C15.5971 9.47368 15.614 9.69298 15.614 10.0439C15.614 10.3947 15.5971 10.614 15.5702 10.614C15.5458 10.614 15.5263 10.731 15.5263 10.8772C15.5263 11.0234 15.5068 11.1404 15.4825 11.1404C15.4583 11.1404 15.4386 11.2193 15.4386 11.3158C15.4386 11.4123 15.4189 11.4912 15.3947 11.4912C15.3706 11.4912 15.3509 11.5504 15.3509 11.6228C15.3509 11.6952 15.3311 11.7544 15.307 11.7544C15.2829 11.7544 15.2632 11.8136 15.2632 11.886C15.2632 11.9583 15.2434 12.0175 15.2193 12.0175C15.1952 12.0175 15.1754 12.0768 15.1754 12.1491C15.1754 12.2215 15.1557 12.2807 15.1316 12.2807C15.1075 12.2807 15.0877 12.3202 15.0877 12.3684C15.0877 12.4167 15.068 12.4561 15.0439 12.4561C15.0197 12.4561 15 12.4956 15 12.5439C15 12.5921 14.9803 12.6316 14.9561 12.6316C14.932 12.6316 14.9123 12.6667 14.9123 12.7096C14.9123 12.7525 14.8728 12.8161 14.8246 12.8509C14.7763 12.8857 14.7368 12.9449 14.7368 12.9825C14.7368 13.02 14.6974 13.0793 14.6491 13.114C14.6009 13.1488 14.5614 13.2124 14.5614 13.2553C14.5614 13.2982 14.5417 13.3333 14.5175 13.3333C14.4934 13.3333 14.4737 13.363 14.4737 13.3993C14.4737 13.4721 17.4725 16.4912 17.5449 16.4912C17.6061 16.4912 17.9825 16.1113 17.9825 16.0495C17.9825 16.0223 18.0417 15.9448 18.114 15.8772C18.1864 15.8096 18.2456 15.7227 18.2456 15.6842C18.2456 15.6456 18.2654 15.614 18.2895 15.614C18.3136 15.614 18.3333 15.5789 18.3333 15.536C18.3333 15.4931 18.3728 15.4295 18.4211 15.3947C18.4693 15.36 18.5088 15.3007 18.5088 15.2632C18.5088 15.2256 18.5482 15.1664 18.5965 15.1316C18.6447 15.0968 18.6842 15.0332 18.6842 14.9903C18.6842 14.9474 18.7039 14.9123 18.7281 14.9123C18.7522 14.9123 18.7719 14.8728 18.7719 14.8246C18.7719 14.7763 18.7917 14.7368 18.8158 14.7368C18.8399 14.7368 18.8596 14.6974 18.8596 14.6491C18.8596 14.6009 18.8794 14.5614 18.9035 14.5614C18.9276 14.5614 18.9474 14.5219 18.9474 14.4737C18.9474 14.4254 18.9671 14.386 18.9912 14.386C19.0154 14.386 19.0351 14.3465 19.0351 14.2982C19.0351 14.25 19.0548 14.2105 19.0789 14.2105C19.1031 14.2105 19.1228 14.1711 19.1228 14.1228C19.1228 14.0746 19.1425 14.0351 19.1667 14.0351C19.1908 14.0351 19.2105 13.9759 19.2105 13.9035C19.2105 13.8311 19.2303 13.7719 19.2544 13.7719C19.2785 13.7719 19.2982 13.7325 19.2982 13.6842C19.2982 13.636 19.318 13.5965 19.3421 13.5965C19.3662 13.5965 19.386 13.5373 19.386 13.4649C19.386 13.3925 19.4057 13.3333 19.4298 13.3333C19.4539 13.3333 19.4737 13.2939 19.4737 13.2456C19.4737 13.1974 19.4934 13.1579 19.5175 13.1579C19.5417 13.1579 19.5614 13.0789 19.5614 12.9825C19.5614 12.886 19.5811 12.807 19.6053 12.807C19.6294 12.807 19.6491 12.7281 19.6491 12.6316C19.6491 12.5351 19.6689 12.4561 19.693 12.4561C19.7171 12.4561 19.7368 12.3772 19.7368 12.2807C19.7368 12.1842 19.7566 12.1053 19.7807 12.1053C19.8048 12.1053 19.8246 12.0066 19.8246 11.886C19.8246 11.7654 19.8443 11.6667 19.8684 11.6667C19.8935 11.6667 19.9123 11.5351 19.9123 11.3596C19.9123 11.1842 19.9311 11.0526 19.9561 11.0526C19.9841 11.0526 20 10.6871 20 10.0439C20 9.40057 19.9841 9.03509 19.9561 9.03509C19.9311 9.03509 19.9123 8.90351 19.9123 8.72807C19.9123 8.55263 19.8935 8.42105 19.8684 8.42105C19.8443 8.42105 19.8246 8.32237 19.8246 8.20175C19.8246 8.08114 19.8048 7.98246 19.7807 7.98246C19.7566 7.98246 19.7368 7.88377 19.7368 7.76316C19.7368 7.64254 19.7171 7.54386 19.693 7.54386C19.6689 7.54386 19.6491 7.46491 19.6491 7.36842C19.6491 7.27193 19.6294 7.19298 19.6053 7.19298C19.5811 7.19298 19.5614 7.13377 19.5614 7.0614C19.5614 6.98904 19.5417 6.92982 19.5175 6.92982C19.4934 6.92982 19.4737 6.87061 19.4737 6.79825C19.4737 6.72588 19.4539 6.66667 19.4298 6.66667C19.4057 6.66667 19.386 6.62719 19.386 6.57895C19.386 6.5307 19.3662 6.49123 19.3421 6.49123C19.318 6.49123 19.2982 6.43202 19.2982 6.35965C19.2982 6.28728 19.2785 6.22807 19.2544 6.22807C19.2303 6.22807 19.2105 6.1886 19.2105 6.14035C19.2105 6.09211 19.2005 6.05263 19.1882 6.05263C19.1759 6.05263 18.9193 6.29917 18.618 6.60044C18.2079 7.01061 18.0702 7.17592 18.0702 7.25833C18.0702 7.3189 18.0899 7.36842 18.114 7.36842C18.1382 7.36842 18.1579 7.42763 18.1579 7.5C18.1579 7.57237 18.1776 7.63158 18.2018 7.63158C18.2259 7.63158 18.2456 7.71053 18.2456 7.80702C18.2456 7.90351 18.2654 7.98246 18.2895 7.98246C18.3136 7.98246 18.3333 8.08114 18.3333 8.20175C18.3333 8.32237 18.3531 8.42105 18.3772 8.42105C18.4022 8.42105 18.4211 8.55263 18.4211 8.72807C18.4211 8.90351 18.4399 9.03509 18.4649 9.03509C18.4929 9.03509 18.5088 9.40057 18.5088 10.0439C18.5088 10.6871 18.4929 11.0526 18.4649 11.0526C18.4399 11.0526 18.4211 11.1842 18.4211 11.3596C18.4211 11.5351 18.4022 11.6667 18.3772 11.6667C18.3531 11.6667 18.3333 11.7654 18.3333 11.886C18.3333 12.0066 18.3136 12.1053 18.2895 12.1053C18.2654 12.1053 18.2456 12.1842 18.2456 12.2807C18.2456 12.3772 18.2259 12.4561 18.2018 12.4561C18.1776 12.4561 18.1579 12.4956 18.1579 12.5439C18.1579 12.5921 18.1382 12.6316 18.114 12.6316C18.0899 12.6316 18.0702 12.6908 18.0702 12.7632C18.0702 12.8355 18.0504 12.8947 18.0263 12.8947C18.0022 12.8947 17.9825 12.9539 17.9825 13.0263C17.9825 13.0987 17.9627 13.1579 17.9386 13.1579C17.9145 13.1579 17.8947 13.2171 17.8947 13.2895C17.8947 13.3618 17.875 13.4211 17.8509 13.4211C17.8268 13.4211 17.807 13.4605 17.807 13.5088C17.807 13.557 17.7873 13.5965 17.7632 13.5965C17.739 13.5965 17.7193 13.636 17.7193 13.6842C17.7193 13.7325 17.6996 13.7719 17.6754 13.7719C17.6513 13.7719 17.6316 13.8114 17.6316 13.8596C17.6316 13.9079 17.6118 13.9474 17.5877 13.9474C17.5636 13.9474 17.5439 13.9784 17.5439 14.0163C17.5439 14.0953 17.4414 14.2105 17.3711 14.2105C17.345 14.2105 17.0969 13.9838 16.8197 13.7066C16.365 13.2518 16.2336 13.0702 16.3596 13.0702C16.3838 13.0702 16.4035 13.0307 16.4035 12.9825C16.4035 12.9342 16.4232 12.8947 16.4474 12.8947C16.4715 12.8947 16.4912 12.8553 16.4912 12.807C16.4912 12.7588 16.511 12.7193 16.5351 12.7193C16.5592 12.7193 16.5789 12.6601 16.5789 12.5877C16.5789 12.5154 16.5987 12.4561 16.6228 12.4561C16.6469 12.4561 16.6667 12.3969 16.6667 12.3246C16.6667 12.2522 16.6864 12.193 16.7105 12.193C16.7346 12.193 16.7544 12.1338 16.7544 12.0614C16.7544 11.989 16.7741 11.9298 16.7982 11.9298C16.8224 11.9298 16.8421 11.8509 16.8421 11.7544C16.8421 11.6579 16.8618 11.5789 16.886 11.5789C16.9101 11.5789 16.9298 11.4803 16.9298 11.3596C16.9298 11.239 16.9496 11.1404 16.9737 11.1404C17.0018 11.1404 17.0175 10.731 17.0175 10C17.0175 9.26899 17.0018 8.85965 16.9737 8.85965C16.9496 8.85965 16.9298 8.76097 16.9298 8.64035C16.9298 8.51974 16.9101 8.42105 16.886 8.42105C16.8618 8.42105 16.8421 8.36184 16.8421 8.28947C16.8421 8.2171 16.8224 8.1579 16.7982 8.1579C16.7741 8.1579 16.7544 8.09868 16.7544 8.02632C16.7544 7.95395 16.7346 7.89474 16.7105 7.89474C16.6864 7.89474 16.6667 7.83553 16.6667 7.76316C16.6667 7.69079 16.6469 7.63158 16.6228 7.63158C16.5987 7.63158 16.5789 7.57237 16.5789 7.5C16.5789 7.42763 16.5592 7.36842 16.5351 7.36842C16.511 7.36842 16.4912 7.30921 16.4912 7.23684C16.4912 7.16447 16.4715 7.10526 16.4474 7.10526C16.4232 7.10526 16.4035 7.07013 16.4035 7.02724C16.4035 6.9843 16.364 6.92075 16.3158 6.88596C16.2675 6.85118 16.2281 6.78763 16.2281 6.74469C16.2281 6.7018 16.2083 6.66667 16.1842 6.66667C16.1601 6.66667 16.1404 6.62719 16.1404 6.57895C16.1404 6.5307 16.1206 6.49123 16.0965 6.49123C16.0724 6.49123 16.0526 6.45175 16.0526 6.40351C16.0526 6.35526 16.0329 6.31579 16.0088 6.31579C15.9846 6.31579 15.9649 6.28425 15.9649 6.24566C15.9649 6.20711 15.9057 6.12022 15.8333 6.05263C15.761 5.98504 15.7018 5.90715 15.7018 5.87952C15.7018 5.83452 15.5053 5.60899 15.4735 5.6175C15.4664 5.61943 15.2385 5.84623 14.9671 6.12145ZM9.91228 5.92105C9.91228 5.94706 9.75145 5.96491 9.51754 5.96491C9.28364 5.96491 9.12281 5.98276 9.12281 6.00877C9.12281 6.03289 9.04386 6.05263 8.94737 6.05263C8.85088 6.05263 8.77193 6.07237 8.77193 6.09649C8.77193 6.12061 8.71272 6.14035 8.64035 6.14035C8.56798 6.14035 8.50877 6.16009 8.50877 6.18421C8.50877 6.20833 8.4693 6.22807 8.42105 6.22807C8.37281 6.22807 8.33333 6.24781 8.33333 6.27193C8.33333 6.29605 8.29386 6.31579 8.24561 6.31579C8.19737 6.31579 8.1579 6.33553 8.1579 6.35965C8.1579 6.38377 8.11842 6.40351 8.07018 6.40351C8.02193 6.40351 7.98246 6.42325 7.98246 6.44737C7.98246 6.47149 7.94732 6.49123 7.90443 6.49123C7.86149 6.49123 7.79794 6.5307 7.76316 6.57895C7.72838 6.62719 7.67316 6.66667 7.6404 6.66667C7.60763 6.66667 7.505 6.74561 7.41228 6.84211C7.31956 6.9386 7.22101 7.01754 7.19329 7.01754C7.12842 7.01754 7.01754 7.12807 7.01754 7.19268C7.01754 7.22009 6.91886 7.33864 6.79825 7.45614C6.67763 7.57364 6.57895 7.70061 6.57895 7.73838C6.57895 7.77614 6.55921 7.80702 6.53509 7.80702C6.51096 7.80702 6.49123 7.84649 6.49123 7.89474C6.49123 7.94298 6.47149 7.98246 6.44737 7.98246C6.42325 7.98246 6.40351 8.01759 6.40351 8.06048C6.40351 8.10342 6.36404 8.16697 6.31579 8.20175C6.26754 8.23654 6.22807 8.30009 6.22807 8.34303C6.22807 8.38592 6.20833 8.42105 6.18421 8.42105C6.16009 8.42105 6.14035 8.48026 6.14035 8.55263C6.14035 8.625 6.12061 8.68421 6.09649 8.68421C6.07237 8.68421 6.05263 8.76316 6.05263 8.85965C6.05263 8.95614 6.03289 9.03509 6.00877 9.03509C5.98439 9.03509 5.96491 9.15206 5.96491 9.29825C5.96491 9.44443 5.94544 9.5614 5.92105 9.5614C5.89447 9.5614 5.87719 9.75145 5.87719 10.0439C5.87719 10.3363 5.89447 10.5263 5.92105 10.5263C5.94544 10.5263 5.96491 10.6433 5.96491 10.7895C5.96491 10.9357 5.98439 11.0526 6.00877 11.0526C6.03289 11.0526 6.05263 11.1118 6.05263 11.1842C6.05263 11.2566 6.07237 11.3158 6.09649 11.3158C6.12061 11.3158 6.14035 11.375 6.14035 11.4474C6.14035 11.5197 6.16009 11.5789 6.18421 11.5789C6.20833 11.5789 6.22807 11.6184 6.22807 11.6667C6.22807 11.7149 6.24781 11.7544 6.27193 11.7544C6.29605 11.7544 6.31579 11.7939 6.31579 11.8421C6.31579 11.8904 6.33553 11.9298 6.35965 11.9298C6.38377 11.9298 6.40351 11.9693 6.40351 12.0175C6.40351 12.0658 6.42325 12.1053 6.44737 12.1053C6.47149 12.1053 6.49123 12.1368 6.49123 12.1754C6.49123 12.2139 6.55044 12.3008 6.62281 12.3684C6.69518 12.436 6.75439 12.5133 6.75439 12.5401C6.75439 12.6086 7.48632 13.3333 7.55548 13.3333C7.58667 13.3333 7.64066 13.3728 7.67544 13.4211C7.71022 13.4693 7.77377 13.5088 7.81671 13.5088C7.8596 13.5088 7.89474 13.5285 7.89474 13.5526C7.89474 13.5768 7.93421 13.5965 7.98246 13.5965C8.0307 13.5965 8.07018 13.6162 8.07018 13.6404C8.07018 13.6645 8.10531 13.6842 8.1482 13.6842C8.19114 13.6842 8.25469 13.7237 8.28947 13.7719C8.32662 13.8234 8.40303 13.8596 8.4746 13.8596C8.54162 13.8596 8.59649 13.8794 8.59649 13.9035C8.59649 13.9276 8.67544 13.9474 8.77193 13.9474C8.86842 13.9474 8.94737 13.9671 8.94737 13.9912C8.94737 14.0154 9.04605 14.0351 9.16667 14.0351C9.28728 14.0351 9.38597 14.0548 9.38597 14.0789C9.38597 14.1061 9.61987 14.1228 10 14.1228C10.3801 14.1228 10.614 14.1061 10.614 14.0789C10.614 14.0548 10.7127 14.0351 10.8333 14.0351C10.9539 14.0351 11.0526 14.0154 11.0526 13.9912C11.0526 13.9671 11.1316 13.9474 11.2281 13.9474C11.3246 13.9474 11.4035 13.9276 11.4035 13.9035C11.4035 13.8794 11.4584 13.8596 11.5254 13.8596C11.597 13.8596 11.6734 13.8234 11.7105 13.7719C11.7453 13.7237 11.8089 13.6842 11.8518 13.6842C11.8947 13.6842 11.9298 13.6645 11.9298 13.6404C11.9298 13.6162 11.9693 13.5965 12.0175 13.5965C12.0658 13.5965 12.1053 13.5768 12.1053 13.5526C12.1053 13.5285 12.1404 13.5088 12.1833 13.5088C12.2262 13.5088 12.2898 13.4693 12.3246 13.4211C12.3593 13.3728 12.4133 13.3333 12.4445 13.3333C12.5137 13.3333 13.2456 12.6086 13.2456 12.5401C13.2456 12.5133 13.3048 12.436 13.3772 12.3684C13.4496 12.3008 13.5088 12.2139 13.5088 12.1754C13.5088 12.1368 13.5285 12.1053 13.5526 12.1053C13.5768 12.1053 13.5965 12.0658 13.5965 12.0175C13.5965 11.9693 13.6162 11.9298 13.6404 11.9298C13.6645 11.9298 13.6842 11.8904 13.6842 11.8421C13.6842 11.7939 13.7039 11.7544 13.7281 11.7544C13.7522 11.7544 13.7719 11.7149 13.7719 11.6667C13.7719 11.6184 13.7917 11.5789 13.8158 11.5789C13.8399 11.5789 13.8596 11.5197 13.8596 11.4474C13.8596 11.375 13.8794 11.3158 13.9035 11.3158C13.9276 11.3158 13.9474 11.2566 13.9474 11.1842C13.9474 11.1118 13.9671 11.0526 13.9912 11.0526C14.0163 11.0526 14.0351 10.9211 14.0351 10.7456C14.0351 10.5702 14.0539 10.4386 14.0789 10.4386C14.1053 10.4386 14.1228 10.2632 14.1228 10C14.1228 9.73684 14.1053 9.5614 14.0789 9.5614C14.0548 9.5614 14.0351 9.50219 14.0351 9.42982V9.29825H12.0175H10V10.0439V10.7895H11.2719C12.5146 10.7895 12.5439 10.7915 12.5439 10.8772C12.5439 10.9254 12.5241 10.9649 12.5 10.9649C12.4759 10.9649 12.4561 11.0044 12.4561 11.0526C12.4561 11.1009 12.4364 11.1404 12.4123 11.1404C12.3882 11.1404 12.3684 11.1755 12.3684 11.2184C12.3684 11.2613 12.3289 11.3249 12.2807 11.3596C12.2325 11.3944 12.193 11.4484 12.193 11.4796C12.193 11.5594 11.4629 12.2807 11.3822 12.2807C11.3457 12.2807 11.3158 12.3004 11.3158 12.3246C11.3158 12.3487 11.2763 12.3684 11.2281 12.3684C11.1798 12.3684 11.1404 12.3882 11.1404 12.4123C11.1404 12.4364 11.1009 12.4561 11.0526 12.4561C11.0044 12.4561 10.9649 12.4759 10.9649 12.5C10.9649 12.5241 10.9057 12.5439 10.8333 12.5439C10.761 12.5439 10.7018 12.5636 10.7018 12.5877C10.7018 12.6151 10.4386 12.6316 10 12.6316C9.5614 12.6316 9.29825 12.6151 9.29825 12.5877C9.29825 12.5636 9.23904 12.5439 9.16667 12.5439C9.0943 12.5439 9.03509 12.5241 9.03509 12.5C9.03509 12.4759 8.99561 12.4561 8.94737 12.4561C8.89912 12.4561 8.85965 12.4364 8.85965 12.4123C8.85965 12.3882 8.82018 12.3684 8.77193 12.3684C8.72368 12.3684 8.68421 12.3487 8.68421 12.3246C8.68421 12.3004 8.65434 12.2807 8.61781 12.2807C8.53706 12.2807 7.80702 11.5594 7.80702 11.4796C7.80702 11.4484 7.76754 11.3944 7.7193 11.3596C7.67105 11.3249 7.63158 11.2613 7.63158 11.2184C7.63158 11.1755 7.61184 11.1404 7.58772 11.1404C7.5636 11.1404 7.54386 11.1009 7.54386 11.0526C7.54386 11.0044 7.52412 10.9649 7.5 10.9649C7.47588 10.9649 7.45614 10.886 7.45614 10.7895C7.45614 10.693 7.4364 10.614 7.41228 10.614C7.38531 10.614 7.36842 10.3947 7.36842 10.0439C7.36842 9.69298 7.38531 9.47368 7.41228 9.47368C7.4364 9.47368 7.45614 9.39474 7.45614 9.29825C7.45614 9.20175 7.47588 9.12281 7.5 9.12281C7.52412 9.12281 7.54386 9.08333 7.54386 9.03509C7.54386 8.98684 7.5636 8.94737 7.58772 8.94737C7.61184 8.94737 7.63158 8.9079 7.63158 8.85965C7.63158 8.8114 7.65132 8.77193 7.67544 8.77193C7.69956 8.77193 7.7193 8.7368 7.7193 8.6939C7.7193 8.65096 7.75877 8.58741 7.80702 8.55263C7.85526 8.51785 7.89474 8.46373 7.89474 8.43237C7.89474 8.40096 8.00285 8.26715 8.135 8.135C8.26715 8.00285 8.40096 7.89474 8.43237 7.89474C8.46373 7.89474 8.51785 7.85526 8.55263 7.80702C8.58741 7.75877 8.65096 7.7193 8.6939 7.7193C8.7368 7.7193 8.77193 7.69956 8.77193 7.67544C8.77193 7.65132 8.8114 7.63158 8.85965 7.63158C8.9079 7.63158 8.94737 7.61184 8.94737 7.58772C8.94737 7.5636 8.98684 7.54386 9.03509 7.54386C9.08333 7.54386 9.12281 7.52412 9.12281 7.5C9.12281 7.47588 9.22149 7.45614 9.3421 7.45614C9.46272 7.45614 9.5614 7.4364 9.5614 7.41228C9.5614 7.38596 9.73684 7.36842 10 7.36842C10.2632 7.36842 10.4386 7.38596 10.4386 7.41228C10.4386 7.4364 10.5373 7.45614 10.6579 7.45614C10.7785 7.45614 10.8772 7.47588 10.8772 7.5C10.8772 7.52412 10.9167 7.54386 10.9649 7.54386C11.0132 7.54386 11.0526 7.5636 11.0526 7.58772C11.0526 7.61184 11.0921 7.63158 11.1404 7.63158C11.1886 7.63158 11.2281 7.65132 11.2281 7.67544C11.2281 7.69956 11.2675 7.7193 11.3158 7.7193C11.364 7.7193 11.4035 7.73904 11.4035 7.76316C11.4035 7.79114 11.769 7.80702 12.4123 7.80702C13.5726 7.80702 13.5653 7.81026 13.2018 7.45614C13.0811 7.33864 12.9825 7.22009 12.9825 7.19268C12.9825 7.12807 12.8716 7.01754 12.8067 7.01754C12.779 7.01754 12.6804 6.9386 12.5877 6.84211C12.495 6.74561 12.3924 6.66667 12.3596 6.66667C12.3268 6.66667 12.2716 6.62719 12.2368 6.57895C12.2021 6.5307 12.1385 6.49123 12.0956 6.49123C12.0527 6.49123 12.0175 6.47149 12.0175 6.44737C12.0175 6.42325 11.9781 6.40351 11.9298 6.40351C11.8816 6.40351 11.8421 6.38377 11.8421 6.35965C11.8421 6.33553 11.8026 6.31579 11.7544 6.31579C11.7061 6.31579 11.6667 6.29605 11.6667 6.27193C11.6667 6.24781 11.6272 6.22807 11.5789 6.22807C11.5307 6.22807 11.4912 6.20833 11.4912 6.18421C11.4912 6.16009 11.432 6.14035 11.3596 6.14035C11.2873 6.14035 11.2281 6.12061 11.2281 6.09649C11.2281 6.07237 11.1491 6.05263 11.0526 6.05263C10.9561 6.05263 10.8772 6.03289 10.8772 6.00877C10.8772 5.9832 10.731 5.96491 10.5263 5.96491C10.3216 5.96491 10.1754 5.94662 10.1754 5.92105C10.1754 5.89693 10.1162 5.87719 10.0439 5.87719C9.97149 5.87719 9.91228 5.89693 9.91228 5.92105ZM2.02851 14.8495C1.55728 15.328 1.49711 15.4479 1.66667 15.5702C1.71491 15.605 1.75439 15.6606 1.75439 15.6939C1.75439 15.7271 1.8136 15.8096 1.88596 15.8772C1.95833 15.9448 2.01754 16.0223 2.01754 16.0495C2.01754 16.1115 2.39399 16.4912 2.45548 16.4912C2.48053 16.4912 2.70803 16.2842 2.96105 16.0312C3.37684 15.6154 3.50101 15.4386 3.37719 15.4386C3.35307 15.4386 3.33333 15.4071 3.33333 15.3685C3.33333 15.3299 3.27412 15.243 3.20175 15.1754C3.12939 15.1079 3.07018 15.0253 3.07018 14.9921C3.07018 14.9589 3.0307 14.9032 2.98246 14.8684C2.93421 14.8336 2.89474 14.7744 2.89474 14.7368C2.89474 14.6993 2.85526 14.64 2.80702 14.6053C2.75877 14.5705 2.7193 14.5069 2.7193 14.464C2.7193 14.4073 2.68636 14.3869 2.59868 14.3894C2.50575 14.3921 2.37482 14.4977 2.02851 14.8495ZM5.05417 16.0348L3.50746 17.5887L3.70434 17.7856C3.81263 17.8939 3.92342 17.9825 3.95053 17.9825C3.97768 17.9825 4.05522 18.0417 4.12281 18.114C4.19039 18.1864 4.27294 18.2456 4.30614 18.2456C4.33939 18.2456 4.39504 18.2851 4.42982 18.3333C4.46461 18.3816 4.52382 18.4211 4.5614 18.4211C4.59899 18.4211 4.6582 18.4605 4.69298 18.5088C4.72776 18.557 4.79132 18.5965 4.83425 18.5965C4.87715 18.5965 4.91228 18.6162 4.91228 18.6404C4.91228 18.6645 4.95175 18.6842 5 18.6842C5.04825 18.6842 5.08772 18.7039 5.08772 18.7281C5.08772 18.7522 5.12719 18.7719 5.17544 18.7719C5.22368 18.7719 5.26316 18.7917 5.26316 18.8158C5.26316 18.8399 5.30263 18.8596 5.35088 18.8596C5.39912 18.8596 5.4386 18.8794 5.4386 18.9035C5.4386 18.9276 5.47373 18.9474 5.51662 18.9474C5.55956 18.9474 5.62311 18.9868 5.65789 19.0351C5.69504 19.0866 5.77145 19.1228 5.84303 19.1228C5.91004 19.1228 5.96491 19.1425 5.96491 19.1667C5.96491 19.1908 6.00439 19.2105 6.05263 19.2105C6.10088 19.2105 6.14035 19.2303 6.14035 19.2544C6.14035 19.2785 6.19956 19.2982 6.27193 19.2982C6.3443 19.2982 6.40351 19.318 6.40351 19.3421C6.40351 19.3662 6.44298 19.386 6.49123 19.386C6.53947 19.386 6.57895 19.4057 6.57895 19.4298C6.57895 19.4539 6.63816 19.4737 6.71053 19.4737C6.78289 19.4737 6.84211 19.4934 6.84211 19.5175C6.84211 19.5417 6.90132 19.5614 6.97368 19.5614C7.04605 19.5614 7.10526 19.5811 7.10526 19.6053C7.10526 19.6294 7.18421 19.6491 7.2807 19.6491C7.37719 19.6491 7.45614 19.6689 7.45614 19.693C7.45614 19.7171 7.53509 19.7368 7.63158 19.7368C7.72807 19.7368 7.80702 19.7566 7.80702 19.7807C7.80702 19.8048 7.9057 19.8246 8.02632 19.8246C8.14693 19.8246 8.24561 19.8443 8.24561 19.8684C8.24561 19.8928 8.36259 19.9123 8.50877 19.9123C8.65496 19.9123 8.77193 19.9318 8.77193 19.9561C8.77193 19.9843 9.21053 20 10 20C10.7895 20 11.2281 19.9843 11.2281 19.9561C11.2281 19.9318 11.345 19.9123 11.4912 19.9123C11.6374 19.9123 11.7544 19.8928 11.7544 19.8684C11.7544 19.8443 11.8531 19.8246 11.9737 19.8246C12.0943 19.8246 12.193 19.8048 12.193 19.7807C12.193 19.7566 12.2719 19.7368 12.3684 19.7368C12.4649 19.7368 12.5439 19.7171 12.5439 19.693C12.5439 19.6689 12.6228 19.6491 12.7193 19.6491C12.8158 19.6491 12.8947 19.6294 12.8947 19.6053C12.8947 19.5811 12.9539 19.5614 13.0263 19.5614C13.0987 19.5614 13.1579 19.5417 13.1579 19.5175C13.1579 19.4934 13.2171 19.4737 13.2895 19.4737C13.3618 19.4737 13.4211 19.4539 13.4211 19.4298C13.4211 19.4057 13.4605 19.386 13.5088 19.386C13.557 19.386 13.5965 19.3662 13.5965 19.3421C13.5965 19.318 13.6472 19.2982 13.7093 19.2982C13.7713 19.2982 13.8511 19.2693 13.8865 19.2338C13.9432 19.1771 13.8847 19.1032 13.4013 18.6198C12.9059 18.1244 12.7193 17.986 12.7193 18.114C12.7193 18.1382 12.6601 18.1579 12.5877 18.1579C12.5154 18.1579 12.4561 18.1776 12.4561 18.2018C12.4561 18.2259 12.3969 18.2456 12.3246 18.2456C12.2522 18.2456 12.193 18.2654 12.193 18.2895C12.193 18.3136 12.0943 18.3333 11.9737 18.3333C11.8531 18.3333 11.7544 18.3531 11.7544 18.3772C11.7544 18.4016 11.6374 18.4211 11.4912 18.4211C11.345 18.4211 11.2281 18.4405 11.2281 18.4649C11.2281 18.4912 11.0526 18.5088 10.7895 18.5088C10.5263 18.5088 10.3509 18.5263 10.3509 18.5526C10.3509 18.5782 10.2047 18.5965 10 18.5965C9.79531 18.5965 9.64912 18.5782 9.64912 18.5526C9.64912 18.5263 9.47368 18.5088 9.21053 18.5088C8.94737 18.5088 8.77193 18.4912 8.77193 18.4649C8.77193 18.4405 8.65496 18.4211 8.50877 18.4211C8.36259 18.4211 8.24561 18.4016 8.24561 18.3772C8.24561 18.3531 8.16667 18.3333 8.07018 18.3333C7.97368 18.3333 7.89474 18.3136 7.89474 18.2895C7.89474 18.2654 7.81579 18.2456 7.7193 18.2456C7.62281 18.2456 7.54386 18.2259 7.54386 18.2018C7.54386 18.1776 7.48465 18.1579 7.41228 18.1579C7.33991 18.1579 7.2807 18.1382 7.2807 18.114C7.2807 18.0899 7.22149 18.0702 7.14912 18.0702C7.07675 18.0702 7.01754 18.0504 7.01754 18.0263C7.01754 18.0022 6.97807 17.9825 6.92982 17.9825C6.88158 17.9825 6.84211 17.9627 6.84211 17.9386C6.84211 17.9145 6.78289 17.8947 6.71053 17.8947C6.63816 17.8947 6.57895 17.875 6.57895 17.8509C6.57895 17.8268 6.53947 17.807 6.49123 17.807C6.44298 17.807 6.40351 17.7873 6.40351 17.7632C6.40351 17.739 6.36404 17.7193 6.31579 17.7193C6.26754 17.7193 6.22807 17.6996 6.22807 17.6754C6.22807 17.6513 6.1886 17.6316 6.14035 17.6316C6.09211 17.6316 6.05263 17.6118 6.05263 17.5877C6.05263 17.5636 6.02162 17.5439 5.98373 17.5439C5.90469 17.5439 5.78947 17.4414 5.78947 17.3711C5.78947 17.3449 5.99649 17.1165 6.24947 16.8635C6.65895 16.4541 6.72645 16.4035 6.86351 16.4035C6.94825 16.4035 7.01754 16.4232 7.01754 16.4474C7.01754 16.4715 7.07675 16.4912 7.14912 16.4912C7.22149 16.4912 7.2807 16.511 7.2807 16.5351C7.2807 16.5592 7.33991 16.5789 7.41228 16.5789C7.48465 16.5789 7.54386 16.5987 7.54386 16.6228C7.54386 16.6469 7.58333 16.6667 7.63158 16.6667C7.67982 16.6667 7.7193 16.6864 7.7193 16.7105C7.7193 16.7346 7.77851 16.7544 7.85088 16.7544C7.92325 16.7544 7.98246 16.7741 7.98246 16.7982C7.98246 16.8224 8.0614 16.8421 8.1579 16.8421C8.25439 16.8421 8.33333 16.8618 8.33333 16.886C8.33333 16.9101 8.43202 16.9298 8.55263 16.9298C8.67325 16.9298 8.77193 16.9496 8.77193 16.9737C8.77193 16.9997 8.93276 17.0175 9.16667 17.0175C9.40057 17.0175 9.5614 17.0354 9.5614 17.0614C9.5614 17.0877 9.73684 17.1053 10 17.1053C10.2632 17.1053 10.4386 17.0877 10.4386 17.0614C10.4386 17.0354 10.5994 17.0175 10.8333 17.0175C11.0672 17.0175 11.2281 16.9997 11.2281 16.9737C11.2281 16.9496 11.3268 16.9298 11.4474 16.9298C11.568 16.9298 11.6667 16.9101 11.6667 16.886C11.6667 16.8618 11.7456 16.8421 11.8421 16.8421C11.9386 16.8421 12.0175 16.8224 12.0175 16.7982C12.0175 16.7741 12.0768 16.7544 12.1491 16.7544C12.2215 16.7544 12.2807 16.7346 12.2807 16.7105C12.2807 16.6864 12.3202 16.6667 12.3684 16.6667C12.4167 16.6667 12.4561 16.6469 12.4561 16.6228C12.4561 16.5987 12.5154 16.5789 12.5877 16.5789C12.6601 16.5789 12.7193 16.5592 12.7193 16.5351C12.7193 16.511 12.7742 16.4912 12.8412 16.4912C12.9128 16.4912 12.9892 16.455 13.0263 16.4035C13.0611 16.3553 13.1247 16.3158 13.1676 16.3158C13.2105 16.3158 13.2456 16.2961 13.2456 16.2719C13.2456 16.2478 13.2851 16.2281 13.3333 16.2281C13.3816 16.2281 13.4211 16.2083 13.4211 16.1842C13.4211 16.1601 13.4605 16.1404 13.5088 16.1404C13.557 16.1404 13.5965 16.1206 13.5965 16.0965C13.5965 16.0724 13.6316 16.0526 13.6745 16.0526C13.7175 16.0526 13.781 16.0132 13.8158 15.9649C13.8506 15.9167 13.9098 15.8772 13.9474 15.8772C13.985 15.8772 14.0442 15.8377 14.0789 15.7895C14.1137 15.7412 14.1688 15.7018 14.2014 15.7018C14.2724 15.7018 14.386 15.5954 14.386 15.529C14.386 15.5029 14.1577 15.2532 13.8787 14.9743C13.3746 14.4702 13.3709 14.4675 13.2924 14.558C13.2489 14.6081 13.1855 14.6491 13.1514 14.6491C13.1174 14.6491 13.0611 14.6886 13.0263 14.7368C12.9915 14.7851 12.928 14.8246 12.885 14.8246C12.8421 14.8246 12.807 14.8443 12.807 14.8684C12.807 14.8925 12.7675 14.9123 12.7193 14.9123C12.6711 14.9123 12.6316 14.932 12.6316 14.9561C12.6316 14.9803 12.5921 15 12.5439 15C12.4956 15 12.4561 15.0197 12.4561 15.0439C12.4561 15.068 12.4167 15.0877 12.3684 15.0877C12.3202 15.0877 12.2807 15.1075 12.2807 15.1316C12.2807 15.1557 12.2412 15.1754 12.193 15.1754C12.1447 15.1754 12.1053 15.1952 12.1053 15.2193C12.1053 15.2434 12.0461 15.2632 11.9737 15.2632C11.9013 15.2632 11.8421 15.2829 11.8421 15.307C11.8421 15.3311 11.7632 15.3509 11.6667 15.3509C11.5702 15.3509 11.4912 15.3706 11.4912 15.3947C11.4912 15.4189 11.432 15.4386 11.3596 15.4386C11.2873 15.4386 11.2281 15.4583 11.2281 15.4825C11.2281 15.5066 11.1294 15.5263 11.0088 15.5263C10.8882 15.5263 10.7895 15.5461 10.7895 15.5702C10.7895 15.5978 10.4971 15.614 10 15.614C9.50294 15.614 9.21053 15.5978 9.21053 15.5702C9.21053 15.5461 9.11184 15.5263 8.99123 15.5263C8.87061 15.5263 8.77193 15.5066 8.77193 15.4825C8.77193 15.4583 8.71272 15.4386 8.64035 15.4386C8.56798 15.4386 8.50877 15.4189 8.50877 15.3947C8.50877 15.3706 8.42982 15.3509 8.33333 15.3509C8.23684 15.3509 8.1579 15.3311 8.1579 15.307C8.1579 15.2829 8.09868 15.2632 8.02632 15.2632C7.95395 15.2632 7.89474 15.2434 7.89474 15.2193C7.89474 15.1952 7.85526 15.1754 7.80702 15.1754C7.75877 15.1754 7.7193 15.1557 7.7193 15.1316C7.7193 15.1075 7.67982 15.0877 7.63158 15.0877C7.58333 15.0877 7.54386 15.068 7.54386 15.0439C7.54386 15.0197 7.50439 15 7.45614 15C7.40789 15 7.36842 14.9803 7.36842 14.9561C7.36842 14.932 7.32895 14.9123 7.2807 14.9123C7.23246 14.9123 7.19298 14.8925 7.19298 14.8684C7.19298 14.8443 7.15785 14.8246 7.11496 14.8246C7.07202 14.8246 7.00846 14.7851 6.97368 14.7368C6.9389 14.6886 6.87969 14.6491 6.84211 14.6491C6.80452 14.6491 6.74531 14.6096 6.71053 14.5614C6.67575 14.5132 6.63684 14.4753 6.62408 14.4773C6.61132 14.4793 5.90487 15.1801 5.05417 16.0348ZM15.4386 16.6228C15.4386 16.6469 15.4071 16.6667 15.3685 16.6667C15.3299 16.6667 15.243 16.7259 15.1754 16.7982C15.1079 16.8706 15.0253 16.9298 14.9921 16.9298C14.9589 16.9298 14.9032 16.9693 14.8684 17.0175C14.8336 17.0658 14.778 17.1053 14.7447 17.1053C14.7115 17.1053 14.629 17.1645 14.5614 17.2368C14.4938 17.3092 14.4069 17.3684 14.3684 17.3684C14.3298 17.3684 14.2982 17.3785 14.2982 17.3908C14.2982 17.4031 14.525 17.64 14.8021 17.9171C15.3293 18.4443 15.445 18.507 15.5702 18.3333C15.605 18.2851 15.6606 18.2456 15.6939 18.2456C15.7271 18.2456 15.8096 18.1864 15.8772 18.114C15.9448 18.0417 16.0223 17.9825 16.0495 17.9825C16.0766 17.9825 16.1875 17.8938 16.2958 17.7854L16.4929 17.5884L15.9881 17.0837C15.7105 16.8061 15.4733 16.5789 15.461 16.5789C15.4487 16.5789 15.4386 16.5987 15.4386 16.6228Z" fill="#30CFFD"/>
</svg>
