<svg width="20" height="20" viewBox="0 0 20 20" fill="none" xmlns="http://www.w3.org/2000/svg">
<g clip-path="url(#clip0_3646_21792)">
<path d="M11.3292 4.54199H10.2722L8.12344 12.6571L11.4418 10.9687L11.0882 7.2924H10.381L10.7346 5.71296H11.7101L13.552 11.3772L4.28826 18.1034L10.0274 0.538924L11.3292 4.54199H11.3292ZM13.7559 12.0035L10.5173 14.3439L15.7396 18.1034L13.7559 12.0035V12.0035ZM12.9377 7.29242L14.053 10.8598L19.1121 7.29242H12.9377V7.29242ZM0.83388 7.29242L5.89305 10.8598L7.00825 7.29242H0.83388ZM18.119 9.14415C18.1458 9.41283 18.1595 9.68536 18.1595 9.96109C18.1595 12.1898 17.265 14.2094 15.816 15.6798L16.3916 17.4869C18.5057 15.6788 19.8459 12.9902 19.8459 9.98832C19.8459 9.31697 19.7789 8.6613 19.6511 8.02764L18.119 9.14415V9.14415ZM13.4268 17.3599C12.3924 17.8371 11.2407 18.1034 10.0269 18.1034C8.81306 18.1034 7.66142 17.8371 6.62692 17.3599L5.10372 18.5431C6.54583 19.3722 8.21746 19.8462 9.99965 19.8462C11.8234 19.8462 13.5313 19.3499 14.996 18.4846L13.4268 17.3599ZM5.22835 2.22324L5.19989 2.00726L5.10208 2.06759L5.12403 2.30061L5.22835 2.22323V2.22324ZM2.97792 3.90913L3.05745 3.81566L3.15056 4.02318L3.07758 4.11067L2.97793 3.90912L2.97792 3.90913ZM0.81786 6.42098H2.701C3.83128 4.0808 6.04728 2.36446 8.69412 1.9276L9.31971 0.153564C5.43415 0.418914 2.16765 2.94111 0.81786 6.42098ZM2.60814 5.52707L2.55675 5.48335L2.36108 5.7971L1.96999 5.20462L2.27932 4.6864C2.36693 4.69638 2.4145 4.78903 2.37405 4.85533C2.34154 4.90861 2.31158 4.96345 2.28037 5.0178L2.21396 4.94153L2.14138 5.042L2.44893 5.51856L2.52136 5.4056L2.36939 5.17455L2.32137 5.18865C2.27405 5.14497 2.33712 4.99813 2.45417 4.87883C2.51755 4.9763 2.58003 5.07194 2.64204 5.16789C2.69097 5.24361 2.73791 5.32067 2.78885 5.39501C2.8028 5.41537 2.82797 5.42806 2.86281 5.45627L2.60815 5.52708L2.60814 5.52707ZM7.37765 0.951004L7.67943 0.860564L7.62335 1.1716L7.74081 1.13405L7.79187 0.830664L8.05331 0.754804C8.03317 0.874154 8.02056 0.986804 7.99207 1.09529C7.9832 1.12906 7.93348 1.15479 7.89834 1.17798C7.8782 1.19127 7.8498 1.19208 7.81205 1.20191L7.74041 1.64159L7.5112 1.52185L7.55126 1.28078L7.39118 1.32082C7.3486 1.28118 7.35416 1.17316 7.41138 0.994534L7.37764 0.951014L7.37765 0.951004ZM6.28731 1.34708L6.38307 1.45761L6.43756 1.2788L6.67629 1.17739L6.69099 1.16896L6.69311 1.16545L6.69649 1.16352L6.69457 1.16691L6.69311 1.16545L6.69456 1.16692L6.691 1.16896L6.68232 1.18337L6.68235 1.18339C6.63585 1.30387 6.58921 1.4243 6.54299 1.54489C6.53473 1.56645 6.52824 1.58869 6.51885 1.61686L6.73081 1.87223L6.48732 1.9841L6.39868 1.88798C6.37802 2.06583 6.23881 2.10487 6.09518 2.15903L6.2673 1.72998L6.04514 1.46406L6.28732 1.34708H6.28731ZM5.38007 1.7903L5.42466 1.82962L5.50351 2.49656L5.28111 2.64025L5.23472 2.32266L5.1381 2.38736C5.16508 2.50534 5.14027 2.63154 5.20779 2.76146L4.93603 2.71598C4.92184 2.61641 4.9079 2.52116 4.89478 2.4258C4.88222 2.33455 4.87051 2.24317 4.85617 2.13473L5.38008 1.79031L5.38007 1.7903ZM3.94465 2.82925L4.10998 3.42453L4.19828 3.353C4.17485 3.26267 4.16899 3.16629 4.09204 3.0773C4.18543 3.07361 4.27593 3.072 4.37629 3.087L4.4356 3.27777L3.95781 3.68657C3.93576 3.64278 3.91324 3.61109 3.90321 3.57585C3.86023 3.4249 3.8222 3.27254 3.77929 3.12157C3.77008 3.08919 3.74808 3.06043 3.72784 3.02221L3.94464 2.82924L3.94465 2.82925ZM3.37963 3.96325C3.40769 4.02412 3.44662 4.08016 3.47253 4.14178C3.48194 4.16416 3.47706 4.20312 3.46267 4.22287C3.42212 4.27857 3.37325 4.32823 3.3243 4.3841L3.18833 4.09664L3.10065 4.19138L3.26213 4.54177L3.02248 4.56793L2.77879 4.0423C2.90658 3.89038 3.03901 3.71758 3.19361 3.54376C3.26244 3.69964 3.31925 3.83227 3.37963 3.96325V3.96325ZM15.9812 2.95596C15.9729 2.96307 15.9597 2.96419 15.9493 2.96908C15.8239 3.0277 15.6987 3.08652 15.5638 3.14979L15.6545 3.22334L16.1483 2.99332C16.0986 2.92076 16.0474 2.89934 15.9812 2.95595V2.95596ZM14.9173 2.10339L15.0075 2.16488L14.857 2.2689L14.7141 2.24072L14.9173 2.1034V2.10339ZM10.7887 0.161604L11.2783 1.91457C13.9612 2.32932 16.211 4.0568 17.353 6.42098H19.1817C17.8446 2.97364 14.6263 0.466164 10.7887 0.161604ZM12.3006 1.62915L12.0387 1.56855L12.2168 1.34272L12.1071 1.30959C12.0473 1.38322 11.9877 1.45417 11.9315 1.5276C11.9212 1.54102 11.9241 1.56453 11.9209 1.58338L11.9201 1.58597L11.9204 1.58261V1.58258C11.9049 1.57871 11.8816 1.57998 11.875 1.57014C11.8318 1.50511 11.792 1.4377 11.7491 1.36762C11.8511 1.24052 11.9521 1.11618 12.051 0.990214C12.0681 0.968424 12.0764 0.939704 12.0908 0.909944L12.3789 0.972864L12.1768 1.22406L12.287 1.25539L12.5006 1.00048L12.7579 1.05995L12.3006 1.62915H12.3006ZM13.9344 1.69546L13.6838 1.6009L13.7662 1.51321L13.6509 1.46535L13.5497 1.5997L13.8894 1.73488L13.8254 1.79395L13.4613 1.65428L13.2524 1.84676L13.3581 1.89003L13.5295 1.73792L13.781 1.83452L13.5467 2.04678L12.9321 1.80891L13.4671 1.31171L14.0902 1.55347L13.9344 1.69546V1.69546ZM15.1756 2.34899C15.1305 2.37637 15.0693 2.37727 15.0099 2.39094L15.0268 2.44601L14.7146 2.65287L14.4856 2.52109L14.752 2.33922L14.6223 2.29794L14.3786 2.4594L14.1444 2.32831C14.341 2.17997 14.5563 2.07595 14.7365 1.91055L15.2747 2.22223C15.2925 2.30766 15.2178 2.32338 15.1756 2.349V2.34899ZM15.6327 3.30939C15.5343 3.23708 15.442 3.15645 15.3431 3.07611V2.98073C15.512 2.9027 15.6785 2.82664 15.8439 2.74843C15.8662 2.7379 15.8833 2.71648 15.9106 2.69348L16.4263 3.10348C16.3989 3.12816 16.3832 3.15014 16.3618 3.1604C16.1885 3.24348 16.0142 3.32437 15.8173 3.41666C15.7636 3.38601 15.6935 3.35404 15.6327 3.3094V3.30939ZM17.0834 3.88684L16.9087 3.94226L17.166 4.22257L17.0887 4.25173L16.8235 3.96744L16.5503 4.04586L16.6302 4.13284L16.8441 4.07175L17.0281 4.26876L16.7304 4.35493L16.2855 3.87846C16.5053 3.78446 16.744 3.76002 16.9684 3.65213L17.4324 4.15158L17.232 4.20667L17.0552 4.01659L17.1563 3.97315L17.0834 3.88685V3.88684ZM17.8764 5.12099L17.9933 5.09002L17.9426 4.99728L17.7652 5.0209C17.7669 5.14171 17.8432 5.24763 17.8134 5.36497L17.5205 5.39998L17.3038 5.08955L17.2451 5.11695L17.2906 4.83323L17.4109 4.82445L17.5567 5.04177L17.3853 5.07287L17.4475 5.16753L17.677 5.14703L17.5818 4.80813L17.861 4.75531C17.964 4.90538 18.0746 5.06505 18.1829 5.22621C18.1973 5.24755 18.2003 5.27653 18.2111 5.30994L18.0233 5.33692L17.8764 5.12098L17.8764 5.12099ZM1.89411 9.9611C1.89411 9.68537 1.9078 9.41283 1.93453 9.14415L0.34808 8.02765C0.22035 8.6613 0.15332 9.31698 0.15332 9.98833C0.15332 13.0151 1.51581 15.7233 3.66024 17.5316L4.23764 15.6798C2.78854 14.2094 1.89411 12.1898 1.89411 9.9611V9.9611Z" fill="url(#paint0_linear_3646_21792)"/>
<path opacity="0.09" d="M5.1998 2.0073L5.22826 2.22328L5.12394 2.30066L5.10199 2.06764L5.1998 2.00731V2.0073ZM3.07749 4.11072L3.15047 4.02323L3.05736 3.81571L2.97783 3.90918L3.07748 4.11073L3.07749 4.11072ZM15.6544 3.2234L16.1482 2.99338C16.0985 2.92082 16.0473 2.8994 15.9812 2.95601C15.9729 2.96312 15.9597 2.96424 15.9492 2.96913C15.8239 3.02775 15.6986 3.08657 15.5638 3.14984L15.6544 3.22339V3.2234ZM14.7141 2.24076L14.8569 2.26894L15.0074 2.16492L14.9172 2.10343L14.7141 2.24075V2.24076ZM13.902 11.956C13.8868 11.9093 13.8502 11.8727 13.8035 11.8574C13.7568 11.8422 13.7056 11.8502 13.6658 11.879L10.4272 14.2193C10.3871 14.2483 10.3634 14.2947 10.3635 14.3441C10.3635 14.3935 10.3873 14.4398 10.4274 14.4687L15.6498 18.2282C15.6766 18.2476 15.7081 18.2572 15.7396 18.2572C15.7714 18.2572 15.8032 18.2474 15.8302 18.2276C15.8839 18.1885 15.9063 18.1192 15.8858 18.056L13.902 11.956L13.902 11.956ZM19.8018 7.99732C19.7914 7.94597 19.7556 7.90343 19.7068 7.88444C19.658 7.86546 19.6029 7.87262 19.5605 7.90347L18.0284 9.01997C17.9844 9.05209 17.9606 9.10518 17.966 9.15946C17.9924 9.42364 18.0057 9.69336 18.0057 9.96115C18.0057 11.0302 17.7983 12.068 17.3893 13.0455C16.9942 13.9898 16.428 14.8398 15.7064 15.572C15.6664 15.6126 15.6521 15.6721 15.6695 15.7265L16.245 17.5336C16.2607 17.5827 16.2999 17.6207 16.3494 17.6348C16.3633 17.6388 16.3774 17.6407 16.3915 17.6407C16.4277 17.6407 16.4632 17.6279 16.4914 17.6038C17.0276 17.1452 17.5168 16.6285 17.9452 16.068C18.3769 15.5035 18.7487 14.8921 19.0505 14.2508C19.3579 13.5977 19.5944 12.9098 19.7533 12.2061C19.9167 11.4828 19.9995 10.7367 19.9995 9.98837C19.9995 9.31794 19.933 8.64806 19.8018 7.99732H19.8018ZM0.690952 6.50786C0.662292 6.46601 0.656122 6.41272 0.674472 6.36542C1.35456 4.61209 2.51343 3.08827 4.02581 1.9587C5.56604 0.808317 7.39299 0.131087 9.30916 0.000236889C9.3607 -0.00329311 9.4107 0.0193869 9.44201 0.0605669C9.47331 0.101757 9.48181 0.155927 9.4646 0.204717L8.83901 1.97876C8.82036 2.03164 8.77439 2.07017 8.71907 2.0793C6.16723 2.50048 3.96921 4.14854 2.83934 6.48786C2.81369 6.54097 2.7599 6.57472 2.70092 6.57472H0.817782C0.767062 6.57472 0.719602 6.5497 0.690952 6.50785V6.50786ZM2.1413 5.04205L2.21388 4.94158L2.28029 5.01785C2.3115 4.9635 2.34146 4.90866 2.37397 4.85538C2.41442 4.78909 2.36685 4.69643 2.27924 4.68645L1.96991 5.20467L2.361 5.79715L2.55667 5.4834L2.60806 5.52712L2.86272 5.45631C2.82788 5.42811 2.80271 5.41541 2.78876 5.39505C2.73782 5.32071 2.69088 5.24365 2.64195 5.16793C2.57994 5.07198 2.51746 4.97634 2.45408 4.87887C2.33704 4.99818 2.27396 5.14502 2.32128 5.18869L2.3693 5.17459L2.52127 5.40564L2.44884 5.5186L2.14129 5.04204L2.1413 5.04205ZM7.5512 1.28083L7.51114 1.5219L7.74035 1.64164L7.81199 1.20196C7.84974 1.19213 7.87815 1.19132 7.89828 1.17803C7.93341 1.15484 7.98314 1.12911 7.99201 1.09534C8.0205 0.986847 8.03311 0.874197 8.05325 0.754847L7.79181 0.830707L7.74075 1.1341L7.62329 1.17165L7.67937 0.860607L7.37759 0.951047L7.41133 0.994567C7.35411 1.17321 7.34855 1.28122 7.39113 1.32086L7.55121 1.28082L7.5512 1.28083ZM6.26722 1.73003L6.0951 2.15908C6.23873 2.10491 6.37794 2.06588 6.3986 1.88803L6.48724 1.98415L6.73073 1.87228L6.51877 1.61691C6.52816 1.58874 6.53465 1.5665 6.54291 1.54494C6.58913 1.42435 6.63577 1.30392 6.68227 1.18344L6.68224 1.18342L6.69092 1.16901L6.69448 1.16697L6.69303 1.1655L6.69449 1.16696L6.69641 1.16357L6.69303 1.1655L6.69091 1.16901L6.67621 1.17744L6.43748 1.27885L6.38299 1.45766L6.28723 1.34713L6.04505 1.46411L6.26721 1.73003H6.26722ZM5.13803 2.38741L5.23465 2.32271L5.28104 2.6403L5.50344 2.49661L5.42459 1.82967L5.38 1.79035L4.85609 2.13477C4.87044 2.24322 4.88214 2.33459 4.8947 2.42584C4.90782 2.5212 4.92176 2.61645 4.93595 2.71602L5.20771 2.7615C5.1402 2.63157 5.165 2.50538 5.13802 2.3874L5.13803 2.38741ZM4.19821 3.35306L4.10991 3.42459L3.94458 2.82931L3.72778 3.02228C3.74802 3.0605 3.77002 3.08926 3.77923 3.12164C3.82214 3.27261 3.86018 3.42497 3.90315 3.57592C3.91318 3.61116 3.93571 3.64285 3.95775 3.68664L4.43554 3.27784L4.37623 3.08707C4.27587 3.07207 4.18536 3.07368 4.09198 3.07737C4.16893 3.16636 4.17479 3.26274 4.19822 3.35307L4.19821 3.35306ZM3.19354 3.54381C3.03894 3.71763 2.90651 3.89043 2.77872 4.04235L3.02241 4.56798L3.26206 4.54182L3.10058 4.19143L3.18826 4.09669L3.32423 4.38415C3.37318 4.32828 3.42205 4.27862 3.4626 4.22292C3.47698 4.20317 3.48187 4.16421 3.47246 4.14183C3.44655 4.08021 3.40763 4.02417 3.37956 3.9633C3.31918 3.83232 3.26238 3.69969 3.19354 3.54381V3.54381ZM19.112 7.13875H12.9376C12.8887 7.13875 12.8427 7.16202 12.8138 7.20143C12.7848 7.24083 12.7763 7.29166 12.7909 7.33834L13.9062 10.9057C13.9208 10.9526 13.957 10.9897 14.0035 11.0055C14.0196 11.0109 14.0363 11.0136 14.0529 11.0136C14.0842 11.0136 14.1152 11.004 14.1415 10.9855L19.2006 7.4181C19.2554 7.3795 19.2788 7.30987 19.2586 7.24601C19.2383 7.18215 19.179 7.13876 19.112 7.13876V7.13875ZM10.6405 0.202987C10.627 0.154617 10.638 0.102697 10.6699 0.0639269C10.7019 0.0251569 10.7506 0.00446689 10.8008 0.00839689C12.6942 0.158657 14.4974 0.843927 16.0154 1.99011C17.5071 3.1164 18.6516 4.62936 19.3249 6.36543C19.3433 6.41272 19.3371 6.46601 19.3084 6.50786C19.2798 6.54971 19.2323 6.57473 19.1816 6.57473H17.3529C17.294 6.57473 17.2402 6.54098 17.2145 6.48787C16.6596 5.33902 15.8251 4.32651 14.8013 3.55982C14.2871 3.17478 13.7277 2.85277 13.1386 2.60275C12.5361 2.34704 11.9022 2.16662 11.2547 2.06653C11.1951 2.05731 11.1463 2.01407 11.1301 1.95596L10.6405 0.202997L10.6405 0.202987ZM17.3852 5.07291L17.5566 5.04181L17.4108 4.82449L17.2906 4.83327L17.245 5.11699L17.3037 5.08959L17.5204 5.40002L17.8133 5.36501C17.8431 5.24768 17.7668 5.14176 17.7651 5.02094L17.9425 4.99732L17.9932 5.09006L17.8764 5.12103L18.0232 5.33697L18.211 5.30999C18.2002 5.27658 18.1972 5.2476 18.1829 5.22626C18.0745 5.0651 17.9639 4.90544 17.8609 4.75536L17.5818 4.80818L17.677 5.14708L17.4474 5.16758L17.3852 5.07292L17.3852 5.07291ZM17.4324 4.15161L16.9683 3.65216C16.744 3.76005 16.5052 3.7845 16.2855 3.87849L16.7303 4.35496L17.0281 4.26879L16.844 4.07178L16.6301 4.13287L16.5502 4.04589L16.8234 3.96747L17.0887 4.25176L17.166 4.2226L16.9086 3.94229L17.0833 3.88687L17.1562 3.97317L17.0551 4.01661L17.232 4.20669L17.4324 4.1516V4.15161ZM16.4263 3.10351L15.9106 2.69351C15.8832 2.71651 15.8661 2.73793 15.8438 2.74846C15.6784 2.82668 15.5119 2.90273 15.343 2.98076V3.07614C15.4419 3.15648 15.5342 3.23711 15.6327 3.30942C15.6934 3.35406 15.7636 3.38603 15.8172 3.41668C16.0141 3.32438 16.1885 3.2435 16.3617 3.16042C16.3831 3.15016 16.3989 3.12818 16.4263 3.1035V3.10351ZM15.0099 2.39098C15.0693 2.37731 15.1305 2.37642 15.1755 2.34903C15.2177 2.32341 15.2924 2.30769 15.2746 2.22226L14.7365 1.91058C14.5562 2.07598 14.341 2.18 14.1443 2.32834L14.3786 2.45943L14.6222 2.29797L14.7519 2.33925L14.4856 2.52112L14.7145 2.6529L15.0268 2.44604L15.0099 2.39097V2.39098ZM12.1767 1.22409L12.3788 0.972887L12.0907 0.909967C12.0763 0.939727 12.068 0.968447 12.0509 0.990237C11.952 1.11621 11.851 1.24056 11.749 1.36765C11.792 1.43774 11.8317 1.50515 11.875 1.57017C11.8815 1.58001 11.9048 1.57874 11.9203 1.58261V1.58264L11.92 1.586L11.9208 1.58341C11.924 1.56456 11.9211 1.54106 11.9314 1.52763C11.9877 1.4542 12.0472 1.38324 12.1071 1.30962L12.2167 1.34275L12.0386 1.56858L12.3005 1.62918L12.7578 1.05998L12.5005 1.00051L12.2869 1.25542L12.1767 1.22409H12.1767ZM13.7661 1.51325L13.6837 1.60094L13.9343 1.6955L14.0902 1.55351L13.467 1.31175L12.9321 1.80895L13.5466 2.04682L13.7809 1.83456L13.5294 1.73796L13.358 1.89007L13.2523 1.8468L13.4612 1.65432L13.8253 1.79399L13.8894 1.73492L13.5497 1.59974L13.6508 1.46539L13.7661 1.51325V1.51325ZM15.0855 18.3597L13.5163 17.235C13.4714 17.2028 13.4126 17.1972 13.3624 17.2204C12.3133 17.7043 11.1911 17.9497 10.0268 17.9497C8.86263 17.9497 7.74038 17.7043 6.69124 17.2204C6.6391 17.1963 6.57789 17.2033 6.53254 17.2386L5.00934 18.4218C4.96889 18.4532 4.94675 18.5027 4.95029 18.5538C4.95384 18.6049 4.98262 18.6509 5.02702 18.6764C5.76799 19.1024 6.56097 19.4313 7.38392 19.654C8.23236 19.8836 9.11239 20 9.99956 20C10.9073 20 11.8069 19.8782 12.6735 19.6381C13.5137 19.4052 14.3214 19.0617 15.0741 18.617C15.1188 18.5905 15.1472 18.5433 15.1495 18.4914C15.1518 18.4395 15.1277 18.3899 15.0855 18.3597L15.0855 18.3597ZM7.00817 7.13874H0.833812C0.766822 7.13874 0.707542 7.18213 0.687282 7.24599C0.667032 7.30985 0.690482 7.37948 0.745222 7.41808L5.80439 10.9855C5.83065 11.004 5.86166 11.0136 5.89299 11.0136C5.90957 11.0136 5.92623 11.0109 5.94232 11.0054C5.98885 10.9897 6.02504 10.9526 6.03969 10.9057L7.15489 7.33832C7.16949 7.29164 7.16099 7.24081 7.13202 7.2014C7.10306 7.162 7.05707 7.13873 7.00817 7.13873V7.13874ZM4.34704 15.572C3.62548 14.8398 3.05929 13.9898 2.66418 13.0455C2.25515 12.068 2.04774 11.0302 2.04774 9.96114C2.04774 9.69363 2.06109 9.4239 2.08741 9.15941C2.0929 9.10424 2.06825 9.05039 2.02292 9.01848L0.436462 7.90198C0.393982 7.87209 0.339282 7.86567 0.291072 7.8849C0.242832 7.90413 0.207562 7.94642 0.197302 7.99732C0.0660617 8.64842 -0.000488281 9.3183 -0.000488281 9.98836C-0.000488281 10.7428 0.0837017 11.4949 0.249752 12.2237C0.411282 12.9328 0.651482 13.6256 0.963682 14.2828C1.27022 14.9282 1.64778 15.5428 2.08588 16.1097C2.52087 16.6726 3.01718 17.1905 3.56105 17.6491C3.58913 17.6728 3.62433 17.6853 3.66016 17.6853C3.67455 17.6853 3.68905 17.6833 3.70322 17.6792C3.75265 17.6648 3.79158 17.6265 3.8069 17.5774L4.3843 15.7256C4.40119 15.6714 4.38687 15.6124 4.34704 15.5719V15.572ZM13.6981 11.3297L11.8562 5.66547C11.8356 5.60215 11.7766 5.55928 11.71 5.55928H10.7346C10.6626 5.55928 10.6003 5.6092 10.5845 5.67942L10.2309 7.25886C10.2208 7.3044 10.2318 7.35211 10.261 7.38854C10.2901 7.42497 10.3343 7.44617 10.381 7.44617H10.9485L11.2787 10.8792L8.35991 12.3643L10.3904 4.69575H11.3292C11.3784 4.69575 11.4246 4.67219 11.4535 4.63237C11.4825 4.59256 11.4906 4.5413 11.4753 4.4945L10.1735 0.491417C10.153 0.428137 10.094 0.385287 10.0275 0.385237H10.0274C9.96085 0.385237 9.90189 0.427997 9.88123 0.491217L4.14207 18.0557C4.12137 18.1191 4.14384 18.1885 4.19771 18.2277C4.22467 18.2474 4.25643 18.2572 4.28819 18.2572C4.31988 18.2572 4.35158 18.2474 4.3785 18.2278L13.6422 11.5016C13.6962 11.4625 13.7187 11.393 13.6981 11.3297V11.3297Z" fill="#00FFF2"/>
<path d="M4.28876 18.2567C4.25653 18.2567 4.22528 18.247 4.19794 18.2274C4.14423 18.1884 4.12177 18.119 4.14228 18.0555L9.88154 0.49109C9.90302 0.42761 9.96162 0.38562 10.028 0.38562C10.0944 0.38562 10.154 0.42859 10.1745 0.49109L11.4763 4.49402C11.4909 4.5409 11.4831 4.59265 11.4538 4.63269C11.4255 4.67175 11.3786 4.69519 11.3298 4.69519H10.3903L8.36006 12.3641L11.279 10.8788L10.9489 7.44617H10.3815C10.3347 7.44617 10.2907 7.42566 10.2614 7.38855C10.2321 7.35242 10.2214 7.30457 10.2312 7.25964L10.5847 5.67956C10.6003 5.60925 10.6628 5.55944 10.7351 5.55944H11.7107C11.7771 5.55944 11.8366 5.60143 11.8571 5.66491L13.6989 11.329C13.7194 11.3924 13.697 11.4618 13.6423 11.5009L4.37863 18.2274C4.35226 18.2469 4.32004 18.2567 4.28879 18.2567L4.28876 18.2567ZM10.028 1.03504L4.58173 17.7001L13.3718 11.3182L11.5993 5.86609H10.8581L10.5739 7.13953H11.0886C11.1677 7.13953 11.2341 7.1991 11.2419 7.2782L11.5954 10.954C11.6013 11.0165 11.5681 11.077 11.5114 11.1054L8.19307 12.7938C8.14131 12.8222 8.07491 12.8153 8.02705 12.7763C7.98017 12.7382 7.95967 12.6766 7.97529 12.6181L10.1237 4.50282C10.1413 4.43544 10.2028 4.38856 10.2722 4.38856H11.1179L10.028 1.03504H10.028Z" fill="url(#paint1_linear_3646_21792)"/>
<path d="M15.7397 18.2568C15.7085 18.2568 15.6772 18.248 15.6499 18.2285L10.4272 14.4687C10.3872 14.4394 10.3638 14.3935 10.3638 14.3437C10.3638 14.2949 10.3872 14.248 10.4272 14.2187L13.6655 11.8788C13.7056 11.8515 13.7563 11.8427 13.8032 11.8574C13.8501 11.873 13.8862 11.9091 13.9019 11.956L15.8862 18.0556C15.9067 18.1191 15.8843 18.1884 15.8306 18.2275C15.8032 18.247 15.772 18.2568 15.7398 18.2568L15.7397 18.2568ZM10.7798 14.3437L15.4478 17.704L13.6743 12.2519L10.7798 14.3437Z" fill="url(#paint2_linear_3646_21792)"/>
<path d="M14.0534 11.0135C14.0368 11.0135 14.0202 11.0116 14.0036 11.0057C13.9577 10.9901 13.9215 10.953 13.9069 10.9061L12.7917 7.33875C12.777 7.29187 12.7858 7.24109 12.8141 7.20203C12.8434 7.16199 12.8893 7.13953 12.9381 7.13953H19.112C19.1793 7.13953 19.2379 7.1825 19.2584 7.24598C19.279 7.31043 19.2555 7.37977 19.2008 7.41883L14.1422 10.9862C14.1159 11.0048 14.0846 11.0135 14.0534 11.0135V11.0135ZM13.1471 7.44617L14.1373 10.6132L18.6276 7.44617H13.1471H13.1471Z" fill="url(#paint3_linear_3646_21792)"/>
<path d="M5.89308 11.0135C5.86183 11.0135 5.83058 11.0048 5.80421 10.9862L0.744652 7.41883C0.689962 7.37977 0.666532 7.31043 0.687032 7.24598C0.707542 7.1825 0.766132 7.13953 0.833512 7.13953H7.00832C7.05715 7.13953 7.10305 7.16199 7.13234 7.20203C7.16066 7.24109 7.16945 7.29187 7.1548 7.33875L6.03957 10.9061C6.02492 10.953 5.98879 10.9901 5.94289 11.0057C5.92629 11.0116 5.90969 11.0135 5.89309 11.0135H5.89308ZM1.31789 7.44617L5.8091 10.6132L6.79933 7.44617H1.31789Z" fill="url(#paint4_linear_3646_21792)"/>
<path d="M16.3916 17.6405C16.377 17.6405 16.3623 17.6385 16.3486 17.6346C16.2988 17.62 16.2607 17.5828 16.2451 17.534L15.6699 15.7264C15.6523 15.6717 15.667 15.6112 15.708 15.5711C17.3486 13.9344 18.2139 11.4784 17.9658 9.16097C17.9609 9.10628 17.9844 9.05257 18.0283 9.02035L19.5605 7.90316C19.6045 7.87289 19.6582 7.86507 19.7061 7.88363C19.7549 7.90218 19.791 7.94418 19.8018 7.99496C20.5518 11.4832 19.2207 15.3455 16.4893 17.6053C16.4619 17.6287 16.4268 17.6405 16.3916 17.6405H16.3916ZM15.9912 15.7215L16.4678 17.2205C18.9355 15.0653 20.1543 11.534 19.5479 8.29281L18.2813 9.21664C18.5039 11.5662 17.6328 14.0428 15.9912 15.7215Z" fill="url(#paint5_linear_3646_21792)"/>
<path d="M9.99586 19.9871C8.23219 19.9871 6.46949 19.5506 5.02418 18.6746C4.98121 18.6483 4.95387 18.6024 4.95094 18.5516C4.94801 18.5008 4.97047 18.452 5.00953 18.4217L6.53199 17.2391C6.57984 17.2029 6.64332 17.1981 6.69312 17.2215C8.68628 18.1805 11.365 18.1815 13.3601 17.2215C13.4099 17.1981 13.4705 17.2039 13.5164 17.2352L15.0857 18.3592C15.1267 18.3895 15.1511 18.4383 15.1492 18.4891C15.1482 18.5408 15.1209 18.5877 15.0769 18.615C13.6091 19.5291 11.8025 19.9871 9.99586 19.9871V19.9871ZM5.3777 18.5252C8.13161 20.0867 11.9802 20.0662 14.7166 18.4735L13.4109 17.5379C11.3738 18.4832 8.68142 18.4832 6.64626 17.5399L5.37771 18.5252L5.3777 18.5252Z" fill="url(#paint6_linear_3646_21792)"/>
<path d="M19.1815 6.57409H17.3534C17.2948 6.57409 17.2411 6.54089 17.2147 6.48718C16.0711 4.11902 13.8426 2.46667 11.2547 2.06726C11.1952 2.05749 11.1463 2.01453 11.1297 1.95593L10.6405 0.202997C10.6278 0.155147 10.6385 0.103387 10.6698 0.064327C10.703 0.025267 10.7547 0.011597 10.8006 0.00866699C14.5985 0.310427 17.9442 2.80555 19.325 6.36512C19.3436 6.41297 19.3368 6.46571 19.3084 6.5077C19.2801 6.54969 19.2323 6.57411 19.1815 6.57411L19.1815 6.57409ZM17.4491 6.26745H18.9539C17.5965 2.99597 14.5116 0.697137 10.9969 0.334827L11.4002 1.77917C14.0145 2.21472 16.2645 3.88366 17.4491 6.26745V6.26745Z" fill="url(#paint7_linear_3646_21792)"/>
<path d="M2.70079 6.5741H0.817984C0.767204 6.5741 0.719354 6.54969 0.691034 6.50769C0.662714 6.46569 0.655874 6.41296 0.674434 6.36511C2.07286 2.7616 5.46153 0.262578 9.30919 -0.00012207C9.36095 -0.00012207 9.40978 0.0184279 9.442 0.0604279C9.47325 0.101448 9.48204 0.155158 9.46446 0.203978L8.83848 1.97839C8.81993 2.0321 8.77403 2.07019 8.71934 2.07898C6.16758 2.49988 3.97032 4.14832 2.83946 6.48718C2.81309 6.54089 2.75938 6.57409 2.70079 6.57409V6.5741ZM1.04552 6.26746H2.60509C3.77794 3.91102 5.99962 2.24598 8.57872 1.7909L9.0963 0.325078C5.53868 0.657108 2.41857 2.95887 1.04552 6.26746V6.26746Z" fill="url(#paint8_linear_3646_21792)"/>
<path d="M3.66089 17.6844C3.63355 17.6844 3.6062 17.6776 3.58179 17.6629C3.56812 17.6541 3.55542 17.6473 3.54663 17.6366C0.788822 15.3768 -0.555898 11.5057 0.198002 7.99495C0.208742 7.94417 0.243902 7.90315 0.292732 7.88362C0.338632 7.86507 0.395272 7.87092 0.437262 7.9012L2.0232 9.01839C2.06812 9.05062 2.09254 9.10433 2.08765 9.15901C2.06128 9.42463 2.04761 9.69417 2.04761 9.96077C2.04761 12.075 2.86499 14.0682 4.34741 15.5711C4.38745 15.6121 4.4021 15.6707 4.38452 15.7254C4.38452 15.7254 3.83472 17.4891 3.80932 17.5721C3.80444 17.5887 3.79662 17.6043 3.78686 17.62C3.75659 17.6619 3.70874 17.6844 3.66088 17.6844H3.66089ZM0.452882 8.28889C-0.147708 11.5155 1.12085 15.1463 3.59058 17.2723C3.66285 17.0067 3.80738 16.5438 4.06421 15.7215C2.56519 14.1678 1.74097 12.1258 1.74097 9.96077C1.74097 9.71468 1.75171 9.46565 1.7732 9.21858L0.452892 8.28889H0.452882Z" fill="url(#paint9_linear_3646_21792)"/>
<path style="mix-blend-mode:overlay" d="M5.1998 2.0073L5.22826 2.22328L5.12394 2.30066L5.10199 2.06764L5.1998 2.00731V2.0073ZM3.07749 4.11072L3.15047 4.02323L3.05736 3.81571L2.97783 3.90918L3.07748 4.11073L3.07749 4.11072ZM15.6544 3.2234L16.1482 2.99338C16.0985 2.92082 16.0473 2.8994 15.9812 2.95601C15.9729 2.96312 15.9597 2.96424 15.9492 2.96913C15.8239 3.02775 15.6986 3.08657 15.5638 3.14984L15.6544 3.22339V3.2234ZM14.7141 2.24076L14.8569 2.26894L15.0074 2.16492L14.9172 2.10343L14.7141 2.24075V2.24076ZM13.902 11.956C13.8868 11.9093 13.8502 11.8727 13.8035 11.8574C13.7568 11.8422 13.7056 11.8502 13.6658 11.879L10.4272 14.2193C10.3871 14.2483 10.3634 14.2947 10.3635 14.3441C10.3635 14.3935 10.3873 14.4398 10.4274 14.4687L15.6498 18.2282C15.6766 18.2476 15.7081 18.2572 15.7396 18.2572C15.7714 18.2572 15.8032 18.2474 15.8302 18.2276C15.8839 18.1885 15.9063 18.1192 15.8858 18.056L13.902 11.956L13.902 11.956ZM19.8018 7.99732C19.7914 7.94597 19.7556 7.90343 19.7068 7.88444C19.658 7.86546 19.6029 7.87262 19.5605 7.90347L18.0284 9.01997C17.9844 9.05209 17.9606 9.10518 17.966 9.15946C17.9924 9.42364 18.0057 9.69336 18.0057 9.96115C18.0057 11.0302 17.7983 12.068 17.3893 13.0455C16.9942 13.9898 16.428 14.8398 15.7064 15.572C15.6664 15.6126 15.6521 15.6721 15.6695 15.7265L16.245 17.5336C16.2607 17.5827 16.2999 17.6207 16.3494 17.6348C16.3633 17.6388 16.3774 17.6407 16.3915 17.6407C16.4277 17.6407 16.4632 17.6279 16.4914 17.6038C17.0276 17.1452 17.5168 16.6285 17.9452 16.068C18.3769 15.5035 18.7487 14.8921 19.0505 14.2508C19.3579 13.5977 19.5944 12.9098 19.7533 12.2061C19.9167 11.4828 19.9995 10.7367 19.9995 9.98837C19.9995 9.31794 19.933 8.64806 19.8018 7.99732H19.8018ZM0.690952 6.50786C0.662292 6.46601 0.656122 6.41272 0.674472 6.36542C1.35456 4.61209 2.51343 3.08827 4.02581 1.9587C5.56604 0.808317 7.39299 0.131087 9.30916 0.000236889C9.3607 -0.00329311 9.4107 0.0193869 9.44201 0.0605669C9.47331 0.101757 9.48181 0.155927 9.4646 0.204717L8.83901 1.97876C8.82036 2.03164 8.77439 2.07017 8.71907 2.0793C6.16723 2.50048 3.96921 4.14854 2.83934 6.48786C2.81369 6.54097 2.7599 6.57472 2.70092 6.57472H0.817782C0.767062 6.57472 0.719602 6.5497 0.690952 6.50785V6.50786ZM2.1413 5.04205L2.21388 4.94158L2.28029 5.01785C2.3115 4.9635 2.34146 4.90866 2.37397 4.85538C2.41442 4.78909 2.36685 4.69643 2.27924 4.68645L1.96991 5.20467L2.361 5.79715L2.55667 5.4834L2.60806 5.52712L2.86272 5.45631C2.82788 5.42811 2.80271 5.41541 2.78876 5.39505C2.73782 5.32071 2.69088 5.24365 2.64195 5.16793C2.57994 5.07198 2.51746 4.97634 2.45408 4.87887C2.33704 4.99818 2.27396 5.14502 2.32128 5.18869L2.3693 5.17459L2.52127 5.40564L2.44884 5.5186L2.14129 5.04204L2.1413 5.04205ZM7.5512 1.28083L7.51114 1.5219L7.74035 1.64164L7.81199 1.20196C7.84974 1.19213 7.87815 1.19132 7.89828 1.17803C7.93341 1.15484 7.98314 1.12911 7.99201 1.09534C8.0205 0.986847 8.03311 0.874197 8.05325 0.754847L7.79181 0.830707L7.74075 1.1341L7.62329 1.17165L7.67937 0.860607L7.37759 0.951047L7.41133 0.994567C7.35411 1.17321 7.34855 1.28122 7.39113 1.32086L7.55121 1.28082L7.5512 1.28083ZM6.26722 1.73003L6.0951 2.15908C6.23873 2.10491 6.37794 2.06588 6.3986 1.88803L6.48724 1.98415L6.73073 1.87228L6.51877 1.61691C6.52816 1.58874 6.53465 1.5665 6.54291 1.54494C6.58913 1.42435 6.63577 1.30392 6.68227 1.18344L6.68224 1.18342L6.69092 1.16901L6.69448 1.16697L6.69303 1.1655L6.69449 1.16696L6.69641 1.16357L6.69303 1.1655L6.69091 1.16901L6.67621 1.17744L6.43748 1.27885L6.38299 1.45766L6.28723 1.34713L6.04505 1.46411L6.26721 1.73003H6.26722ZM5.13803 2.38741L5.23465 2.32271L5.28104 2.6403L5.50344 2.49661L5.42459 1.82967L5.38 1.79035L4.85609 2.13477C4.87044 2.24322 4.88214 2.33459 4.8947 2.42584C4.90782 2.5212 4.92176 2.61645 4.93595 2.71602L5.20771 2.7615C5.1402 2.63157 5.165 2.50538 5.13802 2.3874L5.13803 2.38741ZM4.19821 3.35306L4.10991 3.42459L3.94458 2.82931L3.72778 3.02228C3.74802 3.0605 3.77002 3.08926 3.77923 3.12164C3.82214 3.27261 3.86018 3.42497 3.90315 3.57592C3.91318 3.61116 3.93571 3.64285 3.95775 3.68664L4.43554 3.27784L4.37623 3.08707C4.27587 3.07207 4.18536 3.07368 4.09198 3.07737C4.16893 3.16636 4.17479 3.26274 4.19822 3.35307L4.19821 3.35306ZM3.19354 3.54381C3.03894 3.71763 2.90651 3.89043 2.77872 4.04235L3.02241 4.56798L3.26206 4.54182L3.10058 4.19143L3.18826 4.09669L3.32423 4.38415C3.37318 4.32828 3.42205 4.27862 3.4626 4.22292C3.47698 4.20317 3.48187 4.16421 3.47246 4.14183C3.44655 4.08021 3.40763 4.02417 3.37956 3.9633C3.31918 3.83232 3.26238 3.69969 3.19354 3.54381V3.54381ZM19.112 7.13875H12.9376C12.8887 7.13875 12.8427 7.16202 12.8138 7.20143C12.7848 7.24083 12.7763 7.29166 12.7909 7.33834L13.9062 10.9057C13.9208 10.9526 13.957 10.9897 14.0035 11.0055C14.0196 11.0109 14.0363 11.0136 14.0529 11.0136C14.0842 11.0136 14.1152 11.004 14.1415 10.9855L19.2006 7.4181C19.2554 7.3795 19.2788 7.30987 19.2586 7.24601C19.2383 7.18215 19.179 7.13876 19.112 7.13876V7.13875ZM10.6405 0.202987C10.627 0.154617 10.638 0.102697 10.6699 0.0639269C10.7019 0.0251569 10.7506 0.00446689 10.8008 0.00839689C12.6942 0.158657 14.4974 0.843927 16.0154 1.99011C17.5071 3.1164 18.6516 4.62936 19.3249 6.36543C19.3433 6.41272 19.3371 6.46601 19.3084 6.50786C19.2798 6.54971 19.2323 6.57473 19.1816 6.57473H17.3529C17.294 6.57473 17.2402 6.54098 17.2145 6.48787C16.6596 5.33902 15.8251 4.32651 14.8013 3.55982C14.2871 3.17478 13.7277 2.85277 13.1386 2.60275C12.5361 2.34704 11.9022 2.16662 11.2547 2.06653C11.1951 2.05731 11.1463 2.01407 11.1301 1.95596L10.6405 0.202997L10.6405 0.202987ZM17.3852 5.07291L17.5566 5.04181L17.4108 4.82449L17.2906 4.83327L17.245 5.11699L17.3037 5.08959L17.5204 5.40002L17.8133 5.36501C17.8431 5.24768 17.7668 5.14176 17.7651 5.02094L17.9425 4.99732L17.9932 5.09006L17.8764 5.12103L18.0232 5.33697L18.211 5.30999C18.2002 5.27658 18.1972 5.2476 18.1829 5.22626C18.0745 5.0651 17.9639 4.90544 17.8609 4.75536L17.5818 4.80818L17.677 5.14708L17.4474 5.16758L17.3852 5.07292L17.3852 5.07291ZM17.4324 4.15161L16.9683 3.65216C16.744 3.76005 16.5052 3.7845 16.2855 3.87849L16.7303 4.35496L17.0281 4.26879L16.844 4.07178L16.6301 4.13287L16.5502 4.04589L16.8234 3.96747L17.0887 4.25176L17.166 4.2226L16.9086 3.94229L17.0833 3.88687L17.1562 3.97317L17.0551 4.01661L17.232 4.20669L17.4324 4.1516V4.15161ZM16.4263 3.10351L15.9106 2.69351C15.8832 2.71651 15.8661 2.73793 15.8438 2.74846C15.6784 2.82668 15.5119 2.90273 15.343 2.98076V3.07614C15.4419 3.15648 15.5342 3.23711 15.6327 3.30942C15.6934 3.35406 15.7636 3.38603 15.8172 3.41668C16.0141 3.32438 16.1885 3.2435 16.3617 3.16042C16.3831 3.15016 16.3989 3.12818 16.4263 3.1035V3.10351ZM15.0099 2.39098C15.0693 2.37731 15.1305 2.37642 15.1755 2.34903C15.2177 2.32341 15.2924 2.30769 15.2746 2.22226L14.7365 1.91058C14.5562 2.07598 14.341 2.18 14.1443 2.32834L14.3786 2.45943L14.6222 2.29797L14.7519 2.33925L14.4856 2.52112L14.7145 2.6529L15.0268 2.44604L15.0099 2.39097V2.39098ZM12.1767 1.22409L12.3788 0.972887L12.0907 0.909967C12.0763 0.939727 12.068 0.968447 12.0509 0.990237C11.952 1.11621 11.851 1.24056 11.749 1.36765C11.792 1.43774 11.8317 1.50515 11.875 1.57017C11.8815 1.58001 11.9048 1.57874 11.9203 1.58261V1.58264L11.92 1.586L11.9208 1.58341C11.924 1.56456 11.9211 1.54106 11.9314 1.52763C11.9877 1.4542 12.0472 1.38324 12.1071 1.30962L12.2167 1.34275L12.0386 1.56858L12.3005 1.62918L12.7578 1.05998L12.5005 1.00051L12.2869 1.25542L12.1767 1.22409H12.1767ZM13.7661 1.51325L13.6837 1.60094L13.9343 1.6955L14.0902 1.55351L13.467 1.31175L12.9321 1.80895L13.5466 2.04682L13.7809 1.83456L13.5294 1.73796L13.358 1.89007L13.2523 1.8468L13.4612 1.65432L13.8253 1.79399L13.8894 1.73492L13.5497 1.59974L13.6508 1.46539L13.7661 1.51325V1.51325ZM15.0855 18.3597L13.5163 17.235C13.4714 17.2028 13.4126 17.1972 13.3624 17.2204C12.3133 17.7043 11.1911 17.9497 10.0268 17.9497C8.86263 17.9497 7.74038 17.7043 6.69124 17.2204C6.6391 17.1963 6.57789 17.2033 6.53254 17.2386L5.00934 18.4218C4.96889 18.4532 4.94675 18.5027 4.95029 18.5538C4.95384 18.6049 4.98262 18.6509 5.02702 18.6764C5.76799 19.1024 6.56097 19.4313 7.38392 19.654C8.23236 19.8836 9.11239 20 9.99956 20C10.9073 20 11.8069 19.8782 12.6735 19.6381C13.5137 19.4052 14.3214 19.0617 15.0741 18.617C15.1188 18.5905 15.1472 18.5433 15.1495 18.4914C15.1518 18.4395 15.1277 18.3899 15.0855 18.3597L15.0855 18.3597ZM7.00817 7.13874H0.833812C0.766822 7.13874 0.707542 7.18213 0.687282 7.24599C0.667032 7.30985 0.690482 7.37948 0.745222 7.41808L5.80439 10.9855C5.83065 11.004 5.86166 11.0136 5.89299 11.0136C5.90957 11.0136 5.92623 11.0109 5.94232 11.0054C5.98885 10.9897 6.02504 10.9526 6.03969 10.9057L7.15489 7.33832C7.16949 7.29164 7.16099 7.24081 7.13202 7.2014C7.10306 7.162 7.05707 7.13873 7.00817 7.13873V7.13874ZM4.34704 15.572C3.62548 14.8398 3.05929 13.9898 2.66418 13.0455C2.25515 12.068 2.04774 11.0302 2.04774 9.96114C2.04774 9.69363 2.06109 9.4239 2.08741 9.15941C2.0929 9.10424 2.06825 9.05039 2.02292 9.01848L0.436462 7.90198C0.393982 7.87209 0.339282 7.86567 0.291072 7.8849C0.242832 7.90413 0.207562 7.94642 0.197302 7.99732C0.0660617 8.64842 -0.000488281 9.3183 -0.000488281 9.98836C-0.000488281 10.7428 0.0837017 11.4949 0.249752 12.2237C0.411282 12.9328 0.651482 13.6256 0.963682 14.2828C1.27022 14.9282 1.64778 15.5428 2.08588 16.1097C2.52087 16.6726 3.01718 17.1905 3.56105 17.6491C3.58913 17.6728 3.62433 17.6853 3.66016 17.6853C3.67455 17.6853 3.68905 17.6833 3.70322 17.6792C3.75265 17.6648 3.79158 17.6265 3.8069 17.5774L4.3843 15.7256C4.40119 15.6714 4.38687 15.6124 4.34704 15.5719V15.572ZM13.6981 11.3297L11.8562 5.66547C11.8356 5.60215 11.7766 5.55928 11.71 5.55928H10.7346C10.6626 5.55928 10.6003 5.6092 10.5845 5.67942L10.2309 7.25886C10.2208 7.3044 10.2318 7.35211 10.261 7.38854C10.2901 7.42497 10.3343 7.44617 10.381 7.44617H10.9485L11.2787 10.8792L8.35991 12.3643L10.3904 4.69575H11.3292C11.3784 4.69575 11.4246 4.67219 11.4535 4.63237C11.4825 4.59256 11.4906 4.5413 11.4753 4.4945L10.1735 0.491417C10.153 0.428137 10.094 0.385287 10.0275 0.385237H10.0274C9.96085 0.385237 9.90189 0.427997 9.88123 0.491217L4.14207 18.0557C4.12137 18.1191 4.14384 18.1885 4.19771 18.2277C4.22467 18.2474 4.25643 18.2572 4.28819 18.2572C4.31988 18.2572 4.35158 18.2474 4.3785 18.2278L13.6422 11.5016C13.6962 11.4625 13.7187 11.393 13.6981 11.3297V11.3297Z" fill="url(#paint10_linear_3646_21792)"/>
<path d="M9.99518 19.8923C9.12392 19.8923 8.26684 19.786 7.44663 19.5762C6.58167 19.3548 5.78315 19.0244 5.07326 18.5941C5.05651 18.5839 5.04583 18.5662 5.0447 18.5466C5.04358 18.5271 5.05214 18.5082 5.0676 18.4962L6.5908 17.313C6.60835 17.2994 6.63204 17.2966 6.65223 17.306C7.71383 17.7957 8.84936 18.044 10.0273 18.044C11.2053 18.044 12.3408 17.7957 13.4023 17.306C13.4217 17.297 13.4445 17.2992 13.4619 17.3116C13.4773 17.3227 14.9886 18.4058 15.03 18.4355C15.0373 18.4404 15.0435 18.4471 15.0481 18.4552C15.0639 18.483 15.055 18.5182 15.0279 18.5351C14.3238 18.9736 13.5299 19.3133 12.6681 19.5449C11.8305 19.7699 10.9529 19.8868 10.0596 19.8922L9.99517 19.8923H9.99518ZM5.20932 18.5368C5.89045 18.9394 6.65262 19.2501 7.47613 19.4609C8.30669 19.6734 9.17561 19.7785 10.0589 19.7731C10.942 19.7678 11.8095 19.6524 12.6372 19.4299C13.4568 19.2097 14.2138 18.8906 14.8889 18.4808L13.4206 17.4285C12.3525 17.9159 11.2109 18.163 10.0273 18.163C8.84421 18.163 7.70318 17.9161 6.6353 17.4291L5.20931 18.5368L5.20932 18.5368ZM4.28865 18.163C4.27636 18.163 4.26407 18.1592 4.25363 18.1516C4.23278 18.1364 4.22408 18.1095 4.23209 18.085L9.97127 0.520494C9.97926 0.496034 10.0021 0.479474 10.0278 0.479474H10.0279C10.0536 0.479494 10.0765 0.496084 10.0844 0.520574L11.3862 4.52365C11.3921 4.54177 11.389 4.56161 11.3778 4.57702C11.3666 4.59243 11.3487 4.60156 11.3296 4.60156H10.3184L8.2154 12.5438L11.3791 10.9341L11.0346 7.35197H10.3814C10.3634 7.35197 10.3463 7.34377 10.335 7.32967C10.3237 7.31557 10.3194 7.2971 10.3234 7.27947L10.677 5.70003C10.6831 5.67285 10.7072 5.65352 10.735 5.65352H11.7105C11.7363 5.65352 11.7591 5.67011 11.7671 5.69462L13.609 11.3589C13.617 11.3834 13.6082 11.4103 13.5874 11.4254L4.32363 18.1517C4.31321 18.1592 4.30094 18.163 4.28867 18.163H4.28865ZM10.0277 0.730974L4.40223 17.9475L13.4824 11.3545L11.6672 5.77252H10.7827L10.4557 7.23295H11.0886C11.1193 7.23295 11.1449 7.25624 11.1478 7.28676L11.5014 10.963C11.5038 10.9874 11.491 11.0107 11.4692 11.0218L8.15081 12.7102C8.1299 12.7208 8.10469 12.7182 8.08643 12.7034C8.06818 12.6887 8.0603 12.6646 8.0663 12.6419L10.215 4.52682C10.222 4.50072 10.2456 4.48255 10.2726 4.48255H11.2477L10.0277 0.730984V0.730974ZM15.74 18.163C15.7278 18.163 15.7156 18.1593 15.7053 18.1518L10.4829 14.3922C10.4673 14.3811 10.4581 14.3631 10.4581 14.344C10.4581 14.3249 10.4673 14.3069 10.4828 14.2957L13.7214 11.9553C13.7369 11.9442 13.7567 11.9411 13.7748 11.947C13.7928 11.9529 13.807 11.9671 13.8129 11.9852L15.7966 18.0851C15.8046 18.1096 15.7959 18.1364 15.7751 18.1516C15.7647 18.1592 15.7523 18.163 15.74 18.163H15.74ZM10.6194 14.3439L15.6272 17.949L13.725 12.0996L10.6194 14.3439H10.6194ZM3.66064 17.5911C3.64741 17.5911 3.6341 17.5867 3.62305 17.5777C2.96572 17.0415 2.37675 16.3978 1.87251 15.6643C1.37581 14.9418 0.972542 14.149 0.673912 13.3077C0.372262 12.458 0.184692 11.5792 0.116392 10.6956C0.0457917 9.78226 0.104292 8.88046 0.290282 8.01521C0.294472 7.99569 0.308192 7.97957 0.326782 7.9723C0.345352 7.96505 0.366382 7.96756 0.382702 7.97905L1.96915 9.09556C1.9867 9.10791 1.99624 9.12875 1.99412 9.15011C1.96749 9.41768 1.95399 9.69057 1.95399 9.96117C1.95399 11.0428 2.16384 12.0928 2.57773 13.0819C2.97749 14.0373 3.55036 14.8974 4.2804 15.6381C4.29582 15.6538 4.30137 15.6766 4.29482 15.6976C4.28915 15.7158 3.73388 17.4966 3.71788 17.548C3.71568 17.5557 3.71188 17.5631 3.70642 17.5697C3.69466 17.5838 3.67771 17.5911 3.66064 17.5911V17.5911ZM0.388162 8.1284C0.219262 8.95545 0.167742 9.81552 0.235052 10.6864C0.302542 11.5595 0.487932 12.4281 0.786072 13.2679C1.08123 14.0994 1.47975 14.8829 1.97058 15.5969C2.45094 16.2956 3.00896 16.9117 3.6302 17.4294L4.17061 15.6961C3.44179 14.9503 2.86903 14.0864 2.46795 13.1279C2.04794 12.1241 1.83498 11.0587 1.83498 9.96115C1.83498 9.69828 1.84754 9.43328 1.87233 9.17291L0.388162 8.12839V8.1284ZM16.392 17.5465C16.3485 17.5465 16.3367 17.5095 16.3303 17.4896L16.1029 16.7756L15.7597 15.6981L15.7576 15.6894C15.7546 15.6705 15.7608 15.6513 15.7744 15.6377C16.5814 14.8329 17.2205 13.8157 17.6226 12.6963C18.0343 11.5501 18.1856 10.324 18.0603 9.15053C18.058 9.12938 18.0672 9.10864 18.0844 9.09612C18.0995 9.08514 19.578 8.0077 19.6156 7.98025C19.6233 7.97439 19.6325 7.97035 19.6427 7.96882C19.6738 7.96426 19.7031 7.98447 19.7097 8.01516C19.8944 8.87423 19.9534 9.76992 19.8849 10.6774C19.8187 11.5554 19.6346 12.4293 19.3379 13.2747C19.0442 14.1116 18.6469 14.9013 18.1572 15.6217C17.66 16.3529 17.0789 16.9959 16.4299 17.5328C16.4192 17.5417 16.4058 17.5465 16.392 17.5465L16.392 17.5465ZM15.884 15.6963L16.2163 16.7395L16.4218 17.3845C17.0349 16.8664 17.5853 16.2512 18.0587 15.5548C18.5427 14.8429 18.9352 14.0625 19.2256 13.2353C19.5189 12.3997 19.7008 11.5361 19.7662 10.6684C19.8314 9.80397 19.7796 8.95045 19.6121 8.13001L18.1822 9.17211C18.3029 10.3529 18.1483 11.5847 17.7345 12.7366C17.3308 13.8606 16.6913 14.8831 15.884 15.6963L15.884 15.6963ZM14.0533 10.9194C14.0469 10.9194 14.0405 10.9183 14.0342 10.9162C14.0162 10.9101 14.0022 10.8958 13.9966 10.8776L12.8813 7.31023C12.8756 7.29216 12.8789 7.27249 12.8901 7.25723C12.9014 7.24198 12.9192 7.23297 12.9381 7.23297H19.1125C19.1384 7.23297 19.1614 7.24977 19.1692 7.27449C19.177 7.29921 19.168 7.32616 19.1468 7.3411L14.0876 10.9085C14.0775 10.9157 14.0655 10.9194 14.0533 10.9194H14.0533ZM13.019 7.35198L14.0858 10.7642L18.9249 7.35198H13.019H13.019ZM5.89345 10.9194C5.88131 10.9194 5.86932 10.9157 5.85915 10.9085L0.799982 7.34111C0.778792 7.32617 0.769712 7.29921 0.777552 7.2745C0.785392 7.24978 0.808342 7.23298 0.834272 7.23298H7.00863C7.02756 7.23298 7.04536 7.24199 7.05657 7.25724C7.06779 7.27249 7.07107 7.29217 7.06542 7.31024L5.95023 10.8776C5.94455 10.8958 5.93055 10.9101 5.91255 10.9162C5.90631 10.9184 5.89986 10.9194 5.89345 10.9194V10.9194ZM1.02192 7.35198L5.86101 10.7642L6.92769 7.35198H1.02192V7.35198ZM19.1821 6.48054H17.3534C17.3306 6.48054 17.3098 6.46748 17.2998 6.44691C16.7384 5.28454 15.8941 4.26012 14.8582 3.48443C14.338 3.09484 13.7719 2.76903 13.1758 2.51604C12.5662 2.25729 11.9248 2.07473 11.2695 1.97343C11.2465 1.96986 11.2276 1.95313 11.2213 1.93063L10.7317 0.177674C10.7265 0.158954 10.7308 0.138854 10.7431 0.123854C10.7555 0.108834 10.7744 0.100804 10.7938 0.102354C12.6693 0.251194 14.4554 0.929974 15.9591 2.06532C17.4368 3.18105 18.5705 4.6798 19.2376 6.39952C19.2447 6.41782 19.2423 6.43845 19.2312 6.45465C19.2201 6.47085 19.2017 6.48054 19.1821 6.48054H19.1821ZM17.3907 6.36153H19.0948C18.4318 4.6964 17.3242 3.24513 15.8874 2.1603C14.4246 1.05582 12.6912 0.388684 10.8694 0.228114L11.3257 1.86179C11.9775 1.96571 12.6154 2.1489 13.2223 2.4065C13.8272 2.66323 14.4016 2.99385 14.9296 3.38918C15.9706 4.16875 16.821 5.19596 17.3907 6.36154V6.36153ZM2.70139 6.48054H0.818252C0.798622 6.48054 0.780252 6.47086 0.769152 6.45465C0.758062 6.43845 0.755682 6.41782 0.762782 6.39952C1.43646 4.66269 2.58446 3.15318 4.08265 2.03421C5.60833 0.894704 7.41801 0.223874 9.31604 0.0942541C9.33583 0.0928941 9.35534 0.101664 9.36747 0.117614C9.3796 0.133554 9.38288 0.154524 9.37622 0.173414L8.75063 1.94744C8.74341 1.96791 8.72562 1.98283 8.7042 1.98636C6.12217 2.41252 3.89817 4.08002 2.75499 6.4469C2.74505 6.46746 2.72424 6.48053 2.7014 6.48053L2.70139 6.48054ZM0.905562 6.36153H2.66414C3.82379 3.98829 6.05689 2.31425 8.65006 1.87476L9.23374 0.219584C7.39163 0.362514 5.63687 1.02192 4.15386 2.12956C2.69689 3.21774 1.57518 4.67957 0.905572 6.36153H0.905562Z" fill="url(#paint11_linear_3646_21792)"/>
</g>
<defs>
<linearGradient id="paint0_linear_3646_21792" x1="4.85615" y1="17.8784" x2="15.1082" y2="2.15184" gradientUnits="userSpaceOnUse">
<stop stop-color="#AEAEAE"/>
<stop offset="0.26908" stop-color="#E6E6E6"/>
<stop offset="0.50993" stop-color="#989898"/>
<stop offset="0.56987" stop-color="#A4A4A4"/>
<stop offset="0.67995" stop-color="#C6C6C6"/>
<stop offset="0.76788" stop-color="#E6E6E6"/>
<stop offset="1" stop-color="#CECECE"/>
</linearGradient>
<linearGradient id="paint1_linear_3646_21792" x1="8.92059" y1="18.2567" x2="8.92059" y2="0.38562" gradientUnits="userSpaceOnUse">
<stop stop-color="#919191"/>
<stop offset="0.49356" stop-color="#737373"/>
<stop offset="0.93581" stop-color="#919191"/>
</linearGradient>
<linearGradient id="paint2_linear_3646_21792" x1="13.1288" y1="5.20846e-06" x2="13.1288" y2="11.8503" gradientUnits="userSpaceOnUse">
<stop stop-color="#919191"/>
<stop offset="0.49356" stop-color="#737373"/>
<stop offset="0.93581" stop-color="#919191"/>
</linearGradient>
<linearGradient id="paint3_linear_3646_21792" x1="16.0252" y1="11.0135" x2="16.0252" y2="7.13953" gradientUnits="userSpaceOnUse">
<stop stop-color="#919191"/>
<stop offset="0.49356" stop-color="#737373"/>
<stop offset="0.93581" stop-color="#919191"/>
</linearGradient>
<linearGradient id="paint4_linear_3646_21792" x1="3.92074" y1="11.0135" x2="3.92074" y2="7.13953" gradientUnits="userSpaceOnUse">
<stop stop-color="#919191"/>
<stop offset="0.49356" stop-color="#737373"/>
<stop offset="0.93581" stop-color="#919191"/>
</linearGradient>
<linearGradient id="paint5_linear_3646_21792" x1="17.8356" y1="17.6405" x2="17.8356" y2="7.87366" gradientUnits="userSpaceOnUse">
<stop stop-color="#919191"/>
<stop offset="0.49356" stop-color="#737373"/>
<stop offset="0.93581" stop-color="#919191"/>
</linearGradient>
<linearGradient id="paint6_linear_3646_21792" x1="10.05" y1="19.9871" x2="10.05" y2="17.2072" gradientUnits="userSpaceOnUse">
<stop stop-color="#919191"/>
<stop offset="0.49356" stop-color="#737373"/>
<stop offset="0.93581" stop-color="#919191"/>
</linearGradient>
<linearGradient id="paint7_linear_3646_21792" x1="14.9853" y1="6.57409" x2="14.9853" y2="0.00865682" gradientUnits="userSpaceOnUse">
<stop stop-color="#919191"/>
<stop offset="0.49356" stop-color="#737373"/>
<stop offset="0.93581" stop-color="#919191"/>
</linearGradient>
<linearGradient id="paint8_linear_3646_21792" x1="5.06873" y1="6.5741" x2="5.06873" y2="-0.00012207" gradientUnits="userSpaceOnUse">
<stop stop-color="#919191"/>
<stop offset="0.49356" stop-color="#737373"/>
<stop offset="0.93581" stop-color="#919191"/>
</linearGradient>
<linearGradient id="paint9_linear_3646_21792" x1="2.19129" y1="17.6844" x2="2.19129" y2="7.87305" gradientUnits="userSpaceOnUse">
<stop stop-color="#919191"/>
<stop offset="0.49356" stop-color="#737373"/>
<stop offset="0.93581" stop-color="#919191"/>
</linearGradient>
<linearGradient id="paint10_linear_3646_21792" x1="13.4233" y1="19.3978" x2="6.57409" y2="0.579638" gradientUnits="userSpaceOnUse">
<stop stop-color="#00F4B1"/>
<stop offset="0.51086" stop-color="#007CFF"/>
<stop offset="1" stop-color="#00E7EB"/>
</linearGradient>
<linearGradient id="paint11_linear_3646_21792" x1="6.69014" y1="0.705344" x2="13.3624" y2="19.397" gradientUnits="userSpaceOnUse">
<stop offset="0.03549" stop-color="#00EBFF" stop-opacity="0"/>
<stop offset="0.10916" stop-color="white" stop-opacity="0.8"/>
<stop offset="0.16064" stop-color="#00EBFF" stop-opacity="0"/>
<stop offset="0.2262" stop-color="#8FF6FF" stop-opacity="0"/>
<stop offset="0.27454" stop-color="#00EBFF" stop-opacity="0"/>
<stop offset="0.36295" stop-color="white" stop-opacity="0.8"/>
<stop offset="0.40495" stop-color="#00EBFF" stop-opacity="0"/>
<stop offset="0.44872" stop-color="#00EBFF" stop-opacity="0"/>
<stop offset="0.49104" stop-color="white" stop-opacity="0.8"/>
<stop offset="0.54036" stop-color="#00EBFF" stop-opacity="0"/>
<stop offset="0.7522" stop-color="#00EBFF" stop-opacity="0"/>
<stop offset="0.80574" stop-color="white" stop-opacity="0.8"/>
<stop offset="0.86393" stop-color="#00EBFF" stop-opacity="0"/>
<stop offset="0.95937" stop-color="white" stop-opacity="0.8"/>
<stop offset="1" stop-color="#00EBFF" stop-opacity="0"/>
</linearGradient>
<clipPath id="clip0_3646_21792">
<rect width="20" height="20" fill="white"/>
</clipPath>
</defs>
</svg>
