<svg width="20" height="20" viewBox="0 0 20 20" fill="none" xmlns="http://www.w3.org/2000/svg">
<path d="M4.43593 1.8962C4.67172 1.4842 5.11008 1.23 5.58478 1.23H14.3675C14.8399 1.23 15.2766 1.48178 15.5132 1.89068L19.822 9.33642C20.0593 9.74654 20.0593 10.2523 19.822 10.6624L15.5135 18.1081C15.2769 18.517 14.8403 18.7688 14.3678 18.7688H5.58508C5.11039 18.7688 4.67204 18.5146 4.43625 18.1026L0.174849 10.6569C-0.0582767 10.2496 -0.0582834 9.74923 0.174831 9.3419L4.43593 1.8962Z" fill="#F2C75C"/>
<path d="M3.37793 9.86667C3.37793 9.27757 3.85549 8.8 4.4446 8.8H15.5557C16.1448 8.8 16.6224 9.27757 16.6224 9.86667V10.1333C16.6224 10.7224 16.1448 11.2 15.5557 11.2H4.4446C3.85549 11.2 3.37793 10.7224 3.37793 10.1333V9.86667Z" fill="#FFE1A4"/>
<path d="M5.95571 5.24445C5.95571 4.65534 6.43327 4.17778 7.02237 4.17778H12.889C13.4781 4.17778 13.9557 4.65534 13.9557 5.24445V5.42222C13.9557 6.01133 13.4781 6.48889 12.889 6.48889H7.02237C6.43327 6.48889 5.95571 6.01133 5.95571 5.42222V5.24445Z" fill="#FFE1A4"/>
<path d="M11.1113 8.8H7.11126C7.70033 8.8 8.17793 8.32244 8.17793 7.73334V7.55556C8.17793 6.96645 7.70033 6.48889 7.11126 6.48889H11.1113C10.5222 6.48889 10.0446 6.96645 10.0446 7.55556V7.73334C10.0446 8.32244 10.5222 8.8 11.1113 8.8Z" fill="#FFE1A4"/>
<path d="M12.8002 13.5111H8.80015C9.38921 13.5111 9.86682 13.0336 9.86682 12.4444V12.2667C9.86682 11.6776 9.38921 11.2 8.80015 11.2H12.8002C12.2111 11.2 11.7335 11.6776 11.7335 12.2667V12.4444C11.7335 13.0336 12.2111 13.5111 12.8002 13.5111Z" fill="#FFE1A4"/>
<path d="M5.95571 14.5778C5.95571 13.9887 6.43327 13.5111 7.02237 13.5111H12.889C13.4781 13.5111 13.9557 13.9887 13.9557 14.5778V14.7556C13.9557 15.3447 13.4781 15.8222 12.889 15.8222H7.02237C6.43327 15.8222 5.95571 15.3447 5.95571 14.7556V14.5778Z" fill="#FFE1A4"/>
</svg>
