<svg width="20" height="20" viewBox="0 0 20 20" fill="none" xmlns="http://www.w3.org/2000/svg">
<circle cx="10" cy="10" r="10" fill="white"/>
<path fill-rule="evenodd" clip-rule="evenodd" d="M9.58772 1.00494C7.72801 1.09708 5.99508 1.73199 4.52354 2.86037C4.01123 3.25321 3.50227 3.74249 3.08736 4.24101C1.97335 5.57954 1.27592 7.18771 1.06703 8.89963C0.882637 10.4108 1.08001 11.9323 1.64271 13.3377C1.99721 14.223 2.51356 15.0809 3.12737 15.8043C3.43746 16.1697 3.82967 16.5619 4.19513 16.872C4.91913 17.4863 5.78338 18.0061 6.67086 18.3613C7.96141 18.8777 9.36121 19.0853 10.7626 18.9682C12.9732 18.7835 15.036 17.7828 16.5661 16.1526C17.8756 14.7573 18.7052 12.9908 18.9365 11.1052C19.1698 9.20358 18.7971 7.28633 17.8725 5.63185C16.5329 3.23449 14.1856 1.57274 11.5023 1.12215C11.188 1.06935 10.9311 1.03936 10.5735 1.0137C10.3919 1.00066 9.78322 0.995262 9.58772 1.00494ZM10.659 1.53049C11.312 1.58685 11.8817 1.69393 12.4616 1.86933C13.4695 2.17421 14.4407 2.68348 15.272 3.34293C15.7711 3.73887 16.2612 4.22899 16.6572 4.72806C17.749 6.10424 18.379 7.76018 18.4822 9.52528C18.4938 9.72256 18.4938 10.2734 18.4822 10.4705C18.3771 12.2662 17.734 13.9328 16.6069 15.33C16.2445 15.7792 15.7835 16.2402 15.3342 16.6026C14.816 17.0205 14.3166 17.3383 13.7154 17.6326C13.4571 17.759 13.3012 17.8276 13.0597 17.921C12.2333 18.2405 11.3914 18.4221 10.479 18.4778C10.2886 18.4894 9.72763 18.4894 9.52921 18.4778C8.13763 18.3964 6.85065 18.0014 5.64906 17.2869C5.21609 17.0294 4.73456 16.6741 4.33017 16.3137C4.16829 16.1695 3.82192 15.8224 3.67799 15.6602C2.53977 14.3778 1.83068 12.8569 1.59406 11.1907C1.56729 11.0021 1.54996 10.8431 1.52836 10.5875C1.51294 10.405 1.51294 9.59073 1.52836 9.40825C1.56943 8.92237 1.62011 8.57315 1.70733 8.17495C1.94049 7.11059 2.38908 6.08128 3.01205 5.18125C3.58976 4.34662 4.31458 3.61807 5.14941 3.03288C6.02893 2.41637 7.05378 1.96127 8.10228 1.72164C8.59134 1.60986 9.03637 1.54798 9.59222 1.51446C9.74018 1.50553 10.5026 1.517 10.659 1.53049ZM11.322 6.59385L10.9271 6.98874L10.8408 6.93449C10.3155 6.60432 9.64106 6.60628 9.10608 6.93953C8.93784 7.04433 8.75906 7.213 8.64028 7.37898C8.52027 7.54669 8.41615 7.78538 8.37169 7.9947C8.28552 8.4004 8.36994 8.86016 8.59365 9.20353C8.84979 9.59667 9.21521 9.84412 9.68 9.93916L9.70476 9.94422V10.2402V10.5362L9.63499 10.5516C9.14005 10.6604 8.72653 10.9839 8.50712 11.4337C8.44276 11.5657 8.40837 11.6632 8.3772 11.8022C8.22368 12.4866 8.53239 13.198 9.14129 13.563C9.88171 14.0067 10.8519 13.7881 11.3355 13.0685C11.5219 12.7911 11.6136 12.4889 11.6132 12.1528C11.6128 11.8763 11.553 11.6311 11.4285 11.3954C11.1923 10.9485 10.7847 10.6462 10.2787 10.5427L10.2539 10.5377V10.2409V9.94422L10.2742 9.93992C10.5508 9.88112 10.7564 9.78975 10.9635 9.63356C11.3094 9.37265 11.539 8.98366 11.5999 8.55503C11.6168 8.43646 11.6167 8.21872 11.5997 8.09923C11.5666 7.86632 11.4731 7.61724 11.3483 7.42923L11.3134 7.37665L11.7087 6.98136L12.1039 6.58607L11.9103 6.39252L11.7168 6.19897L11.322 6.59385ZM10.1546 7.24813C10.7838 7.35016 11.1941 7.97816 11.0362 8.59742C10.9327 9.00322 10.6088 9.31025 10.1891 9.40044C10.086 9.42259 9.87256 9.42269 9.76844 9.40062C9.66911 9.37958 9.57175 9.34649 9.49345 9.30717C9.27973 9.19987 9.08805 9.00549 8.98978 8.79643C8.8486 8.49612 8.85002 8.14582 8.99357 7.85088C9.15533 7.51851 9.46036 7.29837 9.8398 7.24014C9.89832 7.23115 10.0781 7.23572 10.1546 7.24813ZM10.1012 11.0691C10.5734 11.1232 10.9491 11.4703 11.0512 11.9469C11.0726 12.0468 11.0731 12.2536 11.0522 12.3589C11.0071 12.5857 10.8964 12.7873 10.7297 12.9459C10.2331 13.4184 9.44265 13.3261 9.05996 12.7508C8.82439 12.3967 8.82686 11.9184 9.06617 11.5504C9.12363 11.4621 9.28159 11.3032 9.36733 11.2476C9.59451 11.1001 9.84337 11.0396 10.1012 11.0691Z" fill="#181EA9"/>
</svg>
