<svg width="20" height="20" viewBox="0 0 20 20" fill="none" xmlns="http://www.w3.org/2000/svg">
<path d="M13.1341 1.55387C15.5552 2.63304 17.1692 5.29243 16.9858 7.99037C12.6572 7.99037 8.32861 8.0289 4 7.95182C4 6.14035 4.58693 4.29034 5.83416 3.01846C7.66831 1.05283 10.713 0.436155 13.1341 1.55387Z" fill="#5FC0C1"/>
<path d="M13.0986 18.2857C13.3532 18.2857 13.5714 18.4444 13.5714 18.6429C13.5714 18.8413 13.3532 19 13.0986 19H6.18718C5.93255 19 5.71429 18.8413 5.71429 18.6429C5.71429 18.4444 5.93255 18.2857 6.18718 18.2857H13.0986Z" fill="#E1177C"/>
<path d="M4.64285 19C4.8401 19 4.99999 18.8401 4.99999 18.6428C4.99999 18.4456 4.8401 18.2857 4.64285 18.2857C4.44561 18.2857 4.28571 18.4456 4.28571 18.6428C4.28571 18.8401 4.44561 19 4.64285 19Z" fill="#E1177C"/>
<path d="M8.75001 17.2143C9.04587 17.2143 9.28572 16.9744 9.28572 16.6786C9.28572 16.3827 9.04587 16.1429 8.75001 16.1429C8.45414 16.1429 8.21429 16.3827 8.21429 16.6786C8.21429 16.9744 8.45414 17.2143 8.75001 17.2143Z" fill="#E1177C"/>
<path d="M17.3535 16.1429C17.6247 16.1429 17.8572 16.3901 17.8572 16.6786C17.8572 16.967 17.6247 17.2143 17.3535 17.2143H10.1466C9.87536 17.2143 9.64288 16.967 9.64288 16.6786C9.64288 16.3901 9.87536 16.1429 10.1466 16.1429H17.3535Z" fill="#E1177C"/>
<path d="M6.65002 14.3571C6.91538 14.3571 7.14283 14.6044 7.14283 14.8929C7.14283 15.1813 6.91538 15.4286 6.65002 15.4286H0.849935C0.584572 15.4286 0.357117 15.1813 0.357117 14.8929C0.357117 14.6044 0.584572 14.3571 0.849935 14.3571H6.65002Z" fill="#E1177C"/>
<path d="M19.5076 14.3571C19.7727 14.3571 20 14.6044 20 14.8929C20 15.1813 19.7727 15.4286 19.5076 15.4286H7.99243C7.72727 15.4286 7.5 15.1813 7.5 14.8929C7.5 14.6044 7.72727 14.3571 7.99243 14.3571H19.5076Z" fill="#E1177C"/>
<path d="M17.3684 12.5714C17.6316 12.5714 17.8571 12.8187 17.8571 13.1072C17.8571 13.3956 17.6316 13.6429 17.3684 13.6429H3.34583C3.08268 13.6429 2.85712 13.3956 2.85712 13.1072C2.85712 12.8187 3.08268 12.5714 3.34583 12.5714H17.3684Z" fill="#E1177C"/>
<path d="M1.9643 13.6429C2.26017 13.6429 2.50002 13.403 2.50002 13.1072C2.50002 12.8113 2.26017 12.5714 1.9643 12.5714C1.66844 12.5714 1.42859 12.8113 1.42859 13.1072C1.42859 13.403 1.66844 13.6429 1.9643 13.6429Z" fill="#E1177C"/>
<path d="M14.5113 10.7857C14.7744 10.7857 15 11.033 15 11.3214C15 11.6099 14.7744 11.8571 14.5113 11.8571H0.488723C0.225565 11.8571 0 11.6099 0 11.3214C0 11.033 0.225565 10.7857 0.488723 10.7857H14.5113Z" fill="#E1177C"/>
<path d="M1.9643 10.0714C2.26017 10.0714 2.50002 9.83158 2.50002 9.53571C2.50002 9.23985 2.26017 9 1.9643 9C1.66844 9 1.42859 9.23985 1.42859 9.53571C1.42859 9.83158 1.66844 10.0714 1.9643 10.0714Z" fill="#E1177C"/>
<path d="M18.7913 9C19.0575 9 19.2857 9.24725 19.2857 9.53571C19.2857 9.82418 19.0575 10.0714 18.7913 10.0714H3.3515C3.08529 10.0714 2.85712 9.82418 2.85712 9.53571C2.85712 9.24725 3.08529 9 3.3515 9H18.7913Z" fill="#E1177C"/>
</svg>
