<svg width="20" height="20" viewBox="0 0 20 20" fill="none" xmlns="http://www.w3.org/2000/svg">
<circle cx="10" cy="10" r="10" fill="#72F596"/>
<path fill-rule="evenodd" clip-rule="evenodd" d="M3.52068 8.43001C3.56096 8.43375 3.60157 8.42904 3.63993 8.41619C3.67829 8.40333 3.71354 8.38262 3.74343 8.35537C3.77333 8.32812 3.79721 8.29493 3.81355 8.25792C3.82989 8.22092 3.83833 8.18091 3.83833 8.14046C3.83833 8.10001 3.82989 8.06 3.81355 8.023C3.79721 7.986 3.77333 7.95281 3.74343 7.92556C3.71354 7.89831 3.67829 7.87759 3.63993 7.86474C3.60157 7.85189 3.56096 7.84718 3.52068 7.85091H1.26394C1.19177 7.85761 1.12471 7.89101 1.07589 7.94457C1.02706 7.99813 1 8.06799 1 8.14046C1 8.21294 1.02706 8.2828 1.07589 8.33636C1.12471 8.38992 1.19177 8.42332 1.26394 8.43001H3.52068ZM2.86702 10.6271C2.86702 10.7876 2.9973 10.9179 3.15781 10.9179H5.41456C5.48672 10.9112 5.55378 10.8778 5.60261 10.8242C5.65143 10.7707 5.67849 10.7008 5.67849 10.6283C5.67849 10.5559 5.65143 10.486 5.60261 10.4325C5.55378 10.3789 5.48672 10.3455 5.41456 10.3388H3.15781C3.11974 10.3385 3.08199 10.3457 3.04672 10.36C3.01145 10.3744 2.97938 10.3956 2.95234 10.4224C2.9253 10.4492 2.90385 10.4811 2.8892 10.5162C2.87456 10.5513 2.86702 10.589 2.86702 10.6271V10.6271ZM4.76338 9.09361H2.2581C2.18097 9.09361 2.10701 9.12425 2.05248 9.17878C1.99794 9.23332 1.96731 9.30728 1.96731 9.38441C1.96731 9.46153 1.99794 9.53549 2.05248 9.59003C2.10701 9.64456 2.18097 9.6752 2.2581 9.6752H4.7609C4.80117 9.67893 4.84179 9.67422 4.88014 9.66137C4.9185 9.64852 4.95375 9.6278 4.98365 9.60055C5.01354 9.5733 5.03742 9.54012 5.05376 9.50311C5.0701 9.46611 5.07854 9.4261 5.07854 9.38565C5.07854 9.3452 5.0701 9.30519 5.05376 9.26819C5.03742 9.23118 5.01354 9.19799 4.98365 9.17074C4.95375 9.14349 4.9185 9.12278 4.88014 9.10992C4.84179 9.09707 4.80117 9.09236 4.7609 9.0961L4.76338 9.09361ZM1.50751 9.67768C1.58463 9.67768 1.65859 9.64705 1.71313 9.59251C1.76766 9.53798 1.7983 9.46401 1.7983 9.38689C1.7983 9.30977 1.76766 9.2358 1.71313 9.18127C1.65859 9.12674 1.58463 9.0961 1.50751 9.0961H1.39318C1.31605 9.0961 1.24209 9.12674 1.18756 9.18127C1.13302 9.2358 1.10239 9.30977 1.10239 9.38689C1.10239 9.46401 1.13302 9.53798 1.18756 9.59251C1.24209 9.64705 1.31605 9.67768 1.39318 9.67768H1.50751ZM6.67962 11.8698C6.67962 11.7105 6.55059 11.5815 6.39132 11.5815H1.51993C1.44777 11.5882 1.38071 11.6216 1.33188 11.6752C1.28306 11.7287 1.256 11.7986 1.256 11.871C1.256 11.9435 1.28306 12.0134 1.33188 12.0669C1.38071 12.1205 1.44777 12.1539 1.51993 12.1606H6.39132C6.42939 12.1606 6.46708 12.1531 6.50223 12.1384C6.53737 12.1238 6.56926 12.1023 6.59607 12.0753C6.62287 12.0482 6.64405 12.0162 6.6584 11.9809C6.67274 11.9456 6.67995 11.9079 6.67962 11.8698V11.8698Z" fill="#231F20"/>
<path fill-rule="evenodd" clip-rule="evenodd" d="M15.6466 11.5468C14.7568 11.1889 14.3194 10.9826 13.954 11.3231C14.1404 10.9527 14.0659 10.9304 13.9093 10.657C13.5986 10.1077 12.7734 9.20799 12.4901 7.49306C12.7309 6.84621 12.8976 6.17419 12.9872 5.48983C12.9872 5.48983 13.1612 4.99275 12.4006 5.24129C11.9283 5.53181 11.4289 5.7757 10.9094 5.96951C9.96245 5.85767 8.57311 5.17419 8.06112 4.1154C8.06112 4.1154 8.48861 3.22315 8.1158 3.01686C7.86726 2.87519 7.09182 3.673 7.09182 3.673L4.57908 6.60329L4.38521 6.96367C4.34298 7.04134 4.32404 7.12954 4.33065 7.2177C4.33726 7.30587 4.36915 7.39025 4.4225 7.46075C5.08858 8.34804 7.71317 11.845 9.20938 13.6941C4.932 13.7289 2.62058 14.3851 4.26094 14.6137C5.60306 14.8001 8.66756 14.7455 10.9715 14.738C11.2397 14.8159 11.5129 14.8757 11.7892 14.917L15.6466 14.9542C16.1436 14.9269 16.601 14.8896 16.9613 14.8499C17.0782 14.837 17.1892 14.7921 17.2821 14.7202C17.3751 14.6483 17.4464 14.5521 17.4882 14.4422C17.9033 13.3313 17.2497 12.188 15.6466 11.5468V11.5468ZM7.94182 9.41676L7.81258 6.43428L8.68744 8.26354L9.62941 7.88576L9.87795 10.7688L8.88379 8.97436L7.94182 9.41676V9.41676Z" fill="#231F20"/>
</svg>
