<svg width="20" height="20" viewBox="0 0 20 20" fill="none" xmlns="http://www.w3.org/2000/svg">
<circle cx="10" cy="10" r="10" fill="#EECF7D"/>
<path fill-rule="evenodd" clip-rule="evenodd" d="M9.09128 1.74202C7.19758 1.95819 5.47633 2.77774 4.14138 4.09891C2.73011 5.49564 1.89883 7.24756 1.69879 9.24671C1.51827 11.0512 2.01116 13.0356 3.01992 14.5657C3.98558 16.0303 5.44324 17.1995 7.04865 17.7971C8.0253 18.1606 8.89811 18.3147 9.98017 18.3147C11.3814 18.3147 12.5893 18.026 13.7781 17.4071C15.4032 16.561 16.6334 15.3078 17.4397 13.6772C18.5939 11.343 18.5844 8.64251 17.4139 6.29564C16.5776 4.61899 15.1607 3.24113 13.4693 2.45968C12.1617 1.85556 10.493 1.58206 9.09128 1.74202ZM11.371 2.58255C12.9006 2.89685 14.156 3.54792 15.2239 4.58081C17.8395 7.11055 18.289 11.1316 16.2948 14.1616C13.8818 17.828 8.87613 18.6751 5.38542 16.0077C3.52526 14.5863 2.42461 12.3605 2.42461 10.0202C2.42461 7.33152 3.84594 4.85758 6.18041 3.48295C7.04788 2.97212 8.003 2.65685 9.19229 2.48869C9.25895 2.47928 9.68623 2.47798 10.1418 2.48586C10.7729 2.49673 11.0655 2.51976 11.371 2.58255ZM8.3236 5.49495V6.74748H6.86881H5.41403L5.42437 10.0101L5.43471 13.2727L6.87916 13.2834L8.3236 13.2939V14.546V15.798H8.68724H9.05087V14.5455V13.2929H9.91956H10.7882V14.5455V15.798H11.1721H11.5559V14.5455V13.2929H12.9095H14.263V11.4543V9.6156L11.5256 9.62598L8.78825 9.63637L8.77661 10.0101L8.76501 10.3838H11.1301H13.4953V11.4545V12.5253H9.83875H6.18219V10.0202V7.51515H10.162H14.1418V7.13132V6.74748H12.8489H11.5559V5.49495V4.24243H11.1721H10.7882V5.49495V6.74748H9.91956H9.05087V5.49495V4.24243H8.68724H8.3236V5.49495Z" fill="#231F20"/>
</svg>
