<svg width="20" height="20" viewBox="0 0 20 20" fill="none" xmlns="http://www.w3.org/2000/svg">
<g clip-path="url(#clip0_2953_4940)">
<path d="M5.87875 11.3878C6.45351 11.3878 7.01426 11.1963 7.46753 10.8458L3.82267 7.20093C2.94417 8.33644 3.15445 9.97196 4.28996 10.8505C4.74791 11.1963 5.30398 11.3878 5.87875 11.3878Z" fill="#00193C"/>
<path d="M16.7196 8.78507C16.7196 8.21031 16.528 7.64956 16.1776 7.19629L12.5327 10.8411C13.6682 11.7197 15.2991 11.5094 16.1776 10.3739C16.528 9.92059 16.7196 9.35984 16.7196 8.78507Z" fill="#00193C"/>
<path d="M18.5561 4.81775L16.9439 6.4299C18.243 7.98597 18.0374 10.3037 16.4813 11.6028C15.1168 12.743 13.1355 12.743 11.771 11.6028L10 13.3738L8.23364 11.6075C6.67757 12.9065 4.35981 12.7009 3.06075 11.1449C1.92056 9.78037 1.92056 7.79906 3.06075 6.43457L2.23364 5.60747L1.4486 4.81775C0.5 6.3785 0 8.17289 0 9.99999C0 15.5234 4.47664 20 10 20C15.5234 20 20 15.5234 20 9.99999C20.0047 8.17289 19.5 6.3785 18.5561 4.81775Z" fill="#00193C"/>
<path d="M17.2337 3.09807C13.4252 -0.897253 7.09814 -1.04679 3.10281 2.76162C2.98599 2.87377 2.87384 2.98592 2.76636 3.09807C2.5187 3.35976 2.28506 3.63078 2.06543 3.91583L10 11.8551L17.9346 3.91583C17.7196 3.63078 17.4813 3.35976 17.2337 3.09807ZM10 1.30835C12.3365 1.30835 14.514 2.21022 16.1495 3.85508L10 10.0046L3.85048 3.85508C5.48599 2.21022 7.66356 1.30835 10 1.30835Z" fill="#00193C"/>
</g>
<defs>
<clipPath id="clip0_2953_4940">
<rect width="20" height="20" fill="white"/>
</clipPath>
</defs>
</svg>
