<svg width="20" height="20" viewBox="0 0 20 20" fill="none" xmlns="http://www.w3.org/2000/svg">
<path d="M1.32544 4.72684L3.90533 3.72922L5.2071 0.950119L7.43195 0L10.3905 1.28266L12.9704 0.190024L15.3609 1.09264L16.4497 4.10926L19.1716 5.22565L20 7.41093L18.7929 10.4276L19.8817 13.0641L19.0769 15.1544L16 16.4608L14.7929 19.1211L12.6864 20L9.75148 18.7173L7.00592 19.8337L4.94675 18.9786L3.76331 15.9857L0.994083 14.8456L0 12.3278L1.27811 9.33492L0.331361 7.03088L1.32544 4.72684Z" fill="url(#paint0_radial_3747_22533)"/>
<path fill-rule="evenodd" clip-rule="evenodd" d="M3.90533 3.72922L1.32544 4.72684L0.331361 7.03088L1.27811 9.33492L0 12.3278L0.994083 14.8456L3.76331 15.9857L4.94675 18.9786L7.00592 19.8337L9.75148 18.7173L12.6864 20L14.7929 19.1211L16 16.4608L19.0769 15.1544L19.8817 13.0641L18.7929 10.4276L20 7.41093L19.1716 5.22565L16.4497 4.10926L15.3609 1.09264L12.9704 0.190024L10.3905 1.28266L7.43195 0L5.2071 0.950119L3.90533 3.72922ZM1.18343 7.10214L1.89349 5.27316L3.76331 4.51306L2.88757 6.69834L5.42012 12.8979L3.19527 12.019L1.18343 7.10214ZM3.66864 6.60333L4.59172 8.81235L7.1716 2.66033L9.37278 1.73397L7.47929 0.902613L5.68047 1.68646L3.66864 6.60333ZM0.994083 12.3515L1.79882 10.4276L2.74556 12.6603L8.89941 15.2257L6.65089 16.152L1.75148 14.1093L0.994083 12.3515ZM4.56805 16.0333L5.37278 17.9335L7.14793 18.6461L12.0473 16.6271L14.8402 9.88124L13.8935 7.64846L10.6509 15.3207L6.7929 16.9359L4.56805 16.0333ZM10.5089 17.981L12.6864 17.0784L15.2663 10.9501L16.213 13.1591L14.1538 18.0998L12.3787 18.8361L10.5089 17.981ZM16.1183 15.2494L17.9645 14.4656L18.7219 12.6841L16.6864 7.76722L14.4379 6.84086L16.9467 12.9929L16.1183 15.2494ZM10.9822 4.53682L13.1834 3.5867L18.0592 5.6057L18.8639 7.43468L18.0592 9.28741L17.1124 7.10214L10.9822 4.53682ZM12.6627 1.09264L7.83432 3.11164L5.01775 9.88124L5.98817 12.0903L9.25444 4.3943L13.0651 2.80285L15.2899 3.68171L14.5089 1.82898L12.6627 1.09264ZM8.66272 7.31591L9.39645 5.72447L13.1598 7.36342L12.4497 8.93112L8.66272 7.31591ZM8.30769 8.26603L7.59763 9.83373L11.3846 11.4727L12.0947 9.83373L8.30769 8.26603ZM6.53254 12.3515L7.21894 10.8076L11.0296 12.4228L10.3195 13.9905L6.53254 12.3515Z" fill="url(#paint1_radial_3747_22533)"/>
<defs>
<radialGradient id="paint0_radial_3747_22533" cx="0" cy="0" r="1" gradientUnits="userSpaceOnUse" gradientTransform="translate(10 10) rotate(90) scale(10)">
<stop stop-color="#EEFBFC"/>
<stop offset="0.822917" stop-color="#6FCAFC"/>
<stop offset="1" stop-color="#2987F5"/>
</radialGradient>
<radialGradient id="paint1_radial_3747_22533" cx="0" cy="0" r="1" gradientUnits="userSpaceOnUse" gradientTransform="translate(10 10) rotate(90) scale(10)">
<stop stop-color="#20839F"/>
<stop offset="1" stop-color="#1D4A6F"/>
</radialGradient>
</defs>
</svg>
