<svg width="20" height="20" viewBox="0 0 20 20" fill="none" xmlns="http://www.w3.org/2000/svg">
<path d="M6.59495 17.497C6.28326 17.4965 5.98444 17.3726 5.76387 17.1524C5.5433 16.9321 5.41893 16.6335 5.41797 16.3218V13.9091L12.8495 9.04789L5.46889 4.23819V0.480606C5.47001 0.352752 5.52157 0.230522 5.61237 0.14051C5.70318 0.0504991 5.82587 -4.89431e-06 5.95373 3.55736e-10C6.04845 0.000390937 6.14082 0.0295588 6.21858 0.0836367L18.0798 8.07273C18.2393 8.17996 18.37 8.32477 18.4603 8.49439C18.5507 8.66402 18.5979 8.85327 18.5979 9.04547C18.5979 9.23766 18.5507 9.42689 18.4603 9.59652C18.37 9.76615 18.2393 9.91095 18.0798 10.0182L7.24645 17.2909C7.05563 17.4221 6.82955 17.4925 6.59796 17.4927L6.59495 17.497Z" fill="url(#paint0_linear_4961_59847)"/>
<path d="M13.9491 19.3618C13.7168 19.3615 13.49 19.2907 13.2988 19.1588L2.51815 11.8976C2.35865 11.7903 2.22798 11.6455 2.13763 11.4759C2.04727 11.3063 2 11.117 2 10.9248C2 10.7327 2.04727 10.5434 2.13763 10.3738C2.22798 10.2041 2.35865 10.0593 2.51815 9.95211L14.4315 1.95211C14.5092 1.89836 14.6013 1.86942 14.6957 1.86908C14.8236 1.86907 14.9463 1.91958 15.0371 2.00959C15.1279 2.0996 15.1795 2.22183 15.1806 2.34969V6.06364L7.74907 10.9248L15.1278 15.7321V18.1873C15.1293 18.3451 15.0983 18.5015 15.0368 18.6468C14.9753 18.7922 14.8846 18.9233 14.7703 19.0321C14.549 19.2423 14.2561 19.3604 13.9509 19.3624L13.9491 19.3618Z" fill="url(#paint1_linear_4961_59847)"/>
<path d="M8.86518 11.6545L12.307 13.897L8.89002 16.1909L5.46094 13.8824L8.86518 11.6545Z" fill="#264FA1"/>
<path d="M11.7328 8.31759L8.29102 6.07516L11.708 3.78122L15.1377 6.0897L11.7328 8.31759Z" fill="#264FA1"/>
<defs>
<linearGradient id="paint0_linear_4961_59847" x1="12.008" y1="1.97716" x2="12.008" y2="16.1322" gradientUnits="userSpaceOnUse">
<stop offset="0.1" stop-color="#264FA1"/>
<stop offset="0.484" stop-color="#288EC3"/>
<stop offset="0.8" stop-color="#2BBEDE"/>
</linearGradient>
<linearGradient id="paint1_linear_4961_59847" x1="8.59029" y1="18.4178" x2="8.59029" y2="5.15783" gradientUnits="userSpaceOnUse">
<stop offset="0.1" stop-color="#264FA1"/>
<stop offset="0.484" stop-color="#288EC3"/>
<stop offset="0.8" stop-color="#2BBEDE"/>
</linearGradient>
</defs>
</svg>
