<svg width="32" height="32" viewBox="0 0 32 32" fill="none" xmlns="http://www.w3.org/2000/svg">
<rect width="32" height="32" rx="3" fill="#4B8BF5"/>
<path d="M20.5833 9.12516H24.0208C24.3246 9.12516 24.6161 9.24588 24.831 9.46077C25.0459 9.67566 25.1666 9.9671 25.1666 10.271V22.8752C25.1666 23.483 24.9251 24.0658 24.4954 24.4956C24.0656 24.9254 23.4827 25.1668 22.8749 25.1668C22.2671 25.1668 21.6842 24.9254 21.2545 24.4956C20.8247 24.0658 20.5833 23.483 20.5833 22.8752V7.97933C20.5833 7.67544 20.4625 7.38399 20.2476 7.1691C20.0328 6.95422 19.7413 6.8335 19.4374 6.8335H7.97909C7.67519 6.8335 7.38374 6.95422 7.16886 7.1691C6.95397 7.38399 6.83325 7.67544 6.83325 7.97933V21.7293C6.83325 22.641 7.19542 23.5154 7.84007 24.16C8.48473 24.8047 9.35907 25.1668 10.2708 25.1668H22.8749" stroke="white" stroke-width="1.3" stroke-linecap="round" stroke-linejoin="round"/>
<path d="M11.4167 11.4165H16.0001" stroke="white" stroke-width="1.3" stroke-linecap="round" stroke-linejoin="round"/>
<path d="M11.4167 16H16.0001" stroke="white" stroke-width="1.3" stroke-linecap="round" stroke-linejoin="round"/>
<path d="M11.4167 20.5835H16.0001" stroke="white" stroke-width="1.3" stroke-linecap="round" stroke-linejoin="round"/>
</svg>
