<svg width="20" height="20" viewBox="0 0 20 20" fill="none" xmlns="http://www.w3.org/2000/svg">
<circle cx="10" cy="10" r="10" fill="url(#paint0_linear_4155_54599)"/>
<path fill-rule="evenodd" clip-rule="evenodd" d="M9.23848 1.62777C9.15255 1.63496 8.86251 1.67804 8.59395 1.72351C5.9204 2.17632 3.65192 3.87156 2.45848 6.30859C1.87364 7.50296 1.60411 8.66148 1.60255 9.98824C1.60165 10.7308 1.67438 11.3586 1.83794 12.0196C2.677 15.4106 5.53407 17.9387 9.00411 18.3607C9.47231 18.4177 10.6021 18.4174 11.0158 18.3602C11.8973 18.2384 12.8152 17.9776 13.4881 17.6579C13.7633 17.5272 13.8304 17.4769 13.8859 17.3598C13.9754 17.1712 13.9383 16.9869 13.7849 16.8578C13.6183 16.7176 13.4529 16.7293 13.0522 16.9094C11.6429 17.5428 9.92735 17.7179 8.39864 17.3844C6.49442 16.969 4.77255 15.7873 3.7002 14.1602C2.88571 12.9242 2.46364 11.508 2.46184 10.005C2.45798 6.74964 4.51817 3.8846 7.60509 2.85253C8.52044 2.54648 9.28833 2.43816 10.2932 2.47331C13.7807 2.59542 16.6761 5.06062 17.4056 8.52894C17.5293 9.11663 17.5772 10.2745 17.5033 10.8848C17.4547 11.2853 17.3184 11.9097 17.1854 12.3407C17.1225 12.5444 17.116 12.6159 17.1507 12.721C17.2408 12.9939 17.5763 13.098 17.816 12.9273C17.951 12.8312 18.1076 12.3684 18.2656 11.5989C18.4018 10.9357 18.4394 9.63038 18.3427 8.92578C18.082 7.02745 17.2676 5.38624 15.9197 4.04285C14.5858 2.71339 12.8738 1.88745 10.9768 1.65828C10.5736 1.60956 9.64985 1.59335 9.23848 1.62777ZM8.14903 4.35245C7.73177 4.50663 7.51059 4.72324 6.13161 6.32812C5.34098 7.2482 5.07782 7.58156 4.97591 7.79187C4.76704 8.22292 4.80446 8.48167 5.13845 8.91601L5.28114 9.10156H4.35817C3.36739 9.10156 3.23602 9.12261 3.11079 9.30144C3.02891 9.41831 3.02891 9.68324 3.11079 9.80011C3.24177 9.98714 3.3436 9.99999 4.69622 10.0001L5.95723 10.0003L6.26231 10.4005L6.56743 10.8008L5.20763 10.8203C3.9929 10.8378 3.83704 10.8472 3.74645 10.9087C3.49442 11.08 3.49442 11.4591 3.74645 11.6303C3.83837 11.6928 4.00848 11.701 5.56571 11.7187L7.28356 11.7383L7.58954 12.1387L7.89548 12.5391H6.44591C4.88946 12.5391 4.84903 12.5438 4.70962 12.7428C4.58009 12.9277 4.67235 13.2652 4.87806 13.3589C4.94903 13.3912 5.49122 13.4035 6.77591 13.4017L8.57442 13.3993L8.91684 13.8285L9.25931 14.2578H7.76001C6.28177 14.2578 6.25923 14.259 6.15321 14.3424C5.92895 14.5188 5.90368 14.8037 6.09532 14.9953L6.2045 15.1045L10.4168 15.1373C14.917 15.1723 15.0043 15.1719 15.614 15.1166C16.0655 15.0756 16.2129 15.0256 16.4214 14.8426C16.6811 14.6145 16.8145 14.2221 16.8049 13.7146C16.7873 12.7924 16.1008 12.0041 14.8658 11.4881C14.3315 11.2648 14.299 11.2541 13.867 11.1578C13.8114 11.1455 13.7366 11.0803 13.6943 11.0075C13.6533 10.9368 13.5105 10.7119 13.3769 10.5078C12.9973 9.92781 12.7428 9.3689 12.5988 8.7987L12.5371 8.55445L12.6741 8.11511C12.837 7.59273 12.9848 6.7957 12.9515 6.61859C12.9188 6.44417 12.7898 6.29265 12.6009 6.20687C12.4067 6.11867 12.1861 6.11386 11.8884 6.1914C11.182 6.37542 10.2487 6.1139 9.65708 5.56613C9.39778 5.32609 9.34841 5.26394 9.04481 4.7955C8.77286 4.37585 8.47903 4.23054 8.14903 4.35245ZM8.49673 5.55167C8.85946 6.11238 9.5002 6.63277 10.1277 6.87628C10.5961 7.05808 11.0011 7.12199 11.5504 7.10081C11.8846 7.08796 12.0314 7.09538 12.0313 7.12511C12.0312 7.19816 11.8395 7.89542 11.7375 8.19417C11.6417 8.47464 11.6413 8.48206 11.702 8.78011C11.8517 9.51421 12.1875 10.2896 12.6684 11.012C12.903 11.3642 12.9574 11.4721 12.928 11.527C12.8579 11.658 12.8859 11.8631 12.9908 11.9878C13.1309 12.1543 13.3258 12.1857 13.5337 12.0755C13.6879 11.9937 13.6997 11.993 13.9071 12.0542C14.3061 12.1719 14.9524 12.4649 15.2193 12.6489C15.7277 12.9995 15.9731 13.4344 15.9251 13.8997C15.9129 14.0175 15.878 14.1389 15.8474 14.1695C15.7463 14.2706 14.9692 14.3042 13.1447 14.2863L11.3869 14.2691L11.0354 14.1644C10.842 14.1069 10.5127 13.9784 10.3037 13.879L9.92356 13.6982L9.14954 12.7182C8.34165 11.6954 8.19747 11.5094 6.65356 9.49714L5.70931 8.26644L5.78208 8.12738C5.82212 8.05085 6.32239 7.44335 6.8938 6.77734C7.82981 5.68628 8.20895 5.278 8.28934 5.2746C8.30438 5.27394 8.39774 5.39863 8.49673 5.55167ZM8.92079 7.72546C8.80606 7.81839 8.7502 7.93956 8.7502 8.09542C8.7502 8.19749 8.82985 8.34327 9.10294 8.74105L9.45567 9.2548L9.24942 9.28202C8.97067 9.31878 8.78927 9.49066 8.78927 9.718C8.78927 9.85413 8.85755 9.97249 9.33798 10.6692C9.63977 11.1068 9.93083 11.5044 9.9847 11.5527C10.047 11.6086 10.1327 11.6406 10.2198 11.6406C10.4912 11.6406 10.662 11.4794 10.6634 11.2222C10.6641 11.0793 10.6204 10.9932 10.3316 10.5688L9.99888 10.08L10.107 10.0577C10.4313 9.99105 10.5146 9.9521 10.59 9.83187C10.7316 9.60617 10.6862 9.49804 10.0793 8.61749C9.77446 8.17507 9.48016 7.77781 9.42532 7.73468C9.29997 7.63609 9.03704 7.63128 8.92079 7.72546ZM3.1838 16.6797C3.17052 16.7012 3.17829 16.7187 3.20102 16.7187C3.22376 16.7187 3.24239 16.7012 3.24239 16.6797C3.24239 16.6582 3.23466 16.6406 3.22516 16.6406C3.21567 16.6406 3.19708 16.6582 3.1838 16.6797Z" fill="black"/>
<defs>
<linearGradient id="paint0_linear_4155_54599" x1="0" y1="10" x2="20" y2="10" gradientUnits="userSpaceOnUse">
<stop stop-color="#BEBEBE"/>
<stop offset="1" stop-color="#DCDCDC"/>
</linearGradient>
</defs>
</svg>
