<svg width="20" height="20" fill="none" xmlns="http://www.w3.org/2000/svg"><path d="M10 20c5.523 0 10-4.477 10-10S15.523 0 10 0 0 4.477 0 10s4.477 10 10 10z" fill="#F0F0F0"/><path d="M5.652 19.008A10 10 0 010 10 10 10 0 015.652.992v18.016zM14.348.992A10 10 0 0120 10a10 10 0 01-5.652 9.008V.992z" fill="#338AF3"/><path d="M12.613 11.69L10.923 10l1.609-1.61-.073-.85-.46-.46L10 9.078 8.002 7.08l-.46.46-.074.85L9.078 10l-1.691 1.69.922.923L10 10.923l1.69 1.69.923-.922z" fill="#ACABB1"/><path d="M12.46 7.54l-.923.923a2.174 2.174 0 11-3.074 0L7.54 7.54a3.478 3.478 0 104.919 0z" fill="#6DA544"/></svg>