<svg width="48" height="48" viewBox="0 0 48 48" fill="none" xmlns="http://www.w3.org/2000/svg">
<g clip-path="url(#clip0)">
<path fill-rule="evenodd" clip-rule="evenodd" d="M45.398 5.04255C45.5355 5.08436 45.6411 5.19927 45.6516 5.34559L45.6529 5.36406C45.7181 6.32948 47.9972 40.0615 24.4778 47.9786C24.4462 47.9889 24.4039 47.9995 24.3722 47.9995C24.3404 47.9995 24.2982 47.9889 24.2665 47.9786C0.525188 39.9868 3.06098 5.69033 3.09265 5.34559C3.09752 5.27638 3.12481 5.21056 3.17048 5.15787C3.21616 5.10518 3.27778 5.06843 3.34624 5.05306L24.2876 0.00719714C24.3399 -0.00325354 24.3938 -0.00325354 24.4462 0.00719714L45.398 5.04244V5.04255ZM24.3722 43.7163C24.3933 43.7163 24.425 43.7163 24.4567 43.7059C43.9717 37.1453 41.8797 8.94969 41.848 8.66766C41.8374 8.55264 41.7529 8.45863 41.6367 8.42733L24.425 4.27997C24.3834 4.26952 24.3398 4.26952 24.2982 4.27997L7.08653 8.42733C6.97025 8.44823 6.88576 8.55264 6.87524 8.66766C6.85398 8.94969 4.77266 37.1453 24.2771 43.7059C24.3087 43.7163 24.3404 43.7163 24.3722 43.7163ZM35.4537 13.4492C35.4902 13.458 35.523 13.4779 35.5475 13.5061C35.5719 13.5343 35.5867 13.5694 35.5898 13.6065C35.605 13.7893 36.9445 31.8809 24.4281 36.0945C24.3906 36.1075 24.3497 36.1075 24.3122 36.0945C11.7962 31.8809 13.1357 13.7893 13.1505 13.6065C13.1537 13.5695 13.1685 13.5345 13.1928 13.5063C13.2171 13.4781 13.2498 13.4581 13.2862 13.4492L24.3278 10.7904C24.3556 10.7826 24.3852 10.7826 24.4126 10.7904L35.4537 13.4492Z" fill="url(#paint0_linear)"/>
</g>
<defs>
<linearGradient id="paint0_linear" x1="73.9671" y1="21.2959" x2="47.8662" y2="66.6409" gradientUnits="userSpaceOnUse">
<stop stop-color="#B06AB3"/>
<stop offset="1" stop-color="#6699F8"/>
</linearGradient>
<clipPath id="clip0">
<rect width="48" height="48" fill="white"/>
</clipPath>
</defs>
</svg>
