<svg width="20" height="20" viewBox="0 0 20 20" fill="none" xmlns="http://www.w3.org/2000/svg">
<path d="M12.7568 6.11325C14.0786 2.82851 15.8258 1.27505 18.024 0.952393C18.024 0.952393 18.0326 2.74879 18.1728 3.36703C18.3129 3.98527 19.4226 8.39185 16.1407 10.4494L12.7568 6.11325V6.11325Z" fill="#ADB7C3" stroke="black" stroke-width="0.10266" stroke-linecap="round" stroke-linejoin="round"/>
<path d="M12.7568 6.11325C14.0786 2.82851 15.8258 1.27505 18.024 0.952393C18.024 0.952393 18.0326 2.74879 18.1728 3.36703C18.3129 3.98527 19.4226 8.39185 16.1407 10.4494L12.7568 6.11325V6.11325Z" fill="url(#paint0_radial_3755_22400)"/>
<path d="M18.1729 3.367C18.1036 3.06146 18.0557 2.57011 18.0359 2.0481C16.1611 2.24365 15.1768 4.25562 13.9766 7.23853L15.3882 9.48486L16.1409 10.4494C19.4227 8.39182 18.3131 3.98524 18.1729 3.367H18.1729Z" fill="#4C5967"/>
<path d="M12.7568 6.11325C14.0786 2.82851 15.8258 1.27505 18.024 0.952393C18.024 0.952393 18.0326 2.74879 18.1728 3.36703C18.3129 3.98527 19.4226 8.39185 16.1407 10.4494L12.7568 6.11325V6.11325Z" stroke="black" stroke-width="0.10266" stroke-linecap="round" stroke-linejoin="round"/>
<path d="M14.2235 6.9592C14.1087 5.70087 15.6111 2.92914 16.9017 2.43176C16.9017 2.43176 17.3811 4.34911 17.4756 4.76586C17.5701 5.18261 18.177 8.52787 15.7921 9.70117L14.2235 6.9592V6.9592Z" fill="url(#paint1_linear_3755_22400)"/>
<path d="M14.2235 6.9592C14.1087 5.70087 15.6111 2.92914 16.9017 2.43176C16.9017 2.43176 17.3811 4.34911 17.4756 4.76586C17.5701 5.18261 18.177 8.52787 15.7921 9.70117L14.2235 6.9592V6.9592Z" stroke="black" stroke-width="0.10266" stroke-linecap="round" stroke-linejoin="round"/>
<path d="M15.2395 6.97196C15.6643 6.77677 16.1505 6.66468 16.6764 6.60636C16.1992 6.40544 15.7049 6.32813 15.1885 6.41081C15.7204 6.08352 16.2505 5.79739 16.7784 5.56058C16.1962 5.40137 15.6431 5.46623 15.112 5.70086C15.7383 4.99669 16.3393 4.36656 16.8719 3.93665C16.3846 3.97661 15.9788 4.14206 15.6622 4.44502C15.8687 4.02593 16.5255 2.53379 17.3799 2.16394L16.5727 2.60357C15.3698 3.38494 14.1183 5.80668 14.2235 6.9592L14.6315 7.67237C15.0125 7.97302 15.6901 8.24304 15.9154 8.6809C16.1878 8.57685 15.4833 7.38949 15.1906 7.49059L16.6084 7.57561C16.2003 7.18309 15.7617 6.91134 15.2395 6.97195V6.97196Z" fill="url(#paint2_radial_3755_22400)"/>
<path d="M15.2393 6.97196C15.6641 6.77677 16.1503 6.66468 16.6762 6.60636C16.199 6.40544 15.7047 6.32813 15.1883 6.41081C15.7202 6.08352 16.2503 5.79739 16.7782 5.56058C16.196 5.40137 15.6428 5.46623 15.1117 5.70086C15.738 4.99669 16.339 4.36656 16.8717 3.93665C16.3844 3.97661 15.9786 4.14206 15.662 4.44502C15.8684 4.02593 16.5252 2.53379 17.3797 2.16394L16.5724 2.60357C15.3696 3.38494 14.0443 5.83368 14.1494 6.9862L14.6312 7.67236C15.0123 7.97301 15.6899 8.24303 15.9151 8.68089C16.1876 8.57685 15.4831 7.38948 15.1904 7.49058L16.6081 7.5756C16.2 7.18308 15.7615 6.91133 15.2393 6.97194L15.2393 6.97196Z" stroke="black" stroke-width="0.10266" stroke-linecap="round" stroke-linejoin="round"/>
<path d="M6.28749 6.0608C4.83198 3.69076 3.27458 2.71746 1.52979 2.75663C1.52979 2.75663 1.75931 4.14896 1.73207 4.64618C1.70483 5.1434 1.42489 8.70195 4.23705 9.86385L6.28749 6.0608V6.0608Z" fill="url(#paint3_radial_3755_22400)"/>
<path d="M1.73187 4.6462C1.74534 4.40046 1.71782 4.01364 1.66455 3.60677C3.14214 3.51169 4.169 4.94042 5.49077 7.09267L4.69294 9.01794L4.23686 9.86386C1.42469 8.70197 1.70464 5.14342 1.73187 4.6462Z" fill="#4C5967"/>
<path d="M6.28749 6.0608C4.83198 3.69076 3.27458 2.71746 1.52979 2.75663C1.52979 2.75663 1.75931 4.14896 1.73207 4.64618C1.70483 5.1434 1.42489 8.70195 4.23705 9.86385L6.28749 6.0608V6.0608Z" stroke="black" stroke-width="0.10266" stroke-linecap="round" stroke-linejoin="round"/>
<path d="M5.26294 6.90882C5.18637 5.91923 3.65841 3.97024 2.5935 3.75476C2.5935 3.75476 2.47434 5.30267 2.45597 5.63785C2.4376 5.97303 2.40744 8.64353 4.40867 9.23859L5.26294 6.90883V6.90882Z" fill="url(#paint4_linear_3755_22400)"/>
<path d="M5.26294 6.90882C5.18637 5.91923 3.65841 3.97024 2.5935 3.75476C2.5935 3.75476 2.47434 5.30267 2.45597 5.63785C2.4376 5.97303 2.40744 8.64353 4.40867 9.23859L5.26294 6.90883V6.90882Z" stroke="black" stroke-width="0.10266" stroke-linecap="round" stroke-linejoin="round"/>
<path d="M4.47785 7.0523C4.12322 6.95699 3.73195 6.93411 3.31701 6.95811C3.66012 6.73976 4.03274 6.6149 4.44358 6.61101C3.9886 6.4275 3.54045 6.2756 3.10048 6.16163C3.53043 5.96178 3.96732 5.93928 4.40948 6.05114C3.83186 5.58815 3.28354 5.17919 2.81451 4.9163C3.19714 4.88316 3.53319 4.95793 3.81818 5.15092C3.60322 4.85351 2.89836 3.7843 2.18799 3.61023L2.87097 3.84454C3.90525 4.2915 5.19288 6.00243 5.26303 6.90881L5.04084 7.51476C4.78529 7.7977 4.29603 8.09592 4.17915 8.46464C3.95447 8.41989 4.34394 7.40771 4.58393 7.44751L3.49713 7.69978C3.76157 7.34214 4.06544 7.07402 4.47785 7.05229V7.0523Z" fill="url(#paint5_radial_3755_22400)"/>
<path d="M4.47785 7.0523C4.12322 6.95699 3.73195 6.93411 3.31701 6.95811C3.66012 6.73976 4.03274 6.6149 4.44358 6.61101C3.9886 6.4275 3.54045 6.2756 3.10048 6.16163C3.53043 5.96178 3.96732 5.93928 4.40948 6.05114C3.83186 5.58815 3.28354 5.17919 2.81451 4.9163C3.19714 4.88316 3.53319 4.95793 3.81818 5.15092C3.60322 4.85351 2.89836 3.7843 2.18799 3.61023L2.87097 3.84454C3.90525 4.2915 5.19288 6.00243 5.26303 6.90881L5.04084 7.51476C4.78529 7.7977 4.29603 8.09592 4.17915 8.46464C3.95447 8.41989 4.34394 7.40771 4.58393 7.44751L3.49713 7.69978C3.76157 7.34214 4.06544 7.07402 4.47785 7.05229V7.0523Z" stroke="black" stroke-width="0.10266" stroke-linecap="round" stroke-linejoin="round"/>
<path d="M16.7699 11.1013C16.1354 10.4993 15.214 8.5875 15.01 8.25592C14.8059 7.92434 14.2618 6.82754 12.3913 5.4842C10.5208 4.14084 8.11464 5.07609 7.5019 5.17073C6.88916 5.26537 5.42794 6.21539 4.73076 7.49072C4.03358 8.76605 4.10585 10.407 3.99531 10.7428C3.92261 10.9637 3.6784 11.4313 3.51973 11.7255C2.9968 12.1923 2.62508 12.7263 2.45216 13.3488C2.67565 13.1659 2.91711 13.0305 3.1791 12.9491C2.55803 13.3345 2.3964 13.8643 2.45216 14.4625C2.65042 14.1286 2.85604 13.826 3.09833 13.6803C2.65396 14.2026 2.641 14.7333 2.9538 15.2703C2.97692 15.0419 3.06403 14.8271 3.2006 14.623C3.24447 14.7776 3.36782 15.1172 3.67648 15.4913C4.09734 16.0015 4.79878 15.8484 5.11762 15.8229C5.43644 15.7974 6.20165 16.1162 6.21441 16.3203C6.22716 16.5244 6.25266 18.3481 6.25266 18.3481C6.25266 18.3481 6.18109 19.8468 7.9106 19.87C9.34747 19.8892 9.53452 19.0028 10.7674 18.2205C11.062 18.0336 11.8046 17.9485 13.097 17.6254C14.3893 17.3023 15.0695 16.3161 15.0695 16.3161C15.1015 16.5889 14.9199 16.9648 14.7124 17.3533C15.732 16.8214 16.4438 15.9849 16.5659 14.5646C16.7237 14.8367 16.7918 15.146 16.7529 15.4998C17.1485 15.1812 17.2164 14.5752 17.11 13.8164C17.3187 13.9721 17.4245 14.2444 17.5181 14.5306C17.6852 13.8094 17.6563 13.1323 17.246 12.5411C17.5162 12.5941 17.7444 12.7473 17.9337 12.9935C18.0283 12.4731 17.3533 11.6549 16.7699 11.1014V11.1013Z" fill="url(#paint6_radial_3755_22400)"/>
<path d="M14.7465 14.1904C15.0362 14.0884 15.4035 14.1734 15.6903 14.2074C15.2306 13.8233 14.6873 13.6054 14.2174 13.8673C14.3477 13.6142 14.6659 13.5711 15.0016 13.4337C12.8505 12.6005 11.1658 14.9726 9.49213 13.9778L4.68955 13.7823C4.68955 13.7823 4.34798 13.6876 3.86153 13.8524C3.45654 13.9896 3.25311 14.4549 3.19629 14.607C3.23598 14.7532 3.3569 15.1037 3.6766 15.4912C4.09746 16.0014 4.7989 15.8483 5.11774 15.8228C5.43657 15.7973 6.20177 16.1162 6.21453 16.3202C6.22728 16.5243 6.25278 18.348 6.25278 18.348C6.25278 18.348 6.18121 19.8468 7.91072 19.8699C9.34759 19.8891 9.53464 19.0027 10.7675 18.2205C11.0621 18.0335 11.8047 17.9484 13.0971 17.6253C14.3894 17.3022 15.0696 16.316 15.0696 16.316C15.1016 16.5888 14.9201 16.9647 14.7125 17.3532C15.0876 17.1576 15.4208 16.9205 15.6985 16.6285C15.9614 16.1059 16.2268 15.324 15.8178 14.8451C15.1716 14.0884 14.7465 14.1904 14.7465 14.1904L14.7465 14.1904Z" fill="#ABB9C7"/>
<path d="M15.8884 14.9407C16.1347 15.4882 16.0142 16.0355 15.7414 16.5826C16.1946 16.0864 16.4914 15.4353 16.5662 14.5646C16.7241 14.8366 16.7922 15.146 16.7533 15.4998C17.1489 15.1812 17.2168 14.5752 17.1104 13.8164C17.319 13.9721 17.4249 14.2444 17.5185 14.5306C17.6856 13.8093 17.6567 13.1322 17.2464 12.541C17.5166 12.594 17.7448 12.7472 17.9341 12.9934C18.0286 12.473 17.3537 11.6548 16.7703 11.1013C16.4371 10.7852 16.025 10.1081 15.679 9.48821L15.5332 9.31018C16.1356 10.4581 16.6961 11.7465 17.1444 12.1464C16.867 12.0968 16.5525 11.8662 16.2212 11.5548C16.5488 12.0986 16.7757 12.6664 16.9233 13.2529C16.5654 13.0945 16.1867 12.7469 15.799 12.3181C16.2072 12.9122 16.5142 13.5308 16.7023 14.1782C16.5353 14.1684 16.3765 14.0916 16.2212 13.9864C16.2072 14.4112 16.1038 14.7376 15.8884 14.9407V14.9407Z" fill="#344151"/>
<path d="M16.0189 15.3191L15.8881 14.9408C15.8422 15.3796 15.7222 15.734 15.5217 15.9969C15.4857 15.8627 15.43 15.6555 15.37 15.4321C15.3607 15.6751 14.4644 16.5226 13.0629 16.9833C11.5959 17.4656 11.5668 17.2625 10.6482 17.8112C9.388 18.5639 9.22836 19.5383 7.6514 19.4447C6.21258 19.3594 6.25258 16.8213 6.25258 16.8213L6.229 16.8896C6.24063 17.4942 6.25258 18.3479 6.25258 18.3479C6.25258 18.3479 6.181 19.8467 7.91051 19.8698C9.34738 19.8891 9.53443 19.0026 10.7673 18.2204C11.0619 18.0335 11.8045 17.9483 13.0969 17.6253C14.3892 17.3022 15.0694 16.3159 15.0694 16.3159C15.1014 16.5887 14.9199 16.9647 14.7123 17.3532C15.0873 17.1575 15.4206 16.9204 15.6983 16.6284C15.8857 16.2559 16.0742 15.7516 16.0189 15.3191Z" fill="#69798A"/>
<path d="M3.51983 11.7255C3.51983 11.7255 3.88488 11.0787 3.99541 10.7428C4.10593 10.407 4.03367 8.76605 4.73086 7.49072C5.42805 6.21539 6.88926 5.26537 7.502 5.17073C8.11474 5.07609 10.5209 4.14084 12.3914 5.4842C14.2619 6.82755 14.806 7.92434 15.0101 8.25593C15.2141 8.58752 16.1355 10.4993 16.77 11.1013C17.3534 11.6549 18.0284 12.473 17.9338 12.9935C17.7445 12.7473 17.5163 12.594 17.2461 12.5411C17.6564 13.1323 17.6853 13.8094 17.5182 14.5306C17.4246 14.2444 17.3188 13.9721 17.1101 13.8164C17.2165 14.5752 17.1486 15.1812 16.753 15.4998C16.7919 15.146 16.7238 14.8367 16.566 14.5646C16.4439 15.9849 15.7321 16.8214 14.7125 17.3533C14.92 16.9648 15.1016 16.5889 15.0696 16.3161C15.0696 16.3161 14.3894 17.3023 13.0971 17.6254C11.8047 17.9485 11.062 18.0336 10.7674 18.2205C9.53462 19.0028 9.34757 19.8892 7.91069 19.87C6.18118 19.8469 6.25276 18.3481 6.25276 18.3481C6.25276 18.3481 6.22726 16.5243 6.2145 16.3203C6.20175 16.1163 5.43655 15.7974 5.11771 15.8229C4.79888 15.8484 4.09745 16.0015 3.67658 15.4913C3.25571 14.9812 3.1792 14.5348 3.1792 14.5348" stroke="black" stroke-width="0.10266" stroke-linecap="round" stroke-linejoin="round"/>
<path d="M3.08344 14.3246C3.22372 13.8397 3.35125 13.4978 3.48517 13.3933C3.41927 13.3657 3.12807 13.3575 2.89214 13.4978C3.20657 13.0135 3.31442 12.8546 3.60987 12.7699C3.39283 12.8372 3.11556 12.6743 2.93041 12.8258C3.01494 12.5215 3.20191 12.1449 3.42998 11.8077C2.95425 12.2548 2.615 12.7625 2.45216 13.3487C2.67565 13.1658 2.91711 13.0304 3.1791 12.9491C2.55803 13.3344 2.3964 13.8642 2.45216 14.4625C2.65042 14.1285 2.85604 13.8259 3.09833 13.6803C2.65396 14.2025 2.641 14.7332 2.9538 15.2702C2.98011 15.0103 3.08922 14.7681 3.25987 14.539L3.38563 14.16C3.2666 14.2281 3.15502 14.2864 3.08345 14.3246H3.08344Z" fill="#596576"/>
<path d="M3.51973 11.7253C2.99679 12.1922 2.62507 12.7262 2.45216 13.3486C2.67565 13.1658 2.91711 13.0303 3.1791 12.949C2.55802 13.3343 2.3964 13.8642 2.45216 14.4624C2.65042 14.1284 2.85604 13.8259 3.09833 13.6802C2.65396 14.2025 2.641 14.7331 2.9538 15.2701C2.98011 15.0102 3.05314 14.7671 3.2238 14.5381" stroke="black" stroke-width="0.10266" stroke-linecap="round" stroke-linejoin="round"/>
<path d="M8.24211 6.83169C7.83231 6.98819 7.62429 7.33992 7.48967 7.76268C7.32533 7.00135 7.44409 6.41168 7.98705 6.07924C7.52779 6.17707 7.21826 6.513 6.95403 6.92097C6.90006 6.01254 7.17251 5.37065 7.97429 5.16101C7.28729 5.13548 6.67147 5.27872 6.1123 5.55636C6.4887 4.63489 7.23906 4.14936 8.72674 4.52334C8.4786 4.21436 8.01089 4.07732 7.51517 3.9622C8.9972 3.59897 10.366 4.14094 11.6983 5.15676C10.2061 5.25028 8.45134 5.39545 8.24211 6.8317V6.83169Z" fill="url(#paint7_radial_3755_22400)"/>
<path d="M7.6172 7.06129C7.65546 6.6872 8.2859 5.99991 8.7395 5.72219C8.35583 5.80391 7.71678 5.64228 7.49604 5.98309C7.94241 5.3077 8.3375 5.14489 9.00731 4.96974C8.47573 4.94999 7.95112 4.72985 7.50542 4.88172C7.47027 4.89561 7.43531 4.91008 7.40039 4.9251C7.43486 4.90799 7.46991 4.89383 7.50542 4.88172C8.02231 4.67761 8.58332 4.60494 9.74701 4.89747C9.53971 4.63934 9.46394 4.35597 9.04983 4.2598C10.0192 4.34723 10.6288 4.39739 11.5522 5.00511C10.2582 4.05652 8.95044 3.61046 7.51517 3.96223C8.01089 4.07735 8.4786 4.2144 8.72674 4.52338C7.23906 4.1494 6.4887 4.63493 6.1123 5.5564C6.67147 5.27876 7.28729 5.13552 7.97429 5.16105C7.1725 5.37069 6.90006 6.01258 6.95403 6.92101C7.21826 6.51305 7.52779 6.17711 7.98705 6.07929C7.44409 6.41172 7.32533 7.0014 7.48967 7.76272C7.62429 7.33995 7.83231 6.98822 8.24211 6.83173L8.31438 6.76371C8.03127 6.8132 7.78143 6.92349 7.6172 7.06129V7.06129Z" fill="#C8D3DD"/>
<path d="M8.31438 6.76375C7.90458 6.92024 7.62429 7.34 7.48967 7.76276C7.32533 7.00143 7.44409 6.41176 7.98705 6.07932C7.52779 6.17715 7.21826 6.51307 6.95403 6.92104C6.90006 6.01262 7.17251 5.37073 7.97429 5.16108C7.28729 5.13556 6.67147 5.2788 6.1123 5.55643C6.4887 4.63497 7.23906 4.14943 8.72674 4.52342C8.4786 4.21443 8.01089 4.0774 7.51517 3.96227C8.9972 3.59904 10.366 4.0985 11.6983 5.11433" stroke="black" stroke-width="0.10266" stroke-linecap="round" stroke-linejoin="round"/>
<path d="M4.68955 13.7823C4.68955 13.7823 4.34798 13.6876 3.86153 13.8524C3.45654 13.9897 3.25311 14.4549 3.19629 14.607C3.23598 14.7532 3.3569 15.1037 3.6766 15.4913C4.09746 16.0014 4.7989 15.8484 5.11774 15.8229" stroke="black" stroke-width="0.10266" stroke-miterlimit="10"/>
<path d="M11.1661 12.8782C11.9738 12.8782 12.6286 12.0145 12.6286 10.949C12.6286 9.88361 11.9738 9.0199 11.1661 9.0199C10.3584 9.0199 9.70361 9.88361 9.70361 10.949C9.70361 12.0145 10.3584 12.8782 11.1661 12.8782Z" fill="#EBEDEF" stroke="black" stroke-width="0.10266" stroke-linecap="round" stroke-linejoin="round"/>
<path d="M11.2517 12.66C11.8427 12.66 12.3218 11.9905 12.3218 11.1645C12.3218 10.3385 11.8427 9.66895 11.2517 9.66895C10.6607 9.66895 10.1816 10.3385 10.1816 11.1645C10.1816 11.9905 10.6607 12.66 11.2517 12.66Z" fill="url(#paint8_linear_3755_22400)"/>
<path d="M11.2517 12.66C11.8427 12.66 12.3218 11.9905 12.3218 11.1645C12.3218 10.3385 11.8427 9.66895 11.2517 9.66895C10.6607 9.66895 10.1816 10.3385 10.1816 11.1645C10.1816 11.9905 10.6607 12.66 11.2517 12.66Z" stroke="#0D257C" stroke-width="0.06844" stroke-miterlimit="10"/>
<path d="M11.2049 12.318C11.6115 12.318 11.9411 11.8574 11.9411 11.2892C11.9411 10.721 11.6115 10.2604 11.2049 10.2604C10.7983 10.2604 10.4688 10.721 10.4688 11.2892C10.4688 11.8574 10.7983 12.318 11.2049 12.318Z" fill="black"/>
<path d="M10.8639 10.9491C11.0309 10.9491 11.1663 10.7854 11.1663 10.5835C11.1663 10.3816 11.0309 10.2179 10.8639 10.2179C10.6969 10.2179 10.5615 10.3816 10.5615 10.5835C10.5615 10.7854 10.6969 10.9491 10.8639 10.9491Z" fill="white"/>
<path d="M11.6387 12.1463C11.7118 12.1463 11.7711 12.0747 11.7711 11.9863C11.7711 11.8979 11.7118 11.8263 11.6387 11.8263C11.5656 11.8263 11.5063 11.8979 11.5063 11.9863C11.5063 12.0747 11.5656 12.1463 11.6387 12.1463Z" fill="white"/>
<path d="M5.72935 12.5883C6.35193 12.5883 6.85664 11.9225 6.85664 11.1013C6.85664 10.28 6.35193 9.61426 5.72935 9.61426C5.10676 9.61426 4.60205 10.28 4.60205 11.1013C4.60205 11.9225 5.10676 12.5883 5.72935 12.5883Z" fill="#EBEDEF" stroke="black" stroke-width="0.10266" stroke-linecap="round" stroke-linejoin="round"/>
<path d="M5.76514 12.3795C6.22034 12.3795 6.58936 11.8638 6.58936 11.2276C6.58936 10.5914 6.22034 10.0757 5.76514 10.0757C5.30993 10.0757 4.94092 10.5914 4.94092 11.2276C4.94092 11.8638 5.30993 12.3795 5.76514 12.3795Z" fill="url(#paint9_linear_3755_22400)"/>
<path d="M5.76514 12.3795C6.22034 12.3795 6.58936 11.8638 6.58936 11.2276C6.58936 10.5914 6.22034 10.0757 5.76514 10.0757C5.30993 10.0757 4.94092 10.5914 4.94092 11.2276C4.94092 11.8638 5.30993 12.3795 5.76514 12.3795Z" stroke="#0D257C" stroke-width="0.06844" stroke-miterlimit="10"/>
<path d="M5.72912 12.1161C6.04227 12.1161 6.29613 11.7613 6.29613 11.3237C6.29613 10.886 6.04227 10.5312 5.72912 10.5312C5.41597 10.5312 5.16211 10.886 5.16211 11.3237C5.16211 11.7613 5.41597 12.1161 5.72912 12.1161Z" fill="black"/>
<path d="M5.61964 11.0371C5.74828 11.0371 5.85257 10.911 5.85257 10.7555C5.85257 10.5999 5.74828 10.4739 5.61964 10.4739C5.491 10.4739 5.38672 10.5999 5.38672 10.7555C5.38672 10.911 5.491 11.0371 5.61964 11.0371Z" fill="white"/>
<path d="M6.02334 12.0096C6.07965 12.0096 6.12529 11.9544 6.12529 11.8863C6.12529 11.8182 6.07965 11.7631 6.02334 11.7631C5.96703 11.7631 5.92139 11.8182 5.92139 11.8863C5.92139 11.9544 5.96703 12.0096 6.02334 12.0096Z" fill="white"/>
<path d="M10.0787 7.82229C12.2861 6.77443 13.7824 8.38295 13.199 9.01999C12.731 9.53106 12.123 9.12791 11.4262 9.3786C10.5293 9.70129 10.2186 10.8828 9.16043 10.679C8.42157 10.5367 8.30548 8.66401 10.0787 7.82229V7.82229Z" fill="url(#paint10_radial_3755_22400)"/>
<path d="M13.2621 8.40344C13.25 8.50267 13.2101 8.59417 13.1394 8.67134C12.6714 9.1824 12.0634 8.77925 11.3666 9.02995C10.4697 9.35263 10.159 10.5342 9.10087 10.3304C8.89377 10.2905 8.73565 10.1146 8.6543 9.86367C8.67199 10.293 8.86699 10.6225 9.16039 10.679C10.2185 10.8828 10.5292 9.70122 11.4261 9.37854C12.1229 9.12784 12.7309 9.531 13.199 9.01993C13.3477 8.85754 13.361 8.632 13.2621 8.40344H13.2621Z" fill="#525F6D"/>
<path d="M12.6279 7.73486C13.2602 8.0731 13.5087 8.68138 13.1987 9.01999C12.7307 9.53105 12.1226 9.1279 11.4258 9.3786C10.529 9.70128 10.2183 10.8828 9.1601 10.679C8.78983 10.6077 8.60171 10.1061 8.72931 9.51744" stroke="black" stroke-width="0.10266" stroke-linecap="round" stroke-linejoin="round"/>
<path d="M9.10938 8.69625C9.21991 8.39017 9.53434 7.82227 10.6396 7.82227" stroke="black" stroke-width="0.10266" stroke-linecap="round" stroke-linejoin="round"/>
<path d="M6.51667 8.49717C5.15938 7.76555 4.3646 8.78132 4.76487 9.21868C5.086 9.56953 5.0766 9.45023 5.55469 9.62234C6.17007 9.84388 6.38325 10.655 7.1093 10.5151C7.61627 10.4174 7.70231 9.13627 6.51667 8.49718V8.49717Z" fill="url(#paint11_radial_3755_22400)"/>
<path d="M5.67048 9.49792C6.31004 9.63475 6.42421 10.4157 7.15026 10.2758C7.29235 10.2484 7.40085 10.1276 7.45667 9.95535C7.44452 10.2501 7.31073 10.4763 7.10942 10.5151C6.38337 10.655 6.17019 9.84382 5.55481 9.62229C5.37193 9.55646 5.125 9.54268 4.96191 9.54796C5.18585 9.45254 5.43922 9.44844 5.67047 9.49792H5.67048Z" fill="#525F6D"/>
<path d="M4.98975 9.56319C5.16563 9.55689 5.35471 9.55046 5.55441 9.62236C6.16979 9.84389 6.38297 10.655 7.10902 10.5151C7.36308 10.4662 7.97418 9.4834 6.46929 8.46472" stroke="black" stroke-width="0.10266" stroke-linecap="round" stroke-linejoin="round"/>
<path d="M10.8507 14.1872C10.7847 17.7783 8.95836 18.7095 7.97829 18.7815C6.98928 18.8542 6.77422 18.3381 6.85599 17.1321L6.81348 16.0948L9.81051 14.1329C10.2134 14.2334 10.8513 14.1544 10.8507 14.1872V14.1872Z" fill="#050000"/>
<path d="M10.532 16.3471C9.99178 15.8915 9.34638 15.7464 8.61169 16.4604C7.69673 16.356 7.17521 16.6871 6.84835 17.2615C6.83614 17.499 6.8373 17.7075 6.85579 17.8879L6.88777 18.0959C6.99752 18.6119 7.31222 18.8305 7.97827 18.7816C8.72189 18.7269 9.95258 18.1775 10.532 16.3471H10.532Z" fill="#DB7572"/>
<path d="M8.61169 16.3967C8.46071 16.4383 8.28608 16.9069 8.31158 17.0557" stroke="black" stroke-width="0.10266" stroke-linecap="round" stroke-linejoin="round"/>
<path d="M7.64683 18.7812C7.42806 18.7611 7.26236 18.6963 7.13957 18.5854C7.19964 18.4007 7.27839 18.2266 7.38595 18.0688C7.44344 17.9844 7.57269 18.0107 7.59195 18.1109C7.63278 18.3234 7.64859 18.5481 7.64683 18.7812V18.7812ZM7.1388 18.5847C7.23015 18.211 7.23696 17.8218 7.1663 17.4185C7.15313 17.3433 7.06985 17.303 7.00222 17.3385L6.84207 17.4223C6.82737 17.9893 6.90404 18.3721 7.13879 18.5847H7.1388ZM8.8866 17.5093C8.81667 17.4535 8.7115 17.4971 8.70321 17.5862C8.67267 17.914 8.67945 18.2492 8.71826 18.5908C8.95842 18.4859 9.20905 18.3325 9.45065 18.1178C9.33034 17.908 9.13344 17.7061 8.88659 17.5093H8.8866ZM7.8406 18.0921C7.74234 18.308 7.68185 18.5389 7.65113 18.7815C7.74937 18.7903 7.85799 18.7903 7.97825 18.7815C8.18989 18.7659 8.44104 18.7101 8.70534 18.5963C8.6396 18.3959 8.55517 18.2097 8.43365 18.0512C8.37404 17.9735 8.24964 18.0027 8.23213 18.0991C8.20449 18.2513 8.19431 18.4164 8.19837 18.5918C8.17969 18.4099 8.13175 18.2391 8.04185 18.0843C7.9957 18.0048 7.87866 18.0085 7.8406 18.0921V18.0921Z" fill="#DDDDDD"/>
<path d="M7.13901 18.5847C7.23036 18.211 7.23717 17.8218 7.16651 17.4185C7.15334 17.3433 7.07006 17.303 7.00243 17.3385L6.84229 17.4223M8.70552 18.5963C8.63978 18.3959 8.55535 18.2097 8.43383 18.0512C8.37422 17.9735 8.24982 18.0027 8.23231 18.0991C8.20468 18.2513 8.19449 18.4163 8.19855 18.5918C8.17988 18.4099 8.13193 18.2391 8.04203 18.0843C7.99589 18.0048 7.87885 18.0085 7.84078 18.0921C7.74252 18.308 7.68203 18.5389 7.65131 18.7815M7.13978 18.5854C7.19985 18.4007 7.2786 18.2266 7.38616 18.0688C7.44365 17.9844 7.5729 18.0107 7.59216 18.1109C7.63299 18.3234 7.6488 18.5481 7.64704 18.7812L7.13978 18.5854ZM9.45085 18.1178C9.33054 17.908 9.13364 17.7061 8.88679 17.5093C8.81687 17.4535 8.71169 17.4971 8.7034 17.5862C8.67287 17.914 8.67965 18.2492 8.71846 18.5908L9.45085 18.1178Z" stroke="black" stroke-width="0.10266" stroke-linecap="round" stroke-linejoin="round"/>
<path d="M10.8508 14.1781C10.8168 17.8511 8.96729 18.7089 7.97829 18.7816C6.98929 18.8543 6.77422 18.3381 6.85599 17.1321L6.81348 16.0949L10.8508 14.1781V14.1781Z" stroke="#050000" stroke-width="0.10266" stroke-miterlimit="10" stroke-linejoin="round"/>
<path d="M10.3337 13.4979C10.0592 12.36 8.56703 11.8142 6.80336 12.2398C5.0397 12.6654 3.95321 13.7102 4.13561 14.8664C4.45954 16.9197 5.76504 16.7157 6.28774 16.231C6.78831 16.4094 7.20758 16.5026 7.7976 16.3603C9.56127 15.9347 10.6083 14.6357 10.3337 13.4979L10.3337 13.4979Z" fill="url(#paint12_radial_3755_22400)"/>
<path d="M9.94912 14.1708C9.59942 14.9381 8.73413 15.626 7.5407 15.9139C6.95068 16.0563 6.5314 15.963 6.03084 15.7847C5.65641 16.1319 4.88032 16.3349 4.35107 15.6675C4.84633 16.8495 5.84622 16.6404 6.28769 16.2311C6.78826 16.4094 7.20754 16.5027 7.79756 16.3603C9.18271 16.0261 10.1258 15.1531 10.3338 14.2425C10.1775 14.232 9.99823 14.1827 9.94912 14.1708V14.1708Z" fill="#465363"/>
<path d="M8.59716 12.1464C8.06787 12.058 7.4541 12.0828 6.80337 12.2398C5.0397 12.6654 3.95321 13.7102 4.13561 14.8664C4.45954 16.9197 5.76504 16.7157 6.28774 16.231C6.78831 16.4094 7.20758 16.5026 7.7976 16.3603C9.14103 16.0361 10.0686 15.2052 10.3131 14.3247" stroke="black" stroke-width="0.10266" stroke-linecap="round" stroke-linejoin="round"/>
<path d="M4.42561 13.7128C3.99488 14.1573 4.54613 15.1326 5.55544 15.6187C6.80402 15.5592 7.84741 14.5049 7.68045 13.849C7.54995 13.3362 6.95885 13.1958 6.17053 13.1435C5.52154 13.1005 4.7553 13.3726 4.42561 13.7128V13.7128Z" fill="url(#paint13_radial_3755_22400)"/>
<path d="M5.72471 15.6187C6.46186 15.5812 7.07787 14.9165 6.9793 14.5029C6.90226 14.1796 5.12883 15.3122 5.72471 15.6187V15.6187Z" fill="#000100"/>
<path d="M5.45079 15.5986C5.25921 15.5532 4.98139 15.3131 4.86257 15.0533C4.67807 14.6499 4.64784 14.2524 4.73966 14.3789C4.89212 14.589 4.92223 14.7704 5.02837 15.0321C5.10077 15.2105 5.29251 15.3999 5.45079 15.5986V15.5986Z" fill="#000100"/>
<path d="M4.42561 13.7128C3.99488 14.1573 4.54613 15.1326 5.55544 15.6187C6.80402 15.5592 7.84741 14.5049 7.68045 13.849C7.54995 13.3362 6.95885 13.1958 6.17053 13.1435C5.52154 13.1005 4.7553 13.3726 4.42561 13.7128V13.7128Z" stroke="black" stroke-width="0.10266" stroke-linecap="round" stroke-linejoin="round"/>
<path d="M15.6981 16.6285C15.9609 16.1059 16.2263 15.324 15.8173 14.8451C15.1712 14.0884 14.7461 14.1904 14.7461 14.1904C15.0358 14.0884 15.403 14.1734 15.6898 14.2074C15.2301 13.8233 14.6869 13.6054 14.217 13.8673C14.3472 13.6142 14.6655 13.5711 15.0011 13.4337C13.0456 12.6762 11.4755 14.5678 9.94873 14.1706" stroke="black" stroke-width="0.10266" stroke-miterlimit="10" stroke-linejoin="round"/>
<defs>
<radialGradient id="paint0_radial_3755_22400" cx="0" cy="0" r="1" gradientUnits="userSpaceOnUse" gradientTransform="translate(14.6418 3.45631) scale(3.91758)">
<stop stop-color="#BCC7D0"/>
<stop offset="0.4345" stop-color="#B9C4CE"/>
<stop offset="0.63285" stop-color="#B2BDC7"/>
<stop offset="0.78319" stop-color="#A5B1BC"/>
<stop offset="0.90857" stop-color="#93A0AC"/>
<stop offset="1" stop-color="#818F9C"/>
</radialGradient>
<linearGradient id="paint1_linear_3755_22400" x1="15.9154" y1="9.70117" x2="15.9154" y2="2.43175" gradientUnits="userSpaceOnUse">
<stop stop-color="#8C332E"/>
<stop offset="0.06134" stop-color="#993F3A"/>
<stop offset="0.16751" stop-color="#AA4E4A"/>
<stop offset="0.29967" stop-color="#B65955"/>
<stop offset="0.48514" stop-color="#BD5F5C"/>
<stop offset="1" stop-color="#BF615E"/>
</linearGradient>
<radialGradient id="paint2_radial_3755_22400" cx="0" cy="0" r="1" gradientUnits="userSpaceOnUse" gradientTransform="translate(13.7071 5.39693) rotate(14.5827) scale(2.22662 3.8863)">
<stop offset="0.26344" stop-color="#C6CFD6"/>
<stop offset="0.50752" stop-color="#C3CCD3"/>
<stop offset="0.66253" stop-color="#BAC4CC"/>
<stop offset="0.79277" stop-color="#ACB6C0"/>
<stop offset="0.90855" stop-color="#97A3AE"/>
<stop offset="1" stop-color="#818F9C"/>
</radialGradient>
<radialGradient id="paint3_radial_3755_22400" cx="0" cy="0" r="1" gradientUnits="userSpaceOnUse" gradientTransform="translate(4.47832 4.25102) rotate(170.363) scale(3.07735)">
<stop stop-color="#BCC7D0"/>
<stop offset="0.4345" stop-color="#B9C4CE"/>
<stop offset="0.63285" stop-color="#B2BDC7"/>
<stop offset="0.78319" stop-color="#A5B1BC"/>
<stop offset="0.90857" stop-color="#93A0AC"/>
<stop offset="1" stop-color="#818F9C"/>
</radialGradient>
<linearGradient id="paint4_linear_3755_22400" x1="4.31321" y1="9.25479" x2="3.35733" y2="3.62507" gradientUnits="userSpaceOnUse">
<stop stop-color="#8C332E"/>
<stop offset="0.06134" stop-color="#993F3A"/>
<stop offset="0.16751" stop-color="#AA4E4A"/>
<stop offset="0.29967" stop-color="#B65955"/>
<stop offset="0.48514" stop-color="#BD5F5C"/>
<stop offset="1" stop-color="#BF615E"/>
</linearGradient>
<radialGradient id="paint5_radial_3755_22400" cx="0" cy="0" r="1" gradientUnits="userSpaceOnUse" gradientTransform="translate(5.4576 5.63118) rotate(155.781) scale(1.74907 3.05279)">
<stop offset="0.26344" stop-color="#C6CFD6"/>
<stop offset="0.50752" stop-color="#C3CCD3"/>
<stop offset="0.66253" stop-color="#BAC4CC"/>
<stop offset="0.79277" stop-color="#ACB6C0"/>
<stop offset="0.90855" stop-color="#97A3AE"/>
<stop offset="1" stop-color="#818F9C"/>
</radialGradient>
<radialGradient id="paint6_radial_3755_22400" cx="0" cy="0" r="1" gradientUnits="userSpaceOnUse" gradientTransform="translate(8.45781 9.20631) scale(7.6519)">
<stop stop-color="#95A0AA"/>
<stop offset="1" stop-color="#657280"/>
</radialGradient>
<radialGradient id="paint7_radial_3755_22400" cx="0" cy="0" r="1" gradientUnits="userSpaceOnUse" gradientTransform="translate(9.0986 9.15647) scale(6.53305)">
<stop stop-color="#95A0AA"/>
<stop offset="1" stop-color="#657280"/>
</radialGradient>
<linearGradient id="paint8_linear_3755_22400" x1="11.2503" y1="12.6041" x2="11.2524" y2="10.4639" gradientUnits="userSpaceOnUse">
<stop stop-color="#56D6FC"/>
<stop offset="0.10343" stop-color="#52CDF6"/>
<stop offset="0.26435" stop-color="#49B7E6"/>
<stop offset="0.46265" stop-color="#3A94CC"/>
<stop offset="0.69062" stop-color="#2662A8"/>
<stop offset="0.93284" stop-color="#0D257C"/>
</linearGradient>
<linearGradient id="paint9_linear_3755_22400" x1="5.76405" y1="12.3364" x2="5.76567" y2="10.688" gradientUnits="userSpaceOnUse">
<stop stop-color="#56D6FC"/>
<stop offset="0.10343" stop-color="#52CDF6"/>
<stop offset="0.26435" stop-color="#49B7E6"/>
<stop offset="0.46265" stop-color="#3A94CC"/>
<stop offset="0.69062" stop-color="#2662A8"/>
<stop offset="0.93284" stop-color="#0D257C"/>
</linearGradient>
<radialGradient id="paint10_radial_3755_22400" cx="0" cy="0" r="1" gradientUnits="userSpaceOnUse" gradientTransform="translate(8.47236 7.99066) scale(2.3529)">
<stop stop-color="#BCC7D0"/>
<stop offset="0.31536" stop-color="#AAB6C0"/>
<stop offset="0.89268" stop-color="#818F9C"/>
</radialGradient>
<radialGradient id="paint11_radial_3755_22400" cx="0" cy="0" r="1" gradientUnits="userSpaceOnUse" gradientTransform="translate(6.76626 8.30973) rotate(180) scale(1.49829 1.49912)">
<stop stop-color="#BCC7D0"/>
<stop offset="0.28168" stop-color="#AFBBC5"/>
<stop offset="0.78996" stop-color="#909DA9"/>
<stop offset="1" stop-color="#818F9C"/>
</radialGradient>
<radialGradient id="paint12_radial_3755_22400" cx="0" cy="0" r="1" gradientUnits="userSpaceOnUse" gradientTransform="translate(6.9914 11.723) scale(3.68057)">
<stop stop-color="#BCC7D0"/>
<stop offset="0.33039" stop-color="#9BA7B2"/>
<stop offset="0.76902" stop-color="#75828F"/>
<stop offset="1" stop-color="#677482"/>
</radialGradient>
<radialGradient id="paint13_radial_3755_22400" cx="0" cy="0" r="1" gradientUnits="userSpaceOnUse" gradientTransform="translate(5.83534 13.5623) scale(1.75018)">
<stop stop-color="#585958"/>
<stop offset="0.40915" stop-color="#555655"/>
<stop offset="0.59591" stop-color="#4E4F4E"/>
<stop offset="0.7375" stop-color="#414242"/>
<stop offset="0.85631" stop-color="#2F3030"/>
<stop offset="0.9598" stop-color="#18191A"/>
<stop offset="1" stop-color="#0D0E0F"/>
</radialGradient>
</defs>
</svg>
