<svg width="20" height="20" viewBox="0 0 20 20" fill="none" xmlns="http://www.w3.org/2000/svg">
<path fill-rule="evenodd" clip-rule="evenodd" d="M1.71631 12.3084C1.71631 9.43454 3.8668 7.06295 6.64636 6.71505C6.99406 3.93527 9.36575 1.78455 12.2398 1.78455C15.3531 1.78455 17.877 4.30844 17.877 7.42183C17.877 10.2957 15.7266 12.6673 12.947 13.0152C12.5993 15.795 10.2276 17.9457 7.35359 17.9457C4.24021 17.9457 1.71631 15.4218 1.71631 12.3084ZM8.17188 6.67112C8.52499 4.74535 10.2119 3.28597 12.2398 3.28597C14.2676 3.28597 15.9546 4.74536 16.3077 6.67114L8.17188 6.67112ZM12.9909 8.17257L12.9909 11.4896C14.673 11.181 15.9992 9.85473 16.3077 8.17257H12.9909ZM11.4895 8.17255L11.4894 11.5577H8.1039L8.10391 8.17254L11.4895 8.17255ZM11.4215 13.0591C11.0684 14.9849 9.38141 16.4443 7.35359 16.4443C5.32571 16.4443 3.63871 14.9848 3.28567 13.0589L11.4215 13.0591ZM6.60247 11.5575H3.28574C3.59425 9.87541 4.92042 8.54918 6.60248 8.24058L6.60247 11.5575Z" fill="#68DBF5"/>
</svg>
