<svg width="20" height="20" viewBox="0 0 20 20" fill="none" xmlns="http://www.w3.org/2000/svg">
<g clip-path="url(#clip0_4938_59766)">
<circle cx="10" cy="10" r="10" fill="#FDEE2D"/>
<path d="M14.2052 4.32L12.6802 5.485L12.3002 5.09C12.0902 4.875 11.8802 4.7 11.8402 4.7C11.7852 4.7 11.7552 4.775 11.7302 4.96C11.7152 5.105 11.6902 5.27 11.6752 5.325C11.6502 5.405 11.6952 5.445 11.9202 5.545C12.0752 5.61 12.2252 5.69 12.2552 5.73C12.3552 5.85 12.1602 5.875 11.9602 5.76C11.4402 5.475 10.6452 5.345 10.1652 5.47C9.8802 5.54 9.5002 5.73 9.5002 5.805C9.5002 5.82 9.6252 5.92 9.7752 6.02C10.1702 6.295 10.1952 6.335 9.9852 6.375C9.8302 6.405 9.7752 6.385 9.5402 6.21C9.1952 5.955 8.9102 5.64 8.8702 5.465C8.8202 5.23 8.8052 5.2 8.7202 5.165C8.6052 5.12 8.4352 5.325 8.2952 5.685C8.1352 6.095 8.1252 6.88 8.2802 7.185C8.3602 7.345 8.3802 7.455 8.3602 7.67C8.3502 7.825 8.3252 7.95 8.3052 7.95C8.2902 7.95 8.1552 7.905 8.0052 7.845C7.0902 7.5 6.0452 7.43 5.3252 7.665C4.8202 7.83 4.3752 8.095 4.0652 8.41L3.8252 8.655L4.0502 8.575C4.4102 8.45 4.7752 8.435 5.5452 8.52C6.4502 8.62 7.0702 8.62 7.7352 8.52C8.0252 8.48 8.2702 8.455 8.2802 8.465C8.2902 8.475 8.3252 8.825 8.3502 9.24C8.4352 10.5 8.6102 11.265 9.0052 12.075C9.2702 12.625 9.4402 12.81 9.9402 13.105C10.1802 13.245 10.3802 13.37 10.3902 13.375C10.4002 13.385 10.3702 13.51 10.3302 13.655C10.2402 13.95 10.2302 14.42 10.3002 14.74C10.3552 14.975 10.4552 15.185 10.8502 15.915C11.1102 16.4 11.1102 16.415 11.0802 16.715C11.0652 16.885 11.0052 17.195 10.9502 17.4C10.8102 17.94 10.8252 17.965 11.0802 17.575C11.3802 17.12 11.6652 16.52 11.8052 16.04L11.9152 15.66L11.7102 15.425C11.3952 15.07 11.2502 14.735 11.2502 14.38C11.2502 14.18 11.2752 14.055 11.3302 13.995C11.4052 13.915 11.4302 13.92 11.7902 14.085C12.0752 14.22 12.2702 14.36 12.5402 14.62L12.9052 14.975H13.5902C14.1452 14.97 14.3052 14.955 14.4402 14.885C14.6902 14.75 14.8002 14.615 14.8002 14.45C14.8002 14.365 14.8352 14.23 14.8752 14.15C14.9152 14.075 14.9802 13.7 15.0252 13.33C15.0652 12.955 15.1352 12.36 15.1802 12.01C15.2252 11.645 15.2452 11.255 15.2252 11.085C15.2102 10.93 15.2202 10.665 15.2552 10.5C15.3352 10.095 15.2852 9.9 15.0252 9.58L14.8002 9.305L14.8302 8.96C14.8702 8.56 14.7802 8.195 14.5602 7.85C14.4802 7.725 14.3752 7.515 14.3252 7.38C14.2752 7.245 14.1452 7.005 14.0402 6.84C13.9352 6.68 13.8502 6.535 13.8502 6.525C13.8502 6.515 14.3102 5.795 14.8752 4.925C15.4402 4.055 15.9002 3.3 15.9002 3.245C15.9002 3.19 15.8652 3.15 15.8152 3.15C15.7652 3.15 15.0402 3.675 14.2052 4.32ZM13.9252 5C12.6552 6.275 12.5002 6.39 12.4252 6.145C12.4052 6.085 12.4102 6.02 12.4352 6C12.5302 5.9 15.1252 3.755 15.1502 3.755C15.1652 3.75 14.6102 4.31 13.9252 5ZM11.7502 6.4C11.7502 6.7 12.0652 7.125 12.4252 7.31C12.6252 7.415 13.1152 7.455 13.2402 7.38C13.2752 7.36 13.3902 7.21 13.5002 7.045C13.6152 6.885 13.7202 6.75 13.7402 6.75C13.7852 6.75 14.0252 7.135 14.0952 7.31C14.1452 7.45 14.1452 7.45 13.9202 7.45C13.3952 7.45 13.1702 7.68 13.1802 8.21C13.1902 8.625 13.2602 8.745 13.8702 9.385C14.1052 9.635 14.3052 9.885 14.3102 9.95C14.3252 10.045 14.3002 10.065 14.1252 10.085C13.6702 10.13 12.9602 10.38 12.7652 10.555C12.6452 10.675 12.4602 10.665 12.3802 10.54C12.3402 10.47 12.3452 10.39 12.4152 10.215C12.5302 9.895 12.5352 9.89 12.4752 9.87C12.4452 9.86 12.3802 9.93 12.3252 10.03C12.1652 10.33 11.7302 10.68 11.1852 10.955C10.4302 11.325 10.1552 11.34 9.8052 11.02C9.5702 10.81 9.4702 10.88 9.6802 11.11C9.8702 11.31 10.0902 11.4 10.3952 11.4C10.6002 11.4 10.7402 11.45 11.1502 11.665C11.6552 11.925 11.6602 11.925 12.0652 11.91C12.5952 11.895 13.4002 11.82 14.2652 11.715C14.8702 11.64 14.9602 11.64 15.0002 11.7C15.0752 11.815 15.0352 11.865 14.7702 12.01C14.4552 12.18 13.7552 12.29 12.7102 12.335C12.1952 12.355 11.9552 12.385 11.9652 12.42C11.9902 12.495 12.2102 12.535 12.6252 12.545C13.1152 12.555 13.3302 12.625 13.5852 12.865C13.7452 13.02 13.8402 13.17 13.9252 13.415C14.0902 13.86 14.0902 14.115 13.9252 14.275C13.7702 14.435 13.4902 14.44 12.9002 14.3C12.1952 14.13 10.0102 13.015 9.5902 12.61C9.2502 12.285 8.7802 11.135 8.6552 10.32C8.5702 9.75 8.5002 8.415 8.5302 7.95C8.5502 7.67 8.5952 7.47 8.6552 7.37C8.9452 6.885 10.4352 6.32 11.4652 6.305C11.7202 6.3 11.7502 6.31 11.7502 6.4ZM14.4652 8.09C14.6602 8.5 14.7052 8.84 14.6052 9.185C14.5602 9.335 14.5752 9.365 14.8352 9.655L15.1102 9.965L15.0802 10.32C15.0602 10.515 15.0452 10.725 15.0452 10.785C15.0502 10.84 15.0152 10.905 14.9752 10.92C14.9252 10.935 14.9002 11.015 14.9002 11.15C14.9002 11.335 14.8902 11.35 14.7652 11.35C14.6552 11.35 14.5652 11.28 14.3602 11.045L14.1002 10.74L14.2652 10.555C14.4502 10.35 14.5302 10.04 14.4552 9.84C14.4302 9.775 14.3002 9.6 14.1702 9.455L13.9252 9.185L14.1252 9.215C14.5552 9.285 14.6952 9.085 14.3952 8.83C14.2102 8.675 13.9952 8.665 13.7752 8.8L13.6152 8.9L13.5502 8.675C13.4352 8.26 13.5402 7.985 13.9002 7.795C14.2152 7.63 14.2652 7.66 14.4652 8.09ZM12.3852 10.75C12.5302 10.88 12.5902 10.9 12.8502 10.9C13.0102 10.9 13.1552 10.92 13.1702 10.945C13.1852 10.97 13.1452 11.09 13.0752 11.21C12.9552 11.425 12.9402 11.435 12.5752 11.515C12.3652 11.565 12.0552 11.6 11.8852 11.6C11.6202 11.6 11.5302 11.575 11.3302 11.45C11.2002 11.365 11.1002 11.275 11.1102 11.25C11.1302 11.185 12.0602 10.605 12.1452 10.6C12.1802 10.6 12.2902 10.665 12.3852 10.75ZM14.2002 11.48C14.2002 11.57 14.1652 11.585 13.8352 11.62C13.4702 11.665 13.4302 11.595 13.6502 11.275L13.8102 11.04L14.0052 11.23C14.1152 11.335 14.2002 11.45 14.2002 11.48ZM14.8652 12.435C14.9352 12.515 14.9352 12.59 14.8552 13.255C14.7752 13.985 14.7102 14.17 14.5602 14.14C14.5002 14.13 14.4802 14.045 14.4752 13.775C14.4702 13.555 14.4252 13.29 14.3502 13.07C14.2852 12.875 14.2502 12.675 14.2652 12.635C14.2952 12.555 14.6252 12.355 14.7302 12.35C14.7602 12.35 14.8202 12.39 14.8652 12.435Z" fill="black"/>
<path d="M10.5999 7.42999C10.2949 7.50999 9.98988 7.70499 9.83488 7.90999C9.67988 8.11999 9.76988 8.13499 10.0049 7.93499C10.5949 7.42499 11.6049 7.52499 12.1649 8.14499C12.3849 8.38999 12.4049 8.57999 12.2349 8.77999C12.1199 8.90999 12.1149 8.90999 11.9599 8.82999C11.5749 8.62999 11.0999 8.68499 10.7749 8.96499L10.5799 9.13499L10.6999 9.20499C10.8599 9.29499 11.5949 9.29499 11.8999 9.20499C12.4999 9.02999 12.8399 8.24499 12.5099 7.79999C12.2249 7.41499 11.3149 7.23999 10.5999 7.42999Z" fill="black"/>
<path d="M7.38073 6.23C6.96073 6.33 6.43073 6.6 6.07073 6.895C5.62073 7.26 5.62573 7.285 6.13073 7.26C6.60573 7.235 7.21573 7.31 7.68573 7.455C7.86573 7.51 8.02073 7.55 8.03073 7.54C8.03573 7.53 7.98573 7.4 7.91073 7.25C7.79573 7.015 7.77573 6.915 7.78073 6.56C7.78073 6.295 7.76573 6.15 7.73073 6.155C7.70073 6.155 7.54073 6.19 7.38073 6.23Z" fill="black"/>
<path d="M4.25027 8.79C3.36527 9.025 2.65027 9.8 2.37027 10.85C2.31027 11.07 2.28027 11.36 2.28027 11.75C2.28027 12.245 2.30027 12.38 2.41527 12.715C2.55027 13.105 2.71527 13.405 2.93027 13.665L3.05027 13.81V13.54C3.05527 12.9 3.35027 12.085 3.74527 11.64C4.04027 11.31 4.41527 11.075 5.27527 10.7C5.69027 10.52 6.15027 10.3 6.30027 10.22C6.55027 10.085 8.27527 8.755 8.24027 8.725C8.23027 8.72 8.03527 8.745 7.80027 8.78C7.23527 8.865 6.32027 8.865 5.52527 8.775C4.72527 8.685 4.65527 8.685 4.25027 8.79Z" fill="black"/>
<path d="M7.20046 9.95501C6.91046 10.205 6.39546 10.49 5.62546 10.825C4.65546 11.25 4.35046 11.42 4.08046 11.675C3.30046 12.425 3.11046 13.73 3.63546 14.77C3.84546 15.185 4.16546 15.6 4.58046 16C4.94546 16.345 5.59046 16.825 5.63546 16.785C5.64546 16.775 5.61546 16.6 5.57046 16.395C5.53046 16.19 5.48046 15.765 5.46546 15.45C5.42046 14.43 5.63046 13.81 6.33046 12.95C6.90046 12.245 7.08546 11.935 7.25546 11.405C7.38046 11.025 7.41546 10.805 7.44046 10.36C7.45046 10.045 7.44546 9.80001 7.42046 9.80001C7.39546 9.80501 7.29546 9.87001 7.20046 9.95501Z" fill="black"/>
</g>
<defs>
<clipPath id="clip0_4938_59766">
<rect width="20" height="20" fill="white"/>
</clipPath>
</defs>
</svg>
