<svg width="20" height="20" viewBox="0 0 20 20" fill="none" xmlns="http://www.w3.org/2000/svg">
<circle cx="12.8726" cy="14.1558" r="4.67532" fill="white"/>
<path d="M7.84841 11.1501C8.03504 10.8892 8.20847 10.6194 8.41875 10.375C8.80121 9.93057 9.23431 9.54967 9.73025 9.23438C10.1751 8.95157 10.6443 8.72865 11.1463 8.57277C11.9281 8.33003 12.726 8.25785 13.5388 8.3507C14.1329 8.41857 14.7054 8.5704 15.2505 8.81629C15.5805 8.96511 15.8909 9.149 16.1952 9.34759C16.8083 9.74775 17.2994 10.2687 17.71 10.8638C18.1485 11.4996 18.4335 12.2067 18.5898 12.9652C18.6996 13.4979 18.7459 14.0355 18.6988 14.5766C18.6407 15.2438 18.4927 15.8872 18.2162 16.5055C17.9823 17.0284 17.6936 17.5086 17.3239 17.9423C16.9623 18.3666 16.5544 18.7379 16.0858 19.0439C15.7666 19.2523 15.434 19.4383 15.0828 19.5763C14.4952 19.8074 13.8859 19.9637 13.2483 19.991C12.7994 20.0103 12.353 20.0027 11.9102 19.9241C11.5299 19.8565 11.1586 19.7579 10.7952 19.6213C10.4426 19.4888 10.1006 19.3318 9.78558 19.1332C9.33133 18.847 8.92183 18.4997 8.55743 18.0995C8.15142 17.6536 7.82221 17.1592 7.57032 16.6131C7.21449 15.8417 7.03951 15.0284 7.0291 14.1798C7.02518 13.8606 7.06175 13.5439 7.10426 13.228C7.10731 13.2053 7.10421 13.1819 7.10397 13.1589C7.14115 13.1358 7.13786 13.0954 7.14456 13.0602C7.23911 12.5639 7.39858 12.0896 7.6146 11.6329C7.69114 11.4712 7.79675 11.3236 7.84841 11.1501ZM14.668 14.2847C14.8262 14.2006 14.9766 14.1523 15.0954 14.0461C15.5533 13.6366 15.6754 12.6729 14.9321 12.2086C14.7005 12.064 14.4535 11.9568 14.1872 11.8474C14.2313 11.4905 14.3738 11.1565 14.4202 10.7909C14.2005 10.7364 13.9947 10.6641 13.7805 10.6408C13.6929 10.9843 13.609 11.3137 13.5221 11.6546C13.358 11.6043 13.189 11.609 13.0346 11.5219C13.0903 11.1733 13.2227 10.8466 13.2589 10.4967C13.0333 10.4612 12.8422 10.3732 12.6231 10.3638C12.5369 10.708 12.4534 11.0412 12.3669 11.3866C11.9325 11.32 11.5337 11.1705 11.0956 11.0901C10.9993 11.306 10.9567 11.5338 10.918 11.7761C11.0608 11.8098 11.1848 11.8397 11.3092 11.8685C11.623 11.9411 11.709 12.1128 11.6345 12.3876C11.5815 12.583 11.5336 12.7798 11.4848 12.9764C11.3095 13.6829 11.1355 14.3898 10.9591 15.0961C10.9193 15.2552 10.8203 15.3071 10.659 15.2834C10.5001 15.2602 10.3502 15.1888 10.1751 15.194C10.0992 15.437 9.94808 15.6512 9.89458 15.9196C10.3118 16.0259 10.7154 16.1289 11.1374 16.2365C11.1057 16.605 10.9531 16.9422 10.908 17.3133C11.1196 17.3641 11.3187 17.4118 11.5264 17.4617C11.6632 17.1214 11.6948 16.7638 11.8223 16.4118C11.9761 16.4909 12.1466 16.4679 12.297 16.5675C12.2151 16.9068 12.1334 17.2448 12.0507 17.587C12.2682 17.665 12.4804 17.6967 12.6984 17.7511C12.7866 17.3972 12.8719 17.055 12.9544 16.724C13.0058 16.6976 13.0434 16.7025 13.0789 16.7101C13.4206 16.7833 13.7661 16.8004 14.112 16.762C14.4113 16.7287 14.677 16.6145 14.8901 16.3895C15.1271 16.1394 15.2462 15.8334 15.3035 15.5043C15.3503 15.2362 15.3383 14.9645 15.1811 14.7272C15.0578 14.5412 14.8885 14.3993 14.668 14.2847ZM12.1982 15.6818C12.6197 15.7866 13.0407 15.8986 13.4816 15.8181C13.7168 15.7751 13.894 15.655 13.9654 15.4182C14.0327 15.1948 13.9936 14.9919 13.8281 14.8154C13.656 14.6318 13.4346 14.5364 13.2064 14.4566C12.9337 14.3613 12.6573 14.2747 12.3594 14.2511C12.2453 14.7155 12.1345 15.1664 12.0212 15.6271C12.0934 15.6496 12.1451 15.6686 12.1982 15.6818ZM13.6869 13.7355C13.92 13.7024 14.1132 13.548 14.17 13.3383C14.2395 13.0819 14.1618 12.857 13.9545 12.704C13.7193 12.5304 13.4484 12.4421 13.1685 12.3808C13.0643 12.358 12.9617 12.2971 12.8356 12.3382C12.7353 12.7462 12.6346 13.1559 12.5306 13.579C12.929 13.6797 13.2958 13.7911 13.6869 13.7355Z" fill="#F39321"/>
<path fill-rule="evenodd" clip-rule="evenodd" d="M1.27099 13.5498C1.32129 16.0687 2.46612 18.1968 5.30167 19.3074C3.35831 18.5281 2.82943 15.5844 2.69956 13.8095C2.59338 12.3584 4.19457 9.72072 5.53933 7.5055C5.83932 7.01133 6.12655 6.53817 6.37922 6.1039C7.48744 4.19913 7.79328 1.24098 7.80766 0C7.62007 0.865801 7.12764 3.02775 6.85528 3.54978C6.53616 4.16145 5.18778 5.86771 4.08476 7.26349C3.39228 8.13976 2.79652 8.89366 2.61286 9.17749C2.14962 9.8934 1.23641 11.8182 1.27099 13.5498Z" fill="#4185FC"/>
<path d="M8.19708 20C7.14369 19.2496 5.08019 17.4026 5.21006 13.7229C5.21006 12.7706 5.68625 11.4286 6.07585 10.8225C6.9107 9.52381 8.37023 5.45455 7.80745 0C7.79306 1.24098 7.48723 4.19913 6.379 6.1039C6.12634 6.53817 5.8391 7.01133 5.53911 7.5055C4.19435 9.72072 2.59317 12.3584 2.69935 13.8095C2.82922 15.5844 3.3581 18.5281 5.30145 19.3074C6.12073 19.6282 7.08114 19.8641 8.19708 20Z" fill="#3051EB"/>
<path fill-rule="evenodd" clip-rule="evenodd" d="M9.32296 3.2467C9.10651 4.63199 8.56106 7.57571 8.11084 8.26835C8.3338 8.00605 8.75463 7.63527 9.32296 7.32828V3.2467Z" fill="#82A4FD"/>
<path d="M11.9202 6.79649C11.0832 5.61323 9.39202 3.2467 9.32275 3.2467V7.32828C10.005 6.95974 10.8999 6.68313 11.9202 6.79649Z" fill="#8DC1FD"/>
</svg>
