<svg width="20" height="20" viewBox="0 0 20 20" fill="none" xmlns="http://www.w3.org/2000/svg">
<circle cx="10" cy="10" r="10" fill="#883AD0"/>
<path d="M6.65871 5H9.4296C9.0964 5.525 8.89186 6.10475 8.9046 6.733C9.72913 6.7414 10.5558 6.7414 11.3803 6.733C11.3909 6.10895 11.2222 5.51233 10.8615 5H13.6514C13.4595 5.40054 13.1326 5.77161 13.1643 6.24174C13.1516 8.34364 13.1685 10.4477 13.1622 12.5496C13.4363 12.5496 13.7126 12.5496 13.9888 12.5517C14.1912 12.1533 14.3705 11.7467 14.5138 11.3247C15.3425 11.3457 16.1755 11.3016 17 11.4112C16.1839 12.1112 15.7579 13.1063 15.2265 14.0128C13.1178 14.017 11.009 14.0065 8.89816 14.0191C8.79904 14.7844 9.2735 15.3114 9.82391 15.7521H6.26202C6.57198 15.3451 7.19617 15.0838 7.13086 14.4871C7.15186 12.4548 7.13086 10.4201 7.13716 8.38585H8.94457V9.63815H11.3422V8.20245C9.67421 8.20245 8.00547 8.20245 6.33601 8.20245C5.92067 8.9277 5.50594 9.65222 5.09182 10.376C5.50515 11.1013 5.92048 11.8258 6.33783 12.5496H6.95383V14.0126H5.07082C4.38335 12.7984 3.6706 11.5988 3 10.376V10.3739C3.6727 9.15326 4.38755 7.95366 5.07082 6.7393C5.77306 6.7393 6.47524 6.7393 7.17748 6.733C7.18168 6.11105 7.01088 5.51653 6.65871 5V5ZM8.94464 11.1139V12.5496H11.3423V11.1139H8.94464Z" fill="white"/>
<path d="M13.346 6.73935H15.2225C15.7371 7.56157 16.0913 8.51035 16.8336 9.16835C16.8484 9.21686 16.8756 9.31591 16.8905 9.36435C16.0976 9.46767 15.2945 9.38752 14.495 9.42735C14.3937 8.98887 14.1934 8.58616 13.972 8.20039C13.8139 8.20039 13.5017 8.20249 13.3457 8.20249L13.346 6.73935Z" fill="white"/>
<path d="M11.4076 14.1965C11.9622 14.1986 12.519 14.1965 13.0736 14.1944C13.061 14.8985 13.5566 15.335 14.0437 15.7524H10.4566C10.9163 15.3184 11.454 14.907 11.4076 14.1965Z" fill="white"/>
</svg>
