<svg width="20" height="20" viewBox="0 0 20 20" fill="none" xmlns="http://www.w3.org/2000/svg">
<circle cx="10" cy="10" r="10" fill="#121C37"/>
<path fill-rule="evenodd" clip-rule="evenodd" d="M6.93359 8.62222H8.88915C8.98733 8.62222 9.06693 8.70182 9.06693 8.8C9.06693 8.89818 8.98733 8.97778 8.88915 8.97778H7.28915V9.91111H8.40026C8.49844 9.91111 8.57804 9.99071 8.57804 10.0889C8.57804 10.1871 8.49844 10.2667 8.40026 10.2667H7.28915V11.2H8.88915C8.98733 11.2 9.06693 11.2796 9.06693 11.3778C9.06693 11.476 8.98733 11.5556 8.88915 11.5556H6.93359V8.62222Z" fill="#46FCF2"/>
<path fill-rule="evenodd" clip-rule="evenodd" d="M13.0225 8.44444C13.1207 8.44444 13.2003 8.52404 13.2003 8.62222V11.5556C13.2003 11.6537 13.1207 11.7333 13.0225 11.7333C12.9243 11.7333 12.8447 11.6537 12.8447 11.5556V8.62222C12.8447 8.52404 12.9243 8.44444 13.0225 8.44444Z" fill="#46FCF2"/>
<path fill-rule="evenodd" clip-rule="evenodd" d="M9.99994 9.36733C10.07 9.20911 10.3174 8.90433 10.8345 8.93306C11.2691 8.95721 11.4613 9.08181 11.5594 9.19625C11.643 9.29379 11.6735 9.39301 11.7077 9.50424C11.7186 9.53973 11.7299 9.57645 11.7434 9.61473C11.7761 9.70732 11.8776 9.75588 11.9702 9.7232C12.0628 9.69052 12.1114 9.58897 12.0787 9.49638C12.0728 9.47974 12.0664 9.4584 12.059 9.43346C12.0245 9.31805 11.9671 9.12555 11.8293 8.96486C11.6497 8.75523 11.353 8.60576 10.8542 8.57805C10.1212 8.53733 9.75011 9.00652 9.65474 9.27354L9.64438 9.30254V10.927C9.63459 11.083 9.71149 11.2692 9.90223 11.4098C10.0944 11.5515 10.396 11.6444 10.8444 11.6444C11.7311 11.6444 12.0888 11.2635 12.0888 10.9333V10.1333H11.1999C11.1018 10.1333 11.0222 10.2129 11.0222 10.3111C11.0222 10.4093 11.1018 10.4889 11.1999 10.4889H11.7333V10.9333C11.7333 10.9588 11.6643 11.2889 10.8444 11.2889C10.4394 11.2889 10.2225 11.2041 10.1132 11.1236C10.0059 11.0445 9.99765 10.9681 9.99932 10.9481L9.99994 10.9407V9.36733Z" fill="#46FCF2"/>
<path fill-rule="evenodd" clip-rule="evenodd" d="M14.4902 9.36733C14.5602 9.20911 14.8076 8.90433 15.3248 8.93306C15.7593 8.95721 15.9515 9.08181 16.0496 9.19625C16.1332 9.29379 16.1637 9.39301 16.1979 9.50424C16.2088 9.53973 16.2201 9.57645 16.2336 9.61473C16.2663 9.70732 16.3679 9.75588 16.4605 9.7232C16.553 9.69052 16.6016 9.58897 16.5689 9.49638C16.563 9.47974 16.5567 9.4584 16.5492 9.43346C16.5148 9.31805 16.4573 9.12555 16.3196 8.96486C16.1399 8.75523 15.8432 8.60576 15.3445 8.57805C14.6114 8.53733 14.2403 9.00652 14.145 9.27354L14.1346 9.30254V10.927C14.1248 11.083 14.2017 11.2692 14.3925 11.4098C14.5847 11.5515 14.8863 11.6444 15.3346 11.6444C16.2213 11.6444 16.5791 11.2635 16.5791 10.9333V10.6222C16.5791 10.524 16.4995 10.4444 16.4013 10.4444C16.3031 10.4444 16.2235 10.524 16.2235 10.6222V10.9333C16.2235 10.9588 16.1546 11.2889 15.3346 11.2889C14.9296 11.2889 14.7127 11.2041 14.6034 11.1236C14.4961 11.0445 14.4879 10.9681 14.4896 10.9481L14.4902 10.9407V9.36733Z" fill="#46FCF2"/>
<path fill-rule="evenodd" clip-rule="evenodd" d="M3.59965 8.48889C3.69784 8.48889 3.77743 8.56848 3.77743 8.66667V9.93333H5.6441V8.66667C5.6441 8.56848 5.72369 8.48889 5.82188 8.48889C5.92006 8.48889 5.99965 8.56848 5.99965 8.66667V11.5556C5.99965 11.6537 5.92006 11.7333 5.82188 11.7333C5.72369 11.7333 5.6441 11.6537 5.6441 11.5556V10.2889H3.77743V11.5556C3.77743 11.6537 3.69784 11.7333 3.59965 11.7333C3.50147 11.7333 3.42188 11.6537 3.42188 11.5556V8.66667C3.42188 8.56848 3.50147 8.48889 3.59965 8.48889Z" fill="#46FCF2"/>
</svg>
