<svg width="20" height="18" viewBox="0 0 20 18" fill="none" xmlns="http://www.w3.org/2000/svg">
<path d="M14.6889 0C14.9112 0 15.1166 0.118577 15.2277 0.311065L19.9167 8.43254C20.0278 8.62503 20.0278 8.86218 19.9167 9.05467L15.2277 17.1761C15.1166 17.3686 14.9112 17.4872 14.6889 17.4872H12.7133L15.6063 12.4764C15.8841 11.9952 15.8841 11.4023 15.6063 10.9211L12.6235 5.75473C12.3457 5.27351 11.8322 4.97707 11.2765 4.97707H5.31097C4.75531 4.97707 4.24185 5.27351 3.96402 5.75473L1.07108 10.7655L0.0833494 9.05467C-0.0277832 8.86218 -0.0277831 8.62503 0.0833494 8.43254L4.77229 0.311064C4.88342 0.118577 5.0888 0 5.31106 0H14.6889Z" fill="url(#paint0_linear)"/>
<path d="M5.31097 17.4872C5.26343 17.4872 5.21666 17.4818 5.17143 17.4714C5.14608 17.4655 5.12122 17.4581 5.09697 17.4492C4.96914 17.3982 4.85961 17.3054 4.78858 17.1824L3.28259 14.5739C3.17145 14.3814 3.17146 14.1443 3.28259 13.9518L4.78858 11.3434C4.89971 11.1509 5.10509 11.0323 5.32736 11.0323H8.33933C8.5616 11.0323 8.76698 11.1509 8.87811 11.3434L10.3841 13.9518C10.4952 14.1443 10.4952 14.3814 10.3841 14.5739L8.87811 17.1824C8.78185 17.3491 8.61488 17.4604 8.42748 17.4872H5.31097Z" fill="url(#paint1_linear)"/>
<path d="M9.77969 17.4872L11.1923 15.0405C11.4701 14.5593 11.4701 13.9664 11.1923 13.4852L9.68628 10.8768C9.40845 10.3955 8.895 10.0991 8.33933 10.0991H5.32736C4.77169 10.0991 4.25824 10.3955 3.98041 10.8768L2.55787 13.3407L1.78495 12.0019C1.6783 11.8109 1.67978 11.5775 1.78941 11.3877L4.77219 6.22132C4.88332 6.02884 5.08871 5.91026 5.31097 5.91026H11.2765C11.4988 5.91026 11.7042 6.02884 11.8153 6.22132L14.7981 11.3877C14.9092 11.5801 14.9092 11.8173 14.7981 12.0098L11.8153 17.1761C11.7042 17.3686 11.4988 17.4872 11.2765 17.4872H9.77969Z" fill="url(#paint2_linear)"/>
<defs>
<linearGradient id="paint0_linear" x1="15.0481" y1="9.97662e-06" x2="4.95188" y2="17.4872" gradientUnits="userSpaceOnUse">
<stop stop-color="#E93EEA"/>
<stop offset="0.6875" stop-color="#F7C946"/>
</linearGradient>
<linearGradient id="paint1_linear" x1="15.0481" y1="9.97662e-06" x2="4.95188" y2="17.4872" gradientUnits="userSpaceOnUse">
<stop stop-color="#E93EEA"/>
<stop offset="0.6875" stop-color="#F7C946"/>
</linearGradient>
<linearGradient id="paint2_linear" x1="15.0481" y1="9.97662e-06" x2="4.95188" y2="17.4872" gradientUnits="userSpaceOnUse">
<stop stop-color="#E93EEA"/>
<stop offset="0.6875" stop-color="#F7C946"/>
</linearGradient>
</defs>
</svg>
