<svg width="20" height="20" viewBox="0 0 20 20" fill="none" xmlns="http://www.w3.org/2000/svg">
<g clip-path="url(#clip0_4908_59815)">
<path d="M0 10C0 4.47715 4.47715 0 10 0C15.5228 0 20 4.47715 20 10C20 15.5228 15.5228 20 10 20C4.47715 20 0 15.5228 0 10Z" fill="#CA3E4B"/>
<mask id="mask0_4908_59815" style="mask-type:alpha" maskUnits="userSpaceOnUse" x="0" y="0" width="20" height="20">
<path d="M0 10C0 4.47715 4.47715 0 10 0C15.5228 0 20 4.47715 20 10C20 15.5228 15.5228 20 10 20C4.47715 20 0 15.5228 0 10Z" fill="#CA3E4B"/>
</mask>
<g mask="url(#mask0_4908_59815)">
<path d="M9.14961 1.48999C9.10961 1.55999 9.12961 1.66999 9.18961 1.72999C9.31961 1.85999 9.33961 2.19999 9.20961 2.19999C9.15961 2.19999 9.08961 2.31999 9.05961 2.45999C9.01961 2.59999 8.90961 2.83999 8.80961 2.98999C8.58961 3.30999 8.28961 3.77999 8.13961 4.04999C7.28961 5.56999 6.38961 7.34999 5.94961 8.34999C5.87961 8.50999 5.71961 8.84999 5.60961 9.09999C5.49961 9.34999 5.25961 9.86999 5.07961 10.27C4.87961 10.72 4.72961 10.95 4.67961 10.87C4.63961 10.8 4.59961 10.9 4.59961 11.1C4.59961 11.29 4.50961 11.56 4.39961 11.7C4.28961 11.84 4.19961 12 4.19961 12.07C4.19961 12.13 4.12961 12.31 4.04961 12.47C3.81961 12.92 3.39961 13.88 3.39961 13.96C3.39961 14.09 2.87961 15.35 2.73961 15.55C2.65961 15.66 2.59961 15.83 2.59961 15.93C2.59961 16.08 2.64961 16.11 2.82961 16.07C2.94961 16.04 3.40961 15.96 3.84961 15.9C4.28961 15.83 5.04961 15.69 5.52961 15.59C6.01961 15.49 6.55961 15.4 6.72961 15.4C6.90961 15.4 7.65961 15.31 8.39961 15.2C9.13961 15.09 9.76961 15 9.79961 15C9.84961 15 10.3496 15.4 10.6096 15.65C10.6996 15.74 10.8996 15.82 11.0596 15.83C11.4296 15.86 11.4996 15.56 11.1796 15.31C11.0496 15.2 10.9796 15.09 11.0196 15.05C11.0596 15.01 12.2796 14.94 13.7396 14.89C15.2696 14.85 16.5496 14.76 16.7796 14.69L17.1896 14.57L18.3396 15.74C18.9696 16.38 19.5096 16.86 19.5496 16.81C19.5796 16.75 19.4996 16.58 19.3596 16.43C19.2196 16.28 18.7796 15.5 18.3696 14.7C17.6396 13.25 17.5396 13.08 17.1096 12.38C16.9096 12.05 16.8496 12.01 16.6196 12.08C16.4696 12.12 16.1496 12.15 15.8996 12.15H15.4396L15.7496 12.58C15.9096 12.82 16.0996 13.09 16.1496 13.19C16.2096 13.28 16.2696 13.37 16.2996 13.4C16.3296 13.43 16.4796 13.63 16.6396 13.84L16.9296 14.23L16.3396 14.17C16.0196 14.13 15.2596 14.04 14.6496 13.95C14.0496 13.87 13.0696 13.8 12.4796 13.8C11.6096 13.8 11.3996 13.77 11.3996 13.66C11.3996 13.58 11.4496 13.48 11.4996 13.45C11.5596 13.41 11.7396 13.09 11.9096 12.72C12.3696 11.69 12.4296 11.6 12.5396 11.6C12.5996 11.6 12.5396 11.53 12.4196 11.44C12.2996 11.36 12.1996 11.22 12.1996 11.14C12.1996 10.66 11.4596 11.56 10.8396 12.79C10.5396 13.4 10.2496 13.92 10.1896 13.96C10.0896 14.02 9.39961 13.38 9.39961 13.24C9.39961 13.21 9.30961 13.06 9.19961 12.9C9.08961 12.73 8.90961 12.46 8.79961 12.3C8.67961 12.13 8.60961 11.96 8.63961 11.92C8.65961 11.88 8.49961 11.85 8.28961 11.85C8.05961 11.85 7.84961 11.91 7.79961 11.99C7.75961 12.07 7.64961 12.1 7.56961 12.07C7.40961 12.01 7.80961 12.82 8.06961 13.08C8.13961 13.15 8.19961 13.25 8.19961 13.3C8.19961 13.35 8.31961 13.52 8.45961 13.69C8.59961 13.86 8.68961 14.04 8.65961 14.08C8.62961 14.13 8.31961 14.2 7.97961 14.23C7.12961 14.31 6.00961 14.65 4.59961 15.25C3.94961 15.53 3.21961 15.71 3.14961 15.61C3.12961 15.57 3.22961 15.4 3.37961 15.24C3.67961 14.91 4.19961 14.14 4.19961 14.04C4.19961 14 4.25961 13.89 4.33961 13.81C4.63961 13.47 5.58961 11.45 5.49961 11.36C5.32961 11.19 5.38961 10.51 5.59961 10.08C5.70961 9.84999 5.79961 9.62999 5.79961 9.57999C5.79961 9.37999 6.26961 8.79999 6.42961 8.79999C6.51961 8.79999 6.59961 8.83999 6.59961 8.87999C6.59961 8.92999 6.66961 8.96999 6.73961 8.96999C6.85961 8.96999 6.84961 8.89999 6.68961 8.67999C6.57961 8.52999 6.41961 8.39999 6.33961 8.39999C6.25961 8.39999 6.19961 8.32999 6.19961 8.24999C6.19961 8.02999 6.63961 7.95999 6.97961 8.13999C7.13961 8.21999 7.29961 8.26999 7.31961 8.23999C7.34961 8.21999 7.91961 8.18999 8.58961 8.18999C9.54961 8.17999 9.84961 8.20999 10.0496 8.33999C10.2296 8.45999 10.2796 8.46999 10.2396 8.35999C10.1896 8.22999 10.6096 8.17999 12.5996 8.06999L12.9496 8.04999L12.9796 8.61999C12.9996 9.02999 12.9596 9.26999 12.8396 9.44999C12.7196 9.63999 12.6896 9.80999 12.7396 10.15C12.7796 10.4 12.8596 10.6 12.9196 10.6C12.9696 10.6 12.9996 10.54 12.9696 10.46C12.9396 10.38 13.0096 9.96999 13.1196 9.53999C13.2296 9.09999 13.3496 8.54999 13.3896 8.30999C13.4196 8.06999 13.4996 7.84999 13.5696 7.82999C13.7496 7.76999 13.9996 8.37999 13.9996 8.87999C13.9996 9.30999 14.0096 9.31999 14.1796 9.16999C14.2796 9.06999 14.4096 8.99999 14.4596 8.99999C14.5096 8.99999 14.6296 8.92999 14.7296 8.84999C14.9096 8.71999 14.8996 8.68999 14.5796 8.25999C14.3996 8.00999 14.1196 7.61999 13.9496 7.38999C13.7896 7.15999 13.4996 6.76999 13.3296 6.52999C13.1496 6.28999 12.9996 6.06999 12.9996 6.02999C12.9996 5.99999 12.9296 5.89999 12.8496 5.80999C12.7596 5.71999 12.5496 5.41999 12.3796 5.14999C12.1996 4.86999 11.9996 4.60999 11.9296 4.56999C11.8596 4.52999 11.7996 4.44999 11.7996 4.39999C11.7996 4.26999 11.5096 3.91999 10.4996 2.84999C10.0296 2.35999 9.54961 1.81999 9.43961 1.65999C9.28961 1.45999 9.20961 1.40999 9.14961 1.48999ZM9.79961 2.83999C9.79961 2.91999 9.84961 3.01999 9.89961 3.04999C9.95961 3.08999 10.0896 3.27999 10.2096 3.47999C10.3196 3.67999 10.5196 4.02999 10.6496 4.24999C10.7796 4.46999 10.9596 4.81999 11.0496 5.01999C11.1496 5.22999 11.2596 5.39999 11.3096 5.39999C11.3596 5.39999 11.3996 5.46999 11.3996 5.54999C11.3996 5.63999 11.4796 5.82999 11.5796 5.97999C12.2596 6.96999 12.5796 7.48999 12.5396 7.52999C12.5096 7.54999 12.2596 7.52999 11.9696 7.47999C11.2996 7.35999 9.94961 7.41999 8.51961 7.64999C7.89961 7.73999 7.36961 7.79999 7.32961 7.76999C7.29961 7.73999 7.37961 7.48999 7.49961 7.22999C8.32961 5.43999 8.47961 5.07999 8.64961 4.56999C8.80961 4.07999 8.94961 3.65999 9.22961 2.87999C9.43961 2.31999 9.44961 2.30999 9.61961 2.49999C9.71961 2.60999 9.79961 2.75999 9.79961 2.83999Z" fill="#D46A74"/>
<path d="M3.02995 9.14999C3.02995 9.36999 3.04995 9.44999 3.06995 9.31999C3.08995 9.19999 3.08995 9.01999 3.06995 8.91999C3.03995 8.82999 3.01995 8.92999 3.02995 9.14999Z" fill="#D46A74"/>
<path d="M9.21973 9.28C9.06973 9.51 9.01973 9.66 9.08973 9.73C9.20973 9.85 9.52973 9.74 9.44973 9.6C9.41973 9.54 9.45973 9.43 9.53973 9.34C9.72973 9.15 9.73973 9.04 9.57973 8.97C9.50973 8.95 9.34973 9.09 9.21973 9.28Z" fill="#D46A74"/>
<path d="M6.65942 9.29C6.63942 9.32 6.58942 9.53 6.54942 9.75C6.50942 9.97 6.42942 10.19 6.36942 10.23C6.28942 10.29 6.31942 10.3 6.42942 10.26C6.52942 10.23 6.69942 10.2 6.80942 10.2C6.96942 10.2 6.99942 10.13 6.99942 9.72C6.99942 9.35 6.95942 9.23 6.84942 9.23C6.75942 9.23 6.67942 9.26 6.65942 9.29Z" fill="#D46A74"/>
<path d="M11.8297 9.74999C11.8297 9.96999 11.8497 10.05 11.8697 9.91999C11.8897 9.79999 11.8897 9.61999 11.8697 9.51999C11.8397 9.42999 11.8197 9.52999 11.8297 9.74999Z" fill="#D46A74"/>
<path d="M14.6292 9.67999C14.3992 9.82999 14.1992 9.97999 14.1992 10.02C14.1992 10.06 14.4592 10.26 14.7792 10.46C15.0892 10.66 15.4692 10.96 15.6092 11.11C15.7492 11.27 15.9192 11.4 15.9792 11.4C16.1892 11.4 16.1092 10.71 15.8492 10.22C15.3692 9.29999 15.2892 9.25999 14.6292 9.67999Z" fill="#D46A74"/>
<path d="M10.3493 9.73C10.2893 9.8 10.2593 10.02 10.2693 10.22C10.2893 10.62 10.2393 10.66 9.72933 10.61C9.60933 10.6 9.48933 10.64 9.44933 10.7C9.41933 10.75 9.43933 10.8 9.49933 10.8C9.55933 10.8 9.58933 10.83 9.56933 10.87C9.53933 10.92 9.71933 10.95 9.94933 10.95C10.1993 10.95 10.3393 10.92 10.2693 10.88C10.1793 10.82 10.1793 10.78 10.2593 10.72C10.3393 10.67 10.5393 9.58 10.4593 9.6C10.4493 9.61 10.3993 9.66 10.3493 9.73Z" fill="#D46A74"/>
<path d="M8.65919 10.08C8.67919 10.1 8.59919 10.26 8.48919 10.42C8.36919 10.58 8.29919 10.73 8.32919 10.76C8.35919 10.79 8.47919 10.67 8.59919 10.5C8.73919 10.31 8.78919 10.15 8.72919 10.1C8.66919 10.06 8.64919 10.05 8.65919 10.08Z" fill="#D46A74"/>
<path d="M11.0996 10.55C11.0996 10.79 11.1496 10.9 11.2496 10.9C11.3996 10.9 11.4496 10.64 11.3396 10.36C11.2296 10.08 11.0996 10.19 11.0996 10.55Z" fill="#D46A74"/>
<path d="M6.95942 11.02C6.99942 11.15 7.08942 11.34 7.16942 11.45C7.29942 11.64 7.30942 11.63 7.24942 11.35C7.14942 10.87 7.10942 10.8 6.99942 10.8C6.92942 10.8 6.90942 10.89 6.95942 11.02Z" fill="#D46A74"/>
</g>
<path d="M13.4701 8.07C13.4301 8.1 13.4001 8.34 13.4001 8.59C13.4001 8.84 13.3101 9.34 13.2001 9.68C13.0901 10.03 13.0001 10.45 13.0001 10.61C13.0001 11.02 12.8501 10.97 12.7201 10.51C12.5601 10.01 12.5701 9.71 12.7501 9.4C13.0601 8.86 12.8701 8.13 12.4401 8.22C12.2501 8.25 12.0301 8.9 11.9601 9.6C11.9201 10.11 11.7501 10.6 11.6201 10.6C11.5701 10.6 11.4801 10.71 11.4201 10.85C11.3601 10.99 11.2301 11.1 11.1401 11.1C10.9901 11.1 10.9801 10.98 11.0401 9.8C11.1001 8.71 11.0801 8.51 10.9701 8.56C10.7701 8.63 10.6001 9.26 10.5301 10.19L10.4701 10.98L9.83008 11.02C9.47008 11.04 9.17008 11.03 9.15008 11.01C9.13008 10.99 9.23008 10.87 9.38008 10.73C9.57008 10.56 9.73008 10.5 9.92008 10.52C10.1401 10.56 10.2001 10.52 10.2001 10.39C10.2001 10.3 10.1501 10.2 10.0901 10.18C10.0301 10.16 10.1101 9.94 10.2901 9.64C10.5501 9.22 10.5901 9.09 10.5101 8.88C10.3801 8.54 9.78008 8.27 9.03008 8.22C7.87008 8.14 7.81008 8.45 8.95008 8.7C9.61008 8.84 10.0001 8.99 10.0001 9.11C10.0001 9.16 9.86008 9.35 9.70008 9.54C9.42008 9.85 9.36008 9.88 8.97008 9.83L8.55008 9.78L8.80008 9.98L9.04008 10.18L8.55008 10.72C8.28008 11.01 8.02008 11.26 7.99008 11.28C7.95008 11.3 7.89008 10.85 7.85008 10.3C7.80008 9.56 7.72008 9.18 7.56008 8.87C7.31008 8.4 6.78008 8.07 6.42008 8.17L6.19008 8.23L6.41008 8.34C6.79008 8.53 7.00008 8.92 7.06008 9.55L7.12008 10.16L6.75008 10.28C6.54008 10.34 6.33008 10.37 6.29008 10.34C6.25008 10.32 6.30008 10.11 6.40008 9.87C6.63008 9.38 6.66008 8.9 6.47008 8.9C6.27008 8.9 5.95008 9.39 5.72008 10.08C5.49008 10.73 5.46008 10.97 5.56008 11.24C5.66008 11.51 5.89008 11.42 6.04008 11.05C6.16008 10.77 6.24008 10.7 6.47008 10.7C6.62008 10.7 6.85008 10.67 6.97008 10.64C7.15008 10.59 7.20008 10.64 7.29008 10.97C7.35008 11.18 7.40008 11.47 7.40008 11.62C7.40008 11.95 7.59008 12.09 7.75008 11.87C7.83008 11.75 7.97008 11.73 8.27008 11.77C8.52008 11.8 9.05008 11.74 9.65008 11.6C10.4101 11.43 10.6801 11.4 10.8201 11.49C10.9201 11.55 11.0701 11.6 11.1501 11.6C11.3501 11.6 11.8001 11.31 11.8001 11.18C11.8001 11.13 11.8701 11.01 11.9601 10.93C12.0901 10.79 12.1301 10.79 12.2101 10.91C12.2601 10.99 12.3001 11.11 12.3001 11.18C12.3001 11.25 12.4601 11.38 12.6501 11.46C12.8401 11.54 13.0001 11.67 13.0001 11.76C13.0001 11.85 13.0701 11.9 13.1701 11.88C13.2901 11.86 13.3901 11.64 13.5101 11.17C13.6001 10.79 13.7101 10.46 13.7401 10.43C13.7701 10.39 13.9201 10.5 14.0701 10.66C14.3201 10.93 14.4501 11.02 15.1301 11.37C15.3001 11.46 15.4001 11.6 15.4001 11.74C15.4001 12.03 15.7601 12.12 16.4001 12C16.6501 11.95 17.0701 11.91 17.3301 11.9C17.7701 11.9 17.8101 11.88 17.7801 11.67C17.7501 11.48 17.6801 11.45 17.2801 11.42C16.9901 11.4 16.8001 11.34 16.8001 11.27C16.8101 11 17.0801 10.02 17.2301 9.74C17.4701 9.27 17.5501 8.49 17.3701 8.25C17.2501 8.09 17.1001 8.06 16.5101 8.05C15.6601 8.05 15.6001 8.24 16.4301 8.28C16.9801 8.31 17.0001 8.32 17.0001 8.58C17.0001 8.74 16.9501 8.91 16.8901 8.97C16.6601 9.2 16.2801 10.27 16.2201 10.85C16.1301 11.62 15.9301 11.69 15.4401 11.11C15.2501 10.89 14.8501 10.59 14.5401 10.44C13.9601 10.15 13.9201 10.05 14.3201 9.8C14.8501 9.48 15.3901 9.1 15.4301 9.02C15.4601 8.98 15.4501 8.88 15.4001 8.8C15.3301 8.69 15.2201 8.71 14.7601 8.93C14.4601 9.08 14.1801 9.25 14.1501 9.3C14.0201 9.5 13.9001 9.39 13.9001 9.07C13.9001 8.25 13.7101 7.82 13.4701 8.07Z" fill="#EFE9E7"/>
<path d="M2.62043 9.05001C2.60043 9.41001 2.50043 9.95001 2.39043 10.27C2.20043 10.84 2.13043 11.6 2.28043 11.6C2.33043 11.6 2.47043 11.37 2.59043 11.1C2.71043 10.82 2.85043 10.6 2.90043 10.6C2.94043 10.6 3.00043 10.51 3.03043 10.4C3.06043 10.29 3.16043 10.2 3.25043 10.2C3.40043 10.2 3.42043 10.27 3.36043 10.66C3.23043 11.61 3.58043 11.92 3.98043 11.21C4.10043 11 4.20043 10.78 4.20043 10.74C4.19043 10.59 3.80043 11.11 3.80043 11.26C3.80043 11.34 3.76043 11.4 3.70043 11.4C3.64043 11.4 3.60043 11.14 3.60043 10.81C3.60043 10.14 3.42043 9.88001 3.10043 10.08C2.93043 10.19 2.92043 10.15 2.97043 9.45001C3.01043 8.92001 2.99043 8.66001 2.90043 8.55001C2.69043 8.30001 2.65043 8.37001 2.62043 9.05001Z" fill="#EFE9E7"/>
<path d="M4.20088 9.25C4.34088 9.33 4.52088 9.39 4.60088 9.39C4.69088 9.39 4.64088 9.33 4.50088 9.25C4.36088 9.17 4.18088 9.11 4.10088 9.11C4.01088 9.11 4.06088 9.17 4.20088 9.25Z" fill="#EFE9E7"/>
<path d="M4.36063 10.45C4.29063 11.21 4.33063 11.45 4.51063 11.35C4.62063 11.27 4.63063 9.7 4.51063 9.7C4.47063 9.7 4.40063 10.04 4.36063 10.45Z" fill="#EFE9E7"/>
</g>
<defs>
<clipPath id="clip0_4908_59815">
<rect width="20" height="20" fill="white"/>
</clipPath>
</defs>
</svg>
