<svg width="20" height="20" viewBox="0 0 20 20" fill="none" xmlns="http://www.w3.org/2000/svg">
<rect width="20" height="20" fill="#6E2EF4"/>
<path d="M9.82176 13.2461L13.2461 9.82176C13.4733 9.59502 13.7812 9.46768 14.1023 9.46768C14.4233 9.46768 14.7312 9.59502 14.9584 9.82176C15.1852 10.049 15.3125 10.3569 15.3125 10.678C15.3125 10.999 15.1852 11.3069 14.9584 11.5341L11.5341 14.9584C11.3069 15.1852 10.999 15.3125 10.678 15.3125C10.3569 15.3125 10.049 15.1852 9.82176 14.9584C9.59502 14.7312 9.46768 14.4233 9.46768 14.1023C9.46768 13.7812 9.59502 13.4733 9.82176 13.2461ZM5.04157 10.1782C5.26881 10.4048 5.57662 10.5321 5.89753 10.5321C6.21844 10.5321 6.52626 10.4048 6.7535 10.1782L10.1782 6.7535C10.4048 6.52626 10.5321 6.21844 10.5321 5.89753C10.5321 5.57662 10.4048 5.26881 10.1782 5.04157C9.95098 4.81483 9.64307 4.6875 9.32205 4.6875C9.00102 4.6875 8.69311 4.81483 8.46586 5.04157L5.04157 8.46586C4.81483 8.69311 4.6875 9.00102 4.6875 9.32205C4.6875 9.64307 4.81483 9.95098 5.04157 10.1782ZM8.71506 11.2836C8.94229 11.5103 9.25023 11.6377 9.57122 11.6377C9.89224 11.6377 10.2002 11.5103 10.4274 11.2836L11.2836 10.4274C11.5103 10.2002 11.6377 9.89224 11.6377 9.57122C11.6377 9.25023 11.5103 8.94229 11.2836 8.71506C11.0563 8.48832 10.7484 8.36098 10.4274 8.36098C10.1064 8.36098 9.79848 8.48832 9.57122 8.71506L8.71506 9.57122C8.48832 9.79848 8.36098 10.1064 8.36098 10.4274C8.36098 10.7484 8.48832 11.0563 8.71506 11.2836Z" fill="white"/>
</svg>
