<svg width="20" height="20" viewBox="0 0 20 20" fill="none" xmlns="http://www.w3.org/2000/svg">
<path d="M14.2943 10.7488C14.3089 10.7501 14.3229 10.7548 14.3353 10.7627C14.3476 10.7705 14.3579 10.7812 14.3652 10.7939C14.3725 10.8066 14.3767 10.8208 14.3773 10.8354C14.3779 10.8501 14.375 10.8646 14.3688 10.8779L10.1198 18.2262C10.1119 18.2389 10.1009 18.2494 10.0879 18.2569C10.0749 18.2643 10.0603 18.2684 10.0453 18.2689H7.44772C7.43262 18.2689 7.41778 18.2649 7.40472 18.2574C7.39165 18.2498 7.38083 18.2389 7.37335 18.2258C7.36586 18.2127 7.36199 18.1978 7.36212 18.1827C7.36226 18.1676 7.36639 18.1528 7.3741 18.1398L11.6231 10.7915C11.6306 10.7786 11.6413 10.7678 11.6542 10.7603C11.6671 10.7529 11.6818 10.7489 11.6967 10.7488H14.2943ZM11.7685 8.64294C11.7535 8.64252 11.7389 8.6384 11.7259 8.63094C11.7129 8.62349 11.7019 8.61294 11.694 8.60022L7.3741 1.12924C7.36639 1.11626 7.36226 1.10147 7.36212 1.08637C7.36199 1.07127 7.36586 1.0564 7.37335 1.04329C7.38083 1.03017 7.39165 1.01927 7.40472 1.0117C7.41778 1.00413 7.43262 1.00015 7.44772 1.00018H10.0453C10.0603 1.00061 10.0749 1.00473 10.0879 1.01218C10.1009 1.01963 10.1119 1.03019 10.1198 1.0429L14.4397 8.51388C14.4474 8.52686 14.4516 8.54166 14.4517 8.55676C14.4518 8.57186 14.448 8.58672 14.4405 8.59984C14.433 8.61295 14.4222 8.62385 14.4091 8.63142C14.396 8.639 14.3812 8.64297 14.3661 8.64294H11.7685Z" fill="#E31337"/>
<path d="M12.282 1.12925C12.274 1.11587 12.2699 1.10055 12.2699 1.08496C12.27 1.06937 12.2744 1.0541 12.2825 1.0408C12.2907 1.02751 12.3023 1.01669 12.3162 1.00954C12.33 1.00238 12.3455 0.999147 12.3611 1.00019H14.9623C14.9773 1.00016 14.992 1.0041 15.0049 1.01161C15.0178 1.01911 15.0285 1.02991 15.0359 1.04291L19.9884 9.59182C19.996 9.60478 20 9.61952 20 9.63454C20 9.64955 19.996 9.6643 19.9884 9.67725L15.0359 18.2262C15.0285 18.2392 15.0178 18.25 15.0049 18.2575C14.992 18.265 14.9773 18.2689 14.9623 18.2689H12.3611C12.3459 18.2691 12.331 18.2652 12.3178 18.2577C12.3046 18.2502 12.2936 18.2393 12.286 18.2262C12.2785 18.213 12.2745 18.1981 12.2746 18.1829C12.2747 18.1677 12.2788 18.1529 12.2866 18.1398L17.2091 9.63454L12.282 1.12925ZM10.168 9.59091C10.176 9.60473 10.1802 9.6204 10.1802 9.63635C10.1802 9.65231 10.176 9.66798 10.168 9.6818L5.19278 18.2262C5.18444 18.2383 5.17325 18.2483 5.16018 18.2552C5.14712 18.2621 5.13257 18.2657 5.1178 18.2657C5.10303 18.2657 5.08848 18.2621 5.07542 18.2552C5.06235 18.2483 5.05116 18.2383 5.04282 18.2262L0.0121767 9.67816C0.00419959 9.66435 0 9.64867 0 9.63272C0 9.61676 0.00419959 9.60109 0.0121767 9.58727L4.98738 1.04291C4.99572 1.03073 5.00691 1.02076 5.01998 1.01387C5.03304 1.00698 5.04759 1.00339 5.06236 1.00339C5.07713 1.00339 5.09167 1.00698 5.10474 1.01387C5.1178 1.02076 5.12899 1.03073 5.13734 1.04291L10.168 9.59091Z" fill="#E31337"/>
</svg>
