<svg width="21" height="20" viewBox="0 0 21 20" fill="none" xmlns="http://www.w3.org/2000/svg">
<g clip-path="url(#clip0)">
<path d="M10.5 20C16.0228 20 20.5 15.5228 20.5 10C20.5 4.47715 16.0228 0 10.5 0C4.97715 0 0.5 4.47715 0.5 10C0.5 15.5228 4.97715 20 10.5 20Z" fill="#D80027"/>
<path d="M11.532 7.56517C11.3048 8.51044 10.901 8.33017 10.7028 9.15454C9.53553 8.87388 8.81663 7.70005 9.09729 6.53267C9.37783 5.36536 10.5518 4.64646 11.7191 4.92712C11.3227 6.57583 11.7354 6.71974 11.532 7.56517Z" fill="#F0F0F0"/>
<path d="M8.50313 8.26564C9.33192 8.77384 9.03567 9.10224 9.75841 9.54548C9.13075 10.569 7.79227 10.8899 6.76876 10.2622C5.74528 9.63462 5.4243 8.29606 6.05196 7.27259C7.49751 8.15899 7.76176 7.81107 8.50313 8.26564Z" fill="#F0F0F0"/>
<path d="M8.23326 11.363C8.97276 10.7318 9.19342 11.115 9.8383 10.5646C10.6178 11.4778 10.5094 12.85 9.59623 13.6295C8.68303 14.409 7.31084 14.3004 6.53147 13.3873C7.82108 12.2864 7.57182 11.9275 8.23326 11.363Z" fill="#F0F0F0"/>
<path d="M11.0955 12.5768C10.7236 11.6785 11.1563 11.5869 10.8321 10.8036C11.9414 10.3445 13.213 10.8716 13.6721 11.9809C14.1312 13.0903 13.604 14.3618 12.4947 14.8209C11.8464 13.2542 11.4281 13.3803 11.0955 12.5768Z" fill="#F0F0F0"/>
<path d="M13.1345 10.2295C12.1652 10.3056 12.2117 9.86572 11.3666 9.93205C11.2728 8.73522 12.167 7.68869 13.364 7.59475C14.5608 7.50104 15.6073 8.39525 15.7012 9.59221C14.0106 9.72475 14.0013 10.1616 13.1345 10.2295Z" fill="#F0F0F0"/>
</g>
<defs>
<clipPath id="clip0">
<rect width="20" height="20" fill="white" transform="translate(0.5)"/>
</clipPath>
</defs>
</svg>
