<svg width="20" height="20" viewBox="0 0 20 20" fill="none" xmlns="http://www.w3.org/2000/svg">
<path d="M17.2074 3.15063L10.0001 0.227783L2.79287 3.15063C2.6953 3.1897 2.61146 3.25675 2.55191 3.34336C2.49236 3.42996 2.45975 3.53224 2.45819 3.63733C2.436 5.15946 2.36063 11.1509 2.52339 12.6702C2.55965 13.0347 2.63154 13.3948 2.73803 13.7453C3.24188 15.4066 4.77618 17.5194 9.66873 19.7032C9.77328 19.7487 9.88609 19.7722 10.0001 19.7722C10.1142 19.7722 10.227 19.7487 10.3315 19.7032C15.2241 17.5194 16.7584 15.4066 17.2622 13.7453C17.3687 13.3948 17.4406 13.0347 17.4769 12.6702C17.6396 11.1509 17.5642 5.15946 17.5421 3.63733C17.5405 3.53224 17.5079 3.42996 17.4483 3.34336C17.3888 3.25675 17.3049 3.1897 17.2074 3.15063Z" fill="url(#paint0_linear_2480_3479)" stroke="url(#paint1_linear_2480_3479)" stroke-width="0.31171" stroke-linecap="round" stroke-linejoin="round"/>
<path d="M13.5256 7.10954C13.5256 7.07161 13.5406 7.03524 13.5674 7.00842C13.5943 6.98161 13.6306 6.96654 13.6686 6.96654H14.8956C14.9117 6.96654 14.9274 6.96117 14.9402 6.95127C14.953 6.94136 14.9621 6.92749 14.9661 6.91183C14.9702 6.89617 14.9689 6.87962 14.9625 6.86477C14.9561 6.84993 14.9449 6.83764 14.9307 6.82984L11.9917 5.20998C11.9807 5.20388 11.9682 5.20077 11.9555 5.20097C11.9428 5.20117 11.9304 5.20466 11.9195 5.2111C11.9086 5.21754 11.8996 5.22671 11.8933 5.23771C11.8871 5.24871 11.8838 5.26115 11.8837 5.27381V8.55398H8.32631V5.2738C8.32631 5.26113 8.323 5.24868 8.31672 5.23768C8.31044 5.22667 8.3014 5.2175 8.29049 5.21105C8.27958 5.20461 8.26718 5.20112 8.25451 5.20094C8.24184 5.20075 8.22935 5.20387 8.21825 5.20998L5.03125 6.96656H6.54146C6.57939 6.96656 6.61576 6.98163 6.64258 7.00844C6.66939 7.03526 6.68446 7.07164 6.68446 7.10956V11.8577C6.68446 11.8956 6.66939 11.932 6.64258 11.9588C6.61576 11.9856 6.57939 12.0007 6.54146 12.0007H5.31446C5.29829 12.0007 5.28259 12.0061 5.26981 12.016C5.25704 12.0259 5.24792 12.0398 5.24389 12.0554C5.23986 12.0711 5.24115 12.0876 5.24756 12.1025C5.25397 12.1173 5.26512 12.1296 5.27928 12.1374L8.21828 13.7573C8.22938 13.7634 8.24188 13.7665 8.25455 13.7663C8.26721 13.7661 8.27962 13.7626 8.29053 13.7562C8.30143 13.7498 8.31048 13.7406 8.31676 13.7296C8.32304 13.7186 8.32634 13.7061 8.32634 13.6934V10.1123H11.8837V13.6934C11.8837 13.7061 11.887 13.7185 11.8933 13.7295C11.8996 13.7405 11.9086 13.7497 11.9195 13.7561C11.9304 13.7626 11.9428 13.766 11.9555 13.7662C11.9681 13.7664 11.9806 13.7633 11.9917 13.7572L14.9307 12.1374C14.9449 12.1296 14.956 12.1173 14.9624 12.1024C14.9689 12.0876 14.9701 12.071 14.9661 12.0554C14.9621 12.0397 14.953 12.0258 14.9402 12.0159C14.9274 12.006 14.9117 12.0006 14.8955 12.0007H13.6685C13.6498 12.0007 13.6312 11.997 13.6138 11.9898C13.5965 11.9826 13.5807 11.972 13.5674 11.9588C13.5541 11.9455 13.5436 11.9297 13.5364 11.9124C13.5292 11.895 13.5255 11.8764 13.5255 11.8577L13.5256 7.10954Z" fill="url(#paint2_linear_2480_3479)"/>
<defs>
<linearGradient id="paint0_linear_2480_3479" x1="5.45998" y1="13.1367" x2="16.6873" y2="2.95359" gradientUnits="userSpaceOnUse">
<stop stop-color="#AD1E13"/>
<stop offset="0.99908" stop-color="#C21722"/>
</linearGradient>
<linearGradient id="paint1_linear_2480_3479" x1="2.26553" y1="9.99999" x2="17.7347" y2="9.99999" gradientUnits="userSpaceOnUse">
<stop stop-color="#E3A338"/>
<stop offset="0.50698" stop-color="#FFD840"/>
<stop offset="1" stop-color="#F8CE57"/>
</linearGradient>
<linearGradient id="paint2_linear_2480_3479" x1="7.40969" y1="12.221" x2="12.2193" y2="7.23334" gradientUnits="userSpaceOnUse">
<stop stop-color="#E3A338"/>
<stop offset="1" stop-color="#F5C962"/>
</linearGradient>
</defs>
</svg>
