<svg width="20" height="20" viewBox="0 0 20 20" fill="none" xmlns="http://www.w3.org/2000/svg">
<ellipse cx="10.0015" cy="10.0103" rx="9.32039" ry="9.33965" fill="#242424"/>
<path fill-rule="evenodd" clip-rule="evenodd" d="M9.30359 0.0168615C8.0491 0.113235 6.81137 0.449598 5.60002 1.0233C5.03286 1.29191 4.37153 1.70373 3.78494 2.15356C3.34688 2.48949 2.38337 3.47059 2.04971 3.92042C0.794403 5.61297 0.206946 7.12428 0.022909 9.13476C-0.0233659 9.64033 0.00375022 10.7698 0.0747433 11.2938C0.53008 14.6542 2.55838 17.4736 5.63283 19.0196C6.37489 19.3927 7.16108 19.6447 8.10448 19.8117C8.88832 19.9505 9.17008 19.9801 9.86227 19.9965C11.1244 20.0263 12.1074 19.8697 13.3642 19.4386C14.8827 18.9178 15.8072 18.3159 17.0715 17.0248C17.5786 16.507 17.9861 16.0309 18.2639 15.6316C18.7432 14.9428 19.1478 14.1677 19.4103 13.4355C19.8273 12.2722 20.0005 11.2755 20 10.0416C19.9994 8.56075 19.762 7.37762 19.1991 6.05052C18.5767 4.58302 17.501 3.17557 16.2207 2.15348C14.7775 1.00137 13.0913 0.305435 11.1366 0.0551758C10.7299 0.00309776 9.74956 -0.0173839 9.30359 0.0168615ZM10.9343 0.710508C11.9151 0.832415 12.6084 1.00394 13.4378 1.32982C14.9745 1.93365 16.4063 3.01445 17.4077 4.32637C18.2863 5.47752 18.8833 6.78464 19.1539 8.1494C19.2964 8.86866 19.3593 9.76461 19.3182 10.4901C19.2665 11.4036 19.1416 12.0728 18.87 12.8914C18.4703 14.0965 17.9845 14.9573 17.1129 16.0046C15.9814 17.3643 14.7993 18.2 13.1736 18.7897C12.5021 19.0333 11.817 19.194 11.0614 19.2853C10.4844 19.355 9.49989 19.3486 8.92873 19.2716C7.69703 19.1054 6.79774 18.8416 5.85987 18.3713C3.88556 17.3814 2.3142 15.7227 1.4023 13.666C0.640943 11.9489 0.442545 10.0099 0.830186 8.07471C1.07104 6.87224 1.79899 5.36266 2.69677 4.20375C2.98688 3.82929 3.70337 3.10506 4.11026 2.77503C4.73576 2.26766 5.48779 1.81319 6.23465 1.49124C7.24038 1.05769 8.11385 0.818705 9.07838 0.713266C9.54353 0.662416 10.5357 0.660942 10.9343 0.710508ZM9.24402 3.41518C8.69987 3.49804 8.19583 3.65042 7.64031 3.90005C7.46494 3.97884 7.32293 4.0556 7.3247 4.07062C7.3268 4.0884 7.64854 4.09501 8.24764 4.08955C8.93072 4.08329 9.2795 4.09211 9.60337 4.12377C10.9853 4.25878 12.2374 4.60945 12.8167 5.02362C12.9103 5.09061 13.0826 5.24728 13.1995 5.37178C13.651 5.85269 13.8907 6.29141 14.0582 6.943C14.0807 7.03053 14.12 7.0831 14.2268 7.1683C14.3034 7.22942 14.3829 7.27942 14.4034 7.27942C14.434 7.27942 14.4407 7.15707 14.4407 6.60104C14.4407 6.22792 14.4543 5.82186 14.4708 5.69864C14.4999 5.48167 14.4988 5.47146 14.434 5.37342C14.2335 5.0704 13.805 4.67363 13.3506 4.37031C12.7084 3.94167 11.8708 3.60356 11.0757 3.45197C10.6848 3.37744 9.6309 3.35628 9.24402 3.41518ZM7.58646 4.22118C7.57657 4.23721 7.60178 4.31435 7.64247 4.39259C7.94639 4.97695 9.06317 7.0669 9.114 7.14637C9.16172 7.22103 9.24925 7.2836 9.46907 7.40021C9.72713 7.53705 10.0712 7.76079 10.4274 8.0234C10.4909 8.07023 10.5505 8.10093 10.5597 8.09161C10.569 8.08233 10.0793 7.20451 9.47161 6.14094L8.36662 4.20717L7.98552 4.1996C7.73698 4.19466 7.59818 4.20217 7.58646 4.22118ZM8.53346 4.243C8.54055 4.27022 8.76492 4.67267 9.03205 5.13736C9.29921 5.60205 9.81706 6.50453 10.1828 7.14287C10.5486 7.78122 10.8745 8.3327 10.907 8.36836C10.998 8.46842 11.3941 8.75377 11.4199 8.73785C11.4324 8.73007 11.4256 8.69061 11.4047 8.65013C11.262 8.37369 8.84213 4.25488 8.80645 4.22765C8.78187 4.20889 8.70747 4.19351 8.64114 4.19351C8.53812 4.19351 8.52243 4.20072 8.53346 4.243ZM5.93866 4.41556C5.34243 4.55314 4.8718 4.76195 4.85262 4.8974C4.84747 4.9338 4.89388 5.04697 4.96462 5.17049C5.03107 5.28652 5.216 5.62808 5.37559 5.92954C5.53521 6.23098 5.68213 6.5 5.70211 6.52736C5.73503 6.57247 5.79278 6.57766 6.32189 6.58288C7.09049 6.59044 7.30898 6.64853 7.42665 6.87656C7.46243 6.94589 7.47811 6.95171 7.62911 6.95171C7.74673 6.95171 7.79704 6.9406 7.80792 6.91222C7.81642 6.89002 7.57006 6.42683 7.24512 5.854C6.92728 5.29371 6.60643 4.72776 6.53214 4.59632L6.3971 4.35737L6.28332 4.35982C6.22075 4.36119 6.06566 4.38626 5.93866 4.41556ZM10.2983 4.40551C10.2983 4.41698 10.3392 4.48766 10.3892 4.56254C10.4392 4.63745 11.0725 5.63269 11.7966 6.7742C12.5207 7.91572 13.1409 8.87898 13.1748 8.91479L13.2365 8.97989L13.3565 8.9217C13.4225 8.88966 13.5115 8.82691 13.5542 8.7822L13.6319 8.70093L13.5013 8.48858C12.8926 7.49895 10.9649 4.49377 10.9293 4.479C10.7756 4.41502 10.2983 4.35944 10.2983 4.40551ZM14.809 5.78426C14.7999 5.84808 14.7961 6.71139 14.8006 7.70271C14.8098 9.7707 14.8143 9.70491 14.5579 11.2256C14.4261 12.0068 14.4042 12.1894 14.393 12.5973C14.3719 13.3644 14.4535 13.5786 14.8399 13.7699C15.0446 13.8713 15.06 13.8745 15.34 13.8745C15.6203 13.8745 15.6354 13.8714 15.8411 13.7695C16.2483 13.5678 16.6211 13.1291 16.9354 12.4818C17.4534 11.4148 17.6308 10.2915 17.4125 9.46066C17.2627 8.89075 16.6788 7.83201 16.0355 6.96411C15.5699 6.33584 14.9679 5.66819 14.8672 5.66819C14.839 5.66819 14.8202 5.70569 14.809 5.78426ZM5.81526 6.77775C5.31692 6.85242 5.01063 6.9522 4.97226 7.0524C4.93606 7.14686 5.11593 7.8664 5.16373 7.8185C5.17044 7.81181 5.15651 7.72259 5.13283 7.62023C5.10915 7.51791 5.08838 7.37265 5.08666 7.29747C5.08388 7.1748 5.09269 7.15312 5.17229 7.08651C5.33613 6.94945 5.69303 6.88527 6.46455 6.85416C6.79145 6.84097 6.91468 6.82724 6.89381 6.80632C6.86424 6.77669 5.97886 6.75323 5.81526 6.77775ZM7.39444 7.32762C7.37863 7.33865 7.32154 7.44177 7.26755 7.55677C7.03836 8.04494 6.66734 8.46231 6.31006 8.63389C6.14592 8.7127 6.08754 8.72671 5.92503 8.72619C5.43413 8.72466 5.13626 8.40485 4.85728 7.57982L4.8065 7.42962L4.64612 7.42132C4.23235 7.39988 3.68242 7.694 3.34819 8.11545C2.9004 8.68009 2.65799 9.41689 2.55855 10.5155C2.38647 12.4167 2.96685 14.1966 3.91875 14.687C4.09009 14.7752 4.27549 14.821 4.27549 14.7751C4.27549 14.7672 4.23325 14.6167 4.18163 14.4406C4.04447 13.9724 3.98587 13.7277 3.90194 13.2716C3.83299 12.897 3.82699 12.81 3.82773 12.195C3.82841 11.5886 3.83416 11.5055 3.8891 11.3075C4.13012 10.4387 4.67975 9.96369 5.5121 9.90498L5.76076 9.88742L5.77948 9.56818C5.79043 9.38119 5.81417 9.21835 5.83682 9.17507C5.87276 9.1063 5.8765 9.12274 5.89053 9.41238C5.91007 9.81527 5.93809 9.89411 6.06975 9.91642C7.26248 10.1186 8.00411 10.666 8.86096 11.9766C8.97389 12.1493 9.28321 12.6716 9.54835 13.1372C10.2133 14.305 10.4271 14.6222 10.8005 14.9953C11.139 15.3336 11.3336 15.4545 11.7026 15.556C12.1632 15.6826 12.634 15.6191 13.0509 15.3743C13.395 15.1722 13.7979 14.7258 14.1026 14.2091C14.2729 13.9203 14.2866 13.8223 14.1846 13.6205C14.0938 13.441 14.0568 13.2885 14.0309 12.9874C13.9989 12.6154 14.0406 12.1952 14.2085 11.1982C14.4058 10.0269 14.4749 9.50092 14.4402 9.43598C14.4068 9.37341 13.895 9.08181 13.8186 9.08181C13.7882 9.08181 13.6919 9.124 13.6047 9.17556C13.0983 9.47484 12.2655 9.5238 11.6871 9.28832C11.4202 9.17963 11.1806 9.02465 10.5708 8.56613C10.2636 8.33507 9.92632 8.08798 9.82139 8.01703C9.08307 7.51769 8.46901 7.30626 7.75954 7.30714C7.57453 7.30738 7.41025 7.31659 7.39444 7.32762ZM8.10543 7.58288C8.13094 7.66341 8.05333 7.74045 7.98814 7.69932C7.92747 7.66103 7.91145 7.57938 7.95873 7.54937C8.02278 7.50868 8.08655 7.52323 8.10543 7.58288ZM4.54251 7.65049C4.55221 7.71846 4.48364 7.78351 4.42573 7.76123C4.38376 7.74509 4.36869 7.63206 4.40382 7.59686C4.44227 7.55832 4.53447 7.59396 4.54251 7.65049ZM4.00296 7.86656C4.03002 7.89925 4.03002 7.9158 4.00296 7.94849C3.98429 7.97102 3.95363 7.98945 3.93483 7.98945C3.91603 7.98945 3.88537 7.97102 3.8667 7.94849C3.83964 7.9158 3.83964 7.89925 3.8667 7.86656C3.88537 7.84403 3.91603 7.8256 3.93483 7.8256C3.95363 7.8256 3.98429 7.84403 4.00296 7.86656ZM7.71956 7.96845C7.75663 8.02744 7.68187 8.11494 7.61606 8.08962C7.57284 8.07302 7.55651 7.9605 7.59216 7.92478C7.62233 7.89455 7.68708 7.91676 7.71956 7.96845ZM8.77108 8.11103C8.78915 8.13285 8.79967 8.17278 8.79449 8.19978C8.78201 8.26473 8.66504 8.26453 8.62525 8.19948C8.60105 8.15994 8.60557 8.14227 8.64792 8.11073C8.71406 8.06152 8.73012 8.06157 8.77108 8.11103ZM4.69717 8.17013C4.74696 8.22002 4.74151 8.25992 4.67953 8.29908C4.58426 8.3593 4.5 8.23966 4.58072 8.15877C4.62402 8.11537 4.64454 8.11739 4.69717 8.17013ZM4.05747 8.33166C4.05747 8.41626 3.98669 8.44909 3.929 8.39127C3.8713 8.33346 3.90406 8.26254 3.98849 8.26254C4.04411 8.26254 4.05747 8.27592 4.05747 8.33166ZM4.41175 8.54691C4.41175 8.60005 4.33751 8.6536 4.28947 8.63512C4.24071 8.61638 4.23513 8.53238 4.27966 8.48776C4.31787 8.44947 4.41175 8.49153 4.41175 8.54691ZM7.80277 8.57299C7.82566 8.61045 7.82067 8.62913 7.77968 8.65967C7.6919 8.72499 7.60993 8.61884 7.68784 8.54076C7.72839 8.50013 7.76437 8.5102 7.80277 8.57299ZM8.3225 8.64486C8.3225 8.69492 8.30609 8.71546 8.26107 8.72188C8.2242 8.72712 8.19305 8.71346 8.18321 8.68774C8.15607 8.61687 8.19408 8.55832 8.26107 8.56785C8.30609 8.57427 8.3225 8.59481 8.3225 8.64486ZM5.44081 10.2557C5.193 10.2869 5.01869 10.3484 4.82814 10.4718C4.52779 10.6663 4.33187 10.9783 4.21695 11.4451C4.13244 11.7884 4.13369 12.5061 4.21976 13.0553C4.2968 13.5466 4.49547 14.3313 4.59399 14.5333C4.74344 14.8397 5.00608 15.064 5.67758 15.4588C6.45425 15.9154 7.1592 16.1499 8.14536 16.2797C8.60121 16.3397 9.42607 16.3195 9.81929 16.2388C10.3172 16.1366 11.0678 15.8856 11.1656 15.7887C11.1954 15.7591 11.1617 15.7263 10.9711 15.5991C10.5509 15.319 10.1024 14.7836 9.65218 14.0247C9.57645 13.897 9.3699 13.5345 9.19317 13.2191C8.57756 12.1203 8.20425 11.5768 7.77322 11.1516C7.50985 10.8918 7.37313 10.7826 7.12213 10.6313C6.6475 10.3453 5.95635 10.1909 5.44081 10.2557Z" fill="#F3F3F3"/>
<mask id="mask0_2293_3401" style="mask-type:alpha" maskUnits="userSpaceOnUse" x="0" y="0" width="20" height="20">
<path fill-rule="evenodd" clip-rule="evenodd" d="M9.30359 0.0168615C8.0491 0.113235 6.81137 0.449598 5.60002 1.0233C5.03286 1.29191 4.37153 1.70373 3.78494 2.15356C3.34688 2.48949 2.38337 3.47059 2.04971 3.92042C0.794403 5.61297 0.206946 7.12428 0.022909 9.13476C-0.0233659 9.64033 0.00375022 10.7698 0.0747433 11.2938C0.53008 14.6542 2.55838 17.4736 5.63283 19.0196C6.37489 19.3927 7.16108 19.6447 8.10448 19.8117C8.88832 19.9505 9.17008 19.9801 9.86227 19.9965C11.1244 20.0263 12.1074 19.8697 13.3642 19.4386C14.8827 18.9178 15.8072 18.3159 17.0715 17.0248C17.5786 16.507 17.9861 16.0309 18.2639 15.6316C18.7432 14.9428 19.1478 14.1677 19.4103 13.4355C19.8273 12.2722 20.0005 11.2755 20 10.0416C19.9994 8.56075 19.762 7.37762 19.1991 6.05052C18.5767 4.58302 17.501 3.17557 16.2207 2.15348C14.7775 1.00137 13.0913 0.305435 11.1366 0.0551758C10.7299 0.00309776 9.74956 -0.0173839 9.30359 0.0168615ZM10.9343 0.710508C11.9151 0.832415 12.6084 1.00394 13.4378 1.32982C14.9745 1.93365 16.4063 3.01445 17.4077 4.32637C18.2863 5.47752 18.8833 6.78464 19.1539 8.1494C19.2964 8.86866 19.3593 9.76461 19.3182 10.4901C19.2665 11.4036 19.1416 12.0728 18.87 12.8914C18.4703 14.0965 17.9845 14.9573 17.1129 16.0046C15.9814 17.3643 14.7993 18.2 13.1736 18.7897C12.5021 19.0333 11.817 19.194 11.0614 19.2853C10.4844 19.355 9.49989 19.3486 8.92873 19.2716C7.69703 19.1054 6.79774 18.8416 5.85987 18.3713C3.88556 17.3814 2.3142 15.7227 1.4023 13.666C0.640943 11.9489 0.442545 10.0099 0.830186 8.07471C1.07104 6.87224 1.79899 5.36266 2.69677 4.20375C2.98688 3.82929 3.70337 3.10506 4.11026 2.77503C4.73576 2.26766 5.48779 1.81319 6.23465 1.49124C7.24038 1.05769 8.11385 0.818705 9.07838 0.713266C9.54353 0.662416 10.5357 0.660942 10.9343 0.710508ZM9.24402 3.41518C8.69987 3.49804 8.19583 3.65042 7.64031 3.90005C7.46494 3.97884 7.32293 4.0556 7.3247 4.07062C7.3268 4.0884 7.64854 4.09501 8.24764 4.08955C8.93072 4.08329 9.2795 4.09211 9.60337 4.12377C10.9853 4.25878 12.2374 4.60945 12.8167 5.02362C12.9103 5.09061 13.0826 5.24728 13.1995 5.37178C13.651 5.85269 13.8907 6.29141 14.0582 6.943C14.0807 7.03053 14.12 7.0831 14.2268 7.1683C14.3034 7.22942 14.3829 7.27942 14.4034 7.27942C14.434 7.27942 14.4407 7.15707 14.4407 6.60104C14.4407 6.22792 14.4543 5.82186 14.4708 5.69864C14.4999 5.48167 14.4988 5.47146 14.434 5.37342C14.2335 5.0704 13.805 4.67363 13.3506 4.37031C12.7084 3.94167 11.8708 3.60356 11.0757 3.45197C10.6848 3.37744 9.6309 3.35628 9.24402 3.41518ZM7.58646 4.22118C7.57657 4.23721 7.60178 4.31435 7.64247 4.39259C7.94639 4.97695 9.06317 7.0669 9.114 7.14637C9.16172 7.22103 9.24925 7.2836 9.46907 7.40021C9.72713 7.53705 10.0712 7.76079 10.4274 8.0234C10.4909 8.07023 10.5505 8.10093 10.5597 8.09161C10.569 8.08233 10.0793 7.20451 9.47161 6.14094L8.36662 4.20717L7.98552 4.1996C7.73698 4.19466 7.59818 4.20217 7.58646 4.22118ZM8.53346 4.243C8.54055 4.27022 8.76492 4.67267 9.03205 5.13736C9.29921 5.60205 9.81706 6.50453 10.1828 7.14287C10.5486 7.78122 10.8745 8.3327 10.907 8.36836C10.998 8.46842 11.3941 8.75377 11.4199 8.73785C11.4324 8.73007 11.4256 8.69061 11.4047 8.65013C11.262 8.37369 8.84213 4.25488 8.80645 4.22765C8.78187 4.20889 8.70747 4.19351 8.64114 4.19351C8.53812 4.19351 8.52243 4.20072 8.53346 4.243ZM5.93866 4.41556C5.34243 4.55314 4.8718 4.76195 4.85262 4.8974C4.84747 4.9338 4.89388 5.04697 4.96462 5.17049C5.03107 5.28652 5.216 5.62808 5.37559 5.92954C5.53521 6.23098 5.68213 6.5 5.70211 6.52736C5.73503 6.57247 5.79278 6.57766 6.32189 6.58288C7.09049 6.59044 7.30898 6.64853 7.42665 6.87656C7.46243 6.94589 7.47811 6.95171 7.62911 6.95171C7.74673 6.95171 7.79704 6.9406 7.80792 6.91222C7.81642 6.89002 7.57006 6.42683 7.24512 5.854C6.92728 5.29371 6.60643 4.72776 6.53214 4.59632L6.3971 4.35737L6.28332 4.35982C6.22075 4.36119 6.06566 4.38626 5.93866 4.41556ZM10.2983 4.40551C10.2983 4.41698 10.3392 4.48766 10.3892 4.56254C10.4392 4.63745 11.0725 5.63269 11.7966 6.7742C12.5207 7.91572 13.1409 8.87898 13.1748 8.91479L13.2365 8.97989L13.3565 8.9217C13.4225 8.88966 13.5115 8.82691 13.5542 8.7822L13.6319 8.70093L13.5013 8.48858C12.8926 7.49895 10.9649 4.49377 10.9293 4.479C10.7756 4.41502 10.2983 4.35944 10.2983 4.40551ZM14.809 5.78426C14.7999 5.84808 14.7961 6.71139 14.8006 7.70271C14.8098 9.7707 14.8143 9.70491 14.5579 11.2256C14.4261 12.0068 14.4042 12.1894 14.393 12.5973C14.3719 13.3644 14.4535 13.5786 14.8399 13.7699C15.0446 13.8713 15.06 13.8745 15.34 13.8745C15.6203 13.8745 15.6354 13.8714 15.8411 13.7695C16.2483 13.5678 16.6211 13.1291 16.9354 12.4818C17.4534 11.4148 17.6308 10.2915 17.4125 9.46066C17.2627 8.89075 16.6788 7.83201 16.0355 6.96411C15.5699 6.33584 14.9679 5.66819 14.8672 5.66819C14.839 5.66819 14.8202 5.70569 14.809 5.78426ZM5.81526 6.77775C5.31692 6.85242 5.01063 6.9522 4.97226 7.0524C4.93606 7.14686 5.11593 7.8664 5.16373 7.8185C5.17044 7.81181 5.15651 7.72259 5.13283 7.62023C5.10915 7.51791 5.08838 7.37265 5.08666 7.29747C5.08388 7.1748 5.09269 7.15312 5.17229 7.08651C5.33613 6.94945 5.69303 6.88527 6.46455 6.85416C6.79145 6.84097 6.91468 6.82724 6.89381 6.80632C6.86424 6.77669 5.97886 6.75323 5.81526 6.77775ZM7.39444 7.32762C7.37863 7.33865 7.32154 7.44177 7.26755 7.55677C7.03836 8.04494 6.66734 8.46231 6.31006 8.63389C6.14592 8.7127 6.08754 8.72671 5.92503 8.72619C5.43413 8.72466 5.13626 8.40485 4.85728 7.57982L4.8065 7.42962L4.64612 7.42132C4.23235 7.39988 3.68242 7.694 3.34819 8.11545C2.9004 8.68009 2.65799 9.41689 2.55855 10.5155C2.38647 12.4167 2.96685 14.1966 3.91875 14.687C4.09009 14.7752 4.27549 14.821 4.27549 14.7751C4.27549 14.7672 4.23325 14.6167 4.18163 14.4406C4.04447 13.9724 3.98587 13.7277 3.90194 13.2716C3.83299 12.897 3.82699 12.81 3.82773 12.195C3.82841 11.5886 3.83416 11.5055 3.8891 11.3075C4.13012 10.4387 4.67975 9.96369 5.5121 9.90498L5.76076 9.88742L5.77948 9.56818C5.79043 9.38119 5.81417 9.21835 5.83682 9.17507C5.87276 9.1063 5.8765 9.12274 5.89053 9.41238C5.91007 9.81527 5.93809 9.89411 6.06975 9.91642C7.26248 10.1186 8.00411 10.666 8.86096 11.9766C8.97389 12.1493 9.28321 12.6716 9.54835 13.1372C10.2133 14.305 10.4271 14.6222 10.8005 14.9953C11.139 15.3336 11.3336 15.4545 11.7026 15.556C12.1632 15.6826 12.634 15.6191 13.0509 15.3743C13.395 15.1722 13.7979 14.7258 14.1026 14.2091C14.2729 13.9203 14.2866 13.8223 14.1846 13.6205C14.0938 13.441 14.0568 13.2885 14.0309 12.9874C13.9989 12.6154 14.0406 12.1952 14.2085 11.1982C14.4058 10.0269 14.4749 9.50092 14.4402 9.43598C14.4068 9.37341 13.895 9.08181 13.8186 9.08181C13.7882 9.08181 13.6919 9.124 13.6047 9.17556C13.0983 9.47484 12.2655 9.5238 11.6871 9.28832C11.4202 9.17963 11.1806 9.02465 10.5708 8.56613C10.2636 8.33507 9.92632 8.08798 9.82139 8.01703C9.08307 7.51769 8.46901 7.30626 7.75954 7.30714C7.57453 7.30738 7.41025 7.31659 7.39444 7.32762ZM8.10543 7.58288C8.13094 7.66341 8.05333 7.74045 7.98814 7.69932C7.92747 7.66103 7.91145 7.57938 7.95873 7.54937C8.02278 7.50868 8.08655 7.52323 8.10543 7.58288ZM4.54251 7.65049C4.55221 7.71846 4.48364 7.78351 4.42573 7.76123C4.38376 7.74509 4.36869 7.63206 4.40382 7.59686C4.44227 7.55832 4.53447 7.59396 4.54251 7.65049ZM4.00296 7.86656C4.03002 7.89925 4.03002 7.9158 4.00296 7.94849C3.98429 7.97102 3.95363 7.98945 3.93483 7.98945C3.91603 7.98945 3.88537 7.97102 3.8667 7.94849C3.83964 7.9158 3.83964 7.89925 3.8667 7.86656C3.88537 7.84403 3.91603 7.8256 3.93483 7.8256C3.95363 7.8256 3.98429 7.84403 4.00296 7.86656ZM7.71956 7.96845C7.75663 8.02744 7.68187 8.11494 7.61606 8.08962C7.57284 8.07302 7.55651 7.9605 7.59216 7.92478C7.62233 7.89455 7.68708 7.91676 7.71956 7.96845ZM8.77108 8.11103C8.78915 8.13285 8.79967 8.17278 8.79449 8.19978C8.78201 8.26473 8.66504 8.26453 8.62525 8.19948C8.60105 8.15994 8.60557 8.14227 8.64792 8.11073C8.71406 8.06152 8.73012 8.06157 8.77108 8.11103ZM4.69717 8.17013C4.74696 8.22002 4.74151 8.25992 4.67953 8.29908C4.58426 8.3593 4.5 8.23966 4.58072 8.15877C4.62402 8.11537 4.64454 8.11739 4.69717 8.17013ZM4.05747 8.33166C4.05747 8.41626 3.98669 8.44909 3.929 8.39127C3.8713 8.33346 3.90406 8.26254 3.98849 8.26254C4.04411 8.26254 4.05747 8.27592 4.05747 8.33166ZM4.41175 8.54691C4.41175 8.60005 4.33751 8.6536 4.28947 8.63512C4.24071 8.61638 4.23513 8.53238 4.27966 8.48776C4.31787 8.44947 4.41175 8.49153 4.41175 8.54691ZM7.80277 8.57299C7.82566 8.61045 7.82067 8.62913 7.77968 8.65967C7.6919 8.72499 7.60993 8.61884 7.68784 8.54076C7.72839 8.50013 7.76437 8.5102 7.80277 8.57299ZM8.3225 8.64486C8.3225 8.69492 8.30609 8.71546 8.26107 8.72188C8.2242 8.72712 8.19305 8.71346 8.18321 8.68774C8.15607 8.61687 8.19408 8.55832 8.26107 8.56785C8.30609 8.57427 8.3225 8.59481 8.3225 8.64486ZM5.44081 10.2557C5.193 10.2869 5.01869 10.3484 4.82814 10.4718C4.52779 10.6663 4.33187 10.9783 4.21695 11.4451C4.13244 11.7884 4.13369 12.5061 4.21976 13.0553C4.2968 13.5466 4.49547 14.3313 4.59399 14.5333C4.74344 14.8397 5.00608 15.064 5.67758 15.4588C6.45425 15.9154 7.1592 16.1499 8.14536 16.2797C8.60121 16.3397 9.42607 16.3195 9.81929 16.2388C10.3172 16.1366 11.0678 15.8856 11.1656 15.7887C11.1954 15.7591 11.1617 15.7263 10.9711 15.5991C10.5509 15.319 10.1024 14.7836 9.65218 14.0247C9.57645 13.897 9.3699 13.5345 9.19317 13.2191C8.57756 12.1203 8.20425 11.5768 7.77322 11.1516C7.50985 10.8918 7.37313 10.7826 7.12213 10.6313C6.6475 10.3453 5.95635 10.1909 5.44081 10.2557Z" fill="#C4C4C4"/>
</mask>
<g mask="url(#mask0_2293_3401)">
<path d="M2.93079 13.6241C3.01281 13.736 3.22161 13.9418 3.40058 13.8702C3.6243 13.7807 3.24398 11.7449 3.40058 11.3646C3.55718 10.9843 3.73615 9.14984 5.72721 9.06036C7.71826 8.97087 8.63548 10.246 9.70931 11.6778C10.7831 13.1096 11.6332 13.6241 12.2373 13.6241C12.8413 13.6241 13.5348 13.2214 13.7138 12.4832C13.8928 11.7449 14.1388 9.73149 14.1612 9.61964C14.1791 9.53015 13.7063 9.26915 13.4677 9.14984L13.7138 8.81427L14.2954 8.61293L14.452 9.06036L14.5192 9.75387L14.452 10.6263L14.1612 11.9015V12.4832V13.2214L14.2954 12.4832C14.713 12.4384 15.6467 12.1655 16.0404 11.4317C16.5326 10.5145 16.7787 10.4026 17.0695 8.70241C17.3021 7.34224 18.3297 9.4183 18.8145 10.6263L17.9867 13.1096L16.9576 14.34L14.8547 14.2505L14.6534 13.8478L14.1612 13.2214L14.452 13.8478L14.8547 15.0111L14.5192 16.3534L9.35137 17.6957L6.62206 17.5615L4.47441 16.8008L3.13213 15.0559L2.59521 13.7807L2.93079 13.6241Z" fill="#C4C4C4"/>
</g>
</svg>
