<svg width="20" height="20" viewBox="0 0 20 20" fill="none" xmlns="http://www.w3.org/2000/svg">
<circle cx="10" cy="10" r="10" fill="#8834FF"/>
<path d="M4.31403 5.73072C4.13231 5.74501 3.99246 5.7736 4.00032 5.79504C4.0728 5.96756 4.52096 6.98332 4.52708 6.98945C4.53321 6.99557 4.63734 7.00272 4.75984 7.00782C5.30294 7.02824 5.73272 7.13441 6.19722 7.36411C6.53104 7.52846 6.77809 7.70507 7.03534 7.96131C7.41409 8.33903 7.66113 8.75861 7.8061 9.2721C7.82243 9.33131 7.8357 9.3844 7.8357 9.39256C7.8357 9.40379 7.75301 9.40583 7.38754 9.40583C7.14049 9.40583 6.92815 9.40992 6.91488 9.41502C6.89549 9.42217 6.84444 9.53242 6.6321 10.0194C6.48918 10.3471 6.37076 10.6227 6.36872 10.6319C6.36157 10.6584 6.44733 10.6819 6.66171 10.7136C6.70561 10.7207 6.96899 10.7279 7.28035 10.7319L7.82243 10.7381L7.78976 10.8504C7.42429 12.0897 6.29011 12.9564 4.90072 13.0605C4.82211 13.0656 4.719 13.0707 4.67102 13.0707H4.58425L4.31678 13.6863C4.08709 14.2121 4.05136 14.3019 4.06667 14.307C4.13609 14.3325 4.29126 14.3417 4.65061 14.3417C5.11 14.3417 5.33356 14.3213 5.7123 14.2437C7.25891 13.9262 8.54418 12.9421 9.12607 11.6272C9.23837 11.3741 9.37006 10.9575 9.39354 10.783L9.40069 10.733H10.5614L10.5655 10.7554C10.6492 11.1658 10.7401 11.4425 10.8973 11.7691C11.3699 12.7532 12.256 13.5567 13.3535 13.9977C14.0199 14.2646 14.7337 14.3927 15.4513 14.3744C15.7515 14.3652 15.9904 14.3315 15.9781 14.2999C15.9679 14.2733 15.4595 13.1065 15.4565 13.1034C15.4534 13.1003 15.3482 13.0963 15.2206 13.0912C14.8623 13.0769 14.5928 13.035 14.2886 12.9482C13.82 12.8135 13.3565 12.5695 13.0013 12.2714C12.5541 11.8947 12.2305 11.4261 12.059 10.9065C12.0396 10.8473 12.0202 10.785 12.0172 10.7666L12.01 10.734L12.4469 10.7309C12.6868 10.7289 12.891 10.7238 12.8992 10.7197C12.9125 10.7125 13.4351 9.52732 13.4351 9.50384C13.4351 9.48852 13.3035 9.44973 13.184 9.43033C13.0962 9.41604 12.9849 9.41196 12.5409 9.4089L12.0029 9.40379L12.0233 9.33131C12.3214 8.27574 13.2361 7.43761 14.4152 7.14054C14.6755 7.0752 14.9287 7.04151 15.2574 7.02824C15.4534 7.02007 15.4779 7.01701 15.4901 7.00068C15.4983 6.98945 15.6188 6.71892 15.7576 6.39939C15.9281 6.0084 16.0067 5.81545 15.9996 5.81035C15.9771 5.7981 15.8342 5.77258 15.7219 5.76135C15.5585 5.74399 15.0818 5.74706 14.8715 5.76543C13.6689 5.87262 12.5848 6.35753 11.7722 7.14972C11.276 7.63361 10.9279 8.17671 10.7135 8.80352C10.6584 8.96176 10.592 9.21085 10.5716 9.33131L10.5594 9.40583H9.41835L9.41427 9.38235C9.4112 9.3701 9.39997 9.31191 9.38772 9.2527C9.21928 8.4156 8.74356 7.60197 8.07183 7.00272C7.3072 6.31976 6.35371 5.89202 5.30427 5.76206C4.98882 5.72358 4.58221 5.71031 4.31403 5.73072Z" fill="white"/>
</svg>
