<svg width="20" height="20" viewBox="0 0 20 20" fill="none" xmlns="http://www.w3.org/2000/svg">
<g clip-path="url(#clip0_924_14)">
<path d="M9.99844 19.9969C15.5204 19.9969 19.9969 15.5204 19.9969 9.99844C19.9969 4.47645 15.5204 0 9.99844 0C4.47645 0 0 4.47645 0 9.99844C0 15.5204 4.47645 19.9969 9.99844 19.9969Z" fill="url(#paint0_radial_924_14)"/>
<path d="M9.99844 19.9969C15.5204 19.9969 19.9969 15.5204 19.9969 9.99844C19.9969 4.47645 15.5204 0 9.99844 0C4.47645 0 0 4.47645 0 9.99844C0 15.5204 4.47645 19.9969 9.99844 19.9969Z" fill="url(#paint1_radial_924_14)"/>
<path d="M7.54833 19.6949C7.54833 19.6949 11.9358 17.2922 5.04833 12.7738C1.07177 10.1645 0.60341 7.09063 2.01122 3.98477C2.54755 3.28164 3.19794 2.54258 4.38232 1.72656C0.369816 5.51758 4.79989 9.02383 7.13388 10.5281C10.7186 12.8402 15.344 17.0629 9.28896 19.9715C9.28896 19.9715 8.3081 19.907 7.54833 19.6949Z" fill="#DDDDDD"/>
<path d="M2.25851 4.71133C2.24916 4.89887 2.25308 5.08684 2.27023 5.27383C2.49133 7.66797 4.88742 9.68555 6.85656 10.9563C10.0402 13.0098 11.8089 15.1012 11.7093 16.6949C11.6448 17.7277 10.7972 18.6547 9.18976 19.452C9.07492 19.4418 8.89367 19.4238 8.68195 19.3957C9.05226 18.9711 9.40344 18.3664 9.43195 17.584C9.49133 15.9375 8.11086 14.1734 5.32765 12.3473C2.11242 10.2379 1.10422 7.73438 2.25851 4.71133ZM4.38117 1.72656C3.1964 2.54258 2.5464 3.28125 2.01008 3.98437C0.603826 7.08984 1.07258 10.1637 5.04797 12.7734C11.9347 17.2918 7.54797 19.6945 7.54797 19.6945C8.30773 19.9066 9.28859 19.9711 9.28859 19.9711C15.3433 17.0625 10.7183 12.8398 7.13351 10.5277C4.79914 9.02344 0.36867 5.51719 4.38117 1.72656Z" fill="white"/>
<path d="M13.9564 8.43711C11.4705 6.08867 5.05171 2.78789 9.29625 0.0253906C7.98063 0.115454 6.69613 0.46669 5.51773 1.05859C2.58297 5.91562 9.90289 8.8582 12.69 11.8219C15.2341 14.2828 15.4064 18.3531 11.6533 19.8602C11.7076 19.8508 11.7619 19.8418 11.8162 19.8316C15.8064 18.627 18.5966 12.8176 13.9564 8.43711Z" fill="#DDDDDD"/>
<path d="M7.77281 0.772656C7.53162 1.12985 7.39386 1.54677 7.37476 1.97734C7.30093 3.87539 9.62164 5.65664 11.6689 7.22812C12.4044 7.79258 13.099 8.32539 13.6084 8.80664C15.4744 10.5688 16.2197 12.7363 15.7064 14.9098C15.56 15.523 15.3203 16.1101 14.9955 16.6504C15.2787 14.8816 14.5447 12.9098 13.0548 11.4637C12.2935 10.657 11.2447 9.87656 10.1345 9.05039C8.61851 7.92266 7.05093 6.75625 6.13179 5.45664C5.17789 4.10586 5.09703 2.82891 5.8814 1.44961C6.48588 1.15704 7.11997 0.930096 7.77281 0.772656V0.772656ZM9.29625 0.0253906C7.98063 0.115454 6.69613 0.46669 5.51773 1.05859C2.58297 5.91562 9.90289 8.8582 12.69 11.8219C15.2341 14.2828 15.4064 18.3531 11.6533 19.8598C11.7076 19.8508 11.7619 19.8418 11.8162 19.8316C15.8064 18.627 18.5966 12.8176 13.9564 8.43711C11.4705 6.08867 5.05171 2.78789 9.29625 0.0253906Z" fill="white"/>
<path opacity="0.17" d="M19.9238 8.73984C19.9066 8.56875 19.8727 8.39805 19.8457 8.22695C19.3082 5.20078 17.402 2.64453 14.7945 1.2168C16.2375 2.65924 17.2041 4.50896 17.5645 6.51719L17.6426 7.03008C17.6946 7.44694 17.7207 7.86662 17.7207 8.28672C17.7207 13.8094 13.241 18.2891 7.71836 18.2891C7.61562 18.2891 7.51328 18.2891 7.41055 18.2805C7.11133 18.2719 6.8207 18.2465 6.53008 18.2121C5.26716 18.0612 4.04492 17.6694 2.92969 17.0578C4.5132 18.6449 6.5843 19.6535 8.81016 19.9215C9.10078 19.9559 9.39141 19.9812 9.69063 19.9898C9.79336 19.9898 9.89609 19.9984 9.99844 19.9984C15.5211 19.9996 20 15.5191 20 9.99648C20.0006 9.57643 19.9752 9.15674 19.9238 8.73984V8.73984Z" fill="#25604E"/>
</g>
<defs>
<radialGradient id="paint0_radial_924_14" cx="0" cy="0" r="1" gradientUnits="userSpaceOnUse" gradientTransform="translate(6.93594 8.09023) scale(11.9809)">
<stop stop-color="#B4DED7"/>
<stop offset="0.39" stop-color="#7AAFAD"/>
<stop offset="1" stop-color="#21686E"/>
</radialGradient>
<radialGradient id="paint1_radial_924_14" cx="0" cy="0" r="1" gradientUnits="userSpaceOnUse" gradientTransform="translate(6.72734 8.55898) scale(11.1867)">
<stop stop-color="#B4DED7"/>
<stop offset="1" stop-color="#21686E"/>
</radialGradient>
<clipPath id="clip0_924_14">
<rect width="20" height="20" fill="white"/>
</clipPath>
</defs>
</svg>
