<svg width="20" height="20" viewBox="0 0 20 20" fill="none" xmlns="http://www.w3.org/2000/svg">
<path d="M1.55146 9.36882C1.35591 8.33771 1.2848 7.27993 1.3648 6.23993C1.40035 5.7066 1.48035 5.16438 1.75591 4.71104C2.01369 4.28438 2.42257 3.97327 2.85813 3.75993C4.77813 2.81771 7.2048 3.01327 9.08035 3.96438C10.5559 4.71104 11.7737 5.95549 12.4848 7.44882C11.187 6.40882 9.49813 5.87549 7.83591 5.92882C6.17369 5.98215 4.53813 6.62215 3.25813 7.67993C2.63591 8.19549 2.09369 8.79993 1.55146 9.40438C1.56035 9.3866 1.55146 9.37771 1.55146 9.36882Z" fill="url(#paint0_linear_2059_2169)"/>
<path d="M5.25804 17.1112C4.27137 16.7645 3.32026 16.2845 2.45804 15.6978C2.02249 15.3956 1.58693 15.0578 1.32915 14.5956C1.08915 14.1601 1.02693 13.6534 1.06249 13.1645C1.2136 11.0312 2.60915 9.03117 4.36915 7.8845C5.75582 6.98673 7.44471 6.56006 9.09804 6.6934C7.54249 7.28895 6.23582 8.48006 5.44471 9.93784C4.6536 11.3956 4.38693 13.1378 4.6536 14.7734C4.78693 15.5734 5.03582 16.3467 5.28471 17.1201C5.28471 17.1201 5.27582 17.1201 5.25804 17.1112Z" fill="url(#paint1_linear_2059_2169)"/>
<path d="M13.8271 17.7778C13.0449 18.48 12.1738 19.0756 11.2316 19.5467C10.7605 19.7867 10.2538 20 9.72047 20C9.23158 20 8.75158 19.8045 8.3338 19.5378C6.53825 18.3645 5.46269 16.1867 5.32047 14.0889C5.20492 12.4356 5.64936 10.7556 6.56492 9.37781C6.33381 11.0223 6.74269 12.7467 7.64047 14.1423C8.53825 15.5378 9.92491 16.6134 11.4894 17.1734C12.2538 17.4489 13.0538 17.6 13.8449 17.7511C13.8449 17.76 13.836 17.7689 13.8271 17.7778Z" fill="url(#paint2_linear_2059_2169)"/>
<path d="M18.8048 10.7644C19.0003 11.7955 19.0537 12.8533 18.9826 13.8933C18.947 14.4266 18.8581 14.9689 18.5826 15.4222C18.3248 15.84 17.9159 16.1511 17.4714 16.3644C15.5426 17.2978 13.1248 17.0844 11.2492 16.1244C9.77366 15.3689 8.56477 14.1155 7.86255 12.6222C9.15144 13.6711 10.8403 14.2133 12.5025 14.1689C14.1648 14.1244 15.8003 13.4933 17.0892 12.4355C17.7203 11.92 18.2626 11.3155 18.8048 10.72C18.7959 10.7377 18.7959 10.7555 18.8048 10.7644Z" fill="url(#paint3_linear_2059_2169)"/>
<path d="M15.0094 2.87119C16.0049 3.20897 16.956 3.67119 17.8271 4.24897C18.2716 4.54231 18.7071 4.88008 18.9649 5.3423C19.2049 5.76897 19.276 6.28453 19.2494 6.77342C19.116 8.91564 17.756 10.9245 15.996 12.089C14.6183 13.0045 12.9382 13.449 11.2849 13.3334C12.8316 12.7201 14.1294 11.5201 14.9027 10.0445C15.676 8.56897 15.9249 6.83564 15.6405 5.20008C15.4983 4.40008 15.2405 3.62675 14.9827 2.8623C14.9827 2.8623 14.9916 2.87119 15.0094 2.87119Z" fill="url(#paint4_linear_2059_2169)"/>
<path d="M6.54708 2.2489C7.33819 1.56446 8.21819 0.977791 9.16041 0.515569C9.64041 0.284458 10.1471 0.0800137 10.6804 0.0889025C11.1693 0.0977914 11.6493 0.293347 12.0582 0.568902C13.836 1.76001 14.876 3.95557 15.0004 6.06223C15.0982 7.71556 14.6271 9.39556 13.6937 10.7556C13.9426 9.11112 13.5604 7.38668 12.6804 5.97334C11.8004 4.56001 10.4315 3.46668 8.87597 2.8889C8.12041 2.60446 7.32041 2.44446 6.5293 2.27557C6.5293 2.26668 6.53819 2.25779 6.54708 2.2489Z" fill="url(#paint5_linear_2059_2169)"/>
<defs>
<linearGradient id="paint0_linear_2059_2169" x1="11.3039" y1="4.47989" x2="4.68731" y2="10.7982" gradientUnits="userSpaceOnUse">
<stop stop-color="#F0FBFC"/>
<stop offset="1" stop-color="#B0E7ED"/>
</linearGradient>
<linearGradient id="paint1_linear_2059_2169" x1="8.62911" y1="6.41544" x2="-1.95139" y2="17.7366" gradientUnits="userSpaceOnUse">
<stop offset="0.2306" stop-color="#0DF9FF"/>
<stop offset="0.314" stop-color="#0FE6F2"/>
<stop offset="0.4828" stop-color="#15B6D0"/>
<stop offset="0.719" stop-color="#1D699A"/>
<stop offset="0.917" stop-color="#252369"/>
</linearGradient>
<linearGradient id="paint2_linear_2059_2169" x1="4.63903" y1="11.9275" x2="13.4524" y2="14.3704" gradientUnits="userSpaceOnUse">
<stop stop-color="#F0FBFC"/>
<stop offset="1" stop-color="#B0E7ED"/>
</linearGradient>
<linearGradient id="paint3_linear_2059_2169" x1="22.8523" y1="14.8708" x2="6.59351" y2="6.67089" gradientUnits="userSpaceOnUse">
<stop offset="0.2267" stop-color="#0DF9FF"/>
<stop offset="0.8813" stop-color="#252369"/>
</linearGradient>
<linearGradient id="paint4_linear_2059_2169" x1="14.4563" y1="13.758" x2="12.2291" y2="4.88738" gradientUnits="userSpaceOnUse">
<stop stop-color="#F0FBFC"/>
<stop offset="1" stop-color="#B0E7ED"/>
</linearGradient>
<linearGradient id="paint5_linear_2059_2169" x1="14.5086" y1="6.73338" x2="2.18612" y2="6.33648" gradientUnits="userSpaceOnUse">
<stop offset="0.0899901" stop-color="#0DF9FF"/>
<stop offset="0.2783" stop-color="#13C2D9"/>
<stop offset="0.5334" stop-color="#1B7FA9"/>
<stop offset="0.7474" stop-color="#204D86"/>
<stop offset="0.9093" stop-color="#242E71"/>
<stop offset="1" stop-color="#252369"/>
</linearGradient>
</defs>
</svg>
