<svg width="20" height="20" viewBox="0 0 20 20" fill="none" xmlns="http://www.w3.org/2000/svg">
<path d="M12.268 6.12895C12.268 3.2351 10.8329 0.77806 9.7841 0.0136485C9.7841 0.0136485 9.72891 -0.040949 9.72891 0.0682527C9.61851 5.63754 6.80343 7.11176 5.2027 9.13199C1.55966 13.8277 4.92671 18.9055 8.40416 19.8884C10.3361 20.4344 7.96258 18.9601 7.63139 15.8479C7.24501 12.0804 12.268 9.24119 12.268 6.12895Z" fill="#1C2142"/>
<path d="M13.9237 8.03992H13.8685C13.8133 8.74973 13.0957 10.224 12.1574 11.589C9.06629 16.23 10.8326 18.4687 11.8262 19.6699C12.3782 20.3797 11.8262 19.6699 13.2613 18.9601C15.0276 17.8681 16.1868 16.0662 16.3524 13.9914C16.6284 10.7154 14.6412 8.64053 13.9237 8.03992Z" fill="#2EA7E0"/>
</svg>
