<svg width="20" height="20" viewBox="0 0 20 20" fill="none" xmlns="http://www.w3.org/2000/svg">
<circle cx="10" cy="10" r="10" fill="#0B0B37"/>
<path d="M11.7917 6.41377C11.7917 4.0983 10.6558 2.13232 9.8257 1.52069C9.8257 1.52069 9.78201 1.477 9.78201 1.56438C9.69464 6.02058 7.46654 7.20016 6.19958 8.81663C3.31615 12.5738 5.98113 16.6368 8.73349 17.4232C10.2626 17.8601 8.38399 16.6805 8.12186 14.1903C7.81604 11.1758 11.7917 8.904 11.7917 6.41377Z" fill="white"/>
<path d="M13.1023 7.94287H13.0586C13.015 8.51082 12.447 9.6904 11.7043 10.7826C9.25778 14.4961 10.6558 16.2873 11.4422 17.2485C11.8791 17.8164 11.4422 17.2485 12.5781 16.6805C13.9761 15.8068 14.8936 14.365 15.0246 12.7049C15.2431 10.0836 13.6703 8.42344 13.1023 7.94287Z" fill="#2EA7E0"/>
</svg>
