<svg width="21" height="20" viewBox="0 0 21 20" fill="none" xmlns="http://www.w3.org/2000/svg">
<g clip-path="url(#clip0)">
<path d="M1.50432 6.52179C1.10236 7.60515 0.882324 8.77683 0.882324 10C0.882324 11.2232 1.10236 12.395 1.50432 13.4783L10.8823 14.3478L20.2603 13.4783C20.6623 12.395 20.8823 11.2232 20.8823 10C20.8823 8.77683 20.6623 7.60515 20.2603 6.52179L10.8823 5.65222L1.50432 6.52179Z" fill="#F0F0F0"/>
<path d="M10.8823 0C6.58275 0 2.91728 2.71375 1.50439 6.52176H20.2604C18.8474 2.71375 15.182 0 10.8823 0Z" fill="#D80027"/>
<path d="M10.8823 20C15.182 20 18.8474 17.2863 20.2604 13.4783H1.50439C2.91728 17.2863 6.58275 20 10.8823 20Z" fill="#6DA544"/>
</g>
<defs>
<clipPath id="clip0">
<rect width="20" height="20" fill="white" transform="translate(0.882324)"/>
</clipPath>
</defs>
</svg>
