<svg width="20" height="20" viewBox="0 0 20 20" fill="none" xmlns="http://www.w3.org/2000/svg">
<g clip-path="url(#clip0_4243_56089)">
<circle cx="10" cy="10" r="10" fill="#FC6F6F"/>
<path d="M7.01753 15.3814C7.43659 15.3814 7.77644 15.7157 7.77644 16.1282C7.77644 16.5407 7.43669 16.875 7.01753 16.875C6.59838 16.875 6.25863 16.5406 6.25863 16.1282C6.25863 15.7157 6.59838 15.3814 7.01753 15.3814ZM12.9911 15.3814C13.4102 15.3814 13.75 15.7157 13.75 16.1282C13.75 16.5407 13.4102 16.875 12.9911 16.875C12.5719 16.875 12.2321 16.5406 12.2321 16.1282C12.2321 15.7157 12.5719 15.3814 12.9911 15.3814ZM6.99597 3.125C7.20156 3.125 7.37725 3.19678 7.52312 3.34023C7.66891 3.48378 7.74428 3.65905 7.74906 3.86613V7.25394C8.38497 6.76921 9.13328 6.52693 9.994 6.52693C10.496 6.52693 10.973 6.62337 11.4249 6.81633C11.8768 7.00919 12.2748 7.27154 12.6191 7.60328C12.9633 7.93503 13.236 8.32552 13.4367 8.77487C13.6376 9.22422 13.738 9.703 13.738 10.2112V13.6767C13.7332 13.8836 13.6578 14.0589 13.5121 14.2025C13.3662 14.3459 13.1905 14.4177 12.9849 14.4177C12.7792 14.4177 12.6035 14.3459 12.4577 14.2025C12.3119 14.0589 12.2389 13.8836 12.2389 13.6767V10.2112C12.2389 9.91008 12.1791 9.62545 12.0596 9.35714C11.9401 9.08893 11.7787 8.85481 11.5755 8.65498C11.3723 8.45496 11.1344 8.2961 10.8618 8.17849C10.5893 8.06088 10.3 8.00203 9.994 8.00203C9.68322 8.00203 9.39269 8.05969 9.1225 8.17492C8.85241 8.29023 8.61447 8.449 8.40887 8.6514C8.20328 8.85371 8.04194 9.08893 7.92475 9.35723C7.80756 9.62536 7.74906 9.90998 7.74906 10.2112V13.6767C7.74906 13.8836 7.67613 14.0589 7.53025 14.2025C7.38447 14.3459 7.20634 14.4177 6.99587 14.4177C6.79028 14.4177 6.61459 14.3459 6.46872 14.2025C6.32294 14.0589 6.25 13.8836 6.25 13.6767V3.86613C6.25 3.65905 6.32294 3.48378 6.46872 3.34023C6.61469 3.19678 6.79028 3.125 6.99597 3.125Z" fill="white"/>
</g>
<defs>
<clipPath id="clip0_4243_56089">
<rect width="20" height="20" fill="white"/>
</clipPath>
</defs>
</svg>
