<svg width="20" height="20" viewBox="0 0 20 20" fill="none" xmlns="http://www.w3.org/2000/svg">
<circle cx="10" cy="10" r="10" fill="#1EEFA4"/>
<path d="M10.8281 12.0444C10.8281 11.5534 11.2267 11.1554 11.7184 11.1554H12.0747C12.3106 11.1553 12.5369 11.2489 12.7037 11.4156C12.8706 11.5823 12.9645 11.8085 12.9647 12.0444V12.3997C12.9647 12.8908 12.566 13.2887 12.0744 13.2887H11.7181C11.4822 13.2888 11.2559 13.1952 11.089 13.0285C10.9221 12.8618 10.8283 12.6356 10.8281 12.3997V12.0441V12.0444ZM11.7184 7.95557C11.6016 7.95544 11.4859 7.97834 11.3779 8.02296C11.2699 8.06757 11.1717 8.13303 11.0891 8.21559C11.0064 8.29816 10.9408 8.3962 10.896 8.50413C10.8512 8.61205 10.8282 8.72774 10.8281 8.84459V9.2002C10.8281 9.69124 11.2267 10.0889 11.7184 10.0889H12.0747C12.3106 10.089 12.5369 9.99537 12.7037 9.82866C12.8706 9.66194 12.9645 9.43577 12.9647 9.19987V8.84459C12.9647 8.35354 12.566 7.95557 12.0744 7.95557H11.7184Z" fill="black"/>
<path fill-rule="evenodd" clip-rule="evenodd" d="M7.6234 4.22298C5.65696 4.22298 4.0625 5.81487 4.0625 7.77809V12.2219C4.0625 14.1855 5.65696 15.777 7.6234 15.777H12.0749C14.0414 15.777 15.6358 14.1851 15.6358 12.2219V7.77809C15.6358 5.81455 14.041 4.22298 12.0743 4.22298H7.6234ZM12.0749 5.64477H7.6234C6.4436 5.64477 5.48686 6.5999 5.48686 7.77809V12.2219C5.48686 13.3998 6.44328 14.3549 7.6234 14.3549H12.0749C13.2547 14.3549 14.2111 13.4001 14.2111 12.2219V7.77809C14.2111 6.60022 13.2547 5.64509 12.0746 5.64509L12.0749 5.64477Z" fill="black"/>
<circle cx="15" cy="15" r="5" fill="#131419"/>
<path fill-rule="evenodd" clip-rule="evenodd" d="M13.4095 14.3483L14.9999 12.7579L16.5902 14.3483L17.5147 13.4238L14.9999 10.909L12.4851 13.4238L13.4095 14.3483ZM11.8326 14.0782L10.9092 15.0016L11.8326 15.925L12.756 15.0016L11.8326 14.0782ZM14.9999 17.2445L13.4095 15.6542L12.4851 16.5786L14.9999 19.0934L17.5147 16.5786L16.5902 15.6542L14.9999 17.2445ZM18.1674 14.0783L17.244 15.0017L18.1674 15.9251L19.0908 15.0017L18.1674 14.0783ZM15.0004 14.0638L15.9378 15.0012L15.0004 15.9386L14.063 15.0012L14.2246 14.8332L14.3086 14.7556L15.0004 14.0638Z" fill="#F0B90B"/>
</svg>
