<svg width="20" height="20" viewBox="0 0 20 20" fill="none" xmlns="http://www.w3.org/2000/svg">
<circle cx="9.92126" cy="9.92126" r="9.92126" fill="white"/>
<path fill-rule="evenodd" clip-rule="evenodd" d="M8.50394 0.109082C7.58756 0.254051 6.54685 0.568336 5.75724 0.938638C3.79323 1.85951 2.00669 3.60962 1.02504 5.57427C0.422677 6.77965 0 8.60233 0 9.99395C0 11.3856 0.422677 13.2083 1.02504 14.4136C1.96874 16.3023 3.69551 18.0301 5.58299 18.9743C6.78764 19.5771 8.60921 20 10 20C11.3908 20 13.2124 19.5771 14.417 18.9743C16.3045 18.0301 18.0313 16.3023 18.975 14.4136C19.5773 13.2083 20 11.3856 20 9.99395C20 8.60233 19.5773 6.77965 18.975 5.57427C17.9933 3.60962 16.2068 1.85951 14.2428 0.938638C12.5061 0.124288 10.3645 -0.185269 8.50394 0.109082ZM11.6985 1.05469C12.9 1.27175 14.2412 1.84068 15.2756 2.57199C15.9707 3.06347 17.0443 4.16279 17.505 4.85486C18.0398 5.65818 18.5553 6.78642 18.7993 7.68728C18.9916 8.39708 19.008 8.57829 19.008 9.99395C19.008 11.4096 18.9916 11.5908 18.7993 12.3006C17.946 15.451 15.4537 17.9447 12.3053 18.7986C11.5989 18.9902 11.4088 19.0077 10 19.0108C8.5574 19.014 8.41724 19.001 7.68173 18.7958C6.09102 18.3522 4.72094 17.5573 3.5811 16.4167C2.25622 15.0911 1.40134 13.4813 1.05165 11.6541C0.895118 10.8358 0.879055 9.31134 1.01843 8.49699C1.63047 4.92034 4.28126 2.04947 7.79173 1.16121C9.03299 0.847166 10.3509 0.811238 11.6985 1.05469ZM9.29134 1.37875C7.87031 1.50615 6.34945 2.04679 5.15748 2.84838C4.49268 3.29542 3.37976 4.40207 2.9074 5.08579C0.597953 8.4286 0.934961 12.929 3.71504 15.8706C4.83961 17.0605 6.20795 17.8893 7.76866 18.3258C8.48827 18.5271 8.64685 18.5423 10 18.5398C11.2536 18.5376 11.5465 18.5129 12.1006 18.3623C15.1704 17.5285 17.522 15.1865 18.3527 12.1362C18.5653 11.3554 18.6464 9.46742 18.505 8.58988C17.9513 5.15323 15.2309 2.29552 11.8157 1.56319C11.1138 1.41263 9.9015 1.32407 9.29134 1.37875ZM12.5354 5.86918L14.9606 7.25955L14.9598 10.0646L14.9589 12.8697L13.8968 13.4751L12.8346 14.0805L12.8337 11.2691L12.8328 8.45759L11.9872 7.9751L11.1417 7.4926L11.1024 8.69805L11.063 9.90358L10.0197 9.30913L8.97638 8.71476L8.97709 6.89224L8.9778 5.06972L9.50858 4.77655C9.80047 4.61527 10.0554 4.48235 10.0748 4.48109C10.0943 4.47983 11.2016 5.10446 12.5354 5.86918ZM7.32283 8.84389V11.6332L8.16929 12.1107L9.01575 12.5881L9.0374 11.3761L9.05906 10.1641L10.1192 10.7684L11.1794 11.3727L11.1802 13.1978L11.1811 15.0228L10.6762 15.3054C10.3985 15.4607 10.1239 15.5858 10.066 15.5833C10.008 15.5809 8.89764 14.9678 7.59843 14.221L5.23622 12.8632L5.21551 10.0578L5.19488 7.25238L6.19976 6.66162C6.75252 6.33678 7.23134 6.06725 7.26378 6.06276C7.29622 6.05827 7.32283 7.30973 7.32283 8.84389Z" fill="url(#paint0_linear_3977_53068)"/>
<defs>
<linearGradient id="paint0_linear_3977_53068" x1="10" y1="0" x2="10" y2="20" gradientUnits="userSpaceOnUse">
<stop stop-color="#10402C"/>
<stop offset="0.146981" stop-color="#23184C"/>
<stop offset="0.489895"/>
<stop offset="0.814895" stop-color="#23184C"/>
<stop offset="1" stop-color="#10402C"/>
</linearGradient>
</defs>
</svg>
