<svg width="20" height="20" viewBox="0 0 20 20" fill="none" xmlns="http://www.w3.org/2000/svg">
<rect width="20" height="20" fill="#FED85A"/>
<rect x="0.959961" y="9.03998" width="2.4" height="5.44" fill="white"/>
<rect x="4.87988" y="9.03998" width="2.4" height="5.44" fill="white"/>
<circle cx="2.15996" cy="6.72002" r="1.2" fill="white"/>
<circle cx="6.07988" cy="6.72002" r="1.2" fill="white"/>
<path fill-rule="evenodd" clip-rule="evenodd" d="M18.3183 14.48C18.5473 14.2208 18.7519 13.9396 18.9287 13.64L16.9816 12.4C16.4581 13.3536 15.4444 14 14.2798 14C12.5788 14 11.1998 12.621 11.1998 10.92C11.1998 9.21897 12.5788 7.84 14.2798 7.84C15.4116 7.84 16.4008 8.45043 16.9361 9.36L18.9598 8.17349C18.0211 6.54003 16.2589 5.44 14.2398 5.44C11.2354 5.44 8.7998 7.87557 8.7998 10.88C8.7998 12.2605 9.31399 13.5208 10.1613 14.48H18.3183Z" fill="white"/>
</svg>
