<svg width="32" height="32" viewBox="0 0 32 32" fill="none" xmlns="http://www.w3.org/2000/svg">
<rect width="32" height="32" rx="3" fill="#9F55DA"/>
<path d="M20.0455 13.2727C20.0455 17.0132 17.0132 20.0455 13.2727 20.0455C9.53225 20.0455 6.5 17.0132 6.5 13.2727C6.5 9.53225 9.53225 6.5 13.2727 6.5C17.0132 6.5 20.0455 9.53225 20.0455 13.2727Z" fill="#9F55DA" stroke="white"/>
<g clip-path="url(#clip0)">
<path d="M9.95728 9.74341H14.6632C15.1312 9.74341 15.58 9.92933 15.911 10.2603C16.2419 10.5912 16.4279 11.0401 16.4279 11.5081C16.4279 11.9761 16.2419 12.425 15.911 12.7559C15.58 13.0869 15.1312 13.2728 14.6632 13.2728C15.1312 13.2728 15.58 13.4587 15.911 13.7897C16.2419 14.1206 16.4279 14.5695 16.4279 15.0375C16.4279 15.5056 16.2419 15.9544 15.911 16.2854C15.58 16.6163 15.1312 16.8022 14.6632 16.8022H9.95728" stroke="white" stroke-width="0.8" stroke-linecap="round" stroke-linejoin="round"/>
<path d="M11.1338 9.74341V16.8022" stroke="white" stroke-width="0.8" stroke-linecap="round" stroke-linejoin="round"/>
<path d="M11.1338 13.2727H14.6632" stroke="white" stroke-width="0.8" stroke-linecap="round" stroke-linejoin="round"/>
<path d="M11.7219 7.97876V9.74347" stroke="white" stroke-width="0.8" stroke-linecap="round" stroke-linejoin="round"/>
<path d="M14.075 7.97876V9.74347" stroke="white" stroke-width="0.8" stroke-linecap="round" stroke-linejoin="round"/>
<path d="M11.7219 16.8022V18.567" stroke="white" stroke-width="0.8" stroke-linecap="round" stroke-linejoin="round"/>
<path d="M14.075 16.8022V18.567" stroke="white" stroke-width="0.8" stroke-linecap="round" stroke-linejoin="round"/>
</g>
<circle cx="18.7227" cy="18.7273" r="6.77273" fill="#9F55DA" stroke="white"/>
<path d="M15.4072 18.7275L18.9366 13.4333L22.466 18.7275L18.9366 24.0216L15.4072 18.7275Z" stroke="white" stroke-width="0.8" stroke-linecap="round" stroke-linejoin="round"/>
<path d="M15.4072 18.7274L18.9366 16.9626L22.466 18.7274L18.9366 19.9038L15.4072 18.7274Z" stroke="white" stroke-width="0.8" stroke-linecap="round" stroke-linejoin="round"/>
<defs>
<clipPath id="clip0">
<rect width="8.18182" height="12.7273" fill="white" transform="translate(8.72729 6.90918)"/>
</clipPath>
</defs>
</svg>
