<svg width="20" height="20" viewBox="0 0 20 20" fill="none" xmlns="http://www.w3.org/2000/svg">
<path d="M10 20C15.5228 20 20 15.5228 20 10C20 4.47715 15.5228 0 10 0C4.47715 0 0 4.47715 0 10C0 15.5228 4.47715 20 10 20Z" fill="#00D4D5"/>
<path d="M10.3244 3.125V6.53562L13.2856 4.8325L10.3244 3.125Z" fill="white"/>
<path opacity="0.9" d="M13.2856 4.83249V8.24311L16.2463 6.53561L13.2856 4.83249Z" fill="white"/>
<path opacity="0.8" d="M10.3244 6.53563V9.94625L13.2856 8.24313L10.3244 6.53563ZM13.2856 8.24375V11.6538L16.2462 9.94625L13.2856 8.24375Z" fill="white"/>
<path opacity="0.8" d="M10.3244 9.94626V13.3569L13.2856 11.6538L10.3244 9.94626Z" fill="white"/>
<path d="M13.2856 11.6537V15.0644L16.2463 13.3569L13.2856 11.6537Z" fill="white"/>
<path opacity="0.4" d="M2.67062 6.42062V9.83125L5.63187 8.12375L2.67062 6.42062Z" fill="white"/>
<path opacity="0.2" d="M6.40625 7.68875V11.0994L9.3625 9.39625L6.40625 7.68875Z" fill="white"/>
<path opacity="0.3" d="M4.21126 9.84563V13.2563L7.17188 11.5488L4.21126 9.84563Z" fill="white"/>
<path opacity="0.9" d="M6.16252 12.4194V15.83L9.11877 14.1225L6.16252 12.4194Z" fill="white"/>
<path opacity="0.7" d="M10.3 13.8875V17.2987L13.2563 15.5906L10.3 13.8875Z" fill="white"/>
<path opacity="0.9" d="M6.89938 6.00436V9.41561L9.85563 7.71249L6.89938 6.00436Z" fill="white"/>
<path opacity="0.8" d="M10.3244 3.125V6.53562L7.36313 4.8325L10.3244 3.125Z" fill="white"/>
<path opacity="0.6" d="M6.89939 4.57501V7.98501L3.93752 6.27751L6.89939 4.57501Z" fill="white"/>
<path opacity="0.6" d="M9.86063 6.2625V9.67375L6.89938 7.96562L9.86063 6.2625Z" fill="white"/>
<path opacity="0.95" d="M6.39249 7.68875V11.0994L3.43124 9.39625L6.39249 7.68875Z" fill="white"/>
<path opacity="0.6" d="M10.3244 9.94626V13.3569L7.36813 11.6538L10.3244 9.94626Z" fill="white"/>
<path opacity="0.55" d="M4.21125 10.7406V14.1513L1.25 12.4431L4.21125 10.7406Z" fill="white"/>
<path d="M16.2463 6.53563V9.94625L13.2856 8.24313L16.2463 6.53563Z" fill="white"/>
<path opacity="0.95" d="M13.2856 8.24374V11.6537L10.3244 9.94624L13.2856 8.24374Z" fill="white"/>
<path opacity="0.9" d="M16.2463 9.94626V13.3569L13.2856 11.6538L16.2463 9.94626Z" fill="white"/>
<path opacity="0.7" d="M13.2856 11.6537V15.0644L10.3244 13.3569L13.2856 11.6537Z" fill="white"/>
<path opacity="0.4" d="M9.66874 13.075V16.4856L6.70811 14.7825L9.66874 13.075Z" fill="white"/>
<path d="M13.2856 4.83249V8.24311L10.3244 6.53561L13.2856 4.83249Z" fill="white"/>
</svg>
