<svg width="20" height="20" viewBox="0 0 20 20" fill="none" xmlns="http://www.w3.org/2000/svg">
<circle cx="10" cy="10" r="9" fill="white"/>
<path fill-rule="evenodd" clip-rule="evenodd" d="M10.9463 2.52879C11.8339 2.6716 12.1498 2.74965 12.6542 2.95113C15.872 4.23603 17.7997 7.35152 17.4731 10.7395C17.4299 11.1888 17.36 11.6615 17.318 11.7899C16.7547 13.5113 16.319 14.2846 15.3648 15.2566C14.3278 16.3128 13.2491 16.9282 11.6838 17.3567C11.5557 17.3917 11.1293 17.4608 10.7362 17.5101C9.17834 17.7058 7.12867 17.1957 5.89128 16.3045C5.68244 16.1542 5.49271 16.0311 5.46957 16.0311C5.44644 16.0311 5.28348 15.8998 5.10741 15.7393C3.78928 14.5378 2.97863 13.1833 2.65063 11.6342C2.44871 10.6808 2.38575 9.92078 2.47433 9.50677C2.52246 9.28163 2.5619 8.99105 2.5619 8.86101C2.5619 8.48304 2.86436 7.48576 3.19119 6.78623C3.98911 5.07821 5.53828 3.64265 7.33254 2.94848C7.85346 2.747 8.01322 2.71767 8.35582 2.76054C8.712 2.80514 8.77209 2.7923 8.84514 2.65533C8.89697 2.55827 9.07606 2.49134 9.34039 2.45705C9.73331 2.40608 10.3146 2.42723 10.9463 2.52879ZM8.92332 4.92724C8.76479 4.44724 9.0539 3.86506 9.54897 3.66716C9.99908 3.48724 10.5618 3.6344 10.8556 4.00887C11.0498 4.25627 11.086 4.89183 10.9242 5.21237C10.805 5.44872 10.2838 5.75572 9.99893 5.75751C9.54074 5.76023 9.0813 5.4056 8.92332 4.92724ZM9.9744 7.23735C9.99225 7.23735 10.2095 7.11486 10.4572 6.96521C10.7048 6.81549 10.9512 6.69292 11.0045 6.69284C11.079 6.69269 11.1016 7.06249 11.1016 8.28335C11.1016 9.15829 11.1328 9.89339 11.1708 9.91704C11.2546 9.96895 11.7293 9.76148 13.4982 8.89969C14.2402 8.53821 14.8834 8.25455 14.9276 8.26934C14.9717 8.28412 15.0186 8.36739 15.0319 8.4544C15.0517 8.58413 14.8695 8.72031 14.0225 9.20911C13.4541 9.53704 12.9654 9.80545 12.9365 9.80545C12.9076 9.80545 12.7451 9.89338 12.5753 10.0008C12.4056 10.1082 12.0657 10.3044 11.82 10.4367C11.52 10.5983 11.3448 10.6777 11.2427 10.8124C11.0846 11.0209 11.1016 11.362 11.1016 12.3456C11.1016 13.1302 11.0626 13.9389 11.0149 14.1429C10.7824 15.1374 10.2516 15.863 9.51007 16.2002C9.19915 16.3415 8.98954 16.3756 8.45667 16.3715C7.85959 16.367 7.74267 16.3405 7.31639 16.1128C6.52973 15.6925 6.16563 15.0174 6.23395 14.1057C6.28022 13.4893 6.54572 12.9102 6.9623 12.5174C7.29683 12.2019 8.35039 11.4661 8.92138 11.1489C9.20249 10.9929 9.45813 10.8281 9.4895 10.7828C9.52086 10.7374 9.54702 10.2002 9.54772 9.58903C9.54865 8.67401 9.52839 8.46973 9.4329 8.433C9.36909 8.4084 8.83629 8.59735 8.249 8.85276C7.66162 9.10817 7.14257 9.30272 7.09552 9.28506C6.96386 9.23556 7.05787 8.91323 7.23674 8.80124C7.40807 8.69401 7.74756 8.49946 8.30676 8.18817C8.4989 8.08117 8.94537 7.8235 9.29899 7.61549C9.65253 7.40755 9.95646 7.23735 9.9744 7.23735Z" fill="#F6931E"/>
<path fill-rule="evenodd" clip-rule="evenodd" d="M10.8298 0.544747C10.8579 0.673152 10.9088 0.77821 10.9427 0.77821C10.9767 0.77821 11.113 0.799922 11.2455 0.826537C11.4552 0.86856 11.4966 0.848171 11.5646 0.668872C11.6075 0.555642 11.6972 0.441945 11.764 0.416265C11.8633 0.378054 13.0813 0.664202 13.1904 0.751362C13.2077 0.765136 13.2426 0.90179 13.268 1.05486C13.3001 1.24879 13.3805 1.37292 13.533 1.46428C13.7443 1.59066 13.7571 1.58911 13.8949 1.42023C14.088 1.18342 14.3384 1.2 14.7766 1.4786C14.9786 1.607 15.1722 1.71206 15.2068 1.71206C15.2413 1.71206 15.333 1.78226 15.4105 1.86802C15.5296 2 15.537 2.05556 15.458 2.2291C15.3767 2.40794 15.3869 2.4579 15.5369 2.6179C15.7343 2.82864 15.9307 2.85323 16.0701 2.68482C16.1233 2.62062 16.1926 2.56809 16.2242 2.56809C16.3204 2.56809 16.797 2.97642 17.116 3.33198C17.417 3.6677 17.4172 3.66809 17.2836 3.89471C17.0679 4.26062 17.357 4.6593 17.7338 4.51564C17.9971 4.41533 18.1715 4.58934 18.5481 5.32802L18.8135 5.84864L18.5965 6.0221C18.3825 6.19315 18.3813 6.19899 18.5078 6.44405C18.6124 6.647 18.6827 6.69261 18.8907 6.69261C19.1116 6.69261 19.1631 6.73237 19.277 6.99113C19.3492 7.15533 19.4083 7.37595 19.4083 7.4814C19.4083 7.58685 19.446 7.71089 19.492 7.75704C19.6488 7.91424 19.5408 8.27907 19.304 8.39237C19.1031 8.48848 19.0881 8.52327 19.1365 8.78187C19.1926 9.08163 19.2926 9.19261 19.4516 9.13144C19.5046 9.11113 19.5737 9.13634 19.6053 9.18763C19.6744 9.29961 19.6725 10.7033 19.6032 10.8159C19.5764 10.8594 19.4692 10.8949 19.3649 10.8949C19.2607 10.8949 19.1754 10.9256 19.1754 10.963C19.1754 11.0005 19.1535 11.1409 19.1267 11.2749C19.0827 11.4957 19.101 11.5268 19.3208 11.6036C19.5275 11.6757 19.5636 11.7271 19.5636 11.9486C19.5636 12.0917 19.5286 12.2304 19.4859 12.2568C19.4432 12.2833 19.4066 12.3991 19.4046 12.5143C19.4026 12.6295 19.3413 12.8463 19.2685 12.9961C19.1674 13.204 19.081 13.2742 18.9035 13.2928C18.4811 13.3369 18.3362 13.7498 18.6514 14.0107L18.8261 14.1553L18.5543 14.6742C18.1682 15.4115 17.9949 15.5839 17.7382 15.486C17.7223 15.4799 17.7075 15.4742 17.6937 15.4689C17.5971 15.4316 17.5463 15.412 17.5041 15.4236C17.4573 15.4365 17.4211 15.4878 17.3446 15.5963C17.3347 15.6104 17.3241 15.6254 17.3127 15.6414C17.1599 15.8565 17.1565 15.8875 17.2686 16.0478C17.3353 16.1433 17.3898 16.2616 17.3898 16.3107C17.3898 16.4318 16.3853 17.4319 16.2636 17.4319C16.2103 17.4319 16.1233 17.3794 16.0701 17.3152C15.9355 17.1526 15.8022 17.1691 15.5593 17.3785C15.3812 17.5321 15.3634 17.5829 15.4383 17.7231C15.5723 17.9742 15.4826 18.0946 14.905 18.4385C14.3 18.7988 14.1692 18.8195 13.9286 18.5932C13.766 18.4399 13.7443 18.438 13.5161 18.5562C13.3368 18.6491 13.275 18.7353 13.2741 18.8931C13.2723 19.2114 13.2128 19.2558 12.5282 19.449C11.8416 19.6427 11.5674 19.5993 11.5674 19.2969C11.5674 19.1899 11.5149 19.1443 11.3927 19.1451C11.0341 19.1472 10.8779 19.2338 10.8537 19.4437L10.8298 19.6498L10.002 19.6718L9.17415 19.6939L9.12423 19.4658C9.04505 19.1046 8.50759 19.0138 8.38361 19.3405C8.28851 19.5912 8.11725 19.6556 7.81177 19.5557C7.67839 19.512 7.41203 19.4302 7.21989 19.3739C6.76007 19.2392 6.65689 19.1518 6.69866 18.9326C6.72405 18.7993 6.67576 18.7096 6.51785 18.5969C6.31523 18.4522 6.05539 18.4567 6.05539 18.6048C6.05539 18.6416 5.98242 18.7107 5.89314 18.7586C5.75526 18.8326 5.63788 18.7893 5.11005 18.4695L4.48922 18.0934L4.53658 17.796C4.57609 17.5482 4.55459 17.4741 4.40747 17.3511C4.18878 17.1683 4.08359 17.1628 3.9211 17.3257C3.74604 17.5012 3.52082 17.3718 2.97786 16.7839C2.56989 16.3423 2.5591 16.3194 2.67485 16.1423C2.83936 15.8907 2.82601 15.7763 2.60801 15.5711C2.45632 15.4282 2.3918 15.4111 2.26433 15.4795C2.03624 15.6018 1.90232 15.5195 1.69667 15.131C1.59629 14.9412 1.49343 14.786 1.4682 14.786C1.44289 14.786 1.37597 14.6455 1.31945 14.4739C1.22428 14.1846 1.22901 14.1486 1.38467 13.9824C1.55864 13.7969 1.61097 13.5409 1.47503 13.5409C1.43233 13.5409 1.3974 13.4883 1.3974 13.4241C1.3974 13.3469 1.32039 13.3074 1.17001 13.3074C0.902331 13.3074 0.71671 13.1446 0.653516 12.8545C0.628519 12.7398 0.561366 12.499 0.504306 12.3195C0.376444 11.9174 0.429933 11.683 0.670518 11.5913C1.01979 11.4581 0.845737 10.8171 0.460288 10.8171C0.322023 10.8171 0.310533 10.7553 0.310533 10.0097V9.20233L0.53334 9.15766C0.759176 9.11237 0.850705 8.94685 0.852879 8.57977C0.853655 8.46 0.807929 8.40467 0.70817 8.40467C0.413164 8.40467 0.350281 8.20381 0.493825 7.71961C0.51833 7.63693 0.540741 7.56086 0.561357 7.49088C0.733829 6.90546 0.780768 6.74613 0.878037 6.70456C0.914408 6.68901 0.957817 6.68993 1.01746 6.6912C1.03651 6.6916 1.05722 6.69204 1.07988 6.69198C1.30633 6.69152 1.37675 6.65214 1.45562 6.48195C1.5862 6.20008 1.57984 6.15595 1.38568 5.99837C1.1735 5.82615 1.21418 5.64949 1.61997 4.98054C1.92585 4.47634 1.95333 4.45946 2.35687 4.52802C2.44312 4.54265 2.56687 4.46584 2.66406 4.33735C2.82104 4.12981 2.82205 4.11401 2.69224 3.89362L2.55755 3.66514L3.07373 3.11658C3.52921 2.63261 3.88166 2.42498 3.88166 2.6407C3.88166 2.80934 4.20811 2.8137 4.38473 2.64739C4.52897 2.51152 4.55637 2.42163 4.52501 2.18716C4.48658 1.89992 4.49295 1.89175 4.97909 1.6014C5.48657 1.29837 5.97776 1.1551 5.97776 1.31004C5.97776 1.35696 6.04856 1.43331 6.13504 1.47969C6.34 1.58965 6.75821 1.3172 6.70425 1.10887C6.64199 0.868249 6.85696 0.704047 7.44883 0.540078C8.08884 0.36288 8.38439 0.387938 8.38439 0.619455C8.38439 0.825447 8.50278 0.880311 8.81914 0.820778C9.03868 0.779533 9.09706 0.727626 9.13433 0.5407L9.18013 0.311284H9.97944H10.7787L10.8298 0.544747ZM2.65909 6.38031C3.81148 3.94537 6.31453 2.15268 8.96664 1.8628C9.97657 1.75245 11.5975 1.88545 12.3825 2.14311C13.7399 2.58864 14.8058 3.2463 15.8269 4.26825C16.8485 5.29082 17.4294 6.31424 17.9097 7.93774C18.084 8.52685 18.106 8.74397 18.1106 9.92218C18.1152 11.126 18.0964 11.3187 17.9018 12.0618C17.7842 12.511 17.6618 12.9137 17.6298 12.9567C17.5977 12.9998 17.492 13.2276 17.3947 13.463C17.1458 14.0654 16.4763 15.0525 15.9416 15.6053C14.8715 16.7117 13.8938 17.3313 12.4578 17.8132C11.3009 18.2013 9.84436 18.2844 8.42321 18.0432C7.86378 17.9483 6.81263 17.6125 6.46297 17.4172C5.79726 17.0453 5.60954 16.9313 5.20748 16.6545C4.73524 16.3293 3.9065 15.5368 3.58239 15.1002C3.46989 14.9488 3.3602 14.8074 3.33846 14.786C3.13918 14.5896 2.66701 13.7083 2.31689 12.8794C1.9465 12.0023 1.75405 10.4329 1.86731 9.21284C1.91343 8.71619 1.98617 8.21735 2.0291 8.10436C2.07195 7.99128 2.10332 7.88973 2.09881 7.87852C2.06698 7.80008 2.36743 6.99658 2.65909 6.38031Z" fill="#F6931E"/>
<path fill-rule="evenodd" clip-rule="evenodd" d="M8.85019 0.35572C8.85019 0.29463 8.90508 0.189572 8.97215 0.122257C9.06919 0.0250583 9.28043 0 10.0047 0C10.9441 0 11.1016 0.0469259 11.1016 0.326848C11.1016 0.514085 11.2734 0.504981 11.3941 0.311284C11.4713 0.187315 11.5738 0.156031 11.8979 0.157665C12.3511 0.159922 13.3622 0.472529 13.4409 0.634786C13.4687 0.692296 13.5315 0.839922 13.5802 0.962879C13.6631 1.17206 13.6779 1.17837 13.8082 1.06016C14.0449 0.845292 14.3649 0.912996 15.0803 1.32918C15.759 1.72405 15.7993 1.7751 15.7663 2.19844C15.7475 2.43938 15.7512 2.44132 16.0262 2.33658C16.1436 2.29183 16.2979 2.28833 16.4019 2.32794C16.6498 2.42241 17.2498 2.97525 17.5048 3.3442C17.7083 3.63844 17.7192 3.7379 17.5844 4.06615C17.5369 4.18187 17.5734 4.20249 17.8279 4.2035C17.9926 4.2042 18.1631 4.23043 18.2068 4.26187C18.3227 4.34529 18.5481 4.69875 18.9133 5.36965C19.0537 5.62755 19.0487 6.02716 18.9037 6.14786C18.7222 6.29891 18.7633 6.36887 19.0843 6.45549C19.455 6.55556 19.5876 6.80903 19.7949 7.81362C19.8707 8.18047 19.7634 8.53564 19.5571 8.60132C19.3605 8.66381 19.3655 8.8716 19.5636 8.8716C19.649 8.8716 19.7863 8.93922 19.8688 9.02187C20.0017 9.1551 20.0153 9.26163 19.9889 9.96054C19.9519 10.9409 19.9195 11.0454 19.635 11.1024C19.3648 11.1566 19.3407 11.2953 19.583 11.4018C19.8146 11.5037 19.8502 11.9773 19.6779 12.6661C19.5107 13.3342 19.3726 13.5409 19.0934 13.5409C18.817 13.5409 18.7355 13.6658 18.8961 13.8437C18.9643 13.9193 19.0201 14.0759 19.0201 14.1916C19.0201 14.4429 18.7013 15.1 18.3824 15.5058C18.1872 15.7542 18.1079 15.7977 17.8491 15.7977C17.6819 15.7977 17.5451 15.81 17.5451 15.825C17.5451 15.84 17.5832 15.9619 17.6299 16.096C17.7369 16.4037 17.5768 16.6874 16.9728 17.2599C16.5344 17.6756 16.1994 17.8261 16.0489 17.6753C15.8822 17.5082 15.7387 17.5731 15.7812 17.7962C15.8477 18.1451 15.6915 18.3355 15.0323 18.7087C14.3747 19.081 13.9316 19.171 13.8468 18.9494C13.788 18.7958 13.5858 18.7988 13.5858 18.9533C13.5858 19.252 13.3506 19.5275 13.0225 19.6129C12.8413 19.6602 12.5857 19.7315 12.4546 19.7716C11.9922 19.9128 11.5905 19.8626 11.3825 19.6377L11.1914 19.4311L11.0727 19.7156L10.9542 20H9.9782H9.00212L8.91043 19.786C8.86005 19.6683 8.81021 19.5592 8.79973 19.5437C8.78932 19.5281 8.68685 19.5893 8.57211 19.6798C8.43873 19.7851 8.25148 19.8444 8.05297 19.8444C7.72505 19.8444 7.1539 19.7067 7.02969 19.5977C6.98909 19.5622 6.89554 19.5331 6.82171 19.5331C6.618 19.5331 6.44356 19.3152 6.44356 19.0606C6.44356 18.81 6.29303 18.7561 6.13303 18.9494C5.96153 19.1566 5.59122 19.0806 4.93732 18.7042C4.59154 18.5051 4.28186 18.3038 4.24918 18.2567C4.21642 18.2097 4.19794 18.0486 4.20819 17.8988C4.22635 17.6321 4.18855 17.6014 3.92048 17.6653C3.60319 17.7409 3.40204 17.6334 2.87258 17.1047L2.31114 16.5441L2.35469 16.1752L2.39832 15.8062L2.0725 15.7825C1.76771 15.7603 1.72641 15.7277 1.4307 15.2767C0.994715 14.6119 0.87415 14.229 1.0128 13.9493C1.17048 13.6314 1.15184 13.5835 0.853966 13.5409C0.594826 13.5037 0.572545 13.4749 0.373649 12.9183C0.0925391 12.132 0.088036 11.6504 0.359209 11.3984C0.548401 11.2227 0.552593 11.2051 0.417434 11.1568C0.0365652 11.0207 0 10.9188 0 9.99346C0 9.06249 0.0669974 8.8716 0.393678 8.8716C0.596068 8.8716 0.582016 8.77766 0.34935 8.57486C0.105038 8.36195 0.0927719 7.94934 0.310223 7.25424C0.526043 6.56397 0.582249 6.48374 0.890686 6.42576C1.19415 6.36872 1.21154 6.33354 1.04556 6.11354C0.879352 5.89323 0.903263 5.71751 1.1718 5.18475C1.57347 4.38786 1.74698 4.20233 2.09051 4.20233H2.38753L2.34879 3.85743C2.31378 3.54638 2.3387 3.47735 2.60265 3.15447C3.18032 2.44778 3.59139 2.2179 4.01752 2.36335C4.17325 2.4165 4.19219 2.39743 4.19219 2.18786C4.19219 1.76607 4.33426 1.59813 4.97761 1.25938C5.65644 0.901868 5.81356 0.873463 6.09351 1.05728C6.32913 1.21206 6.44356 1.14537 6.44356 0.853463C6.44356 0.589728 6.66908 0.443346 7.34892 0.265837C7.9741 0.102568 8.4385 0.120078 8.55767 0.311284C8.66985 0.491284 8.85019 0.518677 8.85019 0.35572ZM10.9427 0.77821C10.9088 0.77821 10.8579 0.673152 10.8298 0.544747L10.7787 0.311284H9.97944H9.18013L9.13433 0.5407C9.09706 0.727626 9.03868 0.779533 8.81914 0.820778C8.50278 0.880311 8.38439 0.825447 8.38439 0.619455C8.38439 0.387938 8.08884 0.36288 7.44883 0.540078C6.85696 0.704047 6.64199 0.868249 6.70425 1.10887C6.75821 1.3172 6.34 1.58965 6.13504 1.47969C6.04856 1.43331 5.97776 1.35696 5.97776 1.31004C5.97776 1.1551 5.48657 1.29837 4.97909 1.6014C4.49295 1.89175 4.48658 1.89992 4.52501 2.18716C4.55637 2.42163 4.52897 2.51152 4.38473 2.64739C4.20811 2.8137 3.88166 2.80934 3.88166 2.6407C3.88166 2.42498 3.52921 2.63261 3.07373 3.11658L2.55755 3.66514L2.69224 3.89362C2.82205 4.11401 2.82104 4.12981 2.66406 4.33735C2.56687 4.46584 2.44312 4.54265 2.35687 4.52802C1.95333 4.45946 1.92585 4.47634 1.61997 4.98054C1.21418 5.64949 1.1735 5.82615 1.38568 5.99837C1.57984 6.15595 1.5862 6.20008 1.45562 6.48195C1.37675 6.65214 1.30633 6.69152 1.07988 6.69198C1.05722 6.69204 1.03651 6.6916 1.01746 6.6912C0.957817 6.68993 0.914408 6.68901 0.878037 6.70456C0.780768 6.74613 0.733829 6.90546 0.561357 7.49088C0.540741 7.56086 0.51833 7.63693 0.493825 7.71961C0.350281 8.20381 0.413164 8.40467 0.70817 8.40467C0.807929 8.40467 0.853655 8.46 0.852879 8.57977C0.850705 8.94685 0.759176 9.11237 0.53334 9.15766L0.310533 9.20233V10.0097C0.310533 10.7553 0.322023 10.8171 0.460288 10.8171C0.845737 10.8171 1.01979 11.4581 0.670518 11.5913C0.429933 11.683 0.376444 11.9174 0.504306 12.3195C0.561366 12.499 0.628519 12.7398 0.653516 12.8545C0.71671 13.1446 0.902331 13.3074 1.17001 13.3074C1.32039 13.3074 1.3974 13.3469 1.3974 13.4241C1.3974 13.4883 1.43233 13.5409 1.47503 13.5409C1.61097 13.5409 1.55864 13.7969 1.38467 13.9824C1.22901 14.1486 1.22428 14.1846 1.31945 14.4739C1.37597 14.6455 1.44289 14.786 1.4682 14.786C1.49343 14.786 1.59629 14.9412 1.69667 15.131C1.90232 15.5195 2.03624 15.6018 2.26433 15.4795C2.3918 15.4111 2.45632 15.4282 2.60801 15.5711C2.82601 15.7763 2.83936 15.8907 2.67485 16.1423C2.5591 16.3194 2.56989 16.3423 2.97786 16.7839C3.52082 17.3718 3.74604 17.5012 3.9211 17.3257C4.08359 17.1628 4.18878 17.1683 4.40747 17.3511C4.55459 17.4741 4.57609 17.5482 4.53658 17.796L4.48922 18.0934L5.11005 18.4695C5.63788 18.7893 5.75526 18.8326 5.89314 18.7586C5.98242 18.7107 6.05539 18.6416 6.05539 18.6048C6.05539 18.4567 6.31523 18.4522 6.51785 18.5969C6.67576 18.7096 6.72405 18.7993 6.69866 18.9326C6.65689 19.1518 6.76007 19.2392 7.21989 19.3739C7.41203 19.4302 7.67839 19.512 7.81177 19.5557C8.11725 19.6556 8.28851 19.5912 8.38361 19.3405C8.50759 19.0138 9.04505 19.1046 9.12423 19.4658L9.17415 19.6939L10.002 19.6718L10.8298 19.6498L10.8537 19.4437C10.8779 19.2338 11.0341 19.1472 11.3927 19.1451C11.5149 19.1443 11.5674 19.1899 11.5674 19.2969C11.5674 19.5993 11.8416 19.6427 12.5282 19.449C13.2128 19.2558 13.2723 19.2114 13.2741 18.8931C13.275 18.7353 13.3368 18.6491 13.5161 18.5562C13.7443 18.438 13.766 18.4399 13.9286 18.5932C14.1692 18.8195 14.3 18.7988 14.905 18.4385C15.4826 18.0946 15.5723 17.9742 15.4383 17.7231C15.3634 17.5829 15.3812 17.5321 15.5593 17.3785C15.8022 17.1691 15.9355 17.1526 16.0701 17.3152C16.1233 17.3794 16.2103 17.4319 16.2636 17.4319C16.3853 17.4319 17.3898 16.4318 17.3898 16.3107C17.3898 16.2616 17.3353 16.1433 17.2686 16.0478C17.1565 15.8875 17.1599 15.8565 17.3127 15.6414C17.3241 15.6254 17.3347 15.6104 17.3446 15.5963C17.4211 15.4878 17.4573 15.4365 17.5041 15.4236C17.5463 15.412 17.5971 15.4316 17.6937 15.4689C17.7075 15.4742 17.7223 15.4799 17.7382 15.486C17.9949 15.5839 18.1682 15.4115 18.5543 14.6742L18.8261 14.1553L18.6514 14.0107C18.3362 13.7498 18.4811 13.3369 18.9035 13.2928C19.081 13.2742 19.1674 13.204 19.2685 12.9961C19.3413 12.8463 19.4026 12.6295 19.4046 12.5143C19.4066 12.3991 19.4432 12.2833 19.4859 12.2568C19.5286 12.2304 19.5636 12.0917 19.5636 11.9486C19.5636 11.7271 19.5275 11.6757 19.3208 11.6036C19.101 11.5268 19.0827 11.4957 19.1267 11.2749C19.1535 11.1409 19.1754 11.0005 19.1754 10.963C19.1754 10.9256 19.2607 10.8949 19.3649 10.8949C19.4692 10.8949 19.5764 10.8594 19.6032 10.8159C19.6725 10.7033 19.6744 9.29961 19.6053 9.18763C19.5737 9.13634 19.5046 9.11113 19.4516 9.13144C19.2926 9.19261 19.1926 9.08163 19.1365 8.78187C19.0881 8.52327 19.1031 8.48848 19.304 8.39237C19.5408 8.27907 19.6488 7.91424 19.492 7.75704C19.446 7.71089 19.4083 7.58685 19.4083 7.4814C19.4083 7.37595 19.3492 7.15533 19.277 6.99113C19.1631 6.73237 19.1116 6.69261 18.8907 6.69261C18.6827 6.69261 18.6124 6.647 18.5078 6.44405C18.3813 6.19899 18.3825 6.19315 18.5965 6.0221L18.8135 5.84864L18.5481 5.32802C18.1715 4.58934 17.9971 4.41533 17.7338 4.51564C17.357 4.6593 17.0679 4.26062 17.2836 3.89471C17.4172 3.66809 17.417 3.6677 17.116 3.33198C16.797 2.97642 16.3204 2.56809 16.2242 2.56809C16.1926 2.56809 16.1233 2.62062 16.0701 2.68482C15.9307 2.85323 15.7343 2.82864 15.5369 2.6179C15.3869 2.4579 15.3767 2.40794 15.458 2.2291C15.537 2.05556 15.5296 2 15.4105 1.86802C15.333 1.78226 15.2413 1.71206 15.2068 1.71206C15.1722 1.71206 14.9786 1.607 14.7766 1.4786C14.3384 1.2 14.088 1.18342 13.8949 1.42023C13.7571 1.58911 13.7443 1.59066 13.533 1.46428C13.3805 1.37292 13.3001 1.24879 13.268 1.05486C13.2426 0.90179 13.2077 0.765136 13.1904 0.751362C13.0813 0.664202 11.8633 0.378054 11.764 0.416265C11.6972 0.441945 11.6075 0.555642 11.5646 0.668872C11.4966 0.848171 11.4552 0.86856 11.2455 0.826537C11.113 0.799922 10.9767 0.77821 10.9427 0.77821Z" fill="#F6931E"/>
<path d="M9.51799 12.8955C9.4586 13.8168 9.26855 14.3546 8.85663 14.7675C8.64384 14.9809 8.54975 15.0191 8.24255 15.017C7.82489 15.0142 7.68554 14.9289 7.49549 14.5602C7.14839 13.887 7.67242 12.9714 8.84538 12.2016C9.56356 11.7304 9.59135 11.7589 9.51799 12.8955Z" fill="#F6931E"/>
<path d="M7.33254 2.94848C7.85346 2.747 8.01322 2.71767 8.35582 2.76054C8.712 2.80514 8.77209 2.7923 8.84514 2.65533C8.89697 2.55827 9.07606 2.49134 9.34039 2.45705C8.35701 2.52198 7.63978 2.77728 7.33254 2.94848Z" fill="#F6931E"/>
</svg>
