<svg width="20" height="20" viewBox="0 0 20 20" fill="none" xmlns="http://www.w3.org/2000/svg">
<path d="M16.9934 14.6907L16.9985 16.5254L14.1829 18.1509L14.1777 16.3162L16.9934 14.6907V14.6907Z" fill="#3C1A26"/>
<path d="M14.1816 18.1509L9.20502 15.2582L9.19922 13.4235L14.1764 16.3162L14.1816 18.1509H14.1816Z" fill="#29121A"/>
<path d="M14.1764 16.3163L9.19922 13.4235L12.0149 11.7981L16.9921 14.6908L14.1764 16.3163V16.3163Z" fill="#421D2A"/>
<path d="M13.7662 16.5397L13.7713 18.3744L10.9563 19.9999L10.9512 18.1652L13.7662 16.5397V16.5397Z" fill="#3C1A26"/>
<path d="M10.9559 20.0001L5.97875 17.1073L5.97363 15.2726L10.9508 18.1653L10.9559 20.0001Z" fill="#29121A"/>
<path d="M10.9508 18.1653L5.97363 15.2726L8.78931 13.6471L13.7659 16.5398L10.9508 18.1653H10.9508Z" fill="#421D2A"/>
<path d="M16.9025 11.5215L16.9102 14.1382L10.0783 18.0824L10.0713 15.4651L16.9025 11.5215Z" fill="#DB5B54"/>
<mask id="mask0_4230_55346" style="mask-type:alpha" maskUnits="userSpaceOnUse" x="10" y="11" width="7" height="8">
<path d="M16.9025 11.5215L16.9102 14.1382L10.0783 18.0824L10.0713 15.4651L16.9025 11.5215Z" fill="#DB5B54"/>
</mask>
<g mask="url(#mask0_4230_55346)">
<path opacity="0.1" fill-rule="evenodd" clip-rule="evenodd" d="M6.19824 2.53626C6.24576 2.52727 6.29453 2.51123 6.3414 2.49902C10.9482 6.06775 14.7563 10.2072 17.6401 14.9C20.4911 19.5343 22.4857 24.5732 24.1766 29.6396L24.0014 29.7616C22.288 24.6932 20.2824 19.6486 17.4346 15.0014C14.5573 10.3002 10.7729 6.13578 6.19824 2.53626Z" fill="#650028"/>
<path opacity="0.1" fill-rule="evenodd" clip-rule="evenodd" d="M5.65527 2.66915C5.70535 2.65567 5.75287 2.64732 5.79971 2.63513C10.2813 6.31169 14.0125 10.5346 16.8776 15.2633C19.7132 19.9433 21.7514 24.9969 23.5219 30.0697C23.4577 30.1089 23.4013 30.1442 23.339 30.1801C21.546 25.1086 19.4968 20.0537 16.6664 15.3603C13.8076 10.6193 10.1035 6.3746 5.65527 2.66915Z" fill="#E0FFCB"/>
<path opacity="0.1" fill-rule="evenodd" clip-rule="evenodd" d="M3.42676 3.39079C3.74774 3.26753 4.06873 3.1462 4.40255 3.04541C8.5253 7.00443 12.0125 11.4251 14.8082 16.2437C17.579 21.0206 19.7264 26.0947 21.6985 31.1637C21.2408 31.4147 20.7831 31.6657 20.3273 31.9129C18.2242 26.858 16.0196 21.7877 13.3067 16.955C10.5581 12.0609 7.24194 7.508 3.42676 3.39079Z" fill="#98338E"/>
<path opacity="0.1" fill-rule="evenodd" clip-rule="evenodd" d="M3.42676 3.39065C3.47106 3.37203 3.51535 3.35405 3.55515 3.34058C7.40538 7.42588 10.7466 11.9626 13.5057 16.8515C16.2322 21.683 18.4315 26.7545 20.5173 31.81C20.4531 31.846 20.3889 31.8806 20.3247 31.9127C18.2216 26.8579 16.0171 21.7876 13.3041 16.9548C10.5564 12.0608 7.24101 7.508 3.42676 3.39065Z" fill="#650028"/>
<path opacity="0.1" fill-rule="evenodd" clip-rule="evenodd" d="M2.93945 3.57559C2.98375 3.55762 3.02612 3.54414 3.06784 3.52551C6.78265 7.718 10.0256 12.3058 12.7385 17.2065C15.4252 22.0611 17.6508 27.1237 19.8002 32.1683C19.7392 32.2004 19.6718 32.2325 19.6076 32.2646C17.4442 27.2239 15.2062 22.167 12.5318 17.3067C9.83305 12.4008 6.61729 7.79752 2.93945 3.57559Z" fill="#E0FFCB"/>
<path opacity="0.1" fill-rule="evenodd" clip-rule="evenodd" d="M4.77539 2.92855C4.82224 2.91634 4.86719 2.90158 4.91599 2.88489C9.17482 6.74248 12.757 11.0906 15.5823 15.8809C18.38 20.6251 20.4883 25.6941 22.3872 30.7689C22.3294 30.8067 22.2665 30.8433 22.2049 30.8825C20.2854 25.8064 18.1688 20.7394 15.3743 15.9811C12.5554 11.1862 8.99762 6.81505 4.77539 2.92855Z" fill="#E0FFCB"/>
<path opacity="0.1" fill-rule="evenodd" clip-rule="evenodd" d="M4.91797 2.88485C4.96568 2.87283 5.01245 2.85739 5.05793 2.83862C9.3482 6.67182 12.958 11 15.7878 15.7769C18.5919 20.5133 20.6899 25.5804 22.5645 30.6539C22.5093 30.6905 22.4483 30.7297 22.3854 30.7662C20.4883 25.6947 18.3801 20.6231 15.5805 15.879C12.7571 11.0905 9.17488 6.74247 4.91797 2.88485Z" fill="#650028"/>
<path opacity="0.1" fill-rule="evenodd" clip-rule="evenodd" d="M4.26172 3.08842C4.31048 3.07237 4.35736 3.06017 4.40228 3.04541C8.52568 7.00443 12.0129 11.4251 14.8086 16.2437C17.5794 21.0206 19.7268 26.0947 21.6989 31.1637C21.6347 31.1964 21.5705 31.233 21.5063 31.2664C19.5162 26.1949 17.3618 21.1265 14.5974 16.3361C11.8145 11.5104 8.34847 7.07635 4.26172 3.08842Z" fill="#650028"/>
<path opacity="0.1" fill-rule="evenodd" clip-rule="evenodd" d="M3.84277 3.23156C3.88386 3.21487 3.92944 3.2001 3.97116 3.18213C7.93302 7.17331 11.3569 11.6646 14.156 16.5422C16.9081 21.3479 19.0748 26.4215 21.1034 31.4847C21.0424 31.5245 20.9815 31.5559 20.9179 31.5893C18.8707 26.5261 16.6886 21.4552 13.9493 16.641C11.1639 11.7599 7.7677 7.25382 3.84277 3.23156Z" fill="#985B00"/>
<path opacity="0.1" fill-rule="evenodd" clip-rule="evenodd" d="M-5.31995 24.1354C-5.3347 24.0808 -5.34883 24.0294 -5.3623 23.9774C-0.861451 20.7676 3.80053 18.1226 8.61465 15.818C13.4551 13.5005 18.415 11.3313 23.4005 9.13379C23.4455 9.19027 23.4911 9.24615 23.5334 9.29683C18.5479 11.5123 13.5829 13.7001 8.72573 16.0183C3.89169 18.3262 -0.792767 20.9525 -5.31995 24.1354Z" fill="#E0FFCB"/>
<path opacity="0.1" fill-rule="evenodd" clip-rule="evenodd" d="M2.14355 3.92741C2.18656 3.90623 2.22765 3.88953 2.26746 3.86963C5.74167 8.23086 8.81203 12.899 11.4406 17.8164C14.0611 22.7018 16.3311 27.7458 18.5812 32.7622C18.5119 32.7904 18.4496 32.8193 18.3803 32.8475C16.1173 27.8459 13.8441 22.802 11.2326 17.9121C8.6155 12.995 5.57431 8.31566 2.14355 3.92741Z" fill="#E0FFCB"/>
<path opacity="0.1" fill-rule="evenodd" clip-rule="evenodd" d="M2.26465 3.86954C2.30766 3.84835 2.35131 3.83038 2.39304 3.8092C5.90378 8.1467 9.00109 12.803 11.6445 17.7175C14.2766 22.5965 16.5388 27.6456 18.7704 32.6619C18.7062 32.6985 18.6458 32.7261 18.5778 32.7621C16.3309 27.7451 14.0609 22.7017 11.4403 17.8164C8.81094 12.8988 5.73974 8.23066 2.26465 3.86954Z" fill="#650028"/>
<path opacity="0.1" fill-rule="evenodd" clip-rule="evenodd" d="M1.67773 4.1488C1.71901 4.12596 1.76193 4.1062 1.80613 4.08972C5.12628 8.54275 8.08923 13.2513 10.6672 18.1714C13.2441 23.0664 15.5366 28.0917 17.84 33.0786C17.7706 33.1075 17.7026 33.1389 17.6397 33.1646C15.3202 28.1835 13.0246 23.164 10.4586 18.2638C7.89295 13.3434 4.95756 8.62487 1.67773 4.1488Z" fill="#650028"/>
<path opacity="0.1" fill-rule="evenodd" clip-rule="evenodd" d="M-5.07119 25.1233C-5.08403 25.0752 -5.09555 25.0193 -5.11035 24.9648C-0.442567 21.9475 4.37415 19.4028 9.29225 17.0801C14.2284 14.7498 19.2235 12.4721 24.2264 10.1545C24.2682 10.2123 24.306 10.2681 24.3465 10.3227C19.3475 12.6569 14.3439 14.9507 9.39689 17.2842C4.46211 19.6088 -0.380294 22.1324 -5.07119 25.1233Z" fill="#E0FFCB"/>
<path opacity="0.1" fill-rule="evenodd" clip-rule="evenodd" d="M-5.11221 24.9648C-5.12437 24.9166 -5.13917 24.8621 -5.15137 24.8062C-0.510551 21.7556 4.2856 19.1948 9.18384 16.874C14.1123 14.5405 19.1029 12.2865 24.0975 9.99084C24.1373 10.0428 24.179 10.1 24.2201 10.1545C19.2236 12.472 14.2278 14.7497 9.29172 17.0801C4.37357 19.4028 -0.44314 21.9456 -5.11221 24.9648V24.9648Z" fill="#650028"/>
<path opacity="0.1" fill-rule="evenodd" clip-rule="evenodd" d="M6.19824 2.53626C6.24576 2.52727 6.29453 2.51123 6.3414 2.49902C10.9482 6.06775 14.7563 10.2072 17.6401 14.9C20.4911 19.5343 22.4857 24.5732 24.1766 29.6396L24.0014 29.7616C22.288 24.6932 20.2824 19.6486 17.4346 15.0014C14.5573 10.3002 10.7729 6.13578 6.19824 2.53626Z" fill="#650028"/>
<path opacity="0.1" fill-rule="evenodd" clip-rule="evenodd" d="M5.65527 2.66915C5.70535 2.65567 5.75287 2.64732 5.79971 2.63513C10.2813 6.31169 14.0125 10.5346 16.8776 15.2633C19.7132 19.9433 21.7514 24.9969 23.5219 30.0697C23.4577 30.1089 23.4013 30.1442 23.339 30.1801C21.546 25.1086 19.4968 20.0537 16.6664 15.3603C13.8076 10.6193 10.1035 6.3746 5.65527 2.66915Z" fill="#E0FFCB"/>
<path opacity="0.1" fill-rule="evenodd" clip-rule="evenodd" d="M3.42676 3.39079C3.74774 3.26753 4.06873 3.1462 4.40255 3.04541C8.5253 7.00443 12.0125 11.4251 14.8082 16.2437C17.579 21.0206 19.7264 26.0947 21.6985 31.1637C21.2408 31.4147 20.7831 31.6657 20.3273 31.9129C18.2242 26.858 16.0196 21.7877 13.3067 16.955C10.5581 12.0609 7.24194 7.508 3.42676 3.39079Z" fill="#98338E"/>
<path opacity="0.1" fill-rule="evenodd" clip-rule="evenodd" d="M3.42676 3.39065C3.47106 3.37203 3.51535 3.35405 3.55515 3.34058C7.40538 7.42588 10.7466 11.9626 13.5057 16.8515C16.2322 21.683 18.4315 26.7545 20.5173 31.81C20.4531 31.846 20.3889 31.8806 20.3247 31.9127C18.2216 26.8579 16.0171 21.7876 13.3041 16.9548C10.5564 12.0608 7.24101 7.508 3.42676 3.39065Z" fill="#650028"/>
<path opacity="0.1" fill-rule="evenodd" clip-rule="evenodd" d="M2.93945 3.57559C2.98375 3.55762 3.02612 3.54414 3.06784 3.52551C6.78265 7.718 10.0256 12.3058 12.7385 17.2065C15.4252 22.0611 17.6508 27.1237 19.8002 32.1683C19.7392 32.2004 19.6718 32.2325 19.6076 32.2646C17.4442 27.2239 15.2062 22.167 12.5318 17.3067C9.83305 12.4008 6.61729 7.79752 2.93945 3.57559Z" fill="#E0FFCB"/>
<path opacity="0.1" fill-rule="evenodd" clip-rule="evenodd" d="M4.77539 2.92855C4.82224 2.91634 4.86719 2.90158 4.91599 2.88489C9.17482 6.74248 12.757 11.0906 15.5823 15.8809C18.38 20.6251 20.4883 25.6941 22.3872 30.7689C22.3294 30.8067 22.2665 30.8433 22.2049 30.8825C20.2854 25.8064 18.1688 20.7394 15.3743 15.9811C12.5554 11.1862 8.99762 6.81505 4.77539 2.92855Z" fill="#E0FFCB"/>
<path opacity="0.1" fill-rule="evenodd" clip-rule="evenodd" d="M4.91797 2.88485C4.96568 2.87283 5.01245 2.85739 5.05793 2.83862C9.3482 6.67182 12.958 11 15.7878 15.7769C18.5919 20.5133 20.6899 25.5804 22.5645 30.6539C22.5093 30.6905 22.4483 30.7297 22.3854 30.7662C20.4883 25.6947 18.3801 20.6231 15.5805 15.879C12.7571 11.0905 9.17488 6.74247 4.91797 2.88485Z" fill="#650028"/>
<path opacity="0.1" fill-rule="evenodd" clip-rule="evenodd" d="M4.26172 3.08842C4.31048 3.07237 4.35736 3.06017 4.40228 3.04541C8.52568 7.00443 12.0129 11.4251 14.8086 16.2437C17.5794 21.0206 19.7268 26.0947 21.6989 31.1637C21.6347 31.1964 21.5705 31.233 21.5063 31.2664C19.5162 26.1949 17.3618 21.1265 14.5974 16.3361C11.8145 11.5104 8.34847 7.07635 4.26172 3.08842Z" fill="#650028"/>
<path opacity="0.1" fill-rule="evenodd" clip-rule="evenodd" d="M3.84277 3.23156C3.88386 3.21487 3.92944 3.2001 3.97116 3.18213C7.93302 7.17331 11.3569 11.6646 14.156 16.5422C16.9081 21.3479 19.0748 26.4215 21.1034 31.4847C21.0424 31.5245 20.9815 31.5559 20.9179 31.5893C18.8707 26.5261 16.6886 21.4552 13.9493 16.641C11.1639 11.7599 7.7677 7.25382 3.84277 3.23156Z" fill="#985B00"/>
<path opacity="0.1" fill-rule="evenodd" clip-rule="evenodd" d="M-5.31995 24.1354C-5.3347 24.0808 -5.34883 24.0294 -5.3623 23.9774C-0.861451 20.7676 3.80053 18.1226 8.61465 15.818C13.4551 13.5005 18.415 11.3313 23.4005 9.13379C23.4455 9.19027 23.4911 9.24615 23.5334 9.29683C18.5479 11.5123 13.5829 13.7001 8.72573 16.0183C3.89169 18.3262 -0.792767 20.9525 -5.31995 24.1354Z" fill="#E0FFCB"/>
<path opacity="0.1" fill-rule="evenodd" clip-rule="evenodd" d="M2.14355 3.92741C2.18656 3.90623 2.22765 3.88953 2.26746 3.86963C5.74167 8.23086 8.81203 12.899 11.4406 17.8164C14.0611 22.7018 16.3311 27.7458 18.5812 32.7622C18.5119 32.7904 18.4496 32.8193 18.3803 32.8475C16.1173 27.8459 13.8441 22.802 11.2326 17.9121C8.6155 12.995 5.57431 8.31566 2.14355 3.92741Z" fill="#E0FFCB"/>
<path opacity="0.1" fill-rule="evenodd" clip-rule="evenodd" d="M2.26465 3.86954C2.30766 3.84835 2.35131 3.83038 2.39304 3.8092C5.90378 8.1467 9.00109 12.803 11.6445 17.7175C14.2766 22.5965 16.5388 27.6456 18.7704 32.6619C18.7062 32.6985 18.6458 32.7261 18.5778 32.7621C16.3309 27.7451 14.0609 22.7017 11.4403 17.8164C8.81094 12.8988 5.73974 8.23066 2.26465 3.86954Z" fill="#650028"/>
<path opacity="0.1" fill-rule="evenodd" clip-rule="evenodd" d="M1.67773 4.1488C1.71901 4.12596 1.76193 4.1062 1.80613 4.08972C5.12628 8.54275 8.08923 13.2513 10.6672 18.1714C13.2441 23.0664 15.5366 28.0917 17.84 33.0786C17.7706 33.1075 17.7026 33.1389 17.6397 33.1646C15.3202 28.1835 13.0246 23.164 10.4586 18.2638C7.89295 13.3434 4.95756 8.62487 1.67773 4.1488Z" fill="#650028"/>
<path opacity="0.1" fill-rule="evenodd" clip-rule="evenodd" d="M-5.07119 25.1233C-5.08403 25.0752 -5.09555 25.0193 -5.11035 24.9648C-0.442567 21.9475 4.37415 19.4028 9.29225 17.0801C14.2284 14.7498 19.2235 12.4721 24.2264 10.1545C24.2682 10.2123 24.306 10.2681 24.3465 10.3227C19.3475 12.6569 14.3439 14.9507 9.39689 17.2842C4.46211 19.6088 -0.380294 22.1324 -5.07119 25.1233Z" fill="#E0FFCB"/>
<path opacity="0.1" fill-rule="evenodd" clip-rule="evenodd" d="M-5.11221 24.9648C-5.12437 24.9166 -5.13917 24.8621 -5.15137 24.8062C-0.510551 21.7556 4.2856 19.1948 9.18384 16.874C14.1123 14.5405 19.1029 12.2865 24.0975 9.99084C24.1373 10.0428 24.179 10.1 24.2201 10.1545C19.2236 12.472 14.2278 14.7497 9.29172 17.0801C4.37357 19.4028 -0.44314 21.9456 -5.11221 24.9648V24.9648Z" fill="#650028"/>
<path opacity="0.1" fill-rule="evenodd" clip-rule="evenodd" d="M6.19824 2.53626C6.24576 2.52727 6.29453 2.51123 6.3414 2.49902C10.9482 6.06775 14.7563 10.2072 17.6401 14.9C20.4911 19.5343 22.4857 24.5732 24.1766 29.6396L24.0014 29.7616C22.288 24.6932 20.2824 19.6486 17.4346 15.0014C14.5573 10.3002 10.7729 6.13578 6.19824 2.53626Z" fill="#650028"/>
<path opacity="0.1" fill-rule="evenodd" clip-rule="evenodd" d="M5.65527 2.66915C5.70535 2.65567 5.75287 2.64732 5.79971 2.63513C10.2813 6.31169 14.0125 10.5346 16.8776 15.2633C19.7132 19.9433 21.7514 24.9969 23.5219 30.0697C23.4577 30.1089 23.4013 30.1442 23.339 30.1801C21.546 25.1086 19.4968 20.0537 16.6664 15.3603C13.8076 10.6193 10.1035 6.3746 5.65527 2.66915Z" fill="#E0FFCB"/>
<path opacity="0.1" fill-rule="evenodd" clip-rule="evenodd" d="M3.42676 3.39079C3.74774 3.26753 4.06873 3.1462 4.40255 3.04541C8.5253 7.00443 12.0125 11.4251 14.8082 16.2437C17.579 21.0206 19.7264 26.0947 21.6985 31.1637C21.2408 31.4147 20.7831 31.6657 20.3273 31.9129C18.2242 26.858 16.0196 21.7877 13.3067 16.955C10.5581 12.0609 7.24194 7.508 3.42676 3.39079Z" fill="#98338E"/>
<path opacity="0.1" fill-rule="evenodd" clip-rule="evenodd" d="M3.42676 3.39065C3.47106 3.37203 3.51535 3.35405 3.55515 3.34058C7.40538 7.42588 10.7466 11.9626 13.5057 16.8515C16.2322 21.683 18.4315 26.7545 20.5173 31.81C20.4531 31.846 20.3889 31.8806 20.3247 31.9127C18.2216 26.8579 16.0171 21.7876 13.3041 16.9548C10.5564 12.0608 7.24101 7.508 3.42676 3.39065Z" fill="#650028"/>
<path opacity="0.1" fill-rule="evenodd" clip-rule="evenodd" d="M2.93945 3.57559C2.98375 3.55762 3.02612 3.54414 3.06784 3.52551C6.78265 7.718 10.0256 12.3058 12.7385 17.2065C15.4252 22.0611 17.6508 27.1237 19.8002 32.1683C19.7392 32.2004 19.6718 32.2325 19.6076 32.2646C17.4442 27.2239 15.2062 22.167 12.5318 17.3067C9.83305 12.4008 6.61729 7.79752 2.93945 3.57559Z" fill="#E0FFCB"/>
<path opacity="0.1" fill-rule="evenodd" clip-rule="evenodd" d="M4.77539 2.92855C4.82224 2.91634 4.86719 2.90158 4.91599 2.88489C9.17482 6.74248 12.757 11.0906 15.5823 15.8809C18.38 20.6251 20.4883 25.6941 22.3872 30.7689C22.3294 30.8067 22.2665 30.8433 22.2049 30.8825C20.2854 25.8064 18.1688 20.7394 15.3743 15.9811C12.5554 11.1862 8.99762 6.81505 4.77539 2.92855Z" fill="#E0FFCB"/>
<path opacity="0.1" fill-rule="evenodd" clip-rule="evenodd" d="M4.91797 2.88485C4.96568 2.87283 5.01245 2.85739 5.05793 2.83862C9.3482 6.67182 12.958 11 15.7878 15.7769C18.5919 20.5133 20.6899 25.5804 22.5645 30.6539C22.5093 30.6905 22.4483 30.7297 22.3854 30.7662C20.4883 25.6947 18.3801 20.6231 15.5805 15.879C12.7571 11.0905 9.17488 6.74247 4.91797 2.88485Z" fill="#650028"/>
<path opacity="0.1" fill-rule="evenodd" clip-rule="evenodd" d="M4.26172 3.08842C4.31048 3.07237 4.35736 3.06017 4.40228 3.04541C8.52568 7.00443 12.0129 11.4251 14.8086 16.2437C17.5794 21.0206 19.7268 26.0947 21.6989 31.1637C21.6347 31.1964 21.5705 31.233 21.5063 31.2664C19.5162 26.1949 17.3618 21.1265 14.5974 16.3361C11.8145 11.5104 8.34847 7.07635 4.26172 3.08842Z" fill="#650028"/>
<path opacity="0.1" fill-rule="evenodd" clip-rule="evenodd" d="M3.84277 3.23156C3.88386 3.21487 3.92944 3.2001 3.97116 3.18213C7.93302 7.17331 11.3569 11.6646 14.156 16.5422C16.9081 21.3479 19.0748 26.4215 21.1034 31.4847C21.0424 31.5245 20.9815 31.5559 20.9179 31.5893C18.8707 26.5261 16.6886 21.4552 13.9493 16.641C11.1639 11.7599 7.7677 7.25382 3.84277 3.23156Z" fill="#985B00"/>
<path opacity="0.1" fill-rule="evenodd" clip-rule="evenodd" d="M-5.31995 24.1354C-5.3347 24.0808 -5.34883 24.0294 -5.3623 23.9774C-0.861451 20.7676 3.80053 18.1226 8.61465 15.818C13.4551 13.5005 18.415 11.3313 23.4005 9.13379C23.4455 9.19027 23.4911 9.24615 23.5334 9.29683C18.5479 11.5123 13.5829 13.7001 8.72573 16.0183C3.89169 18.3262 -0.792767 20.9525 -5.31995 24.1354Z" fill="#E0FFCB"/>
<path opacity="0.1" fill-rule="evenodd" clip-rule="evenodd" d="M2.14355 3.92741C2.18656 3.90623 2.22765 3.88953 2.26746 3.86963C5.74167 8.23086 8.81203 12.899 11.4406 17.8164C14.0611 22.7018 16.3311 27.7458 18.5812 32.7622C18.5119 32.7904 18.4496 32.8193 18.3803 32.8475C16.1173 27.8459 13.8441 22.802 11.2326 17.9121C8.6155 12.995 5.57431 8.31566 2.14355 3.92741Z" fill="#E0FFCB"/>
<path opacity="0.1" fill-rule="evenodd" clip-rule="evenodd" d="M2.26465 3.86954C2.30766 3.84835 2.35131 3.83038 2.39304 3.8092C5.90378 8.1467 9.00109 12.803 11.6445 17.7175C14.2766 22.5965 16.5388 27.6456 18.7704 32.6619C18.7062 32.6985 18.6458 32.7261 18.5778 32.7621C16.3309 27.7451 14.0609 22.7017 11.4403 17.8164C8.81094 12.8988 5.73974 8.23066 2.26465 3.86954Z" fill="#650028"/>
<path opacity="0.1" fill-rule="evenodd" clip-rule="evenodd" d="M1.67773 4.1488C1.71901 4.12596 1.76193 4.1062 1.80613 4.08972C5.12628 8.54275 8.08923 13.2513 10.6672 18.1714C13.2441 23.0664 15.5366 28.0917 17.84 33.0786C17.7706 33.1075 17.7026 33.1389 17.6397 33.1646C15.3202 28.1835 13.0246 23.164 10.4586 18.2638C7.89295 13.3434 4.95756 8.62487 1.67773 4.1488Z" fill="#650028"/>
<path opacity="0.1" fill-rule="evenodd" clip-rule="evenodd" d="M-5.07119 25.1233C-5.08403 25.0752 -5.09555 25.0193 -5.11035 24.9648C-0.442567 21.9475 4.37415 19.4028 9.29225 17.0801C14.2284 14.7498 19.2235 12.4721 24.2264 10.1545C24.2682 10.2123 24.306 10.2681 24.3465 10.3227C19.3475 12.6569 14.3439 14.9507 9.39689 17.2842C4.46211 19.6088 -0.380294 22.1324 -5.07119 25.1233Z" fill="#E0FFCB"/>
<path opacity="0.1" fill-rule="evenodd" clip-rule="evenodd" d="M-5.11221 24.9648C-5.12437 24.9166 -5.13917 24.8621 -5.15137 24.8062C-0.510551 21.7556 4.2856 19.1948 9.18384 16.874C14.1123 14.5405 19.1029 12.2865 24.0975 9.99084C24.1373 10.0428 24.179 10.1 24.2201 10.1545C19.2236 12.472 14.2278 14.7497 9.29172 17.0801C4.37357 19.4028 -0.44314 21.9456 -5.11221 24.9648V24.9648Z" fill="#650028"/>
</g>
<path d="M10.0791 18.0824L3.29286 14.1382L3.28516 11.5215L10.0721 15.4651L10.0791 18.0824Z" fill="#A24741"/>
<mask id="mask1_4230_55346" style="mask-type:alpha" maskUnits="userSpaceOnUse" x="3" y="11" width="8" height="8">
<path d="M10.0782 18.0824L3.29188 14.1382L3.28418 11.5215L10.0711 15.4651L10.0782 18.0824Z" fill="#A24741"/>
</mask>
<g mask="url(#mask1_4230_55346)">
<path opacity="0.1" fill-rule="evenodd" clip-rule="evenodd" d="M-5.98985 20.2303C-5.99497 20.1719 -6.00269 20.118 -6.00781 20.0596C-2.25678 16.2212 1.68812 13.2547 5.99704 11.0823C10.3387 8.88738 15.0341 7.20543 19.8623 5.52795C19.913 5.57095 19.9676 5.6236 20.0241 5.67175C15.1849 7.37554 10.4774 9.0819 6.10681 11.2832C1.77864 13.4659 -2.20286 16.419 -5.98985 20.2303Z" fill="#650028"/>
<path opacity="0.1" fill-rule="evenodd" clip-rule="evenodd" d="M-5.92085 20.8608C-5.92085 20.8088 -5.93241 20.7517 -5.94141 20.6946C-2.06003 16.9493 2.01006 14.0232 6.40628 11.8219C10.8403 9.60133 15.5916 7.83269 20.4577 6.0647C20.511 6.11414 20.5675 6.16225 20.6208 6.21169C15.7463 8.00408 10.9822 9.79324 6.52376 12.0196C2.10186 14.228 -2.00419 17.14 -5.92085 20.8608Z" fill="#E0FFCB"/>
<path opacity="0.1" fill-rule="evenodd" clip-rule="evenodd" d="M-6.0441 19.6931C-6.0441 19.6341 -6.05183 19.5756 -6.05566 19.5204C-2.42273 15.6096 1.40725 12.6135 5.62819 10.4687C9.88638 8.29879 14.5291 6.6926 19.3163 5.09216L19.4954 5.23277C14.6922 6.85757 10.0309 8.48948 5.74503 10.6638C1.49585 12.8189 -2.37202 15.8054 -6.0441 19.6931Z" fill="#985B00"/>
<path opacity="0.1" fill-rule="evenodd" clip-rule="evenodd" d="M-5.45415 23.5448C-5.53316 23.1532 -5.61015 22.7572 -5.69043 22.3624C-1.64178 18.995 2.79542 16.1245 7.52646 13.812C12.1833 11.5317 17.0591 9.54992 22.0029 7.55981C22.3592 7.93473 22.7149 8.30962 23.0403 8.69993C18.0651 10.8422 13.1219 12.962 8.3251 15.2705C3.55652 17.5655 -1.03164 20.2561 -5.45415 23.5448Z" fill="#98338E"/>
<path opacity="0.1" fill-rule="evenodd" clip-rule="evenodd" d="M-5.45522 23.545C-5.46742 23.4891 -5.47898 23.4333 -5.48926 23.3807C-1.09303 20.0636 3.46881 17.359 8.21939 15.071C12.9925 12.7644 17.9247 10.6632 22.9019 8.53638C22.9468 8.59222 22.9943 8.64422 23.0393 8.70069C18.064 10.8423 13.1208 12.9621 8.32402 15.2706C3.55548 17.565 -1.03268 20.2562 -5.45522 23.545Z" fill="#650028"/>
<path opacity="0.1" fill-rule="evenodd" clip-rule="evenodd" d="M-5.31995 24.1355C-5.3347 24.0809 -5.34883 24.0296 -5.3623 23.9776C-0.861451 20.7677 3.80053 18.1228 8.61465 15.8181C13.4551 13.5006 18.415 11.3314 23.4005 9.13391C23.4455 9.19039 23.4911 9.24627 23.5334 9.29696C18.5479 11.5124 13.5829 13.7003 8.72573 16.0184C3.89169 18.3263 -0.792767 20.9526 -5.31995 24.1355Z" fill="#E0FFCB"/>
<path opacity="0.1" fill-rule="evenodd" clip-rule="evenodd" d="M-5.76368 21.9118C-5.77268 21.8546 -5.781 21.7975 -5.78809 21.7436C-1.69615 18.1524 2.57937 15.3123 7.1226 13.0686C11.7011 10.807 16.5306 8.90289 21.4526 6.99109C21.5027 7.04181 21.5541 7.09573 21.5996 7.14453C16.6732 9.07944 11.8301 11.004 7.23043 13.2734C2.66411 15.5203 -1.64416 18.3501 -5.76368 21.9118Z" fill="#E0FFCB"/>
<path opacity="0.1" fill-rule="evenodd" clip-rule="evenodd" d="M-5.78844 21.7435C-5.79896 21.689 -5.80668 21.6339 -5.81152 21.5786C-1.75364 17.9598 2.4885 15.1036 7.01248 12.8638C11.5705 10.6086 16.3852 8.72564 21.3046 6.83765C21.3547 6.88833 21.4035 6.93584 21.4523 6.99104C16.5303 8.90284 11.7008 10.8069 7.12224 13.0686C2.57902 15.3123 -1.69651 18.1523 -5.78844 21.7435Z" fill="#650028"/>
<path opacity="0.1" fill-rule="evenodd" clip-rule="evenodd" d="M-5.65767 22.5209C-5.66859 22.4683 -5.67887 22.4156 -5.69043 22.3598C-1.64164 18.9933 2.79555 16.1237 7.52646 13.812C12.1833 11.5317 17.0591 9.54992 22.0029 7.55981C22.0504 7.61182 22.1005 7.66253 22.1505 7.71325C17.1971 9.72708 12.3149 11.7249 7.642 14.0103C2.89488 16.3238 -1.56814 19.1798 -5.65768 22.5209L-5.65767 22.5209Z" fill="#650028"/>
<path opacity="0.1" fill-rule="evenodd" clip-rule="evenodd" d="M-5.55712 23.0312C-5.56736 22.9786 -5.58216 22.924 -5.58984 22.8701C-1.28866 19.4676 3.19102 16.7187 7.88187 14.4397C12.5978 12.1473 17.5005 10.1026 22.4655 8.04443C22.5124 8.09644 22.5637 8.15035 22.6132 8.19787C17.6456 10.2778 12.7358 12.3418 7.99615 14.6387C3.28602 16.9222 -1.21934 19.6551 -5.55713 23.0312H-5.55712Z" fill="#985B00"/>
<path opacity="0.1" fill-rule="evenodd" clip-rule="evenodd" d="M0.918945 4.56249C1.20784 4.39493 1.49672 4.23312 1.8055 4.08997C5.12612 8.54295 8.08947 13.2515 10.6679 18.1716C13.2448 23.0666 15.5372 28.092 17.8406 33.0788C17.354 33.2849 16.868 33.4941 16.3699 33.6835C13.9696 28.7577 11.645 23.7786 9.1599 18.8733C6.67099 13.9571 3.94519 9.15448 0.918945 4.56249Z" fill="#98338E"/>
<path opacity="0.1" fill-rule="evenodd" clip-rule="evenodd" d="M0.918945 4.56245L1.04093 4.49121C4.10569 9.0678 6.8636 13.8563 9.36792 18.7776C11.8645 23.6842 14.1859 28.6729 16.5734 33.6071C16.5092 33.636 16.4411 33.6617 16.3699 33.6867C13.9696 28.7577 11.645 23.7786 9.15992 18.8733C6.67099 13.9571 3.94519 9.15448 0.918945 4.56245Z" fill="#650028"/>
<path opacity="0.1" fill-rule="evenodd" clip-rule="evenodd" d="M0.480469 4.81678C0.520912 4.78918 0.560713 4.76994 0.599233 4.74683C3.50287 9.38889 6.14779 14.2146 8.5969 19.127C11.046 24.0393 13.3783 28.9928 15.812 33.8871C15.7478 33.9141 15.6791 33.9411 15.6085 33.9668C13.1606 29.0775 10.8233 24.1298 8.3889 19.2239C5.95455 14.318 3.34301 9.47557 0.480469 4.81678Z" fill="#E0FFCB"/>
<path opacity="0.1" fill-rule="evenodd" clip-rule="evenodd" d="M1.67773 4.14904C1.71901 4.1262 1.76193 4.10645 1.80613 4.08997C5.12628 8.54299 8.08923 13.2515 10.6672 18.1716C13.2441 23.0666 15.5366 28.092 17.84 33.0788C17.7706 33.1077 17.7026 33.1391 17.6397 33.1648C15.3202 28.1838 13.0246 23.1642 10.4586 18.2641C7.89295 13.3437 4.95756 8.62511 1.67773 4.14904Z" fill="#650028"/>
<path opacity="0.1" fill-rule="evenodd" clip-rule="evenodd" d="M1.29102 4.34614L1.413 4.2749C4.60591 8.80286 7.4805 13.5471 10.016 18.4733C12.5512 23.3767 14.8629 28.3847 17.2093 33.351C17.1451 33.378 17.0752 33.4094 17.0084 33.4364C14.6472 28.4765 12.331 23.4807 9.8061 18.5697C7.27546 13.6509 4.45079 8.8759 1.29102 4.34614Z" fill="#985B00"/>
<path opacity="0.1" fill-rule="evenodd" clip-rule="evenodd" d="M-5.07021 25.1235C-5.08306 25.0754 -5.09458 25.0195 -5.10938 24.9649C-0.44159 21.9476 4.37512 19.4029 9.29323 17.0802C14.2293 14.7499 19.2245 12.4722 24.2274 10.1547C24.2691 10.2124 24.307 10.2683 24.3475 10.3229C19.3484 12.6571 14.3449 14.9508 9.39787 17.2844C4.46308 19.609 -0.379318 22.1326 -5.07021 25.1235Z" fill="#E0FFCB"/>
<path opacity="0.1" fill-rule="evenodd" clip-rule="evenodd" d="M-5.11025 24.9649C-5.12242 24.9168 -5.13721 24.8622 -5.14941 24.8063C-0.508598 21.7557 4.28756 19.1949 9.18579 16.8741C14.1142 14.5406 19.1049 12.2866 24.0994 9.99097C24.1392 10.043 24.1809 10.1001 24.222 10.1546C19.2256 12.4722 14.2298 14.7499 9.29367 17.0802C4.37553 19.4029 -0.441187 21.9457 -5.11025 24.9649V24.9649Z" fill="#650028"/>
<path opacity="0.1" fill-rule="evenodd" clip-rule="evenodd" d="M-0.239258 5.2924L-0.127556 5.21472C2.50452 9.96147 4.94402 14.8353 7.30069 19.7367C9.65736 24.6382 12.0076 29.5306 14.5209 34.3538C14.4484 34.3762 14.3765 34.3987 14.311 34.418C11.788 29.6064 9.43201 24.7242 7.09269 19.8317C4.75334 14.9393 2.34211 10.059 -0.239258 5.2924Z" fill="#E0FFCB"/>
<path opacity="0.1" fill-rule="evenodd" clip-rule="evenodd" d="M-0.12793 5.21467C-0.0906926 5.18836 -0.0528143 5.16267 -0.00916558 5.1344C2.65694 9.87087 5.13687 14.7332 7.5115 19.6397C9.88617 24.5463 12.2274 29.451 14.7318 34.285C14.6611 34.3107 14.5893 34.3332 14.5206 34.3537C12.0073 29.5306 9.65443 24.6298 7.30031 19.7367C4.94619 14.8436 2.50158 9.96138 -0.12793 5.21467Z" fill="#650028"/>
<path opacity="0.1" fill-rule="evenodd" clip-rule="evenodd" d="M-0.661133 5.58577L-0.546216 5.50549C1.9151 10.3107 4.23004 15.1993 6.53088 20.0891C8.82592 24.9681 11.1871 29.8221 13.7395 34.5977L13.5264 34.6619C10.9611 29.9004 8.60188 25.0586 6.32157 20.1829C4.0413 15.3071 1.75333 10.4031 -0.661133 5.58577Z" fill="#650028"/>
<path opacity="0.1" fill-rule="evenodd" clip-rule="evenodd" d="M-5.98985 20.2303C-5.99497 20.1719 -6.00269 20.118 -6.00781 20.0596C-2.25678 16.2212 1.68812 13.2547 5.99704 11.0823C10.3387 8.88738 15.0341 7.20543 19.8623 5.52795C19.913 5.57095 19.9676 5.6236 20.0241 5.67175C15.1849 7.37554 10.4774 9.0819 6.10681 11.2832C1.77864 13.4659 -2.20286 16.419 -5.98985 20.2303Z" fill="#650028"/>
<path opacity="0.1" fill-rule="evenodd" clip-rule="evenodd" d="M-5.92085 20.8608C-5.92085 20.8088 -5.93241 20.7517 -5.94141 20.6946C-2.06003 16.9493 2.01006 14.0232 6.40628 11.8219C10.8403 9.60133 15.5916 7.83269 20.4577 6.0647C20.511 6.11414 20.5675 6.16225 20.6208 6.21169C15.7463 8.00408 10.9822 9.79324 6.52376 12.0196C2.10186 14.228 -2.00419 17.14 -5.92085 20.8608Z" fill="#E0FFCB"/>
<path opacity="0.1" fill-rule="evenodd" clip-rule="evenodd" d="M-6.0441 19.6931C-6.0441 19.6341 -6.05183 19.5756 -6.05566 19.5204C-2.42273 15.6096 1.40725 12.6135 5.62819 10.4687C9.88638 8.29879 14.5291 6.6926 19.3163 5.09216L19.4954 5.23277C14.6922 6.85757 10.0309 8.48948 5.74503 10.6638C1.49585 12.8189 -2.37202 15.8054 -6.0441 19.6931Z" fill="#985B00"/>
<path opacity="0.1" fill-rule="evenodd" clip-rule="evenodd" d="M-5.45415 23.5448C-5.53316 23.1532 -5.61015 22.7572 -5.69043 22.3624C-1.64178 18.995 2.79542 16.1245 7.52646 13.812C12.1833 11.5317 17.0591 9.54992 22.0029 7.55981C22.3592 7.93473 22.7149 8.30962 23.0403 8.69993C18.0651 10.8422 13.1219 12.962 8.3251 15.2705C3.55652 17.5655 -1.03164 20.2561 -5.45415 23.5448Z" fill="#98338E"/>
<path opacity="0.1" fill-rule="evenodd" clip-rule="evenodd" d="M-5.45522 23.545C-5.46742 23.4891 -5.47898 23.4333 -5.48926 23.3807C-1.09303 20.0636 3.46881 17.359 8.21939 15.071C12.9925 12.7644 17.9247 10.6632 22.9019 8.53638C22.9468 8.59222 22.9943 8.64422 23.0393 8.70069C18.064 10.8423 13.1208 12.9621 8.32402 15.2706C3.55548 17.565 -1.03268 20.2562 -5.45522 23.545Z" fill="#650028"/>
<path opacity="0.1" fill-rule="evenodd" clip-rule="evenodd" d="M-5.31995 24.1355C-5.3347 24.0809 -5.34883 24.0296 -5.3623 23.9776C-0.861451 20.7677 3.80053 18.1228 8.61465 15.8181C13.4551 13.5006 18.415 11.3314 23.4005 9.13391C23.4455 9.19039 23.4911 9.24627 23.5334 9.29696C18.5479 11.5124 13.5829 13.7003 8.72573 16.0184C3.89169 18.3263 -0.792767 20.9526 -5.31995 24.1355Z" fill="#E0FFCB"/>
<path opacity="0.1" fill-rule="evenodd" clip-rule="evenodd" d="M-5.76368 21.9118C-5.77268 21.8546 -5.781 21.7975 -5.78809 21.7436C-1.69615 18.1524 2.57937 15.3123 7.1226 13.0686C11.7011 10.807 16.5306 8.90289 21.4526 6.99109C21.5027 7.04181 21.5541 7.09573 21.5996 7.14453C16.6732 9.07944 11.8301 11.004 7.23043 13.2734C2.66411 15.5203 -1.64416 18.3501 -5.76368 21.9118Z" fill="#E0FFCB"/>
<path opacity="0.1" fill-rule="evenodd" clip-rule="evenodd" d="M-5.78844 21.7435C-5.79896 21.689 -5.80668 21.6339 -5.81152 21.5786C-1.75364 17.9598 2.4885 15.1036 7.01248 12.8638C11.5705 10.6086 16.3852 8.72564 21.3046 6.83765C21.3547 6.88833 21.4035 6.93584 21.4523 6.99104C16.5303 8.90284 11.7008 10.8069 7.12224 13.0686C2.57902 15.3123 -1.69651 18.1523 -5.78844 21.7435Z" fill="#650028"/>
<path opacity="0.1" fill-rule="evenodd" clip-rule="evenodd" d="M-5.65767 22.5209C-5.66859 22.4683 -5.67887 22.4156 -5.69043 22.3598C-1.64164 18.9933 2.79555 16.1237 7.52646 13.812C12.1833 11.5317 17.0591 9.54992 22.0029 7.55981C22.0504 7.61182 22.1005 7.66253 22.1505 7.71325C17.1971 9.72708 12.3149 11.7249 7.642 14.0103C2.89488 16.3238 -1.56814 19.1798 -5.65768 22.5209L-5.65767 22.5209Z" fill="#650028"/>
<path opacity="0.1" fill-rule="evenodd" clip-rule="evenodd" d="M-5.55712 23.0312C-5.56736 22.9786 -5.58216 22.924 -5.58984 22.8701C-1.28866 19.4676 3.19102 16.7187 7.88187 14.4397C12.5978 12.1473 17.5005 10.1026 22.4655 8.04443C22.5124 8.09644 22.5637 8.15035 22.6132 8.19787C17.6456 10.2778 12.7358 12.3418 7.99615 14.6387C3.28602 16.9222 -1.21934 19.6551 -5.55713 23.0312H-5.55712Z" fill="#985B00"/>
<path opacity="0.1" fill-rule="evenodd" clip-rule="evenodd" d="M0.918945 4.56249C1.20784 4.39493 1.49672 4.23312 1.8055 4.08997C5.12612 8.54295 8.08947 13.2515 10.6679 18.1716C13.2448 23.0666 15.5372 28.092 17.8406 33.0788C17.354 33.2849 16.868 33.4941 16.3699 33.6835C13.9696 28.7577 11.645 23.7786 9.1599 18.8733C6.67099 13.9571 3.94519 9.15448 0.918945 4.56249Z" fill="#98338E"/>
<path opacity="0.1" fill-rule="evenodd" clip-rule="evenodd" d="M0.918945 4.56245L1.04093 4.49121C4.10569 9.0678 6.8636 13.8563 9.36792 18.7776C11.8645 23.6842 14.1859 28.6729 16.5734 33.6071C16.5092 33.636 16.4411 33.6617 16.3699 33.6867C13.9696 28.7577 11.645 23.7786 9.15992 18.8733C6.67099 13.9571 3.94519 9.15448 0.918945 4.56245Z" fill="#650028"/>
<path opacity="0.1" fill-rule="evenodd" clip-rule="evenodd" d="M0.480469 4.81678C0.520912 4.78918 0.560713 4.76994 0.599233 4.74683C3.50287 9.38889 6.14779 14.2146 8.5969 19.127C11.046 24.0393 13.3783 28.9928 15.812 33.8871C15.7478 33.9141 15.6791 33.9411 15.6085 33.9668C13.1606 29.0775 10.8233 24.1298 8.3889 19.2239C5.95455 14.318 3.34301 9.47557 0.480469 4.81678Z" fill="#E0FFCB"/>
<path opacity="0.1" fill-rule="evenodd" clip-rule="evenodd" d="M1.67773 4.14904C1.71901 4.1262 1.76193 4.10645 1.80613 4.08997C5.12628 8.54299 8.08923 13.2515 10.6672 18.1716C13.2441 23.0666 15.5366 28.092 17.84 33.0788C17.7706 33.1077 17.7026 33.1391 17.6397 33.1648C15.3202 28.1838 13.0246 23.1642 10.4586 18.2641C7.89295 13.3437 4.95756 8.62511 1.67773 4.14904Z" fill="#650028"/>
<path opacity="0.1" fill-rule="evenodd" clip-rule="evenodd" d="M1.29102 4.34614L1.413 4.2749C4.60591 8.80286 7.4805 13.5471 10.016 18.4733C12.5512 23.3767 14.8629 28.3847 17.2093 33.351C17.1451 33.378 17.0752 33.4094 17.0084 33.4364C14.6472 28.4765 12.331 23.4807 9.8061 18.5697C7.27546 13.6509 4.45079 8.8759 1.29102 4.34614Z" fill="#985B00"/>
<path opacity="0.1" fill-rule="evenodd" clip-rule="evenodd" d="M-5.07021 25.1235C-5.08306 25.0754 -5.09458 25.0195 -5.10938 24.9649C-0.44159 21.9476 4.37512 19.4029 9.29323 17.0802C14.2293 14.7499 19.2245 12.4722 24.2274 10.1547C24.2691 10.2124 24.307 10.2683 24.3475 10.3229C19.3484 12.6571 14.3449 14.9508 9.39787 17.2844C4.46308 19.609 -0.379318 22.1326 -5.07021 25.1235Z" fill="#E0FFCB"/>
<path opacity="0.1" fill-rule="evenodd" clip-rule="evenodd" d="M-5.11025 24.9649C-5.12242 24.9168 -5.13721 24.8622 -5.14941 24.8063C-0.508598 21.7557 4.28756 19.1949 9.18579 16.8741C14.1142 14.5406 19.1049 12.2866 24.0994 9.99097C24.1392 10.043 24.1809 10.1001 24.222 10.1546C19.2256 12.4722 14.2298 14.7499 9.29367 17.0802C4.37553 19.4029 -0.441187 21.9457 -5.11025 24.9649V24.9649Z" fill="#650028"/>
<path opacity="0.1" fill-rule="evenodd" clip-rule="evenodd" d="M-0.239258 5.2924L-0.127556 5.21472C2.50452 9.96147 4.94402 14.8353 7.30069 19.7367C9.65736 24.6382 12.0076 29.5306 14.5209 34.3538C14.4484 34.3762 14.3765 34.3987 14.311 34.418C11.788 29.6064 9.43201 24.7242 7.09269 19.8317C4.75334 14.9393 2.34211 10.059 -0.239258 5.2924Z" fill="#E0FFCB"/>
<path opacity="0.1" fill-rule="evenodd" clip-rule="evenodd" d="M-0.12793 5.21467C-0.0906926 5.18836 -0.0528143 5.16267 -0.00916558 5.1344C2.65694 9.87087 5.13687 14.7332 7.5115 19.6397C9.88617 24.5463 12.2274 29.451 14.7318 34.285C14.6611 34.3107 14.5893 34.3332 14.5206 34.3537C12.0073 29.5306 9.65443 24.6298 7.30031 19.7367C4.94619 14.8436 2.50158 9.96138 -0.12793 5.21467Z" fill="#650028"/>
<path opacity="0.1" fill-rule="evenodd" clip-rule="evenodd" d="M-0.661133 5.58577L-0.546216 5.50549C1.9151 10.3107 4.23004 15.1993 6.53088 20.0891C8.82592 24.9681 11.1871 29.8221 13.7395 34.5977L13.5264 34.6619C10.9611 29.9004 8.60188 25.0586 6.32157 20.1829C4.0413 15.3071 1.75333 10.4031 -0.661133 5.58577Z" fill="#650028"/>
<path opacity="0.1" fill-rule="evenodd" clip-rule="evenodd" d="M-5.98985 20.2303C-5.99497 20.1719 -6.00269 20.118 -6.00781 20.0596C-2.25678 16.2212 1.68812 13.2547 5.99704 11.0823C10.3387 8.88738 15.0341 7.20543 19.8623 5.52795C19.913 5.57095 19.9676 5.6236 20.0241 5.67175C15.1849 7.37554 10.4774 9.0819 6.10681 11.2832C1.77864 13.4659 -2.20286 16.419 -5.98985 20.2303Z" fill="#650028"/>
<path opacity="0.1" fill-rule="evenodd" clip-rule="evenodd" d="M-5.92085 20.8608C-5.92085 20.8088 -5.93241 20.7517 -5.94141 20.6946C-2.06003 16.9493 2.01006 14.0232 6.40628 11.8219C10.8403 9.60133 15.5916 7.83269 20.4577 6.0647C20.511 6.11414 20.5675 6.16225 20.6208 6.21169C15.7463 8.00408 10.9822 9.79324 6.52376 12.0196C2.10186 14.228 -2.00419 17.14 -5.92085 20.8608Z" fill="#E0FFCB"/>
<path opacity="0.1" fill-rule="evenodd" clip-rule="evenodd" d="M-6.0441 19.6931C-6.0441 19.6341 -6.05183 19.5756 -6.05566 19.5204C-2.42273 15.6096 1.40725 12.6135 5.62819 10.4687C9.88638 8.29879 14.5291 6.6926 19.3163 5.09216L19.4954 5.23277C14.6922 6.85757 10.0309 8.48948 5.74503 10.6638C1.49585 12.8189 -2.37202 15.8054 -6.0441 19.6931Z" fill="#985B00"/>
<path opacity="0.1" fill-rule="evenodd" clip-rule="evenodd" d="M-5.45415 23.5448C-5.53316 23.1532 -5.61015 22.7572 -5.69043 22.3624C-1.64178 18.995 2.79542 16.1245 7.52646 13.812C12.1833 11.5317 17.0591 9.54992 22.0029 7.55981C22.3592 7.93473 22.7149 8.30962 23.0403 8.69993C18.0651 10.8422 13.1219 12.962 8.3251 15.2705C3.55652 17.5655 -1.03164 20.2561 -5.45415 23.5448Z" fill="#98338E"/>
<path opacity="0.1" fill-rule="evenodd" clip-rule="evenodd" d="M-5.45522 23.545C-5.46742 23.4891 -5.47898 23.4333 -5.48926 23.3807C-1.09303 20.0636 3.46881 17.359 8.21939 15.071C12.9925 12.7644 17.9247 10.6632 22.9019 8.53638C22.9468 8.59222 22.9943 8.64422 23.0393 8.70069C18.064 10.8423 13.1208 12.9621 8.32402 15.2706C3.55548 17.565 -1.03268 20.2562 -5.45522 23.545Z" fill="#650028"/>
<path opacity="0.1" fill-rule="evenodd" clip-rule="evenodd" d="M-5.31995 24.1355C-5.3347 24.0809 -5.34883 24.0296 -5.3623 23.9776C-0.861451 20.7677 3.80053 18.1228 8.61465 15.8181C13.4551 13.5006 18.415 11.3314 23.4005 9.13391C23.4455 9.19039 23.4911 9.24627 23.5334 9.29696C18.5479 11.5124 13.5829 13.7003 8.72573 16.0184C3.89169 18.3263 -0.792767 20.9526 -5.31995 24.1355Z" fill="#E0FFCB"/>
<path opacity="0.1" fill-rule="evenodd" clip-rule="evenodd" d="M-5.76368 21.9118C-5.77268 21.8546 -5.781 21.7975 -5.78809 21.7436C-1.69615 18.1524 2.57937 15.3123 7.1226 13.0686C11.7011 10.807 16.5306 8.90289 21.4526 6.99109C21.5027 7.04181 21.5541 7.09573 21.5996 7.14453C16.6732 9.07944 11.8301 11.004 7.23043 13.2734C2.66411 15.5203 -1.64416 18.3501 -5.76368 21.9118Z" fill="#E0FFCB"/>
<path opacity="0.1" fill-rule="evenodd" clip-rule="evenodd" d="M-5.78844 21.7435C-5.79896 21.689 -5.80668 21.6339 -5.81152 21.5786C-1.75364 17.9598 2.4885 15.1036 7.01248 12.8638C11.5705 10.6086 16.3852 8.72564 21.3046 6.83765C21.3547 6.88833 21.4035 6.93584 21.4523 6.99104C16.5303 8.90284 11.7008 10.8069 7.12224 13.0686C2.57902 15.3123 -1.69651 18.1523 -5.78844 21.7435Z" fill="#650028"/>
<path opacity="0.1" fill-rule="evenodd" clip-rule="evenodd" d="M-5.65767 22.5209C-5.66859 22.4683 -5.67887 22.4156 -5.69043 22.3598C-1.64164 18.9933 2.79555 16.1237 7.52646 13.812C12.1833 11.5317 17.0591 9.54992 22.0029 7.55981C22.0504 7.61182 22.1005 7.66253 22.1505 7.71325C17.1971 9.72708 12.3149 11.7249 7.642 14.0103C2.89488 16.3238 -1.56814 19.1798 -5.65768 22.5209L-5.65767 22.5209Z" fill="#650028"/>
<path opacity="0.1" fill-rule="evenodd" clip-rule="evenodd" d="M-5.55712 23.0312C-5.56736 22.9786 -5.58216 22.924 -5.58984 22.8701C-1.28866 19.4676 3.19102 16.7187 7.88187 14.4397C12.5978 12.1473 17.5005 10.1026 22.4655 8.04443C22.5124 8.09644 22.5637 8.15035 22.6132 8.19787C17.6456 10.2778 12.7358 12.3418 7.99615 14.6387C3.28602 16.9222 -1.21934 19.6551 -5.55713 23.0312H-5.55712Z" fill="#985B00"/>
<path opacity="0.1" fill-rule="evenodd" clip-rule="evenodd" d="M0.918945 4.56249C1.20784 4.39493 1.49672 4.23312 1.8055 4.08997C5.12612 8.54295 8.08947 13.2515 10.6679 18.1716C13.2448 23.0666 15.5372 28.092 17.8406 33.0788C17.354 33.2849 16.868 33.4941 16.3699 33.6835C13.9696 28.7577 11.645 23.7786 9.1599 18.8733C6.67099 13.9571 3.94519 9.15448 0.918945 4.56249Z" fill="#98338E"/>
<path opacity="0.1" fill-rule="evenodd" clip-rule="evenodd" d="M0.918945 4.56245L1.04093 4.49121C4.10569 9.0678 6.8636 13.8563 9.36792 18.7776C11.8645 23.6842 14.1859 28.6729 16.5734 33.6071C16.5092 33.636 16.4411 33.6617 16.3699 33.6867C13.9696 28.7577 11.645 23.7786 9.15992 18.8733C6.67099 13.9571 3.94519 9.15448 0.918945 4.56245Z" fill="#650028"/>
<path opacity="0.1" fill-rule="evenodd" clip-rule="evenodd" d="M0.480469 4.81678C0.520912 4.78918 0.560713 4.76994 0.599233 4.74683C3.50287 9.38889 6.14779 14.2146 8.5969 19.127C11.046 24.0393 13.3783 28.9928 15.812 33.8871C15.7478 33.9141 15.6791 33.9411 15.6085 33.9668C13.1606 29.0775 10.8233 24.1298 8.3889 19.2239C5.95455 14.318 3.34301 9.47557 0.480469 4.81678Z" fill="#E0FFCB"/>
<path opacity="0.1" fill-rule="evenodd" clip-rule="evenodd" d="M1.67773 4.14904C1.71901 4.1262 1.76193 4.10645 1.80613 4.08997C5.12628 8.54299 8.08923 13.2515 10.6672 18.1716C13.2441 23.0666 15.5366 28.092 17.84 33.0788C17.7706 33.1077 17.7026 33.1391 17.6397 33.1648C15.3202 28.1838 13.0246 23.1642 10.4586 18.2641C7.89295 13.3437 4.95756 8.62511 1.67773 4.14904Z" fill="#650028"/>
<path opacity="0.1" fill-rule="evenodd" clip-rule="evenodd" d="M1.29102 4.34614L1.413 4.2749C4.60591 8.80286 7.4805 13.5471 10.016 18.4733C12.5512 23.3767 14.8629 28.3847 17.2093 33.351C17.1451 33.378 17.0752 33.4094 17.0084 33.4364C14.6472 28.4765 12.331 23.4807 9.8061 18.5697C7.27546 13.6509 4.45079 8.8759 1.29102 4.34614Z" fill="#985B00"/>
<path opacity="0.1" fill-rule="evenodd" clip-rule="evenodd" d="M-5.07021 25.1235C-5.08306 25.0754 -5.09458 25.0195 -5.10938 24.9649C-0.44159 21.9476 4.37512 19.4029 9.29323 17.0802C14.2293 14.7499 19.2245 12.4722 24.2274 10.1547C24.2691 10.2124 24.307 10.2683 24.3475 10.3229C19.3484 12.6571 14.3449 14.9508 9.39787 17.2844C4.46308 19.609 -0.379318 22.1326 -5.07021 25.1235Z" fill="#E0FFCB"/>
<path opacity="0.1" fill-rule="evenodd" clip-rule="evenodd" d="M-5.11025 24.9649C-5.12242 24.9168 -5.13721 24.8622 -5.14941 24.8063C-0.508598 21.7557 4.28756 19.1949 9.18579 16.8741C14.1142 14.5406 19.1049 12.2866 24.0994 9.99097C24.1392 10.043 24.1809 10.1001 24.222 10.1546C19.2256 12.4722 14.2298 14.7499 9.29367 17.0802C4.37553 19.4029 -0.441187 21.9457 -5.11025 24.9649V24.9649Z" fill="#650028"/>
<path opacity="0.1" fill-rule="evenodd" clip-rule="evenodd" d="M-0.239258 5.2924L-0.127556 5.21472C2.50452 9.96147 4.94402 14.8353 7.30069 19.7367C9.65736 24.6382 12.0076 29.5306 14.5209 34.3538C14.4484 34.3762 14.3765 34.3987 14.311 34.418C11.788 29.6064 9.43201 24.7242 7.09269 19.8317C4.75334 14.9393 2.34211 10.059 -0.239258 5.2924Z" fill="#E0FFCB"/>
<path opacity="0.1" fill-rule="evenodd" clip-rule="evenodd" d="M-0.12793 5.21467C-0.0906926 5.18836 -0.0528143 5.16267 -0.00916558 5.1344C2.65694 9.87087 5.13687 14.7332 7.5115 19.6397C9.88617 24.5463 12.2274 29.451 14.7318 34.285C14.6611 34.3107 14.5893 34.3332 14.5206 34.3537C12.0073 29.5306 9.65443 24.6298 7.30031 19.7367C4.94619 14.8436 2.50158 9.96138 -0.12793 5.21467Z" fill="#650028"/>
<path opacity="0.1" fill-rule="evenodd" clip-rule="evenodd" d="M-0.661133 5.58577L-0.546216 5.50549C1.9151 10.3107 4.23004 15.1993 6.53088 20.0891C8.82592 24.9681 11.1871 29.8221 13.7395 34.5977L13.5264 34.6619C10.9611 29.9004 8.60188 25.0586 6.32157 20.1829C4.0413 15.3071 1.75333 10.4031 -0.661133 5.58577Z" fill="#650028"/>
</g>
<path d="M10.0721 15.465L3.28516 11.5214L10.1164 7.57715L16.9033 11.5214L10.0721 15.465Z" fill="#DB5B54"/>
<path d="M16.8673 6.2854L16.8827 11.5187L10.0509 15.463L10.0361 10.2297L16.8673 6.2854Z" fill="#BD967F"/>
<path d="M10.0507 15.4631L3.26379 11.5188L3.24902 6.28613L10.0359 10.2298L10.0507 15.4631H10.0507Z" fill="#886B59"/>
<path d="M10.0359 10.2298L3.24902 6.28617L10.0809 2.34192L16.8672 6.28553L10.0359 10.2298Z" fill="#B88D73"/>
<path d="M13.4596 9.6051L13.4628 10.6515L12.5519 11.1779L12.5544 12.2244L13.466 11.6986L11.6441 12.7501L11.6377 10.6567L13.4596 9.6051H13.4596Z" fill="white"/>
<path d="M13.4627 10.6515L13.4659 11.6986L12.5543 12.2243L12.5518 11.1779L13.4627 10.6515Z" fill="#493239"/>
<path d="M16.1396 8.05798L16.1428 9.10506L15.2319 9.63082L15.2345 10.6773L16.1454 10.1515L14.3242 11.203L14.3184 9.10954L16.1396 8.05798Z" fill="white"/>
<path d="M16.1424 9.10498L16.145 10.1514L15.234 10.6772L15.2314 9.63074L16.1424 9.10498Z" fill="#493239"/>
<path d="M5.96026 16.7508L5.95643 18.3211L3.67871 17.0063L3.6832 15.436L5.96026 16.7508Z" fill="#886B59"/>
<path d="M5.95993 16.7508L8.22221 15.436L8.21837 17.0063L5.95605 18.3211L5.95993 16.7508Z" fill="#BD967F"/>
<path d="M3.68262 15.4362L5.94493 14.1215L8.222 15.4362L5.95968 16.751L3.68262 15.4362Z" fill="#CAA390"/>
<path d="M6.6464 16.0986L6.64384 17.1457L5.96012 16.7509L3.68306 15.4361L3 15.0419L3.00321 13.9949L6.64638 16.0986L6.6464 16.0986Z" fill="#A24741"/>
<mask id="mask2_4230_55346" style="mask-type:alpha" maskUnits="userSpaceOnUse" x="3" y="13" width="4" height="5">
<path d="M6.6464 16.0986L6.64384 17.1457L5.96012 16.7509L3.68306 15.4361L3 15.0419L3.00321 13.9949L6.64638 16.0986L6.6464 16.0986Z" fill="#A24741"/>
</mask>
<g mask="url(#mask2_4230_55346)">
<path opacity="0.1" fill-rule="evenodd" clip-rule="evenodd" d="M-9.45517 23.5449C-9.53413 23.1533 -9.61117 22.7572 -9.69141 22.3624C-5.64278 18.995 -1.20557 16.1245 3.52548 13.812C8.18235 11.5317 13.0581 9.54992 18.0019 7.55981C18.3582 7.93473 18.7139 8.30966 19.0394 8.69997C14.064 10.8422 9.12091 12.962 4.32408 15.2705C-0.444456 17.5656 -5.03262 20.2561 -9.45516 23.5449H-9.45517Z" fill="#98338E"/>
<path opacity="0.1" fill-rule="evenodd" clip-rule="evenodd" d="M-9.45522 23.545C-9.46742 23.4891 -9.47898 23.4333 -9.48926 23.3807C-5.09302 20.0636 -0.531198 17.359 4.2194 15.071C8.99242 12.7644 13.9247 10.6632 18.9019 8.53638C18.9468 8.59222 18.9944 8.64422 19.0393 8.70069C14.064 10.8423 9.12082 12.9621 4.32403 15.2706C-0.444522 17.565 -5.0327 20.2562 -9.45521 23.545H-9.45522Z" fill="#650028"/>
<path opacity="0.1" fill-rule="evenodd" clip-rule="evenodd" d="M-9.31897 24.1356C-9.33373 24.081 -9.34785 24.0297 -9.36133 23.9777C-4.8605 20.7678 -0.1985 18.1229 4.61563 15.8182C9.45609 13.5007 14.416 11.3315 19.4015 9.13403C19.4464 9.19056 19.492 9.2464 19.5344 9.29712C14.5488 11.5126 9.58386 13.7004 4.72671 16.0185C-0.107334 18.3264 -4.79179 20.9527 -9.31897 24.1356Z" fill="#E0FFCB"/>
<path opacity="0.1" fill-rule="evenodd" clip-rule="evenodd" d="M-9.65865 22.5209C-9.66957 22.4683 -9.67985 22.4157 -9.69141 22.3598C-5.64262 18.9933 -1.20544 16.1237 3.52548 13.812C8.18235 11.5317 13.0581 9.54992 18.0019 7.55981C18.0494 7.61182 18.0995 7.66253 18.1496 7.71325C13.1961 9.72712 8.31394 11.7249 3.64103 14.0103C-1.10611 16.3239 -5.5691 19.1798 -9.65866 22.5209H-9.65865Z" fill="#650028"/>
<path opacity="0.1" fill-rule="evenodd" clip-rule="evenodd" d="M-9.55713 23.0314C-9.5674 22.9787 -9.58216 22.9242 -9.58984 22.8702C-5.28866 19.4678 -0.808993 16.7189 3.88188 14.4399C8.59778 12.1474 13.5005 10.1027 18.4655 8.04456C18.5124 8.09656 18.5638 8.15048 18.6132 8.19799C13.6456 10.278 8.73582 12.3419 3.99615 14.6389C-0.713983 16.9224 -5.21935 19.6552 -9.55713 23.0314H-9.55713Z" fill="#985B00"/>
<path opacity="0.1" fill-rule="evenodd" clip-rule="evenodd" d="M-3.08203 4.56245C-2.79314 4.39489 -2.50426 4.23312 -2.19547 4.08997C1.12513 8.54296 4.0885 13.2515 6.66694 18.1716C9.24382 23.0666 11.5363 28.0919 13.8397 33.0788C13.353 33.2849 12.8671 33.4941 12.3689 33.6835C9.96858 28.7577 7.64402 23.7786 5.15895 18.8733C2.67002 13.957 -0.0557857 9.15444 -3.08203 4.56245Z" fill="#98338E"/>
<path opacity="0.1" fill-rule="evenodd" clip-rule="evenodd" d="M-3.08203 4.56249L-2.96005 4.49121C0.104714 9.06784 2.86262 13.8563 5.36694 18.7776C7.86357 23.6842 10.1849 28.673 12.5724 33.6071C12.5082 33.636 12.4402 33.6617 12.3689 33.6867C9.96857 28.7577 7.64402 23.7786 5.15895 18.8733C2.67002 13.9571 -0.0557857 9.15448 -3.08203 4.56249Z" fill="#650028"/>
<path opacity="0.1" fill-rule="evenodd" clip-rule="evenodd" d="M-1.85742 3.92753C-1.81441 3.90634 -1.77332 3.88965 -1.73352 3.86975C1.74068 8.23097 4.81106 12.8991 7.43961 17.8166C10.0601 22.7019 12.3301 27.7459 14.5802 32.7623C14.5109 32.7905 14.4486 32.8194 14.3793 32.8477C12.1164 27.8461 9.84312 22.8021 7.2316 17.9122C4.61454 12.9951 1.57331 8.31582 -1.85742 3.92753Z" fill="#E0FFCB"/>
<path opacity="0.1" fill-rule="evenodd" clip-rule="evenodd" d="M-1.73535 3.86979C-1.69234 3.8486 -1.64869 3.83063 -1.60696 3.80945C1.90378 8.14694 5.0011 12.8033 7.64446 17.7177C10.2766 22.5967 12.5388 27.6458 14.7704 32.6622C14.7062 32.6987 14.6458 32.7263 14.5778 32.7623C12.3308 27.7453 10.0608 22.702 7.44034 17.8166C4.81095 12.8991 1.73974 8.2309 -1.73535 3.86979Z" fill="#650028"/>
<path opacity="0.1" fill-rule="evenodd" clip-rule="evenodd" d="M-2.32227 4.149C-2.28099 4.12616 -2.23807 4.10641 -2.19387 4.08997C1.12629 8.54299 4.08923 13.2515 6.66724 18.1716C9.24412 23.0666 11.5366 28.0919 13.84 33.0788C13.7707 33.1076 13.7026 33.1391 13.6397 33.1648C11.3203 28.1837 9.02455 23.1642 6.45859 18.264C3.89294 13.3437 0.957557 8.62511 -2.32227 4.149Z" fill="#650028"/>
<path opacity="0.1" fill-rule="evenodd" clip-rule="evenodd" d="M-2.70898 4.34618L-2.58701 4.2749C0.605912 8.80286 3.48051 13.5471 6.01602 18.4734C8.55118 23.3767 10.8629 28.3848 13.2093 33.351C13.1451 33.378 13.0751 33.4095 13.0084 33.4364C10.6472 28.4766 8.33097 23.4807 5.8061 18.5697C3.27546 13.6509 0.450792 8.8759 -2.70898 4.34618Z" fill="#985B00"/>
<path opacity="0.1" fill-rule="evenodd" clip-rule="evenodd" d="M-9.07021 25.1235C-9.08306 25.0754 -9.09462 25.0195 -9.10938 24.9649C-4.44159 21.9477 0.375104 19.4029 5.29323 17.0802C10.2293 14.7499 15.2245 12.4722 20.2274 10.1547C20.2691 10.2124 20.307 10.2683 20.3474 10.3229C15.3484 12.6571 10.3449 14.9508 5.39787 17.2844C0.463053 19.609 -4.37935 22.1326 -9.07021 25.1235Z" fill="#E0FFCB"/>
<path opacity="0.1" fill-rule="evenodd" clip-rule="evenodd" d="M-9.11123 24.9649C-9.12343 24.9168 -9.13819 24.8622 -9.15039 24.8064C-4.50956 21.7557 0.286581 19.1949 5.18481 16.8742C10.1132 14.5406 15.1039 12.2866 20.0984 9.99097C20.1382 10.043 20.18 10.1001 20.2211 10.1547C15.2246 12.4722 10.2288 14.7499 5.29265 17.0802C0.374539 19.4029 -4.44215 21.9457 -9.11123 24.9649V24.9649Z" fill="#650028"/>
<path opacity="0.1" fill-rule="evenodd" clip-rule="evenodd" d="M-9.45517 23.5449C-9.53413 23.1533 -9.61117 22.7572 -9.69141 22.3624C-5.64278 18.995 -1.20557 16.1245 3.52548 13.812C8.18235 11.5317 13.0581 9.54992 18.0019 7.55981C18.3582 7.93473 18.7139 8.30966 19.0394 8.69997C14.064 10.8422 9.12091 12.962 4.32408 15.2705C-0.444456 17.5656 -5.03262 20.2561 -9.45516 23.5449H-9.45517Z" fill="#98338E"/>
<path opacity="0.1" fill-rule="evenodd" clip-rule="evenodd" d="M-9.45522 23.545C-9.46742 23.4891 -9.47898 23.4333 -9.48926 23.3807C-5.09302 20.0636 -0.531198 17.359 4.2194 15.071C8.99242 12.7644 13.9247 10.6632 18.9019 8.53638C18.9468 8.59222 18.9944 8.64422 19.0393 8.70069C14.064 10.8423 9.12082 12.9621 4.32403 15.2706C-0.444522 17.565 -5.0327 20.2562 -9.45521 23.545H-9.45522Z" fill="#650028"/>
<path opacity="0.1" fill-rule="evenodd" clip-rule="evenodd" d="M-9.31897 24.1356C-9.33373 24.081 -9.34785 24.0297 -9.36133 23.9777C-4.8605 20.7678 -0.1985 18.1229 4.61563 15.8182C9.45609 13.5007 14.416 11.3315 19.4015 9.13403C19.4464 9.19056 19.492 9.2464 19.5344 9.29712C14.5488 11.5126 9.58386 13.7004 4.72671 16.0185C-0.107334 18.3264 -4.79179 20.9527 -9.31897 24.1356Z" fill="#E0FFCB"/>
<path opacity="0.1" fill-rule="evenodd" clip-rule="evenodd" d="M-9.65865 22.5209C-9.66957 22.4683 -9.67985 22.4157 -9.69141 22.3598C-5.64262 18.9933 -1.20544 16.1237 3.52548 13.812C8.18235 11.5317 13.0581 9.54992 18.0019 7.55981C18.0494 7.61182 18.0995 7.66253 18.1496 7.71325C13.1961 9.72712 8.31394 11.7249 3.64103 14.0103C-1.10611 16.3239 -5.5691 19.1798 -9.65866 22.5209H-9.65865Z" fill="#650028"/>
<path opacity="0.1" fill-rule="evenodd" clip-rule="evenodd" d="M-9.55713 23.0314C-9.5674 22.9787 -9.58216 22.9242 -9.58984 22.8702C-5.28866 19.4678 -0.808993 16.7189 3.88188 14.4399C8.59778 12.1474 13.5005 10.1027 18.4655 8.04456C18.5124 8.09656 18.5638 8.15048 18.6132 8.19799C13.6456 10.278 8.73582 12.3419 3.99615 14.6389C-0.713983 16.9224 -5.21935 19.6552 -9.55713 23.0314H-9.55713Z" fill="#985B00"/>
<path opacity="0.1" fill-rule="evenodd" clip-rule="evenodd" d="M-3.08203 4.56245C-2.79314 4.39489 -2.50426 4.23312 -2.19547 4.08997C1.12513 8.54296 4.0885 13.2515 6.66694 18.1716C9.24382 23.0666 11.5363 28.0919 13.8397 33.0788C13.353 33.2849 12.8671 33.4941 12.3689 33.6835C9.96858 28.7577 7.64402 23.7786 5.15895 18.8733C2.67002 13.957 -0.0557857 9.15444 -3.08203 4.56245Z" fill="#98338E"/>
<path opacity="0.1" fill-rule="evenodd" clip-rule="evenodd" d="M-3.08203 4.56249L-2.96005 4.49121C0.104714 9.06784 2.86262 13.8563 5.36694 18.7776C7.86357 23.6842 10.1849 28.673 12.5724 33.6071C12.5082 33.636 12.4402 33.6617 12.3689 33.6867C9.96857 28.7577 7.64402 23.7786 5.15895 18.8733C2.67002 13.9571 -0.0557857 9.15448 -3.08203 4.56249Z" fill="#650028"/>
<path opacity="0.1" fill-rule="evenodd" clip-rule="evenodd" d="M-1.85742 3.92753C-1.81441 3.90634 -1.77332 3.88965 -1.73352 3.86975C1.74068 8.23097 4.81106 12.8991 7.43961 17.8166C10.0601 22.7019 12.3301 27.7459 14.5802 32.7623C14.5109 32.7905 14.4486 32.8194 14.3793 32.8477C12.1164 27.8461 9.84312 22.8021 7.2316 17.9122C4.61454 12.9951 1.57331 8.31582 -1.85742 3.92753Z" fill="#E0FFCB"/>
<path opacity="0.1" fill-rule="evenodd" clip-rule="evenodd" d="M-1.73535 3.86979C-1.69234 3.8486 -1.64869 3.83063 -1.60696 3.80945C1.90378 8.14694 5.0011 12.8033 7.64446 17.7177C10.2766 22.5967 12.5388 27.6458 14.7704 32.6622C14.7062 32.6987 14.6458 32.7263 14.5778 32.7623C12.3308 27.7453 10.0608 22.702 7.44034 17.8166C4.81095 12.8991 1.73974 8.2309 -1.73535 3.86979Z" fill="#650028"/>
<path opacity="0.1" fill-rule="evenodd" clip-rule="evenodd" d="M-2.32227 4.149C-2.28099 4.12616 -2.23807 4.10641 -2.19387 4.08997C1.12629 8.54299 4.08923 13.2515 6.66724 18.1716C9.24412 23.0666 11.5366 28.0919 13.84 33.0788C13.7707 33.1076 13.7026 33.1391 13.6397 33.1648C11.3203 28.1837 9.02455 23.1642 6.45859 18.264C3.89294 13.3437 0.957557 8.62511 -2.32227 4.149Z" fill="#650028"/>
<path opacity="0.1" fill-rule="evenodd" clip-rule="evenodd" d="M-2.70898 4.34618L-2.58701 4.2749C0.605912 8.80286 3.48051 13.5471 6.01602 18.4734C8.55118 23.3767 10.8629 28.3848 13.2093 33.351C13.1451 33.378 13.0751 33.4095 13.0084 33.4364C10.6472 28.4766 8.33097 23.4807 5.8061 18.5697C3.27546 13.6509 0.450792 8.8759 -2.70898 4.34618Z" fill="#985B00"/>
<path opacity="0.1" fill-rule="evenodd" clip-rule="evenodd" d="M-9.07021 25.1235C-9.08306 25.0754 -9.09462 25.0195 -9.10938 24.9649C-4.44159 21.9477 0.375104 19.4029 5.29323 17.0802C10.2293 14.7499 15.2245 12.4722 20.2274 10.1547C20.2691 10.2124 20.307 10.2683 20.3474 10.3229C15.3484 12.6571 10.3449 14.9508 5.39787 17.2844C0.463053 19.609 -4.37935 22.1326 -9.07021 25.1235Z" fill="#E0FFCB"/>
<path opacity="0.1" fill-rule="evenodd" clip-rule="evenodd" d="M-9.11123 24.9649C-9.12343 24.9168 -9.13819 24.8622 -9.15039 24.8064C-4.50956 21.7557 0.286581 19.1949 5.18481 16.8742C10.1132 14.5406 15.1039 12.2866 20.0984 9.99097C20.1382 10.043 20.18 10.1001 20.2211 10.1547C15.2246 12.4722 10.2288 14.7499 5.29265 17.0802C0.374539 19.4029 -4.44215 21.9457 -9.11123 24.9649V24.9649Z" fill="#650028"/>
<path opacity="0.1" fill-rule="evenodd" clip-rule="evenodd" d="M-9.45517 23.5449C-9.53413 23.1533 -9.61117 22.7572 -9.69141 22.3624C-5.64278 18.995 -1.20557 16.1245 3.52548 13.812C8.18235 11.5317 13.0581 9.54992 18.0019 7.55981C18.3582 7.93473 18.7139 8.30966 19.0394 8.69997C14.064 10.8422 9.12091 12.962 4.32408 15.2705C-0.444456 17.5656 -5.03262 20.2561 -9.45516 23.5449H-9.45517Z" fill="#98338E"/>
<path opacity="0.1" fill-rule="evenodd" clip-rule="evenodd" d="M-9.45522 23.545C-9.46742 23.4891 -9.47898 23.4333 -9.48926 23.3807C-5.09302 20.0636 -0.531198 17.359 4.2194 15.071C8.99242 12.7644 13.9247 10.6632 18.9019 8.53638C18.9468 8.59222 18.9944 8.64422 19.0393 8.70069C14.064 10.8423 9.12082 12.9621 4.32403 15.2706C-0.444522 17.565 -5.0327 20.2562 -9.45521 23.545H-9.45522Z" fill="#650028"/>
<path opacity="0.1" fill-rule="evenodd" clip-rule="evenodd" d="M-9.31897 24.1356C-9.33373 24.081 -9.34785 24.0297 -9.36133 23.9777C-4.8605 20.7678 -0.1985 18.1229 4.61563 15.8182C9.45609 13.5007 14.416 11.3315 19.4015 9.13403C19.4464 9.19056 19.492 9.2464 19.5344 9.29712C14.5488 11.5126 9.58386 13.7004 4.72671 16.0185C-0.107334 18.3264 -4.79179 20.9527 -9.31897 24.1356Z" fill="#E0FFCB"/>
<path opacity="0.1" fill-rule="evenodd" clip-rule="evenodd" d="M-9.65865 22.5209C-9.66957 22.4683 -9.67985 22.4157 -9.69141 22.3598C-5.64262 18.9933 -1.20544 16.1237 3.52548 13.812C8.18235 11.5317 13.0581 9.54992 18.0019 7.55981C18.0494 7.61182 18.0995 7.66253 18.1496 7.71325C13.1961 9.72712 8.31394 11.7249 3.64103 14.0103C-1.10611 16.3239 -5.5691 19.1798 -9.65866 22.5209H-9.65865Z" fill="#650028"/>
<path opacity="0.1" fill-rule="evenodd" clip-rule="evenodd" d="M-9.55713 23.0314C-9.5674 22.9787 -9.58216 22.9242 -9.58984 22.8702C-5.28866 19.4678 -0.808993 16.7189 3.88188 14.4399C8.59778 12.1474 13.5005 10.1027 18.4655 8.04456C18.5124 8.09656 18.5638 8.15048 18.6132 8.19799C13.6456 10.278 8.73582 12.3419 3.99615 14.6389C-0.713983 16.9224 -5.21935 19.6552 -9.55713 23.0314H-9.55713Z" fill="#985B00"/>
<path opacity="0.1" fill-rule="evenodd" clip-rule="evenodd" d="M-3.08203 4.56245C-2.79314 4.39489 -2.50426 4.23312 -2.19547 4.08997C1.12513 8.54296 4.0885 13.2515 6.66694 18.1716C9.24382 23.0666 11.5363 28.0919 13.8397 33.0788C13.353 33.2849 12.8671 33.4941 12.3689 33.6835C9.96858 28.7577 7.64402 23.7786 5.15895 18.8733C2.67002 13.957 -0.0557857 9.15444 -3.08203 4.56245Z" fill="#98338E"/>
<path opacity="0.1" fill-rule="evenodd" clip-rule="evenodd" d="M-3.08203 4.56249L-2.96005 4.49121C0.104714 9.06784 2.86262 13.8563 5.36694 18.7776C7.86357 23.6842 10.1849 28.673 12.5724 33.6071C12.5082 33.636 12.4402 33.6617 12.3689 33.6867C9.96857 28.7577 7.64402 23.7786 5.15895 18.8733C2.67002 13.9571 -0.0557857 9.15448 -3.08203 4.56249Z" fill="#650028"/>
<path opacity="0.1" fill-rule="evenodd" clip-rule="evenodd" d="M-1.85742 3.92753C-1.81441 3.90634 -1.77332 3.88965 -1.73352 3.86975C1.74068 8.23097 4.81106 12.8991 7.43961 17.8166C10.0601 22.7019 12.3301 27.7459 14.5802 32.7623C14.5109 32.7905 14.4486 32.8194 14.3793 32.8477C12.1164 27.8461 9.84312 22.8021 7.2316 17.9122C4.61454 12.9951 1.57331 8.31582 -1.85742 3.92753Z" fill="#E0FFCB"/>
<path opacity="0.1" fill-rule="evenodd" clip-rule="evenodd" d="M-1.73535 3.86979C-1.69234 3.8486 -1.64869 3.83063 -1.60696 3.80945C1.90378 8.14694 5.0011 12.8033 7.64446 17.7177C10.2766 22.5967 12.5388 27.6458 14.7704 32.6622C14.7062 32.6987 14.6458 32.7263 14.5778 32.7623C12.3308 27.7453 10.0608 22.702 7.44034 17.8166C4.81095 12.8991 1.73974 8.2309 -1.73535 3.86979Z" fill="#650028"/>
<path opacity="0.1" fill-rule="evenodd" clip-rule="evenodd" d="M-2.32227 4.149C-2.28099 4.12616 -2.23807 4.10641 -2.19387 4.08997C1.12629 8.54299 4.08923 13.2515 6.66724 18.1716C9.24412 23.0666 11.5366 28.0919 13.84 33.0788C13.7707 33.1076 13.7026 33.1391 13.6397 33.1648C11.3203 28.1837 9.02455 23.1642 6.45859 18.264C3.89294 13.3437 0.957557 8.62511 -2.32227 4.149Z" fill="#650028"/>
<path opacity="0.1" fill-rule="evenodd" clip-rule="evenodd" d="M-2.70898 4.34618L-2.58701 4.2749C0.605912 8.80286 3.48051 13.5471 6.01602 18.4734C8.55118 23.3767 10.8629 28.3848 13.2093 33.351C13.1451 33.378 13.0751 33.4095 13.0084 33.4364C10.6472 28.4766 8.33097 23.4807 5.8061 18.5697C3.27546 13.6509 0.450792 8.8759 -2.70898 4.34618Z" fill="#985B00"/>
<path opacity="0.1" fill-rule="evenodd" clip-rule="evenodd" d="M-9.07021 25.1235C-9.08306 25.0754 -9.09462 25.0195 -9.10938 24.9649C-4.44159 21.9477 0.375104 19.4029 5.29323 17.0802C10.2293 14.7499 15.2245 12.4722 20.2274 10.1547C20.2691 10.2124 20.307 10.2683 20.3474 10.3229C15.3484 12.6571 10.3449 14.9508 5.39787 17.2844C0.463053 19.609 -4.37935 22.1326 -9.07021 25.1235Z" fill="#E0FFCB"/>
<path opacity="0.1" fill-rule="evenodd" clip-rule="evenodd" d="M-9.11123 24.9649C-9.12343 24.9168 -9.13819 24.8622 -9.15039 24.8064C-4.50956 21.7557 0.286581 19.1949 5.18481 16.8742C10.1132 14.5406 15.1039 12.2866 20.0984 9.99097C20.1382 10.043 20.18 10.1001 20.2211 10.1547C15.2246 12.4722 10.2288 14.7499 5.29265 17.0802C0.374539 19.4029 -4.44215 21.9457 -9.11123 24.9649V24.9649Z" fill="#650028"/>
</g>
<path d="M6.6471 16.0986L8.90941 14.7838L8.90685 15.8309L6.64453 17.1457L6.6471 16.0986Z" fill="#C4524C"/>
<mask id="mask3_4230_55346" style="mask-type:alpha" maskUnits="userSpaceOnUse" x="6" y="14" width="3" height="4">
<path d="M6.64612 16.0987L8.90844 14.7839L8.90587 15.831L6.64355 17.1458L6.64612 16.0987Z" fill="#C4524C"/>
</mask>
<g mask="url(#mask3_4230_55346)">
<path opacity="0.1" fill-rule="evenodd" clip-rule="evenodd" d="M-0.574219 3.39101C-0.529919 3.3724 -0.485629 3.35442 -0.445827 3.34094C3.40441 7.42625 6.7456 11.963 9.50471 16.8519C12.2311 21.6833 14.4305 26.7549 16.5163 31.8104C16.4521 31.8463 16.3879 31.881 16.3237 31.9131C14.2206 26.8582 12.0161 21.788 9.30316 16.9552C6.5554 12.0612 3.24005 7.50837 -0.574219 3.39101Z" fill="#650028"/>
<path opacity="0.1" fill-rule="evenodd" clip-rule="evenodd" d="M-1.06055 3.57596C-1.01625 3.55799 -0.973881 3.5445 -0.932155 3.52588C2.78264 7.71837 6.02565 12.3062 8.73849 17.2069C11.4251 22.0615 13.6508 27.1241 15.8001 32.1687C15.7392 32.2008 15.6717 32.2329 15.6076 32.265C13.4441 27.2242 11.2062 22.1674 8.53177 17.3071C5.83305 12.4011 2.6173 7.79789 -1.06055 3.57596Z" fill="#E0FFCB"/>
<path opacity="0.1" fill-rule="evenodd" clip-rule="evenodd" d="M-1.8584 3.92766C-1.81539 3.90647 -1.7743 3.88978 -1.7345 3.86987C1.73971 8.2311 4.81008 12.8993 7.43863 17.8167C10.0591 22.7021 12.3291 27.746 14.5793 32.7624C14.5099 32.7906 14.4477 32.8195 14.3783 32.8478C12.1154 27.8462 9.84214 22.8022 7.23063 17.9123C4.61356 12.9953 1.57234 8.31591 -1.8584 3.92766Z" fill="#E0FFCB"/>
<path opacity="0.1" fill-rule="evenodd" clip-rule="evenodd" d="M-1.73633 3.86991C-1.69332 3.84872 -1.64966 3.83075 -1.60794 3.80957C1.9028 8.14706 5.00012 12.8034 7.64348 17.7178C10.2756 22.5968 12.5379 27.6459 14.7694 32.6623C14.7052 32.6989 14.6448 32.7265 14.5768 32.7624C12.3299 27.7454 10.0599 22.7021 7.43936 17.8167C4.80997 12.8992 1.73877 8.23102 -1.73633 3.86991Z" fill="#650028"/>
<path opacity="0.1" fill-rule="evenodd" clip-rule="evenodd" d="M-9.07217 25.1236C-9.08501 25.0755 -9.09657 25.0196 -9.11133 24.965C-4.44354 21.9478 0.373151 19.403 5.29128 17.0804C10.2274 14.75 15.2226 12.4723 20.2254 10.1548C20.2672 10.2125 20.305 10.2684 20.3455 10.323C15.3464 12.6572 10.3429 14.9509 5.39592 17.2845C0.4611 19.6091 -4.3813 22.1327 -9.07217 25.1236Z" fill="#E0FFCB"/>
<path opacity="0.1" fill-rule="evenodd" clip-rule="evenodd" d="M-9.11221 24.965C-9.12441 24.9169 -9.13917 24.8623 -9.15137 24.8064C-4.51054 21.7558 0.285604 19.195 5.18384 16.8743C10.1123 14.5407 15.1029 12.2868 20.0974 9.99109C20.1372 10.0431 20.179 10.1002 20.2201 10.1548C15.2236 12.4723 10.2278 14.75 5.29168 17.0803C0.373563 19.403 -4.44313 21.9459 -9.11221 24.9651V24.965Z" fill="#650028"/>
<path opacity="0.1" fill-rule="evenodd" clip-rule="evenodd" d="M-0.574219 3.39101C-0.529919 3.3724 -0.485629 3.35442 -0.445827 3.34094C3.40441 7.42625 6.7456 11.963 9.50471 16.8519C12.2311 21.6833 14.4305 26.7549 16.5163 31.8104C16.4521 31.8463 16.3879 31.881 16.3237 31.9131C14.2206 26.8582 12.0161 21.788 9.30316 16.9552C6.5554 12.0612 3.24005 7.50837 -0.574219 3.39101Z" fill="#650028"/>
<path opacity="0.1" fill-rule="evenodd" clip-rule="evenodd" d="M-1.06055 3.57596C-1.01625 3.55799 -0.973881 3.5445 -0.932155 3.52588C2.78264 7.71837 6.02565 12.3062 8.73849 17.2069C11.4251 22.0615 13.6508 27.1241 15.8001 32.1687C15.7392 32.2008 15.6717 32.2329 15.6076 32.265C13.4441 27.2242 11.2062 22.1674 8.53177 17.3071C5.83305 12.4011 2.6173 7.79789 -1.06055 3.57596Z" fill="#E0FFCB"/>
<path opacity="0.1" fill-rule="evenodd" clip-rule="evenodd" d="M-1.8584 3.92766C-1.81539 3.90647 -1.7743 3.88978 -1.7345 3.86987C1.73971 8.2311 4.81008 12.8993 7.43863 17.8167C10.0591 22.7021 12.3291 27.746 14.5793 32.7624C14.5099 32.7906 14.4477 32.8195 14.3783 32.8478C12.1154 27.8462 9.84214 22.8022 7.23063 17.9123C4.61356 12.9953 1.57234 8.31591 -1.8584 3.92766Z" fill="#E0FFCB"/>
<path opacity="0.1" fill-rule="evenodd" clip-rule="evenodd" d="M-1.73633 3.86991C-1.69332 3.84872 -1.64966 3.83075 -1.60794 3.80957C1.9028 8.14706 5.00012 12.8034 7.64348 17.7178C10.2756 22.5968 12.5379 27.6459 14.7694 32.6623C14.7052 32.6989 14.6448 32.7265 14.5768 32.7624C12.3299 27.7454 10.0599 22.7021 7.43936 17.8167C4.80997 12.8992 1.73877 8.23102 -1.73633 3.86991Z" fill="#650028"/>
<path opacity="0.1" fill-rule="evenodd" clip-rule="evenodd" d="M-9.07217 25.1236C-9.08501 25.0755 -9.09657 25.0196 -9.11133 24.965C-4.44354 21.9478 0.373151 19.403 5.29128 17.0804C10.2274 14.75 15.2226 12.4723 20.2254 10.1548C20.2672 10.2125 20.305 10.2684 20.3455 10.323C15.3464 12.6572 10.3429 14.9509 5.39592 17.2845C0.4611 19.6091 -4.3813 22.1327 -9.07217 25.1236Z" fill="#E0FFCB"/>
<path opacity="0.1" fill-rule="evenodd" clip-rule="evenodd" d="M-9.11221 24.965C-9.12441 24.9169 -9.13917 24.8623 -9.15137 24.8064C-4.51054 21.7558 0.285604 19.195 5.18384 16.8743C10.1123 14.5407 15.1029 12.2868 20.0974 9.99109C20.1372 10.0431 20.179 10.1002 20.2201 10.1548C15.2236 12.4723 10.2278 14.75 5.29168 17.0803C0.373563 19.403 -4.44313 21.9459 -9.11221 24.9651V24.965Z" fill="#650028"/>
<path opacity="0.1" fill-rule="evenodd" clip-rule="evenodd" d="M-0.574219 3.39101C-0.529919 3.3724 -0.485629 3.35442 -0.445827 3.34094C3.40441 7.42625 6.7456 11.963 9.50471 16.8519C12.2311 21.6833 14.4305 26.7549 16.5163 31.8104C16.4521 31.8463 16.3879 31.881 16.3237 31.9131C14.2206 26.8582 12.0161 21.788 9.30316 16.9552C6.5554 12.0612 3.24005 7.50837 -0.574219 3.39101Z" fill="#650028"/>
<path opacity="0.1" fill-rule="evenodd" clip-rule="evenodd" d="M-1.06055 3.57596C-1.01625 3.55799 -0.973881 3.5445 -0.932155 3.52588C2.78264 7.71837 6.02565 12.3062 8.73849 17.2069C11.4251 22.0615 13.6508 27.1241 15.8001 32.1687C15.7392 32.2008 15.6717 32.2329 15.6076 32.265C13.4441 27.2242 11.2062 22.1674 8.53177 17.3071C5.83305 12.4011 2.6173 7.79789 -1.06055 3.57596Z" fill="#E0FFCB"/>
<path opacity="0.1" fill-rule="evenodd" clip-rule="evenodd" d="M-1.8584 3.92766C-1.81539 3.90647 -1.7743 3.88978 -1.7345 3.86987C1.73971 8.2311 4.81008 12.8993 7.43863 17.8167C10.0591 22.7021 12.3291 27.746 14.5793 32.7624C14.5099 32.7906 14.4477 32.8195 14.3783 32.8478C12.1154 27.8462 9.84214 22.8022 7.23063 17.9123C4.61356 12.9953 1.57234 8.31591 -1.8584 3.92766Z" fill="#E0FFCB"/>
<path opacity="0.1" fill-rule="evenodd" clip-rule="evenodd" d="M-1.73633 3.86991C-1.69332 3.84872 -1.64966 3.83075 -1.60794 3.80957C1.9028 8.14706 5.00012 12.8034 7.64348 17.7178C10.2756 22.5968 12.5379 27.6459 14.7694 32.6623C14.7052 32.6989 14.6448 32.7265 14.5768 32.7624C12.3299 27.7454 10.0599 22.7021 7.43936 17.8167C4.80997 12.8992 1.73877 8.23102 -1.73633 3.86991Z" fill="#650028"/>
<path opacity="0.1" fill-rule="evenodd" clip-rule="evenodd" d="M-9.07217 25.1236C-9.08501 25.0755 -9.09657 25.0196 -9.11133 24.965C-4.44354 21.9478 0.373151 19.403 5.29128 17.0804C10.2274 14.75 15.2226 12.4723 20.2254 10.1548C20.2672 10.2125 20.305 10.2684 20.3455 10.323C15.3464 12.6572 10.3429 14.9509 5.39592 17.2845C0.4611 19.6091 -4.3813 22.1327 -9.07217 25.1236Z" fill="#E0FFCB"/>
<path opacity="0.1" fill-rule="evenodd" clip-rule="evenodd" d="M-9.11221 24.965C-9.12441 24.9169 -9.13917 24.8623 -9.15137 24.8064C-4.51054 21.7558 0.285604 19.195 5.18384 16.8743C10.1123 14.5407 15.1029 12.2868 20.0974 9.99109C20.1372 10.0431 20.179 10.1002 20.2201 10.1548C15.2236 12.4723 10.2278 14.75 5.29168 17.0803C0.373563 19.403 -4.44313 21.9459 -9.11221 24.9651V24.965Z" fill="#650028"/>
</g>
<path d="M3.00294 13.9948L5.26523 12.6801L8.90842 14.7838L6.6461 16.0986L3.00293 13.9948H3.00294Z" fill="#DB5B54"/>
<mask id="mask4_4230_55346" style="mask-type:alpha" maskUnits="userSpaceOnUse" x="3" y="12" width="6" height="5">
<path d="M3.00294 13.9948L5.26523 12.6801L8.90842 14.7838L6.6461 16.0986L3.00293 13.9948H3.00294Z" fill="#DB5B54"/>
</mask>
<g mask="url(#mask4_4230_55346)">
<path opacity="0.1" fill-rule="evenodd" clip-rule="evenodd" d="M-0.572266 3.39078C-0.527966 3.37216 -0.483676 3.35418 -0.443874 3.3407C3.40637 7.42601 6.74755 11.9627 9.50666 16.8516C12.2331 21.6831 14.4325 26.7546 16.5183 31.8102C16.4541 31.8461 16.3899 31.8808 16.3257 31.9129C14.2226 26.858 12.0181 21.7877 9.30511 16.955C6.55736 12.061 3.242 7.50814 -0.572266 3.39078Z" fill="#650028"/>
<path opacity="0.1" fill-rule="evenodd" clip-rule="evenodd" d="M-1.05957 3.57571C-1.01527 3.55774 -0.972904 3.54426 -0.931179 3.52563C2.78362 7.71809 6.02662 12.306 8.73946 17.2067C11.4261 22.0613 13.6518 27.1238 15.8011 32.1684C15.7402 32.2005 15.6727 32.2326 15.6086 32.2647C13.4451 27.224 11.2072 22.1672 8.53274 17.3068C5.83403 12.4009 2.61828 7.79765 -1.05957 3.57571Z" fill="#E0FFCB"/>
<path opacity="0.1" fill-rule="evenodd" clip-rule="evenodd" d="M-9.45517 23.5447C-9.53413 23.1531 -9.61117 22.7571 -9.69141 22.3622C-5.64278 18.9949 -1.20557 16.1243 3.52548 13.8118C8.18235 11.5316 13.0581 9.54981 18.0019 7.55969C18.3582 7.93457 18.7139 8.30949 19.0394 8.69981C14.064 10.8421 9.12091 12.9619 4.32408 15.2704C-0.444456 17.5654 -5.03262 20.2559 -9.45516 23.5447H-9.45517Z" fill="#98338E"/>
<path opacity="0.1" fill-rule="evenodd" clip-rule="evenodd" d="M-9.45522 23.5448C-9.46742 23.4889 -9.47898 23.433 -9.48926 23.3804C-5.09302 20.0634 -0.531198 17.3587 4.2194 15.0708C8.99242 12.7642 13.9247 10.663 18.9019 8.53613C18.9468 8.59201 18.9944 8.64402 19.0393 8.70049C14.064 10.8421 9.12082 12.9619 4.32403 15.2704C-0.444522 17.5648 -5.0327 20.2559 -9.45521 23.5448H-9.45522Z" fill="#650028"/>
<path opacity="0.1" fill-rule="evenodd" clip-rule="evenodd" d="M-9.31897 24.1355C-9.33373 24.0809 -9.34785 24.0296 -9.36133 23.9776C-4.8605 20.7677 -0.1985 18.1228 4.61563 15.8181C9.45609 13.5006 14.416 11.3313 19.4015 9.13391C19.4464 9.19039 19.492 9.24623 19.5344 9.29696C14.5488 11.5124 9.58386 13.7002 4.72671 16.0184C-0.107334 18.3263 -4.79179 20.9526 -9.31897 24.1355Z" fill="#E0FFCB"/>
<path opacity="0.1" fill-rule="evenodd" clip-rule="evenodd" d="M-9.65865 22.5208C-9.66957 22.4682 -9.67985 22.4155 -9.69141 22.3597C-5.64262 18.9932 -1.20544 16.1235 3.52548 13.8118C8.18235 11.5316 13.0581 9.54981 18.0019 7.55969C18.0494 7.6117 18.0995 7.66241 18.1496 7.71309C13.1961 9.72696 8.31394 11.7248 3.64103 14.0102C-1.10611 16.3237 -5.5691 19.1796 -9.65866 22.5208H-9.65865Z" fill="#650028"/>
<path opacity="0.1" fill-rule="evenodd" clip-rule="evenodd" d="M-9.55713 23.0311C-9.5674 22.9784 -9.58216 22.9239 -9.58984 22.8699C-5.28866 19.4675 -0.808993 16.7186 3.88188 14.4396C8.59778 12.1471 13.5005 10.1025 18.4655 8.04431C18.5124 8.09632 18.5638 8.15023 18.6132 8.19771C13.6456 10.2777 8.73582 12.3417 3.99615 14.6386C-0.713983 16.9221 -5.21935 19.655 -9.55713 23.0311H-9.55713Z" fill="#985B00"/>
<path opacity="0.1" fill-rule="evenodd" clip-rule="evenodd" d="M-1.85742 3.92741C-1.81441 3.90623 -1.77332 3.88953 -1.73352 3.86963C1.74068 8.23083 4.81106 12.899 7.43961 17.8164C10.0601 22.7018 12.3301 27.7458 14.5802 32.7622C14.5109 32.7904 14.4486 32.8193 14.3793 32.8475C12.1164 27.8459 9.84312 22.802 7.2316 17.9121C4.61454 12.995 1.57331 8.31567 -1.85742 3.92741Z" fill="#E0FFCB"/>
<path opacity="0.1" fill-rule="evenodd" clip-rule="evenodd" d="M-1.73535 3.86967C-1.69234 3.84849 -1.64869 3.83051 -1.60696 3.80933C1.90378 8.1468 5.0011 12.8032 7.64446 17.7176C10.2766 22.5966 12.5388 27.6457 14.7704 32.6621C14.7062 32.6986 14.6458 32.7262 14.5778 32.7622C12.3308 27.7452 10.0608 22.7019 7.44034 17.8165C4.81095 12.8989 1.73974 8.2308 -1.73535 3.86967Z" fill="#650028"/>
<path opacity="0.1" fill-rule="evenodd" clip-rule="evenodd" d="M-2.32227 4.14892C-2.28099 4.12604 -2.23807 4.10632 -2.19387 4.08984C1.12629 8.54287 4.08923 13.2514 6.66724 18.1714C9.24412 23.0665 11.5366 28.0918 13.84 33.0786C13.7707 33.1076 13.7026 33.139 13.6397 33.1647C11.3203 28.1836 9.02455 23.1641 6.45859 18.2639C3.89294 13.3435 0.957557 8.62499 -2.32227 4.14892Z" fill="#650028"/>
<path opacity="0.1" fill-rule="evenodd" clip-rule="evenodd" d="M-2.70898 4.34602L-2.58701 4.27478C0.605912 8.80273 3.48051 13.547 6.01602 18.4732C8.55118 23.3766 10.8629 28.3846 13.2093 33.3509C13.1451 33.3779 13.0751 33.4093 13.0084 33.4363C10.6472 28.4764 8.33097 23.4806 5.8061 18.5695C3.27546 13.6508 0.450792 8.87577 -2.70898 4.34602Z" fill="#985B00"/>
<path opacity="0.1" fill-rule="evenodd" clip-rule="evenodd" d="M-0.572266 3.39078C-0.527966 3.37216 -0.483676 3.35418 -0.443874 3.3407C3.40637 7.42601 6.74755 11.9627 9.50666 16.8516C12.2331 21.6831 14.4325 26.7546 16.5183 31.8102C16.4541 31.8461 16.3899 31.8808 16.3257 31.9129C14.2226 26.858 12.0181 21.7877 9.30511 16.955C6.55736 12.061 3.242 7.50814 -0.572266 3.39078Z" fill="#650028"/>
<path opacity="0.1" fill-rule="evenodd" clip-rule="evenodd" d="M-1.05957 3.57571C-1.01527 3.55774 -0.972904 3.54426 -0.931179 3.52563C2.78362 7.71809 6.02662 12.306 8.73946 17.2067C11.4261 22.0613 13.6518 27.1238 15.8011 32.1684C15.7402 32.2005 15.6727 32.2326 15.6086 32.2647C13.4451 27.224 11.2072 22.1672 8.53274 17.3068C5.83403 12.4009 2.61828 7.79765 -1.05957 3.57571Z" fill="#E0FFCB"/>
<path opacity="0.1" fill-rule="evenodd" clip-rule="evenodd" d="M-9.45517 23.5447C-9.53413 23.1531 -9.61117 22.7571 -9.69141 22.3622C-5.64278 18.9949 -1.20557 16.1243 3.52548 13.8118C8.18235 11.5316 13.0581 9.54981 18.0019 7.55969C18.3582 7.93457 18.7139 8.30949 19.0394 8.69981C14.064 10.8421 9.12091 12.9619 4.32408 15.2704C-0.444456 17.5654 -5.03262 20.2559 -9.45516 23.5447H-9.45517Z" fill="#98338E"/>
<path opacity="0.1" fill-rule="evenodd" clip-rule="evenodd" d="M-9.45522 23.5448C-9.46742 23.4889 -9.47898 23.433 -9.48926 23.3804C-5.09302 20.0634 -0.531198 17.3587 4.2194 15.0708C8.99242 12.7642 13.9247 10.663 18.9019 8.53613C18.9468 8.59201 18.9944 8.64402 19.0393 8.70049C14.064 10.8421 9.12082 12.9619 4.32403 15.2704C-0.444522 17.5648 -5.0327 20.2559 -9.45521 23.5448H-9.45522Z" fill="#650028"/>
<path opacity="0.1" fill-rule="evenodd" clip-rule="evenodd" d="M-9.31897 24.1355C-9.33373 24.0809 -9.34785 24.0296 -9.36133 23.9776C-4.8605 20.7677 -0.1985 18.1228 4.61563 15.8181C9.45609 13.5006 14.416 11.3313 19.4015 9.13391C19.4464 9.19039 19.492 9.24623 19.5344 9.29696C14.5488 11.5124 9.58386 13.7002 4.72671 16.0184C-0.107334 18.3263 -4.79179 20.9526 -9.31897 24.1355Z" fill="#E0FFCB"/>
<path opacity="0.1" fill-rule="evenodd" clip-rule="evenodd" d="M-9.65865 22.5208C-9.66957 22.4682 -9.67985 22.4155 -9.69141 22.3597C-5.64262 18.9932 -1.20544 16.1235 3.52548 13.8118C8.18235 11.5316 13.0581 9.54981 18.0019 7.55969C18.0494 7.6117 18.0995 7.66241 18.1496 7.71309C13.1961 9.72696 8.31394 11.7248 3.64103 14.0102C-1.10611 16.3237 -5.5691 19.1796 -9.65866 22.5208H-9.65865Z" fill="#650028"/>
<path opacity="0.1" fill-rule="evenodd" clip-rule="evenodd" d="M-9.55713 23.0311C-9.5674 22.9784 -9.58216 22.9239 -9.58984 22.8699C-5.28866 19.4675 -0.808993 16.7186 3.88188 14.4396C8.59778 12.1471 13.5005 10.1025 18.4655 8.04431C18.5124 8.09632 18.5638 8.15023 18.6132 8.19771C13.6456 10.2777 8.73582 12.3417 3.99615 14.6386C-0.713983 16.9221 -5.21935 19.655 -9.55713 23.0311H-9.55713Z" fill="#985B00"/>
<path opacity="0.1" fill-rule="evenodd" clip-rule="evenodd" d="M-1.85742 3.92741C-1.81441 3.90623 -1.77332 3.88953 -1.73352 3.86963C1.74068 8.23083 4.81106 12.899 7.43961 17.8164C10.0601 22.7018 12.3301 27.7458 14.5802 32.7622C14.5109 32.7904 14.4486 32.8193 14.3793 32.8475C12.1164 27.8459 9.84312 22.802 7.2316 17.9121C4.61454 12.995 1.57331 8.31567 -1.85742 3.92741Z" fill="#E0FFCB"/>
<path opacity="0.1" fill-rule="evenodd" clip-rule="evenodd" d="M-1.73535 3.86967C-1.69234 3.84849 -1.64869 3.83051 -1.60696 3.80933C1.90378 8.1468 5.0011 12.8032 7.64446 17.7176C10.2766 22.5966 12.5388 27.6457 14.7704 32.6621C14.7062 32.6986 14.6458 32.7262 14.5778 32.7622C12.3308 27.7452 10.0608 22.7019 7.44034 17.8165C4.81095 12.8989 1.73974 8.2308 -1.73535 3.86967Z" fill="#650028"/>
<path opacity="0.1" fill-rule="evenodd" clip-rule="evenodd" d="M-2.32227 4.14892C-2.28099 4.12604 -2.23807 4.10632 -2.19387 4.08984C1.12629 8.54287 4.08923 13.2514 6.66724 18.1714C9.24412 23.0665 11.5366 28.0918 13.84 33.0786C13.7707 33.1076 13.7026 33.139 13.6397 33.1647C11.3203 28.1836 9.02455 23.1641 6.45859 18.2639C3.89294 13.3435 0.957557 8.62499 -2.32227 4.14892Z" fill="#650028"/>
<path opacity="0.1" fill-rule="evenodd" clip-rule="evenodd" d="M-2.70898 4.34602L-2.58701 4.27478C0.605912 8.80273 3.48051 13.547 6.01602 18.4732C8.55118 23.3766 10.8629 28.3846 13.2093 33.3509C13.1451 33.3779 13.0751 33.4093 13.0084 33.4363C10.6472 28.4764 8.33097 23.4806 5.8061 18.5695C3.27546 13.6508 0.450792 8.87577 -2.70898 4.34602Z" fill="#985B00"/>
<path opacity="0.1" fill-rule="evenodd" clip-rule="evenodd" d="M-0.572266 3.39078C-0.527966 3.37216 -0.483676 3.35418 -0.443874 3.3407C3.40637 7.42601 6.74755 11.9627 9.50666 16.8516C12.2331 21.6831 14.4325 26.7546 16.5183 31.8102C16.4541 31.8461 16.3899 31.8808 16.3257 31.9129C14.2226 26.858 12.0181 21.7877 9.30511 16.955C6.55736 12.061 3.242 7.50814 -0.572266 3.39078Z" fill="#650028"/>
<path opacity="0.1" fill-rule="evenodd" clip-rule="evenodd" d="M-1.05957 3.57571C-1.01527 3.55774 -0.972904 3.54426 -0.931179 3.52563C2.78362 7.71809 6.02662 12.306 8.73946 17.2067C11.4261 22.0613 13.6518 27.1238 15.8011 32.1684C15.7402 32.2005 15.6727 32.2326 15.6086 32.2647C13.4451 27.224 11.2072 22.1672 8.53274 17.3068C5.83403 12.4009 2.61828 7.79765 -1.05957 3.57571Z" fill="#E0FFCB"/>
<path opacity="0.1" fill-rule="evenodd" clip-rule="evenodd" d="M-9.45517 23.5447C-9.53413 23.1531 -9.61117 22.7571 -9.69141 22.3622C-5.64278 18.9949 -1.20557 16.1243 3.52548 13.8118C8.18235 11.5316 13.0581 9.54981 18.0019 7.55969C18.3582 7.93457 18.7139 8.30949 19.0394 8.69981C14.064 10.8421 9.12091 12.9619 4.32408 15.2704C-0.444456 17.5654 -5.03262 20.2559 -9.45516 23.5447H-9.45517Z" fill="#98338E"/>
<path opacity="0.1" fill-rule="evenodd" clip-rule="evenodd" d="M-9.45522 23.5448C-9.46742 23.4889 -9.47898 23.433 -9.48926 23.3804C-5.09302 20.0634 -0.531198 17.3587 4.2194 15.0708C8.99242 12.7642 13.9247 10.663 18.9019 8.53613C18.9468 8.59201 18.9944 8.64402 19.0393 8.70049C14.064 10.8421 9.12082 12.9619 4.32403 15.2704C-0.444522 17.5648 -5.0327 20.2559 -9.45521 23.5448H-9.45522Z" fill="#650028"/>
<path opacity="0.1" fill-rule="evenodd" clip-rule="evenodd" d="M-9.31897 24.1355C-9.33373 24.0809 -9.34785 24.0296 -9.36133 23.9776C-4.8605 20.7677 -0.1985 18.1228 4.61563 15.8181C9.45609 13.5006 14.416 11.3313 19.4015 9.13391C19.4464 9.19039 19.492 9.24623 19.5344 9.29696C14.5488 11.5124 9.58386 13.7002 4.72671 16.0184C-0.107334 18.3263 -4.79179 20.9526 -9.31897 24.1355Z" fill="#E0FFCB"/>
<path opacity="0.1" fill-rule="evenodd" clip-rule="evenodd" d="M-9.65865 22.5208C-9.66957 22.4682 -9.67985 22.4155 -9.69141 22.3597C-5.64262 18.9932 -1.20544 16.1235 3.52548 13.8118C8.18235 11.5316 13.0581 9.54981 18.0019 7.55969C18.0494 7.6117 18.0995 7.66241 18.1496 7.71309C13.1961 9.72696 8.31394 11.7248 3.64103 14.0102C-1.10611 16.3237 -5.5691 19.1796 -9.65866 22.5208H-9.65865Z" fill="#650028"/>
<path opacity="0.1" fill-rule="evenodd" clip-rule="evenodd" d="M-9.55713 23.0311C-9.5674 22.9784 -9.58216 22.9239 -9.58984 22.8699C-5.28866 19.4675 -0.808993 16.7186 3.88188 14.4396C8.59778 12.1471 13.5005 10.1025 18.4655 8.04431C18.5124 8.09632 18.5638 8.15023 18.6132 8.19771C13.6456 10.2777 8.73582 12.3417 3.99615 14.6386C-0.713983 16.9221 -5.21935 19.655 -9.55713 23.0311H-9.55713Z" fill="#985B00"/>
<path opacity="0.1" fill-rule="evenodd" clip-rule="evenodd" d="M-1.85742 3.92741C-1.81441 3.90623 -1.77332 3.88953 -1.73352 3.86963C1.74068 8.23083 4.81106 12.899 7.43961 17.8164C10.0601 22.7018 12.3301 27.7458 14.5802 32.7622C14.5109 32.7904 14.4486 32.8193 14.3793 32.8475C12.1164 27.8459 9.84312 22.802 7.2316 17.9121C4.61454 12.995 1.57331 8.31567 -1.85742 3.92741Z" fill="#E0FFCB"/>
<path opacity="0.1" fill-rule="evenodd" clip-rule="evenodd" d="M-1.73535 3.86967C-1.69234 3.84849 -1.64869 3.83051 -1.60696 3.80933C1.90378 8.1468 5.0011 12.8032 7.64446 17.7176C10.2766 22.5966 12.5388 27.6457 14.7704 32.6621C14.7062 32.6986 14.6458 32.7262 14.5778 32.7622C12.3308 27.7452 10.0608 22.7019 7.44034 17.8165C4.81095 12.8989 1.73974 8.2308 -1.73535 3.86967Z" fill="#650028"/>
<path opacity="0.1" fill-rule="evenodd" clip-rule="evenodd" d="M-2.32227 4.14892C-2.28099 4.12604 -2.23807 4.10632 -2.19387 4.08984C1.12629 8.54287 4.08923 13.2514 6.66724 18.1714C9.24412 23.0665 11.5366 28.0918 13.84 33.0786C13.7707 33.1076 13.7026 33.139 13.6397 33.1647C11.3203 28.1836 9.02455 23.1641 6.45859 18.2639C3.89294 13.3435 0.957557 8.62499 -2.32227 4.14892Z" fill="#650028"/>
<path opacity="0.1" fill-rule="evenodd" clip-rule="evenodd" d="M-2.70898 4.34602L-2.58701 4.27478C0.605912 8.80273 3.48051 13.547 6.01602 18.4732C8.55118 23.3766 10.8629 28.3846 13.2093 33.3509C13.1451 33.3779 13.0751 33.4093 13.0084 33.4363C10.6472 28.4764 8.33097 23.4806 5.8061 18.5695C3.27546 13.6508 0.450792 8.87577 -2.70898 4.34602Z" fill="#985B00"/>
</g>
<path d="M16.8713 3.94421L16.879 6.56088L10.0478 10.5052L10.04 7.88847L16.8713 3.94421Z" fill="#DB5B54"/>
<path d="M10.0475 10.5052L3.26063 6.56088L3.25293 3.94421L10.0398 7.88847L10.0475 10.5052H10.0475Z" fill="#A24741"/>
<path d="M10.0398 7.88854L3.25293 3.94427L10.0848 0L16.871 3.94427L10.0398 7.88854Z" fill="#F2716A"/>
<path d="M15.6276 8.54726C16.1954 8.21127 16.8095 7.96059 17.4502 7.80322V8.84962C16.8096 9.00694 16.1957 9.25785 15.6282 9.5943C14.973 9.97846 14.3625 10.434 13.8076 10.9527V9.9063C14.3624 9.38767 14.9728 8.93191 15.6276 8.54726Z" fill="#DB5B54"/>
<path d="M13.8098 10.9527L11.5481 9.63859L11.5449 8.59155L13.8072 9.90631L13.8098 10.9527Z" fill="#A24741"/>
<path d="M13.8072 9.90616L11.5449 8.5914C12.0998 8.07289 12.7104 7.61729 13.3656 7.23301C14.0206 6.84868 15.1733 6.46265 15.1733 6.46265L17.4523 7.81077C17.4523 7.81077 16.2829 8.16253 15.6278 8.54712C14.9728 8.93173 14.3622 9.38748 13.8072 9.90616Z" fill="#F2716A"/>
<path d="M15.9519 13.6168L15.5 13.3536L15.3799 13.2676L15.8325 13.5302L15.9519 13.6168Z" fill="#898989"/>
<path d="M15.0781 14.5829L14.6255 14.3197L14.3887 14.1097L14.8413 14.3723L15.0781 14.5829Z" fill="#898989"/>
<path d="M10.4964 15.732L10.0446 15.4699L10.0439 15.302L10.4957 15.5647L10.4964 15.732V15.732Z" fill="#888888"/>
<path d="M17.3739 10.8459L17.3751 11.3075L17.3758 11.5939L17.3764 11.7614L15.9519 13.6167L15.8325 13.53L15.0788 14.5829L14.8419 14.3723L13.9432 15.7628L13.0393 15.4129L12.8043 15.8963L12.0468 15.7159L11.9274 15.94L10.4977 15.7326L10.497 15.5651L10.4951 14.8178L17.3739 10.846V10.8459Z" fill="#D6D6D6"/>
<path d="M10.4965 15.5652L10.0439 15.302L10.042 14.5547L10.4945 14.8179L10.4965 15.5652Z" fill="#888888"/>
<path d="M10.4946 14.8179L10.042 14.5547L16.9207 10.5835L17.3733 10.8461L10.4946 14.8179V14.8179Z" fill="#FDFDFD"/>
<path d="M6.66504 11.2153L7.11763 10.952L10.0482 14.5516L9.59563 14.8141L6.66504 11.2153V11.2153Z" fill="#FDFDFD"/>
<path d="M9.59473 14.8142L10.0473 14.5516L10.5025 14.8142L10.0505 15.0768L9.59473 14.8142Z" fill="#FDFDFD"/>
<path d="M10.0504 15.0767L10.5024 14.8141L10.4998 15.7321L10.0479 15.9953L10.0504 15.0766V15.0767Z" fill="#D6D6D6"/>
<path d="M6.6712 9.06654L6.6648 11.2152L9.59539 14.8141L10.0512 15.0767L10.0486 15.9953L6.65707 13.9295L5.85012 13.4634L5.44824 13.231L5.45081 12.304L5.85785 10.7491L5.86425 8.60046L6.67121 9.06654H6.6712Z" fill="#898989"/>
<path d="M6.67148 9.06658L7.12404 8.80334L7.11763 10.952L6.66504 11.2153L6.67148 9.06658Z" fill="#FDFDFD"/>
<path d="M5.86328 8.60058L6.31584 8.33801L7.12279 8.80341L6.67024 9.06665L5.86328 8.60057V8.60058Z" fill="#DCDCDC"/>
</svg>
