<svg width="20" height="20" viewBox="0 0 20 20" fill="none" xmlns="http://www.w3.org/2000/svg">
<path fill-rule="evenodd" clip-rule="evenodd" d="M9.45211 0.00715735C8.43754 0.0835841 7.55383 0.256686 6.74396 0.537669C5.30522 1.03682 4.00115 1.85364 2.92406 2.93037C1.29503 4.5588 0.317907 6.60045 0.0405484 8.95531C-0.0196258 9.46614 -0.0114543 10.644 0.055952 11.1774C0.112995 11.6287 0.255635 12.3664 0.34192 12.6562L0.390823 12.8205H1.20699C1.9716 12.8205 2.02179 12.817 2.00163 12.7657C1.98979 12.7356 1.9334 12.549 1.8763 12.351C1.65426 11.5812 1.54678 10.8154 1.54684 10.0039C1.54719 5.33471 5.32952 1.55369 10 1.55369C11.6404 1.55369 13.2588 2.03203 14.6078 2.91557L14.9175 3.11846L16.0983 3.1169L17.2791 3.11533L16.9504 2.80093C15.3521 1.2722 13.3876 0.341031 11.1833 0.067341C10.805 0.0203646 9.75943 -0.015971 9.45211 0.00715735ZM10.0313 4.07414C10.0313 4.08337 10.252 4.34746 10.5218 4.66096C11.0504 5.27522 11.1639 5.46115 11.2176 5.8001C11.2561 6.04349 11.2162 6.3441 11.1157 6.56721C11.002 6.81968 6.83685 12.7675 6.60802 13.0042C6.38053 13.2394 6.04591 13.4685 5.76642 13.5803C5.32673 13.7563 5.27708 13.7594 2.90793 13.7594H0.728575L0.748863 13.8298C0.780766 13.9406 1.19219 14.7823 1.31745 14.993C1.37969 15.0977 1.5439 15.3559 1.68235 15.5668L1.93409 15.9501L4.64428 15.95C6.42793 15.95 7.4508 15.9382 7.63624 15.9154C8.50554 15.809 9.31279 15.3649 9.84887 14.6983C9.91118 14.6208 11.2103 12.7688 12.7359 10.5827C14.2615 8.39666 15.5539 6.56083 15.6078 6.50308C15.6617 6.44537 15.7781 6.36453 15.8663 6.32344L16.0268 6.24877L17.6491 6.24845L19.2714 6.24814L19.2511 6.17772C19.2192 6.06687 18.8078 5.22517 18.6825 5.01451C18.6203 4.9098 18.4561 4.65163 18.3177 4.44075L18.0659 4.05737H14.0486C11.8391 4.05737 10.0313 4.06491 10.0313 4.07414ZM17.9984 7.24181C18.0102 7.27195 18.0666 7.45854 18.1237 7.65649C18.3457 8.42633 18.4532 9.19207 18.4532 10.0036C18.4528 14.673 14.6707 18.4538 10 18.4538C8.35958 18.4538 6.7412 17.9755 5.39223 17.0919L5.08247 16.889L3.90165 16.8906L2.72087 16.8922L3.0496 17.2066C4.48821 18.5825 6.2687 19.4967 8.18413 19.8427C8.87062 19.9667 9.25465 20 10 20C10.7459 20 11.1304 19.9666 11.8159 19.8425C13.8023 19.4829 15.6312 18.5214 17.0759 17.0771C18.705 15.4487 19.6821 13.4071 19.9595 11.0522C20.0196 10.5414 20.0115 9.36351 19.944 8.83012C19.887 8.37879 19.7444 7.64106 19.6581 7.35135L19.6092 7.18704H18.793C18.0284 7.18704 17.9782 7.19052 17.9984 7.24181ZM13.1655 13.1673C12.4544 13.3069 11.9424 14.0387 12.0599 14.7477C12.1617 15.3616 12.6238 15.8235 13.2379 15.9253C14.1433 16.0752 14.9779 15.2409 14.8279 14.3359C14.6957 13.5385 13.9489 13.0135 13.1655 13.1673Z" fill="#39B54A"/>
</svg>
