<svg width="20" height="20" viewBox="0 0 20 20" fill="none" xmlns="http://www.w3.org/2000/svg">
<path d="M10 20C15.5228 20 20 15.5228 20 10C20 4.47715 15.5228 0 10 0C4.47715 0 0 4.47715 0 10C0 15.5228 4.47715 20 10 20Z" fill="#0093DD"/>
<path fill-rule="evenodd" clip-rule="evenodd" d="M8.4375 10L11.6875 13.3125L13.75 11.25C14.125 10.875 14.6875 10.875 15 11.25C15.375 11.625 15.375 12.25 15 12.625L12.3125 15.375C11.9375 15.75 11.375 15.75 11 15.375L7.125 11.375V13.75C7.125 14.25 6.6875 14.6875 6.1875 14.6875C5.6875 14.6875 5.25 14.25 5.25 13.75V6.25C5.25 5.75 5.6875 5.3125 6.1875 5.3125C6.6875 5.3125 7.125 5.75 7.125 6.25V8.625L11 4.625C11.375 4.25 11.9375 4.25 12.3125 4.625L15 7.375C15.375 7.75 15.375 8.375 15 8.75C14.625 9.125 14.0625 9.125 13.75 8.75L11.6875 6.625L8.4375 10ZM11.6875 9.0625C12.1875 9.0625 12.625 9.5 12.625 10C12.625 10.5 12.1875 10.9375 11.6875 10.9375C11.1875 10.9375 10.75 10.5 10.75 10C10.75 9.5 11.1875 9.0625 11.6875 9.0625Z" fill="white"/>
</svg>
