<svg width="20" height="20" viewBox="0 0 20 20" fill="none" xmlns="http://www.w3.org/2000/svg">
<path d="M20 10C20 15.5228 15.5228 20 10 20C4.47715 20 0 15.5228 0 10C0 4.47715 4.47715 0 10 0C15.5228 0 20 4.47715 20 10Z" fill="url(#paint0_linear)"/>
<path fill-rule="evenodd" clip-rule="evenodd" d="M10 19.5C15.2467 19.5 19.5 15.2467 19.5 10C19.5 4.75329 15.2467 0.5 10 0.5C4.75329 0.5 0.5 4.75329 0.5 10C0.5 15.2467 4.75329 19.5 10 19.5ZM10 20C15.5228 20 20 15.5228 20 10C20 4.47715 15.5228 0 10 0C4.47715 0 0 4.47715 0 10C0 15.5228 4.47715 20 10 20Z" fill="black"/>
<path d="M11.643 4.85715C11.0715 4.85715 10.7858 5.42858 10.2144 5.42858C9.64297 5.42858 9.35706 4.85715 8.78563 4.85715C8.2142 4.85715 7.64277 5.14286 7.64277 5.14286C7.64277 5.14286 6.04277 3.54286 6.49992 2.85715C5.16658 3.14286 2.78563 4.45715 3.92849 7.42858C3.4523 9.33334 2.6142 13.3143 3.07135 14C3.64277 14.8571 5.35706 16.5714 6.2142 17.1429C7.07135 17.7143 8.21439 19.7143 10.5001 19.7143C12.7858 19.7143 13.3572 17.7143 14.2144 17.1429C15.0715 16.5714 16.7858 14.8571 17.3572 14C17.8144 13.3143 16.9763 9.33334 16.5001 7.42858C17.643 4.45715 15.262 3.14286 13.9287 2.85715C14.3858 3.54286 12.7858 5.14286 12.7858 5.14286C12.7858 5.14286 12.2144 4.85715 11.643 4.85715Z" fill="#727670"/>
<path fill-rule="evenodd" clip-rule="evenodd" d="M7.04932 2.48376L6.70793 2.99584C6.65982 3.068 6.64435 3.19891 6.72176 3.42147C6.79625 3.63564 6.93812 3.87777 7.10416 4.113C7.26842 4.3457 7.44764 4.55956 7.58677 4.71608C7.63 4.76471 7.66914 4.80756 7.70247 4.84345C7.76262 4.81903 7.83662 4.79094 7.92086 4.76286C8.14762 4.68727 8.4621 4.60717 8.78563 4.60717C9.1477 4.60717 9.41751 4.78725 9.62182 4.92362C9.62749 4.9274 9.6331 4.93115 9.63867 4.93486C9.86107 5.0831 10.0151 5.1786 10.2144 5.1786C10.4137 5.1786 10.5677 5.08311 10.79 4.93487C10.7956 4.93116 10.8012 4.92742 10.8068 4.92364C11.0111 4.78727 11.2809 4.60717 11.643 4.60717C11.9665 4.60717 12.281 4.68727 12.5077 4.76286C12.592 4.79094 12.666 4.81903 12.7261 4.84345C12.7595 4.80756 12.7986 4.76471 12.8418 4.71608C12.981 4.55956 13.1602 4.3457 13.3244 4.113C13.4905 3.87777 13.6323 3.63564 13.7068 3.42147C13.7843 3.19891 13.7688 3.068 13.7207 2.99584L13.3793 2.48376L13.9811 2.61272C14.6833 2.76319 15.6688 3.18394 16.3343 3.97478C17.0047 4.77153 17.3252 5.91582 16.7615 7.44381C16.999 8.40176 17.3177 9.83817 17.5255 11.1318C17.6321 11.7952 17.7106 12.4275 17.7329 12.9409C17.7441 13.1973 17.7415 13.4307 17.7197 13.6267C17.6987 13.8144 17.6568 14.0014 17.5653 14.1387C17.2653 14.5887 16.6793 15.2458 16.0697 15.8554C15.4601 16.465 14.803 17.0509 14.3531 17.3509C14.1767 17.4685 14.0026 17.6694 13.7907 17.9399C13.7515 17.9899 13.7113 18.042 13.6698 18.0956C13.4955 18.3212 13.2998 18.5745 13.0754 18.8139C12.5081 19.4189 11.7322 19.9643 10.5001 19.9643C9.27638 19.9643 8.36386 19.4264 7.66042 18.8341C7.33146 18.5571 7.04386 18.2644 6.79344 18.0095C6.77741 17.9932 6.76153 17.977 6.74581 17.961C6.47711 17.6878 6.26396 17.4765 6.07553 17.3509C5.62556 17.0509 4.96845 16.465 4.35886 15.8554C3.74926 15.2458 3.16332 14.5887 2.86333 14.1387C2.77181 14.0014 2.72991 13.8144 2.70894 13.6267C2.68705 13.4307 2.68454 13.1973 2.69569 12.9409C2.71803 12.4275 2.79651 11.7952 2.90308 11.1318C3.1109 9.83817 3.42961 8.40176 3.66707 7.44381C3.10338 5.91582 3.42393 4.77153 4.09434 3.97478C4.75977 3.18394 5.74531 2.76319 6.44754 2.61272L7.04932 2.48376ZM12.6738 5.36638L12.6704 5.36472L12.6544 5.35715C12.6399 5.35036 12.6177 5.34029 12.5891 5.32803C12.5318 5.30344 12.449 5.27033 12.3496 5.2372C12.1478 5.16993 11.8909 5.10717 11.643 5.10717C11.4437 5.10717 11.2897 5.20266 11.0674 5.3509C11.0618 5.3546 11.0562 5.35835 11.0505 5.36213C10.8463 5.4985 10.5765 5.6786 10.2144 5.6786C9.85233 5.6786 9.58251 5.49851 9.3782 5.36215C9.37254 5.35837 9.36692 5.35462 9.36136 5.35091C9.13895 5.20267 8.98495 5.10717 8.78563 5.10717C8.53773 5.10717 8.28078 5.16993 8.07898 5.2372C7.97957 5.27033 7.89684 5.30344 7.83947 5.32803C7.81085 5.34029 7.78871 5.35036 7.77417 5.35715L7.75822 5.36472L7.75481 5.36638L7.59341 5.44708L7.466 5.31966L7.64278 5.14289C7.466 5.31966 7.46604 5.31971 7.466 5.31966L7.46434 5.318L7.46041 5.31403L7.44605 5.29941C7.43371 5.28678 7.41597 5.26844 7.39371 5.24503C7.34923 5.19823 7.2866 5.13099 7.21307 5.04826C7.06648 4.88336 6.87428 4.65436 6.69568 4.40134C6.51886 4.15085 6.34644 3.86441 6.24951 3.58573C6.20813 3.46676 6.17643 3.33696 6.16929 3.20583C5.60005 3.39224 4.94053 3.74572 4.47692 4.2967C3.92009 4.95847 3.62103 5.93279 4.16183 7.33885L4.19019 7.41259L4.17103 7.48923C3.93404 8.43717 3.60718 9.90125 3.39675 11.2111C3.29142 11.8668 3.21633 12.4773 3.19522 12.9627C3.18465 13.2057 3.18793 13.4107 3.20585 13.5712C3.22469 13.7398 3.2566 13.8272 3.27936 13.8614C3.55081 14.2685 4.10772 14.8971 4.71241 15.5018C5.3171 16.1065 5.94571 16.6634 6.35288 16.9349C6.59302 17.095 6.84418 17.348 7.1023 17.6104C7.11713 17.6255 7.13202 17.6407 7.14698 17.6559C7.39983 17.9132 7.67222 18.1904 7.98247 18.4516C8.63627 19.0022 9.43812 19.4643 10.5001 19.4643C11.5538 19.4643 12.2064 19.0097 12.7106 18.4719C12.9171 18.2516 13.0946 18.022 13.268 17.7978C13.3112 17.742 13.354 17.6865 13.3971 17.6316C13.6048 17.3664 13.8236 17.103 14.0757 16.9349C14.4829 16.6634 15.1115 16.1065 15.7162 15.5018C16.3209 14.8971 16.8778 14.2685 17.1492 13.8614C17.172 13.8272 17.2039 13.7398 17.2227 13.5712C17.2407 13.4107 17.244 13.2057 17.2334 12.9627C17.2123 12.4773 17.1372 11.8668 17.0318 11.2111C16.8214 9.90125 16.4946 8.43717 16.2576 7.48923L16.2384 7.41259L16.2668 7.33885C16.8076 5.93279 16.5085 4.95847 15.9517 4.2967C15.4881 3.74572 14.8285 3.39224 14.2593 3.20583C14.2522 3.33696 14.2205 3.46676 14.1791 3.58573C14.0822 3.86441 13.9097 4.15085 13.7329 4.40134C13.5543 4.65436 13.3621 4.88336 13.2155 5.04826C13.142 5.13099 13.0794 5.19823 13.0349 5.24503C13.0126 5.26844 12.9949 5.28678 12.9825 5.29941L12.9682 5.31403L12.9643 5.318L12.9631 5.31912C12.9631 5.31916 12.9626 5.31966 12.7858 5.14289L12.9631 5.31912L12.8352 5.44708L12.6738 5.36638Z" fill="black"/>
<path d="M8.49997 11.3851C8.02377 10.6232 6.78568 9.49936 5.64282 11.0994C6.02377 11.6708 7.12854 12.5279 8.49997 11.3851Z" fill="black"/>
<path d="M11.9285 11.3851C12.4047 10.6232 13.6428 9.49936 14.7856 11.0994C14.4047 11.6708 13.2999 12.5279 11.9285 11.3851Z" fill="black"/>
<path d="M10.3876 14.7854C10.8803 14.4659 11.9286 13.1732 11.9286 12.8163C11.9286 12.4081 11.0371 12 10.2143 12C9.18571 12 8.5 12.4081 8.5 12.8163C8.5 13.1724 9.54355 14.4601 10.0376 14.7832C9.43203 15.4159 8.06114 16.0883 6.21436 14.8571C6.30959 15.4286 6.78578 16.6286 7.92864 16.8571C7.92864 17.619 8.38578 19.1428 10.2144 19.1428C12.0429 19.1428 12.5001 17.619 12.5001 16.8571C12.9763 16.6666 13.9858 16 14.2144 14.8571C13.4841 15.4961 11.7389 16.3276 10.3876 14.7854Z" fill="black"/>
<path d="M7.07136 11.4286C7.22915 11.4286 7.35707 11.3007 7.35707 11.1429C7.35707 10.9851 7.22915 10.8571 7.07136 10.8571C6.91356 10.8571 6.78564 10.9851 6.78564 11.1429C6.78564 11.3007 6.91356 11.4286 7.07136 11.4286Z" fill="white"/>
<path d="M13.3571 11.4286C13.1993 11.4286 13.0714 11.3007 13.0714 11.1429C13.0714 10.9851 13.1993 10.8571 13.3571 10.8571C13.5149 10.8571 13.6428 10.9851 13.6428 11.1429C13.6428 11.3007 13.5149 11.4286 13.3571 11.4286Z" fill="white"/>
<path d="M8.5 16.1905C8.5 16.0853 8.58528 16 8.69048 16H11.7381C11.8433 16 11.9286 16.0853 11.9286 16.1905V17.1429C11.9286 18.0896 11.1611 18.8571 10.2143 18.8571V18.8571C9.26751 18.8571 8.5 18.0896 8.5 17.1429V16.1905Z" fill="#DDBFAE"/>
<path d="M8.21439 9.61625C8.40487 9.52101 8.90005 9.1591 8.21432 8.47339C7.64288 7.90196 6.21436 7.90196 6.21436 8.18767C6.21436 8.34812 6.39455 8.41846 6.60316 8.4999C6.76603 8.56349 6.94623 8.63383 7.0715 8.7591C7.1193 8.8069 7.17646 8.89605 7.24346 9.00052C7.45965 9.33765 7.77819 9.83436 8.21439 9.61625Z" fill="#595D57"/>
<path d="M12.2802 9.61625C12.0897 9.52101 11.5945 9.1591 12.2802 8.47339C12.8517 7.90196 14.2802 7.90196 14.2802 8.18767C14.2802 8.34812 14.1 8.41846 13.8914 8.4999C13.7285 8.56349 13.5483 8.63383 13.4231 8.7591C13.3753 8.8069 13.3181 8.89605 13.2511 9.00052C13.0349 9.33765 12.7164 9.83436 12.2802 9.61625Z" fill="#595D57"/>
<defs>
<linearGradient id="paint0_linear" x1="10" y1="0" x2="10" y2="20" gradientUnits="userSpaceOnUse">
<stop stop-color="#84D1EE"/>
<stop offset="1" stop-color="#C282E1"/>
</linearGradient>
</defs>
</svg>
