<svg width="20" height="20" fill="none" xmlns="http://www.w3.org/2000/svg"><g clip-path="url(#clip0)"><path d="M10 20c5.523 0 10-4.477 10-10S15.523 0 10 0 0 4.477 0 10s4.477 10 10 10z" fill="#F0F0F0"/><path d="M10 0A10 10 0 00.992 5.652h18.016A10 10 0 0010 0z" fill="#000"/><path d="M10 20a10 10 0 01-9.008-5.652h18.016A10 10 0 0110 20z" fill="#496E2D"/><path d="M19.528 6.956H.472A9.992 9.992 0 000 10c0 1.061.166 2.084.472 3.043h19.056A9.99 9.99 0 0020 10a9.993 9.993 0 00-.472-3.044z" fill="#A2001D"/><path d="M13.114 4.621l-1.184-.546L10 8.444l-1.93-4.37-1.184.547L9.282 10l-2.396 5.379 1.184.546L10 11.556l1.93 4.37 1.184-.547L10.718 10l2.396-5.379z" fill="#F0F0F0"/><path d="M10.805 5.136c-.459-.5-.805-.788-.805-.788s-.346.288-.804.788v9.728c.458.5.804.788.804.788s.346-.288.805-.788V5.136z" fill="#F0F0F0"/><path d="M7.826 7.002v5.996a10.482 10.482 0 001.522 2.029V4.973a10.484 10.484 0 00-1.522 2.029zM12.174 7.002a10.485 10.485 0 00-1.522-2.029v10.054a10.483 10.483 0 001.522-2.029V7.002z" fill="#A2001D"/><path d="M12.174 7.002v5.996c.49-.869.87-1.896.87-2.998 0-1.101-.38-2.13-.87-2.998zM7.826 7.002v5.996c-.49-.869-.87-1.896-.87-2.998 0-1.101.38-2.13.87-2.998z" fill="#000"/></g><defs><clipPath id="clip0"><path fill="#fff" d="M0 0h20v20H0z"/></clipPath></defs></svg>