<svg width="20" height="20" viewBox="0 0 20 20" fill="none" xmlns="http://www.w3.org/2000/svg">
<path d="M10 20C15.5228 20 20 15.5228 20 10C20 4.47715 15.5228 0 10 0C4.47715 0 0 4.47715 0 10C0 15.5228 4.47715 20 10 20Z" fill="#E93117"/>
<path d="M10 18.6123C14.7565 18.6123 18.6123 14.7565 18.6123 10C18.6123 5.24356 14.7565 1.3877 10 1.3877C5.24356 1.3877 1.3877 5.24356 1.3877 10C1.3877 14.7565 5.24356 18.6123 10 18.6123Z" fill="url(#paint0_radial_2480_3570)"/>
<path d="M15.7744 11.3914C15.9694 11.4823 16.1698 11.5608 16.3747 11.6264C16.0922 10.9891 15.7245 10.3931 15.2818 9.85462L15.1637 9.48626C15.4419 9.64362 15.7333 9.7766 16.0345 9.88369C15.7655 9.5134 15.4893 9.1593 15.206 8.8214C15.9124 7.54452 16.2167 6.08407 16.079 4.63133C14.9644 4.87157 13.928 5.38781 13.0649 6.1327L14.3501 4.58583C13.3682 4.79194 12.4055 5.08112 11.4725 5.45026L11.9275 4.06262C10.869 4.40641 9.89037 4.95954 9.0499 5.68912L9.19761 4.3596L8.03449 6.08252C7.35831 5.31371 6.41718 4.82802 5.39879 4.72232C5.04902 6.15551 5.26422 7.66834 5.99979 8.94713C5.68772 9.3331 5.39964 9.73786 5.13718 10.1591C5.37603 10.1136 7.34374 9.0786 7.34374 9.0786C6.16948 9.91478 5.34366 11.1535 5.02344 12.5591L5.71316 12.1723C5.71531 12.1836 5.71482 12.1952 5.71726 12.2065C5.75585 12.3814 5.82255 12.549 5.91477 12.7026C5.73011 12.8254 5.51504 12.9961 5.58645 13.0879C5.70589 13.2415 9.42519 17.7456 9.45931 18.1039C10.4147 17.7285 11.6943 15.8859 12.0867 15.8348C12.5772 15.8061 13.0577 15.6844 13.5028 15.4762C13.6222 15.3059 14.9732 13.3123 14.8351 12.9357L14.835 12.9355C15.2065 12.4876 15.5318 12.0032 15.806 11.4899L15.7744 11.3914Z" fill="#E93117"/>
<path d="M15.2256 10.7317C15.4205 10.8226 15.621 10.9011 15.8259 10.9667C15.5433 10.3294 15.1757 9.73337 14.733 9.19488L14.6149 8.82652C14.8931 8.98388 15.1844 9.11686 15.4856 9.22395C15.2166 8.85367 14.9405 8.49958 14.6572 8.16168C15.3635 6.8848 15.6678 5.42435 15.5302 3.97161C14.4156 4.21187 13.3792 4.72812 12.516 5.47303L13.8013 3.92616C12.8194 4.13227 11.8567 4.42145 10.9237 4.79059L11.3787 3.40295C10.3201 3.74674 9.34155 4.29987 8.50107 5.02945L8.64878 3.69993L7.48566 5.42281C6.80949 4.65399 5.86835 4.1683 4.84996 4.0626C4.50019 5.49579 4.71539 7.00862 5.45096 8.28741C5.13889 8.67338 4.85081 9.07814 4.58835 9.49941C4.8272 9.45391 6.79491 8.41888 6.79491 8.41888C5.62065 9.25506 4.79483 10.4938 4.47461 11.8993L5.16433 11.5126C5.16648 11.5239 5.166 11.5355 5.16843 11.5467C5.20702 11.7217 5.27373 11.8893 5.36595 12.0429C5.18128 12.1657 4.96621 12.3364 5.03762 12.4282C5.15706 12.5818 8.87636 17.0859 8.91048 17.4442C9.8659 17.0688 11.1455 15.2262 11.5379 15.1751C12.0284 15.1463 12.5089 15.0246 12.9539 14.8164C13.0734 14.6462 14.4243 12.6526 14.2863 12.276L14.2862 12.2758C14.6577 11.8278 14.983 11.3435 15.2572 10.8302L15.2256 10.7317Z" fill="black" stroke="white" stroke-width="0.2417" stroke-linecap="round" stroke-linejoin="round"/>
<path d="M5.60047 11.8993C5.60047 11.8993 4.91803 12.2746 5.03747 12.4282C5.15691 12.5817 8.87621 17.0858 8.91033 17.4442C9.86575 17.0688 11.1453 15.2262 11.5377 15.1751C12.0282 15.1464 12.5088 15.0247 12.9538 14.8164C13.0732 14.6462 14.4242 12.6526 14.2861 12.276C14.1481 11.8993 12.9709 11.7117 12.9709 11.7117L5.60047 11.8993Z" fill="#E7301B" stroke="black" stroke-width="0.12085" stroke-linecap="round" stroke-linejoin="round"/>
<path d="M9.37101 15.6185L7.78311 15.0043L8.92801 16.6593L8.12753 16.2925C8.4302 16.6463 8.69272 17.0325 8.91029 17.4441C9.86571 17.0687 11.1453 15.2261 11.5377 15.1749C12.0282 15.1462 12.5087 15.0245 12.9538 14.8163C13.0732 14.6461 14.4241 12.6525 14.2861 12.2758C14.148 11.8992 12.9708 11.7115 12.9708 11.7115L10.7533 11.768L6.09668 12.8035L9.37101 15.6185Z" fill="#A11703"/>
<path d="M5.60047 11.8993C5.60047 11.8993 4.91803 12.2746 5.03747 12.4282C5.15691 12.5817 8.87621 17.0858 8.91033 17.4442C9.86575 17.0688 11.1453 15.2262 11.5377 15.1751C12.0282 15.1464 12.5088 15.0247 12.9538 14.8164C13.0732 14.6462 14.4242 12.6526 14.2861 12.276C14.1481 11.8993 12.9709 11.7117 12.9709 11.7117L5.60047 11.8993Z" stroke="black" stroke-width="0.12085" stroke-linecap="round" stroke-linejoin="round"/>
<path d="M7.90945 5.93934C7.56928 5.42039 7.1186 4.98304 6.58966 4.6586C6.06072 4.33415 5.46661 4.13064 4.84983 4.06262C4.66586 4.81723 4.63651 5.60128 4.76357 6.36753C4.89062 7.13379 5.17145 7.8664 5.58914 8.52124L7.90945 5.93934Z" fill="#E7E7E7" stroke="black" stroke-width="0.12085" stroke-linecap="round" stroke-linejoin="round"/>
<path d="M6.90119 6.38476C6.81835 6.04757 6.66053 5.73339 6.43947 5.46563C6.21842 5.19786 5.93983 4.98339 5.62442 4.83817C5.43471 4.51158 5.1071 7.71817 6.30002 7.73017C7.06165 7.73784 7.06786 6.63155 7.06786 6.63155L6.90119 6.38476Z" fill="#F2A4A2"/>
<path d="M5.11426 5.01512L5.1536 4.6283C5.71993 4.67674 6.53769 5.51945 7.05637 6.29185" stroke="black" stroke-width="0.12085" stroke-linecap="round" stroke-linejoin="round"/>
<path d="M6.79494 8.41878C6.79494 8.41878 4.82724 9.45378 4.58838 9.49931C5.05139 8.63971 5.69095 7.88773 6.4651 7.29275C5.60067 6.53069 5.6746 6.06435 5.6746 6.06435C5.96976 6.21835 6.28052 6.34037 6.6016 6.42835L6.01013 5.06344L7.06792 6.0416L8.64877 3.6998L8.50105 5.02931C9.34154 4.29974 10.3201 3.74662 11.3787 3.40283L10.9237 4.79046C11.8567 4.42133 12.8193 4.13215 13.8013 3.92603L12.5161 5.47295C13.3792 4.72805 14.4156 4.21179 15.5302 3.97153C15.6805 5.53806 15.3172 7.11099 14.4952 8.45295L15.2572 10.8301C15.2572 10.8301 13.5064 14.349 10.1966 14.7926C9.70222 14.8487 9.20218 14.7612 8.75626 14.5406C8.31035 14.32 7.93744 13.9755 7.68215 13.5485C7.68215 13.5485 5.47558 12.9684 5.16849 11.5467C4.8614 10.1249 6.79494 8.41878 6.79494 8.41878Z" fill="#E7E7E7" stroke="black" stroke-width="0.12085" stroke-linecap="round" stroke-linejoin="round"/>
<path d="M7.42143 13.4019C7.40391 13.4193 7.384 13.4342 7.3623 13.4461C7.55544 13.5147 7.68182 13.5485 7.68182 13.5485C7.93711 13.9755 8.31002 14.32 8.75594 14.5406C9.20185 14.7612 9.70189 14.8487 10.1962 14.7926C11.2793 14.6292 12.2943 14.1638 13.1249 13.4497C12.2212 13.8309 11.249 14.0233 10.2682 14.0151C9.28741 14.0068 8.31865 13.7982 7.42143 13.4019Z" fill="#A4A8A5"/>
<path d="M6.79494 8.41878C6.79494 8.41878 4.82724 9.45378 4.58838 9.49931C5.05139 8.63971 5.69095 7.88773 6.4651 7.29275C5.60067 6.53069 5.6746 6.06435 5.6746 6.06435C5.96976 6.21835 6.28052 6.34037 6.6016 6.42835L6.01013 5.06344L7.06792 6.0416L8.64877 3.6998L8.50105 5.02931C9.34154 4.29974 10.3201 3.74662 11.3787 3.40283L10.9237 4.79046C11.8567 4.42133 12.8193 4.13215 13.8013 3.92603L12.5161 5.47295C13.3792 4.72805 14.4156 4.21179 15.5302 3.97153C15.6805 5.53806 15.3172 7.11099 14.4952 8.45295L15.2572 10.8301C15.2572 10.8301 13.5064 14.349 10.1966 14.7926C9.70222 14.8487 9.20218 14.7612 8.75626 14.5406C8.31035 14.32 7.93744 13.9755 7.68215 13.5485C7.68215 13.5485 5.47558 12.9684 5.16849 11.5467C4.8614 10.1249 6.79494 8.41878 6.79494 8.41878Z" stroke="black" stroke-width="0.12085" stroke-linecap="round" stroke-linejoin="round"/>
<path d="M13.5624 5.82554C13.7105 5.51148 13.9275 5.23486 14.1973 5.01627C14.4671 4.79768 14.7827 4.64274 15.1206 4.56299C15.1206 4.56299 14.8493 8.09425 13.9093 7.60839C13.2327 7.25863 13.3501 6.03439 13.3501 6.03439L13.5624 5.82554Z" fill="#F2A4A2"/>
<path d="M13.5625 5.82554C13.7106 5.51148 13.9276 5.23486 14.1974 5.01627C14.4672 4.79768 14.7828 4.64274 15.1207 4.56299" stroke="black" stroke-width="0.12085" stroke-linecap="round" stroke-linejoin="round"/>
<path d="M13.0962 6.05301L14.0402 5.05212L13.6762 6.16678H14.5862L13.6763 7.11078C14.3425 7.75856 14.9482 8.46587 15.4857 9.22389C14.8478 9.00731 14.2624 8.65945 13.7672 8.20273C14.6506 8.95935 15.3539 9.9036 15.8259 10.9666C15.2108 10.7929 14.6506 10.4638 14.1994 10.011" fill="#E7E7E7"/>
<path d="M13.0962 6.05301L14.0402 5.05212L13.6762 6.16678H14.5862L13.6763 7.11078C14.3425 7.75856 14.9482 8.46587 15.4857 9.22389C14.8478 9.00731 14.2624 8.65945 13.7672 8.20273C14.6506 8.95935 15.3539 9.9036 15.8259 10.9666C15.2108 10.7929 14.6506 10.4638 14.1994 10.011" stroke="black" stroke-width="0.12085" stroke-linecap="round" stroke-linejoin="round"/>
<path d="M6.90861 10.5344L4.47461 11.8993C4.79483 10.4937 5.62066 9.255 6.79491 8.41882" fill="#E7E7E7"/>
<path d="M6.90861 10.5344L4.47461 11.8993C4.79483 10.4937 5.62066 9.255 6.79491 8.41882" stroke="black" stroke-width="0.12085" stroke-linecap="round" stroke-linejoin="round"/>
<path d="M11.4249 8.03757C11.6284 8.21087 11.8134 8.24757 12.2543 7.51265C12.6953 6.77773 11.1415 7.79611 11.4249 8.03757Z" fill="black" stroke="black" stroke-width="0.12085" stroke-linecap="round" stroke-linejoin="round"/>
<path d="M10.0186 8.14841C9.81514 8.32171 9.63014 8.35841 9.1892 7.62349C8.74826 6.88857 10.302 7.90697 10.0186 8.14841Z" fill="black" stroke="black" stroke-width="0.12085" stroke-linecap="round" stroke-linejoin="round"/>
<path d="M8.47797 8.0094L10.1304 9.28024C10.1304 9.28024 9.07149 9.87404 8.87606 9.92877C8.72306 9.97163 9.27348 9.38405 9.06373 9.3359C9.00145 9.33107 8.94086 9.31337 8.88578 9.28392C8.8307 9.25447 8.78233 9.21391 8.74373 9.16481C8.35139 8.80804 8.47797 8.0094 8.47797 8.0094Z" fill="#A4A8A5"/>
<path d="M8.15979 7.69629L9.71234 8.95629C9.50993 9.06651 9.28012 9.11627 9.05025 9.09963C8.82038 9.08299 8.60013 9.00067 8.4157 8.86245C8.04889 8.57239 8.15979 7.69629 8.15979 7.69629Z" fill="#E7E7E7" stroke="black" stroke-width="0.12085" stroke-linecap="round" stroke-linejoin="round"/>
<path d="M9.25001 8.62925C9.25001 8.76587 9.18714 8.87663 9.1096 8.87663C9.03206 8.87663 8.96919 8.76587 8.96919 8.62925C8.96498 8.55032 8.99102 8.47274 9.04202 8.41234C9.06202 8.39291 9.22959 8.53407 9.24853 8.59325C9.25084 8.60511 9.25133 8.61725 9.25001 8.62925Z" fill="#0E0E0E"/>
<path d="M12.9027 7.54785L11.3501 8.80785C11.5525 8.91808 11.7823 8.96783 12.0122 8.95119C12.2421 8.93456 12.4623 8.85223 12.6467 8.71401C13.0135 8.42395 12.9027 7.54785 12.9027 7.54785Z" fill="#E7E7E7" stroke="black" stroke-width="0.12085" stroke-linecap="round" stroke-linejoin="round"/>
<path d="M11.8122 8.48081C11.8122 8.61743 11.8751 8.72819 11.9526 8.72819C12.0302 8.72819 12.0931 8.61743 12.0931 8.48081C12.0973 8.40187 12.0712 8.3243 12.0202 8.26391C12.0002 8.24448 11.8327 8.38563 11.8137 8.44481C11.8114 8.45666 11.8109 8.4688 11.8122 8.48081Z" fill="#0E0E0E"/>
<path d="M8.87598 9.92871C8.87598 9.92871 10.4797 8.49512 10.9745 8.49512C11.4693 8.49512 12.8768 9.77512 12.8768 9.77512" fill="#E7E7E7"/>
<path d="M8.87598 9.92871C8.87598 9.92871 10.4797 8.49512 10.9745 8.49512C11.4693 8.49512 12.8768 9.77512 12.8768 9.77512" stroke="black" stroke-width="0.12085" stroke-linecap="round" stroke-linejoin="round"/>
<path d="M11.7735 9.12278C11.7849 9.27547 11.518 10.1505 11.036 10.1832C10.554 10.2159 10.1602 9.3972 10.1487 9.24455C10.1373 9.0919 10.4917 8.94083 10.9404 8.9072C11.389 8.87357 11.762 8.97009 11.7735 9.12278Z" fill="black"/>
<path d="M9.02385 10.9461C9.02385 10.9461 8.92515 11.4855 9.02385 11.5705C9.12255 11.6555 9.52143 10.9166 9.52143 10.9166" fill="#E7E7E7"/>
<path d="M9.02385 10.9461C9.02385 10.9461 8.92515 11.4855 9.02385 11.5705C9.12255 11.6555 9.52143 10.9166 9.52143 10.9166" stroke="black" stroke-width="0.09263" stroke-linecap="round" stroke-linejoin="round"/>
<path d="M12.5794 10.5813L12.2589 10.5657L11.1445 11.768C12.6373 11.6795 12.5777 10.7476 12.5793 10.5999" fill="#A4A8A5"/>
<path d="M8.87604 10.3667C8.7822 10.4435 8.25331 10.7193 8.53482 10.8586C8.81633 10.9979 10.531 11.16 11.0343 10.2387C11.3602 10.4276 11.7213 10.5477 12.0954 10.5917C12.4695 10.6357 12.8487 10.6027 13.2095 10.4946C13.2693 10.3582 13.0475 9.99988 13.0475 9.99988" fill="#E7E7E7"/>
<path d="M8.87604 10.3667C8.7822 10.4435 8.25331 10.7193 8.53482 10.8586C8.81633 10.9979 10.531 11.16 11.0343 10.2387C11.3602 10.4276 11.7213 10.5477 12.0954 10.5917C12.4695 10.6357 12.8487 10.6027 13.2095 10.4946C13.2693 10.3582 13.0475 9.99988 13.0475 9.99988" stroke="black" stroke-width="0.12085" stroke-linecap="round" stroke-linejoin="round"/>
<path d="M12.1877 10.6C12.1861 10.7477 12.2457 11.6796 10.7529 11.7681L12.1877 10.6Z" fill="#E7E7E7"/>
<path d="M12.1877 10.6C12.1861 10.7477 12.2457 11.6796 10.7529 11.7681" stroke="black" stroke-width="0.12085" stroke-linecap="round" stroke-linejoin="round"/>
<path d="M12.9624 11.1486C13.4454 11.0158 13.8749 10.7354 14.1908 10.3467C14.3484 10.6412 14.4387 10.967 14.4552 11.3005C14.4717 11.6341 14.414 11.9672 14.2862 12.2759C13.9676 11.7761 13.5065 11.3834 12.9624 11.1486Z" fill="#F03015"/>
<path d="M8.63498 11.3703C8.06414 11.2777 7.53193 11.0231 7.10162 10.6367C6.84639 11.5107 6.88536 12.4443 7.21252 13.294C7.54619 12.7815 8.08596 11.6092 8.63498 11.3703Z" fill="#F03015"/>
<defs>
<radialGradient id="paint0_radial_2480_3570" cx="0" cy="0" r="1" gradientUnits="userSpaceOnUse" gradientTransform="translate(22.7317 10.3428) scale(16.1325)">
<stop stop-color="#EC3118"/>
<stop offset="0.13967" stop-color="#B82613"/>
<stop offset="0.30626" stop-color="#801B0D"/>
<stop offset="0.46869" stop-color="#521108"/>
<stop offset="0.62295" stop-color="#2F0A05"/>
<stop offset="0.76691" stop-color="#150402"/>
<stop offset="0.89668" stop-color="#050101"/>
<stop offset="1"/>
</radialGradient>
</defs>
</svg>
