<svg width="20" height="20" viewBox="0 0 20 20" fill="none" xmlns="http://www.w3.org/2000/svg">
<g clip-path="url(#clip0_1558_40)">
<path d="M18.8571 0.421457C18.0078 -0.140484 15.064 1.18136 13.8891 2.13921C10.3386 0.727971 7.36287 1.76245 6.46249 2.19668C3.36543 0.779057 1.08573 -0.0383126 0.491863 1.64113C-0.102007 3.32056 0.740905 7.10728 1.39225 8.48021C-0.00622177 13.6398 0.542948 16.3027 2.20323 17.8033C3.86351 19.3103 6.6349 19.3295 8.83158 19.4061L12.414 19.3678C17.0883 19.3934 19.3361 17.3372 19.6362 15.2427C19.9363 13.1418 19.3488 9.8212 18.5059 7.48404C20.0193 4.13155 19.7064 0.989784 18.8571 0.421457Z" fill="#F7EBD1"/>
<path d="M1.05983 15.1916L0.785246 15.2937C0.377595 13.6336 1.20526 9.35524 1.32632 8.72946C1.33603 8.6793 1.34081 8.65261 1.34081 8.65261L1.69202 8.45466C1.80057 8.03959 2.11347 7.26054 2.11347 7.26054L2.35613 6.10473L4.18244 3.63985C4.18244 3.63985 4.38678 3.64623 4.75076 3.52491C4.92789 3.38897 5.13425 3.27961 5.33898 3.17111C5.45162 3.11141 5.56378 3.05197 5.6703 2.98851C4.71884 2.36271 2.96277 1.57088 1.89636 1.44956C0.854029 1.33167 0.727976 2.34105 0.592804 3.42344L0.580904 3.51852C0.376562 1.28353 0.86826 1.10473 1.82611 0.817372C2.78397 0.530015 4.87209 1.4751 6.46213 2.20307C9.15051 0.996171 12.503 1.6986 13.8887 2.22861C16.2322 0.363987 18.1863 0.249045 18.761 0.491701C19.3357 0.734357 19.4443 2.25415 19.2782 2.65645C19.0739 1.4304 18.8759 0.8493 17.8989 1.02171C16.9219 1.19413 15.3382 2.26054 14.6039 2.85441C14.6039 2.85441 14.8593 3.01405 15.0509 3.14177C16.0407 3.69094 17.6052 5.79821 17.6052 5.79821C17.6052 5.79821 17.7137 6.20051 17.752 6.46871C17.9883 6.95403 18.1927 7.47127 18.1927 7.47127L18.7865 8.67178C19.2527 10.166 19.655 13.6654 19.4187 14.3806C19.1186 9.98723 17.2284 5.8493 15.2616 4.01661C14.4927 3.30257 13.6056 2.88722 12.7588 2.64921C12.5884 2.99699 11.5809 3.27704 10.3576 3.28864C9.02133 3.30136 7.92603 2.99706 7.91828 2.60319C7.07345 2.80725 6.06598 3.20417 5.01896 4.00383C3.04578 5.51086 2.34336 7.61175 1.68563 9.69349C1.0279 11.7752 0.964046 14.6807 1.05983 15.1916Z" fill="white"/>
<path d="M7.99194 11.3236C7.94372 11.3345 7.91823 11.341 7.91823 11.341C7.91823 11.341 7.32437 11.2069 6.54531 11.871C5.76626 12.5351 6.14301 14.5083 6.56447 15.3065C6.98592 16.1047 8.21198 18.1992 9.99359 18.2184C11.7752 18.2439 13.0843 17.2669 13.9591 15.4853C14.8276 13.7037 14.3742 11.6731 12.2158 11.2324C12.1996 11.2292 12.1835 11.226 12.1673 11.2228C11.7071 10.8188 11.1106 10.4457 10.3321 10.4342C9.30109 10.4191 8.59807 10.8759 7.99194 11.3236Z" fill="white"/>
<path d="M17.3306 1.74968C16.5132 2.17752 15.4021 3.12899 15.4021 3.12899C16.1045 3.64623 17.2603 4.92337 17.7712 5.99617C18.1032 5.44061 18.5694 4.48276 18.6396 2.75862C18.7095 1.0441 18.1605 1.32501 17.3443 1.74264L17.3306 1.74968Z" fill="#FF6C6C"/>
<path d="M2.65006 2.36909C1.34126 1.66163 1.32787 2.15161 1.3084 2.86417C1.30678 2.92342 1.30512 2.98421 1.30267 3.04597C1.27074 3.85696 1.6475 5.82375 2.08811 6.70498C2.51596 5.57471 3.56321 4.1507 4.41889 3.49936C4.41889 3.49936 4.06768 3.13537 2.65006 2.36909Z" fill="#FF6C6C"/>
<path d="M9.00388 15.5045C9.33593 15.0447 9.91065 15.2043 10.1278 15.4598C10.3576 15.166 10.7983 15.198 11.0473 15.447C11.29 15.696 11.2836 16.3282 11.1878 16.6986C11.092 17.069 10.9324 17.484 10.0703 17.5096C8.77399 17.5479 8.67182 15.9642 9.00388 15.5045Z" fill="#FF6C6C"/>
<path fill-rule="evenodd" clip-rule="evenodd" d="M18.4991 1.28991C18.1578 1.07501 17.7351 1.29178 17.2435 1.54392L17.2283 1.55172C16.3982 1.97956 15.2999 2.91826 15.2552 2.95658L15.0444 3.13538L15.2679 3.3014C15.9001 3.76756 17.0495 5 17.5732 6.08557L17.752 6.46232L17.9627 6.10472C18.3139 5.51085 18.7928 4.52107 18.8631 2.765C18.9014 1.92209 18.7928 1.48148 18.4991 1.28991ZM18.4225 2.75223C18.365 4.09962 18.0649 4.96168 17.7775 5.53001C17.2667 4.65517 16.4174 3.67816 15.7532 3.1226C16.1108 2.82886 16.8516 2.24776 17.4327 1.94764C17.7584 1.77522 18.1351 1.58365 18.2564 1.66667C18.3203 1.70498 18.4608 1.89016 18.4225 2.75223Z" fill="#3D006F"/>
<path fill-rule="evenodd" clip-rule="evenodd" d="M1.40466 1.87101C1.67286 1.71775 2.07516 1.80715 2.75205 2.17113C4.06699 2.88413 4.48872 3.26016 4.56547 3.32859C4.57258 3.33493 4.57673 3.33863 4.57835 3.33972L4.75077 3.51852L4.55281 3.67177C3.7099 4.31673 2.70096 5.70881 2.29228 6.78161L2.11348 7.25415L1.88359 6.80076C1.43659 5.90038 1.04068 3.8825 1.07261 3.0332C1.07261 3.00447 1.0742 2.97414 1.0758 2.9438C1.0774 2.91347 1.07899 2.88314 1.07899 2.8544C1.09177 2.43933 1.10454 2.04342 1.40466 1.87101ZM1.52599 3.05875C1.50045 3.71647 1.76226 5.19157 2.09432 6.13665C2.56048 5.1788 3.33953 4.13154 4.07388 3.49936C3.844 3.33333 3.39062 3.02043 2.5477 2.56705C1.99853 2.27331 1.76865 2.23499 1.67925 2.24776C1.66009 2.24776 1.64093 2.25415 1.63455 2.26053C1.54674 2.31071 1.53902 2.61343 1.53272 2.86017L1.53238 2.87356C1.53238 2.90153 1.53086 2.93102 1.52931 2.96128C1.52767 2.99319 1.52599 3.02598 1.52599 3.05875Z" fill="#3D006F"/>
<path d="M4.80178 8.85696H4.78262C3.91417 8.96552 3.24367 9.75096 2.99463 10.4406C2.99463 10.4406 3.73537 9.61047 4.85287 9.42529H4.86564C5.45312 9.36143 6.07892 9.78288 6.67918 10.6577C6.67918 10.6577 6.52592 9.32311 5.58084 8.95274C5.29348 8.8378 5.02528 8.83142 4.80178 8.85696Z" fill="#3D006F"/>
<path d="M14.1696 9.13793C14.4442 8.99745 14.7507 8.91443 15.0445 8.89527C15.5872 8.85696 16.577 9.02937 17.107 10.5492C17.107 10.5492 16.3854 9.36143 15.0828 9.4636C14.3165 9.52746 13.5949 10.1533 13.48 10.6769C13.48 10.6769 13.116 9.68071 14.1696 9.13793Z" fill="#3D006F"/>
<path fill-rule="evenodd" clip-rule="evenodd" d="M12.3628 12.7203C12.4586 12.9438 12.4266 13.212 12.2798 13.4036C12.1137 13.6143 11.8392 13.7037 11.5071 13.6526C10.9018 13.5541 10.5654 13.39 10.4271 13.3074L10.4394 12.6114C10.7947 12.5454 11.2993 12.2257 11.4751 11.9859C11.6859 11.6858 11.4879 10.9834 10.396 10.9898C9.29763 10.9898 8.82508 11.3729 9.15714 11.9157C9.42348 12.3511 9.7761 12.5071 10.0568 12.5781L10.0444 13.2747C9.86343 13.3506 9.45348 13.4986 9.04942 13.4967C8.89491 13.496 8.74127 13.4733 8.60161 13.4163C8.31426 13.3014 8.12907 13.129 8.05883 12.9183C8.00136 12.7458 8.02052 12.5607 8.1163 12.3946C8.1163 12.3946 7.52882 12.567 7.69484 13.046C7.74422 13.19 7.84134 13.3685 8.03573 13.5302C8.42568 13.9698 8.70065 14.9254 8.79679 15.4762C8.60728 15.8328 8.58104 16.495 8.8569 17.0115C9.09955 17.4713 9.53378 17.7203 10.0766 17.7011C10.1532 17.7011 10.2234 17.6948 10.2873 17.6884C11.0408 17.6054 11.2515 17.1903 11.3729 16.7561C11.4548 16.4524 11.4822 15.9705 11.3561 15.6151C11.3937 15.2038 11.8593 14.3075 12.2321 13.9298C12.3683 13.862 12.4853 13.7653 12.5735 13.6398C12.8736 13.2375 12.3628 12.7203 12.3628 12.7203ZM9.54016 15.4023L9.55581 15.402C9.66955 15.4026 9.77941 15.4384 9.86298 15.4882C9.86349 15.4893 9.86446 15.4905 9.86593 15.4917C9.98087 15.5875 10.0703 16.3985 10.0703 16.3985C10.0703 16.3985 10.2235 15.6194 10.3512 15.5109L10.3478 15.5101C10.4168 15.4584 10.4918 15.4406 10.5491 15.4406C10.5552 15.4403 10.5613 15.4401 10.5674 15.4401C10.6875 15.441 10.8107 15.4915 10.9003 15.5811C10.9323 15.613 10.9578 15.6577 10.9833 15.7216L11.0123 15.8001C11.075 16.0423 11.0669 16.3962 11.0025 16.6539L11.0006 16.6609C10.9181 16.9593 10.8242 17.299 10.0638 17.318C9.66149 17.3308 9.36775 17.1647 9.18895 16.8327C8.95268 16.3857 9.01015 15.8174 9.15702 15.613C9.25281 15.4789 9.38691 15.4023 9.54016 15.4023Z" fill="#3D006F"/>
<path d="M7.52222 11.673C7.52222 11.673 8.76743 10.1916 10.3319 10.249C12.2859 10.3129 12.9117 11.9732 12.9117 11.9796C12.3051 11.3601 11.4622 10.645 10.3255 10.6322C9.11226 10.6194 8.27573 11.1367 7.52222 11.673Z" fill="#3D006F"/>
<path fill-rule="evenodd" clip-rule="evenodd" d="M17.8467 0.0336903C18.2715 -0.0277822 18.709 -0.0211193 19.0157 0.181806L19.0169 0.182632C19.3141 0.381483 19.5179 0.764867 19.6491 1.21247C19.7839 1.67241 19.8574 2.25197 19.8549 2.90976C19.85 4.19935 19.5534 5.82128 18.8153 7.49595C19.6457 9.84993 20.2253 13.151 19.9207 15.2833C19.5914 17.5812 17.1584 19.6804 12.4148 19.6552L8.82156 19.6936L8.73603 19.6906C8.65883 19.6879 8.5808 19.6851 8.50202 19.6825C7.48839 19.6489 6.3508 19.6112 5.2674 19.4243C4.06806 19.2173 2.8982 18.8222 2.0101 18.0161C0.232391 16.4089 -0.282019 13.6202 1.08775 8.50581C0.758338 7.76845 0.4022 6.50616 0.191538 5.22213C0.0809241 4.54791 0.00893303 3.85903 0.00307351 3.22784C-0.00274587 2.60098 0.0562999 2.01094 0.220949 1.54532C0.39411 1.05563 0.703098 0.724178 1.13364 0.553029C1.54896 0.387934 2.04653 0.384328 2.58565 0.474043C3.63265 0.648273 4.9673 1.19929 6.46148 1.8803C7.51333 1.40823 10.4046 0.506695 13.8404 1.81201C14.4697 1.33412 15.4527 0.803101 16.3922 0.442165C16.8978 0.247915 17.404 0.0977298 17.8467 0.0336903ZM16.5983 0.978648C15.6289 1.35107 14.6282 1.90742 14.0706 2.36193L13.9398 2.46859L13.7829 2.40624C10.3319 1.03454 7.44331 2.04268 6.58732 2.45551L6.46568 2.51417L6.34289 2.45796C4.7888 1.7466 3.4788 1.20529 2.49131 1.04096C1.99915 0.959059 1.62188 0.977404 1.34594 1.08709C1.08523 1.19073 0.886558 1.38689 0.762783 1.73692C0.630498 2.11102 0.572206 2.62411 0.577761 3.22251C0.583276 3.81658 0.651371 4.47508 0.758669 5.12908C0.974224 6.44294 1.34203 7.70395 1.65187 8.35703L1.69737 8.45293L1.6696 8.55538C0.276384 13.6956 0.865069 16.2065 2.39592 17.5901C3.1681 18.291 4.21453 18.6594 5.36512 18.858C6.40698 19.0377 7.50432 19.0743 8.52366 19.1082C8.62833 19.1117 8.73218 19.1151 8.83505 19.1187L12.4155 19.0804C17.019 19.1056 19.0808 17.0926 19.3517 15.2019C19.6426 13.1656 19.0702 9.89564 18.2356 7.58152L18.1961 7.47196L18.244 7.3658C18.9845 5.72554 19.2755 4.14183 19.2802 2.9076C19.2825 2.28985 19.213 1.76788 19.0976 1.37413C18.9788 0.968691 18.8253 0.746291 18.6979 0.660679C18.5797 0.582916 18.3309 0.544326 17.9289 0.60248C17.544 0.658173 17.0816 0.792949 16.5983 0.978648Z" fill="#3D006F"/>
<path opacity="0.6" d="M10.3638 11.3027C9.7444 11.3155 9.45704 11.3921 9.61668 11.4879C9.77632 11.5837 10.0318 11.5964 10.1978 11.6028C10.383 11.6092 10.7853 11.5262 10.9257 11.4687C11.0598 11.4176 10.9832 11.2899 10.3638 11.3027Z" fill="white"/>
</g>
<defs>
<clipPath id="clip0_1558_40">
<rect width="20" height="20" fill="white"/>
</clipPath>
</defs>
</svg>
