<svg width="20" height="20" viewBox="0 0 20 20" fill="none" xmlns="http://www.w3.org/2000/svg">
<path d="M9.99317 19.9741C7.90033 19.9836 5.83737 19.4774 3.98659 18.5003C3.18349 18.1114 2.46859 17.562 1.88604 16.8861C1.30348 16.2102 0.865626 15.4221 0.599485 14.5704C0.333345 13.7187 0.244569 12.8215 0.338636 11.9341C0.432703 11.0468 0.707618 10.1881 1.14641 9.41113C1.29445 9.10743 1.37764 8.77623 1.39067 8.43862C1.38169 6.54737 1.67234 4.66663 2.25183 2.86631C2.51751 2.11498 2.89906 1.40983 3.38265 0.776414C3.52767 0.552169 3.72516 0.36665 3.95802 0.235919C4.19088 0.105188 4.4521 0.033185 4.71905 0.0261449C4.98601 0.0191048 5.25066 0.0772395 5.49008 0.195516C5.72951 0.313792 5.9365 0.488644 6.09313 0.704934C6.56289 1.2526 6.95442 1.86277 7.25652 2.51801C7.45603 2.92587 7.61762 2.96057 8.01761 2.83883C9.37381 2.41025 10.8321 2.43069 12.1757 2.89712C12.4925 3.00612 12.6035 2.95612 12.766 2.64853C13.0855 1.98102 13.4836 1.35406 13.9519 0.781014C14.1171 0.553405 14.336 0.37007 14.589 0.247258C14.842 0.124445 15.1215 0.065947 15.4025 0.0769476C15.6836 0.0879483 15.9576 0.168108 16.2002 0.310323C16.4429 0.452537 16.6467 0.652416 16.7937 0.892244C17.5872 1.92758 18.0817 3.16066 18.2234 4.45741C18.4308 5.8292 18.4994 7.22171 18.6441 8.60355C18.6637 8.88428 18.732 9.15946 18.846 9.41677C19.2922 10.2008 19.5713 11.0688 19.6655 11.9661C19.7597 12.8633 19.6671 13.7703 19.3935 14.63C19.1199 15.4897 18.6711 16.2834 18.0756 16.9611C17.4801 17.6388 16.7507 18.1858 15.9333 18.5676C14.0956 19.5084 12.0576 19.9909 9.99317 19.9741V19.9741ZM1.07864 13.5626C1.08311 13.8048 1.10856 14.0462 1.1547 14.284C1.37134 15.0687 1.75369 15.7979 2.27598 16.4224C2.79827 17.0468 3.44837 17.5521 4.18244 17.9041C5.99667 18.897 8.03426 19.4104 10.1024 19.3959C12.1705 19.3813 14.2006 18.8392 16.0007 17.8209C16.6912 17.4678 17.3004 16.9746 17.7895 16.3728C18.2785 15.7709 18.6367 15.0737 18.8411 14.3256C18.8897 14.0706 18.9148 13.8116 18.9162 13.552L18.906 13.1162C18.9742 12.9505 19.0207 12.7768 19.0443 12.5992C19.0254 11.5881 18.7673 10.5958 18.2911 9.70364C18.1414 9.36075 18.0526 8.9944 18.0286 8.62101C17.8932 7.32022 17.8761 6.00055 17.6469 4.71791C17.572 3.33979 16.9925 2.03744 16.0189 1.05915C15.9099 0.960864 15.7825 0.88516 15.6441 0.83642C15.5057 0.78768 15.3589 0.766872 15.2124 0.7752C15.0659 0.783527 14.9225 0.820825 14.7904 0.884936C14.6584 0.949047 14.5404 1.0387 14.4433 1.1487C13.8788 1.72979 13.4522 2.43033 13.195 3.19852C13.1558 3.35259 13.0746 3.49278 12.9605 3.60351C12.8464 3.71424 12.7039 3.7912 12.5487 3.82582C12.4219 3.72114 12.3114 3.56859 12.1658 3.51915C11.4059 3.23647 10.5975 3.1072 9.78738 3.13883C8.97723 3.17046 8.18138 3.36235 7.44583 3.70342C7.07512 3.76001 7.02743 3.45401 6.90628 3.22628C6.55207 2.56047 6.20402 1.8911 5.83438 1.23391C5.67638 1.06515 5.48181 0.93483 5.26562 0.852941C5.04943 0.771051 4.81734 0.739772 4.58718 0.761504C4.29274 0.853808 4.0225 1.01042 3.79603 1.22001C3.56955 1.42959 3.39251 1.68691 3.2777 1.97333C2.43339 3.91197 2.00456 6.00598 2.01883 8.12044C2.00241 8.74246 1.86168 9.3549 1.60492 9.92168C1.04112 10.9664 0.845222 12.1704 1.04876 13.34L1.07864 13.5626Z" fill="#450C7B"/>
<path d="M1.04852 13.34C0.844994 12.1705 1.0409 10.9664 1.60472 9.9217C1.86146 9.35491 2.00218 8.74248 2.01859 8.12046C2.00431 6.006 2.43315 3.91199 3.27746 1.97335C3.39227 1.68693 3.56931 1.42961 3.79579 1.22003C4.02226 1.01044 4.2925 0.853828 4.58694 0.761524C4.8171 0.739793 5.04918 0.771071 5.26538 0.852961C5.48157 0.93485 5.67614 1.06517 5.83414 1.23393C6.20378 1.89112 6.55183 2.56049 6.90604 3.2263C7.02719 3.45403 7.07488 3.76001 7.44562 3.70344C7.65535 3.73445 7.86839 3.7358 8.07849 3.70744C9.23397 3.38998 10.4495 3.35927 11.6195 3.61796C11.9303 3.68148 12.2388 3.75624 12.5484 3.82584C12.7036 3.79122 12.8461 3.71426 12.9602 3.60353C13.0743 3.4928 13.1555 3.35261 13.1947 3.19854C13.4519 2.43035 13.8785 1.72981 14.443 1.14872C14.5401 1.03872 14.6581 0.949067 14.7902 0.884956C14.9222 0.820845 15.0656 0.783547 15.2121 0.77522C15.3587 0.766892 15.5054 0.7877 15.6438 0.83644C15.7823 0.88518 15.9097 0.960884 16.0187 1.05917C16.9922 2.03746 17.5717 3.33981 17.6467 4.71793C17.8758 6.00057 17.893 7.32024 18.0283 8.62103C18.0523 8.99441 18.1411 9.36076 18.2908 9.70364C18.767 10.5958 19.0252 11.5881 19.0441 12.5992C19.0204 12.7768 18.9739 12.9505 18.9058 13.1162C18.6148 12.7632 18.2767 12.4519 17.901 12.191C17.6247 12.086 17.3278 12.0461 17.0335 12.0743C16.7391 12.1026 16.4553 12.1983 16.204 12.354C15.7587 12.5591 15.3522 12.8469 14.9116 13.0638C14.5318 13.2864 14.091 13.3823 13.6531 13.3377C13.2152 13.293 12.8028 13.1101 12.4757 12.8155C12.3079 12.7014 12.1282 12.6056 11.9399 12.5298C11.8202 12.4135 11.7186 12.2286 11.5781 12.1916C11.0128 11.969 10.4054 11.8739 9.79911 11.9129C9.19283 11.9519 8.60262 12.1242 8.07052 12.4174C7.98372 12.4553 7.90162 12.5032 7.82588 12.56C7.38303 13.019 6.77751 13.2854 6.13995 13.3019C5.5024 13.3183 4.88393 13.0835 4.41798 12.648C4.07099 12.4147 3.6886 12.239 3.28559 12.1276C3.06078 12.0293 2.81649 11.9836 2.57133 11.9939C2.32617 12.0043 2.08661 12.0704 1.87087 12.1873C1.65514 12.3042 1.46893 12.4688 1.32643 12.6686C1.18392 12.8684 1.08887 13.098 1.04852 13.34V13.34ZM17.0115 6.82663C16.9131 6.03327 16.8765 5.32573 16.7273 4.64275C16.66 3.84055 16.3412 3.08006 15.8163 2.46966C15.4513 2.12933 15.1231 2.09278 14.8491 2.49818C14.5828 2.92828 14.382 3.39558 14.2532 3.88475C14.2369 3.9961 14.2434 4.1096 14.2721 4.21839C14.3009 4.32718 14.3514 4.42902 14.4206 4.51775C15.0434 5.33145 15.6929 6.12507 16.3484 6.9129C16.4869 7.04059 16.6416 7.14942 16.8085 7.23657L17.0115 6.82663ZM4.69403 2.47355C4.54642 2.5827 4.42737 2.72591 4.34703 2.89098C4.09183 3.30653 3.91587 3.39698 3.81033 3.86137C3.59316 4.81694 3.44864 5.78811 3.32242 6.76172C3.30385 6.90503 3.21042 7.05972 3.293 7.21619C3.42439 7.13419 3.54691 7.03878 3.65859 6.93148C4.35621 6.11248 4.85273 5.10129 5.53974 4.27339C5.56632 4.23723 5.58449 4.19559 5.59293 4.15151C5.60137 4.10743 5.59987 4.06202 5.58853 4.01859C5.60569 3.74257 5.56325 3.46608 5.4641 3.20791C5.36495 2.94974 5.2114 2.71592 5.01388 2.52234C4.91668 2.42624 4.89287 2.55915 4.69403 2.47355ZM6.2683 7.00984C5.7333 7.01465 5.34204 7.31801 5.34285 7.72745C5.4215 8.01913 5.58599 8.28045 5.81498 8.4775C6.04396 8.67454 6.32688 8.79823 6.62702 8.83251C6.83679 8.81427 7.03123 8.71513 7.1692 8.55607C7.30717 8.39701 7.37783 8.19051 7.36624 7.98026C7.36257 7.84287 7.33066 7.70771 7.27251 7.58317C7.21436 7.45864 7.13121 7.3474 7.02823 7.25638C6.92524 7.16536 6.80464 7.0965 6.6739 7.05409C6.54317 7.01168 6.40511 6.99662 6.2683 7.00984V7.00984ZM13.4232 8.85363C13.9621 8.85143 14.7058 8.19676 14.6901 7.73832C14.6554 7.52152 14.5387 7.32633 14.3642 7.19312C14.1896 7.0599 13.9706 6.99883 13.7523 7.02252C13.615 7.0165 13.4779 7.03759 13.3487 7.08457C13.2196 7.13156 13.101 7.20353 12.9997 7.29638C12.8984 7.38922 12.8163 7.50111 12.7583 7.62567C12.7002 7.75022 12.6673 7.88499 12.6613 8.02228C12.6571 8.23222 12.7339 8.43571 12.8758 8.59051C13.0177 8.74531 13.2137 8.83954 13.4232 8.85363V8.85363ZM5.7382 10.2469C5.44303 10.2456 5.15469 10.3356 4.91271 10.5047C4.67074 10.6737 4.48699 10.9135 4.38666 11.1911C4.36768 11.2757 4.35893 11.3623 4.36059 11.449C4.44787 11.4422 4.53341 11.4209 4.61372 11.386C4.77183 11.2475 4.95756 11.1442 5.15863 11.0829C5.35969 11.0216 5.57148 11.0037 5.77997 11.0304C5.98847 11.0572 6.1889 11.1279 6.36798 11.238C6.54706 11.3481 6.7007 11.4949 6.81872 11.6689C6.88761 11.726 6.96572 11.771 7.04972 11.8019C7.09411 11.7081 7.12285 11.6077 7.13478 11.5047C7.08401 11.1656 6.91694 10.8547 6.66216 10.6252C6.40738 10.3958 6.08076 10.262 5.73822 10.2469H5.7382ZM14.5825 10.3586C14.3893 10.3385 14.1941 10.3574 14.0084 10.414C13.8226 10.4707 13.6501 10.5639 13.501 10.6883C13.3518 10.8127 13.2291 10.9656 13.14 11.1382C13.051 11.3108 12.9974 11.4994 12.9824 11.693C12.9941 11.8 13.0164 11.9056 13.0489 12.0082C13.1374 11.9557 13.2206 11.8949 13.2975 11.8264C14.0937 10.9734 14.35 10.9162 15.4316 11.3558C15.5154 11.3832 15.6012 11.4042 15.6882 11.4186C15.6899 11.313 15.674 11.2078 15.6411 11.1074C15.5421 10.9034 15.3931 10.7279 15.208 10.5969C15.023 10.466 14.8078 10.384 14.5825 10.3586H14.5825Z" fill="#646383"/>
<path d="M11.94 12.5298C12.1283 12.6056 12.308 12.7014 12.4759 12.8155C12.803 13.1102 13.2153 13.293 13.6532 13.3377C14.0912 13.3823 14.5319 13.2864 14.9117 13.0638C15.3523 12.847 15.7588 12.5591 16.2041 12.354C16.4554 12.1983 16.7393 12.1026 17.0336 12.0744C17.3279 12.0461 17.6248 12.086 17.9012 12.191C18.2769 12.452 18.615 12.7633 18.9059 13.1162L18.916 13.552C18.8111 13.6497 18.7121 13.7535 18.6193 13.8628C18.3455 14.2716 18.05 14.6655 17.7339 15.0426C16.2541 16.4885 14.3422 17.4112 12.2895 17.6702C11.8732 17.7104 11.4542 17.7134 11.0374 17.6791L11.3933 17.0001C12.1822 16.7557 12.8961 16.4251 13.1032 15.512C13.2339 15.2453 13.3829 14.9854 13.4869 14.7086C13.5105 14.5698 13.5091 14.428 13.4828 14.2897L13.1875 14.5784C13.0484 14.6236 12.9117 14.6758 12.7779 14.7347C12.6211 14.8492 12.4372 14.921 12.2443 14.943C12.0514 14.965 11.8561 14.9366 11.6775 14.8604C11.4989 14.7843 11.3432 14.6631 11.2255 14.5086C11.1078 14.3542 11.0323 14.1718 11.0063 13.9794C11.2745 13.8397 11.5016 13.6325 11.6653 13.3784C11.829 13.1242 11.9237 12.8317 11.94 12.5298V12.5298Z" fill="#FCFBFD"/>
<path d="M11.0375 17.6791C11.4543 17.7134 11.8733 17.7104 12.2896 17.6702C14.3423 17.4112 16.2542 16.4885 17.734 15.0426C18.0501 14.6655 18.3456 14.2716 18.6194 13.8628C18.7122 13.7535 18.8112 13.6497 18.9161 13.552C18.9148 13.8116 18.8896 14.0706 18.841 14.3256C18.6367 15.0737 18.2785 15.771 17.7894 16.3728C17.3004 16.9746 16.6911 17.4678 16.0007 17.8209C14.2006 18.8392 12.1704 19.3813 10.1023 19.3959C8.03423 19.4105 5.99663 18.897 4.18241 17.9041C3.44834 17.5521 2.79824 17.0469 2.27595 16.4224C1.75366 15.7979 1.37131 15.0687 1.15467 14.284C1.10853 14.0462 1.08308 13.8048 1.07861 13.5626C1.19066 13.6463 1.29489 13.74 1.39002 13.8425C1.68307 14.2847 2.00651 14.706 2.35802 15.1032C4.18048 16.8074 6.57556 17.7664 9.07052 17.791C9.36153 18.0007 9.71575 18.104 10.0739 18.0836C10.432 18.0633 10.7722 17.9204 11.0375 17.6791V17.6791Z" fill="#C2AFD4"/>
<path d="M9.07062 17.791C6.57566 17.7664 4.18057 16.8073 2.35812 15.1032C2.00661 14.7059 1.68316 14.2847 1.39012 13.8425C1.29499 13.74 1.19076 13.6463 1.07871 13.5626L1.04883 13.34C1.08918 13.098 1.18423 12.8683 1.32673 12.6686C1.46924 12.4688 1.65545 12.3042 1.87118 12.1873C2.08691 12.0704 2.32648 12.0042 2.57163 11.9939C2.81679 11.9835 3.06108 12.0292 3.2859 12.1276C3.68891 12.239 4.07129 12.4147 4.41829 12.648C4.88423 13.0835 5.5027 13.3183 6.14026 13.3019C6.77781 13.2854 7.38334 13.019 7.82619 12.56C7.90193 12.5031 7.98403 12.4553 8.07083 12.4174C8.05507 12.7143 8.12042 13.01 8.25986 13.2726C8.39931 13.5353 8.60759 13.7551 8.8624 13.9084C8.86402 14.0658 8.8282 14.2213 8.7579 14.3622C8.6876 14.5031 8.58483 14.6252 8.45806 14.7185C8.33129 14.8119 8.18416 14.8738 8.02878 14.8991C7.87341 14.9244 7.71424 14.9124 7.5644 14.8641C7.35066 14.8063 7.13431 14.758 6.91915 14.7054C6.85835 14.6354 6.79915 14.5639 6.73631 14.4958C6.66628 14.42 6.5929 14.3471 6.5209 14.273C6.48744 14.3884 6.47606 14.509 6.48735 14.6287C6.57017 14.894 6.69129 15.1474 6.79707 15.4055C6.97119 16.3839 7.71141 16.7333 8.54484 16.9792L9.07062 17.791Z" fill="#FCFBFD"/>
<path d="M12.5486 3.82587C12.239 3.75627 11.9305 3.68151 11.6197 3.61799C10.4496 3.3593 9.23415 3.39001 8.07867 3.70747C7.86857 3.73583 7.65553 3.73448 7.4458 3.70347C8.18134 3.36241 8.97718 3.17052 9.78733 3.13889C10.5975 3.10726 11.4059 3.23652 12.1658 3.5192C12.3113 3.56864 12.4218 3.72119 12.5486 3.82587Z" fill="#C2AFD4"/>
<path d="M8.86223 13.9084C8.60743 13.7551 8.39914 13.5354 8.2597 13.2727C8.12026 13.0101 8.05491 12.7144 8.07067 12.4174C8.60276 12.1242 9.19297 11.952 9.79925 11.913C10.4055 11.8739 11.013 11.9691 11.5783 12.1917C11.7188 12.2287 11.8204 12.4135 11.94 12.5299C11.9237 12.8318 11.829 13.1242 11.6653 13.3784C11.5016 13.6326 11.2745 13.8397 11.0063 13.9794L10.3415 14.3028C10.4752 14.6015 10.6593 14.8749 10.8859 15.111C11.0719 15.2273 11.2791 15.3058 11.4955 15.342C11.7119 15.3781 11.9333 15.3713 12.1471 15.3218C12.3609 15.2724 12.5628 15.1813 12.7413 15.0537C12.9198 14.9262 13.0714 14.7647 13.1875 14.5784L13.4828 14.2897C13.5091 14.428 13.5105 14.5698 13.4869 14.7086C13.3829 14.9854 13.2339 15.2453 13.1032 15.512C12.8032 15.626 12.5192 15.7782 12.2582 15.9648C11.9458 16.2891 11.6568 16.6351 11.3933 17.0001L11.0374 17.6791C10.7721 17.9205 10.4319 18.0633 10.0738 18.0837C9.71565 18.1041 9.36142 18.0008 9.0704 17.7911L8.54463 16.9793C8.31668 16.6179 8.0562 16.278 7.76645 15.964C7.46586 15.7411 7.1405 15.5537 6.79686 15.4056C6.69108 15.1475 6.56996 14.8941 6.48714 14.6287C6.47584 14.5091 6.48723 14.3884 6.52071 14.273C6.59271 14.3471 6.66609 14.42 6.73616 14.4959C6.79903 14.564 6.85816 14.6355 6.919 14.7055C7.06425 14.8878 7.24584 15.038 7.45224 15.1465C7.65863 15.2549 7.88533 15.3192 8.11792 15.3354C8.35052 15.3515 8.58393 15.3191 8.80333 15.2403C9.02273 15.1614 9.22333 15.0377 9.39239 14.8771C9.7856 14.4146 9.73776 14.2271 9.1771 14.0284C9.07128 13.9908 8.96714 13.9485 8.86223 13.9084ZM10.7989 16.4083C10.7989 16.2339 10.8501 16.0663 10.7883 15.9757C10.6419 15.7919 10.4793 15.6214 10.3027 15.4663C10.2421 15.5916 10.1864 15.7196 10.1186 15.8409C10.0783 15.9003 10.0325 15.9558 9.98188 16.0067C9.95171 15.9342 9.91732 15.8635 9.87889 15.795C9.81017 15.6863 9.7025 15.4818 9.66277 15.4934C9.41678 15.6125 9.22768 15.8237 9.1365 16.0814C9.04532 16.339 9.05943 16.6222 9.17578 16.8694C9.21014 16.9841 9.26813 17.0903 9.34599 17.1812C9.42386 17.2721 9.51989 17.3456 9.6279 17.3972C9.73592 17.4487 9.85353 17.4771 9.97316 17.4805C10.0928 17.4839 10.2118 17.4622 10.3226 17.4168C10.807 17.2256 10.8208 16.7989 10.7989 16.4083Z" fill="#450C7B"/>
<path d="M17.0117 6.82661C17.0925 7.46646 16.8451 7.35485 16.7564 7.27672C16.6043 7.17496 16.467 7.05249 16.3486 6.91286C15.6931 6.12501 15.0436 5.33141 14.4208 4.51771C14.3516 4.42898 14.3011 4.32714 14.2723 4.21835C14.2435 4.10955 14.2371 3.99606 14.2534 3.88471C14.3822 3.39554 14.583 2.92824 14.8493 2.49814C15.1233 2.09274 15.4515 2.12929 15.8165 2.46962C16.3414 3.08002 16.6602 3.84051 16.7275 4.64271C16.8767 5.32571 16.9134 6.03325 17.0117 6.82661ZM16.3313 5.45577C16.3698 5.43733 16.1108 5.20799 16.1493 5.18955C15.8808 4.49619 15.9216 4.0087 15.6293 3.32555C15.6115 3.27472 15.5757 3.23219 15.5286 3.20604C15.4815 3.1799 15.4265 3.17196 15.374 3.18373C15.2784 3.2348 15.1938 3.3042 15.125 3.38797C15.0563 3.47174 15.0047 3.56823 14.9732 3.67193C14.9418 3.77564 14.931 3.88452 14.9417 3.99238C14.9523 4.10023 14.9841 4.20493 15.0352 4.3005C15.4139 4.72467 15.6776 5.07727 16.0625 5.49588C16.1201 5.57186 16.1845 5.64246 16.2548 5.70682L16.3313 5.45577Z" fill="#410575"/>
<path d="M6.26871 7.00984C6.40552 6.99661 6.54358 7.01167 6.67431 7.05409C6.80504 7.0965 6.92565 7.16536 7.02863 7.25638C7.13162 7.3474 7.21477 7.45864 7.27292 7.58317C7.33107 7.7077 7.36298 7.84287 7.36665 7.98026C7.37824 8.1905 7.30758 8.397 7.16961 8.55606C7.03164 8.71513 6.8372 8.81427 6.62743 8.83251C6.32729 8.79823 6.04437 8.67454 5.81538 8.47749C5.5864 8.28044 5.42191 8.01913 5.34326 7.72745C5.34245 7.31803 5.73367 7.01465 6.26871 7.00984Z" fill="#FCFBFD"/>
<path d="M13.4232 8.85363C13.2137 8.83954 13.0177 8.74531 12.8758 8.59051C12.7339 8.4357 12.6571 8.23222 12.6613 8.02228C12.6673 7.88499 12.7002 7.75022 12.7583 7.62566C12.8163 7.50111 12.8984 7.38922 12.9997 7.29637C13.101 7.20353 13.2196 7.13156 13.3487 7.08457C13.4779 7.03758 13.615 7.0165 13.7523 7.02252C13.9706 6.99882 14.1896 7.05989 14.3642 7.19311C14.5387 7.32633 14.6554 7.52151 14.6901 7.73832C14.7058 8.19676 13.9621 8.85143 13.4232 8.85363Z" fill="#FCFBFD"/>
<path d="M5.73867 10.2469C6.0812 10.262 6.40781 10.3958 6.66259 10.6252C6.91736 10.8547 7.08445 11.1655 7.13523 11.5046C7.12329 11.6077 7.09455 11.7081 7.05017 11.8018C6.96617 11.7709 6.88805 11.726 6.81917 11.6688C6.70114 11.4949 6.5475 11.348 6.36842 11.2379C6.18934 11.1279 5.98891 11.0571 5.78042 11.0304C5.57192 11.0036 5.36013 11.0215 5.15907 11.0828C4.958 11.1441 4.77227 11.2475 4.61417 11.386C4.53385 11.4208 4.44831 11.4421 4.36104 11.449C4.35939 11.3623 4.36815 11.2757 4.38716 11.1911C4.48748 10.9135 4.67123 10.6737 4.9132 10.5047C5.15517 10.3356 5.4435 10.2456 5.73867 10.2469V10.2469Z" fill="#410575"/>
<path d="M14.5826 10.3585C14.8078 10.384 15.023 10.466 15.2081 10.5969C15.3932 10.7278 15.5422 10.9034 15.6412 11.1074C15.674 11.2078 15.6899 11.313 15.6883 11.4186C15.6013 11.4042 15.5155 11.3832 15.4316 11.3558C14.35 10.9162 14.0937 10.9734 13.2975 11.8264C13.2207 11.8949 13.1374 11.9557 13.0489 12.0082C13.0164 11.9056 12.9941 11.8 12.9824 11.693C12.9974 11.4994 13.051 11.3108 13.1401 11.1382C13.2291 10.9656 13.3519 10.8126 13.501 10.6883C13.6501 10.5639 13.8227 10.4706 14.0084 10.414C14.1942 10.3574 14.3894 10.3385 14.5826 10.3585Z" fill="#410575"/>
<path d="M13.1878 14.5784C13.0717 14.7646 12.9201 14.9261 12.7416 15.0537C12.5631 15.1812 12.3612 15.2723 12.1474 15.3218C11.9336 15.3713 11.7122 15.3781 11.4958 15.3419C11.2794 15.3057 11.0722 15.2273 10.8862 15.111C10.6596 14.8748 10.4755 14.6014 10.3418 14.3028L11.0066 13.9794C11.0326 14.1718 11.1081 14.3541 11.2258 14.5086C11.3435 14.663 11.4992 14.7843 11.6778 14.8604C11.8564 14.9366 12.0517 14.965 12.2446 14.943C12.4375 14.9209 12.6214 14.8492 12.7782 14.7347C12.912 14.6758 13.0487 14.6236 13.1878 14.5784V14.5784Z" fill="#C2AFD4"/>
<path d="M11.3936 17.0001C11.6571 16.6351 11.9461 16.2891 12.2584 15.9648C12.5194 15.7782 12.8035 15.626 13.1034 15.512C12.8964 16.4252 12.1825 16.7557 11.3936 17.0001Z" fill="#C2AFD4"/>
<path d="M8.86219 13.9084C8.9671 13.9485 9.07119 13.9908 9.17705 14.0283C9.73771 14.2271 9.78555 14.4146 9.39234 14.8771C9.22328 15.0377 9.02268 15.1614 8.80328 15.2402C8.58388 15.3191 8.35047 15.3515 8.11787 15.3354C7.88528 15.3192 7.65858 15.2549 7.45219 15.1465C7.24579 15.038 7.0642 14.8878 6.91895 14.7054C7.13411 14.7581 7.35046 14.8063 7.5642 14.8642C7.71403 14.9125 7.8732 14.9244 8.02858 14.8991C8.18395 14.8738 8.33109 14.8119 8.45785 14.7186C8.58462 14.6253 8.68739 14.5031 8.75769 14.3623C8.82798 14.2214 8.8638 14.0659 8.86219 13.9084V13.9084Z" fill="#C2AFD4"/>
<path d="M6.79688 15.4056C7.14052 15.5537 7.46588 15.741 7.76646 15.9639C8.05622 16.278 8.3167 16.6178 8.54464 16.9793C7.71121 16.7334 6.97099 16.3839 6.79688 15.4056Z" fill="#C2AFD4"/>
<path d="M10.8189 16.4735C10.8408 16.8642 10.8071 17.2256 10.3227 17.4168C10.2119 17.4622 10.0929 17.4839 9.97328 17.4805C9.85365 17.4772 9.73604 17.4488 9.62802 17.3972C9.52001 17.3457 9.42398 17.2721 9.34611 17.1812C9.26825 17.0903 9.21026 16.9841 9.17589 16.8695C9.05955 16.6222 9.04544 16.339 9.13662 16.0814C9.22779 15.8238 9.41691 15.6125 9.66289 15.4935C9.70262 15.4818 9.81028 15.6863 9.879 15.795C9.91744 15.8635 9.95183 15.9342 9.982 16.0067C10.0327 15.9559 10.0784 15.9003 10.1188 15.8409C10.1865 15.7196 10.2422 15.5916 10.3028 15.4664C10.4284 15.5024 10.5413 15.5728 10.6288 15.6698C10.7163 15.7667 10.775 15.8862 10.7981 16.0147C10.823 16.1663 10.83 16.3203 10.8189 16.4735V16.4735Z" fill="#F32E41"/>
<path d="M16.3256 5.80972C16.2945 5.89146 16.1921 5.78429 16.137 5.75557C16.0666 5.69777 16.0019 5.63347 15.9437 5.56352C15.5883 5.11961 15.2302 4.69524 14.8813 4.24621C14.6544 3.95421 15.0133 3.07568 15.387 3.01769C15.4988 3.00035 15.7669 3.32942 15.8147 3.4382C16.0713 3.96932 16.2362 4.54005 16.3024 5.1262C16.3488 5.35108 16.3567 5.58221 16.3256 5.80972Z" fill="#F14C79"/>
<path d="M3.37872 4.64271C3.44604 3.84051 3.76485 3.08002 4.28972 2.46962C4.65472 2.12929 4.983 2.09274 5.25697 2.49814C5.52324 2.92823 5.72406 3.39553 5.85285 3.88471C5.86915 3.99606 5.86272 4.10955 5.83395 4.21835C5.80518 4.32714 5.75467 4.42898 5.68546 4.51771C5.06271 5.33139 4.41319 6.12499 3.75767 6.91284C3.63928 7.05247 3.50202 7.17493 3.34985 7.2767C3.26115 7.35483 3.01374 7.46644 3.09463 6.82659C3.19291 6.03323 3.2296 5.32569 3.37872 4.64271ZM3.85138 5.70677C3.92174 5.64241 3.98612 5.57181 4.04375 5.49583C4.4286 5.07722 4.82836 4.71083 5.2071 4.28664C5.30872 4.08404 5.32925 3.8503 5.2645 3.63309C5.19975 3.41587 5.05459 3.23153 4.85862 3.11764C4.78266 3.11747 4.70789 3.13642 4.64119 3.17275C4.57449 3.20908 4.51801 3.26162 4.47696 3.32552C4.18469 4.0087 4.2255 4.49619 3.95701 5.18952C3.99549 5.20796 3.84263 5.42588 3.88111 5.44432C3.9066 5.52799 3.82585 5.6231 3.85138 5.70677Z" fill="#410575"/>
<path d="M3.8282 5.79184C3.85934 5.87358 3.96165 5.76641 4.01683 5.73769C4.08715 5.67989 4.15186 5.61559 4.2101 5.54564C4.56548 5.10173 4.92354 4.67735 5.27243 4.22832C5.49934 3.93632 5.14051 3.05779 4.76674 2.99981C4.65497 2.98247 4.38689 3.31154 4.33907 3.42031C4.08246 3.95143 3.91757 4.52216 3.85141 5.10831C3.80497 5.33318 3.79712 5.56432 3.8282 5.79184V5.79184Z" fill="#F14C79"/>
<path d="M9.99962 12.7847C10.4163 12.7847 10.7541 12.6936 10.7541 12.5814C10.7541 12.4691 10.4163 12.3781 9.99962 12.3781C9.58292 12.3781 9.24512 12.4691 9.24512 12.5814C9.24512 12.6936 9.58292 12.7847 9.99962 12.7847Z" fill="#FCFBFD"/>
</svg>
