<svg width="20" height="20" viewBox="0 0 20 20" fill="none" xmlns="http://www.w3.org/2000/svg">
<g clip-path="url(#clip0_555_131)">
<path d="M8.9657 9.99839L16.4228 14.2698C16.4827 14.3059 16.5512 14.3253 16.6211 14.3261C16.691 14.3269 16.7599 14.3091 16.8206 14.2744C16.8814 14.2398 16.9318 14.1896 16.9667 14.1291C17.0017 14.0685 17.0198 13.9997 17.0194 13.9298V6.06103C17.0203 5.99099 17.0023 5.922 16.9674 5.86129C16.9325 5.80057 16.8819 5.75035 16.8209 5.7159C16.7599 5.68144 16.6908 5.66401 16.6207 5.66543C16.5507 5.66685 16.4824 5.68707 16.4228 5.72397L8.9657 9.99839Z" fill="#31CB9E"/>
<path d="M16.2647 3.83312L11.167 0.0836829C11.1143 0.0431611 11.0523 0.0162459 10.9867 0.00530988C10.921 -0.00562616 10.8537 -0.000247275 10.7907 0.0209724C10.7276 0.0421921 10.6707 0.078601 10.625 0.12699C10.5793 0.175379 10.5463 0.234261 10.5287 0.298448L8.66742 8.65042L16.22 4.47444C16.2775 4.44487 16.3263 4.40099 16.3619 4.34703C16.3975 4.29307 16.4185 4.23085 16.423 4.16638C16.4275 4.10191 16.4153 4.03737 16.3876 3.979C16.3598 3.92062 16.3175 3.87038 16.2647 3.83312" fill="#31CB9E"/>
<path d="M11.1611 19.9105L16.2647 16.1611C16.3182 16.1235 16.3612 16.0727 16.3895 16.0137C16.4178 15.9548 16.4304 15.8895 16.4262 15.8242C16.422 15.759 16.4011 15.6959 16.3655 15.641C16.33 15.5861 16.2809 15.5413 16.223 15.5108L8.66742 11.3348L10.5287 19.6868C10.5442 19.7517 10.5755 19.8117 10.6199 19.8615C10.6642 19.9113 10.7203 19.9493 10.783 19.9721C10.8457 19.9949 10.9131 20.0017 10.9791 19.992C11.045 19.9823 11.1076 19.9563 11.1611 19.9165" fill="#31CB9E"/>
<path d="M7.0269 9.84343L8.96576 0.775567C8.98056 0.700424 8.97261 0.622572 8.94291 0.551975C8.91322 0.481379 8.86313 0.42125 8.79906 0.379286C8.735 0.337321 8.65986 0.31543 8.58328 0.316415C8.5067 0.3174 8.43215 0.341216 8.36919 0.384814L3.40274 4.19391C3.27698 4.29039 3.17521 4.41462 3.10536 4.55691C3.03551 4.69919 2.99947 4.85569 3.00006 5.01419V14.6786C2.99762 14.8391 3.03276 14.998 3.10268 15.1425C3.1726 15.287 3.27536 15.4131 3.40274 15.5108L8.34532 19.308C8.40829 19.3516 8.48284 19.3754 8.55942 19.3764C8.636 19.3774 8.71113 19.3555 8.7752 19.3135C8.83927 19.2716 8.88936 19.2114 8.91905 19.1408C8.94875 19.0702 8.9567 18.9924 8.94189 18.9173L7.0269 9.84343Z" fill="#31CB9E"/>
</g>
<defs>
<clipPath id="clip0_555_131">
<rect width="20" height="20" fill="white"/>
</clipPath>
</defs>
</svg>
