<svg width="20" height="20" viewBox="0 0 20 20" fill="none" xmlns="http://www.w3.org/2000/svg">
<rect width="20" height="20" fill="white"/>
<path fill-rule="evenodd" clip-rule="evenodd" d="M9.66648 2.03881C9.63346 2.07174 9.34207 2.63345 9.01892 3.28698C8.3824 4.57432 7.83046 5.33143 7.08629 5.93774C5.90841 6.89732 4.53531 6.75529 3.30732 5.54674C2.84259 5.08935 2.77438 5.05153 2.57726 5.14127C2.45766 5.19573 2.35986 5.31823 2.35986 5.41349C2.35986 5.58311 5.71943 12.6855 5.90588 12.9102C5.97635 12.995 6.45917 13.0243 7.78677 13.0243C9.48944 13.0243 9.58461 13.015 9.82561 12.8255L10.0784 12.6267L10.0273 8.59619C9.99904 6.3794 9.99596 4.51488 10.0203 4.45264C10.1113 4.22023 10.3246 4.35494 10.6693 4.86255C11.1453 5.56348 12.0553 6.39903 12.7376 6.7618C13.4116 7.12014 14.5157 7.41542 15.1814 7.41542C15.617 7.41542 15.6648 7.43388 15.6173 7.58351C15.588 7.67596 15.0578 8.84235 14.4392 10.1755C13.547 12.0986 13.3331 12.634 13.4041 12.7666C13.5076 12.96 13.749 12.9834 13.9642 12.8208C14.0464 12.7586 14.9324 11.0182 15.9331 8.95335C17.8184 5.06275 17.857 4.95401 17.3682 4.90651C17.1976 4.88996 17.0751 4.992 16.7963 5.38327C16.202 6.2171 15.3119 6.67848 14.54 6.55264C13.2457 6.34176 11.833 4.95102 10.7753 2.84686C10.3851 2.07039 10.3513 2.0314 10.0463 2.0057C9.87039 1.99096 9.69941 2.00579 9.66648 2.03881ZM9.1245 14.6085C8.98889 14.6844 8.83627 14.8246 8.78525 14.9199C8.73422 15.0152 8.69252 15.6282 8.69252 16.2821V17.4711L8.95695 17.7356C9.21451 17.9931 9.24536 18 10.14 18C11.0346 18 11.0655 17.9931 11.323 17.7356L11.5874 17.4711V16.2479C11.5874 15.0855 11.5766 15.0121 11.3692 14.7709C11.1609 14.5284 11.111 14.516 10.261 14.4937C9.59628 14.4762 9.3086 14.5053 9.1245 14.6085ZM5.34526 16.1907V17.8191H5.57142H5.79759V16.1907V14.5623H5.57142H5.34526V16.1907ZM6.9286 15.3821C6.52187 15.8708 6.27236 16.2454 6.31099 16.3094C6.34654 16.3685 6.63884 16.7324 6.96054 17.118C7.48533 17.7472 7.5777 17.8191 7.86158 17.8191C8.22218 17.8191 8.27104 17.9163 7.39957 16.9005C7.1156 16.5695 6.88319 16.2691 6.88319 16.233C6.88319 16.197 7.16816 15.8292 7.51645 15.4156C7.86475 15.0019 8.14972 14.6407 8.14972 14.6129C8.14972 14.5851 8.02849 14.5623 7.88031 14.5623C7.65152 14.5623 7.50831 14.6857 6.9286 15.3821ZM12.4016 16.1907V17.8191H12.6278H12.854V16.1907V14.5623H12.6278H12.4016V16.1907ZM13.9576 15.3531C13.5994 15.7881 13.3063 16.1851 13.3063 16.2352C13.3063 16.2853 13.5924 16.6623 13.9419 17.0727C14.5187 17.75 14.6075 17.8191 14.9011 17.8191H15.2247L14.6546 17.1632C14.3411 16.8024 14.0323 16.4439 13.9685 16.3664C13.87 16.2467 13.9372 16.1235 14.4162 15.5456C14.7263 15.1716 15.0359 14.7973 15.1041 14.7139C15.2159 14.5774 15.1974 14.5623 14.9186 14.5623C14.6393 14.5623 14.5451 14.6398 13.9576 15.3531ZM11.0465 15.1051C11.1757 15.3094 11.1586 17.307 11.0266 17.4391C10.9586 17.507 10.6212 17.5477 10.1251 17.5477C9.43371 17.5477 9.32018 17.5252 9.23848 17.3727C9.18701 17.2764 9.14485 16.7501 9.14485 16.2031C9.14485 14.9196 9.1653 14.8952 10.2037 14.9381C10.7524 14.9608 10.9844 15.0067 11.0465 15.1051Z" fill="#153456"/>
</svg>
