<svg width="20" height="20" viewBox="0 0 20 20" fill="none" xmlns="http://www.w3.org/2000/svg">
<circle cx="10" cy="10" r="10" fill="#054503"/>
<path fill-rule="evenodd" clip-rule="evenodd" d="M10 20C15.5228 20 20 15.5228 20 10C20 4.47715 15.5228 0 10 0C4.47715 0 0 4.47715 0 10C0 15.5228 4.47715 20 10 20ZM10 19.1139C15.0335 19.1139 19.1139 15.0335 19.1139 10C19.1139 4.96652 15.0335 0.886076 10 0.886076C4.96652 0.886076 0.886076 4.96652 0.886076 10C0.886076 15.0335 4.96652 19.1139 10 19.1139Z" fill="url(#paint0_linear_2116_2389)"/>
<ellipse cx="9.5" cy="9" rx="4.5" ry="3" fill="#D20001"/>
<path fill-rule="evenodd" clip-rule="evenodd" d="M12.1823 4.96383C11.9717 4.91871 11.4029 4.85604 10.9183 4.82456L10.4779 4.79591L10.0374 4.83069L9.3096 4.94062C8.90941 5.00106 8.46754 5.08824 8.32774 5.13436C7.99366 5.24467 7.92517 5.17082 8.25236 5.05308L8.50524 4.96199L7.96899 4.46428C7.67406 4.19056 7.27011 3.86054 7.07132 3.73085C6.87252 3.60116 6.72659 3.46801 6.74697 3.43507C6.76742 3.40205 6.74375 3.35012 6.69441 3.31963C6.63841 3.285 6.62524 3.29733 6.6594 3.35257C6.73685 3.4779 6.64316 3.45736 6.21555 3.25505C6.00955 3.1576 5.87993 3.06483 5.92743 3.04882C5.975 3.03281 5.84607 3.01466 5.64092 3.00845C5.30983 2.99849 5.27221 3.01351 5.30592 3.14251C5.31794 3.18842 5.31668 3.22954 5.30499 3.25623L5.30312 3.48389C5.32588 3.50955 5.32291 3.57719 5.30171 3.65612L5.29688 4.24549L5.29708 4.25165L5.29708 4.25178L5.29709 4.25191L5.29725 4.25823L5.34032 5.73924C5.3584 6.22378 5.43554 7.0024 5.47714 7.07648C5.47897 7.00761 5.72144 6.75713 6.05821 6.467L6.03476 6.36328L5.91349 5.84059C5.65946 4.74604 5.66084 3.52991 5.91594 3.62781C6.26097 3.76027 6.78757 4.3676 7.12961 5.02764C7.39605 5.54175 7.35384 5.66317 6.92852 5.6061C6.61513 5.56404 6.60731 5.56826 6.65404 5.75433C6.69418 5.91436 6.64891 5.98791 6.37795 6.20286C6.26565 6.29193 6.15781 6.3812 6.05821 6.467C5.72144 6.75713 5.47897 7.00761 5.47714 7.07648C5.47591 7.12045 5.33794 7.36276 5.17048 7.6148C5.00294 7.86691 4.77672 8.31506 4.66764 8.61068C4.18663 9.91475 3.92333 10.3052 3.31844 10.6118C3.00489 10.7707 2.95541 10.8228 3.0314 10.9145C3.09338 10.9891 3.09613 11.0251 3.03983 11.0251C2.99394 11.0251 3.10625 11.2406 3.28933 11.5039C3.6788 12.064 3.92831 12.543 4.21704 13.285C4.42403 13.817 4.84521 14.5256 5.0607 14.7044C5.20327 14.8228 5.20649 14.9401 5.06568 14.886C4.933 14.8352 4.89477 14.8947 4.82652 15.2582L4.77274 15.5449H5.09594C5.33503 15.5449 5.4088 15.5717 5.37954 15.6478C5.35158 15.7207 5.39157 15.7409 5.51613 15.7171C5.7936 15.6641 6.64967 15.8223 7.035 15.9978C7.22805 16.0858 7.43275 16.1577 7.48982 16.1577C7.54689 16.1577 7.62633 16.1897 7.6664 16.2287C7.86327 16.4205 9.30156 16.7069 10.2774 16.7486C11.381 16.7958 11.7234 16.7529 11.6554 16.5758C11.5916 16.4095 11.646 16.4367 11.9674 16.7319C12.1277 16.8792 12.2937 16.9998 12.336 17C12.4223 17.0005 12.5678 16.6971 12.6483 16.3492C12.7192 16.0424 12.8323 15.911 12.9775 15.9667C13.0432 15.9919 13.0738 15.9894 13.0455 15.9611C12.9729 15.8886 13.1575 15.7209 13.6851 15.3799C14.2624 15.0068 14.7102 14.779 15.8573 14.2753C16.3617 14.0537 16.7868 13.8352 16.8019 13.7898C16.8345 13.6923 16.5026 13.5531 16.2375 13.5531C16.1349 13.5531 16.051 13.5272 16.051 13.4956C16.0512 13.4334 16.8409 13.0935 16.9852 13.0935C17.0335 13.0935 17.1349 13.0375 17.2104 12.9692C17.3416 12.8505 17.3373 12.8297 17.1137 12.5047C16.6925 11.8926 16.2623 10.7985 15.9394 9.51816C15.8328 9.0956 15.8323 8.99402 15.9344 8.56058C16.0713 7.97975 16.0897 6.21535 15.9673 5.40922C15.9213 5.10617 15.7963 4.53077 15.6895 4.13051C15.5828 3.73024 15.4783 3.3053 15.4573 3.18618C15.4237 2.99635 15.3941 2.97574 15.2179 3.01902C14.7539 3.13309 13.5999 3.95914 12.949 4.64285L12.5654 5.04588L12.1823 4.96383ZM14.0434 5.96906C14.0847 5.19533 14.5987 3.83726 15.0366 3.34483C15.1024 3.27083 15.1673 3.22126 15.1808 3.23475C15.1942 3.24823 15.2834 3.7569 15.3791 4.36515C15.5097 5.19579 15.553 5.79532 15.553 6.77343C15.553 7.4897 15.5258 8.14231 15.4927 8.22366C15.44 8.35267 15.4001 8.32341 15.1799 7.99384C15.0247 7.76157 14.9525 7.583 14.9925 7.53015C15.035 7.47399 14.9768 7.41079 14.8249 7.34782C14.6969 7.29481 14.5738 7.22181 14.5515 7.18557C14.5291 7.14934 14.6591 6.97283 14.8404 6.79334L15.17 6.467L14.5954 6.4287L14.0209 6.3904L14.0434 5.96906ZM7.79502 6.95131C7.62181 6.9759 7.52238 6.82583 7.36012 6.29464C7.29217 6.07202 7.36932 6.07731 7.72592 6.31961C7.9585 6.47765 8.01166 6.55778 7.99266 6.7218C7.97581 6.86742 7.91866 6.93377 7.79502 6.95131ZM10.4587 7.24532C10.4587 6.95912 10.5591 6.86206 10.9905 6.73114C11.0983 6.69843 11.3224 6.66871 11.4886 6.66511L11.7908 6.65852L11.5582 6.83088C11.4303 6.92572 11.2426 7.09809 11.1412 7.21399C11.0397 7.3299 10.8446 7.44626 10.7077 7.47254C10.4641 7.51927 10.4587 7.51437 10.4587 7.24532ZM5.99209 7.59043C6.09903 7.44994 6.29453 7.26907 6.4266 7.18856C6.55867 7.10797 6.7282 7.04201 6.80342 7.04186C7.22208 7.04094 7.6713 7.79712 7.60442 8.39013L7.56796 8.71402L7.92165 8.79408L8.27542 8.87413L7.91154 8.83881C7.71136 8.81936 7.38395 8.78465 7.18377 8.76167L6.81989 8.71992L7.08557 8.84165C7.54314 9.05132 7.53486 9.22368 7.05531 9.47151C6.92584 9.53838 6.78542 9.63606 6.74329 9.68853C6.70115 9.74101 6.59306 9.80574 6.50305 9.83232C6.31406 9.88824 5.92375 9.59768 5.70527 9.23839L5.56975 9.01555L5.33335 9.34181C5.05427 9.72714 4.72816 10.3949 4.66503 10.7105C4.61577 10.9569 4.99559 11.8295 5.25383 12.0632C5.38712 12.1838 5.41823 12.1658 5.84247 11.7227C6.08884 11.4654 6.33398 11.2549 6.38722 11.2549C6.44039 11.2549 6.6974 11.403 6.95832 11.5839C7.5901 12.022 8.02047 12.1742 8.62796 12.1742C9.27827 12.1742 9.83076 12.0054 10.2646 11.6742C10.6052 11.4142 10.8417 11.335 10.8417 11.4809C10.8417 11.521 10.7955 11.5812 10.7388 11.615C10.6822 11.6487 10.5731 11.9175 10.4963 12.2125C10.4195 12.5074 10.2906 12.8821 10.21 13.0452C10.0031 13.4629 9.29037 14.4105 8.99758 14.6568C8.3698 15.185 7.47013 15.4235 7.18401 15.1375C7.07499 15.0285 7.04121 14.813 7.00467 13.9909C6.9764 13.3567 6.91443 12.8602 6.83874 12.6617C6.66722 12.2117 6.33888 11.7145 6.21332 11.7145C6.21299 11.7145 6.21265 11.7145 6.2123 11.7146L6.21187 11.7146L6.21142 11.7146L6.21133 11.7146C6.15039 11.7172 5.96026 11.8368 5.78571 11.9827C5.60921 12.1301 5.42236 12.2508 5.3705 12.2508C5.25352 12.2508 5.02799 12.0066 4.75075 11.5799C4.56292 11.2908 4.54361 11.2037 4.58092 10.8138C4.66909 9.89208 5.51559 8.72237 6.17502 8.61091C6.25309 8.59773 6.31154 8.58684 6.35438 8.57434C6.47167 8.54012 6.47201 8.49379 6.43778 8.3552C6.36209 8.04862 6.27614 7.9976 6.03675 8.11749C5.91977 8.17609 5.79329 8.23822 5.75575 8.25561C5.63004 8.31383 5.79498 7.84936 5.99209 7.59043ZM10.883 8.86578C11.0296 8.3909 11.3754 7.95179 11.7227 7.79957C11.807 7.76265 12.0693 7.74258 12.3055 7.75499C12.6571 7.77345 12.7934 7.82363 13.0553 8.03115C13.616 8.47516 13.8204 9.11023 13.5501 9.56788C13.4807 9.68531 13.2346 9.90609 13.0031 10.0585C12.6418 10.2965 12.5197 10.3356 12.1393 10.3356C11.7573 10.3356 11.6515 10.3013 11.3708 10.0867C11.1917 9.94976 11.0348 9.80321 11.0219 9.76108C11.009 9.71894 11.1098 9.63276 11.2458 9.56956C11.5818 9.41329 11.632 9.07599 11.3391 8.94246C11.1799 8.86999 11.1039 8.87091 10.9826 8.94668C10.8413 9.03485 10.8329 9.02803 10.883 8.86578Z" fill="#F3F3F3"/>
<path d="M10.9906 6.73111C10.5593 6.86203 10.4588 6.95909 10.4588 7.2453C10.4588 7.51434 10.4643 7.51924 10.7078 7.47251C10.8447 7.44624 11.0398 7.32987 11.1413 7.21396C11.2427 7.09806 11.4304 6.92569 11.5584 6.83085L11.7909 6.65849L11.4887 6.66507C11.3226 6.66867 11.0984 6.6984 10.9906 6.73111Z" fill="black"/>
<path d="M7.36026 6.2946C7.52252 6.8258 7.62195 6.97587 7.79516 6.95128C7.9188 6.93374 7.97595 6.86739 7.9928 6.72176C8.0118 6.55775 7.95863 6.47762 7.72606 6.31958C7.36946 6.07727 7.29231 6.07198 7.36026 6.2946Z" fill="black"/>
<path d="M6.17469 8.61094C5.51527 8.7224 4.66877 9.89211 4.58059 10.8138C4.54329 11.2038 4.56259 11.2908 4.75043 11.5799C5.02767 12.0067 5.2532 12.2508 5.37018 12.2508C5.42204 12.2508 5.60888 12.1302 5.78538 11.9827C5.95993 11.8369 6.15007 11.7172 6.211 11.7146L5.84215 11.7228C5.4179 12.1659 5.3868 12.1839 5.2535 12.0632C4.99526 11.8296 4.61545 10.9569 4.66471 10.7106C4.72783 10.395 5.05394 9.72717 5.33302 9.34184L5.56943 9.01558L5.70494 9.23842C5.92343 9.59771 6.31373 9.88828 6.50272 9.83235C6.59274 9.80577 6.70083 9.74104 6.74296 9.68856C6.78509 9.63609 6.92551 9.53842 7.05498 9.47154C7.53453 9.22372 7.54281 9.05135 7.08524 8.84168L6.81957 8.71995L7.18345 8.7617C7.38362 8.78468 7.71103 8.81939 7.91121 8.83885L8.27509 8.87416L7.92132 8.79411L7.56763 8.71405L6.35406 8.57437C6.31121 8.58687 6.25276 8.59776 6.17469 8.61094Z" fill="#020202"/>
<path fill-rule="evenodd" clip-rule="evenodd" d="M5.49379 7.04156L6.01556 6.83775L6.12224 6.48517H6.76233C6.80678 6.29531 6.86901 5.90476 6.76233 5.86136C6.62898 5.80712 7.82914 5.56302 8.04251 6.0241C8.2132 6.39295 8.11363 5.99697 8.04251 5.75288L8.41589 5.86136V5.75288C8.60259 5.70767 9.00264 5.81224 9.00264 6.59366C9.00264 6.60899 9.04742 6.55494 9.11768 6.47013C9.29591 6.255 9.63813 5.84191 9.82942 5.86136L9.90943 6.07834C10.0872 5.91561 10.5335 5.60642 10.8962 5.67151C10.9496 5.68108 11.0474 5.96985 10.8962 6.07834C11.2963 5.86136 12.1497 5.59557 12.6831 6.37668C12.7202 6.43092 12.3364 6.892 12.0697 7.05473C12.2107 7.08758 12.4242 7.04887 12.6306 7.01142C12.9319 6.95678 13.2184 6.90483 13.2432 7.08185C13.2646 7.23373 13.0388 7.32595 12.9232 7.35307C13.3944 7.35307 14.3474 7.39646 14.3901 7.57005C14.4327 7.74363 14.1056 7.89551 13.9367 7.94975L14.7101 8.13961L14.5234 8.51931L15.0568 8.92614L14.8701 9.36009L15.2168 9.82117L14.8701 10.3907L15.5102 11.123L15.1102 11.5298L16.257 12.7503L14.5767 14.0522L14.7634 14.1607L12.9499 15.0015L13.2699 15.3269L12.2831 15.788L12.5765 16.005L12.0697 16.3033L11.2163 16.4932L11.5052 16.7304C11.6447 16.7001 11.6876 16.6496 11.6593 16.5758C11.5955 16.4095 11.6499 16.4367 11.9712 16.7319C12.1316 16.8792 12.2975 16.9998 12.3399 17C12.4261 17.0005 12.5717 16.6971 12.6521 16.3492C12.7231 16.0424 12.8362 15.911 12.9814 15.9667C13.047 15.9919 13.0777 15.9894 13.0493 15.9611C12.9768 15.8886 13.1613 15.7209 13.689 15.3799C14.2662 15.0068 14.7141 14.779 15.8612 14.2753C16.3655 14.0537 16.7907 13.8352 16.8058 13.7898C16.8384 13.6923 16.5065 13.5531 16.2414 13.5531C16.1388 13.5531 16.0549 13.5272 16.0549 13.4956C16.0551 13.4334 16.8447 13.0935 16.989 13.0935C17.0374 13.0935 17.1387 13.0375 17.2143 12.9692C17.3455 12.8505 17.3411 12.8297 17.1176 12.5047C16.6964 11.8926 16.2662 10.7985 15.9432 9.51816C15.8367 9.0956 15.8361 8.99402 15.9382 8.56058C16.0752 7.97975 16.0936 6.21535 15.9712 5.40922C15.9251 5.10617 15.8001 4.53078 15.6934 4.13051C15.5867 3.73024 15.4822 3.3053 15.4611 3.18618C15.4276 2.99635 15.398 2.97574 15.2217 3.01902C14.7578 3.13309 13.6037 3.95914 12.9529 4.64285L12.5692 5.04588L12.1862 4.96383C11.9755 4.91871 11.4067 4.85605 10.9222 4.82456L10.4817 4.79591L10.0412 4.83069L9.31346 4.94062C8.91327 5.00106 8.4714 5.08824 8.3316 5.13436C7.99752 5.24467 7.92903 5.17082 8.25622 5.05308L8.50909 4.96199L7.97285 4.46428C7.67792 4.19057 7.27397 3.86055 7.07518 3.73085C6.87638 3.60116 6.73045 3.46802 6.75082 3.43507C6.77128 3.40206 6.74761 3.35012 6.69827 3.31963C6.64227 3.285 6.6291 3.29734 6.66326 3.35257C6.74071 3.4779 6.64702 3.45737 6.21941 3.25505C6.01341 3.15761 5.88379 3.06484 5.93129 3.04882C5.97886 3.03281 5.84993 3.01466 5.64478 3.00845C5.31369 2.99849 5.27607 3.01351 5.30978 3.14251C5.3218 3.18842 5.32054 3.22954 5.30885 3.25623L5.30698 3.4839C5.32974 3.50955 5.32677 3.5772 5.30557 3.65612L5.30074 4.24549L5.30094 4.25166L5.30094 4.25179L5.30095 4.25191L5.30111 4.25824L5.34418 5.73924C5.36015 6.16739 5.42224 6.82516 5.46518 7.02357L5.4933 7.04125L5.49379 7.04156ZM6.03862 6.36328L6.06207 6.467C6.16167 6.3812 6.26951 6.29193 6.38181 6.20287C6.65277 5.98791 6.69804 5.91437 6.6579 5.75433C6.61117 5.56826 6.61898 5.56404 6.93238 5.6061C7.3577 5.66317 7.39991 5.54175 7.13347 5.02765C6.79143 4.3676 6.26483 3.76027 5.9198 3.62782C5.6647 3.52991 5.66332 4.74604 5.91735 5.84059L6.03862 6.36328ZM15.0405 3.34483C14.6025 3.83726 14.0886 5.19534 14.0473 5.96906L14.0248 6.3904L14.5993 6.4287L15.1739 6.467L14.8442 6.79335C14.663 6.97284 14.533 7.14934 14.5553 7.18557C14.5777 7.22181 14.7007 7.29481 14.8287 7.34782C14.9807 7.4108 15.0389 7.474 14.9964 7.53015C14.9564 7.58301 15.0285 7.76158 15.1837 7.99385C15.404 8.32341 15.4439 8.35267 15.4965 8.22367C15.5297 8.14231 15.5569 7.4897 15.5569 6.77343C15.5569 5.79532 15.5136 5.1958 15.383 4.36515C15.2873 3.7569 15.1981 3.24823 15.1847 3.23475C15.1712 3.22127 15.1063 3.27083 15.0405 3.34483Z" fill="#C4C3BE"/>
<path d="M6.37438 6.2029C6.64534 5.98794 6.69061 5.91439 6.65047 5.75436C6.60374 5.56829 6.61155 5.56407 6.92495 5.60613C7.35027 5.6632 7.39248 5.54178 7.12604 5.02767C6.78399 4.36763 6.2574 3.76029 5.91237 3.62784C5.65727 3.52994 5.65589 4.74607 5.90991 5.84062L6.03118 6.36331L6.05464 6.46703C6.15423 6.38123 6.26208 6.29196 6.37438 6.2029Z" fill="#615B4F"/>
<path d="M15.033 3.34486C14.5951 3.83728 14.0811 5.19537 14.0398 5.96909L14.0173 6.39043L14.5919 6.42873L15.1664 6.46703L14.8368 6.79338C14.6555 6.97287 14.5255 7.14937 14.5479 7.1856C14.5703 7.22184 14.6933 7.29485 14.8213 7.34786C14.9732 7.41083 15.0314 7.47403 14.9889 7.53018C14.9489 7.58304 15.0211 7.76161 15.1763 7.99388C15.3965 8.32344 15.4365 8.35271 15.4891 8.2237C15.5223 8.14234 15.5495 7.48973 15.5495 6.77346C15.5495 5.79535 15.5062 5.19583 15.3756 4.36518C15.2799 3.75692 15.1906 3.24826 15.1772 3.23477C15.1637 3.22129 15.0989 3.27086 15.033 3.34486Z" fill="#615B4F"/>
<path d="M6.21363 11.7145C6.33918 11.7145 6.66752 12.2117 6.83904 12.6617C6.91473 12.8602 6.9767 13.3566 7.00497 13.9909C7.04151 14.8129 7.07529 15.0284 7.18431 15.1374C7.47043 15.4235 8.3701 15.185 8.99789 14.6568C9.29068 14.4104 10.0034 13.4629 10.2103 13.0452C10.2909 12.8821 10.4198 12.5074 10.4966 12.2125C10.5734 11.9175 10.6825 11.6486 10.7391 11.6149C10.7958 11.5812 10.842 11.5209 10.842 11.4809C10.842 11.335 10.6055 11.4142 10.2649 11.6742C9.83106 12.0054 9.27857 12.1742 8.62826 12.1742C8.02077 12.1742 7.5904 12.022 6.95862 11.5839C6.6977 11.403 6.44069 11.2549 6.38752 11.2549C6.33428 11.2549 6.08914 11.4654 5.84277 11.7227L6.21163 11.7146L6.21172 11.7146L6.21217 11.7145C6.21267 11.7145 6.21315 11.7145 6.21363 11.7145Z" fill="#370202"/>
<path d="M7.23068 13.8321C7.50982 12.7891 8.29407 12.7743 8.6513 12.8973C9.22455 12.5283 10.2824 12.8576 10.1966 13.0203C9.57347 14.2011 8.47685 15.2097 7.60453 15.2097C7.36361 15.1851 6.95154 14.8751 7.23068 13.8321Z" fill="#A01015"/>
<defs>
<linearGradient id="paint0_linear_2116_2389" x1="10" y1="0" x2="10" y2="20" gradientUnits="userSpaceOnUse">
<stop stop-color="#F7D267"/>
<stop offset="1" stop-color="#EB952B"/>
</linearGradient>
</defs>
</svg>
