<svg width="20" height="20" viewBox="0 0 20 20" fill="none" xmlns="http://www.w3.org/2000/svg">
<path fill-rule="evenodd" clip-rule="evenodd" d="M9.32038 0.0198079C8.97027 0.0671974 8.38666 0.231314 8.07581 0.36982C6.98454 0.855952 6.01538 1.75936 5.59785 2.67966C5.4566 2.991 5.25384 3.5927 5.18924 3.89226C5.10588 4.27884 5.07151 5.48118 5.09384 7.23181L5.11252 8.69736L5.03503 8.7586C4.95251 8.8238 4.95113 8.82419 4.63069 8.87638C4.48468 8.90015 4.33886 8.95211 4.14616 9.04902C3.91338 9.16611 3.8377 9.22273 3.65942 9.41317C3.47172 9.61363 3.43487 9.67215 3.32756 9.94041L3.20687 10.2422L3.18225 11.2837C3.15303 12.522 3.1803 18.3279 3.21651 18.571C3.26941 18.9261 3.60654 19.4696 3.88552 19.6495C4.05912 19.7614 4.28186 19.866 4.44393 19.9117C4.67817 19.9778 7.85612 20.0136 11.8479 19.9952C15.7928 19.977 15.4943 19.9931 15.9062 19.7765C16.1429 19.652 16.5395 19.2562 16.6474 19.0367C16.8312 18.6629 16.8186 18.9683 16.8289 14.611C16.8388 10.432 16.8358 10.3179 16.7106 10.0057C16.4722 9.41135 16.0683 9.05552 15.4755 8.91747C15.361 8.89081 15.2205 8.85741 15.1634 8.84325C15.1042 8.82859 15.0282 8.78013 14.9868 8.73069L14.9141 8.64389L14.9133 7.9291C14.9129 7.53599 14.9131 6.56909 14.9137 5.78045C14.9144 4.94067 14.9026 4.24917 14.8852 4.11151C14.8491 3.82479 14.6898 3.26251 14.5579 2.95571C14.3066 2.37108 13.7925 1.67921 13.2711 1.22397C12.7934 0.806916 12.4421 0.590497 11.8479 0.347161C11.2803 0.114729 10.7678 0.01765 10.0252 0.00186295C9.75317 -0.00390102 9.43602 0.00416285 9.32038 0.0198079ZM10.7373 1.20781C11.0549 1.2757 11.4247 1.40077 11.7066 1.53567C12.5552 1.94176 13.3659 2.88989 13.6526 3.81156C13.7771 4.21186 13.7907 4.46803 13.8041 6.647L13.8167 8.69193L13.7548 8.74815C13.694 8.80352 13.6351 8.80455 10.0339 8.81315C6.8167 8.82084 6.36696 8.81675 6.31001 8.77925L6.24521 8.7366L6.22512 7.05267C6.19748 4.73638 6.23835 4.10226 6.44911 3.57705C6.7419 2.84753 7.21802 2.26835 7.90187 1.80982C8.47164 1.42778 8.70969 1.32244 9.29043 1.19532C9.57864 1.13225 9.66337 1.12561 10.0393 1.13671C10.3162 1.14492 10.5583 1.16956 10.7373 1.20781ZM15.1776 9.99416C15.4623 10.0615 15.6367 10.254 15.7047 10.5761C15.7305 10.6982 15.7359 11.6476 15.7271 14.5266C15.7165 18.026 15.7119 18.3261 15.667 18.4437C15.6088 18.5962 15.5053 18.7115 15.3521 18.7946L15.239 18.8559H10.0252H4.8113L4.64949 18.776C4.45831 18.6817 4.38145 18.584 4.33824 18.3806C4.29641 18.1837 4.27776 10.938 4.31837 10.655C4.37147 10.285 4.53724 10.0782 4.84812 9.99408C5.05218 9.93888 14.9441 9.93897 15.1776 9.99416ZM9.81447 12.0154C9.67594 12.0664 9.58526 12.1496 9.50771 12.2969C9.4528 12.4011 9.44653 12.4699 9.43147 13.1345C9.42127 13.5839 9.40262 13.8876 9.38227 13.9351C9.36424 13.9772 9.26943 14.0994 9.17159 14.2067C9.07376 14.314 8.95572 14.4711 8.90929 14.556C8.83079 14.6995 8.82485 14.7312 8.82451 15.0085C8.82414 15.301 8.82638 15.3112 8.94187 15.5485C9.09137 15.8556 9.31055 16.0766 9.559 16.1708C9.70864 16.2275 9.76479 16.2334 10.0393 16.2213C10.4235 16.2043 10.5561 16.1585 10.7948 15.9607C10.9553 15.8277 10.9907 15.7799 11.072 15.5858C11.1459 15.4096 11.1678 15.3128 11.1777 15.1199C11.1968 14.75 11.1028 14.4697 10.8171 14.0442L10.5971 13.7166L10.5817 13.0919C10.5733 12.7483 10.5515 12.4161 10.5334 12.3536C10.4464 12.0534 10.1239 11.9016 9.81447 12.0154Z" fill="#007AFF"/>
</svg>
