<svg width="20" height="20" viewBox="0 0 20 20" fill="none" xmlns="http://www.w3.org/2000/svg">
<g clip-path="url(#clip0_4005_53279)">
<circle cx="10" cy="10" r="10" fill="white"/>
<path d="M18.5256 8.34578L13.1443 4.26454C12.68 3.91182 11.8808 3.91182 11.415 4.26454L9.95428 5.36353L8.49485 4.26454C8.02939 3.91182 7.23323 3.91182 6.76838 4.26454L1.38442 8.34578C1.266 8.42617 1.16905 8.53433 1.10204 8.66081C1.03503 8.78729 1 8.92825 1 9.07138C1 9.21451 1.03503 9.35547 1.10204 9.48195C1.16905 9.60843 1.266 9.71659 1.38442 9.79698L4.54253 12.1856L4.89915 12.4544L6.37953 13.5749L6.73295 13.8424L8.9312 15.5041C9.1668 15.677 9.4508 15.7713 9.74299 15.7738C9.81268 15.7799 9.88424 15.7835 9.95775 15.7835C10.0322 15.7835 10.1049 15.7799 10.1755 15.7735C10.4649 15.7704 10.746 15.6761 10.9787 15.5041L13.177 13.8411L13.5313 13.5736L15.0123 12.4537L15.3689 12.1849L18.5256 9.79698C18.645 9.71736 18.743 9.60947 18.8108 9.48289C18.8785 9.35631 18.914 9.21496 18.914 9.07138C18.914 8.9278 18.8785 8.78645 18.8108 8.65987C18.743 8.53329 18.645 8.4254 18.5256 8.34578V8.34578ZM10.9882 12.1849L9.95677 12.9652L8.92356 12.1849L8.57005 11.9161L7.0902 10.7963L6.73429 10.5275L5.27734 9.42465C5.21288 9.38241 5.15934 9.3255 5.1211 9.25858C5.08287 9.19167 5.06102 9.11665 5.05735 9.03967C5.06132 8.96318 5.08303 8.88868 5.12077 8.82203C5.1585 8.75539 5.21123 8.69844 5.27477 8.65569L6.99476 7.34613C7.3046 7.109 7.89027 7.109 8.20384 7.34613L8.96396 7.92469C9.14785 8.05996 9.36298 8.14648 9.58932 8.1762L9.56987 8.17691C9.83415 8.21108 10.1021 8.20441 10.3644 8.15712C10.3824 8.15432 10.4002 8.15157 10.418 8.14815C10.4243 8.14704 10.4302 8.14619 10.4365 8.14504L10.4311 8.14522C10.617 8.11101 10.7929 8.03566 10.9458 7.92469L11.7089 7.34613C12.0199 7.109 12.6054 7.109 12.9152 7.34861L14.6354 8.65569C14.7024 8.69506 14.7579 8.75125 14.7965 8.81869C14.8351 8.88613 14.8554 8.96247 14.8554 9.04017C14.8554 9.11787 14.8351 9.19422 14.7965 9.26165C14.7579 9.32909 14.7024 9.38528 14.6354 9.42465L13.1784 10.5275L12.8218 10.7963L11.3417 11.9168L10.9882 12.1849ZM11.3805 14.5449L10.4981 15.3207L9.37766 15.3212L8.5926 14.5471L9.96245 13.5022L9.97905 13.514L11.3805 14.5449ZM11.0979 15.1411L11.137 15.1097C11.125 15.1222 11.1124 15.1343 11.0996 15.1463C11.099 15.1446 11.0986 15.1428 11.0979 15.1411ZM10.4917 7.68473L10.4912 7.68486L9.37101 7.68548L8.59731 6.93766L9.95286 5.90517L11.3258 6.96593L10.4917 7.68473ZM1.64312 9.4575C1.57668 9.41748 1.52176 9.3609 1.48374 9.29329C1.44573 9.22569 1.42591 9.14937 1.42623 9.07181C1.42655 8.99424 1.447 8.91809 1.48558 8.8508C1.52416 8.78351 1.57954 8.72739 1.64631 8.68792L7.02654 4.60731C7.20381 4.48099 7.41705 4.41512 7.63468 4.41946C7.85021 4.41539 8.06125 4.4813 8.23615 4.60731L9.5989 5.63173L9.60059 5.63306L8.06091 6.80631C7.61781 6.67576 7.08239 6.74199 6.73677 7.00655L5.01554 8.31221C4.89604 8.39229 4.7981 8.50057 4.73038 8.62747C4.66265 8.75438 4.62723 8.89601 4.62723 9.03986C4.62723 9.18371 4.66265 9.32534 4.73038 9.45225C4.7981 9.57916 4.89604 9.68743 5.01554 9.76751L6.37766 10.7981L4.8972 11.918L1.64312 9.4575ZM5.25266 12.1867L6.73367 11.0668L8.21414 12.1867L6.73295 13.3074L5.25266 12.1867ZM8.56686 12.4544L9.60024 13.2353L9.60148 13.2362L8.12695 14.3612L7.08656 13.5749L8.56686 12.4544ZM11.8174 14.3352L10.3178 13.231L11.3436 12.4544L12.8242 13.5736L11.8174 14.3352ZM13.177 13.3061L11.6974 12.1867L13.1784 11.0662L14.6594 12.1856L13.177 13.3061ZM18.2676 9.4575L15.0147 11.9168L13.5337 10.7963L14.8946 9.76751C15.0139 9.68738 15.1117 9.57918 15.1794 9.45242C15.2471 9.32567 15.2826 9.18422 15.2829 9.04052C15.2831 8.89682 15.2481 8.75526 15.1808 8.62827C15.1135 8.50128 15.0161 8.39275 14.8971 8.31221L13.177 7.00655C12.9261 6.82269 12.6219 6.72606 12.3108 6.73142C12.146 6.73112 11.9822 6.75736 11.8257 6.80915L10.3066 5.63568L10.3109 5.63244L11.6739 4.60731C11.987 4.37152 12.5725 4.37152 12.8863 4.60731L18.2676 8.68792C18.3333 8.72834 18.3876 8.78493 18.4253 8.85229C18.4629 8.91965 18.4827 8.99554 18.4827 9.07271C18.4827 9.14988 18.4629 9.22577 18.4253 9.29313C18.3876 9.36049 18.3333 9.41708 18.2676 9.4575V9.4575Z" fill="url(#paint0_linear_4005_53279)"/>
</g>
<defs>
<linearGradient id="paint0_linear_4005_53279" x1="10.0062" y1="3.17118" x2="9.86413" y2="20.2166" gradientUnits="userSpaceOnUse">
<stop offset="0.12245" stop-color="#500F82"/>
<stop offset="0.81633" stop-color="#A973B6"/>
</linearGradient>
<clipPath id="clip0_4005_53279">
<rect width="20" height="20" fill="white"/>
</clipPath>
</defs>
</svg>
