<svg width="20" height="20" viewBox="0 0 20 20" fill="none" xmlns="http://www.w3.org/2000/svg">
<path d="M10.0015 19.9999L1.45996 15.0731V5.21127L10.0015 0.284424L18.5389 5.21127V15.0731L10.0015 19.9999Z" fill="#472D00"/>
<path d="M18.5389 5.21127L10.0015 10.1422L1.45996 5.21127L10.0015 0.284424L18.5389 5.21127Z" fill="url(#paint0_radial_2937_5017)"/>
<path d="M18.5389 5.2113V15.0731L10.0015 20V10.1422L18.5389 5.2113Z" fill="url(#paint1_radial_2937_5017)"/>
<path d="M10.0015 18.5779L2.69482 14.3601V5.92456L10.0015 1.70679L17.3042 5.92456V14.3601L10.0015 18.5779Z" fill="#472D00"/>
<path d="M17.3042 5.92456L10.0015 10.1423L2.69482 5.92456L10.0015 1.70679L17.3042 5.92456Z" fill="url(#paint2_radial_2937_5017)"/>
<path d="M17.3041 5.92444V14.36L10.0015 18.5777V10.1422L17.3041 5.92444Z" fill="url(#paint3_radial_2937_5017)"/>
<path fill-rule="evenodd" clip-rule="evenodd" d="M17.9726 5.41504V14.6249L9.99751 19.2257L2.02246 14.6249V5.41504L9.99751 0.814209L17.9726 5.41504ZM17.3042 5.7981L9.99751 1.58034L2.69486 5.7981V14.2336L9.99751 18.4514L17.3042 14.2336V5.7981Z" fill="url(#paint4_radial_2937_5017)"/>
<path d="M7.27487 1.96342H6.86736C6.81846 1.81671 6.7682 1.67001 6.71658 1.5233C6.6799 1.41735 6.65953 1.30732 6.6636 1.19729C6.6636 1.10356 6.69213 1.01391 6.7288 0.924258C6.92441 0.467843 7.52345 0.255936 7.98802 0.630848C8.09397 0.712351 8.17548 0.826455 8.21623 0.960935C8.29773 1.20137 8.38331 1.4418 8.46889 1.68631C8.48111 1.72299 8.47704 1.75966 8.46481 1.79634C8.41863 1.92946 8.37244 2.06394 8.32626 2.19978L8.17548 1.76374C8.15918 1.72706 8.12657 1.70261 8.08582 1.70261H7.71906L7.62533 1.42143C7.67423 1.3766 7.70684 1.3114 7.70684 1.23804C7.70684 1.09949 7.59681 0.989461 7.46233 0.989461C7.32785 0.989461 7.21782 1.09949 7.21782 1.23804C7.21782 1.36845 7.31562 1.4744 7.44603 1.48255L7.93097 2.917H7.67423L7.36045 2.02862C7.34822 1.99195 7.31155 1.96342 7.27487 1.96342V1.96342Z" fill="url(#paint5_radial_2937_5017)"/>
<path d="M8.01695 1.89014L8.22478 2.48511C8.18403 2.60193 8.14328 2.72011 8.10253 2.83964L7.78467 1.89014H8.01695Z" fill="url(#paint6_radial_2937_5017)"/>
<path d="M9.85443 5.75336C10.0365 6.29128 10.2198 6.83055 10.4046 7.37119C10.4331 7.45677 10.4535 7.54235 10.4494 7.63607C10.4453 7.90096 10.4413 8.16584 10.4494 8.43073C10.4698 9.02162 10.9221 9.53509 11.513 9.62882C11.5483 9.63425 11.5823 9.63833 11.6149 9.64104V10.6517C11.6149 11.6419 10.8121 12.4447 9.82591 12.4447H9.26354L8.52186 11.7031C8.50149 11.6827 8.47704 11.6745 8.45259 11.6745H8.05322L9.24724 10.4805H9.96446C10.2579 10.8201 10.444 11.2222 10.5228 11.6868C10.5431 11.7968 10.6083 11.862 10.7102 11.8905C10.7917 11.9109 10.914 11.8783 10.9547 11.8009C10.9792 11.756 10.9995 11.6949 10.9914 11.646C10.971 11.4993 10.9466 11.3485 10.8977 11.2059C10.5676 10.2279 9.91149 9.57584 8.92938 9.24983C8.91715 9.24575 8.90493 9.24168 8.88455 9.23353C9.00681 9.1398 9.12091 9.05422 9.23501 8.96457C9.34504 8.88307 9.45915 8.80156 9.56102 8.71191C10.2008 8.15769 10.1886 7.17151 9.54065 6.62951C9.51212 6.60506 9.50805 6.58876 9.52027 6.55616C9.61808 6.27498 9.71588 5.99787 9.81368 5.71668C9.81368 5.70853 9.81776 5.70038 9.82591 5.68408C9.83813 5.71261 9.84628 5.73298 9.85443 5.75336V5.75336Z" fill="url(#paint7_radial_2937_5017)"/>
<path d="M9.58571 4.92208C9.54088 5.05656 9.4879 5.19104 9.44308 5.32552C9.3575 5.56595 9.276 5.81046 9.19042 6.0509C9.15238 6.15685 9.11571 6.2628 9.08039 6.36876C9.07224 6.36876 9.06817 6.37283 9.06409 6.36876C9.05322 6.36876 9.04236 6.36604 9.03149 6.36061C8.97715 6.34702 8.92418 6.33616 8.87256 6.32801L9.71204 3.75659H9.98915C9.85603 4.14509 9.72155 4.53359 9.58571 4.92208V4.92208Z" fill="url(#paint8_radial_2937_5017)"/>
<path d="M17.2145 5.61877L17.5568 6.2382L13.1638 8.68328L12.8174 8.06386L17.2145 5.61877Z" fill="url(#paint9_radial_2937_5017)"/>
<path d="M9.48818 1.78821H9.72861L8.22488 6.38497C8.13251 6.41757 8.0415 6.46103 7.95185 6.51537C7.94641 6.51809 7.94098 6.52216 7.93555 6.52759L9.48818 1.78821Z" fill="url(#paint10_radial_2937_5017)"/>
<path d="M7.60958 4.13555C7.48732 3.77693 7.36507 3.41696 7.24282 3.05564C7.13958 2.75679 7.03634 2.45659 6.93311 2.15503H7.20614L7.51993 3.04341C7.53215 3.08009 7.56883 3.10861 7.60958 3.10861H7.99672L8.00079 3.12899C7.89484 3.43598 7.78889 3.74162 7.68293 4.04589C7.66663 4.09072 7.65033 4.13555 7.63403 4.18852C7.6218 4.16407 7.61773 4.14777 7.60958 4.13555V4.13555Z" fill="url(#paint11_radial_2937_5017)"/>
<path d="M7.12827 7.12665C7.12555 7.12393 7.12283 7.12257 7.12012 7.12257C7.12283 7.11171 7.12555 7.10084 7.12827 7.08997C7.36191 6.42165 7.59555 5.75197 7.82919 5.08093C8.07642 4.3637 8.325 3.64784 8.57494 2.93333C8.79907 2.28538 9.02321 1.63743 9.25142 0.989487C9.38589 0.606424 9.76081 0.382291 10.1439 0.447493C10.6451 0.537147 10.9304 1.03431 10.7592 1.51926C10.6451 1.8507 10.531 2.18214 10.4169 2.51359C10.2947 2.86405 10.1738 3.21451 10.0542 3.56498H9.64263C9.60188 3.56498 9.5652 3.5935 9.55298 3.63018L8.67682 6.31162C8.59803 6.3089 8.51925 6.31434 8.44046 6.32792L10.0298 1.48258C10.1561 1.47035 10.258 1.3644 10.258 1.23807C10.258 1.09952 10.1479 0.989487 10.0094 0.989487C9.87491 0.989487 9.76488 1.09952 9.76488 1.23807C9.76488 1.31142 9.79748 1.37663 9.85046 1.42145L9.79341 1.60076H9.42257C9.38182 1.60076 9.34514 1.62521 9.33292 1.66596L7.67841 6.71098C7.59691 6.77211 7.51948 6.83324 7.43798 6.89436C7.33474 6.97043 7.2315 7.04786 7.12827 7.12665V7.12665Z" fill="url(#paint12_radial_2937_5017)"/>
<path d="M7.44241 8.90341H6.01611C6.04871 8.83278 6.08675 8.76486 6.13022 8.69966C6.14923 8.66977 6.16961 8.63853 6.19134 8.60593H7.47501C7.49539 8.60593 7.51169 8.60185 7.52799 8.58963L8.52232 7.87648C8.56308 7.905 8.61198 7.92538 8.66495 7.92538C8.79943 7.92538 8.90946 7.81535 8.90946 7.6768C8.90946 7.54232 8.79943 7.43229 8.66495 7.43229C8.53047 7.43229 8.42045 7.54232 8.42045 7.6768C8.42045 7.69038 8.4218 7.70396 8.42452 7.71755L7.44241 8.41847H6.33805C6.36522 8.38315 6.39374 8.34784 6.42363 8.31252C6.59478 8.10469 6.81892 7.96206 7.03082 7.80313C7.39351 7.52602 7.7562 7.24891 8.11889 6.97587C8.64865 6.57651 9.40255 6.84954 9.53703 7.50157C9.61039 7.8561 9.49628 8.15766 9.21102 8.3818C9.08062 8.48775 8.94614 8.58963 8.80758 8.69151H7.7725C7.75212 8.69151 7.73175 8.69966 7.71545 8.70781L7.44241 8.90341Z" fill="url(#paint13_radial_2937_5017)"/>
<path d="M13.001 6.51133C13.001 6.457 13.001 6.40266 13.001 6.34833C13.001 6.28856 13.0064 6.23015 13.0173 6.1731L13.7182 6.87402V8.41035H13.4696V7.01665C13.4696 6.9922 13.4574 6.96775 13.4411 6.95145L13.001 6.51133Z" fill="url(#paint14_radial_2937_5017)"/>
<path d="M12.5119 9.37609C12.52 9.37066 12.5282 9.36522 12.5363 9.35979C12.5363 9.35571 12.5404 9.35979 12.5486 9.35571C12.5621 9.42363 12.5812 9.49019 12.6056 9.55539V10.6516C12.6056 11.6419 11.8028 12.4447 10.8166 12.4447H10.6699C11.3382 12.1268 11.8028 11.4422 11.8028 10.6516V9.64505C12.0582 9.63146 12.2945 9.54181 12.5119 9.37609Z" fill="url(#paint15_radial_2937_5017)"/>
<path d="M13.3676 6.25465L13.0864 5.97754C13.225 5.70043 13.5184 5.5252 13.824 5.53335C13.9015 5.53335 13.9789 5.54965 14.0522 5.57411L13.3676 6.25465Z" fill="url(#paint16_radial_2937_5017)"/>
<path d="M10.9263 7.91723L11.3664 7.47712C11.3827 7.46082 11.3949 7.43637 11.3949 7.41191V4.86088C11.4194 4.85001 11.4465 4.83914 11.4764 4.82828C11.6476 4.7753 11.8228 4.77937 11.9899 4.8405C12.324 4.96276 12.5237 5.25617 12.5237 5.61885C12.5237 5.62157 12.5237 5.62565 12.5237 5.63108L11.6435 6.51131C11.6272 6.52761 11.615 6.55206 11.615 6.57651V8.14544C11.5253 8.18212 11.4642 8.26769 11.4642 8.36957C11.4642 8.50813 11.5742 8.61816 11.7087 8.61816C11.8473 8.61816 11.9573 8.50813 11.9573 8.36957C11.9573 8.26769 11.8921 8.18212 11.8024 8.14544V7.72163L12.2914 7.23668C12.3077 7.22038 12.32 7.19593 12.32 7.17148V6.86177L12.5278 6.65394C12.5278 7.00983 12.5278 7.36709 12.5278 7.7257C12.5278 7.93761 12.5278 8.15359 12.5237 8.36957C12.5237 8.47553 12.5115 8.57333 12.4667 8.67113C12.3852 8.84636 12.2711 8.98492 12.104 9.07457C11.5661 9.35983 10.9263 8.97677 10.9263 8.36957C10.9263 8.22015 10.9263 8.06937 10.9263 7.91723V7.91723Z" fill="url(#paint17_radial_2937_5017)"/>
<path d="M10.9263 6.98405C10.9263 6.52356 10.9263 6.05899 10.9263 5.5985C10.9263 5.42734 10.9752 5.27249 11.073 5.13393C11.111 5.07688 11.1545 5.02662 11.2034 4.98315V7.37119L10.9263 7.65237C10.9263 7.4296 10.9263 7.20682 10.9263 6.98405V6.98405Z" fill="url(#paint18_radial_2937_5017)"/>
<path d="M11.8027 6.61717L12.524 5.89587C12.5268 6.05888 12.5268 6.22324 12.524 6.38897L12.1573 6.75573C12.141 6.7761 12.1287 6.80056 12.1287 6.82501V7.13064L11.8027 7.45665V6.61717Z" fill="url(#paint19_radial_2937_5017)"/>
<path d="M8.18799 13.0397H9.85472V13.4472H8.69738L8.18799 13.0397Z" fill="url(#paint20_radial_2937_5017)"/>
<path d="M12.4137 17.18L12.2751 17.2819L10.6206 15.6437V14.7716L11.1178 15.2688C11.1341 15.2851 11.1585 15.2973 11.183 15.2973H12.4137C12.4137 15.4902 12.4137 15.6831 12.4137 15.876C12.4137 16.1246 12.4137 16.9233 12.4137 17.18Z" fill="url(#paint21_radial_2937_5017)"/>
<path d="M14.2638 10.3296C14.2638 10.6516 14.276 10.9776 14.2597 11.2995C14.2271 12.0493 13.9418 12.6932 13.4121 13.2271C12.9394 13.7038 12.3607 13.981 11.6924 14.0665C11.5783 14.0828 11.4601 14.0828 11.3419 14.0869C11.2441 14.0951 11.1667 14.1399 11.13 14.2295C11.0892 14.3233 11.1055 14.4129 11.1707 14.4863C11.2197 14.5433 11.2808 14.5637 11.3541 14.5637C11.6964 14.5637 12.032 14.5121 12.3607 14.4088C12.377 14.4048 12.3933 14.4007 12.4137 14.3966C12.4137 14.417 12.4137 14.4333 12.4137 14.4455C12.4137 14.6656 12.4137 14.8856 12.4137 15.1057H11.2237L10.6206 14.5066V13.0396H11.9573C13.0453 13.0396 13.9337 12.1512 13.9337 11.0632V10.3785C14.0424 10.3677 14.151 10.3432 14.2597 10.3052C14.2638 10.3174 14.2638 10.3215 14.2638 10.3296V10.3296Z" fill="url(#paint22_radial_2937_5017)"/>
<path d="M10.4581 15.7496L12.0801 17.3756L10.0425 18.5778V13.0397H10.4337V15.6844C10.4337 15.7089 10.4418 15.7333 10.4581 15.7496V15.7496Z" fill="url(#paint23_radial_2937_5017)"/>
<path d="M8.66485 13.6346H9.8548V18.4963L9.50433 18.2762V15.334C9.50433 15.281 9.46358 15.2402 9.4106 15.2402H8.4611L7.62977 14.4089C7.68954 14.4252 7.74659 14.4415 7.80092 14.4578C8.07803 14.5285 8.35922 14.5638 8.64448 14.5638C8.76673 14.5638 8.86046 14.4863 8.88084 14.3682C8.90529 14.2581 8.84416 14.1481 8.73821 14.1074C8.70561 14.0951 8.66485 14.0911 8.62818 14.087C8.00061 14.0788 7.43009 13.8955 6.92477 13.5205C6.72916 13.3766 6.55665 13.2163 6.40723 13.0397H7.88243L8.6078 13.6143C8.6241 13.6306 8.64448 13.6346 8.66485 13.6346V13.6346Z" fill="url(#paint24_radial_2937_5017)"/>
<path d="M14.6066 8.23503C14.6066 8.38989 14.6025 8.54882 14.6025 8.70368C14.5998 8.83951 14.5998 8.97535 14.6025 9.11119C14.6066 9.535 14.2765 9.87732 13.8405 9.90992C13.4452 9.93844 13.0662 9.62873 13.0132 9.22529C12.9969 9.10711 13.0051 8.98486 13.001 8.86261C13.001 8.65477 13.001 8.44694 13.001 8.24318C13.001 7.91717 13.001 7.59116 13.001 7.26515C13.001 7.10215 13.001 6.93914 13.001 6.77613L13.2781 7.05732V8.50399C13.2781 8.55697 13.3229 8.59772 13.3718 8.59772H13.7182V8.87891C13.6245 8.91558 13.5593 9.00524 13.5593 9.11119C13.5593 9.24567 13.6693 9.3557 13.8038 9.3557C13.9383 9.3557 14.0483 9.24567 14.0483 9.11119C14.0483 9.01339 13.9912 8.92781 13.9057 8.88706V6.83319C13.9057 6.80874 13.8975 6.78428 13.8812 6.76798L13.5022 6.389L14.2317 5.65955C14.4477 5.80218 14.5984 6.04261 14.6025 6.31157C14.6052 6.95272 14.6066 7.59388 14.6066 8.23503V8.23503Z" fill="url(#paint25_radial_2937_5017)"/>
<path d="M6.8311 12.4447H6.02015C5.99026 12.3768 5.96174 12.3088 5.93457 12.2409H7.44645C7.47497 12.2409 7.49535 12.2287 7.51572 12.2124L7.86619 11.8619H8.41633L8.995 12.4447H6.8311Z" fill="url(#paint26_radial_2937_5017)"/>
<path d="M8.42429 15.4277H9.31674V18.1865L9.12521 18.0684V15.7129C9.12521 15.66 9.08039 15.6192 9.03148 15.6192H8.26943L7.57666 14.9224C7.57666 14.8246 7.57666 14.7254 7.57666 14.6249L8.35501 15.4032C8.37539 15.4195 8.39576 15.4277 8.42429 15.4277Z" fill="url(#paint27_radial_2937_5017)"/>
<path d="M7.4099 12.0535H5.86949C5.82331 11.9122 5.78799 11.7655 5.76354 11.6134C5.75539 11.5509 5.7486 11.487 5.74316 11.4218C6.66958 11.4246 7.13686 11.4246 7.14501 11.4218H7.44657C7.4751 11.4218 7.49547 11.4137 7.51585 11.3933L9.09293 9.82031C9.28038 9.90453 9.45833 10.0146 9.62677 10.1504C9.68111 10.1966 9.73408 10.2441 9.7857 10.293H9.20703C9.18258 10.293 9.15813 10.3012 9.14183 10.3175L7.76036 11.703C7.76036 11.703 7.64354 11.8198 7.4099 12.0535V12.0535Z" fill="url(#paint28_radial_2937_5017)"/>
<path d="M7.01838 11.2343H5.73064C5.73064 11.2126 5.73064 11.1895 5.73064 11.1651C5.7252 10.782 5.7252 10.3989 5.73064 10.0159C5.73064 9.98599 5.732 9.95747 5.73471 9.9303H7.01838V11.2343Z" fill="url(#paint29_radial_2937_5017)"/>
<path d="M7.11207 9.74296H5.75098C5.7795 9.51883 5.83655 9.30284 5.92621 9.09094H7.47476C7.49514 9.09094 7.51144 9.08686 7.52774 9.07464L7.80077 8.87903H8.55467C8.53837 8.89261 8.52071 8.9062 8.5017 8.91978C8.20285 9.14527 7.90537 9.37212 7.60924 9.60033C7.51551 9.66961 7.48699 9.77963 7.52774 9.88559C7.56849 9.98339 7.66629 10.0445 7.7804 10.0282C7.82115 10.0201 7.86597 9.99969 7.89858 9.97524C8.04528 9.86929 8.18927 9.76062 8.33054 9.64923C8.36314 9.62478 8.39574 9.61663 8.43649 9.6207C8.59678 9.64787 8.75164 9.68862 8.90106 9.74296L7.40956 11.2345H7.2058V9.83669C7.2058 9.78371 7.16505 9.74296 7.11207 9.74296V9.74296Z" fill="url(#paint30_radial_2937_5017)"/>
<path d="M8.23293 15.8066H8.93385V17.9665L7.57683 17.18C7.57683 17.0495 7.57683 16.3771 7.57683 16.2549C7.57411 15.9859 7.57275 15.717 7.57275 15.448C7.57547 15.3638 7.57683 15.2782 7.57683 15.1913L8.16365 15.7781C8.18402 15.7985 8.20848 15.8066 8.23293 15.8066V15.8066Z" fill="url(#paint31_radial_2937_5017)"/>
<path d="M11.9577 12.8522H6.26063C6.21172 12.7816 6.16554 12.7082 6.12207 12.6322H6.83114H9.82637H10.8166C11.9088 12.6322 12.7931 11.7438 12.7931 10.6517V9.89368C12.895 10.0241 13.0254 10.1382 13.1843 10.2238C13.3677 10.3256 13.5551 10.3786 13.7467 10.3868V11.0632C13.7467 12.0494 12.9439 12.8522 11.9577 12.8522V12.8522Z" fill="url(#paint32_radial_2937_5017)"/>
<path fill-rule="evenodd" clip-rule="evenodd" d="M15.0751 9.21311C15.0629 9.50244 14.961 9.7551 14.7736 9.98331C14.7573 9.99961 14.745 10.0363 14.745 10.0567C14.7423 10.4424 14.741 10.8269 14.741 11.2099C14.741 11.5033 14.7084 11.7967 14.6269 12.082C14.366 13.0315 13.7955 13.7365 12.9316 14.2133C12.9071 14.2255 12.8908 14.25 12.8908 14.2785C12.8908 14.7675 12.8868 15.2565 12.8868 15.7496C12.8868 15.9126 12.8908 16.0756 12.8908 16.2386C12.8908 16.259 12.8908 16.2794 12.8908 16.2998C12.8908 16.422 12.8949 16.5606 12.8908 16.691H12.8949V17.3349C12.8949 17.4354 11.9074 18.0263 9.93229 19.1075C8.04686 18.1186 7.10415 17.5739 7.10415 17.4734V16.8132C7.10415 16.8051 7.10415 16.7969 7.10415 16.7888C7.10415 16.6339 7.10822 16.4465 7.10822 16.2916C7.10822 16.1612 7.10415 16.0308 7.10415 15.9045C7.10143 15.7714 7.10007 15.6396 7.10007 15.5092C7.10007 15.099 7.10143 14.6887 7.10415 14.2785C7.10415 14.2418 7.09192 14.2255 7.05932 14.2092C6.64637 13.9919 6.29319 13.6998 5.99978 13.3331C5.6208 12.8604 5.29886 11.9801 5.25811 11.3729C5.25539 11.3322 5.25403 11.2901 5.25403 11.2466C5.24996 10.8758 5.24996 10.509 5.25403 10.1382C5.25403 9.9018 5.30293 9.52282 5.36406 9.29461C5.49854 8.81782 5.73082 8.394 6.07721 8.03132C6.18316 7.92129 6.29727 7.81941 6.4073 7.71345C6.42088 7.70259 6.43039 7.68764 6.43582 7.66863C6.48473 7.53007 6.53363 7.39016 6.58253 7.24889C6.84062 6.50721 7.09871 5.76554 7.35681 5.02386C7.36903 4.98719 7.36903 4.94643 7.35681 4.90976C7.23863 4.56745 7.12452 4.22106 7.00634 3.87875C6.81074 3.30823 6.61649 2.73907 6.4236 2.17126C6.35432 1.96751 6.27689 1.76375 6.22392 1.55999C6.15871 1.31956 6.18316 1.0832 6.26467 0.850919C6.46842 0.264099 7.08785 -0.098588 7.69504 0.0236661C8.19221 0.121469 8.52229 0.42303 8.68938 0.903896C8.70568 0.947364 8.72062 0.990833 8.7342 1.0343C8.76273 0.977249 8.7831 0.920197 8.80348 0.86722C8.99909 0.313001 9.51663 -0.0333858 10.0953 0.00329045C10.9266 0.0562673 11.4931 0.891671 11.2241 1.68225C10.9715 2.41577 10.1524 4.79973 10.1116 4.88938C10.0831 4.95458 10.0831 5.00349 10.1075 5.06869C10.2135 5.3621 10.3113 5.66366 10.4132 5.95707C10.4213 5.98152 10.4295 6.00597 10.4417 6.02635C10.4539 6.0019 10.4458 5.9856 10.4498 5.96114C10.458 5.88779 10.4621 5.81444 10.458 5.74109C10.4172 5.36617 10.5436 5.05646 10.7718 4.7875C10.9063 4.62857 11.0774 4.51447 11.2812 4.44112C11.398 4.39765 11.5162 4.37184 11.6357 4.36369C12.1777 4.32294 12.6789 4.62857 12.8949 5.12574C12.9316 5.21132 12.956 5.2969 12.9846 5.39062C12.9873 5.39062 12.9886 5.39062 12.9886 5.39062C13.2956 5.14612 13.6407 5.05511 14.0237 5.11759C14.6146 5.21539 15.067 5.74109 15.0792 6.34013C15.0792 6.47869 15.0833 9.0338 15.0751 9.21311V9.21311ZM13.0865 6.0182L13.3676 6.29531L14.0523 5.61476C13.9789 5.59031 13.9015 5.57401 13.8241 5.57401C13.5184 5.56586 13.225 5.74109 13.0865 6.0182V6.0182ZM14.6024 8.74446C14.6024 8.58961 14.6065 8.43068 14.6065 8.27582C14.6065 7.63467 14.6051 6.99351 14.6024 6.35236C14.5983 6.0834 14.4475 5.84296 14.2316 5.70034L13.5021 6.42979L13.8811 6.80877C13.8974 6.82507 13.9056 6.84952 13.9056 6.87398V8.92785C13.9911 8.9686 14.0482 9.05418 14.0482 9.15198C14.0482 9.28646 13.9382 9.39649 13.8037 9.39649C13.6692 9.39649 13.5592 9.28646 13.5592 9.15198C13.5592 9.04602 13.6244 8.95637 13.7181 8.9197V8.63851H13.3717C13.3228 8.63851 13.278 8.59776 13.278 8.54478V7.09811L13.0009 6.81692C13.0009 6.97993 13.0009 7.14293 13.0009 7.30594C13.0009 7.63195 13.0009 7.95796 13.0009 8.28397C13.0009 8.48773 13.0009 8.69556 13.0009 8.90339C13.0049 9.02565 12.9968 9.1479 13.0131 9.26608C13.0661 9.66952 13.4451 9.97923 13.8404 9.95071C14.2764 9.9181 14.6065 9.57579 14.6024 9.15198C14.5997 9.01614 14.5997 8.8803 14.6024 8.74446ZM12.5363 9.40056C12.5282 9.406 12.52 9.41143 12.5119 9.41686C12.2945 9.58258 12.0582 9.67224 11.8028 9.68582V10.6924C11.8028 11.483 11.3382 12.1676 10.6699 12.4854H10.8166C11.8028 12.4854 12.6056 11.6826 12.6056 10.6924V9.59617C12.5811 9.53097 12.5621 9.46441 12.5485 9.39649C12.5404 9.40056 12.5363 9.39649 12.5363 9.40056V9.40056ZM10.9266 7.95796C10.9266 8.1101 10.9266 8.26088 10.9266 8.4103C10.9266 9.0175 11.5664 9.40056 12.1043 9.1153C12.2714 9.02565 12.3855 8.88709 12.467 8.71186C12.5119 8.61406 12.5241 8.51626 12.5241 8.4103C12.5282 8.19432 12.5282 7.97834 12.5282 7.76643C12.5282 7.40782 12.5282 7.05056 12.5282 6.69467L12.3203 6.9025V7.21221C12.3203 7.23666 12.3081 7.26111 12.2918 7.27741L11.8028 7.76236V8.18617C11.8924 8.22285 11.9576 8.30842 11.9576 8.4103C11.9576 8.54886 11.8476 8.65889 11.7091 8.65889C11.5746 8.65889 11.4645 8.54886 11.4645 8.4103C11.4645 8.30842 11.5257 8.22285 11.6153 8.18617V6.61724C11.6153 6.59279 11.6276 6.56834 11.6439 6.55204L12.5241 5.67181C12.5241 5.66638 12.5241 5.6623 12.5241 5.65958C12.5241 5.2969 12.3244 5.00349 11.9902 4.88123C11.8232 4.82011 11.6479 4.81603 11.4768 4.86901C11.4469 4.87987 11.4197 4.89074 11.3953 4.90161V7.45264C11.3953 7.4771 11.383 7.50155 11.3667 7.51785L10.9266 7.95796ZM12.5241 5.93669L11.8028 6.65799V7.49747L12.1288 7.17146V6.86583C12.1288 6.84137 12.141 6.81692 12.1573 6.79655L12.5282 6.42979C12.5282 6.26406 12.5268 6.0997 12.5241 5.93669ZM10.9266 5.63921C10.9266 6.0997 10.9266 6.56426 10.9266 7.02476C10.9266 7.24753 10.9266 7.4703 10.9266 7.69308L11.2037 7.41189V5.02386C11.1548 5.06733 11.1114 5.11759 11.0733 5.17464C10.9755 5.3132 10.9266 5.46805 10.9266 5.63921V5.63921ZM9.85487 5.79406C9.84672 5.77369 9.83856 5.75331 9.82634 5.72479C9.81819 5.74109 9.81411 5.74924 9.81411 5.75739C9.71631 6.03857 9.61851 6.31568 9.5207 6.59687C9.50848 6.62947 9.51255 6.64577 9.54108 6.67022C10.189 7.21221 10.2013 8.1984 9.56146 8.75261C9.45958 8.84227 9.34547 8.92377 9.23544 9.00527C9.12134 9.09493 9.00724 9.1805 8.88498 9.27423C8.90536 9.28238 8.91758 9.28646 8.92981 9.29053C9.91192 9.61654 10.568 10.2686 10.8981 11.2466C10.947 11.3892 10.9715 11.54 10.9918 11.6867C11 11.7356 10.9796 11.7967 10.9552 11.8416C10.9144 11.919 10.7921 11.9516 10.7106 11.9312C10.6088 11.9027 10.5436 11.8375 10.5232 11.7275C10.4444 11.2629 10.2583 10.8608 9.96489 10.5212H9.24767L8.05365 11.7152H8.45302C8.47747 11.7152 8.50192 11.7234 8.52229 11.7438L9.26397 12.4854H9.82634C10.8125 12.4854 11.6153 11.6826 11.6153 10.6924V9.68175C11.5827 9.67903 11.5488 9.67495 11.5134 9.66952C10.9226 9.57579 10.4702 9.06233 10.4498 8.47143C10.4417 8.20655 10.4458 7.94166 10.4498 7.67678C10.4539 7.58305 10.4335 7.49747 10.405 7.41189C10.2203 6.87126 10.0369 6.33198 9.85487 5.79406V5.79406ZM7.12045 7.16331C7.12316 7.16331 7.12588 7.16467 7.1286 7.16739C7.23183 7.0886 7.33507 7.01117 7.43831 6.9351C7.51981 6.87398 7.59724 6.81285 7.67874 6.75172L9.33325 1.7067C9.34547 1.66595 9.38215 1.6415 9.4229 1.6415H9.79374L9.85079 1.46219C9.79781 1.41736 9.76521 1.35216 9.76521 1.27881C9.76521 1.14025 9.87524 1.03023 10.0097 1.03023C10.1483 1.03023 10.2583 1.14025 10.2583 1.27881C10.2583 1.40514 10.1564 1.51109 10.0301 1.52332L8.44079 6.36866C8.51958 6.35507 8.59836 6.34964 8.67715 6.35236L9.5533 3.67092C9.56553 3.63424 9.60221 3.60571 9.64296 3.60571H10.0545C10.1741 3.25525 10.295 2.90479 10.4172 2.55433C10.5313 2.22288 10.6454 1.89144 10.7595 1.55999C10.9307 1.07505 10.6454 0.577885 10.1442 0.488232C9.76114 0.42303 9.38622 0.647162 9.25174 1.03023C9.02354 1.67817 8.7994 2.32612 8.57527 2.97407C8.32533 3.68857 8.07675 4.40444 7.82952 5.12167C7.59588 5.7927 7.36224 6.46239 7.1286 7.13071C7.12588 7.14158 7.12316 7.15244 7.12045 7.16331V7.16331ZM6.86779 2.00418H7.2753C7.31198 2.00418 7.34865 2.03271 7.36088 2.06939L7.67467 2.95777H7.9314L7.44646 1.52332C7.31605 1.51517 7.21825 1.40921 7.21825 1.27881C7.21825 1.14025 7.32828 1.03023 7.46276 1.03023C7.59724 1.03023 7.70727 1.14025 7.70727 1.27881C7.70727 1.35216 7.67467 1.41736 7.62576 1.46219L7.71949 1.74337H8.08625C8.12701 1.74337 8.15961 1.76783 8.17591 1.8045L8.32669 2.24054C8.37287 2.1047 8.41906 1.97022 8.46524 1.8371C8.47747 1.80043 8.48154 1.76375 8.46932 1.72707C8.38374 1.48257 8.29816 1.24213 8.21666 1.0017C8.17591 0.86722 8.09441 0.753116 7.98845 0.671613C7.52389 0.296701 6.92484 0.508608 6.72923 0.965023C6.69256 1.05468 6.66403 1.14433 6.66403 1.23806C6.65996 1.34809 6.68033 1.45812 6.71701 1.56407C6.76863 1.71077 6.81889 1.85748 6.86779 2.00418ZM8.01698 1.93083H7.78469L8.10256 2.88034C8.14331 2.7608 8.18406 2.64262 8.22481 2.5258L8.01698 1.93083ZM7.61354 4.17623C7.61761 4.18846 7.62169 4.20068 7.63391 4.22921C7.65429 4.17216 7.66652 4.13141 7.68282 4.08658C7.78877 3.77959 7.89472 3.47395 8.00068 3.16967L7.9966 3.14522H7.60946C7.56871 3.14522 7.53204 3.12077 7.51981 3.0841L7.20603 2.19164H6.93299C7.03623 2.4932 7.13946 2.79476 7.2427 3.09632C7.36496 3.45493 7.48857 3.8149 7.61354 4.17623V4.17623ZM9.58998 4.96274C9.7231 4.57152 9.85622 4.18167 9.98934 3.79317H9.71224L8.87276 6.36866C8.92438 6.37681 8.97735 6.38768 9.03169 6.40126C9.04255 6.40398 9.05342 6.40669 9.06429 6.40941C9.06836 6.40941 9.07244 6.40941 9.08059 6.40941C9.11862 6.30346 9.1553 6.1975 9.19062 6.09155C9.2762 5.84704 9.3577 5.60661 9.44328 5.3621C9.4881 5.22762 9.54108 5.09721 9.58998 4.96274ZM9.73261 1.82895H9.49218L7.93547 6.56427C7.94091 6.56155 7.94634 6.55883 7.95177 6.55611C8.04143 6.49906 8.13244 6.45424 8.22481 6.42164L9.73261 1.82895ZM6.01608 8.94822H7.44646L7.71949 8.75261C7.73579 8.74039 7.75209 8.73631 7.77247 8.73631H8.81163C8.94611 8.63444 9.08059 8.52848 9.21507 8.4266C9.49625 8.1984 9.61036 7.89684 9.537 7.5423C9.4066 6.89435 8.64862 6.61724 8.12293 7.01661C7.76024 7.29371 7.39348 7.56675 7.03079 7.84386C6.82296 8.00686 6.59475 8.14949 6.4236 8.35733C6.39643 8.38993 6.3679 8.42389 6.33802 8.4592H7.44646L8.42449 7.76236C8.42177 7.74877 8.42042 7.73519 8.42042 7.7216C8.42042 7.58305 8.53044 7.47302 8.669 7.47302C8.80348 7.47302 8.91351 7.58305 8.91351 7.7216C8.91351 7.85608 8.80348 7.96611 8.669 7.96611C8.61602 7.96611 8.56712 7.94981 8.52637 7.92129L7.53204 8.63036C7.51574 8.64259 7.49536 8.65074 7.47498 8.65074H6.19539C6.17366 8.68062 6.15192 8.71186 6.13019 8.74446C6.08944 8.80967 6.0514 8.87759 6.01608 8.94822V8.94822ZM5.7512 9.78363H7.11637C7.16935 9.78363 7.2101 9.82438 7.2101 9.87735V11.2751H7.40978L8.90536 9.78363C8.75594 9.72929 8.59972 9.6899 8.43672 9.66545C8.39597 9.6573 8.36744 9.66545 8.33484 9.6899C8.19085 9.80128 8.0455 9.91131 7.8988 10.02C7.8662 10.0444 7.82137 10.0648 7.78062 10.0689C7.67059 10.0852 7.56871 10.0241 7.52796 9.92626C7.48721 9.8203 7.51574 9.71435 7.60946 9.641C7.90831 9.4155 8.20579 9.19001 8.50192 8.96452C8.52094 8.95094 8.53995 8.93735 8.55897 8.92377H7.80507L7.53204 9.11938C7.51574 9.12753 7.49536 9.13568 7.47498 9.13568H5.92643C5.83678 9.34351 5.77973 9.55949 5.7512 9.78363V9.78363ZM5.7349 11.2751H7.02264V9.97108H5.7349C5.7349 10.001 5.7349 10.0295 5.7349 10.0567C5.72947 10.4397 5.72811 10.8241 5.73082 11.2099C5.73082 11.2317 5.73218 11.2534 5.7349 11.2751V11.2751ZM5.86938 12.0942H7.40978C7.64342 11.8606 7.76024 11.7438 7.76024 11.7438L9.14172 10.3623C9.16209 10.346 9.18654 10.3338 9.21099 10.3338H9.78966C9.73804 10.2849 9.68371 10.2373 9.62666 10.1911C9.46094 10.0553 9.28299 9.94527 9.09281 9.86105L7.51574 11.4381C7.49943 11.4544 7.47498 11.4667 7.45053 11.4667H7.1449C7.13946 11.4694 6.67218 11.4694 5.74305 11.4667C5.74848 11.5291 5.75663 11.5916 5.7675 11.6541C5.79195 11.8063 5.82591 11.953 5.86938 12.0942V12.0942ZM6.02423 12.4854H8.99909L8.41634 11.9068H7.8662L7.51574 12.2572C7.49943 12.2735 7.47498 12.2817 7.45053 12.2817H5.93458C5.96175 12.3523 5.99163 12.4202 6.02423 12.4854V12.4854ZM6.26467 12.893H11.9576C12.9438 12.893 13.7466 12.0902 13.7466 11.104V10.4275C13.5551 10.4193 13.3676 10.3704 13.1843 10.2686C13.0294 10.1789 12.899 10.0689 12.7971 9.93848V10.6965C12.7971 11.7886 11.9087 12.6729 10.8166 12.6729H6.12204C6.16551 12.749 6.21305 12.8223 6.26467 12.893V12.893ZM9.85487 13.6795H8.669C8.64455 13.6795 8.62417 13.6713 8.60787 13.6591L7.88657 13.0845H6.41137C6.55808 13.2584 6.73059 13.4186 6.92892 13.5654C7.43016 13.9403 8.00068 14.1236 8.62825 14.1318C8.66492 14.1318 8.70568 14.1359 8.73828 14.1481C8.84831 14.1889 8.90536 14.303 8.88498 14.413C8.86053 14.5271 8.7668 14.6086 8.64455 14.6086C8.35929 14.6086 8.07946 14.5719 7.80507 14.4986C7.74802 14.485 7.69097 14.47 7.63391 14.4537L8.46524 15.2851H9.41067C9.46365 15.2851 9.5044 15.3258 9.5044 15.3788V18.321L9.85487 18.5411V13.6795ZM9.31695 15.4725H8.42449C8.40004 15.4725 8.37559 15.4644 8.35929 15.444L7.58094 14.6656C7.58094 14.7662 7.57958 14.8667 7.57686 14.9672L8.27371 15.66H9.03169C9.08466 15.66 9.12542 15.7048 9.12542 15.7578V18.1132L9.31695 18.2273V15.4725ZM8.93796 15.8515H8.23296C8.20851 15.8515 8.18406 15.8434 8.16776 15.823L7.57686 15.2362C7.57686 15.3231 7.57686 15.4087 7.57686 15.4929C7.57686 15.7619 7.57686 16.0308 7.57686 16.2998C7.57686 16.422 7.58094 17.0944 7.58094 17.2248L8.93796 18.0113V15.8515ZM9.85487 13.0845H8.18813L8.7016 13.4879H9.85487V13.0845ZM12.084 17.4204L10.4621 15.7945C10.4417 15.7782 10.4335 15.7537 10.4335 15.7293V13.0845H10.0423V18.6226L12.084 17.4204ZM12.4222 17.2248C12.4181 16.9681 12.4222 16.1694 12.4222 15.9208C12.4222 15.7279 12.4222 15.535 12.4222 15.3421H11.1874C11.163 15.3421 11.1385 15.3299 11.1222 15.3136L10.6251 14.8164V15.6885L12.2836 17.3308L12.4222 17.2248ZM14.2723 10.3745C14.2723 10.3664 14.2682 10.3582 14.2682 10.346C14.1569 10.384 14.0482 10.4098 13.9422 10.4234V11.108C13.9422 12.1961 13.0538 13.0845 11.9617 13.0845H10.6251V14.5515L11.2282 15.1506H12.4222C12.4222 14.9305 12.4222 14.7105 12.4222 14.4904C12.4222 14.4741 12.4222 14.4578 12.4222 14.4374C12.3978 14.4456 12.3815 14.4497 12.3652 14.4537C12.0391 14.557 11.7036 14.6086 11.3586 14.6086C11.2893 14.6086 11.2241 14.5841 11.1793 14.5312C11.11 14.4578 11.0937 14.3682 11.1345 14.2744C11.1752 14.1848 11.2486 14.1359 11.3464 14.1318C11.4645 14.1277 11.5827 14.1277 11.7009 14.1114C12.3692 14.0258 12.9438 13.7487 13.4206 13.2719C13.9463 12.7381 14.2316 12.0942 14.2682 11.3444C14.2805 11.0225 14.2723 10.6965 14.2723 10.3745V10.3745ZM13.0049 6.39311C13.0049 6.44744 13.0049 6.50178 13.0049 6.55611L13.4451 6.99215C13.4654 7.01253 13.4736 7.03698 13.4736 7.06143V8.45513H13.7222V6.9188L13.0253 6.21788C13.0117 6.27493 13.0049 6.33334 13.0049 6.39311Z" fill="url(#paint33_radial_2937_5017)"/>
<path d="M6.41113 7.74204L6.09734 8.30441L2.0874 6.07938L2.40119 5.51294L6.41113 7.74204Z" fill="url(#paint34_radial_2937_5017)"/>
<defs>
<radialGradient id="paint0_radial_2937_5017" cx="0" cy="0" r="1" gradientUnits="userSpaceOnUse" gradientTransform="translate(9.66322 10.4682) scale(18.8557)">
<stop offset="0.1" stop-color="white"/>
<stop offset="0.3" stop-color="#FFC967"/>
<stop offset="1" stop-color="#392613"/>
</radialGradient>
<radialGradient id="paint1_radial_2937_5017" cx="0" cy="0" r="1" gradientUnits="userSpaceOnUse" gradientTransform="translate(5.73072 35.0087) scale(31.2278)">
<stop offset="0.1" stop-color="white"/>
<stop offset="0.3" stop-color="#FFC967"/>
<stop offset="1" stop-color="#392613"/>
</radialGradient>
<radialGradient id="paint2_radial_2937_5017" cx="0" cy="0" r="1" gradientUnits="userSpaceOnUse" gradientTransform="translate(9.71222 10.4194) scale(16.1335)">
<stop offset="0.1" stop-color="white"/>
<stop offset="0.3" stop-color="#FFC967"/>
<stop offset="1" stop-color="#392613"/>
</radialGradient>
<radialGradient id="paint3_radial_2937_5017" cx="0" cy="0" r="1" gradientUnits="userSpaceOnUse" gradientTransform="translate(6.34606 31.4185) scale(26.7207)">
<stop offset="0.1" stop-color="white"/>
<stop offset="0.3" stop-color="#FFC967"/>
<stop offset="1" stop-color="#392613"/>
</radialGradient>
<radialGradient id="paint4_radial_2937_5017" cx="0" cy="0" r="1" gradientUnits="userSpaceOnUse" gradientTransform="translate(9.99751 10.0199) scale(8.61077)">
<stop stop-color="#FDFAFA"/>
<stop offset="1" stop-color="#FDFAFA"/>
</radialGradient>
<radialGradient id="paint5_radial_2937_5017" cx="0" cy="0" r="1" gradientUnits="userSpaceOnUse" gradientTransform="translate(1.84271 1.24619) scale(19.74)">
<stop offset="0.1" stop-color="white"/>
<stop offset="0.3" stop-color="#FFC967"/>
<stop offset="1" stop-color="#392613"/>
</radialGradient>
<radialGradient id="paint6_radial_2937_5017" cx="0" cy="0" r="1" gradientUnits="userSpaceOnUse" gradientTransform="translate(1.82274 1.12401) scale(21.1948)">
<stop offset="0.1" stop-color="white"/>
<stop offset="0.3" stop-color="#FFC967"/>
<stop offset="1" stop-color="#392613"/>
</radialGradient>
<radialGradient id="paint7_radial_2937_5017" cx="0" cy="0" r="1" gradientUnits="userSpaceOnUse" gradientTransform="translate(1.82233 1.124) scale(21.1948)">
<stop offset="0.1" stop-color="white"/>
<stop offset="0.3" stop-color="#FFC967"/>
<stop offset="1" stop-color="#392613"/>
</radialGradient>
<radialGradient id="paint8_radial_2937_5017" cx="0" cy="0" r="1" gradientUnits="userSpaceOnUse" gradientTransform="translate(1.82257 1.12405) scale(21.1948)">
<stop offset="0.1" stop-color="white"/>
<stop offset="0.3" stop-color="#FFC967"/>
<stop offset="1" stop-color="#392613"/>
</radialGradient>
<radialGradient id="paint9_radial_2937_5017" cx="0" cy="0" r="1" gradientUnits="userSpaceOnUse" gradientTransform="translate(15.1891 7.15103) scale(1.91939)">
<stop stop-color="#FDFAFA"/>
<stop offset="1" stop-color="#FDFAFA"/>
</radialGradient>
<radialGradient id="paint10_radial_2937_5017" cx="0" cy="0" r="1" gradientUnits="userSpaceOnUse" gradientTransform="translate(1.82284 1.12396) scale(21.1948)">
<stop offset="0.1" stop-color="white"/>
<stop offset="0.3" stop-color="#FFC967"/>
<stop offset="1" stop-color="#392613"/>
</radialGradient>
<radialGradient id="paint11_radial_2937_5017" cx="0" cy="0" r="1" gradientUnits="userSpaceOnUse" gradientTransform="translate(1.82288 1.12402) scale(21.1948)">
<stop offset="0.1" stop-color="white"/>
<stop offset="0.3" stop-color="#FFC967"/>
<stop offset="1" stop-color="#392613"/>
</radialGradient>
<radialGradient id="paint12_radial_2937_5017" cx="0" cy="0" r="1" gradientUnits="userSpaceOnUse" gradientTransform="translate(1.98952 1.17694) scale(20.5224)">
<stop offset="0.1" stop-color="white"/>
<stop offset="0.3" stop-color="#FFC967"/>
<stop offset="1" stop-color="#392613"/>
</radialGradient>
<radialGradient id="paint13_radial_2937_5017" cx="0" cy="0" r="1" gradientUnits="userSpaceOnUse" gradientTransform="translate(1.87985 1.8412) scale(19.2469)">
<stop offset="0.1" stop-color="white"/>
<stop offset="0.3" stop-color="#FFC967"/>
<stop offset="1" stop-color="#392613"/>
</radialGradient>
<radialGradient id="paint14_radial_2937_5017" cx="0" cy="0" r="1" gradientUnits="userSpaceOnUse" gradientTransform="translate(1.82694 1.124) scale(21.1826)">
<stop offset="0.1" stop-color="white"/>
<stop offset="0.3" stop-color="#FFC967"/>
<stop offset="1" stop-color="#392613"/>
</radialGradient>
<radialGradient id="paint15_radial_2937_5017" cx="0" cy="0" r="1" gradientUnits="userSpaceOnUse" gradientTransform="translate(1.8228 1.12393) scale(21.1948)">
<stop offset="0.1" stop-color="white"/>
<stop offset="0.3" stop-color="#FFC967"/>
<stop offset="1" stop-color="#392613"/>
</radialGradient>
<radialGradient id="paint16_radial_2937_5017" cx="0" cy="0" r="1" gradientUnits="userSpaceOnUse" gradientTransform="translate(1.82273 1.17703) scale(20.987)">
<stop offset="0.1" stop-color="white"/>
<stop offset="0.3" stop-color="#FFC967"/>
<stop offset="1" stop-color="#392613"/>
</radialGradient>
<radialGradient id="paint17_radial_2937_5017" cx="0" cy="0" r="1" gradientUnits="userSpaceOnUse" gradientTransform="translate(1.83055 1.30328) scale(21.1704)">
<stop offset="0.1" stop-color="white"/>
<stop offset="0.3" stop-color="#FFC967"/>
<stop offset="1" stop-color="#392613"/>
</radialGradient>
<radialGradient id="paint18_radial_2937_5017" cx="0" cy="0" r="1" gradientUnits="userSpaceOnUse" gradientTransform="translate(1.8387 1.124) scale(21.1581)">
<stop offset="0.1" stop-color="white"/>
<stop offset="0.3" stop-color="#FFC967"/>
<stop offset="1" stop-color="#392613"/>
</radialGradient>
<radialGradient id="paint19_radial_2937_5017" cx="0" cy="0" r="1" gradientUnits="userSpaceOnUse" gradientTransform="translate(1.82271 1.12388) scale(21.1948)">
<stop offset="0.1" stop-color="white"/>
<stop offset="0.3" stop-color="#FFC967"/>
<stop offset="1" stop-color="#392613"/>
</radialGradient>
<radialGradient id="paint20_radial_2937_5017" cx="0" cy="0" r="1" gradientUnits="userSpaceOnUse" gradientTransform="translate(1.82262 1.12397) scale(21.1948)">
<stop offset="0.1" stop-color="white"/>
<stop offset="0.3" stop-color="#FFC967"/>
<stop offset="1" stop-color="#392613"/>
</radialGradient>
<radialGradient id="paint21_radial_2937_5017" cx="0" cy="0" r="1" gradientUnits="userSpaceOnUse" gradientTransform="translate(1.82238 1.12396) scale(21.1948)">
<stop offset="0.1" stop-color="white"/>
<stop offset="0.3" stop-color="#FFC967"/>
<stop offset="1" stop-color="#392613"/>
</radialGradient>
<radialGradient id="paint22_radial_2937_5017" cx="0" cy="0" r="1" gradientUnits="userSpaceOnUse" gradientTransform="translate(1.83868 1.12388) scale(21.1948)">
<stop offset="0.1" stop-color="white"/>
<stop offset="0.3" stop-color="#FFC967"/>
<stop offset="1" stop-color="#392613"/>
</radialGradient>
<radialGradient id="paint23_radial_2937_5017" cx="0" cy="0" r="1" gradientUnits="userSpaceOnUse" gradientTransform="translate(1.82292 1.12397) scale(21.1948)">
<stop offset="0.1" stop-color="white"/>
<stop offset="0.3" stop-color="#FFC967"/>
<stop offset="1" stop-color="#392613"/>
</radialGradient>
<radialGradient id="paint24_radial_2937_5017" cx="0" cy="0" r="1" gradientUnits="userSpaceOnUse" gradientTransform="translate(1.82269 1.12397) scale(21.1948)">
<stop offset="0.1" stop-color="white"/>
<stop offset="0.3" stop-color="#FFC967"/>
<stop offset="1" stop-color="#392613"/>
</radialGradient>
<radialGradient id="paint25_radial_2937_5017" cx="0" cy="0" r="1" gradientUnits="userSpaceOnUse" gradientTransform="translate(1.85546 1.15244) scale(21.1418)">
<stop offset="0.1" stop-color="white"/>
<stop offset="0.3" stop-color="#FFC967"/>
<stop offset="1" stop-color="#392613"/>
</radialGradient>
<radialGradient id="paint26_radial_2937_5017" cx="0" cy="0" r="1" gradientUnits="userSpaceOnUse" gradientTransform="translate(1.82275 1.12396) scale(21.1948)">
<stop offset="0.1" stop-color="white"/>
<stop offset="0.3" stop-color="#FFC967"/>
<stop offset="1" stop-color="#392613"/>
</radialGradient>
<radialGradient id="paint27_radial_2937_5017" cx="0" cy="0" r="1" gradientUnits="userSpaceOnUse" gradientTransform="translate(1.82256 1.12394) scale(21.1948)">
<stop offset="0.1" stop-color="white"/>
<stop offset="0.3" stop-color="#FFC967"/>
<stop offset="1" stop-color="#392613"/>
</radialGradient>
<radialGradient id="paint28_radial_2937_5017" cx="0" cy="0" r="1" gradientUnits="userSpaceOnUse" gradientTransform="translate(1.82288 1.12397) scale(21.1948)">
<stop offset="0.1" stop-color="white"/>
<stop offset="0.3" stop-color="#FFC967"/>
<stop offset="1" stop-color="#392613"/>
</radialGradient>
<radialGradient id="paint29_radial_2937_5017" cx="0" cy="0" r="1" gradientUnits="userSpaceOnUse" gradientTransform="translate(1.82665 1.12392) scale(21.1948)">
<stop offset="0.1" stop-color="white"/>
<stop offset="0.3" stop-color="#FFC967"/>
<stop offset="1" stop-color="#392613"/>
</radialGradient>
<radialGradient id="paint30_radial_2937_5017" cx="0" cy="0" r="1" gradientUnits="userSpaceOnUse" gradientTransform="translate(1.82254 1.12403) scale(21.1948)">
<stop offset="0.1" stop-color="white"/>
<stop offset="0.3" stop-color="#FFC967"/>
<stop offset="1" stop-color="#392613"/>
</radialGradient>
<radialGradient id="paint31_radial_2937_5017" cx="0" cy="0" r="1" gradientUnits="userSpaceOnUse" gradientTransform="translate(1.82273 1.1239) scale(21.1866)">
<stop offset="0.1" stop-color="white"/>
<stop offset="0.3" stop-color="#FFC967"/>
<stop offset="1" stop-color="#392613"/>
</radialGradient>
<radialGradient id="paint32_radial_2937_5017" cx="0" cy="0" r="1" gradientUnits="userSpaceOnUse" gradientTransform="translate(1.8228 1.12398) scale(21.1948)">
<stop offset="0.1" stop-color="white"/>
<stop offset="0.3" stop-color="#FFC967"/>
<stop offset="1" stop-color="#392613"/>
</radialGradient>
<radialGradient id="paint33_radial_2937_5017" cx="0" cy="0" r="1" gradientUnits="userSpaceOnUse" gradientTransform="translate(10.1646 9.60432) scale(7.59198)">
<stop stop-color="#FDFAFA"/>
<stop offset="1" stop-color="#FDFAFA"/>
</radialGradient>
<radialGradient id="paint34_radial_2937_5017" cx="0" cy="0" r="1" gradientUnits="userSpaceOnUse" gradientTransform="translate(4.24723 6.91071) scale(1.75231)">
<stop stop-color="#FDFAFA"/>
<stop offset="1" stop-color="#FDFAFA"/>
</radialGradient>
</defs>
</svg>
