<svg width="20" height="20" viewBox="0 0 20 20" fill="none" xmlns="http://www.w3.org/2000/svg">
<path d="M0 9.86455C0 15.2836 4.39292 19.6765 9.81191 19.6765C15.2309 19.6765 19.6239 15.2836 19.6239 9.86455C19.6239 4.44559 15.2309 0.0526733 9.81191 0.0526733C4.39292 0.0526733 0 4.44559 0 9.86455Z" fill="#F04832"/>
<mask id="mask0_1982_3648" style="mask-type:alpha" maskUnits="userSpaceOnUse" x="0" y="0" width="20" height="20">
<path d="M0 9.86455C0 15.2836 4.39292 19.6765 9.81191 19.6765C15.2309 19.6765 19.6239 15.2836 19.6239 9.86455C19.6239 4.44559 15.2309 0.0526733 9.81191 0.0526733C4.39292 0.0526733 0 4.44559 0 9.86455Z" fill="#C4C4C4"/>
</mask>
<g mask="url(#mask0_1982_3648)">
<path d="M7.68275 15.9539V20.0498C7.68596 20.0594 6.61392 20.0413 6.62294 20.0498L6.56714 15.9539C6.58855 15.9818 6.62294 15.9995 6.6601 15.9995H7.58979C7.62695 15.9995 7.66134 15.9818 7.68275 15.9539Z" fill="#FF0000"/>
<path d="M7.68275 15.9539V20.0498C7.68596 20.0594 6.61392 20.0413 6.62294 20.0498L6.56714 15.9539C6.58855 15.9818 6.62294 15.9995 6.6601 15.9995H7.58979C7.62695 15.9995 7.66134 15.9818 7.68275 15.9539Z" stroke="black" stroke-width="0.2" stroke-miterlimit="10"/>
<path d="M13.3541 13.6252L13.4098 20.0498C13.41 20.0413 12.2471 20.0594 12.2385 20.0498V13.6252C12.3267 13.7136 12.4485 13.7684 12.5834 13.7684H13.0092C13.144 13.7684 13.2657 13.7136 13.3541 13.6252Z" fill="#FF0000"/>
<path d="M13.3541 13.6252L13.4098 20.0498C13.41 20.0413 12.2471 20.0594 12.2385 20.0498V13.6252C12.3267 13.7136 12.4485 13.7684 12.5834 13.7684H13.0092C13.144 13.7684 13.2657 13.7136 13.3541 13.6252Z" stroke="black" stroke-width="0.2" stroke-miterlimit="10"/>
<path d="M9.6815 5.49427C9.6815 6.37271 9.23895 9.3328 8.56402 11.444H7.54517C8.18288 10.0868 8.64952 6.1069 8.64952 5.41056C8.64952 4.56829 7.96719 3.77437 7.12493 3.77437C6.28266 3.77437 5.60028 4.56829 5.60028 5.41056C5.60028 6.1069 6.06699 10.0868 6.7047 11.444H5.68584C5.01091 9.3328 4.56836 6.37271 4.56836 5.49427C4.56836 4.08211 5.71277 2.75171 7.12493 2.75171C8.53709 2.75171 9.6815 4.08211 9.6815 5.49427Z" fill="#FF0000"/>
<path d="M9.6815 5.49427C9.6815 6.37271 9.23895 9.3328 8.56402 11.444H7.54517C8.18288 10.0868 8.64952 6.1069 8.64952 5.41056C8.64952 4.56829 7.96719 3.77437 7.12493 3.77437C6.28266 3.77437 5.60028 4.56829 5.60028 5.41056C5.60028 6.1069 6.06699 10.0868 6.7047 11.444H5.68584C5.01091 9.3328 4.56836 6.37271 4.56836 5.49427C4.56836 4.08211 5.71277 2.75171 7.12493 2.75171C8.53709 2.75171 9.6815 4.08211 9.6815 5.49427Z" stroke="black" stroke-width="0.2" stroke-miterlimit="10"/>
<path d="M14.8349 4.6829C14.8895 5.36671 14.5915 5.9833 14.1041 6.37184C14.0184 6.44025 13.9542 6.5341 13.9137 6.63548C13.8722 6.73955 13.8693 6.83952 13.8635 6.94933C13.8522 7.16449 13.7731 7.37419 13.6409 7.54422C13.5672 7.63889 13.4777 7.7211 13.377 7.78631C13.3322 7.81525 13.3073 7.86695 13.3073 7.92029V8.1735H12.2848V7.92029C12.2848 7.86695 12.26 7.81525 12.2151 7.78631C11.9209 7.59577 11.7269 7.26506 11.7269 6.88868C11.7269 6.80043 11.7372 6.72135 11.7576 6.65077C11.7744 6.58945 11.7994 6.53365 11.8302 6.48344C11.871 6.41555 11.9241 6.35789 11.9872 6.31044C12.233 6.12625 12.5361 6.1099 12.8274 6.065C13.0749 6.02694 13.3113 5.97786 13.5266 5.84387C13.7104 5.72943 13.8666 5.57008 13.9677 5.3779C13.9913 5.33307 14.012 5.28666 14.0292 5.239C14.0752 5.11194 14.0977 4.97698 14.0976 4.84195C14.0968 4.22133 13.6087 3.6892 12.9901 3.63906C12.5242 3.60124 12.108 3.82757 11.8762 4.18523C11.8548 4.2182 11.8193 4.23924 11.78 4.23924H11.1973C11.1161 4.23924 11.0597 4.15598 11.0915 4.08108C11.4079 3.33453 12.1762 2.82633 13.0531 2.89788C13.9957 2.97479 14.7595 3.74022 14.8349 4.6829Z" fill="#FFC300"/>
<path d="M14.8349 4.6829C14.8895 5.36671 14.5915 5.9833 14.1041 6.37184C14.0184 6.44025 13.9542 6.5341 13.9137 6.63548C13.8722 6.73955 13.8693 6.83952 13.8635 6.94933C13.8522 7.16449 13.7731 7.37419 13.6409 7.54422C13.5672 7.63889 13.4777 7.7211 13.377 7.78631C13.3322 7.81525 13.3073 7.86695 13.3073 7.92029V8.1735H12.2848V7.92029C12.2848 7.86695 12.26 7.81525 12.2151 7.78631C11.9209 7.59577 11.7269 7.26506 11.7269 6.88868C11.7269 6.80043 11.7372 6.72135 11.7576 6.65077C11.7744 6.58945 11.7994 6.53365 11.8302 6.48344C11.871 6.41555 11.9241 6.35789 11.9872 6.31044C12.233 6.12625 12.5361 6.1099 12.8274 6.065C13.0749 6.02694 13.3113 5.97786 13.5266 5.84387C13.7104 5.72943 13.8666 5.57008 13.9677 5.3779C13.9913 5.33307 14.012 5.28666 14.0292 5.239C14.0752 5.11194 14.0977 4.97698 14.0976 4.84195C14.0968 4.22133 13.6087 3.6892 12.9901 3.63906C12.5242 3.60124 12.108 3.82757 11.8762 4.18523C11.8548 4.2182 11.8193 4.23924 11.78 4.23924H11.1973C11.1161 4.23924 11.0597 4.15598 11.0915 4.08108C11.4079 3.33453 12.1762 2.82633 13.0531 2.89788C13.9957 2.97479 14.7595 3.74022 14.8349 4.6829Z" stroke="black" stroke-width="0.2" stroke-miterlimit="10"/>
<path d="M14.0973 10.5609C14.0973 11.0211 13.8408 11.8745 13.4568 12.396C13.3851 12.2194 13.2113 12.0949 13.0086 12.0949H12.5829C12.3801 12.0949 12.2064 12.2194 12.1347 12.396C11.7508 11.8745 11.4941 11.0211 11.4941 10.5609C11.4941 10.0776 11.7776 9.56773 12.1933 9.30299C12.2327 9.27792 12.2845 9.30546 12.2845 9.35215V10.521C12.2845 10.7882 12.4799 10.9518 12.7459 10.9769C13.0511 11.0056 13.307 10.8416 13.307 10.5425V9.35215C13.307 9.30546 13.3588 9.27792 13.3981 9.30299C13.8138 9.56773 14.0973 10.0776 14.0973 10.5609Z" fill="#FF0000"/>
<path d="M14.0973 10.5609C14.0973 11.0211 13.8408 11.8745 13.4568 12.396C13.3851 12.2194 13.2113 12.0949 13.0086 12.0949H12.5829C12.3801 12.0949 12.2064 12.2194 12.1347 12.396C11.7508 11.8745 11.4941 11.0211 11.4941 10.5609C11.4941 10.0776 11.7776 9.56773 12.1933 9.30299C12.2327 9.27792 12.2845 9.30546 12.2845 9.35215V10.521C12.2845 10.7882 12.4799 10.9518 12.7459 10.9769C13.0511 11.0056 13.307 10.8416 13.307 10.5425V9.35215C13.307 9.30546 13.3588 9.27792 13.3981 9.30299C13.8138 9.56773 14.0973 10.0776 14.0973 10.5609Z" stroke="black" stroke-width="0.2" stroke-miterlimit="10"/>
<path d="M13.3072 8.17346V10.5424C13.3072 10.8251 13.0786 10.9792 12.7959 10.9792C12.5133 10.9792 12.2847 10.8251 12.2847 10.5424V8.17346H13.3072Z" fill="#FFC300"/>
<path d="M13.3072 8.17346V10.5424C13.3072 10.8251 13.0786 10.9792 12.7959 10.9792C12.5133 10.9792 12.2847 10.8251 12.2847 10.5424V8.17346H13.3072Z" stroke="black" stroke-width="0.2" stroke-miterlimit="10"/>
<path d="M12.5524 6.0424C12.5706 6.07089 12.5529 6.10827 12.5195 6.11282C12.4328 6.12476 12.3492 6.14334 12.2735 6.16728C12.1648 6.19981 12.0681 6.24725 11.9872 6.31044L11.2287 4.86837C11.2201 4.85203 11.2156 4.83383 11.2156 4.81532V4.67858C11.2156 4.61561 11.2666 4.56451 11.3296 4.56451H11.6342C11.6628 4.56451 11.6893 4.5798 11.7036 4.60457L12.4985 5.9563L12.5218 5.99436L12.5524 6.0424Z" fill="#FFC300"/>
<path d="M12.5524 6.0424C12.5706 6.07089 12.5529 6.10827 12.5195 6.11282C12.4328 6.12476 12.3492 6.14334 12.2735 6.16728C12.1648 6.19981 12.0681 6.24725 11.9872 6.31044L11.2287 4.86837C11.2201 4.85203 11.2156 4.83383 11.2156 4.81532V4.67858C11.2156 4.61561 11.2666 4.56451 11.3296 4.56451H11.6342C11.6628 4.56451 11.6893 4.5798 11.7036 4.60457L12.4985 5.9563L12.5218 5.99436L12.5524 6.0424Z" stroke="black" stroke-width="0.2" stroke-miterlimit="10"/>
<path d="M5.64851 11.444C5.58994 11.444 5.53877 11.4859 5.53139 11.5435C5.5202 11.6243 5.52295 11.8636 5.53973 11.9492L6.54471 15.9092C6.54844 15.9259 6.5568 15.9408 6.56702 15.9538C6.58835 15.9817 6.62282 15.9994 6.65998 15.9994H7.12483V11.444H5.64851Z" fill="#ADADAD"/>
<path d="M8.71821 11.5435C8.71075 11.4859 8.65965 11.444 8.60108 11.444H7.12476V15.9994H7.58962C7.62677 15.9994 7.66123 15.9817 7.68257 15.9538C7.69279 15.9408 7.70115 15.9259 7.70487 15.9092L8.70986 11.9491C8.72657 11.8636 8.72932 11.6243 8.71821 11.5435Z" fill="#CCCCCC"/>
<path d="M8.70983 11.9492L7.70486 15.9092C7.70112 15.9259 7.69278 15.9408 7.68256 15.9538C7.66122 15.9817 7.62674 15.9994 7.5896 15.9994H6.65998C6.62274 15.9994 6.58835 15.9817 6.56694 15.9538C6.5568 15.9408 6.54837 15.9259 6.54471 15.9092L5.53973 11.9492C5.52295 11.8637 5.5202 11.6243 5.53139 11.5435C5.53877 11.4859 5.58994 11.444 5.64851 11.444H8.60106C8.65962 11.444 8.7108 11.4859 8.71819 11.5435C8.72938 11.6243 8.72662 11.8637 8.70983 11.9492Z" stroke="black" stroke-width="0.2" stroke-miterlimit="10"/>
<path d="M12.5829 12.0947C12.3802 12.0947 12.2064 12.2194 12.1347 12.3959C12.1116 12.4527 12.0986 12.514 12.0986 12.579V13.2838C12.0986 13.4167 12.1516 13.5367 12.238 13.625C12.3263 13.7133 12.4481 13.7682 12.5829 13.7682H12.7958V12.0947H12.5829Z" fill="#ADADAD"/>
<path d="M13.4566 12.3959C13.385 12.2194 13.2111 12.0947 13.0085 12.0947H12.7957V13.7682H13.0085C13.1432 13.7682 13.2651 13.7133 13.3533 13.625C13.4399 13.5367 13.4928 13.4167 13.4928 13.2838V12.579C13.4928 12.514 13.4799 12.4527 13.4566 12.3959Z" fill="#CCCCCC"/>
<path d="M13.4929 12.5791V13.2838C13.4929 13.4167 13.44 13.5367 13.3536 13.625C13.2653 13.7133 13.1434 13.7681 13.0086 13.7681H12.5829C12.4481 13.7681 12.3263 13.7133 12.238 13.625C12.1516 13.5367 12.0986 13.4167 12.0986 13.2838V12.5791C12.0986 12.5141 12.1115 12.4527 12.1347 12.396C12.2064 12.2194 12.3802 12.0947 12.5829 12.0947H13.0086C13.2114 12.0947 13.3852 12.2194 13.4568 12.396C13.48 12.4527 13.4929 12.5141 13.4929 12.5791Z" stroke="black" stroke-width="0.2" stroke-miterlimit="10"/>
</g>
</svg>
