<svg width="20" height="20" viewBox="0 0 20 20" fill="none" xmlns="http://www.w3.org/2000/svg">
<g clip-path="url(#clip0_6084_47293)">
<path d="M10 20C15.5228 20 20 15.5228 20 10C20 4.47715 15.5228 0 10 0C4.47715 0 0 4.47715 0 10C0 15.5228 4.47715 20 10 20Z" fill="#7156FB"/>
<path d="M2.89607 3.55147C4.17144 2.14602 5.83496 1.15044 7.67622 0.690534C9.51749 0.23063 11.4538 0.327084 13.2402 0.967742C15.0267 1.60839 16.583 2.76448 17.7123 4.28968C18.8417 5.81491 19.4934 7.6408 19.5849 9.53643C19.7079 12.0783 18.8161 14.5649 17.1057 16.4493C15.3953 18.3336 13.0064 19.4613 10.4646 19.5843C7.92269 19.7073 5.43608 18.8155 3.55176 17.1051C1.66738 15.3947 0.539679 13.0058 0.416687 10.4639C0.352441 9.20503 0.538509 7.94587 0.964099 6.75939C1.38962 5.57284 2.0463 4.48247 2.89607 3.55147ZM16.8437 16.2117C20.2687 12.4384 19.9849 6.5825 16.2121 3.15801C12.4394 -0.2665 6.58292 0.0168432 3.15842 3.7896C-0.266094 7.56236 0.0172794 13.4188 3.79004 16.8434C7.56278 20.2678 13.4188 19.985 16.8437 16.2117Z" fill="url(#paint0_linear_6084_47293)"/>
<path d="M17.0733 6.86694H2.92587C2.4514 6.86692 2.0655 7.24917 2.06104 7.72362V10.1876C2.05192 10.493 2.17012 10.7886 2.38739 11.0035L4.11706 12.7739C4.33359 12.9887 4.628 13.1065 4.93293 13.1003H7.59271C7.94202 13.1211 8.28069 12.976 8.5065 12.7087L9.97509 10.8566H10.122L11.7537 12.7494C11.9598 12.9861 12.2559 13.1253 12.5696 13.1329H15.0743C15.3807 13.1379 15.6756 13.017 15.8902 12.7984L17.6199 11.0361C17.8317 10.8182 17.9465 10.524 17.9381 10.2202V7.72362C17.9336 7.24917 17.5477 6.86692 17.0733 6.86694Z" fill="url(#paint1_linear_6084_47293)"/>
</g>
<defs>
<linearGradient id="paint0_linear_6084_47293" x1="2.89813" y1="3.54919" x2="17.1041" y2="16.4511" gradientUnits="userSpaceOnUse">
<stop stop-color="#01FFC2"/>
<stop offset="0.496452" stop-color="#01FFC2"/>
<stop offset="0.993298" stop-color="#99FFE6"/>
</linearGradient>
<linearGradient id="paint1_linear_6084_47293" x1="2.06055" y1="10" x2="17.9385" y2="10" gradientUnits="userSpaceOnUse">
<stop stop-color="#01FFC2"/>
<stop offset="0.496452" stop-color="#01FFC2"/>
<stop offset="0.993298" stop-color="#99FFE6"/>
</linearGradient>
<clipPath id="clip0_6084_47293">
<rect width="20" height="20" fill="white"/>
</clipPath>
</defs>
</svg>
