<svg width="20" height="20" viewBox="0 0 20 20" fill="none" xmlns="http://www.w3.org/2000/svg">
<circle cx="10" cy="10" r="10" fill="#171C1F"/>
<path d="M6.99564 9.06082H7.00133L7.09797 9.09626L7.18892 9.1317L7.28556 9.16124L7.37652 9.20258L7.47316 9.23802L7.56411 9.27347L7.66075 9.30891L7.75171 9.34435L7.84266 9.37979L7.93362 9.41523L8.03026 9.45067L8.12121 9.49202L8.21785 9.52155L8.3088 9.55699L8.40544 9.59243L8.4964 9.63378L8.59304 9.66922L8.68399 9.69876L8.77495 9.7342L8.87159 9.77555L8.96823 9.81099V9.65741V9.63378V9.50974V9.42114V9.35616V9.20258V9.05491V8.90133V8.75366V8.59418V8.44651V8.42879H8.85454H8.74653H8.73516H8.61578H8.52482H8.49072H8.37134H8.3088H8.24627H8.12121H8.0871H8.00183H7.88245H7.87677H7.87108H7.75739H7.65507H7.63801H7.51295H7.43336H7.21734H7.00133H6.99564H6.87058L6.77962 8.47604L6.56361 8.59418L6.3419 8.71822L6.1202 8.83045L5.90987 8.94859L5.68816 9.07263L5.46646 9.18486L5.25044 9.30891L5.02874 9.42704L4.81272 9.53927L4.5967 9.66332L4.39774 9.76964L4.375 13.1543L4.5967 13.3137L4.81272 13.4732L5.02874 13.6268L5.25044 13.7922L5.46646 13.9517L5.68816 14.1112L5.7848 14.188L5.90987 14.0226L6.1202 13.7272L6.14294 13.6977L6.1202 13.68L5.90987 13.5205L5.68816 13.361L5.46646 13.2015L5.25044 13.042L5.02874 12.8766L4.97189 12.8412L4.98895 10.1004L5.02874 10.0768L5.25044 9.96457L5.46646 9.85234L5.68816 9.74011L5.90987 9.62788L6.1202 9.50974L6.3419 9.39751L6.56361 9.29119L6.77962 9.17305L6.99564 9.06082Z" fill="url(#paint0_linear_3676_22473)"/>
<path d="M10.7589 15.517L10.577 15.5938L10.3724 15.6824L10.1677 15.7651L9.96307 15.8537L9.87211 15.8891L9.7641 15.836L9.55946 15.7237L9.35481 15.6233L9.15584 15.5111L8.95119 15.4048L8.74654 15.3043L8.5419 15.1921L8.33725 15.0858L8.1326 14.9795L7.92795 14.8731L7.7233 14.7609L7.53002 14.6605L7.32537 14.5542L7.30263 14.5424V11.778H7.12072H6.91607H6.71143V14.9204L6.91607 15.0208L7.12072 15.1271L7.32537 15.2394L7.53002 15.3398L7.7233 15.452L7.92795 15.5583L8.1326 15.6647L8.33725 15.771L8.5419 15.8773L8.74654 15.9836L8.95119 16.0899L9.15584 16.2022L9.35481 16.3026L9.55946 16.4148L9.7641 16.5152L9.84369 16.5625L9.96307 16.5034L10.1677 16.4266L10.3724 16.338L10.577 16.2494L10.776 16.1667L10.9806 16.084L10.776 15.5524L10.7589 15.517Z" fill="url(#paint1_linear_3676_22473)"/>
<path d="M14.3913 11.6775L14.4026 12.977L14.3515 13.0243L14.0047 13.2724L13.6579 13.5323L13.3112 13.7922L12.9644 14.0462L12.6176 14.3002L12.2765 14.5601L11.9298 14.8141L11.7251 14.9677L11.583 14.8554L11.2419 14.5778L10.8952 14.3061L10.5484 14.0285L10.2073 13.7567L10.1448 13.7095V12.3096L10.2073 12.2505L10.5484 11.8725L10.8952 11.5003L11.2419 11.1223L11.583 10.7502L11.9184 10.3839H11.583H11.2419H10.8952H10.5484H10.2073H9.85487H9.50811H9.16702H8.82026H8.47349H8.13241H7.78564L8.13241 10.762L8.47349 11.1341L8.82026 11.5062L9.16702 11.8843L9.50811 12.2564L9.55927 12.3096V14.0048L9.85487 14.247L10.2073 14.5246L10.5484 14.7964L10.8952 15.074L11.2419 15.3457L11.583 15.6233L11.7081 15.7237L11.9298 15.5583L12.2765 15.3102L12.6176 15.0503L12.9644 14.7904L13.3112 14.5424L13.6579 14.2825L14.0047 14.0226L14.3515 13.7745L14.6982 13.5146L14.9825 13.296L15.0393 11.7012L14.6982 11.6894L14.3913 11.6775Z" fill="url(#paint2_linear_3676_22473)"/>
<path d="M4.93765 8.65324H4.97744L4.98312 6.91663L5.20483 6.76896L5.48338 6.59766L5.75624 6.42636L6.02911 6.24916L6.30197 6.07786L6.58052 5.90066L6.8477 5.72936L7.12625 5.55806L7.39912 5.38085L7.67767 5.20365H7.68335L7.94485 5.36313L8.2234 5.52262L8.49626 5.68801L8.76913 5.84749L9.04199 6.00698L9.31486 6.16646L9.58772 6.33185L9.8549 6.49134L9.86627 6.46771L10.1391 5.95382L9.86627 5.78843L9.58772 5.62894L9.31486 5.46946L9.04199 5.30997L8.76913 5.14458L8.49626 4.9851L8.2234 4.82561L7.94485 4.66022L7.67767 4.50073L7.6663 4.49483L7.39912 4.66022L7.12625 4.83742L6.8477 5.01463L6.58052 5.19183L6.30197 5.36313L6.02911 5.53443L5.75624 5.71164L5.48338 5.88294L5.20483 6.06014L4.93765 6.23144L4.6591 6.40274L4.3976 6.57404L4.38623 8.64734H4.6591L4.93765 8.65324Z" fill="url(#paint3_linear_3676_22473)"/>
<path d="M15.6252 7.0643L15.4831 6.94616L15.341 6.82802L15.1988 6.70398L15.0567 6.58584L14.9146 6.46771L14.7668 6.34957L14.6247 6.23143L14.4826 6.11329L14.3348 5.98925L14.2268 5.90656L14.187 5.95381L14.0448 6.13692L13.9027 6.32594L13.8629 6.3732L13.9027 6.41454L14.0448 6.53859L14.187 6.66263L14.3348 6.78667L14.4826 6.91072L14.6247 7.04067L14.7668 7.16471L14.9146 7.28876L14.9828 7.34782L14.9885 10.1418L14.9146 10.1949L14.7668 10.2894L14.6247 10.3839L14.4826 10.4784L14.3348 10.573L14.187 10.6675L14.0448 10.762L13.9027 10.8565L13.7606 10.951L13.6185 11.0455L13.4764 11.14L13.3286 11.2345L13.1865 11.329L13.0443 11.4235L12.9022 11.5181L12.7544 11.6126L12.6123 11.7071L12.7544 11.9433L12.9022 12.1796L12.925 12.221L13.0443 12.1442L13.1865 12.0556L13.3286 11.9611L13.4764 11.8725L13.6185 11.772L13.7606 11.6834L13.9027 11.5889L14.0448 11.5003L14.187 11.4058L14.3348 11.3172L14.4826 11.2168L14.6247 11.1282L14.7668 11.0337L14.9146 10.9451L15.0567 10.8506L15.1988 10.762L15.341 10.6616L15.4831 10.573L15.6252 10.4784V7.0643Z" fill="url(#paint4_linear_3676_22473)"/>
<path d="M10.9351 8.73003V8.88361V9.03719V9.19076V9.35025V9.50973V9.66331V9.81689V9.93503L10.9806 9.9173L11.1739 9.84052L11.3671 9.75782L11.5547 9.68103L11.748 9.59834L11.9413 9.51564L12.1289 9.43885L12.3222 9.35615L12.5154 9.27937L12.703 9.19667L12.8963 9.11988L13.0839 9.03719V8.88361V8.82454V8.41697V5.38085L12.8679 5.23909L12.6462 5.10914L12.4245 4.97919L12.2085 4.83742L11.9868 4.70747L11.7651 4.57752L11.549 4.44166L11.3273 4.30581L11.1113 4.16995L10.8896 4.04L10.6679 3.90414L10.4519 3.76828L10.2359 3.63833L10.0142 3.50838L9.89481 3.4375L9.79248 3.49657L9.57078 3.62061L9.34908 3.73875L9.13874 3.8687L8.91704 3.99274L8.69534 4.11088L8.47363 4.24083L8.69534 4.37078L8.91704 4.50073L9.05347 4.58933L9.13874 4.54208L9.34908 4.42394L9.57078 4.2999L9.79248 4.18176L9.87775 4.13451L10.0142 4.2172L10.2359 4.34715L10.4519 4.4771L10.6679 4.61296L10.8896 4.74882L11.1113 4.87877L11.3273 5.01463L11.549 5.15048L11.7651 5.28043L11.9868 5.41039L12.2085 5.55215L12.4245 5.6821L12.4984 5.72345V8.41697H12.4472H12.4245H12.3222H12.2085H12.1971H12.0664H11.9868H11.9413H11.8162H11.7651H11.6912H11.5661H11.549H11.441H11.3273H11.316H11.1852H11.1113H11.0602H10.9635H10.9465" fill="url(#paint5_linear_3676_22473)"/>
<path d="M10.9351 9.93502L13.0839 9.03718L10.9351 8.41696" fill="url(#paint6_linear_3676_22473)"/>
<path d="M8.96837 9.93503V8.4406L7.00146 9.049L8.96837 9.92912" fill="url(#paint7_linear_3676_22473)"/>
<defs>
<linearGradient id="paint0_linear_3676_22473" x1="6.67019" y1="8.43056" x2="6.67019" y2="14.1856" gradientUnits="userSpaceOnUse">
<stop stop-color="#F6E93D"/>
<stop offset="0.13" stop-color="#F8E330"/>
<stop offset="0.35" stop-color="#F7C730"/>
<stop offset="0.64" stop-color="#F59C2E"/>
<stop offset="0.98" stop-color="#EB5E2C"/>
<stop offset="1" stop-color="#EB5C2C"/>
</linearGradient>
<linearGradient id="paint1_linear_3676_22473" x1="8.84688" y1="11.7803" x2="8.84688" y2="16.5619" gradientUnits="userSpaceOnUse">
<stop stop-color="#F6E93D"/>
<stop offset="0.13" stop-color="#F8E330"/>
<stop offset="0.35" stop-color="#F7C730"/>
<stop offset="0.64" stop-color="#F59C2E"/>
<stop offset="0.98" stop-color="#EB5E2C"/>
<stop offset="1" stop-color="#EB5C2C"/>
</linearGradient>
<linearGradient id="paint2_linear_3676_22473" x1="11.4122" y1="10.3834" x2="11.4122" y2="15.7255" gradientUnits="userSpaceOnUse">
<stop stop-color="#F6E93D"/>
<stop offset="0.13" stop-color="#F8E330"/>
<stop offset="0.35" stop-color="#F7C730"/>
<stop offset="0.64" stop-color="#F59C2E"/>
<stop offset="0.98" stop-color="#EB5E2C"/>
<stop offset="1" stop-color="#EB5C2C"/>
</linearGradient>
<linearGradient id="paint3_linear_3676_22473" x1="7.2624" y1="4.4966" x2="7.2624" y2="8.65383" gradientUnits="userSpaceOnUse">
<stop stop-color="#F6E93D"/>
<stop offset="0.13" stop-color="#F8E330"/>
<stop offset="0.35" stop-color="#F7C730"/>
<stop offset="0.64" stop-color="#F59C2E"/>
<stop offset="0.98" stop-color="#EB5E2C"/>
<stop offset="1" stop-color="#EB5C2C"/>
</linearGradient>
<linearGradient id="paint4_linear_3676_22473" x1="14.121" y1="5.90537" x2="14.121" y2="12.2216" gradientUnits="userSpaceOnUse">
<stop stop-color="#F6E93D"/>
<stop offset="0.13" stop-color="#F8E330"/>
<stop offset="0.35" stop-color="#F7C730"/>
<stop offset="0.64" stop-color="#F59C2E"/>
<stop offset="0.98" stop-color="#EB5E2C"/>
<stop offset="1" stop-color="#EB5C2C"/>
</linearGradient>
<linearGradient id="paint5_linear_3676_22473" x1="10.7782" y1="3.4375" x2="10.7782" y2="9.9368" gradientUnits="userSpaceOnUse">
<stop stop-color="#F6E93D"/>
<stop offset="0.13" stop-color="#F8E330"/>
<stop offset="0.35" stop-color="#F7C730"/>
<stop offset="0.64" stop-color="#F59C2E"/>
<stop offset="0.98" stop-color="#EB5E2C"/>
<stop offset="1" stop-color="#EB5C2C"/>
</linearGradient>
<linearGradient id="paint6_linear_3676_22473" x1="12.0072" y1="8.4211" x2="12.0072" y2="9.93856" gradientUnits="userSpaceOnUse">
<stop stop-color="#F6E93D"/>
<stop offset="0.13" stop-color="#F8E330"/>
<stop offset="0.35" stop-color="#F7C730"/>
<stop offset="0.64" stop-color="#F59C2E"/>
<stop offset="0.98" stop-color="#EB5E2C"/>
<stop offset="1" stop-color="#EB5C2C"/>
</linearGradient>
<linearGradient id="paint7_linear_3676_22473" x1="7.9612" y1="9.55979" x2="8.45741" y2="8.24771" gradientUnits="userSpaceOnUse">
<stop stop-color="#F6E93D"/>
<stop offset="0.13" stop-color="#F8E330"/>
<stop offset="0.35" stop-color="#F7C730"/>
<stop offset="0.64" stop-color="#F59C2E"/>
<stop offset="0.98" stop-color="#EB5E2C"/>
<stop offset="1" stop-color="#EB5C2C"/>
</linearGradient>
</defs>
</svg>
