<svg width="20" height="20" viewBox="0 0 20 20" fill="none" xmlns="http://www.w3.org/2000/svg">
<g clip-path="url(#clip0_4639_58675)">
<rect width="20" height="20" fill="url(#paint0_linear_4639_58675)"/>
<path d="M7 10.2039C7 8.69356 7 7.9384 7.4692 7.4692C7.9384 7 8.69356 7 10.2039 7H18.7961C20.3064 7 21.0616 7 21.5308 7.4692C22 7.9384 22 8.69356 22 10.2039V18.7961C22 20.3064 22 21.0616 21.5308 21.5308C21.0616 22 20.3064 22 18.7961 22H10.2039C8.69356 22 7.9384 22 7.4692 21.5308C7 21.0616 7 20.3064 7 18.7961V10.2039Z" fill="url(#paint1_linear_4639_58675)"/>
<path fill-rule="evenodd" clip-rule="evenodd" d="M18.7961 7.3H10.2039C9.44024 7.3 8.89769 7.30064 8.48609 7.35597C8.08313 7.41015 7.8509 7.51176 7.68133 7.68133C7.51176 7.8509 7.41015 8.08313 7.35597 8.48609C7.30064 8.89769 7.3 9.44024 7.3 10.2039V18.7961C7.3 19.5598 7.30064 20.1023 7.35597 20.5139C7.41015 20.9169 7.51176 21.1491 7.68133 21.3187C7.8509 21.4882 8.08313 21.5898 8.48609 21.644C8.89769 21.6994 9.44024 21.7 10.2039 21.7H18.7961C19.5598 21.7 20.1023 21.6994 20.5139 21.644C20.9169 21.5898 21.1491 21.4882 21.3187 21.3187C21.4882 21.1491 21.5898 20.9169 21.644 20.5139C21.6994 20.1023 21.7 19.5598 21.7 18.7961V10.2039C21.7 9.44024 21.6994 8.89769 21.644 8.48609C21.5898 8.08313 21.4882 7.8509 21.3187 7.68133C21.1491 7.51176 20.9169 7.41015 20.5139 7.35597C20.1023 7.30064 19.5598 7.3 18.7961 7.3ZM7.4692 7.4692C7 7.9384 7 8.69356 7 10.2039V18.7961C7 20.3064 7 21.0616 7.4692 21.5308C7.9384 22 8.69356 22 10.2039 22H18.7961C20.3064 22 21.0616 22 21.5308 21.5308C22 21.0616 22 20.3064 22 18.7961V10.2039C22 8.69356 22 7.9384 21.5308 7.4692C21.0616 7 20.3064 7 18.7961 7H10.2039C8.69356 7 7.9384 7 7.4692 7.4692Z" fill="#615CBA"/>
<path d="M10.6745 12.8102H11.6502V13.2629H10.0806V10.416H10.6745V12.8102ZM12.2229 10.7342C12.1182 10.7342 12.0306 10.7029 11.9599 10.6404C11.892 10.5751 11.858 10.4949 11.858 10.3997C11.858 10.3045 11.892 10.2257 11.9599 10.1631C12.0306 10.0979 12.1182 10.0653 12.2229 10.0653C12.3275 10.0653 12.4138 10.0979 12.4817 10.1631C12.5524 10.2257 12.5877 10.3045 12.5877 10.3997C12.5877 10.4949 12.5524 10.5751 12.4817 10.6404C12.4138 10.7029 12.3275 10.7342 12.2229 10.7342ZM12.5156 11.0034V13.2629H11.9217V11.0034H12.5156ZM14.0739 11.4724H13.6624V13.2629H13.06V11.4724H12.7927V11.0034H13.06V10.8891C13.06 10.6118 13.142 10.4079 13.306 10.2773C13.47 10.1468 13.7175 10.0857 14.0484 10.0938V10.5751C13.9042 10.5724 13.8038 10.5955 13.7472 10.6444C13.6906 10.6934 13.6624 10.7817 13.6624 10.9095V11.0034H14.0739V11.4724ZM16.5375 12.0842C16.5375 12.1658 16.5318 12.2392 16.5205 12.3044H14.8024C14.8165 12.4676 14.8759 12.5954 14.9805 12.6878C15.0852 12.7803 15.2139 12.8265 15.3666 12.8265C15.5872 12.8265 15.7441 12.7354 15.8375 12.5532H16.4781C16.4102 12.7708 16.2801 12.9502 16.0878 13.0916C15.8954 13.2303 15.6593 13.2996 15.3793 13.2996C15.1531 13.2996 14.9494 13.2521 14.7684 13.1569C14.5903 13.059 14.4503 12.9217 14.3484 12.7449C14.2495 12.5682 14.2 12.3643 14.2 12.1331C14.2 11.8993 14.2495 11.694 14.3484 11.5173C14.4474 11.3405 14.586 11.2046 14.7642 11.1094C14.9424 11.0142 15.1474 10.9666 15.3793 10.9666C15.6027 10.9666 15.8021 11.0129 15.9775 11.1053C16.1556 11.1978 16.2928 11.3296 16.389 11.5009C16.488 11.6695 16.5375 11.8639 16.5375 12.0842ZM15.9223 11.9211C15.9195 11.7742 15.8643 11.6573 15.7569 11.5703C15.6494 11.4806 15.5179 11.4357 15.3623 11.4357C15.2153 11.4357 15.0908 11.4792 14.989 11.5662C14.89 11.6505 14.8292 11.7688 14.8066 11.9211H15.9223ZM17.1279 13.2915C17.0204 13.2915 16.9314 13.2602 16.8607 13.1977C16.7928 13.1324 16.7588 13.0522 16.7588 12.957C16.7588 12.8619 16.7928 12.783 16.8607 12.7205C16.9314 12.6552 17.0204 12.6226 17.1279 12.6226C17.2326 12.6226 17.3188 12.6552 17.3867 12.7205C17.4546 12.783 17.4885 12.8619 17.4885 12.957C17.4885 13.0522 17.4546 13.1324 17.3867 13.1977C17.3188 13.2602 17.2326 13.2915 17.1279 13.2915Z" fill="white"/>
</g>
<defs>
<linearGradient id="paint0_linear_4639_58675" x1="17.5" y1="14.5" x2="1.5" y2="3" gradientUnits="userSpaceOnUse">
<stop stop-color="#282E50"/>
<stop offset="1" stop-color="#2F3766"/>
</linearGradient>
<linearGradient id="paint1_linear_4639_58675" x1="7.43689" y1="6.56311" x2="13.1165" y2="15.8835" gradientUnits="userSpaceOnUse">
<stop stop-color="#3E5299"/>
<stop offset="1" stop-color="#6C61CA"/>
</linearGradient>
<clipPath id="clip0_4639_58675">
<rect width="20" height="20" fill="white"/>
</clipPath>
</defs>
</svg>
