<svg width="20" height="20" viewBox="0 0 20 20" fill="none" xmlns="http://www.w3.org/2000/svg">
<path d="M8.94387 19.973C8.11061 19.3184 7.6971 18.6389 7.69917 17.9345C7.68043 17.2885 7.91884 16.6615 8.36204 16.1911L17.8084 6.74471C18.4588 7.29953 18.8433 7.92915 18.9679 8.63981C19.032 8.98344 19.0106 9.33757 18.9055 9.67096C18.8004 10.0044 18.6149 10.3068 18.3653 10.5515L8.94387 19.973ZM5.57758 16.6067C4.74224 15.9501 4.32873 15.2706 4.33288 14.5682C4.31414 13.9222 4.55255 13.2952 4.99575 12.8248L14.4421 3.37842C15.0905 3.93116 15.477 4.56286 15.6016 5.27352C15.6651 5.61701 15.6432 5.97083 15.5377 6.30383C15.4323 6.63684 15.2466 6.93881 14.997 7.18316L5.57758 16.6067ZM2.20921 13.2383C1.37387 12.5817 0.96036 11.9022 0.964516 11.1998C0.945776 10.5538 1.18418 9.92681 1.62738 9.45644L11.0738 0.0100546C11.7242 0.564869 12.1086 1.19449 12.2333 1.90515C12.2974 2.24879 12.2759 2.60291 12.1708 2.9363C12.0657 3.2697 11.8802 3.57211 11.6307 3.81687L2.20921 13.2383Z" fill="url(#paint0_linear_4612_58537)"/>
<defs>
<linearGradient id="paint0_linear_4612_58537" x1="6.64688" y1="6.64647" x2="14.4587" y2="14.4583" gradientUnits="userSpaceOnUse">
<stop stop-color="#7EB5FF"/>
<stop offset="0.9997" stop-color="#1A38F8"/>
</linearGradient>
</defs>
</svg>
