<svg width="20" height="20" viewBox="0 0 20 20" fill="none" xmlns="http://www.w3.org/2000/svg">
<g clip-path="url(#clip0_4815_59757)">
<circle cx="10" cy="10" r="10" fill="#3468F4"/>
<path d="M10 2.5L8.62388 3.29128L4.87388 5.45872L3.49774 6.25V13.75L4.87388 14.5413L8.65829 16.7087L10.0344 17.5L11.4106 16.7087L15.1262 14.5413L16.5023 13.75V6.25L15.1262 5.45872L11.3762 3.29128L10 2.5V2.5ZM6.25003 12.1674V7.83257L10 5.66514L13.75 7.83257V12.1674L10 14.3349L6.25003 12.1674Z" fill="white"/>
</g>
<circle cx="15" cy="15" r="5" fill="#131419"/>
<path fill-rule="evenodd" clip-rule="evenodd" d="M13.4097 14.3483L15 12.7579L16.5903 14.3483L17.5148 13.4238L15 10.909L12.4852 13.4238L13.4097 14.3483ZM11.8327 14.0782L10.9093 15.0016L11.8327 15.925L12.7561 15.0016L11.8327 14.0782ZM15 17.2445L13.4097 15.6542L12.4852 16.5786L15 19.0934L17.5148 16.5786L16.5903 15.6542L15 17.2445ZM18.1675 14.0783L17.2441 15.0017L18.1675 15.9251L19.0909 15.0017L18.1675 14.0783ZM15.0005 14.0638L15.9379 15.0012L15.0005 15.9386L14.0631 15.0012L14.2247 14.8332L14.3087 14.7556L15.0005 14.0638Z" fill="#F0B90B"/>
<defs>
<clipPath id="clip0_4815_59757">
<rect width="20" height="20" fill="white"/>
</clipPath>
</defs>
</svg>
