<svg width="20" height="18" viewBox="0 0 20 18" fill="none" xmlns="http://www.w3.org/2000/svg">
<path d="M20 9.15818L18.6587 7.92784L16.9103 9.83348C16.6975 10.0648 16.383 10.185 16.0777 10.1573L14.6439 10.0185C14.4311 10 14.2276 10.074 14.0888 10.2313L8.64941 16.1702L9.99076 17.3913L16.2165 10.6013C16.383 10.4255 16.6235 10.3423 16.864 10.407L18.1221 10.7123C18.3534 10.7678 18.6032 10.6938 18.7697 10.518L20 9.15818Z" fill="url(#paint0_linear_3027_10081)"/>
<path d="M17.1231 6.51249L15.7817 5.28215L12.6735 8.67716C12.4607 8.90842 12.1462 9.02868 11.8409 9.00093L10.4071 8.86217C10.1943 8.84367 9.99078 8.91767 9.85202 9.07493L5.77246 13.5245L7.11381 14.7549L11.9704 9.45421C12.1369 9.27845 12.3775 9.19519 12.618 9.25995L13.8761 9.56522C14.1073 9.62073 14.3571 9.54672 14.5236 9.37096L17.1231 6.51249Z" fill="url(#paint1_linear_3027_10081)"/>
<path d="M14.2368 3.87605L12.8955 2.64571L8.41815 7.52082C8.20538 7.75209 7.89086 7.87235 7.58558 7.8446L6.15173 7.70584C5.93896 7.68733 5.73544 7.76134 5.59668 7.9186L2.88623 10.8788L4.22758 12.1092L7.71509 8.29788C7.88161 8.12212 8.12212 8.03886 8.36264 8.10362L9.62074 8.40889C9.852 8.46439 10.1018 8.39039 10.2683 8.21462L14.2368 3.87605Z" fill="url(#paint2_linear_3027_10081)"/>
<path d="M11.3599 1.23034L10.0185 0L4.17206 6.37373C3.9593 6.605 3.64477 6.72525 3.3395 6.6975L1.90564 6.55874C1.69288 6.54024 1.48936 6.61425 1.3506 6.77151L0 8.23312L1.34135 9.46346L3.46901 7.14154C3.63552 6.96577 3.87604 6.88252 4.11656 6.94727L5.37465 7.25254C5.60592 7.30805 5.85569 7.23404 6.0222 7.05828L11.3599 1.23034Z" fill="url(#paint3_linear_3027_10081)"/>
<defs>
<linearGradient id="paint0_linear_3027_10081" x1="18.6612" y1="7.92718" x2="9.98766" y2="17.3881" gradientUnits="userSpaceOnUse">
<stop offset="0.2097" stop-color="#02C86A"/>
<stop offset="0.3359" stop-color="#14EA85"/>
</linearGradient>
<linearGradient id="paint1_linear_3027_10081" x1="15.779" y1="5.28477" x2="7.10548" y2="14.7456" gradientUnits="userSpaceOnUse">
<stop offset="0.3216" stop-color="#02C86A"/>
<stop offset="0.5064" stop-color="#11ED85"/>
</linearGradient>
<linearGradient id="paint2_linear_3027_10081" x1="12.8967" y1="2.64239" x2="4.22318" y2="12.1033" gradientUnits="userSpaceOnUse">
<stop offset="0.5012" stop-color="#1FD17D"/>
<stop offset="0.6414" stop-color="#2CE28C"/>
</linearGradient>
<linearGradient id="paint3_linear_3027_10081" x1="10.0144" y1="2.09944e-07" x2="1.34091" y2="9.46087" gradientUnits="userSpaceOnUse">
<stop offset="0.6496" stop-color="#1BC675"/>
<stop offset="0.7967" stop-color="#0FD879"/>
</linearGradient>
</defs>
</svg>
