<svg width="20" height="20" viewBox="0 0 20 20" fill="none" xmlns="http://www.w3.org/2000/svg">
<rect width="20" height="20" fill="#1B4251"/>
<path d="M10.4637 4.50768C10.4637 5.01677 10.0485 5.42947 9.53629 5.42947C9.02409 5.42947 8.60887 5.01677 8.60887 4.50768C8.60887 3.99859 9.02409 3.58589 9.53629 3.58589C10.0485 3.58589 10.4637 3.99859 10.4637 4.50768Z" fill="url(#paint0_linear_3962_53159)"/>
<path d="M8.14516 5.89036C8.14516 6.39945 7.72994 6.81215 7.21774 6.81215C6.70554 6.81215 6.29032 6.39945 6.29032 5.89036C6.29032 5.38127 6.70554 4.96858 7.21774 4.96858C7.72994 4.96858 8.14516 5.38127 8.14516 5.89036Z" fill="url(#paint1_linear_3962_53159)"/>
<path d="M4.66734 6.12081C4.66734 6.37535 4.45973 6.5817 4.20363 6.5817C3.94753 6.5817 3.73992 6.37535 3.73992 6.12081C3.73992 5.86627 3.94753 5.65992 4.20363 5.65992C4.45973 5.65992 4.66734 5.86627 4.66734 6.12081Z" fill="url(#paint2_linear_3962_53159)"/>
<path d="M6.36761 7.19623C6.36761 7.45077 6.16 7.65712 5.9039 7.65712C5.6478 7.65712 5.44019 7.45077 5.44019 7.19623C5.44019 6.94168 5.6478 6.73534 5.9039 6.73534C6.16 6.73534 6.36761 6.94168 6.36761 7.19623Z" fill="url(#paint3_linear_3962_53159)"/>
<path d="M6.36761 4.73813C6.36761 4.99267 6.16 5.19902 5.9039 5.19902C5.6478 5.19902 5.44019 4.99267 5.44019 4.73813C5.44019 4.48358 5.6478 4.27723 5.9039 4.27723C6.16 4.27723 6.36761 4.48358 6.36761 4.73813Z" fill="url(#paint4_linear_3962_53159)"/>
<path d="M8.06788 3.58589C8.06788 3.84044 7.86027 4.04679 7.60417 4.04679C7.34807 4.04679 7.14046 3.84044 7.14046 3.58589C7.14046 3.33135 7.34807 3.125 7.60417 3.125C7.86027 3.125 8.06788 3.33135 8.06788 3.58589Z" fill="url(#paint5_linear_3962_53159)"/>
<path d="M12.3958 4.5845C12.3958 4.83904 12.1882 5.04539 11.9321 5.04539C11.676 5.04539 11.4684 4.83904 11.4684 4.5845C11.4684 4.32995 11.676 4.1236 11.9321 4.1236C12.1882 4.1236 12.3958 4.32995 12.3958 4.5845Z" fill="url(#paint6_linear_3962_53159)"/>
<path d="M12.0094 6.12081C12.0094 6.37535 11.8018 6.5817 11.5457 6.5817C11.2896 6.5817 11.082 6.37535 11.082 6.12081C11.082 5.86627 11.2896 5.65992 11.5457 5.65992C11.8018 5.65992 12.0094 5.86627 12.0094 6.12081Z" fill="url(#paint7_linear_3962_53159)"/>
<path d="M13.3233 7.0426C13.3233 7.29714 13.1156 7.50349 12.8595 7.50349C12.6034 7.50349 12.3958 7.29714 12.3958 7.0426C12.3958 6.78805 12.6034 6.5817 12.8595 6.5817C13.1156 6.5817 13.3233 6.78805 13.3233 7.0426Z" fill="url(#paint8_linear_3962_53159)"/>
<path d="M15.3327 7.73394C15.3327 7.98848 15.1251 8.19483 14.869 8.19483C14.6129 8.19483 14.4052 7.98848 14.4052 7.73394C14.4052 7.47939 14.6129 7.27304 14.869 7.27304C15.1251 7.27304 15.3327 7.47939 15.3327 7.73394Z" fill="url(#paint9_linear_3962_53159)"/>
<path d="M15.9509 11.4979C15.9509 11.7524 15.7433 11.9588 15.4872 11.9588C15.2311 11.9588 15.0235 11.7524 15.0235 11.4979C15.0235 11.2434 15.2311 11.037 15.4872 11.037C15.7433 11.037 15.9509 11.2434 15.9509 11.4979Z" fill="url(#paint10_linear_3962_53159)"/>
<path d="M6.36761 9.11662C6.36761 9.37116 6.16 9.57751 5.9039 9.57751C5.6478 9.57751 5.44019 9.37116 5.44019 9.11662C5.44019 8.86208 5.6478 8.65573 5.9039 8.65573C6.16 8.65573 6.36761 8.86208 6.36761 9.11662Z" fill="url(#paint11_linear_3962_53159)"/>
<path d="M6.9086 12.3429C6.9086 12.5974 6.70099 12.8038 6.44489 12.8038C6.18879 12.8038 5.98118 12.5974 5.98118 12.3429C5.98118 12.0883 6.18879 11.882 6.44489 11.882C6.70099 11.882 6.9086 12.0883 6.9086 12.3429Z" fill="url(#paint12_linear_3962_53159)"/>
<path d="M4.59005 13.2647C4.59005 13.5192 4.38244 13.7256 4.12634 13.7256C3.87024 13.7256 3.66263 13.5192 3.66263 13.2647C3.66263 13.0101 3.87024 12.8038 4.12634 12.8038C4.38244 12.8038 4.59005 13.0101 4.59005 13.2647Z" fill="url(#paint13_linear_3962_53159)"/>
<path d="M6.67675 13.956C6.67675 14.2106 6.46914 14.4169 6.21304 14.4169C5.95694 14.4169 5.74933 14.2106 5.74933 13.956C5.74933 13.7015 5.95694 13.4951 6.21304 13.4951C6.46914 13.4951 6.67675 13.7015 6.67675 13.956Z" fill="url(#paint14_linear_3962_53159)"/>
<path d="M9.53629 14.1096C9.53629 14.3642 9.32868 14.5705 9.07258 14.5705C8.81648 14.5705 8.60887 14.3642 8.60887 14.1096C8.60887 13.8551 8.81648 13.6487 9.07258 13.6487C9.32868 13.6487 9.53629 13.8551 9.53629 14.1096Z" fill="url(#paint15_linear_3962_53159)"/>
<path d="M11.5457 14.1096C11.5457 14.3642 11.3381 14.5705 11.082 14.5705C10.8259 14.5705 10.6183 14.3642 10.6183 14.1096C10.6183 13.8551 10.8259 13.6487 11.082 13.6487C11.3381 13.6487 11.5457 13.8551 11.5457 14.1096Z" fill="url(#paint16_linear_3962_53159)"/>
<path d="M13.5551 15.6075C13.5551 15.9257 13.2956 16.1837 12.9755 16.1837C12.6553 16.1837 12.3958 15.9257 12.3958 15.6075C12.3958 15.2894 12.6553 15.0314 12.9755 15.0314C13.2956 15.0314 13.5551 15.2894 13.5551 15.6075Z" fill="url(#paint17_linear_3962_53159)"/>
<path d="M4.66734 8.80936C4.66734 9.31845 4.25212 9.73115 3.73992 9.73115C3.22772 9.73115 2.8125 9.31845 2.8125 8.80936C2.8125 8.30027 3.22772 7.88757 3.73992 7.88757C4.25212 7.88757 4.66734 8.30027 4.66734 8.80936Z" fill="url(#paint18_linear_3962_53159)"/>
<path d="M5.28562 11.1138C5.28562 11.6229 4.8704 12.0356 4.3582 12.0356C3.846 12.0356 3.43078 11.6229 3.43078 11.1138C3.43078 10.6047 3.846 10.192 4.3582 10.192C4.8704 10.192 5.28562 10.6047 5.28562 11.1138Z" fill="url(#paint19_linear_3962_53159)"/>
<path d="M8.53159 15.4923C8.53159 16.0014 8.11637 16.4141 7.60417 16.4141C7.09197 16.4141 6.67675 16.0014 6.67675 15.4923C6.67675 14.9832 7.09197 14.5705 7.60417 14.5705C8.11637 14.5705 8.53159 14.9832 8.53159 15.4923Z" fill="url(#paint20_linear_3962_53159)"/>
<path d="M11.1593 15.9532C11.1593 16.4623 10.7441 16.875 10.2319 16.875C9.71966 16.875 9.30444 16.4623 9.30444 15.9532C9.30444 15.4441 9.71966 15.0314 10.2319 15.0314C10.7441 15.0314 11.1593 15.4441 11.1593 15.9532Z" fill="url(#paint21_linear_3962_53159)"/>
<path d="M13.787 13.1878C13.787 13.6969 13.3717 14.1096 12.8595 14.1096C12.3473 14.1096 11.9321 13.6969 11.9321 13.1878C11.9321 12.6788 12.3473 12.2661 12.8595 12.2661C13.3717 12.2661 13.787 12.6788 13.787 13.1878Z" fill="url(#paint22_linear_3962_53159)"/>
<path d="M15.7964 13.6487C15.7964 14.1578 15.3812 14.5705 14.869 14.5705C14.3568 14.5705 13.9415 14.1578 13.9415 13.6487C13.9415 13.1397 14.3568 12.727 14.869 12.727C15.3812 12.727 15.7964 13.1397 15.7964 13.6487Z" fill="url(#paint23_linear_3962_53159)"/>
<path d="M15.1008 5.42947C15.1008 5.93856 14.6856 6.35126 14.1734 6.35126C13.6612 6.35126 13.246 5.93856 13.246 5.42947C13.246 4.92038 13.6612 4.50768 14.1734 4.50768C14.6856 4.50768 15.1008 4.92038 15.1008 5.42947Z" fill="url(#paint24_linear_3962_53159)"/>
<path d="M14.869 9.73115C14.869 10.2402 14.4537 10.6529 13.9415 10.6529C13.4293 10.6529 13.0141 10.2402 13.0141 9.73115C13.0141 9.22206 13.4293 8.80936 13.9415 8.80936C14.4537 8.80936 14.869 9.22206 14.869 9.73115Z" fill="url(#paint25_linear_3962_53159)"/>
<path d="M17.1875 9.27025C17.1875 9.77934 16.7723 10.192 16.2601 10.192C15.7479 10.192 15.3327 9.77934 15.3327 9.27025C15.3327 8.76116 15.7479 8.34846 16.2601 8.34846C16.7723 8.34846 17.1875 8.76116 17.1875 9.27025Z" fill="url(#paint26_linear_3962_53159)"/>
<defs>
<linearGradient id="paint0_linear_3962_53159" x1="10" y1="3.125" x2="10" y2="16.875" gradientUnits="userSpaceOnUse">
<stop stop-color="#1A535C"/>
<stop offset="1" stop-color="#56C4D4"/>
</linearGradient>
<linearGradient id="paint1_linear_3962_53159" x1="10" y1="3.125" x2="10" y2="16.875" gradientUnits="userSpaceOnUse">
<stop stop-color="#1A535C"/>
<stop offset="1" stop-color="#56C4D4"/>
</linearGradient>
<linearGradient id="paint2_linear_3962_53159" x1="10" y1="3.125" x2="10" y2="16.875" gradientUnits="userSpaceOnUse">
<stop stop-color="#1A535C"/>
<stop offset="1" stop-color="#56C4D4"/>
</linearGradient>
<linearGradient id="paint3_linear_3962_53159" x1="10" y1="3.125" x2="10" y2="16.875" gradientUnits="userSpaceOnUse">
<stop stop-color="#1A535C"/>
<stop offset="1" stop-color="#56C4D4"/>
</linearGradient>
<linearGradient id="paint4_linear_3962_53159" x1="10" y1="3.125" x2="10" y2="16.875" gradientUnits="userSpaceOnUse">
<stop stop-color="#1A535C"/>
<stop offset="1" stop-color="#56C4D4"/>
</linearGradient>
<linearGradient id="paint5_linear_3962_53159" x1="10" y1="3.125" x2="10" y2="16.875" gradientUnits="userSpaceOnUse">
<stop stop-color="#1A535C"/>
<stop offset="1" stop-color="#56C4D4"/>
</linearGradient>
<linearGradient id="paint6_linear_3962_53159" x1="10" y1="3.125" x2="10" y2="16.875" gradientUnits="userSpaceOnUse">
<stop stop-color="#1A535C"/>
<stop offset="1" stop-color="#56C4D4"/>
</linearGradient>
<linearGradient id="paint7_linear_3962_53159" x1="10" y1="3.125" x2="10" y2="16.875" gradientUnits="userSpaceOnUse">
<stop stop-color="#1A535C"/>
<stop offset="1" stop-color="#56C4D4"/>
</linearGradient>
<linearGradient id="paint8_linear_3962_53159" x1="10" y1="3.125" x2="10" y2="16.875" gradientUnits="userSpaceOnUse">
<stop stop-color="#1A535C"/>
<stop offset="1" stop-color="#56C4D4"/>
</linearGradient>
<linearGradient id="paint9_linear_3962_53159" x1="10" y1="3.125" x2="10" y2="16.875" gradientUnits="userSpaceOnUse">
<stop stop-color="#1A535C"/>
<stop offset="1" stop-color="#56C4D4"/>
</linearGradient>
<linearGradient id="paint10_linear_3962_53159" x1="10" y1="3.125" x2="10" y2="16.875" gradientUnits="userSpaceOnUse">
<stop stop-color="#1A535C"/>
<stop offset="1" stop-color="#56C4D4"/>
</linearGradient>
<linearGradient id="paint11_linear_3962_53159" x1="10" y1="3.125" x2="10" y2="16.875" gradientUnits="userSpaceOnUse">
<stop stop-color="#1A535C"/>
<stop offset="1" stop-color="#56C4D4"/>
</linearGradient>
<linearGradient id="paint12_linear_3962_53159" x1="10" y1="3.125" x2="10" y2="16.875" gradientUnits="userSpaceOnUse">
<stop stop-color="#1A535C"/>
<stop offset="1" stop-color="#56C4D4"/>
</linearGradient>
<linearGradient id="paint13_linear_3962_53159" x1="10" y1="3.125" x2="10" y2="16.875" gradientUnits="userSpaceOnUse">
<stop stop-color="#1A535C"/>
<stop offset="1" stop-color="#56C4D4"/>
</linearGradient>
<linearGradient id="paint14_linear_3962_53159" x1="10" y1="3.125" x2="10" y2="16.875" gradientUnits="userSpaceOnUse">
<stop stop-color="#1A535C"/>
<stop offset="1" stop-color="#56C4D4"/>
</linearGradient>
<linearGradient id="paint15_linear_3962_53159" x1="10" y1="3.125" x2="10" y2="16.875" gradientUnits="userSpaceOnUse">
<stop stop-color="#1A535C"/>
<stop offset="1" stop-color="#56C4D4"/>
</linearGradient>
<linearGradient id="paint16_linear_3962_53159" x1="10" y1="3.125" x2="10" y2="16.875" gradientUnits="userSpaceOnUse">
<stop stop-color="#1A535C"/>
<stop offset="1" stop-color="#56C4D4"/>
</linearGradient>
<linearGradient id="paint17_linear_3962_53159" x1="10" y1="3.125" x2="10" y2="16.875" gradientUnits="userSpaceOnUse">
<stop stop-color="#1A535C"/>
<stop offset="1" stop-color="#56C4D4"/>
</linearGradient>
<linearGradient id="paint18_linear_3962_53159" x1="10" y1="3.125" x2="10" y2="16.875" gradientUnits="userSpaceOnUse">
<stop stop-color="#1A535C"/>
<stop offset="1" stop-color="#56C4D4"/>
</linearGradient>
<linearGradient id="paint19_linear_3962_53159" x1="10" y1="3.125" x2="10" y2="16.875" gradientUnits="userSpaceOnUse">
<stop stop-color="#1A535C"/>
<stop offset="1" stop-color="#56C4D4"/>
</linearGradient>
<linearGradient id="paint20_linear_3962_53159" x1="10" y1="3.125" x2="10" y2="16.875" gradientUnits="userSpaceOnUse">
<stop stop-color="#1A535C"/>
<stop offset="1" stop-color="#56C4D4"/>
</linearGradient>
<linearGradient id="paint21_linear_3962_53159" x1="10" y1="3.125" x2="10" y2="16.875" gradientUnits="userSpaceOnUse">
<stop stop-color="#1A535C"/>
<stop offset="1" stop-color="#56C4D4"/>
</linearGradient>
<linearGradient id="paint22_linear_3962_53159" x1="10" y1="3.125" x2="10" y2="16.875" gradientUnits="userSpaceOnUse">
<stop stop-color="#1A535C"/>
<stop offset="1" stop-color="#56C4D4"/>
</linearGradient>
<linearGradient id="paint23_linear_3962_53159" x1="10" y1="3.125" x2="10" y2="16.875" gradientUnits="userSpaceOnUse">
<stop stop-color="#1A535C"/>
<stop offset="1" stop-color="#56C4D4"/>
</linearGradient>
<linearGradient id="paint24_linear_3962_53159" x1="10" y1="3.125" x2="10" y2="16.875" gradientUnits="userSpaceOnUse">
<stop stop-color="#1A535C"/>
<stop offset="1" stop-color="#56C4D4"/>
</linearGradient>
<linearGradient id="paint25_linear_3962_53159" x1="10" y1="3.125" x2="10" y2="16.875" gradientUnits="userSpaceOnUse">
<stop stop-color="#1A535C"/>
<stop offset="1" stop-color="#56C4D4"/>
</linearGradient>
<linearGradient id="paint26_linear_3962_53159" x1="10" y1="3.125" x2="10" y2="16.875" gradientUnits="userSpaceOnUse">
<stop stop-color="#1A535C"/>
<stop offset="1" stop-color="#56C4D4"/>
</linearGradient>
</defs>
</svg>
