<svg width="20" height="20" viewBox="0 0 20 20" fill="none" xmlns="http://www.w3.org/2000/svg">
<g clip-path="url(#clip0_5773_45637)">
<path d="M2.30828 6.30859L2.36543 6.33145L2.90257 6.57145L3.49686 6.83431C4.15971 5.42859 5.29114 4.25145 6.78828 3.54288L6.52543 2.94859L6.14828 2.08002C5.72543 1.23431 4.95971 1.52002 4.68543 1.65716C3.474 2.41145 2.46828 3.40574 1.714 4.56002C1.70257 4.57145 1.70257 4.58288 1.70257 4.60574C1.22257 5.72574 2.06828 6.19431 2.30828 6.30859Z" fill="#00934B"/>
<path d="M3.50879 6.82286L4.46879 7.24572L5.30307 7.61143L5.96593 7.90858C6.36593 7.09715 7.02879 6.41143 7.88593 5.98858L7.58879 5.32572L7.22307 4.49143L6.80022 3.53143C5.30307 4.24 4.17165 5.42858 3.50879 6.82286Z" fill="#22D511"/>
<path d="M5.9541 7.9086L7.33696 8.51432L8.61696 9.07432C8.78839 9.06289 8.93696 8.9486 9.00553 8.7886C9.02839 8.73146 9.03982 8.68574 9.03982 8.6286L8.47982 7.36003L7.8741 5.97717C7.01696 6.41146 6.3541 7.09717 5.9541 7.9086Z" fill="#BEF000"/>
<path d="M19.7373 7.98857C19.2916 6.88 18.3773 7.13143 18.1259 7.23428L18.0573 7.25714L17.4973 7.47428L16.8916 7.71428C17.4516 9.26857 17.4173 10.9143 16.8916 12.3771L17.4973 12.6171L18.2745 12.9143C19.1773 13.2914 19.5545 12.6514 19.6916 12.3086C20.0345 10.9143 20.0573 9.44 19.7373 7.98857Z" fill="#00934B"/>
<path d="M16.9032 7.71429L15.9318 8.09144L15.0747 8.42287L14.4004 8.68572C14.709 9.60001 14.6975 10.5486 14.4004 11.4057L15.0632 11.6686L15.9204 12L16.8918 12.3772C17.429 10.9143 17.4632 9.28001 16.9032 7.71429Z" fill="#22D511"/>
<path d="M14.4116 8.68573L13.0059 9.2343L11.7031 9.74859C11.5888 9.8743 11.5545 10.0572 11.6231 10.2286C11.6459 10.2743 11.6688 10.32 11.7031 10.3543L13.0059 10.8572L14.4116 11.4057C14.6974 10.5486 14.7202 9.60002 14.4116 8.68573Z" fill="#BEF000"/>
<path d="M2.53693 12.6171L3.14265 12.3771C2.58265 10.8229 2.61693 9.17714 3.14265 7.71429L2.53693 7.47429L1.74836 7.16571C0.834075 6.8 0.468361 7.47429 0.342647 7.80571C0.0112185 9.17714 -0.0116387 10.6286 0.296933 12.0571V12.0686C0.742647 13.2114 1.66836 12.9486 1.91979 12.8571L2.53693 12.6171Z" fill="#00934B"/>
<path d="M3.1426 12.3771L4.11402 12L4.95974 11.6686L5.63402 11.4057C5.32545 10.4914 5.33688 9.54285 5.63402 8.68571L4.95974 8.42285L4.11402 8.10285L3.1426 7.72571C2.61688 9.18857 2.5826 10.8229 3.1426 12.3771Z" fill="#22D511"/>
<path d="M5.64556 11.4057L7.05128 10.8572L8.34271 10.3543C8.45699 10.2286 8.49128 10.0457 8.42271 9.8743C8.39985 9.81716 8.36556 9.77144 8.33128 9.73716L7.03985 9.2343L5.63413 8.68573C5.34842 9.5543 5.33699 10.5029 5.64556 11.4057Z" fill="#BEF000"/>
<path d="M3.52 13.2686L2.92572 13.5314L2.30857 13.8057C2.30857 13.8057 1.22286 14.3886 1.72572 15.5086V15.52C2.51429 16.7428 3.55429 17.7371 4.74286 18.4686C5.05143 18.6171 5.82857 18.8686 6.21714 17.92L6.54857 17.1657L6.81143 16.5714C5.41714 15.8971 4.22857 14.7657 3.52 13.2686Z" fill="#00934B"/>
<path d="M7.61096 14.7657L7.89667 14.1143C7.08525 13.7143 6.39953 13.0514 5.97667 12.1943L5.31382 12.48L4.47953 12.8457L3.51953 13.2686C4.2281 14.7657 5.41667 15.8971 6.82239 16.56L7.24525 15.6L7.61096 14.7657Z" fill="#22D511"/>
<path d="M7.89725 14.1029L8.50296 12.72L9.06296 11.4514C9.05153 11.28 8.94868 11.12 8.77725 11.0514C8.73153 11.0286 8.67439 11.0172 8.61725 11.0172L7.34868 11.5772L5.96582 12.1829C6.40011 13.0514 7.08582 13.7029 7.89725 14.1029Z" fill="#BEF000"/>
<path d="M16.5372 6.83431L17.1315 6.57145L17.7944 6.27431L17.7372 6.28573C17.9772 6.17145 18.8115 5.71431 18.3429 4.61716C17.5429 3.36002 16.4687 2.34288 15.2344 1.60002C14.3658 1.15431 13.8287 2.17145 13.8287 2.17145L13.4972 2.93716L13.2344 3.53145C14.6401 4.19431 15.8287 5.32573 16.5372 6.83431Z" fill="#00934B"/>
<path d="M12.4459 5.31429L12.1602 5.97715C12.9716 6.37715 13.6573 7.04 14.0916 7.90858L14.7544 7.62286L15.5887 7.25715L16.5373 6.83429C15.8287 5.33715 14.6402 4.19429 13.2344 3.53143L12.8116 4.49143L12.4459 5.31429Z" fill="#22D511"/>
<path d="M12.1599 5.97717L11.5541 7.36003L10.9941 8.65146C11.0056 8.82289 11.1084 8.97146 11.2799 9.04003C11.3256 9.06289 11.3827 9.07432 11.4399 9.07432L12.7199 8.51432L14.1027 7.9086C13.657 7.04003 12.9713 6.3886 12.1599 5.97717Z" fill="#BEF000"/>
<path d="M12.5947 17.52L12.3547 16.9143C10.789 17.4743 9.15472 17.44 7.69186 16.9143L7.45186 17.52L7.06329 18.5257C7.06329 18.5257 6.869 19.3143 8.01186 19.7486C8.03472 19.76 8.05757 19.7714 8.08043 19.7714C9.39472 20.0457 10.7776 20.0457 12.1376 19.7372C12.3319 19.68 13.2804 19.3829 12.9376 18.3886L12.5947 17.52Z" fill="#00934B"/>
<path d="M12.366 16.9143L11.9888 15.9429L11.6574 15.0857L11.3946 14.4229C10.4803 14.7314 9.5317 14.72 8.67455 14.4229L8.4117 15.0857L8.08027 15.9429L7.70312 16.9143C9.16598 17.44 10.8003 17.4743 12.366 16.9143Z" fill="#22D511"/>
<path d="M11.3831 14.4229L10.8345 13.0171L10.3317 11.7257C10.2059 11.6114 10.0117 11.5771 9.84023 11.6457C9.79451 11.6686 9.7488 11.6914 9.71451 11.7257L9.21166 13.0171L8.66309 14.4229C9.53166 14.7086 10.4688 14.7314 11.3831 14.4229Z" fill="#BEF000"/>
<path d="M7.43966 2.56002L7.67966 3.16573C9.24537 2.60573 10.8797 2.64002 12.3425 3.1543L12.5825 2.54859L12.8225 1.93145C12.9139 1.68002 13.1768 0.742875 12.0339 0.30859C12.0225 0.30859 12.0225 0.297161 12.0111 0.297161C10.6511 0.0228753 9.22252 0.0228753 7.8168 0.354304C7.4968 0.457161 6.74252 0.822875 7.14252 1.7943L7.43966 2.56002Z" fill="#00934B"/>
<path d="M7.67969 3.16573L8.05683 4.13716L8.38826 4.98287L8.65112 5.65716C9.5654 5.34859 10.514 5.36001 11.3711 5.65716L11.634 4.98287L11.9654 4.13716L12.3425 3.16573C10.8797 2.64001 9.2454 2.60573 7.67969 3.16573Z" fill="#22D511"/>
<path d="M8.65137 5.65717L9.19994 7.06288L9.71422 8.37717C9.83994 8.48003 10.0228 8.51431 10.1828 8.44574C10.2399 8.42288 10.2857 8.3886 10.3199 8.35431L10.8228 7.05145L11.3714 5.64574C10.5142 5.37145 9.56565 5.3486 8.65137 5.65717Z" fill="#BEF000"/>
<path d="M17.7372 13.7829L17.6687 13.76L17.1315 13.52L16.5372 13.2571C15.8744 14.6629 14.7429 15.84 13.2344 16.56L13.4972 17.1543L13.8287 17.9086C14.2629 18.96 15.1544 18.5486 15.3829 18.4114C16.5562 17.6758 17.5547 16.6929 18.3087 15.5314C18.3201 15.52 18.3201 15.5086 18.3315 15.4857C18.8229 14.3657 17.9772 13.8971 17.7372 13.7829Z" fill="#00934B"/>
<path d="M16.5373 13.2571L15.5773 12.8343L14.7316 12.4686L14.0802 12.1829C13.6802 12.9943 13.0173 13.6686 12.1602 14.0914L12.4459 14.7429L12.8116 15.5886L13.2344 16.5486C14.7316 15.8514 15.8744 14.6629 16.5373 13.2571Z" fill="#22D511"/>
<path d="M14.0801 12.1943L12.6973 11.5885L11.4401 11.04C11.3944 11.04 11.3373 11.0514 11.2916 11.0743C11.1773 11.12 11.0859 11.2114 11.0401 11.3257C11.0173 11.3714 11.0059 11.4171 11.0059 11.4743L11.5544 12.7314L12.1601 14.1143C13.0173 13.68 13.6801 13.0057 14.0801 12.1943Z" fill="#BEF000"/>
</g>
<defs>
<clipPath id="clip0_5773_45637">
<rect width="20" height="20" fill="white"/>
</clipPath>
</defs>
</svg>
