<svg width="20" height="20" viewBox="0 0 20 20" fill="none" xmlns="http://www.w3.org/2000/svg">
<rect width="20" height="20" fill="black"/>
<path fill-rule="evenodd" clip-rule="evenodd" d="M8.98995 5.04412C8.23868 5.20702 7.66247 5.75503 7.47273 6.48703C7.40948 6.73101 7.40335 7.00123 7.45863 7.10815C7.51333 7.21395 7.62305 7.26701 7.75604 7.25202C7.93335 7.23204 8.02683 7.0986 8.02716 6.86496C8.0276 6.57913 8.20379 6.2115 8.45788 5.96629C8.85287 5.58508 9.50148 5.49396 10.0195 5.7469C10.2353 5.85221 10.5132 6.12885 10.6195 6.34408C10.7453 6.59874 10.7701 6.75402 10.7705 7.28942C10.7708 7.7214 10.7669 7.76684 10.7287 7.78008C10.4156 7.88864 9.98006 8.16299 9.61849 8.47949L9.39219 8.67758L9.23589 8.53135C9.06928 8.37547 8.82433 8.18848 8.59967 8.04562C8.13488 7.75004 7.70966 7.64468 7.172 7.69185C6.34477 7.76446 5.76877 8.13094 5.45115 8.78679C5.25557 9.19067 5.18443 9.79232 5.27864 10.2457C5.39796 10.8196 5.72281 11.3587 6.29298 11.9291C6.44607 12.0822 6.87996 12.5042 7.25719 12.867C7.63443 13.2297 8.22277 13.7975 8.56463 14.1288C8.90647 14.4601 9.22036 14.7501 9.26217 14.7732C9.4358 14.8695 9.50552 14.83 9.98711 14.3624C10.9358 13.4414 12.1859 12.239 12.3207 12.1177C12.5204 11.9381 12.9044 11.4988 13.0592 11.2727C13.2329 11.0191 13.3944 10.7017 13.4608 10.4834C13.61 9.99281 13.585 9.39325 13.3948 8.90127C13.1367 8.2338 12.5003 7.77529 11.7335 7.70427C11.6475 7.6963 11.531 7.68415 11.4748 7.67727L11.3725 7.66475V7.22314C11.3725 6.75113 11.3443 6.53432 11.2504 6.28391C11.137 5.98174 11.0078 5.79012 10.7534 5.54708C10.2791 5.09403 9.62289 4.90687 8.98995 5.04412ZM9.7471 9.99067C9.90875 10.0725 10.0795 10.2481 10.1499 10.405C10.2299 10.5831 10.2244 10.8605 10.1371 11.049C10.0575 11.2208 9.98405 11.3038 9.81422 11.4138L9.68787 11.4957L9.68778 11.862C9.6877 12.1856 9.6821 12.2374 9.63964 12.3071C9.61322 12.3504 9.56381 12.3964 9.52985 12.4093C9.43754 12.4444 9.29641 12.4377 9.23584 12.3952C9.12829 12.3199 9.11028 12.243 9.11028 11.8589V11.4992L8.99123 11.4228C8.7543 11.2708 8.6203 11.0682 8.59082 10.8174C8.54627 10.4383 8.79182 10.0608 9.16126 9.94052C9.32796 9.88627 9.58405 9.9082 9.7471 9.99067Z" fill="url(#paint0_linear_3465_21179)"/>
<path d="M1.49899 7.47732C1.29084 7.52636 1.1224 7.64373 1.0458 7.79311C1.00149 7.87951 1 7.98227 1 10.9638V14.0452H3.32272H5.64546L5.63908 13.3052L5.63273 12.5652L4.11055 12.559L2.58836 12.5528V10.0752V7.59757L2.42592 7.54954C2.33658 7.52314 2.21474 7.49046 2.15517 7.47691C2.02493 7.44733 1.62526 7.44757 1.49899 7.47732Z" fill="white"/>
<path d="M14.7658 7.48932C14.5256 7.55445 14.3443 7.7115 14.2542 7.93245L14.2003 8.06482L14.1938 11.055L14.1873 14.0452H14.994H15.8007V12.8058V11.5664H17.1947H18.5888L18.6628 11.3746C18.847 10.8971 18.8 10.4148 18.5502 10.2183C18.5208 10.1952 18.4975 10.1761 18.4722 10.1604C18.3541 10.0871 18.1911 10.0861 17.1502 10.08L17.0581 10.0794L15.8007 10.072V9.50777V8.94359L17.3228 8.93738L18.845 8.9312L18.9223 8.72664C18.9947 8.53495 18.9996 8.50239 19 8.20921C19.0005 7.8482 18.9721 7.75554 18.8205 7.62239C18.7878 7.59365 18.7642 7.5701 18.7376 7.55077C18.6082 7.45688 18.4065 7.46277 16.7272 7.4583C15.1706 7.45414 14.8785 7.45876 14.7658 7.48932Z" fill="white"/>
<defs>
<linearGradient id="paint0_linear_3465_21179" x1="10.7708" y1="5.16846" x2="7.57005" y2="13.4953" gradientUnits="userSpaceOnUse">
<stop stop-color="#F0ABDE"/>
<stop offset="0.514239" stop-color="#A9ACFE"/>
<stop offset="1" stop-color="#25CBEE"/>
</linearGradient>
</defs>
</svg>
