<svg width="20" height="20" viewBox="0 0 20 20" fill="none" xmlns="http://www.w3.org/2000/svg">
<circle cx="10" cy="10" r="10" fill="black"/>
<path fill-rule="evenodd" clip-rule="evenodd" d="M9.90471 11.0752C8.69391 11.0752 7.71191 10.0939 7.71191 8.88237C7.71191 7.67083 8.69391 6.68958 9.90471 6.68958C11.1155 6.68958 12.0975 7.67083 12.0975 8.88237C12.0975 10.0939 11.1155 11.0752 9.90471 11.0752ZM8.95132 8.88237C8.95132 9.40913 9.37844 9.83576 9.90471 9.83576C10.431 9.83576 10.8581 9.40913 10.8581 8.88237C10.8581 8.35561 10.431 7.92898 9.90471 7.92898C9.37844 7.92898 8.95132 8.35561 8.95132 8.88237Z" fill="white"/>
<path fill-rule="evenodd" clip-rule="evenodd" d="M2.84961 8.88531L7.04452 4.6875H12.7649L16.9598 8.88531L9.90469 15.9375L2.84961 8.88531ZM13.1462 7.35697C11.3634 5.56675 8.44601 5.56676 6.66317 7.35698L5.13775 8.88242L6.66317 10.4079C8.44601 12.1981 11.3634 12.1981 13.1462 10.4078L14.6716 8.88242L13.1462 7.35697Z" fill="#04CD58"/>
</svg>
