<svg width="20" height="20" viewBox="0 0 20 20" fill="none" xmlns="http://www.w3.org/2000/svg">
<circle cx="10" cy="10" r="10" fill="#3949A1"/>
<path fill-rule="evenodd" clip-rule="evenodd" d="M13.8598 16.6051L5.26602 10.5762L4.20602 11.3165C3.98225 11.473 3.79952 11.6812 3.67335 11.9233C3.54718 12.1655 3.4813 12.4345 3.4813 12.7076C3.4813 12.9807 3.54718 13.2497 3.67335 13.4919C3.79952 13.734 3.98225 13.9422 4.20602 14.0987L6.12818 15.4469L8.35878 13.8903L9.17586 14.4664L6.13022 16.5969L3.66876 14.8688C3.32152 14.6251 3.038 14.3015 2.84231 13.9251C2.64662 13.5487 2.54443 13.1308 2.54443 12.7066C2.54443 12.2824 2.64662 11.8644 2.84231 11.4881C3.038 11.1117 3.32152 10.788 3.66876 10.5444L4.25489 10.1351L4.25125 10.1299L4.44081 9.99724L3.66876 9.45563C3.32152 9.21202 3.038 8.88833 2.84231 8.51197C2.64662 8.13561 2.54443 7.71765 2.54443 7.29345C2.54443 6.86924 2.64662 6.45127 2.84231 6.07492C3.038 5.69856 3.32152 5.37487 3.66876 5.13125L6.1384 3.39496L14.733 9.42448L15.7881 8.68759C16.0119 8.53111 16.1945 8.32295 16.3207 8.08078C16.4469 7.83861 16.5128 7.56958 16.5128 7.29651C16.5128 7.02346 16.4469 6.75443 16.3207 6.51226C16.1945 6.27009 16.0119 6.06193 15.7881 5.90544L13.8659 4.55727L11.6394 6.11584L10.8223 5.5398L13.87 3.40723L16.3335 5.13535L16.3314 5.12922C16.6787 5.37285 16.9622 5.69653 17.1579 6.07289C17.3536 6.44925 17.4558 6.8672 17.4558 7.29142C17.4558 7.71561 17.3536 8.13358 17.1579 8.50994C16.9622 8.8863 16.6787 9.20998 16.3314 9.4536L15.8988 9.75587C15.9 9.75724 15.9012 9.75862 15.9024 9.75999L15.5564 10.0021L16.3294 10.5444C16.6767 10.788 16.9601 11.1117 17.1558 11.4881C17.3516 11.8644 17.4537 12.2824 17.4537 12.7066C17.4537 13.1308 17.3516 13.5488 17.1558 13.9251C16.9601 14.3015 16.6767 14.6251 16.3294 14.8688L13.8598 16.6051ZM14.7315 10.5793L15.786 11.3186C16.0098 11.4751 16.1925 11.6832 16.3187 11.9254C16.4448 12.1676 16.5107 12.4366 16.5107 12.7096C16.5107 12.9827 16.4448 13.2517 16.3187 13.4939C16.1925 13.7361 16.0098 13.9442 15.786 14.1007L13.8618 15.4469L6.09192 9.99935L9.17791 7.84394L8.36083 7.2679L8.13367 7.42653L8.12749 7.4177L5.26567 9.42008L4.21215 8.68146C3.98838 8.52496 3.80566 8.3168 3.67949 8.07463C3.55331 7.83247 3.48743 7.56343 3.48743 7.29038C3.48743 7.01731 3.55331 6.74829 3.67949 6.50612C3.80566 6.26395 3.98838 6.05579 4.21215 5.89931L6.13636 4.55316L13.9072 10.0013L10.8162 12.1602L11.6332 12.7362L13.9395 11.1248L13.9435 11.1306L14.7315 10.5793Z" fill="white"/>
</svg>
