<svg width="20" height="20" viewBox="0 0 20 20" fill="none" xmlns="http://www.w3.org/2000/svg">
<path d="M10 20C15.5228 20 20 15.5228 20 10C20 4.47715 15.5228 0 10 0C4.47715 0 0 4.47715 0 10C0 15.5228 4.47715 20 10 20Z" fill="#00EB88"/>
<path d="M13.8965 9.23767V11.1127H15.7715V9.23767H13.8965Z" fill="black"/>
<path d="M9.83398 7.05017V8.92517H11.709V7.05017H9.83398Z" fill="black"/>
<path d="M9.83398 11.4252V13.3002H11.709V11.4252H9.83398Z" fill="black"/>
<path d="M5.77148 13.6127V15.4877H7.64648V13.6127H5.77148Z" fill="black"/>
<path d="M5.77148 9.23767V11.1127H7.64648V9.23767H5.77148Z" fill="black"/>
<path d="M5.77148 4.86267V6.73767H7.64648V4.86267H5.77148Z" fill="black"/>
</svg>
