<svg width="20" height="20" viewBox="0 0 20 20" fill="none" xmlns="http://www.w3.org/2000/svg">
<g clip-path="url(#clip0_5586_44617)">
<mask id="mask0_5586_44617" style="mask-type:luminance" maskUnits="userSpaceOnUse" x="0" y="0" width="20" height="20">
<path d="M20 0H0V20H20V0Z" fill="white"/>
</mask>
<g mask="url(#mask0_5586_44617)">
<path d="M19.6 12.864C18.544 16.504 15.512 19.24 11.784 19.912V17.064C12.456 16.808 13.064 16.4 13.56 15.872C13.832 15.576 14.072 15.248 14.256 14.896C14.608 14.224 14.8 13.48 14.8 12.72C14.8 12.712 14.8 12.704 14.8 12.696C14.8 10.184 12.984 9.17599 11.28 8.43199L10.416 8.04799C9.49599 7.63199 8.79199 7.26399 8.79199 6.63999C8.79199 5.76799 9.55199 5.30399 10.264 5.30399C11.024 5.30399 11.456 5.58399 11.912 6.37599L12.264 6.99199L14.544 5.52799L14.248 4.97599C13.728 3.98399 12.84 3.21599 11.784 2.84799V0.23999C12.008 0.27999 12.224 0.32799 12.448 0.38399C12.472 0.39199 12.496 0.39199 12.52 0.39999C12.544 0.40799 12.568 0.40799 12.592 0.41599C12.6 0.41599 12.608 0.41599 12.616 0.42399C12.672 0.43999 12.736 0.45599 12.8 0.47199C17.072 1.71199 20.008 5.62399 20.008 10.072C20.008 11.016 19.872 11.96 19.608 12.864H19.6Z" fill="#745DDF"/>
<path d="M12 12.832C12 13.976 10.968 14.688 10.008 14.688C8.856 14.688 8.2 13.736 8.072 12.856L7.96 12.088L5.2 12.864L5.328 13.48C5.72 15.424 7.048 16.824 8.856 17.24V19.992C8.368 19.936 7.88 19.84 7.408 19.712C7.344 19.696 7.272 19.68 7.208 19.656C2.944 18.416 0 14.504 0 10.056V0.448C0 0.232 0.176 0.0559998 0.392 0.0559998H8.856V2.808C7.864 3.096 7.024 3.752 6.496 4.632C6.16 5.216 5.984 5.872 5.984 6.544C5.984 6.552 5.984 6.56 5.984 6.568V6.624C6.008 8.864 7.656 9.808 9.216 10.512L9.992 10.848L10.056 10.88C11.288 11.448 11.984 11.816 11.984 12.824L12 12.832Z" fill="#2EB6EA"/>
<path d="M14.7924 12.696C14.7924 12.704 14.7924 12.712 14.7924 12.72C14.7924 13.48 14.6084 14.224 14.2484 14.896C14.0644 15.248 13.8244 15.584 13.5524 15.872C13.0564 16.4 12.4484 16.808 11.7764 17.064V19.92L10.9764 19.992C10.9764 19.992 9.26438 20.04 8.85638 19.992L8.84838 17.248C7.04838 16.824 5.72038 15.432 5.32038 13.488L5.19238 12.872L7.95238 12.096L8.06438 12.864C8.19238 13.744 8.84838 14.696 10.0004 14.696C10.9604 14.696 11.9924 13.984 11.9924 12.84C11.9924 11.832 11.2964 11.464 10.0564 10.896L9.99238 10.864L9.21638 10.528C7.65638 9.82401 6.00838 8.88801 5.98438 6.64001V6.58401C5.98438 6.57601 5.98438 6.56801 5.98438 6.56001C5.98438 5.88801 6.16038 5.23201 6.49638 4.64801C7.02438 3.76001 7.86438 3.10401 8.85638 2.82401V0.0720106C10.6564 0.0560106 10.8004 0.0640106 11.7844 0.240011V2.85601C12.8484 3.22401 13.7284 3.98401 14.2484 4.98401L14.5444 5.53601L12.2644 7.00001L11.9124 6.38401C11.4564 5.59201 11.0244 5.31201 10.2644 5.31201C9.54438 5.31201 8.79238 5.77601 8.79238 6.64801C8.79238 7.28001 9.49638 7.64801 10.4164 8.05601L11.2804 8.44001C12.9844 9.18401 14.8004 10.192 14.8004 12.704L14.7924 12.696Z" fill="white"/>
</g>
</g>
<defs>
<clipPath id="clip0_5586_44617">
<rect width="20" height="20" fill="white"/>
</clipPath>
</defs>
</svg>
