<svg width="20" height="20" viewBox="0 0 20 20" fill="none" xmlns="http://www.w3.org/2000/svg">
<path d="M2.08008 6.23425V13.7695C2.08008 15.017 2.73983 16.1675 3.80608 16.7875L8.72258 19.6542C9.51283 20.1152 10.4833 20.1152 11.2733 19.6542L16.1901 16.7875C17.2563 16.1638 17.9161 15.013 17.9161 13.7695V6.23425C17.9161 4.98675 17.2563 3.83625 16.1901 3.2165L11.2733 0.34575C10.4833 -0.11525 9.51283 -0.11525 8.72258 0.34575L3.80608 3.2125C2.73983 3.83625 2.08008 4.98675 2.08008 6.23425Z" fill="#DC2626"/>
<path d="M15.9586 9.79249L14.1521 9.17249C13.4886 8.94399 12.9939 8.37849 12.8559 7.68499L12.0924 3.88049C12.0731 3.78374 11.9889 3.71399 11.8891 3.71399C11.7894 3.71399 11.7051 3.78374 11.6861 3.88049L10.9229 7.68499C10.7846 8.37849 10.2896 8.94399 9.62614 9.17249L7.82014 9.79249C7.73564 9.81974 7.68164 9.90099 7.68164 9.98999C7.68164 10.079 7.73939 10.1565 7.82014 10.1875L9.62614 10.8075C10.2896 11.036 10.7846 11.6015 10.9229 12.295L11.6861 16.0992C11.7051 16.1962 11.7894 16.266 11.8891 16.266C11.9889 16.266 12.0731 16.1962 12.0924 16.0992L12.8559 12.295C12.9939 11.6015 13.4886 11.036 14.1521 10.8075L15.9586 10.1875C16.0431 10.1605 16.0966 10.079 16.0966 9.98999C16.0966 9.90099 16.0391 9.82349 15.9586 9.79249Z" fill="#FFFDF7"/>
<path d="M7.72752 12.9783L6.87202 12.6878C6.55752 12.5793 6.32377 12.312 6.25852 11.9828L5.89802 10.1813C5.89027 10.1348 5.84802 10.1038 5.80202 10.1038C5.75602 10.1038 5.71377 10.1348 5.70627 10.1813L5.34577 11.9828C5.28052 12.312 5.04652 12.5793 4.73202 12.6878L3.87677 12.9783C3.83827 12.99 3.81152 13.0288 3.81152 13.0713C3.81152 13.1138 3.83827 13.1525 3.87677 13.1643L4.73202 13.4548C5.04652 13.5633 5.28052 13.8305 5.34577 14.1598L5.70627 15.9613C5.71377 16.0078 5.75602 16.0388 5.80202 16.0388C5.84802 16.0388 5.88652 16.004 5.89802 15.9613L6.25852 14.1598C6.32377 13.8305 6.55752 13.5633 6.87202 13.4548L7.72752 13.1643C7.76577 13.1525 7.79252 13.1138 7.79252 13.0713C7.79252 13.0288 7.76577 12.99 7.72752 12.9783Z" fill="#FFFDF7"/>
<path d="M6.2392 6.377L6.87595 6.594C7.10995 6.6755 7.28645 6.87275 7.33245 7.12075L7.60095 8.46525C7.60845 8.5 7.6392 8.52325 7.6737 8.52325C7.7082 8.52325 7.73895 8.5 7.7467 8.46525L8.0152 7.12075C8.06495 6.87675 8.23745 6.6755 8.4752 6.594L9.11195 6.377C9.1427 6.36525 9.16195 6.33825 9.16195 6.30725C9.16195 6.27625 9.1427 6.24925 9.11195 6.2375L8.4752 6.0205C8.24145 5.939 8.06495 5.74175 8.0152 5.49375L7.7467 4.14925C7.73895 4.1145 7.7082 4.09125 7.6737 4.09125C7.6392 4.09125 7.60845 4.1145 7.60095 4.14925L7.33245 5.49375C7.28245 5.73775 7.10995 5.939 6.87595 6.0205L6.2392 6.2375C6.2087 6.24925 6.18945 6.27625 6.18945 6.30725C6.18945 6.33825 6.2087 6.36525 6.2392 6.377Z" fill="#FFFDF7"/>
</svg>
