<svg width="32" height="32" viewBox="0 0 32 32" fill="none" xmlns="http://www.w3.org/2000/svg">
<rect width="32" height="32" rx="3" fill="#32D6B8"/>
<path d="M9.88884 25.1664C11.0139 25.1664 11.9259 24.2543 11.9259 23.1293C11.9259 22.0043 11.0139 21.0923 9.88884 21.0923C8.76382 21.0923 7.85181 22.0043 7.85181 23.1293C7.85181 24.2543 8.76382 25.1664 9.88884 25.1664Z" stroke="white" stroke-width="1.3" stroke-linecap="round" stroke-linejoin="round"/>
<path d="M21.0927 25.1664C22.2177 25.1664 23.1297 24.2543 23.1297 23.1293C23.1297 22.0043 22.2177 21.0923 21.0927 21.0923C19.9677 21.0923 19.0557 22.0043 19.0557 23.1293C19.0557 24.2543 19.9677 25.1664 21.0927 25.1664Z" stroke="white" stroke-width="1.3" stroke-linecap="round" stroke-linejoin="round"/>
<path d="M21.0925 21.0928H9.88884V6.8335H7.85181" stroke="white" stroke-width="1.3" stroke-linecap="round" stroke-linejoin="round"/>
<path d="M9.88892 8.87012L24.1482 9.88864L23.1297 17.0183H9.88892" stroke="white" stroke-width="1.3" stroke-linecap="round" stroke-linejoin="round"/>
</svg>
