<svg width="20" height="20" viewBox="0 0 20 20" fill="none" xmlns="http://www.w3.org/2000/svg">
<g clip-path="url(#clip0_2342_3911)">
<path d="M18.6863 9.20622C18.6748 8.75322 18.6622 8.32567 18.6622 7.90004V0H2.31309L5.48466 1.71758H16.9455V7.89977C16.9455 8.34948 16.9581 8.80878 16.9704 9.25221C17.0158 10.9361 17.0626 12.6772 16.4353 14.134C15.9061 15.3654 15.0276 16.4146 13.9084 17.152C12.7892 17.8894 11.4784 18.2825 10.1381 18.2827C6.80206 18.2827 4.01616 16.1389 3.20568 12.9482C2.96426 11.9957 2.99602 11.0117 3.0305 9.96852C3.042 9.60065 3.0535 9.22073 3.0535 8.83916V4.74189L1.33701 3.83369V8.83944C1.33701 9.19308 1.32442 9.55932 1.31402 9.91296C1.27762 11.0284 1.24094 12.1824 1.54203 13.3711C2.54739 17.3356 6.0039 20 10.1379 20C11.8136 20.0002 13.4527 19.509 14.8521 18.5872C16.2516 17.6653 17.35 16.3533 18.0113 14.8136C18.7901 13.0101 18.7372 11.076 18.6863 9.20595V9.20622Z" fill="#34D399"/>
<path d="M4.92334 11.6057C4.92334 11.6385 4.92526 11.6706 4.92909 11.7034C5.11193 13.3252 6.41756 16.3957 10.0512 16.3957C13.7387 16.3957 14.7952 13.2781 14.8396 11.6289C14.8396 11.6213 14.8407 11.6139 14.8407 11.6057V4.07242C14.8406 3.8445 14.75 3.62593 14.5889 3.46477C14.4277 3.3036 14.2091 3.21302 13.9812 3.21295H8.24518L11.4159 4.9308H13.1231V11.5912C13.1075 11.941 12.9055 14.6779 10.0514 14.6779C7.21271 14.6779 6.70853 12.031 6.6401 11.5504V6.64044L4.93976 5.73991C4.93018 5.79192 4.92334 5.84502 4.92334 5.90031V11.6057V11.6057Z" fill="#34D399"/>
<path d="M4.94219 5.72321C4.93945 5.72868 4.94137 5.73525 4.93945 5.74018L6.63979 6.64071L4.94219 5.72321V5.72321Z" fill="#34D399"/>
</g>
<defs>
<clipPath id="clip0_2342_3911">
<rect width="20" height="20" fill="white"/>
</clipPath>
</defs>
</svg>
