<svg width="20" height="20" viewBox="0 0 20 20" fill="none" xmlns="http://www.w3.org/2000/svg">
<path d="M10 20C15.5228 20 20 15.5228 20 10C20 4.47715 15.5228 0 10 0C4.47715 0 0 4.47715 0 10C0 15.5228 4.47715 20 10 20Z" fill="#1C68F3"/>
<path fill-rule="evenodd" clip-rule="evenodd" d="M16 7.66667V11H6V11L5.56975 11C6.02513 13.0226 7.83235 14.5333 9.99242 14.5333C11.7782 14.5333 13.3229 13.5007 14.0618 12.0001L16 12V14.8C16 15.4627 15.4627 16 14.8 16H5.2C4.53726 16 4 15.4627 4 14.8V7.66667H16ZM12.9109 12.0001C12.2745 12.9305 11.2048 13.5411 9.99242 13.5411C8.78008 13.5411 7.71035 12.9305 7.07395 12.0001H12.9109ZM7.43333 8.46667C6.49294 8.46667 5.71496 9.16206 5.58557 10.0667L6.60846 10.0667C6.72093 9.71851 7.04772 9.46667 7.43333 9.46667C7.81895 9.46667 8.14574 9.71851 8.25821 10.0667L9.2811 10.0667C9.15171 9.16206 8.37373 8.46667 7.43333 8.46667ZM12.5667 8.46667C11.6263 8.46667 10.8483 9.16206 10.7189 10.0667L11.7418 10.0667C11.8543 9.71851 12.1811 9.46667 12.5667 9.46667C12.9523 9.46667 13.2791 9.71851 13.3915 10.0667L14.4144 10.0667C14.285 9.16206 13.5071 8.46667 12.5667 8.46667ZM14.8 4C15.4627 4 16 4.53726 16 5.2V6.66667H4V5.2C4 4.53726 4.53726 4 5.2 4H14.8Z" fill="white"/>
</svg>
