<svg width="20" height="20" viewBox="0 0 20 20" fill="none" xmlns="http://www.w3.org/2000/svg">
<circle cx="10" cy="10" r="10" fill="black"/>
<ellipse cx="7.04109" cy="6.86572" rx="0.911697" ry="0.928218" fill="white"/>
<ellipse cx="13.3472" cy="6.86572" rx="0.911697" ry="0.928218" fill="white"/>
<ellipse cx="13.3472" cy="10.1145" rx="0.911697" ry="0.928218" fill="white"/>
<ellipse cx="7.04109" cy="10.1145" rx="0.911697" ry="0.928218" fill="white"/>
<ellipse cx="5.44588" cy="8.49011" rx="0.911697" ry="0.928218" fill="white"/>
<ellipse cx="11.7515" cy="8.49011" rx="0.911697" ry="0.928218" fill="white"/>
<ellipse cx="8.56062" cy="8.49011" rx="0.911697" ry="0.928218" fill="white"/>
<ellipse cx="14.8668" cy="8.49011" rx="0.911697" ry="0.928218" fill="white"/>
<ellipse cx="3.85028" cy="10.1145" rx="0.683773" ry="0.696163" fill="white"/>
<ellipse cx="10.1564" cy="10.1145" rx="0.683773" ry="0.696163" fill="white"/>
<ellipse cx="16.4621" cy="10.1145" rx="0.683773" ry="0.696163" fill="white"/>
<ellipse cx="14.8669" cy="11.7389" rx="0.683773" ry="0.696163" fill="white"/>
<ellipse cx="8.56073" cy="11.7389" rx="0.683773" ry="0.696163" fill="white"/>
<ellipse cx="11.7516" cy="11.7389" rx="0.683773" ry="0.696163" fill="white"/>
<ellipse cx="5.44598" cy="11.7389" rx="0.683773" ry="0.696163" fill="white"/>
<ellipse cx="2.33085" cy="11.6615" rx="0.455849" ry="0.464109" fill="white"/>
<ellipse cx="17.9817" cy="11.6615" rx="0.455849" ry="0.464109" fill="white"/>
<ellipse cx="3.92655" cy="13.2859" rx="0.455849" ry="0.464109" fill="white"/>
<ellipse cx="10.156" cy="13.2859" rx="0.455849" ry="0.464109" fill="white"/>
<ellipse cx="16.4622" cy="13.2859" rx="0.455849" ry="0.464109" fill="white"/>
</svg>
