<svg width="20" height="20" viewBox="0 0 20 20" fill="none" xmlns="http://www.w3.org/2000/svg">
<circle cx="8.16699" cy="8.16669" r="1.5" fill="black"/>
<circle cx="8.16699" cy="11.8333" r="1.5" fill="black"/>
<circle cx="11.833" cy="8.16669" r="1.5" fill="black"/>
<circle cx="11.833" cy="11.8333" r="1.5" fill="black"/>
<circle cx="15.5554" cy="8.22219" r="1.11111" fill="black"/>
<circle cx="15.5554" cy="11.8889" r="1.11111" fill="black"/>
<circle cx="19.2221" cy="11.8889" r="0.777778" fill="black"/>
<circle cx="4.44412" cy="8.22219" r="1.11111" fill="black"/>
<circle cx="4.44412" cy="11.8889" r="1.11111" fill="black"/>
<circle cx="0.777778" cy="11.8889" r="0.777778" fill="black"/>
<circle cx="0.777778" cy="8.22224" r="0.777778" fill="black"/>
<circle cx="8.22244" cy="15.5556" r="1.11111" fill="black"/>
<circle cx="11.8885" cy="15.5556" r="1.11111" fill="black"/>
<circle cx="11.8891" cy="19.2222" r="0.777778" fill="black"/>
<circle cx="8.22211" cy="19.2222" r="0.777778" fill="black"/>
<circle cx="11.8885" cy="4.44442" r="1.11111" fill="black"/>
<circle cx="8.22244" cy="4.44442" r="1.11111" fill="black"/>
<circle cx="8.22211" cy="0.777778" r="0.777778" fill="black"/>
<circle cx="11.8891" cy="0.777778" r="0.777778" fill="black"/>
<circle cx="19.2221" cy="8.22224" r="0.777778" fill="black"/>
</svg>
