<svg width="20" height="20" viewBox="0 0 20 20" fill="none" xmlns="http://www.w3.org/2000/svg">
<path fill-rule="evenodd" clip-rule="evenodd" d="M9.28136 0.0252043C5.54119 0.292923 2.24128 2.65755 0.776744 6.11941C0.519496 6.7275 0.288401 7.49437 0.163125 8.15574C-0.054375 9.30397 -0.054375 10.6994 0.163125 11.8476C0.903838 15.7579 3.89362 18.8644 7.76879 19.7501C10.1869 20.3028 12.7736 19.9296 14.9092 18.7199C16.3034 17.9301 17.4432 16.8705 18.3305 15.5395C18.9957 14.5416 19.405 13.6244 19.7013 12.4677C19.9197 11.6154 20 10.9521 20 10.0017C20 9.283 19.9761 8.97237 19.871 8.3288C19.3924 5.39666 17.5456 2.7743 14.9101 1.28442C13.2218 0.329986 11.2345 -0.114568 9.28136 0.0252043ZM6.91446 4.27638C7.33999 4.36585 7.74125 4.54093 8.15134 4.81611C8.49954 5.04977 9.25342 5.62285 9.75839 6.03778C10.912 6.98564 12.9962 8.92977 13.2366 9.28226C13.6355 9.86701 13.6896 10.6184 13.397 11.5109C13.0369 12.6093 12.3838 13.3276 11.3597 13.7517C10.9544 13.9195 10.6174 13.986 10.0868 14.0028C9.55893 14.0195 9.266 13.9848 8.80338 13.8509C7.55645 13.4898 6.59521 12.4131 6.37682 11.1329C6.31989 10.7992 6.33664 10.204 6.41068 9.92957C6.51248 9.55243 6.80316 9.03328 7.08393 8.7272C7.3578 8.42862 7.95549 8.04164 8.14404 8.04077C8.21741 8.04046 8.33397 8.12372 8.79351 8.5048C9.68925 9.24759 9.65796 9.19708 9.34651 9.39835C9.04411 9.59376 8.71779 9.92133 8.61893 10.1287C8.39906 10.5899 8.51507 11.1364 8.91841 11.5394C9.21661 11.8374 9.62367 12.0196 9.99274 12.0203C10.355 12.021 10.6937 11.8609 11.0003 11.5441C11.3137 11.2204 11.4579 10.8402 11.3904 10.5155C11.3174 10.1642 11.141 9.94411 10.5012 9.40634C9.25506 8.35885 7.52127 6.893 7.37625 6.76428C7.16747 6.57893 6.94321 6.44478 6.71235 6.36711C6.558 6.31519 6.47603 6.3059 6.25015 6.31485C6.00748 6.32445 5.95045 6.33766 5.75878 6.4286C5.48303 6.55946 5.22295 6.79701 5.09704 7.03306C4.89741 7.40733 4.91173 7.09435 4.89476 11.4582L4.8794 15.4097L4.80724 15.5539C4.70459 15.7591 4.57522 15.8198 4.33575 15.7753C4.10699 15.7328 3.68429 15.5207 3.45781 15.3348C3.23431 15.1514 3.04596 14.873 2.94173 14.5722C2.86373 14.347 2.8618 14.3249 2.84168 13.434C2.81195 12.1168 2.8138 8.59582 2.8446 7.83847C2.87817 7.01339 2.94742 6.68202 3.19118 6.18001C3.70181 5.12843 4.7209 4.39394 5.88969 4.23513C6.14344 4.20064 6.65141 4.22109 6.91446 4.27638ZM14.3368 4.47981C15.703 4.73334 16.6706 5.49738 17.0012 6.58381C17.158 7.09914 17.1562 7.05749 17.1715 10.5256C17.1795 12.3339 17.1743 13.8776 17.1597 14.0457C17.1328 14.3549 17.0645 14.6025 16.9557 14.7853C16.712 15.1946 15.8442 15.7702 15.471 15.7702C15.2718 15.7702 15.2853 16.0573 15.2853 11.8442C15.2853 9.42321 15.2745 7.94057 15.2554 7.75436C15.1834 7.05371 14.9032 6.5811 14.4189 6.34363C13.8796 6.0792 13.1322 6.22255 12.5837 6.6956C11.9316 7.25789 11.9003 7.28001 11.8293 7.22867C11.7546 7.17465 10.813 6.3631 10.6314 6.1963C10.5335 6.10628 10.4894 6.0454 10.5007 6.01583C10.5102 5.99129 10.73 5.79377 10.9893 5.57687C11.7694 4.92433 12.3747 4.60966 13.1046 4.47715C13.3959 4.42428 14.0451 4.42567 14.3368 4.47981ZM14.5006 4.65661C14.5214 4.66495 14.5463 4.66391 14.5559 4.65434C14.5655 4.64476 14.5484 4.63795 14.518 4.63919C14.4844 4.64058 14.4775 4.64741 14.5006 4.65661Z" fill="#1F1F21"/>
<path fill-rule="evenodd" clip-rule="evenodd" d="M14.3369 4.47981C15.7031 4.73334 16.6706 5.49738 17.0012 6.58381C17.1581 7.09914 17.1563 7.05749 17.1716 10.5256C17.1795 12.3339 17.1744 13.8776 17.1598 14.0457C17.1329 14.3549 17.0646 14.6025 16.9557 14.7853C16.7121 15.1946 15.8443 15.7703 15.471 15.7703C15.2718 15.7703 15.2854 16.0573 15.2854 11.8442C15.2854 9.42321 15.2745 7.94057 15.2554 7.75436C15.1834 7.05371 14.9032 6.5811 14.4189 6.34363C13.8797 6.0792 13.1322 6.22255 12.5837 6.6956C11.9317 7.25789 11.9004 7.28002 11.8293 7.22867C11.7547 7.17465 10.8131 6.3631 10.6315 6.1963C10.5335 6.10628 10.4894 6.0454 10.5008 6.01583C10.5102 5.99129 10.73 5.79377 10.9893 5.57687C11.7694 4.92433 12.3747 4.60966 13.1046 4.47715C13.396 4.42429 14.0452 4.42567 14.3369 4.47981ZM14.5559 4.65434C14.5464 4.66391 14.5214 4.66495 14.5006 4.65661C14.4776 4.64741 14.4844 4.64058 14.5181 4.63919C14.5485 4.63795 14.5655 4.64476 14.5559 4.65434Z" fill="#5DAADE"/>
<path d="M6.91437 4.27639C7.3399 4.36586 7.74116 4.54093 8.15125 4.81612C8.49945 5.04978 9.25332 5.62286 9.75829 6.03779C10.9119 6.98565 12.9961 8.92977 13.2365 9.28226C13.6354 9.86702 13.6895 10.6184 13.3969 11.5109C13.0368 12.6093 12.3837 13.3276 11.3596 13.7517C10.9543 13.9195 10.6173 13.986 10.0867 14.0028C9.55884 14.0195 9.26591 13.9849 8.80329 13.8509C7.55636 13.4899 6.59512 12.4132 6.37672 11.1329C6.3198 10.7992 6.33654 10.204 6.41058 9.92958C6.51239 9.55243 6.80306 9.03329 7.08384 8.72721C7.35771 8.42863 7.9554 8.04165 8.14394 8.04078C8.21732 8.04046 8.33388 8.12373 8.79341 8.5048C9.68916 9.24759 9.65787 9.19709 9.34641 9.39836C9.04402 9.59377 8.7177 9.92133 8.61884 10.1287C8.39897 10.5899 8.51498 11.1364 8.91831 11.5394C9.21652 11.8374 9.62358 12.0196 9.99265 12.0203C10.3549 12.021 10.6936 11.861 11.0003 11.5441C11.3136 11.2204 11.4578 10.8402 11.3903 10.5155C11.3173 10.1642 11.1409 9.94412 10.5011 9.40635C9.25497 8.35886 7.52117 6.89301 7.37616 6.76428C7.16737 6.57894 6.94312 6.44479 6.71225 6.36712C6.55791 6.3152 6.47593 6.30591 6.25006 6.31485C6.00739 6.32446 5.95035 6.33767 5.75869 6.42861C5.48294 6.55947 5.22286 6.79702 5.09695 7.03307C4.89732 7.40733 4.91164 7.09436 4.89466 11.4583L4.87931 15.4097L4.80714 15.5539C4.7045 15.7591 4.57512 15.8198 4.33566 15.7753C4.1069 15.7328 3.6842 15.5207 3.45772 15.3348C3.23421 15.1514 3.04587 14.873 2.94164 14.5722C2.86364 14.347 2.86171 14.3249 2.84159 13.434C2.81186 12.1168 2.8137 8.59583 2.8445 7.83848C2.87807 7.0134 2.94732 6.68202 3.19109 6.18001C3.70172 5.12843 4.72081 4.39395 5.88959 4.23514C6.14335 4.20065 6.65132 4.22109 6.91437 4.27639Z" fill="white"/>
</svg>
