<svg width="20" height="20" viewBox="0 0 20 20" fill="none" xmlns="http://www.w3.org/2000/svg">
<path d="M20 0H0V20H20V0Z" fill="black"/>
<path d="M10.0001 19.2221C15.0128 19.2221 19.0764 15.1585 19.0764 10.1459C19.0764 5.13316 15.0128 1.06958 10.0001 1.06958C4.98741 1.06958 0.923828 5.13316 0.923828 10.1459C0.923828 15.1585 4.98741 19.2221 10.0001 19.2221Z" fill="url(#paint0_linear_2480_3717)"/>
<path opacity="0.64" d="M18.8459 8.77812C18.8459 8.50002 18.8324 8.22517 18.8082 7.95337C18.6172 7.18352 18.3253 6.44226 17.9403 5.74878C18.2059 7.80661 17.7713 9.89395 16.7066 11.6748C15.6418 13.4557 14.0088 14.8265 12.0704 15.5667C10.132 16.3068 8.00097 16.3732 6.02026 15.7551C4.03954 15.1371 2.3244 13.8705 1.15088 12.1594C1.2182 12.4565 1.30056 12.7501 1.39764 13.0389C2.35173 14.8763 3.89504 16.3403 5.78024 17.1962C7.66544 18.0521 9.78339 18.2504 11.7947 17.7592C13.806 17.2681 15.5942 16.116 16.8727 14.4875C18.1513 12.859 18.8461 10.8485 18.8459 8.77812V8.77812Z" fill="#8B56AC"/>
<path d="M15.6779 15.294L14.8369 5.94797L12.8069 5.73397L9.81388 8.61697L6.88188 5.64197L4.85188 5.85597L4.15088 15.304L7.32688 13.957L7.37288 9.65997L9.81388 13.326L12.3189 9.50397L12.3829 13.875L15.6779 15.294Z" stroke="white" stroke-width="0.09715" stroke-miterlimit="10"/>
<path d="M15.2451 14.305L14.7031 5.30096L12.3741 4.95996L9.81415 8.15996L7.25415 4.95996L5.04315 5.24096L4.20215 14.385L7.14015 13.377L7.07715 8.47696L9.81415 12.494L12.5111 8.51696L12.4841 13.384L15.2451 14.305Z" fill="#684CB7"/>
<path d="M15.2448 14.5609L14.4038 5.41694L12.3738 5.21594L9.81381 8.41594L7.25381 5.21594L5.22381 5.41694L4.38281 14.5609L7.09781 13.3539L7.01581 8.15994L9.81381 12.7499L12.6118 8.15994L12.5298 13.3539L15.2448 14.5609Z" fill="url(#paint1_linear_2480_3717)"/>
<path d="M10.2609 1.92086C9.99199 1.89305 9.72188 1.87909 9.45158 1.87903C8.42814 1.87902 7.41472 2.0806 6.46918 2.47226C5.52365 2.86391 4.66451 3.43796 3.94083 4.16164C3.21714 4.88533 2.64309 5.74446 2.25143 6.69C1.85978 7.63554 1.6582 8.64896 1.6582 9.6724C1.6582 9.91948 1.67103 10.1635 1.69352 10.4047C2.11352 8.29781 3.15352 6.3645 4.68004 4.85286C6.20656 3.34121 8.14996 2.3202 10.2609 1.92086V1.92086Z" fill="#D57BBD"/>
<defs>
<linearGradient id="paint0_linear_2480_3717" x1="10.0001" y1="19.2221" x2="10.0001" y2="1.06957" gradientUnits="userSpaceOnUse">
<stop stop-color="#532D9B"/>
<stop offset="0.09619" stop-color="#692E9B"/>
<stop offset="0.28061" stop-color="#8F309C"/>
<stop offset="0.46518" stop-color="#AC329C"/>
<stop offset="0.64765" stop-color="#C0339D"/>
<stop offset="0.82713" stop-color="#CD349D"/>
<stop offset="1" stop-color="#D1349D"/>
</linearGradient>
<linearGradient id="paint1_linear_2480_3717" x1="4.93525" y1="9.88834" x2="14.9805" y2="9.88834" gradientUnits="userSpaceOnUse">
<stop stop-color="#8ADEFB"/>
<stop offset="0.05222" stop-color="#ADE8FC"/>
<stop offset="0.11537" stop-color="#D0F2FD"/>
<stop offset="0.17477" stop-color="#EAF9FE"/>
<stop offset="0.22834" stop-color="#FAFDFF"/>
<stop offset="0.27102" stop-color="white"/>
<stop offset="0.35649" stop-color="#C8F0FD"/>
<stop offset="0.44345" stop-color="#96E1FC"/>
<stop offset="0.48643" stop-color="#83DCFB"/>
<stop offset="0.73632" stop-color="white"/>
<stop offset="1" stop-color="#8FDFFB"/>
</linearGradient>
</defs>
</svg>
