<svg width="20" height="20" viewBox="0 0 20 20" fill="none" xmlns="http://www.w3.org/2000/svg">
<circle cx="10" cy="10" r="10" fill="#EF7E08"/>
<path fill-rule="evenodd" clip-rule="evenodd" d="M8.35328 0.511901C5.29234 1.0662 2.65375 3.06253 1.33328 5.823C0.699609 7.14784 0.390625 8.51698 0.390625 10C0.390625 15.3364 4.66359 19.6094 10 19.6094C15.3346 19.6094 19.6094 15.3346 19.6094 10C19.6094 5.29432 16.2505 1.32073 11.5852 0.507136C10.765 0.364167 9.15617 0.366511 8.35328 0.511901ZM8.34039 3.63667C8.56633 3.73753 9.67375 4.37471 10.8013 5.0526C12.7452 6.2212 12.8704 6.28401 13.2143 6.26417C13.5276 6.24604 13.5995 6.27167 13.7416 6.45245C14.0728 6.87346 13.8412 7.4219 13.3322 7.4219C12.992 7.4219 12.8109 7.27628 12.7442 6.94932C12.692 6.6926 12.5784 6.61385 10.3661 5.29956C8.84398 4.39526 7.93359 3.90089 7.72609 3.86581C6.92609 3.73065 6.17023 4.10557 5.75031 4.84589L5.50781 5.27346L5.48211 7.12893L5.45633 8.9844H6.07266C6.97266 8.9844 6.98359 8.99776 7.03125 10.1564C7.06508 10.9803 7.09047 11.1215 7.22195 11.2174C7.4357 11.3735 7.70758 11.3549 7.89062 11.1719C8.0382 11.0243 8.04695 10.9107 8.04805 9.12112C8.0493 7.08768 8.07453 6.93604 8.44742 6.72675C8.70672 6.5812 9.07828 6.71518 9.20859 7.0012C9.26898 7.13362 9.29688 8.07854 9.29688 9.98807C9.29688 12.0564 9.32117 12.8056 9.39062 12.875C9.55828 13.0427 9.84102 12.9862 9.92383 12.7684C9.96695 12.6549 10 11.5882 10 10.3105C10 8.08878 10.0027 8.0505 10.171 7.8937C10.3855 7.69378 10.7085 7.68956 10.9484 7.88354C11.1267 8.02776 11.1341 8.07854 11.1719 9.42557C11.2068 10.672 11.2253 10.8213 11.3477 10.8447C11.472 10.8685 11.4844 10.7824 11.4844 9.89909C11.4844 9.03432 11.5022 8.90471 11.6463 8.72151C11.8444 8.46964 12.197 8.44706 12.4219 8.6719C12.5668 8.81682 12.5781 8.93229 12.5781 10.2639C12.5781 11.4397 12.5991 11.7171 12.6944 11.7961C12.8651 11.9378 12.8819 11.837 12.9073 10.5204L12.9297 9.36112L13.1555 9.16706C13.3238 9.02237 13.4333 8.98573 13.5852 9.02292C13.933 9.10807 14.0207 9.26307 14.0625 9.86589C14.0979 10.3772 14.118 10.4321 14.2773 10.4547C14.4886 10.4847 14.475 10.6081 14.4544 8.84768C14.4377 7.42229 14.4377 7.4219 14.6109 7.4219C14.8112 7.4219 15.6012 7.88401 16.0009 8.23495C16.715 8.86198 16.9369 10.1246 16.4966 11.0554C16.3744 11.3136 16.1508 11.6335 15.9997 11.7661C15.6987 12.0304 9.46328 15.7832 8.50688 16.2757C8.00164 16.5359 7.83719 16.5824 7.41313 16.5849C6.72391 16.5889 6.20164 16.3509 5.70328 15.8057C5.12898 15.1773 5.07812 14.9345 5.07812 12.8229C5.07812 11.119 5.07281 11.0592 4.90625 10.8818C4.55211 10.5049 4.77211 9.84378 5.25164 9.84378C5.56938 9.84378 5.75187 9.95964 5.84219 10.2187C5.93164 10.4754 5.79992 10.8757 5.58656 10.995C5.46898 11.0608 5.45852 11.252 5.48187 12.8974L5.50781 14.7266L5.73523 15.1371C6.19977 15.9754 7.13688 16.3648 7.97156 16.0663C8.41578 15.9074 15.5655 11.6008 15.7919 11.3558C16.1723 10.9439 16.286 10.6317 16.2857 10C16.2854 9.35003 16.1309 8.95596 15.7298 8.58221C15.502 8.36987 15.0051 8.04768 14.9046 8.04721C14.8737 8.04706 14.8702 8.55401 14.897 9.17385C14.9516 10.4367 14.8931 10.7095 14.5366 10.8572C14.2884 10.96 13.9583 10.8989 13.8118 10.7229C13.7563 10.6563 13.6934 10.3524 13.6719 10.0477C13.6404 9.60089 13.6064 9.4887 13.4961 9.46768C13.3706 9.44385 13.3594 9.54198 13.3594 10.6619C13.3594 11.8533 13.3548 11.8867 13.1676 12.0739C12.9284 12.3131 12.5783 12.3253 12.3754 12.1014C12.2433 11.9557 12.2222 11.77 12.1875 10.4477C12.1603 9.41065 12.1207 8.94885 12.0571 8.92776C11.9912 8.90596 11.9585 9.18487 11.9399 9.92448C11.9144 10.9391 11.9114 10.9537 11.6948 11.1398C11.4263 11.3706 11.255 11.377 10.9871 11.1662L10.7812 11.0043V9.71581C10.7812 8.41549 10.7236 8.09206 10.5066 8.17534C10.4077 8.21331 10.3906 8.55799 10.3906 10.5201C10.3906 12.4189 10.37 12.8601 10.2727 13.0485C10.037 13.5041 9.50469 13.5792 9.13461 13.2092L8.90625 12.9808L8.90508 10.1428C8.90438 8.58182 8.87281 7.25565 8.83484 7.19565C8.79688 7.13573 8.70945 7.10823 8.6407 7.13464C8.53078 7.17682 8.51562 7.41253 8.51531 9.07964C8.51508 10.8221 8.50266 10.9969 8.36281 11.2263C8.05945 11.7238 7.51789 11.8766 7.04594 11.5978C6.68117 11.3824 6.5625 11.0382 6.5625 10.1957V9.45901L5.83984 9.43659L5.11719 9.41409L5.09625 7.42706C5.07156 5.07675 5.11273 4.84846 5.67438 4.22378C6.42563 3.38823 7.33531 3.18792 8.34039 3.63667ZM13.1286 6.67534C12.9176 6.92964 13.2668 7.2355 13.5009 7.00143C13.6003 6.9019 13.6105 6.84089 13.545 6.73682C13.4309 6.55573 13.2501 6.52901 13.1286 6.67534Z" fill="black"/>
</svg>
