<svg width="20" height="20" viewBox="0 0 20 20" fill="none" xmlns="http://www.w3.org/2000/svg">
<rect width="20" height="20" fill="#00DACC"/>
<path fill-rule="evenodd" clip-rule="evenodd" d="M8.4963 0.0926772C6.49244 0.358381 4.52341 1.37515 2.98559 2.93818C0.865542 5.09302 -0.126326 7.69674 0.012844 10.7421C0.0592341 11.758 0.313562 13.0934 0.586998 13.7568C1.22011 15.2927 1.90104 16.3512 2.91304 17.3728C3.70709 18.1743 4.77304 18.9953 5.31736 19.2247C5.66375 19.3707 5.76307 19.2987 6.25435 18.5458C6.60535 18.0078 7.23417 16.539 7.23417 16.2572C7.23417 16.1774 7.09775 16.0818 6.931 16.0445C6.76424 16.0073 6.46331 15.8632 6.26232 15.7244C6.06123 15.5856 5.84675 15.472 5.78565 15.472C5.72444 15.472 5.52111 15.3755 5.3336 15.2577C5.08571 15.1018 4.89034 14.8206 4.6168 14.2263C4.40079 13.7568 4.16476 13.389 4.06196 13.3615C3.80396 13.2929 3.54605 12.8437 3.48086 12.3494C3.43427 11.9961 3.35722 11.8785 3.03903 11.6741C2.56552 11.3699 2.35074 11.0694 2.26419 10.5897C2.22772 10.3878 2.14832 10.1898 2.08783 10.1501C2.01109 10.0996 2.02151 9.95844 2.12247 9.68234C2.20207 9.46477 2.25602 9.04999 2.24243 8.76069C2.21178 8.1087 2.32458 7.79674 2.77356 7.29111C2.96658 7.07375 3.11812 6.8491 3.11025 6.79193C3.10228 6.73475 3.19935 6.64182 3.32575 6.58537C3.45215 6.52893 3.55566 6.42705 3.55566 6.35896C3.55566 6.29098 3.68205 6.13879 3.83665 6.02091C3.99125 5.90313 4.17549 5.75718 4.2462 5.69668C4.31701 5.63618 4.56888 5.51694 4.80594 5.43191C5.04668 5.34542 5.43721 5.06766 5.69021 4.80289C6.27346 4.19238 7.47654 3.291 8.00052 3.07176C8.77802 2.74649 9.49849 2.68173 10.5022 2.84691C11.0119 2.9308 11.9323 3.07083 12.5478 3.15815C13.9955 3.36356 14.5355 3.63529 14.976 4.37991C15.152 4.67742 15.3471 5.06111 15.4097 5.23263C15.4722 5.40416 15.7268 5.89824 15.9753 6.33048C16.3857 7.04422 16.418 7.14932 16.3266 7.47334C16.0832 8.33677 16.2806 8.70726 17.5422 9.75459C18.0416 10.1693 18.0357 10.3067 17.5025 10.677C17.1733 10.9057 17.1519 10.9532 17.2106 11.3261C17.2497 11.575 17.2277 11.7852 17.1529 11.8769C17.0594 11.9914 17.0606 12.0721 17.1582 12.2312C17.2625 12.4011 17.2529 12.4862 17.1026 12.7194C16.9789 12.9113 16.9406 13.1032 16.9828 13.318C17.0686 13.7541 16.8575 14.2866 16.5407 14.4336C16.3958 14.5009 15.7564 14.5821 15.1198 14.614C13.7775 14.6813 13.7604 14.694 13.506 15.8029C13.4234 16.1636 13.3118 16.5033 13.2581 16.5579C13.2045 16.6125 13.1607 16.7265 13.1607 16.8113C13.1607 16.8963 13.0687 17.1676 12.9563 17.4143C12.8439 17.661 12.658 18.0689 12.5433 18.3205C12.2103 19.051 12.1363 19.4067 12.2601 19.6831C12.321 19.8192 12.4294 19.9534 12.501 19.9814C12.8755 20.1275 14.5584 19.3917 15.8135 18.5329C17.8661 17.1285 19.5058 14.4825 19.9004 11.9376C20.0335 11.0795 20.0331 9.3972 19.8996 8.45518C19.3063 4.26909 15.7006 0.683234 11.4929 0.0947564C10.5948 -0.0308189 9.43361 -0.0316505 8.4963 0.0926772ZM11.6606 6.88413C11.2163 7.50744 10.7109 8.63491 10.7062 9.01361C10.7037 9.21622 9.83569 10.2498 9.74444 10.1589C9.7095 10.1238 9.72534 9.97622 9.7797 9.83068C9.92847 9.43265 10.0278 8.35018 9.94594 8.0193L9.8738 7.72751L9.63797 8.0061C9.3771 8.31422 9.24202 9.20988 9.2881 10.3263C9.30885 10.8297 9.26654 11.0303 9.06903 11.3659C8.56466 12.2227 8.46054 12.1976 8.45972 11.2186C8.45911 10.4854 8.30584 9.75459 8.15257 9.75459C8.10097 9.75459 8.00635 9.85428 7.94228 9.97601C7.85287 10.1461 7.86646 10.4903 8.00093 11.4573C8.09719 12.1503 8.19548 12.7503 8.21929 12.7907C8.2431 12.8312 8.15522 13.1234 8.02392 13.44C7.83867 13.8869 7.75784 13.9881 7.66292 13.8915C7.59568 13.8231 7.53856 13.6946 7.53591 13.606C7.52753 13.327 6.86397 12.199 6.6875 12.1639C6.2659 12.0798 6.65838 13.2392 7.35862 14.146C7.63594 14.5051 7.64994 14.5635 7.54061 14.9006C7.47542 15.1015 7.44129 15.324 7.46479 15.395C7.48829 15.4659 7.53887 15.355 7.57719 15.1484C7.64585 14.7784 7.65566 14.772 8.23247 14.7123C9.08517 14.6243 9.55285 14.4591 9.92183 14.1157C10.1757 13.8795 10.2177 13.7914 10.1106 13.7198C9.93205 13.6006 9.24406 13.7555 8.71579 14.0337C8.49099 14.1521 8.20049 14.2903 8.07021 14.3408C7.85788 14.4232 7.8401 14.4086 7.89855 14.1987C7.93441 14.07 8.06398 13.7242 8.18649 13.4304L8.40925 12.896L9.32887 12.8505C10.0507 12.8148 10.331 12.7542 10.6317 12.5689C10.8425 12.4391 11.0149 12.2964 11.0149 12.252C11.0149 12.1336 10.1492 12.2442 9.3443 12.4654L8.64436 12.6578L8.71282 12.3757C8.75053 12.2205 8.92087 11.8714 9.0913 11.5998C9.38783 11.1273 9.42176 11.1059 9.87595 11.1046C10.4404 11.1031 11.4237 10.806 11.9886 10.4663L12.3943 10.2224L11.8012 10.191C11.3906 10.1694 11.0358 10.2253 10.6478 10.3729C9.70357 10.7324 9.66607 10.6454 10.4088 9.81842C10.9155 9.25447 10.9384 9.2421 11.4562 9.25551C12.3134 9.27755 13.6716 8.8688 13.6716 8.58865C13.6716 8.45622 12.8468 8.4978 12.2458 8.66048C11.3742 8.89646 11.4026 8.71246 12.3177 8.19425C13.2908 7.6433 14.489 6.80316 14.489 6.67197C14.489 6.49837 13.8485 6.68839 13.2628 7.0357C12.8081 7.30525 12.6875 7.39548 12.1558 7.86316C11.8216 8.15714 11.5258 8.33137 11.5258 8.23407C11.5258 8.19425 11.6432 7.95776 11.7867 7.70859C11.9302 7.45941 12.1137 7.03435 12.1943 6.76386C12.2073 6.72028 12.2193 6.68017 12.2304 6.64326C12.3219 6.33778 12.3478 6.25124 12.3208 6.22771C12.3101 6.21841 12.2912 6.21895 12.2647 6.21971C12.2567 6.21994 12.248 6.22019 12.2386 6.22019C12.1809 6.22019 11.9209 6.51895 11.6606 6.88413Z" fill="white"/>
</svg>
