<svg width="20" height="20" viewBox="0 0 20 20" fill="none" xmlns="http://www.w3.org/2000/svg">
<circle cx="10" cy="10" r="9.75" fill="#141415" stroke="#91FCA9" stroke-width="0.5"/>
<mask id="mask0_2289_3080" style="mask-type:alpha" maskUnits="userSpaceOnUse" x="0" y="0" width="20" height="20">
<circle cx="10" cy="10" r="9.75" fill="#141415" stroke="#91FCA9" stroke-width="0.5"/>
</mask>
<g mask="url(#mask0_2289_3080)">
<path fill-rule="evenodd" clip-rule="evenodd" d="M6.18285 4.94575C6.23845 4.94575 6.29345 4.94959 6.34697 4.95699C6.64771 4.95876 6.94727 5.07438 7.17645 5.30356L10.0934 8.22018L15.9674 2.34643C16.4293 1.88452 17.1784 1.88452 17.6403 2.34643C18.0868 2.79296 18.1016 3.50769 17.6849 3.97196L17.6406 4.01928L10.0934 11.5659L7.36571 8.83852V13.8171C7.36571 14.4707 6.83638 15 6.18285 15C5.52933 15 5 14.4707 5 13.8171V6.1286C5 5.47507 5.52933 4.94575 6.18285 4.94575V4.94575ZM13.8714 12.6343C14.5249 12.6343 15.0543 13.1636 15.0543 13.8171C15.0543 14.4707 14.5249 15 13.8714 15C13.2179 15 12.6885 14.4707 12.6885 13.8171C12.6885 13.1636 13.2179 12.6343 13.8714 12.6343ZM13.8714 9.67716C14.5249 9.67716 15.0543 10.2065 15.0543 10.86C15.0543 11.5135 14.5249 12.0429 13.8714 12.0429C13.2179 12.0429 12.6885 11.5135 12.6885 10.86C12.6885 10.2065 13.2179 9.67716 13.8714 9.67716Z" fill="#64FFA1"/>
</g>
</svg>
