<svg width="20" height="20" viewBox="0 0 20 20" fill="none" xmlns="http://www.w3.org/2000/svg">
<path fill-rule="evenodd" clip-rule="evenodd" d="M13.2316 4.01791C13.3243 4.0458 13.4227 4.11768 13.4895 4.20619C13.5209 4.24777 13.8014 4.74662 14.1128 5.31475C14.4243 5.88288 14.8872 6.72744 15.1416 7.19155C16.1375 9.0087 16.9706 10.4851 17.4117 11.2143C17.7048 11.699 17.9341 12.0533 18.7864 13.3384C19.9875 15.1497 19.9602 15.1056 19.9922 15.2789C20.0335 15.5026 19.9075 15.7161 19.6952 15.7817C19.6062 15.8091 19.4315 15.8097 10.0187 15.8131C2.54905 15.8159 0.4148 15.8127 0.351032 15.799C0.193585 15.765 0.0759721 15.6581 0.0239164 15.5015C-0.0290849 15.3421 0.00655995 15.175 0.125336 15.0261C0.160443 14.9821 0.525094 14.5893 0.935661 14.1532C2.35659 12.6439 3.02368 11.9123 3.23631 11.63C3.30905 11.5334 3.48688 11.2743 3.63148 11.0543C3.77609 10.8342 4.53625 9.69184 5.32073 8.51567C6.85178 6.22014 6.86123 6.20694 7.04648 6.10821C7.172 6.0413 7.27683 6.03343 7.38469 6.08281C7.42922 6.10321 7.49395 6.14824 7.52853 6.18288C7.5631 6.21753 7.7869 6.52412 8.02587 6.8642C9.40553 8.82765 9.94016 9.58212 9.99643 9.64507C10.0945 9.75483 10.1408 9.7382 10.2291 9.56148C10.2535 9.51264 10.8081 8.308 11.4616 6.8845C12.1957 5.28531 12.6729 4.26297 12.7103 4.20904C12.7725 4.11952 12.8765 4.03738 12.9574 4.01393C13.0267 3.99384 13.158 3.99576 13.2316 4.01791ZM13.1996 9.74946C13.1998 9.52966 13.3002 6.23617 13.3114 6.0822C13.319 5.9784 13.3198 5.97672 13.3596 5.97672C13.3933 5.97672 13.411 5.99303 13.466 6.07493C13.5255 6.16365 13.9707 6.96691 15.4086 9.58052C15.6737 10.0623 15.897 10.4845 15.905 10.5189C15.9466 10.6993 15.9986 10.706 14.5448 10.3441C13.8724 10.1768 13.3013 10.0291 13.2758 10.0159C13.2503 10.0027 13.2227 9.9793 13.2144 9.9639C13.2062 9.9485 13.1995 9.852 13.1996 9.74946ZM11.8902 8.12267C12.6374 6.51613 12.61 6.57203 12.6849 6.50323L12.7532 6.4405L12.772 6.48522C12.7824 6.50982 12.7948 6.55114 12.7996 6.57705C12.8081 6.62266 12.7858 7.6384 12.7406 9.25748C12.7194 10.0177 12.7177 10.0452 12.6863 10.109C12.6302 10.2229 10.5894 12.7094 10.4987 12.7744C10.4498 12.8093 10.4331 12.8146 10.4097 12.8021C10.3819 12.7872 10.3811 12.7735 10.3867 12.4115C10.3968 11.7625 10.4267 11.4495 10.5089 11.1304C10.5666 10.9067 10.6379 10.7399 10.9269 10.1522C11.2064 9.58387 11.414 9.14649 11.8902 8.12267ZM7.34356 7.73713C7.358 7.68824 7.38242 7.64441 7.4063 7.62445C7.42781 7.60648 7.44889 7.59176 7.45317 7.59171C7.45744 7.59167 7.4718 7.62096 7.48509 7.65679C7.50771 7.71781 7.89497 8.26494 9.18624 10.0602C9.76148 10.86 9.78421 10.894 9.84508 11.0461C9.9297 11.2577 9.93211 11.294 9.91336 12.0727C9.89782 12.7178 9.88405 12.9158 9.85231 12.9511C9.83156 12.9741 9.68341 12.8173 8.96736 12.0142C8.57839 11.578 8.02444 10.9577 7.73637 10.6359C7.38979 10.2487 7.19785 10.0227 7.16897 9.9679C7.13139 9.89658 7.12561 9.87078 7.12746 9.78224C7.1313 9.59667 7.31903 7.82007 7.34356 7.73713ZM5.82914 9.44149C6.39714 8.58934 6.63462 8.24462 6.66944 8.22178C6.73611 8.17805 6.74628 8.1801 6.7747 8.24311C6.79862 8.29615 6.79742 8.31818 6.74074 8.87234C6.65834 9.67782 6.64839 9.74631 6.60235 9.82485C6.55756 9.90131 6.51765 9.9294 5.96142 10.2763C5.2757 10.7039 5.16969 10.7648 5.08913 10.7777C5.04877 10.7842 5.01407 10.7879 5.01204 10.786C5.01 10.7841 5.01487 10.7481 5.02286 10.706C5.03549 10.6393 5.14004 10.4754 5.82914 9.44149ZM6.10691 10.748C6.41898 10.5535 6.69722 10.3861 6.72523 10.3758C6.75324 10.3656 6.78171 10.3569 6.7885 10.3566C6.83433 10.3542 6.91323 10.4208 7.02597 10.5569C7.09662 10.6423 7.25942 10.8333 7.38774 10.9814C7.51607 11.1295 7.62595 11.2586 7.6319 11.2682C7.64153 11.2838 7.03727 12.1026 5.42404 14.2599C5.22237 14.5296 5.05881 14.7346 5.03255 14.7506C4.97696 14.7844 4.94454 14.7682 4.89668 14.6827C4.86831 14.6321 4.02909 12.6966 3.95738 12.5164C3.91488 12.4097 3.91705 12.3114 3.96365 12.232C3.98457 12.1964 4.07272 12.0985 4.15955 12.0145C4.31026 11.8686 4.34507 11.8445 4.92845 11.4816C5.26453 11.2726 5.79483 10.9425 6.10691 10.748ZM11.0457 12.8874C12.1718 11.5248 12.8273 10.7195 12.8676 10.6492C12.9044 10.585 12.9154 10.5749 12.9308 10.591C12.9493 10.6103 13.2055 10.9799 14.2397 12.48C15.5863 14.4331 15.737 14.6559 15.7638 14.7334C15.7786 14.7765 15.7877 14.8197 15.7839 14.8296C15.7662 14.8758 15.6486 14.8806 14.5497 14.8804C13.6295 14.8802 13.4393 14.8767 13.3619 14.8585C13.2582 14.834 13.2122 14.8135 11.732 14.131C11.145 13.8603 10.6441 13.625 10.619 13.6082C10.5592 13.568 10.551 13.5025 10.5976 13.4365C10.6159 13.4106 10.8176 13.1635 11.0457 12.8874ZM14.3844 11.8472C13.7193 10.8813 13.5932 10.6913 13.5925 10.6538C13.5917 10.6092 13.8703 10.668 14.9985 10.9506C15.6399 11.1113 16.2025 11.257 16.2488 11.2743C16.3615 11.3164 16.4598 11.4146 16.4948 11.52C16.5175 11.5882 16.5197 11.6313 16.512 11.8465C16.5048 12.0492 16.4348 13.0956 16.3575 14.1564C16.3462 14.3114 16.3359 14.3701 16.3116 14.4183C16.2943 14.4525 16.2779 14.4831 16.275 14.4863C16.2721 14.4895 16.2438 14.4741 16.2121 14.4521C16.1523 14.4107 16.0074 14.2042 14.3844 11.8472ZM7.64259 12.0888C7.77419 11.9096 7.9015 11.7507 7.92551 11.7357C7.97656 11.7037 8.02556 11.7107 8.07651 11.7573C8.09554 11.7747 8.31347 12.0132 8.56077 12.2872C8.80808 12.5612 9.15587 12.9442 9.33363 13.1383C9.74933 13.5922 9.73684 13.5766 9.73684 13.6418C9.73684 13.711 9.72795 13.7232 9.47538 14.0004C9.35873 14.1284 9.19533 14.3085 9.11228 14.4005C8.83632 14.7063 8.7294 14.811 8.66088 14.8427C8.59512 14.8731 8.58706 14.8733 7.19079 14.8733C5.88093 14.8733 5.78318 14.8716 5.73239 14.8477L5.67795 14.8221L5.70498 14.751C5.72224 14.7055 6.03429 14.2701 6.56767 13.5472C7.02728 12.9242 7.511 12.268 7.64259 12.0888ZM16.9458 12.5601C16.9498 12.5361 16.966 12.4953 16.9818 12.4694L17.0105 12.4224L17.0597 12.4514C17.1272 12.4912 17.1212 12.4831 17.4047 12.9165C17.5434 13.1286 17.8622 13.6156 18.1131 13.9989C18.3641 14.3821 18.5789 14.714 18.5905 14.7365C18.6203 14.794 18.6168 14.8317 18.5793 14.8579C18.5509 14.8778 18.4438 14.8806 17.7083 14.8806C16.8949 14.8806 16.8686 14.8797 16.8331 14.8518C16.813 14.836 16.7929 14.8049 16.7884 14.7827C16.7809 14.7461 16.9285 12.6629 16.9458 12.5601ZM1.85292 14.5376C2.29381 14.057 3.34876 12.9278 3.41155 12.8692C3.48422 12.8014 3.5389 12.7967 3.57995 12.8547C3.59555 12.8767 3.67852 13.0616 3.76434 13.2657C3.85017 13.4697 4.02772 13.8837 4.15891 14.1857C4.31673 14.549 4.39742 14.7519 4.39742 14.7855C4.39742 14.8871 4.47865 14.8817 3.02102 14.8771C1.90172 14.8737 1.70394 14.8699 1.64924 14.8512L1.58531 14.8293L1.85292 14.5376ZM9.5918 14.5896C9.95804 14.1818 10.1393 13.9885 10.1657 13.9778C10.1819 13.9712 10.2002 13.9654 10.2065 13.9649C10.218 13.964 10.6828 14.18 11.4964 14.5644C11.74 14.6794 11.9418 14.7813 11.9449 14.7906C11.9602 14.8363 11.7446 14.8621 11.1877 14.8815C10.5324 14.9043 9.60297 14.8648 9.45309 14.8078C9.40613 14.79 9.39216 14.812 9.5918 14.5896Z" fill="#00316D"/>
<path d="M6.72537 10.3758C6.69736 10.3861 6.41912 10.5535 6.10705 10.748C5.79497 10.9425 5.26467 11.2726 4.92859 11.4816C4.34521 11.8445 4.3104 11.8686 4.15969 12.0145C4.07286 12.0985 3.98471 12.1964 3.96379 12.232C3.91719 12.3115 3.91502 12.4097 3.95752 12.5164C4.02923 12.6966 4.86845 14.6321 4.89682 14.6827C4.94468 14.7682 4.9771 14.7844 5.03269 14.7506C5.05895 14.7346 5.22251 14.5296 5.42418 14.2599C7.03741 12.1026 7.64167 11.2838 7.63204 11.2682C7.62609 11.2586 7.51621 11.1295 7.38788 10.9814C7.25956 10.8333 7.09676 10.6423 7.02611 10.5569C6.91337 10.4208 6.83447 10.3542 6.78864 10.3566C6.78185 10.3569 6.75338 10.3656 6.72537 10.3758Z" fill="white"/>
<path d="M3.41169 12.8692C3.3489 12.9278 2.29395 14.057 1.85306 14.5376L1.58545 14.8293L1.64938 14.8512C1.70408 14.8699 1.90186 14.8737 3.02116 14.8771C4.47879 14.8817 4.39756 14.8871 4.39756 14.7855C4.39756 14.7519 4.31687 14.549 4.15905 14.1857C4.02786 13.8837 3.85031 13.4697 3.76448 13.2657C3.67866 13.0616 3.59569 12.8767 3.58009 12.8547C3.53903 12.7967 3.48436 12.8014 3.41169 12.8692Z" fill="white"/>
<path d="M6.66958 8.22178C6.63476 8.24462 6.39728 8.58934 5.82928 9.44149C5.14018 10.4754 5.03563 10.6393 5.023 10.706C5.01501 10.7481 5.01014 10.7841 5.01218 10.786C5.01421 10.7879 5.04891 10.7842 5.08927 10.7777C5.16983 10.7648 5.27584 10.7039 5.96156 10.2763C6.51779 9.9294 6.5577 9.90131 6.60249 9.82485C6.64852 9.74631 6.65847 9.67782 6.74088 8.87234C6.79756 8.31818 6.79876 8.29615 6.77484 8.24311C6.74642 8.1801 6.73625 8.17805 6.66958 8.22178Z" fill="white"/>
<path d="M7.40644 7.62445C7.38255 7.64441 7.35814 7.68825 7.3437 7.73713C7.31917 7.82007 7.13144 9.59667 7.1276 9.78224C7.12575 9.87079 7.13153 9.89658 7.16911 9.9679C7.19799 10.0227 7.38993 10.2487 7.73651 10.6359C8.02458 10.9577 8.57853 11.578 8.9675 12.0142C9.68355 12.8173 9.8317 12.9741 9.85245 12.9511C9.88419 12.9158 9.89796 12.7178 9.9135 12.0727C9.93225 11.294 9.92983 11.2577 9.84522 11.0461C9.78435 10.894 9.76162 10.86 9.18638 10.0602C7.89511 8.26495 7.50785 7.71781 7.48523 7.65679C7.47194 7.62096 7.45758 7.59167 7.45331 7.59171C7.44903 7.59176 7.42795 7.60648 7.40644 7.62445Z" fill="white"/>
<path d="M7.92565 11.7357C7.90164 11.7507 7.77433 11.9096 7.64273 12.0888C7.51114 12.268 7.02742 12.9242 6.56781 13.5472C6.03443 14.2701 5.72238 14.7055 5.70512 14.751L5.67809 14.8221L5.73253 14.8477C5.78332 14.8716 5.88107 14.8733 7.19093 14.8733C8.5872 14.8733 8.59526 14.8731 8.66102 14.8427C8.72954 14.811 8.83646 14.7063 9.11242 14.4005C9.19547 14.3085 9.35887 14.1284 9.47552 14.0004C9.72809 13.7232 9.73697 13.711 9.73697 13.6418C9.73697 13.5766 9.74947 13.5922 9.33377 13.1383C9.15601 12.9442 8.80822 12.5612 8.56091 12.2872C8.31361 12.0132 8.09568 11.7747 8.07665 11.7573C8.0257 11.7107 7.9767 11.7037 7.92565 11.7357Z" fill="white"/>
<path d="M10.1658 13.9778C10.1395 13.9885 9.95818 14.1818 9.59194 14.5896C9.3923 14.812 9.40627 14.79 9.45323 14.8078C9.60311 14.8648 10.5325 14.9043 11.1879 14.8815C11.7447 14.8622 11.9603 14.8363 11.9451 14.7906C11.942 14.7813 11.7401 14.6794 11.4965 14.5644C10.6829 14.18 10.2181 13.964 10.2066 13.9649C10.2004 13.9654 10.182 13.9712 10.1658 13.9778Z" fill="white"/>
<path d="M12.8677 10.6492C12.8275 10.7195 12.172 11.5248 11.0459 12.8874C10.8177 13.1635 10.616 13.4106 10.5977 13.4365C10.5512 13.5025 10.5593 13.568 10.6192 13.6082C10.6443 13.625 11.1451 13.8603 11.7322 14.131C13.2124 14.8135 13.2584 14.834 13.3621 14.8585C13.4394 14.8767 13.6297 14.8802 14.5498 14.8804C15.6487 14.8806 15.7663 14.8758 15.7841 14.8296C15.7878 14.8197 15.7788 14.7765 15.7639 14.7334C15.7372 14.6559 15.5864 14.4331 14.2399 12.48C13.2056 10.9799 12.9495 10.6103 12.931 10.591C12.9155 10.5749 12.9045 10.585 12.8677 10.6492Z" fill="white"/>
<path d="M13.5927 10.6538C13.5933 10.6913 13.7194 10.8813 14.3845 11.8472C16.0075 14.2042 16.1524 14.4107 16.2123 14.4521C16.244 14.4741 16.2723 14.4895 16.2751 14.4863C16.278 14.4831 16.2945 14.4525 16.3117 14.4183C16.3361 14.3701 16.3463 14.3114 16.3576 14.1564C16.4349 13.0956 16.5049 12.0492 16.5122 11.8465C16.5199 11.6313 16.5176 11.5882 16.495 11.52C16.46 11.4146 16.3617 11.3164 16.249 11.2743C16.2027 11.257 15.64 11.1113 14.9986 10.9506C13.8705 10.668 13.5919 10.6092 13.5927 10.6538Z" fill="white"/>
<path d="M13.3116 6.0822C13.3003 6.23617 13.1999 9.52966 13.1997 9.74946C13.1997 9.852 13.2063 9.9485 13.2146 9.9639C13.2228 9.9793 13.2504 10.0027 13.2759 10.0159C13.3015 10.0291 13.8725 10.1768 14.5449 10.3441C15.9988 10.706 15.9467 10.6993 15.9051 10.5189C15.8972 10.4845 15.6738 10.0623 15.4088 9.58052C13.9708 6.96691 13.5257 6.16365 13.4661 6.07493C13.4111 5.99303 13.3935 5.97672 13.3597 5.97672C13.3199 5.97672 13.3191 5.9784 13.3116 6.0822Z" fill="white"/>
<path d="M12.6851 6.50323C12.6101 6.57203 12.6376 6.51613 11.8904 8.12267C11.4142 9.14649 11.2066 9.58387 10.9271 10.1522C10.638 10.7399 10.5667 10.9067 10.5091 11.1304C10.4268 11.4495 10.3969 11.7625 10.3869 12.4115C10.3813 12.7735 10.3821 12.7872 10.4098 12.8021C10.4332 12.8146 10.45 12.8093 10.4988 12.7744C10.5895 12.7094 12.6303 10.2229 12.6864 10.109C12.7178 10.0452 12.7196 10.0177 12.7408 9.25748C12.7859 7.6384 12.8083 6.62266 12.7998 6.57705C12.7949 6.55114 12.7825 6.50982 12.7722 6.48522L12.7534 6.4405L12.6851 6.50323Z" fill="white"/>
<path d="M16.982 12.4694C16.9662 12.4953 16.95 12.5361 16.9459 12.5601C16.9286 12.6629 16.7811 14.7461 16.7885 14.7827C16.793 14.8049 16.8131 14.836 16.8332 14.8518C16.8687 14.8797 16.895 14.8806 17.7084 14.8806C18.4439 14.8806 18.5511 14.8778 18.5794 14.8579C18.6169 14.8317 18.6204 14.794 18.5906 14.7365C18.579 14.714 18.3642 14.3821 18.1133 13.9989L17.4048 12.9165C17.1213 12.4831 17.1273 12.4912 17.0599 12.4514L17.0106 12.4224L16.982 12.4694Z" fill="white"/>
</svg>
