<svg width="20" height="20" viewBox="0 0 20 20" fill="none" xmlns="http://www.w3.org/2000/svg">
<path fill-rule="evenodd" clip-rule="evenodd" d="M10 1.33232C5.21297 1.33232 1.33232 5.21297 1.33232 10C1.33232 14.787 5.21297 18.6677 10 18.6677C14.787 18.6677 18.6677 14.787 18.6677 10C18.6677 5.21297 14.787 1.33232 10 1.33232ZM0 10C0 4.47715 4.47715 0 10 0C15.5228 0 20 4.47715 20 10C20 15.5228 15.5228 20 10 20C4.47715 20 0 15.5228 0 10Z" fill="url(#paint0_linear_3986_53145)"/>
<path d="M1.33232 10C1.33232 5.21297 5.21297 1.33232 10 1.33232C14.787 1.33232 18.6677 5.21297 18.6677 10C18.6677 14.787 14.787 18.6677 10 18.6677C5.21297 18.6677 1.33232 14.787 1.33232 10Z" fill="url(#paint1_linear_3986_53145)"/>
<path d="M14.8278 14.2646C14.7956 14.2646 14.7796 14.2485 14.7635 14.2324C14.7474 14.2163 14.7313 14.1841 14.7313 14.168V5.9607C14.7313 5.83196 14.6991 5.70322 14.6347 5.59057C14.5703 5.47792 14.4899 5.38136 14.3772 5.30089C14.2646 5.23652 14.1519 5.18825 14.0232 5.17215C13.8944 5.15606 13.7657 5.17215 13.6531 5.22043C12.5748 5.65494 11.561 6.23428 10.6276 6.94236C8.74474 8.35853 7.97229 10.1448 7.97229 11.8507C7.97229 13.5565 9.09878 14.2324 10.0161 14.2324C10.9334 14.2324 12.076 13.4278 12.076 11.8507C12.076 10.2736 11.6575 9.61377 11.1265 8.69648C11.6254 8.439 12.1564 8.24588 12.7197 8.13323C12.7519 8.13323 12.8001 8.13323 12.8323 8.13323C12.8645 8.14932 12.9128 8.16542 12.945 8.18151C12.9772 8.21369 12.9932 8.22979 13.0093 8.27807C13.0254 8.31025 13.0415 8.35853 13.0415 8.39072V14.2646C13.0415 14.4416 13.1059 14.6186 13.2346 14.7313C13.3634 14.86 13.5243 14.9244 13.7174 14.9244H15.3911V14.2485H14.8278V14.2646ZM10.0161 13.8784C9.61375 13.8784 8.97004 13.3473 8.97004 11.9794C8.97004 10.6115 9.80687 9.67814 10.0161 9.53331C10.1931 9.66205 11.0621 10.5793 11.0621 11.9794C11.0782 13.3634 10.4184 13.8784 10.0161 13.8784ZM8.34242 8.4229C8.02056 8.27807 7.66652 8.18151 7.31248 8.11714C7.2803 8.11714 7.23202 8.11714 7.19983 8.11714C7.16765 8.13323 7.13546 8.14933 7.10327 8.16542C7.07109 8.19761 7.055 8.21369 7.0389 8.26197C7.02281 8.29416 7.02281 8.34244 7.02281 8.37462V14.2646C7.02281 14.4416 6.95844 14.6186 6.8297 14.7313C6.70095 14.86 6.54003 14.9244 6.34691 14.9244H4.60889V14.2485H5.22041C5.2526 14.2485 5.26869 14.2324 5.28478 14.2163C5.30088 14.2002 5.31697 14.168 5.31697 14.1519V5.94461C5.31697 5.81586 5.34916 5.68712 5.41353 5.57447C5.4779 5.46182 5.55836 5.36526 5.67101 5.2848C5.78366 5.22043 5.89631 5.17215 6.02506 5.15606C6.1538 5.13997 6.28254 5.15606 6.39519 5.20434C7.52169 5.65494 8.56772 6.26646 9.5172 7.00673C9.08269 7.44124 8.68037 7.90793 8.34242 8.4229Z" fill="white"/>
<defs>
<linearGradient id="paint0_linear_3986_53145" x1="16.759" y1="17.3866" x2="2.35593" y2="3.064" gradientUnits="userSpaceOnUse">
<stop stop-color="#D6D879"/>
<stop offset="0.476538" stop-color="#16D6A1"/>
<stop offset="1" stop-color="#0BC6DA"/>
</linearGradient>
<linearGradient id="paint1_linear_3986_53145" x1="16.759" y1="17.3866" x2="2.35593" y2="3.064" gradientUnits="userSpaceOnUse">
<stop stop-color="#D6D879"/>
<stop offset="0.476538" stop-color="#16D6A1"/>
<stop offset="1" stop-color="#0BC6DA"/>
</linearGradient>
</defs>
</svg>
