<svg width="20" height="20" viewBox="0 0 20 20" fill="none" xmlns="http://www.w3.org/2000/svg">
<path d="M4.47685 2.2C4.16259 2.3238 3.52454 2.99994 3.52454 3.1904C3.52454 3.27611 3.30059 3.75661 3.21039 4.29684C2.84852 5.52532 2.58176 6.68538 2.45795 7.23772C2.41034 7.4758 2.25797 8.01862 2.13417 8.44716C2.00085 8.88522 1.858 9.43756 1.81038 9.68516C1.77229 9.94229 1.61992 10.5232 1.4866 10.9803C1.34375 11.4469 1.19138 11.9993 1.14377 12.2183C1.10567 12.4373 0.953304 12.9992 0.81998 13.4754C0.191455 15.7228 0.086701 16.1609 0.181932 16.399C0.372394 16.9037 1.21043 17.1322 1.59135 16.7799C1.69611 16.6942 2.18179 16.1418 2.66746 15.5704C3.16267 14.9895 3.66739 14.3991 3.80071 14.2563C4.20068 13.8087 4.29591 13.7039 5.20061 12.6564L6.06721 11.6469L6.34338 11.9802C6.49575 12.1707 6.70526 12.4088 6.81002 12.5135C6.92429 12.6278 7.44806 13.2182 7.99088 13.8468C9.13365 15.1419 9.39078 15.3324 10.0288 15.3324C10.6669 15.3324 11.124 15.0657 11.7144 14.342C12.0001 13.9896 12.0835 14.0048 12.3048 13.7134C12.331 13.679 12.3413 13.6584 12.381 13.5992C12.5441 13.3689 12.5429 13.2944 13.3143 12.5516C13.4762 12.3897 13.3804 12.472 13.619 12.1516C14.1076 11.7326 14.0857 11.666 14.1333 11.7326C14.4761 12.1707 17.9616 16.1799 18.2854 16.4942C18.6758 16.8846 18.7996 16.9513 19.1044 16.9513C19.571 16.9513 19.9995 16.5894 19.9995 16.2085C19.9995 16.0656 19.8948 15.6085 19.7614 15.1895C19.6281 14.7705 19.5234 14.342 19.5234 14.2372C19.5234 14.1325 19.39 13.6373 19.2377 13.1421C19.0758 12.6564 18.952 12.1707 18.952 12.085C18.952 11.9993 18.8187 11.5041 18.6568 10.9898C18.4949 10.4661 18.333 9.85658 18.2854 9.6185C18.2187 9.22805 18.0568 8.64714 17.5045 6.66634C17.3902 6.27589 17.2473 5.71403 17.1902 5.42834C16.8474 3.94273 16.495 2.89519 16.2284 2.62854C15.6475 2.03811 14.7809 1.92383 14.1333 2.36189C13.9143 2.50474 12.9143 3.57133 11.9144 4.73315L10.086 6.8568L9.86693 6.63777C9.74313 6.52349 9.38125 6.10447 9.04795 5.71403C8.71464 5.32358 8.39085 4.95218 8.34324 4.88552C8.2861 4.82838 8.08611 4.59982 7.90517 4.38079C7.72423 4.16176 7.45759 3.86654 7.31474 3.73322C7.16237 3.5999 7.17575 3.61836 7.02476 3.37913C6.81687 3.20309 6.92429 3.18088 6.7624 3.0666C6.64025 2.8767 6.65051 2.92797 6.47671 2.73329C6.40335 2.65112 6.30529 2.51426 6.11483 2.39046C5.71486 2.13334 4.87683 2.02859 4.47685 2.2Z" fill="url(#paint0_linear_4510_58014)"/>
<path d="M13.9747 2.37682L10.1315 6.7959L10.0596 6.86784L10.2034 7.01172L10.5117 7.36113L11.0152 7.78249L11.5804 8.21412C11.8236 8.31004 12.3162 8.51215 12.3408 8.55326C12.3717 8.60464 13.3479 8.77935 13.3684 8.83073C13.389 8.88212 14.1186 8.86157 14.1802 8.88212C14.2296 8.89856 14.7488 8.82046 15.0023 8.77935L15.66 8.61492L16.2046 8.3991C16.3587 8.29633 16.6855 8.08668 16.7595 8.07024C16.852 8.04969 17.2219 7.67972 17.2733 7.67972C17.3144 7.67972 17.5233 7.41252 17.6227 7.27892V7.17615L17.5096 6.73424L17.1191 5.25436L16.9136 4.45276C16.8691 4.33286 16.7759 4.03552 16.7595 3.80531C16.7389 3.51756 16.3382 2.71596 16.2046 2.54125C16.071 2.36654 16.0504 2.45903 15.8038 2.22267C15.5572 1.9863 15.3722 2.08907 15.3414 2.02741C15.3106 1.96574 14.7968 2.02741 14.694 2.02741C14.6118 2.02741 14.1802 2.26035 13.9747 2.37682Z" fill="url(#paint1_linear_4510_58014)"/>
<path d="M1.32979 11.5363L0.0184977 16.2806L0.0129141 16.5553C0.012845 16.5587 0.0134579 16.5621 0.0148748 16.5652C0.0417746 16.6238 0.133566 16.7436 0.164808 16.8113C0.204933 16.8983 0.515493 17.0769 0.597711 17.1539C0.663486 17.2156 0.9322 17.1859 1.05833 17.1633L1.47186 16.9132L2.03002 16.2461L2.86605 15.3046L3.53021 14.575L4.19589 13.77L5.05242 12.8504L5.58899 12.2152L5.83567 11.9294L6.06164 11.6324L5.99033 11.534L5.72449 11.2163L5.44927 10.8446L5.0999 10.5144L4.70646 10.291L4.26984 10.1313L3.89428 10.0591L3.49647 10.051L3.07641 10.1071L2.67554 10.2497L2.25241 10.4565L1.86897 10.7718L1.32979 11.5363Z" fill="url(#paint2_linear_4510_58014)"/>
<path d="M14.8685 10.841L14.1238 11.719H14.1084L14.1238 11.7396L14.1906 11.8217L14.3138 11.9655L14.5347 12.2274L14.7812 12.5252L15.1817 12.9771L15.4642 13.3108L15.7518 13.6343L16.0188 13.9527L16.4862 14.5021L17.236 15.3442L17.7238 15.9141L18.1552 16.3814L18.5198 16.7408L18.715 16.8794L18.8742 16.9411L19.0539 16.9565H19.2286L19.4032 16.9154L19.5675 16.8384L19.7164 16.7408L19.814 16.6433L19.891 16.556L19.9783 16.3454L19.9989 16.2068L19.9578 15.9141L19.6548 14.7639L19.2696 13.2697L19.0848 12.6074L18.7099 11.185L18.4942 10.4713L18.2733 9.59327L18.0166 8.52011L17.7392 7.57532L17.3849 7.96556L16.2653 9.23384L15.5515 10.0503L14.8685 10.841Z" fill="url(#paint3_linear_4510_58014)"/>
<defs>
<linearGradient id="paint0_linear_4510_58014" x1="11.7056" y1="13.2739" x2="3.48212" y2="3.10228" gradientUnits="userSpaceOnUse">
<stop stop-color="#324A70"/>
<stop offset="1" stop-color="#5792B9"/>
</linearGradient>
<linearGradient id="paint1_linear_4510_58014" x1="14.4705" y1="2" x2="12.0886" y2="6.93669" gradientUnits="userSpaceOnUse">
<stop offset="0.0081382" stop-color="#5186AF"/>
<stop offset="1" stop-color="#1C2244"/>
</linearGradient>
<linearGradient id="paint2_linear_4510_58014" x1="0.396648" y1="15.5759" x2="4.21102" y2="11.5513" gradientUnits="userSpaceOnUse">
<stop stop-color="#426B91"/>
<stop offset="1" stop-color="#1C2849"/>
</linearGradient>
<linearGradient id="paint3_linear_4510_58014" x1="19.5213" y1="17.1721" x2="15.4241" y2="9.86997" gradientUnits="userSpaceOnUse">
<stop stop-color="#5082AA"/>
<stop offset="1" stop-color="#181F3D"/>
</linearGradient>
</defs>
</svg>
