<svg width="20" height="20" viewBox="0 0 20 20" fill="none" xmlns="http://www.w3.org/2000/svg">
<path fill-rule="evenodd" clip-rule="evenodd" d="M3.11483 5.08829C2.95869 4.93215 2.96322 0.670007 3.11964 0.513587C3.18183 0.451396 3.30075 0.400513 3.38395 0.400513C3.62819 0.400513 5.64497 2.50106 5.64497 2.75538C5.64497 2.90332 5.33853 3.28419 4.67912 3.95595C3.63488 5.01988 3.29349 5.26695 3.11483 5.08829ZM13.8429 16.8377C13.8429 16.7401 14.3582 16.1479 15.012 15.4941C15.668 14.8381 16.2367 14.3433 16.3077 14.367C16.408 14.4003 16.4393 14.8927 16.4594 16.7506C16.4734 18.0564 16.447 19.1298 16.3996 19.1772C16.3489 19.2279 16.2052 19.2052 16.0445 19.1211C15.6482 18.9139 13.8429 17.0415 13.8429 16.8377Z" fill="#ED257E"/>
<path d="M4.63587 4.75754C3.5888 5.79679 3.1626 6.28499 3.09325 6.52433C3.0352 6.72466 3.00854 7.8962 3.02559 9.49357L3.05367 12.132L3.33268 12.1115C3.56119 12.0947 4.09443 11.6095 6.28355 9.42601C7.75304 7.96019 9.0175 6.64391 9.09335 6.50096C9.18824 6.32212 9.20332 6.18972 9.14169 6.07693C8.95776 5.74063 6.42499 3.32159 6.25679 3.32159C6.15841 3.32159 5.45339 3.94624 4.63587 4.75754Z" fill="#6D4FA1"/>
<path d="M11.1717 18.5641C12.2188 17.5248 16.4658 13.2204 16.5352 12.981C16.5932 12.7807 16.6199 11.6092 16.6028 10.0118L16.5747 7.37339L16.2957 7.39384C16.0672 7.41061 11.7132 11.7121 9.52404 13.8956C8.05455 15.3614 6.79009 16.6777 6.71424 16.8206C6.61935 16.9995 6.60427 17.1319 6.6659 17.2447C6.84983 17.581 9.38261 20 9.5508 20C9.64918 20 10.3542 19.3754 11.1717 18.5641Z" fill="#FCB43A"/>
<path d="M3.10059 18.469V13.711C3.10059 13.605 3.14273 13.5032 3.21774 13.4282L15.9631 0.682843C16.2151 0.430857 16.6459 0.609324 16.6459 0.965686V5.7236C16.6459 5.82969 16.6038 5.93143 16.5288 6.00645L3.78343 18.7518C3.53144 19.0038 3.10059 18.8253 3.10059 18.469Z" fill="#4BC9F1"/>
</svg>
