<svg width="20" height="20" viewBox="0 0 20 20" fill="none" xmlns="http://www.w3.org/2000/svg">
<circle cx="10" cy="10" r="10" fill="#7B17F5"/>
<path d="M11.1033 6.54076C10.7368 6.56452 10.4359 6.58601 10.4347 6.58827C10.4291 6.59393 10.575 10.0059 10.5807 10.0116C10.5863 10.0172 12.0706 9.89167 12.0774 9.88488C12.0796 9.88262 12.0751 9.64731 12.0683 9.36222C12.0604 9.076 12.057 8.81015 12.0593 8.76942L12.0627 8.69589L12.2935 9.32941C12.4202 9.67785 12.5288 9.96747 12.5333 9.97199C12.5435 9.98444 13.7291 10.0546 13.7393 10.0433C13.7449 10.0376 13.9485 6.50343 13.9429 6.50003C13.9406 6.4989 12.5186 6.59506 12.5129 6.59619C12.5107 6.59733 12.5084 6.83264 12.5073 7.11999L12.5039 7.64378L12.1464 7.0736C11.9507 6.7591 11.7844 6.50116 11.7787 6.50003C11.7731 6.4989 11.4687 6.51813 11.1033 6.54076Z" fill="white"/>
<path d="M2.71951 6.53175C2.71272 6.56455 2.49665 10.0161 2.50004 10.0195C2.50343 10.0218 3.89267 9.94488 3.89719 9.94148C3.89719 9.94148 3.92435 9.65074 3.95602 9.29551C3.98883 8.94028 4.01598 8.64388 4.01711 8.63596C4.01824 8.62804 4.06689 8.8215 4.12572 9.06586C4.18455 9.31022 4.23545 9.51498 4.23998 9.51951C4.2479 9.52856 5.01605 9.46747 5.02736 9.45616C5.03189 9.45276 5.09298 9.24687 5.16312 9.00024C5.23326 8.75362 5.29322 8.54998 5.29548 8.54772C5.29661 8.54546 5.31358 8.85996 5.33168 9.24573L5.36449 9.94827L5.46631 9.94148C5.52287 9.93809 5.83172 9.92904 6.15188 9.92225C6.47203 9.91433 6.73563 9.90868 6.73563 9.90754C6.74015 9.90415 6.46864 6.51478 6.46411 6.51025C6.46185 6.50686 6.12812 6.52948 5.72424 6.5589L4.9889 6.6132L4.8045 7.26596C4.70268 7.62571 4.61557 7.91306 4.61218 7.90627C4.60765 7.89836 4.52959 7.58046 4.43682 7.19921L4.26939 6.50686H3.49671H2.72404L2.71951 6.53175Z" fill="white"/>
<path d="M8.30062 6.52381C7.71573 6.61884 7.25077 6.96049 6.98265 7.4922C6.80843 7.84064 6.76205 8.30334 6.86387 8.70609C7.07429 9.53646 7.86959 10.0942 8.72825 10.0139C9.26109 9.96409 9.73511 9.68466 10.027 9.24798C10.4953 8.54657 10.406 7.61212 9.81317 7.02158C9.66157 6.87112 9.52808 6.77496 9.3482 6.68671C9.08687 6.55888 8.91378 6.51815 8.6072 6.51249C8.46239 6.5091 8.36849 6.51249 8.30062 6.52381ZM8.56987 7.3802C8.68186 7.42206 8.76219 7.50125 8.82215 7.63022C8.90586 7.80896 8.8855 8.01825 8.76671 8.19926C8.59136 8.46964 8.26555 8.53187 8.05512 8.33502C7.7904 8.08726 7.86959 7.58949 8.20219 7.41075C8.33116 7.34287 8.44316 7.33269 8.56987 7.3802Z" fill="white"/>
<path d="M15.5589 6.62223C15.1392 6.66861 14.7183 6.89147 14.4525 7.20711C14.1617 7.55215 14.0226 7.96847 14.0418 8.44136C14.052 8.714 14.1018 8.91876 14.2126 9.14842C14.3744 9.48215 14.6199 9.73896 14.9468 9.9177C15.4265 10.179 16.0566 10.1949 16.5171 9.95617L16.6121 9.90639L16.6076 9.99802L16.6031 10.0897L16.7818 10.0964C16.8814 10.101 17.0771 10.1078 17.2196 10.1112L17.4764 10.1191V10.0851C17.4764 10.0297 17.5432 8.42212 17.55 8.30786L17.5556 8.20378H16.5488H15.5419V8.22867C15.5419 8.25922 15.5883 8.84184 15.5905 8.8441C15.5917 8.84523 15.6946 8.83957 15.8191 8.83052C15.9435 8.8226 16.0657 8.81582 16.0906 8.81468H16.1347L16.0793 8.87238C15.9073 9.05 15.6697 9.11222 15.4932 9.02511C15.3654 8.96289 15.2398 8.78075 15.1957 8.59408C15.1674 8.4719 15.1776 8.24903 15.2183 8.13025C15.3009 7.88702 15.4627 7.72411 15.6629 7.68338C15.7512 7.66415 15.9062 7.67433 15.9865 7.70375C16.0646 7.73203 16.1879 7.81235 16.2467 7.87344L16.2908 7.9187L16.7784 7.6766C17.0477 7.54423 17.2683 7.42997 17.2717 7.42205C17.2796 7.3983 17.1427 7.2139 17.0409 7.11095C16.7513 6.81907 16.4345 6.66748 16.0114 6.61996C15.8915 6.60639 15.6856 6.60752 15.5589 6.62223Z" fill="white"/>
<path d="M13.3496 10.7935C12.982 10.8176 12.6785 10.8393 12.675 10.8439C12.6682 10.8508 12.8079 14.2991 12.8159 14.3083C12.8216 14.314 14.3231 14.1846 14.3299 14.1777C14.3334 14.1743 14.3288 13.904 14.3219 13.5753C14.3139 13.2478 14.3093 12.9775 14.3116 12.9752C14.3139 12.9729 14.4238 13.2638 14.5544 13.6223L14.7938 14.2728L14.8579 14.2796C14.9667 14.2911 16.0157 14.3472 16.0203 14.3426C16.0249 14.3369 16.2242 10.7569 16.2196 10.7534C16.2161 10.7523 14.7892 10.8473 14.7823 10.8496C14.78 10.8508 14.7789 11.0936 14.7789 11.3913V11.9319L14.4101 11.3398C14.2062 11.0145 14.0356 10.7489 14.0287 10.75C14.023 10.75 13.7172 10.7695 13.3496 10.7935Z" fill="white"/>
<path d="M8.83784 10.7718C8.21826 10.8554 7.66969 11.2848 7.43262 11.8723C7.28374 12.2423 7.27 12.721 7.39712 13.1012C7.54257 13.5364 7.84377 13.8926 8.25147 14.1124C8.66605 14.3346 9.19974 14.3793 9.6544 14.2281C10.1812 14.0529 10.6153 13.6165 10.7802 13.0955C10.8477 12.8836 10.8569 12.816 10.8569 12.5343C10.8569 12.327 10.8523 12.2583 10.8351 12.1793C10.7493 11.7819 10.5397 11.428 10.2442 11.1806C10.0071 10.9825 9.7506 10.8565 9.45169 10.7924C9.32686 10.7649 8.97298 10.7534 8.83784 10.7718ZM9.00275 11.6192C9.18828 11.6536 9.3177 11.7796 9.37839 11.9834C9.45283 12.2365 9.30395 12.5641 9.06116 12.6786C8.7382 12.8298 8.40952 12.5996 8.40837 12.2193C8.40608 11.9101 8.63513 11.6376 8.92259 11.6078C8.92946 11.6066 8.96496 11.6124 9.00275 11.6192Z" fill="white"/>
<path d="M5.33102 10.813C4.65418 10.8852 4.06208 11.3696 3.85594 12.0189C3.78952 12.2262 3.77921 12.3087 3.78035 12.5916C3.78035 12.8744 3.79295 12.9626 3.8651 13.1791C4.05636 13.7517 4.54652 14.1915 5.13747 14.3197C5.62649 14.4251 6.23805 14.3243 6.62743 14.0747C6.90344 13.8972 7.17601 13.6051 7.30656 13.3474L7.33405 13.2925L6.82785 12.9695C6.54956 12.792 6.31593 12.6431 6.30791 12.6408C6.29875 12.6374 6.28386 12.6569 6.27012 12.6901C6.20713 12.8367 6.04565 13.0588 5.94372 13.139C5.88302 13.1871 5.77881 13.2432 5.70322 13.2684C5.62649 13.2948 5.4421 13.289 5.35049 13.257C5.12144 13.1791 4.95079 12.9203 4.92445 12.6076C4.89926 12.3213 5.05616 11.996 5.26116 11.9079C5.42951 11.8357 5.64481 11.8918 5.81431 12.051C5.85783 12.0934 5.91051 12.1507 5.92998 12.1793C5.9483 12.2079 5.96548 12.2331 5.96777 12.2343C5.96892 12.2365 6.20484 12.1243 6.49229 11.9834L7.01338 11.7292L6.97444 11.6525C6.9252 11.5551 6.78204 11.3627 6.69386 11.2757C6.57246 11.1554 6.3457 10.9985 6.20598 10.9367C6.09489 10.8874 5.93456 10.8416 5.80973 10.8233C5.69978 10.8061 5.44096 10.8016 5.33102 10.813Z" fill="white"/>
<path d="M11.0791 10.8302C11.0768 10.837 10.9909 14.2922 10.9932 14.2945C11.0001 14.3014 12.4557 14.3804 12.4614 14.3747C12.4683 14.3678 12.4122 11.8174 12.3893 11.0649L12.3824 10.8279H11.7307C11.3734 10.8279 11.0802 10.829 11.0791 10.8302Z" fill="white"/>
</svg>
