<svg width="20" height="20" viewBox="0 0 20 20" fill="none" xmlns="http://www.w3.org/2000/svg">
<circle cx="10" cy="10" r="10" fill="#09806E"/>
<path fill-rule="evenodd" clip-rule="evenodd" d="M8.80485 5.81668L9.99816 7.01198L11.1953 5.81668L12.3923 4.62146H13.9446H15.4969L13.5253 6.59421L11.5538 8.56696L13.2669 10.2788C14.2092 11.2203 14.9801 12.027 14.9801 12.0714C14.9801 12.1159 13.8685 13.2635 12.5099 14.6216L10.0396 17.0909L7.51027 14.5616L4.98094 12.0324L6.71361 10.2984L8.4462 8.56441L6.53393 6.65333C5.48214 5.60218 4.62158 4.71509 4.62158 4.68186C4.62158 4.64863 5.29433 4.62146 6.11664 4.62146H7.61162L8.80485 5.81668ZM8.0478 12.074L9.02278 11.0967L9.99776 10.1194L10.975 11.0944L11.9523 12.0693L10.9774 13.0466L10.0024 14.0239L9.02509 13.049L8.0478 12.074Z" fill="#FEFEFD"/>
</svg>
