<svg width="20" height="20" viewBox="0 0 20 20" fill="none" xmlns="http://www.w3.org/2000/svg">
<g clip-path="url(#clip0_3977_53091)">
<path d="M6.66627 0.105273L6.62895 0.127282L4.16675 1.54786L1.7079 2.96795L1.6701 2.98948C1.54174 3.06756 1.43566 3.17739 1.36208 3.30837C1.2885 3.43936 1.2499 3.58709 1.25 3.73733V16.201C1.2498 16.3512 1.28836 16.4989 1.36195 16.6298C1.43554 16.7607 1.54168 16.8704 1.6701 16.9483C1.68206 16.956 1.69498 16.9632 1.7079 16.9703L4.16675 18.39L6.62703 19.811C6.63995 19.8187 6.65287 19.8263 6.66627 19.833C6.79439 19.9024 6.93779 19.9388 7.08349 19.9388C7.2292 19.9388 7.3726 19.9024 7.50072 19.833C7.51364 19.8263 7.52608 19.8187 7.539 19.811L18.2926 13.6005L18.3309 13.5785C18.459 13.5003 18.5649 13.3906 18.6384 13.2597C18.7119 13.1288 18.7505 12.9812 18.7505 12.8311V7.10575C18.7507 6.95656 18.7126 6.80981 18.64 6.67949C18.5674 6.54917 18.4626 6.43961 18.3356 6.36125C18.3218 6.35264 18.3069 6.34451 18.2926 6.33637L7.539 0.127761L7.5012 0.105273C7.37298 0.0361737 7.22962 0 7.08397 0C6.93833 0 6.79496 0.0361737 6.66675 0.105273H6.66627ZM4.59689 1.79618L18.306 9.71149C18.352 9.73674 18.3904 9.77389 18.4171 9.81905C18.4438 9.86421 18.4579 9.91572 18.4579 9.96819C18.4579 10.0207 18.4438 10.0722 18.4171 10.1173C18.3904 10.1625 18.352 10.1996 18.306 10.2249V10.2249L4.59833 18.1392C4.55555 18.1618 4.50793 18.1736 4.45957 18.1737C4.38225 18.1736 4.30813 18.1428 4.2535 18.088C4.19887 18.0333 4.16818 17.9592 4.16818 17.8818V2.05312C4.16818 1.97584 4.19888 1.90172 4.25353 1.84708C4.30817 1.79243 4.38229 1.76173 4.45957 1.76173C4.50745 1.76202 4.55455 1.77384 4.59689 1.79618V1.79618Z" fill="url(#paint0_linear_3977_53091)"/>
<path d="M7.0835 8.11477V11.8196C7.08358 11.9711 7.123 12.1201 7.19791 12.2518C7.27282 12.3836 7.38065 12.4937 7.51086 12.5713C7.64106 12.6488 7.78918 12.6913 7.94071 12.6945C8.09225 12.6977 8.24202 12.6615 8.37536 12.5894L8.41508 12.5664L11.584 10.7368C11.5964 10.7301 11.6084 10.7224 11.6208 10.7152C11.7491 10.6373 11.8553 10.5276 11.929 10.3968C12.0027 10.266 12.0416 10.1185 12.0418 9.96831C12.0421 9.81816 12.0037 9.67047 11.9304 9.53943C11.8571 9.40839 11.7513 9.2984 11.6232 9.22003L11.584 9.19754L8.41651 7.36884C8.40311 7.3607 8.38924 7.35305 8.37536 7.34539C8.24205 7.27335 8.09233 7.23714 7.94083 7.2403C7.78934 7.24346 7.64125 7.28588 7.51106 7.36342C7.38087 7.44096 7.27303 7.55095 7.19809 7.68265C7.12314 7.81435 7.08366 7.96324 7.0835 8.11477V8.11477Z" fill="url(#paint1_linear_3977_53091)"/>
</g>
<defs>
<linearGradient id="paint0_linear_3977_53091" x1="10.0002" y1="9.46298e-06" x2="10.0002" y2="19.9369" gradientUnits="userSpaceOnUse">
<stop stop-color="#FF855F"/>
<stop offset="0.63" stop-color="#FF5465"/>
<stop offset="1" stop-color="#FF3C68"/>
</linearGradient>
<linearGradient id="paint1_linear_3977_53091" x1="9.56244" y1="7.24108" x2="9.56244" y2="12.6956" gradientUnits="userSpaceOnUse">
<stop stop-color="#FF855F"/>
<stop offset="0.63" stop-color="#FF5465"/>
<stop offset="1" stop-color="#FF3C68"/>
</linearGradient>
<clipPath id="clip0_3977_53091">
<rect width="20" height="20" fill="white"/>
</clipPath>
</defs>
</svg>
