<svg width="20" height="20" viewBox="0 0 20 20" fill="none" xmlns="http://www.w3.org/2000/svg">
<path d="M9.04468 0.0158428C8.99249 0.0288899 8.71198 0.0745547 8.42494 0.12022C6.16779 0.465968 4.08026 2.01205 3.04301 4.10611C2.43632 5.31949 2.23409 6.28498 2.27323 7.72668C2.28628 8.27466 2.3189 8.73783 2.33847 8.7574C2.35804 8.7835 2.69074 8.58779 3.06258 8.33337C4.21725 7.55055 5.37192 7.23089 6.75491 7.30918C8.0531 7.38746 8.77069 7.66797 10.1863 8.63998C11.902 9.82074 12.3586 9.99036 13.8395 9.99036C14.9028 9.98383 15.3334 9.8925 16.1227 9.50109C16.8664 9.12925 17.0034 8.99878 17.0752 8.62041C17.173 8.12462 17.1469 6.72858 17.036 6.09579C16.5141 3.12105 14.1591 0.733434 11.1648 0.146314C10.6756 0.0484605 9.25996 -0.0363457 9.04468 0.0158428Z" fill="#F3B806"/>
<path d="M5.05234 8.52914C4.49131 8.65309 3.4345 9.08365 3.4345 9.18802C3.4345 9.22064 3.39536 9.24673 3.34969 9.24673C3.27141 9.24673 2.35159 9.85995 2.12326 10.0687C1.86232 10.3036 2.04498 10.7472 2.39725 10.7472C2.48858 10.7472 2.8539 10.5449 3.23879 10.284C4.07381 9.72295 4.24994 9.6251 4.83706 9.44244C5.85474 9.12931 7.23121 9.14236 8.23583 9.47506C8.82948 9.67077 9.01213 9.77514 10.3625 10.695C11.8303 11.6865 12.7045 11.9671 14.1918 11.9018C15.1051 11.8627 15.7118 11.7192 16.3707 11.393C16.8861 11.132 17.571 10.6493 17.6624 10.4797C17.7602 10.2905 17.6297 9.99042 17.4275 9.93823C17.2318 9.88604 17.1013 9.93823 16.7295 10.2057C16.3055 10.5123 15.5553 10.845 15.0008 10.969C14.3549 11.1125 13.3633 11.1059 12.7567 10.9494C12.4892 10.8776 12.2282 10.8124 12.1761 10.7993C12.1239 10.7928 12.0652 10.7667 12.0456 10.7472C11.9673 10.6689 11.3541 10.4014 11.2954 10.4145C11.2628 10.421 11.2497 10.4079 11.2823 10.3818C11.3084 10.3557 11.1453 10.2122 10.9235 10.0622C10.6952 9.91866 10.2908 9.64467 10.0168 9.45549C8.89471 8.69223 7.90965 8.39867 6.46795 8.4052C5.9004 8.4052 5.43723 8.45086 5.05234 8.52914Z" fill="#54CBC9"/>
<path d="M6.63145 10.3557C6.50098 10.4862 6.50098 10.571 6.50098 15.0853V19.6779L6.66407 19.8475C6.87282 20.0497 6.96415 20.0497 7.199 19.854L7.38166 19.6975V15.1701C7.38166 12.6846 7.36209 10.6036 7.34251 10.5449C7.24466 10.2122 6.87282 10.1144 6.63145 10.3557Z" fill="#54CBC9"/>
<path d="M4.8043 10.434C4.68035 10.571 4.67383 10.6492 4.67383 12.9455C4.67383 15.2875 4.67383 15.3136 4.81735 15.4767C5.05219 15.7507 5.39142 15.6659 5.51537 15.3071C5.6067 15.0331 5.61322 11.008 5.52189 10.6688C5.41099 10.2839 5.05219 10.1665 4.8043 10.434Z" fill="#54CBC9"/>
<path d="M8.48348 11.0798C8.37258 11.2038 8.35953 11.3538 8.33996 12.8934C8.32692 13.9372 8.34649 14.6417 8.38563 14.7461C8.54219 15.1505 9.12931 15.0723 9.2076 14.6417C9.22717 14.5308 9.24021 13.7023 9.22717 12.8151C9.2076 11.1973 9.2076 11.1907 9.05103 11.0668C8.85532 10.9037 8.64005 10.9102 8.48348 11.0798Z" fill="#54CBC9"/>
<path d="M2.95858 11.3864C2.86725 11.4843 2.8542 11.7452 2.84768 13.2848C2.84116 15.281 2.8542 15.3136 3.27824 15.3136C3.68922 15.3136 3.70227 15.2288 3.6827 13.2261C3.66312 11.5626 3.6566 11.4517 3.53918 11.3603C3.36304 11.2364 3.08253 11.2429 2.95858 11.3864Z" fill="#54CBC9"/>
<path d="M10.3751 12.104C10.2186 12.2019 10.1533 12.4563 10.1533 12.9325C10.1533 13.3696 10.1729 13.4479 10.3164 13.5849C10.5186 13.7936 10.7013 13.7936 10.9035 13.5849C11.047 13.4479 11.0666 13.3696 11.0666 12.9325C11.0666 12.2737 10.9557 12.0519 10.61 12.0519C10.5186 12.0519 10.4143 12.0779 10.3751 12.104Z" fill="#54CBC9"/>
<path d="M15.8036 12.652C15.7188 12.7695 15.6992 12.9978 15.6992 13.7871C15.6992 14.6548 15.7123 14.7852 15.8166 14.8766C15.9863 15.0331 16.3059 15.0136 16.456 14.8505C16.5669 14.7265 16.5799 14.6026 16.5799 13.748C16.5799 12.8934 16.5669 12.7695 16.456 12.6455C16.2863 12.4563 15.9341 12.4629 15.8036 12.652Z" fill="#54CBC9"/>
<path d="M12.1503 12.8738C12.059 12.9586 12.0459 13.2848 12.0459 15.4441C12.0459 18.184 12.0329 18.1188 12.47 18.1188C12.894 18.1188 12.894 18.1122 12.894 15.4441C12.894 12.776 12.894 12.7694 12.47 12.7694C12.3525 12.7694 12.2025 12.8151 12.1503 12.8738Z" fill="#54CBC9"/>
<path d="M14.0482 12.9782C13.8329 13.1478 13.8068 13.4153 13.8134 15.268C13.8134 17.2903 13.846 17.5186 14.1526 17.623C14.2961 17.6752 14.3613 17.6621 14.5114 17.5512L14.6875 17.4207L14.7071 15.2941L14.7201 13.1739L14.5505 13.0369C14.3548 12.8804 14.2048 12.8673 14.0482 12.9782Z" fill="#54CBC9"/>
</svg>
