<svg width="20" height="20" viewBox="0 0 20 20" fill="none" xmlns="http://www.w3.org/2000/svg">
<circle cx="10" cy="10" r="9" fill="#68DAD7"/>
<path fill-rule="evenodd" clip-rule="evenodd" d="M8.90518 0.053197C7.38979 0.215238 5.72605 0.834558 4.36949 1.74153C3.61594 2.2454 2.23764 3.6231 1.73355 4.37632C-0.577851 7.83046 -0.577851 12.1783 1.73355 15.6324C2.23764 16.3856 3.61594 17.7633 4.36949 18.2672C7.82514 20.5776 12.1749 20.5776 15.6305 18.2672C16.3841 17.7633 17.7624 16.3856 18.2664 15.6324C20.5779 12.1783 20.5779 7.83046 18.2664 4.37632C17.7624 3.6231 16.3841 2.2454 15.6305 1.74153C13.6574 0.422303 11.2068 -0.192874 8.90518 0.053197ZM7.94369 6.89518L9.9218 8.86688L11.8999 6.89518C14.0799 4.72221 14.0991 4.70955 14.5417 5.15197L14.7703 5.38046V6.42399V7.46745L12.4798 9.75212C10.3832 11.8434 10.167 12.0367 9.92524 12.0367C9.69134 12.0367 9.54338 11.9203 8.63437 11.0205C8.06967 10.4616 7.58295 10.0044 7.55261 10.0044C7.52234 10.0044 7.49755 11.0613 7.49755 12.3531V14.7018L7.29063 14.8936C7.0988 15.0713 7.02482 15.0852 6.27839 15.0852C5.54768 15.0852 5.45336 15.0684 5.26114 14.903C5.08934 14.7554 5.04234 14.6371 5.01246 14.2777L4.97571 13.8346L4.61395 13.8321C3.97035 13.8277 3.82208 13.5865 3.82208 12.5439C3.82208 11.815 3.82959 11.7827 4.05066 11.5617C4.2367 11.3757 4.34587 11.3332 4.63717 11.3332H4.9951V10.747V10.1607H4.61278C4.35299 10.1607 4.17125 10.1129 4.04581 10.0114C3.87557 9.87383 3.85915 9.79535 3.83506 9.00727C3.81035 8.19917 3.81911 8.14047 3.996 7.93489C4.14255 7.76464 4.2701 7.70906 4.58368 7.67897L4.98415 7.64051L5.00918 6.4705L5.0342 5.30041L5.25364 5.11195C5.38502 4.99908 5.57184 4.92349 5.71933 4.92349C5.93673 4.92349 6.19722 5.15432 7.94369 6.89518ZM14.5943 10.0507C14.7679 10.245 14.7703 10.2769 14.7703 12.438V14.6283L14.5417 14.8568C14.3191 15.0793 14.2924 15.0852 13.5191 15.0852C12.7457 15.0852 12.7191 15.0793 12.4964 14.8568L12.2678 14.6283V12.9988V11.3693L13.0303 10.6176C13.4497 10.2041 13.8456 9.84624 13.9101 9.8224C14.1135 9.74712 14.412 9.84671 14.5943 10.0507Z" fill="#3D3D3D"/>
</svg>
