<svg width="20" height="20" viewBox="0 0 20 20" fill="none" xmlns="http://www.w3.org/2000/svg">
<path d="M10 20C15.5228 20 20 15.5228 20 10C20 4.47715 15.5228 0 10 0C4.47715 0 0 4.47715 0 10C0 15.5228 4.47715 20 10 20Z" fill="url(#paint0_linear_4490_57730)"/>
<path d="M9.99951 19.2056C15.0836 19.2056 19.2051 15.0841 19.2051 10C19.2051 4.91591 15.0836 0.794434 9.99951 0.794434C4.91542 0.794434 0.793945 4.91591 0.793945 10C0.793945 15.0841 4.91542 19.2056 9.99951 19.2056Z" fill="url(#paint1_radial_4490_57730)"/>
<path d="M9.99951 19.2056C15.0836 19.2056 19.2051 15.0841 19.2051 10C19.2051 4.91591 15.0836 0.794434 9.99951 0.794434C4.91542 0.794434 0.793945 4.91591 0.793945 10C0.793945 15.0841 4.91542 19.2056 9.99951 19.2056Z" fill="url(#paint2_radial_4490_57730)"/>
<path d="M9.99951 19.2056C15.0836 19.2056 19.2051 15.0841 19.2051 10C19.2051 4.91591 15.0836 0.794434 9.99951 0.794434C4.91542 0.794434 0.793945 4.91591 0.793945 10C0.793945 15.0841 4.91542 19.2056 9.99951 19.2056Z" fill="url(#paint3_radial_4490_57730)"/>
<path d="M9.99951 19.2056C15.0836 19.2056 19.2051 15.0841 19.2051 10C19.2051 4.91591 15.0836 0.794434 9.99951 0.794434C4.91542 0.794434 0.793945 4.91591 0.793945 10C0.793945 15.0841 4.91542 19.2056 9.99951 19.2056Z" fill="url(#paint4_radial_4490_57730)"/>
<path d="M9.99951 19.2056C15.0836 19.2056 19.2051 15.0841 19.2051 10C19.2051 4.91591 15.0836 0.794434 9.99951 0.794434C4.91542 0.794434 0.793945 4.91591 0.793945 10C0.793945 15.0841 4.91542 19.2056 9.99951 19.2056Z" fill="url(#paint5_radial_4490_57730)"/>
<path d="M11.7669 9.9999C11.7669 10.3625 11.473 10.6564 11.1105 10.6564C10.7479 10.6564 10.3655 10.3625 10.3655 9.9999C10.3655 9.63734 10.7479 9.34343 11.1105 9.34343C11.473 9.34343 11.7669 9.63734 11.7669 9.9999ZM19.4158 10.0249C19.4126 12.5718 18.4998 14.7904 16.71 16.6007C14.8772 18.4547 12.6277 19.381 10.0618 19.4097C7.42655 19.383 5.19592 18.4699 3.37232 16.6397C1.55194 14.8128 0.666358 12.5708 0.623047 9.99282C0.678574 4.76556 4.81213 0.630148 10.0404 0.590088C12.6206 0.641958 14.8586 1.54147 16.6805 3.37606C18.4979 5.20609 19.419 7.44699 19.4158 10.0249V10.0249ZM17.7698 6.29433C17.5253 6.20129 17.2697 6.1349 17.0152 6.07263C16.9042 6.04548 16.7821 6.04435 16.6674 6.0556C16.3382 6.08788 16.0624 6.25137 15.811 6.45131C15.6947 6.54384 15.6042 6.66987 15.5076 6.78547C15.4868 6.8104 15.4717 6.87057 15.4862 6.88899C15.5301 6.94457 15.4965 6.98155 15.4748 7.02532C15.3817 7.21327 15.3083 7.40734 15.3316 7.62202C15.3717 7.99242 15.5521 8.2839 15.8773 8.45842C16.1877 8.62498 16.5148 8.59678 16.833 8.45311C16.9961 8.37947 17.0969 8.24821 17.1627 8.08894C17.2045 7.98775 17.2026 7.88027 17.1637 7.77682C17.1339 7.6976 17.115 7.69288 17.0416 7.73108C16.9871 7.75941 16.9339 7.79286 16.8761 7.81147C16.6553 7.88255 16.402 7.73909 16.3625 7.51384C16.3109 7.21964 16.4619 7.09204 16.7441 7.02332C17.0202 6.95607 17.3951 7.15656 17.5237 7.41264C17.7392 7.84161 17.6993 8.26202 17.4299 8.6518C17.3215 8.80865 17.1624 8.91278 16.9677 8.9665C16.6483 9.05465 16.3473 8.98783 16.0493 8.88677C15.6664 8.75693 15.2834 8.64427 14.8707 8.68819C14.531 8.72435 14.2378 8.85099 13.9839 9.08274C13.8843 9.17366 13.8356 9.28971 13.7679 9.39745C13.6977 9.50922 13.6627 9.63174 13.6517 9.76158C13.6261 10.066 13.6835 10.3527 13.8373 10.6186C13.879 10.6906 13.9067 10.7716 14.0055 10.792C14.0299 10.797 14.0513 10.8366 14.066 10.8645C14.1051 10.9389 14.1364 11.0175 14.177 11.091C14.2724 11.2638 14.3018 11.4486 14.2888 11.6431C14.2725 11.8879 14.1896 11.9733 13.9549 12.0457C13.868 12.0726 13.7652 12.0639 13.6723 12.0513C13.5745 12.038 13.4942 11.9804 13.4618 11.8801C13.4031 11.6986 13.4804 11.5447 13.6613 11.4757C13.6873 11.4658 13.7153 11.4614 13.7417 11.4523C13.7863 11.437 13.7878 11.406 13.7607 11.3756C13.7388 11.3512 13.7114 11.3301 13.683 11.3134C13.381 11.136 12.9949 11.3262 12.9506 11.6856C12.9188 11.9444 12.9717 12.1827 13.1717 12.3788C13.323 12.5271 13.5064 12.6094 13.6997 12.6576C14.1483 12.7694 14.5605 12.6767 14.9356 12.3995C15.1514 12.2401 15.2034 12.0304 15.1845 11.7803C15.1665 11.5421 15.0593 11.3434 14.9414 11.1441C14.7657 10.847 14.7964 10.5324 14.9356 10.2408C15.0978 9.901 15.4197 9.7595 15.7677 9.67666C15.8167 9.66499 15.8852 9.64745 15.8807 9.74663C15.8799 9.76532 15.9223 9.79877 15.9488 9.80385C16.1409 9.8406 16.3329 9.88738 16.5271 9.90155C16.941 9.93175 17.3432 9.85843 17.7237 9.69475C17.9181 9.61114 18.1126 9.51248 18.2553 9.34955C18.5872 8.97046 18.7877 8.53682 18.7759 8.01935C18.7669 7.90798 18.7621 7.79607 18.748 7.68535C18.7143 7.42017 18.612 7.17963 18.4863 6.94551C18.3232 6.64193 18.0884 6.41561 17.7698 6.29433L17.7698 6.29433ZM14.8411 7.87904C14.8758 7.92231 14.918 7.96092 14.9621 7.9947C14.9793 8.00792 15.0112 8.00187 15.0365 8.0046C15.0349 7.98347 15.0407 7.95759 15.0306 7.94195C14.9093 7.7534 14.884 7.54559 14.9071 7.32938C14.886 7.1234 14.9091 6.92522 15.0026 6.7392C15.0729 6.5992 15.1492 6.46647 15.258 6.34795C15.5498 6.03005 15.9088 5.86689 16.3329 5.82994C16.5219 5.81348 16.7101 5.78797 16.899 5.77071C17.0319 5.75857 17.166 5.74121 17.2985 5.74804C17.4964 5.75825 17.6773 5.83833 17.8566 5.91876C17.8988 5.93768 17.9479 5.94107 17.9938 5.95161C17.9792 5.90558 17.9735 5.85396 17.9486 5.81445C17.8168 5.60514 17.6814 5.39814 17.4309 5.30948C17.4081 5.30143 17.3511 5.28202 17.4296 5.25994C17.5068 5.23821 17.4759 5.19254 17.4367 5.1656C17.28 5.05767 17.1219 4.95074 16.935 4.89909C16.763 4.85157 16.5925 4.79805 16.4188 4.75812C16.3099 4.73307 16.2534 4.6744 16.2385 4.56702C16.2339 4.53388 16.2202 4.50199 16.2156 4.46884C16.1767 4.1885 16.0846 3.92523 15.956 3.67491C15.8145 3.39958 15.6089 3.18202 15.3438 3.02256C15.3013 2.99698 15.2522 2.981 15.2045 2.96607C15.1875 2.96073 15.1654 2.97164 15.1456 2.97512C15.1513 2.99005 15.1543 3.00689 15.1632 3.01944C15.1761 3.03751 15.1921 3.05404 15.209 3.06846C15.2893 3.13665 15.3356 3.21755 15.3427 3.32783C15.352 3.47242 15.3698 3.61749 15.3975 3.75967C15.4791 4.1771 15.418 4.58449 15.3231 4.99028C15.3156 5.02242 15.3005 5.05424 15.2828 5.08228C15.1421 5.30422 15.0092 5.53191 14.8559 5.74483C14.6586 6.0188 14.5357 6.31587 14.4786 6.64926C14.3975 7.12319 14.5522 7.51929 14.8411 7.87904L14.8411 7.87904ZM14.1042 5.47475C13.9044 5.67656 13.7053 5.87916 13.5032 6.07862C13.4479 6.13319 13.3822 6.17707 13.3231 6.22802C13.3128 6.23689 13.3047 6.25896 13.3086 6.27057C13.3125 6.28223 13.3317 6.29269 13.3459 6.29586C13.3614 6.29931 13.3801 6.29712 13.3953 6.29163C13.6152 6.21217 13.8343 6.13032 14.0547 6.05199C14.237 5.98719 14.2804 5.83956 14.2902 5.65425C14.2811 5.59209 14.2706 5.51481 14.2584 5.4378C14.2542 5.41135 14.2458 5.38557 14.2394 5.35948C14.2165 5.37286 14.191 5.3832 14.1715 5.40039C14.1466 5.42234 14.1277 5.45099 14.1042 5.47474L14.1042 5.47475ZM13.0752 1.5845C13.0791 1.59923 13.0858 1.61445 13.0955 1.62622C13.3045 1.88014 13.5138 2.13326 13.6322 2.44735C13.6554 2.50883 13.6974 2.56383 13.7349 2.61892C13.7494 2.64013 13.7756 2.65328 13.7965 2.6701C13.7997 2.64548 13.8062 2.62074 13.8053 2.59628C13.8032 2.54068 13.797 2.48527 13.7934 2.42973C13.7897 2.37163 13.809 2.34366 13.8721 2.36808C13.8774 2.37012 13.9038 2.34012 13.9014 2.33587C13.7747 2.11336 13.6635 1.87465 13.4685 1.70607C13.3736 1.6241 13.2279 1.60121 13.1155 1.55575C13.0906 1.57309 13.0743 1.5811 13.0752 1.5845V1.5845ZM6.5343 4.96969C6.58412 5.2281 6.63244 5.48786 6.78674 5.71186C6.85942 5.81737 6.93097 5.92451 6.99251 6.03669C7.14757 6.31933 7.39341 6.48151 7.69103 6.57433C7.80281 6.6092 7.91893 6.63133 8.03426 6.65291C8.07974 6.66143 8.12845 6.65261 8.17569 6.65169C8.14511 6.62154 8.1145 6.59142 8.084 6.56118C8.08004 6.55725 8.07488 6.55326 8.07341 6.54835C8.06903 6.53383 8.06622 6.51883 8.06279 6.50402C8.07834 6.50501 8.09604 6.50151 8.10909 6.50776C8.1798 6.54163 8.2503 6.57617 8.31915 6.61364C8.73374 6.8393 9.17352 6.9718 9.64812 6.97551C9.81615 6.97682 9.98436 6.98055 10.1522 6.97475C10.5431 6.96123 10.9092 7.06826 11.2536 7.23265C11.696 7.44385 12.0862 7.72945 12.3974 8.12033C12.7869 8.60967 13.0114 9.1598 13.0415 9.78305C13.0555 10.0728 13.0686 10.3664 12.9845 10.6518C12.9791 10.6701 12.9911 10.6936 12.9951 10.7146C13.0112 10.7017 13.0316 10.6918 13.0429 10.6755C13.1602 10.5063 13.2115 10.3097 13.2651 10.1157C13.3408 9.84173 13.356 9.5625 13.2824 9.28575C13.2574 9.1917 13.2608 9.1349 13.3511 9.07572C13.4867 8.98681 13.6051 8.87334 13.6748 8.72091C13.6899 8.68802 13.6926 8.64948 13.701 8.61354C13.6696 8.61317 13.6382 8.61177 13.6068 8.61263C13.523 8.61494 13.4382 8.62815 13.3558 8.61903C13.1875 8.60041 13.0479 8.51238 13.0008 8.35116C12.9469 8.16648 12.9773 7.98651 13.1404 7.84723C13.3033 7.70812 13.4791 7.68465 13.6715 7.76283C13.7765 7.80551 13.8689 7.86766 13.9295 7.96936C13.9383 7.98409 13.9684 7.99809 13.9834 7.99386C14 7.98916 14.0228 7.9624 14.0219 7.94653C14.0165 7.8586 14.0198 7.7658 13.9917 7.68458C13.9462 7.55343 13.844 7.46551 13.7226 7.39638C13.6082 7.33124 13.6071 7.32193 13.695 7.22365C13.8504 7.04998 13.9135 6.83505 13.9764 6.6196C13.992 6.56603 13.9661 6.54421 13.9135 6.56452C13.8301 6.59679 13.7491 6.6354 13.6661 6.66902C13.5677 6.70892 13.4713 6.76126 13.3687 6.78209C13.0735 6.84207 12.7763 6.89326 12.4784 6.93802C12.3981 6.95011 12.3121 6.93007 12.2294 6.91907C12.1716 6.91138 12.1526 6.87673 12.187 6.824C12.2237 6.76766 12.2633 6.71312 12.2982 6.65568C12.3083 6.63902 12.3064 6.6151 12.3101 6.59451C12.2894 6.59799 12.2673 6.59788 12.2483 6.6055C11.737 6.81037 11.2096 6.85444 10.6668 6.77682C10.3236 6.72774 10.0378 6.55538 9.75325 6.3769C9.73789 6.36726 9.73292 6.34098 9.72311 6.32245C9.73857 6.31707 9.75383 6.30774 9.76952 6.30696C9.89237 6.30089 10.0214 6.31894 10.1371 6.28745C10.5367 6.1787 10.8897 5.98054 11.1112 5.61934C11.2997 5.31201 11.348 4.97333 11.2215 4.6213C11.1621 4.4557 11.0391 4.3427 10.9228 4.22127C10.8066 4.09988 10.6667 4.04584 10.5015 4.04784C10.4399 4.0486 10.3782 4.04959 10.3167 4.04678C10.044 4.03435 9.87961 4.19237 9.76276 4.41141C9.73083 4.47126 9.7195 4.55384 9.72893 4.62178C9.75182 4.78679 9.82158 4.9328 9.96032 5.03641C9.9917 5.05984 10.0263 5.07975 10.0546 5.10634C10.1432 5.18931 10.1318 5.29223 10.0269 5.35583C9.9987 5.37293 9.96442 5.37964 9.93374 5.39297C9.79537 5.45314 9.65648 5.40538 9.52 5.38909C9.28014 5.36045 9.06691 5.26477 8.89941 5.08533C8.71705 4.88997 8.59422 4.65821 8.50878 4.40665C8.4711 4.29573 8.44106 4.17977 8.46883 4.06245C8.50234 3.92085 8.54275 3.78058 8.58719 3.64198C8.63077 3.50606 8.71497 3.3963 8.84682 3.32572C8.80495 3.42282 8.73971 3.51666 8.72575 3.61762C8.68917 3.88225 8.69743 4.14743 8.8674 4.37439C8.93672 4.46696 8.98907 4.57913 9.10528 4.62872C9.14395 4.64521 9.16585 4.64182 9.16711 4.58844C9.16933 4.49413 9.16115 4.39312 9.19205 4.30749C9.23674 4.18367 9.29148 4.05153 9.37897 3.95752C9.59373 3.72673 9.88945 3.67013 10.1889 3.64466C10.4751 3.62032 10.747 3.69002 11.0022 3.81166C11.1262 3.87077 11.237 3.96028 11.3477 4.0441C11.5016 4.16061 11.578 4.33502 11.6435 4.5062C11.7676 4.83035 11.8169 5.16088 11.7112 5.50816C11.6378 5.74963 11.5284 5.9638 11.3656 6.15324C11.3292 6.19566 11.2874 6.23397 11.2547 6.27899C11.2313 6.31126 11.2358 6.34682 11.2871 6.34467C11.4436 6.3381 11.6018 6.33641 11.742 6.25048C11.8894 6.16009 12.0362 6.06865 12.1838 5.97855C12.2018 5.96756 12.2232 5.96205 12.243 5.95401C12.2466 5.97396 12.2533 5.99393 12.2533 6.01386C12.2528 6.11746 12.2543 6.11974 12.352 6.09169C12.395 6.07934 12.4369 6.06339 12.4793 6.04881C12.8263 5.92946 13.1447 5.75982 13.4284 5.52386C13.6306 5.35576 13.8079 5.17531 13.8541 4.90146C13.8614 4.85786 13.8843 4.81712 13.8948 4.77378C13.917 4.68162 13.9486 4.58926 13.9533 4.49582C13.9625 4.31115 13.9654 4.12504 13.9526 3.9408C13.9451 3.83155 13.9055 3.72388 13.8744 3.61725C13.8618 3.57388 13.8273 3.55014 13.7876 3.59537C13.6781 3.7202 13.593 3.86611 13.4626 3.97294C13.4587 3.97607 13.4591 3.98393 13.4557 3.98805C13.388 4.06903 13.3212 4.15073 13.2512 4.22972C13.2385 4.24407 13.2029 4.25922 13.1955 4.25299C13.1769 4.23721 13.1534 4.20578 13.1581 4.18717C13.1858 4.07632 13.1651 3.9651 13.1708 3.85493C13.1817 3.64316 13.2132 3.43235 13.2392 3.22152C13.255 3.09409 13.2475 3.06535 13.134 3.0061C13.0754 2.97546 13.0336 2.93877 13.0148 2.87464C12.9621 2.69455 12.8665 2.54038 12.7502 2.39272C12.6181 2.22499 12.4571 2.10137 12.2692 2.00942C12.2043 1.97767 12.1333 1.95652 12.0632 1.93787C11.999 1.9208 11.9702 1.95044 11.975 2.01878C11.9762 2.03543 11.9771 2.05361 11.9842 2.06807C12.0602 2.22203 12.0396 2.38713 12.033 2.54806C12.0236 2.77507 11.8841 2.91224 11.6581 2.93929C11.614 2.94457 11.5698 2.9552 11.5278 2.96944C11.2957 3.04798 11.0533 3.01297 10.8162 3.03477C10.7862 3.03753 10.7466 3.02324 10.7238 3.00295C10.5939 2.88736 10.4693 2.76876 10.4097 2.5956C10.3402 2.3938 10.3682 2.20182 10.4265 2.00306C10.5254 1.66651 10.8494 1.35145 11.2423 1.32615C11.4535 1.31256 11.6678 1.29717 11.875 1.36986C11.8969 1.37752 11.9255 1.36591 11.9509 1.36324C11.9422 1.33868 11.9405 1.30681 11.9237 1.29073C11.8083 1.18027 11.6726 1.09784 11.5175 1.0642C11.2611 1.0086 11.0033 0.948218 10.7431 0.925352C10.5337 0.906966 10.3198 0.940779 10.108 0.953075C10.0986 0.953617 10.0901 0.970392 10.0811 0.979606C10.1902 1.02911 10.1019 1.03214 10.0653 1.04327C9.96402 1.07404 9.85446 1.08767 9.76198 1.13508C9.499 1.26989 9.22792 1.39418 9.01158 1.60521C8.99503 1.62135 8.96419 1.62278 8.93999 1.63105C8.94461 1.60084 8.93894 1.56219 8.95558 1.54184C9.04408 1.43366 9.13821 1.3301 9.23032 1.22488C9.26706 1.18291 9.31074 1.14504 9.33879 1.09786C9.39774 0.998699 9.36866 0.94941 9.25264 0.954966C9.13569 0.960563 9.01869 0.97373 8.90283 0.991064C8.78675 1.00843 8.67183 1.03402 8.5569 1.05836C8.53031 1.064 8.48936 1.07324 8.48293 1.09097C8.44293 1.2012 8.33562 1.20597 8.25252 1.23636C7.82752 1.39183 7.5034 1.67416 7.2321 2.02659C7.18443 2.08852 7.1343 2.1491 7.09308 2.21517C7.07826 2.23891 7.08631 2.27697 7.08392 2.3085C7.11488 2.3093 7.15079 2.32069 7.17588 2.30892C7.25166 2.2734 7.32276 2.22798 7.39691 2.18874C7.40921 2.18224 7.42765 2.18738 7.44325 2.18713C7.44246 2.20225 7.44685 2.22065 7.4398 2.23181C7.42503 2.2552 7.40539 2.27594 7.38573 2.29576C7.17691 2.50617 7.0131 2.74263 6.95735 3.04098C6.94403 3.11222 6.93762 3.18475 6.92444 3.25603C6.90827 3.34351 6.90166 3.43621 6.86649 3.51583C6.82659 3.60617 6.82078 3.68945 6.85942 3.7746C6.90085 3.8659 6.94871 3.95463 6.99959 4.04102C7.01423 4.06589 7.05142 4.09578 7.07385 4.09256C7.09624 4.08933 7.12134 4.05029 7.13094 4.02207C7.17971 3.8788 7.22395 3.73399 7.26952 3.58963C7.31296 3.45204 7.40134 3.344 7.49871 3.24232C7.50808 3.23254 7.52781 3.2327 7.54273 3.22825C7.54263 3.24322 7.54787 3.26122 7.54145 3.27262C7.51947 3.31161 7.49168 3.34728 7.46917 3.386C7.37574 3.54676 7.29052 3.71329 7.27187 3.90027C7.25079 4.11159 7.24746 4.32465 7.23357 4.53678C7.23079 4.57926 7.21524 4.62091 7.20558 4.66294C7.15931 4.64786 7.11259 4.63402 7.06705 4.61699C7.05203 4.61136 7.03687 4.5999 7.02721 4.58701C6.92373 4.44905 6.78254 4.33947 6.72118 4.16929C6.70265 4.11789 6.66963 4.06987 6.63524 4.02672C6.61106 3.9964 6.57313 3.99733 6.55461 4.03778C6.54094 4.06764 6.53544 4.1017 6.52931 4.13446C6.47716 4.41313 6.48083 4.69234 6.5343 4.96969L6.5343 4.96969ZM11.2263 1.86102C11.0338 1.85498 10.8381 2.06108 10.8327 2.26414C10.8282 2.43416 10.9831 2.57598 11.1826 2.57093C11.4411 2.5644 11.5847 2.41009 11.5765 2.22736C11.5744 2.02726 11.4665 1.86855 11.2263 1.86102V1.86102ZM8.19123 13.9276C8.19029 13.9494 8.17593 13.9708 8.17579 13.9925C8.17566 14.0126 8.1862 14.0329 8.19204 14.0531C8.21185 14.0456 8.23756 14.0438 8.25058 14.03C8.41282 13.8577 8.51147 13.6565 8.52209 13.3858C8.51817 13.3603 8.51261 13.3048 8.50081 13.2507C8.43334 12.9414 7.93822 12.7291 7.61825 12.9649C7.44438 13.0931 7.38081 13.283 7.45436 13.4493C7.49652 13.5446 7.56933 13.6103 7.65849 13.6637C7.7479 13.7172 7.8327 13.71 7.93052 13.6876C8.08882 13.6513 8.19846 13.7593 8.19123 13.9276V13.9276ZM8.8657 11.2097C9.32037 11.2097 9.76306 10.9587 9.99964 10.5878C10.2362 10.9587 10.6789 11.2097 11.1336 11.2097C11.8017 11.2097 12.3433 10.668 12.3433 9.9999C12.3433 9.33177 11.8017 8.79015 11.1336 8.79015C10.6789 8.79015 10.2362 9.04112 9.99964 9.41196C9.76306 9.04111 9.32038 8.79015 8.8657 8.79015C8.19757 8.79015 7.65594 9.33177 7.65594 9.9999C7.65594 10.668 8.19757 11.2097 8.8657 11.2097ZM8.16585 7.60305C8.34095 7.47461 8.52902 7.36394 8.71099 7.24486C8.72437 7.2361 8.735 7.22314 8.74691 7.21213C8.73149 7.20034 8.71774 7.18241 8.7004 7.1777C8.38701 7.09266 8.06914 7.03827 7.74306 7.04474C7.6592 7.04474 7.57522 7.0419 7.49149 7.04528C7.26453 7.05445 7.17171 7.15705 7.20611 7.37893C7.24461 7.62722 7.29211 7.8744 7.34548 8.11994C7.36089 8.19086 7.34984 8.27972 7.42931 8.32742C7.48477 8.27377 7.54554 8.22457 7.59471 8.16565C7.76697 7.95929 7.94917 7.76199 8.16585 7.60305V7.60305ZM5.24686 3.47366C5.21305 3.62001 5.18014 3.76676 5.15475 3.9147C5.14938 3.94598 5.16814 3.9991 5.19301 4.01483C5.29594 4.07994 5.40486 4.13574 5.51282 4.1926C5.58011 4.22803 5.63096 4.19981 5.66961 4.14209C5.68509 4.11896 5.69778 4.09392 5.71126 4.06949C5.82697 3.85977 5.94284 3.65014 6.05813 3.44019C6.16491 3.24575 6.20227 3.03159 6.23334 2.8558C6.23334 2.79342 6.23666 2.77043 6.23255 2.74886C6.22651 2.71715 6.21517 2.68643 6.20609 2.65529C6.17284 2.67079 6.13539 2.68083 6.107 2.70267C5.88176 2.87604 5.66014 3.05417 5.43325 3.22531C5.34532 3.29162 5.27211 3.3644 5.24686 3.47366L5.24686 3.47366ZM1.37106 7.81351C1.53677 8.14369 1.70836 8.4709 1.87586 8.80018C1.91097 8.86919 1.96118 8.91357 2.03391 8.94089C2.21725 9.00975 2.39949 9.0817 2.58073 9.15596C2.6737 9.19406 2.76857 9.23165 2.85353 9.28415C2.94815 9.34263 3.01941 9.43377 2.99101 9.55069C2.96747 9.64762 2.98736 9.72696 3.0284 9.80828C3.07121 9.89309 3.11667 9.97656 3.15936 10.0614C3.31021 10.3613 3.46355 10.66 3.60901 10.9625C3.6584 11.0653 3.72842 11.1148 3.83956 11.1283C3.90332 11.1361 3.93635 11.1277 3.94225 11.0599C3.94357 11.0448 3.95491 11.0305 3.96164 11.0159C3.97736 11.0294 3.99892 11.04 4.0075 11.0571C4.02231 11.0866 4.0281 11.1206 4.03944 11.152C4.0534 11.1907 4.06917 11.2287 4.08416 11.2671C4.11899 11.2408 4.15886 11.2189 4.18715 11.1868C4.21169 11.1589 4.23473 11.1205 4.23804 11.0849C4.24612 10.998 4.29051 10.94 4.3583 10.8931C4.46509 10.8193 4.52839 10.7176 4.54591 10.5886C4.56923 10.4169 4.59066 10.2449 4.6143 10.0733C4.63866 9.8964 4.66191 9.72119 4.7423 9.55559C4.79479 9.44745 4.85716 9.38132 4.98044 9.38275C5.00707 9.38306 5.03721 9.38042 5.05997 9.36828C5.22532 9.28007 5.37778 9.17584 5.44911 8.99151C5.47845 8.9157 5.52551 8.86775 5.60568 8.85847C5.68239 8.84959 5.76201 8.83168 5.8361 8.84379C5.91488 8.85668 5.96025 8.83935 6.00533 8.77547C6.20484 8.49272 6.39908 8.20544 6.61383 7.93459C6.76524 7.74362 6.77937 7.53951 6.74874 7.31645C6.73812 7.23907 6.72378 7.15884 6.7334 7.08273C6.75382 6.92123 6.67342 6.81724 6.56043 6.72411C6.5223 6.69268 6.4911 6.68703 6.46805 6.7375C6.43533 6.80915 6.41567 6.77802 6.39978 6.72913C6.38767 6.69186 6.37779 6.65378 6.36884 6.6156C6.35285 6.5474 6.31546 6.50368 6.24112 6.50809C6.13173 6.5146 6.0943 6.44972 6.07966 6.35563C6.06299 6.24848 5.99002 6.17738 5.91302 6.11115C5.86254 6.06774 5.83658 6.07405 5.8189 6.14115C5.802 6.20533 5.79361 6.27287 5.79038 6.33937C5.77656 6.62444 5.76604 6.90967 5.75423 7.19484C5.75353 7.21164 5.75404 7.22883 5.75057 7.24511C5.73322 7.32653 5.6546 7.3567 5.6027 7.29284C5.56293 7.24391 5.53209 7.17463 5.52791 7.11233C5.5178 6.96167 5.50828 6.80729 5.52972 6.65892C5.57721 6.33029 5.56253 6.0021 5.55496 5.67315C5.55328 5.60034 5.53197 5.53883 5.46272 5.50708C5.32688 5.4448 5.28325 5.33157 5.28734 5.19342C5.29163 5.04814 5.30065 4.90299 5.30801 4.7578C5.31021 4.71436 5.3032 4.67103 5.24928 4.67871C5.16249 4.69108 5.13271 4.63409 5.09649 4.57506C5.04981 4.49896 4.99974 4.42461 4.94625 4.35317C4.91882 4.31653 4.88595 4.33324 4.86511 4.36564C4.8534 4.38384 4.84662 4.40657 4.84262 4.42817C4.79259 4.69859 4.63642 4.93814 4.61426 5.21658C4.61382 5.22208 4.61323 5.22884 4.60996 5.23261C4.59998 5.2441 4.58866 5.25442 4.57786 5.26519C4.56784 5.25377 4.55087 5.24342 4.54892 5.23076C4.53701 5.15332 4.52137 5.07549 4.52017 4.99757C4.51636 4.75078 4.5199 4.50387 4.5173 4.25704C4.51638 4.16996 4.53996 4.09343 4.57977 4.01664C4.79891 3.59387 5.01508 3.16956 5.23175 2.74552C5.25722 2.6957 5.28116 2.6449 5.30205 2.59305C5.30672 2.58145 5.30016 2.55719 5.2905 2.55018C5.28051 2.54292 5.25243 2.54306 5.246 2.55105C5.12595 2.70017 4.92665 2.73187 4.79117 2.8591C4.77065 2.87837 4.70224 2.88334 4.68894 2.86738C4.61294 2.7762 4.56615 2.83857 4.51103 2.88886C4.26306 3.11505 4.02274 3.35093 3.76159 3.56075C3.63697 3.66087 3.57476 3.77324 3.54104 3.9198C3.50046 4.09615 3.43936 4.26425 3.2878 4.38135C3.22007 4.43367 3.20085 4.50489 3.20015 4.5891C3.19942 4.6781 3.18829 4.76753 3.17529 4.85583C3.097 5.38755 3.02343 5.91959 3.03252 6.41945C3.03252 6.60497 3.03549 6.75093 3.03161 6.89668C3.0283 7.02091 2.9632 7.09289 2.84645 7.12242C2.78428 7.13814 2.74645 7.11884 2.73645 7.05664C2.72312 6.97372 2.70877 6.89029 2.70493 6.80661C2.68875 6.45409 2.67779 6.10132 2.66135 5.74882C2.65772 5.67111 2.64301 5.59333 2.62664 5.51703C2.61794 5.47645 2.57576 5.45804 2.55509 5.49819C2.4911 5.62248 2.36718 5.64748 2.25788 5.70132C2.20045 5.72961 2.14314 5.77204 2.10521 5.82269C2.05554 5.88899 2.01975 5.96747 1.98727 6.04463C1.84389 6.38527 1.70148 6.72636 1.56467 7.06967C1.53873 7.13476 1.52762 7.21142 1.532 7.28134C1.53596 7.34454 1.52567 7.37595 1.47322 7.41881C1.3579 7.51303 1.31367 7.69917 1.37106 7.81351L1.37106 7.81351ZM1.56614 12.0443C1.88655 12.2786 2.208 12.5115 2.52906 12.745C2.60602 12.8009 2.68307 12.8567 2.76026 12.9124C2.77387 12.9222 2.78795 12.9315 2.80259 12.9396C2.8551 12.9688 2.89874 12.955 2.93685 12.9118C2.97924 12.8637 2.94805 12.8301 2.91512 12.7972C2.74064 12.623 2.56467 12.4502 2.39244 12.2738C2.36204 12.2427 2.28657 12.2107 2.33442 12.1572C2.37839 12.1081 2.42562 12.1722 2.46328 12.1976C2.76474 12.4008 3.0646 12.6065 3.36387 12.813C3.44658 12.87 3.54042 12.9199 3.60339 12.9948C3.74362 13.1616 3.88525 13.3319 3.99397 13.5195C4.15063 13.7899 4.33711 13.8083 4.58062 13.5974C4.5933 13.5864 4.60451 13.5738 4.61665 13.5621C4.87939 13.3106 5.14257 13.0595 5.40456 12.8072C5.44879 12.7647 5.48939 12.718 5.52911 12.6711C5.57002 12.6228 5.58876 12.5727 5.57668 12.5023C5.5576 12.3909 5.69098 12.1464 5.79539 12.092C5.95394 12.0092 6.12044 11.9414 6.27669 11.8548C6.3926 11.7905 6.47412 11.8306 6.5606 11.9051C6.66818 11.9978 6.76158 12.0875 6.65686 12.2427C6.62161 12.2949 6.65952 12.3246 6.71429 12.3312C6.81973 12.3441 6.9251 12.3575 7.03063 12.3696C7.29138 12.3994 7.55213 12.4293 7.81307 12.4575C7.87969 12.4647 7.947 12.4679 8.014 12.468C8.03976 12.4681 8.06554 12.4544 8.09131 12.447C8.07876 12.4239 8.07077 12.3961 8.05287 12.3785C7.98127 12.3078 7.90561 12.2414 7.83321 12.1716C7.40322 11.7569 7.16631 11.2376 7.03006 10.6666C6.96075 10.3761 6.94662 10.0777 6.96971 9.78161C6.98834 9.54278 7.01262 9.30165 7.10152 9.07403C7.13003 9.00103 7.15245 8.92553 7.17491 8.85035C7.18055 8.83148 7.17557 8.80944 7.17548 8.78885C7.15472 8.79508 7.13157 8.79734 7.11363 8.80822C7.03231 8.85755 6.95276 8.90979 6.87204 8.9601C6.76171 9.02887 6.69149 9.11255 6.69267 9.25771C6.69395 9.41461 6.6367 9.55581 6.48309 9.63341C6.38501 9.68296 6.33177 9.75987 6.31938 9.86995C6.30502 9.99755 6.28559 10.1246 6.26593 10.2516C6.26106 10.283 6.24678 10.313 6.23682 10.3436C6.20694 10.3208 6.17022 10.3032 6.1484 10.2743C6.06422 10.1629 5.98596 10.0469 5.90283 9.93468C5.88139 9.90573 5.85021 9.88401 5.82351 9.85898C5.80238 9.89529 5.7795 9.93075 5.76104 9.96838C5.75417 9.98238 5.75697 10.0015 5.7565 10.0183C5.75451 10.0909 5.71503 10.1235 5.64669 10.145C5.3785 10.2293 5.3378 10.2913 5.35419 10.5686C5.35649 10.6075 5.36681 10.6459 5.37051 10.6848C5.37684 10.7515 5.38889 10.819 5.38419 10.8852C5.37447 11.0219 5.30258 11.1288 5.19195 11.2039C5.0956 11.2692 4.98996 11.3207 4.89058 11.3818C4.798 11.4388 4.73305 11.5198 4.68064 11.6165C4.53121 11.8921 4.37599 12.1646 4.22153 12.4374C4.16738 12.5331 4.12596 12.5416 4.03581 12.4684C3.93175 12.3838 3.83308 12.2925 3.73271 12.2034C3.61009 12.0946 3.50575 11.9728 3.44216 11.818C3.38265 11.6732 3.31789 11.5305 3.25175 11.3885C3.08863 11.0385 2.90932 10.6953 2.76391 10.3381C2.66571 10.0969 2.51819 9.93058 2.276 9.8446C2.23912 9.83151 2.20388 9.8138 2.16703 9.80062C2.0229 9.74905 2.01781 9.75154 1.95463 9.89202C1.89272 10.0297 1.7703 10.0534 1.6687 9.93833C1.5952 9.85506 1.52871 9.76323 1.47297 9.66714C1.39444 9.53178 1.32953 9.38853 1.25675 9.24973C1.24477 9.22689 1.22228 9.20958 1.20464 9.18971C1.1905 9.21179 1.17166 9.23227 1.16348 9.25637C1.15471 9.28226 1.15431 9.31149 1.15308 9.33939C1.13716 9.70315 1.12174 10.0669 1.1062 10.4307C1.09144 10.8264 1.13555 11.2098 1.25043 11.5926C1.30976 11.7904 1.40995 11.93 1.56614 12.0443H1.56614ZM7.04322 13.6524C7.04066 13.6198 7.05146 13.586 7.05735 13.553C7.09372 13.3492 7.1316 13.1457 7.16664 12.9417C7.19158 12.7965 7.17056 12.7804 7.01962 12.7936C6.86236 12.8073 6.7396 12.8999 6.60288 12.9615C6.51796 12.9997 6.47297 13.0561 6.46017 13.1501C6.43892 13.3061 6.34093 13.3988 6.19129 13.4366C6.1047 13.4584 6.0173 13.4794 5.92898 13.4906C5.89751 13.4947 5.85088 13.4784 5.8311 13.4547C5.79004 13.4056 5.7571 13.4231 5.71503 13.4462C5.57801 13.5217 5.43627 13.5893 5.3036 13.6717C5.229 13.718 5.16214 13.7816 5.10324 13.8476C4.96918 13.9979 4.84334 14.1555 4.71195 14.3083C4.616 14.4199 4.58454 14.4241 4.45187 14.3667C4.32868 14.3134 4.20496 14.2612 4.08007 14.2121C4.01636 14.187 3.99658 14.2053 4.01572 14.2727C4.0417 14.3641 4.06568 14.4579 4.10735 14.5423C4.13215 14.5925 4.18222 14.6428 4.23314 14.6652C4.39678 14.737 4.56737 14.7928 4.73273 14.8609C4.82269 14.898 4.89128 14.8852 4.95621 14.812C5.0042 14.7579 5.05693 14.7053 5.1161 14.6644C5.29095 14.5437 5.46795 14.4257 5.64872 14.3141C5.7047 14.2796 5.75056 14.2003 5.83779 14.243C5.81314 14.3023 5.79595 14.3662 5.76228 14.4198C5.69331 14.5296 5.61139 14.6325 5.63842 14.7765C5.66372 14.9591 5.6897 15.1416 5.71392 15.3244C5.72151 15.3817 5.75139 15.3901 5.79251 15.3605C5.83292 15.3314 5.86946 15.2964 5.90522 15.2614C5.98078 15.1875 6.0549 15.1121 6.12925 15.037C6.1669 14.999 6.1978 14.9962 6.24337 15.0344C6.35721 15.1299 6.41498 15.1162 6.48887 14.9854C6.53841 14.8977 6.58717 14.8094 6.63346 14.7199C6.73619 14.5214 6.84054 14.3235 6.93771 14.1222C7.00874 13.975 7.0564 13.8203 7.04322 13.6524L7.04322 13.6524ZM4.44383 15.1503C4.31545 15.154 4.1713 15.3086 4.17069 15.4433C4.17006 15.5803 4.28821 15.7016 4.4237 15.7032C4.57828 15.7051 4.68992 15.5878 4.68806 15.4256C4.68605 15.25 4.59383 15.146 4.44383 15.1503ZM2.50549 14.0979C2.65556 14.0387 2.80007 14.052 2.94144 14.1257C2.9712 14.1412 3.00169 14.1558 3.03298 14.1678C3.16867 14.22 3.30384 14.2738 3.44111 14.3215C3.51284 14.3464 3.53451 14.3215 3.51012 14.2465C3.4772 14.1454 3.4342 14.0472 3.40624 13.9448C3.37663 13.8364 3.324 13.7519 3.22476 13.6953C3.17163 13.665 3.12604 13.6218 3.07429 13.5887C2.85736 13.4499 2.64204 13.3084 2.42112 13.1763C2.15742 13.0186 1.88875 12.8693 1.62173 12.7172C1.59318 12.7009 1.5613 12.6905 1.5166 12.6712C1.50797 12.6995 1.49139 12.7242 1.49578 12.7443C1.52815 12.8921 1.55995 13.0404 1.60112 13.186C1.65328 13.3703 1.73093 13.5417 1.85204 13.6951C1.91488 13.7747 1.98338 13.8097 2.07891 13.8109C2.13478 13.8116 2.19074 13.8161 2.24632 13.8221C2.26122 13.8237 2.27488 13.837 2.2891 13.8448C2.27788 13.8608 2.26912 13.8797 2.25486 13.8922C2.23408 13.9105 2.20297 13.9199 2.18819 13.9413C2.17519 13.9601 2.16764 13.9954 2.1766 14.0146C2.21832 14.1039 2.31001 14.1443 2.4083 14.1231C2.44102 14.116 2.47459 14.1101 2.50549 14.0979L2.50549 14.0979ZM5.2733 16.3967C5.3734 16.2611 5.38722 16.1065 5.3193 15.9498C5.2591 15.8109 5.04772 15.7216 4.90817 15.781C4.86613 15.7989 4.83071 15.8404 4.80133 15.8782C4.75677 15.9355 4.72361 16.0017 4.67936 16.0592C4.60866 16.1512 4.50631 16.191 4.39788 16.1684C4.26464 16.1406 4.14963 16.0746 4.07392 15.9486C3.99981 15.8254 3.95895 15.6951 3.94762 15.5531C3.94094 15.4694 3.93387 15.3855 3.92058 15.3027C3.90267 15.1912 3.88053 15.1646 3.77572 15.154C3.49784 15.1262 3.21935 15.1043 2.96376 15.082C2.86787 15.0862 2.79466 15.0848 2.72279 15.0939C2.64977 15.1033 2.63188 15.1326 2.66319 15.1952C2.75587 15.3804 2.85038 15.5649 2.95079 15.746C2.97973 15.7981 3.02604 15.8441 3.07309 15.8821C3.17753 15.9664 3.28497 16.0476 3.39625 16.1225C3.45038 16.159 3.51531 16.1994 3.57632 16.201C3.6788 16.2037 3.74277 16.2494 3.80161 16.3229C3.9607 16.5217 4.16467 16.649 4.41112 16.7162C4.78317 16.8177 5.04936 16.6999 5.2733 16.3967H5.2733ZM7.46112 15.1176C7.44102 15.1163 7.41786 15.1079 7.40129 15.1149C7.15973 15.2176 6.91322 15.3107 6.67938 15.4289C6.18799 15.6774 5.77414 16.0169 5.47201 16.4877C5.33602 16.6996 5.28141 16.9257 5.27457 17.1842C5.27945 17.6423 5.44955 18.0101 5.91056 18.1982C5.92607 18.2045 5.94163 18.2116 5.95558 18.2207C6.25008 18.4139 6.76588 18.2982 7.00787 18.0475C7.17636 17.8729 7.23079 17.6771 7.20431 17.4498C7.17773 17.2218 7.03558 17.0788 6.80655 17.0342C6.78462 17.0299 6.76173 17.0295 6.74043 17.0233C6.56593 16.9729 6.497 16.8529 6.53934 16.6774C6.56882 16.5552 6.66629 16.4986 6.77094 16.4861C6.92335 16.468 6.95483 16.3787 6.97741 16.2508C6.99946 16.1259 7.03648 16 7.08947 15.8851C7.20173 15.6415 7.32884 15.4048 7.44916 15.1649C7.45628 15.1507 7.45728 15.1334 7.46112 15.1176V15.1176ZM12.0488 17.7472C12.1646 17.4987 12.2377 17.2387 12.2616 16.9582C12.2896 16.6297 12.2764 16.3174 12.1872 15.9967C12.0231 15.4063 11.6403 15.0167 11.1149 14.7511C10.8379 14.6111 10.5356 14.5822 10.2309 14.648C9.76835 14.748 9.41991 14.9887 9.27676 15.4638C9.25122 15.5485 9.23991 15.6393 9.23413 15.7281C9.20913 16.1121 9.41105 16.591 9.91671 16.6885C10.2041 16.7438 10.4587 16.5838 10.5295 16.2849C10.5518 16.1908 10.5413 16.098 10.4877 16.0096C10.4572 15.9594 10.44 15.8976 10.4309 15.8389C10.4186 15.7591 10.4287 15.6814 10.5103 15.634C10.5934 15.5857 10.6684 15.6011 10.7452 15.6522C10.9692 15.8011 11.034 16.0389 11.0083 16.2713C10.9768 16.5553 10.8288 16.797 10.5612 16.946C10.3485 17.0645 10.1327 17.1155 9.88635 17.0743C9.44252 17 9.12007 16.7676 8.93631 16.362C8.79348 16.0467 8.7334 15.7089 8.78626 15.3616C8.84896 14.9498 9.00638 14.5771 9.27087 14.2521C9.44569 14.0373 9.66026 13.8662 9.87745 13.6987C10.1918 13.4563 10.5416 13.2881 10.9315 13.2055C11.2317 13.142 11.5333 13.0832 11.83 13.0058C12.1351 12.9262 12.3544 12.7364 12.4608 12.4327C12.515 12.2777 12.547 12.1185 12.4844 11.9563C12.4596 11.8923 12.4381 11.8843 12.3883 11.928C12.3379 11.9723 12.291 12.0209 12.2456 12.0705C12.0594 12.2741 11.8518 12.4542 11.6179 12.5982C11.2873 12.8017 10.9341 12.9548 10.5452 13.0072C10.3797 13.0295 10.2129 13.0489 10.0462 13.0548C9.92396 13.0591 9.80091 13.0388 9.67818 13.0301C9.40911 13.0111 9.14703 12.962 8.89688 12.8565C8.79912 12.8152 8.69901 12.7794 8.59906 12.7437C8.58733 12.7395 8.5698 12.7516 8.55496 12.7562C8.56022 12.7709 8.56166 12.7891 8.57133 12.7999C8.64575 12.8828 8.73012 12.9581 8.79579 13.0473C9.04555 13.3867 9.06747 13.6023 8.90358 13.9003C8.82571 14.0418 8.73189 14.1757 8.63547 14.3057C8.43548 14.5754 8.2206 14.8344 8.02687 15.1084C7.67093 15.6119 7.50377 16.1793 7.49141 16.7937C7.48944 17.0602 7.53759 17.3146 7.61609 17.5701C7.74543 17.9909 7.96356 18.3403 8.31651 18.6069C8.62827 18.8424 8.97145 19.0115 9.34267 19.1273C9.61516 19.2124 9.89641 19.2139 10.1749 19.1916C10.4851 19.1667 10.779 19.069 11.0374 18.8908C11.3197 18.6961 11.5745 18.4679 11.7754 18.1873C11.8759 18.047 11.9763 17.9027 12.0488 17.7472V17.7472ZM14.7414 16.37C14.7361 16.3257 14.7389 16.2804 14.7383 16.2355C14.7343 15.8872 14.5896 15.5936 14.3659 15.3409C14.1265 15.0703 13.8095 14.9365 13.4577 14.879C13.1821 14.8339 12.9056 14.7933 12.6313 14.7412C12.3919 14.6958 12.207 14.5582 12.1046 14.3394C12.0493 14.2213 12.0446 14.0801 12.0119 13.9506C11.9862 13.8484 11.9682 13.7396 11.9189 13.649C11.843 13.5096 11.7213 13.433 11.5498 13.429C11.3318 13.4239 11.1526 13.4801 11.0317 13.672C10.9273 13.8378 10.9316 14.0117 11.0002 14.1871C11.0789 14.3885 11.241 14.5055 11.4283 14.5918C11.5759 14.6598 11.7164 14.7366 11.8516 14.8289C12.3002 15.1356 12.5935 15.5507 12.7476 16.0686C12.7587 16.1059 12.7672 16.1445 12.7714 16.183C12.7847 16.3053 12.7941 16.428 12.8079 16.5502C12.8107 16.5751 12.826 16.5985 12.8356 16.6226C12.8583 16.6088 12.8884 16.6002 12.9026 16.5803C13.0175 16.4184 13.1026 16.2414 13.1202 16.0418C13.1358 15.8651 13.2183 15.7397 13.3625 15.6427C13.5078 15.545 13.7363 15.5424 13.885 15.6349C14.0265 15.723 14.0913 15.8506 14.1072 16.0094C14.1288 16.2249 14.079 16.4135 13.8826 16.5326C13.8124 16.5752 13.7323 16.6053 13.6529 16.6275C13.5237 16.6635 13.5212 16.6651 13.5503 16.7994C13.5738 16.9083 13.6139 17.0216 13.6031 17.1285C13.57 17.4564 13.4836 17.7642 13.224 18.0006C13.1114 18.1032 12.9904 18.1575 12.846 18.1439C12.7482 18.1346 12.649 18.1057 12.558 18.0674C12.4204 18.0094 12.3199 18.0713 12.2205 18.1482C12.1286 18.2194 12.1202 18.3199 12.1418 18.4231C12.1629 18.5236 12.2362 18.5847 12.3209 18.6345C12.4334 18.7007 12.5569 18.6959 12.7118 18.6917C12.8787 18.7226 13.0543 18.6385 13.2345 18.5797C13.7309 18.4178 14.1301 18.1266 14.4014 17.6757C14.6423 17.2754 14.7993 16.8501 14.7414 16.37L14.7414 16.37ZM17.5182 13.7232C17.5034 13.7288 17.4849 13.7306 17.4745 13.7408C17.3424 13.8685 17.2191 14.0065 17.0786 14.124C16.8654 14.3021 16.6163 14.4203 16.3453 14.4791C16.0829 14.536 15.8173 14.558 15.5472 14.5167C15.4188 14.4971 15.2937 14.4783 15.1771 14.4191C15.0473 14.353 14.9182 14.2855 14.7868 14.2227C14.6117 14.1389 14.4343 14.1748 14.3149 14.3185C14.2382 14.4108 14.1857 14.5941 14.3146 14.7712C14.4576 14.9677 14.6639 15.0484 14.8956 15.058C15.1466 15.0685 15.3988 15.0748 15.6461 15.006C15.7316 14.9822 15.8226 14.9707 15.9114 14.9686C15.9884 14.9668 16.0684 14.9773 16.1426 14.9981C16.2613 15.0312 16.3075 15.1464 16.2383 15.25C16.2003 15.3067 16.1359 15.3501 16.0755 15.3865C15.9559 15.4586 15.824 15.5117 15.7096 15.5908C15.4909 15.742 15.3239 15.9318 15.3221 16.2769C15.3062 16.411 15.3932 16.5548 15.5159 16.6878C15.6747 16.86 16.0958 16.9365 16.2969 16.8229C16.3161 16.8121 16.3341 16.7979 16.3503 16.7827C16.5088 16.6336 16.5786 16.4513 16.5392 16.2359C16.5242 16.1543 16.492 16.0748 16.46 15.9976C16.4086 15.8733 16.4068 15.8759 16.5278 15.8042C16.619 15.7502 16.7182 15.7033 16.7953 15.6329C17.0671 15.3847 17.1641 15.0683 17.1242 14.7068C17.1122 14.598 17.1167 14.5028 17.1987 14.4112C17.361 14.2297 17.4709 14.0154 17.5333 13.7788C17.5375 13.7627 17.5236 13.7418 17.5182 13.7232V13.7232ZM17.6283 11.9498C17.7924 11.6135 17.8128 11.2643 17.671 10.9078C17.5235 10.5371 17.2738 10.2896 16.8764 10.2162C16.7568 10.1942 16.6309 10.1995 16.5082 10.2031C16.1749 10.2127 15.915 10.3481 15.7178 10.6293C15.5664 10.8454 15.5547 11.0758 15.5712 11.3181C15.5756 11.3839 15.6001 11.4462 15.663 11.4897C15.6954 11.5121 15.7156 11.5559 15.7346 11.5934C15.7598 11.6431 15.7734 11.6989 15.8009 11.7471C15.8872 11.8987 16.0915 11.9907 16.2605 11.9588C16.4398 11.925 16.5103 11.7398 16.3927 11.6014C16.3659 11.5699 16.318 11.5568 16.281 11.5334C16.1805 11.4698 16.1446 11.3433 16.2148 11.2583C16.3087 11.1444 16.4446 11.0711 16.5844 11.1022C16.9168 11.1762 17.0806 11.4178 17.0636 11.7374C17.0492 12.0081 16.914 12.2402 16.7424 12.4439C16.4903 12.7434 16.1428 12.8929 15.7795 12.9915C15.5444 13.0553 15.2956 13.0757 15.0513 13.0956C14.7093 13.1235 14.37 13.0735 14.0349 13.0096C13.8105 12.9669 13.5922 12.8932 13.3683 12.8469C13.0442 12.7798 12.7582 12.8785 12.5097 13.0861C12.343 13.2254 12.304 13.4264 12.2862 13.6301C12.282 13.6784 12.297 13.7315 12.3155 13.7774C12.3249 13.8005 12.3717 13.8321 12.3847 13.8257C12.4293 13.8035 12.4407 13.8184 12.4537 13.858C12.4746 13.9217 12.4972 13.9854 12.5257 14.046C12.6834 14.3813 13.1186 14.5923 13.5115 14.2136C13.6542 14.076 13.682 13.8999 13.5944 13.7235C13.5795 13.6934 13.557 13.6669 13.5443 13.6361C13.5117 13.5571 13.5494 13.4835 13.635 13.4781C13.712 13.4732 13.7919 13.4807 13.8676 13.497C14.0315 13.5322 14.1938 13.5758 14.3563 13.6174C14.4282 13.6358 14.5063 13.6404 14.5218 13.7447C14.5261 13.774 14.5869 13.8027 14.6269 13.8175C14.937 13.9322 15.2476 14.0469 15.551 14.0168C15.655 14.0168 15.7226 14.0217 15.7893 14.016C16.0575 13.993 16.3031 13.9066 16.5113 13.7323C16.7684 13.5172 16.9564 13.2471 17.1091 12.9513C17.1305 12.9098 17.1367 12.8604 17.15 12.8147C17.1098 12.8271 17.0699 12.8409 17.0291 12.851C17.0147 12.8546 16.9921 12.855 16.9841 12.8466C16.9763 12.8383 16.9772 12.8144 16.9834 12.8017C17.0005 12.7667 17.018 12.7304 17.0429 12.7009C17.1403 12.5855 17.2453 12.4763 17.3385 12.3577C17.4416 12.2265 17.5561 12.0978 17.6283 11.9498V11.9498ZM18.6636 12.0809C18.8465 11.9028 18.9523 11.6832 18.9366 11.418C18.9336 11.3676 18.9344 11.3169 18.9364 11.2665C18.9424 11.1209 18.8968 10.9905 18.8222 10.8685C18.7988 10.8303 18.7738 10.7929 18.7482 10.7562C18.6617 10.6321 18.6192 10.4946 18.6305 10.3438C18.6517 10.0623 18.7045 9.78965 18.8655 9.54892C18.8795 9.52794 18.8812 9.49865 18.8886 9.47322C18.8639 9.47741 18.8325 9.47332 18.8155 9.4871C18.664 9.61016 18.5102 9.7311 18.3675 9.86384C18.2948 9.93142 18.2259 10.0141 18.1862 10.1037C18.1189 10.2559 18.0702 10.4172 18.0265 10.5782C18.0134 10.6267 18.0338 10.6902 18.0542 10.7406C18.0919 10.8336 18.1439 10.9207 18.1844 11.0127C18.2335 11.1245 18.2992 11.2353 18.318 11.3529C18.3584 11.6055 18.2538 11.8101 18.06 11.9739C17.9835 12.0386 17.9144 12.1126 17.8461 12.1861C17.7547 12.2845 17.7037 12.4001 17.7178 12.5473C17.6864 12.7213 17.7942 12.8459 17.9017 12.9701C17.9114 12.9812 17.9305 12.9843 17.9452 12.9911C17.9523 12.9732 17.9666 12.9548 17.9653 12.9375C17.9514 12.7406 18.0335 12.596 18.1888 12.4781C18.3531 12.3535 18.5161 12.2245 18.6636 12.0809V12.0809ZM8.23234 9.9999C8.23234 10.3625 8.52625 10.6564 8.88881 10.6564C9.25137 10.6564 9.63382 10.3625 9.63382 9.9999C9.63382 9.63734 9.25137 9.34343 8.88881 9.34343C8.52625 9.34343 8.23234 9.63734 8.23234 9.9999Z" fill="black"/>
<defs>
<linearGradient id="paint0_linear_4490_57730" x1="10" y1="20" x2="10" y2="0" gradientUnits="userSpaceOnUse">
<stop stop-color="#B100EA"/>
<stop offset="0.11239" stop-color="#9714EC"/>
<stop offset="0.42346" stop-color="#5748F4"/>
<stop offset="0.68572" stop-color="#276EFA"/>
<stop offset="0.8858" stop-color="#0A86FD"/>
<stop offset="1" stop-color="#008FFF"/>
</linearGradient>
<radialGradient id="paint1_radial_4490_57730" cx="0" cy="0" r="1" gradientUnits="userSpaceOnUse" gradientTransform="translate(9.89649 6.23941) scale(9.20557)">
<stop offset="0.1725" stop-color="#FF0000"/>
<stop offset="0.21355" stop-color="#FF1305"/>
<stop offset="0.39641" stop-color="#FF661F"/>
<stop offset="0.55836" stop-color="#FFA733"/>
<stop offset="0.69342" stop-color="#FFD641"/>
<stop offset="0.79644" stop-color="#FFF44A"/>
<stop offset="0.85522" stop-color="#FFFF4E"/>
</radialGradient>
<radialGradient id="paint2_radial_4490_57730" cx="0" cy="0" r="1" gradientUnits="userSpaceOnUse" gradientTransform="translate(9.63891 14.3788) scale(9.20557)">
<stop offset="0.42432" stop-color="#00FFFF"/>
<stop offset="0.43741" stop-color="#21FFFF" stop-opacity="0.96043"/>
<stop offset="0.46354" stop-color="#5CFFFF" stop-opacity="0.8916"/>
<stop offset="0.49128" stop-color="#8EFFFF" stop-opacity="0.83236"/>
<stop offset="0.52042" stop-color="#B7FFFF" stop-opacity="0.78413"/>
<stop offset="0.55144" stop-color="#D7FFFF" stop-opacity="0.74682"/>
<stop offset="0.58521" stop-color="#EDFFFF" stop-opacity="0.72042"/>
<stop offset="0.62373" stop-color="#FAFFFF" stop-opacity="0.70485"/>
<stop offset="0.6776" stop-color="white" stop-opacity="0.7"/>
<stop offset="0.89512" stop-color="white" stop-opacity="0"/>
</radialGradient>
<radialGradient id="paint3_radial_4490_57730" cx="0" cy="0" r="1" gradientUnits="userSpaceOnUse" gradientTransform="translate(15.4086 9.74243) scale(9.20557)">
<stop offset="0.1725" stop-color="#00FB00"/>
<stop offset="0.26628" stop-color="#26FB0B" stop-opacity="0.84962"/>
<stop offset="0.55957" stop-color="#99FD2F" stop-opacity="0.39734"/>
<stop offset="0.7618" stop-color="#E2FE45" stop-opacity="0.11152"/>
<stop offset="0.85522" stop-color="#FFFF4E" stop-opacity="0"/>
</radialGradient>
<radialGradient id="paint4_radial_4490_57730" cx="0" cy="0" r="1" gradientUnits="userSpaceOnUse" gradientTransform="translate(2.73591 9.53637) scale(9.20557)">
<stop offset="0.17738" stop-color="#FFEA00"/>
<stop offset="0.2788" stop-color="#FFED0C" stop-opacity="0.83632"/>
<stop offset="0.56584" stop-color="#FFF62F" stop-opacity="0.39114"/>
<stop offset="0.76378" stop-color="#FFFC45" stop-opacity="0.10979"/>
<stop offset="0.85522" stop-color="#FFFF4E" stop-opacity="0"/>
</radialGradient>
<radialGradient id="paint5_radial_4490_57730" cx="0" cy="0" r="1" gradientUnits="userSpaceOnUse" gradientTransform="translate(10.1541 9.87122) scale(9.20557)">
<stop offset="0.13053" stop-color="white" stop-opacity="0.9"/>
<stop offset="0.29024" stop-color="white" stop-opacity="0"/>
</radialGradient>
</defs>
</svg>
