<svg width="20" height="20" viewBox="0 0 20 20" fill="none" xmlns="http://www.w3.org/2000/svg">
<g clip-path="url(#clip0_1901_1967)">
<path d="M19.5517 12.9611L14.9229 5.05839C14.0852 3.6472 12.0354 3.6472 11.1978 5.05839L6.56888 12.9611C5.73128 14.3722 6.76729 16.1308 8.44247 16.1308H17.7002C19.3533 16.1308 20.3673 14.3722 19.5517 12.9611Z" fill="#00B897"/>
<path d="M13.3797 13.1136L13.1152 12.6577C12.8728 12.2235 12.3217 11.3116 12.3217 11.3116L8.64065 5.059C7.80306 3.64781 5.75312 3.64781 4.91551 5.059L0.286658 12.9616C-0.550944 14.3729 0.485038 16.1314 2.16024 16.1314H11.3298H15.1431H17.7C15.4076 16.1314 14.4377 14.9156 13.3797 13.1136Z" fill="#76FCB2"/>
<path d="M13.3799 13.1132L13.1154 12.6573C12.8729 12.2231 12.3219 11.3112 12.3219 11.3112L9.91929 7.22961L6.56888 12.9612C5.73128 14.3724 6.76729 16.131 8.44247 16.131H11.33H15.1433H17.7002C15.4078 16.131 14.4379 14.9152 13.3799 13.1132Z" fill="url(#paint0_linear_1901_1967)"/>
</g>
<defs>
<linearGradient id="paint0_linear_1901_1967" x1="5.30909" y1="10.3628" x2="15.9601" y2="14.2987" gradientUnits="userSpaceOnUse">
<stop stop-color="#53E57A" stop-opacity="0"/>
<stop offset="1" stop-color="#00A977"/>
</linearGradient>
<clipPath id="clip0_1901_1967">
<rect width="20" height="20" fill="white"/>
</clipPath>
</defs>
</svg>
