<svg width="20" height="20" viewBox="0 0 20 20" fill="none" xmlns="http://www.w3.org/2000/svg">
<circle cx="10" cy="10" r="10" fill="url(#paint0_linear_1868_1950)"/>
<path d="M3.58838 8.24512L3.62793 8.79443C3.96777 8.36963 4.42334 8.15723 4.99463 8.15723C5.49854 8.15723 5.87354 8.30518 6.11963 8.60107C6.36572 8.89697 6.4917 9.33936 6.49756 9.92822V13H5.22754V9.95898C5.22754 9.68945 5.16895 9.49463 5.05176 9.37451C4.93457 9.25146 4.73975 9.18994 4.46729 9.18994C4.10986 9.18994 3.8418 9.34229 3.66309 9.64697V13H2.39307V8.24512H3.58838ZM10.2197 13C10.1611 12.8857 10.1187 12.7437 10.0923 12.5737C9.78467 12.9165 9.38477 13.0879 8.89258 13.0879C8.42676 13.0879 8.04004 12.9531 7.73242 12.6836C7.42773 12.4141 7.27539 12.0742 7.27539 11.6641C7.27539 11.1602 7.46143 10.7734 7.8335 10.5039C8.2085 10.2344 8.74902 10.0981 9.45508 10.0952H10.0396V9.82275C10.0396 9.60303 9.98242 9.42725 9.86816 9.29541C9.75684 9.16357 9.57959 9.09766 9.33643 9.09766C9.12256 9.09766 8.9541 9.14893 8.83105 9.25146C8.71094 9.354 8.65088 9.49463 8.65088 9.67334H7.38086C7.38086 9.39795 7.46582 9.14307 7.63574 8.90869C7.80566 8.67432 8.0459 8.49121 8.35645 8.35938C8.66699 8.22461 9.01562 8.15723 9.40234 8.15723C9.98828 8.15723 10.4526 8.30518 10.7954 8.60107C11.1411 8.89404 11.314 9.30713 11.314 9.84033V11.9014C11.3169 12.3525 11.3799 12.6938 11.5029 12.9253V13H10.2197ZM9.16943 12.1167C9.35693 12.1167 9.52979 12.0757 9.68799 11.9937C9.84619 11.9087 9.96338 11.7959 10.0396 11.6553V10.8379H9.56494C8.9292 10.8379 8.59082 11.0576 8.5498 11.4971L8.54541 11.5718C8.54541 11.73 8.60107 11.8604 8.7124 11.9629C8.82373 12.0654 8.97607 12.1167 9.16943 12.1167ZM12.6367 13V9.17676H11.9292V8.24512H12.6367V7.84082C12.6367 7.30762 12.7891 6.89453 13.0938 6.60156C13.4014 6.30566 13.8306 6.15771 14.3813 6.15771C14.5571 6.15771 14.7725 6.18701 15.0273 6.24561L15.0142 7.22998C14.9087 7.20361 14.7798 7.19043 14.6274 7.19043C14.1499 7.19043 13.9111 7.41455 13.9111 7.86279V8.24512H14.856V9.17676H13.9111V13H12.6367ZM17.0356 7.07617V8.24512H17.8486V9.17676H17.0356V11.5498C17.0356 11.7256 17.0693 11.8516 17.1367 11.9277C17.2041 12.0039 17.333 12.042 17.5234 12.042C17.6641 12.042 17.7886 12.0317 17.897 12.0112V12.9736C17.6479 13.0498 17.3916 13.0879 17.1279 13.0879C16.2373 13.0879 15.7832 12.6382 15.7656 11.7388V9.17676H15.0713V8.24512H15.7656V7.07617H17.0356Z" fill="white"/>
<defs>
<linearGradient id="paint0_linear_1868_1950" x1="17.5" y1="3.5" x2="2" y2="16" gradientUnits="userSpaceOnUse">
<stop stop-color="#3CA9FB"/>
<stop offset="0.494792" stop-color="#E938C4"/>
<stop offset="1" stop-color="#FFA16D"/>
</linearGradient>
</defs>
</svg>
