<svg width="20" height="20" viewBox="0 0 20 20" fill="none" xmlns="http://www.w3.org/2000/svg">
<g clip-path="url(#clip0)">
<path d="M18.7788 13.3745C18.7793 11.1248 18.7793 8.87523 18.7788 6.62565C18.7879 6.39565 18.6724 6.16674 18.4878 6.03114C15.8071 4.07244 13.1263 2.11343 10.4455 0.154123C10.3645 0.0907264 10.2708 0.0454296 10.1707 0.0212804C10.0707 -0.00286877 9.9666 -0.00531024 9.86553 0.0141203C9.74063 0.0386208 9.62803 0.101122 9.52773 0.176324C6.86607 2.12176 4.20429 4.0671 1.54237 6.01234C1.44286 6.0815 1.36168 6.17382 1.3058 6.28135C1.24993 6.38888 1.22105 6.50838 1.22166 6.62955C1.22006 8.8786 1.22006 11.1275 1.22166 13.3764C1.21816 13.62 1.34456 13.8564 1.54487 13.9936C4.20652 15.938 6.86764 17.8829 9.52822 19.8282C9.78283 20.046 10.1822 20.0632 10.445 19.8509C13.1172 17.8997 15.7884 15.9476 18.4586 13.9946C18.6597 13.8591 18.7898 13.6185 18.7786 13.3746" fill="#050708"/>
<path d="M9.07331 1.62314C9.14391 1.54314 9.21551 1.41844 9.33961 1.43504C9.76172 1.43754 10.1848 1.42844 10.6068 1.43954C10.6799 1.48494 10.7359 1.55304 10.7984 1.61154C10.7968 2.04715 10.7968 2.48286 10.7984 2.91866C10.6728 2.92016 10.5468 2.92576 10.4212 2.91716C10.4136 2.88636 10.3985 2.82586 10.3912 2.79516C10.3912 2.46986 10.4194 2.14415 10.3922 1.81934C10.082 1.81981 9.77202 1.81981 9.46221 1.81934C9.46071 1.92875 9.46021 2.03875 9.45921 2.14815C9.32861 2.14815 9.19751 2.14815 9.06641 2.14715C9.06731 1.97305 9.04811 1.79604 9.07331 1.62314Z" fill="white"/>
<path d="M8.02078 2.15465C8.16348 2.14915 8.30619 2.14915 8.44939 2.15265C8.45139 2.75527 8.45389 3.35738 8.44789 3.95949C8.31169 3.96249 8.17558 3.96249 8.03988 3.96149C7.99458 3.36148 8.03078 2.75677 8.02078 2.15465Z" fill="white"/>
<path d="M11.6508 2.80216C12.0308 2.79716 12.4102 2.79866 12.79 2.80116C12.792 2.94036 12.792 3.07907 12.79 3.21817C12.41 3.22217 12.03 3.22367 11.65 3.21717C11.6486 3.07897 11.6494 2.93986 11.6508 2.80216Z" fill="white"/>
<path d="M9.34666 3.00737C9.49996 3.00387 9.65327 3.00437 9.80667 3.00437C9.95337 3.28978 10.1375 3.55608 10.2567 3.85509C10.116 3.86169 9.97477 3.86169 9.83407 3.86219C9.66687 3.57988 9.50546 3.29428 9.34666 3.00737Z" fill="white"/>
<path d="M10.9119 3.50918C11.0445 3.50618 11.1771 3.50668 11.3103 3.50868C11.6713 4.0687 12.0222 4.63531 12.3859 5.19402C12.3859 5.36402 12.3859 5.53402 12.3829 5.70403C12.3435 5.69693 12.2659 5.68333 12.2271 5.67683C11.9185 5.21682 11.6346 4.74041 11.3295 4.2784C11.3245 4.79841 11.331 5.31842 11.326 5.83843C11.1878 5.84096 11.0493 5.84096 10.9105 5.83843C10.9088 5.06232 10.9063 4.2857 10.9119 3.50918Z" fill="white"/>
<path d="M12.5599 3.82428C12.7011 3.82128 12.8428 3.82128 12.984 3.82528C12.985 3.95839 12.985 4.09209 12.984 4.22529C12.8428 4.22879 12.7011 4.22879 12.5604 4.22629C12.5594 4.09256 12.5589 3.95855 12.5599 3.82428Z" fill="white"/>
<path d="M5.57911 3.95588C5.69052 3.95388 5.80202 3.95438 5.91342 3.95538C6.21093 3.93538 6.50793 3.94128 6.80554 3.95838C6.80654 4.08749 6.80554 4.21709 6.80454 4.34619C6.36453 4.6104 5.94172 4.9034 5.49541 5.15621C5.36381 5.10621 5.26341 5.0009 5.156 4.9131C5.44801 4.7351 5.73392 4.5475 6.02892 4.37449C5.87962 4.36689 5.72992 4.36789 5.58061 4.36639C5.57801 4.22919 5.57751 4.09235 5.57911 3.95588Z" fill="white"/>
<path d="M9.09907 4.10918C9.23578 4.10518 9.37288 4.10568 9.50908 4.10918C9.51258 4.24638 9.51258 4.38299 9.50908 4.52019C9.37241 4.52419 9.23574 4.52436 9.09907 4.52069C9.09587 4.38349 9.09587 4.24632 9.09907 4.10918Z" fill="white"/>
<path d="M7.0929 4.51059C7.31181 4.84239 7.52411 5.1788 7.74591 5.50861C7.96732 5.1748 8.18112 4.83589 8.40453 4.50359C8.40453 4.72359 8.41913 4.9459 8.40003 5.1657C8.19732 5.51311 7.96282 5.84141 7.74441 6.17932C7.52961 5.84701 7.30211 5.52171 7.0984 5.1829C7.0753 4.9599 7.0919 4.73449 7.0929 4.51059Z" fill="white"/>
<path d="M13.1529 4.56659C13.8099 4.56359 14.467 4.56376 15.1241 4.56709C15.1241 4.70019 15.1241 4.8339 15.1235 4.9671C14.4669 4.96863 13.81 4.9688 13.1529 4.9676C13.1523 4.8339 13.1519 4.69989 13.1529 4.56659Z" fill="white"/>
<path d="M9.67488 5.08701C9.80699 5.08451 9.93959 5.08451 10.0723 5.08601C10.0789 5.66892 10.0723 6.25243 10.0758 6.83605C10.0143 6.89455 9.95329 6.95405 9.89329 7.01355C9.43788 7.01855 8.98257 7.01355 8.52766 7.01605C8.46766 6.95855 8.40616 6.90355 8.35216 6.84155C8.32896 6.66304 8.34606 6.48094 8.34556 6.30154C8.47223 6.30054 8.5993 6.30054 8.72676 6.30154C8.73026 6.40444 8.72976 6.50724 8.72826 6.61014C9.04147 6.64544 9.35708 6.62014 9.67178 6.62774C9.67338 6.11423 9.66838 5.59992 9.67488 5.08701Z" fill="white"/>
<path d="M16.0274 6.81014C16.0232 6.37013 16.0232 5.92989 16.0274 5.48941C16.1651 5.48641 16.3027 5.48591 16.4409 5.48941C16.4453 5.92942 16.4453 6.36983 16.4409 6.81064C16.3031 6.81294 16.1651 6.81194 16.0274 6.81014Z" fill="white"/>
<path d="M14.0652 5.82182C14.3252 5.81932 14.5866 5.77892 14.8452 5.82082C15.0146 6.37303 15.1599 6.93374 15.3283 7.48695C15.1952 7.48795 15.0615 7.48795 14.9283 7.48795C14.8012 7.05885 14.6928 6.62464 14.5617 6.19643C14.4886 6.19743 14.4155 6.19843 14.3423 6.19893C14.2334 6.63114 14.1023 7.05675 13.9898 7.48735C13.8556 7.48782 13.7215 7.48765 13.5874 7.48685C13.7525 6.93374 13.9074 6.37683 14.0652 5.82182Z" fill="white"/>
<path d="M2.94926 6.03263C3.54837 6.02913 4.14798 6.02763 4.747 6.03263C4.7505 6.17033 4.7505 6.30744 4.7475 6.44514C4.14748 6.45064 3.54827 6.44914 2.94866 6.44564C2.94676 6.30794 2.94676 6.16993 2.94926 6.03263Z" fill="white"/>
<path d="M5.02942 6.03313C5.16562 6.03213 5.30172 6.03163 5.43843 6.03313C5.44143 6.17134 5.44143 6.30994 5.43843 6.44814C5.30172 6.44964 5.16562 6.44914 5.02942 6.44814C5.02782 6.30994 5.02782 6.17224 5.02942 6.03413" fill="white"/>
<path d="M6.53523 6.05012C6.66883 6.04912 6.80303 6.04962 6.93663 6.05112C6.94063 6.37113 6.93863 6.69203 6.93863 7.01234C6.80293 7.01334 6.66733 7.01384 6.53223 7.01234C6.53083 6.69233 6.52663 6.37113 6.53523 6.05012Z" fill="white"/>
<path d="M17.0076 6.33764C17.1614 6.33464 17.3157 6.33514 17.4695 6.33464C17.6218 6.61704 17.8069 6.88465 17.9203 7.18636C17.7803 7.19136 17.6394 7.19185 17.4992 7.19245C17.3334 6.90855 17.1756 6.61994 17.0076 6.33764Z" fill="white"/>
<path d="M10.9441 6.68014C11.0775 6.67914 11.2108 6.67914 11.3442 6.68014C11.3472 7.11885 11.3451 7.55756 11.3451 7.99637C11.2109 7.99737 11.0772 7.99787 10.9432 7.99787C10.9432 7.55876 10.9425 7.11955 10.9441 6.68014Z" fill="white"/>
<path d="M12.3508 7.21365C12.3492 7.07645 12.3492 6.93895 12.3508 6.80114C12.4854 6.79914 12.6208 6.79915 12.7557 6.80265C12.7557 6.93985 12.7567 7.07695 12.7547 7.21415C12.6203 7.21465 12.4852 7.21365 12.3508 7.21365Z" fill="white"/>
<path d="M4.73999 7.82176C5.06319 7.58575 5.4082 7.38055 5.74001 7.15764C5.95941 7.16014 6.17822 7.15764 6.39762 7.16064C6.07182 7.39365 5.72541 7.59485 5.3976 7.82476C5.73451 8.03656 6.06481 8.25846 6.39962 8.47227C6.17422 8.47627 5.94881 8.47377 5.72341 8.47427C5.3981 8.25346 5.06019 8.04996 4.73999 7.82176Z" fill="white"/>
<path d="M16.0279 7.43905C16.166 7.43605 16.3042 7.43555 16.4429 7.43905C16.4463 7.57725 16.4459 7.71485 16.4419 7.85306C16.3042 7.85606 16.1661 7.85556 16.0284 7.85306C16.0254 7.71532 16.0254 7.57765 16.0284 7.44005" fill="white"/>
<path d="M1.84126 7.49556C2.53127 7.49156 3.22249 7.49006 3.9134 7.49656C3.9149 7.62716 3.9149 7.75826 3.9154 7.88936C3.60679 8.09157 3.29819 8.29477 2.98098 8.48237C2.84688 8.43347 2.74548 8.32237 2.63097 8.24087C2.80188 8.13297 2.97538 8.02857 3.14098 7.91306C2.70778 7.91106 2.27467 7.91556 1.84096 7.91056C1.83896 7.77236 1.83926 7.63402 1.84126 7.49556Z" fill="white"/>
<path d="M7.74953 7.89597C8.34714 7.89847 8.94465 7.89297 9.54177 7.89847C9.55629 8.03437 9.55444 8.17152 9.53626 8.30698C8.94065 8.30948 8.34564 8.30748 7.75063 8.30798C7.74956 8.17018 7.7492 8.03284 7.74953 7.89597Z" fill="white"/>
<path d="M9.93206 7.89846C10.0758 7.89546 10.219 7.89546 10.3628 7.90046C10.3632 8.03459 10.363 8.16839 10.3622 8.30186C10.219 8.30586 10.0753 8.30586 9.93216 8.30336C9.93076 8.16826 9.93066 8.03336 9.93206 7.89846Z" fill="white"/>
<path d="M11.8115 8.47637C11.7928 8.33467 11.9381 8.26207 12.0127 8.16476C12.1882 8.16476 12.3636 8.16376 12.5392 8.16726C12.5432 8.29937 12.5432 8.43147 12.5411 8.56417C12.4303 8.56617 12.3187 8.56617 12.2079 8.56767V9.50869C12.7237 9.51219 13.2397 9.50669 13.7556 9.51169C13.7571 9.64529 13.7571 9.779 13.7536 9.9117C13.1727 9.9157 12.5911 9.9122 12.0102 9.9137C11.9361 9.8169 11.7939 9.7437 11.812 9.60309C11.8094 9.22768 11.8089 8.85211 11.8115 8.47637Z" fill="white"/>
<path d="M13.7676 8.35127C13.9098 8.34627 14.053 8.34627 14.1957 8.35127C14.1972 8.48741 14.1972 8.62358 14.1957 8.75978C14.053 8.76478 13.9108 8.76478 13.7681 8.75978C13.7666 8.62308 13.7666 8.48697 13.7681 8.35027" fill="white"/>
<path d="M15.1268 8.35127C15.7279 8.34317 16.3285 8.34877 16.9296 8.34827C16.9306 8.48697 16.9306 8.62618 16.929 8.76478C16.3284 8.76478 15.7279 8.76978 15.1272 8.76228C15.1252 8.62508 15.1248 8.48807 15.1268 8.35127Z" fill="white"/>
<path d="M6.80003 8.83087C7.13693 8.83037 7.47324 8.83088 7.81005 8.83038C7.81305 8.97038 7.81305 9.11038 7.81005 9.25038C7.47364 9.25092 7.13743 9.25092 6.80143 9.25038C6.79556 9.11038 6.79476 8.97054 6.80003 8.83087Z" fill="white"/>
<path d="M9.02127 8.83089C9.54978 8.83039 10.0783 8.83089 10.6067 8.82989C10.7987 8.79989 10.991 8.99929 10.9667 9.1889C10.9656 9.5771 10.9654 9.96575 10.9661 10.3548C10.8985 10.4279 10.8305 10.5 10.7624 10.5726C10.5874 10.5726 10.413 10.5726 10.238 10.5706C10.2365 10.4373 10.2364 10.3042 10.2375 10.1712C10.3469 10.1697 10.4565 10.1687 10.5658 10.1672C10.5658 9.86161 10.5658 9.5555 10.5668 9.2499C10.0534 9.204 9.53608 9.2423 9.02117 9.2287C9.0199 9.09536 9.02 8.96276 9.02127 8.83089Z" fill="white"/>
<path d="M5.29672 8.95389C5.55492 8.95239 5.81263 8.95089 6.07083 8.95489C6.22713 9.5131 6.39504 10.0683 6.54284 10.6291C6.41284 10.6291 6.28283 10.6291 6.15353 10.6301C6.02093 10.1994 5.91853 9.7607 5.78183 9.3321C5.70822 9.3366 5.63462 9.3421 5.56092 9.3477C5.46312 9.77941 5.32342 10.1999 5.21651 10.6296C5.08291 10.6296 4.94921 10.6296 4.81651 10.6281C4.97551 10.07 5.13401 9.5111 5.29672 8.95389Z" fill="white"/>
<path d="M16.561 9.45819C17.011 9.45369 17.4616 9.44909 17.911 9.45969C18.0245 9.52969 18.1525 9.6433 18.1278 9.7925C18.1278 10.1125 18.1258 10.4334 18.1278 10.7537C18.1238 10.9075 18.1308 11.0613 18.1263 11.2151C18.1334 11.3407 18.0991 11.4642 18.1063 11.5903C17.9782 11.5903 17.8501 11.5903 17.722 11.5888C17.7235 11.0109 17.722 10.4325 17.723 9.8546C17.4087 9.846 17.0947 9.8526 16.7805 9.8501C16.7799 9.9575 16.7799 10.0649 16.778 10.1728C16.6458 10.1748 16.5136 10.1755 16.3815 10.1748C16.379 9.9978 16.3796 9.8203 16.38 9.6433C16.4409 9.58229 16.501 9.52069 16.561 9.45819Z" fill="white"/>
<path d="M3.75502 9.47431H4.17302C4.17402 9.91352 4.17302 10.3522 4.17302 10.791H3.75302C3.75502 10.3523 3.75401 9.91312 3.75502 9.47431Z" fill="white"/>
<path d="M2.44338 9.8415C2.58058 9.8395 2.71769 9.8435 2.85439 9.8526C2.85592 9.98266 2.85592 10.1129 2.85439 10.2434C2.71619 10.2449 2.57808 10.2454 2.43988 10.2434C2.43838 10.1092 2.43888 9.9751 2.44338 9.8415Z" fill="white"/>
<path d="M7.35524 12.2485C7.35164 11.4718 7.35148 10.6952 7.35474 9.91841C7.49094 9.91641 7.62705 9.91641 7.76325 9.91941C8.08326 10.4353 8.41326 10.9456 8.74007 11.4579C8.88127 11.6399 8.79657 11.884 8.81927 12.0959C8.77187 12.0959 8.72447 12.0968 8.67757 12.0978C8.38356 11.6308 8.07646 11.1719 7.79505 10.6978C7.74415 11.2132 7.78595 11.7331 7.76935 12.2506C7.63085 12.252 7.49285 12.252 7.35524 12.2485Z" fill="white"/>
<path d="M9.17077 10.2171C9.30937 10.2141 9.44804 10.2138 9.58678 10.2161C9.58878 10.5555 9.58828 10.8949 9.58678 11.2342C9.44757 11.2367 9.30887 11.2367 9.16977 11.2332C9.16747 10.8944 9.16787 10.5555 9.17077 10.2171Z" fill="white"/>
<path d="M11.6849 10.671C11.8207 10.67 11.9568 10.6695 12.093 10.671C12.0955 10.8092 12.0955 10.9474 12.093 11.0855C11.9568 11.086 11.8208 11.086 11.6849 11.0855C11.6833 10.9478 11.6833 10.8093 11.6849 10.671Z" fill="white"/>
<path d="M13.0077 10.6891C13.4303 10.6836 13.8529 10.6866 14.276 10.6876C14.2931 10.8111 14.3037 10.9367 14.2916 11.0618C14.2516 11.143 14.1559 11.1107 14.0843 11.1183C13.7243 11.1077 13.3632 11.139 13.0057 11.0983C13.0032 10.9614 13.0032 10.8253 13.0077 10.6891Z" fill="white"/>
<path d="M14.7127 10.7476C14.8489 10.7456 14.9865 10.7365 15.1227 10.7576C15.1358 11.2346 15.1282 11.7132 15.1257 12.1908C14.9881 12.1934 14.8506 12.1934 14.7132 12.1908C14.7086 11.71 14.7081 11.2286 14.7127 10.7476Z" fill="white"/>
<path d="M10.9442 11.0302C11.0773 11.0302 11.211 11.0292 11.3442 11.0302C11.3457 11.1674 11.3461 11.305 11.3442 11.4432C11.2108 11.4452 11.0775 11.4452 10.9442 11.4432C10.9432 11.3056 10.9432 11.1679 10.9442 11.0302Z" fill="white"/>
<path d="M4.5327 11.3235C5.00771 11.2721 5.48732 11.3129 5.96433 11.2978C6.08725 11.2963 6.21016 11.3018 6.33244 11.3144C6.33444 11.4531 6.33394 11.5923 6.33244 11.731C5.73242 11.7299 5.13371 11.734 4.5347 11.729C4.5311 11.5938 4.5316 11.4589 4.5327 11.3235Z" fill="white"/>
<path d="M1.84176 11.6303C1.90686 11.5668 1.97236 11.5027 2.03796 11.4391C2.21146 11.4381 2.38487 11.4376 2.55797 11.4411C2.55997 11.5723 2.55997 11.7039 2.55897 11.835C2.45107 11.8375 2.34367 11.838 2.23576 11.839C2.23826 12.1517 2.23426 12.4643 2.23826 12.777C2.74908 12.7785 3.25999 12.7735 3.7708 12.7795C3.7733 12.9086 3.7733 13.0372 3.7723 13.1663C3.64569 13.1668 3.51859 13.1673 3.39229 13.1673C2.93898 13.1628 2.48507 13.1749 2.03226 13.1618C1.95666 13.1189 1.88046 13.0483 1.84616 12.9682C1.83426 12.5225 1.84426 12.0762 1.84176 11.6303Z" fill="white"/>
<path d="M12.4393 11.8902C12.5074 11.8262 12.576 11.7621 12.6461 11.6996C13.0878 11.7031 13.5297 11.6996 13.9714 11.7011C14.038 11.7646 14.1045 11.8287 14.1714 11.8917C14.1719 12.329 14.1719 12.766 14.1714 13.2029C14.0368 13.2039 13.9021 13.2029 13.768 13.1994C13.768 12.8318 13.765 12.4647 13.7695 12.0971C13.4595 12.0966 13.1507 12.0971 12.8415 12.0966C12.842 12.2085 12.8415 12.3205 12.839 12.4324C12.7064 12.4344 12.5738 12.4344 12.4416 12.4339C12.4373 12.2527 12.4388 12.0716 12.4393 11.8902Z" fill="white"/>
<path d="M15.2755 12.662C15.7655 12.3428 16.2604 12.0319 16.7545 11.7199C16.8725 11.7986 16.9885 11.8813 17.1035 11.964C16.7479 12.1907 16.3926 12.4168 16.0375 12.6424C16.5594 12.6479 17.0814 12.6424 17.6039 12.6454C17.6049 12.7841 17.6049 12.9233 17.6039 13.0619C16.8281 13.0644 16.0525 13.0644 15.277 13.0619C15.275 12.9282 15.2745 12.7947 15.2755 12.662Z" fill="white"/>
<path d="M9.7298 12.7411C10.2215 12.4138 10.7288 12.1102 11.2204 11.783C11.3373 11.8637 11.4529 11.9459 11.5719 12.023C11.2319 12.262 10.871 12.4703 10.5245 12.7007C11.0434 12.7098 11.5623 12.6997 12.0812 12.7062C12.0847 12.8489 12.0847 12.9921 12.0812 13.1348C11.3046 13.1393 10.5279 13.1363 9.7512 13.1363C9.7312 13.0054 9.7307 12.8733 9.7298 12.7411Z" fill="white"/>
<path d="M4.6254 12.3881C4.8412 12.7181 5.05761 13.0481 5.27091 13.379C5.49982 13.0522 5.70462 12.709 5.93152 12.3805C5.93602 12.6029 5.93252 12.8258 5.93452 13.0482C5.70862 13.379 5.50182 13.7229 5.26991 14.0492C5.05511 13.7214 4.8468 13.3892 4.6229 13.0674C4.6207 12.841 4.6184 12.6141 4.6254 12.3881Z" fill="white"/>
<path d="M6.99074 13.2348C6.98574 13.0936 6.98524 12.9524 6.99324 12.8117C7.12894 12.8102 7.26554 12.8107 7.40125 12.8217C7.40425 12.9593 7.40425 13.0969 7.40125 13.2347C7.26484 13.2358 7.12764 13.2364 6.99074 13.2348Z" fill="white"/>
<path d="M8.91336 13.4386C9.05106 13.4371 9.18916 13.4366 9.32687 13.4386C9.33037 13.9514 9.32687 14.4643 9.32887 14.9771C9.23106 14.9811 9.13316 14.9857 9.03536 14.9947C9.00406 14.9886 8.94156 14.9776 8.91026 14.972C8.91336 14.4612 8.90776 13.9494 8.91336 13.4386Z" fill="white"/>
<path d="M11.7621 13.7603C12.0221 13.7553 12.2814 13.7588 12.5412 13.7573C12.7006 14.3155 12.8601 14.8737 13.0198 15.432C12.8857 15.432 12.7515 15.432 12.6179 15.429C12.5039 15.0024 12.3804 14.5783 12.2644 14.1522C12.1918 14.1477 12.1192 14.1446 12.0466 14.1411C11.9266 14.5717 11.807 15.0022 11.6876 15.4326C11.5535 15.4326 11.4198 15.4326 11.2862 15.4306C11.4495 14.8749 11.6119 14.3189 11.7621 13.7603Z" fill="white"/>
<path d="M5.87461 14.6851C6.36932 14.3674 6.86303 14.0477 7.36464 13.7406C7.48014 13.8218 7.59664 13.9006 7.71105 13.9837C7.35204 14.2071 7.00003 14.4421 6.63742 14.6594C7.16293 14.6694 7.68885 14.6579 8.21486 14.6655C8.21736 14.8037 8.21786 14.9418 8.21386 15.08C7.43474 15.0825 6.65562 15.0861 5.87651 15.0785C5.87261 14.9473 5.87311 14.8162 5.87461 14.6851Z" fill="white"/>
<path d="M9.96087 13.842C10.1057 13.8436 10.2505 13.8348 10.3941 13.8158C10.5641 14.0958 10.7647 14.3735 10.852 14.6922C10.7163 14.6932 10.5807 14.6932 10.4456 14.6942C10.286 14.4088 10.1244 14.1247 9.96087 13.842Z" fill="white"/>
<path d="M15.6879 14.0129C15.8296 14.0084 15.9718 14.0084 16.1139 14.0114C16.1145 14.147 16.1145 14.2828 16.1139 14.4189C15.9718 14.4224 15.83 14.4224 15.6883 14.4164C15.6858 14.2817 15.6854 14.1476 15.6879 14.0129Z" fill="white"/>
<path d="M14.6436 15.0981C14.8151 14.8223 14.9986 14.5545 15.1711 14.2792C15.1761 14.4834 15.1792 14.6882 15.1741 14.8929C15.1791 14.9696 15.1232 15.0291 15.0874 15.0911C14.8974 15.372 14.7152 15.6584 14.5287 15.9411C14.3043 15.6063 14.087 15.2679 13.8651 14.9311C13.8641 14.7072 13.8621 14.4833 13.8676 14.2599C14.0854 14.5862 14.2912 14.921 14.5141 15.2442C14.577 15.2176 14.6048 15.1501 14.6436 15.0981Z" fill="white"/>
<path d="M4.08996 14.7013C4.45357 14.6892 4.81768 14.6952 5.18178 14.6978C5.18378 14.8324 5.19238 14.9678 5.17518 15.1022C4.81408 15.1198 4.45157 15.1113 4.09046 15.1047C4.08896 14.9701 4.08896 14.8359 4.08996 14.7013Z" fill="white"/>
<path d="M8.5227 15.5803C9.10561 15.5717 9.68812 15.5803 10.271 15.5758C10.3377 15.6425 10.4044 15.7096 10.471 15.777C10.4685 16.2223 10.4695 16.6681 10.47 17.1144C10.4116 17.1754 10.3537 17.2371 10.2965 17.2995C10.1099 17.3035 9.92333 17.304 9.73652 17.2985C9.73902 17.1724 9.72292 17.0438 9.75312 16.9203C9.85853 16.9092 9.96443 16.9132 10.0708 16.9122C10.0718 16.6 10.0708 16.2883 10.0708 15.9767C9.55442 15.9737 9.03751 15.9833 8.5217 15.9717C8.5201 15.8411 8.5211 15.7107 8.5227 15.5803Z" fill="white"/>
<path d="M5.72229 15.7285C5.85843 15.7265 5.99476 15.7269 6.1313 15.7295C6.1333 15.8656 6.13346 16.0021 6.1318 16.139C5.9946 16.141 5.85793 16.1412 5.72179 16.1395C5.71992 16.0023 5.72042 15.8653 5.72229 15.7285Z" fill="white"/>
<path d="M12.9346 15.9488C13.0889 15.8188 13.2291 16.0355 13.3612 16.0988C13.3612 16.1109 13.3612 16.1356 13.3612 16.1477C13.0163 16.3701 12.6633 16.5804 12.3258 16.8144L12.5215 16.8129C12.6253 16.8129 12.7296 16.8141 12.8343 16.8164C12.8353 16.9527 12.8353 17.0893 12.8333 17.2255C12.4086 17.2316 11.984 17.23 11.5594 17.2265C11.5508 17.0979 11.5494 16.9688 11.5483 16.8406C12.0016 16.5306 12.4751 16.2506 12.9346 15.9488Z" fill="white"/>
<path d="M6.48831 16.3271C7.03952 16.3251 7.59123 16.3221 8.14234 16.3286C8.14334 16.4642 8.14334 16.6 8.14234 16.7361C7.59063 16.7442 7.03942 16.7406 6.48781 16.7381C6.48531 16.601 6.48631 16.4638 6.48831 16.3271Z" fill="white"/>
<path d="M7.95729 17.374C8.11259 17.3725 8.2679 17.372 8.4233 17.375C8.567 17.6609 8.75811 17.9242 8.86861 18.2262C8.72941 18.2338 8.5907 18.2338 8.4516 18.2348C8.2816 17.9509 8.12269 17.6602 7.95729 17.374Z" fill="white"/>
<path d="M10.7102 17.8087C10.8459 17.8077 10.9815 17.8097 11.1166 17.8187C11.1191 17.9544 11.1181 18.0905 11.101 18.2257C10.9714 18.2262 10.8422 18.2262 10.7132 18.2257C10.7082 18.0857 10.7083 17.9474 10.7102 17.8087Z" fill="white"/>
<path d="M9.76467 19.1582C9.76467 18.8415 9.75757 18.5243 9.76967 18.2076C9.90637 18.2076 10.0435 18.2152 10.1797 18.2276C10.1812 18.5377 10.1812 18.848 10.1797 19.1585C10.0413 19.1606 9.90294 19.1603 9.76467 19.1582Z" fill="white"/>
</g>
<defs>
<clipPath id="clip0">
<rect width="20" height="20" fill="white"/>
</clipPath>
</defs>
</svg>
