<svg width="20" height="20" viewBox="0 0 20 20" fill="none" xmlns="http://www.w3.org/2000/svg">
<circle cx="10" cy="10" r="10" fill="black"/>
<path fill-rule="evenodd" clip-rule="evenodd" d="M15.5556 8.29024C14.868 7.90325 14.0209 7.90325 13.3333 8.29024L10 10.1666L13.3333 12.043C14.0209 12.4301 14.868 12.4301 15.5556 12.043C16.2432 11.656 16.6667 10.9408 16.6667 10.1666C16.6667 9.3926 16.2432 8.67727 15.5556 8.29024Z" fill="white"/>
<path fill-rule="evenodd" clip-rule="evenodd" d="M4.72256 8.29024C4.06935 8.67727 3.66699 9.3926 3.66699 10.1666C3.66699 10.9408 4.06935 11.656 4.72256 12.043C5.37569 12.4301 6.18049 12.4301 6.83362 12.043L10.0003 10.1666L6.83362 8.29024C6.18049 7.90325 5.37569 7.90325 4.72256 8.29024Z" fill="white"/>
<path fill-rule="evenodd" clip-rule="evenodd" d="M8.29026 15.6112C8.67735 16.2643 9.39259 16.6666 10.1667 16.6666C10.9408 16.6666 11.656 16.2643 12.043 15.6112C12.4301 14.958 12.4301 14.1532 12.043 13.5L10.1667 10.3333L8.29026 13.5C7.90325 14.1532 7.90325 14.958 8.29026 15.6112Z" fill="white"/>
<path fill-rule="evenodd" clip-rule="evenodd" d="M12.043 4.72227C11.656 4.06905 10.9407 3.66669 10.1667 3.66669C9.39259 3.66669 8.67735 4.06905 8.29026 4.72227C7.90325 5.3754 7.90325 6.18022 8.29026 6.83336L10.1667 10L12.043 6.83336C12.4301 6.18022 12.4301 5.3754 12.043 4.72227Z" fill="white"/>
</svg>
