<svg width="20" height="20" viewBox="0 0 20 20" fill="none" xmlns="http://www.w3.org/2000/svg">
<g clip-path="url(#clip0_4943_59784)">
<path d="M10 20C15.5228 20 20 15.5228 20 10C20 4.47715 15.5228 0 10 0C4.47715 0 0 4.47715 0 10C0 15.5228 4.47715 20 10 20Z" fill="#202029"/>
<circle cx="10" cy="10" r="9.5" stroke="url(#paint0_linear_4943_59784)"/>
<path d="M3.22426 12.1019H4.31449V10.0657H4.33629L5.86534 12.1019H6.75115V8.23583H5.66092V10.2399H5.63912L4.12097 8.23583H3.22426V12.1019Z" fill="#00C26F"/>
<path fill-rule="evenodd" clip-rule="evenodd" d="M11.3499 10.1702C11.3499 8.9351 10.584 8.16885 9.36843 8.16885C8.15282 8.16885 7.38694 8.9351 7.38694 10.1702C7.38694 11.4053 8.1501 12.1689 9.36843 12.1689C10.584 12.1689 11.3499 11.4053 11.3499 10.1702ZM8.56438 10.1702C8.56438 9.5004 8.886 9.07441 9.36843 9.07441C9.85086 9.07441 10.1725 9.5004 10.1725 10.1702C10.1725 10.8373 9.85358 11.2633 9.36843 11.2633C8.88328 11.2633 8.56438 10.8373 8.56438 10.1702Z" fill="#00C26F"/>
<path d="M13.9263 12.1019L14.5123 9.88888H14.5341L15.1201 12.1019H16.2103L17.2243 8.23583H16.0305L15.578 10.6792H15.5562L14.9702 8.23583H14.0762L13.4902 10.6792H13.4684L13.016 8.23583H11.8222L12.8361 12.1019H13.9263Z" fill="#00C26F"/>
<path d="M17.0315 10L20.0713 15.0231L17.0427 13.7287L17.0315 10Z" fill="#E68F7B"/>
<path d="M14 15.0231L17.0314 10L17.0427 13.7287L14 15.0231Z" fill="#F8EC7C"/>
<path d="M17.0314 16.875L14 15.0229L17.0427 13.7285L17.0314 16.875Z" fill="#6EB87D"/>
<path d="M20.0713 15.0229L17.0427 13.7285L17.0315 16.875L20.0713 15.0229Z" fill="#946BA7"/>
<path d="M17.0315 17.5127L20.0713 15.7108L17.0315 19.9939V17.5127Z" fill="#697CB9"/>
<path d="M17.0314 17.5127L14 15.7108L17.0314 19.9939V17.5127Z" fill="#4FADD0"/>
</g>
<defs>
<linearGradient id="paint0_linear_4943_59784" x1="9.99928" y1="-0.518764" x2="9.99928" y2="20.5163" gradientUnits="userSpaceOnUse">
<stop stop-color="#FB9600"/>
<stop offset="0.25" stop-color="#00C26F"/>
<stop offset="0.5052" stop-color="#6696D6"/>
<stop offset="0.776" stop-color="#F28984"/>
<stop offset="0.9999" stop-color="#5FCEF0"/>
<stop offset="1" stop-color="#5FCEF0"/>
</linearGradient>
<clipPath id="clip0_4943_59784">
<rect width="20" height="20" fill="white"/>
</clipPath>
</defs>
</svg>
