<svg width="20" height="20" viewBox="0 0 20 20" fill="none" xmlns="http://www.w3.org/2000/svg">
<path d="M8.7226 12.688L10.0002 14.3712V18L5.2002 15.8696V6.4952C5.2002 6.3568 5.2618 6.2248 5.3698 6.1328L5.9162 5.6648C5.96883 5.61928 6.03024 5.58504 6.09664 5.56419C6.16303 5.54335 6.233 5.53635 6.30221 5.54362C6.37142 5.5509 6.4384 5.57229 6.49901 5.60648C6.55962 5.64067 6.61257 5.68693 6.6546 5.7424L11.0266 11.4736L13.4418 12.9504V5.0464L11.3074 3.9816L11.2034 8.9384L10.0738 7.44L10.0226 2L14.8002 4.2232V13.5544L13.7146 14.4488L10.2954 12.5392L6.5002 7.5608L6.4482 15.124L8.7082 16.2816L8.7226 12.688Z" fill="#00E789"/>
</svg>
