<svg width="20" height="20" viewBox="0 0 20 20" fill="none" xmlns="http://www.w3.org/2000/svg">
<path fill-rule="evenodd" clip-rule="evenodd" d="M9.4805 0.988269L14.3943 3.82864L14.822 3.08797L9.4805 0L4.13644 3.08691L4.56413 3.82758L9.4805 0.988269ZM3.41713 13.9594L7.72954 16.4515V18.5182L1.85601 15.1259V5.39135L3.01992 4.71966L2.59223 3.97899L1 4.89827V15.6194L8.58343 19.9999V15.958L3.84503 13.2188L3.41713 13.9594ZM14.3943 6.89368L9.4805 4.05331L4.56413 6.89263L4.13644 6.15195L9.4805 3.06589L14.822 6.15301L14.3943 6.89368ZM16.3622 3.97948L15.9345 4.72015L17.0984 5.39183V15.1264L11.2243 18.5182V16.4516L15.5837 13.9333L15.156 13.1926L10.3693 15.9581V20L17.9528 15.6195V4.89833L16.3622 3.97948ZM11.9064 10.9838C11.9443 11.2163 11.9332 11.4542 11.8737 11.6822C11.797 12.0096 11.6188 12.3045 11.3646 12.5246C11.1103 12.7448 10.793 12.879 10.458 12.9081C10.42 12.9112 10.3822 12.9154 10.3441 12.9197L10.3399 12.9202C10.3259 12.9221 10.313 12.9286 10.3032 12.9387C10.2933 12.9488 10.2871 12.9618 10.2855 12.9758C10.2836 13.0213 10.2823 13.0662 10.2823 13.1117C10.2814 13.148 10.2814 13.1846 10.2813 13.2211C10.2813 13.2524 10.2812 13.2838 10.2806 13.315C10.2791 13.3629 10.2573 13.3817 10.2049 13.384C10.182 13.3857 10.1594 13.3857 10.1371 13.3857H9.37404H9.34018C9.24051 13.3836 9.23014 13.3747 9.22887 13.282V13.0448C9.22845 12.939 9.22147 12.9178 9.10338 12.9178C9.04709 12.9178 8.99059 12.9178 8.93408 12.9191C8.91709 12.9185 8.90017 12.9216 8.88456 12.9284C8.87128 12.935 8.86052 12.9458 8.85388 12.9591C8.84803 12.9809 8.84532 13.0034 8.84584 13.026V13.2463C8.84542 13.2748 8.8433 13.3028 8.84055 13.3309C8.83884 13.3419 8.83391 13.3521 8.82637 13.3603C8.81883 13.3685 8.80904 13.3742 8.79822 13.3768C8.7957 13.3771 8.79318 13.3773 8.79066 13.3775C8.76471 13.3798 8.73923 13.3821 8.71358 13.3821H7.91661C7.88847 13.3821 7.86011 13.3796 7.83196 13.3768C7.82091 13.3756 7.81057 13.3708 7.80248 13.3631C7.79439 13.3555 7.789 13.3455 7.7871 13.3345C7.78671 13.3251 7.78629 13.3158 7.78588 13.3064C7.78406 13.2651 7.78223 13.2237 7.78223 13.1824C7.78153 13.1503 7.78126 13.1183 7.78098 13.0861C7.78068 13.0505 7.78037 13.0148 7.77948 12.979C7.77954 12.9705 7.77783 12.9621 7.77446 12.9543C7.77108 12.9465 7.76612 12.9395 7.75989 12.9337C7.75366 12.9279 7.74629 12.9235 7.73826 12.9207C7.73023 12.918 7.72171 12.9169 7.71324 12.9176C7.66817 12.9144 7.62331 12.9144 7.57781 12.9144H7.18779C7.15613 12.9141 7.12448 12.9114 7.09317 12.9088L7.08664 12.9083C7.07571 12.9063 7.06557 12.9013 7.05737 12.8938C7.04918 12.8863 7.04325 12.8767 7.04029 12.866L7.03976 12.8575C7.0378 12.8265 7.03585 12.7954 7.03585 12.7644V12.0013C7.03585 11.9766 7.03699 11.9517 7.03813 11.9269C7.03829 11.9235 7.03844 11.9201 7.0386 11.9167C7.03873 11.9025 7.04422 11.889 7.05396 11.8787C7.0637 11.8685 7.07697 11.8623 7.09108 11.8614C7.14187 11.8591 7.19308 11.8578 7.24387 11.8578C7.27422 11.8574 7.30467 11.8572 7.33516 11.8569C7.38375 11.8565 7.43246 11.8561 7.4811 11.8551C7.48951 11.855 7.49782 11.8533 7.50552 11.8499C7.51322 11.8465 7.52015 11.8416 7.52586 11.8354C7.53158 11.8292 7.53596 11.8219 7.53875 11.814C7.54153 11.8061 7.54265 11.7976 7.54204 11.7893C7.54374 11.767 7.54374 11.7442 7.54374 11.7215V11.3315C7.54374 11.3111 7.54229 11.2907 7.54086 11.2702C7.54031 11.2624 7.53976 11.2546 7.53929 11.2469L7.54289 11.0287V10.8759V9.48555V8.70552C7.54288 8.66047 7.5402 8.61545 7.53485 8.57072C7.53292 8.5629 7.52918 8.55564 7.52392 8.54953C7.51866 8.54343 7.51204 8.53865 7.50459 8.53559C7.47682 8.52933 7.44839 8.52649 7.41994 8.52712C7.3719 8.52649 7.32381 8.52649 7.27572 8.52649C7.22763 8.52649 7.17954 8.52649 7.1315 8.52585C7.10912 8.52543 7.08688 8.52231 7.06526 8.51654C7.0601 8.5143 7.05544 8.51104 7.05155 8.50697C7.04766 8.5029 7.04463 8.4981 7.04262 8.49284C7.03755 8.47654 7.03512 8.45954 7.03542 8.44248V7.56086C7.03376 7.54397 7.03586 7.52691 7.04156 7.51092C7.0452 7.50362 7.05026 7.49711 7.05643 7.49177C7.06261 7.48643 7.06978 7.48237 7.07754 7.47981C7.11061 7.47313 7.14431 7.47001 7.17805 7.4705H7.585C7.63008 7.4705 7.67558 7.46881 7.72044 7.46648C7.73454 7.4659 7.74798 7.46036 7.7584 7.45084C7.76882 7.44131 7.77553 7.42842 7.77737 7.41442C7.77969 7.35813 7.78096 7.30163 7.78096 7.24513C7.7811 7.22909 7.78124 7.21304 7.78137 7.19699C7.78205 7.11692 7.78273 7.03679 7.78414 6.95711C7.78394 6.9429 7.78902 6.92912 7.79841 6.91845C7.80779 6.90777 7.82081 6.90096 7.83493 6.89934C7.84007 6.89896 7.84518 6.89854 7.85027 6.89813C7.8678 6.89671 7.8851 6.89532 7.90264 6.89532H8.71654C8.73686 6.89532 8.75668 6.89682 8.77674 6.89835C8.77924 6.89854 8.78175 6.89873 8.78426 6.89891C8.79839 6.89948 8.81185 6.90508 8.82221 6.91471C8.83258 6.92433 8.83915 6.93735 8.84076 6.9514C8.84117 6.96018 8.8416 6.96895 8.84203 6.9777C8.84384 7.01429 8.84563 7.05063 8.84563 7.08683C8.84606 7.12882 8.84625 7.17069 8.84643 7.21254C8.84669 7.27238 8.84696 7.33218 8.84795 7.3922C8.84838 7.44214 8.87229 7.46923 8.91779 7.46923C8.97059 7.47036 9.02349 7.46998 9.07623 7.46961C9.10254 7.46942 9.12881 7.46923 9.15502 7.46923C9.16634 7.46995 9.17764 7.46745 9.1876 7.46204C9.20094 7.45315 9.21744 7.44109 9.22104 7.42775C9.22767 7.40004 9.23065 7.37159 9.22993 7.34311C9.2312 7.23581 9.2312 7.12852 9.2312 7.02123C9.2302 6.99283 9.23261 6.96441 9.23839 6.93658C9.24133 6.92911 9.24578 6.92231 9.25146 6.91663C9.25714 6.91095 9.26393 6.90651 9.27141 6.90357C9.2931 6.89717 9.31568 6.89431 9.33828 6.8951H10.186C10.2087 6.89553 10.2312 6.8991 10.2529 6.90569C10.2581 6.90759 10.2628 6.9106 10.2667 6.91451C10.2706 6.91842 10.2736 6.92314 10.2755 6.92833C10.281 6.9502 10.2839 6.97265 10.284 6.9952V7.3175C10.2842 7.3959 10.2835 7.43275 10.3015 7.45328C10.3188 7.4731 10.3535 7.4777 10.4233 7.48976C10.7493 7.54301 11.05 7.69855 11.2819 7.9339C11.5138 8.16925 11.6649 8.47223 11.7133 8.79906C11.7448 9.00623 11.7396 9.21732 11.6981 9.4227C11.6642 9.59533 11.599 9.76029 11.5057 9.90943C11.482 9.94773 11.4587 9.98646 11.4376 10.0265C11.4355 10.0315 11.4347 10.0369 11.4351 10.0423C11.4355 10.0477 11.4371 10.0529 11.4399 10.0576C11.4552 10.081 11.4727 10.103 11.4919 10.1234L11.6267 10.2895C11.6305 10.2953 11.6342 10.3011 11.6379 10.3071C11.6432 10.3153 11.6484 10.3236 11.6538 10.3318C11.7825 10.5292 11.8686 10.7512 11.9064 10.9838ZM8.61221 8.56966C8.60683 8.60311 8.60414 8.63694 8.60417 8.67081C8.60332 8.79504 8.60374 8.91926 8.6048 9.0439C8.6048 9.09296 8.60466 9.14195 8.60452 9.1909C8.60424 9.28872 8.60396 9.38641 8.6048 9.48428C8.60507 9.51276 8.60833 9.54114 8.61454 9.56893C8.61624 9.57429 8.61917 9.57916 8.6231 9.58317C8.62704 9.58718 8.63186 9.5902 8.63718 9.592C8.67018 9.5984 8.70367 9.60194 8.73728 9.60258H9.43182H10.0603H10.0942C10.1107 9.60172 10.1271 9.60111 10.1436 9.6005C10.1837 9.59901 10.2237 9.59753 10.2635 9.59242C10.3701 9.57537 10.4679 9.52293 10.5412 9.44355C10.6144 9.36417 10.6588 9.26247 10.6673 9.15479C10.669 9.09808 10.669 9.04157 10.6673 8.98549C10.6629 8.87112 10.6151 8.76271 10.5337 8.68224C10.4847 8.63107 10.4255 8.59088 10.3598 8.56432C10.2941 8.53776 10.2236 8.52544 10.1528 8.52818H8.72987C8.70154 8.52898 8.67328 8.53138 8.64522 8.53538C8.63672 8.53667 8.62887 8.54073 8.62291 8.54693C8.61694 8.55312 8.61318 8.56111 8.61221 8.56966ZM10.0798 11.8589C10.1646 11.859 10.2492 11.859 10.3342 11.8576C10.4477 11.8525 10.5569 11.8124 10.6467 11.7427C10.7365 11.6731 10.8025 11.5773 10.8357 11.4687C10.8625 11.3762 10.8705 11.2794 10.8592 11.1838C10.8539 11.0757 10.8166 10.9717 10.7518 10.885C10.6871 10.7983 10.598 10.7328 10.4958 10.6971C10.4212 10.6706 10.3421 10.6591 10.2631 10.6632H8.75421C8.72374 10.6632 8.69326 10.6648 8.66279 10.6663L8.65263 10.6668C8.64192 10.6696 8.63217 10.6753 8.62442 10.6832C8.61666 10.6911 8.6112 10.7009 8.60861 10.7117C8.60822 10.7158 8.60781 10.72 8.6074 10.7241C8.60557 10.7425 8.60374 10.7609 8.60374 10.779V11.2367C8.60374 11.2916 8.6036 11.3464 8.60346 11.4011C8.60318 11.5104 8.6029 11.6196 8.60374 11.7287C8.60487 11.7622 8.60934 11.7954 8.61708 11.828C8.61888 11.833 8.62183 11.8375 8.62569 11.8412C8.62954 11.8449 8.6342 11.8476 8.6393 11.8491C8.67235 11.855 8.70582 11.8583 8.73939 11.8589H9.51943H10.0288C10.0458 11.8589 10.0628 11.8589 10.0798 11.8589Z" fill="url(#paint0_linear_1698_1969)"/>
<defs>
<linearGradient id="paint0_linear_1698_1969" x1="2.76279" y1="32.2998" x2="25.7706" y2="-12.0211" gradientUnits="userSpaceOnUse">
<stop offset="0.13" stop-color="#13AAE6"/>
<stop offset="1" stop-color="#023B90"/>
</linearGradient>
</defs>
</svg>
