<svg width="20" height="20" viewBox="0 0 20 20" fill="none" xmlns="http://www.w3.org/2000/svg">
<circle cx="10" cy="10" r="10" fill="white"/>
<path fill-rule="evenodd" clip-rule="evenodd" d="M8.16937 0.156133C6.20376 0.511275 4.44875 1.45075 2.94916 2.95025C1.81403 4.0853 1.16383 5.0792 0.634488 6.48816C-0.439809 9.3483 -0.13967 12.5364 1.45727 15.2253C2.11948 16.3404 3.66069 17.8815 4.7758 18.5437C8.04592 20.4854 11.9549 20.4854 15.225 18.5437C16.3402 17.8815 17.8814 16.3404 18.5436 15.2253C20.4855 11.9554 20.4855 8.04668 18.5436 4.77678C17.8814 3.66173 16.3402 2.12062 15.225 1.45845C13.097 0.194748 10.5533 -0.274739 8.16937 0.156133ZM12.2841 1.49327C15.3793 2.37742 17.6365 4.64142 18.522 7.75016C18.8489 8.89792 18.851 11.0992 18.5264 12.2309C17.6213 15.3846 15.3812 17.6306 12.2515 18.5221C11.0959 18.8512 8.90491 18.8512 7.74938 18.5221C4.61963 17.6306 2.3795 15.3846 1.47448 12.2309C1.15203 11.1068 1.15203 8.89532 1.47448 7.77127C2.45363 4.35911 5.11906 1.91063 8.51614 1.30299C9.38244 1.14803 11.439 1.25187 12.2841 1.49327ZM5.64841 3.30939C5.31826 3.53258 4.94678 3.80929 4.82303 3.92434L4.59792 4.13362V10.0118V15.89L5.02312 16.2337C5.25693 16.4228 5.6393 16.6962 5.87271 16.8414L6.29701 17.1053L6.32292 11.5613L6.34873 6.01727L9.99192 11.5606C11.9956 14.6094 13.651 17.1039 13.6705 17.1039C13.7544 17.1039 14.5868 16.5497 14.9777 16.2337L15.4029 15.89V10.0011V4.11211L14.9777 3.76837C14.7438 3.5793 14.3615 3.30589 14.1281 3.16073L13.7038 2.89683L13.6779 8.44084L13.6521 13.9849L10.0089 8.44154C8.0052 5.39272 6.33943 2.89943 6.30721 2.90093C6.275 2.90243 5.97856 3.0863 5.64841 3.30939Z" fill="#141521"/>
</svg>
