<svg width="20" height="20" viewBox="0 0 20 20" fill="none" xmlns="http://www.w3.org/2000/svg">
<path d="M10 20C15.5228 20 20 15.5228 20 10C20 4.47715 15.5228 0 10 0C4.47715 0 0 4.47715 0 10C0 15.5228 4.47715 20 10 20Z" fill="#164B79"/>
<path d="M8.80606 11.6675L8.41669 12.4987H7.55294L9.89856 7.5L11.4629 10.8331H10.5786L9.87856 9.38625L9.17731 10.8575L8.80606 11.6675ZM12.2148 12.48L14.0461 10.0112L12.2017 7.52375H13.2111L14.5492 9.3425L14.0623 10.0112L14.5492 10.68L13.2117 12.4987H11.3598L10.9686 11.6675H11.8323L12.2148 12.48ZM15.0436 10.0006L14.5492 9.32125L15.8873 7.5025H16.8748L15.0436 10.0006ZM15.0436 10.0006L16.8748 12.4994H15.8873L14.5498 10.6806L15.0436 10.0006ZM7.13856 8.22438C7.36304 8.4613 7.5385 8.74024 7.65487 9.04517C7.77124 9.3501 7.82624 9.67501 7.81669 10.0013C7.82526 10.6581 7.5827 11.2935 7.13856 11.7775C6.68731 12.2831 6.12919 12.5 5.47106 12.5C5.15801 12.5031 4.8478 12.4404 4.56054 12.3159C4.27328 12.1915 4.01538 12.008 3.80356 11.7775C3.35218 11.2979 3.10827 10.6596 3.12481 10.0013C3.11476 9.48578 3.26572 8.98 3.55669 8.55438L4.13169 9.16687C3.95168 9.48807 3.87671 9.85755 3.91729 10.2235C3.95786 10.5895 4.11195 10.9335 4.35794 11.2075C4.49735 11.3654 4.66849 11.4921 4.86019 11.5793C5.05189 11.6665 5.25983 11.7123 5.47044 11.7138C5.89044 11.7138 6.29169 11.5306 6.58294 11.2075C6.73234 11.0494 6.84914 10.8635 6.92667 10.6603C7.0042 10.457 7.04095 10.2405 7.03481 10.0231C7.03627 9.58566 6.87498 9.16328 6.58231 8.83812C6.44224 8.68282 6.27039 8.55946 6.07844 8.47642C5.88649 8.39338 5.67891 8.35261 5.46981 8.35688C5.19349 8.34929 4.92134 8.42555 4.68919 8.57562L4.11419 7.96313C4.50033 7.65781 4.98011 7.4953 5.47231 7.50313C5.78533 7.49753 6.09593 7.559 6.38322 7.68341C6.67051 7.80781 6.92785 7.99227 7.13794 8.22438H7.13856Z" fill="white"/>
</svg>
