<svg width="20" height="20" viewBox="0 0 20 20" fill="none" xmlns="http://www.w3.org/2000/svg">
<circle cx="10" cy="10" r="10" fill="white"/>
<path fill-rule="evenodd" clip-rule="evenodd" d="M4.0465 9.59276C4.0465 10.068 3.66155 10.4534 3.18604 10.4534C2.71094 10.4534 2.32558 10.068 2.32558 9.59276C2.32558 9.11756 2.71094 8.73251 3.18604 8.73251C3.66155 8.73251 4.0465 9.11756 4.0465 9.59276ZM17.7208 9.59276C17.7208 10.068 17.3355 10.4534 16.8606 10.4534C16.3853 10.4534 15.9999 10.068 15.9999 9.59276C15.9999 9.11756 16.3853 8.73251 16.8606 8.73251C17.3355 8.73251 17.7208 9.11756 17.7208 9.59276ZM10.8837 12.9882C10.8837 13.4633 10.4983 13.8487 10.0233 13.8487C9.54805 13.8487 9.16274 13.4633 9.16274 12.9882C9.16274 12.513 9.54805 12.1278 10.0233 12.1278C10.4983 12.1278 10.8837 12.513 10.8837 12.9882ZM7.44182 11.3139C7.44182 11.7889 7.05672 12.1743 6.58126 12.1743C6.10601 12.1743 5.7209 11.7889 5.7209 11.3139C5.7209 10.8385 6.10601 10.4534 6.58126 10.4534C7.05672 10.4534 7.44182 10.8385 7.44182 11.3139ZM14.279 11.3139C14.279 11.7889 13.8937 12.1743 13.4186 12.1743C12.9432 12.1743 12.5581 11.7889 12.5581 11.3139C12.5581 10.8385 12.9432 10.4534 13.4186 10.4534C13.8937 10.4534 14.279 10.8385 14.279 11.3139ZM3.76743 12.1978C3.76743 12.5183 3.50736 12.779 3.18635 12.779C2.86493 12.779 2.60465 12.5183 2.60465 12.1978C2.60465 11.8764 2.86493 11.6162 3.18635 11.6162C3.50736 11.6162 3.76743 11.8764 3.76743 12.1978ZM17.4417 12.1978C17.4417 12.5183 17.1813 12.779 16.8604 12.779C16.5392 12.779 16.279 12.5183 16.279 12.1978C16.279 11.8764 16.5392 11.6162 16.8604 11.6162C17.1813 11.6162 17.4417 11.8764 17.4417 12.1978ZM10.6046 15.639C10.6046 15.9602 10.344 16.2208 10.0234 16.2208C9.70257 16.2208 9.44181 15.9602 9.44181 15.639C9.44181 15.3181 9.70257 15.058 10.0234 15.058C10.344 15.058 10.6046 15.3181 10.6046 15.639ZM7.16275 13.9187C7.16275 14.2398 6.90252 14.4999 6.58157 14.4999C6.26041 14.4999 5.99997 14.2398 5.99997 13.9187C5.99997 13.5975 6.26041 13.3371 6.58157 13.3371C6.90252 13.3371 7.16275 13.5975 7.16275 13.9187ZM13.9999 13.9187C13.9999 14.2398 13.7393 14.4999 13.4188 14.4999C13.0975 14.4999 12.8371 14.2398 12.8371 13.9187C12.8371 13.5975 13.0975 13.3371 13.4188 13.3371C13.7393 13.3371 13.9999 13.5975 13.9999 13.9187ZM3.48836 14.2438C3.48836 14.4111 3.35309 14.5464 3.18615 14.5464C3.01898 14.5464 2.88371 14.4111 2.88371 14.2438C2.88371 14.0769 3.01898 13.9418 3.18615 13.9418C3.35309 13.9418 3.48836 14.0769 3.48836 14.2438ZM17.1627 14.2438C17.1627 14.4111 17.0271 14.5464 16.8605 14.5464C16.6932 14.5464 16.558 14.4111 16.558 14.2438C16.558 14.0769 16.6932 13.9418 16.8605 13.9418C17.0271 13.9418 17.1627 14.0769 17.1627 14.2438ZM10.3255 17.6857C10.3255 17.8527 10.1899 17.9883 10.0233 17.9883C9.85624 17.9883 9.72087 17.8527 9.72087 17.6857C9.72087 17.5187 9.85624 17.3836 10.0233 17.3836C10.1899 17.3836 10.3255 17.5187 10.3255 17.6857ZM6.88369 15.965C6.88369 16.1318 6.7482 16.2673 6.58126 16.2673C6.41452 16.2673 6.27904 16.1318 6.27904 15.965C6.27904 15.7978 6.41452 15.6627 6.58126 15.6627C6.7482 15.6627 6.88369 15.7978 6.88369 15.965ZM13.7208 15.965C13.7208 16.1318 13.5853 16.2673 13.4186 16.2673C13.2511 16.2673 13.1162 16.1318 13.1162 15.965C13.1162 15.7978 13.2511 15.6627 13.4186 15.6627C13.5853 15.6627 13.7208 15.7978 13.7208 15.965ZM11.1627 2.96513C11.1627 3.60745 10.642 4.12789 10.0003 4.12789C9.35784 4.12789 8.83716 3.60745 8.83716 2.96513C8.83716 2.32297 9.35784 1.80232 10.0003 1.80232C10.642 1.80232 11.1627 2.32297 11.1627 2.96513ZM11.1627 6.40694C11.1627 7.04918 10.642 7.56972 10.0003 7.56972C9.35784 7.56972 8.83716 7.04918 8.83716 6.40694C8.83716 5.76491 9.35784 5.24416 10.0003 5.24416C10.642 5.24416 11.1627 5.76491 11.1627 6.40694ZM11.1627 9.80247C11.1627 10.4444 10.642 10.965 10.0003 10.965C9.35784 10.965 8.83716 10.4444 8.83716 9.80247C8.83716 9.16012 9.35784 8.63948 10.0003 8.63948C10.642 8.63948 11.1627 9.16012 11.1627 9.80247ZM17.9999 6.40694C17.9999 7.04918 17.4793 7.56972 16.8372 7.56972C16.1949 7.56972 15.6743 7.04918 15.6743 6.40694C15.6743 5.76491 16.1949 5.24416 16.8372 5.24416C17.4793 5.24416 17.9999 5.76491 17.9999 6.40694ZM4.32556 6.40694C4.32556 7.04918 3.80509 7.56972 3.16289 7.56972C2.52068 7.56972 2 7.04918 2 6.40694C2 5.76491 2.52068 5.24416 3.16289 5.24416C3.80509 5.24416 4.32556 5.76491 4.32556 6.40694ZM7.7674 4.68602C7.7674 5.32817 7.24688 5.84881 6.60462 5.84881C5.96236 5.84881 5.44184 5.32817 5.44184 4.68602C5.44184 4.04346 5.96236 3.52324 6.60462 3.52324C7.24688 3.52324 7.7674 4.04346 7.7674 4.68602ZM7.7674 8.08124C7.7674 8.72345 7.24688 9.24413 6.60462 9.24413C5.96236 9.24413 5.44184 8.72345 5.44184 8.08124C5.44184 7.43925 5.96236 6.91856 6.60462 6.91856C7.24688 6.91856 7.7674 7.43925 7.7674 8.08124ZM14.6046 4.68602C14.6046 5.32817 14.0839 5.84881 13.4417 5.84881C12.7995 5.84881 12.279 5.32817 12.279 4.68602C12.279 4.04346 12.7995 3.52324 13.4417 3.52324C14.0839 3.52324 14.6046 4.04346 14.6046 4.68602ZM14.6046 8.08124C14.6046 8.72345 14.0839 9.24413 13.4417 9.24413C12.7995 9.24413 12.279 8.72345 12.279 8.08124C12.279 7.43925 12.7995 6.91856 13.4417 6.91856C14.0839 6.91856 14.6046 7.43925 14.6046 8.08124Z" fill="#141414"/>
</svg>
