<svg width="20" height="20" viewBox="0 0 20 20" fill="none" xmlns="http://www.w3.org/2000/svg">
<rect width="20" height="20" fill="#1C7EFF"/>
<path d="M9.92769 5.5768C10.4218 5.66295 10.8917 5.84445 11.3004 6.1069C11.5948 6.29595 12.1504 6.7828 12.1504 6.85165C12.1504 6.87455 12.0494 6.9761 11.9259 7.0773L11.7013 7.2613L11.3598 6.91815C10.7294 6.28465 10.0953 6.00575 9.1876 5.96265C8.32045 5.9215 7.62945 6.11665 6.90595 6.607C6.5857 6.8241 6.52695 6.84795 6.46505 6.786C6.4031 6.72405 6.42565 6.6862 6.6345 6.50175C6.9823 6.19455 7.56535 5.86655 8.0201 5.7223C8.75015 5.4907 9.22594 5.4544 9.92769 5.5768Z" fill="white"/>
<path fill-rule="evenodd" clip-rule="evenodd" d="M10.5064 4.5234C11.3025 4.6628 12.1706 5.04025 12.7876 5.5152C13.2094 5.83995 13.7496 6.4287 14.0528 6.8943L14.3187 7.30245L14.5062 7.11935C14.6902 6.9397 14.6922 6.93375 14.6112 6.80565C14.452 6.5538 14.1321 6.1232 13.9621 5.9318C13.8049 5.755 13.7971 5.73185 13.8701 5.6589C13.9431 5.5859 13.9671 5.5959 14.1537 5.77705C14.2659 5.88595 14.4846 6.12965 14.6397 6.31865L14.9218 6.66225L15.2649 6.30245L15.608 5.9427L15.362 5.6825C15.0687 5.37245 14.9847 5.22835 15.0243 5.1035C15.0687 4.9637 15.2551 4.91375 16.061 4.8258C16.7293 4.75285 16.8105 4.75265 16.9481 4.8238C17.245 4.9773 17.2632 5.05375 17.2255 5.98565C17.2068 6.4473 17.1702 6.9094 17.1441 7.0125C17.0681 7.31235 16.9034 7.27485 16.4887 6.86335L16.1495 6.5267L15.7455 6.9307L15.3415 7.3347L15.5257 7.7006C15.7507 8.14735 16.0153 8.94475 16.1062 9.45C16.1433 9.6564 16.1728 10.1509 16.1717 10.55C16.1697 11.3295 16.0912 11.8522 15.8687 12.5687C15.7258 13.0288 15.1582 14.25 15.0871 14.25C15.0311 14.25 14.4558 13.8992 14.4219 13.8443C14.4088 13.823 14.4879 13.6589 14.5977 13.4795C15.0683 12.7106 15.3823 11.8914 15.5289 11.05C15.639 10.4186 15.6043 9.3469 15.4552 8.775C15.3402 8.33355 15.0934 7.65 15.049 7.65C15.0335 7.65 14.9364 7.7363 14.8334 7.8418L14.6461 8.03365L14.7697 8.4599C15.7691 11.9087 13.366 15.3622 9.8463 15.5354C8.30435 15.6113 6.90239 15.0633 5.79789 13.9529C5.38219 13.535 4.87489 12.8048 4.69869 12.3707L4.58529 12.0913L3.81825 12.8571C3.0539 13.6203 3.05089 13.6226 2.95234 13.524C2.85379 13.4253 2.85629 13.422 3.65609 12.5844C4.25004 11.9625 4.45034 11.7219 4.42619 11.6594C4.27339 11.2637 4.22795 10.8791 4.2302 10C4.23235 9.16295 4.24504 9.0285 4.36394 8.58615C4.63044 7.59485 5.15909 6.6935 5.87984 6.00155C7.15044 4.7817 8.86095 4.2352 10.5064 4.5234ZM4.84519 8.825C5.25474 6.8329 6.67775 5.39555 8.58345 5.049C8.9681 4.97905 9.97709 5.02985 10.3754 5.13925C11.7511 5.51705 12.9382 6.5205 13.4515 7.73945L13.605 8.10395L12.224 9.57695C11.4645 10.3871 10.7293 11.1745 10.5901 11.3268C10.275 11.6715 10.1653 11.7363 10.0657 11.6367C10.0203 11.5913 9.8715 10.9123 9.6729 9.8443C9.46225 8.71175 9.3168 8.05355 9.24655 7.9157C9.1133 7.65405 8.8807 7.5304 8.61545 7.58015C8.3782 7.6247 8.2988 7.7003 6.50125 9.59375C5.6904 10.4478 5.00945 11.129 4.98795 11.1075C4.81485 10.9344 4.72074 9.4301 4.84519 8.825ZM5.15045 11.5433C5.15045 11.5105 5.9313 10.6998 6.8857 9.74185C7.8401 8.78385 8.65859 8 8.70459 8C8.75054 8 8.8147 8.03195 8.8471 8.07095C8.8795 8.11 9.04895 8.9546 9.2237 9.9478C9.5739 11.9385 9.60424 12.0275 9.97489 12.1498C10.3242 12.2651 10.4009 12.2063 12.1486 10.4855L13.7722 8.887L13.817 9.056C13.8867 9.3183 13.8186 10.3728 13.7014 10.8478C13.5765 11.3537 13.2353 12.0939 12.9316 12.5176C12.2666 13.4452 11.265 14.1064 10.1827 14.332C9.07674 14.5626 7.7708 14.2931 6.80045 13.634C6.46805 13.4082 5.91914 12.8669 5.67574 12.525C5.45339 12.2126 5.15045 11.6464 5.15045 11.5433Z" fill="white"/>
</svg>
