<svg width="20" height="20" viewBox="0 0 20 20" fill="none" xmlns="http://www.w3.org/2000/svg">
<circle cx="10" cy="10" r="10" fill="#3A84F7"/>
<path d="M3.71436 8.89277C3.71436 5.42129 6.52855 2.60712 9.99998 2.60712C12.3938 2.60712 14.4751 3.94528 15.5366 5.91434L15.5397 5.91753L15.5388 5.91848C15.5403 5.92125 15.5417 5.92403 15.5432 5.9268L13.3103 8.15971C13.3096 8.15623 13.3088 8.15275 13.308 8.14927L7.8398 13.6175C8.42636 14.103 9.1791 14.3948 9.99998 14.3948C11.8721 14.3948 13.3898 12.8772 13.3898 11.005V8.93217L15.8164 6.50555C16.1188 7.24159 16.2856 8.0477 16.2856 8.89274V11.1072C16.2856 14.5787 13.4715 17.3928 9.99998 17.3928C7.61099 17.3928 5.53324 16.06 4.46979 14.0974L9.19994 9.36724L9.18764 9.35494L12.2155 6.32709C11.6213 5.81355 10.8469 5.50294 9.99998 5.50294C8.12785 5.50294 6.61016 7.02061 6.61016 8.89277V11.005C6.61016 11.038 6.61065 11.0709 6.61157 11.1037L4.19442 13.5208C3.88513 12.7776 3.71436 11.9624 3.71436 11.1072V8.89277Z" fill="white"/>
</svg>
