<svg width="20" height="20" viewBox="0 0 20 20" fill="none" xmlns="http://www.w3.org/2000/svg">
<circle cx="10" cy="10" r="10" fill="#708B96"/>
<path fill-rule="evenodd" clip-rule="evenodd" d="M9.22998 5.65063C7.463 5.9804 6.09353 7.32658 5.7604 9.06113C5.6914 9.42036 5.68172 10.1741 5.7414 10.5374C5.83401 11.1011 6.10973 11.7706 6.45966 12.2815C6.55398 12.4192 6.7875 12.6868 6.97865 12.876L7.32615 13.2201H6.51317H5.7002V13.8101V14.4H7.35251H9.00482V13.58V12.76L8.74567 12.6512C8.40012 12.5061 7.99894 12.2228 7.72474 11.9303C6.31744 10.4288 6.76094 8.02266 8.61496 7.1004C9.07315 6.87249 9.43224 6.79273 10.0002 6.79273C10.3949 6.79273 10.5621 6.81082 10.8081 6.88012C11.8664 7.17831 12.653 7.94125 12.9859 8.99231C13.1695 9.57166 13.1282 10.399 12.8866 10.9863C12.5867 11.7155 11.9595 12.3553 11.2547 12.6512L10.9956 12.76V13.58V14.4H12.6479H14.3002V13.8101V13.2201H13.4746H12.649L12.9154 12.9827C13.5723 12.397 14.0678 11.5112 14.24 10.6146C14.3172 10.2127 14.3172 9.46307 14.24 9.06113C13.9292 7.44252 12.6945 6.13626 11.0834 5.72146C10.5896 5.59431 9.71158 5.56076 9.22998 5.65063Z" fill="white"/>
</svg>
