<svg width="20" height="20" viewBox="0 0 20 20" fill="none" xmlns="http://www.w3.org/2000/svg">
<rect width="20" height="20" fill="black"/>
<circle cx="10" cy="10" r="10" fill="url(#paint0_linear_4759_59154)"/>
<path d="M9.34177 7.606C9.01511 7.93306 8.74609 8.25051 8.74609 8.30823C8.74609 8.35633 9.02472 8.6834 9.37059 9.02008L9.99509 9.63574L10.6196 9.02008C10.9655 8.6834 11.2441 8.35633 11.2441 8.29861C11.2441 8.20241 10.0816 6.99996 9.98549 6.99996C9.96627 6.99996 9.66843 7.26931 9.34177 7.606Z" fill="#373535"/>
<path d="M4.61489 8.88554L4 9.52044L5.96958 11.4828C7.6221 13.1278 8.03523 13.4837 8.506 13.6857C9.61089 14.1764 10.9079 14.0898 11.9167 13.4453C12.1569 13.2913 13.1657 12.339 14.1745 11.3289L16 9.5012L15.3563 8.85668L14.703 8.20255L12.8583 10.0495C10.9944 11.9061 10.6101 12.1947 9.9952 12.1947C9.39952 12.1947 8.996 11.9061 7.30504 10.2419C6.38271 9.32805 5.53723 8.51038 5.42194 8.41418C5.22978 8.25065 5.21057 8.26989 4.61489 8.88554Z" fill="#373535"/>
<defs>
<linearGradient id="paint0_linear_4759_59154" x1="2" y1="10" x2="15" y2="5.5" gradientUnits="userSpaceOnUse">
<stop stop-color="#F9B994"/>
<stop offset="1" stop-color="#FF97D6"/>
</linearGradient>
</defs>
</svg>
