<svg width="20" height="20" viewBox="0 0 20 20" fill="none" xmlns="http://www.w3.org/2000/svg">
<circle cx="10" cy="10" r="10" fill="#4AA2FE"/>
<path fill-rule="evenodd" clip-rule="evenodd" d="M12.9057 15.0166C11.9411 15.5651 10.2529 16.2324 8.36059 15.6676C5.91385 14.9331 4.17594 12.4394 4.26134 9.58276V5.07122C4.26134 5.01083 4.33445 4.9807 4.377 5.02355L13.6886 14.4023C13.7167 14.4305 13.7149 14.4763 13.6836 14.5009C13.6153 14.5546 13.4984 14.6426 13.3394 14.749C13.2199 14.8289 13.0766 14.9191 12.9121 15.0129C12.91 15.0141 12.9078 15.0154 12.9057 15.0166ZM3.27289 9.56849C3.18213 12.8203 5.16326 15.7398 8.07641 16.6143L8.07788 16.6147C11.2341 17.5568 13.8444 15.6316 14.2943 15.2781C14.8136 14.87 14.8136 14.1324 14.3901 13.7058L5.07844 4.32713C4.41425 3.65815 3.27289 4.1285 3.27289 5.07122V9.56849Z" fill="white"/>
<path fill-rule="evenodd" clip-rule="evenodd" d="M7.09433 4.98341C8.05887 4.43487 9.74711 3.76761 11.6394 4.33243C14.0862 5.06688 15.8241 7.56058 15.7387 10.4172L15.7387 14.9288C15.7387 14.9892 15.6655 15.0193 15.623 14.9764L6.31138 5.59773C6.28333 5.56949 6.28507 5.52373 6.31636 5.49914C6.38475 5.44541 6.50156 5.35735 6.66064 5.25096C6.78008 5.17109 6.92336 5.08088 7.08786 4.9871C7.09001 4.98587 7.09217 4.98464 7.09433 4.98341ZM16.7271 10.4315C16.8179 7.17968 14.8367 4.26017 11.9236 3.38572L11.9221 3.38528C8.76594 2.44321 6.15558 4.36841 5.70567 4.72191C5.18636 5.12995 5.18641 5.86759 5.60993 6.29416L14.9216 15.6729C15.5858 16.3419 16.7271 15.8715 16.7271 14.9288L16.7271 10.4315Z" fill="white"/>
</svg>
