<svg width="20" height="20" viewBox="0 0 20 20" fill="none" xmlns="http://www.w3.org/2000/svg">
<circle cx="10" cy="10" r="10" fill="#7D50CF"/>
<path fill-rule="evenodd" clip-rule="evenodd" d="M8.29798 2.35648C8.55975 2.8208 8.69024 3.53693 8.59299 3.9755C8.45944 4.57796 7.85778 5.33112 5.8514 7.40747C4.48629 8.8202 4.05225 9.43317 3.68167 10.4718C3.28872 11.5732 3.30769 12.8611 3.73284 13.9455C4.55195 16.0346 6.57393 17.4771 9.0853 17.7641C9.54963 17.8172 10.5608 17.8102 10.991 17.751C13.8011 17.3643 15.9322 15.5532 16.4485 13.1129C16.5277 12.7388 16.5564 11.9858 16.5076 11.5628C16.4114 10.7295 16.0752 9.85801 15.5539 9.09047C15.2675 8.66881 15.047 8.41719 14.0539 7.37851C13.0434 6.32169 12.5801 5.8237 12.312 5.50622C11.5875 4.6484 11.3581 4.23387 11.3175 3.70894C11.2881 3.32806 11.4024 2.82334 11.6081 2.42605C11.6576 2.33047 11.7031 2.24046 11.7094 2.22604C11.7249 2.19007 11.3391 2.22838 11.1222 2.28434C10.8258 2.36082 10.5968 2.4891 10.369 2.70616C10.2524 2.8172 10.1147 2.97429 10.0629 3.05524C9.98096 3.18328 9.96479 3.19582 9.93849 3.15192C9.60392 2.59382 9.09656 2.2806 8.42878 2.2199L8.20979 2.2L8.29798 2.35648ZM10.2547 5.41166C10.5218 5.76221 11.2726 6.51782 12.1316 7.30057C13.4771 8.52673 14.1095 9.19789 14.5753 9.89419C15.3933 11.1172 15.554 12.2967 15.0727 13.5474C14.49 15.0618 12.9095 16.1896 10.9333 16.5014C10.4758 16.5736 9.72392 16.5891 9.2718 16.5358C6.82141 16.2468 4.99186 14.7597 4.65114 12.7799C4.57866 12.3589 4.60595 11.642 4.70845 11.2739C4.91193 10.5431 5.34549 9.83038 6.07472 9.02791C6.33918 8.73688 7.20585 7.90356 8.20682 6.97779L8.4209 6.77978L8.76973 7.10769L9.11854 7.43556L8.77709 7.77028C8.58926 7.95436 8.20174 8.31151 7.91588 8.56397C6.68507 9.65091 6.04215 10.4155 5.74566 11.1449C5.60036 11.5024 5.55223 11.7583 5.55532 12.1572C5.56199 13.0223 5.9438 13.8084 6.66642 14.4447C7.23198 14.9427 8.09903 15.3318 9.02755 15.5044C9.53554 15.5988 10.389 15.6008 10.8755 15.5088C11.5584 15.3797 12.1455 15.1701 12.6746 14.8664C13.2947 14.5106 13.7894 13.9958 14.082 13.4019C14.4853 12.5831 14.4832 11.7366 14.0757 10.9181C13.7294 10.2224 13.2893 9.71454 12.1171 8.65778C11.7281 8.307 10.9267 7.53823 10.3364 6.94941L9.26314 5.87884L9.47078 5.64399C9.58498 5.51479 9.74211 5.3257 9.81999 5.22378L9.96156 5.03846L10.0215 5.11135C10.0545 5.15144 10.1594 5.28657 10.2547 5.41166ZM10.2894 8.37731C10.517 8.45751 10.6966 8.61874 10.8143 8.84849C10.9005 9.01653 10.9122 9.06605 10.9135 9.26922C10.9147 9.46141 10.9023 9.52524 10.8386 9.6554C10.7575 9.82112 10.6536 9.94756 10.5182 10.0455L10.4352 10.1054L10.6073 11.0699L10.7793 12.0344L10.6596 12.0875C10.3346 12.2317 9.89928 12.2702 9.56762 12.1839C9.38623 12.1368 9.17193 12.0405 9.17193 12.0062C9.17193 11.9954 9.24524 11.566 9.33487 11.0519L9.4978 10.1172L9.35545 9.98884C9.27714 9.91823 9.17458 9.79074 9.12752 9.70553C9.04955 9.56437 9.04199 9.52629 9.04199 9.27551C9.04199 9.04155 9.05262 8.97888 9.11296 8.85678C9.22933 8.62132 9.46206 8.426 9.72054 8.34685C9.85822 8.30471 10.1238 8.31893 10.2894 8.37731ZM8.40695 10.4853L8.6639 10.7539L8.45855 10.9632C8.06712 11.3622 7.91233 11.6905 7.93661 12.07C7.96872 12.5722 8.41414 12.9759 9.18636 13.2027C9.50058 13.295 10.109 13.3299 10.4316 13.2741C10.7276 13.2228 11.1241 13.0818 11.3513 12.947C11.7699 12.6985 11.9878 12.3779 11.9865 12.0124C11.9851 11.6571 11.8342 11.3495 11.4726 10.965L11.2838 10.7643L11.6245 10.4037L11.9651 10.043L12.1533 10.2464C12.5752 10.7025 12.8002 11.0134 12.983 11.3925C13.3952 12.2475 13.1627 13.0261 12.3021 13.672C11.9452 13.9399 11.3589 14.1736 10.7889 14.2753C10.3777 14.3486 9.50834 14.3487 9.11418 14.2755C8.70537 14.1995 8.16391 14.0097 7.89679 13.8487C7.12448 13.3831 6.74588 12.8276 6.74683 12.1614C6.74764 11.6131 7.02758 11.0766 7.71355 10.3085L7.96788 10.0237L8.05895 10.1202C8.10905 10.1733 8.26564 10.3376 8.40695 10.4853Z" fill="white"/>
</svg>
