<svg width="20" height="20" viewBox="0 0 20 20" fill="none" xmlns="http://www.w3.org/2000/svg">
<path fill-rule="evenodd" clip-rule="evenodd" d="M8.8156 0.368653C5.59431 2.04403 2.02888 5.61344 0.361144 8.83265C-0.120844 9.76314 -0.120551 10.2566 0.363045 11.1944C1.97757 14.3258 5.73581 18.0688 8.86545 19.6623C9.44743 19.9584 9.77416 20.0382 10.1852 19.9843C11.334 19.8336 14.3885 17.6753 16.3457 15.6313C18.1846 13.7108 20 10.9182 20 10.01C20 8.9419 18.0051 6.03744 15.7732 3.85627C13.5481 1.68167 11.0213 0 9.97883 0C9.72885 0 9.20534 0.16588 8.8156 0.368653ZM13.3389 5.66807C13.4397 6.09878 13.4043 6.1424 12.4491 6.76674C11.3542 7.48245 9.73133 9.0104 10.0705 9.00639C10.1883 9.00496 10.9098 8.90958 11.6736 8.79447C12.4375 8.67935 13.1425 8.58397 13.2405 8.58254C13.3384 8.58111 14.3037 9.59355 15.3855 10.8322L17.3524 13.0844L16.0844 13.1721C15.3873 13.2204 14.5864 13.3047 14.305 13.3596C13.823 13.4534 13.7764 13.4278 13.501 12.9184C13.0911 12.1605 11.5979 10.343 11.2247 10.1475C10.9356 9.99623 10.9194 10.0134 10.994 10.3906C11.152 11.1893 11.4225 13.4491 11.3659 13.4964C11.3342 13.523 10.3214 14.403 9.11529 15.4521L6.92244 17.3593L6.83136 16.2229C6.78122 15.5978 6.69906 14.7969 6.64877 14.4429L6.5574 13.7994L7.57401 13.1672C8.61736 12.5186 10.0437 11.228 9.88702 11.0746C9.83863 11.0274 9.10052 11.0903 8.24677 11.2143C7.39288 11.3384 6.66514 11.44 6.62962 11.44C6.5941 11.44 5.67427 10.4264 4.58559 9.18771L2.60618 6.93547L3.81415 6.84953C4.47844 6.8022 5.28511 6.7214 5.60673 6.66992L6.19149 6.57626L6.68123 7.41824C7.17593 8.2688 8.80449 10.142 8.93445 10.01C8.97304 9.97064 8.91237 9.29496 8.79952 8.50847C8.68651 7.72197 8.61268 6.93705 8.63549 6.76416C8.66137 6.56654 9.49099 5.73957 10.8696 4.53709L13.0624 2.62418L13.1482 3.9219C13.1953 4.63547 13.2813 5.42139 13.3389 5.66807ZM9.43924 9.71024C9.11368 10.2492 9.11412 10.2511 9.61964 10.5067C10.2136 10.8072 10.2716 10.7909 10.5365 10.2475C10.7666 9.7753 10.7647 9.76729 10.3583 9.53249C9.80603 9.21331 9.73045 9.2279 9.43924 9.71024Z" fill="#1C233F"/>
<path fill-rule="evenodd" clip-rule="evenodd" d="M13.3386 5.66809C13.4395 6.09881 13.4041 6.14242 12.4489 6.76676C11.354 7.48247 9.7311 9.01042 10.0703 9.00641C10.1881 9.00498 10.9095 8.90961 11.6734 8.79449C12.4372 8.67938 13.1423 8.584 13.2402 8.58257C13.3382 8.58114 14.3035 9.59357 15.3853 10.8322L17.3521 13.0845L16.0842 13.1721C15.387 13.2205 14.5862 13.3047 14.3048 13.3596C13.8228 13.4534 13.7762 13.4278 13.5008 12.9185C13.0908 12.1606 11.5977 10.343 11.2244 10.1476C10.9354 9.99626 10.9192 10.0134 10.9937 10.3907C11.1518 11.1893 11.4222 13.4491 11.3657 13.4965C11.3339 13.5231 10.3211 14.4031 9.11506 15.4521L6.92221 17.3593L6.83114 16.2229C6.78099 15.5978 6.69883 14.7969 6.64855 14.443L6.55718 13.7995L7.57378 13.1673C8.61714 12.5186 10.0435 11.2281 9.88679 11.0746C9.83841 11.0274 9.10029 11.0903 8.24654 11.2143C7.39265 11.3385 6.66492 11.44 6.62939 11.44C6.59387 11.44 5.67404 10.4264 4.58537 9.18774L2.60596 6.9355L3.81392 6.84956C4.47821 6.80222 5.28489 6.72143 5.6065 6.66995L6.19126 6.57628L6.681 7.41826C7.17571 8.26883 8.80426 10.142 8.93422 10.01C8.97282 9.97066 8.91215 9.29499 8.79929 8.50849C8.68628 7.72199 8.61246 6.93707 8.63526 6.76418C8.66114 6.56656 9.49077 5.73959 10.8693 4.53711L13.0622 2.62421L13.148 3.92193C13.1951 4.63549 13.281 5.42142 13.3386 5.66809ZM9.61942 10.5068C9.11389 10.2511 9.11345 10.2492 9.43902 9.71026C9.73023 9.22792 9.80581 9.21334 10.3581 9.53251C10.7645 9.76731 10.7664 9.77532 10.5363 10.2475C10.2714 10.7909 10.2134 10.8072 9.61942 10.5068Z" fill="white"/>
</svg>
