<svg width="20" height="20" viewBox="0 0 20 20" fill="none" xmlns="http://www.w3.org/2000/svg">
<path d="M10 20C15.5228 20 20 15.5228 20 10C20 4.47715 15.5228 0 10 0C4.47715 0 0 4.47715 0 10C0 15.5228 4.47715 20 10 20Z" fill="#FF0420"/>
<path d="M7.08215 12.6519C6.56186 12.6741 6.04843 12.5267 5.6192 12.2318C5.43377 12.0902 5.28564 11.9055 5.18761 11.6937C5.08958 11.482 5.0446 11.2496 5.05658 11.0165C5.05887 10.8808 5.07142 10.7453 5.09412 10.6115C5.15915 10.2508 5.25166 9.81818 5.37166 9.31359C5.71177 7.93818 6.58948 7.25047 8.00478 7.25047C8.35952 7.24466 8.71173 7.31104 9.04002 7.44556C9.33143 7.55977 9.58217 7.75828 9.76019 8.01572C9.9397 8.28098 10.0314 8.59588 10.0225 8.91605C10.0199 9.04931 10.0074 9.1822 9.98494 9.31359C9.90986 9.75873 9.81986 10.1913 9.71494 10.6115C9.54008 11.2966 9.23751 11.8092 8.80724 12.1493C8.3774 12.4844 7.80237 12.6519 7.08215 12.6519ZM7.18724 11.5716C7.44707 11.5788 7.70057 11.4908 7.90002 11.3241C8.12045 11.1242 8.27041 10.8584 8.32756 10.5664C8.44265 10.0964 8.53008 9.68632 8.58986 9.33605C8.60998 9.22969 8.62003 9.12167 8.61986 9.01342C8.61986 8.55823 8.38232 8.33069 7.90724 8.3308C7.6453 8.32452 7.38979 8.41234 7.18707 8.57834C6.97072 8.78036 6.82367 9.04553 6.76691 9.33605C6.67685 9.67113 6.58685 10.0812 6.49691 10.5664C6.47655 10.6702 6.4665 10.7757 6.46691 10.8815C6.46691 11.3416 6.70702 11.5716 7.18724 11.5716Z" fill="white"/>
<path d="M10.3679 12.577C10.3441 12.5784 10.3202 12.5744 10.2982 12.5653C10.2761 12.5563 10.2563 12.5423 10.2404 12.5246C10.2154 12.4842 10.2073 12.4357 10.2179 12.3895L11.2532 7.51308C11.2623 7.45927 11.2916 7.41097 11.3351 7.378C11.3753 7.34482 11.4256 7.32633 11.4778 7.32554H13.4733C13.9432 7.30249 14.4089 7.42284 14.8087 7.67062C14.9731 7.7783 15.1066 7.92696 15.1961 8.10193C15.2855 8.27691 15.3279 8.47218 15.3189 8.66849C15.3182 8.7998 15.3031 8.93064 15.2738 9.05866C15.1911 9.56412 14.9205 10.0197 14.5161 10.3341C14.141 10.6091 13.6259 10.7467 12.9707 10.7467H11.9581L11.613 12.3896C11.6038 12.4434 11.5745 12.4917 11.531 12.5247C11.4909 12.5579 11.4406 12.5764 11.3886 12.5772L10.3679 12.577ZM13.0237 9.71112C13.2202 9.71545 13.4127 9.65483 13.5714 9.53866C13.7346 9.4188 13.847 9.24218 13.8864 9.04357C13.9004 8.96933 13.9079 8.89402 13.9089 8.81849C13.9132 8.75747 13.9039 8.69626 13.8819 8.6392C13.8599 8.58214 13.8255 8.53064 13.7814 8.48833C13.6562 8.39587 13.5012 8.35311 13.3463 8.36833H12.4461L12.161 9.71112H13.0237Z" fill="white"/>
</svg>
