<svg width="20" height="20" viewBox="0 0 20 20" fill="none" xmlns="http://www.w3.org/2000/svg">
<path fill-rule="evenodd" clip-rule="evenodd" d="M18.9925 10.4037C19.0032 10.1251 19.0025 9.82847 18.9925 9.53417C18.4 12.8 15.7 16 11.2258 16.9572C10.0276 17.2413 8.38486 17.18 7.30289 16.8107L6.86555 16.6615L5.61994 17.3203C5.55437 17.355 5.49183 17.388 5.4323 17.4193L5.43153 17.4197C4.82122 17.7413 4.52787 17.8958 4.5333 18.039C4.53832 18.1714 4.79923 18.2941 5.30161 18.5302L5.30287 18.5308C5.35565 18.5556 5.41108 18.5817 5.46916 18.6092C9.50941 20.5188 14.447 19.276 17.1514 15.6683C18.3361 14.088 18.9143 12.4348 18.9925 10.4037Z" fill="url(#paint0_linear_3203_16677)"/>
<path d="M0.0151367 10.3544C0.0704665 11.9237 0.32308 12.9178 1.02265 14.3204L1.46283 15.2029L1.88056 15.7363L2.23637 16.1516C2.43199 16.38 2.66106 16.5668 2.74533 16.5668C2.8296 16.5668 3.35141 16.3442 3.905 16.0721L4.91153 15.5773L4.31938 14.9411C3.04945 13.5765 2.44121 12.1165 2.36734 10.2558C2.31152 8.84823 2.4676 8.1053 3.09242 6.80443C3.47825 6.00125 3.67053 5.73983 4.44083 4.97107C5.43893 3.9751 6.4126 3.40277 7.69117 3.06069C7.88672 3.00838 8.10994 2.96662 8.34998 2.93542C3.74998 2.93542 0.260693 7.65 0.0151367 10.3544Z" fill="url(#paint1_linear_3203_16677)"/>
<path d="M17.6208 8.33589L16.6643 9.3289L16.6619 10.1622C16.6592 11.112 16.5662 11.6033 16.2103 12.5499C15.5861 14.2094 14.3318 15.5695 12.6911 16.3661C12.1516 16.6281 11.492 16.8941 11.2256 16.9573C15.6998 16 18.3998 12.8 18.9923 9.53422C18.9578 8.51558 18.813 7.52451 18.6529 7.40126C18.6113 7.36912 18.1469 7.78979 17.6208 8.33589Z" fill="url(#paint2_linear_3203_16677)"/>
<path d="M7.54099 0.684281C5.71049 1.07281 4.16489 1.91296 2.81931 3.25091C1.39742 4.66468 0.546869 6.21168 0.161228 8.08538C0.00514668 8.84349 -0.0228127 9.27817 0.0151529 10.3544C0.260709 7.65 3.75 2.93542 8.35 2.93542C9.2927 2.81292 10.4949 2.85338 11.3003 3.05734C12.5768 3.38068 13.5394 3.9468 14.5593 4.97422C15.1351 5.55405 15.5588 6.08388 15.7669 6.48395C15.9432 6.82297 16.1218 7.10026 16.1638 7.10026C16.2362 7.10026 16.4555 6.87316 17.4283 5.79002L17.8489 5.32192L17.5416 4.87295C17.3725 4.62593 17.2495 4.40889 17.2682 4.39045L16.8296 3.83725L16.0524 3.1022C14.2063 1.35651 11.9598 0.482228 9.36756 0.500274C8.81573 0.50412 8.00452 0.585868 7.54099 0.684281Z" fill="url(#paint3_linear_3203_16677)"/>
<path d="M1.46281 15.2028L1.11896 15.7717C0.357391 17.0319 0.234567 17.5384 0.582831 17.9833C1.22187 18.8 3.90487 17.7848 8.17861 15.1092C13.7481 11.6222 20 5.71988 20 3.94864C20 3.7745 19.9126 3.5611 19.7915 3.43932C19.6089 3.2558 19.5019 3.23569 18.9331 3.27779C18.5756 3.30432 17.9561 3.44099 17.5564 3.58161L16.8296 3.83721L17.2682 4.39041C17.347 4.31291 18.5124 3.95959 18.8963 3.89687C19.2819 3.83386 19.3132 3.8452 19.3132 4.04765C19.3132 4.90053 16.1394 8.28503 12.7821 11.0123C8.83364 14.2199 3.24533 17.4942 1.57533 17.5789C1.17988 17.599 1.1117 17.5745 1.09002 17.405C1.07609 17.2965 1.24826 16.8767 1.47262 16.472L1.88053 15.7363L1.46281 15.2028Z" fill="url(#paint4_linear_3203_16677)"/>
<defs>
<linearGradient id="paint0_linear_3203_16677" x1="19" y1="11.15" x2="5" y2="17.7" gradientUnits="userSpaceOnUse">
<stop stop-color="#9432FB"/>
<stop offset="1" stop-color="#F2527C"/>
</linearGradient>
<linearGradient id="paint1_linear_3203_16677" x1="7.1" y1="2.9" x2="3.2" y2="16.15" gradientUnits="userSpaceOnUse">
<stop stop-color="#C241BD"/>
<stop offset="0.356625" stop-color="#DD4B98"/>
<stop offset="0.605811" stop-color="#F55378"/>
<stop offset="0.804886" stop-color="#E94F88"/>
<stop offset="1" stop-color="#DB4A9B"/>
</linearGradient>
<linearGradient id="paint2_linear_3203_16677" x1="18.0998" y1="7.85005" x2="12.4498" y2="16.7" gradientUnits="userSpaceOnUse">
<stop stop-color="#6F6DFE"/>
<stop offset="1" stop-color="#814BF5"/>
</linearGradient>
<linearGradient id="paint3_linear_3203_16677" x1="17.3" y1="6" x2="3.21378e-07" y2="10.4" gradientUnits="userSpaceOnUse">
<stop stop-color="#6F6EFE"/>
<stop offset="1" stop-color="#8838F2"/>
</linearGradient>
<linearGradient id="paint4_linear_3203_16677" x1="20" y1="3.29998" x2="0.39995" y2="18" gradientUnits="userSpaceOnUse">
<stop stop-color="#706EFD"/>
<stop offset="1" stop-color="#F9575B"/>
</linearGradient>
</defs>
</svg>
