<svg width="20" height="20" viewBox="0 0 20 20" fill="none" xmlns="http://www.w3.org/2000/svg">
<path d="M1.58109 9.98404V5.48885C1.57297 5.31254 1.61383 5.13754 1.69874 4.98494C1.78365 4.83235 1.909 4.70867 2.05966 4.62881L6.77835 1.78869C7.67806 1.24867 8.58255 0.708649 9.48226 0.158626C9.63554 0.0550826 9.81419 0 9.99672 0C10.1793 0 10.3579 0.0550826 10.5112 0.158626L17.929 4.62381C18.0466 4.68455 18.1501 4.77157 18.2319 4.87872C18.3138 4.98587 18.3721 5.11052 18.4028 5.24384C18.4171 5.30884 18.4219 5.37885 18.4219 5.44385V14.5442C18.4258 14.7069 18.3862 14.8674 18.3076 15.0079C18.229 15.1483 18.1144 15.2631 17.9769 15.3393L16.4789 16.2393L10.5686 19.7945C10.4633 19.8645 10.3533 19.9195 10.2384 19.9595C10.119 19.9982 9.99289 20.0094 9.86892 19.9921C9.74496 19.9748 9.62608 19.9296 9.52055 19.8595L7.52491 18.6494C7.1277 18.4144 6.74006 18.1744 6.34285 17.9444C6.31197 17.9281 6.28211 17.91 6.2534 17.8903C6.13548 17.8092 6.03681 17.7003 5.96573 17.5718C5.87734 17.4119 5.83544 17.2287 5.84514 17.0443V14.4442C5.83419 14.2188 5.90339 13.9971 6.03943 13.8217C6.17547 13.6463 6.36876 13.5297 6.58213 13.4942C6.80227 13.4642 7.02242 13.5142 7.20427 13.6342L9.0324 14.7342C9.29562 14.8942 9.55883 15.0493 9.81726 15.2143C9.86874 15.2533 9.93072 15.2743 9.99433 15.2743C10.0579 15.2743 10.1199 15.2533 10.1714 15.2143C11.2625 14.5492 12.3632 13.8892 13.4592 13.2292C13.7319 13.0692 13.9952 12.9042 14.2679 12.7492C14.3151 12.7268 14.3546 12.6899 14.3812 12.6435C14.4077 12.597 14.4199 12.5431 14.4163 12.4891V7.50894C14.4214 7.4547 14.4103 7.40016 14.3846 7.35273C14.3589 7.30531 14.3198 7.26732 14.2727 7.24392L10.1427 4.75882C10.0978 4.72795 10.045 4.71192 9.9912 4.71281C9.93743 4.71371 9.88516 4.73148 9.84119 4.76382C8.47248 5.59385 7.09899 6.41389 5.7255 7.23892C5.67222 7.26747 5.62882 7.3127 5.60136 7.36828C5.5739 7.42387 5.56376 7.48703 5.57235 7.54894V15.7893C5.57235 15.8893 5.57235 15.9893 5.55321 16.0843C5.52561 16.2233 5.46728 16.3536 5.38286 16.4648C5.29845 16.5761 5.19031 16.6651 5.06707 16.7249C4.94384 16.7847 4.80893 16.8135 4.67314 16.809C4.53734 16.8046 4.40442 16.767 4.285 16.6993C4.07443 16.5843 3.86865 16.4543 3.66286 16.3293C3.12056 16.0025 2.57818 15.6758 2.03573 15.3493C1.88571 15.2629 1.76149 15.1348 1.6768 14.9792C1.60984 14.847 1.57686 14.6988 1.58109 14.5492V9.98404ZM4.70614 15.8993V7.49894C4.69513 7.28608 4.74354 7.07447 4.8455 6.88983C4.94745 6.70519 5.09855 6.55547 5.28043 6.45889C6.66828 5.62886 8.05134 4.79882 9.4344 3.95879C9.60322 3.84669 9.7991 3.78716 9.99911 3.78716C10.1991 3.78716 10.395 3.84669 10.5638 3.95879L14.7226 6.45889C14.9044 6.55814 15.0552 6.70984 15.157 6.89597C15.2588 7.0821 15.3074 7.29484 15.2969 7.50894V12.4741C15.3081 12.6916 15.259 12.9078 15.1554 13.0967C15.0518 13.2856 14.8982 13.4393 14.713 13.5392L10.5495 16.0393C10.3853 16.1489 10.1947 16.2076 9.99981 16.2085C9.80495 16.2094 9.61385 16.1524 9.44876 16.0443L6.90756 14.5142L6.73049 14.4142V14.6142L6.7257 16.9543C6.7216 17.0065 6.73324 17.0586 6.759 17.1035C6.78475 17.1483 6.82332 17.1836 6.86927 17.2043C7.8647 17.8044 8.85533 18.3994 9.84597 19.0044C9.88991 19.0374 9.94263 19.0551 9.99672 19.0551C10.0508 19.0551 10.1035 19.0374 10.1475 19.0044C12.5642 17.5444 14.9858 16.0843 17.4121 14.6342C17.4605 14.6097 17.5003 14.57 17.526 14.5207C17.5517 14.4714 17.5621 14.415 17.5557 14.3592V5.62886C17.5603 5.57279 17.548 5.51663 17.5205 5.46821C17.4931 5.4198 17.4518 5.38157 17.4026 5.35885L10.1666 1.00866L9.99433 0.908658L2.45687 5.44885V14.5492L4.70614 15.8993Z" fill="#0D0D0D"/>
<path d="M6.2534 17.8903C6.13548 17.8092 6.03681 17.7003 5.96573 17.5718C5.87734 17.4119 5.83544 17.2287 5.84514 17.0443V14.4442C5.83419 14.2188 5.90339 13.9971 6.03943 13.8217C6.17547 13.6463 6.36876 13.5297 6.58213 13.4942C6.80227 13.4642 7.02242 13.5142 7.20427 13.6342L9.0324 14.7342C9.29562 14.8942 9.55883 15.0493 9.81726 15.2143C9.86874 15.2533 9.93072 15.2743 9.99433 15.2743C10.0579 15.2743 10.1199 15.2533 10.1714 15.2143C11.2625 14.5492 12.3632 13.8892 13.4592 13.2292C13.7319 13.0692 13.9952 12.9042 14.2679 12.7492C14.3151 12.7268 14.3546 12.6899 14.3812 12.6435C14.4077 12.597 14.4199 12.5431 14.4163 12.4891V7.50894C14.4214 7.4547 14.4103 7.40016 14.3846 7.35273C14.3589 7.30531 14.3198 7.26732 14.2727 7.24392L10.1427 4.75882C10.0978 4.72795 10.045 4.71192 9.9912 4.71281C9.93743 4.71371 9.88516 4.73148 9.84119 4.76382C8.47248 5.59385 7.09899 6.41389 5.7255 7.23892C5.67222 7.26747 5.62882 7.3127 5.60136 7.36828C5.5739 7.42387 5.56376 7.48703 5.57235 7.54894V15.7893C5.57235 15.8893 5.57235 15.9893 5.55321 16.0843C5.52561 16.2233 5.46728 16.3536 5.38286 16.4648C5.29845 16.5761 5.19031 16.6651 5.06707 16.7249C4.94384 16.7847 4.80893 16.8135 4.67314 16.809C4.53734 16.8046 4.40442 16.767 4.285 16.6993L6.2534 17.8903Z" fill="#0D0D0D"/>
<path d="M4.70614 15.8993V7.49894C4.69513 7.28608 4.74354 7.07447 4.8455 6.88983C4.94745 6.70519 5.09855 6.55547 5.28043 6.45889C6.66828 5.62886 8.05134 4.79882 9.4344 3.95879C9.60322 3.84669 9.7991 3.78716 9.99911 3.78716C10.1991 3.78716 10.395 3.84669 10.5638 3.95879L14.7226 6.45889C14.9044 6.55814 15.0552 6.70984 15.157 6.89597C15.2588 7.0821 15.3074 7.29484 15.2969 7.50894V12.4741C15.3081 12.6916 15.259 12.9078 15.1554 13.0967C15.0518 13.2856 14.8982 13.4393 14.713 13.5392L10.5495 16.0393C10.3853 16.1489 10.1947 16.2076 9.99981 16.2085C9.80495 16.2094 9.61385 16.1524 9.44876 16.0443L6.90756 14.5142L6.73049 14.4142V14.6142L6.7257 16.9543C6.7216 17.0065 6.73324 17.0586 6.759 17.1035C6.78475 17.1483 6.82332 17.1836 6.86927 17.2043C7.8647 17.8044 8.85533 18.3994 9.84597 19.0044C9.88991 19.0374 9.94263 19.0551 9.99672 19.0551C10.0508 19.0551 10.1035 19.0374 10.1475 19.0044C12.5642 17.5444 14.9858 16.0843 17.4121 14.6342C17.4605 14.6097 17.5003 14.57 17.526 14.5207C17.5517 14.4714 17.5621 14.415 17.5557 14.3592V5.62886C17.5603 5.57279 17.548 5.51663 17.5205 5.46821C17.4931 5.4198 17.4518 5.38157 17.4026 5.35885L10.1666 1.00866L9.99433 0.908658L2.45687 5.44885V14.5492L4.70614 15.8993Z" fill="#0D0D0D"/>
<path d="M3.00085 9.98723V6.39108C2.99403 6.25003 3.02836 6.11003 3.09971 5.98796C3.17106 5.86588 3.27638 5.76693 3.40298 5.70305L7.36802 3.43096C8.12403 2.99894 8.88406 2.56692 9.64007 2.1269C9.76887 2.04407 9.91899 2 10.0724 2C10.2257 2 10.3759 2.04407 10.5047 2.1269L16.7377 5.69905C16.8366 5.74764 16.9235 5.81726 16.9923 5.90298C17.0611 5.98869 17.1101 6.08842 17.1358 6.19507C17.1479 6.24707 17.1519 6.30308 17.1519 6.35508V13.6354C17.1552 13.7655 17.1219 13.894 17.0559 14.0063C16.9898 14.1187 16.8936 14.2105 16.7779 14.2714L15.5193 14.9914L10.5529 17.8356C10.4644 17.8916 10.372 17.9356 10.2754 17.9676C10.1751 17.9986 10.0691 18.0075 9.96498 17.9937C9.86081 17.9799 9.76092 17.9437 9.67224 17.8876L7.99535 16.9195C7.66158 16.7315 7.33585 16.5395 7.00208 16.3555C6.86958 16.2889 6.75946 16.1853 6.68519 16.0574C6.61092 15.9296 6.57571 15.7829 6.58386 15.6355V13.5554C6.57466 13.375 6.6328 13.1976 6.74712 13.0573C6.86144 12.917 7.02385 12.8237 7.20314 12.7953C7.38813 12.7713 7.57311 12.8113 7.72592 12.9074L9.26207 13.7874C9.48324 13.9154 9.70441 14.0394 9.92156 14.1714C9.96482 14.2026 10.0169 14.2194 10.0704 14.2194C10.1238 14.2194 10.1759 14.2026 10.2191 14.1714C11.136 13.6394 12.0609 13.1114 12.9818 12.5833C13.211 12.4553 13.4322 12.3233 13.6614 12.1993C13.701 12.1815 13.7342 12.152 13.7565 12.1148C13.7788 12.0776 13.7891 12.0345 13.7861 11.9913V8.00715C13.7903 7.96376 13.781 7.92012 13.7594 7.88219C13.7378 7.84425 13.705 7.81385 13.6654 7.79514L10.195 5.80706C10.1573 5.78236 10.1129 5.76954 10.0677 5.77025C10.0225 5.77096 9.97862 5.78518 9.94167 5.81106C8.79157 6.47508 7.63745 7.13111 6.48333 7.79114C6.43856 7.81397 6.40209 7.85016 6.37902 7.89463C6.35595 7.93909 6.34742 7.98963 6.35464 8.03915V14.6314C6.35464 14.7114 6.35464 14.7914 6.33856 14.8674C6.31537 14.9786 6.26635 15.0829 6.19542 15.1719C6.12449 15.2609 6.03362 15.3321 5.93006 15.3799C5.82651 15.4277 5.71315 15.4508 5.59905 15.4472C5.48494 15.4437 5.37325 15.4136 5.2729 15.3595C5.09597 15.2675 4.92305 15.1634 4.75013 15.0634C4.29444 14.802 3.83869 14.5407 3.38288 14.2794C3.25682 14.2103 3.15243 14.1079 3.08128 13.9834C3.02501 13.8776 2.9973 13.759 3.00085 13.6394V9.98723V9.98723ZM5.62678 14.7194V7.99915C5.61753 7.82886 5.65821 7.65957 5.74388 7.51186C5.82955 7.36415 5.95651 7.24438 6.10934 7.16711C7.27553 6.50308 8.43769 5.83906 9.59986 5.16703C9.74171 5.07736 9.9063 5.02973 10.0744 5.02973C10.2424 5.02973 10.407 5.07736 10.5489 5.16703L14.0434 7.16711C14.1962 7.24651 14.3229 7.36787 14.4085 7.51677C14.494 7.66568 14.5348 7.83587 14.526 8.00715V11.9793C14.5354 12.1533 14.4941 12.3262 14.4071 12.4774C14.3201 12.6285 14.191 12.7514 14.0354 12.8314L10.5368 14.8314C10.3989 14.9192 10.2387 14.9661 10.075 14.9668C9.91122 14.9675 9.75065 14.922 9.61192 14.8354L7.47659 13.6114L7.32781 13.5314V13.6914L7.32378 15.5635C7.32033 15.6052 7.33012 15.6469 7.35176 15.6828C7.3734 15.7187 7.40581 15.7469 7.44442 15.7635C8.28086 16.2435 9.11328 16.7195 9.94569 17.2035C9.98261 17.2299 10.0269 17.2441 10.0724 17.2441C10.1178 17.2441 10.1621 17.2299 10.199 17.2035C12.2298 16.0355 14.2646 14.8674 16.3034 13.7074C16.344 13.6877 16.3775 13.656 16.3991 13.6166C16.4207 13.5771 16.4294 13.532 16.4241 13.4874V6.50309C16.4279 6.45823 16.4176 6.4133 16.3945 6.37457C16.3714 6.33584 16.3368 6.30525 16.2954 6.28708L10.2151 2.80693L10.0704 2.72693L3.73675 6.35908V13.6394L5.62678 14.7194Z" fill="#FBFBFB"/>
<path d="M7.74139 9.99123C7.74139 9.64721 7.74943 9.2992 7.74139 8.95118C7.73489 8.86061 7.75597 8.77019 7.80188 8.69171C7.84778 8.61322 7.91639 8.55031 7.99875 8.51117L9.82444 7.47112C9.89811 7.42217 9.98456 7.39571 10.0732 7.395C10.1618 7.39429 10.2486 7.41936 10.3231 7.46712C10.9343 7.82314 11.5536 8.17515 12.1729 8.52717C12.2468 8.56597 12.3081 8.625 12.3494 8.69729C12.3907 8.76959 12.4104 8.85213 12.4061 8.93518V11.0553C12.4116 11.1411 12.3916 11.2266 12.3487 11.3012C12.3058 11.3759 12.2419 11.4364 12.1649 11.4753L10.3231 12.5273C10.249 12.5757 10.1624 12.6014 10.0738 12.6014C9.98517 12.6014 9.8985 12.5757 9.82444 12.5273L7.99071 11.4753C7.91116 11.4366 7.84497 11.3752 7.80058 11.299C7.75618 11.2228 7.73558 11.1352 7.74139 11.0473C7.74943 10.6953 7.74139 10.3432 7.74139 9.99123V9.99123ZM10.0738 7.79113C10.06 7.79704 10.0466 7.80372 10.0335 7.81114L8.22395 8.84718C8.19526 8.86197 8.17202 8.88542 8.15756 8.91417C8.14311 8.94292 8.1382 8.97548 8.14352 9.00719V10.9913C8.14062 11.0272 8.14915 11.0632 8.16791 11.094C8.18667 11.1249 8.21472 11.1491 8.24807 11.1633C8.63814 11.3793 9.02017 11.6033 9.40622 11.8233L10.0738 12.2033L10.1984 12.1353C10.7614 11.8153 11.3244 11.4873 11.8874 11.1713C11.9256 11.1545 11.9575 11.1262 11.9785 11.0902C11.9995 11.0542 12.0084 11.0126 12.004 10.9713V9.01919C12.009 8.97777 12.0004 8.93585 11.9793 8.89976C11.9583 8.86368 11.926 8.83539 11.8874 8.81918C11.3164 8.49916 10.7453 8.17115 10.1743 7.84314L10.0778 7.79113H10.0738Z" fill="#FBFBFB"/>
</svg>
