<svg width="20" height="20" viewBox="0 0 20 20" fill="none" xmlns="http://www.w3.org/2000/svg">
<g clip-path="url(#clip0_4093_54084)">
<path fill-rule="evenodd" clip-rule="evenodd" d="M0.864 9.33314C1.31429 9.33314 1.68457 9.67943 1.724 10.1206L1.728 10.1994V10.2063H1.73257C1.73257 14.0669 4.43486 17.2897 8.04457 18.0806C8.50571 18.1817 8.98171 18.2434 9.46914 18.2611L9.76286 18.2669H9.80286C10.28 18.2669 10.6669 18.6543 10.6669 19.1326C10.6669 19.6109 10.28 19.9989 9.80286 19.9989H9.784L9.76514 19.9983V19.9989H9.90743C9.11852 20.0101 8.33113 19.9263 7.56229 19.7491C3.296 18.764 0.0982857 14.9743 0.00228571 10.4194L0 10.212V10.1994C0 9.72114 0.386857 9.33314 0.864 9.33314ZM10 4C13.3137 4 16 6.68629 16 10C16 13.3137 13.3137 16 10 16C6.68629 16 4 13.3137 4 10C4 6.68629 6.68629 4 10 4ZM10 6.53657C9.08144 6.53657 8.20051 6.90147 7.55099 7.55099C6.90147 8.20051 6.53657 9.08144 6.53657 10C6.53657 10.9186 6.90147 11.7995 7.55099 12.449C8.20051 13.0985 9.08144 13.4634 10 13.4634C10.9186 13.4634 11.7995 13.0985 12.449 12.449C13.0985 11.7995 13.4634 10.9186 13.4634 10C13.4634 9.08144 13.0985 8.20051 12.449 7.55099C11.7995 6.90147 10.9186 6.53657 10 6.53657V6.53657ZM18.6669 11.5554C18.7855 11.5524 18.9035 11.5732 19.014 11.6165C19.1244 11.6598 19.2251 11.7248 19.3101 11.8076C19.3951 11.8905 19.4626 11.9895 19.5087 12.0988C19.5548 12.2082 19.5785 12.3256 19.5785 12.4443C19.5785 12.5629 19.5548 12.6804 19.5087 12.7897C19.4626 12.8991 19.3951 12.9981 19.3101 13.0809C19.2251 13.1638 19.1244 13.2288 19.014 13.2721C18.9035 13.3154 18.7855 13.3362 18.6669 13.3331C18.4367 13.3249 18.2187 13.2277 18.0588 13.0619C17.8989 12.8962 17.8096 12.6749 17.8096 12.4446C17.8096 12.2143 17.8989 11.993 18.0588 11.8272C18.2187 11.6615 18.4367 11.5643 18.6669 11.556V11.5554ZM10.216 0.000571429H10.2349V0C15.5663 0 19.8977 4.28171 19.9983 9.60171L20 9.788V9.80057C20 10.2789 19.6131 10.6669 19.136 10.6669C18.9203 10.6664 18.7125 10.5855 18.5534 10.4398C18.3943 10.2941 18.2954 10.0943 18.276 9.87943L18.2726 9.80057V9.788L18.2703 9.608C18.1743 5.30229 14.712 1.83086 10.4189 1.73486L10.2371 1.73257H10.1971C10.0835 1.73242 9.97106 1.7099 9.86615 1.66628C9.76125 1.62266 9.66596 1.55881 9.58573 1.47837C9.5055 1.39793 9.4419 1.30247 9.39856 1.19745C9.35522 1.09243 9.33299 0.979898 9.33314 0.866286C9.33314 0.388571 9.72 0 10.1971 0H10.216V0.000571429ZM1.33314 6.66686C1.45251 6.66258 1.57152 6.68239 1.68307 6.72512C1.79461 6.76784 1.8964 6.83261 1.98236 6.91554C2.06832 6.99847 2.1367 7.09788 2.18339 7.20782C2.23009 7.31776 2.25416 7.43598 2.25416 7.55543C2.25416 7.67488 2.23009 7.7931 2.18339 7.90304C2.1367 8.01298 2.06832 8.11238 1.98236 8.19532C1.8964 8.27825 1.79461 8.34301 1.68307 8.38574C1.57152 8.42847 1.45251 8.44828 1.33314 8.444C1.10299 8.43575 0.885026 8.33851 0.725127 8.17278C0.565228 8.00704 0.475872 7.78573 0.475872 7.55543C0.475872 7.32513 0.565228 7.10382 0.725127 6.93808C0.885026 6.77234 1.10299 6.67511 1.33314 6.66686V6.66686Z" fill="url(#paint0_radial_4093_54084)"/>
</g>
<defs>
<radialGradient id="paint0_radial_4093_54084" cx="0" cy="0" r="1" gradientUnits="userSpaceOnUse" gradientTransform="translate(20 19.9999) scale(28.2842 28.284)">
<stop stop-color="#00AE87"/>
<stop offset="1" stop-color="#0767B2"/>
</radialGradient>
<clipPath id="clip0_4093_54084">
<rect width="20" height="20" fill="white"/>
</clipPath>
</defs>
</svg>
