<svg width="20" height="20" viewBox="0 0 20 20" fill="none" xmlns="http://www.w3.org/2000/svg">
<path d="M16.8354 4.69078C17.78 4.69078 18.5458 3.92501 18.5458 2.98039C18.5458 2.03577 17.78 1.27 16.8354 1.27C15.8908 1.27 15.125 2.03577 15.125 2.98039C15.125 3.92501 15.8908 4.69078 16.8354 4.69078Z" fill="url(#paint0_linear_4079_54074)"/>
<path d="M8.5492 1.84406C6.88011 1.84386 5.24846 2.33863 3.86057 3.26579C2.47267 4.19295 1.39089 5.51085 0.752027 7.05283C0.113161 8.59483 -0.054095 10.2916 0.271411 11.9287C0.596918 13.5657 1.40057 15.0695 2.58073 16.2498C3.76088 17.43 5.26455 18.2339 6.90155 18.5596C8.53855 18.8853 10.2354 18.7182 11.7775 18.0795C13.3195 17.4408 14.6375 16.3592 15.5649 14.9714C16.1015 14.1683 15.0919 12.1965 15.3268 11.27C15.4978 10.5956 16.9871 10.986 16.9871 10.2829C16.9871 8.04496 16.0982 5.89866 14.5158 4.31609C12.9334 2.73352 10.7872 1.84431 8.5492 1.84406ZM8.52894 14.9116C7.59364 14.9124 6.67916 14.6357 5.90116 14.1165C5.12316 13.5974 4.51668 12.8591 4.1584 11.9952C3.80013 11.1312 3.70619 10.1804 3.88847 9.26309C4.07074 8.3457 4.52107 7.50305 5.18242 6.8417C5.84377 6.18036 6.68642 5.73005 7.60377 5.54777C8.52111 5.36549 9.47194 5.45943 10.3359 5.8177C11.1998 6.17596 11.9381 6.78249 12.4572 7.56044C12.9764 8.33844 13.2531 9.25292 13.2523 10.1882C13.252 11.4411 12.7544 12.6427 11.8688 13.5289C10.9831 14.4151 9.78181 14.9135 8.52894 14.9145V14.9116Z" fill="#69F5FD"/>
<path d="M6.66394 2.50409C5.99768 2.50397 5.33463 2.59599 4.69359 2.77756C3.12645 3.58389 1.8507 4.86012 1.04496 6.42758C0.239231 7.99501 -0.0561396 9.77523 0.200208 11.5189C1.20422 13.9956 3.71858 15.7523 6.66394 15.7523C8.49528 15.7614 10.2587 15.0591 11.5825 13.7936C10.6935 14.546 9.55802 14.9435 8.39389 14.91C7.22976 14.8765 6.11902 14.4142 5.27481 13.612C4.4306 12.8098 3.91238 11.724 3.8196 10.5631C3.72682 9.40219 4.06602 8.24792 4.77211 7.32175C5.4782 6.39562 6.50142 5.76284 7.64546 5.54486C8.78946 5.32688 9.97368 5.53905 10.9709 6.14066C11.9681 6.74227 12.7079 7.69092 13.0485 8.80462C13.3892 9.91832 13.3065 11.1185 12.8165 12.175C13.3251 11.2401 13.5909 10.1925 13.5895 9.12823C13.5944 5.46972 10.4915 2.50409 6.66394 2.50409Z" fill="url(#paint1_linear_4079_54074)"/>
<path d="M19.1915 9.03936C19.4258 8.86323 19.6121 8.63105 19.7333 8.36419C19.8545 8.09727 19.9068 7.80423 19.8852 7.51192C19.8637 7.21962 19.769 6.93736 19.61 6.69114C19.451 6.44492 19.2327 6.24258 18.9751 6.10271C18.8276 6.02192 18.6691 5.96332 18.5045 5.92875C18.3393 5.89205 17.745 5.78479 16.7719 6.28918C16.1235 6.62549 15.6751 7.04388 15.2499 7.49614C14.504 8.29366 13.8481 9.17088 13.2941 10.112C13.2588 10.1638 13.2265 10.2177 13.1974 10.2733C13.1337 10.3905 13.0838 10.5148 13.0487 10.6434V10.6531C12.8786 12.0427 13.3328 13.1655 13.9667 13.3462C14.6711 13.5472 15.7254 12.6215 16.1728 11.7808C16.3564 11.4348 16.4298 11.1189 16.7989 10.6995C17.0444 10.4202 17.2908 10.2434 17.7102 9.94671C18.0567 9.70223 18.4161 9.47645 18.7867 9.27031C18.8572 9.24236 18.9259 9.2101 18.9925 9.17366C19.0616 9.1331 19.1281 9.08823 19.1915 9.03936Z" fill="url(#paint2_linear_4079_54074)"/>
<path d="M17.1457 9.69531C17.2843 9.3897 17.3322 9.05075 17.2837 8.7187C17.2352 8.38666 17.0925 8.07553 16.8723 7.82231C16.6521 7.5691 16.3639 7.3844 16.0418 7.29023C15.7198 7.19605 15.3775 7.19636 15.0555 7.2911C14.8932 7.33844 14.3192 7.52879 13.7027 8.43618C13.2939 9.04205 13.0997 9.62284 12.9431 10.2239C12.6685 11.2807 12.5117 12.3648 12.4755 13.4562C12.4684 13.5204 12.4648 13.5849 12.4648 13.6495C12.4649 13.7826 12.4805 13.9152 12.5112 14.0447V14.0553C12.7828 14.8351 13.465 15.3714 14.2129 15.4004C15.1792 15.4381 15.8759 14.6071 16.0731 13.9877C16.1146 13.8572 16.1398 13.5151 16.189 12.8281C16.247 12.0396 16.2258 11.9352 16.2673 11.654C16.3556 11.0941 16.5679 10.5608 16.8887 10.0934C16.9369 10.0345 16.9818 9.97288 17.023 9.90884C17.0684 9.84036 17.1094 9.76901 17.1457 9.69531Z" fill="url(#paint3_linear_4079_54074)"/>
<path d="M16.0402 14.1163C16.1045 13.9261 16.1371 13.7266 16.1368 13.5259C16.13 13.0993 15.98 12.6874 15.7111 12.3562C15.4421 12.025 15.0697 11.7938 14.6535 11.6996C14.2375 11.6055 13.8018 11.6538 13.4164 11.8369C13.0311 12.02 12.7184 12.3273 12.5285 12.7093C12.2267 13.1859 11.8426 13.605 11.3941 13.9472C11.3642 13.9771 11.3352 14.008 11.3023 14.0438C10.6008 14.7337 9.86441 15.0237 9.25855 15.2633C8.19076 15.6837 4.31387 16.0489 2.0952 14.1037C1.21005 13.234 0.207977 11.5227 0.205078 11.5188C0.501298 13.5214 1.50747 15.3508 3.04009 16.6734C4.57272 17.996 6.52968 18.7237 8.55407 18.7237C9.79872 18.7237 11.0665 18.3449 11.0665 18.3449C12.6522 17.8513 14.0567 16.9002 15.1038 15.6112C15.3463 15.3073 15.5665 14.9863 15.7629 14.6507C15.883 14.4933 15.9772 14.3178 16.0421 14.1308L16.0402 14.1163Z" fill="url(#paint4_linear_4079_54074)"/>
<defs>
<linearGradient id="paint0_linear_4079_54074" x1="16.8355" y1="1.2792" x2="16.5801" y2="3.85017" gradientUnits="userSpaceOnUse">
<stop stop-color="#FE37AF"/>
<stop offset="1" stop-color="#FE079C"/>
</linearGradient>
<linearGradient id="paint1_linear_4079_54074" x1="12.6725" y1="5.37115" x2="0.110341" y2="11.0724" gradientUnits="userSpaceOnUse">
<stop stop-color="#09EFFB"/>
<stop offset="1" stop-color="#FE37AF"/>
</linearGradient>
<linearGradient id="paint2_linear_4079_54074" x1="19.9201" y1="5.90266" x2="14.3638" y2="12.6186" gradientUnits="userSpaceOnUse">
<stop stop-color="#891AEA"/>
<stop offset="1" stop-color="#A047EE"/>
</linearGradient>
<linearGradient id="paint3_linear_4079_54074" x1="14.7988" y1="7.2554" x2="13.7841" y2="13.2949" gradientUnits="userSpaceOnUse">
<stop stop-color="#FE37AF"/>
<stop offset="1" stop-color="#FE079C"/>
</linearGradient>
<linearGradient id="paint4_linear_4079_54074" x1="16.1513" y1="13.15" x2="4.84533" y2="16.7254" gradientUnits="userSpaceOnUse">
<stop stop-color="#891AEA"/>
<stop offset="1" stop-color="#FE079C"/>
</linearGradient>
</defs>
</svg>
