<svg width="20" height="20" viewBox="0 0 20 20" fill="none" xmlns="http://www.w3.org/2000/svg">
<path fill-rule="evenodd" clip-rule="evenodd" d="M6.01012 16.0217C5.86231 16.0466 5.57171 16.1409 5.44515 16.205C5.15898 16.3499 4.84508 16.6295 4.67117 16.8944C4.55876 17.0656 4.45809 17.2929 4.40156 17.5032C4.33229 17.7608 4.33229 18.2378 4.40156 18.4954C4.63155 19.3508 5.3599 19.95 6.22245 19.9933C7.49004 20.057 8.49807 18.917 8.28141 17.6649C8.16305 16.981 7.68715 16.3889 7.05721 16.1418C6.73433 16.0152 6.32627 15.9684 6.01012 16.0217ZM14.2475 16.0204C13.884 16.0619 13.43 16.1824 13.1361 16.3153L12.9976 16.3779V18.189V20H13.4282H13.8589V18.4557C13.8589 17.6061 13.8671 16.9064 13.8771 16.9002C13.8871 16.8939 13.984 16.8726 14.0925 16.8529C14.366 16.803 14.8951 16.804 15.1578 16.8549C15.2687 16.8764 15.3617 16.8849 15.372 16.8745C15.3905 16.8556 15.7496 16.1963 15.7496 16.1811C15.7496 16.1663 15.4309 16.086 15.2349 16.0514C15.0046 16.0108 14.4765 15.9942 14.2475 16.0204ZM8.08167 16.3084C8.08167 16.3349 10.0859 19.6329 10.153 19.7168C10.3643 19.9808 10.7462 20.0683 11.0627 19.9252C11.276 19.8287 11.339 19.7378 11.9027 18.7138C12.1845 18.2018 12.2973 18.0232 12.4443 17.8563L12.5144 17.7769V17.2477C12.5144 16.9566 12.5086 16.7185 12.5016 16.7185C12.4664 16.7185 12.1238 17.013 11.9564 17.1872C11.6543 17.5016 11.5769 17.6129 11.2441 18.211C10.9688 18.7056 10.7428 19.0884 10.7255 19.0891C10.7179 19.0894 10.5108 18.7595 10.2651 18.356C10.0195 17.9525 9.76141 17.5459 9.69158 17.4526C9.52055 17.2238 9.23772 16.9458 9.00115 16.7738C8.76821 16.6045 8.08167 16.2569 8.08167 16.3084ZM6.52707 16.804C6.86879 16.8582 7.2233 17.1192 7.3847 17.4354C7.48743 17.6366 7.5231 17.782 7.5231 17.9993C7.5231 18.3372 7.39966 18.6301 7.15828 18.8649C6.47743 19.5273 5.34642 19.1808 5.15068 18.2499C4.99472 17.508 5.54887 16.8055 6.30648 16.7846C6.3527 16.7833 6.45197 16.7921 6.52707 16.804Z" fill="black"/>
<path fill-rule="evenodd" clip-rule="evenodd" d="M4.12357 2.34152C4.2198 2.29652 4.30748 2.25974 4.37523 2.23317L4.12357 2.34152ZM10.0168 5.72229V9.67339L3.35567 12.5197C3.15166 12.2276 3.09761 11.9104 3.06491 11.7186C3.05949 11.6867 3.05465 11.6583 3.0498 11.6341V3.76593C3.05465 3.74167 3.05949 3.71327 3.06491 3.68141C3.09761 3.48958 3.15166 3.17243 3.35567 2.88033L10.0168 5.72229ZM4.37523 13.1668C4.30748 13.1403 4.21979 13.1035 4.12357 13.0585L4.37523 13.1668Z" fill="url(#paint0_linear_3978_53260)"/>
<path d="M10.0166 9.67334L3.35547 12.5196C3.50636 12.7356 3.84953 12.9304 4.12337 13.0584L4.37503 13.1668L8.92906 15.1275C8.96341 15.1404 8.99939 15.1544 9.03693 15.169C9.2965 15.27 9.63061 15.3999 10.0166 15.3999V9.67334Z" fill="url(#paint1_linear_3978_53260)"/>
<path d="M11.0022 15.1275L15.6242 13.186C15.8847 13.0838 16.4398 12.8308 16.6437 12.5388L10.0166 9.67334V15.3999C10.4295 15.3999 10.7086 15.2659 10.8901 15.1787C10.9327 15.1583 10.9699 15.1404 11.0022 15.1275Z" fill="url(#paint2_linear_3978_53260)"/>
<path d="M16.9496 11.6148V3.74668C16.9448 3.72242 16.9399 3.69402 16.9345 3.66216C16.9018 3.47033 16.8478 3.15318 16.6437 2.86108L10.0166 5.72223V9.67333L16.6437 12.5388C16.8447 12.2511 16.9002 11.9117 16.933 11.7105L16.933 11.7105C16.9391 11.6735 16.9443 11.6412 16.9496 11.6148Z" fill="url(#paint3_linear_3978_53260)"/>
<path d="M15.6242 2.21398L11.0022 0.27249C10.9699 0.25954 10.9327 0.241666 10.8901 0.221209C10.7086 0.134053 10.4295 0 10.0166 0V5.72229L16.6437 2.86114C16.4398 2.56919 15.8847 2.31616 15.6242 2.21398Z" fill="url(#paint4_linear_3978_53260)"/>
<path d="M10.0166 0C9.57478 0 9.20094 0.170306 8.92906 0.27249L4.37503 2.23317L4.12336 2.34152C3.84952 2.46958 3.50635 2.6643 3.35547 2.88033L10.0166 5.72229V0Z" fill="url(#paint5_linear_3978_53260)"/>
<path fill-rule="evenodd" clip-rule="evenodd" d="M9.23151 1.98097L5.89114 3.4901C5.84145 3.51055 5.77713 3.53886 5.70655 3.5735C5.60731 3.6222 5.49566 3.68342 5.39474 3.75296L10.0292 5.72234V1.77124C9.74609 1.77124 9.50102 1.87129 9.31063 1.94902C9.2831 1.96026 9.2567 1.97104 9.23151 1.98097ZM5.89114 11.9057C5.84144 11.8852 5.77712 11.8569 5.70653 11.8223L5.89114 11.9057Z" fill="url(#paint6_linear_3978_53260)"/>
<path d="M4.91895 4.66983V10.7259C4.9225 10.7446 4.92605 10.7664 4.93003 10.791C4.95401 10.9386 4.99365 11.1827 5.1433 11.4075C5.19929 11.4917 5.29139 11.5716 5.39474 11.6428L10.0292 9.67342V9.21678V6.17564V5.72232L5.39474 3.75293C5.29139 3.82414 5.19929 3.90407 5.1433 3.9882C4.99365 4.21302 4.95401 4.45713 4.93003 4.60478C4.92605 4.6293 4.9225 4.65116 4.91895 4.66983Z" fill="url(#paint7_linear_3978_53260)"/>
<path d="M10.0295 13.6244V9.67334L5.39502 11.6427C5.49593 11.7123 5.60758 11.7735 5.70681 11.8222L5.89142 11.9056L9.23179 13.4147C9.25067 13.4222 9.27023 13.4301 9.29044 13.4383L9.31034 13.4464L9.31091 13.4467C9.5013 13.5244 9.74637 13.6244 10.0295 13.6244Z" fill="#0753CC"/>
<path d="M10.7522 13.4147L14.1424 11.9204C14.262 11.8711 14.4661 11.7765 14.6388 11.6575L10.0293 9.67334V13.6244C10.3321 13.6244 10.5369 13.5213 10.67 13.4542C10.7012 13.4384 10.7285 13.4247 10.7522 13.4147Z" fill="#0B75D4"/>
<path d="M15.1146 10.7111V4.65506C15.1111 4.63639 15.1075 4.61453 15.1035 4.59001C15.0796 4.44236 15.0399 4.19825 14.8903 3.97342C14.8343 3.8893 14.7422 3.80937 14.6388 3.73816L10.0293 5.72232V6.17563V9.21678V9.67342L14.6388 11.6576C14.7422 11.5864 14.8343 11.5064 14.8903 11.4223C15.0377 11.2009 15.0784 10.9396 15.1025 10.7848C15.1069 10.7564 15.1108 10.7315 15.1146 10.7111Z" fill="url(#paint8_linear_3978_53260)"/>
<path d="M10.7522 1.98097C10.6276 1.92854 10.4032 1.77124 10.0293 1.77124V5.72234L14.6388 3.73819C14.4661 3.61919 14.262 3.52454 14.1424 3.47533L10.7522 1.98097Z" fill="url(#paint9_linear_3978_53260)"/>
<ellipse cx="10.017" cy="7.69786" rx="3.26259" ry="3.26988" fill="url(#paint10_linear_3978_53260)"/>
<defs>
<linearGradient id="paint0_linear_3978_53260" x1="3.0498" y1="7.05068" x2="9.98282" y2="7.15241" gradientUnits="userSpaceOnUse">
<stop stop-color="#EC663C"/>
<stop offset="0.270996" stop-color="#EF7A36"/>
</linearGradient>
<linearGradient id="paint1_linear_3978_53260" x1="3.38945" y1="12.5345" x2="10.0543" y2="15.0452" gradientUnits="userSpaceOnUse">
<stop stop-color="#19B1F0"/>
<stop offset="1" stop-color="#2AC7F8"/>
</linearGradient>
<linearGradient id="paint2_linear_3978_53260" x1="16.3719" y1="12.5345" x2="10.0463" y2="15.2152" gradientUnits="userSpaceOnUse">
<stop stop-color="#0DA2E7"/>
<stop offset="1" stop-color="#3DD6FC"/>
</linearGradient>
<linearGradient id="paint3_linear_3978_53260" x1="16.9836" y1="6.50564" x2="10.0506" y2="6.57346" gradientUnits="userSpaceOnUse">
<stop stop-color="#DB519E"/>
<stop offset="0.268844" stop-color="#C75DB5"/>
</linearGradient>
<linearGradient id="paint4_linear_3978_53260" x1="10.0506" y1="2.88068e-08" x2="16.6484" y2="2.85041" gradientUnits="userSpaceOnUse">
<stop stop-color="#915CD5"/>
<stop offset="1" stop-color="#C23687"/>
</linearGradient>
<linearGradient id="paint5_linear_3978_53260" x1="10.0506" y1="0.919653" x2="3.38714" y2="2.85317" gradientUnits="userSpaceOnUse">
<stop stop-color="#FAC94E"/>
<stop offset="1" stop-color="#F4976C"/>
</linearGradient>
<linearGradient id="paint6_linear_3978_53260" x1="10.0167" y1="1.77124" x2="5.62916" y2="3.80743" gradientUnits="userSpaceOnUse">
<stop stop-color="#FAB232"/>
<stop offset="1" stop-color="#F37C44"/>
</linearGradient>
<linearGradient id="paint7_linear_3978_53260" x1="4.95293" y1="7.08477" x2="10.0507" y2="7.01695" gradientUnits="userSpaceOnUse">
<stop stop-color="#E8441E"/>
<stop offset="0.373513" stop-color="#ED4E1B"/>
</linearGradient>
<linearGradient id="paint8_linear_3978_53260" x1="15.1486" y1="7.11883" x2="10.0508" y2="7.22056" gradientUnits="userSpaceOnUse">
<stop stop-color="#A03E85"/>
<stop offset="0.374283" stop-color="#8345A8"/>
</linearGradient>
<linearGradient id="paint9_linear_3978_53260" x1="10.0508" y1="2.17998" x2="13.9282" y2="3.97861" gradientUnits="userSpaceOnUse">
<stop stop-color="#643BC2"/>
<stop offset="1" stop-color="#7A2A88"/>
</linearGradient>
<linearGradient id="paint10_linear_3978_53260" x1="10.017" y1="4.42798" x2="10.017" y2="10.9677" gradientUnits="userSpaceOnUse">
<stop stop-color="white" stop-opacity="0.9"/>
<stop offset="0.432885" stop-color="white" stop-opacity="0.95"/>
<stop offset="1" stop-color="white" stop-opacity="0.7"/>
</linearGradient>
</defs>
</svg>
