<svg width="32" height="32" viewBox="0 0 32 32" fill="none" xmlns="http://www.w3.org/2000/svg">
<rect width="32" height="32" rx="3" fill="#39CD8E"/>
<g clip-path="url(#clip0_714_9445)">
<path d="M22.6182 10.9494V6.67646C22.6182 6.39192 22.3875 6.16123 22.1029 6.16123H7.41523C7.13069 6.16123 6.9 6.39192 6.9 6.67646V25.3236C6.9 25.6081 7.13069 25.8388 7.41523 25.8388H22.1029C22.3875 25.8388 22.6182 25.6081 22.6182 25.3236V15.7567L28.9492 9.42582C29.1504 9.2246 29.1503 8.89846 28.9492 8.69718L28.9492 8.69716L27.2741 7.02212C27.0729 6.82091 26.7468 6.82094 26.5455 7.0221L26.5455 7.02212L22.6182 10.9494ZM21.5877 16.7884V24.8084H7.93046V7.19169H21.5878V11.9802L17.3487 16.2191L17.3487 16.2192C17.2826 16.2854 17.2356 16.3683 17.213 16.4594C17.213 16.4594 17.213 16.4594 17.213 16.4594L16.6598 18.6875C16.6163 18.8628 16.6678 19.0482 16.7956 19.1759L16.7956 19.176C16.8935 19.2737 17.025 19.3268 17.1599 19.3268H17.1611C17.2025 19.3268 17.2442 19.3217 17.2852 19.3116L17.2852 19.3116L19.5134 18.7584L19.5135 18.7584C19.6043 18.7357 19.6873 18.6889 19.7536 18.6226L21.5877 16.7884ZM22.4874 12.5375L26.9097 8.11516L27.8561 9.06154L19.1249 17.7927L17.8673 18.105L18.1797 16.8464L22.4673 12.5588C22.4742 12.552 22.4809 12.5448 22.4874 12.5375ZM9.60619 16.5186H15.7082C15.9927 16.5186 16.2234 16.2879 16.2234 16.0033C16.2234 15.7188 15.9927 15.4881 15.7082 15.4881H9.60619C9.32165 15.4881 9.09096 15.7188 9.09096 16.0033C9.09096 16.2879 9.32165 16.5186 9.60619 16.5186ZM9.60619 14.1602H17.8536C18.1381 14.1602 18.3688 13.9295 18.3688 13.6449C18.3688 13.3604 18.1381 13.1297 17.8536 13.1297H9.60619C9.32165 13.1297 9.09096 13.3604 9.09096 13.6449C9.09096 13.9295 9.32165 14.1602 9.60619 14.1602ZM9.60619 9.44358H19.4656C19.7501 9.44358 19.9808 9.21289 19.9808 8.92835C19.9808 8.64381 19.7501 8.41312 19.4656 8.41312H9.60619C9.32165 8.41312 9.09096 8.64381 9.09096 8.92835C9.09096 9.21289 9.32165 9.44358 9.60619 9.44358Z" fill="white" stroke="white" stroke-width="0.2"/>
</g>
<defs>
<clipPath id="clip0_714_9445">
<rect width="22" height="22" fill="white" transform="translate(7 5)"/>
</clipPath>
</defs>
</svg>
