<svg width="20" height="20" viewBox="0 0 20 20" fill="none" xmlns="http://www.w3.org/2000/svg">
<circle cx="10" cy="10" r="10" fill="white"/>
<circle cx="9.99996" cy="9.98" r="9.04" fill="#EA4745"/>
<path d="M7.87035 4.02202C7.27835 4.09802 6.66235 4.38402 6.23235 4.78202C5.61435 5.35602 5.29435 6.13202 5.32435 6.98202L5.33235 7.22002L5.23235 7.25802C4.64035 7.48002 4.16235 7.86602 3.81035 8.40602C3.50235 8.88002 3.36035 9.36802 3.36035 9.94602C3.36035 10.114 3.37035 10.312 3.38035 10.39C3.46235 10.982 3.72235 11.536 4.11435 11.96C4.34835 12.212 4.60435 12.57 4.79435 12.91C4.88435 13.07 5.12035 13.566 5.12035 13.592C5.12035 13.628 5.36635 14.082 5.47435 14.25C6.16435 15.304 7.30235 16.004 8.71035 16.238C9.34435 16.344 10.2904 16.388 10.8704 16.34C12.0224 16.244 12.9144 15.894 13.6844 15.234C14.0844 14.89 14.3564 14.532 14.6684 13.93C14.9604 13.37 15.1564 13.104 15.6484 12.6C15.8684 12.376 16.0364 12.184 16.1164 12.064C16.6784 11.24 16.7904 10.214 16.4204 9.30002C16.2844 8.96202 16.1244 8.71202 15.8404 8.38402C15.6304 8.14402 15.2764 7.87802 14.9364 7.71002L14.7464 7.61602L14.7624 7.52402C14.7904 7.35402 14.7824 6.81802 14.7484 6.61802C14.6484 6.02602 14.3404 5.45602 13.8784 5.00802C13.4644 4.61002 12.9004 4.32402 12.3004 4.20802C12.0504 4.16002 11.5824 4.16002 11.3304 4.21002C10.9624 4.28002 10.4204 4.50602 10.2024 4.67802L10.1304 4.73602L10.0424 4.65802C9.71435 4.36602 9.12235 4.10402 8.63035 4.03002C8.41235 3.99802 8.09235 3.99402 7.87035 4.02202ZM8.49035 4.20202C9.05835 4.27002 9.50835 4.46202 9.95435 4.82402C10.0324 4.88802 10.1124 4.94002 10.1304 4.94002C10.1504 4.94002 10.2244 4.89602 10.2984 4.84202C10.5284 4.67602 10.8784 4.51202 11.1604 4.44002C11.4064 4.37802 11.6484 4.35402 11.9404 4.36602C12.6404 4.39002 13.2784 4.67602 13.7904 5.18802C14.1984 5.59802 14.4364 6.03202 14.5524 6.58602C14.5924 6.77002 14.6024 7.29602 14.5724 7.57402L14.5544 7.73802L14.7684 7.83802C15.1084 7.99602 15.3544 8.17202 15.6184 8.43602C16.1164 8.93802 16.3644 9.46202 16.4424 10.174C16.4904 10.61 16.3884 11.162 16.1804 11.594C16.0324 11.9 15.8744 12.108 15.5304 12.454C15.0244 12.958 14.7524 13.338 14.4204 14C14.2404 14.358 13.8964 14.802 13.5884 15.072C12.6544 15.89 11.4844 16.234 9.89035 16.16C8.89035 16.114 8.27035 16.004 7.67035 15.764C7.06035 15.52 6.62035 15.24 6.19435 14.822C5.73435 14.372 5.53435 14.068 5.19035 13.296C4.94435 12.744 4.61635 12.228 4.29035 11.88C3.93235 11.498 3.70835 11.074 3.59635 10.566C3.53835 10.306 3.53235 9.70002 3.58635 9.44402C3.69435 8.91402 3.91035 8.50602 4.29835 8.09602C4.59435 7.78402 4.92635 7.56402 5.32035 7.42002C5.41235 7.38602 5.49435 7.35202 5.50035 7.34802C5.50635 7.34202 5.51035 7.15602 5.51235 6.93402C5.51435 6.60002 5.52235 6.49402 5.55835 6.32002C5.62435 6.00802 5.75435 5.69402 5.91635 5.44202C6.33035 4.80402 7.02635 4.35002 7.77035 4.23202C8.10035 4.18002 8.25035 4.17202 8.49035 4.20202Z" fill="#151515"/>
<path d="M7.95635 5.22202C7.80235 5.24202 7.60435 5.31202 7.47835 5.39202C7.31435 5.49402 7.11635 5.71602 7.01635 5.91002C6.84035 6.25402 6.78035 6.55802 6.81835 6.92202C6.89435 7.63602 7.26835 8.22202 7.83035 8.50202C8.13635 8.65402 8.39235 8.69202 8.69035 8.63002C9.18435 8.52602 9.59635 8.07202 9.72235 7.49002C9.75635 7.33602 9.75635 6.95202 9.72235 6.76002C9.63235 6.25202 9.37035 5.80002 8.99835 5.51602C8.69235 5.28002 8.31835 5.17602 7.95635 5.22202ZM8.48635 5.45002C8.67835 5.51602 8.82235 5.60602 8.99635 5.77002C9.24435 6.00402 9.36835 6.20402 9.47835 6.54402C9.75635 7.41402 9.38435 8.26802 8.65035 8.45002C8.37635 8.51802 8.06635 8.44802 7.77035 8.25202C7.33435 7.96402 7.07435 7.50202 7.00035 6.88802C6.95435 6.50402 7.09835 6.02602 7.34435 5.75202C7.63835 5.42202 8.06835 5.30802 8.48635 5.45002Z" fill="#151515"/>
<path d="M11.6504 5.42002C11.2984 5.51202 10.9784 5.72602 10.7524 6.02002C10.5544 6.27802 10.4464 6.51202 10.3664 6.86802C10.3224 7.06402 10.3164 7.12202 10.3264 7.35002C10.3344 7.53202 10.3504 7.65602 10.3804 7.76002C10.5344 8.30002 10.8844 8.66202 11.3584 8.77202C11.5544 8.81802 11.8844 8.80002 12.0764 8.73402C12.5824 8.55602 12.9844 8.12802 13.1724 7.56802C13.2484 7.33802 13.2804 7.14202 13.2804 6.89402C13.2804 6.60402 13.2304 6.39402 13.0984 6.12402C13.0164 5.95202 12.9704 5.88802 12.8444 5.76002C12.5284 5.44002 12.0684 5.30802 11.6504 5.42002ZM12.2444 5.61202C12.7344 5.73002 13.0984 6.27602 13.1004 6.89602C13.1004 7.21202 12.9944 7.60402 12.8324 7.87002C12.6164 8.23002 12.2424 8.52002 11.8984 8.59202C11.7024 8.63402 11.4304 8.62002 11.2764 8.56202C10.8324 8.39202 10.5404 7.94002 10.5064 7.37002C10.4644 6.63002 10.9024 5.90202 11.5364 5.65402C11.7764 5.56202 11.9884 5.55002 12.2444 5.61202Z" fill="#151515"/>
<path d="M5.47035 8.48802C5.01035 8.59402 4.67435 8.90202 4.52635 9.35002C4.47835 9.49402 4.47235 9.53802 4.47235 9.81002C4.47435 10.078 4.47835 10.128 4.52835 10.29C4.69835 10.854 5.10035 11.33 5.60835 11.572C6.34635 11.922 7.13835 11.7 7.44635 11.056C7.57035 10.798 7.59035 10.7 7.58835 10.37C7.58635 10.128 7.57835 10.066 7.53235 9.91402C7.43235 9.58202 7.27035 9.31002 7.01235 9.04402C6.66435 8.68402 6.26235 8.49802 5.78635 8.47202C5.65435 8.46402 5.55035 8.47002 5.47035 8.48802ZM6.09035 8.70202C6.39035 8.77402 6.65835 8.93602 6.90435 9.19802C7.12835 9.43402 7.28035 9.69602 7.36235 9.99002C7.42235 10.198 7.42635 10.562 7.37235 10.76C7.26635 11.146 6.97835 11.432 6.59035 11.53C6.30435 11.602 5.88235 11.526 5.57235 11.346C5.30235 11.19 5.10835 10.998 4.92035 10.708C4.54835 10.128 4.55635 9.39602 4.93835 8.99402C5.23435 8.68202 5.61035 8.58602 6.09035 8.70202Z" fill="#151515"/>
<path d="M9.78035 8.85202C9.61235 8.88002 9.49835 8.91202 9.41035 8.95602C9.04235 9.13802 8.83835 9.38802 8.72235 9.80202C8.54635 10.426 8.17435 11.01 7.72235 11.37C7.65435 11.424 7.55635 11.502 7.50635 11.542C7.23235 11.764 7.06035 12.134 7.06035 12.498C7.06035 12.818 7.20035 13.158 7.42035 13.38C7.64835 13.608 8.02435 13.768 8.32035 13.762C8.43035 13.76 8.84635 13.698 8.94035 13.67C9.02035 13.646 9.44235 13.618 9.70035 13.618C10.1224 13.62 10.5144 13.678 10.9304 13.802C11.3404 13.924 11.5044 13.942 11.7404 13.892C12.2204 13.79 12.5724 13.458 12.6904 13C12.7164 12.902 12.7224 12.812 12.7144 12.63C12.6984 12.198 12.5924 11.992 12.1684 11.58C11.8964 11.318 11.6464 11.004 11.5084 10.758C11.3504 10.476 11.1904 10.062 11.1404 9.81002C11.0984 9.59602 10.9924 9.41002 10.8084 9.22602C10.6344 9.05202 10.4724 8.95402 10.2544 8.89202C10.1384 8.85802 9.87235 8.83602 9.78035 8.85202ZM10.2204 9.07402C10.3864 9.12202 10.5364 9.21402 10.6824 9.36002C10.8404 9.51602 10.9144 9.66202 10.9884 9.95602C11.0544 10.216 11.1544 10.474 11.2864 10.73C11.4924 11.124 11.6484 11.328 12.0644 11.75C12.2264 11.914 12.3604 12.056 12.3604 12.064C12.3604 12.074 12.3804 12.114 12.4064 12.156C12.4964 12.3 12.5304 12.452 12.5284 12.7C12.5284 12.9 12.5204 12.948 12.4744 13.068C12.3464 13.396 12.0784 13.62 11.7044 13.71C11.5164 13.756 11.4104 13.744 11.0484 13.642C10.2104 13.404 9.60635 13.374 8.74035 13.524C8.47235 13.57 8.35635 13.582 8.24835 13.572C7.66435 13.526 7.20635 13.004 7.24835 12.436C7.27235 12.11 7.42435 11.83 7.68035 11.642C8.07835 11.35 8.34235 11.048 8.58835 10.606C8.73235 10.346 8.80035 10.186 8.89035 9.89002C8.97435 9.61002 9.03835 9.48802 9.16035 9.36002C9.44635 9.06602 9.82435 8.96402 10.2204 9.07402Z" fill="#151515"/>
<path d="M13.7884 8.88202C13.4864 8.93202 13.1344 9.11402 12.8864 9.34802C12.6704 9.55202 12.5424 9.72402 12.4204 9.97002C12.2764 10.262 12.2344 10.462 12.2464 10.79C12.2564 11.086 12.2944 11.226 12.4204 11.44C12.5824 11.716 12.8264 11.914 13.1264 12.014C13.2724 12.062 13.3184 12.068 13.5604 12.068C13.7944 12.066 13.8544 12.06 14.0104 12.012C14.4604 11.878 14.8504 11.582 15.1144 11.176C15.3204 10.862 15.4064 10.578 15.4084 10.21C15.4084 9.93602 15.3784 9.79202 15.2724 9.57002C15.1064 9.22402 14.7804 8.97002 14.3944 8.88802C14.2464 8.85802 13.9524 8.85402 13.7884 8.88202ZM14.5084 9.10802C14.8524 9.24202 15.1004 9.51802 15.1904 9.87002C15.2304 10.03 15.2304 10.39 15.1884 10.558C15.0684 11.046 14.6724 11.526 14.2144 11.742C13.9164 11.88 13.4864 11.93 13.2304 11.852C12.9544 11.77 12.6964 11.57 12.5644 11.336C12.3604 10.978 12.3764 10.408 12.6044 10C12.8664 9.53002 13.2764 9.20202 13.7564 9.08002C13.9844 9.02202 14.3184 9.03402 14.5084 9.10802Z" fill="#151515"/>
<path d="M6.09032 8.70203C6.39032 8.77403 6.65832 8.93603 6.90432 9.19803C7.12832 9.43403 7.28032 9.69603 7.36232 9.99003C7.42232 10.198 7.42632 10.562 7.37232 10.76C7.26632 11.146 6.97832 11.432 6.59032 11.53C6.30432 11.602 5.88232 11.526 5.57232 11.346C5.30232 11.19 5.10832 10.998 4.92032 10.708C4.54832 10.128 4.55632 9.39603 4.93832 8.99403C5.23432 8.68203 5.61032 8.58603 6.09032 8.70203Z" fill="#FF8300"/>
<path d="M8.48632 5.45003C8.67832 5.51603 8.82232 5.60603 8.99632 5.77003C9.24432 6.00403 9.36832 6.20403 9.47832 6.54403C9.75632 7.41403 9.38432 8.26803 8.65032 8.45003C8.37632 8.51803 8.06632 8.44803 7.77032 8.25203C7.33432 7.96403 7.07432 7.50203 7.00032 6.88803C6.95432 6.50403 7.09832 6.02603 7.34432 5.75203C7.63832 5.42203 8.06832 5.30803 8.48632 5.45003Z" fill="#FF8300"/>
<path d="M12.2443 5.61203C12.7343 5.73003 13.0983 6.27603 13.1003 6.89603C13.1003 7.21203 12.9943 7.60403 12.8323 7.87003C12.6163 8.23003 12.2423 8.52003 11.8983 8.59203C11.7023 8.63403 11.4303 8.62003 11.2763 8.56203C10.8323 8.39203 10.5403 7.94003 10.5063 7.37003C10.4643 6.63003 10.9023 5.90203 11.5363 5.65403C11.7763 5.56203 11.9883 5.55003 12.2443 5.61203Z" fill="#FF8300"/>
<path d="M14.5083 9.10803C14.8523 9.24203 15.1003 9.51803 15.1903 9.87003C15.2303 10.03 15.2303 10.39 15.1883 10.558C15.0683 11.046 14.6723 11.526 14.2143 11.742C13.9163 11.88 13.4863 11.93 13.2303 11.852C12.9543 11.77 12.6963 11.57 12.5643 11.336C12.3603 10.978 12.3763 10.408 12.6043 10C12.8663 9.53003 13.2763 9.20203 13.7563 9.08003C13.9843 9.02203 14.3183 9.03403 14.5083 9.10803Z" fill="#FF8300"/>
<path d="M10.2203 9.07403C10.3863 9.12203 10.5363 9.21403 10.6823 9.36003C10.8403 9.51603 10.9143 9.66203 10.9883 9.95603C11.0543 10.216 11.1543 10.474 11.2863 10.73C11.4923 11.124 11.6483 11.328 12.0643 11.75C12.2263 11.914 12.3603 12.056 12.3603 12.064C12.3603 12.074 12.3803 12.114 12.4063 12.156C12.4963 12.3 12.5303 12.452 12.5283 12.7C12.5283 12.9 12.5203 12.948 12.4743 13.068C12.3463 13.396 12.0783 13.62 11.7043 13.71C11.5163 13.756 11.4103 13.744 11.0483 13.642C10.2103 13.404 9.60632 13.374 8.74032 13.524C8.47232 13.57 8.35632 13.582 8.24832 13.572C7.66432 13.526 7.20632 13.004 7.24832 12.436C7.27232 12.11 7.42432 11.83 7.68032 11.642C8.07832 11.35 8.34232 11.048 8.58832 10.606C8.73232 10.346 8.80032 10.186 8.89032 9.89003C8.97432 9.61003 9.03832 9.48803 9.16032 9.36003C9.44632 9.06603 9.82432 8.96403 10.2203 9.07403Z" fill="#FF8300"/>
<path fill-rule="evenodd" clip-rule="evenodd" d="M8.49004 4.20198C9.05804 4.26998 9.50804 4.46198 9.95404 4.82398C10.032 4.88798 10.112 4.93998 10.13 4.93998C10.15 4.93998 10.224 4.89598 10.298 4.84198C10.528 4.67598 10.878 4.51198 11.16 4.43998C11.406 4.37798 11.648 4.35398 11.94 4.36598C12.64 4.38998 13.278 4.67598 13.79 5.18798C14.198 5.59798 14.436 6.03198 14.552 6.58598C14.592 6.76998 14.602 7.29598 14.572 7.57398L14.554 7.73798L14.768 7.83798C15.108 7.99598 15.354 8.17198 15.618 8.43598C16.116 8.93798 16.364 9.46198 16.442 10.174C16.49 10.61 16.388 11.162 16.18 11.594C16.032 11.9 15.874 12.108 15.53 12.454C15.024 12.958 14.752 13.338 14.42 14C14.24 14.358 13.896 14.802 13.588 15.072C12.654 15.89 11.484 16.234 9.89004 16.16C8.89004 16.114 8.27004 16.004 7.67004 15.764C7.06004 15.52 6.62004 15.24 6.19404 14.822C5.73404 14.372 5.53404 14.068 5.19004 13.296C4.94404 12.744 4.61604 12.228 4.29004 11.88C3.93204 11.498 3.70804 11.074 3.59604 10.566C3.53804 10.306 3.53204 9.69998 3.58604 9.44398C3.69404 8.91398 3.91004 8.50598 4.29804 8.09598C4.59404 7.78398 4.92604 7.56398 5.32004 7.41998C5.41204 7.38598 5.49404 7.35198 5.50004 7.34798C5.50604 7.34198 5.51004 7.15598 5.51204 6.93398C5.51404 6.59998 5.52204 6.49398 5.55804 6.31998C5.62404 6.00798 5.75404 5.69398 5.91604 5.44198C6.33004 4.80398 7.02604 4.34998 7.77004 4.23198C8.10004 4.17998 8.25004 4.17198 8.49004 4.20198ZM7.47804 5.39198C7.60404 5.31198 7.80204 5.24198 7.95604 5.22198C8.31804 5.17598 8.69204 5.27998 8.99804 5.51598C9.37004 5.79998 9.63204 6.25198 9.72204 6.75998C9.75604 6.95198 9.75604 7.33598 9.72204 7.48998C9.59604 8.07198 9.18404 8.52598 8.69004 8.62998C8.39204 8.69198 8.13604 8.65398 7.83004 8.50198C7.26804 8.22198 6.89404 7.63598 6.81804 6.92198C6.78004 6.55798 6.84004 6.25398 7.01604 5.90998C7.11604 5.71598 7.31404 5.49398 7.47804 5.39198ZM10.752 6.01998C10.978 5.72598 11.298 5.51198 11.65 5.41998C12.068 5.30798 12.528 5.43998 12.844 5.75998C12.97 5.88798 13.016 5.95198 13.098 6.12398C13.23 6.39398 13.28 6.60398 13.28 6.89398C13.28 7.14198 13.248 7.33798 13.172 7.56798C12.984 8.12798 12.582 8.55598 12.076 8.73398C11.884 8.79998 11.554 8.81798 11.358 8.77198C10.884 8.66198 10.534 8.29998 10.38 7.75998C10.35 7.65598 10.334 7.53198 10.326 7.34998C10.316 7.12198 10.322 7.06398 10.366 6.86798C10.446 6.51198 10.554 6.27798 10.752 6.01998ZM4.52604 9.34998C4.67404 8.90198 5.01004 8.59398 5.47004 8.48798C5.55004 8.46998 5.65404 8.46398 5.78604 8.47198C6.26204 8.49798 6.66404 8.68398 7.01204 9.04398C7.27004 9.30998 7.43204 9.58198 7.53204 9.91398C7.57804 10.066 7.58604 10.128 7.58804 10.37C7.59004 10.7 7.57004 10.798 7.44604 11.056C7.13804 11.7 6.34604 11.922 5.60804 11.572C5.10004 11.33 4.69804 10.854 4.52804 10.29C4.47804 10.128 4.47404 10.078 4.47204 9.80998C4.47204 9.53798 4.47804 9.49398 4.52604 9.34998ZM9.41004 8.95598C9.49804 8.91198 9.61204 8.87998 9.78004 8.85198C9.87204 8.83598 10.138 8.85798 10.254 8.89198C10.472 8.95398 10.634 9.05198 10.808 9.22598C10.992 9.40998 11.098 9.59598 11.14 9.80998C11.19 10.062 11.35 10.476 11.508 10.758C11.646 11.004 11.896 11.318 12.168 11.58C12.592 11.992 12.698 12.198 12.714 12.63C12.722 12.812 12.716 12.902 12.69 13C12.572 13.458 12.22 13.79 11.74 13.892C11.504 13.942 11.34 13.924 10.93 13.802C10.514 13.678 10.122 13.62 9.70004 13.618C9.44204 13.618 9.02004 13.646 8.94004 13.67C8.84604 13.698 8.43004 13.76 8.32004 13.762C8.02404 13.768 7.64804 13.608 7.42004 13.38C7.20004 13.158 7.06004 12.818 7.06004 12.498C7.06004 12.134 7.23204 11.764 7.50604 11.542C7.55604 11.502 7.65404 11.424 7.72204 11.37C8.17404 11.01 8.54604 10.426 8.72204 9.80198C8.83804 9.38798 9.04204 9.13798 9.41004 8.95598ZM12.886 9.34798C13.134 9.11398 13.486 8.93198 13.788 8.88198C13.952 8.85398 14.246 8.85798 14.394 8.88798C14.78 8.96998 15.106 9.22398 15.272 9.56998C15.378 9.79198 15.408 9.93598 15.408 10.21C15.406 10.578 15.32 10.862 15.114 11.176C14.85 11.582 14.46 11.878 14.01 12.012C13.854 12.06 13.794 12.066 13.56 12.068C13.318 12.068 13.272 12.062 13.126 12.014C12.826 11.914 12.582 11.716 12.42 11.44C12.294 11.226 12.256 11.086 12.246 10.79C12.234 10.462 12.276 10.262 12.42 9.96998C12.542 9.72398 12.67 9.55198 12.886 9.34798Z" fill="white"/>
</svg>
