<svg width="20" height="20" viewBox="0 0 20 20" fill="none" xmlns="http://www.w3.org/2000/svg">
<g clip-path="url(#clip0_2952_4927)">
<path d="M5.27932 3.3435C5.64095 2.92995 5.97354 2.58002 6.2903 2.28312C0.942425 2.1108 2.4998 5.99446 0.747093 9.93643C-1.25902 14.4802 0.984659 16.2112 4.32642 16.752C3.85975 16.1936 3.47894 15.5681 3.19666 14.8964C1.04009 12.1579 1.91381 7.16618 5.27932 3.3435Z" fill="#EFE812"/>
<path d="M18.1474 8.18408C17.5159 9.84337 16.6022 11.3799 15.4471 12.7252C14.5211 13.8554 13.4118 14.8206 12.166 15.5803C10.7192 16.501 9.03767 16.9807 7.32497 16.9614C6.32502 16.9704 5.32592 16.9004 4.33691 16.752C4.88602 17.4107 5.56678 17.9463 6.33511 18.324C11.1709 20.6727 11.4745 16.3119 16.59 14.0984C19.4619 12.8551 19.4725 10.4268 18.1448 8.18408" fill="#EDE70A"/>
<path d="M12.1661 3.65093C12.8662 3.77399 13.5407 4.01414 14.1617 4.36139C15.7884 5.27992 17.159 6.59444 18.1475 8.18407C19.0186 5.71868 18.6121 3.78348 16.7089 3.43355C14.6131 3.04916 12.9765 2.92457 11.4033 1.82177C9.46579 0.469781 7.76588 0.90984 6.29297 2.28569L6.61236 2.29894C8.65543 2.42089 10.6088 2.82913 12.1556 3.64563" fill="#EDE70A"/>
<path d="M5.27903 3.34341C1.91351 7.16609 1.0398 12.1578 3.20693 14.8963C2.70561 13.7076 2.48682 12.4179 2.56792 11.1295C2.64902 9.84117 3.02776 8.58946 3.67414 7.4736C5.49812 4.4197 9.15928 3.09422 12.1658 3.65092C10.6084 2.82382 8.65511 2.42618 6.6226 2.30424L6.3032 2.28833C5.97589 2.59054 5.6433 2.92986 5.27903 3.34341Z" fill="#DEC21C"/>
<path d="M14.1616 4.35616C13.5403 4.01076 12.8658 3.7724 12.166 3.651C14.2144 4.73259 15.5738 6.56705 15.5738 9.4672C15.5619 10.6914 15.2436 11.893 14.6481 12.9613C14.0525 14.0295 13.199 14.9302 12.166 15.5803C13.4124 14.8215 14.5218 13.8562 15.4471 12.7252C16.6022 11.38 17.5159 9.84343 18.1474 8.18414C17.1596 6.59257 15.7889 5.27617 14.1616 4.35616" fill="#E5CB22"/>
<path d="M12.1659 3.65102C9.15937 3.09432 5.49821 4.41979 3.67424 7.46044C3.02515 8.57774 2.6449 9.83185 2.56378 11.1228C2.48266 12.4138 2.70293 13.706 3.20702 14.8964C3.4883 15.5686 3.8692 16.1942 4.33678 16.752C5.32579 16.9005 6.32489 16.9705 7.32483 16.9615C9.03754 16.9808 10.7191 16.501 12.1659 15.5803C13.1991 14.9304 14.0527 14.0298 14.6483 12.9615C15.2438 11.8932 15.562 10.6915 15.5737 9.46722C15.5737 6.56707 14.2142 4.73261 12.1659 3.65102ZM11.828 14.2018C10.7161 14.9191 9.36655 15.1651 8.07454 14.8859C6.78253 14.6067 5.65315 13.8251 4.93334 12.712C3.43931 10.3977 4.1784 7.41007 6.41944 5.8195C8.92708 4.0301 12.1421 4.73526 13.3141 7.30934C14.4571 9.81714 14.143 12.7146 11.828 14.2018" fill="#CCA727"/>
</g>
<defs>
<clipPath id="clip0_2952_4927">
<rect width="19" height="18" fill="white" transform="translate(0 1)"/>
</clipPath>
</defs>
</svg>
