<svg width="20" height="20" viewBox="0 0 20 20" fill="none" xmlns="http://www.w3.org/2000/svg">
<path d="M10 20C15.5228 20 20 15.5228 20 10C20 4.47715 15.5228 0 10 0C4.47715 0 0 4.47715 0 10C0 15.5228 4.47715 20 10 20Z" fill="white"/>
<path d="M18.0398 9.77598C17.9994 9.69415 17.9459 9.61947 17.8814 9.5549C16.4797 7.96758 13.6271 4.84158 13.6271 4.84158L10.0037 8.80472L6.33388 4.87917C6.33388 4.87917 3.44812 8.03243 2.03398 9.6367C1.84975 9.81798 1.84975 10.1452 2.01482 10.3382C2.74952 11.1754 6.3582 15.1547 6.3582 15.1547L9.99857 11.1651L13.6139 15.1584L17.9742 10.3346C17.9742 10.3346 18.0663 10.2388 18.0862 10.1746C18.129 10.042 18.098 9.89757 18.0398 9.77598V9.77598ZM4.04428 10.2174C3.92638 10.0781 3.96617 9.85925 4.07597 9.72734C4.53728 9.20192 6.38326 7.22182 6.38326 7.22182L8.9551 9.9521L6.37884 12.7701C6.37884 12.7701 4.80183 11.087 4.04428 10.2174V10.2174ZM15.8261 10.3102C15.7718 10.4033 15.7086 10.4909 15.6375 10.5718L13.6404 12.7421L11.0612 10L13.5991 7.21814C13.5991 7.21814 15.0612 8.7325 15.731 9.5468C15.7878 9.61754 15.8548 9.6846 15.8836 9.7745C15.9447 9.95063 15.9057 10.1466 15.8254 10.3095" fill="#302C2C"/>
</svg>
