<svg width="21" height="20" viewBox="0 0 21 20" fill="none" xmlns="http://www.w3.org/2000/svg">
<g clip-path="url(#clip0)">
<path d="M10.5 20C16.0228 20 20.5 15.5228 20.5 10C20.5 4.47715 16.0228 0 10.5 0C4.97715 0 0.5 4.47715 0.5 10C0.5 15.5228 4.97715 20 10.5 20Z" fill="#F0F0F0"/>
<path d="M20.5 10.0001C20.5 5.70045 17.7862 2.03498 13.9782 0.622086V19.3781C17.7862 17.9651 20.5 14.2997 20.5 10.0001Z" fill="#D80027"/>
<path d="M0.5 10C0.5 14.2997 3.21375 17.9651 7.02176 19.3781V0.62207C3.21375 2.03496 0.5 5.70043 0.5 10Z" fill="#D80027"/>
</g>
<defs>
<clipPath id="clip0">
<rect width="20" height="20" fill="white" transform="translate(0.5)"/>
</clipPath>
</defs>
</svg>
