<svg width="20" height="20" viewBox="0 0 20 20" fill="none" xmlns="http://www.w3.org/2000/svg">
<path d="M10 20C15.5228 20 20 15.5228 20 10C20 4.47715 15.5228 0 10 0C4.47715 0 0 4.47715 0 10C0 15.5228 4.47715 20 10 20Z" fill="#3D3D3D"/>
<path d="M2.42501 7.8898L2.99713 8.14873C2.07615 9.5581 2.07615 10.7303 2.99713 12.1117L2.42501 12.3489C1.28077 10.9396 1.19704 9.36274 2.42501 7.8898Z" fill="white"/>
<path d="M17.5751 7.8898L17.0029 8.14873C17.9239 9.5581 17.9239 10.7303 17.0029 12.1117L17.5751 12.3489C18.7193 10.9396 18.803 9.36274 17.5751 7.8898Z" fill="white"/>
<path d="M9.79736 10.8651V11.6559H10.1788C10.1921 11.8482 10.0827 11.9887 9.84388 12.0745L10.002 12.4094C10.4477 12.24 10.6532 11.8954 10.6532 11.6559V10.8651H9.79737H9.79736Z" fill="white"/>
<path d="M8.45119 11.5021L8.45331 8.15578C8.45331 7.70805 8.08902 7.34376 7.64129 7.34376H4.37886C3.97447 7.34376 3.64551 7.67272 3.64551 8.07707V8.45603H4.61516L4.6128 11.8929C4.6128 12.3103 4.95194 12.6522 5.36918 12.6561L8.10419 12.6562C8.56346 12.6562 8.93706 12.2826 8.93706 11.8233V11.5021H8.4512H8.45119Z" fill="black"/>
<path d="M4.3789 7.66498H5.99713V8.13477H3.9668V8.07708C3.9668 7.84963 4.15146 7.66498 4.3789 7.66498Z" fill="#D8B094"/>
<path d="M8.12976 12.335H5.37635C5.13218 12.335 4.93425 12.137 4.93425 11.8929L4.93679 8.20455C4.90253 7.70028 4.54607 7.66499 4.39258 7.66499H4.93679H7.64149C7.91256 7.66499 8.1323 7.88473 8.1323 8.1558L8.12976 12.335Z" fill="#F7D7C4"/>
<path d="M5.36915 12.335H8.10417C8.38675 12.335 8.61582 12.1059 8.61582 11.8233H5.94824C5.93103 12.1839 5.71583 12.3305 5.36914 12.335H5.36915Z" fill="#D8B094"/>
<path d="M6.61595 8.47433H5.28565V8.30688H6.61595V8.47433ZM7.7695 9.15343H5.28565V9.32088H7.7695V9.15343ZM7.46483 9.66508H5.28565V9.83253H7.46483V9.66508ZM7.61367 10.1767H5.28565V10.3442H7.61367V10.1767ZM7.76949 10.639H5.28564V10.8064H7.76949V10.639ZM6.28022 11.1506H5.28564V11.3181H6.28022V11.1506Z" fill="#BB9167"/>
<path d="M15.835 11.5021L15.8371 8.15578C15.8371 7.70805 15.4728 7.34376 15.0251 7.34376H11.7626C11.3583 7.34376 11.0293 7.67272 11.0293 8.07707V8.45603H11.9989L11.9966 11.8929C11.9966 12.3103 12.3357 12.6522 12.753 12.6561L15.488 12.6562C15.9472 12.6562 16.3208 12.2826 16.3208 11.8233V11.5021H15.835H15.835Z" fill="black"/>
<path d="M11.7627 7.66498H13.3809V8.13477H11.3506V8.07708C11.3506 7.84963 11.5352 7.66498 11.7627 7.66498Z" fill="#D8B094"/>
<path d="M15.5135 12.335H12.7601C12.516 12.335 12.318 12.137 12.318 11.8929L12.3206 8.20455C12.2863 7.70028 11.9299 7.66499 11.7764 7.66499H12.3206H15.0253C15.2963 7.66499 15.5161 7.88473 15.5161 8.1558L15.5135 12.335Z" fill="#F7D7C4"/>
<path d="M12.7529 12.335H15.488C15.7705 12.335 15.9996 12.1059 15.9996 11.8233H13.332C13.3148 12.1839 13.0996 12.3305 12.7529 12.335H12.7529Z" fill="#D8B094"/>
<path d="M13.9997 8.47433H12.6694V8.30688H13.9997V8.47433ZM15.1533 9.15343H12.6694V9.32088H15.1533V9.15343ZM14.8486 9.66508H12.6694V9.83253H14.8486V9.66508ZM14.9975 10.1767H12.6694V10.3442H14.9975V10.1767ZM15.1533 10.639H12.6694V10.8064H15.1533V10.639ZM13.664 11.1506H12.6694V11.3181H13.664V11.1506Z" fill="#BB9167"/>
</svg>
