<svg width="20" height="20" viewBox="0 0 20 20" fill="none" xmlns="http://www.w3.org/2000/svg">
<circle cx="10" cy="10" r="10" fill="url(#paint0_linear_6117_50929)"/>
<path d="M16.5156 6.83358C16.505 6.67504 16.4429 6.53497 16.2986 6.46703C16.1149 6.38058 15.9238 6.29522 15.7265 6.25524C15.2078 6.15008 14.6814 6.16044 14.1568 6.2132C13.609 6.26829 13.0766 6.38668 12.5767 6.62747C12.4386 6.694 12.4507 6.68916 12.4777 6.83521C12.5078 6.99809 12.5105 7.16603 12.5255 7.33173C12.5292 7.37286 12.5342 7.41386 12.5387 7.45492C12.576 7.44569 12.6158 7.44178 12.6504 7.42636C12.9184 7.30689 13.1785 7.16536 13.4542 7.06777C14.4212 6.72546 15.4104 6.71663 16.4074 6.91247C16.4874 6.92818 16.5218 6.91885 16.5156 6.83358Z" fill="#F0B929"/>
<path d="M12.456 7.19444C12.4557 7.16872 12.4571 7.14283 12.4548 7.11728C12.427 6.80632 12.3162 6.53924 12.0129 6.40818C11.8693 6.34608 11.7078 6.31359 11.5512 6.29576C11.3752 6.27571 11.1952 6.29361 11.0175 6.28406C10.2796 6.24441 9.57917 6.39916 8.91088 6.69998C8.50699 6.88179 8.11713 7.09021 7.75785 7.35622C7.55023 7.50994 7.31206 7.62204 7.09046 7.75749C7.01198 7.80545 6.93115 7.85745 6.87053 7.92481C6.78727 8.01733 6.81916 8.15631 6.92066 8.18145C6.97683 8.19537 7.0407 8.20076 7.0966 8.18886C7.24819 8.15659 7.38666 8.10337 7.52098 8.01089C7.77162 7.83831 8.04599 7.70027 8.30962 7.54639C8.73413 7.29859 9.19853 7.14566 9.66233 6.99805C9.94816 6.90709 10.2464 6.83702 10.5441 6.80578C10.9795 6.76011 11.4151 6.80952 11.8435 6.90538C12.0501 6.95159 12.2449 7.01919 12.3918 7.18391C12.4034 7.197 12.4353 7.1921 12.4578 7.19555L12.456 7.19444Z" fill="#F0B929"/>
<path fill-rule="evenodd" clip-rule="evenodd" d="M15.839 6.12776L15.8222 6.1649C15.8133 6.1654 15.8043 6.16619 15.7953 6.16698C15.7759 6.16868 15.7566 6.17038 15.7374 6.16918C15.6259 6.16215 15.5143 6.15283 15.4027 6.14352C15.1654 6.1237 14.9282 6.10389 14.6912 6.10613C13.9365 6.11323 13.2019 6.23711 12.5165 6.5743C12.4325 6.6156 12.386 6.60661 12.3202 6.53167C12.1336 6.31914 11.881 6.23634 11.6055 6.21402C11.5133 6.20656 11.3825 6.10077 11.3715 6.01172C11.9432 5.91831 13.219 5.73812 13.748 5.7646C14.277 5.79109 15.2201 5.90363 15.6255 5.95658C15.6671 5.98759 15.7073 6.02068 15.7475 6.05378C15.7778 6.07874 15.8082 6.10369 15.839 6.12776Z" fill="#F0B929"/>
<path fill-rule="evenodd" clip-rule="evenodd" d="M14.6402 5.48846C14.6404 5.49913 14.6406 5.5098 14.6418 5.51993C14.5876 5.51662 14.5334 5.51286 14.4792 5.50909C14.3592 5.50076 14.2392 5.49242 14.119 5.48905C14.0609 5.48742 14.0028 5.48563 13.9447 5.48384C13.3914 5.46681 12.8366 5.44973 12.2926 5.57115C12.0276 5.63029 11.7704 5.72718 11.5145 5.82356C11.471 5.83995 11.4275 5.85632 11.3841 5.87249C11.2847 5.90945 11.2548 5.88512 11.225 5.79771C11.2018 5.72947 11.1741 5.66277 11.1465 5.59605C11.1257 5.54608 11.105 5.49611 11.0861 5.44547C11.0547 5.36118 11.0154 5.28317 10.9696 5.21033C11.2374 4.9137 12.087 4.30789 13.3433 4.25768C13.712 4.38802 14.0518 4.58374 14.3105 4.89253C14.4054 5.0057 14.4761 5.13925 14.5467 5.27254C14.5738 5.3237 14.6008 5.37482 14.6292 5.42473C14.6393 5.44235 14.6397 5.4654 14.6402 5.48846Z" fill="#F0B929"/>
<path fill-rule="evenodd" clip-rule="evenodd" d="M16.7692 8.33869C16.7511 8.35101 16.7353 8.36223 16.7208 8.37251L16.7208 8.37254C16.6927 8.39249 16.6696 8.40889 16.6451 8.42285C16.6153 8.43978 16.5859 8.4576 16.5565 8.47543C16.481 8.5212 16.4053 8.56704 16.3241 8.59802C15.7898 8.80171 15.2254 8.84079 14.6636 8.87968L14.6214 8.8826C13.9103 8.93196 13.2153 8.84106 12.5455 8.58586C12.424 8.5396 12.4164 8.5458 12.431 8.67335C12.4533 8.86794 12.385 9.01855 12.2373 9.14597C12.0234 9.33043 11.7686 9.41427 11.5009 9.47525C11.014 9.58617 10.5204 9.60992 10.023 9.60188C9.24333 9.58926 8.51091 9.40994 7.84158 9.00157C7.81161 8.98328 7.78873 8.95336 7.76586 8.92343C7.75522 8.90952 7.74458 8.8956 7.73322 8.88285C7.74914 8.88801 7.76569 8.89219 7.78224 8.89636C7.81795 8.90538 7.85365 8.91439 7.883 8.93328C8.23482 9.15968 8.6196 9.3146 9.02361 9.40315C9.85001 9.58427 10.6806 9.57356 11.5075 9.39029C11.7952 9.32653 12.07 9.23423 12.2642 8.99439C12.3046 8.94457 12.3298 8.87963 12.3502 8.81777C12.3572 8.79651 12.3516 8.77109 12.346 8.74567C12.3435 8.73417 12.3409 8.72267 12.3396 8.71156C12.3295 8.71604 12.3189 8.71996 12.3084 8.72387C12.2856 8.7323 12.2629 8.74073 12.2445 8.75487C11.9696 8.96697 11.675 9.13996 11.3257 9.19167C11.1696 9.21477 11.0121 9.22874 10.8547 9.24271C10.8042 9.24719 10.7538 9.25167 10.7034 9.25644C10.0184 9.32136 9.36905 9.16449 8.73697 8.92439C8.29245 8.75554 7.88691 8.5113 7.50651 8.22636C7.45105 8.18481 7.40029 8.18073 7.33131 8.19999C7.21076 8.23365 7.08492 8.26433 6.96091 8.26588C6.78287 8.2681 6.69576 8.11181 6.76249 7.94497C6.8112 7.82318 6.91411 7.76532 7.01829 7.70675C7.02765 7.70149 7.03701 7.69622 7.04635 7.6909C7.07535 7.67439 7.10436 7.6579 7.13337 7.6414C7.31748 7.53672 7.50163 7.43202 7.68242 7.32184C7.78786 7.25759 7.89165 7.19046 7.99542 7.12334C8.16015 7.0168 8.32484 6.91028 8.496 6.81533C8.99082 6.54084 9.52256 6.34579 10.0789 6.25872C10.3472 6.21673 10.6218 6.21481 10.8965 6.21288C11.0218 6.21201 11.1472 6.21113 11.272 6.20644C11.2914 6.20571 11.3106 6.20174 11.3299 6.19778C11.3389 6.19593 11.3478 6.19409 11.3568 6.19257C11.3536 6.18315 11.351 6.17338 11.3483 6.16361C11.3426 6.1425 11.3369 6.12139 11.3256 6.1039C11.2624 6.00616 11.1787 5.93587 11.0861 5.87794C10.8788 5.83088 10.3162 5.73677 9.72444 5.73677C9.25043 5.73677 8.52665 5.90719 8.00672 6.02961C7.71531 6.09823 7.48794 6.15176 7.40448 6.15176C7.21858 6.15176 7.12656 6.10847 7.04328 6.06643C7.04908 6.05933 7.05441 6.05127 7.05975 6.04321C7.07134 6.02572 7.08292 6.00823 7.09915 6.00055C7.18095 5.96182 7.26414 5.92606 7.34734 5.89029C7.38038 5.87609 7.41341 5.86189 7.44636 5.8475C8.09498 5.56427 8.76066 5.37857 9.48122 5.42007C10.0245 5.45135 10.5606 5.48825 11.0475 5.7646C11.0596 5.77147 11.0743 5.7738 11.0889 5.77613C11.0958 5.77722 11.1026 5.77831 11.1092 5.77985C11.1098 5.77225 11.1114 5.76413 11.113 5.75601C11.1164 5.73852 11.1199 5.72103 11.1134 5.7087C11.0819 5.64821 11.053 5.58524 11.0241 5.52223L11.024 5.5222C10.9556 5.373 10.887 5.22354 10.7825 5.10615C10.4494 4.73182 10.0658 4.43081 9.60557 4.25876C9.02297 4.29439 7.81179 4.44637 6.93376 5.34482C6.25773 6.03657 6.1551 6.80551 6.07675 7.39254C6.04339 7.64247 6.01443 7.85943 5.94749 8.02343C5.88386 8.17932 5.75766 8.29819 5.60217 8.44464C5.20994 8.81407 4.63136 9.35902 4.40084 11.1167C4.2611 12.1823 5.10971 13.6676 5.58538 14.3273C6.02979 14.5312 6.4941 14.6852 6.96888 14.8115C7.72312 15.012 8.48887 15.1462 9.26691 15.2135C10.1787 15.2924 11.0906 15.3234 12.0024 15.2277C12.7131 15.1531 13.4054 14.9978 14.0658 14.7168C14.4375 14.5586 14.7912 14.3704 15.0909 14.094C15.1025 14.0833 15.1108 14.069 15.119 14.0546C15.1229 14.048 15.1267 14.0413 15.1309 14.035C15.1235 14.0341 15.1159 14.0327 15.1084 14.0312C15.092 14.028 15.0757 14.0248 15.0605 14.0276C15.01 14.0369 14.9598 14.0475 14.9096 14.0581L14.9096 14.0581C14.8432 14.0722 14.7768 14.0862 14.7098 14.0972C14.6817 14.1019 14.6535 14.1065 14.6254 14.1112L14.6238 14.1114C14.1673 14.1871 13.7112 14.2626 13.2444 14.245C12.9577 14.2342 12.67 14.2369 12.383 14.2447C11.9261 14.2572 11.4745 14.2153 11.025 14.1383C10.1765 13.9927 9.33275 13.8236 8.50766 13.5759C7.98345 13.4185 7.4582 13.2567 7.03037 12.8873C6.97406 12.8387 6.91633 12.7917 6.85863 12.7447C6.67715 12.5969 6.49588 12.4493 6.35968 12.2523C6.19218 12.01 6.07891 11.7597 6.18093 11.4584C6.26535 11.2091 6.39219 10.9898 6.68418 10.9709C6.97352 10.9521 7.26779 10.9426 7.55517 10.9732C7.9604 11.0165 8.36479 11.0676 8.76917 11.1188L8.76929 11.1188C9.20401 11.1738 9.63872 11.2288 10.0745 11.274C10.7413 11.3431 11.4113 11.3863 12.0808 11.4257C13.0372 11.4819 13.9864 11.4233 14.9273 11.2281C15.3995 11.1302 15.8578 10.9936 16.3078 10.8236C16.3931 10.7914 16.4287 10.7515 16.3905 10.6575C16.3705 10.608 16.3557 10.5566 16.3409 10.505C16.3279 10.46 16.315 10.4149 16.2985 10.3712C16.2013 10.1132 16.1004 9.85791 15.9077 9.64964C15.8463 9.58339 15.7998 9.57344 15.7174 9.60756C15.1708 9.83392 14.6019 9.88765 14.0187 9.80913C13.9972 9.80624 13.9777 9.78889 13.9582 9.77155C13.9491 9.76347 13.94 9.7554 13.9307 9.74878C13.9412 9.74675 13.9518 9.74376 13.9624 9.74078C13.9852 9.73437 14.008 9.72796 14.0295 9.73095C14.5756 9.80695 15.1067 9.74541 15.6255 9.56372C15.7891 9.50642 15.898 9.38711 15.9829 9.24292C15.9924 9.2269 15.9952 9.20695 15.9979 9.187C15.9992 9.17777 16.0005 9.16855 16.0024 9.15972C15.9937 9.1596 15.9848 9.15909 15.976 9.15857C15.957 9.15747 15.938 9.15636 15.9196 9.15924C15.8298 9.17332 15.7402 9.18942 15.6506 9.20553C15.4651 9.23887 15.2796 9.27221 15.0926 9.28751C14.546 9.33224 13.998 9.34883 13.4584 9.21171C13.4387 9.20671 13.4164 9.21196 13.3941 9.2172C13.3837 9.21964 13.3734 9.22208 13.3633 9.22349C13.3684 9.23174 13.3733 9.24032 13.3781 9.2489C13.3885 9.26744 13.3989 9.28597 13.4129 9.30108C13.473 9.36553 13.5336 9.42947 13.5941 9.49341C13.692 9.59671 13.7899 9.69999 13.8854 9.80543C13.9411 9.8669 13.9873 9.93748 14.033 10.0073C14.0361 10.0122 14.0393 10.0171 14.0425 10.0219C14.05 10.0333 14.048 10.0509 14.046 10.0685C14.0451 10.0765 14.0441 10.0846 14.0441 10.0921C14.0377 10.0891 14.0309 10.0865 14.0241 10.0838C14.0087 10.0779 13.9934 10.0719 13.9818 10.0617C13.9711 10.0523 13.9633 10.0399 13.9554 10.0274C13.9492 10.0175 13.9429 10.0076 13.9352 9.99916C13.8783 9.93635 13.8222 9.87276 13.7661 9.80917L13.766 9.80914L13.766 9.80912C13.6303 9.65541 13.4946 9.50168 13.3482 9.35886C13.1322 9.14807 12.8895 8.96719 12.6164 8.83133C12.6004 8.8234 12.5902 8.8041 12.5799 8.78479C12.5752 8.77582 12.5704 8.76685 12.5651 8.75903C12.5737 8.75923 12.5828 8.7585 12.592 8.75778C12.6118 8.75621 12.6316 8.75464 12.6465 8.76249C12.6603 8.76982 12.6742 8.77711 12.6881 8.78441C12.7765 8.83079 12.8653 8.87741 12.9461 8.93494C13.1004 9.04479 13.2445 9.14445 13.4549 9.14315C13.5728 9.14243 13.6905 9.1649 13.8084 9.18741C13.9037 9.20563 13.9993 9.22387 14.0952 9.2299C14.7084 9.26842 15.3169 9.22198 15.9138 9.07127C16.1483 9.01207 16.3806 8.93821 16.5785 8.78981C16.7208 8.68312 16.7752 8.53681 16.7692 8.33869Z" fill="#F0B929"/>
<path d="M10.8157 5.73677C10.5229 5.59443 10.2062 5.53511 9.88469 5.52332C9.50923 5.50955 9.13167 5.49961 8.75734 5.52387C8.39436 5.5474 8.05324 5.68274 7.71657 5.81632L7.70746 5.81993C7.51382 5.89675 7.32537 5.9866 7.1331 6.06703C7.10769 6.07765 7.07344 6.06715 7.04328 6.06643C7.12656 6.10847 7.21858 6.15176 7.40448 6.15176C7.48794 6.15176 7.71531 6.09823 8.00672 6.02961C8.52665 5.90719 9.25043 5.73677 9.72445 5.73677C10.3162 5.73677 10.8788 5.83089 11.0861 5.87794C11.0004 5.82427 10.9071 5.78121 10.8157 5.73677Z" fill="#F5DA7F"/>
<path d="M15.5428 5.89949C15.2112 5.69173 14.8315 5.63802 14.4547 5.59266C13.8646 5.52163 13.2724 5.53649 12.6807 5.58679C12.2407 5.62419 11.8284 5.75764 11.4286 5.93629C11.4024 5.94802 11.3686 5.98864 11.3715 6.01172C11.9432 5.91831 13.219 5.73812 13.748 5.7646C14.277 5.79109 15.2201 5.90363 15.6255 5.95658C15.5986 5.93649 15.5712 5.91727 15.5428 5.89949Z" fill="#F5DA7F"/>
<path d="M13.147 4.19492C12.2189 3.92711 11.3479 4.07979 10.5452 4.61667C10.4554 4.67669 10.4581 4.69118 10.5558 4.76843C10.7182 4.89675 10.8619 5.03928 10.9696 5.21033C11.2374 4.9137 12.087 4.30789 13.3433 4.25768C13.2786 4.23484 13.2131 4.214 13.147 4.19492Z" fill="#F5DA7F"/>
<path d="M9.15367 4.13741C8.59311 4.04235 8.04708 4.06289 7.52548 4.31412C7.4572 4.347 7.38968 4.38148 7.32216 4.41596C7.2438 4.45598 7.16543 4.496 7.08589 4.53352C6.48004 4.81929 6.02999 5.26738 5.67828 5.83301C5.2859 6.46406 5.05545 7.14105 5.01495 7.88301C5.01404 7.89967 5.00393 7.91583 4.99382 7.93199C4.9891 7.93952 4.98439 7.94705 4.98061 7.95464C4.97749 7.94663 4.9733 7.93851 4.96912 7.93039C4.96009 7.91288 4.95106 7.89536 4.95276 7.87896C4.9647 7.76393 4.97832 7.64908 4.99193 7.53422L4.99193 7.5342L4.99194 7.53413C5.00198 7.44946 5.01201 7.3648 5.02138 7.28005C5.02373 7.25875 5.0209 7.23686 5.01807 7.21498C5.01677 7.20486 5.01546 7.19475 5.01466 7.18468C5.00538 7.18853 4.99583 7.19196 4.98629 7.19539C4.96577 7.20278 4.94524 7.21016 4.92733 7.22162C4.53111 7.47522 4.21851 7.81694 3.95817 8.20033C3.27856 9.20112 2.95071 10.2948 3.13085 11.5135C3.19432 11.943 3.3199 12.3493 3.5589 12.7147C3.94594 13.3063 4.48593 13.7283 5.09111 14.074C5.25269 14.1663 5.41762 14.2504 5.58538 14.3273C5.10971 13.6676 4.2611 12.1823 4.40084 11.1167C4.63136 9.35902 5.20994 8.81407 5.60217 8.44464C5.75766 8.29819 5.88386 8.17932 5.94749 8.02343C6.01443 7.85944 6.04339 7.64248 6.07675 7.39254C6.1551 6.80551 6.25773 6.03657 6.93376 5.34482C7.81179 4.44637 9.02297 4.29439 9.60557 4.25876C9.46258 4.20531 9.31221 4.1643 9.15367 4.13741Z" fill="#F5DA7F"/>
<path d="M10.5084 9.20492C10.7137 9.18513 10.9517 9.16771 11.1882 9.13812C11.5667 9.09075 11.9077 8.95299 12.1997 8.70101C12.3168 8.60002 12.3932 8.47857 12.4379 8.33133C12.5166 8.07194 12.5224 7.80879 12.4773 7.54546C12.4329 7.2863 12.2901 7.10023 12.028 7.02734C11.5091 6.88305 10.9797 6.82333 10.4445 6.88735C9.79314 6.96527 9.18851 7.2075 8.60043 7.48138C8.25369 7.64286 7.93059 7.85512 7.59708 8.04493C7.4913 8.10513 7.48681 8.13057 7.58661 8.19761C7.76282 8.31598 7.94045 8.43286 8.12301 8.54106C8.84767 8.97055 9.63391 9.18254 10.5084 9.20492Z" fill="#D2D2D2"/>
<path d="M14.2613 8.80264C14.4102 8.80264 14.5592 8.80394 14.7081 8.80118C14.7296 8.80078 14.7563 8.78512 14.7696 8.76799C14.7754 8.76059 14.7556 8.72987 14.7432 8.71281C14.7325 8.69812 14.7157 8.68795 14.7019 8.67551C14.3799 8.38658 14.2882 7.89499 14.4942 7.53241C14.7475 7.08677 15.1673 6.95208 15.609 7.07224C16.0286 7.18638 16.2971 7.59714 16.2691 8.03576C16.2585 8.20349 16.21 8.35669 16.1169 8.49674C16.1039 8.51639 16.1022 8.54355 16.0952 8.56724C16.115 8.57172 16.1365 8.58372 16.1542 8.57956C16.5538 8.48592 16.8493 8.26063 16.9192 7.8094C16.9749 7.45037 16.7969 7.04682 16.3436 6.96701C15.8713 6.88386 15.3977 6.83826 14.9204 6.85938C14.0988 6.89573 13.3288 7.12043 12.6121 7.52635C12.5542 7.55911 12.5467 7.59514 12.5525 7.65257C12.5761 7.88778 12.5694 8.12115 12.5012 8.35012C12.4618 8.48203 12.4629 8.48407 12.5958 8.52947C13.1355 8.71388 13.6861 8.83588 14.2613 8.80264Z" fill="#D2D2D2"/>
<path d="M15.0736 7.80718C15.2056 7.80937 15.3004 7.71592 15.2999 7.58415C15.2995 7.47566 15.164 7.35822 15.0371 7.35636C14.9164 7.3546 14.8274 7.43723 14.8259 7.55228C14.824 7.70423 14.9216 7.80465 15.0736 7.80718Z" fill="#D2D2D2"/>
<path d="M16.07 7.91047C16.0719 7.7901 16.0264 7.73568 15.9218 7.73329C15.7742 7.72992 15.6572 7.8138 15.6524 7.92634C15.6472 8.04899 15.7259 8.12093 15.8689 8.12424C15.9911 8.12706 16.0679 8.04545 16.07 7.91047Z" fill="#D2D2D2"/>
<path d="M15.2016 8.6993C15.3196 8.69868 15.3632 8.66223 15.3613 8.56563C15.3588 8.44166 15.2749 8.35123 15.1655 8.35471C15.0788 8.35748 15.0299 8.42339 15.031 8.53634C15.0321 8.65972 15.0743 8.69997 15.2016 8.6993Z" fill="#D2D2D2"/>
<path fill-rule="evenodd" clip-rule="evenodd" d="M12.2895 13.1858C12.7582 13.1811 13.6369 12.9935 13.6892 12.2779C13.6909 12.2557 13.6917 12.2331 13.6917 12.2099C13.6693 12.2125 13.6468 12.215 13.6244 12.2176C13.46 12.2361 13.2954 12.2533 13.1307 12.2692C12.5768 12.3227 12.0209 12.3151 11.466 12.265C11.3071 12.2506 11.1479 12.2383 10.9887 12.226C10.6831 12.2024 10.3775 12.1788 10.0737 12.1406C9.49002 12.0672 8.90751 11.9846 8.32501 11.9021C8.16785 11.8798 8.01069 11.8575 7.85351 11.8355C7.74448 11.8201 7.63543 11.8049 7.52637 11.7898C7.62243 11.8245 7.7266 11.8618 7.83744 11.9011C9.2132 12.3889 11.6147 13.1854 12.2611 13.1859L12.2644 13.1859C12.2728 13.1858 12.2811 13.1858 12.2894 13.1858L12.2895 13.1858ZM12.2889 13.1185C12.524 13.1162 12.8634 13.0662 13.1414 12.9255C13.397 12.7961 13.5936 12.5947 13.6211 12.2856C13.4599 12.3037 13.2986 12.3206 13.1372 12.3362C12.5784 12.3901 12.0182 12.3824 11.46 12.332C11.3029 12.3178 11.1446 12.3055 10.9859 12.2933C10.6791 12.2696 10.3706 12.2457 10.0653 12.2073C9.48109 12.1338 8.89771 12.0512 8.31493 11.9686C8.26865 11.962 8.22238 11.9555 8.1761 11.9489C8.75974 12.1525 9.4663 12.3902 10.1349 12.598C10.602 12.7432 11.0499 12.8737 11.4242 12.9678C11.8009 13.0625 12.0959 13.1185 12.2611 13.1186C12.2611 13.1186 12.2611 13.1186 12.2611 13.1186L12.2619 13.1186L12.2643 13.1186C12.2725 13.1186 12.2807 13.1186 12.2889 13.1185Z" fill="black"/>
<path d="M12.5385 14.1628C13.2438 14.1682 13.8112 14.1549 14.3774 14.0543C14.7863 13.9816 15.1891 13.9147 15.5688 13.7327C15.7605 13.6408 15.9278 13.5348 16.035 13.3517C16.1902 13.0862 16.3395 12.8137 16.2737 12.4899C16.2405 12.3269 16.1768 12.1703 16.1295 12.01C16.1082 11.9378 16.0634 11.9336 16.0001 11.9484L15.9748 11.9544C15.8239 11.9899 15.6727 12.0255 15.5202 12.0527C15.3305 12.0864 15.3297 12.0822 15.3981 12.2543C15.5035 12.5199 15.4551 12.7041 15.2058 12.8415C15.052 12.9262 14.8772 12.9802 14.7058 13.0242C14.3596 13.1132 14.0108 13.1962 13.649 13.1919C13.2614 13.1873 12.8735 13.1724 12.4863 13.1827C11.8719 13.199 11.2631 13.152 10.662 13.0335C10.0484 12.9126 9.43608 12.781 8.82945 12.6291C8.24349 12.4824 7.66657 12.3016 7.15743 11.9574C7.11105 11.9261 7.05732 11.8936 7.08974 11.8382C7.1127 11.799 7.17248 11.7595 7.21658 11.7586C7.31992 11.7566 7.42403 11.7755 7.52728 11.7898C8.37632 11.9073 9.22423 12.0336 10.0746 12.1406C10.5366 12.1987 11.0028 12.223 11.4669 12.265C12.0218 12.3151 12.5777 12.3227 13.1316 12.2692C13.6617 12.218 14.1912 12.1534 14.7177 12.0736C15.1594 12.0067 15.599 11.9212 16.0345 11.8217C16.3215 11.7562 16.5516 11.5789 16.7322 11.3469C16.8255 11.227 16.8193 11.0794 16.7352 10.9744C16.6682 10.8908 16.5086 10.8567 16.387 10.9005C15.8961 11.077 15.4031 11.2507 14.8882 11.3411C14.4925 11.4106 14.093 11.4697 13.6926 11.4991C13.2285 11.5331 12.7602 11.5577 12.2961 11.536C11.507 11.499 10.7187 11.4337 9.93212 11.359C9.32374 11.3013 8.71825 11.2125 8.11184 11.1347C7.70868 11.083 7.30592 11.0269 6.89794 11.0468C6.74903 11.054 6.58956 11.0562 6.47468 11.1625C6.22758 11.3913 6.16254 11.7677 6.36572 12.0772C6.49545 12.2748 6.64172 12.4564 6.83289 12.5977C7.06604 12.77 7.28369 12.9745 7.53946 13.1021C7.8672 13.2657 8.22072 13.3852 8.57319 13.4898C9.01549 13.6211 9.46646 13.7247 9.91656 13.8277C10.2651 13.9075 10.6168 13.9751 10.9692 14.0354C11.5327 14.1318 12.1011 14.1761 12.5385 14.1628Z" fill="#ED5558"/>
<path d="M14.6966 11.9407C14.1726 12.0201 13.6456 12.0844 13.1177 12.1354C12.5736 12.188 12.0262 12.1806 11.478 12.1311C11.3153 12.1164 11.1543 12.104 10.9943 12.0916C10.6909 12.0682 10.3912 12.0451 10.0904 12.0072C9.50776 11.9339 8.92702 11.8516 8.34505 11.7692C8.07863 11.7314 7.81194 11.6936 7.54471 11.6566C7.52867 11.6544 7.51193 11.6519 7.49463 11.6494C7.40932 11.6369 7.31029 11.6223 7.21292 11.6243C7.15681 11.6254 7.10647 11.6487 7.07191 11.6707C7.03637 11.6934 6.99789 11.7272 6.97263 11.7704L7.08873 11.8383C7.11169 11.799 7.17147 11.7596 7.21557 11.7587C7.30069 11.757 7.38632 11.7695 7.47156 11.782C7.48982 11.7847 7.50806 11.7873 7.52627 11.7898C7.79256 11.8267 8.05874 11.8644 8.32492 11.9021C8.90742 11.9847 9.48992 12.0672 10.0736 12.1407C10.3774 12.1789 10.683 12.2025 10.9886 12.2261C11.1478 12.2384 11.307 12.2507 11.4659 12.265C12.0208 12.3152 12.5767 12.3228 13.1306 12.2693C13.6607 12.218 14.1902 12.1534 14.7167 12.0737C14.8573 12.0524 14.9977 12.0292 15.1378 12.0043L14.8352 11.9191C14.789 11.9265 14.7428 11.9337 14.6966 11.9407Z" fill="black"/>
<path d="M7.0811 12.0689L7.15642 11.9575C7.15431 11.9561 7.15219 11.9547 7.15007 11.9532C7.10534 11.9232 7.05778 11.8912 7.08873 11.8383L6.97263 11.7704C6.95304 11.8039 6.94056 11.8448 6.94537 11.8901C6.95006 11.9342 6.96963 11.968 6.98804 11.991C7.01609 12.026 7.05719 12.0531 7.07573 12.0654C7.07783 12.0667 7.07963 12.0679 7.0811 12.0689Z" fill="black"/>
<path d="M15.5214 12.2032L15.5162 12.1899L15.3627 12.0997C15.3619 12.1008 15.3612 12.1019 15.3605 12.1031C15.3468 12.1278 15.3632 12.1692 15.3961 12.252L15.3971 12.2543C15.5025 12.5199 15.4541 12.7042 15.2048 12.8416C15.051 12.9263 14.8762 12.9803 14.7048 13.0243C14.3585 13.1132 14.0098 13.1962 13.648 13.1919C13.5358 13.1906 13.4235 13.1884 13.3113 13.1862C13.0358 13.1809 12.7604 13.1755 12.4853 13.1828C11.8709 13.1991 11.2621 13.1521 10.661 13.0336C10.0474 12.9127 9.43507 12.7811 8.82844 12.6292C8.24248 12.4825 7.66556 12.3017 7.15642 11.9575L7.0811 12.0689C7.6105 12.4268 8.20641 12.6121 8.79577 12.7597C9.40527 12.9123 10.0199 13.0443 10.635 13.1656C11.2464 13.2861 11.8652 13.3338 12.4888 13.3172C12.7607 13.31 13.0313 13.3153 13.3054 13.3206C13.4183 13.3228 13.5319 13.3251 13.6464 13.3264C14.0281 13.3309 14.3926 13.2434 14.7382 13.1546C14.9125 13.1098 15.1006 13.0525 15.2697 12.9594C15.4128 12.8805 15.5185 12.7767 15.5624 12.6361C15.6054 12.4982 15.5804 12.3516 15.522 12.2047L15.5214 12.2032Z" fill="black"/>
<path d="M14.8352 11.9191L15.1378 12.0043H15.5162L16.0344 11.8565L16.225 11.7557L14.8352 11.9191Z" fill="black"/>
<path fill-rule="evenodd" clip-rule="evenodd" d="M4.59387 7.37346C3.79354 8.12222 3.28525 9.03556 3.07399 10.111C3.04859 10.2403 3.03457 10.3719 3.02055 10.5034C3.01407 10.5642 3.0076 10.6249 3 10.6855V10.9763C3.0028 11.0007 3.00581 11.0251 3.00882 11.0494C3.01536 11.1023 3.02189 11.1552 3.02623 11.2083C3.05612 11.5736 3.11512 11.9327 3.25136 12.2755C3.5193 12.9497 4.01089 13.4351 4.58898 13.8433C5.35241 14.3823 6.21075 14.7121 7.11079 14.9302C8.03848 15.1551 8.98108 15.295 9.93634 15.3421C10.7346 15.3814 11.5312 15.3872 12.3243 15.268C12.9979 15.1668 13.6535 15.0013 14.2731 14.7122C14.6569 14.533 15.0199 14.3238 15.297 13.9898C15.3323 13.9472 15.387 13.9204 15.4413 13.8938C15.4623 13.8835 15.4832 13.8732 15.5029 13.8621C15.5511 13.8349 15.602 13.8107 15.6529 13.7866C15.7589 13.7362 15.8647 13.686 15.945 13.6089C16.3181 13.251 16.5355 12.5793 16.214 11.9961C16.1732 11.922 16.1904 11.8941 16.2581 11.8487C16.4242 11.7373 16.5852 11.6169 16.7381 11.488C16.7944 11.4404 16.8351 11.3636 16.8605 11.2921C16.9371 11.0765 16.8431 10.8417 16.654 10.81C16.5279 10.7889 16.4856 10.7264 16.4626 10.6207C16.4561 10.5907 16.4458 10.5614 16.4355 10.5322L16.4355 10.5322C16.4309 10.5192 16.4263 10.5062 16.4221 10.4931C16.325 10.1946 16.2147 9.90218 16.0124 9.65536C15.9114 9.53215 15.9141 9.52658 15.9692 9.4133C15.9761 9.3993 15.9837 9.38367 15.992 9.36596C16.0892 9.15914 16.239 9.04037 16.4473 8.96187C16.7378 8.85238 16.8504 8.61838 16.8543 8.31808C16.8552 8.24647 16.8751 8.17194 16.9011 8.10445C16.9646 7.93944 17.0174 7.7731 16.9946 7.59414C16.9638 7.35372 16.8547 7.15613 16.656 7.01254C16.595 6.96847 16.5523 6.92103 16.5703 6.83605C16.6077 6.66021 16.5296 6.52782 16.3894 6.43539C16.3305 6.39662 16.2669 6.36523 16.2033 6.33381C16.1533 6.30914 16.1032 6.28444 16.0554 6.25614C15.9963 6.22115 15.9347 6.178 15.8962 6.12308C15.7926 5.97492 15.6637 5.85582 15.4982 5.79108C15.3019 5.71431 15.0986 5.65389 14.8953 5.5972C14.8047 5.57192 14.7469 5.53518 14.714 5.44144C14.575 5.04478 14.3237 4.73491 13.9737 4.50178C12.9388 3.81243 11.5126 3.83438 10.5016 4.56131C10.4194 4.6204 10.3615 4.61712 10.2853 4.55532L10.2783 4.54961C10.1825 4.47191 10.0841 4.39208 9.97444 4.33866C9.31203 4.01596 8.62006 3.92237 7.89941 4.09987C7.62139 4.16834 7.369 4.29753 7.11611 4.42698C7.0835 4.44367 7.05089 4.46037 7.01821 4.47694C6.65088 4.66318 6.32419 4.90011 6.0536 5.20929C5.61806 5.70694 5.31384 6.28037 5.1095 6.90656C5.06745 7.0354 4.9838 7.11019 4.87748 7.17687C4.86045 7.18755 4.84324 7.19813 4.82601 7.20872L4.82598 7.20874L4.82595 7.20876C4.74458 7.25879 4.66247 7.30927 4.59387 7.37346ZM12.4549 7.11737C12.4271 6.80641 12.3163 6.53933 12.013 6.40827C11.8694 6.34617 11.7079 6.31368 11.5513 6.29585C11.4492 6.28422 11.3457 6.28536 11.2421 6.28651C11.1672 6.28733 11.0922 6.28816 11.0176 6.28415C10.2797 6.2445 9.57927 6.39925 8.91098 6.70007C8.50709 6.88188 8.11723 7.0903 7.75795 7.35631C7.62447 7.45514 7.47837 7.53676 7.33216 7.61844C7.25094 7.66382 7.16969 7.70921 7.09056 7.75758C7.01208 7.80554 6.93125 7.85754 6.87063 7.9249C6.78737 8.01742 6.81926 8.1564 6.92076 8.18155C6.97693 8.19546 7.0408 8.20085 7.0967 8.18895C7.24829 8.15668 7.38676 8.10347 7.52108 8.01098C7.69309 7.89254 7.87627 7.79038 8.05949 7.68819C8.14325 7.64147 8.22701 7.59476 8.30972 7.54648C8.73423 7.29868 9.19863 7.14575 9.66243 6.99814C9.94826 6.90718 10.2465 6.83711 10.5442 6.80588C10.9796 6.7602 11.4152 6.80962 11.8436 6.90547C12.0502 6.95168 12.245 7.01928 12.3919 7.184C12.3998 7.19294 12.4172 7.19349 12.4346 7.19404C12.4427 7.19429 12.4508 7.19455 12.4579 7.19565L12.4561 7.19454C12.456 7.18638 12.4561 7.1782 12.4562 7.17003C12.4563 7.15242 12.4565 7.13482 12.4549 7.11737ZM14.3106 4.89262C14.0065 4.52971 13.5906 4.32299 13.1471 4.19501C12.219 3.9272 11.348 4.07988 10.5453 4.61676C10.4555 4.67678 10.4582 4.69127 10.5559 4.76852C10.7874 4.95149 10.9811 5.16334 11.0862 5.44556C11.1051 5.4962 11.1258 5.54617 11.1466 5.59614C11.1742 5.66286 11.2019 5.72956 11.2251 5.7978C11.2549 5.88521 11.2848 5.90954 11.3842 5.87258C11.4276 5.85641 11.4711 5.84004 11.5146 5.82366C11.7705 5.72727 12.0277 5.63038 12.2927 5.57124C12.8367 5.44982 13.3915 5.4669 13.9448 5.48393C14.0029 5.48572 14.061 5.48751 14.1191 5.48914C14.2393 5.49251 14.3593 5.50085 14.4793 5.50918C14.5335 5.51295 14.5877 5.51671 14.6419 5.52002C14.6407 5.50989 14.6405 5.49922 14.6403 5.48855C14.6398 5.46549 14.6394 5.44244 14.6293 5.42482C14.6009 5.37491 14.5739 5.32379 14.5468 5.27264C14.4762 5.13934 14.4055 5.00579 14.3106 4.89262ZM14.6215 8.88269C13.9104 8.93205 13.2154 8.84115 12.5456 8.58595C12.4241 8.53969 12.4165 8.54589 12.4311 8.67344C12.4534 8.86803 12.3851 9.01865 12.2374 9.14606C12.0235 9.33052 11.7687 9.41437 11.501 9.47534C11.0141 9.58626 10.5205 9.61001 10.0231 9.60197C9.24343 9.58936 8.51101 9.41004 7.84168 9.00166C7.81171 8.98337 7.78883 8.95345 7.76596 8.92353C7.75532 8.90961 7.74468 8.89569 7.73332 8.88294C7.74924 8.8881 7.76579 8.89228 7.78234 8.89645C7.81805 8.90547 7.85375 8.91448 7.8831 8.93337C8.23492 9.15978 8.6197 9.31469 9.02371 9.40324C9.85011 9.58436 10.6807 9.57365 11.5076 9.39038C11.7953 9.32662 12.0701 9.23432 12.2643 8.99448C12.3047 8.94466 12.3299 8.87972 12.3503 8.81786C12.3573 8.7966 12.3517 8.77118 12.3461 8.74576C12.3436 8.73426 12.341 8.72276 12.3397 8.71165C12.3296 8.71613 12.319 8.72005 12.3085 8.72396C12.2857 8.73239 12.263 8.74082 12.2446 8.75496C11.9697 8.96706 11.6751 9.14005 11.3258 9.19176C11.1697 9.21486 11.0122 9.22883 10.8548 9.2428L10.8547 9.24281L10.8546 9.24282C10.8042 9.24729 10.7538 9.25176 10.7035 9.25654C10.0185 9.32145 9.36915 9.16458 8.73707 8.92448C8.29255 8.75563 7.88701 8.51139 7.50661 8.22645C7.45115 8.18491 7.40039 8.18082 7.33141 8.20008C7.21086 8.23374 7.08502 8.26442 6.96101 8.26597C6.78297 8.26819 6.69586 8.1119 6.76259 7.94507C6.8113 7.82327 6.91421 7.76541 7.01839 7.70684C7.02775 7.70158 7.03711 7.69631 7.04645 7.691C7.07544 7.67448 7.10445 7.65799 7.13346 7.6415L7.1335 7.64148C7.3176 7.5368 7.50174 7.43211 7.68252 7.32194C7.78796 7.25768 7.89175 7.19055 7.99552 7.12343C8.16025 7.01689 8.32494 6.91037 8.4961 6.81542C8.99092 6.54093 9.52266 6.34588 10.079 6.25881C10.3473 6.21682 10.6219 6.2149 10.8966 6.21298C11.0219 6.2121 11.1473 6.21122 11.2721 6.20653C11.2915 6.2058 11.3107 6.20183 11.33 6.19787C11.339 6.19602 11.3479 6.19418 11.3569 6.19266C11.3537 6.18324 11.3511 6.17347 11.3484 6.1637C11.3427 6.14259 11.337 6.12148 11.3257 6.10399C11.212 5.92814 11.0317 5.84113 10.8536 5.75513C10.841 5.74904 10.8284 5.74297 10.8158 5.73687C10.523 5.59452 10.2063 5.5352 9.88479 5.52341C9.50933 5.50964 9.13177 5.4997 8.75744 5.52397C8.39445 5.54749 8.05334 5.68283 7.71666 5.81641L7.70756 5.82002C7.59535 5.86454 7.48489 5.91343 7.37442 5.96232C7.29424 5.99781 7.21406 6.0333 7.1332 6.06712C7.11583 6.07438 7.09434 6.07177 7.07284 6.06916C7.06288 6.06796 7.05293 6.06675 7.04338 6.06652C7.04918 6.05942 7.05451 6.05136 7.05985 6.0433C7.07144 6.02581 7.08302 6.00832 7.09925 6.00064C7.18105 5.96191 7.26424 5.92615 7.34744 5.89038C7.38048 5.87618 7.41351 5.86198 7.44646 5.84759C8.09508 5.56436 8.76076 5.37866 9.48132 5.42016C10.0246 5.45144 10.5607 5.48834 11.0476 5.76469C11.0597 5.77156 11.0744 5.77389 11.089 5.77622C11.0959 5.77731 11.1027 5.7784 11.1093 5.77994C11.1099 5.77234 11.1115 5.76422 11.1131 5.7561C11.1165 5.73861 11.12 5.72113 11.1135 5.70879C11.082 5.64831 11.0531 5.58534 11.0242 5.52232L11.0241 5.52229C10.9557 5.37309 10.8871 5.22363 10.7826 5.10625C10.346 4.61561 9.82261 4.25093 9.15377 4.1375C8.59321 4.04244 8.04718 4.06298 7.52558 4.31421C7.4573 4.34709 7.38978 4.38157 7.32226 4.41605C7.2439 4.45607 7.16553 4.49609 7.08599 4.53361C6.48014 4.81939 6.03009 5.26747 5.67838 5.8331C5.286 6.46415 5.05555 7.14114 5.01505 7.8831C5.01414 7.89976 5.00403 7.91592 4.99392 7.93208C4.9892 7.93961 4.98449 7.94715 4.98071 7.95473C4.97759 7.94672 4.9734 7.9386 4.96922 7.93048C4.96019 7.91297 4.95116 7.89545 4.95286 7.87905C4.9648 7.76401 4.97842 7.64915 4.99203 7.53428L4.99204 7.53421C5.00208 7.44955 5.01211 7.36488 5.02148 7.28015C5.02383 7.25884 5.021 7.23696 5.01817 7.21507C5.01687 7.20496 5.01556 7.19484 5.01476 7.18478C5.00548 7.18862 4.99593 7.19205 4.98639 7.19549C4.96587 7.20287 4.94534 7.21025 4.92743 7.22171C4.53121 7.47531 4.21861 7.81703 3.95827 8.20042C3.27866 9.20121 2.95081 10.2949 3.13095 11.5136C3.19442 11.943 3.32 12.3494 3.55899 12.7147C3.94604 13.3064 4.48603 13.7284 5.09121 14.0741C5.68081 14.4109 6.31498 14.6377 6.96898 14.8116C7.72322 15.0121 8.48897 15.1463 9.26701 15.2136C10.1788 15.2925 11.0907 15.3235 12.0025 15.2278C12.7132 15.1532 13.4055 14.9979 14.0659 14.7169C14.4376 14.5587 14.7913 14.3705 15.091 14.0941C15.1026 14.0834 15.1109 14.069 15.1191 14.0547C15.123 14.0481 15.1268 14.0414 15.131 14.0351C15.1236 14.0342 15.116 14.0327 15.1085 14.0313C15.0921 14.0281 15.0758 14.0249 15.0606 14.0277C15.0101 14.037 14.9599 14.0476 14.9097 14.0582L14.9097 14.0582L14.9097 14.0582C14.8433 14.0722 14.7769 14.0863 14.7099 14.0973C14.6943 14.0999 14.6787 14.1025 14.663 14.1051L14.6255 14.1113L14.6239 14.1115C14.1674 14.1872 13.7113 14.2627 13.2445 14.2451C12.9578 14.2343 12.6701 14.237 12.3831 14.2448C11.9262 14.2573 11.4746 14.2154 11.0251 14.1383C10.1766 13.9928 9.33285 13.8237 8.50776 13.576C7.98355 13.4186 7.4583 13.2568 7.03047 12.8874C6.97416 12.8388 6.91643 12.7918 6.85873 12.7448C6.67725 12.597 6.49598 12.4494 6.35978 12.2524C6.19228 12.0101 6.07901 11.7598 6.18103 11.4585C6.26545 11.2092 6.39229 10.9899 6.68428 10.9709C6.97362 10.9522 7.26789 10.9427 7.55527 10.9733C7.9605 11.0166 8.36489 11.0677 8.76928 11.1189L8.76939 11.1189C9.20411 11.1739 9.63882 11.2289 10.0746 11.2741C10.7414 11.3432 11.4114 11.3864 12.0809 11.4257C13.0373 11.482 13.9865 11.4234 14.9274 11.2282C15.3996 11.1302 15.8579 10.9937 16.3079 10.8237C16.3932 10.7915 16.4288 10.7516 16.3906 10.6575C16.3706 10.6081 16.3558 10.5566 16.341 10.5051C16.328 10.4601 16.3151 10.415 16.2986 10.3713C16.2014 10.1133 16.1005 9.858 15.9078 9.64973C15.8464 9.58348 15.7999 9.57353 15.7175 9.60765C15.1709 9.83401 14.602 9.88774 14.0188 9.80922C13.9973 9.80633 13.9778 9.78899 13.9583 9.77164C13.9492 9.76356 13.9401 9.75549 13.9308 9.74887C13.9413 9.74684 13.9519 9.74385 13.9625 9.74087C13.9853 9.73446 14.0081 9.72805 14.0296 9.73104C14.5757 9.80704 15.1068 9.7455 15.6256 9.56381C15.7892 9.50651 15.8981 9.3872 15.983 9.24301C15.9925 9.22699 15.9953 9.20704 15.998 9.18709C15.9993 9.17787 16.0006 9.16864 16.0025 9.15981C15.9938 9.15969 15.9849 9.15918 15.9761 9.15866C15.9571 9.15756 15.9381 9.15645 15.9197 9.15933C15.8299 9.17341 15.7403 9.18952 15.6507 9.20562C15.4652 9.23896 15.2797 9.2723 15.0927 9.2876C14.5461 9.33233 13.9981 9.34892 13.4585 9.2118C13.4388 9.2068 13.4165 9.21205 13.3942 9.21729C13.3838 9.21973 13.3735 9.22218 13.3634 9.22358C13.3685 9.23183 13.3734 9.24041 13.3782 9.249C13.3886 9.26753 13.399 9.28607 13.413 9.30117C13.4731 9.36563 13.5337 9.42957 13.5942 9.49351C13.6921 9.5968 13.79 9.70009 13.8855 9.80552C13.9412 9.86699 13.9874 9.93757 14.0331 10.0074C14.0362 10.0123 14.0394 10.0172 14.0426 10.022C14.0501 10.0334 14.0481 10.051 14.0461 10.0685C14.0452 10.0766 14.0442 10.0847 14.0442 10.0922C14.0378 10.0892 14.031 10.0866 14.0242 10.0839C14.0088 10.078 13.9935 10.072 13.9819 10.0618C13.9712 10.0524 13.9634 10.04 13.9555 10.0275C13.9493 10.0176 13.943 10.0077 13.9353 9.99925C13.8784 9.93643 13.8223 9.87283 13.7661 9.80924C13.6304 9.65551 13.4947 9.50178 13.3483 9.35896C13.1323 9.14816 12.8896 8.96728 12.6165 8.83142C12.6005 8.82349 12.5903 8.80419 12.58 8.78488C12.5753 8.77591 12.5705 8.76695 12.5652 8.75912C12.5738 8.75932 12.5829 8.75859 12.5921 8.75787C12.6119 8.7563 12.6317 8.75473 12.6466 8.76258C12.6604 8.76991 12.6743 8.7772 12.6882 8.7845C12.7766 8.83088 12.8654 8.8775 12.9462 8.93503C13.1005 9.04488 13.2446 9.14454 13.455 9.14325C13.5729 9.14252 13.6906 9.16499 13.8085 9.1875C13.9038 9.20572 13.9994 9.22396 14.0953 9.22999C14.7085 9.26852 15.317 9.22207 15.9139 9.07136C16.1484 9.01216 16.3807 8.9383 16.5786 8.7899C16.7209 8.68321 16.7753 8.5369 16.7693 8.33878C16.7512 8.3511 16.7354 8.36232 16.7209 8.3726L16.7209 8.37263C16.6928 8.39259 16.6697 8.40898 16.6452 8.42294C16.6155 8.43986 16.5861 8.45767 16.5566 8.4755L16.5566 8.47552C16.4811 8.52129 16.4054 8.56713 16.3242 8.59811C15.7899 8.8018 15.2255 8.84088 14.6637 8.87977L14.6215 8.88269ZM12.5375 14.1628C13.2428 14.1683 13.8102 14.1549 14.3764 14.0543C14.392 14.0515 14.4075 14.0488 14.4231 14.046C14.8159 13.9764 15.2025 13.9078 15.5678 13.7327C15.7595 13.6409 15.9268 13.5349 16.034 13.3517C16.1892 13.0863 16.3385 12.8137 16.2726 12.49C16.2511 12.3842 16.2167 12.281 16.1823 12.1778L16.1823 12.1778C16.1637 12.122 16.1451 12.0663 16.1285 12.0101C16.1072 11.9379 16.0624 11.9336 15.9991 11.9485L15.9737 11.9545C15.8228 11.99 15.6717 12.0256 15.5192 12.0527L15.5064 12.055C15.4183 12.0706 15.3742 12.0784 15.3605 12.1031C15.3227 12.0641 15.2148 11.9915 15.0859 12.0134C15.4034 11.958 15.7195 11.8935 16.0335 11.8218C16.3205 11.7562 16.5506 11.579 16.7312 11.347C16.8245 11.2271 16.8182 11.0795 16.7342 10.9745C16.6672 10.8908 16.5076 10.8568 16.386 10.9005C15.8951 11.077 15.4021 11.2507 14.8872 11.3411C14.4914 11.4106 14.0919 11.4698 13.6916 11.4991C13.2274 11.5332 12.7592 11.5578 12.2951 11.536C11.506 11.499 10.7177 11.4337 9.93109 11.3591C9.4813 11.3164 9.03308 11.2567 8.58491 11.1971L8.58451 11.197C8.42663 11.176 8.26875 11.155 8.11081 11.1348C8.08912 11.132 8.06742 11.1292 8.04573 11.1264C7.66429 11.0772 7.28293 11.0281 6.89691 11.0468C6.88944 11.0472 6.88194 11.0476 6.87443 11.0479C6.73211 11.0546 6.58277 11.0615 6.47365 11.1626C6.22655 11.3913 6.16151 11.7678 6.36469 12.0773C6.49442 12.2748 6.6407 12.4565 6.83186 12.5978C6.9003 12.6483 6.96741 12.7017 7.03453 12.755C7.19607 12.8835 7.35774 13.012 7.53843 13.1022C7.86617 13.2657 8.21969 13.3852 8.57216 13.4898C9.01446 13.6211 9.46543 13.7248 9.91554 13.8278C10.264 13.9076 10.6157 13.9752 10.9682 14.0355C11.5316 14.1319 12.1 14.1761 12.5375 14.1628ZM11.1877 9.13812C11.5662 9.09076 11.9072 8.953 12.1992 8.70102C12.3163 8.60003 12.3927 8.47858 12.4374 8.33134C12.5161 8.07195 12.522 7.8088 12.4768 7.54547C12.4324 7.28631 12.2896 7.10024 12.0275 7.02735C11.5086 6.88305 10.9793 6.82334 10.444 6.88736C9.79266 6.96527 9.18804 7.20751 8.59996 7.48139C8.35946 7.59339 8.13033 7.72982 7.90121 7.86624C7.8 7.92651 7.69879 7.98678 7.5966 8.04493C7.49082 8.10513 7.48633 8.13058 7.58613 8.19762C7.76234 8.31599 7.93997 8.43287 8.12253 8.54107C8.84719 8.97056 9.63343 9.18255 10.5079 9.20493C10.5695 9.19899 10.634 9.19327 10.7006 9.18736C10.8559 9.17359 11.0222 9.15884 11.1877 9.13812ZM14.7076 8.80119C14.7292 8.80079 14.7558 8.78512 14.7691 8.768C14.7749 8.76059 14.7551 8.72988 14.7427 8.71281C14.7356 8.70297 14.7257 8.69515 14.7157 8.68732C14.7108 8.68347 14.706 8.67962 14.7014 8.67552C14.3795 8.38659 14.2877 7.895 14.4938 7.53242C14.747 7.08678 15.1668 6.95208 15.6085 7.07225C16.0281 7.18639 16.2966 7.59715 16.2687 8.03577C16.258 8.2035 16.2095 8.3567 16.1165 8.49675C16.1075 8.51018 16.1039 8.52712 16.1003 8.54407C16.0986 8.55191 16.0969 8.55975 16.0947 8.56725C16.101 8.56867 16.1075 8.57085 16.1139 8.57303C16.1278 8.57772 16.1417 8.5824 16.1538 8.57957C16.5534 8.48593 16.8488 8.26064 16.9188 7.80941C16.9744 7.45038 16.7965 7.04682 16.3431 6.96702C15.8708 6.88387 15.3973 6.83827 14.9199 6.85939C14.0983 6.89574 13.3283 7.12044 12.6116 7.52636C12.5537 7.55912 12.5462 7.59515 12.552 7.65257C12.5756 7.88779 12.569 8.12116 12.5007 8.35013C12.4613 8.48204 12.4624 8.48407 12.5953 8.52948C13.135 8.71389 13.6856 8.83589 14.2608 8.80264C14.297 8.80264 14.3332 8.80272 14.3694 8.8028C14.4822 8.80304 14.5949 8.80328 14.7076 8.80119ZM15.8223 6.16499L15.8391 6.12785C15.8083 6.10379 15.7779 6.07883 15.7476 6.05387C15.6813 5.99932 15.615 5.94478 15.5429 5.89958C15.2113 5.69182 14.8316 5.63811 14.4548 5.59275C13.8647 5.52172 13.2725 5.53658 12.6808 5.58688C12.2408 5.62428 11.8285 5.75773 11.4287 5.93638C11.4025 5.94811 11.3687 5.98873 11.3716 6.01181C11.3826 6.10086 11.5134 6.20665 11.6056 6.21411C11.8811 6.23643 12.1337 6.31923 12.3203 6.53176C12.3861 6.6067 12.4326 6.61569 12.5166 6.5744C13.202 6.2372 13.9366 6.11332 14.6913 6.10622C14.9283 6.10399 15.1655 6.1238 15.4028 6.14361C15.5144 6.15292 15.626 6.16224 15.7375 6.16927C15.7567 6.17047 15.776 6.16877 15.7954 6.16707C15.8044 6.16628 15.8134 6.16549 15.8223 6.16499ZM16.5157 6.83368C16.5051 6.67513 16.443 6.53506 16.2987 6.46712C16.115 6.38067 15.9239 6.29531 15.7266 6.25533C15.2079 6.15017 14.6815 6.16053 14.1569 6.21329C13.6091 6.26839 13.0767 6.38677 12.5768 6.62756C12.4496 6.68881 12.4498 6.68957 12.4717 6.80325C12.4736 6.81305 12.4756 6.8237 12.4778 6.8353C12.4986 6.94779 12.5063 7.0627 12.514 7.17761C12.5175 7.22909 12.5209 7.28056 12.5256 7.33183C12.5281 7.36001 12.5313 7.38813 12.5345 7.41625C12.5359 7.42917 12.5374 7.44209 12.5388 7.45502C12.5506 7.45209 12.5627 7.4497 12.5747 7.44731C12.6008 7.44215 12.6268 7.43699 12.6505 7.42645C12.7402 7.38644 12.8291 7.34395 12.918 7.30147C13.0945 7.21711 13.2709 7.13277 13.4543 7.06786C14.4213 6.72555 15.4105 6.71672 16.4075 6.91256C16.4875 6.92828 16.5219 6.91895 16.5157 6.83368ZM15.0731 7.80718C15.2051 7.80938 15.2999 7.71593 15.2994 7.58416C15.299 7.47566 15.1635 7.35823 15.0366 7.35637C14.9159 7.35461 14.8269 7.43724 14.8254 7.55229C14.8235 7.70424 14.9211 7.80466 15.0731 7.80718ZM16.0695 7.91048C16.0714 7.79011 16.0259 7.73569 15.9213 7.7333C15.7738 7.72993 15.6567 7.81381 15.6519 7.92635C15.6467 8.049 15.7254 8.12094 15.8685 8.12425C15.9906 8.12707 16.0674 8.04546 16.0695 7.91048ZM15.2011 8.69931C15.3191 8.69869 15.3627 8.66224 15.3608 8.56564C15.3584 8.44167 15.2744 8.35124 15.1651 8.35472C15.0783 8.35748 15.0295 8.4234 15.0305 8.53635C15.0316 8.65973 15.0738 8.69998 15.2011 8.69931Z" fill="black"/>
<path d="M8.82968 12.6292C9.43631 12.7811 10.0486 12.9126 10.6623 13.0336C11.1901 13.1376 11.7239 13.1865 12.2622 13.1859C11.5637 13.1853 8.81604 12.2554 7.52751 11.7898C7.42426 11.7755 7.32016 11.7567 7.21682 11.7587C7.17271 11.7596 7.11293 11.799 7.08997 11.8383C7.05756 11.8937 7.11128 11.9261 7.15766 11.9575C7.6668 12.3016 8.24372 12.4824 8.82968 12.6292Z" fill="#821B1E"/>
<path d="M15.206 12.8415C15.4554 12.7042 15.5038 12.5199 15.3983 12.2543L15.3974 12.252C15.3645 12.1692 15.348 12.1277 15.3617 12.1031C15.3239 12.0641 15.2161 11.9915 15.0872 12.0134C14.9643 12.0349 14.8412 12.055 14.718 12.0737C14.3773 12.1253 14.0354 12.1705 13.6928 12.2099C13.6928 12.9817 12.7739 13.181 12.2906 13.1858C12.3559 13.1855 12.4212 13.1845 12.4865 13.1828C12.7616 13.1755 13.0371 13.1808 13.3125 13.1862H13.3125L13.3336 13.1866C13.4388 13.1887 13.544 13.1907 13.6492 13.1919C14.0111 13.1962 14.3598 13.1132 14.706 13.0243C14.8775 12.9803 15.0522 12.9263 15.206 12.8415Z" fill="#821B1E"/>
<path d="M10.0737 12.1406C9.22332 12.0336 8.3754 11.9073 7.52637 11.7898C8.8149 12.2554 11.5626 13.1853 12.2611 13.1859L12.262 13.1859L12.2644 13.1859C12.2728 13.1858 12.2811 13.1858 12.2894 13.1858L12.2895 13.1858C12.7727 13.181 13.6917 12.9817 13.6917 12.2099C13.5048 12.2314 13.3178 12.2511 13.1307 12.2692C12.5768 12.3227 12.0209 12.3151 11.466 12.265C11.0019 12.2231 10.5357 12.1987 10.0737 12.1406Z" fill="#AE3638"/>
<path d="M9.73472 10.0357C9.34696 10.0005 8.90955 9.96245 8.47262 9.91957C8.39944 9.91238 8.32648 9.88917 8.25709 9.86347C8.22568 9.85184 8.20326 9.81597 8.17676 9.7911C8.2107 9.78782 8.24635 9.77618 8.27829 9.78271C8.40896 9.80943 8.53701 9.85491 8.66869 9.86967C9.3331 9.94416 9.99977 9.98115 10.6639 9.8806C10.939 9.83896 11.208 9.75668 11.4553 9.61899C11.4798 9.60533 11.5139 9.60883 11.5436 9.60437C11.5257 9.63318 11.5149 9.67415 11.489 9.68891C11.2303 9.83674 10.9472 9.92283 10.6556 9.9635C10.3689 10.0035 10.0774 10.0103 9.73472 10.0357Z" fill="black"/>
<path d="M5.23802 11.5224C5.23237 11.2814 5.2901 11.0586 5.4309 10.8607C5.45213 10.8309 5.4791 10.8036 5.50831 10.7816C5.52562 10.7685 5.55252 10.7682 5.57511 10.7622C5.56891 10.7873 5.57049 10.8193 5.55535 10.8365C5.30813 11.1187 5.27315 11.4485 5.33756 11.7998C5.35358 11.8872 5.38334 11.9719 5.40281 12.0588C5.40767 12.0805 5.3971 12.1056 5.39362 12.1291C5.37366 12.1125 5.34065 12.099 5.3358 12.0787C5.29202 11.8958 5.25318 11.7117 5.21289 11.528C5.22127 11.5261 5.22964 11.5242 5.23802 11.5224Z" fill="black"/>
<path d="M10.8979 9.01528C10.4086 9.04776 9.94053 8.60797 9.94337 8.07093C9.94588 7.59646 10.3312 7.11883 10.9315 7.13466C11.4155 7.14742 11.8291 7.56619 11.8322 8.06625C11.8356 8.59752 11.4253 9.01431 10.8979 9.01528ZM10.3883 7.66162C10.3912 7.81695 10.4873 7.9134 10.6388 7.91321C10.7685 7.91305 10.8575 7.81813 10.8556 7.68192C10.854 7.56575 10.7277 7.46237 10.5906 7.46507C10.4582 7.46768 10.386 7.53786 10.3883 7.66162ZM11.4213 8.22164C11.5572 8.22096 11.6318 8.14395 11.6307 8.00551C11.6297 7.88114 11.5883 7.84063 11.4621 7.84052C11.31 7.84039 11.2059 7.9311 11.2098 8.06035C11.2129 8.16268 11.2911 8.2223 11.4213 8.22164ZM10.7639 8.80454C10.8732 8.80475 10.927 8.75902 10.925 8.6676C10.9221 8.54042 10.847 8.45864 10.7316 8.45719C10.6381 8.45602 10.5883 8.52064 10.5892 8.64199C10.59 8.75821 10.6396 8.8043 10.7639 8.80454Z" fill="black"/>
<path d="M10.3726 6.53027C10.3826 6.53682 10.402 6.5495 10.4214 6.56219C10.4007 6.57804 10.3822 6.60313 10.3591 6.60834C10.098 6.66721 9.82804 6.69906 9.57656 6.78517C9.17269 6.92346 8.78125 7.09787 8.38363 7.25466C8.3406 7.27162 8.29143 7.27302 8.24512 7.28164C8.28008 7.24928 8.3098 7.20616 8.35081 7.18622C8.88055 6.92849 9.42658 6.7147 10.005 6.59259C10.1212 6.56805 10.2394 6.55259 10.3726 6.53027Z" fill="black"/>
<path d="M11.3066 6.58205C11.2434 6.58205 11.18 6.58451 11.1171 6.58037C11.1008 6.5793 11.0859 6.55755 11.0703 6.5453C11.0843 6.53471 11.0969 6.51902 11.1126 6.51469C11.1373 6.50788 11.1645 6.50433 11.1899 6.50699C11.4441 6.53373 11.6984 6.56065 11.952 6.59207C11.9766 6.59511 11.9973 6.62871 12.0198 6.64813C11.9916 6.65477 11.9618 6.67076 11.9353 6.66658C11.7266 6.63369 11.5184 6.59695 11.3101 6.56139C11.309 6.56828 11.3078 6.57516 11.3066 6.58205Z" fill="black"/>
<path d="M12.4598 7.19637C12.4572 7.19443 12.4547 7.19249 12.4521 7.19055C12.454 7.19207 12.4559 7.19359 12.4578 7.19511L12.4598 7.19637Z" fill="black"/>
<path d="M14.8223 6.45729C15.0232 6.45729 15.1945 6.45718 15.3657 6.45741C15.3918 6.45744 15.4191 6.45443 15.4434 6.46139C15.4619 6.46669 15.4765 6.48555 15.4928 6.49837C15.4771 6.51054 15.4625 6.53072 15.4453 6.53327C15.4052 6.53924 15.3637 6.53637 15.3228 6.53774C14.9213 6.55127 14.5181 6.54595 14.1189 6.58346C13.6418 6.62828 13.1892 6.77832 12.7581 6.99032C12.7177 7.01021 12.6657 7.00682 12.6191 7.01424C12.6542 6.98215 12.6841 6.93991 12.725 6.91949C13.317 6.62369 13.9463 6.48189 14.6067 6.47025C14.6885 6.46881 14.7701 6.46055 14.8223 6.45729Z" fill="black"/>
<defs>
<linearGradient id="paint0_linear_6117_50929" x1="10" y1="0" x2="10" y2="20" gradientUnits="userSpaceOnUse">
<stop stop-color="#FEBD01"/>
<stop offset="1" stop-color="#EA7100"/>
</linearGradient>
</defs>
</svg>
