<svg width="20" height="20" viewBox="0 0 20 20" fill="none" xmlns="http://www.w3.org/2000/svg">
<circle cx="10" cy="10" r="10" fill="#3CEAAA"/>
<g opacity="0.95">
<path fill-rule="evenodd" clip-rule="evenodd" d="M7.58263 5.36441C8.2196 4.74523 9.24854 4.74523 9.88551 5.36441L11.4044 6.84718C12.0577 7.49895 12.0577 8.54178 11.4044 9.19354L8.75857 11.7843L10.6531 13.6419C11.0125 14.0003 11.0125 14.5706 10.6695 14.9291C10.3102 15.2876 9.73852 15.2876 9.37921 14.9454L4.78978 10.4645C4.13648 9.81272 4.13648 8.7536 4.78978 8.11813L7.58263 5.36441ZM7.45197 10.4971L9.98351 8.02036L8.72591 6.7983L6.19437 9.27501L7.45197 10.4971Z" fill="#185E44"/>
<path fill-rule="evenodd" clip-rule="evenodd" d="M11.388 6.61906C12.025 5.99988 13.0539 5.99988 13.6909 6.61906L15.2098 8.10184C15.8631 8.7536 15.8631 9.79643 15.2098 10.4482L10.6204 14.9291C10.2611 15.2876 9.67312 15.2713 9.33014 14.9128C8.97082 14.5543 8.98716 13.9677 9.34647 13.6256L11.241 11.768L9.88544 10.4319C9.23214 9.78014 9.23214 8.73731 9.88544 8.08554L11.388 6.61906ZM12.5476 10.4971L13.8052 9.27502L12.5476 8.05295L11.29 9.27502L12.5476 10.4971Z" fill="#185E44"/>
<path d="M11.29 9.27502L9.95081 8.02037L8.67688 9.27502L9.98347 10.5623L11.29 9.27502Z" fill="#185E44"/>
</g>
</svg>
