<svg width="20" height="20" viewBox="0 0 20 20" fill="none" xmlns="http://www.w3.org/2000/svg">
<path fill-rule="evenodd" clip-rule="evenodd" d="M0 2.89145C0 2.92686 0.16101 3.39821 0.357799 3.93882L0.715598 4.92174L1.26339 5.22047C1.56463 5.38473 2.21037 5.74275 2.69828 6.01613C3.18619 6.2895 4.06775 6.78118 4.6573 7.10882C5.24686 7.43646 6.30687 8.02564 7.01286 8.41804C7.71885 8.81043 8.30722 9.1207 8.32038 9.10761C8.33346 9.09446 8.24394 8.91001 8.12137 8.6977C7.93693 8.37819 7.74339 8.20388 6.99867 7.68632C6.50374 7.34242 5.99905 6.99128 5.87707 6.90604C4.76057 6.12576 3.43517 5.20761 2.76769 4.75208C1.88983 4.15299 1.18458 3.66404 0.462034 3.15351C0.207952 2.97395 0 2.85604 0 2.89145ZM19.0474 3.48684C18.5337 3.84265 17.6286 4.46636 17.036 4.87295C16.4435 5.27953 15.8526 5.68893 15.723 5.78282C15.1365 6.20737 12.4084 8.08944 12.2792 8.15856C12.1427 8.2316 11.6347 9.03029 11.6908 9.08359C11.7204 9.11175 12.5062 8.68121 17.5942 5.84935L19.2576 4.92358L19.3943 4.56564C19.6252 3.96137 20.0183 2.84 19.9993 2.84C19.9894 2.84 19.561 3.13111 19.0474 3.48684ZM1.23906 6.36269L1.51037 7.15007L2.03036 7.39218C2.76673 7.73497 9.00456 10.4543 9.05453 10.4543C9.06777 10.4543 8.97942 10.2713 8.85826 10.0475C8.5993 9.56935 8.76408 9.6727 5.72922 8.08552C5.24131 7.83041 3.98288 7.16116 2.93277 6.59844C1.88258 6.03564 1.01086 5.57524 0.995553 5.57524C0.980251 5.57524 1.08988 5.92956 1.23906 6.36269ZM18.2589 5.95684C17.873 6.16065 16.4761 6.90375 15.1547 7.60826C13.8333 8.31269 12.438 9.05572 12.0541 9.25931C11.4464 9.58155 11.3295 9.67573 11.1516 9.98644C11.0391 10.1828 10.9458 10.3665 10.9441 10.3947C10.9407 10.451 11.3458 10.2868 13.1218 9.51221C13.7723 9.22848 15.2028 8.605 16.3006 8.12662C17.3983 7.64833 18.3518 7.19457 18.4193 7.11836C18.5282 6.99542 19.0251 5.65086 18.9789 5.60458C18.9688 5.59446 18.6448 5.75303 18.2589 5.95684ZM1.77421 7.82338C1.77421 7.8942 2.10111 8.72439 2.15958 8.80208C2.19477 8.8488 2.39688 8.95511 2.60875 9.0382C2.82062 9.12136 3.64267 9.44191 4.43552 9.75054C6.79545 10.6692 9.4972 11.7356 9.53046 11.7614C9.54761 11.7747 9.48714 12.1097 9.39622 12.506C9.30521 12.9023 9.11744 13.7421 8.97891 14.3724C8.84037 15.0026 8.69555 15.6252 8.65711 15.7559C8.59279 15.9743 8.60847 16.0125 8.84902 16.2237C8.9931 16.3502 9.13592 16.4262 9.16638 16.3925C9.19684 16.3589 9.31187 15.6162 9.42194 14.742C9.53202 13.8678 9.66981 12.8475 9.72814 12.4745L9.83422 11.7965L9.57763 11.3587C9.32414 10.9262 9.31201 10.9172 8.56012 10.607C8.14155 10.4343 7.16707 10.0271 6.39455 9.70205C5.62203 9.37707 4.72383 9.00005 4.39856 8.86418C4.07329 8.72838 3.36908 8.43179 2.83356 8.20513C1.87497 7.79936 1.77421 7.76306 1.77421 7.82338ZM16.0788 8.65312C14.981 9.1187 13.8167 9.60868 13.4914 9.74189C13.1661 9.87511 12.3892 10.198 11.7649 10.4595L10.6297 10.9348L10.401 11.3784C10.2753 11.6223 10.1758 11.8386 10.1802 11.8589C10.1845 11.8792 10.2915 12.6943 10.4179 13.6701C10.707 15.9021 10.793 16.4423 10.8592 16.4423C10.8883 16.4423 11.0158 16.3341 11.1426 16.202L11.3734 15.9618L11.195 15.1855C10.5421 12.3427 10.4327 11.8202 10.4807 11.7731C10.5341 11.7206 11.0059 11.5271 12.3455 11.0083C12.7318 10.8588 13.6633 10.4932 14.4155 10.1961C15.1676 9.89891 16.24 9.47783 16.7984 9.26034L17.8138 8.86492L17.9997 8.40207C18.1944 7.91742 18.2224 7.78849 18.1302 7.7998C18.0998 7.8035 17.1766 8.18754 16.0788 8.65312ZM9.75985 8.34567L9.5879 8.5287L9.76533 8.86314C9.86291 9.04707 9.95938 9.19736 9.97978 9.19699C10.0405 9.1961 10.3496 8.62244 10.3496 8.51059C10.3496 8.39527 10.1195 8.16263 10.0055 8.16263C9.96492 8.16263 9.85441 8.24498 9.75985 8.34567ZM10.228 9.54281L10.0013 10.0477L9.76252 9.57527L9.52366 9.10274L9.33382 9.29265L9.14391 9.48249L9.3129 9.876C9.40583 10.0924 9.59759 10.517 9.73908 10.8195L9.99627 11.3695L10.0902 11.1522C10.1418 11.0326 10.3332 10.6161 10.5154 10.2266L10.8468 9.51842L10.6507 9.27816L10.4545 9.03783L10.228 9.54281ZM9.96115 12.8199C9.91872 12.9942 9.71321 15.1794 9.62938 16.3487C9.59374 16.8453 9.60358 16.894 9.76703 17.0301C9.99021 17.216 10.0065 17.2155 10.237 17.0152L10.4284 16.8489L10.2793 15.3704C10.1973 14.5572 10.1024 13.6091 10.0682 13.2635C10.0278 12.8545 9.9905 12.6997 9.96115 12.8199Z" fill="url(#paint0_linear_3713_22729)"/>
<defs>
<linearGradient id="paint0_linear_3713_22729" x1="10" y1="2.84" x2="10" y2="17.1675" gradientUnits="userSpaceOnUse">
<stop stop-color="#FF6400"/>
<stop offset="1" stop-color="#E6000F"/>
</linearGradient>
</defs>
</svg>
