<svg width="21" height="20" viewBox="0 0 21 20" fill="none" xmlns="http://www.w3.org/2000/svg">
<g clip-path="url(#clip0)">
<path d="M10.5 20C16.0228 20 20.5 15.5228 20.5 10C20.5 4.47715 16.0228 0 10.5 0C4.97715 0 0.5 4.47715 0.5 10C0.5 15.5228 4.97715 20 10.5 20Z" fill="#F0F0F0"/>
<path d="M10.5 0V10L3.42896 17.0711C5.2386 18.8807 7.7386 20 10.5 20C16.0229 20 20.5 15.5228 20.5 10C20.5 4.47719 10.5 0 10.5 0Z" fill="#D80027"/>
<path d="M10.5 0C7.7386 0 5.2386 1.1193 3.42896 2.92891C5.88247 5.38242 6.75345 6.25344 10.5 10H20.5C20.5 4.47719 16.0229 0 10.5 0Z" fill="#0052B4"/>
<path d="M7.34736 9.99992L6.12611 9.42546L6.77646 8.24269L5.45029 8.4964L5.28225 7.15667L4.3585 8.14198L3.43478 7.15667L3.2667 8.4964L1.94057 8.24265L2.59092 9.42546L1.36963 9.99992L2.59092 10.5744L1.94057 11.7571L3.26682 11.5035L3.43475 12.8432L4.3585 11.8579L5.28225 12.8432L5.45029 11.5035L6.77639 11.7572L6.12607 10.5744L7.34736 9.99992Z" fill="#FFDA44"/>
<path d="M3.16694 3.91296L3.57335 4.48105L4.23917 4.27015L3.82441 4.83218L4.23081 5.40026L3.56808 5.17952L3.15335 5.74151L3.15854 5.04308L2.49585 4.8223L3.16179 4.6114L3.16694 3.91296Z" fill="#FFDA44"/>
<path d="M3.16694 14.2583L3.57335 14.8264L4.23917 14.6155L3.82441 15.1775L4.23081 15.7456L3.56808 15.5249L3.15335 16.0869L3.15854 15.3884L2.49585 15.1677L3.16179 14.9568L3.16694 14.2583Z" fill="#FFDA44"/>
<path d="M8.96352 9.08569L8.55715 9.65377L7.89129 9.4428L8.30606 10.0049L7.89965 10.573L8.56238 10.3522L8.97715 10.9142L8.97191 10.2158L9.63461 9.99502L8.96871 9.78413L8.96352 9.08569Z" fill="#FFDA44"/>
</g>
<defs>
<clipPath id="clip0">
<rect width="20" height="20" fill="white" transform="translate(0.5)"/>
</clipPath>
</defs>
</svg>
