<svg width="20" height="20" viewBox="0 0 20 20" fill="none" xmlns="http://www.w3.org/2000/svg">
<circle cx="10" cy="10" r="9.75" fill="white" stroke="black" stroke-width="0.5"/>
<path d="M10.542 9.97668C10.8496 10.0419 11.3149 10.259 11.6081 10.4742C12.0884 10.8268 12.6373 11.5313 12.9825 12.2385C13.2137 12.712 13.2894 13.0112 13.2894 13.4515C13.2894 13.7559 13.2737 13.8363 13.1764 14.0282C12.9219 14.5307 12.3172 14.5734 11.4188 14.1524C10.8131 13.8686 10.3977 13.5365 10.2724 13.2359C10.1415 12.9223 10.2218 12.6733 10.5818 12.2757C10.8787 11.9479 10.944 11.721 10.7867 11.5636C10.715 11.4919 10.6445 11.4844 10.0444 11.4844C9.44423 11.4844 9.37375 11.4919 9.30207 11.5636C9.1447 11.721 9.20997 11.9479 9.50692 12.2757C9.86691 12.6733 9.94717 12.9223 9.81635 13.2359C9.69098 13.5365 9.27561 13.8686 8.6699 14.1524C7.77156 14.5734 7.16679 14.5307 6.91228 14.0282C6.81505 13.8363 6.79932 13.7559 6.79932 13.4515C6.79932 13.0112 6.87502 12.712 7.1062 12.2385C7.92674 10.5578 9.23154 9.69888 10.542 9.97668Z" fill="white"/>
<path d="M9.42269 12.0537C8.97906 11.9715 8.89554 10.8488 8.88869 10.2052C8.06716 10.4517 7.16347 12.0058 6.81433 12.752C6.71848 13.06 6.6911 13.6844 7.34832 13.7173C8.16985 13.7583 9.97722 12.1564 9.42269 12.0537Z" fill="#A0A0A0"/>
<path d="M10.6755 12.0537C11.1191 11.9715 11.2027 10.8488 11.2095 10.2052C12.031 10.4517 12.9347 12.0058 13.2839 12.752C13.3797 13.06 13.4071 13.6844 12.7499 13.7173C11.9284 13.7583 10.121 12.1564 10.6755 12.0537Z" fill="#A0A0A0"/>
<path d="M10.1904 13.5789C10.2568 13.6496 10.4439 13.8066 10.6063 13.9277C10.7686 14.0488 10.9131 14.1668 10.9273 14.1897C10.9835 14.2807 10.8912 14.4066 10.7075 14.4897C10.5489 14.5613 10.4362 14.576 10.0441 14.576C9.65196 14.576 9.53925 14.5613 9.38065 14.4897C9.19696 14.4066 9.1047 14.2807 9.16089 14.1897C9.17511 14.1668 9.31957 14.0488 9.48191 13.9277C9.64424 13.8066 9.83139 13.6496 9.89772 13.5789C9.96406 13.5082 10.0299 13.4503 10.0441 13.4503C10.0582 13.4503 10.1241 13.5082 10.1904 13.5789Z" fill="white"/>
<path d="M9.29752 14.2308C9.21537 14.1979 9.22221 14.0938 9.23591 14.0459V13.9022L10.0164 13.286L10.9611 14.1281C10.968 14.3129 10.9406 14.6251 10.7763 14.3951C10.612 14.165 10.297 14.1075 10.1601 14.1075C9.90682 14.1623 9.37967 14.2636 9.29752 14.2308Z" fill="#A0A0A0"/>
<path d="M5.81313 4.08412C6.25264 4.30565 6.91923 4.78616 7.59617 5.36949L7.75666 5.5078L7.60809 5.59964C7.06838 5.93318 6.59477 6.56202 6.49754 7.07412L6.47199 7.20861L6.68682 6.9909C6.96528 6.70867 7.30326 6.48883 7.71842 6.31992C9.12779 5.74649 10.9602 5.74649 12.3696 6.31992C12.7773 6.48579 13.1147 6.7055 13.3999 6.99066L13.6155 7.20631L13.5899 7.07297C13.4954 6.58248 13.0665 5.99172 12.5599 5.65444C12.4414 5.57549 12.3443 5.50751 12.3443 5.5034C12.3443 5.49929 12.4968 5.36641 12.6832 5.20806C13.2115 4.75926 13.7946 4.34147 14.1755 4.13884C14.8929 3.75724 15.4208 3.88536 15.7177 4.51309C15.8848 4.86659 15.9317 5.14801 15.9063 5.64573C15.8625 6.5048 15.5363 7.17534 14.9354 7.64201L14.6974 7.82681L14.7309 7.99937C14.7493 8.0943 14.7852 8.42608 14.8106 8.73666C14.9098 9.94669 14.675 11.1268 14.197 11.8216C14.053 12.0308 13.6626 12.4236 13.5993 12.4229C13.5755 12.4226 13.4636 12.2424 13.3507 12.0224C13.2377 11.8024 13.0318 11.4712 12.8931 11.2863L12.6409 10.9503L12.7904 10.9244C12.8726 10.9101 12.9861 10.8734 13.0426 10.8427L13.1452 10.787L13.022 10.7572C12.8681 10.72 12.5231 10.5495 12.4886 10.4935C12.472 10.4669 12.5567 10.451 12.7218 10.4499C13.0491 10.4476 13.36 10.3419 13.4671 10.1965C13.5449 10.091 13.5458 10.0764 13.484 9.91925C13.4081 9.72586 13.4389 9.71198 13.6696 9.83562C13.8054 9.9084 13.823 9.91013 13.823 9.85073C13.823 9.65365 13.4872 9.33826 13.1897 9.25615C12.9612 9.19306 12.8027 9.26691 12.4181 9.61573C12.2306 9.78571 12.0264 9.95145 11.9641 9.98403C11.8561 10.0405 11.841 10.0357 11.6342 9.87961C11.178 9.53518 10.6922 9.38369 10.044 9.38369C9.39578 9.38369 8.91001 9.53518 8.45381 9.87961C8.24703 10.0357 8.23187 10.0405 8.12388 9.98403C8.06165 9.95145 7.85738 9.78571 7.66991 9.61573C7.28531 9.26691 7.12679 9.19306 6.89829 9.25615C6.60085 9.33826 6.26497 9.65365 6.26497 9.85073C6.26497 9.91013 6.28259 9.9084 6.41839 9.83562C6.64907 9.71198 6.67992 9.72586 6.60397 9.91925C6.54223 10.0764 6.54314 10.091 6.6209 10.1965C6.72802 10.3419 7.03893 10.4476 7.36619 10.4499C7.53132 10.451 7.61597 10.4669 7.59946 10.4935C7.56487 10.5495 7.21996 10.72 7.066 10.7572L6.94281 10.787L7.04546 10.8427C7.1019 10.8734 7.2154 10.9101 7.29759 10.9244L7.44707 10.9503L7.1949 11.2863C7.05622 11.4712 6.85031 11.8024 6.73735 12.0224C6.62439 12.2424 6.51249 12.4226 6.48871 12.4229C6.42541 12.4236 6.03498 12.0308 5.89105 11.8216C5.413 11.1268 5.17825 9.94669 5.27737 8.73666C5.30279 8.42608 5.33869 8.0943 5.35709 7.99937L5.39057 7.82681L5.15257 7.64201C5.02166 7.54034 4.8367 7.3592 4.74148 7.23946C3.92476 6.21226 3.99627 4.3768 4.86837 3.98345C5.09909 3.87936 5.48936 3.92093 5.81313 4.08412Z" fill="#E0E0E0"/>
<path d="M4.29834 6.42619C4.38049 6.02227 4.65982 5.11995 5.11987 4.74205C5.19488 4.68043 7.605 6.32349 7.66661 6.32349C7.1737 7.1861 7.11208 9.44531 10.0285 9.44531C12.9449 9.44531 12.8833 7.1861 12.3904 6.32349C12.452 6.32349 14.8621 4.68043 14.9372 4.74205C15.3972 5.11996 15.6765 6.02227 15.7587 6.42619V6.9191L15.2042 7.72009L14.9372 8.04871L15.0398 9.44531L14.9372 10.4517L14.7318 11.2732L14.3621 11.9921H14.0335C13.9586 11.6175 13.736 10.8215 13.4425 10.6191C13.4378 10.619 13.436 10.6178 13.4379 10.616C13.4394 10.617 13.441 10.6181 13.4425 10.6191C13.4903 10.6204 13.8413 10.5125 13.7665 9.87661C13.7553 9.78146 13.3215 9.55485 13.1298 9.44531L12.6163 9.63015L12.2877 9.95876L11.918 10.2258H11.5278L10.7474 9.87661L10.0285 9.73284L9.30967 9.87661L8.52922 10.2258H8.13899L7.7693 9.95876L7.44069 9.63015L6.92724 9.44531C6.73555 9.55485 6.30174 9.78146 6.29055 9.87661C6.21574 10.5125 6.5667 10.6204 6.61453 10.6191C6.61607 10.6181 6.61762 10.617 6.61916 10.616C6.621 10.6178 6.61922 10.619 6.61453 10.6191C6.32107 10.8215 6.09847 11.6175 6.02355 11.9921H5.69494L5.32525 11.2732L5.11987 10.4517L5.01718 9.44531L5.11987 8.04871L4.85287 7.72009L4.29834 6.9191V6.42619Z" fill="#A0A0A0"/>
<path d="M8.2417 6.65214C8.2417 6.37282 8.47447 6.12499 8.59085 6.03599C8.70586 5.85526 9.6383 5.72792 10.0901 5.68684C10.7268 5.65946 11.992 5.85115 11.9591 6.83699C11.918 8.06928 9.08377 7.94605 9.69992 7.84336C10.1928 7.76121 10.5899 7.23406 10.7268 6.98075C10.4393 7.05606 9.76975 7.21489 9.39184 7.24775C8.91946 7.28883 8.2417 7.00129 8.2417 6.65214Z" fill="white"/>
<path fill-rule="evenodd" clip-rule="evenodd" d="M4.70123 3.43993C4.41148 3.52233 4.14021 3.70122 3.98404 3.91284C3.54411 4.50911 3.47181 5.76601 3.82129 6.74371C4.00108 7.24682 4.17163 7.53168 4.4795 7.84317C4.71565 8.08211 4.72563 8.10047 4.69314 8.23557C4.6307 8.49493 4.60811 9.80457 4.65975 10.1697C4.80273 11.1813 5.15492 11.9273 5.76955 12.5207L6.06185 12.8029L6.07257 13.3422C6.08161 13.7966 6.09861 13.9202 6.18052 14.1268C6.30667 14.4451 6.61864 14.7637 6.90207 14.8637C7.18345 14.963 7.73794 14.9888 8.09296 14.9191C8.36665 14.8654 8.39434 14.8674 8.66803 14.9601C9.66348 15.2972 10.4247 15.2972 11.4202 14.9601C11.6939 14.8674 11.7215 14.8654 11.9952 14.9191C12.3503 14.9888 12.9047 14.963 13.1861 14.8637C13.4695 14.7637 13.7815 14.4451 13.9077 14.1268C13.9896 13.9202 14.0066 13.7966 14.0156 13.3422L14.0263 12.8029L14.3186 12.5207C14.9333 11.9273 15.2855 11.1813 15.4284 10.1697C15.4801 9.80457 15.4575 8.49493 15.395 8.23557C15.3626 8.10047 15.3725 8.08211 15.6087 7.84317C15.9166 7.53168 16.0871 7.24682 16.2669 6.74371C16.6213 5.752 16.5439 4.49444 16.0917 3.89999C15.9784 3.75108 15.858 3.65509 15.6535 3.55084C15.3797 3.41118 15.3586 3.40715 14.9157 3.41031C14.5195 3.41311 14.4084 3.43052 14.0665 3.54344C13.4236 3.75577 12.7043 4.23197 12.0186 4.89934L11.6666 5.24187H10.0441H8.42157L8.06959 4.89934C7.09402 3.94989 6.14384 3.44424 5.25868 3.40353C5.02783 3.3929 4.81847 3.40657 4.70123 3.43993ZM5.81321 4.08413C6.25273 4.30566 6.91932 4.78617 7.59626 5.3695L7.75675 5.5078L7.60818 5.59965C7.06847 5.93319 6.59486 6.56203 6.49763 7.07413L6.47208 7.20862L6.68691 6.99091C6.96537 6.70867 7.30335 6.48883 7.71851 6.31993C9.12788 5.7465 10.9603 5.7465 12.3697 6.31993C12.7774 6.48579 13.1148 6.70551 13.4 6.99066L13.6156 7.20632L13.5899 7.07298C13.4955 6.58249 13.0666 5.99172 12.56 5.65445C12.4414 5.5755 12.3444 5.50751 12.3444 5.50341C12.3444 5.4993 12.4969 5.36642 12.6833 5.20807C13.2116 4.75927 13.7947 4.34148 14.1756 4.13885C14.893 3.75724 15.4209 3.88536 15.7177 4.51309C15.8849 4.8666 15.9318 5.14801 15.9064 5.64574C15.8625 6.50481 15.5364 7.17534 14.9355 7.64201L14.6975 7.82682L14.731 7.99938C14.7494 8.09431 14.7853 8.42608 14.8107 8.73666C14.9099 9.94669 14.6751 11.1268 14.1971 11.8216C14.0531 12.0308 13.6627 12.4236 13.5994 12.4229C13.5756 12.4226 13.4637 12.2424 13.3508 12.0224C13.2378 11.8024 13.0319 11.4712 12.8932 11.2863L12.641 10.9503L12.7905 10.9244C12.8727 10.9101 12.9862 10.8734 13.0426 10.8427L13.1453 10.787L13.0221 10.7572C12.8681 10.72 12.5232 10.5495 12.4886 10.4935C12.4721 10.4669 12.5568 10.451 12.7219 10.4499C13.0492 10.4476 13.3601 10.3419 13.4672 10.1965C13.545 10.091 13.5459 10.0764 13.4841 9.91926C13.4082 9.72587 13.439 9.71198 13.6697 9.83562C13.8055 9.90841 13.8231 9.91014 13.8231 9.85074C13.8231 9.65365 13.4873 9.33827 13.1898 9.25616C12.9613 9.19306 12.8028 9.26692 12.4182 9.61574C12.2307 9.78572 12.0264 9.95146 11.9642 9.98403C11.8562 10.0406 11.8411 10.0357 11.6343 9.87962C11.1781 9.53519 10.6923 9.3837 10.0441 9.3837C9.39587 9.3837 8.9101 9.53519 8.4539 9.87962C8.24712 10.0357 8.23196 10.0406 8.12397 9.98403C8.06174 9.95146 7.85747 9.78572 7.67 9.61574C7.2854 9.26692 7.12688 9.19306 6.89837 9.25616C6.60094 9.33827 6.26506 9.65365 6.26506 9.85074C6.26506 9.91014 6.28268 9.90841 6.41848 9.83562C6.64916 9.71198 6.68001 9.72587 6.60406 9.91926C6.54232 10.0764 6.54323 10.091 6.62098 10.1965C6.72811 10.3419 7.03902 10.4476 7.36628 10.4499C7.5314 10.451 7.61606 10.4669 7.59955 10.4935C7.56496 10.5495 7.22004 10.72 7.06609 10.7572L6.9429 10.787L7.04555 10.8427C7.10199 10.8734 7.21548 10.9101 7.29768 10.9244L7.44716 10.9503L7.19499 11.2863C7.05631 11.4712 6.8504 11.8024 6.73744 12.0224C6.62448 12.2424 6.51258 12.4226 6.4888 12.4229C6.4255 12.4236 6.03507 12.0308 5.89114 11.8216C5.41309 11.1268 5.17834 9.94669 5.27745 8.73666C5.30288 8.42608 5.33878 8.09431 5.35718 7.99938L5.39066 7.82682L5.15266 7.64201C5.02175 7.54035 4.83679 7.3592 4.74157 7.23946C3.92485 6.21226 3.99636 4.3768 4.86846 3.98345C5.09918 3.87937 5.48945 3.92093 5.81321 4.08413ZM7.22966 9.86508C7.39951 9.94912 7.53843 10.0299 7.53843 10.0445C7.53843 10.0907 7.24937 10.1204 7.15391 10.0842C7.10372 10.0651 7.0414 10.0238 7.0154 9.9925C6.96077 9.92673 6.8741 9.71231 6.90207 9.71231C6.91242 9.71231 7.05985 9.78107 7.22966 9.86508ZM13.0638 9.91667C12.9807 10.0773 12.8494 10.1283 12.6237 10.0878L12.4471 10.0561L12.7757 9.88828C12.9564 9.79603 13.11 9.73593 13.1171 9.7547C13.1241 9.77352 13.1001 9.84639 13.0638 9.91667ZM10.5417 9.97672C10.8493 10.0419 11.3147 10.2591 11.6078 10.4743C12.0881 10.8269 12.637 11.5314 12.9823 12.2385C13.2134 12.712 13.2891 13.0113 13.2891 13.4515C13.2891 13.7559 13.2734 13.8363 13.1762 14.0283C12.9217 14.5307 12.3169 14.5734 11.4186 14.1525C10.8128 13.8686 10.3975 13.5366 10.2721 13.2359C10.1413 12.9223 10.2215 12.6733 10.5815 12.2758C10.8785 11.9479 10.9438 11.721 10.7864 11.5637C10.7147 11.492 10.6442 11.4845 10.0441 11.4845C9.44397 11.4845 9.37348 11.492 9.3018 11.5637C9.14444 11.721 9.20971 11.9479 9.50665 12.2758C9.86664 12.6733 9.94691 12.9223 9.81608 13.2359C9.69071 13.5366 9.27535 13.8686 8.66963 14.1525C7.77129 14.5734 7.16652 14.5307 6.91201 14.0283C6.81478 13.8363 6.79905 13.7559 6.79905 13.4515C6.79905 13.0113 6.87476 12.712 7.10593 12.2385C7.92648 10.5579 9.23127 9.69892 10.5417 9.97672ZM10.1905 13.5788C10.2568 13.6496 10.4439 13.8065 10.6063 13.9277C10.7686 14.0488 10.9131 14.1667 10.9273 14.1897C10.9835 14.2806 10.8912 14.4066 10.7075 14.4896C10.5489 14.5613 10.4362 14.576 10.0441 14.576C9.65198 14.576 9.53926 14.5613 9.38067 14.4896C9.19697 14.4066 9.10472 14.2806 9.16091 14.1897C9.17512 14.1667 9.31959 14.0488 9.48192 13.9277C9.64426 13.8065 9.8314 13.6496 9.89774 13.5788C9.96408 13.5082 10.03 13.4503 10.0441 13.4503C10.0582 13.4503 10.1241 13.5082 10.1905 13.5788ZM5.58216 13.9124L5.59875 14.2718H5.44234C5.28616 14.2718 5.28579 14.2722 5.1962 14.5414C5.14683 14.6897 5.11298 14.8158 5.12095 14.8216C5.12892 14.8274 5.24525 14.8731 5.37941 14.9232L5.62336 15.0143L5.72391 14.9138L5.82443 14.8132L5.98027 15.0457C6.066 15.1736 6.21137 15.3513 6.3033 15.4406C6.39523 15.5299 6.47044 15.6133 6.47044 15.626C6.47044 15.6386 6.39662 15.6947 6.30638 15.7504C6.2032 15.8142 6.14902 15.8749 6.16027 15.9141C6.17013 15.9484 6.20044 16.0933 6.22755 16.2362C6.27175 16.4688 6.28592 16.4937 6.36339 16.4754C6.41096 16.4641 6.55481 16.4424 6.68305 16.427L6.91616 16.3991L6.96488 16.1962C6.99162 16.0845 7.02534 15.9996 7.0398 16.0075C7.11641 16.0493 7.61122 16.2759 7.6787 16.3001C7.7519 16.3263 7.7489 16.3375 7.63549 16.4604C7.39125 16.7253 7.39298 16.6938 7.59971 17.1054C7.70356 17.3122 7.80308 17.4755 7.82083 17.4683C7.83862 17.4611 8.01529 17.3822 8.2134 17.2929L8.57368 17.1304L8.55782 16.8503C8.54755 16.6683 8.55688 16.5757 8.58448 16.5861C8.60786 16.5949 8.80256 16.6352 9.01718 16.6757C9.23181 16.7162 9.4141 16.7546 9.42232 16.7612C9.43049 16.7677 9.36711 16.9501 9.28147 17.1665L9.12571 17.56L9.57163 17.98C9.8169 18.211 10.0295 18.4 10.0441 18.4C10.0587 18.4 10.2713 18.211 10.5166 17.98L10.9625 17.56L10.8067 17.1665C10.7211 16.9501 10.6577 16.7677 10.6659 16.7612C10.6741 16.7546 10.8564 16.7162 11.071 16.6757C11.2856 16.6352 11.4803 16.5949 11.5037 16.5861C11.5313 16.5757 11.5406 16.6683 11.5304 16.8503L11.5145 17.1304L11.8748 17.2929C12.0729 17.3822 12.2496 17.4611 12.2674 17.4683C12.2851 17.4755 12.3846 17.3122 12.4885 17.1054C12.6952 16.6938 12.6969 16.7253 12.4527 16.4604C12.3393 16.3375 12.3363 16.3263 12.4095 16.3001C12.477 16.2759 12.9718 16.0493 13.0484 16.0075C13.0628 15.9996 13.0966 16.0845 13.1233 16.1962L13.172 16.3991L13.4051 16.427C13.5334 16.4424 13.6772 16.4641 13.7248 16.4754C13.8023 16.4937 13.8164 16.4688 13.8606 16.2362C13.8877 16.0933 13.9181 15.9484 13.9279 15.9141C13.9392 15.8749 13.885 15.8142 13.7818 15.7504C13.6916 15.6947 13.6178 15.6386 13.6178 15.626C13.6178 15.6133 13.693 15.5299 13.7849 15.4406C13.8768 15.3513 14.0222 15.1736 14.1079 15.0457L14.2638 14.8132L14.3643 14.9138L14.4648 15.0143L14.7088 14.9232C14.8429 14.8731 14.9593 14.8274 14.9672 14.8216C14.9752 14.8158 14.9414 14.6897 14.892 14.5414C14.8024 14.2722 14.802 14.2718 14.6459 14.2718H14.4894L14.506 13.9124L14.5226 13.553L14.4597 13.7746C14.1666 14.8073 13.0506 15.5031 11.2148 15.7977C11.0246 15.8282 10.5315 15.8504 10.0441 15.8504C8.5621 15.8504 7.4467 15.5773 6.59116 15.0051C6.0637 14.6523 5.7716 14.2789 5.62845 13.7746L5.56556 13.553L5.58216 13.9124Z" fill="black"/>
<path d="M7.22949 9.86509C7.39934 9.94913 7.53826 10.0299 7.53826 10.0446C7.53826 10.0907 7.24921 10.1205 7.15375 10.0842C7.10355 10.0651 7.04124 10.0239 7.01524 9.99251C6.96061 9.92675 6.87393 9.71233 6.90191 9.71233C6.91226 9.71233 7.05968 9.78109 7.22949 9.86509Z" fill="#B0F122"/>
<path d="M13.0636 9.91668C12.9805 10.0773 12.8493 10.1283 12.6235 10.0878L12.4469 10.0561L12.7755 9.8883C12.9563 9.79604 13.1099 9.73594 13.1169 9.75472C13.1239 9.77353 13.0999 9.8464 13.0636 9.91668Z" fill="#B0F122"/>
</svg>
