<svg width="20" height="20" viewBox="0 0 20 20" fill="none" xmlns="http://www.w3.org/2000/svg">
<circle cx="10" cy="10" r="10" fill="#04D6B4"/>
<path d="M8.3002 8.39999L5.4502 6.54999V14.95C5.4502 15.4 6.0502 16.25 6.9502 16.25C7.8502 16.25 8.3002 15.35 8.3002 14.95V8.39999Z" fill="white"/>
<path d="M11.3999 9.69999L14.1499 8.04999L7.5155 3.89085C7.13431 3.65171 6.09541 3.70825 5.61713 4.47065C5.13884 5.23304 5.66209 6.09252 6.00093 6.30509L11.3999 9.69999Z" fill="white"/>
<path d="M8.85923 11.9L8.85933 15.3L15.4213 11.1034C15.7985 10.858 16.1838 9.89157 15.6929 9.13718C15.2021 8.38279 14.2023 8.49642 13.867 8.71456L8.85923 11.9Z" fill="white"/>
</svg>
