<svg width="20" height="20" viewBox="0 0 20 20" fill="none" xmlns="http://www.w3.org/2000/svg">
<ellipse cx="9.96469" cy="10" rx="9.94565" ry="10" fill="url(#paint0_radial_3977_53124)"/>
<path d="M17.6273 9.28962C17.6273 14.4201 13.2694 18.6339 8.4969 18.6339C3.72444 18.6339 0.344727 14.4201 0.344727 9.28962C0.562118 4.91804 4.90994 0.16393 9.47516 0.16394C14.2476 0.16394 17.6273 4.15911 17.6273 9.28962Z" fill="url(#paint1_radial_3977_53124)"/>
<path d="M15.7795 9.45356C15.7795 12.9508 11.9752 16.4481 8.71431 16.4481C5.07301 16.4481 2.30127 13.7464 2.30127 9.67214C2.30127 5.5979 5.47744 2.07651 9.52953 2.07651C13.5816 2.07651 15.7795 5.37932 15.7795 9.45356Z" fill="url(#paint2_linear_3977_53124)"/>
<path d="M15.236 9.34427C15.236 12.9356 12.3012 15.5191 9.3121 15.847C6.04041 15.847 3.38818 12.9356 3.38818 9.34427C3.38818 5.75291 6.47519 2.89618 9.74688 2.89618C13.0186 2.89618 15.5077 5.62842 15.236 9.34427Z" fill="url(#paint3_linear_3977_53124)"/>
<path fill-rule="evenodd" clip-rule="evenodd" d="M11.4047 4.94537L10.9782 6.5731C11.1281 6.60512 11.3133 6.65276 11.5405 6.72131C12.6275 7.04918 12.4645 8.52459 12.3558 8.9071C12.2471 9.28961 11.7036 10.1093 10.5079 9.94535C10.0642 9.88451 9.78144 9.70099 9.62469 9.50819L7.48941 8.79781L6.10576 13.6066C5.99708 13.9344 6.37749 14.4511 6.75793 14.5902C7.57001 14.8871 7.80528 14.5507 7.96416 14.3236C7.9793 14.302 7.99375 14.2813 8.00793 14.2623L8.9862 11.2568L10.671 11.8033C11.6855 11.8944 13.8666 11.5191 14.4753 9.28963C15.084 7.06012 13.7507 5.81058 13.0079 5.4645L11.4047 4.94537Z" fill="#964101"/>
<path fill-rule="evenodd" clip-rule="evenodd" d="M8.38848 4.69948L5.88848 13.388C5.77979 13.7159 6.16021 14.2325 6.54065 14.3716C7.35272 14.6685 7.588 14.3322 7.74687 14.1051C7.76201 14.0834 7.77646 14.0628 7.79065 14.0437L8.76891 11.0383L10.4537 11.5847C11.4682 11.6758 13.6493 11.3006 14.258 9.07107C14.8667 6.84156 13.5334 5.59201 12.7906 5.24593L9.58413 4.20768C9.47543 4.15303 9.09848 4.06421 8.87761 4.15303C8.60586 4.2623 8.44282 4.53554 8.38848 4.69948ZM9.25804 8.85247L10.1819 6.33881C10.2001 6.28416 10.4537 6.24045 11.3233 6.50274C12.4102 6.83061 12.2472 8.30602 12.1385 8.68853C12.0298 9.07105 11.4863 9.89072 10.2906 9.72678C9.47543 9.61501 9.20369 9.08926 9.25804 8.85247Z" fill="#C55601"/>
<path fill-rule="evenodd" clip-rule="evenodd" d="M7.19267 4.3716L4.69268 13.0601C4.58399 13.388 4.96441 13.9046 5.34485 14.0437C6.15692 14.3406 6.3922 14.0043 6.55107 13.7772C6.56621 13.7555 6.58066 13.7349 6.59485 13.7159L7.57311 10.7104L9.25789 11.2568C10.2724 11.3479 12.4535 10.9727 13.0622 8.74318C13.6709 6.51368 12.3376 5.26413 11.5948 4.91805L8.38833 3.8798C8.27963 3.82515 7.90268 3.73633 7.68181 3.82515C7.41006 3.93442 7.24702 4.20766 7.19267 4.3716ZM8.06223 8.52459L8.98615 6.01093C9.00426 5.95628 9.25789 5.91257 10.1275 6.17486C11.2144 6.50273 11.0514 7.97814 10.9427 8.36065C10.834 8.74317 10.2905 9.56284 9.09484 9.3989C8.27963 9.28713 8.00789 8.76138 8.06223 8.52459Z" fill="url(#paint4_radial_3977_53124)"/>
<defs>
<radialGradient id="paint0_radial_3977_53124" cx="0" cy="0" r="1" gradientUnits="userSpaceOnUse" gradientTransform="translate(18.5328 10.0546) rotate(150.868) scale(16.6124 16.6603)">
<stop stop-color="#E8C213"/>
<stop offset="0.361364" stop-color="#B76402"/>
</radialGradient>
<radialGradient id="paint1_radial_3977_53124" cx="0" cy="0" r="1" gradientUnits="userSpaceOnUse" gradientTransform="translate(5.65197 1.91256) rotate(78.7237) scale(17.0505 15.9611)">
<stop stop-color="#FFF8CB"/>
<stop offset="0.421088" stop-color="#FFCF07"/>
</radialGradient>
<linearGradient id="paint2_linear_3977_53124" x1="5.86938" y1="3.1694" x2="11.5734" y2="16.0973" gradientUnits="userSpaceOnUse">
<stop stop-color="#C3691A"/>
<stop offset="1" stop-color="#B25019"/>
</linearGradient>
<linearGradient id="paint3_linear_3977_53124" x1="5.5976" y1="4.20765" x2="11.8988" y2="15.0522" gradientUnits="userSpaceOnUse">
<stop stop-color="#E39114"/>
<stop offset="1" stop-color="#D26512"/>
</linearGradient>
<radialGradient id="paint4_radial_3977_53124" cx="0" cy="0" r="1" gradientUnits="userSpaceOnUse" gradientTransform="translate(7.9347 4.69945) rotate(83.9023) scale(9.51487 7.83733)">
<stop stop-color="#FFF9CC"/>
<stop offset="0.478854" stop-color="#FBD823"/>
</radialGradient>
</defs>
</svg>
