<svg width="20" height="20" viewBox="0 0 20 20" fill="none" xmlns="http://www.w3.org/2000/svg">
<path d="M15.1749 19.4043H4.96774C4.98399 19.3868 5.00023 19.3692 5.03075 19.3363C4.6359 19.2392 4.41347 18.9714 4.23386 18.646C3.95997 18.15 3.67405 17.6607 3.39494 17.1675C2.78542 16.0906 2.17743 15.0128 1.5679 13.9358C1.23102 13.3406 0.891688 12.7469 0.554632 12.1518C0.368509 11.8232 0.184798 11.4931 0 11.1638C0 11.0722 0 10.9806 0 10.8891C0.0450625 10.843 0.0991942 10.803 0.133537 10.7499C0.250162 10.5695 0.412058 10.4874 0.623255 10.4876C2.11018 10.4887 3.59711 10.4891 5.08403 10.4869C5.22234 10.4867 5.31781 10.541 5.38565 10.6598C5.5537 10.9542 5.72191 11.2486 5.89396 11.5406C6.09242 11.8775 6.28137 12.2213 6.49942 12.5449C6.76217 12.9348 7.25428 12.8757 7.44334 12.4448C7.47729 12.3674 7.50499 12.2861 7.52614 12.2042C7.79698 11.1545 8.06654 10.1044 8.33554 9.0542C8.53806 8.26354 8.73899 7.47246 8.94216 6.68197C8.95202 6.6436 8.97665 6.60912 8.99441 6.57282C9.04864 6.65659 9.06864 6.7363 9.07937 6.81726C9.10253 6.99207 9.11784 7.16795 9.14183 7.34263C9.23865 8.04791 9.33936 8.75265 9.43522 9.45806C9.54692 10.2801 9.65436 11.1027 9.7649 11.9249C9.91547 13.045 10.0667 14.1649 10.2188 15.2848C10.2514 15.5243 10.282 15.7644 10.3257 16.0019C10.3796 16.2946 10.5711 16.4762 10.8257 16.4949C11.0664 16.5126 11.2762 16.3615 11.3808 16.0886C11.4181 15.9913 11.4489 15.8909 11.475 15.7899C11.694 14.9427 11.9154 14.0961 12.1282 13.2473C12.4743 11.8666 12.8143 10.4843 13.158 9.10297C13.1698 9.05563 13.194 9.01146 13.227 8.92984C13.2961 9.01951 13.3534 9.07892 13.3935 9.14847C13.5596 9.43645 13.7311 9.72203 13.8804 10.0189C14.0493 10.3548 14.3032 10.4956 14.6762 10.4917C15.8142 10.4799 16.9524 10.4864 18.0905 10.4865C18.5427 10.4866 18.995 10.4843 19.4471 10.4916C19.7883 10.497 19.9953 10.7225 19.9999 11.0662C20.0027 11.2677 19.907 11.4308 19.8136 11.5945C19.2189 12.6358 18.6211 13.6753 18.0262 14.7165C17.3377 15.9216 16.6547 17.1299 15.9615 18.3322C15.7359 18.7233 15.5498 19.1572 15.0534 19.3306C15.111 19.3656 15.143 19.3849 15.1749 19.4043ZM0 8.77008V8.96629C0.154463 9.34895 0.439489 9.48841 0.842112 9.4858C2.34916 9.47607 3.85637 9.49126 5.36339 9.47967C5.70123 9.47707 5.93439 9.5934 6.09513 9.88667C6.26749 10.2011 6.44636 10.5119 6.62307 10.824C6.65057 10.8725 6.68171 10.9189 6.7063 10.9585C6.84865 10.9496 6.84164 10.8452 6.86125 10.7701C6.99817 10.2455 7.13106 9.71983 7.26502 9.19442C7.70244 7.47886 8.13949 5.76319 8.57792 4.04789C8.60048 3.95965 8.62732 3.87107 8.66473 3.78846C8.75987 3.5783 8.98736 3.44021 9.19364 3.45866C9.41664 3.4786 9.60456 3.6298 9.66038 3.86686C9.71112 4.08237 9.74034 4.30356 9.77039 4.52346C9.86771 5.23551 9.96108 5.94811 10.0559 6.66051C10.155 7.40525 10.253 8.15015 10.3535 8.89469C10.461 9.69106 10.5705 10.4872 10.6799 11.2833C10.7643 11.8981 10.8493 12.5129 10.936 13.1275C10.9483 13.2146 10.9715 13.3001 10.9897 13.3864C11.006 13.3876 11.0224 13.3889 11.0387 13.3902C11.0573 13.3325 11.0791 13.2756 11.0941 13.2169C11.3041 12.3941 11.5125 11.5709 11.7228 10.7482C11.98 9.74175 12.2383 8.73557 12.4973 7.72955C12.5168 7.65389 12.5381 7.57728 12.5707 7.50677C12.6574 7.31855 12.7906 7.18187 13.0073 7.16483C13.2268 7.14757 13.4003 7.23969 13.5159 7.4262C13.6806 7.69212 13.8383 7.96256 13.9955 8.23318C14.1952 8.57707 14.3903 8.92369 14.5899 9.26765C14.6317 9.33978 14.6844 9.40547 14.7296 9.47052C14.788 9.4763 14.8325 9.4846 14.877 9.48455C16.3453 9.48306 17.8136 9.48098 19.2818 9.47797C19.3592 9.47781 19.4376 9.47535 19.5137 9.46268C19.8745 9.40264 20.0759 9.07356 19.9678 8.71929C19.9451 8.64512 19.9097 8.57351 19.8713 8.5059C19.2334 7.38335 18.5945 6.26135 17.9548 5.1398C17.2797 3.95604 16.6038 2.77279 15.9277 1.58955C15.8501 1.45368 15.7669 1.32101 15.6914 1.18395C15.4872 0.813143 15.1693 0.635159 14.7576 0.614609C14.6608 0.609775 14.5636 0.611165 14.4666 0.61104C11.4847 0.607205 8.5028 0.603511 5.52091 0.599979C5.43037 0.599871 5.33982 0.602772 5.24928 0.602497C4.85893 0.601313 4.56401 0.774067 4.36725 1.11076C4.10086 1.56659 3.84193 2.02686 3.57912 2.48483C3.30005 2.97117 3.01769 3.4556 2.74134 3.94351C2.44254 4.47105 2.15102 5.0028 1.8527 5.53061C1.47742 6.19458 1.0981 6.85621 0.721236 7.51926C0.528044 7.85917 0.338494 8.20123 0.142109 8.53923C0.108018 8.59791 0.0480271 8.6412 0 8.6916C0 8.70468 0 8.71776 0 8.73084L0 8.77008Z" fill="url(#paint0_linear_5971_47282)"/>
<defs>
<linearGradient id="paint0_linear_5971_47282" x1="4.70802" y1="19.2526" x2="15.4533" y2="0.856041" gradientUnits="userSpaceOnUse">
<stop stop-color="#FF0000"/>
<stop offset="0.20887" stop-color="#F600EF"/>
<stop offset="0.28534" stop-color="#D60AF1"/>
<stop offset="0.45179" stop-color="#8626F9"/>
<stop offset="0.58165" stop-color="#443DFF"/>
<stop offset="0.84926" stop-color="#17ADFF"/>
<stop offset="1" stop-color="#00E8FF"/>
</linearGradient>
</defs>
</svg>
