<svg width="21" height="20" viewBox="0 0 21 20" fill="none" xmlns="http://www.w3.org/2000/svg">
<path d="M11.3533 1.44849H6.19753L3.84712 3.92913L0.928055 7.70733L0.473145 8.81408L4.5295 18.1642L14.4619 18.584L17.1156 14.7676L19.6556 10.5696L17.7601 5.57017L15.9404 1.79197L11.3533 1.44849Z" fill="#2A2B2F"/>
<path d="M20.077 10.3076C18.7961 7.47092 17.522 4.63255 16.2579 1.78744C16.1307 1.5009 15.9632 1.41494 15.6602 1.40483C14.1031 1.35427 12.5477 1.27842 11.4611 1.23123C9.43685 1.13684 7.88311 1.05425 6.32602 1.00031C6.14017 0.993571 5.884 1.09639 5.77015 1.23797C3.91504 3.54203 2.07332 5.8579 0.241651 8.18219C0.154588 8.29343 0.11608 8.52435 0.167982 8.65244C1.47393 11.7976 2.79159 14.9376 4.12265 18.071C4.18125 18.2075 4.39556 18.3508 4.54457 18.3609C7.73409 18.5817 10.9253 18.7806 14.1165 18.998C14.3676 19.0148 14.4899 18.9255 14.6204 18.7351C16.4186 16.1091 18.2218 13.4864 20.0334 10.8706C20.1724 10.6717 20.1741 10.5217 20.077 10.3076ZM16.1055 2.75491C16.9125 4.50108 17.6794 6.1596 18.4177 7.75745C17.3596 6.7411 16.2763 5.69946 15.1847 4.65109C15.4894 4.02577 15.7724 3.4409 16.1055 2.75491ZM9.22421 1.59024C11.1095 1.67282 12.9947 1.75373 14.9386 1.838C14.5803 2.49366 14.2488 3.09875 13.9072 3.7207C12.3183 3.0229 10.7629 2.33859 9.20747 1.65428C9.21249 1.63406 9.21919 1.61215 9.22421 1.59024ZM6.68599 2.13971C8.62816 2.98077 10.5251 3.80329 12.5108 4.66457C10.1384 5.59833 7.84962 6.50007 5.46543 7.43889C5.88568 5.6135 6.28081 3.8943 6.68599 2.13971ZM13.3781 6.2995C13.0215 9.01483 12.6766 11.6425 12.32 14.3612C10.2305 12.7347 8.18448 11.1402 6.06985 9.49519C8.52101 8.42153 10.9085 7.37821 13.3781 6.2995ZM3.57851 15.7635C2.64426 13.5555 1.71168 11.3492 0.745612 9.06708C1.66815 9.26765 2.50696 9.44294 3.34076 9.64351C3.42615 9.66374 3.52493 9.83397 3.53163 9.94016C3.56344 10.3851 3.56511 10.8335 3.57349 11.2801C3.60195 12.6353 3.63041 13.9904 3.6572 15.3455C3.66055 15.477 3.6572 15.6102 3.6572 15.7416C3.63209 15.75 3.6053 15.7568 3.57851 15.7635ZM3.70576 8.59177C2.78824 8.40131 1.8925 8.2159 0.93983 8.0187C2.296 6.28433 3.61367 4.59884 4.93301 2.91335C4.96147 2.92514 4.98993 2.93694 5.0184 2.95043C4.58476 4.80615 4.15279 6.66525 3.70576 8.59177ZM4.70531 11.0492C6.83333 12.5864 8.88768 14.0713 11.0308 15.6203C8.92451 16.1681 6.91704 16.6906 4.85264 17.2282C4.80409 15.1719 4.75553 13.1594 4.70531 11.0492ZM7.4143 18.0255C7.41096 18.0086 7.40928 17.9918 7.40593 17.9732C9.11371 17.5266 10.8215 17.0782 12.5544 16.6248C12.8574 17.2181 13.1538 17.7946 13.4769 18.4266C11.4125 18.2901 9.41341 18.1586 7.4143 18.0255ZM14.5685 17.9547C14.2504 17.3327 13.9524 16.7479 13.641 16.1377C15.116 15.0287 16.576 13.9314 18.0343 12.8341C18.0561 12.8544 18.0779 12.8763 18.0996 12.8965C16.9326 14.5668 15.7657 16.2372 14.5685 17.9547ZM13.7063 14.6781C14.088 11.8279 14.458 9.06033 14.8197 6.36355C16.2495 7.74396 17.6944 9.13787 19.1779 10.5722C17.3311 11.9594 15.553 13.2926 13.7063 14.6781Z" fill="url(#paint0_linear)"/>
<defs>
<linearGradient id="paint0_linear" x1="3.74945" y1="6.63742" x2="18.7876" y2="10.8871" gradientUnits="userSpaceOnUse">
<stop stop-color="#9A989D"/>
<stop offset="1" stop-color="#747276"/>
</linearGradient>
</defs>
</svg>
