<svg width="20" height="20" viewBox="0 0 20 20" fill="none" xmlns="http://www.w3.org/2000/svg">
<ellipse cx="9.06122" cy="11.1837" rx="9.06122" ry="8.73469" fill="#C000A3"/>
<ellipse cx="15.9185" cy="3.91837" rx="4.08163" ry="3.91837" fill="#620754"/>
<path fill-rule="evenodd" clip-rule="evenodd" d="M7.27553 8.08442C8.2859 8.4654 8.78459 9.32948 8.55872 10.308C8.43349 10.8505 8.20721 11.1783 7.73806 11.4967C7.22149 11.8473 6.47921 12.023 5.72484 11.9733L5.11986 11.9334L5.12802 12.3953C5.13929 13.0343 5.19921 13.1858 5.52802 13.4065C5.88606 13.6469 5.90582 13.9136 5.58345 14.1545C5.37937 14.3069 5.22149 14.3296 4.1957 14.3529C2.89847 14.3825 2.45406 14.2926 2.29243 13.9679C2.16321 13.7083 2.21414 13.6048 2.59537 13.3526L2.91578 13.1406V11.1772C2.91578 10.0354 2.8819 9.15046 2.8348 9.06254C2.79031 8.97928 2.64214 8.8867 2.50549 8.85666C2.05545 8.75781 1.88198 8.20581 2.24541 8.02858C2.39953 7.9534 5.21235 7.84842 6.18108 7.88164C6.57023 7.89495 6.969 7.96883 7.27553 8.08442ZM5.24296 10.7761C5.08614 10.6459 5.06516 9.23021 5.21782 9.07756C5.33006 8.96532 5.40533 8.95911 5.77112 9.03234C6.31063 9.14017 6.55716 10.1133 6.16068 10.5696C5.94541 10.8174 5.43194 10.9329 5.24296 10.7761Z" fill="#F0F1F5"/>
<path fill-rule="evenodd" clip-rule="evenodd" d="M13.977 8.07887C15.7763 8.6947 16.7649 10.8227 15.9946 12.4219C15.3778 13.7021 14.2011 14.3683 12.5603 14.3665C11.7415 14.3656 11.2666 14.2631 10.67 13.9588C10.1126 13.6744 9.55137 13.0917 9.26231 12.4971C9.0219 12.0026 9.00067 11.8932 8.99912 11.1429C8.99765 10.4274 9.02427 10.2693 9.21455 9.86327C9.68778 8.85381 10.5747 8.1996 11.8546 7.91617C12.3462 7.80728 13.4252 7.88997 13.977 8.07887ZM11.5133 10.8414C11.354 10.1358 11.4157 9.78899 11.7508 9.50703C12.3377 9.01315 13.0523 9.51217 13.4916 10.7226C13.8963 11.8375 13.8156 12.6774 13.2828 12.8981C12.5768 13.1905 11.8542 12.3507 11.5133 10.8414Z" fill="#F0F1F5"/>
<path d="M14.5417 2.49854C14.7232 2.56817 14.7026 2.83446 14.5076 2.93878C14.3605 3.01748 14.3443 3.10972 14.3443 3.87046C14.3443 4.82768 14.4066 4.95103 14.8412 4.8556C15.0261 4.81503 15.1256 4.73054 15.1901 4.55952C15.2549 4.38809 15.3272 4.32687 15.4451 4.34376C15.6701 4.37601 15.7077 4.77862 15.5184 5.13038C15.3839 5.38025 15.3467 5.39952 15.0823 5.35576C14.9234 5.32948 14.4156 5.30752 13.9541 5.30703C13.2705 5.3063 13.1057 5.28254 13.066 5.17911C13.0372 5.10425 13.0928 4.98172 13.2013 4.88066C13.3741 4.7196 13.383 4.66009 13.3466 3.9036C13.3124 3.19503 13.2842 3.07291 13.1118 2.8894C12.9197 2.68491 12.919 2.67838 13.0742 2.56483C13.236 2.44654 14.283 2.39927 14.5417 2.49854Z" fill="#F0F1F5"/>
<path d="M18.2219 2.58866C18.5101 2.64752 18.5621 2.69495 18.6654 2.99266C18.7707 3.29617 18.7685 3.35119 18.6431 3.54254C18.4461 3.84319 18.2775 3.8085 17.8913 3.38776C17.5274 2.99136 17.2791 2.92491 17.0243 3.15552C16.8261 3.33478 16.8286 3.88213 17.0288 4.21062C17.1132 4.34891 17.3021 4.51168 17.4488 4.57242C17.6812 4.66866 17.7675 4.66434 18.1211 4.53878C18.6134 4.36393 18.7453 4.4396 18.5922 4.80923C18.5135 4.99919 18.3877 5.09438 18.0467 5.22197C17.803 5.31315 17.4671 5.38695 17.3004 5.38597C16.3567 5.38042 15.5553 4.42221 15.803 3.59552C15.9236 3.19283 16.2335 2.81813 16.6195 2.60817C16.9274 2.44074 17.4653 2.43421 18.2219 2.58866Z" fill="#F0F1F5"/>
</svg>
