<svg width="20" height="21" viewBox="0 0 20 21" fill="none" xmlns="http://www.w3.org/2000/svg">
<g clip-path="url(#clip0)">
<path d="M10 20.4872C15.5229 20.4872 20 16.01 20 10.4872C20 4.96434 15.5229 0.487183 10 0.487183C4.47716 0.487183 0 4.96434 0 10.4872C0 16.01 4.47716 20.4872 10 20.4872Z" fill="#D1348C"/>
<path d="M9.26978 6.25117L11.6517 5.9226L9.43405 11.4455C10.4197 11.3284 11.3401 11.0932 12.692 8.74255C14.125 6.25113 12.9384 4.06091 9.43405 5.48457C6.63054 6.62349 6.33121 9.09847 6.53198 10.1936C5.56111 10.4489 4.48094 9.67605 5.32447 7.91595C6.83218 4.76999 11.3931 3.88238 13.3183 4.56075C15.2434 5.23912 15.6467 7.2009 13.9966 9.67604C12.7275 11.5797 10.3626 12.0091 9.2152 11.9905L7.35332 16.6274H4.97144L9.26978 6.25117Z" fill="white"/>
</g>
<defs>
<clipPath id="clip0">
<rect width="20" height="20" fill="white" transform="translate(0 0.487183)"/>
</clipPath>
</defs>
</svg>
