<svg width="20" height="20" viewBox="0 0 20 20" fill="none" xmlns="http://www.w3.org/2000/svg">
<g clip-path="url(#clip0_1000_7)">
<path d="M10 20C15.5229 20 20 15.5229 20 9.99999C20 4.47715 15.5229 0 10 0C4.47716 0 0 4.47715 0 9.99999C0 15.5229 4.47716 20 10 20Z" fill="#D1348C"/>
<path d="M9.26978 5.76399L11.6517 5.43542L9.43405 10.9583C10.4197 10.8413 11.3401 10.606 12.692 8.25536C14.125 5.76395 12.9384 3.57373 9.43405 4.99739C6.63054 6.13631 6.33121 8.61129 6.53198 9.70641C5.56111 9.9617 4.48094 9.18887 5.32447 7.42877C6.83218 4.28281 11.3931 3.39519 13.3183 4.07357C15.2434 4.75194 15.6467 6.71371 13.9966 9.18886C12.7275 11.0925 10.3626 11.5219 9.2152 11.5033L7.35332 16.1403H4.97144L9.26978 5.76399Z" fill="white"/>
</g>
<defs>
<clipPath id="clip0_1000_7">
<rect width="20" height="20" fill="white"/>
</clipPath>
</defs>
</svg>
