<svg width="20" height="20" viewBox="0 0 20 20" fill="none" xmlns="http://www.w3.org/2000/svg">
<path fill-rule="evenodd" clip-rule="evenodd" d="M12.9066 3.79931C12.7828 3.67551 12.6358 3.57738 12.4739 3.51058C12.3121 3.44378 12.1387 3.40961 11.9636 3.41004H11.9602C11.7848 3.41 11.6111 3.44487 11.4493 3.51262C11.2875 3.58038 11.1408 3.67966 11.0178 3.80467L0.599242 14.273C0.475157 14.3968 0.376864 14.5441 0.310047 14.7062C0.243231 14.8683 0.209217 15.042 0.209973 15.2174C0.210949 15.5739 0.350949 15.9091 0.603632 16.1608C0.727124 16.2845 0.873888 16.3827 1.03547 16.4495C1.19705 16.5163 1.37025 16.5505 1.5451 16.55C1.90266 16.55 2.23973 16.41 2.49241 16.1569L12.9105 5.68809C13.1598 5.43678 13.2994 5.09691 13.2987 4.74289C13.2979 4.38888 13.1569 4.04958 12.9066 3.79931V3.79931Z" fill="#2DB8E3"/>
<path fill-rule="evenodd" clip-rule="evenodd" d="M18.9553 3.53737C18.7112 3.43537 18.4421 3.40869 18.1826 3.46076C17.9231 3.51282 17.6852 3.64126 17.4992 3.82956L7.07973 14.2988C6.83016 14.5501 6.6905 14.8901 6.69141 15.2442C6.69233 15.5984 6.83374 15.9377 7.08461 16.1876C7.336 16.4372 7.67614 16.5767 8.03035 16.5757C8.38457 16.5747 8.72391 16.4332 8.97388 16.1822L17.1095 8.00761V15.2403C17.1097 15.5944 17.2505 15.934 17.501 16.1844C17.7514 16.4348 18.091 16.5756 18.4451 16.5759C18.7992 16.5756 19.1388 16.4348 19.3892 16.1844C19.6397 15.934 19.7804 15.5944 19.7807 15.2403V4.772C19.7815 4.50747 19.7034 4.24871 19.5564 4.02878C19.4093 3.80886 19.2001 3.63777 18.9553 3.53737V3.53737Z" fill="#3840C7"/>
</svg>
