<svg width="20" height="20" viewBox="0 0 20 20" fill="none" xmlns="http://www.w3.org/2000/svg">
<circle cx="10" cy="10" r="10" fill="url(#paint0_linear_2322_6170)"/>
<path fill-rule="evenodd" clip-rule="evenodd" d="M4.23394 9.81999C3.79394 10.14 2.65391 15.22 4.61391 15.52C5.61896 15.6738 6.44723 14.4135 6.99395 13.08C7.30018 12.333 7.50706 11.5768 7.63391 11C7.97695 12.0303 8.80891 14.0213 9.61488 14.5096C9.70175 14.5623 9.78832 14.5974 9.87395 14.6121C10.9594 15.0322 12.1363 15.3743 12.9939 15.4C14.2497 15.4377 14.8437 15.2316 15.3418 15.0589C15.4002 15.0387 15.4573 15.0189 15.5139 15C15.9459 14.856 16.2006 14.2733 16.2739 14V12.96L15.8739 12.42C15.5939 12.14 15.0219 11.564 14.9739 11.5C14.9259 11.436 14.9006 11.2333 14.8939 11.14L13.5739 8.93999C12.4539 7.55999 11.7139 7.14714 11.2539 7.17999C11.0299 7.19599 10.8273 7.31999 10.7539 7.37999C9.77395 5.02 8.2673 4.4 7.63391 4.5C7.32989 4.548 7.14726 4.90666 7.09395 5.1C6.85394 4.92 5.39394 4.56 4.67394 5.02C4.37793 5.20912 4.45394 5.74666 4.53394 6C4.21394 6.02 2.89394 6.4 2.73394 7.37999C2.58527 8.29051 3.67969 9.05716 4.31683 9.50349C4.36545 9.53755 4.41141 9.56974 4.45395 9.59999L4.23394 9.81999Z" fill="white"/>
<path d="M7.63411 11C7.50725 11.5768 7.30037 12.333 6.99414 13.08C7.13583 13.3377 8.278 13.9699 9.61507 14.5096C8.80911 14.0214 7.97714 12.0303 7.63411 11Z" fill="#DAD8D6"/>
<ellipse cx="15.7538" cy="13.12" rx="1.56" ry="0.96" fill="#4A22FF"/>
<path d="M4.03418 9.78V9.39999L8.79418 9.68L8.75418 10.08L4.03418 9.78Z" fill="black"/>
<path d="M13.1542 9.72H11.5542V10.12H13.1542V9.72Z" fill="black"/>
<path fill-rule="evenodd" clip-rule="evenodd" d="M10.2138 11.36C11.0643 11.36 11.7538 10.6705 11.7538 9.82C11.7538 9.26647 11.4618 8.78114 11.0234 8.5097L9.41933 11.1395C9.65129 11.2795 9.92315 11.36 10.2138 11.36ZM9.25486 11.0251L10.8465 8.41556C10.6535 8.32847 10.4393 8.28 10.2138 8.28C9.36331 8.28 8.67383 8.96948 8.67383 9.82C8.67383 10.308 8.90077 10.7429 9.25486 11.0251Z" fill="black"/>
<path fill-rule="evenodd" clip-rule="evenodd" d="M14.4541 11.36C15.3046 11.36 15.9941 10.6705 15.9941 9.82C15.9941 9.26647 15.702 8.78114 15.2636 8.5097L13.6596 11.1395C13.8915 11.2795 14.1634 11.36 14.4541 11.36ZM13.4951 11.0251L15.0868 8.41556C14.8938 8.32847 14.6796 8.28 14.4541 8.28C13.6035 8.28 12.9141 8.96948 12.9141 9.82C12.9141 10.308 13.141 10.7429 13.4951 11.0251Z" fill="black"/>
<path d="M15.2636 8.5097C15.207 8.47465 15.148 8.44316 15.0868 8.41556L13.4951 11.0251C13.5473 11.0666 13.6022 11.1049 13.6596 11.1395L15.2636 8.5097Z" fill="white"/>
<defs>
<linearGradient id="paint0_linear_2322_6170" x1="10" y1="0" x2="10" y2="20" gradientUnits="userSpaceOnUse">
<stop stop-color="#FE8C05"/>
<stop offset="1" stop-color="#FF0487"/>
</linearGradient>
</defs>
</svg>
