<svg width="20" height="20" viewBox="0 0 20 20" fill="none" xmlns="http://www.w3.org/2000/svg">
<g clip-path="url(#clip0_5169_34101)">
<rect width="20" height="20" fill="black"/>
<path d="M10.0331 18.7205L0.867811 4.33538L19.1745 4.33538L10.0331 18.7205Z" fill="white"/>
<path d="M9.93798 19.6783L8.33326e-07 6.42788L19.8757 6.42788L9.93798 19.6783Z" fill="white"/>
<path d="M8.71645 3.70239C8.39128 3.81664 7.99581 3.9221 7.72337 3.98362C7.67064 3.99241 7.33668 4.18575 6.99394 4.40546C6.6512 4.62516 6.34361 4.80972 6.30845 4.8273C6.24694 4.85366 5.84268 5.39853 5.41205 6.04887C5.19234 6.37403 5.18355 6.43555 5.21871 7.32317C5.24507 8.02623 5.2978 8.34261 5.42084 8.59747C5.51751 8.78203 5.60539 9.08083 5.60539 9.26538C5.61418 9.44994 5.64933 9.71358 5.68449 9.86298L5.75479 10.1266L5.76358 9.84541C5.77237 9.58176 5.90419 9.39721 6.00965 9.49388C6.03602 9.52024 6.06238 9.67843 6.07996 9.83662C6.08875 9.98602 6.15027 10.1354 6.21178 10.153C6.41391 10.2233 6.56332 9.88935 6.56332 9.38842C6.5721 9.11598 6.62483 8.7996 6.68635 8.67657C6.78302 8.51838 6.78302 8.41292 6.71272 8.28109C6.65999 8.18442 6.62483 8.09654 6.63362 8.07896C6.64241 8.07017 6.6512 8.03502 6.6512 7.99108C6.6512 7.95593 6.61604 7.98229 6.5721 8.04381C6.44907 8.25473 6.46664 7.11225 6.59847 6.80466C6.73908 6.47071 7.16092 6.04887 7.40699 6.00493C7.49487 5.98735 7.82883 5.89068 8.14521 5.79401C9.11192 5.50399 9.85013 5.31944 10.0347 5.32823C10.6059 5.32823 11.0453 5.38096 11.0453 5.44248C11.0453 5.47763 11.1332 5.51278 11.2475 5.51278C11.3529 5.51278 11.599 5.59188 11.7923 5.68855C11.9857 5.78522 12.2142 5.86431 12.3109 5.86431C12.513 5.86431 12.9788 6.27736 12.9788 6.45313C12.9788 6.62011 12.4515 7.0771 12.1175 7.19135C11.7748 7.30559 11.6078 7.56045 11.7836 7.70107C11.8451 7.7538 11.9154 7.78016 11.933 7.7538C11.9593 7.73622 11.9857 7.84168 11.9945 7.99108C12.0121 8.14927 12.0736 8.33382 12.1439 8.41292C12.223 8.5008 12.2405 8.59747 12.1878 8.66778C12.1087 8.80839 11.142 9.13356 11.0278 9.06325C10.9926 9.03689 10.8784 9.06325 10.7817 9.11598C10.6499 9.18629 10.6059 9.18629 10.6059 9.0984C10.6059 9.03689 10.5532 9.06325 10.5005 9.15113C10.4302 9.27417 10.4302 9.43236 10.5005 9.72237C10.5532 9.94208 10.6147 10.5397 10.6235 11.0406L10.6499 11.9546L10.395 12.0425C10.2017 12.104 10.0874 12.0952 9.89408 11.981C9.7271 11.8843 9.63043 11.8667 9.59527 11.9282C9.56012 11.981 9.648 12.0688 9.80619 12.1304C10.0083 12.2007 10.0786 12.2886 10.0962 12.4995C10.1138 12.6928 10.1665 12.7631 10.2895 12.7631C10.4829 12.7631 10.5971 12.974 10.4126 13.0004C10.3511 13.0004 10.1841 13.018 10.0347 13.0356C9.89408 13.0443 9.63922 13.0883 9.48982 13.1234C9.25253 13.1674 9.1998 13.1498 9.1998 13.0356C9.1998 12.851 9.03282 12.8598 8.79554 13.0531C8.44401 13.3431 8.46159 13.7386 8.81312 13.4662C8.99767 13.3256 9.70073 13.2904 9.89408 13.4135C9.99075 13.475 9.98196 13.5101 9.85013 13.5804C9.75346 13.6244 9.62164 13.6419 9.55133 13.6156C9.43709 13.5804 9.43709 13.5892 9.54254 13.7123C9.70952 13.9144 10.1489 14.1253 10.4214 14.1253C10.6147 14.1253 10.6587 14.1692 10.6762 14.389C10.6938 14.635 10.6762 14.6526 10.4126 14.6526C10.2632 14.6526 10.0698 14.7141 9.98196 14.7932C9.89408 14.8723 9.68316 14.9338 9.51618 14.9426C9.29647 14.9514 9.22617 14.9778 9.28768 15.0393C9.4283 15.1799 10.8959 15.2151 11.1332 15.092C11.4848 14.9075 12.346 14.222 12.5833 13.9408C12.8997 13.5541 13.0579 13.141 13.1721 12.3676C13.2336 11.8931 13.3215 11.647 13.4621 11.4888C13.6027 11.3394 13.7697 10.8736 13.9894 10.0388C14.1652 9.36205 14.3849 8.63262 14.4816 8.41292C14.6046 8.14927 14.6661 7.78895 14.6837 7.32317C14.7101 6.51465 14.6134 6.28615 13.8137 5.1964C13.26 4.4494 12.9085 4.19454 12.4339 4.19454C12.2493 4.19454 11.9769 4.11544 11.8187 4.01877C11.4935 3.81664 11.1244 3.79028 10.8696 3.94847C10.729 4.03635 10.6323 4.02756 10.3071 3.86937C9.78862 3.61451 9.15586 3.54421 8.71645 3.70239ZM12.3109 11.0406C12.2845 11.4712 12.1966 11.6206 11.9242 11.7261C11.6429 11.8316 11.6166 11.814 11.4057 11.3834C11.2387 11.0582 11.3354 10.8561 11.6342 10.9C11.8275 10.9264 12.2933 10.8561 12.3284 10.7945C12.3284 10.7858 12.3196 10.9 12.3109 11.0406Z" fill="black"/>
<path d="M3.28499 7.57804C4.3308 9.24782 5.19205 10.6012 5.20084 10.5924C5.25357 10.5309 4.94598 9.12478 4.82294 8.85234C4.72627 8.63264 4.67354 8.19322 4.64717 7.34076C4.61202 6.04009 4.65596 5.87311 5.20084 5.24915C5.3063 5.12611 5.46448 4.92398 5.55237 4.78337L5.70177 4.54608H3.54864H1.38672L3.28499 7.57804ZM3.94411 5.65341C4.09351 5.69735 4.07593 5.72371 3.82986 5.961L3.55743 6.21586L3.29378 5.95221C3.15316 5.80281 3.07407 5.68856 3.1268 5.68856C3.17953 5.68856 3.31135 5.5831 3.41681 5.46006C3.61016 5.24036 3.61894 5.24036 3.69804 5.41612C3.74198 5.51279 3.84744 5.61825 3.94411 5.65341Z" fill="black"/>
<path d="M14.6923 5.381C15.1317 6.03133 15.2636 6.29498 15.2724 6.54984C15.2899 7.81535 15.2724 8.25477 15.1845 8.36023C15.0087 8.57115 14.1387 11.5328 14.2266 11.6207C14.2529 11.647 15.0263 10.4167 18.3131 5.14371L18.691 4.54611H16.406H14.1211L14.6923 5.381ZM16.5994 6.02254L16.3797 6.25983L16.1336 6.02254L15.8875 5.77647L16.1248 5.5304L16.3621 5.29311L16.5906 5.5304L16.8279 5.77647L16.5994 6.02254Z" fill="black"/>
<path d="M10.1668 9.02815C10.1668 9.07209 10.1404 9.10724 10.1052 9.09845C10.0613 9.09845 9.96462 9.11603 9.87674 9.15997C9.78007 9.19512 9.43732 9.17755 9.10337 9.12482C8.4794 9.01057 8.27727 9.04572 8.35636 9.25664C8.40909 9.40604 8.13666 9.42362 8.00483 9.29179C7.89937 9.18634 7.44238 9.49393 7.44238 9.66969C7.44238 9.72242 7.5039 9.68727 7.583 9.5906C7.71482 9.42362 7.72361 9.42362 7.66209 9.59939C7.55663 9.92455 7.57421 9.95092 7.8818 9.97728C8.04877 9.99486 8.20696 10.0388 8.23333 10.0827C8.25969 10.1267 8.46182 10.2321 8.68153 10.3288C9.02427 10.4782 9.10337 10.487 9.3055 10.3815C9.42854 10.32 9.55157 10.2058 9.58672 10.1267C9.61309 10.0564 9.69218 9.99486 9.76249 9.99486C9.8328 9.99486 9.92068 9.90698 9.95583 9.79273C9.9822 9.68727 10.0613 9.53787 10.1228 9.46756C10.2634 9.29179 10.3513 8.94026 10.2458 8.94026C10.2019 8.94026 10.1668 8.97542 10.1668 9.02815ZM8.80457 9.93334C8.90124 9.9597 8.81336 9.97728 8.61123 9.98607C8.22454 9.99486 8.15423 9.93334 8.33879 9.74879C8.41788 9.66969 8.46182 9.67848 8.53213 9.77515C8.58486 9.83667 8.7079 9.90698 8.80457 9.93334Z" fill="black"/>
<path d="M5.94727 10.8824C5.94727 11.0582 6.27243 11.4888 6.41304 11.4888C6.47456 11.4888 6.4482 11.4449 6.36032 11.3922C6.26364 11.3394 6.14061 11.1725 6.0703 11.0143C6.00878 10.8649 5.95605 10.8033 5.94727 10.8824Z" fill="black"/>
<path d="M7.90785 13.932C8.13635 14.1605 8.45273 14.4242 8.61092 14.512L8.89214 14.679L8.62849 14.4154C8.48788 14.266 8.2506 14.0023 8.1012 13.8353C7.96058 13.6596 7.75845 13.519 7.66178 13.5102C7.52996 13.5102 7.58269 13.5981 7.90785 13.932Z" fill="black"/>
<path d="M8.32129 15.5754C8.32129 15.7336 10.0262 18.3437 10.0877 18.2822C10.1844 18.1767 11.8366 15.5315 11.8015 15.5315C11.7839 15.5315 11.5993 15.593 11.3972 15.6633C10.7908 15.8742 9.30558 15.839 8.52342 15.5842C8.40917 15.549 8.32129 15.549 8.32129 15.5754ZM10.2371 17.0343L9.99106 17.2715L9.74499 17.043L9.49892 16.8145L9.75378 16.5861L10.0174 16.3576L10.2459 16.5773L10.4744 16.8058L10.2371 17.0343Z" fill="black"/>
<path d="M4.1847 1.89478L4.37306 2.40381L4.88209 2.59217L4.37306 2.78053L4.1847 3.28956L3.99634 2.78053L3.4873 2.59217L3.99634 2.40381L4.1847 1.89478Z" fill="white"/>
<path d="M9.7638 0.5L9.95216 1.00903L10.4612 1.19739L9.95216 1.38575L9.7638 1.89479L9.57544 1.38575L9.06641 1.19739L9.57544 1.00903L9.7638 0.5Z" fill="white"/>
<path d="M13.9474 1.89478L14.1358 2.40381L14.6448 2.59217L14.1358 2.78053L13.9474 3.28956L13.759 2.78053L13.25 2.59217L13.759 2.40381L13.9474 1.89478Z" fill="white"/>
</g>
<defs>
<clipPath id="clip0_5169_34101">
<rect width="20" height="20" fill="white"/>
</clipPath>
</defs>
</svg>
