<svg width="20" height="20" viewBox="0 0 20 20" fill="none" xmlns="http://www.w3.org/2000/svg">
<g clip-path="url(#clip0_562_2367)">
<path opacity="0.73" d="M6.66992 3.33347L10.0053 -0.00195312L13.3408 3.33347L10.0053 6.6689L6.66992 3.33347Z" fill="#00CDD7"/>
<path opacity="0.43" d="M6.6709 16.6684L10.0063 13.333L13.3418 16.6684L10.0063 20.0038L6.6709 16.6684Z" fill="#00CDD7"/>
<path opacity="0.48" d="M3.77734 14.1085L8.33369 12.8877L9.55442 17.4439L4.99817 18.6647L3.77734 14.1085Z" fill="#00CDD7"/>
<path opacity="0.18" d="M10.4443 2.56253L15.0005 1.3418L16.2213 5.89795L11.6651 7.11878L10.4443 2.56253Z" fill="#00CDD7"/>
<path opacity="0.53" d="M1.33789 15.0006L2.55862 10.4443L7.11497 11.6652L5.89414 16.2213L1.33789 15.0006Z" fill="#00CDD7"/>
<path opacity="0.23" d="M12.8809 8.33067L14.1016 3.77441L18.6579 4.99524L17.4371 9.5514L12.8809 8.33067Z" fill="#00CDD7"/>
<path opacity="0.58" d="M0.00292969 10.0026L3.33835 6.66699L6.67378 10.0025L3.33835 13.3379L0.00292969 10.0026Z" fill="#00CDD7"/>
<path opacity="0.28" d="M13.332 9.99373L16.6675 6.6582L20.0029 9.99373L16.6675 13.3292L13.332 9.99373Z" fill="#00CDD7"/>
<path opacity="0.63" d="M1.33398 4.99905L5.89024 3.77832L7.11106 8.33448L2.55472 9.55531L1.33398 4.99905Z" fill="#00CDD7"/>
<path opacity="0.33" d="M12.8799 11.666L17.4361 10.4453L18.6569 15.0015L14.1007 16.2223L12.8799 11.666Z" fill="#00CDD7"/>
<path opacity="0.68" d="M3.77734 5.89883L4.99808 1.34277L9.55432 2.5635L8.3335 7.11975L3.77734 5.89883Z" fill="#00CDD7"/>
<path opacity="0.38" d="M10.4473 17.442L11.668 12.8857L16.2242 14.1066L15.0035 18.6627L10.4473 17.442Z" fill="#00CDD7"/>
</g>
<defs>
<clipPath id="clip0_562_2367">
<rect width="20" height="20" fill="white"/>
</clipPath>
</defs>
</svg>
