<svg width="20" height="20" viewBox="0 0 20 20" fill="none" xmlns="http://www.w3.org/2000/svg">
<circle cx="10" cy="10" r="10" fill="white"/>
<path d="M10.2326 3.12851C10.1194 3.20402 10.0061 3.24177 9.98723 3.21346C9.95891 3.19458 9.88341 3.23233 9.81734 3.31728C9.75127 3.39279 9.73239 3.45885 9.76071 3.45885C9.79846 3.45885 9.70408 3.57211 9.56251 3.72313C8.88295 4.39325 8.66587 5.30876 9.06227 5.83731C9.18497 6.0072 9.27936 6.19596 9.27936 6.26203C9.27936 6.3281 9.31711 6.38473 9.3643 6.38473C9.41149 6.38473 9.42093 6.42248 9.39262 6.47911C9.3643 6.5263 9.40205 6.5735 9.487 6.5735C9.57194 6.5735 9.66633 6.649 9.69464 6.74338C9.76071 7.00766 10.2987 7.00766 10.5441 6.74338C10.7329 6.53574 10.9216 6.15821 10.9311 5.96944C10.9311 5.92225 10.9688 5.85618 11.016 5.82787C11.1481 5.73349 11.3275 5.35595 11.3275 5.18606C11.3275 4.97842 11.1104 4.37437 11.0066 4.29886C10.9594 4.26111 10.9311 4.12897 10.9311 3.9874C10.9311 3.85526 10.8933 3.742 10.8461 3.742C10.7989 3.742 10.7612 3.67593 10.7612 3.59099C10.7612 3.49661 10.714 3.45885 10.6196 3.49661C10.4875 3.5438 10.4875 3.53436 10.6196 3.34559C10.6951 3.2229 10.7612 3.1002 10.7612 3.06244C10.7612 2.93975 10.4403 2.9775 10.2326 3.12851Z" fill="#1983F0"/>
<path d="M4.34302 4.01573C4.34302 4.06292 4.39965 4.11955 4.46571 4.14786C4.52234 4.16674 4.39021 4.16674 4.15425 4.14786C2.88008 4.01573 1.86074 4.87461 1.8513 6.09215C1.8513 6.36586 1.83243 6.54519 1.81355 6.48856C1.79467 6.43193 1.73804 6.38474 1.68141 6.38474C1.50209 6.38474 1.64366 7.46071 1.87018 7.77217C1.98344 7.93262 2.07782 8.13083 2.07782 8.21577C2.07782 8.37622 2.50255 8.8387 2.65356 8.8387C2.70075 8.8387 2.68187 8.93308 2.60637 9.04634C2.42704 9.33893 2.33266 9.78253 2.45536 9.78253C2.50255 9.78253 2.54974 9.75422 2.54974 9.70703C2.54974 9.62208 2.94615 9.20679 3.17267 9.05578C3.27649 8.98971 3.51245 8.82926 3.71065 8.69713C3.90885 8.56499 4.09762 8.46117 4.13537 8.46117C4.27695 8.46117 5.09808 7.55509 5.09808 7.40408C5.09808 7.36632 5.01314 7.32857 4.90932 7.32857C4.80549 7.32857 4.72055 7.36632 4.72055 7.42295C4.72055 7.47015 4.6356 7.55509 4.52234 7.61172C4.34302 7.71554 4.33358 7.7061 4.4374 7.52678C4.49403 7.41352 4.57897 7.32857 4.62617 7.32857C4.6828 7.32857 4.72055 7.28138 4.72055 7.21531C4.72055 7.08318 5.4473 6.40362 5.67382 6.33755C5.91921 6.2526 5.90034 6.10159 5.6455 6.10159C5.42842 6.09215 5.42842 6.09215 5.66438 5.96002C5.79652 5.88451 5.97584 5.82788 6.07023 5.81844C6.30618 5.81844 6.26843 5.54473 6.02304 5.44091C5.85315 5.3654 5.94753 5.35596 6.40057 5.37484C6.9008 5.40316 6.98574 5.38428 6.98574 5.24271C6.98574 5.01619 6.19292 4.38382 5.59831 4.13842C5.10752 3.93078 4.34302 3.85527 4.34302 4.01573Z" fill="black"/>
<path d="M14.3855 4.14782C13.8286 4.39322 13.0264 5.01615 13.0264 5.21435C13.0264 5.31817 13.1679 5.34649 13.621 5.35592C14.1118 5.35592 14.1684 5.3748 13.9985 5.45975C13.7437 5.58244 13.7154 5.8184 13.9513 5.8184C14.0363 5.82784 14.2156 5.88447 14.3477 5.95998C14.5837 6.09211 14.5837 6.09211 14.376 6.10155C14.1118 6.10155 14.0929 6.25256 14.3383 6.33751C14.5648 6.40358 15.2916 7.08313 15.2916 7.21527C15.2916 7.28134 15.3293 7.32853 15.3765 7.32853C15.4237 7.32853 15.5275 7.44179 15.6219 7.57393C15.7729 7.80045 15.7729 7.80988 15.5936 7.7155C15.4992 7.66831 15.3671 7.55505 15.2916 7.47954C15.1311 7.28134 15.0084 7.29078 15.0084 7.50786C15.0084 7.68719 15.5653 8.2818 15.9239 8.48944C16.0277 8.55551 16.2637 8.67821 16.4336 8.78203C16.6129 8.87641 16.7923 9.01799 16.83 9.08406C16.8678 9.15956 16.9716 9.21619 17.0376 9.21619C17.1132 9.21619 17.1792 9.28226 17.1792 9.35777C17.1792 9.43327 17.2642 9.5371 17.368 9.59373C17.5284 9.67867 17.5568 9.66923 17.5568 9.48047C17.5568 9.35777 17.5001 9.17844 17.4246 9.07462C17.3114 8.90473 17.3208 8.86698 17.6134 8.64989C17.7927 8.51776 17.9343 8.32899 17.9343 8.21573C17.9343 8.10247 18.0287 7.90427 18.1325 7.76269C18.2741 7.57393 18.3496 7.32853 18.3779 6.87549C18.4156 6.25256 18.4156 6.24313 18.2458 6.45077C18.0759 6.66785 18.0759 6.66785 18.1042 6.16762C18.1419 5.54469 17.8777 4.88401 17.4435 4.56311C17.066 4.27996 16.2543 4.08175 15.7824 4.14782C15.5936 4.17614 15.4898 4.17614 15.5558 4.14782C15.6125 4.12894 15.6691 4.06288 15.6691 4.01568C15.6691 3.85523 14.8668 3.94018 14.3855 4.14782Z" fill="black"/>
<path d="M4.94731 10.2639C4.71136 10.3866 4.43764 10.8208 4.43764 11.0945C4.43764 11.3116 4.57922 11.3588 4.65473 11.17C4.69248 11.0945 4.71136 11.1039 4.71136 11.2077C4.72079 11.2832 4.6736 11.3965 4.62641 11.4437C4.56034 11.5098 4.58866 11.6797 4.71136 11.9817C4.92844 12.4819 4.90012 12.5763 4.6736 12.1421C4.45652 11.7174 4.34326 11.8024 4.34326 12.397C4.34326 12.9821 4.53203 13.4069 4.98507 13.8316C5.28709 14.1053 6.10823 14.5017 6.40081 14.5017C6.59902 14.5017 6.60846 14.464 6.60846 13.8599C6.60846 13.388 6.65565 13.152 6.79722 12.9444L6.98599 12.6612V12.9161C6.98599 13.0671 7.0143 13.1803 7.04262 13.1803C7.07093 13.1803 7.28801 12.9916 7.52397 12.7556C7.75993 12.5197 8.07139 12.2648 8.21297 12.1893C8.47724 12.0572 8.75095 11.5664 8.64713 11.4059C8.61882 11.3588 8.48668 11.3399 8.35454 11.3682C8.22241 11.3871 8.01476 11.3399 7.88263 11.2549C7.75993 11.17 7.60892 11.1039 7.55229 11.1039C7.49566 11.1039 7.40127 11.0567 7.33521 11.0095C6.53295 10.33 5.4853 10.0091 4.94731 10.2639Z" fill="black"/>
<path d="M13.8759 10.2922C13.6966 10.3677 13.3379 10.5471 13.0737 10.7075C12.2714 11.2077 11.7901 11.4059 11.5541 11.3493C11.3276 11.2927 11.2804 11.3588 11.3276 11.6608C11.3465 11.8307 11.6674 12.1421 12.1676 12.4725C12.3941 12.6235 12.6206 12.85 12.6773 12.9633C12.8 13.237 13.0076 13.2464 13.0454 12.9633C13.102 12.5574 13.404 13.3974 13.404 13.9732C13.404 14.4451 13.4229 14.5017 13.6022 14.5017C14.0647 14.5017 15.2917 13.7561 15.2917 13.4729C15.2917 13.4163 15.3294 13.3691 15.3672 13.3691C15.5276 13.3691 15.6692 12.8783 15.6692 12.3309C15.6692 11.708 15.5654 11.6136 15.3389 12.0477C15.1312 12.4442 15.1029 12.397 15.2539 11.9439C15.3294 11.7268 15.3672 11.472 15.3389 11.3776C15.2917 11.2455 15.32 11.2172 15.4238 11.2549C15.7825 11.3965 15.4049 10.4338 15.0368 10.2639C14.7443 10.1318 14.2912 10.1412 13.8759 10.2922Z" fill="black"/>
<path d="M8.09968 14.8131C7.79765 15.0491 7.9581 15.9174 8.29788 15.9174C8.35451 15.9174 8.4017 15.8608 8.4017 15.7853C8.4017 15.7003 8.49609 15.7475 8.67541 15.908C8.82643 16.0401 8.93969 16.1628 8.93025 16.1817C8.8925 16.2194 8.26957 16.0024 7.99586 15.8514C7.70327 15.7003 7.59001 15.7381 7.67495 15.9552C7.75046 16.1534 8.69429 16.7669 8.92081 16.7669C9.02463 16.7669 9.31722 16.8329 9.57205 16.9084C9.99678 17.0406 10.1006 17.0311 10.7707 16.8707C11.5352 16.6819 12.0071 16.446 12.2997 16.1062C12.5357 15.823 12.4791 15.5682 12.2148 15.8136C12.111 15.9269 11.0256 16.3044 10.9689 16.2572C10.95 16.2383 11.0256 16.1911 11.1388 16.1534C11.2426 16.1156 11.4408 15.974 11.5635 15.8419C11.7523 15.6343 11.7995 15.6248 11.7995 15.757C11.7995 15.974 11.875 15.9646 12.0921 15.7003C12.4885 15.2284 12.1393 14.6055 11.5447 14.7188C10.11 14.9925 10.0251 14.9925 9.43048 14.8792C8.44889 14.6904 8.26957 14.681 8.09968 14.8131Z" fill="black"/>
</svg>
