<svg width="20" height="20" viewBox="0 0 20 20" fill="none" xmlns="http://www.w3.org/2000/svg">
<rect x="1" y="0.858521" width="18" height="18" fill="white"/>
<path fill-rule="evenodd" clip-rule="evenodd" d="M1.01427 0.00675415C0.479734 0.0689577 0.0653603 0.491422 0.00812705 1.03253C0.000936634 1.10051 -0.0013535 3.91084 0.000746623 10.0667C0.00368679 18.6681 0.00448684 19.005 0.0220078 19.0772C0.0805912 19.3186 0.177917 19.4972 0.338186 19.6575C0.522847 19.8422 0.762911 19.9577 1.0218 19.9866C1.15321 20.0012 18.8453 20.0016 18.9745 19.9869C19.5099 19.9262 19.9294 19.5072 19.9889 18.9739C20.0035 18.8429 20.0038 1.15057 19.9892 1.02119C19.9475 0.651101 19.7304 0.323872 19.4074 0.144002C19.3185 0.0945192 19.1963 0.0483165 19.0779 0.0194449C19.0077 0.00231389 18.6172 0.00148384 10.044 0.000123766C5.11569 -0.000656279 1.05232 0.00233389 1.01427 0.00675415ZM16.7328 2.34696C17.0064 2.40269 17.2617 2.56329 17.4305 2.78578C17.5363 2.92532 17.6258 3.14729 17.6493 3.32852C17.6569 3.38702 17.6592 5.35767 17.6572 10.0417L17.6543 16.6721L17.632 16.7544C17.5148 17.1885 17.2169 17.4931 16.7993 17.6062C16.5994 17.6603 17.0192 17.6572 9.92615 17.6572C4.10467 17.6572 3.37139 17.6555 3.2924 17.6419C2.83856 17.5639 2.48504 17.2404 2.36025 16.7888L2.33353 16.6921V9.99171V3.29132L2.35529 3.21041C2.40456 3.02725 2.48532 2.86602 2.59003 2.74178C2.77685 2.5201 3.0259 2.38038 3.31859 2.33304C3.33234 2.33081 6.3333 2.32838 9.9874 2.32763L16.6312 2.32627L16.7328 2.34696ZM4.04863 9.98651V15.9471H5.63261H7.2166L7.21289 15.8645C7.21085 15.8192 7.20459 15.0823 7.19898 14.227C7.19336 13.3717 7.1862 12.59 7.18306 12.49L7.17735 12.3081L8.25064 12.304C9.39842 12.2996 9.39006 12.2999 9.68486 12.2466C10.4007 12.1171 11.032 11.7879 11.582 11.2574C11.9195 10.932 12.2282 10.4762 12.4377 9.99417C12.63 9.55176 12.7515 9.10152 12.8108 8.61163C12.829 8.46177 12.829 7.837 12.811 7.70658C12.7381 7.18138 12.6268 6.81674 12.3943 6.3415C11.9746 5.48355 11.344 4.82711 10.5431 4.41455C10.1533 4.2137 9.8405 4.11386 9.39822 4.04909C9.29409 4.03384 9.05119 4.03207 6.66628 4.02916L4.04863 4.02597V9.98651ZM8.91276 6.92076C9.13016 6.97767 9.29977 7.09431 9.4158 7.2667C9.51995 7.42145 9.59857 7.60946 9.63596 7.79319C9.66286 7.92535 9.66245 8.48294 9.63536 8.60623C9.55674 8.96411 9.36406 9.25416 9.12732 9.37101C8.9701 9.44862 9.00346 9.44631 8.03636 9.44651L7.17881 9.44668V8.17828C7.17881 7.48065 7.182 6.90667 7.18591 6.90277C7.18981 6.89887 7.56445 6.89726 8.01846 6.8992C8.77467 6.90244 8.84968 6.90424 8.91276 6.92076ZM8.58889 14.842V15.9671H12.2691H15.9493V14.842V13.7169H12.2691H8.58889V14.842Z" fill="#2D8EFF"/>
</svg>
