<svg width="20" height="20" viewBox="0 0 20 20" fill="none" xmlns="http://www.w3.org/2000/svg">
<path fill-rule="evenodd" clip-rule="evenodd" d="M0 10C0 12.7017 1.0714 15.1532 2.8125 16.9527L17.1107 2.96875C17.0586 2.91609 17.0059 2.864 16.9527 2.8125C15.1532 1.0714 12.7017 0 10 0C4.47715 0 0 4.47715 0 10Z" fill="#5900F7"/>
<path d="M10 20C15.5228 20 20 15.5228 20 10C20 7.25877 18.897 4.77516 17.1107 2.96875L2.8125 16.9527C4.63057 18.8318 7.17886 20 10 20Z" fill="#333333"/>
<path d="M13.6629 6.3459L13.6237 6.30639C13.6041 6.28666 13.6041 6.28666 13.5848 6.26691L11.5867 8.28182C11.6063 8.30158 11.6063 8.30158 11.6259 8.32134L11.6652 8.36085C13.9176 10.6523 14.3681 13.0821 13.7022 13.7538C13.4671 13.9908 13.0559 14.0501 12.762 14.0304C11.4887 14.0106 9.76486 13.1019 8.35455 11.6993L8.31533 11.6598C8.29601 11.6401 8.29601 11.6401 8.2764 11.6203L6.27832 13.6353C6.29793 13.655 6.29793 13.655 6.31754 13.6748L6.35677 13.7143C8.31533 15.67 10.6857 16.8552 12.7031 16.875C12.7227 16.875 12.762 16.875 12.7816 16.875C13.9568 16.875 14.9559 16.4799 15.6806 15.749C16.7578 14.6625 17.0713 13.0031 16.5424 11.0869C16.1115 9.46708 15.0732 7.76823 13.6629 6.3459Z" fill="url(#paint0_linear_4961_59890)"/>
<path d="M5.96551 7.17565C5.96551 6.87935 6.00473 6.4645 6.23978 6.22743C6.43561 6.0299 6.74882 5.95088 7.14076 5.95088C7.43465 5.95088 7.76747 6.01015 8.12019 6.10893C9.25622 6.42499 10.5099 7.21517 11.5871 8.30165L13.5852 6.2867C12.1553 4.8644 10.4903 3.83717 8.88417 3.38282C6.98387 2.84945 5.33851 3.14577 4.24171 4.252C3.49733 5.00266 3.125 6.0299 3.125 7.25468C3.16422 9.30911 4.32015 11.6994 6.2591 13.6748L8.27679 11.6006C6.8861 10.1981 5.98512 8.45969 5.96551 7.17565Z" fill="url(#paint1_linear_4961_59890)"/>
<defs>
<linearGradient id="paint0_linear_4961_59890" x1="10.2436" y1="15.1368" x2="17.9957" y2="7.96596" gradientUnits="userSpaceOnUse">
<stop stop-color="#00FFFF"/>
<stop offset="1" stop-color="#5900F7" stop-opacity="0"/>
</linearGradient>
<linearGradient id="paint1_linear_4961_59890" x1="0.745365" y1="12.7209" x2="10.4618" y2="4.65972" gradientUnits="userSpaceOnUse">
<stop stop-color="#5900F7" stop-opacity="0"/>
<stop offset="1" stop-color="white"/>
</linearGradient>
</defs>
</svg>
