<svg width="20" height="20" viewBox="0 0 20 20" fill="none" xmlns="http://www.w3.org/2000/svg">
<path d="M4.42929 13.4218V15.5571H6.56896V15.0233H9.51104V19.7133C4.58212 19.4464 0.570196 15.4046 0.302734 10.4858H5.00242V13.3837L4.42929 13.4218Z" fill="#005CC7"/>
<path d="M13.5231 15.0233V15.5571H15.6628V13.4218H15.1279V10.5239H19.8276C19.5601 15.4427 15.51 19.4463 10.5811 19.7133V15.0233H13.5231Z" fill="#005CC7"/>
<path d="M9.51104 4.99507H13.5612V4.34682H15.7009V6.71091H13.5612V6.0627H9.51104V10.4858L14.0961 10.5239V13.4218H13.5612V13.9556H6.56896V13.4218H6.07225V6.48212H6.60717V4.34682H4.4675V6.48212H5.00242V9.37999H0.302734C0.570196 4.46124 4.62033 0.457586 9.51104 0.190674V4.99507Z" fill="#005CC7"/>
</svg>
