<svg width="20" height="20" viewBox="0 0 20 20" fill="none" xmlns="http://www.w3.org/2000/svg">
<g clip-path="url(#clip0_6128_51040)">
<path d="M10.0007 0C4.49342 0 0.0126953 4.48668 0.0126953 10C0.0126953 15.5133 4.49341 20 9.99938 20C15.5067 20 19.9874 15.5133 19.9874 10C19.9887 4.48668 15.508 0 10.0007 0Z" fill="#005596"/>
<path d="M10.0007 0C4.49342 0 0.0126953 4.48668 0.0126953 10C0.0126953 15.5133 4.49341 20 9.99938 20C15.5067 20 19.9874 15.5133 19.9874 10C19.9887 4.48668 15.508 0 10.0007 0ZM10.0007 19.9293C4.53334 19.9293 0.085944 15.476 0.085944 10C0.085944 4.52532 4.53334 0.0719999 10.0007 0.0719999C15.4694 0.0719999 19.9155 4.52532 19.9155 10C19.9155 15.476 15.4681 19.9293 10.0007 19.9293Z" fill="#005596"/>
<g opacity="0.8">
<path d="M10.0007 0C4.49342 0 0.0126953 4.48668 0.0126953 10C0.0126953 15.5133 4.49341 20 9.99938 20C15.5067 20 19.9874 15.5133 19.9874 10C19.9887 4.48668 15.508 0 10.0007 0ZM10.0007 19.9293C4.53334 19.9293 0.085944 15.4746 0.085944 10C0.085944 4.52532 4.53334 0.0719999 10.0007 0.0719999C15.4694 0.0719999 19.9155 4.52532 19.9155 10C19.9155 15.4746 15.4681 19.9293 10.0007 19.9293Z" fill="url(#paint0_linear_6128_51040)"/>
</g>
<path d="M10.0078 4.61332C7.01587 4.61332 4.58174 7.04803 4.58174 10.0413C4.58174 13.036 7.01587 15.4693 10.0078 15.4693C12.9999 15.4693 15.4353 13.0347 15.4353 10.0413C15.434 7.04801 12.9999 4.61332 10.0078 4.61332ZM5.48458 12.316C5.13969 11.632 4.94526 10.86 4.94526 10.0413C4.94526 7.48797 6.83475 5.37467 9.29415 5.02799C9.07178 8.28265 7.71494 10.6427 5.48458 12.316ZM11.8241 14.768C11.2609 14.9853 10.6483 15.1053 10.0078 15.1053C9.36606 15.1053 8.75619 14.9853 8.19161 14.768C7.98655 14.456 7.86672 14.088 7.86672 13.6907C7.86672 12.5667 8.82678 11.6547 10.0079 11.6547C11.1903 11.6547 12.1503 12.5667 12.1503 13.6907C12.1503 14.0853 12.0305 14.456 11.8241 14.768ZM14.5312 12.316C12.3008 10.6413 10.9453 8.28265 10.7229 5.02799C13.181 5.376 15.0718 7.48799 15.0718 10.0413C15.0704 10.86 14.876 11.632 14.5312 12.316ZM16.5085 3.50267C14.7695 1.76533 12.4593 0.807999 10.0012 0.807999C7.54446 0.807999 5.23289 1.76532 3.49523 3.50267C1.7562 5.24133 0.798828 7.55335 0.798828 10.0107C0.798828 12.4693 1.7562 14.78 3.49386 16.52C5.23154 18.2587 7.54315 19.2133 9.99987 19.2133C12.4579 19.2133 14.7695 18.2587 16.5072 16.52C18.2448 14.78 19.2023 12.4693 19.2023 10.0107C19.2036 7.55335 18.2462 5.24135 16.5085 3.50267ZM10.0012 18.852C5.12107 18.852 1.16365 14.8853 1.16365 9.99332C1.16365 5.10133 5.11971 1.136 10.0012 1.136C14.8827 1.136 18.8401 5.10133 18.8401 9.99203C18.8387 14.8853 14.8827 18.852 10.0012 18.852Z" fill="white"/>
<path d="M14.2579 12.8374C13.8491 13.4587 13.3111 13.9853 12.6786 14.3773C12.7026 14.2427 12.7146 14.104 12.7146 13.964C12.7146 12.556 11.4962 11.4147 9.99289 11.4147C8.48821 11.4147 7.26985 12.556 7.26985 13.964C7.26985 14.1054 7.28185 14.2427 7.3058 14.3773C6.67331 13.9853 6.13403 13.4573 5.72656 12.836C6.67198 12.072 7.47892 11.176 8.10474 10.136H11.8784C12.5056 11.176 13.3138 12.0733 14.2579 12.8374ZM10.4576 4.94802C10.3045 4.93467 10.1501 4.92532 9.99422 4.92532C9.83575 4.92532 9.67996 4.93467 9.52684 4.94802C9.49221 6.88266 9.01951 8.536 8.2219 9.93734H11.7625C10.9636 8.536 10.4935 6.88266 10.4576 4.94802Z" fill="#EF3E42"/>
<path opacity="0.8" d="M14.2579 12.8373C13.8492 13.4587 13.3112 13.9853 12.6787 14.3773" stroke="white" stroke-width="0.0636" stroke-miterlimit="10"/>
<path d="M10.1756 14.3237C10.1157 14.2878 10.0704 14.2278 10.0544 14.1586C10.0478 14.132 10.0224 14.1133 9.99449 14.1133C9.96521 14.1133 9.94122 14.132 9.93459 14.1586C9.91859 14.2278 9.87198 14.2865 9.81339 14.3237C9.80272 14.3304 9.80009 14.3344 9.80539 14.3437C9.84134 14.4156 9.90259 14.5048 9.97716 14.5647C9.98782 14.574 9.99182 14.574 9.99448 14.574C9.99582 14.574 9.9998 14.574 10.0104 14.5647C10.0863 14.5048 10.1463 14.4156 10.1822 14.3437C10.1862 14.3344 10.1862 14.3304 10.1756 14.3237Z" fill="#D0B15E"/>
<path d="M10.3484 13.1773C10.3484 12.968 10.0755 12.3173 9.99422 12.3173C9.98757 12.3173 9.98093 12.3213 9.97293 12.328C9.87437 12.4067 9.63867 12.9853 9.63867 13.1787C9.63867 13.3333 9.95293 13.7453 9.95293 13.968C9.95293 13.9907 9.97027 14.0094 9.99422 14.0094C10.0169 14.0094 10.0355 13.9907 10.0355 13.968C10.0355 13.968 10.0355 13.968 10.0355 13.9667C10.0355 13.7427 10.3484 13.332 10.3484 13.1773Z" fill="#D0B15E"/>
<path d="M9.81705 13.9472C9.6692 13.5584 9.41492 13.3453 9.15127 13.3453C8.95154 13.3453 8.78906 13.5078 8.78906 13.7075C8.78906 13.9072 8.95018 14.0697 9.15127 14.0697C9.20985 14.0697 9.27376 14.0404 9.30302 14.0071C9.35629 13.9472 9.34431 13.8886 9.33897 13.8766C9.33367 13.8633 9.32034 13.866 9.31504 13.866C9.30972 13.8673 9.29905 13.8686 9.29371 13.8686C9.22713 13.8686 9.17251 13.8141 9.17251 13.7475C9.17251 13.6809 9.22713 13.6263 9.29371 13.6263C9.41223 13.6263 9.62127 13.7408 9.73447 13.9844V13.9858C9.73447 13.9858 9.73447 13.9871 9.73447 13.9885C9.74247 14.0018 9.75842 14.0124 9.77576 14.0124C9.79972 14.0111 9.81968 13.9911 9.81968 13.9672C9.81968 13.9579 9.81836 13.9525 9.81705 13.9472Z" fill="#D0B15E"/>
<path d="M10.8251 13.3453C10.5614 13.3453 10.3071 13.5584 10.1593 13.9472C10.1566 13.9525 10.1553 13.9579 10.1553 13.9658C10.1553 13.9898 10.1739 14.0098 10.1992 14.0111C10.2166 14.0111 10.2312 14.0004 10.2392 13.9871C10.2392 13.9858 10.2405 13.9844 10.2405 13.9844V13.9831C10.3537 13.7395 10.5627 13.625 10.6813 13.625C10.7479 13.625 10.8025 13.6795 10.8025 13.7461C10.8025 13.8127 10.7492 13.8673 10.6813 13.8673C10.6746 13.8673 10.6653 13.866 10.6599 13.8646C10.6546 13.8646 10.6414 13.8606 10.636 13.8753C10.6307 13.8873 10.62 13.9458 10.6733 14.0058C10.7039 14.0391 10.7665 14.0684 10.8251 14.0684C11.0248 14.0684 11.1872 13.9059 11.1872 13.7062C11.1859 13.5078 11.0248 13.3453 10.8251 13.3453Z" fill="#D0B15E"/>
<path opacity="0.7" d="M9.33898 13.876C9.34036 13.88 9.34165 13.884 9.34302 13.8893C9.34302 13.896 9.34036 13.9013 9.33898 13.908C9.33235 13.896 9.32036 13.8973 9.31506 13.8987C9.30973 13.8987 9.29906 13.9 9.29372 13.9C9.22715 13.9 9.17253 13.8453 9.17253 13.7787C9.17253 13.772 9.1739 13.768 9.1739 13.7613C9.1819 13.82 9.23247 13.8667 9.29372 13.8667C9.29905 13.8667 9.30972 13.8653 9.31506 13.864C9.32034 13.8653 9.33367 13.8627 9.33898 13.876ZM10.825 13.3453C10.5614 13.3453 10.307 13.5587 10.1592 13.948C10.1592 13.948 10.1579 13.9493 10.1579 13.9507C10.1566 13.956 10.1552 13.96 10.1552 13.9667C10.1552 13.9733 10.1552 13.9773 10.1579 13.9826C10.1593 13.9826 10.1592 13.9813 10.1592 13.98C10.1619 13.9733 10.1646 13.968 10.1673 13.9626C10.315 13.5853 10.5667 13.3773 10.8263 13.3773C11.0141 13.3773 11.1686 13.5213 11.1859 13.7067C11.1859 13.7013 11.1872 13.696 11.1872 13.6906C11.1872 13.696 11.1886 13.7013 11.1886 13.7067C11.1859 13.508 11.0248 13.3453 10.825 13.3453ZM10.6812 13.868C10.6746 13.868 10.6652 13.8667 10.6599 13.8653C10.6546 13.8653 10.6413 13.8613 10.636 13.876C10.6346 13.88 10.6333 13.8853 10.6319 13.8894C10.6319 13.892 10.6306 13.8947 10.6306 13.8973C10.6306 13.9 10.6306 13.9013 10.6306 13.904C10.6306 13.9054 10.6306 13.9067 10.6306 13.9094C10.6306 13.9133 10.6306 13.9174 10.6319 13.92C10.6319 13.9213 10.6319 13.9213 10.6319 13.9227C10.6333 13.916 10.6346 13.912 10.636 13.9107C10.636 13.9107 10.636 13.9107 10.636 13.9094C10.6426 13.8973 10.6545 13.8987 10.6599 13.9C10.6652 13.9 10.6759 13.9013 10.6812 13.9013C10.7478 13.9013 10.8024 13.8467 10.8024 13.78C10.8024 13.7733 10.8024 13.7693 10.801 13.7627C10.793 13.8213 10.7425 13.868 10.6812 13.868ZM9.63858 13.1547C9.63858 13.1627 9.63858 13.1693 9.63858 13.1773C9.63858 13.18 9.63858 13.1827 9.63996 13.188C9.63996 13.1814 9.64126 13.1746 9.64126 13.1693C9.66657 12.9453 9.87961 12.4347 9.97285 12.36C9.98085 12.3534 9.98748 12.3493 9.99414 12.3493C10.0701 12.3493 10.3163 12.9227 10.3444 13.1653C10.3457 13.1613 10.347 13.156 10.347 13.1534C10.3297 12.924 10.0727 12.316 9.99414 12.316C9.98748 12.316 9.98085 12.32 9.97285 12.3267C9.87428 12.4053 9.63858 12.984 9.63858 13.1773C9.63858 13.1707 9.63858 13.1627 9.63858 13.1547ZM9.81705 13.9507C9.67057 13.5613 9.41492 13.3453 9.15127 13.3453C8.95154 13.3453 8.78906 13.508 8.78906 13.708C8.78906 13.7013 8.78906 13.6973 8.78906 13.692C8.78906 13.6987 8.78906 13.7027 8.78906 13.708C8.78906 13.7133 8.78906 13.7187 8.78906 13.724C8.79039 13.7187 8.7904 13.712 8.79173 13.708C8.80902 13.5227 8.9635 13.3787 9.15127 13.3787C9.41089 13.3787 9.66123 13.5867 9.80905 13.964C9.81302 13.9587 9.81569 13.9547 9.81705 13.9507ZM10.1832 14.3333C10.1832 14.332 10.1832 14.3307 10.1819 14.3293L10.1806 14.328C10.1792 14.328 10.1779 14.3267 10.1765 14.3254C10.1752 14.324 10.1752 14.324 10.1739 14.324C10.114 14.2867 10.0687 14.2267 10.0527 14.1573C10.046 14.1307 10.0208 14.112 9.99278 14.112C9.96348 14.112 9.93953 14.1307 9.93286 14.1573C9.91691 14.2267 9.87029 14.2853 9.8117 14.324C9.81033 14.324 9.80904 14.324 9.80904 14.3254C9.80767 14.3267 9.80637 14.3267 9.805 14.328L9.8037 14.3293C9.80235 14.3307 9.80235 14.332 9.80103 14.3333V14.3347C9.80103 14.336 9.80103 14.3373 9.80103 14.3373L9.82499 14.3466C9.87691 14.3107 9.9182 14.2573 9.93419 14.192C9.94082 14.1653 9.96482 14.1466 9.9941 14.1466C10.022 14.1466 10.0474 14.1653 10.054 14.192C10.0687 14.2573 10.1099 14.3106 10.1619 14.3466L10.1845 14.3373C10.1859 14.3373 10.1832 14.336 10.1832 14.3333Z" fill="url(#paint1_linear_6128_51040)"/>
<path opacity="0.7" d="M10.6812 13.6254C10.5627 13.6254 10.3536 13.74 10.2404 13.984V13.9853C10.2404 13.9853 10.2391 13.9867 10.2391 13.988C10.2311 14.0013 10.2165 14.012 10.1992 14.012C10.1806 14.0106 10.1646 14 10.1579 13.9827C10.1605 13.9747 10.1659 13.9667 10.1659 13.9627C10.1739 13.9733 10.1858 13.9773 10.1992 13.9773C10.2165 13.9787 10.2311 13.968 10.2391 13.9534C10.2391 13.952 10.2404 13.952 10.2404 13.9507C10.2404 13.9507 10.2404 13.9507 10.2404 13.9493C10.3536 13.7067 10.5627 13.592 10.6812 13.592C10.7478 13.592 10.8024 13.6453 10.8024 13.7133C10.8024 13.7186 10.8024 13.724 10.801 13.728C10.793 13.6707 10.7424 13.6254 10.6812 13.6254ZM9.343 13.8893C9.343 13.896 9.34163 13.9013 9.33897 13.908C9.33367 13.928 9.323 13.9493 9.30302 13.9733C9.27239 14.0067 9.20985 14.036 9.15123 14.036C8.96216 14.036 8.80772 13.892 8.79172 13.7067C8.79038 13.712 8.79038 13.7173 8.78906 13.7227C8.78906 13.7173 8.78906 13.7106 8.78906 13.7067C8.78906 13.9067 8.95018 14.0693 9.15123 14.0693C9.20985 14.0693 9.27376 14.04 9.30302 14.0067C9.32833 13.976 9.33897 13.9466 9.343 13.9227V13.9213C9.343 13.9173 9.34431 13.9133 9.34431 13.9093C9.34431 13.9067 9.34431 13.9053 9.34431 13.9027C9.34431 13.9013 9.34431 13.9 9.343 13.8973C9.343 13.8947 9.343 13.892 9.343 13.8893ZM11.1845 13.6907C11.1845 13.696 11.1832 13.7013 11.1832 13.7067C11.1659 13.892 11.0114 14.036 10.8237 14.036C10.7651 14.036 10.7012 14.0067 10.6719 13.9733C10.6519 13.9493 10.6413 13.928 10.6346 13.908C10.6346 13.9094 10.6346 13.9094 10.6346 13.9094C10.6333 13.912 10.6319 13.916 10.6306 13.9213C10.6346 13.9453 10.6439 13.976 10.6705 14.0053C10.7012 14.0387 10.7638 14.068 10.8224 14.068C11.0207 14.068 11.1832 13.9067 11.1845 13.708V13.7053C11.1859 13.7013 11.1845 13.696 11.1845 13.6907ZM9.95282 13.9667C9.95282 13.9893 9.97015 14.008 9.99411 14.008C10.0168 14.008 10.0354 13.9894 10.0354 13.9667C10.0354 13.9667 10.0354 13.9667 10.0354 13.9653C10.0368 13.7466 10.3364 13.3493 10.3483 13.1867C10.3483 13.1827 10.3496 13.18 10.3496 13.1773C10.3496 13.1693 10.3496 13.1627 10.3483 13.1534C10.3483 13.1573 10.347 13.1627 10.3457 13.1653C10.323 13.3333 10.0368 13.7173 10.0354 13.932C10.0354 13.932 10.0354 13.932 10.0354 13.9333C10.0354 13.956 10.0167 13.9746 9.99411 13.9746C9.97015 13.9746 9.95282 13.956 9.95282 13.9333V13.932C9.95282 13.72 9.66654 13.3373 9.64123 13.168C9.63993 13.1733 9.63993 13.18 9.63857 13.1867C9.63857 13.1813 9.63857 13.1787 9.63857 13.176C9.63857 13.332 9.95282 13.744 9.95282 13.9667ZM10.1619 14.3466C10.126 14.4107 10.074 14.4827 10.0114 14.5333C10.0008 14.5427 9.99677 14.5427 9.99545 14.5427C9.99279 14.5427 9.98745 14.5427 9.97816 14.5333C9.91555 14.4827 9.86362 14.4107 9.82634 14.3466L9.80235 14.3373C9.80235 14.3387 9.80372 14.3413 9.80501 14.344C9.80639 14.348 9.81034 14.3534 9.81302 14.3573C9.8503 14.4267 9.90756 14.508 9.97816 14.5653C9.98878 14.5746 9.99279 14.5746 9.99545 14.5746C9.99679 14.5746 10.0008 14.5746 10.0114 14.5653C10.082 14.508 10.1379 14.4267 10.1765 14.3573C10.1792 14.352 10.1819 14.3466 10.1845 14.344C10.1845 14.3413 10.1858 14.3387 10.1858 14.3373L10.1619 14.3466ZM9.81834 13.9827C9.81704 13.9827 9.81704 13.9827 9.81834 13.9827V13.9827ZM9.81966 13.9746C9.81966 13.9733 9.81966 13.9733 9.81966 13.972C9.81966 13.9693 9.82101 13.9667 9.82101 13.9653C9.82101 13.9587 9.81966 13.9547 9.81834 13.9493C9.81704 13.9547 9.81438 13.9587 9.81034 13.9613L9.81834 13.9814C9.81834 13.9814 9.81834 13.9787 9.81966 13.9746ZM9.81704 13.9827L9.80904 13.9627C9.7997 13.9733 9.78904 13.9773 9.77705 13.9773C9.75975 13.9787 9.74513 13.968 9.73576 13.9534C9.73576 13.952 9.73576 13.952 9.73576 13.9507C9.73576 13.9507 9.73576 13.9507 9.73576 13.9493C9.62259 13.7067 9.41223 13.592 9.29503 13.592C9.22845 13.592 9.17387 13.6453 9.17387 13.7133C9.17387 13.7186 9.17517 13.724 9.17517 13.728C9.18318 13.6693 9.23378 13.624 9.29503 13.624C9.41352 13.624 9.62259 13.7387 9.73576 13.9827V13.984C9.73576 13.984 9.73576 13.9853 9.73576 13.9867C9.74376 14 9.75975 14.0107 9.77705 14.0107C9.79572 14.0107 9.81034 14 9.81704 13.9827Z" fill="#897439"/>
<path d="M6.08905 3.52799C6.0464 3.44665 5.98652 3.37201 5.91994 3.31201C5.60034 3.02002 5.07836 3.05999 4.78812 3.37998L3.83203 4.43333V4.49733L5.50047 6.01865L5.53243 5.98531C5.62697 5.88134 5.7042 5.79999 5.82802 5.68401C5.82802 5.68401 5.82536 5.62265 5.82403 5.62398L5.30473 5.1493L5.33802 5.17997L5.70019 4.76531L5.88131 4.55597C5.93989 4.48666 6.00646 4.41863 6.05439 4.33598C6.15159 4.17465 6.19154 3.97995 6.16892 3.79463C6.15825 3.69999 6.1303 3.61067 6.08905 3.52799ZM5.62697 4.18667L5.00248 4.87333L4.44323 4.36265L4.47652 4.39465L4.97186 3.81597C5.01315 3.76798 5.05443 3.71734 5.09568 3.67199C5.13697 3.62798 5.19155 3.59465 5.25014 3.57599C5.36733 3.53999 5.50581 3.56665 5.60169 3.65067C5.75746 3.79198 5.76813 4.03333 5.62697 4.18667Z" fill="url(#paint2_linear_6128_51040)"/>
<path d="M10.8231 1.70533H9.50619L9.50488 4.03866C9.67665 4.02532 9.82977 4.01865 9.96956 4.01865H10.0162V3.32265H10.5808L11.0521 4.06933C11.0734 4.09332 11.0961 4.11068 11.1187 4.12798C11.1427 4.13332 11.1667 4.13733 11.1906 4.14266C11.2399 4.15334 11.2878 4.16265 11.3358 4.17466C11.3837 4.18668 11.433 4.19865 11.4809 4.21066L11.5541 4.22932C11.5821 4.2213 11.6087 4.21597 11.638 4.204L11.0375 3.24534C11.128 3.24134 11.2159 3.21332 11.2971 3.17066C11.3784 3.12798 11.4516 3.07066 11.5142 3.00133C11.5741 2.93066 11.6233 2.84932 11.65 2.75998C11.6793 2.672 11.6846 2.57733 11.666 2.48798C11.666 2.05865 11.2559 1.70533 10.8231 1.70533ZM10.8231 2.87066H10.0175L10.0162 2.16265L10.8231 2.15197C11.0322 2.15197 11.2026 2.28133 11.2026 2.49064C11.2026 2.70133 11.0322 2.87066 10.8231 2.87066Z" fill="url(#paint3_linear_6128_51040)"/>
<path d="M14.102 3.38265C13.8037 3.66533 13.9728 4.10133 14.2351 4.37601L14.4881 4.64401C14.7464 4.91734 14.9728 5.18931 14.7651 5.36133C14.5427 5.54401 13.9236 5.08402 13.552 4.296L13.2178 4.54801C13.2391 4.65198 13.2751 4.75465 13.3176 4.85334C13.371 4.94533 13.4322 5.03333 13.4961 5.11864C13.6239 5.28797 13.7731 5.44266 13.9408 5.576C14.1086 5.70933 14.2963 5.82265 14.5108 5.876C14.6173 5.90266 14.7291 5.91066 14.8396 5.89465C14.9541 5.86933 15.046 5.82132 15.1152 5.72132C15.4601 5.40133 15.3336 4.936 14.7944 4.36666L14.5706 4.13066C14.5067 4.036 14.4814 3.97734 14.4668 3.91865C14.4561 3.87734 14.4521 3.83466 14.4668 3.80133C14.4814 3.76933 14.4974 3.75068 14.524 3.74268C14.5906 3.71068 14.6719 3.74134 14.7464 3.77201C14.8223 3.80401 14.8929 3.84665 14.9608 3.896C15.0966 3.99466 15.2178 4.11468 15.3243 4.24665C15.4295 4.37868 15.5241 4.524 15.5693 4.67998L15.5893 4.74401L15.6426 4.70401C15.6545 4.69333 15.6692 4.68402 15.6825 4.67334C15.6958 4.66399 15.7105 4.65466 15.7224 4.64268L15.9102 4.49866C15.9222 4.46666 15.9289 4.45198 15.9382 4.42533C15.6706 3.66666 14.608 2.90533 14.102 3.38265Z" fill="url(#paint4_linear_6128_51040)"/>
<path d="M13.3912 2.41068C13.246 2.34535 13.1009 2.28669 12.9518 2.22933L12.0889 4.30801C12.0889 4.30801 12.0716 4.35069 12.0703 4.34932L12.0876 4.40668C12.2234 4.45866 12.3579 4.51469 12.491 4.57601L12.535 4.596L13.3925 2.532V2.41068H13.3912V2.41068Z" fill="url(#paint5_linear_6128_51040)"/>
<path d="M9.19429 3.98401L7.46859 2.08668C7.30481 2.14 7.14499 2.19598 6.98655 2.25865L6.8188 4.81468C6.81743 4.82532 6.81348 4.90266 6.81348 4.90266C6.96525 4.80933 7.17433 4.7 7.33543 4.62132L7.36205 4.02398C7.65766 3.89732 7.96392 3.78932 8.27682 3.704L8.66831 4.15465C8.84539 4.11734 9.08374 4.07997 9.25951 4.05732L9.22622 4.01865L9.19429 3.98401ZM7.37803 3.55598L7.41132 2.71068L7.96794 3.34801C7.76686 3.41068 7.56979 3.47868 7.37803 3.55598Z" fill="url(#paint6_linear_6128_51040)"/>
<path d="M4.78614 3.37868L3.83008 4.432L5.49453 5.95198C5.59972 5.83733 5.70893 5.728 5.82076 5.62265L5.30146 5.14801L5.94462 4.43733C6.23622 4.11734 6.23622 3.60266 5.91666 3.31201C5.5984 3.01865 5.07775 3.06 4.78614 3.37868ZM5.62636 4.18668L5.00188 4.87333L4.44262 4.36265L5.06845 3.67733C5.20824 3.5213 5.44796 3.51066 5.60241 3.65066C5.75686 3.79198 5.76752 4.03333 5.62636 4.18668ZM6.98458 2.26L6.81281 4.86266C6.96592 4.768 7.12437 4.68134 7.28815 4.60133L7.31214 3.99332C7.62638 3.85465 7.9526 3.74 8.29081 3.65068L8.69028 4.10933C8.86473 4.072 9.04317 4.04133 9.22556 4.01864L7.46792 2.08668C7.30414 2.14 7.14302 2.196 6.98458 2.26ZM7.33076 3.57468L7.36937 2.592L8.01517 3.33333C7.78214 3.40266 7.55315 3.48401 7.33076 3.57468ZM11.665 2.49065C11.665 2.05732 11.2549 1.70533 10.8221 1.70533H9.50518V3.99065C9.65832 3.97868 9.81278 3.97066 9.96992 3.97066V3.276H10.5518L11.0525 4.06933C11.2508 4.10533 11.4466 4.15068 11.6383 4.20533L11.0378 3.24664C11.3814 3.15598 11.665 2.85198 11.665 2.49065ZM10.8221 2.87066H9.96992V2.11201H10.8221C11.0311 2.11201 11.2016 2.28134 11.2016 2.49065C11.2016 2.70133 11.0311 2.87066 10.8221 2.87066ZM14.5678 4.13066L14.7915 4.36666C15.3308 4.936 15.4573 5.40133 15.1124 5.72132C14.9752 5.84932 14.7662 5.88134 14.5558 5.84C14.2895 5.78668 13.9899 5.6 13.7183 5.312C13.476 5.0573 13.2962 4.75597 13.2176 4.548L13.5518 4.29598C13.9233 5.0853 14.5425 5.544 14.7649 5.36132C14.9726 5.18932 14.7462 4.91734 14.4879 4.644L14.2349 4.376C13.9726 4.09998 13.8035 3.66532 14.1017 3.38264C14.6064 2.90533 15.669 3.66665 15.9367 4.42665C15.9367 4.42665 15.7142 4.59198 15.6117 4.668C15.4919 4.24133 14.8608 3.61468 14.5172 3.696C14.4213 3.71865 14.3201 3.86666 14.5678 4.13066ZM13.3907 2.41068L12.5106 4.53333C12.3654 4.46666 12.2203 4.40666 12.0698 4.34932L12.9512 2.22933C13.1004 2.28532 13.2469 2.34534 13.3907 2.41068Z" fill="white"/>
<path opacity="0.7" d="M8.29059 3.65068L8.69005 4.10933L8.6661 4.15464L8.27326 3.70265L8.29059 3.65068ZM7.28792 4.6L7.33319 4.62132L7.35983 4.02265L7.3119 3.99199L7.28792 4.6ZM7.33053 3.57468L7.37712 3.556L7.41041 2.71069L7.36915 2.59201L7.33053 3.57468ZM5.60217 3.65068C5.44772 3.50934 5.208 3.52132 5.06822 3.67735L4.44238 4.36267L4.47567 4.39467L4.97101 3.81599C5.0123 3.768 5.05358 3.71736 5.09483 3.67201C5.13612 3.628 5.19071 3.59467 5.24929 3.57601C5.36783 3.54 5.50631 3.568 5.60217 3.65068ZM6.08821 3.528L6.06688 3.50133C6.22533 3.79467 6.18008 4.17997 5.94568 4.43733L5.30256 5.14802L5.33584 5.17868L5.69803 4.764L5.87911 4.55465C5.93771 4.48532 6.00429 4.41735 6.05225 4.33467C6.14945 4.17333 6.18937 3.97868 6.16675 3.79332C6.15742 3.7 6.12947 3.61068 6.08821 3.528ZM5.49431 5.95199L5.49832 6.01735L5.53027 5.98402C5.62481 5.87998 5.70204 5.79867 5.82587 5.68264L5.8219 5.62264C5.71001 5.728 5.59951 5.83733 5.49431 5.95199ZM12.5343 4.596L13.3918 2.532V2.41068L12.5116 4.53333L12.5343 4.596ZM15.6128 4.668L15.5888 4.74535L15.6421 4.70535C15.6541 4.69467 15.6687 4.68533 15.6821 4.67468C15.6954 4.66533 15.71 4.656 15.722 4.64402L15.9098 4.5L15.9377 4.42667C15.9364 4.42667 15.714 4.59199 15.6128 4.668ZM11.0363 3.24801C11.1268 3.24401 11.2147 3.21599 11.2959 3.17333C11.3771 3.13065 11.4504 3.07333 11.513 3.004C11.5729 2.93333 11.6221 2.85199 11.6488 2.76265C11.6781 2.67467 11.6834 2.57997 11.6648 2.49065C11.6648 2.85199 11.3812 3.15599 11.0363 3.24801ZM9.96969 2.11201V2.87067H10.0163L10.0149 2.16265L9.96969 2.11201ZM9.96969 3.972L10.0163 4.02001V3.32399L9.96969 3.27733V3.972Z" fill="url(#paint7_linear_6128_51040)"/>
<path d="M5.44444 16.1L5.33528 16.0186L5.42847 15.7133L5.13688 15.4653L4.84661 15.604L4.74805 15.5133L5.60427 15.1093L5.7081 15.1987L5.44444 16.1ZM5.55497 15.268L5.25937 15.408L5.46443 15.5814L5.55497 15.268Z" fill="white"/>
<path d="M6.28893 15.6293L5.80956 16.356L5.70703 16.288L6.18503 15.5627L6.28893 15.6293Z" fill="white"/>
<path d="M6.66394 15.868L6.81309 16.6814L6.81439 16.6827L7.11666 16.1067L7.22453 16.164L6.82772 16.9227L6.71985 16.872L6.57073 16.052L6.56807 16.0493L6.26181 16.6347L6.15527 16.5733L6.55609 15.812L6.66394 15.868Z" fill="white"/>
<path d="M8.14364 16.5013L8.10238 16.6187L7.81874 16.52L7.57505 17.22L7.45922 17.18L7.70158 16.4787L7.41797 16.38L7.45922 16.264L8.14364 16.5013Z" fill="white"/>
<path d="M10.0236 17.1413L10.4164 17.148L10.4124 17.376C10.4097 17.5293 10.2393 17.6307 10.0249 17.6267C9.79588 17.624 9.56019 17.4613 9.56552 17.1707C9.56949 16.9267 9.76791 16.7293 10.0409 16.7333C10.2446 16.7374 10.3498 16.8467 10.399 16.8947L10.3125 16.9814C10.2712 16.9413 10.206 16.86 10.0515 16.8587C9.82515 16.8547 9.69066 17 9.68799 17.1814C9.68533 17.348 9.81452 17.5027 10.0316 17.5054C10.1794 17.5067 10.2872 17.44 10.2872 17.3654L10.2885 17.2694L10.0195 17.2654L10.0236 17.1413Z" fill="white"/>
<path d="M11.3564 16.624L11.3751 16.7466L10.8039 16.828L10.8358 17.0507L11.1234 17.0093L11.1408 17.132L10.8531 17.172L10.8904 17.4293L11.483 17.3453L11.5003 17.468L10.7852 17.5693L10.6641 16.7213L11.3564 16.624Z" fill="white"/>
<path d="M12.1344 16.408C12.2648 16.368 12.4113 16.3973 12.4619 16.564C12.5152 16.7427 12.4139 16.8347 12.3461 16.8613L12.6137 17.1493L12.4846 17.196L12.2182 16.904L11.9133 16.996L12.0172 17.34L11.8987 17.3733L11.6523 16.5534L12.1344 16.408ZM11.8054 16.636L11.8787 16.876L12.2449 16.768C12.3314 16.7413 12.3687 16.68 12.3448 16.6C12.3167 16.5067 12.2382 16.5053 12.1703 16.5253L11.8054 16.636Z" fill="white"/>
<path d="M14.7862 15.9133L14.6783 16L14.4133 15.8373L14.1005 16.0587L14.1604 16.3693L14.0512 16.4387L13.8701 15.516L13.9819 15.4374L14.7862 15.9133ZM14.0152 15.604L14.0778 15.9267L14.2962 15.7693L14.0152 15.604Z" fill="white"/>
<path d="M14.5208 15.0133L15.1054 15.6418L15.0135 15.723L14.4316 15.0972L14.5208 15.0133Z" fill="white"/>
<path d="M14.8596 14.6773L15.6825 14.7333L15.6838 14.732L15.2005 14.2973L15.2831 14.2053L15.9182 14.7773L15.8436 14.8693L15.0114 14.8133L15.01 14.8147L15.4988 15.256L15.4122 15.344L14.7744 14.7693L14.8596 14.6773Z" fill="white"/>
<path d="M13.4103 15.828L13.2997 15.884L13.2811 16.4933L12.7804 16.1507L12.6699 16.2067L13.0441 16.9773L13.1559 16.928L12.8976 16.38L12.8989 16.3787L13.397 16.716L13.4156 16.1147L13.4169 16.1133L13.7085 16.6466L13.815 16.5853L13.4103 15.828Z" fill="white"/>
<path d="M5.12061 14.724C5.05137 14.4627 4.78635 14.2067 4.58661 14.2067C4.54137 14.2067 4.50141 14.2186 4.46679 14.244C4.42687 14.2747 4.40287 14.3147 4.3962 14.364C4.38558 14.44 4.41483 14.536 4.47745 14.62L4.56932 14.7427C4.63989 14.836 4.7078 14.9347 4.69318 15.0133C4.68785 15.0453 4.67052 15.0707 4.64124 15.0893C4.62524 15.1 4.6066 15.104 4.58661 15.104C4.46278 15.104 4.25373 14.884 4.14989 14.5667L4.14852 14.56L4.05801 14.6453L4.05664 14.6466V14.6493C4.07663 14.728 4.13122 14.856 4.22178 14.9773C4.31632 15.104 4.42548 15.192 4.52671 15.2253C4.56 15.236 4.59191 15.24 4.62254 15.24C4.66649 15.24 4.70644 15.2293 4.73707 15.2067C4.78632 15.172 4.81428 15.1253 4.82365 15.0693C4.8396 14.968 4.78632 14.836 4.66383 14.6733L4.58392 14.5653C4.51872 14.48 4.52138 14.424 4.536 14.392C4.54796 14.364 4.57329 14.3453 4.60258 14.3413C4.60791 14.3413 4.61187 14.3413 4.61721 14.3413C4.76503 14.3413 4.97144 14.5853 5.026 14.7746L5.02735 14.78L5.03134 14.776C5.06197 14.76 5.09792 14.74 5.11922 14.7267L5.12189 14.7253L5.12061 14.724Z" fill="white"/>
<path d="M8.8811 17.1784L8.57617 17.1105L8.60413 16.988L8.90777 17.0559L8.8811 17.1784Z" fill="white"/>
<g opacity="0.3">
<path d="M5.45584 16.1387L5.32399 16.04L5.43985 15.7507L5.14825 15.5027L4.85931 15.64L4.7168 15.5133L5.60759 15.1013L5.73146 15.2053L5.45584 16.1387ZM5.56633 15.3053L5.27074 15.4466L5.4758 15.62L5.56633 15.3053Z" fill="#040000"/>
<path d="M6.3218 15.6387L5.8211 16.396L5.68262 16.304L6.18065 15.548L6.3218 15.6387Z" fill="#040000"/>
<path d="M6.66507 15.856L6.82485 16.7186L6.82619 16.72L7.14709 16.1093L7.25628 16.1653L6.84086 16.9587L6.72366 16.9013L6.57721 16.0813L6.58118 16.0867L6.27358 16.672L6.13379 16.592L6.53459 15.8293L6.66507 15.856Z" fill="#040000"/>
<path d="M8.16855 16.4987L8.11527 16.6547L7.83167 16.556L7.58798 17.256L7.44682 17.2053L7.69051 16.508L7.4082 16.4093L7.46282 16.252L8.16855 16.4987Z" fill="#040000"/>
<path d="M10.023 17.128L10.4277 17.136L10.4237 17.4147C10.4224 17.5693 10.2506 17.6693 10.0363 17.6653C9.80856 17.6613 9.57287 17.5013 9.57821 17.2094C9.58218 16.964 9.78061 16.7667 10.0536 16.772C10.2573 16.776 10.3865 16.86 10.4357 16.9094L10.3252 17.0187C10.2839 16.9787 10.22 16.8973 10.0642 16.896C9.83781 16.892 9.70335 17.0387 9.70069 17.2187C9.69803 17.3867 9.82852 17.54 10.0443 17.5427C10.1933 17.5453 10.2999 17.4787 10.3012 17.404L10.3026 17.3094L10.0216 17.304L10.023 17.128Z" fill="#040000"/>
<path d="M11.3624 16.6613L11.3797 16.7827L10.8138 16.8653L10.8458 17.0867L11.1267 17.0467L11.144 17.168L10.8631 17.208L10.899 17.4667L11.4862 17.3814L11.5036 17.5027L10.7871 17.6053L10.666 16.7587L11.3624 16.6613Z" fill="#040000"/>
<path d="M12.1452 16.4453C12.277 16.4067 12.4222 16.4347 12.4714 16.6027C12.5247 16.78 12.4221 16.8733 12.3556 16.8987L12.6432 17.1813L12.4941 17.2347L12.2278 16.9427L11.9241 17.0333L12.028 17.3773L11.9055 17.412L11.6592 16.592L12.1452 16.4453ZM11.8163 16.6733L11.8895 16.9147L12.2543 16.804C12.3436 16.7787 12.3782 16.7173 12.3542 16.6373C12.3262 16.544 12.249 16.5427 12.1811 16.5627L11.8163 16.6733Z" fill="#040000"/>
<path d="M14.8205 15.9347L14.6914 16.0373L14.4264 15.8746L14.1109 16.1L14.1721 16.4093L14.0483 16.4867L13.8672 15.564L14.0176 15.4573L14.8205 15.9347ZM14.0283 15.6427L14.0908 15.964L14.3092 15.808L14.0283 15.6427Z" fill="#040000"/>
<path d="M14.5143 15.0053L15.1255 15.664L15.0256 15.7613L14.4131 15.1L14.5143 15.0053Z" fill="#040000"/>
<path d="M14.8381 14.6827L15.6956 14.772L15.6969 14.7693L15.1816 14.3027L15.2762 14.1973L15.9433 14.8L15.858 14.908L15.0258 14.8507L15.0378 14.8387L15.5278 15.28L15.4293 15.3827L14.7568 14.7746L14.8381 14.6827Z" fill="#040000"/>
<path d="M13.4292 15.8627L13.312 15.9213L13.2934 16.5293L12.7914 16.188L12.6875 16.244L13.0604 17.0147L13.1736 16.9613L12.9139 16.4147H12.9112L13.4079 16.7534L13.4266 16.152L13.4332 16.1466L13.7221 16.6787L13.8327 16.62L13.4292 15.8627Z" fill="#040000"/>
<path d="M5.13362 14.7613C5.06305 14.4999 4.79807 14.2426 4.59833 14.2426C4.55306 14.2426 4.51443 14.2546 4.47848 14.2813C4.43856 14.3106 4.41457 14.3506 4.40793 14.3999C4.39727 14.4773 4.42789 14.5733 4.4905 14.6573L4.58237 14.7799C4.65291 14.8746 4.72085 14.9733 4.70619 15.0506C4.70086 15.084 4.68223 15.1066 4.65291 15.1279C4.63695 15.1386 4.61832 15.1426 4.597 15.1426C4.47451 15.1426 4.26411 14.9213 4.16158 14.6053L4.16028 14.5986L4.06971 14.684L4.06836 14.6853L4.06971 14.6866C4.08967 14.7653 4.14428 14.8946 4.2348 15.0146C4.33068 15.1426 4.43855 15.2293 4.53841 15.2626C4.5717 15.2746 4.60499 15.2799 4.63427 15.2799C4.67956 15.2799 4.71948 15.268 4.74881 15.2453C4.79805 15.2106 4.82735 15.164 4.83535 15.1093C4.84998 15.008 4.79674 14.8746 4.67556 14.7133L4.59566 14.6053C4.53174 14.52 4.53441 14.4626 4.54908 14.432C4.56104 14.404 4.58634 14.384 4.61566 14.3813C4.61963 14.3799 4.62495 14.3799 4.62894 14.3799C4.77543 14.3799 4.98314 14.6239 5.03642 14.8133L5.03776 14.82L5.04173 14.8159C5.07238 14.7986 5.10968 14.7786 5.13096 14.7653L5.13362 14.7639V14.7613Z" fill="#040000"/>
</g>
<path opacity="0.3" d="M8.89422 17.2144L8.56934 17.1425L8.60659 16.9746L8.93019 17.0492L8.89422 17.2144Z" fill="#040000"/>
<path d="M5.60149 15.092L4.7373 15.504L4.83318 15.5893L4.85047 15.584H4.85185L5.13411 15.4453L5.44171 15.7053L5.34448 16.0067L5.34714 16.0093L5.34448 16.0173L5.43637 16.0827V16.0813V16.0827L5.43904 16.0733L5.44038 16.0746V16.0733L5.44171 16.0746L5.70802 15.1867L5.60149 15.092ZM5.26592 15.4L5.56952 15.24L5.46965 15.5733L5.26592 15.4Z" fill="#ADBBD0"/>
<path d="M6.2938 15.6213L6.18331 15.548L6.18194 15.5493L6.18065 15.548L5.69727 16.284L5.80647 16.3534H5.80777L5.81179 16.3453L5.8131 16.3466L6.2938 15.6213Z" fill="#ADBBD0"/>
<path d="M7.11284 16.092L6.80921 16.672L6.66142 15.8547L6.55889 15.8013L6.55225 15.7973V15.7987L6.55088 15.7973L6.14746 16.568L6.23933 16.62L6.24999 16.624L6.25396 16.6133V16.6107L6.25794 16.6133H6.25928L6.26195 16.6067L6.26461 16.608V16.6067L6.26594 16.608L6.56955 16.028L6.72136 16.8227L6.82786 16.872V16.8707L6.83052 16.872V16.8707H6.83452H6.83586L6.83853 16.8667H6.84119H6.84249L7.22999 16.1547L7.11284 16.092Z" fill="#ADBBD0"/>
<path d="M7.46414 16.252L7.42285 16.3746L7.71983 16.4693L7.47212 17.1613H7.47478L7.47212 17.1693L7.57199 17.1987L7.57601 17.188L7.57868 17.1893H7.57998L7.81437 16.5053L8.10064 16.6013H8.10196L8.10597 16.5933L8.10727 16.5947H8.10863L8.14726 16.4907L7.46414 16.252Z" fill="#ADBBD0"/>
<path d="M11.4797 17.3373L11.4784 17.3347H11.4717H11.4704L10.8885 17.4173L10.8499 17.168L11.1349 17.1267L11.1335 17.1173L11.1388 17.116L11.1202 16.9973L11.1149 16.9987L11.1135 16.9973L11.1122 16.9987V16.9973L10.8299 17.036L10.7993 16.824L11.3665 16.7427L11.3652 16.7333H11.3718L11.3532 16.6106H11.3519H11.3466H11.3453H11.3439L10.6621 16.7106L10.7833 17.5587H10.7846L10.786 17.568L11.4917 17.4653L11.4904 17.456H11.497L11.4797 17.3373Z" fill="#ADBBD0"/>
<path d="M14.5479 15.7787L13.9727 15.432L13.8555 15.512L14.0419 16.4466L14.1458 16.3773L14.1551 16.3693L14.0965 16.056L14.4134 15.8213L14.6771 15.9827L14.7716 15.92L14.769 15.9173L14.777 15.912L14.5479 15.7787ZM14.0685 15.9147L13.9966 15.58L14.2976 15.7534L14.0685 15.9147Z" fill="#ADBBD0"/>
<path d="M14.5121 15.0053L14.4229 15.0892L15.0114 15.7111H15.0127H15.0141L15.0913 15.6458V15.6445L15.0966 15.6392L14.5121 15.0053Z" fill="#ADBBD0"/>
<path d="M15.9127 14.7787L15.2749 14.1973L15.1923 14.2893L15.709 14.7413L14.8448 14.676H14.8435L14.7676 14.7613L15.4147 15.3307L15.4161 15.3293V15.3307L15.468 15.2626L15.4666 15.2613L15.4733 15.2547L14.9926 14.8027L15.8421 14.8573H15.8435L15.9074 14.7867L15.9061 14.7853L15.9127 14.7787Z" fill="#ADBBD0"/>
<path d="M8.6064 16.9773L8.57715 17.1065L8.87675 17.1744H8.87804L8.8807 17.1651L8.88208 17.1664V17.1651V17.1664L8.91133 17.0452L8.6064 16.9773Z" fill="#ADBBD0"/>
<path d="M12.4281 16.788C12.4641 16.7387 12.4853 16.6653 12.4547 16.5613C12.4308 16.48 12.3908 16.428 12.3349 16.4053C12.3016 16.3907 12.2683 16.3773 12.2311 16.3787C12.1991 16.3787 12.1645 16.384 12.1312 16.3933L11.6465 16.5387L11.8023 17.0467L11.8995 17.368H11.9008L11.9088 17.3654L11.9141 17.368L12.002 17.34L11.8968 16.9933L12.2258 16.8867L12.4827 17.188H12.4841L12.4934 17.184L12.496 17.188L12.5973 17.144L12.3256 16.8547C12.3535 16.84 12.4028 16.8254 12.4281 16.788ZM11.7889 16.636L12.1698 16.5067C12.1871 16.5013 12.2044 16.4973 12.2217 16.496C12.2736 16.492 12.3242 16.5267 12.3442 16.596C12.3468 16.6053 12.3482 16.6133 12.3495 16.6227C12.3536 16.6853 12.3123 16.732 12.2377 16.7547L11.8582 16.868L11.7889 16.636Z" fill="#ADBBD0"/>
<path d="M4.79411 15.144C4.8101 15.1187 4.80211 15.0747 4.80609 15.044C4.82077 14.9427 4.77415 14.8347 4.65295 14.6747L4.57307 14.5667C4.50916 14.4814 4.52512 14.416 4.53978 14.3827C4.54245 14.3787 4.54645 14.3733 4.54912 14.3693C4.56241 14.3534 4.58241 14.3427 4.60237 14.34C4.60769 14.34 4.61166 14.3387 4.6157 14.3387C4.76214 14.34 4.9805 14.5733 5.03512 14.7613L5.03645 14.7667H5.0378L5.04313 14.764C5.07375 14.7466 5.09637 14.736 5.119 14.7254L5.12166 14.7227L5.12036 14.72C5.12036 14.72 5.12036 14.72 5.12036 14.7186C5.12166 14.7186 5.11769 14.7186 5.11769 14.7186L5.12036 14.7147C5.06307 14.5 4.88201 14.288 4.70621 14.2186C4.66492 14.2013 4.62368 14.192 4.58506 14.192C4.58506 14.192 4.58506 14.192 4.58368 14.192C4.53844 14.192 4.49848 14.204 4.46386 14.2293C4.42524 14.26 4.40528 14.2973 4.39861 14.3466C4.39595 14.3653 4.39595 14.3867 4.39861 14.408C4.40394 14.4733 4.45853 14.5693 4.50781 14.6373L4.58368 14.7507C4.64363 14.8307 4.68888 14.8627 4.69554 14.9347C4.6982 14.9653 4.69554 14.9894 4.6942 14.996C4.68757 15.032 4.6729 15.056 4.64362 15.076C4.62763 15.0867 4.605 15.092 4.58504 15.092C4.57037 15.092 4.55442 15.088 4.53708 15.0814C4.41326 15.0307 4.24415 14.8293 4.15624 14.556L4.15092 14.544L4.14562 14.5493L4.05508 14.6347L4.05371 14.636C4.05371 14.636 4.05638 14.644 4.05638 14.6467C4.05638 14.6467 4.13628 14.8453 4.22685 14.968C4.32269 15.0947 4.41723 15.1787 4.51976 15.2107C4.55305 15.2213 4.58503 15.2267 4.61566 15.2267H4.61696C4.66223 15.2267 4.70487 15.228 4.73548 15.2067C4.75952 15.188 4.77948 15.1667 4.79411 15.144Z" fill="#ADBBD0"/>
<path d="M10.0261 17.128H10.0235L10.0261 17.248H10.0274V17.256H10.0354L10.2924 17.2613L10.2871 17.3534C10.2857 17.4254 10.1806 17.4933 10.0328 17.4907C10.0221 17.4907 10.0101 17.4907 9.99949 17.4893C9.8943 17.4773 9.80239 17.4307 9.74648 17.3587C9.69456 17.2933 9.68656 17.2587 9.68791 17.1746C9.68924 17.1186 9.70124 17.0667 9.72785 17.02C9.78377 16.9213 9.90629 16.8493 10.0581 16.852C10.2099 16.856 10.2738 16.9346 10.3151 16.9746L10.3164 16.9733V16.9746L10.3191 16.9707C10.3204 16.972 10.3217 16.9733 10.3231 16.9746H10.3244L10.411 16.888L10.415 16.884C10.403 16.8733 10.3856 16.856 10.3644 16.8373C10.3044 16.7853 10.2072 16.7227 10.0514 16.7213C10.0475 16.7213 10.0448 16.7213 10.0422 16.7213H10.0408C9.76648 16.716 9.5694 16.9133 9.56543 17.1573C9.56543 17.1773 9.56673 17.196 9.56809 17.2147C9.58938 17.4733 9.81041 17.6147 10.0248 17.6186C10.0248 17.6186 10.0248 17.6186 10.0262 17.6186C10.0262 17.6186 10.0275 17.6186 10.0288 17.6186C10.0301 17.6186 10.0315 17.62 10.0342 17.62C10.0342 17.62 10.0342 17.62 10.0355 17.62C10.1966 17.6227 10.3271 17.5667 10.3843 17.4746C10.4043 17.4413 10.415 17.4067 10.4163 17.3667L10.4189 17.1373L10.0261 17.128Z" fill="#ADBBD0"/>
<path d="M13.4038 15.816L13.2906 15.872L13.272 16.4893L12.7687 16.1413L12.6621 16.1947L12.8805 16.6293L13.0483 16.9693H13.0496L13.1122 16.9413L13.1468 16.9186L12.8791 16.3587L13.3865 16.7V16.6987L13.3878 16.7V16.6906L13.3905 16.692H13.3918H13.3932L13.4092 16.2133L13.4131 16.112L13.4144 16.1106L13.7061 16.6387L13.7088 16.632L13.7101 16.6347H13.7114L13.798 16.572L13.4038 15.816Z" fill="#ADBBD0"/>
<path d="M8.6064 16.9814L8.57715 17.1078V17.1092L8.87675 17.1771L8.87804 17.1717H8.8807L8.90867 17.0506L8.6064 16.9814Z" fill="white"/>
<path d="M10.0326 17.1347H10.0233L10.026 17.256V17.2627L10.2962 17.2667L10.2882 17.356C10.2816 17.4307 10.1817 17.496 10.0366 17.496C9.82088 17.492 9.67843 17.3453 9.6811 17.1773C9.6824 17.112 9.70236 17.0507 9.73565 17C9.7543 16.9733 9.78759 16.9453 9.81289 16.9267C9.8209 16.92 9.82755 16.916 9.83689 16.9094C9.89413 16.876 9.96472 16.856 10.0486 16.8587C10.2044 16.86 10.2697 16.9373 10.3109 16.9787L10.3122 16.9773C10.3122 16.9773 10.3122 16.9773 10.3136 16.9787V16.9773C10.3136 16.9787 10.3149 16.9787 10.3149 16.98L10.3176 16.9773C10.3176 16.9773 10.3176 16.9773 10.3176 16.9787L10.4041 16.8907L10.4068 16.888C10.3589 16.8387 10.2523 16.7293 10.0473 16.7253C10.0446 16.7253 10.0433 16.7253 10.0406 16.7253C10.0393 16.7253 10.0393 16.7253 10.0379 16.7253C9.76364 16.7213 9.56658 16.9187 9.56259 17.1627C9.56259 17.1653 9.56259 17.1667 9.56259 17.1693C9.56259 17.1707 9.56259 17.1707 9.56259 17.172C9.55726 17.4627 9.79827 17.62 10.0273 17.6253C10.1232 17.6253 10.2031 17.6094 10.2683 17.5733C10.2883 17.564 10.3043 17.552 10.3202 17.5413C10.3442 17.5227 10.3642 17.5 10.3788 17.4773C10.3988 17.444 10.4108 17.4107 10.4108 17.3693L10.4174 17.1413L10.0326 17.1347Z" fill="white"/>
<path d="M4.76731 15.1787C4.79927 15.1466 4.79927 15.0933 4.80326 15.052C4.81794 14.9507 4.77132 14.8413 4.65149 14.6813L4.57159 14.572C4.50634 14.4867 4.52366 14.4227 4.53695 14.3906C4.54362 14.3787 4.55162 14.368 4.56092 14.3587C4.57158 14.3493 4.58621 14.3453 4.59953 14.344C4.60486 14.344 4.60886 14.344 4.61149 14.344C4.75798 14.344 4.97767 14.5773 5.03095 14.7653L5.03229 14.7707H5.03362L5.03895 14.768C5.06957 14.7507 5.09354 14.74 5.11617 14.7293L5.12282 14.728C5.09621 14.6293 5.04426 14.524 4.97638 14.4413C4.86318 14.3 4.71137 14.1987 4.58621 14.1987C4.54228 14.1987 4.50233 14.2106 4.46771 14.2373C4.45708 14.2453 4.44772 14.252 4.43975 14.2626C4.4238 14.28 4.41313 14.3027 4.40513 14.3267C4.40112 14.3387 4.3998 14.3466 4.39846 14.3613C4.39713 14.3707 4.39579 14.3813 4.39579 14.392C4.39579 14.4627 4.43709 14.5587 4.49304 14.632L4.5729 14.7427C4.63416 14.8254 4.6914 14.9 4.69674 14.972C4.69674 14.9827 4.69807 14.9853 4.69407 15.008C4.69277 15.0147 4.68744 15.0267 4.68478 15.0333C4.67945 15.0466 4.67278 15.0587 4.66079 15.068C4.65415 15.0733 4.64883 15.0787 4.64216 15.0827C4.62621 15.0933 4.60887 15.0973 4.58758 15.0973C4.51834 15.0973 4.42244 15.028 4.33322 14.912C4.26264 14.82 4.19872 14.7013 4.15482 14.5627L4.15216 14.552L4.05762 14.6413C4.05762 14.6413 4.10153 14.8094 4.21073 14.9547C4.30527 15.0814 4.41976 15.18 4.52229 15.212C4.55427 15.2213 4.58621 15.2267 4.61819 15.2267C4.66344 15.2267 4.70739 15.2293 4.73667 15.208C4.74602 15.1987 4.75533 15.1893 4.76731 15.1787Z" fill="white"/>
<path d="M7.2263 16.1587L7.22364 16.156L7.11448 16.0987V16.1L7.11311 16.0987L7.11182 16.1L6.80688 16.6827L6.66172 15.8613L6.66039 15.86H6.65906V15.8587L6.55389 15.804H6.55254H6.55123L6.54986 15.8053L6.15176 16.568L6.15039 16.5707L6.15307 16.572L6.25692 16.62L6.25959 16.612L6.26225 16.6133L6.57119 16.0227L6.7243 16.828L6.83218 16.876L6.83616 16.8707H6.83881L7.22763 16.1587H7.2263Z" fill="white"/>
<path d="M5.70919 15.1907L5.604 15.1013L4.74512 15.5094L4.83434 15.5894L5.13394 15.4507L5.44288 15.7107L5.34568 16.0147V16.016L5.34698 16.0174L5.34568 16.0214L5.43754 16.0867L5.4402 16.0773L5.44154 16.08H5.44288L5.70919 15.1907ZM5.56936 15.244L5.4695 15.58L5.26311 15.4067L5.56936 15.244Z" fill="white"/>
<path d="M6.29203 15.624L6.18287 15.5534L5.70215 16.2867L5.80602 16.3534L5.80999 16.352L6.29203 15.624Z" fill="white"/>
<path d="M7.46148 16.2573L7.4242 16.3733L7.42285 16.3773L7.71983 16.4773L7.47212 17.1693V17.1707V17.172V17.176L7.57199 17.2027L7.57465 17.196H7.57601V17.1947L7.57731 17.196L7.81171 16.5093L8.10064 16.6067L8.10461 16.6L8.10727 16.6027L8.10597 16.5987H8.10863L8.14589 16.4933L7.46148 16.2573Z" fill="white"/>
<path d="M11.4793 17.3387H11.4713L10.8854 17.4227L10.8482 17.1733L11.1318 17.1333L11.1304 17.1267V17.1254H11.1331L11.1371 17.124L11.1358 17.1213H11.1384L11.1198 17L11.1131 17.0013L10.8282 17.0413L10.7975 16.828L11.3648 16.748L11.3622 16.7427V16.7413H11.3648V16.74H11.3675V16.7373H11.3714L11.3528 16.6147L11.3449 16.616V16.6147L10.6631 16.716V16.7186V16.72V16.724L10.6644 16.7333L10.7842 17.568V17.5707L11.4886 17.4693V17.4653H11.49V17.464H11.4939V17.46H11.4953L11.4793 17.3387Z" fill="white"/>
<path d="M12.3222 16.8587C12.3502 16.8466 12.3981 16.8293 12.4234 16.7947C12.4607 16.7453 12.4833 16.672 12.4513 16.5653C12.4287 16.4906 12.3941 16.4413 12.3435 16.4147C12.2796 16.3813 12.2051 16.3787 12.1305 16.4L11.6484 16.544L11.7203 16.7787L11.8975 17.368L11.9374 17.3573L11.9986 17.3413L11.8961 16.9973L12.225 16.8893L12.482 17.192L12.5832 17.148V17.1466L12.5925 17.144L12.3222 16.8587ZM12.1677 16.5106C12.2357 16.492 12.3155 16.5093 12.3435 16.6027C12.3461 16.612 12.3475 16.62 12.3488 16.628C12.3502 16.6373 12.3502 16.6453 12.3488 16.652C12.3488 16.6613 12.3475 16.6693 12.3448 16.676C12.3329 16.7147 12.2916 16.744 12.2383 16.76L11.8562 16.8733L11.7856 16.6413L12.1677 16.5106Z" fill="white"/>
<path d="M13.9778 15.4347L13.8633 15.5133L14.047 16.4427L14.1456 16.3773L14.1522 16.372L14.0936 16.0613L14.4119 15.828L14.6769 15.9907L14.7701 15.9267L14.7688 15.9253L14.7768 15.9186L13.9778 15.4347ZM14.067 15.92L13.9938 15.5853L14.296 15.76L14.067 15.92Z" fill="white"/>
<path d="M14.514 15.0093L14.4248 15.0919L15.0107 15.7164L15.0892 15.6525L15.0879 15.6511L15.0945 15.6445L14.514 15.0093Z" fill="white"/>
<path d="M15.9094 14.7827L15.2769 14.1987L15.1943 14.2907L15.707 14.7453L14.8494 14.676L14.7695 14.764L15.4127 15.3347L15.4659 15.268L15.4646 15.2667L15.4713 15.26L14.9906 14.808L15.8401 14.8627L15.9027 14.792L15.9094 14.7827Z" fill="white"/>
<path d="M13.4068 15.8213L13.2962 15.8773L13.2763 16.4973L12.9713 16.292L12.7716 16.1453L12.7583 16.152L12.6677 16.1987H12.665L12.6677 16.2027L13.0472 16.976L13.1364 16.924L13.1444 16.92L12.8754 16.3573L13.1072 16.516L13.3867 16.7053V16.6973V16.6947L13.3894 16.6973V16.6947L13.3908 16.6973L13.4068 16.2773L13.412 16.1L13.4707 16.212L13.7064 16.6427L13.709 16.64H13.7103L13.7796 16.5814L13.7862 16.5787L13.7929 16.5746L13.4068 15.8213Z" fill="white"/>
<path d="M5.44444 16.1L5.33528 16.0186L5.42847 15.7133L5.13688 15.4653L4.84661 15.604L4.74805 15.5133L5.60427 15.1093L5.7081 15.1987L5.44444 16.1ZM5.55497 15.268L5.25937 15.408L5.46443 15.5814L5.55497 15.268Z" fill="#D1D3D4"/>
<path d="M6.28893 15.6293L5.80956 16.356L5.70703 16.288L6.18503 15.5627L6.28893 15.6293Z" fill="#D1D3D4"/>
<path d="M6.66394 15.868L6.81309 16.6814L6.81439 16.6827L7.11666 16.1067L7.22453 16.164L6.82772 16.9227L6.71985 16.872L6.57073 16.052L6.56807 16.0493L6.26181 16.6347L6.15527 16.5733L6.55609 15.812L6.66394 15.868Z" fill="#D1D3D4"/>
<path d="M8.14364 16.5013L8.10238 16.6187L7.81874 16.52L7.57505 17.22L7.45922 17.18L7.70158 16.4787L7.41797 16.38L7.45922 16.264L8.14364 16.5013Z" fill="#D1D3D4"/>
<path d="M10.0236 17.1413L10.4164 17.148L10.4124 17.376C10.4097 17.5293 10.2393 17.6307 10.0249 17.6267C9.79588 17.624 9.56019 17.4613 9.56552 17.1707C9.56949 16.9267 9.76791 16.7293 10.0409 16.7333C10.2446 16.7374 10.3498 16.8467 10.399 16.8947L10.3125 16.9814C10.2712 16.9413 10.206 16.86 10.0515 16.8587C9.82515 16.8547 9.69066 17 9.68799 17.1814C9.68533 17.348 9.81452 17.5027 10.0316 17.5054C10.1794 17.5067 10.2872 17.44 10.2872 17.3654L10.2885 17.2694L10.0195 17.2654L10.0236 17.1413Z" fill="#D1D3D4"/>
<path d="M11.3564 16.624L11.3751 16.7466L10.8039 16.828L10.8358 17.0507L11.1234 17.0093L11.1408 17.132L10.8531 17.172L10.8904 17.4293L11.483 17.3453L11.5003 17.468L10.7852 17.5693L10.6641 16.7213L11.3564 16.624Z" fill="#D1D3D4"/>
<path d="M12.1344 16.408C12.2648 16.368 12.4113 16.3973 12.4619 16.564C12.5152 16.7427 12.4139 16.8347 12.3461 16.8613L12.6137 17.1493L12.4846 17.196L12.2182 16.904L11.9133 16.996L12.0172 17.34L11.8987 17.3733L11.6523 16.5534L12.1344 16.408ZM11.8054 16.636L11.8787 16.876L12.2449 16.768C12.3314 16.7413 12.3687 16.68 12.3448 16.6C12.3167 16.5067 12.2382 16.5053 12.1703 16.5253L11.8054 16.636Z" fill="#D1D3D4"/>
<path d="M14.7862 15.9133L14.6783 16L14.4133 15.8373L14.1005 16.0587L14.1604 16.3693L14.0512 16.4387L13.8701 15.516L13.9819 15.4374L14.7862 15.9133ZM14.0152 15.604L14.0778 15.9267L14.2962 15.7693L14.0152 15.604Z" fill="#D1D3D4"/>
<path d="M14.5208 15.0133L15.1054 15.6418L15.0135 15.723L14.4316 15.0972L14.5208 15.0133Z" fill="#D1D3D4"/>
<path d="M14.8596 14.6773L15.6825 14.7333L15.6838 14.732L15.2005 14.2973L15.2831 14.2053L15.9182 14.7773L15.8436 14.8693L15.0114 14.8133L15.01 14.8147L15.4988 15.256L15.4122 15.344L14.7744 14.7693L14.8596 14.6773Z" fill="#D1D3D4"/>
<path d="M13.4103 15.828L13.2997 15.884L13.2811 16.4933L12.7804 16.1507L12.6699 16.2067L13.0441 16.9773L13.1559 16.928L12.8976 16.38L12.8989 16.3787L13.397 16.716L13.4156 16.1147L13.4169 16.1133L13.7085 16.6466L13.815 16.5853L13.4103 15.828Z" fill="#D1D3D4"/>
<path d="M5.12061 14.724C5.05137 14.4627 4.78635 14.2067 4.58661 14.2067C4.54137 14.2067 4.50141 14.2186 4.46679 14.244C4.42687 14.2747 4.40287 14.3147 4.3962 14.364C4.38558 14.44 4.41483 14.536 4.47745 14.62L4.56932 14.7427C4.63989 14.836 4.7078 14.9347 4.69318 15.0133C4.68785 15.0453 4.67052 15.0707 4.64124 15.0893C4.62524 15.1 4.6066 15.104 4.58661 15.104C4.46278 15.104 4.25373 14.884 4.14989 14.5667L4.14852 14.56L4.05801 14.6453L4.05664 14.6466V14.6493C4.07663 14.728 4.13122 14.856 4.22178 14.9773C4.31632 15.104 4.42548 15.192 4.52671 15.2253C4.56 15.236 4.59191 15.24 4.62254 15.24C4.66649 15.24 4.70644 15.2293 4.73707 15.2067C4.78632 15.172 4.81428 15.1253 4.82365 15.0693C4.8396 14.968 4.78632 14.836 4.66383 14.6733L4.58392 14.5653C4.51872 14.48 4.52138 14.424 4.536 14.392C4.54796 14.364 4.57329 14.3453 4.60258 14.3413C4.60791 14.3413 4.61187 14.3413 4.61721 14.3413C4.76503 14.3413 4.97144 14.5853 5.026 14.7746L5.02735 14.78L5.03134 14.776C5.06197 14.76 5.09792 14.74 5.11922 14.7267L5.12189 14.7253L5.12061 14.724Z" fill="#D1D3D4"/>
<path d="M8.8811 17.1784L8.57617 17.1105L8.60413 16.988L8.90777 17.0559L8.8811 17.1784Z" fill="#D1D3D4"/>
</g>
<defs>
<linearGradient id="paint0_linear_6128_51040" x1="14.9927" y1="18.6582" x2="4.98815" y2="1.35293" gradientUnits="userSpaceOnUse">
<stop stop-color="#231F20"/>
<stop offset="1" stop-color="#231F20" stop-opacity="0"/>
</linearGradient>
<linearGradient id="paint1_linear_6128_51040" x1="9.54954" y1="12.4769" x2="10.2229" y2="14.3244" gradientUnits="userSpaceOnUse">
<stop offset="0.15" stop-color="#FFE293"/>
<stop offset="0.3028" stop-color="#FFDF8E"/>
<stop offset="0.4612" stop-color="#FED782"/>
<stop offset="0.6221" stop-color="#FDC96D"/>
<stop offset="0.7848" stop-color="#FBB650"/>
<stop offset="0.9473" stop-color="#F89D2B"/>
<stop offset="1" stop-color="#F7941D"/>
</linearGradient>
<linearGradient id="paint2_linear_6128_51040" x1="5.96324" y1="5.75112" x2="4.6227" y2="3.43233" gradientUnits="userSpaceOnUse">
<stop stop-color="#848689"/>
<stop offset="0.8528" stop-color="#808285"/>
</linearGradient>
<linearGradient id="paint3_linear_6128_51040" x1="11.2953" y1="4.40217" x2="9.67859" y2="1.60568" gradientUnits="userSpaceOnUse">
<stop stop-color="#797A7D"/>
<stop offset="0.0872" stop-color="#757779"/>
<stop offset="0.475" stop-color="#696A6D"/>
<stop offset="0.85" stop-color="#656668"/>
</linearGradient>
<linearGradient id="paint4_linear_6128_51040" x1="15.2476" y1="5.68972" x2="13.9537" y2="3.45154" gradientUnits="userSpaceOnUse">
<stop stop-color="#434345"/>
<stop offset="0.0531" stop-color="#48484A"/>
<stop offset="0.3241" stop-color="#5B5C5E"/>
<stop offset="0.5917" stop-color="#67686B"/>
<stop offset="0.85" stop-color="#6B6C6F"/>
</linearGradient>
<linearGradient id="paint5_linear_6128_51040" x1="13.2022" y1="4.21025" x2="12.2812" y2="2.61702" gradientUnits="userSpaceOnUse">
<stop stop-color="#58595B"/>
<stop offset="0.0471" stop-color="#5C5D5F"/>
<stop offset="0.3201" stop-color="#707274"/>
<stop offset="0.5897" stop-color="#7C7E81"/>
<stop offset="0.85" stop-color="#808285"/>
</linearGradient>
<linearGradient id="paint6_linear_6128_51040" x1="8.1595" y1="4.69328" x2="6.81076" y2="2.3603" gradientUnits="userSpaceOnUse">
<stop stop-color="#808285"/>
<stop offset="0.85" stop-color="#808285"/>
</linearGradient>
<linearGradient id="paint7_linear_6128_51040" x1="11.8538" y1="1.52155" x2="8.31372" y2="7.645" gradientUnits="userSpaceOnUse">
<stop/>
<stop offset="1" stop-color="#939598"/>
</linearGradient>
<clipPath id="clip0_6128_51040">
<rect width="20" height="20" fill="white"/>
</clipPath>
</defs>
</svg>
