<svg width="20" height="20" viewBox="0 0 20 20" fill="none" xmlns="http://www.w3.org/2000/svg">
<circle cx="10" cy="10" r="10" transform="matrix(-1 0 0 1 20 0)" fill="url(#paint0_linear_5830_47542)"/>
<circle cx="9.42387" cy="9.42387" r="9.42387" transform="matrix(-1 0 0 1 19.4238 0.493835)" fill="#562716"/>
<circle cx="9.30041" cy="9.30041" r="9.30041" transform="matrix(-1 0 0 1 19.3008 0.61731)" fill="url(#paint1_linear_5830_47542)"/>
<path d="M11.0659 1.2963C13.0371 1.54321 14.7737 2.39506 16.1934 3.80658C19.6832 7.28807 19.6132 12.9506 16.0371 16.3621C15.5762 16.8025 15.3128 17.0082 14.7449 17.3827C13.6832 18.0782 12.3251 18.5597 10.9836 18.7243C10.5391 18.7778 9.51032 18.7778 9.02883 18.7243C4.96299 18.2675 1.72842 15.0329 1.27163 10.9671C1.21814 10.4856 1.21814 9.45679 1.27163 9.01235C1.72842 5.23457 4.48974 2.20164 8.16875 1.42387C9.08645 1.23045 10.1564 1.18518 11.0659 1.2963ZM9.06999 1.44033C5.53089 1.83539 2.59262 4.36214 1.68316 7.79424C1.46093 8.62551 1.41978 8.98354 1.41978 10.0206C1.4239 11.0823 1.47739 11.5021 1.74077 12.4074C2.54324 15.1975 4.79838 17.4527 7.5885 18.2551C9.28398 18.7449 11.07 18.7078 12.7531 18.1481C13.2017 18 14.0782 17.5844 14.5021 17.3251C16.3869 16.1687 17.7778 14.2798 18.3251 12.1317C19.2634 8.45679 17.7243 4.66667 14.4774 2.65432C13.4774 2.03292 12.1729 1.58436 10.9836 1.44444C10.5432 1.39506 9.5062 1.39095 9.06999 1.44033Z" fill="black"/>
<path d="M10.8185 1.57199C14.477 1.91356 17.5634 4.69134 18.2877 8.29216C18.8556 11.1276 18.012 13.9506 15.9832 15.9917C12.6951 19.3004 7.31649 19.3004 4.00785 15.9876C0.534599 12.5144 0.73213 6.79422 4.43583 3.60903C6.2095 2.0864 8.50168 1.35389 10.8185 1.57199ZM8.84736 1.83125C7.07369 2.09052 5.47287 2.88475 4.21361 4.13578C2.6169 5.71603 1.76505 7.75718 1.76505 9.99998C1.76505 12.8024 3.11896 15.321 5.46876 16.8806C6.50168 17.5679 7.67863 18.0082 8.94201 18.1728C9.55929 18.2551 10.8062 18.2304 11.3947 18.1276C14.7609 17.5267 17.3741 14.9794 18.0819 11.6049C18.2342 10.893 18.2712 9.62961 18.1642 8.88064C18.0408 7.99586 17.8268 7.27981 17.4441 6.48146C17.012 5.56788 16.5305 4.88887 15.8185 4.17693C14.5511 2.90533 12.9338 2.09052 11.1889 1.83537C10.6416 1.75718 9.39057 1.75307 8.84736 1.83125Z" fill="black"/>
<circle cx="8.107" cy="8.107" r="8.107" transform="matrix(-1 0 0 1 18.1074 1.89301)" fill="url(#paint2_linear_5830_47542)"/>
<path opacity="0.5" d="M12.3418 2.32924C12.6175 2.38274 13.0002 2.60496 13.0002 2.71195C13.0002 2.74899 12.9426 2.81483 12.8726 2.85599C12.8027 2.89714 12.601 3.07409 12.4241 3.24693C12.1525 3.51442 12.0702 3.63376 11.8932 3.9959C11.778 4.23047 11.6545 4.54323 11.6216 4.69138C11.5846 4.83953 11.5434 4.99179 11.5352 5.02882C11.5187 5.08232 11.5352 5.1029 11.601 5.1029C11.6463 5.1029 11.6957 5.06998 11.708 5.02882C11.7657 4.83129 12.1484 4.10701 12.2595 3.97944C12.5105 3.69138 13.029 3.60907 13.4488 3.79014C13.671 3.88479 13.8768 4.08232 13.8397 4.16874C13.8315 4.19343 13.7039 4.28397 13.564 4.37039C13.3418 4.49796 12.3747 5.31278 12.3541 5.38685C12.35 5.3992 12.4776 5.49385 12.6381 5.59673C13.0126 5.83541 13.741 6.55146 14.0331 6.97533C14.4529 7.57615 14.6628 8.03294 14.8562 8.74488C14.9467 9.09055 14.9796 9.13582 15.1278 9.13582C15.2471 9.13582 15.2554 9.16463 15.2142 9.37039C15.1854 9.50619 15.1566 9.54734 15.0949 9.54734C15.0373 9.54734 15.0167 9.57615 15.0167 9.65846V9.76545L15.1113 9.67903C15.1648 9.62965 15.2266 9.5885 15.2512 9.5885C15.3624 9.5885 15.564 9.99179 15.671 10.4362C15.7163 10.6214 15.7574 10.6708 16.0537 10.9259C16.5599 11.3539 17.0414 12.0494 17.2389 12.6338C17.5064 13.4198 17.0043 14.2716 16.2348 14.3498L16.0126 14.3745L16.1977 14.6585C16.3747 14.9177 16.3829 14.9465 16.3336 15.0412C16.2636 15.1729 16.2266 15.1687 16.1525 15.0288C16.1196 14.9671 15.9714 14.7613 15.8191 14.5679C15.5722 14.251 15.5187 14.2099 15.2965 14.1276C14.9673 14.0041 14.7986 13.9054 14.7903 13.8231C14.7821 13.7696 14.8932 13.7943 15.3624 13.963C16.0496 14.2058 16.1072 14.2181 16.3171 14.1605C16.5722 14.0906 16.7986 13.8971 16.9385 13.6338C17.2266 13.0906 17.136 12.6626 16.5475 11.786C16.2389 11.3251 15.8644 10.9095 15.6916 10.8395C15.5846 10.7943 15.5517 10.749 15.5146 10.5926C15.4364 10.2799 15.2512 9.83541 15.1977 9.83541C15.1731 9.83541 15.1401 9.9136 15.1237 10.0041C15.1072 10.0988 15.0743 10.214 15.0496 10.2593C15.0084 10.3416 14.992 10.3334 14.7698 10.0864C14.4488 9.72841 14.3624 9.8066 14.5023 10.3251L14.5599 10.5432L14.3994 10.5185C14.2801 10.498 14.2224 10.5144 14.1484 10.5762L14.0496 10.6543L14.2019 10.8025C14.3665 10.9589 14.3706 10.9712 14.4405 11.3375C14.4694 11.4733 14.5229 11.712 14.5681 11.8724C14.6093 12.0288 14.6463 12.1934 14.6463 12.2346C14.6463 12.3745 14.5434 12.2799 14.457 12.0617C14.4076 11.9424 14.3336 11.7984 14.2883 11.7366L14.206 11.6296L14.0167 11.7572C13.9097 11.8272 13.7574 11.8971 13.6792 11.9095C13.5928 11.9259 13.5352 11.963 13.5352 11.9959C13.5352 12.1399 13.6957 12.4321 14.0167 12.8724C14.5846 13.6502 14.708 13.9753 14.6052 14.4609C14.5187 14.8889 14.136 15.2552 13.5846 15.4445C13.1443 15.5967 12.815 15.6379 12.1319 15.6338C11.42 15.6296 10.7657 15.5515 10.099 15.3951C9.82738 15.3292 9.53108 15.2634 9.44055 15.2469C9.35001 15.2305 8.97141 15.0988 8.59693 14.9506C6.89322 14.2799 6.35413 13.8272 6.30063 13.0247C6.27594 12.5967 6.38705 12.2469 6.71215 11.7655C6.89734 11.4856 6.95084 11.3786 6.90557 11.3663C6.87265 11.3539 6.74507 11.2428 6.62162 11.1152C6.44055 10.9301 6.35413 10.7943 6.19363 10.4321C5.98376 9.95887 5.92203 9.87656 5.77388 9.87656C5.65454 9.87656 5.28005 10.2881 5.11956 10.5967C5.0496 10.7284 4.97553 10.8354 4.95495 10.8313C4.87265 10.8231 4.88911 10.6914 5.01256 10.4239C5.11545 10.2099 5.21421 10.0823 5.4817 9.83953C6.01668 9.3457 6.46112 8.87656 6.42409 8.83953C6.40763 8.82306 6.32121 8.82718 6.2389 8.85187C6.15248 8.87656 6.03314 8.88891 5.97553 8.88068L5.86853 8.86833L5.87676 8.32101C5.88088 7.99179 5.87265 7.7778 5.84795 7.7778C5.82326 7.7778 5.74508 7.89714 5.671 8.04529C5.59693 8.19344 5.51462 8.31278 5.48582 8.31278C5.45289 8.31278 5.39117 8.1852 5.34178 8.00414C5.2924 7.83541 5.2389 7.69549 5.22656 7.69549C5.17717 7.69549 5.02491 8.01237 4.97964 8.21813C4.95084 8.33747 4.90145 8.45269 4.86853 8.4815C4.83561 8.50619 4.63808 8.54734 4.4282 8.56792C3.26771 8.68315 2.69158 8.93829 2.44466 9.44446C2.23067 9.87656 2.27594 10.4362 2.58047 11.0782C2.72038 11.3869 2.77388 11.4486 3.08664 11.712C3.27594 11.8683 3.52285 12.0659 3.63808 12.1441C3.95084 12.3663 4.55577 12.6214 5.06606 12.7572C5.54343 12.8848 5.64219 12.9301 5.564 13.0082C5.5352 13.0371 5.45289 13.0371 5.30063 13.0124C5.17717 12.9877 5.07429 12.9753 5.06606 12.9794C5.06195 12.9877 5.02491 13.2099 4.98787 13.4815C4.89322 14.1564 4.88911 15.7531 4.98376 16.1194C5.05783 16.4074 5.06195 16.4074 4.77388 16.1646C4.65865 16.0659 4.64219 16.0165 4.60516 15.7531C4.58458 15.5885 4.54754 15.3128 4.51874 15.1441C4.42409 14.5432 4.50639 13.5926 4.70392 12.9753C4.72861 12.893 4.70804 12.8766 4.46524 12.8025C3.97964 12.6543 3.5352 12.3704 2.94261 11.8395C2.71215 11.6296 2.60516 11.4938 2.47347 11.2469C2.13191 10.5885 2.03314 9.94652 2.19363 9.47327C2.41174 8.8313 3.16894 8.43212 4.37882 8.33335C4.58458 8.31689 4.74096 8.28397 4.74919 8.25516C4.81915 7.98767 4.88499 7.82306 4.98376 7.66669C5.11133 7.46916 5.11956 7.47738 4.778 7.41154C4.47758 7.34981 4.48582 7.3457 4.45701 7.53088C4.44055 7.62142 4.41586 7.70784 4.39939 7.71607C4.37882 7.72841 4.2389 7.70784 4.08252 7.67492C3.93026 7.64199 3.76154 7.60496 3.71627 7.59261C3.63396 7.57204 3.62985 7.55969 3.671 7.3992C3.69158 7.30043 3.71627 7.21813 3.72038 7.2099C3.7245 7.20578 3.89734 7.23459 4.10721 7.27985C4.31298 7.32101 4.48993 7.3457 4.49816 7.32924C4.50639 7.31689 4.52697 7.22636 4.54343 7.13171C4.56812 6.97944 4.58458 6.95887 4.65866 6.97533C4.79857 7.00825 5.88499 7.23047 6.03314 7.25928C6.16071 7.27985 6.17306 7.27162 6.34178 6.98356C6.55166 6.62142 7.21009 5.95887 7.63808 5.67903C8.35001 5.2099 9.0496 4.95475 9.73684 4.90948C9.94672 4.89714 10.1196 4.87656 10.1196 4.86833C10.1196 4.85599 10.0373 4.75311 9.93437 4.64199C9.74096 4.428 9.4817 3.94241 9.43643 3.71195C9.38293 3.43623 9.79446 3.02883 10.2512 2.90125C10.3953 2.86422 10.5599 2.83952 10.6175 2.84776C10.7122 2.8601 10.7163 2.87245 10.7122 3.10702C10.6875 4.08644 10.6957 4.31278 10.7657 4.60496C10.8068 4.77368 10.8603 4.91771 10.885 4.92594C10.9179 4.93829 10.9138 4.87245 10.8768 4.7243C10.8438 4.60496 10.8191 4.39508 10.8191 4.25928C10.8191 3.89302 10.9303 3.21813 11.0249 3.02471C11.1319 2.80249 11.4035 2.535 11.6257 2.428C11.8027 2.34158 12.1484 2.2922 12.3418 2.32924ZM9.17306 5.22636C8.46524 5.37039 7.7533 5.7778 7.21833 6.34158C6.97553 6.59673 6.45701 7.27985 6.45701 7.34158C6.45701 7.39097 6.84795 7.44035 6.94672 7.3992C7.18129 7.30866 7.51051 7.28808 8.02903 7.32512C8.73273 7.38274 9.17306 7.52265 9.73684 7.87245L10.1525 8.13171L10.9303 8.2922C11.3541 8.38274 11.7574 8.44858 11.8274 8.44858C11.8932 8.44446 12.136 8.428 12.3665 8.41154C12.6998 8.39097 12.8685 8.40331 13.243 8.47327C13.7533 8.57204 14.029 8.67903 14.3582 8.90537C14.6957 9.13994 14.708 9.12348 14.5805 8.60084C14.2266 7.17286 12.9138 5.78191 11.4735 5.31278C11.0537 5.17697 10.885 5.15228 10.2019 5.14817C9.71627 5.14405 9.46935 5.16463 9.17306 5.22636ZM8.18952 7.67492C8.22244 7.70372 8.32121 7.74076 8.40763 7.75722L8.56812 7.78603L8.50639 7.68726C8.46935 7.62965 8.38705 7.58438 8.30474 7.57204C8.15248 7.54734 8.1031 7.59261 8.18952 7.67492ZM7.48582 7.54734C7.48582 7.55557 7.53108 7.57204 7.5887 7.58027C7.64631 7.59261 7.69158 7.58438 7.69158 7.56792C7.69158 7.54734 7.64631 7.53088 7.5887 7.53088C7.53108 7.53088 7.48582 7.53911 7.48582 7.54734ZM5.4282 7.76134L5.47758 7.90948L5.55577 7.78191C5.66688 7.59673 5.66688 7.59673 5.53108 7.57204C5.37882 7.54323 5.36647 7.57203 5.4282 7.76134ZM6.19775 8.09467C6.1854 8.11525 6.16483 8.24693 6.14837 8.39097L6.11956 8.65434L6.28828 8.62553C6.43643 8.60496 6.47347 8.61319 6.55989 8.69961C6.6175 8.75722 6.66277 8.83541 6.66277 8.87656C6.66277 8.9136 6.53931 9.06586 6.39117 9.2099L6.11956 9.47739L6.1854 9.73253C6.22244 9.87245 6.31297 10.1441 6.39528 10.3334C6.51051 10.6132 6.5887 10.7243 6.78623 10.9136C6.92203 11.0453 7.06195 11.1523 7.09487 11.1523C7.12779 11.1523 7.19363 11.0906 7.2389 11.0165C7.31709 10.893 7.31709 10.8807 7.25125 10.8436C6.93026 10.6543 6.61339 10.1811 6.60516 9.87656C6.60104 9.68726 6.75742 9.49385 6.97964 9.41977L7.11545 9.3745L7.01256 9.24282C6.90968 9.10702 6.58046 8.43623 6.58046 8.36216C6.58046 8.31689 6.29651 8.06586 6.24302 8.06586C6.22656 8.06586 6.20598 8.07821 6.19775 8.09467ZM9.15248 8.52265L9.11133 8.70784L8.94672 8.67492C8.8603 8.65434 8.76565 8.64611 8.73684 8.65846C8.67923 8.67903 8.62162 9.01237 8.671 9.06175C8.68746 9.07821 8.78623 9.10702 8.89322 9.11936L9.07841 9.14405L9.10721 8.95475L9.13602 8.76545L9.30886 8.79014C9.40351 8.8066 9.48582 8.82306 9.49405 8.82718C9.49816 8.8313 9.48582 8.91771 9.46524 9.01648C9.44055 9.11525 9.43643 9.2099 9.45289 9.22636C9.46935 9.24282 9.57223 9.27162 9.67512 9.28397L9.86442 9.30866L9.90145 9.13171C9.93849 8.94241 9.94672 8.93829 10.2183 8.97533C10.3336 8.99179 10.3418 8.97944 10.3912 8.79426C10.4488 8.57204 10.4323 8.55146 10.1525 8.50208C10.0084 8.47739 9.9961 8.4815 9.97141 8.5885C9.90968 8.87245 9.90557 8.87656 9.7245 8.83953L9.55166 8.80249L9.5887 8.65023C9.64219 8.41977 9.63808 8.40743 9.46935 8.36216C9.23479 8.29632 9.19775 8.31689 9.15248 8.52265ZM12.5475 8.55557C12.5475 8.60084 12.6175 8.62553 12.8562 8.66669C13.0043 8.69138 13.0167 8.69138 12.9673 8.62965C12.9344 8.59261 12.8356 8.55557 12.741 8.54734C12.6463 8.53911 12.564 8.53088 12.5558 8.52677C12.5517 8.52265 12.5475 8.535 12.5475 8.55557ZM10.1154 9.3992C9.9961 9.47739 9.86442 9.56792 9.82738 9.60084C9.76565 9.65434 9.5887 9.68726 9.02903 9.74076C8.76154 9.76545 7.98787 9.66669 7.71215 9.57204C7.36647 9.45681 6.88911 9.57615 6.81092 9.80249C6.78211 9.88891 6.80269 9.95064 6.93026 10.1605C7.08252 10.4033 7.34178 10.6585 7.44055 10.6585C7.56812 10.6585 7.3747 10.2099 7.20187 10.1029C7.13191 10.0617 7.14837 10 7.23479 10C7.3459 10 7.60104 10.3004 7.63396 10.4692C7.67923 10.7325 7.62162 10.8848 7.32944 11.2346C6.56812 12.1605 6.35824 12.6914 6.58458 13.1523C6.69569 13.3827 7.12779 13.8478 7.41586 14.0453C7.65042 14.2058 8.41586 14.535 9.34178 14.8724C10.4817 15.284 11.2266 15.4115 12.4241 15.4115C13.0784 15.4074 13.387 15.3498 13.7739 15.1564C14.0496 15.0165 14.3418 14.6996 14.4035 14.4733C14.5064 14.0906 14.3829 13.7078 13.9879 13.1729C13.4035 12.3869 13.2883 12.0988 13.3706 11.6585C13.4117 11.4198 13.5105 11.2346 13.6175 11.2017C13.6545 11.1893 13.6628 11.2099 13.6422 11.2922C13.6298 11.3498 13.6052 11.4486 13.5928 11.5062L13.564 11.6132L13.7327 11.5268C14.0373 11.3704 14.0414 11.2428 13.7492 10.9342L13.601 10.7819H13.2183C13.0126 10.7819 12.741 10.7613 12.6216 10.7366C12.0784 10.6214 11.5558 10.2428 11.3171 9.79837C11.1689 9.51854 10.992 9.36216 10.7286 9.27574C10.4982 9.20167 10.387 9.22636 10.1154 9.3992ZM13.8932 9.49796L13.8562 9.67903L13.6587 9.65023C13.4447 9.62142 13.4488 9.61319 13.3912 9.90537C13.3665 10.0288 13.3747 10.0371 13.5229 10.0782C13.6093 10.1029 13.7039 10.1235 13.7327 10.1235C13.7698 10.1235 13.7739 10.1687 13.7574 10.2963L13.7286 10.4692L13.8521 10.3786C14.0743 10.2222 14.0908 10.177 13.9426 10.1441C13.8274 10.1194 13.815 10.1029 13.8397 9.99179C13.8521 9.92183 13.8644 9.83953 13.8644 9.8066C13.8644 9.75722 13.9056 9.75311 14.0866 9.77368L14.3047 9.80249L14.3377 9.60907C14.3665 9.39508 14.35 9.35804 14.1936 9.32924C13.9714 9.28809 13.9303 9.31278 13.8932 9.49796ZM8.54754 9.51442C8.57224 9.53911 8.60927 9.54734 8.62573 9.53088C8.64219 9.51442 8.62985 9.48562 8.59693 9.46504C8.51874 9.41566 8.48582 9.45269 8.54754 9.51442ZM13.0661 10.4733C13.1484 10.6008 13.387 10.6255 13.3624 10.5062C13.3541 10.465 13.2965 10.4198 13.2266 10.4074C13.0043 10.358 12.992 10.3622 13.0661 10.4733Z" fill="white"/>
<path d="M8.40769 7.7572C8.32127 7.74074 8.2225 7.70371 8.18958 7.6749C8.10316 7.5926 8.15254 7.54733 8.3048 7.57202C8.38711 7.58436 8.46941 7.62963 8.50645 7.68725L8.56818 7.78601L8.40769 7.7572Z" fill="#AF7A02"/>
<path d="M7.58876 7.58025C7.53114 7.57202 7.48588 7.55556 7.48588 7.54733C7.48588 7.5391 7.53114 7.53087 7.58876 7.53087C7.64637 7.53087 7.69164 7.54733 7.69164 7.5679C7.69164 7.58436 7.64637 7.5926 7.58876 7.58025Z" fill="#AF7A02"/>
<path d="M5.47764 7.90947L5.42826 7.76132C5.36653 7.57202 5.37888 7.54321 5.53114 7.57202C5.66694 7.59671 5.66695 7.59671 5.55583 7.7819L5.47764 7.90947Z" fill="#AF7A02"/>
<path d="M6.14843 8.39095C6.16489 8.24692 6.18546 8.11523 6.19781 8.09465C6.20604 8.07819 6.22662 8.06585 6.24308 8.06585C6.29657 8.06585 6.58053 8.31688 6.58053 8.36214C6.58053 8.43622 6.90974 9.107 7.01262 9.2428L7.11551 9.37449L6.9797 9.41976C6.75748 9.49383 6.6011 9.68725 6.60522 9.87655C6.61345 10.1811 6.93032 10.6543 7.25131 10.8436C7.31715 10.8807 7.31715 10.893 7.23896 11.0165C7.1937 11.0905 7.12785 11.1523 7.09493 11.1523C7.06201 11.1523 6.92209 11.0453 6.78629 10.9136C6.58876 10.7243 6.51057 10.6132 6.39534 10.3333C6.31304 10.144 6.2225 9.87243 6.18546 9.73251L6.11962 9.47737L6.39123 9.20988C6.53937 9.06585 6.66283 8.91358 6.66283 8.87655C6.66283 8.83539 6.61756 8.7572 6.55995 8.69959C6.47353 8.61317 6.43649 8.60494 6.28835 8.62552L6.11962 8.65432L6.14843 8.39095Z" fill="#AF7A02"/>
<path d="M9.11139 8.70782L9.15254 8.52264C9.19781 8.31688 9.23485 8.2963 9.46941 8.36214C9.63814 8.40741 9.64225 8.41976 9.58876 8.65021L9.55172 8.80247L9.72456 8.83951C9.90563 8.87655 9.90974 8.87243 9.97147 8.58848C9.99616 8.48148 10.0085 8.47737 10.1525 8.50206C10.4324 8.55144 10.4488 8.57202 10.3912 8.79424C10.3418 8.97943 10.3336 8.99177 10.2184 8.97531C9.94678 8.93827 9.93855 8.94239 9.90151 9.13169L9.86448 9.30865L9.67518 9.28395C9.5723 9.27161 9.46941 9.2428 9.45295 9.22634C9.43649 9.20988 9.44061 9.11523 9.4653 9.01646C9.48588 8.9177 9.49822 8.83128 9.49411 8.82716C9.48588 8.82305 9.40357 8.80659 9.30892 8.79013L9.13608 8.76544L9.07847 9.14404L8.89328 9.11934C8.78629 9.107 8.68752 9.07819 8.67106 9.06173C8.62168 9.01235 8.67929 8.67902 8.7369 8.65844C8.76571 8.64609 8.86036 8.65432 8.94678 8.6749L9.11139 8.70782Z" fill="#AF7A02"/>
<path d="M12.8562 8.66667C12.6176 8.62552 12.5476 8.60083 12.5476 8.55556C12.5476 8.53498 12.5517 8.52264 12.5558 8.52675C12.5641 8.53087 12.6464 8.5391 12.741 8.54733C12.8357 8.55556 12.9344 8.5926 12.9674 8.62963C13.0167 8.69136 13.0044 8.69136 12.8562 8.66667Z" fill="#AF7A02"/>
<path d="M13.6587 9.65021L13.8562 9.67902L13.8933 9.49795C13.9303 9.31276 13.9715 9.28807 14.1937 9.32922C14.3501 9.35803 14.3665 9.39507 14.3377 9.60906L14.3048 9.80247L14.0867 9.77367C13.9056 9.75309 13.8645 9.7572 13.8645 9.80659C13.8645 9.83951 13.8521 9.92181 13.8398 9.99177C13.8151 10.1029 13.8274 10.1193 13.9427 10.144C14.0908 10.177 14.0744 10.2222 13.8521 10.3786L13.7287 10.4691L13.7575 10.2963C13.7739 10.1687 13.7698 10.1235 13.7328 10.1235C13.704 10.1235 13.6093 10.1029 13.5229 10.0782C13.3748 10.037 13.3665 10.0288 13.3912 9.90535C13.4229 9.74484 13.4359 9.67499 13.4767 9.64941C13.5101 9.62842 13.5623 9.63723 13.6587 9.65021Z" fill="#AF7A02"/>
<path d="M8.62579 9.53087C8.60933 9.54733 8.5723 9.5391 8.5476 9.51441C8.48588 9.45268 8.5188 9.41564 8.59699 9.46502C8.62991 9.4856 8.64225 9.51441 8.62579 9.53087Z" fill="#AF7A02"/>
<path d="M13.3624 10.5062C13.3871 10.6255 13.1484 10.6008 13.0661 10.4733C12.992 10.3621 13.0044 10.358 13.2266 10.4074C13.2966 10.4198 13.3542 10.465 13.3624 10.5062Z" fill="#AF7A02"/>
<path fill-rule="evenodd" clip-rule="evenodd" d="M4.60827 15.7749C4.60821 15.7745 4.60816 15.7741 4.6081 15.7737C4.6077 15.7708 4.60729 15.7679 4.60688 15.7649C4.60735 15.7683 4.60781 15.7716 4.60827 15.7749Z" fill="#AF7A02"/>
<path fill-rule="evenodd" clip-rule="evenodd" d="M7.21839 6.34157C7.75337 5.77778 8.4653 5.37038 9.17312 5.22634C9.26831 5.20651 9.3584 5.19093 9.45295 5.17905C8.37692 5.54285 7.73351 6.74991 7.54631 7.30797C7.2898 7.31133 7.09849 7.34062 6.94678 7.39918C6.84801 7.44033 6.45707 7.39095 6.45707 7.34157C6.45707 7.27984 6.97559 6.59671 7.21839 6.34157Z" fill="#AF7A02"/>
<path fill-rule="evenodd" clip-rule="evenodd" d="M4.98771 16.2456C5.0055 16.3147 5.01872 16.3661 5.02394 16.4003C5.43728 16.7222 5.88261 17.0048 6.35437 17.2428C5.95604 16.5185 5.30069 14.1276 5.35022 13.0198C5.33461 13.0177 5.31811 13.0152 5.30069 13.0124C5.17723 12.9877 5.07435 12.9753 5.06612 12.9794C5.06201 12.9877 5.02497 13.2099 4.98793 13.4815C4.89328 14.1564 4.88917 15.8642 4.98382 16.2305L4.98771 16.2456ZM5.42826 12.8628C5.34563 12.8341 5.22751 12.8003 5.06612 12.7572C4.55583 12.6214 3.9509 12.3663 3.63814 12.144C3.52291 12.0658 3.276 11.8683 3.0867 11.7119C2.77394 11.4486 2.72044 11.3868 2.58053 11.0782C2.276 10.4362 2.23073 9.87655 2.44472 9.44445C2.69164 8.93827 3.26777 8.68313 4.42826 8.5679C4.63814 8.54733 4.83567 8.50618 4.86859 8.48148C4.90151 8.45268 4.9509 8.33745 4.9797 8.21811C5.02497 8.01235 5.17723 7.69548 5.22662 7.69548C5.19507 7.99726 5.09657 8.63375 4.95501 8.76544C4.90241 8.81437 4.68398 8.86434 4.40221 8.9288C3.73613 9.08118 2.71608 9.31453 2.6959 9.80659C2.65336 10.8437 3.7589 11.6307 4.64519 12.2615C4.95106 12.4793 5.23082 12.6784 5.42826 12.8628ZM5.35022 10.2524C5.51366 10.0479 5.69693 9.87655 5.77394 9.87655C5.92209 9.87655 5.98382 9.95885 6.19369 10.4321C6.35419 10.7942 6.44061 10.93 6.62168 11.1152C6.74513 11.2428 6.87271 11.3539 6.90563 11.3663C6.9509 11.3786 6.8974 11.4856 6.71221 11.7654C6.38711 12.2469 6.276 12.5967 6.30069 13.0247C6.35419 13.8272 6.89328 14.2798 8.59699 14.9506C8.97147 15.0988 9.35007 15.2305 9.44061 15.2469C9.53114 15.2634 9.82744 15.3292 10.099 15.3951C10.7657 15.5514 11.42 15.6296 12.132 15.6337C11.4818 15.7531 9.7509 15.7835 8.02909 14.9506C5.96602 13.9526 5.97127 13.3327 5.97525 12.8626C5.97542 12.8423 5.97559 12.8223 5.97559 12.8025C5.97559 12.3251 6.33361 11.6872 6.45707 11.5268C6.36281 11.3663 6.15442 10.9926 6.07494 10.7819C6.03304 10.6708 6.00662 10.5312 5.98297 10.4063C5.95054 10.2349 5.92333 10.0912 5.86859 10.0864C5.83161 10.0832 5.77961 10.1109 5.71621 10.1446C5.61733 10.1972 5.49073 10.2645 5.35022 10.2524ZM14.637 14.1276C14.6322 14.018 14.6103 13.9091 14.5682 13.7917L14.7904 13.823C14.7986 13.9054 14.9674 14.0041 15.2966 14.1276C15.5188 14.2099 15.5723 14.251 15.8192 14.5679C15.8426 14.5977 15.8679 14.6297 15.8941 14.6628L15.8943 14.6631C16.0379 14.8449 16.207 15.0589 16.2348 15.1111C16.2433 15.127 16.2512 15.1412 16.2588 15.1536C16.2215 15.1988 16.1837 15.2437 16.1455 15.2881L14.637 14.1276ZM14.1884 10.5992C14.1728 10.5904 14.1592 10.5826 14.1484 10.5761L14.0497 10.6543L14.2019 10.8025C14.3665 10.9589 14.3706 10.9712 14.4406 11.3375C14.4694 11.4733 14.5229 11.7119 14.5682 11.8724C14.6093 12.0288 14.6464 12.1934 14.6464 12.2346C14.6464 12.3745 14.5435 12.2798 14.4571 12.0617C14.4077 11.9424 14.3336 11.7984 14.2883 11.7366L14.206 11.6296L14.0167 11.7572C13.9097 11.8272 13.7575 11.8971 13.6793 11.9095C13.5929 11.9259 13.5353 11.963 13.5353 11.9959C13.5353 12.1322 13.6789 12.401 13.9662 12.8025L14.2883 12.1605C14.5915 12.5995 15.2176 13.4123 15.2966 13.1523C15.3492 12.9789 15.0895 12.4113 14.8518 11.8916C14.6437 11.4367 14.4525 11.0187 14.5023 10.9342C14.5711 10.8176 14.315 10.6715 14.1884 10.5992Z" fill="#AF7A02"/>
<path d="M13.2424 8.47325C12.8679 8.40329 12.6992 8.39094 12.3658 8.41152C12.1354 8.42798 11.8926 8.44444 11.8267 8.44856C11.7568 8.44856 11.3535 8.38271 10.9296 8.29218L10.1518 8.13169L9.7362 7.87243C9.17241 7.52263 8.73208 7.38271 8.02838 7.3251C7.84522 7.31202 7.68569 7.30612 7.5456 7.30796C7.7328 6.74991 8.37621 5.54285 9.45224 5.17904C9.65199 5.15394 9.87163 5.14536 10.2012 5.14815C10.4418 5.1496 10.6186 5.1536 10.765 5.16411C12.6514 6.21721 13.2821 7.82511 13.3617 8.49743C13.3234 8.48928 13.2836 8.48124 13.2424 8.47325Z" fill="#EDC02E"/>
<path d="M14.1477 10.5761C14.2218 10.5144 14.2794 10.4979 14.3987 10.5185L14.5592 10.5432L14.5016 10.3251C14.3617 9.80658 14.4481 9.72839 14.7691 10.0864C14.9913 10.3333 15.0078 10.3416 15.049 10.2593C15.0736 10.214 15.1066 10.0988 15.123 10.0041C15.1395 9.91358 15.1724 9.83539 15.1971 9.83539C15.2506 9.83539 15.4358 10.2798 15.514 10.5926C15.551 10.749 15.5839 10.7942 15.6909 10.8395C15.7596 10.958 15.8392 11.0809 15.9215 11.208C16.3426 11.8583 16.8362 12.6204 16.3164 13.4774C16.0265 13.9554 15.5633 14.0027 15.3617 13.963C14.8926 13.7942 14.7815 13.7695 14.7897 13.823L14.5675 13.7917C14.4802 13.5489 14.3061 13.2697 14.016 12.8724C13.9987 12.8487 13.9819 12.8254 13.9655 12.8025L14.2876 12.1605C14.5908 12.5994 15.2169 13.4123 15.2959 13.1523C15.3485 12.9789 15.0888 12.4112 14.8511 11.8916C14.643 11.4367 14.4518 11.0187 14.5016 10.9342C14.5704 10.8176 14.3143 10.6715 14.1877 10.5992C14.1721 10.5903 14.1585 10.5826 14.1477 10.5761Z" fill="#EDC02E"/>
<path d="M5.22591 7.69547C5.23825 7.69547 5.29175 7.83539 5.34114 8.00411C5.39052 8.18518 5.45225 8.31276 5.48517 8.31276C5.51397 8.31276 5.59628 8.19341 5.67035 8.04527C5.74443 7.89712 5.82262 7.77778 5.84731 7.77778C5.872 7.77778 5.88023 7.99177 5.87611 8.32099L5.86788 8.86831L5.97488 8.88066C5.99931 8.88415 6.03483 8.88394 6.07423 8.88066C4.94725 9.71605 4.60451 11.0165 4.74854 11.0165C4.86377 11.0165 4.93373 10.893 4.9543 10.8313C4.97488 10.8354 5.04895 10.7284 5.11891 10.5967C5.17584 10.4872 5.25968 10.3648 5.34951 10.2524C5.49002 10.2645 5.61662 10.1972 5.7155 10.1446C5.7789 10.1109 5.83091 10.0832 5.86788 10.0864C5.92262 10.0912 5.94983 10.2349 5.98226 10.4063C6.00591 10.5312 6.03233 10.6708 6.07423 10.7819C6.15371 10.9926 6.3621 11.3663 6.45636 11.5267C6.3329 11.6872 5.97488 12.3251 5.97488 12.8025C5.97488 12.8223 5.97471 12.8423 5.97454 12.8626C5.97056 13.3327 5.96531 13.9526 8.02838 14.9506C9.75019 15.7835 11.4811 15.7531 12.1313 15.6337C12.8144 15.6379 13.1436 15.5967 13.5839 15.4444C14.1354 15.2551 14.5181 14.8889 14.6045 14.4609C14.6294 14.3433 14.6411 14.2351 14.6363 14.1276L16.1448 15.2881C15.9933 15.464 15.8343 15.6333 15.6685 15.7956C15.5155 15.6456 15.1387 15.3556 14.8555 15.3951C14.6744 15.4203 14.5429 15.5218 14.3942 15.6366C14.2523 15.7461 14.0948 15.8676 13.8638 15.9465C13.3905 16.1081 11.2381 16.214 9.72385 15.8642C8.72206 15.6328 8.03894 15.2735 7.62697 15.0568C7.41622 14.946 7.27642 14.8724 7.20122 14.8724C7.02344 14.8724 6.30958 14.8203 5.97488 14.7942C6.48268 15.7659 7.99423 17.4754 8.74547 18.0106C7.89758 17.8789 7.09316 17.6158 6.35366 17.2428C5.95533 16.5185 5.29998 14.1276 5.34951 13.0198C5.47038 13.0367 5.53784 13.0337 5.56336 13.0082C5.61511 12.9565 5.58934 12.9191 5.42755 12.8628C5.23011 12.6784 4.95035 12.4793 4.64448 12.2615C3.75819 11.6307 2.65266 10.8437 2.69519 9.80658C2.71537 9.31452 3.73542 9.08117 4.4015 8.92879C4.68327 8.86433 4.9017 8.81436 4.9543 8.76543C5.09587 8.63375 5.19436 7.99726 5.22591 7.69547Z" fill="#EDC02E"/>
<path d="M11.4733 5.31277C12.9136 5.78191 14.2264 7.17285 14.5803 8.60084C14.7079 9.12347 14.6955 9.13993 14.3581 8.90536C14.0555 8.69733 13.7981 8.59011 13.3622 8.49744C13.2826 7.82513 12.6519 6.21722 10.7655 5.16412C11.0348 5.18345 11.2014 5.2248 11.4733 5.31277Z" fill="#FEE178"/>
<path d="M15.6914 10.8395C15.8643 10.9095 16.2387 11.3251 16.5474 11.786C17.1359 12.6626 17.2264 13.0906 16.9383 13.6338C16.7984 13.8971 16.5721 14.0906 16.3169 14.1605C16.1071 14.2181 16.0494 14.2058 15.3622 13.963C15.5638 14.0028 16.027 13.9554 16.3169 13.4774C16.8367 12.6204 16.3431 11.8583 15.922 11.208C15.8397 11.0809 15.7601 10.958 15.6914 10.8395Z" fill="#FEE178"/>
<path d="M6.23875 8.85187C6.32105 8.82717 6.40747 8.82306 6.42393 8.83952C6.46097 8.87656 6.01653 9.34569 5.48155 9.83952C5.21406 10.0823 5.11529 10.2099 5.01241 10.4239C4.88895 10.6914 4.87249 10.8231 4.9548 10.8313C4.93422 10.893 4.86426 11.0165 4.74903 11.0165C4.605 11.0165 4.94774 9.71606 6.07473 8.88067C6.12826 8.87621 6.18897 8.86609 6.23875 8.85187Z" fill="#FEE178"/>
<path d="M15.669 15.7956C14.2072 17.2256 12.2066 18.107 10.0002 18.107C9.57363 18.107 9.15474 18.0741 8.74596 18.0106C7.99472 17.4754 6.48318 15.7659 5.97537 14.7943C6.31008 14.8203 7.02393 14.8724 7.20171 14.8724C7.27692 14.8724 7.41671 14.946 7.62746 15.0568C8.03944 15.2735 8.72256 15.6328 9.72434 15.8642C11.2386 16.214 13.391 16.1081 13.8643 15.9465C14.0953 15.8676 14.2528 15.7461 14.3947 15.6366C14.5434 15.5219 14.6749 15.4203 14.856 15.3951C15.1392 15.3556 15.516 15.6456 15.669 15.7956Z" fill="#FEE178"/>
<path d="M9.82681 9.6008C9.86385 9.56788 9.99554 9.47735 10.1149 9.39916C10.3865 9.22632 10.4976 9.20163 10.728 9.2757C10.9914 9.36212 11.1684 9.5185 11.3165 9.79833C11.5552 10.2428 12.0778 10.6214 12.6211 10.7366C12.7404 10.7613 13.012 10.7819 13.2178 10.7819H13.6005L13.7486 10.9341C14.0408 11.2428 14.0367 11.3704 13.7322 11.5267L13.5634 11.6132L13.5922 11.5062C13.5984 11.4773 13.6077 11.4383 13.6169 11.3992C13.6262 11.3601 13.6355 11.321 13.6416 11.2922C13.6622 11.2099 13.654 11.1893 13.6169 11.2016C13.5783 11.2135 13.5408 11.2452 13.5066 11.2922L13.4761 11.0164C13.2227 11.0329 12.6665 11.0559 12.4689 11.0164C12.3587 10.9944 12.2196 10.9231 12.0904 10.8568C11.9303 10.7746 11.7851 10.7002 11.7282 10.7366C11.6459 10.7893 11.5156 10.8765 11.4607 10.9136L11.399 10.8024L11.4607 10.4691C11.3321 10.3402 11.0657 10.014 11.0286 9.74072C10.986 9.73059 10.8662 9.69813 10.728 9.64939C10.5899 9.60064 10.3907 9.5281 10.3084 9.49792C10.1987 9.60492 9.85988 9.83619 9.38251 9.90533C8.90515 9.97447 8.28091 9.93414 8.02846 9.90533C8.09072 10.1344 8.14828 10.6773 7.88046 11.0164C7.75381 11.1768 7.62226 11.3218 7.50318 11.4531C7.30748 11.6689 7.14547 11.8475 7.0943 11.9959C7.06206 12.0894 7.02225 12.1443 6.98722 12.1927C6.93283 12.2678 6.88998 12.327 6.905 12.4897C6.92969 12.7572 7.55917 14.0792 9.73628 14.6631C9.8568 14.6954 9.97133 14.7262 10.0804 14.7555C11.9411 15.256 12.2038 15.3267 13.37 15.144C13.6702 15.048 14.3038 14.7284 14.4375 14.2181C14.4373 14.3042 14.4257 14.3887 14.4029 14.4732C14.3412 14.6996 14.049 15.0164 13.7733 15.1564C13.3865 15.3498 13.0778 15.4074 12.4235 15.4115C11.226 15.4115 10.4811 15.2839 9.34122 14.8724C8.41529 14.535 7.64986 14.2057 7.41529 14.0452C7.12722 13.8477 6.69512 13.3827 6.58401 13.1522C6.35768 12.6913 6.56755 12.1605 7.32887 11.2345C7.62105 10.8848 7.67866 10.7325 7.6334 10.4691C7.60047 10.3004 7.34533 9.99998 7.23422 9.99998C7.1478 9.99998 7.13134 10.0617 7.2013 10.1029C7.37414 10.2099 7.56755 10.6584 7.43998 10.6584C7.34121 10.6584 7.08196 10.4033 6.92969 10.1605C6.80212 9.9506 6.78154 9.88887 6.81035 9.80245C6.88854 9.57611 7.36591 9.45677 7.71159 9.572C7.98731 9.66665 8.76097 9.76541 9.02846 9.74072C9.58813 9.68722 9.76508 9.6543 9.82681 9.6008Z" fill="#AB936A"/>
<path d="M9.52655 9.93825C9.53061 10.1042 9.59636 10.4502 9.82681 10.5062C10.0573 10.5621 9.72266 10.1509 9.52655 9.93825Z" fill="#AB936A"/>
<path fill-rule="evenodd" clip-rule="evenodd" d="M13.37 11.6584C13.2877 12.0987 13.4029 12.3868 13.9873 13.1728C14.2951 13.5897 14.4381 13.9141 14.4375 14.2181C14.3038 14.7284 13.6701 15.048 13.37 15.144C12.2038 15.3267 11.9411 15.2561 10.0804 14.7555C9.97133 14.7262 9.8568 14.6954 9.73627 14.6631C7.55917 14.0792 6.92969 12.7572 6.905 12.4897C6.88998 12.327 6.93282 12.2678 6.98722 12.1927C7.02225 12.1443 7.06206 12.0894 7.0943 11.9959C7.14547 11.8475 7.30748 11.6689 7.50318 11.4531C7.62226 11.3218 7.75381 11.1768 7.88046 11.0164C8.14828 10.6774 8.09071 10.1344 8.02846 9.90533C8.28091 9.93414 8.90515 9.97447 9.38251 9.90533C9.85988 9.8362 10.1987 9.60492 10.3084 9.49792C10.3907 9.5281 10.5899 9.60065 10.728 9.64939C10.8662 9.69813 10.986 9.73059 11.0286 9.74072C11.0657 10.014 11.3321 10.3402 11.4607 10.4691L11.399 10.8025L11.4607 10.9136C11.5156 10.8765 11.6459 10.7893 11.7282 10.7366C11.7851 10.7002 11.9303 10.7746 12.0904 10.8568C12.2196 10.9231 12.3587 10.9944 12.4689 11.0164C12.6665 11.056 13.2227 11.0329 13.4761 11.0164L13.5066 11.2922C13.4461 11.3752 13.3963 11.5059 13.37 11.6584ZM9.52655 9.93825C9.53061 10.1042 9.59636 10.4502 9.82681 10.5062C10.0573 10.5621 9.72266 10.1509 9.52655 9.93825Z" fill="#DAC9AB"/>
<path d="M12.3418 2.32924C12.6175 2.38274 13.0002 2.60496 13.0002 2.71195C13.0002 2.74899 12.9426 2.81483 12.8726 2.85599C12.8027 2.89714 12.601 3.07409 12.4241 3.24693C12.1525 3.51442 12.0702 3.63376 11.8932 3.9959C11.778 4.23047 11.6545 4.54323 11.6216 4.69138C11.5846 4.83953 11.5434 4.99179 11.5352 5.02882C11.5187 5.08232 11.5352 5.1029 11.601 5.1029C11.6463 5.1029 11.6957 5.06998 11.708 5.02882C11.7657 4.83129 12.1484 4.10701 12.2595 3.97944C12.5105 3.69138 13.029 3.60907 13.4488 3.79014C13.671 3.88479 13.8768 4.08232 13.8397 4.16874C13.8315 4.19343 13.7039 4.28397 13.564 4.37039C13.3418 4.49796 12.3747 5.31278 12.3541 5.38685C12.35 5.3992 12.4776 5.49385 12.6381 5.59673C13.0126 5.83541 13.741 6.55146 14.0331 6.97533C14.4529 7.57615 14.6628 8.03294 14.8562 8.74488C14.9467 9.09055 14.9796 9.13582 15.1278 9.13582C15.2471 9.13582 15.2554 9.16463 15.2142 9.37039C15.1854 9.50619 15.1566 9.54734 15.0949 9.54734C15.0373 9.54734 15.0167 9.57615 15.0167 9.65846V9.76545L15.1113 9.67903C15.1648 9.62965 15.2266 9.5885 15.2512 9.5885C15.3624 9.5885 15.564 9.99179 15.671 10.4362C15.7163 10.6214 15.7574 10.6708 16.0537 10.9259C16.5599 11.3539 17.0414 12.0494 17.2389 12.6338C17.5064 13.4198 17.0043 14.2716 16.2348 14.3498L16.0126 14.3745L16.1977 14.6585C16.3747 14.9177 16.3829 14.9465 16.3336 15.0412C16.2636 15.1729 16.2266 15.1687 16.1525 15.0288C16.1196 14.9671 15.9714 14.7613 15.8191 14.5679C15.5722 14.251 15.5187 14.2099 15.2965 14.1276C14.9673 14.0041 14.7986 13.9054 14.7903 13.8231C14.7821 13.7696 14.8932 13.7943 15.3624 13.963C16.0496 14.2058 16.1072 14.2181 16.3171 14.1605C16.5722 14.0906 16.7986 13.8971 16.9385 13.6338C17.2266 13.0906 17.136 12.6626 16.5475 11.786C16.2389 11.3251 15.8644 10.9095 15.6916 10.8395C15.5846 10.7943 15.5517 10.749 15.5146 10.5926C15.4364 10.2799 15.2512 9.83541 15.1977 9.83541C15.1731 9.83541 15.1401 9.9136 15.1237 10.0041C15.1072 10.0988 15.0743 10.214 15.0496 10.2593C15.0084 10.3416 14.992 10.3334 14.7698 10.0864C14.4488 9.72841 14.3624 9.8066 14.5023 10.3251L14.5599 10.5432L14.3994 10.5185C14.2801 10.498 14.2224 10.5144 14.1484 10.5762L14.0496 10.6543L14.2019 10.8025C14.3665 10.9589 14.3706 10.9712 14.4405 11.3375C14.4694 11.4733 14.5229 11.712 14.5681 11.8724C14.6093 12.0288 14.6463 12.1934 14.6463 12.2346C14.6463 12.3745 14.5434 12.2799 14.457 12.0617C14.4076 11.9424 14.3336 11.7984 14.2883 11.7366L14.206 11.6296L14.0167 11.7572C13.9097 11.8272 13.7574 11.8971 13.6792 11.9095C13.5928 11.9259 13.5352 11.963 13.5352 11.9959C13.5352 12.1399 13.6957 12.4321 14.0167 12.8724C14.5846 13.6502 14.708 13.9753 14.6052 14.4609C14.5187 14.8889 14.136 15.2552 13.5846 15.4445C13.1443 15.5967 12.815 15.6379 12.1319 15.6338C11.42 15.6296 10.7657 15.5515 10.099 15.3951C9.82738 15.3292 9.53108 15.2634 9.44055 15.2469C9.35001 15.2305 8.97141 15.0988 8.59693 14.9506C6.89322 14.2799 6.35413 13.8272 6.30063 13.0247C6.27594 12.5967 6.38705 12.2469 6.71215 11.7655C6.89734 11.4856 6.95084 11.3786 6.90557 11.3663C6.87265 11.3539 6.74507 11.2428 6.62162 11.1152C6.44055 10.9301 6.35413 10.7943 6.19363 10.4321C5.98376 9.95887 5.92203 9.87656 5.77388 9.87656C5.65454 9.87656 5.28005 10.2881 5.11956 10.5967C5.0496 10.7284 4.97553 10.8354 4.95495 10.8313C4.87265 10.8231 4.88911 10.6914 5.01256 10.4239C5.11545 10.2099 5.21421 10.0823 5.4817 9.83953C6.01668 9.3457 6.46112 8.87656 6.42409 8.83953C6.40763 8.82306 6.32121 8.82718 6.2389 8.85187C6.15248 8.87656 6.03314 8.88891 5.97553 8.88068L5.86853 8.86833L5.87676 8.32101C5.88088 7.99179 5.87265 7.7778 5.84795 7.7778C5.82326 7.7778 5.74508 7.89714 5.671 8.04529C5.59693 8.19344 5.51462 8.31278 5.48582 8.31278C5.45289 8.31278 5.39117 8.1852 5.34178 8.00414C5.2924 7.83541 5.2389 7.69549 5.22656 7.69549C5.17717 7.69549 5.02491 8.01237 4.97964 8.21813C4.95084 8.33747 4.90145 8.45269 4.86853 8.4815C4.83561 8.50619 4.63808 8.54734 4.4282 8.56792C3.26771 8.68315 2.69158 8.93829 2.44466 9.44446C2.23067 9.87656 2.27594 10.4362 2.58047 11.0782C2.72038 11.3869 2.77388 11.4486 3.08664 11.712C3.27594 11.8683 3.52285 12.0659 3.63808 12.1441C3.95084 12.3663 4.55577 12.6214 5.06606 12.7572C5.54343 12.8848 5.64219 12.9301 5.564 13.0082C5.5352 13.0371 5.45289 13.0371 5.30063 13.0124C5.17717 12.9877 5.07429 12.9753 5.06606 12.9794C5.06195 12.9877 5.02491 13.2099 4.98787 13.4815C4.89322 14.1564 4.88911 15.7531 4.98376 16.1194C5.05783 16.4074 5.06195 16.4074 4.77388 16.1646C4.65865 16.0659 4.64219 16.0165 4.60516 15.7531C4.58458 15.5885 4.54754 15.3128 4.51874 15.1441C4.42409 14.5432 4.50639 13.5926 4.70392 12.9753C4.72861 12.893 4.70804 12.8766 4.46524 12.8025C3.97964 12.6543 3.5352 12.3704 2.94261 11.8395C2.71215 11.6296 2.60516 11.4938 2.47347 11.2469C2.13191 10.5885 2.03314 9.94652 2.19363 9.47327C2.41174 8.8313 3.16894 8.43212 4.37882 8.33335C4.58458 8.31689 4.74096 8.28397 4.74919 8.25516C4.81915 7.98767 4.88499 7.82306 4.98376 7.66669C5.11133 7.46916 5.11956 7.47738 4.778 7.41154C4.47758 7.34981 4.48582 7.3457 4.45701 7.53088C4.44055 7.62142 4.41586 7.70784 4.39939 7.71607C4.37882 7.72841 4.2389 7.70784 4.08252 7.67492C3.93026 7.64199 3.76154 7.60496 3.71627 7.59261C3.63396 7.57204 3.62985 7.55969 3.671 7.3992C3.69158 7.30043 3.71627 7.21813 3.72038 7.2099C3.7245 7.20578 3.89734 7.23459 4.10721 7.27985C4.31298 7.32101 4.48993 7.3457 4.49816 7.32924C4.50639 7.31689 4.52697 7.22636 4.54343 7.13171C4.56812 6.97944 4.58458 6.95887 4.65866 6.97533C4.79857 7.00825 5.88499 7.23047 6.03314 7.25928C6.16071 7.27985 6.17306 7.27162 6.34178 6.98356C6.55166 6.62142 7.21009 5.95887 7.63808 5.67903C8.35001 5.2099 9.0496 4.95475 9.73684 4.90948C9.94672 4.89714 10.1196 4.87656 10.1196 4.86833C10.1196 4.85599 10.0373 4.75311 9.93437 4.64199C9.74096 4.428 9.4817 3.94241 9.43643 3.71195C9.38293 3.43623 9.79446 3.02883 10.2512 2.90125C10.3953 2.86422 10.5599 2.83952 10.6175 2.84776C10.7122 2.8601 10.7163 2.87245 10.7122 3.10702C10.6875 4.08644 10.6957 4.31278 10.7657 4.60496C10.8068 4.77368 10.8603 4.91771 10.885 4.92594C10.9179 4.93829 10.9138 4.87245 10.8768 4.7243C10.8438 4.60496 10.8191 4.39508 10.8191 4.25928C10.8191 3.89302 10.9303 3.21813 11.0249 3.02471C11.1319 2.80249 11.4035 2.535 11.6257 2.428C11.8027 2.34158 12.1484 2.2922 12.3418 2.32924ZM9.17306 5.22636C8.46524 5.37039 7.7533 5.7778 7.21833 6.34158C6.97553 6.59673 6.45701 7.27985 6.45701 7.34158C6.45701 7.39097 6.84795 7.44035 6.94672 7.3992C7.18129 7.30866 7.51051 7.28808 8.02903 7.32512C8.73273 7.38274 9.17306 7.52265 9.73684 7.87245L10.1525 8.13171L10.9303 8.2922C11.3541 8.38274 11.7574 8.44858 11.8274 8.44858C11.8932 8.44446 12.136 8.428 12.3665 8.41154C12.6998 8.39097 12.8685 8.40331 13.243 8.47327C13.7533 8.57204 14.029 8.67903 14.3582 8.90537C14.6957 9.13994 14.708 9.12348 14.5805 8.60084C14.2266 7.17286 12.9138 5.78191 11.4735 5.31278C11.0537 5.17697 10.885 5.15228 10.2019 5.14817C9.71627 5.14405 9.46935 5.16463 9.17306 5.22636ZM8.18952 7.67492C8.22244 7.70372 8.32121 7.74076 8.40763 7.75722L8.56812 7.78603L8.50639 7.68726C8.46935 7.62965 8.38705 7.58438 8.30474 7.57204C8.15248 7.54734 8.1031 7.59261 8.18952 7.67492ZM7.48582 7.54734C7.48582 7.55557 7.53108 7.57204 7.5887 7.58027C7.64631 7.59261 7.69158 7.58438 7.69158 7.56792C7.69158 7.54734 7.64631 7.53088 7.5887 7.53088C7.53108 7.53088 7.48582 7.53911 7.48582 7.54734ZM5.4282 7.76134L5.47758 7.90948L5.55577 7.78191C5.66688 7.59673 5.66688 7.59673 5.53108 7.57204C5.37882 7.54323 5.36647 7.57203 5.4282 7.76134ZM6.19775 8.09467C6.1854 8.11525 6.16483 8.24693 6.14837 8.39097L6.11956 8.65434L6.28828 8.62553C6.43643 8.60496 6.47347 8.61319 6.55989 8.69961C6.6175 8.75722 6.66277 8.83541 6.66277 8.87656C6.66277 8.9136 6.53931 9.06586 6.39117 9.2099L6.11956 9.47739L6.1854 9.73253C6.22244 9.87245 6.31297 10.1441 6.39528 10.3334C6.51051 10.6132 6.5887 10.7243 6.78623 10.9136C6.92203 11.0453 7.06195 11.1523 7.09487 11.1523C7.12779 11.1523 7.19363 11.0906 7.2389 11.0165C7.31709 10.893 7.31709 10.8807 7.25125 10.8436C6.93026 10.6543 6.61339 10.1811 6.60516 9.87656C6.60104 9.68726 6.75742 9.49385 6.97964 9.41977L7.11545 9.3745L7.01256 9.24282C6.90968 9.10702 6.58046 8.43623 6.58046 8.36216C6.58046 8.31689 6.29651 8.06586 6.24302 8.06586C6.22656 8.06586 6.20598 8.07821 6.19775 8.09467ZM9.15248 8.52265L9.11133 8.70784L8.94672 8.67492C8.8603 8.65434 8.76565 8.64611 8.73684 8.65846C8.67923 8.67903 8.62162 9.01237 8.671 9.06175C8.68746 9.07821 8.78623 9.10702 8.89322 9.11936L9.07841 9.14405L9.10721 8.95475L9.13602 8.76545L9.30886 8.79014C9.40351 8.8066 9.48582 8.82306 9.49405 8.82718C9.49816 8.8313 9.48582 8.91771 9.46524 9.01648C9.44055 9.11525 9.43643 9.2099 9.45289 9.22636C9.46935 9.24282 9.57223 9.27162 9.67512 9.28397L9.86442 9.30866L9.90145 9.13171C9.93849 8.94241 9.94672 8.93829 10.2183 8.97533C10.3336 8.99179 10.3418 8.97944 10.3912 8.79426C10.4488 8.57204 10.4323 8.55146 10.1525 8.50208C10.0084 8.47739 9.9961 8.4815 9.97141 8.5885C9.90968 8.87245 9.90557 8.87656 9.7245 8.83953L9.55166 8.80249L9.5887 8.65023C9.64219 8.41977 9.63808 8.40743 9.46935 8.36216C9.23479 8.29632 9.19775 8.31689 9.15248 8.52265ZM12.5475 8.55557C12.5475 8.60084 12.6175 8.62553 12.8562 8.66669C13.0043 8.69138 13.0167 8.69138 12.9673 8.62965C12.9344 8.59261 12.8356 8.55557 12.741 8.54734C12.6463 8.53911 12.564 8.53088 12.5558 8.52677C12.5517 8.52265 12.5475 8.535 12.5475 8.55557ZM10.1154 9.3992C9.9961 9.47739 9.86442 9.56792 9.82738 9.60084C9.76565 9.65434 9.5887 9.68726 9.02903 9.74076C8.76154 9.76545 7.98787 9.66669 7.71215 9.57204C7.36647 9.45681 6.88911 9.57615 6.81092 9.80249C6.78211 9.88891 6.80269 9.95064 6.93026 10.1605C7.08252 10.4033 7.34178 10.6585 7.44055 10.6585C7.56812 10.6585 7.3747 10.2099 7.20187 10.1029C7.13191 10.0617 7.14837 10 7.23479 10C7.3459 10 7.60104 10.3004 7.63396 10.4692C7.67923 10.7325 7.62162 10.8848 7.32944 11.2346C6.56812 12.1605 6.35824 12.6914 6.58458 13.1523C6.69569 13.3827 7.12779 13.8478 7.41586 14.0453C7.65042 14.2058 8.41586 14.535 9.34178 14.8724C10.4817 15.284 11.2266 15.4115 12.4241 15.4115C13.0784 15.4074 13.387 15.3498 13.7739 15.1564C14.0496 15.0165 14.3418 14.6996 14.4035 14.4733C14.5064 14.0906 14.3829 13.7078 13.9879 13.1729C13.4035 12.3869 13.2883 12.0988 13.3706 11.6585C13.4117 11.4198 13.5105 11.2346 13.6175 11.2017C13.6545 11.1893 13.6628 11.2099 13.6422 11.2922C13.6298 11.3498 13.6052 11.4486 13.5928 11.5062L13.564 11.6132L13.7327 11.5268C14.0373 11.3704 14.0414 11.2428 13.7492 10.9342L13.601 10.7819H13.2183C13.0126 10.7819 12.741 10.7613 12.6216 10.7366C12.0784 10.6214 11.5558 10.2428 11.3171 9.79837C11.1689 9.51854 10.992 9.36216 10.7286 9.27574C10.4982 9.20167 10.387 9.22636 10.1154 9.3992ZM13.8932 9.49796L13.8562 9.67903L13.6587 9.65023C13.4447 9.62142 13.4488 9.61319 13.3912 9.90537C13.3665 10.0288 13.3747 10.0371 13.5229 10.0782C13.6093 10.1029 13.7039 10.1235 13.7327 10.1235C13.7698 10.1235 13.7739 10.1687 13.7574 10.2963L13.7286 10.4692L13.8521 10.3786C14.0743 10.2222 14.0908 10.177 13.9426 10.1441C13.8863 10.132 13.8546 10.1219 13.8397 10.1018C13.8242 10.0807 13.8271 10.0486 13.8397 9.99179C13.8521 9.92183 13.8644 9.83953 13.8644 9.8066C13.8644 9.75722 13.9056 9.75311 14.0866 9.77368L14.3047 9.80249L14.3377 9.60907C14.3665 9.39508 14.35 9.35804 14.1936 9.32924C13.9714 9.28809 13.9303 9.31278 13.8932 9.49796ZM8.54754 9.51442C8.57224 9.53911 8.60927 9.54734 8.62573 9.53088C8.64219 9.51442 8.62985 9.48562 8.59693 9.46504C8.51874 9.41566 8.48582 9.45269 8.54754 9.51442ZM13.0661 10.4733C13.1484 10.6008 13.387 10.6255 13.3624 10.5062C13.3541 10.465 13.2965 10.4198 13.2266 10.4074C13.0043 10.358 12.992 10.3622 13.0661 10.4733Z" fill="black"/>
<path d="M8.18952 7.67492C8.22244 7.70372 8.32121 7.74076 8.40763 7.75722L8.56812 7.78603L8.50639 7.68726C8.46935 7.62965 8.38705 7.58438 8.30474 7.57204C8.15248 7.54734 8.1031 7.59261 8.18952 7.67492Z" fill="#58595C"/>
<path d="M7.48582 7.54734C7.48582 7.55557 7.53108 7.57204 7.5887 7.58027C7.64631 7.59261 7.69158 7.58438 7.69158 7.56792C7.69158 7.54734 7.64631 7.53088 7.5887 7.53088C7.53108 7.53088 7.48582 7.53911 7.48582 7.54734Z" fill="#58595C"/>
<path d="M8.54754 9.51442C8.57224 9.53911 8.60927 9.54734 8.62573 9.53088C8.64219 9.51442 8.62985 9.48562 8.59693 9.46504C8.51874 9.41566 8.48582 9.45269 8.54754 9.51442Z" fill="#58595C"/>
<path d="M12.5475 8.55557C12.5475 8.60084 12.6175 8.62553 12.8562 8.66669C13.0043 8.69138 13.0167 8.69138 12.9673 8.62965C12.9344 8.59261 12.8356 8.55557 12.741 8.54734C12.6463 8.53911 12.564 8.53088 12.5558 8.52677C12.5517 8.52265 12.5475 8.535 12.5475 8.55557Z" fill="#58595C"/>
<path d="M13.0661 10.4733C13.1484 10.6008 13.387 10.6255 13.3624 10.5062C13.3541 10.465 13.2965 10.4198 13.2266 10.4074C13.0043 10.358 12.992 10.3622 13.0661 10.4733Z" fill="#58595C"/>
<path d="M13.7327 10.1235C13.7698 10.1235 13.7739 10.1687 13.7574 10.2963L13.7286 10.4692L13.8521 10.3786C14.0743 10.2222 14.0908 10.177 13.9426 10.1441C13.8863 10.132 13.8546 10.1219 13.8397 10.1018L13.7327 10.1235Z" fill="#58595C"/>
<path d="M9.15181 8.52265L9.11066 8.70784L8.94605 8.67491C8.85963 8.65434 8.76498 8.64611 8.73617 8.65845C8.67856 8.67903 8.62094 9.01236 8.67033 9.06175C8.68679 9.07821 8.78555 9.10701 8.89255 9.11936L9.07773 9.14405L9.10654 8.95475L9.13535 8.76545L9.30819 8.79014C9.40284 8.8066 9.48514 8.82306 9.49337 8.82718C9.49749 8.83129 9.48514 8.91771 9.46457 9.01648C9.43987 9.11524 9.43576 9.20989 9.45222 9.22635C9.46868 9.24282 9.57156 9.27162 9.67444 9.28397L9.86374 9.30866L9.90078 9.1317C9.93782 8.9424 9.94605 8.93829 10.2177 8.97533C10.3329 8.99179 10.3411 8.97944 10.3905 8.79426C10.4481 8.57203 10.4316 8.55146 10.1518 8.50207C10.0078 8.47738 9.99543 8.4815 9.97074 8.58849C9.90901 8.87245 9.90489 8.87656 9.72382 8.83952L9.55099 8.80249L9.58802 8.65022C9.64152 8.41977 9.6374 8.40742 9.46868 8.36216C9.23411 8.29631 9.19708 8.31689 9.15181 8.52265Z" fill="#FEFEFE"/>
<path d="M13.8925 9.49796L13.8555 9.67903L13.658 9.65022C13.444 9.62142 13.4481 9.61319 13.3905 9.90537C13.3658 10.0288 13.374 10.0371 13.5222 10.0782C13.6086 10.1029 13.7032 10.1235 13.7321 10.1235L13.8391 10.1018C13.8235 10.0807 13.8264 10.0486 13.8391 9.99179C13.8514 9.92183 13.8637 9.83952 13.8637 9.8066C13.8637 9.75722 13.9049 9.7531 14.086 9.77368L14.3041 9.80249L14.337 9.60907C14.3658 9.39508 14.3493 9.35804 14.193 9.32924C13.9707 9.28808 13.9296 9.31277 13.8925 9.49796Z" fill="#FEFEFE"/>
<path d="M10.2751 6.05762C10.2998 6.08643 10.3286 6.18108 10.3451 6.2675C10.378 6.44445 10.3862 6.44857 10.6784 6.47326L10.8883 6.48972L10.9253 6.30042C10.95 6.17696 10.9829 6.11112 11.0241 6.11112C11.0694 6.11112 11.0858 6.16462 11.0858 6.32923V6.55145L11.2833 6.62552L11.4768 6.6996L11.5632 6.58025C11.6496 6.4568 11.7648 6.41976 11.7648 6.51441C11.7648 6.54322 11.736 6.60495 11.7031 6.65021C11.6167 6.76544 11.6249 6.79836 11.7854 6.92593L11.9253 7.03704L12.0611 6.95474C12.234 6.85186 12.2998 6.85186 12.2998 6.95474C12.2998 7.00824 12.2504 7.06997 12.1763 7.11112C12.094 7.1605 12.0611 7.20165 12.0817 7.24281C12.094 7.27573 12.1146 7.39095 12.127 7.49383C12.1475 7.74075 12.0611 7.90947 11.8595 8.00412C11.7196 8.06997 11.6743 8.07408 11.3945 8.02881C10.9665 7.95474 10.5056 7.80248 10.2751 7.65844C9.95001 7.45268 9.74836 6.96297 9.88005 6.70783C9.9212 6.62964 10.094 6.50206 10.1887 6.47737C10.1928 6.47737 10.1805 6.40741 10.1558 6.32511C10.094 6.09054 10.1681 5.93005 10.2751 6.05762ZM10.3656 6.62964C10.1228 6.68313 10.0364 6.76955 10.0364 6.94651C10.0364 7.25515 10.3245 7.54733 10.7566 7.67902C11.1475 7.79425 11.6208 7.87655 11.736 7.84363C11.8718 7.81071 11.9706 7.62141 11.9377 7.4568C11.8842 7.18931 11.3245 6.78602 10.8101 6.65021C10.5426 6.57614 10.5879 6.58025 10.3656 6.62964Z" fill="black"/>
<path d="M10.3659 6.62965C10.1231 6.68314 10.0367 6.76956 10.0367 6.94652C10.0367 7.25516 10.3248 7.54734 10.7569 7.67903C11.1478 7.79425 11.6211 7.87656 11.7363 7.84364C11.8721 7.81072 11.9709 7.62141 11.938 7.45681C11.8845 7.18932 11.3248 6.78602 10.8104 6.65022C10.5429 6.57615 10.5882 6.58026 10.3659 6.62965Z" fill="white"/>
<circle cx="0.246914" cy="0.246914" r="0.246914" transform="matrix(-1 0 0 1 11.1934 6.99585)" fill="#B50F11"/>
<circle cx="0.123457" cy="0.123457" r="0.123457" transform="matrix(-1 0 0 1 11.0693 7.11932)" fill="black"/>
<path d="M9.81463 9.90945C9.88871 9.95471 10.041 10.2675 10.0492 10.395C10.0533 10.4773 10.0369 10.5144 9.98747 10.5267C9.93397 10.535 9.88459 10.4691 9.78994 10.2634C9.64591 9.94237 9.65414 9.80657 9.81463 9.90945Z" fill="black"/>
<path d="M11.745 10.4938C11.782 10.5555 11.7285 10.6173 11.6339 10.6173C11.5886 10.6173 11.4858 10.6872 11.4034 10.7695C11.2718 10.9095 11.2594 10.9177 11.21 10.8518C11.136 10.7448 11.1812 10.6214 11.3294 10.5309C11.4652 10.4485 11.7039 10.428 11.745 10.4938Z" fill="black"/>
<defs>
<linearGradient id="paint0_linear_5830_47542" x1="15.4938" y1="1.52263" x2="10" y2="20" gradientUnits="userSpaceOnUse">
<stop stop-color="#B69816"/>
<stop offset="0.666368" stop-color="#9D5516"/>
<stop offset="1" stop-color="#654206"/>
</linearGradient>
<linearGradient id="paint1_linear_5830_47542" x1="15.1646" y1="2.11934" x2="9.30041" y2="18.6008" gradientUnits="userSpaceOnUse">
<stop stop-color="#DAB833"/>
<stop offset="0.707762" stop-color="#B56F20"/>
<stop offset="1" stop-color="#7E5006"/>
</linearGradient>
<linearGradient id="paint2_linear_5830_47542" x1="4.01235" y1="1.21399" x2="8.107" y2="16.214" gradientUnits="userSpaceOnUse">
<stop offset="0.306781" stop-color="#782B0E"/>
<stop offset="0.549836" stop-color="#4D2212"/>
<stop offset="1" stop-color="#412014"/>
</linearGradient>
</defs>
</svg>
