<svg width="20" height="21" viewBox="0 0 20 21" fill="none" xmlns="http://www.w3.org/2000/svg">
<path d="M18.8702 10.7912C18.8702 9.22193 17.508 7.79434 16.6906 7.41293C16.5817 8.17576 15.274 9.53796 14.5656 10.0284C13.8573 10.5187 10.37 12.0444 8.29948 13.2431C6.22894 14.4419 5.46216 15.8354 5.35713 16.1855C5.19367 16.7304 5.68406 17.8201 5.68406 17.4932C5.68406 16.4451 6.8828 15.5997 7.59114 15.1093C7.86358 14.9207 11.1873 13.7471 11.9502 13.4747C13.0976 13.0649 14.7836 11.772 14.7836 12.1534C14.7836 12.8617 12.8765 14.2784 11.9502 15.1502C11.0239 16.022 9.43595 17.7656 9.17129 18.6919C9.01561 19.2368 9.39704 20.9804 9.49822 20.708C10.2065 18.8009 12.0289 17.6567 12.3316 17.3842C12.7675 16.9919 14.7291 15.6497 15.056 15.4227C16.3637 14.5145 18.8702 12.3604 18.8702 10.7912Z" fill="url(#paint0_linear_2059_2197)"/>
<path d="M4.17952 14.0605C3.3622 13.679 2 12.2515 2 10.6822C2 9.11295 4.50645 6.95886 5.81416 6.05073C6.14109 5.82369 8.10266 4.48147 8.53856 4.08916C8.84127 3.81672 10.6636 2.67249 11.3719 0.765387C11.4731 0.492953 11.8545 2.23657 11.6989 2.78144C11.4342 3.70774 9.84627 5.45136 8.91998 6.32316C7.99368 7.19497 6.0866 8.61166 6.0866 9.32001C6.0866 9.70142 7.77257 8.40847 8.91998 7.99868C9.68281 7.72625 13.0066 6.55266 13.279 6.36405C13.9874 5.87365 15.1861 5.02828 15.1861 3.98018C15.1861 3.65325 15.6765 4.74301 15.513 5.28789C15.408 5.63799 14.6412 7.03151 12.5707 8.23024C10.5001 9.42898 7.0129 10.9546 6.30455 11.445C5.59621 11.9354 4.2885 13.2976 4.17952 14.0605Z" fill="url(#paint1_linear_2059_2197)"/>
<defs>
<linearGradient id="paint0_linear_2059_2197" x1="10.4351" y1="0.736694" x2="10.4351" y2="20.7367" gradientUnits="userSpaceOnUse">
<stop stop-color="#FBCC21"/>
<stop offset="1" stop-color="#F05C38"/>
</linearGradient>
<linearGradient id="paint1_linear_2059_2197" x1="10.4351" y1="0.736694" x2="10.4351" y2="20.7367" gradientUnits="userSpaceOnUse">
<stop stop-color="#FBCC21"/>
<stop offset="1" stop-color="#F05C38"/>
</linearGradient>
</defs>
</svg>
