<svg width="20" height="20" viewBox="0 0 20 20" fill="none" xmlns="http://www.w3.org/2000/svg">
<g clip-path="url(#clip0_4072_53770)">
<path d="M10 20C15.5228 20 20 15.5228 20 10C20 4.47715 15.5228 0 10 0C4.47715 0 0 4.47715 0 10C0 15.5228 4.47715 20 10 20Z" fill="#1347E8"/>
<path d="M10 3.125C6.20313 3.125 3.125 6.20313 3.125 10C3.125 13.7969 6.20313 16.875 10 16.875C13.7969 16.875 16.875 13.7969 16.875 10C16.875 6.20313 13.7969 3.125 10 3.125ZM16.525 9.71875L15.9687 9.72438L15.9662 9.49125L16.5231 9.48625L16.5256 9.71875H16.525ZM16.3825 8.51687L15.8306 8.59375L15.7987 8.3625L16.35 8.28625L16.3825 8.5175V8.51687ZM15.9075 7.05312L16.0038 7.26562L15.4969 7.49563L15.4006 7.28375L15.9069 7.05312H15.9075ZM15.2125 5.99375L15.3663 6.16875L14.9475 6.53625L14.7944 6.36125L15.2125 5.99375V5.99375ZM14.3969 5.12312L14.5731 5.27562L14.21 5.69687L14.0331 5.545L14.3969 5.12312V5.12312ZM13.425 4.33625L13.62 4.46312L13.3169 4.93L13.1219 4.80375L13.425 4.33625ZM12.3187 3.79063L12.5444 3.85L12.4031 4.38812L12.1775 4.32875L12.3194 3.79125L12.3187 3.79063ZM11.1031 3.49187L11.335 3.51063L11.2888 4.06563L11.0569 4.04625L11.1031 3.49187ZM9.84438 3.345H10.0769V3.90188H9.84438V3.345ZM8.81063 3.49187L8.85687 4.04625L8.62437 4.06625L8.57813 3.51125L8.81063 3.49187V3.49187ZM7.59438 3.79063L7.73562 4.32875L7.51063 4.38812L7.36875 3.85062L7.59375 3.79063H7.59438ZM6.48875 4.33625L6.79187 4.80375L6.59625 4.93L6.29313 4.46312L6.48875 4.33625ZM5.51687 5.12375L5.88 5.545L5.70375 5.69687L5.34063 5.27562L5.51687 5.12312V5.12375ZM4.70187 5.9925L5.12062 6.36L4.96625 6.535L4.54812 6.16813L4.70187 5.99312V5.9925ZM4.0075 7.0525L4.51375 7.28312L4.41812 7.49563L3.91125 7.26438L4.0075 7.0525ZM3.56438 8.28562L4.11625 8.36187L4.08375 8.59312L3.5325 8.51625L3.56438 8.285V8.28562ZM3.39188 9.48563L3.94812 9.49063L3.94625 9.72375L3.39 9.71812L3.39188 9.48563V9.48563ZM3.44312 10.7931L3.99687 10.7369L4.02 10.9681L3.46625 11.0244L3.44312 10.7931ZM3.695 11.9769L4.2375 11.8506L4.29062 12.0775L3.74813 12.2037L3.695 11.9769ZM4.30187 13.3913L4.18687 13.1887L4.67 12.9125L4.78563 13.115L4.30187 13.3913V13.3913ZM5.09063 14.3831L4.92125 14.2231L5.30438 13.8188L5.47312 13.9787L5.09063 14.3831ZM5.98125 15.175L5.79188 15.04L6.115 14.5862L6.30437 14.7219L5.98125 15.175ZM7.02125 15.8694L6.815 15.7613L7.07375 15.2688L7.28 15.3769L7.02125 15.8694ZM8.17187 16.3119L7.94187 16.2731L8.03375 15.7244L8.26375 15.7631L8.17187 16.3119ZM9.1775 16.5006L9.17313 15.9438L9.40625 15.9413L9.41063 16.4981L9.1775 16.5006ZM4.2125 10C4.2125 6.80875 6.80875 4.2125 10 4.2125C13.1912 4.2125 15.7875 6.80875 15.7875 10C15.7875 13.1912 13.1912 15.7875 10 15.7875C6.80875 15.7875 4.2125 13.1912 4.2125 10ZM10.4537 16.5506L10.4463 16.5513L10.3956 15.9975L10.6275 15.9763L10.635 15.975L10.6856 16.5294L10.4537 16.5506V16.5506ZM11.6944 16.2894L11.5975 15.7413L11.8269 15.7006L11.9237 16.2494L11.6944 16.2894ZM12.8781 15.8806L12.6875 15.3575L12.9062 15.2781L13.0969 15.8012L12.8781 15.8806ZM13.9287 15.2369L13.585 14.7994L13.7675 14.6544L14.1119 15.0919L13.9287 15.2363V15.2369ZM14.825 14.3638L14.425 13.9775L14.5862 13.8094L14.9863 14.1969L14.825 14.3638V14.3638ZM15.5575 13.4231L15.1075 13.095L15.245 12.9069L15.695 13.2344L15.5575 13.4231V13.4231ZM16.1525 12.3044L15.6263 12.1206L15.7031 11.9006L16.2287 12.0844L16.1525 12.3038V12.3044ZM16.4806 11.0356L15.9244 11.0106L15.935 10.7775L16.4912 10.8031L16.4806 11.0356ZM12.21 12.9575H12.2094C12.3025 13.0575 12.305 13.21 12.2131 13.3012C12.1213 13.3919 11.9694 13.3875 11.87 13.2925V13.2931L11.6963 13.1181L11.3013 12.7175C11.0449 12.8397 10.7625 12.8971 10.4788 12.8844H9.3925C8.40875 12.9206 7.5 12.4294 7.57375 10.8319C7.57625 10.765 7.56938 9.905 7.56938 9.83688L7.57125 9.19187C7.56938 7.59812 7.95875 6.87563 9.0325 6.62C9.15437 6.59063 9.81875 6.57625 9.94563 6.57625H10.0025C10.13 6.57625 10.7162 6.59063 10.8381 6.62C11.9119 6.87563 12.3013 7.59812 12.2994 9.19187L12.3012 9.8375C12.3012 9.90562 12.2944 10.765 12.2975 10.8325C12.3375 11.695 12.09 12.07 11.6994 12.4413L12.0369 12.7819L12.21 12.9575V12.9575ZM10.5481 12.3775C10.6725 12.3775 10.7956 12.36 10.9144 12.325L10.6919 12.1L10.5181 11.9237C10.4244 11.8237 10.4225 11.6719 10.5144 11.5813C10.6062 11.49 10.7581 11.4944 10.8575 11.5887L11.0306 11.7638L11.3425 12.08C11.3585 12.0654 11.374 12.0502 11.3888 12.0344C11.68 11.7294 11.8187 11.4744 11.7906 10.8556C11.7887 10.8119 11.7881 10.8112 11.7925 10.035L11.7938 9.83688L11.7931 9.40063C11.7925 9.13438 11.7919 9.22813 11.7919 9.19125C11.7925 8.485 11.7125 7.87125 11.5406 7.59438C11.4388 7.42938 11.2625 7.24438 10.7294 7.11563C10.4878 7.0958 10.2455 7.08517 10.0031 7.08375H9.94563C9.785 7.08375 9.2475 7.1 9.1425 7.11563C8.60875 7.24438 8.4325 7.42938 8.33063 7.59438C8.15875 7.87125 8.07875 8.485 8.08 9.19125C8.08 9.22875 8.07937 9.13438 8.07875 9.40063C8.07858 9.61208 8.07858 9.82354 8.07875 10.035C8.08312 10.8112 8.08312 10.8125 8.08062 10.8556C8.0525 11.4744 8.19187 11.7294 8.48312 12.0344C8.75375 12.3181 9.08937 12.3781 9.32312 12.3781L9.37375 12.3769L9.38312 12.3763H10.4975C10.5144 12.3775 10.5313 12.3775 10.5481 12.3775Z" fill="white"/>
</g>
<defs>
<clipPath id="clip0_4072_53770">
<rect width="20" height="20" fill="white"/>
</clipPath>
</defs>
</svg>
