<svg width="20" height="20" viewBox="0 0 20 20" fill="none" xmlns="http://www.w3.org/2000/svg">
<path d="M10 20C15.5228 20 20 15.5228 20 10C20 4.47715 15.5228 0 10 0C4.47715 0 0 4.47715 0 10C0 15.5228 4.47715 20 10 20Z" fill="black"/>
<path d="M10.0153 13.8093C10.0109 13.8093 10.0067 13.8093 10.0023 13.8093C9.46568 13.8091 8.93513 13.6958 8.44528 13.4767C7.95543 13.2576 7.51728 12.9377 7.15943 12.5379C5.75943 10.9713 5.89586 8.55829 7.46229 7.15886C8.15961 6.53489 9.06255 6.18998 9.99829 6.19014C10.5349 6.19027 11.0655 6.30357 11.5553 6.52266C12.0452 6.74174 12.4833 7.06167 12.8411 7.46157C13.7824 8.51514 14.028 9.95157 13.6126 11.2051L15.3246 13.5051C16.8781 11.1494 16.7223 7.95643 14.7531 5.75286C13.4941 4.34357 11.75 3.62543 9.99814 3.62557C8.43181 3.62413 6.9202 4.20166 5.75386 5.24714C3.129 7.59229 2.90257 11.6213 5.24729 14.2463C6.50629 15.6556 8.25043 16.374 10.0026 16.374C10.5985 16.3737 11.1915 16.29 11.7643 16.1251C11.6983 16.0551 10.0153 13.8093 10.0153 13.8093Z" fill="white"/>
<path d="M16.2883 16.3607L12.917 11.8311L12.839 11.7261C12.8193 11.7019 12.7946 11.6731 12.7676 11.6429C12.7064 11.5743 12.6415 11.5091 12.5733 11.4476C12.543 11.4201 12.5106 11.3922 12.4761 11.3639C12.4587 11.3496 12.4407 11.3353 12.4221 11.321C12.4036 11.3067 12.385 11.2924 12.3664 11.2781C12.3279 11.2496 12.2871 11.221 12.2441 11.1924C11.8577 10.9353 11.2973 10.7001 10.5441 10.7001H8.87957L8.88557 10.7083L8.87957 10.7129L12.3289 15.3484C12.3484 15.3727 12.3733 15.4014 12.4003 15.4319C12.4615 15.5004 12.5264 15.5656 12.5946 15.6271C12.6249 15.6544 12.6573 15.6824 12.6917 15.7107C12.7091 15.725 12.7269 15.7387 12.7454 15.753C12.7634 15.767 12.782 15.7813 12.801 15.7959C12.8398 15.8244 12.8811 15.8527 12.924 15.8813C13.3097 16.1376 13.8704 16.3743 14.6237 16.3743H16.2883L16.2823 16.3661L16.2883 16.3607Z" fill="#00B2EC"/>
</svg>
