<svg width="20" height="20" viewBox="0 0 20 20" fill="none" xmlns="http://www.w3.org/2000/svg">
<g clip-path="url(#clip0_4073_53821)">
<path d="M10 0C15.52 0 20 4.48 20 10C20 15.52 15.52 20 10 20C4.48 20 0 15.52 0 10C0 4.48 4.48 0 10 0Z" fill="url(#paint0_linear_4073_53821)"/>
<path d="M16.4398 14.44C16.4398 14.68 16.1998 14.92 15.8398 14.92C15.6398 14.92 15.4398 14.84 15.3198 14.68L10.2798 8.23995C10.1598 8.11995 9.99977 8.11995 9.87977 8.19995C9.87977 8.19995 9.83977 8.23995 9.79977 8.31995L4.79977 14.72C4.59977 14.96 4.27977 15 3.99977 14.84C3.83977 14.76 3.75977 14.6 3.75977 14.44V5.67995C3.75977 5.39995 3.99977 5.19995 4.31977 5.19995C4.63977 5.19995 4.91977 5.39995 4.91977 5.67995V13.04C4.91977 13.08 4.91977 13.08 4.95977 13.08C4.99977 13.08 4.99977 13.08 5.03977 13.08L9.51977 7.35995C9.55977 7.27995 9.71977 7.11995 9.79977 7.07995C10.0798 6.91995 10.3998 6.95995 10.5998 7.19995L15.1598 13.08C15.1598 13.08 15.1998 13.08 15.2398 13.08C15.2798 13.08 15.2798 13.04 15.2798 13.04V5.67995C15.2798 5.39995 15.5198 5.19995 15.8398 5.19995C16.1598 5.19995 16.4398 5.39995 16.4398 5.67995V14.44Z" fill="#DAE8F3"/>
<path opacity="0.9" d="M16.4402 14.44C16.4402 14.72 16.2002 14.92 15.8402 14.92C15.5202 14.92 15.2802 14.72 15.2802 14.44V7.12003C15.2802 7.08003 15.2802 7.08003 15.2402 7.08003C15.2002 7.08003 15.2002 7.08003 15.1602 7.08003L10.5602 12.96C10.3602 13.16 10.0002 13.24 9.76021 13.08C9.68021 13.04 9.64021 13 9.60021 12.96L5.00021 7.08003C4.96021 7.08003 4.96021 7.08003 4.92021 7.08003L4.88021 7.12003V14.48C4.88021 14.76 4.60021 14.96 4.28021 14.96C3.96021 14.96 3.72021 14.76 3.72021 14.48V5.68003C3.72021 5.52003 3.84021 5.36003 3.96021 5.28003C4.24021 5.12003 4.56021 5.20003 4.76021 5.40003L9.84022 11.84C9.96022 11.96 10.1202 11.96 10.2402 11.88C10.2402 11.88 10.2802 11.88 10.2802 11.84L15.3602 5.40003C15.4802 5.24003 15.6802 5.16003 15.8802 5.16003C16.2002 5.16003 16.4802 5.36003 16.4802 5.64003L16.4402 14.44Z" fill="white"/>
</g>
<defs>
<linearGradient id="paint0_linear_4073_53821" x1="10" y1="0" x2="10" y2="20" gradientUnits="userSpaceOnUse">
<stop stop-color="#37A8DD"/>
<stop offset="1" stop-color="#11307E"/>
</linearGradient>
<clipPath id="clip0_4073_53821">
<rect width="20" height="20" fill="white"/>
</clipPath>
</defs>
</svg>
