<svg width="20" height="20" viewBox="0 0 20 20" fill="none" xmlns="http://www.w3.org/2000/svg">
<path d="M10 20C15.5228 20 20 15.5228 20 10C20 4.47715 15.5228 0 10 0C4.47715 0 0 4.47715 0 10C0 15.5228 4.47715 20 10 20Z" fill="#115DFF"/>
<path d="M16.6677 6.80537H16.1764L16.5367 6.5368V6.41889H16.2747L16.4515 6.20927L16.2354 5.74418L15.9471 5.84244L16.2354 5.54111L16.1699 5.3839L15.8161 5.50181L10.0516 4.44061L4.28706 5.50181L3.93333 5.3839L3.86782 5.54111L4.15605 5.84244L3.86782 5.74418L3.65165 6.20927L3.82852 6.41889H3.56649V6.5368L3.92677 6.80537H3.43548C2.89613 8.11896 2.67297 9.74043 2.71491 11.6201L2.84592 11.5808L2.71491 11.7183L2.77387 12.3996L2.87213 12.3275L6.23477 14.7556L6.10812 15.3059C6.04502 15.5315 6.04312 15.7925 6.10812 16.0919C6.21455 15.8596 6.3407 15.6692 6.49242 15.5329C6.67817 15.9448 6.69761 16.4195 6.54046 16.961C6.90451 16.6193 7.10822 16.2365 7.09945 15.7993C7.24968 15.8255 7.3774 15.9122 7.41388 16.2448C7.53363 16.1936 7.6372 16.0899 7.73704 15.974C7.75848 16.2152 7.80928 16.4513 7.89426 16.6815C8.13692 16.464 8.32375 16.0897 8.49692 15.6771L10.0516 14.9161L11.6063 15.6771C11.7794 16.0897 11.9663 16.464 12.2089 16.6815C12.2939 16.4513 12.3447 16.2152 12.3661 15.974C12.466 16.0899 12.5696 16.1936 12.6893 16.2448C12.7258 15.9122 12.8535 15.8255 13.0037 15.7993C12.995 16.2365 13.1987 16.6193 13.5627 16.961C13.4056 16.4195 13.425 15.9448 13.6108 15.5329C13.7625 15.6692 13.8886 15.8596 13.9951 16.0919C14.0601 15.7925 14.0582 15.5315 13.9951 15.3059L13.8684 14.7556L17.2311 12.3275L17.3293 12.3996L17.3883 11.7183L17.2573 11.5808L17.3883 11.6201C17.4302 9.74043 17.207 8.11896 16.6677 6.80537V6.80537Z" fill="#5A310D"/>
<path d="M15.8548 8.96707C15.6864 9.03148 15.5022 9.05855 15.298 9.03913C15.3594 8.75481 15.5002 8.48973 15.7041 8.23996L15.1015 8.39062C15.3174 7.95174 15.5961 7.50805 15.9203 7.06085C15.4215 7.22112 14.2468 8.00851 13.156 8.71815L10.051 8.7805L6.94599 8.71815C5.85512 8.00851 4.68047 7.22112 4.18164 7.06085C4.50589 7.50805 4.78455 7.95174 5.00047 8.39062L4.39781 8.23996C4.60175 8.48973 4.74253 8.75482 4.80395 9.03913C4.59979 9.05856 4.4155 9.03148 4.24715 8.96707C4.35948 9.19824 4.55626 9.39126 4.84325 9.54352C4.60092 9.5223 4.44086 9.57522 4.3323 9.67453C4.35202 9.62609 5.11524 10.098 5.11182 10.1855C5.11022 10.2265 4.53567 10.1882 4.53537 10.1855C4.67858 10.3154 5.06483 10.4168 5.43935 10.5196L6.97874 10.8012L9.93279 10.9953L9.93306 11.0109L10.051 11.0031L10.1689 11.0109L10.1692 10.9953L13.1232 10.8012L14.6626 10.5196C15.0371 10.4168 15.4234 10.3154 15.5666 10.1855C15.5663 10.1882 14.9917 10.2265 14.9901 10.1855C14.9867 10.0981 15.7499 9.6261 15.7696 9.67453C15.6611 9.57521 15.501 9.5223 15.2587 9.54352C15.5457 9.39126 15.7425 9.19824 15.8548 8.96707H15.8548Z" fill="#774514"/>
<path d="M14.3656 11.8777L15.8482 11.6594C16.3934 11.6827 16.8872 11.839 17.25 12.3341C17.227 13.0727 17.3378 13.7016 17.6627 14.1551C17.351 14.1138 17.0104 14.0153 16.595 13.7687C16.7241 14.0998 16.8183 14.4548 16.8832 14.8299C16.6225 14.5209 16.305 14.2517 15.9465 14.011C15.9338 14.2235 15.9393 14.4309 15.9858 14.6268C15.8064 14.5312 15.5534 14.3965 15.2849 14.2534C15.1905 14.84 15.2022 15.4061 16.0775 15.8059C15.2462 15.9903 14.5653 15.812 14.1582 14.974C14.1534 14.9538 14.0828 15.0886 14.2302 15.5701C13.5162 14.8921 13.0424 13.9949 13.331 13.8735L14.3656 11.8777V11.8777Z" fill="#774514"/>
<path d="M5.73659 11.8777L4.25397 11.6594C3.70879 11.6827 3.21499 11.839 2.85214 12.3341C2.8752 13.0727 2.76437 13.7016 2.43945 14.1551C2.75115 14.1138 3.09179 14.0153 3.5072 13.7687C3.37804 14.0998 3.28393 14.4548 3.21897 14.8299C3.47964 14.5209 3.79722 14.2517 4.15571 14.011C4.16838 14.2235 4.1629 14.4309 4.11641 14.6268C4.29577 14.5312 4.54875 14.3965 4.81732 14.2534C4.91169 14.84 4.89996 15.4061 4.0247 15.8059C4.85603 15.9903 5.5369 15.812 5.94403 14.974C5.94876 14.9538 6.01936 15.0886 5.87197 15.5701C6.58599 14.8921 7.05976 13.9949 6.77122 13.8735L5.73659 11.8777V11.8777Z" fill="#774514"/>
<path d="M12.7924 3.05841C12.1361 3.09565 11.501 3.1659 11.0467 3.51695C11.068 3.26681 11.1677 3.03485 11.3382 2.81931C10.8842 2.77999 10.4548 2.87086 10.051 3.09771C9.6472 2.87086 9.21778 2.77999 8.76381 2.81931C8.93433 3.03485 9.03401 3.26681 9.05531 3.51695C8.60102 3.1659 7.96593 3.09565 7.30957 3.05841C7.54249 3.31785 7.67001 3.57964 7.66003 3.84448L9.13391 6.68089L10.051 6.7988L10.9681 6.68089L12.442 3.84448C12.432 3.57964 12.5595 3.31785 12.7924 3.05841H12.7924Z" fill="#5A310D"/>
<path d="M16.1699 11.7969C15.8289 11.4364 15.4217 11.2301 14.9384 11.2008C15.0333 11.0857 15.2059 11.008 15.4231 10.9519C14.2297 10.0138 13.5821 10.3969 12.8946 10.6833L12.2738 10.2678L12.7046 10.2379L13.268 10.0675C13.4016 10.1036 13.5471 10.1111 13.7003 10.1003C13.5824 10.0344 13.4924 9.95494 13.4383 9.85793C13.5952 9.85443 13.7128 9.82693 13.7331 9.74002C13.645 9.73528 13.5732 9.70549 13.5235 9.64176C13.6387 9.56928 13.7253 9.4806 13.7789 9.37318C13.6239 9.39035 13.4712 9.3578 13.3204 9.28147C13.5602 9.22184 13.7784 9.12218 13.9558 8.94739L13.6293 6.93798L14.696 7.02806C15.1837 5.8926 15.9229 5.03788 17.2508 4.84016C16.579 4.59512 15.8384 4.45446 14.9711 4.50608C15.175 4.31486 15.5381 4.19494 15.9275 4.08684C15.23 3.82388 14.4883 3.74426 13.6938 3.88377C13.7313 3.78852 13.8378 3.63514 13.9493 3.47763C13.62 3.42926 13.1632 3.46262 11.8662 4.03443C11.8506 3.90674 11.9776 3.69517 12.1085 3.47763C11.6494 3.65751 11.227 3.96663 10.8443 4.41436L10.7264 4.11303C10.2025 4.71302 10.2555 5.69518 10.2744 6.65466L10.0516 7.64081L9.82893 6.65466C9.84776 5.69518 9.90083 4.71302 9.37694 4.11303L9.25903 4.41436C8.87626 3.96663 8.45395 3.65751 7.99476 3.47763C8.12569 3.69516 8.25267 3.90674 8.23713 4.03443C6.94009 3.46262 6.4833 3.42926 6.15404 3.47763C6.26549 3.63514 6.37203 3.78851 6.40951 3.88377C5.61496 3.74426 4.87325 3.82388 4.17576 4.08684C4.56523 4.19494 4.92829 4.31486 5.13215 4.50608C4.26491 4.45446 3.52434 4.59512 2.85254 4.84016C4.18037 5.03788 4.91958 5.8926 5.40727 7.02806L6.47401 6.93798L6.14748 8.94739C6.32491 9.12218 6.54305 9.22184 6.78289 9.28147C6.63211 9.35779 6.47935 9.39034 6.32435 9.37318C6.37797 9.4806 6.46464 9.56927 6.57982 9.64176C6.53009 9.70549 6.45829 9.73528 6.3702 9.74002C6.3905 9.82693 6.50809 9.85443 6.66498 9.85793C6.61091 9.95494 6.52087 10.0344 6.40296 10.1003C6.55619 10.1111 6.70172 10.1036 6.8353 10.0675L7.39865 10.2379L7.8295 10.2678L7.20868 10.6833C6.52115 10.3969 5.87357 10.0138 4.68015 10.9519C4.8974 11.008 5.06999 11.0857 5.16489 11.2008C4.68161 11.2301 4.27435 11.4364 3.93338 11.7969C4.33707 11.7938 4.71281 11.8064 4.98803 11.8755C4.78824 11.977 4.50984 12.5109 3.23247 12.6419C4.50001 13.1136 4.99131 12.3832 5.51208 12.7336C5.09142 12.9904 4.8101 13.3919 4.71291 13.9848C5.20672 13.6624 5.69605 13.3963 6.17369 13.2773C5.93863 13.6551 5.78305 14.0649 5.69549 14.5023C6.19739 14.3852 6.8451 13.8987 7.49691 13.4018C7.50485 14.127 7.52303 14.8293 7.67596 15.2316C7.8689 14.9979 8.053 14.6019 8.23494 14.166C8.25678 14.8779 8.57994 15.6596 8.41399 16.664C8.64846 16.4462 8.84224 16.0902 9.01665 15.6683C9.04226 15.8512 9.11887 16.0146 9.22627 16.1661C9.33255 15.965 9.43687 15.6652 9.5407 15.3408C9.67891 15.9016 9.8338 16.3888 10.0516 16.5985C10.2695 16.3888 10.4244 15.9016 10.5626 15.3408C10.6664 15.6652 10.7707 15.965 10.877 16.1661C10.9844 16.0146 11.061 15.8512 11.0866 15.6683C11.261 16.0902 11.4548 16.4462 11.6893 16.664C11.5233 15.6596 11.8465 14.8779 11.8683 14.166C12.0503 14.6019 12.2344 14.9979 12.4273 15.2316C12.5803 14.8293 12.5984 14.127 12.6064 13.4018C13.2582 13.8987 13.9059 14.3852 14.4078 14.5023C14.3202 14.0649 14.1647 13.6551 13.9296 13.2773C14.4072 13.3963 14.8966 13.6624 15.3904 13.9848C15.2932 13.3919 15.0119 12.9904 14.5912 12.7336C15.112 12.3832 15.6033 13.1136 16.8708 12.6419C15.5935 12.5109 15.3151 11.977 15.1153 11.8755C15.3905 11.8064 15.7662 11.7938 16.1699 11.7969V11.7969Z" fill="#AA671C"/>
<path d="M13.2913 11.5895C13.2492 11.3841 13.1176 11.2472 12.9419 11.1441C13.0214 11.0206 13.1432 11.0288 13.2913 11.048C13.2007 10.8555 12.969 10.7142 12.7061 10.6375L10.0509 10.6025L7.39573 10.6375C7.13281 10.7142 6.90114 10.8555 6.81055 11.048C6.95862 11.0288 7.08041 11.0206 7.15991 11.1441C6.98422 11.2472 6.85264 11.3841 6.81055 11.5895C6.94638 11.5436 7.08036 11.5422 7.21232 11.5895C7.06888 11.7728 6.9706 11.9636 6.94156 12.1659C7.11126 12.1318 7.32712 12.0854 7.57042 12.0786C7.40081 12.3184 7.30985 12.5945 7.28219 12.8996C7.53629 12.6603 7.77718 12.4667 7.98092 12.4018C8.08949 12.521 8.08842 12.7024 8.05953 12.8996C8.06641 12.6454 9.4001 11.5288 9.43079 11.6594L10.0509 11.6442L10.671 11.6594C10.7017 11.5288 12.0354 12.6454 12.0423 12.8996C12.0134 12.7024 12.0123 12.521 12.1209 12.4018C12.3246 12.4667 12.5655 12.6603 12.8196 12.8996C12.792 12.5945 12.701 12.3184 12.5314 12.0786C12.7747 12.0854 12.9906 12.1318 13.1603 12.1659C13.1312 11.9636 13.0329 11.7728 12.8895 11.5895C13.0215 11.5422 13.1554 11.5436 13.2913 11.5895V11.5895Z" fill="#D88928"/>
<path d="M14.2258 5.79874C13.7626 5.85185 13.2973 6.00307 12.8283 6.34025C12.7933 6.28024 12.818 6.19819 12.8982 6.09569C12.5885 6.18197 12.2686 6.41345 11.9462 6.68088V6.41012L11.5706 6.80316L11.3959 5.79874C11.3156 5.96084 11.2386 6.08325 11.1688 6.1219L10.8457 5.27469C10.7093 5.40003 10.5907 5.50903 10.5225 5.57165L10.0509 4.62836L9.57925 5.57165C9.51111 5.50903 9.39249 5.40003 9.25609 5.27469L8.93293 6.1219C8.86314 6.08325 8.78619 5.96084 8.70584 5.79874L8.53116 6.80316L8.15559 6.41012V6.68088C7.83319 6.41345 7.51331 6.18197 7.20357 6.09569C7.28378 6.19818 7.30852 6.28023 7.27344 6.34025C6.80444 6.00306 6.33921 5.85184 5.87598 5.79874C5.98827 5.98009 6.06595 6.14227 6.05066 6.25291C6.05066 6.25291 7.9547 7.67657 8.03331 8.04341C8.07914 8.25729 8.08044 8.77997 8.07355 9.17865C8.06815 9.49117 8.24033 9.77977 8.51746 9.92436L8.66217 9.99986H11.4396L11.5843 9.92436C11.8614 9.77978 12.0336 9.49118 12.0282 9.17865C12.0213 8.77998 12.0226 8.2573 12.0685 8.04341C12.1471 7.67658 14.0511 6.25291 14.0511 6.25291C14.0358 6.14226 14.1135 5.98009 14.2258 5.79874H14.2258Z" fill="#774514"/>
<path d="M12.9522 10.6882C12.1276 10.7718 11.6455 11.0001 11.4098 11.2228C11.1741 11.4455 10.8303 12.109 10.8368 12.2445C10.8447 12.4083 10.8122 12.6621 10.7547 12.9465C10.5992 13.7186 10.2614 14.7121 10.0559 14.7121H10.0494C9.81783 14.7274 9.4123 13.4481 9.29583 12.6593V12.6579C9.27077 12.4932 9.25917 12.3498 9.26428 12.2445C9.27078 12.109 8.92695 11.4455 8.69124 11.2228C8.45553 11.0001 7.97343 10.7718 7.1489 10.6882C6.90391 10.6637 6.64871 10.1352 6.84081 9.9695C7.0329 9.80339 7.28671 10.1352 7.39575 10.1658C7.50525 10.1964 7.56418 10.0475 7.74329 10.0563C8.04628 10.0707 8.2523 10.4544 8.51261 10.2331C8.81885 9.97275 8.19338 6.96926 10.0508 6.96045C11.9369 6.95581 11.2822 9.97275 11.5885 10.2331C11.8488 10.4544 12.0548 10.0707 12.3578 10.0563C12.5369 10.0475 12.5958 10.1964 12.7053 10.1658C12.8144 10.1352 13.0682 9.80338 13.2603 9.9695C13.4524 10.1352 13.1972 10.6636 12.9522 10.6882H12.9522Z" fill="#FFE87D"/>
<path d="M10.7547 12.9466C10.5993 13.7187 10.2615 14.7121 10.0559 14.7121H10.0494C9.8179 14.7274 9.41237 13.4482 9.2959 12.6594V12.658C9.30889 11.755 9.41283 10.9073 9.41283 10.7509C9.41283 10.3987 9.59657 8.80768 10.0508 8.80768C10.4698 8.80768 10.6884 10.3987 10.6884 10.7509C10.6884 10.9198 10.7756 11.9402 10.7547 12.9466L10.7547 12.9466Z" fill="#FFEB96"/>
<path d="M7.00744 10.192C7.14173 10.043 7.3195 10.4402 7.4365 10.3918C7.74929 10.2624 8.18327 10.3591 8.35031 10.6025C7.68215 10.3329 7.46762 10.5392 7.32842 10.531C7.2246 10.5249 6.88584 10.327 7.00744 10.192Z" fill="#A6662A"/>
<path d="M9.10104 8.94873C9.10104 9.01621 9.05328 9.44212 8.99437 9.44212C8.93546 9.44212 8.8877 9.01621 8.8877 8.94873C8.8877 8.88125 8.93546 8.82654 8.99437 8.82654C9.05328 8.82654 9.10104 8.88125 9.10104 8.94873Z" fill="#A6662A"/>
<path d="M13.0929 10.192C12.9586 10.043 12.7808 10.4402 12.6638 10.3918C12.351 10.2624 11.917 10.3591 11.75 10.6025C12.4182 10.3329 12.6327 10.5392 12.7719 10.531C12.8757 10.5249 13.2145 10.327 13.0929 10.192V10.192Z" fill="#A6662A"/>
<path d="M11 8.94873C11 9.01621 11.0478 9.44212 11.1067 9.44212C11.1656 9.44212 11.2133 9.01621 11.2133 8.94873C11.2133 8.88125 11.1656 8.82654 11.1067 8.82654C11.0478 8.82654 11 8.88125 11 8.94873Z" fill="#A6662A"/>
<path d="M12.0731 7.23127C12.1993 7.22188 12.2968 7.14982 12.2909 7.07032C12.285 6.99083 12.1779 6.93399 12.0517 6.94339C11.9255 6.95278 11.828 7.02483 11.834 7.10433C11.8399 7.18383 11.947 7.24066 12.0731 7.23127Z" fill="url(#paint0_radial_4327_57485)"/>
<path d="M5.17501 5.80472C5.70846 5.74969 8.23363 7.51646 8.23536 8.32288C8.23578 8.51934 7.91268 8.49512 7.47277 8.36881C7.3755 8.63594 7.18213 8.8513 6.93169 8.96733C6.41709 9.20575 5.68612 8.83162 5.37757 8.16567C5.26027 7.91249 5.19202 7.64275 5.18057 7.39247C5.10982 7.35232 5.06793 7.32462 5.06315 7.31409C4.89494 6.94404 4.80986 5.84239 5.17501 5.80472V5.80472Z" fill="black"/>
<path style="mix-blend-mode:lighten" d="M6.63008 10.1984C8.54215 10.1984 10.0922 9.06349 10.0922 7.66348C10.0922 6.26347 8.54215 5.12854 6.63008 5.12854C4.71801 5.12854 3.16797 6.26347 3.16797 7.66348C3.16797 9.06349 4.71801 10.1984 6.63008 10.1984Z" fill="url(#paint1_radial_4327_57485)"/>
<path style="mix-blend-mode:lighten" d="M6.6297 8.97186C7.6166 8.97186 8.41663 8.38608 8.41663 7.66348C8.41663 6.94088 7.6166 6.3551 6.6297 6.3551C5.64281 6.3551 4.84277 6.94088 4.84277 7.66348C4.84277 8.38608 5.64281 8.97186 6.6297 8.97186Z" fill="url(#paint2_radial_4327_57485)"/>
<path style="mix-blend-mode:lighten" d="M6.6297 8.97186C7.6166 8.97186 8.41663 8.38608 8.41663 7.66348C8.41663 6.94088 7.6166 6.3551 6.6297 6.3551C5.64281 6.3551 4.84277 6.94088 4.84277 7.66348C4.84277 8.38608 5.64281 8.97186 6.6297 8.97186Z" fill="url(#paint3_radial_4327_57485)"/>
<path d="M7.01789 7.48773C7.01789 7.48773 6.90754 7.88827 6.74709 8.08755C6.58664 8.28683 6.40183 8.40431 6.33432 8.34995C6.26681 8.29559 6.34215 8.08998 6.50261 7.8907C6.66307 7.69142 7.0179 7.48774 7.0179 7.48774L7.01789 7.48773Z" fill="white"/>
<g style="mix-blend-mode:screen">
<path d="M7.39768 7.83256C7.32734 8.00134 7.13513 8.29671 6.86788 8.66709C6.79288 8.76556 6.71785 8.864 6.63815 8.97185C6.61941 8.99529 6.60063 9.01403 6.58658 9.03747C6.58345 9.0406 6.58189 9.04373 6.58189 9.04686C6.54907 9.08907 6.51624 9.13125 6.47873 9.17346C6.43186 9.23911 6.3756 9.30472 6.32403 9.37506C6.14117 9.60479 5.94427 9.85329 5.73328 10.1112C5.62543 10.2378 5.5176 10.369 5.40508 10.505V10.5097H5.40039C5.25974 10.6831 5.10971 10.8613 4.95029 11.0441C4.88937 11.1191 4.82372 11.1942 4.75808 11.2739C4.64556 11.4099 4.52835 11.5458 4.41114 11.6818C4.37362 11.724 4.33611 11.7662 4.30331 11.8037C4.07355 12.0709 3.84382 12.3335 3.61879 12.5866C3.57658 12.6335 3.5344 12.6804 3.49219 12.7226C3.48283 12.7367 3.47345 12.746 3.46406 12.7554C3.2062 13.0414 2.9577 13.318 2.71861 13.5759C2.15599 14.1854 1.66371 14.6918 1.33551 14.9871C1.0167 14.4386 0.749452 13.8572 0.547852 13.2524C1.10108 12.7132 1.87935 12.0053 2.70922 11.2786C3.29997 10.7628 3.92354 10.2377 4.50959 9.75011C4.52833 9.73137 4.55177 9.71729 4.57051 9.69854C4.63616 9.64697 4.69711 9.59538 4.76275 9.53912C4.77214 9.53446 4.78619 9.52507 4.79557 9.51568C5.08156 9.28126 5.35819 9.06091 5.61605 8.85932C5.61605 8.85463 5.62074 8.84993 5.6301 8.84524C5.65823 8.8265 5.68169 8.80303 5.70982 8.78429C5.73795 8.76085 5.77074 8.73742 5.7989 8.71398C5.94891 8.59677 6.09425 8.48892 6.22554 8.38578C6.23023 8.38109 6.23493 8.38109 6.23959 8.37639C6.26775 8.35765 6.29118 8.33887 6.31462 8.32482C6.31931 8.32013 6.31931 8.31543 6.32401 8.31543C6.51622 8.17478 6.68969 8.04819 6.83503 7.94975C6.87724 7.92162 6.91942 7.89816 6.95693 7.87003C6.96006 7.87003 6.96162 7.86847 6.96162 7.86534C6.96162 7.86068 6.96631 7.86068 6.97101 7.86068C7.21479 7.71065 7.37421 7.63562 7.41639 7.67313C7.43986 7.69187 7.43516 7.74813 7.39765 7.83255L7.39768 7.83256Z" fill="url(#paint4_radial_4327_57485)" style="mix-blend-mode:lighten"/>
</g>
<path style="mix-blend-mode:lighten" d="M6.0615 8.71508C6.26799 8.88256 3.56007 12.3711 3.05676 12.6739C2.82629 12.8125 2.34424 12.1359 2.29488 12.0841C2.13771 11.9192 5.85501 8.5476 6.0615 8.71508V8.71508Z" fill="url(#paint5_radial_4327_57485)"/>
<path style="mix-blend-mode:lighten" d="M6.10698 8.90122C6.77198 8.17201 7.24558 7.52116 7.1648 7.44749C7.08401 7.37382 6.47944 7.90523 5.81444 8.63443C5.14944 9.36364 4.67584 10.0145 4.75662 10.0882C4.8374 10.1618 5.44198 9.63042 6.10698 8.90122Z" fill="url(#paint6_radial_4327_57485)"/>
<path opacity="0.15" d="M7.30992 9.22251C7.92172 9.22251 8.41769 8.90989 8.41769 8.52425C8.41769 8.13861 7.92172 7.82599 7.30992 7.82599C6.69811 7.82599 6.20215 8.13861 6.20215 8.52425C6.20215 8.90989 6.69811 9.22251 7.30992 9.22251Z" fill="white"/>
<path d="M14.9256 5.80472C14.3921 5.74969 11.867 7.51646 11.8652 8.32288C11.8648 8.51934 12.1879 8.49512 12.6278 8.36881C12.7251 8.63594 12.9185 8.8513 13.1689 8.96733C13.6835 9.20575 14.4145 8.83162 14.723 8.16567C14.8403 7.91249 14.9086 7.64275 14.92 7.39247C14.9908 7.35232 15.0327 7.32462 15.0374 7.31409C15.2057 6.94404 15.2907 5.84239 14.9256 5.80472V5.80472Z" fill="black"/>
<path style="mix-blend-mode:lighten" d="M13.4709 10.1984C15.383 10.1984 16.933 9.06349 16.933 7.66348C16.933 6.26347 15.383 5.12854 13.4709 5.12854C11.5588 5.12854 10.0088 6.26347 10.0088 7.66348C10.0088 9.06349 11.5588 10.1984 13.4709 10.1984Z" fill="url(#paint7_radial_4327_57485)"/>
<path style="mix-blend-mode:lighten" d="M13.4705 8.97186C14.4574 8.97186 15.2575 8.38608 15.2575 7.66348C15.2575 6.94088 14.4574 6.3551 13.4705 6.3551C12.4836 6.3551 11.6836 6.94088 11.6836 7.66348C11.6836 8.38608 12.4836 8.97186 13.4705 8.97186Z" fill="url(#paint8_radial_4327_57485)"/>
<path style="mix-blend-mode:lighten" d="M13.4712 8.76782C14.3042 8.76782 14.9795 8.27338 14.9795 7.66345C14.9795 7.05352 14.3042 6.55908 13.4712 6.55908C12.6382 6.55908 11.9629 7.05352 11.9629 7.66345C11.9629 8.27338 12.6382 8.76782 13.4712 8.76782Z" fill="url(#paint9_radial_4327_57485)"/>
<path style="mix-blend-mode:lighten" d="M13.0716 8.6782C13.6046 7.84757 13.962 7.12635 13.87 7.06731C13.7779 7.00827 13.2713 7.63377 12.7384 8.4644C12.2055 9.29503 11.848 10.0162 11.9401 10.0753C12.0321 10.1343 12.5387 9.50883 13.0716 8.6782Z" fill="url(#paint10_radial_4327_57485)"/>
<path d="M13.7036 7.25575C13.7036 7.25575 13.6408 7.66643 13.5047 7.88308C13.3686 8.09973 13.1988 8.23798 13.1254 8.19187C13.052 8.14576 13.1028 7.93276 13.2389 7.71611C13.375 7.49946 13.7036 7.25574 13.7036 7.25574V7.25575Z" fill="white"/>
<g style="mix-blend-mode:screen">
<path d="M13.8486 7.26051V7.2699C13.8392 7.3449 13.8111 7.43868 13.7689 7.5512C13.7595 7.57464 13.7502 7.59809 13.7408 7.62622C13.6658 7.82313 13.5486 8.0763 13.3985 8.37168C13.3516 8.46545 13.3001 8.55922 13.2485 8.65766C13.2344 8.68579 13.2157 8.71862 13.2016 8.74675L13.1031 8.92961C13.1031 8.9343 13.0985 8.939 13.0938 8.94369C12.9109 9.28594 12.6953 9.66569 12.4561 10.0689C12.4514 10.0736 12.4514 10.083 12.4468 10.0877H12.4421C12.414 10.1439 12.3764 10.2002 12.3436 10.2611C12.3389 10.2705 12.3296 10.2846 12.3202 10.2986C12.3155 10.3127 12.3061 10.3268 12.2967 10.3408C12.2733 10.383 12.2452 10.4252 12.217 10.4721C12.1889 10.5237 12.1561 10.5753 12.1233 10.6268C12.0764 10.7065 12.0295 10.7909 11.9732 10.8753C11.9732 10.8847 11.9638 10.8941 11.9592 10.9035C11.931 10.955 11.8982 11.0066 11.8654 11.0582C11.8607 11.0628 11.856 11.0675 11.856 11.0769C11.6638 11.391 11.4669 11.7145 11.2559 12.0427C11.1059 12.2912 10.9418 12.5444 10.7777 12.8023C10.773 12.8164 10.7636 12.8257 10.7542 12.8398C10.5339 13.1914 10.3088 13.5431 10.0791 13.8994C9.97596 14.0541 9.87749 14.2041 9.77905 14.3588C9.55399 14.7011 9.32426 15.0434 9.10391 15.3809C8.88354 15.7091 8.6632 16.0326 8.45221 16.3467C7.63173 17.547 6.88159 18.5972 6.33772 19.3005C5.60632 19.0192 4.91714 18.6488 4.28418 18.2034C4.69677 17.5798 5.32972 16.7265 6.06578 15.7654C6.51588 15.1887 6.9988 14.5745 7.50514 13.9463C8.04432 13.2805 8.60225 12.6007 9.15548 11.9396C9.21643 11.8646 9.28208 11.7942 9.34303 11.7192C9.36177 11.6958 9.38052 11.677 9.39929 11.6536C9.58212 11.4379 9.76028 11.2223 9.94314 11.0113C10.0603 10.8753 10.1729 10.7393 10.2901 10.6081C10.4073 10.4721 10.5198 10.3408 10.6324 10.2096C10.698 10.1392 10.7589 10.0689 10.8199 9.99859C10.9465 9.85325 11.0731 9.71258 11.1949 9.57663C11.2887 9.4688 11.3825 9.36564 11.4716 9.26251C11.6404 9.07965 11.7998 8.90618 11.9545 8.7421C11.9779 8.71863 12.0014 8.69051 12.0248 8.66707C12.067 8.62489 12.1045 8.58267 12.1467 8.54046C12.1748 8.51233 12.1983 8.47955 12.2217 8.45608L12.3108 8.367C12.9297 7.71533 13.4126 7.26992 13.6611 7.14332C13.708 7.11519 13.7501 7.10114 13.7783 7.10114H13.783C13.7923 7.10114 13.8064 7.1058 13.8158 7.1105C13.8486 7.12927 13.8626 7.18084 13.8486 7.26053L13.8486 7.26051Z" fill="url(#paint11_radial_4327_57485)" style="mix-blend-mode:lighten"/>
</g>
<path style="mix-blend-mode:lighten" d="M12.9456 8.52818C13.2263 8.68744 10.6812 13.4056 10.139 13.8687C9.8908 14.0807 9.17841 13.3669 9.10895 13.3148C8.88781 13.1487 12.6649 8.36892 12.9456 8.52818Z" fill="url(#paint12_radial_4327_57485)"/>
<path opacity="0.15" d="M14.1358 8.56987C14.6048 8.53497 14.9671 8.26706 14.9451 7.97146C14.9231 7.67587 14.5251 7.46453 14.0561 7.49943C13.5872 7.53433 13.2249 7.80225 13.2469 8.09784C13.2689 8.39344 13.6669 8.60477 14.1358 8.56987Z" fill="white"/>
<path d="M16.6122 7.25477C16.7384 7.24538 16.8359 7.17332 16.83 7.09382C16.8241 7.01433 16.717 6.95749 16.5908 6.96688C16.4646 6.97627 16.3671 7.04833 16.373 7.12783C16.3789 7.20733 16.486 7.26416 16.6122 7.25477Z" fill="url(#paint13_radial_4327_57485)"/>
<path d="M5.46926 6.85393C5.47637 6.77453 5.37996 6.70102 5.25393 6.68974C5.1279 6.67846 5.01997 6.73368 5.01287 6.81308C5.00576 6.89248 5.10217 6.96599 5.2282 6.97727C5.35423 6.98855 5.46216 6.93333 5.46926 6.85393Z" fill="url(#paint14_radial_4327_57485)"/>
<path d="M10.5656 8.14657C10.7134 8.14657 10.8333 8.07106 10.8333 7.97792C10.8333 7.88477 10.7134 7.80927 10.5656 7.80927C10.4177 7.80927 10.2979 7.88477 10.2979 7.97792C10.2979 8.07106 10.4177 8.14657 10.5656 8.14657Z" fill="white"/>
<defs>
<radialGradient id="paint0_radial_4327_57485" cx="0" cy="0" r="1" gradientUnits="userSpaceOnUse" gradientTransform="translate(12.0624 7.08733) rotate(-8.71877) scale(0.19465 0.114456)">
<stop stop-color="white"/>
<stop offset="0.13296" stop-color="#FFFDFC" stop-opacity="0.98644"/>
<stop offset="0.24912" stop-color="#FFFAF4" stop-opacity="0.94452"/>
<stop offset="0.35901" stop-color="#FFF5E6" stop-opacity="0.87407"/>
<stop offset="0.46502" stop-color="#FFEDD2" stop-opacity="0.77498"/>
<stop offset="0.56838" stop-color="#FFE4B9" stop-opacity="0.647"/>
<stop offset="0.66965" stop-color="#FFD89A" stop-opacity="0.49004"/>
<stop offset="0.76922" stop-color="#FFCA75" stop-opacity="0.30401"/>
<stop offset="0.86511" stop-color="#FFBA4B" stop-opacity="0.09413"/>
<stop offset="0.90408" stop-color="#FFB339" stop-opacity="0"/>
</radialGradient>
<radialGradient id="paint1_radial_4327_57485" cx="0" cy="0" r="1" gradientUnits="userSpaceOnUse" gradientTransform="translate(6.63206 7.66348) rotate(180) scale(3.3738 2.4167)">
<stop stop-color="#FF040E"/>
<stop offset="0.14707" stop-color="#FF040E" stop-opacity="0.98644"/>
<stop offset="0.27555" stop-color="#FF040E" stop-opacity="0.94452"/>
<stop offset="0.39709" stop-color="#FF040E" stop-opacity="0.87407"/>
<stop offset="0.51435" stop-color="#FF040E" stop-opacity="0.77498"/>
<stop offset="0.62868" stop-color="#FF040E" stop-opacity="0.647"/>
<stop offset="0.74069" stop-color="#FF040E" stop-opacity="0.49004"/>
<stop offset="0.85083" stop-color="#FF040E" stop-opacity="0.30401"/>
<stop offset="0.95689" stop-color="#FF040E" stop-opacity="0.09413"/>
<stop offset="1" stop-color="#FF040E" stop-opacity="0"/>
</radialGradient>
<radialGradient id="paint2_radial_4327_57485" cx="0" cy="0" r="1" gradientUnits="userSpaceOnUse" gradientTransform="translate(6.63168 7.66348) rotate(180) scale(1.74135 0.876489)">
<stop offset="0.24361" stop-color="white" stop-opacity="0.8"/>
<stop offset="0.5024" stop-color="#FF9CA0" stop-opacity="0.48624"/>
<stop offset="0.74052" stop-color="#FF4A51" stop-opacity="0.2242"/>
<stop offset="0.91204" stop-color="#FF1720" stop-opacity="0.06195"/>
<stop offset="1" stop-color="#FF040E" stop-opacity="0"/>
</radialGradient>
<radialGradient id="paint3_radial_4327_57485" cx="0" cy="0" r="1" gradientUnits="userSpaceOnUse" gradientTransform="translate(6.63168 7.66348) rotate(180) scale(1.74135 0.876489)">
<stop offset="0.24361" stop-color="white" stop-opacity="0.8"/>
<stop offset="0.5024" stop-color="#FF9CA0" stop-opacity="0.48624"/>
<stop offset="0.74052" stop-color="#FF4A51" stop-opacity="0.2242"/>
<stop offset="0.91204" stop-color="#FF1720" stop-opacity="0.06195"/>
<stop offset="1" stop-color="#FF040E" stop-opacity="0"/>
</radialGradient>
<radialGradient id="paint4_radial_4327_57485" cx="0" cy="0" r="1" gradientUnits="userSpaceOnUse" gradientTransform="translate(2.47624 12.526) rotate(-44.9373) scale(8.07831 0.790301)">
<stop stop-color="#FF040E"/>
<stop offset="0.14707" stop-color="#FF040E" stop-opacity="0.98644"/>
<stop offset="0.27555" stop-color="#FF040E" stop-opacity="0.94452"/>
<stop offset="0.39709" stop-color="#FF040E" stop-opacity="0.87407"/>
<stop offset="0.51435" stop-color="#FF040E" stop-opacity="0.77498"/>
<stop offset="0.62868" stop-color="#FF040E" stop-opacity="0.647"/>
<stop offset="0.74069" stop-color="#FF040E" stop-opacity="0.49004"/>
<stop offset="0.85083" stop-color="#FF040E" stop-opacity="0.30401"/>
<stop offset="0.95689" stop-color="#FF040E" stop-opacity="0.09413"/>
<stop offset="1" stop-color="#FF040E" stop-opacity="0"/>
</radialGradient>
<radialGradient id="paint5_radial_4327_57485" cx="0" cy="0" r="1" gradientUnits="userSpaceOnUse" gradientTransform="translate(4.83307 9.97509) rotate(-44.903) scale(3.45032 0.277716)">
<stop stop-color="#F5F5F5" stop-opacity="0.9"/>
<stop offset="0.1806" stop-color="#F5F4F2" stop-opacity="0.9"/>
<stop offset="0.25161" stop-color="#F5F4EB" stop-opacity="0.9"/>
<stop offset="0.30335" stop-color="#F6F4DD" stop-opacity="0.9"/>
<stop offset="0.34574" stop-color="#F7F3CA" stop-opacity="0.9"/>
<stop offset="0.38237" stop-color="#F8F3B1" stop-opacity="0.9"/>
<stop offset="0.41502" stop-color="#FAF292" stop-opacity="0.9"/>
<stop offset="0.44476" stop-color="#FCF16D" stop-opacity="0.9"/>
<stop offset="0.47135" stop-color="#FEF044" stop-opacity="0.9"/>
<stop offset="0.47493" stop-color="#FFF03E" stop-opacity="0.9"/>
<stop offset="0.50703" stop-color="#FFF03E" stop-opacity="0.78218"/>
<stop offset="0.57702" stop-color="#FFF03E" stop-opacity="0.54714"/>
<stop offset="0.64444" stop-color="#FFF03E" stop-opacity="0.35149"/>
<stop offset="0.70751" stop-color="#FFF03E" stop-opacity="0.19909"/>
<stop offset="0.76524" stop-color="#FFF03E" stop-opacity="0.0898"/>
<stop offset="0.8158" stop-color="#FFF03E" stop-opacity="0.02342"/>
<stop offset="0.85366" stop-color="#FFF03E" stop-opacity="0"/>
</radialGradient>
<radialGradient id="paint6_radial_4327_57485" cx="0" cy="0" r="1" gradientUnits="userSpaceOnUse" gradientTransform="translate(5.96271 8.77021) rotate(-47.6367) scale(1.74135 0.132619)">
<stop offset="0.24361" stop-color="white" stop-opacity="0.8"/>
<stop offset="0.5024" stop-color="#FF9CA0" stop-opacity="0.48624"/>
<stop offset="0.74052" stop-color="#FF4A51" stop-opacity="0.2242"/>
<stop offset="0.91204" stop-color="#FF1720" stop-opacity="0.06195"/>
<stop offset="1" stop-color="#FF040E" stop-opacity="0"/>
</radialGradient>
<radialGradient id="paint7_radial_4327_57485" cx="0" cy="0" r="1" gradientUnits="userSpaceOnUse" gradientTransform="translate(13.4708 7.66348) scale(3.3738 2.4167)">
<stop stop-color="#FF040E"/>
<stop offset="0.14707" stop-color="#FF040E" stop-opacity="0.98644"/>
<stop offset="0.27555" stop-color="#FF040E" stop-opacity="0.94452"/>
<stop offset="0.39709" stop-color="#FF040E" stop-opacity="0.87407"/>
<stop offset="0.51435" stop-color="#FF040E" stop-opacity="0.77498"/>
<stop offset="0.62868" stop-color="#FF040E" stop-opacity="0.647"/>
<stop offset="0.74069" stop-color="#FF040E" stop-opacity="0.49004"/>
<stop offset="0.85083" stop-color="#FF040E" stop-opacity="0.30401"/>
<stop offset="0.95689" stop-color="#FF040E" stop-opacity="0.09413"/>
<stop offset="1" stop-color="#FF040E" stop-opacity="0"/>
</radialGradient>
<radialGradient id="paint8_radial_4327_57485" cx="0" cy="0" r="1" gradientUnits="userSpaceOnUse" gradientTransform="translate(13.4704 7.66348) scale(1.74135 0.876489)">
<stop offset="0.23076" stop-color="white" stop-opacity="0.8"/>
<stop offset="0.49395" stop-color="#FF9CA0" stop-opacity="0.48624"/>
<stop offset="0.73611" stop-color="#FF4A51" stop-opacity="0.2242"/>
<stop offset="0.91054" stop-color="#FF1720" stop-opacity="0.06195"/>
<stop offset="1" stop-color="#FF040E" stop-opacity="0"/>
</radialGradient>
<radialGradient id="paint9_radial_4327_57485" cx="0" cy="0" r="1" gradientUnits="userSpaceOnUse" gradientTransform="translate(13.471 7.66345) scale(1.46982 0.739819)">
<stop offset="0.24621" stop-color="white" stop-opacity="0.8"/>
<stop offset="0.50412" stop-color="#FF9CA0" stop-opacity="0.48624"/>
<stop offset="0.74141" stop-color="#FF4A51" stop-opacity="0.2242"/>
<stop offset="0.91234" stop-color="#FF1720" stop-opacity="0.06195"/>
<stop offset="1" stop-color="#FF040E" stop-opacity="0"/>
</radialGradient>
<radialGradient id="paint10_radial_4327_57485" cx="0" cy="0" r="1" gradientUnits="userSpaceOnUse" gradientTransform="translate(12.9078 8.57376) rotate(-57.3158) scale(1.74135 0.132618)">
<stop offset="0.24361" stop-color="white" stop-opacity="0.8"/>
<stop offset="0.5024" stop-color="#FF9CA0" stop-opacity="0.48624"/>
<stop offset="0.74052" stop-color="#FF4A51" stop-opacity="0.2242"/>
<stop offset="0.91204" stop-color="#FF1720" stop-opacity="0.06195"/>
<stop offset="1" stop-color="#FF040E" stop-opacity="0"/>
</radialGradient>
<radialGradient id="paint11_radial_4327_57485" cx="0" cy="0" r="1" gradientUnits="userSpaceOnUse" gradientTransform="translate(7.68046 15.4362) rotate(-53.8417) scale(9.23452 0.971471)">
<stop stop-color="#FF040E"/>
<stop offset="0.14707" stop-color="#FF040E" stop-opacity="0.98644"/>
<stop offset="0.27555" stop-color="#FF040E" stop-opacity="0.94452"/>
<stop offset="0.39709" stop-color="#FF040E" stop-opacity="0.87407"/>
<stop offset="0.51435" stop-color="#FF040E" stop-opacity="0.77498"/>
<stop offset="0.62868" stop-color="#FF040E" stop-opacity="0.647"/>
<stop offset="0.74069" stop-color="#FF040E" stop-opacity="0.49004"/>
<stop offset="0.85083" stop-color="#FF040E" stop-opacity="0.30401"/>
<stop offset="0.95689" stop-color="#FF040E" stop-opacity="0.09413"/>
<stop offset="1" stop-color="#FF040E" stop-opacity="0"/>
</radialGradient>
<radialGradient id="paint12_radial_4327_57485" cx="0" cy="0" r="1" gradientUnits="userSpaceOnUse" gradientTransform="translate(11.7267 10.2825) rotate(-54.3786) scale(4.18838 0.337123)">
<stop stop-color="#F5F5F5" stop-opacity="0.9"/>
<stop offset="0.1806" stop-color="#F5F4F2" stop-opacity="0.9"/>
<stop offset="0.25161" stop-color="#F5F4EB" stop-opacity="0.9"/>
<stop offset="0.30335" stop-color="#F6F4DD" stop-opacity="0.9"/>
<stop offset="0.34574" stop-color="#F7F3CA" stop-opacity="0.9"/>
<stop offset="0.38237" stop-color="#F8F3B1" stop-opacity="0.9"/>
<stop offset="0.41502" stop-color="#FAF292" stop-opacity="0.9"/>
<stop offset="0.44476" stop-color="#FCF16D" stop-opacity="0.9"/>
<stop offset="0.47135" stop-color="#FEF044" stop-opacity="0.9"/>
<stop offset="0.47493" stop-color="#FFF03E" stop-opacity="0.9"/>
<stop offset="0.50703" stop-color="#FFF03E" stop-opacity="0.78218"/>
<stop offset="0.57702" stop-color="#FFF03E" stop-opacity="0.54714"/>
<stop offset="0.64444" stop-color="#FFF03E" stop-opacity="0.35149"/>
<stop offset="0.70751" stop-color="#FFF03E" stop-opacity="0.19909"/>
<stop offset="0.76524" stop-color="#FFF03E" stop-opacity="0.0898"/>
<stop offset="0.8158" stop-color="#FFF03E" stop-opacity="0.02342"/>
<stop offset="0.85366" stop-color="#FFF03E" stop-opacity="0"/>
</radialGradient>
<radialGradient id="paint13_radial_4327_57485" cx="0" cy="0" r="1" gradientUnits="userSpaceOnUse" gradientTransform="translate(16.6015 7.11083) rotate(-8.71875) scale(0.194651 0.114456)">
<stop stop-color="white"/>
<stop offset="0.13296" stop-color="#FFFDFC" stop-opacity="0.98644"/>
<stop offset="0.24912" stop-color="#FFFAF4" stop-opacity="0.94452"/>
<stop offset="0.35901" stop-color="#FFF5E6" stop-opacity="0.87407"/>
<stop offset="0.46502" stop-color="#FFEDD2" stop-opacity="0.77498"/>
<stop offset="0.56838" stop-color="#FFE4B9" stop-opacity="0.647"/>
<stop offset="0.66965" stop-color="#FFD89A" stop-opacity="0.49004"/>
<stop offset="0.76922" stop-color="#FFCA75" stop-opacity="0.30401"/>
<stop offset="0.86511" stop-color="#FFBA4B" stop-opacity="0.09413"/>
<stop offset="0.90408" stop-color="#FFB339" stop-opacity="0"/>
</radialGradient>
<radialGradient id="paint14_radial_4327_57485" cx="0" cy="0" r="1" gradientUnits="userSpaceOnUse" gradientTransform="translate(5.24107 6.83342) rotate(0.651409) scale(0.19465 0.114456)">
<stop stop-color="white"/>
<stop offset="0.13296" stop-color="#FEFCFC" stop-opacity="0.98644"/>
<stop offset="0.24912" stop-color="#FDF3F3" stop-opacity="0.94452"/>
<stop offset="0.35901" stop-color="#FBE5E4" stop-opacity="0.87407"/>
<stop offset="0.46502" stop-color="#F9D1CF" stop-opacity="0.77498"/>
<stop offset="0.56838" stop-color="#F5B6B3" stop-opacity="0.647"/>
<stop offset="0.66965" stop-color="#F19692" stop-opacity="0.49004"/>
<stop offset="0.76922" stop-color="#EC716A" stop-opacity="0.30401"/>
<stop offset="0.86511" stop-color="#E7463E" stop-opacity="0.09413"/>
<stop offset="0.90408" stop-color="#E5332A" stop-opacity="0"/>
</radialGradient>
</defs>
</svg>
