<svg width="20" height="20" viewBox="0 0 20 20" fill="none" xmlns="http://www.w3.org/2000/svg">
<circle cx="10" cy="10" r="10" fill="black"/>
<path d="M11.2255 11.52C10.8476 11.835 10.7966 12.3966 11.1116 12.7744L11.4905 13.2291C12.0433 12.9804 12.5214 12.5951 12.8817 12.1161L12.4799 11.634C12.165 11.2561 11.6034 11.2051 11.2255 11.52Z" fill="url(#paint0_linear_3843_52804)"/>
<path d="M12.9404 14.9688C13.2554 15.3467 13.817 15.3977 14.1948 15.0828C14.5727 14.7678 14.6237 14.2062 14.3088 13.8284L14.0163 13.4775C13.6261 13.9277 13.1615 14.3117 12.6416 14.6102L12.9404 14.9688Z" fill="url(#paint1_linear_3843_52804)"/>
<path fill-rule="evenodd" clip-rule="evenodd" d="M12.6416 14.6102C11.8635 15.057 10.9616 15.3125 10 15.3125C7.46516 15.3125 5.34498 13.5372 4.81499 11.1621C4.92006 11.3379 5.25749 11.6726 5.7666 11.6048C6.27572 11.537 6.49523 11.0008 6.54134 10.7412C6.89296 12.3429 8.32032 13.5417 10.0277 13.5417C10.5489 13.5417 11.0441 13.4299 11.4905 13.2291C12.0433 12.9804 12.5214 12.5951 12.8817 12.1161C13.3308 11.5192 13.597 10.7769 13.597 9.97233C13.597 9.68655 13.5634 9.40861 13.5 9.14225C13.5415 8.9209 13.7575 8.46159 14.2887 8.39518C14.82 8.32878 15.1232 8.73644 15.2085 8.94857C15.2767 9.28844 15.3125 9.64004 15.3125 10C15.3125 11.3299 14.8239 12.5456 14.0163 13.4775C13.6261 13.9277 13.1615 14.3117 12.6416 14.6102Z" fill="url(#paint2_linear_3843_52804)"/>
<path d="M10 4.6875C7.06598 4.6875 4.6875 7.06599 4.6875 10C4.6875 10.3992 4.73153 10.7881 4.81499 11.1621C4.92006 11.3379 5.25749 11.6726 5.7666 11.6048C6.27572 11.537 6.49523 11.0008 6.54134 10.7412C6.48698 10.4935 6.45833 10.2363 6.45833 9.97233C6.45833 8.00104 8.05637 6.40299 10.0277 6.40299C11.7132 6.40299 13.1258 7.57128 13.5 9.14225C13.5415 8.9209 13.7575 8.46159 14.2887 8.39518C14.82 8.32878 15.1232 8.73644 15.2085 8.94857C14.7205 6.51817 12.5741 4.6875 10 4.6875Z" fill="url(#paint3_linear_3843_52804)"/>
<defs>
<linearGradient id="paint0_linear_3843_52804" x1="15.3125" y1="10.9684" x2="5.35156" y2="12.6009" gradientUnits="userSpaceOnUse">
<stop stop-color="#FF3BE7"/>
<stop offset="0.460065" stop-color="#C156EC"/>
<stop offset="0.696077" stop-color="#4B80F2"/>
<stop offset="1" stop-color="#52BEF1"/>
</linearGradient>
<linearGradient id="paint1_linear_3843_52804" x1="15.3125" y1="10.9684" x2="5.35156" y2="12.6009" gradientUnits="userSpaceOnUse">
<stop stop-color="#FF3BE7"/>
<stop offset="0.460065" stop-color="#C156EC"/>
<stop offset="0.696077" stop-color="#4B80F2"/>
<stop offset="1" stop-color="#52BEF1"/>
</linearGradient>
<linearGradient id="paint2_linear_3843_52804" x1="15.3125" y1="10.9684" x2="5.35156" y2="12.6009" gradientUnits="userSpaceOnUse">
<stop stop-color="#FF3BE7"/>
<stop offset="0.460065" stop-color="#C156EC"/>
<stop offset="0.696077" stop-color="#4B80F2"/>
<stop offset="1" stop-color="#52BEF1"/>
</linearGradient>
<linearGradient id="paint3_linear_3843_52804" x1="4.6875" y1="9.97233" x2="14.7038" y2="7.2054" gradientUnits="userSpaceOnUse">
<stop stop-color="#FDE000"/>
<stop offset="1" stop-color="#1CDA5C"/>
</linearGradient>
</defs>
</svg>
