<svg width="20" height="20" viewBox="0 0 20 20" fill="none" xmlns="http://www.w3.org/2000/svg">
<path d="M10 20C15.5228 20 20 15.5228 20 10C20 4.47715 15.5228 0 10 0C4.47715 0 0 4.47715 0 10C0 15.5228 4.47715 20 10 20Z" fill="white"/>
<path d="M17.964 8.74762C17.5964 6.42239 16.444 4.58167 14.5245 3.22955C14.1801 2.98699 13.7919 2.80694 13.4239 2.59802L13.1996 3.1774C13.2015 3.18967 12.4029 4.4818 11.8311 4.98254C11.8773 4.99384 11.9231 5.01092 11.97 5.01559C12.9093 5.10891 13.7929 5.39205 14.64 5.79988C15.4396 6.18489 16.1461 6.70526 16.804 7.29613L17.3632 7.91696L17.4868 8.04688L17.0623 7.86183C17.0881 7.97955 17.1193 8.09648 17.1429 8.2145C17.1193 8.09648 17.0881 7.97954 17.0623 7.86183C16.5061 7.62493 15.9319 7.46251 15.324 7.43845C15.5759 7.66851 15.8373 7.88899 16.0776 8.13063C16.5861 8.64209 16.9554 9.25063 17.2639 9.89849C17.2708 9.88152 17.2796 9.86434 17.2888 9.84712C17.2796 9.86434 17.2708 9.88152 17.2639 9.89849L17.3895 10.3263C17.4162 10.3698 17.4553 10.4101 17.4676 10.4574C17.5396 10.7362 17.6154 11.0148 17.6701 11.2973C17.7155 11.5323 17.7336 11.7727 17.7648 12.019C17.7867 12.0048 17.7941 12.0027 17.7956 11.9986C17.8054 11.9707 17.8156 11.9429 17.8227 11.9143C18.0812 10.8682 18.1321 9.81171 17.9639 8.74763L17.964 8.74762Z" fill="#158DCE"/>
<path d="M12.6883 2.26434C12.5287 2.44419 12.3788 2.61356 12.229 2.78293C12.2196 2.78257 12.2102 2.78365 12.2008 2.78582C11.7635 3.25747 11.2619 3.64713 10.7071 4.00213C10.6692 3.80603 10.6508 3.64207 10.6031 3.48679C10.5555 3.33078 10.4782 3.18343 10.394 2.98661C10.0766 3.5619 9.62156 3.90968 9.10729 4.17728C8.71004 4.38457 8.29437 4.55828 7.88014 4.73054C7.57498 4.8573 7.29509 5.00789 7.10658 5.29103C6.9289 5.55791 6.90615 5.83562 7.0441 6.12598C6.99246 6.20326 6.94082 6.28018 6.88881 6.35711C6.64721 6.55213 6.41753 6.76556 6.15931 6.93602C5.98885 7.04869 5.78301 7.11767 5.58402 7.17401C5.32075 7.2484 5.09359 7.02558 5.13368 6.75184C5.14957 6.64097 5.17593 6.53119 5.16113 6.38926C5.04845 6.47377 4.93036 6.55141 4.82455 6.6435C4.28067 7.11695 3.94085 7.71283 3.79928 8.41741C3.76642 8.57956 3.78845 8.75291 3.78483 8.9212C3.84009 9.187 3.89498 9.45316 3.95746 9.75435C4.12214 9.62254 4.25937 9.51275 4.39696 9.40296C4.8863 10.0541 5.55224 10.3578 6.35108 10.4008L6.35613 10.4131L6.36588 10.4152L6.35108 10.4008C6.33049 10.3585 6.3128 10.3148 6.28897 10.2748C6.09684 9.95297 6.15679 9.66117 6.50674 9.52178C6.83609 9.39069 7.19182 9.28886 7.54284 9.25815C8.31495 9.19098 9.07732 9.29536 9.80501 9.57018C10.0361 9.65757 10.242 9.81069 10.4598 9.93384C10.5168 10.0043 10.5739 10.0747 10.6313 10.1451C10.6544 10.187 10.6768 10.2293 10.701 10.2708C10.93 10.6597 11.0506 11.0718 10.9812 11.5283C10.8624 12.3094 10.4016 12.8652 9.78515 13.3007C8.75879 14.0255 7.60821 14.2722 6.3677 14.1259C5.37349 14.0089 4.49304 13.6196 3.74042 12.9663C3.38434 12.6572 3.07557 12.2935 2.74548 11.9544L2.62667 11.7793C2.34209 11.2867 2.0586 10.7934 1.77294 10.3018C1.74152 10.248 1.69746 10.2018 1.65918 10.1523C1.71407 9.53841 1.69602 8.9075 1.83578 8.31378C2.63859 4.90463 4.75883 2.76344 8.15534 1.93752C9.64684 1.57494 11.1358 1.71759 12.5879 2.2174C12.6147 2.22643 12.6396 2.24124 12.6883 2.26435V2.26434Z" fill="#158DCE"/>
<path opacity="0.2" d="M9.99981 17.471C14.1259 17.471 17.4708 14.1261 17.4708 9.99999C17.4708 5.87387 14.1259 2.52899 9.99981 2.52899C5.87369 2.52899 2.52881 5.87387 2.52881 9.99999C2.52881 14.1261 5.87369 17.471 9.99981 17.471Z" fill="url(#paint0_linear_3510_21437)"/>
<path d="M17.2642 9.89842C16.9554 9.25054 16.5863 8.64202 16.0775 8.13065C15.8373 7.88905 15.5759 7.66839 15.3242 7.43835C14.9825 7.24081 14.6553 7.00968 14.2956 6.85331C13.8016 6.63843 13.2826 6.47989 12.7998 6.30655C12.9869 6.32605 13.2129 6.33977 13.4354 6.37625C13.6593 6.41273 13.8821 6.46328 14.1013 6.52323C14.3256 6.58534 14.5477 6.65902 14.7655 6.741C14.9767 6.82081 15.1815 6.91796 15.4188 7.02016C15.3527 6.8804 15.2978 6.76375 15.2425 6.6471L15.2729 6.61965C15.3346 6.64674 15.3982 6.67093 15.4585 6.70091C16.0764 7.01149 16.656 7.38238 17.1974 7.81321C17.2479 7.85366 17.3075 7.88255 17.3631 7.91686L16.8041 7.29606C16.1461 6.70524 15.4397 6.18484 14.6401 5.79987C13.7929 5.39215 12.9096 5.10901 11.9702 5.01548C11.9233 5.01079 11.8774 4.99381 11.8312 4.98262C11.6716 5.08807 11.5177 5.204 11.3509 5.29681C10.9251 5.53372 10.4935 5.76015 10.0641 5.99092L10.0226 5.93422C10.0515 5.8963 10.0847 5.86055 10.1089 5.81938C10.2639 5.55828 10.4137 5.29428 10.5719 5.03499C10.6185 4.95807 10.6719 4.86092 10.746 4.82878C11.6286 4.44561 12.335 3.85082 12.894 3.07293C12.9078 3.05415 12.9276 3.04007 12.9442 3.02345L12.8182 3.00575C12.681 3.05306 12.5437 3.10073 12.4065 3.14804C12.4462 3.08123 12.4856 3.01442 12.5253 2.94761C12.8979 2.71474 13.6448 1.09854 13.651 0.876099C13.6416 0.875739 12.8928 2.05449 12.2006 2.78582C11.7633 3.25747 11.2617 3.64713 10.707 4.00213C10.6691 3.80603 10.6506 3.64207 10.603 3.48679C10.5553 3.33078 10.478 3.18343 10.3939 2.98661C10.0764 3.5619 9.6214 3.90968 9.10713 4.17728C8.70988 4.38457 8.29421 4.55828 7.87998 4.73054C7.57482 4.8573 7.29493 5.00789 7.10642 5.29103C6.92874 5.55791 6.90599 5.83562 7.04394 6.12598C7.2079 6.24516 7.37149 6.36433 7.52209 6.47412C7.32094 6.56224 7.10245 6.47881 6.88865 6.35711C6.64705 6.55213 6.41737 6.76556 6.15915 6.93602C5.98869 7.04869 5.78285 7.11767 5.58386 7.17401C5.32059 7.2484 5.09343 7.02558 5.13352 6.75184C5.14941 6.64097 5.17577 6.53119 5.16097 6.38926C5.04829 6.47377 4.9302 6.55141 4.82439 6.6435C4.28051 7.11695 3.94069 7.71283 3.79912 8.41741C3.76626 8.57956 3.78829 8.75291 3.78467 8.9212C3.83993 9.187 3.89482 9.45316 3.9573 9.75435C4.12198 9.62254 4.25921 9.51275 4.3968 9.40296L4.57593 9.27837C4.62035 9.24876 4.66477 9.21878 4.70919 9.18881L4.7146 9.18412C4.8753 9.08156 5.03638 8.97899 5.19745 8.87679C6.17324 8.36578 7.22199 8.18304 8.30974 8.20363C8.92692 8.21519 9.5405 8.28091 10.136 8.45932L10.1833 8.47304L10.1859 8.47268L10.4784 8.52794L10.5094 8.48894C10.3115 8.27226 10.1136 8.05594 9.91609 7.83961C9.65716 7.66988 9.39821 7.50014 9.09233 7.29971C9.41627 7.29971 9.69399 7.28526 9.9699 7.30188C11.3541 7.38494 12.6141 7.81397 13.6824 8.71826C14.929 9.77315 15.634 11.1216 15.8041 12.7525C15.8691 13.3769 15.8023 13.9851 15.6589 14.5904C15.7044 14.5553 15.7604 14.5282 15.7936 14.4842C16.1374 14.0295 16.4317 13.5463 16.6704 13.0266C16.9752 12.3632 17.1724 11.6716 17.2775 10.9512C17.3079 10.7417 17.4301 10.6654 17.4676 10.4574C17.4257 10.3148 17.3057 10.0411 17.2642 9.89845L17.2642 9.89842ZM5.27007 7.87677C5.25852 7.92552 5.2466 7.97428 5.22818 8.04975C5.13717 7.84788 5.00283 7.88074 4.87499 7.93563C4.78435 7.97427 4.70417 8.03711 4.61931 8.08948V8.08912L4.58283 8.12234L4.57488 8.11945L4.56621 8.1162L4.52793 8.10139C4.60991 7.86846 4.71066 7.6395 4.94215 7.52429C5.02738 7.48168 5.22348 7.47987 5.23973 7.51671C5.28596 7.62108 5.26465 7.7547 5.27006 7.87676L5.27007 7.87677ZM9.56761 5.34555C9.34442 5.68141 9.04216 5.9129 8.65899 6.03857C8.4387 6.06566 8.2184 6.09274 7.99847 6.12019C7.83812 6.16822 7.77167 6.10141 7.82837 5.9519C7.87532 5.82803 7.93057 5.66552 8.03097 5.61243C8.37405 5.42969 8.7388 5.28813 9.0956 5.13067C9.31662 5.00897 9.53799 4.8869 9.75901 4.7652L9.80704 4.78903C9.72723 4.97429 9.64742 5.15992 9.56761 5.34554V5.34555Z" fill="url(#paint1_linear_3510_21437)"/>
<path d="M14.5717 16.4692C14.1801 16.9217 13.6969 17.2545 13.1625 17.5076C11.9978 18.0592 10.7632 18.2335 9.48371 18.1736C7.83013 18.0962 6.34171 17.5633 5.00594 16.591C4.94371 16.5457 4.88822 16.4912 4.82959 16.4409C4.88394 16.457 4.94533 16.462 4.99161 16.491C5.88124 17.0497 6.86134 17.2779 7.89963 17.2967L8.73073 17.2265C8.77102 17.2506 8.80898 17.2899 8.85194 17.2965C9.42673 17.3848 10.0022 17.3896 10.5825 17.3397C11.2902 17.2787 11.9714 17.1153 12.6286 16.8565C13.3551 16.5704 14.0291 16.1894 14.6251 15.6772C14.8044 15.5232 14.9974 15.3852 15.1841 15.2399C15.058 15.5149 14.9341 15.791 14.8048 16.0646C14.7452 16.1908 14.6749 16.312 14.6094 16.4354L14.6113 16.4328L14.5717 16.4692V16.4692Z" fill="#273271"/>
<path d="M8.15316 17.2259C8.06866 17.2494 7.98415 17.2732 7.89964 17.2967C6.86137 17.2779 5.88124 17.0497 4.99176 16.491C4.94553 16.4621 4.88414 16.457 4.82961 16.4408V16.4404L4.72741 16.3588L4.69166 16.3285L4.64724 16.2909C3.37675 15.2772 2.52194 13.9782 2.02682 12.4368C1.78883 11.6954 1.66424 10.9327 1.65918 10.1523C1.69746 10.2018 1.74152 10.248 1.77294 10.3018C2.0586 10.7933 2.34209 11.2866 2.62667 11.7792L2.74548 11.9544C2.75342 12.0071 2.75162 12.0642 2.77148 12.1122C2.9553 12.5593 3.1189 13.0172 3.33522 13.4484C3.75992 14.2938 4.36193 15.0038 5.08276 15.6141C5.93686 16.3364 6.90254 16.8416 7.98306 17.1284C8.04409 17.1446 8.09682 17.1927 8.15315 17.2259H8.15316Z" fill="#1C2243"/>
<path d="M14.6093 16.4354C14.6748 16.312 14.7451 16.1908 14.8047 16.0646C14.934 15.791 15.0579 15.5149 15.184 15.2399C15.1978 15.2143 15.2153 15.19 15.225 15.163C15.5098 14.3648 15.5449 13.5438 15.3917 12.7209C15.0899 11.0993 14.2423 9.81885 12.8947 8.87757C12.0019 8.25399 10.9981 7.92882 9.91603 7.83945L9.09229 7.29953C9.41623 7.29953 9.69408 7.28537 9.97009 7.30192C11.3543 7.38492 12.614 7.81399 13.6822 8.71813C14.9289 9.77326 15.6342 11.1215 15.8042 12.7524C15.8693 13.3767 15.8022 13.9851 15.659 14.5902C15.4918 15.123 15.2571 15.6233 14.9269 16.0747C14.8327 16.2035 14.7158 16.3156 14.6093 16.4354V16.4354Z" fill="#1D2C51"/>
<path d="M13.4241 2.59806L13.1997 3.17744L12.9444 3.0235L12.8183 3.00571L12.5874 2.89066C13.0507 2.27823 13.4073 1.60905 13.6511 0.876099C13.6881 1.46838 13.5706 2.03518 13.4241 2.59806H13.4241Z" fill="#1C2243"/>
<path d="M12.5875 2.89062L12.8183 3.00568L12.4067 3.14813L12.5254 2.94754L12.5875 2.89062Z" fill="#273271"/>
<path d="M4.72754 16.3589L4.82986 16.4405L4.72754 16.3589Z" fill="#273271"/>
<path d="M4.64697 16.2908L4.69157 16.3285L4.64697 16.2908Z" fill="#273271"/>
<path d="M14.5718 16.4692L14.6114 16.4328L14.5718 16.4692Z" fill="#1D2C51"/>
<path d="M15.225 15.1631C15.2156 15.1902 15.1979 15.2144 15.1842 15.24C14.9975 15.3852 14.8042 15.5231 14.6251 15.6774C14.0292 16.1894 13.355 16.5704 12.6288 16.8565C11.9715 17.1154 11.2904 17.2786 10.5825 17.3397C10.0022 17.3895 9.4269 17.3848 8.85197 17.2967C8.809 17.2898 8.77108 17.2505 8.73062 17.2266C8.84185 17.2071 8.95417 17.1923 9.06431 17.1674C10.0239 16.9496 10.8971 16.5524 11.6522 15.9114C12.4594 15.2259 13.0589 14.4184 13.2105 13.3314C13.2867 12.7857 13.1957 12.2722 12.9982 11.7691C12.9834 11.7316 12.9466 11.7027 12.9466 11.7027C12.7761 11.9955 12.6096 12.2808 12.4431 12.5665C12.1954 12.7637 11.9477 12.9612 11.6674 13.1844C11.7169 12.8897 11.7563 12.6564 11.7953 12.4231C11.8072 12.391 11.8281 12.3592 11.8299 12.3267C11.8805 11.2718 11.4255 10.4867 10.5475 9.93092C10.5269 9.91792 10.4894 9.932 10.4598 9.93381C10.242 9.81066 10.0362 9.65754 9.80502 9.57014C9.07733 9.29531 8.31496 9.19094 7.54285 9.25812C7.19182 9.28882 6.8361 9.39066 6.50675 9.52175C6.1568 9.66115 6.09685 9.95295 6.28898 10.2747C6.31281 10.3148 6.33051 10.3585 6.35109 10.4008C5.55225 10.3578 4.88631 10.0541 4.39697 9.40294L4.5761 9.27835C4.62052 9.24874 4.66494 9.21876 4.70936 9.18879L4.71477 9.1841C4.77508 9.17002 4.84045 9.16604 4.89534 9.1404C5.94626 8.6507 7.05206 8.48529 8.19831 8.6005C8.91951 8.67309 9.623 8.83777 10.3045 9.09093C10.385 9.12091 10.4695 9.13932 10.5522 9.1628L10.584 9.12741C10.5107 9.00787 10.4374 8.88834 10.3644 8.7688C10.3045 8.67021 10.2453 8.57126 10.186 8.47267L10.4786 8.52793L10.5096 8.48893C10.3117 8.27225 10.1138 8.05593 9.91625 7.8396C10.9982 7.9288 12.0022 8.25419 12.8949 8.87751C14.2423 9.819 15.0899 11.0992 15.3918 12.7207C15.545 13.5438 15.5099 14.3646 15.225 15.1631L15.225 15.1631Z" fill="#28397C"/>
<path d="M13.1764 3.23987C12.8571 3.93745 12.4028 4.48184 11.831 4.98258C11.6714 5.08796 11.5176 5.20391 11.3509 5.29665C10.925 5.53365 10.4934 5.76031 10.0641 5.99111L10.0225 5.93427C10.0515 5.89615 10.0846 5.86047 10.1089 5.81952C10.2636 5.55837 10.4137 5.29435 10.5716 5.03517C10.6185 4.95825 10.6716 4.861 10.746 4.82873C11.6285 4.44574 12.3348 3.85082 12.8941 3.07304C12.9076 3.05422 12.9274 3.03991 12.9442 3.0235L13.1995 3.17744C13.2014 3.18971 13.1746 3.22761 13.1764 3.23987Z" fill="#1D2C51"/>
<path d="M10.1855 8.47269C10.245 8.57138 10.3042 8.67025 10.3641 8.76871C10.4369 8.88848 10.5104 9.00789 10.5835 9.12746L10.552 9.16291C10.4693 9.13925 10.3846 9.12097 10.3042 9.09107C9.62285 8.83771 8.91902 8.67305 8.19795 8.60054C7.0517 8.48528 5.94593 8.65064 4.89519 9.14037C4.84007 9.16606 4.77492 9.17017 4.71436 9.18415C4.87526 9.08151 5.03624 8.97905 5.19722 8.87659C6.17294 8.36579 7.2217 8.18313 8.30973 8.20362C8.9268 8.21524 9.54026 8.28087 10.136 8.45911L10.1831 8.47286L10.1856 8.47268L10.1855 8.47269Z" fill="#1D2C51"/>
<path d="M17.0625 7.86187C16.5064 7.62497 15.9321 7.46255 15.3243 7.43849C14.9826 7.24074 14.6555 7.0097 14.2959 6.85336C13.8016 6.63839 13.2827 6.47996 12.7998 6.30646C12.9871 6.3262 13.2132 6.33997 13.4355 6.37628C13.6596 6.41286 13.8824 6.46313 14.1013 6.5234C14.3258 6.58519 14.5477 6.65898 14.7656 6.74117C14.9768 6.82086 15.1815 6.91791 15.4187 7.02011L15.2428 6.64699L15.273 6.61959C15.3349 6.6466 15.3982 6.67078 15.4585 6.70105C16.0765 7.01153 16.6562 7.38225 17.1976 7.81333C17.2481 7.85361 17.3078 7.8825 17.3633 7.91684L17.4871 8.04692L17.0625 7.86187Z" fill="#1D2C51"/>
<path d="M9.09566 5.13065L9.75933 4.7652L9.80717 4.789L9.56793 5.34548C9.34467 5.68135 9.04221 5.91304 8.65905 6.03854L7.99854 6.12013C8.11699 6.06703 8.23563 6.01478 8.35341 5.96064C8.72076 5.79178 9.00991 5.55235 9.09566 5.13064V5.13065Z" fill="#232D5F"/>
<path d="M10.1834 8.47286L10.1362 8.45911L10.1834 8.47286Z" fill="#28397C"/>
<path d="M9.09559 5.13062C9.00984 5.55233 8.72069 5.79176 8.35334 5.96062C8.23556 6.01476 8.11691 6.067 7.99846 6.12011C7.83817 6.16828 7.77184 6.10148 7.82859 5.95173C7.87542 5.82816 7.93068 5.66555 8.03095 5.61227C8.37424 5.42985 8.73901 5.28797 9.09559 5.13063V5.13062Z" fill="#3199D3"/>
<path d="M4.58302 8.12247L4.52783 8.1014C4.61007 7.86839 4.71075 7.63967 4.9423 7.52427C5.02742 7.48185 5.2236 7.47998 5.23989 7.51687C5.28585 7.62097 5.26481 7.75474 5.27019 7.8768C5.22935 7.74832 5.19982 7.5871 5.00967 7.66579C4.82076 7.74397 4.65623 7.86237 4.61917 8.08939L4.62014 8.08843L4.58303 8.12247H4.58302Z" fill="#28397C"/>
<path d="M4.61914 8.08939C4.6562 7.86237 4.82073 7.74397 5.00964 7.66579C5.1998 7.5871 5.22932 7.74832 5.27016 7.8768L5.22835 8.04977C5.13704 7.84785 5.0028 7.8808 4.87516 7.93555C4.78452 7.97443 4.70411 8.03725 4.61914 8.08939Z" fill="#399CD5"/>
<path d="M7.52211 6.47412C7.32096 6.56224 7.10247 6.47881 6.88867 6.35711C6.94068 6.28019 6.99232 6.20326 7.04396 6.12598C7.20792 6.24516 7.37151 6.36433 7.52211 6.47412Z" fill="#40A0D6"/>
<path d="M4.70958 9.18896L4.57617 9.27845L4.70958 9.18896Z" fill="#1D2C51"/>
<path d="M4.58301 8.12248L4.62012 8.08844L4.58301 8.12248Z" fill="#399CD5"/>
<path d="M12.443 12.5666L12.9465 11.7028C12.9464 11.7027 12.983 11.7317 12.9978 11.7693C13.1953 12.2723 13.2864 12.7859 13.2103 13.3314C13.0585 14.4186 12.4591 15.2259 11.6518 15.9113C10.8968 16.5525 10.0235 16.9496 9.06387 17.1674C8.95393 17.1924 8.84168 17.2071 8.7305 17.2265L7.89941 17.2967L8.15305 17.2258C8.31092 17.1952 8.47038 17.1712 8.62635 17.1329C9.20512 16.9907 9.75541 16.7789 10.2709 16.4741C11.2283 15.9079 12.0182 15.1876 12.4211 14.1201C12.6132 13.6113 12.6452 13.0873 12.443 12.5665L12.443 12.5666Z" fill="#232D5F"/>
<path d="M12.4216 14.1201C12.0185 15.1877 11.2287 15.9081 10.2714 16.474C9.75565 16.7788 9.20564 16.9908 8.62674 17.1328C8.47073 17.1714 8.31147 17.1952 8.15328 17.2259C8.09694 17.1927 8.04422 17.1447 7.98319 17.1284C6.90267 16.8417 5.93698 16.3364 5.08289 15.6142C4.36206 15.0038 3.76005 14.2938 3.33535 13.4484C3.11903 13.0172 2.95543 12.5593 2.77161 12.1122C2.75175 12.0642 2.75355 12.0071 2.74561 11.9544C3.0757 12.2935 3.38447 12.6572 3.74055 12.9663C4.49317 13.6196 5.37362 14.0089 6.36783 14.1259C7.60834 14.2722 8.75892 14.0255 9.78528 13.3007C10.4017 12.8652 10.8625 12.3094 10.9814 11.5282C11.0507 11.0718 10.9301 10.6597 10.7011 10.2708C10.6769 10.2292 10.6545 10.187 10.6314 10.1451C10.6672 10.1639 10.7134 10.1736 10.7369 10.2021C11.275 10.8558 11.483 11.5893 11.2598 12.4228C11.2222 12.5625 11.1713 12.6991 11.1265 12.837L11.1637 12.8767C11.3743 12.7254 11.5848 12.5745 11.7954 12.4231C11.7564 12.6564 11.717 12.8897 11.6675 13.1844C11.9478 12.9612 12.1955 12.7637 12.4433 12.5665C12.6455 13.0873 12.6137 13.6113 12.4216 14.1201H12.4216Z" fill="#1D2C51"/>
<path d="M11.8296 12.3267C11.8278 12.3592 11.8069 12.391 11.795 12.4231C11.5844 12.5745 11.3739 12.7254 11.1633 12.8767L11.1261 12.837C11.1709 12.6991 11.2218 12.5625 11.2594 12.4228C11.4826 11.5893 11.2746 10.8558 10.7365 10.2021C10.713 10.1736 10.6668 10.1639 10.631 10.1451C10.5736 10.0747 10.5165 10.0042 10.4595 9.93382C10.4891 9.93201 10.5266 9.91793 10.5472 9.93093C11.4252 10.4867 11.8802 11.2718 11.8296 12.3267L11.8296 12.3267Z" fill="#273271"/>
<path d="M6.36587 10.4152L6.35612 10.413L6.35107 10.4008L6.36587 10.4152V10.4152Z" fill="#28397C"/>
<defs>
<linearGradient id="paint0_linear_3510_21437" x1="5.47663" y1="4.08184" x2="14.5505" y2="15.9541" gradientUnits="userSpaceOnUse">
<stop stop-color="white"/>
<stop offset="0.08171" stop-color="white" stop-opacity="0.85545"/>
<stop offset="0.22182" stop-color="white" stop-opacity="0.63171"/>
<stop offset="0.36241" stop-color="white" stop-opacity="0.43855"/>
<stop offset="0.50019" stop-color="white" stop-opacity="0.28078"/>
<stop offset="0.63467" stop-color="white" stop-opacity="0.15815"/>
<stop offset="0.76482" stop-color="white" stop-opacity="0.07059"/>
<stop offset="0.88878" stop-color="white" stop-opacity="0.01791"/>
<stop offset="1" stop-color="white" stop-opacity="0"/>
</linearGradient>
<linearGradient id="paint1_linear_3510_21437" x1="7.29752" y1="3.83631" x2="17.0068" y2="13.3666" gradientUnits="userSpaceOnUse">
<stop stop-color="#D6EDF7"/>
<stop offset="0.13519" stop-color="#E3F2F9"/>
<stop offset="0.36738" stop-color="#F2F9FC"/>
<stop offset="0.6325" stop-color="#FCFDFE"/>
<stop offset="1" stop-color="white"/>
</linearGradient>
</defs>
</svg>
