<svg width="20" height="20" viewBox="0 0 20 20" fill="none" xmlns="http://www.w3.org/2000/svg">
<circle cx="10" cy="10" r="10" fill="black"/>
<path d="M15.1299 10.8883C15.1299 10.8665 15.1332 10.8454 15.1354 10.8236C14.5654 10.3755 13.8527 10.1558 13.1333 10.2064C12.4138 10.257 11.7378 10.5744 11.2342 11.0981C10.7305 11.6217 10.4344 12.3152 10.4021 13.0461C10.3698 13.7771 10.6038 14.4945 11.0593 15.0618C13.2503 14.3932 14.9246 12.7775 15.1299 10.8883Z" fill="#F3C659"/>
<path fill-rule="evenodd" clip-rule="evenodd" d="M7.89112 11.379C7.89032 12.0109 8.01314 12.6367 8.25248 13.22C8.49182 13.8034 8.84288 14.3328 9.28533 14.7775C9.59291 14.8481 9.90684 14.8864 10.2221 14.8917C9.70801 14.2046 9.45912 13.3504 9.52222 12.4901C9.58533 11.6298 9.95611 10.8224 10.5648 10.2201C11.1735 9.61769 11.9782 9.26169 12.8274 9.21915C13.6767 9.17656 14.5121 9.4503 15.1763 9.98889C15.167 8.76819 14.8546 7.87176 14.5624 7.29341C14.4916 7.15416 14.4196 7.0288 14.3488 6.91515C13.6319 6.63107 12.8576 6.52856 12.0929 6.6165C11.3282 6.70444 10.5962 6.98019 9.96015 7.41981C9.32411 7.85943 8.80331 8.44979 8.44279 9.13962C8.08227 9.8295 7.89291 10.5981 7.89112 11.379Z" fill="#F3C659"/>
<path fill-rule="evenodd" clip-rule="evenodd" d="M4.97931 6.06794C3.9372 6.76041 3.14438 7.77693 2.71967 8.96507C2.62425 9.24549 2.55081 9.53316 2.50002 9.8253C2.50002 9.88102 2.50002 9.93674 2.50002 9.99245C2.49655 11.5459 2.94215 13.0663 3.78167 14.3654C4.32311 14.6853 5.84198 15.3811 8.8336 15.3906C9.62753 15.3934 10.417 15.271 11.174 15.0279C10.9052 15.07 10.6337 15.0907 10.3618 15.0897C9.09115 15.0866 7.8688 14.5955 6.94048 13.7152C6.01216 12.8349 5.44667 11.6307 5.35771 10.3447C5.26874 9.05862 5.6629 7.7861 6.46094 6.7829C7.25896 5.77968 8.40174 5.12017 9.65948 4.93693C9.57162 4.93693 9.47991 4.93359 9.38489 4.93359C8.14776 4.93359 6.38286 5.13082 4.97931 6.06794Z" fill="#F3C659"/>
<path fill-rule="evenodd" clip-rule="evenodd" d="M5.75704 3.5089C3.03065 5.55138 2.59189 8.29308 2.52271 9.24024C2.60226 8.97878 2.69894 8.72306 2.81209 8.47473C2.98279 8.07849 3.20216 7.70579 3.465 7.36546C3.86955 6.82296 4.36332 6.35534 4.92457 5.98317C5.13471 5.84378 5.35374 5.7187 5.58022 5.60877C6.72898 5.01764 7.99634 4.8544 9.06166 4.8388C9.5859 4.82325 10.1106 4.84373 10.6322 4.90008C11.0165 4.93128 11.2999 4.95858 11.4245 4.9402C12.19 4.82877 12.8248 4.30394 12.8248 3.51949C12.8248 2.76902 12.14 2.18235 11.5179 2.07593C11.1663 2.02306 10.8113 1.99773 10.4559 2.00016C9.2923 2.00016 7.44284 2.24586 5.75704 3.5089Z" fill="#F3C659"/>
<path fill-rule="evenodd" clip-rule="evenodd" d="M15.519 10.9293C15.3768 12.2369 14.6092 13.4598 13.3577 14.373C12.1062 15.2861 10.5138 15.7831 8.8549 15.7831H8.82798C6.559 15.7759 5.10822 15.3881 4.26367 15.0416C5.85612 17.1153 9.04487 18.5348 11.9997 17.8033C17.4975 16.4417 18.1307 11.1527 16.6124 8.81051C16.1883 8.15978 15.6252 7.61442 14.965 7.21484C15.3675 8.0483 15.698 9.27235 15.519 10.9293Z" fill="#F3C659"/>
</svg>
