<svg width="20" height="20" viewBox="0 0 20 20" fill="none" xmlns="http://www.w3.org/2000/svg">
<g clip-path="url(#clip0_2584_4577)">
<path d="M1.81248 12.3213C1.80806 12.243 1.81778 12.1645 1.84116 12.0897C1.87386 12.0129 1.88642 11.9291 1.87767 11.8461C1.88027 11.7459 1.89642 11.6465 1.92567 11.5506C1.93977 11.5091 1.94754 11.4658 1.94872 11.4219C1.9422 11.3438 1.95513 11.2653 1.98634 11.1934C2.0375 11.0648 1.99968 10.9148 2.08654 10.7961C2.08927 10.7923 2.08754 10.7849 2.08693 10.7792C2.07215 10.6959 2.08585 10.6101 2.12583 10.5355C2.18075 10.4527 2.13015 10.3591 2.18102 10.2761C2.19817 10.2492 2.20471 10.2169 2.19937 10.1855C2.19403 10.1541 2.17719 10.1258 2.15213 10.1062C2.07638 10.0504 1.99958 9.99593 1.92149 9.94352C1.88714 9.92562 1.84888 9.91654 1.81015 9.91709C1.77142 9.91764 1.73343 9.9278 1.69961 9.94666C1.60864 10.0205 1.53774 10.1161 1.49344 10.2245C1.47926 10.2719 1.47117 10.3209 1.46935 10.3704C1.46962 10.387 1.46701 10.4035 1.46163 10.4193C1.4034 10.5534 1.38236 10.7007 1.40072 10.8457C1.38934 10.856 1.36829 10.866 1.36802 10.8765C1.36375 11.0451 1.35835 11.2124 1.3382 11.3814C1.32056 11.5922 1.31911 11.8042 1.33387 12.0153C1.32181 12.2299 1.33098 12.4451 1.36123 12.6579C1.3751 12.7885 1.3773 12.9201 1.3678 13.0512C1.3734 13.1794 1.39449 13.3071 1.39924 13.4354C1.39629 13.5473 1.408 13.6593 1.4341 13.7682C1.45793 13.8467 1.4699 13.9286 1.49126 14.008C1.53491 14.1186 1.60821 14.2151 1.70311 14.2869C1.72932 14.3125 1.80644 14.275 1.81141 14.2349C1.81648 14.2124 1.8163 14.1891 1.81086 14.1668C1.76934 14.0169 1.74866 13.862 1.74941 13.7064C1.73675 13.4896 1.73504 13.2722 1.74429 13.0551C1.74174 13.0214 1.74421 12.9874 1.75163 12.9544C1.78186 12.8309 1.8015 12.7051 1.81033 12.5783C1.81691 12.4928 1.81763 12.4069 1.81248 12.3213ZM18.6956 12.6644C18.6956 12.0989 18.6954 11.5333 18.6949 10.9678C18.6978 10.9065 18.6887 10.8452 18.6683 10.7874C18.6425 10.6967 18.6288 10.603 18.6277 10.5087C18.6216 10.3318 18.5612 10.1612 18.4546 10.02C18.3868 9.93813 18.2306 9.88358 18.1588 9.93132C18.0759 9.98912 17.9984 10.0544 17.9274 10.1262C17.9102 10.1429 17.9153 10.187 17.9177 10.2179C17.9198 10.2444 17.9415 10.2709 17.9392 10.296C17.9354 10.3909 17.9535 10.4853 17.992 10.572C18.0034 10.5972 18.0088 10.6247 18.008 10.6523C18.0002 10.7474 18.0137 10.843 18.0474 10.9322C18.0698 11.007 18.0803 11.0849 18.0785 11.163C18.0783 11.1909 18.0814 11.2187 18.0876 11.246C18.1269 11.3675 18.1471 11.4944 18.1475 11.6222C18.1409 11.6671 18.1437 11.7128 18.1555 11.7566C18.2059 11.8931 18.2264 12.0389 18.2155 12.1841C18.2106 12.3644 18.22 12.5449 18.2437 12.7237C18.2631 12.8679 18.2744 13.013 18.2772 13.1585C18.2824 13.3267 18.2729 13.4951 18.249 13.6617L18.2442 13.6774C18.2083 13.8608 18.1994 14.0485 18.2179 14.2344C18.2177 14.2487 18.2215 14.2627 18.2287 14.275C18.2358 14.2872 18.2462 14.2973 18.2587 14.3042C18.2712 14.311 18.2853 14.3144 18.2995 14.3138C18.3137 14.3133 18.3276 14.3089 18.3395 14.3012C18.4244 14.2438 18.4929 14.1655 18.5386 14.0737C18.6019 13.9621 18.6328 13.8349 18.6276 13.7066C18.6238 13.6897 18.624 13.6722 18.6284 13.6555C18.6816 13.4789 18.7046 13.2945 18.6965 13.1103C18.6931 12.9617 18.6957 12.813 18.6956 12.6644ZM18.6185 9.28999C18.5862 9.39451 18.5523 9.49876 18.5264 9.60491C18.5193 9.62954 18.5195 9.65569 18.5269 9.68022C18.5344 9.70475 18.5487 9.72661 18.5683 9.74316C18.6385 9.80804 18.6993 9.88311 18.7641 9.95386C18.7461 10.0524 18.8405 10.1089 18.8574 10.196C18.8604 10.2116 18.9277 10.2354 18.9426 10.2245C19.0057 10.1781 19.0739 10.199 19.14 10.194C19.2183 10.1881 19.2384 10.1729 19.2441 10.0934L18.6185 9.28999ZM3.9787 5.89015C3.9654 5.92697 4.02729 5.96277 4.05836 5.93615C4.11079 5.89205 4.15905 5.84321 4.20253 5.79025C4.43751 5.5049 4.70163 5.24484 4.9906 5.01431C5.17221 4.86431 5.36457 4.7278 5.56613 4.60589C5.80167 4.46499 6.04379 4.33615 6.29247 4.21936C6.49447 4.12436 6.70581 4.05813 6.91235 3.97815C7.0888 3.91143 7.26969 3.8571 7.45371 3.81556C7.76284 3.74333 8.07301 3.67576 8.38871 3.63285C8.4952 3.61838 8.60112 3.61308 8.70716 3.60194C8.83977 3.58802 8.97125 3.56358 9.10341 3.54506C9.13709 3.5408 9.17102 3.53887 9.20497 3.53929C9.76532 3.53899 10.3259 3.53029 10.8859 3.54491C11.0426 3.53835 11.1994 3.55734 11.35 3.60113C11.3894 3.60852 11.4297 3.60973 11.4694 3.60472C11.6092 3.6111 11.748 3.63157 11.8836 3.66583C12.025 3.69704 12.1696 3.71348 12.3116 3.74232C12.4966 3.77989 12.6794 3.82732 12.8626 3.87243C13.1011 3.93121 13.3298 4.01743 13.5601 4.09612C13.7852 4.18041 14.0037 4.28154 14.2136 4.39865C14.5323 4.56527 14.8355 4.75984 15.1198 4.98008C15.4246 5.21671 15.7044 5.484 15.9547 5.77774C15.9663 5.7893 15.9804 5.798 15.9959 5.80313C16.0205 5.81275 16.0462 5.81926 16.0714 5.82713C16.0788 5.80658 16.0838 5.78527 16.0864 5.76359L19.5158 10.0407C19.5136 10.0966 19.502 10.1518 19.4813 10.2037C19.4582 10.2516 19.4474 10.3044 19.4502 10.3575C19.4529 10.4106 19.4689 10.4621 19.4969 10.5073C19.5495 10.6057 19.5787 10.715 19.5821 10.8266C19.6036 11.1546 19.6135 11.4834 19.6218 11.812C19.6275 12.0349 19.6275 12.2579 19.6218 12.481C19.6137 12.8044 19.6051 13.128 19.5832 13.4506C19.5713 13.6172 19.5199 13.7786 19.4332 13.9214C19.4076 13.9693 19.369 14.009 19.3218 14.0359C19.2745 14.0628 19.2207 14.0757 19.1664 14.0732C19.0931 14.0794 19.0193 14.07 18.9499 14.0457C18.8717 14.0068 18.8353 14.0314 18.7955 14.1221C18.7574 14.2214 18.7022 14.3133 18.6324 14.3936C18.5862 14.443 18.5304 14.4826 18.4685 14.5099C18.4065 14.5372 18.3397 14.5516 18.272 14.5524C18.1429 14.5574 18.1422 14.5568 18.1116 14.6857C18.0652 14.8804 18.0301 15.0784 17.972 15.2695C17.8764 15.6133 17.7486 15.9473 17.5904 16.2672C17.4708 16.5016 17.3358 16.7278 17.1861 16.9443C17.0387 17.1521 16.8648 17.3366 16.7122 17.5391C16.6482 17.6027 16.5811 17.663 16.5109 17.7197C16.3309 17.9006 16.1372 18.0674 15.9316 18.2187L15.5102 18.5117C15.4804 18.5263 15.4516 18.5428 15.424 18.5613C15.3093 18.6387 15.1893 18.7079 15.0649 18.7683C14.8566 18.8533 14.6531 18.95 14.4423 19.0289C14.3763 19.0678 14.3041 19.0949 14.2289 19.1091C14.1357 19.1066 14.0889 19.2129 13.996 19.1845C13.9075 19.2285 13.8129 19.259 13.7154 19.2752C13.5755 19.3233 13.4323 19.3611 13.2869 19.3883C13.1523 19.4168 13.0156 19.4425 12.8824 19.4716C12.7654 19.5053 12.6446 19.5243 12.5229 19.5279C12.5007 19.5274 12.4786 19.5314 12.4581 19.5397C12.3377 19.5853 12.209 19.6048 12.0806 19.5967C12.0243 19.5931 11.9677 19.5966 11.9123 19.6071C11.7897 19.6429 11.663 19.6626 11.5354 19.6655C11.4103 19.6518 11.284 19.6536 11.1594 19.6709C11.0603 19.6875 10.9602 19.6971 10.8598 19.6996C10.7601 19.7075 10.6609 19.7305 10.5614 19.7315C10.184 19.7354 9.80652 19.7331 9.42909 19.7331C9.39479 19.7331 9.35284 19.7455 9.32754 19.7303C9.23625 19.6755 9.13496 19.7216 9.04604 19.6953C8.94823 19.6708 8.8474 19.6604 8.74665 19.6647C8.66088 19.6641 8.57509 19.6653 8.48932 19.6643C8.41123 19.6664 8.33329 19.6565 8.25819 19.6351C8.15154 19.5996 8.03889 19.5857 7.92683 19.5943C7.85449 19.5984 7.78199 19.5894 7.71289 19.5676C7.61224 19.5317 7.5052 19.5172 7.39862 19.525C7.36357 19.53 7.32515 19.5059 7.28751 19.4997C7.2088 19.4715 7.12583 19.4571 7.04224 19.4572C7.01456 19.4599 6.9867 19.4545 6.962 19.4418C6.83187 19.3793 6.678 19.3993 6.55258 19.322C6.45622 19.3428 6.38306 19.2639 6.29891 19.2572C6.11326 19.2424 5.9595 19.1265 5.77663 19.1109C5.73263 19.027 5.62736 19.0719 5.5718 19.0138C5.51149 18.9506 5.39947 18.9989 5.35173 18.9102C5.06934 18.8177 4.80174 18.685 4.55713 18.5163L4.08857 18.2125C3.81968 18.0142 3.56635 17.7956 3.33078 17.5586C3.03692 17.2552 2.78065 16.9174 2.5675 16.5527C2.34326 16.1656 2.16804 15.7522 2.04587 15.3218C1.99861 15.1906 1.96457 15.0549 1.94424 14.9169C1.93624 14.8134 1.87818 14.7172 1.87488 14.6079C1.87372 14.5699 1.82635 14.5534 1.78079 14.5519C1.70136 14.5497 1.62355 14.5289 1.55355 14.4913C1.48356 14.4537 1.42332 14.4002 1.37763 14.3352C1.33367 14.2719 1.29657 14.2041 1.26695 14.133C1.22112 14.0332 1.20075 14.015 1.10569 14.0476C1.00937 14.0784 0.90616 14.0803 0.808766 14.0532C0.678706 14.0235 0.632306 13.9219 0.580766 13.8253C0.513387 13.6712 0.47738 13.5052 0.474846 13.337C0.412266 12.6888 0.451576 12.0384 0.443416 11.389C0.442761 11.204 0.462955 11.0194 0.503616 10.8389C0.519946 10.7631 0.498926 10.6811 0.539256 10.6068C0.557586 10.573 0.559096 10.5294 0.579766 10.4978C0.612344 10.4435 0.62288 10.3788 0.609206 10.317C0.589786 10.1905 0.565256 10.0645 0.536766 9.93968C0.474726 9.66808 0.422166 9.39489 0.367216 9.12209C0.347774 8.91147 0.307442 8.70329 0.246816 8.50064C0.236974 8.46829 0.23346 8.43433 0.236466 8.40064C0.228663 8.27247 0.208836 8.14531 0.177246 8.02084L3.9787 5.89015Z" fill="#EBE9F2"/>
<path d="M0.754611 10.5429C0.710611 10.5542 0.697801 10.5862 0.682861 10.6272C0.611692 10.8531 0.579294 11.0895 0.587041 11.3262C0.578821 11.9463 0.564041 12.5669 0.609761 13.1873C0.62242 13.3668 0.647919 13.5451 0.686061 13.7209C0.698743 13.7611 0.722833 13.7968 0.755407 13.8237C0.787981 13.8505 0.82764 13.8673 0.869571 13.872C0.896929 13.873 0.924128 13.8674 0.948903 13.8558C0.973678 13.8441 0.995312 13.8267 1.012 13.805C1.02869 13.7833 1.03996 13.758 1.04485 13.731C1.04975 13.7041 1.04814 13.6764 1.04016 13.6502C1.0353 13.6282 1.03265 13.6057 1.03223 13.5832C1.02403 13.1938 1.0207 12.8045 1.00574 12.4149C0.985291 11.8824 1.02029 11.3478 1.03337 10.8142C1.0343 10.7762 1.0545 10.7389 1.0581 10.7006C1.06582 10.6624 1.06359 10.6229 1.05162 10.5858C1.02442 10.5387 0.981618 10.5025 0.930612 10.4836C0.879605 10.4647 0.823589 10.4641 0.772231 10.4821C0.760811 10.486 0.760231 10.5219 0.754661 10.5429L0.754611 10.5429ZM1.72522 12.3457C1.72076 12.2666 1.73059 12.1873 1.75422 12.1116C1.78727 12.0341 1.79996 11.9494 1.79111 11.8655C1.79374 11.7643 1.81005 11.6638 1.8396 11.5669C1.85385 11.525 1.8617 11.4812 1.86289 11.4369C1.85629 11.358 1.86935 11.2786 1.90089 11.2059C1.9526 11.076 1.91437 10.9243 2.00216 10.8044C2.00492 10.8006 2.00316 10.793 2.00255 10.7874C1.98762 10.7032 2.00147 10.6164 2.04187 10.5411C2.09737 10.4573 2.04623 10.3628 2.09764 10.2789C2.11497 10.2517 2.12159 10.2191 2.11619 10.1874C2.11079 10.1557 2.09377 10.1271 2.06844 10.1072C1.99189 10.0508 1.91428 9.99579 1.83535 9.94282C1.80064 9.92473 1.76198 9.91555 1.72284 9.9161C1.6837 9.91666 1.64532 9.92693 1.61113 9.946C1.51921 10.0206 1.44755 10.1172 1.40277 10.2268C1.38845 10.2747 1.38027 10.3242 1.37843 10.3742C1.37871 10.391 1.37607 10.4077 1.37063 10.4236C1.3118 10.5591 1.29053 10.708 1.30907 10.8546C1.29757 10.8649 1.27629 10.875 1.27607 10.8857C1.27175 11.0561 1.26629 11.2251 1.24593 11.3959C1.22811 11.609 1.22665 11.8232 1.24156 12.0365C1.22938 12.2534 1.23864 12.4709 1.2692 12.686C1.28323 12.818 1.28546 12.951 1.27584 13.0834C1.2815 13.213 1.30284 13.342 1.30761 13.4716C1.30463 13.5848 1.31648 13.6979 1.34285 13.808C1.36693 13.8873 1.37902 13.9701 1.40062 14.0503C1.44472 14.1621 1.5188 14.2597 1.61471 14.3322C1.64119 14.3581 1.71913 14.3202 1.72415 14.2796C1.72929 14.2569 1.7291 14.2333 1.7236 14.2107C1.68165 14.0593 1.66075 13.9027 1.66149 13.7456C1.64871 13.5264 1.64698 13.3067 1.65632 13.0874C1.65375 13.0533 1.65625 13.019 1.66374 12.9856C1.6943 12.8608 1.71415 12.7336 1.72306 12.6055C1.72971 12.519 1.73043 12.4323 1.72522 12.3457ZM18.7872 12.6925C18.7872 12.121 18.7869 11.5495 18.7865 10.9779C18.7893 10.916 18.7802 10.8541 18.7595 10.7956C18.7334 10.7039 18.7196 10.6092 18.7185 10.5139C18.7124 10.3352 18.6513 10.1628 18.5436 10.02C18.4751 9.93735 18.3173 9.88222 18.2446 9.93047C18.1608 9.98888 18.0825 10.0548 18.0108 10.1275C17.9934 10.1443 17.9985 10.1889 18.0009 10.2201C18.003 10.2469 18.0249 10.2737 18.0227 10.2991C18.0189 10.3949 18.0371 10.4903 18.0761 10.578C18.0875 10.6035 18.0931 10.6312 18.0923 10.6591C18.0844 10.7552 18.098 10.8518 18.1321 10.942C18.1548 11.0176 18.1654 11.0963 18.1635 11.1752C18.1633 11.2034 18.1664 11.2315 18.1727 11.259C18.2125 11.3818 18.2329 11.5101 18.2332 11.6392C18.2266 11.6845 18.2293 11.7308 18.2412 11.775C18.2922 11.913 18.3129 12.0603 18.3018 12.207C18.2969 12.3893 18.3064 12.5716 18.3303 12.7524C18.35 12.8981 18.3613 13.0448 18.3642 13.1917C18.3694 13.3618 18.3599 13.5319 18.3357 13.7003L18.3309 13.7161C18.2946 13.9015 18.2856 14.0912 18.3043 14.2791C18.3041 14.2935 18.3079 14.3077 18.3152 14.3201C18.3224 14.3325 18.3329 14.3427 18.3455 14.3496C18.3581 14.3565 18.3724 14.3599 18.3868 14.3594C18.4011 14.3588 18.4151 14.3544 18.4272 14.3466C18.5129 14.2886 18.5822 14.2094 18.6284 14.1167C18.6924 14.0039 18.7235 13.8754 18.7184 13.7457C18.7144 13.7287 18.7147 13.7109 18.7191 13.694C18.7729 13.5156 18.7962 13.3293 18.7879 13.1431C18.7846 12.9929 18.7872 12.8427 18.7872 12.6925ZM0.545971 5.16735C0.523151 5.20317 0.484401 5.2372 0.480161 5.27509C0.457161 5.48109 0.327791 5.66056 0.334471 5.87369C0.335241 5.89836 0.310231 5.92339 0.298931 5.94903C0.2848 5.97281 0.275122 5.99897 0.270371 6.02622C0.265871 6.17937 0.254371 6.33122 0.238941 6.48411C0.199051 6.87877 0.270731 7.27331 0.269091 7.66874C0.267012 7.68013 0.267405 7.69185 0.270241 7.70308C0.326835 7.89037 0.360589 8.08382 0.370771 8.27921C0.404981 8.41385 0.418391 8.55372 0.442771 8.69094C0.459882 8.73762 0.470253 8.78649 0.473571 8.8361C0.471484 8.91535 0.487561 8.99402 0.520571 9.0661C0.537793 9.10744 0.546042 9.15198 0.544771 9.19675C0.544411 9.28133 0.55756 9.36543 0.583721 9.44587C0.589881 9.47809 0.615421 9.50936 0.613521 9.53987C0.603231 9.70666 0.700741 9.853 0.699911 10.0176C0.703173 10.0507 0.709876 10.0835 0.719911 10.1152C0.721717 10.1381 0.732351 10.1593 0.749562 10.1745C0.766773 10.1897 0.78921 10.1975 0.812121 10.1964C0.885804 10.1855 0.961089 10.196 1.02896 10.2267C1.04564 10.2371 1.09524 10.2148 1.11663 10.1941C1.17247 10.14 1.15598 10.0558 1.18763 9.99209C1.21929 9.92827 1.31501 9.90628 1.30963 9.8147C1.47271 9.6804 1.47271 9.6804 1.41334 9.4906C1.39865 9.45473 1.3874 9.41754 1.37973 9.37955C1.33264 9.1998 1.3087 9.01477 1.30848 8.82896C1.30996 8.82332 1.30974 8.81737 1.30786 8.81186C1.24986 8.7104 1.29776 8.59561 1.27034 8.49399C1.24628 8.38919 1.23624 8.28166 1.24049 8.17422C1.23955 7.89744 1.23549 7.62057 1.24124 7.34391C1.24705 7.06455 1.26259 6.78538 1.27556 6.50621C1.28065 6.47338 1.28759 6.44088 1.29635 6.40884C1.32087 6.3213 1.3139 6.22794 1.27665 6.14502C1.2084 5.99936 1.15249 5.84822 1.10953 5.69321C1.07274 5.58462 1.03534 5.47312 1.00086 5.36247C0.944911 5.183 0.861911 5.01238 0.821991 4.8271C0.817063 4.80525 0.80551 4.78547 0.788911 4.77044C0.762704 4.7513 0.734963 4.73434 0.705971 4.71976C0.700209 4.74607 0.692812 4.772 0.683821 4.7974C0.671231 4.8276 0.654241 4.85599 0.638641 4.88489C0.585202 4.97009 0.55339 5.06705 0.545971 5.16735ZM18.8564 9.95327C18.8382 10.0528 18.9336 10.1099 18.9507 10.1979C18.9537 10.2137 19.0217 10.2378 19.0368 10.2267C19.1005 10.1799 19.1695 10.2009 19.2362 10.1959C19.3153 10.1899 19.3357 10.1746 19.3415 10.0942C19.3519 9.94885 19.4436 9.81723 19.4131 9.66516C19.4123 9.66116 19.4184 9.6553 19.4221 9.65098C19.4763 9.56981 19.4975 9.47103 19.4814 9.37475C19.4779 9.35237 19.4809 9.32943 19.4902 9.30875C19.5421 9.22654 19.5639 9.12882 19.5517 9.03235C19.555 8.99932 19.5632 8.96694 19.5757 8.93621C19.6367 8.74428 19.6138 8.53632 19.6882 8.34688C19.6913 8.33565 19.6914 8.32382 19.6886 8.31253C19.6804 8.21084 19.6943 8.10857 19.7295 8.01281C19.747 7.94799 19.7566 7.8813 19.7583 7.81419C19.7587 7.78535 19.7485 7.7507 19.7609 7.72867C19.8215 7.62067 19.7711 7.49256 19.8274 7.38505C19.8439 6.95565 19.8323 6.52563 19.7928 6.09774C19.7815 6.0094 19.7657 5.9217 19.7453 5.835C19.6807 5.60057 19.5967 5.37166 19.5471 5.1327C19.5416 5.10615 19.5039 5.08628 19.4811 5.0633C19.4862 4.9583 19.4024 4.88305 19.3861 4.7833C19.3819 4.75779 19.3266 4.74063 19.2948 4.71963C19.2872 4.75106 19.2804 4.78274 19.2715 4.81381C19.267 4.82969 19.258 4.84425 19.2521 4.85981C19.1895 5.02576 19.1275 5.19193 19.0645 5.35772C19.0428 5.41472 19.0152 5.46972 18.9966 5.52772C18.9424 5.69623 18.9022 5.87028 18.8347 6.03306C18.8006 6.11651 18.7843 6.20613 18.7867 6.29624C18.7884 6.59324 18.7905 6.88958 18.8172 7.18656C18.832 7.42843 18.8331 7.67093 18.8206 7.91293C18.8148 8.1578 18.8006 8.40253 18.7866 8.64711C18.7871 8.7827 18.7733 8.91797 18.7453 9.05065C18.7234 9.12907 18.7323 9.20721 18.7091 9.28232C18.6765 9.38795 18.6423 9.49332 18.6161 9.60058C18.609 9.62547 18.6091 9.6519 18.6166 9.67669C18.6241 9.70148 18.6387 9.72357 18.6584 9.7403C18.7294 9.8059 18.7909 9.88177 18.8564 9.95327ZM3.52909 6.48611C3.577 6.45618 3.61548 6.41331 3.64007 6.36245C3.66467 6.31159 3.67438 6.25482 3.66809 6.19868C3.64909 5.83827 3.66989 5.47801 3.64266 5.11592C3.61528 4.75185 3.61366 4.38357 3.59741 4.01729C3.60328 3.81179 3.59404 3.60614 3.56978 3.402C3.5362 3.2256 3.56141 3.04037 3.53408 2.85775C3.50218 2.64463 3.54342 2.42575 3.49875 2.20882C3.47175 2.07767 3.48538 1.93924 3.46575 1.80282C3.43832 1.61257 3.46559 1.41702 3.42823 1.2236C3.40688 1.07198 3.39376 0.919322 3.38891 0.766288C3.38611 0.732458 3.35136 0.716268 3.32951 0.740718C3.28064 0.795428 3.23638 0.854258 3.19004 0.911238C3.04772 1.06365 2.92807 1.23574 2.83478 1.42224C2.81664 1.43508 2.79166 1.4439 2.7814 1.46137C2.6201 1.68881 2.47585 1.92788 2.34982 2.17661C2.33132 2.22232 2.28532 2.26409 2.28473 2.3081C2.28392 2.36958 2.24412 2.3988 2.22062 2.44261C2.19527 2.4899 2.22506 2.55747 2.16597 2.59744C2.15789 2.60504 2.15163 2.61437 2.14765 2.62473C2.14366 2.63509 2.14207 2.64621 2.14297 2.65727C2.16197 2.80297 2.03597 2.9214 2.06754 3.06855C1.97625 3.17562 2.00918 3.31583 1.97068 3.4377C1.93405 3.5537 1.92779 3.6793 1.89043 3.79494C1.87272 3.8361 1.86415 3.88061 1.8653 3.92541C1.87229 4.0102 1.85776 4.09538 1.82305 4.17306C1.80211 4.21932 1.79276 4.26998 1.79581 4.32067C1.80502 4.42819 1.79139 4.53644 1.75581 4.63832C1.73326 4.71405 1.72291 4.79289 1.72516 4.87188C1.72789 4.90618 1.72623 4.94069 1.72023 4.97458C1.67717 5.11418 1.65545 5.25949 1.6558 5.40558C1.65619 5.44593 1.67007 5.49646 1.65127 5.52468C1.60044 5.60103 1.64171 5.68468 1.61862 5.75832C1.59454 5.83951 1.58362 5.92405 1.58628 6.0087C1.59942 6.15255 1.59759 6.29738 1.58082 6.44086C1.53468 6.67405 1.51323 6.91145 1.51682 7.14913C1.51944 7.54768 1.51752 7.94625 1.51756 8.34482C1.51339 8.38509 1.51404 8.42571 1.5195 8.46582C1.56468 8.63438 1.58699 8.80824 1.58583 8.98275C1.58242 9.04482 1.59444 9.10678 1.62083 9.16307C1.67583 9.27402 1.65338 9.40144 1.70893 9.51893C1.72293 9.55692 1.74584 9.59101 1.77575 9.61831C1.80565 9.64562 1.84166 9.66535 1.88077 9.67586C1.95631 9.69475 2.02766 9.72758 2.09114 9.77267C2.18567 9.84438 2.21385 9.82112 2.24767 9.70618C2.2804 9.595 2.26567 9.46881 2.3486 9.37305C2.33844 9.28734 2.36269 9.2011 2.41604 9.13326C2.42065 9.12262 2.4215 9.11073 2.41846 9.09955C2.41616 9.03155 2.43503 8.96451 2.47246 8.9077C2.48232 8.8756 2.48762 8.84227 2.48821 8.8087C2.53012 8.7072 2.55221 8.59939 2.60221 8.49942C2.65364 8.39652 2.68093 8.2818 2.72243 8.17365C2.75974 8.07639 2.78791 7.9761 2.83256 7.88091C2.85984 7.82273 2.93627 7.78105 2.90488 7.69927C2.99408 7.51457 3.0802 7.32874 3.17746 7.14756C3.28281 6.9513 3.38065 6.75129 3.50146 6.56356C3.51362 6.53889 3.52289 6.5129 3.52909 6.48611ZM17.1923 7.56029C17.1961 7.59834 17.2051 7.63569 17.219 7.67129C17.2671 7.75729 17.3036 7.84904 17.3489 7.93509C17.3982 8.02858 17.4125 8.13188 17.4624 8.22632C17.5147 8.35315 17.5542 8.48488 17.5804 8.61955C17.5826 8.62706 17.5979 8.63077 17.6071 8.63625C17.606 8.69285 17.6121 8.74936 17.6252 8.80444C17.7233 9.02282 17.7881 9.25469 17.8174 9.4923C17.8201 9.5088 17.8262 9.52456 17.8354 9.53858C17.8728 9.59567 17.8909 9.6633 17.8869 9.73147C17.885 9.74015 17.8857 9.74921 17.889 9.75746C17.8924 9.76571 17.8981 9.77277 17.9055 9.77768C17.9129 9.7826 17.9217 9.78516 17.9305 9.78502C17.9394 9.78488 17.9481 9.78205 17.9553 9.7769C18.0612 9.71655 18.1728 9.66693 18.2885 9.62877C18.3166 9.61981 18.3405 9.60097 18.3557 9.57575C18.3709 9.55052 18.3765 9.52062 18.3713 9.49161C18.3643 9.42349 18.3814 9.35505 18.4198 9.29832C18.4295 9.28471 18.4362 9.2691 18.4392 9.25262C18.443 9.10598 18.4973 8.96503 18.504 8.82249C18.514 8.61188 18.5373 8.40165 18.541 8.19165C18.5499 7.6808 18.5444 7.17004 18.5165 6.65891C18.5038 6.4257 18.4653 6.19344 18.4751 5.95891C18.4754 5.95315 18.4771 5.94611 18.4746 5.94176C18.4434 5.86243 18.4314 5.77685 18.4396 5.692C18.4327 5.60264 18.4156 5.5141 18.4065 5.42485C18.3788 5.25641 18.3666 5.08582 18.3698 4.91517C18.3705 4.89272 18.3636 4.87068 18.3503 4.85262C18.307 4.78484 18.29 4.70362 18.3023 4.62417C18.3128 4.5111 18.2936 4.39724 18.2467 4.29384C18.2366 4.26759 18.232 4.23956 18.2332 4.21148C18.239 4.13226 18.2278 4.05271 18.2004 3.97817C18.1765 3.92759 18.1645 3.87224 18.1654 3.81633C18.1689 3.6564 18.0725 3.51343 18.0921 3.35203C18.0459 3.26193 18.0211 3.1624 18.0196 3.06117C18.0039 2.9581 17.9575 2.86187 17.9495 2.75226C17.9356 2.65923 17.904 2.56972 17.8564 2.48862C17.7878 2.36279 17.7287 2.23201 17.6795 2.09738C17.6655 2.05529 17.6509 2.02505 17.6085 2.01187C17.5635 1.893 17.5019 1.78107 17.4257 1.67938C17.2844 1.45072 17.1268 1.23177 16.9693 1.01357C16.8963 0.919018 16.8181 0.828573 16.7351 0.742648C16.7309 0.736853 16.7249 0.732553 16.7181 0.730368C16.7112 0.728184 16.7039 0.728227 16.6971 0.730492C16.6903 0.732756 16.6844 0.737126 16.6802 0.74297C16.676 0.748814 16.6738 0.75583 16.6739 0.763008C16.6766 0.939738 16.6168 1.11176 16.6362 1.28984C16.6444 1.33549 16.6438 1.3823 16.6343 1.42771C16.5984 1.60983 16.5775 1.79456 16.5715 1.98008C16.5545 2.11065 16.5862 2.24877 16.5613 2.37674C16.5454 2.47697 16.5357 2.57809 16.5323 2.67952C16.5249 2.78613 16.507 2.89203 16.4997 2.99865C16.5028 3.24994 16.4929 3.50122 16.4702 3.7515C16.4362 3.95139 16.4526 4.15934 16.436 4.3644C16.4008 4.798 16.4581 5.2354 16.3977 5.67024C16.3804 5.79482 16.3982 5.92394 16.3934 6.05074C16.392 6.12426 16.4148 6.19621 16.4581 6.25562C16.5406 6.35415 16.6068 6.46528 16.6542 6.58476C16.6587 6.60155 16.6883 6.61153 16.7063 6.62466C16.8858 6.92709 17.0481 7.23947 17.1923 7.56029ZM17.0615 16.8596C17.6522 15.8994 17.9829 14.8019 18.021 13.6751C18.1118 12.2064 17.938 10.7333 17.5078 9.32611C17.1769 7.96989 16.5284 6.7117 15.6159 5.65521C15.1407 5.17434 14.5836 4.78191 13.9708 4.49628C12.9408 4.03817 11.834 3.77765 10.7078 3.72828C8.74891 3.49946 6.77433 3.99983 5.16081 5.13393C3.65669 6.53083 2.66496 8.39216 2.34451 10.4197C2.06886 11.5001 1.94298 12.6132 1.9704 13.7279C2.00024 14.8479 2.345 15.9368 2.96518 16.8699C3.78322 17.9527 4.94043 18.7303 6.2521 19.0785C7.55573 19.4199 8.90327 19.5633 10.2496 19.504C11.5074 19.5252 12.7615 19.3629 13.9726 19.0223C15.1908 18.6756 16.2611 17.9377 17.0186 16.9225L17.0615 16.8596ZM4.04471 18.2731C3.43885 17.8549 2.92676 17.3152 2.54108 16.6882C2.15541 16.0612 1.90462 15.3607 1.80471 14.6313C1.64626 14.6103 1.4966 14.5463 1.37192 14.4463C1.24724 14.3462 1.1523 14.214 1.09738 14.0639C0.96051 14.1117 0.810368 14.1041 0.679024 14.0427C0.54768 13.9813 0.445544 13.871 0.394431 13.7353C0.3031 13.4588 0.28345 13.1636 0.337321 12.8773C0.4505 11.6785 0.433357 10.4708 0.286191 9.27565C0.137411 8.40584 0.0418069 7.52776 -8.85869e-05 6.64632C-0.0394297 5.75685 0.226237 4.88062 0.752911 4.16277L1.37242 5.47843C1.46505 4.49635 1.65612 3.52607 1.94273 2.58219C2.23339 1.63291 2.80328 0.793201 3.57811 0.172518C3.77135 2.0731 3.88202 3.97967 3.91011 5.89225C4.65926 5.0303 5.59904 4.35487 6.65483 3.91956C7.71062 3.48426 8.85335 3.30108 9.9923 3.38456C13.301 3.37509 14.4828 4.23203 16.1255 5.765L16.4548 0.167618C17.2394 0.776528 17.8183 1.61147 18.1134 2.55977C18.4043 3.50249 18.598 4.47251 18.6914 5.45466L19.1166 4.45166C19.1459 4.3508 19.2111 4.26414 19.2999 4.208C19.7042 4.02074 19.9066 5.74535 19.9341 5.987C20.0087 6.73744 20.021 7.49277 19.9709 8.24525C19.9502 8.63777 19.9208 9.02976 19.8907 9.42166L19.5771 13.5054C19.5812 13.6866 19.53 13.8646 19.4304 14.0159C19.4039 14.0514 19.3701 14.0808 19.3313 14.1021C19.2924 14.1234 19.2495 14.1361 19.2053 14.1393C19.1611 14.1425 19.1167 14.1362 19.0752 14.1207C19.0337 14.1052 18.996 14.081 18.9647 14.0496C18.9064 14.2152 18.7994 14.3592 18.6577 14.4628C18.516 14.5664 18.3463 14.6248 18.1709 14.6302C18.0608 15.5034 17.7369 16.336 17.228 17.0542C16.7192 17.7723 16.0409 18.3538 15.2535 18.7471C13.6676 19.5171 11.918 19.8893 10.1559 19.8315C8.34524 19.9219 6.53987 19.5691 4.89641 18.8037C4.59922 18.6491 4.31446 18.4717 4.04471 18.2731ZM19.4806 12.0665C19.4806 11.7834 19.4841 11.5003 19.4789 11.2173C19.4825 11.0928 19.4692 10.9684 19.4393 10.8474C19.409 10.7474 19.4233 10.6304 19.3427 10.5464C19.3201 10.5228 19.2998 10.4792 19.2762 10.4776C19.2053 10.4727 19.1307 10.4506 19.0672 10.5195C19.0075 10.5843 18.9611 10.641 19.0202 10.7288C19.0282 10.7438 19.0313 10.761 19.0289 10.7778C19.0074 11.0018 19.0648 11.2214 19.0641 11.4443C19.063 11.7678 19.07 12.0914 19.0625 12.4148C19.0793 12.7354 19.0694 13.0568 19.0327 13.3758C19.0139 13.4745 19.0461 13.5804 18.9975 13.6779C18.9908 13.7002 18.9914 13.724 18.9993 13.7458C19.0528 13.8025 19.119 13.8458 19.1924 13.8722C19.2698 13.8821 19.303 13.8259 19.3413 13.7762C19.4086 13.6653 19.4421 13.5373 19.4376 13.4076C19.4516 13.2441 19.4766 13.0801 19.4792 12.9156C19.4836 12.6327 19.4804 12.3495 19.4806 12.0665Z" fill="#001664"/>
<path d="M2.88177 16.7475C2.62198 16.3585 2.42034 15.9337 2.2832 15.4864C3.0094 16.5825 4.1206 17.3661 5.39691 17.6822C5.98971 17.7896 6.6011 17.7165 7.1519 17.4725C7.7027 17.2284 8.16754 16.8246 8.48621 16.3134C8.02194 16.4258 7.53346 16.3805 7.09777 16.1846C7.6239 16.3349 8.18469 16.3096 8.6951 16.1124C9.20552 15.9152 9.63774 15.557 9.92623 15.0921C10.7565 15.5567 11.3881 16.309 11.7018 17.2072C11.8708 17.6973 11.9815 18.2775 12.4288 18.5396C12.6711 18.6522 12.9464 18.6717 13.2021 18.5945C13.4579 18.5173 13.6763 18.3488 13.8159 18.121C14.1061 17.6735 13.894 17.7148 14.0683 17.684C15.1554 17.6378 16.1908 17.2075 16.9902 16.4694C17.5217 15.7103 17.7859 14.7961 17.7414 13.8705C17.7797 12.8239 17.7364 11.776 17.6118 10.7363C17.5492 10.214 17.4663 9.69479 17.3631 9.17851C17.3115 8.92064 17.2549 8.66385 17.1932 8.40814C17.1784 8.34679 17.1624 8.2857 17.1479 8.22429C17.1337 8.16424 17.1303 8.12305 17.1722 8.18729C17.2236 8.3055 17.2597 8.4298 17.2796 8.55716C17.574 9.54611 17.797 10.5549 17.9468 11.5758C18.0964 12.5819 18.0987 13.6043 17.9537 14.611C17.933 14.891 17.8745 15.1669 17.7798 15.4312C17.4977 16.1517 16.9486 18.3913 13.2944 19.2045C11.8204 19.5143 10.3087 19.6048 8.8082 19.4732C7.49212 19.4263 6.19766 19.1243 4.99667 18.584C4.14447 18.1655 3.41567 17.5326 2.88177 16.7475Z" fill="#A4A3CA"/>
<path d="M17.6069 8.63629C17.5977 8.63081 17.5824 8.6271 17.5802 8.61959C17.5541 8.48493 17.5145 8.3532 17.4623 8.22636C17.4124 8.13192 17.398 8.02862 17.3487 7.93513C17.3034 7.84913 17.2669 7.75734 17.2189 7.67133C17.2049 7.63573 17.1959 7.59838 17.1921 7.56033C17.2204 7.59288 17.2471 7.62706 17.2782 7.65667C17.2854 7.65875 17.2929 7.65915 17.3002 7.65784C17.3075 7.65654 17.3145 7.65355 17.3205 7.64912C17.3281 7.62197 17.3314 7.59375 17.33 7.56556C17.3137 7.27469 17.3371 6.98456 17.3038 6.69151C17.2605 6.31166 17.2727 5.92551 17.2615 5.54199C17.2599 5.49006 17.2613 5.43799 17.2612 5.38606C17.2611 5.35719 17.272 5.32088 17.2586 5.30072C17.1982 5.20952 17.2391 5.10993 17.2266 5.01539C17.2051 4.92209 17.1929 4.8269 17.19 4.7312C17.2068 4.59937 17.2048 4.46581 17.184 4.33455C17.1624 4.24295 17.1817 4.15002 17.1529 4.06755C17.1292 3.98024 17.1189 3.88982 17.1225 3.79941C17.1332 3.66892 17.1222 3.53754 17.09 3.41064C17.0673 3.34753 17.0554 3.28102 17.055 3.21394C17.0694 3.01608 17.0454 2.8173 16.9843 2.62854C16.9783 2.46028 16.9546 2.29311 16.9138 2.12977C16.9141 2.11825 16.912 2.10679 16.9076 2.09615C16.9031 2.08552 16.8965 2.07596 16.888 2.06812C16.8795 2.06029 16.8695 2.05436 16.8586 2.05074C16.8476 2.04712 16.836 2.04589 16.8246 2.04713C16.7568 2.04694 16.7781 2.09913 16.7762 2.13464C16.7917 2.46652 16.78 2.79911 16.7412 3.12908C16.7663 3.49061 16.6975 3.8489 16.7052 4.21017C16.7116 4.51035 16.7064 4.81079 16.7063 5.11111C16.7171 5.17358 16.7153 5.23758 16.701 5.29934C16.6694 5.36563 16.6971 5.41471 16.7055 5.47146C16.7069 5.48146 16.6991 5.49246 16.6972 5.50332C16.6852 5.552 16.6771 5.60155 16.673 5.6515C16.6702 5.84782 16.6731 6.04422 16.6711 6.24057C16.653 6.32507 16.6529 6.41244 16.6707 6.49699C16.6851 6.5388 16.6968 6.58144 16.706 6.62468C16.688 6.61155 16.6584 6.60157 16.6538 6.58478C16.6065 6.4653 16.5403 6.35418 16.4578 6.25564C16.4144 6.19623 16.3917 6.12428 16.3931 6.05076C16.3979 5.92396 16.3801 5.79484 16.3974 5.67026C16.4578 5.23547 16.4005 4.79802 16.4356 4.36442C16.4523 4.15936 16.4359 3.95142 16.4699 3.75152C16.4926 3.50124 16.5025 3.24996 16.4994 2.99867C16.5067 2.89205 16.5246 2.78615 16.532 2.67954C16.5354 2.57811 16.5451 2.47699 16.561 2.37676C16.5859 2.24876 16.5542 2.11067 16.5712 1.9801C16.5771 1.79458 16.5981 1.60985 16.634 1.42773C16.6435 1.38233 16.6441 1.33552 16.6359 1.28986C16.6165 1.11178 16.6763 0.939763 16.6736 0.763033C16.6735 0.755851 16.6757 0.748828 16.6799 0.74298C16.6841 0.737133 16.69 0.732762 16.6968 0.730499C16.7036 0.728237 16.711 0.7282 16.7178 0.730393C16.7246 0.732587 16.7306 0.736898 16.7348 0.742703C16.8178 0.828629 16.896 0.919073 16.969 1.01362C17.1265 1.23182 17.2841 1.45077 17.4254 1.67943C17.5017 1.78113 17.5632 1.89306 17.6082 2.01192C17.6083 2.035 17.5995 2.06378 17.61 2.08012C17.6371 2.13635 17.6488 2.19869 17.6442 2.2609C17.6581 2.326 17.6683 2.39182 17.6747 2.45805C17.6735 2.5537 17.6912 2.64865 17.7269 2.73741C17.7388 2.76253 17.7451 2.78993 17.7453 2.81771C17.7388 2.91372 17.752 3.01006 17.7843 3.10071C17.8014 3.1772 17.8129 3.25482 17.8188 3.33297C17.846 3.50348 17.8799 3.67265 17.9035 3.8442C17.9328 3.95783 17.9503 4.07417 17.9557 4.19138C17.9507 4.22504 17.9548 4.25942 17.9676 4.29095C18.0177 4.39919 18.0374 4.51901 18.0247 4.63759C18.023 4.67156 18.026 4.7056 18.0335 4.73876C18.0752 4.86695 18.0957 5.00107 18.0942 5.13585C18.0893 5.17562 18.0916 5.21594 18.1008 5.25492C18.1474 5.39369 18.1686 5.53971 18.1635 5.686C18.1565 5.73737 18.1581 5.78953 18.1681 5.84037C18.206 5.96903 18.2264 6.10217 18.2288 6.23624C18.2387 6.58793 18.2322 6.94007 18.2321 7.29204C18.2362 7.32646 18.2355 7.36127 18.2301 7.39549C18.1824 7.56324 18.1597 7.73711 18.1628 7.91149C18.1719 7.99177 18.1705 8.0729 18.1586 8.15281C18.1265 8.28853 18.1053 8.42661 18.0952 8.56571C18.0837 8.67191 18.0532 8.73298 17.9494 8.73439C17.9099 8.73333 17.8706 8.74125 17.8345 8.75756C17.7984 8.77388 17.7665 8.79817 17.7412 8.82859C17.7185 8.85359 17.6892 8.84991 17.6788 8.8105C17.6737 8.74634 17.6485 8.6854 17.6069 8.63629Z" fill="#0CA1FC"/>
<path d="M2.83472 1.42226C2.92801 1.23577 3.04766 1.06367 3.18998 0.911264C3.23632 0.854264 3.28058 0.795454 3.32945 0.740744C3.3513 0.716294 3.38605 0.732484 3.38882 0.766314C3.39366 0.919355 3.40678 1.07202 3.42813 1.22364C3.46549 1.41706 3.43822 1.61264 3.46565 1.80286C3.48532 1.9393 3.47165 2.07773 3.49865 2.20886C3.54332 2.42581 3.50208 2.64467 3.53398 2.85779C3.56131 3.04041 3.5361 3.22564 3.56968 3.40204C3.59393 3.60618 3.60315 3.81181 3.59727 4.01729C3.6135 4.38357 3.61514 4.75185 3.64252 5.11592C3.66975 5.47801 3.64895 5.83827 3.66795 6.19868C3.67424 6.25483 3.66453 6.3116 3.63993 6.36246C3.61534 6.41332 3.57686 6.45618 3.52895 6.48611L3.52859 6.416C3.59024 6.40009 3.5619 6.35 3.56197 6.31614C3.56361 5.54414 3.56392 4.77218 3.5629 4.00024C3.5629 3.96638 3.57096 3.92284 3.55371 3.90033C3.49709 3.80097 3.47595 3.6853 3.49378 3.57233C3.50764 3.43454 3.50533 3.29559 3.48691 3.15833C3.45954 2.98378 3.45214 2.80667 3.46485 2.63044C3.47037 2.59663 3.46832 2.56201 3.45885 2.52908C3.42702 2.444 3.41522 2.35272 3.42438 2.26233C3.43128 2.21675 3.43013 2.17031 3.42098 2.12512C3.4009 2.07585 3.46981 2.05223 3.4377 1.99976C3.4167 1.96539 3.42926 1.91122 3.42401 1.86625C3.39694 1.72122 3.3851 1.57375 3.3887 1.42625C3.38902 1.41497 3.38488 1.40402 3.37717 1.39578C3.36009 1.37911 3.34807 1.33946 3.31368 1.37709C3.2833 1.41032 3.24809 1.43609 3.24957 1.49174C3.26362 1.62193 3.2524 1.7536 3.21652 1.87953C3.23018 2.20018 3.1561 2.51764 3.18161 2.83873C3.18207 2.84446 3.18107 2.85034 3.18175 2.85603C3.19197 2.96907 3.17845 3.083 3.14207 3.19051C3.12321 3.24915 3.11317 3.31026 3.11227 3.37184C3.12178 3.47361 3.11025 3.57624 3.0784 3.67336C3.05866 3.76637 3.04502 3.86058 3.03756 3.95536C2.98321 4.13766 2.97698 4.32814 2.92212 4.50903C2.91158 4.54082 2.90592 4.57403 2.90534 4.60751C2.90808 4.67515 2.89618 4.74259 2.87046 4.8052C2.84996 4.863 2.83679 4.92313 2.83126 4.9842C2.79058 5.14129 2.76612 5.30213 2.75826 5.4642C2.75866 5.47332 2.74251 5.48215 2.73977 5.49261C2.7198 5.55017 2.70587 5.60966 2.69821 5.6701C2.69093 5.83444 2.687 5.99758 2.66612 6.16229C2.6242 6.49297 2.71054 6.82339 2.69631 7.15559C2.69523 7.16129 2.69542 7.16715 2.69688 7.17276C2.74495 7.33233 2.7791 7.49576 2.79896 7.66121C2.82117 7.73869 2.81536 7.74036 2.90465 7.69928C2.93604 7.78106 2.85965 7.82274 2.83233 7.88092C2.78768 7.97611 2.75951 8.0764 2.7222 8.17366C2.6807 8.28181 2.65341 8.39653 2.60198 8.49943C2.55198 8.59943 2.52998 8.70721 2.48798 8.80871C2.46895 8.82024 2.45067 8.83296 2.43326 8.84681C2.32738 8.94181 2.28462 8.93717 2.19739 8.81355C2.11649 8.72029 2.07121 8.6014 2.06958 8.47795C2.07025 8.42771 2.05841 8.37808 2.03512 8.33355C2.00817 8.27107 1.99689 8.20295 2.00227 8.13511C2.0151 8.00294 2.01263 7.86972 1.99491 7.73811C1.97945 7.64355 1.97032 7.54806 1.96757 7.45228C1.95729 7.35164 1.9353 7.25128 1.93486 7.15072C1.93186 6.47465 1.93329 5.79856 1.93332 5.12248C1.93332 5.08781 1.91993 5.04298 1.93655 5.02034C1.99155 4.94534 1.94925 4.86158 1.97001 4.78687C1.99457 4.70586 2.00574 4.62137 2.00307 4.53675C1.98786 4.41812 2.00708 4.29761 2.05845 4.18959C2.06775 4.16918 2.07215 4.14689 2.07132 4.12447C2.05293 4.0111 2.07548 3.89488 2.13494 3.79661C2.14669 3.78214 2.14228 3.75221 2.14076 3.72975C2.13224 3.65029 2.15017 3.57024 2.19177 3.502C2.20428 3.47095 2.21065 3.43776 2.21052 3.40428C2.21531 3.37087 2.20728 3.32983 2.22395 3.3049C2.30803 3.17917 2.26611 3.01809 2.34746 2.8909C2.38327 2.83461 2.40633 2.77116 2.41502 2.705C2.41335 2.63732 2.42977 2.57041 2.46259 2.51118C2.50734 2.45139 2.46375 2.35768 2.54552 2.3128C2.55759 2.30617 2.55467 2.27093 2.55734 2.2488C2.56072 2.22074 2.55186 2.18046 2.56734 2.16656C2.62001 2.11914 2.60805 2.04656 2.63661 2.00106C2.66391 1.9412 2.68801 1.87994 2.70881 1.81752C2.75981 1.68882 2.80188 1.55675 2.83472 1.42226Z" fill="#0CA1FC"/>
<path d="M18.8563 9.95327C18.7908 9.88177 18.7294 9.8059 18.6584 9.74034C18.6386 9.7236 18.6241 9.70151 18.6166 9.67672C18.6091 9.65193 18.6089 9.6255 18.6161 9.60062C18.6422 9.49335 18.6765 9.38799 18.7091 9.28236C18.7323 9.20725 18.7234 9.12911 18.7453 9.05069C18.7732 8.91801 18.7871 8.78274 18.7865 8.64715C18.8006 8.40257 18.8147 8.15784 18.8205 7.91297C18.8331 7.67097 18.8319 7.42846 18.8172 7.1866C18.7904 6.8896 18.7884 6.59331 18.7866 6.29628C18.7842 6.20617 18.8006 6.11655 18.8346 6.0331C18.9022 5.87032 18.9423 5.69627 18.9965 5.52776C19.0152 5.46982 19.0427 5.41481 19.0644 5.35776C19.1274 5.19197 19.1894 5.02576 19.2521 4.85985C19.2579 4.84428 19.2669 4.82972 19.2715 4.81385C19.2804 4.78278 19.2871 4.7511 19.2948 4.71967C19.3266 4.74067 19.3819 4.75783 19.3861 4.78334C19.4024 4.88306 19.4862 4.95834 19.4811 5.06334C19.484 5.09677 19.4888 5.13002 19.4954 5.16293C19.5336 5.27262 19.5622 5.3854 19.581 5.5C19.5963 5.70977 19.5947 5.92009 19.6139 6.13088C19.6373 6.38869 19.6199 6.65026 19.619 6.9102C19.6188 6.94988 19.6157 6.9895 19.6098 7.02875C19.5832 7.1542 19.5646 7.28125 19.5544 7.4091C19.5446 7.51522 19.5279 7.62058 19.5042 7.72449C19.4994 7.75717 19.4789 7.79023 19.4827 7.82097C19.483 7.90542 19.4676 7.9892 19.4374 8.06808C19.4246 8.09861 19.4166 8.13089 19.4135 8.16384C19.4151 8.2261 19.4007 8.28774 19.3717 8.34284C19.3556 8.37184 19.3462 8.40408 19.3443 8.4372C19.3476 8.49941 19.3346 8.56141 19.3066 8.61707C19.2541 8.73474 19.2908 8.87612 19.2054 8.98542C19.1941 8.99985 19.2071 9.03114 19.2026 9.05342C19.194 9.09662 19.1806 9.13886 19.1698 9.18164C19.1576 9.22997 19.1462 9.27854 19.134 9.32687C19.1101 9.44612 19.0787 9.56375 19.0399 9.67905C19.0088 9.74531 18.9934 9.81786 18.995 9.89105C18.9982 9.9375 19.0027 9.99473 18.9499 10.008C18.9248 10.0142 18.8878 9.973 18.8563 9.95327Z" fill="#0CA1FC"/>
<path d="M2.83459 1.42226C2.80174 1.55674 2.75966 1.6888 2.70864 1.8175C2.68784 1.87991 2.66374 1.94118 2.63644 2.00104C2.60788 2.04651 2.61984 2.11912 2.56717 2.16654C2.55173 2.18044 2.56059 2.22072 2.55717 2.24878C2.5545 2.27094 2.55742 2.30618 2.54535 2.31278C2.46358 2.35766 2.50717 2.45137 2.46242 2.51116C2.4296 2.57038 2.41318 2.63729 2.41485 2.70498C2.40616 2.77111 2.3831 2.83453 2.34729 2.89081C2.26594 3.01801 2.30786 3.17909 2.22378 3.30481C2.20711 3.32974 2.21514 3.37081 2.21035 3.40419C2.21048 3.43767 2.20411 3.47085 2.1916 3.50191C2.15004 3.57017 2.13216 3.65024 2.14072 3.7297C2.14224 3.75216 2.14665 3.78209 2.1349 3.79656C2.07544 3.89482 2.05289 4.01104 2.07128 4.12442C2.07212 4.14683 2.06771 4.16913 2.05841 4.18954C2.00705 4.29755 1.98782 4.41806 2.00303 4.5367C2.0057 4.62131 1.99454 4.7058 1.96997 4.78682C1.94921 4.86153 1.99154 4.94533 1.93651 5.02029C1.91989 5.04293 1.93329 5.08776 1.93328 5.12243C1.93328 5.79851 1.93185 6.4746 1.93482 7.15067C1.93526 7.25123 1.95725 7.35159 1.96753 7.45223C1.97028 7.54801 1.97942 7.64349 1.99487 7.73806C2.01259 7.86967 2.01506 8.00288 2.00223 8.13506C1.99685 8.20289 2.00813 8.27101 2.03508 8.3335C2.05837 8.37803 2.07021 8.42765 2.06954 8.4779C2.07117 8.60135 2.11645 8.72024 2.19735 8.8135C2.28458 8.93712 2.32735 8.94172 2.43322 8.84676C2.45064 8.83291 2.46891 8.82018 2.48794 8.80866C2.48735 8.84223 2.48205 8.87555 2.47219 8.90766C2.43476 8.96447 2.41589 9.03151 2.41819 9.09951C2.42123 9.11069 2.42038 9.12258 2.41577 9.13322C2.36242 9.20106 2.33817 9.2873 2.34833 9.37301C2.26533 9.46877 2.28013 9.59496 2.2474 9.70614C2.21358 9.82108 2.1854 9.84434 2.09087 9.77263C2.02739 9.72754 1.95604 9.69471 1.8805 9.67582C1.84142 9.66532 1.80542 9.64559 1.77553 9.61831C1.74564 9.59102 1.72273 9.55697 1.70872 9.519C1.65317 9.40151 1.67566 9.27409 1.62062 9.16314C1.59423 9.10685 1.58221 9.04489 1.58562 8.98282C1.58678 8.80831 1.56447 8.63444 1.51929 8.46589C1.51384 8.42577 1.51319 8.38515 1.51735 8.34489C1.51735 7.94632 1.51923 7.54775 1.51661 7.1492C1.51302 6.91151 1.53447 6.67411 1.58061 6.44093C1.59738 6.29745 1.59921 6.15262 1.58607 6.00877C1.58341 5.92411 1.59433 5.83958 1.61841 5.75839C1.6415 5.68475 1.60023 5.6011 1.65106 5.52475C1.66986 5.49653 1.65598 5.446 1.65559 5.40565C1.65524 5.25955 1.67696 5.11425 1.72002 4.97465C1.72603 4.94076 1.72768 4.90625 1.72495 4.87195C1.7227 4.79296 1.73305 4.71412 1.7556 4.63839C1.79118 4.53651 1.80481 4.42826 1.7956 4.32074C1.79256 4.27005 1.80191 4.21939 1.82284 4.17313C1.85755 4.09545 1.87209 4.01027 1.86509 3.92548C1.86396 3.88067 1.87255 3.83616 1.89027 3.795C1.92763 3.67936 1.93389 3.55373 1.97052 3.43776C2.00902 3.31589 1.97609 3.17568 2.06738 3.06861C2.03585 2.92146 2.16185 2.80303 2.14281 2.65733C2.14191 2.64627 2.14351 2.63515 2.14749 2.62479C2.15147 2.61443 2.15773 2.6051 2.16581 2.5975C2.2249 2.5575 2.19511 2.48996 2.22046 2.44267C2.24396 2.39886 2.28376 2.36967 2.28457 2.30816C2.28516 2.26416 2.33116 2.22238 2.34966 2.17667C2.47569 1.92794 2.61995 1.68887 2.78124 1.46143C2.79147 1.44392 2.81645 1.4351 2.83459 1.42226Z" fill="#0066C8"/>
<path d="M17.607 8.6363C17.6486 8.68538 17.6738 8.74629 17.679 8.81045C17.6893 8.84986 17.7187 8.85353 17.7414 8.82854C17.7667 8.79811 17.7986 8.77383 17.8346 8.75751C17.8707 8.7412 17.91 8.73327 17.9496 8.73434C18.0534 8.73293 18.0838 8.67186 18.0954 8.56566C18.1054 8.42656 18.1266 8.28848 18.1587 8.15276C18.1707 8.07285 18.1721 7.99172 18.1629 7.91144C18.1598 7.73706 18.1825 7.56319 18.2303 7.39544C18.2357 7.36121 18.2364 7.3264 18.2323 7.29199C18.2323 6.93999 18.2388 6.58788 18.229 6.23619C18.2265 6.10212 18.2061 5.96898 18.1683 5.84032C18.1582 5.78948 18.1566 5.73731 18.1636 5.68595C18.1687 5.53966 18.1475 5.39364 18.1009 5.25487C18.0917 5.21588 18.0895 5.17557 18.0943 5.1358C18.0958 5.00102 18.0753 4.8669 18.0337 4.73871C18.0261 4.70555 18.0232 4.67151 18.0248 4.63754C18.0376 4.51896 18.0179 4.39914 17.9678 4.2909C17.955 4.25937 17.9509 4.22499 17.9559 4.19133C17.9504 4.07412 17.9329 3.95778 17.9036 3.84415C17.8801 3.6726 17.8462 3.50343 17.8189 3.33292C17.813 3.25477 17.8015 3.17715 17.7845 3.10066C17.7522 3.01 17.7389 2.91367 17.7455 2.81766C17.7452 2.78988 17.7389 2.76248 17.727 2.73736C17.6913 2.6486 17.6736 2.55365 17.6749 2.458C17.6684 2.39176 17.6582 2.32594 17.6443 2.26085C17.649 2.19864 17.6372 2.1363 17.6102 2.08007C17.5996 2.06373 17.6084 2.03495 17.6083 2.01187C17.6507 2.02505 17.6654 2.05529 17.6794 2.09738C17.7285 2.23202 17.7876 2.36279 17.8563 2.48862C17.9039 2.56973 17.9355 2.65923 17.9494 2.75226C17.9574 2.86187 18.0038 2.9581 18.0194 3.06117C18.0209 3.16241 18.0457 3.26193 18.0919 3.35203C18.0723 3.51343 18.1687 3.6564 18.1652 3.81633C18.1644 3.87224 18.1764 3.9276 18.2002 3.97817C18.2277 4.05271 18.2389 4.13226 18.2331 4.21148C18.2319 4.23957 18.2365 4.26759 18.2466 4.29384C18.2935 4.39724 18.3127 4.5111 18.3021 4.62417C18.2898 4.70362 18.3069 4.78484 18.3501 4.85262C18.3635 4.87069 18.3704 4.89272 18.3697 4.91517C18.3664 5.08582 18.3787 5.25642 18.4063 5.42485C18.4155 5.5141 18.4325 5.60264 18.4395 5.692C18.4313 5.77685 18.4433 5.86243 18.4744 5.94176C18.477 5.94611 18.4752 5.95315 18.475 5.95891C18.4651 6.19343 18.5037 6.42569 18.5164 6.65891C18.5442 7.17004 18.5498 7.6808 18.5409 8.19165C18.5372 8.40165 18.5139 8.61188 18.5039 8.82249C18.4971 8.96503 18.4428 9.10598 18.439 9.25262C18.436 9.2691 18.4294 9.28471 18.4196 9.29832C18.3813 9.35505 18.3641 9.42349 18.3712 9.49161C18.3764 9.52063 18.3708 9.55052 18.3556 9.57575C18.3403 9.60098 18.3165 9.61982 18.2884 9.62877C18.1727 9.66693 18.061 9.71655 17.9552 9.7769C17.9479 9.78205 17.9393 9.78488 17.9304 9.78503C17.9215 9.78517 17.9128 9.78261 17.9054 9.77769C17.898 9.77277 17.8922 9.76572 17.8889 9.75747C17.8856 9.74922 17.8848 9.74015 17.8868 9.73147C17.8907 9.66331 17.8727 9.59567 17.8352 9.53858C17.8261 9.52456 17.82 9.5088 17.8173 9.4923C17.788 9.25469 17.7232 9.02282 17.6251 8.80444C17.612 8.74938 17.6059 8.69289 17.607 8.6363Z" fill="#0066C8"/>
<path d="M0.546163 5.16735C0.55359 5.06705 0.585413 4.97008 0.638863 4.88489C0.654463 4.85599 0.671453 4.8276 0.684043 4.7974C0.693033 4.772 0.700431 4.74607 0.706193 4.71976C0.735174 4.73435 0.762905 4.7513 0.789103 4.77044C0.805691 4.78547 0.817233 4.80526 0.822153 4.8271C0.862053 5.01238 0.945083 5.18301 1.00099 5.36243C1.03547 5.47308 1.07287 5.58458 1.10966 5.69317C1.15263 5.84818 1.20853 5.99932 1.27678 6.14498C1.31403 6.2279 1.321 6.32126 1.29648 6.4088C1.28772 6.44084 1.28078 6.47334 1.27569 6.50617C1.26269 6.78534 1.24718 7.06451 1.24137 7.34387C1.23561 7.62053 1.23968 7.8974 1.24062 8.17418C1.23638 8.28164 1.24643 8.38918 1.2705 8.494C1.29792 8.59562 1.25005 8.71041 1.30802 8.81187C1.3099 8.81738 1.31012 8.82333 1.30864 8.82897C1.30886 9.01478 1.33281 9.19981 1.37989 9.37956C1.38756 9.41755 1.39881 9.45474 1.4135 9.49061C1.47287 9.68041 1.47287 9.68041 1.30979 9.81471L1.1911 9.90984C1.18402 9.863 1.17937 9.8156 1.16876 9.76958C1.16157 9.74813 1.15037 9.72824 1.13576 9.71096C1.10569 9.66896 1.09353 9.61674 1.10195 9.56578C1.10933 9.48122 1.09532 9.39616 1.06119 9.31845C1.04228 9.27789 1.0325 9.23367 1.03255 9.18892C1.03489 9.12705 1.02343 9.06544 0.999003 9.00856C0.977563 8.93922 0.963916 8.86771 0.958313 8.79536C0.920546 8.64396 0.895162 8.48974 0.882413 8.33423C0.878924 8.31229 0.870715 8.29137 0.858353 8.27291C0.830168 8.21121 0.818089 8.14337 0.823243 8.07574C0.824483 8.04774 0.829693 8.01122 0.815153 7.99259C0.759389 7.89922 0.737709 7.78941 0.753803 7.68186C0.754682 7.65389 0.749758 7.62604 0.739343 7.60007C0.695986 7.50192 0.676931 7.39477 0.683793 7.2877C0.680945 7.24895 0.674245 7.21059 0.663793 7.17318C0.634709 7.06487 0.617807 6.95365 0.613403 6.8416C0.619148 6.72871 0.61041 6.61556 0.587403 6.5049C0.558176 6.33747 0.54498 6.16765 0.547993 5.99772C0.542313 5.721 0.546273 5.44415 0.546163 5.16735Z" fill="#0CA1FC"/>
<path d="M16.7063 6.62472C16.6972 6.58147 16.6854 6.53882 16.6711 6.497C16.6532 6.41242 16.6533 6.32501 16.6714 6.24046C16.6734 6.04411 16.6704 5.84772 16.6732 5.6514C16.6773 5.60144 16.6854 5.55189 16.6974 5.50322C16.6993 5.49238 16.7072 5.48133 16.7057 5.47136C16.6973 5.41461 16.6696 5.36553 16.7013 5.29924C16.7155 5.23747 16.7173 5.17348 16.7065 5.11101C16.7066 4.81069 16.7118 4.51025 16.7054 4.21007C16.6977 3.8488 16.7666 3.4905 16.7415 3.12897C16.7802 2.799 16.7919 2.46642 16.7765 2.13454C16.7783 2.09904 16.757 2.04683 16.8248 2.04702C16.8363 2.04578 16.8479 2.04701 16.8588 2.05063C16.8697 2.05425 16.8798 2.06018 16.8882 2.06802C16.8967 2.07585 16.9034 2.08541 16.9078 2.09604C16.9122 2.10668 16.9144 2.11814 16.914 2.12966C16.9549 2.293 16.9785 2.46017 16.9845 2.62843C17.0456 2.81719 17.0696 3.01597 17.0553 3.21384C17.0557 3.28091 17.0675 3.34742 17.0902 3.41054C17.1225 3.53743 17.1335 3.66881 17.1227 3.7993C17.1192 3.88971 17.1294 3.98013 17.1531 4.06745C17.1819 4.14996 17.1627 4.24289 17.1842 4.33445C17.205 4.46571 17.2071 4.59926 17.1903 4.7311C17.1931 4.82679 17.2054 4.92198 17.2268 5.01528C17.2394 5.10982 17.1985 5.20941 17.2588 5.30062C17.2722 5.32078 17.2613 5.35708 17.2614 5.38596C17.2615 5.43796 17.2602 5.48996 17.2617 5.54189C17.2729 5.92537 17.2607 6.31155 17.304 6.6914C17.3374 6.98447 17.3139 7.27458 17.3302 7.56545C17.3316 7.59364 17.3284 7.62186 17.3207 7.64901C17.3147 7.65344 17.3078 7.65643 17.3004 7.65774C17.2931 7.65905 17.2856 7.65864 17.2784 7.65656C17.2474 7.62695 17.2206 7.59277 17.1924 7.56022C17.0482 7.23945 16.8859 6.92712 16.7063 6.62472Z" fill="#A3CEF2"/>
<path d="M0.546092 5.16734C0.546202 5.44414 0.542242 5.72102 0.547912 5.99771C0.544899 6.16764 0.558095 6.33747 0.587322 6.50489C0.610329 6.61556 0.619067 6.72871 0.613322 6.84159C0.617713 6.95365 0.634601 7.06486 0.663672 7.17317C0.674124 7.21059 0.680823 7.24895 0.683672 7.28769C0.676809 7.39477 0.695864 7.50192 0.739222 7.60006C0.749637 7.62604 0.75456 7.65388 0.753682 7.68185C0.737588 7.78941 0.759268 7.89922 0.815032 7.99258C0.829572 8.01121 0.824362 8.0477 0.823122 8.07573C0.817967 8.14337 0.830047 8.21121 0.858232 8.2729C0.870594 8.29136 0.878803 8.31228 0.882292 8.33422C0.895041 8.48974 0.920424 8.64396 0.958192 8.79535C0.963794 8.86771 0.977442 8.93922 0.998882 9.00855C1.0233 9.06544 1.03475 9.12705 1.0324 9.18891C1.03235 9.23367 1.04212 9.27788 1.06104 9.31844C1.09517 9.39616 1.10918 9.48122 1.1018 9.56577C1.09338 9.61673 1.10554 9.66896 1.13561 9.71095C1.15022 9.72823 1.16142 9.74812 1.16861 9.76957C1.17922 9.81557 1.18387 9.86299 1.19095 9.90983L1.30966 9.81465C1.31502 9.90623 1.2193 9.92822 1.18766 9.99204C1.15604 10.0558 1.17253 10.14 1.11666 10.194C1.09527 10.2148 1.04566 10.237 1.02899 10.2266C0.961119 10.1959 0.885834 10.1854 0.812152 10.1964C0.789261 10.1975 0.766853 10.1896 0.749663 10.1744C0.732473 10.1593 0.721847 10.138 0.720032 10.1152C0.709996 10.0834 0.703293 10.0507 0.700032 10.0176C0.700862 9.85299 0.603352 9.70665 0.613712 9.53989C0.615612 9.50934 0.590072 9.47807 0.583912 9.44589C0.55775 9.36546 0.544601 9.28136 0.544962 9.19677C0.546232 9.152 0.537984 9.10747 0.520762 9.06612C0.487751 8.99405 0.471674 8.91537 0.473762 8.83612C0.470443 8.78652 0.460072 8.73764 0.442962 8.69096C0.418542 8.55374 0.405132 8.41387 0.370962 8.27923C0.36078 8.08384 0.327025 7.8904 0.270432 7.7031C0.267595 7.69187 0.267203 7.68016 0.269282 7.66876C0.270922 7.27333 0.199282 6.87876 0.239132 6.48413C0.254582 6.33121 0.266062 6.17939 0.270562 6.02624C0.275278 5.99898 0.284925 5.9728 0.299032 5.94899C0.310332 5.92335 0.335342 5.89832 0.334572 5.87365C0.327892 5.66052 0.457222 5.48102 0.480262 5.27505C0.484522 5.23719 0.523272 5.20316 0.546092 5.16734Z" fill="#0066C8"/>
<path d="M16.221 6.45066C16.2109 6.44632 16.1976 6.44466 16.191 6.43723C15.9706 6.22406 15.7354 6.02667 15.4872 5.84652C15.3141 5.71383 15.1332 5.59161 14.9454 5.48052C14.8471 5.40638 14.7444 5.33809 14.6381 5.276C14.4561 5.1836 14.2786 5.08211 14.0981 4.98732C13.9381 4.90327 13.7705 4.83226 13.6159 4.7356C13.5095 4.6691 13.3836 4.63481 13.2709 4.57713C13.1783 4.52972 13.0675 4.52457 12.9872 4.45094C12.8892 4.47036 12.8276 4.38384 12.7396 4.36413C12.6555 4.34154 12.574 4.31003 12.4966 4.27013C12.469 4.25274 12.4385 4.24031 12.4066 4.23343C12.359 4.22292 12.3125 4.20785 12.2677 4.18843C12.1657 4.1638 12.0849 4.08435 11.9712 4.08958C11.8946 4.0931 11.8367 4.00539 11.7502 4.02285C11.64 3.94285 11.4953 3.95795 11.3795 3.88345C11.3055 3.84544 11.2245 3.82315 11.1415 3.81797C11.075 3.80857 11.0094 3.79718 10.9435 3.78573C10.7926 3.76129 10.6399 3.74861 10.487 3.74781C10.1696 3.74261 9.85217 3.74747 9.53477 3.74581C9.34277 3.7688 9.14958 3.78053 8.95621 3.78092C8.85415 3.83092 8.74153 3.79733 8.63821 3.81887C8.45272 3.85751 8.26405 3.87625 8.07802 3.91051C7.88096 3.9468 7.68508 3.9929 7.4882 4.02991C7.28419 4.08044 7.08334 4.14293 6.88668 4.21706C6.85395 4.22446 6.82063 4.229 6.78711 4.23061C6.87567 4.16541 6.97687 4.11943 7.08423 4.09561C7.19753 4.04957 7.31526 4.0153 7.43556 3.99332C7.6173 3.96219 7.79356 3.9085 7.97579 3.87732C8.14517 3.84832 8.31722 3.82686 8.48579 3.78583C8.61931 3.76059 8.75484 3.74747 8.89072 3.74665C9.16368 3.71871 9.43802 3.70661 9.71238 3.71042C9.87191 3.66265 10.0405 3.65329 10.2043 3.6831C10.398 3.70462 10.5919 3.69498 10.7837 3.7151C11.0024 3.7381 11.2225 3.7561 11.4391 3.7878C11.6354 3.78908 11.8302 3.82129 12.0165 3.88324C12.1839 3.86245 12.3322 3.95924 12.4987 3.95904C12.5866 3.97196 12.6725 3.99538 12.7547 4.02879C12.9421 4.0769 13.1197 4.163 13.3074 4.20927C13.515 4.26047 13.6932 4.37671 13.8933 4.4432C14.0053 4.48938 14.1139 4.54327 14.2184 4.60448C14.4795 4.73426 14.7051 4.92022 14.9537 5.06994C15.0294 5.1201 15.1003 5.17731 15.1653 5.24081C15.3141 5.37475 15.47 5.50276 15.6052 5.64955C15.8294 5.88231 16.034 6.13326 16.2167 6.39982C16.2249 6.41238 16.2199 6.43353 16.221 6.45066Z" fill="#A4A3CA"/>
<path d="M18.3021 12.207C18.3131 12.0603 18.2924 11.913 18.2414 11.775C18.2295 11.7307 18.2268 11.6845 18.2334 11.6392C18.2331 11.5101 18.2127 11.3818 18.173 11.259C18.1666 11.2315 18.1635 11.2034 18.1637 11.1751C18.1656 11.0963 18.155 11.0176 18.1323 10.942C18.0982 10.8518 18.0846 10.7552 18.0925 10.6591C18.0933 10.6312 18.0878 10.6034 18.0763 10.578C18.0374 10.4903 18.0191 10.3949 18.0229 10.2991C18.0252 10.2737 18.0033 10.2469 18.0012 10.2201C17.9987 10.1888 17.9936 10.1443 18.011 10.1274C18.0828 10.0548 18.161 9.98886 18.2448 9.93045C18.3175 9.8822 18.4753 9.93733 18.5438 10.02C18.6515 10.1628 18.7126 10.3352 18.7187 10.5139C18.7199 10.6092 18.7337 10.7039 18.7597 10.7956C18.7804 10.8541 18.7895 10.916 18.7867 10.9779C18.7879 11.5494 18.7881 12.1209 18.7874 12.6924C18.7395 12.7457 18.6948 12.8024 18.6429 12.8514C18.5899 12.9015 18.5296 12.9439 18.4728 12.9902C18.4595 13.0011 18.4486 13.015 18.4352 13.0258C18.4076 13.0481 18.3761 13.0381 18.3731 13.0054C18.3699 12.9767 18.3695 12.9478 18.3718 12.9191C18.371 12.6915 18.3588 12.4642 18.3352 12.2379C18.3351 12.2276 18.3136 12.2173 18.3021 12.207Z" fill="#464796"/>
<path d="M2.54536 9.81927C2.59788 10.2184 2.58007 10.6236 2.49272 11.0166C2.46416 11.4472 2.43865 11.878 2.41618 12.309C2.37125 13.1709 2.26878 15.3215 2.21118 15.2483C1.92898 14.3637 1.85296 13.4263 1.98896 12.5079C2.03851 12.0469 2.07967 11.5847 2.16838 11.1296C2.23506 10.7878 2.29792 10.054 2.54536 9.81927Z" fill="#A4A3CA"/>
<path d="M1.30924 10.8545C1.2907 10.708 1.31196 10.5591 1.3708 10.4236C1.37624 10.4077 1.37888 10.391 1.3786 10.3741C1.38044 10.3242 1.38862 10.2747 1.40294 10.2268C1.44772 10.1172 1.51937 10.0206 1.6113 9.94596C1.64548 9.9269 1.68387 9.91662 1.72301 9.91607C1.76215 9.91551 1.80081 9.92469 1.83552 9.94278C1.91445 9.99578 1.99206 10.0508 2.06861 10.1072C2.09394 10.127 2.11096 10.1556 2.11636 10.1874C2.12175 10.2191 2.11514 10.2517 2.09781 10.2788C2.0464 10.3628 2.09754 10.4573 2.04204 10.5411C2.00164 10.6164 1.98779 10.7032 2.00272 10.7873C2.0033 10.793 2.00509 10.8006 2.00233 10.8043C1.91454 10.9243 1.95277 11.0759 1.90106 11.2059C1.86952 11.2786 1.85646 11.3579 1.86306 11.4369C1.86187 11.4811 1.85402 11.525 1.83977 11.5669C1.81021 11.6638 1.7939 11.7642 1.79128 11.8655C1.80013 11.9493 1.78744 12.0341 1.75439 12.1116C1.73076 12.1873 1.72093 12.2666 1.72539 12.3457C1.71594 12.3508 1.69898 12.355 1.69817 12.3613C1.68301 12.4783 1.66951 12.5954 1.65623 12.7127C1.6493 12.7738 1.64346 12.835 1.63713 12.8961C1.54842 12.9228 1.51505 12.8257 1.44513 12.8096C1.43554 12.8073 1.42904 12.7935 1.42013 12.7862C1.38171 12.7572 1.35111 12.7191 1.33112 12.6753C1.31113 12.6315 1.30237 12.5834 1.30563 12.5354C1.31363 11.9752 1.30926 11.4149 1.30924 10.8545Z" fill="#464796"/>
<path d="M18.8563 9.95327C18.8879 9.97296 18.9248 10.0142 18.9499 10.0079C19.0027 9.99462 18.9982 9.93739 18.995 9.89094C18.9934 9.81776 19.0088 9.7452 19.0399 9.67894C19.0786 9.56364 19.1101 9.44602 19.134 9.32676C19.1462 9.27843 19.1576 9.22986 19.1698 9.18153C19.1806 9.13875 19.194 9.09653 19.2026 9.05331C19.2071 9.03106 19.1941 8.99977 19.2054 8.98531C19.2908 8.87601 19.2541 8.73463 19.3066 8.61696C19.3346 8.5613 19.3475 8.4993 19.3443 8.43709C19.3462 8.40398 19.3556 8.37173 19.3717 8.34273C19.4007 8.28763 19.4151 8.22599 19.4135 8.16373C19.4166 8.13078 19.4246 8.0985 19.4374 8.06797C19.4676 7.98909 19.4829 7.90532 19.4827 7.82086C19.4789 7.79012 19.4994 7.75706 19.5042 7.72438C19.5279 7.62047 19.5446 7.51511 19.5544 7.40899C19.5646 7.28117 19.5832 7.15415 19.6098 7.02872C19.6157 6.98947 19.6188 6.94986 19.619 6.91017C19.6198 6.65023 19.6373 6.38866 19.6139 6.13085C19.5947 5.92006 19.5963 5.70974 19.581 5.49997C19.5622 5.38537 19.5336 5.2726 19.4955 5.1629C19.4889 5.12999 19.4841 5.09674 19.4811 5.06331C19.5039 5.08631 19.5416 5.10616 19.5471 5.13271C19.5967 5.37171 19.6807 5.60058 19.7453 5.83501C19.7657 5.92171 19.7815 6.00941 19.7928 6.09775C19.8323 6.52564 19.8439 6.95566 19.8274 7.38506C19.771 7.49257 19.8215 7.62063 19.7608 7.72868C19.7484 7.75068 19.7587 7.78536 19.7583 7.8142C19.7566 7.88132 19.747 7.948 19.7295 8.01282C19.6943 8.10859 19.6803 8.21085 19.6886 8.31254C19.6914 8.32383 19.6913 8.33566 19.6882 8.34689C19.6138 8.53633 19.6367 8.74429 19.5757 8.93622C19.5631 8.96695 19.555 8.99933 19.5516 9.03236C19.5638 9.12883 19.5421 9.22655 19.4902 9.30876C19.4809 9.32944 19.4779 9.35238 19.4814 9.37476C19.4975 9.47104 19.4763 9.56982 19.422 9.65099C19.4183 9.65531 19.4122 9.66118 19.413 9.66517C19.4436 9.81725 19.3519 9.94886 19.3414 10.0942C19.3357 10.1746 19.3153 10.19 19.2362 10.1959C19.1695 10.2009 19.1005 10.1799 19.0367 10.2267C19.0217 10.2377 18.9537 10.2137 18.9506 10.1979C18.9335 10.1099 18.8381 10.0528 18.8563 9.95327Z" fill="#0066C8"/>
<path d="M1.30917 10.8546C1.30917 11.4149 1.31356 11.9753 1.30558 12.5355C1.30232 12.5835 1.31108 12.6316 1.33108 12.6753C1.35107 12.7191 1.38166 12.7572 1.42008 12.7862C1.42897 12.7935 1.43547 12.8074 1.44508 12.8096C1.51501 12.8258 1.54838 12.9228 1.63708 12.8962C1.64341 12.835 1.64925 12.7738 1.65618 12.7127C1.66946 12.5955 1.68296 12.4783 1.69812 12.3613C1.69893 12.355 1.71589 12.3509 1.72534 12.3457C1.73054 12.4323 1.7298 12.519 1.72313 12.6055C1.71422 12.7336 1.69437 12.8608 1.66381 12.9856C1.65632 13.0189 1.65382 13.0532 1.65639 13.0873C1.64705 13.3067 1.64878 13.5264 1.66156 13.7455C1.66082 13.9027 1.68172 14.0592 1.72367 14.2107C1.72917 14.2333 1.72936 14.2569 1.72422 14.2796C1.71922 14.3202 1.64122 14.3581 1.61478 14.3321C1.51887 14.2596 1.44479 14.1621 1.40069 14.0503C1.37909 13.9701 1.367 13.8873 1.34292 13.808C1.31655 13.6979 1.30471 13.5848 1.30768 13.4716C1.30288 13.342 1.28157 13.213 1.27591 13.0834C1.28553 12.9509 1.28331 12.818 1.26927 12.6859C1.23871 12.4709 1.22945 12.2533 1.24163 12.0365C1.22672 11.8231 1.22818 11.609 1.246 11.3959C1.26636 11.2251 1.27182 11.0561 1.27614 10.8857C1.27639 10.875 1.29767 10.8649 1.30917 10.8546Z" fill="#31377D"/>
<path d="M18.3019 12.207C18.3134 12.2173 18.335 12.2276 18.335 12.2379C18.3586 12.4642 18.3708 12.6915 18.3716 12.9191C18.3693 12.9478 18.3697 12.9767 18.3728 13.0054C18.3759 13.0381 18.4073 13.0481 18.435 13.0258C18.4484 13.015 18.4593 13.0011 18.4726 12.9902C18.5293 12.9439 18.5896 12.9015 18.6427 12.8514C18.6946 12.8024 18.7393 12.7458 18.7872 12.6925C18.7872 12.8427 18.7846 12.9929 18.788 13.143C18.7963 13.3292 18.773 13.5155 18.7192 13.694C18.7148 13.7109 18.7145 13.7286 18.7185 13.7456C18.7236 13.8753 18.6925 14.0038 18.6285 14.1167C18.5823 14.2094 18.513 14.2885 18.4273 14.3465C18.4152 14.3543 18.4013 14.3588 18.3869 14.3593C18.3725 14.3599 18.3583 14.3565 18.3456 14.3496C18.333 14.3426 18.3225 14.3324 18.3153 14.32C18.308 14.3076 18.3042 14.2935 18.3044 14.2791C18.2857 14.0911 18.2947 13.9014 18.331 13.7161L18.3358 13.7003C18.36 13.5319 18.3695 13.3617 18.3643 13.1917C18.3615 13.0447 18.3501 12.898 18.3304 12.7523C18.3065 12.5716 18.297 12.3892 18.3019 12.207Z" fill="#31377D"/>
<path d="M19.4803 12.0665C19.4803 12.3496 19.4834 12.6327 19.4791 12.9157C19.4765 13.0801 19.4515 13.2441 19.4375 13.4077C19.4419 13.5373 19.4085 13.6654 19.3412 13.7762C19.3029 13.826 19.2697 13.8822 19.1923 13.8722C19.1189 13.8458 19.0527 13.8025 18.9991 13.7458C18.9913 13.724 18.9906 13.7002 18.9973 13.6779C19.046 13.5804 19.0138 13.4745 19.0326 13.3758C19.0692 13.0569 19.0792 12.7354 19.0624 12.4148C19.0698 12.0914 19.0629 11.7678 19.0639 11.4443C19.0647 11.2215 19.0073 11.0018 19.0288 10.7778C19.0311 10.761 19.0281 10.7438 19.02 10.7288C18.9609 10.641 19.0074 10.5843 19.067 10.5195C19.1306 10.4505 19.2052 10.4727 19.2761 10.4776C19.2997 10.4792 19.32 10.5229 19.3426 10.5465C19.4232 10.6305 19.4089 10.7475 19.4392 10.8475C19.4691 10.9684 19.4824 11.0928 19.4788 11.2173C19.4839 11.5003 19.4804 11.7834 19.4803 12.0665ZM19.099 12.0267H19.0993C19.0993 12.321 19.0993 12.6152 19.0993 12.9095C19.0993 12.9498 19.0964 12.9905 19.1002 13.0305C19.1051 13.0568 19.1127 13.0824 19.1227 13.1072C19.1547 13.1018 19.1857 13.0916 19.2147 13.0769C19.2517 13.0504 19.2778 13.0088 19.3144 12.9815C19.3503 12.9536 19.3784 12.9169 19.3958 12.8749C19.4133 12.8329 19.4195 12.7871 19.414 12.742C19.4092 12.1766 19.4135 11.6112 19.4092 11.0458C19.405 10.9392 19.3907 10.8333 19.3664 10.7295C19.3525 10.6699 19.3301 10.6126 19.3001 10.5592C19.2921 10.5457 19.2814 10.5339 19.2686 10.5248C19.2558 10.5156 19.2413 10.5092 19.2259 10.5059C19.2105 10.5027 19.1946 10.5027 19.1792 10.506C19.1639 10.5092 19.1493 10.5156 19.1366 10.5248C19.1118 10.5393 19.0917 10.5607 19.0787 10.5863C19.0657 10.612 19.0604 10.6408 19.0634 10.6694C19.0789 10.8272 19.0946 10.9856 19.0975 11.144C19.1028 11.4382 19.099 11.7325 19.099 12.0267Z" fill="#9391C1"/>
<path d="M0.754736 10.5429C0.760326 10.5219 0.760886 10.4859 0.772306 10.4821C0.823664 10.4641 0.879679 10.4646 0.930686 10.4836C0.981693 10.5025 1.02449 10.5387 1.0517 10.5858C1.06367 10.6229 1.0659 10.6624 1.05818 10.7006C1.05458 10.7389 1.03438 10.7761 1.03345 10.8141C1.02037 11.3478 0.985366 11.8824 1.00582 12.4148C1.02082 12.8044 1.02411 13.1937 1.03231 13.5832C1.03272 13.6057 1.03538 13.6282 1.04024 13.6502C1.04822 13.6764 1.04983 13.7041 1.04493 13.731C1.04003 13.7579 1.02877 13.7833 1.01208 13.805C0.995387 13.8267 0.973753 13.8441 0.948978 13.8558C0.924203 13.8674 0.897004 13.873 0.869646 13.872C0.827715 13.8672 0.788056 13.8505 0.755482 13.8236C0.722908 13.7968 0.698818 13.7611 0.686136 13.7209C0.647993 13.5451 0.622495 13.3667 0.609836 13.1873C0.564086 12.5669 0.578896 11.9463 0.587116 11.3262C0.579369 11.0894 0.611767 10.8531 0.682936 10.6271C0.697876 10.5862 0.710656 10.5541 0.754686 10.5429C0.734966 10.6582 0.691756 10.7667 0.675336 10.8852C0.661336 10.9867 0.659436 11.0875 0.649836 11.1884C0.639686 11.295 0.619036 11.4014 0.618056 11.508C0.614256 11.9183 0.615886 12.3285 0.617396 12.7388C0.617556 12.7831 0.632216 12.8271 0.636506 12.8715C0.653006 13.0426 0.837376 13.06 0.913616 13.1761C0.929506 13.1647 0.957376 13.1549 0.959126 13.1416C0.963212 13.0956 0.964284 13.0494 0.962336 13.0033C0.962496 12.3503 0.962679 11.6973 0.962886 11.0444C0.955502 10.9991 0.958113 10.9527 0.970536 10.9085C1.00095 10.8219 1.00952 10.7291 0.995466 10.6383C0.995297 10.6198 0.991205 10.6015 0.98346 10.5847C0.975714 10.5678 0.964491 10.5528 0.950528 10.5406C0.936566 10.5285 0.920181 10.5194 0.902453 10.514C0.884725 10.5086 0.866056 10.507 0.847676 10.5094C0.815306 10.5162 0.784033 10.5275 0.754736 10.5429Z" fill="#9391C1"/>
<path d="M17.126 10.1361C17.113 10.0573 17.127 9.97436 17.121 9.89386C17.1157 9.80954 17.1042 9.72572 17.0867 9.64307C17.0602 9.52556 17.0739 9.40142 17.0459 9.28918C16.9985 9.09947 16.9749 8.90543 16.9204 8.71641C16.8605 8.50108 16.7821 8.29133 16.6861 8.08951C16.5965 7.86491 16.4662 7.65877 16.3018 7.48144C16.1327 7.22233 15.9155 6.99809 15.6618 6.8209C15.4138 6.61774 15.1389 6.44977 14.845 6.32171C14.4197 6.12155 13.9701 5.97771 13.5076 5.89383C13.1633 5.79302 12.8098 5.72702 12.4523 5.69683C12.1961 5.6585 11.9334 5.64176 11.6736 5.62462C11.302 5.60011 10.9287 5.61022 10.5558 5.59072C10.1139 5.56525 9.67074 5.57373 9.23018 5.61608C9.04171 5.61552 8.85338 5.62612 8.66618 5.64782C8.50886 5.67241 8.35002 5.68599 8.19082 5.68846C8.17357 5.68691 8.15619 5.68754 8.1391 5.69035C7.95367 5.73469 7.76574 5.76784 7.57634 5.78961C7.38 5.83523 7.17722 5.85398 6.98201 5.90329C6.72824 5.96739 6.47687 6.04329 6.22874 6.12674C6.0075 6.20117 5.78789 6.27916 5.57255 6.37381C5.28516 6.49547 5.00689 6.63764 4.7399 6.79921C4.51038 6.93278 4.29378 7.08741 4.0929 7.26109C3.80768 7.50939 3.55609 7.79385 3.3445 8.10726C3.2235 8.29392 3.11837 8.4904 3.03023 8.69463C2.93103 8.93165 2.85461 9.17757 2.80201 9.42906C2.74267 9.63462 2.70672 9.84623 2.69486 10.0599C2.69442 10.0768 2.69243 10.0937 2.68892 10.1104C2.65967 10.2243 2.64046 10.3406 2.6315 10.4579C2.60868 10.7959 2.61878 11.1354 2.66164 11.4715C2.68494 11.5867 2.70233 11.7034 2.73289 11.8166C2.78373 12.0287 2.86556 12.232 2.97575 12.4202C3.14023 12.7077 3.3788 12.9459 3.66662 13.1098C3.67809 13.1097 3.69245 13.105 3.70062 13.1101C3.94862 13.2517 4.23016 13.3239 4.5157 13.3192C4.86319 13.3219 5.20684 13.2463 5.52112 13.098C5.74017 13.0038 5.94644 12.8823 6.13501 12.7363C6.34237 12.5988 6.53594 12.4415 6.71301 12.2667C6.72578 12.2569 6.74019 12.2494 6.75557 12.2445L6.92717 12.0688C6.98341 12.0801 7.00975 12.0365 7.04129 12.0049C7.26819 11.7819 7.516 11.5812 7.78129 11.4056C7.95524 11.2846 8.14121 11.1819 8.33624 11.0991C8.39761 11.074 8.46005 11.0514 8.522 11.0277C8.57295 10.9876 8.63458 10.9635 8.6992 10.9582C8.91146 10.9155 9.1232 10.8699 9.33551 10.8277C9.37491 10.8214 9.41482 10.819 9.45469 10.8205C9.71989 10.8199 9.98507 10.8208 10.2503 10.8199C10.3729 10.8283 10.4945 10.8481 10.6135 10.8788C10.7671 10.9066 10.921 10.9324 11.0748 10.9588C11.2222 10.9862 11.3666 11.0275 11.5062 11.0821C11.566 11.1045 11.6396 11.1008 11.6784 11.1666C11.79 11.2129 11.9038 11.2547 12.0126 11.3069C12.1361 11.3661 12.2582 11.4294 12.3751 11.5004C12.5271 11.5926 12.6734 11.6941 12.8221 11.7916C12.9061 11.7846 12.9485 11.858 13.0081 11.8943C13.1648 11.9898 13.3126 12.0999 13.4651 12.2026C13.4776 12.211 13.4984 12.207 13.5154 12.2088C13.6974 12.373 13.8956 12.5183 14.1068 12.6426C14.2724 12.7444 14.4266 12.8679 14.6001 12.9526C14.8006 13.0684 15.0148 13.1586 15.2377 13.2212C15.3408 13.2427 15.4444 13.262 15.5478 13.2822C15.5914 13.2907 15.6348 13.2996 15.6784 13.3073C15.7 13.3136 15.7225 13.3162 15.7449 13.315C15.8361 13.2917 15.9285 13.2739 16.0218 13.2618C16.125 13.2418 16.2265 13.2139 16.3254 13.1783C16.3691 13.1335 16.4168 13.0926 16.4678 13.0562C16.622 12.9504 16.7442 12.8043 16.821 12.6338C16.9471 12.4269 17.0272 12.1953 17.0557 11.9547C17.1505 11.7783 17.0995 11.5758 17.1569 11.3927C17.1737 10.9736 17.1634 10.5539 17.126 10.1361Z" fill="#02309D"/>
<path d="M12.8315 11.7834L14.1109 12.6348C14.4322 12.8697 14.7833 13.0607 15.155 13.203C15.3528 13.2706 15.5611 13.3029 15.7701 13.2984C15.8825 13.2946 15.994 13.2777 16.1024 13.248C16.1982 13.222 16.2952 13.1732 16.254 13.3031C16.2058 13.4551 15.9122 13.6382 15.7847 13.7204C15.6107 13.835 15.4162 13.915 15.2119 13.9561C14.9834 14.0047 14.7457 13.9868 14.5271 13.9043C14.3086 13.8218 14.1183 13.6784 13.9789 13.4909C13.8757 13.3049 13.7875 13.1111 13.7152 12.9111C13.49 12.4857 13.1908 12.1038 12.8315 11.7834Z" fill="#9492C2"/>
<path d="M3.6792 13.1057C3.93425 13.2341 4.21374 13.3065 4.49902 13.3182C4.7843 13.3299 5.06879 13.2807 5.3335 13.1737C5.59698 13.0743 5.84708 12.9425 6.07802 12.7814C6.19481 12.7016 6.30766 12.6162 6.4177 12.5275C6.50187 12.4596 6.62293 12.3119 6.72124 12.2909C6.70675 12.3806 6.59013 12.4947 6.53689 12.5795C6.47378 12.6801 6.41668 12.7843 6.36589 12.8917C6.26361 13.1926 6.10582 13.4716 5.90069 13.7144C5.75989 13.8312 5.59413 13.9141 5.4162 13.9567C5.23826 13.9993 5.05292 14.0004 4.87448 13.96C4.62527 13.9127 4.38932 13.8118 4.18294 13.6643C3.97656 13.5168 3.80469 13.3262 3.6792 13.1057Z" fill="#9492C2"/>
<path d="M13.9902 16.5675C13.9446 16.3824 13.8877 16.2001 13.8197 16.0219C13.7413 15.8483 13.6914 15.6631 13.6718 15.4736C13.6601 15.1446 13.8523 14.8101 13.7452 14.4987C13.5052 14.6023 13.4269 14.8944 13.3006 15.1232C13.1988 15.3037 13.0548 15.4568 12.881 15.5695C12.7072 15.6823 12.5087 15.7513 12.3024 15.7707C11.9485 15.7598 11.6039 15.6548 11.304 15.4666C11.0041 15.2783 10.7597 15.0137 10.5959 14.6997C10.571 14.6686 10.5577 14.6297 10.5583 14.5898C10.5681 14.5174 10.656 14.4895 10.7274 14.4742C11.29 14.3517 11.7953 14.0443 12.1628 13.6011C12.3301 13.4112 12.447 13.1824 12.5028 12.9356C12.6387 12.2133 11.9994 11.8844 11.3929 11.8227C10.4924 11.7261 9.58444 11.7197 8.68264 11.8037C8.47865 11.7974 8.27594 11.8381 8.09021 11.9227C7.90447 12.0072 7.7407 12.1334 7.61157 12.2915C7.52829 12.4923 7.50468 12.7129 7.54358 12.9268C7.58247 13.1407 7.68221 13.3389 7.83086 13.4975C8.05272 13.7853 8.32943 14.0262 8.64498 14.2064C8.96053 14.3866 9.30867 14.5024 9.66926 14.5472C9.44317 14.9619 9.11307 15.3106 8.7114 15.5592C8.50967 15.681 8.28153 15.7523 8.04634 15.767C7.81116 15.7818 7.57589 15.7395 7.36053 15.6439C6.87467 15.3992 6.62617 14.8607 6.26677 14.4523C6.2101 14.7443 6.23985 15.0464 6.35239 15.3217C6.46493 15.5969 6.65535 15.8334 6.90031 16.002C7.14931 16.1643 7.43261 16.2666 7.72787 16.3007C8.02313 16.3349 8.3223 16.3 8.60179 16.1989C9.16186 15.9887 9.6323 15.5918 9.93379 15.0751C10.7036 15.5601 11.3111 16.2637 11.6785 17.096C11.8558 17.5986 11.9141 18.2074 12.3537 18.5089C12.538 18.6199 12.7526 18.6704 12.9671 18.6532C13.1817 18.6361 13.3854 18.5521 13.5498 18.4131C13.7102 18.2699 13.839 18.0948 13.9281 17.8991C14.0171 17.7033 14.0643 17.4912 14.0668 17.2761C14.0742 17.0375 14.0484 16.7991 13.9902 16.5675ZM10.2875 14.0511C10.2052 14.0668 10.1217 14.076 10.0379 14.0787C9.73155 14.0624 9.42952 13.999 9.14248 13.8906C8.92226 13.7946 8.71554 13.6702 8.52758 13.5205C8.32572 13.3585 8.16652 13.1495 8.06386 12.9119C8.02143 12.7994 8.01738 12.6761 8.05235 12.5611C8.05933 12.5342 8.07251 12.5092 8.09082 12.4883C8.10913 12.4673 8.13208 12.451 8.15784 12.4404C8.28823 12.3785 8.42588 12.3332 8.56756 12.3055C8.70162 12.2812 8.83796 12.2717 8.9741 12.2774C9.3322 12.2746 9.69034 12.2764 10.0485 12.2764C10.4239 12.2764 10.7995 12.2834 11.1747 12.2735C11.3662 12.2759 11.5567 12.3015 11.742 12.3497C11.8175 12.3709 11.8872 12.4089 11.9459 12.461C11.9982 12.5002 12.0357 12.5561 12.0522 12.6194C12.0687 12.6827 12.0632 12.7497 12.0366 12.8095C11.9396 13.1037 11.7547 13.3609 11.5069 13.5467C11.2806 13.7291 11.0219 13.8672 10.7444 13.9536C10.5964 14.0036 10.4431 14.0363 10.2875 14.0511ZM13.7691 17.4499C13.7494 17.5143 13.7854 17.5904 13.7251 17.6444C13.7083 17.7788 13.6587 17.9071 13.5807 18.0178C13.5026 18.1286 13.3985 18.2184 13.2776 18.2794C13.1841 18.3376 13.0786 18.3738 12.9691 18.385C12.8595 18.3962 12.7489 18.3822 12.6456 18.3441C12.6326 18.3386 12.6243 18.3219 12.6138 18.3105C12.5403 18.2885 12.472 18.2523 12.4126 18.2038C12.3533 18.1552 12.3041 18.0954 12.268 18.0278C12.1908 17.893 12.1434 17.7432 12.129 17.5885C12.128 17.537 12.1356 17.4844 12.0838 17.4483C12.0772 17.443 12.0719 17.4364 12.068 17.429C12.0641 17.4215 12.0618 17.4133 12.0613 17.405C12.0616 17.3374 12.0413 17.2713 12.0033 17.2155C11.9711 17.1653 11.9787 17.0855 11.9218 17.038C11.9272 16.9236 11.8478 16.8446 11.8018 16.7517C11.7508 16.6608 11.7046 16.5673 11.6635 16.4715C11.6088 16.3495 11.5396 16.2345 11.4572 16.1291C11.448 16.1152 11.4409 16.1001 11.4361 16.0842C11.4244 16.0453 11.4614 16.0027 11.4902 16.0237C11.5777 16.0723 11.6751 16.1003 11.775 16.1058C11.8028 16.1115 11.8257 16.1416 11.8508 16.1606L11.8555 16.1765C11.9465 16.1947 12.0377 16.2121 12.1288 16.2296C12.2019 16.2152 12.2777 16.2267 12.3431 16.2622C12.4085 16.2977 12.4595 16.355 12.4872 16.4241C12.5725 16.5349 12.6402 16.658 12.6882 16.7893C12.6914 16.8033 12.7329 16.8148 12.7567 16.8149C12.7669 16.815 12.7901 16.7785 12.7858 16.7664C12.7286 16.6079 12.7583 16.4327 12.6883 16.2759C12.6765 16.2311 12.6757 16.1842 12.6857 16.139C12.691 16.1194 12.7035 16.1025 12.7208 16.0919C12.8041 16.0351 12.8897 15.9816 12.9735 15.9254C13.0803 15.8536 13.1859 15.7801 13.2923 15.7078C13.3727 15.6532 13.4107 15.6635 13.4463 15.7506C13.5124 15.9129 13.5861 16.0727 13.6403 16.2389C13.6814 16.3648 13.6877 16.5019 13.7271 16.6285C13.7529 16.731 13.7707 16.8352 13.7806 16.9404C13.8151 17.1089 13.8112 17.2831 13.7691 17.4499Z" fill="#001664"/>
<path d="M17.1512 10.1342C17.1194 9.72277 17.0517 9.31494 16.9491 8.9153C16.8634 8.45825 16.6938 8.02103 16.4488 7.62577C16.1896 7.28028 15.8779 6.9775 15.5251 6.72843C15.0882 6.42537 14.6079 6.19022 14.1006 6.031C13.1619 5.76134 12.1912 5.61957 11.2147 5.60951C9.16485 5.41568 7.09911 5.7375 5.2054 6.54569C4.51657 6.86181 3.9151 7.34095 3.453 7.94169C2.99088 8.6394 2.71699 9.44474 2.65792 10.2795C2.57819 10.8368 2.61578 11.4046 2.76827 11.9465C2.84637 12.2167 2.98075 12.4673 3.16259 12.6819C3.34443 12.8964 3.56961 13.0701 3.82334 13.1914C4.231 13.3123 4.66253 13.3285 5.07811 13.2386C5.49368 13.1486 5.87991 12.9555 6.20112 12.6769C6.83609 12.1144 7.51767 11.6069 8.23852 11.1598C8.99891 10.8088 9.85121 10.7086 10.6723 10.8737C11.4889 11.0408 12.2636 11.3703 12.9504 11.8426C13.5371 12.2874 14.154 12.6909 14.7966 13.0501C15.033 13.1896 15.2997 13.2699 15.5738 13.284C15.848 13.2982 16.1215 13.2459 16.371 13.1315C16.5796 12.9702 16.7512 12.7661 16.8743 12.5329C16.9975 12.2997 17.0692 12.0429 17.0848 11.7797C17.1719 11.2357 17.1941 10.6834 17.1512 10.1342ZM16.8716 11.106C16.8596 11.3042 16.8388 11.5015 16.8092 11.6981C16.8026 11.9507 16.7321 12.1975 16.6041 12.4154C16.4762 12.6333 16.2951 12.8152 16.0778 12.9441C15.8617 12.9986 15.6364 13.0054 15.4175 12.964C15.1986 12.9226 14.9913 12.834 14.8101 12.7044C13.4953 11.9786 12.3173 10.9261 10.8508 10.6022C10.2733 10.4781 9.67649 10.4729 9.09685 10.5869C8.51722 10.701 7.96689 10.9319 7.47941 11.2656C6.9046 11.6638 6.43284 12.1982 5.84958 12.584C5.57233 12.7985 5.24488 12.9386 4.89829 12.991C4.55171 13.0434 4.19748 13.0064 3.8692 12.8835C3.66053 12.7692 3.4775 12.6133 3.33139 12.4255C3.18528 12.2377 3.0792 12.022 3.01968 11.7916C2.90352 11.33 2.87587 10.8505 2.9382 10.3786C2.97952 9.71422 3.15784 9.06558 3.46194 8.47345C4.01509 7.58724 4.85302 6.91534 5.83826 6.568C7.56829 5.97267 9.40425 5.74814 11.2268 5.909C12.1424 5.91598 13.0534 6.04112 13.937 6.28132C14.7736 6.53561 15.5226 7.01817 16.1 7.67477C16.3677 8.02816 16.5508 8.43824 16.6352 8.87348C16.7661 9.34601 16.8459 9.83122 16.8732 10.3208C16.8879 10.5823 16.8873 10.8445 16.8716 11.106Z" fill="#001664"/>
<path d="M8.76527 14.2872L8.93789 14.3236C9.01939 14.3663 9.10436 14.402 9.19189 14.4304C9.32376 14.4743 9.45872 14.5083 9.59564 14.5322C9.66584 14.5438 9.67592 14.5957 9.63044 14.6543C9.53712 14.7746 9.44859 14.8987 9.35344 15.0175C9.23108 15.1912 9.07455 15.3381 8.89344 15.4492C8.69797 15.5647 8.48744 15.6525 8.26785 15.7101C8.11131 15.7566 7.94839 15.778 7.78514 15.7736C7.60096 15.7753 7.4214 15.716 7.27441 15.605C7.32831 15.6167 7.38156 15.6312 7.43394 15.6484C7.68873 15.7426 7.96958 15.7377 8.22094 15.6347C8.29605 15.5954 8.36358 15.5431 8.42037 15.4802C8.54222 15.3807 8.65608 15.2719 8.76088 15.1546C8.86118 15.0327 8.94949 14.9018 9.04973 14.7802C9.07273 14.7523 9.07495 14.7082 9.09187 14.6741C9.11866 14.6201 9.14978 14.5683 9.17907 14.5156C9.12092 14.473 9.05925 14.4354 8.99473 14.4032C8.9104 14.3826 8.83191 14.3429 8.76527 14.2872Z" fill="#00A1F4"/>
<path d="M10.5342 14.6342C10.5466 14.5081 10.5509 14.4993 10.6528 14.4972C10.7795 14.4865 10.9023 14.448 11.0124 14.3843C11.0594 14.3687 11.1082 14.3594 11.1576 14.3566C11.1124 14.3849 11.0657 14.411 11.0227 14.4423C10.9957 14.462 10.973 14.4839 10.9978 14.5273C11.0809 14.7138 11.1776 14.8939 11.2872 15.0661C11.4257 15.2388 11.5815 15.3969 11.7522 15.5378C11.8376 15.6084 11.9378 15.6588 12.0454 15.6853C12.1945 15.7216 12.3496 15.7252 12.5002 15.6959C12.7 15.6573 12.8809 15.5525 13.0139 15.3985C13.0842 15.3245 13.1633 15.2587 13.2383 15.1893C13.2301 15.2208 13.2168 15.2507 13.1989 15.2779C13.1122 15.3703 13.0243 15.4622 12.9304 15.547C12.8127 15.6427 12.6744 15.7097 12.5265 15.7427C12.457 15.7649 12.3846 15.7761 12.3117 15.7759C12.0263 15.7707 11.7447 15.7088 11.4835 15.5937C11.2095 15.4555 10.9772 15.247 10.8102 14.9896C10.7288 14.8633 10.6364 14.7444 10.5342 14.6342Z" fill="#00A1F4"/>
<path d="M8.54395 10.999C9.39295 10.7819 10.2808 10.7649 11.1375 10.9493C11.2476 10.9602 11.3524 11.002 11.4399 11.0698C11.2029 11.0749 10.9659 11.067 10.7298 11.0461C10.486 11.0456 10.2423 11.0534 9.99854 11.0591C9.51285 11.0833 9.02597 11.0632 8.54395 10.999Z" fill="#9492C2"/>
<path d="M3.56222 6.31616C3.56386 5.5442 3.56417 4.77224 3.56315 4.00027C3.56315 3.96641 3.57121 3.92287 3.55396 3.90035C3.49733 3.80099 3.47619 3.68532 3.49403 3.57235C3.50789 3.43456 3.50558 3.29561 3.48717 3.15835C3.45978 2.98379 3.45238 2.80667 3.4651 2.63043C3.47061 2.59662 3.46856 2.562 3.4591 2.52907C3.42727 2.44398 3.41548 2.3527 3.42463 2.26231C3.43153 2.21674 3.43038 2.1703 3.42123 2.12512C3.40115 2.07584 3.47006 2.05221 3.43796 1.99975C3.41696 1.96538 3.42951 1.91121 3.42426 1.86624C3.39718 1.72121 3.38535 1.57374 3.38895 1.42624C3.38927 1.41496 3.38513 1.40401 3.37742 1.39577C3.36034 1.3791 3.34832 1.33945 3.31393 1.37708C3.28355 1.41031 3.24834 1.43608 3.24982 1.49173C3.26387 1.62192 3.25265 1.75359 3.21677 1.87952C3.23043 2.20017 3.15635 2.51763 3.18187 2.83872C3.18232 2.84445 3.18132 2.85033 3.182 2.85602C3.19222 2.96906 3.1787 3.08299 3.14232 3.1905C3.12347 3.24914 3.11342 3.31024 3.11252 3.37182C3.12203 3.47359 3.1105 3.57622 3.07866 3.67334C3.05891 3.76635 3.04527 3.86055 3.03781 3.95534C2.98346 4.13764 2.97723 4.32812 2.92237 4.50901C2.91183 4.5408 2.90617 4.57401 2.90559 4.60749C2.90833 4.67513 2.89643 4.74257 2.87071 4.80518C2.85021 4.86298 2.83704 4.92311 2.83151 4.98418C2.79083 5.14127 2.76637 5.30211 2.75851 5.46418C2.75891 5.4733 2.74276 5.48213 2.74002 5.49259C2.72005 5.55016 2.70612 5.60964 2.69846 5.67008C2.69118 5.83442 2.68725 5.99756 2.66638 6.16227C2.62446 6.49295 2.71079 6.82337 2.69656 7.15556C2.69547 7.16126 2.69567 7.16713 2.69713 7.17274C2.7452 7.33231 2.77935 7.49573 2.79921 7.66119C2.82143 7.73867 2.81561 7.74034 2.9049 7.69926C2.9941 7.51456 3.08022 7.32873 3.17748 7.14755C3.28283 6.95129 3.38067 6.75127 3.50148 6.56355C3.51368 6.53889 3.52299 6.51291 3.52925 6.48611L3.52885 6.41599C3.59049 6.40012 3.56215 6.34999 3.56222 6.31616Z" fill="#A3CEF2"/>
<path d="M10.0485 12.2764C10.4239 12.2764 10.7996 12.2834 11.1748 12.2735C11.3662 12.2759 11.5567 12.3015 11.742 12.3497C11.8175 12.3709 11.8872 12.4089 11.9459 12.461C11.9982 12.5002 12.0357 12.5561 12.0522 12.6194C12.0687 12.6827 12.0632 12.7498 12.0367 12.8096C11.9396 13.1037 11.7547 13.3609 11.5069 13.5467C11.2806 13.7291 11.0219 13.8672 10.7444 13.9537C10.5964 14.0036 10.4431 14.0363 10.2876 14.0511C10.2052 14.0668 10.1217 14.076 10.038 14.0787C9.73158 14.0624 9.42955 13.999 9.1425 13.8907C8.92228 13.7946 8.71556 13.6702 8.5276 13.5206C8.32574 13.3585 8.16655 13.1496 8.06388 12.9119C8.02145 12.7995 8.0174 12.6761 8.05236 12.5611C8.05935 12.5342 8.07253 12.5093 8.09084 12.4883C8.10916 12.4674 8.1321 12.451 8.15786 12.4404C8.28825 12.3785 8.4259 12.3332 8.56758 12.3055C8.70165 12.2812 8.83799 12.2718 8.97412 12.2774C9.33222 12.2746 9.69036 12.2764 10.0485 12.2764ZM10.9667 12.9007C11.0069 12.9007 11.0474 12.898 11.0874 12.9013C11.124 12.9033 11.1606 12.8975 11.1948 12.8843C11.229 12.8711 11.26 12.8508 11.2858 12.8247C11.3958 12.7268 11.398 12.6759 11.2973 12.5719C11.2773 12.5513 11.2549 12.5327 11.2367 12.5106C11.1278 12.3788 10.9779 12.4208 10.8392 12.4166C10.8298 12.4163 10.8192 12.4266 10.8107 12.4337C10.7613 12.4628 10.7217 12.5058 10.6967 12.5574C10.6718 12.6089 10.6627 12.6667 10.6705 12.7235C10.6789 12.767 10.7 12.8071 10.7313 12.8386C10.7625 12.8701 10.8024 12.8915 10.8459 12.9002C10.886 12.9026 10.9264 12.9006 10.9667 12.9007Z" fill="#0E226E"/>
<path d="M12.1289 16.2296C12.2019 16.2152 12.2777 16.2267 12.3432 16.2622C12.4086 16.2977 12.4596 16.355 12.4873 16.4241C12.5725 16.5349 12.6403 16.658 12.6883 16.7893C12.6915 16.8033 12.7329 16.8148 12.7567 16.8149C12.767 16.8149 12.7902 16.7785 12.7858 16.7664C12.7287 16.6079 12.7583 16.4327 12.6883 16.2758C12.6766 16.2311 12.6757 16.1841 12.6858 16.139C12.691 16.1194 12.7036 16.1025 12.7208 16.0919C12.8042 16.0351 12.8898 15.9816 12.9735 15.9253C13.0803 15.8536 13.186 15.7801 13.2924 15.7078C13.3727 15.6532 13.4108 15.6635 13.4463 15.7506C13.5124 15.9129 13.5861 16.0727 13.6404 16.2389C13.6815 16.3648 13.6878 16.5019 13.7272 16.6285C13.7529 16.731 13.7708 16.8352 13.7806 16.9404C13.8151 17.1089 13.8112 17.2831 13.7691 17.4499C13.7494 17.5143 13.7854 17.5904 13.725 17.6444C13.7083 17.7788 13.6587 17.9071 13.5807 18.0178C13.5026 18.1286 13.3985 18.2184 13.2776 18.2794C13.1841 18.3377 13.0786 18.3738 12.9691 18.385C12.8595 18.3962 12.7489 18.3822 12.6456 18.3441C12.6326 18.3386 12.6243 18.3219 12.6138 18.3105C12.6257 18.3103 12.4953 18.1102 12.5099 18.1169C12.6565 18.1839 12.9783 18.3584 13.0832 18.2379C13.1634 18.1513 13.2334 18.056 13.292 17.9535C13.3332 17.8804 13.348 17.7954 13.3342 17.7126C13.3206 17.647 13.3117 17.5806 13.3074 17.5138C13.3048 17.4751 13.2965 17.437 13.2828 17.4008C13.2515 17.3408 13.2357 17.274 13.2366 17.2064C13.2324 17.1738 13.2225 17.1421 13.2073 17.1129C13.1887 17.0789 13.1767 17.0418 13.1717 17.0034C13.1809 16.8932 13.1045 16.8282 13.0493 16.7539C13.0049 16.694 12.9908 16.7036 12.96 16.7823C12.909 16.895 12.8861 17.0183 12.8933 17.1417C12.8932 17.1983 12.8753 17.2534 12.842 17.2991C12.8166 17.3476 12.7842 17.3498 12.746 17.314C12.7231 17.2965 12.7037 17.2748 12.6888 17.2501C12.6573 17.1808 12.4647 16.7377 12.4264 16.6846C12.3831 16.6086 12.3533 16.5256 12.3383 16.4394C12.3616 16.3317 12.2795 16.3035 12.2106 16.2672C12.1845 16.2533 12.1387 16.2816 12.1289 16.2296Z" fill="#2164C9"/>
<path d="M12.1272 16.2344L12.1492 16.2416C12.201 16.2587 12.2997 16.2661 12.3349 16.3076C12.3599 16.3371 12.3281 16.3885 12.3417 16.4247C12.4472 16.7056 12.5669 16.981 12.7003 17.2498C12.7235 17.2966 12.7693 17.3517 12.8164 17.329C12.8301 17.3213 12.8413 17.31 12.849 17.2963C12.8566 17.2826 12.8604 17.2671 12.8598 17.2515C12.8707 17.0477 12.9064 16.846 12.9661 16.6508C13.0961 16.7254 13.1933 16.8462 13.2384 16.9891C13.3198 17.2187 13.3721 17.4575 13.3939 17.7001C13.3858 17.8069 13.3551 17.9107 13.3038 18.0047C13.2525 18.0987 13.1819 18.1808 13.0965 18.2455C13.0259 18.311 12.9333 18.3478 12.837 18.3486C12.7768 18.3429 12.7188 18.3235 12.6673 18.2919C12.6158 18.2604 12.5722 18.2174 12.5398 18.1664C12.3718 17.8746 12.2387 17.564 12.1432 17.241C12.0205 16.8435 11.8529 16.4612 11.6436 16.1017C11.8091 16.1284 11.9713 16.1729 12.1272 16.2344Z" fill="#00A1F4"/>
<path d="M11.8511 16.1605C11.8454 16.1601 11.8396 16.1601 11.8339 16.1605C11.7955 16.1657 11.7385 16.1577 11.7228 16.1795C11.6919 16.2221 11.756 16.2406 11.7731 16.2732C11.8239 16.3701 11.8732 16.4677 11.9209 16.5662C11.9598 16.6457 11.9707 16.7404 12.0117 16.8125C12.049 16.8978 12.0782 16.9864 12.0988 17.0771C12.1282 17.1601 12.1624 17.2414 12.1946 17.3234C12.2449 17.4337 12.2882 17.547 12.3243 17.6627C12.3638 17.7823 12.4116 17.899 12.4675 18.0118C12.5134 18.1195 12.5747 18.22 12.6496 18.3099L12.614 18.3104C12.5406 18.2884 12.4722 18.2522 12.4128 18.2036C12.3535 18.1551 12.3043 18.0953 12.2683 18.0277C12.191 17.8929 12.1436 17.7431 12.1293 17.5884C12.1282 17.5369 12.1358 17.4843 12.084 17.4482C12.0774 17.4429 12.0721 17.4363 12.0682 17.4289C12.0643 17.4214 12.062 17.4132 12.0615 17.4048C12.0618 17.3373 12.0416 17.2712 12.0035 17.2154C11.9713 17.1652 11.9789 17.0853 11.9221 17.0379C11.9274 16.9235 11.8481 16.8445 11.802 16.7516C11.751 16.6607 11.7048 16.5672 11.6637 16.4714C11.6091 16.3494 11.5398 16.2344 11.4574 16.129C11.4482 16.1151 11.4411 16.1 11.4363 16.0841C11.4247 16.0452 11.4617 16.0026 11.4904 16.0236C11.5779 16.0722 11.6753 16.1002 11.7752 16.1057C11.8031 16.1115 11.826 16.1416 11.8511 16.1605Z" fill="#2164C9"/>
<path d="M10.9669 12.9007C10.9266 12.9007 10.8862 12.9027 10.8461 12.9002C10.8026 12.8915 10.7627 12.8701 10.7315 12.8386C10.7002 12.8071 10.6791 12.767 10.6707 12.7234C10.6629 12.6667 10.672 12.6089 10.6969 12.5573C10.7219 12.5058 10.7615 12.4627 10.8108 12.4337C10.8194 12.4265 10.83 12.4163 10.8394 12.4166C10.9781 12.4208 11.128 12.3788 11.2369 12.5106C11.2551 12.5326 11.2775 12.5512 11.2975 12.5719C11.3982 12.6759 11.3959 12.7268 11.2859 12.8246C11.2602 12.8507 11.2292 12.8711 11.195 12.8843C11.1608 12.8975 11.1242 12.9033 11.0876 12.9012C11.0476 12.898 11.0071 12.9007 10.9669 12.9007Z" fill="#3251A6"/>
<path d="M16.6499 10.8399C16.6389 11.2105 16.5938 11.5794 16.515 11.9417C16.4995 12.1098 16.4446 12.2719 16.3549 12.4148C16.2651 12.5578 16.143 12.6776 15.9983 12.7646C15.8562 12.804 15.7075 12.8136 15.5616 12.7926C15.4156 12.7716 15.2756 12.7206 15.1503 12.6428C14.3247 12.2467 13.6048 11.6624 12.812 11.2041C12.1034 10.7793 11.3197 10.4947 10.5037 10.3657C9.68432 10.2383 8.84555 10.3516 8.08928 10.6918C7.22967 11.2318 6.40369 11.8236 5.61591 12.4639C5.41543 12.6161 5.18536 12.7249 4.94045 12.7831C4.69553 12.8413 4.44116 12.8477 4.19361 12.802C4.01528 12.7419 3.85129 12.6456 3.71192 12.5191C3.57255 12.3927 3.46081 12.2388 3.3837 12.0671C3.23166 11.7225 3.15277 11.35 3.152 10.9733C3.09392 9.93726 3.39944 8.91343 4.0158 8.07863C4.68928 7.28743 5.58518 6.7171 6.58705 6.44176C8.01242 6.03947 9.49582 5.88254 10.9738 5.9777C11.901 5.98301 12.8232 6.11539 13.7145 6.37113C14.5515 6.61692 15.3008 7.0967 15.8744 7.754C16.3929 8.54019 16.6624 9.46442 16.6477 10.4061C16.6535 10.5506 16.6543 10.6952 16.6499 10.8399ZM16.1009 12.2542C16.1528 12.1577 16.1905 12.0542 16.2128 11.9469C16.4301 11.0387 16.4105 10.0899 16.1559 9.19148C16.0565 8.75171 15.8673 8.33722 15.6002 7.974C15.3186 7.64348 14.9842 7.36192 14.6106 7.14075C14.2044 6.89952 13.7674 6.71453 13.3115 6.59086C12.3693 6.36247 11.4007 6.26175 10.4317 6.29139C9.06742 6.23464 7.70366 6.41512 6.40111 6.82481C5.52046 7.11089 4.74605 7.65493 4.17827 8.38639C3.66139 9.14784 3.40724 10.0572 3.45447 10.9763C3.42658 11.27 3.48314 11.5655 3.61749 11.8281C3.75185 12.0907 3.95842 12.3094 4.21288 12.4586C4.42556 12.5151 4.64839 12.5219 4.86414 12.4786C5.07989 12.4353 5.2828 12.343 5.45718 12.2088C6.03618 11.8384 6.49835 11.3114 7.05564 10.9092C7.7876 10.4186 8.63162 10.1209 9.50937 10.0437C10.3871 9.96653 11.2701 10.1124 12.0765 10.4677C13.1161 11.009 14.1206 11.6154 15.0839 12.2832C15.3641 12.4469 15.7384 12.5917 15.9899 12.3866C16.0345 12.3494 16.0721 12.3046 16.101 12.2542H16.1009Z" fill="#3C92F7"/>
<path opacity="0.75" d="M8.87428 9.4785C8.85111 10.0028 8.62471 10.4974 8.24304 10.8576C7.86138 11.2178 7.35446 11.4152 6.82972 11.408C6.30498 11.4008 5.80367 11.1896 5.43203 10.8191C5.06039 10.4485 4.84764 9.94785 4.83887 9.42314C4.86273 8.89464 5.09321 8.39665 5.48065 8.03642C5.8681 7.67619 6.38152 7.48252 6.91036 7.49714C7.4324 7.50307 7.93112 7.71428 8.29865 8.08507C8.66617 8.45586 8.87296 8.95643 8.87428 9.4785Z" fill="url(#paint0_radial_2584_4577)"/>
<path opacity="0.75" d="M14.9817 9.4785C14.9585 10.0028 14.7321 10.4974 14.3505 10.8576C13.9688 11.2178 13.4619 11.4152 12.9371 11.408C12.4124 11.4008 11.9111 11.1896 11.5395 10.8191C11.1678 10.4485 10.9551 9.94785 10.9463 9.42314C10.9702 8.89464 11.2006 8.39665 11.5881 8.03642C11.9755 7.67619 12.4889 7.48252 13.0178 7.49714C13.5398 7.50307 14.0385 7.71428 14.4061 8.08507C14.7736 8.45586 14.9804 8.95643 14.9817 9.4785Z" fill="url(#paint1_radial_2584_4577)"/>
<path d="M12.2452 9.37226L12.2511 9.36327C12.3683 9.22261 12.5277 9.1233 12.7056 9.07996C12.9425 9.00944 13.1916 8.98928 13.4368 9.02076C13.566 9.02205 13.6932 9.0525 13.8089 9.10983C13.9023 9.19896 13.8056 9.23803 13.6969 9.24169C13.457 9.24978 13.2183 9.27882 12.9834 9.32848C13.3301 9.54523 13.6008 9.86436 13.7581 10.2417C13.7719 10.2666 13.7794 10.2945 13.7798 10.323C13.7803 10.3515 13.7737 10.3796 13.7607 10.4049C13.5546 10.1805 13.3305 9.97325 13.0908 9.78508C12.85 9.59643 12.5676 9.46794 12.2671 9.41027C12.2625 9.41013 12.2581 9.40909 12.254 9.4072C12.2498 9.40531 12.2461 9.40262 12.2431 9.39927C12.2409 9.39502 12.2399 9.39023 12.2403 9.38546C12.2407 9.38069 12.2424 9.37612 12.2452 9.37226Z" fill="#3FEAFE"/>
<path d="M7.51662 9.46115C7.51902 9.59274 7.48196 9.72203 7.41023 9.83237C7.33849 9.94271 7.23536 10.029 7.11412 10.0802C6.99288 10.1314 6.85908 10.1452 6.72997 10.1197C6.60086 10.0941 6.48234 10.0306 6.38969 9.93708C6.29704 9.84361 6.2345 9.72454 6.21013 9.59521C6.18576 9.46587 6.20067 9.33221 6.25294 9.21142C6.30521 9.09064 6.39245 8.98828 6.50342 8.91752C6.61439 8.84676 6.744 8.81084 6.87556 8.8144C7.04596 8.81634 7.20875 8.88528 7.32872 9.00632C7.44869 9.12735 7.51619 9.29074 7.51662 9.46115Z" fill="#3FEAFE"/>
</g>
<defs>
<radialGradient id="paint0_radial_2584_4577" cx="0" cy="0" r="1" gradientUnits="userSpaceOnUse" gradientTransform="translate(6.859 9.45276) scale(1.98832)">
<stop stop-color="#3FEAFE"/>
<stop offset="1" stop-color="#3FEAFE" stop-opacity="0"/>
</radialGradient>
<radialGradient id="paint1_radial_2584_4577" cx="0" cy="0" r="1" gradientUnits="userSpaceOnUse" gradientTransform="translate(12.9664 9.45276) scale(1.98832)">
<stop stop-color="#3FEAFE"/>
<stop offset="0.24874" stop-color="#3FEAFE" stop-opacity="0.74013"/>
<stop offset="0.77086" stop-color="#3FEAFE" stop-opacity="0.21217"/>
<stop offset="1" stop-color="#3FEAFE" stop-opacity="0"/>
</radialGradient>
<clipPath id="clip0_2584_4577">
<rect width="20" height="20" fill="white"/>
</clipPath>
</defs>
</svg>
