<svg width="20" height="20" viewBox="0 0 20 20" fill="none" xmlns="http://www.w3.org/2000/svg">
<path d="M10 20C15.5228 20 20 15.5228 20 10C20 4.47715 15.5228 0 10 0C4.47715 0 0 4.47715 0 10C0 15.5228 4.47715 20 10 20Z" fill="#3555F9"/>
<path d="M8.97498 4.14184C9.50623 4.04309 10.05 4.05434 10.5875 4.08122C11.2075 4.15372 11.8287 4.28372 12.3987 4.53997C13.5372 5.01567 14.5021 5.82942 15.1631 6.87122C15.4087 7.22934 15.5737 7.63059 15.7394 8.02872C15.8931 7.78372 16.0306 7.52872 16.1644 7.27247C16.2219 7.15184 16.3425 7.05872 16.4831 7.06497C16.5766 7.05767 16.6694 7.08673 16.742 7.14611C16.8147 7.20548 16.8616 7.29059 16.8731 7.38372C16.8887 7.53372 16.7944 7.66309 16.7325 7.79309C16.5375 8.18684 16.2856 8.55059 16.025 8.90559C15.9769 8.95684 15.9969 9.02809 16.0025 9.09059C16.2925 10.8012 15.7406 12.6218 14.565 13.9106C13.8872 14.6639 13.0332 15.2373 12.0794 15.5793C10.9806 15.9637 9.7706 16.0506 8.63435 15.7818C6.98685 15.425 5.52935 14.3387 4.7006 12.8975C4.51935 12.6056 4.40373 12.2812 4.2606 11.9712C4.10435 12.2118 3.97185 12.465 3.83873 12.7175C3.80745 12.78 3.76038 12.8334 3.70218 12.8722C3.64397 12.911 3.57664 12.9339 3.50685 12.9387C3.26873 12.9387 3.05248 12.6825 3.1481 12.4543C3.3531 11.9831 3.63373 11.5468 3.9481 11.1393C4.0156 11.0687 4.00623 10.9687 3.99373 10.8806C3.877 10.1285 3.91099 9.36069 4.09373 8.62184C4.57498 6.54434 6.29998 4.80934 8.3906 4.26872C8.58435 4.22309 8.7781 4.17497 8.97498 4.14184ZM7.49873 5.39809C6.3906 5.98059 5.49873 6.95497 5.03623 8.10559C4.76873 8.80059 4.63248 9.54809 4.67373 10.2918C4.79109 10.2037 4.90297 10.1086 5.00873 10.0068C5.6306 9.45184 6.35873 9.02184 7.11998 8.67934C8.53435 8.03622 10.0919 7.75934 11.6394 7.68434C11.1162 7.14184 10.5487 6.64122 10.0256 6.09872C10.1906 5.91747 10.3694 5.74997 10.5481 5.58247C10.7512 5.76622 10.9387 5.96559 11.1375 6.15372C11.7812 6.79434 12.4444 7.41622 13.0775 8.06559C12.4025 8.73872 11.71 9.39497 11.035 10.0681C10.9781 10.1216 10.9184 10.1721 10.8562 10.2193C10.6862 10.0481 10.4887 9.89809 10.3525 9.69747C10.7675 9.26247 11.24 8.88122 11.6381 8.43059C10.9244 8.44059 10.2144 8.54184 9.5156 8.68059C8.95123 8.78122 8.40873 8.97184 7.86685 9.15372C6.73185 9.57872 5.68498 10.2562 4.88685 11.1625C4.83935 11.2093 4.84623 11.2787 4.85873 11.3375C4.9531 11.7425 5.13123 12.1212 5.32623 12.4875C5.96998 13.6481 7.08248 14.545 8.3606 14.95C9.1081 15.18 9.9056 15.2687 10.6831 15.1606C11.7699 15.0241 12.789 14.5584 13.6037 13.8262C14.7694 12.7987 15.4231 11.2331 15.3225 9.69622C15.1994 9.79184 15.0894 9.90059 14.9744 10.0043C14.1926 10.6769 13.2933 11.1994 12.3219 11.5456C11.0594 12.0143 9.71435 12.2568 8.36748 12.295C8.48498 12.4487 8.62998 12.5775 8.76685 12.7143C9.16998 13.1068 9.56748 13.5043 9.97685 13.8906C9.81935 14.0762 9.6356 14.2381 9.46185 14.4081C9.28748 14.2662 9.13685 14.1012 8.97435 13.9456C8.3656 13.3556 7.7631 12.7581 7.1556 12.1656C7.07148 12.0891 6.99412 12.0054 6.92435 11.9156C7.18748 11.6331 7.48998 11.3893 7.75935 11.1131C8.22185 10.6662 8.67185 10.2062 9.13998 9.76497C9.31498 9.93497 9.49873 10.0975 9.65435 10.2856C9.2381 10.7168 8.79498 11.1225 8.3731 11.5481C8.8356 11.5712 9.29185 11.4918 9.7506 11.4481C10.0819 11.4131 10.4075 11.3381 10.7344 11.27C12.4125 10.8825 14.0469 10.0856 15.1731 8.77247C14.7419 6.90747 13.1562 5.37247 11.2694 4.93872C10.0125 4.61934 8.64185 4.80122 7.49873 5.39809Z" fill="white"/>
</svg>
