<svg width="20" height="20" viewBox="0 0 20 20" fill="none" xmlns="http://www.w3.org/2000/svg">
<g clip-path="url(#clip0_5013_67518)">
<path d="M11.677 9.24514C11.677 9.66192 11.3013 9.9991 10.8389 9.9991H8.32216V8.49208H10.8389C11.3022 8.49208 11.677 8.82926 11.677 9.24514ZM20 10C20 11.9779 19.4135 13.9114 18.3146 15.5559C17.2157 17.2004 15.6538 18.4821 13.8264 19.239C11.9991 19.9958 9.9883 20.1937 8.04844 19.8077C6.10858 19.4217 4.32676 18.4691 2.9283 17.0704C1.52985 15.6717 0.577584 13.8897 0.191934 11.9498C-0.193716 10.0099 0.0045716 7.99915 0.761722 6.17192C1.51887 4.34469 2.80088 2.78303 4.4456 1.68443C6.09033 0.585834 8.0239 -0.000353635 10.0018 1.60055e-07C12.6536 0.00047451 15.1967 1.05425 17.0717 2.92956C18.9467 4.80488 20 7.34814 20 10ZM13.6687 12.0571C14.5068 11.3675 15.0362 10.3792 15.0362 9.27824C15.0362 7.19613 13.158 5.50845 10.8416 5.50845H4.96736V14.4951H8.32305V13.0409H10.8658L11.7422 14.4924H15.0335L13.6687 12.0571Z" fill="#2116E5"/>
</g>
<defs>
<clipPath id="clip0_5013_67518">
<rect width="20" height="20" fill="white"/>
</clipPath>
</defs>
</svg>
