<svg width="20" height="20" viewBox="0 0 20 20" fill="none" xmlns="http://www.w3.org/2000/svg">
<path d="M10 20C15.5228 20 20 15.5228 20 10C20 4.47715 15.5228 0 10 0C4.47715 0 0 4.47715 0 10C0 15.5228 4.47715 20 10 20Z" fill="white"/>
<path d="M4.9824 5.19736L6.20098 4.55222L6.34434 4.83895L10.7886 2.25842L10.5019 2.04338L10.1435 1.82833L10.0001 1.75665L2.6886 5.98585V6.12921L4.76736 4.98231L4.9824 5.19736ZM4.9824 7.92124L8.49478 5.84249L8.63815 6.12921L13.1541 3.54869L12.7957 3.33364L12.4373 3.19028L12.2939 3.1186L2.6886 8.63806V8.78142L4.76736 7.63452L4.9824 7.92124ZM4.9824 9.21151L9.64168 6.5593L9.78505 6.77434L14.301 4.19382L13.9426 4.05045L13.5842 3.83541L13.4408 3.76373L2.6886 9.92832V10.1434L4.76736 8.92478L4.9824 9.21151ZM4.9824 10.5018L10.7886 7.20443L10.9319 7.41948L15.4479 4.91063L15.0895 4.69559L14.7311 4.48054L14.5877 4.40886L2.6886 11.2903V11.4336L4.76736 10.2867L4.9824 10.5018ZM4.9824 11.8637L11.9355 7.84956L12.0788 8.13629L16.5948 5.55576L16.2364 5.34072L15.9496 5.19736L15.7346 5.05399L2.6886 12.5805V12.7956L4.76736 11.577L4.9824 11.8637ZM17.0249 5.84249L16.8815 5.69912L2.6886 13.9425V14.0858L4.76736 12.9389L4.9824 13.2257L11.9355 9.13983L12.0788 9.42655L17.3116 6.48762V5.98585L17.0249 5.84249ZM3.62046 14.946L4.76736 14.2292L4.91072 14.5159L11.9355 10.5018L12.0788 10.7885L17.3116 7.77788V6.84602L3.40541 14.8026L3.62046 14.946ZM11.9355 11.8637L12.0788 12.1504L17.3116 9.06814V8.13629L4.55231 15.5195L4.76736 15.5911L5.91426 14.8743L6.1293 15.1611L11.9355 11.8637ZM5.91426 16.2363L7.13284 15.5911L7.2762 15.8779L11.9355 13.154L12.0788 13.4407L17.3116 10.4301V9.49823L5.69921 16.1646L5.91426 16.2363ZM7.06116 16.8814L8.27974 16.2363L8.4231 16.523L11.9355 14.5159L12.0788 14.8026L17.3116 11.792V10.7885L6.84611 16.8097L7.06116 16.8814ZM7.99301 17.4549L8.20806 17.5982L9.42664 16.8814L9.57 17.1681L11.9355 15.8062L12.0788 16.0929L17.3116 13.0823V12.1504L7.99301 17.4549ZM9.35496 18.2434L10.5019 17.5265L10.7169 17.8133L11.9355 17.1681L12.0788 17.4549L17.3116 14.4442V13.4407L9.2116 18.1717L9.35496 18.2434ZM12.0072 2.90355L11.6488 2.68851L11.2904 2.54515L11.147 2.40178L2.6886 7.27611V7.49116L4.76736 6.27257L4.9824 6.5593L7.34788 5.19736L7.49124 5.48408L12.0072 2.90355Z" fill="#001C3A"/>
</svg>
