<svg width="20" height="20" viewBox="0 0 20 20" fill="none" xmlns="http://www.w3.org/2000/svg">
<g clip-path="url(#clip0_2559_3652)">
<path d="M13.4186 11.2372L18.437 6.23433C18.6235 6.04858 18.7713 5.82774 18.872 5.58457C18.9727 5.34139 19.0242 5.08069 19.0236 4.81749L19.0321 0.773856C19.0316 0.566415 18.9515 0.367081 18.8082 0.217041L9.18088 9.82316C8.99376 10.0086 8.84524 10.2293 8.74388 10.4725C8.64252 10.7157 8.59033 10.9765 8.59033 11.24C8.59033 11.5035 8.64252 11.7643 8.74388 12.0075C8.84524 12.2507 8.99376 12.4714 9.18088 12.6568L15.9689 19.4236C16.155 19.6087 16.3757 19.7554 16.6184 19.8553C16.8612 19.9551 17.1212 20.0061 17.3837 20.0055C17.6461 20.0048 17.9059 19.9525 18.1482 19.8514C18.3904 19.7504 18.6104 19.6026 18.7955 19.4165C18.9806 19.2305 19.1273 19.0098 19.2271 18.767C19.327 18.5243 19.378 18.2642 19.3774 18.0018C19.3767 17.7393 19.3243 17.4795 19.2233 17.2373C19.1222 16.995 18.9745 16.7751 18.7884 16.59L13.4186 11.2372Z" fill="#008C62"/>
<path d="M18.2473 0.000190962H3.12541C1.90269 0.000190962 1.00016 0.923965 1.00016 2.18495V17.9614C0.996734 18.2294 1.04703 18.4955 1.14808 18.7438C1.24913 18.9921 1.39889 19.2177 1.58852 19.4072C1.77816 19.5967 2.00382 19.7463 2.25221 19.8471C2.5006 19.948 2.76667 19.9981 3.03474 19.9945C3.303 19.9991 3.56945 19.9497 3.8182 19.8491C4.06696 19.7486 4.29293 19.599 4.48265 19.4093C4.67237 19.2196 4.82196 18.9936 4.9225 18.7448C5.02305 18.4961 5.07249 18.2296 5.06789 17.9614V3.89223H15.1274L18.8112 0.226884C18.7374 0.152919 18.6494 0.0946913 18.5525 0.0557261C18.4555 0.0167608 18.3517 -0.0021321 18.2473 0.000190962Z" fill="#00E6A0"/>
</g>
<defs>
<clipPath id="clip0_2559_3652">
<rect width="20" height="20" fill="white"/>
</clipPath>
</defs>
</svg>
