<svg width="20" height="20" viewBox="0 0 20 20" fill="none" xmlns="http://www.w3.org/2000/svg">
<path fill-rule="evenodd" clip-rule="evenodd" d="M0 10V20H10H20V10V0H10H0V10ZM11.5865 4.49589L15.1242 6.46341V8.08002V9.69663L13.4125 10.6023C12.471 11.1004 11.6997 11.5115 11.6984 11.5159C11.6971 11.5202 12.6269 12.1808 13.7646 12.9839L15.8332 14.444L15.8333 16.0104C15.8333 17.3128 15.8315 17.5757 15.8227 17.5704C15.8168 17.5669 14.2916 16.5218 12.4332 15.248L9.05449 12.932V11.263V9.59406L10.5691 8.78762C11.4021 8.34408 12.0809 7.97874 12.0775 7.97577C12.0682 7.96759 8.05401 5.664 8.04911 5.664C8.04678 5.664 8.04487 7.93498 8.04487 10.7106V15.7572L6.67668 16.4885C5.92418 16.8907 5.28595 17.2318 5.25841 17.2464L5.20833 17.2731L5.21033 10.6549L5.21234 4.03678L6.6226 3.28269C7.39824 2.86794 8.03646 2.52855 8.04087 2.52849C8.04527 2.52842 9.64083 3.41376 11.5865 4.49589Z" fill="url(#paint0_linear_3467_21199)"/>
<path d="M11.5867 4.4959L15.1244 6.46342V8.08003V9.69665L13.4127 10.6023C12.4712 11.1005 11.6999 11.5116 11.6986 11.5159C11.6973 11.5202 12.6271 12.1808 13.7648 12.9839L15.8334 14.444L15.8334 16.0104C15.8335 17.3128 15.8317 17.5757 15.8228 17.5704C15.817 17.5669 14.2917 16.5218 12.4334 15.248L9.05466 12.932V11.2631V9.59407L10.5693 8.78764C11.4023 8.3441 12.0811 7.97876 12.0777 7.97578C12.0683 7.96761 8.05418 5.66402 8.04928 5.66402C8.04695 5.66402 8.04504 7.93499 8.04504 10.7106V15.7572L6.67685 16.4885C5.92435 16.8907 5.28612 17.2318 5.25858 17.2464L5.2085 17.2731L5.2105 10.6549L5.21251 4.03679L6.62277 3.2827C7.39841 2.86796 8.03663 2.52857 8.04104 2.5285C8.04544 2.52844 9.641 3.41378 11.5867 4.4959Z" fill="white"/>
<defs>
<linearGradient id="paint0_linear_3467_21199" x1="0" y1="0" x2="20" y2="20" gradientUnits="userSpaceOnUse">
<stop stop-color="#771A4E"/>
<stop offset="1" stop-color="#3A0C4C"/>
</linearGradient>
</defs>
</svg>
