<svg width="32" height="32" viewBox="0 0 32 32" fill="none" xmlns="http://www.w3.org/2000/svg">
<path d="M0 3C0 1.34315 1.34315 0 3 0H29C30.6569 0 32 1.34315 32 3V29C32 30.6569 30.6569 32 29 32H3C1.34315 32 0 30.6569 0 29V3Z" fill="#F15922"/>
<path fill-rule="evenodd" clip-rule="evenodd" d="M15.5345 5.50976C15.2672 5.62214 15.1477 5.70712 14.7606 6.06016C14.4221 6.36895 13.9216 6.74418 13.5212 6.98947C12.3217 7.7243 11.074 8.10704 9.369 8.26321C9.02653 8.29457 8.73121 8.34729 8.55401 8.40864C7.83645 8.65716 7.2946 9.25544 7.09587 10.0186C7.04468 10.2152 7.02626 10.6212 7.0068 11.9811C6.97474 14.2244 7.05319 15.5698 7.30381 17.0744C7.85174 20.364 9.35673 22.862 11.8686 24.6508C13.0873 25.5188 15.3458 26.5654 16.0001 26.5654C16.3729 26.5654 17.3623 26.1913 18.4583 25.6359C19.6098 25.0526 20.4058 24.5114 21.2754 23.7208C22.7167 22.4104 23.8011 20.5996 24.3631 18.5644C24.86 16.7652 25.0376 14.8922 24.9935 11.9191C24.9742 10.615 24.9554 10.2142 24.9044 10.0186C24.7054 9.25528 24.1637 8.65716 23.4462 8.40864C23.269 8.34729 22.9736 8.29457 22.6312 8.26321C20.3044 8.05007 18.7746 7.41423 17.1561 5.98741C16.6977 5.5833 16.4168 5.44101 16.0414 5.42267C15.8296 5.41234 15.7225 5.43072 15.5345 5.50976ZM16.4386 7.00574C18.1155 8.4959 19.9117 9.24656 22.3626 9.48156C22.868 9.53002 23.0421 9.56312 23.1886 9.63843C23.4016 9.74804 23.6204 10.0126 23.6834 10.2366C23.7524 10.4823 23.7857 13.4839 23.7299 14.4393C23.6776 15.3369 23.5986 16.1165 23.4977 16.7323C22.8987 20.3897 21.1046 22.9053 17.9493 24.5125C17.2007 24.8938 16.194 25.3011 16.0001 25.3011C15.9201 25.3011 15.5878 25.1938 15.2564 25.0609C11.2915 23.4711 9.13714 20.7883 8.48522 16.6291C8.28579 15.3566 8.25324 14.7729 8.25724 12.5388C8.25993 11.0498 8.27542 10.3808 8.31005 10.2579C8.37838 10.0154 8.59215 9.75139 8.81161 9.63843C8.95803 9.56312 9.13218 9.53002 9.63755 9.48156C12.0885 9.24656 13.8847 8.4959 15.5616 7.00574C15.7809 6.81086 15.9782 6.65142 16.0001 6.65142C16.022 6.65142 16.2193 6.81086 16.4386 7.00574Z" fill="white"/>
<path d="M16.9382 10.2846C17.3154 10.7388 17.3499 12.2659 17.0521 15.3162C16.7615 18.2933 16.58 18.9126 15.9977 18.9126C15.3146 18.9126 15.1044 18.2088 14.8973 15.2283C14.6177 11.2048 14.632 10.8052 15.071 10.3661C15.5197 9.91744 16.5945 9.87044 16.9382 10.2846Z" fill="white"/>
<path d="M16.8109 20.7841C17.7555 21.5269 17.2163 23 16 23C14.8419 23 14.2988 21.6853 15.1033 20.8288C15.6037 20.2964 16.1722 20.2815 16.8109 20.7841Z" fill="white"/>
</svg>
