<svg width="20" height="20" viewBox="0 0 20 20" fill="none" xmlns="http://www.w3.org/2000/svg">
<g clip-path="url(#clip0_5681_44690)">
<path fill-rule="evenodd" clip-rule="evenodd" d="M18.9705 8.15221C18.8489 8.1521 18.7284 8.17485 18.6154 8.21931C15.5507 6.82832 12.5165 7.28622 10.0007 9.39811C7.48925 7.28622 4.4496 6.82831 1.39034 8.21931C1.27732 8.17485 1.15686 8.1521 1.03531 8.15221C0.785625 8.15475 0.546465 8.25262 0.367295 8.42548C0.188115 8.59829 0.082595 8.83296 0.072555 9.08099C0.066605 9.32239 0.152595 9.55712 0.313345 9.73821C0.474085 9.91931 0.697715 10.0334 0.939455 10.0576C1.18119 10.0818 1.42323 10.0144 1.61709 9.86883C1.81095 9.7233 1.94237 9.51034 1.98501 9.27258C4.49972 7.9736 6.99484 8.40008 9.20024 10.2988C8.93083 10.6591 8.68667 11.0374 8.46945 11.431C6.90554 14.8279 7.77025 17.624 9.99415 20C12.3902 17.2559 13.1035 14.2011 10.9809 10.7079C10.9602 10.6744 10.2262 11.6454 10.2512 11.6919C11.52 14.0398 11.2096 16.2189 9.99415 18.2052C8.12747 16.0468 8.65458 12.389 10.799 10.3031C13.0011 8.40444 15.4995 7.97686 18.0143 9.27689C18.0552 9.51625 18.1861 9.7312 18.3804 9.87833C18.5747 10.0254 18.818 10.0937 19.0611 10.0694C19.3041 10.0451 19.5288 9.92992 19.6897 9.74722C19.8506 9.56452 19.9357 9.32798 19.9278 9.0853C19.9173 8.83799 19.8126 8.60393 19.6348 8.43062C19.4569 8.25731 19.2195 8.15773 18.9705 8.15221ZM18.0926 5.73716C18.0925 5.53861 18.0302 5.34498 17.9145 5.18307C17.7988 5.02118 17.6353 4.89904 17.4467 4.83354C17.2581 4.76804 17.0537 4.76241 16.8617 4.81745C16.6697 4.87249 16.4997 4.98546 16.3751 5.14073C14.1575 4.85995 11.9099 5.33875 10.0028 6.49817C8.09417 5.33787 5.84449 4.85904 3.62512 5.14073C3.54008 5.03418 3.43319 4.94684 3.31155 4.88453C3.18991 4.82223 3.05633 4.78638 2.91967 4.77937C2.78302 4.77236 2.64643 4.79435 2.51898 4.84389C2.39154 4.89342 2.27617 4.96936 2.18055 5.06664C2.08493 5.16393 2.01125 5.28034 1.96441 5.40811C1.91757 5.53591 1.89862 5.67216 1.90887 5.8078C1.91911 5.94344 1.9583 6.07533 2.02381 6.19473C2.08932 6.31413 2.17965 6.4183 2.28882 6.50031L2.26921 6.52848L2.31169 6.51655C2.41962 6.59321 2.54231 6.64683 2.67207 6.67417C2.80184 6.70151 2.93588 6.70195 3.06581 6.67544C3.19574 6.64893 3.31877 6.59602 3.42719 6.52008C3.53562 6.44414 3.6271 6.34672 3.69591 6.23405C4.80112 6.07306 5.92749 6.13171 7.0097 6.40653C8.09196 6.68135 9.10855 7.16687 10.0007 7.83502C10.8928 7.16736 11.9093 6.68234 12.9914 6.40807C14.0735 6.1338 15.1995 6.07576 16.3043 6.23725C16.3733 6.35003 16.4648 6.4474 16.5733 6.52339C16.6819 6.59933 16.805 6.65224 16.935 6.67875C17.065 6.70526 17.1992 6.70482 17.329 6.67748C17.4589 6.65014 17.5817 6.59646 17.6897 6.5198L17.731 6.53173L17.7114 6.50356C17.8305 6.41398 17.9269 6.29811 17.993 6.16506C18.0592 6.03207 18.0933 5.88556 18.0926 5.73716ZM13.8779 2.13466C13.7053 2.13462 13.5358 2.18059 13.3872 2.26779C13.2385 2.35499 13.1161 2.48022 13.0328 2.63044C11.9633 2.86721 10.9398 3.27599 10.0029 3.84066V3.84716C10.0026 3.84501 10.0026 3.84282 10.0029 3.84066C9.0656 3.27599 8.04182 2.86721 6.97198 2.63044C6.87268 2.45121 6.7183 2.30824 6.53141 2.22243C6.34452 2.13662 6.13493 2.11246 5.93329 2.15348C5.73159 2.1945 5.5484 2.29856 5.41044 2.45043C5.27252 2.60231 5.18705 2.79406 5.16657 2.99765C5.14609 3.20125 5.19166 3.40601 5.29661 3.58204C5.40155 3.75806 5.56039 3.89611 5.74988 3.97601C5.93943 4.05591 6.14968 4.07348 6.34994 4.02615C6.5502 3.97881 6.73002 3.86906 6.86307 3.71293C7.99935 3.98315 9.06819 4.48116 10.004 5.17645C10.9393 4.48131 12.0079 3.98363 13.1439 3.71401C13.2483 3.83726 13.3824 3.93235 13.5337 3.99047C13.685 4.0486 13.8486 4.06789 14.0093 4.04657C14.1701 4.02525 14.3228 3.96399 14.4534 3.86847C14.5841 3.77295 14.6884 3.64625 14.7568 3.50006C14.8251 3.35387 14.8553 3.19293 14.8445 3.03209C14.8337 2.87125 14.7823 2.71571 14.695 2.57984C14.6077 2.44397 14.4874 2.33216 14.3452 2.25472C14.2029 2.17729 14.0434 2.13675 13.8812 2.13683L13.8779 2.13466ZM10.0007 2.48972C10.6925 2.48972 11.2532 1.93238 11.2532 1.24486C11.2532 0.55734 10.6925 0 10.0007 0C9.30903 0 8.74831 0.55734 8.74831 1.24486C8.74831 1.93238 9.30904 2.48972 10.0007 2.48972Z" fill="#04BFBF"/>
</g>
<defs>
<clipPath id="clip0_5681_44690">
<rect width="20" height="20" fill="white"/>
</clipPath>
</defs>
</svg>
