<svg width="20" height="20" viewBox="0 0 20 20" fill="none" xmlns="http://www.w3.org/2000/svg">
<path d="M10 20C15.5228 20 20 15.5228 20 10C20 4.47715 15.5228 0 10 0C4.47715 0 0 4.47715 0 10C0 15.5228 4.47715 20 10 20Z" fill="black"/>
<path fill-rule="evenodd" clip-rule="evenodd" d="M14.8019 8.05375C14.8375 8.01812 14.9081 8.01813 14.9775 8.01813C16.0319 8.01813 16.875 8.91062 16.875 9.9825C16.875 10.9825 16.1375 11.7681 15.1888 11.9462H14.9775C14.6263 11.9462 14.275 11.8394 13.9587 11.6606C13.8561 11.5884 13.733 11.5509 13.6075 11.5538C13.4669 11.5538 13.3262 11.5894 13.2212 11.6606C12.975 11.8038 12.87 12.0538 12.87 12.3394V12.6606C12.833 13.1018 12.645 13.5168 12.3377 13.8355C12.0304 14.1543 11.6227 14.3574 11.1831 14.4106H10.9725C10.6212 14.4106 10.27 14.3038 9.95375 14.125C9.81312 14.0538 9.70812 14.0181 9.5675 14.0181C9.42687 14.0181 9.28625 14.0538 9.18062 14.125C8.935 14.2681 8.82937 14.5181 8.82937 14.8038V15.125C8.75937 16.0538 8.02125 16.7681 7.10813 16.875H6.9325C5.87812 16.875 5.035 15.9819 5.035 14.9106C5.07 13.9106 5.7725 13.0894 6.72125 12.9819H6.9325C7.28375 12.9819 7.635 13.0894 7.95125 13.2681C8.05389 13.3404 8.177 13.3779 8.3025 13.375C8.44313 13.375 8.58375 13.3394 8.68875 13.2681C8.935 13.125 9.04 12.875 9.04 12.5894C8.97 11.5538 9.70813 10.625 10.7269 10.5181H10.9375C11.2888 10.5181 11.64 10.625 11.9562 10.8037C12.0969 10.875 12.2025 10.9106 12.3431 10.9106C12.4831 10.9106 12.6244 10.875 12.7294 10.8037C12.975 10.6606 13.0806 10.4106 13.0806 10.125C13.0106 9.08938 13.7831 8.16062 14.8019 8.05375ZM10.7625 5.58938C10.8325 5.55375 10.8681 5.55375 10.9731 5.55375C12.0275 5.55375 12.8706 6.44625 12.8706 7.51813C12.8356 8.51813 12.1331 9.33938 11.1837 9.44625H10.9731C10.6219 9.44625 10.2706 9.33937 9.95438 9.16062C9.85174 9.08835 9.72863 9.05089 9.60312 9.05375C9.4625 9.05375 9.32187 9.08937 9.21688 9.16062C8.97062 9.30375 8.865 9.55375 8.865 9.83938V10.1606C8.795 11.0887 8.0575 11.8031 7.14375 11.9106H6.96813C5.91438 11.9106 5.07062 11.0181 5.07062 9.94625C5.07062 8.9825 5.77375 8.19625 6.72188 8.05375H6.93313C7.28438 8.05375 7.63562 8.16063 7.95187 8.33938C8.05451 8.41165 8.17762 8.44911 8.30312 8.44625C8.44375 8.44625 8.58437 8.41063 8.68937 8.33938C8.93562 8.19625 9.04063 7.94625 9.04063 7.66062C8.97063 6.625 9.74375 5.69625 10.7625 5.58938ZM6.8975 3.125C7.945 3.125 8.79437 3.98875 8.79437 5.05375C8.79437 6.11875 7.94438 6.98187 6.8975 6.98187C5.84938 6.98187 5 6.11875 5 5.05375C5 3.98875 5.85 3.125 6.8975 3.125Z" fill="url(#paint0_linear)"/>
<defs>
<linearGradient id="paint0_linear" x1="13.25" y1="5.5" x2="6.75" y2="13.75" gradientUnits="userSpaceOnUse">
<stop stop-color="#FFE901"/>
<stop offset="1" stop-color="#F5C803"/>
</linearGradient>
</defs>
</svg>
