<svg width="20" height="20" viewBox="0 0 20 20" fill="none" xmlns="http://www.w3.org/2000/svg">
<circle cx="10" cy="10" r="10" fill="white"/>
<path fill-rule="evenodd" clip-rule="evenodd" d="M8.32639 0.148096C4.65659 0.813996 1.72759 3.3303 0.525586 6.85C-1.24051 12.0217 1.58909 17.6732 6.84299 19.4674C10.8205 20.8257 15.3705 19.4315 17.8954 16.0808C20.266 12.9347 20.6406 8.9659 18.894 5.5C16.9399 1.6224 12.5247 -0.613704 8.32639 0.148096ZM7.30079 4.0274C8.36979 4.7477 8.36489 6.0544 7.29059 6.78C7.01169 6.9684 6.84409 7.0071 6.44299 6.9758C6.16799 6.9543 5.87159 6.904 5.78429 6.8639C5.66259 6.8081 5.55469 6.9262 5.32149 7.3706C4.80339 8.3578 4.65209 8.9546 4.65479 10C4.65879 11.529 5.14989 12.7249 6.20899 13.784C7.25589 14.8309 8.49509 15.3406 9.99299 15.3406C12.4069 15.3406 14.3587 13.8874 15.1511 11.5C15.3877 10.7872 15.3951 9.2646 15.1657 8.523C14.5045 6.3862 12.7686 4.9393 10.518 4.649L9.99299 4.5812V4.1906V3.8H10.422C10.6579 3.8 11.1192 3.8682 11.447 3.9515C13.6558 4.513 15.48 6.3372 16.0415 8.546C16.2357 9.3098 16.2357 10.6902 16.0415 11.454C15.48 13.6628 13.6558 15.487 11.447 16.0485C10.6832 16.2427 9.30279 16.2427 8.53899 16.0485C6.83969 15.6165 5.19049 14.3032 4.45969 12.8C3.90809 11.6655 3.75979 10.9465 3.82049 9.7012C3.87919 8.4949 4.09899 7.7565 4.68949 6.7817C4.96909 6.3199 5.04799 6.1047 4.98249 5.9816C4.93329 5.8889 4.89299 5.6143 4.89299 5.3714C4.89299 4.179 6.33309 3.3752 7.30079 4.0274ZM5.98529 4.8923C5.66719 5.2104 5.63449 5.3622 5.80399 5.7343C5.91579 5.9795 6.27149 6.2 6.55539 6.2C6.78329 6.2 7.29299 5.6472 7.29299 5.4C7.29299 5.1216 6.77139 4.6 6.49299 4.6C6.37449 4.6 6.14609 4.7315 5.98529 4.8923ZM11.2523 7.9552C11.5517 8.1403 11.8537 8.4429 12.0404 8.7448C12.3082 9.1781 12.343 9.3223 12.343 10C12.343 10.6777 12.3082 10.8219 12.0404 11.2552C11.8528 11.5586 11.5516 11.8598 11.2482 12.0474C10.8149 12.3152 10.6707 12.35 9.99299 12.35C9.31529 12.35 9.17109 12.3152 8.73779 12.0474C7.13909 11.0589 7.23519 8.7034 8.90879 7.8568C9.65169 7.4811 10.5462 7.5186 11.2523 7.9552Z" fill="#CF1011"/>
</svg>
