<svg width="20" height="20" viewBox="0 0 20 20" fill="none" xmlns="http://www.w3.org/2000/svg">
<path fill-rule="evenodd" clip-rule="evenodd" d="M17.9688 3.96875C16.4531 2.03125 14.2344 0.796875 11.7813 0.796875C7.03125 0.796875 3.54688 5.21875 3.54688 10C3.54688 13.3281 5.76562 15.8281 8.21875 15.8281C8.45312 15.8281 8.67188 15.8125 8.90625 15.7656C7.25 14.5625 6.20313 12.375 6.20313 10C6.20313 6.21875 8.76563 3.26562 11.7813 3.26562C15.0781 3.26562 17.3594 6.53125 17.3594 10C17.3437 12.5625 16.4375 15.1094 14.8281 16.9844C13.4219 18.625 11.6094 19.6563 9.60938 19.9844C9.60938 19.9844 9.78125 20 10 20C15.5156 20 20 15.5156 20 10C20 7.73438 19.25 5.64062 17.9688 3.96875ZM16.4531 10C16.4531 6.67188 14.2344 4.17188 11.7813 4.17188C11.5469 4.17188 11.3281 4.1875 11.0938 4.23438C12.75 5.4375 13.7969 7.625 13.7969 10C13.7969 13.7813 11.2344 16.7344 8.21875 16.7344C4.92187 16.7344 2.64062 13.4688 2.64062 10C2.65625 7.4375 3.5625 4.89062 5.17187 3.01562C6.57812 1.375 8.39062 0.34375 10.3906 0.015625C10.3906 0.015625 10.2187 0 10 0C4.48438 0 0 4.48438 0 10C0 12.2656 0.75 14.3594 2.03125 16.0312C3.54687 17.9687 5.76562 19.1875 8.21875 19.1875C12.9687 19.2031 16.4531 14.7813 16.4531 10Z" fill="#0092F6"/>
</svg>
