<svg width="20" height="20" viewBox="0 0 20 20" fill="none" xmlns="http://www.w3.org/2000/svg">
<path d="M10 20C15.5228 20 20 15.5228 20 10C20 4.47715 15.5228 0 10 0C4.47715 0 0 4.47715 0 10C0 15.5228 4.47715 20 10 20Z" fill="url(#paint0_linear)"/>
<path fill-rule="evenodd" clip-rule="evenodd" d="M15.7197 5.05775C15.5772 6.54602 14.4273 10.0738 10.9678 12.2787L10.4534 14.2148L8.64245 15.446L8.10457 13.449C7.94004 13.4714 7.49702 13.4525 7.04115 13.1974L6.31179 13.8142L5.67033 13.0557L6.3997 12.4389C6.27713 12.1756 6.11145 11.5418 6.42928 11.1129C6.01289 10.9046 5.03537 10.4902 4.59866 10.3091L6.1136 8.72781L8.03423 8.45464C9.20055 7.1514 12.3705 4.64749 15.7197 5.05775ZM10.6142 9.50058C10.962 9.91186 11.5774 9.96332 11.9887 9.61552C12.3999 9.26773 12.4514 8.65237 12.1036 8.24109C11.7558 7.82982 11.1405 7.77835 10.7292 8.12615C10.3179 8.47395 10.2664 9.0893 10.6142 9.50058Z" fill="white"/>
<path fill-rule="evenodd" clip-rule="evenodd" d="M1.99072 15.8546L4.41284 13.9517L5.03064 14.738L2.60852 16.641L1.99072 15.8546Z" fill="white"/>
<path fill-rule="evenodd" clip-rule="evenodd" d="M1.51489 13.9517L3.93701 12.0487L4.55481 12.835L2.13269 14.738L1.51489 13.9517Z" fill="white"/>
<path fill-rule="evenodd" clip-rule="evenodd" d="M3.93701 17.0657L6.35913 15.1627L6.97693 15.9491L4.55481 17.852L3.93701 17.0657Z" fill="white"/>
<defs>
<linearGradient id="paint0_linear" x1="20" y1="2.78088" x2="-4.99575e-07" y2="17.9611" gradientUnits="userSpaceOnUse">
<stop stop-color="#EB8263"/>
<stop offset="1" stop-color="#F6BF79"/>
</linearGradient>
</defs>
</svg>
