<svg width="20" height="20" fill="none" xmlns="http://www.w3.org/2000/svg"><path d="M10 20c5.523 0 10-4.477 10-10S15.523 0 10 0 0 4.477 0 10s4.477 10 10 10z" fill="#F0F0F0"/><path d="M10 0C4.477 0 0 4.477 0 10c0 1.223.22 2.395.622 3.478h18.756A9.977 9.977 0 0020 10c0-5.523-4.477-10-10-10z" fill="#0052B4"/><path d="M.622 6.522a10.004 10.004 0 0118.756 0H10v4.119c0 2.837-3.707 3.707-3.707 3.707s-3.707-.87-3.707-3.707V6.52H.622z" fill="#D80027"/><path d="M8.467 6.522H4.119v-1.74l.87.435 1.304-1.304 1.304 1.304.87-.434v1.739zM6.304 8.509l2.826 2.826-.922.922-1.904-1.903-1.903 1.903-.923-.922L6.304 8.51z" fill="#FFDA44"/><path d="M9.13 8.696H7.812a.87.87 0 10-1.519-.845.87.87 0 10-1.519.845H3.478c0 .48.419.87.899.87h-.03c0 .48.39.869.87.869a.87.87 0 00.71.854l-.686 1.547a2.819 2.819 0 002.127 0l-.685-1.547a.87.87 0 00.708-.854c.48 0 .87-.39.87-.87h-.029c.48 0 .898-.389.898-.87z" fill="#F0F0F0"/></svg>