<svg width="20" height="20" viewBox="0 0 20 20" fill="none" xmlns="http://www.w3.org/2000/svg">
<circle cx="10" cy="10" r="10" fill="white"/>
<path fill-rule="evenodd" clip-rule="evenodd" d="M8.96587 0.0263191C7.32463 0.233499 5.82023 0.764912 4.56712 1.5802C2.28177 3.06701 0.743802 5.32087 0.163102 8.03415C-0.0218584 8.89824 -0.0571624 10.8406 0.0967171 11.6813C0.481658 13.7841 1.42557 15.5776 2.93826 17.0808C3.85241 17.9891 4.57515 18.5007 5.71758 19.0481C7.10014 19.7106 8.38946 19.9992 9.96959 20C11.165 20.0007 12.048 19.8606 13.1518 19.4952C14.6758 18.9908 15.9304 18.2151 17.0638 17.0765C19.1504 14.9803 20.1942 12.1614 19.9639 9.24449C19.7689 6.77342 18.8209 4.7167 17.0656 2.95626C15.6258 1.51223 13.9718 0.60148 12.0439 0.191066C11.3697 0.0475002 9.56353 -0.0491325 8.96587 0.0263191ZM8.87769 4.39981C8.93805 4.43822 8.96795 4.80157 8.98152 5.66206L9.00048 6.8704H10.0388H11.0771L11.0962 5.69861C11.1081 4.96126 11.144 4.49215 11.1929 4.43324C11.2519 4.36215 11.4644 4.34429 12.0738 4.35904L12.8769 4.37842L12.9115 5.62441L12.9461 6.8704L14.019 6.90501L15.092 6.93962L15.1122 7.66644C15.1434 8.79046 15.2411 8.69785 14.0008 8.72027L12.9461 8.73938L12.9271 9.94162C12.9143 10.7566 12.9332 11.1742 12.9861 11.2377C13.0436 11.3072 13.3279 11.3366 14.078 11.3507L15.092 11.3698L15.1114 12.1729C15.1261 12.7812 15.1082 12.9948 15.0374 13.0535C14.9807 13.1005 14.5519 13.1385 13.9451 13.1502L12.9461 13.1696L12.9272 14.4003L12.9083 15.631L12.0273 15.6117L11.1464 15.5923L11.1275 14.3636L11.1086 13.1349H10.0388H8.96906L8.95016 14.3636L8.93126 15.5923H8.06599H7.20072L7.16611 14.3809L7.1315 13.1696L6.13249 13.1502C5.5257 13.1385 5.09687 13.1005 5.04018 13.0535C4.96943 12.9948 4.9515 12.7812 4.96625 12.1729L4.98563 11.3698L5.99966 11.3507C6.74967 11.3366 7.03397 11.3072 7.09156 11.2377C7.14437 11.1742 7.16334 10.7566 7.15047 9.94162L7.1315 8.73938L6.07677 8.72027C4.83653 8.69785 4.9342 8.79046 4.96542 7.66644L4.98563 6.93962L6.05857 6.90501L7.1315 6.8704L7.14936 5.69363C7.15919 5.04641 7.18162 4.47796 7.19913 4.43033C7.23519 4.33246 8.72886 4.30532 8.87769 4.39981ZM8.98166 10.0027L9.00048 11.3006H10.0388H11.0771L11.096 10.0027L11.1148 8.70477H10.0388H8.96283L8.98166 10.0027Z" fill="black"/>
</svg>
