<svg width="21" height="20" viewBox="0 0 21 20" fill="none" xmlns="http://www.w3.org/2000/svg">
<g clip-path="url(#clip0)">
<path d="M10.8823 20C16.4051 20 20.8823 15.5228 20.8823 10C20.8823 4.47715 16.4051 0 10.8823 0C5.35947 0 0.882324 4.47715 0.882324 10C0.882324 15.5228 5.35947 20 10.8823 20Z" fill="#F0F0F0"/>
<path d="M20.2603 13.4782C20.6623 12.3949 20.8823 11.2232 20.8823 9.99997C20.8823 8.77677 20.6623 7.60505 20.2603 6.52173H1.50432C1.10236 7.60505 0.882324 8.77677 0.882324 9.99997C0.882324 11.2232 1.10236 12.3949 1.50432 13.4782L10.8823 14.3478L20.2603 13.4782Z" fill="#005AC5"/>
<path d="M10.8822 20C15.1818 20 18.8472 17.2863 20.2602 13.4783H1.50415C2.91708 17.2863 6.58251 20 10.8822 20Z" fill="#D80027"/>
</g>
<defs>
<clipPath id="clip0">
<rect width="20" height="20" fill="white" transform="translate(0.882324)"/>
</clipPath>
</defs>
</svg>
