<svg width="20" height="20" viewBox="0 0 20 20" fill="none" xmlns="http://www.w3.org/2000/svg">
<path fill-rule="evenodd" clip-rule="evenodd" d="M10 20C15.5228 20 20 15.5228 20 10C20 4.47715 15.5228 0 10 0C4.47715 0 0 4.47715 0 10C0 15.5228 4.47715 20 10 20ZM10 19.5049C15.2494 19.5049 19.5049 15.2494 19.5049 10C19.5049 4.75056 15.2494 0.49505 10 0.49505C4.75056 0.49505 0.49505 4.75056 0.49505 10C0.49505 15.2494 4.75056 19.5049 10 19.5049Z" fill="url(#paint0_linear_2151_3052)"/>
<ellipse cx="10.0496" cy="9.95052" rx="9.05941" ry="9.05941" fill="url(#paint1_linear_2151_3052)"/>
<path fill-rule="evenodd" clip-rule="evenodd" d="M14.9012 0.528036C14.9854 0.65665 15.1061 1.00883 15.1695 1.31081C15.2751 1.81447 15.2618 1.93447 15.0076 2.76299C14.7827 3.49615 14.7432 3.76695 14.7974 4.2012C14.8562 4.67209 14.8407 4.74873 14.6676 4.8413C14.118 5.13556 14.0717 5.44081 14.5469 5.63774C14.9255 5.79457 15.7416 6.63101 15.5158 6.63101C15.2559 6.63101 15.3125 6.81665 15.7044 7.25041C16.0867 7.67358 16.372 8.24932 16.4748 8.80556L16.5383 9.14853L16.1899 8.81071C15.6702 8.30705 15.6038 8.52586 15.9953 9.45279C16.1891 9.9116 16.3295 10.4115 16.329 10.6409L16.3281 11.0369L16.1321 10.6657C15.9473 10.3157 15.6584 10.1298 15.7762 10.4366C15.974 10.9523 16.0433 11.5066 16.0186 12.3752C15.9912 13.3378 15.9849 13.3622 15.817 13.1572C15.7217 13.0409 15.6437 12.8838 15.6437 12.8081C15.6437 12.5735 15.4706 12.657 15.4035 12.9241C15.3165 13.271 15.4306 13.8431 15.6638 14.23C15.9212 14.6566 15.7988 14.6379 15.3862 14.1874C15.2026 13.9869 15.0205 13.8549 14.9815 13.8939C14.9425 13.9329 14.9922 14.1749 15.092 14.4316C15.358 15.1163 15.6684 16.2434 15.6076 16.3041C15.5787 16.3331 15.267 16.1957 14.9149 15.9988C14.4853 15.7586 14.1483 15.6409 13.8897 15.6409C13.3369 15.6409 12.517 16.0811 12.159 16.5701C11.8718 16.9624 11.8625 17.0076 11.9092 17.7881C11.9484 18.4437 11.9297 18.6094 11.8114 18.6549C11.1668 18.9022 8.41147 18.9522 8.04107 18.7233C7.95513 18.6701 7.95305 18.5528 8.03286 18.2639C8.09177 18.0504 8.12078 17.6435 8.09721 17.3595C8.04236 16.6983 7.70464 16.2432 7.01325 15.8986C6.29622 15.5414 5.85325 15.5621 5.09048 15.9886C4.70939 16.2017 4.44434 16.2968 4.40583 16.2344C4.29038 16.0476 4.47206 15.0043 4.71434 14.4625C4.84593 14.1682 4.93206 13.9062 4.90593 13.88C4.87979 13.8538 4.69929 13.972 4.50503 14.1426C4.31068 14.3132 4.13325 14.4528 4.11068 14.4528C4.0881 14.4528 4.12929 14.3079 4.20206 14.131C4.47939 13.4569 4.50711 12.5716 4.25097 12.5716C4.20018 12.5716 4.1586 12.6761 4.1586 12.8038C4.1586 12.9315 4.08068 13.1057 3.98533 13.1909C3.82167 13.3373 3.81058 13.2909 3.78612 12.3548C3.76345 11.4864 3.83127 10.9446 4.02612 10.4366C4.05622 10.3584 4.02929 10.2944 3.96632 10.2944C3.90335 10.2944 3.76226 10.4837 3.65276 10.7152L3.45365 11.136L3.49513 10.6409C3.518 10.3686 3.69672 9.74645 3.89246 9.25833C4.0881 8.77021 4.23761 8.36021 4.22464 8.34724C4.21167 8.33427 3.99157 8.50279 3.73543 8.7217L3.26979 9.11972L3.33395 8.7912C3.44206 8.23813 3.73127 7.65625 4.10216 7.24576C4.48959 6.81695 4.54573 6.63101 4.28771 6.63101C4.05949 6.63101 4.63731 6.02912 5.29593 5.58091C5.56741 5.39606 5.73791 5.24487 5.67474 5.24487C5.61157 5.24487 5.42097 5.12794 5.25107 4.98497C4.96929 4.74784 4.94771 4.68873 5.00464 4.30912C5.04493 4.04021 4.98969 3.51556 4.8484 2.82546C4.62573 1.73804 4.62979 1.16744 4.86395 0.653481C5.03969 0.267838 5.32741 0.327442 5.99523 0.887541C8.42602 2.92655 8.44068 2.93536 9.06464 2.72348C9.61751 2.53576 10.2227 2.53566 10.7428 2.72299C11.4261 2.96922 11.294 3.04754 13.7111 0.962689C14.1372 0.595066 14.5448 0.294373 14.617 0.294373C14.6891 0.294373 14.817 0.399521 14.9012 0.528036ZM5.44345 1.03833C5.39028 1.0712 5.34672 1.05091 5.34672 0.993283C5.34672 0.828927 5.47236 0.86665 5.94612 1.17338C7.02048 1.86873 8.11493 3.36893 7.72404 3.61051C7.66761 3.64546 7.65157 3.60487 7.68622 3.51467C7.72058 3.42516 7.63038 3.1912 7.47503 2.96714C7.09979 2.42556 5.56167 0.965264 5.44345 1.03833ZM12.0883 3.31091C12.0761 2.9021 12.9753 1.82596 13.7754 1.2916C14.4289 0.855165 14.5061 0.828828 14.6145 1.00427C14.6633 1.08309 14.6313 1.09903 14.5146 1.05427C14.2824 0.965165 12.3125 2.87002 12.1858 3.30625L12.0972 3.6112L12.0883 3.31091ZM7.09187 6.73002C6.85464 6.73002 6.98196 6.57467 7.27741 6.50358C8.01622 6.32586 8.38652 6.47804 8.60335 7.04843C8.70305 7.31061 8.59385 7.5317 8.46652 7.32566C8.43236 7.27031 8.2588 7.22507 8.08088 7.22507C7.86394 7.22507 7.68097 7.14358 7.52493 6.97754C7.39701 6.8414 7.20216 6.73002 7.09187 6.73002ZM11.4061 7.34388C11.1953 7.55467 11.2667 7.03705 11.4921 6.72051C11.6576 6.48804 11.7701 6.43299 12.0797 6.43299C12.2903 6.43299 12.588 6.48457 12.7413 6.54754C12.9879 6.64893 12.9972 6.66744 12.822 6.70813C12.7131 6.73338 12.498 6.86002 12.344 6.98952C12.1902 7.11912 11.9429 7.22507 11.7945 7.22507C11.6462 7.22507 11.4715 7.27853 11.4061 7.34388ZM9.2081 7.75437C9.0789 7.85378 9.07721 7.84615 9.19543 7.69536C9.27038 7.59982 9.4481 7.52813 9.59147 7.53556L9.85167 7.54903L9.60414 7.59457C9.468 7.61962 9.28979 7.6915 9.2081 7.75437ZM9.40414 7.97002C9.2683 8.13368 9.14701 8.09714 9.25355 7.92477C9.28939 7.86665 9.36622 7.81912 9.42404 7.81912C9.48979 7.81912 9.48226 7.87596 9.40414 7.97002ZM11.851 10.0697C11.8258 10.1661 11.8036 10.1112 11.8017 9.94784C11.7997 9.78447 11.8202 9.70566 11.8473 9.77269C11.8744 9.83972 11.8761 9.97338 11.851 10.0697ZM9.50523 11.606C8.89038 11.299 8.74286 10.4928 9.238 10.146C9.35543 10.0637 9.66335 9.99734 9.92771 9.99734C10.5272 9.99734 10.8913 10.3066 10.8913 10.8159C10.8913 11.1581 10.5515 11.5792 10.1652 11.7156C9.85989 11.8234 10.0416 12.0253 10.4727 12.0572C11.2525 12.115 11.6258 11.7498 11.8704 10.6904L11.9733 10.2449L11.9274 10.8058C11.9023 11.1143 11.8557 11.434 11.8241 11.5164C11.7797 11.6323 11.8745 11.6817 12.2448 11.7355C13.0585 11.8536 13.0695 11.8684 13.0695 12.8563C13.0695 15.4998 11.8542 17.2251 9.99206 17.2251C8.33246 17.2251 7.2182 15.8512 6.91276 13.4283C6.75573 12.1833 6.83127 11.9816 7.53236 11.773C7.89444 11.6653 8.0585 11.5676 8.03573 11.4736C8.01711 11.3967 7.98375 11.0889 7.96147 10.7894L7.92097 10.2449L8.05147 10.8133C8.24791 11.6699 8.7882 12.1287 9.5181 12.0589C9.94919 12.0177 9.94365 11.8248 9.50523 11.606ZM14.4591 12.9742C14.4028 12.8688 14.3618 12.6349 14.368 12.4544L14.3794 12.1261L14.4541 12.514C14.4952 12.7273 14.6059 12.9583 14.7002 13.0272C15.1088 13.3261 14.533 13.4838 14.0909 13.1941C13.8355 13.0268 13.8335 13.0274 13.9463 13.2381C14.0092 13.3556 14.1057 13.4795 14.1608 13.5135C14.2799 13.5871 14.1933 13.7597 14.0372 13.7597C13.9769 13.7597 13.9558 13.7315 13.9904 13.6969C14.0248 13.6624 13.9654 13.5228 13.8583 13.3866C13.6238 13.0884 13.5944 12.5716 13.8121 12.5716C13.8937 12.5716 13.9606 12.6162 13.9606 12.6706C13.9606 12.8008 14.328 13.1657 14.4591 13.1657C14.5298 13.1657 14.5298 13.1062 14.4591 12.9742ZM5.25088 13.2857C4.95622 13.4697 4.91899 13.3308 5.11513 12.7788C5.32632 12.184 5.39533 12.1349 5.31375 12.6373C5.26899 12.9132 5.28246 12.9725 5.37008 12.8849C5.43345 12.8215 5.5481 12.7696 5.62474 12.7696C5.78325 12.7696 5.7089 13.2406 5.52315 13.4132C5.4489 13.4822 5.43503 13.4596 5.47751 13.3389C5.54959 13.1341 5.5089 13.1246 5.25088 13.2857Z" fill="#DEE0E0"/>
<path fill-rule="evenodd" clip-rule="evenodd" d="M9.35751 12.6278C9.5584 12.6655 9.98573 12.6725 10.3071 12.6434C10.6625 12.6111 10.8687 12.627 10.8335 12.684C10.7408 12.8341 11.2949 12.6666 11.7392 12.4104C12.0609 12.2249 12.1676 12.2029 12.2714 12.3007C12.3754 12.3988 12.3923 12.3936 12.3563 12.2746C12.2807 12.0246 11.8976 12.0482 11.4119 12.3329L10.9494 12.604L11.311 12.2316C11.6519 11.8805 11.6968 11.8633 12.0987 11.9299C12.8981 12.0624 12.9036 12.0715 12.8453 13.1512C12.7196 15.4766 11.7223 16.9089 10.1594 17.0084C9.48513 17.0514 9.03701 16.9117 8.47573 16.4836C8.07236 16.176 7.50157 15.1261 7.2884 14.3C7.10018 13.5704 6.98989 12.3617 7.0988 12.2218C7.14256 12.1655 7.40117 12.0503 7.67345 11.9658L8.1685 11.812L8.58038 12.1857C8.82335 12.4061 9.14216 12.5874 9.35751 12.6278ZM7.66226 12.4819C7.49256 12.6227 7.47909 12.459 7.64662 12.2915C7.79919 12.1389 8.25286 12.2269 8.69355 12.4946C9.16692 12.7822 9.01167 12.8215 8.36216 12.5784C7.92998 12.4167 7.76771 12.3944 7.66226 12.4819ZM7.61276 13.3072C7.45375 13.2089 7.52107 12.9998 7.74771 12.8881C7.97711 12.7751 8.6483 12.8257 8.91107 12.9758C9.0083 13.0313 9.01682 13.0617 8.93583 13.0637C8.86781 13.0653 8.81206 13.1411 8.81206 13.2321C8.81206 13.3231 8.7383 13.479 8.6482 13.5786C8.44919 13.7985 8.05295 13.8202 8.05295 13.6112C8.05295 13.4334 8.13721 13.4215 8.29305 13.5773C8.4285 13.7128 8.71305 13.5264 8.71305 13.3021C8.71305 13.1318 8.54889 13.1228 8.48127 13.2894C8.44266 13.3848 8.4089 13.3814 8.33454 13.275C8.28147 13.199 8.1689 13.1633 8.08454 13.1957C7.97533 13.2376 7.948 13.2103 7.98998 13.1011C8.03286 12.9894 7.99771 12.958 7.86117 12.9862C7.75781 13.0073 7.67959 13.1004 7.68701 13.1932C7.69444 13.2858 7.66107 13.3371 7.61276 13.3072ZM10.9728 13.042C11.0448 12.9531 11.2231 12.8602 11.3688 12.8356C11.7259 12.7753 12.2883 12.8399 12.4029 12.9545C12.461 13.0126 12.4521 13.1163 12.3792 13.2304C12.2792 13.3869 12.2701 13.3885 12.3157 13.2414C12.3491 13.1338 12.2964 13.0308 12.1747 12.9657C12.0019 12.8732 11.9804 12.8942 11.9804 13.1564C11.9804 13.3184 11.9351 13.479 11.8798 13.5132C11.8244 13.5474 11.8047 13.6168 11.8361 13.6675C11.9528 13.8563 11.5089 13.7517 11.3274 13.5476C11.1403 13.3373 11.1405 13.3366 11.3485 13.4643C11.4637 13.5351 11.6309 13.5651 11.7198 13.5309C11.8941 13.464 11.9453 13.1657 11.7824 13.1657C11.7279 13.1657 11.6834 13.2102 11.6834 13.2647C11.6834 13.3191 11.6165 13.3637 11.5348 13.3637C11.4532 13.3637 11.3863 13.2914 11.3863 13.2031C11.3863 13.0715 11.3595 13.0647 11.2378 13.1657C11.1271 13.2575 11.0893 13.2591 11.0893 13.1719C11.0893 13.1047 11.0366 13.0865 10.9655 13.1293C10.8757 13.1833 10.8777 13.1593 10.9728 13.042ZM9.87305 14.9231C9.85038 15.0728 9.83187 14.9503 9.83187 14.6508C9.83187 14.3513 9.85038 14.2288 9.87305 14.3785C9.89573 14.5282 9.89573 14.7734 9.87305 14.9231ZM10.1734 15.9098C10.0236 15.9325 9.7787 15.9325 9.62889 15.9098C9.47909 15.8871 9.60167 15.8686 9.90117 15.8686C10.2007 15.8686 10.3233 15.8871 10.1734 15.9098Z" fill="#DEE0E0"/>
<path d="M6.92845 16.1448C7.35182 16.3607 7.78528 16.8423 7.8738 17.1951C8.0336 17.8315 7.45677 19.5169 7.0333 19.6514C6.76073 19.7378 6.42568 19.5472 6.42568 19.3057C6.42568 19.1771 6.35845 19.1111 6.22766 19.1111C5.9129 19.1111 5.9932 18.9262 6.52469 18.4271C6.79696 18.1715 7.01974 17.9003 7.01974 17.8244C7.01974 17.7484 6.87489 17.8421 6.69795 18.0326C6.52102 18.2231 6.26627 18.4544 6.13191 18.5466C5.97974 18.6511 5.8834 18.817 5.87627 18.9869C5.86726 19.205 5.81201 19.2659 5.60073 19.2909C5.4136 19.3132 5.33657 19.277 5.33657 19.1671C5.33657 19.0819 5.29092 19.0121 5.23508 19.0121C5.09904 19.0121 4.93201 18.5555 5.00162 18.3741C5.03211 18.2945 5.26954 18.0931 5.52904 17.9266C5.78865 17.76 6.08538 17.5257 6.18855 17.406L6.37617 17.1881L6.12865 17.3435C5.99251 17.4288 5.64706 17.6426 5.36102 17.8185C4.84746 18.1344 4.65558 18.4449 4.77766 18.7629C4.81053 18.8486 4.75578 18.952 4.64637 19.0106C4.36429 19.1615 4.24746 19.1329 4.24746 18.9131C4.24746 18.7826 4.18142 18.7151 4.05389 18.7151C3.90954 18.7151 3.8431 18.6231 3.79231 18.3524C3.7037 17.88 3.81607 17.7213 4.37221 17.5332C4.62389 17.448 4.95498 17.2769 5.10795 17.1529C5.36716 16.9426 5.36924 16.9355 5.13855 17.0478C5.00241 17.1142 4.6237 17.2381 4.29696 17.3234C3.79954 17.4531 3.67875 17.5285 3.55439 17.7873C3.44934 18.006 3.34102 18.0927 3.18429 18.0839C2.89251 18.0675 2.84073 17.902 2.98786 17.4554C3.10073 17.1131 3.16568 17.067 3.95043 16.7733C4.4133 16.6001 5.03706 16.3193 5.33657 16.1493C5.94112 15.8064 6.2632 15.8054 6.92845 16.1448Z" fill="#DEE0E0"/>
<path d="M14.9052 16.2838C15.3691 16.5284 15.949 16.7791 16.1938 16.8407C16.721 16.9735 17.0299 17.317 17.0299 17.7706C17.0299 18.0449 16.9947 18.0914 16.7877 18.0914C16.6098 18.0914 16.5192 18.0156 16.4459 17.8055C16.3911 17.6481 16.2884 17.5026 16.2177 17.4819C15.884 17.3844 14.8798 17.0502 14.7032 16.978C14.5666 16.9222 14.5889 16.965 14.7748 17.1158C14.9232 17.236 15.2768 17.4134 15.5608 17.5098C16.1763 17.7191 16.2882 17.8662 16.1979 18.3475C16.1471 18.6182 16.0807 18.7102 15.9363 18.7102C15.8088 18.7102 15.7428 18.7777 15.7428 18.9082C15.7428 19.1306 15.6258 19.1566 15.3326 18.9996C15.2133 18.9358 15.1562 18.8334 15.1905 18.7443C15.312 18.4275 15.1226 18.117 14.6187 17.8072C14.3384 17.6349 13.9977 17.424 13.8616 17.3386L13.614 17.1833L13.8017 17.4011C13.9048 17.5208 14.2055 17.7576 14.47 17.9273C14.8849 18.1936 14.9507 18.2803 14.9507 18.5614C14.9507 18.7595 14.8926 18.9093 14.8022 18.9441C14.7205 18.9754 14.6536 19.0722 14.6536 19.1592C14.6536 19.2734 14.5779 19.3087 14.3814 19.2861C14.1793 19.2629 14.1091 19.2003 14.1091 19.0437C14.1091 18.9162 13.8836 18.6157 13.5398 18.2849C13.2267 17.9837 12.9705 17.7961 12.9705 17.868C12.9705 17.9399 13.1933 18.1991 13.4655 18.4439C13.9958 18.9207 14.0791 19.1063 13.7626 19.1063C13.6298 19.1063 13.5645 19.1723 13.5645 19.3067C13.5645 19.5693 13.1353 19.7425 12.8556 19.5928C12.5517 19.4301 12.1602 18.4797 12.1103 17.7834C12.0755 17.2969 12.1059 17.1136 12.2627 16.8653C12.5961 16.337 13.3296 15.8913 13.9369 15.8478C14.0055 15.843 14.4413 16.0391 14.9052 16.2838Z" fill="#DEE0E0"/>
<path d="M10.7428 12.3795C10.4868 12.4818 9.47573 12.4945 9.24097 12.3983C8.9985 12.299 9.77464 12.2117 10.4457 12.2627C10.8158 12.2909 10.8908 12.3203 10.7428 12.3795Z" fill="#DEE0E0"/>
<path d="M7.82188 6.73005C7.82188 6.78451 7.91099 6.82906 8.0199 6.82906C8.12881 6.82906 8.21792 6.87362 8.21792 6.92807C8.21792 7.06599 7.88654 7.05213 7.74267 6.90827C7.59812 6.76372 7.58861 6.63104 7.72287 6.63104C7.77733 6.63104 7.82188 6.6756 7.82188 6.73005Z" fill="#FFD67E"/>
<path d="M12.2773 6.71025C12.2773 6.85015 12.0451 7.02708 11.8615 7.02708C11.7635 7.02708 11.6833 6.96441 11.6833 6.88787C11.6833 6.79738 11.7526 6.76669 11.8813 6.80035C11.992 6.82936 12.0793 6.80342 12.0793 6.74164C12.0793 6.68075 12.1239 6.63104 12.1783 6.63104C12.2328 6.63104 12.2773 6.66669 12.2773 6.71025Z" fill="#FFD67E"/>
<ellipse cx="8.36618" cy="13.3664" rx="0.247525" ry="0.29703" fill="#FFD67E"/>
<ellipse cx="11.6338" cy="13.3664" rx="0.247521" ry="0.29703" fill="#FFD67E"/>
<path fill-rule="evenodd" clip-rule="evenodd" d="M13.9546 0.519827C13.6518 0.749728 13.0057 1.2726 12.5189 1.68171C12.0322 2.09082 11.559 2.48349 11.4676 2.55438C11.3301 2.66092 11.2225 2.65646 10.8453 2.52844C10.293 2.34092 9.48891 2.33507 8.98495 2.51498C8.63337 2.64042 8.5902 2.6323 8.18743 2.36557C7.95327 2.21042 7.45218 1.81428 7.07396 1.48517C5.82159 0.395471 5.16337 0.0391342 4.89654 0.306263C4.82149 0.381411 4.68198 0.740817 4.58644 1.10507C4.41663 1.753 4.41753 1.79042 4.63218 2.84953C4.77703 3.56488 4.8305 4.08507 4.78951 4.38349C4.73446 4.78527 4.75644 4.86181 4.98852 5.07686L5.24931 5.31854L4.7096 5.73498C4.15 6.16676 3.40436 6.99884 3.49545 7.09003C3.52416 7.11864 3.63762 7.09399 3.74762 7.03507C4.07852 6.85795 4.08327 6.91012 3.77168 7.29933C3.60822 7.50359 3.40257 7.84369 3.31465 8.05517C3.11584 8.53339 2.99455 9.79933 3.14753 9.79933C3.20614 9.79933 3.28119 9.71428 3.31416 9.61022C3.34723 9.50626 3.43861 9.36775 3.51723 9.3024C3.62475 9.21329 3.6101 9.32795 3.45832 9.76379C3.2704 10.3038 3.21178 10.8441 3.25129 11.6747C3.26614 11.9854 3.27921 11.9993 3.4005 11.8336C3.51792 11.673 3.54099 11.733 3.59792 12.346C3.63753 12.7714 3.6199 13.1623 3.55258 13.3555C3.4104 13.7633 3.4999 13.8406 3.86465 13.6252C4.03624 13.5238 4.15861 13.4964 4.15861 13.5593C4.15861 13.7417 3.86297 14.3862 3.69337 14.5736C3.46119 14.8301 3.58743 14.8833 4.01 14.7068C4.37624 14.5537 4.37753 14.5541 4.3203 14.7821C4.28871 14.908 4.23376 15.3199 4.19832 15.6973C4.16277 16.0747 4.11881 16.4003 4.1005 16.4209C4.08218 16.4415 3.83158 16.5347 3.54356 16.6278C2.78693 16.8727 2.59535 17.3821 2.83495 18.5122L2.92941 18.9577L3.1099 18.6855C3.20911 18.5358 3.34713 18.4132 3.41663 18.4132C3.54178 18.4132 3.86158 19.0831 3.86158 19.3451C3.86158 19.451 3.94267 19.4396 4.22901 19.2936C4.80079 19.0021 4.9501 19.04 4.95386 19.4775C4.95644 19.7849 4.97772 19.8233 5.07762 19.7003C5.21287 19.5338 5.90941 19.4981 6.01941 19.652C6.1005 19.7655 6.8802 19.8335 7.19485 19.7546C7.31297 19.7249 7.50446 19.5472 7.6204 19.3596L7.83119 19.0185L9.18792 19.0701C10.1283 19.106 10.7823 19.0791 11.3184 18.9827L12.0921 18.8437L12.2249 19.0987C12.2979 19.239 12.4714 19.46 12.6104 19.5899C12.825 19.7903 12.9252 19.8161 13.2744 19.7602C13.5332 19.7188 13.7366 19.7368 13.8232 19.8085C13.9331 19.8997 13.9606 19.8803 13.9606 19.7113C13.9606 19.5186 13.9977 19.5057 14.3814 19.5642C14.6129 19.5994 14.8579 19.6723 14.9259 19.726C15.0201 19.8002 15.0497 19.7379 15.0497 19.4649C15.0497 19.0569 15.1194 19.0349 15.7303 19.2504C16.0919 19.3779 16.1388 19.3774 16.1388 19.2455C16.1388 18.9867 16.4345 18.5122 16.5957 18.5122C16.681 18.5122 16.8371 18.6124 16.9429 18.735C17.1245 18.9455 17.1338 18.9469 17.1124 18.7597C17.0999 18.6508 17.1455 18.3975 17.2139 18.1969C17.3071 17.9228 17.3114 17.7332 17.2311 17.4349C17.1265 17.0465 16.7366 16.631 16.4766 16.631C16.1511 16.631 15.8417 16.3951 15.8392 16.1448C15.8378 16.0038 15.7353 15.5911 15.6115 15.2278L15.3863 14.5673L15.6664 14.7121C16.137 14.9554 16.2787 14.7293 15.9473 14.264C15.8421 14.1162 15.7243 13.869 15.6856 13.7149L15.6153 13.4347L15.9235 13.6168C16.308 13.8439 16.3873 13.7704 16.2729 13.293C16.1436 12.7534 16.2205 11.6805 16.3884 11.6805C16.7059 11.6805 16.6763 10.5698 16.335 9.67131C16.1261 9.12191 16.1271 8.96201 16.3369 9.35399C16.4097 9.49003 16.5348 9.60131 16.6149 9.60131C16.7323 9.60131 16.7502 9.48943 16.7077 9.02082C16.6498 8.3821 16.3445 7.59884 16.0177 7.25102L15.8072 7.02706H16.0226C16.141 7.02706 16.2378 6.9725 16.2378 6.90597C16.2378 6.7426 15.1074 5.67587 14.7247 5.47795L14.4185 5.31963L14.7475 5.05102C15.0677 4.78973 15.0748 4.76785 15.009 4.24141C14.9542 3.8025 14.9909 3.54379 15.2035 2.87092C15.474 2.01458 15.4778 1.70498 15.2285 0.866461C15.1099 0.467253 14.817 0.0947777 14.6251 0.0990352C14.5591 0.100421 14.2574 0.289827 13.9546 0.519827ZM14.9012 0.528045C14.9854 0.656659 15.1061 1.00884 15.1695 1.31082C15.2752 1.81448 15.2618 1.93448 15.0076 2.763C14.7827 3.49616 14.7432 3.76696 14.7974 4.20121C14.8562 4.6721 14.8407 4.74874 14.6676 4.84131C14.118 5.13557 14.0717 5.44082 14.5469 5.63775C14.9255 5.79458 15.7416 6.63102 15.5158 6.63102C15.2559 6.63102 15.3125 6.81666 15.7045 7.25042C16.0867 7.67359 16.372 8.24933 16.4749 8.80557L16.5383 9.14854L16.1899 8.81072C15.6702 8.30706 15.6039 8.52587 15.9953 9.4528C16.1891 9.91161 16.3295 10.4115 16.329 10.6409L16.3281 11.037L16.1321 10.6657C15.9473 10.3157 15.6584 10.1298 15.7762 10.4367C15.9741 10.9523 16.0434 11.5067 16.0186 12.3752C15.9912 13.3378 15.985 13.3622 15.817 13.1573C15.7217 13.0409 15.6438 12.8838 15.6438 12.8081C15.6438 12.5735 15.4706 12.6571 15.4036 12.9241C15.3165 13.271 15.4306 13.8431 15.6639 14.23C15.9212 14.6567 15.7988 14.6379 15.3862 14.1875C15.2026 13.987 15.0205 13.8549 14.9815 13.8939C14.9425 13.9329 14.9922 14.1749 15.092 14.4316C15.358 15.1163 15.6684 16.2434 15.6076 16.3041C15.5787 16.3331 15.267 16.1957 14.915 15.9988C14.4853 15.7586 14.1483 15.6409 13.8897 15.6409C13.3369 15.6409 12.517 16.0811 12.159 16.5701C11.8718 16.9624 11.8625 17.0076 11.9092 17.7881C11.9484 18.4437 11.9297 18.6094 11.8114 18.6549C11.1668 18.9022 8.41149 18.9522 8.04109 18.7233C7.95515 18.6701 7.95307 18.5528 8.03287 18.2639C8.09178 18.0504 8.12079 17.6435 8.09723 17.3595C8.04238 16.6983 7.70465 16.2432 7.01327 15.8986C6.29624 15.5414 5.85327 15.5621 5.0905 15.9886C4.70941 16.2017 4.44436 16.2969 4.40584 16.2344C4.2904 16.0476 4.47208 15.0043 4.71436 14.4625C4.84594 14.1682 4.93208 13.9062 4.90594 13.88C4.8798 13.8538 4.69931 13.972 4.50505 14.1426C4.31069 14.3132 4.13327 14.4528 4.11069 14.4528C4.08812 14.4528 4.12931 14.3079 4.20208 14.131C4.47941 13.457 4.50713 12.5716 4.25099 12.5716C4.2002 12.5716 4.15861 12.6761 4.15861 12.8038C4.15861 12.9315 4.08069 13.1057 3.98535 13.1909C3.82168 13.3374 3.81059 13.2909 3.78614 12.3548C3.76347 11.4864 3.83129 10.9446 4.02614 10.4367C4.05624 10.3584 4.02931 10.2944 3.96634 10.2944C3.90337 10.2944 3.76228 10.4837 3.65277 10.7152L3.45366 11.136L3.49515 10.6409C3.51802 10.3686 3.69673 9.74646 3.89248 9.25834C4.08812 8.77022 4.23762 8.36022 4.22465 8.34725C4.21168 8.33428 3.99159 8.5028 3.73545 8.72171L3.2698 9.11973L3.33396 8.79121C3.44208 8.23814 3.73129 7.65626 4.10218 7.24577C4.4896 6.81696 4.54574 6.63102 4.28772 6.63102C4.05951 6.63102 4.63733 6.02913 5.29594 5.58092C5.56743 5.39607 5.73792 5.24488 5.67475 5.24488C5.61159 5.24488 5.42099 5.12795 5.25109 4.98498C4.96931 4.74785 4.94772 4.68874 5.00465 4.30913C5.04495 4.04022 4.9897 3.51557 4.84842 2.82547C4.62574 1.73805 4.6298 1.16745 4.86396 0.653491C5.0397 0.267847 5.32743 0.327451 5.99525 0.88755C8.42604 2.92656 8.44069 2.93537 9.06466 2.72349C9.61753 2.53577 10.2227 2.53567 10.7428 2.723C11.4261 2.96923 11.2941 3.04755 13.7111 0.962699C14.1372 0.595075 14.5449 0.294382 14.617 0.294382C14.6891 0.294382 14.817 0.39953 14.9012 0.528045ZM5.34673 0.993293C5.34673 1.05092 5.3903 1.07121 5.44347 1.03834C5.56168 0.965273 7.0998 2.42557 7.47505 2.96715C7.6304 3.19121 7.7206 3.42517 7.68624 3.51468C7.65159 3.60488 7.66763 3.64547 7.72406 3.61052C8.11495 3.36894 7.0205 1.86874 5.94614 1.17339C5.47238 0.866659 5.34673 0.828936 5.34673 0.993293ZM13.7754 1.29161C12.9753 1.82597 12.0761 2.9021 12.0883 3.31092L12.0972 3.61121L12.1858 3.30626C12.3125 2.87003 14.2824 0.965174 14.5147 1.05428C14.6313 1.09904 14.6633 1.08309 14.6146 1.00428C14.5061 0.828837 14.4289 0.855174 13.7754 1.29161ZM7.27743 6.50359C6.98198 6.57468 6.85465 6.73003 7.09188 6.73003C7.20218 6.73003 7.39703 6.84141 7.52495 6.97755C7.68099 7.14359 7.86396 7.22507 8.08089 7.22507C8.25881 7.22507 8.43238 7.27032 8.46654 7.32567C8.59386 7.53171 8.70307 7.31062 8.60337 7.04844C8.38654 6.47805 8.01624 6.32587 7.27743 6.50359ZM11.4921 6.72052C11.2667 7.03705 11.1953 7.55468 11.4061 7.34389C11.4715 7.27854 11.6462 7.22507 11.7946 7.22507C11.9429 7.22507 12.1902 7.11913 12.3441 6.98953C12.498 6.86003 12.7131 6.73339 12.822 6.70814C12.9972 6.66745 12.9879 6.64894 12.7413 6.54755C12.588 6.48458 12.2903 6.433 12.0797 6.433C11.7701 6.433 11.6576 6.48805 11.4921 6.72052ZM7.82198 6.73003C7.82198 6.78448 7.91109 6.82904 8.02 6.82904C8.12891 6.82904 8.21802 6.87359 8.21802 6.92805C8.21802 7.06597 7.88663 7.0521 7.74277 6.90824C7.59822 6.76369 7.58871 6.63102 7.72297 6.63102C7.77743 6.63102 7.82198 6.67557 7.82198 6.73003ZM12.2774 6.71022C12.2774 6.85012 12.0452 7.02706 11.8616 7.02706C11.7636 7.02706 11.6834 6.96438 11.6834 6.88785C11.6834 6.79735 11.7527 6.76666 11.8814 6.80032C11.9921 6.82933 12.0794 6.80339 12.0794 6.74161C12.0794 6.68072 12.124 6.63102 12.1784 6.63102C12.2329 6.63102 12.2774 6.66666 12.2774 6.71022ZM9.19545 7.69537C9.07723 7.84616 9.07891 7.85379 9.20812 7.75438C9.2898 7.69151 9.46802 7.61963 9.60416 7.59458L9.85168 7.54904L9.59149 7.53557C9.44812 7.52814 9.2704 7.59983 9.19545 7.69537ZM9.25357 7.92478C9.14703 8.09715 9.26832 8.13369 9.40416 7.97003C9.48228 7.87597 9.4898 7.81913 9.42406 7.81913C9.36624 7.81913 9.28941 7.86666 9.25357 7.92478ZM11.8017 9.94785C11.8037 10.1112 11.8258 10.1661 11.851 10.0697C11.8761 9.97339 11.8745 9.83973 11.8473 9.7727C11.8202 9.70567 11.7997 9.78448 11.8017 9.94785ZM9.23802 10.146C8.74287 10.4928 8.8904 11.299 9.50525 11.606C9.94366 11.8248 9.94921 12.0177 9.51812 12.0589C8.78822 12.1287 8.24792 11.6699 8.05149 10.8133L7.92099 10.2449L7.96149 10.7894C7.98376 11.0889 8.01713 11.3968 8.03574 11.4736C8.05852 11.5676 7.89446 11.6653 7.53238 11.773C6.83129 11.9816 6.75574 12.1833 6.91277 13.4283C7.21822 15.8512 8.33248 17.2251 9.99208 17.2251C11.8543 17.2251 13.0695 15.4998 13.0695 12.8563C13.0695 11.8684 13.0585 11.8536 12.2449 11.7355C11.8746 11.6817 11.7797 11.6323 11.8242 11.5164C11.8557 11.434 11.9023 11.1143 11.9274 10.8058L11.9733 10.2449L11.8704 10.6904C11.6258 11.7498 11.2525 12.115 10.4727 12.0573C10.0416 12.0253 9.8599 11.8234 10.1652 11.7156C10.5515 11.5792 10.8913 11.1581 10.8913 10.8159C10.8913 10.3067 10.5272 9.99735 9.92772 9.99735C9.66337 9.99735 9.35545 10.0637 9.23802 10.146ZM9.35753 12.6278C9.55842 12.6655 9.98574 12.6725 10.3071 12.6434C10.6625 12.6111 10.8687 12.6271 10.8336 12.684C10.7408 12.8341 11.295 12.6667 11.7392 12.4104C12.0609 12.2249 12.1676 12.2029 12.2714 12.3007C12.3754 12.3988 12.3923 12.3936 12.3563 12.2746C12.2807 12.0246 11.8976 12.0482 11.4119 12.3329L10.9494 12.604L11.311 12.2316C11.6519 11.8805 11.6968 11.8633 12.0987 11.9299C12.8981 12.0624 12.9037 12.0715 12.8453 13.1512C12.7196 15.4767 11.7223 16.9089 10.1594 17.0084C9.48515 17.0514 9.03703 16.9117 8.47574 16.4836C8.07238 16.176 7.50159 15.1261 7.28842 14.3C7.1002 13.5704 6.9899 12.3617 7.09881 12.2218C7.14258 12.1655 7.40119 12.0503 7.67347 11.9658L8.16852 11.812L8.5804 12.1857C8.82337 12.4061 9.14218 12.5875 9.35753 12.6278ZM7.64663 12.2915C7.47911 12.459 7.49258 12.6227 7.66228 12.4819C7.76772 12.3944 7.93 12.4168 8.36218 12.5784C9.01168 12.8215 9.16693 12.7822 8.69357 12.4946C8.25287 12.227 7.79921 12.1389 7.64663 12.2915ZM10.7428 12.3795C10.4868 12.4818 9.47574 12.4945 9.24099 12.3983C8.99852 12.299 9.77466 12.2117 10.4457 12.2627C10.8158 12.2909 10.8908 12.3203 10.7428 12.3795ZM14.368 12.4544C14.3618 12.6349 14.4028 12.8688 14.4591 12.9742C14.5298 13.1062 14.5298 13.1657 14.4591 13.1657C14.328 13.1657 13.9606 12.8008 13.9606 12.6706C13.9606 12.6162 13.8938 12.5716 13.8121 12.5716C13.5945 12.5716 13.6239 13.0884 13.8583 13.3866C13.9654 13.5228 14.0249 13.6624 13.9904 13.697C13.9558 13.7315 13.9769 13.7597 14.0372 13.7597C14.1933 13.7597 14.2799 13.5872 14.1608 13.5135C14.1057 13.4795 14.0092 13.3556 13.9463 13.2381C13.8336 13.0274 13.8355 13.0269 14.0909 13.1941C14.533 13.4838 15.1088 13.3261 14.7002 13.0273C14.6059 12.9583 14.4952 12.7274 14.4542 12.514L14.3794 12.1261L14.368 12.4544ZM5.11515 12.7788C4.91901 13.3308 4.95624 13.4697 5.25089 13.2857C5.50891 13.1246 5.5496 13.1341 5.47753 13.3389C5.43505 13.4596 5.44891 13.4822 5.52317 13.4132C5.70891 13.2406 5.78327 12.7696 5.62475 12.7696C5.54812 12.7696 5.43347 12.8215 5.3701 12.8849C5.28248 12.9725 5.26901 12.9132 5.31376 12.6374C5.39535 12.1349 5.32634 12.184 5.11515 12.7788ZM7.74772 12.8881C7.52109 12.9998 7.45376 13.2089 7.61277 13.3073C7.66109 13.3372 7.69446 13.2858 7.68703 13.1932C7.67961 13.1004 7.75782 13.0074 7.86119 12.9862C7.99772 12.958 8.03287 12.9894 7.99 13.1011C7.94802 13.2103 7.97535 13.2376 8.08456 13.1957C8.16891 13.1633 8.28149 13.199 8.33456 13.275C8.40891 13.3814 8.44267 13.3848 8.48129 13.2894C8.54891 13.1228 8.71307 13.1318 8.71307 13.3021C8.71307 13.5264 8.42852 13.7128 8.29307 13.5774C8.13723 13.4215 8.05297 13.4334 8.05297 13.6112C8.05297 13.8202 8.44921 13.7985 8.64822 13.5786C8.73832 13.479 8.81208 13.3231 8.81208 13.2321C8.81208 13.1411 8.86782 13.0653 8.93584 13.0637C9.01683 13.0617 9.00832 13.0313 8.91109 12.9758C8.64832 12.8257 7.97713 12.7751 7.74772 12.8881ZM11.3688 12.8356C11.2231 12.8602 11.0449 12.9531 10.9728 13.042C10.8777 13.1593 10.8757 13.1833 10.9655 13.1293C11.0366 13.0866 11.0893 13.1047 11.0893 13.1719C11.0893 13.1929 11.0915 13.2087 11.0963 13.2194C11.1117 13.2532 11.1537 13.2355 11.2378 13.1657C11.3595 13.0647 11.3863 13.0715 11.3863 13.2031C11.3863 13.2914 11.4532 13.3637 11.5349 13.3637C11.6165 13.3637 11.6834 13.3191 11.6834 13.2647C11.6834 13.2102 11.7279 13.1657 11.7824 13.1657C11.9453 13.1657 11.8942 13.464 11.7198 13.5309C11.6309 13.5651 11.4638 13.5351 11.3485 13.4643C11.1405 13.3367 11.1403 13.3374 11.3274 13.5476C11.5089 13.7517 11.9528 13.8563 11.8361 13.6675C11.8048 13.6169 11.8245 13.5474 11.8798 13.5132C11.9352 13.479 11.9804 13.3184 11.9804 13.1564C11.9804 12.8942 12.0019 12.8732 12.1748 12.9657C12.2964 13.0308 12.3491 13.1338 12.3157 13.2414C12.2701 13.3885 12.2792 13.387 12.3792 13.2304C12.4521 13.1163 12.461 13.0126 12.4029 12.9545C12.2883 12.8399 11.7259 12.7753 11.3688 12.8356ZM9.83188 14.6508C9.83188 14.9503 9.8504 15.0728 9.87307 14.9231C9.89574 14.7734 9.89574 14.5282 9.87307 14.3785C9.8504 14.2288 9.83188 14.3513 9.83188 14.6508ZM6.92847 16.1448C7.35183 16.3607 7.7853 16.8423 7.87381 17.1951C8.03361 17.8315 7.45678 19.517 7.03332 19.6514C6.76074 19.7378 6.42569 19.5473 6.42569 19.3057C6.42569 19.1772 6.35847 19.1111 6.22767 19.1111C5.91292 19.1111 5.99322 18.9262 6.5247 18.4272C6.79698 18.1715 7.01975 17.9003 7.01975 17.8244C7.01975 17.7484 6.8749 17.8421 6.69797 18.0326C6.52104 18.2231 6.26629 18.4544 6.13193 18.5466C5.97975 18.6511 5.88342 18.8171 5.87629 18.987C5.86728 19.205 5.81203 19.2659 5.60074 19.2909C5.41361 19.3132 5.33658 19.2771 5.33658 19.1672C5.33658 19.0819 5.29094 19.0121 5.2351 19.0121C5.09906 19.0121 4.93203 18.5555 5.00163 18.3741C5.03213 18.2945 5.26955 18.0931 5.52906 17.9266C5.78866 17.76 6.0854 17.5257 6.18857 17.406L6.37619 17.1881L6.12866 17.3435C5.99253 17.4288 5.64708 17.6426 5.36104 17.8185C4.84748 18.1344 4.65559 18.4449 4.77767 18.7629C4.81054 18.8486 4.75579 18.952 4.64639 19.0106C4.36431 19.1615 4.24748 19.1329 4.24748 18.9131C4.24748 18.7826 4.18144 18.7151 4.05391 18.7151C3.90955 18.7151 3.84312 18.6231 3.79233 18.3524C3.70371 17.88 3.81609 17.7213 4.37223 17.5332C4.62391 17.448 4.955 17.277 5.10797 17.1529C5.36718 16.9426 5.36926 16.9355 5.13856 17.0478C5.00243 17.1142 4.62371 17.2381 4.29698 17.3234C3.79955 17.4531 3.67876 17.5285 3.55441 17.7874C3.44936 18.006 3.34104 18.0927 3.18431 18.0839C2.89252 18.0676 2.84074 17.902 2.98787 17.4554C3.10074 17.1131 3.16569 17.0671 3.95045 16.7733C4.41332 16.6001 5.03708 16.3193 5.33658 16.1493C5.94114 15.8064 6.26322 15.8054 6.92847 16.1448ZM9.62891 15.9098C9.77871 15.9325 10.0237 15.9325 10.1735 15.9098C10.3233 15.8872 10.2007 15.8686 9.90119 15.8686C9.60168 15.8686 9.47911 15.8872 9.62891 15.9098ZM14.9052 16.2838C15.3691 16.5284 15.949 16.7791 16.1939 16.8407C16.721 16.9735 17.0299 17.3171 17.0299 17.7706C17.0299 18.0449 16.9948 18.0914 16.7877 18.0914C16.6098 18.0914 16.5192 18.0156 16.4459 17.8055C16.3911 17.6481 16.2884 17.5026 16.2177 17.4819C15.8841 17.3844 14.8798 17.0502 14.7032 16.978C14.5666 16.9222 14.5889 16.965 14.7749 17.1158C14.9232 17.236 15.2768 17.4134 15.5608 17.5098C16.1763 17.7191 16.2882 17.8662 16.1979 18.3475C16.1471 18.6182 16.0807 18.7102 15.9363 18.7102C15.8088 18.7102 15.7428 18.7777 15.7428 18.9082C15.7428 19.1306 15.6258 19.1567 15.3326 18.9996C15.2133 18.9358 15.1562 18.8334 15.1905 18.7443C15.312 18.4275 15.1226 18.1171 14.6187 17.8073C14.3384 17.6349 13.9977 17.424 13.8616 17.3386L13.6141 17.1833L13.8017 17.4011C13.9049 17.5208 14.2055 17.7576 14.47 17.9274C14.885 18.1936 14.9507 18.2803 14.9507 18.5614C14.9507 18.7595 14.8926 18.9093 14.8022 18.9441C14.7205 18.9754 14.6537 19.0722 14.6537 19.1592C14.6537 19.2734 14.5779 19.3087 14.3814 19.2861C14.1793 19.2629 14.1091 19.2003 14.1091 19.0437C14.1091 18.9162 13.8837 18.6157 13.5398 18.2849C13.2267 17.9837 12.9705 17.7961 12.9705 17.868C12.9705 17.9399 13.1933 18.1991 13.4655 18.4439C13.9958 18.9207 14.0791 19.1063 13.7626 19.1063C13.6298 19.1063 13.5646 19.1723 13.5646 19.3068C13.5646 19.5693 13.1353 19.7425 12.8556 19.5928C12.5517 19.4301 12.1602 18.4797 12.1103 17.7834C12.0755 17.297 12.1059 17.1136 12.2627 16.8653C12.5961 16.3371 13.3296 15.8913 13.9369 15.8478C14.0055 15.843 14.4413 16.0391 14.9052 16.2838Z" fill="black"/>
<defs>
<linearGradient id="paint0_linear_2151_3052" x1="10" y1="0" x2="10" y2="20" gradientUnits="userSpaceOnUse">
<stop stop-color="#FFD67E"/>
<stop offset="1" stop-color="#EE4A96"/>
</linearGradient>
<linearGradient id="paint1_linear_2151_3052" x1="10.0496" y1="0.891113" x2="10.0496" y2="19.0099" gradientUnits="userSpaceOnUse">
<stop stop-color="#FFD67E"/>
<stop offset="1" stop-color="#EE4A96"/>
</linearGradient>
</defs>
</svg>
