<svg width="20" height="20" viewBox="0 0 20 20" fill="none" xmlns="http://www.w3.org/2000/svg">
<circle cx="10" cy="10" r="10" fill="white"/>
<path d="M19.9997 10.0356C19.957 15.5882 15.4571 20.0409 9.93004 19.9991C4.39838 19.9582 -0.0442121 15.4382 0.000332061 9.89738C0.0457852 4.40926 4.55838 -0.0361417 10.0455 0.000221507C15.5726 0.0374938 20.0397 4.54199 19.9997 10.0365V10.0356ZM0.723947 10.0037C0.733946 15.1128 4.86746 19.2373 9.9864 19.2491C15.1108 19.2582 19.2916 15.1055 19.2743 9.99102C19.2552 4.66381 14.8426 0.645669 9.76368 0.732941C4.85291 0.816576 0.713947 4.99107 0.723947 10.0037V10.0037ZM12.4372 5.66198L12.0672 6.8456C11.3782 6.73196 10.74 6.59651 10.0937 6.53288C9.71004 6.4956 9.31187 6.5956 9.16369 7.02742C9.01097 7.47014 8.99279 7.94195 9.35914 8.28377C9.7355 8.63376 10.1773 8.91103 10.59 9.22194C10.9691 9.50739 11.3864 9.75648 11.7173 10.0901C12.6145 10.9956 12.7736 12.0937 12.4054 13.2773C12.1872 13.9792 11.6673 14.4228 11.0018 14.6919C9.98367 15.1046 8.25008 14.901 7.27648 14.2464L7.70374 13.0064C8.32372 13.1701 8.89097 13.3664 9.47459 13.4592C10.0309 13.5473 10.6137 13.4619 10.8991 12.8937C11.1864 12.321 11.0955 11.7183 10.6455 11.2583C10.2982 10.9037 9.86276 10.6337 9.45641 10.3383C9.18551 10.1419 8.88279 9.98738 8.61916 9.78193C8.10801 9.39109 7.74405 8.83887 7.58644 8.21502C7.42883 7.59116 7.48683 6.93233 7.75101 6.34561C7.86745 6.06543 8.0497 5.81744 8.28232 5.62264C8.51493 5.42784 8.79107 5.29196 9.08733 5.22653C10.2282 4.95562 11.3345 5.07835 12.4372 5.66289V5.66198ZM5.092 9.83466C5.09201 10.1388 4.972 10.4307 4.75804 10.6469C4.54407 10.8631 4.25345 10.9861 3.9493 10.9892C3.31296 10.9919 2.76934 10.4374 2.78389 9.80375C2.79587 9.49978 2.92504 9.21225 3.14433 9.00143C3.36363 8.7906 3.65602 8.67285 3.96021 8.67285C4.59656 8.68194 5.09654 9.19557 5.09291 9.83466H5.092ZM16.0853 8.70467C16.7198 8.70376 17.1925 9.17194 17.2007 9.81011C17.2043 9.96431 17.1768 10.1176 17.12 10.261C17.0632 10.4044 16.9782 10.535 16.87 10.6449C16.7619 10.7549 16.6327 10.842 16.4903 10.9011C16.3479 10.9603 16.195 10.9902 16.0408 10.9892C15.7364 10.9842 15.4462 10.8594 15.2332 10.6419C15.0201 10.4245 14.9014 10.1318 14.9026 9.82738C14.9026 9.16194 15.3844 8.70467 16.0853 8.70467Z" fill="#020202"/>
</svg>
