<svg width="20" height="20" viewBox="0 0 20 20" fill="none" xmlns="http://www.w3.org/2000/svg">
<g clip-path="url(#clip0_4144_54697)">
<circle cx="10" cy="10" r="10" fill="#1E1C0E"/>
<path fill-rule="evenodd" clip-rule="evenodd" d="M10 19.4C15.1915 19.4 19.4 15.1915 19.4 10C19.4 4.80852 15.1915 0.6 10 0.6C4.80852 0.6 0.6 4.80852 0.6 10C0.6 15.1915 4.80852 19.4 10 19.4ZM10 20C15.5228 20 20 15.5228 20 10C20 4.47715 15.5228 0 10 0C4.47715 0 0 4.47715 0 10C0 15.5228 4.47715 20 10 20Z" fill="url(#paint0_linear_4144_54697)"/>
<path d="M12.7998 3.50183C12.7992 3.50305 12.7786 3.56527 12.7551 3.63908C12.7315 3.7135 12.6995 3.81354 12.6844 3.86234L12.656 3.95018C12.2341 3.95018 12.1845 3.95079 12.1845 3.95445C12.1845 3.95628 12.2697 4.02033 12.3731 4.09597C12.4771 4.17222 12.5617 4.23566 12.5617 4.2381C12.5617 4.24054 12.529 4.34241 12.4897 4.46502C12.4499 4.58763 12.4184 4.68889 12.4196 4.69011C12.4208 4.69133 12.5067 4.62972 12.6106 4.55286C12.714 4.47661 12.801 4.41378 12.8028 4.41378C12.8052 4.41378 12.8899 4.47478 12.9914 4.54981C13.0929 4.62423 13.1788 4.68645 13.1818 4.68767C13.1848 4.68889 13.1872 4.68767 13.1872 4.68523C13.1872 4.6834 13.1552 4.58153 13.1153 4.45953C13.076 4.33753 13.044 4.23688 13.044 4.23566C13.0446 4.23505 13.1298 4.17222 13.2338 4.09597C13.3377 4.02033 13.4229 3.95628 13.4229 3.95445C13.4229 3.95079 13.3734 3.95018 13.1866 3.94957L12.9503 3.94835C12.8397 3.60187 12.8058 3.50061 12.8046 3.5C12.8028 3.5 12.801 3.50061 12.7998 3.50183ZM7.13556 3.58113C7.12166 3.62444 7.08902 3.7257 7.06363 3.80561L7.01709 3.95201C6.62907 3.95445 6.54748 3.95628 6.54688 3.95811C6.54688 3.95994 6.62907 4.02155 6.73001 4.09536C6.83094 4.16917 6.91616 4.23139 6.91918 4.23322C6.92462 4.23688 6.92039 4.25152 6.85209 4.46258C6.8122 4.58641 6.78078 4.68889 6.78199 4.69011C6.7838 4.69194 6.87023 4.62972 6.97479 4.55286L7.16517 4.41317C7.18693 4.42964 7.27275 4.49247 7.36946 4.56384C7.46616 4.63521 7.54655 4.69194 7.54775 4.69072C7.54896 4.68889 7.51753 4.58824 7.47764 4.46563C7.43775 4.34363 7.40572 4.24176 7.40572 4.23993C7.40572 4.23749 7.48973 4.17405 7.59308 4.09902C7.69644 4.02399 7.78166 3.96055 7.78166 3.95811C7.78226 3.95384 7.74841 3.95323 7.54775 3.95323H7.31264C7.1966 3.59211 7.16638 3.50305 7.16457 3.50305C7.16215 3.50305 7.15006 3.53538 7.13556 3.58113Z" fill="white"/>
<path d="M5.97654 5.95208C5.55588 6.40958 5.20654 6.78961 5.20049 6.79632L5.18841 6.80974C5.24764 6.8561 5.28511 6.88721 5.30929 6.90795C5.33346 6.92869 5.37758 6.97017 5.4072 7.00006C5.43621 7.02934 5.47489 7.07082 5.49302 7.09217C5.51055 7.11291 5.53775 7.14646 5.55286 7.16659C5.56797 7.18672 5.59154 7.22027 5.60544 7.24101C5.61934 7.26175 5.63687 7.28981 5.64473 7.30323C5.65258 7.31604 5.66709 7.34227 5.67736 7.36179C5.68764 7.3807 5.70396 7.41425 5.71423 7.43621C5.72451 7.45817 5.74022 7.49538 5.74929 7.51856C5.75835 7.54235 5.77165 7.58017 5.7789 7.60274C5.78615 7.62531 5.79764 7.66679 5.80429 7.69485C5.81154 7.72291 5.82121 7.76988 5.82604 7.79977C5.83148 7.82905 5.83753 7.87419 5.84055 7.8992C5.84297 7.92482 5.84659 7.97606 5.8478 8.01388C5.84962 8.05231 5.84962 8.11331 5.8478 8.15357C5.84659 8.19261 5.84297 8.2469 5.84055 8.27374C5.83753 8.30119 5.83209 8.34755 5.82725 8.37683C5.82302 8.40672 5.81456 8.45674 5.80852 8.48785C5.80247 8.51957 5.7922 8.56898 5.78494 8.59765C5.7783 8.62632 5.765 8.67695 5.75593 8.70989C5.74626 8.74344 5.72994 8.79773 5.71907 8.83067C5.70879 8.86361 5.69126 8.91546 5.68038 8.94474C5.66951 8.97463 5.65077 9.02404 5.63868 9.05454C5.62659 9.08504 5.60423 9.1375 5.58973 9.17166C5.57462 9.20582 5.54923 9.26316 5.53231 9.29854C5.51599 9.33453 5.48396 9.39919 5.4622 9.44311C5.43984 9.48642 5.40599 9.55169 5.38604 9.58768C5.3667 9.62306 5.34011 9.67125 5.32742 9.69382C5.31412 9.71639 5.28813 9.76153 5.26879 9.79386C5.25005 9.82619 5.21802 9.87865 5.19808 9.91098C5.17813 9.94331 5.13341 10.0147 5.09775 10.0696C5.06209 10.1245 5.01495 10.2013 4.99198 10.2398C4.96901 10.2782 4.93698 10.3331 4.92126 10.3618C4.90555 10.3904 4.87352 10.4521 4.85055 10.4978C4.82758 10.5442 4.79857 10.6046 4.78648 10.6314C4.7744 10.6582 4.75566 10.7028 4.74418 10.7296C4.7333 10.7571 4.71456 10.804 4.70308 10.8345C4.69099 10.865 4.67104 10.9211 4.65896 10.9596C4.64626 10.998 4.62874 11.0547 4.61967 11.0852C4.61121 11.1157 4.59791 11.1664 4.59005 11.1975C4.5822 11.2292 4.57071 11.2786 4.56467 11.3073C4.55863 11.3359 4.54956 11.3847 4.54412 11.4152C4.53929 11.4457 4.53143 11.4964 4.5272 11.5275C4.52297 11.5592 4.51692 11.6086 4.51451 11.6373C4.51148 11.666 4.50725 11.7202 4.50484 11.7581C4.50181 11.7971 4.5 11.8715 4.5 11.9331C4.5 11.9917 4.50121 12.0612 4.50363 12.0869C4.50544 12.1125 4.50967 12.1662 4.51269 12.2052C4.51632 12.2442 4.52176 12.2985 4.52538 12.326C4.52841 12.3528 4.53626 12.4059 4.54291 12.4431C4.54896 12.4809 4.55984 12.5395 4.56648 12.573C4.57374 12.6072 4.58703 12.6664 4.5961 12.7048C4.60577 12.7432 4.61967 12.7975 4.62753 12.8256C4.63538 12.8536 4.6511 12.9055 4.66258 12.9415C4.67346 12.9768 4.6922 13.0317 4.70308 13.0635C4.71456 13.0946 4.7339 13.1458 4.74599 13.1763C4.75808 13.2068 4.77863 13.2556 4.79132 13.2855C4.80462 13.3154 4.8306 13.3715 4.85055 13.4112C4.86989 13.4502 4.89648 13.5021 4.91038 13.5265C4.92368 13.5509 4.94544 13.5887 4.95813 13.6106C4.97143 13.6326 5.00044 13.679 5.02341 13.7137C5.04637 13.7485 5.08385 13.8028 5.10742 13.8345C5.13099 13.8656 5.16604 13.9108 5.18538 13.9345C5.20473 13.9577 5.23676 13.9949 5.2561 14.0169C5.27544 14.0389 5.31291 14.0785 5.33951 14.106C5.3661 14.1328 5.40841 14.1737 5.43379 14.1962C5.45857 14.2194 5.49604 14.2524 5.51659 14.2694C5.53775 14.2865 5.5722 14.3146 5.59396 14.3317C5.61511 14.3481 5.65681 14.3786 5.68643 14.3994C5.71604 14.4201 5.76379 14.4524 5.79341 14.4713C5.82242 14.4896 5.86956 14.5177 5.89676 14.5336C5.92456 14.55 5.98319 14.5811 6.02731 14.6031C6.07143 14.6257 6.12764 14.6525 6.15181 14.6635C6.17599 14.6739 6.2189 14.6922 6.24731 14.7038C6.27571 14.716 6.32346 14.7343 6.35247 14.7452C6.38209 14.7562 6.43286 14.7739 6.4661 14.7849C6.49874 14.7953 6.55555 14.8129 6.59181 14.8233C6.62808 14.8337 6.68791 14.8502 6.72538 14.8593C6.76225 14.8685 6.82692 14.8831 6.86802 14.8922C6.90973 14.9008 6.98104 14.9148 7.02698 14.9227C7.07291 14.9307 7.14665 14.9417 7.19198 14.9478C7.2367 14.9539 7.30802 14.9624 7.35033 14.9673C7.39264 14.9715 7.45489 14.977 7.48874 14.9795C7.52258 14.9825 7.57214 14.9862 7.59874 14.988C7.62593 14.9898 7.67731 14.9941 7.71357 14.9978C7.74983 15.0008 7.80846 15.0075 7.84412 15.0118C7.87918 15.0161 7.93599 15.024 7.96983 15.0295C8.00368 15.035 8.05808 15.0441 8.09071 15.0502C8.12335 15.0563 8.18319 15.0679 8.22247 15.0765C8.26236 15.085 8.32522 15.1003 8.36269 15.1094C8.39956 15.1192 8.45758 15.135 8.49143 15.1448C8.52527 15.1545 8.5833 15.1728 8.62016 15.185C8.65764 15.1972 8.71385 15.2174 8.74588 15.229C8.77791 15.2406 8.83049 15.2613 8.86253 15.2741C8.89456 15.2869 8.94896 15.3107 8.98341 15.326C9.01786 15.3412 9.08494 15.3735 9.13269 15.3973C9.17983 15.4217 9.24632 15.4565 9.28016 15.4754C9.31401 15.4949 9.36357 15.5236 9.39016 15.5401C9.41736 15.5559 9.46088 15.584 9.48747 15.6011C9.51467 15.6188 9.55879 15.6486 9.58659 15.6676C9.6144 15.6871 9.66698 15.7249 9.70324 15.7523C9.7395 15.7798 9.79148 15.8207 9.81929 15.8426C9.84709 15.8652 9.89363 15.9042 9.92264 15.9299C9.95165 15.9555 9.98126 15.9817 9.98852 15.9878L10.0018 15.9994C10.0381 15.9671 10.0677 15.9414 10.0913 15.9207C10.1142 15.9006 10.1596 15.8628 10.1916 15.8365C10.2236 15.8109 10.2659 15.7774 10.2859 15.7621C10.3058 15.7469 10.3439 15.7188 10.3711 15.6999C10.3977 15.6804 10.443 15.6492 10.4714 15.6297C10.4998 15.6108 10.5415 15.5834 10.5639 15.5693C10.5869 15.5553 10.6249 15.5321 10.6491 15.5175C10.6733 15.5035 10.715 15.4797 10.7416 15.4644C10.7688 15.4498 10.8262 15.4193 10.8703 15.3967C10.9145 15.3748 10.9719 15.3467 10.9979 15.3351C11.0238 15.3235 11.071 15.3028 11.103 15.2894C11.1351 15.2759 11.1846 15.2558 11.213 15.2448C11.2414 15.2338 11.2868 15.2174 11.314 15.2082C11.3405 15.1985 11.3895 15.182 11.4221 15.1716C11.4548 15.1613 11.5068 15.146 11.537 15.1375C11.5672 15.1283 11.6143 15.1155 11.6421 15.1088C11.6699 15.1021 11.7141 15.0911 11.7413 15.085C11.7679 15.0789 11.812 15.0691 11.8386 15.0643C11.8652 15.0588 11.9147 15.049 11.9486 15.0435C11.9824 15.0374 12.0398 15.0283 12.0761 15.0228C12.1124 15.0179 12.1668 15.0106 12.197 15.0069C12.2272 15.0039 12.2762 14.9984 12.3052 14.9959C12.3348 14.9935 12.3783 14.9898 12.4025 14.988C12.4266 14.9862 12.4756 14.9825 12.5113 14.9795C12.5463 14.977 12.6031 14.9722 12.637 14.9685C12.6708 14.9654 12.727 14.9587 12.7627 14.9545C12.7977 14.9496 12.863 14.9404 12.9071 14.9337C12.9513 14.927 13.0129 14.916 13.0437 14.9105C13.0752 14.9044 13.1247 14.8941 13.1537 14.888C13.1834 14.8819 13.2353 14.8697 13.2704 14.8611C13.3048 14.8526 13.3647 14.8361 13.404 14.8251C13.4426 14.8136 13.4958 14.7977 13.5218 14.7892C13.5472 14.7812 13.5968 14.7641 13.6318 14.7513C13.6663 14.7385 13.7158 14.7196 13.7418 14.7092C13.7672 14.6989 13.8059 14.683 13.8264 14.6739C13.847 14.6647 13.8875 14.6458 13.9159 14.6324C13.9443 14.619 13.9926 14.5946 14.0229 14.5787C14.0531 14.5622 14.0978 14.5378 14.122 14.5238C14.1462 14.5098 14.1885 14.4835 14.2163 14.4659C14.2441 14.4482 14.2834 14.4213 14.3039 14.4073C14.3251 14.3927 14.3553 14.3707 14.3716 14.3585C14.3879 14.3463 14.4248 14.3176 14.4532 14.2944C14.4822 14.2713 14.5257 14.2341 14.5511 14.2121C14.5759 14.1895 14.6236 14.1438 14.6563 14.1108C14.6889 14.0773 14.7336 14.0303 14.7554 14.0059C14.7765 13.9809 14.8116 13.9394 14.8327 13.9138C14.8533 13.8876 14.8871 13.843 14.9077 13.8156C14.9276 13.7875 14.9603 13.7406 14.9796 13.7107C14.9996 13.6808 15.028 13.6356 15.0437 13.6094C15.0588 13.5832 15.0848 13.5374 15.1011 13.5075C15.1174 13.4783 15.1452 13.4221 15.164 13.3837C15.1827 13.3453 15.2105 13.2843 15.2262 13.2477C15.2413 13.2111 15.2649 13.1513 15.2782 13.1159C15.2915 13.0799 15.3126 13.0214 15.3241 12.986C15.3362 12.95 15.3549 12.8878 15.3664 12.8475C15.3779 12.8073 15.3942 12.7463 15.4027 12.7115C15.4112 12.6761 15.4245 12.6169 15.4323 12.5797C15.4402 12.5419 15.4504 12.4858 15.4559 12.4541C15.4607 12.423 15.468 12.376 15.4716 12.3498C15.4752 12.3235 15.4807 12.2735 15.4843 12.2387C15.4873 12.2034 15.4921 12.1546 15.494 12.1289C15.4958 12.1039 15.4982 12.0271 15.4994 11.9594C15.5 11.8807 15.4994 11.816 15.497 11.7819C15.4952 11.752 15.4921 11.7099 15.4903 11.6879C15.4885 11.666 15.4843 11.6226 15.4807 11.5909C15.4776 11.5598 15.4704 11.5055 15.4649 11.4708C15.4601 11.436 15.4492 11.3756 15.442 11.3372C15.4341 11.2987 15.4208 11.2383 15.4118 11.2024C15.4033 11.167 15.3888 11.1127 15.3803 11.0822C15.3713 11.0517 15.3531 10.9931 15.3398 10.9516C15.3265 10.9108 15.3024 10.8443 15.2873 10.804C15.2715 10.7644 15.2468 10.7028 15.2316 10.668C15.2165 10.6332 15.1839 10.5631 15.1591 10.5124C15.1343 10.4618 15.0981 10.3917 15.0787 10.3569C15.0594 10.3221 15.0268 10.2648 15.0056 10.23C14.9851 10.1952 14.9403 10.1239 14.9065 10.0714C14.8726 10.019 14.8297 9.95124 14.811 9.92074C14.7916 9.89024 14.7596 9.83717 14.7397 9.80301C14.7191 9.76946 14.6859 9.71151 14.6647 9.67491C14.6442 9.63831 14.6121 9.58036 14.594 9.5462C14.5759 9.51204 14.5402 9.4425 14.5148 9.39065C14.4894 9.33941 14.4544 9.26621 14.4375 9.229C14.4212 9.19118 14.3964 9.13506 14.3837 9.10334C14.3704 9.07223 14.3504 9.0216 14.339 8.9911C14.3269 8.9606 14.3045 8.89533 14.2882 8.84653C14.2719 8.79773 14.2507 8.72697 14.2404 8.68976C14.2302 8.65194 14.2151 8.59216 14.2072 8.55617C14.1993 8.52018 14.1885 8.4665 14.183 8.43539C14.1782 8.40489 14.1709 8.35792 14.1679 8.33108C14.1643 8.30363 14.1594 8.26154 14.1576 8.23714C14.1546 8.21091 14.1534 8.14747 14.1534 8.07854C14.1534 7.9907 14.1546 7.95227 14.1588 7.91201C14.1619 7.88334 14.1691 7.83454 14.174 7.80404C14.1794 7.77354 14.1891 7.72535 14.1957 7.69668C14.203 7.6674 14.2175 7.61677 14.2284 7.58383C14.2398 7.55089 14.258 7.50148 14.2694 7.47403C14.2815 7.44719 14.2966 7.41303 14.3039 7.39839C14.3118 7.38314 14.3287 7.35203 14.342 7.32824C14.3553 7.30506 14.377 7.26907 14.3903 7.24894C14.403 7.22881 14.426 7.19587 14.4411 7.17574C14.4562 7.15622 14.478 7.12816 14.4894 7.11413C14.5009 7.1001 14.5293 7.06838 14.5517 7.04337C14.5747 7.01836 14.6134 6.97932 14.6375 6.95736C14.6617 6.93479 14.6955 6.90429 14.7125 6.88965C14.73 6.87562 14.7596 6.85183 14.7777 6.83719C14.808 6.81401 14.811 6.81035 14.808 6.80547C14.8055 6.80242 14.4568 6.42239 14.0325 5.96062C13.6082 5.49946 13.2601 5.12126 13.2589 5.12065C13.2571 5.12004 13.2172 5.14078 13.1701 5.1664C13.1235 5.19202 13.0522 5.22984 13.0123 5.24997C12.9724 5.2701 12.9144 5.29877 12.8836 5.31341C12.8527 5.32805 12.7977 5.35245 12.7627 5.36831C12.727 5.38417 12.6624 5.41162 12.6182 5.42931C12.5741 5.447 12.5058 5.47384 12.4671 5.48787C12.4285 5.50251 12.3656 5.52447 12.3275 5.53789C12.2894 5.5507 12.2314 5.56961 12.1982 5.57998C12.1655 5.59035 12.1166 5.60499 12.09 5.61292C12.0634 5.62085 12.012 5.63488 11.977 5.64464C11.9413 5.6544 11.8809 5.67026 11.8416 5.68002C11.8029 5.68917 11.7394 5.70442 11.7002 5.71296C11.6615 5.7215 11.5968 5.73492 11.5575 5.74285C11.5176 5.75078 11.4693 5.76054 11.4505 5.76359C11.4312 5.76725 11.3816 5.77579 11.3405 5.78311C11.2988 5.78982 11.2251 5.80141 11.1768 5.80812C11.1284 5.81544 11.0523 5.8252 11.0075 5.83069C10.9622 5.83557 10.8975 5.84289 10.8625 5.84655C10.828 5.8496 10.7742 5.85509 10.7434 5.85753C10.712 5.85997 10.6679 5.86363 10.6443 5.86546C10.6207 5.86729 10.5657 5.87095 10.5216 5.87339C10.4775 5.87583 10.4043 5.8801 10.3584 5.88193C10.3034 5.88498 10.1795 5.8862 9.99516 5.8862C9.77516 5.8862 9.69297 5.88498 9.61016 5.88071C9.55214 5.87766 9.47176 5.87278 9.43126 5.87034C9.39077 5.8679 9.33879 5.86424 9.31643 5.86241C9.29407 5.86058 9.24451 5.85631 9.20643 5.85265C9.16835 5.84899 9.11093 5.8435 9.0789 5.83984C9.04687 5.83679 8.99247 5.83008 8.95742 5.82581C8.92236 5.82154 8.86374 5.81361 8.82687 5.80812C8.79 5.80324 8.72896 5.79348 8.69088 5.78738C8.6528 5.78128 8.59418 5.77152 8.56033 5.76542C8.52709 5.75932 8.46786 5.74773 8.42918 5.7398C8.3911 5.73248 8.32703 5.71906 8.28775 5.70991C8.24846 5.70137 8.17775 5.68429 8.13 5.67209C8.08225 5.65989 8.01456 5.6422 7.9789 5.63244C7.94385 5.62268 7.8822 5.60438 7.84231 5.59218C7.80242 5.57998 7.73473 5.55802 7.69181 5.54399C7.6483 5.52935 7.58725 5.508 7.55643 5.49641C7.5256 5.48543 7.46819 5.46347 7.4289 5.44822C7.39022 5.43297 7.31951 5.40369 7.27176 5.38356C7.22462 5.36282 7.15874 5.33354 7.1261 5.31768C7.09286 5.30243 7.03 5.27193 6.98588 5.24936C6.94176 5.2274 6.87044 5.18897 6.82632 5.16457C6.7828 5.14017 6.74593 5.12004 6.74412 5.12004C6.74291 5.12004 6.3972 5.49458 5.97654 5.95208Z" fill="black"/>
<mask id="path-5-outside-1_4144_54697" maskUnits="userSpaceOnUse" x="3.5" y="4.12004" width="13" height="13" fill="black">
<rect fill="white" x="3.5" y="4.12004" width="13" height="13"/>
<path d="M5.97654 5.95208C5.55588 6.40958 5.20654 6.78961 5.20049 6.79632L5.18841 6.80974C5.24764 6.8561 5.28511 6.88721 5.30929 6.90795C5.33346 6.92869 5.37758 6.97017 5.4072 7.00006C5.43621 7.02934 5.47489 7.07082 5.49302 7.09217C5.51055 7.11291 5.53775 7.14646 5.55286 7.16659C5.56797 7.18672 5.59154 7.22027 5.60544 7.24101C5.61934 7.26175 5.63687 7.28981 5.64473 7.30323C5.65258 7.31604 5.66709 7.34227 5.67736 7.36179C5.68764 7.3807 5.70396 7.41425 5.71423 7.43621C5.72451 7.45817 5.74022 7.49538 5.74929 7.51856C5.75835 7.54235 5.77165 7.58017 5.7789 7.60274C5.78615 7.62531 5.79764 7.66679 5.80429 7.69485C5.81154 7.72291 5.82121 7.76988 5.82604 7.79977C5.83148 7.82905 5.83753 7.87419 5.84055 7.8992C5.84297 7.92482 5.84659 7.97606 5.8478 8.01388C5.84962 8.05231 5.84962 8.11331 5.8478 8.15357C5.84659 8.19261 5.84297 8.2469 5.84055 8.27374C5.83753 8.30119 5.83209 8.34755 5.82725 8.37683C5.82302 8.40672 5.81456 8.45674 5.80852 8.48785C5.80247 8.51957 5.7922 8.56898 5.78494 8.59765C5.7783 8.62632 5.765 8.67695 5.75593 8.70989C5.74626 8.74344 5.72994 8.79773 5.71907 8.83067C5.70879 8.86361 5.69126 8.91546 5.68038 8.94474C5.66951 8.97463 5.65077 9.02404 5.63868 9.05454C5.62659 9.08504 5.60423 9.1375 5.58973 9.17166C5.57462 9.20582 5.54923 9.26316 5.53231 9.29854C5.51599 9.33453 5.48396 9.39919 5.4622 9.44311C5.43984 9.48642 5.40599 9.55169 5.38604 9.58768C5.3667 9.62306 5.34011 9.67125 5.32742 9.69382C5.31412 9.71639 5.28813 9.76153 5.26879 9.79386C5.25005 9.82619 5.21802 9.87865 5.19808 9.91098C5.17813 9.94331 5.13341 10.0147 5.09775 10.0696C5.06209 10.1245 5.01495 10.2013 4.99198 10.2398C4.96901 10.2782 4.93698 10.3331 4.92126 10.3618C4.90555 10.3904 4.87352 10.4521 4.85055 10.4978C4.82758 10.5442 4.79857 10.6046 4.78648 10.6314C4.7744 10.6582 4.75566 10.7028 4.74418 10.7296C4.7333 10.7571 4.71456 10.804 4.70308 10.8345C4.69099 10.865 4.67104 10.9211 4.65896 10.9596C4.64626 10.998 4.62874 11.0547 4.61967 11.0852C4.61121 11.1157 4.59791 11.1664 4.59005 11.1975C4.5822 11.2292 4.57071 11.2786 4.56467 11.3073C4.55863 11.3359 4.54956 11.3847 4.54412 11.4152C4.53929 11.4457 4.53143 11.4964 4.5272 11.5275C4.52297 11.5592 4.51692 11.6086 4.51451 11.6373C4.51148 11.666 4.50725 11.7202 4.50484 11.7581C4.50181 11.7971 4.5 11.8715 4.5 11.9331C4.5 11.9917 4.50121 12.0612 4.50363 12.0869C4.50544 12.1125 4.50967 12.1662 4.51269 12.2052C4.51632 12.2442 4.52176 12.2985 4.52538 12.326C4.52841 12.3528 4.53626 12.4059 4.54291 12.4431C4.54896 12.4809 4.55984 12.5395 4.56648 12.573C4.57374 12.6072 4.58703 12.6664 4.5961 12.7048C4.60577 12.7432 4.61967 12.7975 4.62753 12.8256C4.63538 12.8536 4.6511 12.9055 4.66258 12.9415C4.67346 12.9768 4.6922 13.0317 4.70308 13.0635C4.71456 13.0946 4.7339 13.1458 4.74599 13.1763C4.75808 13.2068 4.77863 13.2556 4.79132 13.2855C4.80462 13.3154 4.8306 13.3715 4.85055 13.4112C4.86989 13.4502 4.89648 13.5021 4.91038 13.5265C4.92368 13.5509 4.94544 13.5887 4.95813 13.6106C4.97143 13.6326 5.00044 13.679 5.02341 13.7137C5.04637 13.7485 5.08385 13.8028 5.10742 13.8345C5.13099 13.8656 5.16604 13.9108 5.18538 13.9345C5.20473 13.9577 5.23676 13.9949 5.2561 14.0169C5.27544 14.0389 5.31291 14.0785 5.33951 14.106C5.3661 14.1328 5.40841 14.1737 5.43379 14.1962C5.45857 14.2194 5.49604 14.2524 5.51659 14.2694C5.53775 14.2865 5.5722 14.3146 5.59396 14.3317C5.61511 14.3481 5.65681 14.3786 5.68643 14.3994C5.71604 14.4201 5.76379 14.4524 5.79341 14.4713C5.82242 14.4896 5.86956 14.5177 5.89676 14.5336C5.92456 14.55 5.98319 14.5811 6.02731 14.6031C6.07143 14.6257 6.12764 14.6525 6.15181 14.6635C6.17599 14.6739 6.2189 14.6922 6.24731 14.7038C6.27571 14.716 6.32346 14.7343 6.35247 14.7452C6.38209 14.7562 6.43286 14.7739 6.4661 14.7849C6.49874 14.7953 6.55555 14.8129 6.59181 14.8233C6.62808 14.8337 6.68791 14.8502 6.72538 14.8593C6.76225 14.8685 6.82692 14.8831 6.86802 14.8922C6.90973 14.9008 6.98104 14.9148 7.02698 14.9227C7.07291 14.9307 7.14665 14.9417 7.19198 14.9478C7.2367 14.9539 7.30802 14.9624 7.35033 14.9673C7.39264 14.9715 7.45489 14.977 7.48874 14.9795C7.52258 14.9825 7.57214 14.9862 7.59874 14.988C7.62593 14.9898 7.67731 14.9941 7.71357 14.9978C7.74983 15.0008 7.80846 15.0075 7.84412 15.0118C7.87918 15.0161 7.93599 15.024 7.96983 15.0295C8.00368 15.035 8.05808 15.0441 8.09071 15.0502C8.12335 15.0563 8.18319 15.0679 8.22247 15.0765C8.26236 15.085 8.32522 15.1003 8.36269 15.1094C8.39956 15.1192 8.45758 15.135 8.49143 15.1448C8.52527 15.1545 8.5833 15.1728 8.62016 15.185C8.65764 15.1972 8.71385 15.2174 8.74588 15.229C8.77791 15.2406 8.83049 15.2613 8.86253 15.2741C8.89456 15.2869 8.94896 15.3107 8.98341 15.326C9.01786 15.3412 9.08494 15.3735 9.13269 15.3973C9.17983 15.4217 9.24632 15.4565 9.28016 15.4754C9.31401 15.4949 9.36357 15.5236 9.39016 15.5401C9.41736 15.5559 9.46088 15.584 9.48747 15.6011C9.51467 15.6188 9.55879 15.6486 9.58659 15.6676C9.6144 15.6871 9.66698 15.7249 9.70324 15.7523C9.7395 15.7798 9.79148 15.8207 9.81929 15.8426C9.84709 15.8652 9.89363 15.9042 9.92264 15.9299C9.95165 15.9555 9.98126 15.9817 9.98852 15.9878L10.0018 15.9994C10.0381 15.9671 10.0677 15.9414 10.0913 15.9207C10.1142 15.9006 10.1596 15.8628 10.1916 15.8365C10.2236 15.8109 10.2659 15.7774 10.2859 15.7621C10.3058 15.7469 10.3439 15.7188 10.3711 15.6999C10.3977 15.6804 10.443 15.6492 10.4714 15.6297C10.4998 15.6108 10.5415 15.5834 10.5639 15.5693C10.5869 15.5553 10.6249 15.5321 10.6491 15.5175C10.6733 15.5035 10.715 15.4797 10.7416 15.4644C10.7688 15.4498 10.8262 15.4193 10.8703 15.3967C10.9145 15.3748 10.9719 15.3467 10.9979 15.3351C11.0238 15.3235 11.071 15.3028 11.103 15.2894C11.1351 15.2759 11.1846 15.2558 11.213 15.2448C11.2414 15.2338 11.2868 15.2174 11.314 15.2082C11.3405 15.1985 11.3895 15.182 11.4221 15.1716C11.4548 15.1613 11.5068 15.146 11.537 15.1375C11.5672 15.1283 11.6143 15.1155 11.6421 15.1088C11.6699 15.1021 11.7141 15.0911 11.7413 15.085C11.7679 15.0789 11.812 15.0691 11.8386 15.0643C11.8652 15.0588 11.9147 15.049 11.9486 15.0435C11.9824 15.0374 12.0398 15.0283 12.0761 15.0228C12.1124 15.0179 12.1668 15.0106 12.197 15.0069C12.2272 15.0039 12.2762 14.9984 12.3052 14.9959C12.3348 14.9935 12.3783 14.9898 12.4025 14.988C12.4266 14.9862 12.4756 14.9825 12.5113 14.9795C12.5463 14.977 12.6031 14.9722 12.637 14.9685C12.6708 14.9654 12.727 14.9587 12.7627 14.9545C12.7977 14.9496 12.863 14.9404 12.9071 14.9337C12.9513 14.927 13.0129 14.916 13.0437 14.9105C13.0752 14.9044 13.1247 14.8941 13.1537 14.888C13.1834 14.8819 13.2353 14.8697 13.2704 14.8611C13.3048 14.8526 13.3647 14.8361 13.404 14.8251C13.4426 14.8136 13.4958 14.7977 13.5218 14.7892C13.5472 14.7812 13.5968 14.7641 13.6318 14.7513C13.6663 14.7385 13.7158 14.7196 13.7418 14.7092C13.7672 14.6989 13.8059 14.683 13.8264 14.6739C13.847 14.6647 13.8875 14.6458 13.9159 14.6324C13.9443 14.619 13.9926 14.5946 14.0229 14.5787C14.0531 14.5622 14.0978 14.5378 14.122 14.5238C14.1462 14.5098 14.1885 14.4835 14.2163 14.4659C14.2441 14.4482 14.2834 14.4213 14.3039 14.4073C14.3251 14.3927 14.3553 14.3707 14.3716 14.3585C14.3879 14.3463 14.4248 14.3176 14.4532 14.2944C14.4822 14.2713 14.5257 14.2341 14.5511 14.2121C14.5759 14.1895 14.6236 14.1438 14.6563 14.1108C14.6889 14.0773 14.7336 14.0303 14.7554 14.0059C14.7765 13.9809 14.8116 13.9394 14.8327 13.9138C14.8533 13.8876 14.8871 13.843 14.9077 13.8156C14.9276 13.7875 14.9603 13.7406 14.9796 13.7107C14.9996 13.6808 15.028 13.6356 15.0437 13.6094C15.0588 13.5832 15.0848 13.5374 15.1011 13.5075C15.1174 13.4783 15.1452 13.4221 15.164 13.3837C15.1827 13.3453 15.2105 13.2843 15.2262 13.2477C15.2413 13.2111 15.2649 13.1513 15.2782 13.1159C15.2915 13.0799 15.3126 13.0214 15.3241 12.986C15.3362 12.95 15.3549 12.8878 15.3664 12.8475C15.3779 12.8073 15.3942 12.7463 15.4027 12.7115C15.4112 12.6761 15.4245 12.6169 15.4323 12.5797C15.4402 12.5419 15.4504 12.4858 15.4559 12.4541C15.4607 12.423 15.468 12.376 15.4716 12.3498C15.4752 12.3235 15.4807 12.2735 15.4843 12.2387C15.4873 12.2034 15.4921 12.1546 15.494 12.1289C15.4958 12.1039 15.4982 12.0271 15.4994 11.9594C15.5 11.8807 15.4994 11.816 15.497 11.7819C15.4952 11.752 15.4921 11.7099 15.4903 11.6879C15.4885 11.666 15.4843 11.6226 15.4807 11.5909C15.4776 11.5598 15.4704 11.5055 15.4649 11.4708C15.4601 11.436 15.4492 11.3756 15.442 11.3372C15.4341 11.2987 15.4208 11.2383 15.4118 11.2024C15.4033 11.167 15.3888 11.1127 15.3803 11.0822C15.3713 11.0517 15.3531 10.9931 15.3398 10.9516C15.3265 10.9108 15.3024 10.8443 15.2873 10.804C15.2715 10.7644 15.2468 10.7028 15.2316 10.668C15.2165 10.6332 15.1839 10.5631 15.1591 10.5124C15.1343 10.4618 15.0981 10.3917 15.0787 10.3569C15.0594 10.3221 15.0268 10.2648 15.0056 10.23C14.9851 10.1952 14.9403 10.1239 14.9065 10.0714C14.8726 10.019 14.8297 9.95124 14.811 9.92074C14.7916 9.89024 14.7596 9.83717 14.7397 9.80301C14.7191 9.76946 14.6859 9.71151 14.6647 9.67491C14.6442 9.63831 14.6121 9.58036 14.594 9.5462C14.5759 9.51204 14.5402 9.4425 14.5148 9.39065C14.4894 9.33941 14.4544 9.26621 14.4375 9.229C14.4212 9.19118 14.3964 9.13506 14.3837 9.10334C14.3704 9.07223 14.3504 9.0216 14.339 8.9911C14.3269 8.9606 14.3045 8.89533 14.2882 8.84653C14.2719 8.79773 14.2507 8.72697 14.2404 8.68976C14.2302 8.65194 14.2151 8.59216 14.2072 8.55617C14.1993 8.52018 14.1885 8.4665 14.183 8.43539C14.1782 8.40489 14.1709 8.35792 14.1679 8.33108C14.1643 8.30363 14.1594 8.26154 14.1576 8.23714C14.1546 8.21091 14.1534 8.14747 14.1534 8.07854C14.1534 7.9907 14.1546 7.95227 14.1588 7.91201C14.1619 7.88334 14.1691 7.83454 14.174 7.80404C14.1794 7.77354 14.1891 7.72535 14.1957 7.69668C14.203 7.6674 14.2175 7.61677 14.2284 7.58383C14.2398 7.55089 14.258 7.50148 14.2694 7.47403C14.2815 7.44719 14.2966 7.41303 14.3039 7.39839C14.3118 7.38314 14.3287 7.35203 14.342 7.32824C14.3553 7.30506 14.377 7.26907 14.3903 7.24894C14.403 7.22881 14.426 7.19587 14.4411 7.17574C14.4562 7.15622 14.478 7.12816 14.4894 7.11413C14.5009 7.1001 14.5293 7.06838 14.5517 7.04337C14.5747 7.01836 14.6134 6.97932 14.6375 6.95736C14.6617 6.93479 14.6955 6.90429 14.7125 6.88965C14.73 6.87562 14.7596 6.85183 14.7777 6.83719C14.808 6.81401 14.811 6.81035 14.808 6.80547C14.8055 6.80242 14.4568 6.42239 14.0325 5.96062C13.6082 5.49946 13.2601 5.12126 13.2589 5.12065C13.2571 5.12004 13.2172 5.14078 13.1701 5.1664C13.1235 5.19202 13.0522 5.22984 13.0123 5.24997C12.9724 5.2701 12.9144 5.29877 12.8836 5.31341C12.8527 5.32805 12.7977 5.35245 12.7627 5.36831C12.727 5.38417 12.6624 5.41162 12.6182 5.42931C12.5741 5.447 12.5058 5.47384 12.4671 5.48787C12.4285 5.50251 12.3656 5.52447 12.3275 5.53789C12.2894 5.5507 12.2314 5.56961 12.1982 5.57998C12.1655 5.59035 12.1166 5.60499 12.09 5.61292C12.0634 5.62085 12.012 5.63488 11.977 5.64464C11.9413 5.6544 11.8809 5.67026 11.8416 5.68002C11.8029 5.68917 11.7394 5.70442 11.7002 5.71296C11.6615 5.7215 11.5968 5.73492 11.5575 5.74285C11.5176 5.75078 11.4693 5.76054 11.4505 5.76359C11.4312 5.76725 11.3816 5.77579 11.3405 5.78311C11.2988 5.78982 11.2251 5.80141 11.1768 5.80812C11.1284 5.81544 11.0523 5.8252 11.0075 5.83069C10.9622 5.83557 10.8975 5.84289 10.8625 5.84655C10.828 5.8496 10.7742 5.85509 10.7434 5.85753C10.712 5.85997 10.6679 5.86363 10.6443 5.86546C10.6207 5.86729 10.5657 5.87095 10.5216 5.87339C10.4775 5.87583 10.4043 5.8801 10.3584 5.88193C10.3034 5.88498 10.1795 5.8862 9.99516 5.8862C9.77516 5.8862 9.69297 5.88498 9.61016 5.88071C9.55214 5.87766 9.47176 5.87278 9.43126 5.87034C9.39077 5.8679 9.33879 5.86424 9.31643 5.86241C9.29407 5.86058 9.24451 5.85631 9.20643 5.85265C9.16835 5.84899 9.11093 5.8435 9.0789 5.83984C9.04687 5.83679 8.99247 5.83008 8.95742 5.82581C8.92236 5.82154 8.86374 5.81361 8.82687 5.80812C8.79 5.80324 8.72896 5.79348 8.69088 5.78738C8.6528 5.78128 8.59418 5.77152 8.56033 5.76542C8.52709 5.75932 8.46786 5.74773 8.42918 5.7398C8.3911 5.73248 8.32703 5.71906 8.28775 5.70991C8.24846 5.70137 8.17775 5.68429 8.13 5.67209C8.08225 5.65989 8.01456 5.6422 7.9789 5.63244C7.94385 5.62268 7.8822 5.60438 7.84231 5.59218C7.80242 5.57998 7.73473 5.55802 7.69181 5.54399C7.6483 5.52935 7.58725 5.508 7.55643 5.49641C7.5256 5.48543 7.46819 5.46347 7.4289 5.44822C7.39022 5.43297 7.31951 5.40369 7.27176 5.38356C7.22462 5.36282 7.15874 5.33354 7.1261 5.31768C7.09286 5.30243 7.03 5.27193 6.98588 5.24936C6.94176 5.2274 6.87044 5.18897 6.82632 5.16457C6.7828 5.14017 6.74593 5.12004 6.74412 5.12004C6.74291 5.12004 6.3972 5.49458 5.97654 5.95208Z"/>
</mask>
<path d="M5.97654 5.95208C5.55588 6.40958 5.20654 6.78961 5.20049 6.79632L5.18841 6.80974C5.24764 6.8561 5.28511 6.88721 5.30929 6.90795C5.33346 6.92869 5.37758 6.97017 5.4072 7.00006C5.43621 7.02934 5.47489 7.07082 5.49302 7.09217C5.51055 7.11291 5.53775 7.14646 5.55286 7.16659C5.56797 7.18672 5.59154 7.22027 5.60544 7.24101C5.61934 7.26175 5.63687 7.28981 5.64473 7.30323C5.65258 7.31604 5.66709 7.34227 5.67736 7.36179C5.68764 7.3807 5.70396 7.41425 5.71423 7.43621C5.72451 7.45817 5.74022 7.49538 5.74929 7.51856C5.75835 7.54235 5.77165 7.58017 5.7789 7.60274C5.78615 7.62531 5.79764 7.66679 5.80429 7.69485C5.81154 7.72291 5.82121 7.76988 5.82604 7.79977C5.83148 7.82905 5.83753 7.87419 5.84055 7.8992C5.84297 7.92482 5.84659 7.97606 5.8478 8.01388C5.84962 8.05231 5.84962 8.11331 5.8478 8.15357C5.84659 8.19261 5.84297 8.2469 5.84055 8.27374C5.83753 8.30119 5.83209 8.34755 5.82725 8.37683C5.82302 8.40672 5.81456 8.45674 5.80852 8.48785C5.80247 8.51957 5.7922 8.56898 5.78494 8.59765C5.7783 8.62632 5.765 8.67695 5.75593 8.70989C5.74626 8.74344 5.72994 8.79773 5.71907 8.83067C5.70879 8.86361 5.69126 8.91546 5.68038 8.94474C5.66951 8.97463 5.65077 9.02404 5.63868 9.05454C5.62659 9.08504 5.60423 9.1375 5.58973 9.17166C5.57462 9.20582 5.54923 9.26316 5.53231 9.29854C5.51599 9.33453 5.48396 9.39919 5.4622 9.44311C5.43984 9.48642 5.40599 9.55169 5.38604 9.58768C5.3667 9.62306 5.34011 9.67125 5.32742 9.69382C5.31412 9.71639 5.28813 9.76153 5.26879 9.79386C5.25005 9.82619 5.21802 9.87865 5.19808 9.91098C5.17813 9.94331 5.13341 10.0147 5.09775 10.0696C5.06209 10.1245 5.01495 10.2013 4.99198 10.2398C4.96901 10.2782 4.93698 10.3331 4.92126 10.3618C4.90555 10.3904 4.87352 10.4521 4.85055 10.4978C4.82758 10.5442 4.79857 10.6046 4.78648 10.6314C4.7744 10.6582 4.75566 10.7028 4.74418 10.7296C4.7333 10.7571 4.71456 10.804 4.70308 10.8345C4.69099 10.865 4.67104 10.9211 4.65896 10.9596C4.64626 10.998 4.62874 11.0547 4.61967 11.0852C4.61121 11.1157 4.59791 11.1664 4.59005 11.1975C4.5822 11.2292 4.57071 11.2786 4.56467 11.3073C4.55863 11.3359 4.54956 11.3847 4.54412 11.4152C4.53929 11.4457 4.53143 11.4964 4.5272 11.5275C4.52297 11.5592 4.51692 11.6086 4.51451 11.6373C4.51148 11.666 4.50725 11.7202 4.50484 11.7581C4.50181 11.7971 4.5 11.8715 4.5 11.9331C4.5 11.9917 4.50121 12.0612 4.50363 12.0869C4.50544 12.1125 4.50967 12.1662 4.51269 12.2052C4.51632 12.2442 4.52176 12.2985 4.52538 12.326C4.52841 12.3528 4.53626 12.4059 4.54291 12.4431C4.54896 12.4809 4.55984 12.5395 4.56648 12.573C4.57374 12.6072 4.58703 12.6664 4.5961 12.7048C4.60577 12.7432 4.61967 12.7975 4.62753 12.8256C4.63538 12.8536 4.6511 12.9055 4.66258 12.9415C4.67346 12.9768 4.6922 13.0317 4.70308 13.0635C4.71456 13.0946 4.7339 13.1458 4.74599 13.1763C4.75808 13.2068 4.77863 13.2556 4.79132 13.2855C4.80462 13.3154 4.8306 13.3715 4.85055 13.4112C4.86989 13.4502 4.89648 13.5021 4.91038 13.5265C4.92368 13.5509 4.94544 13.5887 4.95813 13.6106C4.97143 13.6326 5.00044 13.679 5.02341 13.7137C5.04637 13.7485 5.08385 13.8028 5.10742 13.8345C5.13099 13.8656 5.16604 13.9108 5.18538 13.9345C5.20473 13.9577 5.23676 13.9949 5.2561 14.0169C5.27544 14.0389 5.31291 14.0785 5.33951 14.106C5.3661 14.1328 5.40841 14.1737 5.43379 14.1962C5.45857 14.2194 5.49604 14.2524 5.51659 14.2694C5.53775 14.2865 5.5722 14.3146 5.59396 14.3317C5.61511 14.3481 5.65681 14.3786 5.68643 14.3994C5.71604 14.4201 5.76379 14.4524 5.79341 14.4713C5.82242 14.4896 5.86956 14.5177 5.89676 14.5336C5.92456 14.55 5.98319 14.5811 6.02731 14.6031C6.07143 14.6257 6.12764 14.6525 6.15181 14.6635C6.17599 14.6739 6.2189 14.6922 6.24731 14.7038C6.27571 14.716 6.32346 14.7343 6.35247 14.7452C6.38209 14.7562 6.43286 14.7739 6.4661 14.7849C6.49874 14.7953 6.55555 14.8129 6.59181 14.8233C6.62808 14.8337 6.68791 14.8502 6.72538 14.8593C6.76225 14.8685 6.82692 14.8831 6.86802 14.8922C6.90973 14.9008 6.98104 14.9148 7.02698 14.9227C7.07291 14.9307 7.14665 14.9417 7.19198 14.9478C7.2367 14.9539 7.30802 14.9624 7.35033 14.9673C7.39264 14.9715 7.45489 14.977 7.48874 14.9795C7.52258 14.9825 7.57214 14.9862 7.59874 14.988C7.62593 14.9898 7.67731 14.9941 7.71357 14.9978C7.74983 15.0008 7.80846 15.0075 7.84412 15.0118C7.87918 15.0161 7.93599 15.024 7.96983 15.0295C8.00368 15.035 8.05808 15.0441 8.09071 15.0502C8.12335 15.0563 8.18319 15.0679 8.22247 15.0765C8.26236 15.085 8.32522 15.1003 8.36269 15.1094C8.39956 15.1192 8.45758 15.135 8.49143 15.1448C8.52527 15.1545 8.5833 15.1728 8.62016 15.185C8.65764 15.1972 8.71385 15.2174 8.74588 15.229C8.77791 15.2406 8.83049 15.2613 8.86253 15.2741C8.89456 15.2869 8.94896 15.3107 8.98341 15.326C9.01786 15.3412 9.08494 15.3735 9.13269 15.3973C9.17983 15.4217 9.24632 15.4565 9.28016 15.4754C9.31401 15.4949 9.36357 15.5236 9.39016 15.5401C9.41736 15.5559 9.46088 15.584 9.48747 15.6011C9.51467 15.6188 9.55879 15.6486 9.58659 15.6676C9.6144 15.6871 9.66698 15.7249 9.70324 15.7523C9.7395 15.7798 9.79148 15.8207 9.81929 15.8426C9.84709 15.8652 9.89363 15.9042 9.92264 15.9299C9.95165 15.9555 9.98126 15.9817 9.98852 15.9878L10.0018 15.9994C10.0381 15.9671 10.0677 15.9414 10.0913 15.9207C10.1142 15.9006 10.1596 15.8628 10.1916 15.8365C10.2236 15.8109 10.2659 15.7774 10.2859 15.7621C10.3058 15.7469 10.3439 15.7188 10.3711 15.6999C10.3977 15.6804 10.443 15.6492 10.4714 15.6297C10.4998 15.6108 10.5415 15.5834 10.5639 15.5693C10.5869 15.5553 10.6249 15.5321 10.6491 15.5175C10.6733 15.5035 10.715 15.4797 10.7416 15.4644C10.7688 15.4498 10.8262 15.4193 10.8703 15.3967C10.9145 15.3748 10.9719 15.3467 10.9979 15.3351C11.0238 15.3235 11.071 15.3028 11.103 15.2894C11.1351 15.2759 11.1846 15.2558 11.213 15.2448C11.2414 15.2338 11.2868 15.2174 11.314 15.2082C11.3405 15.1985 11.3895 15.182 11.4221 15.1716C11.4548 15.1613 11.5068 15.146 11.537 15.1375C11.5672 15.1283 11.6143 15.1155 11.6421 15.1088C11.6699 15.1021 11.7141 15.0911 11.7413 15.085C11.7679 15.0789 11.812 15.0691 11.8386 15.0643C11.8652 15.0588 11.9147 15.049 11.9486 15.0435C11.9824 15.0374 12.0398 15.0283 12.0761 15.0228C12.1124 15.0179 12.1668 15.0106 12.197 15.0069C12.2272 15.0039 12.2762 14.9984 12.3052 14.9959C12.3348 14.9935 12.3783 14.9898 12.4025 14.988C12.4266 14.9862 12.4756 14.9825 12.5113 14.9795C12.5463 14.977 12.6031 14.9722 12.637 14.9685C12.6708 14.9654 12.727 14.9587 12.7627 14.9545C12.7977 14.9496 12.863 14.9404 12.9071 14.9337C12.9513 14.927 13.0129 14.916 13.0437 14.9105C13.0752 14.9044 13.1247 14.8941 13.1537 14.888C13.1834 14.8819 13.2353 14.8697 13.2704 14.8611C13.3048 14.8526 13.3647 14.8361 13.404 14.8251C13.4426 14.8136 13.4958 14.7977 13.5218 14.7892C13.5472 14.7812 13.5968 14.7641 13.6318 14.7513C13.6663 14.7385 13.7158 14.7196 13.7418 14.7092C13.7672 14.6989 13.8059 14.683 13.8264 14.6739C13.847 14.6647 13.8875 14.6458 13.9159 14.6324C13.9443 14.619 13.9926 14.5946 14.0229 14.5787C14.0531 14.5622 14.0978 14.5378 14.122 14.5238C14.1462 14.5098 14.1885 14.4835 14.2163 14.4659C14.2441 14.4482 14.2834 14.4213 14.3039 14.4073C14.3251 14.3927 14.3553 14.3707 14.3716 14.3585C14.3879 14.3463 14.4248 14.3176 14.4532 14.2944C14.4822 14.2713 14.5257 14.2341 14.5511 14.2121C14.5759 14.1895 14.6236 14.1438 14.6563 14.1108C14.6889 14.0773 14.7336 14.0303 14.7554 14.0059C14.7765 13.9809 14.8116 13.9394 14.8327 13.9138C14.8533 13.8876 14.8871 13.843 14.9077 13.8156C14.9276 13.7875 14.9603 13.7406 14.9796 13.7107C14.9996 13.6808 15.028 13.6356 15.0437 13.6094C15.0588 13.5832 15.0848 13.5374 15.1011 13.5075C15.1174 13.4783 15.1452 13.4221 15.164 13.3837C15.1827 13.3453 15.2105 13.2843 15.2262 13.2477C15.2413 13.2111 15.2649 13.1513 15.2782 13.1159C15.2915 13.0799 15.3126 13.0214 15.3241 12.986C15.3362 12.95 15.3549 12.8878 15.3664 12.8475C15.3779 12.8073 15.3942 12.7463 15.4027 12.7115C15.4112 12.6761 15.4245 12.6169 15.4323 12.5797C15.4402 12.5419 15.4504 12.4858 15.4559 12.4541C15.4607 12.423 15.468 12.376 15.4716 12.3498C15.4752 12.3235 15.4807 12.2735 15.4843 12.2387C15.4873 12.2034 15.4921 12.1546 15.494 12.1289C15.4958 12.1039 15.4982 12.0271 15.4994 11.9594C15.5 11.8807 15.4994 11.816 15.497 11.7819C15.4952 11.752 15.4921 11.7099 15.4903 11.6879C15.4885 11.666 15.4843 11.6226 15.4807 11.5909C15.4776 11.5598 15.4704 11.5055 15.4649 11.4708C15.4601 11.436 15.4492 11.3756 15.442 11.3372C15.4341 11.2987 15.4208 11.2383 15.4118 11.2024C15.4033 11.167 15.3888 11.1127 15.3803 11.0822C15.3713 11.0517 15.3531 10.9931 15.3398 10.9516C15.3265 10.9108 15.3024 10.8443 15.2873 10.804C15.2715 10.7644 15.2468 10.7028 15.2316 10.668C15.2165 10.6332 15.1839 10.5631 15.1591 10.5124C15.1343 10.4618 15.0981 10.3917 15.0787 10.3569C15.0594 10.3221 15.0268 10.2648 15.0056 10.23C14.9851 10.1952 14.9403 10.1239 14.9065 10.0714C14.8726 10.019 14.8297 9.95124 14.811 9.92074C14.7916 9.89024 14.7596 9.83717 14.7397 9.80301C14.7191 9.76946 14.6859 9.71151 14.6647 9.67491C14.6442 9.63831 14.6121 9.58036 14.594 9.5462C14.5759 9.51204 14.5402 9.4425 14.5148 9.39065C14.4894 9.33941 14.4544 9.26621 14.4375 9.229C14.4212 9.19118 14.3964 9.13506 14.3837 9.10334C14.3704 9.07223 14.3504 9.0216 14.339 8.9911C14.3269 8.9606 14.3045 8.89533 14.2882 8.84653C14.2719 8.79773 14.2507 8.72697 14.2404 8.68976C14.2302 8.65194 14.2151 8.59216 14.2072 8.55617C14.1993 8.52018 14.1885 8.4665 14.183 8.43539C14.1782 8.40489 14.1709 8.35792 14.1679 8.33108C14.1643 8.30363 14.1594 8.26154 14.1576 8.23714C14.1546 8.21091 14.1534 8.14747 14.1534 8.07854C14.1534 7.9907 14.1546 7.95227 14.1588 7.91201C14.1619 7.88334 14.1691 7.83454 14.174 7.80404C14.1794 7.77354 14.1891 7.72535 14.1957 7.69668C14.203 7.6674 14.2175 7.61677 14.2284 7.58383C14.2398 7.55089 14.258 7.50148 14.2694 7.47403C14.2815 7.44719 14.2966 7.41303 14.3039 7.39839C14.3118 7.38314 14.3287 7.35203 14.342 7.32824C14.3553 7.30506 14.377 7.26907 14.3903 7.24894C14.403 7.22881 14.426 7.19587 14.4411 7.17574C14.4562 7.15622 14.478 7.12816 14.4894 7.11413C14.5009 7.1001 14.5293 7.06838 14.5517 7.04337C14.5747 7.01836 14.6134 6.97932 14.6375 6.95736C14.6617 6.93479 14.6955 6.90429 14.7125 6.88965C14.73 6.87562 14.7596 6.85183 14.7777 6.83719C14.808 6.81401 14.811 6.81035 14.808 6.80547C14.8055 6.80242 14.4568 6.42239 14.0325 5.96062C13.6082 5.49946 13.2601 5.12126 13.2589 5.12065C13.2571 5.12004 13.2172 5.14078 13.1701 5.1664C13.1235 5.19202 13.0522 5.22984 13.0123 5.24997C12.9724 5.2701 12.9144 5.29877 12.8836 5.31341C12.8527 5.32805 12.7977 5.35245 12.7627 5.36831C12.727 5.38417 12.6624 5.41162 12.6182 5.42931C12.5741 5.447 12.5058 5.47384 12.4671 5.48787C12.4285 5.50251 12.3656 5.52447 12.3275 5.53789C12.2894 5.5507 12.2314 5.56961 12.1982 5.57998C12.1655 5.59035 12.1166 5.60499 12.09 5.61292C12.0634 5.62085 12.012 5.63488 11.977 5.64464C11.9413 5.6544 11.8809 5.67026 11.8416 5.68002C11.8029 5.68917 11.7394 5.70442 11.7002 5.71296C11.6615 5.7215 11.5968 5.73492 11.5575 5.74285C11.5176 5.75078 11.4693 5.76054 11.4505 5.76359C11.4312 5.76725 11.3816 5.77579 11.3405 5.78311C11.2988 5.78982 11.2251 5.80141 11.1768 5.80812C11.1284 5.81544 11.0523 5.8252 11.0075 5.83069C10.9622 5.83557 10.8975 5.84289 10.8625 5.84655C10.828 5.8496 10.7742 5.85509 10.7434 5.85753C10.712 5.85997 10.6679 5.86363 10.6443 5.86546C10.6207 5.86729 10.5657 5.87095 10.5216 5.87339C10.4775 5.87583 10.4043 5.8801 10.3584 5.88193C10.3034 5.88498 10.1795 5.8862 9.99516 5.8862C9.77516 5.8862 9.69297 5.88498 9.61016 5.88071C9.55214 5.87766 9.47176 5.87278 9.43126 5.87034C9.39077 5.8679 9.33879 5.86424 9.31643 5.86241C9.29407 5.86058 9.24451 5.85631 9.20643 5.85265C9.16835 5.84899 9.11093 5.8435 9.0789 5.83984C9.04687 5.83679 8.99247 5.83008 8.95742 5.82581C8.92236 5.82154 8.86374 5.81361 8.82687 5.80812C8.79 5.80324 8.72896 5.79348 8.69088 5.78738C8.6528 5.78128 8.59418 5.77152 8.56033 5.76542C8.52709 5.75932 8.46786 5.74773 8.42918 5.7398C8.3911 5.73248 8.32703 5.71906 8.28775 5.70991C8.24846 5.70137 8.17775 5.68429 8.13 5.67209C8.08225 5.65989 8.01456 5.6422 7.9789 5.63244C7.94385 5.62268 7.8822 5.60438 7.84231 5.59218C7.80242 5.57998 7.73473 5.55802 7.69181 5.54399C7.6483 5.52935 7.58725 5.508 7.55643 5.49641C7.5256 5.48543 7.46819 5.46347 7.4289 5.44822C7.39022 5.43297 7.31951 5.40369 7.27176 5.38356C7.22462 5.36282 7.15874 5.33354 7.1261 5.31768C7.09286 5.30243 7.03 5.27193 6.98588 5.24936C6.94176 5.2274 6.87044 5.18897 6.82632 5.16457C6.7828 5.14017 6.74593 5.12004 6.74412 5.12004C6.74291 5.12004 6.3972 5.49458 5.97654 5.95208Z" stroke="white" stroke-width="0.2" mask="url(#path-5-outside-1_4144_54697)"/>
<path d="M6.13694 6.06127C5.78397 6.44679 5.48902 6.76826 5.48238 6.77558L5.46908 6.78961C5.51078 6.82682 5.54161 6.85671 5.56457 6.87928C5.58754 6.90185 5.6232 6.93967 5.64375 6.96285C5.6643 6.98603 5.69573 7.02263 5.71326 7.0452C5.73078 7.06716 5.75859 7.10559 5.77551 7.12999C5.79243 7.15439 5.81842 7.19526 5.83353 7.22027C5.84864 7.24589 5.87282 7.28981 5.88732 7.31909C5.90183 7.34776 5.92298 7.39412 5.93446 7.42218C5.94595 7.44963 5.96227 7.49355 5.97012 7.51856C5.97859 7.54418 5.99128 7.58627 5.99853 7.6125C6.00518 7.63873 6.01606 7.68509 6.0221 7.71559C6.02815 7.74609 6.036 7.79306 6.03963 7.8199C6.04265 7.84735 6.04749 7.88761 6.0499 7.91079C6.05172 7.93458 6.05353 7.99741 6.05353 8.05963C6.05353 8.12124 6.05172 8.18773 6.0493 8.21518C6.04749 8.24141 6.04205 8.29082 6.03782 8.32437C6.03359 8.35853 6.02573 8.4116 6.02089 8.4421C6.01545 8.4726 6.00639 8.51957 6.00034 8.54702C5.9943 8.57386 5.98463 8.61656 5.97859 8.64218C5.97194 8.66719 5.95924 8.71477 5.94957 8.74832C5.9399 8.78126 5.92419 8.8325 5.91512 8.86239C5.90545 8.89228 5.88793 8.94291 5.87584 8.97524C5.86435 9.00757 5.84501 9.05881 5.83293 9.08931C5.82084 9.11981 5.80029 9.16983 5.78699 9.20033C5.7743 9.23083 5.75012 9.28512 5.7338 9.32111C5.71749 9.35649 5.68545 9.42298 5.66309 9.46873C5.64012 9.51387 5.6087 9.57609 5.59238 9.60659C5.57606 9.63709 5.54644 9.69199 5.52589 9.72859C5.50534 9.76519 5.46304 9.83839 5.43221 9.89024C5.40078 9.9427 5.35364 10.0208 5.32644 10.0635C5.29924 10.1062 5.25573 10.1739 5.23034 10.2141C5.20496 10.2544 5.1687 10.3124 5.15117 10.3429C5.13304 10.3734 5.11249 10.4081 5.10584 10.4203C5.09919 10.4325 5.09375 10.4441 5.09375 10.4466C5.09375 10.449 5.1004 10.4459 5.11007 10.4398C5.11913 10.4344 5.59177 10.1257 6.16051 9.75421C6.72924 9.38272 7.42067 8.93071 7.69749 8.75015C7.9743 8.56959 8.43787 8.26703 8.72859 8.07732C9.0187 7.88761 9.48287 7.58444 9.75908 7.40388C10.0359 7.22332 10.7031 6.78717 11.2429 6.4352C11.782 6.08262 12.2329 5.78799 12.245 5.78006C12.257 5.77274 12.2655 5.76542 12.2643 5.76481C12.2625 5.7642 12.2305 5.77335 12.1936 5.78433C12.1561 5.79531 12.0945 5.81361 12.0564 5.82398C12.0183 5.83435 11.9567 5.85082 11.9186 5.86058C11.8805 5.87034 11.8201 5.88437 11.785 5.89291C11.7494 5.90084 11.6907 5.91365 11.6545 5.92097C11.6182 5.9289 11.5614 5.93988 11.5288 5.94598C11.4955 5.95269 11.4308 5.96367 11.3843 5.9716C11.3372 5.97953 11.2695 5.9899 11.2332 5.99539C11.1969 6.00088 11.1335 6.00942 11.0918 6.0143C11.0501 6.01979 10.983 6.02772 10.9425 6.03199C10.902 6.03626 10.8283 6.04358 10.7793 6.04785C10.7297 6.05212 10.656 6.05761 10.6155 6.06066C10.575 6.0631 10.5013 6.06737 10.4523 6.07042C10.4028 6.07286 10.3055 6.07652 10.2353 6.07835C10.1562 6.08079 10.0359 6.0814 9.91804 6.08018C9.81348 6.07957 9.6938 6.07713 9.6521 6.0753C9.611 6.07347 9.54935 6.07042 9.51551 6.06859C9.48166 6.06676 9.42304 6.0631 9.38496 6.06066C9.34688 6.05822 9.28282 6.05273 9.24232 6.04968C9.20183 6.04602 9.16133 6.04236 9.15287 6.04175C9.1438 6.04053 9.09727 6.03565 9.04891 6.03077C9.00056 6.02528 8.93831 6.01796 8.91051 6.0143C8.88271 6.01125 8.82589 6.00332 8.78358 5.99722C8.74128 5.99112 8.67238 5.98014 8.63067 5.97343C8.58957 5.96611 8.53216 5.95635 8.50375 5.95086C8.47534 5.94537 8.42337 5.93561 8.38891 5.9289C8.35446 5.92158 8.29402 5.90877 8.25534 5.90023C8.21666 5.89169 8.15018 5.87583 8.10787 5.86546C8.06556 5.85509 8.0015 5.83862 7.96644 5.82886C7.93078 5.8191 7.8776 5.80385 7.84859 5.79531C7.81897 5.78677 7.77424 5.77274 7.74946 5.76542C7.72408 5.75749 7.67029 5.7398 7.62979 5.72638C7.5893 5.71235 7.53067 5.69222 7.49924 5.68063C7.46842 5.66904 7.41826 5.65074 7.38804 5.63854C7.35782 5.62695 7.301 5.60438 7.26232 5.58791C7.22304 5.57205 7.16622 5.54704 7.13479 5.53301C7.10397 5.51898 7.05622 5.49763 7.02963 5.48482C7.00304 5.47201 6.93655 5.43907 6.88216 5.41162C6.82776 5.38417 6.78183 5.36099 6.78062 5.36099C6.77941 5.36099 6.4899 5.67636 6.13694 6.06127Z" fill="white"/>
<path d="M7.39732 5.98807C7.39007 5.98868 7.36347 5.99173 7.3393 5.99417C7.31512 5.99722 7.27402 6.00332 7.24803 6.00881C7.22205 6.01369 7.18397 6.02284 7.16281 6.02894C7.14166 6.03504 7.10661 6.04663 7.08545 6.05395C7.0643 6.06188 7.03226 6.07469 7.01413 6.08262C6.996 6.09116 6.96699 6.10519 6.94946 6.11434C6.93254 6.12349 6.90474 6.13935 6.88842 6.14972C6.8721 6.15948 6.84611 6.17656 6.8304 6.18754C6.81468 6.19852 6.78628 6.21987 6.76754 6.23512C6.7482 6.25037 6.71314 6.28087 6.68957 6.30283C6.6654 6.32479 6.62974 6.36078 6.6104 6.38274C6.59045 6.4047 6.56204 6.43825 6.54694 6.45716C6.53243 6.47668 6.50644 6.51206 6.49073 6.53646C6.47441 6.56086 6.45325 6.59624 6.44358 6.61454C6.43331 6.63284 6.4188 6.66151 6.41155 6.67798C6.40369 6.69445 6.39221 6.72129 6.38556 6.73837C6.37891 6.75484 6.36864 6.78351 6.36259 6.80242C6.35595 6.82133 6.34628 6.8561 6.34023 6.87989C6.33419 6.90429 6.32573 6.94455 6.3215 6.96956C6.31726 6.99518 6.31183 7.033 6.30941 7.05374C6.30699 7.07753 6.30518 7.12938 6.30578 7.1916C6.30578 7.26907 6.30699 7.30201 6.31122 7.33617C6.31424 7.36057 6.31968 7.39656 6.32331 7.41547C6.32633 7.43499 6.33419 7.46976 6.34023 7.49355C6.34567 7.51673 6.35715 7.55455 6.36441 7.57712C6.37226 7.6003 6.38737 7.63995 6.39825 7.66618C6.40974 7.69241 6.42968 7.7345 6.44419 7.76012C6.45809 7.78513 6.48045 7.82295 6.49435 7.84369C6.50825 7.86504 6.53183 7.89798 6.54694 7.91689C6.56144 7.9358 6.58743 7.96752 6.60496 7.98643C6.62188 8.00595 6.65754 8.04133 6.68413 8.06573C6.71133 8.09074 6.7488 8.12307 6.76754 8.13832C6.78628 8.15357 6.82375 8.18102 6.85095 8.19932C6.87754 8.21701 6.91803 8.24202 6.9404 8.25422C6.96276 8.26642 6.99963 8.28472 7.02199 8.29448C7.04435 8.30424 7.08787 8.32071 7.11809 8.33108C7.14831 8.34084 7.19183 8.35365 7.2154 8.35914C7.23836 8.36463 7.27584 8.37195 7.2988 8.375C7.32117 8.37866 7.35622 8.38293 7.37737 8.38537C7.39792 8.3872 7.45111 8.38903 7.49523 8.38903C7.54721 8.38903 7.59133 8.3872 7.62215 8.38415C7.64814 8.3811 7.68622 8.37561 7.70737 8.37195C7.72792 8.36829 7.76177 8.36158 7.78232 8.3567C7.80347 8.35121 7.84095 8.34084 7.86573 8.3323C7.89111 8.32437 7.92798 8.31034 7.94732 8.30241C7.96726 8.29387 7.9999 8.27923 8.01924 8.26947C8.03858 8.25971 8.07303 8.24019 8.096 8.22677C8.11897 8.21274 8.15402 8.18956 8.17457 8.17492C8.19452 8.16028 8.22897 8.13344 8.25133 8.11453C8.27369 8.09623 8.31117 8.06146 8.33534 8.03706C8.35952 8.01266 8.39397 7.97484 8.4121 7.95227C8.43084 7.9297 8.45622 7.89737 8.46891 7.87907C8.481 7.86138 8.50155 7.83088 8.51364 7.81136C8.52573 7.79184 8.54386 7.75951 8.55413 7.73999C8.56441 7.72047 8.57891 7.68936 8.58737 7.67106C8.59523 7.65276 8.60792 7.62043 8.61518 7.59969C8.62303 7.57895 8.63331 7.54662 8.63875 7.52832C8.64358 7.51002 8.65144 7.47891 8.65567 7.46C8.6599 7.44109 8.66655 7.40632 8.67018 7.38375C8.6732 7.36118 8.67803 7.32519 8.68045 7.30445C8.68226 7.28371 8.68408 7.23125 8.68408 7.18855C8.68408 7.14585 8.68226 7.094 8.68045 7.07265C8.67803 7.05191 8.67441 7.01958 8.67199 7.00128C8.66897 6.98298 8.66413 6.9537 8.66051 6.93662C8.65688 6.91893 8.65084 6.89087 8.64661 6.8744C8.64237 6.85793 8.6321 6.82377 8.62364 6.79815C8.61518 6.77314 8.60188 6.73654 8.59342 6.71763C8.58556 6.69811 8.57045 6.66639 8.56018 6.64626C8.5499 6.62613 8.52996 6.58953 8.51485 6.56513C8.49974 6.54073 8.47375 6.5023 8.45683 6.47973C8.4399 6.45716 8.41029 6.42056 8.39155 6.3986C8.37221 6.37664 8.34259 6.34553 8.32567 6.32845C8.30875 6.31198 8.28155 6.28636 8.26523 6.27172C8.24831 6.25708 8.21869 6.23329 8.19875 6.21804C8.17941 6.20279 8.14858 6.18144 8.13166 6.16985C8.11413 6.15826 8.08754 6.14179 8.07183 6.13264C8.05611 6.1241 8.02408 6.10763 8.00111 6.09604C7.97754 6.08506 7.9449 6.07042 7.92858 6.06371C7.91226 6.05761 7.88628 6.04785 7.87056 6.04297C7.85485 6.03748 7.82644 6.02955 7.8077 6.02406C7.78897 6.01918 7.75814 6.01186 7.74001 6.0082C7.72188 6.00454 7.68562 5.99905 7.66023 5.99539C7.62276 5.99051 7.59194 5.98868 7.51215 5.98807C7.45715 5.98746 7.40518 5.98746 7.39732 5.98807Z" fill="black"/>
<path d="M12.5914 6.0326C12.5812 6.03504 12.5654 6.04053 12.557 6.04419C12.5485 6.04785 12.3134 6.20279 12.0354 6.38884C11.7574 6.57428 11.4564 6.77558 11.3675 6.83475C11.2128 6.93845 11.2049 6.94455 11.1862 6.96651C11.1759 6.97993 11.1608 7.00067 11.1524 7.01287C11.1439 7.02507 11.1294 7.05069 11.1203 7.0696C11.1113 7.08912 11.0998 7.11901 11.0949 7.13609L11.0865 7.16781L11.0847 8.70074C11.0949 8.74954 11.1016 8.77455 11.1064 8.78797C11.1107 8.80078 11.1197 8.8203 11.1258 8.83006C11.1318 8.84043 11.1445 8.85568 11.1536 8.86483C11.1638 8.87398 11.1784 8.88313 11.1886 8.88679C11.2001 8.89106 11.2134 8.89289 11.2309 8.89289C11.2448 8.89289 11.2654 8.89106 11.2763 8.88801C11.2877 8.88496 11.3083 8.87703 11.3222 8.87093C11.3361 8.86483 11.483 8.77272 11.6631 8.65804C11.8365 8.54702 12.0988 8.37866 12.2457 8.28472C12.3932 8.19078 12.5207 8.10782 12.5304 8.09989C12.5395 8.09135 12.5582 8.07244 12.5721 8.05658C12.586 8.04072 12.6071 8.01205 12.6198 7.99314C12.6325 7.97362 12.6519 7.94007 12.6615 7.91872C12.6718 7.89676 12.6857 7.86321 12.6918 7.84369C12.6984 7.82478 12.7069 7.79306 12.7111 7.77415L12.719 7.73938C12.719 7.12328 12.7184 7.05252 12.7147 7.05252C12.7129 7.05252 12.5806 7.13304 12.4204 7.23125L12.1297 7.40998L12.1279 7.8504C11.871 8.02364 11.79 8.0761 11.7821 8.07854C11.7749 8.08159 11.7622 8.08342 11.7549 8.08342C11.7447 8.08342 11.7392 8.08159 11.732 8.07488C11.7265 8.07 11.7199 8.06207 11.7175 8.05719C11.7151 8.05231 11.712 8.04194 11.7102 8.03401C11.7084 8.02669 11.7054 8.00595 11.7036 7.98887C11.7024 7.97179 11.6981 7.78208 11.6945 7.56614C11.6885 7.20868 11.6879 7.17269 11.6927 7.15317C11.6951 7.14097 11.7018 7.12328 11.7066 7.11352C11.7114 7.10315 11.7199 7.09034 11.7247 7.08424C11.7296 7.07814 11.819 7.00982 11.9236 6.93174C12.0281 6.85366 12.1194 6.78717 12.1267 6.78351C12.1333 6.77985 12.1454 6.77558 12.1526 6.77314C12.1629 6.7707 12.1677 6.7707 12.1768 6.77436C12.1829 6.77741 12.1901 6.78351 12.1931 6.78961C12.1974 6.79754 12.1992 6.80974 12.1998 6.84573C12.2004 6.87135 12.2016 6.89392 12.2022 6.89575C12.2028 6.89819 12.3013 6.83414 12.4615 6.72617L12.719 6.55232V6.09238C12.7051 6.06798 12.6954 6.05517 12.6881 6.04907C12.6803 6.04175 12.6682 6.03504 12.6585 6.03199C12.6495 6.02955 12.6349 6.02772 12.6265 6.02772C12.6174 6.02772 12.6023 6.03016 12.5914 6.0326ZM7.4444 6.10214C7.44319 6.10397 7.45165 6.11556 7.46313 6.12898C7.47462 6.14179 7.49698 6.16863 7.51269 6.18754C7.52901 6.20706 7.55742 6.24305 7.57616 6.26867C7.59489 6.29368 7.62511 6.33577 7.64204 6.362C7.65956 6.38823 7.68495 6.4291 7.69885 6.45289C7.71275 6.47607 7.7333 6.51328 7.74478 6.53524C7.75627 6.5572 7.77379 6.59319 7.78407 6.61576C7.79434 6.63894 7.81066 6.67737 7.81973 6.70177C7.8294 6.72617 7.8439 6.76582 7.85176 6.79022C7.85962 6.81523 7.86929 6.84756 7.87412 6.86342C7.87835 6.87928 7.88682 6.91405 7.89286 6.9415C7.8989 6.96834 7.90616 7.00921 7.90978 7.03178C7.91341 7.05435 7.91885 7.09217 7.92187 7.11596C7.92489 7.14219 7.92731 7.1977 7.92852 7.26175C7.92912 7.32641 7.92852 7.38253 7.92671 7.41242C7.92429 7.43865 7.92187 7.46732 7.92066 7.47586C7.91945 7.48928 7.92006 7.49233 7.92489 7.49416C7.92852 7.49599 7.93214 7.49538 7.93456 7.49233C7.93638 7.4905 7.94786 7.47098 7.96055 7.44902C7.97264 7.42706 7.99198 7.38863 8.00286 7.36301C8.01374 7.338 8.02824 7.30018 8.0355 7.27944C8.04275 7.25809 8.05242 7.22393 8.05786 7.20319C8.06269 7.18184 8.06995 7.14707 8.07357 7.12511C8.0772 7.10315 8.08143 7.06716 8.08385 7.04459C8.08566 7.01897 8.08687 6.97444 8.08566 6.92869C8.08445 6.88782 8.08143 6.83597 8.07841 6.81401C8.07599 6.79266 8.06995 6.75545 8.06572 6.73288C8.06149 6.7097 8.05242 6.66883 8.04577 6.64199C8.03912 6.61576 8.02704 6.57306 8.01857 6.54805C8.01072 6.52243 7.995 6.47912 7.98412 6.45106C7.97324 6.423 7.95572 6.3803 7.94544 6.3559C7.93456 6.3315 7.91039 6.28209 7.89225 6.2461C7.87412 6.21072 7.85599 6.17534 7.85236 6.16802C7.84632 6.15521 7.84572 6.15521 7.81127 6.14545C7.79253 6.13996 7.76835 6.13325 7.75808 6.13081C7.7478 6.12837 7.72423 6.12349 7.7061 6.11983C7.68797 6.11617 7.65533 6.11129 7.63357 6.10824C7.61242 6.10519 7.56105 6.10214 7.52055 6.10153C7.47885 6.10031 7.44561 6.10092 7.4444 6.10214ZM7.27396 6.12166C7.27033 6.12227 7.2528 6.12654 7.23467 6.13081C7.21654 6.13569 7.18813 6.14362 7.17182 6.1485C7.1555 6.15399 7.12588 6.16436 7.10594 6.17229C7.08599 6.18022 7.04912 6.1973 7.02434 6.2095C6.99896 6.22231 6.96511 6.24122 6.94879 6.25098C6.93247 6.26135 6.90588 6.27904 6.89077 6.29002C6.87506 6.30039 6.84967 6.31991 6.83335 6.33272C6.81764 6.34553 6.79769 6.36261 6.78802 6.37115L6.7711 6.38701C6.77473 6.52731 6.77775 6.58892 6.78017 6.61454C6.78319 6.63955 6.78742 6.67676 6.78984 6.69689C6.79286 6.71702 6.7983 6.75179 6.80313 6.77436C6.80736 6.79754 6.81522 6.83292 6.82006 6.85427C6.8255 6.87501 6.83456 6.90856 6.84061 6.92869C6.84665 6.94882 6.85995 6.98481 6.86901 7.00921C6.87868 7.03361 6.89561 7.07204 6.90649 7.09461C6.91736 7.11657 6.93489 7.14768 6.94456 7.16415C6.95423 7.18001 6.97176 7.20624 6.98264 7.2221C6.99352 7.23796 7.01225 7.26175 7.02434 7.27578C7.03583 7.28981 7.06242 7.31787 7.08297 7.338C7.10352 7.35813 7.13495 7.38558 7.15308 7.39961C7.17121 7.41364 7.20204 7.43499 7.22198 7.4478C7.24193 7.46 7.27456 7.4783 7.29451 7.48867C7.31445 7.49843 7.34528 7.51307 7.36341 7.52039C7.38154 7.52771 7.41418 7.53991 7.43594 7.54723C7.45769 7.55455 7.49215 7.56431 7.51269 7.5698C7.53385 7.57529 7.56346 7.582 7.57978 7.58566L7.60879 7.59176C7.63176 7.57285 7.64506 7.56309 7.65291 7.5576C7.66017 7.55272 7.67588 7.54357 7.68616 7.53808C7.69704 7.53259 7.71577 7.52466 7.72725 7.51978C7.73874 7.51551 7.75929 7.50819 7.77198 7.50453L7.79555 7.49721C7.8016 7.45146 7.80462 7.41547 7.80643 7.38863C7.80824 7.36179 7.81006 7.3136 7.81006 7.28249C7.81006 7.25077 7.80824 7.20502 7.80643 7.18062C7.80462 7.15622 7.80099 7.1184 7.79857 7.09644C7.79555 7.07509 7.79011 7.03788 7.78588 7.01409C7.78165 6.99091 7.77258 6.94882 7.76594 6.92076C7.75929 6.8927 7.7466 6.84817 7.73813 6.82194C7.72967 6.79632 7.71456 6.75423 7.70429 6.72861C7.69462 6.7036 7.67407 6.65663 7.65896 6.62552C7.64385 6.5938 7.62088 6.54927 7.60698 6.52548C7.59368 6.5023 7.56951 6.46204 7.55319 6.43642C7.53627 6.41141 7.50907 6.37115 7.49154 6.34797C7.47401 6.32418 7.44802 6.29002 7.43291 6.27172C7.41841 6.25342 7.39423 6.22475 7.37973 6.20828C7.36522 6.19181 7.34044 6.16497 7.32533 6.1485C7.30297 6.12471 7.29572 6.11922 7.28907 6.11983C7.28423 6.11983 7.27758 6.12105 7.27396 6.12166ZM8.02643 6.26135C8.03308 6.27477 8.04638 6.30466 8.05665 6.32723C8.06632 6.3498 8.08324 6.39128 8.09412 6.41934C8.105 6.4474 8.12132 6.49193 8.12978 6.51938C8.13885 6.54622 8.14973 6.58221 8.15396 6.59868C8.15879 6.61515 8.16665 6.64626 8.17149 6.66822C8.17632 6.69018 8.18418 6.73044 8.18841 6.75728C8.19264 6.78412 8.19808 6.82194 8.19989 6.84146C8.20231 6.8622 8.20412 6.91222 8.20412 6.96651C8.20412 7.03422 8.20231 7.06716 8.19808 7.09827C8.19506 7.12084 8.18962 7.15683 8.18539 7.17757C8.18116 7.19831 8.17269 7.2343 8.16665 7.25687C8.16 7.27944 8.14791 7.31726 8.13945 7.34105C8.13039 7.36484 8.11286 7.4051 8.10077 7.43133C8.08808 7.45756 8.06632 7.49843 8.05182 7.52161L8.02643 7.56492C8.04758 7.56065 8.07055 7.55394 8.0911 7.54723C8.11165 7.53991 8.14368 7.52649 8.16182 7.51734C8.17995 7.50819 8.20654 7.49294 8.22165 7.48318C8.23616 7.47342 8.26154 7.4539 8.27786 7.43987C8.29478 7.42645 8.31956 7.40266 8.33286 7.38741C8.34676 7.37216 8.36973 7.3441 8.38363 7.3258C8.39753 7.30689 8.41808 7.27639 8.42956 7.25687C8.44105 7.23796 8.45918 7.20319 8.47066 7.18062C8.48215 7.15805 8.50028 7.11596 8.51176 7.08729C8.52264 7.05862 8.53654 7.01958 8.54198 7.00128C8.55165 6.96956 8.55165 6.96712 8.54802 6.9476C8.54621 6.93601 8.53896 6.90673 8.53231 6.88233C8.52506 6.85793 8.51297 6.82072 8.50511 6.79998C8.49725 6.77924 8.48275 6.74508 8.47308 6.72373C8.46341 6.70299 8.44528 6.66883 8.43319 6.64748C8.4205 6.62674 8.39934 6.5938 8.38605 6.57428C8.37275 6.55476 8.34918 6.52426 8.33467 6.50596C8.31956 6.48766 8.29297 6.45838 8.27605 6.44008C8.25852 6.42178 8.22769 6.39189 8.20775 6.37298C8.1872 6.35468 8.15215 6.3254 8.12918 6.30832C8.10561 6.29063 8.07236 6.26745 8.05423 6.25647C8.03671 6.24549 8.02039 6.23695 8.01797 6.23695C8.01555 6.23695 8.01857 6.2461 8.02643 6.26135ZM6.63511 6.53768C6.62484 6.5511 6.60308 6.58221 6.58736 6.60661C6.57165 6.63101 6.54506 6.67798 6.52934 6.71092C6.51302 6.74447 6.49489 6.78473 6.48885 6.80181C6.4828 6.81828 6.47253 6.84817 6.46709 6.8683C6.46105 6.88843 6.45198 6.92137 6.44775 6.9415C6.44352 6.96102 6.43687 6.99762 6.43324 7.02202C6.42962 7.04642 6.42539 7.09522 6.42418 7.12999C6.42176 7.17208 6.42176 7.21173 6.42418 7.24711C6.42539 7.277 6.42841 7.31421 6.43022 7.33007C6.43204 7.34532 6.43687 7.37582 6.4411 7.39656C6.44533 7.4173 6.45017 7.43987 6.45198 7.44658C6.455 7.45756 6.45984 7.46122 6.50456 7.49111C6.53176 7.50941 6.57165 7.53442 6.59341 7.54723C6.61517 7.56004 6.65808 7.58322 6.68951 7.59847C6.72033 7.61433 6.76687 7.63507 6.79286 7.64544C6.81885 7.65581 6.85874 7.66984 6.8811 7.67716C6.90346 7.68448 6.94094 7.69546 6.96451 7.70095C6.98747 7.70705 7.02434 7.71437 7.0461 7.71803C7.06786 7.72169 7.10533 7.72718 7.12951 7.72962C7.15489 7.73267 7.20385 7.7345 7.24616 7.7345C7.29028 7.7345 7.33802 7.73267 7.36583 7.72962C7.39121 7.72718 7.42506 7.72291 7.44077 7.71986C7.45588 7.71742 7.48308 7.71254 7.5 7.70888C7.51753 7.70522 7.53385 7.70095 7.53627 7.69973C7.5405 7.69729 7.53989 7.69668 7.53506 7.69546C7.53143 7.69424 7.51813 7.69119 7.50484 7.68814C7.49214 7.6857 7.4589 7.67655 7.4311 7.66862C7.4033 7.66069 7.36401 7.64788 7.34286 7.63995C7.32231 7.63202 7.28846 7.61799 7.26791 7.60884C7.24676 7.59908 7.21412 7.58261 7.19539 7.57224C7.17665 7.56187 7.14522 7.54235 7.12649 7.53015C7.10715 7.51734 7.07753 7.49538 7.06 7.48196C7.04308 7.46793 7.01467 7.44292 6.99775 7.42645C6.98083 7.40998 6.95484 7.38314 6.94094 7.36667C6.92643 7.34959 6.90528 7.32275 6.89319 7.30628C6.8811 7.28981 6.86236 7.26236 6.85209 7.24589C6.84182 7.22942 6.82489 7.19953 6.81401 7.1794C6.80374 7.15927 6.78682 7.12389 6.77714 7.10132C6.76747 7.07875 6.75055 7.033 6.73967 7.00006C6.72879 6.96651 6.71489 6.91893 6.70885 6.89392C6.7028 6.8683 6.69434 6.82804 6.68951 6.80486C6.68528 6.78107 6.67984 6.7463 6.67682 6.72678C6.6744 6.70787 6.67017 6.67127 6.66775 6.64626C6.66473 6.62064 6.66231 6.58099 6.6611 6.55781C6.6605 6.53463 6.65868 6.51511 6.65687 6.5145C6.65506 6.51389 6.64539 6.52426 6.63511 6.53768ZM13.298 7.11047L13.052 7.26663C13.052 7.64666 13.0532 7.75707 13.0544 7.75768C13.0556 7.75829 13.1674 7.6857 13.3022 7.59664L13.547 7.43438C13.5482 7.06228 13.5476 6.9537 13.5464 6.9537C13.5452 6.95431 13.4334 7.02446 13.298 7.11047ZM8.55649 7.26663C8.54984 7.27883 8.53835 7.29896 8.53171 7.31116C8.52445 7.32336 8.50934 7.34715 8.49786 7.36484C8.48638 7.38253 8.46583 7.41059 8.45192 7.42828C8.43802 7.44597 8.41385 7.47342 8.39693 7.48989C8.38061 7.50697 8.35583 7.52954 8.34253 7.54052C8.32863 7.55211 8.30385 7.5698 8.28753 7.58078C8.27121 7.59176 8.24341 7.60762 8.22649 7.61677C8.20896 7.62531 8.18116 7.63751 8.16484 7.64422C8.14852 7.65032 8.11951 7.65947 8.10077 7.66496C8.08143 7.66984 8.05665 7.67533 8.04577 7.67716C8.03429 7.67899 8.0222 7.68143 8.01857 7.68204C8.01555 7.68265 8.01011 7.68753 8.00709 7.69302C8.00407 7.69851 8.00165 7.70339 8.00165 7.70461C8.00165 7.70522 8.01797 7.71681 8.03852 7.73084C8.05907 7.74426 8.08747 7.76195 8.10198 7.76988C8.11709 7.77842 8.14368 7.79062 8.16182 7.79794C8.17995 7.80526 8.21017 7.81563 8.22951 7.82051C8.24824 7.82539 8.28028 7.83088 8.30022 7.83271C8.32017 7.83454 8.34193 7.83576 8.34857 7.83576C8.36006 7.83454 8.36247 7.83271 8.37758 7.81197C8.38665 7.79977 8.40297 7.77598 8.41385 7.75829C8.42412 7.7406 8.43984 7.71376 8.4483 7.6979C8.45736 7.68204 8.47127 7.65276 8.48094 7.63263C8.49 7.61311 8.5039 7.57773 8.51236 7.55516C8.52022 7.53259 8.53231 7.49233 8.53896 7.4661C8.54561 7.43987 8.55407 7.40144 8.55769 7.3807C8.56072 7.35996 8.56555 7.32702 8.56736 7.3075C8.56918 7.28859 8.57039 7.26663 8.56978 7.2587L8.56857 7.24406L8.55649 7.26663ZM7.81912 7.57102C7.80824 7.57346 7.78951 7.57834 7.77863 7.582C7.76715 7.58627 7.74236 7.59725 7.72363 7.60701C7.69583 7.62165 7.68374 7.63019 7.66258 7.65032C7.64808 7.66435 7.63357 7.68143 7.63055 7.68875C7.62693 7.69546 7.62451 7.70644 7.62451 7.71254C7.62451 7.71864 7.62753 7.72779 7.63116 7.7345C7.63539 7.7406 7.64566 7.74914 7.65412 7.75402C7.66379 7.7589 7.6783 7.76256 7.6922 7.76439C7.70489 7.76561 7.72484 7.765 7.73934 7.76317C7.75264 7.76134 7.77682 7.75646 7.79253 7.75158C7.80824 7.74731 7.83544 7.73633 7.85357 7.72718C7.88258 7.71315 7.89044 7.70766 7.91522 7.68204C7.93154 7.66557 7.94665 7.64727 7.95028 7.63812C7.95451 7.63019 7.95753 7.6186 7.95753 7.6125C7.95753 7.60457 7.95511 7.59786 7.94907 7.59115C7.94423 7.58627 7.93275 7.57895 7.92308 7.57529C7.91099 7.57102 7.89588 7.56858 7.87291 7.56736C7.85236 7.56675 7.83182 7.56797 7.81912 7.57102ZM6.51846 7.64117C6.51846 7.643 6.52753 7.66191 6.53901 7.68387C6.5505 7.70522 6.56923 7.73816 6.58072 7.75646C6.5922 7.77476 6.61154 7.80343 6.62363 7.8199C6.63572 7.83698 6.65868 7.86504 6.6744 7.88334C6.69011 7.90164 6.71247 7.92726 6.72456 7.93946L6.74572 7.96142C6.79709 7.96996 6.83456 7.97484 6.86236 7.9785C6.89017 7.98216 6.93247 7.98643 6.95665 7.98826C6.98083 7.99009 7.02676 7.99131 7.05879 7.99131C7.09083 7.99131 7.13374 7.99009 7.15429 7.98826C7.17544 7.98643 7.20687 7.98277 7.225 7.98033C7.24313 7.97728 7.27456 7.97179 7.29451 7.96752C7.31445 7.96264 7.35193 7.95227 7.37791 7.94373C7.4033 7.93458 7.44319 7.91872 7.46555 7.90774C7.48791 7.89676 7.51934 7.87907 7.53506 7.8687C7.55017 7.85833 7.57072 7.84369 7.58039 7.83637L7.59791 7.82234C7.5816 7.81258 7.57374 7.81075 7.57011 7.81136C7.56588 7.81258 7.53808 7.81807 7.50786 7.82417C7.47764 7.83088 7.4311 7.83881 7.40451 7.84247C7.37006 7.84735 7.33077 7.84979 7.27094 7.85101C7.20566 7.85223 7.17363 7.85162 7.13253 7.84735C7.10291 7.8443 7.06242 7.83942 7.04127 7.83576C7.02072 7.8321 6.98747 7.826 6.96753 7.82112C6.94758 7.81685 6.91011 7.80709 6.88412 7.79977C6.85813 7.79184 6.81704 7.77842 6.79286 7.76927C6.76868 7.76012 6.73423 7.74609 6.7161 7.73877C6.69797 7.73084 6.66473 7.71498 6.64236 7.704C6.62 7.69302 6.58434 7.67472 6.56379 7.66252C6.54264 7.65093 6.52451 7.64117 6.52269 7.63995C6.52088 7.63934 6.51907 7.63995 6.51846 7.64117ZM9.22736 8.20969L8.36187 8.77638C8.36247 9.0643 8.36368 9.14909 8.36429 9.15031C8.3655 9.15153 8.41989 9.11981 8.48577 9.07955L8.60484 9.00696L8.60363 10.2587L8.37154 10.4173C8.37517 10.6875 8.37698 10.7674 8.37819 10.768C8.3794 10.7692 8.63687 10.6064 8.95055 10.4063L9.5211 10.0427C9.52231 9.74445 9.52171 9.68284 9.51929 9.68284C9.51808 9.68284 9.45039 9.72554 9.37 9.778C9.28962 9.83046 9.22253 9.87316 9.22072 9.87316C9.2189 9.87316 9.21769 9.79325 9.21769 9.63892V9.40529L9.51627 9.21009C9.51627 9.43396 9.51747 9.46019 9.5205 9.45958C9.52231 9.45897 9.59242 9.41261 9.67583 9.35649L9.82753 9.25401C9.82753 8.6495 9.82632 8.47382 9.82511 8.47382C9.8239 8.47382 9.75984 8.51774 9.68308 8.57142L9.54286 8.66902L9.54165 8.81176C9.30896 8.94718 9.23522 8.98988 9.22676 8.99476L9.21165 9.00391V8.60558C9.52654 8.39391 9.61901 8.3323 9.62143 8.33169C9.62324 8.33108 9.64863 8.34206 9.67824 8.3567C9.7272 8.38049 9.73203 8.38232 9.73808 8.37805C9.74171 8.37561 9.82451 8.32193 9.92121 8.25788L10.0977 8.14198C10.0977 7.75463 10.0965 7.64239 10.0953 7.64239C10.0941 7.64239 9.70363 7.89737 9.22736 8.20969ZM7.90132 7.7894C7.89286 7.79489 7.89105 7.79794 7.89286 7.80404C7.89407 7.80892 7.89528 7.84064 7.89649 7.87541C7.89769 7.91689 7.89709 7.95166 7.89467 7.97423C7.89286 7.99314 7.88863 8.02303 7.885 8.04072C7.88138 8.0578 7.87291 8.08952 7.86627 8.11026C7.85901 8.13161 7.84511 8.16516 7.83484 8.1859C7.82456 8.20603 7.81671 8.22372 7.81671 8.22494C7.81731 8.22555 7.83605 8.22006 7.85841 8.21152C7.88077 8.20359 7.91643 8.18956 7.93698 8.1798C7.95813 8.17065 7.99017 8.15418 8.00951 8.1432C8.02824 8.13283 8.05907 8.11392 8.0772 8.10172C8.09533 8.08952 8.12132 8.07061 8.13522 8.06024C8.14912 8.04987 8.1739 8.02913 8.19022 8.0151C8.20654 8.00046 8.23011 7.97972 8.2422 7.96813C8.26275 7.94861 8.26335 7.94739 8.2561 7.94617C8.25187 7.94495 8.23434 7.94129 8.21682 7.93702C8.19929 7.93336 8.17269 7.92604 8.15698 7.92055C8.14127 7.91567 8.11588 7.90591 8.10077 7.89859C8.08506 7.89127 8.05967 7.87846 8.04396 7.86992C8.02824 7.86138 8.00286 7.84552 7.98714 7.83515C7.97203 7.82478 7.94907 7.80831 7.93698 7.79916C7.92489 7.79001 7.91462 7.78208 7.91341 7.78269C7.9128 7.78269 7.90736 7.78574 7.90132 7.7894ZM13.0568 8.12856L12.5479 8.45918C12.5491 13.7277 12.5503 14.7849 12.5521 14.7849C12.554 14.7849 12.5818 14.7818 12.6144 14.7782C12.647 14.7751 12.7008 14.7684 12.7347 14.7641C12.7685 14.7599 12.8277 14.7507 12.8664 14.7446C12.9057 14.7385 12.9788 14.7251 13.0302 14.7147C13.081 14.705 13.1577 14.6879 13.2001 14.6775C13.2424 14.6665 13.3046 14.6501 13.3379 14.6403C13.3717 14.6305 13.4352 14.6104 13.4793 14.5958C13.5234 14.5811 13.5621 14.5671 13.5651 14.5653C13.5699 14.561 13.5706 14.3719 13.5712 11.1798C13.5718 8.92644 13.5712 7.79794 13.5693 7.79794C13.5675 7.79794 13.3367 7.94678 13.0568 8.12856ZM7.75566 7.8382C7.74539 7.83942 7.73934 7.84369 7.71335 7.87114C7.69643 7.88883 7.66984 7.91384 7.65412 7.92604C7.63841 7.93885 7.61302 7.95776 7.59791 7.96874C7.5822 7.97911 7.55198 7.9968 7.53022 8.00839C7.50846 8.01937 7.47462 8.03523 7.45467 8.04316C7.43473 8.05109 7.40149 8.06268 7.38094 8.06878C7.35978 8.07488 7.32533 8.08342 7.30357 8.08769C7.28242 8.09257 7.24193 8.09928 7.21412 8.10294C7.17182 8.10904 7.14583 8.11026 7.05215 8.11087C6.9911 8.11148 6.94094 8.1127 6.94094 8.11453C6.94033 8.11575 6.94638 8.12063 6.95302 8.1249C6.96028 8.12917 6.97962 8.14015 6.99594 8.1493C7.01225 8.15845 7.04187 8.17309 7.06182 8.18163C7.08176 8.19078 7.11621 8.2042 7.13857 8.21213C7.16154 8.22006 7.19539 8.23104 7.21412 8.23592C7.23346 8.2408 7.26308 8.24812 7.28 8.25117C7.29753 8.25483 7.32715 8.25971 7.34649 8.26215C7.36522 8.2652 7.40209 8.26886 7.42808 8.27069C7.46495 8.27374 7.49214 8.27374 7.55319 8.27008L7.63116 8.26581C7.67105 8.22433 7.69039 8.20115 7.69945 8.18834C7.70852 8.17492 7.72121 8.15418 7.72786 8.14198C7.73451 8.12978 7.74539 8.1066 7.75143 8.09013C7.75808 8.07305 7.76654 8.04499 7.77077 8.02608C7.775 8.00778 7.77984 7.97789 7.78165 7.95959C7.78346 7.94129 7.78467 7.91506 7.78467 7.90103C7.78467 7.887 7.78407 7.86687 7.78346 7.85589C7.78225 7.83698 7.78165 7.83576 7.775 7.83637C7.77077 7.83698 7.76231 7.83759 7.75566 7.8382ZM10.4791 8.91912L10.2331 9.07528C10.2331 9.4547 10.2337 9.56511 10.2343 9.56511C10.2355 9.56511 10.3449 9.49374 10.4773 9.4059C10.6102 9.31867 10.7208 9.24486 10.7238 9.24181C10.7293 9.23693 10.7299 9.22351 10.7299 8.99964C10.7293 8.8691 10.7287 8.76235 10.7269 8.76235C10.7257 8.76235 10.6145 8.83311 10.4791 8.91912ZM11.0218 9.45836L10.5141 9.78898L10.5129 15.3747C10.531 15.3644 10.5588 15.3485 10.5866 15.332C10.6145 15.3162 10.6562 15.2924 10.6791 15.2796C10.7027 15.2668 10.7589 15.2381 10.8048 15.2149C10.8508 15.1917 10.9167 15.1606 10.9511 15.1454C10.9856 15.1295 11.0466 15.1039 11.0865 15.0874C11.1258 15.0716 11.1923 15.046 11.234 15.0313C11.2757 15.0167 11.344 14.9935 11.3863 14.9807C11.4286 14.9673 11.4775 14.9526 11.4951 14.9477C11.512 14.9429 11.5271 14.9386 11.5283 14.9374C11.5301 14.9362 11.5307 13.6289 11.5301 12.0319L11.5295 9.12774L11.0218 9.45836ZM7.03522 9.66698C7.02313 9.6682 7.00379 9.67186 6.99291 9.6743C6.97418 9.67857 6.90951 9.71822 6.34984 10.0684C6.00775 10.2825 5.71522 10.4673 5.69951 10.4789C5.68379 10.4911 5.66143 10.5106 5.64934 10.5222C5.63725 10.5344 5.62154 10.5527 5.61368 10.5631C5.60583 10.5734 5.59555 10.5899 5.59072 10.5997C5.58588 10.6094 5.57984 10.6247 5.57682 10.6344C5.57258 10.6497 5.57198 10.668 5.57198 10.7741C5.57258 10.8412 5.57379 11.0078 5.575 11.1438L5.57742 11.3914C5.59011 11.4341 5.59676 11.4524 5.60039 11.4598C5.60401 11.4665 5.61247 11.4787 5.61973 11.4866C5.62758 11.4951 5.63907 11.5043 5.64572 11.508C5.65297 11.5116 5.66687 11.5153 5.67714 11.5171C5.68984 11.5189 5.70374 11.5189 5.72006 11.5165C5.73275 11.5147 5.75511 11.5086 5.77022 11.5031C5.78473 11.4982 5.8083 11.4878 5.8222 11.4811C5.8355 11.4738 5.86149 11.4598 5.87841 11.4488C5.89594 11.4384 5.92253 11.4213 5.93824 11.4104C5.95396 11.3994 6.07907 11.3182 6.21627 11.2304C6.37704 11.1267 6.47313 11.0669 6.48522 11.0627C6.4955 11.059 6.51484 11.0529 6.52753 11.0498C6.54204 11.0462 6.56138 11.0437 6.57769 11.0437C6.59643 11.0437 6.60852 11.0456 6.61698 11.0498C6.62423 11.0529 6.6333 11.0602 6.63813 11.0657L6.6472 11.0755V11.4994C6.28577 11.744 6.21929 11.7867 6.2072 11.791C6.19572 11.7947 6.18544 11.7959 6.17879 11.7947C6.17275 11.7934 6.1655 11.791 6.16308 11.7886C6.16127 11.7867 6.15704 11.7806 6.15401 11.7751C6.14918 11.7672 6.14857 11.7465 6.14736 11.6147L6.14555 11.4634L5.57198 11.8227C5.57379 12.3046 5.575 12.3363 5.57984 12.3559C5.58225 12.3681 5.5889 12.3864 5.59374 12.3973C5.59857 12.4077 5.60824 12.4223 5.61489 12.4303C5.62215 12.4382 5.63484 12.448 5.6433 12.4516C5.65176 12.4553 5.66566 12.4596 5.67412 12.4608C5.68258 12.462 5.70072 12.4614 5.71341 12.4589C5.72671 12.4571 5.74786 12.4516 5.76055 12.4474C5.77385 12.4431 5.79258 12.4345 5.80286 12.4291C5.81374 12.4236 6.02769 12.2851 6.27912 12.121C6.53055 11.9575 6.80011 11.7818 6.87808 11.7312C6.95605 11.6806 7.03401 11.63 7.05215 11.6184C7.07028 11.6068 7.09264 11.5903 7.10231 11.5818C7.11138 11.5732 7.12528 11.5574 7.13313 11.547C7.14099 11.536 7.15247 11.5171 7.15912 11.5037C7.16577 11.4909 7.17484 11.4689 7.17967 11.4549C7.1839 11.4409 7.19055 11.4158 7.19357 11.3994C7.1972 11.3829 7.20143 11.3481 7.20324 11.3231C7.20566 11.2902 7.20566 11.1883 7.20264 10.9608L7.19841 10.6454C7.17665 10.6167 7.16154 10.6003 7.15066 10.5905C7.14039 10.5808 7.12407 10.5679 7.115 10.5625C7.10533 10.557 7.08962 10.5484 7.07934 10.5442C7.06846 10.5399 7.04912 10.5338 7.03522 10.5313C7.01588 10.5271 7.00017 10.5265 6.96934 10.5277C6.93852 10.5289 6.91918 10.5313 6.89198 10.5387C6.87204 10.5435 6.84242 10.5533 6.8261 10.5606C6.80434 10.5692 6.71973 10.6198 6.52149 10.743C6.32203 10.8662 6.24225 10.9144 6.23138 10.9169C6.22291 10.9187 6.21204 10.9193 6.20599 10.9181C6.20055 10.9169 6.19149 10.9138 6.18665 10.9108C6.18121 10.9071 6.17335 10.898 6.16912 10.8894C6.16429 10.8809 6.16006 10.8705 6.15885 10.8662C6.15764 10.862 6.15643 10.8034 6.15643 10.7363L6.15522 10.6137C6.16852 10.5869 6.17879 10.571 6.18725 10.5618C6.19572 10.5521 6.21385 10.5356 6.22714 10.5252C6.24105 10.5143 6.31478 10.4649 6.39094 10.4154C6.46709 10.366 6.53599 10.3215 6.54506 10.3166C6.55352 10.3117 6.56923 10.3056 6.57951 10.3032C6.5916 10.2995 6.60247 10.2989 6.61094 10.3002C6.61758 10.3014 6.62725 10.3063 6.63269 10.3105C6.63753 10.3154 6.64418 10.3246 6.6472 10.3313C6.65264 10.3422 6.65324 10.3538 6.65324 10.4148C6.65324 10.4539 6.65445 10.4856 6.65566 10.4856C6.65687 10.4856 6.78077 10.4087 6.93127 10.3148L7.20506 10.144C7.20627 9.80667 7.20566 9.7841 7.20143 9.77007C7.19841 9.76092 7.19116 9.74384 7.18451 9.73225C7.17846 9.72005 7.16638 9.70297 7.15852 9.69443C7.14704 9.68284 7.13918 9.67796 7.12407 9.67369C7.11319 9.67003 7.09385 9.66698 7.08055 9.66576C7.06786 9.66515 7.04731 9.66515 7.03522 9.66698ZM14.5902 11.9112C14.5902 13.2257 14.5914 13.887 14.5938 13.8876C14.5956 13.8876 14.6107 13.8717 14.6282 13.8516C14.6452 13.8321 14.6754 13.7948 14.6953 13.7692C14.7159 13.7442 14.7455 13.7046 14.7618 13.682C14.7781 13.6594 14.8065 13.6179 14.8247 13.5899C14.8434 13.5624 14.8718 13.5167 14.8881 13.4886C14.9045 13.4606 14.925 13.4252 14.9341 13.4093C14.9425 13.3935 14.9613 13.3569 14.9758 13.3282C14.9909 13.2995 15.0132 13.2526 15.0265 13.2239C15.0398 13.1946 15.0598 13.1495 15.0707 13.122C15.0821 13.0952 15.1003 13.0482 15.1112 13.0177C15.1226 12.9866 15.139 12.9402 15.148 12.914C15.1565 12.8884 15.1734 12.8341 15.1843 12.7938C15.1958 12.7536 15.2109 12.6981 15.2175 12.67C15.2248 12.6419 15.2357 12.5925 15.2423 12.5608C15.2496 12.5285 15.2598 12.4724 15.2659 12.437C15.2719 12.401 15.2804 12.3437 15.2852 12.3101C15.2895 12.2759 15.2949 12.2247 15.2973 12.1954C15.3003 12.1668 15.304 12.1131 15.3058 12.0765C15.3082 12.0362 15.3088 11.963 15.3076 11.8892C15.307 11.8227 15.304 11.7428 15.3009 11.7099C15.2985 11.6781 15.2931 11.6269 15.2895 11.5976C15.2864 11.5677 15.2798 11.5208 15.2756 11.4927C15.2713 11.4646 15.2616 11.4128 15.255 11.3768C15.2477 11.3414 15.2351 11.2835 15.2266 11.2487C15.2181 11.2133 15.2036 11.1584 15.194 11.1261C15.1849 11.0938 15.1662 11.0358 15.1529 10.9962C15.1396 10.9571 15.1172 10.8949 15.1027 10.8583C15.0888 10.8217 15.0658 10.7668 15.0525 10.7363C15.0392 10.7058 15.0151 10.6533 14.9993 10.6204C14.9836 10.5869 14.9582 10.5362 14.9425 10.5076C14.9274 10.4789 14.9008 10.4301 14.8833 10.3996C14.8664 10.3691 14.841 10.3258 14.8271 10.3032C14.8132 10.28 14.7775 10.2245 14.7479 10.1794C14.7183 10.1336 14.6724 10.061 14.6452 10.0171C14.618 9.97381 14.5944 9.93782 14.5926 9.93721C14.5908 9.9366 14.5896 10.6405 14.5902 11.9112ZM8.98258 10.7912L8.4761 11.1218V14.9404C8.5039 14.9477 8.54258 14.9593 8.58006 14.9703C8.61693 14.9813 8.67616 15.0008 8.71182 15.013C8.74747 15.0252 8.79885 15.0435 8.82665 15.0539C8.85445 15.0643 8.89797 15.0813 8.92396 15.0917C8.94995 15.1027 8.99225 15.1204 9.01824 15.1314C9.04423 15.1429 9.08473 15.1606 9.10769 15.1716C9.13127 15.1826 9.18627 15.2094 9.23039 15.232C9.27451 15.254 9.33253 15.2845 9.35912 15.2997C9.38632 15.3144 9.42621 15.3375 9.44857 15.3503L9.48967 15.3747C9.49269 14.1761 9.4939 13.0702 9.4939 12.1442C9.4939 11.2176 9.4933 10.46 9.49209 10.46C9.49088 10.4606 9.26182 10.6094 8.98258 10.7912ZM7.77017 10.6802L7.52539 10.8363C7.52418 11.2182 7.52478 11.3292 7.52599 11.3292C7.5272 11.3292 7.6378 11.256 7.77198 11.167C7.90555 11.0773 8.01555 11.0029 8.01616 11.001C8.01676 10.9992 8.01676 10.8912 8.01616 10.7607L8.01555 10.524L7.77017 10.6802ZM6.95 12.118C6.67561 12.2967 6.44654 12.4461 6.44171 12.4498L6.43324 12.4559L6.43506 14.5671C6.51786 14.5958 6.5644 14.6116 6.5922 14.6202C6.6194 14.6287 6.67077 14.6434 6.70522 14.6531C6.73967 14.6623 6.79528 14.6769 6.82852 14.6848C6.86176 14.6928 6.92039 14.7056 6.95907 14.7129C6.99714 14.7208 7.0594 14.7324 7.09627 14.7385C7.13374 14.7446 7.19478 14.7538 7.23286 14.7593C7.27094 14.7641 7.32835 14.7715 7.36039 14.7751C7.39242 14.7788 7.42687 14.7824 7.43654 14.783L7.45467 14.7849C7.45467 12.4657 7.45346 11.7928 7.45225 11.7928C7.45105 11.7928 7.225 11.9392 6.95 12.118ZM5.22627 13.2428C5.12715 13.3075 5.04555 13.3611 5.04495 13.3624C5.04434 13.3636 5.05462 13.3843 5.06731 13.4075C5.08 13.4313 5.10116 13.4691 5.11506 13.4917C5.12835 13.5142 5.15676 13.56 5.17852 13.5935C5.20028 13.6265 5.23533 13.6765 5.25588 13.7046C5.27704 13.7326 5.30423 13.768 5.31693 13.7839C5.32962 13.7991 5.35621 13.8302 5.37555 13.8528C5.39429 13.8748 5.41121 13.8924 5.41242 13.8912C5.41363 13.8906 5.41484 13.718 5.41484 13.5075C5.41484 13.2038 5.41423 13.1251 5.41121 13.1257C5.40879 13.1257 5.32599 13.1781 5.22627 13.2428Z" fill="white"/>
</g>
<defs>
<linearGradient id="paint0_linear_4144_54697" x1="4" y1="2" x2="14.85" y2="18.65" gradientUnits="userSpaceOnUse">
<stop stop-color="#4E4E4B"/>
<stop offset="0.603818" stop-color="#FEFEFE"/>
<stop offset="1" stop-color="#535450"/>
</linearGradient>
<clipPath id="clip0_4144_54697">
<rect width="20" height="20" fill="white"/>
</clipPath>
</defs>
</svg>
