<svg width="20" height="20" viewBox="0 0 20 20" fill="none" xmlns="http://www.w3.org/2000/svg">
<g clip-path="url(#clip0_4988_63568)">
<path d="M9.99995 0.00366211C4.49358 0.00366211 0.0302734 4.46697 0.0302734 9.97334C0.0302734 15.4797 4.49358 19.943 9.99995 19.943C15.5063 19.943 19.9696 15.4797 19.9696 9.97334C19.9696 4.46697 15.5063 0.00366211 9.99995 0.00366211ZM16.1613 15.6907C14.7713 17.3063 12.2243 18.2863 9.9672 18.0728C8.64761 17.9479 7.64943 17.4082 7.15823 16.5531C6.60032 15.5828 6.58576 14.6889 7.11214 13.738C7.58152 12.8903 8.41839 12.108 9.30498 11.2796C10.063 10.5713 10.8465 9.83871 11.4445 9.02003C12.5712 7.47606 12.6597 6.53489 12.4305 5.12676C12.3056 4.35902 11.5609 3.31597 10.9593 2.57734C10.8489 2.4415 10.838 2.26564 10.9302 2.11645C11.0151 1.9794 11.1619 1.90056 11.3207 1.90056C11.3559 1.90056 11.3923 1.9042 11.4287 1.91269C14.3965 2.57248 16.9811 4.70954 17.858 7.22985C18.9253 10.2972 18.3541 13.1437 16.1625 15.692L16.1613 15.6907H16.1613Z" fill="url(#paint0_linear_4988_63568)"/>
<path d="M9.99995 0.00366211C4.49358 0.00366211 0.0302734 4.46697 0.0302734 9.97334C0.0302734 15.4797 4.49358 19.943 9.99995 19.943C15.5063 19.943 19.9696 15.4797 19.9696 9.97334C19.9696 4.46697 15.5063 0.00366211 9.99995 0.00366211ZM16.1613 15.6907C14.7713 17.3063 12.2243 18.2863 9.9672 18.0728C8.64761 17.9479 7.64943 17.4082 7.15823 16.5531C6.60032 15.5828 6.58576 14.6889 7.11214 13.738C7.58152 12.8903 8.41839 12.108 9.30498 11.2796C10.063 10.5713 10.8465 9.83871 11.4445 9.02003C12.5712 7.47606 12.6597 6.53489 12.4305 5.12676C12.3056 4.35902 11.5609 3.31597 10.9593 2.57734C10.8489 2.4415 10.838 2.26564 10.9302 2.11645C11.0151 1.9794 11.1619 1.90056 11.3207 1.90056C11.3559 1.90056 11.3923 1.9042 11.4287 1.91269C14.3965 2.57248 16.9811 4.70954 17.858 7.22985C18.9253 10.2972 18.3541 13.1437 16.1625 15.692L16.1613 15.6907H16.1613Z" fill="url(#paint1_radial_4988_63568)"/>
<path d="M9.99995 0.00366211C4.49358 0.00366211 0.0302734 4.46697 0.0302734 9.97334C0.0302734 15.4797 4.49358 19.943 9.99995 19.943C15.5063 19.943 19.9696 15.4797 19.9696 9.97334C19.9696 4.46697 15.5063 0.00366211 9.99995 0.00366211ZM16.1613 15.6907C14.7713 17.3063 12.2243 18.2863 9.9672 18.0728C8.64761 17.9479 7.64943 17.4082 7.15823 16.5531C6.60032 15.5828 6.58576 14.6889 7.11214 13.738C7.58152 12.8903 8.41839 12.108 9.30498 11.2796C10.063 10.5713 10.8465 9.83871 11.4445 9.02003C12.5712 7.47606 12.6597 6.53489 12.4305 5.12676C12.3056 4.35902 11.5609 3.31597 10.9593 2.57734C10.8489 2.4415 10.838 2.26564 10.9302 2.11645C11.0151 1.9794 11.1619 1.90056 11.3207 1.90056C11.3559 1.90056 11.3923 1.9042 11.4287 1.91269C14.3965 2.57248 16.9811 4.70954 17.858 7.22985C18.9253 10.2972 18.3541 13.1437 16.1625 15.692L16.1613 15.6907H16.1613Z" fill="url(#paint2_radial_4988_63568)"/>
<path d="M9.99995 0.00366211C4.49358 0.00366211 0.0302734 4.46697 0.0302734 9.97334C0.0302734 15.4797 4.49358 19.943 9.99995 19.943C15.5063 19.943 19.9696 15.4797 19.9696 9.97334C19.9696 4.46697 15.5063 0.00366211 9.99995 0.00366211ZM16.1613 15.6907C14.7713 17.3063 12.2243 18.2863 9.9672 18.0728C8.64761 17.9479 7.64943 17.4082 7.15823 16.5531C6.60032 15.5828 6.58576 14.6889 7.11214 13.738C7.58152 12.8903 8.41839 12.108 9.30498 11.2796C10.063 10.5713 10.8465 9.83871 11.4445 9.02003C12.5712 7.47606 12.6597 6.53489 12.4305 5.12676C12.3056 4.35902 11.5609 3.31597 10.9593 2.57734C10.8489 2.4415 10.838 2.26564 10.9302 2.11645C11.0151 1.9794 11.1619 1.90056 11.3207 1.90056C11.3559 1.90056 11.3923 1.9042 11.4287 1.91269C14.3965 2.57248 16.9811 4.70954 17.858 7.22985C18.9253 10.2972 18.3541 13.1437 16.1625 15.692L16.1613 15.6907H16.1613Z" fill="url(#paint3_radial_4988_63568)"/>
<path d="M18.3657 10.603C18.262 12.4025 17.5269 14.1052 16.1622 15.6919L16.161 15.6907C14.7711 17.3062 12.2241 18.2863 9.96698 18.0728C8.99084 17.9803 8.05328 19.943 9.99969 19.943C14.8096 19.943 18.8225 16.537 19.761 12.0054C19.2113 11.6364 18.7231 11.1881 18.3657 10.603V10.603Z" fill="url(#paint4_radial_4988_63568)"/>
<path d="M9.99995 0.00366211C4.49358 0.00366211 0.0302734 4.46697 0.0302734 9.97334C0.0302734 15.4797 4.49358 19.943 9.99995 19.943C15.5063 19.943 19.9696 15.4797 19.9696 9.97334C19.9696 4.46697 15.5063 0.00366211 9.99995 0.00366211ZM16.1613 15.6907C14.7713 17.3063 12.2243 18.2863 9.9672 18.0728C8.64761 17.9479 7.64943 17.4082 7.15823 16.5531C6.60032 15.5828 6.58576 14.6889 7.11214 13.738C7.58152 12.8903 8.41839 12.108 9.30498 11.2796C10.063 10.5713 10.8465 9.83871 11.4445 9.02003C12.5712 7.47606 12.6597 6.53489 12.4305 5.12676C12.3056 4.35902 11.5609 3.31597 10.9593 2.57734C10.8489 2.4415 10.838 2.26564 10.9302 2.11645C11.0151 1.9794 11.1619 1.90056 11.3207 1.90056C11.3559 1.90056 11.3923 1.9042 11.4287 1.91269C14.3965 2.57248 16.9811 4.70954 17.858 7.22985C18.9253 10.2972 18.3541 13.1437 16.1625 15.692L16.1613 15.6907H16.1613Z" fill="url(#paint5_radial_4988_63568)"/>
<path d="M9.99995 0.00366211C4.49358 0.00366211 0.0302734 4.46697 0.0302734 9.97334C0.0302734 15.4797 4.49358 19.943 9.99995 19.943C15.5063 19.943 19.9696 15.4797 19.9696 9.97334C19.9696 4.46697 15.5063 0.00366211 9.99995 0.00366211ZM16.1613 15.6907C14.7713 17.3063 12.2243 18.2863 9.9672 18.0728C8.64761 17.9479 7.64943 17.4082 7.15823 16.5531C6.60032 15.5828 6.58576 14.6889 7.11214 13.738C7.58152 12.8903 8.41839 12.108 9.30498 11.2796C10.063 10.5713 10.8465 9.83871 11.4445 9.02003C12.5712 7.47606 12.6597 6.53489 12.4305 5.12676C12.3056 4.35902 11.5609 3.31597 10.9593 2.57734C10.8489 2.4415 10.838 2.26564 10.9302 2.11645C11.0151 1.9794 11.1619 1.90056 11.3207 1.90056C11.3559 1.90056 11.3923 1.9042 11.4287 1.91269C14.3965 2.57248 16.9811 4.70954 17.858 7.22985C18.9253 10.2972 18.3541 13.1437 16.1625 15.692L16.1613 15.6907H16.1613Z" fill="url(#paint6_radial_4988_63568)"/>
<path d="M10 20C7.32929 20 4.81747 18.9594 2.92905 17.0709C1.04063 15.1825 0 12.6707 0 10C0 4.48636 4.48636 0 10 0C12.6707 0 15.1825 1.04063 17.0709 2.92905C18.9594 4.81747 20 7.32929 20 10C20 12.6707 18.9594 15.1825 17.0709 17.0709C15.1825 18.9594 12.6707 20 10 20ZM10 0.06064C4.5191 0.06064 0.06064 4.5191 0.06064 10C0.06064 12.6549 1.09399 15.151 2.9715 17.0285C4.849 18.906 7.34506 19.9394 10 19.9394C12.6549 19.9394 15.151 18.906 17.0285 17.0285C18.906 15.151 19.9394 12.6549 19.9394 10C19.9394 7.34506 18.906 4.849 17.0285 2.9715C15.151 1.094 12.6549 0.06064 10 0.06064Z" fill="url(#paint7_linear_4988_63568)"/>
<g opacity="0.97">
<path d="M10.029 19.9102C7.39107 19.9102 4.9411 18.8951 3.12909 17.0479C1.31102 15.1958 0.351655 12.7192 0.428065 10.074C0.466875 8.52271 0.856205 7.02362 1.58513 5.62034C2.44383 3.97449 3.68701 2.59184 5.18125 1.62034C6.26312 0.916881 7.42625 0.447511 8.63789 0.226771C9.16063 0.130951 9.62759 0.0860809 10.0691 0.0909309C12.7434 0.121251 15.2443 1.20312 17.1109 3.13399C18.935 5.02241 19.932 7.48936 19.9175 10.0812C19.9041 12.6877 18.8793 15.1473 17.0296 17.0066C15.1764 18.8696 12.7022 19.9005 10.0642 19.909H10.0303L10.029 19.9102H10.029ZM10.0145 0.150361C9.59362 0.150361 9.14608 0.195241 8.6488 0.286201C7.44443 0.506941 6.28858 0.972681 5.21399 1.67128C3.72824 2.63671 2.49234 4.01209 1.63849 5.64824C0.914415 7.04424 0.527515 8.53363 0.488705 10.0764C0.412295 12.7046 1.3656 15.1667 3.17275 17.0066C4.97384 18.8417 7.40804 19.8508 10.0302 19.8508H10.0642C12.6864 19.8423 15.1461 18.8174 16.9884 16.9654C18.8271 15.1182 19.8459 12.6731 19.8592 10.0824C19.8738 7.50633 18.8829 5.05272 17.0697 3.17644C15.214 1.25649 12.7289 0.181901 10.0703 0.150361H10.0145V0.150361Z" fill="url(#paint8_linear_4988_63568)"/>
</g>
<g opacity="0.94">
<path d="M10.0608 19.8205C7.49322 19.8205 5.04204 18.8041 3.32949 17.0249C1.56357 15.191 0.707287 12.8126 0.855257 10.148C0.938947 8.62946 1.35011 7.16312 2.07661 5.79017C2.95229 4.13341 4.11906 2.78956 5.54174 1.79745C6.56782 1.08186 7.64726 0.593077 8.75217 0.345657C9.09056 0.270457 9.60117 0.171007 10.1372 0.181917C12.7716 0.236497 15.3283 1.3875 17.1488 3.3402C18.9086 5.22619 19.8619 7.65069 19.834 10.1649C19.8086 12.7083 18.797 15.1158 16.9862 16.9436C15.167 18.7811 12.7315 19.8023 10.1263 19.8205H10.0608H10.0608ZM10.0548 0.238917C9.55508 0.238917 9.08328 0.331097 8.7643 0.402657C7.66666 0.648867 6.59329 1.13401 5.57449 1.84596C4.15909 2.83323 2.9996 4.17101 2.12755 5.81928C1.4059 7.18496 0.997167 8.64281 0.913477 10.1528C0.766717 12.8017 1.61694 15.1643 3.37194 16.986C5.08935 18.7677 7.54902 19.7829 10.1263 19.7635C12.7158 19.7465 15.1379 18.7301 16.9462 16.9036C18.7461 15.0855 19.7516 12.6925 19.777 10.1649C19.8049 7.66524 18.8565 5.2553 17.1075 3.38022C15.2967 1.43844 12.7558 0.294707 10.136 0.240127H10.0548V0.238917V0.238917Z" fill="url(#paint9_linear_4988_63568)"/>
</g>
<g opacity="0.91">
<path d="M10.0898 19.732C7.5574 19.732 5.17049 18.7411 3.5295 17.003C1.83514 15.2092 1.0577 12.8648 1.28329 10.2232C1.40943 8.74834 1.8412 7.31353 2.56892 5.96119C3.45552 4.31292 4.5762 2.9715 5.90185 1.97453C6.88669 1.23347 7.85576 0.739841 8.86607 0.464521C9.22508 0.366281 9.70051 0.257121 10.2063 0.272891C12.8455 0.354151 15.3912 1.5476 17.1887 3.54639C18.8831 5.42996 19.7939 7.80958 19.7515 10.2474C19.7127 12.7265 18.7157 15.0819 16.9449 16.8805C15.1875 18.6659 12.7254 19.7053 10.1893 19.7307H10.0899V19.732L10.0898 19.732ZM10.108 0.328691C9.64593 0.328691 9.21173 0.429361 8.88062 0.520321C7.87759 0.793211 6.91458 1.28442 5.9358 2.02062C4.61621 3.01274 3.50038 4.34809 2.61864 5.98909C1.89456 7.33536 1.464 8.76168 1.33908 10.2292C1.11591 12.8539 1.88729 15.1838 3.57074 16.9654C5.22265 18.7144 7.63745 19.7004 10.1893 19.6762C12.7096 19.6507 15.1572 18.6174 16.9049 16.8429C18.666 15.0552 19.6569 12.7132 19.6957 10.2486C19.7369 7.82535 18.8321 5.45907 17.1475 3.58642C15.3597 1.59977 12.8297 0.413601 10.2051 0.332331C10.1735 0.332331 10.1408 0.331121 10.1092 0.331121L10.108 0.328691V0.328691Z" fill="url(#paint10_linear_4988_63568)"/>
</g>
<g opacity="0.88">
<path d="M10.1179 19.6422C7.6218 19.6422 5.30039 18.6768 3.72975 16.98C2.08027 15.1995 1.40107 12.9509 1.71034 10.2971C1.8765 8.86717 2.33132 7.46511 3.06025 6.13097C3.97111 4.46572 5.0178 3.16311 6.26219 2.15038C7.19366 1.39234 8.08269 0.879311 8.9802 0.583371C9.32344 0.470571 9.77947 0.343221 10.2743 0.362631C12.9208 0.471791 15.4556 1.70648 17.2276 3.75014C18.8565 5.62885 19.7237 7.96482 19.6679 10.3287C19.617 12.7435 18.6345 15.0479 16.9026 16.8162C15.1791 18.5761 12.7558 19.6058 10.2525 19.641H10.1179V19.6422H10.1179ZM10.1688 0.415991C9.72247 0.415991 9.31252 0.532421 8.99839 0.635521C8.10815 0.930241 7.22519 1.43964 6.29857 2.19404C5.06024 3.20192 4.01719 4.49847 3.10997 6.15887C2.38468 7.48695 1.93229 8.88173 1.76612 10.3044C1.45927 12.9412 2.13362 15.1752 3.77097 16.9436C5.35981 18.6586 7.72124 19.6192 10.2525 19.5864C12.7412 19.5512 15.1512 18.5288 16.8637 16.7786C18.586 15.02 19.5624 12.7301 19.6133 10.3287C19.6679 7.97937 18.8055 5.65675 17.1864 3.78774C15.4241 1.75498 12.9038 0.527571 10.2731 0.418411C10.2379 0.417201 10.204 0.415981 10.1688 0.415981L10.1688 0.415991Z" fill="url(#paint11_linear_4988_63568)"/>
</g>
<g opacity="0.85">
<path d="M10.1459 19.5537C7.68992 19.5537 5.43279 18.6125 3.93127 16.9582C2.34971 15.2153 1.74692 12.9994 2.13988 10.3736C2.34607 8.98971 2.82272 7.6204 3.55407 6.30323C4.47827 4.63919 5.48372 3.33901 6.62502 2.3287C7.5189 1.53792 8.30361 1.02124 9.09561 0.703466C9.56013 0.516686 9.96887 0.435426 10.3448 0.454826C13.001 0.591876 15.525 1.86902 17.2678 3.95756C18.8542 5.85811 19.6559 8.08976 19.5868 10.4124C19.5225 12.7641 18.5547 15.0164 16.8615 16.7532C15.1732 18.4876 12.7875 19.5076 10.3169 19.5512C10.2599 19.5512 10.2029 19.5525 10.1459 19.5525V19.5537L10.1459 19.5537ZM10.2345 0.505776C9.8961 0.505776 9.52861 0.587036 9.11502 0.753196C8.32909 1.06854 7.54922 1.58158 6.6602 2.36872C5.52254 3.37418 4.52193 4.66951 3.60016 6.3287C2.87123 7.6398 2.39822 9.00305 2.19203 10.3808C1.8027 12.9909 2.40064 15.1922 3.97129 16.9218C5.49706 18.604 7.81241 19.5415 10.3169 19.4979C12.7742 19.4542 15.1453 18.4403 16.8239 16.7156C18.5074 14.9873 19.4692 12.7483 19.5334 10.41C19.6026 8.10068 18.8045 5.88115 17.2266 3.99031C15.4922 1.91269 12.9828 0.642826 10.3412 0.506986C10.306 0.505776 10.2708 0.504556 10.2345 0.504556V0.505766L10.2345 0.505776Z" fill="url(#paint12_linear_4988_63568)"/>
</g>
<g opacity="0.81">
<path d="M10.1714 19.464C7.75664 19.464 5.5638 18.5482 4.1302 16.9351C2.59351 15.2044 2.08169 13.0831 2.56562 10.4476C2.81062 9.11221 3.30789 7.77565 4.04409 6.47304C5.00103 4.77989 5.93493 3.51973 6.98405 2.50579C7.84518 1.67377 8.53044 1.15467 9.20843 0.82356C9.63172 0.61616 10.0368 0.52277 10.4116 0.54703C13.0799 0.71319 15.5929 2.03157 17.3055 4.16377C18.8252 6.05704 19.5856 8.24625 19.5019 10.4961C19.4243 12.7835 18.471 14.9837 16.8179 16.6914C15.1648 18.4003 12.8167 19.4106 10.3788 19.4627C10.3097 19.4639 10.2406 19.4652 10.1714 19.4652V19.464V19.464ZM10.2976 0.59433C9.96283 0.59433 9.60383 0.68651 9.23148 0.86965C8.55956 1.19955 7.87793 1.71501 7.02044 2.54339C5.97496 3.5537 5.04348 4.81143 4.09018 6.49973C3.35761 7.79627 2.86156 9.12799 2.61777 10.4573C2.13627 13.0758 2.64445 15.1838 4.17023 16.9012C5.63415 18.5495 7.89491 19.4652 10.3788 19.4106C12.8033 19.3584 15.1381 18.353 16.7815 16.655C18.4261 14.957 19.3734 12.769 19.451 10.4937C19.5335 8.25716 18.7779 6.07887 17.2654 4.19652C15.5614 2.07523 13.0629 0.76292 10.4092 0.59798C10.3728 0.59555 10.3352 0.59434 10.2988 0.59434H10.2976V0.59433Z" fill="url(#paint13_linear_4988_63568)"/>
</g>
<g opacity="0.78">
<path d="M10.1969 19.3754C7.82452 19.3754 5.69717 18.4852 4.33028 16.9121C2.85666 15.2165 2.42003 13.1268 2.99371 10.5216C3.27631 9.23836 3.79541 7.93332 4.53646 6.64285C5.53221 4.90847 6.39941 3.68712 7.34544 2.68166C8.06103 1.9212 8.67109 1.33539 9.3224 0.941206C9.49584 0.836896 9.95551 0.597966 10.4807 0.635566C13.1235 0.827196 15.6899 2.22199 17.3454 4.36753C18.7984 6.2511 19.5165 8.39785 19.4206 10.5761C19.3309 12.8005 18.3921 14.9485 16.7778 16.6259C15.1587 18.3093 12.8506 19.3099 10.4443 19.3718C10.3618 19.3742 10.2806 19.3754 10.1993 19.3754H10.1969V19.3754ZM10.3667 0.682866C9.90215 0.682866 9.50433 0.890266 9.34787 0.984866C8.70142 1.37541 8.09378 1.95879 7.38183 2.71683C6.43823 3.71865 5.57467 4.93757 4.58013 6.66832C3.8415 7.95395 3.32482 9.25413 3.04344 10.5325C2.4734 13.1207 2.9076 15.1971 4.36909 16.8794C5.77358 18.4949 7.98583 19.3851 10.4419 19.322C12.8348 19.2602 15.1308 18.2656 16.7414 16.5919C18.3473 14.9242 19.2812 12.7872 19.3709 10.5749C19.4667 8.40877 18.7523 6.27414 17.3066 4.39907C15.6608 2.26444 13.1077 0.876926 10.4782 0.686516C10.4419 0.684086 10.4043 0.682876 10.3691 0.682876H10.3667L10.3667 0.682866Z" fill="url(#paint14_linear_4988_63568)"/>
</g>
<g opacity="0.75">
<path d="M10.2205 19.2869C7.89429 19.2869 5.83122 18.4221 4.52983 16.889C3.09866 15.2044 2.74571 13.2044 3.42006 10.5955C3.73783 9.36813 4.27876 8.09463 5.02709 6.81264C6.0944 4.98487 6.87063 3.83872 7.70508 2.85752L7.75117 2.80415C8.35275 2.09705 8.87186 1.48578 9.43584 1.06006C9.68205 0.874486 10.1041 0.688926 10.5492 0.725306C13.209 0.946046 15.7645 2.3845 17.3837 4.57249C18.77 6.44635 19.4455 8.55066 19.3364 10.6574C19.2333 12.8187 18.3091 14.9145 16.7336 16.5604C15.1496 18.2171 12.8791 19.2092 10.5044 19.2796C10.4098 19.282 10.3152 19.2844 10.2206 19.2844V19.2869L10.2205 19.2869ZM10.4316 0.771396C10.0422 0.771396 9.68203 0.936346 9.46372 1.1013C8.90459 1.52337 8.3867 2.13223 7.78755 2.8369L7.74146 2.89027C6.90944 3.86905 6.13442 5.01277 5.06953 6.83812C4.32362 8.11647 3.7839 9.38512 3.46735 10.6077C2.79664 13.1995 3.14594 15.1862 4.56741 16.8575C5.91247 18.4403 8.07621 19.3063 10.5031 19.2335C12.8646 19.1632 15.1229 18.1771 16.6984 16.5288C18.2654 14.8915 19.1848 12.8066 19.2866 10.6574C19.3946 8.56038 18.7227 6.4682 17.3436 4.60404C15.7318 2.42696 13.1908 0.997006 10.5444 0.777476C10.5068 0.773836 10.4704 0.772626 10.4328 0.772626L10.4316 0.771416L10.4316 0.771396Z" fill="url(#paint15_linear_4988_63568)"/>
</g>
<g opacity="0.72">
<path d="M10.2449 19.1983C7.96472 19.1983 5.96836 18.3578 4.73003 16.8672C3.33888 15.1923 3.0672 13.2808 3.84828 10.6707C4.19758 9.50396 4.75914 8.26321 5.5196 6.98365C6.47291 5.37662 7.21396 4.15406 8.0666 3.0358C8.20123 2.85872 8.32979 2.68528 8.45471 2.51791C8.84768 1.9891 9.18728 1.53186 9.54992 1.18134C9.70153 1.03458 10.12 0.771386 10.6184 0.817476C13.2976 1.06733 15.8422 2.54823 17.4238 4.77867C18.7397 6.63313 19.3728 8.69498 19.2552 10.7411C19.1327 12.8745 18.2461 14.8648 16.6936 16.4985C15.1448 18.1298 12.912 19.111 10.5699 19.1922C10.462 19.1959 10.354 19.1983 10.2473 19.1983H10.2449L10.2449 19.1983ZM10.4984 0.859926C10.0678 0.859926 9.71487 1.08673 9.58025 1.21651C9.22003 1.56339 8.88164 2.01942 8.48989 2.54701C8.36618 2.71438 8.23762 2.88782 8.10178 3.0649C7.25157 4.18073 6.51173 5.40329 5.55842 7.0079C4.80038 8.28383 4.24004 9.52094 3.89196 10.6841C3.11573 13.2772 3.38499 15.1753 4.76522 16.8357C6.05206 18.3857 8.16728 19.2274 10.5651 19.145C12.895 19.0649 15.1145 18.0886 16.6561 16.4658C18.2012 14.8405 19.0818 12.8599 19.2043 10.7386C19.3219 8.70469 18.6912 6.65254 17.3813 4.80657C15.8071 2.58704 13.2758 1.11463 10.61 0.864786C10.5724 0.861146 10.5336 0.859936 10.4972 0.859936H10.4984V0.859926Z" fill="url(#paint16_linear_4988_63568)"/>
</g>
<g opacity="0.69">
<path d="M10.2691 19.111C8.03741 19.111 6.10655 18.296 4.93008 16.8454C3.22117 14.7386 3.68326 12.4791 4.27514 10.7459C4.65598 9.63253 5.22359 8.45727 6.01074 7.15466C6.28363 6.70348 6.52863 6.29111 6.76635 5.89086C7.36186 4.89025 7.87733 4.02549 8.42554 3.21287C8.63779 2.89874 8.82214 2.59674 9.00043 2.30565C9.23815 1.91632 9.44434 1.58036 9.66144 1.30262C9.80092 1.12433 10.2024 0.858709 10.6839 0.908439C13.3849 1.18861 15.9186 2.71317 17.4601 4.98485C18.7094 6.82475 19.3 8.84416 19.169 10.8235C19.0332 12.8927 18.1611 14.8332 16.6487 16.4354C15.1338 18.04 12.941 19.0127 10.6305 19.1025C10.5092 19.1073 10.3879 19.1098 10.2679 19.1098L10.2691 19.111L10.2691 19.111ZM10.565 0.949689C10.1539 0.949689 9.82153 1.17528 9.69903 1.33174C9.48435 1.60706 9.27817 1.94181 9.04166 2.33113C8.86337 2.62222 8.67902 2.92422 8.46555 3.23956C7.91734 4.05096 7.40309 4.91451 6.80758 5.91512C6.56986 6.31415 6.32365 6.72773 6.05197 7.17892C5.26725 8.4791 4.70085 9.65072 4.32122 10.7605C3.44675 13.3172 3.64566 15.185 4.96767 16.8151C6.19751 18.3323 8.26058 19.1498 10.6305 19.0576C12.9289 18.9679 15.1108 18.0012 16.6172 16.4051C18.1223 14.8114 18.9895 12.8805 19.1254 10.8223C19.2551 8.85265 18.6669 6.84416 17.4237 5.01275C15.8895 2.75199 13.3691 1.23592 10.6814 0.956959C10.6426 0.953319 10.6038 0.950899 10.5662 0.950899L10.565 0.949689H10.565Z" fill="url(#paint17_linear_4988_63568)"/>
</g>
<g opacity="0.66">
<path d="M10.3104 19.0224C8.14787 19.0224 6.23155 18.2147 5.13028 16.8223C3.50141 14.7629 3.9999 12.6331 4.70335 10.8211C5.10844 9.77562 5.68091 8.66585 6.50202 7.32565C7.11936 6.32019 7.59966 5.47119 8.02416 4.72043C8.28492 4.25833 8.53235 3.82292 8.78705 3.39114C9.04175 2.95936 9.24187 2.53122 9.41773 2.1516C9.54144 1.88598 9.65909 1.63492 9.77552 1.4251C9.89317 1.21406 10.2995 0.948449 10.7531 1.0006C12.1321 1.15827 13.4954 1.65069 14.6985 2.42328C15.8289 3.14978 16.7967 4.10672 17.5002 5.19102C18.6985 7.04063 19.2334 8.963 19.0878 10.9072C18.9374 12.9133 18.08 14.8029 16.6075 16.3723C15.1497 17.9284 12.9399 18.9157 10.6949 19.0139C10.5663 19.02 10.439 19.0224 10.3116 19.0224H10.3104H10.3104ZM10.6354 1.03819C10.2473 1.03819 9.91622 1.26378 9.81434 1.44571C9.69791 1.65432 9.58147 1.90417 9.45776 2.16979C9.28068 2.54941 9.08056 2.97998 8.82465 3.41297C8.56995 3.84475 8.32374 4.28016 8.06298 4.74226C7.63848 5.49302 7.15819 6.34323 6.54084 7.34869C5.71974 8.68526 5.14969 9.79381 4.7446 10.8369C4.04599 12.638 3.54994 14.7532 5.16546 16.7944C6.32253 18.2571 8.38923 19.0709 10.6925 18.9691C12.9265 18.872 15.1254 17.8896 16.5748 16.342C18.0399 14.7799 18.8938 12.8987 19.043 10.9036C19.1873 8.97028 18.6561 7.05639 17.4626 5.21527C15.9708 2.91448 13.4614 1.35475 10.7482 1.04426C10.7106 1.03941 10.673 1.0382 10.6354 1.0382V1.03819Z" fill="url(#paint18_linear_4988_63568)"/>
</g>
<g opacity="0.63">
<path d="M10.3347 18.9339C8.22192 18.9339 6.37232 18.1516 5.33047 16.798C3.77316 14.7774 4.3141 12.7665 5.13156 10.8939C5.66037 9.681 6.36989 8.49483 6.99451 7.49422C7.88232 6.07154 8.42204 5.00301 8.94478 3.96845C9.0127 3.83382 9.08062 3.70041 9.14854 3.56578C9.41779 3.03697 9.58274 2.50696 9.7295 2.04001C9.78529 1.86172 9.83866 1.69192 9.89081 1.54395C9.97207 1.31593 10.3662 1.03212 10.8223 1.08913C13.5342 1.42873 16.1079 3.07821 17.5391 5.39477C18.6695 7.22497 19.1631 9.10611 19.0042 10.9872C18.8405 12.929 17.9975 14.7689 16.5652 16.3068C15.1425 17.8362 12.9715 18.8138 10.758 18.9218C10.6161 18.929 10.4754 18.9327 10.3359 18.9327L10.3347 18.9339V18.9339ZM10.6974 1.12672C10.2898 1.12672 9.99026 1.39234 9.93083 1.56092C9.87868 1.70768 9.82531 1.87626 9.76952 2.05455C9.63004 2.49967 9.4566 3.05394 9.18614 3.58639C9.11822 3.72102 9.0503 3.85443 8.98238 3.98906C8.45964 5.02363 7.91992 6.09337 7.03089 7.51726C6.40748 8.51665 5.69796 9.7004 5.17037 10.9108C4.35897 12.7713 3.82046 14.7689 5.36443 16.7713C6.46692 18.2025 8.48268 18.9897 10.7544 18.8793C12.9569 18.7726 15.117 17.7998 16.5324 16.2777C17.9575 14.7471 18.798 12.9157 18.9605 10.9836C19.1182 9.11215 18.627 7.2395 17.5015 5.41658C16.0776 3.11094 13.5148 1.46873 10.8162 1.13156C10.7762 1.12671 10.7362 1.12428 10.6974 1.12428V1.1267V1.12672Z" fill="url(#paint19_linear_4988_63568)"/>
</g>
<g opacity="0.6">
<path d="M10.3593 18.8466C8.29871 18.8466 6.51702 18.0898 5.53097 16.7762C4.85905 15.8812 4.56675 14.9436 4.63588 13.9091C4.69167 13.071 4.97669 12.1638 5.55886 10.9691C6.08039 9.89936 6.74018 8.84054 7.48609 7.66528C8.47214 6.11161 8.96577 5.01519 9.50913 3.74412C9.77111 3.13163 9.87299 2.48639 9.95546 1.96729C9.97244 1.86056 9.98821 1.75989 10.0052 1.66771C10.0464 1.43242 10.42 1.11829 10.8894 1.18257C13.6304 1.55492 16.1932 3.24806 17.577 5.60222C18.6395 7.4118 19.0919 9.2517 18.9209 11.0722C18.7438 12.9509 17.9154 14.7399 16.5231 16.2462C15.1344 17.7502 13.0034 18.718 10.8202 18.8345C10.665 18.843 10.5109 18.8466 10.3593 18.8466L10.3593 18.8466ZM10.7705 1.2153C10.3909 1.2153 10.0816 1.47121 10.0464 1.67376C10.0307 1.76594 10.0137 1.8666 9.99792 1.97334C9.91545 2.49487 9.81235 3.14253 9.54795 3.75988C9.00459 5.03338 8.50975 6.13101 7.52248 7.68711C6.77779 8.86116 6.11799 9.91877 5.59768 10.9873C4.56797 13.1001 4.16772 14.8878 5.56493 16.7508C6.61526 18.1492 8.57888 18.9133 10.819 18.792C12.9912 18.6756 15.1125 17.7126 16.4928 16.2171C17.879 14.718 18.7038 12.9376 18.8797 11.0673C19.0507 9.25533 18.5995 7.42392 17.5419 5.62283C16.1641 3.27959 13.6134 1.59372 10.8845 1.22259C10.8457 1.21774 10.8081 1.21531 10.7717 1.21531H10.7705V1.2153Z" fill="url(#paint20_linear_4988_63568)"/>
</g>
<g opacity="0.57">
<path d="M10.382 18.7592C8.37473 18.7592 6.65975 18.0267 5.72949 16.7532C4.37594 14.8987 4.85259 13.1304 5.9854 11.0443C6.46327 10.1637 7.04665 9.26622 7.61184 8.39903C7.73434 8.21104 7.85562 8.02426 7.97691 7.83626C9.03937 6.19163 9.47843 5.04548 9.86897 3.92116C10.1079 3.23468 10.114 2.47301 10.1188 1.91631V1.78775C10.1213 1.67981 10.1916 1.55488 10.308 1.45543C10.4839 1.30504 10.7204 1.23712 10.9569 1.27229C13.7307 1.6786 16.2814 3.41541 17.6143 5.80716C18.61 7.59248 19.0212 9.39115 18.8368 11.1534C18.6464 12.9691 17.8314 14.7071 16.4791 16.1819C15.1255 17.6592 13.0333 18.6173 10.8817 18.7447C10.7131 18.7544 10.5458 18.7592 10.3808 18.7592H10.382L10.382 18.7592ZM10.8344 1.30381C10.6501 1.30381 10.473 1.36809 10.3335 1.48574C10.2256 1.57792 10.1601 1.69071 10.1589 1.78774V1.9163C10.1528 2.47543 10.1467 3.24074 9.90658 3.93328C9.51483 5.06002 9.07456 6.2086 8.00967 7.85687C7.88838 8.04486 7.76589 8.23164 7.6446 8.41964C7.08062 9.28683 6.49724 10.1831 6.01937 11.0624C4.89505 13.1352 4.41961 14.8914 5.76103 16.7289C6.75921 18.0958 8.67189 18.8344 10.8781 18.7034C13.0188 18.5761 15.1012 17.624 16.4475 16.154C17.7938 14.6865 18.6052 12.9557 18.7944 11.1486C18.9775 9.39477 18.5688 7.60338 17.5767 5.82533C16.2498 3.44449 13.7089 1.71496 10.9484 1.31108C10.9096 1.30502 10.8708 1.30259 10.832 1.30259L10.8344 1.3038V1.30381Z" fill="url(#paint21_linear_4988_63568)"/>
</g>
<g opacity="0.54">
<path d="M10.4064 18.6732C8.45369 18.6732 6.80542 17.9661 5.93095 16.7314C4.48644 14.695 5.37789 12.8418 6.41367 11.1195C6.8127 10.4548 7.27601 9.77323 7.72477 9.11465C7.97098 8.75201 8.22568 8.37723 8.46946 8.00731C9.47128 6.48154 9.87395 5.41907 10.2305 4.09949C10.4343 3.34388 10.3106 2.44637 10.2366 1.91028C10.2208 1.7987 10.2766 1.66892 10.3846 1.5634C10.5483 1.40209 10.7884 1.32811 11.0249 1.3657C12.4355 1.58765 13.8097 2.1577 14.9983 3.01518C16.1299 3.83143 17.048 4.86964 17.6532 6.01457C18.5823 7.77442 18.9522 9.53185 18.7533 11.2383C18.5495 12.9909 17.749 14.678 16.4367 16.1201C15.1183 17.5707 13.065 18.5191 10.9449 18.6562C10.763 18.6683 10.5823 18.6744 10.4052 18.6744L10.4064 18.6731V18.6732ZM10.9049 1.39361C10.7193 1.39361 10.541 1.46396 10.4124 1.59009C10.313 1.68833 10.2621 1.80598 10.2754 1.90422C10.3506 2.44273 10.4755 3.34509 10.2693 4.10919C9.91155 5.43363 9.50767 6.49852 8.50221 8.02914C8.25843 8.40027 8.00373 8.77505 7.75752 9.13769C7.30998 9.79627 6.84666 10.4767 6.44763 11.1401C5.19111 13.2287 4.67201 14.8891 5.96249 16.7096C6.90973 18.0449 8.77025 18.7581 10.9437 18.6174C13.0541 18.4803 15.0977 17.5367 16.4088 16.0934C17.7151 14.6574 18.5131 12.9764 18.7157 11.2335C18.9134 9.53551 18.5447 7.78536 17.6192 6.03278C16.3445 3.61677 13.8157 1.84236 11.0189 1.40331C10.9801 1.39725 10.9425 1.39482 10.9037 1.39482L10.9049 1.39361H10.9049Z" fill="url(#paint22_linear_4988_63568)"/>
</g>
<g opacity="0.5">
<path d="M10.4292 18.5858C8.53354 18.5858 6.95197 17.9029 6.12965 16.7083C5.51109 15.8083 5.31219 14.8926 5.52201 13.909C5.72334 12.9642 6.27519 12.0461 6.84039 11.1946C7.1715 10.6974 7.54021 10.1856 7.89679 9.69071C8.25216 9.19829 8.61965 8.68889 8.96046 8.17828C9.99017 6.63795 10.3383 5.58155 10.5917 4.27652C10.7312 3.56093 10.5372 2.69981 10.3528 2.03031C10.3213 1.91509 10.3637 1.77804 10.4668 1.66403C10.5857 1.53183 10.8137 1.40812 11.0939 1.45542C13.8956 1.92601 16.4862 3.79502 17.693 6.21952C18.5542 7.95027 18.8841 9.66646 18.6718 11.3196C18.4547 13.0091 17.6676 14.6464 16.3965 16.0558C15.1133 17.4797 13.0987 18.4184 11.0102 18.5664C10.8149 18.5797 10.6209 18.587 10.4317 18.587L10.4292 18.5858V18.5858ZM10.9726 1.48209C10.7603 1.48209 10.5893 1.58276 10.4947 1.68949C10.4001 1.7938 10.3613 1.91751 10.3892 2.0206C10.5748 2.69374 10.77 3.55971 10.6293 4.28379C10.3746 5.59368 10.0253 6.65371 8.99199 8.19889C8.65118 8.7095 8.28368 9.2189 7.92831 9.71254C7.57173 10.2074 7.20302 10.7192 6.87313 11.2153C5.71485 12.9594 4.78823 14.6889 6.1624 16.6877C7.0587 17.9915 8.8695 18.6792 11.0065 18.5288C13.0866 18.3808 15.0914 17.4481 16.3686 16.0303C17.6348 14.627 18.4183 12.9957 18.6354 11.3147C18.8465 9.66888 18.519 7.95997 17.6603 6.23529C16.4583 3.82171 13.8798 1.95997 11.089 1.49181C11.049 1.48575 11.0114 1.48211 10.9738 1.48211H10.9726V1.48209Z" fill="url(#paint23_linear_4988_63568)"/>
</g>
<g opacity="0.47">
<path d="M10.4541 18.4997C8.61537 18.4997 7.10051 17.8423 6.33156 16.6852C4.99984 14.6852 6.015 12.9812 7.27031 11.2686C7.54078 10.8999 7.83308 10.5203 8.11688 10.154C8.56806 9.5682 9.03623 8.96299 9.45466 8.34807C10.5086 6.79683 10.7961 5.78288 10.9562 4.45238C11.0241 3.88476 10.8664 3.13037 10.4722 2.14917C10.4237 2.0291 10.4553 1.88355 10.5547 1.76227C10.6663 1.62522 10.8846 1.49665 11.1648 1.54638C14.0065 2.05335 16.585 3.96845 17.7336 6.42449C18.5292 8.12492 18.8179 9.79987 18.5911 11.402C18.357 13.0515 17.6051 14.5955 16.3558 15.9927C15.1078 17.3899 13.1333 18.3178 11.0738 18.4766C10.864 18.4924 10.6578 18.5009 10.4553 18.5009L10.4541 18.4997V18.4997ZM11.0399 1.57063C10.8313 1.57063 10.6687 1.67494 10.579 1.78409C10.488 1.89567 10.4589 2.02787 10.5026 2.13582C10.8992 3.12309 11.0581 3.88233 10.9889 4.45723C10.8288 5.79259 10.5402 6.81138 9.48256 8.36869C9.06291 8.98482 8.59596 9.59125 8.14357 10.1771C7.86097 10.5433 7.56746 10.923 7.29821 11.2917C6.05139 12.9945 5.04108 14.6865 6.36067 16.6671C7.20846 17.9393 8.9671 18.6028 11.069 18.4415C13.1187 18.2838 15.0835 17.3596 16.3267 15.9697C17.5711 14.5785 18.3206 13.0406 18.5523 11.3984C18.7779 9.8035 18.4917 8.13583 17.6984 6.44147C16.5535 3.99514 13.9859 2.08853 11.1551 1.58277C11.1151 1.57549 11.0763 1.57185 11.0399 1.57185V1.57064V1.57063Z" fill="url(#paint24_linear_4988_63568)"/>
</g>
<g opacity="0.44">
<path d="M10.4783 18.4136C8.69907 18.4136 7.25092 17.7805 6.5317 16.6634C5.94832 15.7574 5.81248 14.8551 6.11569 13.9066C6.38009 13.0819 6.93922 12.2862 7.69725 11.3439C7.91435 11.0746 8.14479 10.7981 8.36796 10.53C8.90647 9.88237 9.46438 9.21287 9.94467 8.5179C11.0156 6.9703 11.2521 5.95756 11.3152 4.62948C11.3431 4.05095 11.0969 3.25653 10.5863 2.26805C10.5208 2.14191 10.5402 1.98788 10.6384 1.85568C10.7706 1.6786 11.0023 1.59249 11.2303 1.63615C12.6699 1.90904 14.0538 2.5373 15.2315 3.45422C16.3716 4.34203 17.2497 5.43967 17.77 6.62826C18.5026 8.30079 18.75 9.93329 18.505 11.4821C18.2612 13.0637 17.5238 14.5591 16.3109 15.926C15.0981 17.2953 13.1624 18.2147 11.1345 18.3845C10.9113 18.4027 10.6918 18.4124 10.4771 18.4124L10.4783 18.4136L10.4783 18.4136ZM11.1139 1.66041C10.9368 1.66041 10.7694 1.73925 10.6663 1.87751C10.5766 1.9988 10.5572 2.13827 10.6166 2.25228C11.1308 3.24561 11.3771 4.04609 11.3492 4.63069C11.2861 5.96483 11.0484 6.98242 9.97257 8.5373C9.49107 9.23348 8.93315 9.90298 8.39343 10.5518C8.17026 10.8199 7.93982 11.0964 7.72272 11.3657C6.33521 13.0879 5.29094 14.6743 6.55959 16.644C7.35886 17.8848 9.06778 18.5227 11.1321 18.3505C13.1515 18.1819 15.0775 17.2674 16.2855 15.9042C17.4935 14.5409 18.2285 13.0515 18.4711 11.4773C18.7148 9.93451 18.4686 8.30807 17.7385 6.6416C16.6542 4.16495 14.0963 2.21346 11.2242 1.66889C11.1879 1.66161 11.1503 1.65797 11.1139 1.65797V1.66039L11.1139 1.66041Z" fill="url(#paint25_linear_4988_63568)"/>
</g>
<g opacity="0.41">
<path d="M10.5031 18.3287C8.78446 18.3287 7.40181 17.7198 6.7311 16.6404C5.50126 14.6598 6.63407 13.1037 8.12467 11.419C8.29568 11.2249 8.47519 11.026 8.64862 10.8344C9.26718 10.1491 9.90635 9.44083 10.4352 8.68886C11.5255 7.14004 11.7087 6.16612 11.6759 4.80651C11.6614 4.22313 11.3254 3.38626 10.702 2.38686C10.6195 2.25466 10.628 2.08971 10.7263 1.94902C10.85 1.76952 11.0743 1.6834 11.2975 1.72828C12.7481 2.01937 14.1356 2.66703 15.3084 3.60336C16.4522 4.51543 17.3157 5.63247 17.8069 6.83684C18.474 8.47177 18.6802 10.063 18.4206 11.5682C18.1623 13.0867 17.4382 14.5336 16.2678 15.8666C15.0901 17.2092 13.1944 18.1176 11.1969 18.2983C10.9603 18.3202 10.7275 18.3299 10.5019 18.3299L10.5031 18.3287H10.5031ZM11.1823 1.7489C11.0113 1.7489 10.85 1.82895 10.7541 1.96721C10.6644 2.0982 10.6547 2.24738 10.7311 2.36867C11.3582 3.37291 11.6965 4.21464 11.7099 4.80409C11.7426 6.17098 11.5595 7.14975 10.4631 8.70706C9.93304 9.46024 9.29265 10.1698 8.6741 10.8562C8.50066 11.0491 8.32116 11.248 8.15015 11.4408C6.66925 13.1158 5.5413 14.6622 6.76022 16.6222C7.51219 17.8326 9.16895 18.4451 11.1956 18.2619C13.1847 18.0824 15.0719 17.1777 16.2448 15.8411C17.4115 14.5118 18.1332 13.0721 18.3903 11.5585C18.6499 10.0606 18.4437 8.47419 17.779 6.84532C16.7724 4.37837 14.1659 2.33349 11.2927 1.75739C11.2563 1.75011 11.2187 1.74647 11.1823 1.74647V1.74889L11.1823 1.7489Z" fill="url(#paint26_linear_4988_63568)"/>
</g>
<g opacity="0.38">
<path d="M10.528 18.2425C8.87006 18.2425 7.55411 17.6579 6.93191 16.6173C6.38491 15.7028 6.31214 14.815 6.70996 13.9017C7.08109 13.0503 7.82336 12.2462 8.5535 11.4942C8.68813 11.3547 8.82639 11.2152 8.96466 11.0746C9.65356 10.3735 10.3655 9.64823 10.9295 8.85987C12.032 7.32561 12.169 6.35047 12.0405 4.98358C11.9701 4.23282 11.3382 3.22251 10.8203 2.50571C10.7209 2.36744 10.7197 2.18915 10.8167 2.03997C10.9331 1.86047 11.1502 1.77314 11.3686 1.81923C12.83 2.12972 14.2212 2.79801 15.3916 3.75131C16.5402 4.68642 17.3892 5.82408 17.85 7.04058C18.4528 8.63549 18.6178 10.1855 18.3425 11.6494C18.0696 13.1061 17.3588 14.5033 16.2297 15.8023C15.1041 17.0976 13.2012 18.0194 11.2642 18.2073C11.0132 18.2316 10.7682 18.2437 10.5317 18.2437L10.528 18.2425V18.2425ZM11.2509 1.83745C11.0847 1.83745 10.9319 1.9175 10.8409 2.05576C10.75 2.19645 10.7512 2.35655 10.8434 2.48632C11.3637 3.20554 11.998 4.22192 12.0684 4.97874C12.1981 6.35291 12.0611 7.33411 10.9513 8.87686C10.3861 9.66764 9.67297 10.3941 8.98407 11.0964C8.8458 11.2371 8.70875 11.3766 8.57291 11.516C7.8452 12.2656 7.10535 13.0685 6.73665 13.9151C6.34368 14.8174 6.41524 15.6968 6.95739 16.6016C7.66327 17.7805 9.27031 18.3687 11.257 18.1746C13.1866 17.9866 15.0811 17.0685 16.2018 15.7804C17.3273 14.4863 18.0356 13.094 18.3073 11.6434C18.5826 10.1855 18.4177 8.64157 17.8173 7.05273C16.8761 4.56274 14.2806 2.47177 11.3601 1.85079C11.3237 1.84351 11.2873 1.83987 11.2509 1.83987V1.83745H11.2509Z" fill="url(#paint27_linear_4988_63568)"/>
</g>
<g opacity="0.35">
<path d="M10.5541 18.1589C8.95918 18.1589 7.70752 17.5986 7.13141 16.5955C5.89794 14.4488 7.54257 12.9121 9.28423 11.2856C10.041 10.5785 10.8246 9.84718 11.4201 9.02972C12.5395 7.49424 12.6281 6.55792 12.4013 5.1595C12.2776 4.39783 11.5365 3.36083 10.9361 2.62342C10.8173 2.47788 10.8051 2.28746 10.9046 2.12736C11.015 1.94786 11.2236 1.86174 11.4358 1.90905C14.4146 2.57127 17.0065 4.7156 17.887 7.24562C18.958 10.3239 18.3855 13.1801 16.1854 15.738C15.095 17.0055 13.2321 17.9175 11.3255 18.1177C11.0611 18.1456 10.8039 18.1589 10.5553 18.1589H10.5541L10.5541 18.1589ZM11.3206 1.92723C11.1617 1.92723 11.015 2.00607 10.9301 2.14312C10.8379 2.2923 10.8488 2.46938 10.9592 2.60401C11.562 3.34385 12.3055 4.3857 12.4304 5.15343C12.6596 6.56156 12.5699 7.50273 11.4443 9.0467C10.8464 9.86538 10.0629 10.5979 9.30486 11.3063C8.41826 12.1346 7.58139 12.9169 7.11202 13.7647C6.58564 14.7156 6.60019 15.6095 7.15811 16.5798C7.8179 17.7271 9.374 18.2911 11.3206 18.0861C13.2212 17.8872 15.0756 16.9788 16.1611 15.7174L16.1721 15.7271L16.1611 15.7174C18.354 13.1692 18.924 10.3226 17.8567 7.25531C16.9798 4.73499 14.3964 2.59794 11.4274 1.93815C11.391 1.92966 11.3546 1.92602 11.3194 1.92602L11.3206 1.92723H11.3206Z" fill="url(#paint28_linear_4988_63568)"/>
</g>
</g>
<defs>
<linearGradient id="paint0_linear_4988_63568" x1="0.0302734" y1="9.97334" x2="19.9696" y2="9.97334" gradientUnits="userSpaceOnUse">
<stop offset="0.06974" stop-color="#89E1EF"/>
<stop offset="0.13343" stop-color="#A4E7F2"/>
<stop offset="0.22247" stop-color="#C4EFF6"/>
<stop offset="0.31483" stop-color="#DEF6F9"/>
<stop offset="0.4107" stop-color="#EFFAFC"/>
<stop offset="0.51233" stop-color="#FAFDFD"/>
<stop offset="0.62939" stop-color="#FEFEFE"/>
<stop offset="0.68674" stop-color="#F3FBFC"/>
<stop offset="0.78509" stop-color="#D8F4F9"/>
<stop offset="0.91171" stop-color="#ACE9F3"/>
<stop offset="1" stop-color="#89E1EF"/>
</linearGradient>
<radialGradient id="paint1_radial_4988_63568" cx="0" cy="0" r="1" gradientUnits="userSpaceOnUse" gradientTransform="translate(12.2745 11.1667) rotate(-21.8877) scale(14.6503 16.1834)">
<stop offset="0.32024" stop-color="#89E1EF" stop-opacity="0"/>
<stop offset="0.44106" stop-color="#77DFF3" stop-opacity="0.36021"/>
<stop offset="0.56396" stop-color="#66DEF8" stop-opacity="0.70167"/>
<stop offset="0.65087" stop-color="#5CDEFA" stop-opacity="0.91686"/>
<stop offset="0.69288" stop-color="#58DEFC"/>
<stop offset="0.74945" stop-color="#58C5EB"/>
<stop offset="0.86987" stop-color="#5A84C1"/>
<stop offset="1" stop-color="#5C398F"/>
</radialGradient>
<radialGradient id="paint2_radial_4988_63568" cx="0" cy="0" r="1" gradientUnits="userSpaceOnUse" gradientTransform="translate(4.11908 1.85019) rotate(-21.8877) scale(11.3377 9.05838)">
<stop offset="0.12528" stop-color="#5C398F"/>
<stop offset="0.19403" stop-color="#5F4595" stop-opacity="0.9285"/>
<stop offset="0.31193" stop-color="#6765A8" stop-opacity="0.73633"/>
<stop offset="0.46476" stop-color="#7599C6" stop-opacity="0.42394"/>
<stop offset="0.64306" stop-color="#89E1EF" stop-opacity="0"/>
</radialGradient>
<radialGradient id="paint3_radial_4988_63568" cx="0" cy="0" r="1" gradientUnits="userSpaceOnUse" gradientTransform="translate(4.0838 7.57004) rotate(22.3424) scale(15.6155 31.1311)">
<stop offset="0.53096" stop-color="#89E1EF" stop-opacity="0"/>
<stop offset="0.58075" stop-color="#7599C6" stop-opacity="0.42394"/>
<stop offset="0.62342" stop-color="#6765A8" stop-opacity="0.73633"/>
<stop offset="0.65635" stop-color="#5F4595" stop-opacity="0.9285"/>
<stop offset="0.67554" stop-color="#5C398F"/>
<stop offset="0.72179" stop-color="#5D3F92" stop-opacity="0.96392"/>
<stop offset="0.77809" stop-color="#62509C" stop-opacity="0.85974"/>
<stop offset="0.83958" stop-color="#6A6DAD" stop-opacity="0.68747"/>
<stop offset="0.9048" stop-color="#7495C4" stop-opacity="0.44692"/>
<stop offset="0.9723" stop-color="#82C9E1" stop-opacity="0.14116"/>
<stop offset="1" stop-color="#89E1EF" stop-opacity="0"/>
</radialGradient>
<radialGradient id="paint4_radial_4988_63568" cx="0" cy="0" r="1" gradientUnits="userSpaceOnUse" gradientTransform="translate(11.1977 18.9944) rotate(-22.1492) scale(10.0862 8.0585)">
<stop stop-color="#5C398F" stop-opacity="0"/>
<stop offset="0.12888" stop-color="#7F3991" stop-opacity="0.33198"/>
<stop offset="0.25452" stop-color="#9E3993" stop-opacity="0.61907"/>
<stop offset="0.36139" stop-color="#B43994" stop-opacity="0.82602"/>
<stop offset="0.44535" stop-color="#C13995" stop-opacity="0.9531"/>
<stop offset="0.49596" stop-color="#C73996"/>
<stop offset="0.57032" stop-color="#B553A4"/>
<stop offset="0.96376" stop-color="#5DDAF0"/>
<stop offset="1" stop-color="#40C0CC" stop-opacity="0"/>
</radialGradient>
<radialGradient id="paint5_radial_4988_63568" cx="0" cy="0" r="1" gradientUnits="userSpaceOnUse" gradientTransform="translate(20.9181 9.97334) rotate(89.6574) scale(8.38956 4.77895)">
<stop offset="0.25646" stop-color="#2CB560"/>
<stop offset="0.36044" stop-color="#26B774" stop-opacity="0.93695"/>
<stop offset="0.5387" stop-color="#17BDA9" stop-opacity="0.7676"/>
<stop offset="0.76377" stop-color="#00C8FF" stop-opacity="0.5"/>
<stop offset="1" stop-color="#00C8FF" stop-opacity="0"/>
</radialGradient>
<radialGradient id="paint6_radial_4988_63568" cx="0" cy="0" r="1" gradientUnits="userSpaceOnUse" gradientTransform="translate(15.5253 -2.48115) rotate(-21.8877) scale(11.3377 9.05838)">
<stop offset="0.25646" stop-color="#AC3692"/>
<stop offset="0.34222" stop-color="#A94097" stop-opacity="0.94051"/>
<stop offset="0.48931" stop-color="#A45BA6" stop-opacity="0.78062"/>
<stop offset="0.67995" stop-color="#9B87BE" stop-opacity="0.52071"/>
<stop offset="0.90448" stop-color="#8EC4DF" stop-opacity="0.16443"/>
<stop offset="1" stop-color="#89E1EF" stop-opacity="0"/>
</radialGradient>
<linearGradient id="paint7_linear_4988_63568" x1="0" y1="10" x2="20" y2="10" gradientUnits="userSpaceOnUse">
<stop stop-color="#4CC8F4"/>
<stop offset="0.04" stop-color="#4BBEEC" stop-opacity="0.99"/>
<stop offset="0.1" stop-color="#4BA5D7" stop-opacity="0.95"/>
<stop offset="0.17" stop-color="#4A7CB4" stop-opacity="0.88"/>
<stop offset="0.26" stop-color="#484385" stop-opacity="0.8"/>
<stop offset="0.35" stop-color="#470652" stop-opacity="0.7"/>
<stop offset="0.42" stop-color="#661867" stop-opacity="0.7"/>
<stop offset="0.55" stop-color="#AF4198" stop-opacity="0.7"/>
<stop offset="0.67" stop-color="#AF4198" stop-opacity="0.69"/>
<stop offset="0.71" stop-color="#AF4198" stop-opacity="0.65"/>
<stop offset="0.74" stop-color="#AF4198" stop-opacity="0.58"/>
<stop offset="0.76" stop-color="#AF4198" stop-opacity="0.49"/>
<stop offset="0.78" stop-color="#AF4198" stop-opacity="0.36"/>
<stop offset="0.8" stop-color="#AF4198" stop-opacity="0.21"/>
<stop offset="0.81" stop-color="#AF4198" stop-opacity="0.03"/>
<stop offset="0.82" stop-color="#AF4198" stop-opacity="0"/>
</linearGradient>
<linearGradient id="paint8_linear_4988_63568" x1="0.423825" y1="10.0004" x2="19.9176" y2="10.0004" gradientUnits="userSpaceOnUse">
<stop stop-color="#4CC8F4"/>
<stop offset="0.04" stop-color="#4BBEEC" stop-opacity="0.99"/>
<stop offset="0.1" stop-color="#4BA5D7" stop-opacity="0.95"/>
<stop offset="0.17" stop-color="#4A7CB4" stop-opacity="0.88"/>
<stop offset="0.26" stop-color="#484385" stop-opacity="0.8"/>
<stop offset="0.35" stop-color="#470652" stop-opacity="0.7"/>
<stop offset="0.42" stop-color="#661867" stop-opacity="0.7"/>
<stop offset="0.55" stop-color="#AF4198" stop-opacity="0.7"/>
<stop offset="0.67" stop-color="#AF4198" stop-opacity="0.69"/>
<stop offset="0.71" stop-color="#AF4198" stop-opacity="0.65"/>
<stop offset="0.74" stop-color="#AF4198" stop-opacity="0.58"/>
<stop offset="0.76" stop-color="#AF4198" stop-opacity="0.49"/>
<stop offset="0.78" stop-color="#AF4198" stop-opacity="0.36"/>
<stop offset="0.8" stop-color="#AF4198" stop-opacity="0.21"/>
<stop offset="0.81" stop-color="#AF4198" stop-opacity="0.03"/>
<stop offset="0.82" stop-color="#AF4198" stop-opacity="0"/>
</linearGradient>
<linearGradient id="paint9_linear_4988_63568" x1="0.838867" y1="10.0008" x2="19.8346" y2="10.0008" gradientUnits="userSpaceOnUse">
<stop stop-color="#4CC8F4"/>
<stop offset="0.04" stop-color="#4BBEEC" stop-opacity="0.99"/>
<stop offset="0.1" stop-color="#4BA5D7" stop-opacity="0.95"/>
<stop offset="0.17" stop-color="#4A7CB4" stop-opacity="0.88"/>
<stop offset="0.26" stop-color="#484385" stop-opacity="0.8"/>
<stop offset="0.35" stop-color="#470652" stop-opacity="0.7"/>
<stop offset="0.42" stop-color="#661867" stop-opacity="0.7"/>
<stop offset="0.55" stop-color="#AF4198" stop-opacity="0.7"/>
<stop offset="0.67" stop-color="#AF4198" stop-opacity="0.69"/>
<stop offset="0.71" stop-color="#AF4198" stop-opacity="0.65"/>
<stop offset="0.74" stop-color="#AF4198" stop-opacity="0.58"/>
<stop offset="0.76" stop-color="#AF4198" stop-opacity="0.49"/>
<stop offset="0.78" stop-color="#AF4198" stop-opacity="0.36"/>
<stop offset="0.8" stop-color="#AF4198" stop-opacity="0.21"/>
<stop offset="0.81" stop-color="#AF4198" stop-opacity="0.03"/>
<stop offset="0.82" stop-color="#AF4198" stop-opacity="0"/>
</linearGradient>
<linearGradient id="paint10_linear_4988_63568" x1="1.24512" y1="10.0017" x2="19.7529" y2="10.0017" gradientUnits="userSpaceOnUse">
<stop stop-color="#4CC8F4"/>
<stop offset="0.04" stop-color="#4BBEEC" stop-opacity="0.99"/>
<stop offset="0.1" stop-color="#4BA5D7" stop-opacity="0.95"/>
<stop offset="0.17" stop-color="#4A7CB4" stop-opacity="0.88"/>
<stop offset="0.26" stop-color="#484385" stop-opacity="0.8"/>
<stop offset="0.35" stop-color="#470652" stop-opacity="0.7"/>
<stop offset="0.42" stop-color="#661867" stop-opacity="0.7"/>
<stop offset="0.55" stop-color="#AF4198" stop-opacity="0.7"/>
<stop offset="0.67" stop-color="#AF4198" stop-opacity="0.69"/>
<stop offset="0.71" stop-color="#AF4198" stop-opacity="0.65"/>
<stop offset="0.74" stop-color="#AF4198" stop-opacity="0.58"/>
<stop offset="0.76" stop-color="#AF4198" stop-opacity="0.49"/>
<stop offset="0.78" stop-color="#AF4198" stop-opacity="0.36"/>
<stop offset="0.8" stop-color="#AF4198" stop-opacity="0.21"/>
<stop offset="0.81" stop-color="#AF4198" stop-opacity="0.03"/>
<stop offset="0.82" stop-color="#AF4198" stop-opacity="0"/>
</linearGradient>
<linearGradient id="paint11_linear_4988_63568" x1="1.63769" y1="10.0014" x2="19.6704" y2="10.0014" gradientUnits="userSpaceOnUse">
<stop stop-color="#4CC8F4"/>
<stop offset="0.04" stop-color="#4BBEEC" stop-opacity="0.99"/>
<stop offset="0.1" stop-color="#4BA5D7" stop-opacity="0.95"/>
<stop offset="0.17" stop-color="#4A7CB4" stop-opacity="0.88"/>
<stop offset="0.26" stop-color="#484385" stop-opacity="0.8"/>
<stop offset="0.35" stop-color="#470652" stop-opacity="0.7"/>
<stop offset="0.42" stop-color="#661867" stop-opacity="0.7"/>
<stop offset="0.55" stop-color="#AF4198" stop-opacity="0.7"/>
<stop offset="0.67" stop-color="#AF4198" stop-opacity="0.69"/>
<stop offset="0.71" stop-color="#AF4198" stop-opacity="0.65"/>
<stop offset="0.74" stop-color="#AF4198" stop-opacity="0.58"/>
<stop offset="0.76" stop-color="#AF4198" stop-opacity="0.49"/>
<stop offset="0.78" stop-color="#AF4198" stop-opacity="0.36"/>
<stop offset="0.8" stop-color="#AF4198" stop-opacity="0.21"/>
<stop offset="0.81" stop-color="#AF4198" stop-opacity="0.03"/>
<stop offset="0.82" stop-color="#AF4198" stop-opacity="0"/>
</linearGradient>
<linearGradient id="paint12_linear_4988_63568" x1="2.02345" y1="10.0029" x2="19.5909" y2="10.0029" gradientUnits="userSpaceOnUse">
<stop stop-color="#4CC8F4"/>
<stop offset="0.04" stop-color="#4BBEEC" stop-opacity="0.99"/>
<stop offset="0.1" stop-color="#4BA5D7" stop-opacity="0.95"/>
<stop offset="0.17" stop-color="#4A7CB4" stop-opacity="0.88"/>
<stop offset="0.26" stop-color="#484385" stop-opacity="0.8"/>
<stop offset="0.35" stop-color="#470652" stop-opacity="0.7"/>
<stop offset="0.42" stop-color="#661867" stop-opacity="0.7"/>
<stop offset="0.55" stop-color="#AF4198" stop-opacity="0.7"/>
<stop offset="0.67" stop-color="#AF4198" stop-opacity="0.69"/>
<stop offset="0.71" stop-color="#AF4198" stop-opacity="0.65"/>
<stop offset="0.74" stop-color="#AF4198" stop-opacity="0.58"/>
<stop offset="0.76" stop-color="#AF4198" stop-opacity="0.49"/>
<stop offset="0.78" stop-color="#AF4198" stop-opacity="0.36"/>
<stop offset="0.8" stop-color="#AF4198" stop-opacity="0.21"/>
<stop offset="0.81" stop-color="#AF4198" stop-opacity="0.03"/>
<stop offset="0.82" stop-color="#AF4198" stop-opacity="0"/>
</linearGradient>
<linearGradient id="paint13_linear_4988_63568" x1="2.38965" y1="10.0042" x2="19.5082" y2="10.0042" gradientUnits="userSpaceOnUse">
<stop stop-color="#4CC8F4"/>
<stop offset="0.04" stop-color="#4BBEEC" stop-opacity="0.99"/>
<stop offset="0.1" stop-color="#4BA5D7" stop-opacity="0.95"/>
<stop offset="0.17" stop-color="#4A7CB4" stop-opacity="0.88"/>
<stop offset="0.26" stop-color="#484385" stop-opacity="0.8"/>
<stop offset="0.35" stop-color="#470652" stop-opacity="0.7"/>
<stop offset="0.42" stop-color="#661867" stop-opacity="0.7"/>
<stop offset="0.55" stop-color="#AF4198" stop-opacity="0.7"/>
<stop offset="0.67" stop-color="#AF4198" stop-opacity="0.69"/>
<stop offset="0.71" stop-color="#AF4198" stop-opacity="0.65"/>
<stop offset="0.74" stop-color="#AF4198" stop-opacity="0.58"/>
<stop offset="0.76" stop-color="#AF4198" stop-opacity="0.49"/>
<stop offset="0.78" stop-color="#AF4198" stop-opacity="0.36"/>
<stop offset="0.8" stop-color="#AF4198" stop-opacity="0.21"/>
<stop offset="0.81" stop-color="#AF4198" stop-opacity="0.03"/>
<stop offset="0.82" stop-color="#AF4198" stop-opacity="0"/>
</linearGradient>
<linearGradient id="paint14_linear_4988_63568" x1="2.75001" y1="10.0035" x2="19.4291" y2="10.0035" gradientUnits="userSpaceOnUse">
<stop stop-color="#4CC8F4"/>
<stop offset="0.04" stop-color="#4BBEEC" stop-opacity="0.99"/>
<stop offset="0.1" stop-color="#4BA5D7" stop-opacity="0.95"/>
<stop offset="0.17" stop-color="#4A7CB4" stop-opacity="0.88"/>
<stop offset="0.26" stop-color="#484385" stop-opacity="0.8"/>
<stop offset="0.35" stop-color="#470652" stop-opacity="0.7"/>
<stop offset="0.42" stop-color="#661867" stop-opacity="0.7"/>
<stop offset="0.55" stop-color="#AF4198" stop-opacity="0.7"/>
<stop offset="0.67" stop-color="#AF4198" stop-opacity="0.69"/>
<stop offset="0.71" stop-color="#AF4198" stop-opacity="0.65"/>
<stop offset="0.74" stop-color="#AF4198" stop-opacity="0.58"/>
<stop offset="0.76" stop-color="#AF4198" stop-opacity="0.49"/>
<stop offset="0.78" stop-color="#AF4198" stop-opacity="0.36"/>
<stop offset="0.8" stop-color="#AF4198" stop-opacity="0.21"/>
<stop offset="0.81" stop-color="#AF4198" stop-opacity="0.03"/>
<stop offset="0.82" stop-color="#AF4198" stop-opacity="0"/>
</linearGradient>
<linearGradient id="paint15_linear_4988_63568" x1="3.08984" y1="10.0038" x2="19.3478" y2="10.0038" gradientUnits="userSpaceOnUse">
<stop stop-color="#4CC8F4"/>
<stop offset="0.04" stop-color="#4BBEEC" stop-opacity="0.99"/>
<stop offset="0.1" stop-color="#4BA5D7" stop-opacity="0.95"/>
<stop offset="0.17" stop-color="#4A7CB4" stop-opacity="0.88"/>
<stop offset="0.26" stop-color="#484385" stop-opacity="0.8"/>
<stop offset="0.35" stop-color="#470652" stop-opacity="0.7"/>
<stop offset="0.42" stop-color="#661867" stop-opacity="0.7"/>
<stop offset="0.55" stop-color="#AF4198" stop-opacity="0.7"/>
<stop offset="0.67" stop-color="#AF4198" stop-opacity="0.69"/>
<stop offset="0.71" stop-color="#AF4198" stop-opacity="0.65"/>
<stop offset="0.74" stop-color="#AF4198" stop-opacity="0.58"/>
<stop offset="0.76" stop-color="#AF4198" stop-opacity="0.49"/>
<stop offset="0.78" stop-color="#AF4198" stop-opacity="0.36"/>
<stop offset="0.8" stop-color="#AF4198" stop-opacity="0.21"/>
<stop offset="0.81" stop-color="#AF4198" stop-opacity="0.03"/>
<stop offset="0.82" stop-color="#AF4198" stop-opacity="0"/>
</linearGradient>
<linearGradient id="paint16_linear_4988_63568" x1="3.417" y1="10.0052" x2="19.2691" y2="10.0052" gradientUnits="userSpaceOnUse">
<stop stop-color="#4CC8F4"/>
<stop offset="0.04" stop-color="#4BBEEC" stop-opacity="0.99"/>
<stop offset="0.1" stop-color="#4BA5D7" stop-opacity="0.95"/>
<stop offset="0.17" stop-color="#4A7CB4" stop-opacity="0.88"/>
<stop offset="0.26" stop-color="#484385" stop-opacity="0.8"/>
<stop offset="0.35" stop-color="#470652" stop-opacity="0.7"/>
<stop offset="0.42" stop-color="#661867" stop-opacity="0.7"/>
<stop offset="0.55" stop-color="#AF4198" stop-opacity="0.7"/>
<stop offset="0.67" stop-color="#AF4198" stop-opacity="0.69"/>
<stop offset="0.71" stop-color="#AF4198" stop-opacity="0.65"/>
<stop offset="0.74" stop-color="#AF4198" stop-opacity="0.58"/>
<stop offset="0.76" stop-color="#AF4198" stop-opacity="0.49"/>
<stop offset="0.78" stop-color="#AF4198" stop-opacity="0.36"/>
<stop offset="0.8" stop-color="#AF4198" stop-opacity="0.21"/>
<stop offset="0.81" stop-color="#AF4198" stop-opacity="0.03"/>
<stop offset="0.82" stop-color="#AF4198" stop-opacity="0"/>
</linearGradient>
<linearGradient id="paint17_linear_4988_63568" x1="3.73827" y1="10.0067" x2="19.1869" y2="10.0067" gradientUnits="userSpaceOnUse">
<stop stop-color="#4CC8F4"/>
<stop offset="0.04" stop-color="#4BBEEC" stop-opacity="0.99"/>
<stop offset="0.1" stop-color="#4BA5D7" stop-opacity="0.95"/>
<stop offset="0.17" stop-color="#4A7CB4" stop-opacity="0.88"/>
<stop offset="0.26" stop-color="#484385" stop-opacity="0.8"/>
<stop offset="0.35" stop-color="#470652" stop-opacity="0.7"/>
<stop offset="0.42" stop-color="#661867" stop-opacity="0.7"/>
<stop offset="0.55" stop-color="#AF4198" stop-opacity="0.7"/>
<stop offset="0.67" stop-color="#AF4198" stop-opacity="0.69"/>
<stop offset="0.71" stop-color="#AF4198" stop-opacity="0.65"/>
<stop offset="0.74" stop-color="#AF4198" stop-opacity="0.58"/>
<stop offset="0.76" stop-color="#AF4198" stop-opacity="0.49"/>
<stop offset="0.78" stop-color="#AF4198" stop-opacity="0.36"/>
<stop offset="0.8" stop-color="#AF4198" stop-opacity="0.21"/>
<stop offset="0.81" stop-color="#AF4198" stop-opacity="0.03"/>
<stop offset="0.82" stop-color="#AF4198" stop-opacity="0"/>
</linearGradient>
<linearGradient id="paint18_linear_4988_63568" x1="4.042" y1="10.0082" x2="19.1112" y2="10.0082" gradientUnits="userSpaceOnUse">
<stop stop-color="#4CC8F4"/>
<stop offset="0.04" stop-color="#4BBEEC" stop-opacity="0.99"/>
<stop offset="0.1" stop-color="#4BA5D7" stop-opacity="0.95"/>
<stop offset="0.17" stop-color="#4A7CB4" stop-opacity="0.88"/>
<stop offset="0.26" stop-color="#484385" stop-opacity="0.8"/>
<stop offset="0.35" stop-color="#470652" stop-opacity="0.7"/>
<stop offset="0.42" stop-color="#661867" stop-opacity="0.7"/>
<stop offset="0.55" stop-color="#AF4198" stop-opacity="0.7"/>
<stop offset="0.67" stop-color="#AF4198" stop-opacity="0.69"/>
<stop offset="0.71" stop-color="#AF4198" stop-opacity="0.65"/>
<stop offset="0.74" stop-color="#AF4198" stop-opacity="0.58"/>
<stop offset="0.76" stop-color="#AF4198" stop-opacity="0.49"/>
<stop offset="0.78" stop-color="#AF4198" stop-opacity="0.36"/>
<stop offset="0.8" stop-color="#AF4198" stop-opacity="0.21"/>
<stop offset="0.81" stop-color="#AF4198" stop-opacity="0.03"/>
<stop offset="0.82" stop-color="#AF4198" stop-opacity="0"/>
</linearGradient>
<linearGradient id="paint19_linear_4988_63568" x1="4.33594" y1="10.0078" x2="19.0333" y2="10.0078" gradientUnits="userSpaceOnUse">
<stop stop-color="#4CC8F4"/>
<stop offset="0.04" stop-color="#4BBEEC" stop-opacity="0.99"/>
<stop offset="0.1" stop-color="#4BA5D7" stop-opacity="0.95"/>
<stop offset="0.17" stop-color="#4A7CB4" stop-opacity="0.88"/>
<stop offset="0.26" stop-color="#484385" stop-opacity="0.8"/>
<stop offset="0.35" stop-color="#470652" stop-opacity="0.7"/>
<stop offset="0.42" stop-color="#661867" stop-opacity="0.7"/>
<stop offset="0.55" stop-color="#AF4198" stop-opacity="0.7"/>
<stop offset="0.67" stop-color="#AF4198" stop-opacity="0.69"/>
<stop offset="0.71" stop-color="#AF4198" stop-opacity="0.65"/>
<stop offset="0.74" stop-color="#AF4198" stop-opacity="0.58"/>
<stop offset="0.76" stop-color="#AF4198" stop-opacity="0.49"/>
<stop offset="0.78" stop-color="#AF4198" stop-opacity="0.36"/>
<stop offset="0.8" stop-color="#AF4198" stop-opacity="0.21"/>
<stop offset="0.81" stop-color="#AF4198" stop-opacity="0.03"/>
<stop offset="0.82" stop-color="#AF4198" stop-opacity="0"/>
</linearGradient>
<linearGradient id="paint20_linear_4988_63568" x1="4.62598" y1="10.0103" x2="18.9561" y2="10.0103" gradientUnits="userSpaceOnUse">
<stop stop-color="#4CC8F4"/>
<stop offset="0.04" stop-color="#4BBEEC" stop-opacity="0.99"/>
<stop offset="0.1" stop-color="#4BA5D7" stop-opacity="0.95"/>
<stop offset="0.17" stop-color="#4A7CB4" stop-opacity="0.88"/>
<stop offset="0.26" stop-color="#484385" stop-opacity="0.8"/>
<stop offset="0.35" stop-color="#470652" stop-opacity="0.7"/>
<stop offset="0.42" stop-color="#661867" stop-opacity="0.7"/>
<stop offset="0.55" stop-color="#AF4198" stop-opacity="0.7"/>
<stop offset="0.67" stop-color="#AF4198" stop-opacity="0.69"/>
<stop offset="0.71" stop-color="#AF4198" stop-opacity="0.65"/>
<stop offset="0.74" stop-color="#AF4198" stop-opacity="0.58"/>
<stop offset="0.76" stop-color="#AF4198" stop-opacity="0.49"/>
<stop offset="0.78" stop-color="#AF4198" stop-opacity="0.36"/>
<stop offset="0.8" stop-color="#AF4198" stop-opacity="0.21"/>
<stop offset="0.81" stop-color="#AF4198" stop-opacity="0.03"/>
<stop offset="0.82" stop-color="#AF4198" stop-opacity="0"/>
</linearGradient>
<linearGradient id="paint21_linear_4988_63568" x1="4.90528" y1="10.0112" x2="18.8797" y2="10.0112" gradientUnits="userSpaceOnUse">
<stop stop-color="#4CC8F4"/>
<stop offset="0.04" stop-color="#4BBEEC" stop-opacity="0.99"/>
<stop offset="0.1" stop-color="#4BA5D7" stop-opacity="0.95"/>
<stop offset="0.17" stop-color="#4A7CB4" stop-opacity="0.88"/>
<stop offset="0.26" stop-color="#484385" stop-opacity="0.8"/>
<stop offset="0.35" stop-color="#470652" stop-opacity="0.7"/>
<stop offset="0.42" stop-color="#661867" stop-opacity="0.7"/>
<stop offset="0.55" stop-color="#AF4198" stop-opacity="0.7"/>
<stop offset="0.67" stop-color="#AF4198" stop-opacity="0.69"/>
<stop offset="0.71" stop-color="#AF4198" stop-opacity="0.65"/>
<stop offset="0.74" stop-color="#AF4198" stop-opacity="0.58"/>
<stop offset="0.76" stop-color="#AF4198" stop-opacity="0.49"/>
<stop offset="0.78" stop-color="#AF4198" stop-opacity="0.36"/>
<stop offset="0.8" stop-color="#AF4198" stop-opacity="0.21"/>
<stop offset="0.81" stop-color="#AF4198" stop-opacity="0.03"/>
<stop offset="0.82" stop-color="#AF4198" stop-opacity="0"/>
</linearGradient>
<linearGradient id="paint22_linear_4988_63568" x1="5.17578" y1="10.0152" x2="18.8055" y2="10.0152" gradientUnits="userSpaceOnUse">
<stop stop-color="#4CC8F4"/>
<stop offset="0.04" stop-color="#4BBEEC" stop-opacity="0.99"/>
<stop offset="0.1" stop-color="#4BA5D7" stop-opacity="0.95"/>
<stop offset="0.17" stop-color="#4A7CB4" stop-opacity="0.88"/>
<stop offset="0.26" stop-color="#484385" stop-opacity="0.8"/>
<stop offset="0.35" stop-color="#470652" stop-opacity="0.7"/>
<stop offset="0.42" stop-color="#661867" stop-opacity="0.7"/>
<stop offset="0.55" stop-color="#AF4198" stop-opacity="0.7"/>
<stop offset="0.67" stop-color="#AF4198" stop-opacity="0.69"/>
<stop offset="0.71" stop-color="#AF4198" stop-opacity="0.65"/>
<stop offset="0.74" stop-color="#AF4198" stop-opacity="0.58"/>
<stop offset="0.76" stop-color="#AF4198" stop-opacity="0.49"/>
<stop offset="0.78" stop-color="#AF4198" stop-opacity="0.36"/>
<stop offset="0.8" stop-color="#AF4198" stop-opacity="0.21"/>
<stop offset="0.81" stop-color="#AF4198" stop-opacity="0.03"/>
<stop offset="0.82" stop-color="#AF4198" stop-opacity="0"/>
</linearGradient>
<linearGradient id="paint23_linear_4988_63568" x1="5.44141" y1="10.0161" x2="18.7342" y2="10.0161" gradientUnits="userSpaceOnUse">
<stop stop-color="#4CC8F4"/>
<stop offset="0.04" stop-color="#4BBEEC" stop-opacity="0.99"/>
<stop offset="0.1" stop-color="#4BA5D7" stop-opacity="0.95"/>
<stop offset="0.17" stop-color="#4A7CB4" stop-opacity="0.88"/>
<stop offset="0.26" stop-color="#484385" stop-opacity="0.8"/>
<stop offset="0.35" stop-color="#470652" stop-opacity="0.7"/>
<stop offset="0.42" stop-color="#661867" stop-opacity="0.7"/>
<stop offset="0.55" stop-color="#AF4198" stop-opacity="0.7"/>
<stop offset="0.67" stop-color="#AF4198" stop-opacity="0.69"/>
<stop offset="0.71" stop-color="#AF4198" stop-opacity="0.65"/>
<stop offset="0.74" stop-color="#AF4198" stop-opacity="0.58"/>
<stop offset="0.76" stop-color="#AF4198" stop-opacity="0.49"/>
<stop offset="0.78" stop-color="#AF4198" stop-opacity="0.36"/>
<stop offset="0.8" stop-color="#AF4198" stop-opacity="0.21"/>
<stop offset="0.81" stop-color="#AF4198" stop-opacity="0.03"/>
<stop offset="0.82" stop-color="#AF4198" stop-opacity="0"/>
</linearGradient>
<linearGradient id="paint24_linear_4988_63568" x1="5.70411" y1="10.0182" x2="18.666" y2="10.0182" gradientUnits="userSpaceOnUse">
<stop stop-color="#4CC8F4"/>
<stop offset="0.04" stop-color="#4BBEEC" stop-opacity="0.99"/>
<stop offset="0.1" stop-color="#4BA5D7" stop-opacity="0.95"/>
<stop offset="0.17" stop-color="#4A7CB4" stop-opacity="0.88"/>
<stop offset="0.26" stop-color="#484385" stop-opacity="0.8"/>
<stop offset="0.35" stop-color="#470652" stop-opacity="0.7"/>
<stop offset="0.42" stop-color="#661867" stop-opacity="0.7"/>
<stop offset="0.55" stop-color="#AF4198" stop-opacity="0.7"/>
<stop offset="0.67" stop-color="#AF4198" stop-opacity="0.69"/>
<stop offset="0.71" stop-color="#AF4198" stop-opacity="0.65"/>
<stop offset="0.74" stop-color="#AF4198" stop-opacity="0.58"/>
<stop offset="0.76" stop-color="#AF4198" stop-opacity="0.49"/>
<stop offset="0.78" stop-color="#AF4198" stop-opacity="0.36"/>
<stop offset="0.8" stop-color="#AF4198" stop-opacity="0.21"/>
<stop offset="0.81" stop-color="#AF4198" stop-opacity="0.03"/>
<stop offset="0.82" stop-color="#AF4198" stop-opacity="0"/>
</linearGradient>
<linearGradient id="paint25_linear_4988_63568" x1="5.95898" y1="10.0193" x2="18.5965" y2="10.0193" gradientUnits="userSpaceOnUse">
<stop stop-color="#4CC8F4"/>
<stop offset="0.04" stop-color="#4BBEEC" stop-opacity="0.99"/>
<stop offset="0.1" stop-color="#4BA5D7" stop-opacity="0.95"/>
<stop offset="0.17" stop-color="#4A7CB4" stop-opacity="0.88"/>
<stop offset="0.26" stop-color="#484385" stop-opacity="0.8"/>
<stop offset="0.35" stop-color="#470652" stop-opacity="0.7"/>
<stop offset="0.42" stop-color="#661867" stop-opacity="0.7"/>
<stop offset="0.55" stop-color="#AF4198" stop-opacity="0.7"/>
<stop offset="0.67" stop-color="#AF4198" stop-opacity="0.69"/>
<stop offset="0.71" stop-color="#AF4198" stop-opacity="0.65"/>
<stop offset="0.74" stop-color="#AF4198" stop-opacity="0.58"/>
<stop offset="0.76" stop-color="#AF4198" stop-opacity="0.49"/>
<stop offset="0.78" stop-color="#AF4198" stop-opacity="0.36"/>
<stop offset="0.8" stop-color="#AF4198" stop-opacity="0.21"/>
<stop offset="0.81" stop-color="#AF4198" stop-opacity="0.03"/>
<stop offset="0.82" stop-color="#AF4198" stop-opacity="0"/>
</linearGradient>
<linearGradient id="paint26_linear_4988_63568" x1="6.208" y1="10.0232" x2="18.5292" y2="10.0232" gradientUnits="userSpaceOnUse">
<stop stop-color="#4CC8F4"/>
<stop offset="0.04" stop-color="#4BBEEC" stop-opacity="0.99"/>
<stop offset="0.1" stop-color="#4BA5D7" stop-opacity="0.95"/>
<stop offset="0.17" stop-color="#4A7CB4" stop-opacity="0.88"/>
<stop offset="0.26" stop-color="#484385" stop-opacity="0.8"/>
<stop offset="0.35" stop-color="#470652" stop-opacity="0.7"/>
<stop offset="0.42" stop-color="#661867" stop-opacity="0.7"/>
<stop offset="0.55" stop-color="#AF4198" stop-opacity="0.7"/>
<stop offset="0.67" stop-color="#AF4198" stop-opacity="0.69"/>
<stop offset="0.71" stop-color="#AF4198" stop-opacity="0.65"/>
<stop offset="0.74" stop-color="#AF4198" stop-opacity="0.58"/>
<stop offset="0.76" stop-color="#AF4198" stop-opacity="0.49"/>
<stop offset="0.78" stop-color="#AF4198" stop-opacity="0.36"/>
<stop offset="0.8" stop-color="#AF4198" stop-opacity="0.21"/>
<stop offset="0.81" stop-color="#AF4198" stop-opacity="0.03"/>
<stop offset="0.82" stop-color="#AF4198" stop-opacity="0"/>
</linearGradient>
<linearGradient id="paint27_linear_4988_63568" x1="6.45801" y1="10.0254" x2="18.4717" y2="10.0254" gradientUnits="userSpaceOnUse">
<stop stop-color="#4CC8F4"/>
<stop offset="0.04" stop-color="#4BBEEC" stop-opacity="0.99"/>
<stop offset="0.1" stop-color="#4BA5D7" stop-opacity="0.95"/>
<stop offset="0.17" stop-color="#4A7CB4" stop-opacity="0.88"/>
<stop offset="0.26" stop-color="#484385" stop-opacity="0.8"/>
<stop offset="0.35" stop-color="#470652" stop-opacity="0.7"/>
<stop offset="0.42" stop-color="#661867" stop-opacity="0.7"/>
<stop offset="0.55" stop-color="#AF4198" stop-opacity="0.7"/>
<stop offset="0.67" stop-color="#AF4198" stop-opacity="0.69"/>
<stop offset="0.71" stop-color="#AF4198" stop-opacity="0.65"/>
<stop offset="0.74" stop-color="#AF4198" stop-opacity="0.58"/>
<stop offset="0.76" stop-color="#AF4198" stop-opacity="0.49"/>
<stop offset="0.78" stop-color="#AF4198" stop-opacity="0.36"/>
<stop offset="0.8" stop-color="#AF4198" stop-opacity="0.21"/>
<stop offset="0.81" stop-color="#AF4198" stop-opacity="0.03"/>
<stop offset="0.82" stop-color="#AF4198" stop-opacity="0"/>
</linearGradient>
<linearGradient id="paint28_linear_4988_63568" x1="6.70215" y1="10.0276" x2="18.411" y2="10.0276" gradientUnits="userSpaceOnUse">
<stop stop-color="#4CC8F4"/>
<stop offset="0.04" stop-color="#4BBEEC" stop-opacity="0.99"/>
<stop offset="0.1" stop-color="#4BA5D7" stop-opacity="0.95"/>
<stop offset="0.17" stop-color="#4A7CB4" stop-opacity="0.88"/>
<stop offset="0.26" stop-color="#484385" stop-opacity="0.8"/>
<stop offset="0.35" stop-color="#470652" stop-opacity="0.7"/>
<stop offset="0.42" stop-color="#661867" stop-opacity="0.7"/>
<stop offset="0.55" stop-color="#AF4198" stop-opacity="0.7"/>
<stop offset="0.67" stop-color="#AF4198" stop-opacity="0.69"/>
<stop offset="0.71" stop-color="#AF4198" stop-opacity="0.65"/>
<stop offset="0.74" stop-color="#AF4198" stop-opacity="0.58"/>
<stop offset="0.76" stop-color="#AF4198" stop-opacity="0.49"/>
<stop offset="0.78" stop-color="#AF4198" stop-opacity="0.36"/>
<stop offset="0.8" stop-color="#AF4198" stop-opacity="0.21"/>
<stop offset="0.81" stop-color="#AF4198" stop-opacity="0.03"/>
<stop offset="0.82" stop-color="#AF4198" stop-opacity="0"/>
</linearGradient>
<clipPath id="clip0_4988_63568">
<rect width="20" height="20" fill="white"/>
</clipPath>
</defs>
</svg>
