<svg width="20" height="20" viewBox="0 0 20 20" fill="none" xmlns="http://www.w3.org/2000/svg">
<circle cx="10" cy="10" r="10" fill="#F5F5F5"/>
<path fill-rule="evenodd" clip-rule="evenodd" d="M14.7262 11.0386V11.8204C14.7262 13.9926 11.5351 15.2428 10.557 15.5743L10.2013 15.6958V14.3445L10.3751 14.2797C11.8969 13.714 13.4323 12.7341 13.4323 11.8204V11.0386H14.7262ZM9.89341 4.62805L11.1975 5.0252V6.4039L9.89341 6.0054L9.8081 6.0315V9.13355H11.1975V10.4117H9.8081V15.6769L9.44583 15.5436C9.27765 15.4818 9.00671 15.3766 8.67152 15.2265L8.51408 15.1555V5.04845L9.89341 4.62805ZM8.10473 5.17828V6.55073L6.33782 7.09248V9.13353H8.10473V15.045L7.7134 14.8462C6.49562 14.2271 5.04395 13.1832 5.04395 11.7257V11.0386H6.33782V11.7257C6.33782 12.0273 6.49673 12.3441 6.81071 12.6704V10.4116H5.04395V6.11143L8.10473 5.17828ZM11.5902 5.1456L14.7262 6.10415V10.4117H12.885V12.2768C12.885 12.2768 12.4733 12.8098 11.5914 13.2561C11.5914 13.0094 11.5908 9.21702 11.5905 6.90659L11.5902 5.1456ZM12.885 6.91935V9.13355H13.4323V7.08625L12.885 6.91935Z" fill="#15171A"/>
</svg>
