<svg width="20" height="20" viewBox="0 0 20 20" fill="none" xmlns="http://www.w3.org/2000/svg">
<path fill-rule="evenodd" clip-rule="evenodd" d="M7.24214 12.9146C7.2284 12.9594 7.21471 12.99 7.19573 13.0051C7.21245 12.9642 7.22852 12.9315 7.24214 12.9146Z" fill="url(#paint0_linear_2546_3664)"/>
<path d="M10.0463 0.150166C9.89641 0.322057 9.69363 0.537557 8.44351 1.85315C8.09226 2.22281 7.6904 2.64823 7.43671 2.91864C7.36685 2.99312 7.30822 3.05584 7.26498 3.10239C6.83869 3.56147 6.95099 3.44509 5.95599 4.45895C4.40527 6.03908 3.84975 6.8859 3.51892 8.17385C3.3635 8.77899 3.35976 9.90672 3.51085 10.6238C3.82071 12.0944 4.59638 13.3249 5.81199 14.2743C6.03648 14.4496 6.39424 14.6585 6.35112 14.589C6.52621 14.7023 6.92237 14.9433 7.10624 15C7.06917 14.7208 7.10828 14.4013 7.08785 13.9716C7.06673 13.5272 7.09198 13.217 7.08785 13.3333C7.11048 13.2515 7.15505 13.1045 7.19573 13.0051C7.15135 13.0403 7.07804 12.9909 6.90747 12.842C5.83946 11.9097 5.33312 10.9584 5.25243 9.73253C5.15338 8.22868 5.53088 7.47786 7.2924 5.67487C8.95443 3.97375 9.41351 3.47944 9.39347 3.4128C9.38668 3.39031 9.41193 3.37189 9.44959 3.37189C9.48721 3.37189 9.63549 3.23959 9.77904 3.07789C9.9226 2.91619 10.0565 2.78389 10.0765 2.78389C10.0965 2.78389 10.1559 2.84451 10.2085 2.91864C10.539 3.38463 10.9116 4.40255 11.0361 5.17948C11.1118 5.65218 11.1158 5.7884 11.065 6.17859C11.0326 6.42706 10.9738 6.7216 10.9342 6.83307C10.8386 7.10296 10.4969 7.81125 10.3557 8.03224C10.2032 8.27107 9.81385 8.82942 9.7787 8.85984C9.73301 8.89939 9.27354 9.45132 9.0648 9.71734C8.95911 9.85209 8.84839 9.98439 8.8188 10.0113C8.76258 10.0626 8.36824 10.6273 8.14148 10.9813C7.8267 11.4727 7.40834 12.3721 7.24214 12.9146C7.2284 12.9594 7.21471 12.99 7.19573 13.0051C7.15505 13.1045 7.11048 13.2515 7.08785 13.3333V13.9716C7.10828 14.4013 7.06917 14.7208 7.10624 15C7.13543 15.2199 7.17117 15.4047 7.21565 15.5728C7.31874 15.9623 7.57538 16.7818 7.63008 16.8958C7.95259 17.5688 8.35254 18.2896 8.39739 18.2788C8.42801 18.2714 8.44096 18.2849 8.42614 18.3087C8.39414 18.3603 8.80644 18.9184 9.1773 19.3256C9.32238 19.4849 9.46234 19.6594 9.48834 19.7133C9.51433 19.7672 9.59325 19.8537 9.66375 19.9056L9.79189 20L9.93058 19.8347C10.0348 19.7104 10.0541 19.6584 10.0083 19.6254C9.96627 19.5952 9.97395 19.59 10.0329 19.6088C10.1407 19.6433 10.3899 19.4243 10.338 19.3407C10.3166 19.3062 10.322 19.2944 10.351 19.3122C10.4103 19.3486 10.6275 19.1326 10.5795 19.0849C10.5613 19.0667 10.5739 19.0518 10.6077 19.0518C10.6645 19.0518 11.1945 18.5324 11.7329 17.9493C11.8095 17.8663 12.1147 17.5499 12.5165 17.1363C12.7675 16.878 13.0561 16.5817 13.3502 16.2807C14.7813 14.8162 15.2359 14.3022 15.6711 13.6566C16.4219 12.5426 16.7379 11.1439 16.5276 9.86434C16.4922 9.64874 16.4546 9.41721 16.4441 9.34984C16.3985 9.05672 16.1696 8.40434 15.9622 7.97614C15.5795 7.18617 14.7474 6.24013 14.4823 6.112C14.0382 5.75315 13.0932 5.03546 12.867 5.03546C12.9152 5.43256 12.93 5.83435 12.911 6.24013C12.8829 6.84415 12.8706 6.95513 12.8269 6.99786C12.8177 7.00678 12.7868 7.07267 12.7484 7.16312C13.1066 7.19149 13.7162 7.82028 13.9763 8.13112C14.7086 9.09494 14.9617 10.6582 14.5748 11.8266C14.4815 12.1082 14.3422 12.3878 14.2951 12.3878C14.2731 12.3878 14.255 12.4111 14.255 12.4395C14.255 12.53 13.8566 13.0857 13.521 13.4634C13.3426 13.6642 12.8905 14.1382 12.5165 14.5168C11.7816 15.2609 10.4645 16.6301 10.1221 17.006C10.0836 17.0483 10.0445 17.0881 10.0083 17.1224C9.93486 17.1918 9.87318 17.2388 9.85166 17.2388C9.71805 17.2388 9.12265 15.8498 8.96954 15.1808C8.78586 14.3784 8.81403 13.8727 9.08278 13.1473C9.13166 13.0154 9.60541 12.0576 9.71342 11.8724C9.81105 11.705 10.419 10.8733 10.5215 10.767C10.5585 10.7287 10.7102 10.554 10.8588 10.3788C11.0073 10.2037 11.141 10.0493 11.1558 10.0358C11.1707 10.0224 11.2361 9.93416 11.3012 9.83984C11.3662 9.74551 11.4325 9.65731 11.4484 9.64384C11.5144 9.58778 11.9919 8.80859 12.169 8.46785C12.3672 8.08648 12.4882 7.81674 12.6857 7.31636C12.7073 7.26175 12.7288 7.20924 12.7484 7.16312C12.7868 7.07267 12.8177 7.00678 12.8269 6.99786C12.8706 6.95513 12.8829 6.84415 12.911 6.24013C12.93 5.83435 12.9152 5.43256 12.867 5.03546C12.6676 3.39085 11.8955 1.8268 10.5709 0.393743C10.4782 0.29349 10.3694 0.161779 10.3291 0.101166C10.2336 -0.0427944 10.2111 -0.0388744 10.0463 0.150166Z" fill="url(#paint1_linear_2546_3664)"/>
<path fill-rule="evenodd" clip-rule="evenodd" d="M7.24214 12.9146C7.2284 12.9594 7.21471 12.99 7.19573 13.0051C7.21245 12.9642 7.22852 12.9315 7.24214 12.9146Z" fill="url(#paint2_linear_2546_3664)"/>
<path fill-rule="evenodd" clip-rule="evenodd" d="M7.26498 3.10239C7.30822 3.05584 7.36685 2.99312 7.43671 2.91864C8.75451 2.0922 9.60558 2.51773 10.0765 2.78389C10.0565 2.78389 9.9226 2.91619 9.77904 3.07789C9.63549 3.23959 9.48721 3.37189 9.44959 3.37189C9.41193 3.37189 9.38668 3.39031 9.39347 3.4128C9.41351 3.47944 8.95443 3.97375 7.2924 5.67487C5.53088 7.47786 5.15338 8.22868 5.25243 9.73253C5.31756 10.722 5.65995 11.5325 6.35112 12.2985L5.20841 13.7444C4.33657 12.8821 3.7659 11.8343 3.51085 10.6238C3.35976 9.90672 3.3635 8.77899 3.51892 8.17385C3.84975 6.8859 4.40527 6.03908 5.95599 4.45895L6.15837 4.25275C6.65774 3.744 6.80934 3.58955 6.95786 3.43219C7.0226 3.3636 7.08675 3.29446 7.17887 3.19518C7.20509 3.16692 7.23357 3.13622 7.26498 3.10239Z" fill="url(#paint3_linear_2546_3664)"/>
<path d="M5.81199 14.2743C6.03648 14.4496 6.39424 14.6585 6.35112 14.589C6.52621 14.7023 6.92237 14.9433 7.10624 15C7.08579 14.846 7.08852 14.6797 7.09166 14.4894C7.0942 14.3347 7.09701 14.1643 7.08785 13.9716C7.06673 13.5272 7.09198 13.217 7.08785 13.3333C7.11048 13.2515 7.15505 13.1045 7.19573 13.0051C7.15135 13.0403 7.07804 12.9909 6.90747 12.842C6.70144 12.6622 6.51632 12.4816 6.35112 12.2985L5.20841 13.7444C5.39575 13.9297 5.59699 14.1064 5.81199 14.2743Z" fill="url(#paint4_linear_2546_3664)"/>
<path d="M5.81207 14.2743C6.03656 14.4497 6.39432 14.6585 6.3512 14.589C6.52629 14.7024 6.92245 14.9433 7.10631 15C7.08586 14.846 7.0886 14.6797 7.09173 14.4894C7.09428 14.3348 7.09709 14.1643 7.08793 13.9717C7.06681 13.5273 7.09206 13.2171 7.08793 13.3334C7.11056 13.2516 7.15512 13.1045 7.19581 13.0051C7.15143 13.0404 7.07812 12.991 6.90755 12.8421C6.70152 12.6622 6.5164 12.4817 6.3512 12.2986L5.2085 13.7445C5.39583 13.9297 5.59707 14.1064 5.81207 14.2743Z" fill="url(#paint5_linear_2546_3664)"/>
<path fill-rule="evenodd" clip-rule="evenodd" d="M7.24214 12.9146C7.2284 12.9594 7.21471 12.99 7.19573 13.0051C7.21245 12.9642 7.22852 12.9315 7.24214 12.9146Z" fill="url(#paint6_linear_2546_3664)"/>
<path fill-rule="evenodd" clip-rule="evenodd" d="M15.6711 13.6566C15.2359 14.3022 14.7813 14.8162 13.3502 16.2807C13.0561 16.5817 12.7675 16.878 12.5165 17.1363C11.1857 17.8808 10.2898 17.4372 10.0083 17.1224C10.0445 17.0881 10.0836 17.0483 10.1221 17.006C10.4645 16.6301 11.7816 15.2609 12.5165 14.5168C12.8905 14.1382 13.3426 13.6642 13.521 13.4634C13.8566 13.0857 14.255 12.53 14.255 12.4395C14.255 12.4111 14.2731 12.3878 14.2951 12.3878C14.3422 12.3878 14.4815 12.1082 14.5748 11.8266C14.9617 10.6582 14.7086 9.09494 13.9763 8.13112C13.9343 8.08091 13.8832 8.02239 13.8254 7.95946L14.4823 6.112C14.7474 6.24013 15.5795 7.18617 15.9622 7.97614C16.1696 8.40434 16.3985 9.05672 16.4441 9.34984C16.4546 9.41721 16.4922 9.64874 16.5276 9.86434C16.7379 11.1439 16.4219 12.5426 15.6711 13.6566Z" fill="url(#paint7_linear_2546_3664)"/>
<path d="M12.911 6.24013C12.8829 6.84415 12.8706 6.95513 12.8269 6.99786C12.8177 7.00678 12.7868 7.07267 12.7484 7.16312C13.0487 7.18691 13.5258 7.63279 13.8254 7.95946L14.4823 6.112C14.0382 5.75315 13.0932 5.03546 12.867 5.03546C12.9152 5.43256 12.93 5.83435 12.911 6.24013Z" fill="url(#paint8_linear_2546_3664)"/>
<path d="M12.9112 6.24007C12.883 6.84409 12.8707 6.95507 12.827 6.9978C12.8179 7.00672 12.7869 7.07261 12.7485 7.16306C13.0489 7.18685 13.526 7.63273 13.8256 7.9594L14.4825 6.11194C14.0383 5.75309 13.0934 5.0354 12.8672 5.0354C12.9154 5.4325 12.9301 5.83429 12.9112 6.24007Z" fill="url(#paint9_linear_2546_3664)"/>
<defs>
<linearGradient id="paint0_linear_2546_3664" x1="9.99565" y1="0" x2="9.99565" y2="20" gradientUnits="userSpaceOnUse">
<stop stop-color="#54DEF4"/>
<stop offset="1" stop-color="#A56CFA"/>
</linearGradient>
<linearGradient id="paint1_linear_2546_3664" x1="9.99565" y1="0" x2="9.99565" y2="20" gradientUnits="userSpaceOnUse">
<stop stop-color="#54DEF4"/>
<stop offset="1" stop-color="#A56CFA"/>
</linearGradient>
<linearGradient id="paint2_linear_2546_3664" x1="9.28643" y1="2.51773" x2="6.91054" y2="13.9716" gradientUnits="userSpaceOnUse">
<stop stop-color="#A56CFA"/>
<stop offset="1" stop-color="#54DEF4"/>
</linearGradient>
<linearGradient id="paint3_linear_2546_3664" x1="9.28643" y1="2.51773" x2="6.91054" y2="13.9716" gradientUnits="userSpaceOnUse">
<stop stop-color="#A56CFA"/>
<stop offset="1" stop-color="#54DEF4"/>
</linearGradient>
<linearGradient id="paint4_linear_2546_3664" x1="9.28643" y1="2.51773" x2="6.91054" y2="13.9716" gradientUnits="userSpaceOnUse">
<stop stop-color="#A56CFA"/>
<stop offset="1" stop-color="#54DEF4"/>
</linearGradient>
<linearGradient id="paint5_linear_2546_3664" x1="5.66949" y1="13.1561" x2="7.12339" y2="14.149" gradientUnits="userSpaceOnUse">
<stop stop-color="#58DAF5" stop-opacity="0"/>
<stop offset="1" stop-color="#507AE0"/>
</linearGradient>
<linearGradient id="paint6_linear_2546_3664" x1="9.28643" y1="2.51773" x2="6.91054" y2="13.9716" gradientUnits="userSpaceOnUse">
<stop stop-color="#A56CFA"/>
<stop offset="1" stop-color="#54DEF4"/>
</linearGradient>
<linearGradient id="paint7_linear_2546_3664" x1="9.28643" y1="2.51773" x2="6.91054" y2="13.9716" gradientUnits="userSpaceOnUse">
<stop stop-color="#A56CFA"/>
<stop offset="1" stop-color="#54DEF4"/>
</linearGradient>
<linearGradient id="paint8_linear_2546_3664" x1="9.28643" y1="2.51773" x2="6.91054" y2="13.9716" gradientUnits="userSpaceOnUse">
<stop stop-color="#A56CFA"/>
<stop offset="1" stop-color="#54DEF4"/>
</linearGradient>
<linearGradient id="paint9_linear_2546_3664" x1="12.9391" y1="6.09923" x2="14.1802" y2="7.02122" gradientUnits="userSpaceOnUse">
<stop stop-color="#5658C9"/>
<stop offset="1" stop-color="#8E8DF9" stop-opacity="0"/>
</linearGradient>
</defs>
</svg>
