<svg width="20" height="20" viewBox="0 0 20 20" fill="none" xmlns="http://www.w3.org/2000/svg">
<circle cx="10" cy="10" r="10" fill="url(#paint0_linear_3792_22531)"/>
<path fill-rule="evenodd" clip-rule="evenodd" d="M10 19.0625C15.0051 19.0625 19.0625 15.0051 19.0625 10C19.0625 4.99492 15.0051 0.9375 10 0.9375C4.99492 0.9375 0.9375 4.99492 0.9375 10C0.9375 15.0051 4.99492 19.0625 10 19.0625ZM10 18.4375C14.6599 18.4375 18.4375 14.6599 18.4375 10C18.4375 5.3401 14.6599 1.5625 10 1.5625C5.3401 1.5625 1.5625 5.3401 1.5625 10C1.5625 14.6599 5.3401 18.4375 10 18.4375Z" fill="white"/>
<path fill-rule="evenodd" clip-rule="evenodd" d="M9.18861 3.79508C7.72466 4.06565 6.55225 5.27461 6.29614 6.77769C6.25879 6.99683 6.25 7.32817 6.25 8.51498V9.98146L7.03236 10.7842L7.81473 11.587L7.83279 11.9752C7.84685 12.2778 7.86784 12.4145 7.92789 12.5951C8.24274 13.5419 9.14906 14.1279 10.0938 13.9955C10.563 13.9298 10.9297 13.7467 11.2584 13.4142C11.4859 13.1841 11.6438 12.9252 11.7581 12.5951L11.8383 12.3634V11.1664V9.96932L11.041 9.15291L10.2438 8.33647V7.88373C10.2438 7.36871 10.216 7.26746 10.045 7.1593C9.96406 7.10811 9.91012 7.09722 9.79382 7.10866C9.62686 7.1251 9.51637 7.20826 9.45012 7.36743C9.39999 7.48782 9.39224 8.51492 9.44046 8.64758C9.45763 8.6948 9.82046 9.09117 10.2468 9.52838L11.0218 10.3233L11.0128 11.2976L11.0038 12.2719L10.9162 12.4549C10.554 13.2118 9.5826 13.3833 9.00517 12.7922C8.92225 12.7074 8.81499 12.5556 8.76682 12.4549C8.68403 12.2819 8.67822 12.2444 8.66075 11.7686C8.65062 11.4918 8.64051 11.259 8.63831 11.2513C8.63613 11.2436 8.27779 10.8715 7.842 10.4244L7.04965 9.61138L7.06327 8.31832C7.07433 7.27192 7.08607 6.98607 7.12487 6.81985C7.38218 5.71753 8.20465 4.88172 9.26789 4.64208C9.59222 4.569 10.1353 4.57592 10.4636 4.65731C11.0878 4.81205 11.6544 5.19027 12.0337 5.70545C12.3407 6.12247 12.4971 6.50401 12.5825 7.04479C12.6304 7.34775 12.6783 7.44155 12.8207 7.51067C13.0642 7.62894 13.3312 7.51046 13.4036 7.25203C13.4238 7.17983 13.4183 7.0608 13.3846 6.84407C13.1419 5.28136 11.9774 4.06221 10.4707 3.79328C10.1433 3.73484 9.50967 3.73572 9.18861 3.79508ZM9.54001 5.48286C8.7969 5.60357 8.16627 6.14455 7.92744 6.86615L7.84453 7.11674V8.32903V9.54132L8.62689 10.3425L9.40925 11.1437V11.6041C9.40925 12.0321 9.41402 12.0719 9.47691 12.1683C9.66846 12.4617 10.0698 12.4258 10.1957 12.1039C10.2332 12.0078 10.2438 11.869 10.2438 11.4704C10.2438 11.1896 10.2304 10.912 10.214 10.8535C10.1916 10.7738 9.99363 10.552 9.42296 9.96764L8.66176 9.18814L8.67041 8.1982L8.67905 7.20826L8.75892 7.03383C9.12582 6.23271 10.1188 6.06588 10.7047 6.70692C10.9338 6.95761 10.997 7.13804 11.0191 7.60481C11.0322 7.88035 11.0526 8.02927 11.0859 8.09287C11.1123 8.1432 11.4701 8.52746 11.881 8.94673L12.6281 9.70912V10.9331C12.6281 12.2478 12.6111 12.4571 12.4693 12.8826C12.1423 13.8637 11.2949 14.5938 10.2907 14.7596C9.97923 14.811 9.42669 14.7813 9.14301 14.6978C8.48711 14.5049 7.9067 14.0779 7.54598 13.5231C7.28343 13.1192 7.14779 12.7403 7.08828 12.2442C7.05588 11.9744 7.0016 11.8738 6.84397 11.7915C6.55964 11.6431 6.25 11.8475 6.25 12.1835C6.25 12.3875 6.33548 12.8305 6.43139 13.1234C6.84042 14.373 7.86974 15.2924 9.17082 15.5704C9.48073 15.6366 10.1298 15.644 10.4524 15.585C11.9522 15.3106 13.1264 14.1084 13.3867 12.5804C13.4524 12.1949 13.4553 9.42949 13.3901 9.30387C13.3666 9.25857 13.0112 8.87844 12.6003 8.45916L11.8532 7.69678V7.48026C11.8532 6.63295 11.2619 5.82597 10.4474 5.56156C10.193 5.47896 9.78288 5.44339 9.54001 5.48286Z" fill="white"/>
<defs>
<linearGradient id="paint0_linear_3792_22531" x1="20" y1="9.6875" x2="3.49246e-08" y2="9.375" gradientUnits="userSpaceOnUse">
<stop stop-color="#E97D4D"/>
<stop offset="0.564827" stop-color="#8D375A"/>
<stop offset="1" stop-color="#421E5E"/>
</linearGradient>
</defs>
</svg>
