<svg width="20" height="20" viewBox="0 0 20 20" fill="none" xmlns="http://www.w3.org/2000/svg">
<g clip-path="url(#clip0_4441_57710)">
<path d="M12.6617 2.54287C12.6539 2.5375 12.6462 2.53213 12.6384 2.52675C12.6463 2.54031 12.6542 2.55387 12.6621 2.56743C12.662 2.55924 12.6618 2.55106 12.6617 2.54287ZM18.3481 15.4932H18.3481C18.3254 15.7539 18.3224 16.017 18.3206 16.2778C18.3172 16.2771 18.3105 16.2777 18.3073 16.2792C18.2735 16.4742 18.2115 16.6547 18.101 16.82C18.101 16.8201 18.101 16.8201 18.101 16.8201C18.0206 16.9439 17.9474 17.0727 17.8509 17.1851C17.6726 17.3346 17.5205 17.5468 17.2734 17.575V17.5751C16.9444 17.74 16.58 17.713 16.2295 17.659C15.6663 18.3223 14.7083 18.0298 14.0985 18.5875C12.5714 20.2955 13.5857 19.5776 11.4946 19.8341C10.4487 19.9057 10.6981 18.9349 10.0006 19.8662C9.27888 18.8656 9.51842 20.1486 8.04516 19.7622C7.65372 19.6967 7.13494 19.9555 6.82129 19.6553C6.33784 19.0586 5.87233 18.3263 5.06125 18.1937C4.74284 18.1869 4.43849 18.1169 4.16251 17.9579C3.58821 17.4248 3.59072 17.832 2.95075 17.6457C0.80109 17.0134 1.89457 14.2379 2.07028 12.6654C2.57109 12.2197 2.24452 11.5442 2.53291 11.0163C2.85946 10.1164 3.33773 10.3293 2.38281 9.62632C2.83897 9.10371 3.31577 8.62765 3.85355 8.19332C4.00909 7.99655 4.67998 7.73036 4.45669 7.45299C4.187 6.82217 3.97414 7.27447 3.34306 7.21319C3.30511 7.17111 3.26845 7.35461 3.23117 7.31328C3.20813 6.97076 3.8227 6.59231 3.72484 6.4315C3.06005 5.48742 2.44293 4.49879 1.74578 3.57292C1.89476 3.09899 2.28345 2.69253 2.79936 2.71192C3.44229 3.51658 4.1246 4.36652 4.74233 5.19008C4.74233 5.19008 4.95295 5.51048 4.99301 5.54747C5.08099 5.50629 5.30614 5.46046 5.36574 5.38087C5.5294 5.33064 5.5588 5.3401 5.73257 5.35986C5.76093 5.40213 5.24303 6.03787 5.70347 6.47615C5.77948 6.41096 5.88388 6.40603 5.97215 6.37045C6.02786 6.3825 6.05907 6.44421 6.07588 6.49535C6.07588 6.49535 6.24923 6.54801 6.32391 6.59545C6.33458 6.59491 6.34526 6.59437 6.3559 6.59384C6.41435 6.55039 6.47324 6.50744 6.5306 6.46253C6.52256 6.32712 6.53951 6.18179 6.5185 6.04598C6.52731 6.04927 6.53337 6.053 6.53816 6.05693C6.53337 6.053 6.52731 6.04927 6.5185 6.04597C6.51894 5.96802 6.51827 5.89006 6.51947 5.81212C6.52133 5.81278 6.5232 5.81344 6.52522 5.81416C6.52319 5.81344 6.52133 5.81278 6.51946 5.81212C6.51891 5.70215 6.52101 5.59213 6.51857 5.48218C6.52716 5.49002 6.53576 5.49787 6.54436 5.50572C6.53576 5.49787 6.52716 5.49002 6.51857 5.48218C6.51913 5.38589 6.51971 5.2896 6.52025 5.19331C6.53606 5.20204 6.54602 5.21073 6.55001 5.21939C6.54602 5.21073 6.53606 5.20203 6.52025 5.19331C6.49616 4.56885 6.75722 4.75123 6.79231 4.4087V4.40869C6.78522 4.25283 6.79397 4.09648 6.79338 3.94047C6.79957 3.93657 6.80576 3.93264 6.81196 3.92872C6.81475 3.91461 6.81754 3.9005 6.82034 3.88639C6.94384 3.77511 7.01377 3.64635 7.05486 3.48785C7.0531 3.47341 7.05135 3.45897 7.0496 3.44453L7.05294 3.44349L7.05465 3.44655C7.05411 3.43266 7.05357 3.41877 7.05303 3.40488C7.09478 3.35865 7.07181 3.29624 7.08014 3.23916C7.14452 3.15336 7.16627 3.04116 7.16457 2.93722C7.17345 2.93153 7.18233 2.92584 7.1912 2.92014C7.38671 2.35893 7.69058 1.80222 8.06005 1.32935C8.0898 1.28406 8.12002 1.23904 8.14947 1.19357C8.15655 1.19325 8.16365 1.19291 8.17074 1.19257C8.19715 1.15877 8.22355 1.12498 8.24996 1.09116C8.25321 1.09941 8.25652 1.10779 8.25992 1.11642C8.25652 1.10779 8.25321 1.0994 8.24995 1.09114C8.31155 1.02463 8.37175 0.956941 8.42959 0.887131V0.887121C8.50776 0.809551 8.58724 0.733281 8.66361 0.653931C8.83342 0.514941 9.01346 0.390011 9.18604 0.254761C9.20535 0.247501 9.22363 0.238311 9.24105 0.227281C9.55029 0.0557206 9.86893 -0.00446941 10.2195 0.0219506C10.2186 0.0259606 10.2188 0.0299006 10.2202 0.0337606C10.2148 0.0387006 10.2094 0.0436606 10.2004 0.0518106C10.2094 0.0436606 10.2148 0.0387106 10.2202 0.0337606C11.4427 0.348641 12.2626 1.59203 12.7082 2.71309C12.7083 2.70924 12.7086 2.70523 12.709 2.70112C12.7236 2.72001 12.7383 2.73889 12.7529 2.75777H12.7529C12.8608 3.05723 12.9673 3.36872 12.9864 3.68656C13.0628 3.75134 13.1361 3.81765 13.1768 3.91123C13.1742 3.9241 13.1717 3.93698 13.1678 3.95628C13.1717 3.93698 13.1743 3.9241 13.1768 3.91122C13.1794 3.91218 13.1845 3.91278 13.1872 3.9124C13.2 4.08271 13.2157 4.25236 13.2105 4.42522C13.2064 4.42906 13.2023 4.43293 13.1982 4.43679C13.1905 4.46439 13.1827 4.492 13.1749 4.51961C13.1827 4.492 13.1905 4.4644 13.1983 4.43679C13.2086 4.45452 13.219 4.47225 13.2294 4.48998L13.2291 4.5201C13.2291 4.5201 13.2334 4.5191 13.2334 4.51908C13.2656 4.64211 13.4116 4.69331 13.4529 4.80897C13.4498 4.81301 13.4466 4.81748 13.4436 4.82203C13.451 4.83195 13.4584 4.84187 13.4658 4.85179C13.4675 4.98785 13.4563 5.13066 13.4779 5.26239C13.4752 5.26159 13.4722 5.26072 13.4692 5.25985C13.4722 5.26072 13.4752 5.2616 13.4779 5.26239C13.4806 5.32142 13.482 5.3805 13.4834 5.43958C13.4862 5.43999 13.4891 5.44053 13.4919 5.43993C13.4908 5.45409 13.4896 5.46826 13.4885 5.48243C13.487 5.475 13.4855 5.46756 13.484 5.46013C13.4894 5.71056 13.4857 5.96133 13.4917 6.21223C13.4887 6.21164 13.4828 6.21189 13.4799 6.21276C13.4799 6.21276 13.4799 6.21276 13.4799 6.21277C13.4513 6.37688 13.4644 6.52209 13.6286 6.60161C13.7818 6.62508 14.0035 6.33318 14.0127 6.33227C14.0926 6.38055 14.1405 6.4732 14.2398 6.41466C14.2398 6.41466 14.3837 6.44166 14.3837 6.44166C14.7269 6.11733 14.6845 5.607 14.9452 5.59895C15.0029 5.48537 15.1371 5.38065 15.2273 5.29908C15.2811 5.31105 15.4095 5.09461 15.4764 5.00411C15.4764 5.00411 16.6454 3.53654 16.6731 3.50629C16.6731 3.50627 17.1198 2.79896 17.1689 2.73115C17.2248 2.73471 17.2186 2.68941 17.2746 2.69034C17.2876 2.69963 17.3007 2.70893 17.3138 2.71823C17.3369 2.71906 17.36 2.71989 17.383 2.72073C17.3784 2.72815 17.3739 2.73426 17.3694 2.73899C17.3739 2.73426 17.3784 2.72814 17.383 2.72073C17.4665 2.7516 17.5544 2.76939 17.6298 2.81865C17.6313 2.82868 17.6313 2.82867 17.6298 2.81864C17.6385 2.81663 17.6472 2.81463 17.6559 2.81263C17.8943 3.01354 18.2236 3.23367 18.2767 3.57243C18.2548 3.59531 18.2329 3.61818 18.2111 3.64107H18.2111C18.1614 3.71032 18.0452 3.83835 18.0389 3.8345C18.0452 3.83836 18.0529 3.84304 18.0605 3.84771C18.0053 3.96876 17.7617 4.13115 17.7617 4.13117C17.6067 4.40593 17.1292 5.11443 17.1292 5.11443C17.0739 5.19655 16.961 5.27221 16.9074 5.35544C16.8223 5.6102 16.0516 6.46552 16.3279 6.60793C16.3206 6.62069 16.3206 6.62069 16.3279 6.60793C16.8463 7.06947 16.9881 7.53817 16.079 7.11112C16.0117 7.13923 15.8144 7.06863 15.7587 7.04836L15.7325 7.16923C15.6652 7.18954 15.6427 7.23373 15.6353 7.30024C15.6317 7.29858 15.628 7.29801 15.6241 7.29857C15.6109 7.32147 15.5977 7.34438 15.5845 7.36728C15.5835 7.36699 15.5821 7.3668 15.5808 7.36655C15.5821 7.36681 15.5835 7.367 15.5845 7.36729C15.5696 7.39439 15.5536 7.42093 15.5416 7.44955C15.5395 7.44667 15.5373 7.44379 15.5349 7.44045C15.5373 7.44379 15.5394 7.44667 15.5416 7.44956C15.4229 7.62324 15.5355 7.678 15.6513 7.78938C15.6513 7.78938 15.6513 7.78938 15.6513 7.78937C15.7201 7.84106 15.7933 7.88719 15.8551 7.94748C15.8522 7.94966 15.8493 7.95185 15.8461 7.95424C15.8493 7.95185 15.8522 7.94966 15.8551 7.94748C15.9206 7.99945 15.9929 8.04206 16.0597 8.09222C16.0612 8.10139 16.0627 8.11058 16.0642 8.11977C16.2084 8.24711 16.3539 8.37292 16.4941 8.5047C16.4941 8.53245 16.4941 8.56021 16.4941 8.59587V8.50469C16.606 8.59899 16.7145 8.69684 16.8172 8.80122V8.80123C16.9126 8.89637 17.0086 8.99085 17.1043 9.08564C17.1043 9.08564 17.1043 9.08564 17.1043 9.08564C17.1499 9.13995 17.2042 9.18653 17.2535 9.23749H17.2535C17.3721 9.36935 17.4827 9.49442 17.6274 9.6018C17.5389 9.70786 17.4521 9.76934 17.3589 9.82331C17.3589 9.82333 17.3589 9.82336 17.3589 9.82338C17.2516 9.9201 17.1386 10.0101 17.0294 10.1046H17.0294C17.0275 10.1131 17.0257 10.1216 17.0238 10.1302C17.1686 10.5705 17.5424 10.9482 17.5895 11.4366C17.5953 11.4961 17.6073 11.5553 17.6059 11.6152C17.6059 11.6152 17.6059 11.6152 17.606 11.6152C17.6064 11.6473 17.6069 11.6794 17.6073 11.7115C17.6114 11.7157 17.6156 11.72 17.6197 11.7243C17.6197 11.8074 17.6197 11.8906 17.6197 11.9738C17.6163 11.9731 17.6107 11.9741 17.6078 11.9762C17.6118 12.0465 17.6158 12.1168 17.6197 12.1871C17.6988 12.3058 17.7583 12.4306 17.837 12.5503C17.8276 12.5443 17.8177 12.5389 17.8082 12.533C17.8494 12.5514 17.8656 12.5965 17.8925 12.6303C17.8807 12.6505 17.8689 12.6708 17.8573 12.6907C17.8689 12.6708 17.8807 12.6505 17.8925 12.6303C17.9685 12.7049 17.9937 12.8179 17.9874 12.9217C17.9515 12.9054 17.9185 12.8816 17.8904 12.8523C17.9185 12.8816 17.9515 12.9054 17.9874 12.9217C17.9909 13.0167 18.0018 13.1145 18.0152 13.2105C18.0217 13.2153 18.0282 13.2202 18.0347 13.2251C18.0295 13.4724 18.0901 13.709 18.1186 13.9505L18.1186 13.9505C18.1264 13.9553 18.1342 13.96 18.142 13.9647C18.131 14.1487 18.2253 14.324 18.2074 14.5031C18.2263 14.5811 18.2465 14.6589 18.2659 14.7368C18.2659 14.7368 18.2659 14.7368 18.2659 14.7368C18.2831 14.8788 18.3138 15.0184 18.3408 15.1587C18.3481 15.1644 18.3553 15.1701 18.3626 15.1758C18.3531 15.2797 18.3825 15.3959 18.3481 15.4932L18.3481 15.4932ZM14.2625 6.4213C14.2812 6.42904 14.2884 6.43974 14.2892 6.45202C14.2884 6.43974 14.2812 6.42905 14.2625 6.4213ZM13.4327 4.84015C13.4355 4.83436 13.4387 4.82848 13.4433 4.82228C13.4394 4.82809 13.4357 4.8341 13.4327 4.84015ZM14.4149 17.9848C14.4149 17.9848 14.4143 17.9841 14.4137 17.9834L14.4149 17.9848Z" fill="#456CA3"/>
<path d="M9.93259 0.0216064L10.0353 0.208656L9.59408 0.752736L8.71559 2.79825L8.28372 7.57028L10.0128 11.3021L9.55606 13.2421L8.92351 13.3462L9.74211 15.7726L10.0121 19.1791L6.57604 19.1363L5.25969 18.1796C5.25969 18.1796 1.51088 17.7668 1.89705 15.1335C2.26398 12.6315 3.19709 10.2243 3.19709 10.2243L2.86367 9.55743L4.75641 7.57028L5.58866 6.83905L5.15175 6.32654L5.5008 5.91169L4.65452 6.00694L2.55151 2.8715L2.7477 2.71732L4.93845 5.71223L5.55495 5.38324L5.74093 5.45833L5.72517 5.71223L5.38769 6.2444L5.8769 6.63689L6.61787 6.76213L6.68093 5.23808L7.70106 1.80973L8.89678 0.604876L9.93259 0.0216064Z" fill="#FC6772"/>
<path d="M10.2805 12.7528C10.2896 12.9186 10.2757 13.1052 10.1513 13.2285C10.1317 13.2285 10.1121 13.2285 10.0897 13.2285C10.155 12.905 10.2574 12.5735 10.0615 12.2723C10.0831 12.2618 10.0965 12.2553 10.11 12.2488C10.2356 12.3795 10.2597 12.578 10.2805 12.7528V12.7528Z" fill="#D7F5EB"/>
<path d="M14.42 7.16474C14.4001 7.20214 14.3805 7.2395 14.3532 7.27217L14.3507 7.26815L14.3459 7.26849C14.2051 7.18879 14.2887 6.98673 14.1261 6.91912C14.0845 6.89707 14.056 6.85019 14.0215 6.81454C14.041 6.79233 14.0606 6.77013 14.0802 6.74792C14.2189 6.82385 14.3428 6.93219 14.4724 7.02444C14.475 7.04341 14.4776 7.06239 14.4801 7.08136C14.4604 7.10941 14.4413 7.13784 14.42 7.16474V7.16474Z" fill="#D7F5EB"/>
<path d="M11.1794 6.39489C11.1647 6.3997 11.1499 6.4045 11.1223 6.41353C11.2492 6.1153 11.295 5.80849 11.3083 5.5001C10.9626 5.57821 10.6469 5.4435 10.499 5.12105C10.7846 5.30025 11.1192 5.53258 11.4062 5.19836C11.4498 5.15776 11.4917 5.12023 11.5543 5.1189C11.5646 5.58039 11.4274 6.00825 11.1794 6.3949V6.39489Z" fill="#D7F5EB"/>
<path d="M11.2765 4.08305C11.2676 4.06307 11.2568 4.04414 11.2456 4.02538C11.2485 4.00625 11.2483 3.97179 11.2549 3.97046C11.531 3.8794 11.6158 4.23159 11.6992 4.42169C11.7271 4.77003 11.3595 5.11518 11.0171 5.13321C11.014 5.12259 11.0108 5.11197 11.0068 5.09823C11.4303 4.97471 11.6201 4.38621 11.2765 4.08305V4.08305Z" fill="#D7F5EB"/>
<path d="M12.099 10.7331C12.1204 10.7795 12.1349 10.8414 12.1467 10.8727C12.0539 11.0174 12.024 11.1169 11.8881 11.2141C11.7733 10.851 11.8791 10.5961 11.6201 10.2472C11.6497 10.206 11.6783 10.1662 11.7185 10.1102C11.8648 10.3195 11.9433 10.5396 12.099 10.7331H12.099Z" fill="#D7F5EB"/>
<path d="M10.4635 12.1106C10.5204 12.0697 10.5597 12.0188 10.5572 11.9444C10.5753 11.9363 10.5934 11.9282 10.6115 11.92C10.7813 12.3064 10.7463 12.8275 10.4166 13.1179C10.4099 13.1154 10.4032 13.1129 10.3965 13.1104C10.4055 13.0277 10.4148 12.9415 10.4168 12.8606L10.4234 12.8595C10.4963 12.6269 10.4413 12.3566 10.4635 12.1106Z" fill="#D7F5EB"/>
<path d="M12.7793 9.94897C12.7595 9.96677 12.7397 9.98458 12.7018 10.0186C12.642 9.88345 12.6771 9.759 12.656 9.62293C12.6491 9.42617 12.3831 9.23074 12.5116 9.04756C12.5294 9.03909 12.5472 9.03061 12.5663 9.02148C12.7177 9.19542 12.9324 9.38115 12.9877 9.60398C12.9248 9.72255 12.8489 9.83402 12.7793 9.94897Z" fill="#D7F5EB"/>
<path d="M13.5608 8.62607C13.5068 8.70857 13.4725 8.76599 13.4099 8.85041C13.3489 8.72925 13.3741 8.6195 13.3553 8.49317C13.3296 8.28939 13.0479 8.16982 13.2274 7.95901C13.2274 7.95903 13.2304 7.95351 13.2304 7.95354C13.2493 7.95225 13.2682 7.95093 13.2806 7.95007C13.3688 8.01155 13.4281 8.08412 13.4901 8.16862C13.4945 8.16951 13.4989 8.1704 13.5033 8.17129C13.5499 8.24918 13.6175 8.31067 13.664 8.38903C13.6615 8.47866 13.6007 8.54917 13.5608 8.62607H13.5608Z" fill="#D7F5EB"/>
<path d="M11.1809 11.1545C11.2238 11.3652 11.6402 11.7242 11.3691 11.8681C11.3439 11.6588 10.8245 11.0407 11.0324 10.9387C11.0484 10.9482 11.0655 10.9583 11.0825 10.9684C11.0825 10.9684 11.0845 10.9717 11.0844 10.9717C11.1169 11.0324 11.1475 11.0943 11.1809 11.1545V11.1545Z" fill="#D7F5EB"/>
<path d="M10.2765 12.0423C10.25 11.8786 10.2876 11.7082 10.1381 11.5882C10.1099 11.563 10.0742 11.5387 10.0952 11.4907C10.2625 11.5068 10.3833 11.6022 10.4973 11.7323C10.5268 11.9033 10.4745 12.0341 10.2765 12.0423Z" fill="#D7F5EB"/>
<path d="M15.6411 17.9188C15.357 17.9427 15.2194 17.9423 14.9456 18.0286C14.9424 18.0232 14.6311 18.0176 14.6279 18.0122C16.368 17.5548 16.2782 16.3374 17.4025 15.3937C17.4087 15.401 17.2204 15.7649 17.2266 15.7722C16.8375 16.1739 16.8719 16.8785 16.2692 17.1977C16.2636 17.207 15.6703 17.9155 15.6411 17.9188V17.9188Z" fill="#D7F5EB"/>
<path d="M17.8912 14.0746C17.8884 14.0744 17.7459 13.0179 17.6612 12.7609C17.6296 12.775 16.8898 9.94174 17.0341 9.8176C16.9821 9.56433 15.0475 7.86896 14.6511 7.75598C14.557 7.91595 14.3278 8.15706 14.2207 8.33924C15.0217 8.5827 15.7637 9.12444 16.3497 9.70013C14.9441 10.8251 13.4414 11.9916 12.5688 13.5951C12.5758 13.5997 12.3115 14.1485 12.643 13.7542C12.9087 13.5043 13.2803 13.4191 13.6247 13.2886C13.5152 14.1114 13.3668 14.9013 13.1011 15.6876C13.1292 15.6821 13.3059 15.454 13.3235 15.4505C13.6633 14.7014 13.7552 13.974 13.9035 13.1639C14.2542 12.9931 15.1025 11.7408 16.3381 10.4888C16.3009 11.1023 16.3166 11.8755 16.2357 12.1022C16.2057 12.2032 16.2092 12.5396 16.235 12.5486C16.2534 12.4473 16.2843 12.361 16.3392 12.2757C16.3352 12.2639 16.3312 12.2521 16.3272 12.2404C16.3405 12.2063 16.341 12.165 16.3662 12.1375C16.3636 12.1258 16.3794 12.0299 16.4036 12.0017C16.4004 11.9897 16.3972 11.9778 16.394 11.9658C16.4099 11.914 16.4258 11.8623 16.4418 11.8105C16.445 11.8123 16.5371 11.4547 16.541 11.4554C16.5379 11.4428 16.5348 11.4303 16.5318 11.4177C16.538 11.3988 16.6205 11.2728 16.7108 11.1322C17.0875 11.9832 16.7499 12.8574 16.5467 13.6885C16.5678 13.6693 16.6041 13.6583 16.6502 13.6526C16.2232 14.2373 15.916 14.9674 15.7694 15.5461C15.7758 15.5515 15.7821 15.5568 15.7885 15.5622C16.0967 15.3081 16.1793 14.861 16.4517 14.5619C16.7184 14.1973 17.0916 13.9569 17.4707 13.7169C17.405 15.0832 18.0853 15.5093 17.5106 16.9772C18.5734 16.4937 18.0073 14.7638 17.8912 14.0746L17.8912 14.0746Z" fill="#D7F5EB"/>
<path d="M13.4998 6.9673C13.508 6.94507 13.5154 6.92795 13.5216 6.91938C13.2954 6.71399 13.0139 6.71368 12.7611 6.80243C13.5009 6.18281 13.2205 5.71425 13.21 4.88291C13.2107 4.88346 13.2115 4.88433 13.2122 4.88481C13.2091 4.87042 13.212 4.85294 13.2122 4.83823C13.1335 4.61201 12.9356 3.83375 12.92 3.75075C12.4429 2.36522 11.6383 0.815323 10.2165 0.185913C10.2052 0.191943 10.1706 0.282583 10.1602 0.288153C10.1871 0.315963 10.2142 0.343913 10.2413 0.371853C11.2184 0.916263 11.7008 1.8973 12.1575 2.87267C12.0983 2.85095 12.0478 2.82819 12.0385 2.80941C12.0322 2.80662 11.9281 2.67744 11.8944 2.65179C11.8928 2.6544 11.8883 2.66203 11.8837 2.66968C12.1166 3.09919 12.2815 3.58805 12.5482 4.00724C12.505 3.96302 11.7539 3.24363 11.1844 2.68987C11.1773 2.69539 11.1702 2.70091 11.1631 2.70642C11.5773 3.308 12.0186 3.89132 12.4426 4.48626C12.7496 4.87084 12.9482 5.10191 12.9125 5.62118C12.9867 6.06253 12.5477 6.37573 12.3305 6.70784C11.8899 7.3115 11.4724 7.92893 11.2075 8.63808C11.2142 8.64218 11.221 8.64627 11.2277 8.65037C11.4927 8.32899 11.6944 7.99193 11.9484 7.66545C11.8458 7.87282 11.7515 8.089 11.6302 8.29298C12.0802 7.89137 12.5279 7.48139 12.9944 7.09378C13.0539 7.00898 13.2908 7.31322 13.3819 7.31861C13.3968 7.29798 13.4202 7.22217 13.4445 7.14163C13.6134 7.2474 13.8691 7.39798 13.9146 7.43918C13.8991 7.56883 13.8998 7.69089 13.96 7.80866C13.9863 7.80067 14.0034 7.79546 14.0205 7.79025C14.027 7.78031 14.0335 7.77038 14.04 7.76045C14.0394 7.7547 14.0354 7.7486 14.0435 7.74715C14.0794 7.68868 14.0925 7.61019 14.148 7.56784C14.148 7.56786 14.1509 7.56779 14.1509 7.56779C14.179 7.52624 14.2103 7.48991 14.2082 7.43689C13.9773 7.08324 13.6699 7.03097 13.4998 6.9673Z" fill="#D7F5EB"/>
<path d="M10.3779 3.39727C10.4864 3.38155 11.13 3.71567 11.1852 3.8179C11.056 3.86694 10.9275 3.91577 10.8109 3.96005C10.7264 3.70642 10.6004 3.53954 10.3779 3.39727Z" fill="#D7F5EB"/>
<path d="M17.8991 3.15918C18.1221 3.51332 16.6839 4.93618 15.4813 6.20742L16.1913 7.08617L15.3776 6.76042L14.9648 7.39185L15.1628 7.719L15.7316 7.0101L16.5929 7.31082L16.6844 7.15696L16.2628 6.48126L18.2467 3.45607L17.899 3.1592L17.8991 3.15918Z" fill="#D7F5EB"/>
<path d="M8.58952 7.37008C8.91733 7.81555 9.15929 8.30473 9.42524 8.78156C9.55433 9.23392 9.87866 9.6036 9.99081 10.0652C10.014 10.0564 10.032 10.0496 10.0485 10.0434C10.0757 9.89125 10.1333 9.76066 10.166 9.61778C10.3005 9.37089 10.7405 8.49662 10.8605 8.36187C10.8609 8.35753 10.8614 8.35319 10.862 8.34888C10.8989 8.32534 10.9358 8.3018 10.9727 8.27827C10.9968 8.43699 11.1034 8.43714 11.113 8.43282C10.8721 9.09424 10.4502 9.69157 10.2613 10.3653C10.8364 9.55529 11.4065 8.73299 12.1441 8.05616C12.3482 7.91996 12.5104 7.71905 12.6865 7.55316C12.6095 7.88369 12.3145 8.20246 12.1982 8.54289C12.1649 8.60529 11.9822 8.95277 12.0991 8.97188C11.4659 9.70796 10.9846 10.5805 10.1743 11.1445C10.0458 10.7652 9.58296 11.1547 9.40036 10.805C9.33962 10.5901 8.56035 10.3017 8.4125 10.1284C8.38285 10.0055 6.55587 7.09266 6.50068 6.97684C6.19859 6.34294 8.62813 8.14789 8.2834 7.76412C8.25413 7.69247 8.37227 7.27375 8.34953 7.19319C8.42997 7.20825 8.52778 7.31378 8.58952 7.37012V7.37008Z" fill="#0E325F"/>
<path d="M8.15143 3.73474C8.38686 3.50128 8.69595 3.27245 8.93906 3.0392C8.94004 3.03523 8.94037 3.03121 8.94003 3.02711C9.1997 2.89978 9.65695 1.82267 9.62497 1.51125C9.66846 1.08864 9.78571 0.613782 10.0018 0.250122C10.0854 0.289612 10.1685 0.333152 10.2494 0.376572C10.0481 0.763632 9.80926 1.16759 9.93827 1.61772L9.95942 1.62484C10.0286 1.41561 10.1547 1.26213 10.3761 1.18076C9.93414 2.41954 11.1961 3.33292 11.8536 4.19477C11.5899 3.99888 11.2703 3.76445 11.027 3.54306C10.688 3.13711 10.1447 2.28379 9.59129 2.82841C8.90346 3.29798 8.28065 3.90975 7.71704 4.53148C7.71175 4.5271 7.70646 4.52272 7.70117 4.51835C7.83486 4.24097 7.95971 3.9729 8.15143 3.73474Z" fill="#0E325F"/>
<path d="M8.45173 4.40283C8.44365 4.30674 8.52609 4.10538 8.54697 4.0142C8.56096 3.99661 8.57495 3.97901 8.58817 3.96237C8.6746 3.95735 8.6838 3.96732 8.68908 4.0514C8.70094 4.09339 8.73118 4.13607 8.71234 4.18376C8.69732 4.18043 8.68227 4.1771 8.66707 4.17374C8.62624 4.43131 8.87455 4.63327 9.12078 4.56232C8.68924 4.76086 8.58158 4.81741 8.45173 4.40283V4.40283Z" fill="#0E325F"/>
<path d="M10.2716 5.88309C10.1505 6.01642 10.1861 6.17389 10.1768 6.32041C10.1703 6.32307 10.1638 6.32573 10.1573 6.3284C9.87876 5.94611 9.9056 5.17716 10.4596 5.07083C10.4591 5.06257 10.4586 5.05431 10.4581 5.04605C10.4447 5.04531 10.3199 4.75785 10.311 4.74781C10.3109 4.74775 10.3109 4.7477 10.3108 4.74764C10.2496 4.6265 10.1019 4.44576 10.2088 4.38612C10.1669 4.34145 10.0267 4.14698 9.98229 4.09959C10.1179 3.87969 9.8841 3.23099 10.2363 3.31312C10.1566 3.26737 10.0276 3.14124 9.93901 3.14876C9.63269 3.44027 9.8332 3.94914 9.2716 4.00087C9.28643 4.02665 9.54979 4.44565 9.69599 4.6795C9.36539 4.88876 8.5985 5.18092 8.45223 5.14311C7.94172 5.98043 9.15473 7.26043 10.0356 7.26211C10.9166 7.26379 10.7723 6.83162 11.0579 6.55154C11.0618 6.54156 11.0657 6.53158 11.0696 6.52159C10.6889 6.50353 10.4521 6.18093 10.2717 5.88309H10.2716Z" fill="#0E325F"/>
<path d="M8.1529 11.4112C8.15134 11.3956 8.1427 11.3828 8.1358 11.369C8.21637 11.2376 8.06803 11.049 8.05566 10.8954C8.17568 10.6834 8.29376 10.4748 8.41184 10.2662C8.43389 10.2967 8.45594 10.3272 8.47614 10.3551C8.20872 10.7062 8.34735 11.1539 8.34714 11.5572C8.34111 11.5622 8.33507 11.5673 8.32904 11.5724C8.26094 11.5289 8.20649 11.4709 8.15289 11.4112L8.1529 11.4112Z" fill="#0E325F"/>
<path d="M6.29149 7.15271C6.04795 7.43147 6.13673 7.6662 6.09702 7.98986C5.95791 7.90136 5.96189 7.7431 5.87598 7.64393C5.89632 7.62049 5.93424 7.59684 5.93392 7.57372C5.94388 7.36864 6.16456 7.28305 6.29149 7.15271Z" fill="#0E325F"/>
<path d="M5.54688 7.19245C5.68711 7.04776 5.84341 6.91491 6.00575 6.79065C6.11322 6.94854 5.65762 7.07273 5.69274 7.27933C5.69279 7.29455 5.67729 7.30986 5.65441 7.35192C5.61133 7.28802 5.57909 7.24023 5.54688 7.19244V7.19245Z" fill="#0E325F"/>
<path d="M14.9571 13.7827C14.6277 14.1103 14.3357 14.4884 13.9707 14.7742C14.6797 14.0348 14.8774 13.1617 15.005 12.1297C15.0939 11.5779 15.4277 11.3261 15.8881 10.9822C15.8553 11.1247 15.6895 11.8478 15.6555 11.9582C15.6529 11.9605 15.3104 13.2371 14.9571 13.7827H14.9571Z" fill="#0E325F"/>
<path d="M16.2811 15.5662C16.2821 15.5576 16.2831 15.549 16.2841 15.5403C16.3928 15.4168 16.4589 15.2595 16.5495 15.1219C16.369 15.8951 15.4892 17.3647 14.6064 17.3637C15.2603 16.8625 15.8839 16.3078 16.2811 15.5662V15.5662Z" fill="#0E325F"/>
<path d="M17.258 17.0875C17.258 17.093 17.2615 17.1908 17.2615 17.1962C17.141 17.2388 16.8576 17.2411 16.8313 17.2603C16.7924 17.2522 16.4851 17.4203 16.4346 17.4098C16.578 16.9765 17.2361 15.7777 17.2417 15.6217C17.2634 15.5992 17.3581 15.4723 17.3798 15.4498C17.3533 15.9634 17.0641 16.5829 17.258 17.0875V17.0875Z" fill="#0E325F"/>
<path d="M4.73761 15.6833C4.75617 15.7206 4.72953 15.8804 4.75657 15.9346C4.39368 15.7308 4.0693 15.1548 4.12893 14.7372C4.15656 14.2777 4.06296 13.7326 4.09604 13.2866C4.26131 14.0779 4.19819 15.0135 4.73761 15.6833Z" fill="#0E325F"/>
<path d="M9.98431 13.2818C9.97028 13.282 9.95625 13.2822 9.94222 13.2824L9.94217 13.2824C9.63805 13.067 9.75452 12.6507 9.81775 12.3356C9.8614 12.3037 9.90795 12.2766 9.95531 12.2507C9.84509 12.5905 9.90196 12.9442 9.98431 13.2818V13.2818Z" fill="#0E325F"/>
<path d="M9.62148 12.4873C9.60955 12.6152 9.7928 13.4835 9.55322 12.738C9.49035 12.5423 9.5758 12.329 9.58321 12.1258C9.5961 12.1254 9.59419 12.0368 9.58662 12.0263C9.52601 11.9427 9.94917 11.3478 10.0011 11.4212C10.0062 11.4223 9.8745 12.0799 9.87959 12.0811C9.86209 12.1806 9.63202 12.3869 9.62148 12.4873V12.4873Z" fill="#0E325F"/>
<path d="M9.03612 10.9589C9.04807 11.0012 9.06001 11.0436 9.07031 11.08C8.88569 11.4384 8.89705 11.8218 8.89963 12.2037C8.89105 12.2075 8.88246 12.2113 8.87388 12.2151C8.82279 12.1816 8.77171 12.148 8.7207 12.1146C8.76713 12.099 8.77038 12.0635 8.76304 12.023C8.64249 11.6415 8.91681 11.3059 9.03614 10.9589H9.03612Z" fill="#0E325F"/>
<path d="M13.1316 16.8236C12.8125 17.1864 12.5986 17.6229 12.3578 18.0386C12.3343 17.6908 12.169 16.9643 12.2664 16.7786C12.2835 16.569 12.3141 16.3549 12.3497 16.1528C12.3214 15.7883 12.3999 15.3891 12.6441 15.107C12.786 14.7847 13.0499 14.5325 13.1938 14.2067C13.1743 14.2149 13.1547 14.2231 13.1352 14.2314C13.1346 14.2355 13.134 14.2397 13.1333 14.2438C13.1147 14.2624 13.0961 14.281 13.0775 14.2997C13.0735 14.3006 13.0292 14.3764 13.0251 14.3771C12.9653 14.4885 12.5405 14.9685 12.425 15.1656C12.207 15.5378 12.0257 15.9733 11.9179 16.3917C11.7933 16.658 11.4092 16.812 11.1986 17.0072C10.9881 17.2563 10.5275 18.0517 10.1984 18.6362C10.1858 18.3476 10.1816 18.0936 10.2202 18.076C10.2103 18.0589 10.2004 18.0418 10.193 18.029C10.5602 17.385 10.9007 16.7213 11.2917 16.0961C11.2934 16.081 11.6997 14.875 12.0213 13.923C12.0622 13.863 12.4479 13.2633 12.6442 13.0583C13.0377 12.4854 13.5566 11.9327 14.0797 11.4697C14.6986 10.7981 15.4593 10.247 16.2034 9.71608C16.191 9.69901 16.1811 9.68532 16.1711 9.67161C16.162 9.67249 16.1528 9.67337 16.1436 9.67426C16.1419 9.69227 14.8791 9.50717 14.8633 9.50594C13.5991 10.5824 12.4669 11.8335 11.5666 13.2302C10.9576 13.9092 10.218 15.1402 9.94882 16.1778C9.81976 15.431 9.88448 14.6143 9.90073 13.8549C9.6476 13.8544 4.75492 8.65262 5.07631 8.20886C4.56044 8.62228 4.08214 9.08594 3.62416 9.56072C3.82893 9.70355 4.0279 9.87628 4.19886 10.0513C6.41523 12.0132 8.68388 14.2109 9.84587 16.9648C9.84819 17.0311 9.85367 17.0954 9.86348 17.1568C9.98141 17.8956 9.07741 15.5388 8.4029 15.1821C8.31336 15.1301 4.37423 11.3058 4.14121 11.0726C4.14058 11.0638 3.9773 11.0199 3.97666 11.0111C3.94844 10.9967 3.92021 10.9822 3.88411 10.9638C3.90636 11.1216 4.74141 13.1744 4.70757 13.1325C4.91787 13.947 5.30029 14.7691 5.77403 15.4515C6.10895 15.622 5.45252 15.8514 5.25934 15.7069C5.37554 15.9357 5.5277 16.1093 5.78781 16.1647C6.20721 16.3352 6.58069 16.5902 6.91855 16.889C6.90799 16.8604 7.19473 16.9629 7.19341 16.9634C7.24018 17.0889 7.23266 17.1944 7.19796 17.2863C6.78588 17.0909 4.94524 16.2163 4.65546 16.2147C4.47427 16.2137 6.32851 17.322 6.11106 17.3205C5.62275 17.3172 4.78837 16.7243 4.29086 16.3488C4.05994 16.1745 3.34912 14.732 3.13078 14.6632C2.8949 14.5498 4.08248 17.0811 3.85971 16.9515C4.10968 17.3783 4.52013 17.6368 4.98091 17.7783C5.7046 18.4311 7.06255 19.4126 7.32901 19.7455C8.12689 19.8164 9.07467 19.3853 9.99002 19.5629C10.0449 19.523 10.1019 19.4905 10.1535 19.4506C10.17 19.4641 10.1855 19.4776 10.1992 19.491C10.2167 19.5126 10.2248 19.4753 10.2271 19.4011C10.2295 19.4007 10.2318 19.4004 10.2342 19.4001C10.3 19.3267 10.4002 19.2098 10.4988 19.2186C10.5156 19.1926 10.5325 19.1666 10.5447 19.1478C10.6024 19.1333 10.9401 19.349 10.8895 19.3714C11.3656 19.6583 11.7302 19.551 12.2488 19.688C12.2405 19.6672 12.4772 19.66 12.472 19.6469C12.5593 19.5323 12.5877 19.1172 12.6994 19.0367C13.0749 17.9231 14.0046 17.8022 14.6351 16.958C14.6317 16.9533 14.6282 16.9486 14.6248 16.9439C14.5199 16.9833 14.4234 17.0378 14.3297 17.0987C14.3913 17.078 13.681 17.525 13.2372 17.7332C13.1098 17.8074 12.9763 17.8884 12.8887 17.9426C12.884 17.9058 12.9794 17.5617 12.9651 17.5521C13.2977 16.8958 14.0032 16.5687 14.5742 16.1727C14.7964 15.6775 15.1639 15.2392 15.2819 14.7058C15.361 14.4772 15.4386 14.2373 15.4491 13.9938C15.4401 13.9943 15.3384 13.6249 15.3294 13.6254C14.853 15.9792 14.3858 15.608 13.1316 16.8236L13.1316 16.8236ZM10.2245 19.194C10.2243 19.1891 10.2241 19.1839 10.2239 19.1789C10.2335 19.1771 10.2432 19.1752 10.253 19.1733C10.2436 19.1805 10.2337 19.1865 10.2245 19.194Z" fill="#0E325F"/>
<path d="M13.6359 18.4521C13.7753 18.3082 13.9398 18.1447 14.1238 18.0758C14.0596 18.1662 13.9955 18.2566 13.9247 18.3563C13.9582 18.3638 13.9711 18.3666 13.9839 18.3695C13.7672 18.5211 13.6258 18.7367 13.4326 18.9178C13.4768 18.7478 13.44 18.7624 13.526 18.6086C13.509 18.6048 13.6483 18.4549 13.6359 18.4521V18.4521Z" fill="#0E325F"/>
<path d="M6.49132 8.72024C6.48881 8.51131 6.53001 8.33258 6.69657 8.19983C6.72408 8.52792 6.75162 8.85604 6.78002 9.19454C6.65052 9.07826 6.5671 8.87886 6.49132 8.72024Z" fill="#0E325F"/>
<path d="M7.53912 9.1311C7.53659 9.15954 7.54348 9.20662 7.53002 9.21341C7.28623 9.46235 7.6266 10.1553 7.60334 10.4913C7.59657 10.4955 7.58979 10.4997 7.58302 10.504C7.1568 10.0358 7.03868 9.5966 7.53912 9.13111V9.1311Z" fill="#0E325F"/>
<path d="M13.5283 7.43362C13.5335 7.42824 13.5387 7.42286 13.544 7.41748C13.5555 7.4175 13.567 7.41752 13.5785 7.41754C13.6309 7.45521 13.6833 7.49287 13.7322 7.52802C13.736 7.72981 13.7653 7.91731 13.835 8.10226C13.8596 8.09567 13.8766 8.09111 13.8936 8.08654C13.8725 8.13375 13.8514 8.18097 13.8303 8.2282C13.7989 8.24458 13.7675 8.26089 13.7295 8.28068C13.6002 8.11662 13.4517 7.96605 13.3203 7.80314C13.3385 7.74641 13.3627 7.70636 13.3703 7.65701C13.4219 7.58172 13.4618 7.49732 13.5283 7.43363V7.43362Z" fill="#0E325F"/>
<path d="M11.6988 11.5128C11.6631 11.5511 11.6274 11.5894 11.5775 11.643C11.4518 11.3619 11.341 11.0862 11.1436 10.8545V10.7724C11.2741 10.6216 11.404 10.4716 11.5339 10.3215C11.5933 10.4976 11.7009 10.6553 11.652 10.8439C11.6781 11.056 11.569 11.3435 11.6988 11.5128V11.5128Z" fill="#0E325F"/>
<path d="M13.222 9.23661C13.1748 9.31385 13.1276 9.39108 13.0763 9.47488C12.9267 9.29011 12.7901 9.1215 12.6436 8.94053V8.86705C12.7671 8.66909 12.9092 8.48864 13.013 8.28271C13.013 8.31469 13.013 8.34667 13.013 8.37132C13.2112 8.59111 13.09 8.91016 13.1384 9.18262C13.1738 9.20545 13.1979 9.22103 13.222 9.23662V9.23661Z" fill="#0E325F"/>
<path d="M11.2938 11.9731C11.2454 12.0243 11.197 12.0755 11.1456 12.1298C10.973 11.832 10.8302 11.5718 10.7285 11.2534C10.7114 11.2 10.813 11.16 10.8598 11.1082C10.8617 11.1288 10.8635 11.1494 10.8659 11.1759C11.1212 11.3755 11.143 11.72 11.2938 11.9732L11.2938 11.9731Z" fill="#0E325F"/>
<path d="M12.3481 10.5063C12.3474 10.5571 12.3563 10.6069 12.3651 10.6567C12.3287 10.6959 12.2923 10.7351 12.2409 10.7905C12.0938 10.5336 11.9923 10.2903 11.8008 10.0642V9.98656C11.9505 9.79274 12.1851 9.61959 12.2427 9.37089C12.2531 9.36603 12.2636 9.36117 12.274 9.35632C12.229 9.47724 12.3257 9.55884 12.3565 9.65887C12.392 9.92534 12.2781 10.197 12.3231 10.4717C12.3314 10.4833 12.3398 10.4948 12.3481 10.5063V10.5063Z" fill="#0E325F"/>
<path d="M14.3192 7.33658C14.3194 7.34609 14.3196 7.35559 14.3198 7.3651C14.3148 7.37005 14.3098 7.375 14.3049 7.37996C14.2882 7.38353 14.2714 7.38709 14.2492 7.39183C14.1346 7.26922 13.9631 7.21248 13.8447 7.0756C13.8912 7.02609 13.9277 6.98717 13.9642 6.94824C14.2415 7.04757 14.1596 7.2968 14.3192 7.33658Z" fill="#0E325F"/>
<path d="M5.00233 7.26214L5.28711 6.89823L5.00233 6.41011L4.47657 6.25129L2.53786 2.927L2.14355 3.08034L3.90907 6.38272L3.64961 6.8391L3.69342 7.04406L4.43781 6.92491L5.00233 7.26214Z" fill="#0E325F"/>
<path d="M14.5127 5.51733L14.9428 5.62925L17.3585 2.87219L17.6935 2.95434L17.8989 3.2291C16.4369 5.24815 15.0797 5.67699 14.8985 6.37391L14.5127 5.51733V5.51733Z" fill="#0E325F"/>
<path d="M10.3002 16.0969C10.9202 13.5149 12.9218 11.322 14.875 9.55953C15.3618 9.53949 15.6881 9.67094 16.1447 9.67433C13.6241 10.9914 11.8015 13.6686 10.3002 16.0969V16.0969ZM18.4609 15.568C18.6087 16.8093 17.6683 18.106 16.3137 17.7629C15.743 18.4352 14.772 18.1388 14.1541 18.7041C12.6064 20.435 13.6344 19.7075 11.515 19.9674C10.4551 20.04 10.7078 19.0561 10.001 20C9.26953 18.9858 9.51229 20.2861 8.01919 19.8945C7.62248 19.8282 7.09671 20.0904 6.77883 19.7862C6.28887 19.1815 5.81709 18.4393 4.99508 18.3049C4.67238 18.2981 4.36393 18.2271 4.08423 18.066C3.5022 17.5257 3.50474 17.9384 2.85615 17.7495C0.677528 17.1087 1.78574 14.2958 1.96382 12.7021C2.47137 12.2505 2.14041 11.5659 2.43268 11.0308C2.76363 10.1189 3.24834 10.3346 2.28056 9.62214C2.74286 9.09249 3.22609 8.61001 3.77111 8.16983C3.92874 7.97041 4.60867 7.70064 4.38237 7.41952C4.15558 6.66711 3.63198 7.76284 3.14029 7.278C3.11699 6.93079 3.73984 6.54724 3.64067 6.38427C2.96692 5.42747 2.34149 4.42552 1.63495 3.48718C1.78593 3.00687 2.30056 2.57236 2.82342 2.59201C3.59184 3.51317 4.24609 4.52832 5.02393 5.43474C5.15257 5.42054 5.79888 5.04444 5.89243 5.35684C5.96303 5.83961 5.23381 5.93743 5.74812 6.40233C5.84453 6.32404 6.03317 6.18268 6.08062 6.37031C6.42232 6.83264 6.47321 5.8136 6.47878 5.75861C6.47801 5.69489 6.31877 4.65677 6.74943 4.33419C7.68022 -0.461217 11.4459 -2.16869 13.2108 3.87563C13.2585 3.81224 13.2561 4.34955 13.3208 4.39023C13.651 4.59757 13.4975 5.1204 13.5163 5.19677C13.5351 5.22821 13.5382 5.45057 13.5313 5.39975C13.5592 5.77534 13.3774 7.18256 13.9803 6.23678C14.0854 6.28368 14.1741 6.42599 14.2973 6.36717C14.6451 6.03844 14.085 5.43747 14.0801 5.43705C14.1387 4.94915 14.7361 5.43693 15.0003 5.42876C15.4663 4.87876 16.7743 3.1536 17.2027 2.59023C17.6974 2.63491 18.0843 2.81665 18.3887 3.48655C18.2476 3.61214 16.1806 6.39238 16.38 6.6212C16.8735 6.75916 17.173 7.78856 16.1866 7.24794C15.9207 7.24201 15.8068 6.96605 15.6564 7.33183C15.6555 7.34235 15.6199 7.42535 15.6098 7.40672C15.4425 7.6764 15.8221 7.76404 15.9253 7.92743C16.1365 8.08574 17.37 9.37768 17.7306 9.59707C17.5372 9.81913 17.2851 9.91025 17.1188 10.1327C17.2656 10.5789 17.6444 10.9617 17.6921 11.4567C17.6999 11.837 17.7348 12.3469 17.9137 12.5679C18.1824 12.8999 18.0863 13.6905 18.2522 14.0189C18.265 14.5454 18.5106 15.0554 18.4609 15.568L18.4609 15.568ZM17.2183 12.0896C17.2192 12.0722 17.2215 12.0551 17.2275 12.0388C17.216 12.054 17.2186 12.0718 17.2183 12.0896ZM17.6369 4.04559C17.6525 4.04018 17.6664 4.03307 17.6795 4.02507C17.6155 4.03795 17.6311 4.11413 17.6177 4.16133C17.6236 4.12574 17.6303 4.08567 17.6369 4.0456L17.6369 4.04559ZM17.4189 3.38816C17.4668 3.31845 17.8586 3.65695 17.8593 3.71561C17.853 3.65395 17.9523 3.74233 17.9521 3.64968C17.9863 3.61729 18.0177 3.53503 18.0505 3.53794C18.1263 3.36597 17.7941 3.48308 17.8174 3.3458C17.5816 3.41667 17.6648 3.09483 17.4189 3.38817V3.38816ZM17.2322 3.67073C17.2395 3.74228 17.3332 3.78958 17.3486 3.82559C17.4724 3.84747 17.6311 4.16089 17.7525 3.94725C17.7895 3.87458 17.871 3.80767 17.8297 3.72272C17.5184 3.59211 17.4474 3.26652 17.2322 3.67073ZM16.9691 4.03493C17.2588 4.22287 17.4053 4.58177 17.601 4.11158C17.3507 3.91829 17.1759 3.61409 16.9691 4.03493ZM16.6048 4.41908C16.6154 4.41593 16.6286 4.41807 16.6414 4.41938C16.6286 4.41808 16.6154 4.41592 16.6048 4.41908ZM16.3977 4.63814C16.5557 4.79733 16.8053 4.9773 16.9226 5.07413C16.9973 5.00367 17.0906 4.73455 17.1537 4.8057C16.9863 4.71247 17.2181 4.72587 17.2437 4.62729C17.5216 4.39274 17.0512 4.2661 16.8807 4.11936C16.8638 4.23237 16.7206 4.25837 16.731 4.3772C16.8501 4.45815 17.2726 4.84041 17.016 4.69802C16.7635 4.57625 16.6425 4.31374 16.3977 4.63814H16.3977ZM16.9161 5.08369C16.8996 5.10481 16.8796 5.12371 16.8628 5.14512C16.88 5.12408 16.8999 5.10502 16.9161 5.08369ZM16.0598 4.84008C16.1752 5.05 16.4116 5.20874 16.591 5.36623C16.7004 5.41633 16.7679 5.23658 16.8446 5.1706C16.7399 4.94427 16.4455 4.91245 16.3138 4.68934C16.2055 4.72015 16.1226 4.74019 16.0598 4.84009V4.84008ZM15.8801 4.90697C15.9334 4.90303 15.9604 4.86502 15.9905 4.82542C15.9604 4.86502 15.9333 4.90303 15.8801 4.90697ZM15.708 5.11483C15.8883 5.34931 16.1861 5.5352 16.3397 5.74277C16.4391 5.78387 16.4422 5.68224 16.4941 5.62176C16.526 5.56947 16.5817 5.52016 16.5924 5.4501C16.2991 5.3138 15.9289 4.6656 15.708 5.11483V5.11483ZM15.3797 5.36219C15.4089 5.42227 15.5236 5.49596 15.4903 5.53869C15.7059 5.64788 15.9179 5.92186 16.1309 6.0782C16.6514 5.73396 15.8273 5.47361 15.6016 5.18328C15.5279 5.24234 15.3087 5.35828 15.475 5.21435C15.4388 5.25887 15.3643 5.29966 15.3797 5.36218L15.3797 5.36219ZM15.3437 5.28465C15.344 5.28548 15.3443 5.28627 15.3446 5.28711C15.3444 5.2862 15.3442 5.28542 15.3437 5.28465ZM15.3505 5.32383C15.3506 5.32448 15.3505 5.3242 15.3505 5.32383C15.3505 5.32418 15.3505 5.3245 15.3505 5.32383ZM15.3471 5.29906C15.3475 5.30119 15.348 5.30321 15.3483 5.3054C15.348 5.30317 15.3475 5.30117 15.3471 5.29906ZM15.1977 5.5476C15.168 5.87863 15.6063 6.16885 15.9688 6.24819C15.9298 6.20521 16.1442 6.2327 16.0868 6.12191C15.7743 6.00556 15.4728 5.37313 15.1977 5.5476ZM15.1629 5.62928C15.1761 5.63605 15.1654 5.66175 15.1686 5.67702C15.1654 5.66176 15.1761 5.63604 15.1629 5.62928ZM14.8896 5.85026C14.8926 5.86328 14.8957 5.87626 14.8988 5.88926C14.8956 5.87628 14.8922 5.86335 14.8896 5.85026ZM14.7553 5.58867C14.7625 5.60126 14.7707 5.61547 14.7788 5.62965C14.7707 5.61545 14.7625 5.60126 14.7553 5.58867ZM14.6533 5.67306C14.5126 6.31302 17.4772 7.92317 16.1739 6.67849C16.1275 6.64087 16.0888 6.56034 16.0345 6.63663C15.7884 6.68598 15.4012 6.47207 15.3053 6.34601C15.2139 6.29892 14.8189 5.92237 14.9463 5.95184C14.8223 5.82587 14.8359 5.57997 14.6533 5.67306ZM15.0912 6.96216C15.0515 7.08813 14.9072 7.23062 15.0435 7.3213C15.1194 7.34173 15.1553 7.47235 15.2205 7.37181C15.321 7.22 15.4373 7.05403 15.5314 6.95528C15.4593 6.9581 15.4167 6.8847 15.4926 6.84874C15.3603 6.96772 15.1269 6.63347 14.9466 6.53175C14.7138 6.7404 14.9243 6.81536 15.0912 6.96217V6.96216ZM14.7095 5.93787C14.7222 5.95685 14.7339 5.97649 14.7481 5.99444C14.7339 5.97649 14.7222 5.95685 14.7095 5.93787ZM14.6045 5.8108C14.6208 5.82529 14.6371 5.8398 14.6534 5.85429C14.6371 5.8398 14.6208 5.8253 14.6045 5.8108ZM14.3601 6.89981C14.37 6.8966 14.3779 6.89281 14.3841 6.88854C14.3779 6.89281 14.37 6.89659 14.3601 6.89981ZM14.3203 6.37395C14.3392 6.3818 14.3465 6.39263 14.3473 6.40508C14.3465 6.39263 14.3392 6.3818 14.3203 6.37395ZM13.8736 6.98413C13.8873 6.9681 13.901 6.95208 13.9147 6.93605C13.9003 6.95167 13.886 6.96738 13.8736 6.98413ZM13.86 7.06045C13.9953 7.15502 14.1752 7.38824 14.3202 7.32572C14.2705 7.34669 14.3491 7.23471 14.3583 7.28283C14.3502 7.26825 14.3817 7.22046 14.3977 7.2398C14.3988 7.19994 14.4867 7.00773 14.513 7.04935C14.2313 6.90162 14.0899 6.59539 13.9669 6.87497C14.0393 6.85258 13.9111 7.0227 13.86 7.06044L13.86 7.06045ZM14.3359 7.31866C14.3421 7.31596 14.3475 7.31341 14.3502 7.31086C14.3467 7.31332 14.3415 7.31594 14.3359 7.31866ZM14.2217 7.49923C14.2264 7.48053 14.2311 7.46179 14.2359 7.44308C14.2311 7.4618 14.2264 7.48052 14.2217 7.49923ZM13.4724 4.79539C13.4726 4.78973 13.4743 4.78376 13.4766 4.77764C13.4741 4.78384 13.4722 4.78992 13.4724 4.79539ZM13.4038 7.60006C13.4311 7.57191 13.4583 7.57465 13.4688 7.54061C13.4583 7.57464 13.4311 7.57191 13.4038 7.60006ZM13.3561 7.80881C13.847 8.53969 13.8429 7.99773 14.1512 7.56777C14.3379 7.42884 13.7644 7.00287 13.7141 7.24115C13.606 7.41945 13.4127 7.58917 13.3561 7.8088V7.80881ZM13.7758 8.26539C13.7852 8.24484 13.7992 8.22573 13.8032 8.20415C13.7992 8.22573 13.7852 8.24484 13.7758 8.26539ZM13.7415 8.28051C13.7478 8.28089 13.7544 8.28072 13.7617 8.27966C13.7544 8.2807 13.7478 8.28089 13.7415 8.28051ZM13.7406 8.28055C13.7211 8.27915 13.7061 8.27127 13.6934 8.25994C13.7061 8.27127 13.7211 8.27915 13.7406 8.28055V8.28055ZM13.27 7.9109C13.0536 8.22759 12.808 8.59013 12.6627 8.93657C12.7999 9.10583 12.9275 9.26349 13.0675 9.43627C13.2945 9.10221 13.5575 8.6271 13.7053 8.34937C13.4898 8.25887 13.4657 8.02752 13.27 7.9109V7.9109ZM13.0227 9.64485C13.0274 9.63555 13.032 9.62626 13.0366 9.61696C13.032 9.62626 13.0274 9.63555 13.0227 9.64485ZM12.9833 9.53453C12.6697 9.24447 12.7014 8.79952 12.3948 9.16492C11.9393 10.1696 11.6045 9.58667 12.2167 10.7103C12.1847 10.6404 12.1585 10.5679 12.1302 10.4962C12.2167 10.6241 12.2324 10.7589 12.354 10.5771C12.4867 10.4935 12.498 10.3409 12.6102 10.232C12.5617 10.2984 12.6009 10.1493 12.655 10.1701C12.7316 10.0607 12.7861 9.87834 12.9115 9.78456C12.8679 9.70162 13.0739 9.5981 12.9833 9.53452V9.53453ZM12.6158 10.2244C12.6286 10.2078 12.6418 10.1915 12.6525 10.1744L12.6158 10.2244ZM12.3404 10.6623C12.3309 10.6761 12.3218 10.6902 12.3125 10.7041C12.3218 10.6902 12.3309 10.6761 12.3404 10.6623ZM12.4492 11.3009C12.4492 11.3009 12.4498 11.3015 12.4504 11.3022L12.4492 11.3009ZM10.7393 12.2508C10.7597 12.26 10.7674 12.2709 10.7673 12.283C10.6949 11.8781 10.4448 11.4936 10.0003 11.4814C10.0234 11.5071 9.98931 11.4672 9.96721 11.4853C9.47665 11.4698 9.3384 12.086 9.64913 11.9852C9.64992 12.0042 9.65383 12.0232 9.6493 12.0419C9.594 12.052 9.5875 12.0779 9.61153 12.125C9.50174 12.1235 9.43172 12.0336 9.40817 11.9262C9.18348 12.2998 9.25726 12.8229 9.58366 13.1133C9.5398 12.7955 9.59393 12.529 9.67852 12.1891C9.62914 12.1578 9.54407 12.0533 9.64931 12.0419C9.76923 11.9437 9.69536 12.2373 9.91795 11.9887C10.4422 12.0873 10.6 12.9838 10.1955 13.2124C10.5879 13.1597 10.8136 12.7017 10.7393 12.2508V12.2508ZM10.1515 13.2558C10.3132 13.0585 10.2904 12.7273 10.2657 12.4649C10.2347 12.5739 10.1557 12.1754 10.0225 12.1997C9.70443 12.2663 9.77373 12.7953 9.78956 12.9327C9.8168 13.1692 9.87789 13.3673 10.1516 13.2558H10.1515ZM10.0693 13.3134C10.0963 13.3058 10.1205 13.2926 10.1373 13.2749C10.1205 13.2926 10.0963 13.3058 10.0693 13.3134ZM10.1748 12.2586C10.1435 12.2208 10.1047 12.1897 10.0543 12.1717C10.0977 12.1884 10.1397 12.2195 10.1748 12.2586ZM10.1994 12.29C10.1992 12.2897 10.199 12.2895 10.1989 12.2892C10.199 12.2895 10.1992 12.2897 10.1994 12.29ZM9.63347 12.1295C9.64174 12.1323 9.64975 12.135 9.65932 12.1383C9.64981 12.1355 9.6416 12.1322 9.63347 12.1295ZM9.30162 10.1329C9.27248 10.1044 9.24197 10.0771 9.21231 10.049C9.93358 10.7301 8.92059 9.5734 8.93951 9.40806C8.50944 9.01299 8.06725 8.10057 7.70751 7.92075C7.8617 8.15593 8.22659 8.60675 8.25769 8.77111C8.31994 8.8152 8.53872 9.11696 8.45791 9.0533C8.76723 9.3926 9.02187 9.76935 9.30162 10.1329ZM9.0386 11.0817C8.95545 10.669 8.77336 11.1551 8.67577 11.3063C8.4279 11.7693 8.42002 11.7825 8.85963 12.1158C8.92422 11.8017 8.84462 11.4043 9.0386 11.0817V11.0817ZM8.2292 8.44627C8.22895 8.44174 8.22878 8.4372 8.22868 8.43266C8.22838 8.46013 8.26717 8.4693 8.28446 8.48831C8.26604 8.4743 8.24762 8.46028 8.2292 8.44627ZM8.28446 8.48831C8.28446 8.48831 8.28446 8.4883 8.28446 8.48831V8.48831ZM8.54983 8.8783C8.59125 8.90237 8.62708 8.93088 8.65545 8.96531C8.61712 8.91216 8.54189 8.89111 8.52142 8.82281C8.53089 8.84131 8.54036 8.8598 8.54982 8.8783H8.54983ZM8.74949 8.6254C8.9395 9.15637 9.40445 9.65798 9.60212 10.1508C9.54588 9.59123 9.20153 9.01036 8.74949 8.6254ZM8.9249 8.20723C8.91037 8.17731 8.89596 8.1474 8.87017 8.12542C8.89596 8.1474 8.91037 8.17731 8.9249 8.20723ZM9.0984 8.51856C9.07927 8.49669 9.0595 8.47519 9.04031 8.45335C9.05949 8.4752 9.07925 8.49671 9.0984 8.51856ZM9.37143 9.01785C9.35658 8.97984 9.34244 8.94169 9.3194 8.90773C9.33781 8.94439 9.35529 8.98147 9.37143 9.01785ZM9.27368 8.80884C9.26757 8.8087 9.27063 8.80877 9.27368 8.80884C9.27062 8.80877 9.26757 8.80869 9.27368 8.80884ZM9.2563 8.79591C9.24872 8.77257 9.23689 8.75276 9.21521 8.73811C9.22973 8.75625 9.24324 8.77582 9.2563 8.79591ZM9.41893 9.46089C9.41605 9.42369 9.40203 9.39014 9.38395 9.35705C9.39426 9.39215 9.4058 9.42697 9.41893 9.46089ZM9.60813 9.57539C9.61026 9.58357 9.61238 9.59174 9.61451 9.59992C9.6128 9.57762 9.5979 9.56419 9.58119 9.55093C9.59009 9.55913 9.59959 9.56696 9.60813 9.57539ZM9.56708 10.1604C9.54981 10.1655 9.53508 10.1676 9.52258 10.1663C9.53508 10.1676 9.5498 10.1655 9.56708 10.1604ZM9.20451 9.79819C9.1952 9.7842 9.18589 9.77021 9.17658 9.75622C9.19127 9.79615 9.2307 9.80545 9.26336 9.8176C9.24727 9.80926 9.22781 9.803 9.20452 9.79819H9.20451ZM8.9676 9.44978C8.96735 9.44528 8.96722 9.44078 8.96721 9.43628C8.96418 9.45551 8.98443 9.46451 8.99496 9.47825C8.98584 9.46876 8.97672 9.45927 8.9676 9.44978V9.44978ZM8.77246 8.80873C8.79085 8.83438 8.80591 8.86134 8.8145 8.89185C8.80591 8.86134 8.79086 8.83437 8.77246 8.80873ZM8.70279 8.69725C8.71235 8.74068 8.74379 8.77149 8.77011 8.80573C8.7438 8.77149 8.71236 8.74068 8.70279 8.69725ZM8.71665 9.10141C8.71643 9.0969 8.71633 9.09239 8.71635 9.08787C8.7162 9.11532 8.74534 9.13391 8.75832 9.1572C8.74443 9.1386 8.73054 9.12 8.71665 9.1014V9.10141ZM9.4832 10.4114C9.47645 10.4156 9.4697 10.4197 9.46213 10.4244C9.47547 10.4152 9.48506 10.4069 9.49289 10.4242C9.48966 10.4199 9.48643 10.4157 9.4832 10.4114V10.4114ZM9.92879 10.746C9.92099 10.7191 9.92149 10.6878 9.89198 10.6781C9.92149 10.6878 9.92099 10.7191 9.92879 10.746ZM9.91217 10.7914C9.92737 10.8246 9.95824 10.8649 9.95633 10.913C9.95824 10.8649 9.92739 10.8246 9.91217 10.7914ZM10.4801 10.688C10.473 10.6888 10.4653 10.6889 10.4586 10.6902C10.4653 10.6889 10.473 10.6888 10.4801 10.688ZM11.1462 12.1298C11.2945 11.9394 11.6598 11.8116 11.4189 11.5417C11.3327 11.3367 11.1752 11.1711 11.0834 10.9684C11.0885 10.8887 11.0237 10.9223 10.989 10.9107C10.9498 10.9566 10.915 11.0064 10.889 11.061C10.8993 11.0446 10.89 11.0176 10.8982 11C10.8912 11.0334 10.9019 11.07 10.8552 11.0717C10.6119 11.3721 11.1144 11.7222 11.1462 12.1298ZM11.5838 11.6096C11.7209 11.4931 11.7941 11.3579 11.9165 11.2594C11.9687 11.0895 12.3101 10.9236 12.1063 10.7456C11.9156 10.4279 11.7854 9.77266 11.4676 10.3726C11.8076 9.94703 11.3442 10.6384 11.1717 10.783C11.2602 11.0609 11.4909 11.3048 11.5838 11.6096V11.6096ZM11.8993 9.85477C11.8467 9.92528 11.7979 9.98863 11.7668 10.0735C11.798 9.98862 11.8467 9.92531 11.8993 9.85477ZM12.0231 11.1775C12.0559 11.09 12.1243 11.0192 12.1773 10.9492C12.1243 11.0192 12.0559 11.09 12.0231 11.1775ZM12.0335 8.96216C12.0335 8.96216 12.0335 8.96215 12.0335 8.96214C12.0311 8.96847 12.0291 8.97513 12.0272 8.98181C12.0291 8.97514 12.0311 8.96852 12.0335 8.96216V8.96216ZM12.4295 9.08082C12.4211 9.09603 12.4144 9.1127 12.4081 9.12971C12.4147 9.11289 12.4216 9.09627 12.4295 9.08082ZM12.5002 8.99033C12.4853 9.00162 12.4722 9.01517 12.4606 9.03043C12.4722 9.01517 12.4853 9.00162 12.5002 8.99033ZM12.8835 4.15404C12.8774 4.11885 12.8943 4.09644 12.9202 4.07454C12.8943 4.09644 12.8774 4.11885 12.8835 4.15404ZM12.7718 3.75082C12.7709 3.73931 12.7756 3.73056 12.7841 3.72288C12.7756 3.73056 12.7709 3.73931 12.7718 3.75082ZM12.4633 2.90929C12.4655 2.91454 12.4655 2.9208 12.4645 2.92752C12.4657 2.92075 12.4658 2.91448 12.4633 2.90929ZM7.5618 2.81922C7.63311 2.79741 7.55493 2.91068 7.65273 2.8699C8.12748 1.8416 8.99036 0.998793 9.91502 0.359533C9.08198 2.34397 10.6228 2.031 8.93973 3.03922C8.49819 3.48873 7.92168 3.94536 7.71766 4.53153C8.28131 3.90985 8.90412 3.29798 9.59197 2.8285C10.1454 2.28386 10.714 3.09026 11.053 3.49623C11.2076 3.71229 11.8941 4.0626 11.7903 4.18223C11.8788 4.13813 11.9807 4.31429 11.8742 4.22161C11.9268 4.25754 12.106 4.36361 12.1003 4.41716C12.2476 4.56928 12.6444 4.92432 12.6209 5.05506C13.1781 5.81221 12.3794 6.74005 11.838 7.1504C11.6002 7.27355 11.3173 7.31599 11.1683 7.56668C10.8542 7.97635 10.4446 8.80277 10.1088 9.35075C9.98801 9.41783 10.1082 9.76114 9.96016 9.69803C9.86469 8.90693 9.08973 8.22585 8.85727 7.54486C8.59654 7.39807 8.20317 7.03975 8.52206 7.55414C8.54607 7.56237 8.57018 7.5656 8.56323 7.59633C10.815 10.5758 8.90829 12.4874 12.1874 8.76121C12.3101 8.44355 12.778 7.82819 13.0519 7.48463C13.0931 7.28735 13.5611 7.11274 13.2149 6.93589C13.2246 6.92732 13.2348 6.91274 13.2442 6.90644C12.7952 6.79341 11.9942 7.82053 11.6083 8.16802C12.0277 7.11419 13.4057 6.31427 13.1024 5.1994C12.9651 4.44681 12.1125 3.91398 11.7547 3.24054C12.3341 3.72872 13.5133 4.79978 12.4074 3.31945L12.408 3.32001C11.8722 2.64819 11.7463 2.28391 12.4428 3.13567C12.4144 3.07537 12.5008 3.06449 12.4514 3.01258C12.4473 2.98348 12.4482 2.96782 12.462 2.93605C12.4294 2.99226 12.2453 2.40301 12.3386 2.53714C12.0246 1.75199 10.614 -0.149447 9.67954 0.309333C9.05573 0.524563 8.30192 1.46533 8.34281 1.40934C7.9962 1.81724 7.76228 2.36501 7.56181 2.81922H7.5618ZM12.2172 3.01573C12.2339 3.01833 12.2507 3.02093 12.2675 3.02353C12.2507 3.02053 12.234 3.01772 12.2172 3.01573ZM12.8177 4.48123C12.8204 4.48242 12.821 4.4885 12.8226 4.49236C12.821 4.48845 12.8204 4.48243 12.8177 4.48123ZM12.7164 4.12609L12.7163 4.12618C12.7163 4.12618 12.7164 4.12609 12.7164 4.12609ZM12.6931 4.35093C12.6987 4.35084 12.7043 4.35106 12.7099 4.35068C12.7045 4.35061 12.6989 4.35074 12.6931 4.35093ZM8.90926 4.01768C8.91933 4.01209 8.9294 4.00651 8.93947 4.00092C8.54694 4.18787 9.21223 4.44059 9.44096 4.33536C9.40012 4.27758 9.40789 4.25224 9.40172 4.20543C9.45378 4.33211 9.08404 4.09618 9.1667 4.1331C9.13563 4.13099 8.98998 4.06359 9.06093 4.07294C9.00262 4.08134 8.95895 4.04134 8.90927 4.01768H8.90926ZM10.4451 3.37107C9.51329 2.89378 10.1084 4.04499 9.377 4.10452C9.52012 4.31856 9.77238 4.32265 9.96719 4.13431C10.3094 4.49521 10.8147 3.88091 11.2357 3.8217C11.1746 3.69343 10.84 3.65002 10.9943 3.54072C10.8527 3.65421 10.5529 3.41424 10.4075 3.32537C10.4201 3.34038 10.432 3.35751 10.4451 3.37107V3.37107ZM11.2771 4.08314C11.1945 4.56441 10.2152 4.48655 9.95199 4.21634C9.75301 4.53001 10.0916 4.61015 10.1398 4.73223C10.4278 4.84747 10.6069 5.01836 10.8909 5.14445C10.9431 5.13229 11.0821 5.1581 10.9544 5.17499C11.5399 5.0622 11.983 4.47927 11.4627 3.99808C11.3862 3.91427 11.1682 3.951 11.2771 4.08313V4.08314ZM11.6448 4.713C11.6431 4.72367 11.6415 4.73432 11.6395 4.74787C11.6315 4.71277 11.6829 4.69515 11.6788 4.67729C11.6813 4.68807 11.6705 4.69803 11.6448 4.713ZM9.98789 4.65339C9.94614 4.61669 9.91209 4.57117 9.89102 4.52053C9.91115 4.57987 9.94564 4.62139 9.98789 4.65339ZM9.97084 4.8228C9.97068 4.8228 9.97053 4.82284 9.97037 4.82285C9.97626 4.81575 9.98102 4.8081 9.98656 4.8033C9.98132 4.80832 9.97609 4.81483 9.97084 4.82281V4.8228ZM9.92321 4.82866C9.92683 4.82794 9.93035 4.82696 9.93402 4.82637C9.93036 4.82696 9.92683 4.82793 9.92321 4.82866ZM9.88636 4.83831C9.89047 4.83698 9.89453 4.83553 9.89868 4.83435C9.89452 4.83553 9.89046 4.83697 9.88636 4.83831ZM10.1031 4.83462C10.1196 4.8352 10.1363 4.8332 10.1535 4.83072C10.1363 4.8332 10.1196 4.83519 10.1031 4.83462ZM11.0693 4.00965C10.8913 4.113 10.6335 4.16179 10.4981 4.29476C10.6883 4.4335 11.2245 4.31925 11.0693 4.00965ZM9.49162 5.07365C9.52695 5.04704 9.56438 5.02305 9.59484 4.99072C9.56438 5.02304 9.52694 5.04704 9.49162 5.07365ZM9.13377 4.3918C9.13821 4.39136 9.14269 4.39085 9.14839 4.39026C9.14269 4.39087 9.13823 4.39134 9.13377 4.3918ZM8.71723 4.18166C8.7635 4.21888 8.8098 4.2561 8.85607 4.29332C8.80979 4.2561 8.76351 4.21888 8.71723 4.18166ZM8.69003 4.05152C8.68475 3.96743 8.67554 3.95747 8.58912 3.96249C8.44452 4.13804 8.56256 4.35819 8.60647 4.55198C8.73043 4.83964 9.04629 4.52045 9.2466 4.56116C9.24052 4.60362 9.2209 4.61752 9.19593 4.62009C9.23335 4.6265 9.23126 4.57399 9.26001 4.55801C9.30479 4.46527 9.41357 4.5256 9.46197 4.4372C9.42361 4.42834 9.23797 4.44648 9.31888 4.40939C9.05315 4.51024 8.70298 4.32949 8.69004 4.0515L8.69003 4.05152ZM9.44151 4.48931C9.43482 4.50031 9.42813 4.51131 9.42125 4.52262C9.43224 4.50652 9.43705 4.48377 9.45991 4.48868C9.45378 4.48889 9.44765 4.4891 9.44152 4.4893L9.44151 4.48931ZM9.10692 4.61473C9.09834 4.62932 9.08142 4.6438 9.06005 4.65678C9.09453 4.63961 9.09921 4.60757 9.13484 4.61415C9.12553 4.61435 9.11623 4.61454 9.10692 4.61473ZM8.74467 4.69851C8.73228 4.71093 8.71565 4.71784 8.69803 4.71955C8.74906 4.69692 8.79916 4.69525 8.85613 4.69772C8.81898 4.69799 8.78182 4.69825 8.74467 4.69851V4.69851ZM8.53486 4.41885C8.53039 4.41885 8.52593 4.4188 8.52147 4.41873C8.55653 4.4344 8.55682 4.51755 8.56316 4.55832C8.56433 4.51057 8.54458 4.46526 8.53486 4.41886V4.41885ZM8.45267 5.14315C8.46806 5.35206 8.52961 5.86297 8.53095 5.40455C9.13459 5.79692 9.42401 5.14664 9.92469 4.95172C9.92266 5.3133 9.70785 5.63934 9.67663 6.00756C9.67743 5.94625 9.67138 5.88353 9.67511 5.82282C9.57725 6.057 9.91792 6.70168 9.79462 6.67969C10.1312 7.64392 10.6802 6.90121 11.1516 6.46216C11.3684 6.10488 11.9324 4.69237 11.2409 5.29168C11.0516 5.50713 10.644 5.27083 10.5212 5.06003C10.5976 5.20402 9.99149 4.67967 9.71991 4.92006C9.72158 4.91916 9.72322 4.91822 9.72488 4.91732C9.71399 4.92325 9.70304 4.92908 9.69197 4.93461C9.73609 4.91024 9.78552 4.89782 9.83232 4.87951C9.40401 5.24186 8.93692 5.63793 8.45268 5.14317L8.45267 5.14315ZM9.85169 4.85125C9.85597 4.84943 9.86025 4.8476 9.86457 4.84591C9.86024 4.8476 9.85597 4.84943 9.85169 4.85125ZM9.81784 4.8669C9.82238 4.86463 9.82693 4.86241 9.8315 4.86025C9.82693 4.86242 9.82238 4.86463 9.81784 4.8669ZM9.78353 4.88487C9.7888 4.88199 9.7941 4.87919 9.79939 4.87639C9.7941 4.87919 9.7888 4.88199 9.78353 4.88487ZM9.73184 4.91346C9.74418 4.90667 9.75646 4.89985 9.76872 4.89303C9.75645 4.89985 9.74417 4.90667 9.73184 4.91346ZM11.0301 6.59595C11.0345 6.58927 11.0388 6.58251 11.043 6.57573C11.0387 6.58246 11.0344 6.58917 11.0301 6.59595ZM10.0939 9.32154C10.153 9.22028 10.2136 9.11981 10.2568 9.01088C10.2136 9.1198 10.1529 9.22028 10.0939 9.32154ZM7.73524 4.13762C7.72474 4.16211 7.7076 4.18136 7.68892 4.19973C7.70895 4.18371 7.72386 4.16015 7.73524 4.13762ZM7.94047 3.84547C7.93133 3.8596 7.9222 3.87373 7.91306 3.88785C7.9236 3.87431 7.93323 3.86037 7.94047 3.84547ZM7.16142 4.13881C7.49555 3.93023 8.3321 2.31271 7.63879 3.2391C7.47741 3.49526 7.05719 3.81788 7.16142 4.13881ZM7.75061 3.89053C7.75876 3.88099 7.76691 3.87145 7.77505 3.86192C7.76533 3.87066 7.75663 3.87992 7.75061 3.89053ZM8.1995 7.71905C8.2401 7.68652 8.11701 7.50187 8.21954 7.64189C7.85446 7.08632 7.44098 6.50894 7.18533 5.99211C6.8494 5.1419 7.33699 4.65405 7.5027 4.44537C7.81193 4.00826 8.09819 3.64434 8.39341 3.15925C8.22203 3.21104 8.15543 3.46234 8.01129 3.5761C8.01492 3.5698 7.53012 4.20453 7.41644 4.30735C6.13464 5.39853 7.33746 6.72037 8.19949 7.71906L8.1995 7.71905ZM7.12655 5.26903C7.12654 5.2691 7.12652 5.26918 7.12651 5.26926C7.12652 5.26918 7.12655 5.26911 7.12655 5.26903ZM7.21156 7.35191C7.22556 7.37289 7.23955 7.39388 7.25354 7.41486C7.23908 7.39423 7.22599 7.37252 7.21156 7.35191ZM6.72516 6.9986C6.7045 7.02716 6.68697 7.09556 6.66517 7.10316C6.72635 7.1812 7.00216 7.51566 6.94683 7.4919C6.99665 7.51175 7.01905 7.56338 7.04994 7.60714C7.04799 7.60358 7.04607 7.59999 7.04412 7.59643C7.63278 8.34754 8.19821 9.38357 8.90918 9.94877C8.82503 9.80434 8.27256 9.1287 8.49452 9.34158C8.19879 8.93824 7.85841 8.51724 7.64426 8.0557C7.65612 8.07113 7.66814 8.08645 7.68013 8.10179C7.53586 7.90393 7.41489 7.68991 7.28211 7.48415C7.31469 7.51591 7.35248 7.54428 7.38296 7.5774C7.35398 7.54015 7.19181 7.42025 7.25275 7.4152C7.09034 7.38134 6.97288 6.87077 6.72355 6.99691C6.724 6.99738 6.72519 6.99861 6.72517 6.9986H6.72516ZM8.44185 10.3523C8.3491 10.266 8.40422 10.1042 8.24445 10.0787C7.68536 10.937 7.64292 10.6708 8.22293 11.4383C8.19785 11.398 8.17235 11.3571 8.14684 11.3161C8.52578 11.7828 8.11854 10.5408 8.44185 10.3522V10.3523ZM7.49049 9.22713C7.50619 9.19639 7.49635 9.11613 7.50735 9.07373C7.54793 9.11437 7.56868 9.1462 7.56283 9.18114C7.54777 9.11399 7.49546 8.98128 7.40066 8.96555C6.66868 9.6991 7.06518 9.65606 7.53821 10.3887C7.62043 10.1083 7.25099 9.45127 7.49049 9.22713V9.22713ZM7.36454 8.12597C7.36475 8.1305 7.36487 8.13504 7.36491 8.13957C7.36538 8.11179 7.32502 8.10374 7.3069 8.08476C7.32631 8.09864 7.34543 8.1123 7.36455 8.12597H7.36454ZM6.73751 7.22027L6.68169 7.16435C6.71133 7.19343 6.74386 7.21904 6.74996 7.26214C6.74527 7.24858 6.74113 7.23461 6.73751 7.22026V7.22027ZM6.50186 8.69034C6.88899 9.55203 6.71726 8.63985 6.69313 8.20532C6.7447 8.10331 6.85639 7.95308 6.68119 7.90148C6.47716 8.13678 6.12685 8.42362 6.50186 8.69034ZM5.76135 7.42486C6.29128 8.34909 5.88074 7.57706 6.22592 7.20018C6.13301 7.02532 5.88295 7.36879 5.76135 7.42486ZM5.4934 7.05164C5.55938 7.10439 5.64612 7.35905 5.69044 7.22222C5.66037 7.04531 6.05049 6.93894 5.95847 6.80377C5.88618 6.64167 5.61448 7.00207 5.4934 7.05164ZM5.27252 6.28607C5.43368 6.3663 4.60971 6.63924 4.95721 6.9878C5.01875 6.97538 5.77392 6.53567 5.27252 6.28607ZM4.66595 5.45837C4.47017 5.628 4.1615 6.02006 3.99938 6.01656C4.16654 6.4276 5.09486 5.82519 4.66595 5.45837ZM2.75766 2.84479C2.76431 2.84499 2.76969 2.84697 2.77432 2.85015C2.77001 2.84679 2.76488 2.8446 2.75766 2.84479ZM2.59056 3.33661C2.71736 3.15516 3.00037 3.11784 2.7855 2.87155C2.78626 2.87707 2.78673 2.88314 2.78622 2.89102C2.70931 2.84883 2.6948 2.94651 2.67398 2.99823C2.60773 3.04169 2.39321 3.31586 2.59056 3.33661ZM2.77007 3.67756C2.75365 3.66526 2.73903 3.65104 2.72685 3.63461C2.73726 3.65206 2.75057 3.6671 2.77007 3.67756ZM3.07523 4.01936C3.31093 3.82544 3.46867 3.71372 3.1927 3.46105C3.14003 3.50142 3.0417 3.66075 3.04347 3.55421C3.06386 3.37234 3.18442 3.36542 2.95717 3.14457C2.81486 3.24326 2.56495 3.38905 2.70227 3.57835C2.82553 3.64707 2.82355 3.709 3.01285 3.52171C3.15954 3.68381 2.65125 3.73816 3.07523 4.01936V4.01936ZM3.39582 4.28893C3.62298 4.1576 3.67803 3.96814 3.42029 3.80843C3.37254 3.8484 3.32788 3.99171 3.26926 3.92941C3.27305 3.98224 3.14924 4.12999 3.09765 4.14682C3.18794 4.24748 3.25816 4.52694 3.39583 4.28894L3.39582 4.28893ZM3.3916 4.83446C3.54555 4.79728 3.62453 4.54991 3.75578 4.5976C3.64497 4.55602 3.82821 4.47808 3.86001 4.4296C3.7572 4.13795 3.73114 4.11377 3.50373 4.30526C3.28955 4.45241 3.28596 4.59922 3.3916 4.83445V4.83446ZM3.68768 5.66779C3.86796 5.43826 4.44623 5.27211 4.32513 4.96197C4.29677 4.96316 4.24189 4.83069 4.23897 4.85562C4.20396 4.80406 4.10564 4.86874 4.15523 4.80474C3.88119 5.18375 3.85814 5.00375 4.12505 4.72446C3.97291 4.48487 3.93501 4.44271 3.74015 4.66589C3.62944 4.76035 3.43145 4.88153 3.4365 5.03051C3.53096 5.07286 3.45187 5.21112 3.56217 5.26068C3.68018 5.15684 3.7897 5.04967 3.91938 4.96243C3.96489 5.25306 3.27757 5.32996 3.68767 5.6678L3.68768 5.66779ZM3.74687 5.76699C3.99012 6.26496 4.3375 5.57968 4.61813 5.39192C4.42188 4.90267 4.02553 5.57984 3.74687 5.76699V5.76699ZM5.58942 5.47356C5.42943 5.54455 5.27241 5.61422 5.11975 5.68194C5.11206 6.53289 3.57686 6.52814 3.84152 6.86955C4.51783 6.69319 5.34677 6.12226 5.58941 5.47356H5.58942ZM3.20016 9.69007C5.73772 11.7451 8.93927 14.9458 9.99848 17.2231C10.5841 16.0915 11.305 15.0042 12.2002 14.1039C12.1841 14.127 12.1685 14.1505 12.1528 14.1739C13.4473 12.6784 14.9402 11.268 16.4733 9.98284C16.4821 10.0443 16.5217 10.1033 16.5005 10.1733C16.432 9.92352 16.6562 9.83401 16.8256 9.67281C16.4011 8.97845 15.5663 8.49664 14.9439 8.02465C14.5793 7.78407 14.6624 7.78973 14.4361 8.14346C14.1563 8.70058 11.2595 12.8392 11.3855 12.6354C11.1204 13.0642 10.5906 13.6871 10.4284 13.7233C10.2254 13.976 9.52334 13.8702 9.26055 13.5686C9.25534 13.5897 9.24853 13.6174 9.24265 13.6413C9.52089 14.4189 9.6561 15.2699 9.88351 16.0661C9.82631 16.1144 9.8068 16.0852 9.79117 16.0519C9.695 15.7473 9.14558 15.0972 9.17255 15.0127C7.68662 13.2113 6.03694 11.5081 4.30606 9.92448C4.21289 9.81212 3.95347 9.70876 4.11979 9.54683C4.43051 9.04994 4.80802 8.60022 5.13733 8.11736C5.51117 7.55822 3.74363 9.05155 3.66964 9.08685C3.53717 9.29207 3.21597 9.4435 3.20017 9.69007H3.20016ZM16.7157 11.0665C16.7136 11.0575 16.7115 11.0483 16.7093 11.0391C16.7127 11.0571 16.7147 11.075 16.7153 11.0932C16.7154 11.0843 16.7156 11.0754 16.7157 11.0665ZM16.7145 11.136C16.7145 11.1357 16.7145 11.1353 16.7145 11.1349C16.7145 11.1353 16.7145 11.1356 16.7145 11.136ZM16.3947 10.5786C16.3947 10.5786 16.3947 10.5786 16.3947 10.5786C16.3947 10.5786 16.3947 10.5786 16.3947 10.5786ZM12.0834 14.2692C12.1016 14.246 12.1188 14.2221 12.1358 14.1981C12.119 14.2223 12.1021 14.2465 12.0834 14.2692ZM11.433 15.7619C11.4315 15.7655 11.43 15.7691 11.4285 15.7727C11.43 15.7691 11.4315 15.7655 11.433 15.7619ZM6.98862 15.54C6.99389 15.5479 6.99916 15.5559 7.00444 15.5639C6.77653 15.1819 6.59496 14.7785 6.43989 14.356C6.55146 15.3315 8.09309 18.3275 9.20367 18.2104C8.23883 17.8347 7.79444 16.9571 7.44111 16.2159C7.35682 16.1709 7.31598 16.0425 7.25364 15.9578C7.26011 15.9638 7.26696 15.9695 7.27388 15.9752C7.17478 15.8354 7.07263 15.694 6.98862 15.54V15.54ZM7.18407 15.4909C7.27936 15.8635 7.64931 16.1322 7.78226 16.516C7.76597 16.4947 7.74911 16.4738 7.73259 16.4527C8.02019 16.93 8.23435 17.4583 8.70004 17.7986C8.61959 17.727 8.71658 17.7773 8.7878 17.7947C8.13907 17.1032 7.93185 16.1059 7.18407 15.4909V15.4909ZM7.25288 15.443C7.23367 15.4274 7.21424 15.4117 7.19451 15.3956C7.21424 15.4116 7.23366 15.4274 7.25288 15.443ZM7.83833 16.1815C7.83419 16.1774 7.83007 16.1732 7.82592 16.1691C7.8441 16.1887 7.85248 16.2144 7.8793 16.224C7.83387 16.2078 7.83466 16.154 7.81797 16.1161C7.82606 16.1369 7.83262 16.1589 7.83832 16.1815L7.83833 16.1815ZM7.97844 16.4179C8.00353 16.4311 8.02956 16.46 8.05149 16.4947C8.02956 16.4439 7.97354 16.4353 7.97777 16.3905C7.97799 16.3996 7.97822 16.4087 7.97844 16.4179V16.4179ZM8.10418 16.7105C8.12702 16.7309 8.15618 16.7476 8.17141 16.7726C8.14919 16.7354 8.08985 16.7224 8.10367 16.6688C8.10384 16.6827 8.10401 16.6966 8.10418 16.7105V16.7105ZM9.00177 18.0579C8.97567 18.045 8.94634 18.0353 8.92351 18.0178C8.94633 18.0353 8.97567 18.045 9.00177 18.0579ZM8.32511 18.651C8.33923 18.6552 8.35374 18.6583 8.36811 18.6619C8.35374 18.6583 8.33924 18.6552 8.32511 18.651ZM7.86673 18.3552C7.86248 18.3369 7.85539 18.3199 7.84727 18.3035C7.86043 18.3403 7.87636 18.3721 7.90823 18.3969C7.8944 18.383 7.88056 18.3691 7.86673 18.3552V18.3552ZM7.68489 18.0767C7.71054 18.1262 7.74966 18.1685 7.78554 18.2121C7.74966 18.1685 7.71055 18.1262 7.68489 18.0767ZM7.57394 17.9233C7.52269 17.8536 7.47143 17.7839 7.42018 17.7143C7.48676 17.7914 7.53004 17.8997 7.62026 17.9482C7.6076 17.9379 7.5924 17.9294 7.57394 17.9233V17.9233ZM7.14441 17.2505C6.91485 16.3553 5.66334 16.2015 5.13517 15.5394C5.07616 15.5169 5.07679 15.5576 5.08236 15.6076C5.23094 15.8365 5.25138 16.1895 5.47654 16.3476C6.083 16.5428 6.69486 16.7849 7.14442 17.2505L7.14441 17.2505ZM6.80731 18.4388C6.84863 18.4769 6.88284 18.5214 6.9185 18.5647C6.88284 18.5214 6.84863 18.4769 6.80731 18.4388ZM6.77549 17.4682C6.35069 16.7702 4.33799 16.6126 4.18693 15.7217C4.07065 15.7184 3.97327 15.4101 3.90434 15.5399C4.40237 16.655 5.65223 17.2075 6.77549 17.4682ZM5.63669 17.5464C5.6215 17.5242 5.6094 17.517 5.59879 17.5181C5.61668 17.5164 5.64184 17.5587 5.67317 17.5469C5.66101 17.5467 5.64885 17.5466 5.6367 17.5464H5.63669ZM5.19077 17.2121C5.18149 17.2075 5.1722 17.2029 5.16292 17.1983C5.18226 17.2123 5.19918 17.2124 5.21856 17.1984C5.20929 17.203 5.20003 17.2075 5.19077 17.2121ZM5.05348 17.214C4.93164 17.1471 4.8188 17.0657 4.70246 16.9899C4.70648 16.9919 4.71047 16.994 4.71448 16.996C4.47335 16.8596 4.26405 16.6573 4.13214 16.4176C4.18216 16.4718 3.69397 15.313 3.15644 14.8807C3.67678 15.6319 3.90397 17.1872 5.05347 17.214H5.05348ZM5.0511 17.4774C5.0511 17.4774 5.0511 17.4774 5.05111 17.4775V17.4774H5.0511ZM4.00568 16.6411C3.99664 16.6316 3.98759 16.6221 3.97855 16.6126C3.98899 16.6263 4.00885 16.6354 4.00605 16.6544C4.00593 16.65 4.0058 16.6456 4.00568 16.6411ZM3.82523 16.3479L3.81096 16.2926C3.8174 16.3265 3.82425 16.3565 3.85973 16.3692C3.84823 16.3621 3.83673 16.355 3.82522 16.3479L3.82523 16.3479ZM3.4906 15.5816C3.49058 15.5771 3.49049 15.5725 3.49034 15.568C3.48866 15.5782 3.4924 15.585 3.50252 15.5879C3.49855 15.5858 3.49458 15.5837 3.4906 15.5816ZM3.28017 14.904C3.25013 14.8868 3.22053 14.8697 3.19786 14.8431C3.22053 14.8697 3.25012 14.8868 3.28017 14.904ZM3.86714 15.8606C3.86687 15.8514 3.86659 15.8423 3.86632 15.8331C3.86659 15.8423 3.86687 15.8514 3.86714 15.8606ZM3.87029 15.5141C3.86823 15.5125 3.86926 15.5133 3.87029 15.5141C3.86926 15.5133 3.86823 15.5125 3.87029 15.5141ZM4.10356 16.2927C4.07295 16.2312 4.03873 16.1717 4.00572 16.1115C4.03873 16.1717 4.07294 16.2312 4.10356 16.2927ZM4.04854 14.7604C4.15087 15.099 4.33692 15.6492 4.73824 15.837C4.41848 15.3404 4.18951 14.7774 4.19023 14.175C4.10939 12.9846 3.77869 11.8388 3.54631 10.6646C3.33555 11.8157 4.13731 13.4293 4.04854 14.7604ZM3.68593 11.1641C3.68585 11.1501 3.68573 11.1361 3.68564 11.1221C3.68574 11.1361 3.68584 11.1501 3.68593 11.1641ZM3.75542 11.415C3.75806 11.4169 3.76112 11.4187 3.76428 11.4205C3.74967 11.4156 3.75675 11.3996 3.75483 11.3874C3.75503 11.3966 3.75522 11.4058 3.75542 11.415V11.415ZM3.9797 11.0376C3.7774 10.9921 4.58527 12.2792 4.59748 12.5804C4.72556 12.7632 4.84432 13.01 4.95563 13.2266C5.04495 13.2176 4.8282 12.8627 4.95309 13.0481C4.6445 12.3702 4.48175 11.6176 3.9797 11.0376V11.0376ZM4.84265 12.7527C4.86031 12.7929 4.8876 12.8087 4.91144 12.8407C4.88772 12.8046 4.83964 12.7828 4.84235 12.7299C4.84245 12.7375 4.84255 12.7451 4.84265 12.7527ZM4.85445 13.489C5.1374 14.6164 5.66819 15.4856 6.7173 15.9347C6.22169 15.0432 5.35221 14.3925 4.85445 13.489V13.489ZM6.45566 15.4704C6.42959 15.4281 6.40329 15.3859 6.37536 15.3448C6.40213 15.3867 6.42889 15.4285 6.45566 15.4704ZM5.58357 15.1822C5.10627 14.4323 4.47399 12.7645 4.39576 12.3203C4.37421 12.2608 4.11224 11.5787 3.9587 11.5673C4.29108 12.5486 4.76401 13.4842 5.06346 14.4802C5.17535 14.7344 5.35852 15.0135 5.58357 15.1822ZM5.05035 15.568C5.02525 15.5589 5.01432 15.5439 5.01064 15.5264C5.01914 15.5578 5.0626 15.5708 5.0578 15.6141C5.0545 15.5988 5.05154 15.5834 5.05036 15.568H5.05035ZM4.61954 15.5818C4.61465 15.5681 4.60975 15.5543 4.60486 15.5405C4.61082 15.5732 4.62507 15.5861 4.65659 15.5879C4.64569 15.5841 4.63347 15.5819 4.61955 15.5818H4.61954ZM4.31347 14.857C4.31328 14.843 4.3131 14.8291 4.31291 14.8152C4.30695 14.8501 4.32242 14.8719 4.34955 14.8929C4.33773 14.8809 4.32414 14.8693 4.31347 14.857ZM4.22901 14.1742C4.23375 14.2579 4.23848 14.3416 4.24322 14.4253C4.23848 14.3416 4.23374 14.2579 4.22901 14.1742ZM4.04891 12.9198C4.04855 12.8873 4.04819 12.8548 4.04783 12.8223C4.05089 12.8704 4.03482 12.9226 4.07994 12.9543C4.06975 12.9428 4.05798 12.9316 4.04891 12.9198V12.9198ZM3.99183 11.4848C4.03052 11.5809 4.08627 11.675 4.14231 11.7695C4.09241 11.6744 4.04142 11.5797 3.99183 11.4848ZM3.99183 11.4848L3.99188 11.485C3.99188 11.485 3.99183 11.4848 3.99183 11.4848ZM5.03705 13.6591C5.01821 13.6375 4.9892 13.6217 4.99519 13.5895C4.98919 13.6217 5.0182 13.6375 5.03705 13.6591ZM3.93589 12.2097C3.93596 12.188 3.93791 12.1658 3.93868 12.1439C3.93791 12.1658 3.93595 12.1879 3.93589 12.2097ZM3.90046 11.4957C3.87561 11.5355 3.93821 11.5739 3.92239 11.6241C3.93819 11.5738 3.87563 11.5356 3.90046 11.4957ZM3.86685 11.9446C3.86678 11.9352 3.86671 11.9258 3.86664 11.9165C3.8631 11.9384 3.86973 11.9485 3.89002 11.954C3.88352 11.9502 3.87588 11.947 3.86685 11.9446ZM4.18696 15.3047C4.17894 15.2949 4.17091 15.2852 4.16289 15.2754C4.1722 15.2893 4.18983 15.2996 4.18731 15.3178C4.18719 15.3134 4.18708 15.3091 4.18696 15.3047V15.3047ZM4.12025 15.1336C4.12553 15.1438 4.12966 15.1543 4.13157 15.1655C4.13328 15.1532 4.12665 15.1434 4.12025 15.1336ZM5.95326 16.8555C5.90241 16.8495 5.85356 16.8335 5.8038 16.822C5.85356 16.8335 5.90241 16.8495 5.95326 16.8555ZM6.92634 16.7998C6.85408 16.7561 6.82388 16.6683 6.76197 16.6117C6.82389 16.6683 6.85408 16.7561 6.92634 16.7998ZM7.14001 17.3725C7.17075 17.4003 7.20011 17.4293 7.22692 17.4608C7.20433 17.4252 7.17214 17.3991 7.14001 17.3725ZM7.28122 17.533C7.28117 17.533 7.28112 17.5329 7.28107 17.5328C7.28981 17.5354 7.29837 17.5377 7.30605 17.541C7.29838 17.5379 7.29012 17.5352 7.28122 17.5331V17.533ZM6.89255 15.2417C6.81869 15.1986 6.79239 15.1246 6.76402 15.044C6.79238 15.1246 6.81871 15.1986 6.89255 15.2417ZM3.44222 13.6331C3.25109 12.83 2.89608 11.9133 3.18512 11.0474C2.46266 11.7409 2.96043 12.9117 3.44222 13.6331ZM4.12109 15.2983C4.11828 15.1536 4.04166 15.0246 3.98019 14.8973C3.9831 14.9016 3.98609 14.9059 3.98896 14.9103C3.93857 14.8585 3.88297 14.7519 3.97954 14.8571C3.69631 14.3647 3.32358 13.9213 2.87616 13.6166C2.79228 13.6594 2.49421 13.3677 2.31668 13.3445C2.31689 14.5108 1.4511 16.3327 2.6906 17.0952C2.14771 15.2222 2.29705 15.6422 2.48592 13.77C3.20088 13.9369 3.75002 14.6704 4.12109 15.2983V15.2983ZM5.76184 18.2089C5.71988 18.1896 5.67803 18.17 5.63619 18.1504C5.67778 18.1708 5.71946 18.1914 5.76184 18.2089ZM6.57681 18.9338C6.13842 17.8207 4.79527 17.5086 3.85196 16.9517C3.49211 16.6772 3.31994 16.0778 2.98643 15.8572C4.20209 18.8413 4.99496 17.0146 6.5768 18.9338H6.57681ZM7.5737 19.4704C7.5431 19.47 7.51248 19.47 7.48188 19.4704C7.51248 19.4704 7.54309 19.4704 7.5737 19.4704ZM7.39129 19.4742C7.37084 19.4758 7.35045 19.4779 7.33015 19.4808C7.35027 19.4801 7.37079 19.4771 7.39129 19.4742ZM7.63927 19.3982C7.01341 18.875 6.45887 17.8536 5.71567 17.6691C6.07117 17.9835 6.42933 18.3031 6.65441 18.7171C6.99145 18.947 7.12452 19.659 7.63926 19.3982H7.63927ZM7.21148 18.829C7.21634 18.822 7.22119 18.8149 7.22731 18.8061C7.2212 18.8149 7.21633 18.822 7.21148 18.829ZM7.53254 18.5077C7.5417 18.5172 7.55085 18.5267 7.56 18.5363C7.53604 18.5183 7.52807 18.4961 7.53197 18.4666C7.53216 18.4803 7.53235 18.494 7.53253 18.5077H7.53254ZM7.68135 19.4173C7.6764 19.4295 7.67126 19.4415 7.66529 19.4534C7.67233 19.4421 7.6764 19.4296 7.68135 19.4173ZM7.69888 19.3731C7.65639 19.34 7.61194 19.3091 7.57185 19.2733C7.61183 19.3091 7.65676 19.3399 7.69883 19.3732C7.69885 19.3731 7.69887 19.3731 7.69888 19.3731V19.3731ZM7.72703 18.8431C7.71704 18.8246 7.69422 18.8319 7.68077 18.8248C7.69422 18.8319 7.71704 18.8246 7.72703 18.8431ZM7.86092 19.2363C7.92367 19.5488 8.80281 19.5346 9.04112 19.4305C9.30886 19.2016 8.00568 19.3594 7.86092 19.2363ZM8.75828 19.2745C8.76039 19.2714 8.76233 19.2678 8.76424 19.2642C8.75492 19.2852 8.72254 19.2706 8.70271 19.275C8.72123 19.2749 8.73976 19.2747 8.75829 19.2745H8.75828ZM9.6461 19.3423C9.62892 19.3291 9.61174 19.316 9.59456 19.3029C9.61174 19.316 9.62892 19.3291 9.6461 19.3423ZM10.1669 19.4703C10.1528 19.4843 10.1385 19.4981 10.1244 19.5119C10.1385 19.4981 10.1528 19.4843 10.1669 19.4703ZM10.2876 19.373C10.2762 19.3715 10.268 19.3801 10.2588 19.3854C10.268 19.3799 10.2773 19.3751 10.2876 19.373ZM10.3651 19.3212C10.3572 19.3273 10.3491 19.3331 10.3412 19.3393C10.3492 19.3333 10.3571 19.3272 10.3651 19.3212ZM10.4174 19.2754C10.4103 19.2824 10.4032 19.2892 10.396 19.2962C10.4031 19.2892 10.4103 19.2824 10.4174 19.2754ZM10.7097 19.1363C10.6971 19.1379 10.6855 19.1411 10.6742 19.1451C10.686 19.1422 10.6979 19.1392 10.7097 19.1363ZM10.6313 19.1669C10.62 19.1743 10.6089 19.1823 10.5981 19.1914C10.6092 19.1832 10.6202 19.1751 10.6313 19.1669ZM12.9551 19.2493C12.9528 19.2516 12.9494 19.2528 12.9464 19.2545C12.9493 19.2527 12.9528 19.2516 12.9551 19.2493ZM14.4747 18.0932C14.4747 18.0932 14.4741 18.0925 14.4735 18.0918C14.4735 18.0918 14.4747 18.0932 14.4747 18.0932ZM16.2229 17.3915C16.2107 17.3882 16.1984 17.3841 16.1861 17.3795C16.1984 17.3841 16.2107 17.3882 16.2229 17.3915ZM17.9183 14.9598C17.9509 14.845 17.7536 14.0347 17.7838 13.9927C17.7691 13.9118 17.6875 13.3616 17.7332 13.4537C17.5002 12.9494 15.9914 14.5685 15.9501 14.9996C16.1055 14.3002 16.5716 13.6588 16.9434 13.0882C16.8142 13.1316 17.1638 12.4598 17.1727 12.3496C17.2275 11.6724 16.8113 10.591 16.7142 11.2155C16.798 11.5649 16.3952 12.1981 16.2338 12.6011C16.2522 12.3729 16.6793 10.2866 16.4117 10.6066C16.2013 10.9098 15.4126 11.4136 15.3831 11.7113C15.2698 13.2063 14.3529 14.5269 13.4246 15.3495C13.3715 15.5279 13.0788 15.6741 13.3245 15.4505C13.4325 14.92 13.8245 13.9603 13.8491 13.2331C13.5897 13.1698 12.6223 14.3783 12.6452 14.3548C12.6066 14.4511 11.7562 15.3961 11.628 15.4833C11.3043 16.1128 10.4844 17.0348 10.012 17.8086C9.38844 17.3952 9.17493 16.5381 8.50043 16.1814C8.41089 16.1294 8.30911 16.0958 8.28784 15.9705C8.09549 15.247 7.51685 14.7661 7.00245 14.2585C7.15713 14.6754 7.75427 15.0383 7.88713 15.4514C8.10645 16.0402 8.05256 16.2402 8.63814 16.5716C9.10809 17.0497 9.4357 17.6503 9.91782 18.1235C10.3551 18.4022 11.0566 16.8714 11.2369 16.7776C11.3457 16.4961 11.7311 16.5055 11.8393 16.2237C12.0952 15.6093 12.2689 15.0088 12.8688 14.6072C12.0249 15.4804 12.3551 16.3741 11.4179 17.0264C10.2593 18.4345 10.8609 18.6569 11.993 17.4747C12.3075 17.1114 12.5555 16.5744 12.9526 16.2919C15.2763 15.055 14.8734 13.8805 15.7544 12.6273C15.7602 12.6423 15.7625 12.7235 15.743 12.7038C15.2645 15.2703 15.0864 15.539 13.1324 16.8234C12.7005 17.3151 12.4614 17.9418 12.0868 18.4689C11.4708 18.9547 10.5028 18.7169 10.0073 19.4294C9.50686 18.7985 8.70863 18.9049 8.05071 18.5753C7.65722 18.2977 7.49738 17.785 7.14997 17.4552C7.30402 17.9215 7.54784 18.492 7.86211 18.923C8.66005 18.994 9.3928 18.909 9.99118 19.563C10.0616 19.5283 10.1642 19.4252 10.2111 19.4153C10.9457 18.6097 11.9051 19.3477 12.3819 18.6339C12.6686 17.4675 14.4248 17.0642 14.5357 17.0297C13.2438 18.0994 13.2403 17.1162 12.3918 19.0737C12.0218 19.5044 11.352 19.1677 10.8906 19.3715C11.1782 19.6585 12.7339 19.4481 12.7726 19.4708C12.8425 19.4669 13.2645 18.7073 13.6363 18.4522C13.7314 18.3869 13.4323 18.7627 13.4331 18.9178C13.9432 18.2009 14.9815 17.7785 15.5689 17.8297C15.7426 17.7791 16.5272 16.8916 16.5366 16.8786C17.4888 15.0643 17.3989 15.2456 16.6974 17.2322C16.8497 17.3369 17.2683 17.0157 17.267 17.1447C17.6009 16.9282 17.961 16.6979 17.9261 16.2367C17.994 15.7996 18.0953 15.3807 17.9183 14.9597L17.9183 14.9598ZM13.5264 18.6087C13.45 18.6746 13.3708 18.7375 13.2966 18.8059C13.3708 18.7375 13.45 18.6746 13.5264 18.6087ZM12.9654 19.2312C12.9649 19.2327 12.9639 19.2336 12.9634 19.2349C12.9639 19.2336 12.9649 19.2327 12.9654 19.2312ZM11.0442 19.0249C10.9549 19.0416 10.8656 19.0665 10.7788 19.0933C10.8656 19.0665 10.9549 19.0416 11.0442 19.0249ZM11.8382 19.0101C11.6741 19.0082 11.5161 19.02 11.3535 19.0359C11.5161 19.02 11.6741 19.0082 11.8382 19.0101ZM12.0979 18.959C12.056 18.9765 12.0058 18.9798 11.9635 18.996C12.0058 18.9798 12.056 18.9765 12.0979 18.959ZM12.1168 18.9494C12.1133 18.9515 12.11 18.9538 12.1064 18.9556C12.11 18.9538 12.1133 18.9515 12.1168 18.9494ZM12.127 18.9434C12.1307 18.9407 12.1339 18.9373 12.1373 18.9343C12.1339 18.9373 12.1307 18.9407 12.127 18.9434ZM12.3057 18.7657C12.2996 18.795 12.291 18.8234 12.2718 18.8469C12.2933 18.8244 12.3015 18.7958 12.3057 18.7657ZM10.4031 19.024C10.4403 19.0009 10.4774 18.9779 10.5146 18.9548C10.4774 18.9779 10.4402 19.0009 10.4031 19.024ZM15.7246 12.6582C15.7202 12.6662 15.7218 12.6738 15.7259 12.6813C15.7227 12.6735 15.7218 12.6658 15.7246 12.6582ZM11.0089 17.1569C10.9986 17.1813 10.9881 17.2056 10.9761 17.2291C10.9888 17.2057 10.9993 17.1815 11.0089 17.1569ZM16.4979 11.4738C16.504 11.4565 16.5091 11.4391 16.5104 11.4211C16.5075 11.4388 16.5031 11.4563 16.4979 11.4738ZM16.4079 11.8374C16.4232 11.7893 16.4383 11.7412 16.45 11.6926C16.4359 11.7409 16.4219 11.7891 16.4079 11.8374ZM17.0786 12.7528C17.1007 12.7102 17.0945 12.6303 17.1361 12.6097C17.1006 12.6312 17.0849 12.72 17.0841 12.7609C17.0821 12.7578 17.0803 12.7553 17.0786 12.7528ZM16.9823 12.9617C16.9801 12.9634 16.9779 12.9652 16.9757 12.9669C16.9779 12.9651 16.9801 12.9634 16.9823 12.9617ZM17.1995 14.5574C16.5327 15.4816 16.4192 16.9331 15.0719 17.2699C16.6809 16.0893 16.196 14.9311 17.1126 14.6655C17.0649 14.6879 17.0213 14.7084 16.9777 14.7289C17.0516 14.6718 17.1256 14.6146 17.1995 14.5574V14.5574ZM11.3671 8.9322C11.0847 9.36234 10.7136 9.79982 10.5254 10.2403C11.0913 9.63294 11.9695 8.74447 12.2169 8.06737C12.0456 8.32104 11.5734 8.60077 11.3671 8.9322V8.9322ZM10.5421 9.42182C10.7983 9.00204 11.9956 7.04569 10.9744 8.26574C10.6843 8.8623 10.2194 9.49395 10.1665 10.2086C10.2953 9.93586 10.4373 9.69667 10.5421 9.42182V9.42182Z" fill="#0A090A"/>
<path d="M9.00845 4.07124C9.05423 4.07519 9.09236 4.10971 9.13436 4.12735C9.22228 4.16959 9.30741 4.21809 9.39765 4.25523C9.40861 4.27587 9.41956 4.29652 9.44017 4.33536C9.2081 4.37262 8.78966 4.36336 8.82761 4.04394C8.84607 4.03226 8.86452 4.02058 8.88298 4.00891C8.92762 4.02308 8.9666 4.0506 9.00845 4.07124V4.07124Z" fill="#D6F016"/>
<path d="M11.0683 4.00952C11.2235 4.31911 10.6872 4.43337 10.4971 4.29467C10.4985 4.28525 10.4999 4.27583 10.5013 4.26642C10.6899 4.18097 10.8785 4.09553 11.0683 4.00953V4.00952Z" fill="#D6F016"/>
</g>
<defs>
<clipPath id="clip0_4441_57710">
<rect width="20" height="20" fill="white"/>
</clipPath>
</defs>
</svg>
