<svg width="20" height="20" viewBox="0 0 20 20" fill="none" xmlns="http://www.w3.org/2000/svg">
<path d="M10.1021 19.7552C15.5533 19.7552 19.9724 15.3877 19.9724 10C19.9724 4.61236 15.5533 0.244812 10.1021 0.244812C4.6508 0.244812 0.231689 4.61236 0.231689 10C0.231689 15.3877 4.6508 19.7552 10.1021 19.7552Z" fill="white"/>
<path d="M18.8609 8.40432C18.8751 8.41813 18.8751 8.43195 18.8751 8.44576C18.9316 8.79115 18.6912 9.1089 18.38 9.15035C18.0265 9.20561 17.7011 8.98456 17.6446 8.65299C17.6304 8.62536 17.6304 8.58391 17.6304 8.55628C16.9374 5.11625 13.8117 2.50514 10.0495 2.50514C6.42876 2.50514 3.40204 4.90902 2.55343 8.16945L8.96045 12.2588L11.6053 9.59244C11.7184 9.4681 11.874 9.39902 12.0579 9.39902C12.3973 9.39902 12.6802 9.66152 12.6802 10.0069C12.6802 10.1589 12.6095 10.3108 12.4963 10.4214L12.468 10.449L9.15846 13.82L1.76139 9.09509C1.75432 9.09509 1.75078 9.09163 1.74725 9.08818C1.74371 9.08473 1.74017 9.08127 1.7331 9.08127C1.70647 9.0726 1.68541 9.05848 1.66642 9.04576C1.65516 9.03821 1.64463 9.03115 1.6341 9.02601C1.55631 8.97766 1.47851 8.93275 1.40072 8.88785C1.32294 8.84295 1.24515 8.79806 1.16736 8.7497C1.78968 4.49456 5.52357 1.22031 10.0495 1.22031C14.4481 1.22031 18.0972 4.31496 18.8751 8.40432H18.8609Z" fill="url(#paint0_linear_1272_152)"/>
<path d="M18.1821 10.822C18.2528 10.8634 18.3235 10.9049 18.4084 10.9601C18.4649 10.9988 18.526 11.0375 18.5871 11.0762C18.6788 11.1342 18.7704 11.1922 18.8468 11.2503C18.2245 15.5054 14.4906 18.7797 9.96467 18.7797C5.58017 18.7797 1.93114 15.7126 1.1391 11.6371C1.1391 11.6233 1.13557 11.6095 1.13203 11.5957C1.1285 11.5818 1.12496 11.568 1.12496 11.5542C1.06839 11.2226 1.30883 10.9049 1.64827 10.8496C1.97357 10.7944 2.28473 11.0016 2.36959 11.3055C2.38373 11.3193 2.38373 11.3194 2.38373 11.3332V11.3608C3.03434 14.8561 6.18834 17.5086 9.97881 17.5086C13.5996 17.5086 16.6263 15.091 17.4749 11.8443L11.0537 7.74116L8.43717 10.4075C8.32402 10.5319 8.16844 10.6009 7.98457 10.6009C7.64513 10.6009 7.36226 10.3385 7.36226 9.99307C7.36226 9.82729 7.43298 9.67532 7.54612 9.56479L7.57441 9.53716L10.884 6.1662L17.9133 10.6424L18.0123 10.7115L18.1396 10.7944C18.1467 10.8013 18.1538 10.8047 18.1608 10.8082C18.1679 10.8116 18.175 10.8151 18.1821 10.822Z" fill="url(#paint1_linear_1272_152)"/>
<defs>
<linearGradient id="paint0_linear_1272_152" x1="4.9732" y1="2.55308" x2="14.8926" y2="12.7081" gradientUnits="userSpaceOnUse">
<stop stop-color="#085BB4"/>
<stop offset="1" stop-color="#42C4C4"/>
</linearGradient>
<linearGradient id="paint1_linear_1272_152" x1="4.9732" y1="2.55308" x2="14.8926" y2="12.7081" gradientUnits="userSpaceOnUse">
<stop stop-color="#085BB4"/>
<stop offset="1" stop-color="#42C4C4"/>
</linearGradient>
</defs>
</svg>
