<svg width="20" height="20" viewBox="0 0 20 20" fill="none" xmlns="http://www.w3.org/2000/svg">
<circle cx="10" cy="10" r="10" transform="rotate(90 10 10)" fill="black"/>
<path d="M15.6363 8.41241C15.6116 8.03962 15.5891 7.6098 15.3226 7.32255C15.2772 7.27362 15.1836 7.24158 15.1188 7.26869C13.9233 7.76786 12.7314 8.28111 11.5852 8.88624C11.0255 9.18158 10.4798 9.50122 9.94793 9.84339C9.42272 10.1813 8.90559 10.533 8.36277 10.8428C8.06285 11.0139 7.75448 11.1656 7.43942 11.3067C7.12788 11.4465 6.82971 11.5951 6.56816 11.8179C6.49916 11.8767 6.49001 11.9971 6.53542 12.0717C6.77902 12.4737 6.94518 12.9123 7.02262 13.3766C7.09549 13.8142 7.05642 14.2539 7.20743 14.6735C6.98707 14.7964 7.19547 15.1406 7.43308 15.0276C8.24696 14.6415 9.06048 14.2556 9.87436 13.8695C10.6583 13.4974 11.4641 13.1521 12.2037 12.6955C12.9479 12.2364 13.6692 11.733 14.3915 11.2406C14.6992 11.0311 14.9769 10.8005 15.1853 10.4886C15.3694 10.213 15.4919 9.89267 15.5609 9.56951C15.6419 9.19074 15.6616 8.79893 15.6363 8.41241Z" fill="#C7D2DA"/>
<path d="M7.49531 12.0324C7.61844 13.0642 7.63273 15.0036 7.45035 15.0583C7.26797 15.113 6.51467 15.0071 6.16438 14.8773C5.38663 14.5895 5.02605 14.2444 4.91468 14.1422C4.48832 13.7519 4.48354 13.7346 4.10606 13.2968C3.8642 13.0164 3.71277 12.7098 3.53671 12.3838C3.00706 11.4028 3.04234 10.2266 3.09086 9.11292L7.49531 12.0324Z" fill="#EBEBEB"/>
<path d="M15.3287 5.72083L14.3061 6.33652C14.0509 6.18585 13.7932 6.03941 13.5433 5.88664C13.0349 5.5758 12.5312 5.25581 12.0165 4.95589C11.5519 4.68518 11.0189 4.43032 10.4659 4.48664C10.1895 4.5148 9.94242 4.62146 9.69495 4.74221C9.42495 4.87422 9.15565 5.00728 8.886 5.13999C8.33509 5.41105 7.78382 5.68176 7.2329 5.95282C6.69219 6.21859 6.15149 6.48437 5.61113 6.75015C5.13977 6.98178 4.66173 7.20531 4.21501 7.48271C4.19846 7.49292 4.18157 7.50383 4.16467 7.51439L4.09955 7.26973L3.08854 7.23172L3.00898 8.68522C2.93541 9.08793 3.37755 9.35582 3.68979 9.58288C4.397 10.0975 5.08591 10.6375 5.81355 11.1237C5.98533 11.2384 6.15888 11.3504 6.33348 11.4613C6.43381 11.531 6.5359 11.5982 6.64115 11.6609C6.78513 11.7468 6.93333 11.8267 7.08329 11.9017C7.20685 11.9636 7.3547 12.053 7.49727 12.0509C7.64759 12.0488 7.79332 11.9499 7.91372 11.87C8.05945 11.7728 8.1985 11.6651 8.33474 11.5546C8.62128 11.3219 8.8941 11.0804 9.19473 10.8646C10.9369 9.61597 13.0054 8.95205 14.8327 7.85092C15.0168 7.74004 15.2203 7.60768 15.2921 7.39294C15.3111 7.33662 15.3182 7.28241 15.3157 7.22996L15.3294 7.23453V5.72083H15.3287Z" fill="#AD0317"/>
<path d="M15.0562 5.33616C14.5781 4.9954 14.0445 4.71414 13.5435 4.40788C13.0352 4.09704 12.5315 3.77705 12.0168 3.47713C11.5521 3.20642 11.0192 2.95156 10.4662 3.00788C10.1898 3.03604 9.94269 3.14271 9.69522 3.26345C9.42522 3.39546 9.15592 3.52852 8.88627 3.66124C8.33536 3.93229 7.78409 4.203 7.23317 4.47406C6.69247 4.73983 6.15176 5.00561 5.6114 5.27139C5.14004 5.50302 4.662 5.72655 4.21528 6.00395C3.81292 6.25389 3.32959 6.57915 3.08775 6.99912C2.78712 7.52082 3.32642 7.83975 3.68936 8.10377C4.39657 8.61842 5.08548 9.15843 5.81311 9.64457C5.9849 9.75933 6.15845 9.87127 6.33305 9.98216C6.43338 10.0519 6.53546 10.1191 6.64072 10.1818C6.7847 10.2677 6.9329 10.3476 7.08286 10.4225C7.20642 10.4845 7.35427 10.5739 7.49684 10.5718C7.64715 10.5697 7.79289 10.4708 7.91328 10.3909C8.05902 10.2937 8.19807 10.186 8.3343 10.0754C8.62085 9.84276 8.89367 9.60127 9.19429 9.38548C10.9365 8.13686 13.0049 7.47294 14.8323 6.37181C15.0164 6.26093 15.2199 6.12857 15.2917 5.91383C15.3709 5.67692 15.2466 5.47204 15.0562 5.33616Z" fill="#EF013D"/>
<path d="M17.0251 11.3534C16.9794 9.71398 15.3347 8.39636 13.3124 8.39636C11.29 8.39636 9.64568 9.71398 9.59957 11.3534H9.59851V13.1135H9.60273C9.69285 14.7201 11.3192 16.0001 13.3124 16.0001C15.3055 16.0001 16.9319 14.7201 17.022 13.1135H17.0262V11.3534H17.0251Z" fill="#282F33"/>
<path d="M13.3165 13.5869C14.8815 13.5869 16.1502 12.5527 16.1502 11.2769C16.1502 10.0011 14.8815 8.96692 13.3165 8.96692C11.7514 8.96692 10.4827 10.0011 10.4827 11.2769C10.4827 12.5527 11.7514 13.5869 13.3165 13.5869Z" fill="#DFE7ED"/>
<path d="M14.9428 10.3222C14.9569 10.3507 14.9829 10.3662 15.0086 10.382C15.0421 10.4257 15.0766 10.4686 15.109 10.513C15.2209 10.6679 15.3103 10.8288 15.2463 11.0301C15.2269 11.0495 15.2075 11.0692 15.1885 11.0886C15.166 11.0871 15.1533 11.1026 15.1392 11.116C15.0308 11.1185 14.9361 11.0674 14.8351 11.0396C14.2321 10.8721 13.6407 10.9309 13.0584 11.1403C12.7205 11.2621 12.4128 11.4469 12.0928 11.6057C11.9186 11.6919 11.7412 11.7518 11.543 11.7176C11.5264 11.7042 11.5123 11.6863 11.4877 11.687C11.4849 11.6814 11.4803 11.6785 11.4743 11.6785C11.3888 11.5902 11.3244 11.4899 11.3124 11.3649C11.2997 11.2332 11.305 11.1026 11.337 10.972C11.374 10.8221 11.449 10.6904 11.5176 10.5549C11.5229 10.5524 11.5257 10.5478 11.5254 10.5419C11.5497 10.5299 11.5673 10.513 11.5704 10.4845C11.5789 10.4739 11.5873 10.463 11.5954 10.4525C11.625 10.4349 11.6514 10.4137 11.6616 10.3785C11.6796 10.3718 11.6919 10.3595 11.6993 10.3419C11.7672 10.3 11.8221 10.243 11.8777 10.187C11.8827 10.1842 11.888 10.181 11.8929 10.1782C11.9376 10.1634 11.9777 10.1416 12.0041 10.1004C12.0098 10.1011 12.014 10.0987 12.0168 10.0937C12.0252 10.092 12.0347 10.092 12.0418 10.0878C12.391 9.88675 12.767 9.78185 13.1697 9.7653C13.5396 9.74981 13.898 9.80332 14.2472 9.92688C14.4303 9.99165 14.5954 10.0909 14.7654 10.181C14.7679 10.1863 14.7717 10.1888 14.7774 10.1884C14.8277 10.2391 14.8791 10.2884 14.9428 10.3222Z" fill="#FEA101"/>
<path d="M11.5429 11.7179C11.7407 11.752 11.9185 11.6922 12.0927 11.606C12.4131 11.4472 12.7204 11.2624 13.0583 11.1406C13.6406 10.9311 14.232 10.8723 14.835 11.0399C14.936 11.0681 15.0307 11.1188 15.1391 11.1163C15.1353 11.142 15.1314 11.168 15.1279 11.1937C15.1018 11.3754 15.0145 11.5345 14.9427 11.6992C14.9392 11.7017 14.9374 11.7052 14.9381 11.7098C14.9202 11.7183 14.9075 11.7306 14.9089 11.7524C14.905 11.7552 14.9033 11.7591 14.9036 11.764C14.8663 11.7943 14.8364 11.8302 14.8177 11.8749C14.8107 11.8841 14.8036 11.8936 14.7966 11.9027C14.7241 11.9654 14.653 12.0298 14.5945 12.1062C14.5695 12.1167 14.5509 12.1343 14.5368 12.1572C14.5153 12.1579 14.5027 12.1703 14.4949 12.1886C14.4903 12.1882 14.4868 12.19 14.4844 12.1938C14.4629 12.1935 14.4506 12.2058 14.4439 12.2248C14.3274 12.3001 14.207 12.3681 14.0788 12.4212C14.0419 12.4272 14.0038 12.4315 13.9796 12.4656C13.913 12.4818 13.8465 12.4976 13.78 12.5138C13.7655 12.5082 13.7532 12.5103 13.7434 12.5226C13.7317 12.5244 13.7205 12.5261 13.7089 12.5279C13.6835 12.524 13.6585 12.5209 13.6374 12.5406C13.6201 12.5427 13.6029 12.5452 13.5856 12.5473C13.5603 12.5413 13.5353 12.5374 13.5138 12.5571C13.4906 12.5592 13.4677 12.5613 13.4445 12.5635C13.3273 12.5628 13.2097 12.5621 13.0925 12.5613C13.0752 12.5599 13.058 12.5582 13.0404 12.5568C13.0129 12.5353 12.9819 12.5409 12.9509 12.5455C12.9337 12.5441 12.9164 12.5423 12.8988 12.5409C12.8774 12.5216 12.8527 12.5244 12.8274 12.529C12.8101 12.5265 12.7929 12.524 12.776 12.5216C12.7654 12.51 12.7531 12.5082 12.739 12.5142C12.6985 12.5054 12.6577 12.4962 12.6172 12.4874C12.5908 12.467 12.5609 12.4582 12.5278 12.4603C12.2212 12.3649 11.948 12.2143 11.7245 11.9795C11.6537 11.9048 11.5978 11.8196 11.54 11.7352C11.5411 11.7292 11.5422 11.7235 11.5429 11.7179Z" fill="#63B446"/>
<path d="M10.838 8.09318C10.6159 8.09353 10.4624 7.9492 10.4275 7.70631C10.3804 7.37752 10.3364 7.04838 10.286 6.72029C10.2315 6.36334 10.172 6.00674 10.1037 5.6519C10.0005 5.11577 9.87803 4.58457 9.71962 4.06181C9.66189 3.87137 9.77911 3.6672 9.9685 3.59644C10.1568 3.52639 10.3645 3.60242 10.4539 3.78548C10.5536 3.98894 10.5965 4.21177 10.6546 4.42862C10.7764 4.88238 10.8683 5.34318 10.9489 5.80538C11.0313 6.27885 11.114 6.75233 11.1682 7.23037C11.183 7.36062 11.2045 7.49017 11.2287 7.61865C11.2759 7.86155 11.0865 8.09248 10.838 8.09318Z" fill="#FD496A"/>
<path d="M8.33849 9.32536C8.11636 9.32571 7.96288 9.18138 7.92803 8.93849C7.88086 8.6097 7.83685 8.28055 7.78651 7.95247C7.73195 7.59552 7.67246 7.23892 7.60417 6.88408C7.50102 6.34795 7.37852 5.81675 7.22011 5.29399C7.16238 5.10355 7.2796 4.89937 7.46899 4.82862C7.65732 4.75856 7.86501 4.8346 7.95443 5.01765C8.05405 5.22112 8.097 5.44395 8.15508 5.6608C8.27688 6.11456 8.36876 6.57535 8.44937 7.03756C8.53175 7.51103 8.61447 7.9845 8.66868 8.46255C8.68347 8.5928 8.70494 8.72234 8.72923 8.85083C8.7764 9.09373 8.58701 9.32465 8.33849 9.32536Z" fill="#FD496A"/>
<path d="M6.20276 9.69526C6.0271 9.71286 5.83314 9.56888 5.78949 9.29008C5.70008 8.71698 5.59306 8.14671 5.46668 7.57995C5.37692 7.17759 5.27237 6.7798 5.15057 6.38659C5.10375 6.23522 5.07946 6.09547 5.1819 5.96311C5.37973 5.70754 5.69726 5.73077 5.85532 6.00535C5.9303 6.1356 5.95776 6.28556 5.9993 6.42813C6.15207 6.95229 6.27915 7.48314 6.38018 8.01998C6.45622 8.42375 6.5312 8.82787 6.59914 9.23305C6.64068 9.48052 6.45094 9.69491 6.20276 9.69526Z" fill="#FD496A"/>
<path d="M13.4787 6.31939C13.5238 6.56018 13.2259 6.81117 12.9612 6.7214C12.8197 6.67318 12.7 6.53201 12.6828 6.36023C12.6194 5.72483 12.4951 5.10386 12.2892 4.49732C12.222 4.29913 12.3058 4.09601 12.537 4.00977C12.7437 3.93268 12.9591 4.03195 13.0352 4.2319C13.2147 4.70361 13.3291 5.19186 13.4048 5.68962C13.4361 5.89415 13.4692 6.09867 13.4787 6.31939Z" fill="#FD496A"/>
<path d="M4.29248 12.3045C4.29318 12.251 4.30656 12.183 4.35831 12.1285C4.41358 12.0704 4.4706 12.0707 4.52482 12.1299C4.56178 12.17 4.57973 12.2186 4.58924 12.2721C4.60473 12.3587 4.6431 12.4344 4.71315 12.4886C4.80115 12.5572 4.90289 12.5178 4.92471 12.4087C4.94196 12.3224 4.95569 12.2355 4.97505 12.1496C5.00075 12.0362 5.05954 11.9715 5.12361 11.9796C5.18908 11.9877 5.26195 12.0883 5.26547 12.1827C5.27005 12.3041 5.24576 12.4228 5.21443 12.5386C5.18521 12.6473 5.22217 12.728 5.29504 12.8001C5.37319 12.8772 5.4538 12.8779 5.53723 12.8058C5.65059 12.7079 5.72944 12.7262 5.78858 12.8652C5.85757 13.0272 5.80794 13.1888 5.65587 13.2965C5.50696 13.4021 5.31898 13.3954 5.19366 13.2799C5.12185 13.2138 5.05848 13.1405 5.01378 13.0536C4.98737 13.0025 4.96062 12.9818 4.8962 13.0001C4.76947 13.036 4.65401 13.0075 4.55685 12.911C4.40161 12.7575 4.29987 12.5343 4.29248 12.3045Z" fill="black"/>
<path d="M7.15144 12.6825C7.24895 12.6656 7.33836 12.6202 7.44009 12.6163C7.80197 12.6033 8.09028 12.7691 8.35711 12.9863C8.47328 13.0806 8.57783 13.1884 8.67393 13.3035C8.76264 13.4094 8.80524 13.5312 8.77426 13.6713C8.75173 13.7734 8.67288 13.8055 8.59191 13.74C8.5465 13.7034 8.50813 13.6583 8.46941 13.6143C8.29657 13.4172 8.09591 13.2584 7.84739 13.1665C7.66961 13.1007 7.49043 13.0954 7.31618 13.1753C7.24613 13.2074 7.18382 13.213 7.11905 13.17C7.0937 13.1313 7.06836 13.0926 7.04301 13.0535C7.04301 13.0099 7.03808 12.9673 7.01379 12.9293C7.02435 12.9067 7.024 12.8839 7.01485 12.861C7.03949 12.8303 7.04442 12.7927 7.0504 12.7557C7.06589 12.749 7.07857 12.7402 7.08209 12.7223C7.10567 12.7247 7.12081 12.7138 7.12961 12.6927C7.13735 12.6895 7.14439 12.686 7.15144 12.6825Z" fill="black"/>
<path d="M6.50425 12.4547C6.50073 12.5202 6.4944 12.5839 6.45673 12.6399C6.39337 12.7339 6.30149 12.7441 6.21912 12.666C6.1033 12.5568 6.06035 12.3407 6.12653 12.2023C6.19166 12.0661 6.30642 12.0492 6.40322 12.1633C6.47363 12.247 6.50496 12.346 6.50425 12.4547Z" fill="black"/>
<path d="M4.3513 11.2611C4.34778 11.3779 4.31892 11.4621 4.24886 11.5279C4.17881 11.5934 4.10735 11.5863 4.04504 11.5107C3.9514 11.3973 3.95774 11.1879 4.05807 11.0791C4.13587 10.9946 4.22669 10.9992 4.29428 11.0935C4.33405 11.1495 4.35447 11.2132 4.3513 11.2611Z" fill="black"/>
<path d="M7.09619 14.0639C7.42357 14.1065 7.71645 14.2716 7.94104 14.5096C8.12656 14.706 8.42261 14.4093 8.23745 14.2132C7.93083 13.8883 7.53622 13.7024 7.09619 13.645C6.98284 13.6302 6.88779 13.752 6.88673 13.8545C6.88533 13.9794 6.9846 14.0491 7.09619 14.0639Z" fill="black"/>
</svg>
