<svg width="20" height="20" viewBox="0 0 20 20" fill="none" xmlns="http://www.w3.org/2000/svg">
<path fill-rule="evenodd" clip-rule="evenodd" d="M9.09401 0.0243132C5.76818 0.347471 2.87391 2.23209 1.2395 5.13872C0.675818 6.14114 0.254196 7.40121 0.0735969 8.62302C-0.0245323 9.28675 -0.0245323 10.7201 0.0735969 11.3838C0.399344 13.5877 1.37266 15.5375 2.91872 17.0836C4.48953 18.6544 6.49826 19.6417 8.74621 19.9478C9.25757 20.0174 10.7403 20.0174 11.2516 19.9478C14.1461 19.5536 16.6448 18.0213 18.2747 15.6406C19.1365 14.3819 19.6789 12.9807 19.9232 11.3814C20.0249 10.7162 20.0249 9.29063 19.9232 8.62544C19.5798 6.37803 18.628 4.46994 17.0791 2.92405C15.5372 1.38505 13.6033 0.415702 11.4187 0.0868236C10.8892 0.00710929 9.62173 -0.0269645 9.09401 0.0243132ZM11.3769 0.58912C14.6291 1.08519 17.3356 3.13806 18.69 6.13622C19.3064 7.50059 19.6013 9.18031 19.4844 10.6608C19.4254 11.408 19.4012 11.5577 19.3425 11.5381C19.3175 11.5298 19.3038 11.321 19.308 11.0144C19.3129 10.6621 19.3006 10.5045 19.2684 10.5045C19.2427 10.5045 19.1601 10.4575 19.0848 10.4001C18.9841 10.3233 18.8966 10.2957 18.7536 10.2957C18.587 10.2957 18.5591 10.2838 18.5591 10.2122C18.5591 10.1663 18.5403 10.1287 18.5174 10.1287C18.4932 10.1287 18.4756 10.2609 18.4756 10.4419C18.4756 10.7272 18.4682 10.7551 18.3921 10.7551C18.3132 10.7551 18.3086 10.7272 18.3086 10.254C18.3086 9.78073 18.304 9.75288 18.2251 9.75288C18.1638 9.75288 18.1416 9.72503 18.1416 9.64849C18.1416 9.58351 18.1179 9.5441 18.0789 9.5441C18.0445 9.5441 18.0163 9.52531 18.0163 9.50234C18.0163 9.47937 17.9881 9.46058 17.9537 9.46058C17.9182 9.46058 17.8886 9.41979 17.8853 9.36663L17.8797 9.27267L17.8615 9.36663C17.8516 9.41832 17.8166 9.46058 17.7837 9.46058C17.7509 9.46058 17.724 9.47937 17.724 9.50234C17.724 9.52531 17.6872 9.5441 17.6421 9.5441C17.5686 9.5441 17.5591 9.57842 17.5482 9.88525C17.5401 10.112 17.5186 10.2322 17.4839 10.2437C17.4427 10.2573 17.431 9.88341 17.4284 8.47232C17.4266 7.4886 17.4156 6.70724 17.404 6.73593C17.3329 6.91219 17.3055 6.69146 17.2976 5.87991L17.2888 4.97169L17.266 5.61893C17.25 6.07007 17.236 6.1966 17.2198 6.0365L17.1966 5.80684L17.1889 6.04798C17.1814 6.28024 17.1765 6.29005 17.0559 6.31418L16.9306 6.33924L16.9304 6.74115L16.9301 7.14306L16.4463 7.5583L15.9626 7.97349L15.9856 8.18465C15.9983 8.30078 16.0197 8.69643 16.0331 9.06389C16.0465 9.43135 16.0676 9.80249 16.0801 9.88859C16.0982 10.0133 16.0893 10.0452 16.0365 10.0452C15.98 10.0452 15.9702 9.97787 15.9702 9.58878C15.9702 9.14724 15.9671 9.13191 15.8762 9.11901C15.787 9.10631 15.782 9.08619 15.7763 8.71559C15.7662 8.05429 15.727 7.80195 15.6304 7.77673C15.555 7.75698 15.5478 7.72361 15.5558 7.4281C15.5634 7.14503 15.5554 7.10293 15.496 7.11358C15.4447 7.12277 15.4273 7.09379 15.4273 6.99875C15.4273 6.92885 15.4108 6.87164 15.3905 6.87164C15.3703 6.87164 15.3511 7.36492 15.3478 7.96777L15.342 9.06389L15.2401 9.14765C15.1467 9.22457 15.1372 9.26562 15.1245 9.64874C15.117 9.87828 15.1068 9.05808 15.102 7.82608C15.0946 5.93357 15.0841 5.58256 15.0339 5.56331C14.9985 5.54974 14.9833 5.50706 14.9961 5.45787C15.0125 5.39524 14.9942 5.37189 14.9206 5.36137C14.8386 5.34968 14.8152 5.30851 14.7705 5.09697C14.6835 4.68578 14.6252 4.49149 14.5887 4.49149C14.5697 4.49149 14.5419 4.42572 14.5268 4.34534C14.507 4.23957 14.4776 4.19919 14.4205 4.19919C14.3486 4.19919 14.341 4.15964 14.3335 3.7503L14.3253 3.30141L14.3022 3.73986C14.2803 4.15463 14.2739 4.17902 14.1851 4.19167C14.1085 4.20253 14.0911 4.23147 14.0911 4.34826C14.0911 4.44171 14.0712 4.49149 14.0339 4.49149C13.9737 4.49149 13.9169 4.66837 13.836 5.1074C13.7974 5.31736 13.7727 5.36839 13.7099 5.36839C13.6544 5.36839 13.6318 5.39866 13.6318 5.47278C13.6318 5.5302 13.613 5.57717 13.59 5.57717C13.563 5.57717 13.5483 6.10611 13.5483 7.08043C13.5483 8.05475 13.5336 8.58368 13.5065 8.58368C13.4836 8.58368 13.4648 8.50961 13.4648 8.41903C13.4648 8.2956 13.4413 8.23789 13.3708 8.18858C13.28 8.12506 13.2769 8.10018 13.2769 7.45599C13.2769 6.96113 13.2634 6.78399 13.2247 6.76909C13.194 6.75727 13.1725 6.67405 13.1725 6.56707C13.1725 6.42697 13.1485 6.36254 13.0681 6.28704C13.0107 6.23309 12.9637 6.15534 12.9637 6.11421C12.9637 6.02176 12.8421 5.95299 12.6787 5.95299H12.5553L12.5252 6.41269C12.5087 6.66553 12.4785 6.88271 12.458 6.89536C12.4376 6.90797 12.4208 7.01115 12.4208 7.12465C12.4208 7.28019 12.4054 7.33097 12.3582 7.33097C12.3069 7.33097 12.2956 7.25927 12.2956 6.93624C12.2956 6.71914 12.2745 6.49524 12.2487 6.4387C12.2037 6.33995 12.0751 6.27088 12.0266 6.3194C12.0137 6.33222 12.0033 6.55567 12.0033 6.81598C12.0033 7.10364 11.9869 7.28921 11.9615 7.28921C11.9356 7.28921 11.9163 7.57011 11.9107 8.0304C11.9031 8.65667 11.8997 8.69225 11.8886 8.26007C11.8779 7.84396 11.864 7.74854 11.8141 7.74854C11.7646 7.74854 11.7527 7.67513 11.7527 7.36997C11.7527 6.943 11.7131 6.82988 11.5634 6.82988H11.4604L11.4548 5.56673C11.4517 4.87198 11.4535 4.22307 11.4587 4.12465C11.4639 4.02623 11.4476 3.92092 11.4225 3.89064C11.3974 3.86037 11.3815 3.73142 11.3873 3.60407L11.3978 3.37256L11.1472 3.35365C10.787 3.32646 10.7773 3.33402 10.8068 3.61701C10.8267 3.80655 10.819 3.862 10.7704 3.88062C10.7276 3.89703 10.7088 3.96723 10.7088 4.10991C10.7088 4.25414 10.6901 4.32271 10.6462 4.33958C10.5923 4.3602 10.5835 4.54611 10.5835 5.65939C10.5835 6.78333 10.5752 6.95516 10.5209 6.95516C10.4737 6.95516 10.4572 6.90112 10.4541 6.73593C10.4518 6.61538 10.4365 6.46973 10.4202 6.41231C10.3932 6.3174 10.3879 6.32308 10.3622 6.47495C10.3466 6.56682 10.3337 6.88876 10.3334 7.19037C10.333 7.70348 10.3276 7.74019 10.2495 7.76065C10.169 7.78165 10.166 7.81761 10.166 8.729C10.166 9.60794 10.1607 9.6745 10.0929 9.66143C10.0249 9.64836 10.0183 9.5137 9.99784 7.748C9.98577 6.70332 9.9717 5.84387 9.96652 5.83815C9.96138 5.83243 9.86522 5.82771 9.75285 5.82771C9.60975 5.82771 9.54135 5.80897 9.52448 5.76508C9.50753 5.7209 9.43859 5.70244 9.29035 5.70244H9.08027L9.07325 5.54585L9.06624 5.38926L9.05012 5.54159C9.03809 5.65488 9.01095 5.6999 8.9441 5.71739C8.8947 5.7303 8.86722 5.75389 8.88309 5.76971C8.89896 5.78558 8.87933 5.82237 8.8395 5.85147C8.77436 5.89908 8.76584 6.02001 8.75477 7.05612C8.74734 7.75113 8.72663 8.20787 8.70258 8.20787C8.67844 8.20787 8.6627 8.57767 8.6627 9.14494C8.6627 9.70323 8.64637 10.0921 8.62232 10.107C8.59747 10.1223 8.57739 9.95048 8.57012 9.66056L8.5583 9.18916L8.35996 9.17643L8.16161 9.16369V8.1882C8.16161 7.54936 8.14662 7.20766 8.11814 7.19818C8.0895 7.18862 8.07171 6.72883 8.06595 5.84801L8.05722 4.51237L7.90063 4.49942C7.81453 4.49228 7.74404 4.46877 7.74404 4.44722C7.74404 4.42564 7.71586 4.40797 7.68141 4.40797C7.64696 4.40797 7.61877 4.38918 7.61877 4.36622C7.61877 4.34325 7.57998 4.32446 7.53258 4.32446C7.45011 4.32446 7.44694 4.30542 7.45951 3.88593C7.46673 3.64474 7.45851 3.44743 7.4413 3.44748C7.4241 3.44752 7.40998 3.66365 7.40998 3.92777V4.40797H7.24296C7.15109 4.40797 7.07593 4.42676 7.07593 4.44973C7.07593 4.47332 6.95667 4.49149 6.80171 4.49149C6.56699 4.49149 6.50586 4.50802 6.37712 4.60619C6.28977 4.6728 6.22037 4.70161 6.21143 4.67488C6.203 4.64958 6.1498 4.63776 6.09317 4.64858C6.01237 4.66403 5.99024 4.69393 5.99024 4.7875C5.99024 4.88325 5.94089 4.94601 5.73949 5.10624L5.4887 5.30575L5.49058 7.2057C5.49237 9.00401 5.48845 9.10565 5.41771 9.10565C5.35265 9.10565 5.34029 9.05445 5.32213 8.70895L5.30125 8.31226L5.18391 8.29882C5.11936 8.29142 5.03948 8.30779 5.00645 8.33523C4.95534 8.37765 4.94632 8.34993 4.94632 8.15033C4.94632 7.91732 4.9454 7.91557 4.82104 7.91557C4.70074 7.91557 4.69577 7.90822 4.69577 7.73113C4.69577 7.62932 4.67427 7.53955 4.64775 7.53069C4.61506 7.5198 4.5933 7.27915 4.57944 6.7756C4.55756 5.97996 4.48699 5.75147 4.48699 6.47624C4.48699 6.8506 4.47651 6.92004 4.41642 6.94309C4.377 6.9582 4.33858 6.94843 4.32944 6.92091C4.30793 6.8564 4.08128 6.85699 4.05973 6.92158C4.0434 6.97052 3.53868 7.04435 3.47187 7.00752C3.45329 6.99729 3.44189 6.83055 3.44657 6.63701C3.4512 6.44342 3.44294 6.27301 3.42815 6.25823C3.41337 6.24345 3.4013 6.39766 3.4013 6.60089C3.4013 6.93106 3.34501 7.56899 3.29357 7.82162C3.27816 7.89728 3.2463 7.91557 3.12976 7.91557H2.98511L2.97396 9.03203C2.96377 10.057 2.95688 10.1496 2.88978 10.1625C2.82618 10.1748 2.8167 10.141 2.8167 9.90208C2.8167 9.74695 2.79854 9.62761 2.77495 9.62761C2.75198 9.62761 2.73319 9.54414 2.73319 9.44208V9.2566L2.55593 9.24374C2.39663 9.23221 2.3765 9.21856 2.35758 9.10907C2.32038 8.89419 2.23787 8.93348 2.22396 9.17271C2.21131 9.39005 2.21014 9.39172 2.03071 9.45135C1.93145 9.48434 1.84017 9.5375 1.8279 9.56948C1.81562 9.60143 1.77002 9.62761 1.72655 9.62761C1.65172 9.62761 1.64717 9.67392 1.64137 10.4941C1.63652 11.1741 1.62897 11.2827 1.60617 10.9987C1.57823 10.6513 1.51806 10.5045 1.40344 10.5045C1.38072 10.5045 1.3512 10.481 1.33779 10.4523C1.31833 10.4106 1.30856 10.4106 1.2891 10.4523C1.27507 10.4824 1.18743 10.5045 1.08245 10.5045C0.924773 10.5045 0.885731 10.5234 0.793615 10.6441C0.700621 10.7661 0.687092 10.8249 0.687092 11.107C0.687092 11.4922 0.603453 11.5296 0.547707 11.1692C0.478808 10.7236 0.496012 9.18419 0.575726 8.6672C1.14354 4.98326 3.64592 2.03751 7.15021 0.927853C7.81039 0.718817 8.42477 0.59935 9.30993 0.507986C9.64812 0.473077 10.9515 0.524229 11.3769 0.58912ZM10.8341 4.67939C10.8341 4.73681 10.8153 4.78379 10.7923 4.78379C10.7693 4.78379 10.7506 4.73681 10.7506 4.67939C10.7506 4.62198 10.7693 4.575 10.7923 4.575C10.8153 4.575 10.8341 4.62198 10.8341 4.67939ZM11.3352 4.67939C11.3352 4.73681 11.3164 4.78379 11.2934 4.78379C11.2704 4.78379 11.2516 4.73681 11.2516 4.67939C11.2516 4.62198 11.2704 4.575 11.2934 4.575C11.3164 4.575 11.3352 4.62198 11.3352 4.67939ZM7.32647 4.90906C7.32647 4.93202 7.30768 4.95082 7.28471 4.95082C7.26175 4.95082 7.24296 4.93202 7.24296 4.90906C7.24296 4.88609 7.26175 4.8673 7.28471 4.8673C7.30768 4.8673 7.32647 4.88609 7.32647 4.90906ZM14.2409 5.02368C14.1953 5.06928 14.1641 4.99675 14.1968 4.92129C14.2279 4.84976 14.2301 4.84981 14.2474 4.92275C14.2574 4.96476 14.2545 5.01015 14.2409 5.02368ZM6.70011 5.04268C6.70011 5.11012 6.68775 5.12219 6.65364 5.08807C6.62808 5.06252 6.61981 5.02118 6.63522 4.99621C6.67844 4.9263 6.70011 4.94184 6.70011 5.04268ZM10.8341 5.05521C10.8341 5.11262 10.8153 5.1596 10.7923 5.1596C10.7693 5.1596 10.7506 5.11262 10.7506 5.05521C10.7506 4.99779 10.7693 4.95082 10.7923 4.95082C10.8153 4.95082 10.8341 4.99779 10.8341 5.05521ZM11.0846 5.03187C11.0846 5.07646 11.0658 5.12452 11.0429 5.13872C11.0192 5.15338 11.0011 5.11826 11.0011 5.05767C11.0011 4.99892 11.0199 4.95082 11.0429 4.95082C11.0658 4.95082 11.0846 4.98727 11.0846 5.03187ZM11.3352 5.05521C11.3352 5.11262 11.3164 5.1596 11.2934 5.1596C11.2704 5.1596 11.2516 5.11262 11.2516 5.05521C11.2516 4.99779 11.2704 4.95082 11.2934 4.95082C11.3164 4.95082 11.3352 4.99779 11.3352 5.05521ZM7.32647 5.07609C7.32647 5.09905 7.30768 5.11784 7.28471 5.11784C7.26175 5.11784 7.24296 5.09905 7.24296 5.07609C7.24296 5.05312 7.26175 5.03433 7.28471 5.03433C7.30768 5.03433 7.32647 5.05312 7.32647 5.07609ZM14.2581 5.22224C14.2581 5.25669 14.2394 5.28487 14.2164 5.28487C14.1934 5.28487 14.1746 5.25669 14.1746 5.22224C14.1746 5.18779 14.1934 5.1596 14.2164 5.1596C14.2394 5.1596 14.2581 5.18779 14.2581 5.22224ZM14.4252 5.22224C14.4252 5.25669 14.4064 5.28487 14.3834 5.28487C14.3605 5.28487 14.3417 5.25669 14.3417 5.22224C14.3417 5.18779 14.3605 5.1596 14.3834 5.1596C14.4064 5.1596 14.4252 5.18779 14.4252 5.22224ZM6.47412 5.3995C6.42853 5.44509 6.39725 5.37256 6.42999 5.29711C6.46105 5.22558 6.46331 5.22562 6.4806 5.29857C6.49058 5.34058 6.48765 5.38597 6.47412 5.3995ZM6.8917 5.3995C6.8461 5.44509 6.81482 5.37256 6.84756 5.29711C6.87863 5.22558 6.88088 5.22562 6.89817 5.29857C6.90815 5.34058 6.90522 5.38597 6.8917 5.3995ZM11.0846 5.41014C11.0846 5.45608 11.0658 5.49366 11.0429 5.49366C11.0199 5.49366 11.0011 5.45608 11.0011 5.41014C11.0011 5.36421 11.0199 5.32663 11.0429 5.32663C11.0658 5.32663 11.0846 5.36421 11.0846 5.41014ZM11.3352 5.41014C11.3352 5.45608 11.3164 5.49366 11.2934 5.49366C11.2704 5.49366 11.2516 5.45608 11.2516 5.41014C11.2516 5.36421 11.2704 5.32663 11.2934 5.32663C11.3164 5.32663 11.3352 5.36421 11.3352 5.41014ZM6.032 5.46025C6.032 5.52769 6.01964 5.53976 5.98552 5.50564C5.95997 5.48009 5.9517 5.43875 5.96711 5.41378C6.01033 5.34388 6.032 5.35941 6.032 5.46025ZM7.32647 5.41014C7.32647 5.43311 7.30768 5.4519 7.28471 5.4519C7.26175 5.4519 7.24296 5.43311 7.24296 5.41014C7.24296 5.38718 7.26175 5.36839 7.28471 5.36839C7.30768 5.36839 7.32647 5.38718 7.32647 5.41014ZM5.86497 5.47278C5.86497 5.50723 5.84618 5.53541 5.82321 5.53541C5.80025 5.53541 5.78146 5.50723 5.78146 5.47278C5.78146 5.43833 5.80025 5.41014 5.82321 5.41014C5.84618 5.41014 5.86497 5.43833 5.86497 5.47278ZM14.4252 5.47278C14.4252 5.50723 14.4064 5.53541 14.3834 5.53541C14.3605 5.53541 14.3417 5.50723 14.3417 5.47278C14.3417 5.43833 14.3605 5.41014 14.3834 5.41014C14.4064 5.41014 14.4252 5.43833 14.4252 5.47278ZM6.49133 5.66069C6.49133 5.70662 6.47254 5.7442 6.44957 5.7442C6.4266 5.7442 6.40781 5.70662 6.40781 5.66069C6.40781 5.61475 6.4266 5.57717 6.44957 5.57717C6.47254 5.57717 6.49133 5.61475 6.49133 5.66069ZM6.9089 5.66069C6.9089 5.70662 6.89011 5.7442 6.86714 5.7442C6.84418 5.7442 6.82539 5.70662 6.82539 5.66069C6.82539 5.61475 6.84418 5.57717 6.86714 5.57717C6.89011 5.57717 6.9089 5.61475 6.9089 5.66069ZM14.2581 5.74666C14.2581 5.79393 14.2394 5.82103 14.2164 5.80684C14.1934 5.79264 14.1746 5.75397 14.1746 5.72086C14.1746 5.68774 14.1934 5.66069 14.2164 5.66069C14.2394 5.66069 14.2581 5.6994 14.2581 5.74666ZM10.8341 5.78596C10.8341 5.83189 10.8153 5.86947 10.7923 5.86947C10.7693 5.86947 10.7506 5.83189 10.7506 5.78596C10.7506 5.74002 10.7693 5.70244 10.7923 5.70244C10.8153 5.70244 10.8341 5.74002 10.8341 5.78596ZM11.0846 5.78596C11.0846 5.83189 11.0658 5.86947 11.0429 5.86947C11.0199 5.86947 11.0011 5.83189 11.0011 5.78596C11.0011 5.74002 11.0199 5.70244 11.0429 5.70244C11.0658 5.70244 11.0846 5.74002 11.0846 5.78596ZM11.3352 5.78596C11.3352 5.83189 11.3164 5.86947 11.2934 5.86947C11.2704 5.86947 11.2516 5.83189 11.2516 5.78596C11.2516 5.74002 11.2704 5.70244 11.2934 5.70244C11.3164 5.70244 11.3352 5.74002 11.3352 5.78596ZM6.032 5.97386C6.032 6.00831 6.01321 6.0365 5.99024 6.0365C5.96728 6.0365 5.94849 6.00831 5.94849 5.97386C5.94849 5.93941 5.96728 5.91123 5.99024 5.91123C6.01321 5.91123 6.032 5.93941 6.032 5.97386ZM6.24079 5.97386C6.24079 6.00831 6.222 6.0365 6.19903 6.0365C6.17606 6.0365 6.15727 6.00831 6.15727 5.97386C6.15727 5.93941 6.17606 5.91123 6.19903 5.91123C6.222 5.91123 6.24079 5.93941 6.24079 5.97386ZM14.4252 5.99474C14.4252 6.04068 14.4064 6.07826 14.3834 6.07826C14.3605 6.07826 14.3417 6.04068 14.3417 5.99474C14.3417 5.94881 14.3605 5.91123 14.3834 5.91123C14.4064 5.91123 14.4252 5.94881 14.4252 5.99474ZM7.28471 6.09914C7.28471 6.13359 7.26705 6.16177 7.24542 6.16177C7.19276 6.16177 7.15506 6.09655 7.18842 6.06318C7.23544 6.01616 7.28471 6.03458 7.28471 6.09914ZM7.57701 6.09914C7.57701 6.13359 7.55935 6.16177 7.53772 6.16177C7.48506 6.16177 7.44736 6.09655 7.48072 6.06318C7.52774 6.01616 7.57701 6.03458 7.57701 6.09914ZM10.8341 6.14089C10.8341 6.19831 10.8153 6.24529 10.7923 6.24529C10.7693 6.24529 10.7506 6.19831 10.7506 6.14089C10.7506 6.08348 10.7693 6.0365 10.7923 6.0365C10.8153 6.0365 10.8341 6.08348 10.8341 6.14089ZM6.49133 6.28704C6.49133 6.33298 6.47254 6.37056 6.44957 6.37056C6.4266 6.37056 6.40781 6.33298 6.40781 6.28704C6.40781 6.24111 6.4266 6.20353 6.44957 6.20353C6.47254 6.20353 6.49133 6.24111 6.49133 6.28704ZM6.70011 6.28951C6.70011 6.33678 6.68132 6.36388 6.65836 6.34968C6.63539 6.33548 6.6166 6.29681 6.6166 6.2637C6.6166 6.23059 6.63539 6.20353 6.65836 6.20353C6.68132 6.20353 6.70011 6.24224 6.70011 6.28951ZM6.9089 6.28704C6.9089 6.33298 6.89011 6.37056 6.86714 6.37056C6.84418 6.37056 6.82539 6.33298 6.82539 6.28704C6.82539 6.24111 6.84418 6.20353 6.86714 6.20353C6.89011 6.20353 6.9089 6.24111 6.9089 6.28704ZM7.27427 6.31139C7.23448 6.35118 7.15468 6.28675 7.18437 6.23877C7.20199 6.21025 7.22533 6.21096 7.25532 6.24094C7.27991 6.26554 7.28843 6.29723 7.27427 6.31139ZM7.8319 6.2994C7.77828 6.35302 7.72396 6.3116 7.76363 6.24737C7.77899 6.22253 7.81069 6.21401 7.83407 6.22846C7.86259 6.24608 7.86188 6.26942 7.8319 6.2994ZM14.2581 6.37302C14.2581 6.42029 14.2394 6.44739 14.2164 6.43319C14.1934 6.41899 14.1746 6.38033 14.1746 6.34721C14.1746 6.3141 14.1934 6.28704 14.2164 6.28704C14.2394 6.28704 14.2581 6.32575 14.2581 6.37302ZM9.31757 6.42016C9.30425 6.45344 9.29436 6.44355 9.29235 6.3949C9.29056 6.35089 9.30041 6.32625 9.31428 6.34012C9.32814 6.35398 9.32964 6.39002 9.31757 6.42016ZM9.79014 6.39144C9.79014 6.42588 9.77135 6.45407 9.74838 6.45407C9.72542 6.45407 9.70662 6.42588 9.70662 6.39144C9.70662 6.35699 9.72542 6.3288 9.74838 6.3288C9.77135 6.3288 9.79014 6.35699 9.79014 6.39144ZM7.8319 6.46643C7.77828 6.52005 7.72396 6.47862 7.76363 6.4144C7.77899 6.38956 7.81069 6.38104 7.83407 6.39549C7.86259 6.41311 7.86188 6.43645 7.8319 6.46643ZM5.86497 6.47495C5.86497 6.5094 5.84618 6.53759 5.82321 6.53759C5.80025 6.53759 5.78146 6.5094 5.78146 6.47495C5.78146 6.4405 5.80025 6.41231 5.82321 6.41231C5.84618 6.41231 5.86497 6.4405 5.86497 6.47495ZM11.0846 6.51671C11.0846 6.57412 11.0658 6.6211 11.0429 6.6211C11.0199 6.6211 11.0011 6.57412 11.0011 6.51671C11.0011 6.45929 11.0199 6.41231 11.0429 6.41231C11.0658 6.41231 11.0846 6.45929 11.0846 6.51671ZM6.47412 6.65221C6.42853 6.69781 6.39725 6.62527 6.42999 6.54982C6.46105 6.47829 6.46331 6.47833 6.4806 6.55128C6.49058 6.59329 6.48765 6.63868 6.47412 6.65221ZM6.68291 6.65221C6.63731 6.69781 6.60604 6.62527 6.63877 6.54982C6.66984 6.47829 6.67209 6.47833 6.68938 6.55128C6.69936 6.59329 6.69644 6.63868 6.68291 6.65221ZM7.27427 6.64544C7.23448 6.68524 7.15468 6.62081 7.18437 6.57283C7.20199 6.54431 7.22533 6.54502 7.25532 6.575C7.27991 6.59959 7.28843 6.63129 7.27427 6.64544ZM7.56657 6.64544C7.52678 6.68524 7.44698 6.62081 7.47667 6.57283C7.49429 6.54431 7.51763 6.54502 7.54762 6.575C7.57221 6.59959 7.58073 6.63129 7.56657 6.64544ZM14.2581 6.62945C14.2581 6.69689 14.2458 6.70896 14.2117 6.67484C14.1861 6.64929 14.1778 6.60795 14.1933 6.58298C14.2365 6.51307 14.2581 6.52861 14.2581 6.62945ZM9.00511 6.71296C8.96615 6.75192 8.955 6.74082 8.955 6.66286C8.955 6.5849 8.96615 6.57379 9.00511 6.61275C9.04406 6.65171 9.04406 6.67401 9.00511 6.71296ZM9.49784 6.64198C9.49784 6.67643 9.47905 6.70461 9.45608 6.70461C9.43312 6.70461 9.41433 6.67643 9.41433 6.64198C9.41433 6.60753 9.43312 6.57934 9.45608 6.57934C9.47905 6.57934 9.49784 6.60753 9.49784 6.64198ZM9.66487 6.64198C9.66487 6.67643 9.64608 6.70461 9.62311 6.70461C9.60014 6.70461 9.58135 6.67643 9.58135 6.64198C9.58135 6.60753 9.60014 6.57934 9.62311 6.57934C9.64608 6.57934 9.66487 6.60753 9.66487 6.64198ZM12.8802 6.68373C12.8802 6.71818 12.8614 6.74637 12.8384 6.74637C12.8154 6.74637 12.7966 6.71818 12.7966 6.68373C12.7966 6.64929 12.8154 6.6211 12.8384 6.6211C12.8614 6.6211 12.8802 6.64929 12.8802 6.68373ZM13.0472 6.68373C13.0472 6.71818 13.0284 6.74637 13.0054 6.74637C12.9825 6.74637 12.9637 6.71818 12.9637 6.68373C12.9637 6.64929 12.9825 6.6211 13.0054 6.6211C13.0284 6.6211 13.0472 6.64929 13.0472 6.68373ZM5.69794 6.72549C5.69794 6.75994 5.67915 6.78813 5.65619 6.78813C5.63322 6.78813 5.61443 6.75994 5.61443 6.72549C5.61443 6.69104 5.63322 6.66286 5.65619 6.66286C5.67915 6.66286 5.69794 6.69104 5.69794 6.72549ZM5.86497 6.75472C5.86497 6.82216 5.85261 6.83423 5.8185 6.80011C5.79294 6.77456 5.78467 6.73322 5.80008 6.70825C5.8433 6.63835 5.86497 6.65388 5.86497 6.75472ZM7.56657 6.81247C7.52678 6.85227 7.44698 6.78784 7.47667 6.73986C7.49429 6.71134 7.51763 6.71205 7.54762 6.74203C7.57221 6.76662 7.58073 6.79832 7.56657 6.81247ZM7.8319 6.80049C7.77828 6.8541 7.72396 6.81268 7.76363 6.74846C7.77899 6.72361 7.81069 6.71509 7.83407 6.72954C7.86259 6.74716 7.86188 6.77051 7.8319 6.80049ZM10.8341 6.89252C10.8341 6.94994 10.8153 6.99691 10.7923 6.99691C10.7693 6.99691 10.7506 6.94994 10.7506 6.89252C10.7506 6.8351 10.7693 6.78813 10.7923 6.78813C10.8153 6.78813 10.8341 6.8351 10.8341 6.89252ZM11.0846 6.86918C11.0846 6.91377 11.0658 6.96184 11.0429 6.97603C11.0192 6.99069 11.0011 6.95557 11.0011 6.89498C11.0011 6.83623 11.0199 6.78813 11.0429 6.78813C11.0658 6.78813 11.0846 6.82458 11.0846 6.86918ZM11.3352 6.89498C11.3352 6.95557 11.3171 6.99069 11.2934 6.97603C11.2704 6.96184 11.2516 6.91377 11.2516 6.86918C11.2516 6.82458 11.2704 6.78813 11.2934 6.78813C11.3164 6.78813 11.3352 6.83623 11.3352 6.89498ZM6.9089 6.9134C6.9089 6.95933 6.89011 6.99691 6.86714 6.99691C6.84418 6.99691 6.82539 6.95933 6.82539 6.9134C6.82539 6.86747 6.84418 6.82988 6.86714 6.82988C6.89011 6.82988 6.9089 6.86747 6.9089 6.9134ZM9.03851 6.89252C9.03851 6.92697 9.01972 6.95516 8.99675 6.95516C8.97379 6.95516 8.955 6.92697 8.955 6.89252C8.955 6.85807 8.97379 6.82988 8.99675 6.82988C9.01972 6.82988 9.03851 6.85807 9.03851 6.89252ZM9.16378 6.89252C9.16378 6.92697 9.14499 6.95516 9.12203 6.95516C9.09906 6.95516 9.08027 6.92697 9.08027 6.89252C9.08027 6.85807 9.09906 6.82988 9.12203 6.82988C9.14499 6.82988 9.16378 6.85807 9.16378 6.89252ZM9.49784 6.89252C9.49784 6.92697 9.47905 6.95516 9.45608 6.95516C9.43312 6.95516 9.41433 6.92697 9.41433 6.89252C9.41433 6.85807 9.43312 6.82988 9.45608 6.82988C9.47905 6.82988 9.49784 6.85807 9.49784 6.89252ZM9.79014 6.89252C9.79014 6.92697 9.77135 6.95516 9.74838 6.95516C9.72542 6.95516 9.70662 6.92697 9.70662 6.89252C9.70662 6.85807 9.72542 6.82988 9.74838 6.82988C9.77135 6.82988 9.79014 6.85807 9.79014 6.89252ZM13.8907 6.96351C13.8517 7.00247 13.8406 6.99136 13.8406 6.9134C13.8406 6.83544 13.8517 6.82433 13.8907 6.86329C13.9296 6.90225 13.9296 6.92455 13.8907 6.96351ZM14.0739 6.98626C14.0283 7.03186 13.997 6.95933 14.0298 6.88388C14.0608 6.81235 14.0631 6.81239 14.0804 6.88534C14.0904 6.92735 14.0874 6.97274 14.0739 6.98626ZM14.634 6.89252C14.634 6.92697 14.6152 6.95516 14.5922 6.95516C14.5692 6.95516 14.5504 6.92697 14.5504 6.89252C14.5504 6.85807 14.5692 6.82988 14.5922 6.82988C14.6152 6.82988 14.634 6.85807 14.634 6.89252ZM12.7131 6.93181C12.7131 6.96493 12.6943 7.00359 12.6714 7.01779C12.6484 7.03199 12.6296 7.00489 12.6296 6.95762C12.6296 6.91035 12.6484 6.87164 12.6714 6.87164C12.6943 6.87164 12.7131 6.8987 12.7131 6.93181ZM13.0472 6.95762C13.0472 7.00489 13.0284 7.03199 13.0054 7.01779C12.9825 7.00359 12.9637 6.96493 12.9637 6.93181C12.9637 6.8987 12.9825 6.87164 13.0054 6.87164C13.0284 6.87164 13.0472 6.91035 13.0472 6.95762ZM5.86497 7.00526C5.86497 7.0727 5.85261 7.08477 5.8185 7.05065C5.79294 7.0251 5.78467 6.98376 5.80008 6.95879C5.8433 6.88889 5.86497 6.90442 5.86497 7.00526ZM7.28471 6.95516C7.28471 6.97812 7.25653 6.99691 7.22208 6.99691C7.18763 6.99691 7.15944 6.97812 7.15944 6.95516C7.15944 6.93219 7.18763 6.9134 7.22208 6.9134C7.25653 6.9134 7.28471 6.93219 7.28471 6.95516ZM9.16378 7.10131C9.16378 7.13576 9.14499 7.16394 9.12203 7.16394C9.09906 7.16394 9.08027 7.13576 9.08027 7.10131C9.08027 7.06686 9.09906 7.03867 9.12203 7.03867C9.14499 7.03867 9.16378 7.06686 9.16378 7.10131ZM7.86931 7.12218C7.86931 7.14515 7.84113 7.16394 7.80668 7.16394C7.77223 7.16394 7.74404 7.14515 7.74404 7.12218C7.74404 7.09922 7.77223 7.08043 7.80668 7.08043C7.84113 7.08043 7.86931 7.09922 7.86931 7.12218ZM9.66487 7.12218C9.66487 7.14515 9.64608 7.16394 9.62311 7.16394C9.60014 7.16394 9.58135 7.14515 9.58135 7.12218C9.58135 7.09922 9.60014 7.08043 9.62311 7.08043C9.64608 7.08043 9.66487 7.09922 9.66487 7.12218ZM14.634 7.14306C14.634 7.17751 14.6152 7.2057 14.5922 7.2057C14.5692 7.2057 14.5504 7.17751 14.5504 7.14306C14.5504 7.10861 14.5692 7.08043 14.5922 7.08043C14.6152 7.08043 14.634 7.10861 14.634 7.14306ZM6.47412 7.27856C6.42853 7.32416 6.39725 7.25163 6.42999 7.17618C6.46105 7.10465 6.46331 7.10469 6.4806 7.17764C6.49058 7.21965 6.48765 7.26504 6.47412 7.27856ZM6.68291 7.27856C6.63731 7.32416 6.60604 7.25163 6.63877 7.17618C6.66984 7.10465 6.67209 7.10469 6.68938 7.17764C6.69936 7.21965 6.69644 7.26504 6.68291 7.27856ZM6.8917 7.27856C6.8461 7.32416 6.81482 7.25163 6.84756 7.17618C6.87863 7.10465 6.88088 7.10469 6.89817 7.17764C6.90815 7.21965 6.90522 7.26504 6.8917 7.27856ZM12.6797 7.25581C12.6408 7.29477 12.6296 7.28366 12.6296 7.2057C12.6296 7.12774 12.6408 7.11663 12.6797 7.15559C12.7187 7.19455 12.7187 7.21685 12.6797 7.25581ZM12.8802 7.22904C12.8802 7.26215 12.8614 7.28921 12.8384 7.28921C12.8154 7.28921 12.7966 7.2505 12.7966 7.20323C12.7966 7.15597 12.8154 7.12887 12.8384 7.14306C12.8614 7.15726 12.8802 7.19593 12.8802 7.22904ZM13.03 7.27856C12.9844 7.32416 12.9531 7.25163 12.9859 7.17618C13.0169 7.10465 13.0192 7.10469 13.0365 7.17764C13.0464 7.21965 13.0435 7.26504 13.03 7.27856ZM10.8341 7.26833C10.8341 7.32575 10.8153 7.37273 10.7923 7.37273C10.7693 7.37273 10.7506 7.32575 10.7506 7.26833C10.7506 7.21092 10.7693 7.16394 10.7923 7.16394C10.8153 7.16394 10.8341 7.21092 10.8341 7.26833ZM11.3352 7.2708C11.3352 7.33139 11.3171 7.36651 11.2934 7.35185C11.2704 7.33765 11.2516 7.28959 11.2516 7.24499C11.2516 7.2004 11.2704 7.16394 11.2934 7.16394C11.3164 7.16394 11.3352 7.21205 11.3352 7.2708ZM5.86497 7.26833C5.86497 7.30278 5.84618 7.33097 5.82321 7.33097C5.80025 7.33097 5.78146 7.30278 5.78146 7.26833C5.78146 7.23388 5.80025 7.2057 5.82321 7.2057C5.84618 7.2057 5.86497 7.23388 5.86497 7.26833ZM7.57701 7.28921C7.57701 7.31218 7.54883 7.33097 7.51438 7.33097C7.47993 7.33097 7.45174 7.31218 7.45174 7.28921C7.45174 7.26625 7.47993 7.24746 7.51438 7.24746C7.54883 7.24746 7.57701 7.26625 7.57701 7.28921ZM9.49784 7.31009C9.49784 7.34454 9.47905 7.37273 9.45608 7.37273C9.43312 7.37273 9.41433 7.34454 9.41433 7.31009C9.41433 7.27564 9.43312 7.24746 9.45608 7.24746C9.47905 7.24746 9.49784 7.27564 9.49784 7.31009ZM10.4791 7.28921C10.4933 7.31218 10.485 7.33097 10.4607 7.33097C10.4364 7.33097 10.4165 7.31218 10.4165 7.28921C10.4165 7.26625 10.4248 7.24746 10.4349 7.24746C10.4451 7.24746 10.4649 7.26625 10.4791 7.28921ZM9.03851 7.35185C9.03851 7.3863 9.01972 7.41448 8.99675 7.41448C8.97379 7.41448 8.955 7.3863 8.955 7.35185C8.955 7.3174 8.97379 7.28921 8.99675 7.28921C9.01972 7.28921 9.03851 7.3174 9.03851 7.35185ZM12.1077 7.33097C12.1219 7.35394 12.1135 7.37273 12.0892 7.37273C12.0649 7.37273 12.045 7.35394 12.045 7.33097C12.045 7.308 12.0533 7.28921 12.0634 7.28921C12.0736 7.28921 12.0935 7.308 12.1077 7.33097ZM14.0911 7.43536C14.0911 7.46981 14.0723 7.498 14.0494 7.498C14.0264 7.498 14.0076 7.46981 14.0076 7.43536C14.0076 7.40091 14.0264 7.37273 14.0494 7.37273C14.0723 7.37273 14.0911 7.40091 14.0911 7.43536ZM14.2581 7.43536C14.2581 7.46981 14.2394 7.498 14.2164 7.498C14.1934 7.498 14.1746 7.46981 14.1746 7.43536C14.1746 7.40091 14.1934 7.37273 14.2164 7.37273C14.2394 7.37273 14.2581 7.40091 14.2581 7.43536ZM7.32647 7.45624C7.32647 7.47921 7.29828 7.498 7.26383 7.498C7.22939 7.498 7.2012 7.47921 7.2012 7.45624C7.2012 7.43327 7.22939 7.41448 7.26383 7.41448C7.29828 7.41448 7.32647 7.43327 7.32647 7.45624ZM7.86931 7.45624C7.86931 7.47921 7.84113 7.498 7.80668 7.498C7.77223 7.498 7.74404 7.47921 7.74404 7.45624C7.74404 7.43327 7.77223 7.41448 7.80668 7.41448C7.84113 7.41448 7.86931 7.43327 7.86931 7.45624ZM12.7131 7.47712C12.7131 7.51157 12.6943 7.53976 12.6714 7.53976C12.6484 7.53976 12.6296 7.51157 12.6296 7.47712C12.6296 7.44267 12.6484 7.41448 12.6714 7.41448C12.6943 7.41448 12.7131 7.44267 12.7131 7.47712ZM6.07376 7.51888C6.07376 7.55333 6.05497 7.58151 6.032 7.58151C6.00903 7.58151 5.99024 7.55333 5.99024 7.51888C5.99024 7.48443 6.00903 7.45624 6.032 7.45624C6.05497 7.45624 6.07376 7.48443 6.07376 7.51888ZM6.49133 7.53976C6.49133 7.58569 6.47254 7.62327 6.44957 7.62327C6.4266 7.62327 6.40781 7.58569 6.40781 7.53976C6.40781 7.49382 6.4266 7.45624 6.44957 7.45624C6.47254 7.45624 6.49133 7.49382 6.49133 7.53976ZM6.9089 7.53976C6.9089 7.58569 6.89011 7.62327 6.86714 7.62327C6.84418 7.62327 6.82539 7.58569 6.82539 7.53976C6.82539 7.49382 6.84418 7.45624 6.86714 7.45624C6.89011 7.45624 6.9089 7.49382 6.9089 7.53976ZM12.1077 7.498C12.1219 7.52096 12.1135 7.53976 12.0892 7.53976C12.0649 7.53976 12.045 7.52096 12.045 7.498C12.045 7.47503 12.0533 7.45624 12.0634 7.45624C12.0736 7.45624 12.0935 7.47503 12.1077 7.498ZM9.16378 7.56063C9.16378 7.59508 9.14499 7.62327 9.12203 7.62327C9.09906 7.62327 9.08027 7.59508 9.08027 7.56063C9.08027 7.52618 9.09906 7.498 9.12203 7.498C9.14499 7.498 9.16378 7.52618 9.16378 7.56063ZM9.66487 7.60239C9.66487 7.63684 9.64608 7.66503 9.62311 7.66503C9.60014 7.66503 9.58135 7.63684 9.58135 7.60239C9.58135 7.56794 9.60014 7.53976 9.62311 7.53976C9.64608 7.53976 9.66487 7.56794 9.66487 7.60239ZM11.3352 7.62327C11.3352 7.6692 11.3164 7.70678 11.2934 7.70678C11.2704 7.70678 11.2516 7.6692 11.2516 7.62327C11.2516 7.57734 11.2704 7.53976 11.2934 7.53976C11.3164 7.53976 11.3352 7.57734 11.3352 7.62327ZM7.30559 7.62327C7.31979 7.64624 7.30208 7.66503 7.2663 7.66503C7.23051 7.66503 7.2012 7.64624 7.2012 7.62327C7.2012 7.6003 7.21886 7.58151 7.24049 7.58151C7.26212 7.58151 7.29139 7.6003 7.30559 7.62327ZM7.83069 7.63475C7.82551 7.68469 7.76826 7.67501 7.7503 7.62118C7.74112 7.59362 7.75615 7.57859 7.78371 7.58778C7.81127 7.59696 7.8324 7.61809 7.83069 7.63475ZM14.4669 7.68837C14.4669 7.72148 14.4481 7.74854 14.4252 7.74854C14.4022 7.74854 14.3834 7.70983 14.3834 7.66256C14.3834 7.61529 14.4022 7.58819 14.4252 7.60239C14.4481 7.61659 14.4669 7.65526 14.4669 7.68837ZM12.1077 7.66503C12.1219 7.68799 12.1135 7.70678 12.0892 7.70678C12.0649 7.70678 12.045 7.68799 12.045 7.66503C12.045 7.64206 12.0533 7.62327 12.0634 7.62327C12.0736 7.62327 12.0935 7.64206 12.1077 7.66503ZM14.634 7.68591C14.634 7.72035 14.6152 7.74854 14.5922 7.74854C14.5692 7.74854 14.5504 7.72035 14.5504 7.68591C14.5504 7.65146 14.5692 7.62327 14.5922 7.62327C14.6152 7.62327 14.634 7.65146 14.634 7.68591ZM3.64141 7.77288C3.60161 7.81268 3.52181 7.74825 3.5515 7.70027C3.56913 7.67175 3.59247 7.67246 3.62245 7.70244C3.64704 7.72704 3.65556 7.75873 3.64141 7.77288ZM4.14249 7.77288C4.1027 7.81268 4.0229 7.74825 4.05259 7.70027C4.07021 7.67175 4.09355 7.67246 4.12353 7.70244C4.14813 7.72704 4.15665 7.75873 4.14249 7.77288ZM12.8802 7.72766C12.8802 7.76211 12.8614 7.7903 12.8384 7.7903C12.8154 7.7903 12.7966 7.76211 12.7966 7.72766C12.7966 7.69321 12.8154 7.66503 12.8384 7.66503C12.8614 7.66503 12.8802 7.69321 12.8802 7.72766ZM13.0472 7.72766C13.0472 7.76211 13.0284 7.7903 13.0054 7.7903C12.9825 7.7903 12.9637 7.76211 12.9637 7.72766C12.9637 7.69321 12.9825 7.66503 13.0054 7.66503C13.0284 7.66503 13.0472 7.69321 13.0472 7.72766ZM5.86497 7.79865C5.86497 7.86609 5.85261 7.87815 5.8185 7.84404C5.79294 7.81848 5.78467 7.77714 5.80008 7.75217C5.8433 7.68227 5.86497 7.69781 5.86497 7.79865ZM6.04035 7.84041C6.00139 7.87937 5.99024 7.86826 5.99024 7.7903C5.99024 7.71234 6.00139 7.70123 6.04035 7.74019C6.07931 7.77915 6.07931 7.80145 6.04035 7.84041ZM10.5 7.7252C10.5 7.73535 10.4812 7.75522 10.4583 7.76942C10.4353 7.78362 10.4165 7.77531 10.4165 7.751C10.4165 7.7267 10.4353 7.70678 10.4583 7.70678C10.4812 7.70678 10.5 7.71505 10.5 7.7252ZM6.47412 7.90492C6.42853 7.95052 6.39725 7.87799 6.42999 7.80253C6.46105 7.731 6.46331 7.73104 6.4806 7.80399C6.49058 7.846 6.48765 7.89139 6.47412 7.90492ZM6.68291 7.90492C6.63731 7.95052 6.60604 7.87799 6.63877 7.80253C6.66984 7.731 6.67209 7.73104 6.68938 7.80399C6.69936 7.846 6.69644 7.89139 6.68291 7.90492ZM7.57701 7.78332C7.57701 7.83769 7.52736 7.87385 7.48698 7.84893C7.44381 7.82224 7.48106 7.74854 7.53772 7.74854C7.55935 7.74854 7.57701 7.7642 7.57701 7.78332ZM12.1077 7.83206C12.1219 7.85502 12.1135 7.87381 12.0892 7.87381C12.0649 7.87381 12.045 7.85502 12.045 7.83206C12.045 7.80909 12.0533 7.7903 12.0634 7.7903C12.0736 7.7903 12.0935 7.80909 12.1077 7.83206ZM3.65185 7.86684C3.65185 7.92121 3.6022 7.95737 3.56182 7.93244C3.51864 7.90576 3.55589 7.83206 3.61255 7.83206C3.63418 7.83206 3.65185 7.84771 3.65185 7.86684ZM3.90239 7.86684C3.90239 7.92121 3.85274 7.95737 3.81236 7.93244C3.76918 7.90576 3.80643 7.83206 3.86309 7.83206C3.88473 7.83206 3.90239 7.84771 3.90239 7.86684ZM4.40347 7.89715C4.40347 7.93294 4.38468 7.95065 4.36172 7.93645C4.33875 7.92225 4.31996 7.89298 4.31996 7.87135C4.31996 7.84972 4.33875 7.83206 4.36172 7.83206C4.38468 7.83206 4.40347 7.86137 4.40347 7.89715ZM9.03851 7.91803C9.03851 7.93966 9.01972 7.95733 8.99675 7.95733C8.97379 7.95733 8.955 7.92801 8.955 7.89223C8.955 7.85644 8.97379 7.83874 8.99675 7.85293C9.01972 7.86713 9.03851 7.8964 9.03851 7.91803ZM9.49784 7.89469C9.49784 7.92914 9.47905 7.95733 9.45608 7.95733C9.43312 7.95733 9.41433 7.92914 9.41433 7.89469C9.41433 7.86024 9.43312 7.83206 9.45608 7.83206C9.47905 7.83206 9.49784 7.86024 9.49784 7.89469ZM16.8053 7.91557C16.8053 7.9615 16.7865 7.99908 16.7636 7.99908C16.7406 7.99908 16.7218 7.9615 16.7218 7.91557C16.7218 7.86964 16.7406 7.83206 16.7636 7.83206C16.7865 7.83206 16.8053 7.86964 16.8053 7.91557ZM17.0559 7.91557C17.0559 7.9615 17.0371 7.99908 17.0141 7.99908C16.9912 7.99908 16.9724 7.9615 16.9724 7.91557C16.9724 7.86964 16.9912 7.83206 17.0141 7.83206C17.0371 7.83206 17.0559 7.86964 17.0559 7.91557ZM10.5 7.89223C10.5 7.90237 10.4812 7.92225 10.4583 7.93645C10.4353 7.95065 10.4165 7.94234 10.4165 7.91803C10.4165 7.89373 10.4353 7.87381 10.4583 7.87381C10.4812 7.87381 10.5 7.88208 10.5 7.89223ZM10.8341 7.9782C10.8341 8.03562 10.8153 8.0826 10.7923 8.0826C10.7693 8.0826 10.7506 8.03562 10.7506 7.9782C10.7506 7.92079 10.7693 7.87381 10.7923 7.87381C10.8153 7.87381 10.8341 7.92079 10.8341 7.9782ZM11.0846 8.00155C11.0846 8.04614 11.0658 8.0826 11.0429 8.0826C11.0199 8.0826 11.0011 8.03449 11.0011 7.97574C11.0011 7.91515 11.0192 7.88003 11.0429 7.89469C11.0658 7.90889 11.0846 7.95695 11.0846 8.00155ZM11.3352 7.9782C11.3352 8.03562 11.3164 8.0826 11.2934 8.0826C11.2468 8.0826 11.2361 7.94497 11.2795 7.90166C11.3255 7.85561 11.3352 7.86888 11.3352 7.9782ZM13.9241 7.93645C13.9241 7.9709 13.9053 7.99908 13.8823 7.99908C13.8594 7.99908 13.8406 7.9709 13.8406 7.93645C13.8406 7.902 13.8594 7.87381 13.8823 7.87381C13.9053 7.87381 13.9241 7.902 13.9241 7.93645ZM14.4335 8.00743C14.3946 8.04639 14.3834 8.03529 14.3834 7.95733C14.3834 7.87937 14.3946 7.86826 14.4335 7.90722C14.4725 7.94618 14.4725 7.96848 14.4335 8.00743ZM14.634 7.93645C14.634 7.9709 14.6152 7.99908 14.5922 7.99908C14.5692 7.99908 14.5504 7.9709 14.5504 7.93645C14.5504 7.902 14.5692 7.87381 14.5922 7.87381C14.6152 7.87381 14.634 7.902 14.634 7.93645ZM7.28784 7.96881C7.28267 8.01875 7.22542 8.00906 7.20746 7.95524C7.19828 7.92768 7.21331 7.91265 7.24087 7.92183C7.26843 7.93102 7.28956 7.95215 7.28784 7.96881ZM12.7131 8.00155C12.7131 8.02318 12.6943 8.04084 12.6714 8.04084C12.6484 8.04084 12.6296 8.01153 12.6296 7.97574C12.6296 7.93996 12.6484 7.92225 12.6714 7.93645C12.6943 7.95065 12.7131 7.97992 12.7131 8.00155ZM12.8802 7.97574C12.8802 8.00885 12.8614 8.04752 12.8384 8.06172C12.8154 8.07592 12.7966 8.04882 12.7966 8.00155C12.7966 7.95428 12.8154 7.91557 12.8384 7.91557C12.8614 7.91557 12.8802 7.94263 12.8802 7.97574ZM13.0472 8.00743C13.0472 8.07487 13.0348 8.08694 13.0007 8.05282C12.9752 8.02727 12.9669 7.98593 12.9823 7.96096C13.0255 7.89106 13.0472 7.90659 13.0472 8.00743ZM3.90239 8.04084C3.90239 8.06381 3.87308 8.0826 3.83729 8.0826C3.8015 8.0826 3.7838 8.06381 3.798 8.04084C3.81219 8.01787 3.84146 7.99908 3.86309 7.99908C3.88473 7.99908 3.90239 8.01787 3.90239 8.04084ZM4.40347 8.04084C4.40347 8.06381 4.38468 8.0826 4.36172 8.0826C4.33875 8.0826 4.31996 8.06381 4.31996 8.04084C4.31996 8.01787 4.33875 7.99908 4.36172 7.99908C4.38468 7.99908 4.40347 8.01787 4.40347 8.04084ZM5.86497 8.06172C5.86497 8.09617 5.84618 8.12435 5.82321 8.12435C5.80025 8.12435 5.78146 8.09617 5.78146 8.06172C5.78146 8.02727 5.80025 7.99908 5.82321 7.99908C5.84618 7.99908 5.86497 8.02727 5.86497 8.06172ZM10.3747 8.04084C10.3747 8.06381 10.3559 8.0826 10.333 8.0826C10.31 8.0826 10.2912 8.06381 10.2912 8.04084C10.2912 8.01787 10.31 7.99908 10.333 7.99908C10.3559 7.99908 10.3747 8.01787 10.3747 8.04084ZM9.66487 8.0826C9.66487 8.10556 9.64608 8.12435 9.62311 8.12435C9.60014 8.12435 9.58135 8.10556 9.58135 8.0826C9.58135 8.05963 9.60014 8.04084 9.62311 8.04084C9.64608 8.04084 9.66487 8.05963 9.66487 8.0826ZM7.86931 8.14523C7.86931 8.17968 7.85052 8.20787 7.82756 8.20787C7.80459 8.20787 7.7858 8.17968 7.7858 8.14523C7.7858 8.11078 7.80459 8.0826 7.82756 8.0826C7.85052 8.0826 7.86931 8.11078 7.86931 8.14523ZM15.4691 8.12435C15.4691 8.14732 15.4608 8.16611 15.4507 8.16611C15.4405 8.16611 15.4207 8.14732 15.4065 8.12435C15.3923 8.10139 15.4006 8.0826 15.4249 8.0826C15.4492 8.0826 15.4691 8.10139 15.4691 8.12435ZM13.7153 8.18945C13.7153 8.22524 13.6962 8.24274 13.6729 8.22833C13.6495 8.21388 13.6412 8.18461 13.6545 8.16323C13.6903 8.10531 13.7153 8.11609 13.7153 8.18945ZM13.9241 8.18699C13.9241 8.22144 13.9053 8.24963 13.8823 8.24963C13.8594 8.24963 13.8406 8.22144 13.8406 8.18699C13.8406 8.15254 13.8594 8.12435 13.8823 8.12435C13.9053 8.12435 13.9241 8.15254 13.9241 8.18699ZM14.801 8.21622C14.801 8.28366 14.7886 8.29573 14.7545 8.26161C14.729 8.23606 14.7207 8.19472 14.7361 8.16974C14.7793 8.09984 14.801 8.11538 14.801 8.21622ZM3.65185 8.20787C3.65185 8.23084 3.63418 8.24963 3.61255 8.24963C3.59092 8.24963 3.56165 8.23084 3.54745 8.20787C3.53326 8.1849 3.55096 8.16611 3.58675 8.16611C3.62253 8.16611 3.65185 8.1849 3.65185 8.20787ZM4.15293 8.20787C4.15293 8.23084 4.13527 8.24963 4.11364 8.24963C4.09201 8.24963 4.06274 8.23084 4.04854 8.20787C4.03434 8.1849 4.05205 8.16611 4.08783 8.16611C4.12362 8.16611 4.15293 8.1849 4.15293 8.20787ZM10.4791 8.20787C10.4933 8.23084 10.485 8.24963 10.4607 8.24963C10.4364 8.24963 10.4165 8.23084 10.4165 8.20787C10.4165 8.1849 10.4248 8.16611 10.4349 8.16611C10.4451 8.16611 10.4649 8.1849 10.4791 8.20787ZM16.5965 8.24963C16.5965 8.29556 16.5778 8.33314 16.5548 8.33314C16.5318 8.33314 16.513 8.29556 16.513 8.24963C16.513 8.20369 16.5318 8.16611 16.5548 8.16611C16.5778 8.16611 16.5965 8.20369 16.5965 8.24963ZM17.0559 8.24963C17.0559 8.29556 17.0371 8.33314 17.0141 8.33314C16.9912 8.33314 16.9724 8.29556 16.9724 8.24963C16.9724 8.20369 16.9912 8.16611 17.0141 8.16611C17.0371 8.16611 17.0559 8.20369 17.0559 8.24963ZM6.24079 8.3356C6.24079 8.38287 6.222 8.40997 6.19903 8.39578C6.17606 8.38158 6.15727 8.34291 6.15727 8.3098C6.15727 8.27668 6.17606 8.24963 6.19903 8.24963C6.222 8.24963 6.24079 8.28834 6.24079 8.3356ZM7.29098 8.31226C7.29098 8.33406 7.27077 8.35865 7.24609 8.36688C7.22141 8.37511 7.2012 8.35055 7.2012 8.31226C7.2012 8.27397 7.22141 8.24942 7.24609 8.25764C7.27077 8.26587 7.29098 8.29046 7.29098 8.31226ZM7.57701 8.31226C7.57701 8.34671 7.55935 8.3749 7.53772 8.3749C7.48506 8.3749 7.44736 8.30967 7.48072 8.27631C7.52774 8.22929 7.57701 8.24771 7.57701 8.31226ZM10.8341 8.35402C10.8341 8.41143 10.8153 8.45841 10.7923 8.45841C10.7693 8.45841 10.7506 8.41143 10.7506 8.35402C10.7506 8.2966 10.7693 8.24963 10.7923 8.24963C10.8153 8.24963 10.8341 8.2966 10.8341 8.35402ZM15.4691 8.29138C15.4691 8.31435 15.4608 8.33314 15.4507 8.33314C15.4405 8.33314 15.4207 8.31435 15.4065 8.29138C15.3923 8.26842 15.4006 8.24963 15.4249 8.24963C15.4492 8.24963 15.4691 8.26842 15.4691 8.29138ZM3.64141 8.39924C3.60161 8.43904 3.52181 8.3746 3.5515 8.32663C3.56913 8.29811 3.59247 8.29882 3.62245 8.3288C3.64704 8.35339 3.65556 8.38509 3.64141 8.39924ZM3.89195 8.39924C3.85215 8.43904 3.77236 8.3746 3.80205 8.32663C3.81967 8.29811 3.84301 8.29882 3.87299 8.3288C3.89759 8.35339 3.9061 8.38509 3.89195 8.39924ZM4.14249 8.39924C4.1027 8.43904 4.0229 8.3746 4.05259 8.32663C4.07021 8.29811 4.09355 8.29882 4.12353 8.3288C4.14813 8.35339 4.15665 8.38509 4.14249 8.39924ZM4.40347 8.35402C4.40347 8.38847 4.38581 8.41665 4.36418 8.41665C4.31152 8.41665 4.27382 8.35143 4.30718 8.31807C4.3542 8.27105 4.40347 8.28946 4.40347 8.35402ZM10.3747 8.3749C10.3747 8.39786 10.3559 8.41665 10.333 8.41665C10.31 8.41665 10.2912 8.39786 10.2912 8.3749C10.2912 8.35193 10.31 8.33314 10.333 8.33314C10.3559 8.33314 10.3747 8.35193 10.3747 8.3749ZM13.9241 8.45841C13.9241 8.50434 13.9053 8.54193 13.8823 8.54193C13.8594 8.54193 13.8406 8.50434 13.8406 8.45841C13.8406 8.41248 13.8594 8.3749 13.8823 8.3749C13.9053 8.3749 13.9241 8.41248 13.9241 8.45841ZM14.7838 8.53128C14.7382 8.57688 14.7069 8.50434 14.7396 8.42889C14.7707 8.35736 14.773 8.3574 14.7903 8.43035C14.8002 8.47236 14.7973 8.51775 14.7838 8.53128ZM15.5944 8.41665C15.5944 8.43962 15.5756 8.45841 15.5526 8.45841C15.5297 8.45841 15.5109 8.43962 15.5109 8.41665C15.5109 8.39369 15.5297 8.3749 15.5526 8.3749C15.5756 8.3749 15.5944 8.39369 15.5944 8.41665ZM7.57701 8.47929C7.57701 8.51374 7.55935 8.54193 7.53772 8.54193C7.48506 8.54193 7.44736 8.4767 7.48072 8.44334C7.52774 8.39632 7.57701 8.41473 7.57701 8.47929ZM7.86931 8.47929C7.86931 8.51374 7.85052 8.54193 7.82756 8.54193C7.80459 8.54193 7.7858 8.51374 7.7858 8.47929C7.7858 8.44484 7.80459 8.41665 7.82756 8.41665C7.85052 8.41665 7.86931 8.44484 7.86931 8.47929ZM9.49784 8.47929C9.49784 8.51374 9.47905 8.54193 9.45608 8.54193C9.43312 8.54193 9.41433 8.51374 9.41433 8.47929C9.41433 8.44484 9.43312 8.41665 9.45608 8.41665C9.47905 8.41665 9.49784 8.44484 9.49784 8.47929ZM14.4669 8.47929C14.4669 8.51374 14.4481 8.54193 14.4252 8.54193C14.4022 8.54193 14.3834 8.51374 14.3834 8.47929C14.3834 8.44484 14.4022 8.41665 14.4252 8.41665C14.4481 8.41665 14.4669 8.44484 14.4669 8.47929ZM14.634 8.47929C14.634 8.51374 14.6152 8.54193 14.5922 8.54193C14.5692 8.54193 14.5504 8.51374 14.5504 8.47929C14.5504 8.44484 14.5692 8.41665 14.5922 8.41665C14.6152 8.41665 14.634 8.44484 14.634 8.47929ZM3.90239 8.52105C3.90239 8.5555 3.88473 8.58368 3.86309 8.58368C3.81044 8.58368 3.77273 8.51846 3.8061 8.48509C3.85312 8.43808 3.90239 8.45649 3.90239 8.52105ZM4.15293 8.52105C4.15293 8.5555 4.13527 8.58368 4.11364 8.58368C4.06098 8.58368 4.02328 8.51846 4.05664 8.48509C4.10366 8.43808 4.15293 8.45649 4.15293 8.52105ZM4.40347 8.52105C4.40347 8.5555 4.38581 8.58368 4.36418 8.58368C4.31152 8.58368 4.27382 8.51846 4.30718 8.48509C4.3542 8.43808 4.40347 8.45649 4.40347 8.52105ZM4.65402 8.52105C4.65402 8.5555 4.63523 8.58368 4.61226 8.58368C4.58929 8.58368 4.5705 8.5555 4.5705 8.52105C4.5705 8.4866 4.58929 8.45841 4.61226 8.45841C4.63523 8.45841 4.65402 8.4866 4.65402 8.52105ZM12.7131 8.52105C12.7131 8.5555 12.6943 8.58368 12.6714 8.58368C12.6484 8.58368 12.6296 8.5555 12.6296 8.52105C12.6296 8.4866 12.6484 8.45841 12.6714 8.45841C12.6943 8.45841 12.7131 8.4866 12.7131 8.52105ZM13.0472 8.52105C13.0472 8.5555 13.0284 8.58368 13.0054 8.58368C12.9825 8.58368 12.9637 8.5555 12.9637 8.52105C12.9637 8.4866 12.9825 8.45841 13.0054 8.45841C13.0284 8.45841 13.0472 8.4866 13.0472 8.52105ZM16.5965 8.60456C16.5965 8.6363 16.5778 8.67388 16.5548 8.68808C16.531 8.70277 16.513 8.66682 16.513 8.60456C16.513 8.5423 16.531 8.50635 16.5548 8.52105C16.5778 8.53524 16.5965 8.57283 16.5965 8.60456ZM16.8053 8.61291C16.8053 8.69689 16.7933 8.71359 16.758 8.67835C16.732 8.65233 16.722 8.6016 16.7358 8.5656C16.7741 8.46601 16.8053 8.48727 16.8053 8.61291ZM17.0559 8.61291C17.0559 8.69689 17.0438 8.71359 17.0086 8.67835C16.9825 8.65233 16.9726 8.6016 16.9864 8.5656C17.0246 8.46601 17.0559 8.48727 17.0559 8.61291ZM5.84777 8.69831C5.80217 8.7439 5.77089 8.67137 5.80363 8.59592C5.8347 8.52439 5.83695 8.52443 5.85424 8.59738C5.86422 8.63939 5.8613 8.68478 5.84777 8.69831ZM15.4691 8.58368C15.4691 8.60665 15.4492 8.62544 15.4249 8.62544C15.4006 8.62544 15.3923 8.60665 15.4065 8.58368C15.4207 8.56072 15.4405 8.54193 15.4507 8.54193C15.4608 8.54193 15.4691 8.56072 15.4691 8.58368ZM15.5944 8.58368C15.5944 8.60665 15.5756 8.62544 15.5526 8.62544C15.5297 8.62544 15.5109 8.60665 15.5109 8.58368C15.5109 8.56072 15.5297 8.54193 15.5526 8.54193C15.5756 8.54193 15.5944 8.56072 15.5944 8.58368ZM15.6988 8.58368C15.713 8.60665 15.7047 8.62544 15.6804 8.62544C15.6561 8.62544 15.6361 8.60665 15.6361 8.58368C15.6361 8.56072 15.6444 8.54193 15.6545 8.54193C15.6647 8.54193 15.6846 8.56072 15.6988 8.58368ZM7.29098 8.64632C7.29098 8.66812 7.27077 8.69271 7.24609 8.70094C7.22141 8.70916 7.2012 8.68461 7.2012 8.64632C7.2012 8.60803 7.22141 8.58347 7.24609 8.5917C7.27077 8.59993 7.29098 8.62452 7.29098 8.64632ZM4.15293 8.66022C4.15293 8.71459 4.10328 8.75075 4.0629 8.72582C4.01973 8.69914 4.05697 8.62544 4.11364 8.62544C4.13527 8.62544 4.15293 8.6411 4.15293 8.66022ZM4.65402 8.69054C4.65402 8.72633 4.63523 8.74403 4.61226 8.72983C4.58929 8.71564 4.5705 8.68636 4.5705 8.66473C4.5705 8.6431 4.58929 8.62544 4.61226 8.62544C4.63523 8.62544 4.65402 8.65475 4.65402 8.69054ZM11.0846 8.70649C11.0846 8.75109 11.0658 8.79915 11.0429 8.81335C11.0192 8.828 11.0011 8.79289 11.0011 8.7323C11.0011 8.67354 11.0199 8.62544 11.0429 8.62544C11.0658 8.62544 11.0846 8.66189 11.0846 8.70649ZM10.3747 8.70895C10.3747 8.73192 10.3559 8.75071 10.333 8.75071C10.31 8.75071 10.2912 8.73192 10.2912 8.70895C10.2912 8.68599 10.31 8.6672 10.333 8.6672C10.3559 8.6672 10.3747 8.68599 10.3747 8.70895ZM13.9241 8.72983C13.9241 8.76428 13.9053 8.79247 13.8823 8.79247C13.8594 8.79247 13.8406 8.76428 13.8406 8.72983C13.8406 8.69538 13.8594 8.6672 13.8823 8.6672C13.9053 8.6672 13.9241 8.69538 13.9241 8.72983ZM14.4335 8.80082C14.3946 8.83978 14.3834 8.82867 14.3834 8.75071C14.3834 8.67275 14.3946 8.66164 14.4335 8.7006C14.4725 8.73956 14.4725 8.76186 14.4335 8.80082ZM14.634 8.72983C14.634 8.76428 14.6152 8.79247 14.5922 8.79247C14.5692 8.79247 14.5504 8.76428 14.5504 8.72983C14.5504 8.69538 14.5692 8.6672 14.5922 8.6672C14.6152 8.6672 14.634 8.69538 14.634 8.72983ZM5.05505 8.82291C5.01263 8.86538 4.97759 8.80145 5.01242 8.74512C5.03872 8.70252 5.04858 8.70252 5.06269 8.74495C5.07238 8.77397 5.06891 8.80905 5.05505 8.82291ZM5.22208 8.82291C5.17965 8.86538 5.14462 8.80145 5.17945 8.74512C5.20575 8.70252 5.21561 8.70252 5.22972 8.74495C5.23941 8.77397 5.23594 8.80905 5.22208 8.82291ZM9.20554 8.74825C9.20554 8.76988 9.18675 8.79915 9.16378 8.81335C9.14082 8.82754 9.12203 8.80984 9.12203 8.77405C9.12203 8.73827 9.14082 8.70895 9.16378 8.70895C9.18675 8.70895 9.20554 8.72662 9.20554 8.74825ZM9.37257 8.74825C9.37257 8.76988 9.35378 8.79915 9.33081 8.81335C9.30784 8.82754 9.28905 8.80984 9.28905 8.77405C9.28905 8.73827 9.30784 8.70895 9.33081 8.70895C9.35378 8.70895 9.37257 8.72662 9.37257 8.74825ZM12.7131 8.79493C12.7131 8.81656 12.6943 8.83423 12.6714 8.83423C12.6484 8.83423 12.6296 8.80491 12.6296 8.76913C12.6296 8.73334 12.6484 8.71564 12.6714 8.72983C12.6943 8.74403 12.7131 8.7733 12.7131 8.79493ZM13.0307 8.82291C12.9882 8.86538 12.9532 8.80145 12.988 8.74512C13.0143 8.70252 13.0242 8.70252 13.0383 8.74495C13.048 8.77397 13.0445 8.80905 13.0307 8.82291ZM15.4691 8.75071C15.4691 8.77368 15.4492 8.79247 15.4249 8.79247C15.4006 8.79247 15.3923 8.77368 15.4065 8.75071C15.4207 8.72774 15.4405 8.70895 15.4507 8.70895C15.4608 8.70895 15.4691 8.72774 15.4691 8.75071ZM15.6988 8.75071C15.713 8.77368 15.7047 8.79247 15.6804 8.79247C15.6561 8.79247 15.6361 8.77368 15.6361 8.75071C15.6361 8.72774 15.6444 8.70895 15.6545 8.70895C15.6647 8.70895 15.6846 8.72774 15.6988 8.75071ZM7.28906 8.84659C7.23544 8.9002 7.18111 8.85878 7.22078 8.79456C7.23615 8.76971 7.26784 8.76119 7.29123 8.77564C7.31975 8.79326 7.31904 8.8166 7.28906 8.84659ZM7.86931 8.81335C7.86931 8.8478 7.85052 8.87598 7.82756 8.87598C7.80459 8.87598 7.7858 8.8478 7.7858 8.81335C7.7858 8.7789 7.80459 8.75071 7.82756 8.75071C7.85052 8.75071 7.86931 8.7789 7.86931 8.81335ZM3.90239 8.83423C3.90239 8.85719 3.87308 8.87598 3.83729 8.87598C3.8015 8.87598 3.7838 8.85719 3.798 8.83423C3.81219 8.81126 3.84146 8.79247 3.86309 8.79247C3.88473 8.79247 3.90239 8.81126 3.90239 8.83423ZM4.40347 8.83423C4.40347 8.85719 4.37416 8.87598 4.33837 8.87598C4.30259 8.87598 4.28488 8.85719 4.29908 8.83423C4.31328 8.81126 4.34255 8.79247 4.36418 8.79247C4.38581 8.79247 4.40347 8.81126 4.40347 8.83423ZM5.86497 8.89686C5.86497 8.93131 5.84618 8.9595 5.82321 8.9595C5.80025 8.9595 5.78146 8.93131 5.78146 8.89686C5.78146 8.86241 5.80025 8.83423 5.82321 8.83423C5.84618 8.83423 5.86497 8.86241 5.86497 8.89686ZM6.032 8.89686C6.032 8.93131 6.01321 8.9595 5.99024 8.9595C5.96728 8.9595 5.94849 8.93131 5.94849 8.89686C5.94849 8.86241 5.96728 8.83423 5.99024 8.83423C6.01321 8.83423 6.032 8.86241 6.032 8.89686ZM15.7196 8.91774C15.7196 8.94071 15.7009 8.9595 15.6779 8.9595C15.6549 8.9595 15.6361 8.94071 15.6361 8.91774C15.6361 8.89477 15.6549 8.87598 15.6779 8.87598C15.7009 8.87598 15.7196 8.89477 15.7196 8.91774ZM16.8053 8.9595C16.8053 9.00543 16.7865 9.04301 16.7636 9.04301C16.7406 9.04301 16.7218 9.00543 16.7218 8.9595C16.7218 8.91356 16.7406 8.87598 16.7636 8.87598C16.7865 8.87598 16.8053 8.91356 16.8053 8.9595ZM7.56657 9.0256C7.52678 9.06539 7.44698 9.00096 7.47667 8.95298C7.49429 8.92446 7.51763 8.92517 7.54762 8.95515C7.57221 8.97975 7.58073 9.01144 7.56657 9.0256ZM7.86931 8.98038C7.86931 9.01482 7.85052 9.04301 7.82756 9.04301C7.80459 9.04301 7.7858 9.01482 7.7858 8.98038C7.7858 8.94593 7.80459 8.91774 7.82756 8.91774C7.85052 8.91774 7.86931 8.94593 7.86931 8.98038ZM9.20554 8.98038C9.20554 9.01482 9.18675 9.04301 9.16378 9.04301C9.14082 9.04301 9.12203 9.01482 9.12203 8.98038C9.12203 8.94593 9.14082 8.91774 9.16378 8.91774C9.18675 8.91774 9.20554 8.94593 9.20554 8.98038ZM9.49784 8.98038C9.49784 9.01482 9.47905 9.04301 9.45608 9.04301C9.43312 9.04301 9.41433 9.01482 9.41433 8.98038C9.41433 8.94593 9.43312 8.91774 9.45608 8.91774C9.47905 8.91774 9.49784 8.94593 9.49784 8.98038ZM14.0911 8.98038C14.0911 9.01482 14.0723 9.04301 14.0494 9.04301C14.0264 9.04301 14.0076 9.01482 14.0076 8.98038C14.0076 8.94593 14.0264 8.91774 14.0494 8.91774C14.0723 8.91774 14.0911 8.94593 14.0911 8.98038ZM3.65185 9.00125C3.65185 9.02422 3.63418 9.04301 3.61255 9.04301C3.59092 9.04301 3.56165 9.02422 3.54745 9.00125C3.53326 8.97829 3.55096 8.9595 3.58675 8.9595C3.62253 8.9595 3.65185 8.97829 3.65185 9.00125ZM3.90239 9.00125C3.90239 9.02422 3.88473 9.04301 3.86309 9.04301C3.84146 9.04301 3.81219 9.02422 3.798 9.00125C3.7838 8.97829 3.8015 8.9595 3.83729 8.9595C3.87308 8.9595 3.90239 8.97829 3.90239 9.00125ZM4.15293 9.00125C4.15293 9.02422 4.13527 9.04301 4.11364 9.04301C4.09201 9.04301 4.06274 9.02422 4.04854 9.00125C4.03434 8.97829 4.05205 8.9595 4.08783 8.9595C4.12362 8.9595 4.15293 8.97829 4.15293 9.00125ZM4.40347 9.00125C4.40347 9.02422 4.38581 9.04301 4.36418 9.04301C4.34255 9.04301 4.31328 9.02422 4.29908 9.00125C4.28488 8.97829 4.30259 8.9595 4.33837 8.9595C4.37416 8.9595 4.40347 8.97829 4.40347 9.00125ZM4.65402 9.00125C4.65402 9.02422 4.63523 9.04301 4.61226 9.04301C4.58929 9.04301 4.5705 9.02422 4.5705 9.00125C4.5705 8.97829 4.58929 8.9595 4.61226 8.9595C4.63523 8.9595 4.65402 8.97829 4.65402 9.00125ZM5.07159 9.0246C5.07159 9.06038 5.0528 9.07809 5.02983 9.06389C5.00686 9.04969 4.98807 9.02042 4.98807 8.99879C4.98807 8.97716 5.00686 8.9595 5.02983 8.9595C5.0528 8.9595 5.07159 8.98881 5.07159 9.0246ZM5.23862 9.0246C5.23862 9.06038 5.21982 9.07809 5.19686 9.06389C5.17389 9.04969 5.1551 9.02042 5.1551 8.99879C5.1551 8.97716 5.17389 8.9595 5.19686 8.9595C5.21982 8.9595 5.23862 8.98881 5.23862 9.0246ZM12.8802 9.06635C12.8802 9.09947 12.8614 9.12653 12.8384 9.12653C12.8154 9.12653 12.7966 9.08782 12.7966 9.04055C12.7966 8.99328 12.8154 8.96618 12.8384 8.98038C12.8614 8.99457 12.8802 9.03324 12.8802 9.06635ZM13.0472 9.06389C13.0472 9.09834 13.0284 9.12653 13.0054 9.12653C12.9825 9.12653 12.9637 9.09834 12.9637 9.06389C12.9637 9.02944 12.9825 9.00125 13.0054 9.00125C13.0284 9.00125 13.0472 9.02944 13.0472 9.06389ZM3.89195 9.19263C3.85215 9.23242 3.77236 9.16799 3.80205 9.12001C3.81967 9.09149 3.84301 9.0922 3.87299 9.12218C3.89759 9.14678 3.9061 9.17847 3.89195 9.19263ZM4.39303 9.19263C4.35324 9.23242 4.27344 9.16799 4.30313 9.12001C4.32075 9.09149 4.34409 9.0922 4.37408 9.12218C4.39867 9.14678 4.40719 9.17847 4.39303 9.19263ZM10.8341 9.18916C10.8341 9.24658 10.8153 9.29355 10.7923 9.29355C10.7693 9.29355 10.7506 9.24658 10.7506 9.18916C10.7506 9.13174 10.7693 9.08477 10.7923 9.08477C10.8153 9.08477 10.8341 9.13174 10.8341 9.18916ZM11.3352 9.18916C11.3352 9.24658 11.3164 9.29355 11.2934 9.29355C11.2704 9.29355 11.2516 9.24658 11.2516 9.18916C11.2516 9.13174 11.2704 9.08477 11.2934 9.08477C11.3164 9.08477 11.3352 9.13174 11.3352 9.18916ZM13.9241 9.23092C13.9241 9.26537 13.9053 9.29355 13.8823 9.29355C13.8594 9.29355 13.8406 9.26537 13.8406 9.23092C13.8406 9.19647 13.8594 9.16828 13.8823 9.16828C13.9053 9.16828 13.9241 9.19647 13.9241 9.23092ZM14.0911 9.26015C14.0911 9.32759 14.0788 9.33965 14.0446 9.30554C14.0191 9.27998 14.0108 9.23864 14.0262 9.21367C14.0694 9.14377 14.0911 9.1593 14.0911 9.26015ZM5.23862 9.2518C5.23862 9.27476 5.21982 9.29355 5.19686 9.29355C5.17389 9.29355 5.1551 9.27476 5.1551 9.2518C5.1551 9.22883 5.17389 9.21004 5.19686 9.21004C5.21982 9.21004 5.23862 9.22883 5.23862 9.2518ZM14.634 9.27267C14.634 9.30712 14.6152 9.33531 14.5922 9.33531C14.5692 9.33531 14.5504 9.30712 14.5504 9.27267C14.5504 9.23823 14.5692 9.21004 14.5922 9.21004C14.6152 9.21004 14.634 9.23823 14.634 9.27267ZM16.5965 9.29355C16.5965 9.33949 16.5778 9.37707 16.5548 9.37707C16.5318 9.37707 16.513 9.33949 16.513 9.29355C16.513 9.24762 16.5318 9.21004 16.5548 9.21004C16.5778 9.21004 16.5965 9.24762 16.5965 9.29355ZM17.0559 9.29355C17.0559 9.33949 17.0371 9.37707 17.0141 9.37707C16.9912 9.37707 16.9724 9.33949 16.9724 9.29355C16.9724 9.24762 16.9912 9.21004 17.0141 9.21004C17.0371 9.21004 17.0559 9.24762 17.0559 9.29355ZM4.15293 9.28658C4.15293 9.34095 4.10328 9.37711 4.0629 9.35218C4.01973 9.3255 4.05697 9.2518 4.11364 9.2518C4.13527 9.2518 4.15293 9.26745 4.15293 9.28658ZM4.65402 9.3169C4.65402 9.35268 4.63523 9.37039 4.61226 9.35619C4.58929 9.34199 4.5705 9.31272 4.5705 9.29109C4.5705 9.26946 4.58929 9.2518 4.61226 9.2518C4.63523 9.2518 4.65402 9.28111 4.65402 9.3169ZM12.7131 9.31443C12.7131 9.34888 12.6943 9.37707 12.6714 9.37707C12.6484 9.37707 12.6296 9.34888 12.6296 9.31443C12.6296 9.27998 12.6484 9.2518 12.6714 9.2518C12.6943 9.2518 12.7131 9.27998 12.7131 9.31443ZM13.0472 9.31443C13.0472 9.34888 13.0284 9.37707 13.0054 9.37707C12.9825 9.37707 12.9637 9.34888 12.9637 9.31443C12.9637 9.27998 12.9825 9.2518 13.0054 9.2518C13.0284 9.2518 13.0472 9.27998 13.0472 9.31443ZM15.824 9.37707C15.8382 9.40003 15.8299 9.41882 15.8056 9.41882C15.7813 9.41882 15.7614 9.40003 15.7614 9.37707C15.7614 9.3541 15.7697 9.33531 15.7798 9.33531C15.79 9.33531 15.8098 9.3541 15.824 9.37707ZM3.90239 9.46058C3.90239 9.48355 3.87308 9.50234 3.83729 9.50234C3.8015 9.50234 3.7838 9.48355 3.798 9.46058C3.81219 9.43762 3.84146 9.41882 3.86309 9.41882C3.88473 9.41882 3.90239 9.43762 3.90239 9.46058ZM4.15293 9.46058C4.15293 9.48355 4.12362 9.50234 4.08783 9.50234C4.05205 9.50234 4.03434 9.48355 4.04854 9.46058C4.06274 9.43762 4.09201 9.41882 4.11364 9.41882C4.13527 9.41882 4.15293 9.43762 4.15293 9.46058ZM4.40347 9.46058C4.40347 9.48355 4.37416 9.50234 4.33837 9.50234C4.30259 9.50234 4.28488 9.48355 4.29908 9.46058C4.31328 9.43762 4.34255 9.41882 4.36418 9.41882C4.38581 9.41882 4.40347 9.43762 4.40347 9.46058ZM4.65402 9.46058C4.65402 9.48355 4.63523 9.50234 4.61226 9.50234C4.58929 9.50234 4.5705 9.48355 4.5705 9.46058C4.5705 9.43762 4.58929 9.41882 4.61226 9.41882C4.63523 9.41882 4.65402 9.43762 4.65402 9.46058ZM5.22208 9.53278C5.17965 9.57525 5.14462 9.51132 5.17945 9.45499C5.20575 9.41239 5.21561 9.41239 5.22972 9.45482C5.23941 9.48384 5.23594 9.51892 5.22208 9.53278ZM5.07159 9.50234C5.07159 9.52531 5.0528 9.5441 5.02983 9.5441C5.00686 9.5441 4.98807 9.52531 4.98807 9.50234C4.98807 9.47937 5.00686 9.46058 5.02983 9.46058C5.0528 9.46058 5.07159 9.47937 5.07159 9.50234ZM10.8341 9.56497C10.8341 9.62239 10.8153 9.66937 10.7923 9.66937C10.7693 9.66937 10.7506 9.62239 10.7506 9.56497C10.7506 9.50756 10.7693 9.46058 10.7923 9.46058C10.8153 9.46058 10.8341 9.50756 10.8341 9.56497ZM11.0846 9.54163C11.0846 9.58623 11.0658 9.63429 11.0429 9.64849C11.0192 9.66315 11.0011 9.62803 11.0011 9.56744C11.0011 9.50869 11.0199 9.46058 11.0429 9.46058C11.0658 9.46058 11.0846 9.49704 11.0846 9.54163ZM11.3352 9.56744C11.3352 9.62803 11.3171 9.66315 11.2934 9.64849C11.2704 9.63429 11.2516 9.58623 11.2516 9.54163C11.2516 9.49704 11.2704 9.46058 11.2934 9.46058C11.3164 9.46058 11.3352 9.50869 11.3352 9.56744ZM13.9241 9.52322C13.9241 9.55767 13.9053 9.58585 13.8823 9.58585C13.8594 9.58585 13.8406 9.55767 13.8406 9.52322C13.8406 9.48877 13.8594 9.46058 13.8823 9.46058C13.9053 9.46058 13.9241 9.48877 13.9241 9.52322ZM14.4335 9.5942C14.3946 9.63316 14.3834 9.62206 14.3834 9.5441C14.3834 9.46614 14.3946 9.45503 14.4335 9.49399C14.4725 9.53295 14.4725 9.55524 14.4335 9.5942ZM14.634 9.52322C14.634 9.55767 14.6152 9.58585 14.5922 9.58585C14.5692 9.58585 14.5504 9.55767 14.5504 9.52322C14.5504 9.48877 14.5692 9.46058 14.5922 9.46058C14.6152 9.46058 14.634 9.48877 14.634 9.52322ZM14.801 9.52075C14.801 9.55387 14.7822 9.59253 14.7592 9.60673C14.7363 9.62093 14.7175 9.59383 14.7175 9.54656C14.7175 9.49929 14.7363 9.46058 14.7592 9.46058C14.7822 9.46058 14.801 9.48764 14.801 9.52075ZM2.58483 9.5894C2.57138 9.61116 2.54261 9.61796 2.52086 9.60452C2.4991 9.59107 2.49229 9.5623 2.50574 9.54055C2.51918 9.51879 2.54796 9.51198 2.56971 9.52543C2.59147 9.53888 2.59827 9.56765 2.58483 9.5894ZM12.7131 9.58832C12.7131 9.60995 12.6943 9.62761 12.6714 9.62761C12.6484 9.62761 12.6296 9.5983 12.6296 9.56251C12.6296 9.52672 12.6484 9.50902 12.6714 9.52322C12.6943 9.53741 12.7131 9.56669 12.7131 9.58832ZM12.8802 9.56251C12.8802 9.59562 12.8614 9.63429 12.8384 9.64849C12.8154 9.66269 12.7966 9.63559 12.7966 9.58832C12.7966 9.54105 12.8154 9.50234 12.8384 9.50234C12.8614 9.50234 12.8802 9.5294 12.8802 9.56251ZM13.0307 9.61629C12.9882 9.65876 12.9532 9.59483 12.988 9.5385C13.0143 9.49591 13.0242 9.49591 13.0383 9.53833C13.048 9.56735 13.0445 9.60243 13.0307 9.61629ZM15.824 9.5441C15.8382 9.56706 15.8299 9.58585 15.8056 9.58585C15.7813 9.58585 15.7614 9.56706 15.7614 9.5441C15.7614 9.52113 15.7697 9.50234 15.7798 9.50234C15.79 9.50234 15.8098 9.52113 15.824 9.5441ZM16.5965 9.64849C16.5965 9.68022 16.5778 9.71781 16.5548 9.732C16.531 9.7467 16.513 9.71075 16.513 9.64849C16.513 9.58623 16.531 9.55028 16.5548 9.56497C16.5778 9.57917 16.5965 9.61675 16.5965 9.64849ZM16.8053 9.65684C16.8053 9.74081 16.7933 9.75752 16.758 9.72227C16.732 9.69626 16.722 9.64552 16.7358 9.60953C16.7741 9.50994 16.8053 9.53119 16.8053 9.65684ZM17.0559 9.65684C17.0559 9.74081 17.0438 9.75752 17.0086 9.72227C16.9825 9.69626 16.9726 9.64552 16.9864 9.60953C17.0246 9.50994 17.0559 9.53119 17.0559 9.65684ZM3.65185 9.62761C3.65185 9.65058 3.62366 9.66937 3.58921 9.66937C3.55476 9.66937 3.52657 9.65058 3.52657 9.62761C3.52657 9.60464 3.55476 9.58585 3.58921 9.58585C3.62366 9.58585 3.65185 9.60464 3.65185 9.62761ZM3.90239 9.62761C3.90239 9.65058 3.8742 9.66937 3.83975 9.66937C3.8053 9.66937 3.77712 9.65058 3.77712 9.62761C3.77712 9.60464 3.8053 9.58585 3.83975 9.58585C3.8742 9.58585 3.90239 9.60464 3.90239 9.62761ZM4.40347 9.62761C4.40347 9.65058 4.37529 9.66937 4.34084 9.66937C4.30639 9.66937 4.2782 9.65058 4.2782 9.62761C4.2782 9.60464 4.30639 9.58585 4.34084 9.58585C4.37529 9.58585 4.40347 9.60464 4.40347 9.62761ZM2.39913 9.66937C2.39913 9.69233 2.37922 9.71112 2.35491 9.71112C2.33061 9.71112 2.3223 9.69233 2.3365 9.66937C2.35069 9.6464 2.37057 9.62761 2.38072 9.62761C2.39087 9.62761 2.39913 9.6464 2.39913 9.66937ZM7.82756 9.66937C7.82756 9.69233 7.79824 9.71112 7.76246 9.71112C7.72667 9.71112 7.70897 9.69233 7.72316 9.66937C7.73736 9.6464 7.76663 9.62761 7.78826 9.62761C7.80989 9.62761 7.82756 9.6464 7.82756 9.66937ZM5.23862 9.732C5.23862 9.76645 5.21982 9.79464 5.19686 9.79464C5.17389 9.79464 5.1551 9.76645 5.1551 9.732C5.1551 9.69755 5.17389 9.66937 5.19686 9.66937C5.21982 9.66937 5.23862 9.69755 5.23862 9.732ZM15.824 9.71112C15.8382 9.73409 15.8299 9.75288 15.8056 9.75288C15.7813 9.75288 15.7614 9.73409 15.7614 9.71112C15.7614 9.68816 15.7697 9.66937 15.7798 9.66937C15.79 9.66937 15.8098 9.68816 15.824 9.71112ZM14.2665 9.84475C14.2275 9.88371 14.2164 9.8726 14.2164 9.79464C14.2164 9.71668 14.2275 9.70557 14.2665 9.74453C14.3055 9.78349 14.3055 9.80579 14.2665 9.84475ZM14.801 9.7713C14.801 9.80441 14.7822 9.84308 14.7592 9.85727C14.7363 9.87147 14.7175 9.84437 14.7175 9.7971C14.7175 9.74983 14.7363 9.71112 14.7592 9.71112C14.7822 9.71112 14.801 9.73818 14.801 9.7713ZM3.65185 9.79464C3.65185 9.8176 3.63418 9.8364 3.61255 9.8364C3.59092 9.8364 3.56165 9.8176 3.54745 9.79464C3.53326 9.77167 3.55096 9.75288 3.58675 9.75288C3.62253 9.75288 3.65185 9.77167 3.65185 9.79464ZM4.15293 9.79464C4.15293 9.8176 4.13527 9.8364 4.11364 9.8364C4.09201 9.8364 4.06274 9.8176 4.04854 9.79464C4.03434 9.77167 4.05205 9.75288 4.08783 9.75288C4.12362 9.75288 4.15293 9.77167 4.15293 9.79464ZM12.6797 9.8865C12.6408 9.92546 12.6296 9.91436 12.6296 9.8364C12.6296 9.75844 12.6408 9.74733 12.6797 9.78629C12.7187 9.82525 12.7187 9.84754 12.6797 9.8865ZM2.39913 9.8364C2.39913 9.85936 2.39087 9.87815 2.38072 9.87815C2.37057 9.87815 2.35069 9.85936 2.3365 9.8364C2.3223 9.81343 2.33061 9.79464 2.35491 9.79464C2.37922 9.79464 2.39913 9.81343 2.39913 9.8364ZM11.0846 9.91991C11.0846 9.96584 11.0658 10.0034 11.0429 10.0034C11.0199 10.0034 11.0011 9.96584 11.0011 9.91991C11.0011 9.87398 11.0199 9.8364 11.0429 9.8364C11.0658 9.8364 11.0846 9.87398 11.0846 9.91991ZM2.58483 9.96522C2.57138 9.98697 2.54261 9.99378 2.52086 9.98033C2.4991 9.96689 2.49229 9.93812 2.50574 9.91636C2.51918 9.8946 2.54796 9.8878 2.56971 9.90124C2.59147 9.91469 2.59827 9.94346 2.58483 9.96522ZM3.89195 9.98601C3.85215 10.0258 3.77236 9.96137 3.80205 9.9134C3.81967 9.88488 3.84301 9.88559 3.87299 9.91557C3.89759 9.94016 3.9061 9.97186 3.89195 9.98601ZM4.40347 9.94079C4.40347 9.97524 4.38468 10.0034 4.36172 10.0034C4.33875 10.0034 4.31996 9.97524 4.31996 9.94079C4.31996 9.90634 4.33875 9.87815 4.36172 9.87815C4.38468 9.87815 4.40347 9.90634 4.40347 9.94079ZM17.9195 9.96952C17.9062 10.0028 17.8963 9.9929 17.8943 9.94425C17.8925 9.90024 17.9024 9.87561 17.9162 9.88947C17.9301 9.90333 17.9316 9.93937 17.9195 9.96952ZM18.1416 9.94079C18.1416 9.97524 18.1228 10.0034 18.0998 10.0034C18.0768 10.0034 18.058 9.97524 18.058 9.94079C18.058 9.90634 18.0768 9.87815 18.0998 9.87815C18.1228 9.87815 18.1416 9.90634 18.1416 9.94079ZM1.93981 9.96167C1.93981 9.98463 1.92101 10.0034 1.89805 10.0034C1.87508 10.0034 1.85629 9.98463 1.85629 9.96167C1.85629 9.9387 1.87508 9.91991 1.89805 9.91991C1.92101 9.91991 1.93981 9.9387 1.93981 9.96167ZM16.8053 10.0034C16.8053 10.0494 16.7865 10.0869 16.7636 10.0869C16.7406 10.0869 16.7218 10.0494 16.7218 10.0034C16.7218 9.95749 16.7406 9.91991 16.7636 9.91991C16.7865 9.91991 16.8053 9.95749 16.8053 10.0034ZM17.0559 10.0034C17.0559 10.0494 17.0371 10.0869 17.0141 10.0869C16.9912 10.0869 16.9724 10.0494 16.9724 10.0034C16.9724 9.95749 16.9912 9.91991 17.0141 9.91991C17.0371 9.91991 17.0559 9.95749 17.0559 10.0034ZM7.82756 9.99645C7.82756 10.0508 7.77791 10.087 7.73753 10.0621C7.69435 10.0354 7.7316 9.96167 7.78826 9.96167C7.80989 9.96167 7.82756 9.97733 7.82756 9.99645ZM2.39913 10.0685C2.39913 10.1043 2.38005 10.1218 2.35671 10.1074C2.33337 10.093 2.32506 10.0637 2.33829 10.0423C2.37408 9.98438 2.39913 9.99516 2.39913 10.0685ZM13.9241 10.0869C13.9241 10.1329 13.9053 10.1705 13.8823 10.1705C13.8594 10.1705 13.8406 10.1329 13.8406 10.0869C13.8406 10.041 13.8594 10.0034 13.8823 10.0034C13.9053 10.0034 13.9241 10.041 13.9241 10.0869ZM14.4111 10.1391C14.3995 10.1679 14.39 10.1444 14.39 10.0869C14.39 10.0295 14.3995 10.0061 14.4111 10.0347C14.4227 10.0635 14.4227 10.1104 14.4111 10.1391ZM14.634 10.0869C14.634 10.1329 14.6152 10.1705 14.5922 10.1705C14.5692 10.1705 14.5504 10.1329 14.5504 10.0869C14.5504 10.041 14.5692 10.0034 14.5922 10.0034C14.6152 10.0034 14.634 10.041 14.634 10.0869ZM2.10683 10.0869C2.10683 10.1099 2.08804 10.1287 2.06508 10.1287C2.04211 10.1287 2.02332 10.1099 2.02332 10.0869C2.02332 10.064 2.04211 10.0452 2.06508 10.0452C2.08804 10.0452 2.10683 10.064 2.10683 10.0869ZM3.65185 10.0869C3.65185 10.1099 3.62253 10.1287 3.58675 10.1287C3.55096 10.1287 3.53326 10.1099 3.54745 10.0869C3.56165 10.064 3.59092 10.0452 3.61255 10.0452C3.63418 10.0452 3.65185 10.064 3.65185 10.0869ZM3.90239 10.08C3.90239 10.1343 3.85274 10.1705 3.81236 10.1456C3.76918 10.1189 3.80643 10.0452 3.86309 10.0452C3.88473 10.0452 3.90239 10.0608 3.90239 10.08ZM4.40347 10.1103C4.40347 10.1461 4.38468 10.1638 4.36172 10.1496C4.33875 10.1354 4.31996 10.1061 4.31996 10.0845C4.31996 10.0628 4.33875 10.0452 4.36172 10.0452C4.38468 10.0452 4.40347 10.0745 4.40347 10.1103ZM13.0472 10.1078C13.0472 10.1423 13.0284 10.1705 13.0054 10.1705C12.9825 10.1705 12.9637 10.1423 12.9637 10.1078C12.9637 10.0734 12.9825 10.0452 13.0054 10.0452C13.0284 10.0452 13.0472 10.0734 13.0472 10.1078ZM7.82756 10.1635C7.82756 10.2178 7.77791 10.254 7.73753 10.2291C7.69435 10.2024 7.7316 10.1287 7.78826 10.1287C7.80989 10.1287 7.82756 10.1444 7.82756 10.1635ZM17.8075 10.1913C17.8075 10.2258 17.7887 10.254 17.7657 10.254C17.7428 10.254 17.724 10.2258 17.724 10.1913C17.724 10.1569 17.7428 10.1287 17.7657 10.1287C17.7887 10.1287 17.8075 10.1569 17.8075 10.1913ZM17.9195 10.2201C17.9062 10.2533 17.8963 10.2434 17.8943 10.1948C17.8925 10.1508 17.9024 10.1261 17.9162 10.14C17.9301 10.1539 17.9316 10.1899 17.9195 10.2201ZM18.1416 10.1913C18.1416 10.2258 18.1228 10.254 18.0998 10.254C18.0768 10.254 18.058 10.2258 18.058 10.1913C18.058 10.1569 18.0768 10.1287 18.0998 10.1287C18.1228 10.1287 18.1416 10.1569 18.1416 10.1913ZM5.23862 10.2122C5.23862 10.2352 5.21982 10.254 5.19686 10.254C5.17389 10.254 5.1551 10.2352 5.1551 10.2122C5.1551 10.1892 5.17389 10.1705 5.19686 10.1705C5.21982 10.1705 5.23862 10.1892 5.23862 10.2122ZM1.93981 10.254C1.93981 10.2769 1.92214 10.2957 1.90051 10.2957C1.87888 10.2957 1.84961 10.2769 1.83541 10.254C1.82121 10.231 1.83892 10.2122 1.87471 10.2122C1.91049 10.2122 1.93981 10.231 1.93981 10.254ZM2.10683 10.254C2.10683 10.2769 2.08804 10.2957 2.06508 10.2957C2.04211 10.2957 2.02332 10.2769 2.02332 10.254C2.02332 10.231 2.04211 10.2122 2.06508 10.2122C2.08804 10.2122 2.10683 10.231 2.10683 10.254ZM3.65185 10.254C3.65185 10.2769 3.62253 10.2957 3.58675 10.2957C3.55096 10.2957 3.53326 10.2769 3.54745 10.254C3.56165 10.231 3.59092 10.2122 3.61255 10.2122C3.63418 10.2122 3.65185 10.231 3.65185 10.254ZM4.15293 10.254C4.15293 10.2769 4.12362 10.2957 4.08783 10.2957C4.05205 10.2957 4.03434 10.2769 4.04854 10.254C4.06274 10.231 4.09201 10.2122 4.11364 10.2122C4.13527 10.2122 4.15293 10.231 4.15293 10.254ZM4.40347 10.254C4.40347 10.2769 4.38468 10.2957 4.36172 10.2957C4.33875 10.2957 4.31996 10.2769 4.31996 10.254C4.31996 10.231 4.33875 10.2122 4.36172 10.2122C4.38468 10.2122 4.40347 10.231 4.40347 10.254ZM10.8341 10.2957C10.8341 10.3417 10.8153 10.3792 10.7923 10.3792C10.7693 10.3792 10.7506 10.3417 10.7506 10.2957C10.7506 10.2498 10.7693 10.2122 10.7923 10.2122C10.8153 10.2122 10.8341 10.2498 10.8341 10.2957ZM11.3352 10.2957C11.3352 10.3417 11.3164 10.3792 11.2934 10.3792C11.2704 10.3792 11.2516 10.3417 11.2516 10.2957C11.2516 10.2498 11.2704 10.2122 11.2934 10.2122C11.3164 10.2122 11.3352 10.2498 11.3352 10.2957ZM2.58704 10.2957C2.60124 10.3187 2.58245 10.3375 2.54528 10.3375C2.50812 10.3375 2.48933 10.3187 2.50353 10.2957C2.51772 10.2728 2.53651 10.254 2.54528 10.254C2.55405 10.254 2.57284 10.2728 2.58704 10.2957ZM16.5965 10.3375C16.5965 10.3834 16.5778 10.421 16.5548 10.421C16.5318 10.421 16.513 10.3834 16.513 10.3375C16.513 10.2915 16.5318 10.254 16.5548 10.254C16.5778 10.254 16.5965 10.2915 16.5965 10.3375ZM16.8053 10.3375C16.8053 10.3834 16.7865 10.421 16.7636 10.421C16.7406 10.421 16.7218 10.3834 16.7218 10.3375C16.7218 10.2915 16.7406 10.254 16.7636 10.254C16.7865 10.254 16.8053 10.2915 16.8053 10.3375ZM17.0559 10.3375C17.0559 10.3834 17.0371 10.421 17.0141 10.421C16.9912 10.421 16.9724 10.3834 16.9724 10.3375C16.9724 10.2915 16.9912 10.254 17.0141 10.254C17.0371 10.254 17.0559 10.2915 17.0559 10.3375ZM13.9241 10.3584C13.9241 10.3928 13.9053 10.421 13.8823 10.421C13.8594 10.421 13.8406 10.3928 13.8406 10.3584C13.8406 10.3239 13.8594 10.2957 13.8823 10.2957C13.9053 10.2957 13.9241 10.3239 13.9241 10.3584ZM14.0911 10.3584C14.0911 10.3928 14.0723 10.421 14.0494 10.421C14.0264 10.421 14.0076 10.3928 14.0076 10.3584C14.0076 10.3239 14.0264 10.2957 14.0494 10.2957C14.0723 10.2957 14.0911 10.3239 14.0911 10.3584ZM1.93981 10.3792C1.93981 10.4022 1.92101 10.421 1.89805 10.421C1.87508 10.421 1.85629 10.4022 1.85629 10.3792C1.85629 10.3563 1.87508 10.3375 1.89805 10.3375C1.92101 10.3375 1.93981 10.3563 1.93981 10.3792ZM2.39913 10.421C2.39913 10.444 2.37922 10.4628 2.35491 10.4628C2.33061 10.4628 2.3223 10.444 2.3365 10.421C2.35069 10.398 2.37057 10.3792 2.38072 10.3792C2.39087 10.3792 2.39913 10.398 2.39913 10.421ZM17.8075 10.4419C17.8075 10.4763 17.7887 10.5045 17.7657 10.5045C17.7428 10.5045 17.724 10.4763 17.724 10.4419C17.724 10.4074 17.7428 10.3792 17.7657 10.3792C17.7887 10.3792 17.8075 10.4074 17.8075 10.4419ZM18.1416 10.4419C18.1416 10.4763 18.1228 10.5045 18.0998 10.5045C18.0768 10.5045 18.058 10.4763 18.058 10.4419C18.058 10.4074 18.0768 10.3792 18.0998 10.3792C18.1228 10.3792 18.1416 10.4074 18.1416 10.4419ZM2.60792 10.4394C2.60792 10.4835 2.52779 10.502 2.50394 10.4634C2.48954 10.4401 2.50703 10.421 2.54282 10.421C2.57861 10.421 2.60792 10.4293 2.60792 10.4394ZM4.40347 10.5671C4.40347 10.6016 4.38581 10.6298 4.36418 10.6298C4.31152 10.6298 4.27382 10.5646 4.30718 10.5312C4.3542 10.4842 4.40347 10.5026 4.40347 10.5671ZM2.39913 10.588C2.39913 10.611 2.39087 10.6298 2.38072 10.6298C2.37057 10.6298 2.35069 10.611 2.3365 10.588C2.3223 10.5651 2.33061 10.5463 2.35491 10.5463C2.37922 10.5463 2.39913 10.5651 2.39913 10.588ZM18.7129 10.6376C18.6996 10.6709 18.6897 10.661 18.6877 10.6124C18.6859 10.5684 18.6958 10.5437 18.7096 10.5576C18.7235 10.5714 18.725 10.6075 18.7129 10.6376ZM18.8932 10.588C18.8932 10.611 18.8744 10.6298 18.8514 10.6298C18.8285 10.6298 18.8097 10.611 18.8097 10.588C18.8097 10.5651 18.8285 10.5463 18.8514 10.5463C18.8744 10.5463 18.8932 10.5651 18.8932 10.588ZM10.8341 10.6715C10.8341 10.7175 10.8153 10.7551 10.7923 10.7551C10.7693 10.7551 10.7506 10.7175 10.7506 10.6715C10.7506 10.6256 10.7693 10.588 10.7923 10.588C10.8153 10.588 10.8341 10.6256 10.8341 10.6715ZM16.5965 10.7158C16.5965 10.7604 16.5778 10.7968 16.5548 10.7968C16.5318 10.7968 16.513 10.7487 16.513 10.69C16.513 10.6294 16.5311 10.5942 16.5548 10.6089C16.5778 10.6231 16.5965 10.6712 16.5965 10.7158ZM17.0559 10.6924C17.0559 10.7498 17.0371 10.7968 17.0141 10.7968C16.9675 10.7968 16.9569 10.6592 17.0002 10.6159C17.0462 10.5698 17.0559 10.5831 17.0559 10.6924ZM17.9187 10.7237C17.9071 10.7525 17.8976 10.729 17.8976 10.6715C17.8976 10.6141 17.9071 10.5907 17.9187 10.6193C17.9303 10.6481 17.9303 10.695 17.9187 10.7237ZM2.58483 10.7168C2.57138 10.7386 2.54261 10.7454 2.52086 10.732C2.4991 10.7185 2.49229 10.6897 2.50574 10.668C2.51918 10.6462 2.54796 10.6394 2.56971 10.6529C2.59147 10.6663 2.59827 10.6951 2.58483 10.7168ZM4.40347 10.7342C4.40347 10.7686 4.38581 10.7968 4.36418 10.7968C4.31152 10.7968 4.27382 10.7316 4.30718 10.6982C4.3542 10.6512 4.40347 10.6696 4.40347 10.7342ZM19.1437 10.7551C19.1437 10.778 19.1249 10.7968 19.102 10.7968C19.079 10.7968 19.0602 10.778 19.0602 10.7551C19.0602 10.7321 19.079 10.7133 19.102 10.7133C19.1249 10.7133 19.1437 10.7321 19.1437 10.7551ZM2.39913 10.7968C2.39913 10.8198 2.37922 10.8386 2.35491 10.8386C2.33061 10.8386 2.3223 10.8198 2.3365 10.7968C2.35069 10.7738 2.37057 10.7551 2.38072 10.7551C2.39087 10.7551 2.39913 10.7738 2.39913 10.7968ZM18.7129 10.8464C18.6996 10.8797 18.6897 10.8698 18.6877 10.8212C18.6859 10.7771 18.6958 10.7525 18.7096 10.7664C18.7235 10.7802 18.725 10.8163 18.7129 10.8464ZM1.00461 10.9525C0.962188 10.995 0.927154 10.9311 0.961979 10.8747C0.988286 10.8321 0.998141 10.8321 1.01225 10.8746C1.02194 10.9036 1.01848 10.9387 1.00461 10.9525ZM1.12988 10.9525C1.08746 10.995 1.05242 10.9311 1.08725 10.8747C1.11356 10.8321 1.12341 10.8321 1.13753 10.8746C1.14721 10.9036 1.14375 10.9387 1.12988 10.9525ZM17.8075 10.9012C17.8075 10.9357 17.7887 10.9638 17.7657 10.9638C17.7428 10.9638 17.724 10.9357 17.724 10.9012C17.724 10.8668 17.7428 10.8386 17.7657 10.8386C17.7887 10.8386 17.8075 10.8668 17.8075 10.9012ZM19.2272 10.8803C19.2272 10.9033 19.1897 10.9221 19.1437 10.9221C19.0978 10.9221 19.0602 10.9033 19.0602 10.8803C19.0602 10.8574 19.0978 10.8386 19.1437 10.8386C19.1897 10.8386 19.2272 10.8574 19.2272 10.8803ZM2.39913 10.9638C2.39913 10.9868 2.39087 11.0056 2.38072 11.0056C2.37057 11.0056 2.35069 10.9868 2.3365 10.9638C2.3223 10.9409 2.33061 10.9221 2.35491 10.9221C2.37922 10.9221 2.39913 10.9409 2.39913 10.9638ZM16.8053 11.0474C16.8053 11.0933 16.7865 11.1309 16.7636 11.1309C16.7406 11.1309 16.7218 11.0933 16.7218 11.0474C16.7218 11.0014 16.7406 10.9638 16.7636 10.9638C16.7865 10.9638 16.8053 11.0014 16.8053 11.0474ZM18.8932 11.0265C18.8932 11.0609 18.8744 11.0891 18.8514 11.0891C18.8285 11.0891 18.8097 11.0609 18.8097 11.0265C18.8097 10.992 18.8285 10.9638 18.8514 10.9638C18.8744 10.9638 18.8932 10.992 18.8932 11.0265ZM2.58483 11.0927C2.57138 11.1144 2.54261 11.1212 2.52086 11.1078C2.4991 11.0943 2.49229 11.0656 2.50574 11.0438C2.51918 11.022 2.54796 11.0152 2.56971 11.0287C2.59147 11.0421 2.59827 11.0709 2.58483 11.0927ZM4.15293 11.0474C4.15293 11.0703 4.12362 11.0891 4.08783 11.0891C4.05205 11.0891 4.03434 11.0703 4.04854 11.0474C4.06274 11.0244 4.09201 11.0056 4.11364 11.0056C4.13527 11.0056 4.15293 11.0244 4.15293 11.0474ZM4.40347 11.0474C4.40347 11.0703 4.38468 11.0891 4.36172 11.0891C4.33875 11.0891 4.31996 11.0703 4.31996 11.0474C4.31996 11.0244 4.33875 11.0056 4.36172 11.0056C4.38468 11.0056 4.40347 11.0244 4.40347 11.0474ZM1.02115 11.0891C1.02115 11.1121 1.00236 11.1309 0.979392 11.1309C0.956425 11.1309 0.937635 11.1121 0.937635 11.0891C0.937635 11.0661 0.956425 11.0474 0.979392 11.0474C1.00236 11.0474 1.02115 11.0661 1.02115 11.0891ZM1.14642 11.0891C1.14642 11.1121 1.12763 11.1309 1.10466 11.1309C1.0817 11.1309 1.06291 11.1121 1.06291 11.0891C1.06291 11.0661 1.0817 11.0474 1.10466 11.0474C1.12763 11.0474 1.14642 11.0661 1.14642 11.0891ZM19.1437 11.1726C19.1437 11.1956 19.1355 11.2144 19.1253 11.2144C19.1152 11.2144 19.0953 11.1956 19.0811 11.1726C19.0669 11.1497 19.0752 11.1309 19.0995 11.1309C19.1238 11.1309 19.1437 11.1497 19.1437 11.1726ZM18.7129 11.264C18.6996 11.2973 18.6897 11.2874 18.6877 11.2387C18.6859 11.1947 18.6958 11.1701 18.7096 11.1839C18.7235 11.1978 18.725 11.2338 18.7129 11.264ZM0.879342 11.3283C0.836917 11.3708 0.801882 11.3069 0.836708 11.2505C0.863015 11.2079 0.872869 11.2079 0.886983 11.2504C0.896671 11.2794 0.893205 11.3145 0.879342 11.3283ZM1.12988 11.3283C1.08746 11.3708 1.05242 11.3069 1.08725 11.2505C1.11356 11.2079 1.12341 11.2079 1.13753 11.2504C1.14721 11.2794 1.14375 11.3145 1.12988 11.3283ZM18.8932 11.2561C18.8932 11.2791 18.8744 11.2979 18.8514 11.2979C18.8285 11.2979 18.8097 11.2791 18.8097 11.2561C18.8097 11.2332 18.8285 11.2144 18.8514 11.2144C18.8744 11.2144 18.8932 11.2332 18.8932 11.2561ZM4.14249 11.4058C4.1027 11.4455 4.0229 11.3811 4.05259 11.3331C4.07021 11.3046 4.09355 11.3053 4.12353 11.3353C4.14813 11.3599 4.15665 11.3916 4.14249 11.4058ZM1.02115 11.4649C1.02115 11.4879 1.00236 11.5067 0.979392 11.5067C0.956425 11.5067 0.937635 11.4879 0.937635 11.4649C0.937635 11.442 0.956425 11.4232 0.979392 11.4232C1.00236 11.4232 1.02115 11.442 1.02115 11.4649ZM1.14642 11.4649C1.14642 11.4879 1.12763 11.5067 1.10466 11.5067C1.0817 11.5067 1.06291 11.4879 1.06291 11.4649C1.06291 11.442 1.0817 11.4232 1.10466 11.4232C1.12763 11.4232 1.14642 11.442 1.14642 11.4649ZM17.6875 11.6111C17.7021 11.68 17.7163 11.9008 17.7191 12.1017L17.724 12.4671H12.9629H8.20178L8.22425 12.3731C8.23665 12.3214 8.2701 12.1477 8.29866 11.9869L8.35056 11.6946L11.367 11.6839L14.3834 11.6732V11.7987V11.9243H15.8867H17.3899V11.692V11.4596L17.5255 11.4727C17.638 11.4836 17.6655 11.5071 17.6875 11.6111ZM1.12988 11.7041C1.08746 11.7466 1.05242 11.6827 1.08725 11.6264C1.11356 11.5838 1.12341 11.5838 1.13753 11.6262C1.14721 11.6552 1.14375 11.6903 1.12988 11.7041ZM4.24484 11.6793C4.40815 11.7143 4.50711 11.7677 4.6227 11.8832C4.75799 12.0184 4.77929 12.0657 4.77929 12.2305C4.77929 12.3355 4.75749 12.4693 4.73081 12.5278C4.68538 12.6275 4.66349 12.6341 4.37988 12.6341H4.07735L4.0986 12.4758C4.12604 12.2714 4.04628 12.2024 3.78701 12.2063C3.63848 12.2086 3.57389 12.2312 3.51739 12.3011C3.47651 12.3516 3.44306 12.4104 3.44306 12.4318C3.44306 12.5256 3.65331 12.6677 3.86309 12.7158C4.40326 12.8395 4.61226 13.0357 4.61226 13.4193C4.61226 13.9869 4.25302 14.2626 3.51342 14.2626C3.09025 14.2626 2.88573 14.2003 2.73119 14.0243C2.62412 13.9024 2.60792 13.8512 2.60792 13.6348V13.3857H2.94198C3.25699 13.3857 3.27603 13.3909 3.27603 13.4764C3.27603 13.6303 3.39454 13.7198 3.59844 13.7198C3.8271 13.7198 3.94415 13.6603 3.94415 13.5442C3.94415 13.3986 3.82856 13.3123 3.47605 13.1949C2.82113 12.9768 2.63694 12.6175 2.90581 12.0826C3.07785 11.7403 3.68112 11.5586 4.24484 11.6793ZM5.75678 11.8303C5.74267 11.9164 5.64378 12.4848 5.53705 13.0934L5.34301 14.2L5.01939 14.2122C4.84138 14.2189 4.69523 14.2095 4.6946 14.1913C4.69394 14.1731 4.79136 13.5993 4.91107 12.916L5.12875 11.6737H5.45563H5.78246L5.75678 11.8303ZM6.97275 12.3037L7.17961 12.9337L7.2729 12.3977C7.41345 11.5899 7.36125 11.6737 7.72396 11.6737C7.97329 11.6737 8.03634 11.6863 8.03634 11.7361C8.03634 11.7704 7.94239 12.3361 7.82756 12.9932C7.71272 13.6502 7.61877 14.1953 7.61877 14.2044C7.61877 14.2135 7.46911 14.2209 7.28622 14.2209H6.95366L6.76425 13.6223C6.66007 13.2932 6.57484 13.0019 6.57484 12.9751C6.57484 12.9483 6.56069 12.9264 6.54336 12.9264C6.52603 12.9264 6.46465 13.213 6.40694 13.5632L6.30204 14.2L5.97914 14.2122C5.73665 14.2213 5.65623 14.211 5.65635 14.1704C5.65648 14.1408 5.75035 13.581 5.86497 12.9264C5.9796 12.2719 6.07347 11.7223 6.07359 11.705C6.07367 11.6878 6.22947 11.6737 6.4198 11.6737H6.76588L6.97275 12.3037ZM18.5854 12.227C18.5716 12.2787 18.56 12.3538 18.5597 12.394C18.5592 12.4575 18.5152 12.4671 18.2251 12.4671H17.891V12.3001V12.133H18.2508C18.6036 12.133 18.6101 12.1349 18.5854 12.227ZM8.91324 13.7198C8.92472 14.2595 8.94564 14.6729 8.95972 14.6385C8.97379 14.604 9.12253 14.1812 9.29022 13.6989C9.45796 13.2166 9.61317 12.7986 9.63514 12.7698C9.66119 12.7358 9.7906 12.7176 10.0069 12.7176C10.3043 12.7176 10.3361 12.7252 10.3143 12.7907C10.3009 12.8309 10.086 13.3993 9.83678 14.0539L9.38359 15.2439L8.79565 15.2555L8.20771 15.2671L8.20458 13.9906L8.20145 12.7142L8.54691 12.7264L8.89236 12.7385L8.91324 13.7198ZM12.2256 12.749C12.2358 12.7662 12.2249 12.8977 12.2014 13.0413L12.1588 13.3022H11.5799C11.0567 13.3022 11.0011 13.3092 11.0006 13.3753C11.0004 13.4155 10.9885 13.5189 10.9743 13.605L10.9484 13.7616H11.4132C11.6688 13.7616 11.8772 13.7756 11.8762 13.7929C11.8752 13.8101 11.8509 13.9369 11.8223 14.0747L11.7703 14.3253L11.3071 14.3371L10.844 14.3488L10.8182 14.478C10.7673 14.732 10.7455 14.722 11.3489 14.722H11.9055L11.8583 14.983L11.8112 15.2439L10.9259 15.2552C10.147 15.2651 10.0407 15.2586 10.0407 15.2013C10.0407 15.0943 10.4528 12.802 10.4799 12.7581C10.5094 12.7105 12.1976 12.7016 12.2256 12.749ZM13.733 12.7576C14.1211 12.8477 14.2422 13.0739 14.153 13.5424C14.0889 13.8786 14.0199 14.0316 13.8689 14.1727C13.7514 14.2824 13.7478 14.2567 13.98 14.9621L14.0797 15.2648H13.7109H13.3422L13.2007 14.8159C13.0735 14.412 13.0488 14.3658 12.9539 14.3543C12.8573 14.3427 12.8462 14.3583 12.8202 14.5422C12.8047 14.6526 12.7723 14.8603 12.7483 15.0038L12.7046 15.2648H12.3511C12.0341 15.2648 11.9998 15.2573 12.0191 15.1917C12.031 15.1516 12.1173 14.6771 12.2109 14.1374C12.3045 13.5977 12.4008 13.0574 12.4248 12.9369L12.4685 12.7176L13.0188 12.7186C13.3215 12.7192 13.6429 12.7367 13.733 12.7576ZM16.0667 12.838C16.3205 12.9949 16.4191 13.3049 16.2989 13.5686C16.256 13.6629 16.225 13.673 15.9399 13.6854C15.6444 13.6982 15.5406 13.6745 15.6355 13.6158C15.7006 13.5756 15.6859 13.422 15.6088 13.3369C15.4838 13.1988 15.0842 13.2589 15.0319 13.4235C14.9792 13.5898 15.0783 13.6722 15.4729 13.7904C15.7238 13.8655 15.9005 13.9469 16.0008 14.0337C16.1375 14.1517 16.1534 14.1881 16.1702 14.4198C16.1934 14.7412 16.0759 15.0134 15.8503 15.1602C15.5496 15.356 14.857 15.4009 14.4919 15.2483C14.2756 15.158 14.1702 14.9634 14.1842 14.6802L14.1955 14.4506L14.5191 14.4384L14.8427 14.4262V14.5481C14.8427 14.7141 14.9375 14.7798 15.1768 14.7798C15.3957 14.7798 15.5109 14.7149 15.5109 14.5916C15.5109 14.4624 15.3653 14.3561 15.0645 14.2657C14.5892 14.1229 14.4049 13.9679 14.3566 13.6705C14.2973 13.305 14.5388 12.935 14.9267 12.7971C15.2558 12.6801 15.8454 12.7013 16.0667 12.838ZM18.4756 12.7455C18.4756 12.7609 18.4549 12.8924 18.4296 13.0378L18.3835 13.3022H17.8032C17.2786 13.3022 17.2229 13.3092 17.2224 13.3753C17.2222 13.4155 17.2103 13.5189 17.1961 13.605L17.1702 13.7616H17.6355H18.1008L18.0727 13.939C18.0072 14.3528 18.0469 14.3238 17.5277 14.3371L17.0658 14.3488L17.04 14.478C16.9891 14.7322 16.9666 14.722 17.5786 14.722C18.1427 14.722 18.1431 14.7221 18.1213 14.8159C18.1093 14.8676 18.0846 14.985 18.0665 15.0769L18.0335 15.2439L17.148 15.2552C16.444 15.2641 16.2625 15.2554 16.2625 15.2122C16.2625 15.1185 16.6804 12.7926 16.7042 12.7542C16.7302 12.712 18.4756 12.7035 18.4756 12.7455ZM12.9866 13.4985C12.9707 13.6087 12.9476 13.7412 12.9353 13.7929C12.9143 13.8809 12.9263 13.8868 13.1232 13.8868C13.2587 13.8868 13.3569 13.8635 13.3991 13.8213C13.5009 13.7194 13.5269 13.5511 13.4594 13.4304C13.4107 13.3433 13.3633 13.3208 13.2075 13.3106L13.0155 13.2981L12.9866 13.4985ZM7.62474 14.9516C7.64153 15.2391 7.68587 15.5204 7.74321 15.7033C7.84822 16.0384 8.14366 16.618 8.32818 16.851C8.39733 16.9383 8.45391 17.0185 8.45391 17.0291C8.45391 17.0559 8.00364 17.3527 7.96306 17.3527C7.91884 17.3527 7.62374 16.8655 7.41921 16.4549C7.25273 16.1206 7.0766 15.6511 6.99208 15.3163L6.94711 15.1383L5.76922 15.1493L4.59138 15.1604L4.52874 15.3489C4.43162 15.6413 4.4327 15.6406 4.05651 15.6412L3.71448 15.6417L3.57426 15.9754C3.48511 16.1876 3.44298 16.3445 3.45855 16.4065C3.50657 16.5979 3.41821 16.6367 3.04015 16.5902C2.74104 16.5534 2.69431 16.5362 2.65389 16.4475C2.56453 16.2513 2.59852 16.0124 2.75098 15.7654C2.94782 15.4465 2.97075 15.3353 2.86209 15.2267C2.81416 15.1788 2.73737 15.1395 2.69143 15.1395C2.61489 15.1395 2.60792 15.1117 2.60792 14.8052V14.4708L5.1029 14.4815L7.59789 14.4923L7.62474 14.9516ZM4.11117 15.1521C4.11117 15.1819 4.13372 15.2289 4.16128 15.2565C4.19544 15.2906 4.19782 15.3201 4.16863 15.3493C4.13949 15.3785 4.10157 15.3652 4.04942 15.3076C3.94836 15.1959 3.83474 15.2003 3.80342 15.317C3.75294 15.5055 3.76509 15.5154 4.04708 15.5154C4.27123 15.5154 4.32434 15.5017 4.36025 15.4346C4.42711 15.3097 4.41162 15.1886 4.32272 15.141C4.21164 15.0816 4.11117 15.0868 4.11117 15.1521Z" fill="url(#paint0_linear_4132_54389)"/>
<path fill-rule="evenodd" clip-rule="evenodd" d="M7.6251 14.9516C7.64189 15.239 7.68624 15.5203 7.74357 15.7032C7.84859 16.0384 8.14402 16.618 8.32854 16.851C8.39769 16.9383 8.45427 17.0185 8.45427 17.0291C8.45427 17.0559 8.00401 17.3526 7.96342 17.3526C7.9192 17.3526 7.6241 16.8655 7.41957 16.4549C7.25309 16.1206 7.07696 15.6511 6.99244 15.3163L6.94747 15.1382L5.76959 15.1493L4.59174 15.1604L4.52911 15.3489C4.43198 15.6412 4.43307 15.6406 4.05688 15.6412L3.71484 15.6417L3.57462 15.9754C3.48547 16.1876 3.44334 16.3445 3.45891 16.4065C3.50694 16.5978 3.41858 16.6366 3.04051 16.5902C2.7414 16.5534 2.69468 16.5362 2.65426 16.4475C2.5649 16.2513 2.59889 16.0124 2.75134 15.7654C2.94818 15.4465 2.97111 15.3353 2.86246 15.2267C2.81452 15.1787 2.73773 15.1395 2.6918 15.1395C2.61525 15.1395 2.60828 15.1117 2.60828 14.8051V14.4707L5.10327 14.4815L7.59825 14.4923L7.6251 14.9516ZM4.16164 15.2564C4.13409 15.2289 4.11154 15.1819 4.11154 15.152C4.11154 15.0868 4.212 15.0816 4.32308 15.141C4.41198 15.1886 4.42747 15.3097 4.36062 15.4346C4.32471 15.5016 4.27159 15.5153 4.04744 15.5153C3.76545 15.5153 3.7533 15.5054 3.80379 15.317C3.8351 15.2002 3.94873 15.1959 4.04978 15.3076C4.10193 15.3652 4.13985 15.3785 4.16899 15.3493C4.19818 15.3201 4.1958 15.2906 4.16164 15.2564Z" fill="white"/>
<path d="M4.2452 11.6793C4.40851 11.7143 4.50748 11.7677 4.62306 11.8832C4.75835 12.0184 4.77965 12.0657 4.77965 12.2305C4.77965 12.3355 4.75785 12.4692 4.73117 12.5277C4.68574 12.6275 4.66386 12.6341 4.38024 12.6341H4.07771L4.09897 12.4758C4.1264 12.2714 4.04665 12.2024 3.78738 12.2063C3.63885 12.2086 3.57425 12.2312 3.51775 12.301C3.47687 12.3515 3.44342 12.4104 3.44342 12.4318C3.44342 12.5256 3.65367 12.6677 3.86346 12.7157C4.40363 12.8395 4.61262 13.0357 4.61262 13.4193C4.61262 13.9869 4.25339 14.2626 3.51378 14.2626C3.09062 14.2626 2.88609 14.2003 2.73155 14.0243C2.62448 13.9024 2.60828 13.8511 2.60828 13.6348V13.3857H2.94234C3.25735 13.3857 3.27639 13.3909 3.27639 13.4764C3.27639 13.6303 3.3949 13.7198 3.5988 13.7198C3.82746 13.7198 3.94451 13.6603 3.94451 13.5442C3.94451 13.3985 3.82892 13.3123 3.47641 13.1949C2.82149 12.9768 2.6373 12.6175 2.90618 12.0826C3.07822 11.7402 3.68148 11.5586 4.2452 11.6793Z" fill="white"/>
<path d="M5.75714 11.8303C5.74303 11.9164 5.64415 12.4848 5.53742 13.0934L5.34337 14.2L5.01975 14.2122C4.84174 14.2189 4.69559 14.2095 4.69497 14.1913C4.6943 14.1731 4.79172 13.5992 4.91144 12.916L5.12912 11.6737H5.45599H5.78282L5.75714 11.8303Z" fill="white"/>
<path d="M6.97311 12.3037L7.17997 12.9337L7.27326 12.3976C7.41381 11.5899 7.36162 11.6737 7.72432 11.6737C7.97365 11.6737 8.0367 11.6863 8.0367 11.7361C8.0367 11.7704 7.94275 12.3361 7.82792 12.9932C7.71309 13.6502 7.61913 14.1953 7.61913 14.2043C7.61913 14.2134 7.46947 14.2209 7.28658 14.2209H6.95403L6.76461 13.6223C6.66043 13.2931 6.5752 13.0019 6.5752 12.9751C6.5752 12.9483 6.56105 12.9264 6.54372 12.9264C6.52639 12.9264 6.46501 13.213 6.4073 13.5632L6.30241 14.2L5.9795 14.2122C5.73701 14.2213 5.65659 14.2109 5.65672 14.1704C5.65684 14.1407 5.75071 13.5809 5.86533 12.9264C5.97996 12.2719 6.07383 11.7222 6.07395 11.705C6.07404 11.6878 6.22983 11.6737 6.42016 11.6737H6.76624L6.97311 12.3037Z" fill="white"/>
<path d="M17.6879 11.611C17.7025 11.6799 17.7167 11.9008 17.7194 12.1017L17.7243 12.4671H12.9632H8.20215L8.22461 12.3731C8.23701 12.3214 8.27046 12.1476 8.29902 11.9869L8.35093 11.6946L11.3674 11.6838L14.3838 11.6731V11.7987V11.9242H15.887H17.3903V11.6919V11.4596L17.5258 11.4727C17.6384 11.4836 17.6658 11.507 17.6879 11.611Z" fill="white"/>
<path d="M8.9136 13.7198C8.92509 14.2595 8.94601 14.6729 8.96008 14.6384C8.97415 14.604 9.12289 14.1812 9.29059 13.6989C9.45832 13.2166 9.61353 12.7985 9.6355 12.7698C9.66156 12.7358 9.79096 12.7176 10.0072 12.7176C10.3046 12.7176 10.3364 12.7252 10.3146 12.7907C10.3013 12.8309 10.0864 13.3993 9.83714 14.0538L9.38395 15.2439L8.79601 15.2555L8.20807 15.267L8.20494 13.9906L8.20181 12.7142L8.54727 12.7263L8.89272 12.7385L8.9136 13.7198Z" fill="white"/>
<path d="M12.226 12.7489C12.2361 12.7662 12.2253 12.8977 12.2018 13.0412L12.1591 13.3022H11.5803C11.057 13.3022 11.0014 13.3092 11.001 13.3753C11.0007 13.4155 10.9889 13.5188 10.9746 13.6049L10.9488 13.7615H11.4136C11.6692 13.7615 11.8775 13.7756 11.8765 13.7929C11.8755 13.8101 11.8513 13.9369 11.8227 14.0747L11.7707 14.3253L11.3075 14.337L10.8443 14.3488L10.8185 14.478C10.7677 14.732 10.7459 14.722 11.3493 14.722H11.9059L11.8587 14.9829L11.8115 15.2439L10.9263 15.2552C10.1474 15.2651 10.041 15.2586 10.041 15.2013C10.041 15.0943 10.4531 12.802 10.4803 12.7581C10.5097 12.7104 12.198 12.7016 12.226 12.7489Z" fill="white"/>
<path fill-rule="evenodd" clip-rule="evenodd" d="M13.7333 12.7576C14.1215 12.8476 14.2426 13.0738 14.1533 13.5424C14.0893 13.8785 14.0203 14.0316 13.8693 14.1727C13.7518 14.2824 13.7482 14.2567 13.9804 14.9621L14.08 15.2648H13.7113H13.3425L13.2011 14.8159C13.0738 14.4119 13.0491 14.3658 12.9543 14.3543C12.8577 14.3426 12.8466 14.3582 12.8206 14.5422C12.805 14.6526 12.7726 14.8603 12.7486 15.0038L12.7049 15.2648H12.3515C12.0345 15.2648 12.0002 15.2572 12.0195 15.1917C12.0314 15.1515 12.1176 14.6771 12.2113 14.1374C12.3049 13.5976 12.4012 13.0574 12.4252 12.9368L12.4689 12.7176L13.0192 12.7186C13.3219 12.7192 13.6432 12.7367 13.7333 12.7576ZM12.9356 13.7929C12.948 13.7412 12.9711 13.6087 12.987 13.4985L13.0159 13.298L13.2079 13.3106C13.3637 13.3208 13.4111 13.3433 13.4597 13.4304C13.5273 13.5511 13.5013 13.7194 13.3994 13.8213C13.3572 13.8635 13.259 13.8868 13.1236 13.8868C12.9266 13.8868 12.9146 13.8808 12.9356 13.7929Z" fill="white"/>
<path d="M16.0671 12.838C16.3209 12.9949 16.4194 13.3049 16.2993 13.5685C16.2563 13.6629 16.2254 13.673 15.9403 13.6853C15.6448 13.6982 15.5409 13.6745 15.6358 13.6158C15.7009 13.5756 15.6863 13.422 15.6091 13.3368C15.4842 13.1988 15.0845 13.2589 15.0323 13.4235C14.9795 13.5897 15.0787 13.6722 15.4733 13.7904C15.7242 13.8654 15.9008 13.9469 16.0012 14.0336C16.1378 14.1517 16.1538 14.1881 16.1705 14.4198C16.1938 14.7412 16.0762 15.0133 15.8507 15.1602C15.55 15.3559 14.8573 15.4009 14.4922 15.2483C14.276 15.1579 14.1706 14.9634 14.1846 14.6802L14.1959 14.4505L14.5195 14.4383L14.8431 14.4261V14.548C14.8431 14.7141 14.9378 14.7798 15.1772 14.7798C15.3961 14.7798 15.5112 14.7149 15.5112 14.5916C15.5112 14.4624 15.3657 14.3561 15.0648 14.2657C14.5896 14.1229 14.4052 13.9679 14.357 13.6705C14.2977 13.305 14.5391 12.935 14.9271 12.7971C15.2561 12.6801 15.8458 12.7012 16.0671 12.838Z" fill="white"/>
<path d="M18.476 12.7455C18.476 12.7609 18.4553 12.8924 18.4299 13.0378L18.3839 13.3022H17.8036C17.2789 13.3022 17.2232 13.3092 17.2228 13.3753C17.2226 13.4155 17.2107 13.5188 17.1965 13.6049L17.1706 13.7615H17.6359H18.1012L18.0731 13.939C18.0076 14.3528 18.0473 14.3238 17.5281 14.337L17.0661 14.3488L17.0403 14.478C16.9895 14.7321 16.967 14.722 17.579 14.722C18.143 14.722 18.1435 14.722 18.1217 14.8159C18.1096 14.8676 18.085 14.985 18.0668 15.0769L18.0339 15.2439L17.1484 15.2552C16.4443 15.2641 16.2629 15.2554 16.2629 15.2122C16.2629 15.1185 16.6808 12.7926 16.7045 12.7541C16.7306 12.712 18.476 12.7035 18.476 12.7455Z" fill="white"/>
<defs>
<linearGradient id="paint0_linear_4132_54389" x1="16.6402" y1="2.40363" x2="4.44713" y2="18.3757" gradientUnits="userSpaceOnUse">
<stop stop-color="#EB2C40"/>
<stop offset="1" stop-color="#B92B71"/>
</linearGradient>
</defs>
</svg>
