<svg width="20" height="20" viewBox="0 0 20 20" fill="none" xmlns="http://www.w3.org/2000/svg">
<g clip-path="url(#clip0)">
<path d="M7.13409 3.74496C6.96121 3.74496 6.82007 3.88474 6.82007 4.05746C6.82007 4.23035 6.95816 4.36996 7.13058 4.36996H7.13409C7.30652 4.36996 7.44659 4.23035 7.44659 4.05746C7.44659 3.88474 7.30652 3.74496 7.13409 3.74496Z" fill="#BFBFBF"/>
<path d="M18.3086 17.138C18.2836 17.138 18.258 17.1409 18.2328 17.1475C18.0653 17.1893 17.9633 17.359 18.0053 17.5265L18.447 19.2941C18.489 19.4612 18.6581 19.5643 18.8259 19.5215C18.9933 19.4797 19.0952 19.31 19.0534 19.1424L18.6115 17.375C18.5758 17.2328 18.4487 17.138 18.3086 17.138Z" fill="#BFBFBF"/>
<path d="M16.9822 18.4638C16.8423 18.4638 16.715 18.5585 16.6795 18.7003C16.6372 18.8678 16.7391 19.0375 16.907 19.0794L18.6744 19.5212C18.8413 19.5638 19.0113 19.4612 19.0533 19.2937C19.0954 19.1263 18.9935 18.9566 18.8258 18.9147L17.0582 18.4728C17.0329 18.4665 17.0072 18.4638 16.9822 18.4638V18.4638Z" fill="#BFBFBF"/>
<path d="M6.24108 5.07096C6.16097 5.07096 6.08102 5.10163 6.02013 5.16251C5.89791 5.28474 5.89791 5.48219 6.02013 5.60441L18.0872 17.6715C18.2095 17.7937 18.4069 17.7937 18.5291 17.6715C18.6514 17.5494 18.6514 17.3518 18.5291 17.2296L6.46203 5.16221C6.40069 5.10117 6.32104 5.07096 6.24108 5.07096V5.07096Z" fill="#BFBFBF"/>
<path d="M4.9154 6.39649C4.83544 6.39649 4.75533 6.42716 4.69445 6.4882C4.57223 6.61027 4.57223 6.80787 4.69445 6.92994L16.7617 18.9972C16.8838 19.1194 17.0814 19.1194 17.2035 18.9972C17.3257 18.875 17.3257 18.6775 17.2035 18.5553L5.13634 6.4882C5.07516 6.42686 4.99505 6.39649 4.9154 6.39649V6.39649Z" fill="#BFBFBF"/>
<path d="M6.72066 4.59092C6.64071 4.59092 6.56075 4.62159 6.49972 4.68247L4.21349 6.9687C4.09127 7.09092 4.09127 7.28837 4.21349 7.41059C4.33572 7.53281 4.53316 7.53281 4.65539 7.41059L6.94161 5.12437C7.06384 5.00214 7.06384 4.8047 6.94161 4.68247C6.88073 4.62159 6.80077 4.59092 6.72066 4.59092V4.59092Z" fill="#BFBFBF"/>
<path d="M6.46109 3.08213C6.38113 3.08213 6.30118 3.1128 6.2403 3.17368L2.70483 6.70899C2.58276 6.83121 2.58276 7.02882 2.70483 7.15089C2.82706 7.27311 3.02466 7.27311 3.14673 7.15089L6.68204 3.61558C6.80426 3.49351 6.80426 3.29591 6.68204 3.17368C6.62115 3.1128 6.5412 3.08213 6.46109 3.08213V3.08213Z" fill="#BFBFBF"/>
<path d="M7.12492 2.80746C6.79091 2.80746 6.47688 2.93746 6.24067 3.17336C6.11815 3.29559 6.11815 3.49303 6.23991 3.61526C6.36213 3.73809 6.56035 3.73748 6.68181 3.61587C6.91847 3.37936 7.33031 3.37936 7.56621 3.61526C7.81005 3.85909 7.80974 4.25567 7.56621 4.49966C7.32253 4.74273 6.92595 4.74242 6.68272 4.49935C6.56065 4.37713 6.36305 4.37713 6.24098 4.49935C6.11876 4.62157 6.11876 4.81902 6.24098 4.94125C6.72804 5.42846 7.5212 5.42815 8.00811 4.94155C8.49563 4.45342 8.49563 3.66027 8.00841 3.17367C7.77281 2.93746 7.45879 2.80746 7.12492 2.80746Z" fill="#BFBFBF"/>
<path d="M3.59836 7.28027C3.42548 7.28027 3.28418 7.42004 3.28418 7.59277C3.28418 7.76566 3.42242 7.90527 3.59485 7.90527H3.59836C3.77078 7.90527 3.91086 7.76566 3.91086 7.59277C3.91086 7.42004 3.77048 7.28027 3.59836 7.28027Z" fill="#BFBFBF"/>
<path d="M4.25217 6.61744C4.17222 6.61744 4.09226 6.64811 4.03153 6.70869C3.909 6.83091 3.909 7.02851 4.03092 7.15058C4.27445 7.39472 4.27445 7.7916 4.03092 8.03559C3.78724 8.27882 3.39036 8.27805 3.14713 8.03498C2.90345 7.7913 2.90376 7.39472 3.14713 7.15058C3.26905 7.02851 3.26905 6.83091 3.14652 6.70869C3.02506 6.58723 2.82685 6.58662 2.70463 6.70945C2.21787 7.19682 2.21787 7.98997 2.70493 8.47657C3.19154 8.96439 3.98469 8.96409 4.47282 8.47749C4.96003 7.98936 4.96003 7.19651 4.47343 6.70945C4.41254 6.6478 4.33213 6.61744 4.25217 6.61744V6.61744Z" fill="#BFBFBF"/>
<path d="M1.30187 2.34131C1.22192 2.34131 1.14181 2.37183 1.08092 2.43286C0.958702 2.55493 0.958702 2.75253 1.08092 2.8746L4.0306 5.82443C4.15282 5.9465 4.35027 5.9465 4.4725 5.82443C4.59472 5.70221 4.59472 5.50461 4.4725 5.38254L1.52282 2.43286C1.46194 2.37183 1.38183 2.34131 1.30187 2.34131Z" fill="#BFBFBF"/>
<path d="M2.18517 1.45692C2.10506 1.45692 2.02511 1.48743 1.96423 1.54847C1.842 1.67069 1.842 1.86814 1.96423 1.99036L4.91451 4.94065C5.03674 5.06287 5.23418 5.06287 5.35641 4.94065C5.47848 4.81843 5.47848 4.62098 5.35641 4.49876L2.40612 1.54847C2.34509 1.48743 2.26513 1.45692 2.18517 1.45692Z" fill="#BFBFBF"/>
<path d="M1.24969 0.468124C0.915985 0.468124 0.601807 0.598129 0.365906 0.834641C0.130005 1.06993 0 1.38411 0 1.71782C0 2.05183 0.130005 2.36555 0.366211 2.60191C0.838165 3.07372 1.66183 3.07341 2.13348 2.60222C2.621 2.11409 2.621 1.32094 2.13379 0.834335C1.89743 0.598129 1.58371 0.468124 1.24969 0.468124ZM1.24969 2.34251C1.08276 2.34251 0.925903 2.27782 0.808105 2.16002C0.690002 2.04192 0.625 1.8846 0.625 1.71782C0.625 1.55089 0.690002 1.39433 0.8078 1.27654C1.04462 1.03972 1.45569 1.04002 1.69189 1.27623C1.93527 1.51961 1.93497 1.91618 1.69159 2.16032C1.57379 2.27782 1.41693 2.34251 1.24969 2.34251Z" fill="#BFBFBF"/>
<path d="M6.68213 6.83838C6.60217 6.83838 6.52222 6.86905 6.46118 6.92993C6.33911 7.05215 6.33911 7.2496 6.46118 7.37183L15.6575 16.5675C15.7797 16.6896 15.9772 16.6896 16.0994 16.5675C16.2216 16.4453 16.2216 16.2479 16.0994 16.1256L6.90308 6.92993C6.84219 6.86874 6.76224 6.83838 6.68213 6.83838V6.83838Z" fill="#BFBFBF"/>
<path d="M4.38146 3.65342C4.34896 3.65342 4.31554 3.65876 4.28273 3.66974L2.95705 4.11148C2.79362 4.16596 2.70482 4.3428 2.7596 4.50684C2.81422 4.67026 2.98985 4.75906 3.15495 4.70444L4.48049 4.26254C4.64391 4.20807 4.73272 4.03122 4.67809 3.86719C4.63399 3.73627 4.51207 3.65342 4.38146 3.65342Z" fill="#BFBFBF"/>
<path d="M3.49724 2.76963C3.46474 2.76963 3.43132 2.77497 3.39852 2.78595L2.07344 3.22784C1.91002 3.28247 1.82137 3.45901 1.87599 3.62304C1.93077 3.78661 2.10594 3.87557 2.27135 3.82064L3.59627 3.37875C3.75969 3.32412 3.8485 3.14743 3.79387 2.9834C3.75008 2.85248 3.62816 2.76963 3.49724 2.76963Z" fill="#BFBFBF"/>
<path d="M12.8846 3.74496C12.7119 3.74496 12.5706 3.88474 12.5706 4.05746C12.5706 4.23035 12.7086 4.36996 12.8812 4.36996H12.8846C13.0572 4.36996 13.1971 4.23035 13.1971 4.05746C13.1971 3.88474 13.0572 3.74496 12.8846 3.74496Z" fill="#BFBFBF"/>
<path d="M1.69166 17.1381C1.55158 17.1381 1.42448 17.2328 1.38877 17.3747L0.946877 19.1422C0.905068 19.3097 1.007 19.4794 1.17439 19.5212C1.34071 19.5638 1.5113 19.4612 1.55326 19.2941L1.995 17.5266C2.03727 17.3587 1.93504 17.189 1.76749 17.1475C1.74232 17.141 1.71668 17.1381 1.69166 17.1381Z" fill="#BFBFBF"/>
<path d="M3.01795 18.4637C2.99293 18.4637 2.96729 18.4665 2.94196 18.473L1.17439 18.9149C1.007 18.9569 0.905068 19.1266 0.946877 19.2941C0.988534 19.4612 1.15852 19.5641 1.32575 19.5212L3.09318 19.0794C3.26072 19.0375 3.3625 18.8678 3.32069 18.7003C3.28544 18.5585 3.15788 18.4637 3.01795 18.4637Z" fill="#BFBFBF"/>
<path d="M13.7591 5.07096C13.6792 5.07096 13.5992 5.10163 13.5382 5.16251L9.77917 8.92152C9.65694 9.04374 9.65694 9.24119 9.77917 9.36341C9.90139 9.48563 10.0988 9.48563 10.2211 9.36341L13.9801 5.60441C14.1023 5.48219 14.1023 5.28474 13.9801 5.16251C13.9192 5.10117 13.8392 5.07096 13.7591 5.07096V5.07096Z" fill="#BFBFBF"/>
<path d="M15.0847 6.39649C15.0048 6.39649 14.9247 6.42716 14.8638 6.4882L11.1051 10.2475C10.9829 10.3697 10.9829 10.5675 11.1051 10.6894C11.2272 10.8116 11.4248 10.8116 11.547 10.6894L15.3057 6.92994C15.4279 6.80787 15.4279 6.61027 15.3057 6.4882C15.2448 6.42686 15.1647 6.39649 15.0847 6.39649V6.39649Z" fill="#BFBFBF"/>
<path d="M13.2794 4.59092C13.1993 4.59092 13.1193 4.62159 13.0585 4.68247C12.9362 4.8047 12.9362 5.00214 13.0585 5.12437L15.3447 7.41059C15.4669 7.53281 15.6644 7.53281 15.7866 7.41059C15.9088 7.28837 15.9088 7.09092 15.7866 6.9687L13.5004 4.68247C13.4393 4.62159 13.3594 4.59092 13.2794 4.59092V4.59092Z" fill="#BFBFBF"/>
<path d="M13.5389 3.08213C13.4588 3.08213 13.3789 3.1128 13.318 3.17368C13.1958 3.29591 13.1958 3.49351 13.318 3.61558L16.8533 7.15089C16.9754 7.27311 17.173 7.27311 17.2952 7.15089C17.4173 7.02882 17.4173 6.83121 17.2952 6.70899L13.7597 3.17368C13.6988 3.1128 13.6189 3.08213 13.5389 3.08213V3.08213Z" fill="#BFBFBF"/>
<path d="M12.8749 2.80746C12.5411 2.80746 12.2271 2.93746 11.9912 3.17397C11.5042 3.66058 11.5042 4.45373 11.9912 4.94094C12.4796 5.42876 13.2721 5.42846 13.7589 4.94125C13.8811 4.81902 13.8811 4.62157 13.7589 4.49935C13.6368 4.37713 13.4392 4.37713 13.3171 4.49935C13.0733 4.74303 12.6767 4.74212 12.4331 4.49905C12.1901 4.25567 12.1898 3.85909 12.4334 3.61556C12.6696 3.37936 13.0811 3.37936 13.3181 3.61587C13.4395 3.73748 13.6377 3.73809 13.76 3.61526C13.8817 3.49303 13.8817 3.29559 13.7592 3.17336C13.523 2.93746 13.2093 2.80746 12.8749 2.80746V2.80746Z" fill="#BFBFBF"/>
<path d="M16.4205 7.28027C16.2477 7.28027 16.1064 7.42004 16.1064 7.59277C16.1064 7.76566 16.2445 7.90527 16.4171 7.90527H16.4205C16.593 7.90527 16.733 7.76566 16.733 7.59277C16.733 7.42004 16.593 7.28027 16.4205 7.28027Z" fill="#BFBFBF"/>
<path d="M17.0741 6.61744C16.994 6.61744 16.9141 6.64811 16.8535 6.70868C16.7309 6.83091 16.7309 7.02851 16.8529 7.15058C17.0962 7.39472 17.0966 7.7913 16.8532 8.03467C16.6096 8.27882 16.2125 8.27851 15.9685 8.03498C15.7255 7.7916 15.7255 7.39472 15.9691 7.15058C16.091 7.02851 16.091 6.83091 15.9685 6.70868C15.8469 6.58722 15.6488 6.58661 15.5266 6.70945C15.04 7.19681 15.04 7.98966 15.5266 8.47687C16.0159 8.96409 16.8091 8.96348 17.2954 8.47626C17.7821 7.98966 17.7821 7.19651 17.2954 6.70945C17.234 6.6478 17.1541 6.61744 17.0741 6.61744V6.61744Z" fill="#BFBFBF"/>
<path d="M18.6981 2.34131C18.6181 2.34131 18.538 2.37183 18.4771 2.43286L15.5275 5.38254C15.4052 5.50461 15.4052 5.70221 15.5275 5.82443C15.6497 5.9465 15.8471 5.9465 15.9694 5.82443L18.919 2.8746C19.0413 2.75253 19.0413 2.55493 18.919 2.43286C18.8581 2.37183 18.778 2.34131 18.6981 2.34131Z" fill="#BFBFBF"/>
<path d="M17.815 1.45692C17.7351 1.45692 17.6551 1.48743 17.5941 1.54847L14.6438 4.49876C14.5217 4.62098 14.5217 4.81843 14.6438 4.94065C14.766 5.06287 14.9635 5.06287 15.0857 4.94065L18.036 1.99036C18.1582 1.86814 18.1582 1.67069 18.036 1.54847C17.9751 1.48743 17.8951 1.45692 17.815 1.45692Z" fill="#BFBFBF"/>
<path d="M18.7503 0.468155C18.4163 0.468155 18.1025 0.59816 17.8662 0.834366C17.379 1.32127 17.379 2.11443 17.8659 2.60164C18.3391 3.07405 19.1618 3.07375 19.6338 2.60194C19.87 2.36559 20 2.05186 20 1.71785C20 1.38414 19.87 1.06996 19.6335 0.834061C19.3982 0.59816 19.084 0.468155 18.7503 0.468155ZM18.7503 2.34254C18.583 2.34254 18.4262 2.27785 18.3078 2.15974C18.065 1.91621 18.0647 1.51964 18.3081 1.27626C18.5443 1.04005 18.956 1.04036 19.1916 1.27596C19.31 1.39436 19.375 1.55092 19.375 1.71785C19.375 1.88463 19.31 2.04195 19.1919 2.16005C19.0741 2.27785 18.9172 2.34254 18.7503 2.34254Z" fill="#BFBFBF"/>
<path d="M13.3179 6.83839C13.2378 6.83839 13.1578 6.86906 13.0969 6.92994L10.4425 9.58497C10.3203 9.70719 10.3203 9.90495 10.4425 10.0269C10.5647 10.1491 10.7622 10.1491 10.8844 10.0269L13.5388 7.37183C13.6609 7.24961 13.6609 7.05216 13.5388 6.92994C13.4778 6.86875 13.3978 6.83839 13.3179 6.83839Z" fill="#BFBFBF"/>
<path d="M15.6185 3.6534C15.4876 3.6534 15.3657 3.73625 15.3224 3.86718C15.2676 4.03091 15.3561 4.20806 15.5198 4.26254L16.8454 4.70444C17.0108 4.75906 17.1861 4.67056 17.2407 4.50683C17.2955 4.3431 17.207 4.16595 17.0433 4.11147L15.7176 3.66973C15.6845 3.65874 15.6514 3.6534 15.6185 3.6534V3.6534Z" fill="#BFBFBF"/>
<path d="M16.5027 2.76961C16.3717 2.76961 16.2498 2.85246 16.2063 2.98338C16.1517 3.14711 16.2402 3.32411 16.4039 3.37874L17.7289 3.82064C17.894 3.87557 18.0696 3.78692 18.1242 3.62304C18.1788 3.45931 18.0905 3.28246 17.9268 3.22783L16.6017 2.78593C16.5686 2.77495 16.5352 2.76961 16.5027 2.76961V2.76961Z" fill="#BFBFBF"/>
<path d="M8.67443 10.1556C8.59447 10.1556 8.51452 10.1863 8.45348 10.2472L1.47106 17.2296C1.34884 17.3518 1.34884 17.5494 1.47106 17.6715C1.59328 17.7937 1.79073 17.7937 1.91296 17.6715L8.89538 10.6891C9.0176 10.5669 9.0176 10.3694 8.89538 10.2472C8.8345 10.1863 8.75454 10.1556 8.67443 10.1556Z" fill="#BFBFBF"/>
<path d="M9.33706 10.8185C9.2571 10.8185 9.17715 10.849 9.11611 10.91L3.90051 16.1256C3.77828 16.2479 3.77828 16.4453 3.90051 16.5675C4.02273 16.6896 4.22018 16.6896 4.3424 16.5675L9.5577 11.3522C9.67992 11.23 9.67992 11.0326 9.5577 10.9103C9.49712 10.849 9.41702 10.8185 9.33706 10.8185Z" fill="#BFBFBF"/>
<path d="M10.0001 11.4812C9.92016 11.4812 9.84005 11.5118 9.77917 11.5729L2.79675 18.5553C2.67452 18.6775 2.67452 18.875 2.79675 18.9972C2.91882 19.1194 3.11642 19.1194 3.23849 18.9972L10.2211 12.0146C10.3433 11.8926 10.3433 11.695 10.2211 11.5729C10.1602 11.5118 10.0801 11.4812 10.0001 11.4812Z" fill="#BFBFBF"/>
<path d="M10.822 16.198C8.782 16.198 7.222 15.592 6.142 14.38C5.062 13.156 4.522 11.488 4.522 9.376C4.522 7.984 4.804 6.772 5.368 5.74C5.944 4.696 6.73 3.892 7.726 3.328C8.722 2.764 9.85 2.482 11.11 2.482C11.638 2.482 12.148 2.518 12.64 2.59C13.132 2.65 13.714 2.734 14.386 2.842C14.89 2.926 15.166 2.968 15.214 2.968L15.016 6.676H13.36L12.802 4.102C12.67 3.97 12.442 3.862 12.118 3.778C11.794 3.694 11.38 3.652 10.876 3.652C9.856 3.652 9.034 4.126 8.41 5.074C7.798 6.01 7.492 7.372 7.492 9.16C7.492 10.888 7.786 12.298 8.374 13.39C8.962 14.482 9.82 15.028 10.948 15.028C11.488 15.028 11.902 14.98 12.19 14.884C12.49 14.776 12.742 14.626 12.946 14.434L13.738 12.58L15.25 12.724L14.89 15.514C14.638 15.538 14.386 15.586 14.134 15.658C13.894 15.718 13.744 15.754 13.684 15.766C13.204 15.898 12.754 16 12.334 16.072C11.926 16.156 11.422 16.198 10.822 16.198Z" fill="url(#paint0_linear)"/>
</g>
<defs>
<linearGradient id="paint0_linear" x1="10" y1="1" x2="10" y2="19" gradientUnits="userSpaceOnUse">
<stop stop-color="#9C7A61"/>
<stop offset="0.463262" stop-color="#D8C7AA"/>
<stop offset="1" stop-color="#9C7A61"/>
</linearGradient>
<clipPath id="clip0">
<rect width="20" height="20" fill="white" transform="matrix(1 0 0 -1 0 20)"/>
</clipPath>
</defs>
</svg>
