<svg width="20" height="20" viewBox="0 0 20 20" fill="none" xmlns="http://www.w3.org/2000/svg">
<circle cx="10" cy="10" r="10" fill="white"/>
<path d="M18 4.01438L17.6837 5.68194C17.6837 5.68194 16.8931 5.46631 16.4906 6.24259L15.5993 9.37646L15.973 9.1177H17.7556L17.3531 10.4978H15.3405L14.3397 13.9082C14.2052 14.3599 13.9285 14.7561 13.5507 15.0378C13.1729 15.3195 12.7142 15.4717 12.2429 15.4717C11.7559 15.4717 11.2828 15.3093 10.8986 15.0101C10.5144 14.7109 10.241 14.2921 10.1216 13.8199L7.92676 5.90131C7.90915 5.8343 7.86983 5.77501 7.81495 5.73272C7.76007 5.69043 7.69272 5.66752 7.62343 5.66757C7.55313 5.66772 7.48491 5.69146 7.42971 5.73498C7.3745 5.77851 7.3355 5.83931 7.31896 5.90764L5.45013 13.3295C5.28574 13.9827 4.90795 14.5623 4.37669 14.9764C3.84543 15.3906 3.19112 15.6155 2.51752 15.6155H2L2.34501 13.9479C2.34501 13.9479 3.20755 14.1204 3.49506 13.2291L4.38634 10.124L3.98383 10.469H2.23001L2.60377 9.1177H4.55885L5.68187 5.57211C5.79649 5.12252 6.0576 4.72391 6.42397 4.43922C6.79035 4.15454 7.24111 3.99999 7.70509 4C8.16995 4.00003 8.62151 4.1552 8.98821 4.44091C9.3549 4.72662 9.61576 5.12654 9.72945 5.57729L11.9045 13.5672C11.9251 13.6512 11.9732 13.7258 12.0412 13.7792C12.1093 13.8326 12.1932 13.8616 12.2797 13.8616C12.3655 13.8614 12.4488 13.8326 12.5165 13.7799C12.5841 13.7271 12.6323 13.6533 12.6534 13.5701L14.6531 5.97463C14.7928 5.42463 15.1099 4.936 15.5552 4.58427C16.0006 4.23254 16.5494 4.0373 17.1168 4.02875L18 4.01438Z" fill="black"/>
</svg>
