<svg width="20" height="20" viewBox="0 0 20 20" fill="none" xmlns="http://www.w3.org/2000/svg">
<path d="M10 20C15.5228 20 20 15.5228 20 10C20 4.47715 15.5228 0 10 0C4.47715 0 0 4.47715 0 10C0 15.5228 4.47715 20 10 20Z" fill="#0B1C26"/>
<path d="M10 16.875C6.2075 16.8638 3.125 13.7856 3.125 10C3.125 6.21438 6.2075 3.13625 10 3.125C13.7925 3.13625 16.875 6.21438 16.875 10C16.875 13.7856 13.7925 16.8675 10 16.875ZM16.0969 11.0938C16.0243 11.2611 15.889 11.3933 15.72 11.462C15.5511 11.5307 15.3619 11.5305 15.1931 11.4612C15.4362 11.715 15.5881 12.0556 15.5881 12.43C15.5881 12.54 15.5731 12.6425 15.5506 12.745C15.8081 12.2225 15.9925 11.6669 16.0969 11.0944V11.0938ZM15.4594 11.1625C15.5509 11.1627 15.6387 11.1265 15.7035 11.0619C15.7683 10.9973 15.8048 10.9096 15.805 10.8181C15.8052 10.7266 15.769 10.6388 15.7044 10.574C15.6398 10.5092 15.5521 10.4727 15.4606 10.4725C15.4153 10.4724 15.3704 10.4812 15.3285 10.4984C15.2866 10.5156 15.2485 10.5409 15.2164 10.5729C15.1515 10.6374 15.1149 10.7251 15.1147 10.8166C15.1144 10.9081 15.1505 10.9959 15.2151 11.0608C15.2796 11.1257 15.3672 11.1623 15.4587 11.1625H15.4594ZM15.6144 7.39563C15.7846 7.87203 15.8265 8.38483 15.7359 8.88256C15.6453 9.38029 15.4253 9.84542 15.0981 10.2313C15.206 10.1658 15.3294 10.1304 15.4556 10.1287C15.8162 10.1287 16.1119 10.405 16.1425 10.7613C16.1731 10.5113 16.1919 10.2613 16.1919 10.0038C16.1961 9.10221 15.9988 8.21111 15.6144 7.39563ZM15.2619 8.36062C15.2604 7.72735 15.0077 7.12054 14.5592 6.67339C14.1108 6.22624 13.5033 5.97529 12.87 5.97563C12.2367 5.97529 11.6292 6.22624 11.1808 6.67339C10.7323 7.12054 10.4796 7.72735 10.4781 8.36062C10.4796 8.9939 10.7323 9.60071 11.1808 10.0479C11.6292 10.495 12.2367 10.746 12.87 10.7456C13.5031 10.7453 14.1102 10.4941 14.5585 10.0471C15.0068 9.60012 15.2597 8.9937 15.2619 8.36062ZM12.775 12.4312C12.775 11.9125 13.0625 11.4356 13.5231 11.1938C12.9396 11.3293 12.3285 11.2815 11.7731 11.0569C12.2453 11.4189 12.5951 11.9172 12.775 12.4844C12.7788 12.4613 12.775 12.4462 12.775 12.4312ZM12.9119 13.355C12.9111 13.5846 12.883 13.8133 12.8281 14.0363C12.9419 13.8094 13.1737 13.6656 13.4281 13.6656C13.4639 13.6654 13.4995 13.6692 13.5344 13.6769C13.2419 13.5266 13.011 13.279 12.8813 12.9769C12.9013 13.1019 12.9113 13.2281 12.9119 13.355ZM14.1794 13.3131C14.414 13.3135 14.6392 13.2209 14.8058 13.0556C14.9723 12.8904 15.0666 12.6659 15.0681 12.4312C15.0681 11.9431 14.6694 11.5494 14.1794 11.5494C13.6894 11.5494 13.295 11.9469 13.295 12.4306C13.295 12.9194 13.6937 13.3131 14.18 13.3131H14.1794ZM14.7638 10.8225C14.765 10.7056 14.795 10.5912 14.8512 10.4887C14.599 10.7217 14.3088 10.9098 13.9931 11.045C14.0544 11.0381 14.115 11.0306 14.1794 11.0306C14.432 11.03 14.68 11.0981 14.8969 11.2275C14.8104 11.11 14.764 10.9678 14.7644 10.8219L14.7638 10.8225ZM9.99937 10.4475C10.3744 10.4475 10.7456 10.5194 11.0931 10.6594C10.5096 10.2124 10.1184 9.55973 9.99937 8.83438C9.87981 9.55939 9.48903 10.2118 8.90625 10.6594C9.25431 10.5207 9.62533 10.4486 10 10.4469L9.99937 10.4475ZM9.99937 6.58938C9.73479 6.58991 9.47552 6.51512 9.25188 6.37375C9.64592 6.78972 9.90647 7.31408 10 7.87938C10.0958 7.31465 10.3561 6.79072 10.7481 6.37312C10.5243 6.51461 10.2648 6.5894 10 6.58875L9.99937 6.58938ZM11.4194 5.17375C11.4194 5.49062 11.3125 5.79875 11.1156 6.04875C11.4107 5.82542 11.746 5.66078 12.1031 5.56375C12.0875 5.56375 12.0763 5.5675 12.065 5.5675C11.7725 5.5675 11.5212 5.38625 11.4194 5.12812C11.4163 5.14313 11.4194 5.15875 11.4194 5.17375ZM12.4975 4.3375C12.6538 4.46625 12.7556 4.655 12.7556 4.87125C12.7556 5.145 12.5931 5.39313 12.3419 5.50313C12.8454 5.4104 13.3644 5.45185 13.8468 5.62333C14.3292 5.79481 14.758 6.09027 15.09 6.48C14.4372 5.54305 13.541 4.80205 12.4981 4.33688L12.4975 4.3375ZM12.0613 4.53063C12.0159 4.5305 11.9711 4.5393 11.9292 4.55653C11.8872 4.57375 11.8491 4.59906 11.817 4.63101C11.7849 4.66296 11.7594 4.70092 11.7419 4.74273C11.7245 4.78454 11.7154 4.82938 11.7153 4.87469C11.7152 4.91999 11.724 4.96488 11.7412 5.00678C11.7584 5.04869 11.7837 5.08679 11.8157 5.11891C11.8476 5.15104 11.8856 5.17655 11.9274 5.194C11.9692 5.21146 12.0141 5.2205 12.0594 5.22062C12.151 5.22087 12.2389 5.18473 12.3038 5.12015C12.3688 5.05557 12.4054 4.96783 12.4056 4.87625C12.4059 4.78467 12.3697 4.69674 12.3051 4.6318C12.2406 4.56687 12.1528 4.53025 12.0613 4.53V4.53063ZM10.4288 3.8225C10.6573 3.89503 10.8636 4.02445 11.0283 4.19861C11.1931 4.37277 11.3109 4.58595 11.3706 4.81813C11.3834 4.64441 11.4613 4.48194 11.5888 4.36325C11.7163 4.24457 11.8839 4.17844 12.0581 4.17812C12.0808 4.1788 12.1034 4.1813 12.1256 4.18563C11.5795 3.9866 11.0085 3.86439 10.4288 3.8225ZM9.10375 5.17375C9.10992 5.40727 9.20702 5.62916 9.37437 5.79214C9.54171 5.95513 9.76609 6.04633 9.99969 6.04633C10.2333 6.04633 10.4577 5.95513 10.625 5.79214C10.7924 5.62916 10.8895 5.40727 10.8956 5.17375C10.887 4.94201 10.7888 4.72264 10.6218 4.56175C10.4548 4.40086 10.2319 4.31097 10 4.31097C9.76809 4.31097 9.54522 4.40086 9.3782 4.56175C9.21118 4.72264 9.11303 4.94201 9.10438 5.17375H9.10375ZM7.87063 4.18563C7.89309 4.18127 7.91587 4.17876 7.93875 4.17812C8.11315 4.17771 8.28119 4.24359 8.40883 4.36241C8.53648 4.48124 8.6142 4.64414 8.62625 4.81813C8.68594 4.58602 8.80363 4.37288 8.96827 4.19873C9.13291 4.02458 9.33911 3.89512 9.5675 3.8225C8.975 3.8675 8.405 3.98875 7.87063 4.18563ZM8.58 5.17375C8.57934 5.15844 8.5806 5.14312 8.58375 5.12812C8.53257 5.25751 8.44374 5.36856 8.32874 5.44689C8.21375 5.52523 8.07789 5.56724 7.93875 5.5675C7.92312 5.5675 7.91187 5.56375 7.90062 5.56375C8.25688 5.66125 8.5925 5.82625 8.88812 6.04813C8.68865 5.80037 8.57993 5.49183 8.58 5.17375ZM7.59313 4.87437C7.59317 4.91968 7.60213 4.96454 7.61951 5.00638C7.63688 5.04822 7.66233 5.08623 7.69439 5.11824C7.72646 5.15024 7.76451 5.17562 7.80639 5.19292C7.84826 5.21022 7.89313 5.2191 7.93844 5.21906C7.98374 5.21902 8.0286 5.21006 8.07044 5.19268C8.11228 5.17531 8.15029 5.14986 8.1823 5.11779C8.2143 5.08573 8.23968 5.04767 8.25698 5.0058C8.27428 4.96393 8.28317 4.91906 8.28312 4.87375C8.28304 4.78225 8.24661 4.69453 8.18186 4.62989C8.1171 4.56525 8.02931 4.52898 7.93781 4.52906C7.84631 4.52915 7.75859 4.56557 7.69395 4.63033C7.62931 4.69509 7.59304 4.78288 7.59313 4.87437ZM4.90937 6.48375C5.24062 6.09305 5.66929 5.79691 6.15192 5.62534C6.63456 5.45378 7.15398 5.41291 7.6575 5.50688C7.54905 5.45958 7.45464 5.38509 7.3834 5.29063C7.31216 5.19616 7.26651 5.08491 7.25086 4.96763C7.23522 4.85035 7.2501 4.73102 7.29407 4.62118C7.33804 4.51134 7.40962 4.4147 7.50187 4.34063C6.45722 4.80324 5.56022 5.54475 4.90937 6.48375ZM4.73812 8.36125C4.73961 8.99452 4.99231 9.60133 5.44075 10.0485C5.88919 10.4956 6.49672 10.7466 7.13 10.7463C7.76328 10.7466 8.37081 10.4956 8.81925 10.0485C9.26769 9.60133 9.52038 8.99452 9.52187 8.36125C9.52038 7.72798 9.26769 7.12117 8.81925 6.67402C8.37081 6.22687 7.76328 5.97592 7.13 5.97625C5.8125 5.98 4.73812 7.0475 4.73812 8.36125ZM7.225 12.4312C7.225 12.4462 7.22125 12.4656 7.22125 12.4806C7.40221 11.914 7.75172 11.416 8.22312 11.0531C7.66771 11.2775 7.05658 11.3251 6.47313 11.1894C6.6996 11.3084 6.8893 11.4869 7.0218 11.7057C7.15429 11.9246 7.22455 12.1754 7.225 12.4312ZM5.23562 10.8219C5.23625 10.9688 5.18812 11.1112 5.09875 11.2269C5.31577 11.0978 5.56374 11.03 5.81625 11.0306C5.87875 11.03 5.94125 11.035 6.0025 11.0456C5.68535 10.9133 5.39466 10.7249 5.14437 10.4894C5.20438 10.5894 5.23562 10.705 5.23562 10.8219ZM4.93187 12.4312C4.93187 12.6658 5.02505 12.8907 5.1909 13.0566C5.35675 13.2225 5.5817 13.3156 5.81625 13.3156C6.0508 13.3156 6.27574 13.2225 6.4416 13.0566C6.60745 12.8907 6.70062 12.6658 6.70062 12.4312C6.70062 11.9425 6.3025 11.5487 5.81625 11.5487C5.70015 11.5483 5.58512 11.5709 5.47776 11.6151C5.3704 11.6592 5.27283 11.7242 5.19065 11.8062C5.10847 11.8882 5.0433 11.9856 4.99889 12.0929C4.95449 12.2002 4.93171 12.3152 4.93187 12.4312ZM6.46187 13.6769C6.49625 13.6731 6.53062 13.665 6.56812 13.665C6.8225 13.6656 7.05437 13.8088 7.16813 14.0363C7.11322 13.8133 7.08511 13.5846 7.08437 13.355C7.08562 13.2269 7.09438 13.0988 7.11125 12.9725C6.98438 13.2762 6.755 13.5256 6.46187 13.6769ZM3.85375 10.7581C3.86873 10.5859 3.94757 10.4255 4.07478 10.3085C4.202 10.1915 4.36839 10.1262 4.54125 10.1256C4.66687 10.1263 4.79062 10.1619 4.8975 10.2281C4.57028 9.84229 4.35032 9.37716 4.2597 8.87944C4.16909 8.38171 4.21101 7.8689 4.38125 7.3925C3.89047 8.44163 3.70755 9.60851 3.85375 10.7575V10.7581ZM4.54125 10.4775C4.49594 10.4774 4.45107 10.4863 4.40918 10.5035C4.36729 10.5208 4.32921 10.5461 4.29712 10.5781C4.26502 10.6101 4.23954 10.6481 4.22213 10.6899C4.20471 10.7317 4.19571 10.7766 4.19562 10.8219C4.19554 10.8672 4.20439 10.9121 4.22165 10.9539C4.23891 10.9958 4.26425 11.0339 4.29623 11.066C4.32821 11.0981 4.3662 11.1236 4.40802 11.141C4.44985 11.1584 4.49469 11.1674 4.54 11.1675C4.6315 11.1677 4.71932 11.1315 4.78413 11.0669C4.84895 11.0023 4.88546 10.9146 4.88562 10.8231C4.88579 10.7316 4.8496 10.6438 4.78502 10.579C4.72044 10.5142 4.63275 10.4777 4.54125 10.4775ZM4.4125 12.4312C4.4125 12.0687 4.55375 11.7213 4.80687 11.4625C4.63809 11.5315 4.44898 11.5317 4.28006 11.463C4.11113 11.3944 3.97583 11.2622 3.90312 11.095C4.00937 11.6775 4.1925 12.2306 4.45 12.745C4.42578 12.6422 4.4132 12.5369 4.4125 12.4312ZM6.18875 13.7825C5.95843 13.8454 5.71587 13.8486 5.484 13.7916C5.25214 13.7346 5.03866 13.6194 4.86375 13.4569C5.195 13.9462 5.59375 14.3856 6.04813 14.7631C5.9487 14.6442 5.89369 14.4944 5.8925 14.3394C5.8925 14.1163 6.00375 13.9081 6.18875 13.7831V13.7825ZM6.24188 14.3387C6.24188 14.4253 6.27625 14.5083 6.33743 14.5694C6.39862 14.6306 6.4816 14.665 6.56812 14.665C6.65465 14.665 6.73763 14.6306 6.79882 14.5694C6.86 14.5083 6.89438 14.4253 6.89438 14.3387C6.89438 14.2522 6.86 14.1692 6.79882 14.1081C6.73763 14.0469 6.65465 14.0125 6.56812 14.0125C6.4816 14.0125 6.39862 14.0469 6.33743 14.1081C6.27625 14.1692 6.24188 14.2522 6.24188 14.3387ZM9.16125 16.1375C8.71631 16.0028 8.30994 15.7639 7.97589 15.4407C7.64184 15.1174 7.38977 14.719 7.24062 14.2788C7.24062 14.2975 7.24813 14.3163 7.24813 14.3394C7.24799 14.4535 7.21889 14.5658 7.16354 14.6656C7.10819 14.7654 7.02841 14.8496 6.93167 14.9101C6.83492 14.9707 6.72439 15.0058 6.61041 15.012C6.49643 15.0182 6.38275 14.9953 6.28 14.9456C7.12309 15.5821 8.11492 15.9924 9.16125 16.1375ZM12.3881 13.355C12.3881 12.7217 12.1366 12.1144 11.6888 11.6666C11.2409 11.2188 10.6336 10.9672 10.0003 10.9672C9.36702 10.9672 8.75968 11.2188 8.31187 11.6666C7.86407 12.1144 7.6125 12.7217 7.6125 13.355C7.61382 13.9875 7.86589 14.5937 8.31343 15.0407C8.76098 15.4876 9.36749 15.7389 10 15.7394C10.6324 15.7382 11.2386 15.4867 11.6861 15.0397C12.1335 14.5927 12.3857 13.9868 12.3875 13.3544L12.3881 13.355ZM13.7244 14.945C13.6215 14.9951 13.5076 15.0182 13.3934 15.0122C13.2791 15.0062 13.1683 14.9712 13.0712 14.9106C12.9745 14.8501 12.8947 14.7658 12.8396 14.6659C12.7845 14.5659 12.7558 14.4535 12.7563 14.3394C12.7569 14.319 12.7594 14.2987 12.7638 14.2788C12.6145 14.7191 12.3624 15.1175 12.0282 15.4408C11.6941 15.7641 11.2876 16.0029 10.8425 16.1375C11.8885 15.9906 12.8799 15.5803 13.7238 14.945H13.7244ZM13.7587 14.3387C13.7587 14.2743 13.7396 14.2112 13.7038 14.1576C13.668 14.1039 13.6171 14.0621 13.5575 14.0374C13.4979 14.0127 13.4324 14.0062 13.3691 14.0187C13.3058 14.0313 13.2477 14.0623 13.202 14.1078C13.1564 14.1534 13.1253 14.2115 13.1126 14.2747C13.0999 14.338 13.1063 14.4035 13.1309 14.4632C13.1555 14.5228 13.1972 14.5738 13.2508 14.6097C13.3044 14.6456 13.3674 14.6649 13.4319 14.665C13.5181 14.6643 13.6006 14.6299 13.6616 14.5689C13.7227 14.508 13.7573 14.4256 13.7581 14.3394L13.7587 14.3387ZM15.1363 13.4575C14.9613 13.62 14.7478 13.7352 14.516 13.7921C14.2841 13.8489 14.0415 13.8456 13.8112 13.7825C13.9963 13.9075 14.1075 14.1163 14.1075 14.3387C14.1075 14.5019 14.0469 14.6456 13.9519 14.7631C14.4064 14.3858 14.8051 13.946 15.1363 13.4569V13.4575Z" fill="white"/>
</svg>
