<svg width="20" height="20" viewBox="0 0 20 20" fill="none" xmlns="http://www.w3.org/2000/svg">
<path d="M10 20C15.5228 20 20 15.5228 20 10C20 4.47715 15.5228 0 10 0C4.47715 0 0 4.47715 0 10C0 15.5228 4.47715 20 10 20Z" fill="#5B6DEE"/>
<path d="M8.3125 9.38748C7.96381 9.38569 7.61569 9.41582 7.2725 9.47748C7.555 6.86498 9.7325 4.88623 12.325 4.88623C13.9125 4.88623 15 5.66373 15 7.27248C15 8.88186 13.6944 9.65936 11.79 9.65936C10.3838 9.65936 9.71875 9.38811 8.3125 9.38811V9.38748ZM8.21 10.3406C6.30562 10.3406 5 11.1187 5 12.7275C5 14.3362 6.0875 15.1137 7.675 15.1137C10.2675 15.1137 12.445 13.1356 12.7275 10.5225C12.3843 10.5841 12.0362 10.6143 11.6875 10.6125C10.2813 10.6125 9.61562 10.3406 8.21 10.3406" fill="white"/>
</svg>
