<svg width="20" height="20" viewBox="0 0 20 20" fill="none" xmlns="http://www.w3.org/2000/svg">
<path d="M10 20C15.5228 20 20 15.5228 20 10C20 4.47715 15.5228 0 10 0C4.47715 0 0 4.47715 0 10C0 15.5228 4.47715 20 10 20Z" fill="#F4F4F4"/>
<path d="M9.99501 2.44104L2.43604 10L9.99501 17.559L17.554 10L9.99501 2.44104Z" stroke="#EC4C20" stroke-width="0.3" stroke-miterlimit="10"/>
<path d="M9.99525 4.16638L4.16162 10L9.99525 15.8336L15.8289 10L9.99525 4.16638Z" fill="#040D5D"/>
<path d="M13.7799 14.64C14.2549 14.64 14.6399 14.2549 14.6399 13.78C14.6399 13.305 14.2549 12.92 13.7799 12.92C13.305 12.92 12.9199 13.305 12.9199 13.78C12.9199 14.2549 13.305 14.64 13.7799 14.64Z" fill="#040D5D"/>
<path d="M6.21986 14.64C6.69483 14.64 7.07986 14.2549 7.07986 13.78C7.07986 13.305 6.69483 12.92 6.21986 12.92C5.7449 12.92 5.35986 13.305 5.35986 13.78C5.35986 14.2549 5.7449 14.64 6.21986 14.64Z" fill="#040D5D"/>
<path d="M13.7799 7.07999C14.2549 7.07999 14.6399 6.69495 14.6399 6.21999C14.6399 5.74501 14.2549 5.35999 13.7799 5.35999C13.305 5.35999 12.9199 5.74501 12.9199 6.21999C12.9199 6.69495 13.305 7.07999 13.7799 7.07999Z" fill="#040D5D"/>
<path d="M6.21986 7.07999C6.69483 7.07999 7.07986 6.69495 7.07986 6.21999C7.07986 5.74501 6.69483 5.35999 6.21986 5.35999C5.7449 5.35999 5.35986 5.74501 5.35986 6.21999C5.35986 6.69495 5.7449 7.07999 6.21986 7.07999Z" fill="#040D5D"/>
<path d="M11.9999 7.78002L11.5899 8.84002C11.5899 8.84002 9.90986 8.12002 9.50986 8.73002C9.28986 9.07002 9.79986 9.33002 10.5099 9.43002C10.9693 9.50197 11.4106 9.66153 11.8099 9.90002C12.5199 10.36 12.8099 12.62 9.80986 12.56C9.10503 12.5601 8.41978 12.3281 7.85986 11.9L8.26986 10.84C8.57194 10.9979 8.89054 11.122 9.21986 11.21C9.6418 11.3119 10.0768 11.349 10.5099 11.32C10.5616 11.3082 10.6093 11.2829 10.6481 11.2467C10.6868 11.2104 10.7153 11.1646 10.7305 11.1137C10.7458 11.0629 10.7473 11.0089 10.7349 10.9573C10.7225 10.9057 10.6966 10.8583 10.6599 10.82C10.2758 10.5892 9.84562 10.4458 9.39986 10.4C7.68986 10 7.84986 8.82002 7.99986 8.49002C8.14519 8.08785 8.42126 7.74609 8.78388 7.51945C9.1465 7.29282 9.57468 7.19442 9.99986 7.24002C10.6987 7.26734 11.3823 7.45192 11.9999 7.78002Z" fill="white"/>
</svg>
