<svg width="20" height="20" viewBox="0 0 20 20" fill="none" xmlns="http://www.w3.org/2000/svg">
<path fill-rule="evenodd" clip-rule="evenodd" d="M10 19.15C15.0534 19.15 19.15 15.0534 19.15 10C19.15 4.94659 15.0534 0.85 10 0.85C4.94659 0.85 0.85 4.94659 0.85 10C0.85 15.0534 4.94659 19.15 10 19.15ZM10 20C15.5228 20 20 15.5228 20 10C20 4.47715 15.5228 0 10 0C4.47715 0 0 4.47715 0 10C0 15.5228 4.47715 20 10 20Z" fill="url(#paint0_linear_3986_53197)"/>
<path d="M19.1501 9.99998C19.1501 15.0534 15.0535 19.15 10.0001 19.15C4.94669 19.15 0.850098 15.0534 0.850098 9.99998C0.850098 4.94657 4.94669 0.849976 10.0001 0.849976C15.0535 0.849976 19.1501 4.94657 19.1501 9.99998Z" fill="#231F20"/>
<path fill-rule="evenodd" clip-rule="evenodd" d="M5.12064 5.67083C5.19702 5.67083 5.25814 5.66066 5.25814 5.64792C5.25814 5.63531 5.3097 5.625 5.37272 5.625C5.43574 5.625 5.4873 5.63531 5.4873 5.64792C5.4873 5.66052 5.50793 5.67083 5.53314 5.67083C5.55933 5.67083 5.57897 5.68612 5.57897 5.70647C5.57897 5.72609 5.64085 5.80286 5.71647 5.87708C5.7921 5.95131 5.85397 6.02359 5.85397 6.03773C5.85397 6.05185 5.90553 6.11361 5.96855 6.175C6.03158 6.23639 6.08314 6.29827 6.08314 6.3125C6.08314 6.32673 6.1347 6.38861 6.19772 6.45C6.26074 6.51139 6.3123 6.57327 6.3123 6.5875C6.3123 6.60173 6.36387 6.66361 6.42689 6.725C6.48991 6.78639 6.54147 6.84841 6.54147 6.8628C6.54147 6.87721 6.58272 6.92864 6.63314 6.97708C6.68355 7.02553 6.7248 7.08142 6.7248 7.10134C6.7248 7.12123 6.73512 7.1375 6.74772 7.1375C6.76033 7.1375 6.77064 7.15813 6.77064 7.18333C6.77064 7.20854 6.78095 7.22917 6.79355 7.22917C6.80616 7.22917 6.81647 7.2601 6.81647 7.29792C6.81647 7.33573 6.82678 7.36667 6.83939 7.36667C6.85199 7.36667 6.8623 7.38729 6.8623 7.4125C6.8623 7.43771 6.87262 7.45833 6.88522 7.45833C6.89783 7.45833 6.90814 7.48927 6.90814 7.52708C6.90814 7.5649 6.91845 7.59583 6.93105 7.59583C6.94531 7.59583 6.95397 7.7257 6.95397 7.93958C6.95397 8.15346 6.94531 8.28333 6.93105 8.28333C6.91845 8.28333 6.90814 8.29926 6.90814 8.31874C6.90814 8.3646 6.80607 8.46667 6.76021 8.46667C6.74073 8.46667 6.7248 8.47698 6.7248 8.48958C6.7248 8.50219 6.69387 8.5125 6.65605 8.5125C6.61824 8.5125 6.5873 8.52281 6.5873 8.53542C6.5873 8.54802 6.53574 8.55833 6.47272 8.55833C6.4097 8.55833 6.35814 8.56865 6.35814 8.58125C6.35814 8.59385 6.3272 8.60417 6.28939 8.60417C6.25158 8.60417 6.22064 8.61448 6.22064 8.62708C6.22064 8.63969 6.16908 8.65 6.10605 8.65C6.04303 8.65 5.99147 8.66031 5.99147 8.67292C5.99147 8.68552 5.95022 8.69583 5.8998 8.69583C5.84939 8.69583 5.80814 8.70615 5.80814 8.71875C5.80814 8.73135 5.76689 8.74167 5.71647 8.74167C5.66605 8.74167 5.6248 8.75198 5.6248 8.76458C5.6248 8.77719 5.59387 8.7875 5.55605 8.7875C5.51824 8.7875 5.4873 8.77719 5.4873 8.76458C5.4873 8.75198 5.47103 8.74167 5.45114 8.74167C5.43123 8.74167 5.37533 8.70042 5.32689 8.65C5.27844 8.59958 5.22255 8.55833 5.20263 8.55833C5.18176 8.55833 5.16647 8.53897 5.16647 8.5125C5.16647 8.48729 5.15616 8.46667 5.14355 8.46667C5.13095 8.46667 5.12064 8.44604 5.12064 8.42083C5.12064 8.39563 5.11033 8.375 5.09772 8.375C5.08512 8.375 5.0748 8.34406 5.0748 8.30625C5.0748 8.26844 5.06449 8.2375 5.05189 8.2375C5.03814 8.2375 5.02897 8.14583 5.02897 8.00833C5.02897 7.88229 5.03493 7.77917 5.04222 7.77917C5.04953 7.77917 5.09511 7.82042 5.14355 7.87083C5.192 7.92125 5.24789 7.9625 5.26781 7.9625C5.2877 7.9625 5.30397 7.97281 5.30397 7.98542C5.30397 7.99802 5.33406 8.00833 5.37082 8.00833C5.40758 8.00833 5.44367 8.02121 5.45103 8.03698C5.46171 8.0599 5.46707 8.0599 5.47775 8.03698C5.4851 8.02121 5.51678 8.00833 5.54815 8.00833C5.61277 8.00833 5.67064 7.96039 5.67064 7.90684C5.67064 7.88704 5.68095 7.87083 5.69355 7.87083C5.70616 7.87083 5.71647 7.8399 5.71647 7.80208C5.71647 7.76427 5.70616 7.73333 5.69355 7.73333C5.68095 7.73333 5.67064 7.71271 5.67064 7.6875C5.67064 7.66229 5.66033 7.64167 5.64772 7.64167C5.63512 7.64167 5.6248 7.62104 5.6248 7.59583C5.6248 7.57063 5.61449 7.55 5.60189 7.55C5.58928 7.55 5.57897 7.53419 5.57897 7.51487C5.57897 7.47197 5.43178 7.32083 5.39 7.32083C5.37345 7.32083 5.34506 7.30021 5.32689 7.275C5.30871 7.24979 5.27778 7.22917 5.25814 7.22917C5.2385 7.22917 5.20756 7.20854 5.18939 7.18333C5.16998 7.15643 5.13006 7.1375 5.09266 7.1375C5.05764 7.1375 5.02897 7.12719 5.02897 7.11458C5.02897 7.10198 4.99803 7.09167 4.96022 7.09167C4.92241 7.09167 4.89147 7.08135 4.89147 7.06875C4.89147 7.05601 4.83035 7.04583 4.75397 7.04583C4.67759 7.04583 4.61647 7.05601 4.61647 7.06875C4.61647 7.08135 4.59053 7.09167 4.55881 7.09167C4.51763 7.09167 4.45216 7.14066 4.32965 7.26317C4.23532 7.3575 4.15814 7.45031 4.15814 7.46942C4.15814 7.48854 4.14783 7.50417 4.13522 7.50417C4.12262 7.50417 4.1123 7.55115 4.1123 7.60855C4.1123 7.70588 4.12163 7.7221 4.2498 7.84792C4.32543 7.92214 4.3873 7.99413 4.3873 8.00785C4.3873 8.0216 4.49043 8.13525 4.61647 8.26042C4.74251 8.38559 4.84564 8.50155 4.84564 8.51809C4.84564 8.53466 4.86626 8.56308 4.89147 8.58125C4.91668 8.59942 4.9373 8.6277 4.9373 8.64409C4.9373 8.68293 5.17937 8.925 5.21822 8.925C5.2346 8.925 5.26288 8.94563 5.28105 8.97083C5.29923 8.99604 5.32755 9.01667 5.34401 9.01667C5.38574 9.01667 5.57897 9.21405 5.57897 9.2567C5.57897 9.27592 5.58928 9.29167 5.60189 9.29167C5.61449 9.29167 5.6248 9.33065 5.6248 9.37827C5.6248 9.43859 5.63871 9.47491 5.67064 9.49792C5.69585 9.51609 5.71647 9.54517 5.71647 9.56254C5.71647 9.57989 5.74741 9.62302 5.78522 9.65833C5.82303 9.69365 5.85397 9.73678 5.85397 9.75413C5.85397 9.7715 5.8746 9.80058 5.8998 9.81875C5.92501 9.83692 5.94564 9.87013 5.94564 9.89256C5.94564 9.91498 5.95595 9.93333 5.96855 9.93333C5.98116 9.93333 5.99147 9.95169 5.99147 9.9741C5.99147 9.99654 6.0121 10.0297 6.0373 10.0479C6.06251 10.0661 6.08314 10.0993 6.08314 10.1217C6.08314 10.1441 6.09345 10.1625 6.10605 10.1625C6.11866 10.1625 6.12897 10.1934 6.12897 10.2313C6.12897 10.2691 6.13928 10.3 6.15189 10.3C6.16449 10.3 6.1748 10.3206 6.1748 10.3458C6.1748 10.371 6.18512 10.3917 6.19772 10.3917C6.21033 10.3917 6.22064 10.4432 6.22064 10.5062C6.22064 10.5693 6.23095 10.6208 6.24355 10.6208C6.25744 10.6208 6.26647 10.7201 6.26647 10.8729C6.26647 11.0257 6.25744 11.125 6.24355 11.125C6.23095 11.125 6.22064 11.1559 6.22064 11.1937C6.22064 11.2405 6.20929 11.2625 6.18523 11.2625C6.13937 11.2625 6.0373 11.3646 6.0373 11.4104C6.0373 11.4299 6.02699 11.4458 6.01439 11.4458C6.00178 11.4458 5.99147 11.4665 5.99147 11.4917C5.99147 11.5169 5.98116 11.5375 5.96855 11.5375C5.95595 11.5375 5.94564 11.5581 5.94564 11.5833C5.94564 11.6085 5.93533 11.6292 5.92272 11.6292C5.91012 11.6292 5.8998 11.6498 5.8998 11.675C5.8998 11.7002 5.88949 11.7208 5.87689 11.7208C5.86428 11.7208 5.85397 11.7415 5.85397 11.7667C5.85397 11.7919 5.84366 11.8125 5.83105 11.8125C5.81845 11.8125 5.80814 11.8309 5.80814 11.8533C5.80814 11.8757 5.78751 11.9089 5.7623 11.9271C5.7371 11.9453 5.71647 11.9743 5.71647 11.9917C5.71647 12.0091 5.68553 12.0522 5.64772 12.0875C5.60991 12.1228 5.57897 12.1638 5.57897 12.1785C5.57897 12.217 5.51975 12.2708 5.47747 12.2708C5.45676 12.2708 5.44147 12.2903 5.44147 12.3167C5.44147 12.343 5.42619 12.3625 5.40561 12.3625C5.38588 12.3625 5.31953 12.4141 5.25814 12.4771C5.19674 12.5401 5.13267 12.5917 5.11573 12.5917C5.09878 12.5917 5.07006 12.6123 5.05189 12.6375C5.03372 12.6627 5.00051 12.6833 4.97807 12.6833C4.95566 12.6833 4.9373 12.6936 4.9373 12.7063C4.9373 12.7189 4.91668 12.7292 4.89147 12.7292C4.86626 12.7292 4.84564 12.7395 4.84564 12.7521C4.84564 12.7647 4.82501 12.775 4.7998 12.775C4.7746 12.775 4.75397 12.7853 4.75397 12.7979C4.75397 12.8105 4.72303 12.8208 4.68522 12.8208C4.64741 12.8208 4.61647 12.8311 4.61647 12.8438C4.61647 12.8564 4.59585 12.8667 4.57064 12.8667C4.54543 12.8667 4.5248 12.877 4.5248 12.8896C4.5248 12.9022 4.48355 12.9125 4.43314 12.9125C4.38272 12.9125 4.34147 12.9228 4.34147 12.9354C4.34147 12.9482 4.28035 12.9583 4.20397 12.9583C4.12759 12.9583 4.06647 12.9685 4.06647 12.9813C4.06647 12.9953 3.95189 13.0042 3.76855 13.0042C3.58522 13.0042 3.47064 12.9953 3.47064 12.9813C3.47064 12.9686 3.44412 12.9583 3.41172 12.9583C3.35003 12.9583 3.2873 12.9118 3.2873 12.866C3.2873 12.8513 3.25637 12.8103 3.21855 12.775C3.18074 12.7397 3.1498 12.6966 3.1498 12.6792C3.1498 12.6618 3.12918 12.6328 3.10397 12.6146C3.07876 12.5964 3.05814 12.5673 3.05814 12.55C3.05814 12.5326 3.0272 12.4895 2.98939 12.4542C2.95158 12.4189 2.92064 12.3757 2.92064 12.3584C2.92064 12.341 2.90001 12.3119 2.8748 12.2938C2.8496 12.2756 2.82897 12.2465 2.82897 12.2291C2.82897 12.2118 2.79803 12.1686 2.76022 12.1333C2.72241 12.098 2.69147 12.0568 2.69147 12.0417C2.69147 12.0266 2.66053 11.9853 2.62272 11.95C2.58491 11.9147 2.55397 11.8734 2.55397 11.8583C2.55397 11.8432 2.52303 11.802 2.48522 11.7667C2.44741 11.7314 2.41647 11.6882 2.41647 11.6709C2.41647 11.6535 2.39585 11.6244 2.37064 11.6063C2.34543 11.5881 2.3248 11.5549 2.3248 11.5324C2.3248 11.51 2.31449 11.4917 2.30189 11.4917C2.28928 11.4917 2.27897 11.471 2.27897 11.4458C2.27897 11.4206 2.26866 11.4 2.25605 11.4C2.24345 11.4 2.23314 11.3794 2.23314 11.3542C2.23314 11.329 2.22283 11.3083 2.21022 11.3083C2.19762 11.3083 2.1873 11.2774 2.1873 11.2396C2.1873 11.2018 2.17699 11.1708 2.16439 11.1708C2.15178 11.1708 2.14147 11.1399 2.14147 11.1021C2.14147 11.0643 2.13116 11.0333 2.11855 11.0333C2.10455 11.0333 2.09564 10.9264 2.09564 10.7583C2.09564 10.5903 2.08672 10.4833 2.07272 10.4833C2.06012 10.4833 2.0498 10.4627 2.0498 10.4375C2.0498 10.4123 2.06012 10.3917 2.07272 10.3917C2.08533 10.3917 2.09564 10.3607 2.09564 10.3229C2.09564 10.2851 2.10595 10.2542 2.11855 10.2542C2.13116 10.2542 2.14147 10.238 2.14147 10.2182C2.14147 10.174 2.19594 10.1167 2.2379 10.1167C2.25493 10.1167 2.28372 10.096 2.30189 10.0708C2.32006 10.0456 2.35327 10.025 2.3757 10.025C2.39811 10.025 2.41647 10.0147 2.41647 10.0021C2.41647 9.98948 2.4371 9.97917 2.4623 9.97917C2.48751 9.97917 2.50814 9.96885 2.50814 9.95625C2.50814 9.94365 2.52876 9.93333 2.55397 9.93333C2.57918 9.93333 2.5998 9.92302 2.5998 9.91042C2.5998 9.89781 2.62043 9.8875 2.64564 9.8875C2.67085 9.8875 2.69147 9.87719 2.69147 9.86458C2.69147 9.85184 2.75259 9.84167 2.82897 9.84167C2.90535 9.84167 2.96647 9.83149 2.96647 9.81875C2.96647 9.80601 3.02759 9.79583 3.10397 9.79583C3.18035 9.79583 3.24147 9.78566 3.24147 9.77292C3.24147 9.75956 3.31785 9.75 3.4248 9.75C3.53176 9.75 3.60814 9.75956 3.60814 9.77292C3.60814 9.78552 3.62395 9.79583 3.64327 9.79583C3.70102 9.79583 3.8373 9.94823 3.8373 10.0128C3.8373 10.0447 3.84762 10.0708 3.86022 10.0708C3.87296 10.0708 3.88314 10.132 3.88314 10.2083C3.88314 10.2847 3.87296 10.3458 3.86022 10.3458C3.84762 10.3458 3.8373 10.3665 3.8373 10.3917C3.8373 10.4331 3.82202 10.4375 3.67689 10.4375C3.58522 10.4375 3.51647 10.4473 3.51647 10.4604C3.51647 10.473 3.50066 10.4833 3.48134 10.4833C3.462 10.4833 3.41044 10.5191 3.36676 10.5628C3.29681 10.6327 3.2873 10.6563 3.2873 10.7594C3.2873 10.8661 3.29546 10.8844 3.37897 10.9646C3.42939 11.013 3.47064 11.064 3.47064 11.078C3.47064 11.1109 3.66804 11.3083 3.701 11.3083C3.71493 11.3083 3.76594 11.3496 3.81439 11.4C3.86283 11.4504 3.91873 11.4917 3.93864 11.4917C3.95853 11.4917 3.9748 11.502 3.9748 11.5146C3.9748 11.5272 3.99543 11.5375 4.02064 11.5375C4.04585 11.5375 4.06647 11.5478 4.06647 11.5604C4.06647 11.573 4.0871 11.5833 4.1123 11.5833C4.13751 11.5833 4.15814 11.5936 4.15814 11.6063C4.15814 11.6189 4.18908 11.6292 4.22689 11.6292C4.2647 11.6292 4.29564 11.6395 4.29564 11.6521C4.29564 11.6647 4.31626 11.675 4.34147 11.675C4.36668 11.675 4.3873 11.6647 4.3873 11.6521C4.3873 11.6395 4.40351 11.6292 4.42331 11.6292C4.47741 11.6292 4.5248 11.5711 4.5248 11.5048C4.5248 11.4723 4.53512 11.4458 4.54772 11.4458C4.56033 11.4458 4.57064 11.4252 4.57064 11.4C4.57064 11.3748 4.58095 11.3542 4.59355 11.3542C4.60616 11.3542 4.61647 11.3377 4.61647 11.3175C4.61647 11.2974 4.64741 11.252 4.68522 11.2167C4.72303 11.1814 4.75397 11.136 4.75397 11.1158C4.75397 11.0956 4.76428 11.0792 4.77689 11.0792C4.78949 11.0792 4.7998 11.0482 4.7998 11.0104C4.7998 10.9726 4.78949 10.9417 4.77689 10.9417C4.76428 10.9417 4.75397 10.921 4.75397 10.8958C4.75397 10.8706 4.74366 10.85 4.73105 10.85C4.71845 10.85 4.70814 10.8316 4.70814 10.8092C4.70814 10.7868 4.68751 10.7536 4.6623 10.7354C4.6371 10.7172 4.61647 10.6863 4.61647 10.6667C4.61647 10.647 4.59585 10.6161 4.57064 10.5979C4.54543 10.5797 4.5248 10.5488 4.5248 10.5292C4.5248 10.5095 4.50418 10.4786 4.47897 10.4604C4.45376 10.4422 4.43314 10.4113 4.43314 10.3917C4.43314 10.372 4.41251 10.3411 4.3873 10.3229C4.3621 10.3047 4.34147 10.2738 4.34147 10.2542C4.34147 10.2345 4.32085 10.2036 4.29564 10.1854C4.27043 10.1672 4.2498 10.1382 4.2498 10.1208C4.2498 10.1034 4.21887 10.0603 4.18105 10.025C4.14324 9.98969 4.1123 9.94844 4.1123 9.93333C4.1123 9.91823 4.08137 9.87698 4.04355 9.84167C4.00574 9.80635 3.9748 9.7651 3.9748 9.75C3.9748 9.7349 3.94387 9.69365 3.90605 9.65833C3.86824 9.62302 3.8373 9.58177 3.8373 9.56667C3.8373 9.55156 3.80637 9.51031 3.76855 9.475C3.73074 9.43969 3.6998 9.39921 3.6998 9.3851C3.6998 9.34637 3.45386 9.10833 3.41385 9.10833C3.39467 9.10833 3.37897 9.09186 3.37897 9.07169C3.37897 9.05155 3.34803 9.00615 3.31022 8.97083C3.27241 8.93552 3.24147 8.89012 3.24147 8.86998C3.24147 8.84981 3.23116 8.83333 3.21855 8.83333C3.20595 8.83333 3.19564 8.81271 3.19564 8.7875C3.19564 8.76229 3.18533 8.74167 3.17272 8.74167C3.16012 8.74167 3.1498 8.72519 3.1498 8.70502C3.1498 8.68488 3.11887 8.63948 3.08105 8.60417C3.04324 8.56885 3.0123 8.52781 3.0123 8.51296C3.0123 8.49813 2.97105 8.44636 2.92064 8.39792C2.87022 8.34947 2.82897 8.29358 2.82897 8.27366C2.82897 8.25377 2.81866 8.2375 2.80605 8.2375C2.79345 8.2375 2.78314 8.18594 2.78314 8.12292C2.78314 8.0599 2.77283 8.00833 2.76022 8.00833C2.74748 8.00833 2.7373 7.94721 2.7373 7.87083C2.7373 7.79445 2.74748 7.73333 2.76022 7.73333C2.77283 7.73333 2.78314 7.71271 2.78314 7.6875C2.78314 7.66229 2.79345 7.64167 2.80605 7.64167C2.81866 7.64167 2.82897 7.62553 2.82897 7.6058C2.82897 7.58607 2.88053 7.51973 2.94355 7.45833C3.00658 7.39694 3.05814 7.3306 3.05814 7.31086C3.05814 7.29113 3.06845 7.275 3.08105 7.275C3.09366 7.275 3.10397 7.25437 3.10397 7.22917C3.10397 7.20396 3.11428 7.18333 3.12689 7.18333C3.13949 7.18333 3.1498 7.16271 3.1498 7.1375C3.1498 7.11229 3.16012 7.09167 3.17272 7.09167C3.18533 7.09167 3.19564 7.07104 3.19564 7.04583C3.19564 7.02062 3.20595 7 3.21855 7C3.23116 7 3.24147 6.98164 3.24147 6.95923C3.24147 6.9368 3.2621 6.90359 3.2873 6.88542C3.31251 6.86724 3.33314 6.83631 3.33314 6.81667C3.33314 6.79703 3.35376 6.76609 3.37897 6.74792C3.40418 6.72974 3.4248 6.70156 3.4248 6.68526C3.4248 6.64919 3.84934 6.22083 3.88511 6.22083C3.89911 6.22083 3.93949 6.1899 3.9748 6.15208C4.01012 6.11427 4.05552 6.08333 4.07566 6.08333C4.09583 6.08333 4.1123 6.07302 4.1123 6.06042C4.1123 6.04781 4.13066 6.0375 4.15307 6.0375C4.17551 6.0375 4.20871 6.01687 4.22689 5.99167C4.24506 5.96646 4.27827 5.94583 4.3007 5.94583C4.32311 5.94583 4.34147 5.93552 4.34147 5.92292C4.34147 5.91031 4.3621 5.9 4.3873 5.9C4.41251 5.9 4.43314 5.88969 4.43314 5.87708C4.43314 5.86448 4.46408 5.85417 4.50189 5.85417C4.5397 5.85417 4.57064 5.84385 4.57064 5.83125C4.57064 5.81865 4.59126 5.80833 4.61647 5.80833C4.64168 5.80833 4.6623 5.79802 4.6623 5.78542C4.6623 5.77281 4.69324 5.7625 4.73105 5.7625C4.76887 5.7625 4.7998 5.75219 4.7998 5.73958C4.7998 5.72698 4.84105 5.71667 4.89147 5.71667C4.94189 5.71667 4.98314 5.70635 4.98314 5.69375C4.98314 5.68101 5.04426 5.67083 5.12064 5.67083ZM8.93551 7.6875C8.95483 7.6875 8.97064 7.67719 8.97064 7.66458C8.97064 7.65099 9.05467 7.64167 9.17689 7.64167C9.2991 7.64167 9.38314 7.65099 9.38314 7.66458C9.38314 7.67719 9.4347 7.6875 9.49772 7.6875C9.56074 7.6875 9.6123 7.69781 9.6123 7.71042C9.6123 7.72302 9.63293 7.73333 9.65814 7.73333C9.68335 7.73333 9.70397 7.74365 9.70397 7.75625C9.70397 7.76885 9.73264 7.77917 9.76766 7.77917C9.80506 7.77917 9.84498 7.7981 9.86439 7.825C9.88256 7.85021 9.91164 7.87083 9.92901 7.87083C9.94636 7.87083 9.98949 7.90177 10.0248 7.93958C10.0601 7.9774 10.101 8.00833 10.1157 8.00833C10.1304 8.00833 10.1926 8.0599 10.254 8.12292C10.3154 8.18594 10.3769 8.2375 10.3907 8.2375C10.4406 8.2375 10.5748 8.39574 10.5748 8.45445C10.5748 8.48637 10.5851 8.5125 10.5977 8.5125C10.612 8.5125 10.6206 8.65 10.6206 8.87917C10.6206 9.10833 10.612 9.24583 10.5977 9.24583C10.5828 9.24583 10.5748 9.5743 10.5748 10.1854C10.5748 10.7965 10.5828 11.125 10.5977 11.125C10.6103 11.125 10.6206 11.1412 10.6206 11.161C10.6206 11.2073 10.6758 11.2625 10.7221 11.2625C10.7419 11.2625 10.7581 11.2728 10.7581 11.2854C10.7581 11.298 10.7891 11.3083 10.8269 11.3083C10.8647 11.3083 10.8956 11.298 10.8956 11.2854C10.8956 11.2728 10.9116 11.2625 10.931 11.2625C10.9722 11.2625 11.079 11.1624 11.079 11.1238C11.079 11.1093 11.1099 11.0686 11.1477 11.0333C11.1855 10.998 11.2165 10.9526 11.2165 10.9325C11.2165 10.9123 11.2268 10.8958 11.2394 10.8958C11.2543 10.8958 11.2623 10.5979 11.2623 10.0479C11.2623 9.49792 11.2543 9.2 11.2394 9.2C11.2258 9.2 11.2165 9.11596 11.2165 8.99375C11.2165 8.87154 11.2071 8.7875 11.1936 8.7875C11.181 8.7875 11.1706 8.75656 11.1706 8.71875C11.1706 8.68094 11.1603 8.65 11.1477 8.65C11.1351 8.65 11.1248 8.61906 11.1248 8.58125C11.1248 8.54344 11.1145 8.5125 11.1019 8.5125C11.0888 8.5125 11.079 8.44375 11.079 8.35208C11.079 8.26042 11.0888 8.19167 11.1019 8.19167C11.1145 8.19167 11.1248 8.17104 11.1248 8.14583C11.1248 8.11018 11.1401 8.1 11.1936 8.1C11.2314 8.1 11.2623 8.08969 11.2623 8.07708C11.2623 8.06448 11.3139 8.05417 11.3769 8.05417C11.4399 8.05417 11.4915 8.04385 11.4915 8.03125C11.4915 8.01851 11.5526 8.00833 11.629 8.00833C11.7054 8.00833 11.7665 8.01851 11.7665 8.03125C11.7665 8.04399 11.8276 8.05417 11.904 8.05417C11.9804 8.05417 12.0415 8.06434 12.0415 8.07708C12.0415 8.08969 12.0724 8.1 12.1102 8.1C12.1751 8.1 12.179 8.10509 12.179 8.19167C12.179 8.24208 12.1893 8.28333 12.2019 8.28333C12.2145 8.28333 12.2248 8.32458 12.2248 8.375C12.2248 8.42542 12.2145 8.46667 12.2019 8.46667C12.1893 8.46667 12.179 8.50565 12.179 8.55327C12.179 8.61359 12.1651 8.64991 12.1331 8.67292C12.1079 8.69109 12.0873 8.7243 12.0873 8.74673C12.0873 8.76914 12.077 8.7875 12.0644 8.7875C12.028 8.7875 12.0337 9.78887 12.0701 9.80365C12.0918 9.8124 12.0904 9.82173 12.0644 9.84167C12.0384 9.8616 12.037 9.87093 12.0587 9.87969C12.0949 9.8944 12.1005 10.6667 12.0644 10.6667C12.0497 10.6667 12.0415 10.8653 12.0415 11.2167C12.0415 11.568 12.0497 11.7667 12.0644 11.7667C12.077 11.7667 12.0873 11.7976 12.0873 11.8354C12.0873 11.8732 12.0976 11.9042 12.1102 11.9042C12.1228 11.9042 12.1331 11.9248 12.1331 11.95C12.1331 11.9752 12.1434 11.9958 12.1561 11.9958C12.1687 11.9958 12.179 12.0142 12.179 12.0366C12.179 12.059 12.1996 12.0922 12.2248 12.1104C12.25 12.1286 12.2706 12.1571 12.2706 12.1738C12.2706 12.2156 12.3753 12.3167 12.4186 12.3167C12.4387 12.3167 12.454 12.3364 12.454 12.3625C12.454 12.3877 12.4643 12.4083 12.4769 12.4083C12.4904 12.4083 12.4998 12.4889 12.4998 12.6042C12.4998 12.7815 12.4945 12.8053 12.4435 12.8562C12.3917 12.9081 12.3703 12.9125 12.1685 12.9125C12.038 12.9125 11.9498 12.9217 11.9498 12.9354C11.9498 12.948 11.8982 12.9583 11.8352 12.9583C11.7722 12.9583 11.7206 12.948 11.7206 12.9354C11.7206 12.9228 11.6897 12.9125 11.6519 12.9125C11.6141 12.9125 11.5831 12.9022 11.5831 12.8896C11.5831 12.877 11.5669 12.8667 11.5471 12.8667C11.5008 12.8667 11.4456 12.8115 11.4456 12.7652C11.4456 12.7454 11.4353 12.7292 11.4227 12.7292C11.4101 12.7292 11.3998 12.6982 11.3998 12.6604C11.3998 12.6226 11.3895 12.5917 11.3769 12.5917C11.3629 12.5917 11.354 12.4847 11.354 12.3167C11.354 12.1486 11.3451 12.0417 11.3311 12.0417C11.3184 12.0417 11.3081 12.021 11.3081 11.9958C11.3081 11.9074 11.2361 11.9517 11.0102 12.1792C10.885 12.3052 10.7691 12.4083 10.7525 12.4083C10.736 12.4083 10.7076 12.429 10.6894 12.4542C10.6712 12.4794 10.6403 12.5 10.6206 12.5C10.601 12.5 10.5701 12.5206 10.5519 12.5458C10.5337 12.571 10.5005 12.5917 10.4781 12.5917C10.4557 12.5917 10.4373 12.602 10.4373 12.6146C10.4373 12.6272 10.3961 12.6375 10.3456 12.6375C10.2952 12.6375 10.254 12.6272 10.254 12.6146C10.254 12.602 10.2333 12.5917 10.2081 12.5917C10.1829 12.5917 10.1623 12.5814 10.1623 12.5688C10.1623 12.5561 10.1461 12.5458 10.1263 12.5458C10.08 12.5458 10.0248 12.4907 10.0248 12.4443C10.0248 12.4245 10.0145 12.4083 10.0019 12.4083C9.98928 12.4083 9.97897 12.39 9.97897 12.3676C9.97897 12.3451 9.95835 12.3119 9.93314 12.2938C9.90793 12.2756 9.8873 12.2424 9.8873 12.2199C9.8873 12.1975 9.87699 12.1792 9.86439 12.1792C9.85178 12.1792 9.84147 12.1585 9.84147 12.1333C9.84147 12.1081 9.83116 12.0875 9.81855 12.0875C9.80595 12.0875 9.79564 12.0669 9.79564 12.0417C9.79564 12.0165 9.78533 11.9958 9.77272 11.9958C9.76012 11.9958 9.7498 11.9752 9.7498 11.95C9.7498 11.9248 9.73949 11.9042 9.72689 11.9042C9.71428 11.9042 9.70397 11.8835 9.70397 11.8583C9.70397 11.8331 9.69366 11.8125 9.68105 11.8125C9.66845 11.8125 9.65814 11.7816 9.65814 11.7438C9.65814 11.7059 9.64783 11.675 9.63522 11.675C9.62163 11.675 9.6123 11.591 9.6123 11.4688C9.6123 11.3465 9.60298 11.2625 9.58939 11.2625C9.57447 11.2625 9.56647 10.9264 9.56647 10.3C9.56647 9.67362 9.57447 9.3375 9.58939 9.3375C9.60298 9.3375 9.6123 9.25346 9.6123 9.13125C9.6123 9.00904 9.60298 8.925 9.58939 8.925C9.57678 8.925 9.56647 8.89849 9.56647 8.86608C9.56647 8.81298 9.52144 8.74167 9.48789 8.74167C9.48069 8.74167 9.4748 8.7726 9.4748 8.81042C9.4748 8.84823 9.46449 8.87917 9.45189 8.87917C9.43928 8.87917 9.42897 8.9101 9.42897 8.94792C9.42897 8.98573 9.41866 9.01667 9.40605 9.01667C9.39345 9.01667 9.38314 9.03287 9.38314 9.05267C9.38314 9.0982 9.32823 9.15417 9.28356 9.15417C9.2648 9.15417 9.24344 9.16707 9.23608 9.18281C9.2254 9.20573 9.22004 9.20573 9.20936 9.18281C9.202 9.16707 9.16591 9.15417 9.12915 9.15417C9.09239 9.15417 9.0623 9.14385 9.0623 9.13125C9.0623 9.11865 9.03224 9.10833 8.99546 9.10833C8.9587 9.10833 8.92437 9.09555 8.91914 9.07989C8.91225 9.0592 8.89923 9.06188 8.87141 9.08973C8.83016 9.13095 8.81794 9.29167 8.85605 9.29167C8.8698 9.29167 8.87897 9.38333 8.87897 9.52083C8.87897 9.65833 8.88814 9.75 8.90189 9.75C8.9166 9.75 8.9248 9.97154 8.9248 10.3688C8.9248 10.766 8.93301 10.9875 8.94772 10.9875C8.9622 10.9875 8.97064 11.1479 8.97064 11.4229C8.97064 11.6979 8.9622 11.8583 8.94772 11.8583C8.93512 11.8583 8.9248 11.8946 8.9248 11.939C8.9248 12.0076 8.90276 12.0416 8.77628 12.1681C8.69458 12.2498 8.61435 12.3167 8.59799 12.3167C8.58165 12.3167 8.55339 12.3373 8.53522 12.3625C8.51705 12.3877 8.48384 12.4083 8.46141 12.4083C8.43899 12.4083 8.42064 12.4186 8.42064 12.4313C8.42064 12.4439 8.40001 12.4542 8.3748 12.4542C8.3496 12.4542 8.32897 12.4645 8.32897 12.4771C8.32897 12.4897 8.30835 12.5 8.28314 12.5C8.25793 12.5 8.2373 12.5103 8.2373 12.5229C8.2373 12.5355 8.21668 12.5458 8.19147 12.5458C8.16626 12.5458 8.14564 12.5561 8.14564 12.5688C8.14564 12.5814 8.12501 12.5917 8.0998 12.5917C8.0746 12.5917 8.05397 12.602 8.05397 12.6146C8.05397 12.6272 8.02303 12.6375 7.98522 12.6375C7.94741 12.6375 7.91647 12.6478 7.91647 12.6604C7.91647 12.673 7.88553 12.6833 7.84772 12.6833C7.80991 12.6833 7.77897 12.6936 7.77897 12.7063C7.77897 12.7189 7.72741 12.7292 7.66439 12.7292C7.60137 12.7292 7.5498 12.7189 7.5498 12.7063C7.5498 12.6936 7.52918 12.6833 7.50397 12.6833C7.47876 12.6833 7.45814 12.673 7.45814 12.6604C7.45814 12.6478 7.442 12.6375 7.42227 12.6375C7.40254 12.6375 7.3362 12.5859 7.2748 12.5229C7.21341 12.4599 7.15211 12.4083 7.13856 12.4083C7.10027 12.4083 6.54147 11.8402 6.54147 11.8013C6.54147 11.7822 6.53116 11.7667 6.51855 11.7667C6.50368 11.7667 6.49564 11.4688 6.49564 10.9188C6.49564 10.3688 6.50368 10.0708 6.51855 10.0708C6.53301 10.0708 6.54147 9.91106 6.54147 9.63732C6.54147 9.31199 6.54862 9.20092 6.57012 9.19219C6.59175 9.18343 6.59035 9.1741 6.56439 9.15417C6.53842 9.13423 6.53703 9.1249 6.55866 9.11615C6.57443 9.10975 6.5873 9.07932 6.5873 9.04852C6.5873 8.98862 6.76835 8.7875 6.82227 8.7875C6.83872 8.7875 6.86705 8.76688 6.88522 8.74167C6.90339 8.71646 6.9366 8.69583 6.95904 8.69583C6.98145 8.69583 6.9998 8.68552 6.9998 8.67292C6.9998 8.66031 7.01628 8.65 7.03645 8.65C7.05659 8.65 7.10199 8.61906 7.1373 8.58125C7.17262 8.54344 7.21802 8.5125 7.23816 8.5125C7.25833 8.5125 7.2748 8.50219 7.2748 8.48958C7.2748 8.47698 7.29543 8.46667 7.32064 8.46667C7.34585 8.46667 7.36647 8.45635 7.36647 8.44375C7.36647 8.43115 7.3871 8.42083 7.4123 8.42083C7.43751 8.42083 7.45814 8.41052 7.45814 8.39792C7.45814 8.38531 7.47876 8.375 7.50397 8.375C7.52918 8.375 7.5498 8.36469 7.5498 8.35208C7.5498 8.33948 7.57043 8.32917 7.59564 8.32917C7.62085 8.32917 7.64147 8.31885 7.64147 8.30625C7.64147 8.29365 7.6621 8.28333 7.6873 8.28333C7.71251 8.28333 7.73314 8.27302 7.73314 8.26042C7.73314 8.24779 7.79256 8.2375 7.86557 8.2375C7.97172 8.2375 8.00459 8.2466 8.03105 8.28333C8.04923 8.30854 8.07831 8.32917 8.09568 8.32917C8.11303 8.32917 8.15616 8.3601 8.19147 8.39792C8.22679 8.43573 8.26991 8.46667 8.28726 8.46667C8.30463 8.46667 8.33371 8.48729 8.35189 8.5125C8.37006 8.53771 8.40327 8.55833 8.4257 8.55833C8.44811 8.55833 8.46647 8.56865 8.46647 8.58125C8.46647 8.59385 8.49741 8.60417 8.53522 8.60417H8.60397V8.375C8.60397 8.2375 8.61314 8.14583 8.62689 8.14583C8.63949 8.14583 8.6498 8.1149 8.6498 8.07708C8.6498 8.03927 8.66012 8.00833 8.67272 8.00833C8.68533 8.00833 8.69564 7.98771 8.69564 7.9625C8.69564 7.93729 8.70595 7.91667 8.71855 7.91667C8.73116 7.91667 8.74147 7.90085 8.74147 7.88154C8.74147 7.83591 8.88988 7.6875 8.93551 7.6875ZM12.454 7.77917C12.4792 7.77917 12.4998 7.76885 12.4998 7.75625C12.4998 7.74195 12.6338 7.73333 12.856 7.73333C13.2037 7.73333 13.2137 7.73469 13.2685 7.78959C13.2995 7.82053 13.3248 7.86178 13.3248 7.88126C13.3248 7.90074 13.3351 7.91667 13.3477 7.91667C13.3603 7.91667 13.3706 7.9476 13.3706 7.98542C13.3706 8.02323 13.3809 8.05417 13.3936 8.05417C13.4062 8.05417 13.4165 8.07479 13.4165 8.1C13.4165 8.12521 13.4268 8.14583 13.4394 8.14583C13.452 8.14583 13.4623 8.16646 13.4623 8.19167C13.4623 8.21688 13.4726 8.2375 13.4852 8.2375C13.4978 8.2375 13.5081 8.25813 13.5081 8.28333C13.5081 8.30854 13.5184 8.32917 13.5311 8.32917C13.5437 8.32917 13.554 8.34979 13.554 8.375C13.554 8.40021 13.5643 8.42083 13.5769 8.42083C13.5895 8.42083 13.5998 8.4495 13.5998 8.48452C13.5998 8.52192 13.6187 8.56184 13.6456 8.58125C13.6708 8.59942 13.6915 8.63263 13.6915 8.65506C13.6915 8.67748 13.7018 8.69583 13.7144 8.69583C13.727 8.69583 13.7373 8.71646 13.7373 8.74167C13.7373 8.76688 13.7476 8.7875 13.7602 8.7875C13.7728 8.7875 13.7831 8.81844 13.7831 8.85625C13.7831 8.89406 13.7934 8.925 13.8061 8.925C13.8187 8.925 13.829 8.94563 13.829 8.97083C13.829 8.99604 13.8393 9.01667 13.8519 9.01667C13.8645 9.01667 13.8748 9.0476 13.8748 9.08542C13.8748 9.12323 13.8851 9.15417 13.8977 9.15417C13.9103 9.15417 13.9206 9.17479 13.9206 9.2C13.9206 9.22521 13.931 9.24583 13.9436 9.24583C13.9562 9.24583 13.9665 9.26646 13.9665 9.29167C13.9665 9.31687 13.9768 9.3375 13.9894 9.3375C14.002 9.3375 14.0123 9.35812 14.0123 9.38333C14.0123 9.40854 14.0226 9.42917 14.0352 9.42917C14.0478 9.42917 14.0581 9.4601 14.0581 9.49792C14.0581 9.53573 14.0684 9.56667 14.0811 9.56667C14.0937 9.56667 14.104 9.58729 14.104 9.6125C14.104 9.63771 14.1143 9.65833 14.1269 9.65833C14.1395 9.65833 14.1498 9.68927 14.1498 9.72708C14.1498 9.7649 14.1601 9.79583 14.1727 9.79583C14.1853 9.79583 14.1956 9.81646 14.1956 9.84167C14.1956 9.86688 14.2059 9.8875 14.2186 9.8875C14.2312 9.8875 14.2415 9.91844 14.2415 9.95625C14.2415 9.99406 14.2518 10.025 14.2644 10.025C14.277 10.025 14.2873 10.0559 14.2873 10.0938C14.2873 10.1316 14.2976 10.1625 14.3102 10.1625C14.3228 10.1625 14.3331 10.1934 14.3331 10.2313C14.3331 10.2691 14.3434 10.3 14.3561 10.3C14.3687 10.3 14.379 10.3309 14.379 10.3688C14.379 10.4066 14.3893 10.4375 14.4019 10.4375C14.4145 10.4375 14.4248 10.4684 14.4248 10.5062C14.4248 10.5441 14.4351 10.575 14.4477 10.575C14.4603 10.575 14.4706 10.5956 14.4706 10.6208C14.4706 10.6514 14.4859 10.6667 14.5165 10.6667C14.5607 10.6667 14.5623 10.6514 14.5623 10.2313C14.5623 9.95625 14.5707 9.79583 14.5852 9.79583C14.5978 9.79583 14.6081 9.77521 14.6081 9.75C14.6081 9.72479 14.5978 9.70417 14.5852 9.70417C14.5726 9.70417 14.5623 9.67323 14.5623 9.63542C14.5623 9.5976 14.5726 9.56667 14.5852 9.56667C14.5992 9.56667 14.6081 9.45971 14.6081 9.29167C14.6081 9.12362 14.5992 9.01667 14.5852 9.01667C14.5721 9.01667 14.5623 8.94792 14.5623 8.85625C14.5623 8.76458 14.5525 8.69583 14.5394 8.69583C14.5268 8.69583 14.5165 8.64427 14.5165 8.58125C14.5165 8.51823 14.5062 8.46667 14.4936 8.46667C14.4805 8.46667 14.4706 8.39792 14.4706 8.30625C14.4706 8.21458 14.4805 8.14583 14.4936 8.14583C14.5062 8.14583 14.5165 8.12963 14.5165 8.10983C14.5165 8.05573 14.5746 8.00833 14.6409 8.00833C14.6733 8.00833 14.6998 7.99802 14.6998 7.98542C14.6998 7.97135 14.8109 7.9625 14.9873 7.9625C15.262 7.9625 15.2773 7.965 15.331 8.01876C15.362 8.0497 15.3873 8.09095 15.3873 8.11043C15.3873 8.12991 15.3976 8.14583 15.4102 8.14583C15.424 8.14583 15.4331 8.2375 15.4331 8.375C15.4331 8.5125 15.424 8.60417 15.4102 8.60417C15.3976 8.60417 15.3873 8.65573 15.3873 8.71875C15.3873 8.78177 15.377 8.83333 15.3644 8.83333C15.3496 8.83333 15.3415 9.07779 15.3415 9.52083C15.3415 9.96388 15.3333 10.2083 15.3186 10.2083C15.3038 10.2083 15.2956 10.4299 15.2956 10.8271C15.2956 11.2243 15.3038 11.4458 15.3186 11.4458C15.333 11.4458 15.3415 11.6063 15.3415 11.8812C15.3415 12.1562 15.333 12.3167 15.3186 12.3167C15.306 12.3167 15.2956 12.3325 15.2956 12.3518C15.2956 12.3711 15.2599 12.4227 15.2162 12.4664L15.1368 12.5458H14.8954C14.7497 12.5458 14.654 12.5367 14.654 12.5229C14.654 12.4898 14.5683 12.4947 14.5545 12.5286C14.5458 12.5502 14.5368 12.5488 14.5182 12.5229C14.4963 12.4924 14.4908 12.4924 14.4689 12.5229C14.4503 12.5488 14.4413 12.5502 14.4326 12.5286C14.4262 12.5129 14.3909 12.5 14.3542 12.5C14.3026 12.5 14.2873 12.4895 14.2873 12.4542C14.2873 12.429 14.277 12.4083 14.2644 12.4083C14.2518 12.4083 14.2415 12.3671 14.2415 12.3167C14.2415 12.2663 14.2312 12.225 14.2186 12.225C14.2059 12.225 14.1956 12.1838 14.1956 12.1333C14.1956 12.0829 14.1853 12.0417 14.1727 12.0417C14.1601 12.0417 14.1498 12.0107 14.1498 11.9729C14.1498 11.9351 14.1395 11.9042 14.1269 11.9042C14.1143 11.9042 14.104 11.8732 14.104 11.8354C14.104 11.7976 14.0937 11.7667 14.0811 11.7667C14.0684 11.7667 14.0581 11.746 14.0581 11.7208C14.0581 11.6956 14.0478 11.675 14.0352 11.675C14.0226 11.675 14.0123 11.6441 14.0123 11.6063C14.0123 11.5684 14.002 11.5375 13.9894 11.5375C13.9768 11.5375 13.9665 11.5066 13.9665 11.4688C13.9665 11.4309 13.9562 11.4 13.9436 11.4C13.931 11.4 13.9206 11.3794 13.9206 11.3542C13.9206 11.329 13.9103 11.3083 13.8977 11.3083C13.8851 11.3083 13.8748 11.2774 13.8748 11.2396C13.8748 11.2018 13.8645 11.1708 13.8519 11.1708C13.8393 11.1708 13.829 11.1399 13.829 11.1021C13.829 11.0643 13.8187 11.0333 13.8061 11.0333C13.7934 11.0333 13.7831 11.0127 13.7831 10.9875C13.7831 10.9623 13.7728 10.9417 13.7602 10.9417C13.7476 10.9417 13.7373 10.9107 13.7373 10.8729C13.7373 10.8351 13.727 10.8042 13.7144 10.8042C13.7018 10.8042 13.6915 10.7835 13.6915 10.7583C13.6915 10.7331 13.6812 10.7125 13.6686 10.7125C13.6559 10.7125 13.6456 10.6816 13.6456 10.6438C13.6456 10.6059 13.6353 10.575 13.6227 10.575C13.6101 10.575 13.5998 10.5544 13.5998 10.5292C13.5998 10.504 13.5895 10.4833 13.5769 10.4833C13.5643 10.4833 13.554 10.4571 13.554 10.425C13.554 10.3748 13.4657 10.2542 13.429 10.2542C13.4221 10.2542 13.4165 10.5326 13.4165 10.8729C13.4165 11.2701 13.4247 11.4917 13.4394 11.4917C13.452 11.4917 13.4623 11.5226 13.4623 11.5604C13.4623 11.5982 13.4726 11.6292 13.4852 11.6292C13.4986 11.6292 13.5081 11.7049 13.5081 11.8106C13.5081 11.9333 13.5174 11.9963 13.5368 12.0054C13.5597 12.0161 13.5597 12.0214 13.5368 12.0321C13.521 12.0395 13.5081 12.0859 13.5081 12.1352C13.5081 12.1846 13.4978 12.225 13.4852 12.225C13.4726 12.225 13.4623 12.2409 13.4623 12.2604C13.4623 12.3267 13.3554 12.4083 13.2685 12.4083C13.2239 12.4083 13.1873 12.4186 13.1873 12.4313C13.1873 12.4448 13.1033 12.4542 12.9811 12.4542C12.8588 12.4542 12.7748 12.4448 12.7748 12.4313C12.7748 12.4186 12.7542 12.4083 12.729 12.4083C12.7038 12.4083 12.6831 12.398 12.6831 12.3854C12.6831 12.3728 12.6672 12.3625 12.6477 12.3625C12.592 12.3625 12.4998 12.256 12.4998 12.1917C12.4998 12.1596 12.4895 12.1333 12.4769 12.1333C12.4635 12.1333 12.454 12.057 12.454 11.95C12.454 11.843 12.4635 11.7667 12.4769 11.7667C12.4895 11.7667 12.4998 11.7357 12.4998 11.6979C12.4998 11.6601 12.5101 11.6292 12.5227 11.6292C12.5353 11.6292 12.5456 11.6085 12.5456 11.5833C12.5456 11.5581 12.556 11.5375 12.5686 11.5375C12.5835 11.5375 12.5915 11.1479 12.5915 10.4146C12.5915 9.68125 12.5835 9.29167 12.5686 9.29167C12.5548 9.29167 12.5456 9.2 12.5456 9.0625C12.5456 8.925 12.5365 8.83333 12.5227 8.83333C12.5094 8.83333 12.4998 8.75695 12.4998 8.65C12.4998 8.54305 12.4902 8.46667 12.4769 8.46667C12.4643 8.46667 12.454 8.43573 12.454 8.39792C12.454 8.3601 12.4437 8.32917 12.4311 8.32917C12.4185 8.32917 12.4081 8.28792 12.4081 8.2375C12.4081 8.18708 12.3978 8.14583 12.3852 8.14583C12.3725 8.14583 12.3623 8.08471 12.3623 8.00833C12.3623 7.93195 12.3725 7.87083 12.3852 7.87083C12.3978 7.87083 12.4081 7.85021 12.4081 7.825C12.4081 7.79445 12.4234 7.77917 12.454 7.77917ZM15.7769 9.2C15.7415 9.2 15.7468 8.58741 15.7826 8.54678C15.8153 8.50968 15.9373 8.50072 15.9373 8.53542C15.9373 8.54802 15.9534 8.55833 15.9732 8.55833C15.9929 8.55833 16.0592 8.6099 16.1206 8.67292C16.2134 8.76811 16.2461 8.7875 16.3139 8.7875C16.3589 8.7875 16.3956 8.77719 16.3956 8.76458C16.3956 8.75198 16.4121 8.74167 16.4323 8.74167C16.4524 8.74167 16.4978 8.71073 16.5331 8.67292C16.5685 8.6351 16.6138 8.60417 16.634 8.60417C16.6542 8.60417 16.6706 8.59385 16.6706 8.58125C16.6706 8.54722 16.7379 8.55352 16.7754 8.59108C16.8013 8.61695 16.8081 8.70805 16.8081 9.0265C16.8081 9.27966 16.7996 9.42917 16.7852 9.42917C16.7721 9.42917 16.7623 9.49792 16.7623 9.58958C16.7623 9.68125 16.7525 9.75 16.7394 9.75C16.7251 9.75 16.7165 9.8875 16.7165 10.1167C16.7165 10.3458 16.7079 10.4833 16.6936 10.4833C16.6795 10.4833 16.6706 10.5979 16.6706 10.7812C16.6706 10.9646 16.6618 11.0792 16.6477 11.0792C16.6341 11.0792 16.6248 11.1632 16.6248 11.2854C16.6248 11.4076 16.6155 11.4917 16.6019 11.4917C16.5893 11.4917 16.579 11.5329 16.579 11.5833C16.579 11.6337 16.5893 11.675 16.6019 11.675C16.6145 11.675 16.6248 11.6908 16.6248 11.7101C16.6248 11.7295 16.6611 11.7816 16.7054 11.8259C16.7767 11.8972 16.7901 11.9026 16.82 11.8726C16.8456 11.847 16.854 11.7804 16.854 11.6015C16.854 11.3906 16.8591 11.3606 16.8998 11.3313C16.925 11.3131 16.9456 11.2843 16.9456 11.2673C16.9456 11.2253 17.003 11.1708 17.0471 11.1708C17.0669 11.1708 17.0831 11.1605 17.0831 11.1479C17.0831 11.1353 17.1141 11.125 17.1519 11.125C17.1897 11.125 17.2206 11.1147 17.2206 11.1021C17.2206 11.0895 17.2619 11.0792 17.3123 11.0792C17.3627 11.0792 17.404 11.0895 17.404 11.1021C17.404 11.1147 17.4308 11.125 17.4635 11.125C17.5002 11.125 17.5478 11.1515 17.5873 11.1937C17.6226 11.2316 17.6636 11.2625 17.6784 11.2625C17.7148 11.2625 17.7706 11.3209 17.7706 11.3589C17.7706 11.376 17.7913 11.4047 17.8165 11.4229C17.8532 11.4494 17.8623 11.4822 17.8623 11.5884C17.8623 11.6614 17.8726 11.7208 17.8852 11.7208C17.8983 11.7208 17.9081 11.7896 17.9081 11.8812C17.9081 11.9729 17.8983 12.0417 17.8852 12.0417C17.8726 12.0417 17.8623 12.0932 17.8623 12.1562C17.8623 12.2193 17.852 12.2708 17.8394 12.2708C17.8268 12.2708 17.8165 12.3018 17.8165 12.3396C17.8165 12.3774 17.8062 12.4083 17.7936 12.4083C17.7809 12.4083 17.7706 12.4393 17.7706 12.4771C17.7706 12.5149 17.7603 12.5458 17.7477 12.5458C17.7351 12.5458 17.7248 12.5665 17.7248 12.5917C17.7248 12.6169 17.7145 12.6375 17.7019 12.6375C17.6893 12.6375 17.679 12.6533 17.679 12.6726C17.679 12.7155 17.5318 12.8667 17.49 12.8667C17.4735 12.8667 17.4451 12.8873 17.4269 12.9125C17.4075 12.9394 17.3676 12.9583 17.3302 12.9583C17.2951 12.9583 17.2665 12.9686 17.2665 12.9813C17.2665 12.9939 17.2355 13.0042 17.1977 13.0042C17.1599 13.0042 17.129 13.0145 17.129 13.0271C17.129 13.0411 17.022 13.05 16.854 13.05C16.6859 13.05 16.579 13.0411 16.579 13.0271C16.579 13.0145 16.548 13.0042 16.5102 13.0042C16.4724 13.0042 16.4415 12.9939 16.4415 12.9813C16.4415 12.9686 16.4208 12.9583 16.3956 12.9583C16.3704 12.9583 16.3498 12.948 16.3498 12.9354C16.3498 12.9228 16.3342 12.9125 16.3151 12.9125C16.2699 12.9125 15.8456 12.4882 15.8456 12.443C15.8456 12.4239 15.8353 12.4083 15.8227 12.4083C15.8101 12.4083 15.7998 12.3877 15.7998 12.3625C15.7998 12.3373 15.7895 12.3167 15.7769 12.3167C15.7635 12.3167 15.754 12.2409 15.754 12.1352C15.754 12.0125 15.7447 11.9495 15.7253 11.9404C15.7024 11.9298 15.7024 11.9244 15.7253 11.9137C15.7447 11.9047 15.754 11.8417 15.754 11.7189C15.754 11.6133 15.7635 11.5375 15.7769 11.5375C15.7911 11.5375 15.7998 11.4153 15.7998 11.2167C15.7998 11.018 15.8085 10.8958 15.8227 10.8958C15.8373 10.8958 15.8456 10.7125 15.8456 10.3917C15.8456 10.0708 15.854 9.8875 15.8686 9.8875C15.8812 9.8875 15.8915 9.83594 15.8915 9.77292C15.8915 9.7099 15.8812 9.65833 15.8686 9.65833C15.8558 9.65833 15.8456 9.59721 15.8456 9.52083C15.8456 9.44445 15.8355 9.38333 15.8227 9.38333C15.8101 9.38333 15.7998 9.34208 15.7998 9.29167C15.7998 9.24125 15.7895 9.2 15.7769 9.2ZM7.84772 9.84167C7.83512 9.84167 7.8248 9.82104 7.8248 9.79583C7.8248 9.71118 7.71061 9.74104 7.60137 9.85425L7.50397 9.95517V10.563C7.50397 10.9529 7.51218 11.1708 7.52689 11.1708C7.53949 11.1708 7.5498 11.1915 7.5498 11.2167C7.5498 11.2472 7.56509 11.2625 7.59564 11.2625C7.62085 11.2625 7.64147 11.2728 7.64147 11.2854C7.64147 11.298 7.6621 11.3083 7.6873 11.3083C7.71251 11.3083 7.73314 11.298 7.73314 11.2854C7.73314 11.2728 7.74934 11.2625 7.76914 11.2625C7.81545 11.2625 7.87064 11.2073 7.87064 11.161C7.87064 11.1412 7.88095 11.125 7.89355 11.125C7.90813 11.125 7.91647 10.9417 7.91647 10.6208C7.91647 10.3 7.90813 10.1167 7.89355 10.1167C7.88081 10.1167 7.87064 10.0555 7.87064 9.97917C7.87064 9.90279 7.86046 9.84167 7.84772 9.84167Z" fill="url(#paint1_linear_3986_53197)"/>
<path fill-rule="evenodd" clip-rule="evenodd" d="M5.12064 5.39581C5.19702 5.39581 5.25814 5.38563 5.25814 5.37289C5.25814 5.36029 5.3097 5.34998 5.37272 5.34998C5.43574 5.34998 5.4873 5.36029 5.4873 5.37289C5.4873 5.3855 5.50793 5.39581 5.53314 5.39581C5.55933 5.39581 5.57897 5.41109 5.57897 5.43144C5.57897 5.45106 5.64085 5.52783 5.71647 5.60206C5.7921 5.67629 5.85397 5.74857 5.85397 5.7627C5.85397 5.77682 5.90553 5.83858 5.96855 5.89998C6.03158 5.96137 6.08314 6.02324 6.08314 6.03748C6.08314 6.05171 6.1347 6.11358 6.19772 6.17498C6.26074 6.23637 6.3123 6.29824 6.3123 6.31248C6.3123 6.32671 6.36387 6.38858 6.42689 6.44998C6.48991 6.51137 6.54147 6.57338 6.54147 6.58777C6.54147 6.60219 6.58272 6.65361 6.63314 6.70206C6.68355 6.7505 6.7248 6.8064 6.7248 6.82631C6.7248 6.8462 6.73512 6.86248 6.74772 6.86248C6.76033 6.86248 6.77064 6.8831 6.77064 6.90831C6.77064 6.93352 6.78095 6.95414 6.79355 6.95414C6.80616 6.95414 6.81647 6.98508 6.81647 7.02289C6.81647 7.0607 6.82678 7.09164 6.83939 7.09164C6.85199 7.09164 6.8623 7.11227 6.8623 7.13748C6.8623 7.16268 6.87262 7.18331 6.88522 7.18331C6.89783 7.18331 6.90814 7.21425 6.90814 7.25206C6.90814 7.28987 6.91845 7.32081 6.93105 7.32081C6.94531 7.32081 6.95397 7.45068 6.95397 7.66456C6.95397 7.87844 6.94531 8.00831 6.93105 8.00831C6.91845 8.00831 6.90814 8.02424 6.90814 8.04372C6.90814 8.08957 6.80607 8.19164 6.76021 8.19164C6.74073 8.19164 6.7248 8.20195 6.7248 8.21456C6.7248 8.22716 6.69387 8.23748 6.65605 8.23748C6.61824 8.23748 6.5873 8.24779 6.5873 8.26039C6.5873 8.273 6.53574 8.28331 6.47272 8.28331C6.4097 8.28331 6.35814 8.29362 6.35814 8.30623C6.35814 8.31883 6.3272 8.32914 6.28939 8.32914C6.25158 8.32914 6.22064 8.33945 6.22064 8.35206C6.22064 8.36466 6.16908 8.37498 6.10605 8.37498C6.04303 8.37498 5.99147 8.38529 5.99147 8.39789C5.99147 8.4105 5.95022 8.42081 5.8998 8.42081C5.84939 8.42081 5.80814 8.43112 5.80814 8.44373C5.80814 8.45633 5.76689 8.46664 5.71647 8.46664C5.66605 8.46664 5.6248 8.47695 5.6248 8.48956C5.6248 8.50216 5.59387 8.51248 5.55605 8.51248C5.51824 8.51248 5.4873 8.50216 5.4873 8.48956C5.4873 8.47695 5.47103 8.46664 5.45114 8.46664C5.43123 8.46664 5.37533 8.42539 5.32689 8.37498C5.27844 8.32456 5.22255 8.28331 5.20263 8.28331C5.18176 8.28331 5.16647 8.26394 5.16647 8.23748C5.16647 8.21227 5.15616 8.19164 5.14355 8.19164C5.13095 8.19164 5.12064 8.17102 5.12064 8.14581C5.12064 8.1206 5.11033 8.09998 5.09772 8.09998C5.08512 8.09998 5.0748 8.06904 5.0748 8.03123C5.0748 7.99341 5.06449 7.96248 5.05189 7.96248C5.03814 7.96248 5.02897 7.87081 5.02897 7.73331C5.02897 7.60727 5.03493 7.50414 5.04222 7.50414C5.04953 7.50414 5.09511 7.54539 5.14355 7.59581C5.192 7.64623 5.24789 7.68748 5.26781 7.68748C5.2877 7.68748 5.30397 7.69779 5.30397 7.71039C5.30397 7.723 5.33406 7.73331 5.37082 7.73331C5.40758 7.73331 5.44367 7.74619 5.45103 7.76195C5.46171 7.78487 5.46707 7.78487 5.47775 7.76195C5.4851 7.74619 5.51678 7.73331 5.54815 7.73331C5.61277 7.73331 5.67064 7.68537 5.67064 7.63181C5.67064 7.61201 5.68095 7.59581 5.69355 7.59581C5.70616 7.59581 5.71647 7.56487 5.71647 7.52706C5.71647 7.48925 5.70616 7.45831 5.69355 7.45831C5.68095 7.45831 5.67064 7.43768 5.67064 7.41248C5.67064 7.38727 5.66033 7.36664 5.64772 7.36664C5.63512 7.36664 5.6248 7.34602 5.6248 7.32081C5.6248 7.2956 5.61449 7.27498 5.60189 7.27498C5.58928 7.27498 5.57897 7.25916 5.57897 7.23984C5.57897 7.19694 5.43178 7.04581 5.39 7.04581C5.37345 7.04581 5.34506 7.02518 5.32689 6.99998C5.30871 6.97477 5.27778 6.95414 5.25814 6.95414C5.2385 6.95414 5.20756 6.93352 5.18939 6.90831C5.16998 6.8814 5.13006 6.86248 5.09266 6.86248C5.05764 6.86248 5.02897 6.85216 5.02897 6.83956C5.02897 6.82695 4.99803 6.81664 4.96022 6.81664C4.92241 6.81664 4.89147 6.80633 4.89147 6.79373C4.89147 6.78098 4.83035 6.77081 4.75397 6.77081C4.67759 6.77081 4.61647 6.78098 4.61647 6.79373C4.61647 6.80633 4.59053 6.81664 4.55881 6.81664C4.51763 6.81664 4.45216 6.86564 4.32965 6.98815C4.23532 7.08248 4.15814 7.17529 4.15814 7.1944C4.15814 7.21351 4.14783 7.22914 4.13522 7.22914C4.12262 7.22914 4.1123 7.27612 4.1123 7.33353C4.1123 7.43085 4.12163 7.44708 4.2498 7.57289C4.32543 7.64712 4.3873 7.7191 4.3873 7.73283C4.3873 7.74658 4.49043 7.86022 4.61647 7.98539C4.74251 8.11056 4.84564 8.22652 4.84564 8.24307C4.84564 8.25964 4.86626 8.28805 4.89147 8.30623C4.91668 8.3244 4.9373 8.35268 4.9373 8.36906C4.9373 8.40791 5.17937 8.64998 5.21822 8.64998C5.2346 8.64998 5.26288 8.6706 5.28105 8.69581C5.29923 8.72102 5.32755 8.74164 5.34401 8.74164C5.38574 8.74164 5.57897 8.93902 5.57897 8.98167C5.57897 9.0009 5.58928 9.01664 5.60189 9.01664C5.61449 9.01664 5.6248 9.05562 5.6248 9.10324C5.6248 9.16356 5.63871 9.19988 5.67064 9.22289C5.69585 9.24107 5.71647 9.27015 5.71647 9.28752C5.71647 9.30487 5.74741 9.34799 5.78522 9.38331C5.82303 9.41862 5.85397 9.46175 5.85397 9.4791C5.85397 9.49647 5.8746 9.52555 5.8998 9.54373C5.92501 9.5619 5.94564 9.5951 5.94564 9.61754C5.94564 9.63995 5.95595 9.65831 5.96855 9.65831C5.98116 9.65831 5.99147 9.67667 5.99147 9.69908C5.99147 9.72151 6.0121 9.75472 6.0373 9.77289C6.06251 9.79107 6.08314 9.82427 6.08314 9.84671C6.08314 9.86912 6.09345 9.88748 6.10605 9.88748C6.11866 9.88748 6.12897 9.91841 6.12897 9.95623C6.12897 9.99404 6.13928 10.025 6.15189 10.025C6.16449 10.025 6.1748 10.0456 6.1748 10.0708C6.1748 10.096 6.18512 10.1166 6.19772 10.1166C6.21033 10.1166 6.22064 10.1682 6.22064 10.2312C6.22064 10.2942 6.23095 10.3458 6.24355 10.3458C6.25744 10.3458 6.26647 10.4451 6.26647 10.5979C6.26647 10.7507 6.25744 10.85 6.24355 10.85C6.23095 10.85 6.22064 10.8809 6.22064 10.9187C6.22064 10.9655 6.20929 10.9875 6.18523 10.9875C6.13937 10.9875 6.0373 11.0895 6.0373 11.1354C6.0373 11.1549 6.02699 11.1708 6.01439 11.1708C6.00178 11.1708 5.99147 11.1914 5.99147 11.2166C5.99147 11.2419 5.98116 11.2625 5.96855 11.2625C5.95595 11.2625 5.94564 11.2831 5.94564 11.3083C5.94564 11.3335 5.93533 11.3541 5.92272 11.3541C5.91012 11.3541 5.8998 11.3748 5.8998 11.4C5.8998 11.4252 5.88949 11.4458 5.87689 11.4458C5.86428 11.4458 5.85397 11.4664 5.85397 11.4916C5.85397 11.5169 5.84366 11.5375 5.83105 11.5375C5.81845 11.5375 5.80814 11.5558 5.80814 11.5782C5.80814 11.6007 5.78751 11.6339 5.7623 11.6521C5.7371 11.6702 5.71647 11.6993 5.71647 11.7167C5.71647 11.734 5.68553 11.7772 5.64772 11.8125C5.60991 11.8478 5.57897 11.8888 5.57897 11.9035C5.57897 11.942 5.51975 11.9958 5.47747 11.9958C5.45676 11.9958 5.44147 12.0152 5.44147 12.0416C5.44147 12.068 5.42619 12.0875 5.40561 12.0875C5.38588 12.0875 5.31953 12.139 5.25814 12.2021C5.19674 12.2651 5.13267 12.3166 5.11573 12.3166C5.09878 12.3166 5.07006 12.3373 5.05189 12.3625C5.03372 12.3877 5.00051 12.4083 4.97807 12.4083C4.95566 12.4083 4.9373 12.4186 4.9373 12.4312C4.9373 12.4438 4.91668 12.4541 4.89147 12.4541C4.86626 12.4541 4.84564 12.4645 4.84564 12.4771C4.84564 12.4897 4.82501 12.5 4.7998 12.5C4.7746 12.5 4.75397 12.5103 4.75397 12.5229C4.75397 12.5355 4.72303 12.5458 4.68522 12.5458C4.64741 12.5458 4.61647 12.5561 4.61647 12.5687C4.61647 12.5813 4.59585 12.5916 4.57064 12.5916C4.54543 12.5916 4.5248 12.602 4.5248 12.6146C4.5248 12.6272 4.48355 12.6375 4.43314 12.6375C4.38272 12.6375 4.34147 12.6478 4.34147 12.6604C4.34147 12.6731 4.28035 12.6833 4.20397 12.6833C4.12759 12.6833 4.06647 12.6935 4.06647 12.7062C4.06647 12.7203 3.95189 12.7291 3.76855 12.7291C3.58522 12.7291 3.47064 12.7203 3.47064 12.7062C3.47064 12.6936 3.44412 12.6833 3.41172 12.6833C3.35003 12.6833 3.2873 12.6368 3.2873 12.591C3.2873 12.5763 3.25637 12.5353 3.21855 12.5C3.18074 12.4647 3.1498 12.4215 3.1498 12.4042C3.1498 12.3868 3.12918 12.3577 3.10397 12.3396C3.07876 12.3214 3.05814 12.2923 3.05814 12.2749C3.05814 12.2576 3.0272 12.2145 2.98939 12.1791C2.95158 12.1438 2.92064 12.1007 2.92064 12.0834C2.92064 12.066 2.90001 12.0369 2.8748 12.0187C2.8496 12.0006 2.82897 11.9715 2.82897 11.9541C2.82897 11.9368 2.79803 11.8936 2.76022 11.8583C2.72241 11.823 2.69147 11.7817 2.69147 11.7666C2.69147 11.7515 2.66053 11.7103 2.62272 11.675C2.58491 11.6397 2.55397 11.5984 2.55397 11.5833C2.55397 11.5682 2.52303 11.527 2.48522 11.4916C2.44741 11.4563 2.41647 11.4132 2.41647 11.3959C2.41647 11.3785 2.39585 11.3494 2.37064 11.3312C2.34543 11.3131 2.3248 11.2798 2.3248 11.2574C2.3248 11.235 2.31449 11.2166 2.30189 11.2166C2.28928 11.2166 2.27897 11.196 2.27897 11.1708C2.27897 11.1456 2.26866 11.125 2.25605 11.125C2.24345 11.125 2.23314 11.1044 2.23314 11.0791C2.23314 11.0539 2.22283 11.0333 2.21022 11.0333C2.19762 11.0333 2.1873 11.0024 2.1873 10.9646C2.1873 10.9267 2.17699 10.8958 2.16439 10.8958C2.15178 10.8958 2.14147 10.8649 2.14147 10.8271C2.14147 10.7892 2.13116 10.7583 2.11855 10.7583C2.10455 10.7583 2.09564 10.6514 2.09564 10.4833C2.09564 10.3153 2.08672 10.2083 2.07272 10.2083C2.06012 10.2083 2.0498 10.1877 2.0498 10.1625C2.0498 10.1373 2.06012 10.1166 2.07272 10.1166C2.08533 10.1166 2.09564 10.0857 2.09564 10.0479C2.09564 10.0101 2.10595 9.97914 2.11855 9.97914C2.13116 9.97914 2.14147 9.96294 2.14147 9.94314C2.14147 9.89896 2.19594 9.84164 2.2379 9.84164C2.25493 9.84164 2.28372 9.82102 2.30189 9.79581C2.32006 9.7706 2.35327 9.74998 2.3757 9.74998C2.39811 9.74998 2.41647 9.73966 2.41647 9.72706C2.41647 9.71445 2.4371 9.70414 2.4623 9.70414C2.48751 9.70414 2.50814 9.69383 2.50814 9.68123C2.50814 9.66862 2.52876 9.65831 2.55397 9.65831C2.57918 9.65831 2.5998 9.648 2.5998 9.63539C2.5998 9.62279 2.62043 9.61248 2.64564 9.61248C2.67085 9.61248 2.69147 9.60216 2.69147 9.58956C2.69147 9.57682 2.75259 9.56664 2.82897 9.56664C2.90535 9.56664 2.96647 9.55647 2.96647 9.54373C2.96647 9.53098 3.02759 9.52081 3.10397 9.52081C3.18035 9.52081 3.24147 9.51063 3.24147 9.49789C3.24147 9.48453 3.31785 9.47498 3.4248 9.47498C3.53176 9.47498 3.60814 9.48453 3.60814 9.49789C3.60814 9.5105 3.62395 9.52081 3.64327 9.52081C3.70102 9.52081 3.8373 9.6732 3.8373 9.73776C3.8373 9.76968 3.84762 9.79581 3.86022 9.79581C3.87296 9.79581 3.88314 9.85693 3.88314 9.93331C3.88314 10.0097 3.87296 10.0708 3.86022 10.0708C3.84762 10.0708 3.8373 10.0914 3.8373 10.1166C3.8373 10.1581 3.82202 10.1625 3.67689 10.1625C3.58522 10.1625 3.51647 10.1723 3.51647 10.1854C3.51647 10.198 3.50066 10.2083 3.48134 10.2083C3.462 10.2083 3.41044 10.2441 3.36676 10.2878C3.29681 10.3577 3.2873 10.3812 3.2873 10.4843C3.2873 10.5911 3.29546 10.6093 3.37897 10.6896C3.42939 10.738 3.47064 10.789 3.47064 10.803C3.47064 10.8359 3.66804 11.0333 3.701 11.0333C3.71493 11.0333 3.76594 11.0746 3.81439 11.125C3.86283 11.1754 3.91873 11.2166 3.93864 11.2166C3.95853 11.2166 3.9748 11.227 3.9748 11.2396C3.9748 11.2522 3.99543 11.2625 4.02064 11.2625C4.04585 11.2625 4.06647 11.2728 4.06647 11.2854C4.06647 11.298 4.0871 11.3083 4.1123 11.3083C4.13751 11.3083 4.15814 11.3186 4.15814 11.3312C4.15814 11.3438 4.18908 11.3541 4.22689 11.3541C4.2647 11.3541 4.29564 11.3645 4.29564 11.3771C4.29564 11.3897 4.31626 11.4 4.34147 11.4C4.36668 11.4 4.3873 11.3897 4.3873 11.3771C4.3873 11.3645 4.40351 11.3541 4.42331 11.3541C4.47741 11.3541 4.5248 11.296 4.5248 11.2297C4.5248 11.1973 4.53512 11.1708 4.54772 11.1708C4.56033 11.1708 4.57064 11.1502 4.57064 11.125C4.57064 11.0998 4.58095 11.0791 4.59355 11.0791C4.60616 11.0791 4.61647 11.0627 4.61647 11.0425C4.61647 11.0224 4.64741 10.977 4.68522 10.9416C4.72303 10.9063 4.75397 10.8609 4.75397 10.8408C4.75397 10.8206 4.76428 10.8041 4.77689 10.8041C4.78949 10.8041 4.7998 10.7732 4.7998 10.7354C4.7998 10.6976 4.78949 10.6666 4.77689 10.6666C4.76428 10.6666 4.75397 10.646 4.75397 10.6208C4.75397 10.5956 4.74366 10.575 4.73105 10.575C4.71845 10.575 4.70814 10.5566 4.70814 10.5342C4.70814 10.5118 4.68751 10.4786 4.6623 10.4604C4.6371 10.4422 4.61647 10.4113 4.61647 10.3916C4.61647 10.372 4.59585 10.3411 4.57064 10.3229C4.54543 10.3047 4.5248 10.2738 4.5248 10.2541C4.5248 10.2345 4.50418 10.2036 4.47897 10.1854C4.45376 10.1672 4.43314 10.1363 4.43314 10.1166C4.43314 10.097 4.41251 10.0661 4.3873 10.0479C4.3621 10.0297 4.34147 9.99878 4.34147 9.97914C4.34147 9.9595 4.32085 9.92857 4.29564 9.91039C4.27043 9.89222 4.2498 9.86314 4.2498 9.84577C4.2498 9.82842 4.21887 9.78529 4.18105 9.74998C4.14324 9.71466 4.1123 9.67341 4.1123 9.65831C4.1123 9.64321 4.08137 9.60196 4.04355 9.56664C4.00574 9.53133 3.9748 9.49008 3.9748 9.47498C3.9748 9.45987 3.94387 9.41862 3.90605 9.38331C3.86824 9.34799 3.8373 9.30674 3.8373 9.29164C3.8373 9.27654 3.80637 9.23529 3.76855 9.19998C3.73074 9.16466 3.6998 9.12419 3.6998 9.11007C3.6998 9.07134 3.45386 8.83331 3.41385 8.83331C3.39467 8.83331 3.37897 8.81683 3.37897 8.79667C3.37897 8.77652 3.34803 8.73112 3.31022 8.69581C3.27241 8.66049 3.24147 8.6151 3.24147 8.59495C3.24147 8.57479 3.23116 8.55831 3.21855 8.55831C3.20595 8.55831 3.19564 8.53768 3.19564 8.51248C3.19564 8.48727 3.18533 8.46664 3.17272 8.46664C3.16012 8.46664 3.1498 8.45017 3.1498 8.43C3.1498 8.40985 3.11887 8.36446 3.08105 8.32914C3.04324 8.29383 3.0123 8.25278 3.0123 8.23793C3.0123 8.22311 2.97105 8.17134 2.92064 8.12289C2.87022 8.07445 2.82897 8.01855 2.82897 7.99864C2.82897 7.97875 2.81866 7.96248 2.80605 7.96248C2.79345 7.96248 2.78314 7.91091 2.78314 7.84789C2.78314 7.78487 2.77283 7.73331 2.76022 7.73331C2.74748 7.73331 2.7373 7.67219 2.7373 7.59581C2.7373 7.51943 2.74748 7.45831 2.76022 7.45831C2.77283 7.45831 2.78314 7.43768 2.78314 7.41248C2.78314 7.38727 2.79345 7.36664 2.80605 7.36664C2.81866 7.36664 2.82897 7.35051 2.82897 7.33078C2.82897 7.31105 2.88053 7.2447 2.94355 7.18331C3.00658 7.12192 3.05814 7.05557 3.05814 7.03584C3.05814 7.01611 3.06845 6.99998 3.08105 6.99998C3.09366 6.99998 3.10397 6.97935 3.10397 6.95414C3.10397 6.92893 3.11428 6.90831 3.12689 6.90831C3.13949 6.90831 3.1498 6.88768 3.1498 6.86248C3.1498 6.83727 3.16012 6.81664 3.17272 6.81664C3.18533 6.81664 3.19564 6.79602 3.19564 6.77081C3.19564 6.7456 3.20595 6.72498 3.21855 6.72498C3.23116 6.72498 3.24147 6.70662 3.24147 6.68421C3.24147 6.66177 3.2621 6.62857 3.2873 6.61039C3.31251 6.59222 3.33314 6.56128 3.33314 6.54164C3.33314 6.522 3.35376 6.49107 3.37897 6.47289C3.40418 6.45472 3.4248 6.42653 3.4248 6.41024C3.4248 6.37417 3.84934 5.94581 3.88511 5.94581C3.89911 5.94581 3.93949 5.91487 3.9748 5.87706C4.01012 5.83925 4.05552 5.80831 4.07566 5.80831C4.09583 5.80831 4.1123 5.798 4.1123 5.78539C4.1123 5.77279 4.13066 5.76248 4.15307 5.76248C4.17551 5.76248 4.20871 5.74185 4.22689 5.71664C4.24506 5.69143 4.27827 5.67081 4.3007 5.67081C4.32311 5.67081 4.34147 5.6605 4.34147 5.64789C4.34147 5.63529 4.3621 5.62498 4.3873 5.62498C4.41251 5.62498 4.43314 5.61466 4.43314 5.60206C4.43314 5.58945 4.46408 5.57914 4.50189 5.57914C4.5397 5.57914 4.57064 5.56883 4.57064 5.55623C4.57064 5.54362 4.59126 5.53331 4.61647 5.53331C4.64168 5.53331 4.6623 5.523 4.6623 5.51039C4.6623 5.49779 4.69324 5.48748 4.73105 5.48748C4.76887 5.48748 4.7998 5.47716 4.7998 5.46456C4.7998 5.45195 4.84105 5.44164 4.89147 5.44164C4.94189 5.44164 4.98314 5.43133 4.98314 5.41873C4.98314 5.40598 5.04426 5.39581 5.12064 5.39581ZM8.93551 7.41248C8.95483 7.41248 8.97064 7.40216 8.97064 7.38956C8.97064 7.37597 9.05467 7.36664 9.17689 7.36664C9.2991 7.36664 9.38314 7.37597 9.38314 7.38956C9.38314 7.40216 9.4347 7.41248 9.49772 7.41248C9.56074 7.41248 9.6123 7.42279 9.6123 7.43539C9.6123 7.448 9.63293 7.45831 9.65814 7.45831C9.68335 7.45831 9.70397 7.46862 9.70397 7.48123C9.70397 7.49383 9.73264 7.50414 9.76766 7.50414C9.80506 7.50414 9.84498 7.52307 9.86439 7.54998C9.88256 7.57518 9.91164 7.59581 9.92901 7.59581C9.94636 7.59581 9.98949 7.62675 10.0248 7.66456C10.0601 7.70237 10.101 7.73331 10.1157 7.73331C10.1304 7.73331 10.1926 7.78487 10.254 7.84789C10.3154 7.91091 10.3769 7.96248 10.3907 7.96248C10.4406 7.96248 10.5748 8.12072 10.5748 8.17943C10.5748 8.21135 10.5851 8.23748 10.5977 8.23748C10.612 8.23748 10.6206 8.37498 10.6206 8.60414C10.6206 8.83331 10.612 8.97081 10.5977 8.97081C10.5828 8.97081 10.5748 9.29927 10.5748 9.91039C10.5748 10.5215 10.5828 10.85 10.5977 10.85C10.6103 10.85 10.6206 10.8662 10.6206 10.886C10.6206 10.9323 10.6758 10.9875 10.7221 10.9875C10.7419 10.9875 10.7581 10.9978 10.7581 11.0104C10.7581 11.023 10.7891 11.0333 10.8269 11.0333C10.8647 11.0333 10.8956 11.023 10.8956 11.0104C10.8956 10.9978 10.9116 10.9875 10.931 10.9875C10.9722 10.9875 11.079 10.8873 11.079 10.8488C11.079 10.8343 11.1099 10.7936 11.1477 10.7583C11.1855 10.723 11.2165 10.6776 11.2165 10.6575C11.2165 10.6373 11.2268 10.6208 11.2394 10.6208C11.2543 10.6208 11.2623 10.3229 11.2623 9.77289C11.2623 9.22289 11.2543 8.92498 11.2394 8.92498C11.2258 8.92498 11.2165 8.84094 11.2165 8.71873C11.2165 8.59651 11.2071 8.51248 11.1936 8.51248C11.181 8.51248 11.1706 8.48154 11.1706 8.44373C11.1706 8.40591 11.1603 8.37498 11.1477 8.37498C11.1351 8.37498 11.1248 8.34404 11.1248 8.30623C11.1248 8.26841 11.1145 8.23748 11.1019 8.23748C11.0888 8.23748 11.079 8.16873 11.079 8.07706C11.079 7.98539 11.0888 7.91664 11.1019 7.91664C11.1145 7.91664 11.1248 7.89602 11.1248 7.87081C11.1248 7.83515 11.1401 7.82498 11.1936 7.82498C11.2314 7.82498 11.2623 7.81466 11.2623 7.80206C11.2623 7.78945 11.3139 7.77914 11.3769 7.77914C11.4399 7.77914 11.4915 7.76883 11.4915 7.75623C11.4915 7.74348 11.5526 7.73331 11.629 7.73331C11.7054 7.73331 11.7665 7.74348 11.7665 7.75623C11.7665 7.76897 11.8276 7.77914 11.904 7.77914C11.9804 7.77914 12.0415 7.78932 12.0415 7.80206C12.0415 7.81466 12.0724 7.82498 12.1102 7.82498C12.1751 7.82498 12.179 7.83006 12.179 7.91664C12.179 7.96706 12.1893 8.00831 12.2019 8.00831C12.2145 8.00831 12.2248 8.04956 12.2248 8.09998C12.2248 8.15039 12.2145 8.19164 12.2019 8.19164C12.1893 8.19164 12.179 8.23062 12.179 8.27824C12.179 8.33856 12.1651 8.37488 12.1331 8.39789C12.1079 8.41607 12.0873 8.44927 12.0873 8.47171C12.0873 8.49412 12.077 8.51248 12.0644 8.51248C12.028 8.51248 12.0337 9.51384 12.0701 9.52862C12.0918 9.53738 12.0904 9.5467 12.0644 9.56664C12.0384 9.58658 12.037 9.59591 12.0587 9.60466C12.0949 9.61937 12.1005 10.3916 12.0644 10.3916C12.0497 10.3916 12.0415 10.5903 12.0415 10.9416C12.0415 11.293 12.0497 11.4916 12.0644 11.4916C12.077 11.4916 12.0873 11.5226 12.0873 11.5604C12.0873 11.5982 12.0976 11.6291 12.1102 11.6291C12.1228 11.6291 12.1331 11.6498 12.1331 11.675C12.1331 11.7002 12.1434 11.7208 12.1561 11.7208C12.1687 11.7208 12.179 11.7392 12.179 11.7616C12.179 11.784 12.1996 11.8172 12.2248 11.8354C12.25 11.8536 12.2706 11.8821 12.2706 11.8988C12.2706 11.9406 12.3753 12.0416 12.4186 12.0416C12.4387 12.0416 12.454 12.0614 12.454 12.0875C12.454 12.1127 12.4643 12.1333 12.4769 12.1333C12.4904 12.1333 12.4998 12.2139 12.4998 12.3291C12.4998 12.5065 12.4945 12.5303 12.4435 12.5812C12.3917 12.6331 12.3703 12.6375 12.1685 12.6375C12.038 12.6375 11.9498 12.6467 11.9498 12.6604C11.9498 12.673 11.8982 12.6833 11.8352 12.6833C11.7722 12.6833 11.7206 12.673 11.7206 12.6604C11.7206 12.6478 11.6897 12.6375 11.6519 12.6375C11.6141 12.6375 11.5831 12.6272 11.5831 12.6146C11.5831 12.602 11.5669 12.5916 11.5471 12.5916C11.5008 12.5916 11.4456 12.5365 11.4456 12.4901C11.4456 12.4703 11.4353 12.4541 11.4227 12.4541C11.4101 12.4541 11.3998 12.4232 11.3998 12.3854C11.3998 12.3476 11.3895 12.3166 11.3769 12.3166C11.3629 12.3166 11.354 12.2097 11.354 12.0416C11.354 11.8736 11.3451 11.7666 11.3311 11.7666C11.3184 11.7666 11.3081 11.746 11.3081 11.7208C11.3081 11.6324 11.2361 11.6767 11.0102 11.9041C10.885 12.0302 10.7691 12.1333 10.7525 12.1333C10.736 12.1333 10.7076 12.1539 10.6894 12.1791C10.6712 12.2044 10.6403 12.225 10.6206 12.225C10.601 12.225 10.5701 12.2456 10.5519 12.2708C10.5337 12.296 10.5005 12.3166 10.4781 12.3166C10.4557 12.3166 10.4373 12.327 10.4373 12.3396C10.4373 12.3522 10.3961 12.3625 10.3456 12.3625C10.2952 12.3625 10.254 12.3522 10.254 12.3396C10.254 12.327 10.2333 12.3166 10.2081 12.3166C10.1829 12.3166 10.1623 12.3063 10.1623 12.2937C10.1623 12.2811 10.1461 12.2708 10.1263 12.2708C10.08 12.2708 10.0248 12.2156 10.0248 12.1693C10.0248 12.1495 10.0145 12.1333 10.0019 12.1333C9.98928 12.1333 9.97897 12.115 9.97897 12.0925C9.97897 12.0701 9.95835 12.0369 9.93314 12.0187C9.90793 12.0006 9.8873 11.9673 9.8873 11.9449C9.8873 11.9225 9.87699 11.9041 9.86439 11.9041C9.85178 11.9041 9.84147 11.8835 9.84147 11.8583C9.84147 11.8331 9.83116 11.8125 9.81855 11.8125C9.80595 11.8125 9.79564 11.7919 9.79564 11.7666C9.79564 11.7414 9.78533 11.7208 9.77272 11.7208C9.76012 11.7208 9.7498 11.7002 9.7498 11.675C9.7498 11.6498 9.73949 11.6291 9.72689 11.6291C9.71428 11.6291 9.70397 11.6085 9.70397 11.5833C9.70397 11.5581 9.69366 11.5375 9.68105 11.5375C9.66845 11.5375 9.65814 11.5065 9.65814 11.4687C9.65814 11.4309 9.64783 11.4 9.63522 11.4C9.62163 11.4 9.6123 11.3159 9.6123 11.1937C9.6123 11.0715 9.60298 10.9875 9.58939 10.9875C9.57447 10.9875 9.56647 10.6514 9.56647 10.025C9.56647 9.39859 9.57447 9.06248 9.58939 9.06248C9.60298 9.06248 9.6123 8.97844 9.6123 8.85623C9.6123 8.73401 9.60298 8.64998 9.58939 8.64998C9.57678 8.64998 9.56647 8.62346 9.56647 8.59106C9.56647 8.53796 9.52144 8.46664 9.48789 8.46664C9.48069 8.46664 9.4748 8.49758 9.4748 8.53539C9.4748 8.5732 9.46449 8.60414 9.45189 8.60414C9.43928 8.60414 9.42897 8.63508 9.42897 8.67289C9.42897 8.7107 9.41866 8.74164 9.40605 8.74164C9.39345 8.74164 9.38314 8.75784 9.38314 8.77764C9.38314 8.82318 9.32823 8.87914 9.28356 8.87914C9.2648 8.87914 9.24344 8.89204 9.23608 8.90779C9.2254 8.9307 9.22004 8.9307 9.20936 8.90779C9.202 8.89204 9.16591 8.87914 9.12915 8.87914C9.09239 8.87914 9.0623 8.86883 9.0623 8.85623C9.0623 8.84362 9.03224 8.83331 8.99546 8.83331C8.9587 8.83331 8.92437 8.82052 8.91914 8.80487C8.91225 8.78418 8.89923 8.78686 8.87141 8.8147C8.83016 8.85593 8.81794 9.01664 8.85605 9.01664C8.8698 9.01664 8.87897 9.10831 8.87897 9.24581C8.87897 9.38331 8.88814 9.47498 8.90189 9.47498C8.9166 9.47498 8.9248 9.69651 8.9248 10.0937C8.9248 10.4909 8.93301 10.7125 8.94772 10.7125C8.9622 10.7125 8.97064 10.8729 8.97064 11.1479C8.97064 11.4229 8.9622 11.5833 8.94772 11.5833C8.93512 11.5833 8.9248 11.6196 8.9248 11.664C8.9248 11.7326 8.90276 11.7666 8.77628 11.8931C8.69458 11.9748 8.61435 12.0416 8.59799 12.0416C8.58165 12.0416 8.55339 12.0623 8.53522 12.0875C8.51705 12.1127 8.48384 12.1333 8.46141 12.1333C8.43899 12.1333 8.42064 12.1436 8.42064 12.1562C8.42064 12.1688 8.40001 12.1791 8.3748 12.1791C8.3496 12.1791 8.32897 12.1895 8.32897 12.2021C8.32897 12.2147 8.30835 12.225 8.28314 12.225C8.25793 12.225 8.2373 12.2353 8.2373 12.2479C8.2373 12.2605 8.21668 12.2708 8.19147 12.2708C8.16626 12.2708 8.14564 12.2811 8.14564 12.2937C8.14564 12.3063 8.12501 12.3166 8.0998 12.3166C8.0746 12.3166 8.05397 12.327 8.05397 12.3396C8.05397 12.3522 8.02303 12.3625 7.98522 12.3625C7.94741 12.3625 7.91647 12.3728 7.91647 12.3854C7.91647 12.398 7.88553 12.4083 7.84772 12.4083C7.80991 12.4083 7.77897 12.4186 7.77897 12.4312C7.77897 12.4438 7.72741 12.4541 7.66439 12.4541C7.60137 12.4541 7.5498 12.4438 7.5498 12.4312C7.5498 12.4186 7.52918 12.4083 7.50397 12.4083C7.47876 12.4083 7.45814 12.398 7.45814 12.3854C7.45814 12.3728 7.442 12.3625 7.42227 12.3625C7.40254 12.3625 7.3362 12.3109 7.2748 12.2479C7.21341 12.1849 7.15211 12.1333 7.13856 12.1333C7.10027 12.1333 6.54147 11.5652 6.54147 11.5262C6.54147 11.5072 6.53116 11.4916 6.51855 11.4916C6.50368 11.4916 6.49564 11.1937 6.49564 10.6437C6.49564 10.0937 6.50368 9.79581 6.51855 9.79581C6.53301 9.79581 6.54147 9.63603 6.54147 9.36229C6.54147 9.03697 6.54862 8.92589 6.57012 8.91716C6.59175 8.90841 6.59035 8.89908 6.56439 8.87914C6.53842 8.8592 6.53703 8.84988 6.55866 8.84112C6.57443 8.83473 6.5873 8.8043 6.5873 8.7735C6.5873 8.71359 6.76835 8.51248 6.82227 8.51248C6.83872 8.51248 6.86705 8.49185 6.88522 8.46664C6.90339 8.44143 6.9366 8.42081 6.95904 8.42081C6.98145 8.42081 6.9998 8.4105 6.9998 8.39789C6.9998 8.38529 7.01628 8.37498 7.03645 8.37498C7.05659 8.37498 7.10199 8.34404 7.1373 8.30623C7.17262 8.26841 7.21802 8.23748 7.23816 8.23748C7.25833 8.23748 7.2748 8.22716 7.2748 8.21456C7.2748 8.20195 7.29543 8.19164 7.32064 8.19164C7.34585 8.19164 7.36647 8.18133 7.36647 8.16873C7.36647 8.15612 7.3871 8.14581 7.4123 8.14581C7.43751 8.14581 7.45814 8.1355 7.45814 8.12289C7.45814 8.11029 7.47876 8.09998 7.50397 8.09998C7.52918 8.09998 7.5498 8.08966 7.5498 8.07706C7.5498 8.06445 7.57043 8.05414 7.59564 8.05414C7.62085 8.05414 7.64147 8.04383 7.64147 8.03123C7.64147 8.01862 7.6621 8.00831 7.6873 8.00831C7.71251 8.00831 7.73314 7.998 7.73314 7.98539C7.73314 7.97277 7.79256 7.96248 7.86557 7.96248C7.97172 7.96248 8.00459 7.97157 8.03105 8.00831C8.04923 8.03352 8.07831 8.05414 8.09568 8.05414C8.11303 8.05414 8.15616 8.08508 8.19147 8.12289C8.22679 8.1607 8.26991 8.19164 8.28726 8.19164C8.30463 8.19164 8.33371 8.21227 8.35189 8.23748C8.37006 8.26268 8.40327 8.28331 8.4257 8.28331C8.44811 8.28331 8.46647 8.29362 8.46647 8.30623C8.46647 8.31883 8.49741 8.32914 8.53522 8.32914H8.60397V8.09998C8.60397 7.96248 8.61314 7.87081 8.62689 7.87081C8.63949 7.87081 8.6498 7.83987 8.6498 7.80206C8.6498 7.76425 8.66012 7.73331 8.67272 7.73331C8.68533 7.73331 8.69564 7.71268 8.69564 7.68748C8.69564 7.66227 8.70595 7.64164 8.71855 7.64164C8.73116 7.64164 8.74147 7.62583 8.74147 7.60651C8.74147 7.56088 8.88988 7.41248 8.93551 7.41248ZM12.454 7.50414C12.4792 7.50414 12.4998 7.49383 12.4998 7.48123C12.4998 7.46693 12.6338 7.45831 12.856 7.45831C13.2037 7.45831 13.2137 7.45966 13.2685 7.51457C13.2995 7.54551 13.3248 7.58676 13.3248 7.60624C13.3248 7.62572 13.3351 7.64164 13.3477 7.64164C13.3603 7.64164 13.3706 7.67258 13.3706 7.71039C13.3706 7.7482 13.3809 7.77914 13.3936 7.77914C13.4062 7.77914 13.4165 7.79977 13.4165 7.82498C13.4165 7.85018 13.4268 7.87081 13.4394 7.87081C13.452 7.87081 13.4623 7.89143 13.4623 7.91664C13.4623 7.94185 13.4726 7.96248 13.4852 7.96248C13.4978 7.96248 13.5081 7.9831 13.5081 8.00831C13.5081 8.03352 13.5184 8.05414 13.5311 8.05414C13.5437 8.05414 13.554 8.07477 13.554 8.09998C13.554 8.12518 13.5643 8.14581 13.5769 8.14581C13.5895 8.14581 13.5998 8.17448 13.5998 8.20949C13.5998 8.24689 13.6187 8.28682 13.6456 8.30623C13.6708 8.3244 13.6915 8.3576 13.6915 8.38004C13.6915 8.40245 13.7018 8.42081 13.7144 8.42081C13.727 8.42081 13.7373 8.44143 13.7373 8.46664C13.7373 8.49185 13.7476 8.51248 13.7602 8.51248C13.7728 8.51248 13.7831 8.54341 13.7831 8.58123C13.7831 8.61904 13.7934 8.64998 13.8061 8.64998C13.8187 8.64998 13.829 8.6706 13.829 8.69581C13.829 8.72102 13.8393 8.74164 13.8519 8.74164C13.8645 8.74164 13.8748 8.77258 13.8748 8.81039C13.8748 8.8482 13.8851 8.87914 13.8977 8.87914C13.9103 8.87914 13.9206 8.89977 13.9206 8.92498C13.9206 8.95018 13.931 8.97081 13.9436 8.97081C13.9562 8.97081 13.9665 8.99143 13.9665 9.01664C13.9665 9.04185 13.9768 9.06248 13.9894 9.06248C14.002 9.06248 14.0123 9.0831 14.0123 9.10831C14.0123 9.13352 14.0226 9.15414 14.0352 9.15414C14.0478 9.15414 14.0581 9.18508 14.0581 9.22289C14.0581 9.2607 14.0684 9.29164 14.0811 9.29164C14.0937 9.29164 14.104 9.31227 14.104 9.33748C14.104 9.36268 14.1143 9.38331 14.1269 9.38331C14.1395 9.38331 14.1498 9.41425 14.1498 9.45206C14.1498 9.48987 14.1601 9.52081 14.1727 9.52081C14.1853 9.52081 14.1956 9.54143 14.1956 9.56664C14.1956 9.59185 14.2059 9.61248 14.2186 9.61248C14.2312 9.61248 14.2415 9.64341 14.2415 9.68123C14.2415 9.71904 14.2518 9.74998 14.2644 9.74998C14.277 9.74998 14.2873 9.78091 14.2873 9.81873C14.2873 9.85654 14.2976 9.88748 14.3102 9.88748C14.3228 9.88748 14.3331 9.91841 14.3331 9.95623C14.3331 9.99404 14.3434 10.025 14.3561 10.025C14.3687 10.025 14.379 10.0559 14.379 10.0937C14.379 10.1315 14.3893 10.1625 14.4019 10.1625C14.4145 10.1625 14.4248 10.1934 14.4248 10.2312C14.4248 10.269 14.4351 10.3 14.4477 10.3C14.4603 10.3 14.4706 10.3206 14.4706 10.3458C14.4706 10.3764 14.4859 10.3916 14.5165 10.3916C14.5607 10.3916 14.5623 10.3764 14.5623 9.95623C14.5623 9.68123 14.5707 9.52081 14.5852 9.52081C14.5978 9.52081 14.6081 9.50018 14.6081 9.47498C14.6081 9.44977 14.5978 9.42914 14.5852 9.42914C14.5726 9.42914 14.5623 9.3982 14.5623 9.36039C14.5623 9.32258 14.5726 9.29164 14.5852 9.29164C14.5992 9.29164 14.6081 9.18469 14.6081 9.01664C14.6081 8.84859 14.5992 8.74164 14.5852 8.74164C14.5721 8.74164 14.5623 8.67289 14.5623 8.58123C14.5623 8.48956 14.5525 8.42081 14.5394 8.42081C14.5268 8.42081 14.5165 8.36925 14.5165 8.30623C14.5165 8.2432 14.5062 8.19164 14.4936 8.19164C14.4805 8.19164 14.4706 8.12289 14.4706 8.03123C14.4706 7.93956 14.4805 7.87081 14.4936 7.87081C14.5062 7.87081 14.5165 7.85461 14.5165 7.83481C14.5165 7.7807 14.5746 7.73331 14.6409 7.73331C14.6733 7.73331 14.6998 7.723 14.6998 7.71039C14.6998 7.69632 14.8109 7.68748 14.9873 7.68748C15.262 7.68748 15.2773 7.68997 15.331 7.74374C15.362 7.77467 15.3873 7.81592 15.3873 7.8354C15.3873 7.85488 15.3976 7.87081 15.4102 7.87081C15.424 7.87081 15.4331 7.96248 15.4331 8.09998C15.4331 8.23748 15.424 8.32914 15.4102 8.32914C15.3976 8.32914 15.3873 8.3807 15.3873 8.44373C15.3873 8.50675 15.377 8.55831 15.3644 8.55831C15.3496 8.55831 15.3415 8.80276 15.3415 9.24581C15.3415 9.68886 15.3333 9.93331 15.3186 9.93331C15.3038 9.93331 15.2956 10.1548 15.2956 10.5521C15.2956 10.9493 15.3038 11.1708 15.3186 11.1708C15.333 11.1708 15.3415 11.3312 15.3415 11.6062C15.3415 11.8812 15.333 12.0416 15.3186 12.0416C15.306 12.0416 15.2956 12.0575 15.2956 12.0768C15.2956 12.0961 15.2599 12.1477 15.2162 12.1914L15.1368 12.2708H14.8954C14.7497 12.2708 14.654 12.2617 14.654 12.2479C14.654 12.2147 14.5683 12.2197 14.5545 12.2536C14.5458 12.2752 14.5368 12.2738 14.5182 12.2479C14.4963 12.2173 14.4908 12.2173 14.4689 12.2479C14.4503 12.2738 14.4413 12.2752 14.4326 12.2536C14.4262 12.2379 14.3909 12.225 14.3542 12.225C14.3026 12.225 14.2873 12.2145 14.2873 12.1791C14.2873 12.1539 14.277 12.1333 14.2644 12.1333C14.2518 12.1333 14.2415 12.0921 14.2415 12.0416C14.2415 11.9912 14.2312 11.95 14.2186 11.95C14.2059 11.95 14.1956 11.9087 14.1956 11.8583C14.1956 11.8079 14.1853 11.7666 14.1727 11.7666C14.1601 11.7666 14.1498 11.7357 14.1498 11.6979C14.1498 11.6601 14.1395 11.6291 14.1269 11.6291C14.1143 11.6291 14.104 11.5982 14.104 11.5604C14.104 11.5226 14.0937 11.4916 14.0811 11.4916C14.0684 11.4916 14.0581 11.471 14.0581 11.4458C14.0581 11.4206 14.0478 11.4 14.0352 11.4C14.0226 11.4 14.0123 11.369 14.0123 11.3312C14.0123 11.2934 14.002 11.2625 13.9894 11.2625C13.9768 11.2625 13.9665 11.2315 13.9665 11.1937C13.9665 11.1559 13.9562 11.125 13.9436 11.125C13.931 11.125 13.9206 11.1044 13.9206 11.0791C13.9206 11.0539 13.9103 11.0333 13.8977 11.0333C13.8851 11.0333 13.8748 11.0024 13.8748 10.9646C13.8748 10.9267 13.8645 10.8958 13.8519 10.8958C13.8393 10.8958 13.829 10.8649 13.829 10.8271C13.829 10.7892 13.8187 10.7583 13.8061 10.7583C13.7934 10.7583 13.7831 10.7377 13.7831 10.7125C13.7831 10.6873 13.7728 10.6666 13.7602 10.6666C13.7476 10.6666 13.7373 10.6357 13.7373 10.5979C13.7373 10.5601 13.727 10.5291 13.7144 10.5291C13.7018 10.5291 13.6915 10.5085 13.6915 10.4833C13.6915 10.4581 13.6812 10.4375 13.6686 10.4375C13.6559 10.4375 13.6456 10.4065 13.6456 10.3687C13.6456 10.3309 13.6353 10.3 13.6227 10.3C13.6101 10.3 13.5998 10.2794 13.5998 10.2541C13.5998 10.2289 13.5895 10.2083 13.5769 10.2083C13.5643 10.2083 13.554 10.1821 13.554 10.15C13.554 10.0997 13.4657 9.97914 13.429 9.97914C13.4221 9.97914 13.4165 10.2576 13.4165 10.5979C13.4165 10.9951 13.4247 11.2166 13.4394 11.2166C13.452 11.2166 13.4623 11.2476 13.4623 11.2854C13.4623 11.3232 13.4726 11.3541 13.4852 11.3541C13.4986 11.3541 13.5081 11.4299 13.5081 11.5356C13.5081 11.6583 13.5174 11.7213 13.5368 11.7304C13.5597 11.741 13.5597 11.7464 13.5368 11.7571C13.521 11.7644 13.5081 11.8108 13.5081 11.8602C13.5081 11.9096 13.4978 11.95 13.4852 11.95C13.4726 11.95 13.4623 11.9659 13.4623 11.9854C13.4623 12.0517 13.3554 12.1333 13.2685 12.1333C13.2239 12.1333 13.1873 12.1436 13.1873 12.1562C13.1873 12.1698 13.1033 12.1791 12.9811 12.1791C12.8588 12.1791 12.7748 12.1698 12.7748 12.1562C12.7748 12.1436 12.7542 12.1333 12.729 12.1333C12.7038 12.1333 12.6831 12.123 12.6831 12.1104C12.6831 12.0978 12.6672 12.0875 12.6477 12.0875C12.592 12.0875 12.4998 11.981 12.4998 11.9166C12.4998 11.8845 12.4895 11.8583 12.4769 11.8583C12.4635 11.8583 12.454 11.7819 12.454 11.675C12.454 11.568 12.4635 11.4916 12.4769 11.4916C12.4895 11.4916 12.4998 11.4607 12.4998 11.4229C12.4998 11.3851 12.5101 11.3541 12.5227 11.3541C12.5353 11.3541 12.5456 11.3335 12.5456 11.3083C12.5456 11.2831 12.556 11.2625 12.5686 11.2625C12.5835 11.2625 12.5915 10.8729 12.5915 10.1396C12.5915 9.40623 12.5835 9.01664 12.5686 9.01664C12.5548 9.01664 12.5456 8.92498 12.5456 8.78748C12.5456 8.64998 12.5365 8.55831 12.5227 8.55831C12.5094 8.55831 12.4998 8.48193 12.4998 8.37498C12.4998 8.26802 12.4902 8.19164 12.4769 8.19164C12.4643 8.19164 12.454 8.1607 12.454 8.12289C12.454 8.08508 12.4437 8.05414 12.4311 8.05414C12.4185 8.05414 12.4081 8.01289 12.4081 7.96248C12.4081 7.91206 12.3978 7.87081 12.3852 7.87081C12.3725 7.87081 12.3623 7.80969 12.3623 7.73331C12.3623 7.65693 12.3725 7.59581 12.3852 7.59581C12.3978 7.59581 12.4081 7.57518 12.4081 7.54998C12.4081 7.51943 12.4234 7.50414 12.454 7.50414ZM15.7769 8.92498C15.7415 8.92498 15.7468 8.31239 15.7826 8.27176C15.8153 8.23466 15.9373 8.2257 15.9373 8.26039C15.9373 8.273 15.9534 8.28331 15.9732 8.28331C15.9929 8.28331 16.0592 8.33487 16.1206 8.39789C16.2134 8.49309 16.2461 8.51248 16.3139 8.51248C16.3589 8.51248 16.3956 8.50216 16.3956 8.48956C16.3956 8.47695 16.4121 8.46664 16.4323 8.46664C16.4524 8.46664 16.4978 8.4357 16.5331 8.39789C16.5685 8.36008 16.6138 8.32914 16.634 8.32914C16.6542 8.32914 16.6706 8.31883 16.6706 8.30623C16.6706 8.27219 16.7379 8.2785 16.7754 8.31606C16.8013 8.34193 16.8081 8.43302 16.8081 8.75147C16.8081 9.00463 16.7996 9.15414 16.7852 9.15414C16.7721 9.15414 16.7623 9.22289 16.7623 9.31456C16.7623 9.40623 16.7525 9.47498 16.7394 9.47498C16.7251 9.47498 16.7165 9.61248 16.7165 9.84164C16.7165 10.0708 16.7079 10.2083 16.6936 10.2083C16.6795 10.2083 16.6706 10.3229 16.6706 10.5062C16.6706 10.6896 16.6618 10.8041 16.6477 10.8041C16.6341 10.8041 16.6248 10.8882 16.6248 11.0104C16.6248 11.1326 16.6155 11.2166 16.6019 11.2166C16.5893 11.2166 16.579 11.2579 16.579 11.3083C16.579 11.3587 16.5893 11.4 16.6019 11.4C16.6145 11.4 16.6248 11.4158 16.6248 11.4351C16.6248 11.4544 16.6611 11.5065 16.7054 11.5509C16.7767 11.6221 16.7901 11.6276 16.82 11.5976C16.8456 11.572 16.854 11.5054 16.854 11.3265C16.854 11.1156 16.8591 11.0856 16.8998 11.0562C16.925 11.0381 16.9456 11.0093 16.9456 10.9922C16.9456 10.9503 17.003 10.8958 17.0471 10.8958C17.0669 10.8958 17.0831 10.8855 17.0831 10.8729C17.0831 10.8603 17.1141 10.85 17.1519 10.85C17.1897 10.85 17.2206 10.8397 17.2206 10.8271C17.2206 10.8145 17.2619 10.8041 17.3123 10.8041C17.3627 10.8041 17.404 10.8145 17.404 10.8271C17.404 10.8397 17.4308 10.85 17.4635 10.85C17.5002 10.85 17.5478 10.8764 17.5873 10.9187C17.6226 10.9565 17.6636 10.9875 17.6784 10.9875C17.7148 10.9875 17.7706 11.0459 17.7706 11.0839C17.7706 11.1009 17.7913 11.1297 17.8165 11.1479C17.8532 11.1744 17.8623 11.2072 17.8623 11.3134C17.8623 11.3864 17.8726 11.4458 17.8852 11.4458C17.8983 11.4458 17.9081 11.5146 17.9081 11.6062C17.9081 11.6979 17.8983 11.7666 17.8852 11.7666C17.8726 11.7666 17.8623 11.8182 17.8623 11.8812C17.8623 11.9442 17.852 11.9958 17.8394 11.9958C17.8268 11.9958 17.8165 12.0267 17.8165 12.0646C17.8165 12.1024 17.8062 12.1333 17.7936 12.1333C17.7809 12.1333 17.7706 12.1642 17.7706 12.2021C17.7706 12.2399 17.7603 12.2708 17.7477 12.2708C17.7351 12.2708 17.7248 12.2914 17.7248 12.3166C17.7248 12.3419 17.7145 12.3625 17.7019 12.3625C17.6893 12.3625 17.679 12.3783 17.679 12.3976C17.679 12.4405 17.5318 12.5916 17.49 12.5916C17.4735 12.5916 17.4451 12.6123 17.4269 12.6375C17.4075 12.6644 17.3676 12.6833 17.3302 12.6833C17.2951 12.6833 17.2665 12.6936 17.2665 12.7062C17.2665 12.7188 17.2355 12.7291 17.1977 12.7291C17.1599 12.7291 17.129 12.7395 17.129 12.7521C17.129 12.7661 17.022 12.775 16.854 12.775C16.6859 12.775 16.579 12.7661 16.579 12.7521C16.579 12.7395 16.548 12.7291 16.5102 12.7291C16.4724 12.7291 16.4415 12.7188 16.4415 12.7062C16.4415 12.6936 16.4208 12.6833 16.3956 12.6833C16.3704 12.6833 16.3498 12.673 16.3498 12.6604C16.3498 12.6478 16.3342 12.6375 16.3151 12.6375C16.2699 12.6375 15.8456 12.2132 15.8456 12.168C15.8456 12.1489 15.8353 12.1333 15.8227 12.1333C15.8101 12.1333 15.7998 12.1127 15.7998 12.0875C15.7998 12.0623 15.7895 12.0416 15.7769 12.0416C15.7635 12.0416 15.754 11.9659 15.754 11.8602C15.754 11.7375 15.7447 11.6745 15.7253 11.6654C15.7024 11.6547 15.7024 11.6494 15.7253 11.6387C15.7447 11.6296 15.754 11.5666 15.754 11.4439C15.754 11.3382 15.7635 11.2625 15.7769 11.2625C15.7911 11.2625 15.7998 11.1403 15.7998 10.9416C15.7998 10.743 15.8085 10.6208 15.8227 10.6208C15.8373 10.6208 15.8456 10.4375 15.8456 10.1166C15.8456 9.79581 15.854 9.61248 15.8686 9.61248C15.8812 9.61248 15.8915 9.56091 15.8915 9.49789C15.8915 9.43487 15.8812 9.38331 15.8686 9.38331C15.8558 9.38331 15.8456 9.32219 15.8456 9.24581C15.8456 9.16943 15.8355 9.10831 15.8227 9.10831C15.8101 9.10831 15.7998 9.06706 15.7998 9.01664C15.7998 8.96623 15.7895 8.92498 15.7769 8.92498ZM7.84772 9.56664C7.83512 9.56664 7.8248 9.54602 7.8248 9.52081C7.8248 9.43615 7.71061 9.46602 7.60137 9.57922L7.50397 9.68015V10.288C7.50397 10.6779 7.51218 10.8958 7.52689 10.8958C7.53949 10.8958 7.5498 10.9164 7.5498 10.9416C7.5498 10.9722 7.56509 10.9875 7.59564 10.9875C7.62085 10.9875 7.64147 10.9978 7.64147 11.0104C7.64147 11.023 7.6621 11.0333 7.6873 11.0333C7.71251 11.0333 7.73314 11.023 7.73314 11.0104C7.73314 10.9978 7.74934 10.9875 7.76914 10.9875C7.81545 10.9875 7.87064 10.9323 7.87064 10.886C7.87064 10.8662 7.88095 10.85 7.89355 10.85C7.90813 10.85 7.91647 10.6666 7.91647 10.3458C7.91647 10.025 7.90813 9.84164 7.89355 9.84164C7.88081 9.84164 7.87064 9.78052 7.87064 9.70414C7.87064 9.62776 7.86046 9.56664 7.84772 9.56664Z" fill="url(#paint2_linear_3986_53197)"/>
<path d="M16.3955 6.70205C16.3955 6.71466 16.3668 6.72497 16.3318 6.72497C16.2944 6.72497 16.2545 6.7439 16.2351 6.7708C16.2169 6.79601 16.1837 6.81664 16.1613 6.81664C16.1358 6.81664 16.1205 6.8338 16.1205 6.86247C16.1205 6.88823 16.1052 6.9083 16.0856 6.9083C16.0403 6.9083 15.7997 7.14888 15.7997 7.19426C15.7997 7.21344 15.7894 7.22914 15.7768 7.22914C15.7642 7.22914 15.7538 7.24976 15.7538 7.27497C15.7538 7.30018 15.7435 7.3208 15.7309 7.3208C15.7183 7.3208 15.708 7.36205 15.708 7.41247C15.708 7.46289 15.7183 7.50414 15.7309 7.50414C15.7435 7.50414 15.7538 7.52476 15.7538 7.54997C15.7538 7.57518 15.7642 7.5958 15.7768 7.5958C15.7894 7.5958 15.7997 7.61228 15.7997 7.63245C15.7997 7.65259 15.8306 7.69799 15.8684 7.7333C15.9062 7.76862 15.9372 7.80966 15.9372 7.82451C15.9372 7.83934 15.9784 7.89111 16.0288 7.93955C16.0793 7.988 16.1205 8.03949 16.1205 8.05398C16.1205 8.09202 16.18 8.1458 16.222 8.1458C16.2418 8.1458 16.258 8.15612 16.258 8.16872C16.258 8.18133 16.3096 8.19164 16.3726 8.19164C16.4356 8.19164 16.4872 8.18133 16.4872 8.16872C16.4872 8.15612 16.5031 8.1458 16.5226 8.1458C16.5659 8.1458 16.6705 8.04477 16.6705 8.00294C16.6705 7.98626 16.6911 7.95773 16.7163 7.93955C16.7415 7.92138 16.7622 7.8923 16.7622 7.87493C16.7622 7.85758 16.7931 7.81445 16.8309 7.77914C16.8687 7.74382 16.8997 7.70069 16.8997 7.68335C16.8997 7.66598 16.9203 7.63689 16.9455 7.61872C16.9707 7.60055 16.9913 7.56734 16.9913 7.54491C16.9913 7.52249 17.0017 7.50414 17.0143 7.50414C17.0269 7.50414 17.0372 7.46289 17.0372 7.41247C17.0372 7.36205 17.0269 7.3208 17.0143 7.3208C17.0017 7.3208 16.9913 7.30245 16.9913 7.28004C16.9913 7.2576 16.9707 7.22439 16.9455 7.20622C16.9203 7.18805 16.8997 7.15943 16.8997 7.1426C16.8997 7.12578 16.8378 7.05128 16.7622 6.97705C16.6865 6.90283 16.6247 6.82606 16.6247 6.80644C16.6247 6.78609 16.605 6.7708 16.5788 6.7708C16.5536 6.7708 16.533 6.76049 16.533 6.74789C16.533 6.73528 16.5124 6.72497 16.4872 6.72497C16.462 6.72497 16.4413 6.71466 16.4413 6.70205C16.4413 6.68945 16.431 6.67914 16.4184 6.67914C16.4058 6.67914 16.3955 6.68945 16.3955 6.70205Z" fill="url(#paint3_radial_3986_53197)"/>
<defs>
<linearGradient id="paint0_linear_3986_53197" x1="10" y1="0" x2="10" y2="20" gradientUnits="userSpaceOnUse">
<stop stop-color="#FF730D"/>
<stop offset="0.127863" stop-color="#ED9C0B"/>
<stop offset="0.465704" stop-color="#E96F00"/>
<stop offset="0.836776" stop-color="#F39F06"/>
<stop offset="1" stop-color="#FD7414"/>
</linearGradient>
<linearGradient id="paint1_linear_3986_53197" x1="9.97897" y1="5.625" x2="9.97897" y2="13.05" gradientUnits="userSpaceOnUse">
<stop stop-color="#693504"/>
<stop offset="1" stop-color="#CA6807"/>
</linearGradient>
<linearGradient id="paint2_linear_3986_53197" x1="9.97897" y1="5.34998" x2="9.97897" y2="12.775" gradientUnits="userSpaceOnUse">
<stop stop-color="#FEF581"/>
<stop offset="0.176001" stop-color="#F6CA0D"/>
<stop offset="0.573947" stop-color="#913000"/>
<stop offset="0.840496" stop-color="#C65300"/>
<stop offset="1" stop-color="#A63200"/>
</linearGradient>
<radialGradient id="paint3_radial_3986_53197" cx="0" cy="0" r="1" gradientUnits="userSpaceOnUse" gradientTransform="translate(16.0747 7.20622) rotate(65.6063) scale(1.08201 2.31096)">
<stop stop-color="#FFFCEA"/>
<stop offset="0.078125" stop-color="#6DFAFF"/>
<stop offset="1" stop-color="#07246B"/>
</radialGradient>
</defs>
</svg>
