<svg width="20" height="20" viewBox="0 0 20 20" fill="none" xmlns="http://www.w3.org/2000/svg">
<circle cx="10" cy="10" r="10" fill="url(#paint0_linear_4017_53509)"/>
<mask id="mask0_4017_53509" style="mask-type:alpha" maskUnits="userSpaceOnUse" x="0" y="0" width="20" height="20">
<circle cx="10" cy="10" r="10" fill="#D9D9D9"/>
</mask>
<g mask="url(#mask0_4017_53509)">
<path d="M10.823 4.32175C6.72911 2.89693 4.00928 5.07663 4.00928 5.07663L4.00613 5.07977C4.35201 5.03888 4.70417 5.02001 5.06262 5.02001C9.61244 5.02001 13.2944 8.3446 13.2944 12.4492C13.2944 16.5539 9.59043 20.3094 5.06262 19.8722C4.36773 19.8061 3.73572 19.674 3.15088 19.501C4.63814 20.4729 7.68183 21.9638 11.3418 21.08L11.345 21.1051C14.6748 19.6017 16.967 16.4564 16.967 12.8235C16.9638 9.00512 14.4295 5.72771 10.823 4.32175Z" fill="#7FB1E9"/>
<path d="M15.5077 8.09298C15.5077 8.09298 16.9949 10.5558 15.9384 13.6193C14.882 16.6828 11.3603 17.3653 11.3603 17.3653C11.3603 17.3653 10.4485 18.2869 9.53662 18.8153C9.53662 18.8153 11.9263 19.1519 13.0803 18.4536C14.2311 17.7554 15.9887 16.0569 15.9887 16.0569L16.7465 14.0911L16.9603 12.5656C16.9603 12.5656 16.6491 10.2727 16.4478 9.76943C16.2371 9.27562 15.5077 8.09298 15.5077 8.09298Z" fill="#91C1F4"/>
<path d="M5.75722 5.04203C5.75722 5.04203 8.72231 3.46623 12.9263 5.4289C12.9263 5.4289 10.7221 3.6864 7.99911 3.76503C5.27928 3.84367 4.11274 4.89106 3.97754 5.0955C3.97754 5.0955 4.58754 4.96969 5.75722 5.04203Z" fill="#91C1F4"/>
<path d="M15.9009 18.029C18.0045 15.0504 17.6523 10.9898 15.3412 7.83192C17.0329 10.345 17.2184 13.5155 15.5582 15.8713C13.3194 19.0324 8.59355 19.5325 4.9996 16.9879C1.40565 14.4434 0.301996 9.8229 2.53446 6.65872C4.73548 3.54486 9.34818 3.01016 12.9264 5.42575C12.8698 5.38487 12.8164 5.34712 12.7629 5.30623C8.29484 2.14834 2.45899 2.72079 -0.276557 6.58323C-3.01211 10.4457 -1.60031 16.1418 2.86461 19.3029C5.51841 21.1806 8.65643 21.7405 11.3417 21.0737C13.1717 20.6239 14.7941 19.5954 15.9009 18.029Z" fill="#70A2E7"/>
<path d="M11.7913 5.44462C9.25699 4.56079 7.5685 5.91327 7.5685 5.91327C7.78546 5.88811 8.00241 5.87553 8.22251 5.87553C11.0398 5.87553 13.3257 7.93571 13.3257 10.4771C13.3257 13.0185 11.0241 15.3461 8.22251 15.0756C7.79489 15.0315 7.40185 14.9529 7.03711 14.8428C7.95839 15.4436 9.84184 16.3714 12.112 15.821V15.8367C14.1747 14.9057 15.5928 12.9588 15.5928 10.7067C15.5959 8.3446 14.0269 6.31587 11.7913 5.44462Z" fill="black"/>
<path d="M14.693 7.78159C14.693 7.78159 15.6143 9.31021 14.9603 11.2037C14.3063 13.0972 12.1241 13.5281 12.1241 13.5281C12.1241 13.5281 11.5613 14.0974 10.9922 14.4276C10.9922 14.4276 12.47 14.6352 13.1869 14.2043C13.9007 13.7734 14.9886 12.7197 14.9886 12.7197L15.4603 11.5025L15.5892 10.5589C15.5892 10.5589 15.3974 9.13722 15.2685 8.82584C15.1458 8.51131 14.693 7.78159 14.693 7.78159Z" fill="#B7F0F5"/>
<path d="M8.65297 5.89126C8.65297 5.89126 10.4924 4.91622 13.0927 6.13031C13.0927 6.13031 11.725 5.05146 10.0428 5.10179C8.36055 5.15211 7.63421 5.80005 7.54932 5.92586C7.54932 5.92272 7.92663 5.84723 8.65297 5.89126Z" fill="#B7F0F5"/>
<path d="M14.9385 13.937C16.2434 12.0938 16.0233 9.57756 14.5895 7.62118C15.6366 9.17811 15.756 11.1408 14.7216 12.6002C13.3349 14.5597 10.4107 14.8711 8.1814 13.2922C5.95209 11.7132 5.27291 8.851 6.65641 6.89461C8.02104 4.96654 10.8792 4.63628 13.0928 6.1303C13.0582 6.10514 13.0236 6.07998 12.9891 6.05482C10.2189 4.09529 6.6061 4.45071 4.91132 6.84429C3.21653 9.23787 4.09065 12.7669 6.86079 14.7264C8.50527 15.8902 10.4485 16.2362 12.1118 15.8241C13.2469 15.5442 14.2499 14.9089 14.9385 13.937Z" fill="#020001"/>
</g>
<defs>
<linearGradient id="paint0_linear_4017_53509" x1="16.3672" y1="2.30469" x2="1.99219" y2="15.8594" gradientUnits="userSpaceOnUse">
<stop stop-color="#C0E1FA"/>
<stop offset="0.977861" stop-color="#7BA2E0"/>
</linearGradient>
</defs>
</svg>
