<svg width="20" height="20" viewBox="0 0 20 20" fill="none" xmlns="http://www.w3.org/2000/svg">
<circle cx="10" cy="10" r="10" fill="url(#paint0_linear_2005_2083)"/>
<circle cx="10" cy="10" r="9.375" fill="black"/>
<path d="M8.66541 12.6355L7.41254 14.8814L7.34619 15H9.99996L8.67308 12.6219L8.66541 12.6355Z" fill="white"/>
<path d="M6.06976 11.2974L6.01934 11.1518L5.95536 11.3371L5 14.1083C5.18139 14.3813 5.43354 14.6064 5.73272 14.7624C6.03191 14.9183 6.36829 15 6.71021 14.9997H7.34711L7.31763 14.9122L6.06976 11.2974Z" fill="white"/>
<path d="M11.3346 12.6355L11.3269 12.6216L10 14.9997H12.6538L12.5874 14.8811L11.3346 12.6355Z" fill="white"/>
<path d="M13.9803 11.1518L13.9299 11.2974L12.6835 14.9122L12.6541 14.9997H13.291C13.6329 15 13.9693 14.9183 14.2684 14.7624C14.5676 14.6064 14.8198 14.3813 15.0012 14.1083L14.0455 11.3368L13.9803 11.1518Z" fill="white"/>
<path d="M8.66541 7.36451L8.67308 7.3784L9.99996 5H7.34619L7.41254 5.11861L8.66541 7.36451Z" fill="white"/>
<path d="M11.3346 7.36451L12.5874 5.11861L12.6538 5H10L11.3269 7.37812L11.3346 7.36451Z" fill="white"/>
<path d="M6.01934 8.84789L6.06976 8.70233L7.31615 5.0875L7.34623 5H6.71021C6.36829 4.99971 6.03191 5.08138 5.73272 5.23733C5.43354 5.39327 5.18139 5.61836 5 5.89141L5.95565 8.66288L6.01934 8.84789Z" fill="white"/>
<path d="M13.9298 8.70233L13.9802 8.84788L14.0442 8.6626L14.9998 5.89114C14.8185 5.61821 14.5664 5.39323 14.2673 5.23734C13.9683 5.08145 13.632 4.99978 13.2902 5H12.6533L12.6828 5.0875L13.9298 8.70233Z" fill="white"/>
<defs>
<linearGradient id="paint0_linear_2005_2083" x1="15.9375" y1="2.03125" x2="2.96875" y2="17.5" gradientUnits="userSpaceOnUse">
<stop stop-color="#FF6B00"/>
<stop offset="1" stop-color="#FFCC00"/>
</linearGradient>
</defs>
</svg>
