<svg width="20" height="20" viewBox="0 0 20 20" fill="none" xmlns="http://www.w3.org/2000/svg">
<path d="M10 20C15.5228 20 20 15.5228 20 10C20 4.47715 15.5228 0 10 0C4.47715 0 0 4.47715 0 10C0 15.5228 4.47715 20 10 20Z" fill="white"/>
<path d="M12.3425 8.03205V4.09613H17.028L12.3425 8.03205Z" fill="#BC5223"/>
<path d="M7.65723 8.03205V4.09613H12.3427L7.65723 8.03205Z" fill="#2F5F83"/>
<path d="M7.65723 4.09612V8.03204H2.97171L7.65723 4.09612Z" fill="#2F5F83"/>
<path d="M7.65723 8.03204V11.968H2.97171L7.65723 8.03204Z" fill="#497EA8"/>
<path d="M7.65723 11.968V15.9039H2.97171L7.65723 11.968Z" fill="#8EB2C8"/>
<path d="M12.3428 11.968V15.9039H7.65726L12.3428 11.968Z" fill="#ECA981"/>
<path d="M12.3428 8.03204V11.968H7.65726L12.3428 8.03204Z" fill="#E67036"/>
<path d="M12.3428 4.09612V8.03204H7.65726L12.3428 4.09612Z" fill="#D25C28"/>
<path d="M17.0283 8.03204V11.968H12.3428L17.0283 8.03204Z" fill="#EB8C56"/>
<path d="M2.97168 11.968V8.03204H7.6572L2.97168 11.968Z" fill="#3971A1"/>
<path d="M12.3425 11.968V8.03204H17.028L12.3425 11.968Z" fill="#E97E43"/>
<path d="M12.3425 15.9039V11.968H17.028L12.3425 15.9039Z" fill="#ED9A65"/>
<path d="M7.65723 11.968V8.03204H12.3427L7.65723 11.968Z" fill="#588CB0"/>
<path d="M7.65723 15.9039V11.968H12.3427L7.65723 15.9039Z" fill="#7CA5C1"/>
</svg>
