<svg width="20" height="20" viewBox="0 0 20 20" fill="none" xmlns="http://www.w3.org/2000/svg">
<path d="M1.22388 11.1469C1.22388 15.986 5.16094 19.9231 10.0001 19.9231C14.8393 19.9231 18.7763 15.986 18.7763 11.1469C18.7763 6.40561 13.0281 0.433579 12.7833 0.181831C12.6435 0.0349776 12.4127 0.0349776 12.2658 0.174838C12.119 0.314698 12.119 0.545467 12.2588 0.69232C12.2728 0.706306 13.7344 2.2168 15.1749 4.26575C17.056 6.94407 18.0491 9.32169 18.0491 11.1469C18.0491 15.5874 14.4407 19.1958 10.0001 19.1958C5.55954 19.1958 1.95115 15.5804 1.95115 11.1469C1.95115 9.32169 2.93716 6.94407 4.8043 4.26575C6.23087 2.2168 7.67842 0.706306 7.69241 0.69232C7.83227 0.545467 7.83227 0.314698 7.68542 0.174838C7.53856 0.0349776 7.30779 0.0349776 7.16793 0.181831C7.105 0.244768 5.67143 1.74127 4.20989 3.83917C2.23087 6.68533 1.22388 9.14687 1.22388 11.1469Z" fill="url(#paint0_linear_758_5)"/>
<path d="M10.0001 18.1749C6.02105 18.1749 2.79028 14.9371 2.79028 10.9651C2.79028 7.07695 8.21686 1.65038 8.44763 1.4266C8.58749 1.28674 8.82525 1.28674 8.96511 1.4266C9.10497 1.56646 9.10497 1.80422 8.96511 1.94408C8.90916 2.00003 3.52455 7.38464 3.52455 10.9651C3.52455 14.5385 6.43364 17.4476 10.0071 17.4476C13.5805 17.4476 16.4896 14.5385 16.4896 10.9651C16.4896 9.49653 15.5385 7.46856 13.7343 5.08394C12.3614 3.27411 10.9815 1.89746 10.9448 1.86081C10.7979 1.72095 10.7973 1.48954 10.9441 1.34268C11.084 1.19583 11.3148 1.19583 11.4616 1.34268C11.6994 1.57345 17.2238 7.06996 17.2238 10.9651C17.2099 14.9371 13.9791 18.1749 10.0001 18.1749Z" fill="url(#paint1_linear_758_5)"/>
<path fill-rule="evenodd" clip-rule="evenodd" d="M10.0001 16.4266C6.98613 16.4266 4.53857 13.979 4.53857 10.965C4.53857 8.03494 9.48263 2.86012 9.69242 2.64333L9.95116 2.37061L10.2169 2.63634C10.4337 2.85312 15.4617 8.02795 15.4617 10.958C15.4617 13.979 13.0141 16.4266 10.0001 16.4266ZM9.95815 3.42655C9.52459 3.89508 8.6155 4.90907 7.7134 6.09788C6.112 8.20977 5.26585 9.88809 5.26585 10.958C5.26585 13.5664 7.39172 15.6923 10.0001 15.6923C12.6085 15.6923 14.7344 13.5664 14.7344 10.958C14.7344 9.88809 13.8742 8.20977 12.2449 6.09788C11.3288 4.91606 10.3987 3.89508 9.95815 3.42655Z" fill="url(#paint2_linear_758_5)"/>
<defs>
<linearGradient id="paint0_linear_758_5" x1="10.0001" y1="19.9212" x2="10.0001" y2="0.0698802" gradientUnits="userSpaceOnUse">
<stop stop-color="#05AAC5"/>
<stop offset="1" stop-color="#71E0EC"/>
</linearGradient>
<linearGradient id="paint1_linear_758_5" x1="10.0001" y1="19.9212" x2="10.0001" y2="0.0698802" gradientUnits="userSpaceOnUse">
<stop stop-color="#05AAC5"/>
<stop offset="1" stop-color="#71E0EC"/>
</linearGradient>
<linearGradient id="paint2_linear_758_5" x1="10.0001" y1="19.9212" x2="10.0001" y2="0.0698802" gradientUnits="userSpaceOnUse">
<stop stop-color="#05AAC5"/>
<stop offset="1" stop-color="#71E0EC"/>
</linearGradient>
</defs>
</svg>
