<svg width="20" height="20" viewBox="0 0 20 20" fill="none" xmlns="http://www.w3.org/2000/svg">
<path fill-rule="evenodd" clip-rule="evenodd" d="M5.71479 16.8737H2.36402L2.36379 16.925L2.35059 20L7.17559 19.998L12.0006 19.9961L12.8263 19.7049C13.9731 19.3004 14.7728 18.7891 15.6595 17.8935C16.9782 16.5614 17.6452 14.8921 17.6489 12.9144L17.6488 12.8676C17.6395 10.9947 16.8613 9.21594 15.4477 7.839L14.7006 7.2911L14.2302 6.9982C13.2472 6.3862 11.6006 5.9 10.5107 5.9C10.0162 5.9 9.28879 6.2447 9.02879 6.6023C8.63669 7.1417 8.67789 8.0794 9.11649 8.6007C9.44639 8.9927 9.83419 9.1511 10.6734 9.2366C11.7233 9.3435 12.4003 9.6523 13.1087 10.3472C14.0807 11.3007 14.4826 12.4611 14.2502 13.6425C14.0304 14.7599 13.4782 15.5929 12.574 16.1713C11.6139 16.7855 11.3741 16.8262 8.43979 16.8737H5.71479Z" fill="#6059F3"/>
<path d="M2.70932 9.41176C2.43406 8.64287 2.4039 8.48723 2.40758 7.35645L2.36426 16.8737H5.71502V13.1474C4.35388 12.2887 3.26327 10.959 2.70932 9.41176Z" fill="url(#paint0_linear_4109_54324)"/>
<path fill-rule="evenodd" clip-rule="evenodd" d="M3.21754 3.783C4.23934 1.8332 6.41864 0.3838 8.80074 0.0695C8.96574 0.0478 11.0244 0.0232 13.3757 0.015L17.6507 0L17.6362 3.4281H14.7061C14.6458 3.2709 9.94484 3.2448 9.01864 3.3965C7.75104 3.6041 6.73474 4.3213 6.14434 5.4248C5.85134 5.9724 5.80494 6.1618 5.77074 6.95C5.72434 8.0211 5.93534 8.7095 6.54724 9.4837C7.24844 10.3708 8.13814 10.8137 9.56484 10.9857C10.7217 11.1253 11.2507 11.6318 11.2507 12.6C11.2507 13.3979 10.8147 13.9633 10.0335 14.1784C9.59844 14.2983 8.28914 14.1742 7.45674 13.9343C6.84433 13.7577 6.2581 13.4901 5.71494 13.1474C4.35379 12.2887 3.26319 10.959 2.70924 9.4118C2.43397 8.64291 2.40381 8.48726 2.4075 7.35648L2.40844 7.15C2.41704 5.5942 2.54284 5.0705 3.21754 3.783Z" fill="#6059F3"/>
<path d="M14.7056 3.4281C14.7327 3.4985 14.7425 4.3965 14.7275 5.4236L14.7002 7.2911L15.4473 7.839C16.8609 9.21594 17.6391 10.9947 17.6484 12.8676L17.6342 3.775L17.6357 3.4281H14.7056Z" fill="url(#paint1_linear_4109_54324)"/>
<defs>
<linearGradient id="paint0_linear_4109_54324" x1="4.03964" y1="7.35645" x2="4.03964" y2="16.8737" gradientUnits="userSpaceOnUse">
<stop stop-color="#6059F3" stop-opacity="0"/>
<stop offset="1" stop-color="#6059F3"/>
</linearGradient>
<linearGradient id="paint1_linear_4109_54324" x1="16.1743" y1="3.4281" x2="16.1743" y2="12.8676" gradientUnits="userSpaceOnUse">
<stop stop-color="#6059F3"/>
<stop offset="1" stop-color="#6059F3" stop-opacity="0"/>
</linearGradient>
</defs>
</svg>
