<svg width="20" height="20" viewBox="0 0 20 20" fill="none" xmlns="http://www.w3.org/2000/svg">
<path d="M7.10227 15.5745L9.5278 12.5957C9.78312 12.2979 10.2512 12.2979 10.5065 12.5957L12.9321 15.5745C13.1023 15.7872 13.1023 16.1277 12.9321 16.383L10.5065 19.3617C10.2512 19.6596 9.78312 19.6596 9.5278 19.3617L7.10227 16.383C6.93206 16.1277 6.93206 15.7872 7.10227 15.5745Z" fill="#72C7FB"/>
<path d="M16.6342 8.29787L14.2087 5.31914C13.9534 5.02127 13.4853 5.02127 13.23 5.31914L10.8044 8.29787C10.6342 8.51063 10.6342 8.85106 10.8044 9.10638L13.23 12.0851C13.4853 12.383 13.9534 12.383 14.2087 12.0851L16.6342 9.10638C16.8044 8.89361 16.8044 8.55318 16.6342 8.29787ZM6.7619 5.31914C6.50658 5.02127 6.03849 5.02127 5.78317 5.31914L3.35764 8.29787C3.18743 8.51063 3.18743 8.85106 3.35764 9.10638L5.78317 12.0851C6.03849 12.383 6.50658 12.383 6.7619 12.0851L9.18743 9.10638C9.35764 8.89361 9.35764 8.55318 9.18743 8.29787L6.7619 5.31914ZM12.9321 3.61701L10.5066 0.638291C10.2513 0.340418 9.78317 0.340418 9.52785 0.638291L7.10232 3.61701C6.93211 3.82978 6.93211 4.17021 7.10232 4.42552L9.52785 7.40425C9.78317 7.70212 10.2513 7.70212 10.5066 7.40425L12.9321 4.42552C13.1023 4.21276 13.1023 3.87233 12.9321 3.61701Z" fill="#1BA5F8"/>
</svg>
