<svg width="20" height="20" viewBox="0 0 20 20" fill="none" xmlns="http://www.w3.org/2000/svg">
<g clip-path="url(#clip0_524_53)">
<path d="M18.4956 14.1971C18.4803 13.5704 18.22 13.1036 17.7176 12.7889C17.6251 12.731 17.5927 12.672 17.5929 12.5615C17.596 10.8522 17.596 9.14272 17.5934 7.43399C17.5932 7.33123 17.6182 7.26931 17.7084 7.21486C18.2897 6.86414 18.5837 6.21663 18.4793 5.53656C18.3791 4.88451 17.8803 4.34883 17.2343 4.22044C16.8599 4.14598 16.4969 4.20523 16.1684 4.41582C16.0685 4.47988 15.9978 4.46867 15.904 4.41182C14.4977 3.56066 13.09 2.71163 11.6808 1.86581C11.5845 1.80815 11.5482 1.7441 11.5482 1.62693C11.5498 0.804323 10.9423 0.0887493 10.1835 0.00894457C9.3753 -0.0761983 8.66086 0.454144 8.48615 1.27408C8.45933 1.40006 8.45039 1.53164 8.44758 1.66082C8.44554 1.7481 8.42229 1.80175 8.34796 1.84685C6.9191 2.70576 5.49151 3.56653 4.06443 4.4289C3.98704 4.47587 3.9265 4.47614 3.84859 4.42703C2.91628 3.84064 1.72752 4.40274 1.52982 5.49866C1.40491 6.19074 1.67465 6.83825 2.26749 7.20258C2.36124 7.26023 2.40338 7.31868 2.40338 7.43826C2.39904 9.14752 2.39981 10.8568 2.40236 12.566C2.40236 12.6688 2.37682 12.7294 2.28691 12.7841C1.6915 13.145 1.41155 13.7725 1.52599 14.4774C1.6394 15.1774 2.15766 15.691 2.83199 15.7913C3.19342 15.845 3.54183 15.7764 3.85473 15.5677C3.92727 15.5191 3.98142 15.5207 4.05524 15.5653C5.47823 16.4258 6.90198 17.2836 8.32727 18.1396C8.41335 18.1913 8.44707 18.2509 8.44732 18.3568C8.44988 19.2982 9.1615 20.0188 10.0637 19.9999C10.7666 19.9852 11.4243 19.3788 11.5245 18.6536C11.5337 18.5869 11.548 18.5461 11.548 18.4542C11.548 18.2533 11.6187 18.1679 11.7687 18.0787C13.1513 17.2518 14.5303 16.4186 15.9084 15.5839C16.0029 15.5266 16.0719 15.5242 16.1705 15.5826C17.1066 16.1404 18.2415 15.6058 18.4693 14.5019C18.49 14.3992 18.488 14.2911 18.4956 14.1971ZM6.29253 8.33319C6.27848 8.32065 6.26878 8.3097 6.25703 8.30303C5.48129 7.83461 4.70607 7.36539 3.92778 6.90231C3.88487 6.87695 3.80108 6.88229 3.75741 6.90978C3.55153 7.03977 3.33263 7.12598 3.09278 7.13265C2.29508 7.154 1.80977 6.47286 1.78269 5.8814C1.75102 5.18851 2.25293 4.47881 3.06417 4.48522C3.7758 4.49055 4.31731 5.08682 4.31015 5.83069C4.30888 5.96361 4.34642 6.03887 4.45805 6.10507C5.28461 6.59697 6.10811 7.09475 6.93085 7.59386C7.01029 7.64244 7.0744 7.65018 7.16073 7.60774C7.67363 7.35578 8.20416 7.31308 8.75129 7.47456C8.80569 7.49057 8.87772 7.47429 8.93213 7.45C9.09305 7.37847 9.24656 7.28772 9.40825 7.21966C9.50046 7.18069 9.53162 7.12785 9.53162 7.02562C9.52881 5.67828 9.52881 4.33121 9.53136 2.98387C9.53136 2.88885 9.50275 2.83494 9.41974 2.7933C8.98526 2.57471 8.65754 2.00994 8.74694 1.40593C8.8509 0.704501 9.54081 0.174424 10.2062 0.310546C10.7927 0.430387 11.1779 0.848628 11.2604 1.49214C11.3163 1.92853 11.1153 2.50504 10.5781 2.79357C10.5053 2.83254 10.4652 2.87498 10.4655 2.96866C10.468 4.2773 10.4683 5.58593 10.4655 6.8943C10.4655 7.01068 10.5165 7.03443 10.6139 7.05258C10.8713 7.09982 11.1291 7.15187 11.3807 7.22553C11.4943 7.25863 11.5845 7.2637 11.6946 7.21406C12.2458 6.9661 12.7827 7.00854 13.2964 7.3323C13.3697 7.37847 13.4223 7.38034 13.4959 7.3355C14.1743 6.92286 14.8537 6.51183 15.5362 6.10667C15.6466 6.04128 15.6892 5.96921 15.6859 5.83362C15.6662 5.05079 16.3196 4.41102 17.0816 4.49589C17.8295 4.5789 18.3592 5.33131 18.1858 6.09199C17.9779 7.00347 17.0328 7.41477 16.2696 6.92206C16.1891 6.87028 16.1309 6.85614 16.0453 6.90845C15.3993 7.30294 14.7518 7.69422 14.1017 8.08123C14.0057 8.13835 13.9929 8.1912 14.0233 8.29876C14.2195 8.98898 14.0862 9.60313 13.6131 10.1319C13.5206 10.2352 13.0869 10.959 13.0264 11.0925C12.9786 11.1979 12.9988 11.2545 13.0951 11.3121C14.0808 11.902 15.065 12.4948 16.0476 13.0902C16.1268 13.138 16.1804 13.1391 16.2581 13.0844C16.535 12.8901 16.8453 12.8287 17.1712 12.8882C17.8052 13.0043 18.2647 13.6038 18.2083 14.3113C18.147 15.079 17.4261 15.6531 16.7063 15.4865C16.0747 15.3403 15.678 14.8243 15.6851 14.1464C15.6862 14.0308 15.6555 13.9649 15.5569 13.9059C14.5587 13.3091 13.5633 12.7086 12.5694 12.104C12.4798 12.0496 12.4307 12.0608 12.3587 12.1334C11.8902 12.6047 11.327 12.8695 10.6841 12.9533C10.4673 12.9819 10.467 12.9806 10.467 13.2146C10.467 14.4411 10.4698 15.6675 10.4634 16.8939C10.4627 17.065 10.501 17.1643 10.6542 17.2564C11.2047 17.5868 11.4139 18.2981 11.162 18.9045C10.9081 19.5163 10.2593 19.8432 9.65116 19.6495C9.09739 19.4733 8.78883 19.0644 8.73443 18.4697C8.69254 18.0107 8.90045 17.5006 9.40186 17.2145C9.47874 17.1704 9.53264 17.132 9.53213 17.0215C9.52779 15.6694 9.5283 14.3175 9.53162 12.9653C9.53187 12.858 9.48513 12.8217 9.40135 12.7777C9.15103 12.6459 8.88257 12.5305 8.67006 12.3469C8.42485 12.1355 8.19573 12.0133 7.85448 12.0133C7.82127 12.0144 7.79981 12.0109 7.76508 12.0117C7.68053 12.0136 7.58551 12.0173 7.51629 12.0587C6.50939 12.6587 5.50811 13.2685 4.49994 13.8664C4.35588 13.9518 4.2864 14.0431 4.31041 14.2166C4.32012 14.2857 4.29968 14.3597 4.28895 14.4309C4.19061 15.0787 3.58423 15.6205 2.85217 15.4948C2.13416 15.3715 1.67848 14.6925 1.79674 13.9657C1.94795 13.0377 2.96149 12.5676 3.72599 13.0753C3.81232 13.1327 3.87184 13.1372 3.96022 13.0833C4.71807 12.6216 5.47899 12.1652 6.23889 11.7069C6.36916 11.6284 6.49892 11.5491 6.62842 11.4707C5.75537 10.505 5.65754 9.46674 6.29253 8.33319Z" fill="#4293FF"/>
<path d="M8.39235 11.4564C8.5921 11.438 8.69146 11.5082 8.83756 11.6499C9.4677 12.2619 10.2113 12.4514 11.0276 12.168C11.8302 11.8893 12.3277 11.2936 12.4927 10.4192C12.5249 10.2478 12.5893 10.1451 12.7359 10.0578C13.1543 9.80879 13.3954 9.2699 13.3127 8.82123C13.2054 8.24018 12.8406 7.83715 12.3252 7.75174C12.0506 7.7061 11.7778 7.73867 11.5362 7.89427C11.4279 7.96393 11.342 7.95646 11.2302 7.90735C10.5121 7.59187 9.81713 7.64552 9.15634 8.07977C9.05468 8.1465 8.96988 8.15184 8.86004 8.1142C7.92901 7.79658 6.96068 8.34828 6.72416 9.31875C6.45289 10.4315 7.30219 11.5071 8.39235 11.4564Z" fill="#4293FF"/>
<path d="M16.5947 5.80549C16.5947 6.02301 16.7444 6.18129 16.9495 6.18075C17.1469 6.17995 17.3148 6.00967 17.3171 5.80815C17.3191 5.61412 17.1395 5.42675 16.9526 5.42648C16.7518 5.42621 16.5947 5.59276 16.5947 5.80549Z" fill="#4293FF"/>
<path d="M9.6373 18.3802C9.63807 18.591 9.79541 18.7536 9.99873 18.7539C10.2021 18.7539 10.3584 18.5918 10.3591 18.3802C10.3597 18.1773 10.1903 17.998 9.99924 18.0004C9.80538 18.0022 9.63679 18.1795 9.6373 18.3802Z" fill="#4293FF"/>
<path d="M3.4016 5.80385C3.40083 5.59166 3.24221 5.42457 3.04298 5.42617C2.85473 5.42804 2.68078 5.61141 2.68002 5.80945C2.67899 6.00723 2.85115 6.18045 3.04885 6.18045C3.2537 6.18072 3.40236 6.02164 3.4016 5.80385Z" fill="#4293FF"/>
<path d="M10.0026 1.98686C10.2056 1.98526 10.3599 1.82405 10.3591 1.61372C10.3579 1.40447 10.2013 1.24673 9.99541 1.24806C9.79133 1.24939 9.63526 1.41221 9.63756 1.6212C9.6396 1.82938 9.79873 1.98819 10.0026 1.98686Z" fill="#4293FF"/>
<path d="M3.05285 13.8204C2.84698 13.8185 2.68606 13.9752 2.67993 14.1831C2.6738 14.3857 2.83676 14.5557 3.03957 14.5587C3.25132 14.5619 3.3987 14.4145 3.40151 14.1962C3.40483 13.9771 3.26128 13.8223 3.05285 13.8204Z" fill="#4293FF"/>
<path d="M16.9449 13.8197C16.7367 13.8213 16.5926 13.9762 16.5947 14.1955C16.597 14.4131 16.7444 14.5612 16.9564 14.5585C17.1594 14.5556 17.3211 14.3872 17.3163 14.1835C17.3112 13.977 17.1492 13.8184 16.9449 13.8197Z" fill="#4293FF"/>
</g>
<defs>
<clipPath id="clip0_524_53">
<rect width="20" height="20" fill="white" transform="matrix(1 0 0 -1 0 20)"/>
</clipPath>
</defs>
</svg>
