<svg width="20" height="20" viewBox="0 0 20 20" fill="none" xmlns="http://www.w3.org/2000/svg">
<path d="M15.5355 1.05232C15.5355 1.09767 15.4559 1.10464 15.0164 1.10464C14.5768 1.10464 14.4972 1.11162 14.4972 1.15697C14.4972 1.20232 14.4176 1.20929 13.9781 1.20929C13.5386 1.20929 13.459 1.21627 13.459 1.26162C13.459 1.30697 13.3794 1.31395 12.9399 1.31395C12.5003 1.31395 12.4207 1.32092 12.4207 1.36627C12.4207 1.41162 12.3411 1.4186 11.9016 1.4186C11.4621 1.4186 11.3825 1.42557 11.3825 1.47092C11.3825 1.51627 11.3029 1.52325 10.8634 1.52325C10.4238 1.52325 10.3442 1.53023 10.3442 1.57557C10.3442 1.62092 10.2646 1.6279 9.82512 1.6279C9.3856 1.6279 9.306 1.63488 9.306 1.68023C9.306 1.72557 9.21948 1.73255 8.73496 1.73255C8.25044 1.73255 8.16392 1.73953 8.16392 1.78488C8.16392 1.83023 8.08432 1.8372 7.6448 1.8372C7.20527 1.8372 7.12567 1.84418 7.12567 1.88953C7.12567 1.93488 7.04607 1.94185 6.60655 1.94185C6.16702 1.94185 6.08742 1.94883 6.08742 1.99418C6.08742 2.03953 6.00782 2.0465 5.5683 2.0465C5.12877 2.0465 5.04917 2.05348 5.04917 2.09883C5.04917 2.14418 4.96957 2.15116 4.53005 2.15116C4.09052 2.15116 4.01092 2.15813 4.01092 2.20348C4.01092 2.24534 3.95209 2.25581 3.69945 2.25581C3.44681 2.25581 3.38797 2.26627 3.38797 2.30813C3.38797 2.3465 3.34644 2.36046 3.23224 2.36046C3.11803 2.36046 3.0765 2.37441 3.0765 2.41278C3.0765 2.44767 3.04189 2.46511 2.97267 2.46511C2.90346 2.46511 2.86885 2.48255 2.86885 2.51743C2.86885 2.54534 2.84462 2.56976 2.81694 2.56976C2.78925 2.56976 2.76502 2.59418 2.76502 2.62209C2.76502 2.65697 2.73042 2.67441 2.6612 2.67441C2.59198 2.67441 2.55737 2.69185 2.55737 2.72674C2.55737 2.75464 2.53315 2.77906 2.50546 2.77906C2.47778 2.77906 2.45355 2.80348 2.45355 2.83139C2.45355 2.85929 2.42932 2.88371 2.40164 2.88371C2.37395 2.88371 2.34972 2.90813 2.34972 2.93604C2.34972 2.97092 2.31512 2.98836 2.2459 2.98836C2.17668 2.98836 2.14207 3.00581 2.14207 3.04069C2.14207 3.0686 2.11785 3.09302 2.09016 3.09302C2.06248 3.09302 2.03825 3.11743 2.03825 3.14534C2.03825 3.17325 2.01402 3.19767 1.98634 3.19767C1.95865 3.19767 1.93442 3.22209 1.93442 3.24999C1.93442 3.2779 1.9102 3.30232 1.88251 3.30232C1.85483 3.30232 1.8306 3.32674 1.8306 3.35464C1.8306 3.38255 1.80637 3.40697 1.77869 3.40697C1.74408 3.40697 1.72677 3.44185 1.72677 3.51162C1.72677 3.58139 1.70947 3.61627 1.67486 3.61627C1.64718 3.61627 1.62295 3.64069 1.62295 3.6686C1.62295 3.6965 1.59872 3.72092 1.57104 3.72092C1.53643 3.72092 1.51912 3.75581 1.51912 3.82557C1.51912 3.89534 1.50182 3.93023 1.46721 3.93023C1.43953 3.93023 1.4153 3.95464 1.4153 3.98255C1.4153 4.01046 1.39107 4.03488 1.36339 4.03488C1.32878 4.03488 1.31147 4.06976 1.31147 4.13953C1.31147 4.20929 1.29417 4.24418 1.25956 4.24418C1.22149 4.24418 1.20765 4.28604 1.20765 4.40116C1.20765 4.51627 1.19381 4.55813 1.15574 4.55813C1.11767 4.55813 1.10382 4.59999 1.10382 4.71511C1.10382 4.83022 1.08998 4.87209 1.05191 4.87209C1.00692 4.87209 1 5.44069 1 9.79069C1 14.1407 1.00692 14.7093 1.05191 14.7093C1.08998 14.7093 1.10382 14.7512 1.10382 14.8663C1.10382 14.9814 1.11767 15.0232 1.15574 15.0232C1.19381 15.0232 1.20765 15.0651 1.20765 15.1802C1.20765 15.2953 1.22149 15.3372 1.25956 15.3372C1.29417 15.3372 1.31147 15.3721 1.31147 15.4419C1.31147 15.5116 1.32878 15.5465 1.36339 15.5465C1.398 15.5465 1.4153 15.5814 1.4153 15.6512C1.4153 15.7209 1.4326 15.7558 1.46721 15.7558C1.4949 15.7558 1.51912 15.7802 1.51912 15.8081C1.51912 15.836 1.54335 15.8605 1.57104 15.8605C1.60565 15.8605 1.62295 15.8953 1.62295 15.9651C1.62295 16.0349 1.64025 16.0698 1.67486 16.0698C1.70255 16.0698 1.72677 16.0942 1.72677 16.1221C1.72677 16.15 1.751 16.1744 1.77869 16.1744C1.80637 16.1744 1.8306 16.1988 1.8306 16.2267C1.8306 16.2546 1.85483 16.2791 1.88251 16.2791C1.9102 16.2791 1.93442 16.3035 1.93442 16.3314C1.93442 16.3593 1.95865 16.3837 1.98634 16.3837C2.01402 16.3837 2.03825 16.4081 2.03825 16.436C2.03825 16.4639 2.06248 16.4884 2.09016 16.4884C2.11785 16.4884 2.14207 16.5128 2.14207 16.5407C2.14207 16.5686 2.1663 16.593 2.19399 16.593C2.22167 16.593 2.2459 16.6174 2.2459 16.6453C2.2459 16.6732 2.27013 16.6977 2.29781 16.6977C2.3255 16.6977 2.34972 16.7221 2.34972 16.75C2.34972 16.7779 2.37395 16.8023 2.40164 16.8023C2.42932 16.8023 2.45355 16.8267 2.45355 16.8546C2.45355 16.8895 2.48816 16.907 2.55737 16.907C2.62659 16.907 2.6612 16.9244 2.6612 16.9593C2.6612 16.9942 2.69581 17.0116 2.76502 17.0116C2.83424 17.0116 2.86885 17.0291 2.86885 17.0639C2.86885 17.0988 2.90346 17.1163 2.97267 17.1163C3.04189 17.1163 3.0765 17.1337 3.0765 17.1686C3.0765 17.2105 3.12149 17.2209 3.28415 17.2209C3.44681 17.2209 3.4918 17.2314 3.4918 17.2732C3.4918 17.3186 3.60255 17.3256 4.27049 17.3256C4.93843 17.3256 5.04917 17.3325 5.04917 17.3779C5.04917 17.4232 5.44717 17.4302 8.42349 17.4302C11.3998 17.4302 11.7978 17.4372 11.7978 17.4825C11.7978 17.5279 12.085 17.5349 14.1858 17.5349C16.2865 17.5349 16.5737 17.5419 16.5737 17.5872C16.5737 17.6291 16.6257 17.6395 16.8333 17.6395C17.041 17.6395 17.0929 17.6291 17.0929 17.5872C17.0929 17.5593 17.1171 17.5349 17.1448 17.5349C17.1794 17.5349 17.1967 17.5 17.1967 17.4302V17.3256H16.7295C16.3384 17.3256 16.2623 17.3186 16.2623 17.2732C16.2623 17.2279 16.1758 17.2209 15.6912 17.2209C15.2067 17.2209 15.1202 17.2139 15.1202 17.1686C15.1202 17.1232 15.0406 17.1163 14.6011 17.1163C14.1615 17.1163 14.0819 17.1093 14.0819 17.0639C14.0819 17.0186 14.0058 17.0116 13.6147 17.0116C13.2237 17.0116 13.1475 17.0046 13.1475 16.9593C13.1475 16.9139 13.0679 16.907 12.6284 16.907C12.1889 16.907 12.1093 16.9 12.1093 16.8546C12.1093 16.8093 12.0297 16.8023 11.5901 16.8023C11.1506 16.8023 11.071 16.7953 11.071 16.75C11.071 16.7046 10.9914 16.6977 10.5519 16.6977C10.1124 16.6977 10.0328 16.6907 10.0328 16.6453C10.0328 16.6 9.95317 16.593 9.51365 16.593C9.07412 16.593 8.99452 16.586 8.99452 16.5407C8.99452 16.4953 8.91492 16.4884 8.4754 16.4884C8.03587 16.4884 7.95627 16.4814 7.95627 16.436C7.95627 16.3907 7.87667 16.3837 7.43715 16.3837C6.99762 16.3837 6.91802 16.3767 6.91802 16.3314C6.91802 16.286 6.83842 16.2791 6.3989 16.2791C5.95937 16.2791 5.87977 16.2721 5.87977 16.2267C5.87977 16.1814 5.80017 16.1744 5.36065 16.1744C4.92112 16.1744 4.84152 16.1674 4.84152 16.1221C4.84152 16.0767 4.76539 16.0698 4.37431 16.0698C3.98324 16.0698 3.9071 16.0628 3.9071 16.0174C3.9071 15.9756 3.86211 15.9651 3.69945 15.9651C3.53679 15.9651 3.4918 15.9546 3.4918 15.9128C3.4918 15.8779 3.45719 15.8605 3.38797 15.8605C3.31876 15.8605 3.28415 15.843 3.28415 15.8081C3.28415 15.7732 3.24954 15.7558 3.18032 15.7558C3.11111 15.7558 3.0765 15.7384 3.0765 15.7035C3.0765 15.6756 3.05227 15.6512 3.02459 15.6512C2.9969 15.6512 2.97267 15.6267 2.97267 15.5988C2.97267 15.5639 2.93807 15.5465 2.86885 15.5465C2.79963 15.5465 2.76502 15.5291 2.76502 15.4942C2.76502 15.4663 2.7408 15.4419 2.71311 15.4419C2.6785 15.4419 2.6612 15.407 2.6612 15.3372C2.6612 15.2674 2.6439 15.2325 2.60929 15.2325C2.5816 15.2325 2.55737 15.2081 2.55737 15.1802C2.55737 15.1523 2.53315 15.1279 2.50546 15.1279C2.47778 15.1279 2.45355 15.1035 2.45355 15.0756C2.45355 15.0477 2.42932 15.0232 2.40164 15.0232C2.36703 15.0232 2.34972 14.9884 2.34972 14.9186C2.34972 14.8488 2.33242 14.8139 2.29781 14.8139C2.25974 14.8139 2.2459 14.7721 2.2459 14.657C2.2459 14.5419 2.23206 14.5 2.19399 14.5C2.15246 14.5 2.14207 14.4477 2.14207 14.2384C2.14207 14.0291 2.13169 13.9767 2.09016 13.9767C2.04517 13.9767 2.03825 13.4884 2.03825 9.79069C2.03825 6.09302 2.04517 5.60464 2.09016 5.60464C2.13169 5.60464 2.14207 5.55232 2.14207 5.34302C2.14207 5.13371 2.15246 5.08139 2.19399 5.08139C2.23206 5.08139 2.2459 5.03953 2.2459 4.92441C2.2459 4.80929 2.25974 4.76743 2.29781 4.76743C2.33242 4.76743 2.34972 4.73255 2.34972 4.66278C2.34972 4.59302 2.36703 4.55813 2.40164 4.55813C2.42932 4.55813 2.45355 4.53371 2.45355 4.50581C2.45355 4.4779 2.47778 4.45348 2.50546 4.45348C2.53315 4.45348 2.55737 4.42906 2.55737 4.40116C2.55737 4.37325 2.5816 4.34883 2.60929 4.34883C2.63697 4.34883 2.6612 4.32441 2.6612 4.2965C2.6612 4.2686 2.68543 4.24418 2.71311 4.24418C2.7408 4.24418 2.76502 4.21976 2.76502 4.19185C2.76502 4.16395 2.78925 4.13953 2.81694 4.13953C2.84462 4.13953 2.86885 4.11511 2.86885 4.0872C2.86885 4.05929 2.89308 4.03488 2.92076 4.03488C2.94845 4.03488 2.97267 4.01046 2.97267 3.98255C2.97267 3.94767 3.00728 3.93023 3.0765 3.93023C3.14572 3.93023 3.18032 3.91278 3.18032 3.8779C3.18032 3.84302 3.21493 3.82557 3.28415 3.82557C3.35337 3.82557 3.38797 3.80813 3.38797 3.77325C3.38797 3.73139 3.43297 3.72092 3.59562 3.72092C3.75828 3.72092 3.80327 3.71046 3.80327 3.6686C3.80327 3.62674 3.86211 3.61627 4.11475 3.61627C4.36739 3.61627 4.42622 3.60581 4.42622 3.56395C4.42622 3.52209 4.47814 3.51162 4.68579 3.51162C4.89344 3.51162 4.94535 3.50116 4.94535 3.45929C4.94535 3.41743 4.99726 3.40697 5.20491 3.40697C5.41256 3.40697 5.46447 3.3965 5.46447 3.35464C5.46447 3.31278 5.52331 3.30232 5.77595 3.30232C6.02859 3.30232 6.08742 3.29185 6.08742 3.24999C6.08742 3.20813 6.14626 3.19767 6.3989 3.19767C6.65154 3.19767 6.71037 3.1872 6.71037 3.14534C6.71037 3.10348 6.76229 3.09302 6.96994 3.09302C7.17759 3.09302 7.2295 3.08255 7.2295 3.04069C7.2295 2.99883 7.27449 2.98836 7.43715 2.98836C7.59981 2.98836 7.6448 2.9779 7.6448 2.93604C7.6448 2.89418 7.68979 2.88371 7.85245 2.88371C8.01511 2.88371 8.0601 2.87325 8.0601 2.83139C8.0601 2.79302 8.10163 2.77906 8.21584 2.77906C8.33004 2.77906 8.37157 2.76511 8.37157 2.72674C8.37157 2.68488 8.43041 2.67441 8.68305 2.67441C8.93569 2.67441 8.99452 2.66395 8.99452 2.62209C8.99452 2.58023 9.04644 2.56976 9.25409 2.56976C9.46174 2.56976 9.51365 2.55929 9.51365 2.51743C9.51365 2.47557 9.56556 2.46511 9.77321 2.46511C9.98086 2.46511 10.0328 2.45464 10.0328 2.41278C10.0328 2.37092 10.0847 2.36046 10.2923 2.36046C10.5 2.36046 10.5519 2.34999 10.5519 2.30813C10.5519 2.26627 10.6107 2.25581 10.8634 2.25581C11.116 2.25581 11.1748 2.24534 11.1748 2.20348C11.1748 2.16162 11.2268 2.15116 11.4344 2.15116C11.6421 2.15116 11.694 2.14069 11.694 2.09883C11.694 2.05697 11.7459 2.0465 11.9535 2.0465C12.1612 2.0465 12.2131 2.03604 12.2131 1.99418C12.2131 1.95232 12.2719 1.94185 12.5246 1.94185C12.7772 1.94185 12.836 1.93139 12.836 1.88953C12.836 1.84767 12.888 1.8372 13.0956 1.8372C13.3033 1.8372 13.3552 1.82674 13.3552 1.78488C13.3552 1.74302 13.4071 1.73255 13.6147 1.73255C13.8224 1.73255 13.8743 1.72209 13.8743 1.68023C13.8743 1.63836 13.9331 1.6279 14.1858 1.6279C14.4384 1.6279 14.4972 1.61743 14.4972 1.57557C14.4972 1.53371 14.5561 1.52325 14.8087 1.52325C15.0614 1.52325 15.1202 1.51278 15.1202 1.47092C15.1202 1.42906 15.1721 1.4186 15.3798 1.4186C15.5874 1.4186 15.6393 1.40813 15.6393 1.36627C15.6393 1.32441 15.6982 1.31395 15.9508 1.31395C16.2034 1.31395 16.2623 1.30348 16.2623 1.26162C16.2623 1.21976 16.3211 1.20929 16.5737 1.20929C16.8264 1.20929 16.8852 1.19883 16.8852 1.15697C16.8852 1.12906 16.9094 1.10464 16.9371 1.10464C16.9648 1.10464 16.989 1.08023 16.989 1.05232C16.989 1.00697 16.8852 0.999993 16.2623 0.999993C15.6393 0.999993 15.5355 1.00697 15.5355 1.05232Z" fill="#E22829"/>
<path d="M16.7809 1.36628C16.7809 1.40814 16.7289 1.4186 16.5213 1.4186C16.3136 1.4186 16.2617 1.42907 16.2617 1.47093C16.2617 1.51279 16.2098 1.52326 16.0022 1.52326C15.7945 1.52326 15.7426 1.53372 15.7426 1.57558C15.7426 1.61744 15.6838 1.62791 15.4311 1.62791C15.1785 1.62791 15.1197 1.63837 15.1197 1.68023C15.1197 1.72209 15.0677 1.73256 14.8601 1.73256C14.6524 1.73256 14.6005 1.74302 14.6005 1.78488C14.6005 1.82674 14.5417 1.83721 14.2891 1.83721C14.0364 1.83721 13.9776 1.84767 13.9776 1.88953C13.9776 1.9314 13.9257 1.94186 13.718 1.94186C13.5104 1.94186 13.4585 1.95233 13.4585 1.99419C13.4585 2.03605 13.3996 2.04651 13.147 2.04651C12.8943 2.04651 12.8355 2.05698 12.8355 2.09884C12.8355 2.1407 12.7836 2.15116 12.5759 2.15116C12.3683 2.15116 12.3164 2.16163 12.3164 2.20349C12.3164 2.24535 12.2645 2.25581 12.0568 2.25581C11.8492 2.25581 11.7973 2.26628 11.7973 2.30814C11.7973 2.35 11.7384 2.36047 11.4858 2.36047C11.2331 2.36047 11.1743 2.37093 11.1743 2.41279C11.1743 2.45465 11.1224 2.46512 10.9147 2.46512C10.7071 2.46512 10.6552 2.47558 10.6552 2.51744C10.6552 2.5593 10.5963 2.56977 10.3437 2.56977C10.0911 2.56977 10.0322 2.58023 10.0322 2.62209C10.0322 2.65 10.008 2.67442 9.98032 2.67442C9.95263 2.67442 9.92841 2.69884 9.92841 2.72674C9.92841 2.75465 9.90418 2.77907 9.8765 2.77907C9.84881 2.77907 9.82458 2.75465 9.82458 2.72674C9.82458 2.69186 9.78997 2.67442 9.72076 2.67442C9.65154 2.67442 9.61693 2.69186 9.61693 2.72674C9.61693 2.76163 9.58232 2.77907 9.51311 2.77907C9.44389 2.77907 9.40928 2.79651 9.40928 2.8314C9.40928 2.87326 9.35737 2.88372 9.14972 2.88372C8.94207 2.88372 8.89016 2.89419 8.89016 2.93605C8.89016 2.97791 8.83825 2.98837 8.6306 2.98837C8.42295 2.98837 8.37103 2.99884 8.37103 3.0407C8.37103 3.08256 8.3122 3.09302 8.05956 3.09302C7.80692 3.09302 7.74808 3.10349 7.74808 3.14535C7.74808 3.18721 7.69617 3.19767 7.48852 3.19767C7.28087 3.19767 7.22896 3.20814 7.22896 3.25C7.22896 3.29186 7.17012 3.30233 6.91748 3.30233C6.66484 3.30233 6.60601 3.31279 6.60601 3.35465C6.60601 3.39651 6.5541 3.40698 6.34645 3.40698C6.1388 3.40698 6.08688 3.41744 6.08688 3.4593C6.08688 3.50116 6.03497 3.51163 5.82732 3.51163C5.61967 3.51163 5.56776 3.52209 5.56776 3.56395C5.56776 3.60581 5.50892 3.61628 5.25628 3.61628C5.00364 3.61628 4.94481 3.62674 4.94481 3.6686C4.94481 3.71047 4.88597 3.72093 4.63333 3.72093C4.38069 3.72093 4.32186 3.7314 4.32186 3.77326C4.32186 3.81512 4.27687 3.82558 4.11421 3.82558H3.90656V3.93023C3.90656 4 3.92386 4.03488 3.95847 4.03488C3.98616 4.03488 4.01038 4.0593 4.01038 4.08721C4.01038 4.12209 4.04499 4.13953 4.11421 4.13953C4.18343 4.13953 4.21803 4.12209 4.21803 4.08721C4.21803 4.04535 4.28033 4.03488 4.58142 4.03488C4.88251 4.03488 4.94481 4.02442 4.94481 3.98256C4.94481 3.93721 5.02095 3.93023 5.41202 3.93023C5.8031 3.93023 5.87923 3.92326 5.87923 3.87791C5.87923 3.83256 5.95883 3.82558 6.39836 3.82558C6.83788 3.82558 6.91748 3.8186 6.91748 3.77326C6.91748 3.72791 6.99708 3.72093 7.43661 3.72093C7.87613 3.72093 7.95573 3.71395 7.95573 3.6686C7.95573 3.62326 8.03533 3.61628 8.47486 3.61628C8.91438 3.61628 8.99398 3.6093 8.99398 3.56395C8.99398 3.5186 9.07358 3.51163 9.51311 3.51163C9.95263 3.51163 10.0322 3.50465 10.0322 3.4593C10.0322 3.41395 10.1118 3.40698 10.5514 3.40698C10.9909 3.40698 11.0705 3.4 11.0705 3.35465C11.0705 3.3093 11.157 3.30233 11.6415 3.30233C12.126 3.30233 12.2126 3.29535 12.2126 3.25C12.2126 3.20465 12.2922 3.19767 12.7317 3.19767C13.1712 3.19767 13.2508 3.1907 13.2508 3.14535C13.2508 3.1 13.3269 3.09302 13.718 3.09302C14.1091 3.09302 14.1852 3.08605 14.1852 3.0407C14.1852 2.99535 14.2544 2.98837 14.6005 2.98837C14.9466 2.98837 15.0158 2.97791 15.0158 2.93605C15.0158 2.8907 15.085 2.88372 15.4311 2.88372C15.7772 2.88372 15.8464 2.87326 15.8464 2.8314C15.8464 2.78953 15.8983 2.77907 16.106 2.77907C16.3136 2.77907 16.3656 2.7686 16.3656 2.72674C16.3656 2.6814 16.4521 2.67442 16.9366 2.67442C17.4211 2.67442 17.5076 2.6814 17.5076 2.72674C17.5076 2.76512 17.5492 2.77907 17.6634 2.77907C17.7776 2.77907 17.8191 2.79302 17.8191 2.8314C17.8191 2.8593 17.8433 2.88372 17.871 2.88372C17.8987 2.88372 17.9229 2.90814 17.9229 2.93605C17.9229 2.96395 17.9472 2.98837 17.9748 2.98837C18.0025 2.98837 18.0268 3.01279 18.0268 3.0407C18.0268 3.0686 18.051 3.09302 18.0787 3.09302C18.1064 3.09302 18.1306 3.11744 18.1306 3.14535C18.1306 3.17326 18.1548 3.19767 18.1825 3.19767C18.2102 3.19767 18.2344 3.22209 18.2344 3.25C18.2344 3.27791 18.2586 3.30233 18.2863 3.30233C18.314 3.30233 18.3382 3.32674 18.3382 3.35465C18.3382 3.38256 18.3625 3.40698 18.3901 3.40698C18.4248 3.40698 18.4421 3.44186 18.4421 3.51163C18.4421 3.5814 18.4594 3.61628 18.494 3.61628C18.5286 3.61628 18.5459 3.65116 18.5459 3.72093C18.5459 3.7907 18.5632 3.82558 18.5978 3.82558C18.6324 3.82558 18.6497 3.86047 18.6497 3.93023C18.6497 4 18.667 4.03488 18.7016 4.03488C18.7431 4.03488 18.7535 4.08721 18.7535 4.29651C18.7535 4.50581 18.7639 4.55814 18.8054 4.55814C18.8504 4.55814 18.8574 5.21395 18.8574 10.2616C18.8574 15.3093 18.8504 15.9651 18.8054 15.9651C18.7639 15.9651 18.7535 16.0105 18.7535 16.1744C18.7535 16.3384 18.7431 16.3837 18.7016 16.3837C18.6635 16.3837 18.6497 16.4256 18.6497 16.5407C18.6497 16.6558 18.6359 16.6977 18.5978 16.6977C18.5632 16.6977 18.5459 16.7326 18.5459 16.8023C18.5459 16.8721 18.5286 16.907 18.494 16.907C18.4663 16.907 18.4421 16.9314 18.4421 16.9593C18.4421 16.9872 18.4178 17.0116 18.3901 17.0116C18.3555 17.0116 18.3382 17.0465 18.3382 17.1163C18.3382 17.186 18.3209 17.2209 18.2863 17.2209C18.2586 17.2209 18.2344 17.2453 18.2344 17.2733C18.2344 17.3012 18.2102 17.3256 18.1825 17.3256C18.1548 17.3256 18.1306 17.35 18.1306 17.3779C18.1306 17.4058 18.1064 17.4302 18.0787 17.4302C18.051 17.4302 18.0268 17.4547 18.0268 17.4826C18.0268 17.5174 17.9921 17.5349 17.9229 17.5349C17.8537 17.5349 17.8191 17.5523 17.8191 17.5872C17.8191 17.6151 17.7949 17.6395 17.7672 17.6395C17.7395 17.6395 17.7153 17.664 17.7153 17.6919C17.7153 17.7337 17.6703 17.7442 17.5076 17.7442C17.345 17.7442 17.3 17.7547 17.3 17.7965C17.3 17.8419 17.2204 17.8488 16.7809 17.8488C16.3413 17.8488 16.2617 17.8419 16.2617 17.7965C16.2617 17.7512 15.881 17.7442 13.0432 17.7442C10.2053 17.7442 9.82458 17.7372 9.82458 17.6919C9.82458 17.6465 9.50619 17.6395 7.17705 17.6395C4.84791 17.6395 4.52951 17.6326 4.52951 17.5872C4.52951 17.5453 4.46721 17.5349 4.16612 17.5349H3.80273V17.6919V17.8488H4.32186C4.76138 17.8488 4.84098 17.8558 4.84098 17.9012C4.84098 17.9465 4.9275 17.9535 5.41202 17.9535C5.89654 17.9535 5.98306 17.9605 5.98306 18.0058C5.98306 18.0512 6.06958 18.0581 6.5541 18.0581C7.03861 18.0581 7.12513 18.0651 7.12513 18.1105C7.12513 18.1558 7.20473 18.1628 7.64426 18.1628C8.08378 18.1628 8.16338 18.1698 8.16338 18.2151C8.16338 18.2605 8.24298 18.2674 8.68251 18.2674C9.12203 18.2674 9.20163 18.2744 9.20163 18.3198C9.20163 18.3651 9.28123 18.3721 9.72076 18.3721C10.1603 18.3721 10.2399 18.3791 10.2399 18.4244C10.2399 18.4698 10.3195 18.4767 10.759 18.4767C11.1985 18.4767 11.2781 18.4837 11.2781 18.5291C11.2781 18.5744 11.3577 18.5814 11.7973 18.5814C12.2368 18.5814 12.3164 18.5884 12.3164 18.6337C12.3164 18.6791 12.396 18.686 12.8355 18.686C13.275 18.686 13.3546 18.693 13.3546 18.7384C13.3546 18.7837 13.4342 18.7907 13.8738 18.7907C14.3133 18.7907 14.3929 18.7977 14.3929 18.843C14.3929 18.8884 14.4725 18.8953 14.912 18.8953C15.3515 18.8953 15.4311 18.9023 15.4311 18.9477C15.4311 18.993 15.5938 19 16.677 19C17.7603 19 17.9229 18.993 17.9229 18.9477C17.9229 18.9093 17.9645 18.8953 18.0787 18.8953C18.1929 18.8953 18.2344 18.8814 18.2344 18.843C18.2344 18.8151 18.2586 18.7907 18.2863 18.7907C18.314 18.7907 18.3382 18.7663 18.3382 18.7384C18.3382 18.7035 18.3728 18.686 18.4421 18.686C18.5113 18.686 18.5459 18.6686 18.5459 18.6337C18.5459 18.6058 18.5701 18.5814 18.5978 18.5814C18.6255 18.5814 18.6497 18.557 18.6497 18.5291C18.6497 18.5012 18.6739 18.4767 18.7016 18.4767C18.7293 18.4767 18.7535 18.4523 18.7535 18.4244C18.7535 18.3965 18.7778 18.3721 18.8054 18.3721C18.8331 18.3721 18.8574 18.3477 18.8574 18.3198C18.8574 18.2919 18.8816 18.2674 18.9093 18.2674C18.937 18.2674 18.9612 18.243 18.9612 18.2151C18.9612 18.1872 18.9854 18.1628 19.0131 18.1628C19.0408 18.1628 19.065 18.1384 19.065 18.1105C19.065 18.0826 19.0892 18.0581 19.1169 18.0581C19.1446 18.0581 19.1688 18.0337 19.1688 18.0058C19.1688 17.9779 19.1931 17.9535 19.2207 17.9535C19.2554 17.9535 19.2727 17.9186 19.2727 17.8488C19.2727 17.7791 19.29 17.7442 19.3246 17.7442C19.3592 17.7442 19.3765 17.7093 19.3765 17.6395C19.3765 17.5698 19.3938 17.5349 19.4284 17.5349C19.4561 17.5349 19.4803 17.5105 19.4803 17.4826C19.4803 17.4547 19.5045 17.4302 19.5322 17.4302C19.5703 17.4302 19.5841 17.3884 19.5841 17.2733C19.5841 17.1581 19.598 17.1163 19.636 17.1163C19.6707 17.1163 19.688 17.0814 19.688 17.0116C19.688 16.9419 19.7053 16.907 19.7399 16.907C19.7779 16.907 19.7918 16.8651 19.7918 16.75C19.7918 16.6349 19.8056 16.593 19.8437 16.593C19.8852 16.593 19.8956 16.5337 19.8956 16.2791C19.8956 16.0244 19.906 15.9651 19.9475 15.9651C19.9925 15.9651 19.9994 15.3023 19.9994 10.2093C19.9994 5.11628 19.9925 4.45349 19.9475 4.45349C19.906 4.45349 19.8956 4.40116 19.8956 4.19186C19.8956 3.98256 19.8852 3.93023 19.8437 3.93023C19.8056 3.93023 19.7918 3.88837 19.7918 3.77326C19.7918 3.65814 19.7779 3.61628 19.7399 3.61628C19.7018 3.61628 19.688 3.57442 19.688 3.4593C19.688 3.34419 19.6741 3.30233 19.636 3.30233C19.6014 3.30233 19.5841 3.26744 19.5841 3.19767C19.5841 3.12791 19.5668 3.09302 19.5322 3.09302C19.4976 3.09302 19.4803 3.05814 19.4803 2.98837C19.4803 2.9186 19.463 2.88372 19.4284 2.88372C19.3938 2.88372 19.3765 2.84884 19.3765 2.77907C19.3765 2.7093 19.3592 2.67442 19.3246 2.67442C19.2969 2.67442 19.2727 2.65 19.2727 2.62209C19.2727 2.59419 19.2484 2.56977 19.2207 2.56977C19.1931 2.56977 19.1688 2.54535 19.1688 2.51744C19.1688 2.48953 19.1446 2.46512 19.1169 2.46512C19.0823 2.46512 19.065 2.43023 19.065 2.36047C19.065 2.2907 19.0477 2.25581 19.0131 2.25581C18.9854 2.25581 18.9612 2.2314 18.9612 2.20349C18.9612 2.17558 18.937 2.15116 18.9093 2.15116C18.8816 2.15116 18.8574 2.12674 18.8574 2.09884C18.8574 2.07093 18.8331 2.04651 18.8054 2.04651C18.7778 2.04651 18.7535 2.02209 18.7535 1.99419C18.7535 1.96628 18.7293 1.94186 18.7016 1.94186C18.6739 1.94186 18.6497 1.91744 18.6497 1.88953C18.6497 1.86163 18.6255 1.83721 18.5978 1.83721C18.5701 1.83721 18.5459 1.81279 18.5459 1.78488C18.5459 1.75 18.5113 1.73256 18.4421 1.73256C18.3728 1.73256 18.3382 1.71512 18.3382 1.68023C18.3382 1.64535 18.3036 1.62791 18.2344 1.62791C18.1652 1.62791 18.1306 1.61047 18.1306 1.57558C18.1306 1.5407 18.096 1.52326 18.0268 1.52326C17.9575 1.52326 17.9229 1.50581 17.9229 1.47093C17.9229 1.42907 17.8779 1.4186 17.7153 1.4186C17.5526 1.4186 17.5076 1.40814 17.5076 1.36628C17.5076 1.32442 17.4453 1.31395 17.1442 1.31395C16.8432 1.31395 16.7809 1.32442 16.7809 1.36628Z" fill="#E22829"/>
<path d="M6.81379 5.55234C6.81379 5.66745 6.79994 5.70931 6.76187 5.70931C6.71688 5.70931 6.70996 6.09304 6.70996 8.9535V12.1977H6.81379C6.883 12.1977 6.91761 12.1802 6.91761 12.1454C6.91761 12.1175 6.94184 12.093 6.96952 12.093C7.01105 12.093 7.02144 12.0302 7.02144 11.7268C7.02144 11.4233 7.03182 11.3605 7.07335 11.3605C7.11488 11.3605 7.12526 11.3082 7.12526 11.0988C7.12526 10.8895 7.13564 10.8372 7.17717 10.8372C7.2187 10.8372 7.22909 10.7849 7.22909 10.5756C7.22909 10.3663 7.23947 10.314 7.281 10.314C7.32253 10.314 7.33291 10.2616 7.33291 10.0523C7.33291 9.84303 7.34329 9.79071 7.38482 9.79071C7.42635 9.79071 7.43674 9.73838 7.43674 9.52908C7.43674 9.31978 7.44712 9.26745 7.48865 9.26745C7.52326 9.26745 7.54056 9.23257 7.54056 9.1628C7.54056 9.09304 7.55786 9.05815 7.59247 9.05815C7.634 9.05815 7.64439 9.0128 7.64439 8.84885C7.64439 8.6849 7.65477 8.63955 7.6963 8.63955C7.73783 8.63955 7.74821 8.58722 7.74821 8.37792C7.74821 8.16862 7.75859 8.11629 7.80012 8.11629C7.84165 8.11629 7.85204 8.06397 7.85204 7.85466C7.85204 7.64536 7.86242 7.59304 7.90395 7.59304C7.93856 7.59304 7.95586 7.55815 7.95586 7.48838C7.95586 7.41862 7.97316 7.38373 8.00777 7.38373C8.03546 7.38373 8.05969 7.40815 8.05969 7.43606C8.05969 7.47094 8.09429 7.48838 8.16351 7.48838C8.23273 7.48838 8.26734 7.50583 8.26734 7.54071C8.26734 7.56862 8.29156 7.59304 8.31925 7.59304C8.34693 7.59304 8.37116 7.61745 8.37116 7.64536C8.37116 7.68024 8.40577 7.69769 8.47499 7.69769C8.5442 7.69769 8.57881 7.71513 8.57881 7.75001C8.57881 7.7849 8.61342 7.80234 8.68264 7.80234C8.75185 7.80234 8.78646 7.81978 8.78646 7.85466C8.78646 7.88955 8.82107 7.90699 8.89029 7.90699C8.9595 7.90699 8.99411 7.92443 8.99411 7.95931C8.99411 7.9942 9.02872 8.01164 9.09794 8.01164C9.16715 8.01164 9.20176 8.02908 9.20176 8.06397C9.20176 8.09885 9.23637 8.11629 9.30559 8.11629C9.3748 8.11629 9.40941 8.13373 9.40941 8.16862C9.40941 8.19652 9.43364 8.22094 9.46132 8.22094C9.48901 8.22094 9.51324 8.24536 9.51324 8.27327C9.51324 8.30815 9.54784 8.32559 9.61706 8.32559C9.68628 8.32559 9.72089 8.34304 9.72089 8.37792C9.72089 8.4128 9.75549 8.43024 9.82471 8.43024C9.89393 8.43024 9.92854 8.44769 9.92854 8.48257C9.92854 8.51745 9.96314 8.5349 10.0324 8.5349C10.1016 8.5349 10.1362 8.55234 10.1362 8.58722C10.1362 8.61513 10.1604 8.63955 10.1881 8.63955C10.2158 8.63955 10.24 8.66397 10.24 8.69187C10.24 8.72676 10.2746 8.7442 10.3438 8.7442C10.4131 8.7442 10.4477 8.76164 10.4477 8.79652C10.4477 8.83141 10.4823 8.84885 10.5515 8.84885C10.6207 8.84885 10.6553 8.86629 10.6553 8.90117C10.6553 8.93606 10.6899 8.9535 10.7591 8.9535C10.8284 8.9535 10.863 8.97094 10.863 9.00583C10.863 9.04071 10.8976 9.05815 10.9668 9.05815C11.036 9.05815 11.0706 9.07559 11.0706 9.11048C11.0706 9.13838 11.0948 9.1628 11.1225 9.1628C11.1502 9.1628 11.1744 9.18722 11.1744 9.21513C11.1744 9.25001 11.209 9.26745 11.2783 9.26745C11.3475 9.26745 11.3821 9.2849 11.3821 9.31978C11.3821 9.35466 11.4167 9.3721 11.4859 9.3721C11.5551 9.3721 11.5897 9.38955 11.5897 9.42443C11.5897 9.45931 11.6243 9.47676 11.6936 9.47676C11.7628 9.47676 11.7974 9.4942 11.7974 9.52908C11.7974 9.55699 11.8216 9.58141 11.8493 9.58141C11.877 9.58141 11.9012 9.60583 11.9012 9.63373C11.9012 9.66862 11.9358 9.68606 12.005 9.68606C12.0743 9.68606 12.1089 9.7035 12.1089 9.73838C12.1089 9.76629 12.1331 9.79071 12.1608 9.79071C12.1885 9.79071 12.2127 9.81513 12.2127 9.84303C12.2127 9.87792 12.2473 9.89536 12.3165 9.89536C12.3857 9.89536 12.4203 9.9128 12.4203 9.94769C12.4203 9.98257 12.4549 10 12.5242 10C12.6176 10 12.628 10.0105 12.628 10.1047C12.628 10.1988 12.6176 10.2093 12.5242 10.2093C12.4549 10.2093 12.4203 10.2268 12.4203 10.2616C12.4203 10.2965 12.3857 10.314 12.3165 10.314C12.2473 10.314 12.2127 10.3314 12.2127 10.3663C12.2127 10.3942 12.1885 10.4186 12.1608 10.4186C12.1331 10.4186 12.1089 10.443 12.1089 10.4709C12.1089 10.5058 12.0743 10.5233 12.005 10.5233C11.9358 10.5233 11.9012 10.5407 11.9012 10.5756C11.9012 10.6105 11.8666 10.6279 11.7974 10.6279C11.7282 10.6279 11.6936 10.6454 11.6936 10.6802C11.6936 10.7151 11.659 10.7326 11.5897 10.7326C11.5205 10.7326 11.4859 10.75 11.4859 10.7849C11.4859 10.8128 11.4617 10.8372 11.434 10.8372C11.4063 10.8372 11.3821 10.8616 11.3821 10.8895C11.3821 10.9244 11.3475 10.9419 11.2783 10.9419C11.209 10.9419 11.1744 10.9593 11.1744 10.9942C11.1744 11.0291 11.1398 11.0465 11.0706 11.0465C11.0014 11.0465 10.9668 11.064 10.9668 11.0988C10.9668 11.1337 10.9322 11.1512 10.863 11.1512C10.7937 11.1512 10.7591 11.1686 10.7591 11.2035C10.7591 11.2314 10.7349 11.2558 10.7072 11.2558C10.6795 11.2558 10.6553 11.2802 10.6553 11.3082C10.6553 11.343 10.6207 11.3605 10.5515 11.3605C10.4823 11.3605 10.4477 11.3779 10.4477 11.4128C10.4477 11.4477 10.4131 11.4651 10.3438 11.4651C10.2746 11.4651 10.24 11.4826 10.24 11.5175C10.24 11.5523 10.2054 11.5698 10.1362 11.5698C10.067 11.5698 10.0324 11.5872 10.0324 11.6221C10.0324 11.657 9.99775 11.6744 9.92854 11.6744C9.85932 11.6744 9.82471 11.6919 9.82471 11.7268C9.82471 11.7547 9.80048 11.7791 9.7728 11.7791C9.74511 11.7791 9.72089 11.8035 9.72089 11.8314C9.72089 11.8663 9.68628 11.8837 9.61706 11.8837C9.54784 11.8837 9.51324 11.9012 9.51324 11.9361C9.51324 11.9709 9.47863 11.9884 9.40941 11.9884C9.34019 11.9884 9.30559 12.0058 9.30559 12.0407C9.30559 12.0756 9.27098 12.093 9.20176 12.093C9.13254 12.093 9.09794 12.1105 9.09794 12.1454C9.09794 12.1733 9.07371 12.1977 9.04602 12.1977C9.01834 12.1977 8.99411 12.2221 8.99411 12.25C8.99411 12.2849 8.9595 12.3023 8.89029 12.3023C8.82107 12.3023 8.78646 12.3198 8.78646 12.3547C8.78646 12.3895 8.75185 12.407 8.68264 12.407C8.61342 12.407 8.57881 12.4244 8.57881 12.4593C8.57881 12.4872 8.55458 12.5116 8.5269 12.5116C8.48191 12.5116 8.47499 12.3093 8.47499 10.8895V9.26745H8.31925H8.16351V9.42443C8.16351 9.53955 8.14967 9.58141 8.1116 9.58141C8.07007 9.58141 8.05969 9.62676 8.05969 9.79071C8.05969 9.95466 8.0493 10 8.00777 10C7.9697 10 7.95586 10.0419 7.95586 10.157C7.95586 10.2721 7.94202 10.314 7.90395 10.314C7.86242 10.314 7.85204 10.3593 7.85204 10.5233C7.85204 10.6872 7.84165 10.7326 7.80012 10.7326C7.75859 10.7326 7.74821 10.7779 7.74821 10.9419C7.74821 11.1058 7.73783 11.1512 7.6963 11.1512C7.65823 11.1512 7.64439 11.193 7.64439 11.3082C7.64439 11.4233 7.63054 11.4651 7.59247 11.4651C7.55786 11.4651 7.54056 11.5 7.54056 11.5698C7.54056 11.6395 7.52326 11.6744 7.48865 11.6744C7.45058 11.6744 7.43674 11.7163 7.43674 11.8314C7.43674 11.9465 7.42289 11.9884 7.38482 11.9884C7.34329 11.9884 7.33291 12.0337 7.33291 12.1977C7.33291 12.3616 7.32253 12.407 7.281 12.407C7.24293 12.407 7.22909 12.4488 7.22909 12.564C7.22909 12.6791 7.21524 12.7209 7.17717 12.7209C7.13564 12.7209 7.12526 12.7663 7.12526 12.9302C7.12526 13.0942 7.11488 13.1395 7.07335 13.1395C7.03182 13.1395 7.02144 13.1849 7.02144 13.3488C7.02144 13.5128 7.01105 13.5582 6.96952 13.5582C6.92799 13.5582 6.91761 13.6035 6.91761 13.7675C6.91761 13.9314 6.90723 13.9768 6.8657 13.9768C6.82763 13.9768 6.81379 14.0186 6.81379 14.1337C6.81379 14.2488 6.79994 14.2907 6.76187 14.2907C6.7238 14.2907 6.70996 14.3326 6.70996 14.4477C6.70996 14.5628 6.7238 14.6047 6.76187 14.6047C6.78956 14.6047 6.81379 14.6291 6.81379 14.657C6.81379 14.6849 6.83801 14.7093 6.8657 14.7093C6.89339 14.7093 6.91761 14.7337 6.91761 14.7616C6.91761 14.8035 6.96952 14.814 7.17717 14.814C7.38482 14.814 7.43674 14.8035 7.43674 14.7616C7.43674 14.7268 7.47134 14.7093 7.54056 14.7093C7.60978 14.7093 7.64439 14.6919 7.64439 14.657C7.64439 14.6221 7.67899 14.6047 7.74821 14.6047C7.81743 14.6047 7.85204 14.5872 7.85204 14.5523C7.85204 14.5175 7.88664 14.5 7.95586 14.5C8.02508 14.5 8.05969 14.4826 8.05969 14.4477C8.05969 14.4198 8.08391 14.3954 8.1116 14.3954C8.13928 14.3954 8.16351 14.3709 8.16351 14.343C8.16351 14.3082 8.19812 14.2907 8.26734 14.2907C8.33655 14.2907 8.37116 14.2733 8.37116 14.2384C8.37116 14.2035 8.40577 14.1861 8.47499 14.1861C8.5442 14.1861 8.57881 14.1686 8.57881 14.1337C8.57881 14.0988 8.61342 14.0814 8.68264 14.0814C8.75185 14.0814 8.78646 14.064 8.78646 14.0291C8.78646 14.0012 8.81069 13.9768 8.83837 13.9768C8.86606 13.9768 8.89029 13.9523 8.89029 13.9244C8.89029 13.8895 8.92489 13.8721 8.99411 13.8721C9.06333 13.8721 9.09794 13.8547 9.09794 13.8198C9.09794 13.7849 9.13254 13.7675 9.20176 13.7675C9.27098 13.7675 9.30559 13.75 9.30559 13.7151C9.30559 13.6872 9.32981 13.6628 9.3575 13.6628C9.38518 13.6628 9.40941 13.6384 9.40941 13.6105C9.40941 13.5756 9.44402 13.5582 9.51324 13.5582C9.58245 13.5582 9.61706 13.5407 9.61706 13.5058C9.61706 13.4709 9.65167 13.4535 9.72089 13.4535C9.7901 13.4535 9.82471 13.4361 9.82471 13.4012C9.82471 13.3663 9.85932 13.3488 9.92854 13.3488C9.99775 13.3488 10.0324 13.3314 10.0324 13.2965C10.0324 13.2686 10.0566 13.2442 10.0843 13.2442C10.112 13.2442 10.1362 13.2198 10.1362 13.1919C10.1362 13.157 10.1708 13.1395 10.24 13.1395C10.3092 13.1395 10.3438 13.1221 10.3438 13.0872C10.3438 13.0523 10.3784 13.0349 10.4477 13.0349C10.5169 13.0349 10.5515 13.0175 10.5515 12.9826C10.5515 12.9477 10.5861 12.9302 10.6553 12.9302C10.7245 12.9302 10.7591 12.9128 10.7591 12.8779C10.7591 12.85 10.7834 12.8256 10.811 12.8256C10.8387 12.8256 10.863 12.8012 10.863 12.7733C10.863 12.7384 10.8976 12.7209 10.9668 12.7209C11.036 12.7209 11.0706 12.7035 11.0706 12.6686C11.0706 12.6337 11.1052 12.6163 11.1744 12.6163C11.2437 12.6163 11.2783 12.5988 11.2783 12.564C11.2783 12.5291 11.3129 12.5116 11.3821 12.5116C11.4513 12.5116 11.4859 12.4942 11.4859 12.4593C11.4859 12.4314 11.5101 12.407 11.5378 12.407C11.5655 12.407 11.5897 12.3826 11.5897 12.3547C11.5897 12.3198 11.6243 12.3023 11.6936 12.3023C11.7628 12.3023 11.7974 12.2849 11.7974 12.25C11.7974 12.2151 11.832 12.1977 11.9012 12.1977C11.9704 12.1977 12.005 12.1802 12.005 12.1454C12.005 12.1105 12.0396 12.093 12.1089 12.093C12.1781 12.093 12.2127 12.0756 12.2127 12.0407C12.2127 12.0128 12.2369 11.9884 12.2646 11.9884C12.2923 11.9884 12.3165 11.964 12.3165 11.9361C12.3165 11.9012 12.3511 11.8837 12.4203 11.8837C12.4896 11.8837 12.5242 11.8663 12.5242 11.8314C12.5242 11.7965 12.5588 11.7791 12.628 11.7791C12.6972 11.7791 12.7318 11.7616 12.7318 11.7268C12.7318 11.6919 12.7664 11.6744 12.8356 11.6744C12.9049 11.6744 12.9395 11.657 12.9395 11.6221C12.9395 11.5942 12.9637 11.5698 12.9914 11.5698C13.0191 11.5698 13.0433 11.5454 13.0433 11.5175C13.0433 11.4826 13.0779 11.4651 13.1471 11.4651C13.2163 11.4651 13.2509 11.4477 13.2509 11.4128C13.2509 11.3779 13.2855 11.3605 13.3548 11.3605C13.424 11.3605 13.4586 11.343 13.4586 11.3082C13.4586 11.2733 13.4932 11.2558 13.5624 11.2558C13.6316 11.2558 13.6662 11.2384 13.6662 11.2035C13.6662 11.1756 13.6905 11.1512 13.7181 11.1512C13.7458 11.1512 13.7701 11.1268 13.7701 11.0988C13.7701 11.064 13.8047 11.0465 13.8739 11.0465C13.9431 11.0465 13.9777 11.0291 13.9777 10.9942C13.9777 10.9593 14.0123 10.9419 14.0815 10.9419C14.1508 10.9419 14.1854 10.9244 14.1854 10.8895C14.1854 10.8547 14.22 10.8372 14.2892 10.8372C14.3584 10.8372 14.393 10.8198 14.393 10.7849C14.393 10.75 14.4276 10.7326 14.4968 10.7326C14.5661 10.7326 14.6007 10.7151 14.6007 10.6802C14.6007 10.6454 14.6353 10.6279 14.7045 10.6279C14.7737 10.6279 14.8083 10.6105 14.8083 10.5756C14.8083 10.5477 14.8325 10.5233 14.8602 10.5233C14.8879 10.5233 14.9121 10.4988 14.9121 10.4709C14.9121 10.443 14.9364 10.4186 14.964 10.4186C14.9917 10.4186 15.016 10.3942 15.016 10.3663C15.016 10.3384 15.0402 10.314 15.0679 10.314C15.1094 10.314 15.1198 10.2686 15.1198 10.1047C15.1198 9.94071 15.1094 9.89536 15.0679 9.89536C15.0402 9.89536 15.016 9.87094 15.016 9.84303C15.016 9.81513 14.9917 9.79071 14.964 9.79071C14.9364 9.79071 14.9121 9.76629 14.9121 9.73838C14.9121 9.7035 14.8775 9.68606 14.8083 9.68606C14.7391 9.68606 14.7045 9.66862 14.7045 9.63373C14.7045 9.59885 14.6699 9.58141 14.6007 9.58141C14.5314 9.58141 14.4968 9.56397 14.4968 9.52908C14.4968 9.4942 14.4622 9.47676 14.393 9.47676C14.3238 9.47676 14.2892 9.45931 14.2892 9.42443C14.2892 9.39652 14.265 9.3721 14.2373 9.3721C14.2096 9.3721 14.1854 9.34769 14.1854 9.31978C14.1854 9.29187 14.1611 9.26745 14.1334 9.26745C14.1058 9.26745 14.0815 9.24304 14.0815 9.21513C14.0815 9.18024 14.0469 9.1628 13.9777 9.1628C13.9085 9.1628 13.8739 9.14536 13.8739 9.11048C13.8739 9.07559 13.8393 9.05815 13.7701 9.05815C13.7008 9.05815 13.6662 9.04071 13.6662 9.00583C13.6662 8.97094 13.6316 8.9535 13.5624 8.9535C13.4932 8.9535 13.4586 8.93606 13.4586 8.90117C13.4586 8.86629 13.424 8.84885 13.3548 8.84885C13.2855 8.84885 13.2509 8.83141 13.2509 8.79652C13.2509 8.76862 13.2267 8.7442 13.199 8.7442C13.1713 8.7442 13.1471 8.71978 13.1471 8.69187C13.1471 8.65699 13.1125 8.63955 13.0433 8.63955C12.9741 8.63955 12.9395 8.6221 12.9395 8.58722C12.9395 8.55234 12.9049 8.5349 12.8356 8.5349C12.7664 8.5349 12.7318 8.51745 12.7318 8.48257C12.7318 8.44769 12.6972 8.43024 12.628 8.43024C12.5588 8.43024 12.5242 8.4128 12.5242 8.37792C12.5242 8.35001 12.4999 8.32559 12.4722 8.32559C12.4446 8.32559 12.4203 8.30117 12.4203 8.27327C12.4203 8.23838 12.3857 8.22094 12.3165 8.22094C12.2473 8.22094 12.2127 8.2035 12.2127 8.16862C12.2127 8.13373 12.1781 8.11629 12.1089 8.11629C12.0396 8.11629 12.005 8.09885 12.005 8.06397C12.005 8.02908 11.9704 8.01164 11.9012 8.01164C11.832 8.01164 11.7974 7.9942 11.7974 7.95931C11.7974 7.93141 11.7732 7.90699 11.7455 7.90699C11.7178 7.90699 11.6936 7.88257 11.6936 7.85466C11.6936 7.81978 11.659 7.80234 11.5897 7.80234C11.5205 7.80234 11.4859 7.7849 11.4859 7.75001C11.4859 7.71513 11.4513 7.69769 11.3821 7.69769C11.3129 7.69769 11.2783 7.68024 11.2783 7.64536C11.2783 7.61048 11.2437 7.59304 11.1744 7.59304C11.1052 7.59304 11.0706 7.57559 11.0706 7.54071C11.0706 7.5128 11.0464 7.48838 11.0187 7.48838C10.991 7.48838 10.9668 7.46397 10.9668 7.43606C10.9668 7.40117 10.9322 7.38373 10.863 7.38373C10.7937 7.38373 10.7591 7.36629 10.7591 7.33141C10.7591 7.29652 10.7245 7.27908 10.6553 7.27908C10.5861 7.27908 10.5515 7.26164 10.5515 7.22676C10.5515 7.19187 10.5169 7.17443 10.4477 7.17443C10.3784 7.17443 10.3438 7.15699 10.3438 7.1221C10.3438 7.0942 10.3196 7.06978 10.2919 7.06978C10.2642 7.06978 10.24 7.04536 10.24 7.01745C10.24 6.98257 10.2054 6.96513 10.1362 6.96513C10.067 6.96513 10.0324 6.94769 10.0324 6.9128C10.0324 6.87792 9.99775 6.86048 9.92854 6.86048C9.85932 6.86048 9.82471 6.84304 9.82471 6.80815C9.82471 6.78024 9.80048 6.75583 9.7728 6.75583C9.74511 6.75583 9.72089 6.73141 9.72089 6.7035C9.72089 6.66862 9.68628 6.65117 9.61706 6.65117C9.54784 6.65117 9.51324 6.63373 9.51324 6.59885C9.51324 6.56397 9.47863 6.54652 9.40941 6.54652C9.34019 6.54652 9.30559 6.52908 9.30559 6.4942C9.30559 6.45931 9.27098 6.44187 9.20176 6.44187C9.13254 6.44187 9.09794 6.42443 9.09794 6.38955C9.09794 6.36164 9.07371 6.33722 9.04602 6.33722C9.01834 6.33722 8.99411 6.3128 8.99411 6.2849C8.99411 6.25001 8.9595 6.23257 8.89029 6.23257C8.82107 6.23257 8.78646 6.21513 8.78646 6.18024C8.78646 6.15234 8.76223 6.12792 8.73455 6.12792C8.70686 6.12792 8.68264 6.1035 8.68264 6.07559C8.68264 6.04071 8.64803 6.02327 8.57881 6.02327C8.50959 6.02327 8.47499 6.00583 8.47499 5.97094C8.47499 5.93606 8.44038 5.91862 8.37116 5.91862C8.30194 5.91862 8.26734 5.90117 8.26734 5.86629C8.26734 5.83141 8.23273 5.81397 8.16351 5.81397C8.09429 5.81397 8.05969 5.79652 8.05969 5.76164C8.05969 5.73373 8.03546 5.70931 8.00777 5.70931C7.98009 5.70931 7.95586 5.6849 7.95586 5.65699C7.95586 5.62211 7.92125 5.60466 7.85204 5.60466C7.78282 5.60466 7.74821 5.58722 7.74821 5.55234C7.74821 5.51397 7.70668 5.50001 7.59247 5.50001C7.47827 5.50001 7.43674 5.48606 7.43674 5.44769C7.43674 5.40583 7.3779 5.39536 7.12526 5.39536H6.81379V5.55234Z" fill="#E22829"/>
</svg>
