<svg width="20" height="20" viewBox="0 0 20 20" fill="none" xmlns="http://www.w3.org/2000/svg">
<g clip-path="url(#clip0_5675_44692)">
<path d="M10 20C15.5228 20 20 15.5228 20 10C20 4.47715 15.5228 0 10 0C4.47715 0 0 4.47715 0 10C0 15.5228 4.47715 20 10 20Z" fill="#63A1F8"/>
<path fill-rule="evenodd" clip-rule="evenodd" d="M13.0013 8.7926C13.5228 9.44053 13.8342 10.2618 13.8342 11.1544C13.8342 12.0603 13.5132 12.8921 12.9777 13.5445L12.9316 13.6006L12.9194 13.5293C12.9089 13.4685 12.8967 13.4073 12.8825 13.3455C12.6145 12.1785 11.7413 11.1779 10.3042 10.3677C9.33373 9.822 8.7782 9.165 8.6324 8.41853C8.5382 7.9358 8.6082 7.45093 8.74353 7.03566C8.87887 6.62053 9.08013 6.2727 9.25107 6.06328L9.81027 5.3857C9.90827 5.26689 10.0917 5.26689 10.1898 5.3857L13.0013 8.7926ZM13.8856 8.11573L10.1385 3.57482C10.067 3.48812 9.933 3.48812 9.86147 3.57482L6.11429 8.11553L6.1022 8.1308C5.41265 8.97873 5 10.0564 5 11.2295C5 13.9616 7.23853 16.1765 10 16.1765C12.7615 16.1765 15 13.9616 15 11.2295C15 10.0564 14.5873 8.97873 13.8978 8.1308L13.8856 8.11573ZM7.01087 8.77793L7.3462 8.3716L7.35633 8.4466C7.36433 8.506 7.37407 8.56573 7.3856 8.62566C7.60247 9.75326 8.3772 10.6935 9.6724 11.4217C10.7983 12.0567 11.4537 12.7869 11.6426 13.5878C11.7214 13.922 11.7355 14.2508 11.7013 14.5383L11.6993 14.5561L11.683 14.564C11.1749 14.81 10.6037 14.9481 9.99987 14.9481C7.88233 14.9481 6.16563 13.2497 6.16563 11.1544C6.16563 10.2548 6.48207 9.42826 7.01087 8.77793Z" fill="white"/>
</g>
<defs>
<clipPath id="clip0_5675_44692">
<rect width="20" height="20" fill="white"/>
</clipPath>
</defs>
</svg>
