<svg width="20" height="20" viewBox="0 0 20 20" fill="none" xmlns="http://www.w3.org/2000/svg">
<circle cx="10" cy="10" r="10" fill="#652EF4"/>
<path d="M8.87168 15.3485C7.14514 15.7614 6.2068 15.9866 5.45613 17C5.30599 16.5496 5.04326 15.2359 5.5312 14.4477C5.83146 13.8472 6.58213 13.3217 7.78321 12.9088C8.72154 12.571 9.96015 12.2708 11.2363 12.1206L11.6867 12.0831L11.2363 11.9705C9.17195 11.5201 7.78321 11.0697 6.35693 9.90617C5.68133 9.3807 5.38106 8.47989 5.56873 7.61662C5.68133 6.97855 6.2068 5.77748 8.30868 5.17694C8.89721 5.01215 9.44144 4.8769 9.94138 4.75265C10.2385 4.6788 10.52 4.60884 10.7859 4.53887C12.55 4.12601 13.6384 3.86327 14.2014 3C14.2014 3.4504 14.1639 4.42627 13.4508 5.40214C12.5124 6.71582 10.7484 7.54156 8.23361 7.84182L7.78321 7.87936L8.23361 7.95442C10.298 8.40483 11.6867 8.85523 13.113 10.0188C13.7886 10.5442 14.0888 11.445 13.9012 12.3083C13.7886 12.9464 13.2631 14.1475 11.1612 14.748C10.2604 15.0107 9.50975 15.1984 8.87168 15.3485Z" fill="white"/>
<path d="M12.963 9.11796C12.3249 8.66756 11.6117 8.25469 10.5608 7.91689C11.9871 7.50402 13.0756 6.82842 13.7887 5.96515C13.8638 6.82842 13.8262 8.10456 12.963 9.11796Z" fill="white"/>
</svg>
