<svg width="20" height="20" viewBox="0 0 20 20" fill="none" xmlns="http://www.w3.org/2000/svg">
<g clip-path="url(#clip0_978_100)">
<path d="M10 20C15.5229 20 20 15.5229 20 9.99999C20 4.47715 15.5229 0 10 0C4.47716 0 0 4.47715 0 9.99999C0 15.5229 4.47716 20 10 20Z" fill="#06071A"/>
<path d="M6.50157 7.45182C6.4069 7.34368 6.29035 7.28948 6.15166 7.28948H3.31522C3.29003 7.28948 3.26941 7.28152 3.25389 7.26559C3.23811 7.24992 3.23022 7.23219 3.23022 7.21318V5.30432C3.23022 5.28531 3.23811 5.26784 3.25389 5.25192C3.26941 5.23599 3.29003 5.22803 3.31522 5.22803H6.31249C7.06879 5.22803 7.7213 5.5368 8.26969 6.15382L8.99777 7.04133L7.57954 8.76884L6.50157 7.45182ZM11.7398 6.14431C12.2882 5.53346 12.9437 5.22803 13.7064 5.22803H16.6943C16.7195 5.22803 16.7383 5.23445 16.751 5.24704C16.7635 5.25988 16.7699 5.27889 16.7699 5.30432V7.21318C16.7699 7.23219 16.7635 7.24992 16.751 7.26559C16.7383 7.28152 16.7195 7.28948 16.6943 7.28948H13.8578C13.7191 7.28948 13.6026 7.34368 13.5079 7.45182L11.4184 9.99055L13.5174 12.5483C13.612 12.6503 13.7252 12.7011 13.8578 12.7011H16.6943C16.7195 12.7011 16.7383 12.7091 16.751 12.725C16.7635 12.741 16.7699 12.7618 16.7699 12.7869V14.6958C16.7699 14.7148 16.7635 14.7325 16.751 14.7482C16.7383 14.7641 16.7195 14.7721 16.6943 14.7721H13.7064C12.9437 14.7721 12.2913 14.4636 11.7492 13.8463L10.0096 11.7276L8.26969 13.8463C7.7213 14.4636 7.06576 14.7721 6.30308 14.7721H3.31522C3.29003 14.7721 3.27094 14.7641 3.25847 14.7482C3.24575 14.7323 3.23964 14.7117 3.23964 14.686V12.7772C3.23964 12.7582 3.24575 12.7407 3.25847 12.7248C3.27094 12.7088 3.29003 12.7009 3.31522 12.7009H6.15166C6.28399 12.7009 6.40054 12.6469 6.50157 12.5385L8.55318 10.0381L11.7398 6.14431Z" fill="#00D1FF"/>
</g>
<defs>
<clipPath id="clip0_978_100">
<rect width="20" height="20" fill="white"/>
</clipPath>
</defs>
</svg>
