<svg width="20" height="20" viewBox="0 0 20 20" fill="none" xmlns="http://www.w3.org/2000/svg">
<g clip-path="url(#clip0_4040_53671)">
<path d="M9.97288 19.9458C15.4808 19.9458 19.9458 15.4808 19.9458 9.97288C19.9458 4.46501 15.4808 0 9.97288 0C4.46501 0 0 4.46501 0 9.97288C0 15.4808 4.46501 19.9458 9.97288 19.9458Z" fill="white"/>
<path fill-rule="evenodd" clip-rule="evenodd" d="M1.19941 12.9977C1.39295 12.7168 0.678419 8.80917 4.69293 5.72211C9.56788 1.97344 11.9437 5.64979 11.5738 6.22179C11.0746 5.99938 10.9897 4.44905 8.70149 4.62999C7.55107 4.72096 6.32091 5.37384 5.43834 6.09828C3.61329 7.59634 2.17951 10.1698 3.06555 12.5524C4.10246 15.3408 7.18381 15.1105 9.42504 14.0445C11.4273 13.0922 13.1548 11.3792 14.2032 9.43252C15.3532 7.29748 15.6624 4.17588 13.9843 2.21639C12.2237 0.160365 9.08109 0.298223 6.72839 1.1456C3.36353 2.35751 0.910685 5.48506 0.618211 9.05982C0.575447 9.5827 0.664985 12.817 1.19943 12.9977H1.19941Z" fill="#1A2340"/>
<path fill-rule="evenodd" clip-rule="evenodd" d="M17.4082 4.24091C18.3974 4.68994 22.3456 13.3738 14.6708 18.1024C8.83435 21.6983 3.15625 17.0453 3.15625 16.4281C12.1754 19.5941 19.5431 10.5651 17.4082 4.24093V4.24091Z" fill="url(#paint0_linear_4040_53671)"/>
</g>
<defs>
<linearGradient id="paint0_linear_4040_53671" x1="17.2909" y1="3.97484" x2="7.31114" y2="22.2409" gradientUnits="userSpaceOnUse">
<stop stop-color="#0081A1"/>
<stop offset="0.431373" stop-color="#39ABCB"/>
<stop offset="1" stop-color="#73D5F5"/>
</linearGradient>
<clipPath id="clip0_4040_53671">
<rect width="20" height="20" fill="white"/>
</clipPath>
</defs>
</svg>
