<svg width="20" height="20" viewBox="0 0 20 20" fill="none" xmlns="http://www.w3.org/2000/svg">
<circle cx="10" cy="10" r="10" fill="url(#paint0_linear)"/>
<path d="M7.61182 13.908C8.42872 13.5862 8.55753 12.902 8.55753 11.8743V7.42752C8.55753 6.53964 8.90683 5.78632 9.90454 5.38207C10.9022 4.97783 12.1012 5.50108 12.6017 6.02304C11.9236 6.29747 11.6331 6.91094 11.6331 7.58895V12.1252C11.6331 12.561 11.6331 14.0463 10.1318 14.6112C8.9123 15.0701 7.96212 14.3768 7.61182 13.908Z" fill="#FFE087"/>
<path d="M14.2738 10.6039C15.3724 10.2766 15.9978 9.12066 15.6705 8.02203C15.5128 7.49282 15.163 7.0734 14.7197 6.81742C15.6293 6.94415 16.4262 7.58589 16.7055 8.52338C17.0869 9.80372 16.3581 11.1509 15.0777 11.5323C13.807 11.9109 12.4705 11.1958 12.0776 9.9333C12.5921 10.5584 13.4491 10.8496 14.2738 10.6039Z" fill="#F1C983"/>
<path d="M5.72646 10.6039C4.62783 10.2766 4.00247 9.12066 4.32975 8.02203C4.4874 7.49282 4.83728 7.0734 5.2805 6.81742C4.37095 6.94415 3.57405 7.58589 3.29478 8.52338C2.91337 9.80372 3.64217 11.1509 4.92252 11.5323C6.19329 11.9109 7.52972 11.1958 7.92262 9.9333C7.40812 10.5584 6.55113 10.8496 5.72646 10.6039Z" fill="#F1C983"/>
<path d="M13.8623 9.92651C14.5408 9.40346 14.6669 8.42935 14.1439 7.7508C13.8919 7.42395 13.5353 7.22525 13.1575 7.16561C13.8259 7.00998 14.554 7.24383 15.0003 7.82284C15.6099 8.61362 15.4629 9.74887 14.6722 10.3584C13.8873 10.9634 12.7632 10.8232 12.1504 10.048C12.677 10.346 13.353 10.3191 13.8623 9.92651Z" fill="#C49137"/>
<path d="M14.4818 11.4506C15.929 11.4506 17.1022 10.2774 17.1022 8.8302C17.1022 8.1331 16.8301 7.49954 16.3861 7.03009C17.4409 7.51124 18.1737 8.5749 18.1737 9.80981C18.1737 11.4963 16.8064 12.8636 15.1199 12.8636C13.4459 12.8636 12.0867 11.5168 12.0664 9.84768C12.4636 10.7895 13.3955 11.4506 14.4818 11.4506Z" fill="#FFF2CD"/>
<path d="M5.51843 11.4506C4.07124 11.4506 2.898 10.2774 2.898 8.8302C2.898 8.1331 3.17015 7.49954 3.61414 7.03009C2.55936 7.51124 1.8265 8.5749 1.8265 9.80981C1.8265 11.4963 3.19382 12.8636 4.88036 12.8636C6.5543 12.8636 7.91352 11.5168 7.93384 9.84768C7.53667 10.7895 6.60472 11.4506 5.51843 11.4506Z" fill="#FFF2CD"/>
<path d="M6.13796 9.92651C5.45941 9.40346 5.33333 8.42935 5.85638 7.7508C6.10833 7.42395 6.46493 7.22525 6.84277 7.16561C6.17431 7.00998 5.44626 7.24383 4.99993 7.82284C4.39036 8.61362 4.5373 9.74887 5.32807 10.3584C6.11294 10.9634 7.23701 10.8232 7.84981 10.048C7.3232 10.346 6.64729 10.3191 6.13796 9.92651Z" fill="#C49137"/>
<defs>
<linearGradient id="paint0_linear" x1="7.29142" y1="20" x2="7.92714" y2="-18.7925" gradientUnits="userSpaceOnUse">
<stop stop-color="#BF8C33"/>
<stop offset="1" stop-color="#FEC666"/>
</linearGradient>
</defs>
</svg>
