<svg width="20" height="20" viewBox="0 0 20 20" fill="none" xmlns="http://www.w3.org/2000/svg">
<circle cx="10" cy="10" r="10" fill="white"/>
<path fill-rule="evenodd" clip-rule="evenodd" d="M9.2499 0.025322C6.14885 0.27571 3.39088 1.88887 1.67985 4.45307C-0.423776 7.60564 -0.562056 11.69 1.32361 14.9758C3.34387 18.4962 7.28726 20.4438 11.3189 19.9124C15.062 19.419 18.2252 16.8308 19.4503 13.2589C20.1832 11.1218 20.1832 8.87825 19.4503 6.7411C18.2252 3.16929 15.062 0.581008 11.3189 0.087646C10.6525 -0.000191438 9.86118 -0.0240294 9.2499 0.025322ZM13.2292 1.3425C13.4094 1.41056 13.4269 1.47738 13.28 1.53628C13.0581 1.62521 12.872 1.72762 12.7778 1.81276L12.6771 1.9038L12.7659 1.88773C12.8378 1.87473 13.0853 1.78268 13.3244 1.68007C13.3558 1.66661 13.3569 1.6706 13.331 1.70259C13.3136 1.72394 13.2089 1.79014 13.0983 1.8497C12.9877 1.90923 12.8647 1.99199 12.8252 2.03358L12.7532 2.10918L12.9056 2.0402C13.1843 1.91398 13.5017 1.80017 13.5751 1.80017C13.615 1.80017 13.6791 1.82495 13.7176 1.85524C13.7911 1.91302 13.7911 1.91345 13.75 2.21819C13.745 2.25573 13.7622 2.27163 13.8195 2.28244C13.892 2.2961 13.8954 2.30252 13.8916 2.41562C13.8883 2.51348 13.8466 2.60932 13.6558 2.95831C13.4385 3.35566 13.4251 3.38886 13.4403 3.49038C13.4578 3.60688 13.4238 3.67215 13.1925 3.96666C13.1175 4.06211 13.096 4.11205 13.096 4.19047C13.096 4.3204 13.1062 4.33832 13.4108 4.74202C13.5518 4.92886 13.7152 5.14592 13.7739 5.22436C13.8325 5.3028 13.9668 5.55015 14.0721 5.77403C14.3215 6.30372 14.3248 6.3979 14.1066 6.73562C14.0533 6.81818 14.0144 6.89048 14.0203 6.89632C14.0261 6.90216 14.0604 6.88756 14.0965 6.8639C14.176 6.81181 14.1815 6.84605 14.1085 6.93884C14.0607 6.99964 14.0504 7.00302 14.0133 6.96984C13.976 6.9364 13.9448 6.95689 13.7052 7.17176C13.3242 7.51354 13.1467 7.56739 13.1467 7.34114C13.1467 7.2549 13.1445 7.25292 13.0642 7.268C12.8053 7.31659 12.8027 7.31649 12.734 7.25465C12.648 7.17727 12.4968 6.87116 12.4736 6.72745C12.4529 6.59947 12.3654 6.49638 12.2784 6.49729C12.2463 6.49762 12.1516 6.52646 12.0678 6.56137C11.984 6.59627 11.8641 6.63209 11.8012 6.64101L11.687 6.65718L11.7759 6.58455C11.8247 6.54461 11.869 6.509 11.8742 6.50539C11.8794 6.50181 11.8771 6.48168 11.869 6.46066C11.8484 6.40707 11.6637 6.4734 11.2073 6.69833C10.7329 6.93209 10.4632 7.08956 10.1465 7.31768C9.75874 7.59706 9.56723 7.81417 9.56723 7.97443C9.56723 8.01873 9.58868 8.00711 9.70051 7.90216C10.0187 7.60361 10.8364 7.05146 11.2806 6.83516C11.4623 6.74677 11.6208 6.67441 11.633 6.67441C11.7152 6.67434 11.3995 6.89982 11.1217 7.03957C10.4756 7.36473 9.71955 7.99746 9.71955 8.21307C9.71955 8.28981 9.89949 8.409 10.4392 8.68972C11.3979 9.18834 11.6792 9.42921 12.3181 10.2984C12.6048 10.6884 12.7511 10.9281 12.8738 11.2086C12.9752 11.4405 13.0845 11.7702 13.1083 11.9167C13.1175 11.9729 13.1609 12.0636 13.2056 12.1198C13.2816 12.2154 13.2868 12.2355 13.2946 12.4625C13.3068 12.8174 13.2562 13.0246 13.0685 13.3891C12.9822 13.5567 12.8903 13.743 12.8644 13.8032L12.8172 13.9127L12.8957 13.854C13.0868 13.7112 13.075 13.7129 13.0323 13.8339C12.9819 13.9766 12.9145 14.083 12.8153 14.1761L12.7341 14.2523L12.7517 14.1507C12.7614 14.0949 12.7757 14.0206 12.7833 13.9857C12.7933 13.9401 12.6732 14.0442 12.3563 14.3559C11.8644 14.8398 11.7943 14.8996 11.3484 15.2157C11.0035 15.4603 10.717 15.636 10.5205 15.7233C10.45 15.7547 10.3501 15.8091 10.2987 15.8443C10.2013 15.9107 9.4995 16.1624 9.21181 16.2341C9.12106 16.2567 8.93398 16.2968 8.79611 16.3231C8.51493 16.3767 8.4015 16.442 8.3503 16.5799C8.28437 16.7575 8.2469 16.8289 8.15964 16.9432C8.05698 17.0777 8.0421 17.1467 8.12019 17.1263C8.14812 17.119 8.17097 17.1226 8.17097 17.1344C8.17097 17.1887 8.10814 17.31 8.01844 17.4288C7.95219 17.5166 7.92462 17.5758 7.93375 17.6107C7.94165 17.6409 7.90448 17.7613 7.8447 17.8995C7.78829 18.0298 7.73427 18.1935 7.72467 18.2633C7.70497 18.4067 7.63963 18.5579 7.54983 18.6678C7.49815 18.731 7.48307 18.7372 7.4492 18.7091C7.42729 18.6909 7.40937 18.6617 7.40937 18.6441C7.40937 18.5624 7.34471 18.5562 7.05634 18.6101C6.77174 18.6633 6.77009 18.6633 6.70274 18.6136C6.65519 18.5786 6.61175 18.4969 6.55664 18.339C6.50188 18.1822 6.44146 18.0683 6.35664 17.962C6.1784 17.7387 6.15474 17.6701 6.15428 17.3748C6.15383 17.0727 6.18678 16.8915 6.3341 16.3864C6.48878 15.8561 6.48065 15.7395 6.27655 15.5603C6.07815 15.3862 5.95348 15.2078 5.76148 14.8235C5.65338 14.6071 5.4971 14.2986 5.41422 14.138C5.33133 13.9775 5.24207 13.7661 5.2159 13.6684C5.15662 13.4471 5.13512 13.0149 5.17165 12.7797C5.26502 12.1786 5.6087 11.4016 5.85218 11.241C5.96777 11.1648 6.13684 11.1782 6.33742 11.2793C6.57954 11.4013 6.60715 11.438 6.5858 11.609L6.56849 11.7475L6.72871 11.8363C6.81685 11.8852 6.93987 11.9387 7.00209 11.9551C7.13517 11.9902 7.30815 12.1032 7.36743 12.1936C7.42348 12.2792 7.42034 12.4074 7.3586 12.5514C7.26563 12.7683 7.30996 12.8239 7.5031 12.7326C7.63671 12.6695 7.7006 12.7045 7.679 12.829C7.67159 12.8718 7.66237 13.0307 7.65854 13.1821C7.65229 13.429 7.65661 13.4611 7.70033 13.4931C7.79776 13.5643 8.06142 13.5146 8.61523 13.3207C8.9331 13.2094 9.63681 12.8459 9.82581 12.6954C10.0731 12.4986 10.3371 12.2118 10.5288 11.9319C10.8311 11.4905 10.8791 11.3013 10.7254 11.1564C10.6783 11.1119 10.584 11.0546 10.516 11.0291C10.2218 10.9185 9.35715 10.4319 8.89552 10.1171C8.48716 9.83854 8.08513 9.41317 7.87318 9.03534C7.76564 8.84362 7.43219 7.99472 7.32443 7.63824C7.1077 6.92148 7.1093 6.46503 7.32999 6.05295C7.39929 5.92351 7.46895 5.83904 7.58847 5.7395C7.67847 5.66454 7.92647 5.45497 8.13959 5.27374C8.4275 5.02893 8.56717 4.92797 8.68314 4.88085C8.76897 4.84597 8.88022 4.78954 8.93033 4.75547C8.98042 4.7214 9.11281 4.66545 9.22451 4.63115C9.3731 4.58551 9.46487 4.53803 9.56649 4.45426C9.66306 4.37462 9.80226 4.30059 10.0234 4.21121C10.1984 4.14051 10.4112 4.05407 10.4964 4.01908C10.5816 3.98413 10.6865 3.91896 10.7296 3.87425C10.7727 3.82957 10.8925 3.63879 10.996 3.4503C11.0994 3.2618 11.2771 2.93843 11.3909 2.73168C11.6873 2.19316 11.9794 1.77199 12.1621 1.61998C12.3165 1.4915 12.4204 1.43065 12.6644 1.32595C12.8327 1.25373 13.0077 1.25885 13.2292 1.3425ZM10.5446 4.84884C10.054 5.01426 8.70408 5.7772 8.70408 5.88911C8.70408 5.94851 8.85122 5.89898 9.16437 5.73412C9.60203 5.50371 10.0937 5.26465 10.4397 5.11398C10.7957 4.95899 10.8873 4.90373 10.8873 4.84404C10.8873 4.7785 10.7474 4.78045 10.5446 4.84884ZM10.3161 5.32654C9.88227 5.54123 9.24517 5.9131 9.19277 5.9822C9.14995 6.03868 9.15287 6.06511 9.20194 6.06511C9.22443 6.06511 9.46718 5.94646 9.7414 5.80145C10.0156 5.65644 10.3885 5.4651 10.57 5.37622C10.9156 5.20705 10.9777 5.14416 10.8112 5.13203C10.7433 5.12705 10.6264 5.17298 10.3161 5.32654ZM11.5889 5.91553C11.4649 5.94468 10.8662 6.2107 10.5831 6.36251C10.3235 6.50168 10.017 6.70605 9.70129 6.95052C9.44821 7.14648 9.3848 7.22294 9.45352 7.24929C9.50693 7.2698 9.57637 7.23655 9.88636 7.04196C10.1536 6.87423 11.3749 6.24208 11.628 6.14053C11.7072 6.10873 11.804 6.05727 11.843 6.02614C11.9043 5.9773 11.9093 5.96395 11.8799 5.92848C11.8427 5.88365 11.7435 5.87926 11.5889 5.91553ZM13.7047 7.39851C13.6871 7.41979 13.666 7.4306 13.6579 7.42253C13.6498 7.41446 13.66 7.39722 13.6806 7.38422C13.7343 7.35023 13.7414 7.35439 13.7047 7.39851ZM12.7532 13.1987C12.7446 13.2127 12.7554 13.2241 12.7771 13.2241C12.7989 13.2241 12.8167 13.2127 12.8167 13.1987C12.8167 13.1848 12.806 13.1733 12.7928 13.1733C12.7797 13.1733 12.7619 13.1848 12.7532 13.1987ZM10.3923 13.3597C10.2577 13.4335 9.6049 13.8037 9.0595 14.1156C8.93632 14.186 8.88453 14.2278 8.91284 14.2337C8.97605 14.2472 9.31115 14.1506 9.56459 14.046C10.0938 13.8274 10.741 13.3369 10.57 13.284C10.556 13.2796 10.4761 13.3137 10.3923 13.3597ZM10.3898 13.7787C10.0499 13.9741 9.72036 14.1993 9.71995 14.2364C9.71881 14.3363 10.2029 14.1154 10.4875 13.8862C10.6782 13.7326 10.7313 13.6531 10.6398 13.6581C10.6154 13.6594 10.5029 13.7137 10.3898 13.7787ZM12.713 14.3348C12.6233 14.5727 12.2066 15.0057 11.8223 15.2606C11.4652 15.4973 10.8908 15.7924 10.7604 15.8063C10.6482 15.8181 10.651 15.8156 10.9127 15.6674C11.3822 15.4014 11.8598 15.1003 12.0346 14.96C12.128 14.8851 12.2861 14.7294 12.3859 14.6142C12.5414 14.4346 12.7098 14.265 12.7326 14.265C12.7363 14.265 12.7274 14.2964 12.713 14.3348ZM11.4078 14.4376C11.3379 14.4768 11.1219 14.6097 10.9276 14.7329C10.7334 14.8561 10.4307 15.031 10.2549 15.1216C9.83879 15.336 9.79045 15.38 9.88509 15.4586C9.97575 15.5338 10.8199 15.1607 11.1808 14.8858C11.3978 14.7206 11.6569 14.454 11.6426 14.4107C11.6242 14.3548 11.5377 14.3647 11.4078 14.4376ZM10.2781 15.9532C10.2781 15.9741 10.2733 15.9913 10.2674 15.9913C10.2616 15.9913 10.2374 15.9987 10.2137 16.0078C10.1765 16.0221 10.1746 16.0169 10.1998 15.9697C10.2335 15.9068 10.2781 15.8973 10.2781 15.9532Z" fill="#202426"/>
</svg>
