<svg width="20" height="20" viewBox="0 0 20 20" fill="none" xmlns="http://www.w3.org/2000/svg">
<g clip-path="url(#clip0_4995_67547)">
<path d="M9.11886 1.8362H11.1454V1.49756H8.44434V1.8362H9.11886Z" fill="#FF9B37"/>
<path d="M8.10625 2.17397H8.44489V1.83533H7.43066V2.17397H8.10625Z" fill="#FF9B37"/>
<path d="M11.4833 2.17397H12.1587V1.83533H11.1455V2.17397H11.4833Z" fill="#FF9B37"/>
<path d="M7.09258 2.5118H7.43122V2.17316H6.41699V2.5118H7.09258Z" fill="#FF9B37"/>
<path d="M12.497 2.5118H13.1726V2.17316H12.1592V2.5118H12.497Z" fill="#FF9B37"/>
<path d="M6.41756 2.84956V2.51093H5.74219V2.84956H6.41756Z" fill="#FF9B37"/>
<path d="M13.5106 2.84956H13.8482V2.51093H13.1729V2.84956H13.5106Z" fill="#FF9B37"/>
<path d="M5.74209 2.84961H5.4043V3.1874H5.74209V2.84961Z" fill="#FF9B37"/>
<path d="M14.1854 2.84961H13.8477V3.1874H14.1854V2.84961Z" fill="#FF9B37"/>
<path d="M5.4041 3.52496V3.18738H4.72852V3.52496H5.4041Z" fill="#FF9B37"/>
<path d="M14.5233 3.52496H14.862V3.18738H14.1855V3.52496H14.5233Z" fill="#FF9B37"/>
<path d="M4.72842 3.52496H4.39062V3.86276H4.72842V3.52496Z" fill="#FF9B37"/>
<path d="M15.1991 3.52496H14.8613V3.86276H15.1991V3.52496Z" fill="#FF9B37"/>
<path d="M4.39053 3.86273H4.05273V4.20052H4.39053V3.86273Z" fill="#FF9B37"/>
<path d="M15.537 3.86273H15.1992V4.20052H15.537V3.86273Z" fill="#FF9B37"/>
<path d="M4.05264 4.20056H3.71484V4.53835H4.05264V4.20056Z" fill="#FF9B37"/>
<path d="M15.8739 4.20056H15.5361V4.53835H15.8739V4.20056Z" fill="#FF9B37"/>
<path d="M3.71572 4.53833H3.37793V4.87612H3.71572V4.53833Z" fill="#FF9B37"/>
<path d="M16.2118 4.53833H15.874V4.87612H16.2118V4.53833Z" fill="#FF9B37"/>
<path d="M3.37698 4.87634H3.04004V5.55235H3.37698V4.87634Z" fill="#FF9B37"/>
<path d="M16.5498 4.87634H16.2129V5.55235H16.5498V4.87634Z" fill="#FF9B37"/>
<path d="M3.04023 5.55237H2.70117V5.88931H3.04023V5.55237Z" fill="#FF9B37"/>
<path d="M16.8868 5.55237H16.5498V5.88931H16.8868V5.55237Z" fill="#FF9B37"/>
<path d="M2.7012 5.88953H2.36426V6.56553H2.7012V5.88953Z" fill="#FF9B37"/>
<path d="M16.8877 6.56487H17.2263V5.88928H16.8877V6.56487Z" fill="#FF9B37"/>
<path d="M17.2256 7.24025V7.57889H17.5642V6.56488H17.2256V7.24025Z" fill="#FF9B37"/>
<path d="M2.36429 6.56549H2.02734V7.57844H2.36429V6.56549Z" fill="#FF9B37"/>
<path d="M17.5635 8.25365V8.59229H17.9021V7.57806H17.5635V8.25365Z" fill="#FF9B37"/>
<path d="M2.02754 7.57849H1.68848V8.59145H2.02754V7.57849Z" fill="#FF9B37"/>
<path d="M18.239 10.2802V8.59143H17.9004V11.2933H18.239V10.2802Z" fill="#FF9B37"/>
<path d="M1.68753 8.59143H1.35059V11.2933H1.68753V8.59143Z" fill="#FF9B37"/>
<path d="M17.5635 11.6311V12.3067H17.9021V11.2933H17.5635V11.6311Z" fill="#FF9B37"/>
<path d="M17.9023 8.59142V11.2933H17.5632V12.3063H17.2263V13.3195H16.8872V13.9953H16.5503V14.3324H16.2131V15.0084H15.8743V15.3473H15.5373V15.6844H15.1983V16.0214H14.8613V16.3602H14.1853V16.6974H13.8484V17.0343H13.1724V17.3734H12.1594V17.7103H11.1462V18.0492H8.44432V17.7103H7.43137V17.3734H6.41842V17.0343H5.74241V16.6974H5.40546V16.3602H4.72945V16.0214H4.39039V15.6844H4.05345V15.3473H3.7165V15.0084H3.37744V14.3324H3.04028V13.9953H2.70143V13.3195H2.36448V12.3063H2.02754V11.2933H1.68848V8.59142H2.02754V7.57847H2.36448V6.56551H2.70143V5.8895H3.04028V5.55235H3.37744V4.87655H3.7165V4.53749H4.05345V4.20054H4.39039V3.86338H4.72945V3.52453H5.40546V3.18738H5.74241V2.85043H6.41842V2.51158H7.43137V2.17442H8.44432V1.83557H11.1462V2.17442H12.1594V2.51158H13.1724V2.85043H13.8484V3.18738H14.1853V3.52453H14.8613V3.86338H15.1983V4.20054H15.5373V4.53749H15.8743V4.87655H16.2131V5.55235H16.5503V5.8895H16.8872V6.56551H17.2263V7.57847H17.5632V8.59142H17.9023Z" fill="#FFD643"/>
<path d="M2.02754 11.2933H1.68848V12.3063H2.02754V11.2933Z" fill="#FF9B37"/>
<path d="M17.2256 12.6443V13.3203H17.5642V12.3067H17.2256V12.6443Z" fill="#FF9B37"/>
<path d="M2.36429 12.3063H2.02734V13.3192H2.36429V12.3063Z" fill="#FF9B37"/>
<path d="M2.7012 13.3195H2.36426V13.9955H2.7012V13.3195Z" fill="#FF9B37"/>
<path d="M16.8877 13.6577V13.9963H17.2263V13.3203H16.8877V13.6577Z" fill="#FF9B37"/>
<path d="M3.04023 13.9952H2.70117V14.3322H3.04023V13.9952Z" fill="#FF9B37"/>
<path d="M16.8868 13.9952H16.5498V14.3322H16.8868V13.9952Z" fill="#FF9B37"/>
<path d="M3.37698 14.3324H3.04004V15.0084H3.37698V14.3324Z" fill="#FF9B37"/>
<path d="M16.5498 14.3324H16.2129V15.0084H16.5498V14.3324Z" fill="#FF9B37"/>
<path d="M3.71602 15.0084H3.37695V15.3475H3.71602V15.0084Z" fill="#FF9B37"/>
<path d="M16.2131 15.0084H15.874V15.3475H16.2131V15.0084Z" fill="#FF9B37"/>
<path d="M4.05277 15.3473H3.71582V15.6842H4.05277V15.3473Z" fill="#FF9B37"/>
<path d="M15.8741 15.3473H15.5371V15.6842H15.8741V15.3473Z" fill="#FF9B37"/>
<path d="M4.38968 15.6844H4.05273V16.0214H4.38968V15.6844Z" fill="#FF9B37"/>
<path d="M15.5373 15.6844H15.1982V16.0214H15.5373V15.6844Z" fill="#FF9B37"/>
<path d="M4.72871 16.0214H4.38965V16.3604H4.72871V16.0214Z" fill="#FF9B37"/>
<path d="M15.1983 16.0214H14.8613V16.3604H15.1983V16.0214Z" fill="#FF9B37"/>
<path d="M5.4055 16.3602H4.72949V16.6972H5.4055V16.3602Z" fill="#FF9B37"/>
<path d="M14.8606 16.3602H14.1846V16.6972H14.8606V16.3602Z" fill="#FF9B37"/>
<path d="M5.74222 16.6974H5.40527V17.0343H5.74222V16.6974Z" fill="#FF9B37"/>
<path d="M14.1846 16.6974H13.8477V17.0343H14.1846V16.6974Z" fill="#FF9B37"/>
<path d="M6.4182 17.0343H5.74219V17.3734H6.4182V17.0343Z" fill="#FF9B37"/>
<path d="M13.8479 17.0343H13.1719V17.3734H13.8479V17.0343Z" fill="#FF9B37"/>
<path d="M13.1721 17.3734H12.1592V17.7104H13.1721V17.3734Z" fill="#FF9B37"/>
<path d="M8.44362 17.7103H7.43066V18.0494H8.44362V17.7103Z" fill="#FF9B37"/>
<path d="M12.1585 17.7103H11.1455V18.0494H12.1585V17.7103Z" fill="#FF9B37"/>
<path d="M11.1463 18.0492H8.44434V18.3861H11.1463V18.0492Z" fill="#FF9B37"/>
<path d="M8.44486 0.485245H11.8213V0.146606H7.76758V0.485245H8.44486Z" fill="#FFFF74"/>
<path d="M7.43047 0.823014H7.76911V0.484375H6.75488V0.823014H7.43047Z" fill="#FFFF74"/>
<path d="M6.41756 1.16084H6.7562V0.822205H5.74219V1.16084H6.41756Z" fill="#FFFF74"/>
<path d="M5.74199 1.49861V1.15997H5.06641V1.49861H5.74199Z" fill="#FFFF74"/>
<path d="M5.06631 1.4986H4.72852V1.83639H5.06631V1.4986Z" fill="#FFFF74"/>
<path d="M4.72811 2.17397V1.83533H4.05273V2.17397H4.72811Z" fill="#FFFF74"/>
<path d="M4.05264 2.17401H3.71484V2.5118H4.05264V2.17401Z" fill="#FFFF74"/>
<path d="M3.71572 2.51178H3.37793V2.84957H3.71572V2.51178Z" fill="#FFFF74"/>
<path d="M3.37783 2.84961H3.04004V3.1874H3.37783V2.84961Z" fill="#FFFF74"/>
<path d="M3.03994 3.18738H2.70215V3.52517H3.03994V3.18738Z" fill="#FFFF74"/>
<path d="M2.70205 3.52496H2.36426V3.86276H2.70205V3.52496Z" fill="#FFFF74"/>
<path d="M2.36416 3.86273H2.02637V4.20052H2.36416V3.86273Z" fill="#FFFF74"/>
<path d="M2.02614 4.53835V4.19971H1.6875V4.8755H2.02614V4.53835Z" fill="#FFFF74"/>
<path d="M1.68838 4.8761H1.35059V5.21389H1.68838V4.8761Z" fill="#FFFF74"/>
<path d="M1.35133 5.55148V5.21411H1.0127V5.88927H1.35133V5.55148Z" fill="#FFFF74"/>
<path d="M1.01336 6.56487V5.88928H0.675781V6.90266H1.01336V6.56487Z" fill="#FFFF74"/>
<path d="M0.675813 7.57802V6.90265H0.338867V7.91581H0.677506L0.675813 7.57802Z" fill="#FFFF74"/>
<path d="M0.338639 11.2933V7.91583H0V11.9689H0.338639V11.2933Z" fill="#FFFF74"/>
<path d="M0.675813 12.3067V11.9681H0.338867V12.9817H0.677506L0.675813 12.3067Z" fill="#FFFF74"/>
<path d="M1.01336 13.3203V12.9817H0.675781V13.9955H1.01336V13.3203Z" fill="#FFFF74"/>
<path d="M1.35133 13.9955H1.0127V14.6709H1.35133V13.9955Z" fill="#FFFF74"/>
<path d="M1.68838 14.6708H1.35059V15.0086H1.68838V14.6708Z" fill="#FFFF74"/>
<path d="M2.02614 15.0086H1.6875V15.6842H2.02614V15.0086Z" fill="#FFFF74"/>
<path d="M2.36416 15.6842H2.02637V16.022H2.36416V15.6842Z" fill="#FFFF74"/>
<path d="M2.70205 16.0218H2.36426V16.3596H2.70205V16.0218Z" fill="#FFFF74"/>
<path d="M3.03994 16.3596H2.70215V16.6974H3.03994V16.3596Z" fill="#FFFF74"/>
<path d="M3.37783 16.6974H3.04004V17.0352H3.37783V16.6974Z" fill="#FFFF74"/>
<path d="M3.71572 17.0352H3.37793V17.3729H3.71572V17.0352Z" fill="#FFFF74"/>
<path d="M4.05264 17.373H3.71484V17.7108H4.05264V17.373Z" fill="#FFFF74"/>
<path d="M4.3904 17.7108H4.05176V18.0483H4.72713V17.7108H4.3904Z" fill="#FFFF74"/>
<path d="M5.06631 18.0483H4.72852V18.3861H5.06631V18.0483Z" fill="#FFFF74"/>
<path d="M5.40407 18.3861H5.06543V18.7247H5.74101V18.3861H5.40407Z" fill="#FFFF74"/>
<path d="M6.41756 18.7239H5.74219V19.0626H6.75535V18.7239H6.41756Z" fill="#FFFF74"/>
<path d="M7.43047 19.0617H6.75488V19.4003H7.76741V19.0617H7.43047Z" fill="#FFFF74"/>
<path d="M19.5902 9.94214H19.251V11.9678H19.5902V9.94214Z" fill="#A31B3F"/>
<path d="M19.2512 11.9678H18.9141V12.9816H19.2512V11.9678Z" fill="#A31B3F"/>
<path d="M18.9143 12.9817H18.5771V13.9955H18.9143V12.9817Z" fill="#A31B3F"/>
<path d="M18.5766 13.9957H18.2393V14.6702H18.5766V13.9957Z" fill="#A31B3F"/>
<path d="M18.2397 14.6702H17.9004V15.0095H18.2397V14.6702Z" fill="#A31B3F"/>
<path d="M17.8999 15.0095H17.5625V15.684H17.8999V15.0095Z" fill="#A31B3F"/>
<path d="M17.5627 15.684H17.2256V16.0212H17.5627V15.684Z" fill="#A31B3F"/>
<path d="M17.2258 16.0214H16.8887V16.3606H17.2258V16.0214Z" fill="#A31B3F"/>
<path d="M16.8881 16.3607H16.5488V16.698H16.8881V16.3607Z" fill="#A31B3F"/>
<path d="M16.5493 16.698H16.2119V17.0352H16.5493V16.698Z" fill="#A31B3F"/>
<path d="M16.2112 17.0352H15.874V17.3725H16.2112V17.0352Z" fill="#A31B3F"/>
<path d="M15.8743 17.3726H15.5371V17.7099H15.8743V17.3726Z" fill="#A31B3F"/>
<path d="M15.537 17.7097H14.8604V18.049H15.537V17.7097Z" fill="#A31B3F"/>
<path d="M14.8608 18.0492H14.5234V18.3866H14.8608V18.0492Z" fill="#A31B3F"/>
<path d="M14.5232 18.3864H13.8486V18.7237H14.5232V18.3864Z" fill="#A31B3F"/>
<path d="M13.849 18.7237H12.835V19.0609H13.849V18.7237Z" fill="#A31B3F"/>
<path d="M12.8351 19.0609H11.8213V19.4001H12.8351V19.0609Z" fill="#A31B3F"/>
<path d="M11.8809 19.4001H7.22656V19.7375H11.8809V19.4001Z" fill="#A31B3F"/>
<path d="M19.7944 9.94214H19.4551V12.171H19.7944V9.94214Z" fill="#A31B3F"/>
<path d="M19.4542 11.9678H19.251V12.171H19.4542V11.9678Z" fill="#A31B3F"/>
<path d="M19.4543 12.171H19.1172V13.1848H19.4543V12.171Z" fill="#A31B3F"/>
<path d="M19.1172 12.9817H18.9141V13.1849H19.1172V12.9817Z" fill="#A31B3F"/>
<path d="M19.1174 13.1848H18.7803V14.1986H19.1174V13.1848Z" fill="#A31B3F"/>
<path d="M18.7803 13.9957H18.5771V14.1989H18.7803V13.9957Z" fill="#A31B3F"/>
<path d="M18.7798 14.1989H18.4424V14.8734H18.7798V14.1989Z" fill="#A31B3F"/>
<path d="M18.4424 14.6702H18.2393V14.8734H18.4424V14.6702Z" fill="#A31B3F"/>
<path d="M18.4428 14.8734H18.1035V15.2127H18.4428V14.8734Z" fill="#A31B3F"/>
<path d="M18.1036 15.0095H17.9004V15.2126H18.1036V15.0095Z" fill="#A31B3F"/>
<path d="M18.103 15.2126H17.7656V15.8872H18.103V15.2126Z" fill="#A31B3F"/>
<path d="M17.7657 15.684H17.5625V15.8872H17.7657V15.684Z" fill="#A31B3F"/>
<path d="M17.7659 15.8872H17.4287V16.2244H17.7659V15.8872Z" fill="#A31B3F"/>
<path d="M17.4288 16.0214H17.2256V16.2245H17.4288V16.0214Z" fill="#A31B3F"/>
<path d="M17.429 16.2245H17.0918V16.5638H17.429V16.2245Z" fill="#A31B3F"/>
<path d="M17.0919 16.3607H16.8887V16.5638H17.0919V16.3607Z" fill="#A31B3F"/>
<path d="M17.0912 16.5638H16.752V16.9012H17.0912V16.5638Z" fill="#A31B3F"/>
<path d="M16.752 16.698H16.5488V16.9012H16.752V16.698Z" fill="#A31B3F"/>
<path d="M16.7524 16.9012H16.415V17.2383H16.7524V16.9012Z" fill="#A31B3F"/>
<path d="M16.4151 17.0352H16.2119V17.2383H16.4151V17.0352Z" fill="#A31B3F"/>
<path d="M16.4143 17.2383H16.0771V17.5757H16.4143V17.2383Z" fill="#A31B3F"/>
<path d="M16.0772 17.3726H15.874V17.5757H16.0772V17.3726Z" fill="#A31B3F"/>
<path d="M16.0774 17.5757H15.7402V17.9131H16.0774V17.5757Z" fill="#A31B3F"/>
<path d="M15.7403 17.7097H15.5371V17.9129H15.7403V17.7097Z" fill="#A31B3F"/>
<path d="M15.7401 17.9129H15.0635V18.2522H15.7401V17.9129Z" fill="#A31B3F"/>
<path d="M15.0635 18.0492H14.8604V18.2524H15.0635V18.0492Z" fill="#A31B3F"/>
<path d="M15.0639 18.2524H14.7266V18.5897H15.0639V18.2524Z" fill="#A31B3F"/>
<path d="M14.7266 18.3864H14.5234V18.5895H14.7266V18.3864Z" fill="#A31B3F"/>
<path d="M14.7263 18.5895H14.0518V18.9269H14.7263V18.5895Z" fill="#A31B3F"/>
<path d="M14.0518 18.7237H13.8486V18.9269H14.0518V18.7237Z" fill="#A31B3F"/>
<path d="M14.0521 18.9269H13.0381V19.264H14.0521V18.9269Z" fill="#A31B3F"/>
<path d="M13.0381 19.0609H12.835V19.264H13.0381V19.0609Z" fill="#A31B3F"/>
<path d="M13.0382 19.264H12.0244V19.6033H13.0382V19.264Z" fill="#A31B3F"/>
<path d="M12.0245 19.4001H11.8213V19.6033H12.0245V19.4001Z" fill="#A31B3F"/>
<path d="M12.0242 19.6033H7.9707V19.9407H12.0242V19.6033Z" fill="#A31B3F"/>
<path d="M19.5902 7.91644H19.251V9.94214H19.5902V7.91644Z" fill="#A31B3F"/>
<path d="M19.2512 6.90265H18.9141V7.91645H19.2512V6.90265Z" fill="#A31B3F"/>
<path d="M18.9143 5.88885H18.5771V6.90266H18.9143V5.88885Z" fill="#A31B3F"/>
<path d="M18.5766 5.21411H18.2393V5.88864H18.5766V5.21411Z" fill="#A31B3F"/>
<path d="M18.2397 4.87488H17.9004V5.21415H18.2397V4.87488Z" fill="#A31B3F"/>
<path d="M17.8999 4.20032H17.5625V4.87484H17.8999V4.20032Z" fill="#A31B3F"/>
<path d="M17.5627 3.86316H17.2256V4.20032H17.5627V3.86316Z" fill="#A31B3F"/>
<path d="M17.2258 3.52368H16.8887V3.86296H17.2258V3.52368Z" fill="#A31B3F"/>
<path d="M16.8881 3.18652H16.5488V3.52389H16.8881V3.18652Z" fill="#A31B3F"/>
<path d="M16.5493 2.84918H16.2119V3.18634H16.5493V2.84918Z" fill="#A31B3F"/>
<path d="M16.2112 2.51202H15.874V2.84939H16.2112V2.51202Z" fill="#A31B3F"/>
<path d="M15.8743 2.17462H15.5371V2.51199H15.8743V2.17462Z" fill="#A31B3F"/>
<path d="M15.537 1.83533H14.8604V2.1746H15.537V1.83533Z" fill="#A31B3F"/>
<path d="M14.8608 1.49799H14.5234V1.83536H14.8608V1.49799Z" fill="#A31B3F"/>
<path d="M14.5232 1.16083H13.8486V1.4982H14.5232V1.16083Z" fill="#A31B3F"/>
<path d="M13.849 0.823486H12.835V1.16064H13.849V0.823486Z" fill="#A31B3F"/>
<path d="M12.8351 0.484192H11.8213V0.823466H12.8351V0.484192Z" fill="#A31B3F"/>
<path d="M19.7944 7.71326H19.4551V9.94214H19.7944V7.71326Z" fill="#A31B3F"/>
<path d="M19.4542 7.71326H19.251V7.91644H19.4542V7.71326Z" fill="#A31B3F"/>
<path d="M19.4543 6.69946H19.1172V7.71326H19.4543V6.69946Z" fill="#A31B3F"/>
<path d="M19.1172 6.69946H18.9141V6.90265H19.1172V6.69946Z" fill="#A31B3F"/>
<path d="M19.1174 5.68567H18.7803V6.69947H19.1174V5.68567Z" fill="#A31B3F"/>
<path d="M18.7803 5.68567H18.5771V5.88885H18.7803V5.68567Z" fill="#A31B3F"/>
<path d="M18.7798 5.01093H18.4424V5.68545H18.7798V5.01093Z" fill="#A31B3F"/>
<path d="M18.4424 5.01093H18.2393V5.21411H18.4424V5.01093Z" fill="#A31B3F"/>
<path d="M18.4428 4.67169H18.1035V5.01097H18.4428V4.67169Z" fill="#A31B3F"/>
<path d="M18.1036 4.67169H17.9004V4.87488H18.1036V4.67169Z" fill="#A31B3F"/>
<path d="M18.103 3.99713H17.7656V4.67166H18.103V3.99713Z" fill="#A31B3F"/>
<path d="M17.7657 3.99713H17.5625V4.20031H17.7657V3.99713Z" fill="#A31B3F"/>
<path d="M17.7659 3.65997H17.4287V3.99713H17.7659V3.65997Z" fill="#A31B3F"/>
<path d="M17.4288 3.65997H17.2256V3.86316H17.4288V3.65997Z" fill="#A31B3F"/>
<path d="M17.429 3.3205H17.0918V3.65977H17.429V3.3205Z" fill="#A31B3F"/>
<path d="M17.0919 3.3205H16.8887V3.52368H17.0919V3.3205Z" fill="#A31B3F"/>
<path d="M17.0912 2.98334H16.752V3.32071H17.0912V2.98334Z" fill="#A31B3F"/>
<path d="M16.752 2.98334H16.5488V3.18652H16.752V2.98334Z" fill="#A31B3F"/>
<path d="M16.7524 2.646H16.415V2.98315H16.7524V2.646Z" fill="#A31B3F"/>
<path d="M16.4151 2.646H16.2119V2.84918H16.4151V2.646Z" fill="#A31B3F"/>
<path d="M16.4143 2.30884H16.0771V2.64621H16.4143V2.30884Z" fill="#A31B3F"/>
<path d="M16.0772 2.30884H15.874V2.51202H16.0772V2.30884Z" fill="#A31B3F"/>
<path d="M16.0774 1.97144H15.7402V2.3088H16.0774V1.97144Z" fill="#A31B3F"/>
<path d="M15.7403 1.97144H15.5371V2.17462H15.7403V1.97144Z" fill="#A31B3F"/>
<path d="M15.7401 1.6322H15.0635V1.97148H15.7401V1.6322Z" fill="#A31B3F"/>
<path d="M15.0635 1.6322H14.8604V1.83539H15.0635V1.6322Z" fill="#A31B3F"/>
<path d="M15.0639 1.2948H14.7266V1.63217H15.0639V1.2948Z" fill="#A31B3F"/>
<path d="M14.7266 1.2948H14.5234V1.49798H14.7266V1.2948Z" fill="#A31B3F"/>
<path d="M14.7263 0.957642H14.0518V1.29501H14.7263V0.957642Z" fill="#A31B3F"/>
<path d="M14.0518 0.957642H13.8486V1.16082H14.0518V0.957642Z" fill="#A31B3F"/>
<path d="M14.0521 0.6203H13.0381V0.957458H14.0521V0.6203Z" fill="#A31B3F"/>
<path d="M13.0381 0.6203H12.835V0.823484H13.0381V0.6203Z" fill="#A31B3F"/>
<path d="M13.0382 0.281006H12.0244V0.62028H13.0382V0.281006Z" fill="#A31B3F"/>
<path d="M12.0245 0.281006H11.8213V0.484189H12.0245V0.281006Z" fill="#A31B3F"/>
<path d="M6.60622 13.3328V13.3362H6.60961V13.6873H6.96095V13.6907H6.96328V14.0416H7.31461V14.045H7.31779V14.3959H7.66913V14.3997H7.6723V14.7506H8.02364V14.754H8.02703V15.1053H7.15926V15.1085H7.16265V15.4596H7.86913V15.4628H7.87337V15.8061H12.1235V15.4624H12.1275V15.4592H12.8334V15.1081H12.8368V15.1049H13.1881V14.7536H13.1913V14.7504H13.5426V14.3997H13.5456V14.3963H13.8971V14.045H13.9003V14.0416H14.2516V13.6907H14.2548V13.6871H14.6061V13.3362H14.6095V13.333H14.9617V12.6271H14.9636V12.6252H15.3076V10.8552H14.9636V10.8531H14.9617V10.1456H14.6085H14.6064V9.79189H14.254V9.78998H14.2521V9.08328H13.8994V9.08117H13.8973C13.8973 8.84567 13.8973 8.61011 13.8973 8.37447H13.8994V8.37235H14.2518V7.66587H14.2542V7.66375H14.6066V7.31135H14.6087V7.30945H14.953V4.83082H14.6085V4.82871H14.6066V4.48541H13.8992V4.82892H13.8973V4.83104H13.19V5.18322H13.1881V5.18513H12.8357V5.53773H12.8336V5.53964H12.4808V5.8914H12.4791V5.89352H12.1275V6.24591H12.1256V6.24803H11.4174V6.24612H11.4153C11.4153 6.13099 11.214 6.5109 11.214 6.39703C10.2595 6.39703 10.7442 7.52766 9.80001 7.52766V7.8718H9.7979V7.87371H9.09077V7.87159H9.08887V7.51962H8.73626V7.5175H8.73415V7.1651H8.38133V7.1632H8.37942V6.8108H8.02703V6.8089H8.02512V6.4565H7.318V6.45439H7.3161V6.11088H6.60876V6.45439H6.60686V6.45671H6.2625V8.93471H6.60686V8.93682H6.60897V9.28943H6.96137V9.29133H6.96349V9.9974H7.31588V9.99951H7.318C7.318 10.2351 7.318 10.4707 7.318 10.7062H7.3161V10.7081H6.96328V11.4154H6.96116V11.4174H7.82744V11.7697H7.82553V11.7717H7.47335V12.4786H7.47123V12.4807H7.1273C7.1273 13.0803 5.9082 12.0362 5.9082 12.6246H6.25235V12.6267H6.25446V13.3326L6.60622 13.3328Z" fill="#A31B3F"/>
<path d="M18.9138 7.91646V6.90266H18.5764V5.88865H18.2393V5.21412H17.9019V4.87675H17.5633V4.19947H17.2253V3.86295H16.8866V3.52431H16.5488V3.18842H16.2136V2.85105H15.8735V2.51242H15.5369V2.17462H14.8597V1.83598H14.5229V1.49798H13.8484V1.16061H12.8346V0.823453H11.8208V0.486084H7.76729V0.823453H6.75539V1.16061H5.74159V1.49798H5.06431V1.83514H4.7297V2.17378H4.05242V2.51093H3.7159V2.84957H3.37726V3.18694H3.03925V3.52219H2.70061V3.86083H2.36473V4.20032H2.02736V4.8776H1.68872V5.21412H1.35071V5.88865H1.01356V6.90266H0.674918V7.91646H0.336914V11.97H0.674283V12.9817H1.01292V13.9957H1.35071V14.6729H1.68808V15.008H2.02672V15.6853H2.36409V16.0226H2.69934V16.3613H3.03798V16.6986H3.37514V17.0358H3.71378V17.3732H4.05094V17.7103H4.72822V18.049H5.06347V18.3861H5.74075V18.7237H6.75455V19.0623H7.76729V19.3995H11.8208V19.063H12.8346V18.7243H13.8484V18.3863H14.5229V18.0492H14.8603V17.7105H15.5376V17.3725H15.8735V17.0352H16.2121V16.698H16.5474V16.3606H16.8845V16.022H17.2231V15.684H17.5605V15.0067H17.8992V14.6723H18.2365V13.995H18.5737V12.9817H18.9111V11.97H19.2482V7.91646H18.9138ZM18.2393 11.2933H17.9019V12.3071H17.5633V13.319H17.2253V13.9963H16.8866V14.3335H16.5488V15.008H16.2136V15.3466H15.8735V15.6838H15.5369V16.0211H15.1983V16.3598H14.8603V16.6972H14.183V17.0343H13.8484V17.3717H13.1711V17.7088H12.158V18.0475H11.1461V18.3846H8.44457V18.0492H7.42992V17.7105H6.41802V17.3725H5.74075V17.0352H5.40422V16.698H4.7297V16.3606H4.39106V16.022H4.05305V15.684H3.7159V15.3468H3.37726V15.0082H3.03925V14.3328H2.70061V13.9957H2.36473V13.3184H2.02736V12.3071H1.68872V11.2933H1.35071V8.59099H1.68808V7.57909H2.02672V6.56529H2.36409V5.88801H2.69934V5.55276H3.03798V4.87548H3.37514V4.53684H3.71378V4.20032H4.05094V3.86295H4.38831V3.52431H4.72695V3.18842H5.40147V2.85105H5.73884V2.51242H6.41612V2.17462H7.42801V1.83598H8.44457V1.49798H11.1461V1.83514H12.158V2.17378H13.172V2.51093H13.8492V2.84957H14.1845V3.18694H14.8618V3.52219H15.1991V3.86083H15.5378V4.20032H15.8735V4.53684H16.2121V4.87548H16.5474V5.55276H16.8845V5.88801H17.2231V6.56529H17.5605V7.57909H17.8992V8.59099H18.2365L18.2393 11.2933Z" fill="#FFD643"/>
<path d="M7.43092 17.3734H6.41797V17.7104H7.43092V17.3734Z" fill="#FF9B37"/>
<path d="M11.9204 15.256V15.6025H7.6694V15.256L7.66602 15.2592H11.9238L11.9204 15.256Z" fill="#A31B3F"/>
<path d="M8.37788 6.04505V5.69922H11.2125V6.04505L11.2144 6.04315H8.37598L8.37788 6.04505Z" fill="#FFFF74"/>
<path d="M5.18631 7.10605H4.83984V4.62785H5.18631L5.18441 4.62573V7.10817L5.18631 7.10605Z" fill="#FFFF74"/>
<path d="M14.4037 4.62767H14.7498V7.10629H14.4033L14.4054 7.1082V4.62555L14.4037 4.62767Z" fill="#A31B3F"/>
<path d="M4.83229 12.4216H4.4873V10.652H4.83229L4.83018 10.6499C4.83018 11.2413 4.83018 11.8325 4.83018 12.4237L4.83229 12.4216Z" fill="#FFFF74"/>
<path d="M14.7578 10.652H15.1039V12.422H14.758L14.7597 12.4239V10.6499L14.7578 10.652Z" fill="#A31B3F"/>
<path d="M5.18713 13.1298H4.83198V12.4216L4.83008 12.4237L5.18057 12.4223C5.18156 12.659 5.18269 12.8959 5.18396 13.133L5.18713 13.1298Z" fill="#FFFF74"/>
<path d="M5.8959 8.16921H5.54118V7.46082L5.53906 7.46272H5.89379V8.17132L5.8959 8.16921Z" fill="#FFFF74"/>
<path d="M14.0481 7.46057V8.16917H13.6934L13.6955 8.17129V7.46269H14.05L14.0481 7.46057Z" fill="#A31B3F"/>
<path d="M14.7579 12.4221V13.1298H14.4023L14.4055 13.133L14.4081 12.4242H14.7596L14.7579 12.4221Z" fill="#A31B3F"/>
<path d="M5.89567 8.87991C5.89567 8.643 5.89567 8.4061 5.89567 8.16919L5.89355 8.17131H6.23897V8.87821H5.89377L5.89567 8.87991Z" fill="#FFFF74"/>
<path d="M13.6937 8.16919C13.6937 8.40595 13.6937 8.64286 13.6937 8.87991L13.6958 8.878H13.3506V8.17131H13.696L13.6937 8.16919Z" fill="#A31B3F"/>
<path d="M7.66665 6.04506H8.37758L8.37568 6.04315V6.39724H7.66602L7.66877 6.39999V6.04315L7.66665 6.04506Z" fill="#FFFF74"/>
<path d="M7.66965 15.256H6.96042V14.9017L6.95703 14.9049H7.66627V15.2592L7.66965 15.256Z" fill="#A31B3F"/>
<path d="M11.2119 6.04509H11.9231L11.9212 6.04297C11.9212 6.16192 11.9212 6.28086 11.9212 6.39981L11.9237 6.39706H11.2138V6.04318L11.2119 6.04509Z" fill="#FFFF74"/>
<path d="M14.4033 9.94325H14.758V10.6521L14.7599 10.6499H14.4054V9.94135L14.4033 9.94325Z" fill="#A31B3F"/>
<path d="M12.6292 14.9016V15.2561H11.9199L11.9233 15.2592V14.9049H12.6325L12.6292 14.9016Z" fill="#A31B3F"/>
<path d="M5.54097 9.58889V8.87987H5.89548L5.89358 8.87817V9.58678H5.53906L5.54097 9.58889Z" fill="#FFFF74"/>
<path d="M12.9873 4.9813V4.62785H13.6965L13.6946 4.62573V4.98003H12.9854L12.9873 4.9813Z" fill="#FFFF74"/>
<path d="M5.89355 4.62764H6.60343V4.9813L6.60533 4.9794H5.89546V4.62573L5.89355 4.62764Z" fill="#FFFF74"/>
<path d="M13.6934 8.8799H14.0479V9.58871L14.0498 9.5868H13.6959V8.87799L13.6934 8.8799Z" fill="#A31B3F"/>
<path d="M13.6957 4.62789V4.2829H14.4032V4.62852L14.4049 4.62641H13.6934L13.6957 4.62789Z" fill="#FFFF74"/>
<path d="M4.83219 10.652V9.94301H5.18565L5.18374 9.9411V10.6499H4.83008L4.83219 10.652Z" fill="#FFFF74"/>
<path d="M5.18661 4.62789V4.2829H5.89373V4.62852L5.89563 4.62662H5.18555L5.18661 4.62789Z" fill="#FFFF74"/>
<path d="M5.18555 9.943V9.58891H5.54112L5.53921 9.58679V9.94109H5.18555V9.943Z" fill="#FFFF74"/>
<path d="M14.0488 9.5887H14.4033V9.94321L14.4055 9.9413H14.0507V9.58679L14.0488 9.5887Z" fill="#A31B3F"/>
<path d="M14.4036 7.10626V7.46056H14.0488L14.0509 7.46268V7.10817H14.4057L14.4036 7.10626Z" fill="#A31B3F"/>
<path d="M5.54099 7.4608H5.18648V7.10608L5.18457 7.1082H5.53887V7.46271L5.54099 7.4608Z" fill="#FFFF74"/>
<path d="M5.54128 13.4841H5.18677V13.1298L5.18359 13.1332H5.53811V13.4875L5.54128 13.4841Z" fill="#FFFF74"/>
<path d="M14.4024 13.1298V13.4839H14.0479L14.051 13.4875V13.133H14.4055L14.4024 13.1298Z" fill="#A31B3F"/>
<path d="M5.89599 13.8384H5.54126V13.4841L5.53809 13.4875H5.89281V13.8418L5.89599 13.8384Z" fill="#FFFF74"/>
<path d="M14.0477 13.4839V13.8384H13.6934L13.6965 13.8418V13.4875H14.051L14.0477 13.4839Z" fill="#A31B3F"/>
<path d="M11.9228 6.04529V5.69078H12.2771L12.2752 5.68866V6.04317H11.9209L11.9228 6.04529Z" fill="#FFFF74"/>
<path d="M6.25124 14.1927H5.89673V13.8384L5.89355 13.8418H6.24807V14.1961L6.25124 14.1927Z" fill="#FFFF74"/>
<path d="M13.6938 13.8384V14.1927H13.3389L13.342 14.1961V13.8418H13.6968L13.6938 13.8384Z" fill="#A31B3F"/>
<path d="M6.60595 14.5478H6.25122V14.1927L6.24805 14.1961H6.60256V14.5504L6.60595 14.5478Z" fill="#FFFF74"/>
<path d="M13.3389 14.1927V14.5478H12.9844L12.9876 14.551V14.1961H13.3421L13.3389 14.1927Z" fill="#A31B3F"/>
<path d="M6.96044 14.9017H6.60593V14.5479L6.60254 14.551H6.95705V14.9055L6.96044 14.9017Z" fill="#FFFF74"/>
<path d="M12.9846 14.5479V14.9022H12.6299L12.6333 14.9055V14.5504H12.9878L12.9846 14.5479Z" fill="#A31B3F"/>
<path d="M7.31152 5.69096H7.66625V6.04505L7.66815 6.04314H7.31343V5.68884L7.31152 5.69096Z" fill="#FFFF74"/>
<path d="M12.2773 5.69074V5.33644H12.6322L12.6301 5.33453V5.68862H12.2754L12.2773 5.69074Z" fill="#FFFF74"/>
<path d="M6.95703 5.33644H7.31154V5.69095L7.31345 5.68883H6.95894V5.33453L6.95703 5.33644Z" fill="#FFFF74"/>
<path d="M12.633 5.33648V4.98134H12.9873L12.9854 4.97943V5.33394H12.6309L12.633 5.33648Z" fill="#FFFF74"/>
<path d="M6.60352 4.98131H6.95803V5.33582L6.95993 5.33392H6.60479V4.98004L6.60352 4.98131Z" fill="#FFFF74"/>
<path d="M12.9876 14.5504H12.633V14.9049H11.9238V15.2592H7.66606V14.9049H6.95683V14.5504H6.60231V14.1961H6.2478V13.8418H5.89329V13.4875H5.53856V13.133H5.18405C5.18292 12.8962 5.18179 12.6593 5.18066 12.4223V10.9985H5.54047V10.6482H5.89583V10.3079H6.95958V11.0091H7.31642V11.3477H8.02798V10.9994H8.38271V10.6442H8.73764V10.309H10.8647V10.658H11.2192V11.0133H11.5754V11.352H12.2807V11.0006H12.6356V10.3062H13.7004V10.6578H14.0549V11.0121H14.4077V12.4242L14.4052 13.133H14.0513V13.4875H13.6968V13.8418H13.3421V14.1961H12.9876V14.5504ZM10.5087 13.4865H11.223V13.1267H11.9238V12.7753H12.269V12.0769H11.9173V12.4288H11.5604V12.7675H10.5V12.4291H9.08496V12.77H8.01931V12.4185H7.66183V12.0777H7.32319V12.7851H7.67686V13.1364H8.3772V13.486H9.07988V14.2003H9.44815V14.5422H10.1508V14.1908H10.5087V13.4865ZM8.73764 11.0102V11.7158H9.08792V12.061H10.5081V11.7092H10.8497V10.9985H10.4967V10.6611H9.07671V11.0099L8.73764 11.0102Z" fill="#FFD643"/>
<path d="M14.4082 12.4242V11.012H14.0554V10.6577H13.7009V10.3062H12.6354V11.0006H12.2798V11.3519H11.5753V11.0133H11.2191V10.658H10.8645V10.3089H8.73747V10.6442H8.38253V10.9993H8.02781V11.3484H7.3173V11.0097H6.96046V10.3079H5.89671V10.6482H5.54135V10.9985H5.18155V12.4223L4.83105 12.4237C4.83105 11.8324 4.83105 11.2411 4.83105 10.6499H5.18536V9.94109H5.54008V9.58679H5.89459V8.87819H6.24V8.17128H5.89353V7.46268H5.53881V7.10817H5.18536V4.62573H5.89629V4.98003H6.60552V5.33455H6.96004V5.68885H7.31455V6.04315H7.66927V6.39935H7.32005V6.74286H7.66589V6.39724H8.37555V6.04315H11.214V6.39724H11.9234V6.74519H12.2674V6.39935H11.9209C11.9209 6.28041 11.9209 6.16146 11.9209 6.04251H12.2756V5.68864H12.6303V5.33455H12.9848V4.98003H13.6937V4.62573H14.4048V7.10838H14.0505V7.46289H13.696V8.17149H13.3506V8.87819H13.6962V9.58679H14.0505V9.94131H14.4052V10.6499H14.7597V12.424L14.4082 12.4242ZM13.3391 7.10605H13.699V6.74731H14.0376V5.34322H13.3368V5.6935H12.9821V6.04865H12.6422V6.74434H12.9901V6.40824H13.3417V7.10859H12.9937V7.45104H13.3391V7.10605ZM6.24995 7.10605V7.45273H6.59304V7.1088H6.24784V6.4074H6.60997V6.74265H6.95051V6.04124H6.60002V5.68588H6.2436V5.34724H5.54897V6.75916H5.89988V7.1069L6.24995 7.10605ZM11.9135 9.58446V8.88983H11.21V9.23546H10.87V9.9339H11.2174V9.58489L11.9135 9.58446ZM7.67732 8.88242V9.59526H8.38232V9.93157H8.7235V9.23101H8.37004V8.88242H7.67732ZM10.8631 8.5131H11.5579V7.82862H10.8631V8.5131ZM8.71905 8.52093V7.82587H8.03416V8.52093H8.71905Z" fill="#FF9B37"/>
<path d="M9.07993 13.486H8.37726V13.1364H7.67627V12.7851H7.32324V12.0777H7.66188V12.4185H8.01872V12.77H9.08438V12.4291H10.5001V12.7664H11.5605V12.4278H11.9173V12.0767H12.2691V12.7751H11.9239V13.1264H11.2231V13.4862H10.5088V13.1408H9.07993V13.486Z" fill="#A31B3F"/>
<path d="M8.7373 11.0099H9.07594V10.6611H10.4959V10.9985H10.8489V11.7092H10.5078V12.0608H9.08758V11.7156H8.7373V11.0099Z" fill="#A31B3F"/>
<path d="M9.08008 13.486V13.1408H10.5081V14.1908H10.151V14.5421H9.44835V14.2003H9.08008V13.486Z" fill="#FF9B37"/>
<path d="M6.24981 7.10649H5.89974V6.75917H5.54883V5.34747H6.24346V5.68611H6.59946V6.04147H6.95037V6.74288H6.60983V6.40741H6.24769V7.10882L6.24981 7.10649Z" fill="#FFD643"/>
<path d="M13.3421 7.10863V6.40828H12.9905V6.74438H12.6426V6.04869H12.9825V5.69354H13.3372V5.34326H14.0393V6.74734H13.7006V7.10609H13.3408L13.3421 7.10863Z" fill="#FFD643"/>
<path d="M11.9135 9.58489H11.2174V9.9339H10.8701V9.23545H11.21V8.88983H11.9135V9.58489Z" fill="#A31B3F"/>
<path d="M7.67773 8.88245H8.37046V9.23103H8.72392V9.93096H8.38274V9.59528H7.67773V8.88245Z" fill="#A31B3F"/>
<path d="M10.8633 8.51309V7.82861H11.5581V8.51309H10.8633Z" fill="#FFD643"/>
<path d="M8.71992 8.52092H8.03418V7.82587H8.71992V8.52092Z" fill="#FFD643"/>
<path d="M13.3396 7.10608V7.45107H12.9941V7.10862H13.3421L13.3396 7.10608Z" fill="#FFD643"/>
<path d="M6.24805 7.10883H6.59325V7.45319H6.25016V7.10651L6.24805 7.10883Z" fill="#FFD643"/>
<path d="M11.9209 6.39933H12.2674V6.74453H11.9234V6.39722L11.9209 6.39933Z" fill="#FFFF74"/>
<path d="M7.66615 6.39722V6.74348H7.32031V6.39933H7.6689L7.66615 6.39722Z" fill="#FFFF74"/>
</g>
<defs>
<clipPath id="clip0_4995_67547">
<rect width="20" height="20" fill="white"/>
</clipPath>
</defs>
</svg>
