<svg width="20" height="20" viewBox="0 0 20 20" fill="none" xmlns="http://www.w3.org/2000/svg">
<path d="M9.40491 20C14.0468 20 17.8098 16.237 17.8098 11.5951C17.8098 10.4171 17.5675 9.29579 17.13 8.27817C16.9684 7.90259 16.7263 7.45319 16.4149 6.95634C15.0724 4.81467 12.4405 1.79149 9.40491 0C6.36933 1.79149 3.73742 4.81467 2.39493 6.95633C2.08236 7.45497 1.8397 7.90582 1.6781 8.28221C1.24168 9.29876 1 10.4187 1 11.5951C1 16.237 4.76301 20 9.40491 20Z" fill="url(#paint0_linear_5510_43591)"/>
<path d="M13.8838 9.93864C13.8838 9.80311 13.7739 9.69324 13.6384 9.69324H5.17216C5.03663 9.69324 4.92676 9.80311 4.92676 9.93864V12.3926C4.92676 12.5282 5.03663 12.638 5.17216 12.638H7.74884C7.88437 12.638 7.99424 12.7479 7.99424 12.8834V15.3374C7.99424 15.4729 8.10411 15.5828 8.23964 15.5828H10.5709C10.7065 15.5828 10.8163 15.4729 10.8163 15.3374V12.8834C10.8163 12.7479 10.9262 12.638 11.0617 12.638H13.6384C13.7739 12.638 13.8838 12.5282 13.8838 12.3926V9.93864Z" fill="white"/>
<defs>
<linearGradient id="paint0_linear_5510_43591" x1="9.40491" y1="0" x2="9.40491" y2="20" gradientUnits="userSpaceOnUse">
<stop stop-color="#00F4FC"/>
<stop offset="1" stop-color="#00B9F2"/>
</linearGradient>
</defs>
</svg>
