<svg width="32" height="32" viewBox="0 0 32 32" fill="none" xmlns="http://www.w3.org/2000/svg">
<rect width="32" height="32" rx="3" fill="#057AFC"/>
<path d="M26 16.3735C26 14.7835 24.5189 13.3967 22.1862 12.5085C22.2351 12.1245 22.272 11.7462 22.2822 11.3824C22.3457 9.20811 21.7043 7.67233 20.4775 7.05824C20.1086 6.87354 19.6987 6.77979 19.2591 6.77979C18.0985 6.77979 16.7735 7.44941 15.4795 8.59646C14.0711 7.72014 12.6965 7.22493 11.5303 7.22493C10.7562 7.22493 10.1056 7.43985 9.5967 7.86391C8.4439 8.82539 8.27587 10.6865 8.94352 12.8777C7.11839 13.7594 6 14.9907 6 16.3735C6 17.9479 7.45109 19.3237 9.74428 20.2136C9.73518 20.3478 9.72182 20.4856 9.71782 20.6172C9.65448 22.7917 10.2959 24.3275 11.5225 24.9422C11.8913 25.1271 12.3008 25.2205 12.7407 25.2205C14.0806 25.2205 15.639 24.3324 17.1157 22.842C18.3132 23.4985 19.468 23.8657 20.4695 23.8657C21.2438 23.8657 21.8946 23.6506 22.4035 23.2265C23.285 22.4913 23.5873 21.228 23.3855 19.6963C25.0115 18.8294 26 17.6693 26 16.3735ZM19.2591 7.6901C19.5556 7.6901 19.828 7.75101 20.0694 7.87168C20.9487 8.31195 21.4243 9.58192 21.3718 11.3555C21.3638 11.6333 21.3403 11.92 21.3078 12.2114C20.6397 12.0102 19.9205 11.8445 19.1546 11.7238C18.2256 10.7021 17.2388 9.82083 16.2521 9.11519C17.3109 8.21264 18.3621 7.6901 19.2591 7.6901ZM11.2063 17.3203C11.5272 17.775 11.8681 18.2293 12.2422 18.6782C12.6982 19.225 13.1729 19.7358 13.6579 20.2109C12.5918 20.0811 11.5994 19.8673 10.7189 19.5855C10.812 18.8596 10.9751 18.0995 11.2063 17.3203ZM10.087 13.3815C10.7184 13.1404 11.4234 12.9373 12.1826 12.7786C11.9906 13.1135 11.803 13.4549 11.6254 13.8094C11.3856 14.2883 11.172 14.7708 10.9747 15.2525C10.6173 14.6146 10.3232 13.987 10.087 13.3815ZM12.9418 18.095C12.4319 17.4835 11.9772 16.8567 11.5707 16.2295C11.8174 15.5605 12.1048 14.8864 12.4397 14.2168C12.7284 13.6402 13.0416 13.0917 13.3692 12.5694C14.2058 12.4543 15.0899 12.3916 16.0002 12.3916C16.9348 12.3916 17.8425 12.4581 18.6986 12.5792C18.8199 12.7166 18.9404 12.8539 19.0586 12.9962C19.6556 13.712 20.1841 14.4486 20.6384 15.1818C20.3543 16.0417 19.9943 16.9162 19.5605 17.7825C19.1182 18.6667 18.6212 19.4904 18.0941 20.2393C17.4184 20.3122 16.7192 20.3554 15.9998 20.3554C15.7102 20.3554 15.4244 20.3478 15.1412 20.3358C14.3833 19.6819 13.6372 18.9298 12.9418 18.095ZM20.0957 12.8386C20.4691 12.9237 20.8277 13.0188 21.1705 13.1248C21.1158 13.4193 21.05 13.718 20.9735 14.0207C20.7033 13.6251 20.4064 13.2309 20.0957 12.8386ZM20.3748 18.1902C20.7011 17.5376 20.9847 16.8807 21.2319 16.2255C21.7795 17.2652 22.1693 18.2733 22.3746 19.181C21.5016 19.5615 20.4553 19.8647 19.304 20.0687C19.6827 19.4775 20.0437 18.8516 20.3748 18.1902ZM15.5737 9.75151C16.2965 10.256 17.0254 10.8641 17.7314 11.5569C17.1691 11.5104 16.5934 11.4813 16.0007 11.4813C15.3259 11.4813 14.67 11.514 14.0364 11.5738C14.5301 10.8894 15.0483 10.2791 15.5737 9.75151ZM10.1799 8.56312C10.5208 8.2791 10.9752 8.13529 11.5303 8.13529C12.4722 8.13529 13.6081 8.53913 14.7939 9.24721C14.1084 9.95219 13.443 10.7898 12.8262 11.7271C11.7074 11.9044 10.6833 12.174 9.78562 12.5185C9.25311 10.7421 9.33689 9.2659 10.1799 8.56312ZM9.8434 19.2677C8.05429 18.5356 6.91036 17.5021 6.91036 16.3735C6.91036 15.3776 7.80423 14.4552 9.24401 13.7481C9.57184 14.5888 10.0132 15.4645 10.5604 16.3482C10.2185 17.3487 9.97877 18.332 9.8434 19.2677ZM12.7411 24.3092C12.4449 24.3092 12.1722 24.2483 11.9308 24.1279C11.0516 23.6878 10.5769 22.4174 10.6282 20.6434C10.6291 20.603 10.6346 20.5594 10.6364 20.5194C11.8572 20.8928 13.2597 21.1408 14.7799 21.2279C15.2893 21.6524 15.8036 22.0311 16.3148 22.3623C15.0708 23.5807 13.7988 24.3092 12.7411 24.3092ZM16.9535 21.6875C16.7401 21.5533 16.5259 21.411 16.3107 21.2582C16.6632 21.2533 17.0104 21.2395 17.3526 21.2177C17.2202 21.38 17.0877 21.5364 16.9535 21.6875ZM21.8208 22.5277C21.4799 22.8113 21.026 22.9553 20.47 22.9553C19.6747 22.9553 18.7408 22.6677 17.7558 22.1525C18.0425 21.8227 18.3248 21.4715 18.599 21.0995C20.0748 20.9119 21.4083 20.5705 22.5226 20.106C22.6191 21.1777 22.4049 22.0405 21.8208 22.5277ZM23.2112 18.7574C22.9267 17.6052 22.3893 16.342 21.6284 15.0567C21.7964 14.5059 21.9323 13.963 22.0368 13.4311C23.8949 14.1659 25.0897 15.2205 25.0897 16.3735C25.0897 17.2594 24.3803 18.0867 23.2112 18.7574Z" fill="white"/>
<path d="M16.0003 14.1658C16.9153 14.1658 17.6577 14.9076 17.6577 15.8231C17.6577 16.7383 16.9153 17.4802 16.0003 17.4802C15.0849 17.4802 14.343 16.7384 14.343 15.8231C14.343 14.9076 15.0849 14.1658 16.0003 14.1658Z" fill="white"/>
</svg>
