<svg width="20" height="20" viewBox="0 0 20 20" fill="none" xmlns="http://www.w3.org/2000/svg">
<path d="M17.6512 12.5719C18.3218 12.4443 18.0006 10.85 17.7787 10.4109C17.546 9.95513 17.0806 10.1995 17.2009 9.56521C17.4067 8.20591 17.4369 6.80244 17.314 5.43968C17.226 4.0492 16.7481 2.44283 15.0595 3.39131C14.2355 3.82335 13.4878 4.37431 12.7416 4.92663C12.4585 5.10152 12.1062 4.89483 11.8197 4.81543C11.0436 4.47967 10.0112 4.55969 9.59937 4.55078C9.18755 4.54187 8.16947 4.71634 7.61334 4.97879C7.34301 5.10636 7.25471 5.07572 7.00889 4.88256C6.366 4.37698 5.68143 3.92505 4.9609 3.53742C3.02303 2.26792 2.52672 4.0727 2.44909 5.70606C2.4364 6.94669 2.3691 8.19591 2.59447 9.42527C2.64459 9.66773 2.73401 9.97552 2.42526 10.169C1.83901 10.6167 1.96677 11.4203 1.9467 12.0676C1.93364 12.3183 2.23604 12.6284 2.51187 12.7095C2.50918 12.7541 2.49263 12.8162 2.46872 12.9077C2.42236 13.0851 2.38773 13.2656 2.349 13.445C2.31065 13.5558 2.2733 13.6667 2.24019 13.7781C1.57814 16.5689 3.24881 18.5264 5.86612 19.2472C7.94526 19.8038 10.1306 20.0154 12.2619 19.6443C14.4599 19.242 17.3293 18.416 17.7881 15.8844C18.2378 13.9461 16.9429 12.4881 17.6512 12.5719L17.6512 12.5719Z" fill="white"/>
<path d="M3.80989 18.0464C2.68816 17.1776 2.743 15.7409 2.77271 15.3024C3.12827 15.9747 3.61563 16.5212 4.28611 16.8891C7.50808 18.9426 14.9029 18.7408 17.2507 15.4261C17.2704 15.4388 17.3811 17.2476 15.5905 18.3832C13.0081 20.0209 7.24782 20.709 3.80989 18.0464Z" fill="#CDCBE1"/>
<path d="M16.8613 12.0664C16.8613 12.0664 16.9308 10.5302 16.7484 10.3614C16.5659 10.1926 15.6799 9.86717 15.6799 9.86717L11.7244 10.0552C11.7244 10.0552 11.0071 10.2032 10.9227 10.5196C10.8383 10.836 11.1337 13.1349 11.2181 13.1827C11.3025 13.2304 12.2623 14.0421 12.3784 14.0793C12.4944 14.1165 13.8973 14.6861 14.6884 14.5068C15.4795 14.3274 16.1185 13.9831 16.2156 13.8388C16.3128 13.6946 16.7819 13.2094 16.8743 12.8929C16.9668 12.5765 16.8613 12.0663 16.8613 12.0663L16.8613 12.0664Z" fill="#3E3669"/>
<path d="M3.11741 12.0664C3.11741 12.0664 3.04783 10.5302 3.23029 10.3614C3.41275 10.1926 4.29879 9.86717 4.29879 9.86717L8.25431 10.0552C8.25431 10.0552 8.97158 10.2032 9.05596 10.5196C9.14034 10.836 8.845 13.1349 8.76061 13.1827C8.67622 13.2304 7.71635 14.0421 7.60032 14.0793C7.48429 14.1165 6.0814 14.6861 5.2903 14.5068C4.4992 14.3274 3.86021 13.9831 3.76305 13.8388C3.66589 13.6946 3.19682 13.2094 3.10437 12.8929C3.01192 12.5765 3.1174 12.0663 3.1174 12.0663L3.11741 12.0664Z" fill="#3E3669"/>
<path d="M16.1353 10.8993C16.1353 10.8993 16.4536 12.4394 16.1353 12.8718C15.817 13.3043 15.2158 14.3207 13.507 13.8389C11.7982 13.357 11.7138 12.1213 11.7138 12.1213C11.7138 12.1213 11.4769 11.1208 11.8063 10.8993C12.1357 10.6778 14.8993 10.5723 14.8993 10.5723C14.8993 10.5723 15.9014 10.6435 15.9963 10.7609C16.0913 10.8782 16.1353 10.8993 16.1353 10.8993Z" fill="#40334E"/>
<path d="M3.8114 10.8993C3.8114 10.8993 3.49308 12.4394 3.8114 12.8718C4.12972 13.3043 4.73096 14.3207 6.43974 13.8389C8.14852 13.357 8.23291 12.1213 8.23291 12.1213C8.23291 12.1213 8.46985 11.1208 8.14042 10.8993C7.81099 10.6778 5.0474 10.5723 5.0474 10.5723C5.0474 10.5723 4.04534 10.6435 3.9504 10.7609C3.85546 10.8782 3.8114 10.8993 3.8114 10.8993Z" fill="#40334E"/>
<path d="M4.61261 13.5713C4.32794 13.4389 4.125 13.2162 3.97412 12.9483C4.01402 12.7631 4.05366 12.5164 4.11848 12.3404C4.3204 11.7921 4.53773 11.1442 4.89312 10.6712C5.23206 10.6708 5.57328 10.7766 5.91222 10.7762C5.86868 10.8774 5.83673 10.9858 5.77976 11.0788C5.33812 11.8 4.95001 12.5431 4.77278 13.3807C4.76144 13.4342 4.66329 13.5261 4.61261 13.5713Z" fill="#6F6C7B"/>
<path d="M7.24753 10.8339C7.22974 10.8947 7.22906 10.9701 7.19151 11.014C6.82073 11.4476 6.59439 11.9633 6.33036 12.4607C6.12416 12.8492 5.96324 13.4255 5.84383 13.8389C5.5867 13.9819 5.38385 13.6993 5.12695 13.6741C5.29114 13.2232 5.42282 12.7569 5.62792 12.3255C5.8721 11.8118 6.17929 11.3281 6.45918 10.8314L7.24753 10.8339Z" fill="#6F6A7B"/>
<path d="M12.6101 13.3649C12.3682 13.1873 12.1191 12.9838 12.001 12.703C12.0075 12.6023 12.0393 12.4559 12.0791 12.3707C12.2966 11.9054 12.5318 11.4484 12.7551 10.9856C12.8112 10.8692 12.9337 10.7467 13.0584 10.7438C13.1835 10.7408 13.2664 10.796 13.3912 10.78C13.5804 10.7794 13.9556 10.6837 14.1449 10.6831C14.1491 10.7184 13.9839 10.8592 13.9691 10.8824C13.7871 11.1677 13.5834 11.4404 13.4179 11.7347C13.1533 12.2052 12.8279 12.9074 12.7288 13.4441C12.6546 13.48 12.6844 13.3291 12.6101 13.365V13.3649Z" fill="#706C7A"/>
<path d="M13.8339 13.8027C13.5257 13.9201 13.1898 13.8084 13.1245 13.5698C13.2183 13.3088 13.3954 12.8746 13.5032 12.6196C13.7761 11.9739 14.1674 11.2811 14.5617 10.7016C14.7236 10.6992 14.8881 10.6672 15.0482 10.6831C15.1353 10.6918 15.328 10.6676 15.4121 10.7055C15.324 10.8345 15.0646 11.1442 14.9889 11.2801C14.7471 11.714 14.4949 12.1438 14.2834 12.5924C14.1278 12.9223 13.9577 13.4578 13.8339 13.8027H13.8339Z" fill="#706C7B"/>
<path d="M14.0635 5.93121L16.0412 8.13048C16.3666 6.80314 16.4053 4.80205 16.1283 4.67336C15.6607 4.34118 14.8603 5.1422 14.0635 5.93121Z" fill="#D54B74"/>
<path d="M14.605 6.46073L16.1066 8.13048C16.3536 7.12273 16.3829 5.60344 16.1726 5.50573C15.8177 5.25353 15.21 5.86168 14.605 6.46073Z" fill="#ED7684"/>
<path d="M5.7623 5.98724L3.78454 8.18651C3.4592 6.85917 3.42051 4.85808 3.69752 4.72939C4.16504 4.39721 4.96543 5.19823 5.7623 5.98724Z" fill="#D54B74"/>
<path d="M5.22066 6.51677L3.71909 8.18652C3.47209 7.17877 3.44271 5.65948 3.65302 5.56177C4.00797 5.30957 4.61565 5.91772 5.22066 6.51677Z" fill="#ED7684"/>
<path d="M17.7608 12.5877C18.4409 12.4582 18.1152 10.8412 17.8901 10.3958C17.6541 9.93351 17.1821 10.1814 17.304 9.53802C17.5128 8.15931 17.5434 6.73579 17.4187 5.35357C17.3295 3.94323 16.8447 2.31392 15.132 3.27594C14.2963 3.71415 13.5379 4.27298 12.7811 4.83319C12.4939 5.01058 12.1366 4.80094 11.846 4.72041C11.0588 4.37985 10.0116 4.46102 9.59393 4.45198C9.17623 4.44294 8.14361 4.61991 7.57954 4.8861C7.30535 5.01549 7.21579 4.98441 6.96646 4.78849C6.31439 4.27569 5.62004 3.8173 4.88922 3.42413C2.92367 2.1365 2.42027 3.96705 2.34153 5.62374C2.32866 6.88209 2.40835 8.13837 2.48898 9.39607C2.50505 9.64668 2.63051 9.95418 2.31736 10.1504C1.72273 10.6046 1.85232 11.4196 1.83196 12.0762C1.81872 12.3304 2.12543 12.6449 2.4052 12.7272C2.40247 12.7725 2.38569 12.8354 2.36144 12.9282C2.31442 13.1082 2.2793 13.2912 2.24001 13.4732C2.20112 13.5856 2.16323 13.6981 2.12964 13.811C1.45814 16.6417 3.15266 18.6272 5.80736 19.3583C7.9162 19.9229 10.1327 20.1375 12.2945 19.761C14.5239 19.3531 17.4343 18.5153 17.8996 15.9475C18.3557 13.9814 17.0423 12.5026 17.7608 12.5877L17.7608 12.5877ZM17.1951 9.65684C17.2091 9.58736 17.2255 9.51795 17.2425 9.44856C17.2255 9.51795 17.2091 9.58736 17.1951 9.65684ZM13.1673 5.01573C13.3852 4.768 13.6537 4.60039 13.9239 4.41755C14.5048 4.02447 15.1006 3.65991 15.7382 3.37329C17.6338 2.66061 17.0788 8.66057 16.9148 9.67192C16.6587 9.36185 16.6078 9.04392 16.4208 8.62013C16.3143 8.41587 16.3072 8.22548 16.3257 8.00704C16.464 5.81778 17.1589 2.68753 14.1726 5.56559C13.8544 5.82215 13.4254 5.42094 13.1737 5.23503C13.064 5.16794 13.1249 5.06626 13.1673 5.01573H13.1673ZM8.88855 12.9288C9.03181 12.5732 9.10691 11.15 9.46021 11.1428C9.7886 11.0539 10.6524 10.9602 10.7408 11.3905C10.8307 11.8643 10.9341 12.3355 11.0388 12.8063C11.1689 13.3001 10.4234 12.4498 8.89428 13.0566C8.89174 13.0109 8.88016 12.9678 8.88855 12.9288ZM8.56323 12.8808C8.11572 14.0279 6.66873 14.3441 5.56114 14.3434C3.97016 14.3359 3.06326 13.283 3.1796 11.7102C3.27777 11.2199 3.16094 10.5228 3.61219 10.2126C4.25878 10.0956 4.9041 10.0304 5.56657 10.0902C6.50687 10.1362 7.4607 10.0516 8.39001 10.2612C9.40742 10.4712 8.74713 12.2173 8.56324 12.8808H8.56323ZM11.0513 11.0073C11.0248 10.5519 11.2585 10.2788 11.7004 10.2231C12.5545 10.1288 13.4168 10.0652 14.2762 10.0552C16.793 10.0902 16.7234 9.89397 16.7487 12.452C16.5561 14.5631 13.7526 14.7238 12.2815 13.833C11.1609 13.1527 11.195 12.1978 11.0513 11.0073ZM16.0723 7.66025C16.0677 7.6932 16.0414 7.7231 16.0251 7.75442C15.9767 7.73843 15.9092 7.73724 15.8832 7.70379C15.6384 7.32938 15.3493 6.98945 15.0589 6.64917L14.4165 6.05386C14.237 5.90924 14.4582 5.77439 14.5611 5.66903C14.9308 5.35171 15.3044 5.02016 15.7177 4.7638C16.5463 4.44551 16.0969 7.21158 16.0723 7.66024L16.0723 7.66025ZM7.49204 5.23116C11.4253 3.71316 15.0828 6.0154 16.5222 9.7685L16.3558 9.88587C15.0531 9.64211 13.7051 9.82523 12.3849 9.80335C11.9033 9.81547 11.4164 9.85865 11.005 10.1704C10.9589 10.2053 10.8595 10.2037 10.7992 10.1809C10.261 9.97715 9.7279 9.98506 9.1894 10.1827C8.89298 10.2456 8.54845 9.81331 8.02554 9.84017C6.49467 9.72194 4.94882 9.67031 3.43059 9.87522C3.87325 8.47411 4.77429 7.33197 5.80102 6.30977L5.80046 6.31006C6.24349 5.78603 6.91349 5.56913 7.49204 5.23116ZM3.75361 7.76063C3.74994 7.72026 3.74174 7.68152 3.73667 7.61291C3.6975 6.67126 3.30917 4.27072 4.18062 4.8243C6.34249 6.5008 5.58207 5.46667 3.99812 7.86167C3.87508 7.9151 3.76918 7.93221 3.75361 7.76064V7.76063ZM3.00482 3.95785C3.34097 3.36659 3.55411 3.171 4.21426 3.46667C5.20952 3.88721 5.97509 4.57276 6.89833 5.13562C6.68434 5.28566 6.50932 5.39298 6.3425 5.50994C6.3086 5.53195 6.27371 5.56322 6.22581 5.5851C5.9795 5.75077 5.88955 5.85925 5.64739 5.57498C2.56137 2.50833 3.3591 6.22589 3.50815 8.33599C3.51442 8.85921 3.21268 9.33333 3.05522 9.82135C2.9551 9.88873 2.89003 9.89642 2.87835 9.74327C2.71378 7.81503 2.459 5.85276 3.00482 3.95785ZM2.47581 12.7432L2.47602 12.7432C2.43768 12.8911 2.39044 13.0372 2.34067 13.1827C2.38888 13.037 2.43555 12.891 2.47581 12.7432ZM17.1707 16.8761C14.8168 20.4211 6.51497 20.2907 3.45932 17.7156C1.96786 16.3746 2.22708 14.2316 2.87169 12.5259C3.20123 14.8118 5.89721 15.0752 7.63577 14.2387C7.82722 14.162 7.82055 14.3582 7.80077 14.4699C8.29137 13.9313 8.78676 13.2783 9.58372 13.1717C10.0633 13.1302 10.4865 13.171 10.928 13.2952C11.3816 13.4524 11.6735 13.6576 12.0039 13.9321C13.0079 14.8314 14.5267 14.7875 15.7364 14.3959C16.5817 13.9802 16.8491 13.4366 17.0924 12.5608C17.5958 13.9672 17.9107 15.4883 17.1707 16.8761H17.1707ZM5.76812 10.4233C7.52793 10.4991 9.07931 10.1132 8.27022 12.5894C7.91155 13.9746 6.1837 14.2388 4.97464 14.0022C3.52061 13.7186 3.39174 12.3334 3.60686 11.093C3.84559 10.1876 5.46708 10.4456 5.76812 10.4233ZM6.45946 10.8314C5.97743 10.814 3.94555 10.5371 3.94766 11.2151C3.88995 12.0227 3.72052 13.121 4.62622 13.5174C6.1695 14.1047 8.11644 13.4952 8.13397 11.6009C8.29276 10.6605 7.05711 10.8634 6.45945 10.8314H6.45946ZM16.3962 11.335C16.4159 12.1554 16.5557 13.2264 15.7004 13.6886C14.6137 14.3309 13.1511 14.1792 12.1737 13.4152C11.5679 12.9339 11.6409 12.0093 11.5003 11.3084C11.5094 10.1921 13.4864 10.5098 14.2447 10.4396C14.3496 10.442 16.4551 10.2274 16.3962 11.335H16.3962ZM14.508 10.7719C13.7318 10.7671 12.9568 10.7915 12.1887 10.9097C11.495 11.0892 11.934 12.1966 12.0553 12.6707C12.5965 14.0646 15.9245 14.2223 16.0781 12.4627C16.2942 11.111 15.9292 10.5428 14.508 10.7719L14.508 10.7719Z" fill="#100C54"/>
<path d="M12.4016 14.4532C12.1559 14.3374 11.9564 14.4071 11.8462 14.6474C12.6447 14.7922 11.4469 15.7093 11.0984 15.7442C10.8106 15.8303 10.5453 15.7132 10.3066 15.5597C10.0868 15.3926 10.198 15.0887 10.128 14.8552C10.3217 14.7399 10.5346 14.6595 10.7154 14.5223C11.466 13.953 10.7857 13.4582 10.5871 13.4117C10.314 13.3478 9.59832 13.1986 9.21402 13.5175C8.91658 13.7643 8.85415 14.1241 9.11545 14.4214C9.3064 14.6387 9.47226 14.6114 9.71022 14.7431C9.8645 14.9141 9.92366 15.4607 9.80606 15.6304C9.41065 16.0568 8.85699 15.8403 8.44434 15.524C8.54871 16.1292 9.16659 16.4152 9.64786 16.0802C9.90741 15.9174 10.1533 15.7753 10.4772 15.9838C11.1672 16.3325 12.0495 15.7337 12.3591 15.0941C12.3799 15.0482 12.4209 15.0115 12.4879 14.9248L12.6121 15.1644C12.7613 14.8287 12.675 14.582 12.4016 14.4532Z" fill="#100C54"/>
<path d="M9.31336 13.6815C9.3803 13.4582 10.6459 13.4917 10.6459 13.6841C10.6459 13.8765 9.24642 13.9048 9.31336 13.6815Z" fill="#44449C"/>
<path d="M8.89595 15.7982C9.16878 15.947 9.60862 15.8634 9.80621 15.6304C9.82957 15.6029 9.86513 15.5675 9.86243 15.5388C9.83698 15.2691 9.90645 14.9801 9.7104 14.7431C9.63439 14.7049 9.77971 15.0395 9.76067 15.3114C9.74338 15.5583 9.56603 15.6916 9.32261 15.7126C9.03714 15.7371 8.79889 15.6817 8.5791 15.5035C8.54932 15.4794 8.47581 15.4782 8.43799 15.4975C8.44373 15.5102 8.45121 15.5223 8.46084 15.534C8.6315 15.6388 8.76069 15.7245 8.89595 15.7982V15.7982Z" fill="#C8C8E7"/>
<path d="M11.8201 15.1635C11.4948 15.4499 11.1119 15.59 10.6777 15.5808C10.484 15.5767 10.3047 15.4358 10.2694 15.2691C10.2102 14.9889 10.268 14.7675 10.1279 14.8552C10.1378 14.9286 10.1468 15.0021 10.1577 15.0754C10.1829 15.2449 10.1321 15.4474 10.3065 15.5597C10.5452 15.7132 10.8106 15.8303 11.0983 15.7442C11.482 15.6294 11.8033 15.4086 12.0243 15.0658C12.089 14.9655 12.1223 14.8898 12.1223 14.831C12.0562 14.8624 11.8991 15.094 11.8202 15.1635H11.8201Z" fill="#C8C8E7"/>
<path d="M17.5307 12.2302C17.2559 11.7341 17.7603 11.1147 17.0251 10.8315C16.9674 10.6391 16.9708 10.4554 17.0279 10.2634C17.5047 10.2892 17.6594 10.4305 17.7579 10.9149C17.8226 11.1673 18.0504 12.4261 17.5307 12.2302H17.5307Z" fill="#3F366C"/>
<path d="M2.82915 10.2662C3.09826 10.3118 2.9381 10.5426 2.95132 10.7255C2.93766 11.0432 2.44788 10.8896 2.49431 11.2916C2.45233 11.5632 2.68348 12.4996 2.15794 12.1754C2.1154 11.5858 2.00602 10.3126 2.82916 10.2662L2.82915 10.2662Z" fill="#3E3669"/>
<path d="M9.86231 2.71637C8.7295 2.71637 7.65919 2.60602 6.85059 2.4068C5.91114 2.1734 5.43457 1.84821 5.43457 1.44C5.43457 1.03277 5.91113 0.70758 6.85059 0.47418C7.65821 0.27398 8.72754 0.16363 9.86231 0.16363C10.9971 0.16363 12.0664 0.27398 12.874 0.47418C13.8135 0.70758 14.2901 1.03277 14.2901 1.44C14.2901 1.8482 13.8135 2.1734 12.874 2.4068C12.0654 2.60602 10.9951 2.71637 9.86231 2.71637ZM9.86231 0.65387C7.34766 0.65387 5.97559 1.1734 5.97559 1.44C5.97559 1.70758 7.34766 2.22711 9.86231 2.22711C12.3779 2.22711 13.75 1.70758 13.75 1.44C13.75 1.1734 12.3779 0.65387 9.86231 0.65387Z" fill="white" stroke="#D4D4D4" stroke-width="0.25" stroke-miterlimit="10"/>
</svg>
