<svg width="32" height="32" viewBox="0 0 32 32" fill="none" xmlns="http://www.w3.org/2000/svg">
<path d="M0 3C0 1.34315 1.34315 0 3 0H29C30.6569 0 32 1.34315 32 3V29C32 30.6569 30.6569 32 29 32H3C1.34315 32 0 30.6569 0 29V3Z" fill="#B142F5"/>
<path fill-rule="evenodd" clip-rule="evenodd" d="M10.7317 7.05356C9.92156 7.22943 9.22711 7.93021 9.05417 8.74641C9.00852 8.96187 9.00063 9.96481 9.00008 15.6124C8.99945 22.0796 9.00107 22.2324 9.07198 22.5098C9.17749 22.9223 9.34132 23.2061 9.65924 23.5272C9.87856 23.7487 10.0006 23.8375 10.2481 23.9554C10.4198 24.0373 10.6478 24.1222 10.7548 24.1442C10.8883 24.1717 12.2024 24.1843 14.9368 24.1843H18.9241L19.2605 24.5056C19.9311 25.1461 20.6403 25.5191 21.5592 25.7144C21.9911 25.8063 22.89 25.8063 23.322 25.7145C25.2281 25.3093 26.659 23.8186 26.9588 21.9257C27.026 21.5015 27.009 20.7603 26.9223 20.335C26.7323 19.4024 26.3409 18.6774 25.6574 17.9915C24.9936 17.3256 24.188 16.8921 23.3128 16.7301L23.0649 16.6842V12.8574C23.0649 10.378 23.0515 8.95823 23.0269 8.82507C22.9023 8.15099 22.4397 7.53615 21.8309 7.23534C21.3293 6.98749 21.5976 6.99829 16.0138 7.00082C11.874 7.00269 10.9223 7.01221 10.7317 7.05356ZM21.3093 8.2023C21.5293 8.31063 21.7481 8.52947 21.8584 8.75136L21.9448 8.92529V12.7972V16.6691L21.651 16.7178C20.7309 16.8703 19.9012 17.3089 19.2076 18.0095C18.7835 18.4378 18.5444 18.7746 18.305 19.2808C18.0021 19.9214 17.8762 20.5003 17.8778 21.2463C17.879 21.8068 17.9637 22.3012 18.1426 22.7914L18.2494 23.0839L14.5701 23.0741L10.8908 23.0642L10.7357 22.9813C10.4925 22.8514 10.3331 22.6911 10.222 22.4649L10.1195 22.2562L10.1092 15.6826C10.1018 10.9906 10.1104 9.06161 10.1392 8.94365C10.225 8.5929 10.538 8.26054 10.8854 8.15129C11.0079 8.11273 12.0221 8.10476 16.0873 8.11038L21.1369 8.11735L21.3093 8.2023ZM11.5423 10.7062C11.3541 10.8209 11.2698 10.985 11.286 11.2048C11.3011 11.4108 11.3813 11.5447 11.5518 11.649C11.6547 11.7119 11.7806 11.7163 13.4615 11.7163C15.1423 11.7163 15.2682 11.7119 15.3711 11.649C15.5416 11.5447 15.6218 11.4108 15.6369 11.2048C15.6531 10.985 15.5688 10.8209 15.3806 10.7062C15.2655 10.636 15.1924 10.6332 13.4615 10.6332C11.7305 10.6332 11.6574 10.636 11.5423 10.7062ZM16.6837 10.7062C16.338 10.917 16.3303 11.4222 16.6696 11.6331L16.8034 11.7163H18.6094C20.3843 11.7163 20.4171 11.715 20.519 11.6395C20.873 11.3773 20.8744 10.9211 20.5221 10.7062C20.4069 10.636 20.3338 10.6332 18.6029 10.6332C16.8719 10.6332 16.7988 10.636 16.6837 10.7062ZM11.5423 12.9097C11.3541 13.0244 11.2698 13.1884 11.286 13.4082C11.3011 13.6142 11.3813 13.7482 11.5518 13.8525C11.6547 13.9154 11.7806 13.9198 13.4615 13.9198C15.1423 13.9198 15.2682 13.9154 15.3711 13.8525C15.5416 13.7482 15.6218 13.6142 15.6369 13.4082C15.6531 13.1884 15.5688 13.0244 15.3806 12.9097C15.2655 12.8395 15.1924 12.8367 13.4615 12.8367C11.7305 12.8367 11.6574 12.8395 11.5423 12.9097ZM16.6837 12.9097C16.338 13.1204 16.3303 13.6256 16.6696 13.8366L16.8034 13.9198H18.6094C20.3843 13.9198 20.4171 13.9185 20.519 13.843C20.873 13.5807 20.8744 13.1245 20.5221 12.9097C20.4069 12.8395 20.3338 12.8367 18.6029 12.8367C16.8719 12.8367 16.7988 12.8395 16.6837 12.9097ZM11.5423 15.1132C11.3541 15.2279 11.2698 15.3919 11.286 15.6117C11.3011 15.8177 11.3813 15.9517 11.5518 16.0559C11.6547 16.1188 11.7806 16.1233 13.4615 16.1233H15.261L15.3948 16.0401C15.734 15.8291 15.7263 15.3239 15.3806 15.1132C15.2655 15.0429 15.1924 15.0402 13.4615 15.0402C11.7305 15.0402 11.6574 15.0429 11.5423 15.1132ZM16.6837 15.1132C16.338 15.3239 16.3303 15.8291 16.6696 16.0401C16.7973 16.1195 16.8434 16.1238 17.6822 16.1349C18.431 16.1448 18.5846 16.1376 18.7203 16.0857C19.0301 15.9674 19.1631 15.6553 19.0311 15.3568C18.8949 15.049 18.8594 15.0402 17.7582 15.0402C16.8701 15.0402 16.795 15.0453 16.6837 15.1132ZM11.5423 17.3166C11.3541 17.4313 11.2698 17.5954 11.286 17.8152C11.3011 18.0211 11.3813 18.1551 11.5518 18.2594C11.6547 18.3223 11.7806 18.3267 13.4615 18.3267H15.261L15.3948 18.2435C15.734 18.0326 15.7263 17.5274 15.3806 17.3166C15.2655 17.2464 15.1924 17.2436 13.4615 17.2436C11.7305 17.2436 11.6574 17.2464 11.5423 17.3166ZM23.1574 17.8268C24.749 18.1553 25.8929 19.5602 25.897 21.1912C25.8988 21.9392 25.7238 22.5376 25.3301 23.1291C24.8451 23.8578 24.1405 24.3624 23.2852 24.5934C22.8508 24.7107 22.0155 24.7105 21.5776 24.5929C20.9875 24.4345 20.3961 24.0918 19.9737 23.6636C18.5645 22.235 18.6545 19.9114 20.1699 18.6022C20.6347 18.2005 21.2729 17.8897 21.818 17.7993C22.1738 17.7403 22.8006 17.7532 23.1574 17.8268ZM11.5423 19.5568C11.3541 19.6715 11.2698 19.8356 11.286 20.0553C11.3011 20.2613 11.3813 20.3953 11.5518 20.4996C11.6547 20.5625 11.7806 20.5669 13.4615 20.5669H15.261L15.3948 20.4837C15.734 20.2728 15.7263 19.7675 15.3806 19.5568C15.2655 19.4866 15.1924 19.4838 13.4615 19.4838C11.7305 19.4838 11.6574 19.4866 11.5423 19.5568ZM23.7614 19.6219C23.6255 19.6869 23.519 19.8059 22.8832 20.6036C22.513 21.0682 22.1886 21.4714 22.1625 21.4996C22.1224 21.5429 22.0442 21.5003 21.6626 21.2277C21.1493 20.8608 21.0082 20.7905 20.8463 20.8211C20.3514 20.9147 20.2047 21.5035 20.599 21.8139C20.8925 22.045 21.9583 22.8012 22.0298 22.8291C22.1679 22.8829 22.3297 22.8673 22.4723 22.7866C22.5613 22.7362 22.9059 22.3365 23.5056 21.588C24.0004 20.9704 24.4254 20.4301 24.45 20.3874C24.4745 20.3448 24.4951 20.2224 24.4959 20.1156C24.497 19.9403 24.4834 19.9067 24.3562 19.7703C24.2295 19.6344 24.195 19.6179 24.0165 19.607C23.9072 19.6004 23.7924 19.6071 23.7614 19.6219Z" fill="white"/>
</svg>
