<svg width="20" height="20" viewBox="0 0 20 20" fill="none" xmlns="http://www.w3.org/2000/svg">
<path d="M10 20C15.5228 20 20 15.5228 20 10C20 4.47715 15.5228 0 10 0C4.47715 0 0 4.47715 0 10C0 15.5228 4.47715 20 10 20Z" fill="url(#paint0_linear_817_12)"/>
<path d="M5.08978 13.1611C4.75363 12.2139 4.79554 11.2465 4.95549 10.2784C5.0895 9.46586 5.50776 8.78505 6.0067 8.14902C6.42639 7.61396 6.89483 7.12339 7.38037 6.64793C7.78067 6.25576 8.1593 5.8442 8.50942 5.40497C9.08934 4.67795 9.30659 3.84684 9.26382 2.9313C9.2527 2.69057 9.26211 2.44871 9.26211 2.20428C9.26012 2.20428 9.27722 2.2 9.28521 2.20656C9.8962 2.71225 10.4995 3.22478 10.9354 3.90188C11.2753 4.42925 11.488 4.99426 11.5225 5.62829C11.5356 5.87044 11.5345 6.10973 11.5213 6.35017C11.4615 6.8125 11.358 7.26371 11.1957 7.70209C11.0734 8.03294 11.0968 8.36636 11.2405 8.68665C11.4469 9.14699 11.9419 9.37687 12.4924 9.27648C12.9694 9.18949 13.3318 8.83211 13.4225 8.35694C13.4536 8.19409 13.4801 8.03066 13.51 7.8581C13.6089 7.92427 13.6651 8.0164 13.7304 8.09854C14.3756 8.90941 14.9105 9.78159 15.087 10.8203C15.3145 12.1586 15.0593 13.3802 14.1082 14.3992C13.7064 14.8296 13.2095 15.1208 12.6618 15.333C12.2729 15.4836 11.8951 15.6619 11.5268 15.8584C11.0116 16.1333 10.6275 16.5366 10.3755 17.0611C10.3179 17.1812 10.2509 17.194 10.1328 17.1727C9.16061 16.9984 8.27648 16.6136 7.46534 16.0578C6.48141 15.3838 5.69621 14.5358 5.20468 13.4361C5.16391 13.3456 5.1277 13.2529 5.08978 13.1611ZM9.95978 10.2282C9.02889 10.2282 8.098 10.23 7.16711 10.226C7.05877 10.2254 7.02142 10.2496 7.02284 10.3651C7.02911 10.9113 7.02854 11.4578 7.02341 12.0043C7.02227 12.1152 7.05249 12.1483 7.16568 12.1472C7.73078 12.1415 8.29615 12.1472 8.86125 12.142C8.97187 12.1409 9.00637 12.1691 9.00523 12.2838C8.99924 12.8539 9.00466 13.4241 9.00067 13.9942C8.99981 14.0929 9.02775 14.1237 9.12783 14.1229C9.68351 14.1186 10.2392 14.1183 10.7949 14.1231C10.8981 14.124 10.9198 14.0886 10.9192 13.9928C10.9152 13.4227 10.9206 12.8525 10.9146 12.2824C10.9135 12.1674 10.9477 12.1409 11.0578 12.142C11.6228 12.1475 12.1882 12.1415 12.7533 12.1469C12.8611 12.148 12.8876 12.1181 12.8865 12.0123C12.881 11.4612 12.8808 10.9099 12.8867 10.3589C12.8879 10.2505 12.8574 10.226 12.7525 10.2265C11.8216 10.2305 10.8907 10.2285 9.95978 10.2282Z" fill="#FEFEFD"/>
<path d="M12.7359 5.40967C12.8388 5.26278 12.9389 5.11361 13.0452 4.96901C13.2257 4.72401 13.3252 4.45705 13.2873 4.14788C13.2804 4.09283 13.2864 4.03636 13.2864 3.96106C13.4432 4.12363 13.5436 4.30931 13.6693 4.4753C13.8655 4.82212 14.0645 5.16923 14.1526 5.56254C14.2356 5.93332 14.241 6.29612 13.9636 6.60386C13.9419 6.62782 13.9182 6.65149 13.8914 6.66946C13.7044 6.79467 13.5718 6.9601 13.5071 7.178C13.4823 7.26185 13.4455 7.28382 13.3497 7.2436C12.7105 6.97578 12.4006 6.22196 12.6692 5.56568C12.6903 5.5132 12.7136 5.46158 12.7359 5.40967Z" fill="#FEFEFD"/>
<defs>
<linearGradient id="paint0_linear_817_12" x1="3.27667" y1="2.00952e-07" x2="18.6718" y2="20" gradientUnits="userSpaceOnUse">
<stop stop-color="#ED6D31"/>
<stop offset="1" stop-color="#F3AD41"/>
</linearGradient>
</defs>
</svg>
