<svg width="20" height="20" viewBox="0 0 20 20" fill="none" xmlns="http://www.w3.org/2000/svg">
<path fill-rule="evenodd" clip-rule="evenodd" d="M10 17.5C14.1421 17.5 17.5 14.1421 17.5 10C17.5 5.85786 14.1421 2.5 10 2.5C5.85786 2.5 2.5 5.85786 2.5 10C2.5 14.1421 5.85786 17.5 10 17.5ZM20 10C20 15.5228 15.5228 20 10 20C4.47715 20 0 15.5228 0 10C0 4.47715 4.47715 0 10 0C15.5228 0 20 4.47715 20 10Z" fill="#6784FF"/>
<path fill-rule="evenodd" clip-rule="evenodd" d="M8.4375 5.9375C9.12786 5.9375 9.6875 6.49714 9.6875 7.1875V10.3125H12.8125C13.5029 10.3125 14.0625 10.8721 14.0625 11.5625C14.0625 12.2529 13.5029 12.8125 12.8125 12.8125H7.1875V7.1875C7.1875 6.49714 7.74714 5.9375 8.4375 5.9375Z" fill="#6784FF"/>
</svg>
