<svg width="20" height="20" viewBox="0 0 20 20" fill="none" xmlns="http://www.w3.org/2000/svg">
<circle cx="10" cy="10" r="10" fill="#35248C"/>
<path d="M6.38693 4.31343L5.93359 4.69343L5.95359 5.58676L5.97359 6.4801L7.35359 7.28676C8.62693 8.02676 8.74026 8.10676 8.74026 8.27343C8.74026 8.41343 8.70693 8.4601 8.60693 8.4601C8.41359 8.4601 8.20693 8.69343 8.20693 8.91343C8.20693 9.1201 8.44693 9.39343 8.62693 9.39343C8.72693 9.39343 8.74026 9.47343 8.74026 9.99343C8.74026 10.5601 8.73359 10.5934 8.60026 10.5934C8.24026 10.5934 7.80693 11.0934 7.80693 11.5068C7.80693 11.8801 8.26693 12.3934 8.60026 12.3934C8.74026 12.3934 8.74026 12.4134 8.74026 14.0801V15.7668L9.48693 16.1934C9.89359 16.4334 10.2469 16.6334 10.2736 16.6468C10.3003 16.6534 10.5336 16.5001 10.8003 16.2934L11.2736 15.9201V15.1734V14.4268L11.6069 14.2734C12.2136 13.9934 12.4869 13.3268 12.2469 12.6934C12.1136 12.3534 11.7536 12.0068 11.4669 11.9468L11.2736 11.9068V10.7468C11.2736 10.1068 11.2936 9.6001 11.3269 9.61343C11.3536 9.62676 11.7736 9.87343 12.2603 10.1601C13.0336 10.6134 13.1536 10.6668 13.2603 10.5868C13.3203 10.5334 13.5336 10.3668 13.7269 10.2001L14.0736 9.91343V9.02676V8.14676L12.9269 7.46676C12.2936 7.1001 11.7336 6.76676 11.6869 6.73343C11.6136 6.68676 11.6069 6.65343 11.6803 6.5401C11.7469 6.43343 11.7469 6.36676 11.6869 6.23343C11.5869 6.00676 11.2069 5.98676 11.0669 6.19343C10.9736 6.32676 10.9003 6.28676 8.92026 5.12676C7.79359 4.46676 6.86026 3.92676 6.85359 3.93343C6.84693 3.93343 6.64026 4.10676 6.38693 4.31343ZM7.32026 5.71343C7.93359 6.07343 9.45359 6.9601 10.6936 7.68676L12.9403 9.00676V9.66676V10.3334L12.7603 10.2334C12.6536 10.1801 12.0336 9.8201 11.3736 9.42676L10.1736 8.7201L10.1403 10.5068C10.1136 12.0601 10.0936 12.3201 9.98693 12.5134C9.78026 12.8934 9.77359 13.3134 9.96693 13.6934C10.1336 14.0134 10.1403 14.0734 10.1403 15.1734C10.1403 15.8068 10.1203 16.3268 10.0936 16.3201C10.0603 16.3201 9.80026 16.1734 9.50693 16.0068L8.97359 15.6934L8.95359 14.0401L8.94026 12.3934L9.09359 12.3334C9.32026 12.2468 9.59359 11.8934 9.64693 11.6268C9.70693 11.3068 9.47359 10.8534 9.17359 10.6868L8.94026 10.5601V9.28676V8.00676L7.54026 7.18676L6.14026 6.36676V5.71343C6.14026 5.35343 6.15359 5.0601 6.16693 5.0601C6.18693 5.0601 6.70026 5.35343 7.32026 5.71343ZM11.5403 6.29343C11.6069 6.37343 11.6069 6.41343 11.5403 6.49343C11.4403 6.61343 11.4069 6.61343 11.2536 6.5001C11.1136 6.39343 11.1669 6.19343 11.3403 6.19343C11.4069 6.19343 11.4936 6.2401 11.5403 6.29343ZM8.74026 8.93343C8.74026 9.0801 8.70693 9.12676 8.60693 9.12676C8.53359 9.12676 8.47359 9.11343 8.47359 9.1001C8.47359 9.08676 8.45359 9.02676 8.43359 8.97343C8.39359 8.8601 8.58693 8.6401 8.68026 8.69343C8.71359 8.7201 8.74026 8.8201 8.74026 8.93343ZM9.07359 10.9068C9.53359 11.1734 9.51359 11.8668 9.04026 12.0934C8.76026 12.2201 8.60693 12.2201 8.40693 12.0801C8.14693 11.9001 8.08026 11.7801 8.08026 11.4934C8.07359 10.9468 8.60693 10.6268 9.07359 10.9068ZM11.5269 12.2201C12.3069 12.6268 12.3003 13.7068 11.5136 14.0668C11.1669 14.2201 10.9803 14.2201 10.6336 14.0668C9.91359 13.7401 9.87359 12.6801 10.5536 12.2601C10.8136 12.1068 11.2669 12.0868 11.5269 12.2201Z" fill="white"/>
<path d="M10.4935 4.17345C10.3602 4.22011 10.3935 4.51345 10.5335 4.59345C10.7868 4.72678 11.0068 4.50678 10.8735 4.25345C10.8068 4.13345 10.6668 4.10011 10.4935 4.17345ZM10.7402 4.36011C10.7402 4.41345 10.6935 4.46011 10.6402 4.46011C10.5335 4.46011 10.5068 4.38011 10.5868 4.30678C10.6602 4.22678 10.7402 4.25345 10.7402 4.36011Z" fill="white"/>
<path d="M11.0203 5.07344C10.907 5.18677 10.9203 5.42677 11.0403 5.52677C11.2937 5.73344 11.6803 5.34677 11.4737 5.09344C11.3737 4.97344 11.1337 4.9601 11.0203 5.07344ZM11.3803 5.2001C11.447 5.31344 11.227 5.50677 11.1337 5.41344C11.087 5.36677 11.0737 5.28677 11.0937 5.23344C11.1403 5.11344 11.3137 5.09344 11.3803 5.2001Z" fill="white"/>
<path d="M7.44021 9.27342C6.94021 9.54675 6.94687 10.2534 7.45354 10.4934C8.04021 10.7734 8.60687 10.1668 8.32687 9.56009C8.18687 9.25342 7.74021 9.10675 7.44021 9.27342ZM8.02687 9.54009C8.33354 9.78009 8.13354 10.3268 7.74021 10.3268C7.50687 10.3268 7.27354 10.1001 7.27354 9.88009C7.27354 9.54675 7.75354 9.33342 8.02687 9.54009Z" fill="white"/>
</svg>
