<svg width="20" height="20" viewBox="0 0 20 20" fill="none" xmlns="http://www.w3.org/2000/svg">
<circle cx="10" cy="10" r="10" fill="url(#paint0_linear_3306_19187)"/>
<path fill-rule="evenodd" clip-rule="evenodd" d="M3.28962 5.84065C3.3388 5.91797 3.73643 6.56499 4.17324 7.27832L4.96743 8.57534L5.69002 8.58309C6.08746 8.5874 6.60562 8.60847 6.8416 8.62997C7.25978 8.6681 7.27357 8.67497 7.39025 8.90194C7.55768 9.22766 7.5034 9.39574 7.00244 10.1025C6.76702 10.4347 6.55663 10.7628 6.53495 10.8315C6.49148 10.9693 6.67133 11.2599 8.72695 14.3729C9.39092 15.3784 9.95224 16.2007 9.97429 16.2C9.99633 16.1994 10.3216 15.7001 10.697 15.0905C11.0725 14.4809 11.8345 13.2974 12.3907 12.4605L13.4017 10.9387L13.263 10.7103C13.1868 10.5846 12.9626 10.2326 12.7648 9.92805C12.3517 9.29179 12.2991 9.01007 12.5489 8.77373C12.6818 8.64816 12.7585 8.63747 13.5581 8.63322C14.0341 8.63066 14.543 8.60959 14.689 8.58634L14.9546 8.54408L15.8188 7.16893C16.6255 5.88535 16.674 5.79108 16.5469 5.75314C16.472 5.73077 13.4383 5.7097 9.80544 5.70626L3.2002 5.70001L3.28962 5.84065ZM15.7586 6.22663C15.7586 6.24126 15.4909 6.67725 15.1635 7.19549L14.5684 8.13779L13.6576 8.13823C11.6607 8.13923 10.7318 8.48245 10.1193 9.4455L9.9038 9.78441L9.78215 9.54576C9.5925 9.17359 9.09266 8.71298 8.65454 8.50664C8.20271 8.29381 7.36026 8.16185 6.06107 8.10047L5.27483 8.06334L4.79281 7.27232C4.52776 6.83727 4.27055 6.41803 4.22124 6.34071L4.13169 6.20007H9.94516C13.1426 6.20007 15.7586 6.21201 15.7586 6.22663ZM8.59313 9.04558C8.7336 9.12809 8.93977 9.30023 9.0513 9.42806C9.24188 9.64658 9.61181 10.3445 9.6097 10.4818C9.6092 10.5162 9.31746 11.0475 8.96144 11.6625L8.31418 12.7807L7.7123 11.8518C7.15086 10.9852 7.11627 10.9135 7.19625 10.7823C7.24345 10.705 7.45962 10.3817 7.67666 10.0639C8.06528 9.49482 8.07087 9.48069 8.04572 9.13059L8.02019 8.77511L8.17892 8.83537C8.26623 8.8685 8.45266 8.96307 8.59313 9.04558ZM11.7842 9.04614C11.7842 9.34917 11.8963 9.59408 12.3358 10.2521C12.543 10.5622 12.7203 10.8451 12.7297 10.8806C12.7485 10.9514 11.6546 12.6321 11.5873 12.6359C11.5643 12.6372 11.248 12.1604 10.8842 11.5764C10.3605 10.7353 10.232 10.4851 10.2663 10.3731C10.4256 9.85498 10.9437 9.22329 11.4102 8.97857C11.5647 8.8975 11.7121 8.82987 11.7377 8.8283C11.7633 8.82668 11.7842 8.92469 11.7842 9.04614ZM10.5907 12.1111C10.9111 12.6245 11.1876 13.0786 11.205 13.1202C11.2345 13.1907 10.092 15.1022 9.97795 15.1732C9.89107 15.2272 8.66454 13.3296 8.70969 13.2111C8.81669 12.9303 9.8966 11.1403 9.94846 11.1577C9.98124 11.1687 10.2703 11.5977 10.5907 12.1111Z" fill="url(#paint1_linear_3306_19187)"/>
<defs>
<linearGradient id="paint0_linear_3306_19187" x1="10" y1="0" x2="10" y2="20" gradientUnits="userSpaceOnUse">
<stop stop-color="#172541"/>
<stop offset="1" stop-color="#000307"/>
</linearGradient>
<linearGradient id="paint1_linear_3306_19187" x1="9.9002" y1="5.70001" x2="9.9002" y2="16.2" gradientUnits="userSpaceOnUse">
<stop stop-color="#26DFB1"/>
<stop offset="1" stop-color="#64FCD6"/>
</linearGradient>
</defs>
</svg>
