<svg width="20" height="20" viewBox="0 0 20 20" fill="none" xmlns="http://www.w3.org/2000/svg">
<circle cx="10" cy="10" r="10" fill="white"/>
<path d="M10.7267 3.84514L10.0043 2L9.28184 3.84514L7.49925 3.27909L8.4656 4.6864H10.0043H11.5429L12.5093 3.27909L10.7267 3.84514ZM9.41945 7.32275C9.41945 7.32275 8.74081 8.84577 9.69778 10.8973C9.69778 10.9004 7.67438 9.31175 9.41945 7.32275ZM10.3076 10.9004C11.2646 8.8489 10.5859 7.32588 10.5859 7.32588C12.331 9.31175 10.3076 10.9004 10.3076 10.9004ZM4.50638 8.47987C4.41568 8.76759 4.3375 9.05843 4.27808 9.35553C4.21553 9.6495 4.16862 9.94347 4.13735 10.2406C4.10607 10.5345 4.09044 10.8316 4.09356 11.1319C4.09669 11.4258 4.12171 11.7229 4.16549 12.0138C4.25306 12.5986 4.4407 13.1615 4.71591 13.6838C4.75031 13.7495 4.78784 13.812 4.82537 13.8777L4.88166 13.9715L4.9098 14.0184L4.94108 14.0653L5.00362 14.1591L5.06617 14.2498L5.09744 14.2967L5.13185 14.3405L5.19752 14.4312L5.26945 14.5188L5.30385 14.5626L5.34138 14.6064L5.41331 14.6939L5.48836 14.7784C5.58844 14.8941 5.69164 15.0004 5.79797 15.1099C5.7667 15.088 5.73542 15.0661 5.70415 15.0442C5.67288 15.0223 5.6416 15.0004 5.61033 14.9785C5.55091 14.9316 5.48836 14.8847 5.43207 14.8347C5.40393 14.8096 5.37265 14.7846 5.34451 14.7596L5.26007 14.6814L5.21628 14.6439L5.17563 14.6032L5.09432 14.5219C4.98799 14.4125 4.88478 14.2936 4.79096 14.1748L4.75344 14.1279L4.71904 14.081C4.69714 14.0497 4.67212 14.0184 4.65023 13.9871C4.60645 13.9215 4.56267 13.8589 4.52201 13.7932C4.48136 13.7276 4.4407 13.6588 4.40317 13.5931C4.38441 13.5587 4.36564 13.5243 4.35001 13.4899L4.32186 13.4399L4.29684 13.3867C4.22804 13.246 4.16549 13.1021 4.11233 12.9582C4.006 12.6643 3.92782 12.364 3.8809 12.0544C3.85901 11.9012 3.84025 11.748 3.83087 11.5916C3.82149 11.4352 3.81836 11.282 3.82149 11.1287C3.82774 10.8191 3.85901 10.5127 3.91218 10.2093C3.96534 9.90595 4.04353 9.60885 4.14048 9.318C4.19051 9.17415 4.24368 9.03029 4.3031 8.88956C4.33437 8.82075 4.36564 8.74882 4.39692 8.68002C4.43445 8.61122 4.46885 8.54242 4.50638 8.47987ZM15.6053 8.68002C15.6397 8.74882 15.671 8.81763 15.6992 8.88956C15.7586 9.03029 15.8149 9.17415 15.8618 9.318C15.9587 9.60885 16.0369 9.90595 16.0901 10.2093C16.1433 10.5127 16.1745 10.8223 16.1808 11.1287C16.1839 11.282 16.1808 11.4383 16.1714 11.5916C16.162 11.748 16.1433 11.9012 16.1214 12.0544C16.0744 12.3609 15.9963 12.6643 15.8899 12.9582C15.8368 13.1052 15.7742 13.2491 15.7054 13.3867L15.6804 13.4399L15.6523 13.4899C15.6335 13.5243 15.6179 13.5587 15.5991 13.5931C15.5616 13.6588 15.5209 13.7276 15.4803 13.7932C15.4396 13.8589 15.3958 13.9215 15.352 13.9871C15.3301 14.0184 15.3051 14.0497 15.2832 14.081L15.2488 14.1279L15.2113 14.1748C15.1175 14.2967 15.0143 14.4125 14.9079 14.5219L14.8266 14.6032L14.786 14.6439L14.7422 14.6814L14.6578 14.7596C14.6296 14.7846 14.5983 14.8096 14.5702 14.8347C14.5108 14.8847 14.4514 14.9316 14.3919 14.9785C14.3607 15.0004 14.3294 15.0223 14.2981 15.0442C14.2668 15.0661 14.2356 15.088 14.2043 15.1099C14.3106 15.0004 14.417 14.8909 14.5139 14.7784L14.589 14.6939L14.6609 14.6064L14.6984 14.5626L14.7328 14.5188L14.8047 14.4312L14.8704 14.3405L14.9048 14.2967L14.9361 14.2498L14.9986 14.1591L15.0612 14.0653L15.0925 14.0184L15.1206 13.9715L15.1769 13.8777C15.2144 13.812 15.252 13.7495 15.2864 13.6838C15.5616 13.1615 15.7492 12.5986 15.8368 12.0138C15.8837 11.7229 15.9056 11.4258 15.9087 11.1319C15.9118 10.8348 15.8993 10.5377 15.8649 10.2406C15.8336 9.94347 15.7867 9.64637 15.7242 9.35553C15.6648 9.05843 15.5866 8.76759 15.4959 8.47987C15.5397 8.54242 15.5709 8.61122 15.6053 8.68002ZM8.75645 11.0568C8.71892 10.7034 8.58444 10.3438 8.2592 10.0717C7.93708 9.80274 7.43358 9.62761 6.67988 9.62761H6.60796V9.69954V9.70267C6.60796 9.70579 6.60796 9.70892 6.60796 9.71205C6.60796 9.7183 6.60796 9.73081 6.61108 9.74332C6.61421 9.77147 6.61734 9.809 6.62672 9.85591C6.64548 9.94973 6.67988 10.0779 6.74556 10.2249C6.88004 10.5158 7.14273 10.8692 7.65562 11.1287C8.1341 11.3695 8.31549 11.6948 8.37804 11.9544C8.40931 12.0857 8.41244 12.2014 8.40931 12.2859C8.40618 12.3265 8.40306 12.3609 8.39993 12.3828C8.3968 12.3953 8.3968 12.4016 8.39367 12.4078C8.39367 12.411 8.39367 12.4141 8.39367 12.4141L8.52502 12.4579V12.4547L8.52815 12.4485C8.53128 12.4422 8.5344 12.436 8.53753 12.4235C8.54691 12.4016 8.5563 12.3734 8.57193 12.3359C8.60008 12.2608 8.63448 12.1514 8.66888 12.02C8.73768 11.7605 8.7971 11.4102 8.75645 11.0568ZM11.3365 12.02C11.3709 12.1514 11.4053 12.2608 11.4335 12.3359C11.446 12.3734 11.4585 12.4047 11.4679 12.4235C11.471 12.4328 11.4741 12.4422 11.4772 12.4485L11.4804 12.4547V12.4579L11.6117 12.4141C11.6117 12.4141 11.6117 12.411 11.6117 12.4078C11.6117 12.4016 11.6086 12.3953 11.6055 12.3828C11.6023 12.3609 11.5961 12.3265 11.5961 12.2859C11.5898 12.2014 11.593 12.0857 11.6274 11.9544C11.6899 11.6948 11.8713 11.3695 12.3498 11.1287C12.8627 10.8692 13.1254 10.5158 13.2598 10.2249C13.3255 10.0811 13.3599 9.94973 13.3787 9.85591C13.3881 9.809 13.3912 9.77147 13.3943 9.74332C13.3943 9.73081 13.3974 9.7183 13.3974 9.71205C13.3974 9.70892 13.3974 9.70579 13.3974 9.70267V9.69954V9.62761H13.3286C12.5749 9.62761 12.0714 9.79962 11.7493 10.0717C11.4241 10.3438 11.2896 10.7034 11.2521 11.0568C11.2114 11.4102 11.2708 11.7605 11.3365 12.02ZM9.57581 6.21567H9.57269C9.56956 6.21567 9.56956 6.21567 9.56643 6.21567C9.56018 6.21567 9.55392 6.21254 9.54454 6.21254C9.5289 6.20942 9.50388 6.20942 9.47261 6.20942C9.41006 6.21254 9.31624 6.22192 9.19428 6.25633C8.94722 6.32513 8.57506 6.49088 8.0653 6.86929L8.03403 6.89118L8.03716 6.93183V6.93496V6.9506C8.03716 6.96311 8.04028 6.985 8.04341 7.01002C8.04967 7.06318 8.05905 7.14762 8.07468 7.25708C8.10283 7.48225 8.14974 7.82313 8.2248 8.30161L8.35927 8.28285C8.3624 8.28285 8.3624 8.28285 8.3624 8.28285V8.27972C8.3624 8.27659 8.3624 8.27347 8.3624 8.27034C8.3624 8.26096 8.35927 8.24845 8.35927 8.22968C8.35615 8.19216 8.35615 8.13899 8.35615 8.07332C8.3624 7.93884 8.38116 7.75433 8.44684 7.55105C8.57506 7.14449 8.87841 6.65975 9.5852 6.34702L9.77284 6.26571L9.57581 6.21567ZM10.2357 6.26571L10.4233 6.34702C11.1301 6.65975 11.4335 7.14449 11.5617 7.55105C11.6274 7.75433 11.6461 7.93884 11.6524 8.07332C11.6555 8.13899 11.6524 8.19528 11.6492 8.22968C11.6492 8.24845 11.6461 8.26096 11.6461 8.27034C11.6461 8.27347 11.6461 8.27972 11.6461 8.27972V8.28285C11.6461 8.28285 11.6461 8.28285 11.6492 8.28285L11.7837 8.30161C11.8588 7.82313 11.9057 7.48225 11.9338 7.25708C11.9495 7.14449 11.9589 7.06318 11.9651 7.01002C11.9682 6.98187 11.9714 6.96311 11.9714 6.9506V6.93496V6.93183L11.9745 6.89118L11.9432 6.86929C11.4335 6.49088 11.0613 6.32513 10.8142 6.25633C10.6892 6.22192 10.5985 6.20942 10.5359 6.20942C10.5046 6.20942 10.4796 6.20942 10.464 6.21254C10.4546 6.21254 10.4483 6.21567 10.4421 6.21567C10.439 6.21567 10.439 6.21567 10.4358 6.21567H10.4327L10.2357 6.26571ZM7.38354 6.34076C7.17088 6.38455 6.95509 6.4252 6.7393 6.45022C6.68614 6.45648 6.63297 6.46273 6.57668 6.46899C6.52352 6.47524 6.47035 6.47837 6.41406 6.48462C6.30773 6.49088 6.19827 6.49713 6.09194 6.49713C6.03878 6.49713 5.98561 6.49713 5.92932 6.49713C5.87616 6.494 5.82299 6.494 5.7667 6.48775C5.66037 6.48149 5.55404 6.46586 5.44771 6.44709C5.34451 6.42833 5.2413 6.40018 5.14123 6.36578C5.09119 6.34702 5.04428 6.32826 4.99737 6.30324C4.97548 6.29073 4.95046 6.27822 4.9317 6.26571C4.92231 6.25945 4.9098 6.2532 4.90042 6.24382L4.88478 6.23443L4.87228 6.22505L4.78471 6.15625L4.75969 6.25007C4.74405 6.30949 4.74405 6.36891 4.75031 6.42833C4.75969 6.48462 4.77533 6.53779 4.79722 6.59095C4.841 6.6879 4.90042 6.78172 4.96922 6.86303C5.0349 6.94434 5.10995 7.0194 5.18814 7.09133C5.26632 7.16326 5.34451 7.2258 5.43207 7.28835C5.35702 7.21642 5.28509 7.14449 5.21941 7.06631C5.15374 6.98813 5.09119 6.90681 5.03177 6.82238C4.97548 6.74107 4.9317 6.65037 4.89729 6.55655C4.87853 6.50339 4.87228 6.44709 4.87228 6.39706C4.88791 6.40957 4.90668 6.42208 4.92231 6.43146C4.97235 6.46273 5.02552 6.48775 5.07868 6.51277C5.18501 6.55968 5.29447 6.59721 5.40705 6.62848C5.51651 6.65663 5.62909 6.68165 5.74481 6.69728C5.8011 6.70354 5.85739 6.71292 5.91368 6.71605C5.96998 6.71917 6.02627 6.72543 6.08256 6.72856C6.30773 6.73794 6.53603 6.73481 6.7612 6.71605C6.77371 6.71605 6.78621 6.71292 6.79872 6.71292C6.68614 6.80048 6.57355 6.88805 6.4641 6.98187C6.32962 7.09758 6.2014 7.21955 6.07943 7.34777C5.95747 7.47599 5.83863 7.60734 5.72604 7.74494C5.27258 8.29536 4.92544 8.92396 4.69714 9.60259C4.58456 9.94035 4.50325 10.2875 4.45634 10.6377C4.44383 10.7253 4.43445 10.8129 4.42506 10.9004C4.42194 10.9442 4.41881 10.988 4.41568 11.0318L4.40943 11.0975V11.1068V11.1131V11.1194C4.40943 11.1256 4.40943 11.135 4.40943 11.1412C4.40943 11.1538 4.41255 11.1663 4.41255 11.1788C4.41881 11.2726 4.43445 11.3664 4.45947 11.4571C4.48136 11.5447 4.50638 11.6322 4.53765 11.7167C4.59707 11.8824 4.66587 12.0482 4.74718 12.2045C4.76595 12.2452 4.78784 12.2827 4.8066 12.3203C4.82537 12.3609 4.84726 12.3984 4.86915 12.436C4.89104 12.4735 4.91293 12.511 4.93482 12.5517C4.95671 12.5892 4.97861 12.6267 5.00362 12.6643C5.18814 12.9614 5.39142 13.2428 5.61346 13.5118C5.52902 13.3585 5.44458 13.2084 5.36327 13.0552C5.28196 12.9019 5.2069 12.7487 5.13185 12.5923C5.09432 12.5142 5.05992 12.436 5.02552 12.3578C5.00988 12.3203 4.99111 12.2796 4.97548 12.2389C4.95984 12.1983 4.9442 12.1608 4.92857 12.1201C4.86602 11.9637 4.81286 11.8042 4.76907 11.6416C4.74718 11.5603 4.72842 11.479 4.71591 11.4008C4.70027 11.3226 4.69402 11.2445 4.69089 11.1663C4.69089 11.1569 4.69089 11.1475 4.69089 11.1412C4.69089 11.1381 4.69089 11.135 4.69089 11.1319V11.1287V11.1225L4.69714 11.0599C4.7034 11.0162 4.70653 10.9755 4.71278 10.9348C4.72216 10.8504 4.7378 10.7691 4.75031 10.6847C4.86602 10.0217 5.09432 9.38055 5.42582 8.79261C5.51026 8.64562 5.59782 8.50489 5.69164 8.36416C5.78546 8.22343 5.88554 8.08895 5.99187 7.9576C6.0982 7.82626 6.20765 7.70116 6.32337 7.57607C6.38279 7.51352 6.43908 7.4541 6.4985 7.39468C6.55792 7.33526 6.62046 7.27897 6.68301 7.21955C6.80811 7.10696 6.93633 6.99751 7.0708 6.89431C7.13648 6.84427 7.20528 6.7911 7.27408 6.74419C7.30848 6.71917 7.34288 6.69728 7.37728 6.67226L7.43045 6.63786C7.44609 6.62535 7.46485 6.61597 7.48049 6.60659L8.25607 6.15L7.38354 6.34076ZM11.7525 6.15938L12.528 6.61597C12.5437 6.62535 12.5624 6.63474 12.5781 6.64724L12.6312 6.68165C12.6656 6.70354 12.7 6.72856 12.7344 6.75357C12.8032 6.80048 12.872 6.85052 12.9377 6.90369C13.0722 7.00689 13.2004 7.11635 13.3255 7.22893C13.3881 7.28522 13.4475 7.34464 13.51 7.40406C13.5694 7.46348 13.6289 7.5229 13.6852 7.58545C13.8009 7.70742 13.9103 7.83564 14.0167 7.96699C14.123 8.09834 14.2231 8.23281 14.3169 8.37354C14.4107 8.51115 14.5014 8.655 14.5827 8.80199C14.9142 9.38993 15.1425 10.0279 15.2582 10.694C15.2738 10.7785 15.2864 10.8598 15.2957 10.9442C15.302 10.9849 15.3082 11.0287 15.3114 11.0693L15.3176 11.1319V11.1381V11.1412C15.3176 11.1444 15.3176 11.1475 15.3176 11.1506C15.3176 11.16 15.3176 11.1663 15.3176 11.1756C15.3145 11.2538 15.3082 11.332 15.2926 11.4102C15.2801 11.4915 15.2613 11.5728 15.2394 11.651C15.1957 11.8136 15.1425 11.9731 15.08 12.1295C15.0643 12.1701 15.0487 12.2077 15.033 12.2483C15.0174 12.289 14.9986 12.3265 14.983 12.3672C14.9486 12.4454 14.9142 12.5235 14.8767 12.6017C14.8047 12.7581 14.7266 12.9113 14.6453 13.0646C14.5639 13.2178 14.4795 13.3679 14.3951 13.5212C14.6171 13.2522 14.8204 12.9707 15.0049 12.6737C15.0268 12.6361 15.0518 12.5986 15.0737 12.5611C15.0956 12.5235 15.1175 12.486 15.1394 12.4454C15.1613 12.4078 15.1832 12.3703 15.2019 12.3296C15.2207 12.289 15.2426 12.2515 15.2613 12.2139C15.3426 12.0544 15.4115 11.8918 15.4709 11.7261C15.499 11.6416 15.5272 11.5541 15.5491 11.4665C15.5709 11.3758 15.5866 11.282 15.596 11.1882C15.596 11.1756 15.596 11.1631 15.5991 11.1506C15.5991 11.1444 15.5991 11.1381 15.5991 11.1287V11.1225V11.1162V11.1068L15.5928 11.0412C15.5897 10.9974 15.5866 10.9536 15.5835 10.9098C15.5772 10.8223 15.5647 10.7347 15.5522 10.6471C15.5021 10.2969 15.4208 9.94973 15.3114 9.61197C15.0831 8.93647 14.7359 8.30787 14.2825 7.75433C14.1699 7.61672 14.0511 7.48537 13.9291 7.35715C13.8071 7.22893 13.6789 7.10697 13.5444 6.99125C13.435 6.89743 13.3255 6.80987 13.2098 6.7223C13.2223 6.7223 13.2348 6.72543 13.2473 6.72543C13.4725 6.74419 13.7008 6.75045 13.926 6.73794C13.9823 6.73481 14.0417 6.73168 14.0948 6.72543C14.1511 6.7223 14.2105 6.71292 14.2637 6.70666C14.3763 6.69103 14.4889 6.66914 14.6015 6.63786C14.7141 6.60972 14.8235 6.57219 14.9298 6.52215C14.983 6.49713 15.0362 6.46899 15.0862 6.44084C15.105 6.43146 15.1206 6.41895 15.1362 6.40644C15.1362 6.4596 15.1269 6.51277 15.1112 6.56593C15.08 6.65975 15.033 6.75045 14.9767 6.83176C14.9205 6.9162 14.8579 6.99751 14.7891 7.07569C14.7234 7.15388 14.6515 7.22893 14.5764 7.29773C14.6609 7.23831 14.7422 7.17264 14.8204 7.10071C14.8986 7.02878 14.9705 6.95373 15.0393 6.87241C15.1081 6.7911 15.1675 6.69728 15.2113 6.60033C15.2332 6.54717 15.252 6.494 15.2582 6.43771C15.2676 6.37829 15.2645 6.31887 15.2488 6.25945L15.2238 6.16563L15.1362 6.23443L15.1237 6.24382L15.1081 6.2532C15.0987 6.25945 15.0862 6.26571 15.0768 6.27509C15.0549 6.2876 15.033 6.30011 15.0111 6.31262C14.9642 6.33451 14.9173 6.3564 14.8673 6.37517C14.7672 6.40957 14.664 6.43771 14.5608 6.45648C14.4545 6.47524 14.3482 6.49088 14.2418 6.49713C14.1887 6.50339 14.1355 6.50339 14.0792 6.50651C14.026 6.50964 13.9729 6.50964 13.9166 6.50651C13.8102 6.50651 13.7008 6.50026 13.5945 6.494C13.5413 6.49088 13.485 6.48462 13.4318 6.47837C13.3787 6.47211 13.3224 6.46586 13.2692 6.4596C13.0534 6.43146 12.8408 6.39393 12.625 6.35015L11.7525 6.15938ZM8.04966 9.42746L8.04654 9.42433C8.04341 9.42121 8.04028 9.41808 8.03716 9.41182C8.02777 9.40244 8.01839 9.38681 8.00275 9.36804C7.97148 9.32739 7.93083 9.27109 7.88079 9.20229C7.78071 9.06156 7.65249 8.87079 7.53365 8.66126C7.41481 8.45173 7.31161 8.22968 7.25532 8.02953C7.19903 7.82626 7.19903 7.66051 7.26783 7.55105L7.48674 7.20391L7.16462 7.46036L7.1615 7.46348L7.15524 7.46974C7.14899 7.47599 7.13961 7.48225 7.1271 7.49476C7.10208 7.51665 7.06455 7.54792 7.02077 7.58545C6.93007 7.66676 6.80498 7.78247 6.66112 7.93259C6.3734 8.23281 6.0075 8.66126 5.71353 9.17727C5.41956 9.69329 5.18814 10.2969 5.1725 10.9474C5.15686 11.601 5.35389 12.2921 5.9043 12.9833L5.95121 13.0427L6.0075 12.9864C6.0075 12.9864 6.01376 12.9801 6.02001 12.9739C6.06067 12.9238 6.20765 12.7487 6.41719 12.5704C6.53603 12.4672 6.6705 12.3703 6.80811 12.2984C6.94571 12.2264 7.08331 12.1858 7.20841 12.1952L7.52427 12.2171L7.24594 12.0669L7.24281 12.0638C7.23968 12.0607 7.23343 12.0607 7.22717 12.0544C7.21466 12.0482 7.1959 12.0357 7.17401 12.02C7.1271 11.9888 7.06142 11.9387 6.98637 11.873C6.83625 11.7417 6.64548 11.5416 6.49537 11.2632C6.20453 10.7284 6.05129 9.89656 6.61734 8.70504C6.62985 8.72068 6.64548 8.73944 6.66112 8.76133C6.73305 8.85203 6.83625 8.97399 6.96447 9.09596C7.21779 9.33364 7.58369 9.57757 8.00588 9.54317L8.1341 9.53379L8.04966 9.42746ZM11.8744 9.53066L12.0026 9.54005C12.4217 9.57445 12.7876 9.33051 13.044 9.09283C13.1723 8.97399 13.2755 8.8489 13.3474 8.75821C13.363 8.73944 13.3787 8.72068 13.3912 8.70191C13.9572 9.89344 13.804 10.7222 13.5131 11.2601C13.363 11.5384 13.1723 11.7386 13.0222 11.8699C12.9471 11.9356 12.8814 11.9825 12.8345 12.0169C12.8126 12.0325 12.7939 12.0451 12.7813 12.0513C12.7751 12.0544 12.7688 12.0576 12.7657 12.0607L12.7626 12.0638L12.4842 12.2139L12.8001 12.192C12.9252 12.1827 13.0628 12.2233 13.2004 12.2952C13.338 12.3672 13.4725 12.4641 13.5913 12.5673C13.8009 12.7456 13.9479 12.9207 13.9885 12.9707C13.9948 12.977 13.9979 12.9833 14.001 12.9833L14.0573 13.0396L14.1042 12.9801C14.6546 12.289 14.8517 11.5978 14.836 10.9442C14.8204 10.2937 14.589 9.69016 14.295 9.17414C14.001 8.65813 13.6351 8.22969 13.3474 7.92946C13.2035 7.77935 13.0753 7.66051 12.9878 7.58232C12.944 7.54167 12.9064 7.51039 12.8814 7.49163C12.8689 7.48225 12.8595 7.47287 12.8533 7.46661L12.847 7.46036L12.8439 7.45723L12.5218 7.20079L12.7407 7.54792C12.8095 7.65738 12.8095 7.82313 12.7532 8.02641C12.6969 8.22656 12.5937 8.4486 12.4749 8.65813C12.356 8.86766 12.2278 9.05843 12.1277 9.19916C12.0777 9.26797 12.037 9.32739 12.0058 9.36491C11.9901 9.38368 11.9776 9.39931 11.9714 9.4087C11.9682 9.41495 11.9651 9.41808 11.962 9.42121L11.9589 9.42433L11.8744 9.53066ZM13.7946 14.6845C13.6132 14.1591 13.2411 13.6025 12.5749 13.0427L12.3341 12.8425L12.4655 13.1271V13.1302L12.4686 13.1396C12.4717 13.149 12.478 13.1615 12.4842 13.1772C12.4999 13.2116 12.5218 13.2616 12.5468 13.3241C12.5968 13.4492 12.6656 13.6275 12.7344 13.837C12.872 14.2561 13.0065 14.794 13.0096 15.2881C13.0096 15.7822 12.8783 16.2107 12.4999 16.439C12.1246 16.6673 11.4804 16.7079 10.4171 16.3764C10.4171 16.3452 10.4202 16.3045 10.4265 16.2513C10.4421 16.145 10.4765 15.998 10.5609 15.8448C10.7236 15.5414 11.0801 15.1943 11.8588 15.0661L11.8807 15.0629L11.8963 15.0473L11.8994 15.0442C11.9026 15.0411 11.9057 15.0348 11.9119 15.0285C11.9213 15.016 11.937 14.9973 11.9526 14.9754C11.9839 14.9316 12.0214 14.8659 12.0433 14.7815C12.0902 14.6126 12.0746 14.3874 11.8557 14.1466L11.8056 14.0935L11.7556 14.1466L11.7525 14.1498C11.7525 14.1498 11.7493 14.1529 11.7462 14.156C11.7399 14.1623 11.7306 14.1717 11.718 14.181C11.693 14.2029 11.6586 14.2342 11.6117 14.2749C11.521 14.3499 11.3865 14.4531 11.2271 14.5469C10.9112 14.7346 10.4921 14.9035 10.0512 14.8503C10.0387 14.8503 10.0262 14.8472 10.0136 14.844L9.99488 14.8409L9.97611 14.844C9.9636 14.8472 9.9511 14.8472 9.93859 14.8503C9.4945 14.9003 9.07856 14.7346 8.7627 14.5469C8.60008 14.45 8.46873 14.3499 8.37804 14.2749C8.33113 14.2373 8.29673 14.2061 8.27171 14.181C8.2592 14.1685 8.24982 14.1623 8.24356 14.156C8.24043 14.1529 8.23731 14.1498 8.23731 14.1498L8.23418 14.1466L8.18414 14.0935L8.1341 14.1466C7.91519 14.3874 7.89955 14.6126 7.94646 14.7815C7.96835 14.8628 8.00588 14.9285 8.03716 14.9754C8.05279 14.9973 8.06843 15.016 8.07781 15.0285C8.08407 15.0348 8.08719 15.0411 8.09032 15.0442C8.09345 15.0473 8.09345 15.0473 8.09345 15.0473L8.10909 15.0629L8.13098 15.0661C8.90969 15.1943 9.26308 15.5383 9.42883 15.8448C9.51014 15.998 9.54767 16.145 9.5633 16.2513C9.56956 16.3045 9.57269 16.3483 9.57269 16.3764C8.51251 16.7079 7.86828 16.6642 7.48987 16.439C7.11146 16.2107 6.98011 15.7822 6.98011 15.2881C6.98011 14.794 7.11771 14.2561 7.25532 13.837C7.32412 13.6275 7.39292 13.4492 7.44296 13.3241C7.46798 13.2616 7.48987 13.2116 7.50551 13.1772C7.51176 13.1615 7.51802 13.1459 7.52114 13.1396L7.52427 13.1302V13.1271L7.65562 12.8425L7.41481 13.0427C6.74556 13.6025 6.3734 14.1623 6.19515 14.6845C6.01376 15.2099 6.0294 15.6978 6.12947 16.1137C6.22955 16.5297 6.41093 16.8706 6.57043 17.1114C6.64861 17.2302 6.72367 17.324 6.77683 17.3897C6.80498 17.421 6.82687 17.446 6.83938 17.4648C6.84563 17.4741 6.85189 17.4804 6.85814 17.4835L6.8644 17.4898L6.91444 17.5398L6.96447 17.4898C7.42107 17.0207 8.15912 16.8987 8.80336 16.9018C9.12235 16.905 9.41319 16.9362 9.62272 16.9675C9.72905 16.9831 9.81349 16.9988 9.87291 17.0113C9.8948 17.0144 9.91357 17.0207 9.9292 17.0238C9.93233 17.0238 9.93859 17.0269 9.94171 17.0269C9.94797 17.0301 9.95422 17.0301 9.96048 17.0301H9.9636L9.98862 17.0363L10.0136 17.0301H10.0168C10.0199 17.0301 10.0262 17.0269 10.0355 17.0269C10.0387 17.0269 10.0418 17.0269 10.048 17.0238C10.0637 17.0207 10.0824 17.0175 10.1043 17.0113C10.1638 16.9988 10.2482 16.9831 10.3545 16.9675C10.5641 16.9362 10.8549 16.905 11.1739 16.9018C11.8181 16.8987 12.5593 17.0175 13.0128 17.4898L13.0628 17.5398L13.1128 17.4898L13.1191 17.4835C13.1222 17.4804 13.1285 17.4741 13.1379 17.4648C13.1535 17.4491 13.1754 17.4241 13.2004 17.3897C13.2536 17.324 13.3255 17.2302 13.4068 17.1114C13.5663 16.8737 13.7477 16.5297 13.8478 16.1137C13.9604 15.6978 13.976 15.2099 13.7946 14.6845ZM10.8768 17.5398C10.783 17.5773 10.686 17.6117 10.5859 17.6368C10.4921 17.6649 10.3952 17.6837 10.2951 17.6993C10.1982 17.7118 10.1012 17.7181 10.0043 17.7181C10.0011 17.7181 10.0011 17.7181 9.99801 17.7181C9.99488 17.7181 9.99488 17.7181 9.99175 17.7181C9.8948 17.7181 9.79785 17.7118 9.70091 17.6993C9.60396 17.6868 9.50701 17.6649 9.41006 17.6368C9.31312 17.6086 9.21617 17.5773 9.11922 17.5398C9.02227 17.5023 8.92532 17.4585 8.82838 17.4085C8.85652 17.4554 8.89092 17.4992 8.92845 17.5398C8.96598 17.5805 9.00663 17.6211 9.04729 17.6555C9.13173 17.7275 9.22555 17.7931 9.32562 17.8432C9.42883 17.8963 9.53516 17.9339 9.64774 17.962C9.76033 17.9901 9.87604 18.0027 9.99175 17.9995C10.1075 17.9995 10.2232 17.987 10.3358 17.962C10.4483 17.9339 10.5547 17.8963 10.6579 17.8432C10.758 17.7931 10.8518 17.7306 10.9362 17.6555C10.98 17.618 11.0175 17.5805 11.0551 17.5398C11.0926 17.4992 11.127 17.4554 11.1551 17.4085C11.0707 17.4585 10.9737 17.5023 10.8768 17.5398ZM16.1401 5.71217C16.1276 5.61209 16.1026 5.51202 16.0713 5.41507C16.0369 5.31499 15.9838 5.2243 15.9181 5.13986L15.8493 5.04917L15.7711 5.15237L15.7586 5.16801C15.7523 5.17426 15.7492 5.18052 15.743 5.18677C15.7304 5.19928 15.7211 5.21179 15.7086 5.2243C15.6835 5.24932 15.6554 5.27121 15.6272 5.2931C15.5709 5.33688 15.5084 5.37441 15.4427 5.40569C15.3771 5.44009 15.3114 5.46823 15.2394 5.49012C15.1706 5.51514 15.0987 5.53703 15.0268 5.55267C14.8798 5.58707 14.7328 5.60896 14.5827 5.62147C14.5452 5.6246 14.5076 5.62773 14.4701 5.62773C14.4326 5.63086 14.3951 5.63086 14.3575 5.63086C14.32 5.63086 14.2825 5.63086 14.2418 5.63086C14.2231 5.63086 14.2043 5.63086 14.1824 5.63086C14.1636 5.63086 14.1449 5.63086 14.1292 5.63086C14.0917 5.63086 14.0542 5.63086 14.0167 5.62773L13.9009 5.62147L13.7852 5.61209L13.6695 5.60271C13.5163 5.58707 13.3662 5.56831 13.2129 5.54642L13.0972 5.52765C13.0597 5.5214 13.0222 5.51514 12.9815 5.50889L12.8689 5.49012L12.7563 5.46823C12.6813 5.4526 12.6062 5.44009 12.5312 5.42132C12.4561 5.40256 12.381 5.39005 12.306 5.37129L12.0808 5.31499L11.8588 5.25557C11.8213 5.24619 11.7837 5.23681 11.7462 5.2243L11.6367 5.19303L11.4178 5.12735C11.3365 5.10233 11.2583 5.08357 11.1801 5.06793C11.102 5.04917 11.0206 5.03666 10.9425 5.02415C10.783 4.99913 10.6235 4.98037 10.464 4.96786C10.3076 4.95535 10.1512 4.94909 9.99488 4.94909C9.83851 4.94909 9.68214 4.95535 9.52577 4.96786C9.36628 4.98037 9.20679 4.99913 9.04729 5.02415C8.96911 5.03666 8.8878 5.0523 8.80961 5.06793C8.73143 5.0867 8.65324 5.10546 8.57193 5.12735L8.35302 5.19303L8.24356 5.2243C8.20603 5.23681 8.1685 5.24306 8.13098 5.25557L7.90893 5.31499L7.68376 5.37129C7.60871 5.39005 7.53365 5.40569 7.4586 5.42132C7.38354 5.44009 7.30848 5.4526 7.23343 5.46823L7.12084 5.49012L7.00826 5.50889C6.97073 5.51514 6.9332 5.5214 6.89254 5.52765L6.77683 5.54642C6.62672 5.57144 6.47348 5.58707 6.32024 5.60271L6.20453 5.61209L6.08882 5.62147L5.9731 5.62773C5.93558 5.62773 5.89805 5.63086 5.86052 5.63086C5.84175 5.63086 5.82299 5.63086 5.80735 5.63086C5.78546 5.63086 5.7667 5.63086 5.74793 5.63086C5.70728 5.63086 5.66975 5.63086 5.63222 5.63086C5.59469 5.63086 5.55717 5.62773 5.51964 5.62773C5.48211 5.6246 5.44458 5.6246 5.40705 5.62147C5.25694 5.60896 5.10995 5.58707 4.96297 5.55267C4.89104 5.53703 4.81911 5.51514 4.75031 5.49012C4.68151 5.46511 4.61271 5.43696 4.54703 5.40569C4.48136 5.37441 4.42194 5.33688 4.36252 5.2931C4.33437 5.27121 4.30622 5.24932 4.28121 5.2243C4.2687 5.21179 4.25619 5.19928 4.24681 5.18677C4.24055 5.18052 4.23742 5.17426 4.23117 5.16801L4.21866 5.15237L4.14048 5.04917L4.07167 5.13986C4.006 5.2243 3.95596 5.31499 3.91843 5.41507C3.88403 5.51202 3.86214 5.61209 3.84963 5.71217C3.82461 5.90919 3.82461 6.10621 3.84963 6.30324C3.87465 6.49713 3.90905 6.6879 3.95909 6.87554C3.98411 6.96936 4.01225 7.06318 4.0404 7.15388C4.07167 7.24457 4.10295 7.33526 4.14048 7.42595C4.08731 7.24144 4.04665 7.0538 4.01538 6.86303C3.98098 6.67539 3.96222 6.48462 3.95283 6.29385C3.94345 6.10621 3.95596 5.91857 3.99036 5.73406C4.00913 5.64649 4.03415 5.55893 4.07167 5.47449C4.09044 5.4307 4.11546 5.38692 4.14048 5.34627C4.1436 5.34939 4.1436 5.34939 4.14673 5.35252C4.17488 5.38379 4.20615 5.41194 4.24055 5.44009C4.30622 5.49325 4.37503 5.54329 4.44696 5.58394C4.51888 5.6246 4.59394 5.66213 4.669 5.69028C4.74405 5.72155 4.82224 5.74657 4.90042 5.77159C5.05679 5.81537 5.21628 5.84664 5.37578 5.86541C5.41643 5.87166 5.45709 5.87479 5.49462 5.87792C5.53527 5.88104 5.5728 5.88417 5.61346 5.8873C5.65411 5.89043 5.69477 5.89043 5.7323 5.89355C5.75106 5.89355 5.77295 5.89355 5.78859 5.89668C5.81048 5.89668 5.82925 5.89981 5.85114 5.89981C5.89179 5.89981 5.93245 5.90293 5.9731 5.89981C6.01376 5.89981 6.05441 5.89981 6.09194 5.89668L6.21078 5.89355L6.32962 5.8873C6.48912 5.87792 6.64548 5.86228 6.80185 5.84039L6.92069 5.82475C6.96135 5.8185 6.99887 5.81224 7.03953 5.80911L7.15837 5.79035C7.1959 5.7841 7.23655 5.77784 7.27408 5.77159C7.35227 5.75908 7.43045 5.74344 7.50551 5.7278C7.58369 5.71217 7.66187 5.69653 7.73693 5.68089L7.96835 5.62773C8.04341 5.60896 8.12159 5.5902 8.19665 5.57144C8.23418 5.56205 8.27171 5.55267 8.31236 5.54329L8.42807 5.51202L8.65324 5.44947C8.72205 5.43071 8.79397 5.41194 8.86903 5.39943C8.94096 5.38379 9.01602 5.37129 9.09107 5.35878C9.24119 5.33376 9.3913 5.31812 9.54141 5.30561C9.6884 5.29623 9.83851 5.28997 9.9855 5.28997C10.1325 5.28997 10.2826 5.29623 10.4296 5.30561C10.5797 5.31812 10.7298 5.33376 10.8799 5.35878C10.955 5.37129 11.0269 5.38379 11.102 5.39943C11.1739 5.41507 11.2489 5.43071 11.3177 5.44947L11.5429 5.51202L11.6586 5.54329C11.6962 5.55267 11.7337 5.56205 11.7743 5.57144C11.8494 5.5902 11.9276 5.60896 12.0026 5.62773L12.2341 5.68089C12.3091 5.69966 12.3873 5.71217 12.4655 5.7278C12.5437 5.74344 12.6219 5.75595 12.6969 5.77159C12.7344 5.77784 12.7751 5.7841 12.8126 5.79035L12.9315 5.80911C12.969 5.81537 13.0096 5.82162 13.0503 5.82475L13.1691 5.84039C13.3255 5.85915 13.485 5.87479 13.6414 5.8873L13.7602 5.89355L13.879 5.89668C13.9197 5.89668 13.9604 5.89668 13.9979 5.89981C14.0385 5.89981 14.0792 5.89981 14.1199 5.89981C14.1386 5.89981 14.1605 5.89981 14.1824 5.89668C14.2012 5.89668 14.2199 5.89355 14.2387 5.89355C14.2762 5.89355 14.3169 5.89043 14.3575 5.8873C14.3982 5.88417 14.4388 5.88104 14.4764 5.87792C14.517 5.87479 14.5577 5.87166 14.5952 5.86541C14.7547 5.84664 14.9142 5.81537 15.0706 5.77159C15.1488 5.74969 15.2269 5.72155 15.302 5.69028C15.3771 5.659 15.4521 5.6246 15.524 5.58394C15.596 5.54329 15.6648 5.49325 15.7304 5.44009C15.7648 5.41194 15.793 5.38379 15.8243 5.35252C15.8274 5.34939 15.8274 5.34939 15.8305 5.34627C15.8555 5.38692 15.8806 5.42758 15.8993 5.47449C15.9337 5.55893 15.9619 5.64336 15.9806 5.73406C16.015 5.91857 16.0275 6.10621 16.0182 6.29385C16.0119 6.48462 15.99 6.67539 15.9556 6.86303C15.9243 7.0538 15.8806 7.24144 15.8305 7.42595C15.868 7.33526 15.8993 7.24457 15.9306 7.15388C15.9619 7.06318 15.9869 6.96936 16.0119 6.87554C16.0619 6.6879 16.0995 6.49713 16.1214 6.30324C16.1651 6.10621 16.1651 5.90606 16.1401 5.71217Z" fill="#F6D147"/>
<path fill-rule="evenodd" clip-rule="evenodd" d="M9.41945 7.32275C9.41945 7.32275 8.74081 8.84577 9.69778 10.8973C9.69778 10.9004 7.67438 9.31175 9.41945 7.32275ZM10.3076 10.9004C11.2646 8.8489 10.5859 7.32588 10.5859 7.32588C12.331 9.31175 10.3076 10.9004 10.3076 10.9004ZM4.27808 9.35553C4.3375 9.05843 4.41568 8.76759 4.50638 8.47987C4.48111 8.52199 4.45726 8.56694 4.43291 8.61281C4.4211 8.63507 4.40918 8.65755 4.39692 8.68002C4.38128 8.71442 4.36564 8.74961 4.35001 8.78479C4.33437 8.81997 4.31873 8.85516 4.3031 8.88956C4.24368 9.03029 4.19051 9.17415 4.14048 9.318C4.04353 9.60885 3.96534 9.90595 3.91218 10.2093C3.85901 10.5127 3.82774 10.8191 3.82149 11.1287C3.81836 11.282 3.82149 11.4352 3.83087 11.5916C3.84025 11.748 3.85901 11.9012 3.8809 12.0544C3.92782 12.364 4.006 12.6643 4.11233 12.9582C4.16549 13.1021 4.22804 13.246 4.29684 13.3867L4.32186 13.4399L4.35001 13.4899C4.36564 13.5243 4.38441 13.5587 4.40317 13.5931C4.4407 13.6588 4.48136 13.7276 4.52201 13.7932C4.55098 13.84 4.58153 13.8852 4.61255 13.9311C4.62506 13.9496 4.63765 13.9683 4.65023 13.9871C4.66118 14.0028 4.67291 14.0184 4.68463 14.034C4.69636 14.0497 4.70809 14.0653 4.71904 14.081L4.75344 14.1279L4.79096 14.1748C4.88478 14.2936 4.98799 14.4125 5.09432 14.5219L5.17563 14.6032L5.21628 14.6439L5.26007 14.6814L5.34451 14.7596C5.35858 14.7721 5.37343 14.7846 5.38829 14.7971C5.40314 14.8096 5.418 14.8221 5.43207 14.8347C5.47522 14.873 5.52204 14.9095 5.56831 14.9456C5.58241 14.9566 5.59646 14.9676 5.61033 14.9785L5.70415 15.0442L5.79797 15.1099C5.69164 15.0004 5.58844 14.8941 5.48836 14.7784L5.41331 14.6939L5.34138 14.6064L5.30385 14.5626L5.26945 14.5188L5.19752 14.4312L5.13185 14.3405L5.09744 14.2967L5.06617 14.2498L5.00362 14.1591L4.94108 14.0653L4.9098 14.0184L4.88166 13.9715L4.82537 13.8777C4.8153 13.8601 4.80523 13.8427 4.79522 13.8254C4.76792 13.7782 4.74108 13.7318 4.71591 13.6838C4.4407 13.1615 4.25306 12.5986 4.16549 12.0138C4.12171 11.7229 4.09669 11.4258 4.09356 11.1319C4.09044 10.8316 4.10607 10.5345 4.13735 10.2406C4.16862 9.94347 4.21553 9.6495 4.27808 9.35553ZM15.6992 8.88956C15.671 8.81763 15.6397 8.74882 15.6053 8.68002C15.5996 8.66853 15.5939 8.65704 15.5883 8.64557C15.5601 8.58841 15.5324 8.53197 15.4959 8.47987C15.5866 8.76759 15.6648 9.05843 15.7242 9.35553C15.7867 9.64637 15.8336 9.94347 15.8649 10.2406C15.8993 10.5377 15.9118 10.8348 15.9087 11.1319C15.9056 11.4258 15.8837 11.7229 15.8368 12.0138C15.7492 12.5986 15.5616 13.1615 15.2864 13.6838C15.2612 13.7318 15.2343 13.7782 15.2071 13.8254C15.197 13.8427 15.187 13.8601 15.1769 13.8777L15.1206 13.9715L15.0925 14.0184L15.0612 14.0653L14.9986 14.1591L14.9361 14.2498L14.9048 14.2967L14.8704 14.3405L14.8047 14.4312L14.7328 14.5188L14.6984 14.5626L14.6609 14.6064L14.589 14.6939L14.5139 14.7784C14.417 14.8909 14.3106 15.0004 14.2043 15.1099L14.2981 15.0442L14.3919 14.9785C14.4514 14.9316 14.5108 14.8847 14.5702 14.8347C14.5843 14.8221 14.5991 14.8096 14.614 14.7971C14.6288 14.7846 14.6437 14.7721 14.6578 14.7596L14.7422 14.6814L14.786 14.6439L14.8266 14.6032L14.9079 14.5219C15.0143 14.4125 15.1175 14.2967 15.2113 14.1748L15.2488 14.1279L15.2832 14.081C15.2942 14.0653 15.3059 14.0497 15.3176 14.034C15.3294 14.0184 15.3411 14.0028 15.352 13.9871C15.3646 13.9683 15.3772 13.9496 15.3897 13.9311C15.4207 13.8852 15.4513 13.84 15.4803 13.7932C15.5209 13.7276 15.5616 13.6588 15.5991 13.5931C15.6085 13.5759 15.6171 13.5587 15.6257 13.5415C15.6343 13.5243 15.6429 13.5071 15.6523 13.4899L15.6804 13.4399L15.7054 13.3867C15.7742 13.2491 15.8368 13.1052 15.8899 12.9582C15.9963 12.6643 16.0744 12.3609 16.1214 12.0544C16.1433 11.9012 16.162 11.748 16.1714 11.5916C16.1808 11.4383 16.1839 11.282 16.1808 11.1287C16.1745 10.8223 16.1433 10.5127 16.0901 10.2093C16.0369 9.90595 15.9587 9.60885 15.8618 9.318C15.8149 9.17415 15.7586 9.03029 15.6992 8.88956ZM8.2592 10.0717C8.58444 10.3438 8.71892 10.7034 8.75645 11.0568C8.7971 11.4102 8.73768 11.7605 8.66888 12.02C8.63448 12.1514 8.60008 12.2608 8.57193 12.3359C8.56359 12.3559 8.55702 12.3733 8.55129 12.3884C8.54628 12.4017 8.54191 12.4133 8.53753 12.4235C8.5344 12.436 8.53128 12.4422 8.52815 12.4485L8.52502 12.4547V12.4579L8.39367 12.4141V12.4078C8.39561 12.404 8.39634 12.4001 8.39736 12.3948C8.398 12.3915 8.39873 12.3876 8.39993 12.3828C8.40306 12.3609 8.40618 12.3265 8.40931 12.2859C8.41244 12.2014 8.40931 12.0857 8.37804 11.9544C8.31549 11.6948 8.1341 11.3695 7.65562 11.1287C7.14273 10.8692 6.88004 10.5158 6.74556 10.2249C6.67988 10.0779 6.64548 9.94973 6.62672 9.85591C6.61882 9.81642 6.61536 9.78359 6.61259 9.7574C6.61207 9.75247 6.61158 9.74778 6.61108 9.74332C6.60796 9.73081 6.60796 9.7183 6.60796 9.71205V9.70267V9.69954V9.62761H6.67988C7.43358 9.62761 7.93708 9.80274 8.2592 10.0717ZM11.4335 12.3359C11.4053 12.2608 11.3709 12.1514 11.3365 12.02C11.2708 11.7605 11.2114 11.4102 11.2521 11.0568C11.2896 10.7034 11.4241 10.3438 11.7493 10.0717C12.0714 9.79962 12.5749 9.62761 13.3286 9.62761H13.3974V9.69954V9.70267V9.71205C13.3974 9.71464 13.3969 9.7183 13.3963 9.7226C13.3954 9.72867 13.3943 9.736 13.3943 9.74332C13.3938 9.74778 13.3933 9.75247 13.3928 9.7574C13.39 9.78359 13.3866 9.81643 13.3787 9.85591C13.3599 9.94973 13.3255 10.0811 13.2598 10.2249C13.1254 10.5158 12.8627 10.8692 12.3498 11.1287C11.8713 11.3695 11.6899 11.6948 11.6274 11.9544C11.593 12.0857 11.5898 12.2014 11.5961 12.2859C11.5961 12.3206 11.6006 12.3507 11.6039 12.3724C11.6045 12.3761 11.605 12.3796 11.6055 12.3828C11.6067 12.3876 11.6079 12.3915 11.6089 12.3948C11.6105 12.4001 11.6117 12.404 11.6117 12.4078V12.4141L11.4804 12.4579V12.4547L11.4772 12.4485C11.4741 12.4422 11.471 12.4328 11.4679 12.4235C11.4585 12.4047 11.446 12.3734 11.4335 12.3359ZM9.57269 6.21567H9.57581L9.77284 6.26571L9.5852 6.34702C8.87841 6.65975 8.57506 7.14449 8.44684 7.55105C8.38116 7.75433 8.3624 7.93884 8.35615 8.07332C8.35615 8.13899 8.35615 8.19216 8.35927 8.22968C8.35927 8.24068 8.36035 8.24952 8.36123 8.25685C8.36186 8.26203 8.3624 8.26645 8.3624 8.27034V8.27972V8.28285H8.35927L8.2248 8.30161C8.14974 7.82313 8.10283 7.48225 8.07468 7.25708C8.06112 7.16216 8.05227 7.08606 8.04608 7.03285C8.04513 7.02469 8.04424 7.01708 8.04341 7.01002C8.04287 7.00573 8.04234 7.00153 8.04182 6.99745C8.0393 6.97777 8.03716 6.96096 8.03716 6.9506V6.93496V6.93183L8.03403 6.89118L8.0653 6.86929C8.57506 6.49088 8.94722 6.32513 9.19428 6.25633C9.31624 6.22192 9.41006 6.21254 9.47261 6.20942C9.50388 6.20942 9.5289 6.20942 9.54454 6.21254C9.5497 6.21254 9.55392 6.21349 9.55771 6.21434C9.56081 6.21504 9.56362 6.21567 9.56643 6.21567H9.57269ZM10.4233 6.34702L10.2357 6.26571L10.4327 6.21567H10.4358H10.4421C10.4449 6.21567 10.4477 6.21504 10.4508 6.21434C10.4546 6.21349 10.4588 6.21254 10.464 6.21254C10.4796 6.20942 10.5046 6.20942 10.5359 6.20942C10.5985 6.20942 10.6892 6.22192 10.8142 6.25633C11.0613 6.32513 11.4335 6.49088 11.9432 6.86929L11.9745 6.89118L11.9714 6.93183V6.93496V6.9506C11.9714 6.95894 11.97 6.97005 11.9681 6.98488C11.9672 6.99229 11.9662 7.00063 11.9651 7.01002L11.9639 7.02068C11.9576 7.07383 11.9485 7.15177 11.9338 7.25708C11.9057 7.48225 11.8588 7.82313 11.7837 8.30161L11.6492 8.28285H11.6461V8.27972V8.27034C11.6461 8.26645 11.6467 8.26203 11.6473 8.25685C11.6482 8.24952 11.6492 8.24068 11.6492 8.22968C11.6524 8.19528 11.6555 8.13899 11.6524 8.07332C11.6461 7.93884 11.6274 7.75433 11.5617 7.55105C11.4335 7.14449 11.1301 6.65975 10.4233 6.34702ZM6.7393 6.45022C6.95509 6.4252 7.17088 6.38455 7.38354 6.34076L8.25607 6.15L7.48049 6.60659C7.47632 6.60909 7.47194 6.61159 7.46745 6.61414C7.45508 6.62119 7.44192 6.62868 7.43045 6.63786L7.37728 6.67226C7.36008 6.68477 7.34288 6.6965 7.32568 6.70823C7.30848 6.71996 7.29128 6.73168 7.27408 6.74419C7.21257 6.78613 7.15106 6.83307 7.09178 6.8783C7.08476 6.88367 7.07776 6.889 7.0708 6.89431C6.93633 6.99751 6.80811 7.10696 6.68301 7.21955C6.66169 7.23981 6.64036 7.2597 6.61916 7.27948C6.57818 7.31772 6.53766 7.35552 6.4985 7.39468C6.44192 7.45126 6.38818 7.50784 6.33187 7.56712L6.32337 7.57607C6.20765 7.70116 6.0982 7.82626 5.99187 7.9576C5.88554 8.08895 5.78546 8.22343 5.69164 8.36416C5.59782 8.50489 5.51026 8.64562 5.42582 8.79261C5.09432 9.38055 4.86602 10.0217 4.75031 10.6847C4.74593 10.7142 4.74118 10.7433 4.73644 10.7724C4.72763 10.8263 4.71888 10.8799 4.71278 10.9348C4.70947 10.9564 4.70703 10.9779 4.70454 10.9999C4.70233 11.0195 4.70008 11.0394 4.69714 11.0599L4.69089 11.1225V11.1287V11.1319V11.1412V11.1663C4.69402 11.2445 4.70027 11.3226 4.71591 11.4008C4.72842 11.479 4.74718 11.5603 4.76907 11.6416C4.81286 11.8042 4.86602 11.9637 4.92857 12.1201C4.93639 12.1404 4.9442 12.16 4.95202 12.1795C4.95984 12.1991 4.96766 12.2186 4.97548 12.2389C4.98546 12.2649 4.99672 12.2909 5.00763 12.316C5.0138 12.3302 5.01986 12.3442 5.02552 12.3578C5.05992 12.436 5.09432 12.5142 5.13185 12.5923C5.2069 12.7487 5.28196 12.9019 5.36327 13.0552C5.42321 13.1682 5.48485 13.2794 5.54694 13.3915C5.56908 13.4315 5.59127 13.4715 5.61346 13.5118C5.39142 13.2428 5.18814 12.9614 5.00362 12.6643C4.97861 12.6267 4.95671 12.5892 4.93482 12.5517C4.91293 12.511 4.89104 12.4735 4.86915 12.436C4.84726 12.3984 4.82537 12.3609 4.8066 12.3203C4.79919 12.3054 4.7913 12.2906 4.7833 12.2756C4.77104 12.2526 4.75854 12.2292 4.74718 12.2045C4.66587 12.0482 4.59707 11.8824 4.53765 11.7167C4.50638 11.6322 4.48136 11.5447 4.45947 11.4571C4.43445 11.3664 4.41881 11.2726 4.41255 11.1788C4.41255 11.1725 4.41177 11.1663 4.41099 11.16C4.41021 11.1538 4.40943 11.1475 4.40943 11.1412V11.1194V11.1131V11.1068V11.0975L4.41568 11.0318L4.42506 10.9004C4.43445 10.8129 4.44383 10.7253 4.45634 10.6377C4.50325 10.2875 4.58456 9.94035 4.69714 9.60259C4.92544 8.92396 5.27258 8.29536 5.72604 7.74494C5.83863 7.60734 5.95747 7.47599 6.07943 7.34777C6.2014 7.21955 6.32962 7.09758 6.4641 6.98187C6.57355 6.88805 6.68614 6.80048 6.79872 6.71292C6.79247 6.71292 6.78621 6.7137 6.77996 6.71448C6.77371 6.71526 6.76745 6.71605 6.7612 6.71605C6.53603 6.73481 6.30773 6.73794 6.08256 6.72856C6.05441 6.72699 6.02627 6.72465 5.99812 6.7223C5.96998 6.71996 5.94183 6.71761 5.91368 6.71605C5.87616 6.71396 5.83863 6.7091 5.8011 6.70423C5.78234 6.7018 5.76357 6.69937 5.74481 6.69728C5.62909 6.68165 5.51651 6.65663 5.40705 6.62848C5.29447 6.59721 5.18501 6.55968 5.07868 6.51277C5.02552 6.48775 4.97235 6.46273 4.92231 6.43146C4.90668 6.42208 4.88791 6.40957 4.87228 6.39706C4.87228 6.44709 4.87853 6.50339 4.89729 6.55655C4.9317 6.65037 4.97548 6.74107 5.03177 6.82238C5.09119 6.90681 5.15374 6.98813 5.21941 7.06631C5.28509 7.14449 5.35702 7.21642 5.43207 7.28835C5.34451 7.2258 5.26632 7.16326 5.18814 7.09133C5.10995 7.0194 5.0349 6.94434 4.96922 6.86303C4.90042 6.78172 4.841 6.6879 4.79722 6.59095C4.77533 6.53779 4.75969 6.48462 4.75031 6.42833C4.74405 6.36891 4.74405 6.30949 4.75969 6.25007L4.78471 6.15625L4.87228 6.22505L4.88478 6.23443L4.90042 6.24382C4.90722 6.25062 4.91567 6.25578 4.92338 6.26048C4.9263 6.26227 4.92912 6.26399 4.9317 6.26571C4.94421 6.27405 4.9595 6.28239 4.97479 6.29073C4.98243 6.2949 4.99007 6.29907 4.99737 6.30324C5.04428 6.32826 5.09119 6.34702 5.14123 6.36578C5.2413 6.40018 5.34451 6.42833 5.44771 6.44709C5.55404 6.46586 5.66037 6.48149 5.7667 6.48775C5.80398 6.49189 5.83989 6.49329 5.87534 6.49467C5.89341 6.49538 5.91137 6.49608 5.92932 6.49713H6.09194C6.19827 6.49713 6.30773 6.49088 6.41406 6.48462C6.44093 6.48164 6.46708 6.47936 6.49286 6.47712C6.5211 6.47467 6.54889 6.47225 6.57668 6.46899C6.63297 6.46273 6.68614 6.45648 6.7393 6.45022ZM12.528 6.61597L11.7525 6.15938L12.625 6.35015C12.8408 6.39393 13.0534 6.43146 13.2692 6.4596C13.2958 6.46273 13.3232 6.46586 13.3505 6.46899C13.3779 6.47211 13.4053 6.47524 13.4318 6.47837C13.485 6.48462 13.5413 6.49088 13.5945 6.494C13.7008 6.50026 13.8102 6.50651 13.9166 6.50651C13.9729 6.50964 14.026 6.50964 14.0792 6.50651C14.0975 6.5055 14.1154 6.50481 14.1332 6.50414C14.17 6.50273 14.2059 6.50136 14.2418 6.49713C14.3482 6.49088 14.4545 6.47524 14.5608 6.45648C14.664 6.43771 14.7672 6.40957 14.8673 6.37517C14.9173 6.3564 14.9642 6.33451 15.0111 6.31262L15.0768 6.27509C15.0836 6.26829 15.0921 6.26313 15.0998 6.25842C15.1027 6.25664 15.1055 6.25492 15.1081 6.2532L15.1237 6.24382L15.1362 6.23443L15.2238 6.16563L15.2488 6.25945C15.2645 6.31887 15.2676 6.37829 15.2582 6.43771C15.252 6.494 15.2332 6.54717 15.2113 6.60033C15.1675 6.69728 15.1081 6.7911 15.0393 6.87241C14.9705 6.95373 14.8986 7.02878 14.8204 7.10071C14.7422 7.17264 14.6609 7.23831 14.5764 7.29773C14.6515 7.22893 14.7234 7.15388 14.7891 7.07569C14.8579 6.99751 14.9205 6.9162 14.9767 6.83176C15.033 6.75045 15.08 6.65975 15.1112 6.56593C15.1269 6.51277 15.1362 6.4596 15.1362 6.40644C15.1206 6.41895 15.105 6.43146 15.0862 6.44084C15.0362 6.46899 14.983 6.49713 14.9298 6.52215C14.8235 6.57219 14.7141 6.60972 14.6015 6.63786C14.4889 6.66914 14.3763 6.69103 14.2637 6.70666C14.2486 6.70844 14.2331 6.71046 14.2172 6.71253C14.1771 6.71774 14.1352 6.72319 14.0948 6.72543C14.0442 6.73139 13.9879 6.73451 13.934 6.73749L13.926 6.73794C13.7008 6.75045 13.4725 6.74419 13.2473 6.72543C13.2411 6.72543 13.2348 6.72465 13.2286 6.72387C13.2223 6.72308 13.2161 6.7223 13.2098 6.7223C13.3255 6.80987 13.435 6.89743 13.5444 6.99125C13.6789 7.10697 13.8071 7.22893 13.9291 7.35715C14.0511 7.48537 14.1699 7.61672 14.2825 7.75433C14.7359 8.30787 15.0831 8.93647 15.3114 9.61197C15.4208 9.94973 15.5021 10.2969 15.5522 10.6471C15.5647 10.7347 15.5772 10.8223 15.5835 10.9098L15.5928 11.0412L15.5991 11.1068V11.1162V11.1225V11.1287V11.1506C15.596 11.1631 15.596 11.1756 15.596 11.1882C15.5866 11.282 15.5709 11.3758 15.5491 11.4665C15.5272 11.5541 15.499 11.6416 15.4709 11.7261C15.4115 11.8918 15.3426 12.0544 15.2613 12.2139C15.2539 12.2287 15.246 12.2436 15.238 12.2586C15.2258 12.2816 15.2133 12.305 15.2019 12.3296C15.1832 12.3703 15.1613 12.4078 15.1394 12.4454C15.1175 12.486 15.0956 12.5235 15.0737 12.5611C15.0628 12.5798 15.051 12.5986 15.0393 12.6174C15.0276 12.6361 15.0158 12.6549 15.0049 12.6737C14.8204 12.9707 14.6171 13.2522 14.3951 13.5212C14.4173 13.4809 14.4395 13.4408 14.4616 13.4008C14.5237 13.2888 14.5853 13.1775 14.6453 13.0646C14.7266 12.9113 14.8047 12.7581 14.8767 12.6017C14.9142 12.5235 14.9486 12.4454 14.983 12.3672C14.9908 12.3468 14.9994 12.3273 15.008 12.3078C15.0166 12.2882 15.0252 12.2687 15.033 12.2483C15.0409 12.228 15.0487 12.2085 15.0565 12.1889C15.0643 12.1694 15.0721 12.1498 15.08 12.1295C15.1425 11.9731 15.1957 11.8136 15.2394 11.651C15.2613 11.5728 15.2801 11.4915 15.2926 11.4102C15.3082 11.332 15.3145 11.2538 15.3176 11.1756V11.1506V11.1412V11.1381V11.1319L15.3114 11.0693C15.3082 11.0287 15.302 10.9849 15.2957 10.9442C15.2864 10.8598 15.2738 10.7785 15.2582 10.694C15.1425 10.0279 14.9142 9.38993 14.5827 8.80199C14.5014 8.655 14.4107 8.51115 14.3169 8.37354C14.2231 8.23281 14.123 8.09834 14.0167 7.96699C13.9103 7.83564 13.8009 7.70742 13.6852 7.58545C13.6289 7.5229 13.5694 7.46348 13.51 7.40406C13.4894 7.38449 13.4691 7.36491 13.449 7.34545C13.408 7.30583 13.3674 7.26668 13.3255 7.22893C13.2004 7.11635 13.0722 7.00689 12.9377 6.90369C12.872 6.85052 12.8032 6.80048 12.7344 6.75357C12.7 6.72856 12.6656 6.70354 12.6312 6.68165L12.5781 6.64724C12.5666 6.63807 12.5534 6.63057 12.5411 6.62353C12.5366 6.62097 12.5322 6.61847 12.528 6.61597ZM8.04654 9.42433L8.04966 9.42746L8.1341 9.53379L8.00588 9.54317C7.58369 9.57757 7.21779 9.33364 6.96447 9.09596C6.83625 8.97399 6.73305 8.85203 6.66112 8.76133C6.64849 8.74366 6.63587 8.72802 6.62488 8.71442C6.62227 8.71118 6.61975 8.70805 6.61734 8.70504C6.05129 9.89656 6.20453 10.7284 6.49537 11.2632C6.64548 11.5416 6.83625 11.7417 6.98637 11.873C7.06142 11.9387 7.1271 11.9888 7.17401 12.02C7.1959 12.0357 7.21466 12.0482 7.22717 12.0544C7.23084 12.0581 7.2345 12.0596 7.23753 12.0609C7.23968 12.0618 7.24151 12.0625 7.24281 12.0638L7.24594 12.0669L7.52427 12.2171L7.20841 12.1952C7.08331 12.1858 6.94571 12.2264 6.80811 12.2984C6.6705 12.3703 6.53603 12.4672 6.41719 12.5704C6.20765 12.7487 6.06067 12.9238 6.02001 12.9739L6.0075 12.9864L5.95121 13.0427L5.9043 12.9833C5.35389 12.2921 5.15686 11.601 5.1725 10.9474C5.18814 10.2969 5.41956 9.69329 5.71353 9.17727C6.0075 8.66126 6.3734 8.23281 6.66112 7.93259C6.80498 7.78247 6.93007 7.66676 7.02077 7.58545C7.03996 7.569 7.05795 7.55375 7.07421 7.53997C7.09504 7.52231 7.11304 7.50705 7.1271 7.49476C7.13442 7.48743 7.14068 7.48225 7.14586 7.47796C7.14952 7.47492 7.15265 7.47233 7.15524 7.46974L7.1615 7.46348L7.16462 7.46036L7.48674 7.20391L7.26783 7.55105C7.19903 7.66051 7.19903 7.82626 7.25532 8.02953C7.31161 8.22968 7.41481 8.45173 7.53365 8.66126C7.65249 8.87079 7.78071 9.06156 7.88079 9.20229C7.88721 9.21112 7.89348 9.21975 7.89959 9.22816C7.94111 9.28529 7.9755 9.3326 8.00275 9.36804C8.00998 9.37671 8.01587 9.38471 8.02104 9.39174C8.02706 9.39992 8.03211 9.40678 8.03716 9.41182C8.04028 9.41808 8.04341 9.42121 8.04654 9.42433ZM12.0026 9.54005L11.8744 9.53066L11.9589 9.42433L11.962 9.42121C11.9651 9.41808 11.9682 9.41495 11.9714 9.4087C11.9776 9.39931 11.9901 9.38368 12.0058 9.36491C12.0277 9.33857 12.0543 9.30143 12.0855 9.25783C12.0987 9.23933 12.1128 9.21966 12.1277 9.19916C12.2278 9.05843 12.356 8.86766 12.4749 8.65813C12.5937 8.4486 12.6969 8.22656 12.7532 8.02641C12.8095 7.82313 12.8095 7.65738 12.7407 7.54792L12.5218 7.20079L12.8439 7.45723L12.847 7.46036L12.8533 7.46661C12.8595 7.47287 12.8689 7.48225 12.8814 7.49163C12.9064 7.51039 12.944 7.54167 12.9878 7.58232C13.0753 7.66051 13.2035 7.77935 13.3474 7.92946C13.6351 8.22969 14.001 8.65813 14.295 9.17414C14.589 9.69016 14.8204 10.2937 14.836 10.9442C14.8517 11.5978 14.6546 12.289 14.1042 12.9801L14.0573 13.0396L14.001 12.9833C13.9991 12.9833 13.9972 12.9809 13.9945 12.9776C13.9928 12.9755 13.9909 12.9731 13.9885 12.9707C13.9479 12.9207 13.8009 12.7456 13.5913 12.5673C13.4725 12.4641 13.338 12.3672 13.2004 12.2952C13.0628 12.2233 12.9252 12.1827 12.8001 12.192L12.4842 12.2139L12.7626 12.0638L12.7657 12.0607C12.7688 12.0576 12.7751 12.0544 12.7813 12.0513C12.7939 12.0451 12.8126 12.0325 12.8345 12.0169C12.8388 12.0137 12.8433 12.0105 12.8479 12.0071C12.8936 11.9737 12.954 11.9296 13.0222 11.8699C13.1723 11.7386 13.363 11.5384 13.5131 11.2601C13.804 10.7222 13.9572 9.89344 13.3912 8.70191C13.3787 8.72068 13.363 8.73944 13.3474 8.75821C13.2755 8.8489 13.1723 8.97399 13.044 9.09283C12.7876 9.33051 12.4217 9.57445 12.0026 9.54005ZM12.5749 13.0427C13.2411 13.6025 13.6132 14.1591 13.7946 14.6845C13.976 15.2099 13.9604 15.6978 13.8478 16.1137C13.7477 16.5297 13.5663 16.8737 13.4068 17.1114C13.3255 17.2302 13.2536 17.324 13.2004 17.3897C13.1754 17.4241 13.1535 17.4491 13.1379 17.4648L13.1191 17.4835L13.1128 17.4898L13.0628 17.5398L13.0128 17.4898C12.5593 17.0175 11.8181 16.8987 11.1739 16.9018C10.8549 16.905 10.5641 16.9362 10.3545 16.9675C10.2482 16.9831 10.1638 16.9988 10.1043 17.0113C10.0867 17.0163 10.071 17.0193 10.0574 17.022C10.0542 17.0226 10.0511 17.0232 10.048 17.0238C10.0418 17.0269 10.0387 17.0269 10.0355 17.0269C10.0296 17.0269 10.0249 17.0282 10.0215 17.0291C10.0195 17.0296 10.0179 17.0301 10.0168 17.0301H10.0136L9.98862 17.0363L9.9636 17.0301H9.96048C9.95422 17.0301 9.94797 17.0301 9.94171 17.0269C9.94015 17.0269 9.9378 17.0261 9.93546 17.0254C9.93311 17.0246 9.93077 17.0238 9.9292 17.0238C9.92338 17.0226 9.91713 17.021 9.91044 17.0193C9.89916 17.0164 9.88665 17.0133 9.87291 17.0113C9.81349 16.9988 9.72905 16.9831 9.62272 16.9675C9.41319 16.9362 9.12235 16.905 8.80336 16.9018C8.15912 16.8987 7.42107 17.0207 6.96447 17.4898L6.91444 17.5398L6.8644 17.4898L6.85814 17.4835C6.85189 17.4804 6.84563 17.4741 6.83938 17.4648C6.82687 17.446 6.80498 17.421 6.77683 17.3897C6.72367 17.324 6.64861 17.2302 6.57043 17.1114C6.41093 16.8706 6.22955 16.5297 6.12947 16.1137C6.0294 15.6978 6.01376 15.2099 6.19515 14.6845C6.3734 14.1623 6.74556 13.6025 7.41481 13.0427L7.65562 12.8425L7.52427 13.1271V13.1302L7.52114 13.1396C7.51802 13.1459 7.51176 13.1615 7.50551 13.1772C7.48987 13.2116 7.46798 13.2616 7.44296 13.3241C7.39292 13.4492 7.32412 13.6275 7.25532 13.837C7.11771 14.2561 6.98011 14.794 6.98011 15.2881C6.98011 15.7822 7.11146 16.2107 7.48987 16.439C7.86828 16.6642 8.51251 16.7079 9.57269 16.3764C9.57269 16.3483 9.56956 16.3045 9.5633 16.2513C9.54767 16.145 9.51014 15.998 9.42883 15.8448C9.26308 15.5383 8.90969 15.1943 8.13098 15.0661L8.10909 15.0629L8.09345 15.0473L8.09032 15.0442C8.08903 15.0429 8.08773 15.0411 8.08621 15.0389C8.08407 15.0359 8.08148 15.0322 8.07781 15.0285C8.07452 15.0242 8.07046 15.019 8.0659 15.0132C8.05746 15.0025 8.04731 14.9896 8.03716 14.9754C8.00588 14.9285 7.96835 14.8628 7.94646 14.7815C7.89955 14.6126 7.91519 14.3874 8.1341 14.1466L8.18414 14.0935L8.23418 14.1466L8.23731 14.1498L8.24356 14.156C8.24615 14.1586 8.24928 14.1612 8.25294 14.1642C8.25812 14.1685 8.26438 14.1737 8.27171 14.181C8.29673 14.2061 8.33113 14.2373 8.37804 14.2749C8.46873 14.3499 8.60008 14.45 8.7627 14.5469C9.07856 14.7346 9.4945 14.9003 9.93859 14.8503C9.94484 14.8487 9.9511 14.8479 9.95735 14.8472C9.9636 14.8464 9.96986 14.8456 9.97611 14.844L9.99488 14.8409L10.0136 14.844C10.0262 14.8472 10.0387 14.8503 10.0512 14.8503C10.4921 14.9035 10.9112 14.7346 11.2271 14.5469C11.3865 14.4531 11.521 14.3499 11.6117 14.2749C11.6413 14.2492 11.6659 14.2273 11.6863 14.2092C11.6983 14.1985 11.7088 14.1891 11.718 14.181C11.7306 14.1717 11.7399 14.1623 11.7462 14.156L11.7525 14.1498L11.7556 14.1466L11.8056 14.0935L11.8557 14.1466C12.0746 14.3874 12.0902 14.6126 12.0433 14.7815C12.0214 14.8659 11.9839 14.9316 11.9526 14.9754C11.9424 14.9896 11.9323 15.0025 11.9239 15.0132C11.9193 15.019 11.9152 15.0242 11.9119 15.0285C11.9083 15.0322 11.9057 15.0359 11.9035 15.0389C11.902 15.0411 11.9007 15.0429 11.8994 15.0442L11.8963 15.0473L11.8807 15.0629L11.8588 15.0661C11.0801 15.1943 10.7236 15.5414 10.5609 15.8448C10.4765 15.998 10.4421 16.145 10.4265 16.2513C10.4202 16.3045 10.4171 16.3452 10.4171 16.3764C11.4804 16.7079 12.1246 16.6673 12.4999 16.439C12.8783 16.2107 13.0096 15.7822 13.0096 15.2881C13.0065 14.794 12.872 14.2561 12.7344 13.837C12.6656 13.6275 12.5968 13.4492 12.5468 13.3241C12.5218 13.2616 12.4999 13.2116 12.4842 13.1772C12.4815 13.1703 12.4788 13.164 12.4763 13.1584C12.4731 13.1511 12.4704 13.1449 12.4686 13.1396L12.4655 13.1302V13.1271L12.3341 12.8425L12.5749 13.0427ZM10.5859 17.6368C10.686 17.6117 10.783 17.5773 10.8768 17.5398C10.9737 17.5023 11.0707 17.4585 11.1551 17.4085C11.127 17.4554 11.0926 17.4992 11.0551 17.5398C11.0175 17.5805 10.98 17.618 10.9362 17.6555C10.8518 17.7306 10.758 17.7931 10.6579 17.8432C10.5547 17.8963 10.4483 17.9339 10.3358 17.962C10.2232 17.987 10.1075 17.9995 9.99175 17.9995C9.87604 18.0027 9.76033 17.9901 9.64774 17.962C9.53516 17.9339 9.42883 17.8963 9.32562 17.8432C9.22555 17.7931 9.13173 17.7275 9.04729 17.6555C9.00663 17.6211 8.96598 17.5805 8.92845 17.5398C8.89092 17.4992 8.85652 17.4554 8.82838 17.4085C8.92532 17.4585 9.02227 17.5023 9.11922 17.5398C9.21617 17.5773 9.31312 17.6086 9.41006 17.6368C9.50701 17.6649 9.60396 17.6868 9.70091 17.6993C9.79785 17.7118 9.8948 17.7181 9.99175 17.7181H9.99801H10.0043C10.1012 17.7181 10.1982 17.7118 10.2951 17.6993C10.3952 17.6837 10.4921 17.6649 10.5859 17.6368ZM16.0713 5.41507C16.1026 5.51202 16.1276 5.61209 16.1401 5.71217C16.1651 5.90606 16.1651 6.10621 16.1214 6.30324C16.0995 6.49713 16.0619 6.6879 16.0119 6.87554C15.9869 6.96936 15.9619 7.06318 15.9306 7.15388C15.8993 7.24457 15.868 7.33526 15.8305 7.42595C15.8806 7.24144 15.9243 7.0538 15.9556 6.86303C15.99 6.67539 16.0119 6.48462 16.0182 6.29385C16.0275 6.10621 16.015 5.91857 15.9806 5.73406C15.9619 5.64336 15.9337 5.55893 15.8993 5.47449C15.8806 5.42758 15.8555 5.38692 15.8305 5.34627L15.8243 5.35252C15.793 5.38379 15.7648 5.41194 15.7304 5.44009C15.6648 5.49325 15.596 5.54329 15.524 5.58394C15.4521 5.6246 15.3771 5.659 15.302 5.69028C15.2269 5.72155 15.1488 5.74969 15.0706 5.77159C14.9142 5.81537 14.7547 5.84664 14.5952 5.86541C14.5577 5.87166 14.517 5.87479 14.4764 5.87792C14.4388 5.88104 14.3982 5.88417 14.3575 5.8873C14.3169 5.89043 14.2762 5.89355 14.2387 5.89355C14.2293 5.89355 14.2199 5.89433 14.2105 5.89512C14.2012 5.8959 14.1918 5.89668 14.1824 5.89668C14.1605 5.89981 14.1386 5.89981 14.1199 5.89981H13.9979C13.9604 5.89668 13.9197 5.89668 13.879 5.89668L13.7602 5.89355L13.6414 5.8873C13.485 5.87479 13.3255 5.85915 13.1691 5.84039L13.0503 5.82475C13.0096 5.82162 12.969 5.81537 12.9315 5.80911L12.8126 5.79035C12.7939 5.78722 12.7743 5.7841 12.7548 5.78097C12.7352 5.77784 12.7157 5.77471 12.6969 5.77159C12.6563 5.76312 12.6147 5.75556 12.5727 5.74794C12.5372 5.74148 12.5013 5.73497 12.4655 5.7278C12.441 5.7229 12.4164 5.7183 12.392 5.71372C12.3386 5.7037 12.2856 5.69377 12.2341 5.68089L12.0026 5.62773C11.9651 5.61835 11.9268 5.60896 11.8885 5.59958C11.8502 5.5902 11.8119 5.58082 11.7743 5.57144C11.7337 5.56205 11.6962 5.55267 11.6586 5.54329L11.5429 5.51202L11.3177 5.44947C11.258 5.43317 11.1935 5.41922 11.1304 5.40559C11.1209 5.40353 11.1114 5.40148 11.102 5.39943C11.0269 5.38379 10.955 5.37129 10.8799 5.35878C10.7298 5.33376 10.5797 5.31812 10.4296 5.30561C10.2826 5.29623 10.1325 5.28997 9.9855 5.28997C9.83851 5.28997 9.6884 5.29623 9.54141 5.30561C9.3913 5.31812 9.24119 5.33376 9.09107 5.35878C9.01602 5.37129 8.94096 5.38379 8.86903 5.39943C8.79397 5.41194 8.72205 5.43071 8.65324 5.44947L8.42807 5.51202L8.31236 5.54329C8.27171 5.55267 8.23418 5.56205 8.19665 5.57144C8.15912 5.58082 8.12081 5.5902 8.0825 5.59958C8.04419 5.60896 8.00588 5.61835 7.96835 5.62773L7.73693 5.68089C7.66187 5.69653 7.58369 5.71217 7.50551 5.7278C7.43045 5.74344 7.35227 5.75908 7.27408 5.77159C7.25532 5.77471 7.23577 5.77784 7.21623 5.78097C7.19668 5.7841 7.17713 5.78722 7.15837 5.79035L7.03953 5.80911C7.00369 5.81187 6.97029 5.81706 6.93503 5.82253C6.93028 5.82327 6.92551 5.82401 6.92069 5.82475L6.80185 5.84039C6.64548 5.86228 6.48912 5.87792 6.32962 5.8873L6.21078 5.89355L6.09194 5.89668C6.05441 5.89981 6.01376 5.89981 5.9731 5.89981C5.946 5.90189 5.9189 5.9012 5.89179 5.9005C5.87824 5.90016 5.86469 5.89981 5.85114 5.89981C5.84019 5.89981 5.83003 5.89903 5.81986 5.89824C5.8097 5.89746 5.79954 5.89668 5.78859 5.89668C5.77295 5.89355 5.75106 5.89355 5.7323 5.89355C5.71317 5.89196 5.69324 5.89118 5.6729 5.89038C5.65333 5.88961 5.63339 5.88883 5.61346 5.8873C5.59313 5.88573 5.57358 5.88417 5.55404 5.88261C5.53449 5.88104 5.51495 5.87948 5.49462 5.87792C5.49175 5.87768 5.48886 5.87744 5.48595 5.8772C5.45087 5.87429 5.41333 5.87118 5.37578 5.86541C5.21628 5.84664 5.05679 5.81537 4.90042 5.77159C4.82224 5.74657 4.74405 5.72155 4.669 5.69028C4.59394 5.66213 4.51888 5.6246 4.44696 5.58394C4.37503 5.54329 4.30622 5.49325 4.24055 5.44009C4.20615 5.41194 4.17488 5.38379 4.14673 5.35252L4.14048 5.34627C4.11546 5.38692 4.09044 5.4307 4.07167 5.47449C4.03415 5.55893 4.00913 5.64649 3.99036 5.73406C3.95596 5.91857 3.94345 6.10621 3.95283 6.29385C3.96222 6.48462 3.98098 6.67539 4.01538 6.86303C4.04665 7.0538 4.08731 7.24144 4.14048 7.42595C4.10295 7.33526 4.07167 7.24457 4.0404 7.15388C4.01225 7.06318 3.98411 6.96936 3.95909 6.87554C3.90905 6.6879 3.87465 6.49713 3.84963 6.30324C3.82461 6.10621 3.82461 5.90919 3.84963 5.71217C3.86214 5.61209 3.88403 5.51202 3.91843 5.41507C3.95596 5.31499 4.006 5.2243 4.07167 5.13986L4.14048 5.04917L4.21866 5.15237L4.23117 5.16801C4.2343 5.17113 4.23664 5.17426 4.23899 5.17739C4.24133 5.18052 4.24368 5.18364 4.24681 5.18677C4.25619 5.19928 4.2687 5.21179 4.28121 5.2243C4.30622 5.24932 4.33437 5.27121 4.36252 5.2931C4.42194 5.33688 4.48136 5.37441 4.54703 5.40569C4.61271 5.43696 4.68151 5.46511 4.75031 5.49012C4.81911 5.51514 4.89104 5.53703 4.96297 5.55267C5.10995 5.58707 5.25694 5.60896 5.40705 5.62147C5.42582 5.62304 5.44458 5.62382 5.46334 5.6246C5.48211 5.62538 5.50087 5.62616 5.51964 5.62773C5.5384 5.62773 5.55717 5.62851 5.57593 5.62929C5.59469 5.63007 5.61346 5.63086 5.63222 5.63086H5.74793H5.80735H5.86052C5.87928 5.63086 5.89805 5.63007 5.91681 5.62929C5.93558 5.62851 5.95434 5.62773 5.9731 5.62773L6.08882 5.62147L6.20453 5.61209L6.32024 5.60271C6.47348 5.58707 6.62672 5.57144 6.77683 5.54642L6.89254 5.52765C6.9332 5.5214 6.97073 5.51514 7.00826 5.50889L7.12084 5.49012L7.23343 5.46823C7.25845 5.46302 7.28347 5.45816 7.30849 5.45329C7.35852 5.44356 7.40856 5.43383 7.4586 5.42132C7.53365 5.40569 7.60871 5.39005 7.68376 5.37129L7.90893 5.31499L8.13098 5.25557C8.14974 5.24932 8.1685 5.24463 8.18727 5.23994C8.20603 5.23525 8.2248 5.23055 8.24356 5.2243L8.35302 5.19303L8.57193 5.12735C8.65324 5.10546 8.73143 5.0867 8.80961 5.06793C8.8878 5.0523 8.96911 5.03666 9.04729 5.02415C9.20679 4.99913 9.36628 4.98037 9.52577 4.96786C9.68214 4.95535 9.83851 4.94909 9.99488 4.94909C10.1512 4.94909 10.3076 4.95535 10.464 4.96786C10.6235 4.98037 10.783 4.99913 10.9425 5.02415C10.9478 5.02501 10.9532 5.02587 10.9586 5.02673C11.0318 5.03841 11.1073 5.05046 11.1801 5.06793C11.2583 5.08357 11.3365 5.10233 11.4178 5.12735L11.6367 5.19303L11.7462 5.2243C11.7837 5.23681 11.8213 5.24619 11.8588 5.25557L12.0808 5.31499L12.306 5.37129C12.3435 5.38067 12.381 5.38849 12.4186 5.3963C12.4561 5.40412 12.4936 5.41194 12.5312 5.42132C12.5812 5.43383 12.6312 5.44356 12.6813 5.45329C12.7063 5.45816 12.7313 5.46302 12.7563 5.46823L12.8689 5.49012L12.9815 5.50889C13.0222 5.51514 13.0597 5.5214 13.0972 5.52765L13.2129 5.54642C13.3662 5.56831 13.5163 5.58707 13.6695 5.60271L13.7852 5.61209L13.9009 5.62147L14.0167 5.62773C14.0542 5.63086 14.0917 5.63086 14.1292 5.63086H14.1824H14.2418H14.3575C14.3951 5.63086 14.4326 5.63086 14.4701 5.62773C14.5076 5.62773 14.5452 5.6246 14.5827 5.62147C14.7328 5.60896 14.8798 5.58707 15.0268 5.55267C15.0987 5.53703 15.1706 5.51514 15.2394 5.49012C15.3114 5.46823 15.3771 5.44009 15.4427 5.40569C15.5084 5.37441 15.5709 5.33688 15.6272 5.2931C15.6554 5.27121 15.6835 5.24932 15.7086 5.2243C15.7148 5.21804 15.7203 5.21179 15.7257 5.20554C15.7312 5.19928 15.7367 5.19303 15.743 5.18677C15.7461 5.18364 15.7484 5.18052 15.7508 5.17739C15.7531 5.17426 15.7555 5.17113 15.7586 5.16801L15.7711 5.15237L15.8493 5.04917L15.9181 5.13986C15.9838 5.2243 16.0369 5.31499 16.0713 5.41507Z" fill="black"/>
</svg>
