<svg width="20" height="20" viewBox="0 0 20 20" fill="none" xmlns="http://www.w3.org/2000/svg">
<path fill-rule="evenodd" clip-rule="evenodd" d="M5.62723 0.117384C5.45046 0.180337 5.00318 0.437453 4.63338 0.68869C2.76147 1.96023 1.49092 3.67357 0.878704 5.75206C0.616281 6.64311 0.517648 8.43884 0.676865 9.42607C1.08952 11.9843 1.80805 13.5532 3.20418 14.9444C4.25722 15.9938 5.38546 16.6839 6.92677 17.2217C7.33004 17.3624 7.72172 17.5334 7.79716 17.6017C7.88151 17.678 7.95605 17.9203 7.99059 18.2302C8.13274 19.5074 8.72209 20 10.1076 20V10.8293C9.94741 10.8266 9.78359 10.8333 9.62286 10.8505C8.51038 10.9693 8.17161 11.4123 7.98594 12.9912C7.92878 13.4776 7.78761 13.5318 7.30563 13.2524C6.07002 12.5359 5.3426 11.8031 4.81008 10.7386C4.19525 9.50984 4.06094 8.33588 4.38966 7.06475C4.7419 5.70233 5.48287 4.61704 6.67162 3.7224C7.79088 2.88002 8.03558 2.4307 7.87465 1.51417C7.66897 0.343065 6.69423 -0.262779 5.62723 0.117384ZM9.31316 6.40795C8.81746 6.58987 8.5494 6.82592 8.32348 7.27916C7.94911 8.03042 8.05877 8.9814 8.58729 9.56708C9.01017 10.0357 9.56815 10.2207 10.1076 10.1824V6.29479C9.84696 6.27638 9.57756 6.31091 9.31316 6.40795Z" fill="#17A84B"/>
<path d="M10.1074 10.1824C11.0554 10.1152 11.9461 9.35899 11.9461 8.24239C11.9461 7.18365 11.0887 6.36409 10.1074 6.29479V10.1824Z" fill="#077FA2"/>
<path d="M10.1074 20C11.305 20 11.8844 19.5097 12.0425 18.3622C12.0886 18.028 12.1826 17.6919 12.2515 17.6153C12.3204 17.5387 12.7286 17.3589 13.1585 17.2156C14.6234 16.7275 15.8002 16.004 16.851 14.9453C18.0598 13.7272 18.6951 12.5182 19.1529 10.5637C19.3985 9.51555 19.4195 9.31739 19.42 8.03826C19.4206 6.75954 19.4026 6.58652 19.1901 5.84147C18.6522 3.95429 17.6698 2.4614 16.1678 1.24873C14.9023 0.227041 14.1317 -0.110093 13.383 0.0303454C12.7024 0.157964 12.1152 1.03178 12.1138 1.91891C12.1127 2.5526 12.3947 3.02388 13.0659 3.51035C14.0946 4.2559 14.9142 5.21227 15.3371 6.16031C16.1825 8.05557 15.8143 10.3766 14.4245 11.9122C13.7313 12.6784 12.4388 13.5372 12.2007 13.3901C12.1379 13.3512 12.0669 13.0513 12.0272 12.6568C11.9516 11.9068 11.7112 11.3955 11.295 11.0991C11.0685 10.9378 10.6054 10.8378 10.1074 10.8293V20Z" fill="#077FA2"/>
</svg>
