<svg width="20" height="20" viewBox="0 0 20 20" fill="none" xmlns="http://www.w3.org/2000/svg">
<path d="M17.8276 19.9H1.3438C1.06117 19.9 0.79173 19.7804 0.602144 19.5708L0.451852 19.4046C0.178713 19.1026 0.115972 18.6651 0.29322 18.2985L8.7511 0.805267C8.84756 0.605757 9.00756 0.44394 9.20597 0.345232L9.45448 0.221597C9.73503 0.0820251 10.0648 0.0820251 10.3453 0.221598L10.5957 0.346169C10.793 0.444302 10.9523 0.604827 11.0489 0.802811L19.2985 17.7024C19.3652 17.839 19.3999 17.989 19.3999 18.141V18.6966C19.3999 19.1198 19.1335 19.4972 18.7348 19.6389L18.1625 19.8423C18.0549 19.8805 17.9417 19.9 17.8276 19.9Z" fill="white"/>
<path fill-rule="evenodd" clip-rule="evenodd" d="M9.50369 0.0608628C9.09041 0.167272 8.84085 0.400927 8.6514 0.85877C8.59607 0.992529 8.31662 1.58906 8.03044 2.18446C7.74427 2.77987 7.49168 3.32859 7.46911 3.40385C7.37784 3.70847 7.62804 4.38723 7.99887 4.84102C8.3151 5.22797 8.82332 5.58088 9.25751 5.715C9.83739 5.89413 10.5982 5.7578 11.1571 5.37458C11.8075 4.92867 12.2927 4.11767 12.2941 3.47436C12.2947 3.2093 12.2802 3.17139 11.7831 2.14032C11.545 1.64665 11.3 1.11147 11.2385 0.951029C11.154 0.730291 11.0806 0.60938 10.9367 0.453938C10.7239 0.224084 10.5383 0.128165 10.1473 0.0459381C9.84337 -0.0180198 9.80659 -0.0171398 9.50369 0.0608628ZM12.3403 5.21308L11.8052 5.95949L11.9909 6.05372C12.4073 6.26506 14.1662 7.07392 14.1798 7.06033C14.1982 7.04192 12.9212 4.46294 12.8948 4.46509C12.8841 4.46597 12.6346 4.80255 12.3403 5.21308ZM6.40735 5.5459C5.87788 6.66634 5.77488 6.8963 5.79403 6.91545C5.80195 6.92337 6.1788 6.76472 6.6315 6.56289C7.84417 6.02225 7.92977 5.98227 7.92977 5.9564C7.92977 5.93612 7.67218 5.60056 7.03524 4.79107C6.95611 4.69051 6.88258 4.60737 6.87185 4.60627C6.86111 4.60518 6.65206 5.028 6.40735 5.5459ZM8.98323 6.62934C8.08962 6.76866 7.07678 7.15702 6.09939 7.73514L5.80019 7.91213L9.66589 7.91139C11.8949 7.91097 13.5268 7.89745 13.5203 7.8795C13.514 7.86236 13.4008 7.76232 13.2686 7.65725C12.5593 7.09338 11.7088 6.75765 10.6609 6.6279C10.1494 6.56458 9.39451 6.56525 8.98323 6.62934ZM8.77457 8.68716L5.13139 8.70507L4.9882 8.78174C4.90943 8.82387 4.78904 8.92032 4.72065 8.99603C4.5991 9.13057 4.40002 9.50682 4.35457 9.68785L4.33176 9.77866L6.72038 9.78176C8.03411 9.78345 9.18816 9.79531 9.28496 9.80816L9.46096 9.83146L9.47856 14.8826L9.49616 19.9338L9.75506 19.9655C10.0949 20.0071 10.2445 19.969 10.3486 19.8142L10.429 19.6946V14.7366V9.77866L11.2121 9.77595C11.6429 9.77448 12.0587 9.76993 12.1361 9.76589C12.2136 9.76184 12.9937 9.75515 13.8697 9.751C15.1164 9.74512 15.4626 9.73389 15.4627 9.69947C15.4629 9.62055 15.0722 9.07745 14.9236 8.95031C14.844 8.88209 14.696 8.78716 14.5948 8.73929C14.4111 8.65238 14.4095 8.65227 13.4143 8.66076C12.8662 8.6654 10.7783 8.6773 8.77457 8.68716ZM4.26597 10.6203C3.98293 10.6601 3.88561 10.7599 3.62597 11.2765C3.33462 11.8563 3.17781 12.5501 3.17781 13.2595C3.17781 13.8263 3.21966 14.2069 3.33505 14.689C3.77564 16.53 4.79393 17.9853 6.29774 18.9234C6.60669 19.1161 7.1891 19.3919 7.61298 19.5463C7.9919 19.6843 8.7846 19.9514 8.81522 19.9514C8.82951 19.9514 8.83208 17.912 8.82092 15.4194C8.79903 10.5325 8.806 10.6957 8.61557 10.6232C8.51384 10.5846 4.53955 10.5819 4.26597 10.6203ZM11.6356 10.6544C11.3235 10.6717 11.2276 10.6894 11.178 10.7391C11.12 10.7972 11.1133 10.9532 11.0884 12.8335C11.0599 14.9751 11.0671 19.9678 11.0987 19.9993C11.1169 20.0175 12.0793 19.6784 12.6289 19.4601C13.3813 19.1612 14.0576 18.715 14.6833 18.1046C15.4168 17.3892 15.8432 16.7599 16.1987 15.8682C16.5472 14.9942 16.691 14.3482 16.72 13.5268C16.7497 12.6833 16.599 11.9773 16.2344 11.2521C16.0468 10.8789 15.9441 10.7453 15.8036 10.6915C15.6793 10.6439 12.3601 10.6144 11.6356 10.6544ZM17.2815 13.6242C17.2508 13.7522 16.9455 15.3434 16.9191 15.5129C16.8956 15.6637 16.8973 15.6674 16.9795 15.6462C17.5326 15.5038 18.1726 15.3178 18.1727 15.2995C18.173 15.2631 17.3346 13.545 17.3166 13.545C17.3078 13.545 17.292 13.5807 17.2815 13.6242ZM2.02009 14.6597C1.80375 15.1179 1.63912 15.5047 1.65426 15.5193C1.66943 15.5339 1.92734 15.6113 2.22742 15.6913C2.52749 15.7713 2.80072 15.845 2.83461 15.8549C2.87111 15.8656 2.89642 15.8541 2.89678 15.8266C2.89794 15.7315 2.4604 13.8266 2.43738 13.8266C2.42425 13.8266 2.23646 14.2015 2.02009 14.6597ZM17.9793 16.1701C17.9406 16.1787 17.8218 16.2031 17.7153 16.2245C17.1019 16.3473 16.4674 16.8022 16.1376 17.3557C15.8788 17.7901 15.749 18.3952 15.8143 18.8625C15.8624 19.2064 15.9702 19.5255 16.0975 19.7013C16.2917 19.9694 16.1958 19.9562 17.8614 19.9444C19.3352 19.9339 19.3538 19.9329 19.5021 19.8536C19.7976 19.6958 19.9658 19.3244 19.8995 18.9759C19.8478 18.7033 19.8223 18.6454 19.1763 17.329C18.632 16.2197 18.597 16.1747 18.2691 16.1625C18.1484 16.1581 18.018 16.1614 17.9793 16.1701ZM1.32525 16.3817C1.19441 16.4463 1.01211 16.7617 0.543567 17.7338C0.0517568 18.7542 0.00592688 18.8747 0.000259727 19.1616C-0.00688582 19.5247 0.132822 19.7425 0.49207 19.9283C0.5907 19.9793 0.755153 19.9864 1.81206 19.9848C3.27904 19.9826 3.45497 19.9673 3.59834 19.83C3.74086 19.6934 3.83143 19.4877 3.90173 19.1408C4.11673 18.0796 3.43941 16.9259 2.37293 16.5367C2.10946 16.4405 1.62849 16.325 1.4985 16.3266C1.46379 16.327 1.38586 16.3519 1.32525 16.3817ZM4.67651 18.7109C4.65803 18.769 4.48048 19.8677 4.48031 19.925C4.48024 19.9395 4.92724 19.9514 5.47361 19.9514H6.46705L5.7288 19.4022C4.68425 18.6251 4.70037 18.6357 4.67651 18.7109ZM14.1656 19.283L13.3087 19.9162H14.3287H15.3486L15.2658 19.573C15.2202 19.3842 15.1551 19.0991 15.1211 18.9394C15.0872 18.7797 15.0511 18.6492 15.041 18.6494C15.0308 18.6496 14.6369 18.9347 14.1656 19.283Z" fill="black"/>
</svg>
