<svg width="20" height="20" viewBox="0 0 20 20" fill="none" xmlns="http://www.w3.org/2000/svg">
<path d="M9.63455 6.32455H9.63727L9.61 6.44273L9.37364 7.55818H9.34636L7.78909 14.1818H5.80818L7.39636 7.55818H4.73091L3.23455 14.1818H1.05636L3.03636 6H9.70273L9.63455 6.32455ZM13.3991 6H16.6991C19.5382 6.13 19.2736 8.01273 19.2736 8.01273H20L19.7364 8.79182H19.0755C18.8782 9.50636 17.5573 9.89636 17.5573 9.89636C19.0755 10.0909 19.01 11.26 19.01 11.26H19.7364L19.5382 12.0391H18.9436C18.7918 13.1209 17.8327 13.6464 17.0445 13.8964C16.5679 14.0452 16.0712 14.1197 15.5718 14.1173H11.4182L13.3991 6ZM2.11182 7.55818H0L0.396364 6H2.50818L2.11182 7.55818ZM11.1555 13.2727L9.43909 9.24636L10.1655 6.13L11.8809 9.96091L11.1555 13.2727ZM16.2045 9.24636C16.4409 9.24636 16.6682 9.15545 16.8345 8.99C17.0009 8.82454 17.0955 8.60273 17.0955 8.37C17.0955 8.13727 17.0018 7.91455 16.8345 7.75C16.6673 7.58545 16.4409 7.49364 16.2045 7.49364H14.9182L14.5227 9.24636H16.2045ZM15.76 12.6236C16.3518 12.6236 16.8318 12.1727 16.8318 11.6173C16.8318 11.0609 16.3545 10.61 15.76 10.61H14.2127L13.7364 12.6236H15.76Z" fill="#FFC04E"/>
</svg>
