<svg width="20" height="20" viewBox="0 0 20 20" fill="none" xmlns="http://www.w3.org/2000/svg">
<path d="M3.24079 4.99912C3.79242 4.81878 4.36893 4.71934 4.94307 4.64504C5.45558 4.57872 5.93772 4.41982 6.43766 4.30119C6.8482 4.20377 7.24036 4.04761 7.65309 3.95733C8.20165 3.83733 8.77021 3.76038 9.32472 3.66964C10.0047 3.55836 10.7379 3.60306 11.4202 3.66624C11.6505 3.68757 11.9432 3.62527 12.1641 3.68837C12.2872 3.72354 12.4353 3.76192 12.5624 3.77348C12.8122 3.79619 13.0578 3.88376 13.3046 3.92669C13.4922 3.9593 13.7194 3.95547 13.897 4.01861C14.1296 4.10131 14.3498 4.22155 14.5728 4.33864C14.9352 4.52891 15.2893 4.74357 15.6401 4.95486C15.7634 5.02908 15.9918 5.12962 16.064 5.25957C16.0987 5.32209 15.6496 5.40897 15.6027 5.42128C15.2406 5.5162 14.8759 5.55617 14.5064 5.61194C13.7674 5.72348 13.0123 5.61528 12.273 5.71067C11.9954 5.74649 11.7486 5.82092 11.4815 5.8877C10.9529 6.01984 10.3905 6.10219 9.84391 6.10219C9.3038 6.10219 8.76943 6.22475 8.22505 6.22475C8.04453 6.22475 7.88798 6.30051 7.71437 6.31498C7.47979 6.33452 7.24336 6.35806 7.00963 6.38477C6.61924 6.42938 6.23796 6.49717 5.84527 6.53287C5.35105 6.5778 4.86208 6.66791 4.3677 6.72863C3.80887 6.79726 3.26038 6.85777 2.70968 6.98397C2.38395 7.05862 2.26769 7.38106 2.07984 7.61721C1.91223 7.82793 1.62099 8.0564 1.55895 8.33557C1.52881 8.4712 2.01857 8.39125 2.08495 8.38324C2.56677 8.32509 3.05179 8.30339 3.53699 8.30834C3.68634 8.30986 3.83751 8.34687 3.98639 8.33217C4.13143 8.31784 4.27259 8.26532 4.42047 8.2794C4.74127 8.30995 5.05244 8.45895 5.33119 8.60794C5.6296 8.76744 6.02795 8.83906 6.34574 8.94499C6.69624 9.06182 6.99207 9.16628 7.3603 9.16628C7.76181 9.16628 8.161 9.20283 8.5621 9.22076C9.01053 9.2408 9.54096 9.29102 9.97669 9.15096C10.2333 9.06846 10.5201 9.03917 10.7869 8.99776C11.2697 8.92285 11.7952 8.83305 12.222 8.58411C12.3981 8.48138 12.5595 8.37266 12.7258 8.25387C12.9491 8.09441 13.2549 8.0362 13.5123 7.94746C13.861 7.82722 14.2043 7.67324 14.5541 7.54912C14.687 7.50197 14.8268 7.47977 14.9609 7.43507C15.0944 7.39057 15.2276 7.30408 15.3609 7.29549C15.7578 7.26988 16.0795 7.13075 16.4657 7.28187C16.6685 7.36123 16.8613 7.55833 17.0156 7.71254C17.2366 7.93361 17.5074 8.28444 17.5194 8.60794C17.5348 9.02241 16.945 8.95364 16.6683 8.9518C16.1993 8.94867 15.7211 8.78082 15.2571 8.81562C14.8935 8.84288 14.5365 8.99808 14.1915 9.1016C13.8509 9.20377 13.5274 9.34337 13.1888 9.44886C12.6124 9.62848 12.033 9.73317 11.4457 9.86422C10.8866 9.98899 10.3151 10.1115 9.75029 10.2098C9.14874 10.3144 8.55487 10.5145 7.94077 10.5145C7.25753 10.5145 6.57885 10.4269 5.89294 10.4549C5.48913 10.4714 4.99853 10.627 4.62304 10.7664C4.17992 10.931 3.69389 11.0148 3.27143 11.226C3.06905 11.3272 2.76882 11.5256 2.53605 11.5256C2.3739 11.5256 2.18895 11.6457 2.03899 11.701C1.92966 11.7413 2.05837 11.8006 2.11389 11.8321C2.50046 12.0511 2.93956 12.1078 3.37698 12.1078C3.83211 12.1078 4.27865 12.1997 4.73539 12.1997C5.13656 12.1997 5.53773 12.1997 5.9389 12.1997C6.22946 12.1997 6.51268 12.2512 6.80195 12.261C7.15653 12.2731 7.50623 12.4049 7.83183 12.5351C8.18319 12.6756 8.55522 12.7679 8.92979 12.8194C9.61568 12.9137 10.3511 13.0643 11.0406 12.9181C11.3611 12.8501 11.677 12.739 12.0007 12.69C12.3909 12.631 12.7922 12.6414 13.1803 12.5811C13.5286 12.5269 13.8694 12.3764 14.2 12.261C14.4224 12.1834 14.6586 12.1393 14.869 12.0312C15.0096 11.959 15.1419 11.8728 15.2826 11.8014C15.6226 11.629 15.9809 11.4641 16.3415 11.3418C16.5432 11.2733 16.8862 11.1729 17.1024 11.2209C17.2025 11.2432 17.2352 11.2883 17.259 11.1409C17.292 10.9363 17.291 10.6249 17.3969 10.4396C17.4226 10.3945 17.5169 10.5238 17.5262 10.5519C17.5891 10.7407 17.5531 10.9529 17.482 11.1307C17.2663 11.6699 17.1076 12.2589 16.5832 12.5845C16.2612 12.7843 16.0158 13.0973 15.6691 13.262C15.0145 13.5729 14.3478 13.8419 13.6859 14.1335C13.0102 14.4313 12.3576 14.7492 11.6193 14.8655C11.2375 14.9256 10.8443 15.02 10.4567 14.9727C9.79537 14.8921 9.11834 14.8109 8.44975 14.8042C7.83379 14.7981 7.24403 14.7736 6.63172 14.8417C6.05411 14.9059 5.40137 15.0312 4.82731 14.9268C4.17331 14.8079 3.52458 14.77 2.90374 14.5216C2.76495 14.4661 2.58991 14.4582 2.48158 14.3378C2.3772 14.2218 2.28598 14.0555 2.21603 13.9156C2.20337 13.8903 2.15638 13.7387 2.17517 13.7556C2.37123 13.9321 2.59151 14.1063 2.77437 14.2952C2.88303 14.4075 2.9878 14.525 3.0927 14.6408C3.33229 14.9054 3.65444 15.143 3.83319 15.4545C3.93818 15.6375 3.956 15.8435 4.12768 15.9822C4.23021 16.065 4.34472 16.1357 4.45962 16.2001C4.73845 16.3564 5.10293 16.4603 5.40949 16.5508C5.80224 16.6667 6.23398 16.8352 6.64194 16.881C7.16958 16.9402 7.69905 17.0495 8.23016 17.07C8.55478 17.0824 8.91534 17.0932 9.22939 17.1789C9.92077 17.3675 10.7015 17.6892 11.4219 17.47C11.8635 17.3356 12.3475 17.2533 12.8041 17.1772C13.1104 17.1261 13.4163 17.0458 13.6859 16.8878C13.8243 16.8067 13.9338 16.6918 14.0774 16.6223C14.3018 16.5136 14.5214 16.3374 14.7277 16.1967C14.8377 16.1217 14.9202 15.9707 15.0069 15.8698C15.1362 15.7194 15.2748 15.5854 15.4171 15.4477C15.6521 15.2203 15.852 14.9228 16.0419 14.6578C16.1411 14.5193 16.2828 14.3665 16.3551 14.222" stroke="#4FADD0" stroke-width="2" stroke-linecap="round"/>
<path fill-rule="evenodd" clip-rule="evenodd" d="M8.91629 1.80727C6.03349 2.06588 3.90423 3.33476 2.37622 5.70466C1.38714 7.23879 1.03533 8.57286 1.11097 10.5027C1.17047 12.0192 1.49841 13.1795 2.22395 14.4402C2.7709 15.3906 4.08566 16.7524 4.96338 17.2775C6.7194 18.3282 8.54431 18.6894 10.6778 18.4082C12.7167 18.1396 13.7434 17.7819 14.9243 16.9286C17.362 15.1673 18.6443 12.4897 18.478 9.50782C18.3122 6.53429 16.6149 3.8818 14.054 2.594C12.533 1.82917 11.1068 1.61079 8.91629 1.80727ZM11.1293 2.4965C13.9983 3.19297 16.0657 5.28098 16.804 8.22765C17.8058 12.2264 15.5694 16.3413 11.6782 17.6589C8.95142 18.5823 5.86419 17.8191 3.78532 15.7078C2.28638 14.1855 1.53892 12.3212 1.5488 10.1301C1.55497 8.76181 1.76498 7.86232 2.39051 6.52538C3.29347 4.59541 5.17104 3.07337 7.35051 2.50483C8.36464 2.24017 10.0581 2.23651 11.1293 2.4965ZM13.7115 2.94645C13.9537 3.07773 14.1013 3.18722 14.0395 3.1897C13.9778 3.19218 13.7356 3.08318 13.5013 2.94764C12.9558 2.63185 13.1295 2.63086 13.7115 2.94645ZM8.27794 3.18643C4.69025 3.76806 2.35107 6.5662 2.36193 10.2626C2.36467 11.1889 2.4596 11.688 2.81249 12.6333C3.58598 14.7049 5.38379 16.3399 7.54623 16.9385C8.50899 17.205 10.124 17.1791 11.0692 16.8821C13.7292 16.0462 15.555 14.0476 16.0134 11.4698C16.4828 8.82988 15.6412 6.39944 13.6688 4.69905C13.08 4.19144 11.8388 3.55413 11.0203 3.33912C10.3113 3.15284 8.95181 3.07714 8.27794 3.18643ZM10.6163 3.73823C12.7623 4.19858 14.64 5.91749 15.3852 8.10399C15.5876 8.6979 15.6198 8.97603 15.6198 10.1301C15.6198 11.27 15.5864 11.5655 15.3939 12.1296C15.0246 13.2117 14.6011 13.9001 13.8073 14.7092C13.1769 15.3515 12.8947 15.5531 12.0387 15.9724C11.4786 16.2468 10.7831 16.516 10.4932 16.5705C7.72561 17.0911 4.6877 15.6119 3.4934 13.1623C2.98932 12.1282 2.81151 11.3409 2.80857 10.1301C2.80573 8.92927 3.02416 8.05792 3.61573 6.90983C4.40576 5.37649 6.16697 4.05084 7.88874 3.69344C8.5269 3.56097 9.8949 3.58346 10.6163 3.73823ZM15.0597 3.74477C15.1794 3.82959 15.2773 3.94106 15.2773 3.99248C15.2773 4.16439 14.9975 4.08849 14.72 3.84138C14.4718 3.62022 14.4644 3.59644 14.6438 3.59367C14.753 3.59188 14.9401 3.65995 15.0597 3.74477ZM16.0602 4.72997L16.29 4.97768H16.0604C15.8322 4.97768 15.473 4.7259 15.473 4.56598C15.473 4.39031 15.8402 4.49286 16.0602 4.72997ZM8.85649 5.47112C8.74288 5.51759 8.6182 5.63738 8.57945 5.73726C8.4625 6.03897 8.40437 7.67525 8.49578 8.09547C8.60548 8.60021 9.04781 8.89478 9.55219 8.79897C9.858 8.74091 9.904 8.68651 10.0422 8.21873C10.1579 7.82665 10.1796 7.47619 10.1317 6.7612C10.0548 5.61063 9.93297 5.37164 9.42781 5.38026C9.22719 5.38373 8.97011 5.42465 8.85649 5.47112ZM17.0388 6.06919C17.0388 6.1228 16.928 6.16669 16.7926 6.16669C16.6201 6.16669 16.489 6.07078 16.3536 5.84546C16.1732 5.54494 16.1716 5.51997 16.3306 5.45695C16.4475 5.41068 16.5845 5.48043 16.7696 5.68068C16.9176 5.8407 17.0388 6.01549 17.0388 6.06919ZM9.60748 5.89421C9.67285 6.15708 9.76112 7.68873 9.72452 7.92277C9.66786 8.28393 9.42233 8.41561 9.11573 8.24945C8.934 8.15096 8.91629 8.04662 8.91629 7.07143C8.91629 6.48307 8.94564 5.97179 8.98156 5.93553C9.04174 5.87449 9.59349 5.83813 9.60748 5.89421ZM17.4841 7.00574C17.67 7.45598 17.6703 7.45479 17.352 7.45479C17.1306 7.45479 17.0556 7.39167 16.9606 7.12573C16.8015 6.68025 16.8066 6.66211 17.0927 6.66211C17.2851 6.66211 17.3748 6.74099 17.4841 7.00574ZM5.51561 7.22313C5.44838 7.25068 5.39328 7.35858 5.39328 7.46301C5.39328 7.61402 5.46345 7.65296 5.7358 7.65296H6.07831V8.94106C6.07831 10.0127 6.10268 10.2292 6.22324 10.2292C6.41848 10.2292 6.46594 9.96886 6.49451 8.74289C6.51732 7.76037 6.53043 7.70082 6.73056 7.67198C6.94937 7.64037 7.09939 7.40634 7.00251 7.2477C6.94565 7.15456 5.73247 7.13455 5.51561 7.22313ZM11.9093 7.5405C11.7923 7.73193 11.7519 8.75151 11.8242 9.68419C11.8847 10.4643 11.9323 10.675 12.0478 10.675C12.1595 10.675 12.2064 10.5108 12.2436 9.98917C12.3084 9.07968 12.4615 9.04906 12.8264 9.87265C13.0422 10.3595 13.1532 10.509 13.2664 10.465C13.4887 10.3787 13.4563 10.2031 13.0728 9.41765L12.7278 8.71078L12.975 8.33268C13.516 7.50503 13.1535 7.40604 12.5861 8.22646L12.1946 8.79243L12.1657 8.12361C12.1394 7.51642 12.0492 7.31122 11.9093 7.5405ZM17.8601 8.10696C17.9704 8.39797 17.9205 8.72129 17.7553 8.78549C17.5429 8.86803 17.3723 8.6763 17.2983 8.27224C17.243 7.96993 17.2565 7.95021 17.52 7.95021C17.6857 7.95021 17.8251 8.01442 17.8601 8.10696ZM18.0541 9.54795C18.1576 10.0721 18.1345 10.1301 17.8217 10.1301C17.5829 10.1301 17.5278 10.0885 17.5267 9.90713C17.526 9.78456 17.4988 9.58382 17.4664 9.46125C17.4148 9.26645 17.4443 9.23831 17.7001 9.23831C17.9498 9.23831 18.0019 9.28399 18.0541 9.54795ZM17.9983 11.0961C17.971 11.5272 17.9457 11.5695 17.6993 11.5981C17.4419 11.6281 17.4302 11.6107 17.4302 11.1935C17.4302 10.6923 17.4731 10.6255 17.7943 10.6255C18.0122 10.6255 18.0261 10.6576 17.9983 11.0961ZM7.12621 11.5793C7.03735 11.6692 7.04635 13.919 7.13766 14.4402L7.20704 14.8366H7.84148C8.34018 14.8366 8.47591 14.8048 8.47591 14.688C8.47591 14.5809 8.34575 14.5309 8.01107 14.5091L7.54623 14.4789V13.9394V13.3999H7.94482C8.27158 13.3999 8.33763 13.3686 8.31101 13.2265C8.2886 13.1066 8.16912 13.0437 7.92358 13.0229C7.61483 12.9968 7.56081 12.9533 7.50845 12.6885C7.3647 11.9606 7.39405 11.9136 7.99375 11.9136C8.46045 11.9136 8.53443 11.8885 8.50654 11.7402C8.48012 11.5998 8.35212 11.5613 7.83463 11.538C7.48311 11.5221 7.16428 11.5407 7.12621 11.5793ZM11.2437 12.731L11.216 13.8457L10.9634 13.3999C10.8245 13.1546 10.6594 12.809 10.5965 12.632C10.3087 11.8217 10.2543 11.7154 10.1277 11.7154C10.0187 11.7154 9.99276 12.0196 9.99276 13.3008C9.99276 14.8091 10.0021 14.8861 10.1846 14.8861C10.3568 14.8861 10.3792 14.8048 10.4048 14.0835L10.4331 13.281L10.7756 13.8852C11.1054 14.4668 11.3488 14.6706 11.5577 14.5399C11.666 14.472 11.6953 12.4327 11.5952 11.926C11.5616 11.7556 11.475 11.6163 11.4027 11.6163C11.3022 11.6163 11.2649 11.8784 11.2437 12.731ZM17.7627 12.0954C17.7905 12.1409 17.7637 12.3415 17.7031 12.5413C17.6113 12.8445 17.5486 12.9044 17.3238 12.9044C17.06 12.9044 17.0566 12.8968 17.155 12.5329C17.2102 12.3286 17.2753 12.1278 17.2997 12.087C17.3596 11.9863 17.6999 11.9925 17.7627 12.0954ZM17.3323 13.3965C17.3323 13.4491 17.2582 13.6497 17.1675 13.8424C17.0488 14.0942 16.9389 14.1925 16.776 14.1925C16.4988 14.1925 16.4904 14.0439 16.7441 13.6228C16.9249 13.3227 17.3323 13.1659 17.3323 13.3965ZM16.5495 14.6914C16.5495 14.9017 16.227 15.2825 16.0489 15.2825C15.8153 15.2825 15.8176 15.231 16.0668 14.8766C16.2643 14.5958 16.5495 14.4864 16.5495 14.6914ZM15.6649 15.8321C15.4646 16.0764 14.9781 16.3997 14.9118 16.3327C14.8125 16.2321 15.3959 15.6788 15.6012 15.6788C15.7609 15.6788 15.7709 15.7028 15.6649 15.8321ZM14.3965 16.8077C14.3965 16.8291 14.3282 16.8732 14.2446 16.9057C14.1575 16.9395 14.1183 16.9228 14.1525 16.8667C14.21 16.7725 14.3965 16.7274 14.3965 16.8077Z" fill="black"/>
</svg>
