<svg width="20" height="20" viewBox="0 0 20 20" fill="none" xmlns="http://www.w3.org/2000/svg">
<path d="M10 20C15.5228 20 20 15.5228 20 10C20 4.47715 15.5228 0 10 0C4.47715 0 0 4.47715 0 10C0 15.5228 4.47715 20 10 20Z" fill="#242828"/>
<path fill-rule="evenodd" clip-rule="evenodd" d="M7.75581 3.26672V7.75543L5.51172 10V5.51133L7.75581 3.26672Z" fill="white"/>
<path fill-rule="evenodd" clip-rule="evenodd" d="M14.4886 12.2446C14.4886 14.7232 12.479 16.7333 9.99993 16.7333C7.52032 16.7333 5.51123 14.7232 5.51123 12.2446V10H7.75532V12.2446C7.75532 13.4818 8.76218 14.4887 9.99993 14.4887C11.2377 14.4887 12.2445 13.4818 12.2445 12.2446H14.4886Z" fill="white"/>
<path fill-rule="evenodd" clip-rule="evenodd" d="M14.4886 7.75562L12.2445 9.99971H5.51123L7.75532 7.75562H14.4886Z" fill="#00E8B4"/>
</svg>
