<svg width="20" height="20" viewBox="0 0 20 20" fill="none" xmlns="http://www.w3.org/2000/svg">
<path d="M20 10C20 15.5228 15.5228 20 10 20C4.47715 20 0 15.5228 0 10C0 4.47715 4.47715 0 10 0C15.5228 0 20 4.47715 20 10Z" fill="url(#paint0_linear_3928_52936)"/>
<path fill-rule="evenodd" clip-rule="evenodd" d="M10 19.8697C15.4509 19.8697 19.8697 15.4509 19.8697 10C19.8697 4.54911 15.4509 0.130293 10 0.130293C4.54911 0.130293 0.130293 4.54911 0.130293 10C0.130293 15.4509 4.54911 19.8697 10 19.8697ZM10 20C15.5228 20 20 15.5228 20 10C20 4.47715 15.5228 0 10 0C4.47715 0 0 4.47715 0 10C0 15.5228 4.47715 20 10 20Z" fill="#2575B0"/>
<path d="M14.1828 2.18311C14.1828 2.2014 14.2122 2.21637 14.2481 2.21637C14.2841 2.21637 14.3135 2.23134 14.3135 2.24964C14.3135 2.26794 14.3429 2.28291 14.3789 2.28291C14.4225 2.28291 14.4443 2.3051 14.4443 2.34944C14.4443 2.38603 14.459 2.41597 14.477 2.41597C14.4949 2.41597 14.5096 2.44591 14.5096 2.4825C14.5096 2.5191 14.5243 2.54904 14.5423 2.54904C14.5603 2.54904 14.575 2.60892 14.575 2.6821C14.575 2.75529 14.5897 2.81517 14.6077 2.81517C14.6271 2.81517 14.6404 2.93716 14.6404 3.11457C14.6404 3.29197 14.6271 3.41396 14.6077 3.41396C14.589 3.41396 14.575 3.51376 14.575 3.64683C14.575 3.77989 14.561 3.87969 14.5423 3.87969C14.5243 3.87969 14.5096 3.93957 14.5096 4.01276C14.5096 4.08594 14.4949 4.14582 14.477 4.14582C14.459 4.14582 14.4443 4.2057 14.4443 4.27889C14.4443 4.35207 14.4296 4.41195 14.4116 4.41195C14.3936 4.41195 14.3789 4.45686 14.3789 4.51175C14.3789 4.56664 14.3642 4.61155 14.3462 4.61155C14.3282 4.61155 14.3135 4.65646 14.3135 4.71135C14.3135 4.76624 14.2988 4.81115 14.2808 4.81115C14.2628 4.81115 14.2481 4.85606 14.2481 4.91095C14.2481 4.96584 14.2334 5.01075 14.2154 5.01075C14.1975 5.01075 14.1828 5.05566 14.1828 5.11055C14.1828 5.16543 14.168 5.21034 14.1501 5.21034C14.1321 5.21034 14.1174 5.24028 14.1174 5.27688C14.1174 5.31347 14.1027 5.34341 14.0847 5.34341C14.0667 5.34341 14.052 5.38832 14.052 5.44321C14.052 5.4981 14.0373 5.54301 14.0193 5.54301C14.0013 5.54301 13.9866 5.57295 13.9866 5.60954C13.9866 5.64613 13.9719 5.67607 13.9539 5.67607C13.936 5.67607 13.9212 5.70601 13.9212 5.74261C13.9212 5.7792 13.9065 5.80914 13.8886 5.80914C13.8706 5.80914 13.8559 5.83908 13.8559 5.87567C13.8559 5.91226 13.8412 5.9422 13.8232 5.9422C13.8052 5.9422 13.7905 5.97214 13.7905 6.00874C13.7905 6.04533 13.7758 6.07527 13.7578 6.07527C13.7398 6.07527 13.7251 6.10521 13.7251 6.1418C13.7251 6.1784 13.7104 6.20833 13.6924 6.20833C13.6745 6.20833 13.6597 6.23827 13.6597 6.27487C13.6597 6.31146 13.645 6.3414 13.6271 6.3414C13.6091 6.3414 13.5944 6.37134 13.5944 6.40793C13.5944 6.44453 13.5797 6.47447 13.5617 6.47447C13.5437 6.47447 13.529 6.50441 13.529 6.541C13.529 6.57759 13.5143 6.60753 13.4963 6.60753C13.4783 6.60753 13.4636 6.63418 13.4636 6.66671C13.4636 6.69928 13.4342 6.74748 13.3982 6.77386C13.3623 6.80024 13.3329 6.84845 13.3329 6.88101C13.3329 6.91355 13.3181 6.94019 13.3002 6.94019C13.2822 6.94019 13.2675 6.96684 13.2675 6.99937C13.2675 7.03194 13.2381 7.08015 13.2021 7.10653C13.1661 7.13291 13.1367 7.18111 13.1367 7.21368C13.1367 7.24621 13.122 7.27286 13.104 7.27286C13.0861 7.27286 13.0714 7.2995 13.0714 7.33204C13.0714 7.36461 13.0419 7.41281 13.006 7.43919C12.97 7.46557 12.9406 7.51048 12.9406 7.53899C12.9406 7.5675 12.9112 7.61241 12.8752 7.63879C12.8393 7.66517 12.8098 7.70738 12.8098 7.7326C12.8098 7.75778 12.7657 7.82039 12.7118 7.87165C12.6578 7.92292 12.6137 7.98279 12.6137 8.00472C12.6137 8.02664 12.5696 8.08652 12.5157 8.13778C12.4617 8.18905 12.4176 8.24843 12.4176 8.26972C12.4176 8.29101 12.344 8.38133 12.2541 8.47045C12.1643 8.55957 12.0907 8.64859 12.0907 8.66828C12.0907 8.71572 11.4154 9.4019 11.3687 9.4019C11.3487 9.4019 11.2912 9.44681 11.2408 9.5017C11.1904 9.55659 11.1289 9.6015 11.1042 9.6015C11.0794 9.6015 11.0379 9.63144 11.012 9.66803C10.9861 9.70463 10.9387 9.73457 10.9067 9.73457C10.8747 9.73457 10.8485 9.74954 10.8485 9.76783C10.8485 9.78613 10.8191 9.8011 10.7832 9.8011C10.7472 9.8011 10.7178 9.81607 10.7178 9.83437C10.7178 9.85266 10.6884 9.86763 10.6524 9.86763C10.6165 9.86763 10.587 9.8826 10.587 9.9009C10.587 9.91919 10.5576 9.93416 10.5217 9.93416C10.4857 9.93416 10.4563 9.94271 10.4563 9.95316C10.4563 10.0019 10.558 10.0672 10.6338 10.0672C10.68 10.0672 10.7178 10.0822 10.7178 10.1005C10.7178 10.1188 10.7472 10.1338 10.7832 10.1338C10.8191 10.1338 10.8485 10.1487 10.8485 10.167C10.8485 10.1853 10.872 10.2003 10.9008 10.2003C10.9295 10.2003 10.9943 10.2452 11.0447 10.3001C11.095 10.355 11.1536 10.3999 11.1748 10.3999C11.1959 10.3999 11.2698 10.4598 11.3389 10.533C11.408 10.6061 11.4806 10.666 11.5004 10.666C11.5467 10.666 11.96 11.0859 11.96 11.133C11.96 11.1526 12.0482 11.2569 12.1561 11.3646C12.264 11.4724 12.3522 11.5778 12.3522 11.5989C12.3522 11.62 12.3963 11.6793 12.4503 11.7305C12.5042 11.7818 12.5483 11.8417 12.5483 11.8636C12.5483 11.8855 12.5925 11.9454 12.6464 11.9967C12.7003 12.0479 12.7445 12.1105 12.7445 12.1357C12.7445 12.1609 12.7739 12.2032 12.8098 12.2295C12.8458 12.2559 12.8752 12.3008 12.8752 12.3293C12.8752 12.3579 12.9046 12.4028 12.9406 12.4291C12.9766 12.4555 13.006 12.5004 13.006 12.5289C13.006 12.5574 13.0354 12.6024 13.0714 12.6287C13.1073 12.6551 13.1367 12.7033 13.1367 12.7359C13.1367 12.7684 13.1514 12.7951 13.1694 12.7951C13.1874 12.7951 13.2021 12.8217 13.2021 12.8543C13.2021 12.8868 13.2315 12.935 13.2675 12.9614C13.3034 12.9878 13.3329 13.036 13.3329 13.0686C13.3329 13.1011 13.3476 13.1277 13.3655 13.1277C13.3835 13.1277 13.3982 13.1544 13.3982 13.1869C13.3982 13.2195 13.4277 13.2677 13.4636 13.2941C13.4996 13.3204 13.529 13.3686 13.529 13.4012C13.529 13.4338 13.5437 13.4604 13.5617 13.4604C13.5797 13.4604 13.5944 13.4903 13.5944 13.5269C13.5944 13.5635 13.6091 13.5935 13.6271 13.5935C13.645 13.5935 13.6597 13.6234 13.6597 13.66C13.6597 13.6966 13.6745 13.7265 13.6924 13.7265C13.7104 13.7265 13.7251 13.7565 13.7251 13.7931C13.7251 13.8297 13.7398 13.8596 13.7578 13.8596C13.7758 13.8596 13.7905 13.8895 13.7905 13.9261C13.7905 13.9627 13.8052 13.9927 13.8232 13.9927C13.8412 13.9927 13.8559 14.0226 13.8559 14.0592C13.8559 14.0958 13.8706 14.1257 13.8886 14.1257C13.9065 14.1257 13.9212 14.1557 13.9212 14.1923C13.9212 14.2288 13.936 14.2588 13.9539 14.2588C13.9719 14.2588 13.9866 14.3037 13.9866 14.3586C13.9866 14.4135 14.0013 14.4584 14.0193 14.4584C14.0373 14.4584 14.052 14.4883 14.052 14.5249C14.052 14.5615 14.0667 14.5915 14.0847 14.5915C14.1027 14.5915 14.1174 14.6364 14.1174 14.6913C14.1174 14.7461 14.1321 14.7911 14.1501 14.7911C14.168 14.7911 14.1828 14.821 14.1828 14.8576C14.1828 14.8942 14.1975 14.9241 14.2154 14.9241C14.2334 14.9241 14.2481 14.969 14.2481 15.0239C14.2481 15.0788 14.2628 15.1237 14.2808 15.1237C14.2988 15.1237 14.3135 15.1686 14.3135 15.2235C14.3135 15.2784 14.3282 15.3233 14.3462 15.3233C14.3642 15.3233 14.3789 15.3682 14.3789 15.4231C14.3789 15.478 14.3936 15.5229 14.4116 15.5229C14.4296 15.5229 14.4443 15.5828 14.4443 15.656C14.4443 15.7292 14.459 15.789 14.477 15.789C14.4949 15.789 14.5096 15.8489 14.5096 15.9221C14.5096 15.9953 14.5243 16.0552 14.5423 16.0552C14.561 16.0552 14.575 16.155 14.575 16.288C14.575 16.4211 14.589 16.5209 14.6077 16.5209C14.6271 16.5209 14.6404 16.6429 14.6404 16.8203C14.6404 16.9977 14.6271 17.1197 14.6077 17.1197C14.5897 17.1197 14.575 17.1796 14.575 17.2528C14.575 17.3259 14.5603 17.3858 14.5423 17.3858C14.5243 17.3858 14.5096 17.4158 14.5096 17.4524C14.5096 17.489 14.4949 17.5189 14.477 17.5189C14.459 17.5189 14.4443 17.5424 14.4443 17.5712C14.4443 17.6384 14.3655 17.7185 14.2995 17.7185C14.2712 17.7185 14.2481 17.7335 14.2481 17.7518C14.2481 17.7707 14.1501 17.785 14.0193 17.785C13.8886 17.785 13.7905 17.7707 13.7905 17.7518C13.7905 17.7335 13.7464 17.7185 13.6924 17.7185C13.6385 17.7185 13.5944 17.7035 13.5944 17.6852C13.5944 17.6669 13.5649 17.652 13.529 17.652C13.493 17.652 13.4636 17.637 13.4636 17.6187C13.4636 17.6004 13.4342 17.5854 13.3982 17.5854C13.3623 17.5854 13.3329 17.5705 13.3329 17.5522C13.3329 17.5339 13.3094 17.5189 13.2806 17.5189C13.2519 17.5189 13.1871 17.474 13.1367 17.4191C13.0864 17.3642 13.0289 17.3193 13.0089 17.3193C12.9621 17.3193 11.8946 16.2335 11.8946 16.1859C11.8946 16.166 11.8357 16.0922 11.7638 16.0219C11.6919 15.9516 11.6331 15.8737 11.6331 15.8489C11.6331 15.824 11.6036 15.7822 11.5677 15.7558C11.5317 15.7294 11.5023 15.6872 11.5023 15.662C11.5023 15.6368 11.4582 15.5742 11.4042 15.5229C11.3503 15.4716 11.3062 15.4057 11.3062 15.3765C11.3062 15.3472 11.2915 15.3233 11.2735 15.3233C11.2555 15.3233 11.2408 15.2967 11.2408 15.2641C11.2408 15.2316 11.2114 15.1834 11.1754 15.157C11.1395 15.1306 11.1101 15.0857 11.1101 15.0572C11.1101 15.0287 11.0806 14.9838 11.0447 14.9574C11.0087 14.931 10.9793 14.8828 10.9793 14.8502C10.9793 14.8177 10.9646 14.7911 10.9466 14.7911C10.9286 14.7911 10.9139 14.7644 10.9139 14.7319C10.9139 14.6993 10.8845 14.6511 10.8485 14.6247C10.8126 14.5983 10.7832 14.5501 10.7832 14.5176C10.7832 14.485 10.7685 14.4584 10.7505 14.4584C10.7325 14.4584 10.7178 14.4284 10.7178 14.3919C10.7178 14.3553 10.7031 14.3253 10.6851 14.3253C10.6671 14.3253 10.6524 14.2954 10.6524 14.2588C10.6524 14.2222 10.6377 14.1923 10.6197 14.1923C10.6017 14.1923 10.587 14.1623 10.587 14.1257C10.587 14.0891 10.5723 14.0592 10.5544 14.0592C10.5364 14.0592 10.5217 14.0293 10.5217 13.9927C10.5217 13.9561 10.507 13.9261 10.489 13.9261C10.471 13.9261 10.4563 13.8962 10.4563 13.8596C10.4563 13.823 10.4416 13.7931 10.4236 13.7931C10.4056 13.7931 10.3909 13.7631 10.3909 13.7265C10.3909 13.6899 10.3762 13.66 10.3582 13.66C10.3402 13.66 10.3255 13.6301 10.3255 13.5935C10.3255 13.5569 10.3108 13.5269 10.2928 13.5269C10.2749 13.5269 10.2602 13.497 10.2602 13.4604C10.2602 13.4238 10.2454 13.3939 10.2275 13.3939C10.2095 13.3939 10.1948 13.349 10.1948 13.2941C10.1948 13.2392 10.1801 13.1943 10.1621 13.1943C10.1441 13.1943 10.1294 13.1643 10.1294 13.1277C10.1294 13.0911 10.1147 13.0612 10.0967 13.0612C10.0787 13.0612 10.064 13.0313 10.064 12.9947C10.064 12.9581 10.0493 12.9281 10.0313 12.9281C10.0134 12.9281 9.99865 12.8832 9.99865 12.8283C9.99865 12.7734 9.98394 12.7285 9.96596 12.7285C9.94798 12.7285 9.93327 12.6836 9.93327 12.6287C9.93327 12.5738 9.91856 12.5289 9.90058 12.5289C9.88261 12.5289 9.8679 12.484 9.8679 12.4291C9.8679 12.3743 9.85319 12.3293 9.83521 12.3293C9.81723 12.3293 9.80252 12.2695 9.80252 12.1963C9.80252 12.1231 9.78781 12.0632 9.76983 12.0632C9.75185 12.0632 9.73714 12.0183 9.73714 11.9634C9.73714 11.9085 9.72243 11.8636 9.70445 11.8636C9.68628 11.8636 9.67177 11.7749 9.67177 11.664C9.67177 11.5531 9.65725 11.4644 9.63908 11.4644C9.61884 11.4644 9.60639 11.287 9.60639 10.9987C9.60639 10.7104 9.61884 10.533 9.63908 10.533C9.65706 10.533 9.67177 10.518 9.67177 10.4997C9.67177 10.4814 9.64235 10.4664 9.60639 10.4664C9.57043 10.4664 9.54101 10.4814 9.54101 10.4997C9.54101 10.518 9.51483 10.533 9.48286 10.533C9.45086 10.533 9.40349 10.5629 9.37757 10.5995C9.35165 10.6361 9.30429 10.666 9.27228 10.666C9.24031 10.666 9.21413 10.681 9.21413 10.6993C9.21413 10.7176 9.18471 10.7326 9.14875 10.7326C9.1128 10.7326 9.08338 10.7475 9.08338 10.7658C9.08338 10.7841 9.05396 10.7991 9.018 10.7991C8.98204 10.7991 8.95262 10.8141 8.95262 10.8324C8.95262 10.8507 8.90849 10.8656 8.85456 10.8656C8.80062 10.8656 8.75649 10.8806 8.75649 10.8989C8.75649 10.9172 8.71236 10.9322 8.65843 10.9322C8.60449 10.9322 8.56036 10.9471 8.56036 10.9654C8.56036 10.9837 8.51623 10.9987 8.4623 10.9987C8.40836 10.9987 8.36423 11.0137 8.36423 11.032C8.36423 11.0503 8.3201 11.0652 8.26617 11.0652C8.21223 11.0652 8.1681 11.0802 8.1681 11.0985C8.1681 11.1168 8.09455 11.1318 8.00466 11.1318C7.91477 11.1318 7.84122 11.1467 7.84122 11.165C7.84122 11.1833 7.76767 11.1983 7.67778 11.1983C7.58788 11.1983 7.51434 11.2133 7.51434 11.2316C7.51434 11.25 7.42716 11.2648 7.31821 11.2648C7.20926 11.2648 7.12208 11.2796 7.12208 11.2981C7.12208 11.318 6.99132 11.3314 6.79519 11.3314C6.59906 11.3314 6.46831 11.3447 6.46831 11.3646C6.46831 11.386 6.11962 11.3979 5.48766 11.3979C4.8557 11.3979 4.50701 11.386 4.50701 11.3646C4.50701 11.3447 4.37626 11.3314 4.18013 11.3314C3.984 11.3314 3.85324 11.318 3.85324 11.2981C3.85324 11.2796 3.76606 11.2648 3.65711 11.2648C3.54816 11.2648 3.46098 11.25 3.46098 11.2316C3.46098 11.2133 3.38743 11.1983 3.29754 11.1983C3.20765 11.1983 3.1341 11.1833 3.1341 11.165C3.1341 11.1467 3.07526 11.1318 3.00335 11.1318C2.93143 11.1318 2.87259 11.1168 2.87259 11.0985C2.87259 11.0802 2.81375 11.0652 2.74184 11.0652C2.66992 11.0652 2.61109 11.0503 2.61109 11.032C2.61109 11.0137 2.56696 10.9987 2.51302 10.9987C2.45908 10.9987 2.41496 10.9837 2.41496 10.9654C2.41496 10.9471 2.37083 10.9322 2.31689 10.9322C2.26295 10.9322 2.21883 10.9172 2.21883 10.8989C2.21883 10.8806 2.1747 10.8656 2.12076 10.8656C2.06682 10.8656 2.0227 10.8507 2.0227 10.8324C2.0227 10.8141 1.99328 10.7991 1.95732 10.7991C1.92136 10.7991 1.89194 10.7841 1.89194 10.7658C1.89194 10.7475 1.86576 10.7326 1.83379 10.7326C1.80179 10.7326 1.75442 10.7026 1.7285 10.666C1.70258 10.6294 1.65845 10.5995 1.63044 10.5995C1.60242 10.5995 1.55829 10.5696 1.53237 10.533C1.50645 10.4964 1.46575 10.4664 1.44195 10.4664C1.3823 10.4664 1.23818 10.3146 1.23818 10.2517C1.23818 10.2234 1.22347 10.2003 1.20549 10.2003C1.18751 10.2003 1.1728 10.1704 1.1728 10.1338C1.1728 10.0972 1.15809 10.0672 1.14011 10.0672C1.12213 10.0672 1.10742 10.0074 1.10742 9.93416C1.10742 9.86098 1.12213 9.8011 1.14011 9.8011C1.15809 9.8011 1.1728 9.76334 1.1728 9.7172C1.1728 9.62312 1.49511 9.26884 1.58068 9.26884C1.60804 9.26884 1.63044 9.25387 1.63044 9.23557C1.63044 9.21728 1.65985 9.20231 1.69581 9.20231C1.73177 9.20231 1.76119 9.18734 1.76119 9.16904C1.76119 9.15074 1.79061 9.13577 1.82657 9.13577C1.86252 9.13577 1.89194 9.1208 1.89194 9.10251C1.89194 9.08421 1.92136 9.06924 1.95732 9.06924C1.99328 9.06924 2.0227 9.05427 2.0227 9.03597C2.0227 9.01768 2.05211 9.00271 2.08807 9.00271C2.12403 9.00271 2.15345 8.98774 2.15345 8.96944C2.15345 8.95114 2.19758 8.93617 2.25151 8.93617C2.30545 8.93617 2.34958 8.9212 2.34958 8.90291C2.34958 8.88461 2.39371 8.86964 2.44764 8.86964C2.50158 8.86964 2.54571 8.85467 2.54571 8.83638C2.54571 8.81808 2.58984 8.80311 2.64377 8.80311C2.69771 8.80311 2.74184 8.78814 2.74184 8.76984C2.74184 8.75155 2.80068 8.73658 2.87259 8.73658C2.94451 8.73658 3.00335 8.72161 3.00335 8.70331C3.00335 8.68501 3.07689 8.67004 3.16679 8.67004C3.25668 8.67004 3.33023 8.65507 3.33023 8.63678C3.33023 8.61828 3.41741 8.60351 3.52636 8.60351C3.63531 8.60351 3.72249 8.58874 3.72249 8.57024C3.72249 8.55125 3.82055 8.53698 3.95131 8.53698C4.08206 8.53698 4.18013 8.52271 4.18013 8.50371C4.18013 8.48209 4.63776 8.47045 5.48766 8.47045C6.33756 8.47045 6.79519 8.48209 6.79519 8.50371C6.79519 8.52311 6.90414 8.53698 7.0567 8.53698C7.20926 8.53698 7.31821 8.55085 7.31821 8.57024C7.31821 8.58854 7.39175 8.60351 7.48165 8.60351C7.57154 8.60351 7.64509 8.61848 7.64509 8.63678C7.64509 8.65507 7.71864 8.67004 7.80853 8.67004C7.89842 8.67004 7.97197 8.68501 7.97197 8.70331C7.97197 8.72161 8.03081 8.73658 8.10273 8.73658C8.17464 8.73658 8.23348 8.75155 8.23348 8.76984C8.23348 8.78814 8.27761 8.80311 8.33154 8.80311C8.38548 8.80311 8.42961 8.81808 8.42961 8.83638C8.42961 8.85467 8.47374 8.86964 8.52767 8.86964C8.58161 8.86964 8.62574 8.88461 8.62574 8.90291C8.62574 8.9212 8.66987 8.93617 8.7238 8.93617C8.77774 8.93617 8.82187 8.95114 8.82187 8.96944C8.82187 8.98774 8.866 9.00271 8.91993 9.00271C8.97387 9.00271 9.018 9.01768 9.018 9.03597C9.018 9.05427 9.04742 9.06924 9.08338 9.06924C9.11933 9.06924 9.14875 9.08421 9.14875 9.10251C9.14875 9.1208 9.17494 9.13577 9.20691 9.13577C9.23891 9.13577 9.28627 9.16571 9.31219 9.20231C9.33812 9.2389 9.38225 9.26884 9.41026 9.26884C9.43827 9.26884 9.4824 9.29878 9.50832 9.33537C9.53425 9.37196 9.5669 9.4019 9.58092 9.4019C9.59491 9.4019 9.60639 9.19233 9.60639 8.93617C9.60639 8.64786 9.61884 8.47045 9.63908 8.47045C9.65706 8.47045 9.67177 8.3956 9.67177 8.30411C9.67177 8.21263 9.68648 8.13778 9.70445 8.13778C9.72243 8.13778 9.73714 8.0779 9.73714 8.00472C9.73714 7.93153 9.75185 7.87165 9.76983 7.87165C9.78781 7.87165 9.80252 7.81177 9.80252 7.73859C9.80252 7.6654 9.81723 7.60552 9.83521 7.60552C9.85319 7.60552 9.8679 7.56061 9.8679 7.50572C9.8679 7.45083 9.88261 7.40592 9.90058 7.40592C9.91856 7.40592 9.93327 7.36101 9.93327 7.30612C9.93327 7.25123 9.94798 7.20632 9.96596 7.20632C9.98394 7.20632 9.99865 7.17639 9.99865 7.13979C9.99865 7.1032 10.0134 7.07326 10.0313 7.07326C10.0493 7.07326 10.064 7.02835 10.064 6.97346C10.064 6.91857 10.0787 6.87366 10.0967 6.87366C10.1147 6.87366 10.1294 6.84372 10.1294 6.80713C10.1294 6.77054 10.1441 6.7406 10.1621 6.7406C10.1801 6.7406 10.1948 6.69569 10.1948 6.6408C10.1948 6.58591 10.2095 6.541 10.2275 6.541C10.2454 6.541 10.2602 6.51106 10.2602 6.47447C10.2602 6.43787 10.2749 6.40793 10.2928 6.40793C10.3108 6.40793 10.3255 6.37799 10.3255 6.3414C10.3255 6.30481 10.3402 6.27487 10.3582 6.27487C10.3762 6.27487 10.3909 6.24493 10.3909 6.20833C10.3909 6.17174 10.4056 6.1418 10.4236 6.1418C10.4416 6.1418 10.4563 6.11186 10.4563 6.07527C10.4563 6.03868 10.471 6.00874 10.489 6.00874C10.507 6.00874 10.5217 5.9788 10.5217 5.9422C10.5217 5.90561 10.5364 5.87567 10.5544 5.87567C10.5723 5.87567 10.587 5.84573 10.587 5.80914C10.587 5.77255 10.6017 5.74261 10.6197 5.74261C10.6377 5.74261 10.6524 5.71267 10.6524 5.67607C10.6524 5.63948 10.6671 5.60954 10.6851 5.60954C10.7031 5.60954 10.7178 5.58289 10.7178 5.55036C10.7178 5.51779 10.7472 5.46959 10.7832 5.44321C10.8191 5.41683 10.8485 5.36863 10.8485 5.33606C10.8485 5.30352 10.8633 5.27688 10.8812 5.27688C10.8992 5.27688 10.9139 5.24694 10.9139 5.21034C10.9139 5.17375 10.9286 5.14381 10.9466 5.14381C10.9646 5.14381 10.9793 5.11717 10.9793 5.08463C10.9793 5.05206 11.0087 5.00386 11.0447 4.97748C11.0806 4.9511 11.1101 4.90619 11.1101 4.87768C11.1101 4.84917 11.1395 4.80426 11.1754 4.77788C11.2114 4.7515 11.2408 4.70659 11.2408 4.67808C11.2408 4.64957 11.2702 4.60466 11.3062 4.57828C11.3421 4.5519 11.3716 4.50699 11.3716 4.47849C11.3716 4.44998 11.401 4.40507 11.4369 4.37869C11.4729 4.35231 11.5023 4.31009 11.5023 4.28487C11.5023 4.25969 11.5464 4.19709 11.6004 4.14582C11.6543 4.09456 11.6984 4.03498 11.6984 4.01342C11.6984 3.9919 11.7573 3.91675 11.8292 3.84642C11.9011 3.7761 11.96 3.70232 11.96 3.68242C11.96 3.63106 12.964 2.61557 13.0148 2.61557C13.038 2.61557 13.0781 2.58563 13.104 2.54904C13.13 2.51244 13.1741 2.4825 13.2021 2.4825C13.2301 2.4825 13.2742 2.45256 13.3002 2.41597C13.3261 2.37938 13.3735 2.34944 13.4055 2.34944C13.4374 2.34944 13.4636 2.33447 13.4636 2.31617C13.4636 2.29788 13.493 2.28291 13.529 2.28291C13.5649 2.28291 13.5944 2.26794 13.5944 2.24964C13.5944 2.23134 13.6385 2.21637 13.6924 2.21637C13.7464 2.21637 13.7905 2.2014 13.7905 2.18311C13.7905 2.16461 13.8777 2.14984 13.9866 2.14984C14.0956 2.14984 14.1828 2.16461 14.1828 2.18311Z" fill="white"/>
<defs>
<linearGradient id="paint0_linear_3928_52936" x1="10.0326" y1="3.52811e-10" x2="10" y2="20" gradientUnits="userSpaceOnUse">
<stop stop-color="#77B3E1"/>
<stop offset="1" stop-color="#4085BF"/>
</linearGradient>
</defs>
</svg>
