<svg width="20" height="20" viewBox="0 0 20 20" fill="none" xmlns="http://www.w3.org/2000/svg">
<g clip-path="url(#clip0_4040_53653)">
<rect width="20" height="20" fill="#000403"/>
<path fill-rule="evenodd" clip-rule="evenodd" d="M13.8487 5.36875C16.1701 5.57188 18.0028 7.44062 18.125 9.75625C18.0028 5.9375 14.8261 2.89062 10.9571 3.0125C8.67638 3.09375 6.55858 4.23125 5.33678 6.14062C5.54041 3.825 7.41385 1.99688 9.73528 1.875C5.86623 2.0375 2.89317 5.32812 3.05608 9.1875C3.13753 11.3813 4.27788 13.4125 6.11059 14.6312C3.78916 14.4281 1.99718 12.5594 1.875 10.2438C1.95645 14.0625 5.17387 17.1094 9.00219 17.0281C11.2829 16.9875 13.36 15.8094 14.6225 13.9406C14.4189 16.2156 12.5454 18.0031 10.2647 18.125C14.093 18.0031 17.1068 14.7937 16.9846 10.9344C16.9032 8.7 15.7628 6.5875 13.8487 5.36875ZM9.97964 12.925C9.20583 12.925 8.47274 12.6406 7.9433 12.0719C6.80294 10.9344 6.84367 9.10625 7.9433 8.00938C9.04292 6.9125 10.9164 6.9125 12.016 8.00938C13.1156 9.10625 13.1156 10.975 12.016 12.0719C11.4865 12.6406 10.7534 12.925 9.97964 12.925Z" fill="#94FEBF"/>
</g>
<defs>
<clipPath id="clip0_4040_53653">
<rect width="20" height="20" fill="white"/>
</clipPath>
</defs>
</svg>
