<svg width="20" height="20" viewBox="0 0 20 20" fill="none" xmlns="http://www.w3.org/2000/svg">
<circle cx="10" cy="10" r="10" fill="#953132"/>
<path d="M11.6572 5H4.3999V15H11.6572C14.2426 15 16.5142 13.3998 16.5142 10C16.5142 6.60023 14.2426 5 11.6572 5ZM14.5096 10.33L13.0686 12.6235C13.014 12.7109 12.9381 12.783 12.8481 12.833C12.758 12.8831 12.6567 12.9094 12.5536 12.9096H7.1779C7.01678 12.9096 6.86227 12.8456 6.74834 12.7317C6.63442 12.6178 6.57041 12.4632 6.57041 12.3021V7.71505C6.57041 7.55394 6.63442 7.39942 6.74834 7.2855C6.86227 7.17157 7.01678 7.10757 7.1779 7.10757H12.5536C12.6567 7.10775 12.758 7.1341 12.8481 7.18414C12.9381 7.23418 13.014 7.30628 13.0686 7.39367L14.5096 9.68718C14.5696 9.78369 14.6014 9.89501 14.6014 10.0086C14.6014 10.1222 14.5696 10.2335 14.5096 10.33Z" fill="white"/>
</svg>
