<svg width="20" height="20" viewBox="0 0 20 20" fill="none" xmlns="http://www.w3.org/2000/svg">
<circle cx="10" cy="10" r="10" fill="#EB322A"/>
<path fill-rule="evenodd" clip-rule="evenodd" d="M4.08687 4.1479C4.17562 4.03724 4.31688 3.98266 4.45698 4.00489L14.4956 5.59833C14.5812 5.61191 14.6599 5.65323 14.7196 5.71593L17.146 8.26157C17.1964 8.313 17.2332 8.37858 17.2495 8.45312C17.2512 8.46064 17.2526 8.4682 17.2538 8.47579C17.2547 8.48136 17.2554 8.48695 17.2561 8.49255C17.2639 8.55944 17.2544 8.62454 17.2311 8.68329C17.2165 8.72005 17.1962 8.75514 17.1701 8.78725L9.88018 17.7503C9.79166 17.8591 9.65205 17.9129 9.5134 17.8915C9.37475 17.87 9.25786 17.7767 9.2063 17.6462L4.02765 4.54023C3.97552 4.4083 3.99812 4.25856 4.08687 4.1479ZM16.0474 8.25413L14.4515 6.57974L11.8956 8.83963L16.0474 8.25413ZM13.6209 6.25947L5.75234 5.01049L10.6585 8.87884L13.6209 6.25947ZM10.9974 9.76421L15.922 9.06973L10.1777 16.1323L10.9974 9.76421ZM9.39993 15.9863L5.32852 5.68246L10.2289 9.54619L9.39993 15.9863Z" fill="white"/>
<circle cx="15" cy="15" r="5" fill="#131419"/>
<path fill-rule="evenodd" clip-rule="evenodd" d="M13.4097 14.3483L15 12.7579L16.5903 14.3483L17.5148 13.4238L15 10.909L12.4852 13.4238L13.4097 14.3483ZM11.8327 14.0782L10.9093 15.0016L11.8327 15.925L12.7561 15.0016L11.8327 14.0782ZM15 17.2445L13.4097 15.6541L12.4852 16.5786L15 19.0934L17.5148 16.5786L16.5903 15.6541L15 17.2445ZM18.1675 14.0783L17.2441 15.0017L18.1675 15.9251L19.0909 15.0017L18.1675 14.0783ZM15.0005 14.0638L15.9379 15.0012L15.0005 15.9386L14.0631 15.0012L14.2247 14.8331L14.3087 14.7556L15.0005 14.0638Z" fill="#F0B90B"/>
</svg>
