<svg width="20" height="20" viewBox="0 0 20 20" fill="none" xmlns="http://www.w3.org/2000/svg">
<g clip-path="url(#clip0_5514_43687)">
<path d="M10 20C15.5228 20 20 15.5228 20 10C20 4.47715 15.5228 0 10 0C4.47715 0 0 4.47715 0 10C0 15.5228 4.47715 20 10 20Z" fill="url(#paint0_linear_5514_43687)"/>
<path d="M19.9998 10C19.9998 15.5228 15.1765 21.1502 8.58062 19.0563C0.414883 16.464 4.477 0 9.99985 0C15.5227 0 19.9998 4.47715 19.9998 10Z" fill="url(#paint1_radial_5514_43687)"/>
<path d="M9.99958 18.9459C14.9403 18.9459 18.9455 14.9406 18.9455 9.99998C18.9455 5.05931 14.9403 1.05411 9.99958 1.05411C5.05891 1.05411 1.05371 5.05931 1.05371 9.99998C1.05371 14.9406 5.05891 18.9459 9.99958 18.9459Z" fill="url(#paint2_linear_5514_43687)"/>
<path d="M9.99996 18.3525C14.6129 18.3525 18.3525 14.6129 18.3525 9.99999C18.3525 5.38703 14.6129 1.64749 9.99996 1.64749C5.387 1.64749 1.64746 5.38703 1.64746 9.99999C1.64746 14.6129 5.387 18.3525 9.99996 18.3525Z" fill="url(#paint3_linear_5514_43687)"/>
<path d="M9.99996 18.3525C14.6129 18.3525 18.3525 14.6129 18.3525 9.99999C18.3525 5.38703 14.6129 1.64749 9.99996 1.64749C5.387 1.64749 1.64746 5.38703 1.64746 9.99999C1.64746 14.6129 5.387 18.3525 9.99996 18.3525Z" fill="url(#paint4_radial_5514_43687)"/>
<path d="M15.9692 15.9692C13.6362 18.3543 9.84571 19.0649 6.7956 17.736C1.96654 15.7282 0.0584126 9.67888 2.97808 5.30809C5.15963 1.97146 9.5572 0.683928 13.2073 2.25701C18.6752 4.53701 20.1928 11.759 15.9692 15.9692ZM15.843 15.843C19.5352 12.2109 18.9853 5.92806 14.6299 3.07062C11.4124 0.888583 6.86853 1.39134 4.16171 4.16173C0.468041 7.82176 1.00158 14.0529 5.3663 16.9351C8.5941 19.1212 13.1269 18.6194 15.843 15.843Z" fill="url(#paint5_linear_5514_43687)"/>
<path d="M16.4033 16.4037C10.7014 22.0268 1.08203 17.9627 0.979962 10C0.88953 5.05277 5.05231 0.888673 9.99965 0.976406C17.9687 1.07507 22.0323 10.7019 16.4033 16.4037ZM16.2771 16.2776C20.7645 11.8263 19.3095 4.1359 13.4208 1.74065C6.10406 -1.18572 -1.18855 6.10638 1.73509 13.4235C4.13098 19.3166 11.826 20.7695 16.2771 16.2776Z" fill="url(#paint6_linear_5514_43687)"/>
<g filter="url(#filter0_f_5514_43687)">
<path d="M6.54074 16.6715C6.44796 16.6171 5.94293 16.2 5.85635 16.1202C5.51497 15.8055 5.26368 15.4287 5.0683 15.0097C4.89893 14.6465 4.75178 14.275 4.6589 13.8856C4.59847 13.6324 4.57374 13.3708 4.52163 13.1153C4.44734 12.751 4.47133 12.3822 4.49306 12.0192C4.51715 11.6166 4.62239 11.2242 4.85688 10.8811C4.87536 10.8541 4.89053 10.8248 4.91332 10.7862C4.5098 11.0298 3.80114 11.9356 3.8675 13.1846C3.67642 12.803 3.66525 11.5087 3.84426 10.7325C4.0343 9.90844 4.37828 9.15936 4.91457 8.50108C5.44613 7.84862 6.11639 7.31418 6.872 6.93853C6.18892 6.9032 4.85218 7.32424 3.97064 8.25925C3.94751 8.27992 3.97188 8.21874 4.02465 8.11183C4.18087 7.79533 4.45504 7.36442 4.77615 7.07268C5.10742 6.77171 5.46666 6.50636 5.89316 6.34728C6.05322 6.28759 6.2058 6.20576 6.36845 6.15562C6.60858 6.08158 6.85426 6.02525 7.09843 5.96482C7.17608 5.9456 7.25622 5.92929 7.33567 5.92696C7.38583 5.92549 7.44152 5.94365 7.48667 5.96798C7.77559 6.12363 8.07921 6.23315 8.4031 6.29112C8.71605 6.34713 9.02982 6.4029 9.33804 6.47963C9.57158 6.53777 9.81731 6.69604 9.98638 6.87817C9.95643 6.87055 9.87761 6.84343 9.84989 6.83088C9.63701 6.73455 9.41881 6.74362 9.19885 6.79695C8.9348 6.86097 8.67132 6.92735 8.40761 6.99281C8.18971 7.0469 7.97178 7.07165 7.75302 6.99647C7.73104 6.98892 7.70732 6.98573 7.68412 6.98269C7.67142 6.98102 7.65812 6.98388 7.62587 6.98592C7.73142 7.26403 7.91642 7.45072 8.19882 7.57252C8.0641 7.63872 7.94913 7.69149 7.8376 7.75074C7.53064 7.9138 7.2449 8.10733 6.98918 8.34443C6.64679 8.66188 6.33845 9.00752 6.10596 9.41478C5.86327 9.83992 5.68089 10.2889 5.56455 10.7662C5.44223 11.2681 5.42102 11.7772 5.45163 12.2874C5.46637 12.5329 5.52655 12.7773 5.58324 13.0182C5.71182 13.5647 5.96349 14.0574 6.27591 14.5194C6.50324 14.8557 6.77985 15.1516 7.08498 15.4167C7.44142 15.7263 7.84308 15.9694 8.27095 16.1713C8.58579 16.3198 8.91153 16.433 9.2509 16.5036C9.52625 16.5609 9.80333 16.6089 10.0884 16.5954C10.3975 16.5807 10.7092 16.5994 11.0161 16.5675C11.2918 16.5388 11.5644 16.4692 11.835 16.4036C12.2688 16.2985 12.6528 16.0856 13.0202 15.8371C13.2897 15.6549 13.5324 15.4406 13.7555 15.208C13.993 14.9603 14.1938 14.6803 14.3625 14.3793C14.4282 14.2622 14.4967 14.1467 14.564 14.0305C14.564 14.0305 14.5644 14.0283 14.5644 14.0283C14.449 14.3983 14.313 14.7617 14.1166 15.0952C13.9791 15.3288 13.8135 15.5485 13.64 15.7574C13.4749 15.9563 13.2938 16.1451 13.1002 16.3162C12.9273 16.469 12.7328 16.5995 12.5388 16.726C12.128 16.9937 11.6857 17.1978 11.2127 17.3282C11.0357 17.3769 10.8502 17.394 10.6706 17.4343C10.3507 17.5062 10.0272 17.4688 9.70556 17.4691C9.53649 17.4693 9.36576 17.438 9.1987 17.4057C9.00472 17.3683 8.81024 17.3257 8.62261 17.2649C8.30659 17.1624 7.99307 17.0485 7.70918 16.8714C7.49272 16.7364 7.27604 16.6 7.0715 16.448C6.80177 16.2476 6.542 16.0337 6.34107 15.7583C6.20456 15.5711 6.05704 15.3918 5.92642 15.2007C5.84935 15.088 5.79585 14.9592 5.73128 14.8379C5.71258 14.8028 5.69224 14.7685 5.67266 14.7339L5.64869 14.7402C5.64824 14.782 5.6426 14.8247 5.64971 14.8652C5.72587 15.2986 5.85508 15.7165 6.08829 16.0906C6.21727 16.2975 6.38871 16.4779 6.54101 16.6702L6.54074 16.6715Z" fill="black"/>
<path d="M10.8192 5.14777C10.3658 4.4449 10.1688 3.71032 10.5296 2.88808C10.702 3.92635 11.2137 4.7249 12.0869 5.281C12.2241 5.36839 12.3643 5.48194 12.5689 5.47194C12.4076 5.03658 12.5248 4.63107 12.6252 4.22427C12.6345 4.22455 12.6438 4.22483 12.6531 4.22511C12.6573 4.31357 12.661 4.40206 12.6657 4.4905C12.6821 4.80456 12.8113 5.08095 12.956 5.35159C13.0864 5.59543 13.2711 5.79159 13.4841 5.96651C13.6709 6.11984 13.8529 6.28035 14.0242 6.45063C14.1725 6.59802 14.2452 6.79267 14.3068 6.99044C14.3437 7.10888 14.3891 7.2248 14.4336 7.3407C14.4883 7.48293 14.5874 7.59287 14.7029 7.68752C14.7461 7.72294 14.7977 7.75239 14.8503 7.77127C14.9957 7.82354 15.1439 7.85882 15.301 7.86838C15.4837 7.87949 15.6656 7.91189 15.8466 7.9423C15.9815 7.96497 16.1177 7.98946 16.2473 8.03179C16.3273 8.05794 16.4017 8.11204 16.4682 8.16644C16.535 8.22118 16.5668 8.29798 16.5595 8.39086C16.5489 8.52473 16.5157 8.64924 16.4331 8.75651C16.3798 8.82577 16.3139 8.86607 16.2189 8.86907C16.1646 8.87079 16.1064 8.90532 16.0593 8.93828C16.0075 8.97443 15.9681 9.0277 15.9203 9.07007C15.8474 9.1347 15.7621 9.1687 15.6529 9.16419C15.7496 9.04164 15.8117 8.91489 15.7903 8.74602C15.6916 8.78481 15.6024 8.81989 15.4963 8.86157C15.5268 8.78201 15.5526 8.72822 15.568 8.67162C15.5877 8.59906 15.5719 8.53497 15.4916 8.50871C15.3264 8.45468 15.1598 8.40557 14.9791 8.44455C14.6565 8.51416 14.3684 8.44013 14.1215 8.21405C14.0446 8.14362 13.9769 8.06293 13.8985 7.99432C13.8259 7.93076 13.747 7.87359 13.6668 7.81975C13.494 7.70383 13.3021 7.71393 13.1124 7.7561C12.9684 7.7881 12.8401 7.76505 12.7153 7.69414C12.6856 7.67725 12.6502 7.64958 12.6193 7.61277C12.6017 7.74399 12.5921 7.88584 12.6183 7.99865C12.7024 8.36051 12.9369 8.60762 13.2351 8.80121C13.4537 8.94312 13.589 9.13533 13.646 9.38715C13.66 9.44925 13.6797 9.5101 13.6975 9.57132C13.7584 9.78037 13.9864 9.85729 14.1694 9.77531C14.2021 9.76067 14.2336 9.74322 14.2664 9.72663C14.2716 9.78842 14.2371 9.86403 14.1632 9.95345C14.2703 10.0042 14.3029 9.9876 14.6543 9.70023C14.665 9.95977 14.6823 10.2118 14.4679 10.4038C14.3246 10.5322 14.1677 10.6082 13.9714 10.5268C13.8892 10.4928 13.8254 10.5209 13.7644 10.5828C13.5749 10.7751 13.3388 10.7587 13.0972 10.7263C13.3199 10.6452 13.4911 10.5244 13.5092 10.3054C13.3923 10.1361 13.2889 10.0005 13.2008 9.85555C13.0164 9.55226 12.7513 9.3716 12.4138 9.26737C12.0773 9.16343 11.7385 9.15961 11.3958 9.18624C11.2495 9.19761 11.1036 9.22582 10.9601 9.25802C10.7975 9.29452 10.6551 9.3792 10.5189 9.47342C10.4839 9.4976 10.4475 9.51979 10.3947 9.55394C10.4905 9.32961 10.6527 9.19756 10.8365 9.09027C11.0358 8.97393 11.2555 8.91748 11.4808 8.8684C11.6926 8.82227 11.903 8.83205 12.1132 8.83931C12.2381 8.84363 12.3615 8.89161 12.4856 8.91995C12.5042 8.92419 12.5228 8.9284 12.5414 8.93263C12.5455 8.92693 12.5497 8.92123 12.5539 8.91554C12.5201 8.88243 12.4882 8.84721 12.4523 8.81657C12.2359 8.6317 11.9774 8.52794 11.7121 8.43944C11.5433 8.38311 11.3731 8.32986 11.2016 8.28241C10.9226 8.20524 10.6759 8.06307 10.4327 7.91258C10.184 7.75871 9.93719 7.59942 9.65062 7.524C9.52171 7.49006 9.38681 7.47942 9.25681 7.44893C9.04102 7.39832 8.82158 7.42401 8.60469 7.40621C8.48563 7.39644 8.36831 7.35861 8.25189 7.32718C8.20913 7.31565 8.1008 7.25777 8.06068 7.23645C8.06203 7.22822 8.10595 7.24197 8.13517 7.2401C8.20616 7.23004 8.27805 7.22413 8.34794 7.20899C8.46936 7.18268 8.58991 7.15204 8.71017 7.12072C8.87267 7.07839 9.03224 7.01385 9.19724 6.99455C9.46249 6.96353 9.73313 6.93157 9.99356 7.03295C10.0525 7.05589 10.1069 7.09038 10.1636 7.11922C10.201 7.13824 10.2387 7.15666 10.2924 7.18335C10.29 7.0544 10.2246 6.97062 10.1767 6.88273C10.0253 6.6047 9.7874 6.41918 9.5004 6.30355C9.30841 6.22619 9.10622 6.1704 8.90456 6.12161C8.4526 6.01226 8.00646 5.88859 7.60101 5.65296C7.49721 5.59263 7.39442 5.52438 7.30743 5.44249C7.08961 5.23746 6.86741 5.03415 6.72247 4.76556C6.66121 4.65205 6.60246 4.53719 6.55176 4.41759C7.27896 5.08833 8.104 5.48347 9.11859 5.39485C8.77855 5.11859 8.5438 4.77466 8.39694 4.36961C8.25123 3.96771 8.20027 3.56188 8.35572 3.14982C8.37929 3.26357 8.39555 3.37945 8.42798 3.49061C8.4911 3.70694 8.60862 3.89961 8.75273 4.06681C8.9586 4.30566 9.1735 4.53836 9.44478 4.71099C9.72884 4.89176 10.039 5.00854 10.3593 5.09884C10.5025 5.1392 10.6539 5.15054 10.8015 5.17505C10.8074 5.16596 10.8133 5.15686 10.8192 5.14777ZM14.0084 7.28395C14.044 7.27785 14.1268 7.27565 14.1422 7.2646C14.0373 7.24142 13.9711 7.20277 13.9413 7.17407C13.8942 7.11442 13.8687 7.07628 13.8287 7.01223C13.7862 6.94442 13.7554 6.86936 13.7193 6.79754C13.6291 6.61771 13.4513 6.54882 13.244 6.62026C13.2534 6.8378 13.3108 7.03594 13.5016 7.16711C13.6547 7.27231 13.8275 7.30653 14.0084 7.28395Z" fill="black"/>
<path d="M9.77917 16.517C9.6089 16.4822 9.43729 16.453 9.26862 16.4117C8.73776 16.2818 8.24236 16.0661 7.79083 15.7592C7.41126 15.5012 7.0769 15.1928 6.78531 14.834C6.49471 14.4765 6.24582 14.0957 6.06366 13.6743C5.95053 13.4125 5.86863 13.1393 5.81249 12.8571C5.74842 12.5351 5.73218 12.2124 5.73584 11.886C5.73929 11.5785 5.7942 11.2791 5.86492 10.9823C5.9501 10.6248 6.07298 10.2796 6.24852 9.95605C6.54346 9.41252 6.92285 8.93955 7.40835 8.55003C7.8226 8.21769 8.28158 7.9739 8.78083 7.80336C8.91925 7.75608 9.06534 7.7187 9.21044 7.70631C9.4703 7.6841 9.70457 7.78478 9.92847 7.90488C10.1943 8.04749 10.451 8.20912 10.7241 8.3356C10.9044 8.41907 11.1055 8.45913 11.2993 8.51108C11.4448 8.55011 11.5938 8.57636 11.7407 8.61028C11.7657 8.61605 11.7885 8.63181 11.8262 8.6495C11.6873 8.66872 11.5649 8.68598 11.4424 8.70248C11.3761 8.71142 11.3092 8.7282 11.2433 8.72519C11.1408 8.7205 11.0388 8.70221 10.9367 8.6892C10.8703 8.68075 10.8044 8.66796 10.7378 8.66314C10.5307 8.64817 10.323 8.62152 10.1163 8.62714C9.92692 8.63228 9.73898 8.67805 9.54954 8.69775C9.22862 8.73114 8.92607 8.83321 8.62776 8.94553C8.30618 9.06662 8.00234 9.22682 7.72736 9.43453C7.35072 9.71902 7.0302 10.0563 6.79051 10.4663C6.60777 10.7789 6.47337 11.1122 6.38347 11.4615C6.30967 11.7483 6.27504 12.0416 6.29037 12.3397C6.29745 12.4774 6.29118 12.6158 6.29308 12.7538C6.29904 13.187 6.42249 13.5943 6.57102 13.9955C6.69076 14.3189 6.85581 14.6192 7.06305 14.894C7.45124 15.4087 7.92207 15.8241 8.50859 16.1072C8.91506 16.3033 9.34532 16.4097 9.77917 16.517Z" fill="black"/>
<path d="M8.7624 9.09245C8.65073 9.19904 8.5404 9.30708 8.42713 9.41194C8.12392 9.69264 7.90377 10.0317 7.72789 10.402C7.58444 10.7041 7.47992 11.0206 7.43378 11.3506C7.39955 11.5954 7.37215 11.8475 7.39214 12.0922C7.43298 12.5923 7.54895 13.0756 7.7877 13.527C8.00345 13.9349 8.2919 14.275 8.63265 14.5826C8.91693 14.8392 9.23692 15.0343 9.58307 15.1814C9.80945 15.2776 10.0555 15.3325 10.297 15.3867C10.535 15.4401 10.7786 15.4807 11.0241 15.4587C11.4215 15.4231 11.8173 15.3748 12.1935 15.229C12.2365 15.2123 12.4195 15.1415 12.4924 15.1106C12.1989 15.3314 11.7078 15.5632 11.3522 15.6482C11.1732 15.691 10.993 15.7291 10.8129 15.7676C10.7804 15.7745 10.3559 15.7764 10.1775 15.7758C9.75747 15.7742 9.36409 15.6579 8.97915 15.5008C8.68398 15.3804 8.41673 15.2127 8.17094 15.0143C7.85554 14.7597 7.57916 14.4662 7.3645 14.1189C7.149 13.7702 7.00056 13.395 6.90706 12.996C6.82737 12.6559 6.80497 12.3105 6.83256 11.9659C6.85685 11.6625 6.92395 11.3634 7.02823 11.0744C7.20528 10.5836 7.4687 10.1498 7.83886 9.7785C8.08272 9.53392 8.34263 9.31348 8.64393 9.14387C8.68162 9.12266 8.72331 9.10857 8.76315 9.09119L8.7624 9.09245Z" fill="black"/>
<path d="M16.4022 10.9311C16.4346 10.7925 16.4537 10.656 16.3989 10.5158C16.3598 10.4158 16.2996 10.3422 16.2032 10.2976C16.1089 10.2539 16.0159 10.2068 15.9194 10.1687C15.8221 10.1304 15.7605 10.0614 15.7142 9.97158C15.6451 9.83773 15.5846 9.69716 15.4987 9.57476C15.3598 9.37683 15.1475 9.30996 14.9134 9.29645C15.0272 9.37056 15.1508 9.4333 15.1844 9.61147C15.0356 9.45015 14.8521 9.43679 14.6722 9.41067C14.6161 9.40252 14.5597 9.38909 14.5065 9.36964C14.3228 9.30247 14.2018 9.16701 14.1121 8.99841C14.0601 8.90052 14.0089 8.80192 13.9514 8.70724C13.8704 8.57388 13.7824 8.44559 13.6162 8.40199C13.7693 8.39876 13.8972 8.44815 13.9953 8.56814C14.0782 8.66966 14.1589 8.7735 14.2479 8.86943C14.3531 8.98266 14.4847 9.04306 14.6433 9.03765C14.7509 9.03399 14.8586 9.03575 14.9662 9.03385C15.222 9.02934 15.4372 9.13001 15.6217 9.29748C15.7437 9.40816 15.8558 9.52984 15.971 9.64792C16.09 9.77003 16.2307 9.83474 16.404 9.81992C16.4236 9.81824 16.4438 9.82322 16.4638 9.82511C16.4638 9.82511 16.4656 9.82369 16.4656 9.82369C16.3671 9.8567 16.2685 9.88972 16.1704 9.92261C16.1928 9.94239 16.2213 9.97654 16.2574 9.99798C16.4029 10.0843 16.4813 10.223 16.5309 10.3732C16.5991 10.5795 16.5566 10.7705 16.4006 10.9296L16.4022 10.9311Z" fill="black"/>
</g>
<path d="M6.4446 16.4407C6.35296 16.387 5.85412 15.975 5.7686 15.8962C5.4314 15.5854 5.1832 15.2132 4.99021 14.7993C4.82292 14.4405 4.67757 14.0736 4.58583 13.689C4.52614 13.4389 4.50171 13.1805 4.45024 12.9281C4.37686 12.5683 4.40056 12.2041 4.42202 11.8455C4.44582 11.4478 4.54976 11.0602 4.78138 10.7213C4.79963 10.6946 4.81462 10.6657 4.83713 10.6276C4.43856 10.8682 3.73858 11.7629 3.80413 12.9966C3.61539 12.6196 3.60436 11.3412 3.78117 10.5745C3.96888 9.76059 4.30865 9.02069 4.83837 8.37048C5.36341 7.72602 6.02546 7.19813 6.7718 6.82708C6.09709 6.79218 4.77674 7.20806 3.906 8.13161C3.88316 8.15203 3.90723 8.0916 3.95935 7.98601C4.11366 7.67338 4.38447 7.24776 4.70165 6.95959C5.02885 6.66231 5.38368 6.40021 5.80496 6.24309C5.96305 6.18412 6.11377 6.1033 6.27442 6.05377C6.51161 5.98064 6.75428 5.925 6.99545 5.86531C7.07216 5.84633 7.15131 5.83022 7.22978 5.82792C7.27933 5.82646 7.33434 5.8444 7.37894 5.86843C7.66431 6.02218 7.96421 6.13035 8.28413 6.18761C8.59325 6.24294 8.90317 6.29802 9.20761 6.37381C9.43829 6.43124 9.68101 6.58757 9.84801 6.76747C9.81842 6.75994 9.74057 6.73315 9.71319 6.72076C9.50291 6.6256 9.28739 6.63456 9.07013 6.68724C8.80931 6.75047 8.54906 6.81604 8.28859 6.8807C8.07336 6.93413 7.8581 6.95858 7.64202 6.88432C7.62031 6.87686 7.59688 6.87371 7.57396 6.8707C7.56142 6.86905 7.54828 6.87188 7.51642 6.87389C7.62068 7.14859 7.80342 7.333 8.08236 7.4533C7.94929 7.51869 7.83572 7.57081 7.72556 7.62934C7.42236 7.7904 7.14013 7.98156 6.88754 8.21575C6.54935 8.52931 6.24479 8.87072 6.01515 9.27299C5.77544 9.69291 5.59529 10.1364 5.48038 10.6079C5.35956 11.1036 5.3386 11.6064 5.36885 12.1103C5.3834 12.3528 5.44284 12.5943 5.49883 12.8323C5.62584 13.3721 5.87443 13.8587 6.18302 14.3151C6.40756 14.6472 6.68078 14.9395 6.98216 15.2013C7.33424 15.5071 7.73098 15.7472 8.15361 15.9467C8.46459 16.0934 8.78633 16.2052 9.12153 16.2749C9.39351 16.3315 9.6672 16.3789 9.94874 16.3655C10.254 16.3511 10.562 16.3695 10.8651 16.338C11.1374 16.3097 11.4067 16.241 11.674 16.1762C12.1024 16.0723 12.4818 15.8621 12.8446 15.6166C13.1108 15.4366 13.3505 15.2249 13.5709 14.9952C13.8056 14.7505 14.0039 14.4739 14.1705 14.1766C14.2353 14.061 14.3031 13.9469 14.3695 13.8322C14.3695 13.8322 14.3699 13.83 14.3699 13.83C14.256 14.1954 14.1216 14.5544 13.9276 14.8838C13.7918 15.1145 13.6282 15.3315 13.4569 15.5379C13.2938 15.7343 13.1149 15.9208 12.9236 16.0898C12.7528 16.2408 12.5607 16.3696 12.3691 16.4945C11.9634 16.759 11.5265 16.9606 11.0592 17.0894C10.8845 17.1375 10.7013 17.1544 10.5239 17.1942C10.2079 17.2652 9.88829 17.2283 9.57063 17.2286C9.40363 17.2288 9.23499 17.1978 9.06998 17.166C8.87838 17.129 8.68628 17.0869 8.50095 17.0268C8.1888 16.9256 7.87913 16.8131 7.59872 16.6382C7.38491 16.5049 7.17089 16.3701 6.96885 16.22C6.70244 16.022 6.44584 15.8108 6.24738 15.5387C6.11254 15.3539 5.96683 15.1767 5.83781 14.988C5.76169 14.8767 5.70884 14.7495 5.64506 14.6296C5.62659 14.5949 5.6065 14.5611 5.58716 14.5269L5.56349 14.5331C5.56304 14.5744 5.55747 14.6166 5.56449 14.6566C5.63971 15.0847 5.76734 15.4975 5.9977 15.867C6.1251 16.0713 6.29443 16.2495 6.44486 16.4395L6.4446 16.4407Z" fill="url(#paint7_linear_5514_43687)"/>
<path d="M10.6703 5.05827C10.2224 4.36401 10.0278 3.63845 10.3842 2.82629C10.5544 3.85182 11.0598 4.64058 11.9223 5.18987C12.0579 5.27619 12.1963 5.38835 12.3985 5.37846C12.2391 4.94845 12.355 4.54791 12.454 4.14609C12.4633 4.14637 12.4725 4.14664 12.4817 4.14692C12.4858 4.2343 12.4894 4.3217 12.494 4.40906C12.5103 4.71927 12.6379 4.99228 12.7808 5.2596C12.9096 5.50045 13.092 5.6942 13.3025 5.86698C13.4869 6.01843 13.6668 6.17697 13.8359 6.34516C13.9824 6.49075 14.0542 6.68301 14.115 6.87835C14.1515 6.99534 14.1963 7.10984 14.2403 7.22432C14.2943 7.36481 14.3922 7.47341 14.5063 7.56689C14.549 7.60188 14.5999 7.63096 14.6519 7.64962C14.7955 7.70124 14.9419 7.73609 15.0971 7.74553C15.2776 7.75651 15.4572 7.78851 15.636 7.81854C15.7693 7.84094 15.9038 7.86513 16.0317 7.90694C16.1108 7.93277 16.1843 7.98621 16.2499 8.03994C16.316 8.09401 16.3474 8.16987 16.3401 8.26161C16.3297 8.39384 16.2969 8.51682 16.2153 8.62278C16.1626 8.69119 16.0975 8.73099 16.0037 8.73396C15.95 8.73565 15.8926 8.76976 15.8461 8.80232C15.795 8.83803 15.756 8.89065 15.7088 8.9325C15.6367 8.99633 15.5525 9.02991 15.4446 9.02545C15.5402 8.90441 15.6015 8.77922 15.5804 8.61242C15.4829 8.65073 15.3947 8.68538 15.29 8.72655C15.3201 8.64796 15.3456 8.59484 15.3608 8.53893C15.3803 8.46726 15.3646 8.40395 15.2853 8.37802C15.1221 8.32464 14.9576 8.27614 14.7792 8.31464C14.4605 8.3834 14.1759 8.31027 13.932 8.08697C13.8561 8.01739 13.7892 7.9377 13.7118 7.86993C13.6401 7.80715 13.5621 7.75068 13.4829 7.6975C13.3122 7.583 13.1227 7.59298 12.9353 7.63463C12.7931 7.66624 12.6663 7.64347 12.5431 7.57343C12.5137 7.55675 12.4787 7.52941 12.4482 7.49306C12.4308 7.62267 12.4214 7.76278 12.4473 7.8742C12.5303 8.23163 12.762 8.47571 13.0565 8.66693C13.2724 8.8071 13.4061 8.99695 13.4623 9.24569C13.4762 9.30703 13.4957 9.36713 13.5133 9.4276C13.5734 9.63409 13.7986 9.71007 13.9794 9.62909C14.0117 9.61462 14.0427 9.59739 14.0752 9.58101C14.0803 9.64204 14.0462 9.71672 13.9732 9.80505C14.079 9.85521 14.1113 9.83877 14.4583 9.55493C14.4689 9.81128 14.4859 10.0602 14.2742 10.2499C14.1327 10.3767 13.9776 10.4517 13.7838 10.3714C13.7026 10.3377 13.6395 10.3656 13.5793 10.4267C13.3922 10.6166 13.1589 10.6004 12.9203 10.5684C13.1402 10.4883 13.3093 10.369 13.3272 10.1527C13.2118 9.98543 13.1096 9.85149 13.0226 9.70834C12.8405 9.40878 12.5786 9.23033 12.2453 9.12738C11.9129 9.02471 11.5782 9.02094 11.2397 9.04724C11.0953 9.05847 10.9511 9.08633 10.8094 9.11814C10.6488 9.15419 10.5081 9.23783 10.3735 9.3309C10.339 9.35479 10.3031 9.3767 10.251 9.41043C10.3455 9.18885 10.5057 9.05842 10.6873 8.95244C10.8842 8.83753 11.1012 8.78177 11.3237 8.73329C11.5329 8.68773 11.7407 8.69739 11.9483 8.70457C12.0717 8.70883 12.1937 8.75622 12.3162 8.78421C12.3346 8.7884 12.3529 8.79256 12.3713 8.79674C12.3754 8.79111 12.3795 8.78548 12.3837 8.77985C12.3503 8.74715 12.3187 8.71236 12.2833 8.6821C12.0696 8.49949 11.8142 8.39701 11.5522 8.3096C11.3854 8.25395 11.2174 8.20136 11.0479 8.15449C10.7723 8.07826 10.5287 7.93784 10.2885 7.7892C10.0428 7.63721 9.79901 7.47987 9.51596 7.40537C9.38862 7.37186 9.25538 7.36134 9.12697 7.33122C8.91382 7.28123 8.69708 7.30661 8.48284 7.28903C8.36524 7.27937 8.24936 7.24201 8.13437 7.21097C8.09214 7.19957 7.98513 7.14241 7.94551 7.12135C7.94684 7.11322 7.99022 7.1268 8.01908 7.12496C8.0892 7.11501 8.16021 7.10918 8.22924 7.09422C8.34918 7.06824 8.46824 7.03797 8.58703 7.00703C8.74754 6.96523 8.90515 6.90148 9.06814 6.88241C9.33013 6.85177 9.59745 6.82021 9.85469 6.92034C9.91291 6.943 9.96668 6.97707 10.0227 7.00556C10.0596 7.02435 10.0968 7.04254 10.1498 7.0689C10.1475 6.94153 10.0829 6.85878 10.0356 6.77196C9.88603 6.49735 9.65106 6.3141 9.36758 6.19988C9.17794 6.12347 8.97822 6.06837 8.77904 6.02018C8.33262 5.91217 7.89195 5.79001 7.49147 5.55727C7.38894 5.49768 7.28741 5.43027 7.20149 5.34938C6.98634 5.14686 6.76686 4.94604 6.62369 4.68074C6.56319 4.56863 6.50516 4.45518 6.45508 4.33704C7.17337 4.99956 7.98829 5.38986 8.99044 5.30232C8.65458 5.02945 8.4227 4.68973 8.27764 4.28965C8.13372 3.89268 8.08338 3.49182 8.23693 3.08482C8.26021 3.19717 8.27627 3.31163 8.3083 3.42143C8.37065 3.6351 8.48672 3.82541 8.62907 3.99057C8.83242 4.22648 9.04469 4.45633 9.31263 4.62684C9.59322 4.8054 9.89954 4.92075 10.216 5.00994C10.3574 5.04981 10.5069 5.06101 10.6527 5.08522C10.6586 5.07624 10.6644 5.06725 10.6703 5.05827ZM13.8203 7.16826C13.8554 7.16225 13.9372 7.16007 13.9525 7.14916C13.8489 7.12626 13.7835 7.08809 13.754 7.05973C13.7075 7.00082 13.6824 6.96315 13.6428 6.89988C13.6009 6.8329 13.5704 6.75876 13.5348 6.68782C13.4456 6.51019 13.2701 6.44214 13.0653 6.51272C13.0746 6.72759 13.1312 6.9233 13.3198 7.05286C13.471 7.15677 13.6417 7.19057 13.8203 7.16826Z" fill="url(#paint8_linear_5514_43687)"/>
<path d="M9.64366 16.2881C9.47548 16.2538 9.30597 16.2249 9.13937 16.1841C8.61502 16.0558 8.12569 15.8428 7.6797 15.5396C7.30478 15.2848 6.97452 14.9802 6.6865 14.6258C6.39946 14.2726 6.15363 13.8965 5.9737 13.4802C5.86195 13.2217 5.78106 12.9518 5.72561 12.6731C5.66232 12.3551 5.64628 12.0363 5.64989 11.7139C5.6533 11.4102 5.70754 11.1144 5.77739 10.8213C5.86153 10.4682 5.9829 10.1271 6.15629 9.8076C6.44761 9.27074 6.82235 8.80356 7.30191 8.41882C7.71108 8.09055 8.16443 7.84974 8.65756 7.6813C8.79428 7.6346 8.93859 7.59768 9.0819 7.58543C9.33858 7.5635 9.56997 7.66295 9.79113 7.78158C10.0537 7.92243 10.3073 8.08208 10.577 8.20701C10.7551 8.28946 10.9537 8.32903 11.1451 8.38035C11.2889 8.41889 11.436 8.44482 11.5812 8.47832C11.6059 8.48403 11.6283 8.49959 11.6656 8.51707C11.5284 8.53605 11.4075 8.5531 11.2865 8.5694C11.221 8.57822 11.1549 8.5948 11.0898 8.59183C10.9886 8.58719 10.8879 8.56913 10.787 8.55628C10.7215 8.54793 10.6563 8.5353 10.5905 8.53054C10.386 8.51575 10.1808 8.48943 9.97668 8.49498C9.7896 8.50006 9.60396 8.54527 9.41685 8.56473C9.09986 8.5977 8.80102 8.69852 8.50637 8.80947C8.18873 8.92907 7.88861 9.08731 7.617 9.29247C7.24499 9.57348 6.92839 9.90659 6.69164 10.3116C6.51113 10.6204 6.37839 10.9496 6.28959 11.2946C6.21669 11.5779 6.18249 11.8676 6.19763 12.162C6.20462 12.298 6.19843 12.4347 6.20031 12.5711C6.2062 12.9989 6.32813 13.4013 6.47484 13.7975C6.59311 14.1169 6.75614 14.4136 6.96083 14.685C7.34427 15.1934 7.80933 15.6038 8.38866 15.8833C8.79015 16.0771 9.21513 16.1822 9.64366 16.2881Z" fill="url(#paint9_linear_5514_43687)"/>
<path d="M8.639 8.95459C8.5287 9.05987 8.41972 9.16658 8.30783 9.27016C8.00834 9.54742 7.79089 9.88228 7.61717 10.2481C7.47547 10.5465 7.37224 10.8591 7.32666 11.1851C7.29285 11.4269 7.26579 11.6759 7.28553 11.9176C7.32588 12.4116 7.44042 12.8889 7.67624 13.3348C7.88935 13.7376 8.17427 14.0736 8.51084 14.3774C8.79163 14.6309 9.1077 14.8236 9.44961 14.9689C9.67321 15.0639 9.91623 15.1181 10.1548 15.1717C10.3899 15.2244 10.6305 15.2645 10.873 15.2428C11.2655 15.2077 11.6564 15.16 12.0281 15.0159C12.0705 14.9995 12.2513 14.9295 12.3233 14.899C12.0334 15.1171 11.5483 15.3461 11.1971 15.43C11.0202 15.4722 10.8422 15.5099 10.6644 15.5479C10.6323 15.5548 10.213 15.5566 10.0368 15.556C9.62187 15.5545 9.23331 15.4395 8.85309 15.2844C8.56154 15.1654 8.29757 14.9998 8.05479 14.8038C7.74326 14.5523 7.47026 14.2625 7.25823 13.9194C7.04538 13.575 6.89875 13.2044 6.8064 12.8103C6.72769 12.4743 6.70556 12.1331 6.73281 11.7929C6.75681 11.4931 6.82308 11.1977 6.92608 10.9122C7.10096 10.4275 7.36115 9.99893 7.72678 9.63223C7.96765 9.39065 8.22437 9.17291 8.52198 9.00538C8.5592 8.98442 8.60039 8.97051 8.63974 8.95334L8.639 8.95459Z" fill="url(#paint10_linear_5514_43687)"/>
<path d="M16.1854 10.7707C16.2175 10.6338 16.2363 10.499 16.1822 10.3605C16.1435 10.2617 16.0841 10.1891 15.9889 10.145C15.8958 10.1018 15.8039 10.0553 15.7085 10.0177C15.6125 9.97984 15.5516 9.91171 15.5058 9.82295C15.4376 9.69074 15.3779 9.5519 15.293 9.431C15.1558 9.23549 14.9461 9.16944 14.7148 9.1561C14.8273 9.2293 14.9494 9.29127 14.9825 9.46725C14.8356 9.30791 14.6543 9.29472 14.4766 9.26892C14.4212 9.26087 14.3655 9.24761 14.3129 9.22839C14.1315 9.16204 14.012 9.02825 13.9234 8.86171C13.872 8.76502 13.8215 8.66763 13.7647 8.57411C13.6847 8.44239 13.5977 8.31567 13.4336 8.2726C13.5848 8.26941 13.7112 8.3182 13.808 8.43672C13.8899 8.53699 13.9696 8.63956 14.0576 8.73431C14.1614 8.84616 14.2914 8.90581 14.4481 8.90047C14.5543 8.89686 14.6607 8.89859 14.767 8.89672C15.0197 8.89226 15.2323 8.9917 15.4145 9.15711C15.535 9.26644 15.6457 9.38663 15.7595 9.50326C15.8771 9.62387 16.0161 9.68779 16.1872 9.67315C16.2066 9.67149 16.2265 9.67641 16.2462 9.67828C16.2462 9.67828 16.2481 9.67687 16.2481 9.67687C16.1507 9.70948 16.0534 9.7421 15.9565 9.77458C15.9786 9.79412 16.0068 9.82785 16.0424 9.84902C16.1861 9.93432 16.2635 10.0713 16.3125 10.2196C16.3799 10.4234 16.338 10.612 16.1839 10.7692L16.1854 10.7707Z" fill="url(#paint11_linear_5514_43687)"/>
</g>
<defs>
<filter id="filter0_f_5514_43687" x="3.2168" y="2.38808" width="13.8457" height="15.5905" filterUnits="userSpaceOnUse" color-interpolation-filters="sRGB">
<feFlood flood-opacity="0" result="BackgroundImageFix"/>
<feBlend mode="normal" in="SourceGraphic" in2="BackgroundImageFix" result="shape"/>
<feGaussianBlur stdDeviation="0.25" result="effect1_foregroundBlur_5514_43687"/>
</filter>
<linearGradient id="paint0_linear_5514_43687" x1="2.92893" y1="2.92893" x2="17.0711" y2="17.0711" gradientUnits="userSpaceOnUse">
<stop stop-color="#F8DF91"/>
<stop offset="1" stop-color="#D4A133"/>
</linearGradient>
<radialGradient id="paint1_radial_5514_43687" cx="0" cy="0" r="1" gradientUnits="userSpaceOnUse" gradientTransform="translate(9.97269 10.1168) rotate(19.7072) scale(10.9058 10.1549)">
<stop offset="0.66961" stop-opacity="0"/>
<stop offset="0.78032" stop-opacity="0.32707"/>
<stop offset="0.7973" stop-opacity="0.5"/>
<stop offset="0.89491" stop-opacity="0"/>
</radialGradient>
<linearGradient id="paint2_linear_5514_43687" x1="3.6739" y1="16.3257" x2="16.3253" y2="3.67429" gradientUnits="userSpaceOnUse">
<stop stop-color="#F8DF91"/>
<stop offset="0.35303" stop-color="#E9C56A"/>
<stop offset="0.77923" stop-color="#D9AB42"/>
<stop offset="1" stop-color="#D4A133"/>
</linearGradient>
<linearGradient id="paint3_linear_5514_43687" x1="4.09385" y1="4.09388" x2="15.9061" y2="15.9061" gradientUnits="userSpaceOnUse">
<stop offset="0.00152" stop-color="#D4A133"/>
<stop offset="0.48576" stop-color="#F8DF91"/>
<stop offset="0.9203" stop-color="#D4A133"/>
</linearGradient>
<radialGradient id="paint4_radial_5514_43687" cx="0" cy="0" r="1" gradientUnits="userSpaceOnUse" gradientTransform="translate(11.7711 10.7287) rotate(2.91775) scale(10.2814 9.60505)">
<stop offset="0.82775" stop-opacity="0"/>
<stop offset="0.9771" stop-opacity="0.32707"/>
<stop offset="1" stop-opacity="0.5"/>
</radialGradient>
<linearGradient id="paint5_linear_5514_43687" x1="4.02652" y1="4.01939" x2="15.9731" y2="15.966" gradientUnits="userSpaceOnUse">
<stop stop-color="#D4A133"/>
<stop offset="1" stop-color="#F8DF91"/>
</linearGradient>
<linearGradient id="paint6_linear_5514_43687" x1="3.6023" y1="3.59844" x2="16.4054" y2="16.4016" gradientUnits="userSpaceOnUse">
<stop stop-color="#D4A133"/>
<stop offset="1" stop-color="#F8DF91"/>
</linearGradient>
<linearGradient id="paint7_linear_5514_43687" x1="3.65527" y1="11.5329" x2="14.3699" y2="11.5329" gradientUnits="userSpaceOnUse">
<stop stop-color="#F8DF91"/>
<stop offset="1" stop-color="#D4A133"/>
</linearGradient>
<linearGradient id="paint8_linear_5514_43687" x1="6.45508" y1="6.70719" x2="16.3412" y2="6.70719" gradientUnits="userSpaceOnUse">
<stop stop-color="#F8DF91"/>
<stop offset="1" stop-color="#D4A133"/>
</linearGradient>
<linearGradient id="paint9_linear_5514_43687" x1="5.64941" y1="11.9352" x2="11.6656" y2="11.9352" gradientUnits="userSpaceOnUse">
<stop stop-color="#F8DF91"/>
<stop offset="1" stop-color="#D4A133"/>
</linearGradient>
<linearGradient id="paint10_linear_5514_43687" x1="6.72168" y1="12.2547" x2="12.3233" y2="12.2547" gradientUnits="userSpaceOnUse">
<stop stop-color="#F8DF91"/>
<stop offset="1" stop-color="#D4A133"/>
</linearGradient>
<linearGradient id="paint11_linear_5514_43687" x1="13.4336" y1="9.52157" x2="16.3436" y2="9.52157" gradientUnits="userSpaceOnUse">
<stop stop-color="#F8DF91"/>
<stop offset="1" stop-color="#D4A133"/>
</linearGradient>
<clipPath id="clip0_5514_43687">
<rect width="20" height="20" fill="white"/>
</clipPath>
</defs>
</svg>
