<svg width="20" height="20" viewBox="0 0 20 20" fill="none" xmlns="http://www.w3.org/2000/svg">
<g clip-path="url(#clip0_5489_43521)">
<path d="M0.0253906 9.28839C0.205349 6.76585 1.33439 4.40519 3.18515 2.68175C5.03592 0.958315 7.47094 0.00012207 9.99989 0.00012207C12.5288 0.00012207 14.9639 0.958315 16.8146 2.68175C18.6654 4.40519 19.7944 6.76585 19.9744 9.28839H18.8818C18.7028 7.0556 17.6895 4.97212 16.0436 3.45282C14.3976 1.93352 12.2398 1.08987 9.99989 1.08987C7.75994 1.08987 5.60216 1.93352 3.95623 3.45282C2.31029 4.97212 1.29696 7.0556 1.11801 9.28839H0.0253906ZM6.26089 18.0889C4.82674 17.4254 3.59473 16.3926 2.69105 15.0964C1.78737 13.8001 1.2445 12.2869 1.11806 10.7117H0.0253906C0.153839 12.5103 0.765953 14.2407 1.797 15.7199C2.82804 17.1992 4.23969 18.3723 5.88265 19.1153L6.26089 18.0889ZM18.8818 10.7117C18.7767 12.0226 18.3827 13.2939 17.7282 14.4345C17.0737 15.5751 16.1748 16.5567 15.096 17.3089C14.0173 18.061 12.7855 18.5651 11.4889 18.7849C10.1923 19.0047 8.86318 18.9348 7.59682 18.5802L7.2183 19.6074C8.65029 20.0208 10.1565 20.1091 11.627 19.8659C13.0975 19.6226 14.4951 19.0539 15.7176 18.2014C16.9402 17.3488 17.9568 16.2339 18.6933 14.9381C19.4298 13.6423 19.8675 12.1984 19.9745 10.7117H18.8818Z" fill="#14A7D7"/>
<path d="M10.0004 18.4409C14.6621 18.4409 18.4412 14.6619 18.4412 10.0001C18.4412 5.3384 14.6621 1.55933 10.0004 1.55933C5.33864 1.55933 1.55957 5.3384 1.55957 10.0001C1.55957 14.6619 5.33864 18.4409 10.0004 18.4409Z" fill="url(#paint0_linear_5489_43521)"/>
<path opacity="0.9" d="M18.4377 9.76286L16.3622 10.9819C16.3032 10.9196 16.2225 10.8824 16.1368 10.8782C16.0511 10.874 15.9671 10.9031 15.9023 10.9593L13.1144 9.30599L15.9653 7.57458C16.0152 7.6015 16.0712 7.61494 16.1279 7.61357C16.1845 7.6122 16.2399 7.59607 16.2884 7.56677L18.3566 8.80512C18.3452 8.72484 18.3327 8.64492 18.3192 8.56537L16.4192 7.42771C16.4433 7.38105 16.4561 7.32935 16.4564 7.27684C16.4567 7.23245 16.4481 7.18845 16.4313 7.14737C16.4145 7.1063 16.3897 7.06895 16.3584 7.03748C16.3271 7.006 16.2899 6.98103 16.2489 6.96399C16.2079 6.94694 16.164 6.93817 16.1196 6.93817C16.0752 6.93817 16.0313 6.94694 15.9903 6.96399C15.9493 6.98103 15.9121 7.006 15.8808 7.03748C15.8495 7.06895 15.8247 7.1063 15.8079 7.14737C15.7911 7.18845 15.7825 7.23245 15.7828 7.27684C15.7831 7.33421 15.7983 7.39053 15.8268 7.44033L12.9325 9.19812L11.7285 8.48422C11.7383 8.43366 11.7343 8.38142 11.7171 8.33292L13.1454 7.4915C13.2404 7.63047 13.3847 7.72816 13.549 7.76479C13.7133 7.80142 13.8854 7.77425 14.0305 7.6888C14.1756 7.60334 14.2828 7.46597 14.3304 7.30448C14.378 7.14299 14.3625 6.96944 14.287 6.81896L16.9701 5.23825C16.9437 5.19964 16.9172 5.16105 16.8902 5.12291L14.2118 6.70078C14.112 6.57561 13.9704 6.49067 13.8131 6.46158C13.6557 6.43249 13.4931 6.46121 13.3552 6.54245C13.2172 6.62369 13.1133 6.752 13.0625 6.90376C13.0116 7.05553 13.0173 7.22055 13.0784 7.36848L11.6486 8.21078C11.6173 8.17481 11.5786 8.14594 11.5352 8.12609V6.822L14.41 5.19C14.4484 5.22191 14.4935 5.24484 14.5419 5.25713C14.5903 5.26941 14.6409 5.27073 14.6898 5.261C14.7388 5.25127 14.785 5.23073 14.8251 5.20088C14.8651 5.17103 14.898 5.13261 14.9213 5.08844C14.9446 5.04427 14.9577 4.99545 14.9598 4.94555C14.9618 4.89565 14.9527 4.84592 14.9331 4.79999C14.9135 4.75407 14.8838 4.7131 14.8464 4.68007C14.8089 4.64705 14.7645 4.62281 14.7165 4.60911V2.99878C14.655 2.95723 14.5928 2.91653 14.53 2.87668V4.60912C14.4863 4.62095 14.4456 4.64163 14.4103 4.66987C14.375 4.6981 14.3458 4.7333 14.3247 4.77328C14.3035 4.81325 14.2908 4.85714 14.2874 4.90223C14.2839 4.94731 14.2897 4.99263 14.3045 5.03537L11.5352 6.60744V3.25164C11.5943 3.22509 11.6445 3.18205 11.6797 3.12769C11.7149 3.07332 11.7337 3.00994 11.7338 2.94517L11.7329 2.93643L13.1718 2.17602C13.0957 2.14516 13.0191 2.11532 12.942 2.0865L11.6754 2.75583C11.644 2.70939 11.6016 2.67152 11.5519 2.64565C11.5022 2.61978 11.4468 2.60673 11.3908 2.60769C11.3348 2.60864 11.2799 2.62357 11.2311 2.65111C11.1823 2.67866 11.1412 2.71795 11.1114 2.76542C11.0817 2.8129 11.0642 2.86705 11.0607 2.92296C11.0572 2.97888 11.0677 3.03479 11.0913 3.08562C11.1148 3.13645 11.1507 3.18059 11.1957 3.21403C11.2406 3.24748 11.2932 3.26917 11.3487 3.27714V6.71332L10.1868 7.37294C10.1469 7.33454 10.0982 7.30659 10.045 7.29156V5.63712C10.2034 5.61483 10.3485 5.53605 10.4534 5.41528C10.5584 5.29451 10.6162 5.13989 10.6162 4.97988C10.6162 4.81987 10.5584 4.66524 10.4534 4.54447C10.3485 4.4237 10.2034 4.34492 10.045 4.32264V1.5599L10.0004 1.55933C9.95292 1.55933 9.90571 1.56033 9.85845 1.56113V4.32261C9.7 4.34489 9.55493 4.42367 9.44996 4.54444C9.34499 4.66521 9.28719 4.81984 9.28719 4.97985C9.28719 5.13986 9.34499 5.29448 9.44996 5.41525C9.55493 5.53602 9.7 5.6148 9.85845 5.63709V7.29156C9.80519 7.30657 9.75648 7.33452 9.71664 7.37293L8.55469 6.7133V3.27712C8.61002 3.26905 8.66247 3.24732 8.70728 3.21387C8.7521 3.18042 8.78786 3.13633 8.81133 3.08557C8.8348 3.03482 8.84524 2.97901 8.8417 2.92321C8.83816 2.8674 8.82076 2.81336 8.79107 2.76598C8.76137 2.7186 8.72033 2.67937 8.67165 2.65185C8.62297 2.62433 8.5682 2.60939 8.51229 2.60838C8.45638 2.60737 8.4011 2.62033 8.35147 2.64607C8.30183 2.67182 8.25939 2.70954 8.22801 2.75582L7.00211 2.10802C6.92557 2.13711 6.84957 2.16725 6.77411 2.19845L8.17059 2.93645L8.16971 2.94517C8.16978 3.00993 8.18855 3.0733 8.22376 3.12767C8.25897 3.18203 8.30912 3.22507 8.3682 3.25162V6.6074L5.59891 5.03533C5.61369 4.99259 5.61952 4.94728 5.61605 4.9022C5.61258 4.85712 5.59988 4.81323 5.57873 4.77326C5.55759 4.73329 5.52846 4.6981 5.49315 4.66986C5.45783 4.64162 5.41709 4.62095 5.37345 4.60912V2.94012C5.31069 2.98134 5.24851 3.02336 5.18692 3.0662V4.60912C5.13876 4.62272 5.09424 4.64691 5.05663 4.67993C5.01902 4.71294 4.98927 4.75395 4.96954 4.79995C4.94982 4.84595 4.94063 4.89577 4.94265 4.94578C4.94466 4.99579 4.95783 5.04471 4.98119 5.08897C5.00455 5.13324 5.0375 5.17172 5.07765 5.2016C5.11779 5.23149 5.16411 5.25202 5.21321 5.2617C5.26231 5.27138 5.31296 5.26996 5.36144 5.25755C5.40993 5.24514 5.45502 5.22204 5.49343 5.18996L8.36815 6.82196V8.12612C8.31577 8.14996 8.27038 8.18683 8.23629 8.2332L6.80588 7.4094C6.8809 7.258 6.8954 7.0837 6.84642 6.92199C6.79744 6.76028 6.68866 6.62332 6.54224 6.53899C6.39582 6.45467 6.22277 6.42932 6.05831 6.46812C5.89386 6.50691 5.75038 6.60692 5.65708 6.7478L3.03214 5.23612L2.99071 5.29667L2.95737 5.35455L5.59267 6.87225C5.53438 7.02037 5.53123 7.18451 5.58382 7.33476C5.63641 7.48501 5.74122 7.61137 5.87917 7.69081C6.01711 7.77025 6.17901 7.7975 6.33535 7.76757C6.4917 7.73765 6.6321 7.65256 6.73096 7.5278L8.17766 8.36098C8.16803 8.40139 8.16708 8.44338 8.17488 8.48419L6.97088 9.19819L4.07658 7.44039C4.10511 7.39057 4.12029 7.33424 4.12065 7.27684C4.12065 7.1875 4.08516 7.10183 4.02199 7.03866C3.95883 6.97549 3.87315 6.94001 3.78382 6.94001C3.69449 6.94001 3.60881 6.97549 3.54565 7.03866C3.48248 7.10183 3.44699 7.1875 3.44699 7.27684C3.44735 7.33056 3.46071 7.38339 3.48592 7.43084L1.68569 8.54046C1.67165 8.62098 1.65883 8.7019 1.64724 8.78322L3.61815 7.56844C3.66645 7.59698 3.72131 7.61254 3.7774 7.61361C3.83349 7.61468 3.8889 7.60121 3.93825 7.57453L6.7891 9.30599L4.0011 10.9592C3.93487 10.9017 3.84853 10.8727 3.76097 10.8786C3.67341 10.8845 3.59175 10.9248 3.53384 10.9907L1.56046 9.93006C1.56027 9.95343 1.55957 9.97669 1.55957 10.0001C1.55957 10.0477 1.56057 10.095 1.56137 10.1423L3.45261 11.1588C3.44478 11.2047 3.44659 11.2518 3.4579 11.297C3.46921 11.3422 3.4898 11.3846 3.51834 11.4214C3.54688 11.4582 3.58276 11.4887 3.62371 11.5109C3.66466 11.5332 3.70978 11.5467 3.75621 11.5505C3.80265 11.5544 3.84938 11.5486 3.89345 11.5335C3.93752 11.5184 3.97796 11.4942 4.01222 11.4627C4.04648 11.4311 4.07381 11.3927 4.09246 11.35C4.11112 11.3073 4.12071 11.2612 4.12061 11.2146C4.12014 11.1808 4.11453 11.1473 4.10396 11.1152L6.96976 9.41565L7.20863 9.56074L7.30545 9.40135L7.15157 9.3079L8.25439 8.6539C8.28358 8.68777 8.3193 8.71541 8.35941 8.73517C8.39952 8.75493 8.4432 8.7664 8.48784 8.7689C8.53249 8.77139 8.57718 8.76487 8.61924 8.74971C8.66131 8.73455 8.69988 8.71106 8.73267 8.68066L9.80389 9.29759L6.75724 11.0924C6.66199 10.954 6.5178 10.8568 6.35375 10.8205C6.1897 10.7842 6.01798 10.8114 5.87321 10.8967C5.72844 10.982 5.62138 11.119 5.57363 11.2801C5.52587 11.4412 5.54096 11.6144 5.61586 11.7648L2.39365 13.663C2.40488 13.6863 2.41665 13.7092 2.42811 13.7324L2.45995 13.7864L5.69077 11.8831C5.79043 12.0087 5.93211 12.0939 6.0897 12.1232C6.24729 12.1525 6.41015 12.1238 6.54825 12.0425C6.68636 11.9611 6.79039 11.8326 6.84116 11.6805C6.89193 11.5285 6.88602 11.3632 6.82452 11.2152L9.85845 9.42785V10.4087H10.045V9.43639L17.5575 13.7629C17.5783 13.7211 17.5992 13.6792 17.6194 13.637L10.082 9.29612L11.1538 8.6647C11.1859 8.69864 11.2247 8.72548 11.2677 8.74349C11.3108 8.7615 11.3572 8.77028 11.4038 8.76926C11.4505 8.76823 11.4964 8.75743 11.5387 8.73755C11.5809 8.71767 11.6185 8.68915 11.649 8.65384L12.7518 9.30784L12.5979 9.40129L12.6948 9.56068L12.9336 9.41559L15.7994 11.1151C15.7889 11.1472 15.7832 11.1808 15.7828 11.2146C15.7828 11.2617 15.7927 11.3082 15.8119 11.3512C15.831 11.3943 15.8589 11.4328 15.8939 11.4643C15.9288 11.4959 15.97 11.5198 16.0148 11.5344C16.0595 11.5491 16.1068 11.5542 16.1537 11.5494C16.2005 11.5447 16.2458 11.5301 16.2867 11.5068C16.3276 11.4834 16.3631 11.4517 16.391 11.4138C16.4189 11.3758 16.4385 11.3325 16.4486 11.2865C16.4587 11.2405 16.459 11.1929 16.4496 11.1468L18.4409 9.97731C18.4407 9.90563 18.4396 9.83414 18.4377 9.76286ZM9.85845 9.16742L8.81524 8.56662C8.83596 8.51924 8.84543 8.4677 8.84291 8.41605C8.84039 8.3644 8.82594 8.31404 8.80071 8.2689C8.77547 8.22377 8.74013 8.18509 8.69745 8.15589C8.65476 8.1267 8.6059 8.10778 8.55469 8.10062V6.92784L9.62493 7.53543C9.60372 7.61944 9.61629 7.70842 9.65995 7.78327C9.70361 7.85812 9.77488 7.91287 9.85845 7.93577V9.16742ZM11.3487 8.10058C11.2992 8.10709 11.2519 8.12466 11.2102 8.15199C11.1684 8.17931 11.1334 8.21569 11.1077 8.25841C11.0819 8.30114 11.0662 8.34911 11.0615 8.39877C11.0569 8.44843 11.0635 8.4985 11.0809 8.54526L10.045 9.15552V7.93576C10.1285 7.91286 10.1998 7.85811 10.2435 7.78328C10.2871 7.70844 10.2997 7.61946 10.2785 7.53546L11.3487 6.92789V8.10058ZM14.389 17.2116C14.3287 17.2483 14.2679 17.2844 14.2067 17.3197L10.7796 15.2606L10.8757 15.1006L14.389 17.2116ZM11.7688 12.1528L14.7408 13.6018V16.9847C14.6792 17.0266 14.617 17.0678 14.5543 17.1082V13.7184L11.687 12.3204L11.7688 12.1528ZM9.12382 15.2606L5.74498 17.2907C5.68417 17.2552 5.62385 17.2189 5.56404 17.1818L9.02773 15.1007L9.12382 15.2606ZM5.16255 16.9172V13.982C5.11247 13.9677 5.0664 13.942 5.02797 13.9068C4.98954 13.8717 4.95981 13.8281 4.94112 13.7795C4.92244 13.7309 4.91532 13.6786 4.92031 13.6267C4.92531 13.5749 4.94229 13.5249 4.96991 13.4808C4.99754 13.4367 5.03505 13.3995 5.07948 13.3724C5.12391 13.3452 5.17405 13.3288 5.22594 13.3243C5.27783 13.3198 5.33004 13.3275 5.37845 13.3467C5.42686 13.3659 5.47015 13.3961 5.50489 13.4349L8.13466 12.1528L8.21646 12.3204L5.58688 13.6024C5.60242 13.684 5.58656 13.7685 5.54246 13.8389C5.49836 13.9093 5.42929 13.9604 5.34909 13.982V17.0441C5.28633 17.0026 5.22415 16.9603 5.16255 16.9172Z" fill="url(#paint1_linear_5489_43521)"/>
<path d="M14.8233 10.7766C14.7435 10.5744 14.608 10.3991 14.4325 10.2709C14.257 10.1428 14.0487 10.0671 13.8318 10.0528L13.714 9.95537C13.6584 9.16737 13.1068 8.82996 12.5058 9.10996C11.9827 9.28839 12.0439 9.20312 11.7432 9.02309C11.5068 8.93086 11.2437 8.9344 11.0098 9.03297C10.7563 9.15663 10.5131 9.30035 10.2825 9.46276C10.1614 9.53076 9.94517 9.77543 9.82185 9.73964C9.75722 9.72088 9.72479 9.50512 9.72154 9.37721C9.71205 9.00492 9.7173 8.63181 9.72985 8.25948C9.60161 6.94222 9.58718 5.61636 9.68674 4.29662C9.7122 4.14002 9.68262 3.97944 9.60305 3.84218C9.52347 3.70493 9.3988 3.59947 9.25025 3.54376C9.12621 3.47679 8.98206 3.4572 8.84465 3.48863C8.70724 3.52005 8.58593 3.60036 8.50333 3.71458C8.29334 4.00309 8.19882 4.3597 8.23833 4.71434C8.17468 6.0948 8.11445 7.47553 8.03287 8.85495C8.01444 9.16655 8.0585 9.56595 7.67298 9.69651C7.30775 9.82018 7.05562 9.53427 6.84321 9.29396C6.29821 8.67735 5.77556 8.0409 5.24579 7.41085C5.08596 7.22076 4.94766 7.00985 4.77179 6.83663C4.67587 6.72138 4.54025 6.64627 4.39167 6.62609C4.24309 6.60591 4.09234 6.64214 3.96916 6.72763C3.85177 6.82193 3.77662 6.95897 3.76022 7.10865C3.74382 7.25833 3.78751 7.4084 3.8817 7.52588C4.07924 7.84192 4.29598 8.14553 4.5307 8.43502C5.31296 9.35479 5.88045 10.4373 6.19191 11.6039C6.36175 12.2775 6.26217 13.6949 6.45955 14.4993C6.80512 15.946 7.54326 17.2693 8.59268 18.3235C9.72162 18.5132 10.8773 18.4726 11.9901 18.2042L11.9979 18.1945C12.3911 17.602 12.837 17.0463 13.33 16.5339C14.086 15.8269 14.7615 15.0385 15.344 14.1829C15.4847 13.6151 15.4567 13.0186 15.2634 12.4664C15.0598 11.9835 14.9754 11.2146 14.8233 10.7766Z" fill="url(#paint2_radial_5489_43521)"/>
<path d="M14.8233 10.7766C14.7435 10.5744 14.608 10.3991 14.4325 10.2709C14.257 10.1428 14.0487 10.0671 13.8318 10.0528L13.714 9.95537C13.6584 9.16737 13.1068 8.82996 12.5058 9.10996C11.9827 9.28839 12.0439 9.20312 11.7432 9.02309C11.5068 8.93086 11.2437 8.9344 11.0098 9.03297C10.7563 9.15663 10.5131 9.30035 10.2825 9.46276C10.1614 9.53076 9.94517 9.77543 9.82185 9.73964C9.75722 9.72088 9.72479 9.50512 9.72154 9.37721C9.71205 9.00492 9.7173 8.63181 9.72985 8.25948C9.60161 6.94222 9.58718 5.61636 9.68674 4.29662C9.7122 4.14002 9.68262 3.97944 9.60305 3.84218C9.52347 3.70493 9.3988 3.59947 9.25025 3.54376C9.12621 3.47679 8.98206 3.4572 8.84465 3.48863C8.70724 3.52005 8.58593 3.60036 8.50333 3.71458C8.29334 4.00309 8.19882 4.3597 8.23833 4.71434C8.17468 6.0948 8.11445 7.47553 8.03287 8.85495C8.01444 9.16655 8.0585 9.56595 7.67298 9.69651C7.30775 9.82018 7.05562 9.53427 6.84321 9.29396C6.29821 8.67735 5.77556 8.0409 5.24579 7.41085C5.08596 7.22076 4.94766 7.00985 4.77179 6.83663C4.67587 6.72138 4.54025 6.64627 4.39167 6.62609C4.24309 6.60591 4.09234 6.64214 3.96916 6.72763C3.85177 6.82193 3.77662 6.95897 3.76022 7.10865C3.74382 7.25833 3.78751 7.4084 3.8817 7.52588C4.07924 7.84192 4.29598 8.14553 4.5307 8.43502C5.31296 9.35479 5.88045 10.4373 6.19191 11.6039C6.36175 12.2775 6.26217 13.6949 6.45955 14.4993C6.80512 15.946 7.54326 17.2693 8.59268 18.3235C9.72162 18.5132 10.8773 18.4726 11.9901 18.2042L11.9979 18.1945C12.3911 17.602 12.837 17.0463 13.33 16.5339C14.086 15.8269 14.7615 15.0385 15.344 14.1829C15.4847 13.6151 15.4567 13.0186 15.2634 12.4664C15.0598 11.9835 14.9754 11.2146 14.8233 10.7766Z" fill="url(#paint3_radial_5489_43521)"/>
<path d="M9.7185 9.16955C9.71503 8.86625 9.71992 8.56262 9.73014 8.25948C9.60189 6.94222 9.58747 5.61636 9.68703 4.29662C9.71249 4.14002 9.68291 3.97944 9.60333 3.84218C9.52376 3.70493 9.39909 3.59947 9.25054 3.54376C9.1265 3.47679 8.98235 3.4572 8.84494 3.48863C8.70752 3.52005 8.58622 3.60036 8.50362 3.71458C8.29363 4.00309 8.19911 4.3597 8.23862 4.71434C8.17497 6.0948 8.11474 7.47553 8.03316 8.85495C8.03592 9.03088 8.01824 9.20653 7.98047 9.37838C8.58276 9.38806 9.24483 9.53906 9.7185 9.16955Z" fill="url(#paint4_linear_5489_43521)"/>
<path d="M7.18637 9.62177C7.05864 9.52737 6.94335 9.41722 6.84321 9.29393C6.29821 8.67732 5.77556 8.04087 5.24579 7.41082C5.08596 7.22073 4.94766 7.00982 4.77179 6.8366C4.67587 6.72136 4.54025 6.64624 4.39167 6.62606C4.24309 6.60588 4.09234 6.64211 3.96916 6.7276C3.85177 6.8219 3.77662 6.95895 3.76022 7.10863C3.74382 7.25831 3.78751 7.40837 3.8817 7.52585C4.07924 7.84189 4.29598 8.14551 4.5307 8.43499C5.29616 9.33687 5.85656 10.3943 6.17313 11.534C6.42196 11.2991 6.69203 11.0878 6.97985 10.9027C7.10142 10.8545 7.20838 10.7755 7.29026 10.6735C7.37213 10.5715 7.42612 10.45 7.44694 10.3209C7.46776 10.1918 7.45469 10.0595 7.40901 9.93692C7.36334 9.81437 7.28662 9.70577 7.18637 9.62177Z" fill="url(#paint5_linear_5489_43521)"/>
<path d="M15.2641 12.4665C15.0605 11.9835 14.9761 11.2146 14.824 10.7767C14.7442 10.5745 14.6087 10.3991 14.4332 10.271C14.2577 10.1428 14.0494 10.0672 13.8325 10.0528L13.7146 9.9554C13.6591 9.1674 13.1075 8.82999 12.5065 9.10999C11.9833 9.28842 12.0446 9.20315 11.7439 9.02312C11.5075 8.93089 11.2444 8.93443 11.0105 9.033C10.757 9.15666 10.5138 9.30038 10.2832 9.46279C10.1621 9.53079 9.88799 9.85015 9.82255 9.73967C9.47443 9.15194 6.87762 10.8793 6.17383 11.5341C6.17996 11.5575 6.18666 11.5804 6.19259 11.6039C6.36243 12.2775 6.26285 13.6949 6.46023 14.4993C6.8058 15.946 7.54395 17.2694 8.59338 18.3235C9.72232 18.5132 10.878 18.4726 11.9908 18.2042L11.9986 18.1945C12.3918 17.6021 12.8376 17.0463 13.3307 16.534C14.0867 15.827 14.7622 15.0385 15.3447 14.183C15.4854 13.6151 15.4573 13.0186 15.2641 12.4665Z" fill="url(#paint6_radial_5489_43521)"/>
<path d="M15.2641 12.4665C15.0605 11.9835 14.9761 11.2146 14.824 10.7767C14.7442 10.5745 14.6087 10.3991 14.4332 10.271C14.2577 10.1428 14.0494 10.0672 13.8325 10.0528L13.7146 9.9554C13.6591 9.1674 13.1075 8.82999 12.5065 9.10999C11.9833 9.28842 12.0446 9.20315 11.7439 9.02312C11.5075 8.93089 11.2444 8.93443 11.0105 9.033C10.757 9.15666 10.5138 9.30038 10.2832 9.46279C10.1621 9.53079 9.88799 9.85015 9.82255 9.73967C9.47443 9.15194 6.87762 10.8793 6.17383 11.5341C6.17996 11.5575 6.18666 11.5804 6.19259 11.6039C6.36243 12.2775 6.26285 13.6949 6.46023 14.4993C6.8058 15.946 7.54395 17.2694 8.59338 18.3235C9.72232 18.5132 10.878 18.4726 11.9908 18.2042L11.9986 18.1945C12.3918 17.6021 12.8376 17.0463 13.3307 16.534C14.0867 15.827 14.7622 15.0385 15.3447 14.183C15.4854 13.6151 15.4573 13.0186 15.2641 12.4665Z" fill="url(#paint7_radial_5489_43521)"/>
<path d="M15.2641 12.4665C15.0605 11.9835 14.9761 11.2146 14.824 10.7767C14.7442 10.5745 14.6087 10.3991 14.4332 10.271C14.2577 10.1428 14.0494 10.0672 13.8325 10.0528L13.7146 9.9554C13.6591 9.1674 13.1075 8.82999 12.5065 9.10999C11.9833 9.28842 12.0446 9.20315 11.7439 9.02312C11.5075 8.93089 11.2444 8.93443 11.0105 9.033C10.757 9.15666 10.5138 9.30038 10.2832 9.46279C10.1621 9.53079 9.88799 9.85015 9.82255 9.73967C9.47443 9.15194 6.87762 10.8793 6.17383 11.5341C6.17996 11.5575 6.18666 11.5804 6.19259 11.6039C6.36243 12.2775 6.26285 13.6949 6.46023 14.4993C6.8058 15.946 7.54395 17.2694 8.59338 18.3235C9.72232 18.5132 10.878 18.4726 11.9908 18.2042L11.9986 18.1945C12.3918 17.6021 12.8376 17.0463 13.3307 16.534C14.0867 15.827 14.7622 15.0385 15.3447 14.183C15.4854 13.6151 15.4573 13.0186 15.2641 12.4665Z" fill="url(#paint8_radial_5489_43521)"/>
<path d="M15.2641 12.4665C15.0605 11.9835 14.9761 11.2146 14.824 10.7767C14.7442 10.5745 14.6087 10.3991 14.4332 10.271C14.2577 10.1428 14.0494 10.0672 13.8325 10.0528L13.7146 9.9554C13.6591 9.1674 13.1075 8.82999 12.5065 9.10999C11.9833 9.28842 12.0446 9.20315 11.7439 9.02312C11.5075 8.93089 11.2444 8.93443 11.0105 9.033C10.757 9.15666 10.5138 9.30038 10.2832 9.46279C10.1621 9.53079 9.88799 9.85015 9.82255 9.73967C9.47443 9.15194 6.87762 10.8793 6.17383 11.5341C6.17996 11.5575 6.18666 11.5804 6.19259 11.6039C6.36243 12.2775 6.26285 13.6949 6.46023 14.4993C6.8058 15.946 7.54395 17.2694 8.59338 18.3235C9.72232 18.5132 10.878 18.4726 11.9908 18.2042L11.9986 18.1945C12.3918 17.6021 12.8376 17.0463 13.3307 16.534C14.0867 15.827 14.7622 15.0385 15.3447 14.183C15.4854 13.6151 15.4573 13.0186 15.2641 12.4665Z" fill="url(#paint9_radial_5489_43521)"/>
<path d="M14.8233 10.7766C14.7435 10.5744 14.608 10.3991 14.4325 10.2709C14.257 10.1428 14.0487 10.0671 13.8318 10.0528L13.714 9.95537C13.6584 9.16737 13.1068 8.82996 12.5058 9.10996C11.9827 9.28839 12.0439 9.20312 11.7432 9.02309C11.5068 8.93086 11.2437 8.9344 11.0098 9.03297C10.7563 9.15663 10.5131 9.30035 10.2825 9.46276C10.1614 9.53076 9.94517 9.77543 9.82185 9.73964C9.75722 9.72088 9.72479 9.50512 9.72154 9.37721C9.71205 9.00492 9.7173 8.63181 9.72985 8.25948C9.60161 6.94222 9.58718 5.61636 9.68674 4.29662C9.7122 4.14002 9.68262 3.97944 9.60305 3.84218C9.52347 3.70493 9.3988 3.59947 9.25025 3.54376C9.12621 3.47679 8.98206 3.4572 8.84465 3.48863C8.70724 3.52005 8.58593 3.60036 8.50333 3.71458C8.29334 4.00309 8.19882 4.3597 8.23833 4.71434C8.17468 6.0948 8.11445 7.47553 8.03287 8.85495C8.01444 9.16655 8.0585 9.56595 7.67298 9.69651C7.30775 9.82018 7.05562 9.53427 6.84321 9.29396C6.29821 8.67735 5.77556 8.0409 5.24579 7.41085C5.08596 7.22076 4.94766 7.00985 4.77179 6.83663C4.67587 6.72138 4.54025 6.64627 4.39167 6.62609C4.24309 6.60591 4.09234 6.64214 3.96916 6.72763C3.85177 6.82193 3.77662 6.95897 3.76022 7.10865C3.74382 7.25833 3.78751 7.4084 3.8817 7.52588C4.07924 7.84192 4.29598 8.14553 4.5307 8.43502C5.31296 9.35479 5.88045 10.4373 6.19191 11.6039C6.36175 12.2775 6.26217 13.6949 6.45955 14.4993C6.80512 15.946 7.54326 17.2693 8.59268 18.3235C9.72162 18.5132 10.8773 18.4726 11.9901 18.2042L11.9979 18.1945C12.3911 17.602 12.837 17.0463 13.33 16.5339C14.086 15.8269 14.7615 15.0385 15.344 14.1829C15.4847 13.6151 15.4567 13.0186 15.2634 12.4664C15.0598 11.9835 14.9754 11.2146 14.8233 10.7766Z" fill="url(#paint10_radial_5489_43521)"/>
<path d="M14.8233 10.7766C14.7435 10.5744 14.608 10.3991 14.4325 10.2709C14.257 10.1428 14.0487 10.0671 13.8318 10.0528L13.714 9.95537C13.6584 9.16737 13.1068 8.82996 12.5058 9.10996C11.9827 9.28839 12.0439 9.20312 11.7432 9.02309C11.5068 8.93086 11.2437 8.9344 11.0098 9.03297C10.7563 9.15663 10.5131 9.30035 10.2825 9.46276C10.1614 9.53076 9.94517 9.77543 9.82185 9.73964C9.75722 9.72088 9.72479 9.50512 9.72154 9.37721C9.71205 9.00492 9.7173 8.63181 9.72985 8.25948C9.60161 6.94222 9.58718 5.61636 9.68674 4.29662C9.7122 4.14002 9.68262 3.97944 9.60305 3.84218C9.52347 3.70493 9.3988 3.59947 9.25025 3.54376C9.12621 3.47679 8.98206 3.4572 8.84465 3.48863C8.70724 3.52005 8.58593 3.60036 8.50333 3.71458C8.29334 4.00309 8.19882 4.3597 8.23833 4.71434C8.17468 6.0948 8.11445 7.47553 8.03287 8.85495C8.01444 9.16655 8.0585 9.56595 7.67298 9.69651C7.30775 9.82018 7.05562 9.53427 6.84321 9.29396C6.29821 8.67735 5.77556 8.0409 5.24579 7.41085C5.08596 7.22076 4.94766 7.00985 4.77179 6.83663C4.67587 6.72138 4.54025 6.64627 4.39167 6.62609C4.24309 6.60591 4.09234 6.64214 3.96916 6.72763C3.85177 6.82193 3.77662 6.95897 3.76022 7.10865C3.74382 7.25833 3.78751 7.4084 3.8817 7.52588C4.07924 7.84192 4.29598 8.14553 4.5307 8.43502C5.31296 9.35479 5.88045 10.4373 6.19191 11.6039C6.36175 12.2775 6.26217 13.6949 6.45955 14.4993C6.80512 15.946 7.54326 17.2693 8.59268 18.3235C9.72162 18.5132 10.8773 18.4726 11.9901 18.2042L11.9979 18.1945C12.3911 17.602 12.837 17.0463 13.33 16.5339C14.086 15.8269 14.7615 15.0385 15.344 14.1829C15.4847 13.6151 15.4567 13.0186 15.2634 12.4664C15.0598 11.9835 14.9754 11.2146 14.8233 10.7766Z" fill="url(#paint11_radial_5489_43521)"/>
<path d="M13.536 9.95559C13.0908 9.88959 12.6545 9.77352 12.2354 9.60959C12.1228 9.55877 11.9987 9.53902 11.876 9.55242C11.7532 9.56581 11.6363 9.61184 11.5374 9.68574C11.3984 9.80235 11.2924 9.95325 11.2297 10.1235C11.1671 10.2937 11.15 10.4774 11.1802 10.6562C11.2213 10.8898 11.319 11.1098 11.4648 11.2968C11.6106 11.4839 11.8001 11.6323 12.0166 11.7291C11.9407 12.1637 11.9955 12.611 12.1739 13.0144C12.1229 13.1797 11.8458 13.9741 11.2415 13.9792C11.1673 13.9837 11.093 13.9729 11.0232 13.9476C10.9533 13.9223 10.8894 13.883 10.8353 13.8321C10.7179 13.7013 10.6531 13.5315 10.6537 13.3557V9.86423C10.653 9.84613 10.6453 9.82901 10.6323 9.81645C10.6192 9.80389 10.6018 9.79687 10.5837 9.79687C10.5656 9.79687 10.5482 9.80389 10.5352 9.81645C10.5221 9.82901 10.5145 9.84613 10.5138 9.86423V10.6057L10.0265 10.264C10.0164 10.2569 10.0039 10.2541 9.9917 10.2562C9.97952 10.2584 9.96869 10.2653 9.96158 10.2754C9.95448 10.2855 9.95169 10.298 9.95383 10.3102C9.95596 10.3224 9.96285 10.3332 9.97297 10.3403L10.5138 10.7196V13.3557C10.5122 13.569 10.592 13.7748 10.7368 13.9314C10.8028 13.9946 10.8809 14.0438 10.9664 14.076C11.0519 14.1083 11.143 14.1229 11.2343 14.1191H11.2427C11.8713 14.1137 12.1784 13.4288 12.2794 13.1424C12.349 13.2089 12.4345 13.2564 12.5278 13.2804C12.5958 13.2986 12.666 13.3079 12.7364 13.3083C12.8721 13.3084 13.0049 13.2696 13.1193 13.1967C13.1779 13.1597 13.2322 13.1161 13.2811 13.0669L13.7136 13.598C13.7175 13.6029 13.7222 13.6069 13.7276 13.6099C13.733 13.6128 13.739 13.6147 13.7451 13.6154C13.7512 13.6161 13.7574 13.6155 13.7634 13.6138C13.7693 13.612 13.7748 13.6091 13.7796 13.6052C13.7844 13.6013 13.7883 13.5965 13.7912 13.5911C13.7942 13.5856 13.796 13.5797 13.7966 13.5735C13.7972 13.5674 13.7965 13.5612 13.7947 13.5553C13.7929 13.5494 13.7899 13.5439 13.7859 13.5392L13.3447 12.9973C13.5352 12.7499 13.6705 12.4645 13.7416 12.1603L13.7478 12.1604C13.7574 12.1608 13.7669 12.1593 13.7758 12.156C13.7848 12.1526 13.7929 12.1476 13.7999 12.1411C13.8069 12.1346 13.8125 12.1267 13.8164 12.118C13.8204 12.1094 13.8225 12.1 13.8228 12.0904C13.8228 12.0719 13.8154 12.0541 13.8023 12.041C13.7892 12.0279 13.7714 12.0206 13.7528 12.0206H13.7477C12.8252 12.0206 11.4189 11.5833 11.3193 10.6415C11.292 10.4869 11.3054 10.3279 11.3582 10.18C11.411 10.0322 11.5014 9.90066 11.6204 9.79835C11.6995 9.73846 11.7934 9.70122 11.892 9.69063C11.9907 9.68004 12.0903 9.69649 12.1803 9.73823C12.6089 9.90654 13.0553 10.0256 13.5108 10.0932C14.1592 10.2121 14.6277 10.298 14.6707 10.719C14.6715 10.7281 14.6742 10.7371 14.6785 10.7452C14.6828 10.7533 14.6887 10.7605 14.6959 10.7663C14.703 10.7721 14.7113 10.7765 14.7201 10.7791C14.7289 10.7817 14.7382 10.7825 14.7474 10.7814C14.7565 10.7805 14.7654 10.7778 14.7734 10.7734C14.7815 10.7691 14.7887 10.7632 14.7945 10.756C14.8003 10.7489 14.8046 10.7407 14.8073 10.7319C14.8099 10.7231 14.8108 10.7139 14.8098 10.7048C14.7562 10.1792 14.2178 10.0805 13.536 9.95559ZM13.0449 13.0782C12.9738 13.1226 12.8941 13.1515 12.8111 13.1631C12.728 13.1746 12.6435 13.1684 12.563 13.145C12.0485 13.0111 12.1186 12.0652 12.1492 11.798C12.6043 12.0102 13.0963 12.132 13.5978 12.1565C13.5213 12.5168 13.3268 12.8412 13.0449 13.0782Z" fill="url(#paint12_radial_5489_43521)"/>
</g>
<defs>
<linearGradient id="paint0_linear_5489_43521" x1="11.4663" y1="18.3141" x2="8.53439" y2="1.68617" gradientUnits="userSpaceOnUse">
<stop stop-color="#275BB9"/>
<stop offset="0.50145" stop-color="#4DB5EB"/>
<stop offset="0.55032" stop-color="#5DBBEC"/>
<stop offset="0.64825" stop-color="#76C5EF"/>
<stop offset="0.74966" stop-color="#89CCF1"/>
<stop offset="0.85582" stop-color="#93D0F2"/>
<stop offset="0.9743" stop-color="#97D1F2"/>
</linearGradient>
<linearGradient id="paint1_linear_5489_43521" x1="11.5708" y1="18.6009" x2="8.57382" y2="1.60434" gradientUnits="userSpaceOnUse">
<stop stop-color="#07139C"/>
<stop offset="0.32927" stop-color="#002DC4"/>
<stop offset="0.34962" stop-color="#0033C6"/>
<stop offset="0.57489" stop-color="#0073DE"/>
<stop offset="0.76514" stop-color="#00A1F0"/>
<stop offset="0.91087" stop-color="#00BDFB"/>
<stop offset="0.99466" stop-color="#00C8FF"/>
</linearGradient>
<radialGradient id="paint2_radial_5489_43521" cx="0" cy="0" r="1" gradientUnits="userSpaceOnUse" gradientTransform="translate(9.94165 10.4206) scale(6.71305 8.71945)">
<stop stop-color="white"/>
<stop offset="0.41738" stop-color="#FCFEFF"/>
<stop offset="0.75207" stop-color="#F2FAFE"/>
<stop offset="0.94737" stop-color="#E8F6FD"/>
</radialGradient>
<radialGradient id="paint3_radial_5489_43521" cx="0" cy="0" r="1" gradientUnits="userSpaceOnUse" gradientTransform="translate(12.4721 11.8805) scale(6.71305 8.71945)">
<stop stop-color="#DAE2ED"/>
<stop offset="0.7299" stop-color="#E8F6FD" stop-opacity="0"/>
</radialGradient>
<linearGradient id="paint4_linear_5489_43521" x1="7.87098" y1="6.44404" x2="9.62441" y2="6.44404" gradientUnits="userSpaceOnUse">
<stop offset="0.48317" stop-color="#FAFDFE" stop-opacity="0"/>
<stop offset="0.77589" stop-color="#E9F6FD"/>
</linearGradient>
<linearGradient id="paint5_linear_5489_43521" x1="4.29642" y1="9.6974" x2="7.06563" y2="7.67199" gradientUnits="userSpaceOnUse">
<stop offset="0.30216" stop-color="#C4D8E6"/>
<stop offset="0.32265" stop-color="#C6D9E7" stop-opacity="0.97074"/>
<stop offset="0.35191" stop-color="#CADCE9" stop-opacity="0.88897"/>
<stop offset="0.38646" stop-color="#D1E1EC" stop-opacity="0.75472"/>
<stop offset="0.42502" stop-color="#DBE8F0" stop-opacity="0.56783"/>
<stop offset="0.46693" stop-color="#E8F1F6" stop-opacity="0.32817"/>
<stop offset="0.51101" stop-color="#F8FCFD" stop-opacity="0.04047"/>
<stop offset="0.51683" stop-color="#FAFDFE" stop-opacity="0"/>
</linearGradient>
<radialGradient id="paint6_radial_5489_43521" cx="0" cy="0" r="1" gradientUnits="userSpaceOnUse" gradientTransform="translate(11.5866 12.1775) rotate(77.4962) scale(7.73433 5.81591)">
<stop offset="0.48317" stop-color="white" stop-opacity="0"/>
<stop offset="0.64146" stop-color="#E7F1F7" stop-opacity="0"/>
<stop offset="0.67325" stop-color="#E2EDF5" stop-opacity="0.14519"/>
<stop offset="0.74361" stop-color="#D5E4EE" stop-opacity="0.51545"/>
<stop offset="0.82955" stop-color="#C4D8E6"/>
</radialGradient>
<radialGradient id="paint7_radial_5489_43521" cx="0" cy="0" r="1" gradientUnits="userSpaceOnUse" gradientTransform="translate(11.6959 11.4474) rotate(77.4964) scale(9.65908 7.51143)">
<stop offset="0.48317" stop-color="white" stop-opacity="0"/>
<stop offset="0.64146" stop-color="#E7F1F7" stop-opacity="0"/>
<stop offset="0.66521" stop-color="#C9D6E1" stop-opacity="0.14522"/>
<stop offset="0.74867" stop-color="#69809B" stop-opacity="0.60731"/>
<stop offset="0.81344" stop-color="#2D4B70" stop-opacity="0.89347"/>
<stop offset="0.85122" stop-color="#173760"/>
<stop offset="0.8532" stop-color="#173760"/>
<stop offset="1" stop-color="#1A2C42"/>
</radialGradient>
<radialGradient id="paint8_radial_5489_43521" cx="0" cy="0" r="1" gradientUnits="userSpaceOnUse" gradientTransform="translate(13.1924 17.5059) rotate(125.678) scale(14.974 4.08926)">
<stop offset="0.19108" stop-color="#1A2C42"/>
<stop offset="0.22714" stop-color="#3F4E61" stop-opacity="0.83727"/>
<stop offset="0.34489" stop-color="#A8AFB7" stop-opacity="0.38006"/>
<stop offset="0.44559" stop-color="#E8EAEC" stop-opacity="0.10011"/>
<stop offset="0.51683" stop-color="white" stop-opacity="0"/>
</radialGradient>
<radialGradient id="paint9_radial_5489_43521" cx="0" cy="0" r="1" gradientUnits="userSpaceOnUse" gradientTransform="translate(12.3043 10.9609) rotate(81.2954) scale(10.3977 7.66138)">
<stop offset="0.75834" stop-color="#8DADD4" stop-opacity="0"/>
<stop offset="0.82029" stop-color="#91C3FF" stop-opacity="0.5"/>
<stop offset="0.83456" stop-color="#73A1D7" stop-opacity="0.38178"/>
<stop offset="0.85726" stop-color="#4A71A0" stop-opacity="0.21754"/>
<stop offset="0.87783" stop-color="#2C4F78" stop-opacity="0.09847"/>
<stop offset="0.89534" stop-color="#1A3A60" stop-opacity="0.02593"/>
<stop offset="0.90772" stop-color="#133257" stop-opacity="0"/>
</radialGradient>
<radialGradient id="paint10_radial_5489_43521" cx="0" cy="0" r="1" gradientUnits="userSpaceOnUse" gradientTransform="translate(8.31755 10.3112) rotate(-28.6206) scale(2.5939 1.30463)">
<stop offset="0.22848" stop-color="white"/>
<stop offset="0.32465" stop-color="white" stop-opacity="0.98748"/>
<stop offset="0.40193" stop-color="#FEFFFF" stop-opacity="0.94814"/>
<stop offset="0.47264" stop-color="#FCFEFF" stop-opacity="0.8818"/>
<stop offset="0.53945" stop-color="#FAFDFF" stop-opacity="0.78829"/>
<stop offset="0.60353" stop-color="#F7FCFE" stop-opacity="0.66751"/>
<stop offset="0.66556" stop-color="#F4FBFE" stop-opacity="0.51923"/>
<stop offset="0.72598" stop-color="#F0F9FE" stop-opacity="0.34321"/>
<stop offset="0.78359" stop-color="#EBF7FD" stop-opacity="0.14479"/>
<stop offset="0.82082" stop-color="#E8F6FD" stop-opacity="0"/>
</radialGradient>
<radialGradient id="paint11_radial_5489_43521" cx="0" cy="0" r="1" gradientUnits="userSpaceOnUse" gradientTransform="translate(9.99031 6.17492) rotate(-11.3723) scale(9.92841 12.9498)">
<stop offset="0.19036" stop-color="#E8F6FD" stop-opacity="0"/>
<stop offset="0.33935" stop-color="#E1F1FA" stop-opacity="0.02477"/>
<stop offset="0.48388" stop-color="#CBE1F1" stop-opacity="0.09966"/>
<stop offset="0.62667" stop-color="#A7C7E2" stop-opacity="0.22485"/>
<stop offset="0.76836" stop-color="#74A2CC" stop-opacity="0.40053"/>
<stop offset="0.90797" stop-color="#3374B1" stop-opacity="0.62447"/>
<stop offset="1" stop-color="#004F9C" stop-opacity="0.8"/>
</radialGradient>
<radialGradient id="paint12_radial_5489_43521" cx="0" cy="0" r="1" gradientUnits="userSpaceOnUse" gradientTransform="translate(12.2479 10.5808) rotate(25.1651) scale(3.37119 6.83391)">
<stop offset="0.09458" stop-color="#000009"/>
<stop offset="0.23059" stop-color="#03030C"/>
<stop offset="0.33985" stop-color="#0C0D16"/>
<stop offset="0.43985" stop-color="#1C1E27"/>
<stop offset="0.53434" stop-color="#33363F"/>
<stop offset="0.62492" stop-color="#50545E"/>
<stop offset="0.71259" stop-color="#747A83"/>
<stop offset="0.79639" stop-color="#9DA5AF"/>
<stop offset="0.81631" stop-color="#A8B1BB"/>
</radialGradient>
<clipPath id="clip0_5489_43521">
<rect width="20" height="20" fill="white"/>
</clipPath>
</defs>
</svg>
