<svg width="20" height="20" viewBox="0 0 20 20" fill="none" xmlns="http://www.w3.org/2000/svg">
<circle cx="10" cy="10" r="10" fill="#650BE8"/>
<path d="M9.07394 4.32567C9.47659 4.44524 9.60389 4.61592 10.219 5.86104C11.1409 7.72717 11.6266 8.39534 12.3005 8.7249C12.5508 8.84732 12.6366 8.86374 13.0195 8.86224C13.7535 8.85939 14.2502 8.59437 15.0865 7.7592C15.3556 7.49046 15.5428 7.3249 15.5024 7.39133C15.4621 7.45775 14.4195 9.27046 13.1857 11.4196C11.9518 13.5687 10.8846 15.3894 10.8142 15.4655C10.7092 15.5789 10.6463 15.6039 10.4655 15.6039C10.2799 15.6039 10.2199 15.5785 10.0864 15.4436C9.93858 15.2943 4.7723 5.95331 4.58022 5.48809C4.45645 5.18833 4.46544 4.68577 4.59756 4.51775C4.80022 4.26012 4.84341 4.25514 6.91172 4.25311C8.49684 4.25157 8.86606 4.26394 9.07394 4.32567Z" fill="white"/>
</svg>
