<svg width="20" height="20" viewBox="0 0 20 20" fill="none" xmlns="http://www.w3.org/2000/svg">
<path fill-rule="evenodd" clip-rule="evenodd" d="M15.062 6.90918L15.0619 6.90979L16.1226 6.9155C16.2433 6.90654 16.365 6.90707 16.4866 6.91736L19.0774 6.93125C19.4714 6.954 19.7838 7.28336 19.7838 7.68643C19.7838 7.87693 19.714 8.05097 19.5989 8.18382L18.3382 10.3857C18.3282 10.4043 18.318 10.4228 18.3075 10.4412L15.1881 15.9041C14.7655 16.6441 14.0056 17.0644 13.2182 17.0812L13.2183 17.0817L13.1816 17.0817C13.1613 17.0818 13.141 17.0816 13.1207 17.0812L3.88999 17.0336H2.86133L2.86138 17.0151C3.64285 16.9056 4.30035 16.404 4.63328 15.713L4.64071 15.7132L9.16303 7.76097C9.41689 7.25554 9.93592 6.90918 10.535 6.90918L10.4932 6.91007L10.4946 6.90918H15.062Z" fill="#2BBDF7"/>
<path fill-rule="evenodd" clip-rule="evenodd" d="M7.83607 3.00705L15.9838 3.00718C16.3777 3.02997 16.69 3.3593 16.69 3.76237C16.69 3.92394 16.6398 4.07366 16.5544 4.19646L14.3555 8.05621L12.0179 12.1583L12.0192 12.1579H12.0383L11.2907 13.4681C10.6606 14.5716 11.0145 15.9766 12.0771 16.6443L12.1431 16.6842C12.4424 16.859 12.7642 16.9589 13.0872 16.9897L13.0873 17.0448L9.23521 17.0447L9.23364 17.0481H2.55348C2.17418 17.0412 1.78903 16.9441 1.4327 16.7443C0.286674 16.1021 -0.127387 14.642 0.507863 13.4833L5.57736 4.23629C6.04196 3.38881 6.93921 2.93722 7.83607 3.00705Z" fill="#2B6DEF"/>
<path fill-rule="evenodd" clip-rule="evenodd" d="M10.5079 6.90914L14.9946 6.91378L14.3455 8.05332L12.008 12.1554L12.0094 12.155H12.0284L11.2809 13.4651C10.6507 14.5687 11.0046 15.9737 12.0672 16.6414L12.1332 16.6813C12.4325 16.8561 12.7543 16.956 13.0773 16.9868L13.0774 17.0419L9.22529 17.0418L9.22375 17.0452L2.84375 17.0454C3.55107 16.9712 4.21507 16.5775 4.61521 15.9265L4.66021 15.8503L9.37896 7.51046C9.64661 7.16071 10.0584 6.92949 10.5244 6.90796L10.5079 6.90914Z" fill="white"/>
<path fill-rule="evenodd" clip-rule="evenodd" d="M10.5079 6.90914L14.9946 6.91378L14.3455 8.05332L12.008 12.1554L12.0094 12.155H12.0284L11.2809 13.4651C10.6507 14.5687 11.0046 15.9737 12.0672 16.6414L12.1332 16.6813C12.4325 16.8561 12.7543 16.956 13.0773 16.9868L13.0774 17.0419L9.22529 17.0418L9.22375 17.0452L2.84375 17.0454C3.55107 16.9712 4.21507 16.5775 4.61521 15.9265L4.66021 15.8503L9.37896 7.51046C9.64661 7.16071 10.0584 6.92949 10.5244 6.90796L10.5079 6.90914Z" fill="#0CC19B" fill-opacity="0.5"/>
<path fill-rule="evenodd" clip-rule="evenodd" d="M10.5079 6.90914L14.9946 6.91378L14.3455 8.05332L12.008 12.1554L12.0094 12.155H12.0284L11.2809 13.4651C10.6507 14.5687 11.0046 15.9737 12.0672 16.6414L12.1332 16.6813C12.4325 16.8561 12.7543 16.956 13.0773 16.9868L13.0774 17.0419L9.22529 17.0418L9.22375 17.0452L2.84375 17.0454C3.55107 16.9712 4.21507 16.5775 4.61521 15.9265L4.66021 15.8503L9.37896 7.51046C9.64661 7.16071 10.0584 6.92949 10.5244 6.90796L10.5079 6.90914Z" fill="#003CB2"/>
</svg>
