<svg width="20" height="20" viewBox="0 0 20 20" fill="none" xmlns="http://www.w3.org/2000/svg">
<path d="M10 20C15.5228 20 20 15.5228 20 10C20 4.47715 15.5228 0 10 0C4.47715 0 0 4.47715 0 10C0 15.5228 4.47715 20 10 20Z" fill="#FF4A4A"/>
<path d="M1.43562 12.1963H6.10191C6.13066 12.1963 6.15925 12.1927 6.18696 12.1855C6.19007 12.1847 6.19318 12.1839 6.19629 12.183L6.20314 12.1809C6.21285 12.1779 6.22244 12.1745 6.23186 12.1706C6.27309 12.1535 6.31053 12.1286 6.34211 12.0971C6.37369 12.0656 6.39873 12.0282 6.41583 11.987C6.43294 11.9458 6.44179 11.9017 6.44182 11.8571V8.02404C6.44179 7.9906 6.43519 7.9575 6.42234 7.92661C6.40952 7.89573 6.39073 7.86768 6.36705 7.84406C6.34338 7.82043 6.31529 7.80171 6.28438 7.78894C6.25347 7.77618 6.22037 7.76962 6.18693 7.76965H5.43728C5.42131 7.76961 5.40544 7.77107 5.38983 7.774C5.37269 7.77721 5.35591 7.78217 5.33972 7.78883C5.30878 7.80157 5.28063 7.8203 5.25696 7.84392C5.25454 7.84632 5.2522 7.84876 5.24991 7.85125C5.23963 7.86236 5.23036 7.87436 5.22221 7.88708C5.21421 7.89958 5.20732 7.91277 5.20161 7.92653C5.18876 7.95744 5.18212 7.99057 5.18212 8.02404V10.9397H2.35515V8.02404C2.35512 7.9906 2.34848 7.9575 2.33566 7.92661C2.32284 7.89573 2.30405 7.86768 2.28038 7.84406C2.27038 7.83407 2.25959 7.82496 2.24814 7.8168C2.23246 7.80567 2.21554 7.79631 2.19771 7.78894C2.19419 7.78749 2.19066 7.78612 2.18711 7.78482C2.18359 7.78355 2.18003 7.78236 2.17648 7.78125C2.16451 7.77751 2.15233 7.77467 2.13998 7.77272C2.13268 7.77158 2.12532 7.77076 2.11793 7.77025C2.11206 7.76984 2.10615 7.76965 2.10025 7.76965H1.3506C1.31718 7.76962 1.28405 7.77618 1.25314 7.78894C1.22223 7.80171 1.19415 7.82043 1.17047 7.84406C1.1468 7.86768 1.12801 7.89573 1.11519 7.92661C1.10237 7.9575 1.09573 7.9906 1.0957 8.02404V11.857C1.09573 11.9016 1.10456 11.9457 1.12166 11.9869C1.13877 12.0281 1.16381 12.0655 1.19538 12.097C1.22693 12.1285 1.26441 12.1535 1.30563 12.1705C1.34686 12.1876 1.39103 12.1963 1.43562 12.1963Z" fill="white"/>
<path d="M11.7652 12.2303H12.5184C12.5277 12.2303 12.5371 12.2298 12.5463 12.2288C12.5535 12.228 12.5607 12.2269 12.5678 12.2256C12.5843 12.2223 12.6006 12.2175 12.6163 12.211C12.6473 12.1982 12.6756 12.1794 12.6994 12.1557C12.7231 12.1319 12.742 12.1038 12.7549 12.0727C12.7678 12.0417 12.7745 12.0085 12.7746 11.9749V8.14922C12.7744 8.08709 12.7573 8.02619 12.7251 7.97307C12.6929 7.91994 12.6469 7.8766 12.5919 7.84771C12.5369 7.81884 12.475 7.8055 12.413 7.80915C12.351 7.81281 12.2912 7.83331 12.2399 7.86845L10.1504 9.29584C10.1077 9.325 10.0573 9.3406 10.0056 9.3406C9.9539 9.3406 9.90341 9.325 9.86076 9.29584L7.77083 7.86845C7.71958 7.83338 7.65976 7.81295 7.59775 7.80935C7.53577 7.80574 7.47398 7.8191 7.41901 7.84798C7.36405 7.87687 7.31797 7.92019 7.28579 7.97329C7.25361 8.02638 7.2365 8.08725 7.23631 8.14935V11.9749C7.23638 12.0085 7.24304 12.0417 7.25593 12.0727C7.26424 12.0927 7.27503 12.1115 7.28801 12.1287C7.29518 12.1382 7.30305 12.1472 7.31153 12.1557C7.3353 12.1794 7.36354 12.1982 7.39458 12.211C7.42565 12.2238 7.45894 12.2304 7.49251 12.2303H8.24565C8.25797 12.2303 8.27022 12.2295 8.28234 12.2277C8.29859 12.2254 8.31461 12.2215 8.33013 12.2161C8.33467 12.2145 8.33915 12.2128 8.34359 12.211C8.37466 12.1982 8.40287 12.1794 8.42667 12.1557C8.45047 12.1319 8.46936 12.1038 8.48224 12.0727C8.48894 12.0567 8.49395 12.04 8.49725 12.023C8.49849 12.0165 8.4995 12.01 8.50023 12.0034C8.50131 11.9939 8.50185 11.9844 8.50188 11.9749V9.98997L9.8241 10.8167C9.87853 10.8507 9.9414 10.8687 10.0056 10.8687C10.0697 10.8687 10.1326 10.8507 10.187 10.8167L11.509 9.99011V11.9749C11.5091 12.0085 11.5157 12.0417 11.5286 12.0727C11.5415 12.1038 11.5604 12.1319 11.5842 12.1557C11.608 12.1794 11.6362 12.1982 11.6673 12.211C11.6755 12.2144 11.6838 12.2173 11.6923 12.2198C11.6999 12.2221 11.7076 12.2239 11.7154 12.2255C11.7246 12.2273 11.7339 12.2286 11.7432 12.2294C11.7505 12.23 11.7579 12.2303 11.7652 12.2303Z" fill="white"/>
<path d="M13.8981 7.76965H18.5646C18.6092 7.76961 18.6534 7.77833 18.6946 7.79535C18.7169 7.80456 18.7381 7.8161 18.7579 7.82974C18.7699 7.83801 18.7813 7.84706 18.7921 7.85683C18.7964 7.86072 18.8007 7.86472 18.8048 7.86883C18.8364 7.90032 18.8614 7.93772 18.8785 7.97889C18.8957 8.02006 18.9045 8.0642 18.9045 8.10879V11.9423C18.9045 11.9757 18.8979 12.0088 18.8851 12.0397C18.8722 12.0706 18.8534 12.0986 18.8297 12.1222C18.8061 12.1459 18.778 12.1646 18.7471 12.1774C18.7162 12.1901 18.6831 12.1967 18.6496 12.1966H17.8997C17.8849 12.1967 17.8702 12.1954 17.8557 12.1929C17.8374 12.1897 17.8194 12.1846 17.8022 12.1774C17.7712 12.1647 17.7431 12.146 17.7194 12.1223C17.6957 12.0987 17.6769 12.0706 17.6641 12.0397C17.6512 12.0088 17.6446 11.9757 17.6446 11.9423V9.19575C17.6443 9.15081 17.6263 9.10779 17.5945 9.07612C17.5626 9.04444 17.5195 9.02669 17.4745 9.02677H14.988C14.9431 9.02669 14.8999 9.04444 14.8681 9.07612C14.8362 9.10779 14.8182 9.15081 14.818 9.19575V11.9423C14.8179 11.9757 14.8113 12.0088 14.7985 12.0397C14.7857 12.0706 14.7669 12.0986 14.7432 12.1222C14.7195 12.1459 14.6914 12.1646 14.6605 12.1774C14.6443 12.1841 14.6274 12.1891 14.6102 12.1923C14.5947 12.1952 14.5789 12.1967 14.5631 12.1966H13.813C13.8052 12.1966 13.7974 12.1963 13.7896 12.1956C13.7832 12.195 13.7769 12.1942 13.7706 12.1931C13.7518 12.19 13.7333 12.1847 13.7156 12.1774C13.6847 12.1646 13.6566 12.1459 13.6329 12.1222C13.6092 12.0986 13.5904 12.0706 13.5776 12.0397C13.5648 12.0088 13.5582 11.9757 13.5581 11.9423V8.10879C13.5582 8.0642 13.567 8.02006 13.5841 7.97889C13.6012 7.93772 13.6263 7.90032 13.6578 7.86883C13.6894 7.83733 13.7269 7.81236 13.7681 7.79535C13.8093 7.77833 13.8535 7.76961 13.8981 7.76965Z" fill="white"/>
<path d="M15.6012 10.854V10.0993C15.6012 10.0779 15.6041 10.0566 15.6095 10.0359C15.6125 10.0245 15.6164 10.0132 15.621 10.0022C15.6339 9.97151 15.6527 9.94362 15.6764 9.92016C15.7001 9.89671 15.7282 9.87815 15.7591 9.86555C15.7899 9.85295 15.823 9.84656 15.8563 9.84673H16.6058C16.6392 9.84656 16.6722 9.85295 16.7031 9.86555C16.7339 9.87815 16.762 9.89671 16.7857 9.92016C16.8094 9.94362 16.8283 9.97151 16.8412 10.0022C16.8541 10.033 16.8608 10.066 16.861 10.0993V10.854C16.8609 10.8781 16.8573 10.902 16.8505 10.925C16.8479 10.9339 16.8448 10.9425 16.8412 10.9511C16.8283 10.9818 16.8094 11.0097 16.7857 11.0331C16.762 11.0566 16.7339 11.0751 16.7031 11.0877C16.6722 11.1003 16.6392 11.1067 16.6058 11.1066H15.8563C15.823 11.1067 15.7899 11.1003 15.7591 11.0877C15.7282 11.0751 15.7001 11.0566 15.6764 11.0331C15.6527 11.0097 15.6339 10.9818 15.621 10.9511C15.6081 10.9203 15.6013 10.8873 15.6012 10.854Z" fill="white"/>
</svg>
