<svg width="20" height="20" viewBox="0 0 20 20" fill="none" xmlns="http://www.w3.org/2000/svg">
<path d="M10 20C15.5228 20 20 15.5228 20 10C20 4.47715 15.5228 0 10 0C4.47715 0 0 4.47715 0 10C0 15.5228 4.47715 20 10 20Z" fill="#7CF4A0"/>
<path fill-rule="evenodd" clip-rule="evenodd" d="M10.6727 6.44671L13.5844 9.40248L13.5532 13.5514L10.5974 16.463L6.44853 16.4319L3.53688 13.4761L3.56807 9.32717L6.52384 6.41552L10.6727 6.44671ZM7.0525 7.71944L4.8639 9.87538L4.8408 12.9474L6.99674 15.136L10.0688 15.1591L12.2574 13.0032L12.2805 9.93114L10.1245 7.74254L7.0525 7.71944Z" fill="black"/>
<path fill-rule="evenodd" clip-rule="evenodd" d="M13.5514 3.56815L16.4631 6.52392L16.4319 10.6728L13.4761 13.5845L9.3272 13.5533L6.41554 10.5975L6.44673 6.44861L9.40251 3.53695L13.5514 3.56815ZM9.93116 4.84088L7.74256 6.99682L7.71947 10.0689L9.8754 12.2575L12.9474 12.2806L15.136 10.1246L15.1591 7.05258L13.0032 4.86398L9.93116 4.84088Z" fill="white"/>
</svg>
