<svg width="21" height="20" viewBox="0 0 21 20" fill="none" xmlns="http://www.w3.org/2000/svg">
<path d="M10.0425 20C15.5653 20 20.0425 15.5228 20.0425 10C20.0425 4.47715 15.5653 0 10.0425 0C4.51963 0 0.0424805 4.47715 0.0424805 10C0.0424805 15.5228 4.51963 20 10.0425 20Z" fill="#7CF4A0"/>
<path fill-rule="evenodd" clip-rule="evenodd" d="M10.7152 6.44671L13.6269 9.40248L13.5957 13.5514L10.6399 16.463L6.49102 16.4319L3.57936 13.4761L3.61055 9.32717L6.56632 6.41552L10.7152 6.44671ZM7.09498 7.71944L4.90638 9.87538L4.88329 12.9474L7.03922 15.136L10.1113 15.1591L12.2999 13.0032L12.323 9.93114L10.167 7.74254L7.09498 7.71944Z" fill="black"/>
<path fill-rule="evenodd" clip-rule="evenodd" d="M13.5939 3.56815L16.5055 6.52392L16.4744 10.6728L13.5186 13.5845L9.36968 13.5533L6.45802 10.5975L6.48921 6.44861L9.44499 3.53695L13.5939 3.56815ZM9.97364 4.84088L7.78505 6.99682L7.76195 10.0689L9.91788 12.2575L12.9899 12.2806L15.1785 10.1246L15.2016 7.05258L13.0457 4.86398L9.97364 4.84088Z" fill="white"/>
</svg>
