<svg width="20" height="20" viewBox="0 0 20 20" fill="none" xmlns="http://www.w3.org/2000/svg">
<path d="M10 20C15.5228 20 20 15.5228 20 10C20 4.47715 15.5228 0 10 0C4.47715 0 0 4.47715 0 10C0 15.5228 4.47715 20 10 20Z" fill="url(#paint0_linear)"/>
<path fill-rule="evenodd" clip-rule="evenodd" d="M10 19C14.9706 19 19 14.9706 19 10C19 5.02944 14.9706 1 10 1C5.02944 1 1 5.02944 1 10C1 14.9706 5.02944 19 10 19ZM20 10C20 15.5228 15.5228 20 10 20C4.47715 20 0 15.5228 0 10C0 4.47715 4.47715 0 10 0C15.5228 0 20 4.47715 20 10Z" fill="url(#paint1_linear)"/>
<path d="M8.84014 7.7168C8.81415 7.81716 8.76875 7.91139 8.70655 7.99415C8.59077 8.14509 8.43753 8.26282 8.26219 8.33553C8.10448 8.4038 7.93747 8.44792 7.76673 8.46644C7.73143 8.47092 7.69486 8.4737 7.65944 8.47639L7.65424 8.47679C7.5461 8.48092 7.44212 8.51972 7.35752 8.5875C7.27292 8.65529 7.21215 8.7485 7.18409 8.85349C7.17125 8.90573 7.1617 8.95873 7.1555 9.01218C7.14568 9.09276 7.14062 9.17525 7.13516 9.26449C7.13123 9.32856 7.12709 9.39611 7.12082 9.46892C7.08409 9.7654 6.99871 10.0537 6.86817 10.3222C6.84149 10.3786 6.8143 10.4333 6.78759 10.487C6.64443 10.7749 6.51511 11.0351 6.55224 11.3835C6.5813 11.6519 6.71817 11.8318 6.90004 12.0173C6.98641 12.106 7.10094 12.1819 7.21982 12.2606C7.55258 12.4808 7.91948 12.7237 7.79861 13.3357C7.6997 13.8316 6.88129 14.3519 5.73101 14.5336C5.8424 14.5167 5.59766 14.0969 5.56966 14.0488L5.56789 14.0458C5.53618 13.9959 5.50371 13.9468 5.47128 13.8977C5.37762 13.756 5.28442 13.615 5.21165 13.4586C5.01947 13.0504 4.93041 12.5781 5.00916 12.1308C5.0805 11.7259 5.34694 11.4025 5.60349 11.0911C5.6453 11.0403 5.68686 10.9899 5.72726 10.9395C6.07038 10.5114 6.43037 9.95063 6.51005 9.395C6.51677 9.34672 6.52277 9.29409 6.52908 9.2387C6.54038 9.1396 6.55268 9.03164 6.57192 8.92412C6.60053 8.73841 6.65844 8.55847 6.74348 8.39109C6.80153 8.28132 6.87796 8.1824 6.96941 8.09868C7.0171 8.05423 7.04856 7.99499 7.05875 7.93045C7.06895 7.86591 7.0573 7.7998 7.02566 7.7427L5.19197 4.42963L7.82579 7.69467C7.85579 7.73251 7.8937 7.76325 7.93685 7.78471C7.97999 7.80617 8.02731 7.81783 8.07545 7.81887C8.12358 7.8199 8.17135 7.81028 8.21537 7.79069C8.25939 7.7711 8.29858 7.74201 8.33016 7.7055C8.36352 7.66642 8.38244 7.61697 8.38372 7.5655C8.385 7.51403 8.36856 7.46369 8.33718 7.42298C8.2146 7.26561 8.08702 7.10609 7.96004 6.94732C7.90882 6.88328 7.8577 6.81936 7.80704 6.75575L7.14425 5.93172L5.81398 4.28649L4 2L5.9846 4.1391L7.40065 5.71182L8.10704 6.50007C8.172 6.57355 8.23696 6.64638 8.30193 6.71921C8.47132 6.90913 8.64074 7.09907 8.81014 7.30055L8.84858 7.34764L8.85701 7.42062C8.86844 7.51959 8.86273 7.61979 8.84014 7.7168Z" fill="#DF367C"/>
<path d="M15.6096 8.82562L15.6124 8.82985C15.6119 8.47858 15.3954 7.89894 14.9571 7.34142L14.9468 7.32777C14.8118 7.16015 14.6647 7.00277 14.5066 6.85689C14.4771 6.82817 14.4452 6.79992 14.4129 6.77167C14.2104 6.59427 13.9891 6.43983 13.7529 6.31115L13.736 6.30267C12.994 5.89678 12.0285 5.68771 10.8379 5.92315C10.678 5.72814 10.5057 5.54365 10.3223 5.37082C10.0413 5.10184 9.71053 4.89084 9.34871 4.74973C8.99015 4.61788 8.60616 4.57083 8.22656 4.61224C8.59247 4.64533 8.94887 4.74758 9.277 4.9136C9.59388 5.08414 9.87927 5.30808 10.1207 5.57565C10.3654 5.84877 10.5955 6.13484 10.8098 6.43264L10.8636 6.50297C11.0733 6.77734 11.2867 7.05664 11.5527 7.30517C11.6991 7.44356 11.8625 7.56271 12.0388 7.65973C12.0857 7.68375 12.133 7.70635 12.1794 7.72613C12.2258 7.7459 12.2694 7.76427 12.3163 7.78122C12.4068 7.81653 12.5005 7.84573 12.5942 7.87257C12.9692 7.97993 13.3531 8.01854 13.7281 8.03926C13.7802 8.04201 13.8321 8.04458 13.8839 8.04714C14.0179 8.05378 14.1508 8.06035 14.2817 8.06986C14.4608 8.08056 14.6385 8.10862 14.8123 8.15368C15.0733 8.22204 15.3031 8.37827 15.4633 8.5963C15.5178 8.66891 15.5667 8.74556 15.6096 8.82562Z" fill="#DF367C"/>
<path d="M14.5079 6.85476C14.4885 6.83684 14.4689 6.81909 14.4493 6.80142L14.4141 6.76953L14.4418 6.79516C14.4639 6.81569 14.486 6.83616 14.5079 6.85476Z" fill="#DF367C"/>
<path d="M14.0501 10.3258C12.8442 9.83429 11.5828 9.32011 11.7706 7.87695C12.1732 8.3088 12.8052 8.39936 13.4926 8.49786C14.1162 8.58721 14.7853 8.68309 15.3701 9.04613C16.7501 9.90218 16.5485 11.5653 16.0798 12.1774C16.122 11.1704 15.1074 10.7568 14.0501 10.3258Z" fill="#DF367C"/>
<path d="M9.18402 9.60236C9.50229 9.57176 10.1805 9.40554 9.87728 8.86921C9.81203 8.76011 9.71747 8.6717 9.60446 8.61414C9.49144 8.55659 9.36457 8.53222 9.23839 8.54384C9.11034 8.55764 8.98962 8.61068 8.8926 8.69576C8.79559 8.78083 8.72697 8.89383 8.69606 9.01942C8.60185 9.37022 8.70169 9.64945 9.18402 9.60236Z" fill="#DF367C"/>
<path d="M9.10103 5.35836C8.90135 5.12669 8.59152 5.0052 8.28778 4.96094C8.27641 5.03692 8.26921 5.11348 8.26621 5.19025C8.25262 5.82264 8.47621 6.51718 8.90885 6.99982C9.04724 7.15585 9.21416 7.28373 9.40055 7.37652C9.50836 7.42926 9.79429 7.56017 9.90022 7.44245C9.90829 7.43166 9.91337 7.41891 9.91493 7.40551C9.9165 7.39211 9.91449 7.37853 9.90913 7.36616C9.89158 7.31575 9.85767 7.27001 9.824 7.22461C9.80012 7.19241 9.77637 7.16037 9.75867 7.12696C9.74076 7.09326 9.7216 7.06042 9.70246 7.0276C9.6665 6.96595 9.63057 6.90435 9.60305 6.83737C9.53041 6.66202 9.49259 6.47556 9.45489 6.2897C9.44733 6.25247 9.43978 6.21524 9.43196 6.17815C9.3743 5.89138 9.30071 5.59003 9.10103 5.35836Z" fill="#DF367C"/>
<path d="M13.3671 10.4023C13.0573 11.2707 13.5569 12.0041 14.0536 12.7333C14.6091 13.5488 15.161 14.359 14.5722 15.3465C15.7164 14.8719 16.2596 13.4381 15.7848 12.3004C15.4856 11.5809 14.7645 11.1908 14.0952 10.8288C13.8355 10.6883 13.5836 10.552 13.3671 10.4023Z" fill="#DF367C"/>
<path d="M10.0114 12.4763C9.80405 12.5613 9.60852 12.6729 9.42969 12.8083C9.83631 12.6601 10.2631 12.5755 10.6953 12.5573C10.7737 12.5526 10.8525 12.549 10.9321 12.5453C11.0695 12.539 11.209 12.5325 11.3515 12.5206C11.5851 12.5047 11.8154 12.4571 12.0363 12.3793C12.2678 12.2979 12.4785 12.1661 12.6532 11.9932C12.8296 11.8147 12.9534 11.5906 13.0108 11.3457C13.0613 11.1144 13.0542 10.8742 12.9901 10.6462C12.9261 10.4183 12.8072 10.2098 12.6438 10.0391C12.7226 10.2399 12.7711 10.4515 12.7877 10.6667C12.802 10.8671 12.7748 11.0683 12.708 11.2577C12.6428 11.4372 12.5361 11.5985 12.3968 11.7286C12.2528 11.8599 12.0862 11.9636 11.9051 12.0346C11.6534 12.1365 11.3687 12.1782 11.0722 12.2216C10.9369 12.2414 10.7992 12.2616 10.6611 12.288C10.4388 12.3289 10.2212 12.392 10.0114 12.4763Z" fill="#DF367C"/>
<path d="M13.6287 16.0425L13.5868 16.0762C13.5344 16.1185 13.4812 16.1615 13.4238 16.2002C13.3507 16.2486 13.2741 16.2914 13.1946 16.3283C13.0291 16.4094 12.8472 16.4508 12.6631 16.4493C12.1644 16.4399 11.8119 16.0669 11.6057 15.6455C11.5516 15.535 11.5039 15.4211 11.4563 15.3072C11.3801 15.125 11.3038 14.9428 11.2011 14.7744C10.9626 14.3831 10.5543 14.0681 10.0762 14.1265C9.88117 14.151 9.69837 14.239 9.59009 14.409C9.3051 14.853 9.7143 15.4751 10.236 15.387C10.2804 15.3802 10.3238 15.3682 10.3654 15.3512C10.4068 15.3335 10.4455 15.3099 10.4802 15.2811C10.5531 15.2201 10.608 15.1403 10.6391 15.0503C10.6734 14.9565 10.681 14.8549 10.6612 14.757C10.6398 14.6546 10.5796 14.5646 10.4933 14.506C10.5936 14.5532 10.6717 14.6376 10.7113 14.7414C10.7523 14.8483 10.7629 14.9646 10.7418 15.0772C10.7213 15.1945 10.6698 15.3041 10.5927 15.3945C10.5518 15.4411 10.5044 15.4815 10.4521 15.5146C10.4002 15.5473 10.3447 15.5737 10.2866 15.5932C10.1689 15.6337 10.0436 15.6467 9.92008 15.6314C9.7467 15.6066 9.58317 15.5353 9.44665 15.4251C9.41641 15.4011 9.38762 15.3757 9.35984 15.3493C9.27422 15.2735 9.19607 15.1894 9.12653 15.0983C9.09183 15.0598 9.05656 15.0218 9.01963 14.9853C8.85252 14.8092 8.65535 14.6646 8.43746 14.5583C8.28721 14.492 8.12996 14.443 7.96873 14.4123C7.88764 14.3953 7.80561 14.3831 7.72358 14.3727C7.71459 14.3718 7.69719 14.3688 7.67558 14.365C7.60705 14.3531 7.49616 14.3338 7.47656 14.352C7.7301 14.1176 8.00648 13.9093 8.30153 13.7305C8.60448 13.5499 8.92976 13.4101 9.269 13.3147C9.62073 13.2152 9.98861 13.1869 10.3513 13.2313C10.538 13.2539 10.7209 13.3014 10.8951 13.3726C11.0775 13.4458 11.246 13.5503 11.3929 13.6815C11.5382 13.8191 11.6557 13.9836 11.7388 14.166C11.8138 14.3368 11.8698 14.5154 11.9056 14.6986C11.9249 14.7972 11.9394 14.9055 11.9544 15.0176C12.0227 15.5283 12.1016 16.1177 12.687 16.2204C12.7242 16.2277 12.7617 16.233 12.7995 16.2365L12.9162 16.2393C12.9964 16.2335 13.0762 16.2221 13.1548 16.2049C13.3176 16.1664 13.4764 16.112 13.6287 16.0425Z" fill="#DF367C"/>
<defs>
<linearGradient id="paint0_linear" x1="7" y1="3" x2="10" y2="20" gradientUnits="userSpaceOnUse">
<stop stop-color="#FFF4FB"/>
<stop offset="1" stop-color="#FFCCEB"/>
</linearGradient>
<linearGradient id="paint1_linear" x1="27.5" y1="30.5" x2="4.5" y2="1.54972e-06" gradientUnits="userSpaceOnUse">
<stop stop-color="#DF367C"/>
<stop offset="1" stop-color="#DF367C" stop-opacity="0"/>
</linearGradient>
</defs>
</svg>
