<svg width="20" height="20" viewBox="0 0 20 20" fill="none" xmlns="http://www.w3.org/2000/svg">
<path d="M10 20C15.5417 20 20 15.5417 20 10C20 4.4583 15.5417 0 10 0C4.4583 0 0 4.4583 0 10C0 15.5417 4.4583 20 10 20Z" fill="#2775CA"/>
<path d="M12.7498 11.5833C12.7498 10.125 11.8748 9.62501 10.1248 9.41671C8.8748 9.25001 8.6248 8.91671 8.6248 8.33331C8.6248 7.74991 9.0415 7.37501 9.8748 7.37501C10.6248 7.37501 11.0415 7.62501 11.2498 8.25001C11.2915 8.37501 11.4165 8.45831 11.5415 8.45831H12.2081C12.3748 8.45831 12.4998 8.33331 12.4998 8.16671V8.12501C12.3331 7.20831 11.5831 6.50001 10.6248 6.41671V5.41671C10.6248 5.25001 10.4998 5.12501 10.2915 5.08331H9.6665C9.4998 5.08331 9.3748 5.20831 9.3331 5.41671V6.37501C8.0831 6.54171 7.2915 7.37501 7.2915 8.41671C7.2915 9.79171 8.1248 10.3333 9.8748 10.5417C11.0415 10.75 11.4165 11 11.4165 11.6667C11.4165 12.3334 10.8331 12.7917 10.0415 12.7917C8.9581 12.7917 8.5831 12.3333 8.4581 11.7083C8.4165 11.5417 8.2915 11.4583 8.1665 11.4583H7.4581C7.2915 11.4583 7.1665 11.5833 7.1665 11.75V11.7917C7.3331 12.8333 7.9998 13.5833 9.3748 13.7917V14.7917C9.3748 14.9583 9.4998 15.0833 9.7081 15.125H10.3331C10.4998 15.125 10.6248 15 10.6665 14.7917V13.7917C11.9165 13.5833 12.7498 12.7083 12.7498 11.5833Z" fill="white"/>
<path d="M7.87484 15.9583C4.62484 14.7917 2.95814 11.1667 4.16654 7.9583C4.79154 6.2083 6.16654 4.875 7.87484 4.25C8.04154 4.1667 8.12484 4.04169 8.12484 3.83329V3.24999C8.12484 3.08329 8.04154 2.95829 7.87484 2.91669C7.83314 2.91669 7.74984 2.91669 7.70814 2.95829C3.74984 4.20829 1.58314 8.4167 2.83314 12.375C3.58314 14.7083 5.37484 16.5 7.70814 17.25C7.87484 17.3333 8.04154 17.25 8.08314 17.0833C8.12484 17.0417 8.12484 17 8.12484 16.9167V16.3333C8.12484 16.2083 7.99984 16.0417 7.87484 15.9583ZM12.2915 2.95829C12.1248 2.87499 11.9581 2.95829 11.9165 3.12499C11.8748 3.16669 11.8748 3.20829 11.8748 3.29169V3.87499C11.8748 4.04169 11.9998 4.2083 12.1248 4.2917C15.3748 5.4583 17.0415 9.0833 15.8331 12.2917C15.2081 14.0417 13.8331 15.375 12.1248 16C11.9581 16.0833 11.8748 16.2083 11.8748 16.4167V17C11.8748 17.1667 11.9581 17.2917 12.1248 17.3333C12.1665 17.3333 12.2498 17.3333 12.2915 17.2917C16.2498 16.0417 18.4165 11.8333 17.1665 7.875C16.4165 5.5 14.5831 3.70829 12.2915 2.95829Z" fill="white"/>
</svg>
