<svg width="20" height="20" viewBox="0 0 20 20" fill="none" xmlns="http://www.w3.org/2000/svg">
<path d="M10 20C15.5417 20 20 15.5417 20 10C20 4.4583 15.5417 0 10 0C4.4583 0 0 4.4583 0 10C0 15.5417 4.4583 20 10 20Z" fill="#2775CA"/>
<path d="M12.7498 11.5833C12.7498 10.125 11.8748 9.62495 10.1248 9.41665C8.8748 9.24995 8.6248 8.91665 8.6248 8.33325C8.6248 7.74985 9.0415 7.37495 9.8748 7.37495C10.6248 7.37495 11.0415 7.62495 11.2498 8.24995C11.2915 8.37495 11.4165 8.45825 11.5415 8.45825H12.2081C12.3748 8.45825 12.4998 8.33325 12.4998 8.16665V8.12495C12.3331 7.20825 11.5831 6.49995 10.6248 6.41665V5.41665C10.6248 5.24995 10.4998 5.12495 10.2915 5.08325H9.6665C9.4998 5.08325 9.3748 5.20825 9.3331 5.41665V6.37495C8.0831 6.54165 7.2915 7.37495 7.2915 8.41665C7.2915 9.79165 8.1248 10.3333 9.8748 10.5417C11.0415 10.75 11.4165 11 11.4165 11.6667C11.4165 12.3334 10.8331 12.7917 10.0415 12.7917C8.9581 12.7917 8.5831 12.3333 8.4581 11.7083C8.4165 11.5417 8.2915 11.4583 8.1665 11.4583H7.4581C7.2915 11.4583 7.1665 11.5833 7.1665 11.75V11.7917C7.3331 12.8333 7.9998 13.5833 9.3748 13.7917V14.7917C9.3748 14.9583 9.4998 15.0833 9.7081 15.125H10.3331C10.4998 15.125 10.6248 15 10.6665 14.7917V13.7917C11.9165 13.5833 12.7498 12.7083 12.7498 11.5833V11.5833Z" fill="white"/>
<path d="M7.87484 15.9584C4.62484 14.7918 2.95814 11.1668 4.16654 7.95835C4.79154 6.20835 6.16654 4.87505 7.87484 4.25005C8.04154 4.16675 8.12484 4.04175 8.12484 3.83335V3.25005C8.12484 3.08335 8.04154 2.95835 7.87484 2.91675C7.83314 2.91675 7.74984 2.91675 7.70814 2.95835C3.74984 4.20835 1.58314 8.41675 2.83314 12.3751C3.58314 14.7084 5.37484 16.5001 7.70814 17.2501C7.87484 17.3334 8.04154 17.2501 8.08314 17.0834C8.12484 17.0418 8.12484 17.0001 8.12484 16.9168V16.3334C8.12484 16.2084 7.99984 16.0418 7.87484 15.9584ZM12.2915 2.95835C12.1248 2.87505 11.9581 2.95835 11.9165 3.12505C11.8748 3.16675 11.8748 3.20835 11.8748 3.29175V3.87505C11.8748 4.04175 11.9998 4.20835 12.1248 4.29175C15.3748 5.45835 17.0415 9.08335 15.8331 12.2918C15.2081 14.0418 13.8331 15.3751 12.1248 16.0001C11.9581 16.0834 11.8748 16.2084 11.8748 16.4168V17.0001C11.8748 17.1668 11.9581 17.2918 12.1248 17.3334C12.1665 17.3334 12.2498 17.3334 12.2915 17.2918C16.2498 16.0418 18.4165 11.8334 17.1665 7.87505C16.4165 5.50005 14.5831 3.70835 12.2915 2.95835V2.95835Z" fill="white"/>
<circle cx="15" cy="15" r="5" fill="#FE0420"/>
<path fill-rule="evenodd" clip-rule="evenodd" d="M13.5611 13.6474C13.4621 13.6733 13.3323 13.7191 13.2728 13.7493C13.1155 13.8291 12.8905 14.0647 12.7984 14.2461C12.6539 14.5308 12.4807 15.3003 12.5018 15.5638C12.5244 15.8476 12.6758 16.0646 12.9367 16.1874C13.1229 16.2749 13.2534 16.2993 13.5408 16.3C14.1198 16.3014 14.4866 16.0937 14.7112 15.6374C14.8703 15.3142 15.0331 14.5822 15.0004 14.3371C14.9522 13.976 14.6835 13.7078 14.2873 13.6255C14.0889 13.5843 13.7661 13.594 13.5611 13.6474ZM14.2752 14.5613C14.2894 14.3503 14.26 14.2648 14.1507 14.1985C14.002 14.1083 13.7196 14.1458 13.5609 14.2768C13.4956 14.3307 13.4049 14.5077 13.3638 14.6614C13.2832 14.963 13.2252 15.2835 13.2252 15.427C13.2252 15.5533 13.2353 15.5853 13.2969 15.6539C13.3594 15.7234 13.3884 15.7352 13.5208 15.7447C13.7821 15.7635 13.9558 15.6705 14.0669 15.4524C14.1397 15.3096 14.2593 14.7979 14.2752 14.5613Z" fill="white"/>
<path fill-rule="evenodd" clip-rule="evenodd" d="M15.6681 13.6685C15.6312 13.6996 15.5959 13.8166 15.5306 14.1233C15.4823 14.3504 15.3623 14.9117 15.2639 15.3705C15.1241 16.0227 15.0915 16.2125 15.1146 16.2402C15.1548 16.2884 15.6864 16.2907 15.7521 16.243C15.7839 16.2198 15.8218 16.0944 15.8826 15.8113C15.9297 15.5917 15.9732 15.3992 15.9792 15.3834C15.9867 15.3638 16.1293 15.3513 16.4261 15.3444C16.9121 15.333 17.0488 15.3009 17.2636 15.1475C17.4986 14.9797 17.6608 14.6401 17.6631 14.311C17.6651 14.0315 17.5501 13.8619 17.2732 13.736C17.0829 13.6494 16.821 13.6219 16.2144 13.6245C15.7885 13.6263 15.7106 13.6326 15.6681 13.6685ZM16.9427 14.4381C16.9553 14.3163 16.9502 14.2963 16.8917 14.2381C16.8289 14.1757 16.8157 14.1734 16.5261 14.1734H16.2257L16.2094 14.2379C16.1834 14.341 16.0944 14.7773 16.0944 14.8018C16.0944 14.814 16.2138 14.824 16.3597 14.824C16.5743 14.824 16.6436 14.8146 16.7225 14.7746C16.8566 14.7065 16.9258 14.6007 16.9427 14.4381Z" fill="white"/>
</svg>
