<svg width="20" height="20" viewBox="0 0 20 20" fill="none" xmlns="http://www.w3.org/2000/svg">
<path d="M10 20C15.5417 20 20 15.5417 20 10C20 4.4583 15.5417 0 10 0C4.4583 0 0 4.4583 0 10C0 15.5417 4.4583 20 10 20Z" fill="#2775CA"/>
<path d="M12.75 11.5833C12.75 10.125 11.875 9.62501 10.125 9.41671C8.87499 9.25001 8.62499 8.91671 8.62499 8.33331C8.62499 7.74991 9.04169 7.37501 9.87499 7.37501C10.625 7.37501 11.0417 7.62501 11.25 8.25001C11.2917 8.37501 11.4167 8.45831 11.5417 8.45831H12.2083C12.375 8.45831 12.5 8.33331 12.5 8.16671V8.12501C12.3333 7.20831 11.5833 6.50001 10.625 6.41671V5.41671C10.625 5.25001 10.5 5.12501 10.2917 5.08331H9.66669C9.49999 5.08331 9.37499 5.20831 9.33329 5.41671V6.37501C8.08329 6.54171 7.29169 7.37501 7.29169 8.41671C7.29169 9.79171 8.12499 10.3333 9.87499 10.5417C11.0417 10.75 11.4167 11 11.4167 11.6667C11.4167 12.3334 10.8333 12.7917 10.0417 12.7917C8.95829 12.7917 8.58329 12.3333 8.45829 11.7083C8.41669 11.5417 8.29169 11.4583 8.16669 11.4583H7.45829C7.29169 11.4583 7.16669 11.5833 7.16669 11.75V11.7917C7.33329 12.8333 7.99999 13.5833 9.37499 13.7917V14.7917C9.37499 14.9583 9.49999 15.0833 9.70829 15.125H10.3333C10.5 15.125 10.625 15 10.6667 14.7917V13.7917C11.9167 13.5833 12.75 12.7083 12.75 11.5833V11.5833Z" fill="white"/>
<path d="M7.87502 15.9583C4.62502 14.7917 2.95832 11.1667 4.16672 7.95829C4.79172 6.20829 6.16672 4.87499 7.87502 4.24999C8.04172 4.16669 8.12502 4.04169 8.12502 3.83329V3.24999C8.12502 3.08329 8.04172 2.95829 7.87502 2.91669C7.83332 2.91669 7.75002 2.91669 7.70832 2.95829C3.75002 4.20829 1.58332 8.41669 2.83332 12.375C3.58332 14.7083 5.37502 16.5 7.70832 17.25C7.87502 17.3333 8.04172 17.25 8.08332 17.0833C8.12502 17.0417 8.12502 17 8.12502 16.9167V16.3333C8.12502 16.2083 8.00002 16.0417 7.87502 15.9583ZM12.2917 2.95829C12.125 2.87499 11.9583 2.95829 11.9167 3.12499C11.875 3.16669 11.875 3.20829 11.875 3.29169V3.87499C11.875 4.04169 12 4.20829 12.125 4.29169C15.375 5.45829 17.0417 9.08329 15.8333 12.2917C15.2083 14.0417 13.8333 15.375 12.125 16C11.9583 16.0833 11.875 16.2083 11.875 16.4167V17C11.875 17.1667 11.9583 17.2917 12.125 17.3333C12.1667 17.3333 12.25 17.3333 12.2917 17.2917C16.25 16.0417 18.4167 11.8333 17.1667 7.87499C16.4167 5.49999 14.5833 3.70829 12.2917 2.95829V2.95829Z" fill="white"/>
<path d="M16.0803 14.5817L16.8147 13.3357L18.7941 16.4187L18.795 17.0101L18.7885 12.9388C18.7862 12.8897 18.7721 12.8419 18.7474 12.7993C18.7228 12.7568 18.6882 12.7209 18.6467 12.6945L15.083 10.6448C15.0405 10.6246 14.9939 10.6142 14.9468 10.6144C14.8996 10.6146 14.8531 10.6254 14.8108 10.6461C14.7998 10.6516 14.7891 10.6577 14.7788 10.6645L14.7664 10.6724L11.3072 12.6768L11.2938 12.6829C11.2759 12.6912 11.2587 12.7012 11.2427 12.7127C11.1778 12.759 11.1336 12.8289 11.1195 12.9073C11.1173 12.9192 11.1158 12.9312 11.1151 12.9433L11.1205 16.261L12.9642 13.4034C13.1963 13.0245 13.702 12.9024 14.1715 12.909L14.7225 12.9233L11.4758 18.13L11.8585 18.3504L15.1442 12.9285L16.5965 12.9232L13.3193 18.4817L14.6851 19.2677L14.8483 19.3616C14.9187 19.3896 14.9969 19.3911 15.0683 19.366L18.682 17.2717L17.9908 17.6721L16.0803 14.5817ZM16.3605 18.6171L14.9811 16.4522L15.8231 15.0235L17.6346 17.8787L16.3605 18.6171Z" fill="#2D374B"/>
<path d="M14.9811 16.4522L16.3605 18.617L17.6347 17.8786L15.8233 15.0235L14.9811 16.4522Z" fill="#28A0F0"/>
<path d="M18.7952 17.0102L18.7943 16.4187L16.8149 13.3357L16.0801 14.5816L17.991 17.672L18.6822 17.2717C18.7157 17.2445 18.743 17.2107 18.7625 17.1722C18.782 17.1338 18.7932 17.0917 18.7953 17.0487L18.7952 17.0102Z" fill="#28A0F0"/>
<path d="M10.5004 17.5682L11.476 18.1304L14.7228 12.9236L14.1718 12.9094C13.7023 12.9027 13.1965 13.0247 12.9644 13.4037L11.1207 16.2614L10.5007 17.2144V17.5685L10.5004 17.5682Z" fill="white"/>
<path d="M16.5966 12.9235L15.1444 12.9288L11.8588 18.3507L13.0072 19.012L13.3194 18.4823L16.5966 12.9235Z" fill="white"/>
<path d="M19.407 12.9161C19.4003 12.7662 19.3573 12.6202 19.2817 12.4907C19.206 12.3611 19.1 12.2519 18.9727 12.1724L15.3624 10.0963C15.2335 10.0329 15.0918 10 14.9482 10C14.8046 10 14.6629 10.0329 14.5341 10.0963C14.5039 10.1114 11.0231 12.1303 11.0231 12.1303C10.9747 12.1535 10.9285 12.1809 10.8848 12.2121C10.7718 12.2924 10.6785 12.3974 10.6118 12.519C10.5452 12.6406 10.5069 12.7758 10.5 12.9143V17.2142L11.12 16.2612L11.1152 12.9436C11.1181 12.8981 11.1311 12.8538 11.1531 12.8139C11.1752 12.7741 11.2058 12.7396 11.2428 12.713C11.2592 12.7012 14.7995 10.652 14.8108 10.6463C14.8532 10.6257 14.8996 10.6149 14.9468 10.6147C14.9939 10.6144 15.0405 10.6248 15.0831 10.6451L18.6467 12.6949C18.6882 12.7213 18.7228 12.7573 18.7475 12.7998C18.7721 12.8423 18.7862 12.8901 18.7885 12.9392V17.0491C18.7877 17.0917 18.7777 17.1337 18.7594 17.1721C18.741 17.2106 18.7146 17.2447 18.682 17.2721L17.9907 17.6725L17.6344 17.8791L16.3602 18.6175L15.068 19.3664C14.9966 19.3917 14.9184 19.3901 14.848 19.3621L13.3192 18.4828L13.007 19.0124L14.3809 19.8034C14.4264 19.8292 14.4669 19.8522 14.5001 19.8708C14.5515 19.8994 14.5866 19.919 14.5989 19.9249C14.7139 19.9753 14.8381 20.0009 14.9636 20C15.0787 20.0001 15.1928 19.9787 15.3 19.9367L19.0532 17.7632C19.1591 17.6808 19.2456 17.5762 19.3067 17.4568C19.3678 17.3374 19.402 17.206 19.4068 17.0719L19.407 12.9161Z" fill="#96BEDC"/>
</svg>
