<svg width="20" height="20" viewBox="0 0 20 20" fill="none" xmlns="http://www.w3.org/2000/svg">
<path fill-rule="evenodd" clip-rule="evenodd" d="M3.66206 1.38647L0.0153586 9.04638C0.00148187 9.07487 -0.00291558 9.10705 0.00280934 9.13822C0.00853427 9.16939 0.0240812 9.19791 0.0471767 9.21961L9.89604 18.6572C9.92402 18.684 9.96128 18.699 10 18.699C10.0388 18.699 10.0761 18.684 10.104 18.6572L19.9529 9.2202C19.976 9.1985 19.9915 9.16998 19.9973 9.13881C20.003 9.10764 19.9986 9.07546 19.9847 9.04697L16.338 1.38706C16.3263 1.36134 16.3073 1.33955 16.2835 1.32429C16.2597 1.30904 16.232 1.30096 16.2037 1.30104H3.79758C3.76916 1.30068 3.74124 1.30856 3.71719 1.32372C3.69314 1.33888 3.674 1.36068 3.66206 1.38647Z" fill="#50AF95"/>
<path fill-rule="evenodd" clip-rule="evenodd" d="M11.2653 9.83298C11.1946 9.83829 10.8293 9.86009 10.0144 9.86009C9.36624 9.86009 8.90606 9.84064 8.74461 9.83298C6.23983 9.7228 4.37022 9.28677 4.37022 8.76472C4.37022 8.24267 6.23983 7.80723 8.74461 7.69528V9.39873C8.90842 9.41051 9.37744 9.4382 10.0256 9.4382C10.8034 9.4382 11.1928 9.4058 11.2629 9.39932V7.69646C13.7624 7.80782 15.6279 8.24385 15.6279 8.76472C15.6279 9.2856 13.763 9.72162 11.2629 9.83239L11.2653 9.83298ZM11.2653 7.52028V5.99596H14.7535V3.67148H5.25641V5.99596H8.74402V7.51969C5.90927 7.64991 3.77747 8.21144 3.77747 8.88433C3.77747 9.55723 5.90927 10.1182 8.74402 10.249V15.1336H11.2647V10.2472C14.093 10.117 16.2213 9.55605 16.2213 8.88375C16.2213 8.21144 14.0948 7.6505 11.2647 7.51969L11.2653 7.52028Z" fill="white"/>
<g clip-path="url(#clip0_5952_47258)">
<circle cx="15" cy="15" r="5" fill="#6CE89E"/>
<path d="M16.5132 12.7712L15.4681 14.3229C15.4532 14.3453 15.4469 14.3722 15.4504 14.3989C15.4538 14.4255 15.4668 14.45 15.4869 14.4678C15.507 14.4855 15.5329 14.4954 15.5598 14.4956C15.5866 14.4958 15.6126 14.4863 15.633 14.4688L16.6618 13.5764C16.6678 13.571 16.6753 13.5675 16.6833 13.5663C16.6913 13.565 16.6995 13.5662 16.7068 13.5695C16.7142 13.5729 16.7204 13.5783 16.7248 13.5851C16.7291 13.592 16.7314 13.5999 16.7313 13.608V16.4017C16.7312 16.4103 16.7286 16.4186 16.7237 16.4256C16.7188 16.4326 16.7118 16.438 16.7038 16.4409C16.6958 16.4438 16.687 16.4442 16.6788 16.442C16.6705 16.4397 16.6631 16.435 16.6576 16.4285L13.5479 12.7059C13.4979 12.6468 13.4356 12.5994 13.3654 12.5668C13.2952 12.5343 13.2187 12.5174 13.1413 12.5174H13.0326C12.8914 12.5174 12.7559 12.5735 12.656 12.6734C12.5561 12.7733 12.5 12.9087 12.5 13.05V16.9847C12.5 17.126 12.5561 17.2615 12.656 17.3614C12.7559 17.4612 12.8914 17.5174 13.0326 17.5174V17.5174C13.1237 17.5174 13.2133 17.4941 13.2928 17.4496C13.3723 17.4052 13.4391 17.3411 13.4868 17.2635L14.5319 15.7118C14.5468 15.6895 14.5531 15.6625 14.5496 15.6359C14.5462 15.6092 14.5332 15.5848 14.5131 15.567C14.493 15.5492 14.4671 15.5393 14.4402 15.5391C14.4134 15.5389 14.3874 15.5485 14.367 15.566L13.3382 16.4583C13.3322 16.4637 13.3247 16.4673 13.3167 16.4685C13.3087 16.4697 13.3005 16.4686 13.2932 16.4652C13.2858 16.4619 13.2796 16.4564 13.2752 16.4496C13.2709 16.4428 13.2686 16.4348 13.2688 16.4267V13.6323C13.2688 13.6237 13.2714 13.6154 13.2763 13.6084C13.2812 13.6014 13.2882 13.5961 13.2962 13.5931C13.3042 13.5902 13.313 13.5899 13.3212 13.5921C13.3295 13.5943 13.3369 13.599 13.3424 13.6056L16.4517 17.3288C16.5018 17.3879 16.564 17.4353 16.6343 17.4679C16.7045 17.5005 16.7809 17.5173 16.8583 17.5174H16.967C17.037 17.5174 17.1063 17.5037 17.171 17.4769C17.2356 17.4502 17.2944 17.4109 17.3439 17.3615C17.3934 17.312 17.4326 17.2533 17.4594 17.1886C17.4862 17.124 17.5 17.0547 17.5 16.9847V13.05C17.5 12.9087 17.4439 12.7733 17.344 12.6734C17.2441 12.5735 17.1086 12.5174 16.9674 12.5174C16.8763 12.5173 16.7867 12.5407 16.7072 12.5851C16.6277 12.6295 16.5609 12.6936 16.5132 12.7712V12.7712Z" fill="black"/>
</g>
<defs>
<clipPath id="clip0_5952_47258">
<rect width="10" height="10" fill="white" transform="translate(10 10)"/>
</clipPath>
</defs>
</svg>
