<svg width="20" height="20" viewBox="0 0 20 20" fill="none" xmlns="http://www.w3.org/2000/svg">
<path fill-rule="evenodd" clip-rule="evenodd" d="M3.66206 1.38647L0.0153586 9.04638C0.00148187 9.07487 -0.00291558 9.10705 0.00280934 9.13822C0.00853427 9.16939 0.0240812 9.19791 0.0471767 9.21961L9.89604 18.6572C9.92402 18.684 9.96128 18.699 10 18.699C10.0388 18.699 10.0761 18.684 10.104 18.6572L19.9529 9.2202C19.976 9.1985 19.9915 9.16998 19.9973 9.13881C20.003 9.10764 19.9986 9.07546 19.9847 9.04697L16.338 1.38706C16.3262 1.36134 16.3073 1.33955 16.2835 1.32429C16.2597 1.30904 16.232 1.30096 16.2037 1.30104H3.79758C3.76916 1.30068 3.74124 1.30856 3.71719 1.32372C3.69314 1.33888 3.674 1.36068 3.66206 1.38647V1.38647V1.38647Z" fill="#50AF95"/>
<path fill-rule="evenodd" clip-rule="evenodd" d="M11.2653 9.83298C11.1946 9.83829 10.8293 9.86009 10.0144 9.86009C9.36624 9.86009 8.90606 9.84064 8.74461 9.83298C6.23983 9.7228 4.37022 9.28677 4.37022 8.76472C4.37022 8.24267 6.23983 7.80723 8.74461 7.69528V9.39873C8.90842 9.41051 9.37744 9.4382 10.0256 9.4382C10.8034 9.4382 11.1928 9.4058 11.2629 9.39932V7.69646C13.7624 7.80782 15.6279 8.24385 15.6279 8.76472C15.6279 9.2856 13.763 9.72162 11.2629 9.83239L11.2653 9.83298ZM11.2653 7.52028V5.99596H14.7535V3.67148H5.25641V5.99596H8.74402V7.51969C5.90927 7.64991 3.77747 8.21144 3.77747 8.88433C3.77747 9.55723 5.90927 10.1182 8.74402 10.249V15.1336H11.2647V10.2472C14.093 10.117 16.2213 9.55605 16.2213 8.88375C16.2213 8.21144 14.0948 7.6505 11.2647 7.51969L11.2653 7.52028Z" fill="white"/>
<circle cx="15" cy="15" r="5" fill="#131419"/>
<path fill-rule="evenodd" clip-rule="evenodd" d="M13.4097 14.3483L15 12.7579L16.5903 14.3483L17.5148 13.4238L15 10.909L12.4852 13.4238L13.4097 14.3483ZM11.8327 14.0782L10.9093 15.0016L11.8327 15.925L12.7561 15.0016L11.8327 14.0782ZM15 17.2445L13.4097 15.6541L12.4852 16.5786L15 19.0934L17.5148 16.5786L16.5903 15.6541L15 17.2445ZM18.1675 14.0783L17.2441 15.0017L18.1675 15.9251L19.0909 15.0017L18.1675 14.0783ZM15.0005 14.0638L15.9379 15.0012L15.0005 15.9386L14.0631 15.0012L14.2247 14.8331L14.3087 14.7556L15.0005 14.0638Z" fill="#F0B90B"/>
</svg>
