<svg width="20" height="20" viewBox="0 0 20 20" fill="none" xmlns="http://www.w3.org/2000/svg">
<path fill-rule="evenodd" clip-rule="evenodd" d="M3.66206 1.38647L0.0153586 9.04638C0.00148187 9.07487 -0.00291558 9.10705 0.00280934 9.13822C0.00853427 9.16939 0.0240812 9.19791 0.0471767 9.21961L9.89604 18.6572C9.92402 18.684 9.96128 18.699 10 18.699C10.0388 18.699 10.0761 18.684 10.104 18.6572L19.9529 9.2202C19.976 9.1985 19.9915 9.16998 19.9973 9.13881C20.003 9.10764 19.9986 9.07546 19.9847 9.04697L16.338 1.38706C16.3262 1.36134 16.3073 1.33955 16.2835 1.32429C16.2597 1.30904 16.232 1.30096 16.2037 1.30104H3.79758C3.76916 1.30068 3.74124 1.30856 3.71719 1.32372C3.69314 1.33888 3.674 1.36068 3.66206 1.38647V1.38647V1.38647Z" fill="#50AF95"/>
<path fill-rule="evenodd" clip-rule="evenodd" d="M11.2653 9.83298C11.1946 9.83829 10.8293 9.86009 10.0144 9.86009C9.36624 9.86009 8.90606 9.84064 8.74461 9.83298C6.23983 9.7228 4.37022 9.28677 4.37022 8.76472C4.37022 8.24267 6.23983 7.80723 8.74461 7.69528V9.39873C8.90842 9.41051 9.37744 9.4382 10.0256 9.4382C10.8034 9.4382 11.1928 9.4058 11.2629 9.39932V7.69646C13.7624 7.80782 15.6279 8.24385 15.6279 8.76472C15.6279 9.2856 13.763 9.72162 11.2629 9.83239L11.2653 9.83298ZM11.2653 7.52028V5.99596H14.7535V3.67148H5.25641V5.99596H8.74402V7.51969C5.90927 7.64991 3.77747 8.21144 3.77747 8.88433C3.77747 9.55723 5.90927 10.1182 8.74402 10.249V15.1336H11.2647V10.2472C14.093 10.117 16.2213 9.55605 16.2213 8.88375C16.2213 8.21144 14.0948 7.6505 11.2647 7.51969L11.2653 7.52028Z" fill="white"/>
<g clip-path="url(#clip0_4774_59241)">
<path d="M15 20C17.7614 20 20 17.7614 20 15C20 12.2386 17.7614 10 15 10C12.2386 10 10 12.2386 10 15C10 17.7614 12.2386 20 15 20Z" fill="#8247E5"/>
<path fill-rule="evenodd" clip-rule="evenodd" d="M13.4067 12.2755C13.3736 12.2878 13.0269 12.4758 12.6361 12.6934C12.1336 12.9732 11.911 13.1022 11.8755 13.1344C11.8469 13.1603 11.8129 13.2045 11.7964 13.237L11.7676 13.294V14.1777V15.0616L11.7961 15.1179C11.8503 15.2249 11.8677 15.2361 12.6502 15.6712C13.0497 15.8933 13.3965 16.081 13.4208 16.0883C13.4864 16.108 13.6081 16.1053 13.6726 16.0826C13.724 16.0646 14.2079 15.7974 14.917 15.3955C15.7034 14.9498 16.2841 14.6286 16.332 14.6126C16.3712 14.5996 16.4057 14.5964 16.4732 14.5993C16.5854 14.6043 16.5848 14.604 17.0579 14.8677C17.4517 15.0872 17.4986 15.1207 17.5516 15.2205C17.5679 15.2513 17.5861 15.3025 17.5919 15.3343C17.6063 15.4128 17.6062 16.2049 17.5918 16.2829C17.5767 16.365 17.5387 16.4363 17.4812 16.4904C17.4174 16.5505 16.6396 16.9968 16.5648 17.0162C16.497 17.0338 16.4067 17.0328 16.3421 17.0136C16.3129 17.005 16.1093 16.8984 15.8896 16.7768C15.4486 16.5327 15.4055 16.5018 15.3508 16.3897L15.3222 16.3311L15.3174 16.0165L15.3125 15.7018L14.9977 15.8797L14.6829 16.0576L14.6828 16.3379C14.6827 16.5086 14.6869 16.6384 14.6936 16.67C14.7133 16.7628 14.7591 16.8364 14.8291 16.8874C14.9124 16.9482 16.3055 17.7163 16.3562 17.7294C16.4321 17.7491 16.5331 17.7453 16.603 17.72C16.6361 17.708 16.983 17.5203 17.3739 17.3028C18.1488 16.8715 18.1568 16.8662 18.2141 16.7496L18.2422 16.6924V15.8135V14.9346L18.2136 14.8783C18.1598 14.772 18.1411 14.7598 17.3559 14.3205C16.9544 14.0959 16.605 13.9056 16.5795 13.8976C16.5133 13.8769 16.3981 13.8776 16.333 13.8991C16.3034 13.9089 16.0661 14.0386 15.8056 14.1875C15.5451 14.3363 15.176 14.5439 14.9853 14.6487C14.7947 14.7536 14.4305 14.9585 14.1761 15.1042C13.9217 15.2499 13.6913 15.3757 13.6641 15.3838C13.5948 15.4043 13.4772 15.4027 13.4122 15.3802C13.3536 15.36 12.6145 14.947 12.542 14.894C12.487 14.8538 12.4228 14.761 12.4024 14.6926C12.38 14.6171 12.3807 13.7366 12.4032 13.6595C12.4222 13.5946 12.4649 13.5256 12.513 13.4821C12.5639 13.4362 13.3515 13.0003 13.4194 12.9806C13.4794 12.9632 13.5922 12.9655 13.6583 12.9856C13.6777 12.9915 13.8755 13.0973 14.0978 13.2207C14.4692 13.427 14.5068 13.4502 14.5619 13.5076C14.6636 13.6137 14.6668 13.6275 14.6727 13.9882L14.6777 14.2918L14.9882 14.1161L15.2986 13.9403L15.2958 13.6218L15.2929 13.3033L15.2609 13.2382C15.2408 13.1974 15.2113 13.1575 15.1817 13.131C15.1383 13.0922 13.7835 12.3165 13.6896 12.2767C13.6674 12.2673 13.6149 12.2593 13.5596 12.257C13.4808 12.2538 13.4577 12.2566 13.4067 12.2755Z" fill="white"/>
</g>
<defs>
<clipPath id="clip0_4774_59241">
<rect width="10" height="10" fill="white" transform="translate(10 10)"/>
</clipPath>
</defs>
</svg>
