<svg width="20" height="20" viewBox="0 0 20 20" fill="none" xmlns="http://www.w3.org/2000/svg">
<path fill-rule="evenodd" clip-rule="evenodd" d="M3.66206 1.38646L0.0153586 9.04636C0.00148187 9.07486 -0.00291558 9.10704 0.00280934 9.13821C0.00853427 9.16938 0.0240812 9.1979 0.0471767 9.2196L9.89604 18.6572C9.92402 18.684 9.96128 18.699 10 18.699C10.0388 18.699 10.0761 18.684 10.104 18.6572L19.9529 9.22019C19.976 9.19849 19.9915 9.16997 19.9973 9.1388C20.003 9.10763 19.9986 9.07545 19.9847 9.04695L16.338 1.38705C16.3262 1.36132 16.3073 1.33953 16.2835 1.32428C16.2597 1.30902 16.232 1.30095 16.2037 1.30102H3.79758C3.76916 1.30067 3.74124 1.30855 3.71719 1.32371C3.69314 1.33887 3.674 1.36066 3.66206 1.38646V1.38646V1.38646Z" fill="#50AF95"/>
<path fill-rule="evenodd" clip-rule="evenodd" d="M11.2653 9.83298C11.1946 9.83829 10.8293 9.86009 10.0144 9.86009C9.36621 9.86009 8.90603 9.84064 8.74458 9.83298C6.2398 9.7228 4.37019 9.28677 4.37019 8.76472C4.37019 8.24267 6.2398 7.80723 8.74458 7.69528V9.39873C8.90838 9.41051 9.37741 9.4382 10.0256 9.4382C10.8033 9.4382 11.1928 9.4058 11.2629 9.39932V7.69646C13.7624 7.80782 15.6279 8.24385 15.6279 8.76472C15.6279 9.2856 13.763 9.72162 11.2629 9.83239L11.2653 9.83298ZM11.2653 7.52028V5.99596H14.7535V3.67148H5.25638V5.99596H8.74399V7.51969C5.90924 7.64991 3.77744 8.21144 3.77744 8.88433C3.77744 9.55723 5.90924 10.1182 8.74399 10.249V15.1336H11.2647V10.2472C14.093 10.117 16.2212 9.55605 16.2212 8.88375C16.2212 8.21144 14.0947 7.6505 11.2647 7.51969L11.2653 7.52028Z" fill="white"/>
<path d="M16.0803 13.5817L16.8147 12.3357L18.7941 15.4187L18.795 16.0101L18.7885 11.9388C18.7862 11.8897 18.7721 11.8419 18.7474 11.7993C18.7228 11.7568 18.6882 11.7209 18.6467 11.6945L15.083 9.64478C15.0405 9.62455 14.9939 9.61416 14.9468 9.61438C14.8996 9.61461 14.8531 9.62543 14.8108 9.64606C14.7998 9.65158 14.7891 9.65774 14.7788 9.66452L14.7664 9.67236L11.3072 11.6768L11.2938 11.6829C11.2759 11.6912 11.2587 11.7012 11.2427 11.7127C11.1778 11.759 11.1336 11.8289 11.1195 11.9073C11.1173 11.9192 11.1158 11.9312 11.1151 11.9433L11.1205 15.261L12.9642 12.4034C13.1963 12.0245 13.702 11.9024 14.1715 11.909L14.7225 11.9233L11.4758 17.13L11.8585 17.3504L15.1442 11.9285L16.5965 11.9232L13.3193 17.4817L14.6851 18.2677L14.8483 18.3616C14.9187 18.3896 14.9969 18.3911 15.0683 18.366L18.682 16.2717L17.9908 16.6721L16.0803 13.5817ZM16.3605 17.6171L14.9811 15.4522L15.8231 14.0235L17.6346 16.8787L16.3605 17.6171Z" fill="#2D374B"/>
<path d="M14.9811 15.4522L16.3605 17.617L17.6347 16.8786L15.8233 14.0235L14.9811 15.4522Z" fill="#28A0F0"/>
<path d="M18.7952 16.0102L18.7943 15.4187L16.8149 12.3357L16.0801 13.5816L17.991 16.672L18.6822 16.2717C18.7157 16.2445 18.743 16.2107 18.7625 16.1722C18.782 16.1338 18.7932 16.0917 18.7953 16.0487L18.7952 16.0102Z" fill="#28A0F0"/>
<path d="M10.5004 16.5682L11.476 17.1304L14.7228 11.9236L14.1718 11.9094C13.7023 11.9027 13.1965 12.0247 12.9644 12.4037L11.1207 15.2614L10.5007 16.2144V16.5685L10.5004 16.5682Z" fill="white"/>
<path d="M16.5966 11.9235L15.1444 11.9288L11.8588 17.3507L13.0072 18.012L13.3194 17.4823L16.5966 11.9235Z" fill="white"/>
<path d="M19.407 11.9161C19.4003 11.7662 19.3573 11.6202 19.2817 11.4907C19.206 11.3611 19.1 11.2519 18.9727 11.1724L15.3624 9.09627C15.2335 9.03293 15.0918 9 14.9482 9C14.8046 9 14.6629 9.03293 14.5341 9.09627C14.5039 9.11145 11.0231 11.1303 11.0231 11.1303C10.9747 11.1535 10.9285 11.1809 10.8848 11.2121C10.7718 11.2924 10.6785 11.3974 10.6118 11.519C10.5452 11.6406 10.5069 11.7758 10.5 11.9143V16.2142L11.12 15.2612L11.1152 11.9436C11.1181 11.8981 11.1311 11.8538 11.1531 11.8139C11.1752 11.7741 11.2058 11.7396 11.2428 11.713C11.2592 11.7012 14.7995 9.65198 14.8108 9.64635C14.8532 9.62572 14.8996 9.61489 14.9468 9.61467C14.9939 9.61445 15.0405 9.62484 15.0831 9.64507L18.6467 11.6949C18.6882 11.7213 18.7228 11.7573 18.7475 11.7998C18.7721 11.8423 18.7862 11.8901 18.7885 11.9392V16.0491C18.7877 16.0917 18.7777 16.1337 18.7594 16.1721C18.741 16.2106 18.7146 16.2447 18.682 16.2721L17.9907 16.6725L17.6344 16.8791L16.3602 17.6175L15.068 18.3664C14.9966 18.3917 14.9184 18.3901 14.848 18.3621L13.3192 17.4828L13.007 18.0124L14.3809 18.8034C14.4264 18.8292 14.4669 18.8522 14.5001 18.8708C14.5515 18.8994 14.5866 18.919 14.5989 18.9249C14.7139 18.9753 14.8381 19.0009 14.9636 19C15.0787 19.0001 15.1928 18.9787 15.3 18.9367L19.0532 16.7632C19.1591 16.6808 19.2456 16.5762 19.3067 16.4568C19.3678 16.3374 19.402 16.206 19.4068 16.0719L19.407 11.9161Z" fill="#96BEDC"/>
</svg>
