<svg width="20" height="20" viewBox="0 0 20 20" fill="none" xmlns="http://www.w3.org/2000/svg">
<path fill-rule="evenodd" clip-rule="evenodd" d="M3.66206 1.38646L0.0153586 9.04636C0.00148187 9.07486 -0.00291558 9.10704 0.00280934 9.13821C0.00853427 9.16938 0.0240812 9.1979 0.0471767 9.2196L9.89604 18.6572C9.92402 18.684 9.96128 18.699 10 18.699C10.0388 18.699 10.0761 18.684 10.104 18.6572L19.9529 9.22019C19.976 9.19849 19.9915 9.16997 19.9973 9.1388C20.003 9.10763 19.9986 9.07545 19.9847 9.04695L16.338 1.38705C16.3262 1.36132 16.3073 1.33953 16.2835 1.32428C16.2597 1.30902 16.232 1.30095 16.2037 1.30102H3.79758C3.76916 1.30067 3.74124 1.30855 3.71719 1.32371C3.69314 1.33887 3.674 1.36066 3.66206 1.38646V1.38646V1.38646Z" fill="#50AF95"/>
<path fill-rule="evenodd" clip-rule="evenodd" d="M11.2653 9.83298C11.1946 9.83828 10.8293 9.86008 10.0144 9.86008C9.36624 9.86008 8.90606 9.84064 8.74461 9.83298C6.23983 9.72279 4.37022 9.28677 4.37022 8.76471C4.37022 8.24266 6.23983 7.80723 8.74461 7.69527V9.39872C8.90842 9.4105 9.37744 9.4382 10.0256 9.4382C10.8034 9.4382 11.1928 9.40579 11.2629 9.39931V7.69645C13.7624 7.80782 15.6279 8.24384 15.6279 8.76471C15.6279 9.28559 13.763 9.72161 11.2629 9.83239L11.2653 9.83298ZM11.2653 7.52028V5.99596H14.7535V3.67147H5.25641V5.99596H8.74402V7.51969C5.90927 7.6499 3.77747 8.21143 3.77747 8.88433C3.77747 9.55722 5.90927 10.1182 8.74402 10.249V15.1336H11.2647V10.2472C14.093 10.117 16.2213 9.55604 16.2213 8.88374C16.2213 8.21143 14.0948 7.65049 11.2647 7.51969L11.2653 7.52028Z" fill="white"/>
<g clip-path="url(#clip0_5573_44592)">
<path d="M15 20C17.7614 20 20 17.7614 20 15C20 12.2386 17.7614 10 15 10C12.2386 10 10 12.2386 10 15C10 17.7614 12.2386 20 15 20Z" fill="#FF0420"/>
<path d="M13.5411 16.326C13.2809 16.3371 13.0242 16.2634 12.8096 16.1159C12.7169 16.0451 12.6428 15.9527 12.5938 15.8469C12.5448 15.741 12.5223 15.6248 12.5283 15.5083C12.5294 15.4404 12.5357 15.3727 12.5471 15.3057C12.5796 15.1254 12.6258 14.9091 12.6858 14.6568C12.8559 13.9691 13.2947 13.6252 14.0024 13.6252C14.1798 13.6223 14.3559 13.6555 14.52 13.7228C14.6657 13.7799 14.7911 13.8791 14.8801 14.0079C14.9699 14.1405 15.0157 14.2979 15.0112 14.458C15.01 14.5247 15.0037 14.5911 14.9925 14.6568C14.9549 14.8794 14.9099 15.0957 14.8575 15.3057C14.77 15.6483 14.6188 15.9046 14.4036 16.0747C14.1887 16.2422 13.9012 16.326 13.5411 16.326ZM13.5936 15.7858C13.7235 15.7894 13.8503 15.7454 13.95 15.662C14.0602 15.5621 14.1352 15.4292 14.1638 15.2832C14.2213 15.0482 14.265 14.8432 14.2949 14.668C14.305 14.6149 14.31 14.5608 14.3099 14.5067C14.3099 14.2791 14.1912 14.1654 13.9536 14.1654C13.8227 14.1623 13.6949 14.2062 13.5935 14.2892C13.4854 14.3902 13.4118 14.5228 13.3835 14.668C13.3384 14.8356 13.2934 15.0406 13.2485 15.2832C13.2383 15.3351 13.2333 15.3879 13.2335 15.4407C13.2335 15.6708 13.3535 15.7858 13.5936 15.7858Z" fill="white"/>
<path d="M15.184 16.2885C15.172 16.2892 15.1601 16.2872 15.1491 16.2827C15.138 16.2781 15.1282 16.2712 15.1202 16.2623C15.1077 16.2421 15.1037 16.2179 15.109 16.1947L15.6266 13.7566C15.6312 13.7296 15.6458 13.7055 15.6676 13.689C15.6877 13.6724 15.7128 13.6632 15.7389 13.6628H16.7367C16.9716 13.6513 17.2044 13.7114 17.4044 13.8353C17.4866 13.8892 17.5533 13.9635 17.598 14.051C17.6428 14.1385 17.6639 14.2361 17.6594 14.3343C17.6591 14.3999 17.6515 14.4653 17.6369 14.5293C17.5955 14.7821 17.4602 15.0098 17.2581 15.167C17.0705 15.3046 16.8129 15.3734 16.4854 15.3734H15.979L15.8065 16.1948C15.8019 16.2217 15.7873 16.2459 15.7655 16.2624C15.7454 16.2789 15.7203 16.2882 15.6943 16.2886L15.184 16.2885ZM16.5118 14.8556C16.6101 14.8577 16.7064 14.8274 16.7857 14.7693C16.8673 14.7094 16.9235 14.6211 16.9432 14.5218C16.9502 14.4847 16.9539 14.447 16.9544 14.4093C16.9566 14.3787 16.952 14.3481 16.941 14.3196C16.9299 14.2911 16.9128 14.2653 16.8907 14.2442C16.8281 14.1979 16.7506 14.1766 16.6731 14.1842H16.2231L16.0805 14.8556H16.5118Z" fill="white"/>
</g>
<defs>
<clipPath id="clip0_5573_44592">
<rect width="10" height="10" fill="white" transform="translate(10 10)"/>
</clipPath>
</defs>
</svg>
