<svg width="20" height="20" viewBox="0 0 20 20" fill="none" xmlns="http://www.w3.org/2000/svg">
<circle cx="10" cy="10" r="10" fill="#DA1A5E"/>
<path d="M11.7223 11.427L7.18607 6.89078C6.36275 6.06746 5.02788 6.06746 4.20455 6.89078L4.20379 6.89154C3.38047 7.71487 3.38047 9.04974 4.20379 9.87306L8.73999 14.4093C9.56332 15.2326 10.8982 15.2326 11.7215 14.4093L11.7223 14.4085C12.5456 13.5852 12.5456 12.2503 11.7223 11.427Z" fill="white"/>
<path d="M14.3797 10.4919C15.5441 10.4919 16.488 9.548 16.488 8.38364C16.488 7.21929 15.5441 6.27539 14.3797 6.27539C13.2154 6.27539 12.2715 7.21929 12.2715 8.38364C12.2715 9.548 13.2154 10.4919 14.3797 10.4919Z" fill="white"/>
</svg>
