<svg width="20" height="20" viewBox="0 0 20 20" fill="none" xmlns="http://www.w3.org/2000/svg">
<path fill-rule="evenodd" clip-rule="evenodd" d="M1.00855 1.82572C1.80862 0.736447 2.89754 0.23465 4.8402 0.0601172C5.38013 0.0116055 8.05524 -0.0124868 10.7849 0.0064818C12.4985 0.0183838 13.7173 0.031716 14.6163 0.0618431L12.6789 4.36493L12.521 4.36861L11.3466 7.03948C10.7007 8.50846 10.1354 9.80781 10.0904 9.92685C10.0279 10.0919 9.72456 9.49591 8.81431 7.4195C8.15756 5.92142 7.57847 4.62207 7.52742 4.53213C7.4551 4.40459 7.15743 4.36185 6.17323 4.33798C5.41613 4.31955 4.88492 4.35084 4.84445 4.41625C4.79749 4.49218 7.23235 10.1101 8.66042 13.2904L5.672 19.928C4.35547 19.8936 3.75942 19.8469 3.47358 19.7727C2.2169 19.4464 1.17052 18.646 0.629939 17.5975C0.111169 16.5916 0.0741924 16.2061 0.0165998 11.2071C-0.059645 4.59623 0.10288 3.05879 1.00855 1.82572Z" fill="url(#paint0_linear_3293_16687)"/>
<path d="M9.1028 19.9821C16.2745 20.0575 17.2236 19.9369 18.4783 18.7909C19.2256 18.1083 19.5556 17.557 19.8047 16.5759C19.9769 15.8974 19.998 15.2086 19.9998 10.2009C20.0019 4.19331 19.9598 3.59569 19.4568 2.48962C19.1518 1.81918 18.3149 0.943241 17.6602 0.609437C16.9763 0.2607 16.4922 0.124703 14.6162 0.0618362L12.6788 4.36492L13.8343 4.33797C14.9493 4.31202 15.1478 4.33241 15.1478 4.47282C15.1478 4.65335 10.4966 15.2935 10.3208 15.5154C10.1515 15.7288 9.82358 15.6755 9.64917 15.4064C9.56022 15.2691 9.17587 14.4386 8.66029 13.2904L5.67188 19.928C6.49802 19.9496 7.60787 19.9663 9.1028 19.9821Z" fill="url(#paint1_linear_3293_16687)"/>
<path d="M7.74565 4.75016C7.79669 4.8401 8.37578 6.13945 9.03254 7.63754C9.94278 9.71395 10.2461 10.3099 10.3086 10.1449C10.3537 10.0258 10.9189 8.72649 11.5649 7.25751L12.7392 4.58664L14.0527 4.55601C15.1677 4.53006 15.3662 4.55045 15.3662 4.69086C15.3662 4.87139 10.7149 15.5116 10.5391 15.7334C10.3698 15.9469 10.0419 15.8936 9.86752 15.6244C9.53222 15.107 4.99876 4.73763 5.06268 4.63428C5.10315 4.56887 5.63435 4.53758 6.39146 4.55601C7.37566 4.57988 7.67333 4.62262 7.74565 4.75016Z" fill="#2E299E"/>
<path d="M7.52739 4.53213C7.57843 4.62207 8.15752 5.92142 8.81427 7.4195C9.72452 9.49591 10.0279 10.0919 10.0904 9.92685C10.1354 9.80781 10.7007 8.50845 11.3466 7.03948L12.5209 4.36861L13.8344 4.33798C14.9494 4.31203 15.1479 4.33242 15.1479 4.47283C15.1479 4.65336 10.4967 15.2936 10.3208 15.5154C10.1516 15.7288 9.82367 15.6755 9.64926 15.4064C9.31396 14.889 4.7805 4.51959 4.84442 4.41625C4.88489 4.35084 5.41609 4.31955 6.17319 4.33798C7.1574 4.36185 7.45507 4.40458 7.52739 4.53213Z" fill="white"/>
<defs>
<linearGradient id="paint0_linear_3293_16687" x1="10" y1="2.32744e-07" x2="2.18916" y2="19.2523" gradientUnits="userSpaceOnUse">
<stop stop-color="#5B62FE"/>
<stop offset="0.368213" stop-color="#5357EC"/>
<stop offset="1" stop-color="#3831AB"/>
</linearGradient>
<linearGradient id="paint1_linear_3293_16687" x1="18.1066" y1="0.771113" x2="12.1681" y2="20.0142" gradientUnits="userSpaceOnUse">
<stop stop-color="#4E48DD"/>
<stop offset="0.441175" stop-color="#4A42D4"/>
<stop offset="1" stop-color="#272270"/>
</linearGradient>
</defs>
</svg>
