<svg width="20" height="20" viewBox="0 0 20 20" fill="none" xmlns="http://www.w3.org/2000/svg">
<path d="M10 20C15.5228 20 20 15.5228 20 10C20 4.47715 15.5228 0 10 0C4.47715 0 0 4.47715 0 10C0 15.5228 4.47715 20 10 20Z" fill="#56C0CD"/>
<path fill-rule="evenodd" clip-rule="evenodd" d="M6.22654 2.828C6.84677 2.828 7.34956 3.3308 7.34956 3.95103V14.1327L9.14715 13.1259V6.54814C9.14715 6.14648 9.36167 5.7754 9.70974 5.57495C10.0578 5.37451 10.4864 5.37522 10.8338 5.57682L17.1787 9.2588C17.5276 9.46127 17.7411 9.8353 17.738 10.2387C17.7349 10.642 17.5157 11.0128 17.1638 11.2099L6.77535 17.0287C6.42758 17.2235 6.00261 17.2194 5.65871 17.0178C5.31481 16.8163 5.10352 16.4476 5.10352 16.049V3.95103C5.10352 3.3308 5.60631 2.828 6.22654 2.828ZM11.3932 11.8678L14.3478 10.2129L11.3932 8.49827V11.8678Z" fill="white"/>
</svg>
