<svg width="20" height="20" viewBox="0 0 20 20" fill="none" xmlns="http://www.w3.org/2000/svg">
<g clip-path="url(#clip0_2800_4516)">
<path d="M15.4064 0.0381517C16.0504 0.125332 16.5461 0.450642 16.8928 0.993362C17.6812 2.22716 18.1083 3.58967 18.3016 5.03188C18.4185 5.90363 18.4427 6.77857 18.3736 7.65582C18.37 7.70178 18.3614 7.75416 18.3781 7.79385C18.5533 8.20981 18.6919 8.64824 18.9198 9.03363C19.5476 10.0956 19.9836 11.2119 19.9995 12.4586C20.0147 13.6493 19.6558 14.7318 18.9747 15.7051C18.0633 17.0073 16.8124 17.8898 15.3959 18.5563C13.8007 19.3068 12.1115 19.7131 10.363 19.8885C8.75702 20.0496 7.16407 19.9945 5.59755 19.5718C4.32392 19.2281 3.16398 18.6663 2.2242 17.7179C0.964968 16.447 0.493528 14.8941 0.648138 13.1368C0.685588 12.7111 0.802178 12.293 0.857158 11.8682C0.912928 11.4373 0.939878 11.0025 0.972628 10.5689C0.976588 10.5165 0.940288 10.46 0.918868 10.4069C0.272218 8.80515 -0.0810117 7.14554 0.0158283 5.41434C0.0502683 4.79861 0.150178 4.17811 0.298088 3.57903C0.552018 2.5505 1.51118 1.97083 2.62064 2.07572C3.88453 2.19521 5.02831 2.63348 6.09621 3.31369C6.90664 2.96475 7.75247 2.73042 8.62481 2.59067C9.49881 2.45065 10.3775 2.41523 11.2589 2.49228C11.9125 1.69617 12.6597 1.02431 13.5608 0.538962C13.9888 0.308392 14.4233 0.0849917 14.9195 0.0329417C14.9665 0.0242517 15.3493 0.0277217 15.4064 0.0381617V0.0381517ZM17.0837 7.26143L17.0487 7.22355L17.0501 7.22541L17.0134 7.15432L17.0147 7.15576L16.9448 7.04981L16.9451 7.05013L16.8753 6.94535L16.8751 6.94504L16.7374 6.73342C15.7197 5.26796 14.4044 4.18071 12.6783 3.67331C10.3595 2.99167 8.10749 3.28399 5.97351 4.35613C3.95957 5.36796 2.76099 7.06963 2.15279 9.21261L2.02076 9.73828L2.02117 9.73504L1.98367 9.88622C1.97307 9.92512 1.95774 9.96339 1.95256 10.003C1.84794 10.8031 1.74448 11.6034 1.64075 12.4037L1.50921 13.953C1.50796 14.0224 1.50046 14.0922 1.50637 14.1609C1.62583 15.5497 2.23133 16.6798 3.33256 17.5323C4.58312 18.5004 6.04568 18.8972 7.58719 19.0432C9.32115 19.2073 11.0305 19.0244 12.7126 18.5901C14.3772 18.1604 15.9332 17.4976 17.2376 16.3442C18.3107 15.3954 19.0304 14.248 19.1122 12.7753C19.1412 12.2537 19.1105 11.7349 18.9255 11.2372L18.31 9.75425C18.1274 9.35744 17.9514 8.95745 17.7606 8.56467C17.5592 8.15018 17.3437 7.74255 17.1344 7.33193L17.0822 7.25925L17.0837 7.26144V7.26143ZM15.243 0.899212L15.0061 0.903642C14.6122 1.06654 14.2002 1.19641 13.828 1.39933C13.0915 1.80087 12.489 2.36981 11.9436 3.03989L12.5767 3.19168C12.6474 3.12225 12.7116 3.06388 12.7706 3.00066C13.2197 2.51931 13.7375 2.13467 14.3444 1.87406C15.0578 1.56772 15.5901 1.74033 15.9809 2.40987C16.6179 3.50115 16.8827 4.68974 16.8811 5.94259C16.8808 6.15612 16.93 6.32785 17.0839 6.47103L17.5027 7.12741L17.592 7.10372C17.5147 6.29674 17.4715 5.48464 17.3517 4.68401C17.1821 3.55037 16.7981 2.48381 16.1841 1.50764C15.9645 1.15845 15.6638 0.936192 15.243 0.899202L15.243 0.899212ZM2.20078 7.80138C2.4581 7.34844 2.69676 6.88356 2.97712 6.44537C3.39641 5.79005 3.94856 5.24959 4.54158 4.75064L4.77604 4.58877C4.20006 4.25589 3.60969 4.03918 2.97063 3.986C2.28661 3.92908 1.9994 4.15166 1.85867 4.8218C1.69814 5.58622 1.70408 6.35494 1.83413 7.12217C1.89042 7.45427 1.97194 7.7821 2.04199 8.11187L2.0869 8.10796L2.20077 7.80136L2.20078 7.80138ZM13.1538 3.36061C13.2429 3.40131 13.3304 3.44565 13.4211 3.48215C14.5449 3.93443 15.4931 4.6359 16.3141 5.51847L16.5661 5.80827C16.5584 5.38585 16.5208 4.98152 16.4529 4.58236C16.3241 3.82591 16.0659 3.11434 15.659 2.4605C15.4103 2.06081 15.0306 1.92285 14.5962 2.10143C14.3348 2.20889 14.0722 2.33133 13.842 2.49259C13.5145 2.72208 13.2162 2.99342 12.9054 3.24689L12.9406 3.30817L13.1539 3.36061H13.1538ZM5.61626 4.04417C4.6303 3.4205 3.60512 3.01388 2.46644 2.94269C1.71106 2.89546 1.25224 3.26316 1.08118 4.00046C0.783208 5.28476 0.810018 6.57073 1.07418 7.85224C1.20114 8.46819 1.3833 9.07275 1.54046 9.68247C1.65807 9.42994 1.70916 9.18474 1.79268 8.95115C1.87464 8.7219 1.86379 8.51552 1.79242 8.28098C1.42336 7.06815 1.30626 5.83767 1.60623 4.58924C1.72843 4.08068 2.04195 3.75537 2.56438 3.68541C2.78943 3.65527 3.02756 3.69044 3.25585 3.72317C3.90149 3.81575 4.4925 4.06439 5.04901 4.3957L5.61627 4.04419L5.61626 4.04417Z" fill="#020251"/>
<path d="M1.64065 12.4036C1.74434 11.6034 1.8478 10.8031 1.95243 10.003C1.95761 9.9634 1.97294 9.92513 1.98354 9.88609L2.02104 9.73505L2.02062 9.73829L2.19607 9.21512C2.57113 8.15926 3.09896 7.19146 3.85463 6.35738C4.94594 5.15283 6.30953 4.40778 7.87369 4.02456C8.46165 3.88051 9.06498 3.79935 9.64913 3.69177C9.89079 4.27294 11.349 4.31947 11.8503 3.76033C12.3948 3.9339 12.9808 4.0817 13.5361 4.30556C14.8216 4.82371 15.8441 5.69592 16.7008 6.77297L16.875 6.94508L16.8751 6.9454L16.945 7.05018L16.9446 7.04986L17.0145 7.15582L17.0133 7.15438L17.05 7.22547L17.0485 7.22361L17.0835 7.26148L17.082 7.25929L17.1342 7.33197C17.3436 7.74259 17.5591 8.15022 17.7604 8.56471C17.9513 8.95749 18.1273 9.35747 18.3098 9.75429C18.0743 9.91887 17.79 10.0435 17.6152 10.2577C17.3739 10.5534 17.1832 10.9025 17.0296 11.2544C16.854 11.6569 16.6074 11.9777 16.2224 12.1769C15.389 12.6081 14.5333 12.6404 13.674 12.2596C13.0541 11.9849 12.4162 11.7883 11.7388 11.7301C11.5456 11.6459 11.3594 11.5167 11.1581 11.4857C10.4244 11.3727 9.71062 11.4923 9.04045 11.8007C8.8364 11.8946 8.6811 12.0945 8.50346 12.2458L8.46471 12.2611L8.47404 12.2858L8.47781 12.2827C8.43636 12.2912 8.39132 12.292 8.354 12.3094C7.8137 12.5612 7.3212 12.8868 6.88913 13.2972C6.52715 13.641 6.10965 13.8818 5.62778 13.9999C4.69096 14.2295 3.85693 14.1392 3.21168 13.2968C2.82526 12.7924 2.30832 12.4476 1.64062 12.4037L1.64065 12.4036ZM4.59446 10.9843L4.60168 11.07C4.67418 11.0835 4.75072 11.1194 4.81853 11.1071C5.4061 11.0006 5.96476 11.0855 6.4884 11.3649C6.74344 11.501 6.98062 11.6705 7.22704 11.823C7.4054 11.9333 7.60584 11.9049 7.72858 11.7553C7.85485 11.6014 7.83841 11.3877 7.68859 11.2356C6.98238 10.5188 5.6021 10.3392 4.74446 10.8549C4.68868 10.8884 4.6442 10.9407 4.59446 10.9843V10.9843ZM12.6132 11.0845C12.679 11.0242 12.8166 10.9322 12.9099 10.807C13.4165 10.1275 14.0255 9.61507 14.9031 9.5037C14.9593 9.49656 15.0068 9.42051 15.0584 9.37651C15.0048 9.33328 14.9545 9.25809 14.8971 9.25238C14.6511 9.22785 14.3984 9.18791 14.1564 9.2187C13.3036 9.32722 12.6564 9.7723 12.2106 10.5032C12.0496 10.7671 12.2257 11.0819 12.6132 11.0845V11.0845ZM12.5537 7.91779C12.0939 7.92223 11.5293 8.48086 11.5213 8.93937C11.5172 9.1727 11.6893 9.33145 11.9246 9.3114C12.3654 9.27384 12.8752 8.78298 12.9269 8.34631C12.9583 8.08138 12.8136 7.91528 12.5537 7.91779ZM7.30116 10.0176C7.6106 10.0203 7.78443 9.94541 7.83737 9.80598C7.90949 9.61606 7.8178 9.46449 7.69726 9.33224C7.44127 9.05139 7.12347 8.86811 6.74231 8.85716C6.60572 8.85324 6.43231 8.92907 6.33584 9.02749C6.20858 9.15733 6.27386 9.33524 6.3724 9.47638C6.61514 9.82406 6.95981 9.98796 7.30117 10.0176L7.30116 10.0176Z" fill="#007AFE"/>
<path d="M11.739 11.73C12.4164 11.7883 13.0544 11.9848 13.6743 12.2596C14.5335 12.6404 15.3893 12.608 16.2226 12.1768C16.6077 11.9776 16.8542 11.6568 17.0298 11.2544C17.1834 10.9024 17.3741 10.5533 17.6154 10.2576C17.7902 10.0435 18.0745 9.91879 18.31 9.75421C18.5152 10.2485 18.7204 10.7428 18.9256 11.2371C18.9149 11.3032 18.9004 11.3688 18.8941 11.4353C18.8653 11.7403 18.8627 12.0499 18.8076 12.35C18.5577 13.7091 17.7817 14.7418 16.7359 15.591C15.7139 16.4209 14.5444 16.9764 13.2942 17.3674C11.3074 17.9889 9.27863 18.2248 7.20429 18.0022C6.0698 17.8805 4.98564 17.5801 3.98828 17.0134C2.80603 16.3416 1.95801 15.3904 1.57445 14.0614C1.56315 14.0223 1.53146 13.989 1.50928 13.953L1.64084 12.4036C2.30855 12.4475 2.82548 12.7923 3.2119 13.2967C3.85715 14.139 4.69118 14.2294 5.628 13.9998C6.10986 13.8817 6.52737 13.6409 6.88936 13.2971C7.32144 12.8866 7.81392 12.5611 8.35422 12.3093C8.39154 12.2919 8.46223 12.2543 8.50368 12.2457C8.49817 12.3142 8.46701 12.4195 8.4615 12.4879C8.44187 12.5361 8.40393 12.5849 8.40548 12.6324C8.41899 13.0456 8.68618 13.2858 9.00341 13.4889C9.05612 13.5226 9.11135 13.5525 9.17146 13.5876L9.16035 13.733C8.53842 14.2108 7.83001 14.3012 7.26529 13.982C7.17639 13.9317 7.0922 13.8731 7.00583 13.8184L6.8292 13.5594V13.992C6.81887 14.029 6.79945 14.066 6.7996 14.1029C6.80127 14.5046 6.99897 14.8036 7.29061 15.0602C7.3877 15.1456 7.47123 15.2542 7.53678 15.3664C7.95097 16.0752 8.44807 16.7105 9.14963 17.1555C9.33987 17.2762 9.56415 17.3432 9.77281 17.4349L9.82722 17.4559L9.92 17.4915C10.7776 17.7626 11.5394 17.5925 12.2083 16.9945C12.2657 16.9609 12.3321 16.9367 12.3791 16.8922C12.7868 16.5062 13.0544 16.0279 13.2796 15.5204C13.5444 14.9237 13.5947 14.257 13.9135 13.6729C14.0519 13.4194 14.0338 13.1038 13.8552 12.8355L13.7248 12.4684L13.6546 12.7665C13.6279 12.7857 13.5917 12.7991 13.5759 12.825C13.3558 13.1876 13.0252 13.391 12.6162 13.4488C12.2554 13.4997 11.8897 13.5093 11.5105 13.3128C11.553 13.2303 11.5875 13.1597 11.625 13.0908C11.7403 12.8791 11.8821 12.6774 11.9645 12.4537C12.0284 12.2804 12.0249 12.0786 11.8579 11.9318L11.739 11.73L11.739 11.73Z" fill="#FDFDFE"/>
<path d="M1.509 13.953C1.53118 13.989 1.56287 14.0223 1.57417 14.0614C1.95774 15.3904 2.80576 16.3416 3.988 17.0134C4.98537 17.5801 6.06953 17.8805 7.20401 18.0022C9.27835 18.2248 11.3072 17.9889 13.2939 17.3674C14.5442 16.9764 15.7136 16.4209 16.7357 15.591C17.7814 14.7418 18.5574 13.7091 18.8073 12.35C18.8624 12.0499 18.8651 11.7403 18.8938 11.4353C18.9001 11.3688 18.9146 11.3032 18.9253 11.2371C19.1102 11.7349 19.141 12.2537 19.112 12.7753C19.0302 14.2479 18.3105 15.3953 17.2374 16.3441C15.933 17.4975 14.377 18.1603 12.7124 18.5901C11.0303 19.0244 9.32093 19.2073 7.58697 19.0431C6.04546 18.8972 4.5829 18.5003 3.33234 17.5322C2.23111 16.6797 1.62561 15.5496 1.50615 14.1609C1.50024 14.0922 1.50774 14.0223 1.50899 13.953L1.509 13.953Z" fill="#B1B1D3"/>
<path d="M5.61615 4.0442L5.04889 4.39571C4.49238 4.0644 3.90137 3.81576 3.25573 3.72318C3.02744 3.69045 2.78931 3.65528 2.56426 3.68542C2.04183 3.75538 1.72831 4.08069 1.60611 4.58925C1.30614 5.83768 1.42324 7.06816 1.7923 8.28099C1.86367 8.51553 1.87453 8.72191 1.79256 8.95116C1.70905 9.18476 1.65796 9.42995 1.54034 9.68248C1.38318 9.07276 1.20102 8.4682 1.07406 7.85225C0.80991 6.57074 0.78309 5.28477 1.08106 4.00047C1.25212 3.26317 1.71093 2.89548 2.46632 2.9427C3.60499 3.01389 4.63018 3.42052 5.61614 4.04418L5.61615 4.0442Z" fill="#0077FB"/>
<path d="M17.0841 6.47103C16.9302 6.32785 16.881 6.15612 16.8813 5.94259C16.8829 4.68974 16.6181 3.50115 15.9811 2.40987C15.5903 1.74034 15.058 1.56772 14.3446 1.87406C13.7377 2.13467 13.2199 2.51931 12.7708 3.00066C12.7118 3.06388 12.6476 3.12225 12.5769 3.19168L11.9438 3.03989C12.4892 2.3698 13.0917 1.80086 13.8282 1.39933C14.2004 1.19641 14.6124 1.06654 15.0061 0.903687L15.2316 0.937507C15.5967 1.05422 15.8744 1.28143 16.0533 1.61828C16.8597 3.13687 17.1403 4.76844 17.0841 6.47102L17.0841 6.47103Z" fill="#0178FB"/>
<path d="M16.3139 5.51846C15.493 4.63589 14.5448 3.93442 13.421 3.48214C13.3303 3.44564 13.2428 3.40129 13.1538 3.36058C13.204 3.33499 13.2545 3.31004 13.3043 3.28372C13.6407 3.10579 13.9657 2.89988 14.3162 2.7563C14.7788 2.56676 15.2753 2.74935 15.4991 3.19925C15.7553 3.71449 15.9788 4.24789 16.1837 4.78594C16.2703 5.01364 16.2731 5.27332 16.3139 5.51846Z" fill="#FD689E"/>
<path d="M4.54174 4.75064C3.94871 5.24958 3.39657 5.79005 2.97728 6.44537C2.69692 6.88355 2.45826 7.34844 2.20094 7.80136C2.09095 7.02848 2.08459 6.25802 2.23115 5.48743C2.36774 4.76927 2.84278 4.39279 3.49555 4.51638C3.84649 4.58282 4.19315 4.67183 4.54175 4.75065L4.54174 4.75064Z" fill="#FD689E"/>
<path d="M4.54156 4.75063C4.19297 4.67181 3.8463 4.5828 3.49536 4.51636C2.8426 4.39278 2.36755 4.76926 2.23096 5.48741C2.0844 6.258 2.09076 7.02846 2.20075 7.80134L2.08688 8.10796L2.04197 8.11187C1.97191 7.7821 1.8904 7.45427 1.83411 7.12217C1.70406 6.35493 1.69813 5.58622 1.85865 4.8218C1.99938 4.15166 2.28659 3.92908 2.97061 3.986C3.60967 4.03918 4.20004 4.25589 4.77602 4.58877L4.54156 4.75064V4.75063Z" fill="#B14890"/>
<path d="M16.3139 5.51849C16.273 5.27335 16.2703 5.01367 16.1836 4.78597C15.9788 4.24792 15.7553 3.71453 15.499 3.19928C15.2753 2.74938 14.7788 2.56679 14.3161 2.75633C13.9656 2.89992 13.6407 3.10583 13.3042 3.28375C13.2545 3.31007 13.204 3.33501 13.1538 3.36061L12.9405 3.30818L12.9053 3.2469C13.216 2.99344 13.5143 2.72209 13.8419 2.4926C14.072 2.33134 14.3346 2.2089 14.596 2.10144C15.0304 1.92286 15.4102 2.06082 15.6589 2.46051C16.0658 3.11435 16.3239 3.82592 16.4527 4.58237C16.5207 4.98153 16.5583 5.38587 16.5659 5.80828L16.3139 5.51848V5.51849Z" fill="#B04890"/>
<path d="M16.7376 6.73344C15.72 5.26799 14.4046 4.18074 12.6785 3.67334C10.3597 2.9917 8.10773 3.28402 5.97375 4.35616C3.95981 5.36799 2.76123 7.06966 2.15303 9.21264L2.021 9.7383L2.19644 9.21511C2.5715 8.15927 3.09933 7.19147 3.85501 6.35739C4.94632 5.15284 6.3099 4.40779 7.87407 4.02457C8.46202 3.88052 9.06536 3.79936 9.64951 3.69178C9.89117 4.27295 11.3494 4.31948 11.8506 3.76034C12.3952 3.93391 12.9811 4.08171 13.5365 4.30556C14.8219 4.82371 15.8445 5.69592 16.7012 6.77297L16.8754 6.94508L16.7376 6.73345L16.7376 6.73344Z" fill="#ADD2FC"/>
<path d="M17.3517 4.68404C17.1821 3.5504 16.798 2.48384 16.184 1.50767C15.9644 1.15848 15.6638 0.936221 15.2429 0.899231L15.0059 0.903721L15.2314 0.937611C15.5965 1.05425 15.8741 1.28146 16.053 1.61831C16.8594 3.1369 17.14 4.76847 17.0839 6.47106L17.5026 7.12744L17.592 7.10375C17.5146 6.29677 17.4714 5.48467 17.3517 4.68404Z" fill="#ADD2FC"/>
<path d="M12.2082 16.9945C11.5393 17.5925 10.7775 17.7626 9.91988 17.4915L9.82711 17.4559L9.7727 17.4349C8.75485 16.8889 8.19876 15.9661 7.75355 14.9456C7.28305 14.7876 6.97608 14.4664 6.8291 13.9921V13.5594L7.00573 13.8184C7.03099 13.8694 7.05308 13.9223 7.08199 13.9711C7.58082 14.8141 8.8023 14.7413 9.39152 14.3466C9.67562 14.1562 9.88672 13.9055 10.02 13.5978C9.78858 13.5402 9.56723 13.5087 9.36441 13.4297C8.92303 13.2577 8.54598 13.0091 8.4614 12.488L8.47794 12.2826L8.50358 12.2458C8.68121 12.0944 8.83653 11.8945 9.04058 11.8006C9.71075 11.4922 10.4246 11.3726 11.1583 11.4856C11.3596 11.5166 11.5458 11.6458 11.7389 11.73L11.8579 11.9318C11.9188 12.7738 11.3404 13.1445 10.7117 13.4759C11.1553 14.0082 11.8453 14.1828 12.5677 13.9606C13.168 13.7759 13.5598 13.4083 13.6545 12.7665L13.7247 12.4685L13.8551 12.8355C13.9043 13.3623 13.6797 13.7646 13.2845 14.0734C13.1863 15.1543 12.9416 16.165 12.2082 16.9945L12.2082 16.9945ZM9.09988 16.049L8.97946 16.2352C9.49466 16.835 10.0689 17.2959 10.8978 17.1833C11.7737 17.0642 12.2096 16.4365 12.5221 15.6716L12.3086 15.4884C11.6545 15.0045 10.9364 15.032 10.2047 15.2421C9.7433 15.3747 9.34676 15.6139 9.09987 16.049H9.09988ZM10.7332 11.9322C10.4776 11.767 9.66153 11.8973 9.48543 12.1228C9.70639 12.2892 10.5137 12.1714 10.7332 11.9322Z" fill="#020250"/>
<path d="M4.59473 10.9843C4.64447 10.9407 4.68897 10.8884 4.74474 10.8549C5.60239 10.3392 6.98265 10.5188 7.68886 11.2356C7.83868 11.3877 7.85512 11.6014 7.72885 11.7553C7.60611 11.9049 7.40567 11.9333 7.22731 11.8229C6.98089 11.6705 6.74371 11.501 6.48867 11.3649C5.96502 11.0855 5.40637 11.0005 4.81881 11.1071C4.751 11.1194 4.67445 11.0835 4.60195 11.0699L4.59473 10.9843V10.9843Z" fill="#000252"/>
<path d="M12.6134 11.0844C12.2259 11.0819 12.0499 10.7671 12.2109 10.5031C12.6566 9.77224 13.3038 9.32715 14.1567 9.21864C14.3987 9.18785 14.6513 9.2278 14.8974 9.25232C14.9547 9.25803 15.0051 9.33323 15.0587 9.37645C15.0071 9.42045 14.9596 9.49651 14.9034 9.50364C14.0258 9.61502 13.4168 10.1275 12.9102 10.807C12.8169 10.9321 12.6792 11.0242 12.6134 11.0844V11.0844Z" fill="#000252"/>
<path d="M12.5539 7.91775C12.8139 7.91524 12.9585 8.08134 12.9271 8.34627C12.8754 8.78294 12.3656 9.2738 11.9249 9.31136C11.6896 9.33141 11.5175 9.17266 11.5216 8.93933C11.5296 8.48082 12.0941 7.92218 12.5539 7.91775Z" fill="#FAFCFE"/>
<path d="M7.30144 10.0176C6.96009 9.98794 6.61541 9.82404 6.37267 9.47636C6.27413 9.33522 6.20886 9.15731 6.33612 9.02747C6.43259 8.92905 6.606 8.85322 6.74259 8.85714C7.12376 8.86809 7.44154 9.05137 7.69753 9.33222C7.81807 9.46447 7.90976 9.61603 7.83764 9.80596C7.7847 9.94539 7.61087 10.0202 7.30143 10.0176L7.30144 10.0176Z" fill="#FAFCFE"/>
<path d="M13.6548 12.7665C13.56 13.4083 13.1683 13.7759 12.568 13.9606C11.8455 14.1828 11.1556 14.0082 10.7119 13.4759C11.3406 13.1445 11.919 12.7738 11.8581 11.9318C12.0251 12.0786 12.0285 12.2805 11.9647 12.4537C11.8822 12.6774 11.7405 12.8791 11.6252 13.0908C11.5877 13.1597 11.5531 13.2303 11.5107 13.3128C11.8898 13.5093 12.2555 13.4997 12.6164 13.4488C13.0254 13.391 13.3559 13.1876 13.5761 12.8251C13.5918 12.7992 13.6281 12.7858 13.6548 12.7665H13.6548Z" fill="#B0B0D2"/>
<path d="M8.46153 12.488C8.54611 13.0091 8.92317 13.2577 9.36454 13.4297C9.56736 13.5087 9.78872 13.5402 10.0201 13.5978C9.88685 13.9056 9.67575 14.1563 9.39165 14.3466C8.80243 14.7414 7.58095 14.8142 7.08212 13.9712C7.05322 13.9223 7.03112 13.8694 7.00586 13.8184C7.09223 13.8732 7.17641 13.9318 7.26532 13.982C7.83004 14.3012 8.53845 14.2108 9.16038 13.733L9.17149 13.5877C9.11138 13.5525 9.05616 13.5227 9.00344 13.4889C8.68621 13.2858 8.41902 13.0457 8.40551 12.6324C8.40396 12.5849 8.4419 12.5362 8.46153 12.488V12.488Z" fill="#B0B0D2"/>
<path d="M6.82892 13.9921C6.9759 14.4664 7.28286 14.7876 7.75337 14.9456C8.19858 15.9661 8.75468 16.8889 9.77252 17.4349C9.56387 17.3432 9.33959 17.2762 9.14935 17.1556C8.44779 16.7105 7.9507 16.0752 7.5365 15.3664C7.47096 15.2542 7.38742 15.1456 7.29033 15.0602C6.99869 14.8036 6.80099 14.5047 6.79932 14.1029C6.79917 14.066 6.81859 14.029 6.82892 13.9921Z" fill="#B0B0D2"/>
<path d="M12.2085 16.9945C12.9419 16.1651 13.1865 15.1543 13.2848 14.0734C13.6799 13.7646 13.9045 13.3624 13.8554 12.8355C14.0339 13.1039 14.052 13.4195 13.9137 13.6729C13.5948 14.257 13.5445 14.9238 13.2797 15.5205C13.0545 16.028 12.787 16.5062 12.3793 16.8922C12.3322 16.9368 12.2659 16.9609 12.2085 16.9945H12.2085Z" fill="#B0B0D2"/>
<path d="M9.1001 16.049C9.34699 15.6138 9.74353 15.3747 10.2049 15.2421C10.9366 15.0319 11.6547 15.0044 12.3088 15.4884C12.2892 15.5357 12.2781 15.5891 12.2489 15.6293C11.7643 16.2938 10.8118 16.6526 10.0169 16.435C9.69983 16.3482 9.40503 16.1801 9.1001 16.049V16.049Z" fill="#FC4792"/>
<path d="M9.09989 16.049C9.40482 16.1801 9.69962 16.3482 10.0167 16.435C10.8115 16.6525 11.7641 16.2937 12.2487 15.6293C12.2779 15.5891 12.289 15.5357 12.3086 15.4884L12.5221 15.6715C12.2097 16.4364 11.7737 17.0641 10.8978 17.1832C10.069 17.2959 9.49469 16.835 8.97949 16.2352L9.09991 16.049L9.09989 16.049Z" fill="#B03188"/>
<path d="M10.7331 11.9322C10.5136 12.1714 9.70631 12.2892 9.48535 12.1228C9.66145 11.8973 10.4775 11.767 10.7331 11.9322Z" fill="#F3F3F6"/>
</g>
<defs>
<clipPath id="clip0_2800_4516">
<rect width="20" height="20" fill="white"/>
</clipPath>
</defs>
</svg>
