<svg width="20" height="20" viewBox="0 0 20 20" fill="none" xmlns="http://www.w3.org/2000/svg">
<path d="M10 20C15.5228 20 20 15.5228 20 10C20 4.47715 15.5228 0 10 0C4.47715 0 0 4.47715 0 10C0 15.5228 4.47715 20 10 20Z" fill="url(#paint0_radial_4520_57893)"/>
<path d="M9.89492 14.6699C9.80467 14.6763 9.67041 14.537 9.57747 14.549C9.45413 14.5649 9.34196 14.5202 9.23972 14.4687C9.00623 14.3511 8.78725 14.2099 8.62169 13.9994C8.45443 13.7868 8.24625 13.3791 8.26931 13.4662C8.14801 13.4406 8.07686 13.373 8.02447 13.2995C7.90943 13.1382 7.80201 12.9705 7.70471 12.7978C7.60602 12.6228 7.48793 12.4656 7.35491 12.3154C7.16753 12.1039 6.94955 11.729 6.78978 11.4472C6.79358 11.4214 6.50526 11.0023 6.48627 10.8364C6.45944 10.6021 6.86583 9.85529 6.83854 9.87508C6.84112 9.83112 6.8384 9.78606 6.84717 9.74337C6.88959 9.53677 6.88912 9.3277 6.89155 9.11837C6.89199 9.0803 6.88907 8.87131 6.88012 8.86708C6.89737 8.8187 6.91462 8.77031 6.93284 8.71923C6.92728 8.71659 6.91787 8.71212 6.92118 8.71369C6.87926 8.46882 6.93733 8.22585 6.87158 7.98848C6.83132 7.84315 6.76642 7.71089 6.69614 7.57743C6.56162 7.32195 6.43283 7.06159 6.32781 6.79302C6.24432 6.57952 6.23481 6.34783 6.26737 6.11806C6.30174 5.87551 6.3318 5.63221 6.37283 5.39079C6.39699 5.24866 6.43762 5.10923 6.47368 4.96932C6.48138 4.93946 6.50135 4.91277 6.52435 4.86757C6.5872 4.93798 6.63774 5.00138 6.69525 5.05765C6.8252 5.18479 6.94999 5.31942 7.09257 5.4309C7.31462 5.6045 7.54642 5.76633 7.78073 5.92321C7.89185 5.99761 8.02237 6.04246 8.13667 6.11279C8.24563 6.17983 8.35291 6.25393 8.44669 6.34039C8.60877 6.48982 8.74305 6.66345 8.83854 6.86963C8.78338 6.90704 8.73013 6.94315 8.67689 6.97925C8.67942 6.98367 8.68194 6.98808 8.68447 6.9925C8.7856 6.94806 8.88584 6.90147 8.98801 6.85957C9.4274 6.67939 9.88326 6.6009 10.3545 6.67582C10.6303 6.71967 10.8916 6.81955 11.1419 6.96206C11.1554 6.95072 11.1711 6.93753 11.1944 6.91793C11.153 6.91067 11.1227 6.90536 11.0915 6.89989C11.0747 6.87766 11.0577 6.85531 11.0378 6.82906C11.1525 6.63597 11.2852 6.46323 11.4462 6.30526C11.5796 6.17444 11.7411 6.10807 11.898 6.02608C12.2469 5.84376 12.5543 5.6023 12.8563 5.3536C12.9833 5.24895 13.1008 5.13268 13.2236 5.02289C13.2595 4.99082 13.2991 4.96286 13.3505 4.9223C13.4101 5.1288 13.4751 5.31399 13.5155 5.50441C13.5704 5.76245 13.6011 6.02429 13.6091 6.28968C13.6174 6.56893 13.5457 6.82456 13.4235 7.0694C13.317 7.28276 13.2051 7.4934 13.0948 7.70487C13.0218 7.84502 12.9489 7.98534 12.8731 8.12403C12.8062 8.24654 12.7944 8.38004 12.7848 8.51506C12.7831 8.53836 12.7687 8.56074 12.7602 8.58355C12.7468 8.55958 12.7333 8.53561 12.7199 8.51165C12.7133 8.5146 12.7066 8.51754 12.7 8.52049C12.7081 8.54191 12.7161 8.56333 12.7242 8.58474C12.7967 8.7368 12.8066 8.90037 12.8127 9.06474C12.8175 9.19525 12.8434 9.31964 12.9029 9.43822C12.9495 9.53107 12.9883 9.62856 13.0217 9.72699C13.0372 9.77266 13.0318 9.82544 13.0359 9.875C13.0087 9.85524 13.3149 10.3698 13.3252 10.5338C13.3417 10.7957 13.4024 10.8471 13.2935 11.0871C13.2794 11.1183 12.693 12.1103 12.4736 12.3405C12.2869 12.5365 12.1563 12.7697 12.0166 12.9975C11.9179 13.1586 11.6466 13.4937 11.4875 13.6018C11.4572 13.6225 11.3505 13.8503 11.0747 14.1107C10.8801 14.2944 10.6638 14.4529 10.4006 14.5278C10.337 14.5458 10.2664 14.5506 10.2003 14.5457" fill="#FEFEFE"/>
<path d="M10.9215 6.77695C10.8101 6.74144 10.7023 6.70633 10.594 6.67263C10.2645 6.5701 9.9307 6.55457 9.59376 6.62852C9.46215 6.65741 9.33094 6.68943 9.20173 6.72743C9.12981 6.74858 9.06284 6.78614 8.99266 6.81385C8.96538 6.82462 8.93544 6.8286 8.89781 6.83787C8.8552 6.56494 8.61791 6.43431 8.49316 6.21681C9.83079 4.84986 11.1677 3.48369 12.5045 2.11752C12.5118 2.1216 12.519 2.12567 12.5263 2.12975C12.5128 2.17601 12.5002 2.22258 12.4856 2.26849C12.2639 2.96409 12.0425 3.65977 11.82 4.35508C11.6773 4.80092 11.5326 5.24611 11.3893 5.69177C11.3226 5.89919 11.2554 6.10648 11.1919 6.31488C11.1589 6.42316 11.1157 6.52339 11.0382 6.60884C10.9973 6.65406 10.9676 6.70951 10.9215 6.77696V6.77695Z" fill="#BFFB00"/>
<path d="M8.15917 13.5524C8.21538 13.5615 8.25498 13.568 8.29761 13.5749C8.53288 14.2725 9.02743 14.6344 9.77115 14.6911C8.82451 15.6009 7.88187 16.5069 6.93924 17.4129C6.93085 17.4082 6.92246 17.4035 6.91406 17.3988C7.3291 16.1166 7.74415 14.8345 8.15917 13.5524Z" fill="#BFFB00"/>
<path d="M6.4676 10.543C5.90144 10.4473 5.3279 10.3504 4.7373 10.2506C4.76859 10.2066 4.78829 10.172 4.81432 10.1432C5.16733 9.75226 5.5204 9.36136 5.87514 8.97199C6.16853 8.64995 6.46411 8.32992 6.75892 8.00918C6.76655 8.00088 6.77638 7.99461 6.80013 7.97516C6.81187 8.07554 6.82965 8.16334 6.83103 8.25139C6.83498 8.50468 6.846 8.75902 6.82837 9.01114C6.81085 9.26176 6.82735 9.51649 6.75737 9.76298C6.74335 9.81236 6.75241 9.86797 6.74779 9.92043C6.73831 10.0282 6.69469 10.124 6.64284 10.2173C6.58475 10.3218 6.5294 10.4278 6.4676 10.543Z" fill="#BFFB00"/>
<path d="M12.911 9.14138C13.4622 9.24977 14.0135 9.35815 14.5866 9.47084C14.1874 9.88076 13.8039 10.2744 13.4059 10.6831C13.3946 10.4609 13.2585 10.308 13.1752 10.1313C13.1384 10.0532 13.108 9.97614 13.1137 9.8871C13.1213 9.77019 13.0885 9.66736 13.0316 9.56085C12.9655 9.4373 12.936 9.29424 12.8906 9.15964L12.911 9.14137V9.14138Z" fill="#BFFB00"/>
<path d="M6.83859 9.87509C6.86588 9.8553 6.89316 9.8355 6.92045 9.81571C6.99526 9.79416 7.07006 9.77262 7.14487 9.75107C7.23682 9.80958 7.29094 9.896 7.33885 10.0032C7.28837 10.0232 7.24456 10.0361 7.20494 10.057C7.12244 10.1006 7.07892 10.1791 7.04558 10.2604C6.95568 10.4798 6.94303 10.7075 6.96986 10.9419C6.98885 11.1078 7.0388 11.2618 7.10366 11.4133C7.11239 11.4337 7.11089 11.4585 7.11376 11.4813C7.11409 11.4839 7.11278 11.4878 7.11085 11.4893C7.10952 11.4903 7.10578 11.4881 7.10312 11.4874C7.0752 11.5408 7.04728 11.5942 7.01685 11.6524C6.99977 11.6395 6.98032 11.6303 6.96879 11.6152C6.81062 11.4071 6.64458 11.203 6.56833 10.9464C6.51488 10.7666 6.53939 10.5931 6.62301 10.4263C6.68587 10.3008 6.7508 10.1761 6.8062 10.0474C6.82874 9.99504 6.82848 9.93283 6.8386 9.87509H6.83859Z" fill="#BFC3C9"/>
<path d="M12.9542 9.81571C12.9815 9.83547 13.0087 9.85523 13.036 9.87499C13.0459 10.0665 13.1334 10.2288 13.2286 10.3883C13.363 10.6133 13.3664 10.846 13.2565 11.079C13.1673 11.2682 13.045 11.4378 12.9168 11.6026C12.9015 11.6223 12.8797 11.637 12.8539 11.6604C12.8338 11.609 12.8194 11.5677 12.801 11.5283C12.7971 11.5201 12.7786 11.5188 12.7668 11.5142C12.7693 11.4777 12.7617 11.4366 12.7759 11.4053C12.8848 11.1653 12.9321 10.914 12.9157 10.6521C12.9054 10.4881 12.8724 10.3296 12.7902 10.1818C12.7414 10.0941 12.6628 10.0596 12.5821 10.0209C12.5718 10.016 12.5611 10.0119 12.541 10.0034C12.5782 9.89698 12.6373 9.81226 12.7298 9.75097C12.8046 9.77255 12.8794 9.79413 12.9542 9.81571Z" fill="#BFC3C9"/>
<path d="M9.25586 13.2478C9.27364 13.2216 9.29141 13.1953 9.30919 13.169C9.31552 13.1627 9.32185 13.1564 9.32818 13.1501L9.3263 13.151L9.36109 13.1448C9.63319 13.0372 9.9108 12.9846 10.2092 13.055V13.1987C10.1828 13.2158 10.1575 13.2303 10.1344 13.2477C10.0362 13.3213 9.91748 13.3107 9.80578 13.3289C9.70483 13.3237 9.60387 13.3185 9.50292 13.3132C9.42057 13.2914 9.33821 13.2696 9.25586 13.2478Z" fill="#5A5A5C"/>
<path d="M10.5648 13.2218C10.5783 13.2519 10.5918 13.2821 10.6041 13.3097C10.4029 13.4776 9.57598 13.4998 9.23926 13.3495C9.24115 13.3352 9.24328 13.3191 9.24541 13.303C9.3307 13.3157 9.41599 13.3285 9.50128 13.3412C9.60282 13.3419 9.70436 13.3427 9.8059 13.3434C9.95907 13.3389 10.1146 13.3682 10.2619 13.3178C10.2954 13.202 10.3464 13.1574 10.4374 13.1603C10.4629 13.1611 10.4883 13.1653 10.5138 13.168L10.5129 13.167C10.5129 13.1733 10.5129 13.1797 10.5129 13.1862H10.5316L10.5302 13.1847C10.5418 13.197 10.5533 13.2094 10.5649 13.2218H10.5648Z" fill="#5A5A5C"/>
<path d="M8.13445 9.80569L8.13195 9.80488C8.14444 9.81142 8.15693 9.81796 8.16942 9.82451L8.16873 9.82313C8.16075 9.88166 8.20671 9.90267 8.24316 9.93029C8.24647 9.94604 8.25612 9.96366 8.2521 9.97724C8.21975 10.0864 8.22761 10.1135 8.31721 10.1832C8.34261 10.203 8.36767 10.2232 8.39234 10.2439C8.49235 10.3277 8.55096 10.3302 8.65849 10.2547C8.70881 10.294 8.75912 10.3334 8.80851 10.3719V10.4686C8.77155 10.49 8.73424 10.5116 8.69693 10.5333C8.69121 10.5343 8.68549 10.5354 8.67976 10.5364C8.65867 10.5409 8.63758 10.5454 8.61649 10.5499C8.59215 10.55 8.56782 10.5501 8.54348 10.5502L8.44305 10.5434C8.43437 10.5404 8.42569 10.5373 8.41701 10.5342C8.37183 10.5162 8.32665 10.4982 8.28148 10.4801L8.2821 10.4807C8.26415 10.4628 8.2462 10.4449 8.22824 10.427L8.22884 10.4274L8.2028 10.4087L8.19577 10.407L8.19408 10.4C8.17592 10.3736 8.15776 10.3471 8.1396 10.3207L8.1399 10.3214C8.12806 10.3034 8.11622 10.2855 8.10438 10.2676L8.10648 10.2681C8.10011 10.2615 8.09375 10.2549 8.08738 10.2483L8.08899 10.2501C8.07972 10.2375 8.07045 10.2249 8.06118 10.2123L8.0567 10.2139C8.05539 10.2049 8.05408 10.1959 8.05278 10.1869C8.04697 10.1779 8.04117 10.169 8.03536 10.16L8.03559 10.1604C8.03211 10.1407 8.02864 10.1211 8.02516 10.1014C8.02366 10.0295 8.02217 9.95765 8.02067 9.88577L8.0197 9.84186L8.01758 9.84279C8.03584 9.8365 8.0541 9.83021 8.07235 9.82392L8.07133 9.82498C8.09238 9.81856 8.11342 9.81213 8.13447 9.80571L8.13445 9.80569Z" fill="url(#paint1_radial_4520_57893)"/>
<path d="M7.85442 7.03535C7.88915 7.00916 7.91296 6.99121 7.95024 6.9631C7.83811 6.88623 7.73618 6.81636 7.62268 6.73855C7.69955 6.7189 7.76273 6.70275 7.83505 6.68427C7.73941 6.52628 7.66736 6.36646 7.54245 6.23054C7.45685 6.32415 7.37857 6.40975 7.31521 6.47905C7.24717 6.42125 7.18708 6.37021 7.12699 6.31917C7.0055 6.17756 6.88401 6.03594 6.76253 5.89433C6.75803 5.89708 6.75352 5.89984 6.74902 5.90259C6.77073 6.06219 6.79244 6.2218 6.81416 6.3814C6.82491 6.49221 6.83187 6.60355 6.84718 6.71373C6.88258 6.96858 6.92203 7.22287 6.96195 7.49162C7.08446 7.37614 7.19557 7.27139 7.32301 7.15126C7.34941 7.38078 7.37332 7.5886 7.3974 7.79787C7.45154 7.80918 7.49655 7.81858 7.52751 7.82505C7.72385 7.65443 7.90902 7.49351 8.09564 7.33134C8.06035 7.19972 7.97172 7.10894 7.85444 7.03534L7.85442 7.03535Z" fill="url(#paint2_linear_4520_57893)"/>
<path d="M13.1294 5.87928C13.0033 6.02492 12.8772 6.17055 12.7511 6.31619C12.6978 6.36557 12.6446 6.41496 12.5858 6.46943C12.5129 6.39034 12.4342 6.30483 12.3492 6.21264C12.2244 6.35085 12.1508 6.50983 12.0599 6.66737C12.1356 6.68639 12.202 6.70309 12.2828 6.7234C12.1608 6.80061 12.0376 6.85124 11.955 6.95844C11.985 6.97946 12.0077 6.99533 12.0315 7.01196C11.8253 7.21292 11.8134 7.22953 11.8047 7.31969C11.9897 7.4811 12.1712 7.63939 12.3648 7.80828C12.398 7.80094 12.4453 7.79051 12.4963 7.77925C12.5209 7.56609 12.5449 7.35892 12.5709 7.13372C12.7005 7.25575 12.8117 7.36048 12.9302 7.47212C12.9632 7.2617 12.9964 7.0676 13.0231 6.8726C13.0405 6.7452 13.0485 6.61651 13.0607 6.48839C13.0891 6.28757 13.1174 6.08676 13.1458 5.88594L13.1294 5.87928H13.1294Z" fill="url(#paint3_linear_4520_57893)"/>
<path d="M11.7329 10.2152C11.7596 10.1103 11.7497 10.0086 11.7105 9.90814C11.7003 9.88209 11.7001 9.85217 11.6953 9.82402L11.698 9.82496C11.6854 9.81878 11.6729 9.81259 11.6604 9.80641L11.6613 9.80911H11.587C11.568 9.82478 11.5505 9.83919 11.533 9.8536C11.5211 9.86542 11.5093 9.87725 11.4975 9.88907C11.4898 9.90128 11.4821 9.91349 11.4766 9.92232C11.5059 9.95914 11.5341 9.99445 11.5739 10.0443C11.5426 10.0632 11.522 10.0756 11.5017 10.0879C11.5022 10.0943 11.5027 10.1008 11.5032 10.1073C11.497 10.107 11.4908 10.1067 11.4846 10.1065C11.4849 10.1127 11.4852 10.1189 11.4856 10.1252C11.4793 10.1248 11.4731 10.1244 11.4668 10.1241C11.4672 10.1303 11.4675 10.1366 11.4679 10.1428C11.4617 10.1425 11.4554 10.1422 11.4492 10.1419C11.4495 10.1481 11.4498 10.1543 11.4501 10.1605C11.4438 10.16 11.4375 10.1596 11.4313 10.1591C11.3983 10.2687 11.2872 10.3283 11.1724 10.2952C11.1397 10.2858 11.109 10.2695 11.0762 10.2559C11.0457 10.2792 11.0158 10.302 10.9858 10.3249C10.9816 10.322 10.977 10.32 10.9719 10.319C10.9542 10.3308 10.9365 10.3426 10.9188 10.3545C10.8922 10.3803 10.8657 10.4061 10.8262 10.4445C10.9098 10.4735 10.9829 10.4988 11.056 10.5242L11.4002 10.5322L11.3983 10.5338C11.4629 10.5041 11.5274 10.4743 11.592 10.4445L11.5923 10.4442C11.5983 10.4385 11.6042 10.4327 11.6101 10.4269L11.6102 10.4267L11.6278 10.4089L11.6279 10.4087C11.6342 10.3972 11.6405 10.3857 11.6468 10.3742L11.6468 10.3742C11.6523 10.3681 11.6578 10.3621 11.6633 10.3561L11.6619 10.3563C11.6684 10.3438 11.675 10.3314 11.6815 10.3189L11.68 10.3211C11.6923 10.2967 11.7046 10.2723 11.717 10.248L11.7155 10.2504L11.7346 10.2128L11.7329 10.2152V10.2152Z" fill="url(#paint4_radial_4520_57893)"/>
<path d="M10.0931 10.3559C10.03 10.3414 10.0142 10.296 10.0316 10.2428C10.0532 10.1768 10.0847 10.114 10.1118 10.0499C10.1222 10.034 10.1326 10.0182 10.143 10.0024C10.1672 9.84967 10.1915 9.69693 10.2158 9.54419C10.2031 9.57424 10.1851 9.6032 10.1788 9.63453C10.1574 9.74083 10.0993 9.82143 9.99907 9.85575C9.88752 9.89395 9.77161 9.9049 9.69 9.78873C9.6378 9.71442 9.59392 9.6385 9.58817 9.54147C9.58371 9.46625 9.57361 9.38294 9.48583 9.34646C9.48051 9.328 9.50395 9.28435 9.45146 9.3072C9.45179 9.31419 9.45212 9.32117 9.45246 9.32816L9.45115 9.32686C9.45696 9.33325 9.46276 9.33963 9.46857 9.34602L9.47718 9.34703L9.48582 9.3465C9.50837 9.40058 9.53093 9.45467 9.55348 9.50875C9.55385 9.58341 9.55421 9.65807 9.55458 9.73273C9.55544 9.77955 9.55997 9.82666 9.55641 9.87314C9.54862 9.97485 9.58438 10.056 9.66172 10.1205C9.67739 10.1336 9.69235 10.1475 9.70662 10.1602C9.71529 10.2279 9.73169 10.2925 9.66287 10.3366C9.59628 10.3969 9.53118 10.4587 9.43316 10.4637C9.40627 10.465 9.38001 10.4767 9.39912 10.514C9.54758 10.5991 9.69628 10.6839 9.8442 10.7699C9.86258 10.7806 9.87684 10.7984 9.89301 10.8129C9.92782 10.8736 9.9637 10.8439 9.99958 10.8142C10.0692 10.7296 10.1522 10.6677 10.2653 10.6562C10.2947 10.6442 10.324 10.6322 10.3534 10.6203C10.3788 10.5699 10.4042 10.5195 10.4339 10.4607C10.3157 10.4365 10.1839 10.4572 10.0931 10.3559V10.3559Z" fill="#D4D4D4"/>
<path d="M12.3992 9.76442C12.3721 9.78857 12.3382 9.80837 12.3191 9.83774C12.2747 9.90566 12.2386 9.97884 12.1972 10.0488C12.0881 10.2332 11.9507 10.3949 11.7969 10.5432C11.7844 10.5547 11.7718 10.5663 11.7593 10.5779C11.699 10.6248 11.6388 10.6716 11.5786 10.7185C11.5582 10.7292 11.5383 10.7482 11.5175 10.7491C11.381 10.7556 11.2402 10.7803 11.1089 10.7558C10.9691 10.7297 10.8381 10.6557 10.7033 10.6026C10.6837 10.59 10.6641 10.5775 10.6346 10.5586C10.6684 10.5274 10.6913 10.5062 10.7141 10.4851C10.7174 10.4771 10.7207 10.4691 10.7239 10.4611H10.4826C10.4401 10.5132 10.3967 10.5666 10.3533 10.62C10.3531 10.6201 10.3529 10.6202 10.3527 10.6202C10.3527 10.6203 10.3527 10.6204 10.3526 10.6205C10.3231 10.6384 10.2936 10.6564 10.2641 10.6743C10.1982 10.7141 10.1323 10.7538 10.0664 10.7935C10.1005 10.7954 10.1346 10.7974 10.1687 10.7993C10.2221 10.7168 10.3023 10.7167 10.3888 10.7274C10.4197 10.7552 10.4514 10.7838 10.483 10.8123C10.4793 10.8203 10.4755 10.8284 10.4717 10.8364C10.3929 10.7929 10.3187 10.7101 10.225 10.7922C10.2478 10.7936 10.2706 10.7953 10.2934 10.7963C10.3691 10.7997 10.424 10.8317 10.447 10.9078C10.505 10.8843 10.5629 10.8607 10.6209 10.8371C10.6423 10.837 10.6637 10.8369 10.6852 10.8369C10.8443 10.8616 11.0029 10.8921 11.1629 10.9091C11.258 10.9191 11.3554 10.908 11.4518 10.9064C11.4686 10.9047 11.4854 10.9031 11.5022 10.9015L11.734 10.8108C11.7222 10.7537 11.7394 10.7055 11.782 10.6676C11.972 10.4984 12.114 10.2889 12.2607 10.0849C12.3282 9.99106 12.4086 9.89496 12.3992 9.76444L12.3992 9.76442Z" fill="#D4D4D4"/>
<path d="M9.48818 10.7545C9.45023 10.7749 9.42177 10.7902 9.39331 10.8055C9.38913 10.7987 9.38494 10.7918 9.38076 10.7849C9.41384 10.7597 9.44692 10.7345 9.49274 10.6995C9.54396 10.7323 9.59504 10.765 9.64612 10.7977C9.68119 10.7903 9.71627 10.7829 9.75134 10.7754C9.7249 10.7594 9.69771 10.7445 9.67216 10.7272C9.57264 10.6598 9.47364 10.5916 9.37445 10.5237C9.35788 10.5037 9.3413 10.4837 9.324 10.4629C9.21942 10.454 9.11631 10.4453 9.00265 10.4357C9.01734 10.4755 9.02738 10.5027 9.03741 10.5298C9.0522 10.539 9.06699 10.5483 9.09721 10.5671C9.04602 10.5959 9.00929 10.6165 8.97255 10.6371C8.9649 10.6349 8.95725 10.6328 8.94959 10.6306C8.94771 10.638 8.94769 10.6506 8.94372 10.652C8.7145 10.7325 8.48494 10.8187 8.23594 10.758C8.16081 10.7397 8.09024 10.7026 8.01758 10.6742C8.02364 10.7146 8.02971 10.7551 8.03577 10.7956C8.03527 10.8024 8.03477 10.8092 8.03427 10.816L8.03425 10.8161C8.14133 10.8445 8.2484 10.8729 8.35548 10.9014L8.51186 10.9015C8.70576 10.8782 8.89926 10.8499 9.09378 10.8343C9.15945 10.829 9.236 10.8372 9.27405 10.9133C9.28842 10.91 9.30403 10.9092 9.31697 10.903C9.39737 10.8641 9.47718 10.8239 9.55719 10.7842C9.53197 10.7733 9.50675 10.7625 9.4882 10.7545H9.48818Z" fill="#D4D4D4"/>
<path d="M9.35999 13.1448C9.36071 13.1352 9.36145 13.1257 9.36217 13.1162C9.34985 13.1278 9.33753 13.1394 9.3252 13.151C9.3368 13.1489 9.34839 13.1468 9.35999 13.1448H9.35999Z" fill="#D4D4D4"/>
<path d="M7.78675 10.4076L7.78793 10.4085C7.78814 10.4086 7.78842 10.4088 7.78842 10.4088C7.78842 10.4087 7.78842 10.4087 7.78842 10.4086C7.78833 10.4085 7.78824 10.4085 7.78815 10.4084C7.77607 10.3908 7.76398 10.3731 7.7519 10.3554C7.74702 10.3446 7.74213 10.3337 7.73725 10.3228L7.76407 10.344C7.77245 10.347 7.78083 10.35 7.78921 10.353C7.77304 10.2778 7.75858 10.2015 7.68135 10.1605C7.69802 10.2111 7.71469 10.2617 7.73137 10.3123C7.68186 10.2339 7.63559 10.1532 7.58126 10.0784C7.50543 9.9739 7.42304 9.8742 7.34346 9.77246C7.3384 9.77275 7.33353 9.77193 7.32884 9.77C7.32919 9.75301 7.32955 9.73603 7.3299 9.71904C7.31272 9.72257 7.29554 9.7261 7.2627 9.73285C7.29201 9.75426 7.30741 9.76551 7.32282 9.77677C7.33632 9.81497 7.34293 9.85768 7.36448 9.8906C7.46791 10.0486 7.57288 10.2058 7.6832 10.3591C7.71008 10.3964 7.75923 10.4177 7.79815 10.4464C7.79435 10.4334 7.79054 10.4205 7.78674 10.4076L7.78675 10.4076Z" fill="#D4D4D4"/>
<path d="M9.32946 9.18592L9.32945 9.18591L9.32715 9.18495L9.32946 9.18592Z" fill="#D4D4D4"/>
<path d="M9.3296 9.18591C9.34608 9.19278 9.36257 9.19964 9.37905 9.2065C9.37654 9.14659 9.35217 9.10675 9.28613 9.10521L9.3296 9.18591Z" fill="#D4D4D4"/>
<path d="M9.28321 9.10314C9.29963 9.03363 9.26485 9.02393 9.18945 9.03831C9.21135 9.05935 9.22285 9.0704 9.23435 9.08145C9.25063 9.08868 9.26692 9.09591 9.2832 9.10314H9.28321Z" fill="#D4D4D4"/>
<path d="M10.4875 9.07927C10.4933 9.07033 10.493 9.05739 10.4956 9.04629C10.5066 9.04589 10.5177 9.0455 10.5287 9.0451C10.5441 9.01948 10.5594 8.99387 10.5747 8.96825C10.5678 8.96409 10.5608 8.95992 10.5539 8.95576C10.5345 8.98591 10.515 9.01606 10.4956 9.04621C10.3321 9.11328 10.2157 9.29925 10.2251 9.47841C10.3127 9.34546 10.4005 9.21263 10.4875 9.07927Z" fill="#D4D4D4"/>
<path d="M7.93564 10.5983C7.90989 10.5706 7.88415 10.5428 7.8584 10.515C7.85999 10.5652 7.87644 10.6016 7.93564 10.5983Z" fill="#D4D4D4"/>
<path d="M7.62985 9.59611C7.61628 9.59033 7.60271 9.58455 7.58914 9.57878C7.58547 9.58644 7.5818 9.5941 7.57812 9.60175C7.59581 9.61029 7.61351 9.61883 7.6312 9.62737C7.63075 9.61695 7.6303 9.60653 7.62984 9.59611H7.62985Z" fill="#D4D4D4"/>
<path d="M7.84239 10.4953C7.82914 10.4807 7.81589 10.4661 7.80264 10.4515C7.78051 10.4982 7.80978 10.4983 7.84239 10.4953Z" fill="#D4D4D4"/>
<path d="M10.1267 10.0906C10.1306 10.0776 10.1344 10.0647 10.1383 10.0517C10.1326 10.0494 10.1276 10.0502 10.123 10.0543L10.1267 10.0906H10.1267Z" fill="#D4D4D4"/>
<path d="M9.41231 9.24295L9.41536 9.23969L9.41214 9.24279L9.41016 9.24494L9.41231 9.24295Z" fill="#D4D4D4"/>
<path d="M9.41396 9.24125L9.41211 9.24295L9.41396 9.24125Z" fill="#D4D4D4"/>
<path d="M9.41211 9.2428L9.41212 9.24279L9.41483 9.23984L9.41211 9.2428Z" fill="#D4D4D4"/>
<path d="M9.50181 13.3132C9.50153 13.3225 9.50126 13.3319 9.50098 13.3412C9.60252 13.3419 9.70406 13.3427 9.8056 13.3434C9.80535 13.3386 9.80505 13.3338 9.80468 13.3289C9.70372 13.3237 9.60277 13.3184 9.50182 13.3132L9.50181 13.3132Z" fill="#D4D4D4"/>
<path d="M12.1169 9.94723C12.0994 10.0142 12.0877 10.0608 12.075 10.1071C12.0683 10.1315 12.0599 10.1555 12.0522 10.1796C12.0993 10.1213 12.1506 10.0658 12.1922 10.0038C12.2243 9.95576 12.2442 9.89952 12.2675 9.85104H11.7314C11.7409 9.88133 11.7458 9.8969 11.7507 9.91246C11.8671 9.92351 11.9834 9.93456 12.1169 9.94723Z" fill="#D4D4D4"/>
<path d="M7.7895 10.3538C7.78903 10.3721 7.78856 10.3904 7.78809 10.4086C7.8176 10.4258 7.8471 10.4429 7.87661 10.4601C7.88079 10.3974 7.84439 10.368 7.7895 10.3538Z" fill="#D4D4D4"/>
<path d="M7.46094 9.83946C7.54179 9.95747 7.61136 10.059 7.68092 10.1605C7.66511 10.1063 7.6493 10.052 7.63247 9.99433C7.73381 9.93176 7.84715 9.95678 7.96255 9.94072C7.96255 9.97754 7.95652 10.0109 7.9641 10.0409C7.97334 10.0773 7.99402 10.1109 8.00976 10.1457C8.01046 10.1342 8.01115 10.1226 8.01185 10.111C8.00652 10.0347 8.00119 9.95838 7.99586 9.88206C7.82316 9.8683 7.65046 9.85455 7.46095 9.83945L7.46094 9.83946Z" fill="#D4D4D4"/>
<path d="M14.7944 9.40285C14.4833 9.34245 14.1723 9.28132 13.8612 9.22106C13.5473 9.16029 13.2333 9.10034 12.9021 9.03672C12.895 8.85486 12.883 8.67345 12.8829 8.49204C12.8829 8.40489 12.8872 8.30967 12.9214 8.23216C13.0071 8.03776 13.1101 7.85088 13.208 7.66194C13.2837 7.51574 13.3636 7.3717 13.4392 7.22544C13.6135 6.88837 13.7268 6.53607 13.6972 6.15008C13.6928 6.09169 13.6837 6.03333 13.6722 5.97588C13.6403 5.81741 13.6099 5.6585 13.5717 5.5015C13.5218 5.2961 13.4658 5.09216 13.4105 4.88811C13.4002 4.85031 13.381 4.81495 13.3638 4.77327C13.3275 4.80226 13.2979 4.82176 13.2732 4.84621C13.0142 5.10288 12.7343 5.33524 12.4396 5.5489C12.2874 5.65923 12.1281 5.76042 11.9676 5.85853C11.8127 5.95321 11.6516 6.03776 11.4944 6.12866C11.4494 6.15467 11.4082 6.18729 11.3653 6.21688C11.3621 6.22131 11.3589 6.22575 11.349 6.23931C11.349 6.22162 11.349 6.2131 11.349 6.20457C11.3565 6.17928 11.3634 6.15385 11.3714 6.12874C11.836 4.66956 12.3007 3.21042 12.7651 1.75117C12.7704 1.7347 12.7718 1.717 12.775 1.69987C12.7708 1.69831 12.7666 1.69675 12.7624 1.69519C11.3136 3.17973 9.86483 4.66427 8.41456 6.15032C7.65383 5.82614 7.02049 5.34556 6.50485 4.70035C6.49574 4.72216 6.48602 4.73979 6.48084 4.75867C6.39751 5.06219 6.30652 5.36394 6.2346 5.67017C6.18159 5.89587 6.13714 6.12571 6.14311 6.35996C6.14519 6.44153 6.16637 6.52243 6.17317 6.6041C6.19262 6.83766 6.29354 7.04272 6.3982 7.24533C6.46813 7.38071 6.55347 7.50806 6.62544 7.64247C6.66375 7.71402 6.68827 7.79295 6.72015 7.87132C5.98101 8.68635 5.24536 9.49753 4.49805 10.3216C5.16178 10.4345 5.8088 10.5446 6.46288 10.656C6.43164 10.7759 6.44766 10.884 6.48561 10.9918C6.56804 11.2259 6.71597 11.4214 6.85224 11.6237C6.92104 11.7259 6.99483 11.8218 7.02819 11.9464C7.05581 12.0496 7.10613 12.1489 7.16025 12.2419C7.19472 12.3011 7.25673 12.3436 7.30247 12.397C7.47429 12.5975 7.60865 12.8236 7.74785 13.0469C7.84134 13.1968 7.89351 13.3766 8.05031 13.4757C8.04762 13.4902 8.04714 13.4961 8.0454 13.5016C7.66129 14.7152 7.27677 15.9285 6.89317 17.1422C6.82344 17.3628 6.75749 17.5847 6.68979 17.8059L6.68998 17.8086L6.69144 17.8043C6.71357 17.7858 6.73649 17.7682 6.75771 17.7487C6.9465 17.5757 7.13492 17.4022 7.32365 17.2291C7.34939 17.2055 7.37839 17.1852 7.40224 17.1599C7.49078 17.066 7.57343 16.9661 7.66609 16.8765C8.41821 16.1497 9.17209 15.4248 9.92761 14.6972C10.0659 14.6994 10.2081 14.6994 10.3446 14.649C10.4158 14.6226 10.4858 14.5919 10.5585 14.5707C10.802 14.4997 11.0065 14.3597 11.1779 14.1824C11.3303 14.0247 11.456 13.8402 11.5023 13.6263C11.5749 13.5889 11.6441 13.5623 11.7031 13.5212C11.8872 13.393 12.0227 13.2221 12.1298 13.0253C12.1995 12.8971 12.262 12.7632 12.3784 12.665C12.431 12.6205 12.4753 12.5644 12.5167 12.5086C12.5917 12.4074 12.6636 12.3038 12.7331 12.1988C12.7714 12.141 12.8105 12.0813 12.8344 12.017C12.9078 11.8204 13.0025 11.6374 13.1215 11.4634C13.2222 11.3162 13.3219 11.1614 13.3822 10.9955C13.4285 10.868 13.4843 10.7626 13.5871 10.6791C13.5984 10.6698 13.6074 10.6578 13.6176 10.6471C13.9937 10.2528 14.3697 9.85831 14.7464 9.46453C14.7646 9.44548 14.7891 9.43245 14.8107 9.41662V9.39892C14.8053 9.40033 14.7994 9.40381 14.7944 9.40284V9.40285ZM12.5042 2.1175C12.5115 2.12158 12.5188 2.12565 12.526 2.12973C12.5125 2.17599 12.4999 2.22256 12.4853 2.26847C12.2637 2.96407 12.0422 3.65975 11.8197 4.35506C11.677 4.8009 11.5323 5.24609 11.389 5.69174C11.3223 5.89916 11.2551 6.10645 11.1916 6.31485C11.1586 6.42313 11.1154 6.52336 11.038 6.60881C10.997 6.65403 10.9673 6.70948 10.9212 6.77693C10.8099 6.74142 10.702 6.70631 10.5937 6.67261C10.2643 6.57008 9.93043 6.55455 9.59349 6.6285C9.46188 6.65739 9.33067 6.68941 9.20146 6.72741C9.12954 6.74856 9.06257 6.78612 8.99239 6.81383C8.96511 6.8246 8.93517 6.82858 8.89754 6.83785C8.85493 6.56492 8.61764 6.43429 8.49289 6.21679C9.83052 4.84984 11.1674 3.48367 12.5042 2.1175ZM6.46747 10.543C5.90131 10.4473 5.32777 10.3504 4.73717 10.2506C4.76846 10.2066 4.78816 10.172 4.81419 10.1432C5.1672 9.75226 5.52027 9.36136 5.87501 8.97199C6.1684 8.64996 6.46398 8.32992 6.75879 8.00918C6.76642 8.00088 6.77625 7.99461 6.8 7.97516C6.81174 8.07554 6.82952 8.16334 6.8309 8.25139C6.83485 8.50468 6.84587 8.75902 6.82824 9.01114C6.81072 9.26176 6.82722 9.51649 6.75724 9.76298C6.74322 9.81236 6.75228 9.86796 6.74766 9.92043C6.73818 10.0282 6.69456 10.124 6.64271 10.2173C6.58462 10.3218 6.52927 10.4278 6.46747 10.543ZM6.93954 17.4129C6.93115 17.4082 6.92276 17.4035 6.91436 17.3988C7.3294 16.1166 7.74445 14.8345 8.15947 13.5524C8.21568 13.5615 8.25528 13.568 8.29791 13.5749C8.53318 14.2725 9.02773 14.6344 9.77145 14.6911C8.82481 15.6009 7.88217 16.5069 6.93954 17.4129ZM9.80114 14.6189C9.84048 14.5817 9.86909 14.5546 9.89323 14.5317C9.92281 14.5614 9.95011 14.5888 9.98019 14.6189H9.80113H9.80114ZM9.19322 13.2839C9.23241 13.2612 9.24397 13.2545 9.25552 13.2478C9.2733 13.2216 9.29107 13.1953 9.30885 13.169C9.31518 13.1627 9.32151 13.1564 9.32784 13.1501L9.32596 13.151C9.33828 13.1394 9.3506 13.1278 9.36293 13.1162C9.55702 12.9797 9.77668 12.9481 10.006 12.9644C10.1564 12.9751 10.2997 13.015 10.4282 13.097C10.4594 13.1168 10.4857 13.1441 10.5143 13.168L10.5134 13.167C10.5196 13.1734 10.5258 13.1798 10.532 13.1861L10.5307 13.1847C10.5422 13.197 10.5538 13.2094 10.5653 13.2218C10.5788 13.2519 10.5923 13.2821 10.6046 13.3097C10.4034 13.4776 9.57645 13.4998 9.23973 13.3495C9.24162 13.3352 9.24375 13.3191 9.24588 13.303C9.23274 13.2982 9.21959 13.2934 9.19322 13.2838V13.2839ZM13.2568 11.079C13.1676 11.2682 13.0453 11.4378 12.9171 11.6026C12.9018 11.6223 12.88 11.637 12.8541 11.6604C12.8341 11.609 12.8196 11.5677 12.8012 11.5283C12.7974 11.5201 12.7788 11.5188 12.7671 11.5142C12.836 11.8488 12.6933 12.1103 12.4739 12.3405C12.2871 12.5365 12.1566 12.7697 12.0169 12.9975C11.9182 13.1586 11.8082 13.3106 11.6491 13.4187C11.6188 13.4394 11.5833 13.4524 11.5413 13.4734C11.5474 13.3548 11.5665 13.2626 11.6416 13.1748C11.7344 13.0661 11.802 12.9357 11.8798 12.8142C11.9206 12.7506 11.96 12.686 12 12.6218C11.9942 12.6159 11.9884 12.6099 11.9826 12.604C11.9746 12.6044 11.9666 12.6048 11.9586 12.6052C11.9535 12.5887 11.9484 12.5721 11.9433 12.5555C11.9372 12.5579 11.9312 12.5603 11.9252 12.5627C11.9326 12.5775 11.94 12.5924 11.9474 12.6073C11.9289 12.6287 11.9105 12.6502 11.892 12.6716H11.8378V12.4404C11.9034 12.4418 11.9535 12.4559 11.9743 12.5201C11.977 12.5481 11.9798 12.576 11.9826 12.604L12 12.6218C12.0346 12.5504 12.0691 12.4789 12.1037 12.4074C12.0932 12.4083 12.0828 12.4092 12.0724 12.4102C12.0593 12.4267 12.0462 12.4433 12.0331 12.4598C12.0356 12.4877 12.042 12.5183 11.9963 12.5127C12.0083 12.4954 12.0203 12.478 12.0323 12.4607C12.0439 12.3977 12.0555 12.3347 12.0702 12.2548C12.1345 12.3242 12.0779 12.3654 12.0724 12.4102C12.0828 12.4092 12.0933 12.4083 12.1037 12.4074C12.1463 12.3012 12.1944 12.1968 12.2297 12.0883C12.2561 12.0071 12.2675 11.9211 12.2118 11.8419C12.2046 11.8316 12.2128 11.8105 12.2145 11.7836C12.2744 11.7936 12.3277 11.8025 12.3821 11.8116C12.3246 11.7245 12.242 11.7021 12.0567 11.7235C12.0589 11.7388 12.0611 11.7541 12.0637 11.7719C11.863 11.9473 11.7313 12.177 11.5803 12.4041C11.5469 12.2742 11.5875 12.1731 11.641 12.0745C11.6471 12.0574 11.6531 12.0403 11.6592 12.0232C11.6475 12.0368 11.6357 12.0505 11.624 12.0641C11.6124 12.0335 11.6008 12.0028 11.5843 11.9593C11.5694 12.0071 11.551 12.0474 11.5447 12.0896C11.5221 12.2399 11.4955 12.3903 11.4858 12.5417C11.473 12.7414 11.4771 12.9421 11.4694 13.1422C11.4552 13.5123 11.3508 13.8503 11.075 14.1107C10.8804 14.2944 10.6641 14.4529 10.4008 14.5278C10.3373 14.5458 10.2667 14.5506 10.2005 14.5457C10.0614 14.5352 9.95569 14.4037 9.96765 14.2649C9.96931 14.2455 9.98577 14.2275 9.99837 14.2031C9.99358 14.1695 9.98783 14.1292 9.98334 14.0978C10.1652 13.9414 10.3449 13.7955 10.514 13.6381C10.6093 13.5494 10.7054 13.4545 10.7276 13.3129C10.7311 13.2901 10.7562 13.2699 10.7732 13.2501C10.8683 13.1396 10.8822 12.9486 10.7981 12.8073C10.7993 12.9471 10.8015 13.0788 10.702 13.1844C10.3836 12.7427 9.46065 12.7281 9.11785 13.1717C9.03635 13.1064 9.03372 13.0974 9.01529 12.8213C8.91018 12.9438 8.94647 13.1669 9.09642 13.2956C9.09875 13.4502 9.20322 13.5473 9.30689 13.6499C9.47235 13.8136 9.64833 13.9619 9.86462 14.088C9.84375 14.1929 9.83503 14.3118 9.79415 14.4183C9.76174 14.5028 9.6707 14.537 9.57776 14.549C9.45442 14.5649 9.34225 14.5202 9.24001 14.4687C9.00652 14.3511 8.78754 14.2099 8.62198 13.9994C8.45472 13.7868 8.35726 13.5465 8.3399 13.2774C8.32647 13.0694 8.32145 12.8605 8.32091 12.652C8.32032 12.4244 8.28263 12.2034 8.22403 11.9848C8.222 11.9773 8.21318 11.9715 8.20464 11.9615C8.19619 11.9979 8.18843 12.0313 8.17784 12.0768C8.22535 12.1508 8.23706 12.2427 8.21177 12.3581C8.05787 12.1261 7.93772 11.8883 7.73817 11.7131C7.55415 11.7131 7.41314 11.7207 7.37747 11.8246C7.4481 11.8001 7.51334 11.7775 7.59282 11.7499C7.50272 11.9769 7.60111 12.1557 7.68156 12.3376C7.71305 12.4079 7.74454 12.4782 7.77603 12.5485C7.81823 12.6215 7.86017 12.6947 7.90268 12.7676C7.99593 12.9274 8.08257 13.0901 8.20316 13.234C8.2478 13.2873 8.24652 13.3791 8.26958 13.4662C8.14828 13.4406 8.07712 13.373 8.02474 13.2996C7.9097 13.1383 7.80228 12.9705 7.70498 12.7979C7.60629 12.6228 7.4882 12.4656 7.35518 12.3154C7.1678 12.1039 7.05941 11.8593 7.10242 11.5665C7.10622 11.5407 7.1032 11.5138 7.10334 11.4874C7.07542 11.5408 7.0475 11.5942 7.01706 11.6524C6.99998 11.6395 6.98053 11.6304 6.969 11.6152C6.81083 11.4071 6.64479 11.2031 6.56854 10.9465C6.51509 10.7666 6.5396 10.5931 6.62322 10.4263C6.68608 10.3008 6.75101 10.1762 6.80641 10.0474C6.82895 9.99505 6.82869 9.93284 6.83881 9.8751C6.84139 9.83114 6.83867 9.78609 6.84744 9.74339C6.88986 9.53679 6.88939 9.32772 6.89182 9.1184C6.89226 9.08033 6.90975 9.03991 6.92794 9.00506C6.98735 8.89121 7.0522 8.78021 7.11151 8.66632C7.1259 8.63869 7.12708 8.60417 7.13434 8.57282C7.12815 8.57063 7.12195 8.56844 7.11576 8.56625C7.04625 8.67077 6.97674 8.77529 6.90723 8.8798C6.89828 8.87557 6.88933 8.87134 6.88038 8.86711C6.89763 8.81873 6.91488 8.77034 6.9331 8.71926C6.92754 8.71662 6.91813 8.71215 6.92144 8.71372C6.87952 8.46885 6.93759 8.22588 6.87184 7.98851C6.83158 7.84318 6.76668 7.71092 6.6964 7.57746C6.56188 7.32198 6.43309 7.06162 6.32807 6.79305C6.24458 6.57955 6.23507 6.34786 6.26763 6.11809C6.302 5.87554 6.33206 5.63224 6.37309 5.39082C6.39725 5.24869 6.43788 5.10926 6.47394 4.96935C6.48164 4.93949 6.50161 4.9128 6.52461 4.8676C6.58746 4.93801 6.638 5.00141 6.69551 5.05768C6.82546 5.18482 6.95025 5.31945 7.09283 5.43093C7.31488 5.60453 7.54668 5.76636 7.78099 5.92324C7.89211 5.99764 8.02263 6.04249 8.13693 6.11282C8.24589 6.17986 8.35317 6.25396 8.44695 6.34042C8.60903 6.48985 8.74332 6.66348 8.8388 6.86966C8.78364 6.90707 8.73039 6.94317 8.67715 6.97928C8.67968 6.9837 8.6822 6.98811 8.68473 6.99253C8.78586 6.94809 8.8861 6.9015 8.98827 6.8596C9.42766 6.67942 9.88352 6.60093 10.3548 6.67585C10.6306 6.7197 10.8919 6.81958 11.1421 6.96209C11.1556 6.95075 11.1713 6.93756 11.1947 6.91796C11.1533 6.9107 11.123 6.90539 11.0918 6.89992C11.0749 6.87769 11.058 6.85534 11.0381 6.82909C11.1528 6.636 11.2855 6.46326 11.4465 6.30529C11.5798 6.17447 11.7414 6.1081 11.8983 6.02611C12.2471 5.84379 12.5546 5.60233 12.8565 5.35363C12.9836 5.24898 13.101 5.13271 13.2239 5.02292C13.2598 4.99085 13.2993 4.96289 13.3508 4.92233C13.4103 5.12883 13.4753 5.31402 13.5158 5.50444C13.5706 5.76247 13.6014 6.02432 13.6093 6.2897C13.6177 6.56895 13.546 6.82458 13.4238 7.06942C13.3173 7.28278 13.2054 7.49342 13.0951 7.70489C13.022 7.84504 12.9492 7.98536 12.8734 8.12405C12.8064 8.24656 12.7947 8.38006 12.7851 8.51508C12.7834 8.53838 12.769 8.56076 12.7605 8.58357C12.747 8.5596 12.7336 8.53563 12.7201 8.51167C12.7135 8.51462 12.7069 8.51756 12.7003 8.52051C12.7083 8.54193 12.7164 8.56335 12.7245 8.58476C12.797 8.73683 12.8069 8.9004 12.813 9.06476C12.8178 9.19527 12.8437 9.31966 12.9032 9.43824C12.9498 9.53109 12.9885 9.62858 13.022 9.72701C13.0375 9.77268 13.0321 9.82546 13.0362 9.87502C13.0461 10.0665 13.1336 10.2288 13.2289 10.3883C13.3632 10.6134 13.3666 10.8461 13.2568 11.079L13.2568 11.079ZM11.8044 12.6282H11.5608C11.6249 12.5309 11.6768 12.4519 11.7355 12.3628C11.8373 12.4427 11.7885 12.5382 11.8044 12.6282ZM11.7574 12.3259C11.8454 12.1871 11.922 12.0662 11.9986 11.9453C12.0054 11.9466 12.0121 11.948 12.0189 11.9494C12.0457 12.1013 12.0208 12.2515 11.9971 12.4228C11.9124 12.3886 11.8426 12.3604 11.7574 12.3259V12.3259ZM11.8019 12.8715C11.7669 12.9163 11.7324 12.9604 11.6979 13.0046C11.689 13.0021 11.6801 12.9996 11.6712 12.9971C11.6555 12.9067 11.6399 12.8162 11.6222 12.714H11.8522C11.8449 12.7596 11.8401 12.7902 11.8342 12.8274C11.8092 12.8209 11.7917 12.8163 11.7709 12.8109C11.7814 12.8315 11.7902 12.8486 11.8019 12.8715H11.8019ZM11.5865 13.1629C11.5644 13.0897 11.5691 13.0239 11.5928 12.9584C11.6423 13.0131 11.6421 13.0907 11.5865 13.1629ZM11.8891 12.7088C11.8902 12.6971 11.8914 12.6853 11.8925 12.6736H11.925C11.9151 12.6889 11.9074 12.7006 11.8998 12.7123C11.8963 12.7111 11.8927 12.71 11.8891 12.7088ZM12.0711 11.9073C12.1843 11.9337 12.1981 12.0701 12.1133 12.2558C12.0962 12.2321 12.0735 12.2151 12.0728 12.1973C12.0691 12.1036 12.0711 12.0097 12.0711 11.9073ZM8.1861 13.1099C8.1283 13.0284 8.13521 12.9494 8.1953 12.9185V12.7088C8.20233 12.7091 8.20937 12.7095 8.2164 12.7098C8.20547 12.8431 8.22864 12.9786 8.1861 13.1099ZM8.01144 12.7417C7.99605 12.7541 7.98067 12.7666 7.96528 12.779C7.95122 12.7445 7.93715 12.71 7.91859 12.6645H8.15749C8.13901 12.7665 8.12275 12.8563 8.10466 12.9562C8.02581 12.9189 7.99705 12.8636 7.98287 12.7972C7.9969 12.7842 8.01093 12.7712 8.02495 12.7582C8.02045 12.7527 8.01594 12.7472 8.01144 12.7417ZM7.89371 12.6191C7.87413 12.5973 7.85455 12.5754 7.83497 12.5536C7.83673 12.5474 7.83849 12.5412 7.84025 12.535C7.83682 12.5413 7.83338 12.5476 7.82995 12.5539C7.82074 12.5534 7.81153 12.5529 7.80232 12.5524C7.80616 12.52 7.80999 12.4876 7.81383 12.4552C7.83475 12.392 7.88947 12.3909 7.94884 12.3809V12.6228C7.93134 12.6216 7.91253 12.6204 7.89372 12.6191H7.89371ZM7.89824 12.6599C7.89478 12.6616 7.89131 12.6633 7.88785 12.665C7.87849 12.6522 7.86914 12.6394 7.85326 12.6177C7.8735 12.6193 7.88387 12.6202 7.89367 12.6209C7.89519 12.6339 7.89672 12.6469 7.89824 12.6599ZM7.70836 12.2068C7.73754 12.2851 7.76355 12.3549 7.78956 12.4246C7.78728 12.4385 7.78501 12.4524 7.77921 12.4877C7.75163 12.4259 7.73225 12.3824 7.71286 12.339C7.7066 12.2982 7.66269 12.2585 7.70835 12.2069L7.70836 12.2068ZM7.67943 12.1914C7.59982 12.0104 7.61627 11.8752 7.71852 11.85C7.71852 11.9548 7.71927 12.0589 7.71709 12.1628C7.71692 12.1711 7.69644 12.179 7.67943 12.1914ZM7.78734 12.3458V11.9008C7.79122 11.8987 7.79509 11.8967 7.79897 11.8947C7.80745 11.918 7.81593 11.9414 7.82442 11.9648C7.83627 11.9706 7.85225 11.974 7.85796 11.9836C7.91191 12.0738 7.9639 12.1651 8.01871 12.26C7.95509 12.3198 7.88346 12.3429 7.78734 12.3458V12.3458ZM8.14239 12.5114C8.1648 12.5253 8.1872 12.5393 8.20961 12.5532C8.20601 12.5621 8.20242 12.571 8.19882 12.5799H7.98682C7.99418 12.4902 7.96571 12.4002 8.0473 12.3196C8.08743 12.3831 8.14983 12.4201 8.14297 12.4973L8.09647 12.5279C8.11177 12.5224 8.12708 12.5169 8.14238 12.5114L8.14239 12.5114ZM13.4055 10.6831C13.3943 10.4609 13.2582 10.308 13.1748 10.1313C13.138 10.0532 13.1076 9.97614 13.1134 9.8871C13.1209 9.77019 13.0881 9.66736 13.0312 9.56085C12.9652 9.4373 12.9356 9.29424 12.8902 9.15964C12.897 9.15355 12.9038 9.14746 12.9106 9.14137C13.4618 9.24976 14.0131 9.35814 14.5862 9.47083C14.187 9.88075 13.8035 10.2744 13.4055 10.6831V10.6831Z" fill="black"/>
<path d="M12.0322 12.4607V12.4607L12.033 12.4598L12.0329 12.4597L12.0322 12.4607Z" fill="black"/>
<path d="M7.25456 7.87164C7.2914 7.98684 7.34856 8.0882 7.46998 8.13557C7.48444 8.1396 7.4989 8.14362 7.51337 8.14765C7.51492 8.14232 7.51646 8.13699 7.51801 8.13166C7.50154 8.12387 7.48507 8.11608 7.46861 8.10829C7.38579 8.0426 7.3381 7.95812 7.32047 7.84357C7.46917 7.90913 7.6072 7.90753 7.74551 7.86529C7.74565 7.85901 7.74579 7.85273 7.74593 7.84645H7.63041C7.78066 7.6801 7.94341 7.55181 8.10852 7.42637C8.11463 7.42173 8.13124 7.43094 8.14296 7.43369C8.15026 7.45685 8.15756 7.48001 8.16486 7.50317C8.17196 7.5009 8.17906 7.49862 8.18617 7.49635C8.18387 7.48157 8.18157 7.4668 8.17927 7.45202C8.17578 7.29658 8.1074 7.16694 8.00668 7.05016C8.01069 7.04474 8.0147 7.03932 8.01871 7.03389C8.10555 7.04116 8.19238 7.04843 8.29661 7.05716C8.21211 6.98143 8.12418 6.97647 8.04365 6.96994C7.95624 6.90179 7.87399 6.83765 7.79173 6.77352C7.79261 6.76813 7.7935 6.76274 7.79438 6.75734C7.90489 6.75113 8.01541 6.74492 8.12592 6.73871C8.12658 6.73187 8.12723 6.72504 8.12789 6.7182C8.06059 6.70614 7.99329 6.69409 7.92021 6.68099C7.79895 6.50321 7.71239 6.29373 7.54742 6.13002C7.4611 6.22535 7.38299 6.31162 7.30137 6.40177C7.08875 6.16174 6.88226 5.92865 6.67578 5.69556C6.73298 6.3477 6.80308 6.9873 6.91887 7.63623C7.04097 7.51705 7.14889 7.4117 7.26959 7.29388C7.28586 7.45516 7.30008 7.5961 7.31593 7.75323C7.27744 7.72452 7.25293 7.70624 7.21154 7.67535C7.22813 7.75292 7.23614 7.81394 7.25458 7.87162L7.25456 7.87164ZM6.96101 7.49162C6.92109 7.22286 6.88165 6.96858 6.84624 6.71373C6.83094 6.60355 6.82397 6.49221 6.81322 6.3814C6.79151 6.2218 6.7698 6.06219 6.74808 5.90259C6.75258 5.89984 6.75709 5.89708 6.76159 5.89433C6.88308 6.03594 7.00457 6.17756 7.12605 6.31917C7.18614 6.37021 7.24623 6.42126 7.31427 6.47905C7.37764 6.40975 7.45591 6.32416 7.54151 6.23054C7.66642 6.36645 7.73847 6.52627 7.83411 6.68427C7.76179 6.70275 7.69862 6.7189 7.62174 6.73855C7.73524 6.81636 7.83717 6.88623 7.9493 6.9631C7.91202 6.99121 7.88821 7.00916 7.85348 7.03535C7.97076 7.10895 8.05939 7.19973 8.09468 7.33135C7.90806 7.49352 7.72289 7.65444 7.52655 7.82506C7.49559 7.81859 7.45058 7.80919 7.39644 7.79788C7.37236 7.58861 7.34845 7.38079 7.32205 7.15127C7.19461 7.27141 7.0835 7.37615 6.96099 7.49163L6.96101 7.49162Z" fill="black"/>
<path d="M12.6236 7.277C12.7461 7.39632 12.8539 7.50137 12.9748 7.61923C13.0871 6.96527 13.1618 6.32718 13.2312 5.68838C13.2255 5.68542 13.2199 5.68246 13.2142 5.6795C13.0074 5.91327 12.8006 6.14705 12.5913 6.38377C12.505 6.28938 12.4265 6.20349 12.3435 6.11257C12.1793 6.27994 12.0918 6.48626 11.9693 6.66773C11.8993 6.68222 11.8225 6.66398 11.7609 6.72017C11.8784 6.72757 11.9891 6.73454 12.0998 6.74151C12.0989 6.74735 12.0981 6.75319 12.0972 6.75904C12.0138 6.82371 11.9303 6.88839 11.8477 6.95238C11.7606 6.95918 11.6751 6.96652 11.5957 7.03901C11.7012 7.03113 11.7889 7.02458 11.8765 7.01803C11.8788 7.02492 11.881 7.0318 11.8833 7.03869C11.7796 7.15113 11.7187 7.28127 11.7129 7.43422C11.7119 7.45008 11.7108 7.46593 11.7097 7.48179C11.7165 7.48267 11.7233 7.48356 11.7301 7.48444C11.735 7.46683 11.74 7.44922 11.745 7.43161C11.7521 7.42074 11.7592 7.40986 11.7676 7.39701C11.9435 7.52933 12.1114 7.65953 12.2603 7.8305H12.1462C12.2855 7.89304 12.4255 7.88811 12.5742 7.82764C12.5507 7.9416 12.5058 8.02673 12.4236 8.09061C12.4231 8.0997 12.4226 8.1088 12.4222 8.11789C12.6125 8.02976 12.6477 7.85627 12.6771 7.66023C12.6393 7.68851 12.6148 7.70681 12.5757 7.73604C12.5923 7.57695 12.6072 7.43477 12.6236 7.277H12.6236ZM12.5706 7.13373C12.5446 7.35893 12.5206 7.5661 12.4959 7.77926C12.4449 7.79052 12.3977 7.80095 12.3644 7.80829C12.1708 7.6394 11.9894 7.48111 11.8043 7.3197C11.8131 7.22954 11.825 7.21293 12.0311 7.01197C12.0074 6.99534 11.9847 6.97947 11.9547 6.95845C12.0372 6.85124 12.1604 6.80062 12.2825 6.72341C12.2017 6.7031 12.1352 6.6864 12.0595 6.66738C12.1505 6.50984 12.224 6.35086 12.3489 6.21265C12.4338 6.30483 12.5126 6.39034 12.5855 6.46944C12.6442 6.41496 12.6975 6.36558 12.7508 6.3162C12.8769 6.17056 13.0029 6.02493 13.129 5.87929L13.1454 5.88595C13.1171 6.08677 13.0887 6.28758 13.0603 6.4884C13.0481 6.61651 13.0401 6.74521 13.0227 6.87261C12.996 7.06761 12.9628 7.26171 12.9299 7.47213C12.8113 7.36049 12.7001 7.25576 12.5706 7.13373H12.5706Z" fill="black"/>
<path d="M12.3202 9.83774C12.3394 9.80837 12.3732 9.78857 12.4003 9.76442C12.3969 9.70979 12.3678 9.74149 12.3477 9.74965C12.2886 9.77357 12.2319 9.81235 12.171 9.82047C12.0639 9.83476 11.9543 9.83061 11.8458 9.83418C11.832 9.83193 11.8182 9.82969 11.8045 9.82744C11.7924 9.82627 11.7804 9.82509 11.7684 9.82392C11.7696 9.80136 11.7709 9.77879 11.7721 9.75622L11.7799 9.75625L11.7874 9.75422C11.8287 9.74263 11.8708 9.73329 11.9111 9.719C12.0028 9.68651 12.0937 9.6516 12.1878 9.61658C12.1779 9.60442 12.1732 9.59619 12.1714 9.59678C12.0427 9.63888 11.9142 9.68168 11.7857 9.72443C11.7494 9.73307 11.7124 9.73956 11.677 9.75085C11.6186 9.76946 11.5499 9.77119 11.5196 9.84C11.5243 9.84453 11.5289 9.84905 11.5336 9.85358C11.5511 9.83917 11.5686 9.82476 11.5876 9.80909H11.6619C11.6621 9.8084 11.6624 9.80785 11.6626 9.80718C11.674 9.81279 11.6853 9.8184 11.6967 9.82401C11.6964 9.82401 11.6961 9.82401 11.6959 9.82401C11.7007 9.85215 11.7009 9.88208 11.7111 9.90813C11.7492 10.0057 11.7593 10.1045 11.7354 10.2062L11.7075 10.2679L11.6698 10.3424L11.6338 10.3909C11.6338 10.3909 11.5905 10.4466 11.5925 10.4445C11.5396 10.4689 11.4622 10.5041 11.4004 10.5325C11.4005 10.5324 11.4007 10.5323 11.4008 10.5322C11.2861 10.5295 11.1713 10.5269 11.0566 10.5242C10.9835 10.4988 10.9104 10.4734 10.8268 10.4444C10.8663 10.4061 10.8928 10.3803 10.9194 10.3544C10.9162 10.3515 10.913 10.3485 10.9101 10.3453C10.86 10.3663 10.8099 10.3873 10.7598 10.4083C10.6948 10.4151 10.6298 10.4219 10.5648 10.4286C10.6181 10.4336 10.6714 10.4387 10.7246 10.4437C10.6714 10.4387 10.6181 10.4337 10.5648 10.4286C10.5271 10.4275 10.4893 10.4245 10.4515 10.4254C10.3368 10.4282 10.2263 10.4133 10.1258 10.3527C10.1076 10.3304 10.0894 10.308 10.0659 10.2792C10.0861 10.2175 10.107 10.1541 10.1278 10.0906L10.1242 10.0543C10.1287 10.0502 10.1338 10.0494 10.1394 10.0517L10.1392 10.0521C10.1454 10.046 10.1515 10.0399 10.1576 10.0338C10.1616 10.0228 10.1655 10.0118 10.1695 10.0008C10.1887 9.94394 10.2142 9.88827 10.2256 9.82985C10.2413 9.74941 10.2442 9.66658 10.2563 9.58534C10.2803 9.42503 10.3778 9.30226 10.4671 9.17484C10.4943 9.13607 10.5091 9.08859 10.5296 9.0451C10.5185 9.0455 10.5074 9.04589 10.4964 9.04629C10.4939 9.05738 10.4942 9.07033 10.4883 9.07927C10.4014 9.21263 10.3136 9.34546 10.226 9.47841C10.2227 9.50034 10.2195 9.52226 10.2162 9.54419C10.1919 9.69693 10.1677 9.84967 10.1434 10.0024C10.133 10.0182 10.1226 10.0341 10.1122 10.0499C10.0851 10.114 10.0537 10.1768 10.0321 10.2428C10.0146 10.296 10.0304 10.3414 10.0935 10.3559C10.1843 10.4572 10.3161 10.4365 10.4343 10.4607C10.4047 10.5195 10.3792 10.5699 10.3538 10.6203C10.3245 10.6322 10.2951 10.6442 10.2657 10.6562C10.1527 10.6677 10.0696 10.7296 10 10.8142C10.0225 10.8073 10.045 10.8004 10.0675 10.7936C10.1334 10.7538 10.1993 10.7141 10.2652 10.6744C10.2947 10.6564 10.3242 10.6385 10.3537 10.6205C10.3536 10.6208 10.3534 10.6211 10.3533 10.6214C10.3536 10.621 10.3539 10.6206 10.3542 10.6202C10.3544 10.6201 10.3546 10.62 10.3547 10.6199C10.3546 10.62 10.3545 10.62 10.3544 10.6201C10.3978 10.5667 10.4412 10.5133 10.4837 10.4611H10.725C10.7218 10.4691 10.7185 10.4771 10.7152 10.4852C10.6924 10.5063 10.6695 10.5274 10.6357 10.5586C10.6652 10.5775 10.6848 10.5901 10.7044 10.6026C10.7124 10.6014 10.7204 10.6002 10.7284 10.5989C10.7165 10.5885 10.7046 10.578 10.6934 10.5681C10.7078 10.5436 10.72 10.523 10.7322 10.5024L10.7609 10.4719C10.7833 10.4736 10.81 10.4679 10.8275 10.4781C10.9979 10.577 11.1804 10.5823 11.3678 10.552C11.3707 10.5515 11.3736 10.5505 11.3764 10.5491C11.4292 10.5436 11.4904 10.5191 11.5394 10.4872V10.4873L11.6065 10.4492L11.6569 10.3875L11.7083 10.2841L11.7551 10.1839C11.7572 10.1798 11.7591 10.1758 11.7608 10.1717L11.7615 10.1701H11.7614C11.7842 10.1122 11.7664 10.0489 11.7632 9.98767C11.7618 9.96247 11.7557 9.93753 11.7517 9.91248C11.7469 9.89692 11.742 9.88135 11.7325 9.85106H12.2685C12.2452 9.89954 12.2253 9.95578 12.1932 10.0038C12.1517 10.0659 12.1003 10.1213 12.0532 10.1797L12.0538 10.179C12.0424 10.1979 12.0311 10.2169 12.0198 10.2358C11.9606 10.3081 11.9012 10.3802 11.8424 10.4528C11.8222 10.4777 11.8036 10.504 11.7843 10.5296C11.7724 10.5412 11.7605 10.5528 11.7486 10.5645C11.6898 10.6118 11.631 10.6592 11.5722 10.7065C11.3117 10.7727 11.0613 10.7443 10.8196 10.6282C10.7911 10.6145 10.7589 10.6085 10.7284 10.5989C10.7204 10.6002 10.7124 10.6014 10.7044 10.6026C10.8392 10.6557 10.9702 10.7297 11.11 10.7558C11.2413 10.7804 11.3821 10.7556 11.5186 10.7492C11.5394 10.7482 11.5593 10.7292 11.5797 10.7185C11.6399 10.6717 11.7001 10.6248 11.7604 10.5779C11.7729 10.5663 11.7855 10.5548 11.798 10.5432C11.9518 10.3949 12.0892 10.2332 12.1983 10.0488C12.2397 9.97886 12.2759 9.90567 12.3202 9.83776L12.3202 9.83774ZM10.1192 10.0493L10.1164 10.0495C10.1179 10.0494 10.1192 10.0493 10.1192 10.0493Z" fill="black"/>
<path d="M8.9498 10.6306L8.94922 10.6333L8.95138 10.6328L8.95308 10.6315L8.94981 10.6306L8.9498 10.6306Z" fill="black"/>
<path d="M8.08721 10.6551C8.00805 10.6043 7.94655 10.5259 7.87701 10.4601C7.8475 10.4429 7.818 10.4258 7.78849 10.4086C7.78896 10.3903 7.78943 10.3721 7.7899 10.3538L7.78926 10.353C7.78088 10.35 7.7725 10.347 7.76412 10.344L7.7373 10.3228C7.74218 10.3337 7.74707 10.3446 7.75196 10.3554C7.76404 10.3731 7.77612 10.3908 7.7882 10.4084C7.78773 10.4082 7.78726 10.4079 7.78679 10.4076C7.79059 10.4205 7.7944 10.4334 7.7982 10.4463L7.80298 10.4515C7.81623 10.4661 7.82948 10.4807 7.84273 10.4953C7.84792 10.5018 7.85311 10.5084 7.8583 10.515C7.88405 10.5428 7.90979 10.5705 7.93554 10.5983L8.01762 10.6741C8.09028 10.7026 8.16085 10.7396 8.23598 10.758C8.48499 10.8187 8.71454 10.7324 8.94376 10.652C8.94727 10.6507 8.94771 10.6407 8.94905 10.6333C8.85924 10.6558 8.76895 10.6766 8.67974 10.7014C8.47614 10.7578 8.27309 10.7743 8.08719 10.655L8.08721 10.6551Z" fill="black"/>
<path d="M12.5149 11.1944C12.451 11.2777 12.387 11.361 12.3146 11.4553C12.2595 11.3956 12.218 11.3507 12.1765 11.3057C12.1748 11.2961 12.1732 11.2865 12.1715 11.2769C12.1677 11.2774 12.1639 11.278 12.1602 11.2785C12.1616 11.2887 12.1631 11.2989 12.1645 11.309C12.1924 11.36 12.2138 11.4162 12.2496 11.4608C12.3271 11.5577 12.412 11.6487 12.49 11.7375C12.5039 11.6393 12.4318 11.5684 12.3734 11.4881C12.4578 11.4077 12.5273 11.3229 12.5149 11.1944V11.1944Z" fill="black"/>
<path d="M8.65183 6.82351V6.88796C8.65992 6.88839 8.668 6.88882 8.67609 6.88925C8.7031 6.87482 8.73011 6.8604 8.76938 6.83943C8.67775 6.74076 8.59442 6.65105 8.5111 6.56133C8.50605 6.56463 8.501 6.56793 8.49596 6.57123C8.53979 6.67747 8.5421 6.78417 8.48535 6.90312C8.55103 6.87172 8.59671 6.84988 8.65183 6.82352V6.82351Z" fill="black"/>
<path d="M11.301 6.56013C11.2368 6.63694 11.1836 6.71679 11.132 6.79774C11.127 6.8057 11.1324 6.82034 11.1329 6.83187V6.87803C11.1367 6.87844 11.1405 6.87885 11.1443 6.87927C11.1471 6.86474 11.15 6.8502 11.1528 6.83566C11.2092 6.85986 11.2656 6.88405 11.3354 6.91401C11.2533 6.79968 11.2741 6.68199 11.301 6.56014V6.56013Z" fill="black"/>
<path d="M12.7305 9.75097C12.8053 9.77255 12.8801 9.79413 12.9549 9.81571C12.9459 9.76738 12.9369 9.71906 12.9258 9.65959C12.855 9.69272 12.7927 9.72184 12.7305 9.75097Z" fill="black"/>
<path d="M6.9209 9.81571C6.99571 9.79416 7.07051 9.77261 7.14532 9.75107C7.0831 9.72189 7.02089 9.69272 6.95009 9.65952C6.93896 9.71905 6.92993 9.76738 6.9209 9.81571Z" fill="black"/>
<path d="M10.9726 10.319C10.9777 10.32 10.9823 10.322 10.9865 10.3249C11.0164 10.302 11.0464 10.2792 11.0769 10.2558C11.1097 10.2695 11.1404 10.2858 11.1731 10.2952C11.2878 10.3283 11.399 10.2687 11.4319 10.1591C11.4382 10.1596 11.4445 10.16 11.4508 10.1605C11.4505 10.1543 11.4502 10.1481 11.4499 10.1419C11.4561 10.1422 11.4624 10.1425 11.4686 10.1428C11.4682 10.1366 11.4679 10.1303 11.4675 10.1241C11.4738 10.1244 11.48 10.1248 11.4863 10.1252C11.4859 10.1189 11.4856 10.1127 11.4853 10.1064C11.4915 10.1067 11.4977 10.107 11.5039 10.1073C11.5034 10.1008 11.5029 10.0943 11.5024 10.0879C11.5227 10.0756 11.5433 10.0632 11.5746 10.0443C11.5348 9.99445 11.5066 9.95914 11.4773 9.92232C11.4828 9.9135 11.4905 9.90129 11.4982 9.88907C11.51 9.87725 11.5218 9.86542 11.5337 9.8536C11.529 9.84907 11.5244 9.84454 11.5197 9.84002C11.508 9.85187 11.4962 9.86371 11.4845 9.87556C11.3115 10.0204 11.1386 10.1652 10.9656 10.31C10.9472 10.3217 10.9287 10.3335 10.9102 10.3453C10.9131 10.3485 10.9162 10.3515 10.9195 10.3544C10.9372 10.3426 10.9549 10.3308 10.9726 10.319ZM11.5004 10.0452V10.0891C11.5008 10.0888 11.5013 10.0885 11.5017 10.0883C11.496 10.0941 11.4904 10.1 11.4847 10.1059C11.479 10.1116 11.4732 10.1173 11.4675 10.1231C11.4675 10.1231 11.4674 10.1231 11.4674 10.1232L11.4665 10.124C11.4609 10.1297 11.4552 10.1354 11.4496 10.1411C11.4438 10.1466 11.4381 10.1522 11.4324 10.1578C11.4325 10.1575 11.4326 10.1573 11.4326 10.1571C11.4031 10.1493 11.3735 10.1414 11.3452 10.1339C11.3598 10.0328 11.3924 10.0161 11.5004 10.0452H11.5004ZM11.2851 10.1572C11.2901 10.1629 11.2951 10.1687 11.3002 10.1745C11.2923 10.1931 11.287 10.2254 11.2759 10.2276C11.2524 10.2322 11.2258 10.2211 11.2005 10.2164C11.2002 10.2044 11.1999 10.1924 11.1997 10.1804C11.2281 10.1727 11.2566 10.1649 11.2851 10.1572Z" fill="black"/>
<path d="M9.45137 9.30719C9.44544 9.30746 9.43951 9.30773 9.43359 9.308C9.43985 9.31472 9.44611 9.32143 9.45237 9.32815C9.45204 9.32116 9.45171 9.31418 9.45137 9.30719Z" fill="black"/>
<path d="M7.73482 10.3196L7.73556 10.3189L7.73145 10.3123L7.73409 10.3203L7.73734 10.3228L7.73556 10.3189L7.73482 10.3196Z" fill="black"/>
<path d="M7.8417 12.5301L7.84082 12.5315L7.83984 12.535L7.84143 12.532L7.8417 12.5301Z" fill="black"/>
<path d="M9.25375 11.687C9.24859 11.6937 9.24344 11.7003 9.23828 11.707C9.2973 11.7555 9.35631 11.8041 9.41591 11.8531C9.44526 11.9547 9.50573 12.0344 9.57755 12.1058C9.58418 12.1014 9.59081 12.0971 9.59744 12.0927C9.54314 12.0021 9.48883 11.9115 9.42246 11.8007C9.38006 11.7721 9.3169 11.7296 9.25374 11.687H9.25375Z" fill="black"/>
<path d="M11.1632 10.9091C11.0032 10.8921 10.8446 10.8616 10.6854 10.8368C10.664 10.8369 10.6426 10.837 10.6212 10.8371C10.6211 10.8452 10.6211 10.8532 10.6211 10.8613C10.6371 10.861 10.6531 10.8608 10.6691 10.8605C10.8358 10.8896 11.0017 10.9274 11.1697 10.9446C11.268 10.9546 11.3696 10.9318 11.4697 10.9237C11.4638 10.9179 11.4579 10.9121 11.452 10.9063C11.3557 10.908 11.2583 10.9191 11.1631 10.909L11.1632 10.9091Z" fill="black"/>
<path d="M9.09371 10.8343C8.89919 10.8499 8.70569 10.8782 8.51179 10.9015L8.35541 10.9014C8.24833 10.8729 8.14126 10.8445 8.03418 10.8161C8.04899 10.833 8.0611 10.8603 8.07908 10.865C8.16404 10.887 8.2506 10.9028 8.33659 10.9207C8.40708 10.9206 8.47757 10.9205 8.54806 10.9203C8.60723 10.9148 8.6664 10.9093 8.72556 10.9038C8.73832 10.9 8.75107 10.8961 8.76383 10.8922C8.93526 10.8658 9.10699 10.8323 9.27398 10.9133C9.23593 10.8372 9.15938 10.829 9.09371 10.8343Z" fill="black"/>
<path d="M9.26422 11.2402C9.36978 11.279 9.39749 11.37 9.4229 11.4651C9.43097 11.4954 9.44829 11.5239 9.46535 11.5506C9.47437 11.5648 9.49194 11.5735 9.51675 11.5936C9.47326 11.4797 9.43728 11.3855 9.39925 11.2859C9.35025 11.2559 9.29602 11.2227 9.24177 11.1895C9.23833 11.1942 9.23489 11.199 9.23145 11.2037C9.24225 11.2162 9.25066 11.2353 9.26423 11.2402L9.26422 11.2402Z" fill="black"/>
<path d="M9.39906 10.514C9.37995 10.4767 9.40621 10.465 9.4331 10.4637C9.53112 10.4587 9.59622 10.3969 9.66281 10.3366C9.73163 10.2925 9.71523 10.2279 9.70656 10.1602C9.69228 10.1475 9.67733 10.1336 9.66166 10.1205C9.58431 10.056 9.54856 9.97483 9.55635 9.87313C9.55991 9.82665 9.55538 9.77954 9.55452 9.73272C9.55416 9.65806 9.55379 9.5834 9.55342 9.50874C9.53087 9.45466 9.50831 9.40057 9.48576 9.34649L9.47712 9.34702L9.46851 9.34601C9.4627 9.33962 9.45689 9.33324 9.45109 9.32685L9.4524 9.32815C9.44614 9.32143 9.43988 9.31472 9.43362 9.308L9.43544 9.31024C9.42889 9.30355 9.42235 9.29685 9.4158 9.29016L9.41862 9.29283C9.41656 9.2762 9.4145 9.25958 9.41244 9.24295L9.41549 9.23969L9.41226 9.24279C9.40261 9.24083 9.39295 9.23886 9.3833 9.2369C9.38179 9.22676 9.38028 9.21663 9.37877 9.20649C9.36229 9.19963 9.3458 9.19276 9.32932 9.1859L9.28585 9.1052L9.28378 9.10313C9.26749 9.0959 9.25121 9.08867 9.23493 9.08144C9.26046 9.11605 9.286 9.15066 9.31153 9.18526C9.33216 9.22663 9.34673 9.27271 9.37451 9.30854C9.47701 9.44076 9.53056 9.58645 9.51567 9.75513C9.50273 9.90165 9.51442 10.0391 9.62855 10.1525C9.66971 10.1934 9.6878 10.2543 9.64023 10.3109C9.57494 10.3481 9.51253 10.4099 9.44382 10.418C9.23496 10.4425 9.02788 10.4181 8.83225 10.3312C8.77334 10.2918 8.71442 10.2523 8.65551 10.2128C8.57839 10.1481 8.50128 10.0834 8.42416 10.0186C8.40707 10.0068 8.38999 9.99498 8.3729 9.98316C8.36604 9.97729 8.35919 9.97141 8.35233 9.96554C8.34717 9.96131 8.342 9.95707 8.33684 9.95284L8.33072 9.94865C8.32185 9.94232 8.31299 9.936 8.30412 9.92967L8.30118 9.92709C8.27937 9.86405 8.23106 9.83475 8.1689 9.8231C8.16091 9.88163 8.20688 9.90264 8.24333 9.93026C8.24664 9.94601 8.25629 9.96363 8.25227 9.97721C8.21992 10.0864 8.22778 10.1135 8.31738 10.1832C8.34278 10.203 8.36784 10.2232 8.39251 10.2439C8.49251 10.3277 8.55113 10.3302 8.65866 10.2547C8.70897 10.294 8.75929 10.3333 8.80868 10.3719V10.4685C8.77172 10.49 8.73441 10.5116 8.6971 10.5332C8.70135 10.5356 8.70331 10.5392 8.70296 10.544C8.69529 10.5415 8.68761 10.5389 8.67994 10.5364C8.65885 10.5409 8.63776 10.5454 8.61667 10.5499C8.59233 10.55 8.568 10.5501 8.54366 10.5501C8.51018 10.5479 8.4767 10.5457 8.44323 10.5434C8.4335 10.5433 8.42378 10.5431 8.41405 10.543C8.41389 10.5396 8.41494 10.5367 8.41719 10.5342C8.37666 10.518 8.33613 10.5019 8.2956 10.4857L8.2451 10.4436C8.23954 10.4381 8.23398 10.4325 8.22842 10.427C8.22834 10.4279 8.2284 10.4286 8.22833 10.4294L8.2093 10.4133L8.11937 10.29L8.05484 10.1999L8.03168 10.1373C8.02956 10.1253 8.02745 10.1134 8.02533 10.1014C8.02383 10.0295 8.02234 9.95763 8.02084 9.88575C8.02052 9.87118 8.0202 9.85661 8.01987 9.84204C8.03708 9.83611 8.05429 9.83018 8.07151 9.82425C8.07151 9.82449 8.07151 9.82472 8.07151 9.82496C8.09256 9.81854 8.1136 9.81211 8.13465 9.80569C8.11367 9.79048 8.09269 9.77527 8.07171 9.76006C7.92435 9.70541 7.77699 9.65076 7.62964 9.59611L7.631 9.62737C7.752 9.67906 7.87299 9.73074 8.01827 9.7928C7.9842 9.81551 7.96541 9.82805 7.94661 9.84058C7.91203 9.84036 7.87745 9.84013 7.84286 9.83991C7.82967 9.8394 7.81649 9.83888 7.8033 9.83837C7.73923 9.8328 7.67502 9.82845 7.61112 9.82137C7.52522 9.81185 7.43426 9.8192 7.36402 9.75275C7.35273 9.74151 7.34144 9.73028 7.33016 9.71904C7.32981 9.73603 7.32945 9.75301 7.3291 9.77C7.33378 9.77194 7.33866 9.77276 7.34372 9.77246C7.4233 9.87421 7.50569 9.97391 7.58152 10.0784C7.63585 10.1532 7.68211 10.2339 7.73162 10.3123C7.71495 10.2617 7.69828 10.2111 7.68161 10.1605H7.68162C7.61206 10.059 7.54249 9.95746 7.46164 9.83945C7.65115 9.85455 7.82385 9.8683 7.99655 9.88206C8.00188 9.95838 8.00721 10.0347 8.01254 10.111C8.01184 10.1226 8.01115 10.1342 8.01045 10.1457C8.01115 10.1479 8.01184 10.1501 8.01254 10.1524L8.02735 10.2099L8.1224 10.3583L8.21329 10.4601L8.29755 10.5147V10.5146C8.32169 10.5427 8.36511 10.543 8.39674 10.5603C8.5028 10.6003 8.60924 10.6001 8.71604 10.5634C8.79009 10.53 8.86414 10.4966 8.93818 10.4633L9.03163 10.5296C9.01214 10.5584 8.99265 10.5872 8.97316 10.6161C8.96647 10.6212 8.95979 10.6264 8.9531 10.6315C8.95967 10.6334 8.96623 10.6353 8.9728 10.6371C9.00953 10.6165 9.04627 10.5959 9.09746 10.5671C9.06724 10.5483 9.05245 10.5391 9.03766 10.5299C9.02763 10.5027 9.0176 10.4755 9.0029 10.4357C9.11657 10.4454 9.21968 10.4541 9.32425 10.4629C9.34155 10.4838 9.35812 10.5037 9.3747 10.5237C9.47389 10.5916 9.57289 10.6598 9.67241 10.7272C9.69796 10.7445 9.72515 10.7594 9.75159 10.7754C9.77452 10.785 9.79745 10.7947 9.82038 10.8042C9.82749 10.8073 9.8346 10.8103 9.84171 10.8134C9.8588 10.8132 9.8759 10.8131 9.89299 10.8129C9.87682 10.7984 9.86256 10.7806 9.84418 10.7699C9.69626 10.6839 9.54756 10.5991 9.3991 10.514L9.39906 10.514ZM8.3782 10.1688C8.34938 10.1422 8.32444 10.1191 8.2975 10.0943C8.30912 10.0708 8.31542 10.0581 8.32412 10.0405H8.38817C8.40396 10.0661 8.41914 10.0908 8.43733 10.1203C8.41883 10.1355 8.40184 10.1494 8.3782 10.1688V10.1688ZM8.48432 10.2529C8.4964 10.212 8.5044 10.1849 8.5124 10.1578C8.52076 10.1578 8.52912 10.1579 8.53748 10.158C8.54863 10.1815 8.55979 10.205 8.57566 10.2385C8.543 10.2437 8.5225 10.2469 8.48431 10.2529L8.48432 10.2529Z" fill="black"/>
<path d="M10.3938 11.7887C10.373 11.803 10.3481 11.8183 10.3376 11.8393C10.3002 11.9142 10.2677 11.9916 10.2344 12.0686C10.2275 12.0847 10.2252 12.1029 10.2207 12.1201C10.228 12.1232 10.2352 12.1263 10.2424 12.1294C10.2932 12.0348 10.3439 11.9401 10.405 11.8261C10.4258 11.8101 10.4669 11.7785 10.508 11.7468C10.5019 11.7413 10.4959 11.7358 10.4898 11.7304C10.4577 11.7497 10.4246 11.7676 10.3938 11.7887L10.3938 11.7887Z" fill="black"/>
<path d="M10.472 10.8365C10.4758 10.8284 10.4795 10.8203 10.4833 10.8123C10.4517 10.7838 10.42 10.7553 10.3891 10.7274C10.3026 10.7167 10.2224 10.7168 10.1689 10.7993C10.1877 10.7969 10.2065 10.7945 10.2253 10.7922C10.319 10.7101 10.3932 10.793 10.472 10.8365Z" fill="black"/>
<path d="M11.5026 10.9015C11.4858 10.9031 11.469 10.9047 11.4521 10.9063C11.458 10.9121 11.4639 10.9179 11.4698 10.9237C11.4804 10.9222 11.4909 10.9206 11.5015 10.9191C11.5962 10.9065 11.6879 10.8862 11.7754 10.8177C11.7513 10.8136 11.7429 10.8122 11.7344 10.8107L11.5026 10.9015H11.5026Z" fill="black"/>
<path d="M9.38087 10.7849C9.38505 10.7918 9.38924 10.7986 9.39342 10.8055C9.42188 10.7902 9.45035 10.7749 9.48829 10.7545C9.50684 10.7625 9.53206 10.7733 9.55728 10.7842C9.58693 10.7887 9.61657 10.7932 9.64622 10.7977C9.59514 10.765 9.54406 10.7323 9.49284 10.6995C9.44703 10.7345 9.41395 10.7597 9.38086 10.7849L9.38087 10.7849Z" fill="black"/>
<path d="M10.3799 10.9565L10.3929 10.9753C10.469 10.9373 10.5452 10.8993 10.6213 10.8613C10.6214 10.8533 10.6214 10.8452 10.6214 10.8371C10.5635 10.8607 10.5055 10.8843 10.4475 10.9078C10.425 10.924 10.4024 10.9403 10.3799 10.9565H10.3799Z" fill="black"/>
<path d="M10.5234 7.51556C10.5766 7.44972 10.6321 7.38108 10.6875 7.31241C10.596 7.3363 10.5239 7.42706 10.5234 7.51556Z" fill="black"/>
<path d="M10.4062 11.3013C10.3996 11.333 10.3929 11.3647 10.3863 11.3964C10.3482 11.4599 10.3243 11.5282 10.3105 11.6005C10.3614 11.5477 10.403 11.4913 10.4055 11.4159C10.4062 11.3929 10.4069 11.3699 10.4076 11.3469C10.4727 11.2921 10.5377 11.2373 10.6028 11.1824C10.5978 11.1762 10.5928 11.1699 10.5877 11.1636C10.5272 11.2095 10.4667 11.2554 10.4062 11.3013L10.4062 11.3013Z" fill="black"/>
<path d="M9.24316 11.8973C9.26746 11.9216 9.29175 11.9459 9.31959 11.9737C9.32194 11.9254 9.29646 11.8999 9.24316 11.8973Z" fill="black"/>
<path d="M9.41712 7.55217C9.40001 7.45652 9.36131 7.39133 9.29628 7.3413C9.28926 7.33649 9.28225 7.33167 9.26074 7.31692C9.27236 7.34079 9.27566 7.34755 9.27895 7.35431C9.32205 7.41602 9.36514 7.47773 9.41712 7.55216V7.55217Z" fill="black"/>
<path d="M10.4902 11.7304C10.4963 11.7358 10.5024 11.7413 10.5085 11.7467C10.5296 11.7298 10.5506 11.7129 10.5717 11.6959C10.5655 11.6889 10.5593 11.6818 10.5532 11.6748C10.5322 11.6933 10.5112 11.7118 10.4902 11.7304Z" fill="black"/>
<path d="M12.373 8.11727C12.3756 8.12238 12.3782 8.12748 12.3807 8.13259C12.3945 8.12769 12.4082 8.12279 12.422 8.11789C12.4225 8.1088 12.4229 8.0997 12.4234 8.09061C12.4066 8.0995 12.3898 8.10838 12.373 8.11727Z" fill="black"/>
<path d="M10.4199 11.9443C10.4266 11.9501 10.4332 11.9559 10.4399 11.9617C10.4556 11.9481 10.4713 11.9345 10.4871 11.9209C10.4784 11.9123 10.4697 11.9038 10.4609 11.8952C10.4473 11.9116 10.4336 11.928 10.4199 11.9443Z" fill="black"/>
<path d="M11.6646 12.0158L11.6612 12.0174L11.6592 12.0232L11.6627 12.0191L11.6646 12.0158Z" fill="black"/>
<path d="M10.3936 11.9858C10.3991 11.9899 10.4046 11.994 10.4101 11.9981C10.415 11.9868 10.42 11.9755 10.4249 11.9642C10.4211 11.9621 10.4173 11.9601 10.4136 11.958C10.4069 11.9672 10.4002 11.9765 10.3936 11.9858H10.3936Z" fill="black"/>
<path d="M7.59269 11.2919C7.5751 11.3156 7.55752 11.3393 7.53993 11.363C7.51306 11.3882 7.48618 11.4134 7.45918 11.4388C7.30822 11.3335 7.27059 11.1807 7.24278 11.0217C7.18123 11.2119 7.25498 11.361 7.38239 11.4775C7.34474 11.5578 7.31184 11.628 7.27894 11.6981V11.7697C7.29111 11.7475 7.29467 11.741 7.29824 11.7345C7.34055 11.6766 7.38205 11.6182 7.42539 11.5612C7.47039 11.502 7.51718 11.4441 7.56318 11.3857C7.57464 11.356 7.5861 11.3263 7.59756 11.2966L7.60652 11.2696C7.60394 11.269 7.60136 11.2684 7.59878 11.2677C7.59675 11.2758 7.59472 11.2838 7.59269 11.2919V11.2919Z" fill="black"/>
<path d="M11.665 12.0158L11.6659 12.0142L11.665 12.0158Z" fill="black"/>
<path d="M11.665 12.0158C11.6676 12.0145 11.6689 12.0139 11.665 12.0158V12.0158Z" fill="black"/>
<path d="M9.24082 7.31193L9.23916 7.31002L9.23535 7.30811L9.23758 7.31131L9.24082 7.31193Z" fill="black"/>
<path d="M10.6917 7.30802L10.6892 7.31033L10.6875 7.31241L10.6909 7.31143L10.6917 7.30802Z" fill="black"/>
<path d="M10.6914 7.30802C10.6923 7.30457 10.692 7.30567 10.6914 7.30802V7.30802Z" fill="black"/>
<path d="M9.23541 7.30811C9.23324 7.30703 9.23227 7.30654 9.23541 7.30811V7.30811Z" fill="black"/>
<path d="M9.23562 7.30811C9.23428 7.30619 9.23367 7.30532 9.23562 7.30811V7.30811Z" fill="black"/>
<path d="M8.03635 10.7956C8.02931 10.7988 8.02228 10.802 8.00684 10.809C8.02182 10.8128 8.02834 10.8144 8.03485 10.816C8.03535 10.8092 8.03585 10.8024 8.03635 10.7956Z" fill="black"/>
<path d="M7.82324 11.9695L7.82498 11.9654L7.82476 11.9648L7.82324 11.964V11.9695Z" fill="black"/>
<path d="M7.82263 12.034V11.9695C7.81437 11.9893 7.80611 12.0091 7.79785 12.0289C7.80611 12.0306 7.81437 12.0323 7.82263 12.034Z" fill="black"/>
<path d="M8.08695 12.5338L8.08496 12.5348L8.08695 12.5338L8.08637 12.535L8.08695 12.5338L8.08995 12.5323L8.09662 12.5279L8.08838 12.5308L8.08695 12.5338Z" fill="black"/>
<path d="M7.84498 12.5072C7.84392 12.5149 7.84286 12.5225 7.8418 12.5301C7.84576 12.5239 7.84973 12.5177 7.85369 12.5114C7.85079 12.51 7.84788 12.5086 7.84498 12.5072Z" fill="black"/>
<defs>
<radialGradient id="paint0_radial_4520_57893" cx="0" cy="0" r="1" gradientUnits="userSpaceOnUse" gradientTransform="translate(10 10) scale(10)">
<stop stop-color="#D1D1D1"/>
<stop offset="0.15715" stop-color="#BABABA"/>
<stop offset="0.48656" stop-color="#807F7F"/>
<stop offset="0.95753" stop-color="#232222"/>
<stop offset="1" stop-color="#1B1A1A"/>
</radialGradient>
<radialGradient id="paint1_radial_4520_57893" cx="0" cy="0" r="1" gradientUnits="userSpaceOnUse" gradientTransform="translate(8.29602 10.2335) scale(0.5846)">
<stop offset="0.1118" stop-color="#BFFB00"/>
<stop offset="1" stop-color="#678900"/>
</radialGradient>
<linearGradient id="paint2_linear_4520_57893" x1="7.42231" y1="7.82506" x2="7.42231" y2="5.89433" gradientUnits="userSpaceOnUse">
<stop stop-color="#474747"/>
<stop offset="1" stop-color="#9FA0A2"/>
</linearGradient>
<linearGradient id="paint3_linear_4520_57893" x1="12.4752" y1="7.80828" x2="12.4752" y2="5.87928" gradientUnits="userSpaceOnUse">
<stop stop-color="#474747"/>
<stop offset="1" stop-color="#9FA0A2"/>
</linearGradient>
<radialGradient id="paint4_radial_4520_57893" cx="0" cy="0" r="1" gradientUnits="userSpaceOnUse" gradientTransform="translate(11.5616 10.2815) scale(0.66829)">
<stop offset="0.1118" stop-color="#BFFB00"/>
<stop offset="1" stop-color="#678900"/>
</radialGradient>
</defs>
</svg>
