<svg width="20" height="20" viewBox="0 0 20 20" fill="none" xmlns="http://www.w3.org/2000/svg">
<circle cx="10" cy="10" r="10" fill="url(#paint0_radial_4071_53751)"/>
<path fill-rule="evenodd" clip-rule="evenodd" d="M10 19.375C15.1777 19.375 19.375 15.1777 19.375 10C19.375 4.82233 15.1777 0.625 10 0.625C4.82233 0.625 0.625 4.82233 0.625 10C0.625 15.1777 4.82233 19.375 10 19.375ZM10 20C15.5228 20 20 15.5228 20 10C20 4.47715 15.5228 0 10 0C4.47715 0 0 4.47715 0 10C0 15.5228 4.47715 20 10 20Z" fill="url(#paint1_linear_4071_53751)"/>
<path fill-rule="evenodd" clip-rule="evenodd" d="M9.99393 15.6263L9.996 17.8125C10.0151 17.8125 10.6566 17.4364 11.0044 17.2211C12.5429 16.2693 13.7177 14.777 14.2879 13.0505C14.6608 11.9215 14.7579 10.8713 14.6404 9.23915C14.6226 8.99171 14.6078 8.78802 14.6076 8.78651C14.6053 8.77328 13.3682 7.96574 13.1427 7.83032C12.5269 7.46041 11.7113 7.06844 11.024 6.81213C10.9432 6.78201 10.8731 6.76148 10.8682 6.76651C10.8633 6.77153 10.8787 7.17906 10.9025 7.67211C10.9263 8.16515 10.9535 8.74045 10.9629 8.95054C10.991 9.57539 11.0114 10.0085 11.0293 10.3596C11.0705 11.1667 11.1351 12.5373 11.1565 13.059L11.1673 13.3221L10.9343 13.7805C10.8062 14.0326 10.6319 14.3764 10.5471 14.5444L10.2513 15.1301C10.1735 15.2842 10.0837 15.4589 10.0519 15.5183L9.99393 15.6263Z" fill="#D1D1D1"/>
<path d="M9.76485 1.91421C9.58748 1.97735 9.46327 2.07809 9.37809 2.22795C9.22298 2.50078 9.26384 2.83115 9.48176 3.06623L9.56639 3.15752L9.44928 3.99558C9.38486 4.45651 9.32867 4.84927 9.32439 4.86837C9.3182 4.89606 9.26492 4.92164 9.06232 4.99418C8.38347 5.23731 7.52225 5.62685 6.98231 5.93501L6.87061 5.99878L6.96433 6.14622C7.01586 6.2273 7.08019 6.32967 7.10728 6.37371L7.15654 6.45378L7.47474 6.28601C7.97604 6.02171 8.54223 5.77 9.09091 5.56751C9.34717 5.47293 9.96633 5.26631 9.99186 5.26685L10.0228 1.87718C9.91011 1.87092 9.87047 1.87662 9.76485 1.91421Z" fill="#F6C500"/>
<path d="M9.9917 5.26686C10.0181 5.26741 10.7027 5.49868 10.9462 5.58934C11.4659 5.78283 12.0932 6.0651 12.5698 6.31987L12.8205 6.45392L12.9505 6.24821C13.022 6.13506 13.0836 6.03025 13.0873 6.01527C13.1018 5.95699 12.1481 5.47556 11.4953 5.21165C11.2517 5.11319 10.7732 4.93451 10.709 4.91807C10.6845 4.91179 10.6608 4.89405 10.6563 4.87865C10.6518 4.86324 10.6287 4.70547 10.6049 4.52806C10.5812 4.35065 10.5283 3.96947 10.4875 3.681L10.4133 3.15648L10.4889 3.07794C10.5919 2.97089 10.6248 2.91663 10.6635 2.79039C10.7269 2.58328 10.6998 2.38484 10.5829 2.2003C10.457 2.00147 10.2648 1.89066 10.0226 1.8772L9.9917 5.26686Z" fill="#EEB729"/>
<path d="M9.03252 6.78578C9.00049 6.7987 8.832 6.86642 8.65811 6.93628C7.96247 7.21574 7.25271 7.57412 6.66124 7.94459C6.57887 7.99618 6.25897 8.20605 5.95036 8.41095C5.43378 8.75393 5.38859 8.78778 5.38087 8.83734C5.37626 8.86693 5.35918 9.08597 5.34293 9.32407C5.30212 9.92154 5.30241 10.9893 5.34349 11.3585C5.41446 11.9964 5.53705 12.5571 5.72641 13.1099C5.85935 13.498 5.92303 13.6529 6.09638 14.01C6.73679 15.3289 7.73677 16.4385 8.99092 17.2218C9.30661 17.419 9.97619 17.8125 9.996 17.8125L9.99393 15.6263L9.82822 15.2976C9.73708 15.1168 9.60784 14.8619 9.54101 14.7312C9.47418 14.6005 9.28749 14.2324 9.12616 13.9132L8.83284 13.3329V13.1938C8.83284 13.1173 8.84044 12.9086 8.84976 12.73C8.85906 12.5515 8.8854 12.0081 8.9083 11.5226C8.93122 11.037 8.96475 10.3342 8.98283 9.9607C9.00091 9.58721 9.02708 9.02952 9.04099 8.72139C9.08398 7.76935 9.11424 7.13353 9.12569 6.94305C9.13781 6.74111 9.13887 6.74291 9.03252 6.78578Z" fill="white"/>
<defs>
<radialGradient id="paint0_radial_4071_53751" cx="0" cy="0" r="1" gradientUnits="userSpaceOnUse" gradientTransform="translate(4.0625 12.5) rotate(51.6325) scale(9.56577)">
<stop stop-color="#174EA9"/>
<stop offset="1" stop-color="#123066"/>
</radialGradient>
<linearGradient id="paint1_linear_4071_53751" x1="10" y1="0" x2="2.96875" y2="17.1875" gradientUnits="userSpaceOnUse">
<stop stop-color="#173774"/>
<stop offset="1" stop-color="#145ECB"/>
</linearGradient>
</defs>
</svg>
