<svg width="20" height="20" viewBox="0 0 20 20" fill="none" xmlns="http://www.w3.org/2000/svg">
<ellipse cx="9.5" cy="10" rx="7.5" ry="8" fill="white"/>
<path d="M11.5924 8.93669C10.7075 8.96294 9.74347 8.73758 9.30123 9.37359C8.74492 10.1736 8.20871 10.9875 7.66122 11.7936C7.48704 12.05 7.31441 12.3076 7.13872 12.563C7.00231 12.7613 6.99976 12.7608 6.85436 12.5523C5.86261 11.0844 4.86962 9.61721 3.87725 8.14966C3.84422 8.07314 3.64269 7.89617 3.78895 7.86609C4.3478 7.90007 5.06899 7.69224 5.38809 8.29722C5.92562 9.07894 6.41985 9.89425 7.00121 10.6438C7.67131 9.95873 8.47334 7.84917 9.44202 7.86042C10.7498 7.86304 12.0576 7.85223 13.3651 7.86827C14.0255 7.87637 14.5093 8.21524 14.7653 8.81696C15.3561 10.2902 13.8644 10.6365 14.2006 10.9463C14.5279 11.4335 14.86 11.9175 15.1902 12.4027C15.2361 12.4986 15.5026 12.7499 15.2657 12.7312C14.9665 12.7341 14.6672 12.7346 14.3682 12.7281C13.6359 12.6396 13.3964 11.7286 12.9742 11.2247C12.853 11.0289 12.7118 10.9671 12.4883 10.9705C11.6684 10.9828 10.8482 10.9754 10.0281 10.9753C9.93846 10.9623 9.64704 11.0288 9.74435 10.8664C10.0515 10.4278 10.3213 9.81499 10.9546 9.87144C11.7414 9.86959 12.5285 9.87543 13.3151 9.87018C13.9311 9.86893 13.9678 8.99812 13.3541 8.94342C12.7688 8.92064 12.1791 8.94466 11.5925 8.93669H11.5924Z" fill="black"/>
<path d="M19.7916 12.3879C19.7793 13.1678 19.6536 14.1039 19.3262 15.0045C18.9096 16.1503 18.2411 17.1131 17.2334 17.8191C16.733 18.1696 16.1857 18.4254 15.5986 18.599C15.1307 18.7374 14.6521 18.8185 14.1725 18.8982C14.1056 18.9093 14.0371 18.9328 13.9782 18.9661C13.4205 19.282 12.8339 19.5302 12.2194 19.7096C11.7457 19.8479 11.2627 19.9362 10.7688 19.9769C10.1459 20.0281 9.5295 19.9946 8.91971 19.8725C8.14029 19.7164 7.40356 19.4368 6.70958 19.0483C6.61762 18.9968 6.52595 18.9763 6.42199 18.9744C5.66953 18.9602 4.93869 18.827 4.2404 18.5436C3.54506 18.2614 2.94249 17.8375 2.4285 17.2924C1.60126 16.4152 1.07747 15.3788 0.836064 14.199C0.799374 14.0197 0.763514 13.8387 0.749414 13.6567C0.733924 13.4568 0.664504 13.2761 0.597224 13.0924C0.404914 12.5674 0.297924 12.0244 0.241214 11.4686C0.147014 10.5454 0.264864 9.63972 0.448554 8.73896C0.633724 7.83092 0.927234 6.95867 1.34421 6.13036C1.4662 5.88804 1.61131 5.65744 1.74282 5.41981C1.80367 5.30985 1.87015 5.2005 1.91221 5.08305C2.21304 4.24287 2.62812 3.46646 3.18978 2.77122C3.98043 1.79254 4.95638 1.06253 6.12243 0.586177C6.87706 0.277897 7.65949 0.0969965 8.47156 0.0258965C9.35961 -0.0518635 10.2269 0.0461365 11.0736 0.311237C11.8753 0.562207 12.583 0.984567 13.2023 1.55207C13.3653 1.70142 13.5223 1.85803 13.6732 2.01952C13.7389 2.08979 13.8066 2.11902 13.9011 2.12914C14.5331 2.19682 15.1428 2.34745 15.7238 2.61324C16.4953 2.96627 17.121 3.49391 17.6203 4.17432C18.3153 5.12146 18.7213 6.18579 18.8819 7.34552C18.9191 7.61412 18.9314 7.88609 18.9621 8.15572C18.9719 8.24214 18.9943 8.33013 19.0277 8.4104C19.3228 9.11912 19.5325 9.85257 19.6542 10.6097C19.7395 11.1403 19.7943 11.6749 19.7916 12.3879L19.7916 12.3879ZM2.49163 10.0766C2.50077 14.0633 5.75479 17.2218 9.65502 17.2353C13.5732 17.2488 16.8495 14.0905 16.8667 10.1083C16.8838 6.1841 13.6962 2.93121 9.69659 2.92269C5.72148 2.91421 2.50129 6.12121 2.49163 10.0766ZM18.9435 9.09159C18.9189 9.26929 18.8999 9.40349 18.8818 9.53779C18.7927 10.1958 18.5915 10.8184 18.2699 11.3985C18.1925 11.5381 18.1595 11.6719 18.1645 11.8287C18.1863 12.5188 18.1525 13.2046 18.0095 13.8836C17.8479 14.6508 17.5867 15.3773 17.1665 16.042C16.7198 16.7487 16.1445 17.3418 15.5189 17.8889C15.3505 18.0362 15.1725 18.1725 14.9717 18.336C15.0362 18.3295 15.0671 18.3301 15.0962 18.323C15.4954 18.2255 15.8863 18.1044 16.2628 17.936C17.0225 17.5964 17.6586 17.1007 18.1684 16.4443C18.7849 15.6504 19.1571 14.749 19.3536 13.7669C19.5012 13.0292 19.5326 12.2856 19.4769 11.5401C19.4174 10.7441 19.2558 9.96538 18.9971 9.20855C18.988 9.18176 18.9736 9.15675 18.9435 9.09158V9.09159ZM10.9533 18.4419C11.229 18.4677 11.4838 18.5004 11.7397 18.5137C12.3582 18.5459 12.9765 18.5732 13.5966 18.5307C13.7873 18.5176 13.9522 18.4691 14.111 18.3712C14.9793 17.8357 15.7409 17.178 16.3894 16.3898C16.7936 15.8985 17.1224 15.3631 17.3593 14.7708C17.5718 14.2393 17.6936 13.686 17.7732 13.1223C17.7996 12.9353 17.8049 12.7453 17.8199 12.5567C16.6364 15.8056 14.3635 17.7624 10.9533 18.4419H10.9533ZM2.77539 4.16924C2.80929 4.14174 2.84383 4.11501 2.87699 4.08664C3.22986 3.78469 3.62076 3.54103 4.04185 3.34853C4.1614 3.29388 4.25748 3.22404 4.33968 3.12505C4.95852 2.3798 5.69546 1.78935 6.58717 1.39692C7.27699 1.09334 7.99754 0.920407 8.74728 0.871607C9.23387 0.839937 9.71869 0.865767 10.2023 0.939407C10.8952 1.04492 11.5552 1.25135 12.1799 1.56521C12.4502 1.70102 12.7061 1.86542 12.9685 2.01685C13.0214 2.04734 13.0674 2.10116 13.1495 2.06278C13.1308 2.0367 13.1177 2.00853 13.0963 1.98994C12.8962 1.81605 12.7025 1.63331 12.4919 1.47306C11.8634 0.995007 11.1531 0.691837 10.3833 0.527937C9.81817 0.407627 9.24683 0.378387 8.66899 0.405007C7.78056 0.445937 6.93296 0.653917 6.12054 1.00363C5.14154 1.42505 4.30461 2.04467 3.61613 2.8608C3.28161 3.25735 2.99063 3.68318 2.7754 4.16924H2.77539ZM1.19119 14.3226C1.20853 14.3945 1.21483 14.4233 1.22246 14.4518C1.41912 15.1862 1.74249 15.8601 2.19965 16.4674C2.65758 17.0758 3.21511 17.5718 3.88179 17.9451C4.39472 18.2323 4.9442 18.4109 5.51921 18.5146C5.63523 18.5356 5.75448 18.5845 5.89513 18.5405C5.85855 18.5096 5.83624 18.4882 5.81151 18.4702C5.25788 18.0661 4.74953 17.6095 4.31145 17.0841C4.07512 16.8007 3.80752 16.5771 3.47889 16.4194C3.46754 16.414 3.45712 16.4066 3.44617 16.4003C2.72786 15.9861 2.09286 15.4721 1.5702 14.8254C1.44796 14.6741 1.33563 14.5149 1.19119 14.3226V14.3226ZM14.1953 2.5665L14.1805 2.60493C14.3228 2.80537 14.4637 3.0069 14.6088 3.20531C14.6378 3.24494 14.6808 3.2757 14.7212 3.30535C15.1148 3.59432 15.4763 3.91909 15.8153 4.27021C15.9381 4.39735 16.0666 4.51992 16.201 4.63464C16.7413 5.09594 17.2397 5.59747 17.676 6.15888C17.8485 6.38087 18.0148 6.60769 18.1998 6.85334C18.1921 6.79282 18.1917 6.75535 18.1821 6.7204C18.1171 6.48303 18.0611 6.24246 17.9819 6.00986C17.7047 5.19636 17.2725 4.47403 16.6724 3.85711C16.1179 3.2871 15.4473 2.90757 14.6874 2.68378C14.5258 2.63622 14.3595 2.60516 14.1953 2.5665ZM1.20538 10.3165C0.975154 11.1243 0.947654 11.9482 0.970514 12.778C0.978984 13.0856 1.07769 13.3563 1.21756 13.6208C1.69707 14.5276 2.37732 15.253 3.21559 15.8358C3.26783 15.8721 3.32541 15.9007 3.38051 15.9329C3.28196 15.7213 3.16785 15.533 3.05187 15.346C3.01533 15.287 2.9759 15.2296 2.93422 15.1742C1.88428 13.7771 1.304 12.2098 1.22244 10.461C1.22019 10.4127 1.21122 10.3646 1.20538 10.3165ZM12.7802 19.0212C12.7009 19.0173 12.6572 19.0128 12.6137 19.0134C11.6073 19.0273 10.6084 18.9547 9.62084 18.7535C9.36089 18.7005 9.1082 18.6806 8.84054 18.7423C8.44238 18.8341 8.0348 18.8849 7.59846 18.9587C8.27066 19.2569 8.94663 19.4414 9.65289 19.4992C10.7191 19.5864 11.7506 19.4246 12.7802 19.0212H12.7802ZM1.4973 6.81269C1.07368 7.64883 0.814524 8.53549 0.673574 9.45393C0.551244 10.251 0.506254 11.0537 0.661074 11.856C0.682394 11.8177 0.691124 11.7782 0.693964 11.7383C0.747314 10.9898 0.888914 10.2619 1.19241 9.57086C1.2123 9.52558 1.22493 9.47552 1.2318 9.42641C1.25715 9.24504 1.27561 9.06269 1.30223 8.88152C1.36455 8.45734 1.44567 8.03634 1.44575 7.604C1.4458 7.34023 1.479 7.07646 1.4973 6.81269ZM5.24979 2.87011C5.73482 2.60247 6.22914 2.35441 6.75004 2.1641C7.26695 1.97525 7.79716 1.83524 8.34131 1.75046C8.8917 1.6647 9.44428 1.63237 10.0022 1.64935C10.5549 1.66617 11.0954 1.76994 11.6398 1.84871C9.51725 0.916616 6.92084 1.26983 5.24977 2.87011H5.24979ZM4.95944 17.1623C4.97692 17.1864 4.98493 17.2017 4.99666 17.2131C5.52358 17.726 6.10344 18.1691 6.73869 18.5401C6.81826 18.5865 6.89871 18.6093 6.99028 18.603C7.26088 18.5845 7.53219 18.5742 7.80211 18.5489C7.97361 18.5328 8.14314 18.4957 8.32126 18.4668C8.30397 18.4388 8.29967 18.4224 8.29169 18.4204C8.16971 18.3892 8.04787 18.3571 7.92482 18.3306C7.06815 18.1464 6.25726 17.8426 5.49529 17.4085C5.32804 17.3132 5.16852 17.1985 4.95944 17.1623V17.1623ZM17.1052 5.98269C17.7277 7.14499 18.0767 8.37971 18.1434 9.69788L18.1783 9.68296C18.3187 9.04469 18.3669 8.39938 18.32 7.74758C18.3161 7.69312 18.2977 7.6351 18.2704 7.58762C17.9402 7.01144 17.5601 6.47054 17.1052 5.98269H17.1052ZM1.90646 6.71746C1.92636 6.67842 1.94799 6.64015 1.96589 6.60022C2.1653 6.15536 2.39968 5.72895 2.68541 5.33476C2.9185 5.01318 3.17457 4.70819 3.42252 4.39749C3.50264 4.2971 3.57563 4.19445 3.63222 4.03795C3.10877 4.39133 2.66893 4.77527 2.32914 5.26442C2.2686 5.35158 2.20834 5.44398 2.17334 5.54294C2.03869 5.92372 1.96041 6.31907 1.90644 6.71746H1.90646Z" fill="url(#paint0_radial_3510_21436)"/>
<defs>
<radialGradient id="paint0_radial_3510_21436" cx="0" cy="0" r="1" gradientUnits="userSpaceOnUse" gradientTransform="translate(9.66561 10.0934) scale(11.2402 11.2402)">
<stop offset="0.66428" stop-color="#FFEC00"/>
<stop offset="0.68125" stop-color="#FFCE00"/>
<stop offset="0.69824" stop-color="#FFB700"/>
<stop offset="0.71449" stop-color="#FFAA00"/>
<stop offset="0.72909" stop-color="#FFA600"/>
</radialGradient>
</defs>
</svg>
