<svg width="20" height="20" viewBox="0 0 20 20" fill="none" xmlns="http://www.w3.org/2000/svg">
<path fill-rule="evenodd" clip-rule="evenodd" d="M18.4933 10.0342C18.4933 14.8804 14.6058 18.8225 9.8275 18.8225C5.04875 18.8225 1.16083 14.88 1.16083 10.0342C1.16083 5.18792 5.04875 1.24542 9.8275 1.24542C14.6058 1.24542 18.4933 5.18833 18.4933 10.0342ZM19.7221 10C19.7221 4.48625 15.2983 0 9.86083 0C4.42375 0 0 4.48625 0 10C0 15.5137 4.42375 20 9.86083 20C15.2983 20 19.7221 15.5137 19.7221 10Z" fill="url(#paint0_linear_2102_2287)"/>
<path d="M10.2804 7.86125C10.2736 7.87703 10.2623 7.89047 10.248 7.89988C10.2336 7.90929 10.2168 7.91426 10.1996 7.91417H4.14C4.12284 7.91415 4.10606 7.90914 4.09171 7.89974C4.07735 7.89034 4.06605 7.87697 4.05917 7.86125L3.7425 7.14292C3.7365 7.12936 3.73396 7.11453 3.7351 7.09975C3.73624 7.08498 3.74104 7.07071 3.74905 7.05824C3.75706 7.04577 3.76804 7.03548 3.781 7.0283C3.79397 7.02112 3.80851 7.01726 3.82333 7.01708H4.52833C4.56083 7.01708 4.58167 6.98375 4.56875 6.95375L4.17583 6.06917C4.16974 6.05559 4.16713 6.04072 4.16823 6.02588C4.16933 6.01105 4.1741 5.99672 4.18212 5.98419C4.19014 5.97166 4.20116 5.96133 4.21417 5.95412C4.22719 5.94692 4.24179 5.94307 4.25667 5.94292H7.59542C7.63042 5.94292 7.66208 5.96375 7.67625 5.99542L8.10583 6.96417C8.12042 6.99625 8.15167 7.01708 8.18625 7.01708H10.5196C10.5829 7.01708 10.6258 7.08375 10.5996 7.14333L10.2804 7.86125Z" fill="url(#paint1_linear_2102_2287)"/>
<path d="M9.68875 9.20375C9.68193 9.21955 9.67065 9.23301 9.65629 9.24248C9.64193 9.25196 9.62512 9.25703 9.60792 9.25708H4.73458C4.71751 9.25692 4.70085 9.25179 4.68665 9.24232C4.67244 9.23285 4.6613 9.21945 4.65458 9.20375L4.33792 8.48917C4.33173 8.47563 4.32902 8.46077 4.33005 8.44592C4.33108 8.43108 4.3358 8.41673 4.3438 8.40418C4.35179 8.39163 4.3628 8.38128 4.37582 8.37407C4.38884 8.36686 4.40345 8.36303 4.41833 8.36292H9.92417C9.98833 8.36292 10.0312 8.42958 10.005 8.48917L9.68875 9.20375Z" fill="url(#paint2_linear_2102_2287)"/>
<path d="M15.8983 7.01833C15.9625 7.01833 16.0042 7.08375 15.9808 7.14458L15.6629 7.85958C15.6558 7.87553 15.644 7.88898 15.6292 7.89819C15.6143 7.90739 15.597 7.91194 15.5796 7.91125H14.7821C14.7496 7.91125 14.7175 7.935 14.7038 7.9675L14.5575 8.29458C14.5543 8.3016 14.5529 8.30929 14.5535 8.31698C14.554 8.32467 14.5564 8.3321 14.5606 8.3386C14.5647 8.3451 14.5704 8.35046 14.5772 8.3542C14.5839 8.35793 14.5915 8.35993 14.5992 8.36H15.3033C15.3675 8.36 15.4092 8.43083 15.3862 8.48667L15.0679 9.20667C15.06 9.22204 15.0481 9.23498 15.0334 9.24408C15.0187 9.25319 15.0019 9.25811 14.9846 9.25833H14.1875C14.1701 9.25749 14.1528 9.26193 14.1379 9.27108C14.123 9.28022 14.1113 9.29364 14.1042 9.30958L11.6467 14.8513C11.6416 14.8654 11.6322 14.8776 11.6198 14.8861C11.6073 14.8946 11.5925 14.8988 11.5775 14.8983H10.4658L8.15083 14.8942C8.1334 14.8947 8.11618 14.8901 8.10141 14.8808C8.08663 14.8715 8.07497 14.858 8.06792 14.8421L5.965 10.1004C5.95832 10.0871 5.95516 10.0722 5.95583 10.0573C5.9565 10.0424 5.96098 10.0279 5.96883 10.0152C5.97668 10.0025 5.98764 9.99206 6.00068 9.9848C6.01373 9.97754 6.02841 9.97373 6.04333 9.97375H9.38667C9.41917 9.97375 9.45125 9.9925 9.46542 10.0254L9.86167 10.9187L12.0429 5.99375C12.0509 5.9785 12.0628 5.96571 12.0775 5.95675C12.0922 5.9478 12.1091 5.94301 12.1263 5.94292H15.465C15.4798 5.94297 15.4944 5.94679 15.5073 5.954C15.5202 5.96122 15.5311 5.9716 15.539 5.98417C15.5468 5.99675 15.5513 6.01111 15.5521 6.0259C15.5528 6.04069 15.5498 6.05543 15.5433 6.06875L15.1517 6.9525C15.1483 6.95949 15.1467 6.96722 15.1471 6.97498C15.1476 6.98273 15.1499 6.99025 15.1541 6.99684C15.1582 7.00342 15.1639 7.00884 15.1707 7.0126C15.1775 7.01636 15.1852 7.01833 15.1929 7.01833H15.8983Z" fill="url(#paint3_linear_2102_2287)"/>
<defs>
<linearGradient id="paint0_linear_2102_2287" x1="3.125" y1="2.70833" x2="15.8333" y2="18.3333" gradientUnits="userSpaceOnUse">
<stop stop-color="#F45E10"/>
<stop offset="0.290032" stop-color="#ED4423"/>
<stop offset="0.648998" stop-color="#C60D4E"/>
<stop offset="1" stop-color="#8B106B"/>
</linearGradient>
<linearGradient id="paint1_linear_2102_2287" x1="3.125" y1="2.70833" x2="15.8333" y2="18.3333" gradientUnits="userSpaceOnUse">
<stop stop-color="#F45E10"/>
<stop offset="0.290032" stop-color="#ED4423"/>
<stop offset="0.648998" stop-color="#C60D4E"/>
<stop offset="1" stop-color="#8B106B"/>
</linearGradient>
<linearGradient id="paint2_linear_2102_2287" x1="3.125" y1="2.70833" x2="15.8333" y2="18.3333" gradientUnits="userSpaceOnUse">
<stop stop-color="#F45E10"/>
<stop offset="0.290032" stop-color="#ED4423"/>
<stop offset="0.648998" stop-color="#C60D4E"/>
<stop offset="1" stop-color="#8B106B"/>
</linearGradient>
<linearGradient id="paint3_linear_2102_2287" x1="3.125" y1="2.70833" x2="15.8333" y2="18.3333" gradientUnits="userSpaceOnUse">
<stop stop-color="#F45E10"/>
<stop offset="0.290032" stop-color="#ED4423"/>
<stop offset="0.648998" stop-color="#C60D4E"/>
<stop offset="1" stop-color="#8B106B"/>
</linearGradient>
</defs>
</svg>
