<svg width="20" height="20" viewBox="0 0 20 20" fill="none" xmlns="http://www.w3.org/2000/svg">
<rect x="1.10059" y="1.09564" width="17.7823" height="17.7823" fill="white"/>
<path fill-rule="evenodd" clip-rule="evenodd" d="M1.19403 0.0294116C0.616155 0.10343 0.130737 0.587507 0.0324358 1.1878C0.0122459 1.31101 -0.000205152 4.71488 3.56135e-05 10.0384C0.00048275 19.5682 -0.0131377 18.9745 0.213698 19.3522C0.356197 19.5895 0.541483 19.752 0.824727 19.8883L1.0483 19.9958H10.0082H18.9681L19.1745 19.9129C19.4597 19.7984 19.8027 19.4555 19.9171 19.1703L20 18.9639V10.004V1.04407L19.8931 0.818367C19.6879 0.385504 19.2994 0.0989929 18.8246 0.0303402C18.549 -0.00952368 1.50482 -0.0103836 1.19403 0.0294116ZM6.21255 3.0481C6.24203 3.06702 6.24375 3.80362 6.21943 5.97976C6.20154 7.57828 6.1851 8.90552 6.1829 8.92914C6.17908 8.97021 6.07727 8.98215 5.68599 8.98741C5.50033 8.98992 5.44963 9.03931 5.6257 9.04616C5.69982 9.04905 5.7759 9.055 5.79482 9.0594C5.81374 9.0638 5.90272 9.06917 5.99259 9.07137C6.17158 9.0757 6.21104 9.12963 6.06138 9.1654C6.00938 9.17782 5.95132 9.19973 5.9324 9.21411C5.91348 9.22845 5.75097 9.2258 5.57125 9.20819C5.39154 9.19058 5.17464 9.17032 5.08931 9.16314C4.76665 9.13603 4.7618 9.12912 4.68296 8.58131C4.49957 7.30735 4.4703 7.09224 4.47044 7.02022C4.47078 6.86661 4.40994 6.94702 4.39236 7.1234C4.38245 7.2227 4.32639 7.67386 4.26771 8.12595C4.20903 8.57807 4.16105 8.99209 4.16105 9.04602C4.16105 9.09999 4.14558 9.14411 4.12666 9.14411C4.0804 9.14411 4.08022 9.14693 4.17794 8.36926C4.22506 7.99425 4.2564 7.68019 4.24756 7.67135C4.22279 7.64659 4.20074 7.73419 4.18417 7.92309C4.16122 8.18521 4.02389 9.07797 4.00036 9.11801C3.99214 9.13204 3.93047 9.12055 3.86333 9.09249C3.75454 9.04705 3.70387 9.03959 3.50755 9.04021C2.97219 9.04186 2.70339 8.93382 2.66762 8.70265C2.65689 8.63331 2.62418 8.17417 2.59497 7.68232C2.56574 7.19047 2.52763 6.61005 2.51029 6.39251C2.49296 6.17496 2.46995 5.77253 2.45915 5.49823C2.43143 4.79272 2.3756 3.8527 2.35266 3.70439C2.33323 3.57895 2.33343 3.57868 2.48859 3.54559C2.60478 3.52079 2.69004 3.52519 2.82642 3.56303C2.92672 3.59085 3.08889 3.62883 3.18674 3.6474L3.36463 3.68121L3.38441 3.92762C3.47542 5.06135 3.51804 7.44668 3.45004 7.59919C3.42823 7.64806 3.42235 7.70736 3.43693 7.73096C3.47594 7.79407 3.49664 7.65873 3.59346 6.70732C3.64093 6.24096 3.695 5.75878 3.71368 5.63581C3.75464 5.36581 3.85463 4.48179 3.87124 4.24281C3.89556 3.8926 3.9131 3.84727 4.02433 3.84727C4.07985 3.84727 4.18465 3.87104 4.25726 3.90006C4.3483 3.93652 4.41503 3.94333 4.4724 3.92211C4.52805 3.90154 4.60227 3.90725 4.69662 3.93941L4.83767 3.98746L4.92954 4.76864C4.98007 5.19831 5.03679 5.64269 5.05557 5.7562C5.07435 5.8697 5.1215 6.2175 5.16037 6.52905C5.1992 6.84064 5.2379 7.10246 5.24636 7.11092C5.25478 7.11934 5.2617 6.26466 5.2617 5.21162C5.2617 3.95809 5.27356 3.29695 5.29609 3.29695C5.31501 3.29695 5.36523 3.2621 5.4077 3.21956C5.53338 3.0936 6.09653 2.97367 6.21255 3.0481ZM13.6927 3.27975C13.7857 3.41633 13.7962 3.57114 13.7184 3.65638C13.7019 3.67433 13.6885 3.71519 13.6885 3.74714C13.6885 3.7791 13.6591 3.84156 13.6232 3.88593C13.5769 3.94306 13.5632 3.99936 13.5761 4.07889L13.5943 4.19122L13.2373 4.19923C13.0409 4.20364 12.7742 4.20281 12.6446 4.19734L12.409 4.18744L12.4315 4.54188C12.4664 5.09161 12.4787 9.17851 12.4454 9.17851C12.4292 9.17851 12.4132 8.89606 12.4099 8.5508C12.4051 8.0607 12.3995 7.99095 12.3841 8.23264C12.3732 8.4029 12.3541 8.55782 12.3416 8.57691C12.3291 8.59596 12.3315 8.68043 12.3469 8.7646C12.4053 9.0841 12.3088 9.24211 12.1575 9.07484C12.1187 9.03205 12.0708 9.01317 12.032 9.02549C11.997 9.0366 11.8965 9.00774 11.8056 8.96051C11.7156 8.91384 11.6158 8.86723 11.5839 8.85698C11.5227 8.83731 11.5262 9.02466 11.5066 4.81033C11.5044 4.34768 11.5047 4.346 11.5833 4.34889C11.6356 4.35081 11.6562 4.33633 11.6446 4.30589C11.6336 4.27721 11.6523 4.26001 11.6946 4.26001C11.7319 4.26001 11.7624 4.2468 11.7624 4.23071C11.7624 4.21457 11.6734 4.20064 11.5646 4.19972C10.5626 4.19132 10.6433 4.19934 10.5917 4.10286C10.5323 3.99187 10.5403 3.27222 10.6022 3.17233C10.6124 3.15575 11.2909 3.14217 12.1099 3.14217H13.599L13.6927 3.27975ZM16.3885 3.3839C16.9814 3.45279 17.397 3.53647 17.4602 3.59969C17.4885 3.628 17.5042 3.6798 17.4951 3.71478C17.4859 3.74979 17.4919 3.78677 17.5085 3.79698C17.525 3.8072 17.532 3.85752 17.5241 3.9088C17.4741 4.23335 17.4744 4.26644 17.5277 4.24598C17.5565 4.2349 17.612 4.24292 17.6509 4.26372C17.7182 4.29974 17.7205 4.32116 17.6991 4.70212C17.6867 4.92246 17.6613 5.28068 17.6428 5.49823C17.6243 5.71578 17.6026 6.12594 17.5947 6.4097C17.5696 7.30845 17.511 8.22721 17.4685 8.38742C17.4155 8.58712 17.3591 8.65082 17.3745 8.4935C17.3813 8.42385 17.3693 8.37043 17.3449 8.36231C17.3224 8.35478 17.3046 8.37669 17.3054 8.41102C17.3089 8.56067 17.2682 8.82548 17.2284 8.91301C17.2045 8.96536 17.1528 9.01537 17.1135 9.02414C17.0742 9.03295 16.7099 9.06415 16.304 9.09349C15.8981 9.12282 15.5591 9.15381 15.5505 9.16238C15.5213 9.19158 15.4426 9.10143 15.4426 9.03876C15.4426 9.00433 15.4248 8.96516 15.4029 8.95164C15.3743 8.93393 15.3689 8.96275 15.3838 9.05451L15.4045 9.18198L15.2258 9.17163L15.0471 9.16131L15.0377 7.71672C15.0325 6.92219 15.0402 6.11735 15.0549 5.92817C15.0695 5.739 15.0769 5.31725 15.0713 4.99091L15.0612 4.39759H14.9767C14.9184 4.39759 14.8923 4.37847 14.8923 4.33568C14.8923 4.30163 14.8775 4.25898 14.8595 4.24092C14.8386 4.22008 14.8405 4.11514 14.8645 3.95345C14.8979 3.72802 14.8957 3.694 14.8449 3.65693C14.7994 3.6236 14.7946 3.59649 14.8219 3.52478C14.855 3.43786 14.8671 3.43429 15.1494 3.42837C15.3107 3.425 15.4775 3.42115 15.52 3.41977C15.5811 3.41785 15.5952 3.43367 15.5867 3.49472C15.5707 3.6098 15.6113 3.58841 15.6684 3.45172C15.7284 3.3083 15.7335 3.30782 16.3885 3.3839ZM7.90613 3.73548C7.93437 3.7857 7.98232 3.79427 8.19532 3.78711L8.45064 3.77858L8.47461 3.99348C8.48779 4.1117 8.51234 4.50078 8.52923 4.85807C8.54612 5.2154 8.58488 5.83451 8.61539 6.23388C8.6459 6.63327 8.69938 7.42436 8.73423 7.99188C8.79008 8.90142 8.79156 9.02848 8.74671 9.06387C8.68852 9.10982 8.31478 9.11622 8.34284 9.07082C8.37349 9.02122 8.3122 9.03718 8.19305 9.10986C8.13111 9.14762 8.0445 9.17851 8.00061 9.17851C7.92236 9.17851 7.92023 9.16919 7.89234 8.70558C7.87669 8.44548 7.85997 8.05465 7.85523 7.8371C7.85044 7.61955 7.82998 7.34869 7.80976 7.23519C7.7895 7.12168 7.77285 7.01719 7.77275 7.00302C7.77264 6.98885 7.70547 6.97722 7.62354 6.97722H7.47451L7.44159 6.81385C7.41108 6.66227 7.40682 6.68153 7.38264 7.08041C7.36829 7.31687 7.32568 7.93599 7.28795 8.45621L7.21929 9.40208L7.07459 9.53171C6.99418 9.60374 6.85471 9.68391 6.76077 9.71212C6.66777 9.74008 6.56685 9.78534 6.53655 9.81279C6.48424 9.86015 6.38618 9.86731 6.34559 9.82675C6.33531 9.81643 6.35085 9.5 6.38016 9.12351C6.4095 8.74706 6.44847 8.08302 6.46683 7.64793C6.50965 6.632 6.59674 4.9906 6.62195 4.72434C6.63485 4.58804 6.63031 4.53428 6.60857 4.56595C6.56173 4.6343 6.54013 4.51574 6.5748 4.38039C6.58931 4.32364 6.62254 4.18434 6.64861 4.07084C6.68349 3.91884 6.71296 3.86113 6.76046 3.85184C6.79592 3.84493 6.84081 3.81817 6.86021 3.79241C6.8837 3.76118 6.99631 3.74106 7.19776 3.73201C7.36403 3.72458 7.50976 3.70876 7.52166 3.69689C7.53353 3.68499 7.61728 3.67529 7.70777 3.67529C7.82864 3.67529 7.8813 3.69125 7.90613 3.73548ZM9.24675 4.13873C9.4049 4.16656 9.66028 4.22001 9.81427 4.2575C9.96822 4.29499 10.249 4.35167 10.4382 4.38345C10.8791 4.45754 10.8931 4.46538 10.8931 4.63842C10.8931 4.72706 10.9135 4.79403 10.9484 4.82031C10.9935 4.85429 11.0076 4.96549 11.0253 5.42532C11.0405 5.82158 11.0356 5.99566 11.0088 6.0122C10.9745 6.03342 10.3497 5.96467 10.2662 5.93048C10.1959 5.90172 10.6151 5.91376 10.7468 5.9443C10.8749 5.97402 10.936 5.96745 10.8968 5.92821C10.8873 5.91875 10.7278 5.88824 10.5423 5.86038C10.3569 5.83255 10.1995 5.80418 10.1927 5.79733C10.1858 5.79052 10.1722 5.66336 10.1623 5.51478C10.1525 5.36619 10.1409 5.24202 10.1365 5.23879C10.1322 5.23559 10.0799 5.22369 10.0203 5.21238C9.91436 5.19225 9.91167 5.19494 9.89833 5.33462C9.89087 5.41317 9.8942 5.55141 9.90579 5.64176C9.92399 5.78368 9.9568 5.83785 10.1463 6.0391C10.7154 6.64338 10.8758 6.8017 10.93 6.81213C10.9835 6.82241 10.989 6.92174 10.9941 7.98717L10.9997 9.15092L10.8823 9.13723C10.8141 9.12929 10.7649 9.13878 10.7649 9.15987C10.7649 9.19505 10.6793 9.19302 9.56108 9.13122C9.38137 9.12128 9.19313 9.11237 9.14281 9.11144L9.05128 9.10972L9.0476 8.70836C9.04561 8.48761 9.02965 8.28977 9.01214 8.26869C8.97221 8.22057 8.95556 7.93303 8.98951 7.87806C9.00344 7.85554 8.99841 7.8371 8.9784 7.8371C8.95542 7.8371 8.94197 7.72122 8.94197 7.52324V7.20939L9.03656 7.22765C9.08856 7.2377 9.30206 7.26518 9.51094 7.28867L9.89073 7.33142L9.89936 7.79063L9.90803 8.24984L9.70874 8.25435L9.50949 8.25889L9.80185 8.30112C10.1255 8.3479 10.1971 8.33844 10.159 8.254C10.1452 8.22332 10.1295 7.96608 10.1242 7.68232L10.1146 7.1664L9.54172 6.60696C9.08052 6.15659 8.97654 6.0382 9.00842 5.99978C9.0302 5.97354 9.03384 5.94668 9.01647 5.94011C8.9883 5.92944 8.91373 5.02602 8.90947 4.64386C8.90858 4.56179 8.89977 4.48158 8.88993 4.46569C8.8801 4.44977 8.88928 4.4261 8.91033 4.4131C8.93485 4.39793 8.94046 4.33547 8.92598 4.23875C8.91353 4.15586 8.91594 4.08807 8.93128 4.08807C8.94662 4.0881 9.08856 4.11091 9.24675 4.13873ZM16.1239 6.03689C16.1181 7.0142 16.1188 7.88095 16.1254 7.96302L16.1375 8.11226H16.302C16.3926 8.11226 16.511 8.08915 16.5652 8.06087C16.6387 8.02249 16.6473 8.00945 16.599 8.00928C16.5393 8.00908 16.5364 7.99037 16.5615 7.75971C16.5931 7.4679 16.5929 7.47791 16.5843 7.01447C16.5806 6.81742 16.5714 6.66264 16.5638 6.67052C16.5562 6.67843 16.5414 6.94025 16.5311 7.25238C16.5207 7.56452 16.498 7.86634 16.4806 7.92309C16.4404 8.05431 16.4617 7.32757 16.5144 6.77085C16.535 6.5533 16.5559 6.18957 16.5608 5.96257C16.5658 5.73556 16.5805 5.26954 16.5936 4.92697L16.6175 4.30407L16.5073 4.28206C16.4467 4.26992 16.338 4.26001 16.2658 4.26001H16.1345L16.1239 6.03689ZM7.60572 4.52657C7.60287 4.56915 7.60194 4.61418 7.60366 4.62666C7.60534 4.63915 7.58378 4.66219 7.55578 4.67788C7.51014 4.70343 7.47602 5.10613 7.44696 5.96257C7.4463 5.98148 7.5077 5.99627 7.58337 5.99541C7.65904 5.99455 7.71895 5.97908 7.71648 5.96102C7.71403 5.94296 7.70272 5.75792 7.69133 5.54983C7.66605 5.08694 7.71985 5.16759 7.75572 5.64641C7.76951 5.83032 7.7949 5.9895 7.81209 6.00016C7.85285 6.02534 7.8146 5.51096 7.75558 5.24027C7.68191 4.9022 7.63554 4.66195 7.62282 4.55237C7.61498 4.48444 7.60909 4.47563 7.60572 4.52657ZM14.7609 4.5448C14.8066 4.62804 14.8176 5.04566 14.7781 5.19728L14.7534 5.29186H14.3454H13.9375L13.9229 5.62415C13.915 5.80689 13.9151 6.00164 13.9231 6.05695L13.9379 6.15745L14.3307 6.146C14.6998 6.13523 14.7245 6.1387 14.7405 6.20333C14.7616 6.2885 14.7337 6.80208 14.7039 6.87823C14.6788 6.94204 14.4813 6.97722 14.148 6.97722H13.9293V7.6504V8.32355L14.1786 8.30539C14.3158 8.29542 14.4861 8.27681 14.557 8.26405L14.686 8.24083L14.6881 8.37432C14.69 8.48903 14.6947 8.4969 14.7215 8.43038C14.7385 8.3878 14.7437 8.32974 14.7328 8.3014C14.7219 8.27302 14.728 8.24984 14.7463 8.24984C14.7858 8.24984 14.8345 8.58169 14.827 8.80016C14.8187 9.04158 14.7787 9.06253 14.1591 9.14982C13.7324 9.20998 13.6093 9.21731 13.5886 9.18384C13.5695 9.15295 13.4845 9.14618 13.2814 9.15935L13.0006 9.17751V7.28695V5.39635L13.078 5.37919C13.1206 5.36973 13.2095 5.35646 13.2758 5.34965C13.3637 5.3406 13.3482 5.33579 13.2183 5.33176C13.0507 5.32657 13.0392 5.32038 13.018 5.2239C13.0056 5.16763 13.0027 5.10957 13.0115 5.09492C13.0204 5.08026 13.0171 5.00638 13.0044 4.93071C12.9842 4.81074 13.0261 4.5987 13.0906 4.49431C13.0998 4.47935 13.47 4.46738 13.9132 4.46776C14.7098 4.46841 14.7195 4.4693 14.7609 4.5448ZM11.0052 4.73294C11.0054 4.75661 10.9902 4.77594 10.9713 4.77594C10.9524 4.77594 10.9371 4.73336 10.9374 4.68135C10.9378 4.60764 10.9453 4.59815 10.9713 4.63836C10.9896 4.66673 11.0049 4.70931 11.0052 4.73294ZM13.4757 5.31535C13.5005 5.32529 13.5302 5.32406 13.5416 5.31264C13.553 5.30122 13.5327 5.2931 13.4965 5.29458C13.4564 5.29623 13.4482 5.30438 13.4757 5.31535ZM7.86668 7.00302C7.85949 7.01719 7.86448 7.07525 7.87779 7.132C7.90159 7.23347 7.90204 7.23302 7.90606 7.1062C7.90991 6.98372 7.89557 6.94613 7.86668 7.00302ZM9.00327 8.76577C9.00378 8.89141 8.99872 8.90438 8.97637 8.83456C8.96123 8.78726 8.94913 8.67118 8.94947 8.5766C8.95002 8.42966 8.95394 8.41965 8.97637 8.5078C8.99081 8.56456 9.00292 8.68064 9.00327 8.76577ZM14.7134 8.65398C14.7052 8.68711 14.7096 8.75287 14.7232 8.80016C14.7433 8.87023 14.7485 8.85908 14.7513 8.73997C14.7549 8.5874 14.739 8.55121 14.7134 8.65398ZM13.4907 9.23567C13.4671 9.24524 13.4284 9.24524 13.4047 9.23567C13.3811 9.22615 13.4004 9.21834 13.4477 9.21834C13.495 9.21834 13.5144 9.22615 13.4907 9.23567ZM3.26678 10.5213C3.48433 10.5408 3.74356 10.5815 3.8429 10.6118L4.02347 10.6669V13.1V15.5331L3.8601 15.5156C3.77026 15.5059 3.70745 15.5095 3.72055 15.5236C3.74694 15.5519 3.93095 15.5756 4.91775 15.6777C5.28663 15.7159 5.65036 15.7554 5.72603 15.7656L5.86361 15.784L5.87046 15.9982C5.87421 16.1159 5.88377 16.2779 5.89168 16.3582C5.90017 16.4443 5.88807 16.5286 5.86217 16.5641C5.83248 16.6047 5.82877 16.6437 5.85075 16.6848C5.87138 16.7233 5.87107 16.7454 5.84996 16.7454C5.83162 16.7454 5.80682 16.7764 5.79482 16.8142C5.78282 16.8521 5.75616 16.883 5.73559 16.883C5.70949 16.883 5.70416 16.74 5.71798 16.4101C5.73549 15.9913 5.73239 15.9494 5.69074 16.0442C5.66488 16.1031 5.64183 16.2269 5.63953 16.3194C5.63722 16.4118 5.61779 16.5761 5.59636 16.6846L5.55739 16.8816L5.43532 16.8647C5.36822 16.8554 5.08886 16.8243 4.81456 16.7957C4.54026 16.767 4.24229 16.7342 4.15245 16.7228C4.01494 16.7054 3.98908 16.7111 3.98908 16.7591C3.98908 16.8098 3.94663 16.8141 3.60213 16.7982C3.22399 16.7807 2.82766 16.7305 2.79282 16.6957C2.75168 16.6546 2.72 14.0364 2.74002 12.3343C2.75952 10.6758 2.7674 10.4855 2.81651 10.4856C2.84661 10.4857 3.04923 10.5017 3.26678 10.5213ZM13.0524 10.7053C13.2604 10.7505 13.5908 10.8074 13.7867 10.8317C14.1602 10.8781 14.2388 10.9165 14.2388 11.0526C14.2388 11.097 14.2514 11.1384 14.2668 11.1448C14.2821 11.1511 14.2857 11.2607 14.2746 11.3884L14.2545 11.6206H14.3633C14.4232 11.6206 14.4794 11.6399 14.4883 11.6636C14.4971 11.6872 14.4991 12.3411 14.4926 13.1167C14.4861 13.8924 14.4801 14.8288 14.4792 15.1977C14.4777 15.8412 14.4374 16.1951 14.3656 16.1951C14.3479 16.1951 14.3427 16.1487 14.354 16.0919C14.3685 16.0197 14.3613 15.9887 14.33 15.9887C14.299 15.9887 14.2842 16.0493 14.2815 16.1865C14.2793 16.2953 14.2701 16.4152 14.2608 16.4531C14.2516 16.4909 14.2427 16.5373 14.2409 16.5563C14.2288 16.6884 13.9366 16.7528 13.0694 16.8142C12.7762 16.835 12.5024 16.8605 12.461 16.8707C12.3966 16.8867 12.3804 16.869 12.3477 16.7476C12.3018 16.5772 12.2395 16.5906 12.2783 16.7625L12.3054 16.883H12.1153H11.9251L11.9419 14.7763C11.9574 12.8265 11.9539 12.6466 11.8953 12.3601C11.8605 12.1898 11.8319 12.0002 11.8316 11.9387C11.8312 11.8373 11.8215 11.8269 11.7271 11.8269C11.6389 11.8269 11.6199 11.8111 11.6023 11.723C11.5909 11.6659 11.568 11.6108 11.5515 11.6006C11.5344 11.5901 11.5343 11.5568 11.5513 11.5239C11.5677 11.4919 11.5912 11.339 11.6036 11.1841C11.6229 10.9424 11.6179 10.8979 11.569 10.8704C11.5277 10.8474 11.5182 10.8134 11.5346 10.748C11.5561 10.6622 11.5686 10.6575 11.7752 10.6575C11.895 10.6575 12.0874 10.6674 12.2026 10.6794C12.3964 10.6997 12.413 10.7081 12.4227 10.7912C12.4327 10.8778 12.4353 10.8764 12.4949 10.7521C12.5307 10.6774 12.5815 10.6231 12.6155 10.6231C12.6478 10.6231 12.8444 10.6601 13.0524 10.7053ZM9.50509 10.8217C9.53157 10.8733 9.63356 11.1786 9.73175 11.5002C9.98112 12.3168 10.2124 13.0548 10.2494 13.1522C10.2776 13.2264 10.2908 13.2309 10.3835 13.1986L10.4863 13.1628L10.402 12.9293C10.3284 12.725 10.3178 12.6375 10.3178 12.2327C10.3178 11.978 10.3273 11.76 10.339 11.7484C10.3507 11.7367 10.4397 11.7573 10.5368 11.7942C10.6339 11.8311 10.7368 11.8613 10.7654 11.8613C10.7941 11.8613 10.8753 11.8923 10.946 11.9302C11.0166 11.968 11.0831 11.9973 11.0936 11.9952C11.1042 11.9932 11.2047 12.0404 11.317 12.1003L11.5211 12.2091L11.5017 13.5744C11.491 14.3253 11.4817 14.9706 11.481 15.0085C11.4804 15.0463 11.4821 15.4526 11.4849 15.9114C11.4877 16.3701 11.4815 16.7476 11.4711 16.7503C11.4607 16.753 11.263 16.7441 11.0316 16.7305C10.6377 16.7075 10.5011 16.6729 10.5422 16.6064C10.5517 16.591 10.5305 16.5692 10.4951 16.5579C10.4234 16.5352 10.3866 16.3075 10.3866 15.8869C10.3866 15.6391 10.4353 15.7648 9.75683 14.2616C9.63971 14.0021 9.53594 13.7892 9.52624 13.7886C9.50523 13.7872 9.50567 13.7606 9.49821 15.447C9.49267 16.6907 9.48827 16.7799 9.4321 16.7809C9.39902 16.7815 9.34185 16.8047 9.30515 16.8325C9.26842 16.8603 9.18996 16.883 9.1308 16.883C9.07164 16.883 8.94693 16.9047 8.85365 16.9312C8.76033 16.9577 8.61264 16.9865 8.52538 16.9952L8.36678 17.0111L8.34429 15.2531C8.33194 14.2862 8.32427 12.9879 8.32733 12.3679C8.33036 11.748 8.32152 11.2295 8.30769 11.2157C8.29383 11.2019 8.28774 11.3261 8.29411 11.4916C8.30047 11.6571 8.29569 11.7926 8.28351 11.7925C8.25748 11.7925 8.22521 11.2457 8.2474 11.1805C8.25844 11.1482 8.3048 11.1424 8.41779 11.1594L8.57302 11.1826L8.55018 11.0609C8.52789 10.9422 8.53116 10.9376 8.67696 10.8819C8.85939 10.8122 9.1534 10.7462 9.32771 10.7357C9.43761 10.7291 9.46419 10.742 9.50509 10.8217ZM7.03624 11.1548C7.07298 11.205 7.13905 11.221 7.35027 11.2308C7.49738 11.2376 7.63482 11.2494 7.65567 11.2569C7.67782 11.2649 7.69587 11.3753 7.69917 11.5229C7.7023 11.6618 7.71166 12.1236 7.72005 12.5492C7.74908 14.0262 7.77567 14.636 7.85987 15.7574C7.90644 16.3775 7.94452 16.8921 7.94452 16.9011C7.94452 16.9408 7.81037 16.9085 7.65216 16.8307C7.55757 16.7841 7.44923 16.7447 7.41139 16.743C7.37356 16.7414 7.36197 16.7322 7.38559 16.7227C7.48214 16.6837 7.41844 16.6516 7.26521 16.6621C7.17534 16.6681 7.05152 16.6572 6.99005 16.6378C6.86984 16.5999 6.86554 16.5842 6.87727 16.2295C6.88009 16.1444 6.86458 15.9354 6.84281 15.7652C6.821 15.5949 6.79751 15.2234 6.79059 14.9397C6.78365 14.6559 6.75417 14.2845 6.72507 14.1142C6.69597 13.944 6.6721 13.7931 6.67203 13.7789C6.67196 13.7646 6.58677 13.7531 6.48272 13.7531C6.2963 13.7531 6.29355 13.7516 6.29355 13.6519C6.29355 13.5963 6.281 13.543 6.26562 13.5335C6.25028 13.524 6.2186 13.6895 6.19525 13.9012C6.17186 14.1129 6.11046 14.5545 6.05877 14.8825C5.98007 15.3818 5.95379 15.485 5.89701 15.5171C5.81336 15.5644 5.24581 15.5739 5.11252 15.5303C5.02702 15.5023 5.01704 15.4851 5.03204 15.391C5.06097 15.2099 5.23009 14.059 5.26266 13.8218C5.27958 13.6989 5.35673 13.1959 5.43412 12.704C5.51154 12.2122 5.58191 11.7633 5.59051 11.7065L5.60616 11.6034L5.56293 11.7127C5.49816 11.8763 5.46845 11.8863 5.49177 11.7366C5.50315 11.6633 5.55873 11.4989 5.61528 11.3712C5.70694 11.1641 5.72847 11.139 5.8146 11.139C5.8677 11.139 5.92139 11.1225 5.93395 11.1022C5.94912 11.0776 6.12945 11.0696 6.4732 11.0782C6.92718 11.0896 6.99531 11.0988 7.03624 11.1548ZM17.0143 11.2726C17.023 11.4692 17.0449 11.5207 17.1095 11.4959C17.1544 11.4787 17.1624 11.5172 17.1624 11.7493C17.1624 11.8999 17.1701 12.2868 17.1795 12.6092C17.1982 13.2523 17.1925 13.271 17.0046 13.1846C16.9495 13.1593 16.7984 13.0901 16.6688 13.0308C16.5392 12.9715 16.4399 12.9163 16.448 12.9082C16.47 12.8862 16.7856 12.9988 16.9044 13.071C17.0179 13.1399 17.0592 13.149 17.0592 13.105C17.0592 13.0891 16.9067 13.0048 16.7203 12.9178L16.3814 12.7595L16.3594 12.577C16.3474 12.4766 16.3374 12.3443 16.3372 12.2831L16.3369 12.1718L16.0704 12.1933C15.9238 12.2052 15.7978 12.22 15.7905 12.2263C15.7832 12.2325 15.7785 12.3813 15.7802 12.5568C15.7829 12.8468 15.7904 12.8817 15.8623 12.9389C16.1126 13.1379 16.6797 13.6195 16.8133 13.7465C16.9333 13.8606 16.9874 13.8902 17.0481 13.875L17.1269 13.8552L17.1265 15.3269L17.1261 16.7987L16.9895 16.7856C16.8816 16.7754 16.8528 16.7842 16.8528 16.8278C16.8528 16.8769 16.7622 16.8832 16.036 16.8848C15.5867 16.8857 15.1456 16.8902 15.0557 16.8947C14.9614 16.8995 14.8913 16.8879 14.8899 16.8672C14.8885 16.8475 14.8821 16.6147 14.8756 16.3499C14.8692 16.085 14.854 15.5406 14.8419 15.14L14.8198 14.4116L15.2577 14.6096L15.6955 14.8076L15.6986 15.3122L15.7016 15.8168L15.5464 15.8232C15.4609 15.8268 15.5768 15.8385 15.8038 15.8494C16.0308 15.8603 16.237 15.863 16.2621 15.8555C16.2925 15.8464 16.3003 15.8126 16.2856 15.7539C16.2734 15.7055 16.2641 15.3921 16.2648 15.0574L16.2661 14.449L16.0006 14.2482C15.6164 13.9578 15.2209 13.6382 15.2076 13.6076C15.2013 13.593 15.1821 13.5811 15.165 13.5811C15.1479 13.5811 15.1066 13.5582 15.0733 13.5301C15.04 13.5021 14.9826 13.4576 14.9458 13.4311C14.8821 13.3853 14.8817 13.3788 14.9373 13.2939C14.979 13.2304 14.9824 13.2099 14.9495 13.2225C14.9122 13.2369 14.8992 13.1178 14.8824 12.611C14.871 12.2649 14.867 11.8115 14.8735 11.6034L14.8855 11.225L15.2931 11.1996C15.5172 11.1856 15.9173 11.1606 16.1821 11.1441C16.447 11.1276 16.7411 11.1158 16.8357 11.118L17.0076 11.1218L17.0143 11.2726ZM17.1432 11.4174C17.1054 11.4786 17.0733 11.447 17.079 11.354C17.0871 11.2206 17.0937 11.2144 17.1302 11.3056C17.148 11.3499 17.1538 11.4002 17.1432 11.4174ZM12.9439 12.0097C12.9539 12.2213 12.9608 12.4177 12.9594 12.446C12.9462 12.7124 12.9443 15.514 12.9572 15.7036L12.974 15.9516L13.2539 15.9311C13.4078 15.9198 13.5504 15.8975 13.5708 15.8815C13.5912 15.8656 13.6686 15.8376 13.7428 15.8193L13.8777 15.786L13.7229 15.7921L13.5681 15.7982L13.5794 15.5753C13.5857 15.4527 13.6029 15.2964 13.6177 15.228C13.6335 15.1556 13.6305 15.0782 13.6108 15.0429C13.5921 15.0096 13.5694 14.8266 13.5603 14.6363C13.5513 14.446 13.5296 14.2584 13.5122 14.2194C13.4923 14.1749 13.4878 14.362 13.5001 14.7235C13.52 15.3101 13.4945 15.8168 13.4452 15.8168C13.4301 15.8168 13.4263 15.3872 13.4367 14.8623C13.4603 13.6834 13.4599 13.6131 13.4305 13.3575C13.4174 13.244 13.4225 13.066 13.4417 12.962C13.4632 12.8463 13.4645 12.7601 13.4451 12.7401C13.4276 12.7221 13.4133 12.4779 13.4133 12.1973C13.4133 11.8192 13.4022 11.6837 13.3703 11.6739C13.3467 11.6666 13.237 11.6526 13.1266 11.6428L12.9258 11.6249L12.9439 12.0097ZM6.6289 11.7437C6.61473 11.7579 6.60311 11.798 6.60311 11.8327C6.60311 11.8673 6.57989 11.8957 6.55151 11.8957C6.52314 11.8957 6.49927 11.9073 6.49844 11.9215C6.49765 11.9357 6.46081 12.164 6.41662 12.4288C6.37242 12.6937 6.34301 12.922 6.3513 12.9362C6.35962 12.9504 6.43457 12.962 6.51791 12.962H6.66942L6.67926 12.6266L6.68909 12.2913L6.71726 12.6008C6.73274 12.7711 6.75575 12.9336 6.76837 12.962C6.81811 13.0739 6.81016 12.556 6.75885 12.3439C6.72899 12.2203 6.69336 12.0289 6.67964 11.9185C6.66591 11.8081 6.64307 11.7294 6.6289 11.7437ZM6.79778 13.9508C6.82688 14.1731 6.84387 14.1784 6.84387 13.9652C6.84387 13.8674 6.8287 13.7875 6.81013 13.7875C6.7898 13.7875 6.78492 13.8524 6.79778 13.9508ZM14.8525 16.5219C14.8514 16.6579 14.8453 16.6759 14.8235 16.6079C14.8084 16.5606 14.7962 16.4213 14.7965 16.2983C14.797 16.0918 14.7992 16.0852 14.8255 16.2123C14.8411 16.288 14.8533 16.4273 14.8525 16.5219Z" fill="black"/>
</svg>
