<svg width="20" height="20" viewBox="0 0 20 20" fill="none" xmlns="http://www.w3.org/2000/svg">
<ellipse cx="10.0001" cy="9.93196" rx="7.91855" ry="7.93651" fill="url(#paint0_radial_4039_53561)"/>
<path fill-rule="evenodd" clip-rule="evenodd" d="M9.248 0.497845C9.3217 0.497845 9.38068 0.488005 9.38068 0.475683C9.38068 0.461965 9.49861 0.453522 9.69025 0.453522C9.8819 0.453522 9.99983 0.461965 9.99983 0.475683C9.99983 0.487872 10.0396 0.497845 10.0883 0.497845C10.1369 0.497845 10.1767 0.507818 10.1767 0.520006C10.1767 0.532195 10.2066 0.542168 10.2431 0.542168C10.2796 0.542168 10.3094 0.552141 10.3094 0.564329C10.3094 0.576518 10.3293 0.586491 10.3536 0.586491C10.378 0.586491 10.3979 0.596464 10.3979 0.608653C10.3979 0.620841 10.4178 0.630814 10.4421 0.630814C10.4664 0.630814 10.4863 0.640787 10.4863 0.652976C10.4863 0.665165 10.5062 0.675137 10.5305 0.675137C10.5549 0.675137 10.5748 0.68511 10.5748 0.697299C10.5748 0.709488 10.5925 0.71946 10.6141 0.71946C10.6357 0.71946 10.6678 0.739406 10.6853 0.763783C10.7029 0.788161 10.7327 0.808107 10.7517 0.808107C10.7706 0.808107 10.8005 0.828052 10.818 0.85243C10.8355 0.876807 10.8676 0.896753 10.8892 0.896753C10.9108 0.896753 10.9286 0.906725 10.9286 0.918914C10.9286 0.931103 10.9445 0.941076 10.9639 0.941076C10.9834 0.941076 11.0272 0.970994 11.0612 1.00756C11.0953 1.04413 11.1391 1.07405 11.1586 1.07405C11.178 1.07405 11.1939 1.08402 11.1939 1.09621C11.1939 1.1084 11.2116 1.11837 11.2332 1.11837C11.2549 1.11837 11.2869 1.13831 11.3045 1.16269C11.322 1.18707 11.354 1.20701 11.3757 1.20701C11.3973 1.20701 11.415 1.21699 11.415 1.22918C11.415 1.24136 11.4349 1.25134 11.4593 1.25134C11.4836 1.25134 11.5035 1.26131 11.5035 1.2735C11.5035 1.28569 11.5234 1.29566 11.5477 1.29566C11.572 1.29566 11.5919 1.30563 11.5919 1.31782C11.5919 1.33001 11.6218 1.33998 11.6583 1.33998C11.6948 1.33998 11.7246 1.34996 11.7246 1.36215C11.7246 1.37433 11.7644 1.38431 11.8131 1.38431C11.8617 1.38431 11.9015 1.39428 11.9015 1.40647C11.9015 1.41866 11.9413 1.42863 11.99 1.42863C12.0386 1.42863 12.0784 1.4386 12.0784 1.45079C12.0784 1.46345 12.1447 1.47295 12.2332 1.47295C12.3217 1.47295 12.388 1.48246 12.388 1.49511C12.388 1.50874 12.4986 1.51728 12.6755 1.51728C12.8524 1.51728 12.9629 1.50874 12.9629 1.49511C12.9629 1.48219 13.0366 1.47295 13.1398 1.47295C13.243 1.47295 13.3167 1.46371 13.3167 1.45079C13.3167 1.43665 13.501 1.42863 13.8253 1.42863C14.1496 1.42863 14.3339 1.43665 14.3339 1.45079C14.3339 1.46298 14.3836 1.47295 14.4445 1.47295C14.5053 1.47295 14.555 1.48293 14.555 1.49511C14.555 1.5073 14.5849 1.51728 14.6214 1.51728C14.6578 1.51728 14.6877 1.52725 14.6877 1.53944C14.6877 1.55163 14.7175 1.5616 14.754 1.5616C14.7905 1.5616 14.8204 1.57157 14.8204 1.58376C14.8204 1.59595 14.8403 1.60592 14.8646 1.60592C14.8889 1.60592 14.9088 1.61589 14.9088 1.62808C14.9088 1.64027 14.9265 1.65025 14.9482 1.65025C14.9698 1.65025 15.0018 1.67019 15.0194 1.69457C15.0369 1.71895 15.0642 1.73889 15.08 1.73889C15.1173 1.73889 15.3953 2.01746 15.3953 2.05494C15.3953 2.07074 15.4152 2.09806 15.4395 2.11564C15.4638 2.13321 15.4837 2.16313 15.4837 2.18212C15.4837 2.20112 15.5036 2.23103 15.528 2.24861C15.5523 2.26618 15.5722 2.2961 15.5722 2.31509C15.5722 2.33408 15.5921 2.364 15.6164 2.38158C15.6407 2.39915 15.6606 2.42636 15.6606 2.44208C15.6606 2.47685 16.2473 3.06858 16.2818 3.06858C16.2953 3.06858 16.3342 3.0985 16.3683 3.13507C16.4023 3.17164 16.4421 3.20155 16.4567 3.20155C16.4713 3.20155 16.5111 3.23147 16.5452 3.26804C16.5792 3.3046 16.6208 3.33452 16.6376 3.33452C16.6543 3.33452 16.6824 3.35447 16.6999 3.37885C16.7175 3.40322 16.7455 3.42317 16.7623 3.42317C16.779 3.42317 16.8207 3.45309 16.8547 3.48965C16.8888 3.52622 16.9304 3.55614 16.9472 3.55614C16.9639 3.55614 16.992 3.57608 17.0095 3.60046C17.0271 3.62484 17.0543 3.64478 17.07 3.64478C17.1046 3.64478 17.4739 4.01083 17.4739 4.04511C17.4739 4.05843 17.5137 4.10765 17.5623 4.1545C17.611 4.20135 17.6508 4.25321 17.6508 4.26976C17.6508 4.28632 17.6707 4.31422 17.695 4.33179C17.7194 4.34941 17.7392 4.38917 17.7392 4.42044C17.7392 4.45171 17.7591 4.49147 17.7835 4.50909C17.8094 4.52786 17.8277 4.56646 17.8277 4.60263C17.8277 4.63649 17.8376 4.66422 17.8498 4.66422C17.862 4.66422 17.8719 4.69413 17.8719 4.7307C17.8719 4.76727 17.8819 4.79719 17.894 4.79719C17.9062 4.79719 17.9161 4.84705 17.9161 4.90799C17.9161 4.96894 17.9261 5.0188 17.9382 5.0188C17.9515 5.0188 17.9604 5.10745 17.9604 5.24042C17.9604 5.37339 17.9692 5.46203 17.9825 5.46203C17.9946 5.46203 18.0046 5.50192 18.0046 5.55068C18.0046 5.59943 18.0145 5.63932 18.0267 5.63932C18.0389 5.63932 18.0488 5.65927 18.0488 5.68365C18.0488 5.70803 18.0588 5.72797 18.0709 5.72797C18.0831 5.72797 18.093 5.75789 18.093 5.79446C18.093 5.83102 18.103 5.86094 18.1151 5.86094C18.1273 5.86094 18.1373 5.88088 18.1373 5.90526C18.1373 5.92964 18.1472 5.94959 18.1594 5.94959C18.1715 5.94959 18.1815 5.96953 18.1815 5.99391C18.1815 6.01829 18.1914 6.03823 18.2036 6.03823C18.2158 6.03823 18.2257 6.05818 18.2257 6.08256C18.2257 6.10693 18.2357 6.12688 18.2478 6.12688C18.26 6.12688 18.2699 6.14463 18.2699 6.1663C18.2699 6.188 18.2898 6.22011 18.3142 6.23769C18.3385 6.25526 18.3584 6.28518 18.3584 6.30417C18.3584 6.32316 18.3783 6.35308 18.4026 6.37066C18.4269 6.38823 18.4468 6.41815 18.4468 6.43714C18.4468 6.45613 18.4667 6.48605 18.4911 6.50362C18.5154 6.5212 18.5353 6.5491 18.5353 6.56566C18.5353 6.58221 18.5751 6.63407 18.6237 6.68092C18.6724 6.72777 18.7122 6.77723 18.7122 6.79084C18.7122 6.80445 18.8017 6.90457 18.9112 7.01334C19.0207 7.12211 19.1102 7.22223 19.1102 7.23584C19.1102 7.24945 19.15 7.29891 19.1987 7.34576C19.2473 7.39261 19.2871 7.44447 19.2871 7.46103C19.2871 7.47758 19.307 7.50548 19.3313 7.52306C19.3557 7.54063 19.3756 7.57274 19.3756 7.59444C19.3756 7.61611 19.3855 7.63386 19.3977 7.63386C19.4098 7.63386 19.4198 7.65381 19.4198 7.67819C19.4198 7.70256 19.4297 7.72251 19.4419 7.72251C19.4541 7.72251 19.464 7.74246 19.464 7.76683C19.464 7.79121 19.474 7.81116 19.4861 7.81116C19.4983 7.81116 19.5082 7.8311 19.5082 7.85548C19.5082 7.87986 19.5182 7.8998 19.5303 7.8998C19.5425 7.8998 19.5525 7.91975 19.5525 7.94413C19.5525 7.9685 19.5624 7.98845 19.5746 7.98845C19.5867 7.98845 19.5967 8.00839 19.5967 8.03277C19.5967 8.05715 19.6066 8.07709 19.6188 8.07709C19.631 8.07709 19.6409 8.10701 19.6409 8.14358C19.6409 8.18015 19.6509 8.21006 19.663 8.21006C19.6752 8.21006 19.6851 8.24995 19.6851 8.29871C19.6851 8.34747 19.6951 8.38736 19.7072 8.38736C19.7194 8.38736 19.7294 8.43722 19.7294 8.49816C19.7294 8.55911 19.7393 8.60897 19.7515 8.60897C19.7653 8.60897 19.7736 8.74932 19.7736 8.98572C19.7736 9.22212 19.7653 9.36246 19.7515 9.36246C19.7393 9.36246 19.7294 9.41233 19.7294 9.47327C19.7294 9.53422 19.7194 9.58408 19.7072 9.58408C19.6951 9.58408 19.6851 9.62397 19.6851 9.67273C19.6851 9.72148 19.6752 9.76137 19.663 9.76137C19.6509 9.76137 19.6409 9.80126 19.6409 9.85002C19.6409 9.89877 19.631 9.93866 19.6188 9.93866C19.6066 9.93866 19.5967 9.95861 19.5967 9.98299C19.5967 10.0074 19.5867 10.0273 19.5746 10.0273C19.5624 10.0273 19.5525 10.0572 19.5525 10.0938C19.5525 10.1304 19.5425 10.1603 19.5303 10.1603C19.5182 10.1603 19.5082 10.1902 19.5082 10.2268C19.5082 10.2633 19.4983 10.2932 19.4861 10.2932C19.474 10.2932 19.464 10.3132 19.464 10.3376C19.464 10.362 19.4541 10.3819 19.4419 10.3819C19.4297 10.3819 19.4198 10.4118 19.4198 10.4484C19.4198 10.4849 19.4098 10.5149 19.3977 10.5149C19.3855 10.5149 19.3756 10.5448 19.3756 10.5813C19.3756 10.6179 19.3656 10.6478 19.3534 10.6478C19.3413 10.6478 19.3313 10.6778 19.3313 10.7143C19.3313 10.7509 19.3214 10.7808 19.3092 10.7808C19.2971 10.7808 19.2871 10.8107 19.2871 10.8473C19.2871 10.8839 19.2772 10.9138 19.265 10.9138C19.2528 10.9138 19.2429 10.9437 19.2429 10.9803C19.2429 11.0168 19.2329 11.0467 19.2208 11.0467C19.2086 11.0467 19.1987 11.0767 19.1987 11.1132C19.1987 11.1498 19.1887 11.1797 19.1765 11.1797C19.1644 11.1797 19.1544 11.2096 19.1544 11.2462C19.1544 11.2828 19.1445 11.3127 19.1323 11.3127C19.1183 11.3127 19.1102 11.4752 19.1102 11.7559C19.1102 12.0366 19.1183 12.1991 19.1323 12.1991C19.1445 12.1991 19.1544 12.2291 19.1544 12.2656C19.1544 12.3022 19.1644 12.3321 19.1765 12.3321C19.1887 12.3321 19.1987 12.362 19.1987 12.3986C19.1987 12.4352 19.2086 12.4651 19.2208 12.4651C19.2329 12.4651 19.2429 12.505 19.2429 12.5537C19.2429 12.6025 19.2528 12.6424 19.265 12.6424C19.2772 12.6424 19.2871 12.6823 19.2871 12.731C19.2871 12.7798 19.2971 12.8197 19.3092 12.8197C19.3215 12.8197 19.3313 12.8788 19.3313 12.9526C19.3313 13.0265 19.3412 13.0856 19.3534 13.0856C19.3676 13.0856 19.3756 13.2998 19.3756 13.684C19.3756 14.0681 19.3676 14.2823 19.3534 14.2823C19.3413 14.2823 19.3313 14.3322 19.3313 14.3931C19.3313 14.4541 19.3214 14.5039 19.3092 14.5039C19.2971 14.5039 19.2871 14.5438 19.2871 14.5926C19.2871 14.6413 19.2772 14.6812 19.265 14.6812C19.2528 14.6812 19.2429 14.7112 19.2429 14.7477C19.2429 14.7843 19.2329 14.8142 19.2208 14.8142C19.2086 14.8142 19.1987 14.8342 19.1987 14.8585C19.1987 14.8829 19.1887 14.9029 19.1765 14.9029C19.1644 14.9029 19.1544 14.9328 19.1544 14.9693C19.1544 15.0059 19.1445 15.0358 19.1323 15.0358C19.1202 15.0358 19.1102 15.0558 19.1102 15.0801C19.1102 15.1045 19.1003 15.1245 19.0881 15.1245C19.0759 15.1245 19.066 15.1444 19.066 15.1688C19.066 15.1932 19.056 15.2131 19.0439 15.2131C19.0317 15.2131 19.0218 15.2331 19.0218 15.2574C19.0218 15.2818 19.0118 15.3018 18.9996 15.3018C18.9875 15.3018 18.9775 15.3195 18.9775 15.3412C18.9775 15.3629 18.9576 15.395 18.9333 15.4126C18.909 15.4301 18.8891 15.4575 18.8891 15.4734C18.8891 15.5138 18.6986 15.7007 18.6575 15.7007C18.6389 15.7007 18.6237 15.7106 18.6237 15.7228C18.6237 15.735 18.5939 15.745 18.5574 15.745C18.5209 15.745 18.4911 15.755 18.4911 15.7672C18.4911 15.7793 18.4712 15.7893 18.4468 15.7893C18.4225 15.7893 18.4026 15.7993 18.4026 15.8115C18.4026 15.8237 18.3728 15.8336 18.3363 15.8336C18.2998 15.8336 18.2699 15.8436 18.2699 15.8558C18.2699 15.868 18.2401 15.878 18.2036 15.878C18.1671 15.878 18.1373 15.8879 18.1373 15.9001C18.1373 15.9123 18.1074 15.9223 18.0709 15.9223C18.0344 15.9223 18.0046 15.9323 18.0046 15.9444C18.0046 15.9566 17.9747 15.9666 17.9382 15.9666C17.9018 15.9666 17.8719 15.9766 17.8719 15.9888C17.8719 16.001 17.852 16.0109 17.8277 16.0109C17.8034 16.0109 17.7835 16.0209 17.7835 16.0331C17.7835 16.0453 17.7657 16.0553 17.7441 16.0553C17.7225 16.0553 17.6904 16.0752 17.6729 16.0996C17.6554 16.124 17.6273 16.1439 17.6105 16.1439C17.5938 16.1439 17.5522 16.1738 17.5181 16.2104C17.484 16.247 17.4449 16.2769 17.4312 16.2769C17.3966 16.2769 17.2085 16.4687 17.2085 16.5041C17.2085 16.52 17.1886 16.5474 17.1643 16.565C17.14 16.5825 17.1201 16.6125 17.1201 16.6315C17.1201 16.6504 17.1002 16.6804 17.0759 16.6979C17.0499 16.7167 17.0316 16.7553 17.0316 16.7915C17.0316 16.8253 17.0217 16.8531 17.0095 16.8531C16.9974 16.8531 16.9874 16.873 16.9874 16.8974C16.9874 16.9218 16.9775 16.9417 16.9653 16.9417C16.9531 16.9417 16.9432 16.9617 16.9432 16.986C16.9432 17.0104 16.9332 17.0304 16.9211 17.0304C16.9089 17.0304 16.899 17.0603 16.899 17.0968C16.899 17.1334 16.889 17.1633 16.8768 17.1633C16.8647 17.1633 16.8547 17.1932 16.8547 17.2298C16.8547 17.2664 16.8448 17.2963 16.8326 17.2963C16.8205 17.2963 16.8105 17.3262 16.8105 17.3628C16.8105 17.3994 16.8006 17.4293 16.7884 17.4293C16.7762 17.4293 16.7663 17.4492 16.7663 17.4736C16.7663 17.498 16.7563 17.5179 16.7442 17.5179C16.732 17.5179 16.7221 17.5478 16.7221 17.5844C16.7221 17.621 16.7121 17.6509 16.6999 17.6509C16.6878 17.6509 16.6778 17.6708 16.6778 17.6952C16.6778 17.7196 16.6679 17.7395 16.6557 17.7395C16.6436 17.7395 16.6336 17.7595 16.6336 17.7839C16.6336 17.8082 16.6237 17.8282 16.6115 17.8282C16.5993 17.8282 16.5894 17.8481 16.5894 17.8725C16.5894 17.8969 16.5794 17.9168 16.5673 17.9168C16.5551 17.9168 16.5452 17.9368 16.5452 17.9611C16.5452 17.9855 16.5352 18.0055 16.523 18.0055C16.5109 18.0055 16.5009 18.0254 16.5009 18.0498C16.5009 18.0742 16.491 18.0941 16.4788 18.0941C16.4667 18.0941 16.4567 18.1119 16.4567 18.1335C16.4567 18.1552 16.4368 18.1873 16.4125 18.2049C16.3882 18.2225 16.3683 18.2504 16.3683 18.267C16.3683 18.2835 16.3284 18.3354 16.2798 18.3822C16.2312 18.4291 16.1914 18.4831 16.1914 18.5024C16.1914 18.5226 16.1727 18.5373 16.1471 18.5373C16.1221 18.5373 16.1029 18.5521 16.1029 18.5713C16.1029 18.6101 15.962 18.759 15.9253 18.759C15.9119 18.759 15.8526 18.8088 15.7933 18.8698C15.7341 18.9307 15.674 18.9806 15.6599 18.9806C15.6457 18.9806 15.6063 19.0105 15.5722 19.0471C15.5381 19.0836 15.4965 19.1135 15.4798 19.1135C15.463 19.1135 15.4349 19.1335 15.4174 19.1579C15.3999 19.1822 15.37 19.2022 15.3511 19.2022C15.3321 19.2022 15.3023 19.2221 15.2847 19.2465C15.2672 19.2709 15.2352 19.2908 15.2135 19.2908C15.1919 19.2908 15.1742 19.3008 15.1742 19.313C15.1742 19.3252 15.1543 19.3352 15.1299 19.3352C15.1056 19.3352 15.0857 19.3451 15.0857 19.3573C15.0857 19.3695 15.0658 19.3795 15.0415 19.3795C15.0172 19.3795 14.9973 19.3895 14.9973 19.4016C14.9973 19.4138 14.9774 19.4238 14.953 19.4238C14.9287 19.4238 14.9088 19.4338 14.9088 19.446C14.9088 19.4582 14.8889 19.4681 14.8646 19.4681C14.8403 19.4681 14.8204 19.4781 14.8204 19.4903C14.8204 19.5025 14.8005 19.5125 14.7761 19.5125C14.7518 19.5125 14.7319 19.5224 14.7319 19.5346C14.7319 19.5468 14.7021 19.5568 14.6656 19.5568C14.6291 19.5568 14.5992 19.5667 14.5992 19.5789C14.5992 19.5911 14.5694 19.6011 14.5329 19.6011C14.4964 19.6011 14.4666 19.6111 14.4666 19.6233C14.4666 19.6355 14.4367 19.6454 14.4002 19.6454C14.3637 19.6454 14.3339 19.6554 14.3339 19.6676C14.3339 19.6798 14.304 19.6897 14.2676 19.6897C14.2311 19.6897 14.2012 19.6997 14.2012 19.7119C14.2012 19.7241 14.1714 19.7341 14.1349 19.7341C14.0984 19.7341 14.0685 19.744 14.0685 19.7562C14.0685 19.7684 14.0287 19.7784 13.9801 19.7784C13.9314 19.7784 13.8916 19.7884 13.8916 19.8006C13.8916 19.8127 13.8419 19.8227 13.7811 19.8227C13.7203 19.8227 13.6705 19.8327 13.6705 19.8449C13.6705 19.8571 13.6208 19.867 13.56 19.867C13.4991 19.867 13.4494 19.877 13.4494 19.8892C13.4494 19.9035 13.2135 19.9114 12.786 19.9114C12.3585 19.9114 12.1226 19.9035 12.1226 19.8892C12.1226 19.877 12.0828 19.867 12.0342 19.867C11.9855 19.867 11.9457 19.8571 11.9457 19.8449C11.9457 19.8327 11.9159 19.8227 11.8794 19.8227C11.8429 19.8227 11.8131 19.8127 11.8131 19.8006C11.8131 19.7884 11.7733 19.7784 11.7246 19.7784C11.676 19.7784 11.6362 19.7684 11.6362 19.7562C11.6362 19.744 11.6063 19.7341 11.5698 19.7341C11.5333 19.7341 11.5035 19.7241 11.5035 19.7119C11.5035 19.6997 11.4637 19.6897 11.415 19.6897C11.3664 19.6897 11.3266 19.6798 11.3266 19.6676C11.3266 19.6554 11.2768 19.6454 11.216 19.6454C11.1552 19.6454 11.1055 19.6355 11.1055 19.6233C11.1055 19.6095 10.9801 19.6011 10.7738 19.6011C10.5674 19.6011 10.4421 19.6095 10.4421 19.6233C10.4421 19.6355 10.3923 19.6454 10.3315 19.6454C10.2707 19.6454 10.221 19.6554 10.221 19.6676C10.221 19.6798 10.1911 19.6897 10.1546 19.6897C10.1181 19.6897 10.0883 19.6997 10.0883 19.7119C10.0883 19.7241 10.0584 19.7341 10.0219 19.7341C9.98546 19.7341 9.95561 19.744 9.95561 19.7562C9.95561 19.7684 9.92575 19.7784 9.88927 19.7784C9.85278 19.7784 9.82293 19.7884 9.82293 19.8006C9.82293 19.8127 9.80303 19.8227 9.7787 19.8227C9.75438 19.8227 9.73448 19.8327 9.73448 19.8449C9.73448 19.8571 9.70463 19.867 9.66814 19.867C9.63166 19.867 9.6018 19.877 9.6018 19.8892C9.6018 19.9014 9.562 19.9114 9.51335 19.9114C9.46471 19.9114 9.4249 19.9213 9.4249 19.9335C9.4249 19.9457 9.405 19.9557 9.38068 19.9557C9.35635 19.9557 9.33645 19.9657 9.33645 19.9778C9.33645 19.9908 9.26275 20 9.15955 20C9.05635 20 8.98265 19.9908 8.98265 19.9778C8.98265 19.9657 8.96275 19.9557 8.93843 19.9557C8.9141 19.9557 8.8942 19.9457 8.8942 19.9335C8.8942 19.9213 8.84445 19.9114 8.78364 19.9114C8.72283 19.9114 8.67308 19.9014 8.67308 19.8892C8.67308 19.877 8.64322 19.867 8.60674 19.867C8.57025 19.867 8.5404 19.8571 8.5404 19.8449C8.5404 19.8327 8.5205 19.8227 8.49618 19.8227C8.47185 19.8227 8.45195 19.8127 8.45195 19.8006C8.45195 19.7884 8.43205 19.7784 8.40773 19.7784C8.3834 19.7784 8.3635 19.7684 8.3635 19.7562C8.3635 19.744 8.3436 19.7341 8.31928 19.7341C8.29495 19.7341 8.27505 19.7241 8.27505 19.7119C8.27505 19.6997 8.25734 19.6897 8.23571 19.6897C8.21406 19.6897 8.18202 19.6698 8.16449 19.6454C8.14695 19.621 8.11889 19.6011 8.10213 19.6011C8.08539 19.6011 8.04377 19.5712 8.0097 19.5346C7.97562 19.498 7.93401 19.4681 7.91727 19.4681C7.90051 19.4681 7.87245 19.4482 7.85491 19.4238C7.83738 19.3994 7.80752 19.3795 7.78857 19.3795C7.76962 19.3795 7.73977 19.3595 7.72224 19.3352C7.7047 19.3108 7.67485 19.2908 7.6559 19.2908C7.63695 19.2908 7.6071 19.2709 7.58956 19.2465C7.57203 19.2221 7.53998 19.2022 7.51834 19.2022C7.49671 19.2022 7.479 19.1922 7.479 19.18C7.479 19.1678 7.44915 19.1579 7.41266 19.1579C7.37617 19.1579 7.34632 19.1479 7.34632 19.1357C7.34632 19.1235 7.30652 19.1135 7.25787 19.1135C7.20922 19.1135 7.16942 19.1036 7.16942 19.0914C7.16942 19.078 7.07361 19.0692 6.92618 19.0692C6.77876 19.0692 6.68294 19.0605 6.68294 19.0471C6.68294 19.0341 6.60924 19.0249 6.50604 19.0249C6.40285 19.0249 6.32914 19.0341 6.32914 19.0471C6.32914 19.0608 6.21122 19.0692 6.01957 19.0692C5.82792 19.0692 5.70999 19.0608 5.70999 19.0471C5.70999 19.0347 5.65102 19.0249 5.57732 19.0249C5.50362 19.0249 5.44464 19.0151 5.44464 19.0027C5.44464 18.9905 5.40484 18.9806 5.35619 18.9806C5.30754 18.9806 5.26774 18.9706 5.26774 18.9584C5.26774 18.9462 5.22794 18.9363 5.17929 18.9363C5.13064 18.9363 5.09084 18.9263 5.09084 18.9141C5.09084 18.9019 5.07094 18.8919 5.04661 18.8919C5.02229 18.8919 5.00239 18.882 5.00239 18.8698C5.00239 18.8576 4.97254 18.8476 4.93605 18.8476C4.89957 18.8476 4.86971 18.8376 4.86971 18.8254C4.86971 18.8133 4.84981 18.8033 4.82549 18.8033C4.80116 18.8033 4.78126 18.7933 4.78126 18.7811C4.78126 18.7689 4.75141 18.759 4.71493 18.759C4.67844 18.759 4.64859 18.749 4.64859 18.7368C4.64859 18.7246 4.62869 18.7146 4.60436 18.7146C4.58004 18.7146 4.56014 18.7047 4.56014 18.6925C4.56014 18.6803 4.54024 18.6703 4.51591 18.6703C4.49159 18.6703 4.47169 18.6603 4.47169 18.6482C4.47169 18.636 4.45398 18.626 4.43235 18.626C4.4107 18.626 4.37866 18.606 4.36112 18.5817C4.34359 18.5573 4.31155 18.5373 4.2899 18.5373C4.26827 18.5373 4.25056 18.5274 4.25056 18.5152C4.25056 18.503 4.23285 18.493 4.21122 18.493C4.18958 18.493 4.15753 18.4731 4.14 18.4487C4.12246 18.4243 4.09261 18.4044 4.07366 18.4044C4.05471 18.4044 4.02486 18.3844 4.00732 18.3601C3.98979 18.3357 3.96173 18.3157 3.94497 18.3157C3.92823 18.3157 3.88661 18.2858 3.85254 18.2492C3.81846 18.2127 3.77954 18.1828 3.76605 18.1828C3.73158 18.1828 3.18916 17.6354 3.18916 17.6006C3.18916 17.5849 3.16926 17.5577 3.14493 17.5401C3.12061 17.5225 3.10071 17.4944 3.10071 17.4776C3.10071 17.4608 3.07086 17.4191 3.03437 17.3849C2.99788 17.3508 2.96803 17.3091 2.96803 17.2923C2.96803 17.2755 2.94813 17.2474 2.92381 17.2298C2.89948 17.2122 2.87958 17.1823 2.87958 17.1633C2.87958 17.1443 2.85968 17.1144 2.83536 17.0968C2.81097 17.0792 2.79113 17.0395 2.79113 17.0082C2.79113 16.9769 2.7713 16.9372 2.74691 16.9196C2.72258 16.902 2.70268 16.8699 2.70268 16.8482C2.70268 16.8265 2.69273 16.8087 2.68057 16.8087C2.66841 16.8087 2.65846 16.7689 2.65846 16.7201C2.65846 16.6713 2.64851 16.6315 2.63634 16.6315C2.62283 16.6315 2.61423 16.528 2.61423 16.3655C2.61423 16.203 2.60563 16.0996 2.59212 16.0996C2.57996 16.0996 2.57001 16.0697 2.57001 16.0331C2.57001 15.9965 2.56006 15.9666 2.54789 15.9666C2.53573 15.9666 2.52578 15.9467 2.52578 15.9223C2.52578 15.8979 2.51583 15.878 2.50367 15.878C2.49151 15.878 2.48156 15.858 2.48156 15.8336C2.48156 15.8093 2.47161 15.7893 2.45944 15.7893C2.44728 15.7893 2.43733 15.7716 2.43733 15.7499C2.43733 15.7282 2.41743 15.6961 2.39311 15.6785C2.36878 15.6609 2.34888 15.631 2.34888 15.612C2.34888 15.593 2.32898 15.5631 2.30466 15.5455C2.28033 15.528 2.26043 15.5007 2.26043 15.485C2.26043 15.4505 1.71816 14.9029 1.68398 14.9029C1.67075 14.9029 1.62169 14.863 1.57494 14.8142C1.5282 14.7654 1.47913 14.7256 1.4659 14.7256C1.43448 14.7256 0.889451 14.1793 0.889451 14.1478C0.889451 14.1346 0.849649 14.0854 0.801001 14.0386C0.752353 13.9917 0.712551 13.9416 0.712551 13.9273C0.712551 13.9129 0.682699 13.8732 0.646213 13.8391C0.609727 13.8049 0.579875 13.7632 0.579875 13.7465C0.579875 13.7297 0.559974 13.7015 0.53565 13.684C0.511326 13.6664 0.491425 13.6343 0.491425 13.6126C0.491425 13.5909 0.481474 13.5732 0.469312 13.5732C0.457151 13.5732 0.4472 13.5532 0.4472 13.5288C0.4472 13.5045 0.437249 13.4845 0.425087 13.4845C0.412925 13.4845 0.402975 13.4646 0.402975 13.4402C0.402975 13.4158 0.393024 13.3959 0.380862 13.3959C0.3687 13.3959 0.35875 13.3659 0.35875 13.3294C0.35875 13.2928 0.348799 13.2629 0.336637 13.2629C0.324475 13.2629 0.314525 13.233 0.314525 13.1964C0.314525 13.1598 0.304574 13.1299 0.292412 13.1299C0.280117 13.1299 0.270299 13.0708 0.270299 12.997C0.270299 12.9231 0.260481 12.864 0.248187 12.864C0.234079 12.864 0.226074 12.6793 0.226074 12.3543C0.226074 12.0292 0.234079 11.8446 0.248187 11.8446C0.261587 11.8446 0.270299 11.7485 0.270299 11.6008C0.270299 11.453 0.279012 11.357 0.292412 11.357C0.305304 11.357 0.314525 11.2831 0.314525 11.1797C0.314525 11.0763 0.323745 11.0024 0.336637 11.0024C0.349529 11.0024 0.35875 10.9286 0.35875 10.8251C0.35875 10.7217 0.367971 10.6478 0.380862 10.6478C0.393157 10.6478 0.402975 10.5887 0.402975 10.5149C0.402975 10.441 0.412793 10.3819 0.425087 10.3819C0.437249 10.3819 0.4472 10.332 0.4472 10.2711C0.4472 10.2101 0.457151 10.1603 0.469312 10.1603C0.481474 10.1603 0.491425 10.1304 0.491425 10.0938C0.491425 10.0572 0.501376 10.0273 0.513538 10.0273C0.5257 10.0273 0.53565 9.99739 0.53565 9.96083C0.53565 9.92426 0.545601 9.89434 0.557763 9.89434C0.569925 9.89434 0.579875 9.8744 0.579875 9.85002C0.579875 9.82564 0.589826 9.8057 0.601988 9.8057C0.61415 9.8057 0.6241 9.77578 0.6241 9.73921C0.6241 9.70264 0.634051 9.67273 0.646213 9.67273C0.658375 9.67273 0.668326 9.65278 0.668326 9.6284C0.668326 9.60403 0.678276 9.58408 0.690438 9.58408C0.7026 9.58408 0.712551 9.54419 0.712551 9.49543C0.712551 9.44668 0.722501 9.40679 0.734663 9.40679C0.748594 9.40679 0.756776 9.25904 0.756776 9.00788C0.756776 8.75672 0.748594 8.60897 0.734663 8.60897C0.721551 8.60897 0.712551 8.52771 0.712551 8.40952C0.712551 8.29133 0.703551 8.21006 0.690438 8.21006C0.676507 8.21006 0.668326 8.06231 0.668326 7.81116C0.668326 7.56 0.676507 7.41225 0.690438 7.41225C0.70333 7.41225 0.712551 7.33838 0.712551 7.23496C0.712551 7.13153 0.721772 7.05766 0.734663 7.05766C0.746825 7.05766 0.756776 7.01777 0.756776 6.96902C0.756776 6.92026 0.766727 6.88037 0.778888 6.88037C0.79105 6.88037 0.801001 6.84048 0.801001 6.79172C0.801001 6.74297 0.810952 6.70308 0.823114 6.70308C0.835276 6.70308 0.845226 6.67316 0.845226 6.63659C0.845226 6.60003 0.855177 6.57011 0.867339 6.57011C0.879501 6.57011 0.889451 6.53022 0.889451 6.48146C0.889451 6.43271 0.899402 6.39282 0.911564 6.39282C0.923726 6.39282 0.933676 6.37287 0.933676 6.34849C0.933676 6.32412 0.943627 6.30417 0.955789 6.30417C0.967951 6.30417 0.977902 6.28423 0.977902 6.25985C0.977902 6.23547 0.987852 6.21552 1.00001 6.21552C1.01218 6.21552 1.02213 6.19558 1.02213 6.1712C1.02213 6.14682 1.03208 6.12688 1.04424 6.12688C1.0564 6.12688 1.06635 6.10693 1.06635 6.08256C1.06635 6.05818 1.0763 6.03823 1.08846 6.03823C1.10063 6.03823 1.11058 6.01829 1.11058 5.99391C1.11058 5.96953 1.12053 5.94959 1.13269 5.94959C1.14485 5.94959 1.1548 5.93183 1.1548 5.91016C1.1548 5.88846 1.1747 5.85635 1.19903 5.83878C1.22335 5.8212 1.24325 5.79129 1.24325 5.77229C1.24325 5.7533 1.26315 5.72338 1.28748 5.70581C1.3118 5.68823 1.3317 5.66011 1.3317 5.64331C1.3317 5.62654 1.36155 5.58483 1.39804 5.55068C1.43453 5.51653 1.46438 5.47746 1.46438 5.46387C1.46438 5.43209 1.78762 5.10745 1.81926 5.10745C1.8324 5.10745 1.89162 5.05758 1.95085 4.99664C2.01009 4.9357 2.07192 4.88583 2.08826 4.88583C2.10463 4.88583 2.13233 4.86589 2.14987 4.84151C2.1674 4.81713 2.19726 4.79719 2.21621 4.79719C2.23516 4.79719 2.26501 4.77724 2.28254 4.75286C2.30008 4.72848 2.33212 4.70854 2.35377 4.70854C2.37539 4.70854 2.39311 4.69857 2.39311 4.68638C2.39311 4.67419 2.41301 4.66422 2.43733 4.66422C2.46166 4.66422 2.48156 4.65424 2.48156 4.64205C2.48156 4.62987 2.49927 4.61989 2.52089 4.61989C2.54254 4.61989 2.57458 4.59995 2.59212 4.57557C2.60965 4.55119 2.63951 4.53125 2.65846 4.53125C2.67741 4.53125 2.70726 4.5113 2.72479 4.48692C2.74233 4.46255 2.76953 4.4426 2.78525 4.4426C2.82006 4.4426 3.23338 4.03206 3.23338 3.99746C3.23338 3.98392 3.26324 3.94487 3.29972 3.91072C3.33621 3.87657 3.36606 3.83486 3.36606 3.81809C3.36606 3.80129 3.38596 3.77317 3.41028 3.75559C3.43461 3.73802 3.45451 3.70591 3.45451 3.68421C3.45451 3.66254 3.46446 3.64478 3.47662 3.64478C3.48878 3.64478 3.49873 3.62703 3.49873 3.60536C3.49873 3.58366 3.51864 3.55155 3.54296 3.53398C3.56728 3.5164 3.58718 3.48429 3.58718 3.46259C3.58718 3.44092 3.59714 3.42317 3.6093 3.42317C3.62146 3.42317 3.63141 3.40322 3.63141 3.37885C3.63141 3.35447 3.64136 3.33452 3.65352 3.33452C3.66568 3.33452 3.67564 3.31458 3.67564 3.2902C3.67564 3.26582 3.68559 3.24588 3.69775 3.24588C3.70991 3.24588 3.71986 3.22813 3.71986 3.20645C3.71986 3.18476 3.73976 3.15264 3.76409 3.13507C3.78841 3.1175 3.80831 3.08538 3.80831 3.06369C3.80831 3.04201 3.81826 3.02426 3.83042 3.02426C3.84259 3.02426 3.85254 2.99434 3.85254 2.95778C3.85254 2.92121 3.86249 2.89129 3.87465 2.89129C3.88681 2.89129 3.89676 2.87135 3.89676 2.84697C3.89676 2.82259 3.90671 2.80265 3.91887 2.80265C3.93104 2.80265 3.94099 2.77273 3.94099 2.73616C3.94099 2.69959 3.95094 2.66968 3.9631 2.66968C3.97526 2.66968 3.98521 2.64973 3.98521 2.62535C3.98521 2.60098 3.99516 2.58103 4.00732 2.58103C4.01949 2.58103 4.02944 2.5651 4.02944 2.54559C4.02944 2.52611 4.05929 2.48221 4.09577 2.44806C4.13226 2.41391 4.16211 2.37482 4.16211 2.36119C4.16211 2.32655 4.44243 2.04915 4.47746 2.04915C4.49323 2.04915 4.52049 2.02921 4.53803 2.00483C4.55556 1.98045 4.58541 1.96051 4.60436 1.96051C4.62331 1.96051 4.65317 1.94056 4.6707 1.91618C4.68943 1.89017 4.72795 1.87186 4.76404 1.87186C4.79783 1.87186 4.82549 1.86189 4.82549 1.8497C4.82549 1.83751 4.84539 1.82754 4.86971 1.82754C4.89404 1.82754 4.91394 1.81757 4.91394 1.80538C4.91394 1.79319 4.94379 1.78321 4.98028 1.78321C5.01676 1.78321 5.04661 1.77324 5.04661 1.76105C5.04661 1.74734 5.16454 1.73889 5.35619 1.73889C5.54784 1.73889 5.66577 1.73045 5.66577 1.71673C5.66577 1.70454 5.70557 1.69457 5.75422 1.69457C5.80286 1.69457 5.84267 1.6846 5.84267 1.67241C5.84267 1.66022 5.88247 1.65025 5.93112 1.65025C5.97977 1.65025 6.01957 1.64027 6.01957 1.62808C6.01957 1.61589 6.03947 1.60592 6.06379 1.60592C6.08812 1.60592 6.10802 1.59595 6.10802 1.58376C6.10802 1.57157 6.12792 1.5616 6.15224 1.5616C6.17657 1.5616 6.19647 1.55163 6.19647 1.53944C6.19647 1.52725 6.21637 1.51728 6.24069 1.51728C6.26502 1.51728 6.28492 1.5073 6.28492 1.49511C6.28492 1.48293 6.30482 1.47295 6.32914 1.47295C6.35347 1.47295 6.37337 1.46298 6.37337 1.45079C6.37337 1.4386 6.40322 1.42863 6.43971 1.42863C6.47619 1.42863 6.50604 1.41866 6.50604 1.40647C6.50604 1.39428 6.52595 1.38431 6.55027 1.38431C6.57459 1.38431 6.59449 1.37433 6.59449 1.36215C6.59449 1.34996 6.6144 1.33998 6.63872 1.33998C6.66304 1.33998 6.68294 1.33001 6.68294 1.31782C6.68294 1.30563 6.70285 1.29566 6.72717 1.29566C6.75149 1.29566 6.7714 1.28569 6.7714 1.2735C6.7714 1.26131 6.7913 1.25134 6.81562 1.25134C6.83994 1.25134 6.85985 1.24136 6.85985 1.22918C6.85985 1.21699 6.87975 1.20701 6.90407 1.20701C6.92839 1.20701 6.9483 1.19704 6.9483 1.18485C6.9483 1.17266 6.9682 1.16269 6.99252 1.16269C7.01684 1.16269 7.03675 1.15272 7.03675 1.14053C7.03675 1.12834 7.05665 1.11837 7.08097 1.11837C7.1053 1.11837 7.1252 1.1084 7.1252 1.09621C7.1252 1.08402 7.15505 1.07405 7.19153 1.07405C7.22802 1.07405 7.25787 1.06407 7.25787 1.05188C7.25787 1.03969 7.27777 1.02972 7.3021 1.02972C7.32642 1.02972 7.34632 1.01975 7.34632 1.00756C7.34632 0.995372 7.37617 0.985399 7.41266 0.985399C7.44915 0.985399 7.479 0.975426 7.479 0.963237C7.479 0.951049 7.50885 0.941076 7.54534 0.941076C7.58182 0.941076 7.61167 0.931103 7.61167 0.918914C7.61167 0.906725 7.64152 0.896753 7.67801 0.896753C7.7145 0.896753 7.74435 0.88678 7.74435 0.874591C7.74435 0.862402 7.7742 0.85243 7.81069 0.85243C7.84717 0.85243 7.87702 0.842457 7.87702 0.830268C7.87702 0.818079 7.90688 0.808107 7.94336 0.808107C7.97985 0.808107 8.0097 0.798134 8.0097 0.785945C8.0097 0.773756 8.03955 0.763783 8.07604 0.763783C8.11252 0.763783 8.14237 0.753811 8.14237 0.741622C8.14237 0.729433 8.18218 0.71946 8.23082 0.71946C8.27947 0.71946 8.31928 0.709488 8.31928 0.697299C8.31928 0.68511 8.34913 0.675137 8.38561 0.675137C8.4221 0.675137 8.45195 0.665165 8.45195 0.652976C8.45195 0.640787 8.5017 0.630814 8.56251 0.630814C8.62332 0.630814 8.67308 0.620841 8.67308 0.608653C8.67308 0.596464 8.72283 0.586491 8.78364 0.586491C8.84445 0.586491 8.8942 0.576518 8.8942 0.564329C8.8942 0.552141 8.94396 0.542168 9.00476 0.542168C9.06557 0.542168 9.11533 0.532195 9.11533 0.520006C9.11533 0.507685 9.1743 0.497845 9.248 0.497845ZM9.99983 17.9168C14.2742 17.9168 17.7392 14.4441 17.7392 10.1603C17.7392 5.87646 14.2742 2.40374 9.99983 2.40374C5.72548 2.40374 2.26043 5.87646 2.26043 10.1603C2.26043 14.4441 5.72548 17.9168 9.99983 17.9168Z" fill="#2D5A13"/>
<path fill-rule="evenodd" clip-rule="evenodd" d="M9.23077 0.0453515C9.30618 0.0453515 9.36652 0.0352834 9.36652 0.0226757C9.36652 0.00863946 9.48717 0 9.68326 0C9.87934 0 10 0.00863946 10 0.0226757C10 0.0351474 10.0407 0.0453515 10.0905 0.0453515C10.1403 0.0453515 10.181 0.0555556 10.181 0.0680272C10.181 0.0804989 10.2115 0.090703 10.2489 0.090703C10.2862 0.090703 10.3167 0.100907 10.3167 0.113379C10.3167 0.12585 10.3371 0.136054 10.362 0.136054C10.3869 0.136054 10.4072 0.146259 10.4072 0.15873C10.4072 0.171202 10.4276 0.181406 10.4525 0.181406C10.4774 0.181406 10.4977 0.19161 10.4977 0.204082C10.4977 0.216553 10.5181 0.226757 10.543 0.226757C10.5679 0.226757 10.5882 0.236961 10.5882 0.249433C10.5882 0.261905 10.6064 0.272109 10.6285 0.272109C10.6506 0.272109 10.6834 0.292517 10.7014 0.31746C10.7193 0.342404 10.7498 0.362812 10.7692 0.362812C10.7886 0.362812 10.8192 0.38322 10.8371 0.408163C10.855 0.433107 10.8878 0.453515 10.91 0.453515C10.9321 0.453515 10.9502 0.463719 10.9502 0.47619C10.9502 0.488662 10.9665 0.498866 10.9864 0.498866C11.0063 0.498866 11.0511 0.529478 11.086 0.566893C11.1208 0.604308 11.1657 0.634921 11.1855 0.634921C11.2055 0.634921 11.2217 0.645125 11.2217 0.657596C11.2217 0.670068 11.2398 0.680272 11.262 0.680272C11.2841 0.680272 11.3169 0.70068 11.3348 0.725624C11.3528 0.750567 11.3856 0.770975 11.4077 0.770975C11.4298 0.770975 11.448 0.781179 11.448 0.793651C11.448 0.806122 11.4683 0.816327 11.4932 0.816327C11.5181 0.816327 11.5385 0.826531 11.5385 0.839002C11.5385 0.851474 11.5588 0.861678 11.5837 0.861678C11.6086 0.861678 11.629 0.871882 11.629 0.884354C11.629 0.896825 11.6595 0.90703 11.6968 0.90703C11.7342 0.90703 11.7647 0.917234 11.7647 0.929705C11.7647 0.942177 11.8054 0.952381 11.8552 0.952381C11.905 0.952381 11.9457 0.962585 11.9457 0.975057C11.9457 0.987528 11.9864 0.997732 12.0362 0.997732C12.086 0.997732 12.1267 1.00794 12.1267 1.02041C12.1267 1.03336 12.1946 1.04308 12.2851 1.04308C12.3756 1.04308 12.4434 1.05281 12.4434 1.06576C12.4434 1.07971 12.5566 1.08844 12.7376 1.08844C12.9186 1.08844 13.0317 1.07971 13.0317 1.06576C13.0317 1.05254 13.1071 1.04308 13.2127 1.04308C13.3183 1.04308 13.3937 1.03363 13.3937 1.02041C13.3937 1.00594 13.5822 0.997732 13.914 0.997732C14.2459 0.997732 14.4344 1.00594 14.4344 1.02041C14.4344 1.03288 14.4853 1.04308 14.5475 1.04308C14.6097 1.04308 14.6606 1.05329 14.6606 1.06576C14.6606 1.07823 14.6912 1.08844 14.7285 1.08844C14.7658 1.08844 14.7964 1.09864 14.7964 1.11111C14.7964 1.12358 14.8269 1.13379 14.8643 1.13379C14.9016 1.13379 14.9321 1.14399 14.9321 1.15646C14.9321 1.16893 14.9525 1.17914 14.9774 1.17914C15.0023 1.17914 15.0226 1.18934 15.0226 1.20181C15.0226 1.21429 15.0407 1.22449 15.0629 1.22449C15.085 1.22449 15.1178 1.2449 15.1357 1.26984C15.1537 1.29478 15.1816 1.31519 15.1977 1.31519C15.236 1.31519 15.5204 1.60023 15.5204 1.63857C15.5204 1.65474 15.5407 1.6827 15.5656 1.70068C15.5905 1.71866 15.6109 1.74927 15.6109 1.76871C15.6109 1.78814 15.6312 1.81875 15.6561 1.83673C15.681 1.85472 15.7014 1.88533 15.7014 1.90476C15.7014 1.9242 15.7217 1.95481 15.7466 1.97279C15.7715 1.99077 15.7919 2.01862 15.7919 2.03469C15.7919 2.07027 16.3921 2.67574 16.4274 2.67574C16.4412 2.67574 16.481 2.70635 16.5158 2.74376C16.5507 2.78118 16.5914 2.81179 16.6063 2.81179C16.6212 2.81179 16.662 2.8424 16.6968 2.87982C16.7317 2.91723 16.7743 2.94785 16.7914 2.94785C16.8086 2.94785 16.8373 2.96825 16.8552 2.9932C16.8731 3.01814 16.9019 3.03855 16.919 3.03855C16.9361 3.03855 16.9787 3.06916 17.0136 3.10658C17.0484 3.14399 17.091 3.1746 17.1081 3.1746C17.1253 3.1746 17.154 3.19501 17.1719 3.21995C17.1899 3.2449 17.2177 3.26531 17.2338 3.26531C17.2692 3.26531 17.6471 3.63984 17.6471 3.67492C17.6471 3.68855 17.6878 3.73891 17.7376 3.78685C17.7873 3.83478 17.8281 3.88785 17.8281 3.90478C17.8281 3.92172 17.8484 3.95027 17.8733 3.96825C17.8983 3.98628 17.9186 4.02696 17.9186 4.05896C17.9186 4.09095 17.9388 4.13163 17.9638 4.14966C17.9904 4.16887 18.0091 4.20837 18.0091 4.24537C18.0091 4.28002 18.0192 4.30839 18.0317 4.30839C18.0441 4.30839 18.0543 4.339 18.0543 4.37642C18.0543 4.41383 18.0645 4.44444 18.0769 4.44444C18.0894 4.44444 18.0995 4.49547 18.0995 4.55782C18.0995 4.62018 18.1097 4.6712 18.1222 4.6712C18.1357 4.6712 18.1448 4.7619 18.1448 4.89796C18.1448 5.03401 18.1538 5.12472 18.1674 5.12472C18.1799 5.12472 18.19 5.16553 18.19 5.21542C18.19 5.26531 18.2002 5.30612 18.2127 5.30612C18.2251 5.30612 18.2353 5.32653 18.2353 5.35147C18.2353 5.37642 18.2455 5.39683 18.2579 5.39683C18.2704 5.39683 18.2805 5.42744 18.2805 5.46485C18.2805 5.50227 18.2907 5.53288 18.3032 5.53288C18.3156 5.53288 18.3258 5.55329 18.3258 5.57823C18.3258 5.60317 18.336 5.62358 18.3484 5.62358C18.3609 5.62358 18.371 5.64399 18.371 5.66893C18.371 5.69388 18.3812 5.71429 18.3937 5.71429C18.4061 5.71429 18.4163 5.73469 18.4163 5.75964C18.4163 5.78458 18.4265 5.80499 18.4389 5.80499C18.4514 5.80499 18.4615 5.82315 18.4615 5.84533C18.4615 5.86753 18.4819 5.90039 18.5068 5.91837C18.5317 5.93635 18.552 5.96696 18.552 5.98639C18.552 6.00583 18.5724 6.03644 18.5973 6.05442C18.6222 6.0724 18.6425 6.10302 18.6425 6.12245C18.6425 6.14188 18.6629 6.17249 18.6878 6.19048C18.7127 6.20846 18.733 6.23701 18.733 6.25395C18.733 6.27089 18.7738 6.32395 18.8235 6.37188C18.8733 6.41982 18.914 6.47043 18.914 6.48435C18.914 6.49828 19.0057 6.60073 19.1176 6.71202C19.2296 6.82331 19.3213 6.92576 19.3213 6.93968C19.3213 6.95361 19.362 7.00422 19.4118 7.05215C19.4615 7.10009 19.5023 7.15315 19.5023 7.17009C19.5023 7.18703 19.5226 7.21558 19.5475 7.23356C19.5724 7.25154 19.5928 7.2844 19.5928 7.3066C19.5928 7.32878 19.6029 7.34694 19.6154 7.34694C19.6278 7.34694 19.638 7.36735 19.638 7.39229C19.638 7.41723 19.6482 7.43764 19.6606 7.43764C19.6731 7.43764 19.6833 7.45805 19.6833 7.48299C19.6833 7.50794 19.6934 7.52834 19.7059 7.52834C19.7183 7.52834 19.7285 7.54875 19.7285 7.5737C19.7285 7.59864 19.7387 7.61905 19.7511 7.61905C19.7636 7.61905 19.7738 7.63946 19.7738 7.6644C19.7738 7.68934 19.7839 7.70975 19.7964 7.70975C19.8088 7.70975 19.819 7.73016 19.819 7.7551C19.819 7.78005 19.8292 7.80045 19.8416 7.80045C19.8541 7.80045 19.8643 7.83107 19.8643 7.86848C19.8643 7.9059 19.8744 7.93651 19.8869 7.93651C19.8993 7.93651 19.9095 7.97732 19.9095 8.02721C19.9095 8.0771 19.9197 8.11791 19.9321 8.11791C19.9446 8.11791 19.9548 8.16893 19.9548 8.23129C19.9548 8.29365 19.9649 8.34467 19.9774 8.34467C19.9916 8.34467 20 8.48828 20 8.73016C20 8.97204 19.9916 9.11565 19.9774 9.11565C19.9649 9.11565 19.9548 9.16667 19.9548 9.22903C19.9548 9.29138 19.9446 9.3424 19.9321 9.3424C19.9197 9.3424 19.9095 9.38322 19.9095 9.43311C19.9095 9.48299 19.8993 9.52381 19.8869 9.52381C19.8744 9.52381 19.8643 9.56463 19.8643 9.61451C19.8643 9.6644 19.8541 9.70522 19.8416 9.70522C19.8292 9.70522 19.819 9.72562 19.819 9.75057C19.819 9.77551 19.8088 9.79592 19.7964 9.79592C19.7839 9.79592 19.7738 9.82653 19.7738 9.86395C19.7738 9.90136 19.7636 9.93197 19.7511 9.93197C19.7387 9.93197 19.7285 9.96259 19.7285 10C19.7285 10.0374 19.7183 10.068 19.7059 10.068C19.6934 10.068 19.6833 10.0884 19.6833 10.1134C19.6833 10.1383 19.6731 10.1587 19.6606 10.1587C19.6482 10.1587 19.638 10.1893 19.638 10.2268C19.638 10.2642 19.6278 10.2948 19.6154 10.2948C19.6029 10.2948 19.5928 10.3254 19.5928 10.3628C19.5928 10.4002 19.5826 10.4308 19.5701 10.4308C19.5577 10.4308 19.5475 10.4615 19.5475 10.4989C19.5475 10.5363 19.5373 10.5669 19.5249 10.5669C19.5124 10.5669 19.5023 10.5975 19.5023 10.6349C19.5023 10.6723 19.4921 10.7029 19.4796 10.7029C19.4672 10.7029 19.457 10.7336 19.457 10.771C19.457 10.8084 19.4468 10.839 19.4344 10.839C19.4219 10.839 19.4118 10.8696 19.4118 10.907C19.4118 10.9444 19.4016 10.9751 19.3891 10.9751C19.3767 10.9751 19.3665 11.0057 19.3665 11.0431C19.3665 11.0805 19.3563 11.1111 19.3439 11.1111C19.3296 11.1111 19.3213 11.2774 19.3213 11.5646C19.3213 11.8519 19.3296 12.0181 19.3439 12.0181C19.3563 12.0181 19.3665 12.0488 19.3665 12.0862C19.3665 12.1236 19.3767 12.1542 19.3891 12.1542C19.4016 12.1542 19.4118 12.1848 19.4118 12.2222C19.4118 12.2596 19.4219 12.2902 19.4344 12.2902C19.4468 12.2902 19.457 12.3311 19.457 12.381C19.457 12.4308 19.4672 12.4717 19.4796 12.4717C19.4921 12.4717 19.5023 12.5125 19.5023 12.5624C19.5023 12.6122 19.5124 12.6531 19.5249 12.6531C19.5375 12.6531 19.5475 12.7135 19.5475 12.7891C19.5475 12.8647 19.5576 12.9252 19.5701 12.9252C19.5847 12.9252 19.5928 13.1444 19.5928 13.5374C19.5928 13.9305 19.5847 14.1497 19.5701 14.1497C19.5577 14.1497 19.5475 14.2007 19.5475 14.263C19.5475 14.3254 19.5373 14.3764 19.5249 14.3764C19.5124 14.3764 19.5023 14.4172 19.5023 14.4671C19.5023 14.517 19.4921 14.5578 19.4796 14.5578C19.4672 14.5578 19.457 14.5884 19.457 14.6259C19.457 14.6633 19.4468 14.6939 19.4344 14.6939C19.4219 14.6939 19.4118 14.7143 19.4118 14.7392C19.4118 14.7642 19.4016 14.7846 19.3891 14.7846C19.3767 14.7846 19.3665 14.8152 19.3665 14.8526C19.3665 14.89 19.3563 14.9206 19.3439 14.9206C19.3314 14.9206 19.3213 14.941 19.3213 14.966C19.3213 14.9909 19.3111 15.0113 19.2986 15.0113C19.2862 15.0113 19.276 15.0317 19.276 15.0567C19.276 15.0816 19.2658 15.102 19.2534 15.102C19.241 15.102 19.2308 15.1225 19.2308 15.1474C19.2308 15.1723 19.2206 15.1927 19.2081 15.1927C19.1957 15.1927 19.1855 15.2109 19.1855 15.2331C19.1855 15.2553 19.1652 15.2881 19.1403 15.3061C19.1154 15.3241 19.095 15.3521 19.095 15.3684C19.095 15.4097 18.9002 15.6009 18.8581 15.6009C18.8391 15.6009 18.8235 15.6111 18.8235 15.6236C18.8235 15.6361 18.793 15.6463 18.7557 15.6463C18.7183 15.6463 18.6878 15.6565 18.6878 15.6689C18.6878 15.6814 18.6674 15.6916 18.6425 15.6916C18.6176 15.6916 18.5973 15.7018 18.5973 15.7143C18.5973 15.7268 18.5667 15.737 18.5294 15.737C18.4921 15.737 18.4615 15.7472 18.4615 15.7596C18.4615 15.7721 18.431 15.7823 18.3937 15.7823C18.3563 15.7823 18.3258 15.7925 18.3258 15.805C18.3258 15.8175 18.2952 15.8277 18.2579 15.8277C18.2206 15.8277 18.19 15.8379 18.19 15.8503C18.19 15.8628 18.1595 15.873 18.1222 15.873C18.0848 15.873 18.0543 15.8832 18.0543 15.8957C18.0543 15.9082 18.0339 15.9184 18.0091 15.9184C17.9842 15.9184 17.9638 15.9286 17.9638 15.941C17.9638 15.9535 17.9457 15.9637 17.9236 15.9637C17.9014 15.9637 17.8686 15.9841 17.8507 16.0091C17.8327 16.034 17.804 16.0544 17.7869 16.0544C17.7698 16.0544 17.7272 16.085 17.6923 16.1224C17.6574 16.1599 17.6174 16.1905 17.6034 16.1905C17.568 16.1905 17.3756 16.3868 17.3756 16.423C17.3756 16.4393 17.3552 16.4673 17.3303 16.4853C17.3054 16.5032 17.2851 16.5339 17.2851 16.5533C17.2851 16.5727 17.2647 16.6033 17.2398 16.6213C17.2133 16.6405 17.1946 16.68 17.1946 16.717C17.1946 16.7517 17.1844 16.78 17.1719 16.78C17.1595 16.78 17.1493 16.8005 17.1493 16.8254C17.1493 16.8503 17.1391 16.8707 17.1267 16.8707C17.1143 16.8707 17.1041 16.8912 17.1041 16.9161C17.1041 16.941 17.0939 16.9615 17.0814 16.9615C17.069 16.9615 17.0588 16.9921 17.0588 17.0295C17.0588 17.0669 17.0486 17.0975 17.0362 17.0975C17.0238 17.0975 17.0136 17.1281 17.0136 17.1655C17.0136 17.2029 17.0034 17.2336 16.991 17.2336C16.9785 17.2336 16.9683 17.2642 16.9683 17.3016C16.9683 17.339 16.9581 17.3696 16.9457 17.3696C16.9333 17.3696 16.9231 17.39 16.9231 17.415C16.9231 17.4399 16.9129 17.4603 16.9005 17.4603C16.888 17.4603 16.8778 17.4909 16.8778 17.5283C16.8778 17.5658 16.8676 17.5964 16.8552 17.5964C16.8428 17.5964 16.8326 17.6168 16.8326 17.6417C16.8326 17.6667 16.8224 17.6871 16.81 17.6871C16.7975 17.6871 16.7873 17.7075 16.7873 17.7324C16.7873 17.7574 16.7771 17.7778 16.7647 17.7778C16.7523 17.7778 16.7421 17.7982 16.7421 17.8231C16.7421 17.8481 16.7319 17.8685 16.7195 17.8685C16.707 17.8685 16.6968 17.8889 16.6968 17.9138C16.6968 17.9388 16.6867 17.9592 16.6742 17.9592C16.6618 17.9592 16.6516 17.9796 16.6516 18.0045C16.6516 18.0295 16.6414 18.0499 16.629 18.0499C16.6165 18.0499 16.6063 18.068 16.6063 18.0902C16.6063 18.1124 16.586 18.1453 16.5611 18.1633C16.5362 18.1812 16.5158 18.2098 16.5158 18.2267C16.5158 18.2437 16.4751 18.2967 16.4253 18.3447C16.3756 18.3926 16.3348 18.4479 16.3348 18.4676C16.3348 18.4883 16.3157 18.5034 16.2896 18.5034C16.264 18.5034 16.2443 18.5185 16.2443 18.5382C16.2443 18.5779 16.1002 18.7302 16.0626 18.7302C16.049 18.7302 15.9882 18.7812 15.9276 18.8435C15.867 18.9059 15.8056 18.9569 15.7911 18.9569C15.7766 18.9569 15.7362 18.9875 15.7014 19.0249C15.6665 19.0624 15.6239 19.093 15.6068 19.093C15.5896 19.093 15.5609 19.1134 15.543 19.1383C15.525 19.1633 15.4945 19.1837 15.4751 19.1837C15.4557 19.1837 15.4252 19.2041 15.4072 19.229C15.3893 19.254 15.3565 19.2744 15.3344 19.2744C15.3122 19.2744 15.2941 19.2846 15.2941 19.2971C15.2941 19.3095 15.2738 19.3197 15.2489 19.3197C15.224 19.3197 15.2036 19.3299 15.2036 19.3424C15.2036 19.3549 15.1833 19.3651 15.1584 19.3651C15.1335 19.3651 15.1131 19.3753 15.1131 19.3878C15.1131 19.4002 15.0928 19.4104 15.0679 19.4104C15.043 19.4104 15.0226 19.4206 15.0226 19.4331C15.0226 19.4456 15.0023 19.4558 14.9774 19.4558C14.9525 19.4558 14.9321 19.466 14.9321 19.4785C14.9321 19.4909 14.9118 19.5011 14.8869 19.5011C14.862 19.5011 14.8416 19.5113 14.8416 19.5238C14.8416 19.5363 14.8111 19.5465 14.7738 19.5465C14.7364 19.5465 14.7059 19.5567 14.7059 19.5692C14.7059 19.5816 14.6753 19.5918 14.638 19.5918C14.6007 19.5918 14.5701 19.602 14.5701 19.6145C14.5701 19.627 14.5396 19.6372 14.5023 19.6372C14.4649 19.6372 14.4344 19.6474 14.4344 19.6599C14.4344 19.6723 14.4038 19.6825 14.3665 19.6825C14.3292 19.6825 14.2986 19.6927 14.2986 19.7052C14.2986 19.7177 14.2681 19.7279 14.2308 19.7279C14.1934 19.7279 14.1629 19.7381 14.1629 19.7506C14.1629 19.763 14.1222 19.7732 14.0724 19.7732C14.0226 19.7732 13.9819 19.7834 13.9819 19.7959C13.9819 19.8084 13.931 19.8186 13.8688 19.8186C13.8066 19.8186 13.7557 19.8288 13.7557 19.8413C13.7557 19.8537 13.7048 19.8639 13.6425 19.8639C13.5803 19.8639 13.5294 19.8742 13.5294 19.8866C13.5294 19.9012 13.2881 19.9093 12.8507 19.9093C12.4133 19.9093 12.1719 19.9012 12.1719 19.8866C12.1719 19.8742 12.1312 19.8639 12.0814 19.8639C12.0317 19.8639 11.991 19.8537 11.991 19.8413C11.991 19.8288 11.9604 19.8186 11.9231 19.8186C11.8857 19.8186 11.8552 19.8084 11.8552 19.7959C11.8552 19.7834 11.8145 19.7732 11.7647 19.7732C11.7149 19.7732 11.6742 19.763 11.6742 19.7506C11.6742 19.7381 11.6437 19.7279 11.6063 19.7279C11.569 19.7279 11.5385 19.7177 11.5385 19.7052C11.5385 19.6927 11.4977 19.6825 11.448 19.6825C11.3982 19.6825 11.3575 19.6723 11.3575 19.6599C11.3575 19.6474 11.3066 19.6372 11.2443 19.6372C11.1821 19.6372 11.1312 19.627 11.1312 19.6145C11.1312 19.6004 11.003 19.5918 10.7919 19.5918C10.5807 19.5918 10.4525 19.6004 10.4525 19.6145C10.4525 19.627 10.4016 19.6372 10.3394 19.6372C10.2771 19.6372 10.2262 19.6474 10.2262 19.6599C10.2262 19.6723 10.1957 19.6825 10.1584 19.6825C10.121 19.6825 10.0905 19.6927 10.0905 19.7052C10.0905 19.7177 10.06 19.7279 10.0226 19.7279C9.98529 19.7279 9.95475 19.7381 9.95475 19.7506C9.95475 19.763 9.92421 19.7732 9.88688 19.7732C9.84955 19.7732 9.819 19.7834 9.819 19.7959C9.819 19.8084 9.79864 19.8186 9.77376 19.8186C9.74887 19.8186 9.72851 19.8288 9.72851 19.8413C9.72851 19.8537 9.69796 19.8639 9.66063 19.8639C9.6233 19.8639 9.59276 19.8742 9.59276 19.8866C9.59276 19.8991 9.55204 19.9093 9.50226 19.9093C9.45249 19.9093 9.41176 19.9195 9.41176 19.932C9.41176 19.9444 9.3914 19.9546 9.36652 19.9546C9.34163 19.9546 9.32127 19.9649 9.32127 19.9773C9.32127 19.9905 9.24586 20 9.14027 20C9.03468 20 8.95928 19.9905 8.95928 19.9773C8.95928 19.9649 8.93891 19.9546 8.91403 19.9546C8.88914 19.9546 8.86878 19.9444 8.86878 19.932C8.86878 19.9195 8.81787 19.9093 8.75566 19.9093C8.69344 19.9093 8.64253 19.8991 8.64253 19.8866C8.64253 19.8742 8.61199 19.8639 8.57466 19.8639C8.53733 19.8639 8.50679 19.8537 8.50679 19.8413C8.50679 19.8288 8.48643 19.8186 8.46154 19.8186C8.43665 19.8186 8.41629 19.8084 8.41629 19.7959C8.41629 19.7834 8.39593 19.7732 8.37104 19.7732C8.34615 19.7732 8.32579 19.763 8.32579 19.7506C8.32579 19.7381 8.30543 19.7279 8.28054 19.7279C8.25566 19.7279 8.23529 19.7177 8.23529 19.7052C8.23529 19.6927 8.21717 19.6825 8.19505 19.6825C8.1729 19.6825 8.14011 19.6621 8.12217 19.6372C8.10423 19.6122 8.07552 19.5918 8.05837 19.5918C8.04124 19.5918 7.99867 19.5612 7.9638 19.5238C7.92894 19.4864 7.88636 19.4558 7.86923 19.4558C7.85208 19.4558 7.82337 19.4354 7.80543 19.4104C7.78749 19.3855 7.75695 19.3651 7.73756 19.3651C7.71817 19.3651 7.68762 19.3447 7.66968 19.3197C7.65174 19.2948 7.6212 19.2744 7.60181 19.2744C7.58242 19.2744 7.55188 19.254 7.53394 19.229C7.516 19.2041 7.48321 19.1837 7.46106 19.1837C7.43894 19.1837 7.42081 19.1735 7.42081 19.161C7.42081 19.1485 7.39027 19.1383 7.35294 19.1383C7.31561 19.1383 7.28507 19.1281 7.28507 19.1156C7.28507 19.1032 7.24434 19.093 7.19457 19.093C7.1448 19.093 7.10407 19.0828 7.10407 19.0703C7.10407 19.0566 7.00604 19.0476 6.8552 19.0476C6.70437 19.0476 6.60633 19.0387 6.60633 19.0249C6.60633 19.0117 6.53093 19.0023 6.42534 19.0023C6.31975 19.0023 6.24434 19.0117 6.24434 19.0249C6.24434 19.039 6.12369 19.0476 5.9276 19.0476C5.73152 19.0476 5.61086 19.039 5.61086 19.0249C5.61086 19.0123 5.55052 19.0023 5.47511 19.0023C5.39971 19.0023 5.33937 18.9922 5.33937 18.9796C5.33937 18.9671 5.29864 18.9569 5.24887 18.9569C5.1991 18.9569 5.15837 18.9467 5.15837 18.9342C5.15837 18.9218 5.11765 18.9116 5.06787 18.9116C5.0181 18.9116 4.97738 18.9014 4.97738 18.8889C4.97738 18.8764 4.95701 18.8662 4.93213 18.8662C4.90724 18.8662 4.88688 18.856 4.88688 18.8435C4.88688 18.8311 4.85633 18.8209 4.819 18.8209C4.78167 18.8209 4.75113 18.8107 4.75113 18.7982C4.75113 18.7857 4.73077 18.7755 4.70588 18.7755C4.681 18.7755 4.66063 18.7653 4.66063 18.7528C4.66063 18.7404 4.63009 18.7302 4.59276 18.7302C4.55543 18.7302 4.52489 18.72 4.52489 18.7075C4.52489 18.695 4.50453 18.6848 4.47964 18.6848C4.45475 18.6848 4.43439 18.6746 4.43439 18.6621C4.43439 18.6497 4.41403 18.6395 4.38914 18.6395C4.36425 18.6395 4.34389 18.6293 4.34389 18.6168C4.34389 18.6043 4.32577 18.5941 4.30364 18.5941C4.28149 18.5941 4.24871 18.5737 4.23077 18.5488C4.21283 18.5238 4.18005 18.5034 4.1579 18.5034C4.13577 18.5034 4.11765 18.4932 4.11765 18.4807C4.11765 18.4683 4.09952 18.4581 4.0774 18.4581C4.05525 18.4581 4.02247 18.4376 4.00452 18.4127C3.98658 18.3878 3.95604 18.3673 3.93665 18.3673C3.91726 18.3673 3.88672 18.3469 3.86878 18.322C3.85084 18.2971 3.82213 18.2766 3.80498 18.2766C3.78785 18.2766 3.74527 18.246 3.71041 18.2086C3.67554 18.1712 3.63572 18.1406 3.62192 18.1406C3.58665 18.1406 3.03167 17.5805 3.03167 17.5449C3.03167 17.5288 3.01131 17.501 2.98643 17.483C2.96154 17.465 2.94118 17.4362 2.94118 17.419C2.94118 17.4019 2.91063 17.3592 2.8733 17.3243C2.83597 17.2893 2.80543 17.2466 2.80543 17.2295C2.80543 17.2123 2.78507 17.1835 2.76018 17.1655C2.73529 17.1476 2.71493 17.1169 2.71493 17.0975C2.71493 17.0781 2.69457 17.0475 2.66968 17.0295C2.64473 17.0115 2.62443 16.9708 2.62443 16.9388C2.62443 16.9068 2.60414 16.8661 2.57919 16.8481C2.5543 16.8301 2.53394 16.7972 2.53394 16.775C2.53394 16.7529 2.52376 16.7347 2.51131 16.7347C2.49887 16.7347 2.48869 16.6939 2.48869 16.644C2.48869 16.5941 2.47851 16.5533 2.46606 16.5533C2.45224 16.5533 2.44344 16.4475 2.44344 16.2812C2.44344 16.1149 2.43464 16.0091 2.42081 16.0091C2.40837 16.0091 2.39819 15.9785 2.39819 15.941C2.39819 15.9036 2.38801 15.873 2.37557 15.873C2.36312 15.873 2.35294 15.8526 2.35294 15.8277C2.35294 15.8027 2.34276 15.7823 2.33032 15.7823C2.31787 15.7823 2.30769 15.7619 2.30769 15.737C2.30769 15.712 2.29751 15.6916 2.28507 15.6916C2.27262 15.6916 2.26244 15.6734 2.26244 15.6513C2.26244 15.6291 2.24208 15.5962 2.21719 15.5782C2.19231 15.5602 2.17195 15.5296 2.17195 15.5102C2.17195 15.4908 2.15158 15.4602 2.1267 15.4422C2.10181 15.4242 2.08145 15.3963 2.08145 15.3802C2.08145 15.3449 1.52663 14.7846 1.49165 14.7846C1.47812 14.7846 1.42792 14.7438 1.38009 14.6939C1.33226 14.644 1.28206 14.6032 1.26853 14.6032C1.23638 14.6032 0.678733 14.0443 0.678733 14.012C0.678733 13.9985 0.638009 13.9482 0.588235 13.9002C0.538462 13.8523 0.497738 13.8011 0.497738 13.7864C0.497738 13.7717 0.467195 13.7311 0.429864 13.6961C0.392534 13.6612 0.361991 13.6185 0.361991 13.6014C0.361991 13.5842 0.341629 13.5554 0.316742 13.5374C0.291855 13.5194 0.271493 13.4866 0.271493 13.4644C0.271493 13.4422 0.261312 13.424 0.248869 13.424C0.236425 13.424 0.226244 13.4036 0.226244 13.3787C0.226244 13.3537 0.216063 13.3333 0.20362 13.3333C0.191176 13.3333 0.180995 13.3129 0.180995 13.288C0.180995 13.263 0.170814 13.2426 0.158371 13.2426C0.145928 13.2426 0.135747 13.212 0.135747 13.1746C0.135747 13.1372 0.125566 13.1066 0.113122 13.1066C0.100679 13.1066 0.0904977 13.076 0.0904977 13.0385C0.0904977 13.0011 0.0803167 12.9705 0.0678733 12.9705C0.0552941 12.9705 0.0452489 12.91 0.0452489 12.8345C0.0452489 12.7589 0.0352036 12.6984 0.0226244 12.6984C0.00819005 12.6984 0 12.5095 0 12.1769C0 11.8443 0.00819005 11.6553 0.0226244 11.6553C0.0363348 11.6553 0.0452489 11.5571 0.0452489 11.4059C0.0452489 11.2547 0.0541629 11.1565 0.0678733 11.1565C0.0810633 11.1565 0.0904977 11.0809 0.0904977 10.9751C0.0904977 10.8692 0.0999321 10.7937 0.113122 10.7937C0.126312 10.7937 0.135747 10.7181 0.135747 10.6122C0.135747 10.5064 0.145181 10.4308 0.158371 10.4308C0.17095 10.4308 0.180995 10.3704 0.180995 10.2948C0.180995 10.2192 0.191041 10.1587 0.20362 10.1587C0.216063 10.1587 0.226244 10.1077 0.226244 10.0454C0.226244 9.98299 0.236425 9.93197 0.248869 9.93197C0.261312 9.93197 0.271493 9.90136 0.271493 9.86395C0.271493 9.82653 0.281674 9.79592 0.294118 9.79592C0.306561 9.79592 0.316742 9.76531 0.316742 9.72789C0.316742 9.69048 0.326923 9.65986 0.339367 9.65986C0.35181 9.65986 0.361991 9.63946 0.361991 9.61451C0.361991 9.58957 0.372172 9.56916 0.384615 9.56916C0.397059 9.56916 0.40724 9.53855 0.40724 9.50113C0.40724 9.46372 0.417421 9.43311 0.429864 9.43311C0.442308 9.43311 0.452489 9.4127 0.452489 9.38776C0.452489 9.36281 0.46267 9.3424 0.475113 9.3424C0.487557 9.3424 0.497738 9.30159 0.497738 9.2517C0.497738 9.20181 0.507919 9.161 0.520362 9.161C0.534615 9.161 0.542986 9.00982 0.542986 8.75283C0.542986 8.49585 0.534615 8.34467 0.520362 8.34467C0.506946 8.34467 0.497738 8.26152 0.497738 8.14059C0.497738 8.01966 0.488529 7.93651 0.475113 7.93651C0.46086 7.93651 0.452489 7.78533 0.452489 7.52834C0.452489 7.27136 0.46086 7.12018 0.475113 7.12018C0.488303 7.12018 0.497738 7.0446 0.497738 6.93878C0.497738 6.83295 0.507172 6.75737 0.520362 6.75737C0.532805 6.75737 0.542986 6.71655 0.542986 6.66667C0.542986 6.61678 0.553167 6.57596 0.565611 6.57596C0.578054 6.57596 0.588235 6.53515 0.588235 6.48526C0.588235 6.43537 0.598416 6.39456 0.61086 6.39456C0.623303 6.39456 0.633484 6.36395 0.633484 6.32653C0.633484 6.28912 0.643665 6.2585 0.656109 6.2585C0.668552 6.2585 0.678733 6.21769 0.678733 6.1678C0.678733 6.11791 0.688914 6.0771 0.701357 6.0771C0.713801 6.0771 0.723982 6.05669 0.723982 6.03175C0.723982 6.0068 0.734163 5.98639 0.746606 5.98639C0.75905 5.98639 0.769231 5.96599 0.769231 5.94104C0.769231 5.9161 0.779412 5.89569 0.791855 5.89569C0.804299 5.89569 0.81448 5.87528 0.81448 5.85034C0.81448 5.8254 0.824661 5.80499 0.837104 5.80499C0.849548 5.80499 0.859729 5.78458 0.859729 5.75964C0.859729 5.73469 0.86991 5.71429 0.882353 5.71429C0.894796 5.71429 0.904977 5.69388 0.904977 5.66893C0.904977 5.64399 0.915158 5.62358 0.927602 5.62358C0.940045 5.62358 0.950226 5.60542 0.950226 5.58324C0.950226 5.56104 0.970588 5.52819 0.995475 5.5102C1.02036 5.49222 1.04072 5.46161 1.04072 5.44218C1.04072 5.42274 1.06109 5.39213 1.08597 5.37415C1.11086 5.35617 1.13122 5.32739 1.13122 5.3102C1.13122 5.29304 1.16176 5.25036 1.1991 5.21542C1.23643 5.18048 1.26697 5.1405 1.26697 5.1266C1.26697 5.09408 1.59769 4.7619 1.63007 4.7619C1.64351 4.7619 1.7041 4.71088 1.76471 4.64853C1.82532 4.58617 1.88857 4.53515 1.90529 4.53515C1.92204 4.53515 1.95038 4.51474 1.96833 4.4898C1.98627 4.46485 2.01681 4.44444 2.0362 4.44444C2.05559 4.44444 2.08613 4.42404 2.10407 4.39909C2.12201 4.37415 2.1548 4.35374 2.17695 4.35374C2.19907 4.35374 2.21719 4.34354 2.21719 4.33107C2.21719 4.31859 2.23756 4.30839 2.26244 4.30839C2.28733 4.30839 2.30769 4.29819 2.30769 4.28571C2.30769 4.27324 2.32581 4.26304 2.34794 4.26304C2.37009 4.26304 2.40287 4.24263 2.42081 4.21769C2.43876 4.19274 2.4693 4.17234 2.48869 4.17234C2.50808 4.17234 2.53862 4.15193 2.55656 4.12698C2.5745 4.10204 2.60233 4.08163 2.61842 4.08163C2.65403 4.08163 3.07692 3.66156 3.07692 3.62617C3.07692 3.61231 3.10747 3.57236 3.1448 3.53742C3.18213 3.50247 3.21267 3.4598 3.21267 3.44263C3.21267 3.42544 3.23303 3.39667 3.25792 3.37868C3.28281 3.3607 3.30317 3.32785 3.30317 3.30565C3.30317 3.28347 3.31335 3.26531 3.32579 3.26531C3.33824 3.26531 3.34842 3.24714 3.34842 3.22497C3.34842 3.20277 3.36878 3.16991 3.39367 3.15193C3.41855 3.13395 3.43891 3.10109 3.43891 3.07889C3.43891 3.05671 3.4491 3.03855 3.46154 3.03855C3.47398 3.03855 3.48416 3.01814 3.48416 2.9932C3.48416 2.96825 3.49434 2.94785 3.50679 2.94785C3.51923 2.94785 3.52941 2.92744 3.52941 2.90249C3.52941 2.87755 3.53959 2.85714 3.55204 2.85714C3.56448 2.85714 3.57466 2.83898 3.57466 2.8168C3.57466 2.7946 3.59502 2.76175 3.61991 2.74376C3.6448 2.72578 3.66516 2.69293 3.66516 2.67073C3.66516 2.64855 3.67534 2.63039 3.68778 2.63039C3.70023 2.63039 3.71041 2.59977 3.71041 2.56236C3.71041 2.52494 3.72059 2.49433 3.73303 2.49433C3.74548 2.49433 3.75566 2.47392 3.75566 2.44898C3.75566 2.42404 3.76584 2.40363 3.77828 2.40363C3.79072 2.40363 3.80091 2.37302 3.80091 2.3356C3.80091 2.29819 3.81109 2.26757 3.82353 2.26757C3.83597 2.26757 3.84615 2.24717 3.84615 2.22222C3.84615 2.19728 3.85633 2.17687 3.86878 2.17687C3.88122 2.17687 3.8914 2.16057 3.8914 2.14061C3.8914 2.12068 3.92195 2.07576 3.95928 2.04082C3.99661 2.00587 4.02715 1.96587 4.02715 1.95193C4.02715 1.91649 4.31396 1.63265 4.3498 1.63265C4.36593 1.63265 4.39382 1.61224 4.41176 1.5873C4.42971 1.56236 4.46025 1.54195 4.47964 1.54195C4.49903 1.54195 4.52957 1.52154 4.54751 1.4966C4.56667 1.46998 4.60609 1.45125 4.64301 1.45125C4.67758 1.45125 4.70588 1.44104 4.70588 1.42857C4.70588 1.4161 4.72624 1.4059 4.75113 1.4059C4.77602 1.4059 4.79638 1.39569 4.79638 1.38322C4.79638 1.37075 4.82692 1.36054 4.86425 1.36054C4.90158 1.36054 4.93213 1.35034 4.93213 1.33787C4.93213 1.32383 5.05278 1.31519 5.24887 1.31519C5.44495 1.31519 5.56561 1.30655 5.56561 1.29252C5.56561 1.28005 5.60634 1.26984 5.65611 1.26984C5.70588 1.26984 5.74661 1.25964 5.74661 1.24717C5.74661 1.23469 5.78733 1.22449 5.8371 1.22449C5.88688 1.22449 5.9276 1.21429 5.9276 1.20181C5.9276 1.18934 5.94796 1.17914 5.97285 1.17914C5.99774 1.17914 6.0181 1.16893 6.0181 1.15646C6.0181 1.14399 6.03846 1.13379 6.06335 1.13379C6.08824 1.13379 6.1086 1.12358 6.1086 1.11111C6.1086 1.09864 6.12896 1.08844 6.15385 1.08844C6.17873 1.08844 6.1991 1.07823 6.1991 1.06576C6.1991 1.05329 6.21946 1.04308 6.24434 1.04308C6.26923 1.04308 6.28959 1.03288 6.28959 1.02041C6.28959 1.00794 6.32014 0.997732 6.35747 0.997732C6.3948 0.997732 6.42534 0.987528 6.42534 0.975057C6.42534 0.962585 6.4457 0.952381 6.47059 0.952381C6.49548 0.952381 6.51584 0.942177 6.51584 0.929705C6.51584 0.917234 6.5362 0.90703 6.56109 0.90703C6.58597 0.90703 6.60633 0.896825 6.60633 0.884354C6.60633 0.871882 6.6267 0.861678 6.65158 0.861678C6.67647 0.861678 6.69683 0.851474 6.69683 0.839002C6.69683 0.826531 6.71719 0.816327 6.74208 0.816327C6.76697 0.816327 6.78733 0.806122 6.78733 0.793651C6.78733 0.781179 6.80769 0.770975 6.83258 0.770975C6.85747 0.770975 6.87783 0.760771 6.87783 0.748299C6.87783 0.735828 6.89819 0.725624 6.92308 0.725624C6.94796 0.725624 6.96833 0.71542 6.96833 0.702948C6.96833 0.690476 6.98869 0.680272 7.01357 0.680272C7.03846 0.680272 7.05882 0.670068 7.05882 0.657596C7.05882 0.645125 7.08937 0.634921 7.1267 0.634921C7.16403 0.634921 7.19457 0.624717 7.19457 0.612245C7.19457 0.599773 7.21493 0.589569 7.23982 0.589569C7.26471 0.589569 7.28507 0.579365 7.28507 0.566893C7.28507 0.554422 7.31561 0.544218 7.35294 0.544218C7.39027 0.544218 7.42081 0.534014 7.42081 0.521542C7.42081 0.50907 7.45136 0.498866 7.48869 0.498866C7.52602 0.498866 7.55656 0.488662 7.55656 0.47619C7.55656 0.463719 7.5871 0.453515 7.62443 0.453515C7.66176 0.453515 7.69231 0.443311 7.69231 0.430839C7.69231 0.418367 7.72285 0.408163 7.76018 0.408163C7.79751 0.408163 7.82805 0.397959 7.82805 0.385488C7.82805 0.373016 7.8586 0.362812 7.89593 0.362812C7.93326 0.362812 7.9638 0.352608 7.9638 0.340136C7.9638 0.327664 7.99434 0.31746 8.03167 0.31746C8.069 0.31746 8.09955 0.307256 8.09955 0.294785C8.09955 0.282313 8.14027 0.272109 8.19005 0.272109C8.23982 0.272109 8.28054 0.261905 8.28054 0.249433C8.28054 0.236961 8.31109 0.226757 8.34842 0.226757C8.38575 0.226757 8.41629 0.216553 8.41629 0.204082C8.41629 0.19161 8.46719 0.181406 8.52941 0.181406C8.59163 0.181406 8.64253 0.171202 8.64253 0.15873C8.64253 0.146259 8.69344 0.136054 8.75566 0.136054C8.81787 0.136054 8.86878 0.12585 8.86878 0.113379C8.86878 0.100907 8.91968 0.090703 8.9819 0.090703C9.04412 0.090703 9.09502 0.0804989 9.09502 0.0680272C9.09502 0.0554195 9.15536 0.0453515 9.23077 0.0453515ZM10 17.8685C14.3733 17.8685 17.9186 14.3152 17.9186 9.93197C17.9186 5.54876 14.3733 1.99546 10 1.99546C5.6267 1.99546 2.08145 5.54876 2.08145 9.93197C2.08145 14.3152 5.6267 17.8685 10 17.8685Z" fill="url(#paint1_radial_4039_53561)"/>
<path fill-rule="evenodd" clip-rule="evenodd" d="M10.0225 16.5079C13.6086 16.5079 16.5157 13.5942 16.5157 9.99999C16.5157 6.40575 13.6086 3.49205 10.0225 3.49205C6.43642 3.49205 3.52931 6.40575 3.52931 9.99999C3.52931 13.5942 6.43642 16.5079 10.0225 16.5079ZM10.0225 16.78C13.7586 16.78 16.7872 13.7445 16.7872 9.99999C16.7872 6.25547 13.7586 3.21994 10.0225 3.21994C6.28647 3.21994 3.25781 6.25547 3.25781 9.99999C3.25781 13.7445 6.28647 16.78 10.0225 16.78Z" fill="#336818"/>
<path fill-rule="evenodd" clip-rule="evenodd" d="M14.3439 8.23146H13.4837L12.8734 7.70233L12.2654 8.22925H11.5384L11.1909 7.80182H9.993L10.2961 7.42265H10.8852L10.4366 6.86698L8.87008 8.79819H8.14342L8.59681 8.23736H7.83958L7.43022 7.07517L7.02414 8.22852H6.25599L5.61084 6.41817H6.20032L6.63406 7.65111L7.06635 6.4237H7.7941L8.22529 7.64853L8.65612 6.42333H9.24742L8.59681 8.23736L8.74163 8.05828L10.0705 6.42038H10.8019L11.9077 7.78671L12.4397 7.32353L10.7561 5.85034H11.6203L14.3439 8.23146ZM13.4906 7.13634L13.0849 6.78407L13.4899 6.43475L14.3086 6.43549L13.4906 7.13634Z" fill="#2D5A13"/>
<path d="M8.64258 9.47845H11.3005H11.4028V10.4989H9.7671V11.4172H11.3005V12.4376H9.7671V13.356H11.4028V14.3764H8.64258V9.47845Z" fill="#336818"/>
<defs>
<radialGradient id="paint0_radial_4039_53561" cx="0" cy="0" r="1" gradientUnits="userSpaceOnUse" gradientTransform="translate(10.0001 11.6553) rotate(90) scale(6.21315 6.1991)">
<stop stop-color="#9CE277"/>
<stop offset="1" stop-color="#59B329"/>
</radialGradient>
<radialGradient id="paint1_radial_4039_53561" cx="0" cy="0" r="1" gradientUnits="userSpaceOnUse" gradientTransform="translate(10 10) rotate(90) scale(10)">
<stop offset="0.584898" stop-color="#7AD64A"/>
<stop offset="0.921277" stop-color="#65CC2E"/>
<stop offset="1" stop-color="#489321"/>
</radialGradient>
</defs>
</svg>
