<svg width="20" height="21" viewBox="0 0 20 21" fill="none" xmlns="http://www.w3.org/2000/svg">
<circle cx="10" cy="10" r="10" transform="rotate(90 10 10)" fill="white"/>
<path fill-rule="evenodd" clip-rule="evenodd" d="M16.2933 4.25737L15.7454 4.80652C18.4551 7.77668 18.4551 12.3288 15.7454 15.2989L16.2933 15.8481C19.309 12.5709 19.309 7.52187 16.2933 4.24455V4.25737Z" fill="#2C253A"/>
<path fill-rule="evenodd" clip-rule="evenodd" d="M4.76947 4.30502C7.73279 1.58893 12.2744 1.58893 15.2377 4.30502L15.7856 3.75587C12.5158 0.733169 7.47857 0.733169 4.2088 3.75587L4.76947 4.30502Z" fill="#2C253A"/>
<path fill-rule="evenodd" clip-rule="evenodd" d="M4.25815 15.3044C1.55178 12.335 1.55178 7.78695 4.25815 4.81752L3.71026 4.26837C0.694527 7.54569 0.694527 12.5946 3.71026 15.8719L4.25815 15.3044Z" fill="#2C253A"/>
<path fill-rule="evenodd" clip-rule="evenodd" d="M15.2322 15.8114C12.2689 18.5275 7.72731 18.5275 4.76399 15.8114L4.21611 16.3606C7.48588 19.3833 12.5231 19.3833 15.7929 16.3606L15.2322 15.8114Z" fill="#2C253A"/>
<path fill-rule="evenodd" clip-rule="evenodd" d="M9.99809 0.83985C4.92067 0.842962 0.806971 4.97091 0.810076 10.0601C0.813181 15.1492 4.93162 19.2724 10.009 19.2693C15.083 19.2664 19.195 15.1437 19.1971 10.0582C19.191 4.96982 15.0748 0.847355 9.99809 0.845342V0.83985ZM9.99809 20.0601C4.48802 20.0591 0.0218537 15.5812 0.0229494 10.0582C0.0240452 4.53526 4.49167 0.0589605 10.0017 0.0600588C15.5105 0.0611571 19.976 4.53672 19.9769 10.0582C19.9709 15.5796 15.5067 20.054 9.99809 20.0601Z" fill="#2C253A"/>
<path fill-rule="evenodd" clip-rule="evenodd" d="M11.6602 8.6616C11.6602 9.7599 9.94718 9.62627 9.40295 9.62627V7.69144C9.94718 7.69144 11.6602 7.51937 11.6602 8.6616ZM12.1077 11.6654C12.1077 12.8663 10.0549 12.729 9.40112 12.729V10.5983C10.0549 10.6001 12.1077 10.4116 12.1077 11.6654ZM13.4591 8.22777C13.3495 7.08188 12.3633 6.69748 11.116 6.58033V5.00061H10.1517V6.54921C9.89787 6.54921 9.63854 6.54921 9.38103 6.55836V5.00061H8.42223V6.58948H6.46812V7.62371C6.46812 7.62371 7.18036 7.6109 7.16941 7.62371C7.43641 7.59424 7.67857 7.78205 7.71729 8.04839V12.3995C7.7056 12.5882 7.54361 12.7315 7.35532 12.72C7.35423 12.72 7.35313 12.72 7.35203 12.7198C7.36482 12.7308 6.65074 12.7198 6.65074 12.7198L6.45898 13.8749H8.4058V15.4894H9.37007V13.8987H10.1408V15.482H11.1069V13.8858C12.7359 13.787 13.8719 13.3843 14.0143 11.8558C14.1294 10.6257 13.5523 10.0766 12.63 9.85509C13.1907 9.56953 13.5431 9.06614 13.4591 8.22777Z" fill="#EBAA60"/>
</svg>
