<svg width="20" height="21" viewBox="0 0 20 21" fill="none" xmlns="http://www.w3.org/2000/svg">
<circle cx="10" cy="10" r="10" transform="rotate(90 10 10)" fill="white"/>
<path fill-rule="evenodd" clip-rule="evenodd" d="M16.2934 4.25737L15.7455 4.80652C18.4552 7.77668 18.4552 12.3288 15.7455 15.2989L16.2934 15.8481C19.3092 12.5709 19.3092 7.52187 16.2934 4.24455V4.25737Z" fill="#2C253A"/>
<path fill-rule="evenodd" clip-rule="evenodd" d="M4.76959 4.30502C7.73291 1.58893 12.2745 1.58893 15.2378 4.30502L15.7857 3.75587C12.5159 0.733169 7.47869 0.733169 4.20892 3.75587L4.76959 4.30502Z" fill="#2C253A"/>
<path fill-rule="evenodd" clip-rule="evenodd" d="M4.25827 15.3044C1.5519 12.335 1.5519 7.78695 4.25827 4.81752L3.71038 4.26837C0.694649 7.54569 0.694649 12.5946 3.71038 15.8719L4.25827 15.3044Z" fill="#2C253A"/>
<path fill-rule="evenodd" clip-rule="evenodd" d="M15.2323 15.8114C12.269 18.5275 7.72743 18.5275 4.76411 15.8114L4.21623 16.3606C7.486 19.3833 12.5232 19.3833 15.793 16.3606L15.2323 15.8114Z" fill="#2C253A"/>
<path fill-rule="evenodd" clip-rule="evenodd" d="M9.99821 0.83985C4.92079 0.842962 0.807093 4.97091 0.810198 10.0601C0.813303 15.1492 4.93175 19.2724 10.0092 19.2693C15.0831 19.2664 19.1952 15.1437 19.1972 10.0582C19.1912 4.96982 15.0749 0.847355 9.99821 0.845342V0.83985ZM9.99821 20.0601C4.48814 20.0591 0.0219757 15.5812 0.0230715 10.0582C0.0241673 4.53526 4.49179 0.0589605 10.0019 0.0600588C15.5107 0.0611571 19.9761 4.53672 19.977 10.0582C19.971 15.5796 15.5068 20.054 9.99821 20.0601Z" fill="#2C253A"/>
<path fill-rule="evenodd" clip-rule="evenodd" d="M11.6601 8.6616C11.6601 9.7599 9.94706 9.62627 9.40282 9.62627V7.69144C9.94706 7.69144 11.6601 7.51937 11.6601 8.6616ZM12.1075 11.6654C12.1075 12.8663 10.0548 12.729 9.401 12.729V10.5983C10.0548 10.6001 12.1075 10.4116 12.1075 11.6654ZM13.459 8.22777C13.3494 7.08188 12.3632 6.69748 11.1159 6.58033V5.00061H10.1516V6.54921C9.89775 6.54921 9.63841 6.54921 9.38091 6.55836V5.00061H8.42211V6.58948H6.46799V7.62371C6.46799 7.62371 7.18024 7.6109 7.16928 7.62371C7.43629 7.59424 7.67845 7.78205 7.71717 8.04839V12.3995C7.70548 12.5882 7.54349 12.7315 7.3552 12.72C7.3541 12.72 7.35301 12.72 7.35191 12.7198C7.3647 12.7308 6.65062 12.7198 6.65062 12.7198L6.45886 13.8749H8.40568V15.4894H9.36995V13.8987H10.1406V15.482H11.1067V13.8858C12.7358 13.787 13.8717 13.3843 14.0142 11.8558C14.1292 10.6257 13.5521 10.0766 12.6299 9.85509C13.1905 9.56953 13.543 9.06614 13.459 8.22777Z" fill="#EBAA60"/>
</svg>
