<svg width="21" height="21" viewBox="0 0 21 21" fill="none" xmlns="http://www.w3.org/2000/svg">
<path d="M18.2574 9.20471C18.2574 13.9199 14.4351 17.7422 9.71991 17.7422C5.00476 17.7422 1.18237 13.9199 1.18237 9.20471C1.18237 4.48956 5.00476 0.667175 9.71991 0.667175C14.4351 0.667175 18.2574 4.48956 18.2574 9.20471Z" fill="#DC3C7A"/>
<path fill-rule="evenodd" clip-rule="evenodd" d="M9.71991 16.7422C13.8828 16.7422 17.2574 13.3676 17.2574 9.20471C17.2574 5.04185 13.8828 1.66718 9.71991 1.66718C5.55704 1.66718 2.18237 5.04185 2.18237 9.20471C2.18237 13.3676 5.55704 16.7422 9.71991 16.7422ZM9.71991 17.7422C14.4351 17.7422 18.2574 13.9199 18.2574 9.20471C18.2574 4.48956 14.4351 0.667175 9.71991 0.667175C5.00476 0.667175 1.18237 4.48956 1.18237 9.20471C1.18237 13.9199 5.00476 17.7422 9.71991 17.7422Z" fill="black"/>
<path fill-rule="evenodd" clip-rule="evenodd" d="M1.86628 9.09175L3.17622 10.4017C3.22474 10.0367 3.29632 9.67896 3.38945 9.33005L1.52539 7.46604L2.23249 6.75893L3.74737 8.27377C5.02918 5.17793 8.07967 3 11.6389 3C16.354 3 20.1764 6.82239 20.1764 11.5375C20.1764 16.2527 16.354 20.0751 11.6389 20.0751C11.2646 20.0751 10.896 20.051 10.5344 20.0043C9.98325 20.0505 9.40615 20.0751 8.81178 20.0751C8.5695 20.0751 8.33008 20.071 8.09412 20.063C5.49856 19.9754 3.32107 19.4178 2.34432 18.6503C1.98913 18.3712 1.79272 18.0643 1.79272 17.7422C1.79272 17.0206 2.77857 16.3755 4.32706 15.9476C3.58222 14.7153 3.1401 13.2796 3.10375 11.7434L1.15918 9.79887L1.86628 9.09175ZM5.3608 15.7104C6.37987 15.5188 7.5574 15.4094 8.81178 15.4094C12.6883 15.4094 15.8308 16.4539 15.8308 17.7422C15.8308 17.763 15.83 17.7838 15.8284 17.8045C17.8473 16.4521 19.1764 14.15 19.1764 11.5375C19.1764 7.37466 15.8017 4 11.6389 4C7.47599 4 4.10132 7.37466 4.10132 11.5375C4.10132 13.0807 4.56507 14.5156 5.3608 15.7104Z" fill="black"/>
<path d="M19.2265 11.5375C19.2265 15.7281 15.8294 19.1252 11.6389 19.1252C7.44836 19.1252 4.05127 15.7281 4.05127 11.5375C4.05127 7.34702 7.44836 3.94992 11.6389 3.94992C15.8294 3.94992 19.2265 7.34702 19.2265 11.5375Z" fill="white"/>
<path d="M19.2265 11.5375C19.2265 15.7281 15.8294 19.1252 11.6389 19.1252C7.44836 19.1252 4.05127 15.7281 4.05127 11.5375C4.05127 7.34702 7.44836 3.94992 11.6389 3.94992C15.8294 3.94992 19.2265 7.34702 19.2265 11.5375Z" fill="white"/>
<path d="M19.2265 11.5375C19.2265 15.7281 15.8294 19.1252 11.6389 19.1252C7.44836 19.1252 4.05127 15.7281 4.05127 11.5375C4.05127 7.34702 7.44836 3.94992 11.6389 3.94992C15.8294 3.94992 19.2265 7.34702 19.2265 11.5375Z" fill="white"/>
<path d="M7.49935 13.488H6.42212L5.7627 9.92409H6.87516L7.11678 12.0081H7.14195L7.39867 9.92409H8.38026L8.65711 12.0081H8.67222L8.9088 9.92409H9.97093L9.30144 13.488H8.22421L7.86681 11.5047H7.85171L7.49935 13.488Z" fill="black"/>
<path d="M10.2516 9.92409H12.1543V10.8855H11.2936V11.2429H12.0738V12.1339H11.2936V12.5114H12.2198V13.488H10.2516V9.92409Z" fill="black"/>
<path d="M14.046 13.488H12.9688V10.8503H12.3396V9.92409H14.6752V10.8503H14.046V13.488Z" fill="black"/>
<path d="M16.5069 12.1238H16.0236V13.488H14.9363V9.92409H16.0236V11.1423H16.5069V9.92409H17.5941V13.488H16.5069V12.1238Z" fill="black"/>
</svg>
