<svg width="20" height="20" viewBox="0 0 20 20" fill="none" xmlns="http://www.w3.org/2000/svg">
<rect width="20" height="20" fill="#0E1736"/>
<path fill-rule="evenodd" clip-rule="evenodd" d="M13.221 4.60906C13.5019 4.40915 14.212 3.92525 14.2773 3.88928C14.3618 3.84275 14.5222 3.83999 14.6178 3.88343C14.6972 3.91946 14.7963 4.03141 14.818 4.1094C14.8596 4.25913 14.8216 4.41196 14.7194 4.50635C14.6643 4.55724 14.09 4.95936 14.0511 4.97429C14.0394 4.97877 14.0299 4.98762 14.0299 4.99396C14.0299 5.0003 14.1801 5.1147 14.3636 5.24822C14.7264 5.51208 14.7715 5.55194 14.8091 5.64197C14.84 5.71597 14.8415 5.86309 14.812 5.93369C14.7792 6.0122 14.6902 6.10603 14.6171 6.13925C14.5458 6.17164 14.3802 6.17934 14.312 6.15342C14.2891 6.14471 13.9988 5.94086 13.6667 5.70042L13.6342 5.67687C13.1347 5.31518 13.0144 5.22802 12.9854 5.11703C12.9763 5.0818 12.9763 5.04416 12.9763 4.99457L12.9763 4.9844C12.9763 4.86413 12.9804 4.84724 13.0253 4.78335C13.0526 4.7443 13.1388 4.66759 13.221 4.60906ZM7.40838 5.25219C7.37361 4.80793 7.65933 4.39398 8.08669 4.26952C8.21273 4.23281 8.46633 4.23037 8.59908 4.2646C8.86032 4.33196 9.09822 4.53403 9.21028 4.78372C9.38127 5.16474 9.29768 5.58329 8.99305 5.87146C8.8157 6.03922 8.60564 6.12099 8.35208 6.12099C8.08278 6.12099 7.88017 6.03763 7.69082 5.84894C7.51734 5.67605 7.42654 5.48423 7.40838 5.25219ZM17.4053 7.5953C17.4575 7.53923 17.563 7.47576 17.6534 7.44612C17.7594 7.41137 17.9525 7.4273 18.0594 7.47959C18.1754 7.53638 18.2762 7.63731 18.3336 7.75424C18.3751 7.83867 18.3807 7.86727 18.3806 7.99482C18.3805 8.10778 18.3731 8.15547 18.3469 8.21196C18.3284 8.25177 18.0586 8.68876 17.7473 9.18307L17.1814 10.0818L17.2087 10.124C17.2237 10.1472 17.472 10.51 17.7604 10.9302L17.8932 11.1235C18.2982 11.7133 18.3343 11.7658 18.3521 11.824C18.3538 11.8296 18.3554 11.8354 18.3571 11.8417C18.3588 11.8481 18.3607 11.8551 18.3632 11.8633C18.4613 12.1938 18.2455 12.5335 17.9024 12.5888C17.7347 12.6158 17.535 12.553 17.4202 12.4371C17.3911 12.4078 17.1687 12.0947 16.9258 11.7414C16.683 11.3882 16.4391 11.034 16.3839 10.9543C16.1004 10.5454 15.9726 10.3467 15.9495 10.279C15.9132 10.1724 15.9257 9.94904 15.9731 9.85748C16.0034 9.79887 16.2111 9.46726 17.1701 7.94657C17.2761 7.77848 17.3819 7.62041 17.4053 7.5953ZM7.15089 14.6571C6.94573 14.4769 6.98911 14.1398 7.23234 14.024C7.29907 13.9922 7.33441 13.9858 7.41919 13.9901L7.42067 13.9902C7.45003 13.9916 7.47196 13.9927 7.49339 13.9966C7.55672 14.0081 7.61566 14.0439 7.84877 14.1853L7.85287 14.1878C8.68915 14.6952 9.58974 15.0175 10.5011 15.1356C11.8603 15.3118 13.3581 14.9979 14.625 14.2714C14.7179 14.2182 14.8445 14.1399 14.9065 14.0975C15.0462 14.0018 15.0868 13.9862 15.1975 13.9862C15.3036 13.9862 15.3867 14.0185 15.4588 14.0876C15.6301 14.2518 15.6208 14.5203 15.4385 14.6697C15.33 14.7586 14.9429 14.9911 14.6893 15.1196C13.8338 15.5532 13.0128 15.7998 12.0274 15.9191C11.9091 15.9334 11.6557 15.9403 11.2634 15.94C10.7463 15.9396 10.6446 15.9353 10.4109 15.9035C9.53147 15.7839 8.75588 15.5393 7.95802 15.1299C7.61072 14.9518 7.23741 14.733 7.15089 14.6571Z" fill="#FEFEFF"/>
<path d="M0.732167 7.44162C0.69461 7.45055 0.619029 7.4882 0.564213 7.52528C0.387993 7.64449 0.298001 7.82771 0.314407 8.03382C0.319393 8.09655 0.362225 8.26718 0.419662 8.45322C0.514061 8.75898 0.593744 9.02067 0.975539 10.2788C1.07756 10.615 1.2163 11.0709 1.28387 11.2921C1.35146 11.5133 1.42104 11.7449 1.43851 11.8068C1.5008 12.0274 1.60907 12.1638 1.78685 12.2459C1.85915 12.2792 1.90322 12.2881 1.99876 12.2884C2.20208 12.2892 2.36114 12.213 2.47024 12.0627C2.50597 12.0134 2.68193 11.592 2.99718 10.8006C3.25749 10.1471 3.47479 9.61214 3.48007 9.61184C3.48534 9.61153 3.51568 9.68187 3.54746 9.76811C4.10462 11.2799 4.35256 11.9457 4.37542 11.9917C4.42246 12.0862 4.56069 12.2102 4.66399 12.2504C4.80249 12.3044 4.98396 12.3026 5.10586 12.2461C5.2203 12.193 5.33604 12.0875 5.38412 11.9924C5.40442 11.9523 5.62133 11.2426 5.86615 10.4155C6.11095 9.58837 6.36599 8.72819 6.43288 8.50401C6.55012 8.11113 6.55426 8.09161 6.54753 7.96345C6.53565 7.7369 6.42386 7.57224 6.21568 7.47464C6.13706 7.43779 6.10434 7.43204 5.97964 7.4331C5.81856 7.43446 5.73929 7.46105 5.62579 7.5518C5.48838 7.66166 5.47823 7.68773 5.17359 8.71264C5.01749 9.23786 4.87505 9.7201 4.85708 9.78428C4.8391 9.84845 4.82271 9.89912 4.82063 9.89687C4.81732 9.89328 4.68869 9.54768 4.15159 8.09936C4.01476 7.73038 3.96176 7.62949 3.86418 7.5522C3.75049 7.46216 3.66282 7.43313 3.50265 7.43245C3.37862 7.43194 3.34476 7.438 3.26627 7.4748C3.16209 7.52364 3.04518 7.63266 2.99918 7.72387C2.98203 7.75789 2.77018 8.28081 2.52842 8.88593L2.08887 9.98614L2.05288 9.87512C2.0331 9.81405 1.882 9.31896 1.71709 8.7749C1.55218 8.23085 1.39836 7.75094 1.37525 7.70845C1.25994 7.49632 0.983871 7.38179 0.732167 7.44162Z" fill="#CDA810"/>
<path d="M8.1832 7.44637C8.00571 7.50264 7.86484 7.63005 7.80589 7.78759C7.7729 7.87578 7.77271 7.88946 7.77689 9.8818L7.78109 11.8872L7.8213 11.9676C7.86957 12.0642 7.9862 12.1859 8.0728 12.23C8.36481 12.379 8.72127 12.2512 8.86421 11.9463L8.907 11.8551V9.8606V7.86614L8.85643 7.76159C8.77752 7.59844 8.67184 7.50421 8.512 7.45446C8.39997 7.41959 8.27718 7.41656 8.1832 7.44637Z" fill="#CDA810"/>
<path d="M12.1239 7.44116C11.2566 7.56097 10.5349 8.15906 10.2674 8.97966L10.2625 8.99478C10.2414 9.05948 10.2247 9.11065 10.2115 9.16271C10.1616 9.35957 10.1616 9.56909 10.1616 10.571L10.1616 10.6326V11.8551L10.2079 11.9553C10.264 12.0768 10.3753 12.1861 10.5039 12.246C10.5815 12.2821 10.6172 12.2886 10.7326 12.2879C10.8463 12.2872 10.8843 12.2799 10.9583 12.2444C11.0856 12.1835 11.169 12.1057 11.2323 11.989L11.2875 11.8872L11.2962 10.697L11.2974 10.533C11.3039 9.62811 11.3051 9.45974 11.3628 9.31372C11.376 9.28034 11.3922 9.24813 11.412 9.20856C11.417 9.19856 11.4223 9.18809 11.4278 9.17701C11.512 9.00726 11.7138 8.79589 11.8701 8.71357C12.2401 8.51879 12.6283 8.52352 12.9707 8.72697C13.1951 8.86025 13.3583 9.05625 13.4558 9.30934L13.5071 9.4424L13.5158 10.6407C13.522 11.4905 13.5299 11.8546 13.5432 11.8926C13.5745 11.9823 13.6386 12.0798 13.7066 12.1412C13.9895 12.3968 14.4311 12.3175 14.6019 11.9804L14.6491 11.8872L14.6538 10.6729C14.6591 9.32235 14.6574 9.29512 14.5526 8.97473C14.3063 8.22268 13.6508 7.63515 12.8757 7.47183C12.6929 7.43331 12.2975 7.41717 12.1239 7.44116Z" fill="#CDA810"/>
</svg>
