<svg width="20" height="20" viewBox="0 0 20 20" fill="none" xmlns="http://www.w3.org/2000/svg">
<path fill-rule="evenodd" clip-rule="evenodd" d="M8.73016 0.0793651C8.73016 0.123492 8.51849 0.15873 8.25397 0.15873C7.98944 0.15873 7.77778 0.193968 7.77778 0.238095C7.77778 0.281746 7.63492 0.31746 7.46032 0.31746C7.28571 0.31746 7.14286 0.353175 7.14286 0.396825C7.14286 0.440476 7.03571 0.47619 6.90476 0.47619C6.77381 0.47619 6.66667 0.511905 6.66667 0.555556C6.66667 0.599206 6.55952 0.634921 6.42857 0.634921C6.29762 0.634921 6.19048 0.670635 6.19048 0.714286C6.19048 0.757937 6.11905 0.793651 6.03175 0.793651C5.94444 0.793651 5.87302 0.829365 5.87302 0.873016C5.87302 0.916667 5.80159 0.952381 5.71429 0.952381C5.62698 0.952381 5.55556 0.988095 5.55556 1.03175C5.55556 1.0754 5.48413 1.11111 5.39683 1.11111C5.30952 1.11111 5.2381 1.14683 5.2381 1.19048C5.2381 1.23413 5.17452 1.26984 5.0969 1.26984C5.01921 1.26984 4.90421 1.34127 4.84127 1.42857C4.77833 1.51587 4.67119 1.5873 4.60317 1.5873C4.53516 1.5873 4.42802 1.65873 4.36508 1.74603C4.30214 1.83333 4.20222 1.90476 4.14294 1.90476C4.08365 1.90476 3.89794 2.04762 3.73016 2.22222C3.56238 2.39683 3.38571 2.53968 3.33746 2.53968C3.22333 2.53968 2.53968 3.22333 2.53968 3.33746C2.53968 3.38571 2.39683 3.56238 2.22222 3.73016C2.04762 3.89794 1.90476 4.08365 1.90476 4.14294C1.90476 4.20222 1.83333 4.30214 1.74603 4.36508C1.65873 4.42802 1.5873 4.53516 1.5873 4.60317C1.5873 4.67119 1.51587 4.77833 1.42857 4.84127C1.34127 4.90421 1.26984 5.01921 1.26984 5.0969C1.26984 5.17452 1.23413 5.2381 1.19048 5.2381C1.14683 5.2381 1.11111 5.30952 1.11111 5.39683C1.11111 5.48413 1.0754 5.55556 1.03175 5.55556C0.988095 5.55556 0.952381 5.62698 0.952381 5.71429C0.952381 5.80159 0.916667 5.87302 0.873016 5.87302C0.829365 5.87302 0.793651 5.94444 0.793651 6.03175C0.793651 6.11905 0.757937 6.19048 0.714286 6.19048C0.670635 6.19048 0.634921 6.29762 0.634921 6.42857C0.634921 6.55952 0.599206 6.66667 0.555556 6.66667C0.511905 6.66667 0.47619 6.77381 0.47619 6.90476C0.47619 7.03571 0.440476 7.14286 0.396825 7.14286C0.353175 7.14286 0.31746 7.28571 0.31746 7.46032C0.31746 7.63492 0.281746 7.77778 0.238095 7.77778C0.193968 7.77778 0.15873 7.98944 0.15873 8.25397C0.15873 8.51849 0.123492 8.73016 0.0793651 8.73016C0.0302381 8.73016 0 9.15341 0 9.84127V10.9524H5.63492H11.2698V10V9.04762H6.5873C1.9577 9.04762 1.90476 9.04579 1.90476 8.88889C1.90476 8.80159 1.94048 8.73016 1.98413 8.73016C2.02778 8.73016 2.06349 8.55159 2.06349 8.33333C2.06349 8.11508 2.09921 7.93651 2.14286 7.93651C2.18651 7.93651 2.22222 7.82937 2.22222 7.69841C2.22222 7.56746 2.25794 7.46032 2.30159 7.46032C2.34524 7.46032 2.38095 7.35317 2.38095 7.22222C2.38095 7.09127 2.41667 6.98413 2.46032 6.98413C2.50397 6.98413 2.53968 6.9127 2.53968 6.8254C2.53968 6.7381 2.5754 6.66667 2.61905 6.66667C2.6627 6.66667 2.69841 6.59524 2.69841 6.50794C2.69841 6.42064 2.73413 6.34921 2.77778 6.34921C2.82143 6.34921 2.85714 6.27778 2.85714 6.19048C2.85714 6.10317 2.89286 6.03175 2.93651 6.03175C2.98016 6.03175 3.01587 5.96817 3.01587 5.89056C3.01587 5.81286 3.0873 5.69786 3.1746 5.63492C3.2619 5.57198 3.33333 5.47127 3.33333 5.41111C3.33333 5.35103 3.44048 5.20167 3.57143 5.07937C3.70238 4.95706 3.80952 4.81691 3.80952 4.76802C3.80952 4.65214 4.65214 3.80952 4.76802 3.80952C4.8169 3.80952 4.95706 3.70238 5.07937 3.57143C5.20167 3.44048 5.35103 3.33333 5.41111 3.33333C5.47127 3.33333 5.57198 3.2619 5.63492 3.1746C5.69786 3.0873 5.81286 3.01587 5.89055 3.01587C5.96817 3.01587 6.03175 2.98016 6.03175 2.93651C6.03175 2.89286 6.10317 2.85714 6.19048 2.85714C6.27778 2.85714 6.34921 2.82143 6.34921 2.77778C6.34921 2.73413 6.42064 2.69841 6.50794 2.69841C6.59524 2.69841 6.66667 2.6627 6.66667 2.61905C6.66667 2.5754 6.7381 2.53968 6.8254 2.53968C6.9127 2.53968 6.98413 2.50397 6.98413 2.46032C6.98413 2.41667 7.09127 2.38095 7.22222 2.38095C7.35317 2.38095 7.46032 2.34524 7.46032 2.30159C7.46032 2.25794 7.56746 2.22222 7.69841 2.22222C7.82937 2.22222 7.93651 2.18651 7.93651 2.14286C7.93651 2.09921 8.11508 2.06349 8.33333 2.06349C8.55159 2.06349 8.73016 2.02778 8.73016 1.98413C8.73016 1.93452 9.20635 1.90476 10 1.90476C10.7937 1.90476 11.2698 1.93452 11.2698 1.98413C11.2698 2.02778 11.4484 2.06349 11.6667 2.06349C11.8849 2.06349 12.0635 2.09921 12.0635 2.14286C12.0635 2.18651 12.1706 2.22222 12.3016 2.22222C12.4325 2.22222 12.5397 2.25794 12.5397 2.30159C12.5397 2.34524 12.6468 2.38095 12.7778 2.38095C12.9087 2.38095 13.0159 2.41667 13.0159 2.46032C13.0159 2.50397 13.0873 2.53968 13.1746 2.53968C13.2619 2.53968 13.3333 2.5754 13.3333 2.61905C13.3333 2.6627 13.4048 2.69841 13.4921 2.69841C13.5794 2.69841 13.6508 2.73413 13.6508 2.77778C13.6508 2.82802 14.2328 2.85714 15.2381 2.85714C16.6282 2.85714 16.8254 2.84167 16.8254 2.73246C16.8254 2.58603 16.6389 2.38095 16.5058 2.38095C16.4547 2.38095 16.3128 2.27381 16.1905 2.14286C16.0682 2.0119 15.9188 1.90476 15.8587 1.90476C15.7986 1.90476 15.6979 1.83333 15.6349 1.74603C15.572 1.65873 15.4648 1.5873 15.3968 1.5873C15.3288 1.5873 15.2217 1.51587 15.1587 1.42857C15.0958 1.34127 14.9808 1.26984 14.9031 1.26984C14.8255 1.26984 14.7619 1.23413 14.7619 1.19048C14.7619 1.14683 14.6905 1.11111 14.6032 1.11111C14.5159 1.11111 14.4444 1.0754 14.4444 1.03175C14.4444 0.988095 14.373 0.952381 14.2857 0.952381C14.1984 0.952381 14.127 0.916667 14.127 0.873016C14.127 0.829365 14.0556 0.793651 13.9683 0.793651C13.881 0.793651 13.8095 0.757937 13.8095 0.714286C13.8095 0.670635 13.7024 0.634921 13.5714 0.634921C13.4405 0.634921 13.3333 0.599206 13.3333 0.555556C13.3333 0.511905 13.2262 0.47619 13.0952 0.47619C12.9643 0.47619 12.8571 0.440476 12.8571 0.396825C12.8571 0.353175 12.7143 0.31746 12.5397 0.31746C12.3651 0.31746 12.2222 0.281746 12.2222 0.238095C12.2222 0.193968 12.0106 0.15873 11.746 0.15873C11.4815 0.15873 11.2698 0.123492 11.2698 0.0793651C11.2698 0.0297619 10.7937 0 10 0C9.20635 0 8.73016 0.0297619 8.73016 0.0793651Z" fill="#CF0D63"/>
<path d="M0.476074 13.0953C0.476074 13.2262 0.511789 13.3334 0.555439 13.3334C0.59909 13.3334 0.634804 13.4405 0.634804 13.5715C0.634804 13.7024 0.670519 13.8096 0.714169 13.8096C0.75782 13.8096 0.793535 13.881 0.793535 13.9683C0.793535 14.0556 0.829249 14.127 0.8729 14.127C0.91655 14.127 0.952265 14.1984 0.952265 14.2857C0.952265 14.3731 0.987979 14.4445 1.03163 14.4445C1.07528 14.4445 1.11099 14.5159 1.11099 14.6032C1.11099 14.6905 1.14671 14.7619 1.19036 14.7619C1.23401 14.7619 1.26973 14.8255 1.26973 14.9031C1.26973 14.9808 1.34115 15.0958 1.42846 15.1588C1.51576 15.2217 1.58719 15.3288 1.58719 15.3969C1.58719 15.4649 1.65861 15.572 1.74592 15.635C1.83322 15.6979 1.90465 15.7978 1.90465 15.8571C1.90465 15.9164 2.0475 16.1021 2.22211 16.2699C2.39671 16.4377 2.53957 16.6143 2.53957 16.6626C2.53957 16.7767 3.22322 17.4604 3.33734 17.4604C3.3856 17.4604 3.56226 17.6032 3.73004 17.7778C3.89782 17.9524 4.08353 18.0953 4.14282 18.0953C4.20211 18.0953 4.30203 18.1667 4.36496 18.254C4.4279 18.3413 4.53504 18.4127 4.60306 18.4127C4.67107 18.4127 4.77822 18.4842 4.84115 18.5715C4.90409 18.6588 5.01909 18.7302 5.09679 18.7302C5.17441 18.7302 5.23798 18.7659 5.23798 18.8096C5.23798 18.8532 5.30941 18.8889 5.39671 18.8889C5.48401 18.8889 5.55544 18.9246 5.55544 18.9683C5.55544 19.0119 5.62687 19.0477 5.71417 19.0477C5.80147 19.0477 5.8729 19.0834 5.8729 19.127C5.8729 19.1707 5.94433 19.2064 6.03163 19.2064C6.11893 19.2064 6.19036 19.2421 6.19036 19.2857C6.19036 19.3294 6.2975 19.3651 6.42846 19.3651C6.55941 19.3651 6.66655 19.4008 6.66655 19.4445C6.66655 19.4881 6.77369 19.5238 6.90465 19.5238C7.0356 19.5238 7.14274 19.5596 7.14274 19.6032C7.14274 19.6469 7.2856 19.6826 7.4602 19.6826C7.6348 19.6826 7.77766 19.7183 7.77766 19.7619C7.77766 19.8061 7.98933 19.8413 8.25385 19.8413C8.51838 19.8413 8.73004 19.8765 8.73004 19.9207C8.73004 19.9703 9.20623 20 9.99988 20C10.7935 20 11.2697 19.9703 11.2697 19.9207C11.2697 19.8765 11.4814 19.8413 11.7459 19.8413C12.0104 19.8413 12.2221 19.8061 12.2221 19.7619C12.2221 19.7183 12.365 19.6826 12.5396 19.6826C12.7142 19.6826 12.857 19.6469 12.857 19.6032C12.857 19.5596 12.9642 19.5238 13.0951 19.5238C13.2261 19.5238 13.3332 19.4881 13.3332 19.4445C13.3332 19.4008 13.4404 19.3651 13.5713 19.3651C13.7023 19.3651 13.8094 19.3294 13.8094 19.2857C13.8094 19.2421 13.8808 19.2064 13.9681 19.2064C14.0554 19.2064 14.1269 19.1707 14.1269 19.127C14.1269 19.0834 14.1983 19.0477 14.2856 19.0477C14.3729 19.0477 14.4443 19.0119 14.4443 18.9683C14.4443 18.9246 14.5158 18.8889 14.6031 18.8889C14.6904 18.8889 14.7618 18.8532 14.7618 18.8096C14.7618 18.7659 14.8254 18.7302 14.903 18.7302C14.9807 18.7302 15.0957 18.6588 15.1586 18.5715C15.2216 18.4842 15.3287 18.4127 15.3967 18.4127C15.4647 18.4127 15.5719 18.3413 15.6348 18.254C15.6977 18.1667 15.7985 18.0953 15.8586 18.0953C15.9187 18.0953 16.0681 17.9881 16.1904 17.8572C16.3127 17.7262 16.4527 17.6191 16.5015 17.6191C16.617 17.6191 17.6189 16.6172 17.6189 16.5016C17.6189 16.4528 17.7261 16.3128 17.857 16.1905C17.988 16.0682 18.0951 15.9188 18.0951 15.8588C18.0951 15.7986 18.1666 15.6979 18.2539 15.635C18.3412 15.572 18.4126 15.4649 18.4126 15.3969C18.4126 15.3288 18.484 15.2217 18.5713 15.1588C18.6586 15.0958 18.73 14.9808 18.73 14.9031C18.73 14.8255 18.7658 14.7619 18.8094 14.7619C18.8531 14.7619 18.8888 14.6905 18.8888 14.6032C18.8888 14.5159 18.9245 14.4445 18.9681 14.4445C19.0118 14.4445 19.0475 14.3731 19.0475 14.2857C19.0475 14.1984 19.0832 14.127 19.1269 14.127C19.1705 14.127 19.2062 14.0556 19.2062 13.9683C19.2062 13.881 19.2419 13.8096 19.2856 13.8096C19.3292 13.8096 19.365 13.7381 19.365 13.6508C19.365 13.4935 19.312 13.4921 13.4126 13.4921H7.4602V14.3311C7.4602 14.9524 7.48965 15.1996 7.57361 15.2834C7.66893 15.3788 8.34909 15.3969 11.8593 15.3969C14.1541 15.3969 16.0316 15.4155 16.0316 15.4383C16.0316 15.5207 15.1598 16.3492 15.0731 16.3492C15.0242 16.3492 14.8841 16.4564 14.7618 16.5873C14.6395 16.7183 14.4823 16.8254 14.4125 16.8254C14.3427 16.8254 14.2856 16.8611 14.2856 16.9048C14.2856 16.9484 14.2142 16.9842 14.1269 16.9842C14.0396 16.9842 13.9681 17.0199 13.9681 17.0635C13.9681 17.1072 13.8967 17.1429 13.8094 17.1429C13.7221 17.1429 13.6507 17.1786 13.6507 17.2223C13.6507 17.2659 13.5792 17.3016 13.4919 17.3016C13.4046 17.3016 13.3332 17.3373 13.3332 17.381C13.3332 17.4246 13.2618 17.4604 13.1745 17.4604C13.0872 17.4604 13.0158 17.4961 13.0158 17.5397C13.0158 17.5834 12.9086 17.6191 12.7777 17.6191C12.6467 17.6191 12.5396 17.6548 12.5396 17.6984C12.5396 17.7421 12.4324 17.7778 12.3015 17.7778C12.1705 17.7778 12.0634 17.8135 12.0634 17.8572C12.0634 17.9008 11.8848 17.9365 11.6666 17.9365C11.4483 17.9365 11.2697 17.9723 11.2697 18.0159C11.2697 18.0655 10.7935 18.0953 9.99988 18.0953C9.20623 18.0953 8.73004 18.0655 8.73004 18.0159C8.73004 17.9723 8.55147 17.9365 8.33322 17.9365C8.11496 17.9365 7.93639 17.9008 7.93639 17.8572C7.93639 17.8135 7.82925 17.7778 7.6983 17.7778C7.56734 17.7778 7.4602 17.7421 7.4602 17.6984C7.4602 17.6548 7.35306 17.6191 7.22211 17.6191C7.09115 17.6191 6.98401 17.5834 6.98401 17.5397C6.98401 17.4961 6.91258 17.4604 6.82528 17.4604C6.73798 17.4604 6.66655 17.4246 6.66655 17.381C6.66655 17.3373 6.59512 17.3016 6.50782 17.3016C6.42052 17.3016 6.34909 17.2659 6.34909 17.2223C6.34909 17.1786 6.27766 17.1429 6.19036 17.1429C6.10306 17.1429 6.03163 17.1072 6.03163 17.0635C6.03163 17.0199 5.9602 16.9842 5.8729 16.9842C5.7856 16.9842 5.71417 16.9484 5.71417 16.9048C5.71417 16.8611 5.65782 16.8254 5.58893 16.8254C5.51996 16.8254 5.32639 16.6826 5.15861 16.508C4.99084 16.3334 4.81441 16.1905 4.76655 16.1905C4.64361 16.1905 3.65068 15.1834 3.65068 15.0587C3.65068 15.0021 3.57925 14.9042 3.49195 14.8413C3.40465 14.7784 3.33322 14.6712 3.33322 14.6032C3.33322 14.5352 3.26179 14.4281 3.17449 14.3651C3.08719 14.3022 3.01576 14.1872 3.01576 14.1095C3.01576 14.0319 2.98004 13.9683 2.93639 13.9683C2.89274 13.9683 2.85703 13.8969 2.85703 13.8096C2.85703 13.7223 2.82131 13.6508 2.77766 13.6508C2.73401 13.6508 2.6983 13.5794 2.6983 13.4921C2.6983 13.4048 2.66258 13.3334 2.61893 13.3334C2.57528 13.3334 2.53957 13.2773 2.53957 13.2087C2.53957 12.9177 2.3425 12.8572 1.39441 12.8572H0.476074V13.0953Z" fill="#522773"/>
<path d="M7.46045 5.63498V6.508H12.347C17.5143 6.508 17.4604 6.50427 17.4604 6.85951C17.4604 6.92808 17.4962 6.98419 17.5398 6.98419C17.5835 6.98419 17.6192 7.05562 17.6192 7.14292C17.6192 7.23022 17.6549 7.30165 17.6985 7.30165C17.7422 7.30165 17.7779 7.40879 17.7779 7.53975C17.7779 7.6707 17.8136 7.77784 17.8573 7.77784C17.9009 7.77784 17.9366 7.95641 17.9366 8.17467C17.9366 8.39292 17.9724 8.57149 18.016 8.57149C18.0662 8.57149 18.0954 9.12705 18.0954 10.0794V11.5874H18.9684C19.7885 11.5874 19.8414 11.5778 19.8414 11.4286C19.8414 11.3413 19.8771 11.2699 19.9208 11.2699C19.9704 11.2699 20.0001 10.7937 20.0001 10.0001C20.0001 9.20641 19.9704 8.73022 19.9208 8.73022C19.8766 8.73022 19.8414 8.51856 19.8414 8.25403C19.8414 7.98951 19.8062 7.77784 19.762 7.77784C19.7184 7.77784 19.6827 7.6707 19.6827 7.53975C19.6827 7.40879 19.647 7.30165 19.6033 7.30165C19.5597 7.30165 19.5239 7.15879 19.5239 6.98419C19.5239 6.80959 19.4882 6.66673 19.4446 6.66673C19.4009 6.66673 19.3652 6.5953 19.3652 6.508C19.3652 6.4207 19.3295 6.34927 19.2858 6.34927C19.2422 6.34927 19.2065 6.24213 19.2065 6.11118C19.2065 5.98022 19.1708 5.87308 19.1271 5.87308C19.0835 5.87308 19.0478 5.80165 19.0478 5.71435C19.0478 5.62705 19.012 5.55562 18.9684 5.55562C18.9247 5.55562 18.889 5.48419 18.889 5.39689C18.889 5.30959 18.8533 5.23816 18.8097 5.23816C18.766 5.23816 18.7303 5.18205 18.7303 5.11348C18.7303 4.75602 18.8273 4.76197 12.982 4.76197H7.46045V5.63498Z" fill="#EF7D00"/>
</svg>
