<svg width="20" height="20" viewBox="0 0 20 20" fill="none" xmlns="http://www.w3.org/2000/svg">
<path d="M10 20C15.5228 20 20 15.5228 20 10C20 4.47715 15.5228 0 10 0C4.47715 0 0 4.47715 0 10C0 15.5228 4.47715 20 10 20Z" fill="#20262E"/>
<path d="M4.64797 9.05979C4.13162 9.06382 3.61779 9.48638 3.61476 10.0935C3.61174 10.6502 4.08321 11.1181 4.64394 11.1197C5.21626 11.1212 5.67614 10.6628 5.67715 10.091C5.69883 9.53782 5.19307 9.05525 4.64797 9.05979Z" fill="white"/>
<path d="M11.0565 4.61026C11.0545 5.23705 10.5437 5.64297 10.0178 5.63692C9.45401 5.63591 8.98455 5.16393 8.98707 4.60068C8.98959 4.04147 9.46561 3.56142 10.0278 3.57151C10.5906 3.58109 11.0585 4.00214 11.0565 4.61026Z" fill="white"/>
<path d="M9.10569 15.4471C9.10216 14.9197 9.53329 14.419 10.151 14.4306C10.7455 14.4417 11.1691 14.904 11.1645 15.4708C11.1595 16.1122 10.6215 16.5091 10.1086 16.4945C9.57918 16.4793 9.08804 16.0401 9.10569 15.4471Z" fill="white"/>
<path d="M15.5042 8.95087C14.9288 8.95137 14.4755 9.40822 14.478 9.98458C14.4806 10.5529 14.9354 10.9991 15.5032 11.0087C16.1053 11.0188 16.5576 10.4833 16.5334 9.97954C16.5319 9.39915 16.0831 8.95036 15.5042 8.95087Z" fill="white"/>
<path fill-rule="evenodd" clip-rule="evenodd" d="M17.7911 8.87517C17.3101 7.92919 16.5189 7.43956 15.4559 7.4441C14.6935 7.44713 14.0632 7.76833 13.562 8.34671C13.2276 8.73246 12.7915 8.87315 12.2998 8.76776C11.7971 8.65935 11.4522 8.34016 11.3175 7.83943C11.1753 7.31047 11.3236 6.85211 11.7335 6.48451C12.5207 5.77805 12.7829 4.59659 12.3669 3.62339C11.8455 2.40259 10.4946 1.76976 9.24052 2.19182C8.3127 2.50395 7.72122 3.15695 7.53515 4.1231C7.35412 5.06101 7.63701 5.86983 8.35052 6.50972C8.72972 6.84908 8.90167 7.2545 8.82553 7.75573C8.7161 8.47681 8.01973 8.97703 7.26588 8.82172C6.95627 8.75768 6.71876 8.58321 6.50496 8.35831C5.73194 7.54495 4.59486 7.3256 3.5798 7.78699C2.46691 8.29326 1.86685 9.5665 2.20117 10.7469C2.47851 11.7252 3.129 12.3505 4.11531 12.5663C5.08297 12.7781 5.91751 12.4811 6.57656 11.7353C6.86953 11.4035 7.22251 11.2492 7.66474 11.2613C8.47205 11.284 9.15026 12.1372 8.80586 13.0524C8.72445 13.2684 8.57112 13.4266 8.41752 13.585C8.37608 13.6278 8.33462 13.6705 8.29455 13.7145C7.66071 14.4103 7.44589 15.2217 7.68693 16.1293C7.98292 17.2442 8.97731 17.992 10.1209 17.9986C10.78 18.0011 11.3619 17.7873 11.8399 17.336C12.5691 16.6477 12.8187 15.8051 12.5898 14.8258C12.4632 14.2863 12.1455 13.8657 11.7552 13.4886C11.3337 13.0811 11.1985 12.5945 11.4083 12.0419C11.7734 11.0777 13.0007 10.9683 13.5776 11.6218C14.276 12.4135 15.1574 12.6883 16.1841 12.4241C17.6968 12.0338 18.4991 10.2684 17.7911 8.87517ZM4.74764 11.5835C3.86268 11.6319 3.21875 10.9824 3.15673 10.2129C3.0821 9.29168 3.81226 8.60892 4.61351 8.59279C5.45007 8.57615 6.1187 9.21705 6.14392 10.0667C6.15652 10.8866 5.52621 11.5411 4.74764 11.5835ZM8.526 4.58348C8.54718 3.73029 9.23094 3.08434 10.0857 3.11056C10.8889 3.13527 11.5455 3.83164 11.5197 4.6329C11.493 5.47903 10.8173 6.12094 9.97925 6.09724C9.15732 6.07354 8.50583 5.39482 8.526 4.58348ZM11.6317 15.4612C11.6332 16.2927 10.962 16.9578 10.1225 16.9573C9.30305 16.9568 8.63542 16.2846 8.63845 15.4627C8.64147 14.6216 9.30003 13.9686 10.1452 13.9681C10.9625 13.9676 11.6302 14.6383 11.6317 15.4612ZM15.5124 11.4766C14.6516 11.47 14.0082 10.7812 14.0097 9.97141C14.0213 9.13284 14.6996 8.46571 15.526 8.48034C16.3656 8.49547 17.0146 9.16864 17.001 10.0102C16.9878 10.8201 16.3116 11.4832 15.5124 11.4766Z" fill="white"/>
</svg>
