<svg width="20" height="20" viewBox="0 0 20 20" fill="none" xmlns="http://www.w3.org/2000/svg">
<circle cx="10" cy="10" r="10" fill="#218CFF"/>
<path d="M16.8555 8.83453C16.709 7.95036 16.215 7.15996 15.482 6.63675C14.7489 6.11353 13.8367 5.90022 12.9453 6.04363C12.9186 6.04814 12.8919 6.05291 12.8651 6.05795C11.7042 6.26252 10.6047 7.15028 9.67985 8.62837C7.89243 7.28108 6.59352 7.15585 5.81384 7.29249C5.37341 7.36961 4.9526 7.53206 4.57543 7.77056C4.19827 8.00907 3.87214 8.31895 3.61566 8.68252C3.09768 9.41679 2.89487 10.3252 3.05183 11.2078C3.2088 12.0905 3.71269 12.8751 4.45265 13.3891C5.19261 13.9031 6.10803 14.1043 6.99752 13.9486C8.16061 13.7448 9.26114 12.8568 10.1868 11.3776C11.9713 12.7231 13.2686 12.8493 14.0467 12.714L14.0868 12.7074C15.9124 12.3877 17.1549 10.6501 16.8555 8.83453ZM14.7868 10.3071C14.6654 10.4807 14.5106 10.6288 14.3312 10.7427C14.1518 10.8565 13.9514 10.9339 13.7416 10.9704C13.1071 11.0813 12.1071 10.6451 11.0536 9.80056C11.9202 8.30813 12.6846 7.89025 13.1782 7.80323C13.4938 7.74772 13.819 7.7864 14.1124 7.91436C14.4059 8.04232 14.6544 8.25382 14.8267 8.52207C14.9989 8.79031 15.0871 9.10324 15.08 9.42123C15.0729 9.73922 14.9708 10.048 14.7868 10.3084V10.3071ZM4.78257 10.9279C4.74266 10.7205 4.74433 10.5073 4.78746 10.3005C4.83059 10.0937 4.91435 9.89741 5.03395 9.72276C5.15355 9.5481 5.30665 9.39853 5.48451 9.28259C5.66236 9.16665 5.86149 9.08661 6.07052 9.04705L6.17213 9.0298C6.22464 9.02331 6.2775 9.02012 6.33041 9.02025C6.96356 9.02025 7.87051 9.45193 8.81221 10.207C7.94591 11.6994 7.18121 12.1173 6.68736 12.2044L6.67827 12.2059C6.25618 12.2851 5.81967 12.1951 5.46436 11.9555C5.10904 11.716 4.86388 11.3465 4.78257 10.9279V10.9279Z" fill="white"/>
</svg>
