<svg width="20" height="20" viewBox="0 0 20 20" fill="none" xmlns="http://www.w3.org/2000/svg">
<circle cx="10" cy="10" r="10" fill="url(#paint0_linear_1581_81)"/>
<path fill-rule="evenodd" clip-rule="evenodd" d="M7.38203 2.70267C7.05826 2.81875 6.74446 2.95578 6.44226 3.1121L3.11021 6.44416C2.95388 6.74635 2.81686 7.06015 2.70078 7.38392L7.38203 2.70267ZM2.24985 9.83485C2.2538 9.64567 2.26454 9.45816 2.28182 9.27255L9.27065 2.28371C9.45626 2.26643 9.64378 2.2557 9.83295 2.25174L2.24985 9.83485ZM2.41499 11.6072C2.38372 11.4589 2.35669 11.3091 2.33403 11.1578L11.1559 2.33592C11.3072 2.35858 11.457 2.38561 11.6053 2.41688L2.41499 11.6072ZM2.90189 13.1203C2.84738 12.9965 2.79602 12.871 2.7479 12.744L12.7421 2.74979C12.8691 2.79791 12.9946 2.84927 13.1184 2.90378L2.90189 13.1203ZM3.53914 14.2845C3.49486 14.2179 3.45159 14.1506 3.40934 14.0825L14.0806 3.41123C14.1892 3.47866 14.296 3.54869 14.4009 3.62125L3.63841 14.3838L3.53914 14.2845ZM4.53009 15.4921C4.44148 15.4039 4.355 15.3135 4.27072 15.2211L15.2192 4.27261C15.3116 4.35689 15.402 4.44337 15.4902 4.53198L4.53009 15.4921ZM5.5868 16.3729C5.48276 16.3007 5.38056 16.2261 5.28031 16.1491L16.1472 5.28219C16.2242 5.38245 16.2988 5.48465 16.371 5.58869L5.5868 16.3729ZM6.86785 17.0918C6.74619 17.0381 6.62617 16.9812 6.50788 16.9215L16.9196 6.50977C16.9794 6.62805 17.0362 6.74808 17.09 6.86974L6.86785 17.0918ZM8.22577 17.5464C8.08438 17.5133 7.94447 17.4764 7.80617 17.4357L17.4338 7.80806C17.4745 7.94636 17.5115 8.08627 17.5445 8.22766L8.22577 17.5464ZM10.0222 17.75C10.0142 17.75 10.0062 17.75 9.99812 17.75C9.83321 17.75 9.6695 17.7449 9.50715 17.7347L17.7328 9.50904C17.743 9.67139 17.7481 9.8351 17.7481 10C17.7481 10.008 17.7481 10.0161 17.7481 10.0241L10.0222 17.75ZM12.5919 17.3053C12.3454 17.3928 12.0933 17.4682 11.8361 17.5308L17.5289 11.838C17.4663 12.0952 17.3909 12.3473 17.3035 12.5937L12.5919 17.3053Z" fill="url(#paint1_linear_1581_81)"/>
<path fill-rule="evenodd" clip-rule="evenodd" d="M8.61636 2.53087C8.37394 2.58074 8.13574 2.64216 7.90236 2.71454L4.68533 5.93157C4.87582 5.90989 5.06816 5.89432 5.26216 5.88508L8.61636 2.53087ZM16.8206 13.6088C16.2105 14.7236 15.329 15.6687 14.2648 16.355C14.2803 16.2774 14.2949 16.1994 14.3084 16.121L16.8206 13.6088ZM17.724 10.5804C17.7078 10.7836 17.6836 10.9846 17.6517 11.183L14.433 14.4018C14.4287 14.2327 14.4197 14.0649 14.406 13.8984L17.724 10.5804ZM17.6372 8.66724C17.6637 8.82064 17.6855 8.97563 17.7027 9.13204L14.2068 12.6279C14.1737 12.4862 14.1372 12.3459 14.0974 12.207L17.6372 8.66724ZM17.2456 7.24625C17.2952 7.37526 17.3414 7.50597 17.384 7.63826L13.7644 11.2578C13.7127 11.134 13.6583 11.0116 13.6012 10.8907L17.2456 7.24625ZM16.5769 5.915C16.6457 6.02382 16.7119 6.13452 16.7752 6.24699L13.0791 9.9431C13.0108 9.83534 12.9401 9.72919 12.8672 9.6247L16.5769 5.915ZM15.7354 4.81903C15.8203 4.91105 15.903 5.00518 15.9834 5.10133L12.2479 8.83684C12.1651 8.74302 12.0803 8.65099 11.9936 8.56082L15.7354 4.81903ZM14.6824 3.87199C14.7835 3.9472 14.8827 4.02487 14.9798 4.1049L11.2297 7.85506C11.1323 7.77526 11.0333 7.69752 10.9325 7.6219L14.6824 3.87199ZM13.4358 3.11858C13.5544 3.17551 13.6714 3.23543 13.7865 3.29824L10.0471 7.03768C9.93432 6.97273 9.81999 6.91023 9.70416 6.85024L13.4358 3.11858ZM11.9628 2.59162C12.103 2.62588 12.2417 2.66403 12.3788 2.70595L8.68293 6.40179C8.5522 6.35413 8.42001 6.30949 8.28643 6.26797L11.9628 2.59162ZM10.2414 2.37549C10.4121 2.3774 10.5815 2.38495 10.7493 2.39795L7.15022 5.99701C6.99661 5.97113 6.84164 5.94925 6.68542 5.93148L10.2414 2.37549Z" fill="url(#paint2_linear_1581_81)"/>
<defs>
<linearGradient id="paint0_linear_1581_81" x1="1.90625" y1="15.4375" x2="18.9062" y2="3.5625" gradientUnits="userSpaceOnUse">
<stop stop-color="#6DC1FF"/>
<stop offset="1" stop-color="#6671FE"/>
</linearGradient>
<linearGradient id="paint1_linear_1581_81" x1="5.90601" y1="17.7499" x2="13.2498" y2="7.28117" gradientUnits="userSpaceOnUse">
<stop stop-color="white"/>
<stop offset="1" stop-color="white" stop-opacity="0"/>
</linearGradient>
<linearGradient id="paint2_linear_1581_81" x1="10.5" y1="8.3125" x2="15.6875" y2="3.46875" gradientUnits="userSpaceOnUse">
<stop stop-color="white"/>
<stop offset="1" stop-color="white" stop-opacity="0"/>
</linearGradient>
</defs>
</svg>
