<svg width="20" height="20" viewBox="0 0 20 20" fill="none" xmlns="http://www.w3.org/2000/svg">
<g clip-path="url(#clip0_4289_56550)">
<path fill-rule="evenodd" clip-rule="evenodd" d="M12.85 8.24097L15.7049 6.59272L12.8498 4.94446L10.0121 3.30612L9.99518 3.2964L7.14034 4.94446L4.29398 6.58776L4.2853 6.59272V13.1858L4.28757 13.1874L7.14034 14.834L9.99518 16.4823L9.99994 16.4794L12.8498 14.834L15.7049 13.1858L12.85 11.5375L11.4226 12.3617L10.003 13.1812L9.99518 13.1858L8.56755 12.3617L7.14427 11.5398L7.14034 11.5375L9.99492 9.8894L7.14042 8.24101L7.14745 8.23708L8.56784 7.41698L9.99506 6.59274L10.0091 6.60081L11.4227 7.41698L12.85 8.24097ZM9.99518 -0.00012207L10.015 0.011251L14.2774 2.47196L18.5599 4.94446V14.834L14.2774 17.3065L9.99663 19.7778L9.99518 19.7786L5.71292 17.3065L1.43149 14.8345L1.43066 14.8342V4.94446L1.441 4.93846L5.71292 2.47196L9.99518 -0.00012207Z" fill="black"/>
<path d="M12.8499 8.24102L15.7047 6.59277L12.8497 4.9445L10.012 3.30617L9.99504 3.29645L7.1402 4.9445L4.29384 6.5878L4.28516 6.59277V13.1858L4.28743 13.1875L7.1402 14.8341L9.99504 16.4823L9.9998 16.4795L12.8497 14.8341L15.7047 13.1858L12.8499 11.5376L11.4225 12.3618L10.0029 13.1813L9.99504 13.1858L8.56741 12.3618L7.14413 11.5398L7.1402 11.5376L9.99478 9.88944L7.14028 8.24105L7.14731 8.23712L8.5677 7.41702L9.99492 6.59279L10.009 6.60085L11.4225 7.41702L12.8499 8.24102Z" fill="white"/>
</g>
<defs>
<clipPath id="clip0_4289_56550">
<rect width="20" height="20" fill="white"/>
</clipPath>
</defs>
</svg>
