<svg width="20" height="20" viewBox="0 0 20 20" fill="none" xmlns="http://www.w3.org/2000/svg">
<path d="M0 1.25C0 0.559644 0.559644 0 1.25 0H18.75C19.4404 0 20 0.559644 20 1.25V18.75C20 19.4404 19.4404 20 18.75 20H1.25C0.559644 20 0 19.4404 0 18.75V1.25Z" fill="#3067F0"/>
<path fill-rule="evenodd" clip-rule="evenodd" d="M7.11234 8.81435L4.27487 13.5667L5.21337 13.5782L6.15187 13.5897L9.49959 11.0846C11.3408 9.70681 12.8817 8.54677 12.9237 8.50675C12.9968 8.43724 12.9327 8.3357 11.4999 6.24848C10.6747 5.04646 9.98841 4.06276 9.97473 4.0625C9.96104 4.06224 8.673 6.2006 7.11234 8.81435ZM3.14927 6.56335C3.16261 6.63256 3.29378 8.05881 3.44075 9.73278C3.58773 11.4068 3.71791 12.7764 3.73011 12.7764C3.7616 12.7764 6.25451 8.59192 6.2339 8.5736C6.20755 8.55006 3.38512 6.60658 3.24711 6.51688L3.125 6.43755L3.14927 6.56335ZM12.3797 10.0682C9.85508 11.9618 7.76136 13.5381 7.72702 13.5711C7.67338 13.6227 8.27743 13.6296 12.0193 13.6203L16.3741 13.6094L16.681 10.192C16.8499 8.31242 16.984 6.74102 16.979 6.70001C16.9725 6.6458 15.7168 7.56542 12.3797 10.0682ZM3.68795 15.1899V15.9375H10.0208H16.3537V15.1899V14.4424H10.0208H3.68795V15.1899Z" fill="white"/>
</svg>
