<svg width="20" height="20" viewBox="0 0 20 20" fill="none" xmlns="http://www.w3.org/2000/svg">
<rect width="20" height="20" fill="white"/>
<g filter="url(#filter0_f_3340_20147)">
<path fill-rule="evenodd" clip-rule="evenodd" d="M5.4638 4.08319C5.4638 4.09457 5.47312 4.10388 5.48451 4.10388C5.4959 4.10388 5.50522 4.1225 5.50522 4.14525C5.50522 4.16801 5.51454 4.18663 5.52594 4.18663C5.53733 4.18663 5.54665 4.20525 5.54665 4.22801C5.54665 4.25076 5.55597 4.26938 5.56736 4.26938C5.57876 4.26938 5.58808 4.288 5.58808 4.31076C5.58808 4.33351 5.5974 4.35213 5.60879 4.35213C5.62018 4.35213 5.6295 4.37075 5.6295 4.39351C5.6295 4.41627 5.63882 4.43489 5.65022 4.43489C5.66161 4.43489 5.67093 4.45351 5.67093 4.47626C5.67093 4.49902 5.68025 4.51764 5.69164 4.51764C5.70303 4.51764 5.71236 4.53626 5.71236 4.55902C5.71236 4.58177 5.72168 4.60039 5.73307 4.60039C5.74446 4.60039 5.75378 4.62832 5.75378 4.66246C5.75378 4.69659 5.7631 4.72452 5.7745 4.72452C5.78589 4.72452 5.79521 4.74109 5.79521 4.76132C5.79521 4.78158 5.81385 4.81156 5.83664 4.82796C5.86095 4.84548 5.87806 4.88152 5.87806 4.91529C5.87806 4.9469 5.88738 4.97278 5.89878 4.97278C5.91017 4.97278 5.91949 4.9914 5.91949 5.01415C5.91949 5.03691 5.92881 5.05553 5.9402 5.05553C5.95159 5.05553 5.96092 5.07415 5.96092 5.09691C5.96092 5.11966 5.97024 5.13828 5.98163 5.13828C5.99302 5.13828 6.00234 5.1569 6.00234 5.17966C6.00234 5.20242 6.01166 5.22104 6.02305 5.22104C6.03445 5.22104 6.04377 5.23966 6.04377 5.26241C6.04377 5.28517 6.05309 5.30379 6.06448 5.30379C6.07587 5.30379 6.08519 5.32241 6.08519 5.34516C6.08519 5.36792 6.09452 5.38654 6.10591 5.38654C6.1173 5.38654 6.12662 5.40516 6.12662 5.42792C6.12662 5.45067 6.13594 5.46929 6.14733 5.46929C6.15873 5.46929 6.16805 5.48791 6.16805 5.51067C6.16805 5.53343 6.17737 5.55205 6.18876 5.55205C6.20015 5.55205 6.20947 5.57067 6.20947 5.59342C6.20947 5.61618 6.2188 5.6348 6.23019 5.6348C6.24158 5.6348 6.2509 5.65342 6.2509 5.67617C6.2509 5.69893 6.26022 5.71755 6.27161 5.71755C6.28301 5.71755 6.29233 5.73617 6.29233 5.75893C6.29233 5.78168 6.30165 5.8003 6.31304 5.8003C6.32443 5.8003 6.33375 5.82618 6.33375 5.8578C6.33375 5.89156 6.35086 5.9276 6.37518 5.94512C6.3995 5.96264 6.41661 5.99868 6.41661 6.03245C6.41661 6.06406 6.42593 6.08994 6.43732 6.08994C6.44871 6.08994 6.45803 6.10651 6.45803 6.12674C6.45803 6.147 6.47668 6.17697 6.49946 6.19338C6.52378 6.2109 6.54089 6.24694 6.54089 6.2807C6.54089 6.31231 6.55021 6.3382 6.5616 6.3382C6.57299 6.3382 6.58231 6.35681 6.58231 6.37957C6.58231 6.40233 6.59163 6.42095 6.60303 6.42095C6.61442 6.42095 6.62374 6.43957 6.62374 6.46232C6.62374 6.48508 6.63306 6.5037 6.64445 6.5037C6.65584 6.5037 6.66517 6.52232 6.66517 6.54508C6.66517 6.56783 6.67449 6.58645 6.68588 6.58645C6.69727 6.58645 6.70659 6.60507 6.70659 6.62783C6.70659 6.65059 6.71591 6.66921 6.72731 6.66921C6.7387 6.66921 6.74802 6.68782 6.74802 6.71058C6.74802 6.73334 6.75734 6.75196 6.76873 6.75196C6.78012 6.75196 6.78945 6.77058 6.78945 6.79333C6.78945 6.81609 6.79877 6.83471 6.81016 6.83471C6.82155 6.83471 6.83087 6.85333 6.83087 6.87609C6.83087 6.89884 6.84019 6.91746 6.85158 6.91746C6.86298 6.91746 6.8723 6.94334 6.8723 6.97496C6.8723 7.00872 6.88941 7.04476 6.91372 7.06228C6.93651 7.07869 6.95515 7.10866 6.95515 7.12892C6.95515 7.14915 6.96447 7.16572 6.97586 7.16572C6.98726 7.16572 6.99658 7.1916 6.99658 7.22321C6.99658 7.25698 7.01369 7.29301 7.038 7.31054C7.06232 7.32806 7.07943 7.3641 7.07943 7.39786C7.07943 7.42947 7.08875 7.45535 7.10014 7.45535C7.11154 7.45535 7.12086 7.47397 7.12086 7.49673C7.12086 7.51949 7.13018 7.53811 7.14157 7.53811C7.15296 7.53811 7.16228 7.55673 7.16228 7.57948C7.16228 7.60224 7.1716 7.62086 7.183 7.62086C7.19439 7.62086 7.20371 7.63948 7.20371 7.66224C7.20371 7.68499 7.21303 7.70361 7.22442 7.70361C7.23582 7.70361 7.24514 7.72223 7.24514 7.74499C7.24514 7.76775 7.25446 7.78636 7.26585 7.78636C7.27724 7.78636 7.28656 7.80498 7.28656 7.82774C7.28656 7.8505 7.29588 7.86912 7.30728 7.86912C7.31867 7.86912 7.32799 7.88774 7.32799 7.91049C7.32799 7.93325 7.33731 7.95187 7.3487 7.95187C7.3601 7.95187 7.36942 7.97049 7.36942 7.99325C7.36942 8.016 7.37874 8.03462 7.39013 8.03462C7.40152 8.03462 7.41084 8.05324 7.41084 8.076C7.41084 8.09876 7.42016 8.11737 7.43156 8.11737C7.44295 8.11737 7.45227 8.13599 7.45227 8.15875C7.45227 8.18151 7.46159 8.20013 7.47298 8.20013C7.48438 8.20013 7.4937 8.21875 7.4937 8.2415C7.4937 8.26426 7.50302 8.28288 7.51441 8.28288C7.5258 8.28288 7.53512 8.30876 7.53512 8.34037C7.53512 8.37414 7.55223 8.41017 7.57655 8.4277C7.59933 8.4441 7.61798 8.47408 7.61798 8.49433C7.61798 8.51457 7.6273 8.53114 7.63869 8.53114C7.65008 8.53114 7.6594 8.55907 7.6594 8.5932C7.6594 8.62734 7.66872 8.65527 7.68012 8.65527C7.69151 8.65527 7.70083 8.67389 7.70083 8.69664C7.70083 8.7194 7.71015 8.73802 7.72154 8.73802C7.73293 8.73802 7.74226 8.75664 7.74226 8.7794C7.74226 8.80215 7.75158 8.82077 7.76297 8.82077C7.77436 8.82077 7.78368 8.83939 7.78368 8.86215C7.78368 8.8849 7.793 8.90352 7.80439 8.90352C7.81579 8.90352 7.82511 8.92214 7.82511 8.9449C7.82511 8.96766 7.83443 8.98628 7.84582 8.98628C7.85721 8.98628 7.86653 9.0049 7.86653 9.02765C7.86653 9.05041 7.87586 9.06903 7.88725 9.06903C7.89864 9.06903 7.90796 9.08765 7.90796 9.11041C7.90796 9.13316 7.91728 9.15178 7.92867 9.15178C7.94007 9.15178 7.94939 9.1704 7.94939 9.19316C7.94939 9.21591 7.95871 9.23453 7.9701 9.23453C7.98149 9.23453 7.99081 9.25315 7.99081 9.27591C7.99081 9.29867 8.00013 9.31729 8.01153 9.31729C8.02292 9.31729 8.03224 9.33591 8.03224 9.35866C8.03224 9.38142 8.04156 9.40004 8.05295 9.40004C8.06435 9.40004 8.07367 9.42797 8.07367 9.4621C8.07367 9.49624 8.08299 9.52417 8.09438 9.52417C8.10577 9.52417 8.11509 9.54804 8.11509 9.57723C8.11509 9.61369 8.08268 9.66185 8.01153 9.73105C7.95457 9.78647 7.90796 9.84246 7.90796 9.85545C7.90796 9.86846 7.87068 9.91488 7.82511 9.95862C7.77954 10.0024 7.74226 10.0528 7.74226 10.0708C7.74226 10.0896 7.72475 10.1034 7.70083 10.1034C7.67668 10.1034 7.6594 10.1172 7.6594 10.1365C7.6594 10.1547 7.63144 10.1957 7.59726 10.2276C7.56309 10.2594 7.53512 10.3004 7.53512 10.3186C7.53512 10.3379 7.51785 10.3517 7.4937 10.3517C7.46992 10.3517 7.45227 10.3655 7.45227 10.3841C7.45227 10.4019 7.40566 10.4618 7.3487 10.5172C7.29174 10.5726 7.24514 10.6286 7.24514 10.6416C7.24514 10.6546 7.20785 10.701 7.16228 10.7448C7.11671 10.7885 7.07943 10.839 7.07943 10.8569C7.07943 10.8758 7.06193 10.8896 7.038 10.8896C7.01385 10.8896 6.99658 10.9034 6.99658 10.9227C6.99658 10.9409 6.96862 10.9818 6.93444 11.0137C6.90026 11.0456 6.8723 11.0866 6.8723 11.1048C6.8723 11.124 6.85502 11.1378 6.83087 11.1378C6.80709 11.1378 6.78945 11.1516 6.78945 11.1702C6.78945 11.188 6.74284 11.2479 6.68588 11.3033C6.62892 11.3588 6.58231 11.4148 6.58231 11.4277C6.58231 11.4408 6.54503 11.4872 6.49946 11.5309C6.45389 11.5747 6.41661 11.6251 6.41661 11.6431C6.41661 11.6619 6.3991 11.6757 6.37518 11.6757C6.35103 11.6757 6.33375 11.6895 6.33375 11.7088C6.33375 11.727 6.30579 11.768 6.27161 11.7999C6.23744 11.8317 6.20947 11.8727 6.20947 11.8909C6.20947 11.9102 6.1922 11.924 6.16805 11.924C6.14427 11.924 6.12662 11.9378 6.12662 11.9564C6.12662 11.9742 6.08002 12.0341 6.02305 12.0895C5.96609 12.1449 5.91949 12.2009 5.91949 12.2139C5.91949 12.2269 5.8822 12.2733 5.83664 12.3171C5.79107 12.3608 5.75378 12.4113 5.75378 12.4292C5.75378 12.4481 5.73628 12.4619 5.71236 12.4619C5.6882 12.4619 5.67093 12.4757 5.67093 12.495C5.67093 12.5131 5.64297 12.5541 5.60879 12.586C5.57461 12.6179 5.54665 12.6589 5.54665 12.6771C5.54665 12.6963 5.52938 12.7101 5.50522 12.7101C5.48144 12.7101 5.4638 12.7239 5.4638 12.7425C5.4638 12.7603 5.41719 12.8202 5.36023 12.8756C5.30327 12.9311 5.25666 12.9871 5.25666 13C5.25666 13.0131 5.21938 13.0595 5.17381 13.1032C5.12824 13.147 5.09096 13.1974 5.09096 13.2154C5.09096 13.2342 5.07346 13.248 5.04953 13.248C5.02538 13.248 5.00811 13.2618 5.00811 13.2811C5.00811 13.2993 4.98014 13.3403 4.94597 13.3722C4.91179 13.404 4.88383 13.445 4.88383 13.4632C4.88383 13.4825 4.86655 13.4963 4.8424 13.4963C4.81848 13.4963 4.80097 13.5101 4.80097 13.5289C4.80097 13.5469 4.76369 13.5974 4.71812 13.6411C4.67255 13.6848 4.63527 13.7313 4.63527 13.7443C4.63527 13.7573 4.58866 13.8133 4.5317 13.8687C4.47474 13.9241 4.42813 13.984 4.42813 14.0018C4.42813 14.0204 4.41049 14.0342 4.38671 14.0342C4.36256 14.0342 4.34528 14.048 4.34528 14.0673C4.34528 14.0854 4.31732 14.1264 4.28314 14.1583C4.24896 14.1902 4.221 14.2312 4.221 14.2494C4.221 14.2686 4.20373 14.2824 4.17957 14.2824C4.15565 14.2824 4.13815 14.2962 4.13815 14.3151C4.13815 14.3331 4.10086 14.3835 4.0553 14.4273C4.00973 14.471 3.97244 14.5174 3.97244 14.5304C3.97244 14.5434 3.92584 14.5994 3.86888 14.6548C3.81191 14.7102 3.76531 14.7701 3.76531 14.788C3.76531 14.8065 3.74766 14.8203 3.72388 14.8203C3.69973 14.8203 3.68246 14.8341 3.68246 14.8534C3.68246 14.8716 3.65449 14.9126 3.62032 14.9445C3.58614 14.9763 3.55818 15.0173 3.55818 15.0355C3.55818 15.0548 3.5409 15.0686 3.51675 15.0686C3.49283 15.0686 3.47532 15.0824 3.47532 15.1012C3.47532 15.1192 3.43804 15.1697 3.39247 15.2134C3.3469 15.2571 3.30962 15.3036 3.30962 15.3166C3.30962 15.3296 3.26301 15.3856 3.20605 15.441C3.14909 15.4964 3.10249 15.5563 3.10249 15.5741C3.10249 15.5927 3.08484 15.6065 3.06106 15.6065C3.03691 15.6065 3.01963 15.6203 3.01963 15.6396C3.01963 15.6577 2.99167 15.6987 2.95749 15.7306C2.92332 15.7625 2.89535 15.8035 2.89535 15.8217C2.89535 15.8409 2.87808 15.8547 2.85393 15.8547C2.82632 15.8547 2.8125 15.8685 2.8125 15.8961C2.8125 15.9372 2.82632 15.9375 4.85369 15.9375H6.8949L6.94573 15.8867C6.97369 15.8588 6.99658 15.8253 6.99658 15.8123C6.99658 15.7992 7.02454 15.7625 7.05872 15.7306C7.09289 15.6987 7.12086 15.6617 7.12086 15.6483C7.12086 15.6349 7.15814 15.5882 7.20371 15.5444C7.24928 15.5007 7.28656 15.4539 7.28656 15.4406C7.28656 15.4272 7.31453 15.3901 7.3487 15.3582C7.38288 15.3263 7.41084 15.2891 7.41084 15.2755C7.41084 15.2618 7.43881 15.2246 7.47298 15.1927C7.50716 15.1608 7.53512 15.1238 7.53512 15.1104C7.53512 15.097 7.57241 15.0503 7.61798 15.0065C7.66354 14.9628 7.70083 14.9144 7.70083 14.8989C7.70083 14.8835 7.71947 14.8574 7.74226 14.841C7.76504 14.8246 7.78368 14.7946 7.78368 14.7744C7.78368 14.7514 7.7992 14.7376 7.82511 14.7376C7.84926 14.7376 7.86653 14.7238 7.86653 14.7045C7.86653 14.6863 7.8945 14.6453 7.92867 14.6135C7.96285 14.5816 7.99081 14.5426 7.99081 14.527C7.99081 14.5113 8.00946 14.485 8.03224 14.4686C8.05503 14.4522 8.07367 14.426 8.07367 14.4103C8.07367 14.3946 8.10163 14.3557 8.13581 14.3238C8.16998 14.2919 8.19795 14.2547 8.19795 14.2411C8.19795 14.2274 8.22591 14.1902 8.26009 14.1583C8.29426 14.1264 8.32223 14.0894 8.32223 14.076C8.32223 14.0626 8.35951 14.0159 8.40508 13.9721C8.45065 13.9284 8.48793 13.8818 8.48793 13.8687C8.48793 13.8555 8.52522 13.809 8.57079 13.7652C8.61635 13.7215 8.65364 13.6731 8.65364 13.6576C8.65364 13.6422 8.67228 13.6161 8.69507 13.5997C8.71785 13.5833 8.73649 13.5573 8.73649 13.5418C8.73649 13.5264 8.77378 13.478 8.81934 13.4342C8.86491 13.3905 8.9022 13.3421 8.9022 13.3266C8.9022 13.3112 8.92084 13.2851 8.94362 13.2687C8.96641 13.2523 8.98505 13.2223 8.98505 13.2021C8.98505 13.1791 9.00056 13.1653 9.02648 13.1653C9.05063 13.1653 9.0679 13.1515 9.0679 13.1322C9.0679 13.114 9.09587 13.073 9.13004 13.0412C9.16422 13.0093 9.19218 12.972 9.19218 12.9584C9.19218 12.9448 9.22015 12.9075 9.25432 12.8756C9.2885 12.8438 9.31646 12.8048 9.31646 12.7892C9.31646 12.7735 9.3351 12.7472 9.35789 12.7308C9.38067 12.7144 9.39932 12.6882 9.39932 12.6725C9.39932 12.6568 9.42728 12.6179 9.46146 12.586C9.49563 12.5541 9.5236 12.5171 9.5236 12.5037C9.5236 12.4903 9.56088 12.4436 9.60645 12.3998C9.65202 12.3561 9.6893 12.3096 9.6893 12.2965C9.6893 12.2622 9.74303 12.2136 9.78104 12.2136C9.79976 12.2136 9.81358 12.2312 9.81358 12.255C9.81358 12.2778 9.8229 12.2964 9.83429 12.2964C9.84569 12.2964 9.85501 12.3316 9.85501 12.3746C9.85501 12.429 9.86758 12.4618 9.89643 12.4826C9.92075 12.5001 9.93786 12.5361 9.93786 12.5699C9.93786 12.6015 9.94718 12.6274 9.95857 12.6274C9.96997 12.6274 9.97929 12.6553 9.97929 12.6895C9.97929 12.7236 9.98861 12.7515 10 12.7515C10.0114 12.7515 10.0207 12.7701 10.0207 12.7929C10.0207 12.8157 10.03 12.8343 10.0414 12.8343C10.0528 12.8343 10.0621 12.8622 10.0621 12.8963C10.0621 12.9305 10.0715 12.9584 10.0829 12.9584C10.0942 12.9584 10.1036 12.977 10.1036 12.9998C10.1036 13.0225 10.1129 13.0412 10.1243 13.0412C10.1357 13.0412 10.145 13.0691 10.145 13.1032C10.145 13.1374 10.1543 13.1653 10.1657 13.1653C10.1771 13.1653 10.1864 13.1932 10.1864 13.2273C10.1864 13.2615 10.1957 13.2894 10.2071 13.2894C10.2185 13.2894 10.2278 13.308 10.2278 13.3308C10.2278 13.3535 10.2372 13.3722 10.2486 13.3722C10.26 13.3722 10.2693 13.3908 10.2693 13.4135C10.2693 13.4363 10.2786 13.4549 10.29 13.4549C10.3014 13.4549 10.3107 13.4828 10.3107 13.517C10.3107 13.5511 10.32 13.579 10.3314 13.579C10.3428 13.579 10.3521 13.5977 10.3521 13.6204C10.3521 13.6432 10.3614 13.6618 10.3728 13.6618C10.3842 13.6618 10.3936 13.699 10.3936 13.7445C10.3936 13.7901 10.4029 13.8273 10.4143 13.8273C10.4257 13.8273 10.435 13.8459 10.435 13.8687C10.435 13.8914 10.4443 13.9101 10.4557 13.9101C10.4671 13.9101 10.4764 13.9287 10.4764 13.9514C10.4764 13.9742 10.4857 13.9928 10.4971 13.9928C10.5085 13.9928 10.5178 14.0207 10.5178 14.0549C10.5178 14.089 10.5272 14.1169 10.5385 14.1169C10.5499 14.1169 10.5593 14.1356 10.5593 14.1583C10.5593 14.1811 10.5686 14.1997 10.58 14.1997C10.5914 14.1997 10.6007 14.2183 10.6007 14.2411C10.6007 14.2638 10.61 14.2824 10.6214 14.2824C10.6328 14.2824 10.6421 14.3197 10.6421 14.3652C10.6421 14.4107 10.6514 14.4479 10.6628 14.4479C10.6742 14.4479 10.6835 14.4666 10.6835 14.4893C10.6835 14.5121 10.6929 14.5307 10.7043 14.5307C10.7156 14.5307 10.725 14.5586 10.725 14.5928C10.725 14.6269 10.7343 14.6548 10.7457 14.6548C10.7571 14.6548 10.7664 14.6734 10.7664 14.6962C10.7664 14.719 10.7757 14.7376 10.7871 14.7376C10.7985 14.7376 10.8078 14.7562 10.8078 14.779C10.8078 14.8017 10.8171 14.8203 10.8285 14.8203C10.8399 14.8203 10.8492 14.8483 10.8492 14.8824C10.8492 14.9165 10.8586 14.9445 10.87 14.9445C10.8813 14.9445 10.8907 14.9724 10.8907 15.0065C10.8907 15.0407 10.9 15.0686 10.9114 15.0686C10.9228 15.0686 10.9321 15.0872 10.9321 15.11C10.9321 15.1327 10.9414 15.1513 10.9528 15.1513C10.9642 15.1513 10.9735 15.1793 10.9735 15.2134C10.9735 15.2475 10.9828 15.2755 10.9942 15.2755C11.0056 15.2755 11.0149 15.2941 11.0149 15.3168C11.0149 15.3396 11.0243 15.3582 11.0357 15.3582C11.0471 15.3582 11.0564 15.3862 11.0564 15.4203C11.0564 15.4544 11.0657 15.4824 11.0771 15.4824C11.0885 15.4824 11.0978 15.501 11.0978 15.5237C11.0978 15.5465 11.1071 15.5651 11.1185 15.5651C11.1299 15.5651 11.1392 15.5837 11.1392 15.6065C11.1392 15.6292 11.1486 15.6479 11.1599 15.6479C11.1713 15.6479 11.1807 15.6851 11.1807 15.7306C11.1807 15.7761 11.19 15.8134 11.2014 15.8134C11.2128 15.8134 11.2221 15.828 11.2221 15.8459C11.2221 15.9403 11.1585 15.9375 13.2816 15.9375C14.6013 15.9375 15.2819 15.9305 15.2819 15.9168C15.2819 15.9054 15.2726 15.8961 15.2612 15.8961C15.2498 15.8961 15.2405 15.8775 15.2405 15.8547C15.2405 15.832 15.2311 15.8134 15.2197 15.8134C15.2083 15.8134 15.199 15.7947 15.199 15.772C15.199 15.7492 15.1897 15.7306 15.1783 15.7306C15.1669 15.7306 15.1576 15.7047 15.1576 15.6731C15.1576 15.6394 15.1405 15.6033 15.1162 15.5858C15.0934 15.5694 15.0747 15.5394 15.0747 15.5192C15.0747 15.4989 15.0654 15.4824 15.054 15.4824C15.0426 15.4824 15.0333 15.4544 15.0333 15.4203C15.0333 15.3862 15.024 15.3582 15.0126 15.3582C15.0012 15.3582 14.9919 15.3396 14.9919 15.3168C14.9919 15.2941 14.9826 15.2755 14.9712 15.2755C14.9598 15.2755 14.9505 15.2496 14.9505 15.218C14.9505 15.1842 14.9334 15.1482 14.909 15.1307C14.8863 15.1142 14.8676 15.0843 14.8676 15.064C14.8676 15.0438 14.8583 15.0272 14.8469 15.0272C14.8355 15.0272 14.8262 14.9993 14.8262 14.9651C14.8262 14.931 14.8169 14.9031 14.8055 14.9031C14.7941 14.9031 14.7848 14.8845 14.7848 14.8617C14.7848 14.839 14.7754 14.8203 14.764 14.8203C14.7527 14.8203 14.7433 14.8017 14.7433 14.779C14.7433 14.7562 14.734 14.7376 14.7226 14.7376C14.7112 14.7376 14.7019 14.719 14.7019 14.6962C14.7019 14.6734 14.6926 14.6548 14.6812 14.6548C14.6698 14.6548 14.6605 14.6362 14.6605 14.6135C14.6605 14.5907 14.6512 14.5721 14.6398 14.5721C14.6284 14.5721 14.6191 14.5535 14.6191 14.5307C14.6191 14.5079 14.6097 14.4893 14.5983 14.4893C14.587 14.4893 14.5776 14.4634 14.5776 14.4318C14.5776 14.3981 14.5605 14.362 14.5362 14.3445C14.5119 14.327 14.4948 14.2909 14.4948 14.2572C14.4948 14.2256 14.4855 14.1997 14.4741 14.1997C14.4627 14.1997 14.4534 14.1811 14.4534 14.1583C14.4534 14.1356 14.444 14.1169 14.4326 14.1169C14.4212 14.1169 14.4119 14.0983 14.4119 14.0756C14.4119 14.0528 14.4026 14.0342 14.3912 14.0342C14.3798 14.0342 14.3705 14.0156 14.3705 13.9928C14.3705 13.97 14.3612 13.9514 14.3498 13.9514C14.3384 13.9514 14.3291 13.9328 14.3291 13.9101C14.3291 13.8873 14.3197 13.8687 14.3084 13.8687C14.297 13.8687 14.2876 13.8407 14.2876 13.8066C14.2876 13.7725 14.2783 13.7445 14.2669 13.7445C14.2555 13.7445 14.2462 13.7259 14.2462 13.7032C14.2462 13.6804 14.2369 13.6618 14.2255 13.6618C14.2141 13.6618 14.2048 13.6432 14.2048 13.6204C14.2048 13.5977 14.1955 13.579 14.1841 13.579C14.1727 13.579 14.1634 13.5604 14.1634 13.5377C14.1634 13.5149 14.154 13.4963 14.1427 13.4963C14.1313 13.4963 14.1219 13.4777 14.1219 13.4549C14.1219 13.4322 14.1126 13.4135 14.1012 13.4135C14.0898 13.4135 14.0805 13.3949 14.0805 13.3722C14.0805 13.3494 14.0712 13.3308 14.0598 13.3308C14.0484 13.3308 14.0391 13.3122 14.0391 13.2894C14.0391 13.2667 14.0298 13.248 14.0184 13.248C14.007 13.248 13.9977 13.2294 13.9977 13.2067C13.9977 13.1839 13.9883 13.1653 13.9769 13.1653C13.9656 13.1653 13.9562 13.1374 13.9562 13.1032C13.9562 13.0691 13.9469 13.0412 13.9355 13.0412C13.9241 13.0412 13.9148 13.0225 13.9148 12.9998C13.9148 12.977 13.9055 12.9584 13.8941 12.9584C13.8827 12.9584 13.8734 12.9398 13.8734 12.917C13.8734 12.8943 13.8641 12.8756 13.8527 12.8756C13.8413 12.8756 13.832 12.857 13.832 12.8343C13.832 12.8115 13.8226 12.7929 13.8112 12.7929C13.7998 12.7929 13.7905 12.7743 13.7905 12.7515C13.7905 12.7288 13.7812 12.7101 13.7698 12.7101C13.7584 12.7101 13.7491 12.6915 13.7491 12.6688C13.7491 12.646 13.7398 12.6274 13.7284 12.6274C13.717 12.6274 13.7077 12.6015 13.7077 12.5699C13.7077 12.5361 13.6906 12.5001 13.6662 12.4826C13.6419 12.465 13.6248 12.429 13.6248 12.3952C13.6248 12.3636 13.6155 12.3378 13.6041 12.3378C13.5927 12.3378 13.5834 12.3191 13.5834 12.2964C13.5834 12.2736 13.5741 12.255 13.5627 12.255C13.5513 12.255 13.542 12.2364 13.542 12.2136C13.542 12.1909 13.5326 12.1722 13.5213 12.1722C13.5099 12.1722 13.5005 12.1464 13.5005 12.1148C13.5005 12.081 13.4834 12.045 13.4591 12.0274C13.4363 12.011 13.4177 11.9811 13.4177 11.9608C13.4177 11.9406 13.4084 11.924 13.397 11.924C13.3856 11.924 13.3763 11.8961 13.3763 11.8619C13.3763 11.8278 13.3669 11.7999 13.3555 11.7999C13.3442 11.7999 13.3348 11.7812 13.3348 11.7585C13.3348 11.7357 13.3255 11.7171 13.3141 11.7171C13.3027 11.7171 13.2934 11.6985 13.2934 11.6757C13.2934 11.653 13.2841 11.6344 13.2727 11.6344C13.2613 11.6344 13.252 11.6157 13.252 11.593C13.252 11.5702 13.2427 11.5516 13.2313 11.5516C13.2199 11.5516 13.2106 11.533 13.2106 11.5102C13.2106 11.4875 13.2012 11.4689 13.1898 11.4689C13.1784 11.4689 13.1691 11.4409 13.1691 11.4068C13.1691 11.3727 13.1598 11.3447 13.1484 11.3447C13.137 11.3447 13.1277 11.3282 13.1277 11.3079C13.1277 11.2877 13.1091 11.2577 13.0863 11.2413C13.062 11.2238 13.0448 11.1877 13.0448 11.154C13.0448 11.1223 13.0355 11.0965 13.0241 11.0965C13.0127 11.0965 13.0034 11.0778 13.0034 11.0551C13.0034 11.0323 12.9941 11.0137 12.9827 11.0137C12.9713 11.0137 12.962 10.9858 12.962 10.9516C12.962 10.9175 12.9527 10.8896 12.9413 10.8896C12.9299 10.8896 12.9206 10.873 12.9206 10.8528C12.9206 10.8325 12.9019 10.8026 12.8791 10.7861C12.8548 10.7686 12.8377 10.7326 12.8377 10.6988C12.8377 10.6672 12.8284 10.6413 12.817 10.6413C12.8056 10.6413 12.7963 10.6227 12.7963 10.6C12.7963 10.5772 12.787 10.5586 12.7756 10.5586C12.7642 10.5586 12.7549 10.54 12.7549 10.5172C12.7549 10.4944 12.7455 10.4758 12.7341 10.4758C12.7228 10.4758 12.7134 10.4572 12.7134 10.4344C12.7134 10.4117 12.7041 10.3931 12.6927 10.3931C12.6813 10.3931 12.672 10.3745 12.672 10.3517C12.672 10.3289 12.6627 10.3103 12.6513 10.3103C12.6399 10.3103 12.6306 10.2824 12.6306 10.2483C12.6306 10.2141 12.6213 10.1862 12.6099 10.1862C12.5985 10.1862 12.5892 10.1696 12.5892 10.1494C12.5892 10.1291 12.5705 10.0992 12.5477 10.0827C12.5234 10.0652 12.5063 10.0292 12.5063 9.99542C12.5063 9.96381 12.497 9.93793 12.4856 9.93793C12.4742 9.93793 12.4649 9.91931 12.4649 9.89655C12.4649 9.8738 12.4556 9.85518 12.4442 9.85518C12.4328 9.85518 12.4235 9.83656 12.4235 9.8138C12.4235 9.78622 12.4373 9.77243 12.4649 9.77243C12.4888 9.77243 12.5063 9.75863 12.5063 9.73978C12.5063 9.7218 12.5436 9.67134 12.5892 9.62761C12.6347 9.58387 12.672 9.53733 12.672 9.52417C12.672 9.51101 12.7093 9.46446 12.7549 9.42073C12.8004 9.37699 12.8377 9.33057 12.8377 9.31756C12.8377 9.30456 12.8843 9.24858 12.9413 9.19316C12.9982 9.13773 13.0448 9.08198 13.0448 9.06924C13.0448 9.05647 13.1008 8.99122 13.1691 8.92421C13.2375 8.8572 13.2934 8.79183 13.2934 8.77892C13.2934 8.76601 13.3307 8.71969 13.3763 8.67595C13.4218 8.63222 13.4591 8.58567 13.4591 8.57251C13.4591 8.55936 13.4964 8.51281 13.542 8.46907C13.5875 8.42534 13.6248 8.37488 13.6248 8.3569C13.6248 8.33806 13.6423 8.32426 13.6662 8.32426C13.6904 8.32426 13.7077 8.31046 13.7077 8.29118C13.7077 8.27299 13.7356 8.23201 13.7698 8.20013C13.804 8.16825 13.832 8.12726 13.832 8.10908C13.832 8.0898 13.8492 8.076 13.8734 8.076C13.8973 8.076 13.9148 8.0622 13.9148 8.04335C13.9148 8.02537 13.9521 7.97492 13.9977 7.93118C14.0432 7.88745 14.0805 7.84102 14.0805 7.82801C14.0805 7.81502 14.1271 7.75904 14.1841 7.70361C14.241 7.64819 14.2876 7.59233 14.2876 7.57948C14.2876 7.56664 14.3342 7.51078 14.3912 7.45535C14.4482 7.39993 14.4948 7.34407 14.4948 7.33123C14.4948 7.31838 14.5414 7.26252 14.5983 7.2071C14.6553 7.15167 14.7019 7.09569 14.7019 7.0827C14.7019 7.06969 14.7392 7.02326 14.7848 6.97953C14.8303 6.93579 14.8676 6.88533 14.8676 6.86736C14.8676 6.84851 14.8851 6.83471 14.909 6.83471C14.935 6.83471 14.9505 6.82091 14.9505 6.79791C14.9505 6.77765 14.9691 6.74768 14.9919 6.73127C15.0147 6.71486 15.0333 6.68489 15.0333 6.66463C15.0333 6.6444 15.048 6.62783 15.0659 6.62783C15.1039 6.62783 15.1576 6.57927 15.1576 6.54493C15.1576 6.53186 15.1949 6.48537 15.2405 6.44164C15.286 6.3979 15.3233 6.35135 15.3233 6.3382C15.3233 6.32504 15.3606 6.27849 15.4062 6.23475C15.4517 6.19102 15.489 6.1446 15.489 6.13158C15.489 6.11859 15.5356 6.06261 15.5926 6.00718C15.6495 5.95176 15.6961 5.89601 15.6961 5.88326C15.6961 5.8705 15.7521 5.80525 15.8204 5.73824C15.8888 5.67123 15.9447 5.60598 15.9447 5.59322C15.9447 5.58047 15.9913 5.52472 16.0483 5.46929C16.1052 5.41387 16.1518 5.35801 16.1518 5.34516C16.1518 5.33232 16.1984 5.27646 16.2554 5.22104C16.3124 5.16561 16.359 5.10986 16.359 5.09711C16.359 5.08435 16.4149 5.0191 16.4832 4.95209C16.5516 4.88508 16.6075 4.8195 16.6075 4.80638C16.6075 4.79325 16.6355 4.7564 16.6697 4.72452C16.7038 4.69264 16.7318 4.65166 16.7318 4.63347C16.7318 4.61419 16.7491 4.60039 16.7732 4.60039C16.7972 4.60039 16.8147 4.58659 16.8147 4.56775C16.8147 4.54977 16.8519 4.49931 16.8975 4.45557C16.9431 4.41184 16.9804 4.36529 16.9804 4.35213C16.9804 4.33898 17.0177 4.29243 17.0632 4.24869C17.1088 4.20496 17.1461 4.1545 17.1461 4.13652C17.1461 4.11856 17.1554 4.10388 17.1668 4.10388C17.1782 4.10388 17.1875 4.09457 17.1875 4.08319C17.1875 4.06953 16.5141 4.0625 15.2087 4.0625H13.2299L13.1581 4.13423C13.1186 4.17366 13.0863 4.21648 13.0863 4.22935C13.0863 4.24224 13.0583 4.27888 13.0241 4.31076C12.99 4.34264 12.962 4.37988 12.962 4.39351C12.962 4.40714 12.934 4.44438 12.8999 4.47626C12.8657 4.50814 12.8377 4.54538 12.8377 4.55902C12.8377 4.57265 12.8098 4.60989 12.7756 4.64177C12.7414 4.67365 12.7134 4.71089 12.7134 4.72452C12.7134 4.73815 12.6855 4.77539 12.6513 4.80727C12.6171 4.83915 12.5892 4.88014 12.5892 4.89832C12.5892 4.9176 12.5719 4.9314 12.5477 4.9314C12.5236 4.9314 12.5063 4.9452 12.5063 4.96448C12.5063 4.98267 12.4783 5.02365 12.4442 5.05553C12.41 5.08741 12.382 5.12635 12.382 5.14201C12.382 5.15769 12.3634 5.18394 12.3406 5.20035C12.3178 5.21675 12.2992 5.24301 12.2992 5.25869C12.2992 5.27435 12.2712 5.31328 12.237 5.34516C12.2029 5.37704 12.1749 5.41428 12.1749 5.42792C12.1749 5.44155 12.1469 5.47879 12.1128 5.51067C12.0786 5.54255 12.0506 5.58353 12.0506 5.60172C12.0506 5.621 12.0333 5.6348 12.0092 5.6348C11.9833 5.6348 11.9678 5.6486 11.9678 5.6716C11.9678 5.69186 11.9491 5.72183 11.9263 5.73824C11.9035 5.75464 11.8849 5.78069 11.8849 5.79615C11.8849 5.8116 11.8476 5.86001 11.8021 5.90374C11.7565 5.94748 11.7192 5.99589 11.7192 6.01134C11.7192 6.0268 11.7006 6.05284 11.6778 6.06925C11.655 6.08565 11.6363 6.1117 11.6363 6.12716C11.6363 6.14261 11.5991 6.19102 11.5535 6.23475C11.5079 6.27849 11.4706 6.32504 11.4706 6.3382C11.4706 6.35135 11.4334 6.3979 11.3878 6.44164C11.3422 6.48537 11.3049 6.5321 11.3049 6.54549C11.3049 6.5589 11.277 6.59595 11.2428 6.62783C11.2086 6.65971 11.1807 6.69695 11.1807 6.71058C11.1807 6.72422 11.1527 6.76145 11.1185 6.79333C11.0843 6.82521 11.0564 6.86245 11.0564 6.87609C11.0564 6.88972 11.0284 6.92696 10.9942 6.95884C10.9601 6.99072 10.9321 7.0317 10.9321 7.04989C10.9321 7.06917 10.9148 7.08297 10.8907 7.08297C10.8648 7.08297 10.8492 7.09677 10.8492 7.11977C10.8492 7.14003 10.8306 7.17 10.8078 7.18641C10.785 7.20281 10.7664 7.23279 10.7664 7.25305C10.7664 7.27605 10.7509 7.28985 10.725 7.28985C10.6974 7.28985 10.6835 7.27605 10.6835 7.24847C10.6835 7.22572 10.6742 7.2071 10.6628 7.2071C10.6514 7.2071 10.6421 7.17917 10.6421 7.14503C10.6421 7.1109 10.6328 7.08297 10.6214 7.08297C10.61 7.08297 10.6007 7.06435 10.6007 7.04159C10.6007 7.01883 10.5914 7.00022 10.58 7.00022C10.5686 7.00022 10.5593 6.9816 10.5593 6.95884C10.5593 6.93608 10.5499 6.91746 10.5385 6.91746C10.5272 6.91746 10.5178 6.88953 10.5178 6.8554C10.5178 6.82126 10.5085 6.79333 10.4971 6.79333C10.4857 6.79333 10.4764 6.77471 10.4764 6.75196C10.4764 6.7292 10.4671 6.71058 10.4557 6.71058C10.4443 6.71058 10.435 6.69196 10.435 6.66921C10.435 6.64645 10.4257 6.62783 10.4143 6.62783C10.4029 6.62783 10.3936 6.5999 10.3936 6.56576C10.3936 6.53163 10.3842 6.5037 10.3728 6.5037C10.3614 6.5037 10.3521 6.48508 10.3521 6.46232C10.3521 6.43957 10.3428 6.42095 10.3314 6.42095C10.32 6.42095 10.3107 6.39302 10.3107 6.35888C10.3107 6.32475 10.3014 6.29682 10.29 6.29682C10.2786 6.29682 10.2693 6.2782 10.2693 6.25544C10.2693 6.23269 10.26 6.21407 10.2486 6.21407C10.2372 6.21407 10.2278 6.19545 10.2278 6.17269C10.2278 6.14993 10.2185 6.13131 10.2071 6.13131C10.1957 6.13131 10.1864 6.10338 10.1864 6.06925C10.1864 6.03511 10.1771 6.00718 10.1657 6.00718C10.1543 6.00718 10.145 5.98857 10.145 5.96581C10.145 5.94305 10.1357 5.92443 10.1243 5.92443C10.1129 5.92443 10.1036 5.90581 10.1036 5.88306C10.1036 5.8603 10.0942 5.84168 10.0829 5.84168C10.0715 5.84168 10.0621 5.81375 10.0621 5.77962C10.0621 5.74548 10.0528 5.71755 10.0414 5.71755C10.03 5.71755 10.0207 5.69893 10.0207 5.67617C10.0207 5.65342 10.0114 5.6348 10 5.6348C9.98861 5.6348 9.97929 5.60687 9.97929 5.57273C9.97929 5.5386 9.96997 5.51067 9.95857 5.51067C9.94718 5.51067 9.93786 5.49205 9.93786 5.46929C9.93786 5.44654 9.92854 5.42792 9.91715 5.42792C9.90575 5.42792 9.89643 5.4093 9.89643 5.38654C9.89643 5.36378 9.88711 5.34516 9.87572 5.34516C9.86433 5.34516 9.85501 5.31724 9.85501 5.2831C9.85501 5.24896 9.84569 5.22104 9.83429 5.22104C9.8229 5.22104 9.81358 5.20242 9.81358 5.17966C9.81358 5.1569 9.80426 5.13828 9.79287 5.13828C9.78148 5.13828 9.77215 5.11966 9.77215 5.09691C9.77215 5.07415 9.76283 5.05553 9.75144 5.05553C9.74005 5.05553 9.73073 5.0276 9.73073 4.99347C9.73073 4.95933 9.72141 4.9314 9.71001 4.9314C9.69862 4.9314 9.6893 4.91278 9.6893 4.89003C9.6893 4.86727 9.67998 4.84865 9.66859 4.84865C9.6572 4.84865 9.64787 4.82072 9.64787 4.78658C9.64787 4.75245 9.63855 4.72452 9.62716 4.72452C9.61577 4.72452 9.60645 4.7059 9.60645 4.68314C9.60645 4.66039 9.59713 4.64177 9.58573 4.64177C9.57434 4.64177 9.56502 4.62315 9.56502 4.60039C9.56502 4.57763 9.5557 4.55902 9.54431 4.55902C9.53292 4.55902 9.5236 4.53109 9.5236 4.49695C9.5236 4.46282 9.51427 4.43489 9.50288 4.43489C9.49149 4.43489 9.48217 4.41627 9.48217 4.39351C9.48217 4.37075 9.47285 4.35213 9.46146 4.35213C9.45006 4.35213 9.44074 4.33351 9.44074 4.31076C9.44074 4.288 9.43142 4.26938 9.42003 4.26938C9.40864 4.26938 9.39932 4.24145 9.39932 4.20732C9.39932 4.17318 9.38999 4.14525 9.3786 4.14525C9.36721 4.14525 9.35789 4.12663 9.35789 4.10388C9.35789 4.06279 9.34407 4.0625 7.41084 4.0625C6.12662 4.0625 5.4638 4.06953 5.4638 4.08319Z" fill="#BDC5C1"/>
</g>
<path fill-rule="evenodd" clip-rule="evenodd" d="M5.1513 3.77069C5.1513 3.78207 5.16062 3.79138 5.17201 3.79138C5.1834 3.79138 5.19272 3.81 5.19272 3.83275C5.19272 3.85551 5.20204 3.87413 5.21344 3.87413C5.22483 3.87413 5.23415 3.89275 5.23415 3.91551C5.23415 3.93826 5.24347 3.95688 5.25486 3.95688C5.26626 3.95688 5.27558 3.9755 5.27558 3.99826C5.27558 4.02101 5.2849 4.03963 5.29629 4.03963C5.30768 4.03963 5.317 4.05825 5.317 4.08101C5.317 4.10377 5.32632 4.12239 5.33772 4.12239C5.34911 4.12239 5.35843 4.14101 5.35843 4.16376C5.35843 4.18652 5.36775 4.20514 5.37914 4.20514C5.39053 4.20514 5.39986 4.22376 5.39986 4.24652C5.39986 4.26927 5.40918 4.28789 5.42057 4.28789C5.43196 4.28789 5.44128 4.31582 5.44128 4.34996C5.44128 4.38409 5.4506 4.41202 5.462 4.41202C5.47339 4.41202 5.48271 4.42859 5.48271 4.44882C5.48271 4.46908 5.50135 4.49906 5.52414 4.51546C5.54845 4.53298 5.56556 4.56902 5.56556 4.60279C5.56556 4.6344 5.57488 4.66028 5.58628 4.66028C5.59767 4.66028 5.60699 4.6789 5.60699 4.70165C5.60699 4.72441 5.61631 4.74303 5.6277 4.74303C5.63909 4.74303 5.64842 4.76165 5.64842 4.78441C5.64842 4.80716 5.65774 4.82578 5.66913 4.82578C5.68052 4.82578 5.68984 4.8444 5.68984 4.86716C5.68984 4.88992 5.69916 4.90854 5.71055 4.90854C5.72195 4.90854 5.73127 4.92716 5.73127 4.94991C5.73127 4.97267 5.74059 4.99129 5.75198 4.99129C5.76337 4.99129 5.77269 5.00991 5.77269 5.03266C5.77269 5.05542 5.78202 5.07404 5.79341 5.07404C5.8048 5.07404 5.81412 5.09266 5.81412 5.11542C5.81412 5.13817 5.82344 5.15679 5.83483 5.15679C5.84623 5.15679 5.85555 5.17541 5.85555 5.19817C5.85555 5.22093 5.86487 5.23955 5.87626 5.23955C5.88765 5.23955 5.89697 5.25817 5.89697 5.28092C5.89697 5.30368 5.9063 5.3223 5.91769 5.3223C5.92908 5.3223 5.9384 5.34092 5.9384 5.36367C5.9384 5.38643 5.94772 5.40505 5.95911 5.40505C5.97051 5.40505 5.97983 5.42367 5.97983 5.44643C5.97983 5.46918 5.98915 5.4878 6.00054 5.4878C6.01193 5.4878 6.02125 5.51368 6.02125 5.5453C6.02125 5.57906 6.03836 5.6151 6.06268 5.63262C6.087 5.65014 6.10411 5.68618 6.10411 5.71995C6.10411 5.75156 6.11343 5.77744 6.12482 5.77744C6.13621 5.77744 6.14553 5.79401 6.14553 5.81424C6.14553 5.8345 6.16418 5.86447 6.18696 5.88088C6.21128 5.8984 6.22839 5.93444 6.22839 5.9682C6.22839 5.99981 6.23771 6.0257 6.2491 6.0257C6.26049 6.0257 6.26981 6.04431 6.26981 6.06707C6.26981 6.08983 6.27913 6.10845 6.29053 6.10845C6.30192 6.10845 6.31124 6.12707 6.31124 6.14982C6.31124 6.17258 6.32056 6.1912 6.33195 6.1912C6.34334 6.1912 6.35267 6.20982 6.35267 6.23258C6.35267 6.25533 6.36199 6.27395 6.37338 6.27395C6.38477 6.27395 6.39409 6.29257 6.39409 6.31533C6.39409 6.33809 6.40341 6.35671 6.41481 6.35671C6.4262 6.35671 6.43552 6.37532 6.43552 6.39808C6.43552 6.42084 6.44484 6.43946 6.45623 6.43946C6.46762 6.43946 6.47695 6.45808 6.47695 6.48083C6.47695 6.50359 6.48627 6.52221 6.49766 6.52221C6.50905 6.52221 6.51837 6.54083 6.51837 6.56359C6.51837 6.58634 6.52769 6.60496 6.53908 6.60496C6.55048 6.60496 6.5598 6.63084 6.5598 6.66246C6.5598 6.69622 6.57691 6.73226 6.60122 6.74978C6.62401 6.76619 6.64265 6.79616 6.64265 6.81642C6.64265 6.83665 6.65197 6.85322 6.66336 6.85322C6.67476 6.85322 6.68408 6.8791 6.68408 6.91071C6.68408 6.94448 6.70119 6.98051 6.7255 6.99804C6.74982 7.01556 6.76693 7.0516 6.76693 7.08536C6.76693 7.11697 6.77625 7.14285 6.78764 7.14285C6.79904 7.14285 6.80836 7.16147 6.80836 7.18423C6.80836 7.20699 6.81768 7.22561 6.82907 7.22561C6.84046 7.22561 6.84978 7.24423 6.84978 7.26698C6.84978 7.28974 6.8591 7.30836 6.8705 7.30836C6.88189 7.30836 6.89121 7.32698 6.89121 7.34974C6.89121 7.37249 6.90053 7.39111 6.91192 7.39111C6.92332 7.39111 6.93264 7.40973 6.93264 7.43249C6.93264 7.45525 6.94196 7.47386 6.95335 7.47386C6.96474 7.47386 6.97406 7.49248 6.97406 7.51524C6.97406 7.538 6.98338 7.55662 6.99478 7.55662C7.00617 7.55662 7.01549 7.57524 7.01549 7.59799C7.01549 7.62075 7.02481 7.63937 7.0362 7.63937C7.0476 7.63937 7.05692 7.65799 7.05692 7.68075C7.05692 7.7035 7.06624 7.72212 7.07763 7.72212C7.08902 7.72212 7.09834 7.74074 7.09834 7.7635C7.09834 7.78626 7.10766 7.80487 7.11906 7.80487C7.13045 7.80487 7.13977 7.82349 7.13977 7.84625C7.13977 7.86901 7.14909 7.88763 7.16048 7.88763C7.17188 7.88763 7.1812 7.90625 7.1812 7.929C7.1812 7.95176 7.19052 7.97038 7.20191 7.97038C7.2133 7.97038 7.22262 7.99626 7.22262 8.02787C7.22262 8.06164 7.23973 8.09767 7.26405 8.1152C7.28683 8.1316 7.30548 8.16158 7.30548 8.18183C7.30548 8.20207 7.3148 8.21864 7.32619 8.21864C7.33758 8.21864 7.3469 8.24657 7.3469 8.2807C7.3469 8.31484 7.35622 8.34277 7.36762 8.34277C7.37901 8.34277 7.38833 8.36139 7.38833 8.38414C7.38833 8.4069 7.39765 8.42552 7.40904 8.42552C7.42043 8.42552 7.42976 8.44414 7.42976 8.4669C7.42976 8.48965 7.43908 8.50827 7.45047 8.50827C7.46186 8.50827 7.47118 8.52689 7.47118 8.54965C7.47118 8.5724 7.4805 8.59102 7.49189 8.59102C7.50329 8.59102 7.51261 8.60964 7.51261 8.6324C7.51261 8.65516 7.52193 8.67378 7.53332 8.67378C7.54471 8.67378 7.55403 8.6924 7.55403 8.71515C7.55403 8.73791 7.56336 8.75653 7.57475 8.75653C7.58614 8.75653 7.59546 8.77515 7.59546 8.79791C7.59546 8.82066 7.60478 8.83928 7.61617 8.83928C7.62757 8.83928 7.63689 8.8579 7.63689 8.88066C7.63689 8.90341 7.64621 8.92203 7.6576 8.92203C7.66899 8.92203 7.67831 8.94065 7.67831 8.96341C7.67831 8.98617 7.68763 9.00479 7.69903 9.00479C7.71042 9.00479 7.71974 9.02341 7.71974 9.04616C7.71974 9.06892 7.72906 9.08754 7.74045 9.08754C7.75185 9.08754 7.76117 9.11547 7.76117 9.1496C7.76117 9.18374 7.77049 9.21167 7.78188 9.21167C7.79327 9.21167 7.80259 9.23554 7.80259 9.26473C7.80259 9.30119 7.77018 9.34935 7.69903 9.41855C7.64207 9.47397 7.59546 9.52996 7.59546 9.54295C7.59546 9.55596 7.55818 9.60238 7.51261 9.64612C7.46704 9.68985 7.42976 9.74031 7.42976 9.75829C7.42976 9.77714 7.41225 9.79094 7.38833 9.79094C7.36418 9.79094 7.3469 9.80474 7.3469 9.82402C7.3469 9.8422 7.31894 9.88318 7.28476 9.91506C7.25059 9.94695 7.22262 9.98793 7.22262 10.0061C7.22262 10.0254 7.20535 10.0392 7.1812 10.0392C7.15742 10.0392 7.13977 10.053 7.13977 10.0716C7.13977 10.0894 7.09316 10.1493 7.0362 10.2047C6.97924 10.2601 6.93264 10.3161 6.93264 10.3291C6.93264 10.3421 6.89535 10.3885 6.84978 10.4323C6.80421 10.476 6.76693 10.5265 6.76693 10.5444C6.76693 10.5633 6.74943 10.5771 6.7255 10.5771C6.70135 10.5771 6.68408 10.5909 6.68408 10.6102C6.68408 10.6284 6.65612 10.6693 6.62194 10.7012C6.58776 10.7331 6.5598 10.7741 6.5598 10.7923C6.5598 10.8115 6.54252 10.8253 6.51837 10.8253C6.49459 10.8253 6.47695 10.8391 6.47695 10.8577C6.47695 10.8755 6.43034 10.9354 6.37338 10.9908C6.31642 11.0463 6.26981 11.1023 6.26981 11.1152C6.26981 11.1283 6.23253 11.1747 6.18696 11.2184C6.14139 11.2622 6.10411 11.3126 6.10411 11.3306C6.10411 11.3494 6.0866 11.3632 6.06268 11.3632C6.03853 11.3632 6.02125 11.377 6.02125 11.3963C6.02125 11.4145 5.99329 11.4555 5.95911 11.4874C5.92494 11.5192 5.89697 11.5602 5.89697 11.5784C5.89697 11.5977 5.8797 11.6115 5.85555 11.6115C5.83177 11.6115 5.81412 11.6253 5.81412 11.6439C5.81412 11.6617 5.76752 11.7216 5.71055 11.777C5.65359 11.8324 5.60699 11.8884 5.60699 11.9014C5.60699 11.9144 5.5697 11.9608 5.52414 12.0046C5.47857 12.0483 5.44128 12.0988 5.44128 12.1167C5.44128 12.1356 5.42378 12.1494 5.39986 12.1494C5.3757 12.1494 5.35843 12.1632 5.35843 12.1825C5.35843 12.2006 5.33047 12.2416 5.29629 12.2735C5.26211 12.3054 5.23415 12.3464 5.23415 12.3646C5.23415 12.3838 5.21688 12.3976 5.19272 12.3976C5.16894 12.3976 5.1513 12.4114 5.1513 12.43C5.1513 12.4478 5.10469 12.5077 5.04773 12.5631C4.99077 12.6186 4.94416 12.6746 4.94416 12.6875C4.94416 12.7006 4.90688 12.747 4.86131 12.7907C4.81574 12.8345 4.77846 12.8849 4.77846 12.9029C4.77846 12.9217 4.76096 12.9355 4.73703 12.9355C4.71288 12.9355 4.69561 12.9493 4.69561 12.9686C4.69561 12.9868 4.66764 13.0278 4.63347 13.0597C4.59929 13.0915 4.57133 13.1325 4.57133 13.1507C4.57133 13.17 4.55405 13.1838 4.5299 13.1838C4.50598 13.1838 4.48847 13.1976 4.48847 13.2164C4.48847 13.2344 4.45119 13.2849 4.40562 13.3286C4.36005 13.3723 4.32277 13.4188 4.32277 13.4318C4.32277 13.4448 4.27616 13.5008 4.2192 13.5562C4.16224 13.6116 4.11563 13.6715 4.11563 13.6893C4.11563 13.7079 4.09799 13.7217 4.07421 13.7217C4.05006 13.7217 4.03278 13.7355 4.03278 13.7548C4.03278 13.7729 4.00482 13.8139 3.97064 13.8458C3.93646 13.8777 3.9085 13.9187 3.9085 13.9369C3.9085 13.9561 3.89123 13.9699 3.86707 13.9699C3.84315 13.9699 3.82565 13.9837 3.82565 14.0026C3.82565 14.0206 3.78836 14.071 3.7428 14.1148C3.69723 14.1585 3.65994 14.2049 3.65994 14.2179C3.65994 14.2309 3.61334 14.2869 3.55638 14.3423C3.49941 14.3977 3.45281 14.4576 3.45281 14.4755C3.45281 14.494 3.43516 14.5078 3.41138 14.5078C3.38723 14.5078 3.36996 14.5216 3.36996 14.5409C3.36996 14.5591 3.34199 14.6001 3.30782 14.632C3.27364 14.6638 3.24568 14.7048 3.24568 14.723C3.24568 14.7423 3.2284 14.7561 3.20425 14.7561C3.18033 14.7561 3.16282 14.7699 3.16282 14.7887C3.16282 14.8067 3.12554 14.8572 3.07997 14.9009C3.0344 14.9446 2.99712 14.9911 2.99712 15.0041C2.99712 15.0171 2.95051 15.0731 2.89355 15.1285C2.83659 15.1839 2.78999 15.2438 2.78999 15.2616C2.78999 15.2802 2.77234 15.294 2.74856 15.294C2.72441 15.294 2.70713 15.3078 2.70713 15.3271C2.70713 15.3452 2.67917 15.3862 2.64499 15.4181C2.61082 15.45 2.58285 15.491 2.58285 15.5092C2.58285 15.5284 2.56558 15.5422 2.54143 15.5422C2.51382 15.5422 2.5 15.556 2.5 15.5836C2.5 15.6247 2.51382 15.625 4.54119 15.625H6.5824L6.63323 15.5742C6.66119 15.5463 6.68408 15.5128 6.68408 15.4998C6.68408 15.4867 6.71204 15.45 6.74622 15.4181C6.78039 15.3862 6.80836 15.3492 6.80836 15.3358C6.80836 15.3224 6.84564 15.2757 6.89121 15.2319C6.93678 15.1882 6.97406 15.1414 6.97406 15.1281C6.97406 15.1147 7.00203 15.0776 7.0362 15.0457C7.07038 15.0138 7.09834 14.9766 7.09834 14.963C7.09834 14.9493 7.12631 14.9121 7.16048 14.8802C7.19466 14.8483 7.22262 14.8113 7.22262 14.7979C7.22262 14.7845 7.25991 14.7378 7.30548 14.694C7.35104 14.6503 7.38833 14.6019 7.38833 14.5864C7.38833 14.571 7.40697 14.5449 7.42976 14.5285C7.45254 14.5121 7.47118 14.4821 7.47118 14.4619C7.47118 14.4389 7.4867 14.4251 7.51261 14.4251C7.53676 14.4251 7.55403 14.4113 7.55403 14.392C7.55403 14.3738 7.582 14.3328 7.61617 14.301C7.65035 14.2691 7.67831 14.2301 7.67831 14.2145C7.67831 14.1988 7.69696 14.1725 7.71974 14.1561C7.74253 14.1397 7.76117 14.1135 7.76117 14.0978C7.76117 14.0821 7.78913 14.0432 7.82331 14.0113C7.85748 13.9794 7.88545 13.9422 7.88545 13.9286C7.88545 13.9149 7.91341 13.8777 7.94759 13.8458C7.98176 13.8139 8.00973 13.7769 8.00973 13.7635C8.00973 13.7501 8.04701 13.7034 8.09258 13.6596C8.13815 13.6159 8.17543 13.5693 8.17543 13.5562C8.17543 13.543 8.21272 13.4965 8.25829 13.4527C8.30385 13.409 8.34114 13.3606 8.34114 13.3451C8.34114 13.3297 8.35978 13.3036 8.38257 13.2872C8.40535 13.2708 8.42399 13.2448 8.42399 13.2293C8.42399 13.2139 8.46128 13.1655 8.50684 13.1217C8.55241 13.078 8.5897 13.0296 8.5897 13.0141C8.5897 12.9987 8.60834 12.9726 8.63112 12.9562C8.65391 12.9398 8.67255 12.9098 8.67255 12.8896C8.67255 12.8666 8.68806 12.8528 8.71398 12.8528C8.73813 12.8528 8.7554 12.839 8.7554 12.8197C8.7554 12.8015 8.78337 12.7605 8.81754 12.7287C8.85172 12.6968 8.87968 12.6595 8.87968 12.6459C8.87968 12.6323 8.90765 12.595 8.94182 12.5631C8.976 12.5313 9.00396 12.4923 9.00396 12.4767C9.00396 12.461 9.0226 12.4347 9.04539 12.4183C9.06817 12.4019 9.08682 12.3757 9.08682 12.36C9.08682 12.3443 9.11478 12.3054 9.14896 12.2735C9.18313 12.2416 9.2111 12.2046 9.2111 12.1912C9.2111 12.1778 9.24838 12.1311 9.29395 12.0873C9.33952 12.0436 9.3768 11.9971 9.3768 11.984C9.3768 11.9497 9.43053 11.9011 9.46854 11.9011C9.48726 11.9011 9.50108 11.9187 9.50108 11.9425C9.50108 11.9653 9.5104 11.9839 9.52179 11.9839C9.53319 11.9839 9.54251 12.0191 9.54251 12.0621C9.54251 12.1165 9.55508 12.1493 9.58393 12.1701C9.60825 12.1876 9.62536 12.2236 9.62536 12.2574C9.62536 12.289 9.63468 12.3149 9.64607 12.3149C9.65747 12.3149 9.66679 12.3428 9.66679 12.377C9.66679 12.4111 9.67611 12.439 9.6875 12.439C9.69889 12.439 9.70821 12.4576 9.70821 12.4804C9.70821 12.5032 9.71753 12.5218 9.72893 12.5218C9.74032 12.5218 9.74964 12.5497 9.74964 12.5838C9.74964 12.618 9.75896 12.6459 9.77035 12.6459C9.78175 12.6459 9.79107 12.6645 9.79107 12.6873C9.79107 12.71 9.80039 12.7287 9.81178 12.7287C9.82317 12.7287 9.83249 12.7566 9.83249 12.7907C9.83249 12.8249 9.84181 12.8528 9.85321 12.8528C9.8646 12.8528 9.87392 12.8807 9.87392 12.9148C9.87392 12.949 9.88324 12.9769 9.89463 12.9769C9.90602 12.9769 9.91535 12.9955 9.91535 13.0183C9.91535 13.041 9.92467 13.0597 9.93606 13.0597C9.94745 13.0597 9.95677 13.0783 9.95677 13.101C9.95677 13.1238 9.96609 13.1424 9.97749 13.1424C9.98888 13.1424 9.9982 13.1703 9.9982 13.2045C9.9982 13.2386 10.0075 13.2665 10.0189 13.2665C10.0303 13.2665 10.0396 13.2852 10.0396 13.3079C10.0396 13.3307 10.0489 13.3493 10.0603 13.3493C10.0717 13.3493 10.0811 13.3865 10.0811 13.432C10.0811 13.4776 10.0904 13.5148 10.1018 13.5148C10.1132 13.5148 10.1225 13.5334 10.1225 13.5562C10.1225 13.5789 10.1318 13.5976 10.1432 13.5976C10.1546 13.5976 10.1639 13.6162 10.1639 13.6389C10.1639 13.6617 10.1732 13.6803 10.1846 13.6803C10.196 13.6803 10.2053 13.7082 10.2053 13.7424C10.2053 13.7765 10.2147 13.8044 10.226 13.8044C10.2374 13.8044 10.2468 13.8231 10.2468 13.8458C10.2468 13.8686 10.2561 13.8872 10.2675 13.8872C10.2789 13.8872 10.2882 13.9058 10.2882 13.9286C10.2882 13.9513 10.2975 13.9699 10.3089 13.9699C10.3203 13.9699 10.3296 14.0072 10.3296 14.0527C10.3296 14.0982 10.3389 14.1354 10.3503 14.1354C10.3617 14.1354 10.371 14.1541 10.371 14.1768C10.371 14.1996 10.3804 14.2182 10.3918 14.2182C10.4031 14.2182 10.4125 14.2461 10.4125 14.2803C10.4125 14.3144 10.4218 14.3423 10.4332 14.3423C10.4446 14.3423 10.4539 14.3609 10.4539 14.3837C10.4539 14.4065 10.4632 14.4251 10.4746 14.4251C10.486 14.4251 10.4953 14.4437 10.4953 14.4665C10.4953 14.4892 10.5046 14.5078 10.516 14.5078C10.5274 14.5078 10.5367 14.5358 10.5367 14.5699C10.5367 14.604 10.5461 14.632 10.5575 14.632C10.5688 14.632 10.5782 14.6599 10.5782 14.694C10.5782 14.7282 10.5875 14.7561 10.5989 14.7561C10.6103 14.7561 10.6196 14.7747 10.6196 14.7975C10.6196 14.8202 10.6289 14.8388 10.6403 14.8388C10.6517 14.8388 10.661 14.8668 10.661 14.9009C10.661 14.935 10.6703 14.963 10.6817 14.963C10.6931 14.963 10.7024 14.9816 10.7024 15.0043C10.7024 15.0271 10.7118 15.0457 10.7232 15.0457C10.7346 15.0457 10.7439 15.0737 10.7439 15.1078C10.7439 15.1419 10.7532 15.1699 10.7646 15.1699C10.776 15.1699 10.7853 15.1885 10.7853 15.2112C10.7853 15.234 10.7946 15.2526 10.806 15.2526C10.8174 15.2526 10.8267 15.2712 10.8267 15.294C10.8267 15.3167 10.8361 15.3354 10.8474 15.3354C10.8588 15.3354 10.8682 15.3726 10.8682 15.4181C10.8682 15.4636 10.8775 15.5009 10.8889 15.5009C10.9003 15.5009 10.9096 15.5155 10.9096 15.5334C10.9096 15.6278 10.846 15.625 12.9691 15.625C14.2888 15.625 14.9694 15.618 14.9694 15.6043C14.9694 15.5929 14.9601 15.5836 14.9487 15.5836C14.9373 15.5836 14.928 15.565 14.928 15.5422C14.928 15.5195 14.9186 15.5009 14.9072 15.5009C14.8958 15.5009 14.8865 15.4822 14.8865 15.4595C14.8865 15.4367 14.8772 15.4181 14.8658 15.4181C14.8544 15.4181 14.8451 15.3922 14.8451 15.3606C14.8451 15.3269 14.828 15.2908 14.8037 15.2733C14.7809 15.2569 14.7622 15.2269 14.7622 15.2067C14.7622 15.1864 14.7529 15.1699 14.7415 15.1699C14.7301 15.1699 14.7208 15.1419 14.7208 15.1078C14.7208 15.0737 14.7115 15.0457 14.7001 15.0457C14.6887 15.0457 14.6794 15.0271 14.6794 15.0043C14.6794 14.9816 14.6701 14.963 14.6587 14.963C14.6473 14.963 14.638 14.9371 14.638 14.9055C14.638 14.8717 14.6209 14.8357 14.5965 14.8182C14.5738 14.8017 14.5551 14.7718 14.5551 14.7515C14.5551 14.7313 14.5458 14.7147 14.5344 14.7147C14.523 14.7147 14.5137 14.6868 14.5137 14.6526C14.5137 14.6185 14.5044 14.5906 14.493 14.5906C14.4816 14.5906 14.4723 14.572 14.4723 14.5492C14.4723 14.5265 14.4629 14.5078 14.4515 14.5078C14.4402 14.5078 14.4308 14.4892 14.4308 14.4665C14.4308 14.4437 14.4215 14.4251 14.4101 14.4251C14.3987 14.4251 14.3894 14.4065 14.3894 14.3837C14.3894 14.3609 14.3801 14.3423 14.3687 14.3423C14.3573 14.3423 14.348 14.3237 14.348 14.301C14.348 14.2782 14.3387 14.2596 14.3273 14.2596C14.3159 14.2596 14.3066 14.241 14.3066 14.2182C14.3066 14.1954 14.2972 14.1768 14.2858 14.1768C14.2745 14.1768 14.2651 14.1509 14.2651 14.1193C14.2651 14.0856 14.248 14.0495 14.2237 14.032C14.1994 14.0145 14.1823 13.9784 14.1823 13.9447C14.1823 13.9131 14.173 13.8872 14.1616 13.8872C14.1502 13.8872 14.1409 13.8686 14.1409 13.8458C14.1409 13.8231 14.1315 13.8044 14.1201 13.8044C14.1087 13.8044 14.0994 13.7858 14.0994 13.7631C14.0994 13.7403 14.0901 13.7217 14.0787 13.7217C14.0673 13.7217 14.058 13.7031 14.058 13.6803C14.058 13.6575 14.0487 13.6389 14.0373 13.6389C14.0259 13.6389 14.0166 13.6203 14.0166 13.5976C14.0166 13.5748 14.0072 13.5562 13.9959 13.5562C13.9845 13.5562 13.9751 13.5282 13.9751 13.4941C13.9751 13.46 13.9658 13.432 13.9544 13.432C13.943 13.432 13.9337 13.4134 13.9337 13.3907C13.9337 13.3679 13.9244 13.3493 13.913 13.3493C13.9016 13.3493 13.8923 13.3307 13.8923 13.3079C13.8923 13.2852 13.883 13.2665 13.8716 13.2665C13.8602 13.2665 13.8509 13.2479 13.8509 13.2252C13.8509 13.2024 13.8415 13.1838 13.8302 13.1838C13.8188 13.1838 13.8094 13.1652 13.8094 13.1424C13.8094 13.1197 13.8001 13.101 13.7887 13.101C13.7773 13.101 13.768 13.0824 13.768 13.0597C13.768 13.0369 13.7587 13.0183 13.7473 13.0183C13.7359 13.0183 13.7266 12.9997 13.7266 12.9769C13.7266 12.9542 13.7173 12.9355 13.7059 12.9355C13.6945 12.9355 13.6852 12.9169 13.6852 12.8942C13.6852 12.8714 13.6758 12.8528 13.6644 12.8528C13.6531 12.8528 13.6437 12.8249 13.6437 12.7907C13.6437 12.7566 13.6344 12.7287 13.623 12.7287C13.6116 12.7287 13.6023 12.71 13.6023 12.6873C13.6023 12.6645 13.593 12.6459 13.5816 12.6459C13.5702 12.6459 13.5609 12.6273 13.5609 12.6045C13.5609 12.5818 13.5516 12.5631 13.5402 12.5631C13.5288 12.5631 13.5195 12.5445 13.5195 12.5218C13.5195 12.499 13.5101 12.4804 13.4987 12.4804C13.4873 12.4804 13.478 12.4618 13.478 12.439C13.478 12.4163 13.4687 12.3976 13.4573 12.3976C13.4459 12.3976 13.4366 12.379 13.4366 12.3563C13.4366 12.3335 13.4273 12.3149 13.4159 12.3149C13.4045 12.3149 13.3952 12.289 13.3952 12.2574C13.3952 12.2236 13.3781 12.1876 13.3537 12.1701C13.3294 12.1525 13.3123 12.1165 13.3123 12.0827C13.3123 12.0511 13.303 12.0253 13.2916 12.0253C13.2802 12.0253 13.2709 12.0066 13.2709 11.9839C13.2709 11.9611 13.2616 11.9425 13.2502 11.9425C13.2388 11.9425 13.2295 11.9239 13.2295 11.9011C13.2295 11.8784 13.2201 11.8597 13.2088 11.8597C13.1974 11.8597 13.188 11.8339 13.188 11.8023C13.188 11.7685 13.1709 11.7325 13.1466 11.7149C13.1238 11.6985 13.1052 11.6686 13.1052 11.6483C13.1052 11.6281 13.0959 11.6115 13.0845 11.6115C13.0731 11.6115 13.0638 11.5836 13.0638 11.5494C13.0638 11.5153 13.0544 11.4874 13.043 11.4874C13.0317 11.4874 13.0223 11.4687 13.0223 11.446C13.0223 11.4232 13.013 11.4046 13.0016 11.4046C12.9902 11.4046 12.9809 11.386 12.9809 11.3632C12.9809 11.3405 12.9716 11.3219 12.9602 11.3219C12.9488 11.3219 12.9395 11.3032 12.9395 11.2805C12.9395 11.2577 12.9302 11.2391 12.9188 11.2391C12.9074 11.2391 12.8981 11.2205 12.8981 11.1977C12.8981 11.175 12.8887 11.1564 12.8773 11.1564C12.8659 11.1564 12.8566 11.1284 12.8566 11.0943C12.8566 11.0602 12.8473 11.0322 12.8359 11.0322C12.8245 11.0322 12.8152 11.0157 12.8152 10.9954C12.8152 10.9752 12.7966 10.9452 12.7738 10.9288C12.7495 10.9113 12.7323 10.8752 12.7323 10.8415C12.7323 10.8098 12.723 10.784 12.7116 10.784C12.7002 10.784 12.6909 10.7653 12.6909 10.7426C12.6909 10.7198 12.6816 10.7012 12.6702 10.7012C12.6588 10.7012 12.6495 10.6733 12.6495 10.6391C12.6495 10.605 12.6402 10.5771 12.6288 10.5771C12.6174 10.5771 12.6081 10.5605 12.6081 10.5403C12.6081 10.52 12.5894 10.4901 12.5666 10.4736C12.5423 10.4561 12.5252 10.4201 12.5252 10.3863C12.5252 10.3547 12.5159 10.3288 12.5045 10.3288C12.4931 10.3288 12.4838 10.3102 12.4838 10.2875C12.4838 10.2647 12.4745 10.2461 12.4631 10.2461C12.4517 10.2461 12.4424 10.2275 12.4424 10.2047C12.4424 10.1819 12.433 10.1633 12.4216 10.1633C12.4103 10.1633 12.4009 10.1447 12.4009 10.1219C12.4009 10.0992 12.3916 10.0806 12.3802 10.0806C12.3688 10.0806 12.3595 10.062 12.3595 10.0392C12.3595 10.0164 12.3502 9.99782 12.3388 9.99782C12.3274 9.99782 12.3181 9.96989 12.3181 9.93575C12.3181 9.90162 12.3088 9.87369 12.2974 9.87369C12.286 9.87369 12.2767 9.85712 12.2767 9.83688C12.2767 9.81663 12.258 9.78665 12.2352 9.77025C12.2109 9.75273 12.1938 9.71669 12.1938 9.68292C12.1938 9.65131 12.1845 9.62543 12.1731 9.62543C12.1617 9.62543 12.1524 9.60681 12.1524 9.58405C12.1524 9.5613 12.1431 9.54268 12.1317 9.54268C12.1203 9.54268 12.111 9.52406 12.111 9.5013C12.111 9.47372 12.1248 9.45993 12.1524 9.45993C12.1763 9.45993 12.1938 9.44613 12.1938 9.42728C12.1938 9.4093 12.2311 9.35884 12.2767 9.31511C12.3222 9.27137 12.3595 9.22483 12.3595 9.21167C12.3595 9.19851 12.3968 9.15196 12.4424 9.10823C12.4879 9.06449 12.5252 9.01807 12.5252 9.00506C12.5252 8.99206 12.5718 8.93608 12.6288 8.88066C12.6857 8.82523 12.7323 8.76948 12.7323 8.75674C12.7323 8.74397 12.7883 8.67872 12.8566 8.61171C12.925 8.5447 12.9809 8.47933 12.9809 8.46642C12.9809 8.45351 13.0182 8.40719 13.0638 8.36345C13.1093 8.31972 13.1466 8.27317 13.1466 8.26001C13.1466 8.24686 13.1839 8.20031 13.2295 8.15657C13.275 8.11284 13.3123 8.06238 13.3123 8.0444C13.3123 8.02556 13.3298 8.01176 13.3537 8.01176C13.3779 8.01176 13.3952 7.99796 13.3952 7.97868C13.3952 7.96049 13.4231 7.91951 13.4573 7.88763C13.4915 7.85575 13.5195 7.81476 13.5195 7.79658C13.5195 7.7773 13.5367 7.7635 13.5609 7.7635C13.5848 7.7635 13.6023 7.7497 13.6023 7.73085C13.6023 7.71287 13.6396 7.66242 13.6852 7.61868C13.7307 7.57495 13.768 7.52852 13.768 7.51551C13.768 7.50252 13.8146 7.44654 13.8716 7.39111C13.9285 7.33569 13.9751 7.27983 13.9751 7.26698C13.9751 7.25414 14.0217 7.19828 14.0787 7.14285C14.1357 7.08743 14.1823 7.03157 14.1823 7.01873C14.1823 7.00588 14.2289 6.95002 14.2858 6.8946C14.3428 6.83917 14.3894 6.78319 14.3894 6.7702C14.3894 6.75719 14.4267 6.71076 14.4723 6.66703C14.5178 6.62329 14.5551 6.57283 14.5551 6.55486C14.5551 6.53601 14.5726 6.52221 14.5965 6.52221C14.6225 6.52221 14.638 6.50841 14.638 6.48541C14.638 6.46515 14.6566 6.43518 14.6794 6.41877C14.7022 6.40236 14.7208 6.37239 14.7208 6.35213C14.7208 6.3319 14.7355 6.31533 14.7534 6.31533C14.7914 6.31533 14.8451 6.26677 14.8451 6.23243C14.8451 6.21936 14.8824 6.17287 14.928 6.12914C14.9735 6.0854 15.0108 6.03885 15.0108 6.0257C15.0108 6.01254 15.0481 5.96599 15.0937 5.92225C15.1392 5.87852 15.1765 5.8321 15.1765 5.81908C15.1765 5.80609 15.2231 5.75011 15.2801 5.69468C15.337 5.63926 15.3836 5.58351 15.3836 5.57076C15.3836 5.558 15.4396 5.49275 15.5079 5.42574C15.5763 5.35873 15.6322 5.29348 15.6322 5.28072C15.6322 5.26797 15.6788 5.21222 15.7358 5.15679C15.7927 5.10137 15.8393 5.04551 15.8393 5.03266C15.8393 5.01982 15.8859 4.96396 15.9429 4.90854C15.9999 4.85311 16.0465 4.79736 16.0465 4.78461C16.0465 4.77185 16.1024 4.7066 16.1707 4.63959C16.2391 4.57258 16.295 4.507 16.295 4.49388C16.295 4.48075 16.323 4.4439 16.3572 4.41202C16.3913 4.38014 16.4193 4.33916 16.4193 4.32097C16.4193 4.30169 16.4366 4.28789 16.4607 4.28789C16.4847 4.28789 16.5022 4.27409 16.5022 4.25525C16.5022 4.23727 16.5394 4.18681 16.585 4.14307C16.6306 4.09934 16.6679 4.05279 16.6679 4.03963C16.6679 4.02648 16.7052 3.97993 16.7507 3.93619C16.7963 3.89246 16.8336 3.842 16.8336 3.82402C16.8336 3.80606 16.8429 3.79138 16.8543 3.79138C16.8657 3.79138 16.875 3.78207 16.875 3.77069C16.875 3.75703 16.2016 3.75 14.8962 3.75H12.9174L12.8456 3.82173C12.8061 3.86116 12.7738 3.90398 12.7738 3.91685C12.7738 3.92974 12.7458 3.96638 12.7116 3.99826C12.6775 4.03014 12.6495 4.06738 12.6495 4.08101C12.6495 4.09464 12.6215 4.13188 12.5874 4.16376C12.5532 4.19564 12.5252 4.23288 12.5252 4.24652C12.5252 4.26015 12.4973 4.29739 12.4631 4.32927C12.4289 4.36115 12.4009 4.39839 12.4009 4.41202C12.4009 4.42565 12.373 4.46289 12.3388 4.49477C12.3046 4.52665 12.2767 4.56764 12.2767 4.58582C12.2767 4.6051 12.2594 4.6189 12.2352 4.6189C12.2111 4.6189 12.1938 4.6327 12.1938 4.65198C12.1938 4.67017 12.1658 4.71115 12.1317 4.74303C12.0975 4.77491 12.0695 4.81385 12.0695 4.82951C12.0695 4.84519 12.0509 4.87144 12.0281 4.88785C12.0053 4.90425 11.9867 4.93051 11.9867 4.94619C11.9867 4.96185 11.9587 5.00078 11.9245 5.03266C11.8904 5.06454 11.8624 5.10178 11.8624 5.11542C11.8624 5.12905 11.8344 5.16629 11.8003 5.19817C11.7661 5.23005 11.7381 5.27103 11.7381 5.28922C11.7381 5.3085 11.7208 5.3223 11.6967 5.3223C11.6708 5.3223 11.6553 5.3361 11.6553 5.3591C11.6553 5.37936 11.6366 5.40933 11.6138 5.42574C11.591 5.44214 11.5724 5.46819 11.5724 5.48365C11.5724 5.4991 11.5351 5.54751 11.4896 5.59124C11.444 5.63498 11.4067 5.68339 11.4067 5.69884C11.4067 5.7143 11.3881 5.74034 11.3653 5.75675C11.3425 5.77315 11.3238 5.7992 11.3238 5.81466C11.3238 5.83011 11.2866 5.87852 11.241 5.92225C11.1954 5.96599 11.1581 6.01254 11.1581 6.0257C11.1581 6.03885 11.1209 6.0854 11.0753 6.12914C11.0297 6.17287 10.9924 6.2196 10.9924 6.23299C10.9924 6.2464 10.9645 6.28345 10.9303 6.31533C10.8961 6.34721 10.8682 6.38445 10.8682 6.39808C10.8682 6.41172 10.8402 6.44895 10.806 6.48083C10.7718 6.51271 10.7439 6.54995 10.7439 6.56359C10.7439 6.57722 10.7159 6.61446 10.6817 6.64634C10.6476 6.67822 10.6196 6.7192 10.6196 6.73739C10.6196 6.75667 10.6023 6.77047 10.5782 6.77047C10.5523 6.77047 10.5367 6.78427 10.5367 6.80727C10.5367 6.82753 10.5181 6.8575 10.4953 6.87391C10.4725 6.89031 10.4539 6.92029 10.4539 6.94055C10.4539 6.96355 10.4384 6.97735 10.4125 6.97735C10.3849 6.97735 10.371 6.96355 10.371 6.93597C10.371 6.91322 10.3617 6.8946 10.3503 6.8946C10.3389 6.8946 10.3296 6.86667 10.3296 6.83253C10.3296 6.7984 10.3203 6.77047 10.3089 6.77047C10.2975 6.77047 10.2882 6.75185 10.2882 6.72909C10.2882 6.70633 10.2789 6.68772 10.2675 6.68772C10.2561 6.68772 10.2468 6.6691 10.2468 6.64634C10.2468 6.62358 10.2374 6.60496 10.226 6.60496C10.2147 6.60496 10.2053 6.57703 10.2053 6.5429C10.2053 6.50876 10.196 6.48083 10.1846 6.48083C10.1732 6.48083 10.1639 6.46221 10.1639 6.43946C10.1639 6.4167 10.1546 6.39808 10.1432 6.39808C10.1318 6.39808 10.1225 6.37946 10.1225 6.35671C10.1225 6.33395 10.1132 6.31533 10.1018 6.31533C10.0904 6.31533 10.0811 6.2874 10.0811 6.25326C10.0811 6.21913 10.0717 6.1912 10.0603 6.1912C10.0489 6.1912 10.0396 6.17258 10.0396 6.14982C10.0396 6.12707 10.0303 6.10845 10.0189 6.10845C10.0075 6.10845 9.9982 6.08052 9.9982 6.04638C9.9982 6.01225 9.98888 5.98432 9.97749 5.98432C9.96609 5.98432 9.95677 5.9657 9.95677 5.94294C9.95677 5.92019 9.94745 5.90157 9.93606 5.90157C9.92467 5.90157 9.91535 5.88295 9.91535 5.86019C9.91535 5.83743 9.90602 5.81881 9.89463 5.81881C9.88324 5.81881 9.87392 5.79088 9.87392 5.75675C9.87392 5.72261 9.8646 5.69468 9.85321 5.69468C9.84181 5.69468 9.83249 5.67607 9.83249 5.65331C9.83249 5.63055 9.82317 5.61193 9.81178 5.61193C9.80039 5.61193 9.79107 5.59331 9.79107 5.57056C9.79107 5.5478 9.78175 5.52918 9.77035 5.52918C9.75896 5.52918 9.74964 5.50125 9.74964 5.46712C9.74964 5.43298 9.74032 5.40505 9.72893 5.40505C9.71753 5.40505 9.70821 5.38643 9.70821 5.36367C9.70821 5.34092 9.69889 5.3223 9.6875 5.3223C9.67611 5.3223 9.66679 5.29437 9.66679 5.26023C9.66679 5.2261 9.65747 5.19817 9.64607 5.19817C9.63468 5.19817 9.62536 5.17955 9.62536 5.15679C9.62536 5.13404 9.61604 5.11542 9.60465 5.11542C9.59325 5.11542 9.58393 5.0968 9.58393 5.07404C9.58393 5.05128 9.57461 5.03266 9.56322 5.03266C9.55183 5.03266 9.54251 5.00474 9.54251 4.9706C9.54251 4.93646 9.53319 4.90854 9.52179 4.90854C9.5104 4.90854 9.50108 4.88992 9.50108 4.86716C9.50108 4.8444 9.49176 4.82578 9.48037 4.82578C9.46898 4.82578 9.45965 4.80716 9.45965 4.78441C9.45965 4.76165 9.45033 4.74303 9.43894 4.74303C9.42755 4.74303 9.41823 4.7151 9.41823 4.68097C9.41823 4.64683 9.40891 4.6189 9.39751 4.6189C9.38612 4.6189 9.3768 4.60028 9.3768 4.57753C9.3768 4.55477 9.36748 4.53615 9.35609 4.53615C9.3447 4.53615 9.33537 4.50822 9.33537 4.47408C9.33537 4.43995 9.32605 4.41202 9.31466 4.41202C9.30327 4.41202 9.29395 4.3934 9.29395 4.37064C9.29395 4.34789 9.28463 4.32927 9.27323 4.32927C9.26184 4.32927 9.25252 4.31065 9.25252 4.28789C9.25252 4.26513 9.2432 4.24652 9.23181 4.24652C9.22042 4.24652 9.2111 4.21859 9.2111 4.18445C9.2111 4.15032 9.20177 4.12239 9.19038 4.12239C9.17899 4.12239 9.16967 4.10377 9.16967 4.08101C9.16967 4.05825 9.16035 4.03963 9.14896 4.03963C9.13756 4.03963 9.12824 4.02101 9.12824 3.99826C9.12824 3.9755 9.11892 3.95688 9.10753 3.95688C9.09614 3.95688 9.08682 3.92895 9.08682 3.89482C9.08682 3.86068 9.07749 3.83275 9.0661 3.83275C9.05471 3.83275 9.04539 3.81413 9.04539 3.79138C9.04539 3.75029 9.03157 3.75 7.09834 3.75C5.81412 3.75 5.1513 3.75703 5.1513 3.77069Z" fill="url(#paint0_linear_3340_20147)"/>
<defs>
<filter id="filter0_f_3340_20147" x="1.8125" y="3.0625" width="16.375" height="13.875" filterUnits="userSpaceOnUse" color-interpolation-filters="sRGB">
<feFlood flood-opacity="0" result="BackgroundImageFix"/>
<feBlend mode="normal" in="SourceGraphic" in2="BackgroundImageFix" result="shape"/>
<feGaussianBlur stdDeviation="0.5" result="effect1_foregroundBlur_3340_20147"/>
</filter>
<linearGradient id="paint0_linear_3340_20147" x1="9.6875" y1="3.75" x2="9.6875" y2="15.625" gradientUnits="userSpaceOnUse">
<stop stop-color="#A02AA3"/>
<stop offset="0.510816" stop-color="#FB145A"/>
<stop offset="1" stop-color="#F86628"/>
</linearGradient>
</defs>
</svg>
