<svg width="20" height="20" viewBox="0 0 20 20" fill="none" xmlns="http://www.w3.org/2000/svg">
<circle cx="10" cy="10" r="10" fill="#06250B"/>
<path d="M11.1406 8.7453H12.526V12.914H11.1406V8.7453Z" fill="#3AAC59"/>
<path d="M9.23824 8.43156C8.70559 8.43156 8.16094 8.56283 8.02533 8.80715C8.0235 8.81023 8.02171 8.81309 8.01998 8.81627V7.06726H6.59752V9.84196V9.84672C6.73902 9.91342 6.88413 9.98965 7.03094 10.0758C7.0806 10.1051 7.12262 10.1307 7.1536 10.1499C7.17307 10.1619 7.1925 10.174 7.21191 10.1865C7.21392 10.1878 6.39886 11.4943 5.28888 11.7686C4.63308 11.9308 3.85838 11.7345 3.70144 11.0573C3.69487 11.0292 3.69126 11.001 3.68702 10.9729C3.79158 10.9088 3.89852 10.8499 4.00604 10.7954C4.27771 10.6735 4.48502 10.5822 4.56347 10.5512C4.57035 10.5486 4.57732 10.5459 4.58414 10.5433L4.58455 10.5432L4.58478 10.5431C5.23244 10.3013 5.77607 10.2178 5.77607 10.2178C5.28236 10.1739 4.85844 10.2093 4.50369 10.2816L4.50319 10.2814C4.50319 10.2814 4.50051 10.282 4.49573 10.2833C4.17451 10.3495 3.91027 10.4458 3.70509 10.5419C3.81939 10.0538 4.23198 9.62978 4.72024 9.50898C4.76315 9.49838 4.80664 9.49018 4.85026 9.48315C4.86281 9.48118 4.87532 9.47943 4.88791 9.47772C4.92179 9.47297 4.95586 9.46927 4.99016 9.46642C5.0011 9.46555 5.01212 9.46435 5.0231 9.46374C5.06696 9.46089 5.11094 9.45946 5.1551 9.45964C5.16377 9.45969 5.17242 9.4602 5.18109 9.46025C5.2177 9.46079 5.25431 9.46227 5.29098 9.46466C5.30392 9.4655 5.31683 9.46637 5.32969 9.46744C5.34254 9.4685 5.3554 9.46975 5.36822 9.47098C5.57845 9.49334 5.8367 9.55144 6.123 9.65158V8.69239C5.98485 8.6484 5.83826 8.6058 5.68609 8.56726C5.28494 8.45724 4.59611 8.34013 3.84276 8.52903C2.63105 8.83301 2.28741 9.75584 2.28741 10.8835C2.28741 11.0272 2.29849 11.1616 2.31872 11.2881C2.05567 11.4675 1.79732 11.6734 1.5625 11.9085C1.5625 11.9085 1.91199 11.748 2.37359 11.5369C2.68173 12.6199 3.75658 12.9843 4.56597 12.9843C5.41007 12.9843 5.95194 12.7362 6.59752 12.3216V12.8468H8.01998V10.2415C8.02171 10.2381 8.0235 10.2347 8.02533 10.2312V10.187C8.16067 9.81463 8.39084 9.71853 8.64665 9.71853C8.98475 9.71853 9.196 9.96571 9.196 10.3585V12.8468H10.6185V9.93675C10.6185 9.02058 10.0621 8.43156 9.23824 8.43156Z" fill="#3AAC59"/>
<path d="M11.8105 6.70325C11.381 6.70325 11.0781 7.0159 11.0781 7.45944C11.0781 7.90299 11.381 8.2156 11.8105 8.2156C12.24 8.2156 12.5429 7.90299 12.5429 7.45944C12.5429 7.0159 12.24 6.70325 11.8105 6.70325Z" fill="#3AAC59"/>
<path d="M17.2563 10.4861H17.258L17.2565 8.62911H15.8323L15.8246 8.89307C14.4509 7.982 13.5739 8.91894 13.5739 8.91894C13.1545 9.31435 12.9111 9.93864 12.9111 10.7225C12.9111 12.1122 13.7202 12.9389 14.7719 12.9389C15.1661 12.9389 15.5292 12.847 15.8428 12.3994C15.8791 12.5037 15.9601 12.7592 16.018 12.847H17.5C17.246 12.4164 17.248 10.9233 17.2563 10.4861ZM15.104 11.735C14.6427 11.735 14.3175 11.3217 14.3175 10.7353C14.3175 10.1489 14.6427 9.73549 15.104 9.73549C15.4274 9.73549 15.6838 9.93897 15.8082 10.2627V11.2078C15.6838 11.5315 15.4274 11.735 15.104 11.735Z" fill="#3AAC59"/>
</svg>
