<svg width="20" height="20" viewBox="0 0 20 20" fill="none" xmlns="http://www.w3.org/2000/svg">
<rect width="20" height="20" fill="black"/>
<path d="M8.79576 3.07955C7.37491 3.33173 6.16679 3.94017 5.13126 4.91688C4.91452 5.12504 4.61751 5.44927 4.469 5.63341L4.20812 5.96965L6.21897 7.97511L8.23384 9.98457L6.21897 11.994L4.2041 14.0035L4.43288 14.2997C4.69778 14.644 5.24766 15.1924 5.64501 15.5086C6.96552 16.5614 8.81582 17.1218 10.4976 16.9777C12.2676 16.8215 13.7406 16.1531 14.9608 14.9482C15.2337 14.68 15.7394 14.0715 15.7394 14.0155C15.7394 13.9995 14.8404 13.0908 13.7446 11.998L11.7458 10.0086L13.0061 8.73566C13.6965 8.03515 14.5995 7.12649 15.0089 6.71419L15.7515 5.96565L15.5789 5.73348C14.4912 4.30044 12.7773 3.30771 10.935 3.03952C10.4614 2.97147 9.28141 2.99549 8.79576 3.07955ZM10.923 5.41725C11.3404 5.50932 11.6976 5.6294 12.0228 5.78952L12.2997 5.92962L11.1397 7.08646L9.97979 8.2433L8.82787 7.09447C7.51539 5.78552 7.59165 5.94163 8.14554 5.70146C8.47466 5.55735 8.94828 5.42525 9.3376 5.36121C9.67475 5.30917 10.5658 5.34119 10.923 5.41725ZM12.2796 14.0675C12.2154 14.1316 11.4689 14.4238 11.1277 14.5199C10.7705 14.6199 10.6862 14.628 9.97979 14.628C9.31352 14.6239 9.17304 14.6159 8.87603 14.5319C8.55895 14.4478 8.02914 14.2477 7.78832 14.1196L7.68397 14.0635L8.83188 12.8987L9.97979 11.7338L11.1438 12.8907C11.7819 13.5231 12.2917 14.0555 12.2796 14.0675Z" fill="white"/>
<path d="M3.92716 6.42998C3.59001 6.96236 3.26089 7.81498 3.0883 8.60356C3.00803 8.97583 3 9.13594 3 9.98456C3 11.0573 3.04014 11.3456 3.32511 12.2222C3.45756 12.6305 3.95526 13.6873 4.01546 13.6873C4.0275 13.6873 4.42486 13.303 4.89446 12.8346L5.75339 11.978L5.65304 11.7418C5.20753 10.6771 5.19548 9.38012 5.62495 8.30334L5.74937 7.98711L4.89044 7.13049L4.0275 6.26986L3.92716 6.42998Z" fill="white"/>
<path d="M15.066 7.13449L14.211 7.98711L14.2913 8.17524C14.7208 9.17597 14.773 10.4049 14.4278 11.4336C14.3716 11.6057 14.2993 11.7979 14.2672 11.8619L14.207 11.978L15.0619 12.8306C15.5356 13.303 15.9329 13.6873 15.949 13.6873C16.0052 13.6873 16.4627 12.7266 16.6152 12.2822C17.1129 10.8492 17.129 9.25203 16.6634 7.80297C16.543 7.4307 16.0052 6.28187 15.949 6.28187C15.9329 6.28187 15.5356 6.66615 15.066 7.13449Z" fill="white"/>
</svg>
