<svg width="20" height="20" viewBox="0 0 20 20" fill="none" xmlns="http://www.w3.org/2000/svg">
<circle cx="10" cy="10" r="10" fill="white"/>
<path fill-rule="evenodd" clip-rule="evenodd" d="M4.43717 8.10496C3.5077 11.2359 5.29236 14.5276 8.42333 15.457C11.0621 16.2404 13.8177 15.0957 15.1738 12.8395C15.4864 12.3194 16.1613 12.1512 16.6814 12.4638C17.2014 12.7764 17.3696 13.4514 17.0571 13.9714C15.1974 17.0654 11.4207 18.6389 7.79801 17.5635C3.50369 16.2886 1.05591 11.774 2.33074 7.47964C3.60557 3.18532 8.12025 0.73754 12.4146 2.01237C14.4362 2.61251 16.0502 3.93268 17.057 5.60759C17.3696 6.12763 17.2015 6.80262 16.6814 7.11522C16.1614 7.42781 15.4864 7.25964 15.1738 6.7396C14.4387 5.51676 13.2642 4.55667 11.7892 4.1188C8.65828 3.18932 5.36664 4.97399 4.43717 8.10496Z" fill="black"/>
</svg>
