<svg width="20" height="20" viewBox="0 0 20 20" fill="none" xmlns="http://www.w3.org/2000/svg">
<g clip-path="url(#clip0)">
<path d="M9.84619 20C15.369 20 19.8462 15.5228 19.8462 10C19.8462 4.47715 15.369 0 9.84619 0C4.32334 0 -0.153809 4.47715 -0.153809 10C-0.153809 15.5228 4.32334 20 9.84619 20Z" fill="white"/>
<path fill-rule="evenodd" clip-rule="evenodd" d="M4.2833 8.10491C3.35383 11.2359 5.1385 14.5276 8.26946 15.457C10.9082 16.2404 13.6638 15.0957 15.0199 12.8395C15.3324 12.3194 16.0074 12.1512 16.5275 12.4638C17.0475 12.7764 17.2157 13.4514 16.9031 13.9714C15.0435 17.0654 11.2667 18.6388 7.64414 17.5634C3.34982 16.2885 0.902042 11.774 2.17687 7.47959C3.4517 3.18527 7.96638 0.737491 12.2607 2.01232C14.2823 2.61246 15.8963 3.93263 16.9031 5.60754C17.2157 6.12758 17.0476 6.80257 16.5275 7.11517C16.0075 7.42776 15.3325 7.25959 15.0199 6.73955C14.2848 5.51671 13.1103 4.55662 11.6353 4.11875C8.50441 3.18927 5.21277 4.97394 4.2833 8.10491Z" fill="black"/>
</g>
<defs>
<clipPath id="clip0">
<rect width="20" height="20" fill="white"/>
</clipPath>
</defs>
</svg>
