<svg width="20" height="20" viewBox="0 0 20 20" fill="none" xmlns="http://www.w3.org/2000/svg">
<path d="M18.8141 0H1.18591C0.53095 0 0 0.530808 0 1.18559V18.8083C0 19.463 0.53095 19.9938 1.18591 19.9938H18.8141C19.469 19.9938 20 19.463 20 18.8083V1.18559C20 0.530808 19.469 0 18.8141 0Z" fill="white"/>
<path d="M15.2756 10.6141C15.2756 11.416 15.0916 12.1521 14.7234 12.8225C14.3552 13.4798 13.7898 14.0122 13.0272 14.4197C12.2645 14.8272 11.3178 15.031 10.187 15.031H8.09629V20H4.72357V6.15775H10.187C11.2915 6.15775 12.2251 6.34836 12.9877 6.72958C13.7504 7.1108 14.3223 7.63665 14.7037 8.30703C15.085 8.9775 15.2756 9.74651 15.2756 10.6141ZM9.93055 12.3493C10.5749 12.3493 11.0549 12.1981 11.3704 11.8957C11.686 11.5934 11.8437 11.1662 11.8437 10.6141C11.8437 10.062 11.686 9.63473 11.3704 9.33242C11.0549 9.03002 10.5749 8.87887 9.93055 8.87887H8.09629V12.3493H9.93055Z" fill="black"/>
<path d="M15.2758 2.65095H4.72369V4.87864H15.2758V2.65095Z" fill="#E50913"/>
</svg>
