<svg width="20" height="20" viewBox="0 0 20 20" fill="none" xmlns="http://www.w3.org/2000/svg">
<g clip-path="url(#clip0_4005_53469)">
<path d="M18.953 7.13682V12.8612C18.9536 13.6117 18.7564 14.3491 18.3812 14.9991C18.0061 15.6491 17.4663 16.1888 16.8162 16.5637L12.1158 19.4264C11.9812 19.5038 11.8428 19.5744 11.7012 19.6379L11.6789 19.6472C11.1387 19.8816 10.5558 20.0017 9.96688 20.0001C9.37799 19.9985 8.79578 19.8752 8.25678 19.6379L8.23456 19.6272C8.10123 19.5681 7.9679 19.5001 7.84123 19.4272L7.72701 19.361L3.14088 16.5611C2.49118 16.1859 1.95175 15.6462 1.57687 14.9963C1.20199 14.3464 1.00488 13.6092 1.00537 12.8589V7.13682C1.00537 5.60974 1.56225 4.45421 2.88489 3.69067L7.84212 0.831172C8.42344 0.495679 9.07555 0.301713 9.74573 0.264962C10.4159 0.22821 11.0853 0.349705 11.6998 0.61962C11.8417 0.682704 11.9801 0.753321 12.1145 0.831172L17.0731 3.69378C18.3952 4.45643 18.9535 5.61063 18.9535 7.13727L18.953 7.13682Z" fill="white"/>
<path d="M19.2097 7.13634V12.8602C19.2103 13.6107 19.013 14.3481 18.6379 14.9981C18.2628 15.6482 17.7229 16.1878 17.0728 16.5628L12.4756 19.2294L12.2809 19.3352C12.2192 19.3692 12.1496 19.3865 12.0791 19.3854C12.0086 19.3844 11.9396 19.3649 11.879 19.329C11.8183 19.2931 11.768 19.242 11.7331 19.1807C11.6983 19.1195 11.68 19.0502 11.68 18.9797V14.906C11.1385 14.664 10.5526 14.5372 9.95952 14.5338C9.36641 14.5303 8.77906 14.6503 8.23478 14.886V18.965C8.23446 19.0349 8.21608 19.1035 8.18142 19.1641C8.14677 19.2248 8.09702 19.2755 8.03701 19.3113C7.97699 19.347 7.90875 19.3667 7.8389 19.3683C7.76905 19.3699 7.69997 19.3535 7.63835 19.3205L7.4788 19.2352L2.88645 16.5606C2.23663 16.1855 1.69708 15.6458 1.32212 14.9959C0.947151 14.346 0.749994 13.6088 0.750489 12.8584V7.13634C0.749994 6.38602 0.947151 5.6488 1.32212 4.99889C1.69708 4.34898 2.23663 3.80931 2.88645 3.43419L7.84324 0.574691C8.42461 0.239126 9.0768 0.0451203 9.74706 0.00836852C10.4173 -0.0283832 11.0868 0.093151 11.7014 0.363139C11.8433 0.426222 11.9817 0.49684 12.116 0.574691L17.0728 3.4373C17.7224 3.81198 18.2619 4.35109 18.637 5.00043C19.0121 5.64977 19.2096 6.38644 19.2097 7.13634V7.13634Z" fill="url(#paint0_linear_4005_53469)"/>
<path d="M15.8726 9.69547C15.8634 9.99538 15.7756 10.2876 15.6181 10.543C15.4606 10.7984 15.2388 11.008 14.9749 11.1508C14.7111 11.2937 14.4143 11.3648 14.1144 11.3571C13.8144 11.3494 13.5217 11.2632 13.2656 11.107L11.8878 10.2515C11.8672 10.2374 11.8431 10.2292 11.8181 10.228C11.7932 10.2267 11.7684 10.2324 11.7464 10.2443C11.7245 10.2563 11.7063 10.2741 11.6938 10.2957C11.6814 10.3174 11.6751 10.342 11.6758 10.367V19.6442C11.135 19.8784 10.5517 19.9985 9.96237 19.9968C9.37304 19.9951 8.79041 19.8717 8.25099 19.6344L8.22876 19.6237V10.3675C8.22944 10.3425 8.22319 10.3178 8.21073 10.2962C8.19827 10.2745 8.18007 10.2567 8.15814 10.2448C8.1362 10.2328 8.1114 10.2272 8.08645 10.2284C8.0615 10.2297 8.03739 10.2378 8.01677 10.2519L6.63902 11.1074C6.44624 11.2378 6.22897 11.3275 6.00041 11.3712C5.77186 11.4149 5.5368 11.4116 5.30956 11.3615C5.08231 11.3115 4.86763 11.2157 4.67857 11.08C4.48951 10.9444 4.33004 10.7717 4.20986 10.5724C4.08967 10.3732 4.01129 10.1515 3.97948 9.92104C3.94767 9.69053 3.9631 9.45596 4.02483 9.23161C4.08656 9.00725 4.1933 8.79781 4.33855 8.61601C4.4838 8.43422 4.66452 8.28389 4.86972 8.17417L9.06475 5.56488C9.33371 5.4014 9.64242 5.31494 9.95717 5.31494C10.2719 5.31494 10.5806 5.4014 10.8496 5.56488L15.0446 8.17417C15.3054 8.33121 15.5197 8.55497 15.6652 8.82238C15.8107 9.08979 15.8823 9.39118 15.8726 9.69547V9.69547Z" fill="white"/>
<path d="M18.7943 13.0802C18.6827 13.0802 18.5756 13.0359 18.4967 12.957C18.4178 12.878 18.3734 12.771 18.3734 12.6594V7.12881C18.3704 6.53113 18.2112 5.94462 17.9116 5.42744C17.612 4.91026 17.1824 4.48038 16.6655 4.18042L11.6647 1.28626C11.1364 0.988373 10.539 0.834943 9.93265 0.841419C9.32625 0.847895 8.73227 1.01405 8.21052 1.32314L3.84261 3.83465C3.79463 3.86573 3.74083 3.88672 3.68447 3.89633C3.62812 3.90593 3.5704 3.90396 3.51483 3.89052C3.45926 3.87708 3.40702 3.85247 3.36128 3.81818C3.31554 3.78388 3.27726 3.74063 3.24879 3.69106C3.22032 3.64149 3.20224 3.58663 3.19567 3.52985C3.18909 3.47306 3.19415 3.41553 3.21054 3.36076C3.22693 3.30599 3.25431 3.25514 3.291 3.2113C3.32769 3.16746 3.37293 3.13156 3.42395 3.10578L7.78431 0.597381C8.43378 0.213826 9.17283 0.00814472 9.92706 0.00104475C10.6813 -0.00605522 11.4241 0.185677 12.0807 0.556937L17.0868 3.45199C17.7311 3.82602 18.2664 4.36197 18.6396 5.00669C19.0129 5.65141 19.2112 6.3825 19.2147 7.12747V12.6611C19.2143 12.7724 19.1698 12.8789 19.091 12.9574C19.0122 13.036 18.9056 13.0801 18.7943 13.0802V13.0802Z" fill="#FF7DB7"/>
<path d="M16.8739 4.2342C16.8001 4.23425 16.7275 4.21477 16.6637 4.17775L11.6904 1.29825C11.5938 1.24232 11.5234 1.15031 11.4947 1.04246C11.4659 0.934608 11.4812 0.819752 11.5371 0.723155C11.593 0.626563 11.6851 0.556145 11.7929 0.527391C11.9008 0.498636 12.0156 0.5139 12.1122 0.569825L17.0868 3.44888C17.1672 3.49532 17.23 3.56704 17.2653 3.65287C17.3007 3.7387 17.3068 3.83383 17.2825 3.92344C17.2582 4.01305 17.2049 4.09211 17.131 4.14832C17.0571 4.20452 16.9667 4.23472 16.8739 4.2342Z" fill="#FFD6E6"/>
<path d="M7.83816 19.3783C7.7638 19.3783 7.69078 19.3586 7.62661 19.321L2.85026 16.5384C2.2008 16.1585 1.66349 15.6134 1.29294 14.9585C0.92238 14.3037 0.731786 13.5624 0.740522 12.81V8.43944C0.740522 8.32781 0.784864 8.22076 0.863795 8.14183C0.942725 8.0629 1.04978 8.01855 1.1614 8.01855C1.27303 8.01855 1.38008 8.0629 1.45901 8.14183C1.53794 8.22076 1.58228 8.32781 1.58228 8.43944V12.8158C1.5746 13.4201 1.72707 14.0156 2.02418 14.5418C2.32129 15.068 2.75244 15.5062 3.2738 15.8117L8.0506 18.5939C8.13052 18.6405 8.19285 18.7122 8.22795 18.7978C8.26305 18.8834 8.26896 18.9782 8.24478 19.0675C8.22059 19.1568 8.16765 19.2356 8.09415 19.2918C8.02065 19.348 7.93068 19.3784 7.83816 19.3783V19.3783Z" fill="#811585"/>
<path d="M7.8315 19.3783C7.75749 19.3783 7.6848 19.3587 7.62084 19.3215L4.28269 17.3846C4.18655 17.3282 4.11669 17.236 4.08845 17.1282C4.0602 17.0204 4.07587 16.9058 4.13202 16.8095C4.18839 16.7138 4.28027 16.6443 4.38766 16.6161C4.49504 16.5879 4.60923 16.6033 4.70534 16.6588L8.04306 18.593C8.12313 18.6395 8.18564 18.7111 8.2209 18.7967C8.25617 18.8823 8.26222 18.9772 8.23813 19.0666C8.21403 19.1559 8.16113 19.2349 8.08762 19.2912C8.01411 19.3475 7.92409 19.378 7.8315 19.3779V19.3783Z" fill="#5B115C"/>
<path d="M16.0399 11.0834C15.9689 11.0833 15.8991 11.0653 15.8369 11.0311C15.7748 10.9968 15.7223 10.9473 15.6844 10.8873C15.6464 10.8273 15.6243 10.7587 15.62 10.6878C15.6158 10.617 15.6295 10.5462 15.6599 10.4821C15.7711 10.2479 15.8413 9.99641 15.8675 9.73852C15.8744 9.45737 15.815 9.17854 15.6943 8.92454C15.5735 8.67054 15.3948 8.4485 15.1724 8.27633L10.7525 5.54038C10.5054 5.41123 10.2312 5.34254 9.95248 5.33994C9.61297 5.33966 9.28102 5.4402 8.99872 5.62882C8.90578 5.69065 8.79209 5.71302 8.68265 5.69102C8.57321 5.66901 8.477 5.60444 8.41518 5.51149C8.35336 5.41855 8.33098 5.30486 8.35299 5.19542C8.37499 5.08599 8.43957 4.98977 8.53251 4.92795C8.95455 4.64631 9.45088 4.4967 9.95826 4.49818C10.3832 4.50294 10.8007 4.61092 11.1747 4.81284L15.6675 7.5999C16.0005 7.85581 16.2682 8.18689 16.4488 8.56607C16.6294 8.94525 16.7177 9.36179 16.7066 9.78163C16.6747 10.1497 16.5778 10.5092 16.4203 10.8434C16.3861 10.9153 16.3322 10.976 16.2649 11.0185C16.1975 11.061 16.1195 11.0835 16.0399 11.0834V11.0834Z" fill="#FF7DB7"/>
<path d="M13.1235 6.93462C13.0449 6.93457 12.9679 6.91239 12.9013 6.87062L11.4685 5.98175C11.4188 5.95397 11.3752 5.91639 11.3404 5.87128C11.3057 5.82618 11.2804 5.77449 11.2662 5.71935C11.252 5.6642 11.2492 5.60675 11.2578 5.55046C11.2665 5.49418 11.2864 5.44024 11.3165 5.3919C11.3466 5.34356 11.3862 5.30183 11.4329 5.26924C11.4796 5.23664 11.5324 5.21387 11.5882 5.20228C11.6439 5.1907 11.7015 5.19055 11.7573 5.20184C11.8131 5.21314 11.866 5.23564 11.9129 5.26799L13.3458 6.15686C13.4232 6.20526 13.4828 6.27753 13.5155 6.36276C13.5483 6.44799 13.5524 6.54157 13.5273 6.62936C13.5023 6.71716 13.4493 6.79442 13.3765 6.84948C13.3036 6.90455 13.2149 6.93443 13.1235 6.93462V6.93462Z" fill="#FFD6E6"/>
</g>
<defs>
<linearGradient id="paint0_linear_4005_53469" x1="3.2794" y1="15.8383" x2="15.352" y2="3.73143" gradientUnits="userSpaceOnUse">
<stop stop-color="#B400FF"/>
<stop offset="1" stop-color="#FF3A52"/>
</linearGradient>
<clipPath id="clip0_4005_53469">
<rect width="20" height="20" fill="white"/>
</clipPath>
</defs>
</svg>
