<svg width="20" height="20" viewBox="0 0 20 20" fill="none" xmlns="http://www.w3.org/2000/svg">
<path d="M10 20C15.5227 20 20 15.5227 20 10C20 4.47727 15.5227 0 10 0C4.47727 0 0 4.47727 0 10C0 15.5227 4.47727 20 10 20Z" fill="url(#paint0_linear)"/>
<path d="M15.103 10.5553H4.8973C4.73378 10.5558 4.57708 10.6209 4.46143 10.7365C4.34578 10.8522 4.28057 11.0088 4.28003 11.1724C4.28045 11.336 4.34561 11.4927 4.46127 11.6084C4.57694 11.7242 4.7337 11.7894 4.8973 11.7899H7.46139L9.19889 16.3783C9.24551 16.5002 9.3295 16.6044 9.43885 16.6758C9.5482 16.7472 9.67732 16.7822 9.80776 16.7758C9.93819 16.7822 10.0673 16.7472 10.1767 16.6758C10.286 16.6044 10.37 16.5002 10.4166 16.3783L12.1541 11.7896H15.1032C15.2668 11.7891 15.4235 11.724 15.5392 11.6083C15.6548 11.4926 15.72 11.3359 15.7205 11.1724C15.72 11.0088 15.6548 10.8521 15.5392 10.7364C15.4235 10.6207 15.2668 10.5556 15.1032 10.5551L15.103 10.5553ZM9.80753 14.4999L8.78117 11.7894H10.8339L9.80753 14.4996V14.4999ZM4.8973 9.40303H15.1032C15.2668 9.40255 15.4236 9.33733 15.5392 9.22163C15.6549 9.10592 15.7201 8.94914 15.7205 8.78553C15.72 8.62197 15.6548 8.46524 15.5392 8.34959C15.4235 8.23393 15.2668 8.16874 15.1032 8.16826H13.5255L14.7978 4.80803C14.8552 4.6549 14.8498 4.48524 14.7826 4.33611C14.7154 4.18698 14.5919 4.0705 14.4391 4.01213C14.286 3.95465 14.1163 3.96013 13.9671 4.02737C13.818 4.09461 13.7015 4.21815 13.6432 4.37099L12.205 8.16826H7.4098L5.97185 4.37099C5.91346 4.21819 5.797 4.09469 5.64788 4.02746C5.49877 3.96022 5.32911 3.95471 5.17594 4.01213C5.02314 4.0705 4.89966 4.18698 4.83246 4.33611C4.76526 4.48524 4.75981 4.6549 4.8173 4.80803L6.0898 8.16826H4.8973C4.73374 8.16874 4.57701 8.23393 4.46135 8.34959C4.3457 8.46524 4.28051 8.62197 4.28003 8.78553C4.28051 8.9491 4.3457 9.10582 4.46135 9.22148C4.57701 9.33714 4.73374 9.40233 4.8973 9.40281V9.40303Z" fill="white"/>
<defs>
<linearGradient id="paint0_linear" x1="2.10409" y1="16.2886" x2="17.6768" y2="3.88568" gradientUnits="userSpaceOnUse">
<stop stop-color="#F8B342"/>
<stop offset="1" stop-color="#F2C35E"/>
</linearGradient>
</defs>
</svg>
