<svg width="20" height="20" viewBox="0 0 20 20" fill="none" xmlns="http://www.w3.org/2000/svg">
<circle cx="10" cy="10" r="10" fill="url(#paint0_linear)"/>
<path d="M9.52836 4.99405H10.6646V15.2005H9.52836V4.99405Z" fill="white"/>
<path d="M11.146 10.1V11.6704C11.303 11.8023 11.4567 11.9399 11.604 12.0839C12.2543 12.7199 12.6522 13.3666 12.6522 14.0375C12.6522 15.5414 11.433 16.7606 9.92914 16.7606C8.42523 16.7606 7.20607 15.5414 7.20608 14.0375C7.20608 13.5995 7.30919 13.1861 7.49275 12.8197L7.83196 14.5305L9.04783 14.2894L8.338 10.7094L4.86353 11.6259L5.17969 12.8245L6.25961 12.5396C6.07074 13.0018 5.96654 13.5076 5.96654 14.0375C5.96654 16.226 7.74065 18.0001 9.92914 18.0001C12.1176 18.0001 13.8917 16.226 13.8917 14.0375C13.8917 12.8623 13.2006 11.9116 12.4707 11.1977C12.051 10.7873 11.5771 10.417 11.146 10.1Z" fill="white"/>
<path d="M8.82865 9.87855L8.85563 8.30843C8.70096 8.17383 8.54959 8.03365 8.40484 7.88713C7.76556 7.24006 7.3788 6.58661 7.39032 5.91577C7.41616 4.41209 8.65608 3.21406 10.1598 3.23989C11.6634 3.26572 12.8615 4.50564 12.8356 6.00933C12.8281 6.44724 12.7179 6.85886 12.5281 7.22207L12.2183 5.50572L10.9985 5.72587L11.6467 9.31751L15.1364 8.4608L14.8409 7.25701L13.7562 7.52329C13.953 7.06441 14.0659 6.56043 14.075 6.03062C14.1126 3.84246 12.3692 2.03813 10.1811 2.00054C7.99289 1.96294 6.18856 3.70632 6.15097 5.89448C6.13078 7.06957 6.80548 8.03196 7.52306 8.75829C7.93561 9.17588 8.40308 9.55418 8.82865 9.87855Z" fill="white"/>
<defs>
<linearGradient id="paint0_linear" x1="6.11957" y1="1.04703e-07" x2="17.1379" y2="20" gradientUnits="userSpaceOnUse">
<stop stop-color="#2B76F1"/>
<stop offset="1" stop-color="#2561B6"/>
</linearGradient>
</defs>
</svg>
