<svg width="20" height="20" viewBox="0 0 20 20" fill="none" xmlns="http://www.w3.org/2000/svg">
<g clip-path="url(#clip0_979_0)">
<path d="M10 20C15.5229 20 20 15.5229 20 9.99999C20 4.47715 15.5229 0 10 0C4.47716 0 0 4.47715 0 9.99999C0 15.5229 4.47716 20 10 20Z" fill="#2A5BDB"/>
<path d="M12.5138 5.51521L13.4723 5.1797L14.5335 8.30314L11.4673 9.39882L11.1158 8.39766L12.2262 7.98888L10.0028 6.90385L7.6755 8.13933L7.68621 9.56791L6.13379 10.1178V7.24998L10.0028 5.12378L12.8586 6.6003L12.5138 5.51521Z" fill="white"/>
<path d="M7.48625 14.4848L6.52766 14.8217L5.46655 11.6969L8.53141 10.6025L8.88289 11.6024L7.77251 12.0124L9.99593 13.0975L12.3245 11.8606L12.3139 10.4321L13.8649 9.88354V12.7514L9.99593 14.8763L7.14141 13.3997L7.48625 14.4848Z" fill="white"/>
</g>
<defs>
<clipPath id="clip0_979_0">
<rect width="20" height="20" fill="white"/>
</clipPath>
</defs>
</svg>
