<svg width="20" height="20" viewBox="0 0 20 20" fill="none" xmlns="http://www.w3.org/2000/svg">
<path d="M9.84313 3.21897L4.37417 5.91916C3.9623 11.2007 5.40731 15.0607 9.84314 17.0254C14.0851 15.2661 15.5599 11.4107 15.2047 5.86042L9.84313 3.21897Z" fill="url(#paint0_linear_3677_22015)"/>
<path d="M9.84314 3.96771L4.95791 6.29492C4.59071 11.0036 5.88844 14.5251 9.84314 16.2767C13.625 14.7082 15.0162 11.1965 14.6996 6.24812L9.84313 3.96771H9.84314Z" fill="#000300"/>
<path d="M9.84283 4.44233L5.38061 6.58441C5.04173 10.9299 6.19311 14.1855 9.84283 15.802C13.333 14.3545 14.5686 11.1203 14.2764 6.55357L9.84282 4.44233H9.84283Z" fill="url(#paint1_linear_3677_22015)"/>
<path d="M13.7183 6.9736L10.3439 5.41529L9.84219 5.94339L9.33881 5.41749L5.98024 6.9736C5.80208 9.2582 6.09176 11.2227 7.05001 12.7298L7.57993 12.655C7.86248 13.1066 8.14636 13.5715 8.39058 13.6408L8.24789 14.0868C8.70291 14.4638 9.2322 14.7899 9.84289 15.0604C10.4366 14.8142 10.9557 14.5065 11.4054 14.1414L11.2381 13.6188C11.4824 13.5494 11.7662 13.0846 12.0488 12.6329L12.6245 12.7142L12.6442 12.7287C13.5498 11.2619 13.8679 9.31059 13.7184 6.97361L13.7183 6.9736Z" fill="url(#paint2_linear_3677_22015)"/>
<path d="M11.3043 13.0202V10.8711L13.1576 7.14394L12.6224 6.29805H10.1401C10.0232 6.29805 9.96535 6.44016 10.0491 6.52181L10.4934 6.95499C10.5175 6.97854 10.5394 7.00456 10.5565 7.03365C10.5572 7.03483 10.5579 7.03602 10.5586 7.03721C10.6231 7.14904 10.6244 7.28667 10.5705 7.40405L10.2894 8.01719C10.2735 8.06615 10.2051 8.0685 10.1859 8.02075L9.85257 7.19145C9.77964 7.03557 9.67385 6.89731 9.54246 6.78616L8.93576 6.29491L5.85889 6.32448L6.44439 6.97867C6.57933 7.12944 6.69593 7.29566 6.79176 7.47386L8.3481 10.368V12.52C8.3481 12.52 8.36793 12.8977 8.23208 12.9947L7.82382 13.4L8.57232 14.2899L12.0224 14.2723L11.3679 13.2591C11.3263 13.1865 11.3043 13.1039 11.3043 13.0202Z" fill="url(#paint3_linear_3677_22015)"/>
<path d="M11.0046 10.7037L12.7889 7.02939L12.4849 6.51539L10.3613 10.1134L10.5772 13.4308L11.4539 13.9507L11.1177 13.3639C11.0436 13.2346 11.0046 13.088 11.0046 12.9389V10.7037Z" fill="url(#paint4_linear_3677_22015)"/>
<path d="M9.4938 7.05582L8.85498 6.51539L10.0651 9.01782L10.2956 8.76963L9.4938 7.05582Z" fill="url(#paint5_linear_3677_22015)"/>
<path d="M6.44629 6.51539H8.85473L10.0648 9.01781L10.946 7.27904V7.23127C10.946 7.03342 10.8822 6.84083 10.7643 6.682L10.6405 6.51539H12.485L10.5935 10.2397V12.1547L10.613 12.4232C10.631 12.67 10.7175 12.907 10.8629 13.1073L11.0752 13.4H8.23207L8.41409 13.218C8.52679 13.1053 8.61831 12.9732 8.68427 12.8281L8.70201 12.4954V10.2397L7.13946 7.3143L6.94721 7.05085C6.86406 6.9369 6.77131 6.83026 6.66999 6.73211L6.4463 6.51541L6.44629 6.51539Z" fill="url(#paint6_linear_3677_22015)"/>
<path d="M8.69599 13.9507H11.454L11.0751 13.4H8.23193L8.69599 13.9507Z" fill="url(#paint7_linear_3677_22015)"/>
<path d="M9.84233 5.4667L9.66699 5.17151L9.84233 4.87632L10.0177 5.17151L9.84233 5.4667Z" fill="#47DBF2"/>
<path d="M9.84229 5.17151V4.87632L10.0176 5.17151H9.84229Z" fill="#E7FFFF"/>
<path d="M9.84229 5.17151V5.4667L10.0176 5.17151H9.84229Z" fill="#00BBDD"/>
<path d="M9.84233 5.17151V5.4667L9.66699 5.17151H9.84233Z" fill="#2C3F75"/>
<path d="M7.70205 13.7972L7.36239 13.6473L7.33154 13.2773L7.6712 13.4272L7.70205 13.7972Z" fill="#47DBF2"/>
<path d="M7.5168 13.5372L7.33154 13.2773L7.6712 13.4272L7.5168 13.5372Z" fill="#E7FFFF"/>
<path d="M7.5166 13.5372L7.70185 13.7972L7.671 13.4272L7.5166 13.5372Z" fill="#00BBDD"/>
<path d="M7.51671 13.5372L7.70196 13.7972L7.3623 13.6473L7.51671 13.5372Z" fill="#2C3F75"/>
<path d="M11.9839 13.7972L12.3235 13.6473L12.3544 13.2773L12.0147 13.4272L11.9839 13.7972Z" fill="#47DBF2"/>
<path d="M12.169 13.5372L12.3543 13.2773L12.0146 13.4272L12.169 13.5372Z" fill="#E7FFFF"/>
<path d="M12.1691 13.5372L11.9839 13.7972L12.0147 13.4272L12.1691 13.5372Z" fill="#00BBDD"/>
<path d="M12.1691 13.5372L11.9839 13.7972L12.3235 13.6473L12.1691 13.5372Z" fill="#2C3F75"/>
<path d="M10 0C4.47715 0 0 4.47715 0 10C0 15.5229 4.47715 20 10 20C15.5229 20 20 15.5229 20 10C20 4.47715 15.5229 0 10 0ZM10 19.3571C4.83224 19.3571 0.64294 15.1678 0.64294 10C0.64294 4.83224 4.83224 0.64294 10 0.64294C15.1678 0.64294 19.3571 4.83224 19.3571 10C19.3571 15.1678 15.1678 19.3571 10 19.3571Z" fill="url(#paint8_linear_3677_22015)"/>
<defs>
<linearGradient id="paint0_linear_3677_22015" x1="9.78133" y1="17.0254" x2="9.78133" y2="3.21897" gradientUnits="userSpaceOnUse">
<stop stop-color="#D1982A"/>
<stop offset="1" stop-color="#F5E373"/>
</linearGradient>
<linearGradient id="paint1_linear_3677_22015" x1="9.82097" y1="15.802" x2="9.82097" y2="4.44233" gradientUnits="userSpaceOnUse">
<stop stop-color="#D1982A"/>
<stop offset="1" stop-color="#F5E373"/>
</linearGradient>
<linearGradient id="paint2_linear_3677_22015" x1="5.93066" y1="10.2379" x2="13.7537" y2="10.2379" gradientUnits="userSpaceOnUse">
<stop stop-color="#002E7A"/>
<stop offset="0.5051" stop-color="#0042AC"/>
<stop offset="1" stop-color="#002E7A"/>
</linearGradient>
<linearGradient id="paint3_linear_3677_22015" x1="9.50827" y1="14.2899" x2="9.50827" y2="6.29491" gradientUnits="userSpaceOnUse">
<stop stop-color="#D1982A"/>
<stop offset="1" stop-color="#F5E373"/>
</linearGradient>
<linearGradient id="paint4_linear_3677_22015" x1="11.3804" y1="10.5604" x2="12.1229" y2="8.24925" gradientUnits="userSpaceOnUse">
<stop stop-color="#002E7A"/>
<stop offset="1" stop-color="#0042AC"/>
</linearGradient>
<linearGradient id="paint5_linear_3677_22015" x1="10.3793" y1="9.26554" x2="9.2053" y2="6.8607" gradientUnits="userSpaceOnUse">
<stop stop-color="#002E7A"/>
<stop offset="1" stop-color="#0042AC"/>
</linearGradient>
<linearGradient id="paint6_linear_3677_22015" x1="9.46565" y1="13.4" x2="9.46565" y2="6.51539" gradientUnits="userSpaceOnUse">
<stop stop-color="#004DB7"/>
<stop offset="1" stop-color="#3583E5"/>
</linearGradient>
<linearGradient id="paint7_linear_3677_22015" x1="9.85668" y1="14.078" x2="9.7468" y2="10.8579" gradientUnits="userSpaceOnUse">
<stop stop-color="#002E7A"/>
<stop offset="1" stop-color="#0042AC"/>
</linearGradient>
<linearGradient id="paint8_linear_3677_22015" x1="10" y1="20" x2="10" y2="0" gradientUnits="userSpaceOnUse">
<stop stop-color="#D1982A"/>
<stop offset="1" stop-color="#F5E373"/>
</linearGradient>
</defs>
</svg>
