<svg width="21" height="20" viewBox="0 0 21 20" fill="none" xmlns="http://www.w3.org/2000/svg">
<path d="M14.9697 4.73453C13.9783 4.84851 13.1262 5.22118 12.4225 5.84713C12.3356 5.92492 12.2669 5.99548 12.2687 6.00633C12.2723 6.01719 12.256 6.03709 12.2325 6.04794C12.2108 6.0606 11.7821 6.4767 11.2809 6.97239L10.3691 7.87694L9.49896 7.00857C8.77894 6.29036 8.60889 6.13116 8.51119 6.07689C8.12224 5.86341 7.68082 5.93397 7.35337 6.26322C7.21045 6.40614 7.11999 6.55811 7.08381 6.7155C7.05668 6.83309 7.06029 7.0538 7.09105 7.1732C7.15437 7.41743 7.18874 7.46085 7.80203 8.07594L8.37551 8.65124H6.54289H4.70846L4.75912 8.59154C4.78625 8.56078 5.07752 8.21344 5.40497 7.82086C5.73241 7.43009 6.03272 7.08094 6.07071 7.04657C6.10871 7.01219 6.1666 6.92897 6.19916 6.86385C6.25163 6.75711 6.25886 6.72635 6.25886 6.58886C6.25886 6.45137 6.25343 6.42062 6.19916 6.31388C6.1268 6.16553 5.99835 6.04432 5.85905 5.99186C5.75955 5.95568 5.73241 5.95568 3.4041 5.95025L1.04865 5.94663L0.945528 5.98824C0.809845 6.04251 0.67959 6.16191 0.603608 6.30302C0.545716 6.40976 0.542098 6.42785 0.542098 6.58886C0.542098 6.73902 0.547525 6.77339 0.590944 6.86204C0.668735 7.01762 0.798991 7.13702 0.967237 7.20577C1.0197 7.22748 1.2983 7.2329 2.56287 7.24014L4.09518 7.24918L3.52712 7.93122L2.95725 8.61506H1.9532H0.949146V9.19397V9.77288H1.45569C1.7343 9.77288 1.96224 9.77831 1.96224 9.78374C1.96224 9.80183 0.637981 11.3721 0.540289 11.468C0.205605 11.7991 0.29606 12.3183 0.723008 12.5173L0.831555 12.5679H3.51807H6.20459L6.3258 12.5101C6.46872 12.4431 6.57365 12.34 6.64239 12.2007C6.68581 12.1102 6.69305 12.0759 6.69305 11.9348C6.69305 11.7864 6.68762 11.7593 6.63335 11.6507C6.56641 11.5114 6.47053 11.4192 6.32218 11.3486L6.22268 11.3016L4.36473 11.2961C3.34078 11.2943 2.50497 11.2871 2.50497 11.2835C2.50497 11.2672 3.7225 9.82354 3.7424 9.8163C3.75325 9.81268 4.80977 9.81087 6.09242 9.81268L8.42074 9.81811L7.84363 10.4097C7.52523 10.7353 7.24482 11.0374 7.21949 11.0791C7.09829 11.2871 7.04944 11.5205 7.082 11.7321C7.1417 12.1247 7.49086 12.4829 7.89248 12.5607C8.115 12.6023 8.37732 12.5535 8.56185 12.4341C8.60708 12.4051 9.03221 11.9981 9.50801 11.5295C9.98199 11.061 10.38 10.6774 10.389 10.6774C10.3999 10.6774 10.7925 11.0682 11.2646 11.5476L12.1204 12.4178L12.8802 12.9261C13.2981 13.2048 13.6509 13.4436 13.6617 13.4562C13.7087 13.5033 14.0868 13.6281 14.4179 13.7077C15.3912 13.9392 16.511 13.8054 17.4301 13.3477C17.8896 13.1179 18.2098 12.8936 18.5698 12.5462C18.9135 12.2152 19.1686 11.8859 19.4074 11.4626C19.8127 10.7444 20.0261 9.80002 19.9646 8.98592C19.876 7.81543 19.4092 6.80053 18.5951 6.00995C17.8715 5.30802 17.014 4.89012 16.0226 4.75443C15.7241 4.71282 15.2411 4.70378 14.9697 4.73453ZM15.6897 6.67932C16.5816 6.7752 17.3414 7.30165 17.7467 8.10308C18.1917 8.98592 18.0904 10.0569 17.488 10.8493C17.3487 11.032 17.0809 11.2817 16.8801 11.4155C16.2487 11.8389 15.5269 11.9673 14.7906 11.79C14.4867 11.7159 14.1393 11.5512 13.839 11.3378C13.7793 11.2943 13.4736 11.0013 13.1606 10.6847C12.8476 10.3663 12.4044 9.91761 12.1746 9.68605L11.7585 9.26633L12.3646 8.65486C12.6975 8.32017 13.1298 7.88418 13.3234 7.68699C13.8137 7.18768 14.0706 6.99953 14.4722 6.84395C14.8611 6.69198 15.279 6.6359 15.6897 6.67932Z" fill="#151515"/>
<path d="M12.2813 9.53637L12.1919 9.70319C12.1861 9.69735 12.1805 9.69163 12.1749 9.68604L11.7588 9.26633L13.2108 7.80092L12.9098 8.36294C12.7807 8.4931 12.6474 8.62734 12.5255 8.74985L12.3649 8.65485L12.4934 8.7822L12.4931 8.78243L12.0135 9.26631L12.2813 9.53637Z" fill="url(#paint0_linear_5476_44018)"/>
<path d="M14.6005 6.79772L14.5689 7.00073C14.5587 7.00457 14.5485 7.00847 14.5383 7.01245L14.5381 7.01254L14.5378 7.01264C14.1705 7.15493 13.9349 7.32276 13.4528 7.81372C13.3347 7.93398 13.1283 8.14262 12.9098 8.36294L13.2108 7.80092L13.3237 7.68698C13.814 7.18767 14.0708 6.99952 14.4725 6.84394C14.5148 6.8274 14.5575 6.81199 14.6005 6.79772Z" fill="url(#paint1_linear_5476_44018)"/>
<path d="M17.4854 7.68535L17.3792 7.84568C16.978 7.29112 16.3682 6.9342 15.6708 6.8592C15.2998 6.82001 14.9222 6.86814 14.5689 7.00073L14.6005 6.79772C14.9523 6.68095 15.324 6.64062 15.69 6.67931C16.416 6.75736 17.0544 7.12067 17.4854 7.68535Z" fill="url(#paint2_linear_5476_44018)"/>
<path d="M13.8745 11.1287C13.8926 11.1453 13.9079 11.1591 13.9202 11.1699L13.8888 11.3722C13.8721 11.3609 13.8556 11.3494 13.8393 11.3378C13.7796 11.2943 13.4738 11.0013 13.1609 10.6847C12.8555 10.374 12.426 9.9392 12.1919 9.70319L12.2813 9.53637L12.3033 9.55862C12.5333 9.79036 12.9766 10.2391 13.2898 10.5577C13.4452 10.7149 13.5987 10.8662 13.7204 10.9832C13.7814 11.0418 13.8339 11.0914 13.8745 11.1287Z" fill="url(#paint3_linear_5476_44018)"/>
<path d="M14.8335 11.6142C14.8477 11.6176 14.8618 11.6209 14.8759 11.6241L14.7695 11.7847C14.4874 11.7124 14.1702 11.564 13.8888 11.3722L13.9202 11.1699L13.9227 11.1721L13.9246 11.1738C13.9311 11.1794 13.9363 11.1838 13.9403 11.1871C13.9423 11.1887 13.9437 11.1899 13.9446 11.1906C13.945 11.1909 13.9453 11.1912 13.9455 11.1913C14.2298 11.3931 14.5558 11.5464 14.8335 11.6142Z" fill="url(#paint4_linear_5476_44018)"/>
<path fill-rule="evenodd" clip-rule="evenodd" d="M16.7798 11.2651L16.7796 11.2653C16.2025 11.6522 15.5481 11.7746 14.8759 11.6241L14.7695 11.7847C14.7766 11.7865 14.7838 11.7883 14.7909 11.79C15.5272 11.9673 16.249 11.8389 16.8804 11.4155C17.0812 11.2817 17.3489 11.032 17.4882 10.8493C18.0907 10.0569 18.192 8.98592 17.7469 8.10308C17.6716 7.95398 17.5839 7.81441 17.4854 7.68535L17.3792 7.84568C17.4558 7.95162 17.5248 8.06476 17.5854 8.18453C17.9591 9.24479 17.6746 10.0983 17.3443 10.7397C17.2177 10.9058 16.9649 11.1418 16.78 11.265L16.7798 11.2651Z" fill="url(#paint5_linear_5476_44018)"/>
<path d="M13.5433 13.5928C13.5417 13.5916 13.5395 13.5901 13.5367 13.588C13.5265 13.5807 13.5113 13.5699 13.491 13.5559C13.4506 13.5279 13.3931 13.4886 13.3224 13.4407C13.1811 13.3449 12.9888 13.2158 12.7801 13.0767L12.78 13.0766L12.0046 12.5578L11.136 11.6746L13.5433 13.5928Z" fill="url(#paint6_linear_5476_44018)"/>
<path fill-rule="evenodd" clip-rule="evenodd" d="M14.9493 4.5548L14.9495 4.55479L14.8447 4.75041C13.9066 4.88055 13.0967 5.2477 12.4228 5.84713C12.3359 5.92492 12.2672 5.99547 12.269 6.00633C12.2726 6.01718 12.2563 6.03708 12.2328 6.04794C12.2111 6.0606 11.7823 6.47669 11.2812 6.97239L10.3694 7.87694L9.49925 7.00857C8.77923 6.29036 8.60917 6.13116 8.51148 6.07688C8.12252 5.86341 7.6811 5.93396 7.35365 6.26322C7.21073 6.40614 7.12028 6.5581 7.0841 6.71549C7.05696 6.83309 7.06058 7.0538 7.09133 7.1732C7.15465 7.41743 7.18903 7.46085 7.80231 8.07594L8.3758 8.65123H4.70875L4.7594 8.59153C4.76823 8.58153 4.80502 8.53801 4.86191 8.47032C4.97989 8.32997 5.18434 8.08571 5.40525 7.82086C5.7327 7.43009 6.03301 7.08093 6.071 7.04656C6.10899 7.01219 6.16688 6.92897 6.19945 6.86384C6.25191 6.7571 6.25915 6.72635 6.25915 6.58886C6.25915 6.45137 6.25372 6.42061 6.19945 6.31387C6.12708 6.16553 5.99864 6.04432 5.85934 5.99185C5.76001 5.95574 5.73279 5.95567 3.41663 5.95027L1.04893 5.94663L0.945813 5.98824C0.810131 6.04251 0.679875 6.16191 0.603893 6.30302C0.546002 6.40976 0.542383 6.42785 0.542383 6.58886C0.542383 6.73901 0.547811 6.77339 0.591229 6.86203C0.669021 7.01762 0.799276 7.13702 0.967522 7.20576C1.01999 7.22747 1.29859 7.2329 2.56315 7.24013L4.09546 7.24918L2.95753 8.61505H0.949431V9.77288H1.45598C1.5607 9.77288 1.65827 9.77364 1.73927 9.77489C1.75401 9.77512 1.76821 9.77536 1.7818 9.77562C1.89215 9.7777 1.96253 9.78072 1.96253 9.78373C1.96253 9.78697 1.92013 9.83991 1.84993 9.92521C1.84147 9.9355 1.8326 9.94625 1.82335 9.95745C1.48076 10.3723 0.618677 11.3914 0.540574 11.468C0.20589 11.7991 0.296345 12.3183 0.723294 12.5173L0.83184 12.5679H6.20487L6.32608 12.5101C6.469 12.4431 6.57393 12.34 6.64268 12.2007C6.6861 12.1102 6.69333 12.0759 6.69333 11.9348C6.69333 11.7864 6.6879 11.7593 6.63363 11.6507C6.56669 11.5114 6.47081 11.4192 6.32247 11.3486L6.22296 11.3016L4.36502 11.2961C3.66279 11.2949 3.04905 11.2911 2.7327 11.2877C2.71638 11.2875 2.70084 11.2873 2.68613 11.2872C2.57023 11.2858 2.50526 11.2845 2.50526 11.2835C2.50526 11.2804 2.54795 11.2273 2.61748 11.143C2.62722 11.1312 2.63748 11.1187 2.64823 11.1058C2.97052 10.7163 3.72703 9.82199 3.74269 9.8163C3.75354 9.81268 4.81006 9.81087 6.09271 9.81268L8.42102 9.81811L7.84392 10.4097C7.52552 10.7353 7.24511 11.0374 7.21978 11.0791C7.09857 11.2871 7.04972 11.5205 7.08229 11.7321C7.14199 12.1247 7.49115 12.4829 7.89277 12.5607C8.11529 12.6023 8.37761 12.5535 8.56213 12.4341C8.60736 12.4051 9.0325 11.9981 9.50829 11.5295L10.3893 10.6774L11.2252 11.5081L11.136 11.6746L11.1359 11.6745C10.9002 11.4351 10.6845 11.218 10.5266 11.061C10.4731 11.0079 10.4265 10.9618 10.3881 10.9242C10.3494 10.961 10.3025 11.006 10.2489 11.0579C10.0896 11.2118 9.87207 11.4243 9.63548 11.6582L9.63536 11.6583L9.63523 11.6584C9.39688 11.8931 9.171 12.1127 8.9988 12.2774C8.91277 12.3597 8.83966 12.4287 8.78489 12.4793C8.75759 12.5045 8.73414 12.5258 8.71559 12.5421C8.7018 12.5542 8.67974 12.5735 8.66041 12.586C8.43514 12.7317 8.12537 12.7882 7.85951 12.7385L7.85894 12.7384L7.85836 12.7383C7.38426 12.6465 6.9752 12.2302 6.90348 11.7596C6.86387 11.5022 6.92402 11.2273 7.06346 10.988L7.06434 10.9865L7.06525 10.985C7.07642 10.9666 7.09217 10.9475 7.10173 10.936C7.11417 10.921 7.12985 10.903 7.14787 10.8827C7.18405 10.8419 7.23252 10.7888 7.28954 10.7276C7.40371 10.605 7.5544 10.447 7.71443 10.2833L7.71457 10.2832L7.99278 9.99802L6.09245 9.99359L6.09233 9.99359H6.09229C5.45116 9.99268 4.86662 9.99268 4.44106 9.99336C4.22823 9.9937 4.05533 9.99421 3.93506 9.99486C3.89026 9.9951 3.85294 9.99536 3.82367 9.99564L3.81991 9.99992C3.78539 10.0394 3.73672 10.0958 3.67838 10.164C3.56182 10.3001 3.40808 10.4814 3.2548 10.6631C3.12149 10.8212 2.98875 10.9794 2.88138 11.1082C2.93379 11.1087 2.99099 11.1091 3.05249 11.1096C3.38907 11.1121 3.85367 11.1143 4.36534 11.1152L6.26382 11.1208L6.39998 11.1851L6.40017 11.1852C6.58214 11.2718 6.70971 11.3921 6.79604 11.571C6.82349 11.626 6.84769 11.6776 6.86091 11.7408C6.87346 11.8007 6.87424 11.8629 6.87424 11.9348C6.87424 12.0051 6.87278 12.0646 6.86193 12.121C6.85023 12.1816 6.82951 12.2295 6.80577 12.279L6.80534 12.2799L6.80491 12.2808C6.71803 12.4568 6.5831 12.5893 6.40348 12.6736L6.40282 12.6739L6.24586 12.7489H0.791705L0.646865 12.6813C0.10592 12.4291 -0.0110723 11.7592 0.413349 11.3394L0.4136 11.3391L0.413802 11.3389C0.413802 11.3389 0.414287 11.3385 0.415457 11.3372C0.416739 11.3359 0.418462 11.3341 0.42068 11.3317C0.425137 11.3269 0.430909 11.3206 0.438054 11.3126C0.452331 11.2967 0.470955 11.2756 0.493481 11.2498C0.538476 11.1983 0.597783 11.1296 0.66657 11.0492C0.804074 10.8887 0.97846 10.6832 1.14992 10.48C1.31069 10.2895 1.46865 10.1013 1.591 9.95422C1.54805 9.95394 1.50276 9.95379 1.45598 9.95379H0.768521V8.43414H2.8728L3.71123 7.42783L2.56212 7.42104C1.93025 7.41743 1.54293 7.41426 1.30696 7.40924C1.18935 7.40675 1.10649 7.40374 1.04869 7.39975C1.01987 7.39777 0.994491 7.39535 0.972747 7.39213C0.953661 7.3893 0.926074 7.38434 0.898732 7.37308C0.691721 7.2884 0.527546 7.13919 0.429418 6.94294L0.429087 6.94227L0.42876 6.94161C0.404003 6.89106 0.383443 6.84272 0.372367 6.77995C0.362425 6.72362 0.361473 6.66215 0.361473 6.58886C0.361473 6.51343 0.36159 6.44809 0.374534 6.38768C0.388742 6.32138 0.416279 6.26948 0.444759 6.21697C0.538991 6.04213 0.700044 5.89178 0.878382 5.82036L0.878625 5.82027L1.01394 5.76566L3.40466 5.76934L3.4048 5.76934L3.42142 5.76937L3.42203 5.76938C4.57382 5.77206 5.16029 5.77343 5.4707 5.77863C5.77487 5.78373 5.83795 5.79158 5.92116 5.82184L5.92213 5.82219L5.9231 5.82255C6.10966 5.89282 6.27083 6.04846 6.36135 6.23314C6.38942 6.28842 6.41336 6.34004 6.42659 6.40214C6.43925 6.46156 6.44006 6.5218 6.44006 6.58886C6.44006 6.65739 6.4387 6.71719 6.4257 6.77657C6.41228 6.83787 6.3886 6.88914 6.3618 6.94364L6.36153 6.9442L6.36126 6.94475C6.32327 7.02071 6.2533 7.12559 6.19238 7.18071C6.19287 7.18026 6.19315 7.18003 6.19315 7.18003C6.19319 7.18007 6.18896 7.18428 6.17818 7.19603C6.16678 7.20844 6.15149 7.22548 6.13253 7.24692C6.0947 7.28971 6.04397 7.34809 5.98384 7.41801C5.86373 7.5577 5.70738 7.74198 5.54412 7.93681C5.37636 8.13793 5.21714 8.32834 5.0981 8.47032H7.94001L7.67419 8.20366C7.37133 7.89991 7.19986 7.72614 7.09847 7.59744C6.98481 7.45316 6.95174 7.35564 6.91621 7.2186L6.91614 7.21832C6.89578 7.13926 6.88659 7.03842 6.88512 6.94656C6.88365 6.85496 6.88956 6.75393 6.90782 6.67482C6.9533 6.47713 7.0647 6.29637 7.22558 6.13544C7.60638 5.7527 8.13475 5.66375 8.59852 5.91829L8.59893 5.91851L8.59934 5.91874C8.67083 5.95845 8.75319 6.02748 8.89605 6.16208C9.04298 6.30051 9.26733 6.52171 9.62701 6.88049L9.62704 6.88051L10.3698 7.62173L11.1538 6.84396L11.1539 6.84386L11.154 6.84377C11.4048 6.59563 11.6377 6.36728 11.8107 6.19925C11.8972 6.11528 11.969 6.04607 12.0208 5.99687C12.0466 5.97236 12.068 5.95227 12.0839 5.93765C12.0918 5.93043 12.0992 5.92377 12.1055 5.91829C12.1078 5.91629 12.1105 5.91399 12.1134 5.91161C12.1145 5.90959 12.1156 5.90782 12.1165 5.90633C12.1246 5.89285 12.1334 5.88151 12.1392 5.87423C12.1518 5.85864 12.1673 5.84186 12.1827 5.82597C12.2143 5.79331 12.2565 5.75318 12.302 5.71238L12.3023 5.71216L12.3025 5.71195C13.0357 5.05981 13.9232 4.67277 14.9493 4.5548ZM3.86655 9.94776L3.86662 9.94769C3.86666 9.94766 3.86663 9.94768 3.86655 9.94776Z" fill="url(#paint7_linear_5476_44018)"/>
<path d="M13.5433 13.5928L11.136 11.6746L11.2252 11.5081L11.2649 11.5476L12.1206 12.4178L12.8805 12.9261L13.5738 13.3964L13.5433 13.5928Z" fill="url(#paint8_linear_5476_44018)"/>
<path d="M14.9495 4.55479L14.9206 4.74044C14.8952 4.74359 14.8699 4.74692 14.8447 4.75041L14.9495 4.55479Z" fill="url(#paint9_linear_5476_44018)"/>
<path fill-rule="evenodd" clip-rule="evenodd" d="M13.5433 13.5928C13.5682 13.615 13.5959 13.6299 13.6108 13.6377C13.6328 13.6491 13.658 13.6604 13.6842 13.6713C13.737 13.6932 13.8035 13.7172 13.8766 13.7414C14.0232 13.7901 14.2054 13.8426 14.3759 13.8836L14.3761 13.8836L14.3763 13.8837C15.392 14.1253 16.5551 13.9857 17.511 13.5096L17.5111 13.5095L17.5113 13.5095C17.9865 13.2719 18.3219 13.037 18.6957 12.6764C19.0521 12.3331 19.3179 11.9899 19.5653 11.5515C19.9878 10.8026 20.2096 9.82267 20.1453 8.97226C20.0534 7.75943 19.5684 6.70269 18.7215 5.88016L18.7214 5.88009C17.9702 5.15148 17.0773 4.71616 16.0475 4.57521L16.0478 4.57525L16.0229 4.75443L16.0474 4.57519L16.0475 4.57521C15.7355 4.53174 15.2374 4.52215 14.9496 4.55477L14.9495 4.55479L14.9206 4.74044C14.937 4.73839 14.9535 4.73643 14.97 4.73453C15.6212 4.54031 17.9572 5.34275 18.5954 6.00995C19.4095 6.80052 19.8763 7.81543 19.9649 8.98592C20.0264 9.80001 19.8129 10.7444 19.4077 11.4626C19.1689 11.8859 18.9138 12.2152 18.5701 12.5462C18.2101 12.8936 17.8899 13.1179 17.4304 13.3477C16.5113 13.8054 15.3915 13.9392 14.4182 13.7077C14.0871 13.6281 13.709 13.5032 13.662 13.4562L13.5738 13.3964L13.5433 13.5928Z" fill="url(#paint10_linear_5476_44018)"/>
<path d="M0.226099 13.1196H0.4251C0.535455 13.1196 0.624101 13.1251 0.624101 13.1323C0.624101 13.1377 0.530028 13.2589 0.416055 13.4C0.296654 13.5484 0.208008 13.6732 0.208008 13.6967C0.208008 13.7347 0.213435 13.7347 0.50651 13.7347H0.805012V13.628L0.374445 13.6171L0.580683 13.3602C0.721793 13.1848 0.786921 13.0889 0.786921 13.0563V13.0111H0.226099V13.1196Z" fill="#151515"/>
<path d="M1.07638 13.7347H1.18492V13.0111H1.07638V13.7347Z" fill="#151515"/>
<path d="M1.52865 13.7347H1.99902V13.6262H1.6372V13.0111H1.52865V13.7347Z" fill="#151515"/>
<path d="M2.25229 13.7347H2.74075V13.6262H2.36084V13.0111H2.25229V13.7347Z" fill="#151515"/>
<path d="M2.99403 13.7347H3.10257V13.0111H2.99403V13.7347Z" fill="#151515"/>
<path d="M3.60007 13.0455C3.31605 13.1757 3.32509 13.5864 3.61274 13.7076C3.74299 13.7619 3.92209 13.7311 4.0234 13.6388C4.16632 13.5086 4.16632 13.2372 4.0234 13.107C3.91848 13.0111 3.73395 12.9839 3.60007 13.0455ZM3.91486 13.154C3.96189 13.1793 4.02521 13.3042 4.02521 13.3729C4.02521 13.4525 3.96009 13.5665 3.89858 13.599C3.8244 13.637 3.70138 13.637 3.62721 13.599C3.5657 13.5665 3.50057 13.4525 3.50057 13.3729C3.50057 13.3042 3.56389 13.1793 3.61274 13.154C3.70681 13.1033 3.81717 13.1033 3.91486 13.154Z" fill="#151515"/>
<path d="M4.42322 13.7347H4.53176V13.4905C4.53176 13.3566 4.53719 13.2463 4.54624 13.2463C4.55347 13.2463 4.64393 13.3566 4.74885 13.4905C4.90986 13.6967 4.94605 13.7329 4.98946 13.7347H5.03831V13.0111H4.91348L4.90263 13.5068L4.70544 13.2589C4.55347 13.069 4.49739 13.0111 4.46483 13.0111H4.42322V13.7347Z" fill="#151515"/>
<path d="M5.90306 13.1323C5.87231 13.201 5.79994 13.3639 5.74205 13.4941L5.63712 13.7347H5.69863C5.75472 13.7347 5.76014 13.7275 5.7909 13.6443L5.82346 13.5538H6.19252L6.23051 13.6443C6.26488 13.7239 6.27574 13.7347 6.32277 13.7347C6.35353 13.7347 6.37705 13.7293 6.37705 13.7239C6.37705 13.7166 6.30649 13.5538 6.22146 13.3621C6.0695 13.0219 6.06407 13.0111 6.01161 13.0111C5.96457 13.0111 5.95372 13.0219 5.90306 13.1323ZM6.08578 13.2987C6.11654 13.3711 6.14186 13.438 6.14186 13.4471C6.14186 13.4561 6.08035 13.4634 6.00437 13.4634C5.92839 13.4634 5.8705 13.4561 5.87412 13.4489C5.87773 13.4417 5.90668 13.3675 5.94105 13.2843C5.97543 13.2028 6.00799 13.1413 6.01523 13.1504C6.02427 13.1576 6.05503 13.2246 6.08578 13.2987Z" fill="#151515"/>
<path d="M6.74429 13.2698C6.68278 13.4109 6.61223 13.5737 6.5869 13.6316L6.53987 13.7347H6.59957C6.65384 13.7347 6.66108 13.7275 6.69364 13.6443L6.72801 13.5538H7.09526L7.13325 13.6443C7.16762 13.7257 7.17667 13.7347 7.22552 13.7347C7.25627 13.7347 7.2816 13.7311 7.2816 13.7257C7.2816 13.7221 7.21104 13.5592 7.12601 13.3639C6.97043 13.0129 6.97043 13.0111 6.91254 13.0111C6.85827 13.0111 6.85465 13.0165 6.74429 13.2698ZM6.99033 13.3005C7.02109 13.3747 7.04641 13.4417 7.04641 13.4489C7.04641 13.4579 6.9849 13.4634 6.90892 13.4634C6.8058 13.4634 6.77324 13.4579 6.78048 13.4398C6.8456 13.2716 6.91073 13.1395 6.91978 13.1504C6.92882 13.1576 6.95958 13.2264 6.99033 13.3005Z" fill="#151515"/>
<path d="M7.51678 13.7347H7.64342V13.6388C7.64523 13.5611 7.65427 13.5339 7.6995 13.4815L7.75377 13.4181L7.81166 13.4833C7.84423 13.5176 7.90574 13.59 7.95097 13.6425C8.02152 13.7257 8.03961 13.7365 8.08846 13.7311L8.14635 13.7257L7.99438 13.5357C7.91117 13.4308 7.84242 13.3422 7.84242 13.3367C7.84242 13.3313 7.90755 13.2553 7.98896 13.1685L8.13549 13.0111H8.07398C8.02152 13.0093 7.99257 13.031 7.82976 13.2047L7.64342 13.4V13.0111H7.51678V13.7347Z" fill="#151515"/>
<path d="M8.52626 13.1323C8.49551 13.201 8.42314 13.3639 8.36525 13.4941L8.26032 13.7347H8.32183C8.37791 13.7347 8.38334 13.7275 8.4141 13.6443L8.44666 13.5538H8.81572L8.85371 13.6443C8.88808 13.7239 8.89894 13.7347 8.94597 13.7347C8.97673 13.7347 9.00024 13.7293 9.00024 13.7239C9.00024 13.7166 8.92969 13.5538 8.84466 13.3621C8.6927 13.0219 8.68727 13.0111 8.63481 13.0111C8.58777 13.0111 8.57692 13.0219 8.52626 13.1323ZM8.70898 13.2987C8.73973 13.3711 8.76506 13.438 8.76506 13.4471C8.76506 13.4561 8.70355 13.4634 8.62757 13.4634C8.55159 13.4634 8.4937 13.4561 8.49731 13.4489C8.50093 13.4417 8.52988 13.3675 8.56425 13.2843C8.59862 13.2028 8.63119 13.1413 8.63842 13.1504C8.64747 13.1576 8.67822 13.2246 8.70898 13.2987Z" fill="#151515"/>
<path d="M9.23543 13.7347H9.36207V13.5158L9.57011 13.5267L9.64067 13.6316C9.70399 13.7221 9.72027 13.7347 9.77273 13.7347H9.83062L9.7474 13.6153C9.68047 13.5194 9.66961 13.4923 9.68951 13.4796C9.70399 13.4706 9.72027 13.4634 9.72931 13.4634C9.76188 13.4634 9.81434 13.3403 9.81434 13.2607C9.81434 13.192 9.80349 13.163 9.76007 13.1124C9.69313 13.0382 9.59363 13.0111 9.38016 13.0111H9.23543V13.7347ZM9.66057 13.1649C9.71846 13.2209 9.71846 13.3005 9.66419 13.3657C9.628 13.4073 9.60449 13.4145 9.49232 13.4236L9.36207 13.4326V13.1196H9.4887C9.60087 13.1196 9.62258 13.1251 9.66057 13.1649Z" fill="#151515"/>
<path d="M10.4331 13.0418C10.4475 13.0599 10.5054 13.1395 10.5597 13.2191L10.661 13.3657L10.538 13.5357C10.4692 13.6298 10.4132 13.713 10.4113 13.7203C10.4113 13.7293 10.4385 13.7347 10.471 13.7347C10.5235 13.7329 10.538 13.7203 10.6266 13.59C10.6809 13.5104 10.7261 13.4453 10.7279 13.4453C10.7297 13.4453 10.775 13.5104 10.8292 13.59C10.9215 13.7257 10.9306 13.7329 10.9957 13.7347H11.0626L10.9432 13.5665C10.8763 13.476 10.8148 13.391 10.8075 13.3801C10.7985 13.3693 10.8419 13.2933 10.9179 13.1866L11.0445 13.0111H10.983C10.9269 13.0111 10.9143 13.0237 10.8347 13.1377C10.7876 13.2065 10.7424 13.2644 10.7334 13.2644C10.7261 13.2644 10.6773 13.2065 10.6266 13.1377C10.5434 13.0219 10.5289 13.0111 10.471 13.0111C10.4113 13.0111 10.4077 13.0129 10.4331 13.0418Z" fill="#151515"/>
<path d="M11.4606 13.0382C11.3159 13.1033 11.2399 13.2191 11.2399 13.3729C11.2399 13.4923 11.2707 13.5629 11.3593 13.6388C11.4443 13.7148 11.5348 13.742 11.656 13.7293C11.9889 13.6949 12.0992 13.268 11.8243 13.0744C11.732 13.0093 11.5637 12.993 11.4606 13.0382ZM11.6795 13.1196C11.6994 13.1196 11.7447 13.1468 11.7826 13.1811C11.8478 13.2426 11.8496 13.2463 11.8496 13.3729C11.8496 13.4995 11.8478 13.5032 11.7826 13.5647C11.7229 13.6189 11.703 13.6262 11.6198 13.6262C11.5004 13.6262 11.4136 13.5773 11.3774 13.4905C11.3105 13.3277 11.3846 13.1558 11.5366 13.1196C11.5692 13.1124 11.6072 13.1088 11.6198 13.1124C11.6343 13.116 11.6596 13.1196 11.6795 13.1196Z" fill="#151515"/>
<path fill-rule="evenodd" clip-rule="evenodd" d="M0.189983 13.1559V12.975H0.823169V13.0564C0.823169 13.0738 0.815328 13.0927 0.806844 13.1093C0.797555 13.1276 0.784066 13.1495 0.766722 13.1751C0.731963 13.2263 0.67967 13.295 0.608946 13.383L0.448471 13.5829L0.84126 13.5928V13.771H0.499714C0.359277 13.771 0.283177 13.771 0.242934 13.7659C0.224147 13.7636 0.202109 13.7592 0.187301 13.7437C0.171652 13.7273 0.17182 13.7063 0.171885 13.6981C0.171889 13.6976 0.171892 13.6972 0.171892 13.6968C0.171892 13.6854 0.176364 13.6747 0.179075 13.6686C0.182501 13.6609 0.18717 13.6523 0.192591 13.643C0.203492 13.6245 0.218944 13.6011 0.237734 13.5744C0.275414 13.5209 0.327938 13.4519 0.387935 13.3774L0.387973 13.3774C0.444854 13.3069 0.496718 13.2415 0.53431 13.1931C0.544069 13.1806 0.552834 13.1692 0.560455 13.1592C0.525744 13.1571 0.478153 13.1559 0.425166 13.1559H0.189983ZM0.586128 13.1248C0.587015 13.1249 0.587889 13.1249 0.588749 13.125C0.611098 13.1271 0.624168 13.1296 0.624168 13.1323C0.624168 13.1339 0.616893 13.1443 0.603938 13.1617C0.603599 13.1621 0.603256 13.1626 0.60291 13.163C0.568858 13.2086 0.497571 13.2992 0.416121 13.4001C0.29672 13.5484 0.208074 13.6733 0.208074 13.6968C0.208074 13.7348 0.213501 13.7348 0.506576 13.7348H0.805078V13.628L0.374511 13.6172L0.580749 13.3603C0.721859 13.1848 0.786987 13.0889 0.786987 13.0564V13.0111H0.226165V13.1197H0.425166C0.491518 13.1197 0.550021 13.1216 0.586128 13.1248ZM1.04026 13.771V12.975H1.22117V13.771H1.04026ZM1.49254 13.771V12.975H1.67345V13.59H2.03527V13.771H1.49254ZM1.99909 13.6262V13.7348H1.52872V13.0111H1.63726V13.6262H1.99909ZM2.21618 13.771V12.975H2.39709V13.59H2.777V13.771H2.21618ZM2.74082 13.6262V13.7348H2.25236V13.0111H2.36091V13.6262H2.74082ZM2.95791 13.771V12.975H3.13882V13.771H2.95791ZM3.6128 13.7076C3.32516 13.5864 3.31611 13.1758 3.60014 13.0455C3.73401 12.984 3.91854 13.0111 4.02347 13.107C4.16639 13.2373 4.16639 13.5086 4.02347 13.6389C3.92216 13.7312 3.74306 13.7619 3.6128 13.7076ZM4.04784 13.0803C4.12845 13.1537 4.16684 13.2648 4.16684 13.373C4.16684 13.4811 4.12845 13.5922 4.04784 13.6656C3.9911 13.7173 3.91418 13.7505 3.83501 13.7639C3.7558 13.7773 3.67138 13.7712 3.59889 13.741L3.59875 13.741C3.28262 13.6078 3.27191 13.1563 3.58503 13.0126C3.73158 12.9453 3.93175 12.9742 4.04784 13.0803ZM3.6128 13.1541C3.56396 13.1794 3.50064 13.3042 3.50064 13.373C3.50064 13.4526 3.56577 13.5665 3.62728 13.5991C3.70145 13.6371 3.82447 13.6371 3.89864 13.5991C3.96015 13.5665 4.02528 13.4526 4.02528 13.373C4.02528 13.3042 3.96196 13.1794 3.91492 13.1541C3.81723 13.1034 3.70688 13.1034 3.6128 13.1541ZM3.89796 13.186C3.81059 13.1408 3.71303 13.1412 3.62996 13.1859L3.62971 13.186L3.62946 13.1862C3.62405 13.189 3.61477 13.1968 3.60315 13.2116C3.59207 13.2257 3.58078 13.2438 3.57063 13.2637C3.5497 13.3047 3.53682 13.347 3.53682 13.373C3.53682 13.4043 3.55018 13.4465 3.57241 13.4859C3.59482 13.5256 3.62211 13.5553 3.644 13.567C3.67457 13.5826 3.7177 13.5914 3.76296 13.5914C3.80822 13.5914 3.85135 13.5826 3.88192 13.567C3.90381 13.5553 3.9311 13.5256 3.95351 13.4859C3.97574 13.4465 3.9891 13.4043 3.9891 13.373C3.9891 13.347 3.97621 13.3046 3.95545 13.2635C3.94539 13.2436 3.93422 13.2255 3.92332 13.2113C3.912 13.1966 3.90305 13.1888 3.89796 13.186ZM4.3871 13.771V12.975H4.46489C4.48368 12.975 4.50061 12.9832 4.51535 12.9933C4.53047 13.0037 4.54721 13.0189 4.56639 13.0386C4.60484 13.0782 4.65784 13.1415 4.73376 13.2364L4.73382 13.2365L4.86871 13.406L4.87815 12.975H5.07456V13.771H4.98878L4.98803 13.7709C4.95255 13.7694 4.92439 13.752 4.88757 13.7147C4.85121 13.6779 4.80058 13.6155 4.72044 13.5129C4.66808 13.4461 4.61945 13.3853 4.58309 13.3413C4.57903 13.3364 4.57514 13.3317 4.57142 13.3272C4.56922 13.37 4.56801 13.4275 4.56801 13.4905V13.771H4.3871ZM4.53777 13.2881C4.53796 13.2858 4.53816 13.2837 4.53836 13.2816C4.54054 13.2592 4.54321 13.2463 4.5463 13.2463C4.54838 13.2463 4.55735 13.2554 4.57156 13.2716C4.57279 13.273 4.57405 13.2745 4.57536 13.276C4.61147 13.3176 4.67678 13.3985 4.74892 13.4905C4.90993 13.6968 4.94611 13.733 4.98953 13.7348H5.03838V13.0111H4.91355L4.9027 13.5068L4.7055 13.259C4.55354 13.069 4.49746 13.0111 4.46489 13.0111H4.42328V13.7348H4.53183V13.4905C4.53183 13.4067 4.53396 13.3321 4.53777 13.2881ZM5.87017 13.1174L5.87025 13.1172C5.89474 13.0639 5.91244 13.0276 5.93192 13.0061C5.94301 12.9938 5.95555 12.9851 5.9708 12.9801C5.98489 12.9756 5.99914 12.975 6.01168 12.975C6.02545 12.975 6.04468 12.9753 6.06423 12.9874C6.08225 12.9985 6.09628 13.0169 6.11038 13.0406C6.13869 13.0881 6.17919 13.1786 6.25457 13.3473L6.25461 13.3474C6.29715 13.4434 6.3361 13.5321 6.36443 13.5979C6.37859 13.6307 6.39016 13.658 6.39821 13.6775C6.40223 13.6873 6.40547 13.6953 6.40774 13.7013C6.40886 13.7043 6.40989 13.7071 6.41068 13.7095C6.41106 13.7107 6.41153 13.7121 6.41194 13.7137L6.41196 13.7138C6.41217 13.7146 6.4133 13.7188 6.4133 13.7239C6.4133 13.7385 6.40538 13.748 6.40096 13.7522C6.39637 13.7565 6.39153 13.7591 6.38845 13.7606C6.38206 13.7636 6.37501 13.7655 6.36892 13.7668C6.3562 13.7695 6.34007 13.771 6.32284 13.771C6.29687 13.771 6.27001 13.7682 6.2466 13.7452C6.22767 13.7266 6.21377 13.6967 6.19736 13.6587L6.19729 13.6585L6.16854 13.59H5.84896L5.82501 13.6566L5.82496 13.6567L5.8249 13.6569C5.81729 13.6775 5.81071 13.6948 5.80432 13.7087C5.79799 13.7224 5.79053 13.7357 5.77991 13.7463C5.75589 13.7704 5.72544 13.771 5.6987 13.771H5.58194L5.70905 13.4795C5.76693 13.3492 5.83932 13.1864 5.8701 13.1176L5.87017 13.1174ZM5.82353 13.5539H6.19259L6.23058 13.6443C6.26495 13.7239 6.2758 13.7348 6.32284 13.7348C6.3536 13.7348 6.37711 13.7293 6.37711 13.7239C6.37711 13.7167 6.30656 13.5539 6.22153 13.3621C6.06957 13.022 6.06414 13.0111 6.01168 13.0111C5.96464 13.0111 5.95378 13.022 5.90313 13.1323C5.87241 13.201 5.8002 13.3635 5.74234 13.4937L5.74212 13.4942L5.63719 13.7348H5.6987C5.75478 13.7348 5.76021 13.7275 5.79096 13.6443L5.82353 13.5539ZM6.05249 13.3128L6.05243 13.3126C6.03776 13.2773 6.0232 13.2438 6.01114 13.218C6.00028 13.2395 5.98762 13.2672 5.9745 13.2983C5.95741 13.3397 5.94166 13.3788 5.9297 13.4086L5.92596 13.4179C5.92513 13.42 5.92432 13.422 5.92353 13.424C5.94461 13.4259 5.97269 13.4272 6.00444 13.4272C6.04101 13.4272 6.07352 13.4255 6.09654 13.4228C6.09503 13.4187 6.09338 13.4142 6.09158 13.4095C6.08161 13.3831 6.06778 13.3488 6.05255 13.3129L6.05249 13.3128ZM5.90933 13.4589C5.90921 13.4589 5.90908 13.4588 5.90896 13.4588C5.9002 13.4578 5.89285 13.4567 5.88718 13.4554C5.87782 13.4534 5.87306 13.4512 5.87418 13.4489C5.87586 13.4456 5.88293 13.428 5.89345 13.4018L5.89347 13.4017C5.90572 13.3712 5.92263 13.3291 5.94112 13.2843C5.95951 13.2407 5.97739 13.2029 5.99114 13.1785C5.99128 13.1782 5.99141 13.178 5.99154 13.1778C5.99155 13.1778 5.99155 13.1777 5.99156 13.1777C5.99157 13.1777 5.99158 13.1777 5.99158 13.1777C5.99524 13.1712 5.9986 13.1658 6.00159 13.1614C6.00819 13.1518 6.01301 13.1476 6.01529 13.1504C6.01858 13.1531 6.02473 13.1636 6.03271 13.1794C6.03277 13.1796 6.03283 13.1797 6.03289 13.1798C6.04685 13.2076 6.06635 13.2518 6.08585 13.2988C6.1166 13.3711 6.14193 13.4381 6.14193 13.4471C6.14193 13.4562 6.08042 13.4634 6.00444 13.4634C5.96638 13.4634 5.93285 13.4616 5.90933 13.4589ZM5.89106 13.4191C5.89107 13.4191 5.89118 13.4191 5.89137 13.4192C5.89114 13.4191 5.89104 13.4191 5.89106 13.4191ZM6.58697 13.6317C6.59915 13.6038 6.62179 13.5517 6.64886 13.4894L6.64924 13.4885C6.67837 13.4215 6.71257 13.3428 6.74436 13.2698C6.85472 13.0166 6.85834 13.0111 6.91261 13.0111C6.96971 13.0111 6.97049 13.0129 7.11979 13.3497L7.12608 13.3639C7.21111 13.5593 7.28166 13.7221 7.28166 13.7257C7.28166 13.7299 7.26703 13.7329 7.2465 13.7342C7.24644 13.7342 7.24637 13.7342 7.24631 13.7342C7.23988 13.7346 7.23289 13.7348 7.22558 13.7348C7.17674 13.7348 7.16769 13.7257 7.13332 13.6443L7.09533 13.5539H6.72808L6.69371 13.6443C6.66114 13.7275 6.65391 13.7348 6.59963 13.7348H6.53993L6.58697 13.6317ZM6.75304 13.59L6.72753 13.6572L6.72747 13.6573L6.7274 13.6575C6.71929 13.6782 6.71222 13.6956 6.70535 13.7096C6.69854 13.7234 6.69068 13.7364 6.67993 13.7468C6.65567 13.7702 6.62599 13.771 6.59963 13.771H6.48366L6.55382 13.6172C6.55386 13.6171 6.5539 13.617 6.55394 13.6169C6.5662 13.5888 6.58891 13.5366 6.61602 13.4742C6.64514 13.4072 6.67935 13.3284 6.71119 13.2554C6.76557 13.1306 6.7956 13.062 6.81919 13.0258C6.83153 13.0068 6.84513 12.9917 6.8638 12.9831C6.88145 12.9749 6.89935 12.9749 6.91208 12.975L6.91261 12.975L6.91447 12.9749C6.92749 12.9749 6.94667 12.9749 6.96557 12.985C6.98508 12.9954 6.99955 13.0137 7.01371 13.0372C7.04086 13.0823 7.07911 13.1686 7.15072 13.3302L7.15926 13.3495C7.20177 13.4472 7.24069 13.5368 7.26899 13.6024C7.28313 13.6352 7.29465 13.6621 7.30265 13.6811C7.30664 13.6905 7.30981 13.6982 7.31201 13.7036C7.31309 13.7063 7.31404 13.7087 7.31475 13.7106C7.31508 13.7115 7.3155 13.7126 7.31588 13.7138C7.31606 13.7143 7.31637 13.7153 7.31667 13.7165C7.31668 13.7165 7.31785 13.7206 7.31785 13.7257C7.31785 13.7418 7.3083 13.7517 7.30349 13.7556C7.29846 13.7598 7.29331 13.762 7.29026 13.7632C7.28382 13.7657 7.27672 13.7671 7.27072 13.768C7.25809 13.77 7.24209 13.771 7.22558 13.771C7.19997 13.771 7.17232 13.7691 7.14867 13.7459C7.13841 13.7358 7.13047 13.7232 7.12332 13.7096C7.11611 13.6958 7.10859 13.6788 7.09999 13.6584L7.07128 13.59H6.75304ZM6.89624 13.1796C6.86964 13.2266 6.82509 13.3248 6.78054 13.4399C6.77331 13.458 6.80587 13.4634 6.90899 13.4634C6.98497 13.4634 7.04648 13.458 7.04648 13.4489C7.04648 13.4417 7.02115 13.3748 6.9904 13.3006C6.97105 13.2539 6.9517 13.2094 6.93776 13.181C6.93762 13.1807 6.93748 13.1804 6.93735 13.1802C6.92933 13.1639 6.92314 13.1531 6.91984 13.1504C6.91804 13.1483 6.914 13.1518 6.90818 13.1602C6.90495 13.1648 6.90118 13.1709 6.89693 13.1784C6.89692 13.1784 6.89691 13.1784 6.89691 13.1784C6.89669 13.1788 6.89646 13.1792 6.89624 13.1796ZM6.91591 13.2194C6.91215 13.2268 6.9081 13.2349 6.90378 13.2438C6.88161 13.2895 6.85382 13.3529 6.82532 13.4248C6.84333 13.4264 6.87026 13.4272 6.90899 13.4272C6.9451 13.4272 6.97721 13.426 7.00029 13.4238C6.999 13.4203 6.99761 13.4166 6.99613 13.4127C6.98612 13.3862 6.97224 13.3513 6.95698 13.3144C6.9424 13.2793 6.92795 13.2457 6.91591 13.2194ZM7.48067 13.771V12.975H7.67967V13.3097L7.80343 13.18C7.80346 13.1799 7.8035 13.1799 7.80354 13.1798C7.8843 13.0937 7.93421 13.0426 7.97092 13.0137C7.98973 12.9989 8.00685 12.9884 8.02453 12.9821C8.0425 12.9757 8.0588 12.9745 8.07465 12.975H8.21868L8.01542 13.1933C7.97499 13.2364 7.93868 13.2767 7.91257 13.3069C7.90192 13.3192 7.89309 13.3296 7.88643 13.3378C7.89373 13.3477 7.90374 13.361 7.91597 13.3769C7.94337 13.4126 7.98119 13.4608 8.02274 13.5132C8.02276 13.5132 8.02278 13.5133 8.0228 13.5133L8.21353 13.7517L8.33225 13.4795C8.39013 13.3492 8.46252 13.1864 8.4933 13.1176L8.49337 13.1174L8.49344 13.1172C8.51794 13.0639 8.53564 13.0276 8.55512 13.0061C8.56621 12.9938 8.57875 12.9851 8.59399 12.9801C8.60809 12.9756 8.62234 12.975 8.63487 12.975C8.64865 12.975 8.66788 12.9753 8.68743 12.9874C8.70545 12.9985 8.71948 13.0169 8.73358 13.0406C8.76189 13.0881 8.80238 13.1786 8.87776 13.3473L8.87781 13.3474C8.92035 13.4434 8.9593 13.5321 8.98763 13.5979C9.00179 13.6307 9.01336 13.658 9.02141 13.6775C9.02543 13.6873 9.02867 13.6953 9.03094 13.7013C9.03206 13.7043 9.03309 13.7071 9.03388 13.7095C9.03426 13.7107 9.03473 13.7121 9.03514 13.7137L9.03516 13.7138C9.03537 13.7146 9.03649 13.7188 9.03649 13.7239C9.03649 13.7385 9.02858 13.748 9.02416 13.7522C9.01956 13.7565 9.01473 13.7591 9.01165 13.7606C9.00526 13.7636 8.9982 13.7655 8.99212 13.7668C8.9794 13.7695 8.96326 13.771 8.94604 13.771C8.92007 13.771 8.89321 13.7682 8.8698 13.7452C8.85086 13.7266 8.83697 13.6967 8.82056 13.6587L8.82049 13.6585L8.79174 13.59H8.47216L8.44821 13.6566L8.44815 13.6567L8.4481 13.6569C8.44049 13.6775 8.43391 13.6948 8.42751 13.7087C8.42119 13.7224 8.41373 13.7357 8.40311 13.7463C8.37908 13.7704 8.34864 13.771 8.3219 13.771H8.20514L8.21168 13.756L8.09252 13.7671C8.09241 13.7671 8.09231 13.7671 8.0922 13.7672C8.06357 13.7703 8.03744 13.7691 8.00843 13.7506C7.98361 13.7347 7.95804 13.7067 7.92355 13.666C7.91523 13.6564 7.90642 13.6461 7.89739 13.6356C7.85672 13.5883 7.81146 13.5356 7.78547 13.5082L7.78507 13.5078L7.75434 13.4732L7.72697 13.5051C7.70545 13.5301 7.69529 13.546 7.68936 13.5627C7.68326 13.58 7.68057 13.6013 7.67967 13.6393V13.771H7.48067ZM7.64349 13.6389C7.64529 13.5611 7.65434 13.534 7.69957 13.4815L7.75384 13.4182L7.81173 13.4833C7.83837 13.5114 7.88438 13.565 7.92501 13.6123L7.92507 13.6123L7.92514 13.6124L7.92515 13.6124L7.92551 13.6128C7.93437 13.6231 7.94296 13.6331 7.95103 13.6425C8.02159 13.7257 8.03968 13.7366 8.08852 13.7312L8.14642 13.7257L7.99445 13.5358C7.91123 13.4308 7.84249 13.3422 7.84249 13.3368C7.84249 13.3313 7.90761 13.2554 7.98902 13.1685L8.13556 13.0111H8.07405C8.02159 13.0093 7.99264 13.031 7.82982 13.2047L7.64349 13.4001V13.0111H7.51685V13.7348H7.64349V13.6389ZM8.44673 13.5539H8.81578L8.85377 13.6443C8.88815 13.7239 8.899 13.7348 8.94604 13.7348C8.97679 13.7348 9.00031 13.7293 9.00031 13.7239C9.00031 13.7167 8.92976 13.5539 8.84473 13.3621C8.69276 13.022 8.68734 13.0111 8.63487 13.0111C8.58784 13.0111 8.57698 13.022 8.52633 13.1323C8.49561 13.201 8.4234 13.3635 8.36554 13.4937L8.36532 13.4942L8.26039 13.7348H8.3219C8.37798 13.7348 8.38341 13.7275 8.41416 13.6443L8.44673 13.5539ZM8.67568 13.3128L8.67562 13.3126C8.66096 13.2773 8.6464 13.2438 8.63434 13.218C8.62348 13.2395 8.61081 13.2672 8.5977 13.2983C8.58061 13.3397 8.56486 13.3788 8.55289 13.4086L8.54916 13.4179C8.54833 13.42 8.54752 13.422 8.54673 13.424C8.56781 13.4259 8.59588 13.4272 8.62764 13.4272C8.66421 13.4272 8.69672 13.4255 8.71974 13.4228C8.71823 13.4187 8.71657 13.4142 8.71478 13.4095C8.70481 13.3831 8.69097 13.3488 8.67575 13.3129L8.67568 13.3128ZM8.53253 13.4589C8.5324 13.4589 8.53228 13.4588 8.53216 13.4588C8.5234 13.4578 8.51604 13.4567 8.51038 13.4554C8.50102 13.4534 8.49626 13.4512 8.49738 13.4489C8.49905 13.4456 8.50613 13.428 8.51665 13.4018L8.51666 13.4017C8.52892 13.3712 8.54583 13.3291 8.56432 13.2843C8.58271 13.2407 8.60059 13.2029 8.61434 13.1785C8.61448 13.1782 8.61461 13.178 8.61474 13.1778C8.61475 13.1778 8.61475 13.1777 8.61476 13.1777C8.61477 13.1777 8.61478 13.1777 8.61478 13.1777C8.61844 13.1712 8.62179 13.1658 8.62478 13.1614C8.63139 13.1518 8.6362 13.1476 8.63849 13.1504C8.64178 13.1531 8.64793 13.1636 8.6559 13.1794C8.65596 13.1796 8.65602 13.1797 8.65608 13.1798C8.67005 13.2076 8.68955 13.2518 8.70905 13.2988C8.7398 13.3711 8.76513 13.4381 8.76513 13.4471C8.76513 13.4562 8.70362 13.4634 8.62764 13.4634C8.58958 13.4634 8.55605 13.4616 8.53253 13.4589ZM8.51426 13.4191C8.51427 13.4191 8.51438 13.4191 8.51457 13.4192C8.51434 13.4191 8.51424 13.4191 8.51426 13.4191ZM9.19931 13.771V12.975H9.38022C9.59426 12.975 9.70866 13.0014 9.787 13.0882L9.78731 13.0885L9.78761 13.0889C9.81039 13.1155 9.82718 13.1392 9.83752 13.1674C9.84783 13.1954 9.85059 13.2248 9.85059 13.2608C9.85059 13.307 9.83578 13.3626 9.81744 13.406C9.80819 13.4279 9.79726 13.4486 9.78544 13.4645C9.77957 13.4724 9.7726 13.4803 9.76452 13.4866C9.75708 13.4923 9.74557 13.4991 9.73099 13.4996C9.73094 13.4996 9.7309 13.4996 9.73085 13.4996C9.72974 13.4999 9.72796 13.5005 9.72551 13.5015C9.7238 13.5022 9.72197 13.5031 9.72006 13.504C9.72739 13.5205 9.74448 13.5479 9.77714 13.5947L9.77715 13.5947L9.90001 13.771H9.7728C9.7427 13.771 9.71614 13.7672 9.68858 13.7457C9.66496 13.7272 9.64201 13.6966 9.61109 13.6524L9.6109 13.6521L9.61071 13.6518L9.55024 13.5619L9.39831 13.554V13.771H9.19931ZM9.36213 13.5159L9.57018 13.5267L9.64073 13.6317C9.70405 13.7221 9.72033 13.7348 9.7728 13.7348H9.83069L9.74747 13.6154C9.68053 13.5195 9.66968 13.4924 9.68958 13.4797C9.70405 13.4706 9.72033 13.4634 9.72938 13.4634C9.76194 13.4634 9.81441 13.3404 9.81441 13.2608C9.81441 13.192 9.80355 13.1631 9.76013 13.1124C9.6932 13.0383 9.5937 13.0111 9.38022 13.0111H9.2355V13.7348H9.36213V13.5159ZM9.63495 13.1904L9.63446 13.1899C9.61792 13.1726 9.60857 13.1664 9.59336 13.1624C9.57447 13.1574 9.54584 13.1559 9.48877 13.1559H9.39831V13.3939L9.48948 13.3875C9.48955 13.3875 9.48961 13.3875 9.48968 13.3875C9.54648 13.3829 9.57586 13.3791 9.59537 13.3725C9.61153 13.3672 9.62132 13.3599 9.6367 13.3423C9.65903 13.3153 9.66865 13.2874 9.66833 13.2624C9.66801 13.2376 9.65795 13.2127 9.63546 13.1909L9.63495 13.1904ZM9.66425 13.3657C9.62807 13.4073 9.60455 13.4146 9.49239 13.4236L9.36213 13.4327V13.1197H9.48877C9.60093 13.1197 9.62264 13.1251 9.66063 13.1649C9.71853 13.221 9.71853 13.3006 9.66425 13.3657ZM10.4379 13.048C10.4377 13.0478 10.4376 13.0476 10.4374 13.0473C10.4357 13.0452 10.4343 13.0433 10.4331 13.0419C10.4106 13.0162 10.411 13.0119 10.4533 13.0112C10.4537 13.0112 10.4541 13.0112 10.4545 13.0112C10.4595 13.0112 10.465 13.0111 10.4711 13.0111C10.529 13.0111 10.5435 13.022 10.6267 13.1378C10.6773 13.2065 10.7262 13.2644 10.7334 13.2644C10.7425 13.2644 10.7877 13.2065 10.8347 13.1378C10.9143 13.0238 10.927 13.0111 10.9831 13.0111H11.0446L10.918 13.1866C10.842 13.2934 10.7986 13.3693 10.8076 13.3802C10.8148 13.391 10.8764 13.4761 10.9433 13.5665L11.0627 13.7348H10.9958C10.9306 13.733 10.9216 13.7257 10.8293 13.59C10.7976 13.5435 10.7689 13.5019 10.7502 13.4754C10.75 13.475 10.7498 13.4747 10.7495 13.4744C10.7367 13.4561 10.7287 13.4453 10.728 13.4453C10.7273 13.4453 10.7193 13.4561 10.7065 13.4744C10.7062 13.4747 10.706 13.475 10.7058 13.4754C10.6871 13.5019 10.6584 13.5435 10.6267 13.59C10.538 13.7203 10.5236 13.733 10.4711 13.7348C10.4619 13.7348 10.453 13.7343 10.4452 13.7335C10.4451 13.7335 10.4451 13.7335 10.4451 13.7335C10.4253 13.7314 10.4114 13.7268 10.4114 13.7203C10.4132 13.7131 10.4693 13.6298 10.538 13.5358L10.6611 13.3657L10.5598 13.2192C10.5103 13.1466 10.4577 13.074 10.4379 13.048ZM10.6168 13.3652L10.53 13.2398L10.5299 13.2396C10.4763 13.1609 10.4197 13.0832 10.4053 13.0651C10.3996 13.0585 10.3926 13.0502 10.3881 13.0421C10.3859 13.0378 10.3819 13.0295 10.3821 13.0188C10.3823 13.0056 10.3887 12.9944 10.3979 12.9872C10.4054 12.9813 10.4134 12.979 10.4181 12.978C10.4233 12.9768 10.4288 12.9762 10.4337 12.9758C10.4436 12.975 10.4564 12.975 10.4711 12.975C10.4863 12.975 10.5018 12.9756 10.5173 12.9796C10.5336 12.9839 10.548 12.9914 10.5622 13.0029C10.588 13.0238 10.6154 13.06 10.6559 13.1165C10.6809 13.1503 10.7052 13.1812 10.724 13.2035C10.7274 13.2075 10.7305 13.2111 10.7334 13.2144C10.7359 13.2114 10.7386 13.208 10.7415 13.2044C10.7591 13.1822 10.7817 13.1513 10.8049 13.1173L10.805 13.1172L10.8051 13.1171C10.8438 13.0616 10.8697 13.0254 10.8941 13.0043C10.9075 12.9927 10.9214 12.9847 10.9374 12.9801C10.9527 12.9757 10.9681 12.975 10.9831 12.975H11.1153L10.9474 13.2076C10.9474 13.2076 10.9474 13.2077 10.9473 13.2077C10.9097 13.2606 10.8807 13.3051 10.8623 13.3373C10.854 13.3518 10.8484 13.363 10.8452 13.3708C10.8645 13.3979 10.9162 13.4692 10.9724 13.545L10.9726 13.5453L10.9728 13.5456L11.1327 13.771H10.9952L10.9947 13.7709C10.9785 13.7705 10.9619 13.7697 10.9459 13.7654C10.9287 13.7608 10.9137 13.7527 10.899 13.74C10.8726 13.7171 10.8443 13.6764 10.7994 13.6104C10.7994 13.6104 10.7994 13.6104 10.7994 13.6104M10.7994 13.6104C10.7723 13.5707 10.7475 13.5346 10.7293 13.5085C10.7289 13.5079 10.7284 13.5073 10.728 13.5067C10.7276 13.5073 10.7271 13.5079 10.7267 13.5085C10.7085 13.5346 10.6837 13.5707 10.6566 13.6104M10.6168 13.3652L10.5088 13.5144ZM10.4446 13.7345C10.4446 13.7345 10.4446 13.7345 10.4447 13.7344C10.4444 13.7349 10.4444 13.735 10.4446 13.7345ZM11.446 13.0052L11.4462 13.0051C11.505 12.9793 11.5795 12.972 11.6501 12.979C11.7208 12.9859 11.7925 13.0077 11.8452 13.0449C12.1471 13.2575 12.0264 13.7275 11.6598 13.7653C11.5295 13.7789 11.4288 13.7493 11.3356 13.6661C11.2887 13.6259 11.2549 13.5852 11.2334 13.5369C11.2119 13.4887 11.2038 13.4357 11.2038 13.373C11.2038 13.2899 11.2244 13.2154 11.2658 13.1525C11.3073 13.0896 11.3682 13.0402 11.4458 13.0053L11.446 13.0052ZM11.3594 13.6389C11.4444 13.7149 11.5349 13.742 11.6561 13.7293C11.9889 13.695 12.0993 13.268 11.8243 13.0745C11.7321 13.0093 11.5638 12.993 11.4607 13.0383C11.316 13.1034 11.24 13.2192 11.24 13.373C11.24 13.4924 11.2707 13.5629 11.3594 13.6389ZM11.6199 13.1124C11.6072 13.1088 11.5692 13.1124 11.5367 13.1197C11.3847 13.1559 11.3105 13.3277 11.3775 13.4905C11.4137 13.5774 11.5005 13.6262 11.6199 13.6262C11.7031 13.6262 11.723 13.619 11.7827 13.5647C11.8478 13.5032 11.8496 13.4996 11.8496 13.373C11.8496 13.2463 11.8478 13.2427 11.7827 13.1812C11.7447 13.1468 11.6995 13.1197 11.6796 13.1197C11.6597 13.1197 11.6344 13.1161 11.6199 13.1124ZM11.7582 13.2078C11.7409 13.1922 11.7221 13.1783 11.7058 13.1686C11.6976 13.1637 11.6906 13.1602 11.6852 13.158C11.681 13.1563 11.679 13.1559 11.6788 13.1559C11.6559 13.1558 11.628 13.1518 11.6111 13.1475L11.6107 13.1474C11.6107 13.1475 11.6093 13.1472 11.6058 13.1472C11.6015 13.1472 11.5958 13.1474 11.589 13.148C11.5755 13.1492 11.5595 13.1517 11.5448 13.1549C11.4193 13.185 11.3505 13.3299 11.4109 13.4768C11.4399 13.5462 11.5105 13.59 11.6199 13.59C11.6616 13.59 11.6813 13.588 11.6974 13.582C11.7131 13.576 11.7286 13.565 11.7581 13.5382C11.7921 13.506 11.8014 13.4958 11.8065 13.4813C11.8125 13.4641 11.8135 13.4391 11.8135 13.373C11.8135 13.3069 11.8125 13.2818 11.8065 13.2647C11.8014 13.2501 11.7922 13.2399 11.7582 13.2078ZM1.07644 13.7348V13.0111H1.18499V13.7348H1.07644ZM2.99409 13.7348V13.0111H3.10264V13.7348H2.99409Z" fill="url(#paint11_linear_5476_44018)"/>
<defs>
<linearGradient id="paint0_linear_5476_44018" x1="20.5497" y1="9.27479" x2="0.214478" y2="9.27479" gradientUnits="userSpaceOnUse">
<stop stop-color="#D99535"/>
<stop offset="0.247472" stop-color="#FEEFC2"/>
<stop offset="0.450587" stop-color="#F6A231"/>
<stop offset="0.638226" stop-color="#FAC15A"/>
<stop offset="0.700127" stop-color="#FBF0E1"/>
<stop offset="0.883898" stop-color="#9C6E2C"/>
</linearGradient>
<linearGradient id="paint1_linear_5476_44018" x1="20.5497" y1="9.27479" x2="0.214478" y2="9.27479" gradientUnits="userSpaceOnUse">
<stop stop-color="#D99535"/>
<stop offset="0.247472" stop-color="#FEEFC2"/>
<stop offset="0.450587" stop-color="#F6A231"/>
<stop offset="0.638226" stop-color="#FAC15A"/>
<stop offset="0.700127" stop-color="#FBF0E1"/>
<stop offset="0.883898" stop-color="#9C6E2C"/>
</linearGradient>
<linearGradient id="paint2_linear_5476_44018" x1="20.5497" y1="9.27479" x2="0.214478" y2="9.27479" gradientUnits="userSpaceOnUse">
<stop stop-color="#D99535"/>
<stop offset="0.247472" stop-color="#FEEFC2"/>
<stop offset="0.450587" stop-color="#F6A231"/>
<stop offset="0.638226" stop-color="#FAC15A"/>
<stop offset="0.700127" stop-color="#FBF0E1"/>
<stop offset="0.883898" stop-color="#9C6E2C"/>
</linearGradient>
<linearGradient id="paint3_linear_5476_44018" x1="20.5497" y1="9.27479" x2="0.214478" y2="9.27479" gradientUnits="userSpaceOnUse">
<stop stop-color="#D99535"/>
<stop offset="0.247472" stop-color="#FEEFC2"/>
<stop offset="0.450587" stop-color="#F6A231"/>
<stop offset="0.638226" stop-color="#FAC15A"/>
<stop offset="0.700127" stop-color="#FBF0E1"/>
<stop offset="0.883898" stop-color="#9C6E2C"/>
</linearGradient>
<linearGradient id="paint4_linear_5476_44018" x1="20.5497" y1="9.27479" x2="0.214478" y2="9.27479" gradientUnits="userSpaceOnUse">
<stop stop-color="#D99535"/>
<stop offset="0.247472" stop-color="#FEEFC2"/>
<stop offset="0.450587" stop-color="#F6A231"/>
<stop offset="0.638226" stop-color="#FAC15A"/>
<stop offset="0.700127" stop-color="#FBF0E1"/>
<stop offset="0.883898" stop-color="#9C6E2C"/>
</linearGradient>
<linearGradient id="paint5_linear_5476_44018" x1="20.5497" y1="9.27479" x2="0.214478" y2="9.27479" gradientUnits="userSpaceOnUse">
<stop stop-color="#D99535"/>
<stop offset="0.247472" stop-color="#FEEFC2"/>
<stop offset="0.450587" stop-color="#F6A231"/>
<stop offset="0.638226" stop-color="#FAC15A"/>
<stop offset="0.700127" stop-color="#FBF0E1"/>
<stop offset="0.883898" stop-color="#9C6E2C"/>
</linearGradient>
<linearGradient id="paint6_linear_5476_44018" x1="20.5497" y1="9.27479" x2="0.214478" y2="9.27479" gradientUnits="userSpaceOnUse">
<stop stop-color="#D99535"/>
<stop offset="0.247472" stop-color="#FEEFC2"/>
<stop offset="0.450587" stop-color="#F6A231"/>
<stop offset="0.638226" stop-color="#FAC15A"/>
<stop offset="0.700127" stop-color="#FBF0E1"/>
<stop offset="0.883898" stop-color="#9C6E2C"/>
</linearGradient>
<linearGradient id="paint7_linear_5476_44018" x1="20.5497" y1="9.27479" x2="0.214478" y2="9.27479" gradientUnits="userSpaceOnUse">
<stop stop-color="#D99535"/>
<stop offset="0.247472" stop-color="#FEEFC2"/>
<stop offset="0.450587" stop-color="#F6A231"/>
<stop offset="0.638226" stop-color="#FAC15A"/>
<stop offset="0.700127" stop-color="#FBF0E1"/>
<stop offset="0.883898" stop-color="#9C6E2C"/>
</linearGradient>
<linearGradient id="paint8_linear_5476_44018" x1="20.5497" y1="9.27479" x2="0.214478" y2="9.27479" gradientUnits="userSpaceOnUse">
<stop stop-color="#D99535"/>
<stop offset="0.247472" stop-color="#FEEFC2"/>
<stop offset="0.450587" stop-color="#F6A231"/>
<stop offset="0.638226" stop-color="#FAC15A"/>
<stop offset="0.700127" stop-color="#FBF0E1"/>
<stop offset="0.883898" stop-color="#9C6E2C"/>
</linearGradient>
<linearGradient id="paint9_linear_5476_44018" x1="20.5497" y1="9.27479" x2="0.214478" y2="9.27479" gradientUnits="userSpaceOnUse">
<stop stop-color="#D99535"/>
<stop offset="0.247472" stop-color="#FEEFC2"/>
<stop offset="0.450587" stop-color="#F6A231"/>
<stop offset="0.638226" stop-color="#FAC15A"/>
<stop offset="0.700127" stop-color="#FBF0E1"/>
<stop offset="0.883898" stop-color="#9C6E2C"/>
</linearGradient>
<linearGradient id="paint10_linear_5476_44018" x1="20.5497" y1="9.27479" x2="0.214478" y2="9.27479" gradientUnits="userSpaceOnUse">
<stop stop-color="#D99535"/>
<stop offset="0.247472" stop-color="#FEEFC2"/>
<stop offset="0.450587" stop-color="#F6A231"/>
<stop offset="0.638226" stop-color="#FAC15A"/>
<stop offset="0.700127" stop-color="#FBF0E1"/>
<stop offset="0.883898" stop-color="#9C6E2C"/>
</linearGradient>
<linearGradient id="paint11_linear_5476_44018" x1="12.2491" y1="13.3723" x2="0.206358" y2="13.3723" gradientUnits="userSpaceOnUse">
<stop stop-color="#D99535"/>
<stop offset="0.247472" stop-color="#FEEFC2"/>
<stop offset="0.450587" stop-color="#F6A231"/>
<stop offset="0.638226" stop-color="#FAC15A"/>
<stop offset="0.700127" stop-color="#FBF0E1"/>
<stop offset="0.883898" stop-color="#9C6E2C"/>
</linearGradient>
</defs>
</svg>
