<svg width="20" height="20" viewBox="0 0 20 20" fill="none" xmlns="http://www.w3.org/2000/svg">
<g filter="url(#filter0_i_4436_57448)">
<path d="M5.46792 3.09265C4.51608 3.42244 3.99356 4.42848 3.99023 5.93087C3.99023 6.72038 4.55935 7.5965 5.17505 7.7564C5.96714 7.96294 13.9646 8.76577 15.2027 8.76244C16.8767 8.75577 17.6455 6.96023 16.4607 5.81761C16.1046 5.47782 15.2726 5.22798 10.4135 4.00874C6.17348 2.94607 5.99377 2.91276 5.46792 3.09265ZM8.41666 4.74162C10.4102 5.22465 12.883 5.85425 14.6735 6.33729C15.835 6.65043 16.0846 6.92692 15.6619 7.42994L15.4856 7.6398L14.9131 7.5965C10.6831 7.2767 5.62435 6.6904 5.42133 6.49718C4.96538 6.07079 5.18836 4.5051 5.73417 4.26525C6.00042 4.14866 5.89059 4.12867 8.41666 4.74162Z" fill="url(#paint0_linear_4436_57448)"/>
<path d="M5.46792 3.09265C4.51608 3.42244 3.99356 4.42848 3.99023 5.93087C3.99023 6.72038 4.55935 7.5965 5.17505 7.7564C5.96714 7.96294 13.9646 8.76577 15.2027 8.76244C16.8767 8.75577 17.6455 6.96023 16.4607 5.81761C16.1046 5.47782 15.2726 5.22798 10.4135 4.00874C6.17348 2.94607 5.99377 2.91276 5.46792 3.09265ZM8.41666 4.74162C10.4102 5.22465 12.883 5.85425 14.6735 6.33729C15.835 6.65043 16.0846 6.92692 15.6619 7.42994L15.4856 7.6398L14.9131 7.5965C10.6831 7.2767 5.62435 6.6904 5.42133 6.49718C4.96538 6.07079 5.18836 4.5051 5.73417 4.26525C6.00042 4.14866 5.89059 4.12867 8.41666 4.74162Z" fill="url(#paint1_linear_4436_57448)"/>
<path d="M5.46792 3.09265C4.51608 3.42244 3.99356 4.42848 3.99023 5.93087C3.99023 6.72038 4.55935 7.5965 5.17505 7.7564C5.96714 7.96294 13.9646 8.76577 15.2027 8.76244C16.8767 8.75577 17.6455 6.96023 16.4607 5.81761C16.1046 5.47782 15.2726 5.22798 10.4135 4.00874C6.17348 2.94607 5.99377 2.91276 5.46792 3.09265ZM8.41666 4.74162C10.4102 5.22465 12.883 5.85425 14.6735 6.33729C15.835 6.65043 16.0846 6.92692 15.6619 7.42994L15.4856 7.6398L14.9131 7.5965C10.6831 7.2767 5.62435 6.6904 5.42133 6.49718C4.96538 6.07079 5.18836 4.5051 5.73417 4.26525C6.00042 4.14866 5.89059 4.12867 8.41666 4.74162Z" fill="url(#paint2_radial_4436_57448)"/>
<path d="M2.00651 8.76914C0.598714 8.94569 -0.386411 10.7812 0.252589 12.0338C0.542136 12.5968 5.26142 17.2505 5.85382 17.5537C6.41629 17.8435 6.66257 17.8568 11.3119 17.8535C16.8732 17.8501 16.4872 17.9368 17.6487 16.4243C19.965 13.4063 20.2613 12.7566 19.8352 11.6174C19.3294 10.2649 19.0032 10.1482 14.6068 9.7652C10.6829 9.42204 3.70718 8.8291 3.2246 8.79245C2.93173 8.77246 2.6322 8.74582 2.55898 8.73583C2.48576 8.72583 2.23615 8.73915 2.00651 8.76914ZM5.25476 10.1582C6.55604 10.2682 8.0371 10.3881 8.54958 10.4281C13.3155 10.8012 17.9848 11.2809 18.3143 11.4308C18.7237 11.6174 18.94 12.4335 18.707 12.9066C18.3775 13.5728 16.1977 16.4243 15.9147 16.5609C15.6884 16.6709 8.72934 16.7341 7.3648 16.6376L6.44623 16.5743L5.96698 16.1145C5.70406 15.8647 4.65237 14.862 3.63063 13.8926C1.47401 11.8439 1.26101 11.604 1.26101 11.2043C1.26101 10.3515 1.78352 9.85514 2.59226 9.93508C2.75867 9.95173 3.95679 10.0517 5.25476 10.1582Z" fill="url(#paint3_linear_4436_57448)"/>
<path d="M2.00651 8.76914C0.598714 8.94569 -0.386411 10.7812 0.252589 12.0338C0.542136 12.5968 5.26142 17.2505 5.85382 17.5537C6.41629 17.8435 6.66257 17.8568 11.3119 17.8535C16.8732 17.8501 16.4872 17.9368 17.6487 16.4243C19.965 13.4063 20.2613 12.7566 19.8352 11.6174C19.3294 10.2649 19.0032 10.1482 14.6068 9.7652C10.6829 9.42204 3.70718 8.8291 3.2246 8.79245C2.93173 8.77246 2.6322 8.74582 2.55898 8.73583C2.48576 8.72583 2.23615 8.73915 2.00651 8.76914ZM5.25476 10.1582C6.55604 10.2682 8.0371 10.3881 8.54958 10.4281C13.3155 10.8012 17.9848 11.2809 18.3143 11.4308C18.7237 11.6174 18.94 12.4335 18.707 12.9066C18.3775 13.5728 16.1977 16.4243 15.9147 16.5609C15.6884 16.6709 8.72934 16.7341 7.3648 16.6376L6.44623 16.5743L5.96698 16.1145C5.70406 15.8647 4.65237 14.862 3.63063 13.8926C1.47401 11.8439 1.26101 11.604 1.26101 11.2043C1.26101 10.3515 1.78352 9.85514 2.59226 9.93508C2.75867 9.95173 3.95679 10.0517 5.25476 10.1582Z" fill="url(#paint4_linear_4436_57448)"/>
<path d="M2.00651 8.76914C0.598714 8.94569 -0.386411 10.7812 0.252589 12.0338C0.542136 12.5968 5.26142 17.2505 5.85382 17.5537C6.41629 17.8435 6.66257 17.8568 11.3119 17.8535C16.8732 17.8501 16.4872 17.9368 17.6487 16.4243C19.965 13.4063 20.2613 12.7566 19.8352 11.6174C19.3294 10.2649 19.0032 10.1482 14.6068 9.7652C10.6829 9.42204 3.70718 8.8291 3.2246 8.79245C2.93173 8.77246 2.6322 8.74582 2.55898 8.73583C2.48576 8.72583 2.23615 8.73915 2.00651 8.76914ZM5.25476 10.1582C6.55604 10.2682 8.0371 10.3881 8.54958 10.4281C13.3155 10.8012 17.9848 11.2809 18.3143 11.4308C18.7237 11.6174 18.94 12.4335 18.707 12.9066C18.3775 13.5728 16.1977 16.4243 15.9147 16.5609C15.6884 16.6709 8.72934 16.7341 7.3648 16.6376L6.44623 16.5743L5.96698 16.1145C5.70406 15.8647 4.65237 14.862 3.63063 13.8926C1.47401 11.8439 1.26101 11.604 1.26101 11.2043C1.26101 10.3515 1.78352 9.85514 2.59226 9.93508C2.75867 9.95173 3.95679 10.0517 5.25476 10.1582Z" fill="url(#paint5_radial_4436_57448)"/>
</g>
<defs>
<filter id="filter0_i_4436_57448" x="0.0537109" y="3.00958" width="26.2954" height="21.1943" filterUnits="userSpaceOnUse" color-interpolation-filters="sRGB">
<feFlood flood-opacity="0" result="BackgroundImageFix"/>
<feBlend mode="normal" in="SourceGraphic" in2="BackgroundImageFix" result="shape"/>
<feColorMatrix in="SourceAlpha" type="matrix" values="0 0 0 0 0 0 0 0 0 0 0 0 0 0 0 0 0 0 127 0" result="hardAlpha"/>
<feOffset dx="6.35008" dy="6.35008"/>
<feGaussianBlur stdDeviation="6.35008"/>
<feComposite in2="hardAlpha" operator="arithmetic" k2="-1" k3="1"/>
<feColorMatrix type="matrix" values="0 0 0 0 0.470833 0 0 0 0 0.470833 0 0 0 0 0.470833 0 0 0 0.38 0"/>
<feBlend mode="normal" in2="shape" result="effect1_innerShadow_4436_57448"/>
</filter>
<linearGradient id="paint0_linear_4436_57448" x1="12.2531" y1="6.5642" x2="11.2716" y2="3.00599" gradientUnits="userSpaceOnUse">
<stop stop-color="#1E3197"/>
<stop offset="1" stop-color="#7B61FF" stop-opacity="0"/>
</linearGradient>
<linearGradient id="paint1_linear_4436_57448" x1="10.8609" y1="3.00958" x2="10.4686" y2="10.3166" gradientUnits="userSpaceOnUse">
<stop stop-color="#9644B4"/>
<stop offset="1" stop-color="white" stop-opacity="0"/>
</linearGradient>
<radialGradient id="paint2_radial_4436_57448" cx="0" cy="0" r="1" gradientUnits="userSpaceOnUse" gradientTransform="translate(5.29219 4.58941) rotate(13.404) scale(10.2225 6.8905)">
<stop stop-color="#1DD2D2"/>
<stop offset="1" stop-color="white" stop-opacity="0"/>
</radialGradient>
<linearGradient id="paint3_linear_4436_57448" x1="12.6894" y1="14.3684" x2="11.0846" y2="8.7566" gradientUnits="userSpaceOnUse">
<stop stop-color="#1E3197"/>
<stop offset="1" stop-color="#7B61FF" stop-opacity="0"/>
</linearGradient>
<linearGradient id="paint4_linear_4436_57448" x1="10.5605" y1="8.73253" x2="9.91586" y2="20.3155" gradientUnits="userSpaceOnUse">
<stop stop-color="#9644B4"/>
<stop offset="1" stop-color="white" stop-opacity="0"/>
</linearGradient>
<radialGradient id="paint5_radial_4436_57448" cx="0" cy="0" r="1" gradientUnits="userSpaceOnUse" gradientTransform="translate(2.04469 11.2374) rotate(13.8787) scale(15.664 10.903)">
<stop stop-color="#1DD2D2"/>
<stop offset="1" stop-color="white" stop-opacity="0"/>
</radialGradient>
</defs>
</svg>
