<svg width="20" height="20" viewBox="0 0 20 20" fill="none" xmlns="http://www.w3.org/2000/svg">
<path fill-rule="evenodd" clip-rule="evenodd" d="M12.1437 2.79803C13.9882 3.18529 15.6473 4.37839 16.4493 5.89434C16.8106 6.57732 17.4413 8.96612 17.4413 9.65184C17.4413 9.86648 17.3016 10.0723 16.9812 10.3298C16.0864 11.0489 15.3047 12.6678 15.4759 13.4472C15.5425 13.7504 15.5018 13.7951 14.9381 14.0376C13.4788 14.6653 12.65 14.7998 10.1794 14.81C8.14199 14.8185 7.72854 14.7868 6.8002 14.5511C4.23485 13.8996 2.56485 12.4965 2.56104 10.9891C2.56068 10.8456 2.6108 10.6971 2.67258 10.6589C2.73437 10.6208 2.78044 10.2793 2.77508 9.90017C2.76413 9.13017 2.91258 8.58684 3.40032 7.61184C3.72282 6.96708 4.10794 6.50517 4.10794 6.76303C4.10794 6.83208 4.21508 6.92267 4.34604 6.96422C4.52497 7.02101 4.58413 7.14434 4.58413 7.46017C4.58413 8.69136 5.83366 9.53541 7.11866 9.17231C7.68639 9.01184 8.01818 8.77267 8.32711 8.30124C8.44425 8.12243 8.59663 7.97612 8.6658 7.97612C8.91151 7.97612 9.22699 7.57732 9.22699 7.26672C9.22699 7.05767 9.07996 6.81315 8.7908 6.54113L8.35473 6.13089L8.61223 6.5616C9.24449 7.61886 8.78997 7.82315 7.19092 7.20017C6.56639 6.95684 5.75675 6.73577 5.35794 6.69958C4.21663 6.59624 4.08699 6.37958 4.84008 5.83398C5.18866 5.58148 5.47116 5.47613 5.79949 5.47613C6.07937 5.47613 6.23556 5.42874 6.19127 5.35708C6.1508 5.2916 6.00032 5.23613 5.85687 5.23374C5.61032 5.2297 5.61461 5.21422 5.93616 4.95124C7.07187 4.02232 10.0091 2.62696 10.8341 2.62458C11.096 2.62375 11.6853 2.70184 12.1437 2.79803ZM14.552 5.35529C14.334 5.35374 14.3184 5.33172 14.4651 5.23208C14.6906 5.07874 15.5098 5.19363 15.8693 5.42886C16.427 5.79386 16.4422 6.5897 15.8981 6.92958C15.7269 7.03648 15.6556 7.20732 15.6556 7.51101C15.6556 8.49005 14.5544 9.35779 13.4641 9.23767C12.8094 9.16565 12.0258 8.71196 11.9064 8.33589C11.8637 8.20124 11.6451 8.01446 11.4207 7.92065C11.081 7.77874 11.0127 7.68862 11.0127 7.38279C11.0127 6.96303 11.2923 6.47839 11.6427 6.29089C11.869 6.1697 11.8677 6.18267 11.6179 6.53351C11.4588 6.75696 11.369 7.03434 11.3916 7.23184C11.4254 7.52493 11.4732 7.55708 11.846 7.5366C12.0752 7.5241 12.7563 7.32315 13.3594 7.09017C14.0823 6.81101 14.6556 6.6666 15.0413 6.6666C15.7071 6.6666 15.959 6.46696 15.8485 6.02672C15.7732 5.7266 15.0628 5.35874 14.552 5.35529ZM8.43592 9.18089C8.52461 9.10731 8.80592 8.96779 9.06092 8.87077C9.67687 8.63672 10.8237 8.69577 11.4294 8.99267C11.8518 9.1997 11.9034 9.271 11.8869 9.62327C11.8634 10.1229 11.4888 10.5301 10.8162 10.787C10.0619 11.0751 10.1225 11.3435 10.9829 11.526C11.3594 11.6059 11.9256 11.8041 12.2409 11.9666C12.9181 12.3152 13.2184 12.338 13.3841 12.0535C13.4972 11.8593 13.5057 11.8591 13.5091 12.0493C13.514 12.3264 13.0878 12.5345 12.6477 12.4699C12.4012 12.4337 12.2163 12.4868 12.0662 12.637C11.6909 13.0122 11.4103 12.9199 11.3262 12.3939C11.2377 11.8406 11.1233 11.7856 10.0591 11.7856C9.13389 11.7856 8.86985 11.9461 8.86985 12.5084C8.86985 12.7777 8.81568 12.8571 8.63175 12.8571C8.5008 12.8571 8.29616 12.7596 8.17699 12.6404C8.02092 12.4843 7.83735 12.438 7.52056 12.4751C7.0858 12.5258 6.72699 12.3583 6.72699 12.1045C6.72699 12.0209 6.77675 12.0259 6.86985 12.119C7.08377 12.3329 7.36854 12.2939 7.98532 11.9659C8.29151 11.803 8.85687 11.6048 9.24163 11.5254C10.1139 11.3452 10.2073 11.0416 9.45937 10.8174C8.60973 10.5629 7.98139 9.55815 8.43592 9.18089Z" fill="#FFB031"/>
<path d="M3.24988 10.5357C2.91655 10.5833 2.59512 10.873 2.47607 11.0118C2.69433 12.5198 4.52369 15.4404 10.0951 15.0595C15.6665 15.4404 17.4959 12.5198 17.7142 11.0118C17.5951 10.873 17.2737 10.5833 16.9404 10.5357C16.5237 10.4761 15.0356 11.0118 14.6785 11.0118C12.4165 11.0118 11.3451 7.97614 10.0951 7.97614C8.84512 7.97614 7.77369 11.0118 5.51179 11.0118C5.15465 11.0118 3.66655 10.4761 3.24988 10.5357Z" fill="white"/>
<path d="M16.4046 5.59519C13.4284 2.97615 9.89666 2.9563 8.6665 3.21424C8.80539 3.01583 9.46955 2.44043 11.0475 2.44043C14.5594 2.44043 16.5179 5.6949 16.4046 5.59519Z" fill="#FFD35E"/>
<path d="M3.06967 10.8333C2.68872 9.64284 3.2284 8.15475 3.54587 7.55951C3.08951 8.05554 2.24824 9.48808 2.53396 11.25C2.81967 13.0119 4.47841 13.8889 5.27207 14.1071C6.12523 14.4643 8.27204 15.1666 10.034 15.119C12.2364 15.0595 15.5713 14.9405 17.7142 11.8452C17.879 11.6071 17.3157 11.1508 15.8673 12.3809C15.1332 12.9762 12.9387 14.119 10.034 13.9286C6.87919 13.9286 3.54587 12.3214 3.06967 10.8333Z" fill="#B7A7A7"/>
<path fill-rule="evenodd" clip-rule="evenodd" d="M3.4985 7.55951C3.06517 8.03052 2.28478 9.34592 2.45176 10.9859C2.55065 10.8779 2.74203 10.7082 2.96181 10.6088C2.70741 9.4618 3.20072 8.11785 3.4985 7.55951Z" fill="#B87420"/>
<path d="M4.57825 2.08044C4.90325 2.24853 5.41718 2.92699 5.41718 3.18794C5.41718 3.25627 5.02623 3.60651 4.54837 3.96603C4.07051 4.32568 3.60861 4.70544 3.52194 4.80996C3.26706 5.11699 3.15527 5.03151 3.15527 4.52961C3.15527 3.73663 3.39337 2.89282 3.7598 2.38699C3.95194 2.12175 4.13825 1.90472 4.17384 1.90472C4.20944 1.90472 4.39146 1.98377 4.57825 2.08044Z" fill="white"/>
<path d="M16.4759 2.38222C16.8674 2.9227 17.1365 4.1421 17.0218 4.85639C16.8468 5.9471 16.8723 5.92901 16.4313 5.27437C16.211 4.94711 15.706 4.38556 15.3092 4.02651L14.5878 3.37365L14.9354 2.82544C15.2359 2.35175 15.751 1.92508 16.0415 1.90949C16.0902 1.90687 16.2856 2.11961 16.4759 2.38222Z" fill="white"/>
<path d="M5.0896 3.51188C4.8515 2.51188 4.07769 2.30157 3.72055 2.32141C3.62134 2.20236 3.5896 1.91665 4.25626 1.72617C4.92293 1.53569 5.48642 2.63887 5.68484 3.21427C5.58563 3.73014 5.32769 4.51188 5.0896 3.51188Z" fill="#B7A6A6"/>
<path d="M15.03 3.47416C15.2681 2.47417 16.0419 2.26385 16.3991 2.28369C16.4983 2.16464 16.53 1.87893 15.8634 1.68845C15.1967 1.49797 14.6332 2.60115 14.4348 3.17655C14.534 3.69242 14.7919 4.47416 15.03 3.47416Z" fill="#B7A6A6"/>
<path d="M4.9172 0.380955C4.99577 0.459527 5.06006 0.643812 5.06006 0.790598C5.06006 1.1525 5.19946 1.2125 5.66375 1.0506C6.04946 0.916193 6.06839 0.926312 6.68934 1.59334C7.03732 1.96714 7.32196 2.34107 7.32196 2.42429C7.32196 2.5075 7.01601 2.67203 6.64208 2.78988C6.0828 2.96619 5.95327 2.97536 5.91149 2.84143C5.81422 2.52964 4.8397 1.68953 4.48494 1.61155C4.27303 1.565 4.0322 1.59274 3.89303 1.67964C3.23339 2.09155 2.6997 3.6875 2.83137 4.85476C2.87172 5.21274 2.82863 5.57369 2.71018 5.86964C2.45006 6.51976 2.32601 6.23429 2.32375 4.98071C2.31911 2.32738 3.22744 0.238098 4.38565 0.238098C4.59946 0.238098 4.83863 0.302384 4.9172 0.380955Z" fill="#FFB031"/>
<path d="M16.5924 0.541193C16.7907 0.707979 17.088 1.13036 17.2534 1.47988C17.9366 2.92417 18.1684 6.39857 17.5739 6.28369C17.4102 6.25202 17.3801 6.03393 17.3723 4.81964C17.3622 3.25155 17.156 2.53964 16.5195 1.875C16.1666 1.50655 15.9127 1.47 15.4321 1.71845C15.0898 1.89548 14.2957 2.70976 14.2076 2.97405C14.1687 3.09048 14.0032 3.07405 13.4786 2.90167C13.1053 2.77893 12.7995 2.64429 12.799 2.60226C12.7972 2.44155 13.5976 1.3756 13.8755 1.16857C14.1128 0.991788 14.2426 0.972979 14.571 1.06738C15.0716 1.21143 15.1791 1.14941 15.1791 0.717145C15.1791 0.341431 15.2941 0.261432 15.8545 0.247503C16.0958 0.241551 16.3624 0.347622 16.5924 0.541193Z" fill="#FFB031"/>
<path d="M4.32159 0.476176C3.75016 0.476176 3.09143 1.24998 2.8335 1.66665V1.30951L3.13112 0.892842L3.36921 0.595223L3.54778 0.416652L3.8454 0.238081L4.14302 0.0595093H4.50016L5.0954 0.178557L5.21445 0.476176L5.3335 0.952366H5.75016L6.16683 0.773795L6.70254 1.30951L7.17873 1.84522L7.5954 2.61903C7.39699 2.75792 7.01207 2.95236 7.05969 2.61903C7.10731 2.2857 6.20651 1.36903 5.75016 0.952366H5.3335C5.23429 0.793636 4.89302 0.476176 4.32159 0.476176Z" fill="#FFD35E"/>
<path d="M17.4168 1.66665C17.1589 1.24998 16.5002 0.476176 15.9287 0.476176C15.3573 0.476176 15.016 0.793636 14.9168 0.952366H14.5002C14.0438 1.36903 13.143 2.2857 13.1906 2.61903C13.2383 2.95236 12.8533 2.75792 12.6549 2.61903L13.0716 1.84522L13.5478 1.30951L14.0835 0.773795L14.5002 0.952366H14.9168L15.0359 0.476176L15.1549 0.178557L15.7502 0.0595093H16.1073L16.4049 0.238081L16.7025 0.416652L16.8811 0.595223L17.1192 0.892842L17.4168 1.30951V1.66665Z" fill="#FFD35E"/>
<path fill-rule="evenodd" clip-rule="evenodd" d="M3.55949 0.226301C2.83033 0.670944 2.28485 1.96642 2.0614 3.78428C1.90723 5.03951 2.04961 6.57916 2.41866 7.64702C2.61902 8.22666 2.61854 8.28571 2.40652 9.09594C2.12544 10.1696 2.18437 11.5253 2.54247 12.2274C2.88295 12.8948 3.76902 13.6468 4.79223 14.1369C5.26687 14.3642 5.65533 14.5696 5.65533 14.5933C5.65533 14.617 5.55187 14.8656 5.42533 15.1456C5.29878 15.4256 5.16652 15.7484 5.1314 15.8631C5.08842 16.0036 4.94616 16.0714 4.69473 16.0714C4.13068 16.0714 3.51187 16.7361 3.51425 17.3393C3.51533 17.5913 3.56533 17.8753 3.62545 17.9703C3.70616 18.0981 3.64437 18.1981 3.38866 18.3536C2.97033 18.6081 2.8389 19.0473 3.03759 19.527L3.18497 19.8828L10.1031 19.8521L17.0212 19.8214L17.1753 19.4999C17.382 19.0687 17.246 18.5942 16.8464 18.3511C16.4566 18.114 16.5012 17.9167 17.1304 17.0923C17.3614 16.7896 17.6059 16.3424 17.6737 16.0983C17.81 15.6077 17.8406 14.6059 17.7229 14.4883C17.6816 14.4469 17.4314 14.5982 17.167 14.8246C16.7184 15.2084 15.6228 15.7143 15.2397 15.7143C15.1156 15.7143 14.5839 14.7999 14.5839 14.5863C14.5839 14.5719 14.976 14.3662 15.4553 14.1293C17.6527 13.0433 18.3422 11.6678 17.8535 9.34523C17.6094 8.1844 17.6077 8.24071 17.9197 7.14285C18.2446 6.00023 18.2773 3.90094 17.989 2.69082C17.5901 1.01594 16.7915 -0.00203253 15.8794 0.00165795C15.2002 0.00439604 14.9716 0.114991 14.8994 0.476063C14.8368 0.789158 14.801 0.807849 14.3733 0.750468C13.9407 0.692491 13.8821 0.724872 13.3478 1.31916C13.0362 1.66582 12.7084 2.09011 12.6196 2.26202C12.4613 2.56809 12.4421 2.57249 11.7054 2.47202C11.2915 2.41559 10.6237 2.2919 10.2212 2.19713C9.46378 2.0188 8.92342 2.06011 8.36961 2.33844C7.8783 2.58535 7.76568 2.54237 7.40425 1.97023C6.86806 1.12154 6.30604 0.691539 5.79104 0.736182C5.39961 0.770229 5.35414 0.743325 5.32116 0.458563C5.29735 0.252372 5.19437 0.119039 5.02354 0.0732055C4.52509 -0.0603659 3.92711 0.00213404 3.55949 0.226301ZM4.91723 0.380944C4.9958 0.459515 5.06009 0.643801 5.06009 0.790587C5.06009 1.15249 5.19949 1.21249 5.66378 1.05059C6.04949 0.916182 6.06842 0.926301 6.68937 1.59332C7.03735 1.96713 7.32199 2.34106 7.32199 2.42428C7.32199 2.50749 7.01604 2.67202 6.64211 2.78987C6.08283 2.96618 5.9533 2.97535 5.91152 2.84142C5.81425 2.52963 4.83973 1.68952 4.48497 1.61154C4.27306 1.56499 4.03223 1.59273 3.89306 1.67963C3.23342 2.09154 2.69973 3.68749 2.8314 4.85475C2.87175 5.21273 2.82866 5.57368 2.71021 5.86963C2.45009 6.51975 2.32604 6.23428 2.32378 4.98071C2.31914 2.32737 3.22747 0.238087 4.38568 0.238087C4.59949 0.238087 4.83866 0.302372 4.91723 0.380944ZM16.5925 0.541182C16.7907 0.707967 17.0881 1.13035 17.2534 1.47987C17.9366 2.92416 18.1684 6.39856 17.5739 6.28368C17.4102 6.25201 17.3801 6.03392 17.3723 4.81963C17.3622 3.25154 17.156 2.53963 16.5195 1.87499C16.1666 1.50654 15.9127 1.46999 15.4321 1.71844C15.0898 1.89547 14.2957 2.70975 14.2076 2.97404C14.1688 3.09047 14.0032 3.07404 13.4787 2.90166C13.1053 2.77892 12.7995 2.64428 12.799 2.60225C12.7972 2.44154 13.5976 1.37559 13.8756 1.16856C14.1128 0.991777 14.2426 0.972967 14.571 1.06737C15.0716 1.21142 15.1791 1.1494 15.1791 0.717134C15.1791 0.34142 15.2941 0.26142 15.8545 0.247491C16.0958 0.241539 16.3625 0.34761 16.5925 0.541182ZM4.5783 2.08047C4.9033 2.24856 5.41723 2.92702 5.41723 3.18797C5.41723 3.2563 5.02628 3.60654 4.54842 3.96606C4.07056 4.32571 3.60866 4.70547 3.52199 4.80999C3.26711 5.11702 3.15533 5.03154 3.15533 4.52963C3.15533 3.73666 3.39342 2.89285 3.75985 2.38701C3.95199 2.12178 4.1383 1.90475 4.1739 1.90475C4.20949 1.90475 4.39152 1.9838 4.5783 2.08047ZM16.4759 2.38225C16.8675 2.92273 17.1365 4.14213 17.0219 4.85642C16.8469 5.94713 16.8723 5.92904 16.4314 5.2744C16.211 4.94713 15.706 4.38559 15.3093 4.02654L14.5878 3.37368L14.9354 2.82547C15.2359 2.35178 15.751 1.92511 16.0415 1.90952C16.0902 1.9069 16.2857 2.11963 16.4759 2.38225ZM8.55628 3.07511C7.17366 3.67309 5.85437 4.43999 4.79223 5.26321L4.16723 5.74749L4.76247 5.12666C5.95354 3.88416 8.3708 2.4994 9.3458 2.50106C9.87199 2.50201 9.85794 2.51213 8.55628 3.07511ZM12.1434 2.79809C13.9879 3.18535 15.6471 4.37844 16.449 5.8944C16.8103 6.57737 17.441 8.96618 17.441 9.6519C17.441 9.86654 17.3014 10.0724 16.9809 10.3299C16.0862 11.0489 15.3045 12.6678 15.4757 13.4473C15.5422 13.7505 15.5015 13.7951 14.9378 14.0376C13.4785 14.6653 12.6497 14.7999 10.1791 14.8101C8.14175 14.8186 7.7283 14.7869 6.79997 14.5512C4.23461 13.8996 2.56461 12.4965 2.5608 10.9892C2.56045 10.8457 2.61056 10.6971 2.67235 10.6589C2.73414 10.6208 2.78021 10.2794 2.77485 9.90023C2.7639 9.13023 2.91235 8.5869 3.40009 7.6119C3.72259 6.96713 4.10771 6.50523 4.10771 6.76309C4.10771 6.83213 4.21485 6.92273 4.3458 6.96428C4.52473 7.02106 4.5839 7.1444 4.5839 7.46023C4.5839 8.69142 5.83342 9.53547 7.11842 9.17237C7.68616 9.0119 8.01794 8.77273 8.32687 8.3013C8.44402 8.12249 8.5964 7.97618 8.66556 7.97618C8.91128 7.97618 9.22675 7.57737 9.22675 7.26678C9.22675 7.05773 9.07973 6.81321 8.79056 6.54118L8.35449 6.13094L8.61199 6.56166C9.24425 7.61892 8.78973 7.82321 7.19068 7.20023C6.56616 6.9569 5.75652 6.73582 5.35771 6.69963C4.2164 6.5963 4.08675 6.37963 4.83985 5.83404C5.18842 5.58154 5.47092 5.47618 5.79925 5.47618C6.07914 5.47618 6.23533 5.4288 6.19104 5.35713C6.15056 5.29166 6.00009 5.23618 5.85664 5.2338C5.61009 5.22975 5.61437 5.21428 5.93592 4.9513C7.07164 4.02237 10.0089 2.62702 10.8339 2.62463C11.0958 2.6238 11.6851 2.7019 12.1434 2.79809ZM6.18759 3.66702C5.60021 4.04702 4.75271 4.72499 4.30425 5.17356C3.53997 5.93809 3.50366 5.96011 3.7264 5.52356C4.08675 4.81725 5.17878 3.85749 6.15342 3.39035C6.62878 3.16261 7.07116 2.97618 7.13664 2.97618C7.20211 2.97618 6.77497 3.28702 6.18759 3.66702ZM3.47378 5.4588C3.08509 6.05309 2.9058 6.18821 3.16056 5.69475C3.28997 5.44416 3.74759 4.88094 3.82187 4.88094C3.83818 4.88094 3.68152 5.14094 3.47378 5.4588ZM14.4648 5.23213C14.3182 5.33178 14.3338 5.3538 14.5518 5.35535C15.0626 5.3588 15.7729 5.72666 15.8483 6.02678C15.9588 6.46702 15.7069 6.66666 15.041 6.66666C14.6553 6.66666 14.0821 6.81106 13.3591 7.09023C12.756 7.32321 12.075 7.52416 11.8458 7.53666C11.4729 7.55713 11.4252 7.52499 11.3914 7.2319C11.3688 7.0344 11.4585 6.75702 11.6177 6.53356C11.8675 6.18273 11.8688 6.16975 11.6425 6.29094C11.2921 6.47844 11.0125 6.96309 11.0125 7.38285C11.0125 7.68868 11.0808 7.7788 11.4204 7.92071C11.6448 8.01451 11.8634 8.2013 11.9062 8.33594C12.0256 8.71202 12.8091 9.16571 13.4639 9.23773C14.5541 9.35785 15.6553 8.49011 15.6553 7.51106C15.6553 7.20737 15.7266 7.03654 15.8978 6.92963C16.442 6.58975 16.4268 5.79392 15.869 5.42892C15.5096 5.19368 14.6903 5.0788 14.4648 5.23213ZM6.98783 7.52309C7.53175 7.7319 7.99437 7.91463 8.01604 7.92916C8.03759 7.94368 7.96806 8.08868 7.8614 8.25142C7.58997 8.66571 7.06961 8.84987 6.36271 8.7819C5.45056 8.69428 4.78616 7.93725 5.00794 7.23856C5.0733 7.03285 5.15187 7.00809 5.54175 7.07035C5.79318 7.11059 6.4439 7.31428 6.98783 7.52309ZM15.2185 7.28071C15.321 7.67273 15.0007 8.30047 14.5613 8.56832C13.8472 9.0038 12.6393 8.80713 12.3159 8.20285C12.1631 7.91737 12.1531 7.93201 12.6196 7.76344C12.816 7.69261 13.3518 7.49821 13.8101 7.33166C14.8476 6.95463 15.1306 6.9444 15.2185 7.28071ZM9.06068 8.87082C8.80568 8.96785 8.52437 9.10737 8.43568 9.18094C7.98116 9.55821 8.60949 10.563 9.45914 10.8175C10.2071 11.0417 10.1137 11.3452 9.2414 11.5255C8.85663 11.6049 8.29128 11.8031 7.98509 11.9659C7.3683 12.2939 7.08354 12.333 6.86961 12.119C6.77652 12.0259 6.72675 12.0209 6.72675 12.1045C6.72675 12.3583 7.08556 12.5258 7.52033 12.4751C7.83711 12.4381 8.02068 12.4844 8.17675 12.6405C8.29592 12.7596 8.50056 12.8571 8.63152 12.8571C8.81544 12.8571 8.86961 12.7777 8.86961 12.5084C8.86961 11.9462 9.13366 11.7857 10.0589 11.7857C11.1231 11.7857 11.2375 11.8407 11.3259 12.3939C11.4101 12.92 11.6907 13.0123 12.0659 12.637C12.216 12.4869 12.4009 12.4338 12.6475 12.47C13.0876 12.5345 13.5138 12.3264 13.5089 12.0494C13.5054 11.8592 13.497 11.8594 13.3839 12.0536C13.2182 12.3381 12.9178 12.3152 12.2407 11.9667C11.9253 11.8042 11.3591 11.6059 10.9827 11.5261C10.1222 11.3436 10.0616 11.0751 10.8159 10.787C11.4885 10.5301 11.8632 10.123 11.8866 9.62332C11.9032 9.27106 11.8515 9.19975 11.4291 8.99273C10.8234 8.69582 9.67663 8.63678 9.06068 8.87082ZM17.322 10.5813C17.322 10.6392 17.2118 10.7153 17.0771 10.7506C16.8762 10.8031 16.8573 10.7843 16.9726 10.6453C17.1298 10.4559 17.322 10.4208 17.322 10.5813ZM17.1222 11.1294C16.8378 11.3286 16.2506 11.5702 16.2506 11.488C16.2506 11.4168 17.111 10.9644 17.2593 10.9576C17.3228 10.9548 17.2613 11.032 17.1222 11.1294ZM16.3696 11.9643C15.9016 12.3096 15.8798 12.3168 15.9637 12.0984C15.9982 12.0086 16.1438 11.8782 16.2872 11.8088C16.7471 11.5867 16.7848 11.658 16.3696 11.9643ZM8.63152 12.2619C8.63152 12.513 8.4583 12.5823 8.3339 12.3809C8.24711 12.2405 8.35973 12.0238 8.51949 12.0238C8.58116 12.0238 8.63152 12.1309 8.63152 12.2619ZM11.9053 12.2619C11.9053 12.3492 11.8384 12.443 11.7565 12.4702C11.6679 12.4998 11.6077 12.4153 11.6077 12.2619C11.6077 12.1084 11.6679 12.024 11.7565 12.0536C11.8384 12.0808 11.9053 12.1746 11.9053 12.2619ZM10.1196 15.1545C12.4356 15.153 12.8256 15.1244 13.4894 14.9082L14.24 14.6637L14.4903 15.179L14.7408 15.6945L14.4243 16.0707C14.0081 16.5653 14.0038 17.1587 14.4125 17.7483C14.7021 18.1664 14.7085 18.2087 14.5416 18.6081C14.4451 18.8392 14.3926 19.0548 14.4251 19.0873C14.4576 19.1198 14.4244 19.258 14.3513 19.3945C14.2309 19.6194 14.112 19.6428 13.0916 19.6428C12.4719 19.6428 11.9648 19.5932 11.9648 19.5325C11.9648 19.4717 12.106 19.3109 12.2785 19.1753C12.481 19.0161 12.5289 18.9286 12.4137 18.9286C12.3154 18.9286 12.0939 19.0396 11.9214 19.1753C11.6547 19.3851 11.6077 19.3932 11.6077 19.2294C11.6077 19.1234 11.7456 18.8989 11.914 18.7305C12.2244 18.4201 12.562 18.3967 13.2148 18.6399C13.4451 18.7257 13.4446 18.7192 13.2009 18.4417C13.0154 18.2306 12.9626 18.0446 13.001 17.7381C13.0296 17.5089 12.9991 17.1875 12.9332 17.0238L12.8133 16.7262L12.8053 17.0833C12.7966 17.4692 12.4012 18.2143 12.2051 18.2143C12.1388 18.2143 11.8622 18.4152 11.5906 18.6607C11.1043 19.1001 11.0812 19.1071 10.1201 19.1071C9.17663 19.1071 9.12699 19.093 8.65425 18.6905C8.38509 18.4613 8.02723 18.1667 7.85913 18.0357C7.65271 17.875 7.52306 17.6236 7.45985 17.2619C7.38473 16.8318 7.34949 16.7759 7.2814 16.9787C7.21604 17.1733 7.0039 17.2781 6.35687 17.4353C5.89497 17.5476 5.48402 17.6064 5.44354 17.5661C5.34092 17.4634 5.34509 16.3348 5.44985 15.8333C5.49783 15.6042 5.64044 15.247 5.76687 15.0398L5.99675 14.663L6.74866 14.9096C7.41794 15.1293 7.78818 15.1562 10.1196 15.1545ZM17.5028 15.2976C17.4689 15.4613 17.4138 15.7269 17.3806 15.8878C17.3472 16.0487 17.1854 16.3256 17.0209 16.503L16.722 16.8257L16.397 16.5149C16.2182 16.3439 15.9381 16.1528 15.7744 16.0902C15.4948 15.9832 15.4913 15.9713 15.7148 15.8955C16.2801 15.7037 17.1016 15.3006 17.2213 15.1564C17.4297 14.9053 17.5697 14.9756 17.5028 15.2976ZM14.7673 16.3015C14.7243 16.3714 14.6319 16.4286 14.5623 16.4286C14.4833 16.4286 14.4923 16.3602 14.5863 16.2471C14.7496 16.0503 14.8954 16.0943 14.7673 16.3015ZM5.00806 17.4114C5.01414 18.3013 5.06533 18.6078 5.27592 19.0131C5.41914 19.2888 5.53628 19.5432 5.53628 19.5786C5.53628 19.6139 5.13449 19.6428 4.64342 19.6428C3.70164 19.6428 3.57806 19.5546 3.94759 19.1463C4.23842 18.8249 3.8983 18.8601 3.54985 19.1874L3.27437 19.4463V19.0658C3.27437 18.5674 3.66854 18.359 4.23675 18.5571C4.70425 18.7201 4.85283 18.6346 4.43378 18.4437C3.81925 18.1637 3.66235 17.1012 4.16187 16.6018C4.32259 16.4411 4.57699 16.3099 4.72735 16.3102C4.99199 16.3108 5.0008 16.3455 5.00806 17.4114ZM16.0546 16.6014C16.2984 16.8274 16.3696 17.0058 16.3696 17.3909C16.3696 17.8113 16.3003 17.9543 15.9232 18.3121C15.6612 18.5607 15.5751 18.6948 15.7148 18.6368C16.4566 18.3283 16.9648 18.5231 16.9648 19.1156C16.9648 19.4668 16.8353 19.4869 16.6353 19.1667C16.5535 19.0357 16.4068 18.9286 16.3091 18.9286C16.0762 18.9286 16.0838 19.0461 16.3283 19.2248C16.6859 19.4863 16.3866 19.6428 15.5293 19.6428C15.0747 19.6428 14.7029 19.6228 14.7029 19.5984C14.7029 19.574 14.819 19.2928 14.9608 18.9734C15.1575 18.5307 15.2212 18.1456 15.2287 17.3517C15.2381 16.3759 15.2544 16.3105 15.4891 16.31C15.6269 16.3098 15.8814 16.4409 16.0546 16.6014ZM14.7029 16.7262C14.6214 16.8244 14.4975 16.9048 14.4275 16.9048C14.3576 16.9048 14.4043 16.8261 14.5314 16.73C14.83 16.504 14.8883 16.5028 14.7029 16.7262ZM14.822 17.0706C14.822 17.0963 14.7389 17.1493 14.6372 17.1883C14.5313 17.2289 14.4835 17.2089 14.5252 17.1415C14.5951 17.0283 14.822 16.9742 14.822 17.0706ZM7.20294 17.6111C7.20294 17.6721 7.0958 17.7525 6.96485 17.7896C6.33092 17.9694 6.23354 17.9532 6.66723 17.7401C7.22878 17.4643 7.20294 17.4705 7.20294 17.6111ZM7.31211 18.0256C7.22211 18.1152 5.61961 18.6945 5.57771 18.6525C5.52175 18.5965 5.97223 18.3695 6.54818 18.1633C7.01068 17.9978 7.41271 17.9253 7.31211 18.0256ZM6.77473 18.5902C6.71402 18.6883 6.77187 18.7019 6.97604 18.6373C7.7233 18.4007 8.01604 18.4213 8.32711 18.7324C8.49449 18.8998 8.63152 19.1234 8.63152 19.2294C8.63152 19.3932 8.58449 19.3851 8.31782 19.1753C8.14533 19.0396 7.92378 18.9286 7.82556 18.9286C7.71033 18.9286 7.75818 19.0161 7.96068 19.1753C8.13318 19.3109 8.27437 19.4717 8.27437 19.5325C8.27437 19.5932 7.77199 19.6428 7.15794 19.6428C6.32735 19.6428 6.00497 19.5986 5.89818 19.47C5.67247 19.1981 5.86259 18.848 6.34437 18.648C6.89033 18.4215 6.87794 18.4232 6.77473 18.5902Z" fill="#3D0606"/>
<path fill-rule="evenodd" clip-rule="evenodd" d="M13.4896 14.9082C12.8258 15.1244 12.4358 15.153 10.1199 15.1545C7.78845 15.1562 7.41821 15.1293 6.74892 14.9096L5.99702 14.663L5.76714 15.0397C5.64071 15.247 5.49809 15.6042 5.45011 15.8333C5.34535 16.3348 5.34118 17.4634 5.4438 17.5661C5.48428 17.6064 5.89523 17.5476 6.35714 17.4353C7.00416 17.2781 7.2163 17.1733 7.28166 16.9787C7.34976 16.7759 7.38499 16.8318 7.46011 17.2619C7.52333 17.6236 7.65297 17.875 7.8594 18.0357C8.02749 18.1667 8.38535 18.4613 8.65452 18.6905C9.12726 19.093 9.1769 19.1071 10.1204 19.1071C11.0814 19.1071 11.1045 19.1001 11.5908 18.6607C11.8625 18.4152 12.139 18.2143 12.2054 18.2143C12.4014 18.2143 12.7969 17.4692 12.8056 17.0833L12.8136 16.7262L12.9334 17.0238C12.9994 17.1875 13.0299 17.5089 13.0013 17.7381C12.9629 18.0446 13.0157 18.2306 13.2012 18.4417C13.4449 18.7192 13.4454 18.7257 13.2151 18.6399C13.542 18.8221 14.2417 19.1666 14.4254 19.0873C14.3929 19.0548 14.4454 18.8392 14.5419 18.6081C14.7088 18.2087 14.7024 18.1664 14.4127 17.7483C14.004 17.1587 14.0083 16.5653 14.4245 16.0707L14.7411 15.6945L14.4906 15.179L14.2402 14.6637L13.4896 14.9082Z" fill="#FFB031"/>
<path d="M14.3515 19.3945C14.4246 19.258 14.4578 19.1198 14.4253 19.0873C14.2417 19.1666 13.542 18.8221 13.2151 18.6399C12.5622 18.3967 12.2246 18.4201 11.9142 18.7305C11.7458 18.8989 11.6079 19.1235 11.6079 19.2294C11.6079 19.3932 11.6549 19.3851 11.9216 19.1754C12.0941 19.0397 12.3156 18.9286 12.4139 18.9286C12.5291 18.9286 12.4812 19.0161 12.2787 19.1754C12.1062 19.311 11.9651 19.4717 11.9651 19.5325C11.9651 19.5932 12.4721 19.6429 13.0918 19.6429C14.1122 19.6429 14.2311 19.6194 14.3515 19.3945Z" fill="white"/>
<path d="M11.5906 18.6607C11.1043 19.1001 11.0812 19.1071 10.1201 19.1071C9.17668 19.1071 9.12704 19.093 8.6543 18.6905C8.76949 18.8095 8.94035 19.1643 8.94035 19.6428C8.94035 19.7619 10.5872 19.8413 11.4403 19.6428C11.4612 19.4048 11.5203 18.875 11.5906 18.6607Z" fill="#B87320"/>
<path fill-rule="evenodd" clip-rule="evenodd" d="M10.0358 18.9286C11.4494 18.9286 12.5954 17.8892 12.5954 16.6072C12.5954 16.0473 12.3768 15.5337 12.0129 15.1328C11.5588 15.1538 10.9315 15.159 9.9774 15.1597C9.0959 15.1603 8.49476 15.1568 8.05182 15.1404C7.69206 15.5402 7.47631 16.0508 7.47631 16.6072C7.47631 17.8892 8.62225 18.9286 10.0358 18.9286Z" fill="white"/>
<path d="M6.77479 18.5903C6.71408 18.6883 6.77194 18.7019 6.9761 18.6373C7.72336 18.4007 8.0161 18.4213 8.32717 18.7324C8.49455 18.8998 8.63158 19.1235 8.63158 19.2294C8.63158 19.3932 8.58455 19.3851 8.31789 19.1754C8.14539 19.0397 7.92384 18.9286 7.82563 18.9286C7.71039 18.9286 7.75824 19.0161 7.96074 19.1754C8.13324 19.311 8.27443 19.4717 8.27443 19.5325C8.27443 19.5932 7.77205 19.6429 7.15801 19.6429C6.32741 19.6429 6.00503 19.5986 5.89825 19.47C5.67253 19.1981 5.86265 18.848 6.34444 18.648C6.89039 18.4216 6.87801 18.4232 6.77479 18.5903Z" fill="white"/>
<path d="M15.5835 13.8691C15.5882 13.8932 16.4565 13.6048 17.1824 12.673C17.4288 12.3566 17.6589 11.9659 17.8332 11.4881V11.1905C17.4832 11.0952 16.2505 11.6667 15.8116 11.9643C15.741 12.131 15.6776 12.3099 15.6287 12.5C15.5839 12.6743 15.5512 12.8581 15.5361 13.0506C15.516 13.3082 15.5274 13.5816 15.5835 13.8691Z" fill="#B2533E"/>
<path d="M16.0789 11.4286C15.9874 11.5896 15.8945 11.7686 15.8116 11.9643C16.2505 11.6667 17.4832 11.0952 17.8332 11.1905V10.6548C17.4832 10.5595 16.5179 11.131 16.0789 11.4286Z" fill="#B2533E"/>
<path d="M17.8332 10C17.3465 10.1189 16.5817 10.5439 16.0789 11.4286C16.5179 11.131 17.4832 10.5595 17.8332 10.6548V10Z" fill="#B2533E"/>
<path d="M15.5835 13.8691C15.386 12.8571 15.7424 12.0208 16.0789 11.4286M15.5835 13.8691C15.5882 13.8932 16.4565 13.6048 17.1824 12.673M15.5835 13.8691C15.5274 13.5816 15.516 13.3082 15.5361 13.0506M17.8332 11.4881V10.6548M17.8332 11.4881C17.6589 11.9659 17.4288 12.3566 17.1824 12.673M17.8332 11.4881V11.1905M16.0789 11.4286C16.5817 10.5439 17.3465 10.1189 17.8332 10V10.6548M16.0789 11.4286C16.5179 11.131 17.4832 10.5595 17.8332 10.6548M16.0789 11.4286C15.9874 11.5896 15.8945 11.7686 15.8116 11.9643M17.8332 10.6548V11.1905M15.8116 11.9643C16.2505 11.6667 17.4832 11.0952 17.8332 11.1905M15.8116 11.9643C15.741 12.131 15.6776 12.3099 15.6287 12.5M15.6287 12.5C16.0677 12.2024 17.3889 11.631 17.7388 11.7262M15.6287 12.5C15.5839 12.6743 15.5512 12.8581 15.5361 13.0506M15.5361 13.0506C15.9751 12.753 17.1497 12.1071 17.4997 12.2024M15.5353 13.5119C15.9637 13.2214 16.8164 12.6132 17.1824 12.673M17.2082 12.6786C17.1999 12.6763 17.1913 12.6745 17.1824 12.673" stroke="#3D0606" stroke-width="0.1"/>
<path d="M14.6959 17.7964C14.7805 17.8588 14.8792 17.919 14.9936 17.9762C15.0498 18.0043 15.1725 17.7577 15.2298 17.3809L14.6959 17.7964Z" fill="#B2533E"/>
<path d="M14.6959 17.7964L15.2298 17.3809C15.249 17.2548 15.2608 17.1141 15.2604 16.9643L14.4223 17.5259C14.4892 17.6192 14.5791 17.71 14.6959 17.7964Z" fill="#B2533E"/>
<path d="M14.4223 17.5259L15.2604 16.9643C15.26 16.8498 15.2525 16.7299 15.2357 16.6071L14.2793 17.2065C14.302 17.3146 14.3479 17.4218 14.4223 17.5259Z" fill="#B2533E"/>
<path d="M14.2793 17.2065L15.2357 16.6071C15.2215 16.5041 15.2008 16.399 15.1721 16.2933L14.2793 16.8577C14.257 16.9728 14.2547 17.0901 14.2793 17.2065Z" fill="#B2533E"/>
<path d="M14.9936 15.8333C14.7136 16.0407 14.3612 16.434 14.2793 16.8577L15.1721 16.2933C15.1306 16.1399 15.0724 15.9851 14.9936 15.8333Z" fill="#B2533E"/>
<path d="M14.6959 17.7964C14.7805 17.8588 14.8792 17.919 14.9936 17.9762C15.0498 18.0043 15.1725 17.7577 15.2298 17.3809M14.6959 17.7964L15.2298 17.3809M14.6959 17.7964C14.5791 17.71 14.4892 17.6192 14.4223 17.5259M15.2298 17.3809C15.249 17.2548 15.2608 17.1141 15.2604 16.9643M14.4223 17.5259L15.2604 16.9643M14.4223 17.5259C14.3479 17.4218 14.302 17.3146 14.2793 17.2065M15.2604 16.9643C15.26 16.8498 15.2525 16.7299 15.2357 16.6071M14.2793 17.2065L15.2357 16.6071M14.2793 17.2065C14.2547 17.0901 14.257 16.9728 14.2793 16.8577M15.2357 16.6071C15.2215 16.5041 15.2008 16.399 15.1721 16.2933M14.2793 16.8577C14.3612 16.434 14.7136 16.0407 14.9936 15.8333C15.0724 15.9851 15.1306 16.1399 15.1721 16.2933M14.2793 16.8577L15.1721 16.2933" stroke="#3D0606" stroke-width="0.1"/>
<path fill-rule="evenodd" clip-rule="evenodd" d="M16.8006 15.4244C16.484 15.5898 16.0534 15.7806 15.7148 15.8954C15.4912 15.9713 15.4948 15.9832 15.7743 16.0902C15.938 16.1528 16.2182 16.3439 16.397 16.5148L16.722 16.8257L17.0209 16.5029C17.1854 16.3256 17.3472 16.0487 17.3805 15.8878C17.3841 15.8707 17.3878 15.8525 17.3918 15.8333L16.8006 15.4244Z" fill="#FFB031"/>
<path d="M17.3915 15.8333C17.4249 15.6717 17.4722 15.4439 17.5025 15.2976C17.5694 14.9756 17.4294 14.9053 17.221 15.1564C17.173 15.2142 17.0122 15.3136 16.8003 15.4244L17.3915 15.8333Z" fill="white"/>
<path fill-rule="evenodd" clip-rule="evenodd" d="M16.3697 17.391C16.3697 17.0058 16.2985 16.8274 16.0547 16.6014C15.8814 16.441 15.6269 16.3098 15.4892 16.31C15.2544 16.3105 15.2381 16.376 15.2287 17.3517C15.2212 18.1456 15.1575 18.5307 14.9608 18.9735C15.1671 18.9464 15.5495 18.7377 15.7149 18.6368C15.5751 18.6948 15.6612 18.5607 15.9232 18.3121C16.3004 17.9543 16.3697 17.8113 16.3697 17.391Z" fill="#FFB031"/>
<path fill-rule="evenodd" clip-rule="evenodd" d="M5.26793 18.9975C5.06406 18.5999 5.0141 18.2899 5.0081 17.4114C5.00084 16.3455 4.99203 16.3108 4.72739 16.3102C4.57703 16.3099 4.32263 16.4411 4.16191 16.6018C3.66239 17.1012 3.81929 18.1637 4.43382 18.4437C4.68631 18.5583 5.17864 18.848 5.26793 18.9975Z" fill="#FFB031"/>
<path d="M16.9649 19.1156C16.9649 18.5231 16.4567 18.3283 15.7149 18.6368C15.5495 18.7377 15.1671 18.9464 14.9608 18.9734C14.8191 19.2928 14.703 19.574 14.703 19.5984C14.703 19.6228 15.0748 19.6428 15.5293 19.6428C16.3867 19.6428 16.686 19.4863 16.3283 19.2247C16.0838 19.046 16.0762 18.9285 16.3092 18.9285C16.4068 18.9285 16.5536 19.0357 16.6354 19.1666C16.8354 19.4869 16.9649 19.4668 16.9649 19.1156Z" fill="white"/>
<path d="M5.53632 19.5785C5.53632 19.5432 5.41918 19.2888 5.27596 19.0131C5.27326 19.0079 5.27058 19.0027 5.26793 18.9975C5.17864 18.848 4.68631 18.5583 4.43382 18.4437C4.85287 18.6346 4.70429 18.7201 4.23679 18.5571C3.66858 18.359 3.27441 18.5674 3.27441 19.0658V19.4463L3.54989 19.1874C3.89834 18.8601 4.23846 18.8249 3.94763 19.1463C3.5781 19.5546 3.70168 19.6428 4.64346 19.6428C5.13453 19.6428 5.53632 19.6139 5.53632 19.5785Z" fill="white"/>
<path d="M7.31186 18.0256C7.22186 18.1153 5.61936 18.6945 5.57746 18.6525C5.5215 18.5966 5.97198 18.3695 6.54793 18.1634C7.01043 17.9979 7.41246 17.9254 7.31186 18.0256Z" fill="url(#paint0_linear_2156_3176)"/>
<path d="M7.2027 17.6111C7.2027 17.6722 7.09555 17.7525 6.9646 17.7897C6.33067 17.9694 6.23329 17.9532 6.66698 17.7401C7.22853 17.4643 7.2027 17.4705 7.2027 17.6111Z" fill="url(#paint1_linear_2156_3176)"/>
<path d="M6.9877 7.5231C7.53163 7.73191 7.99425 7.91465 8.01591 7.92918C8.03746 7.9437 7.96794 8.0887 7.86127 8.25144C7.58984 8.66572 7.06948 8.84989 6.36258 8.78191C5.45044 8.69429 4.78603 7.93727 5.00782 7.23858C5.07317 7.03287 5.15175 7.00811 5.54163 7.07037C5.79306 7.11061 6.44377 7.3143 6.9877 7.5231Z" fill="#B09D9D"/>
<path d="M15.2184 7.28072C15.3209 7.67275 15.0006 8.30048 14.5612 8.56834C13.8471 9.00382 12.6391 8.80715 12.3158 8.20286C12.249 8.07817 12.2095 8.01073 12.2251 7.96028C12.2451 7.89522 12.3567 7.8584 12.6195 7.76346C12.8159 7.69263 13.3516 7.49822 13.81 7.33168C14.8475 6.95465 15.1304 6.94441 15.2184 7.28072Z" fill="#B09D9D"/>
<path d="M14.9012 7.45816C14.9842 7.77541 14.7249 8.28342 14.3693 8.50018C13.7915 8.8526 12.8139 8.69344 12.5522 8.20442C12.4982 8.1035 12.4662 8.04893 12.4788 8.0081C12.495 7.95545 12.5854 7.92565 12.798 7.84882C12.957 7.7915 13.3905 7.63418 13.7614 7.4994C14.601 7.19428 14.83 7.186 14.9012 7.45816Z" fill="white"/>
<path d="M6.86973 7.65478C7.31484 7.82472 7.69342 7.97344 7.71115 7.98526C7.72878 7.99708 7.67189 8.11508 7.5846 8.24752C7.36248 8.58468 6.93665 8.73456 6.35817 8.67924C5.61173 8.60793 5.06803 7.99185 5.24952 7.42323C5.30301 7.25581 5.3673 7.23566 5.68636 7.28633C5.89211 7.31908 6.42461 7.48485 6.86973 7.65478Z" fill="white"/>
<path d="M8.5563 3.07509C7.17368 3.67306 5.8544 4.43997 4.79225 5.26318L4.16725 5.74747L4.76249 5.12663C5.95356 3.88413 8.37082 2.49937 9.34582 2.50104C9.87201 2.50199 9.85797 2.51211 8.5563 3.07509Z" fill="url(#paint2_linear_2156_3176)"/>
<path d="M6.18761 3.66699C5.60023 4.04699 4.75273 4.72497 4.30428 5.17354C3.53999 5.93806 3.50368 5.96009 3.72642 5.52354C4.08678 4.81723 5.1788 3.85747 6.15344 3.39032C6.6288 3.16259 7.07118 2.97616 7.13666 2.97616C7.20213 2.97616 6.77499 3.28699 6.18761 3.66699Z" fill="url(#paint3_linear_2156_3176)"/>
<path d="M3.4738 5.45878C3.08511 6.05306 2.90582 6.18818 3.16059 5.69473C3.28999 5.44413 3.74761 4.88092 3.82189 4.88092C3.8382 4.88092 3.68154 5.14092 3.4738 5.45878Z" fill="url(#paint4_linear_2156_3176)"/>
<defs>
<linearGradient id="paint0_linear_2156_3176" x1="7.07743" y1="17.5156" x2="5.41149" y2="18.3991" gradientUnits="userSpaceOnUse">
<stop stop-color="#E9E0D4"/>
<stop offset="1" stop-color="#937772"/>
</linearGradient>
<linearGradient id="paint1_linear_2156_3176" x1="7.07743" y1="17.5156" x2="5.41149" y2="18.3991" gradientUnits="userSpaceOnUse">
<stop stop-color="#E9E0D4"/>
<stop offset="1" stop-color="#937772"/>
</linearGradient>
<linearGradient id="paint2_linear_2156_3176" x1="8.72623" y1="2.49997" x2="3.07146" y2="6.19044" gradientUnits="userSpaceOnUse">
<stop stop-color="#E9E0D4"/>
<stop offset="1" stop-color="#937772"/>
</linearGradient>
<linearGradient id="paint3_linear_2156_3176" x1="8.72623" y1="2.49997" x2="3.07146" y2="6.19044" gradientUnits="userSpaceOnUse">
<stop stop-color="#E9E0D4"/>
<stop offset="1" stop-color="#937772"/>
</linearGradient>
<linearGradient id="paint4_linear_2156_3176" x1="8.72623" y1="2.49997" x2="3.07146" y2="6.19044" gradientUnits="userSpaceOnUse">
<stop stop-color="#E9E0D4"/>
<stop offset="1" stop-color="#937772"/>
</linearGradient>
</defs>
</svg>
