<svg width="20" height="20" viewBox="0 0 20 20" fill="none" xmlns="http://www.w3.org/2000/svg">
<path fill-rule="evenodd" clip-rule="evenodd" d="M8.6375 0.0801379C6.71062 0.381042 5.13075 1.06573 3.6981 2.2208C3.27788 2.55961 2.38051 3.47372 2.07522 3.87391C1.06746 5.19517 0.422779 6.67446 0.119777 8.36105C-0.0399258 9.24988 -0.0399258 10.7534 0.119777 11.6423C0.436418 13.4048 1.14061 14.9711 2.21213 16.2963C2.55681 16.7226 3.46978 17.6191 3.87058 17.9248C5.19184 18.9325 6.67113 19.5772 8.35772 19.8802C9.24655 20.0399 10.7501 20.0399 11.639 19.8802C13.4015 19.5636 14.9678 18.8594 16.293 17.7879C16.7193 17.4432 17.6157 16.5302 17.9215 16.1294C18.9292 14.8082 19.5739 13.3289 19.8769 11.6423C20.0366 10.7534 20.0366 9.24988 19.8769 8.36105C19.5739 6.67446 18.9292 5.19517 17.9215 3.87391C17.6157 3.4731 16.7193 2.56014 16.293 2.21546C14.971 1.14656 13.3892 0.435261 11.6435 0.124677C10.8202 -0.0218165 9.42285 -0.0425126 8.6375 0.0801379ZM12.4087 2.80301C12.4738 2.86414 12.5106 2.92818 12.4906 2.94535C12.4706 2.96252 12.304 3.02566 12.1204 3.08569C11.7897 3.1938 11.2885 3.44087 11.0355 3.62041C10.9634 3.67162 10.9051 3.69594 10.9059 3.67448C10.9078 3.62594 11.1275 3.3732 11.1678 3.3732C11.2345 3.3732 11.3142 3.24678 11.3137 3.14192L11.3131 3.02985L11.2161 3.14926C11.1627 3.21497 11.0383 3.30195 10.9397 3.34258C10.7686 3.41302 10.7625 3.4124 10.8073 3.32875C10.86 3.23028 11.292 2.92904 11.6187 2.7629C11.8962 2.62189 12.2342 2.63906 12.4087 2.80301ZM12.8614 3.68745C12.9631 3.92465 12.9517 3.99313 12.8107 3.99313C12.663 3.99313 12.2906 4.13065 11.8712 4.34005C11.6555 4.44777 11.4655 4.5225 11.4492 4.50609C11.4119 4.4688 11.6038 4.25841 11.6815 4.2513C11.7131 4.24844 11.7764 4.24281 11.8224 4.23881C11.8683 4.23485 11.9058 4.2101 11.9058 4.18387C11.9058 4.15765 11.8683 4.13585 11.8224 4.13547C11.751 4.13485 11.7493 4.12798 11.8104 4.0885C11.8683 4.05111 11.8614 4.04215 11.7747 4.04153C11.7156 4.04115 11.6674 4.06141 11.6674 4.08664C11.6674 4.18025 11.4613 4.32011 11.329 4.31635L11.1922 4.31248L11.311 4.20233C11.4789 4.04677 12.0936 3.68817 12.13 3.7246C12.1467 3.74124 12.1957 3.72288 12.2389 3.68378C12.309 3.62036 12.6329 3.48064 12.7301 3.47191C12.7507 3.4701 12.8098 3.56709 12.8614 3.68745ZM13.2272 4.5296C13.2996 4.62436 13.3995 4.89975 13.3715 4.92764C13.3575 4.94162 13.2176 4.98306 13.0605 5.01968C12.7507 5.09197 12.3244 5.27366 12.0329 5.45768C11.9318 5.52149 11.8369 5.5614 11.8218 5.54638C11.8068 5.53136 11.8172 5.5191 11.8449 5.5191C11.8726 5.5191 11.9407 5.42254 11.9962 5.30451C12.0883 5.10857 12.1919 5.0202 12.1919 5.13761C12.1919 5.16384 12.2348 5.1853 12.2873 5.1853C12.3398 5.1853 12.3827 5.16384 12.3827 5.13761C12.3827 5.11138 12.3451 5.08959 12.2992 5.08921C12.2279 5.08859 12.2262 5.08172 12.2873 5.04224C12.3431 5.00623 12.3299 4.99584 12.2277 4.99526C12.1556 4.99488 12.0966 5.01653 12.0966 5.04343C12.0966 5.0966 11.8699 5.19717 11.8014 5.17433C11.7239 5.14848 12.3934 4.74195 12.7362 4.60666C13.1225 4.45416 13.1645 4.44758 13.2272 4.5296ZM11.8929 5.26179C11.8771 5.27762 11.8359 5.27933 11.8015 5.26555C11.7635 5.25034 11.7748 5.23904 11.8303 5.23675C11.8806 5.2347 11.9087 5.24595 11.8929 5.26179ZM13.6225 5.58873C13.6225 5.76827 13.4309 5.99597 13.2799 5.99597C13.2351 5.99597 13.0336 6.08133 12.832 6.18562C12.489 6.36311 12.3827 6.38562 12.3827 6.28076C12.3827 6.25691 12.4149 6.24976 12.4542 6.26483C12.5551 6.30355 12.5438 6.20474 12.4423 6.16063C12.3964 6.1407 12.3188 6.12945 12.2698 6.13565C12.1914 6.14557 12.1943 6.13326 12.2936 6.03288C12.4744 5.85024 12.8116 5.65329 13.1457 5.53527C13.5773 5.38272 13.6225 5.38782 13.6225 5.58873ZM12.5426 5.97046C12.4878 6.00885 12.4264 6.02496 12.4062 6.00622C12.3861 5.98748 12.3796 6.00432 12.3917 6.04366C12.4195 6.13355 12.6623 6.16578 12.7342 6.0891C12.7743 6.04638 12.7728 6.02616 12.7281 6.0098C12.6952 5.99769 12.6803 5.96822 12.6952 5.94423C12.7361 5.87799 12.6545 5.89201 12.5426 5.97046ZM5.31416 11.8018C5.32126 12.3067 5.3462 12.7198 5.36952 12.7198C5.39284 12.7198 5.58631 12.5159 5.79942 12.2668L6.18692 11.8138H6.56665C6.81796 11.8138 6.94638 11.8321 6.94638 11.8678C6.94638 11.8976 6.76398 12.1206 6.54104 12.3635C6.31811 12.6064 6.13571 12.8269 6.13571 12.8535C6.13571 12.8801 6.33957 13.248 6.58873 13.6711C6.83789 14.0941 7.04176 14.4502 7.04176 14.4622C7.04176 14.4744 6.8604 14.4842 6.63871 14.4842H6.23566L6.07839 14.209C5.99188 14.0576 5.85674 13.8109 5.77806 13.6608C5.69937 13.5106 5.61149 13.3877 5.58278 13.3876C5.55407 13.3875 5.48969 13.4325 5.43972 13.4876C5.36909 13.5654 5.34358 13.6847 5.32503 14.024L5.30119 14.4604L4.9793 14.4745L4.65741 14.4886V12.7021C4.65741 11.3182 4.67086 10.91 4.71702 10.8905C4.74983 10.8767 4.89466 10.8696 5.03891 10.8747L5.30119 10.8839L5.31416 11.8018ZM10.0699 11.1938V11.5038L9.53339 11.5173L8.99691 11.5308V13.0075V14.4842H8.61542H8.23393V13.0059V11.5276H7.76097C7.50084 11.5276 7.25406 11.5146 7.21257 11.4987C7.15592 11.4769 7.13713 11.4017 7.13713 11.1967C7.13713 11.0465 7.15172 10.909 7.1696 10.8911C7.18749 10.8733 7.84733 10.8643 8.63597 10.8713L10.0699 10.8839V11.1938ZM13.8133 11.4561C13.8133 11.784 13.8245 12.0522 13.8381 12.0522C13.8518 12.0522 13.9509 11.994 14.0583 11.923C14.3357 11.7394 14.7553 11.7171 15.0531 11.8703C15.576 12.1392 15.8155 12.969 15.5845 13.7113C15.4722 14.0721 15.2913 14.3097 15.0343 14.4342C14.6921 14.5998 14.1441 14.5438 13.9624 14.3247C13.8686 14.2115 13.8133 14.2273 13.8133 14.3671C13.8133 14.4872 13.8098 14.4883 13.4676 14.4744L13.1218 14.4604L13.1093 12.72C13.1024 11.7628 13.1071 10.9527 13.1197 10.9198C13.1351 10.8797 13.2531 10.86 13.478 10.86H13.8133V11.4561ZM17.6941 11.818C17.9875 11.8995 18.3074 12.2529 18.4026 12.6006C18.4725 12.8561 18.5054 13.1076 18.4914 13.2801C18.4877 13.3255 18.2755 13.3397 17.6029 13.3397C16.6072 13.3397 16.5791 13.3506 16.7498 13.6694C16.9355 14.0161 17.383 14.0965 17.6487 13.8308C17.7581 13.7214 17.8164 13.7038 18.0792 13.7008C18.2464 13.699 18.3977 13.7119 18.4154 13.7296C18.5103 13.8244 18.1671 14.282 17.896 14.4221C17.8165 14.4633 17.6233 14.5121 17.4667 14.5305C16.8423 14.6042 16.3903 14.3837 16.1452 13.8858C16.0013 13.5936 15.9966 13.5645 16.0159 13.0915C16.0313 12.7118 16.0587 12.5573 16.1364 12.4098C16.2623 12.171 16.5046 11.9361 16.7222 11.842C16.9179 11.7573 17.4301 11.7447 17.6941 11.818ZM4.13286 12.1048V12.3958L3.51293 13.1049C3.17197 13.4949 2.893 13.8354 2.893 13.8616C2.893 13.8902 3.14503 13.9145 3.52485 13.9225L4.1567 13.9358L4.18217 14.1574C4.19619 14.2793 4.19976 14.4027 4.19013 14.4316C4.17802 14.468 3.82132 14.4842 3.03211 14.4842H1.89158V14.218V13.9517L2.3313 13.4431C2.57317 13.1633 2.86287 12.8334 2.97507 12.7099C3.08733 12.5865 3.17912 12.4637 3.17912 12.4372C3.17912 12.408 2.94842 12.3837 2.59496 12.3756L2.0108 12.3622L1.99587 12.1541C1.97017 11.796 1.91333 11.8138 3.08227 11.8138H4.13286V12.1048ZM10.7625 12.6125C10.7637 13.4985 10.8024 13.7526 10.955 13.8762C11.0825 13.9796 11.3723 13.9845 11.5133 13.8857C11.7151 13.7444 11.738 13.6377 11.7627 12.7198L11.7866 11.8376L12.1323 11.8236L12.4781 11.8096V13.1469V14.4842H12.1442H11.8104V14.3412C11.8104 14.1748 11.7636 14.1608 11.6451 14.2918C11.4127 14.5486 10.7928 14.5999 10.4539 14.3904C10.1582 14.2076 10.1049 14.0097 10.0673 12.9551C10.049 12.4419 10.0489 11.9752 10.0671 11.9179C10.0969 11.824 10.1327 11.8138 10.4307 11.8138H10.7613L10.7625 12.6125ZM16.9528 12.3979C16.8402 12.4891 16.7222 12.6836 16.7222 12.7781C16.7222 12.8542 16.7759 12.8629 17.2467 12.8629C17.5812 12.8629 17.7713 12.8448 17.7713 12.8128C17.7713 12.717 17.6281 12.4867 17.5225 12.4128C17.3951 12.3235 17.0557 12.3147 16.9528 12.3979ZM14.0359 12.4835C13.823 12.651 13.7375 13.2568 13.879 13.5955C14.024 13.9425 14.4734 14.0832 14.7156 13.8575C15.0485 13.5475 15.0345 12.6841 14.6931 12.4603C14.5286 12.3526 14.1871 12.3646 14.0359 12.4835Z" fill="#0F0832"/>
<path fill-rule="evenodd" clip-rule="evenodd" d="M13.6225 5.58873C13.6225 5.76827 13.4309 5.99597 13.2799 5.99597C13.2351 5.99597 13.0336 6.08133 12.832 6.18562C12.489 6.36311 12.3827 6.38562 12.3827 6.28076C12.3827 6.25691 12.4149 6.24976 12.4542 6.26483C12.5551 6.30355 12.5438 6.20474 12.4423 6.16063C12.3964 6.1407 12.3188 6.12945 12.2698 6.13565C12.1914 6.14557 12.1943 6.13326 12.2936 6.03288C12.4744 5.85024 12.8116 5.65329 13.1457 5.53527C13.5773 5.38272 13.6225 5.38782 13.6225 5.58873ZM12.4062 6.00622C12.4264 6.02496 12.4878 6.00885 12.5426 5.97046C12.6545 5.89201 12.7361 5.87799 12.6952 5.94423C12.6803 5.96822 12.6952 5.99769 12.7281 6.0098C12.7728 6.02616 12.7743 6.04638 12.7342 6.0891C12.6623 6.16578 12.4195 6.13355 12.3917 6.04366C12.3796 6.00432 12.3861 5.98748 12.4062 6.00622Z" fill="#0F0832"/>
<path d="M13.2272 4.5296C13.2996 4.62436 13.3995 4.89975 13.3715 4.92764C13.3575 4.94162 13.2176 4.98306 13.0605 5.01968C12.7507 5.09197 12.3244 5.27366 12.0329 5.45768C11.9318 5.52149 11.8369 5.5614 11.8218 5.54638C11.8068 5.53136 11.8172 5.5191 11.8449 5.5191C11.8726 5.5191 11.9407 5.42254 11.9962 5.30451C12.0883 5.10857 12.1919 5.0202 12.1919 5.13761C12.1919 5.16384 12.2348 5.1853 12.2873 5.1853C12.3398 5.1853 12.3827 5.16384 12.3827 5.13761C12.3827 5.11138 12.3451 5.08959 12.2992 5.08921C12.2279 5.08859 12.2262 5.08172 12.2873 5.04224C12.3431 5.00623 12.3299 4.99584 12.2277 4.99526C12.1556 4.99488 12.0966 5.01653 12.0966 5.04343C12.0966 5.0966 11.8699 5.19717 11.8014 5.17433C11.7239 5.14848 12.3934 4.74195 12.7362 4.60666C13.1225 4.45416 13.1645 4.44758 13.2272 4.5296Z" fill="#0F0832"/>
<path d="M12.8614 3.68745C12.9631 3.92465 12.9517 3.99313 12.8107 3.99313C12.663 3.99313 12.2906 4.13065 11.8712 4.34005C11.6555 4.44777 11.4655 4.5225 11.4492 4.50609C11.4119 4.4688 11.6038 4.25841 11.6815 4.2513C11.7131 4.24844 11.7764 4.24281 11.8224 4.23881C11.8683 4.23485 11.9058 4.2101 11.9058 4.18387C11.9058 4.15765 11.8683 4.13585 11.8224 4.13547C11.751 4.13485 11.7493 4.12798 11.8104 4.0885C11.8683 4.05111 11.8614 4.04215 11.7747 4.04153C11.7156 4.04115 11.6674 4.06141 11.6674 4.08664C11.6674 4.18025 11.4613 4.32011 11.329 4.31635L11.1922 4.31248L11.311 4.20233C11.4789 4.04677 12.0936 3.68817 12.13 3.7246C12.1467 3.74124 12.1957 3.72288 12.2389 3.68378C12.309 3.62036 12.6329 3.48064 12.7301 3.47191C12.7507 3.4701 12.8098 3.56709 12.8614 3.68745Z" fill="#0F0832"/>
<path d="M12.4087 2.80301C12.4738 2.86414 12.5106 2.92818 12.4906 2.94535C12.4706 2.96252 12.304 3.02566 12.1204 3.08569C11.7897 3.1938 11.2885 3.44087 11.0355 3.62041C10.9634 3.67162 10.9051 3.69594 10.9059 3.67448C10.9078 3.62594 11.1275 3.3732 11.1678 3.3732C11.2345 3.3732 11.3142 3.24678 11.3137 3.14192L11.3131 3.02985L11.2161 3.14926C11.1627 3.21497 11.0383 3.30195 10.9397 3.34258C10.7686 3.41302 10.7625 3.4124 10.8073 3.32875C10.86 3.23028 11.292 2.92904 11.6187 2.7629C11.8962 2.62189 12.2342 2.63906 12.4087 2.80301Z" fill="#0F0832"/>
<path d="M4.13288 12.1048V12.3958L3.51295 13.1049C3.17199 13.4949 2.89302 13.8354 2.89302 13.8616C2.89302 13.8902 3.14505 13.9145 3.52487 13.9225L4.15672 13.9358L4.18219 14.1574C4.19621 14.2793 4.19979 14.4027 4.19015 14.4316C4.17804 14.468 3.82134 14.4842 3.03213 14.4842H1.8916V14.218V13.9517L2.33132 13.4431C2.57319 13.1633 2.86289 12.8334 2.97509 12.7099C3.08735 12.5865 3.17915 12.4637 3.17915 12.4372C3.17915 12.408 2.94844 12.3837 2.59498 12.3756L2.01082 12.3622L1.99589 12.154C1.97019 11.796 1.91335 11.8138 3.08229 11.8138H4.13288V12.1048Z" fill="#FFFFFD"/>
<path d="M5.31418 11.8018C5.32128 12.3067 5.34622 12.7198 5.36954 12.7198C5.39286 12.7198 5.58633 12.5159 5.79944 12.2668L6.18694 11.8138H6.56667C6.81798 11.8138 6.9464 11.8321 6.9464 11.8678C6.9464 11.8976 6.764 12.1206 6.54106 12.3635C6.31813 12.6064 6.13573 12.8269 6.13573 12.8535C6.13573 12.8801 6.33959 13.248 6.58875 13.6711C6.83791 14.0941 7.04178 14.4502 7.04178 14.4622C7.04178 14.4743 6.86042 14.4842 6.63873 14.4842H6.23568L6.07841 14.209C5.9919 14.0576 5.85676 13.8109 5.77808 13.6608C5.69939 13.5106 5.61151 13.3877 5.5828 13.3876C5.55409 13.3875 5.48971 13.4325 5.43974 13.4876C5.36911 13.5654 5.3436 13.6847 5.32505 14.024L5.30121 14.4604L4.97932 14.4745L4.65744 14.4886V12.7021C4.65744 11.3181 4.67088 10.91 4.71704 10.8905C4.74985 10.8767 4.89468 10.8696 5.03893 10.8747L5.30121 10.8839L5.31418 11.8018Z" fill="#FFFFFD"/>
<path d="M10.0699 11.1938V11.5038L9.53341 11.5173L8.99693 11.5308V13.0075V14.4842H8.61544H8.23395V13.0059V11.5276H7.76099C7.50086 11.5276 7.25408 11.5146 7.21259 11.4987C7.15594 11.4769 7.13715 11.4017 7.13715 11.1967C7.13715 11.0465 7.15174 10.909 7.16962 10.8911C7.18751 10.8733 7.84735 10.8643 8.63599 10.8713L10.0699 10.8839V11.1938Z" fill="#FFFFFD"/>
<path d="M10.7625 12.6125C10.7637 13.4985 10.8025 13.7526 10.955 13.8762C11.0826 13.9795 11.3724 13.9845 11.5134 13.8857C11.7151 13.7444 11.738 13.6377 11.7628 12.7198L11.7866 11.8376L12.1323 11.8236L12.4781 11.8096V13.1469V14.4842H12.1443H11.8105V14.3412C11.8105 14.1748 11.7636 14.1608 11.6451 14.2917C11.4127 14.5485 10.7929 14.5999 10.4539 14.3904C10.1582 14.2076 10.1049 14.0097 10.0673 12.9551C10.049 12.4419 10.0489 11.9752 10.0671 11.9179C10.0969 11.824 10.1327 11.8138 10.4307 11.8138H10.7613L10.7625 12.6125Z" fill="#FFFFFD"/>
<path fill-rule="evenodd" clip-rule="evenodd" d="M13.8133 11.4561C13.8133 11.7839 13.8245 12.0522 13.8381 12.0522C13.8518 12.0522 13.9509 11.994 14.0583 11.923C14.3358 11.7394 14.7553 11.7171 15.0532 11.8703C15.576 12.1392 15.8155 12.969 15.5845 13.7113C15.4722 14.0721 15.2914 14.3097 15.0343 14.4341C14.6922 14.5998 14.1442 14.5438 13.9625 14.3247C13.8686 14.2115 13.8133 14.2273 13.8133 14.3671C13.8133 14.4872 13.8098 14.4883 13.4676 14.4744L13.1218 14.4604L13.1093 12.72C13.1024 11.7628 13.1071 10.9527 13.1197 10.9198C13.1351 10.8797 13.2531 10.86 13.478 10.86H13.8133V11.4561ZM13.8791 13.5955C13.7375 13.2568 13.823 12.651 14.036 12.4835C14.1872 12.3646 14.5286 12.3526 14.6931 12.4603C15.0346 12.6841 15.0485 13.5475 14.7156 13.8575C14.4734 14.0832 14.024 13.9425 13.8791 13.5955Z" fill="#FFFFFD"/>
<path fill-rule="evenodd" clip-rule="evenodd" d="M17.6941 11.818C17.9875 11.8994 18.3074 12.2529 18.4026 12.6006C18.4725 12.8561 18.5054 13.1076 18.4914 13.2801C18.4878 13.3255 18.2755 13.3397 17.6029 13.3397C16.6072 13.3397 16.5791 13.3506 16.7499 13.6694C16.9355 14.0161 17.383 14.0965 17.6487 13.8308C17.7581 13.7214 17.8164 13.7038 18.0793 13.7008C18.2465 13.699 18.3978 13.7119 18.4155 13.7296C18.5103 13.8244 18.1672 14.282 17.8961 14.4221C17.8165 14.4633 17.6233 14.5121 17.4667 14.5305C16.8423 14.6041 16.3903 14.3836 16.1452 13.8858C16.0014 13.5936 15.9966 13.5645 16.0159 13.0915C16.0314 12.7118 16.0587 12.5573 16.1365 12.4098C16.2623 12.171 16.5046 11.9361 16.7222 11.842C16.918 11.7573 17.4301 11.7447 17.6941 11.818ZM16.7222 12.7781C16.7222 12.6836 16.8402 12.4891 16.9529 12.3979C17.0558 12.3147 17.3951 12.3235 17.5225 12.4127C17.6281 12.4867 17.7713 12.717 17.7713 12.8128C17.7713 12.8447 17.5812 12.8629 17.2468 12.8629C16.7759 12.8629 16.7222 12.8542 16.7222 12.7781Z" fill="#FFFFFD"/>
<path fill-rule="evenodd" clip-rule="evenodd" d="M11.7497 2.67565C11.7341 2.68502 11.7143 2.69273 11.7058 2.6928C11.6972 2.69286 11.6882 2.69612 11.6858 2.70004C11.6834 2.70396 11.6733 2.70717 11.6634 2.70717C11.6456 2.70717 11.6028 2.72706 11.5982 2.73745C11.5969 2.7404 11.5886 2.7428 11.5797 2.7428C11.5708 2.7428 11.552 2.75067 11.5378 2.7603C11.5237 2.76993 11.4993 2.78127 11.4837 2.7855C11.468 2.78973 11.4473 2.80116 11.4376 2.8109C11.4279 2.82063 11.4095 2.83066 11.3967 2.83318C11.3839 2.8357 11.3686 2.84325 11.3627 2.84994C11.3568 2.85665 11.3345 2.86815 11.313 2.87551C11.2916 2.88287 11.2682 2.8961 11.2611 2.90492C11.2539 2.91375 11.2441 2.92096 11.2392 2.92096C11.2343 2.92096 11.2228 2.92898 11.2136 2.93878C11.2045 2.94857 11.1927 2.95659 11.1876 2.95659C11.1824 2.95659 11.1781 2.9598 11.1781 2.96372C11.1781 2.96764 11.1716 2.97084 11.1636 2.97084C11.1557 2.97084 11.1421 2.9774 11.1336 2.98542C11.1164 3.00146 11.081 3.02073 11.0687 3.02073C11.0644 3.02073 11.0522 3.02875 11.0417 3.03855C11.0312 3.04834 11.0204 3.05636 11.0177 3.05636C11.015 3.05636 11.0037 3.06598 10.9925 3.07773C10.9813 3.08948 10.957 3.10613 10.9385 3.11471C10.9199 3.12331 10.895 3.14055 10.883 3.15302C10.8711 3.1655 10.8543 3.17793 10.8458 3.18065C10.8372 3.18337 10.8302 3.18859 10.8302 3.19224C10.8302 3.1959 10.8269 3.19889 10.8228 3.19889C10.8187 3.19889 10.8074 3.20691 10.7976 3.21671C10.7879 3.22651 10.7723 3.23452 10.7629 3.23452C10.7525 3.23452 10.7443 3.23975 10.7417 3.24814C10.7393 3.25562 10.729 3.2673 10.7187 3.27407C10.7084 3.28084 10.6929 3.29395 10.6844 3.30321C10.6759 3.31246 10.6666 3.32004 10.6638 3.32004C10.6611 3.32004 10.6544 3.32405 10.6489 3.32895C10.6276 3.34813 10.6177 3.35567 10.6137 3.35567C10.6114 3.35567 10.6009 3.36369 10.5904 3.37349C10.5798 3.38329 10.5693 3.3913 10.567 3.3913C10.5646 3.3913 10.5476 3.40557 10.5293 3.42301C10.5109 3.44044 10.4901 3.45654 10.483 3.45878C10.476 3.46102 10.4667 3.4708 10.4623 3.48052C10.4578 3.49025 10.4501 3.4982 10.4451 3.4982C10.4401 3.4982 10.4302 3.50593 10.4232 3.51536C10.4161 3.5248 10.4002 3.53663 10.3877 3.54165C10.3753 3.54668 10.3581 3.55819 10.3495 3.56725C10.3409 3.57631 10.3303 3.58372 10.3258 3.58372C10.3158 3.58372 10.2912 3.6126 10.2909 3.6247C10.2907 3.6296 10.2847 3.6336 10.2774 3.6336C10.2702 3.6336 10.2582 3.64162 10.2509 3.65142C10.2435 3.66122 10.2335 3.66924 10.2285 3.66924C10.2236 3.66924 10.2126 3.67725 10.2041 3.68705C10.1956 3.69685 10.1844 3.70487 10.1793 3.70487C10.1741 3.70487 10.1699 3.70773 10.1699 3.71123C10.1699 3.71472 10.1625 3.71945 10.1534 3.72174C10.1443 3.72403 10.1332 3.734 10.1287 3.74389C10.1242 3.75378 10.1157 3.76188 10.1097 3.76188C10.1038 3.76188 10.0989 3.76509 10.0989 3.76901C10.0989 3.77293 10.0956 3.77613 10.0915 3.77613C10.0874 3.77613 10.0763 3.78393 10.0668 3.79346C10.0573 3.80299 10.0375 3.81983 10.0228 3.83088C10.008 3.84192 9.98638 3.85979 9.97466 3.87058C9.96295 3.88137 9.94712 3.89221 9.9395 3.89468C9.93186 3.89715 9.92159 3.90275 9.91666 3.90713C9.89545 3.926 9.88625 3.93292 9.8824 3.93292C9.88013 3.93292 9.86482 3.9468 9.84837 3.96379C9.81525 3.99797 9.76438 4.03269 9.74742 4.03269C9.74139 4.03269 9.73339 4.04079 9.72964 4.05069C9.72589 4.06059 9.71719 4.07085 9.71031 4.07351C9.70342 4.07615 9.69045 4.08569 9.68148 4.0947C9.6725 4.10371 9.66167 4.11108 9.65741 4.11108C9.65314 4.11108 9.6401 4.1223 9.62842 4.13602C9.61263 4.15458 9.60153 4.16098 9.58503 4.16105C9.56755 4.16112 9.55946 4.1664 9.54681 4.18599C9.53799 4.19967 9.52788 4.21085 9.52435 4.21085C9.52081 4.21085 9.50125 4.22673 9.48086 4.24614C9.46047 4.26556 9.43024 4.28783 9.41369 4.29564C9.39712 4.30346 9.37918 4.31417 9.37381 4.31943C9.36844 4.32471 9.35679 4.33405 9.34792 4.34019C9.33906 4.34633 9.31988 4.36236 9.30532 4.37579C9.2671 4.41105 9.24579 4.42464 9.2287 4.42464C9.21956 4.42464 9.21051 4.43162 9.20559 4.44246C9.20113 4.45226 9.19379 4.46027 9.18927 4.46027C9.18474 4.46027 9.17148 4.4715 9.15981 4.48522C9.14814 4.49893 9.13557 4.51016 9.13188 4.51016C9.12819 4.51016 9.12072 4.51417 9.11528 4.51907C9.09178 4.54022 9.08375 4.54579 9.07679 4.54579C9.07272 4.54579 9.06939 4.549 9.06939 4.55292C9.06939 4.55684 9.06277 4.56004 9.05469 4.56004C9.03897 4.56004 9.01969 4.57546 9.01969 4.58804C9.01969 4.59224 9.01504 4.59568 9.00936 4.59568C9.00368 4.59568 8.9914 4.60334 8.98208 4.61269C8.97275 4.62206 8.95104 4.63856 8.93383 4.64937C8.91661 4.66017 8.89998 4.67336 8.89686 4.67867C8.89373 4.68397 8.88574 4.68842 8.8791 4.68855C8.86411 4.68883 8.84218 4.70497 8.84218 4.71573C8.84218 4.72015 8.8318 4.72817 8.81911 4.73357C8.80641 4.73895 8.78995 4.75022 8.78251 4.7586C8.77507 4.76698 8.76266 4.77384 8.75493 4.77384C8.74236 4.77384 8.70731 4.80604 8.70729 4.81761C8.70729 4.82012 8.70009 4.82405 8.6913 4.82634C8.68252 4.82862 8.66415 4.84019 8.65048 4.85204C8.63681 4.86388 8.6212 4.87358 8.61579 4.87359C8.61038 4.8736 8.59855 4.88162 8.5895 4.89142C8.58046 4.90122 8.56927 4.90924 8.56465 4.90924C8.56004 4.90924 8.5495 4.91653 8.54124 4.92544C8.53298 4.93435 8.51504 4.94726 8.50137 4.95414C8.46555 4.97217 8.45015 4.9822 8.43354 4.99832C8.41895 5.01248 8.40337 5.02264 8.36334 5.04413C8.35185 5.05029 8.33611 5.0609 8.32836 5.06772C8.32061 5.07454 8.30779 5.08218 8.29987 5.08469C8.2827 5.09017 8.26707 5.1048 8.26707 5.1154C8.26707 5.1196 8.26068 5.12303 8.25287 5.12303C8.24506 5.12303 8.23867 5.12624 8.23867 5.13016C8.23867 5.13408 8.23213 5.13729 8.22413 5.13729C8.21613 5.13729 8.20219 5.1453 8.19314 5.1551C8.18409 5.1649 8.17103 5.17292 8.16411 5.17292C8.1572 5.17292 8.14414 5.18094 8.13509 5.19073C8.12604 5.20053 8.1129 5.20861 8.10588 5.20869C8.09886 5.20876 8.08123 5.21918 8.0667 5.23185C8.05217 5.24451 8.02501 5.26106 8.00635 5.26863C7.98768 5.27619 7.96762 5.28773 7.96176 5.29427C7.9559 5.30082 7.93913 5.3084 7.92448 5.31113C7.90984 5.31386 7.89786 5.31856 7.89786 5.32158C7.89786 5.3281 7.85163 5.35108 7.8385 5.35108C7.83346 5.35108 7.82183 5.3591 7.81266 5.3689C7.80348 5.37869 7.7917 5.38671 7.78647 5.38671C7.77615 5.38671 7.75088 5.39985 7.73721 5.41232C7.73251 5.41661 7.71801 5.42444 7.70498 5.42973C7.69196 5.43502 7.6797 5.44114 7.67775 5.44332C7.67019 5.45177 7.61977 5.47223 7.60651 5.47223C7.59883 5.47223 7.59255 5.47544 7.59255 5.47936C7.59255 5.48327 7.58776 5.48648 7.5819 5.48648C7.57604 5.48648 7.57125 5.48962 7.57125 5.49347C7.57125 5.49731 7.56326 5.50247 7.5535 5.50493C7.54374 5.50739 7.53575 5.51227 7.53575 5.51576C7.53575 5.51926 7.52795 5.52211 7.51842 5.52211C7.50888 5.52211 7.49911 5.52532 7.4967 5.52924C7.49428 5.53316 7.48687 5.53637 7.48023 5.53637C7.47359 5.53637 7.45953 5.54438 7.449 5.55418C7.43661 5.56571 7.42159 5.572 7.4064 5.572C7.39122 5.572 7.3762 5.57828 7.3638 5.58982C7.35328 5.59961 7.34144 5.60763 7.3375 5.60763C7.32079 5.60763 7.26294 5.63126 7.24998 5.64338C7.24224 5.65062 7.22269 5.65854 7.20655 5.66099C7.176 5.66563 7.1449 5.67801 7.13724 5.68857C7.13479 5.69194 7.11802 5.69637 7.09997 5.69842C7.08191 5.70046 7.06713 5.70492 7.06713 5.70833C7.06713 5.71174 7.06154 5.71463 7.05471 5.71476C7.04788 5.71488 7.03608 5.71969 7.0285 5.72545C7.02092 5.7312 7.00593 5.73591 6.9952 5.73591C6.98445 5.73591 6.9737 5.73911 6.97128 5.74303C6.96887 5.74695 6.96149 5.75019 6.95489 5.75022C6.94828 5.75026 6.92691 5.75818 6.90738 5.76782C6.88785 5.77746 6.86469 5.78545 6.8559 5.78557C6.84711 5.78569 6.83993 5.789 6.83993 5.79292C6.83993 5.79684 6.83073 5.80005 6.81949 5.80005C6.80826 5.80005 6.79509 5.80486 6.79023 5.81074C6.78536 5.81661 6.77539 5.82143 6.76806 5.82143C6.76073 5.82143 6.75473 5.82463 6.75473 5.82855C6.75473 5.83247 6.74797 5.83568 6.73971 5.83568C6.72438 5.83568 6.65369 5.87054 6.64941 5.88022C6.6481 5.88316 6.64263 5.88556 6.63723 5.88556C6.61983 5.88556 6.61161 5.91388 6.61199 5.97252C6.61232 6.02251 6.61466 6.03286 6.6303 6.05343C6.64186 6.06866 6.64822 6.08621 6.64822 6.10292C6.64822 6.12329 6.65353 6.13384 6.67307 6.15234C6.6925 6.17073 6.69792 6.18145 6.69792 6.20143C6.69792 6.21937 6.70336 6.23244 6.71617 6.24529C6.72619 6.25536 6.73928 6.27795 6.74523 6.2955C6.75119 6.31304 6.75845 6.3274 6.76138 6.3274C6.7643 6.3274 6.77278 6.33933 6.78024 6.35389C6.8046 6.40155 6.82341 6.41541 6.86814 6.41865C6.89591 6.42067 6.91154 6.41855 6.91853 6.41182C6.93207 6.3988 6.96522 6.38441 6.98168 6.38441C6.98898 6.38441 7.01564 6.3734 7.04091 6.35994C7.06619 6.34648 7.0983 6.33332 7.11229 6.33069C7.12626 6.32805 7.14459 6.31989 7.15303 6.31255C7.16146 6.3052 7.17994 6.2973 7.19408 6.29499C7.20822 6.29267 7.23576 6.28329 7.25529 6.27414C7.27482 6.26499 7.29999 6.25543 7.31123 6.2529C7.32246 6.25036 7.34096 6.23895 7.35233 6.22754C7.36438 6.21545 7.38398 6.20497 7.39935 6.20242C7.43361 6.19673 7.46475 6.18472 7.46475 6.17718C7.46475 6.17389 7.48072 6.16551 7.50025 6.15855C7.51977 6.15159 7.53575 6.14344 7.53575 6.14044C7.53575 6.13744 7.54354 6.13499 7.55308 6.13499C7.56261 6.13499 7.57224 6.13203 7.57446 6.12841C7.57669 6.12479 7.58763 6.11982 7.59877 6.11737C7.60992 6.11491 7.62505 6.10745 7.63242 6.10078C7.6504 6.08451 7.69613 6.06372 7.71397 6.06372C7.72191 6.06372 7.73887 6.05571 7.75167 6.04591C7.76447 6.03611 7.78028 6.02809 7.7868 6.02809C7.80125 6.02809 7.82369 6.01563 7.84773 5.99424C7.85876 5.98443 7.87496 5.97821 7.88946 5.97821C7.90631 5.97821 7.91929 5.97204 7.93445 5.95683C7.94617 5.94507 7.96307 5.93545 7.972 5.93545C7.98094 5.93545 7.99637 5.92903 8.0063 5.9212C8.01622 5.91336 8.02784 5.90694 8.03211 5.90694C8.03637 5.90694 8.03986 5.90416 8.03986 5.90075C8.03986 5.89734 8.05134 5.89268 8.06536 5.8904C8.07938 5.88811 8.09634 5.8799 8.10305 5.87214C8.10975 5.86438 8.12942 5.85235 8.14678 5.84538C8.16412 5.83842 8.18565 5.82537 8.19461 5.81639C8.20358 5.8074 8.21875 5.80005 8.22834 5.80005C8.23792 5.80005 8.24577 5.79684 8.24577 5.79292C8.24577 5.789 8.24919 5.78579 8.25337 5.78579C8.25756 5.78579 8.26578 5.78098 8.27163 5.7751C8.27749 5.76922 8.2897 5.76441 8.29876 5.76441C8.30783 5.76441 8.31678 5.76041 8.31867 5.75551C8.32275 5.74484 8.37755 5.71453 8.39275 5.71453C8.39865 5.71453 8.40976 5.70651 8.41744 5.69671C8.42512 5.68691 8.43737 5.6789 8.44467 5.6789C8.45196 5.6789 8.45991 5.67569 8.46232 5.67177C8.46474 5.66785 8.47147 5.66464 8.47728 5.66464C8.4831 5.66464 8.49525 5.65663 8.5043 5.64683C8.51335 5.63703 8.52449 5.62901 8.52907 5.62901C8.53726 5.62901 8.57257 5.60864 8.57948 5.59992C8.58143 5.59746 8.59454 5.59168 8.60861 5.58708C8.62268 5.58248 8.64135 5.57106 8.65011 5.56171C8.65886 5.55235 8.67399 5.5427 8.68371 5.54024C8.69344 5.53779 8.70926 5.5279 8.71887 5.51826C8.72847 5.50862 8.74071 5.50073 8.74606 5.50073C8.75141 5.50073 8.75686 5.49792 8.75817 5.49448C8.76208 5.48413 8.8149 5.45085 8.82741 5.45085C8.83381 5.45085 8.84375 5.44424 8.84949 5.43615C8.85523 5.42807 8.87112 5.41621 8.88478 5.4098C8.89845 5.40339 8.91123 5.39618 8.91319 5.39377C8.91514 5.39137 8.93831 5.37529 8.96466 5.35804C8.99102 5.34079 9.01259 5.32415 9.01259 5.32106C9.01259 5.31798 9.01715 5.31545 9.02272 5.31545C9.0283 5.31545 9.03914 5.30743 9.04682 5.29763C9.0545 5.28783 9.06622 5.27981 9.07287 5.27981C9.08874 5.27981 9.12619 5.25742 9.12619 5.24792C9.12619 5.2393 9.14301 5.22788 9.19662 5.20009C9.21778 5.18912 9.24107 5.17371 9.24837 5.16584C9.25567 5.15797 9.26509 5.15154 9.26929 5.15154C9.27349 5.15154 9.28695 5.14102 9.29919 5.12816C9.31143 5.1153 9.33103 5.10011 9.34275 5.09441C9.35446 5.0887 9.37108 5.07677 9.37968 5.0679C9.38828 5.05903 9.39882 5.05177 9.4031 5.05177C9.40738 5.05177 9.41828 5.04375 9.42732 5.03395C9.43638 5.02415 9.44661 5.01603 9.45007 5.0159C9.45981 5.01553 9.48493 4.99253 9.48994 4.97939C9.49242 4.97291 9.50354 4.96559 9.51465 4.96314C9.52576 4.96069 9.54595 4.94917 9.55951 4.93755C9.57306 4.92592 9.58655 4.91639 9.58948 4.91638C9.59241 4.91637 9.60689 4.90434 9.62166 4.88964C9.66177 4.84973 9.69857 4.82372 9.7149 4.82372C9.72448 4.82372 9.73096 4.81765 9.73389 4.80591C9.73668 4.79476 9.74338 4.78809 9.75178 4.78809C9.75917 4.78809 9.76521 4.78488 9.76521 4.78096C9.76521 4.77704 9.76828 4.77384 9.77203 4.77384C9.77577 4.77384 9.79158 4.76181 9.80716 4.74711C9.84643 4.71005 9.8559 4.70257 9.86355 4.70257C9.8672 4.70257 9.87177 4.69845 9.87369 4.69342C9.87562 4.68839 9.89232 4.67646 9.91081 4.66691C9.92931 4.65737 9.94765 4.64249 9.95157 4.63385C9.95549 4.62521 9.96574 4.61638 9.97435 4.6142C9.98296 4.61204 10.0099 4.59094 10.0343 4.56733C10.0586 4.54373 10.0807 4.5244 10.0834 4.5244C10.0861 4.5244 10.0975 4.51638 10.1089 4.50659C10.1202 4.49679 10.1338 4.48878 10.1391 4.48878C10.1443 4.48878 10.1486 4.48557 10.1486 4.48165C10.1486 4.47773 10.152 4.47453 10.1562 4.47453C10.1655 4.47453 10.1841 4.45662 10.1841 4.44773C10.1841 4.4442 10.1918 4.4372 10.2011 4.43219C10.2104 4.42718 10.2215 4.41541 10.2258 4.40604C10.23 4.39668 10.2381 4.38901 10.2438 4.38901C10.2495 4.38901 10.2604 4.38099 10.2681 4.37119C10.2757 4.36139 10.2857 4.35338 10.2901 4.35338C10.3021 4.35338 10.3349 4.33083 10.3497 4.31243C10.3568 4.3036 10.3658 4.29636 10.3697 4.29636C10.3792 4.29636 10.3971 4.27799 10.3971 4.26836C10.3971 4.26417 10.4027 4.26063 10.4096 4.2605C10.4249 4.26023 10.4468 4.24418 10.4468 4.23322C10.4468 4.22876 10.45 4.2251 10.4539 4.2251C10.4578 4.2251 10.4755 4.21067 10.4934 4.19303C10.5112 4.17539 10.5312 4.16096 10.5379 4.16096C10.5445 4.16096 10.556 4.15294 10.5633 4.14315C10.5706 4.13335 10.5804 4.12533 10.585 4.12533C10.5896 4.12533 10.6093 4.11009 10.6289 4.09148C10.6484 4.07286 10.677 4.04818 10.6923 4.03663C10.7076 4.02507 10.7218 4.01348 10.7237 4.01086C10.7257 4.00824 10.7353 4.0037 10.745 4.00075C10.7548 3.99781 10.7732 3.98455 10.7858 3.97128C10.7985 3.95802 10.8132 3.94717 10.8184 3.94717C10.8237 3.94717 10.8316 3.93915 10.836 3.92935C10.8405 3.91955 10.849 3.91154 10.8549 3.91154C10.8609 3.91154 10.8657 3.90833 10.8657 3.90441C10.8657 3.90049 10.8691 3.89728 10.8732 3.89728C10.8772 3.89728 10.8892 3.88927 10.8997 3.87947C10.9102 3.86967 10.9245 3.86165 10.9315 3.86165C10.9384 3.86165 10.955 3.85043 10.9682 3.83671C10.9815 3.82299 10.9945 3.81177 10.997 3.81177C11.0041 3.81177 11.0219 3.79231 11.0219 3.78462C11.0219 3.78089 11.0403 3.76863 11.0628 3.75738C11.0852 3.74614 11.1047 3.73454 11.106 3.73159C11.1073 3.72865 11.1115 3.72625 11.1154 3.72625C11.1193 3.72625 11.1314 3.71743 11.1423 3.70665C11.1736 3.67566 11.199 3.65498 11.2057 3.65498C11.2091 3.65498 11.2159 3.65017 11.2207 3.64429C11.2256 3.63841 11.235 3.6336 11.2416 3.6336C11.2483 3.6336 11.2606 3.62559 11.2691 3.61579C11.2776 3.60599 11.2879 3.59797 11.292 3.59797C11.2961 3.59797 11.3081 3.58995 11.3186 3.58016C11.3291 3.57036 11.3418 3.56234 11.3467 3.56234C11.3516 3.56234 11.3557 3.55913 11.3557 3.55521C11.3557 3.55129 11.3614 3.54809 11.3684 3.54809C11.3755 3.54809 11.401 3.53205 11.4253 3.51245C11.4495 3.49286 11.4741 3.47682 11.4799 3.47682C11.4858 3.47682 11.4906 3.47362 11.4906 3.4697C11.4906 3.46578 11.4971 3.46257 11.5051 3.46257C11.5131 3.46257 11.527 3.45455 11.5361 3.44475C11.5451 3.43495 11.5559 3.42694 11.56 3.42694C11.5775 3.42694 11.6326 3.3981 11.6326 3.38892C11.6326 3.38302 11.6427 3.37727 11.6573 3.37489C11.6709 3.37268 11.6927 3.36264 11.7059 3.35258C11.719 3.34252 11.7363 3.33429 11.7442 3.33429C11.7521 3.33429 11.7772 3.32307 11.7999 3.30935C11.8226 3.29563 11.8455 3.28441 11.8508 3.28441C11.8562 3.28441 11.8723 3.27639 11.8866 3.26659C11.901 3.25679 11.9214 3.24878 11.932 3.24878C11.9426 3.24878 11.9532 3.24557 11.9556 3.24165C11.958 3.23773 11.9667 3.23452 11.9749 3.23452C11.9831 3.23452 12.0003 3.22651 12.0131 3.21671C12.0273 3.20583 12.0457 3.19889 12.0603 3.19889C12.0735 3.19889 12.0905 3.19418 12.098 3.18843C12.1056 3.18267 12.1174 3.17786 12.1242 3.17774C12.1311 3.17761 12.1367 3.1743 12.1367 3.17038C12.1367 3.16647 12.1463 3.16326 12.1581 3.16326C12.1698 3.16326 12.185 3.16052 12.1918 3.15718C12.1986 3.15384 12.2169 3.14546 12.2325 3.13857C12.2481 3.13168 12.2665 3.12319 12.2733 3.11971C12.28 3.11622 12.2954 3.11337 12.3073 3.11337C12.3274 3.11337 12.3698 3.09648 12.3781 3.08517C12.3838 3.07741 12.4409 3.05636 12.4563 3.05636C12.4641 3.05636 12.4704 3.05385 12.4704 3.05077C12.4704 3.0477 12.4797 3.03964 12.4912 3.03286C12.5026 3.02609 12.5189 3.00926 12.5274 2.99547C12.5448 2.96717 12.5424 2.94338 12.5199 2.92078C12.5122 2.91304 12.5059 2.90339 12.5059 2.89933C12.5059 2.87769 12.4253 2.79024 12.397 2.78124C12.3796 2.77568 12.3639 2.76111 12.3639 2.75043C12.3639 2.74623 12.3559 2.7428 12.3461 2.7428C12.3364 2.7428 12.3284 2.74028 12.3284 2.73721C12.3284 2.72876 12.289 2.70717 12.2736 2.70717C12.2661 2.70717 12.2435 2.69915 12.2232 2.68935C12.203 2.67955 12.1832 2.67153 12.1793 2.67153C12.1754 2.67153 12.1722 2.66833 12.1722 2.66441C12.1722 2.65981 12.1022 2.65752 11.9751 2.65795C11.7806 2.65861 11.7778 2.65884 11.7497 2.67565ZM12.6375 3.45636C12.6221 3.45999 12.6077 3.46563 12.6056 3.4689C12.5954 3.48463 12.553 3.4982 12.5141 3.4982C12.4784 3.4982 12.4693 3.50092 12.4552 3.5159C12.4433 3.52844 12.4308 3.53362 12.4122 3.53371C12.3978 3.53378 12.384 3.53704 12.3816 3.54096C12.3792 3.54488 12.371 3.54809 12.3635 3.54809C12.3559 3.54809 12.3497 3.55104 12.3497 3.55465C12.3497 3.55826 12.3401 3.56331 12.3285 3.56588C12.3168 3.56845 12.3054 3.57352 12.3032 3.57714C12.301 3.58076 12.2877 3.58372 12.2738 3.58372C12.254 3.58372 12.2433 3.5892 12.225 3.60866C12.2079 3.6268 12.1955 3.6336 12.1794 3.6336C12.155 3.6336 12.1154 3.65137 12.1154 3.6623C12.1154 3.66612 12.1076 3.66924 12.0982 3.66924C12.0808 3.66924 12.0357 3.68968 12.0314 3.69952C12.0301 3.70247 12.023 3.70487 12.0158 3.70487C12.0085 3.70487 12.0006 3.70808 11.9982 3.712C11.9958 3.71591 11.9855 3.71912 11.9754 3.71912C11.9653 3.71912 11.9462 3.72735 11.9331 3.73741C11.9199 3.74746 11.8982 3.75748 11.8849 3.75965C11.8715 3.76183 11.8545 3.76929 11.8471 3.77624C11.8314 3.79091 11.793 3.81177 11.7817 3.81177C11.7774 3.81177 11.7659 3.81978 11.7562 3.82958C11.7464 3.83938 11.7306 3.8474 11.721 3.8474C11.7114 3.8474 11.7036 3.8506 11.7036 3.85452C11.7036 3.85844 11.6988 3.86165 11.6929 3.86165C11.6871 3.86165 11.6822 3.86405 11.6822 3.867C11.6822 3.87431 11.641 3.89728 11.628 3.89728C11.6222 3.89728 11.6069 3.9053 11.5941 3.9151C11.5813 3.9249 11.5658 3.93292 11.5597 3.93292C11.5536 3.93292 11.5475 3.93532 11.5462 3.93826C11.5402 3.95185 11.4896 3.9828 11.4734 3.9828C11.4618 3.9828 11.4511 3.98943 11.4432 4.00146C11.4365 4.01172 11.4181 4.02577 11.4022 4.03268C11.3864 4.03959 11.3657 4.05203 11.3563 4.06034C11.347 4.06865 11.3347 4.07544 11.3292 4.07544C11.3176 4.07544 11.2989 4.09243 11.2989 4.10296C11.2989 4.10689 11.293 4.11199 11.2858 4.11427C11.2786 4.11656 11.2621 4.128 11.249 4.1397C11.236 4.15139 11.2193 4.16096 11.2119 4.16096C11.199 4.16096 11.1781 4.17637 11.1781 4.1859C11.1781 4.19275 11.1588 4.21085 11.1515 4.21085C11.148 4.21085 11.1376 4.21886 11.1284 4.22866C11.1193 4.23846 11.1087 4.24648 11.1049 4.24648C11.1012 4.24648 11.0914 4.25377 11.0831 4.26268C11.0749 4.27159 11.0562 4.28451 11.0417 4.2914C11.0272 4.29828 11.0112 4.30965 11.0062 4.31665C11.0012 4.32366 10.9867 4.33548 10.974 4.34292C10.9613 4.35036 10.9509 4.36025 10.9509 4.36491C10.9509 4.36955 10.9411 4.37681 10.929 4.38103C10.917 4.38525 10.9054 4.39505 10.9034 4.4028C10.9014 4.41071 10.8896 4.42027 10.8766 4.42457C10.8639 4.42878 10.845 4.44174 10.8347 4.45338C10.8244 4.46501 10.8119 4.47453 10.807 4.47453C10.8021 4.47453 10.7921 4.48254 10.7848 4.49234C10.7774 4.50214 10.766 4.51016 10.7594 4.51016C10.7527 4.51016 10.7413 4.52138 10.7339 4.5351C10.7265 4.54882 10.7163 4.56004 10.7111 4.56004C10.706 4.56004 10.6944 4.56806 10.6853 4.57786C10.6763 4.58766 10.6652 4.59568 10.6608 4.59568C10.6564 4.59568 10.6527 4.59867 10.6527 4.60232C10.6527 4.60598 10.6455 4.61125 10.6368 4.61403C10.628 4.61681 10.6156 4.62505 10.6093 4.63233C10.603 4.6396 10.5947 4.64556 10.5909 4.64556C10.5807 4.64556 10.5533 4.67084 10.5533 4.68024C10.5533 4.68468 10.5506 4.68832 10.5473 4.68832C10.544 4.68832 10.5316 4.69761 10.5197 4.70895C10.5079 4.7203 10.4916 4.73168 10.4835 4.73426C10.4755 4.73683 10.4671 4.74438 10.465 4.75104C10.4609 4.76374 10.4237 4.78809 10.4083 4.78809C10.4034 4.78809 10.3959 4.79586 10.3916 4.80536C10.3873 4.81486 10.3767 4.82367 10.3681 4.82495C10.3595 4.82624 10.3489 4.83356 10.3446 4.84124C10.3337 4.86072 10.3212 4.87361 10.3134 4.87361C10.3097 4.87361 10.2943 4.88644 10.2791 4.90213C10.264 4.91781 10.2344 4.9391 10.2134 4.94943C10.1924 4.95975 10.1737 4.97407 10.1718 4.98125C10.1699 4.98841 10.1615 4.99645 10.1532 4.9991C10.1448 5.00175 10.1338 5.0099 10.1287 5.0172C10.1235 5.0245 10.1098 5.03542 10.0982 5.04147C10.0865 5.04751 10.0608 5.06834 10.0411 5.08775C10.0213 5.10716 10.0023 5.12303 9.9988 5.12303C9.99528 5.12303 9.99242 5.12624 9.99242 5.13016C9.99242 5.13408 9.98519 5.13729 9.97635 5.13729C9.9675 5.13729 9.95429 5.14529 9.94695 5.1551C9.93963 5.1649 9.92822 5.17292 9.92162 5.17292C9.91502 5.17292 9.90534 5.18094 9.90011 5.19073C9.89489 5.20053 9.88774 5.20855 9.88424 5.20855C9.88073 5.20855 9.86733 5.21975 9.85447 5.23344C9.8416 5.24714 9.82025 5.26293 9.80701 5.26853C9.79379 5.27413 9.77826 5.28538 9.77251 5.29352C9.76677 5.30166 9.7566 5.30832 9.74992 5.30832C9.74323 5.30832 9.73572 5.31479 9.73322 5.32269C9.73072 5.3306 9.71772 5.34166 9.70434 5.34727C9.69096 5.35289 9.68001 5.36239 9.68001 5.3684C9.68001 5.3744 9.67202 5.38132 9.66226 5.38378C9.65249 5.38624 9.64451 5.39112 9.64451 5.39461C9.64451 5.39811 9.64108 5.40096 9.6369 5.40096C9.63271 5.40096 9.62484 5.40498 9.61939 5.40987C9.5943 5.43246 9.58742 5.4366 9.57494 5.4366C9.56758 5.4366 9.55795 5.4446 9.5535 5.45441C9.54904 5.46421 9.54227 5.47223 9.53843 5.47223C9.53459 5.47223 9.51665 5.48666 9.49858 5.5043C9.48049 5.52194 9.45983 5.53637 9.45267 5.53637C9.44549 5.53637 9.43335 5.54438 9.42567 5.55418C9.41799 5.56398 9.40634 5.572 9.3998 5.572C9.38641 5.572 9.3676 5.58836 9.3676 5.6C9.3676 5.6042 9.36271 5.60763 9.35673 5.60763C9.35075 5.60763 9.33411 5.62046 9.31974 5.63614C9.30538 5.65182 9.28791 5.66464 9.28091 5.66464C9.27392 5.66464 9.2682 5.66707 9.2682 5.67003C9.2682 5.673 9.25839 5.67977 9.2464 5.6851C9.23442 5.69042 9.21764 5.70177 9.20912 5.71033C9.19304 5.72647 9.16061 5.74601 9.13794 5.7532C9.13074 5.75549 9.12317 5.76376 9.12114 5.77158C9.11909 5.77943 9.11145 5.78579 9.10406 5.78579C9.09671 5.78579 9.09069 5.789 9.09069 5.79292C9.09069 5.79684 9.08735 5.80005 9.08328 5.80005C9.0792 5.80005 9.06722 5.80825 9.05665 5.81827C9.04609 5.82829 9.02866 5.84181 9.01791 5.84831C9.00717 5.85481 8.99839 5.86264 8.99839 5.86572C8.99839 5.86879 8.992 5.87131 8.98419 5.87131C8.97638 5.87131 8.96999 5.87417 8.96999 5.87767C8.96999 5.88116 8.96221 5.88598 8.95271 5.88837C8.94321 5.89077 8.93363 5.89833 8.93142 5.90518C8.92704 5.91875 8.88161 5.9479 8.8422 5.96241C8.82855 5.96744 8.81098 5.97877 8.80315 5.98759C8.78895 6.00361 8.72115 6.04947 8.71168 6.04947C8.70893 6.04947 8.70282 6.05274 8.69811 6.05673C8.66333 6.08617 8.65151 6.09442 8.6294 6.10472C8.61561 6.11114 8.60177 6.12059 8.59865 6.1257C8.59552 6.13081 8.58674 6.13499 8.57912 6.13499C8.57151 6.13499 8.56528 6.13798 8.56528 6.14164C8.56528 6.14529 8.55969 6.15008 8.55285 6.15229C8.54602 6.15449 8.52924 6.16592 8.51557 6.1777C8.50191 6.18946 8.4835 6.1991 8.47468 6.19911C8.46585 6.19912 8.45308 6.20564 8.44628 6.2136C8.43949 6.22157 8.42035 6.23468 8.40375 6.24275C8.38715 6.25081 8.37357 6.26033 8.37357 6.2639C8.37357 6.26747 8.37006 6.27039 8.36577 6.27039C8.35457 6.27039 8.30781 6.29314 8.29674 6.30397C8.29158 6.30902 8.28499 6.31315 8.2821 6.31315C8.27921 6.31315 8.27065 6.31887 8.26308 6.32586C8.24538 6.34219 8.20126 6.36304 8.18434 6.36304C8.17712 6.36305 8.16194 6.37107 8.15058 6.38086C8.13924 6.39066 8.12566 6.39867 8.12041 6.39867C8.11516 6.39867 8.11086 6.40187 8.11086 6.40579C8.11086 6.40971 8.10481 6.41292 8.09741 6.41292C8.09001 6.41292 8.07643 6.42088 8.06723 6.43062C8.05804 6.44034 8.04492 6.44836 8.03809 6.44843C8.03126 6.4485 8.02566 6.45176 8.02566 6.45568C8.02566 6.4596 8.01897 6.46281 8.01078 6.46281C7.99433 6.46281 7.95466 6.48404 7.95466 6.49285C7.95466 6.49592 7.94419 6.49844 7.93139 6.49844C7.91085 6.49844 7.87962 6.51314 7.86946 6.52761C7.8675 6.53038 7.84754 6.53801 7.82508 6.54456C7.80263 6.5511 7.78425 6.55944 7.78425 6.56308C7.78425 6.56672 7.77946 6.5697 7.7736 6.5697C7.76775 6.5697 7.76295 6.5728 7.76295 6.57659C7.76295 6.58037 7.74698 6.58559 7.72745 6.58819C7.70793 6.59079 7.69195 6.59571 7.69195 6.59913C7.69195 6.60254 7.68755 6.60533 7.68217 6.60533C7.67679 6.60533 7.66841 6.61015 7.66355 6.61602C7.65869 6.6219 7.6476 6.62671 7.63892 6.62671C7.62172 6.62671 7.58111 6.64497 7.57452 6.65567C7.57226 6.65934 7.5628 6.66235 7.5535 6.66235C7.5442 6.66235 7.53461 6.66555 7.5322 6.66947C7.52978 6.67339 7.51868 6.6766 7.50752 6.6766C7.49636 6.6766 7.48617 6.679 7.48486 6.68194C7.48093 6.69083 7.43614 6.71223 7.42147 6.71223C7.40771 6.71223 7.40322 6.71395 7.35944 6.73597C7.34644 6.74251 7.32966 6.74786 7.32217 6.74786C7.31468 6.74786 7.30854 6.75107 7.30854 6.75499C7.30854 6.75891 7.29602 6.76212 7.28072 6.76212C7.25415 6.76212 7.20928 6.78112 7.20918 6.7924C7.20916 6.79535 7.20377 6.79775 7.19722 6.79775C7.19066 6.79775 7.17548 6.80084 7.16349 6.80463C7.1515 6.80841 7.13364 6.8131 7.12379 6.81504C7.11395 6.81698 7.09905 6.82499 7.09067 6.83282C7.0823 6.84065 7.06639 6.8493 7.05531 6.85205C7.02791 6.85884 7.01151 6.87912 7.01569 6.90104C7.01756 6.91086 7.0214 6.9189 7.02423 6.9189C7.02999 6.9189 7.04302 6.95971 7.04907 6.99669C7.05126 7.01009 7.06101 7.03152 7.07074 7.04432C7.08048 7.05713 7.08844 7.07433 7.08844 7.08256C7.08844 7.09078 7.09962 7.12065 7.11329 7.14893C7.12695 7.1772 7.13814 7.20757 7.13814 7.21641C7.13814 7.22524 7.14133 7.23246 7.14524 7.23246C7.14914 7.23246 7.15234 7.23693 7.15234 7.24239C7.15234 7.24785 7.15713 7.25416 7.16299 7.25642C7.16921 7.25882 7.17364 7.2695 7.17364 7.28213C7.17364 7.29401 7.17683 7.30373 7.18074 7.30373C7.18464 7.30373 7.18784 7.30841 7.18784 7.31413C7.18784 7.32948 7.24064 7.38084 7.26194 7.3862C7.27205 7.38875 7.28907 7.38907 7.29976 7.38691C7.3409 7.3786 7.36193 7.3727 7.36534 7.36854C7.3673 7.36615 7.39286 7.35819 7.42214 7.35084C7.45143 7.3435 7.48387 7.3315 7.49424 7.32417C7.50461 7.31685 7.52227 7.31085 7.53349 7.31085C7.55267 7.31085 7.57697 7.29828 7.59838 7.2773C7.60354 7.27224 7.61533 7.2681 7.62459 7.2681C7.63384 7.2681 7.64339 7.26489 7.6458 7.26097C7.64821 7.25705 7.65639 7.25384 7.66397 7.25384C7.67155 7.25384 7.67775 7.25122 7.67775 7.24802C7.67775 7.24481 7.69597 7.23643 7.71823 7.22938C7.7405 7.22234 7.77079 7.20892 7.78555 7.19957C7.8003 7.19022 7.81723 7.18258 7.82316 7.18258C7.8291 7.18258 7.83396 7.17937 7.83396 7.17545C7.83396 7.17153 7.8418 7.16832 7.85139 7.16832C7.86097 7.16832 7.8768 7.16031 7.88656 7.15051C7.89733 7.1397 7.91241 7.13269 7.9249 7.13269C7.93702 7.13269 7.95337 7.12537 7.96463 7.11488C7.97517 7.10508 7.98823 7.09706 7.99366 7.09706C7.99909 7.09706 8.0055 7.09385 8.00791 7.08993C8.01032 7.08601 8.01995 7.08281 8.02931 7.08281C8.03866 7.08281 8.0543 7.07479 8.06407 7.06499C8.07383 7.05519 8.08764 7.04717 8.09476 7.04717C8.10743 7.04717 8.13351 7.03193 8.15219 7.01362C8.15735 7.00856 8.17434 7.00237 8.18995 6.99987C8.20555 6.99736 8.2221 6.99162 8.22672 6.98711C8.24484 6.96938 8.27087 6.95453 8.28381 6.95453C8.29128 6.95453 8.30479 6.94651 8.31384 6.93672C8.32289 6.92692 8.33504 6.9189 8.34086 6.9189C8.34668 6.9189 8.35341 6.91569 8.35582 6.91177C8.35823 6.90785 8.36724 6.90465 8.37584 6.90465C8.38443 6.90465 8.40008 6.89663 8.41061 6.88683C8.42113 6.87703 8.43579 6.86901 8.44317 6.86901C8.45955 6.86901 8.50137 6.84878 8.50137 6.84086C8.50137 6.83771 8.51974 6.82592 8.5422 6.81466C8.56466 6.8034 8.58409 6.79178 8.58539 6.78884C8.5867 6.7859 8.59508 6.7835 8.60403 6.7835C8.61298 6.7835 8.6325 6.77227 8.64743 6.75855C8.66234 6.74484 8.68179 6.73361 8.69063 6.73361C8.69947 6.73361 8.71403 6.72611 8.72297 6.71695C8.73191 6.70778 8.75413 6.69479 8.77233 6.68809C8.79054 6.68139 8.80714 6.67143 8.80923 6.66596C8.81132 6.66049 8.82678 6.652 8.84358 6.64709C8.86039 6.64219 8.88117 6.63078 8.88977 6.62175C8.89837 6.61273 8.91195 6.60533 8.91995 6.60533C8.92795 6.60533 8.93449 6.60213 8.93449 6.59821C8.93449 6.59429 8.93851 6.59108 8.94343 6.59108C8.94835 6.59108 8.961 6.58306 8.97153 6.57327C8.98205 6.56347 8.99671 6.55545 9.00408 6.55545C9.01145 6.55545 9.02316 6.54916 9.03009 6.54147C9.03703 6.53378 9.05579 6.52064 9.07178 6.51227C9.08778 6.5039 9.10577 6.49141 9.11176 6.48451C9.11774 6.47761 9.12927 6.46988 9.13737 6.46731C9.14546 6.46474 9.15824 6.45692 9.16577 6.44992C9.17329 6.44292 9.19364 6.43151 9.21098 6.42457C9.22833 6.41762 9.24751 6.40621 9.25358 6.39919C9.25967 6.39219 9.27184 6.38417 9.28062 6.38139C9.2894 6.37861 9.2966 6.37334 9.2966 6.36968C9.2966 6.36603 9.30139 6.36304 9.30725 6.36304C9.3131 6.36304 9.3179 6.36009 9.3179 6.3565C9.3179 6.3529 9.33207 6.34453 9.34939 6.33789C9.36671 6.33125 9.38257 6.3214 9.38464 6.31599C9.38894 6.30474 9.46207 6.25614 9.4747 6.25614C9.47931 6.25614 9.49362 6.24491 9.50651 6.2312C9.5194 6.21748 9.53295 6.20625 9.53663 6.20625C9.54031 6.20625 9.5555 6.19506 9.57039 6.18137C9.58527 6.16769 9.60381 6.15446 9.61158 6.15199C9.61936 6.14951 9.6339 6.13986 9.64392 6.13054C9.65392 6.12123 9.6647 6.11361 9.66786 6.11361C9.67102 6.11361 9.68513 6.10239 9.6992 6.08867C9.71327 6.07495 9.72959 6.06372 9.73545 6.06372C9.74754 6.06372 9.77734 6.04196 9.81719 6.00403C9.83211 5.98983 9.84866 5.97821 9.85395 5.97821C9.85925 5.97821 9.8694 5.97087 9.87652 5.9619C9.88364 5.95293 9.89905 5.94162 9.91076 5.93676C9.92248 5.9319 9.94207 5.91919 9.95432 5.90852C10.006 5.86347 10.0141 5.85706 10.0191 5.85705C10.022 5.85705 10.0368 5.84422 10.0519 5.82854C10.0671 5.81287 10.0859 5.80005 10.0937 5.80005C10.1015 5.80005 10.1184 5.78882 10.1313 5.7751C10.1442 5.76138 10.1571 5.75016 10.1599 5.75016C10.1626 5.75016 10.1756 5.73915 10.1886 5.72569C10.2016 5.71223 10.2219 5.6955 10.2337 5.68852C10.2455 5.68153 10.2551 5.67331 10.2551 5.67023C10.2551 5.66716 10.2599 5.66464 10.2658 5.66464C10.2716 5.66464 10.2764 5.66218 10.2764 5.65918C10.2764 5.65618 10.2924 5.64323 10.3119 5.6304C10.3314 5.61757 10.3474 5.60458 10.3474 5.60155C10.3474 5.5985 10.3586 5.59066 10.3723 5.58412C10.3859 5.57758 10.3971 5.56776 10.3971 5.56229C10.3971 5.55682 10.4063 5.54852 10.4176 5.54384C10.4289 5.53916 10.4443 5.52835 10.4519 5.51981C10.4728 5.49653 10.5028 5.47223 10.5108 5.47223C10.5147 5.47223 10.5178 5.46924 10.5178 5.46558C10.5178 5.46192 10.525 5.45666 10.5337 5.45388C10.5424 5.4511 10.5685 5.43003 10.5916 5.40708C10.6147 5.38412 10.6362 5.36533 10.6393 5.36533C10.6425 5.36533 10.6543 5.35652 10.6655 5.34573C10.6999 5.31268 10.739 5.28371 10.7583 5.27689C10.7811 5.26885 10.7947 5.25567 10.7947 5.24161C10.7947 5.23572 10.8007 5.22898 10.8081 5.22665C10.8154 5.22431 10.8322 5.21207 10.8453 5.19944C10.8735 5.17247 10.9195 5.13729 10.9266 5.13729C10.9293 5.13729 10.9421 5.12606 10.955 5.11234C10.9678 5.09862 10.9825 5.0874 10.9875 5.0874C10.9925 5.0874 11.0031 5.07996 11.0111 5.07087C11.019 5.06178 11.0314 5.05215 11.0386 5.04946C11.0458 5.04677 11.0534 5.03817 11.0554 5.03035C11.0574 5.02254 11.0647 5.01614 11.0716 5.01614C11.0785 5.01614 11.0977 5.00331 11.1142 4.98763C11.1308 4.97195 11.1476 4.95912 11.1516 4.95912C11.1555 4.95912 11.164 4.95306 11.1704 4.94564C11.1768 4.93822 11.1939 4.92716 11.2085 4.92106C11.223 4.91496 11.2349 4.90538 11.2349 4.89978C11.2349 4.89417 11.2437 4.88593 11.2545 4.88145C11.2652 4.87698 11.2858 4.86215 11.3002 4.84851C11.3145 4.83488 11.3315 4.82372 11.3379 4.82372C11.3511 4.82372 11.3699 4.80725 11.3699 4.79572C11.3699 4.79152 11.3741 4.78809 11.3793 4.78809C11.3844 4.78809 11.3962 4.78007 11.4054 4.77027C11.4145 4.76047 11.4263 4.75246 11.4314 4.75246C11.4366 4.75246 11.4409 4.74925 11.4409 4.74533C11.4409 4.74141 11.4449 4.7382 11.4498 4.7382C11.4547 4.7382 11.4674 4.73019 11.4779 4.72039C11.4884 4.71059 11.499 4.70257 11.5014 4.70257C11.5038 4.70257 11.5102 4.69857 11.5157 4.69366C11.5376 4.67396 11.547 4.66694 11.5515 4.66694C11.5542 4.66694 11.5665 4.65609 11.579 4.64285C11.5914 4.62959 11.6123 4.6164 11.6253 4.61352C11.6384 4.61065 11.6567 4.60064 11.666 4.59129C11.6753 4.58194 11.6854 4.5743 11.6883 4.5743C11.6913 4.5743 11.7 4.56857 11.7075 4.56158C11.7329 4.53813 11.7563 4.52441 11.7709 4.52441C11.7789 4.52441 11.7914 4.51639 11.7987 4.50659C11.8061 4.4968 11.818 4.48878 11.8253 4.48878C11.8325 4.48878 11.8385 4.48557 11.8385 4.48165C11.8385 4.47773 11.8464 4.47453 11.8561 4.47453C11.8689 4.47453 11.8749 4.46972 11.8781 4.45671C11.8811 4.44491 11.8877 4.43872 11.8978 4.43837C11.9062 4.43809 11.9226 4.43163 11.9343 4.42403C11.946 4.41644 11.9612 4.40828 11.968 4.40591C11.9749 4.40354 11.9805 4.39876 11.9805 4.3953C11.9805 4.39184 11.9864 4.38901 11.9937 4.38901C12.0009 4.38901 12.0129 4.38099 12.0202 4.37119C12.0277 4.36118 12.0407 4.35338 12.05 4.35338C12.0689 4.35338 12.1083 4.33457 12.1083 4.32555C12.1083 4.31845 12.1375 4.30633 12.1704 4.29981C12.1831 4.29729 12.1935 4.29254 12.1935 4.28926C12.1935 4.28597 12.2087 4.27788 12.2272 4.27126C12.2697 4.25609 12.2801 4.25185 12.3297 4.22924C12.3519 4.21912 12.3769 4.21085 12.3853 4.21085C12.3936 4.21085 12.4048 4.20684 12.4103 4.20194C12.4362 4.17859 12.4428 4.17521 12.4626 4.17521C12.4742 4.17521 12.4857 4.17201 12.4881 4.16809C12.4905 4.16417 12.5033 4.16096 12.5164 4.16096C12.5296 4.16096 12.5452 4.15615 12.551 4.15027C12.5569 4.14439 12.5676 4.13958 12.575 4.13958C12.5823 4.13958 12.5913 4.13669 12.595 4.13315C12.5987 4.12961 12.6161 4.12512 12.6337 4.12317C12.6806 4.11797 12.7331 4.10376 12.7331 4.09625C12.7331 4.09265 12.7425 4.0897 12.7541 4.0897C12.7656 4.0897 12.7824 4.0869 12.7913 4.08349C12.8003 4.08008 12.826 4.07155 12.8485 4.06452C12.8709 4.05749 12.8893 4.04936 12.8893 4.04645C12.8893 4.04353 12.9054 4.03892 12.9252 4.03619C12.9476 4.0331 12.9663 4.02565 12.9749 4.01637C12.9896 4.00049 12.9933 3.97225 12.9816 3.96498C12.9777 3.96256 12.9745 3.95355 12.9744 3.94497C12.9744 3.93638 12.9665 3.91332 12.9569 3.89372C12.9473 3.87412 12.9393 3.84767 12.9392 3.83493C12.9391 3.82218 12.9365 3.81177 12.9334 3.81177C12.923 3.81177 12.9035 3.77044 12.9035 3.74831C12.9035 3.73618 12.9006 3.72625 12.8972 3.72625C12.8937 3.72625 12.889 3.71897 12.8868 3.71007C12.8846 3.70118 12.8762 3.68687 12.8683 3.6783C12.8595 3.66888 12.8538 3.65301 12.8538 3.63822C12.8538 3.62154 12.8476 3.60679 12.8343 3.59194C12.8235 3.57996 12.8005 3.55397 12.7831 3.53418C12.7656 3.51439 12.7473 3.4982 12.7422 3.4982C12.7372 3.4982 12.7331 3.49363 12.7331 3.48803C12.7331 3.47377 12.6987 3.44817 12.6807 3.44903C12.6724 3.44943 12.653 3.45272 12.6375 3.45636ZM8.73568 3.58923C8.73568 3.59226 8.7237 3.60062 8.70905 3.60783C8.69441 3.61504 8.67688 3.62378 8.6701 3.62727C8.66332 3.63075 8.64943 3.6336 8.63925 3.6336C8.61993 3.6336 8.57948 3.65394 8.57948 3.66365C8.57948 3.66672 8.57457 3.66924 8.56858 3.66924C8.55901 3.66924 8.52545 3.68718 8.51557 3.69759C8.51121 3.70218 8.48102 3.71639 8.46393 3.72188C8.45701 3.7241 8.44926 3.73161 8.4467 3.73856C8.44079 3.75465 8.43054 3.76163 8.41262 3.76179C8.40481 3.76186 8.38724 3.77154 8.37357 3.78331C8.3599 3.79508 8.34313 3.80651 8.33629 3.80872C8.32946 3.81092 8.32387 3.81571 8.32387 3.81937C8.32387 3.82303 8.32045 3.82602 8.31627 3.82602C8.31208 3.82602 8.30386 3.83083 8.298 3.83671C8.29215 3.84259 8.28098 3.8474 8.27318 3.8474C8.26539 3.8474 8.24847 3.85862 8.23558 3.87234C8.22268 3.88606 8.20819 3.89728 8.20335 3.89728C8.19852 3.89728 8.18828 3.9053 8.18059 3.9151C8.17292 3.9249 8.16208 3.93292 8.1565 3.93292C8.15092 3.93292 8.14636 3.93612 8.14636 3.94004C8.14636 3.94396 8.14171 3.94717 8.13603 3.94717C8.13035 3.94717 8.11772 3.95519 8.10796 3.96498C8.0982 3.97478 8.08701 3.9828 8.08311 3.9828C8.0792 3.9828 8.06867 3.99015 8.05971 3.99914C8.05075 4.00813 8.02917 4.0212 8.01175 4.02818C7.99434 4.03517 7.97579 4.04706 7.97053 4.0546C7.96526 4.06215 7.95632 4.06832 7.95066 4.06832C7.945 4.06832 7.93356 4.07618 7.92524 4.08578C7.91691 4.09539 7.9007 4.10533 7.8892 4.10786C7.8777 4.11039 7.8571 4.12338 7.84341 4.13672C7.82906 4.1507 7.81128 4.16096 7.80139 4.16096C7.79197 4.16096 7.78425 4.16417 7.78425 4.16809C7.78425 4.17201 7.77946 4.17521 7.7736 4.17521C7.76775 4.17521 7.76295 4.17821 7.76295 4.18186C7.76295 4.18552 7.756 4.19072 7.7475 4.19343C7.739 4.19614 7.72385 4.20597 7.71384 4.21529C7.70384 4.22461 7.69162 4.23223 7.6867 4.23223C7.68178 4.23223 7.67775 4.23543 7.67775 4.23935C7.67775 4.24327 7.67115 4.24648 7.66308 4.24648C7.6446 4.24648 7.62095 4.25891 7.62095 4.26862C7.62095 4.28318 7.60116 4.29542 7.57402 4.29765C7.55344 4.29935 7.54461 4.30402 7.53939 4.31596C7.53553 4.32478 7.52824 4.332 7.52317 4.332C7.5145 4.332 7.47962 4.35159 7.47185 4.36083C7.46989 4.36315 7.45425 4.3706 7.43708 4.37738C7.41992 4.38417 7.39972 4.39758 7.3922 4.40718C7.38291 4.41902 7.37126 4.42471 7.35595 4.42487C7.33339 4.4251 7.30859 4.43842 7.30848 4.45037C7.30841 4.45847 7.27426 4.47453 7.2571 4.47453C7.24989 4.47453 7.23601 4.48254 7.22624 4.49234C7.21648 4.50214 7.20065 4.51016 7.19107 4.51016C7.18148 4.51016 7.17364 4.51336 7.17364 4.51728C7.17364 4.5212 7.17022 4.52441 7.16603 4.52441C7.16184 4.52441 7.15397 4.52842 7.14852 4.53332C7.12249 4.55676 7.11588 4.56004 7.09488 4.56004C7.08053 4.56004 7.06684 4.56595 7.0573 4.57627C7.04904 4.58519 7.02631 4.59753 7.00678 4.60368C6.98437 4.61074 6.9687 4.62053 6.96427 4.63021C6.96031 4.6389 6.95072 4.64556 6.94219 4.64556C6.9339 4.64556 6.91509 4.65375 6.90039 4.66376C6.8857 4.67377 6.85893 4.68699 6.84092 4.69312C6.8229 4.69926 6.80314 4.7101 6.797 4.7172C6.79086 4.72431 6.77724 4.73229 6.76673 4.73493C6.75622 4.73758 6.74763 4.74202 6.74763 4.74478C6.74763 4.75093 6.70095 4.77384 6.68842 4.77384C6.68347 4.77384 6.66857 4.78506 6.65532 4.79878C6.64204 4.81254 6.62417 4.82372 6.61547 4.82372C6.6068 4.82372 6.59864 4.82612 6.59734 4.82907C6.59381 4.83702 6.54367 4.87361 6.5363 4.87361C6.53279 4.87361 6.52565 4.88162 6.52042 4.89142C6.51519 4.90122 6.50804 4.90924 6.50452 4.90924C6.49621 4.90924 6.47782 4.92771 6.47782 4.93606C6.47782 4.93961 6.46823 4.95109 6.45652 4.96156C6.44362 4.97309 6.43522 4.98762 6.43522 4.99838C6.43522 5.00814 6.43202 5.01614 6.42812 5.01614C6.42421 5.01614 6.42102 5.02095 6.42102 5.02683C6.42102 5.03271 6.41862 5.03754 6.41569 5.03756C6.40585 5.03764 6.38552 5.08123 6.38552 5.10223C6.38552 5.11367 6.38295 5.12303 6.37982 5.12303C6.37022 5.12303 6.34999 5.18882 6.34914 5.2228C6.34869 5.24044 6.34621 5.26449 6.34361 5.27625C6.33773 5.30284 6.35268 5.39592 6.36341 5.39951C6.36776 5.40096 6.37132 5.40669 6.37132 5.41225C6.37132 5.4178 6.37771 5.42876 6.38552 5.4366C6.39781 5.44894 6.40918 5.45085 6.47047 5.45085C6.53272 5.45085 6.54504 5.44871 6.57301 5.43303C6.5905 5.42323 6.61458 5.41522 6.62651 5.41522C6.63845 5.41522 6.64822 5.41201 6.64822 5.40809C6.64822 5.40417 6.65725 5.40096 6.66829 5.40096C6.68051 5.40096 6.69486 5.394 6.70502 5.38315C6.7142 5.37335 6.72663 5.36533 6.73265 5.36533C6.74952 5.36533 6.80443 5.34278 6.80443 5.33586C6.80443 5.33247 6.81242 5.3297 6.82218 5.3297C6.83194 5.3297 6.83993 5.32649 6.83993 5.32257C6.83993 5.31865 6.84715 5.31545 6.85598 5.31545C6.8648 5.31545 6.88064 5.30743 6.89117 5.29763C6.90169 5.28783 6.91773 5.27981 6.92679 5.27981C6.9409 5.27981 6.97016 5.26491 6.98193 5.25172C6.98739 5.24561 7.03828 5.2228 7.04645 5.2228C7.05044 5.2228 7.06544 5.21479 7.07981 5.20499C7.09418 5.19519 7.11201 5.18717 7.11943 5.18717C7.12685 5.18717 7.13858 5.18063 7.14549 5.17263C7.15239 5.16464 7.17438 5.15232 7.19436 5.14526C7.21433 5.1382 7.23781 5.12615 7.24653 5.11849C7.25525 5.11083 7.27198 5.10034 7.28369 5.09516C7.29541 5.08998 7.30978 5.08282 7.31564 5.07924C7.3215 5.07566 7.33189 5.07085 7.33872 5.06854C7.34555 5.06624 7.35114 5.06152 7.35114 5.05806C7.35114 5.0546 7.36087 5.05177 7.37276 5.05177C7.38566 5.05177 7.40168 5.04496 7.41255 5.03485C7.42254 5.02554 7.44306 5.01384 7.45814 5.00885C7.47322 5.00385 7.49256 4.99228 7.50113 4.98312C7.5097 4.97396 7.5274 4.96445 7.54045 4.962C7.55351 4.95954 7.57137 4.94993 7.58015 4.94063C7.58892 4.93134 7.6015 4.92368 7.60811 4.92361C7.61471 4.92355 7.62209 4.92029 7.6245 4.91637C7.62691 4.91245 7.63509 4.90924 7.64267 4.90924C7.65025 4.90924 7.65645 4.90638 7.65645 4.90288C7.65645 4.89939 7.6637 4.8947 7.67257 4.89247C7.68143 4.89024 7.69568 4.88187 7.70422 4.87388C7.71277 4.86589 7.7217 4.85935 7.72408 4.85935C7.72646 4.85935 7.73887 4.85134 7.75167 4.84154C7.76447 4.83174 7.78024 4.82372 7.7867 4.82372C7.79317 4.82372 7.79845 4.82058 7.79845 4.81673C7.79845 4.81289 7.80644 4.80773 7.81621 4.80527C7.82597 4.80281 7.83396 4.79794 7.83396 4.79445C7.83396 4.79095 7.84049 4.78809 7.84847 4.78809C7.85645 4.78809 7.87159 4.78007 7.88212 4.77027C7.89265 4.76047 7.90849 4.75246 7.91731 4.75246C7.92614 4.75246 7.93336 4.74925 7.93336 4.74533C7.93336 4.74141 7.93895 4.73815 7.94578 4.73809C7.95261 4.73803 7.96885 4.72856 7.98185 4.71705C7.99486 4.70555 8.01483 4.69199 8.02623 4.68692C8.03763 4.68186 8.04696 4.67529 8.04696 4.67233C8.04696 4.66936 8.05187 4.66694 8.05786 4.66694C8.07146 4.66694 8.10438 4.64622 8.1162 4.63022C8.12108 4.6236 8.1345 4.61611 8.146 4.61357C8.15751 4.61103 8.17881 4.59948 8.19333 4.5879C8.20785 4.57632 8.22718 4.56497 8.2363 4.56267C8.24541 4.56038 8.25287 4.55633 8.25287 4.55368C8.25287 4.54631 8.29258 4.52441 8.30595 4.52441C8.31829 4.52441 8.33803 4.50833 8.33813 4.49819C8.3382 4.49067 8.37268 4.47453 8.38867 4.47453C8.39542 4.47453 8.40723 4.46651 8.4149 4.45671C8.42258 4.44691 8.4324 4.43889 8.43672 4.43889C8.44104 4.43889 8.44457 4.43606 8.44457 4.4326C8.44457 4.42914 8.45017 4.42442 8.457 4.42212C8.47087 4.41744 8.49593 4.40217 8.50137 4.39507C8.50333 4.39253 8.51291 4.38932 8.52267 4.38795C8.53269 4.38654 8.54348 4.37846 8.54743 4.36941C8.55129 4.36059 8.55859 4.35338 8.56366 4.35338C8.57409 4.35338 8.60448 4.33488 8.62549 4.31574C8.63322 4.3087 8.6468 4.30111 8.65566 4.29888C8.66453 4.29665 8.67178 4.29247 8.67178 4.28959C8.67178 4.28671 8.68296 4.27831 8.69663 4.27092C8.7103 4.26353 8.72148 4.25502 8.72148 4.25199C8.72148 4.24896 8.72627 4.24648 8.73213 4.24648C8.73799 4.24648 8.74278 4.24362 8.74278 4.24012C8.74278 4.23663 8.75077 4.23176 8.76053 4.2293C8.77029 4.22684 8.77828 4.22168 8.77828 4.21784C8.77828 4.21399 8.78241 4.21085 8.78746 4.21085C8.7925 4.21085 8.80848 4.19962 8.82297 4.1859C8.83746 4.17219 8.85251 4.16096 8.8564 4.16096C8.8603 4.16096 8.86348 4.15782 8.86348 4.15397C8.86348 4.15013 8.87147 4.14497 8.88123 4.14251C8.891 4.14005 8.89899 4.13518 8.89899 4.13169C8.89899 4.12819 8.90498 4.12533 8.9123 4.12533C8.91963 4.12533 8.93961 4.11202 8.95668 4.09575C8.97376 4.07949 9.00479 4.05517 9.02562 4.0417C9.04646 4.02824 9.06882 4.01274 9.07532 4.00727C9.11152 3.97681 9.14702 3.94082 9.16099 3.92044C9.16972 3.9077 9.18028 3.89728 9.18447 3.89728C9.19653 3.89728 9.21094 3.87399 9.21094 3.85452C9.21094 3.83473 9.19647 3.81177 9.18399 3.81177C9.17954 3.81177 9.17589 3.80887 9.17589 3.80533C9.17589 3.79547 9.10355 3.71912 9.09421 3.71912C9.08969 3.71912 9.08193 3.71151 9.07697 3.70221C9.07163 3.69218 9.05596 3.68152 9.0385 3.67601C9.02229 3.6709 9.00228 3.65927 8.99401 3.65016C8.98575 3.64105 8.97083 3.6336 8.96086 3.6336C8.94198 3.6336 8.89911 3.61261 8.89903 3.60332C8.89901 3.60037 8.89279 3.59797 8.8852 3.59797C8.87762 3.59797 8.86945 3.59477 8.86703 3.59085C8.86194 3.58256 8.73568 3.58101 8.73568 3.58923ZM13.0703 4.43963C13.0296 4.46032 12.988 4.4743 12.9668 4.47442C12.9567 4.47448 12.9462 4.47681 12.9434 4.47961C12.9328 4.4902 12.8706 4.51014 12.848 4.51015C12.8303 4.51016 12.8186 4.51634 12.801 4.5351C12.7808 4.55657 12.773 4.56004 12.745 4.56004C12.722 4.56004 12.7048 4.56526 12.6863 4.57786C12.6719 4.58766 12.6563 4.59568 12.6515 4.59568C12.6412 4.59568 12.6012 4.61481 12.5769 4.63144C12.5671 4.63812 12.5439 4.64525 12.5252 4.64729C12.5038 4.64962 12.4868 4.65616 12.4791 4.66507C12.4723 4.67281 12.4588 4.68133 12.4491 4.68399C12.3911 4.69976 12.372 4.70705 12.3498 4.72178C12.3362 4.73081 12.3189 4.7382 12.3114 4.7382C12.3039 4.7382 12.2873 4.74622 12.2745 4.75602C12.2617 4.76582 12.2462 4.77384 12.24 4.77384C12.2294 4.77384 12.2011 4.78706 12.1935 4.79563C12.1813 4.80929 12.1522 4.82372 12.1368 4.82372C12.1269 4.82372 12.1102 4.83174 12.0996 4.84154C12.0891 4.85134 12.0772 4.85935 12.0731 4.85935C12.069 4.85935 12.0657 4.86176 12.0656 4.8647C12.0656 4.87187 12.0245 4.89499 12.0118 4.89499C12.0063 4.89499 12.0018 4.89819 12.0018 4.90211C12.0018 4.90603 11.9981 4.90924 11.9937 4.90924C11.9893 4.90924 11.9782 4.91726 11.9692 4.92706C11.9601 4.93685 11.9493 4.94487 11.9451 4.94487C11.9374 4.94487 11.902 4.96553 11.8953 4.97393C11.8933 4.97637 11.8775 4.9873 11.8602 4.99822C11.8428 5.00914 11.8188 5.02817 11.8069 5.0405C11.7808 5.06752 11.7506 5.0874 11.7358 5.0874C11.7298 5.0874 11.7249 5.09061 11.7249 5.09453C11.7249 5.09845 11.7215 5.10165 11.7174 5.10165C11.7133 5.10165 11.6984 5.11288 11.6844 5.1266C11.6703 5.14031 11.6563 5.15154 11.6533 5.15154C11.6503 5.15154 11.6436 5.15555 11.6384 5.16045C11.6187 5.17919 11.5764 5.20855 11.5691 5.20855C11.565 5.20855 11.5616 5.21176 11.5616 5.21568C11.5616 5.2196 11.5574 5.2228 11.5523 5.2228C11.5472 5.2228 11.5273 5.23831 11.5079 5.25727C11.4886 5.27622 11.4584 5.30075 11.4409 5.31178C11.4233 5.32281 11.407 5.3347 11.4048 5.33819C11.4025 5.34169 11.3915 5.34699 11.3804 5.34997C11.3694 5.35294 11.3569 5.36149 11.3526 5.36896C11.342 5.38784 11.3294 5.40096 11.3219 5.40096C11.3185 5.40096 11.3087 5.40898 11.3002 5.41878C11.2917 5.42858 11.2814 5.4366 11.2773 5.4366C11.2732 5.4366 11.266 5.43986 11.2613 5.44386C11.2292 5.47102 11.2151 5.48172 11.1944 5.49454C11.1815 5.50254 11.1568 5.52324 11.1396 5.54054C11.1224 5.55785 11.1054 5.572 11.1018 5.572C11.0982 5.572 11.0912 5.57977 11.0861 5.58927C11.0811 5.59877 11.0701 5.60832 11.0619 5.61048C11.0536 5.61264 11.0356 5.62412 11.0219 5.63599C11.0083 5.64787 10.9909 5.6596 10.9832 5.66206C10.9665 5.66744 10.9509 5.68218 10.9509 5.69264C10.9509 5.69684 10.9453 5.70038 10.9385 5.7005C10.9232 5.70078 10.9012 5.71683 10.9012 5.72778C10.9012 5.73225 10.8986 5.73591 10.8953 5.73591C10.892 5.73591 10.8748 5.75034 10.857 5.76798C10.8391 5.78561 10.8197 5.80005 10.8137 5.80005C10.8078 5.80005 10.7966 5.80806 10.7889 5.81786C10.7812 5.82766 10.7683 5.83568 10.7601 5.83568C10.7503 5.83568 10.7438 5.84159 10.7409 5.85324C10.7385 5.86289 10.7304 5.87276 10.7228 5.87517C10.7153 5.87757 10.6941 5.89372 10.6759 5.91105C10.6576 5.92839 10.6399 5.94257 10.6365 5.94257C10.6332 5.94257 10.6264 5.94659 10.6215 5.95148C10.6166 5.95639 10.6023 5.96841 10.5896 5.97821C10.577 5.98801 10.5532 6.00805 10.5369 6.02275C10.5206 6.03744 10.503 6.04947 10.4978 6.04947C10.4927 6.04947 10.4783 6.05994 10.4659 6.07273C10.4534 6.08553 10.4338 6.10076 10.4222 6.10658C10.4106 6.11241 10.396 6.12198 10.3897 6.12786C10.3834 6.13374 10.3625 6.15184 10.3433 6.16809C10.3241 6.18435 10.3005 6.20459 10.2908 6.21308C10.2811 6.22158 10.2612 6.23533 10.2464 6.24365C10.2317 6.25196 10.2196 6.26113 10.2196 6.26403C10.2196 6.26692 10.2085 6.27297 10.1949 6.27747C10.1801 6.28239 10.1666 6.29323 10.1611 6.30466C10.1561 6.31511 10.1459 6.32486 10.1383 6.32632C10.1308 6.32778 10.1186 6.33664 10.1112 6.346C10.1039 6.35537 10.0933 6.36304 10.0877 6.36304C10.0822 6.36304 10.0776 6.36624 10.0776 6.37016C10.0776 6.37408 10.0736 6.3773 10.0687 6.3773C10.0639 6.37731 10.0423 6.39323 10.0208 6.41269C9.99934 6.43215 9.97783 6.44818 9.97302 6.44831C9.96821 6.44845 9.95276 6.45978 9.93868 6.4735C9.92461 6.48721 9.91002 6.49844 9.90625 6.49844C9.8957 6.49844 9.815 6.55623 9.78932 6.58217C9.77671 6.59492 9.7643 6.60533 9.76174 6.60533C9.75919 6.60533 9.7523 6.61015 9.74644 6.61602C9.74059 6.6219 9.72921 6.62671 9.72117 6.62671C9.71311 6.62671 9.69599 6.63794 9.6831 6.65166C9.67021 6.66538 9.6577 6.6766 9.65533 6.6766C9.65294 6.6766 9.64238 6.68462 9.63185 6.69442C9.62132 6.70421 9.60149 6.71753 9.58778 6.72403C9.57407 6.73051 9.55768 6.74174 9.55137 6.74897C9.54505 6.7562 9.53612 6.76212 9.53152 6.76212C9.52692 6.76212 9.51594 6.76934 9.50711 6.77815C9.49828 6.78697 9.47904 6.8006 9.46435 6.80844C9.44966 6.81628 9.4316 6.82831 9.42421 6.83516C9.41683 6.84202 9.40826 6.84774 9.40517 6.84787C9.39595 6.84826 9.3676 6.87427 9.3676 6.88234C9.3676 6.88645 9.35402 6.8938 9.33742 6.89867C9.32083 6.90353 9.30565 6.9096 9.3037 6.91214C9.30174 6.91469 9.28737 6.92498 9.27175 6.93503C9.25612 6.94507 9.2347 6.96159 9.22413 6.97173C9.21356 6.98187 9.19861 6.99016 9.19092 6.99016C9.18322 6.99016 9.17064 6.99818 9.16296 7.00798C9.15528 7.01778 9.14467 7.0258 9.13937 7.0258C9.13407 7.02581 9.12046 7.03383 9.10911 7.04362C9.09776 7.05342 9.08419 7.06143 9.07893 7.06143C9.07369 7.06143 9.06939 7.06463 9.06939 7.06855C9.06939 7.07247 9.0639 7.07568 9.05719 7.07568C9.05048 7.07568 9.03822 7.08359 9.02995 7.09325C9.02168 7.10292 9.00076 7.11691 8.98347 7.12435C8.96618 7.13179 8.94769 7.14312 8.94239 7.14953C8.93708 7.15595 8.92857 7.1612 8.92347 7.1612C8.91838 7.1612 8.90998 7.16534 8.90481 7.1704C8.88611 7.18874 8.86004 7.20396 8.84732 7.20396C8.84017 7.20396 8.82442 7.21324 8.81233 7.22458C8.80024 7.23592 8.77971 7.24693 8.76671 7.24905C8.75372 7.25116 8.73488 7.26113 8.72485 7.27119C8.71483 7.28124 8.70199 7.28947 8.69631 7.28947C8.69063 7.28947 8.68598 7.29268 8.68598 7.2966C8.68598 7.30052 8.68144 7.30373 8.6759 7.30373C8.6663 7.30373 8.62247 7.32443 8.61498 7.3325C8.61302 7.33461 8.58267 7.35065 8.54753 7.36814C8.51238 7.38562 8.48256 7.40234 8.48126 7.40528C8.47995 7.40822 8.47469 7.41062 8.46956 7.41062C8.46442 7.41062 8.44632 7.41861 8.42932 7.42835C8.41232 7.4381 8.39283 7.44612 8.386 7.44617C8.37917 7.44622 8.37357 7.44946 8.37357 7.45338C8.37357 7.4573 8.36927 7.46051 8.36401 7.46051C8.35096 7.46051 8.30899 7.482 8.29313 7.49682C8.28598 7.50349 8.26602 7.51107 8.24876 7.51367C8.23149 7.51627 8.21737 7.52062 8.21737 7.52334C8.21737 7.52905 8.15187 7.56028 8.1399 7.56028C8.13549 7.56028 8.11393 7.5699 8.09198 7.58166C8.07002 7.59342 8.04133 7.60304 8.02821 7.60304C8.0151 7.60304 8.00434 7.60544 8.00432 7.60838C8.00424 7.61735 7.96167 7.63867 7.94385 7.63867C7.93464 7.63867 7.92512 7.64188 7.92271 7.6458C7.92029 7.64972 7.91078 7.65292 7.90156 7.65292C7.88452 7.65292 7.83945 7.67348 7.83514 7.68321C7.83384 7.68615 7.82034 7.68856 7.80516 7.68856C7.78997 7.68856 7.76068 7.69609 7.74007 7.70529C7.71947 7.71449 7.68982 7.72615 7.6742 7.73119C7.6301 7.74542 7.59255 7.76264 7.59255 7.76863C7.59255 7.77162 7.58419 7.77407 7.57398 7.77407C7.55492 7.77407 7.48605 7.80785 7.48605 7.8172C7.48605 7.82006 7.47806 7.82443 7.4683 7.82689C7.45361 7.83059 7.45055 7.83565 7.45055 7.85616C7.45055 7.86981 7.45374 7.88097 7.45765 7.88097C7.46155 7.88097 7.46475 7.8875 7.46475 7.89547C7.46475 7.91234 7.48221 7.94197 7.50534 7.96436C7.51426 7.97299 7.52155 7.98286 7.52155 7.98628C7.52155 7.99396 7.55224 8.0235 7.56021 8.0235C7.56341 8.0235 7.57616 8.03429 7.58855 8.04747C7.61441 8.07499 7.66543 8.10902 7.68084 8.10902C7.6866 8.10902 7.69929 8.11703 7.70906 8.12683C7.71882 8.13663 7.73158 8.14465 7.73741 8.14465C7.74324 8.14465 7.76227 8.15226 7.7797 8.16156C7.82599 8.18627 7.84775 8.18962 7.96176 8.18957C8.066 8.18952 8.13035 8.18213 8.14756 8.16822C8.15276 8.16403 8.1698 8.15852 8.18542 8.15597C8.20104 8.15344 8.225 8.14942 8.23867 8.14705C8.25233 8.14468 8.27055 8.13516 8.27915 8.12588C8.29063 8.11351 8.30245 8.10902 8.32353 8.10902C8.33934 8.10902 8.35227 8.10581 8.35227 8.10189C8.35227 8.09797 8.35672 8.09476 8.36216 8.09476C8.3676 8.09476 8.37389 8.08995 8.37614 8.08407C8.37838 8.07819 8.38671 8.07338 8.39465 8.07338C8.40258 8.07338 8.40907 8.07018 8.40907 8.06626C8.40907 8.06234 8.41423 8.05913 8.42055 8.05913C8.4375 8.05913 8.50137 8.03529 8.50137 8.02895C8.50137 8.02595 8.50776 8.0235 8.51557 8.0235C8.52338 8.0235 8.52977 8.02029 8.52977 8.01637C8.52977 8.01245 8.53727 8.00925 8.54642 8.00925C8.55558 8.00925 8.57235 8.00124 8.58369 7.99144C8.59505 7.98165 8.61129 7.97363 8.6198 7.97362C8.6283 7.97362 8.64006 7.9688 8.64591 7.96292C8.65177 7.95704 8.65999 7.95223 8.66417 7.95223C8.66836 7.95223 8.6718 7.94983 8.67182 7.94689C8.67189 7.93859 8.71387 7.9166 8.72963 7.9166C8.73738 7.9166 8.7542 7.90859 8.767 7.89879C8.7798 7.88899 8.7937 7.88097 8.79789 7.88097C8.80207 7.88097 8.80656 7.87857 8.80787 7.87563C8.81136 7.86773 8.862 7.84534 8.87636 7.84534C8.88318 7.84534 8.8993 7.83411 8.9122 7.82039C8.92509 7.80668 8.9426 7.79545 8.95111 7.79545C8.95962 7.79545 8.97462 7.78798 8.98443 7.77884C8.99425 7.7697 9.01715 7.75653 9.03532 7.74957C9.05349 7.7426 9.07485 7.73083 9.08278 7.72342C9.09071 7.716 9.10675 7.70994 9.11843 7.70994C9.13429 7.70994 9.14439 7.70373 9.15828 7.68545C9.16936 7.67087 9.18582 7.659 9.19898 7.65609C9.22197 7.65103 9.23993 7.64187 9.30093 7.60411C9.32089 7.59176 9.3429 7.58166 9.34983 7.58166C9.35678 7.58166 9.37201 7.57043 9.38368 7.55672C9.40031 7.53718 9.41019 7.53177 9.42933 7.53177C9.44773 7.53177 9.45933 7.52593 9.47635 7.50809C9.48878 7.49505 9.50374 7.48219 9.5096 7.4795C9.51546 7.47681 9.52984 7.46846 9.54155 7.46095C9.55327 7.45344 9.56888 7.44706 9.57626 7.44678C9.58363 7.44649 9.59921 7.43503 9.61089 7.42131C9.62414 7.40575 9.63847 7.39637 9.64903 7.39637C9.65833 7.39637 9.67151 7.38973 9.6783 7.38161C9.6851 7.37349 9.70024 7.36267 9.71196 7.35756C9.72367 7.35245 9.7425 7.34016 9.75378 7.33025C9.76508 7.32034 9.78336 7.31042 9.79443 7.3082C9.80831 7.30541 9.81593 7.29857 9.81904 7.28613C9.82229 7.27313 9.82829 7.2681 9.84053 7.2681C9.84987 7.2681 9.85751 7.26489 9.85751 7.26097C9.85751 7.25705 9.8623 7.25384 9.86816 7.25384C9.87402 7.25384 9.87881 7.25136 9.87881 7.24833C9.87881 7.2453 9.8908 7.23658 9.90544 7.22894C9.92009 7.2213 9.93969 7.20774 9.949 7.19881C9.95833 7.18988 9.97073 7.18258 9.97657 7.18258C9.98241 7.18258 9.99773 7.17135 10.0106 7.15764C10.0235 7.14392 10.0401 7.13269 10.0475 7.13269C10.0549 7.13269 10.0684 7.12468 10.0776 7.11488C10.0868 7.10508 10.0977 7.09706 10.1019 7.09705C10.1061 7.09705 10.1221 7.08583 10.1375 7.07211C10.1528 7.0584 10.1693 7.04717 10.174 7.04717C10.1788 7.04717 10.1918 7.03675 10.203 7.02401C10.2142 7.01127 10.2313 6.99715 10.241 6.99261C10.2583 6.98453 10.2721 6.97444 10.3105 6.94173C10.321 6.93274 10.3382 6.92356 10.3487 6.92134C10.3704 6.91676 10.3971 6.89431 10.3971 6.88074C10.3971 6.87573 10.4093 6.86475 10.4243 6.85631C10.4392 6.84789 10.4624 6.83131 10.4758 6.81948C10.4891 6.80765 10.5041 6.79793 10.509 6.79786C10.5138 6.7978 10.5178 6.79454 10.5178 6.79062C10.5178 6.7867 10.5227 6.7835 10.5287 6.7835C10.5347 6.7835 10.5513 6.77067 10.5657 6.75499C10.58 6.73931 10.5959 6.72648 10.601 6.72648C10.606 6.72648 10.6101 6.72332 10.6101 6.71945C10.6101 6.71557 10.6225 6.70456 10.6377 6.69495C10.6528 6.68535 10.6741 6.66927 10.6849 6.65923C10.6957 6.64918 10.7077 6.64097 10.7115 6.64097C10.7154 6.64097 10.726 6.63295 10.735 6.62315C10.7441 6.61335 10.7534 6.60533 10.7558 6.60533C10.7582 6.60533 10.772 6.59414 10.7863 6.58046C10.8007 6.56677 10.8165 6.55554 10.8214 6.55551C10.8262 6.55548 10.8302 6.55201 10.8302 6.54782C10.8302 6.53797 10.8432 6.52587 10.8667 6.51369C10.877 6.50836 10.8893 6.49688 10.8939 6.4882C10.8985 6.47951 10.9129 6.46856 10.9258 6.46388C10.9387 6.45919 10.9605 6.445 10.9741 6.43235C10.9877 6.4197 11.0121 6.39864 11.0282 6.38553C11.0443 6.37243 11.0574 6.35835 11.0574 6.35425C11.0574 6.34493 11.0792 6.32793 11.0915 6.32763C11.0966 6.3275 11.1081 6.31939 11.1172 6.30959C11.1262 6.29979 11.1371 6.29177 11.1414 6.29177C11.1456 6.29177 11.1571 6.28375 11.1669 6.27395C11.1766 6.26416 11.187 6.25614 11.1898 6.25614C11.1927 6.25614 11.2064 6.24402 11.2203 6.22921C11.2342 6.21439 11.2563 6.19469 11.2694 6.18542C11.2825 6.17615 11.3058 6.1562 11.3212 6.14109C11.3366 6.12597 11.3527 6.11361 11.357 6.11361C11.3613 6.11361 11.3757 6.10239 11.389 6.08867C11.4023 6.07495 11.4163 6.06372 11.4201 6.06372C11.4239 6.06372 11.4374 6.05407 11.4499 6.04227C11.4625 6.03047 11.4931 6.00171 11.518 5.97836C11.5428 5.95501 11.57 5.93377 11.5783 5.93115C11.5867 5.92854 11.6023 5.9172 11.6131 5.90598C11.6239 5.89475 11.636 5.88556 11.64 5.88556C11.6441 5.88556 11.6654 5.86793 11.6874 5.84637C11.7094 5.82481 11.73 5.80717 11.7332 5.80717C11.7363 5.80717 11.7478 5.79829 11.7585 5.78744C11.7693 5.77659 11.7877 5.76295 11.7994 5.75715C11.8111 5.75134 11.8287 5.73938 11.8384 5.73056C11.8481 5.72175 11.8596 5.71453 11.8638 5.71453C11.8681 5.71453 11.8758 5.70651 11.8811 5.69671C11.8863 5.68691 11.8965 5.6789 11.9037 5.6789C11.9109 5.6789 11.9273 5.66811 11.94 5.65492C11.9528 5.64173 11.9697 5.62887 11.9777 5.62633C11.9857 5.62379 11.9986 5.61573 12.0064 5.60841C12.0202 5.59549 12.0665 5.56327 12.0969 5.54538C12.1051 5.54054 12.1169 5.53653 12.1231 5.53647C12.1293 5.53642 12.138 5.52835 12.1425 5.51855C12.1469 5.50875 12.1548 5.50073 12.16 5.50073C12.1652 5.50073 12.176 5.49466 12.1839 5.48724C12.202 5.47036 12.2391 5.45085 12.2531 5.45085C12.2589 5.45085 12.268 5.44464 12.2733 5.43706C12.2786 5.42947 12.3001 5.41646 12.3211 5.40814C12.3422 5.39982 12.3648 5.38679 12.3713 5.37918C12.3779 5.37156 12.3899 5.36533 12.398 5.36533C12.4061 5.36533 12.4147 5.36213 12.4171 5.35821C12.4195 5.35429 12.4276 5.35108 12.4349 5.35108C12.4423 5.35108 12.4509 5.34674 12.4541 5.34143C12.462 5.32786 12.4877 5.31545 12.5077 5.31545C12.5171 5.31545 12.5322 5.30743 12.5414 5.29763C12.5518 5.28651 12.5659 5.27981 12.5788 5.27981C12.5969 5.27981 12.6376 5.26272 12.6479 5.25076C12.6529 5.24494 12.7229 5.2228 12.7362 5.2228C12.7423 5.2228 12.7473 5.2196 12.7473 5.21568C12.7473 5.21176 12.753 5.20855 12.7601 5.20855C12.7671 5.20855 12.7761 5.20526 12.7801 5.20123C12.7841 5.19721 12.8048 5.19215 12.8259 5.18998C12.8628 5.18621 12.8955 5.17535 12.9039 5.16407C12.9081 5.15842 12.9604 5.14566 13.0047 5.13949C13.0193 5.13746 13.0313 5.13292 13.0313 5.12941C13.0313 5.12591 13.0369 5.12293 13.0437 5.1228C13.0506 5.12268 13.0624 5.11787 13.0699 5.11212C13.0775 5.10636 13.0959 5.10165 13.1109 5.10165C13.1258 5.10165 13.1435 5.09887 13.1503 5.09548C13.1703 5.08548 13.2109 5.07179 13.2319 5.06796C13.2426 5.06601 13.2514 5.06156 13.2514 5.05809C13.2514 5.05461 13.2636 5.05177 13.2784 5.05177C13.3 5.05177 13.3103 5.04672 13.3295 5.02683C13.3428 5.01311 13.3574 5.00188 13.362 5.00188C13.3738 5.00188 13.3792 4.96751 13.3792 4.89142C13.3792 4.80829 13.3738 4.78006 13.3568 4.77562C13.3473 4.77313 13.3437 4.76553 13.3437 4.74821C13.3437 4.72273 13.3244 4.66694 13.3156 4.66694C13.3106 4.66694 13.2869 4.60123 13.2869 4.58722C13.2869 4.57802 13.2685 4.56004 13.259 4.56004C13.2548 4.56004 13.2514 4.55222 13.2514 4.54265C13.2514 4.53308 13.2482 4.52327 13.2443 4.52085C13.2404 4.51842 13.2372 4.51169 13.2372 4.50587C13.2372 4.49598 13.2326 4.48871 13.2106 4.4641C13.2057 4.45863 13.2017 4.45211 13.2017 4.44958C13.2017 4.42188 13.1178 4.41553 13.0703 4.43963ZM13.3557 5.40558C13.3451 5.41618 13.274 5.43615 13.2461 5.43636C13.2295 5.43649 13.2159 5.4398 13.2159 5.44372C13.2159 5.44764 13.2099 5.45085 13.2025 5.45085C13.1951 5.45085 13.18 5.45564 13.1688 5.4615C13.1576 5.46735 13.1415 5.47216 13.1329 5.47219C13.1243 5.47221 13.1154 5.47544 13.113 5.47936C13.1105 5.48327 13.0996 5.48648 13.0887 5.48648C13.0774 5.48648 13.0607 5.49413 13.0497 5.5043C13.0392 5.5141 13.0243 5.52211 13.0166 5.52211C13.009 5.52211 12.9972 5.52513 12.9904 5.52881C12.9836 5.53249 12.97 5.53718 12.9602 5.53922C12.9503 5.54127 12.9353 5.54948 12.9267 5.55747C12.9182 5.56546 12.9016 5.572 12.8899 5.572C12.8767 5.572 12.8619 5.57874 12.8509 5.58982C12.8411 5.59961 12.8306 5.60765 12.8275 5.60767C12.806 5.60782 12.7671 5.62537 12.7483 5.64333C12.7361 5.65505 12.7203 5.66464 12.7133 5.66464C12.694 5.66464 12.6622 5.68124 12.6621 5.69137C12.6621 5.69627 12.6543 5.70028 12.6448 5.70028C12.6352 5.70028 12.6255 5.70348 12.623 5.7074C12.6206 5.71132 12.6125 5.71453 12.6049 5.71453C12.5973 5.71453 12.5911 5.71722 12.5911 5.72051C12.5911 5.7238 12.5784 5.73262 12.563 5.74011C12.5475 5.7476 12.5314 5.76014 12.5272 5.76798C12.5198 5.78177 12.4896 5.80005 12.4742 5.80005C12.4701 5.80005 12.4581 5.80806 12.4475 5.81786C12.437 5.82766 12.4265 5.83568 12.4242 5.83568C12.4219 5.83568 12.4114 5.8437 12.4009 5.85349C12.3904 5.86329 12.3777 5.87131 12.3728 5.87131C12.3679 5.87131 12.3639 5.87452 12.3639 5.87844C12.3639 5.88236 12.3579 5.88556 12.3507 5.88556C12.3434 5.88556 12.3315 5.89358 12.3241 5.90338C12.3168 5.91318 12.3069 5.9212 12.3022 5.9212C12.2974 5.9212 12.2855 5.92921 12.2758 5.93901C12.266 5.94881 12.2549 5.95683 12.2512 5.95683C12.2474 5.95683 12.2433 5.95929 12.242 5.9623C12.2391 5.96891 12.1695 6.01384 12.1622 6.01384C12.1551 6.01384 12.1367 6.03281 12.1367 6.04014C12.1367 6.04341 12.1281 6.05246 12.1176 6.06025C12.1071 6.06804 12.0888 6.08344 12.0768 6.09446C12.0648 6.10549 12.0462 6.11981 12.0355 6.12629C12.0248 6.13277 12.016 6.14058 12.016 6.14365C12.016 6.14673 12.0101 6.14924 12.0028 6.14924C11.9956 6.14924 11.9703 6.16848 11.9467 6.192C11.923 6.21552 11.9005 6.23476 11.8967 6.23476C11.8928 6.23476 11.8794 6.24438 11.8669 6.25614C11.8543 6.2679 11.8404 6.27753 11.8359 6.27753C11.8247 6.27754 11.7888 6.30942 11.7888 6.31932C11.7888 6.32377 11.7813 6.3274 11.7722 6.3274C11.7618 6.3274 11.7521 6.33404 11.7462 6.34522C11.7409 6.35502 11.7326 6.36304 11.7277 6.36304C11.7228 6.36304 11.7129 6.37055 11.7057 6.37972C11.6985 6.3889 11.685 6.40051 11.6757 6.40552C11.6663 6.41053 11.6517 6.42227 11.643 6.4316C11.6344 6.44092 11.6238 6.44855 11.6193 6.44855C11.6149 6.44855 11.6113 6.45136 11.6113 6.45479C11.6113 6.45822 11.6019 6.4629 11.5905 6.46519C11.5784 6.46761 11.5679 6.47526 11.5653 6.48353C11.5629 6.49133 11.5554 6.49945 11.5488 6.50158C11.5421 6.50371 11.5181 6.52296 11.4954 6.54437C11.4727 6.56577 11.4472 6.58547 11.4386 6.58815C11.4235 6.59288 11.3971 6.61311 11.3505 6.65569C11.3379 6.66719 11.3249 6.6766 11.3215 6.6766C11.3181 6.6766 11.299 6.69263 11.2789 6.71223C11.2589 6.73183 11.2392 6.74786 11.2352 6.74786C11.2311 6.74786 11.2278 6.75107 11.2278 6.75499C11.2278 6.75891 11.2229 6.76212 11.2168 6.76212C11.2108 6.76212 11.1828 6.7843 11.1547 6.81142C11.0883 6.87543 11.0552 6.90439 11.0483 6.90453C11.0452 6.9046 11.0304 6.91668 11.0155 6.93137C10.977 6.96915 10.9518 6.99016 10.9449 6.99016C10.9171 6.99016 10.905 7.06201 10.9286 7.0868C10.9463 7.10529 10.9786 7.13269 10.9828 7.13269C10.9847 7.13269 10.9977 7.14392 11.0118 7.15764C11.0258 7.17135 11.0432 7.18258 11.0504 7.18258C11.0653 7.18258 11.107 7.20486 11.1071 7.21286C11.1071 7.21581 11.1137 7.21821 11.1218 7.21821C11.1392 7.21821 11.2086 7.23995 11.2136 7.24699C11.2271 7.26576 11.4501 7.26553 11.4622 7.24674C11.4671 7.239 11.5182 7.21821 11.5323 7.21821C11.5387 7.21821 11.5526 7.21019 11.5631 7.20039C11.5736 7.19059 11.5864 7.18247 11.5914 7.18234C11.6034 7.18203 11.6285 7.16076 11.6341 7.14618C11.6365 7.13988 11.6479 7.13281 11.6595 7.13048C11.6711 7.12815 11.6913 7.11647 11.7043 7.10453C11.7174 7.09258 11.7317 7.08281 11.7362 7.08281C11.7407 7.08281 11.7488 7.07756 11.7541 7.07115C11.7594 7.06473 11.7765 7.0514 11.7922 7.04151C11.8079 7.03162 11.8249 7.01762 11.83 7.01041C11.8351 7.00319 11.8439 6.99729 11.8496 6.99729C11.8552 6.99729 11.867 6.98907 11.8757 6.97901C11.8844 6.96896 11.9028 6.9539 11.9165 6.94553C11.9302 6.93716 11.9466 6.92454 11.9529 6.91748C11.9592 6.91043 11.968 6.90465 11.9724 6.90465C11.9768 6.90465 11.9805 6.90188 11.9805 6.8985C11.9805 6.89512 11.996 6.88497 12.0149 6.87593C12.0339 6.8669 12.0555 6.85043 12.0629 6.83934C12.0703 6.82824 12.0784 6.81916 12.081 6.81915C12.0836 6.81914 12.0968 6.80871 12.1102 6.79597C12.1485 6.75967 12.1641 6.74807 12.1921 6.73504C12.2064 6.72838 12.2356 6.7061 12.2569 6.68555C12.2782 6.665 12.3021 6.64613 12.31 6.64361C12.3178 6.6411 12.3302 6.63146 12.3375 6.62219C12.3448 6.61292 12.3571 6.60533 12.3649 6.60533C12.3727 6.60533 12.3908 6.59414 12.4052 6.58046C12.4196 6.56677 12.4348 6.55554 12.439 6.55551C12.4432 6.55548 12.451 6.54743 12.4562 6.53763C12.4614 6.52783 12.4694 6.51982 12.4739 6.51982C12.4783 6.51982 12.4946 6.5094 12.5099 6.49666C12.5253 6.48391 12.5498 6.46738 12.5645 6.45991C12.5791 6.45242 12.5911 6.44433 12.5911 6.44193C12.5911 6.43952 12.6023 6.4315 12.6159 6.42411C12.6296 6.41672 12.6408 6.40868 12.6408 6.40624C12.6408 6.4038 12.6566 6.39566 12.6758 6.38816C12.6951 6.38065 12.7147 6.36733 12.7194 6.35855C12.7241 6.34977 12.7378 6.33859 12.75 6.33369C12.7622 6.32879 12.7798 6.31735 12.7891 6.30828C12.7984 6.2992 12.8108 6.29177 12.8167 6.29177C12.8225 6.29177 12.8347 6.28375 12.8438 6.27395C12.8528 6.26416 12.865 6.25614 12.871 6.25614C12.8819 6.25614 12.9468 6.22238 12.9532 6.21333C12.9551 6.21056 12.9689 6.20606 12.9838 6.20332C12.9986 6.20057 13.0172 6.19186 13.0251 6.18395C13.033 6.17604 13.0563 6.16516 13.077 6.15975C13.0976 6.15436 13.1253 6.14361 13.1386 6.13587C13.1518 6.12812 13.1754 6.11952 13.1911 6.11676C13.2185 6.11191 13.244 6.10182 13.2514 6.09294C13.2584 6.08453 13.3089 6.06372 13.3224 6.06372C13.3426 6.06372 13.3965 6.03156 13.424 6.00307C13.4373 5.9894 13.4535 5.97821 13.4601 5.97821C13.4668 5.97821 13.4792 5.97075 13.4878 5.96162C13.4964 5.95251 13.5138 5.93899 13.5265 5.93159C13.5392 5.92418 13.5496 5.91394 13.5496 5.90883C13.5496 5.89868 13.5816 5.84532 13.5969 5.82998C13.6021 5.82472 13.6064 5.81002 13.6064 5.79732C13.6064 5.78322 13.6126 5.76753 13.6224 5.75702C13.6379 5.74033 13.6384 5.73543 13.6384 5.59222V5.44463L13.614 5.42279L13.5897 5.40096H13.475C13.4119 5.40096 13.3582 5.40304 13.3557 5.40558Z" fill="url(#paint0_linear_3841_52039)"/>
<defs>
<linearGradient id="paint0_linear_3841_52039" x1="13.0184" y1="3.5401" x2="7.1768" y2="7.09277" gradientUnits="userSpaceOnUse">
<stop stop-color="#61E0D9"/>
<stop offset="0.532344" stop-color="#831BE3"/>
<stop offset="0.933" stop-color="#4076C0"/>
</linearGradient>
</defs>
</svg>
