<svg width="25" height="32" viewBox="0 0 25 32" fill="none" xmlns="http://www.w3.org/2000/svg">
    <path d="M23.7723 7.03913V6.1825L22.9258 6.05098C20.9958 5.75113 18.5508 4.70899 16.5218 3.6907C15.5221 3.18897 14.6497 2.70661 14.0274 2.34979C13.7166 2.17154 13.4689 2.02505 13.2999 1.92367C13.2154 1.87299 13.1506 1.83362 13.1074 1.80723L13.0591 1.7776L13.0476 1.77049L13.045 1.76893L13.0447 1.76872L13.0446 1.76866L13.0446 1.76865L12.5377 1.45361L12.0199 1.75024L12.0198 1.75026L12.0198 1.75029L12.0194 1.75053L12.0168 1.75197L12.0056 1.75837L11.9589 1.78485C11.9171 1.80842 11.8546 1.84357 11.7729 1.88896C11.6096 1.97974 11.37 2.1114 11.0681 2.27314C10.464 2.59681 9.61233 3.03992 8.62405 3.51657C6.63227 4.47721 4.14411 5.54536 2.02207 6.06816L1.26129 6.25559V7.03913V11.8803V13.6368C1.26129 20.7672 5.54976 27.1978 12.1325 29.9384L12.5168 30.0984L12.9012 29.9384C19.4839 27.1978 23.7723 20.7672 23.7723 13.6368V11.8803V7.03913Z"
          stroke="#2B2B36" stroke-width="2" stroke-linecap="round"/>
    <path opacity="0.2"
          d="M12.5203 29.3728L12.5203 2.58438L17.3291 5.0876L23.2386 6.87431V8.69843L22.6774 18.4645L18.769 25.4616L12.5203 29.3728Z"
          fill="#2B2B36"/>
</svg>
