<svg width="32" height="32" viewBox="0 0 32 32" fill="none" xmlns="http://www.w3.org/2000/svg">
<g clip-path="url(#clip0)">
<ellipse cx="17.4545" cy="17.4547" rx="11.6364" ry="11.6364" fill="white"/>
<path d="M2.24387 7.77094C2.75483 7.05675 3.22966 6.31809 3.80536 5.64907C4.85244 4.43225 6.03817 3.38943 7.39593 2.52625C8.61393 1.75196 9.8984 1.14166 11.2729 0.714912C13.413 0.0503452 15.5977 -0.147273 17.823 0.106931C19.4495 0.292741 21.0167 0.70841 22.5092 1.3816C23.4127 1.78904 24.2625 2.29248 25.0955 2.83618C26.774 3.93174 28.1186 5.35792 29.2427 6.98736C30.4433 8.72779 31.2235 10.6638 31.6514 12.7405C31.952 14.1987 32.0788 15.6706 31.9498 17.1521C31.7908 18.9788 31.3856 20.7401 30.6285 22.4329C29.9882 23.8646 29.1978 25.1793 28.1857 26.3667C27.1956 27.5284 26.0791 28.5446 24.796 29.3825C23.9223 29.953 23.0116 30.4622 22.0501 30.8402C20.4414 31.4729 18.7732 31.9007 17.0276 31.9756C15.7986 32.0283 14.5766 32.0076 13.3642 31.7923C12.3229 31.6074 11.3065 31.3374 10.3115 30.9634C9.34623 30.6005 8.41002 30.1706 7.54743 29.6271C6.30378 28.8436 5.18267 27.8926 4.18503 26.797C3.07346 25.5762 2.17217 24.2226 1.48255 22.7276C0.508362 20.6157 0.0292874 18.3891 0.000790776 16.0657C-0.00994517 15.1918 0.0901907 14.3247 0.206563 13.4598C0.214913 13.3979 0.20643 13.3338 0.205768 13.2706C0.30756 13.2075 0.298548 13.097 0.316905 13.0006C0.57576 11.6418 1.01236 10.3432 1.60376 9.09291C1.81331 8.65017 2.10245 8.24618 2.24387 7.77094ZM20.9143 16.353C21.3475 16.1225 21.7592 15.9905 22.0845 15.6996C23.3382 14.5785 23.6724 11.94 21.6374 10.669C21.0034 10.273 20.3272 9.97957 19.5982 9.68012C19.7187 8.70291 20.1091 7.78845 20.2359 6.78762C19.6344 6.63843 19.0709 6.44041 18.4846 6.37679C18.2449 7.31726 18.0151 8.21891 17.7773 9.15214C17.3279 9.01443 16.8653 9.0275 16.4424 8.78908C16.595 7.83449 16.9576 6.94013 17.0566 5.98209C16.4388 5.88497 15.9157 5.64417 15.316 5.61823C15.0799 6.56081 14.8514 7.47288 14.6145 8.41865C13.4253 8.23623 12.3335 7.82686 11.1339 7.60675C10.8703 8.19782 10.7536 8.82145 10.6479 9.48496C11.0386 9.5773 11.3783 9.65896 11.7187 9.73777C12.5779 9.93665 12.8133 10.4068 12.6093 11.159C12.4642 11.694 12.3332 12.2329 12.1996 12.771C11.7195 14.7054 11.2432 16.6407 10.7602 18.5744C10.6514 19.01 10.3802 19.1519 9.93856 19.0872C9.50363 19.0235 9.09314 18.828 8.6138 18.8422C8.40598 19.5077 7.99231 20.0941 7.84585 20.8288C8.9881 21.12 10.0932 21.4018 11.2485 21.6964C11.1615 22.7053 10.7439 23.6285 10.6205 24.6445C11.1996 24.7835 11.7448 24.9143 12.3133 25.0507C12.688 24.1191 12.7744 23.14 13.1236 22.1763C13.5444 22.3929 14.0114 22.33 14.4233 22.6027C14.1988 23.5316 13.9751 24.4569 13.7488 25.394C14.3443 25.6073 14.9253 25.6943 15.5221 25.8431C15.7636 24.8743 15.9971 23.9373 16.2231 23.0313C16.3638 22.9589 16.4667 22.9724 16.5639 22.9932C17.4992 23.1936 18.4453 23.2404 19.3921 23.1352C20.2117 23.0441 20.9391 22.7313 21.5226 22.1154C22.1714 21.4306 22.4974 20.5929 22.6544 19.6918C22.7823 18.9578 22.7495 18.214 22.319 17.5643C21.9816 17.0552 21.5182 16.6668 20.9143 16.353ZM14.1527 20.1778C15.3065 20.4647 16.4591 20.7715 17.6664 20.5509C18.3102 20.4332 18.7955 20.1044 18.9908 19.4561C19.1751 18.8446 19.068 18.289 18.6149 17.8057C18.1437 17.3031 17.5377 17.0419 16.9129 16.8234C16.1664 16.5625 15.4097 16.3254 14.5941 16.2609C14.2815 17.5325 13.9782 18.7667 13.6681 20.0281C13.8657 20.0897 14.0072 20.1416 14.1527 20.1778ZM18.2284 14.8493C18.8664 14.7586 19.3955 14.336 19.551 13.7619C19.7411 13.0598 19.5287 12.4441 18.9611 12.0253C18.317 11.5501 17.5755 11.3084 16.8092 11.1405C16.5238 11.078 16.243 10.9114 15.8976 11.0238C15.623 12.1408 15.3474 13.2625 15.0627 14.4209C16.1533 14.6965 17.1576 15.0016 18.2284 14.8493Z" fill="#F39321"/>
</g>
<defs>
<clipPath id="clip0">
<rect width="32" height="32" fill="white"/>
</clipPath>
</defs>
</svg>
