<svg width="32" height="32" viewBox="0 0 32 32" fill="none" xmlns="http://www.w3.org/2000/svg">
<circle cx="16" cy="16" r="16" fill="white"/>
<path fill-rule="evenodd" clip-rule="evenodd" d="M6.53816 23.5254C5.86732 23.1153 5.45703 22.3846 5.45703 21.6V17.2187C5.45703 17.0509 5.50197 16.8891 5.58581 16.7454C5.84635 16.2963 6.42434 16.1436 6.87355 16.4071L16.7622 22.1719C17.3402 22.5103 17.6968 23.1272 17.6968 23.798V28.3381C17.6968 28.5446 17.6398 28.7512 17.5319 28.928C17.2055 29.4609 16.5108 29.6288 15.9776 29.3024L6.53816 23.5254ZM21.2784 15.2062C21.8564 15.5446 22.2128 16.1616 22.2128 16.8324V26.0442C22.2128 26.3167 22.0659 26.5681 21.8294 26.6999L19.6643 27.9187C19.6373 27.9338 19.6073 27.9457 19.5774 27.9547V22.8398C19.5774 22.178 19.23 21.564 18.661 21.2225L9.97613 16.0267V10.253C9.97613 10.0853 10.0211 9.92356 10.1049 9.77981C10.3655 9.3306 10.9434 9.17788 11.3927 9.44139L21.2784 15.2062ZM25.6059 8.40223C26.1868 8.73765 26.5432 9.36055 26.5432 10.0314V23.4867C26.5432 23.7622 26.3905 24.0167 26.1479 24.1485L24.0965 25.2565V15.8891C24.0965 15.2272 23.749 14.6163 23.1831 14.2749L14.3066 8.95026V3.47292C14.3066 3.30523 14.3515 3.1435 14.4323 2.99977C14.6929 2.55055 15.2709 2.39784 15.7201 2.65836L25.6059 8.40223Z" fill="black"/>
</svg>
