<svg width="32" height="32" viewBox="0 0 32 32" fill="none" xmlns="http://www.w3.org/2000/svg">
<g clip-path="url(#clip0)">
<path d="M16 32.1001C24.8366 32.1001 32 24.9366 32 16.1001C32 7.26354 24.8366 0.100098 16 0.100098C7.16344 0.100098 0 7.26354 0 16.1001C0 24.9366 7.16344 32.1001 16 32.1001Z" fill="#286BCB"/>
<path d="M7.79653 12.1985H18.1342C18.1342 12.1985 21.7023 12.1651 19.2346 16.767C19.2346 16.767 17.4339 20.3685 12.9653 20.3019L15.373 14.1526C15.4021 14.0797 15.4131 14.0009 15.4051 13.9228C15.3971 13.8447 15.3703 13.7697 15.3271 13.7042C15.2838 13.6387 15.2254 13.5846 15.1568 13.5466C15.0881 13.5085 15.0113 13.4876 14.9328 13.4857L11.7648 13.4323L7.76318 23.1697C7.76318 23.1697 9.09707 23.3031 9.83071 23.2364L9.43054 24.2368H11.318C11.3703 24.2372 11.4215 24.2214 11.4645 24.1916C11.5075 24.1617 11.5402 24.1193 11.5581 24.0701L11.8982 23.1697L12.6986 23.103L12.2317 24.2368H14.0725C14.1402 24.2373 14.2065 24.2171 14.2625 24.179C14.3185 24.1409 14.3615 24.0866 14.3859 24.0234L14.8995 22.7029C14.8995 22.7029 20.5018 21.7691 23.0362 17.2339C23.0362 17.2339 26.4376 11.965 22.4359 10.0976C21.656 9.73999 20.8221 9.5146 19.9683 9.43066L20.4351 8.27684C20.4493 8.24261 20.4548 8.20542 20.4513 8.16854C20.4478 8.13166 20.4353 8.0962 20.4149 8.06527C20.3945 8.03434 20.3668 8.00888 20.3343 7.99112C20.3018 7.97336 20.2654 7.96383 20.2284 7.96338H18.501L17.9674 9.36396H17.2338L17.6473 8.27684C17.66 8.24204 17.6643 8.2047 17.6597 8.16793C17.6551 8.13115 17.6418 8.096 17.621 8.06536C17.6001 8.03473 17.5723 8.00951 17.5397 7.99177C17.5072 7.97404 17.4709 7.9643 17.4339 7.96338H15.6998L15.1663 9.36396H9.77735C9.63252 9.36348 9.49028 9.4023 9.36578 9.4763C9.24128 9.5503 9.13919 9.65669 9.07039 9.78414L7.79653 12.1985Z" fill="white"/>
</g>
<defs>
<clipPath id="clip0">
<rect width="32" height="32" fill="white"/>
</clipPath>
</defs>
</svg>
