<svg width="32" height="32" viewBox="0 0 32 32" fill="none" xmlns="http://www.w3.org/2000/svg">
<path d="M16 32C24.8366 32 32 24.8366 32 16C32 7.16344 24.8366 0 16 0C7.16344 0 0 7.16344 0 16C0 24.8366 7.16344 32 16 32Z" fill="#7866D5"/>
<path d="M17.35 24.7889C15.7358 24.7889 14.1216 24.7754 12.5186 24.746C11.5004 24.7212 10.48 24.6038 9.48661 24.3938C7.03706 23.8858 5.75922 22.5696 5.34607 20.1223C5.28286 19.7453 5.23996 19.3615 5.19932 18.9935C5.18126 18.8287 5.1632 18.6661 5.14288 18.5013L5.14062 18.4517L5.14288 14.2118L5.18352 13.8144C5.21287 13.5322 5.24222 13.2523 5.27383 12.9746C5.59667 10.209 6.89708 8.76859 9.61981 8.16353C10.3332 8.0055 11.0534 7.94003 11.751 7.87681C11.9768 7.85649 12.2026 7.83617 12.4283 7.81134L12.4712 7.80908H22.5133L22.5381 7.81134C22.7052 7.83166 22.8745 7.84972 23.0438 7.86552C23.4231 7.9039 23.8159 7.94454 24.2065 8.0213C25.4956 8.2719 25.9923 8.99887 25.7711 10.3083C25.7034 10.8818 25.2405 11.3491 24.649 11.4258C24.3849 11.4687 24.1004 11.4891 23.8205 11.4823C20.3166 11.4936 16.8037 11.5026 13.2908 11.5094C12.7896 11.5139 12.2816 11.559 11.7849 11.6448C10.2226 11.9022 9.70786 12.4599 9.58369 14.0357C9.5724 14.1757 9.56111 14.3156 9.55886 14.4127C9.65594 14.4195 9.79817 14.4195 9.93814 14.4195H24.342C24.6377 14.4195 24.9267 14.4985 25.1818 14.6498C25.9539 15.1442 25.8885 15.8915 25.8411 16.4378C25.8343 16.5123 25.8275 16.5846 25.823 16.6591C25.7846 17.3003 25.3828 17.7292 24.6919 17.8624C24.4504 17.9008 24.2156 17.9166 23.983 17.9121H9.6311C9.60401 17.9121 9.57466 17.9121 9.54757 17.9121C9.54983 17.9324 9.54983 17.955 9.55208 17.9753L9.55434 18.0024C9.5724 18.472 9.6311 18.928 9.72592 19.3705C9.90428 20.0794 10.3265 20.5084 11.0512 20.7116C12.0197 20.9825 13.0153 21.0254 13.8619 21.0299C16.5305 21.048 19.2465 21.0457 21.8721 21.0435H24.1365C24.4707 21.0435 25.166 21.0435 25.5769 21.6891C25.8411 22.1136 25.9223 22.6103 25.8095 23.0911C25.6966 23.572 25.4031 23.9807 24.9832 24.2403C24.8658 24.3125 24.7393 24.3735 24.6061 24.4187C23.7708 24.6873 22.9174 24.737 22.1904 24.7505C20.5785 24.7754 18.9642 24.7889 17.35 24.7889Z" fill="white"/>
</svg>
