<svg width="32" height="32" viewBox="0 0 32 32" fill="none" xmlns="http://www.w3.org/2000/svg">
<path d="M16 32C24.8366 32 32 24.8366 32 16C32 7.16344 24.8366 0 16 0C7.16344 0 0 7.16344 0 16C0 24.8366 7.16344 32 16 32Z" fill="#1A69FF"/>
<path fill-rule="evenodd" clip-rule="evenodd" d="M17.2046 3.88064C16.8508 3.69368 16.434 3.61963 16.0565 3.61963C15.679 3.61963 15.2622 3.69368 14.9084 3.88064L8.92343 7.0426C8.63337 7.19584 8.31269 7.4746 8.22652 7.88754C8.18387 7.97937 8.16006 8.08172 8.16006 8.18963V23.8045C8.16006 23.8587 8.16605 23.9114 8.17741 23.9621C8.14575 24.2441 8.28413 24.5302 8.549 24.6737L14.9014 28.1157L14.908 28.1193C15.2619 28.3062 15.6787 28.3803 16.0562 28.3803C16.4337 28.3803 16.8505 28.3064 17.2044 28.1194L23.5721 24.5688C23.8079 24.4373 23.9408 24.1925 23.9405 23.9404C23.949 23.8964 23.9534 23.851 23.9534 23.8045V8.18963C23.9534 8.08104 23.9293 7.97809 23.8861 7.88582C23.7994 7.47383 23.4792 7.19563 23.1896 7.0426L17.2046 3.88064ZM15.5791 5.15024C15.6741 5.10005 15.8457 5.05552 16.0565 5.05552C16.2673 5.05552 16.4389 5.10005 16.5339 5.15024L22.13 8.1068L16.5339 11.0634C16.4389 11.1136 16.2673 11.1581 16.0565 11.1581C15.8457 11.1581 15.6741 11.1136 15.5791 11.0634L9.98296 8.1068L15.5791 5.15024ZM22.5175 17.2419V23.5128L16.5281 26.8525C16.432 26.9015 16.263 26.9444 16.0562 26.9444C15.8472 26.9444 15.6768 26.9006 15.5813 26.851L9.59596 23.6078V17.2421L14.9084 20.0488C15.2622 20.2357 15.679 20.3098 16.0565 20.3098C16.434 20.3098 16.8508 20.2357 17.2046 20.0488L22.5175 17.2419ZM17.9017 11.9647L22.5175 9.52608V14.4033L17.9017 11.9647ZM9.59596 14.4031L14.2113 11.9647L9.59596 9.52631V14.4031ZM15.3386 12.9931L9.98296 15.8226L15.3386 18.6521V12.9931ZM16.7745 18.6521L22.13 15.8226L16.7745 12.9932V18.6521Z" fill="white"/>
<path d="M24.2734 4.75644C23.9342 4.55108 23.4928 4.65956 23.2874 4.99875C23.082 5.33793 23.1905 5.77938 23.5297 5.98474L23.6157 6.03677C24.1985 6.38937 24.467 6.55183 24.6463 6.78442C24.7963 6.97914 24.9315 7.30104 24.9315 8.11991C24.9315 8.51642 25.2529 8.83786 25.6494 8.83786C26.046 8.83786 26.3674 8.51642 26.3674 8.11991C26.3674 7.16503 26.2145 6.46702 25.7836 5.90789C25.4304 5.44964 24.9199 5.14395 24.4363 4.85434L24.4344 4.85323C24.3807 4.82106 24.3262 4.78841 24.2734 4.75644Z" fill="white"/>
<path d="M8.7128 26.735C8.50743 27.0742 8.06599 27.1827 7.7268 26.9773C7.67325 26.9449 7.61909 26.9125 7.56458 26.8799C7.08095 26.5902 6.56978 26.2841 6.21661 25.8259C5.78569 25.2668 5.63281 24.5688 5.63281 23.6139C5.63281 23.2174 5.95425 22.8959 6.35076 22.8959C6.74727 22.8959 7.06871 23.2174 7.06871 23.6139C7.06871 24.4328 7.20386 24.7547 7.35393 24.9494C7.53319 25.182 7.8017 25.3444 8.38451 25.697L8.4705 25.7491C8.80968 25.9544 8.91816 26.3959 8.7128 26.735Z" fill="white"/>
</svg>
