<svg width="32" height="32" viewBox="0 0 32 32" fill="none" xmlns="http://www.w3.org/2000/svg">
<path d="M15.9872 31.9104C24.7672 31.9104 31.8848 24.7928 31.8848 16.0128C31.8848 7.23283 24.7672 0.115234 15.9872 0.115234C7.2072 0.115234 0.0895996 7.23283 0.0895996 16.0128C0.0895996 24.7928 7.2072 31.9104 15.9872 31.9104Z" fill="#335E9F"/>
<path d="M8.9214 25.7664L11.2894 18.0736L8.71021 18.8608L9.39501 16.9664L11.763 16.2304L15.0718 5.34401C15.1422 5.11361 15.3598 4.95361 15.603 4.95361H18.9822C19.3534 4.95361 19.6158 5.31201 19.5134 5.66401L16.8254 14.6496L19.251 13.9648L18.8094 15.7952L16.307 16.5504L14.5598 22.1312H23.4558C23.7246 22.1312 23.9166 22.3872 23.8462 22.6432L23.0718 25.472C23.0206 25.6448 22.867 25.7664 22.6814 25.7664H8.9214Z" fill="white"/>
</svg>
