<svg width="32" height="32" viewBox="0 0 32 32" fill="none" xmlns="http://www.w3.org/2000/svg">
<circle cx="16" cy="16" r="16" fill="#EB322A"/>
<path fill-rule="evenodd" clip-rule="evenodd" d="M6.50084 6.36704C6.64462 6.18777 6.87348 6.09934 7.10045 6.13537L23.3637 8.71684C23.5023 8.73884 23.6298 8.80578 23.7267 8.90737L27.6615 13.0358C27.7201 13.0966 27.767 13.1694 27.7981 13.2509C27.8504 13.3881 27.8541 13.5399 27.8081 13.6796C27.7843 13.7519 27.7472 13.821 27.6966 13.8831L15.8864 28.4039C15.743 28.5802 15.5168 28.6672 15.2922 28.6325C15.0676 28.5979 14.8782 28.4466 14.7947 28.2352L6.4049 7.00265C6.32045 6.78892 6.35707 6.54632 6.50084 6.36704ZM25.8777 13.0194L23.2922 10.3068L19.1515 13.968L25.8777 13.0194ZM21.9466 9.78793L9.19912 7.76452L17.1474 14.0315L21.9466 9.78793ZM17.6964 15.4659L25.6745 14.3408L16.3686 25.7825L17.6964 15.4659ZM15.1084 25.5462L8.51236 8.85305L16.4514 15.1126L15.1084 25.5462Z" fill="white"/>
</svg>
