<svg width="32" height="32" viewBox="0 0 32 32" fill="none" xmlns="http://www.w3.org/2000/svg">
<circle cx="16" cy="16" r="16" fill="white"/>
<path d="M16.0032 0C7.16341 0 0 7.07977 0 15.8085C0 17.553 0.283699 19.2338 0.812412 20.8H5.59661V7.49997L16.0032 17.7758L26.4034 7.49997V20.8H31.1876C31.7163 19.2274 32 17.553 32 15.8085C32.0064 7.07977 24.843 0 16.0032 0Z" fill="#FF6600"/>
<path d="M13.4813 20.4948L8.70165 16V24.3895H1.6001C4.56021 28.9545 9.90335 32 16.0001 32C22.0968 32 27.44 28.9545 30.4001 24.3895H23.2985V16L18.5189 20.4948L16.0001 22.8635L13.4813 20.4948Z" fill="#5E5E5E"/>
</svg>
