<svg width="32" height="32" viewBox="0 0 32 32" fill="none" xmlns="http://www.w3.org/2000/svg">
<circle cx="16" cy="16" r="16" fill="white"/>
<path d="M8.67913 25.1721C7.74358 25.1721 6.83976 25.1721 5.81323 25.1721C6.51639 24.4408 7.15083 23.7814 7.78481 23.1215C9.22681 21.6205 10.6491 20.1 12.1151 18.6229C14.1968 16.5254 17.4778 16.4294 19.7232 18.3657C19.9084 18.5254 20.0834 18.698 20.2527 18.8746C22.2369 20.9437 24.219 23.0147 26.2626 25.1489C25.2712 25.1489 24.3581 25.1489 23.6953 25.1489C22.5659 24.1067 21.536 23.1862 20.5418 22.2285C19.8496 21.5617 19.2276 20.822 18.5369 20.1535C17.0792 18.7424 14.8312 18.8093 13.4028 20.2872C11.932 21.809 10.4688 23.3381 9.00121 24.863C8.89305 24.9755 8.77611 25.0794 8.67913 25.1721ZM6.22975 7.68695C8.12782 9.67133 10.0268 11.6549 11.9254 13.6387C14.2422 16.0595 17.9062 16.0252 20.2356 13.5747C21.9946 11.7242 23.771 9.89009 25.5379 8.04693C25.7344 7.84192 25.9187 7.62529 26.1728 7.34277C25.1128 7.34277 24.1743 7.34277 23.5845 7.34277C22.5863 8.24793 21.7611 8.95542 20.984 9.71227C20.2078 10.4683 19.4869 11.2808 18.729 12.056C17.124 13.6979 14.8718 13.6621 13.3002 12.0025C11.8217 10.4412 10.3212 8.90067 8.8248 7.34515C7.89459 7.34515 6.969 7.34515 5.93102 7.34515C6.07556 7.51109 6.14899 7.60252 6.22975 7.68695Z" fill="black"/>
</svg>
