<svg width="32" height="32" viewBox="0 0 32 32" fill="none" xmlns="http://www.w3.org/2000/svg">
<ellipse cx="16" cy="16" rx="16" ry="16" fill="url(#paint0_linear)"/>
<path d="M15.2452 7.99029H17.0632V24.3206H15.2452V7.99029Z" fill="white"/>
<path d="M17.8335 16.1599V18.6724C18.0846 18.8835 18.3306 19.1036 18.5662 19.334C19.6067 20.3516 20.2434 21.3863 20.2434 22.4598C20.2434 24.8661 18.2927 26.8167 15.8865 26.8167C13.4802 26.8167 11.5296 24.8661 11.5296 22.4598C11.5296 21.7591 11.6946 21.0975 11.9883 20.5113L12.531 23.2485L14.4764 22.8628L13.3407 17.1349L7.78149 18.6013L8.28735 20.519L10.0152 20.0632C9.71304 20.8027 9.54631 21.612 9.54631 22.4598C9.54631 25.9614 12.3849 28.8 15.8865 28.8C19.388 28.8 22.2266 25.9614 22.2266 22.4598C22.2266 20.5794 21.1208 19.0584 19.9529 17.9161C19.2814 17.2594 18.5232 16.6671 17.8335 16.1599Z" fill="white"/>
<path d="M14.1257 15.8055L14.1689 13.2933C13.9214 13.0779 13.6792 12.8536 13.4476 12.6192C12.4248 11.5839 11.8059 10.5384 11.8244 9.46504C11.8657 7.05915 13.8496 5.1423 16.2555 5.18363C18.6614 5.22496 20.5782 7.20883 20.5369 9.61473C20.5248 10.3154 20.3485 10.974 20.0448 11.5551L19.5492 8.80895L17.5974 9.1612L18.6346 14.9078L24.2181 13.5371L23.7453 11.611L22.0098 12.0371C22.3247 11.3029 22.5053 10.4965 22.5199 9.6488C22.58 6.14774 19.7906 3.26081 16.2895 3.20066C12.7885 3.14051 9.90156 5.92992 9.84141 9.43098C9.8091 11.3111 10.8886 12.8509 12.0367 14.0131C12.6968 14.6812 13.4448 15.2865 14.1257 15.8055Z" fill="white"/>
<defs>
<linearGradient id="paint0_linear" x1="9.7913" y1="1.67524e-07" x2="27.4207" y2="32" gradientUnits="userSpaceOnUse">
<stop stop-color="#2B76F1"/>
<stop offset="1" stop-color="#2561B6"/>
</linearGradient>
</defs>
</svg>
