<svg width="82" height="24" viewBox="0 0 82 24" fill="none" xmlns="http://www.w3.org/2000/svg">
<path d="M24.75 16.32C24.75 15.637 24.8879 15.0904 25.0258 14.5439C25.1637 13.9974 25.5775 13.4508 25.9913 13.041C26.405 12.6311 26.8188 12.3578 27.3705 12.0845C27.9222 11.8113 28.4738 11.6747 29.1635 11.6747C29.7152 11.6747 30.1289 11.8114 30.5427 11.948C30.9565 12.0846 31.3702 12.3578 31.6461 12.6311V11.948H33.8528V20.6922H31.6461V20.0091C31.2323 20.2824 30.9565 20.5556 30.5427 20.6922C30.1289 20.8288 29.7152 20.9654 29.1635 20.9654C28.4738 20.9654 27.9222 20.8288 27.3705 20.5556C26.8188 20.2823 26.405 20.009 25.9913 19.5991C25.5775 19.1892 25.3016 18.7794 25.0258 18.0962C24.75 17.4131 24.75 17.0032 24.75 16.32ZM29.4393 18.916C29.5773 18.916 29.8531 18.916 29.991 18.916C30.1289 18.916 30.4047 18.7794 30.5427 18.7794C30.6806 18.6428 30.9565 18.5062 31.0944 18.3695C31.2323 18.2328 31.5082 17.9596 31.6461 17.823V15.0904C31.5082 14.8172 31.2323 14.6806 31.0944 14.5439C30.9565 14.4073 30.6806 14.2706 30.5427 14.134C30.4047 13.9973 30.1289 13.9974 29.991 13.9974C29.8531 13.9974 29.5773 13.9974 29.4393 13.9974C29.0256 13.9974 28.7497 13.9973 28.4738 14.134C28.198 14.2706 27.9222 14.4072 27.7843 14.6806C27.5084 14.9538 27.3705 15.227 27.2325 15.5003C27.0946 15.7735 27.0946 16.1834 27.0946 16.4567C27.0946 16.73 27.0946 17.1398 27.2325 17.4131C27.3705 17.6864 27.5084 17.9596 27.7843 18.2328C28.0601 18.5061 28.3359 18.6428 28.4738 18.7794C28.7497 18.916 29.0256 18.916 29.4393 18.916ZM39.2319 13.9974C38.1285 13.9974 37.3009 14.6805 37.3009 15.7736V20.6922H35.0941V15.7736C35.0941 13.7241 36.8871 11.8114 39.2319 11.8114C41.5765 11.8114 43.3695 13.7241 43.3695 15.7736V20.6922H41.1628V15.7736C41.1628 14.6805 40.1973 13.9974 39.2319 13.9974ZM44.335 16.32C44.335 15.637 44.4729 15.0904 44.6108 14.5439C44.7487 13.9974 45.1625 13.4508 45.5762 13.041C45.9901 12.6311 46.4038 12.3578 46.9555 12.0845C47.5071 11.8113 48.0589 11.6747 48.7485 11.6747C49.3001 11.6747 49.714 11.8114 50.1277 11.948C50.5415 12.0846 50.9552 12.3578 51.2311 12.6311V9.21539H53.4379V20.5556H51.2311V19.8724C50.8173 20.1456 50.5415 20.4189 50.1277 20.5556C49.714 20.6922 49.3001 20.8288 48.7485 20.8288C48.0589 20.8288 47.5071 20.6922 46.9555 20.419C46.4038 20.1456 45.9901 19.8724 45.5762 19.4626C45.1625 19.0526 44.8867 18.6428 44.6108 17.9596C44.335 17.2765 44.335 17.0032 44.335 16.32ZM49.0243 18.916C49.1622 18.916 49.4381 18.916 49.576 18.916C49.714 18.916 49.9898 18.7794 50.1277 18.7794C50.2656 18.6428 50.5415 18.5062 50.6794 18.3695C50.8173 18.2328 51.0931 17.9596 51.2311 17.823V15.0904C51.0931 14.8172 50.8173 14.6806 50.6794 14.5439C50.5415 14.4073 50.2656 14.2706 50.1277 14.134C49.9898 13.9973 49.714 13.9974 49.576 13.9974C49.4381 13.9974 49.1622 13.9974 49.0243 13.9974C48.6105 13.9974 48.3347 13.9973 48.0589 14.134C47.7831 14.2706 47.5071 14.4072 47.3692 14.6806C47.0934 14.9538 46.9555 15.227 46.8176 15.5003C46.6796 15.7735 46.6796 16.1834 46.6796 16.4567C46.6796 16.73 46.6796 17.1398 46.8176 17.4131C46.9555 17.6864 47.0934 17.9596 47.3692 18.2328C47.645 18.5061 47.921 18.6428 48.0589 18.7794C48.3347 18.916 48.6105 18.916 49.0243 18.916ZM63.6441 18.916C63.9199 18.916 64.1958 18.916 64.6095 18.7794C64.8854 18.6428 65.1613 18.5061 65.2992 18.2328C65.575 17.9596 65.7129 17.6864 65.8508 17.4131C65.9888 17.1398 65.9888 16.73 65.9888 16.4567C65.9888 16.1834 65.9888 15.7735 65.8508 15.5003C65.7129 15.227 65.575 14.9538 65.2992 14.6806C65.0234 14.4072 64.7475 14.2706 64.6095 14.134C64.3337 13.9973 64.0579 13.9974 63.6441 13.9974C63.3683 13.9974 63.0925 13.9973 62.6786 14.134C62.4028 14.2706 62.127 14.4072 61.989 14.6806C61.7132 14.9538 61.5753 15.227 61.4374 15.5003C61.2994 15.7735 61.2994 16.1834 61.2994 16.4567C61.2994 16.73 61.2994 17.1398 61.4374 17.4131C61.5753 17.6864 61.7132 17.9596 61.989 18.2328C62.2649 18.5061 62.5407 18.6428 62.6786 18.7794C62.9545 18.7794 63.3683 18.916 63.6441 18.916ZM63.6441 20.9654C63.0925 20.9654 62.4028 20.8288 61.8511 20.5556C61.2994 20.2823 60.7477 20.009 60.334 19.5991C59.9202 19.1892 59.6444 18.7794 59.3685 18.0962C59.0926 17.5498 58.9547 17.0032 58.9547 16.32C58.9547 15.7736 59.0926 15.0904 59.3685 14.5439C59.6444 13.9974 59.9202 13.4508 60.334 13.041C60.7477 12.6311 61.2994 12.3578 61.8511 12.0845C62.4028 11.8113 62.9545 11.6747 63.6441 11.6747C64.1958 11.6747 64.8854 11.8113 65.4371 12.0845C65.9888 12.3578 66.5405 12.6311 66.9543 13.041C67.368 13.4508 67.6438 13.8608 67.9197 14.5439C68.1956 15.0904 68.3335 15.637 68.3335 16.32C68.3335 17.0032 68.1956 17.5498 67.9197 18.0962C67.6438 18.6428 67.368 19.1892 66.9543 19.5991C66.5405 20.009 65.9888 20.2823 65.4371 20.5556C64.8854 20.8288 64.3337 20.9654 63.6441 20.9654ZM70.2644 11.2648C70.1265 11.2648 69.8507 11.2648 69.7126 11.1282C69.5747 10.9916 69.4368 10.9916 69.2989 10.855C69.161 10.7184 69.0231 10.5817 69.0231 10.445C68.8852 10.3084 68.8852 10.1718 68.8852 9.89857C68.8852 9.76186 68.8852 9.48863 69.0231 9.35201C69.161 9.2153 69.161 9.07869 69.2989 8.94207C69.4368 8.80546 69.5747 8.66884 69.7126 8.66884C69.8507 8.53223 69.9886 8.53223 70.2644 8.53223C70.4023 8.53223 70.6782 8.53223 70.8161 8.66884C70.954 8.80546 71.0919 8.80546 71.2298 8.94207C71.3677 9.07869 71.5057 9.2153 71.5057 9.35201C71.6436 9.48863 71.6436 9.62524 71.6436 9.89857C71.6436 10.0352 71.6436 10.3084 71.5057 10.445C71.3677 10.5817 71.3677 10.7184 71.2298 10.855C71.0919 10.9916 70.954 11.1282 70.8161 11.1282C70.5402 11.2648 70.5402 11.2648 70.2644 11.2648ZM69.161 12.0845H71.3677V20.8288H69.161V12.0845ZM72.4711 16.32C72.4711 15.637 72.6091 15.0904 72.747 14.5439C73.0228 13.9974 73.2987 13.4508 73.7125 13.041C74.1262 12.6311 74.5399 12.3578 75.0917 12.0845C75.643 11.8113 76.1947 11.6747 76.8842 11.6747C77.4368 11.6747 77.8505 11.8114 78.2642 11.948C78.678 12.0846 79.0917 12.3578 79.3675 12.6311V9.21539H81.574V20.5556H79.3675V19.8724C78.9538 20.1456 78.678 20.4189 78.2642 20.5556C77.8505 20.6922 77.4368 20.8288 76.8842 20.8288C76.1947 20.8288 75.643 20.6922 75.0917 20.419C74.5399 20.1456 74.1262 19.8724 73.7125 19.4626C73.2987 19.0526 73.0228 18.6428 72.747 17.9596C72.4711 17.5498 72.4711 17.0032 72.4711 16.32ZM77.023 18.916C77.1609 18.916 77.4368 18.916 77.5747 18.916C77.7126 18.916 77.9884 18.7794 78.1263 18.7794C78.2642 18.6428 78.54 18.5062 78.678 18.3695C78.8159 18.2328 79.0917 17.9596 79.2296 17.823V15.0904C79.0917 14.8172 78.8159 14.6806 78.678 14.5439C78.54 14.4073 78.2642 14.2706 78.1263 14.134C77.9884 13.9973 77.7126 13.9974 77.5747 13.9974C77.4368 13.9974 77.1609 13.9974 77.023 13.9974C76.6084 13.9974 76.3326 13.9973 76.0568 14.134C75.7809 14.2706 75.5051 14.4072 75.3675 14.6806C75.0917 14.9538 74.9538 15.227 74.8158 15.5003C74.6779 15.7735 74.6779 16.1834 74.6779 16.4567C74.6779 16.73 74.6779 17.1398 74.8158 17.4131C74.9538 17.6864 75.0917 17.9596 75.3675 18.2328C75.643 18.5061 75.9188 18.6428 76.0568 18.7794C76.4705 18.916 76.7463 18.916 77.023 18.916ZM58.8168 13.9974C57.2997 13.9974 56.748 14.6805 56.748 15.7736V20.6922H54.5412V15.7736C54.5412 13.7241 55.7825 11.6747 58.8168 11.6747" fill="#2B2B37"/>
<path d="M5.83156 0.193338L6.96222 2.0797C4.93897 3.08178 3.57031 4.96818 3.57031 7.14923H9.99706H16.4238C16.4238 4.96818 15.0552 3.02289 13.0319 2.0797L14.1625 0.193338C14.1625 0.193338 14.222 0.0754521 14.103 0.0165044C13.984 -0.0424433 13.9245 0.0754613 13.9245 0.0754613L12.7939 2.02074C11.9608 1.66706 10.9492 1.43126 9.93752 1.43126C8.92594 1.43126 7.97381 1.66706 7.08122 2.02074L5.95064 0.0754613C5.95064 0.0754613 5.8911 -0.0424433 5.77211 0.0165044C5.83156 0.1344 5.83156 0.193338 5.83156 0.193338ZM6.96222 3.90711C7.3193 3.90711 7.55728 4.20185 7.55728 4.49658C7.55728 4.85031 7.25975 5.08606 6.96222 5.08606C6.60515 5.08606 6.36717 4.85031 6.36717 4.49658C6.36717 4.20185 6.60515 3.90711 6.96222 3.90711ZM13.0914 3.90711C13.4484 3.90711 13.6865 4.20185 13.6865 4.49658C13.6865 4.85031 13.389 5.08606 13.0914 5.08606C12.7344 5.08606 12.4964 4.85031 12.4964 4.49658C12.4964 4.20185 12.7344 3.90711 13.0914 3.90711Z" fill="#A4C639"/>
<path d="M3.51172 7.97437V17.6419C3.51172 18.1135 4.10678 18.7619 4.58284 18.7619H6.12994V22.0631C6.12994 22.8883 6.72509 23.5957 7.4986 23.5957C8.27219 23.5957 8.86725 22.9473 8.86725 22.0631V18.7619H11.069V22.0631C11.069 22.8883 11.6641 23.5957 12.4377 23.5957C13.2113 23.5957 13.8064 22.9473 13.8064 22.0631V18.7619H15.3535C15.8295 18.7619 16.4247 18.1135 16.4247 17.6419V7.97437H3.51172Z" fill="#A4C639"/>
<path d="M1.36865 7.73877C2.14225 7.73877 2.73731 8.44612 2.73731 9.27145V14.9894C2.73731 15.8147 2.14225 16.522 1.36865 16.522C0.595059 16.522 0 15.8147 0 14.9894V9.27145C0 8.44612 0.654602 7.73877 1.36865 7.73877Z" fill="#A4C639"/>
<path d="M18.6849 7.73877C19.4585 7.73877 20.0536 8.44612 20.0536 9.27145V14.9894C20.0536 15.8147 19.4585 16.522 18.6849 16.522C17.9113 16.522 17.3163 15.8147 17.3163 14.9894V9.27145C17.2568 8.44612 17.9113 7.73877 18.6849 7.73877Z" fill="#A4C639"/>
<path d="M24.8134 1.43115H25.944C26.7176 1.43115 27.2532 1.54905 27.6102 1.72589C27.9673 1.90273 28.2648 2.19748 28.5028 2.61012C28.7409 3.02275 28.8599 3.49435 28.8599 4.02484C28.8599 4.43755 28.8003 4.79118 28.6813 5.08592C28.5623 5.43964 28.3838 5.6754 28.1458 5.91124C27.9077 6.147 27.6698 6.26487 27.3722 6.38284C27.0747 6.44173 26.6582 6.50072 25.944 6.50072H24.7539V1.43115H24.8134ZM25.825 2.37432V5.55752H26.3011C26.7772 5.55752 27.0747 5.49863 27.2532 5.38066C27.4317 5.26278 27.6102 5.08592 27.7293 4.85017C27.8483 4.61441 27.9077 4.31967 27.9077 3.96595C27.9077 3.43537 27.7293 3.02275 27.4318 2.72802C27.1341 2.43328 26.7176 2.31538 26.1226 2.31538H25.825V2.37432Z" fill="#2B2B37"/>
<path d="M32.2529 1.31348C32.967 1.31348 33.6216 1.54927 34.0977 2.0798C34.5737 2.61034 34.8713 3.25882 34.8713 3.96617C34.8713 4.73251 34.6332 5.32198 34.0977 5.85248C33.562 6.38306 32.967 6.61881 32.1934 6.61881C31.4198 6.61881 30.7653 6.38306 30.2892 5.85248C29.8132 5.32198 29.5156 4.67352 29.5156 3.96617C29.5156 3.49457 29.6346 3.02297 29.8727 2.61034C30.1107 2.19769 30.4082 1.90294 30.8247 1.66715C31.2414 1.43136 31.7769 1.31348 32.2529 1.31348ZM32.2529 2.25664C31.7769 2.25664 31.3603 2.43349 31.0628 2.72824C30.7653 3.08195 30.5867 3.49457 30.5867 3.96617C30.5867 4.55565 30.7653 4.96826 31.1818 5.32198C31.4793 5.55774 31.8364 5.7346 32.2529 5.7346C32.729 5.7346 33.086 5.55774 33.4431 5.263C33.8001 4.96826 33.9191 4.49666 33.9191 4.02506C33.9191 3.55346 33.7406 3.14085 33.4431 2.78721C33.1455 2.4335 32.729 2.25664 32.2529 2.25664Z" fill="#2B2B37"/>
<path d="M35.4648 1.43115H36.417L37.131 4.6733L38.0237 1.43115H38.8568L39.8089 4.6733L40.5229 1.43115H41.4751L40.3444 6.50072H39.3923L38.4402 3.19961L37.4881 6.50072H36.536L35.4648 1.43115Z" fill="#2B2B37"/>
<path d="M42.25 1.43115H43.2021L45.4038 4.79118V1.43115H46.356V6.50072H45.4038L43.2021 3.14063V6.50072H42.25V1.43115Z" fill="#2B2B37"/>
<path d="M47.5469 1.4314H48.499V5.61675H49.9271V6.55995H47.5469V1.4314Z" fill="#2B2B37"/>
<path d="M53.0811 1.31348C53.7951 1.31348 54.4497 1.54927 54.9257 2.0798C55.4017 2.61034 55.6993 3.25882 55.6993 3.96617C55.6993 4.73251 55.4613 5.32198 54.9257 5.85248C54.3902 6.38306 53.7951 6.61881 53.0215 6.61881C52.2479 6.61881 51.5933 6.38306 51.1173 5.85248C50.5817 5.32198 50.3438 4.67352 50.3438 3.96617C50.3438 3.49457 50.4627 3.02297 50.7007 2.61034C50.9388 2.19769 51.2363 1.90294 51.6529 1.66715C52.1884 1.43136 52.605 1.31348 53.0811 1.31348ZM53.0811 2.25664C52.605 2.25664 52.1884 2.43349 51.8908 2.72824C51.5933 3.08195 51.4149 3.49457 51.4149 3.96617C51.4149 4.55565 51.5933 4.96826 52.0099 5.32198C52.3075 5.55774 52.6644 5.7346 53.0811 5.7346C53.557 5.7346 53.9141 5.55774 54.2712 5.263C54.6282 4.96826 54.7472 4.49666 54.7472 4.02506C54.7472 3.55346 54.5687 3.14085 54.2712 2.78721C53.9736 2.4335 53.557 2.25664 53.0811 2.25664Z" fill="#2B2B37"/>
<path d="M58.2567 1.43115H59.2683L61.232 6.50072H60.2204L59.8039 5.43964H57.7212L57.3046 6.50072H56.293L58.2567 1.43115ZM58.7328 2.787L58.0187 4.55543H59.3874L58.7328 2.787Z" fill="#2B2B37"/>
<path d="M61.9463 1.43115H63.0769C63.8504 1.43115 64.386 1.54905 64.743 1.72589C65.1001 1.90273 65.3976 2.19748 65.6357 2.61012C65.8737 3.02275 65.9927 3.49435 65.9927 4.02484C65.9927 4.43755 65.9332 4.79118 65.8142 5.08592C65.6952 5.38066 65.5166 5.6754 65.2786 5.91124C65.0406 6.147 64.8026 6.26487 64.505 6.38284C64.2075 6.44173 63.791 6.50072 63.0769 6.50072H61.8867V1.43115H61.9463ZM62.9578 2.37432V5.55752H63.4339C63.91 5.55752 64.2075 5.49863 64.386 5.38066C64.5646 5.26278 64.7431 5.08592 64.8621 4.85017C64.9811 4.61441 65.0406 4.31967 65.0406 3.96595C65.0406 3.43537 64.8621 3.02275 64.5646 2.72802C64.2671 2.43328 63.8504 2.31538 63.2554 2.31538H62.9578V2.37432Z" fill="#2B2B37"/>
<path d="M70.5145 1.43115H71.5261L73.4898 6.50072H72.4782L72.0617 5.43964H69.979L69.5624 6.50072H68.5508L70.5145 1.43115ZM71.05 2.787L70.336 4.55543H71.7046L71.05 2.787Z" fill="#2B2B37"/>
<path d="M74.2656 1.4314H75.2772C75.8126 1.4314 76.2291 1.49035 76.4677 1.60825C76.7053 1.72614 76.8842 1.90299 77.0622 2.07983C77.2411 2.25667 77.3007 2.61036 77.3007 2.90512C77.3007 3.25875 77.1815 3.55358 77.0026 3.78933C76.8246 4.02509 76.586 4.20195 76.2292 4.26093C76.0512 4.31992 75.6934 4.31982 75.2177 4.31982V6.50096H74.2656V1.4314ZM75.2177 3.43561H75.5154C75.753 3.43561 75.9319 3.43561 76.0512 3.37672C76.1695 3.31773 76.2292 3.25875 76.2888 3.19986C76.3484 3.14087 76.3484 3.02299 76.3484 2.90512C76.3484 2.72826 76.2888 2.55142 76.1099 2.49247C75.9915 2.43353 75.8126 2.37457 75.5154 2.37457H75.2177V3.43561Z" fill="#2B2B37"/>
<path d="M78.25 1.4314H79.261V3.19986L80.6299 1.4314H81.8198L80.0344 3.67146L81.9987 6.50096H80.8675L79.261 4.26093V6.50096H78.25V1.4314Z" fill="#2B2B37"/>
</svg>
