<svg width="90" height="24" viewBox="0 0 90 24" fill="none" xmlns="http://www.w3.org/2000/svg">
<path fill-rule="evenodd" clip-rule="evenodd" d="M11.6329 3.36118C12.3522 2.46272 12.8444 1.2404 12.7077 0C11.6667 0.0460328 10.3648 0.719254 9.6151 1.59797C8.95177 2.3723 8.35929 3.64151 8.51231 4.83504C9.68173 4.92217 10.8824 4.24564 11.6329 3.36118ZM14.2667 11.1521C14.243 8.52261 16.4057 7.23328 16.5362 7.15547L16.5388 7.15393C15.2954 5.34306 13.368 5.09561 12.6908 5.07593C11.7004 4.9718 10.7282 5.35723 9.93385 5.67213C9.42986 5.87197 8.99736 6.04339 8.67723 6.04339C8.31274 6.04339 7.86777 5.86485 7.3692 5.66468C6.71713 5.40298 5.97333 5.10444 5.19779 5.12031C3.4367 5.14743 1.78912 6.1659 0.885578 7.74738C-0.979227 10.9721 0.411544 15.7109 2.19814 18.3175C3.09188 19.5941 4.13622 21.0195 5.5031 20.9693C6.12319 20.9438 6.56314 20.7588 7.01758 20.5678C7.54319 20.3468 8.08823 20.1177 8.95372 20.1177C9.77014 20.1177 10.2919 20.3397 10.7928 20.5528C11.2728 20.757 11.7336 20.9529 12.4159 20.9372C13.8511 20.9142 14.7547 19.6549 15.6172 18.3668C16.6499 16.9037 17.0647 15.4628 17.0812 15.3887C17.0474 15.3772 14.2938 14.3275 14.2667 11.1521ZM31.7498 20.7861H33.6187L30.0759 9.84691H27.8983L24.3728 20.7861H26.1924L27.1676 17.5729H30.726L31.7498 20.7861ZM29.4916 13.3684L30.4174 16.2249H27.477L28.3864 13.3684C28.6251 12.4601 28.7987 11.7729 28.9065 11.3077H28.9394C29.2102 12.3894 29.3937 13.0766 29.4916 13.3684ZM42.6853 16.745C42.6853 18.0866 42.3224 19.1469 41.5965 19.9254C40.9464 20.6183 40.1391 20.9643 39.1754 20.9643C38.1352 20.9643 37.388 20.5911 36.9329 19.8448H36.9V24H35.1454V15.4947C35.1454 14.6514 35.1233 13.7858 35.0804 12.898H36.6235L36.7214 14.1483H36.7543C37.3394 13.2063 38.2274 12.7362 39.419 12.7362C40.3506 12.7362 41.1283 13.1035 41.7504 13.8393C42.3742 14.5758 42.6853 15.5441 42.6853 16.745ZM40.8979 16.8092C40.8979 16.0414 40.725 15.4085 40.3778 14.9104C39.9984 14.3908 39.489 14.1311 38.8504 14.1311C38.4175 14.1311 38.0241 14.2758 37.6728 14.561C37.3205 14.8487 37.0901 15.2244 36.9823 15.6896C36.928 15.9066 36.9008 16.0841 36.9008 16.2239V17.5391C36.9008 18.1128 37.0769 18.597 37.4291 18.9924C37.7813 19.3878 38.2389 19.5851 38.8018 19.5851C39.4627 19.5851 39.9769 19.3302 40.3448 18.8222C40.7135 18.3134 40.8979 17.6427 40.8979 16.8092ZM50.6786 19.9254C51.4053 19.1469 51.7682 18.0866 51.7682 16.745C51.7682 15.5441 51.4563 14.5758 50.835 13.8393C50.2112 13.1035 49.4335 12.7362 48.5028 12.7362C47.3103 12.7362 46.4224 13.2063 45.8381 14.1483H45.8052L45.7072 12.898H44.1642C44.207 13.7858 44.2292 14.6514 44.2292 15.4947V24H45.9837V19.8448H46.0167C46.4709 20.5911 47.2181 20.9643 48.2583 20.9643C49.222 20.9643 50.0294 20.6183 50.6786 19.9254ZM49.4599 14.9104C49.8071 15.4085 49.9808 16.0414 49.9808 16.8092C49.9808 17.6427 49.7965 18.3134 49.4278 18.8222C49.0599 19.3302 48.5456 19.5851 47.8848 19.5851C47.3202 19.5851 46.8626 19.3869 46.5104 18.9924C46.1599 18.597 45.9837 18.1128 45.9837 17.5391V16.2239C45.9837 16.0841 46.0117 15.9066 46.0652 15.6896C46.173 15.2244 46.4026 14.8487 46.7549 14.561C47.1071 14.2758 47.4996 14.1311 47.9333 14.1311C48.5727 14.1311 49.0805 14.3908 49.4599 14.9104ZM61.923 17.7182C61.923 18.6488 61.5995 19.4058 60.9502 19.9902C60.2368 20.629 59.2435 20.9479 57.9671 20.9479C56.7886 20.9479 55.8439 20.721 55.1287 20.2664L55.5352 18.8058C56.3055 19.271 57.1507 19.5044 58.0715 19.5044C58.7324 19.5044 59.2468 19.3549 59.6162 19.0573C59.9841 18.7597 60.1676 18.3602 60.1676 17.8621C60.1676 17.4182 60.0162 17.0442 59.7126 16.7409C59.4105 16.4376 58.906 16.1556 58.2016 15.8951C56.2841 15.1807 55.3262 14.1343 55.3262 12.7583C55.3262 11.859 55.662 11.1217 56.3343 10.5479C57.0042 9.97331 57.898 9.68651 59.0155 9.68651C60.012 9.68651 60.84 9.85995 61.5008 10.2059L61.0622 11.6346C60.445 11.2992 59.7471 11.1315 58.9661 11.1315C58.3489 11.1315 57.8667 11.2836 57.521 11.5861C57.2289 11.8566 57.0824 12.1862 57.0824 12.5767C57.0824 13.009 57.2494 13.3665 57.5852 13.6477C57.8774 13.9074 58.4082 14.1886 59.1784 14.4919C60.1207 14.8708 60.8128 15.3139 61.2581 15.8219C61.7016 16.3283 61.923 16.962 61.923 17.7182ZM65.7902 14.2132H67.7241V12.8963H65.7902V10.9325L64.067 11.452V12.8963H62.9148V14.2115H64.067V18.1876C64.067 19.183 64.2628 19.8915 64.6521 20.3141C65.043 20.7358 65.5844 20.947 66.2774 20.947C66.8411 20.947 67.2962 20.8821 67.6418 20.753L67.5933 19.4221C67.3875 19.4764 67.1275 19.5035 66.8139 19.5035C66.1309 19.5035 65.7902 19.017 65.7902 18.0429V14.2132ZM76.4493 16.7773C76.4493 17.9897 76.102 18.9852 75.4098 19.7637C74.6827 20.5651 73.7185 20.9646 72.5162 20.9646C71.3576 20.9646 70.4346 20.5807 69.7467 19.813C69.0588 19.0452 68.7148 18.0761 68.7148 16.908C68.7148 15.6857 69.0686 14.6845 69.7788 13.9061C70.4873 13.1268 71.4434 12.7371 72.6457 12.7371C73.8043 12.7371 74.737 13.121 75.4405 13.8896C76.1142 14.6352 76.4493 15.5977 76.4493 16.7773ZM74.6293 16.834C74.6293 16.1066 74.4739 15.4827 74.1589 14.9623C73.7905 14.3327 73.2651 14.0187 72.5834 14.0187C71.8782 14.0187 71.3422 14.3335 70.9747 14.9623C70.6597 15.4835 70.5035 16.1173 70.5035 16.8669C70.5035 17.5944 70.6597 18.2182 70.9747 18.7378C71.3536 19.3674 71.8839 19.6814 72.568 19.6814C73.2376 19.6814 73.7638 19.3608 74.1427 18.7213C74.4666 18.1912 74.6293 17.5607 74.6293 16.834ZM81.6002 14.3908C81.7945 14.3908 81.9791 14.4073 82.1531 14.4393V12.7682C82.0228 12.7477 81.8762 12.7362 81.7143 12.7362C81.2593 12.7362 80.8367 12.8767 80.4464 13.1587C80.0465 13.4718 79.7542 13.8894 79.5688 14.4081H79.5202L79.4563 12.8989H77.9277C77.9714 13.6452 77.9941 14.473 77.9941 15.3822L77.9771 20.786H79.7307V16.6472C79.7307 16.02 79.8773 15.5006 80.1696 15.0896C80.5056 14.6235 80.9824 14.3908 81.6002 14.3908ZM90 16.4689C90 16.7828 89.979 17.0475 89.936 17.2637H84.6719C84.6929 18.043 84.9471 18.639 85.4362 19.05C85.879 19.4174 86.453 19.6015 87.1574 19.6015C87.9371 19.6015 88.6479 19.4774 89.2875 19.2284L89.562 20.4449C88.8147 20.7704 87.9322 20.9324 86.9145 20.9324C85.6904 20.9324 84.7285 20.5723 84.029 19.8531C83.3311 19.1338 82.9814 18.168 82.9814 16.9563C82.9814 15.7669 83.3068 14.7764 83.9578 13.9865C84.6395 13.1431 85.56 12.7214 86.7186 12.7214C87.8569 12.7214 88.7184 13.1431 89.3037 13.9865C89.7668 14.6563 90 15.4849 90 16.4689ZM88.3265 16.0143C88.3387 15.4948 88.2237 15.046 87.9865 14.667C87.682 14.1796 87.2157 13.9363 86.5882 13.9363C86.0142 13.9363 85.5479 14.1738 85.1917 14.6506C84.8994 15.0296 84.7253 15.4841 84.6719 16.0135H88.3265V16.0143ZM28.9664 5.30233C29.5466 4.81326 29.8371 4.08499 29.8371 3.11745C29.8371 2.25602 29.568 1.59431 29.0314 1.13152C28.5525 0.722169 27.8423 0.517487 26.9 0.517487C26.3668 0.517487 25.873 0.555301 25.4146 0.629277V5.91554C25.766 5.95829 26.1857 5.97967 26.6761 5.97967C27.6653 5.97967 28.429 5.75367 28.9664 5.30233ZM28.429 1.69788C28.7615 2.03326 28.9278 2.51413 28.9278 3.14134C28.9278 3.84329 28.7467 4.37763 28.3879 4.74419C28.0291 5.11083 27.5197 5.29415 26.8597 5.29415C26.5774 5.29415 26.3832 5.28671 26.2771 5.27027V1.25153C26.4688 1.21372 26.7 1.19564 26.9716 1.19564C27.611 1.19564 28.0965 1.36332 28.429 1.69788ZM34.6589 3.962C34.6589 4.55795 34.4885 5.04622 34.1478 5.42922C33.7906 5.82299 33.3175 6.01942 32.7266 6.01942C32.1571 6.01942 31.7036 5.83116 31.3654 5.4531C31.028 5.07577 30.8593 4.59982 30.8593 4.02605C30.8593 3.42604 31.033 2.93365 31.3819 2.55141C31.7308 2.16918 32.1999 1.97765 32.7907 1.97765C33.3602 1.97765 33.8178 2.16589 34.1643 2.54319C34.4934 2.9098 34.6589 3.38329 34.6589 3.962ZM33.7643 3.98993C33.7643 3.63236 33.687 3.32572 33.5331 3.07009C33.352 2.76102 33.0944 2.60649 32.7595 2.60649C32.413 2.60649 32.1497 2.76102 31.9686 3.07009C31.8139 3.32572 31.7374 3.6373 31.7374 4.00556C31.7374 4.36313 31.8147 4.6697 31.9686 4.92533C32.1554 5.2344 32.4155 5.38897 32.7513 5.38897C33.0804 5.38897 33.3388 5.23197 33.5248 4.91715C33.6845 4.65658 33.7643 4.34751 33.7643 3.98993ZM41.1239 2.05774L41.1242 2.05692V2.05774H41.1239ZM40.2773 2.05774H41.1239L39.9103 5.93181H39.1203L38.6174 4.24921C38.4899 3.82912 38.3862 3.41155 38.3056 2.99729H38.2899C38.215 3.42313 38.1113 3.83981 37.978 4.24921L37.444 5.93181H36.6449L35.5035 2.05692H36.3897L36.8283 3.899C36.9345 4.33471 37.0217 4.74978 37.0917 5.14274H37.1073C37.1715 4.81885 37.2777 4.40621 37.4274 3.90726L37.978 2.05774H38.6808L39.2083 3.86783C39.3359 4.30921 39.4396 4.73415 39.5194 5.14355H39.5432C39.6017 4.74484 39.6898 4.31989 39.8066 3.86783L40.2773 2.05774ZM45.595 5.93165H44.7326V3.7122C44.7326 3.0283 44.4725 2.68637 43.9507 2.68637C43.6948 2.68637 43.4883 2.78007 43.3278 2.9683C43.169 3.15656 43.0883 3.37851 43.0883 3.63252V5.93084H42.2258V3.16393C42.2258 2.82364 42.2151 2.45457 42.1946 2.05507H42.9525L42.9929 2.66088H43.0167C43.1171 2.47265 43.2668 2.31728 43.4636 2.19317C43.6972 2.0485 43.959 1.97534 44.2454 1.97534C44.6074 1.97534 44.9087 2.09206 45.1482 2.32633C45.446 2.61321 45.595 3.0415 45.595 3.61033V5.93165ZM47.1111 5.93165H47.9728V0.278739H47.1111V5.93165ZM53.0508 3.962C53.0508 4.55795 52.8805 5.04622 52.5398 5.42922C52.1827 5.82299 51.7086 6.01942 51.1186 6.01942C50.5483 6.01942 50.0948 5.83116 49.7574 5.4531C49.42 5.07577 49.2513 4.59982 49.2513 4.02605C49.2513 3.42604 49.4249 2.93365 49.7739 2.55141C50.1228 2.16918 50.5918 1.97765 51.1819 1.97765C51.7522 1.97765 52.209 2.16589 52.5562 2.54319C52.8854 2.9098 53.0508 3.38329 53.0508 3.962ZM52.1554 3.98993C52.1554 3.63236 52.0781 3.32572 51.9242 3.07009C51.744 2.76102 51.4856 2.60649 51.1514 2.60649C50.8042 2.60649 50.5408 2.76102 50.3606 3.07009C50.2059 3.32572 50.1294 3.6373 50.1294 4.00556C50.1294 4.36313 50.2067 4.6697 50.3606 4.92533C50.5475 5.2344 50.8075 5.38897 51.1433 5.38897C51.4725 5.38897 51.73 5.23197 51.916 4.91715C52.0764 4.65658 52.1554 4.34751 52.1554 3.98993ZM56.4499 5.93149H57.2243C57.1872 5.70298 57.1682 5.39472 57.1682 5.00751V3.58054C57.1682 2.51196 56.6597 1.97765 55.6458 1.97765C55.1208 1.97765 54.6756 2.08944 54.3151 2.31221L54.4904 2.87774C54.7817 2.68705 55.1192 2.59087 55.5018 2.59087C56.0392 2.59087 56.3074 2.84569 56.3074 3.35616V3.42847C55.5891 3.42272 55.0311 3.54523 54.6344 3.79511C54.2369 4.04499 54.0394 4.40589 54.0394 4.87933C54.0394 5.19253 54.1407 5.45634 54.3431 5.66841C54.5661 5.90185 54.8624 6.01942 55.2286 6.01942C55.7191 6.01942 56.0968 5.84104 56.3618 5.48517H56.3857L56.4499 5.93149ZM56.3289 4.00224V4.59982C56.3289 4.6582 56.324 4.70913 56.3149 4.75107C56.2778 4.93771 56.1782 5.08978 56.0161 5.20978C55.8549 5.32897 55.6779 5.38897 55.4887 5.38897C55.32 5.38897 55.1784 5.33885 55.0673 5.23772C54.9562 5.13658 54.9019 4.98533 54.9019 4.78314C54.9019 4.24637 55.3775 3.9858 56.3289 4.00224ZM62.1256 5.93165H61.3602L61.3199 5.30938H61.296C61.0516 5.78282 60.6352 6.01959 60.0501 6.01959C59.5826 6.01959 59.1934 5.83627 58.8848 5.4697C58.5762 5.10306 58.4223 4.6271 58.4223 4.04264C58.4223 3.41551 58.5894 2.9075 58.9251 2.51951C59.2502 2.15783 59.6485 1.977 60.1225 1.977C60.6435 1.977 61.008 2.15208 61.2154 2.50308H61.2318V0.278739H62.0951V4.88767C62.0951 5.26501 62.105 5.6127 62.1256 5.93165ZM61.2318 4.29746V3.65139C61.2318 3.53964 61.2236 3.4492 61.208 3.38013C61.1594 3.173 61.0549 2.99875 60.8961 2.85818C60.7356 2.71762 60.5422 2.64692 60.3192 2.64692C59.9974 2.64692 59.7456 2.77433 59.5604 3.03C59.3769 3.28563 59.2839 3.61195 59.2839 4.01066C59.2839 4.39366 59.372 4.70443 59.5489 4.94363C59.7357 5.19845 59.9875 5.32582 60.3028 5.32582C60.5858 5.32582 60.8121 5.21982 60.9842 5.00687C61.1504 4.81043 61.2318 4.57366 61.2318 4.29746ZM68.991 5.42922C69.3317 5.04622 69.502 4.55795 69.502 3.962C69.502 3.38329 69.3366 2.9098 69.0074 2.54319C68.6618 2.16589 68.2034 1.97765 67.6348 1.97765C67.0431 1.97765 66.574 2.16918 66.2251 2.55141C65.8761 2.93365 65.7025 3.42604 65.7025 4.02605C65.7025 4.59982 65.8712 5.07577 66.2086 5.4531C66.5476 5.83116 67.0011 6.01942 67.5698 6.01942C68.1615 6.01942 68.6338 5.82299 68.991 5.42922ZM68.3771 3.07009C68.531 3.32572 68.6083 3.63236 68.6083 3.98993C68.6083 4.34751 68.5277 4.65658 68.3688 4.91715C68.1828 5.23197 67.9236 5.38897 67.5945 5.38897C67.2587 5.38897 66.9986 5.2344 66.8118 4.92533C66.6579 4.6697 66.5806 4.36313 66.5806 4.00556C66.5806 3.6373 66.6571 3.32572 66.8118 3.07009C66.9937 2.76102 67.257 2.60649 67.6027 2.60649C67.9384 2.60649 68.1952 2.76102 68.3771 3.07009ZM74.1379 5.93165H73.2764V3.7122C73.2764 3.0283 73.0165 2.68637 72.4943 2.68637C72.2377 2.68637 72.0312 2.78007 71.8717 2.9683C71.7122 3.15656 71.6321 3.37851 71.6321 3.63252V5.93084H70.769V3.16393C70.769 2.82364 70.7593 2.45457 70.7383 2.05507H71.4961L71.5357 2.66088H71.56C71.6612 2.47265 71.811 2.31728 72.0069 2.19317C72.2417 2.0485 72.5024 1.97534 72.7898 1.97534C73.1509 1.97534 73.4521 2.09206 73.6918 2.32633C73.9905 2.61321 74.1379 3.0415 74.1379 3.61033V5.93165ZM78.9932 2.70215H79.942V2.05606H78.9924V1.09186L78.1471 1.34668V2.05689H77.5804V2.70215H78.1471V4.65601C78.1471 5.14517 78.2427 5.49367 78.4353 5.7008C78.6272 5.90793 78.892 6.01157 79.2328 6.01157C79.5089 6.01157 79.7324 5.97951 79.9032 5.91538L79.8805 5.26185C79.7793 5.28897 79.6514 5.30217 79.4959 5.30217C79.1624 5.30217 78.9932 5.06298 78.9932 4.58451V2.70215ZM84.5091 5.93165H83.6453V3.72872C83.6453 3.03405 83.3854 2.68638 82.8648 2.68638C82.4648 2.68638 82.1912 2.88778 82.0414 3.29057C82.0163 3.37519 82.0017 3.47875 82.0017 3.60045V5.93084H81.1395V0.278739H82.0017V2.61405H82.0179C82.2891 2.18907 82.6786 1.977 83.183 1.977C83.54 1.977 83.8355 2.09372 84.0703 2.32799C84.3626 2.6198 84.5091 3.05381 84.5091 3.62758V5.93165ZM89.1863 4.20135C89.2066 4.09528 89.2187 3.9654 89.2187 3.8109C89.2187 3.32758 89.1037 2.92065 88.873 2.59185C88.5864 2.17756 88.1622 1.97042 87.6043 1.97042C87.0343 1.97042 86.5826 2.17756 86.2482 2.59185C85.9284 2.9798 85.7697 3.46645 85.7697 4.0509C85.7697 4.64605 85.9397 5.12031 86.2838 5.47375C86.6263 5.82728 87.0991 6.00396 87.6999 6.00396C88.201 6.00396 88.6342 5.9242 89.0017 5.76477L88.8673 5.16638C88.5524 5.28881 88.2034 5.34962 87.8213 5.34962C87.4756 5.34962 87.193 5.25926 86.9744 5.07836C86.7348 4.87618 86.6109 4.58435 86.5996 4.20135H89.1863ZM88.2285 2.9264C88.3451 3.11219 88.4018 3.33244 88.3953 3.58815H86.5996C86.6279 3.32758 86.7121 3.10474 86.8554 2.91818C87.0311 2.68391 87.2602 2.56719 87.542 2.56719C87.8504 2.56719 88.0788 2.6872 88.2285 2.9264Z" fill="#2B2B37"/>
</svg>
