<svg width="2500" height="970" viewBox="0 0 2500 970" fill="none" xmlns="http://www.w3.org/2000/svg">
<g clip-path="url(#clip0)">
<path d="M1463.34 342.113C1431.91 342.113 1407.21 348.857 1382.5 362.32C1382.5 290.455 1382.5 225.334 1384.76 202.883L1234.27 229.821V243.297L1249.99 245.541C1270.19 250.028 1276.96 261.247 1281.41 288.211C1285.93 342.113 1283.66 629.586 1281.41 676.757C1321.83 685.745 1364.52 692.489 1407.2 692.489C1526.23 692.489 1598.1 618.367 1598.1 501.575C1598.1 409.503 1539.71 342.113 1463.34 342.113V342.113ZM1411.69 667.769C1402.7 667.769 1391.45 667.769 1384.74 665.538C1382.48 634.1 1380.25 501.575 1382.48 384.796C1395.95 380.296 1404.93 378.052 1416.17 378.052C1465.61 378.052 1492.57 436.442 1492.57 508.294C1492.55 598.161 1458.86 667.769 1411.69 667.769V667.769ZM668.277 211.858H272.986V232.065L295.45 234.309C324.631 238.796 335.876 256.759 340.351 299.43C347.108 380.283 344.851 526.283 340.351 595.878C335.863 638.561 324.644 658.781 295.45 660.999L272.986 665.512V683.475H526.777V665.512L499.826 660.999C470.631 658.768 459.4 638.561 454.912 595.878C452.655 566.67 450.412 519.499 450.412 461.123L504.314 463.367C538.009 463.367 553.715 490.318 560.459 528.487H580.679V369.077H560.459C553.702 407.26 538.009 434.198 504.314 434.198L450.425 436.454C450.425 360.089 452.668 288.224 454.925 245.553H533.521C594.181 245.553 625.619 283.723 648.07 351.114L670.533 344.37L668.277 211.858V211.858Z" fill="black"/>
<path d="M796.3 337.625C908.605 337.625 964.751 413.991 964.751 515.051C964.751 611.623 901.861 692.502 789.556 692.502C677.264 692.502 621.119 616.124 621.119 515.051C621.119 418.478 683.996 337.625 796.3 337.625V337.625ZM789.556 360.089C740.142 360.089 726.666 427.466 726.666 515.051C726.666 600.391 749.13 670.013 794.057 670.013C845.676 670.013 859.177 602.635 859.177 515.051C859.177 429.71 836.74 360.089 789.556 360.089ZM1627.28 517.308C1627.28 425.223 1685.67 337.625 1800.22 337.625C1894.52 337.625 1939.46 407.26 1939.46 499.332H1730.59C1728.33 582.428 1768.76 643.075 1849.62 643.075C1885.56 643.075 1903.52 634.113 1926 618.38L1934.96 629.599C1912.5 661.038 1863.1 692.502 1800.22 692.502C1699.15 692.489 1627.28 620.624 1627.28 517.308V517.308ZM1730.59 474.637L1836.15 472.38C1836.15 427.466 1829.4 360.089 1791.23 360.089C1753.06 360.089 1732.82 422.966 1730.59 474.637V474.637ZM2206.77 355.601C2179.82 344.357 2143.89 337.625 2103.46 337.625C2020.38 337.625 1968.7 387.027 1968.7 445.429C1968.7 503.832 2006.84 528.526 2060.81 546.502C2116.94 566.696 2132.67 582.428 2132.67 609.379C2132.67 636.33 2112.45 661.025 2076.51 661.025C2033.86 661.025 2002.39 636.33 1977.7 568.94L1961.96 573.453L1964.22 672.269C1991.17 683.488 2040.57 692.489 2083.26 692.489C2170.85 692.489 2227.01 647.549 2227.01 577.941C2227.01 530.77 2202.29 503.832 2143.9 481.356C2081 456.661 2058.56 440.942 2058.56 411.734C2058.56 382.539 2078.81 362.32 2105.76 362.32C2146.16 362.32 2173.11 387.027 2193.36 447.673L2209.06 443.186L2206.77 355.601V355.601ZM1256.71 346.613C1218.54 324.176 1151.15 335.382 1115.23 416.248L1117.46 337.638L966.995 366.833V380.309L982.714 382.552C1002.95 384.809 1011.91 396.028 1014.17 425.236C1018.65 479.138 1016.41 573.479 1014.17 620.637C1011.91 647.562 1002.95 661.038 982.714 663.294L966.995 665.551V683.514H1175.86V665.551L1148.91 663.294C1126.46 661.038 1119.71 647.562 1117.46 620.637C1112.97 577.954 1112.97 492.613 1115.23 438.711C1126.44 422.979 1175.86 409.516 1220.77 438.711L1256.71 346.613V346.613Z" fill="black"/>
</g>
<defs>
<clipPath id="clip0">
<rect width="2500" height="970" fill="white"/>
</clipPath>
</defs>
</svg>
