<svg width="91" height="91" viewBox="0 0 91 91" fill="none" xmlns="http://www.w3.org/2000/svg">
<g clip-path="url(#clip0)">
<path d="M64.2952 21.1724H4.97368C2.2278 21.1724 0 23.3722 0 26.0835V61.2285C0 63.9398 2.2278 66.1395 4.97368 66.1395H8.82483V79.2187C8.82483 80.0543 9.32566 80.8046 10.1201 81.1286C10.3791 81.2309 10.6554 81.282 10.9145 81.282C11.4498 81.282 11.9852 81.0774 12.3824 80.6852L27.1135 66.1395H30.0666C30.6418 66.1395 32.0078 66.1395 32.0078 66.1395C32.0078 66.1395 32.0078 64.637 32.0078 64.0625C32.0078 63.488 32.0078 62.0129 32.0078 62.0129C32.0078 62.0129 30.6418 62.0129 30.0666 62.0129C30.0666 62.0129 26.1464 62.0129 26.1118 62.0129C25.6283 62.047 25.1447 62.2345 24.7821 62.6097L13.0041 74.2394C13.0041 74.2394 13.0041 63.9398 12.9868 63.8886C12.9005 62.8314 12.0025 62.0129 10.9145 62.0129H4.97368C4.52467 62.0129 4.16201 61.6548 4.16201 61.2114V26.0835C4.16201 25.6401 4.52467 25.282 4.97368 25.282H64.2952C64.7442 25.282 65.1069 25.6401 65.1069 26.0835V41.6353C65.1069 41.6353 66.0395 41.6353 67.1965 41.6353C68.3536 41.6353 69.2862 41.6353 69.2862 41.6353V26.0835C69.2689 23.3722 67.0411 21.1724 64.2952 21.1724Z" fill="url(#paint0_linear)"/>
<path d="M62.6891 61.2114C61.5321 61.2114 60.5995 62.1322 60.5995 63.2747C60.5995 64.4172 61.5321 65.3381 62.6891 65.3381C63.8462 65.3381 64.7788 64.4172 64.7788 63.2747C64.7788 62.1322 63.8289 61.2114 62.6891 61.2114Z" fill="#36324A"/>
<path d="M53.6226 32.7973H15.6464C14.4893 32.7973 13.5568 33.7181 13.5568 34.8606C13.5568 36.0031 14.5066 36.9069 15.6464 36.9069H53.6053C54.7624 36.9069 55.6949 35.9861 55.6949 34.8436C55.6949 33.701 54.7624 32.7973 53.6226 32.7973Z" fill="#D8DFE9"/>
<path d="M53.6226 40.8182H15.6464C14.4893 40.8182 13.5568 41.7391 13.5568 42.8816C13.5568 44.0241 14.5066 44.9278 15.6464 44.9278H53.6053C54.7624 44.9278 55.6949 44.007 55.6949 42.8645C55.6949 41.722 54.7624 40.8182 53.6226 40.8182Z" fill="#D8DFE9"/>
<path d="M30.0666 49.4051H15.6636C14.5065 49.4051 13.574 50.3259 13.574 51.4684C13.574 52.6109 14.5065 53.5317 15.6636 53.5317H30.0666C31.2236 53.5317 32.1562 52.6109 32.1562 51.4684C32.1562 50.3259 31.2064 49.4051 30.0666 49.4051Z" fill="#D8DFE9"/>
<path d="M52.9837 61.2114C51.8266 61.2114 50.894 62.1322 50.894 63.2747C50.894 64.4172 51.8266 65.3381 52.9837 65.3381C54.1407 65.3381 55.0733 64.4172 55.0733 63.2747C55.0733 62.1322 54.1407 61.2114 52.9837 61.2114Z" fill="#36324A"/>
<path d="M72.3775 61.2114C71.2204 61.2114 70.2878 62.1322 70.2878 63.2747C70.2878 64.4172 71.2204 65.3381 72.3775 65.3381C73.5346 65.3381 74.4671 64.4172 74.4671 63.2747C74.4671 62.1322 73.5173 61.2114 72.3775 61.2114Z" fill="#36324A"/>
<path d="M71.4445 18.291C71.4445 11.0233 70.044 9.60941 62.8398 9.60941C70.044 9.60941 71.4445 8.19638 71.4445 0.927849C71.4445 8.19638 72.845 9.60941 80.0492 9.6094C72.845 9.60941 71.4445 11.0233 71.4445 18.291Z" fill="#3BEE81"/>
<path d="M83.0722 27.2072C83.0722 22.6895 82.2016 21.8106 77.7234 21.8106C82.2016 21.8106 83.0722 20.9322 83.0722 16.4139C83.0722 20.9322 83.9428 21.8106 88.4211 21.8106C83.9428 21.8106 83.0722 22.6895 83.0722 27.2072Z" fill="#3BEE81"/>
<path d="M83.4474 46.3588H41.931C39.1851 46.3588 36.9573 48.5585 36.9573 51.2698V75.2455C36.9573 77.9568 39.1851 80.1566 41.931 80.1566H67.9219L78.4565 90.5585C78.8537 90.9507 79.389 91.1554 79.9244 91.1554C80.2007 91.1554 80.4597 91.1042 80.7188 91.0019C81.4959 90.6779 82.014 89.9276 82.014 89.092V80.1736H83.4474C86.1933 80.1736 88.4211 77.9739 88.4211 75.2625V51.2869C88.4211 48.5756 86.1933 46.3588 83.4474 46.3588ZM84.2418 75.2455C84.2418 75.6889 83.8792 76.047 83.4301 76.047H79.9071C78.8018 76.047 77.9038 76.8825 77.8347 77.9398C77.8347 77.9909 77.8175 84.1298 77.8175 84.1298L70.2361 76.6438L70.2188 76.6267C70.1842 76.5926 70.167 76.5756 70.1324 76.5585C69.7698 76.2345 69.2862 76.047 68.7509 76.047H41.931C41.4819 76.047 41.1193 75.6889 41.1193 75.2455V51.2869C41.1193 50.8435 41.4819 50.4854 41.931 50.4854H83.4474C83.8964 50.4854 84.2591 50.8435 84.2591 51.2869V75.2455H84.2418Z" fill="url(#paint1_linear)"/>
</g>
<defs>
<linearGradient id="paint0_linear" x1="34.6431" y1="21.1724" x2="34.6431" y2="81.282" gradientUnits="userSpaceOnUse">
<stop stop-color="#36324A"/>
<stop offset="1" stop-color="#56527B"/>
</linearGradient>
<linearGradient id="paint1_linear" x1="62.6892" y1="46.3588" x2="62.6892" y2="91.1554" gradientUnits="userSpaceOnUse">
<stop stop-color="#36324A"/>
<stop offset="1" stop-color="#56527B"/>
</linearGradient>
<clipPath id="clip0">
<rect width="91" height="90" fill="white" transform="translate(0 0.927856)"/>
</clipPath>
</defs>
</svg>
