<svg width="179" height="140" viewBox="0 0 179 140" fill="none" xmlns="http://www.w3.org/2000/svg">
    <path d="M70.7444 10.5392C82.0409 4.01723 95.9587 4.01724 107.255 10.5392L131.065 24.2859C142.361 30.8079 149.32 42.861 149.32 55.9051V83.3983C149.32 96.4423 142.361 108.495 131.065 115.018L107.255 128.764C95.9587 135.286 82.0409 135.286 70.7444 128.764L46.9346 115.018C35.6381 108.495 28.6792 96.4423 28.6792 83.3983V55.9051C28.6792 42.861 35.6381 30.8079 46.9346 24.2859L70.7444 10.5392Z"
          fill="white"/>
    <path opacity="0.47"
          d="M77.0068 28.479C84.0289 24.4247 92.6805 24.4247 99.7027 28.479L118.896 39.5603C125.918 43.6145 130.244 51.107 130.244 59.2155V81.3782C130.244 89.4866 125.918 96.9791 118.896 101.033L99.7026 112.115C92.6805 116.169 84.0289 116.169 77.0068 112.115L57.8134 101.033C50.7912 96.9791 46.4655 89.4866 46.4655 81.3781V59.2155C46.4655 51.107 50.7913 43.6145 57.8134 39.5603L77.0068 28.479Z"
          fill="#F6F4F8"/>
    <g filter="url(#filter0_d)">
        <circle cx="88.3548" cy="69.0071" r="18.7029" fill="url(#paint0_linear)"/>
    </g>
    <path d="M81.7501 69.8202L86.0854 74.1555L95.077 65.1638" stroke="white" stroke-width="2.97146"
          stroke-linecap="round"/>
    <rect opacity="0.63" x="38.6952" y="109.638" width="3.86957" height="3.86957"
          transform="rotate(58.313 38.6952 109.638)" fill="#00C26F"/>
    <rect opacity="0.18" x="170.26" y="47.7244" width="9.02899" height="9.02899"
          transform="rotate(24.2012 170.26 47.7244)" fill="#00C26F"/>
    <rect x="127.695" y="52.8838" width="3.86957" height="3.86957" transform="rotate(-29.5818 127.695 52.8838)"
          fill="#00C26F"/>
    <rect x="132.855" y="96.7388" width="5.15942" height="5.15942" transform="rotate(45 132.855 96.7388)"
          fill="#00C26F"/>
    <rect x="21.927" y="76.1013" width="2.57971" height="2.57971" transform="rotate(-45.0135 21.927 76.1013)"
          fill="#00C26F"/>
    <rect x="163.811" y="105.768" width="5.15942" height="5.15942" transform="rotate(-35.8702 163.811 105.768)"
          fill="#00C26F"/>
    <rect opacity="0.28" x="2.57928" y="51.5938" width="5.15942" height="5.15942"
          transform="rotate(-35.8702 2.57928 51.5938)" fill="#00C26F"/>
    <rect x="110.927" y="56.7532" width="1.28986" height="1.28986" transform="rotate(-29.5818 110.927 56.7532)"
          fill="#00C26F"/>
    <rect x="68.3619" y="45.1445" width="1.28986" height="1.28986" transform="rotate(-29.5818 68.3619 45.1445)"
          fill="#00C26F"/>
    <rect x="114.797" y="86.4202" width="2.57971" height="2.57971" transform="rotate(-29.5818 114.797 86.4202)"
          fill="#00C26F"/>
    <ellipse cx="55.9587" cy="88.9134" rx="0.644928" ry="1.28986" transform="rotate(60 55.9587 88.9134)"
             fill="#00C26F"/>
    <defs>
        <filter id="filter0_d" x="55.8371" y="40.4364" width="65.0355" height="65.0355" filterUnits="userSpaceOnUse"
                color-interpolation-filters="sRGB">
            <feFlood flood-opacity="0" result="BackgroundImageFix"/>
            <feColorMatrix in="SourceAlpha" type="matrix" values="0 0 0 0 0 0 0 0 0 0 0 0 0 0 0 0 0 0 127 0"/>
            <feOffset dy="3.9471"/>
            <feGaussianBlur stdDeviation="6.90743"/>
            <feColorMatrix type="matrix" values="0 0 0 0 0 0 0 0 0 0.760784 0 0 0 0 0.435294 0 0 0 0.3 0"/>
            <feBlend mode="normal" in2="BackgroundImageFix" result="effect1_dropShadow"/>
            <feBlend mode="normal" in="SourceGraphic" in2="effect1_dropShadow" result="shape"/>
        </filter>
        <linearGradient id="paint0_linear" x1="80.3965" y1="50.3042" x2="88.3548" y2="87.71"
                        gradientUnits="userSpaceOnUse">
            <stop stop-color="#18D886"/>
            <stop offset="1" stop-color="#00C26F"/>
        </linearGradient>
    </defs>
</svg>
