<svg viewBox="0 0 129 125" fill="none" xmlns="http://www.w3.org/2000/svg" xmlns:xlink="http://www.w3.org/1999/xlink"><g fill="#3bee81"><path d="m13.693 13.214c11.161 0 13.332-2.151 13.332-13.214 0 11.06 2.17 13.214 13.332 13.214-11.162 0-13.332 2.151-13.332 13.214 0-11.06-2.171-13.214-13.332-13.214"/><path d="m0 31.07c6.938 0 8.288-1.337 8.288-8.214 0 6.877 1.349 8.214 8.288 8.214-6.939 0-8.288 1.337-8.288 8.214 0-6.877-1.35-8.214-8.288-8.214"/></g><path d="m119.09 125h-92.6c-5.478 0-9.912-4.425-9.912-9.891v-53.31c0-5.466 4.434-9.89 9.912-9.89h13.738v4.772h-13.738c-2.826 0-5.13 2.299-5.13 5.119v53.27c0 2.82 2.304 5.119 5.13 5.119h92.6c2.826 0 5.13-2.299 5.13-5.119v-53.27c0-2.82-2.304-5.119-5.13-5.119h-13.651v-4.772h13.651c5.478 0 9.912 4.425 9.912 9.89v53.27c0 5.509-4.434 9.934-9.912 9.934" fill="url(#0)"/><path d="m72.79 88.08c-3.478 0-6.912-.911-9.999-2.689l-43.822-25.55 2.391-4.121 43.822 25.55c4.695 2.733 10.521 2.733 15.216 0l43.822-25.55 2.391 4.121-43.822 25.55c-3.087 1.778-6.521 2.689-9.999 2.689" fill="url(#1)"/><path d="m107.83 69.43h-4.782v-41.6c0-2.082-1.695-3.774-3.782-3.774h-52.865c-2.087 0-3.782 1.692-3.782 3.774v41.04h-4.782v-41.04c0-4.728 3.869-8.546 8.564-8.546h52.865c4.739 0 8.564 3.817 8.564 8.546v41.6" fill="url(#2)"/><g fill="#d8dfe9"><path d="m94.57 36.767h-44.518c-1.391 0-2.478-1.128-2.478-2.473v-.13c0-1.388 1.13-2.473 2.478-2.473h44.518c1.391 0 2.478 1.128 2.478 2.473v.13c0 1.388-1.087 2.473-2.478 2.473"/><path d="m94.57 46.31h-44.518c-1.391 0-2.478-1.128-2.478-2.473v-.13c0-1.388 1.13-2.473 2.478-2.473h44.518c1.391 0 2.478 1.128 2.478 2.473v.13c0 1.388-1.087 2.473-2.478 2.473"/><path d="m62.876 59.715h-12.825c-1.391 0-2.478-1.128-2.478-2.473v-4.164c0-1.388 1.13-2.473 2.478-2.473h12.825c1.391 0 2.478 1.128 2.478 2.473v4.164c0 1.388-1.087 2.473-2.478 2.473"/><path d="m113.31 111.77h-12.825c-1.391 0-2.478-1.128-2.478-2.472v-6.117c0-1.388 1.13-2.472 2.478-2.472h12.825c1.391 0 2.478 1.127 2.478 2.472v6.117c.044 1.388-1.087 2.472-2.478 2.472"/></g><path d="m46.49 100.36h-27.519v4.772h27.519v-4.772" fill="url(#3)"/><path d="m46.49 107.95h-27.519v4.772h27.519v-4.772" fill="url(#4)"/><defs><linearGradient id="3" x1="28.788" y1="134.25" x2="74.67" y2="-234.5" gradientUnits="userSpaceOnUse" xlink:href="#0"/><linearGradient id="4" x1="29.722" y1="134.36" x2="75.61" y2="-234.38" gradientUnits="userSpaceOnUse" xlink:href="#0"/><linearGradient id="2" x1="61.6" y1="138.33" x2="107.48" y2="-230.41" gradientUnits="userSpaceOnUse" xlink:href="#0"/><linearGradient id="0" x1="66.49" y1="138.94" x2="112.37" y2="-229.81" gradientUnits="userSpaceOnUse"><stop stop-color="#56527b"/><stop offset=".11" stop-color="#4c4763"/><stop offset=".232" stop-color="#413c4e"/><stop offset=".36" stop-color="#37333d"/><stop offset=".495" stop-color="#2f2b31"/><stop offset=".638" stop-color="#282528"/><stop offset=".797" stop-color="#242122"/><stop offset="1" stop-color="#231f20"/></linearGradient><linearGradient id="1" x1="62.965" y1="138.5" x2="108.85" y2="-230.25" gradientUnits="userSpaceOnUse" xlink:href="#0"/></defs></svg>