<svg width="140" height="140" viewBox="0 0 140 140" fill="none" xmlns="http://www.w3.org/2000/svg">
  <path d="M51.3968 10.5397C62.6933 4.01772 76.6111 4.01772 87.9075 10.5397L111.717 24.2864C123.014 30.8084 129.973 42.8615 129.973 55.9056V83.3988C129.973 96.4428 123.014 108.496 111.717 115.018L87.9075 128.765C76.6111 135.287 62.6933 135.287 51.3968 128.765L27.587 115.018C16.2905 108.496 9.33162 96.4428 9.33162 83.3988V55.9056C9.33162 42.8615 16.2905 30.8084 27.587 24.2864L51.3968 10.5397Z"
        fill="white"/>
  <path opacity="0.47"
        d="M59.0217 26.5517C66.0438 22.4975 74.6954 22.4975 81.7175 26.5517L100.911 37.6331C107.933 41.6873 112.259 49.1798 112.259 57.2882V79.4509C112.259 87.5594 107.933 95.0519 100.911 99.1061L81.7175 110.187C74.6954 114.242 66.0438 114.242 59.0216 110.187L39.8282 99.1061C32.8061 95.0518 28.4803 87.5593 28.4803 79.4509V57.2882C28.4803 49.1798 32.8061 41.6873 39.8282 37.6331L59.0217 26.5517Z"
        fill="#F6F4F8"/>
  <g filter="url(#filter0_d)">
    <circle cx="70.7029" cy="68.7029" r="18.7029" fill="url(#paint0_linear)"/>
  </g>
  <path fill-rule="evenodd" clip-rule="evenodd"
        d="M65.4393 63.4393C66.0251 62.8536 66.9749 62.8536 67.5607 63.4393L70.7426 66.6213L73.9246 63.4393C74.5104 62.8536 75.4602 62.8536 76.0459 63.4393C76.6317 64.0251 76.6317 64.9749 76.0459 65.5607L72.864 68.7426L76.0459 71.9246C76.6317 72.5104 76.6317 73.4602 76.0459 74.0459C75.4602 74.6317 74.5104 74.6317 73.9246 74.0459L70.7426 70.864L67.5607 74.0459C66.9749 74.6317 66.0251 74.6317 65.4393 74.0459C64.8536 73.4602 64.8536 72.5104 65.4393 71.9246L68.6213 68.7426L65.4393 65.5607C64.8536 64.9749 64.8536 64.0251 65.4393 63.4393Z"
        fill="white"/>
  <path fill-rule="evenodd" clip-rule="evenodd"
        d="M65.4393 63.4393C66.0251 62.8536 66.9749 62.8536 67.5607 63.4393L70.7426 66.6213L73.9246 63.4393C74.5104 62.8536 75.4602 62.8536 76.0459 63.4393C76.6317 64.0251 76.6317 64.9749 76.0459 65.5607L72.864 68.7426L76.0459 71.9246C76.6317 72.5104 76.6317 73.4602 76.0459 74.0459C75.4602 74.6317 74.5104 74.6317 73.9246 74.0459L70.7426 70.864L67.5607 74.0459C66.9749 74.6317 66.0251 74.6317 65.4393 74.0459C64.8536 73.4602 64.8536 72.5104 65.4393 71.9246L68.6213 68.7426L65.4393 65.5607C64.8536 64.9749 64.8536 64.0251 65.4393 63.4393Z"
        fill="white"/>
  <path fill-rule="evenodd" clip-rule="evenodd"
        d="M65.4393 63.4393C66.0251 62.8536 66.9749 62.8536 67.5607 63.4393L70.7426 66.6213L73.9246 63.4393C74.5104 62.8536 75.4602 62.8536 76.0459 63.4393C76.6317 64.0251 76.6317 64.9749 76.0459 65.5607L72.864 68.7426L76.0459 71.9246C76.6317 72.5104 76.6317 73.4602 76.0459 74.0459C75.4602 74.6317 74.5104 74.6317 73.9246 74.0459L70.7426 70.864L67.5607 74.0459C66.9749 74.6317 66.0251 74.6317 65.4393 74.0459C64.8536 73.4602 64.8536 72.5104 65.4393 71.9246L68.6213 68.7426L65.4393 65.5607C64.8536 64.9749 64.8536 64.0251 65.4393 63.4393Z"
        fill="white"/>
  <path fill-rule="evenodd" clip-rule="evenodd"
        d="M65.4393 63.4393C66.0251 62.8536 66.9749 62.8536 67.5607 63.4393L70.7426 66.6213L73.9246 63.4393C74.5104 62.8536 75.4602 62.8536 76.0459 63.4393C76.6317 64.0251 76.6317 64.9749 76.0459 65.5607L72.864 68.7426L76.0459 71.9246C76.6317 72.5104 76.6317 73.4602 76.0459 74.0459C75.4602 74.6317 74.5104 74.6317 73.9246 74.0459L70.7426 70.864L67.5607 74.0459C66.9749 74.6317 66.0251 74.6317 65.4393 74.0459C64.8536 73.4602 64.8536 72.5104 65.4393 71.9246L68.6213 68.7426L65.4393 65.5607C64.8536 64.9749 64.8536 64.0251 65.4393 63.4393Z"
        fill="white"/>
  <defs>
    <filter id="filter0_d" x="38.1851" y="40.1322" width="65.0355" height="65.0355" filterUnits="userSpaceOnUse"
            color-interpolation-filters="sRGB">
      <feFlood flood-opacity="0" result="BackgroundImageFix"/>
      <feColorMatrix in="SourceAlpha" type="matrix" values="0 0 0 0 0 0 0 0 0 0 0 0 0 0 0 0 0 0 127 0"/>
      <feOffset dy="3.9471"/>
      <feGaussianBlur stdDeviation="6.90743"/>
      <feColorMatrix type="matrix" values="0 0 0 0 0 0 0 0 0 0.760784 0 0 0 0 0.435294 0 0 0 0.3 0"/>
      <feBlend mode="normal" in2="BackgroundImageFix" result="effect1_dropShadow"/>
      <feBlend mode="normal" in="SourceGraphic" in2="effect1_dropShadow" result="shape"/>
    </filter>
    <linearGradient id="paint0_linear" x1="62.7446" y1="50" x2="70.7029" y2="87.4058" gradientUnits="userSpaceOnUse">
      <stop stop-color="#18D886"/>
      <stop offset="1" stop-color="#00C26F"/>
    </linearGradient>
  </defs>
</svg>
