<svg xmlns="http://www.w3.org/2000/svg" xmlns:xlink="http://www.w3.org/1999/xlink" width="110" height="80" viewBox="0 0 110 80">
  <g transform="translate(3 3)">
    <use fill="#FFF" xlink:href="#path0_fill"/>
    <use fill="#231F20" xlink:href="#path1_stroke"/>
  </g>
  <g transform="translate(3 11.98)">
    <use fill="#FFF" xlink:href="#path2_fill"/>
    <use fill="#231F20" xlink:href="#path3_stroke"/>
  </g>
  <use fill="#D7DEE8" transform="translate(73.3 62.46)" xlink:href="#path4_fill"/>
  <use fill="#D7DEE8" transform="translate(73.3 21.85)" xlink:href="#path4_fill"/>
  <use fill="#D7DEE8" transform="translate(17 24)" xlink:href="#path5_fill"/>
  <g transform="translate(69.3 35.51)">
    <use fill="#FFF" xlink:href="#path6_fill"/>
    <use fill="#231F20" xlink:href="#path7_stroke"/>
  </g>
  <defs>
    <path id="path0_fill" d="M81.087 65.231H7.701A7.669 7.669 0 0 1 0 57.531V7.7C0 3.422 3.423 0 7.702 0h73.385a7.669 7.669 0 0 1 7.702 7.7v49.618c0 4.278-3.424 7.913-7.703 7.913z"/>
    <path id="path1_stroke" d="M81.087 62.731H7.701v5h73.385v-5zm-73.385 0a5.169 5.169 0 0 1-5.202-5.2h-5c0 5.66 4.543 10.2 10.202 10.2v-5zm-5.202-5.2V7.7h-5v49.833h5zM2.5 7.7C2.5 4.804 4.803 2.5 7.702 2.5v-5A10.169 10.169 0 0 0-2.5 7.7h5zM7.702 2.5h73.385v-5H7.701v5zm73.385 0c2.899 0 5.202 2.304 5.202 5.2h5c0-5.66-4.544-10.2-10.203-10.2v5zm5.202 5.2v49.618h5V7.699h-5zm0 49.618c0 2.986-2.392 5.413-5.203 5.413v5c5.747 0 10.203-4.844 10.203-10.413h-5z"/>
    <path id="path2_fill" d="M89.858 65.017H7.702A7.669 7.669 0 0 1 0 57.319V7.699C0 3.422 3.423 0 7.702 0h81.942a7.669 7.669 0 0 1 7.703 7.7v49.618c.214 4.278-3.21 7.7-7.489 7.7z"/>
    <path id="path3_stroke" d="M97.347 57.318h-2.5v.063l.003.062 2.497-.125zm-7.489 5.2H7.702v5h82.156v-5zm-82.156 0a5.169 5.169 0 0 1-5.202-5.2h-5c0 5.659 4.543 10.2 10.202 10.2v-5zm-5.202-5.2V7.699h-5v49.619h5zm0-49.619C2.5 4.804 4.803 2.5 7.702 2.5v-5A10.169 10.169 0 0 0-2.5 7.7h5zM7.702 2.5h81.942v-5H7.702v5zm81.942 0c2.9 0 5.203 2.304 5.203 5.2h5c0-5.66-4.544-10.2-10.203-10.2v5zm5.203 5.2v49.618h5V7.699h-5zm.003 49.743c.139 2.775-2.067 5.075-4.992 5.075v5c5.634 0 10.275-4.545 9.985-10.325l-4.993.25z"/>
    <path id="path4_fill" d="M0 0h18.087v4.512H0V0z"/>
    <path id="path5_fill" d="M20 40c11.046 0 20-8.954 20-20S31.046 0 20 0 0 8.954 0 20s8.954 20 20 20z"/>
    <path id="path6_fill" d="M34.66 16.682H6.418L0 8.342 6.418 0H34.66c1.711 0 2.995 1.283 2.995 2.994v10.48c.214 1.711-1.284 3.208-2.995 3.208z"/>
    <path id="path7_stroke" d="M6.418 16.682l-1.98 1.525.75.975h1.23v-2.5zM0 8.342l-1.981-1.526-1.173 1.525 1.173 1.525L0 8.34zM6.418 0v-2.5h-1.23l-.75.975L6.417 0zm31.237 13.474h-2.5v.156l.02.154 2.48-.31zm-2.995.708H6.418v5H34.66v-5zm-26.26.976L1.98 6.816l-3.962 3.05 6.418 8.34L8.4 15.159zM1.98 9.866L8.4 1.525l-3.963-3.05-6.418 8.341 3.962 3.05zM6.418 2.5H34.66v-5H6.418v5zm28.242 0c.214 0 .32.072.372.124.05.05.123.157.123.37h5c0-3.092-2.404-5.494-5.495-5.494v5zm.495.494v10.48h5V2.994h-5zm.02 10.79c.001.016.008.092-.104.21a.596.596 0 0 1-.411.188v5c3.015 0 5.9-2.623 5.476-6.018l-4.962.62z"/>
  </defs>
</svg>
