<svg width="86" height="36" fill="none" xmlns="http://www.w3.org/2000/svg"><path d="M71.023 35.234c3.928 0 5.777-1.506 7.393-6.073L85.49 9.215h-4.096L76.65 24.646h-.084l-4.745-15.41H67.61l6.826 18.984-.366 1.155a3.206 3.206 0 0 1-3.397 2.71c-.317 0-.932-.033-1.181-.066v3.135c.507.07 1.02.103 1.532.101v-.02ZM57.37 25.245c-2.149 0-3.513-1.045-3.513-2.626 0-1.639 1.316-2.593 3.83-2.745l4.478-.284v1.474c-.099 2.427-2.138 4.317-4.554 4.218a5.371 5.371 0 0 1-.241-.017v-.02Zm-1.081 3.095a6.659 6.659 0 0 0 5.944-3.33h.083v3.135h3.73V15.161c0-3.766-2.997-6.192-7.61-6.192-4.279 0-7.444 2.46-7.56 5.84h3.631a3.538 3.538 0 0 1 3.813-2.661c2.464 0 3.845 1.154 3.845 3.28v1.438l-5.026.301c-4.679.284-7.209 2.209-7.209 5.556-.003 3.395 2.61 5.637 6.357 5.637l.002-.02ZM34.676 5.466h4.645c3.497 0 5.495 1.875 5.495 5.172 0 3.297-1.998 5.187-5.51 5.187h-4.63V5.466Zm-4.029-3.413V28.14h4.03v-8.893h5.578c4.544.245 8.424-3.257 8.668-7.824.014-.26.016-.517.005-.777.215-4.516-3.252-8.351-7.746-8.569a8.614 8.614 0 0 0-.794.002l-9.74-.026ZM17.274 6.92c-2.316-.134-4.297 1.322-5.395 1.322-1.099 0-2.797-1.254-4.63-1.22a6.834 6.834 0 0 0-5.81 3.548c-2.497 4.318-.65 10.71 1.764 14.223 1.182 1.742 2.6 3.65 4.463 3.581 1.764-.066 2.464-1.154 4.596-1.154 2.131 0 2.764 1.154 4.628 1.12 1.931-.034 3.148-1.742 4.333-3.484a15.28 15.28 0 0 0 1.93-4.006 6.307 6.307 0 0 1-3.762-5.748 6.451 6.451 0 0 1 3.047-5.387 6.589 6.589 0 0 0-5.161-2.81l-.004.015Zm-1.446-2.305a5.227 5.227 0 0 1-4.195 1.991 5.987 5.987 0 0 1 1.499-4.366A6.25 6.25 0 0 1 17.29.083a6.366 6.366 0 0 1-1.466 4.528" fill="#fff"/></svg>