<svg width="57" height="36" fill="none" xmlns="http://www.w3.org/2000/svg"><path fill-rule="evenodd" clip-rule="evenodd" d="M28.718 30.264a16.94 16.94 0 0 1-10.953 3.986C8.44 34.25.88 26.78.88 17.564.879 8.35 8.439.88 17.765.88c4.18 0 8.005 1.5 10.953 3.986A16.94 16.94 0 0 1 39.672.879c9.326 0 16.886 7.47 16.886 16.685S48.998 34.25 39.672 34.25c-4.18 0-8.005-1.5-10.954-3.986Z" fill="#ED0006"/><path fill-rule="evenodd" clip-rule="evenodd" d="M28.719 30.264c3.63-3.06 5.933-7.614 5.933-12.7 0-5.085-2.302-9.64-5.933-12.7A16.94 16.94 0 0 1 39.672.88c9.326 0 16.886 7.47 16.886 16.685S48.998 34.25 39.672 34.25c-4.18 0-8.005-1.5-10.953-3.986Z" fill="#F9A000"/><path fill-rule="evenodd" clip-rule="evenodd" d="M28.718 30.264c3.631-3.06 5.934-7.614 5.934-12.7 0-5.085-2.303-9.64-5.934-12.7-3.63 3.06-5.933 7.615-5.933 12.7 0 5.085 2.302 9.64 5.933 12.7Z" fill="#FF5E00"/></svg>