<svg width="136" height="75" viewBox="0 0 136 75" fill="none" xmlns="http://www.w3.org/2000/svg">
<path d="M64.325 45.2696H60.0416C58.7466 45.2696 57.7505 45.6681 57.1528 46.9631L48.9844 65.591H54.762C54.762 65.591 55.7582 63.1007 55.9574 62.503C56.5551 62.503 62.2331 62.503 63.03 62.503C63.2293 63.2003 63.7273 65.4914 63.7273 65.4914H68.9073L64.325 45.2696ZM57.5512 58.3192C58.0493 57.1238 59.7428 52.6411 59.7428 52.6411C59.7428 52.7407 60.2408 51.4458 60.4401 50.7485L60.8385 52.5415C60.8385 52.5415 61.9343 57.4226 62.1335 58.4188H57.5512V58.3192Z" fill="white"/>
<path d="M49.3856 58.9162C49.3856 63.1 45.6002 65.8892 39.723 65.8892C37.2326 65.8892 34.8419 65.3912 33.5469 64.7935L34.3438 60.2112L35.0411 60.51C36.8342 61.307 38.0295 61.6058 40.2211 61.6058C41.8149 61.6058 43.5083 61.0081 43.5083 59.6135C43.5083 58.717 42.811 58.1193 40.6195 57.1231C38.5276 56.127 35.7384 54.5332 35.7384 51.6443C35.7384 47.6598 39.6234 44.9702 45.1022 44.9702C47.1941 44.9702 48.9871 45.3686 50.0829 45.8667L49.286 50.2497L48.8875 49.8513C47.8914 49.4528 46.5964 49.0544 44.7037 49.0544C42.6118 49.154 41.6157 50.0505 41.6157 50.8474C41.6157 51.744 42.811 52.4413 44.7037 53.3378C47.8914 54.832 49.3856 56.5255 49.3856 58.9162Z" fill="white"/>
<path d="M0.773438 45.4682L0.873052 45.0697H9.43991C10.6353 45.0697 11.5318 45.4682 11.8307 46.7632L13.7233 55.7285C11.8307 50.947 7.44762 47.062 0.773438 45.4682Z" fill="#F9B50B"/>
<path d="M25.7764 45.2693L17.1099 65.4911H11.2327L6.25195 48.5566C9.83808 50.8477 12.8265 54.4339 13.9223 56.9242L14.52 59.0161L19.8992 45.1697H25.7764V45.2693Z" fill="white"/>
<path d="M28.0666 45.1698H33.5454L30.0589 65.4912H24.5801L28.0666 45.1698Z" fill="white"/>
<path d="M1.23779 19V8.33594H4.72412C5.88135 8.33594 6.75049 8.5752 7.33154 9.05371C7.91748 9.53223 8.21045 10.2402 8.21045 11.1777C8.21045 11.6758 8.06885 12.1177 7.78564 12.5034C7.50244 12.8843 7.1167 13.1797 6.62842 13.3896C7.20459 13.5508 7.65869 13.8584 7.99072 14.3125C8.32764 14.7617 8.49609 15.2988 8.49609 15.9238C8.49609 16.8809 8.18604 17.6328 7.56592 18.1797C6.9458 18.7266 6.06934 19 4.93652 19H1.23779ZM2.64404 14.0122V17.8501H4.96582C5.62012 17.8501 6.13525 17.6816 6.51123 17.3447C6.89209 17.0029 7.08252 16.5342 7.08252 15.9385C7.08252 14.6543 6.38428 14.0122 4.98779 14.0122H2.64404ZM2.64404 12.8843H4.76807C5.3833 12.8843 5.87402 12.7305 6.24023 12.4229C6.61133 12.1152 6.79688 11.6978 6.79688 11.1704C6.79688 10.5845 6.62598 10.1597 6.28418 9.896C5.94238 9.62744 5.42236 9.49316 4.72412 9.49316H2.64404V12.8843ZM15.5637 18.2163C15.0363 18.8364 14.2624 19.1465 13.2419 19.1465C12.3972 19.1465 11.7526 18.9023 11.3083 18.4141C10.8688 17.9209 10.6467 17.1934 10.6418 16.2314V11.0752H11.9968V16.1948C11.9968 17.396 12.4851 17.9966 13.4616 17.9966C14.4968 17.9966 15.1853 17.6108 15.5271 16.8394V11.0752H16.882V19H15.593L15.5637 18.2163ZM21.8402 17.0151L23.6859 11.0752H25.1361L21.9501 20.2231C21.4569 21.5415 20.6732 22.2007 19.599 22.2007L19.3427 22.1787L18.8373 22.0835V20.9849L19.2035 21.0142C19.6625 21.0142 20.0189 20.9214 20.2729 20.7358C20.5316 20.5503 20.744 20.2109 20.9101 19.7178L21.2104 18.9121L18.3832 11.0752H19.8627L21.8402 17.0151ZM33.8514 18.0405C34.3348 18.0405 34.7571 17.894 35.1185 17.6011C35.4798 17.3081 35.68 16.9419 35.719 16.5024H37.0008C36.9764 16.9565 36.8201 17.3887 36.532 17.7988C36.2439 18.209 35.8582 18.5361 35.3748 18.7803C34.8963 19.0244 34.3885 19.1465 33.8514 19.1465C32.7723 19.1465 31.9129 18.7876 31.2732 18.0698C30.6385 17.3472 30.3211 16.3608 30.3211 15.1108V14.8838C30.3211 14.1123 30.4627 13.4263 30.7459 12.8257C31.0291 12.2251 31.4344 11.7588 31.9617 11.4268C32.4939 11.0947 33.1214 10.9287 33.844 10.9287C34.7327 10.9287 35.47 11.1948 36.056 11.7271C36.6468 12.2593 36.9617 12.9502 37.0008 13.7998H35.719C35.68 13.2871 35.4847 12.8672 35.1331 12.54C34.7864 12.208 34.3567 12.042 33.844 12.042C33.1556 12.042 32.6209 12.291 32.24 12.7891C31.8641 13.2822 31.6761 13.9976 31.6761 14.9351V15.1914C31.6761 16.1045 31.8641 16.8076 32.24 17.3008C32.616 17.7939 33.1531 18.0405 33.8514 18.0405ZM42.6548 12.291C42.4497 12.2568 42.2275 12.2397 41.9883 12.2397C41.0996 12.2397 40.4966 12.6182 40.1792 13.375V19H38.8242V11.0752H40.1426L40.1646 11.9907C40.6089 11.2827 41.2388 10.9287 42.0542 10.9287C42.3179 10.9287 42.5181 10.9629 42.6548 11.0312V12.291ZM46.9318 17.0151L48.7775 11.0752H50.2277L47.0417 20.2231C46.5485 21.5415 45.7648 22.2007 44.6906 22.2007L44.4343 22.1787L43.9289 22.0835V20.9849L44.2951 21.0142C44.7541 21.0142 45.1105 20.9214 45.3645 20.7358C45.6232 20.5503 45.8356 20.2109 46.0017 19.7178L46.302 18.9121L43.4748 11.0752H44.9543L46.9318 17.0151ZM58.4379 15.1255C58.4379 16.3315 58.162 17.3032 57.6103 18.0405C57.0585 18.7778 56.3114 19.1465 55.369 19.1465C54.4071 19.1465 53.6503 18.8413 53.0985 18.231V22.0469H51.7436V11.0752H52.9813L53.0473 11.9541C53.599 11.2705 54.3656 10.9287 55.3471 10.9287C56.2992 10.9287 57.0512 11.2876 57.6029 12.0054C58.1596 12.7231 58.4379 13.7217 58.4379 15.001V15.1255ZM57.0829 14.9717C57.0829 14.0781 56.8925 13.3726 56.5116 12.855C56.1308 12.3374 55.6083 12.0786 54.9442 12.0786C54.1239 12.0786 53.5087 12.4424 53.0985 13.1699V16.9565C53.5038 17.6792 54.1239 18.0405 54.9589 18.0405C55.6083 18.0405 56.1234 17.7842 56.5043 17.2715C56.89 16.7539 57.0829 15.9873 57.0829 14.9717ZM62.3048 9.15625V11.0752H63.7843V12.1226H62.3048V17.0371C62.3048 17.3545 62.3707 17.5938 62.5025 17.7549C62.6344 17.9111 62.859 17.9893 63.1764 17.9893C63.3326 17.9893 63.5475 17.96 63.8209 17.9014V19C63.4645 19.0977 63.1178 19.1465 62.7809 19.1465C62.1754 19.1465 61.7188 18.9634 61.4112 18.5972C61.1036 18.231 60.9498 17.7109 60.9498 17.0371V12.1226H59.5069V11.0752H60.9498V9.15625H62.3048ZM65.1683 14.9644C65.1683 14.188 65.3196 13.4897 65.6224 12.8696C65.93 12.2495 66.3548 11.771 66.8968 11.4341C67.4436 11.0972 68.0662 10.9287 68.7645 10.9287C69.8436 10.9287 70.7151 11.3022 71.3792 12.0493C72.0481 12.7964 72.3826 13.79 72.3826 15.0303V15.1255C72.3826 15.897 72.2337 16.5903 71.9358 17.2056C71.6429 17.8159 71.2205 18.292 70.6687 18.6338C70.1219 18.9756 69.492 19.1465 68.7791 19.1465C67.7049 19.1465 66.8333 18.7729 66.1644 18.0259C65.5003 17.2788 65.1683 16.29 65.1683 15.0596V14.9644ZM66.5306 15.1255C66.5306 16.0044 66.7332 16.71 67.1385 17.2422C67.5486 17.7744 68.0955 18.0405 68.7791 18.0405C69.4676 18.0405 70.0145 17.772 70.4197 17.2349C70.825 16.6929 71.0276 15.936 71.0276 14.9644C71.0276 14.0952 70.8201 13.3921 70.4051 12.855C69.9949 12.313 69.448 12.042 68.7645 12.042C68.0955 12.042 67.556 12.3081 67.1458 12.8403C66.7356 13.3726 66.5306 14.1343 66.5306 15.1255ZM85.4191 17.1323L86.9426 11.0752H88.2976L85.9904 19H84.8918L82.9655 12.9941L81.0905 19H79.9919L77.6921 11.0752H79.0397L80.5998 17.0078L82.4455 11.0752H83.5368L85.4191 17.1323ZM91.454 19H90.099V11.0752H91.454V19ZM89.9892 8.97314C89.9892 8.75342 90.0551 8.56787 90.1869 8.4165C90.3236 8.26514 90.5238 8.18945 90.7875 8.18945C91.0512 8.18945 91.2514 8.26514 91.3881 8.4165C91.5248 8.56787 91.5932 8.75342 91.5932 8.97314C91.5932 9.19287 91.5248 9.37598 91.3881 9.52246C91.2514 9.66895 91.0512 9.74219 90.7875 9.74219C90.5238 9.74219 90.3236 9.66895 90.1869 9.52246C90.0551 9.37598 89.9892 9.19287 89.9892 8.97314ZM95.7677 9.15625V11.0752H97.2472V12.1226H95.7677V17.0371C95.7677 17.3545 95.8336 17.5938 95.9654 17.7549C96.0973 17.9111 96.3219 17.9893 96.6393 17.9893C96.7955 17.9893 97.0104 17.96 97.2838 17.9014V19C96.9273 19.0977 96.5807 19.1465 96.2438 19.1465C95.6383 19.1465 95.1817 18.9634 94.8741 18.5972C94.5665 18.231 94.4127 17.7109 94.4127 17.0371V12.1226H92.9698V11.0752H94.4127V9.15625H95.7677ZM100.492 12.0347C101.092 11.2974 101.873 10.9287 102.835 10.9287C104.51 10.9287 105.355 11.8735 105.369 13.7632V19H104.014V13.7559C104.01 13.1846 103.878 12.7622 103.619 12.4888C103.365 12.2153 102.967 12.0786 102.425 12.0786C101.986 12.0786 101.6 12.1958 101.268 12.4302C100.936 12.6646 100.677 12.9722 100.492 13.353V19H99.1365V7.75H100.492V12.0347Z" fill="white"/>
<g clip-path="url(#clip0_886:2796)">
<path d="M134.974 74.4576V74.5605H135.071C135.089 74.5608 135.107 74.5562 135.123 74.5474C135.129 74.5429 135.135 74.537 135.138 74.5301C135.141 74.5233 135.143 74.5157 135.143 74.508C135.143 74.5005 135.141 74.4931 135.138 74.4864C135.135 74.4797 135.129 74.4739 135.123 74.4697C135.108 74.4604 135.089 74.4559 135.071 74.4566H134.974V74.4576ZM135.072 74.3849C135.114 74.3824 135.155 74.3942 135.189 74.4183C135.202 74.4293 135.213 74.4432 135.22 74.459C135.227 74.4748 135.23 74.492 135.23 74.5093C135.23 74.5242 135.228 74.539 135.222 74.5528C135.216 74.5666 135.208 74.579 135.197 74.5893C135.171 74.6116 135.138 74.6251 135.104 74.6276L135.234 74.7741H135.134L135.014 74.6286H134.975V74.7741H134.892V74.3851H135.074L135.072 74.3849ZM135.046 74.9083C135.09 74.9087 135.134 74.8999 135.174 74.8826C135.213 74.8661 135.248 74.8424 135.278 74.8129C135.308 74.7834 135.332 74.7485 135.348 74.7101C135.382 74.6286 135.382 74.5371 135.348 74.4556C135.332 74.4173 135.308 74.3824 135.278 74.3528C135.248 74.3233 135.213 74.2996 135.174 74.2831C135.133 74.2667 135.09 74.2585 135.046 74.2589C135.002 74.2585 134.958 74.2667 134.916 74.2831C134.877 74.2993 134.84 74.323 134.81 74.3528C134.764 74.3994 134.733 74.4584 134.72 74.5224C134.708 74.5864 134.715 74.6525 134.74 74.7127C134.756 74.7512 134.78 74.7862 134.81 74.8155C134.84 74.8453 134.877 74.8689 134.916 74.8851C134.957 74.9025 135.002 74.9112 135.046 74.9109V74.9083ZM135.046 74.1653C135.16 74.1652 135.27 74.2096 135.352 74.2887C135.391 74.3268 135.422 74.3721 135.444 74.4222C135.466 74.4736 135.477 74.5289 135.477 74.5848C135.477 74.6407 135.466 74.696 135.444 74.7474C135.422 74.7971 135.391 74.8424 135.352 74.8808C135.312 74.9186 135.265 74.9491 135.215 74.9708C135.161 74.9931 135.104 75.0045 135.046 75.0042C134.988 75.0046 134.93 74.9932 134.876 74.9708C134.824 74.9496 134.777 74.9191 134.738 74.8808C134.699 74.841 134.668 74.7942 134.647 74.743C134.625 74.6916 134.613 74.6363 134.613 74.5804C134.613 74.5245 134.625 74.4692 134.647 74.4178C134.668 74.3677 134.7 74.3224 134.739 74.2844C134.778 74.2454 134.825 74.2148 134.877 74.1944C134.931 74.1719 134.989 74.1606 135.048 74.161L135.046 74.1653ZM95.235 72.6633C95.235 71.9216 95.7264 71.3124 96.5295 71.3124C97.2971 71.3124 97.815 71.8954 97.815 72.6633C97.815 73.4311 97.2971 74.0142 96.5295 74.0142C95.7264 74.0142 95.235 73.4049 95.235 72.6633V72.6633ZM98.6899 72.6633V70.5527H97.7619V71.0669C97.4676 70.6869 97.0212 70.4486 96.4141 70.4486C95.2181 70.4486 94.2795 71.3761 94.2795 72.6643C94.2795 73.9525 95.2176 74.88 96.4141 74.88C97.0209 74.88 97.4676 74.6414 97.7619 74.2618V74.7741H98.6888V72.6633H98.6899ZM130.044 72.6633C130.044 71.9216 130.535 71.3124 131.339 71.3124C132.107 71.3124 132.624 71.8954 132.624 72.6633C132.624 73.4311 132.107 74.0142 131.339 74.0142C130.535 74.0142 130.044 73.4049 130.044 72.6633ZM133.5 72.6633V68.8586H132.571V71.0669C132.277 70.6869 131.83 70.4486 131.223 70.4486C130.027 70.4486 129.089 71.3761 129.089 72.6643C129.089 73.9525 130.027 74.88 131.223 74.88C131.83 74.88 132.277 74.6414 132.571 74.2618V74.7741H133.5V72.6633ZM110.207 71.2689C110.805 71.2689 111.189 71.6396 111.287 72.2923H109.073C109.172 71.6831 109.546 71.2689 110.207 71.2689H110.207ZM110.226 70.4463C108.975 70.4463 108.1 71.346 108.1 72.662C108.1 74.0037 109.01 74.8777 110.288 74.8777C110.93 74.8777 111.519 74.7191 112.037 74.2864L111.582 73.6065C111.224 73.8893 110.769 74.0479 110.341 74.0479C109.743 74.0479 109.198 73.7741 109.064 73.0144H112.233C112.242 72.9003 112.251 72.7851 112.251 72.6617C112.242 71.3463 111.419 70.446 110.225 70.446L110.226 70.4463ZM121.428 72.6617C121.428 71.9201 121.92 71.3108 122.723 71.3108C123.491 71.3108 124.008 71.8939 124.008 72.6617C124.008 73.4296 123.491 74.0126 122.723 74.0126C121.92 74.0126 121.428 73.4034 121.428 72.6617H121.428ZM124.883 72.6617V70.5527H123.956V71.0669C123.66 70.6869 123.215 70.4486 122.608 70.4486C121.412 70.4486 120.473 71.3761 120.473 72.6643C120.473 73.9525 121.411 74.88 122.608 74.88C123.215 74.88 123.66 74.6414 123.956 74.2618V74.7741H124.883V72.6633L124.883 72.6617ZM116.188 72.6617C116.188 73.9417 117.089 74.8774 118.465 74.8774C119.107 74.8774 119.536 74.736 119.999 74.3743L119.553 73.6327C119.205 73.8803 118.839 74.0126 118.435 74.0126C117.694 74.0036 117.15 73.4741 117.15 72.6617C117.15 71.8494 117.694 71.3201 118.435 71.3108C118.838 71.3108 119.204 71.4432 119.553 71.6908L119.999 70.9491C119.535 70.5874 119.107 70.446 118.465 70.446C117.089 70.446 116.188 71.3815 116.188 72.6617V72.6617ZM128.151 70.446C127.615 70.446 127.267 70.6936 127.026 71.0643V70.5527H126.106V74.7718H127.035V72.4067C127.035 71.7085 127.339 71.3206 127.945 71.3206C128.144 71.3178 128.341 71.3538 128.525 71.4268L128.811 70.562C128.606 70.482 128.338 70.4468 128.15 70.4468L128.151 70.446ZM103.278 70.8882C102.831 70.5972 102.216 70.4468 101.537 70.4468C100.456 70.4468 99.7603 70.9591 99.7603 71.7975C99.7603 72.4854 100.278 72.9098 101.233 73.0422L101.671 73.1039C102.18 73.1746 102.42 73.307 102.42 73.5453C102.42 73.8715 102.082 74.0576 101.447 74.0576C100.805 74.0576 100.341 73.8545 100.028 73.6162L99.5921 74.3317C100.101 74.7024 100.744 74.8792 101.44 74.8792C102.672 74.8792 103.386 74.3055 103.386 73.5021C103.386 72.7604 102.824 72.3725 101.895 72.2401L101.458 72.1774C101.056 72.126 100.735 72.046 100.735 71.7633C100.735 71.4548 101.038 71.2692 101.547 71.2692C102.092 71.2692 102.619 71.4723 102.877 71.6309L103.279 70.8892L103.278 70.8882ZM115.251 70.4476C114.716 70.4476 114.367 70.6951 114.127 71.0658V70.5527H113.207V74.7718H114.135V72.4067C114.135 71.7085 114.439 71.3206 115.045 71.3206C115.244 71.3178 115.441 71.3538 115.626 71.4268L115.912 70.562C115.706 70.482 115.438 70.4468 115.25 70.4468L115.251 70.4476ZM107.332 70.5527H105.815V69.2728H104.877V70.5527H104.011V71.3913H104.877V73.316C104.877 74.2949 105.261 74.878 106.359 74.878C106.762 74.878 107.225 74.7546 107.52 74.5517L107.252 73.7661C106.975 73.9247 106.671 74.0047 106.43 74.0047C105.966 74.0047 105.815 73.7219 105.815 73.2985V71.3921H107.332V70.5527ZM93.4589 74.7728V72.125C93.4589 71.1278 92.8162 70.4568 91.7801 70.4478C91.2354 70.4388 90.6736 70.6064 90.2802 71.1985C89.9859 70.7306 89.522 70.4478 88.8699 70.4478C88.4142 70.4478 87.9688 70.5802 87.6201 71.0743V70.5527H86.6914V74.7718H87.6274V72.4324C87.6274 71.7 88.0382 71.3108 88.6726 71.3108C89.2888 71.3108 89.6005 71.708 89.6005 72.4232V74.7713H90.5386V72.4319C90.5386 71.6995 90.9668 71.3103 91.5828 71.3103C92.2164 71.3103 92.5188 71.7075 92.5188 72.4227V74.7708L93.4589 74.7728Z" fill="white"/>
<path d="M117.033 63.3844H102.971V38.3973H117.033L117.033 63.3844Z" fill="#FF5F00"/>
<path d="M103.864 50.8906C103.864 45.822 106.264 41.3068 110.002 38.397C107.173 36.1912 103.673 34.9941 100.07 34.9993C91.1947 34.9993 84 42.114 84 50.8906C84 59.6672 91.1947 66.7819 100.07 66.7819C103.673 66.7872 107.173 65.59 110.002 63.3842C106.265 60.4749 103.864 55.9595 103.864 50.8906Z" fill="#EB001B"/>
<path d="M136.008 50.8913C136.008 59.6679 128.813 66.7826 119.937 66.7826C116.334 66.7878 112.834 65.5907 110.004 63.3849C113.743 60.4751 116.143 55.9602 116.143 50.8913C116.143 45.8224 113.743 41.3075 110.004 38.3978C112.834 36.192 116.334 34.9949 119.937 35.0001C128.813 35.0001 136.007 42.1147 136.007 50.8913" fill="#F79E1B"/>
</g>
<defs>
<clipPath id="clip0_886:2796">
<rect width="52" height="40" fill="white" transform="translate(84 35)"/>
</clipPath>
</defs>
</svg>
