<svg width="56" height="36" fill="none" xmlns="http://www.w3.org/2000/svg"><path d="M11.222.327h13.63c1.903 0 3.086 1.597 2.642 3.562l-6.346 28.046c-.447 1.958-2.352 3.556-4.256 3.556H3.261c-1.9 0-3.085-1.598-2.642-3.556L6.97 3.89C7.413 1.924 9.317.327 11.222.327Z" fill="#E21836"/><path d="M23.717.326h15.674c1.903 0 1.045 1.596.597 3.561l-6.344 28.047c-.446 1.958-.307 3.556-2.213 3.556H15.756c-1.906 0-3.085-1.598-2.638-3.556l6.345-28.047c.45-1.965 2.35-3.561 4.254-3.561Z" fill="#00447C"/><path d="M38.771.326h13.63c1.906 0 3.089 1.596 2.641 3.561l-6.344 28.047c-.448 1.958-2.355 3.556-4.26 3.556H30.816c-1.907 0-3.09-1.598-2.643-3.556l6.346-28.047c.444-1.965 2.347-3.561 4.253-3.561Z" fill="#007B84"/><path d="M14.783 9.313c-1.402.015-1.816 0-1.948-.032-.051.249-.997 4.74-1 4.744-.203.909-.351 1.556-.855 1.975-.285.243-.619.36-1.006.36-.621 0-.983-.317-1.044-.92l-.012-.207s.19-1.217.19-1.224c0 0 .992-4.093 1.17-4.634a.402.402 0 0 0 .014-.062c-1.932.018-2.274 0-2.298-.032a7.85 7.85 0 0 0-.06.298L6.92 14.192l-.088.392-.168 1.28c0 .379.072.689.217.95.461.831 1.779.956 2.524.956.96 0 1.86-.21 2.47-.593 1.056-.643 1.332-1.647 1.579-2.54l.114-.458s1.023-4.251 1.196-4.804c.007-.03.01-.047.019-.062Zm3.479 3.43c-.247 0-.697.061-1.102.265-.147.078-.285.168-.432.257l.132-.492-.072-.082c-.858.179-1.05.203-1.843.317l-.066.046c-.092.786-.174 1.376-.515 2.92-.13.57-.265 1.144-.4 1.712l.036.072a19.144 19.144 0 0 1 1.765-.032l.057-.064c.09-.473.101-.584.3-1.542.093-.454.288-1.452.384-1.808.177-.084.35-.166.517-.166.395 0 .347.355.332.497-.017.237-.161 1.014-.309 1.68l-.099.43c-.068.318-.144.627-.213.942l.03.063c.8-.044 1.045-.044 1.729-.032l.08-.064c.124-.739.16-.937.38-2.012l.11-.494c.214-.968.322-1.458.16-1.857-.172-.448-.583-.556-.961-.556Zm3.887 1.012c-.426.084-.697.14-.967.177-.267.044-.528.084-.94.143l-.032.03-.03.024c-.043.316-.073.588-.13.909-.048.331-.122.708-.242 1.249a5.001 5.001 0 0 1-.195.704c-.052.146-.11.287-.214.695l.024.037.021.035c.384-.019.636-.032.894-.035.259-.01.526 0 .94.003l.036-.03.039-.034c.06-.368.069-.466.105-.646.037-.192.099-.458.252-1.169.073-.333.153-.666.228-1.007.079-.34.16-.673.238-1.007l-.012-.04-.015-.038Zm.009-1.365c-.387-.235-1.066-.16-1.523.164-.455.318-.507.77-.121 1.008.38.228 1.061.16 1.514-.167.454-.325.511-.772.13-1.005Zm2.338 5.441c.783 0 1.585-.222 2.189-.88.464-.534.677-1.33.75-1.657.24-1.084.054-1.59-.181-1.9-.357-.47-.987-.62-1.642-.62-.393 0-1.33.04-2.062.734-.525.501-.768 1.181-.915 1.833-.148.664-.318 1.86.75 2.305.33.145.805.185 1.111.185Zm-.06-2.44c.18-.822.393-1.511.936-1.511.426 0 .457.513.268 1.337-.034.183-.19.863-.4 1.153-.147.213-.32.343-.513.343-.057 0-.397 0-.402-.52-.003-.256.048-.518.11-.802Zm4.956 2.335.06-.064c.087-.473.102-.584.294-1.542.096-.454.294-1.452.388-1.807.176-.085.348-.168.519-.168.393 0 .345.356.33.497-.015.238-.159 1.014-.31 1.68l-.093.431c-.071.318-.149.627-.218.942l.03.063a18.377 18.377 0 0 1 1.726-.032l.083-.064c.12-.74.153-.937.38-2.012l.107-.495c.215-.967.324-1.457.165-1.856-.177-.448-.59-.556-.963-.556-.247 0-.7.061-1.102.266a7.267 7.267 0 0 0-.43.256l.123-.491-.066-.083c-.857.179-1.053.203-1.845.318l-.06.045c-.097.786-.175 1.376-.516 2.92-.13.57-.265 1.144-.4 1.712l.036.072a19.082 19.082 0 0 1 1.762-.032Zm5.902.032c.05-.254.35-1.758.353-1.758 0 0 .255-1.104.27-1.144 0 0 .081-.115.162-.16h.118c1.116 0 2.376 0 3.364-.748.672-.513 1.131-1.27 1.336-2.191.053-.226.093-.495.093-.763 0-.352-.07-.701-.268-.974-.504-.725-1.507-.739-2.664-.744l-.571.005c-1.482.02-2.076.014-2.32-.017l-.06.309-.531 2.537-1.33 5.639c1.294-.017 1.824-.017 2.048.009Zm.983-4.5.562-2.518.018-.13.008-.098.226.024 1.191.106c.46.182.65.654.517 1.27-.12.562-.475 1.035-.93 1.264-.376.193-.835.21-1.309.21h-.306l.023-.128Zm3.515 2.18c-.15.654-.32 1.85.742 2.276.339.148.642.192.951.176.326-.018.628-.186.908-.428l-.076.299.048.064a27.538 27.538 0 0 1 1.83-.027l.075-.059c.121-.732.235-1.442.55-2.843.152-.67.305-1.335.462-2.002l-.024-.074c-.855.163-1.084.198-1.907.318l-.062.053-.025.198a1.184 1.184 0 0 0-.6-.507c-.365-.148-1.224.042-1.963.735-.519.494-.768 1.17-.91 1.82Zm1.796.04c.183-.807.393-1.49.938-1.49.344 0 .526.327.489.885-.03.14-.06.286-.098.452-.055.24-.114.478-.171.716a1.755 1.755 0 0 1-.202.418c-.14.205-.473.332-.665.332-.055 0-.391 0-.403-.51-.002-.255.048-.516.112-.804Zm9.379-2.664-.066-.078c-.847.176-1 .204-1.777.313l-.057.058c-.003.01-.005.025-.01.038l-.002-.013c-.579 1.374-.562 1.078-1.033 2.16-.002-.05-.002-.08-.005-.133l-.118-2.345-.074-.078c-.887.176-.908.204-1.726.313l-.064.058c-.009.028-.009.06-.014.093l.005.012c.102.538.078.418.18 1.267.048.417.112.837.16 1.248.08.69.126 1.029.225 2.08-.553.94-.684 1.295-1.216 2.12l.003.007-.374.61c-.043.065-.082.109-.137.128a.55.55 0 0 1-.245.035h-.208l-.309 1.057 1.06.02c.62-.004 1.012-.303 1.222-.705l.666-1.175h-.01l.07-.082c.447-.993 3.854-7.008 3.854-7.008ZM39.792 26.693h-.45l1.663-5.66h.551l.176-.584.017.649c-.021.4.285.756 1.09.697h.93l.32-1.09h-.35c-.2 0-.294-.052-.282-.164l-.017-.66h-1.724v.003c-.557.012-2.22.055-2.558.148-.407.108-.837.426-.837.426l.17-.584h-1.613l-.336 1.158-1.684 5.747h-.327l-.321 1.082h3.21l-.107.361h1.582l.105-.36h.444l.348-1.17Zm-1.318-4.51c-.258.073-.738.296-.738.296l.427-1.447h1.28l-.308 1.054s-.396.024-.66.096Zm.025 2.066s-.402.052-.667.114c-.26.081-.75.338-.75.338l.441-1.506h1.288l-.312 1.054Zm-.718 2.457h-1.284l.372-1.27h1.28l-.368 1.27Zm3.094-3.511h1.852l-.266.887h-1.876l-.282.97h1.642l-1.243 1.802a.515.515 0 0 1-.252.216.722.722 0 0 1-.334.1h-.455l-.313 1.062h1.191c.62 0 .985-.29 1.255-.671l.853-1.201.183 1.22a.57.57 0 0 0 .306.414c.12.061.243.167.417.183.186.008.321.014.411.014h.585l.352-1.188h-.231c-.133 0-.36-.023-.4-.066-.039-.052-.039-.132-.06-.254l-.185-1.222h-.76l.333-.409h1.873l.288-.97h-1.734l.27-.887h1.728l.321-1.094h-5.153l-.316 1.094Zm-15.64 3.758.432-1.48h1.776l.325-1.101H25.99l.271-.911H28l.322-1.066h-4.348l-.315 1.066h.988l-.264.91h-.99l-.328 1.12h.987l-.576 1.959c-.078.26.037.358.109.478.074.118.15.195.318.24.174.04.293.063.455.063h2.003l.357-1.22-.888.126c-.171 0-.646-.02-.594-.184Zm.204-7.086-.45.838c-.097.183-.184.296-.262.349-.069.044-.205.062-.402.062h-.235l-.314 1.072h.78c.375 0 .663-.142.8-.213.149-.081.188-.035.302-.148l.263-.235h2.436l.323-1.116h-1.783l.312-.609h-1.77Zm3.596 7.107c-.042-.061-.012-.17.052-.395l.665-2.269h2.369c.345-.005.594-.009.756-.02.174-.02.364-.084.57-.198a1.08 1.08 0 0 0 .414-.393c.103-.146.267-.464.409-.954l.837-2.871-2.458.015s-.757.115-1.09.242c-.336.141-.817.536-.817.536l.222-.787h-1.518l-2.126 7.257a4.571 4.571 0 0 0-.137.61c-.004.132.162.263.27.362.127.098.315.082.495.098.19.015.46.024.832.024h1.167l.358-1.245-1.044.102a.272.272 0 0 1-.226-.114Zm1.147-4.196h2.488l-.159.51c-.022.012-.075-.025-.328.006h-2.154l.153-.516Zm.498-1.711h2.509l-.18.614s-1.183-.012-1.372.024c-.834.149-1.32.607-1.32.607l.363-1.245Zm1.887 3.93a.274.274 0 0 1-.099.158c-.05.033-.132.045-.254.045h-.354l.02-.621h-1.474l-.06 3.038c-.002.22.019.346.174.447.156.127.636.143 1.283.143h.924l.333-1.137-.804.046-.268.016c-.036-.016-.071-.03-.11-.07-.034-.035-.091-.014-.082-.233l.007-.78.843-.035c.456 0 .65-.153.816-.298.159-.14.21-.3.27-.516l.142-.69h-1.16l-.147.487Z" fill="#FEFEFE"/></svg>