<svg width="34" height="48" fill="none" xmlns="http://www.w3.org/2000/svg"><path d="m9.724 28.792.846-1.485 4.15-7.284 4.15-7.285 1.857-3.26.012 3.752.024 7.276c.007 2.002.009 3.826.007 5.153a285.353 285.353 0 0 1-.01 2.023 7.679 7.679 0 0 1-.007.203 1.088 1.088 0 0 1-.074.315 1 1 0 0 1-.216.324l-.002.002-10.737.266Zm0 0 1.71.01 4.14.025c1.141.007 2.183.01 2.943.007a93.244 93.244 0 0 0 1.178-.01 2.99 2.99 0 0 0 .18-.012 1.09 1.09 0 0 0 .234-.058l.003-.001c.034-.013.196-.075.348-.226l-10.736.265ZM20.796 1.103c2.365-.516 4.99.96 5.97 3.56l.036.096c.119.317.18.48.232.72.057.271.103.663.135 1.424.06 1.457.06 4.072.06 9.381V28.77l.949.05 1.15.057c.76.039 1.19.114 1.438.199 2.195.751 2.882 3.582 1.3 5.233-.388.405-.715.627-1.078.763-.379.143-.87.22-1.63.22h-2.13V40.227c0 2.11-.008 3.194-.064 3.867-.05.596-.128.798-.295 1.155-.09.193-.31.495-.617.803-.308.307-.612.528-.81.621-1.282.604-2.703.358-3.69-.626-.482-.48-.754-.98-.883-1.593v-.005c-.003-.021-.014-.113-.025-.316a28.827 28.827 0 0 1-.031-.883c-.018-.74-.027-1.758-.027-3.02v-4.931l-.997-.003-8.33-.025-8.099-.025-.491-.243c-1.586-.784-2.252-2.539-1.647-4.027v-.001l.023-.049.068-.138c.059-.115.138-.268.237-.455.197-.374.468-.876.799-1.481a584.94 584.94 0 0 1 2.558-4.623c2.011-3.602 4.473-7.956 6.434-11.36 2.203-3.824 3.713-6.331 4.824-8.015 1.556-2.358 2.932-3.38 4.631-3.75Zm-.213-.977Z" stroke="#DCE2EA" stroke-width="2"/></svg>