<svg width="18" height="48" fill="none" xmlns="http://www.w3.org/2000/svg"><path fill-rule="evenodd" clip-rule="evenodd" d="M3.267.127c-.79.19-1.392.529-2.005 1.13C-.04 2.537-.365 4.416.43 6.077c.326.682 1.247 1.59 1.935 1.906.854.393 1.373.454 3.864.454h2.33v17.86c0 12.772.03 18.002.107 18.358.173.812.55 1.485 1.173 2.095 1.7 1.666 4.326 1.667 6.017.003.623-.613 1-1.288 1.174-2.098.15-.706.15-40.596 0-41.301C16.685 1.74 15.304.389 13.693.088 12.95-.05 3.869-.016 3.268.128Zm11.187 45.2c.326-.32.499-.622.593-.978l.01-.316c.008-.319.015-.774.022-1.35.014-1.153.026-2.766.036-4.69.018-3.845.028-8.916.028-13.989 0-5.072-.01-10.143-.028-13.989-.01-1.923-.022-3.536-.036-4.689a116.492 116.492 0 0 0-.032-1.663c-.214-.775-.925-1.445-1.687-1.602 0 .002-.103-.008-.378-.018-.3-.012-.7-.02-1.176-.028-.95-.014-2.16-.018-3.372-.013-1.211.004-2.413.018-3.344.039-.467.01-.856.022-1.14.035-.136.007-.237.013-.305.018-.37.1-.639.254-.981.59m12.377.864Zm0 40.913Zm-.588.866c-.91.895-2.289.901-3.214-.006-.33-.322-.502-.625-.596-.99a39.015 39.015 0 0 1-.027-.935c-.013-.727-.024-1.803-.032-3.276-.017-2.942-.025-7.437-.025-13.823V6.437H6.23c-1.267 0-1.9-.018-2.312-.066a1.967 1.967 0 0 1-.716-.205l-.014-.007a1.856 1.856 0 0 1-.174-.115 3.426 3.426 0 0 1-.348-.302 3.424 3.424 0 0 1-.307-.343 1.846 1.846 0 0 1-.117-.172l-.007-.013c-.43-.9-.256-1.856.43-2.53" fill="#DCE2EA"/></svg>