<svg width="29" height="48" fill="none" xmlns="http://www.w3.org/2000/svg"><path d="M7.453 12.811c-.344 1.738-2.051 2.884-3.825 2.54-1.771-.345-2.91-2.042-2.566-3.777C2.274 5.455 7.732 1 14.05 1c7.306 0 13.236 5.89 13.236 13.11 0 3.572-1.45 6.815-3.804 9.185l-.7.705.7.705c2.354 2.37 3.804 5.613 3.804 9.186C27.286 41.11 21.356 47 14.05 47 7.732 47 2.274 42.545 1.062 36.426l-.98.195.98-.195c-.344-1.735.795-3.432 2.566-3.776 1.774-.346 3.48.8 3.825 2.539.62 3.123 3.398 5.373 6.597 5.373 3.699 0 6.722-2.983 6.722-6.671s-3.023-6.672-6.722-6.672c-1.808 0-3.257-1.45-3.257-3.219 0-1.77 1.45-3.219 3.257-3.219 3.699 0 6.722-2.983 6.722-6.672 0-3.688-3.023-6.671-6.722-6.671-3.199 0-5.978 2.25-6.597 5.373Z" stroke="#DCE2EA" stroke-width="2"/></svg>