<svg width="1672" height="1003" viewBox="0 0 1672 1003" fill="none" xmlns="http://www.w3.org/2000/svg">
<path d="M337.144 983.551H66.5963L464.787 200.046H0V0.001822H713.135V186.154L337.144 983.551Z" fill="white"/>
<path d="M1672 634.864C1672 683.022 1664.6 729.329 1649.8 773.783C1635 818.237 1613.27 857.598 1584.59 891.865C1556.84 925.205 1522.62 952.063 1481.92 972.438C1441.23 992.813 1394.98 1003 1343.18 1003C1296.93 1003 1253 993.739 1211.38 975.216C1170.68 955.768 1139.23 928.446 1117.03 893.254H1114.26V983.551H904.755V131.899L1132.29 0V365.36H1135.07C1154.49 342.207 1181.78 320.906 1216.93 301.457C1252.07 282.008 1295.08 272.284 1345.96 272.284C1395.9 272.284 1440.76 282.008 1480.54 301.457C1521.23 320.906 1555.46 347.3 1583.2 380.641C1611.88 413.982 1633.61 452.879 1648.41 497.333C1664.14 540.861 1672 586.705 1672 634.864ZM1452.79 634.864C1452.79 612.636 1449.09 590.872 1441.69 569.571C1435.21 548.27 1425.04 529.748 1411.16 514.004C1397.29 497.333 1380.18 483.905 1359.83 473.717C1339.48 463.53 1315.89 458.436 1289.07 458.436C1263.17 458.436 1240.05 463.53 1219.7 473.717C1199.35 483.905 1181.78 497.333 1166.98 514.004C1153.1 530.674 1142 549.66 1133.68 570.961C1126.28 592.262 1122.58 614.026 1122.58 636.253C1122.58 658.48 1126.28 680.244 1133.68 701.545C1142 722.846 1153.1 741.831 1166.98 758.502C1181.78 775.172 1199.35 788.601 1219.7 798.788C1240.05 808.976 1263.17 814.069 1289.07 814.069C1315.89 814.069 1339.48 808.976 1359.83 798.788C1380.18 788.601 1397.29 775.172 1411.16 758.502C1425.04 741.831 1435.21 722.846 1441.69 701.545C1449.09 679.318 1452.79 657.091 1452.79 634.864Z" fill="white"/>
</svg>
