<svg xmlns="http://www.w3.org/2000/svg" viewBox="0 0 529.65 117.07"><defs><style>.cls-1{isolation:isolate;}.cls-2{fill:#fff;}</style></defs><title>Asset 1</title><g id="Layer_2" data-name="Layer 2"><g id="Layer_1-2" data-name="Layer 1"><g id="Слой_2" data-name="Слой 2"><g id="Слой_1-2" data-name="Слой 1-2"><g class="cls-1"><g class="cls-1"><path class="cls-2" d="M247.34,81.88H236.77L232.57,71H213.35l-4,10.92h-10.3l18.73-48.09h10.27Zm-17.88-19L222.83,45l-6.5,17.84Z"/></g><g class="cls-1"><path class="cls-2" d="M249.65,81.88V33.79h9.22V81.88Z"/></g><g class="cls-1"><path class="cls-2" d="M270.75,81.88V33.79H280V81.88Z"/></g><g class="cls-1"><path class="cls-2" d="M321.61,64.2l9.42,3q-2.17,7.88-7.21,11.7T311.05,82.7a20.69,20.69,0,0,1-15.75-6.54q-6.17-6.55-6.17-17.9,0-12,6.2-18.65T311.64,33q8.82,0,14.33,5.21A18.94,18.94,0,0,1,330.89,47l-9.61,2.3a9.92,9.92,0,0,0-10.14-8.07,11,11,0,0,0-8.67,3.83q-3.33,3.84-3.33,12.44,0,9.12,3.28,13A10.64,10.64,0,0,0,311,74.4a9.73,9.73,0,0,0,6.66-2.46Q320.4,69.48,321.61,64.2Z"/><path class="cls-2" d="M348.48,33.79V51.47a13.81,13.81,0,0,1,16.4-4,9.48,9.48,0,0,1,3.86,3,11.08,11.08,0,0,1,1.77,4.07,36,36,0,0,1,.48,6.92V81.88h-9.22V63.48c0-3.66-.18-6-.53-7a4.59,4.59,0,0,0-1.85-2.34,6,6,0,0,0-3.33-.87,7.66,7.66,0,0,0-4.1,1.11,6.41,6.41,0,0,0-2.64,3.36,20.06,20.06,0,0,0-.84,6.65V81.88h-9.22V33.79Z"/><path class="cls-2" d="M387.23,57.67l-8.37-1.51a13.05,13.05,0,0,1,4.85-7.48q3.45-2.43,10.24-2.43,6.17,0,9.19,1.46a9.21,9.21,0,0,1,4.25,3.71q1.23,2.25,1.23,8.25l-.1,10.76a38,38,0,0,0,.44,6.78,20,20,0,0,0,1.66,4.67H401.5c-.24-.61-.54-1.52-.89-2.72q-.23-.82-.33-1.08a16.5,16.5,0,0,1-5,3.44,14.39,14.39,0,0,1-5.74,1.15c-3.59,0-6.41-1-8.48-2.92a9.7,9.7,0,0,1-3.1-7.38,9.92,9.92,0,0,1,1.41-5.27,9.24,9.24,0,0,1,3.95-3.54,30.88,30.88,0,0,1,7.33-2.15,50.34,50.34,0,0,0,9-2.26v-.92a4.79,4.79,0,0,0-1.31-3.79c-.88-.76-2.53-1.13-5-1.13a6.61,6.61,0,0,0-3.83,1A6.69,6.69,0,0,0,387.23,57.67Zm12.33,7.48q-1.77.59-5.61,1.41a16.85,16.85,0,0,0-5,1.61,3.84,3.84,0,0,0-1.8,3.25,4.51,4.51,0,0,0,1.44,3.34,5,5,0,0,0,3.68,1.41A7.93,7.93,0,0,0,397,74.53a5.76,5.76,0,0,0,2.2-3,18.21,18.21,0,0,0,.36-4.49Z"/><path class="cls-2" d="M449.4,81.88h-9.22V64.1c0-3.76-.2-6.2-.59-7.3a5.26,5.26,0,0,0-1.92-2.58,5.53,5.53,0,0,0-3.2-.91,7.36,7.36,0,0,0-4.3,1.31,6.57,6.57,0,0,0-2.61,3.48,30.09,30.09,0,0,0-.7,8V81.88h-9.22V47h8.56v5.12a14.27,14.27,0,0,1,17.06-4.81,9.3,9.3,0,0,1,3.82,2.81A10,10,0,0,1,448.89,54a28.69,28.69,0,0,1,.51,6.2Z"/><path class="cls-2" d="M457.89,84.18l10.53,1.28A3.59,3.59,0,0,0,469.64,88a6.88,6.88,0,0,0,4.13,1,10.73,10.73,0,0,0,5.41-1.08A4.48,4.48,0,0,0,481,85.56a13.84,13.84,0,0,0,.43-4.24V76.24q-4.14,5.64-10.43,5.64a12.85,12.85,0,0,1-11.13-5.94,20.19,20.19,0,0,1-3.21-11.68q0-8.76,4.21-13.38a13.61,13.61,0,0,1,10.49-4.63q6.47,0,10.66,5.68V47h8.63V78.31a31,31,0,0,1-1,9.21,11.45,11.45,0,0,1-2.85,4.79A12.7,12.7,0,0,1,481.89,95a26,26,0,0,1-7.76,1q-8.85,0-12.56-3a9.54,9.54,0,0,1-3.71-7.7C457.86,85,457.87,84.61,457.89,84.18Zm8.24-20.44c0,3.69.71,6.4,2.15,8.12a6.63,6.63,0,0,0,5.3,2.57,7.31,7.31,0,0,0,5.7-2.64c1.56-1.76,2.33-4.37,2.33-7.82q0-5.41-2.23-8a7.09,7.09,0,0,0-5.64-2.62,6.78,6.78,0,0,0-5.46,2.57C466.84,57.6,466.13,60.22,466.13,63.74Z"/><path class="cls-2" d="M520,70.79l9.19,1.54a15.11,15.11,0,0,1-5.59,7.7A16.46,16.46,0,0,1,514,82.67q-9.09,0-13.45-5.94a20,20,0,0,1-3.44-12q0-8.65,4.53-13.56a14.89,14.89,0,0,1,11.45-4.91q7.77,0,12.26,5.14t4.3,15.73H506.55a9.31,9.31,0,0,0,2.23,6.38,7,7,0,0,0,5.31,2.28,5.6,5.6,0,0,0,3.64-1.18A7.26,7.26,0,0,0,520,70.79Zm.53-9.31a8.92,8.92,0,0,0-2.07-6.09,6.33,6.33,0,0,0-4.79-2.08,6.4,6.4,0,0,0-5,2.19,8.5,8.5,0,0,0-1.94,6Z"/></g></g><path class="cls-2" d="M95.4,14.56c25.28-20.92,65.95-12.25,81.35,8.25,18.1,24.09,16.21,59.79-6.93,80-24.42,21.32-60.56,16.77-75.76-.77-.2,0-.45-.08-.57,0C75,116.28,54.77,117.23,33.66,109.5c-19.1-7-29.22-21.63-32.58-41.1C-2.31,48.72,2.16,31,16.41,16.49,32.8-.15,60.4-4.85,81.4,5.39,86.26,7.76,90.53,11.33,95.4,14.56Zm-17,81.65V96H82c5.49-.23,6.93-2.76,4.4-7.59q-2.49-4.76-4.79-9.61C77.9,71,77.74,62.62,76.87,54.31c-1.09-10.46-9.84-17.66-21-17.68A20.27,20.27,0,0,0,35.55,54.1c-2.28,17.74,11,36.78,28.33,40.4,4.75,1,9.68,1.16,14.53,1.71Zm30.94-75.37v.09h-2.4c-5.92.31-7.42,3-4.39,8a60.5,60.5,0,0,1,9.16,31.41c.09,9,5.36,15.83,13.78,18.59,8.77,2.88,18.18.25,23.52-6.59,4.51-5.76,5.18-12.34,4.07-19.28C151.37,42.35,140.64,25,123.93,22.35c-4.82-.81-9.72-1-14.58-1.51ZM26.53,58.37A18.75,18.75,0,0,0,25.35,60c-7.7,13.87-3.45,30.6,6.12,41.08C40.84,111.35,53,112.71,66,110.6c8.24-1.35,15.15-5.94,22.37-9.73.53-.27.85-.94,1.84-2.09C55.91,105.27,35.05,91.53,26.53,58.37ZM99.11,17.48c33.67-6,54.53,8,63.78,40.75,2.79-6.4,4.37-12.43,4.05-19-.68-14.23-9.11-26.7-21.73-31.36a41.32,41.32,0,0,0-20.05-2C115.41,7.19,107.36,12.28,99.11,17.48ZM6.17,34.28C26.93,22.1,47.36,20,68.35,34.67,52.86,14.19,19.15,14.19,6.17,34.28ZM182.33,82c-20.69,12.14-41.08,14.2-61.59-.12C133.08,101.73,170.61,101.79,182.33,82Z"/></g></g></g></g></svg>