<svg width="70" height="71" viewBox="0 0 70 71" fill="none" xmlns="http://www.w3.org/2000/svg">
<g clip-path="url(#clip0)">
<path d="M35 70.9363C54.33 70.9363 70 55.2662 70 35.9363C70 16.6063 54.33 0.936279 35 0.936279C15.67 0.936279 0 16.6063 0 35.9363C0 55.2662 15.67 70.9363 35 70.9363Z" fill="#C9292C"/>
<path d="M34.8841 30.1328L10.9375 55.3832L34.9913 16.2488L59.0625 55.6238L34.8841 30.1328ZM38.3578 40.1625H30.8722L34.7222 35.9275L38.3578 40.1997V40.1625ZM23.9203 47.1122V47.0597L28.1663 42.7132V42.6935L41.1162 42.6388L45.4869 47.1122H23.9225H23.9203Z" fill="white"/>
</g>
<defs>
<clipPath id="clip0">
<rect y="0.936279" width="70" height="70" fill="white"/>
</clipPath>
</defs>
</svg>
