<?xml version="1.0" encoding="utf-8"?>
<!-- Generator: Adobe Illustrator 20.1.0, SVG Export Plug-In . SVG Version: 6.00 Build 0)  -->
<svg version="1.1" id="Layer_1" xmlns="http://www.w3.org/2000/svg" xmlns:xlink="http://www.w3.org/1999/xlink" x="0px" y="0px"
	 viewBox="0 0 140 28.3" style="enable-background:new 0 0 140 28.3;" xml:space="preserve">
<style type="text/css">
	.st0{fill:#23A4D9;}
	.st1{fill:#32D8FF;}
	.st2{fill:#29B9FD;}
</style>
<g>
	<g>
		<path class="st0" d="M36.5,10.9c0.6-0.4,1.3-0.5,2-0.5c1.2,0,2.2,0.5,3.1,1.5l1.8-1.8c-0.6-0.7-1.3-1.3-2.1-1.7
			c-0.9-0.4-1.8-0.6-2.9-0.6c-1.2,0-2.4,0.3-3.4,0.9c-1,0.6-1.8,1.4-2.4,2.4c-0.6,1-0.9,2.2-0.9,3.5c0,1.3,0.3,2.5,0.9,3.5
			c0.6,1,1.4,1.8,2.4,2.4c1,0.6,2.1,0.9,3.4,0.9c1.1,0,2-0.2,2.9-0.6c0.9-0.4,1.6-1,2.2-1.7l-1.8-1.8c-0.8,1-1.8,1.5-3.1,1.5
			c-0.8,0-1.4-0.2-2-0.5c-0.6-0.4-1-0.8-1.4-1.5c-0.3-0.6-0.5-1.4-0.5-2.2c0-0.8,0.2-1.5,0.5-2.2C35.5,11.8,36,11.3,36.5,10.9z"/>
		<path class="st0" d="M48.8,10.9c-0.8,0-1.5,0.1-2.2,0.3c-0.7,0.2-1.3,0.5-1.8,0.9l1,2c0.3-0.3,0.7-0.5,1.2-0.7
			c0.5-0.2,1-0.3,1.5-0.3c0.7,0,1.3,0.2,1.6,0.5c0.4,0.3,0.5,0.8,0.5,1.5h-2.2c-1.4,0-2.4,0.3-3,0.8c-0.7,0.5-1,1.3-1,2.2
			c0,0.6,0.1,1.1,0.4,1.6c0.3,0.5,0.7,0.8,1.2,1.1c0.5,0.3,1.1,0.4,1.9,0.4c1.4,0,2.3-0.5,2.8-1.4v1.2h2.5v-5.7
			c0-1.5-0.4-2.6-1.2-3.3C51.4,11.3,50.3,10.9,48.8,10.9z M50.6,17.9c-0.2,0.4-0.4,0.8-0.8,1c-0.4,0.2-0.8,0.3-1.2,0.3
			c-0.5,0-0.8-0.1-1.1-0.3c-0.3-0.2-0.4-0.5-0.4-0.9c0-0.8,0.6-1.2,1.7-1.2h1.9V17.9z"/>
		<path class="st0" d="M73,11.5c-0.7-0.4-1.6-0.6-2.5-0.6c-0.9,0-1.8,0.2-2.5,0.7c-0.8,0.4-1.4,1.1-1.8,1.8
			c-0.4,0.8-0.7,1.7-0.7,2.7c0,1,0.2,1.9,0.7,2.7c0.4,0.8,1.1,1.4,1.9,1.8c0.8,0.4,1.7,0.7,2.8,0.7c1.7,0,3-0.5,3.9-1.6l-1.4-1.7
			c-0.3,0.3-0.7,0.6-1,0.7c-0.4,0.2-0.8,0.2-1.3,0.2c-0.7,0-1.3-0.2-1.8-0.5c-0.5-0.4-0.8-0.9-0.9-1.5h7.1c0-0.5,0.1-0.7,0.1-0.8
			c0-1-0.2-2-0.6-2.7C74.3,12.6,73.7,12,73,11.5z M68.2,15.2c0.1-0.6,0.3-1.2,0.8-1.5s0.9-0.6,1.5-0.6c0.6,0,1.1,0.2,1.5,0.6
			c0.4,0.4,0.7,0.9,0.8,1.5H68.2z"/>
		<polygon class="st0" points="95.7,17.3 92.9,8 90.3,8 87.4,17.2 84.7,8 81.8,8 85.8,21.1 88.8,21.1 91.5,12.2 94.2,21.1 
			97.2,21.1 101.2,8 98.5,8 		"/>
		<path class="st0" d="M105.6,10.9c-0.8,0-1.5,0.1-2.2,0.3c-0.7,0.2-1.3,0.5-1.8,0.9l1,2c0.3-0.3,0.7-0.5,1.2-0.7
			c0.5-0.2,1-0.3,1.5-0.3c0.7,0,1.3,0.2,1.6,0.5c0.4,0.3,0.5,0.8,0.5,1.5h-2.2c-1.4,0-2.4,0.3-3,0.8c-0.7,0.5-1,1.3-1,2.2
			c0,0.6,0.1,1.1,0.4,1.6c0.3,0.5,0.7,0.8,1.2,1.1c0.5,0.3,1.1,0.4,1.9,0.4c1.4,0,2.3-0.5,2.8-1.4v1.2h2.5v-5.7
			c0-1.5-0.4-2.6-1.2-3.3C108.2,11.3,107.1,10.9,105.6,10.9z M107.4,17.9c-0.2,0.4-0.4,0.8-0.8,1c-0.4,0.2-0.8,0.3-1.2,0.3
			c-0.5,0-0.8-0.1-1.1-0.3c-0.3-0.2-0.4-0.5-0.4-0.9c0-0.8,0.6-1.2,1.7-1.2h1.9V17.9z"/>
		<rect x="112.6" y="7.3" class="st0" width="2.7" height="13.8"/>
		<rect x="117.8" y="7.3" class="st0" width="2.7" height="13.8"/>
		<path class="st0" d="M129.8,11.5c-0.7-0.4-1.6-0.6-2.5-0.6c-0.9,0-1.8,0.2-2.5,0.7c-0.8,0.4-1.4,1.1-1.8,1.8
			c-0.4,0.8-0.7,1.7-0.7,2.7c0,1,0.2,1.9,0.7,2.7c0.4,0.8,1.1,1.4,1.9,1.8c0.8,0.4,1.7,0.7,2.8,0.7c1.7,0,3-0.5,3.9-1.6l-1.4-1.7
			c-0.3,0.3-0.7,0.6-1,0.7c-0.4,0.2-0.8,0.2-1.3,0.2c-0.7,0-1.3-0.2-1.8-0.5c-0.5-0.4-0.8-0.9-0.9-1.5h7.1c0-0.5,0.1-0.7,0.1-0.8
			c0-1-0.2-2-0.6-2.7C131.1,12.6,130.5,12,129.8,11.5z M125,15.2c0.1-0.6,0.3-1.2,0.8-1.5s0.9-0.6,1.5-0.6c0.6,0,1.1,0.2,1.5,0.6
			c0.4,0.4,0.7,0.9,0.8,1.5H125z"/>
		<path class="st0" d="M139.3,18.5c-0.3,0.2-0.7,0.4-1.1,0.4c-0.4,0-0.7-0.1-0.9-0.3c-0.2-0.2-0.3-0.6-0.3-1v-4.1h2.3v-2.2H137V8.8
			h-2.7v2.4h-1.4v2.2h1.4v4.1c0,1.2,0.3,2.1,0.9,2.7c0.6,0.6,1.5,0.9,2.6,0.9c0.4,0,0.8-0.1,1.2-0.2c0.4-0.1,0.7-0.3,1-0.5
			L139.3,18.5z"/>
		<polygon class="st0" points="61.4,11.5 58.5,15.3 58.5,15.1 58.5,7.3 55.8,7.3 55.8,21.1 58.5,21.1 58.5,17.1 58.5,16.5 61.5,21 
			65,21 61.5,15.8 65,11.5 		"/>
	</g>
	<path class="st1" d="M19.6,17.6c-1.2,1.9-3.3,3.2-5.7,3.2c-2.4,0-4.5-1.3-5.7-3.2H11v-3.5l1.9,1.9v0h0l1,1l1-1l1.9-1.9v3.5H19.6z
		 M18.2,16.2v-5.6L13.9,15l-4.3-4.3v5.6h-2c-0.2-0.7-0.3-1.4-0.3-2.1c0-3.7,3-6.6,6.6-6.6c3.7,0,6.6,3,6.6,6.6
		c0,0.7-0.1,1.4-0.3,2.1H18.2z"/>
	<path class="st2" d="M20.7,26.7c-2,1.1-4.3,1.6-6.6,1.6c-1.9,0-3.8-0.4-5.5-1.1c-1.7-0.7-3.2-1.7-4.5-3c-1.3-1.3-2.3-2.8-3-4.5
		C0.4,17.9,0,16.1,0,14.1s0.4-3.8,1.1-5.5c0.7-1.7,1.7-3.2,3-4.5c1.3-1.3,2.8-2.3,4.5-3C10.4,0.4,12.2,0,14.1,0
		c2.2,0,4.5,0.5,6.4,1.5c1.9,1,3.6,2.4,4.9,4.1l-3.7,2.8c-0.9-1.2-2-2.1-3.3-2.8c-1.3-0.7-2.8-1-4.3-1c-2.5,0-4.9,1-6.7,2.8
		c-1.8,1.8-2.8,4.2-2.8,6.7s1,4.9,2.8,6.7c1.8,1.8,4.2,2.8,6.7,2.8c1.6,0,3-0.4,4.4-1.1c1.3-0.7,2.5-1.7,3.3-2.9l3.8,2.7
		C24.3,24.2,22.6,25.7,20.7,26.7z"/>
</g>
</svg>
