<?xml version="1.0" encoding="utf-8"?>
<!-- Generator: Adobe Illustrator 22.0.1, SVG Export Plug-In . SVG Version: 6.00 Build 0)  -->
<svg version="1.1" id="Layer_1" xmlns="http://www.w3.org/2000/svg" xmlns:xlink="http://www.w3.org/1999/xlink" x="0px" y="0px"
	 viewBox="0 0 1053.7 300" style="enable-background:new 0 0 1053.7 300;" xml:space="preserve">
<style type="text/css">
	.st0{fill:#CDD6DC;}
	.st1{fill:#F5CD35;}
	.st2{fill:#F5CF57;}
	.st3{opacity:0.35;fill-rule:evenodd;clip-rule:evenodd;fill:url(#SVGID_1_);}
	.st4{fill:#FFEFBD;}
	.st5{fill-rule:evenodd;clip-rule:evenodd;fill:#FFEFBD;}
	.st6{fill-rule:evenodd;clip-rule:evenodd;fill:#393E41;}
	.st7{fill:#F9CA31;}
	.st8{fill:none;}
</style>
<g>
	<g>
		<g>
			<path class="st0" d="M243.9,51.3c0.6,0.4,1,0.7,1,0.7s5.3-8.3,8.1-21.7c0.7-3.2,2.5-10.7-0.9-14.9c-2.7-3.5-8-2.8-9.6-0.1
				c-1.3,2.2,0,24.8-3.5,32.4C240.7,48.9,242.3,50,243.9,51.3z"/>
			<path class="st0" d="M299.9,63.1c-4.2-3.3-11.6-1.5-14.9-0.9c-13.4,2.8-21.7,8.1-21.7,8.1s0.4,0.5,1,1.3c1.1,1.5,2.3,3,3.3,4.5
				c7.6-3.4,30.2-2.2,32.5-3.5C302.7,71.1,303.3,65.8,299.9,63.1z"/>
		</g>
		<g>
			<path class="st0" d="M59.1,103.6C65,87.7,74.3,73,86.6,60.7c10.1-10.1,21.8-18.2,34.4-24c-14.3-7.1-31.7-12.2-49.3-7.8
				c-27,6.8-32.6,32.2-28.7,47.3C45.8,87.1,51.3,96.1,59.1,103.6z"/>
			<path class="st0" d="M254.5,228.5c-12.4,12.4-27,21.7-42.9,27.5c7.5,7.8,16.5,13.3,27.4,16.1c15.1,3.9,40.5-1.7,47.3-28.7
				c4.4-17.7-0.6-35-7.8-49.3C272.6,206.7,264.6,218.4,254.5,228.5z"/>
		</g>
		<path class="st1" d="M250.5,64.6c-44.2-44.2-115.8-44.2-159.9,0c-37.8,37.8-43.2,95.7-16.3,139.3l6.2,82.1l37-41.5
			c42.7,22.7,97,16.1,133-19.9C294.7,180.4,294.7,108.8,250.5,64.6z"/>
		<path class="st2" d="M238,214.1c-38.2,38.2-100.1,38.2-138.3,0c-38.2-38.2-38.2-100.1,0-138.3c38.2-38.2,100.2-38.2,138.3,0
			C276.2,113.9,276.2,175.9,238,214.1z"/>
		
			<linearGradient id="SVGID_1_" gradientUnits="userSpaceOnUse" x1="120.4767" y1="100.1975" x2="231.837" y2="179.3933" gradientTransform="matrix(1 0 0 1 -22.5386 -4.4963)">
			<stop  offset="0" style="stop-color:#221F1F"/>
			<stop  offset="0.1058" style="stop-color:#2A2626;stop-opacity:0.8942"/>
			<stop  offset="0.2799" style="stop-color:#3E3939;stop-opacity:0.7201"/>
			<stop  offset="0.5008" style="stop-color:#615C5B;stop-opacity:0.4992"/>
			<stop  offset="0.7569" style="stop-color:#A09B9B;stop-opacity:0.2431"/>
			<stop  offset="1" style="stop-color:#FFFFFF;stop-opacity:0"/>
		</linearGradient>
		<path class="st3" d="M73.7,146.4c0-54,44.3-97.7,99-97.7c12.3,0,24,2.3,34.9,6.3c-11.8-5-24.8-7.8-38.5-7.8
			c-54.3,0-98.3,44-98.3,98.3c0,13.9,2.9,27,8,39c2.5,5.7,13.7,25.9,28.6,36.7C89.1,204.6,73.7,175.5,73.7,146.4z"/>
		<path class="st4" d="M223.6,63.7c25.3,17.6,41.9,46.9,41.9,80.1c0,53.9-43.7,97.6-97.6,97.6c-19.3,0-37.9-5.4-53.1-15.1
			c15.8,11,35.6,17.2,56.4,17.2c53.9,0,97.6-43.7,97.6-97.6C268.8,111.4,250.7,81.1,223.6,63.7z"/>
		<path class="st5" d="M59.2,146.5c0-62.5,51.3-113.1,114.6-113.1c17.1,0,33.2,3.8,47.7,10.3c-15.4-7.8-32.7-12.3-51.1-12.3
			C107.9,31.4,57.3,82,57.3,144.5c0,36,16.9,68,43.1,88.7C75.2,212.4,59.2,181.3,59.2,146.5z"/>
		<path class="st6" d="M240.3,155.6L161,76.3c-0.8-0.7-1.8-0.9-2.4-0.4l-8.7,8.7c-0.6,0.5-0.4,1.6,0.4,2.3l79.3,79.3
			c0.7,0.8,1.8,0.9,2.3,0.4l8.7-8.7C241.2,157.4,241.1,156.4,240.3,155.6z M136.6,100.7c-0.7-0.7-1.8-0.9-2.3-0.4l-8.7,8.7
			c-0.5,0.5-0.4,1.6,0.4,2.4l79.3,79.3c0.8,0.7,1.8,0.9,2.4,0.4l8.7-8.7c0.5-0.5,0.4-1.6-0.4-2.3L136.6,100.7z M112.2,125.2
			c-0.7-0.7-1.8-0.9-2.4-0.4l-8.7,8.7c-0.5,0.5-0.4,1.6,0.4,2.4l60.7,60.7c0.7,0.8,1.8,0.9,2.4,0.4l8.7-8.7c0.5-0.5,0.4-1.6-0.4-2.3
			L112.2,125.2z"/>
	</g>
	<g>
		<g>
			<path class="st7" d="M413.8,168.6l-1.3,2.8c-9.8,18.1-25,27-45.4,26.8c-13.5-0.1-25.2-4.8-35-14.2c-9.8-9.4-14.8-20.7-14.9-34.1
				c-0.2-13.5,4.6-25.1,14.5-34.7c9.9-9.6,21.7-14.6,35.4-14.8c9.8-0.1,19,2.5,27.5,7.7c8.1,5,13.8,11.3,17.3,18.9l1.8,4.1h-14.1
				c-7-12.1-17.7-18.3-32.1-18.6c-9.6-0.2-18.2,3.3-25.9,10.5c-8,7.4-12,16.2-12,26.4c0,10.2,3.7,18.9,11.1,26.1
				c7.4,7.3,16.2,10.8,26.4,10.7c14.5-0.2,25.4-6,32.6-17.5H413.8z"/>
			<path class="st7" d="M516.1,153.7h-83.7c1,9.4,4.9,17.1,11.9,23.2c7,6.1,15.2,9.1,24.7,9c14.7-0.2,25.2-7,31.5-20.4h13.2
				c-3.5,10-9.4,18-17.6,23.9c-8.3,5.9-17.5,8.9-27.6,9c-12.8,0.2-24-4.4-33.8-14c-9.8-9.5-14.8-20.9-15-34.1
				c-0.3-13.9,4.6-26,14.8-36c10.2-10.1,22.2-14.7,36-14c12.4,0.8,23.2,5.9,32.3,15.4c8.8,9.4,13.2,19.8,13.2,31.4V153.7z
				 M503.9,142.3c-1.7-8.7-5.8-15.8-12.3-21.2c-6.4-5.4-14.1-8.1-23-8.2c-8.9-0.1-16.8,2.6-23.5,8c-6.7,5.5-10.9,12.6-12.7,21.4
				H503.9z"/>
			<path class="st7" d="M613.5,196h-12.4v-54.4c0-7.9-2.9-14.6-8.6-20.3c-5.7-5.7-12.4-8.5-20.1-8.5c-7.8,0-14.5,2.8-20.3,8.5
				c-5.7,5.7-8.6,12.4-8.6,20.3V196H531v-53.1c0-12.1,3.9-22.1,11.8-30.1c7.9-8,17.7-12,29.6-12c11.8,0,21.6,4,29.4,12
				c7.8,8,11.8,18.1,11.8,30.1V196z"/>
			<path class="st7" d="M664.6,198c-22.6,0-34-9.6-34-28.9V70.2h12.4v32.5h21.6v11.6h-21.6V167c0,13.8,7.2,20.7,21.6,20.7V198z"/>
		</g>
		<g>
			<path class="st0" d="M775.2,149.5c0,13.1-4.5,24.3-13.6,33.8c-9,9.5-20.1,14.4-33,14.9c-13.4,0.4-25-4.3-35-14.1
				c-9.9-9.8-14.7-21.4-14.4-34.8v-0.7V70.1h12.4v47c9.1-10.5,20.5-16,34.2-16.5c13.4-0.5,24.9,4.1,34.7,13.9
				C770.4,124.3,775.2,136,775.2,149.5z M762.8,148.6c-0.2-9.8-3.8-18.3-10.8-25.3c-6.9-7-15.4-10.6-25.3-10.6
				c-9.5,0-17.7,3.5-24.5,10.5c-6.8,7-10.3,15.4-10.5,25.2c-0.3,10.4,3.2,19.4,10.5,26.9c7.3,7.6,16.1,11.2,26.3,10.7
				c9.6-0.4,17.8-4.3,24.5-11.6C759.6,167.1,762.9,158.5,762.8,148.6z"/>
			<path class="st0" d="M886.5,153.7h-83.7c1,9.4,5,17.1,11.9,23.2c7,6.1,15.2,9.1,24.7,9c14.7-0.2,25.2-7,31.5-20.4h13.2
				c-3.5,10-9.4,18-17.6,23.9c-8.3,5.9-17.5,8.9-27.6,9c-12.7,0.2-24-4.4-33.8-14c-9.8-9.5-14.8-20.9-15-34.1
				c-0.3-13.9,4.6-26,14.8-36c10.2-10.1,22.2-14.7,36-14c12.4,0.8,23.2,5.9,32.3,15.4c8.8,9.4,13.2,19.8,13.2,31.4V153.7z
				 M874.3,142.3c-1.7-8.7-5.8-15.8-12.3-21.2c-6.4-5.4-14.1-8.1-23-8.2c-8.9-0.1-16.8,2.6-23.4,8c-6.7,5.5-10.9,12.6-12.7,21.4
				H874.3z"/>
			<path class="st0" d="M998.1,153.7h-83.7c1,9.4,5,17.1,11.9,23.2c7,6.1,15.2,9.1,24.7,9c14.7-0.2,25.2-7,31.5-20.4h13.2
				c-3.5,10-9.4,18-17.6,23.9c-8.3,5.9-17.5,8.9-27.6,9c-12.8,0.2-24-4.4-33.8-14c-9.8-9.5-14.8-20.9-15-34.1
				c-0.3-13.9,4.6-26,14.8-36c10.2-10.1,22.2-14.7,36-14c12.4,0.8,23.2,5.9,32.4,15.4c8.8,9.4,13.2,19.8,13.2,31.4V153.7z
				 M985.8,142.3c-1.7-8.7-5.8-15.8-12.2-21.2c-6.4-5.4-14.1-8.1-23-8.2c-8.9-0.1-16.8,2.6-23.4,8c-6.7,5.5-10.9,12.6-12.7,21.4
				H985.8z"/>
		</g>
	</g>
</g>
</svg>
