<svg width="92" height="24" viewBox="0 0 92 24" fill="none" xmlns="http://www.w3.org/2000/svg">
<path d="M18 12L12 18H24L18 12Z" fill="url(#paint0_linear_676_2878)"/>
<path d="M6 12L0 6V18L6 12Z" fill="url(#paint1_linear_676_2878)"/>
<path d="M18 12L24 6H12L18 12Z" fill="url(#paint2_linear_676_2878)"/>
<path d="M12 6L18 0H6L12 6Z" fill="url(#paint3_linear_676_2878)"/>
<path d="M18 24L24 18H12L18 24Z" fill="url(#paint4_linear_676_2878)"/>
<path d="M6 24L12 18H0L6 24Z" fill="url(#paint5_linear_676_2878)"/>
<path d="M18 0L12 6H24L18 0Z" fill="url(#paint6_linear_676_2878)"/>
<path d="M0 6H12L6 0L0 6Z" fill="url(#paint7_linear_676_2878)"/>
<path d="M12 18L6 24H18L12 18Z" fill="url(#paint8_linear_676_2878)"/>
<path d="M6 12L0 18H12L6 12Z" fill="url(#paint9_linear_676_2878)"/>
<path d="M12 6H0L6 12L12 6Z" fill="url(#paint10_linear_676_2878)"/>
<path d="M31.5439 14.9891C30.659 14.9891 29.9736 14.7461 29.4876 14.2601C29.0089 13.7669 28.7695 12.9944 28.7695 11.9427C28.7695 11.2174 28.8928 10.6262 29.1395 10.1693C29.3861 9.7123 29.727 9.37501 30.1622 9.15741C30.6046 8.93981 31.1124 8.83101 31.6854 8.83101C32.0916 8.83101 32.4433 8.87091 32.7407 8.95069C33.0454 9.03048 33.3101 9.12477 33.535 9.23357L33.0563 10.4848C32.8024 10.3832 32.563 10.2998 32.3382 10.2345C32.1206 10.1693 31.903 10.1366 31.6854 10.1366C30.844 10.1366 30.4233 10.735 30.4233 11.9318C30.4233 12.5266 30.5321 12.9654 30.7497 13.2483C30.9745 13.5312 31.2864 13.6726 31.6854 13.6726C32.0263 13.6726 32.3273 13.6291 32.5884 13.5421C32.8495 13.4478 33.1034 13.3208 33.35 13.1613V14.543C33.1034 14.7026 32.8423 14.815 32.5667 14.8803C32.2983 14.9528 31.9574 14.9891 31.5439 14.9891Z" fill="white"/>
<path d="M38.0357 8.83101C38.1155 8.83101 38.2098 8.83464 38.3186 8.8419C38.4274 8.84915 38.5144 8.86003 38.5797 8.87453L38.46 10.3977C38.4093 10.3832 38.3331 10.3723 38.2316 10.3651C38.1373 10.3506 38.0539 10.3433 37.9813 10.3433C37.7057 10.3433 37.441 10.3941 37.1871 10.4957C36.9332 10.5899 36.7265 10.7459 36.5669 10.9635C36.4146 11.1811 36.3384 11.4785 36.3384 11.8557V14.8803H34.7173V8.93982H35.9468L36.1861 9.94077H36.2623C36.4364 9.63613 36.6757 9.37501 36.9804 9.15741C37.285 8.93981 37.6368 8.83101 38.0357 8.83101Z" fill="white"/>
<path d="M38.8093 8.93982H40.5828L41.7034 12.28C41.7614 12.4395 41.8049 12.6064 41.834 12.7805C41.863 12.9473 41.8847 13.125 41.8992 13.3136H41.9319C41.9536 13.125 41.9826 12.9473 42.0189 12.7805C42.0624 12.6064 42.1096 12.4395 42.1604 12.28L43.2592 8.93982H45L42.4868 15.6419C42.2619 16.2584 41.9319 16.719 41.4967 17.0237C41.0687 17.3355 40.5719 17.4915 40.0061 17.4915C39.8248 17.4915 39.6652 17.4806 39.5274 17.4589C39.3968 17.4443 39.2808 17.4262 39.1792 17.4045V16.1206C39.259 16.1351 39.3533 16.1496 39.4621 16.1641C39.5782 16.1786 39.6978 16.1859 39.8212 16.1859C40.1621 16.1859 40.4304 16.0807 40.6263 15.8704C40.8294 15.6673 40.9781 15.4207 41.0724 15.1305L41.1703 14.8368L38.8093 8.93982Z" fill="white"/>
<path d="M49.1599 8.83101C49.8272 8.83101 50.3675 9.09213 50.781 9.61437C51.1944 10.1294 51.4011 10.891 51.4011 11.8992C51.4011 12.9074 51.1872 13.6762 50.7592 14.2057C50.3313 14.728 49.7836 14.9891 49.1163 14.9891C48.6884 14.9891 48.3475 14.9129 48.0936 14.7606C47.8397 14.601 47.633 14.4233 47.4735 14.2275H47.3864C47.4444 14.5321 47.4735 14.8223 47.4735 15.0979V17.4915H45.8523V8.93982H47.1688L47.3973 9.71229H47.4735C47.633 9.47293 47.847 9.26621 48.1154 9.09213C48.3837 8.91805 48.7319 8.83101 49.1599 8.83101ZM48.6376 10.1257C48.2169 10.1257 47.9195 10.2563 47.7455 10.5174C47.5786 10.7785 47.488 11.1775 47.4735 11.7142V11.8883C47.4735 12.4613 47.5569 12.9038 47.7237 13.2157C47.8978 13.5203 48.2097 13.6726 48.6594 13.6726C49.0293 13.6726 49.3013 13.5203 49.4754 13.2157C49.6567 12.9038 49.7474 12.4577 49.7474 11.8774C49.7474 10.7096 49.3775 10.1257 48.6376 10.1257Z" fill="white"/>
<path d="M55.2397 13.6944C55.4211 13.6944 55.5952 13.6762 55.762 13.64C55.9288 13.6037 56.0956 13.5602 56.2625 13.5094V14.7171C56.0884 14.7896 55.8708 14.8513 55.6097 14.9021C55.3558 14.9601 55.0765 14.9891 54.7719 14.9891C54.4165 14.9891 54.0973 14.9311 53.8145 14.815C53.5388 14.699 53.3176 14.4995 53.1508 14.2166C52.9912 13.9265 52.9114 13.5275 52.9114 13.0198V10.1584H52.1389V9.47293L53.0311 8.92893L53.4989 7.67773H54.5325V8.93982H56.1972V10.1584H54.5325V13.0198C54.5325 13.2447 54.5978 13.4151 54.7284 13.5312C54.8589 13.64 55.0294 13.6944 55.2397 13.6944Z" fill="white"/>
<path d="M62.8513 11.8992C62.8513 12.8856 62.5902 13.6472 62.068 14.184C61.553 14.7207 60.8494 14.9891 59.9572 14.9891C59.406 14.9891 58.9128 14.8694 58.4776 14.6301C58.0496 14.3907 57.7123 14.0425 57.4657 13.5856C57.2191 13.1214 57.0958 12.5592 57.0958 11.8992C57.0958 10.9127 57.3533 10.1547 57.8683 9.62525C58.3833 9.09576 59.0905 8.83101 59.9899 8.83101C60.5484 8.83101 61.0416 8.95069 61.4696 9.19006C61.8975 9.42942 62.2348 9.77758 62.4814 10.2345C62.728 10.6842 62.8513 11.2391 62.8513 11.8992ZM58.7496 11.8992C58.7496 12.4867 58.8439 12.9328 59.0324 13.2374C59.2283 13.5348 59.5438 13.6835 59.979 13.6835C60.4069 13.6835 60.7152 13.5348 60.9038 13.2374C61.0996 12.9328 61.1976 12.4867 61.1976 11.8992C61.1976 11.3117 61.0996 10.8728 60.9038 10.5827C60.7152 10.2853 60.4033 10.1366 59.9681 10.1366C59.5402 10.1366 59.2283 10.2853 59.0324 10.5827C58.8439 10.8728 58.7496 11.3117 58.7496 11.8992Z" fill="white"/>
<path d="M67.5639 8.83101C68.2022 8.83101 68.7135 9.00509 69.098 9.35325C69.4824 9.69416 69.6746 10.2454 69.6746 11.007V14.8803H68.0535V11.4096C68.0535 10.9816 67.9773 10.6625 67.825 10.4521C67.6727 10.2345 67.4297 10.1257 67.0961 10.1257C66.6028 10.1257 66.2655 10.2962 66.0842 10.6371C65.9029 10.9707 65.8122 11.4531 65.8122 12.0841V14.8803H64.1911V8.93982H65.4314L65.649 9.70142H65.7361C65.9246 9.39678 66.1821 9.17555 66.5085 9.03773C66.8422 8.89992 67.194 8.83101 67.5639 8.83101Z" fill="white"/>
<path d="M73.7897 8.83101C74.6093 8.83101 75.2585 9.06675 75.7372 9.53821C76.216 10.0024 76.4553 10.6661 76.4553 11.5293V12.3126H72.6256C72.6401 12.7696 72.7743 13.1286 73.0281 13.3897C73.2892 13.6509 73.6483 13.7814 74.1052 13.7814C74.4897 13.7814 74.8378 13.7451 75.1497 13.6726C75.4616 13.5928 75.7844 13.4731 76.118 13.3136V14.5648C75.8279 14.7098 75.5196 14.815 75.1932 14.8803C74.8741 14.9528 74.486 14.9891 74.0291 14.9891C73.4343 14.9891 72.9084 14.8803 72.4515 14.6627C71.9945 14.4378 71.6355 14.1006 71.3744 13.6509C71.1132 13.2011 70.9827 12.6354 70.9827 11.9536C70.9827 11.2573 71.0987 10.6806 71.3308 10.2237C71.5702 9.75944 71.9002 9.41128 72.3209 9.17917C72.7416 8.94707 73.2312 8.83101 73.7897 8.83101ZM73.8006 9.98429C73.4887 9.98429 73.2276 10.0858 73.0172 10.2889C72.8141 10.492 72.6945 10.8075 72.6582 11.2355H74.9321C74.9249 10.8728 74.8306 10.5754 74.6492 10.3433C74.4679 10.104 74.185 9.98429 73.8006 9.98429Z" fill="white"/>
<path d="M81.9855 12.8022C81.9565 12.6789 81.913 12.4976 81.855 12.2582C81.8042 12.0116 81.7461 11.7505 81.6809 11.4749C81.6156 11.192 81.5539 10.9345 81.4959 10.7024C81.4379 10.463 81.398 10.2889 81.3762 10.1801H81.3327C81.3109 10.2889 81.2711 10.463 81.213 10.7024C81.1623 10.9345 81.1042 11.192 81.0389 11.4749C80.9737 11.7505 80.912 12.0116 80.854 12.2582C80.796 12.5048 80.7524 12.6934 80.7234 12.824L80.2447 14.8803H78.5039L76.8175 8.93982H78.4277L79.1132 11.5728C79.164 11.7541 79.2075 11.9717 79.2437 12.2256C79.2873 12.4794 79.3272 12.7261 79.3634 12.9654C79.3997 13.1975 79.4251 13.3825 79.4396 13.5203H79.4831C79.4904 13.4187 79.5049 13.2846 79.5266 13.1177C79.5484 12.9437 79.5738 12.7659 79.6028 12.5846C79.6391 12.4033 79.6681 12.2401 79.6898 12.095C79.7188 11.9427 79.7406 11.8411 79.7551 11.7904L80.4841 8.93982H82.2684L82.9647 11.7904C82.9937 11.8919 83.0264 12.0551 83.0626 12.28C83.1062 12.5048 83.1424 12.7333 83.1714 12.9654C83.2077 13.1975 83.2258 13.3825 83.2258 13.5203H83.2694C83.2839 13.397 83.3092 13.2193 83.3455 12.9872C83.3818 12.7478 83.4217 12.4976 83.4652 12.2365C83.516 11.9753 83.5667 11.7541 83.6175 11.5728L84.3247 8.93982H85.9132L84.205 14.8803H82.4425L81.9855 12.8022Z" fill="white"/>
<path d="M91.0208 13.1177C91.0208 13.7198 90.8068 14.184 90.3788 14.5104C89.9581 14.8295 89.3271 14.9891 88.4857 14.9891C88.0723 14.9891 87.7169 14.9601 87.4195 14.9021C87.1221 14.8513 86.8247 14.7642 86.5273 14.6409V13.3027C86.8465 13.4478 87.191 13.5674 87.5609 13.6617C87.9308 13.756 88.2572 13.8032 88.5401 13.8032C88.8593 13.8032 89.0841 13.756 89.2147 13.6617C89.3525 13.5674 89.4214 13.4441 89.4214 13.2918C89.4214 13.1903 89.3924 13.0996 89.3344 13.0198C89.2836 12.94 89.1675 12.8494 88.9862 12.7478C88.8049 12.6463 88.522 12.5157 88.1376 12.3561C87.7676 12.1966 87.463 12.0406 87.2236 11.8883C86.9843 11.7287 86.8066 11.5401 86.6905 11.3225C86.5745 11.0977 86.5164 10.8184 86.5164 10.4848C86.5164 9.93352 86.7304 9.52008 87.1584 9.24445C87.5863 8.96883 88.1557 8.83101 88.8665 8.83101C89.2364 8.83101 89.5882 8.86728 89.9219 8.93982C90.2555 9.01235 90.6001 9.13203 90.9555 9.29885L90.4659 10.463C90.1757 10.3397 89.9001 10.2382 89.639 10.1584C89.3779 10.0713 89.1131 10.0278 88.8448 10.0278C88.366 10.0278 88.1267 10.1584 88.1267 10.4195C88.1267 10.5138 88.1557 10.6008 88.2137 10.6806C88.279 10.7531 88.3987 10.8329 88.5728 10.92C88.7541 11.007 89.0188 11.1231 89.367 11.2681C89.7079 11.4059 90.0017 11.551 90.2483 11.7033C90.4949 11.8484 90.6835 12.0334 90.814 12.2582C90.9519 12.4758 91.0208 12.7623 91.0208 13.1177Z" fill="white"/>
<defs>
<linearGradient id="paint0_linear_676_2878" x1="11.9938" y1="15.0073" x2="23.9938" y2="15.0073" gradientUnits="userSpaceOnUse">
<stop stop-color="white" stop-opacity="0.52"/>
<stop offset="1" stop-color="white" stop-opacity="0.62"/>
</linearGradient>
<linearGradient id="paint1_linear_676_2878" x1="-0.00624" y1="12.0097" x2="5.99376" y2="12.0097" gradientUnits="userSpaceOnUse">
<stop stop-color="white"/>
<stop offset="1" stop-color="white" stop-opacity="0.97"/>
</linearGradient>
<linearGradient id="paint2_linear_676_2878" x1="11.9938" y1="9.01218" x2="23.9938" y2="9.01218" gradientUnits="userSpaceOnUse">
<stop stop-color="white" stop-opacity="0.52"/>
<stop offset="1" stop-color="white" stop-opacity="0.62"/>
</linearGradient>
<linearGradient id="paint3_linear_676_2878" x1="5.99376" y1="3.01704" x2="17.9938" y2="3.01704" gradientUnits="userSpaceOnUse">
<stop stop-color="white" stop-opacity="0.8"/>
<stop offset="1" stop-color="white" stop-opacity="0.7"/>
</linearGradient>
<linearGradient id="paint4_linear_676_2878" x1="11.9938" y1="21.0025" x2="23.9938" y2="21.0025" gradientUnits="userSpaceOnUse">
<stop stop-color="white" stop-opacity="0.67"/>
<stop offset="1" stop-color="white" stop-opacity="0.62"/>
</linearGradient>
<linearGradient id="paint5_linear_676_2878" x1="-0.00624" y1="21.0025" x2="11.9938" y2="21.0025" gradientUnits="userSpaceOnUse">
<stop stop-color="white" stop-opacity="0.89"/>
<stop offset="1" stop-color="white" stop-opacity="0.8"/>
</linearGradient>
<linearGradient id="paint6_linear_676_2878" x1="11.9938" y1="3.01704" x2="23.9938" y2="3.01704" gradientUnits="userSpaceOnUse">
<stop stop-color="white" stop-opacity="0.67"/>
<stop offset="1" stop-color="white" stop-opacity="0.62"/>
</linearGradient>
<linearGradient id="paint7_linear_676_2878" x1="-0.00624" y1="3.01704" x2="11.9938" y2="3.01704" gradientUnits="userSpaceOnUse">
<stop stop-color="white" stop-opacity="0.89"/>
<stop offset="1" stop-color="white" stop-opacity="0.8"/>
</linearGradient>
<linearGradient id="paint8_linear_676_2878" x1="5.99376" y1="21.0025" x2="17.9938" y2="21.0025" gradientUnits="userSpaceOnUse">
<stop stop-color="white" stop-opacity="0.8"/>
<stop offset="1" stop-color="white" stop-opacity="0.7"/>
</linearGradient>
<linearGradient id="paint9_linear_676_2878" x1="-0.00624" y1="15.0073" x2="11.9938" y2="15.0073" gradientUnits="userSpaceOnUse">
<stop stop-color="white" stop-opacity="0.9"/>
<stop offset="1" stop-color="white" stop-opacity="0.95"/>
</linearGradient>
<linearGradient id="paint10_linear_676_2878" x1="-0.00624" y1="9.01218" x2="11.9938" y2="9.01218" gradientUnits="userSpaceOnUse">
<stop stop-color="white" stop-opacity="0.9"/>
<stop offset="1" stop-color="white" stop-opacity="0.95"/>
</linearGradient>
</defs>
</svg>
