<?xml version="1.0" encoding="utf-8"?>
<!-- Generator: Adobe Illustrator 24.3.0, SVG Export Plug-In . SVG Version: 6.00 Build 0)  -->
<svg version="1.1" id="Layer_1" xmlns="http://www.w3.org/2000/svg" xmlns:xlink="http://www.w3.org/1999/xlink" x="0px" y="0px"
	 viewBox="0 0 327 150" style="enable-background:new 0 0 327 150; fill:none;" xml:space="preserve">
<style type="text/css">
	.st0{fill:#FFFFFF;}
</style>
<rect width="327" height="150"/>
<g>
	<g>
		<path class="st0" d="M129.9,97.86c1.87,0,2.65,0.67,2.65,2.31v3.16c0,1.6-0.8,2.27-2.65,2.27h-2.55v-7.75H129.9z M129.9,104.35
			c1.01,0,1.26-0.35,1.26-1.09v-3.02c0-0.73-0.16-1.12-1.24-1.12h-1.19v5.22H129.9z"/>
		<path class="st0" d="M138.17,103.79c0,1.25-0.75,1.84-2.31,1.84c-1.56,0-2.3-0.71-2.3-2.31v-1.35c0-1.49,0.75-2.31,2.3-2.31
			c1.56,0,2.31,0.71,2.31,2.31v1.18h-3.22v0.15c0,0.96,0.37,1.14,0.93,1.14c0.65,0,0.93-0.23,0.93-0.64H138.17z M134.95,102.01h1.88
			c0-0.74-0.14-1.16-0.92-1.16C135.09,100.85,134.95,101.29,134.95,102.01z"/>
		<path class="st0" d="M139.41,97.85h1.38v5.56c0,0.65,0.12,0.87,0.69,0.87v1.33c-1.6,0-2.07-0.47-2.07-2.17V97.85z"/>
		<path class="st0" d="M143.98,98.48c0,1.01-1.56,1.02-1.56,0C142.42,97.45,143.98,97.46,143.98,98.48z M143.88,105.62h-1.38V99.8
			h1.38V105.62z"/>
		<path class="st0" d="M149.5,99.67l-1.82,5.95h-1.22l-1.82-5.95h1.44l0.53,1.78c0.2,0.8,0.36,1.74,0.46,2.49
			c0.11-0.77,0.26-1.68,0.46-2.49l0.52-1.78H149.5z"/>
		<path class="st0" d="M154.66,103.79c0,1.25-0.75,1.84-2.3,1.84c-1.56,0-2.3-0.71-2.3-2.31v-1.35c0-1.49,0.75-2.31,2.3-2.31
			c1.56,0,2.3,0.71,2.3,2.31v1.18h-3.22v0.15c0,0.96,0.37,1.14,0.93,1.14c0.65,0,0.93-0.23,0.93-0.64H154.66z M151.44,102.01h1.88
			c0-0.74-0.14-1.16-0.93-1.16C151.59,100.85,151.44,101.29,151.44,102.01z"/>
		<path class="st0" d="M158.78,101.1c-0.9-0.12-1.6,0.23-1.6,1.12v3.4h-1.38v-5.95h1.27l0.06,0.62c0.24-0.41,0.92-0.78,1.65-0.65
			V101.1z"/>
		<path class="st0" d="M161.27,98.48c0,1.01-1.56,1.02-1.56,0C159.71,97.45,161.27,97.46,161.27,98.48z M161.17,105.62h-1.38V99.8
			h1.38V105.62z"/>
		<path class="st0" d="M162.69,99.67h1.2l0.07,0.6c0.37-0.44,0.9-0.64,1.4-0.64c0.98-0.01,1.93,0.5,1.93,2.31v3.66h-1.37v-3.65
			c0-0.76-0.32-1.08-0.9-1.08c-0.53,0-0.96,0.26-0.96,1.03v3.7h-1.38V99.67z"/>
		<path class="st0" d="M168.49,103.42v-1.48c0-1.65,0.77-2.29,1.93-2.29c0.67,0,1.12,0.26,1.35,0.69l0.1-0.66h1.14v6.09
			c0,1.54-0.8,2.27-2.24,2.27c-1.45,0-2.14-0.62-2.14-1.88h1.32c0,0.46,0.27,0.71,0.83,0.71c0.72,0,0.96-0.37,0.96-1.11v-0.71
			c-0.21,0.32-0.56,0.6-1.26,0.6C169.23,105.64,168.49,104.95,168.49,103.42z M171.65,103.21v-1.16c0-0.68-0.22-1.19-0.9-1.19
			c-0.54,0-0.88,0.28-0.88,1.14v1.24c0,0.84,0.28,1.18,0.85,1.18C171.43,104.42,171.65,103.97,171.65,103.21z"/>
		<path class="st0" d="M180.41,99.13h-1.6v6.48h-1.38v-6.48h-1.61v-1.24h4.59V99.13z"/>
		<path class="st0" d="M183.01,101.1c-0.9-0.12-1.6,0.23-1.6,1.12v3.4h-1.38v-5.95h1.27l0.06,0.62c0.24-0.41,0.92-0.78,1.65-0.65
			V101.1z"/>
		<path class="st0" d="M188.6,105.6h-1.23l-0.07-0.6c-0.37,0.44-0.9,0.64-1.4,0.64c-0.98,0.01-1.93-0.5-1.93-2.31v-3.66h1.37v3.65
			c0,0.76,0.32,1.07,0.9,1.07c0.53,0,0.96-0.26,0.96-1.03v-3.7h1.41V105.6z"/>
		<path class="st0" d="M192.82,101.53c0-0.45-0.35-0.65-0.8-0.65c-0.53,0-0.85,0.21-0.85,0.62c0,0.65,0.68,0.56,1.48,0.65
			c0.8,0.09,1.59,0.56,1.59,1.62c0,1.3-1.02,1.86-2.29,1.86c-1.41,0-2.25-0.71-2.25-1.86h1.4c0.03,0.41,0.25,0.65,0.92,0.65
			c0.55,0,0.84-0.31,0.84-0.6c0-0.5-0.65-0.51-1.37-0.6c-0.87-0.11-1.7-0.48-1.7-1.65c0-1.34,0.96-1.93,2.24-1.93
			c1.46,0,2.15,0.83,2.15,1.89H192.82z"/>
		<path class="st0" d="M195.2,98.65l1.38-0.15v1.16h1.01v1.26h-1.01v2.51c0,0.65,0.1,1.1,1.03,0.99v1.21
			c-1.75,0.19-2.41-0.41-2.41-2.17V98.65z"/>
		<path class="st0" d="M203.06,103.79c0,1.25-0.75,1.84-2.31,1.84c-1.56,0-2.3-0.71-2.3-2.31v-1.35c0-1.49,0.75-2.31,2.3-2.31
			c1.56,0,2.31,0.71,2.31,2.31v1.18h-3.22v0.15c0,0.96,0.37,1.14,0.94,1.14c0.65,0,0.93-0.23,0.93-0.64H203.06z M199.84,102.01h1.88
			c0-0.74-0.14-1.16-0.93-1.16C199.98,100.85,199.84,101.29,199.84,102.01z"/>
		<path class="st0" d="M207.59,105.61l-0.1-0.65c-0.23,0.42-0.72,0.68-1.4,0.68c-1.17,0-1.95-0.64-1.95-2.29v-1.53
			c0-1.4,0.67-2.21,1.99-2.21c0.48,0,0.99,0.13,1.22,0.52v-2.26h1.38v7.75H207.59z M205.52,101.88v1.4c0,0.86,0.35,1.14,0.89,1.14
			c0.68,0,0.94-0.5,0.94-1.19v-1.36c0-0.71-0.34-0.99-0.9-0.99C205.86,100.88,205.52,101.16,205.52,101.88z"/>
		<path class="st0" d="M217.86,103.21c0,1.7-0.8,2.42-2.65,2.42c-1.84,0-2.58-0.71-2.58-2.31v-3.15c0-1.64,0.71-2.31,2.58-2.31
			c1.87,0,2.65,0.69,2.65,2.4h-1.39c0-0.75-0.18-1.18-1.26-1.18c-1.01,0-1.2,0.42-1.2,1.16v3.01c0,0.74,0.19,1.16,1.2,1.16
			c1.01,0,1.26-0.42,1.26-1.19H217.86z"/>
		<path class="st0" d="M218.69,103.4v-1.43c0-1.56,0.74-2.31,2.3-2.31c1.56,0,2.3,0.71,2.3,2.31v1.43c0,1.6-0.74,2.31-2.3,2.31
			C219.43,105.71,218.69,105,218.69,103.4z M221.91,103.33v-1.29c0-0.73-0.19-1.16-0.92-1.16c-0.72,0-0.92,0.42-0.92,1.16v1.29
			c0,0.73,0.19,1.16,0.92,1.16C221.72,104.48,221.91,104.06,221.91,103.33z"/>
		<path class="st0" d="M224.6,99.67h1.2l0.07,0.6c0.37-0.44,0.9-0.64,1.4-0.64c0.98-0.01,1.93,0.5,1.93,2.31v3.66h-1.37v-3.65
			c0-0.76-0.32-1.08-0.9-1.08c-0.53,0-0.96,0.26-0.96,1.03v3.7h-1.38V99.67z"/>
		<path class="st0" d="M230.69,99.67h1.2l0.07,0.6c0.37-0.44,0.9-0.64,1.4-0.64c0.98-0.01,1.93,0.5,1.93,2.31v3.66h-1.37v-3.65
			c0-0.76-0.32-1.08-0.9-1.08c-0.53,0-0.95,0.26-0.95,1.03v3.7h-1.38V99.67z"/>
		<path class="st0" d="M241.13,103.79c0,1.25-0.75,1.84-2.31,1.84c-1.56,0-2.3-0.71-2.3-2.31v-1.35c0-1.49,0.75-2.31,2.3-2.31
			c1.56,0,2.31,0.71,2.31,2.31v1.18h-3.22v0.15c0,0.96,0.37,1.14,0.93,1.14c0.65,0,0.93-0.23,0.93-0.64H241.13z M237.91,102.01h1.88
			c0-0.74-0.14-1.16-0.92-1.16C238.05,100.85,237.91,101.29,237.91,102.01z"/>
		<path class="st0" d="M245.47,101.88c0-0.67-0.24-1-0.93-1c-0.76,0-0.99,0.42-0.99,1.16v1.29c0,0.73,0.19,1.16,0.92,1.16
			c0.73,0,0.99-0.31,1-1.02h1.31c0,1.6-0.74,2.24-2.3,2.24c-1.56,0-2.3-0.71-2.3-2.35v-1.33c0-1.6,0.79-2.38,2.34-2.38
			c1.56,0,2.26,0.63,2.26,2.23H245.47z"/>
		<path class="st0" d="M247.88,98.65l1.38-0.15v1.16h1.01v1.26h-1.01v2.51c0,0.65,0.1,1.1,1.03,0.99v1.21
			c-1.75,0.19-2.41-0.41-2.41-2.17V98.65z"/>
		<path class="st0" d="M252.79,98.48c0,1.01-1.56,1.02-1.56,0C251.23,97.45,252.79,97.46,252.79,98.48z M252.69,105.62h-1.38V99.8
			h1.38V105.62z"/>
		<path class="st0" d="M258.31,99.67l-1.82,5.95h-1.22l-1.82-5.95h1.44l0.53,1.78c0.2,0.8,0.36,1.74,0.46,2.49
			c0.11-0.77,0.26-1.68,0.46-2.49l0.52-1.78H258.31z"/>
		<path class="st0" d="M260.52,98.48c0,1.01-1.56,1.02-1.56,0C258.97,97.45,260.52,97.46,260.52,98.48z M260.42,105.62h-1.38V99.8
			h1.38V105.62z"/>
		<path class="st0" d="M261.8,98.65l1.38-0.15v1.16h1.01v1.26h-1.01v2.51c0,0.65,0.1,1.1,1.03,0.99v1.21
			c-1.75,0.19-2.4-0.41-2.4-2.17V98.65z"/>
		<path class="st0" d="M269.52,99.67l-1.76,5.87h0.01l-0.32,1.15c-0.38,1.34-1.18,1.48-2.31,1.03l0.21-1.02
			c0.35,0.08,0.72,0.23,0.87-0.29l0.23-0.83l-1.78-5.9h1.44l0.53,1.78c0.2,0.8,0.36,1.74,0.46,2.49c0.11-0.77,0.26-1.68,0.46-2.49
			l0.52-1.78H269.52z"/>
	</g>
</g>
<g>
	<g>
		<g>
			<path class="st0" d="M146.52,75.24c0-4.13-1.52-7.52-4.52-10.09c-3.01-2.57-6.94-3.88-11.67-3.88h-15.69v7h15.69
				c2.36,0,4.35,0.69,5.91,2.05c1.58,1.37,2.38,3.15,2.38,5.28c0,2.13-0.8,3.88-2.36,5.2c-1.54,1.3-3.54,1.96-5.92,1.96h-7.71V72.16
				h-7.98v17.57h15.69c4.65,0,8.56-1.39,11.61-4.14C144.98,82.85,146.52,79.37,146.52,75.24z"/>
			<path class="st0" d="M156.18,75.24c0,4.14,1.55,7.62,4.58,10.35c3.05,2.75,6.96,4.14,11.61,4.14h13.77v-6.96h-13.77
				c-2.36,0-4.35-0.67-5.89-1.98c-1.56-1.33-2.36-3.07-2.36-5.18c0-2.13,0.79-3.91,2.36-5.28c1.54-1.36,3.53-2.05,5.9-2.05h13.77v-7
				h-13.77c-4.73,0-8.66,1.31-11.68,3.88C157.7,67.71,156.18,71.11,156.18,75.24z"/>
			<path class="st0" d="M256.95,61.27h-7.98v16.74L231.7,62.48c-1.23-1.09-2.13-1.17-3.18-1.17c-1.12,0-1.98,0.33-2.57,0.97
				c-0.6,0.65-0.89,1.46-0.89,2.47v24.98h7.98v-16.7l17.27,15.53c1.44,1.27,2.45,1.38,3.53,1.38c2.1,0,3.12-1.21,3.12-3.68V61.27z"
				/>
			<polygon class="st0" points="291.34,61.27 259.91,61.27 259.91,68.27 271.64,68.27 271.64,89.73 279.62,89.73 279.62,68.27
				291.34,68.27 			"/>
		</g>
	</g>
	<polygon class="st0" points="211.97,68.27 218.55,61.27 190.03,61.27 190.03,89.73 217.16,89.73 217.16,82.77 198.01,82.77
		198.01,78.8 217.16,78.8 217.16,72.12 198.01,72.12 198.01,68.27 	"/>
	<polygon class="st0" points="153.06,67.54 149.37,67.54 146.58,60.03 155.85,60.03 	"/>
	<g>
		<polygon class="st0" points="70.69,53.37 76,50.31 76,43.01 70.69,39.95 70.69,39.94 		"/>
		<path class="st0" d="M51.19,85.19V64.64l17.71-10.22V39.95L39.56,56.88c-0.56,0.32-0.9,0.92-0.9,1.56v33.88
			c0,0.03,0.01,0.07,0.01,0.1L51.19,85.19z"/>
		<path class="st0" d="M87.52,86.63L69.8,96.87L52.18,86.7l-12.53,7.23l29.25,16.89c0.28,0.16,0.59,0.24,0.9,0.24
			c0.31,0,0.62-0.08,0.9-0.24l29.34-16.94c0.01,0,0.01-0.01,0.02-0.01L87.52,86.63z"/>
		<g>
			<path class="st0" d="M100.03,56.88l-11.63-6.71v7.3l-12.5,7.22l12.5,7.21v13.16l12.53,7.23V58.44
				C100.93,57.8,100.59,57.21,100.03,56.88z"/>
		</g>
		<polygon class="st0" points="63.59,71.8 63.59,86.12 75.76,79.1 75.76,64.77 		"/>
	</g>
</g>
</svg>
