<?xml version="1.0" encoding="UTF-8" standalone="no"?>
<svg
   xmlns:dc="http://purl.org/dc/elements/1.1/"
   xmlns:cc="http://creativecommons.org/ns#"
   xmlns:rdf="http://www.w3.org/1999/02/22-rdf-syntax-ns#"
   xmlns:svg="http://www.w3.org/2000/svg"
   xmlns="http://www.w3.org/2000/svg"
   xmlns:sodipodi="http://sodipodi.sourceforge.net/DTD/sodipodi-0.dtd"
   xmlns:inkscape="http://www.inkscape.org/namespaces/inkscape"
   viewBox="0 0 200 60.000002"
   width="200"
   height="60"
   version="1.1"
   id="svg24089"
   sodipodi:docname="Flashift LogoSolveFont.svg"
   inkscape:version="1.0.1 (3bc2e813f5, 2020-09-07)">
  <metadata
     id="metadata24093">
    <rdf:RDF>
      <cc:Work
         rdf:about="">
        <dc:format>image/svg+xml</dc:format>
        <dc:type
           rdf:resource="http://purl.org/dc/dcmitype/StillImage" />
        <dc:title></dc:title>
      </cc:Work>
    </rdf:RDF>
  </metadata>
  <sodipodi:namedview
     pagecolor="#000000"
     bordercolor="#666666"
     borderopacity="1"
     objecttolerance="10"
     gridtolerance="10"
     guidetolerance="10"
     inkscape:pageopacity="0"
     inkscape:pageshadow="2"
     inkscape:window-width="1366"
     inkscape:window-height="705"
     id="namedview24091"
     showgrid="false"
     inkscape:zoom="3.1678476"
     inkscape:cx="127.40377"
     inkscape:cy="45.214536"
     inkscape:window-x="-8"
     inkscape:window-y="-8"
     inkscape:window-maximized="1"
     inkscape:current-layer="g24085"
     inkscape:document-rotation="0"
     showguides="true"
     inkscape:guide-bbox="true" />
  <defs
     id="defs24067">
    <rect
       x="-24.107073"
       y="-20.535654"
       width="248.65999"
       height="105.80326"
       id="rect24218" />
    <rect
       x="3.5714181"
       y="2.6785636"
       width="191.96373"
       height="53.124845"
       id="rect24208" />
    <marker
       id="DistanceX"
       orient="auto"
       refX="0"
       refY="0"
       style="overflow:visible">
      <path
         d="M 3,-3 -3,3 M 0,-5 V 5"
         style="stroke:#000000;stroke-width:0.5"
         id="path24054" />
    </marker>
    <pattern
       id="Hatch"
       patternUnits="userSpaceOnUse"
       width="8"
       height="8"
       x="0"
       y="0">
      <path
         d="M8 4 l-4,4"
         stroke="#000000"
         stroke-width="0.25"
         linecap="square"
         id="path24057" />
      <path
         d="M6 2 l-4,4"
         stroke="#000000"
         stroke-width="0.25"
         linecap="square"
         id="path24059" />
      <path
         d="M4 0 l-4,4"
         stroke="#000000"
         stroke-width="0.25"
         linecap="square"
         id="path24061" />
    </pattern>
    <symbol
       id="*Model_Space" />
    <symbol
       id="*Paper_Space" />
    <symbol
       id="*Paper_Space0" />
  </defs>
  <g
     inkscape:groupmode="layer"
     inkscape:label="0"
     id="g24085">
    <path
       d="M 75.407798,39.127384 69.176739,38.06587 v 14.43399 l 6.231059,4.370051 z"
       style="fill:#f39c11;fill-opacity:1;stroke:#f39c12;stroke-width:0.0880537;stroke-opacity:1"
       id="path24069" />
    <path
       d="M 125.01765,36.456647 75.407798,28.005181 V 3.6844431 l -6.231059,4.370051 V 33.264498 l 49.609851,8.451469 v 5.313825 a 4.1540395,4.1540395 0 0 1 -4.15404,4.154037 H 94.82898 A 4.1540395,4.1540395 0 0 1 90.674941,47.029792 V 41.728274 L 84.443882,40.66676 v 10.517069 a 6.231059,6.231059 0 0 0 6.231059,6.231058 h 28.111649 a 6.231059,6.231059 0 0 0 6.23106,-6.231058 z"
       style="fill:#f39c11;fill-opacity:1;stroke:#f39c12;stroke-width:0.0880537;stroke-opacity:1"
       id="path24071" />
    <path
       d="m 138.98974,7.4179681 -6.23105,-4.370048 V 20.790444 l 6.23105,1.061514 z"
       style="fill:#f39c11;fill-opacity:1;stroke:#f39c12;stroke-width:0.0880537;stroke-opacity:1"
       id="path24073" />
    <path
       d="M 89.379893,18.201864 V 12.88804 A 4.1540395,4.1540395 0 0 1 93.533932,8.7339981 H 113.3375 a 4.1540395,4.1540395 0 0 1 4.15404,4.1540419 v 5.301514 l 6.23106,1.061517 V 8.7339981 a 6.231059,6.231059 0 0 0 -6.23106,-6.231058 H 89.379893 a 6.231059,6.231059 0 0 0 -6.231059,6.231058 V 23.461181 l 49.609856,8.451466 v 24.320741 l 6.23105,-4.370055 V 26.65333 Z"
       style="fill:#f39c11;fill-opacity:1;stroke:#f39c12;stroke-width:0.0880537;stroke-opacity:1"
       id="path24075" />
    <text
       xml:space="preserve"
       id="text24206"
       style="font-style:normal;font-weight:normal;font-size:42.6667px;line-height:1.25;font-family:sans-serif;white-space:pre;shape-inside:url(#rect24208);fill:#000000;fill-opacity:1;stroke:none;" />
    <g
       aria-label="FLA"
       transform="translate(22.975141,19.32948)"
       id="text24216"
       style="font-size:50.6667px;line-height:1.25;font-family:Impact;-inkscape-font-specification:Impact;white-space:pre;shape-inside:url(#rect24218)">
      <path
         d="m -22.029296,-9.8670343 h 17.6393344 v 8.0156301 h -7.2239624 v 7.5950568 h 6.4322952 v 7.6197964 h -6.4322952 v 16.822927 h -10.415372 z"
         style="shape-inside:url(#rect24218);fill:#ffffff"
         id="path926" />
      <path
         d="M 8.5488487,-9.8670343 V 22.170746 h 6.3333373 v 8.01563 H -1.8665224 V -9.8670343 Z"
         style="shape-inside:url(#rect24218);fill:#ffffff"
         id="path928" />
      <path
         d="M 36.653033,-9.8670343 42.615276,30.186376 H 31.952509 l -0.519532,-7.199223 h -3.735679 l -0.61849,7.199223 H 16.292343 L 21.586617,-9.8670343 Z M 31.136102,15.886888 Q 30.344435,9.0834985 29.552768,-0.91129947 27.969434,10.567874 27.5736,15.886888 Z"
         style="shape-inside:url(#rect24218);fill:#ffffff"
         id="path930" />
    </g>
    <g
       aria-label="IFT"
       id="text24230"
       style="font-size:50.6667px;line-height:1.25;font-family:Impact;-inkscape-font-specification:Impact;fill:#ffffff">
      <path
         d="M 153.86459,9.3916921 V 49.445103 H 143.44922 V 9.3916921 Z"
         style="font-size:50.6667px;fill:#ffffff"
         id="path919" />
      <path
         d="m 158.04558,9.3916921 h 17.63934 v 8.0156299 h -7.22397 v 7.595057 h 6.4323 v 7.619796 h -6.4323 v 16.822928 h -10.41537 z"
         style="font-size:50.6667px;fill:#ffffff"
         id="path921" />
      <path
         d="m 199.18754,9.3916921 v 8.0156299 h -6.1849 V 49.445103 H 182.58727 V 17.407322 h -6.16016 V 9.3916921 Z"
         style="font-size:50.6667px;fill:#ffffff"
         id="path923" />
    </g>
  </g>
  <desc
     id="desc24087">logo5.dxf - scale = 124.819870, origin = (24.200847, 17.891299), method = auto</desc>
</svg>
