<svg width="95" height="122" fill="none" xmlns="http://www.w3.org/2000/svg"><path fill-rule="evenodd" clip-rule="evenodd" d="M86.569 10.12c.085.1.136.226.147.357.053.646 4.735 64.669-39.015 79.58a.627.627 0 01-.405 0C3.547 75.146 8.229 11.123 8.28 10.477a.629.629 0 01.474-.56L47.35.51a.647.647 0 01.297 0L86.24 9.918c.128.03.243.101.329.202zm-7.104 6.836a.51.51 0 01.121.29h.005c.043.526 3.873 52.795-31.926 64.966a.46.46 0 01-.327 0c-35.8-12.171-31.97-64.44-31.926-64.967a.507.507 0 01.387-.453l31.576-7.685a.5.5 0 01.244 0l31.58 7.685a.51.51 0 01.266.164z" fill="#798CE5"/><path d="M47.05 20.579l-21.054 5.12a.345.345 0 00-.258.306c-.027.351-2.58 35.198 21.283 43.313a.363.363 0 00.22 0c23.864-8.117 21.312-42.962 21.283-43.315a.34.34 0 00-.26-.304l-21.053-5.122a.312.312 0 00-.16 0M8.442 115.001v-3.16h5.11v9.294c-2.46.404-4.456.606-5.988.606-2.736 0-4.62-.746-5.653-2.238-1.015-1.492-1.523-3.862-1.523-7.109s.534-5.59 1.6-7.03c1.068-1.439 2.883-2.159 5.447-2.159 1.6 0 3.33.185 5.188.553l.93.185-.104 2.817c-2.065-.228-3.76-.343-5.085-.343-1.307 0-2.228.158-2.762.474-.533.316-.929.904-1.187 1.764-.24.843-.361 2.3-.361 4.371 0 2.054.25 3.493.748 4.318.5.825 1.532 1.238 3.098 1.238l2.142-.106v-3.475h-1.6zM20.324 115.448c0 2.089 1.04 3.134 3.123 3.134 2.082 0 3.123-1.045 3.123-3.134v-11.927h3.562v11.848c0 2.194-.559 3.809-1.677 4.845-1.102 1.018-2.77 1.527-5.008 1.527-2.237 0-3.915-.509-5.033-1.527-1.102-1.036-1.652-2.651-1.652-4.845v-11.848h3.562v11.927zM32.208 121.425l3.95-17.904h6.762l3.95 17.904h-3.563l-.697-3.238h-6.143l-.697 3.238h-3.562zm6.711-14.902l-1.78 8.504h4.8l-1.78-8.504h-1.24zM52.769 115.422v6.003h-3.562v-17.904h6.814c4.13 0 6.195 1.966 6.195 5.898 0 2.335-.86 4.055-2.581 5.161l2.504 6.845H58.24l-2.039-6.003h-3.433zm3.304-3.107c.843 0 1.471-.263 1.884-.79.413-.526.62-1.22.62-2.08 0-.86-.224-1.544-.671-2.053-.43-.509-1.059-.764-1.885-.764H52.77v5.687h3.304zM71.124 121.425h-5.91v-17.904h5.91c1.515 0 2.762.167 3.743.501.981.315 1.738.851 2.272 1.606.55.737.929 1.614 1.135 2.633.207 1 .31 2.308.31 3.923 0 1.614-.094 2.957-.284 4.028a7.851 7.851 0 01-1.084 2.843c-.516.825-1.273 1.431-2.271 1.817-.998.369-2.272.553-3.82.553zm3.743-7.109c.035-.561.052-1.334.052-2.317 0-1-.035-1.799-.103-2.396a4.614 4.614 0 00-.49-1.632 1.998 1.998 0 00-1.162-1.001c-.5-.193-1.18-.289-2.04-.289h-2.349v11.585h2.35c1.29 0 2.228-.334 2.813-1.001.499-.544.809-1.527.93-2.949zM79.95 121.425l3.95-17.904h6.762l3.95 17.904H91.05l-.697-3.238h-6.144l-.697 3.238H79.95zm6.712-14.902l-1.782 8.504h4.802l-1.782-8.504h-1.239z" fill="#798CE5"/></svg>