<svg width="2500" height="674" viewBox="0 0 2500 674" fill="none" xmlns="http://www.w3.org/2000/svg">
<path d="M754.477 512.151V31.6916H787.864V480.46H1016.49V512.151H754.477V512.151ZM1181.6 518.803C1129.82 518.803 1089.78 502.109 1059.79 470.418C1031.48 438.726 1016.36 393.732 1016.36 335.305C1016.36 278.573 1029.66 231.883 1058.09 198.496C1086.39 163.414 1123.17 146.72 1171.55 146.72C1213.29 146.72 1246.67 161.718 1271.71 190.149C1296.75 220.146 1308.36 260.184 1308.36 310.264V337H1049.74C1049.74 385.385 1061.48 423.728 1084.83 448.768C1106.48 475.504 1139.86 487.111 1181.6 487.111C1201.55 487.111 1219.94 485.416 1234.94 482.155C1249.93 478.764 1270.02 473.808 1293.36 463.766V495.458C1273.41 503.805 1255.02 510.456 1238.33 513.847C1219.68 517.238 1200.64 518.933 1181.6 518.803V518.803ZM1171.55 176.847C1136.47 176.847 1109.87 188.584 1088.09 210.234C1068.13 233.579 1054.7 265.27 1051.44 308.699H1271.71C1271.71 266.966 1263.37 235.274 1244.98 211.929C1228.29 188.454 1203.25 176.847 1171.55 176.847ZM1481.95 148.416C1506.99 148.416 1530.33 153.372 1548.72 161.718C1567.11 171.76 1583.8 186.759 1598.8 210.103H1600.5C1598.8 181.803 1598.8 155.067 1598.8 128.331V0H1630.49V512.151H1608.85L1600.5 457.115C1573.76 497.153 1533.72 518.803 1483.64 518.803C1433.56 518.803 1396.92 503.805 1370.18 472.113C1343.44 442.117 1331.84 396.992 1331.84 338.695C1331.84 277.008 1345.14 230.188 1370.18 196.931C1395.22 163.544 1433.56 148.416 1481.95 148.416V148.416ZM1481.95 176.847C1443.61 176.847 1413.61 190.149 1393.52 218.581C1373.57 245.316 1363.53 285.354 1363.53 338.695C1363.53 440.421 1403.57 490.502 1481.95 490.502C1521.99 490.502 1551.98 478.764 1570.37 455.42C1588.76 432.075 1598.67 393.732 1598.67 338.565V333.609C1598.67 278.573 1588.63 238.534 1570.37 215.19C1553.68 188.454 1523.68 176.847 1481.95 176.847ZM1977.41 155.197V178.542L1903.98 183.498C1923.93 208.538 1933.98 235.274 1933.98 263.575C1933.98 298.657 1922.24 325.262 1898.89 347.042C1875.55 368.692 1845.55 378.734 1807.08 378.734C1790.39 378.734 1778.78 378.734 1773.69 377.038C1760.39 383.69 1750.35 392.036 1743.7 400.383C1737.05 410.425 1733.66 418.772 1733.66 430.379C1733.66 441.986 1738.61 450.333 1746.96 455.42C1755.3 460.375 1770.3 463.766 1790.39 463.766H1852.07C1890.42 463.766 1920.41 472.113 1940.5 487.111C1960.58 502.109 1972.19 525.454 1972.19 557.146C1972.19 595.488 1957.19 623.92 1927.2 643.873C1897.2 663.827 1853.77 673.87 1797.04 673.87C1752.04 673.87 1716.96 665.523 1691.92 647.134C1666.88 630.44 1655.27 605.4 1655.27 575.404C1655.27 550.364 1663.62 530.41 1678.62 513.716C1693.62 497.023 1715.27 486.981 1740.31 480.329C1730.26 475.373 1720.35 468.592 1715.27 460.375C1708.75 452.289 1705.22 442.378 1705.22 432.075C1705.22 408.73 1720.22 387.081 1750.22 368.692C1730.26 360.345 1713.57 347.042 1701.83 328.653C1690.1 310.264 1685.14 288.615 1685.14 265.27C1685.14 230.188 1696.88 200.192 1718.53 178.542C1741.87 156.893 1771.87 146.851 1810.34 146.851C1833.69 146.851 1852.07 148.546 1865.38 153.502H1977.15V155.197H1977.41V155.197ZM1687.1 572.274C1687.1 620.659 1723.74 645.699 1797.17 645.699C1890.55 645.699 1937.37 615.703 1937.37 555.58C1937.37 533.931 1930.72 518.933 1915.72 508.891C1900.72 498.849 1877.38 493.893 1843.99 493.893H1785.56C1720.48 495.458 1687.1 520.498 1687.1 572.274V572.274ZM1715.53 265.27C1715.53 293.571 1723.87 313.655 1740.57 330.349C1757.26 345.347 1778.91 353.694 1807.34 353.694C1837.34 353.694 1860.68 345.347 1875.68 330.349C1892.37 315.351 1899.03 293.701 1899.03 265.27C1899.03 235.274 1890.68 211.929 1873.98 196.931C1857.29 181.933 1835.64 173.586 1805.65 173.586C1777.34 173.586 1753.87 181.933 1738.87 198.627C1722.18 213.494 1715.53 236.839 1715.53 265.27V265.27Z" fill="white"/>
<path d="M2139.25 518.803C2087.48 518.803 2047.44 502.109 2017.44 470.418C1989.14 438.726 1974.02 393.732 1974.02 335.305C1974.02 278.573 1987.32 231.883 2015.75 198.496C2044.05 163.414 2080.83 146.72 2129.21 146.72C2170.95 146.72 2204.33 161.718 2229.37 190.149C2254.41 220.146 2266.02 260.184 2266.02 310.264V337H2009.1C2009.1 385.385 2020.84 423.728 2044.18 448.768C2065.83 475.504 2099.22 487.111 2140.95 487.111C2160.9 487.111 2179.29 485.416 2194.29 482.155C2209.29 478.764 2229.37 473.809 2252.72 463.766V495.458C2232.76 503.805 2214.38 510.456 2197.68 513.847C2179.29 517.238 2160.9 518.803 2139.25 518.803V518.803ZM2130.91 176.847C2095.83 176.847 2069.22 188.584 2047.44 210.234C2027.49 233.579 2014.05 265.27 2010.79 308.699H2231.07C2231.07 266.966 2222.72 235.274 2204.33 211.929C2187.64 188.454 2162.6 176.847 2130.91 176.847V176.847ZM2451.21 148.416C2466.21 148.416 2482.91 150.111 2499.6 153.372L2492.95 185.063C2477.56 181.672 2461.91 179.977 2446.26 180.107C2416.26 180.107 2391.22 193.41 2371.14 218.45C2351.18 245.186 2341.14 276.877 2341.14 316.916V512.151H2307.75V155.197H2336.06L2339.45 220.276H2341.14C2356.14 193.54 2371.14 175.282 2387.83 165.24C2407.92 153.502 2427.87 148.416 2451.21 148.416V148.416ZM435.866 16.6936H197.201V337H517.508V100.031C517.638 55.0365 480.86 16.6936 435.866 16.6936V16.6936ZM123.906 16.6936H83.8679C38.8737 16.6936 0.400391 53.341 0.400391 100.161V140.199H123.906V16.6936V16.6936ZM0.400391 215.19H123.906V338.696H0.400391V215.19ZM394.132 535.496H434.17C479.165 535.496 517.638 498.849 517.638 452.029V412.121H394.132V535.496ZM197.201 412.121H320.707V535.627H197.201V412.121ZM0.400391 412.121V452.159C0.400391 497.153 37.0478 535.627 83.8679 535.627H123.906V412.121H0.400391Z" fill="white"/>
</svg>
