<svg width="180" height="48" viewBox="0 0 100 21" fill="none" xmlns="http://www.w3.org/2000/svg">
<g clip-path="url(#clip0)">
<path d="M23.6254 10.9106H24.5704C25.2577 10.9106 25.6873 10.8247 26.0309 10.567C26.2887 10.3092 26.4605 9.96559 26.4605 9.45012C26.4605 8.93466 26.2887 8.59102 25.945 8.41919C25.6014 8.24737 25.1718 8.07555 24.4845 8.07555H23.5395C23.6254 8.07555 23.6254 10.9106 23.6254 10.9106ZM23.6254 12.0274V15.4639H22.2509V6.8728H24.6564C25.7732 6.8728 26.6323 7.13053 27.1478 7.56009C27.6632 7.98964 27.921 8.59102 27.921 9.45012C27.921 10.4811 27.4055 11.2542 26.2887 11.7697L28.6942 15.5498H27.0619L25 12.1134H23.6254V12.0274ZM37.3711 15.4639H32.4742V6.8728H37.3711V8.07555H33.9347V10.3951H37.1993V11.5979H33.9347V14.2611H37.3711V15.4639ZM43.2131 15.4639H41.8385V6.8728H46.6495V8.07555H43.2131V10.7388H46.4777V11.9415H43.2131V15.4639ZM55.6701 15.4639H50.7732V6.8728H55.6701V8.07555H52.2337V10.3951H55.4983V11.5979H52.2337V14.2611H55.6701V15.4639ZM61.512 10.9106H62.457C63.1443 10.9106 63.5739 10.8247 63.9175 10.567C64.1753 10.3092 64.3471 9.96559 64.3471 9.45012C64.3471 8.93466 64.1753 8.59102 63.8316 8.41919C63.488 8.24737 63.0584 8.07555 62.3711 8.07555H61.4261L61.512 10.9106ZM61.512 12.0274V15.4639H60.1375V6.8728H62.543C63.5739 6.8728 64.433 7.13053 64.9484 7.56009C65.4639 7.98964 65.7216 8.59102 65.7216 9.45012C65.7216 10.4811 65.2062 11.2542 64.0893 11.7697L66.4948 15.5498H64.8625L62.8007 12.1134C62.8866 12.0274 61.512 12.0274 61.512 12.0274ZM75.1718 15.4639H70.2749V6.8728H75.1718V8.07555H71.7354V10.3951H75V11.5979H71.7354V14.2611H75.1718V15.4639ZM86.3402 6.8728V12.457C86.3402 13.0584 86.1684 13.6597 85.9106 14.0893C85.6529 14.6048 85.2234 14.9484 84.7079 15.2061C84.1924 15.4639 83.5911 15.5498 82.8179 15.5498C81.7869 15.5498 80.9278 15.292 80.3265 14.6907C79.7251 14.0893 79.4673 13.3161 79.4673 12.3711V6.8728H80.8419V12.2852C80.8419 12.9725 81.0137 13.4879 81.3574 13.8316C81.701 14.1752 82.2165 14.347 82.9038 14.347C84.1924 14.347 84.8797 13.6597 84.8797 12.2852V6.8728H86.3402ZM94.8454 15.4639L92.3539 8.33328H92.268C92.3539 9.36421 92.3539 10.3951 92.3539 11.3402V15.4639H91.0653V6.8728H93.0412L95.4467 13.7457L97.9381 6.8728H99.9141V15.4639H98.5395V11.2542C98.5395 10.8247 98.5395 10.3092 98.5395 9.62194C98.5395 8.93466 98.5395 8.50511 98.6254 8.41919H98.5395L95.9622 15.5498H94.8454V15.4639Z" fill="white"/>
<path d="M0 -2.68447e-05V8.59104C1.37457 7.13056 3.69416 6.44327 6.78694 6.44327C6.78694 5.92781 6.78694 5.58417 6.78694 4.72506L12.543 8.41922L6.78694 12.5429V10.8247C4.20962 10.8247 1.71821 13.3161 1.71821 16.5807C1.71821 18.1271 2.14777 19.7594 3.00687 20.6185H17.8694L15.5498 15.1202C15.378 14.7766 15.4639 14.433 15.7216 14.1752C17.1821 12.5429 17.8694 10.567 17.8694 8.33331C17.8694 4.03777 14.7766 -0.0859375 10.2234 -0.0859375C7.13058 -2.68447e-05 3.78007 -2.68447e-05 0 -2.68447e-05Z" fill="url(#paint0_linear)"/>
</g>
<defs>
<linearGradient id="paint0_linear" x1="4.22539" y1="-1.08602" x2="14.9067" y2="18.333" gradientUnits="userSpaceOnUse">
<stop stop-color="#FF3E54"/>
<stop offset="1" stop-color="#803AFF"/>
</linearGradient>
<clipPath id="clip0">
<rect width="100" height="20.6186" fill="white"/>
</clipPath>
</defs>
</svg>
