<?xml version="1.0" encoding="utf-8"?>
<!-- Generator: Adobe Illustrator 16.0.4, SVG Export Plug-In . SVG Version: 6.00 Build 0)  -->
<!DOCTYPE svg PUBLIC "-//W3C//DTD SVG 1.1//EN" "http://www.w3.org/Graphics/SVG/1.1/DTD/svg11.dtd">
<svg version="1.1" id="Layer_1" xmlns="http://www.w3.org/2000/svg" xmlns:xlink="http://www.w3.org/1999/xlink" x="0px" y="0px"
	 width="566.929px" height="177.636px" viewBox="0 0 566.929 177.636" enable-background="new 0 0 566.929 177.636"
	 xml:space="preserve">
<path fill="#41AD49" d="M78.312,32.353L98.78,16.03L52.786,26.521L78.312,32.353z M94.235,35.986l7.728-16.043L84.601,33.786
	L94.235,35.986z M106.489,38.787l0.007-16.63l-7.219,14.981L106.489,38.787z M121.152,42.136l-9.616-19.96l-0.002,17.766
	L121.152,42.136z M65.556,42.519l7.714-6.146l-21.609-4.937L65.556,42.519z M152.983,49.407l-36.917-29.451l11.371,23.618
	L152.983,49.407z M55.725,50.361l5.789-4.614L48.51,35.376L55.725,50.361z M83.998,57.231l7.988-16.583l-12.428-2.84l-9.957,7.939
	L83.998,57.231z M134.522,58.28l17.336-3.956l-21.62-4.937L134.522,58.28z M43.971,59.735l7.708-6.15l-7.706-16.017L43.971,59.735z
	 M111.532,63.521l17.946-4.093l-5.528-11.48l-12.416-2.838L111.532,63.521z M96.254,67.006l10.23-2.332l0.004-20.714l-9.457-2.16
	l-8.989,18.656L96.254,67.006z M139.979,69.609l13.005-10.369l-16.219,3.7L139.979,69.609z M83.484,69.918l6.481-1.479l-4.166-3.324
	L83.484,69.918z M66.952,73.691l10.243-2.337l4.559-9.463L65.556,48.97l-7.587,6.055L66.952,73.691z M106.482,75.163l0.002-5.317
	l-5.186,1.183L106.482,75.163z M43.963,78.934l17.946-4.097l-7.983-16.59l-9.96,7.941L43.963,78.934z M18.44,80.09l20.481-16.333
	l0.007-26.191L18.44,80.09z M71.509,83.154l2.885-5.992l-5.198,1.189L71.509,83.154z M146.502,83.159l9.625-19.972l-13.902,11.084
	L146.502,83.159z M21.583,84.037l17.335-3.954l0.002-9.874L21.583,84.037z M119.743,85.743l16.19-12.909l-4.211-8.744l-20.193,4.605
	l-0.002,10.489L119.743,85.743z M111.522,92.294l4.176-3.33l-4.176-3.328V92.294z M38.917,92.652l0.002-7.397l-16.211,3.697
	L38.917,92.652z M64.156,98.419l4.554-9.455l-4.556-9.463l-20.191,4.603l-0.002,9.703L64.156,98.419z M138.175,100.443l5.526-11.477
	l-5.524-11.473l-14.392,11.47L138.175,100.443z M74.382,100.752l-2.875-5.974l-2.311,4.789L74.382,100.752z M95.002,105.461
	l11.478-9.147l0.002-14.7L95.01,72.461l-14.327,3.268l-6.377,13.235l6.366,13.223L95.002,105.461z M38.917,107.698V97.83
	l-17.336-3.957L38.917,107.698z M106.478,108.086v-5.318l-5.186,4.135L106.478,108.086z M160.665,112.561l0.007-47.189L149.3,88.967
	L160.665,112.561z M85.782,112.813l4.176-3.327l-6.491-1.487L85.782,112.813z M131.718,113.85l4.213-8.749l-16.188-12.911
	l-8.224,6.557l-0.002,10.491L131.718,113.85z M156.125,114.764l-9.623-19.985l-4.285,8.89L156.125,114.764z M152.981,118.705
	l-13.007-10.373l-3.217,6.666L152.981,118.705z M53.915,119.672l7.993-16.595l-17.946-4.1l-0.003,12.744L53.915,119.672z
	 M130.229,128.558l21.628-4.936l-17.344-3.959L130.229,128.558z M65.544,128.947l16.193-12.911l-4.557-9.47l-10.229-2.334
	l-8.992,18.663L65.544,128.947z M111.515,132.821l12.426-2.833l5.53-11.477l-17.954-4.104L111.515,132.821z M97.007,136.132
	l9.463-2.16l0.004-20.718l-10.229-2.335l-8.221,6.555L97.007,136.132z M79.54,140.116l12.423-2.833l-7.981-16.585l-14.396,11.479
	L79.54,140.116z M38.912,140.344l0.002-26.189L18.437,97.813L38.912,140.344z M43.952,140.348l7.719-16.018l-7.716-6.154
	L43.952,140.348z M48.497,142.537l13-10.364l-5.781-4.615L48.497,142.537z M51.642,146.482l21.608-4.934l-7.708-6.147
	L51.642,146.482z M106.467,155.783l0.003-16.634l-7.219,1.647L106.467,155.783z M111.511,155.787l9.626-19.987l-9.624,2.195
	L111.511,155.787z M101.921,157.975l-7.714-16.031l-9.625,2.194L101.921,157.975z M116.052,157.975l36.927-29.439l-25.553,5.834
	L116.052,157.975z M98.759,161.908l-20.466-16.336l-25.531,5.827L98.759,161.908z M108.989,177.788
	c-3.354,0-6.476-1.504-8.568-4.128c-1.525-1.919-2.367-4.299-2.383-6.75l-46.802-10.691c-0.717,1.46-1.721,2.712-2.993,3.723
	c-1.958,1.562-4.314,2.392-6.816,2.392c-3.358,0-6.479-1.504-8.569-4.123c-1.824-2.289-2.65-5.153-2.319-8.058
	c0.324-2.877,1.739-5.461,3.994-7.28L13.716,99.629c-0.772,0.17-1.566,0.254-2.359,0.254c-3.355,0-6.473-1.499-8.556-4.114
	c-3.768-4.72-2.986-11.624,1.734-15.392c1.954-1.552,4.306-2.376,6.8-2.376c0.804,0,1.604,0.089,2.388,0.261L34.56,35.014
	c-0.634-0.511-1.192-1.07-1.669-1.671c-1.826-2.285-2.65-5.146-2.319-8.051c0.326-2.907,1.768-5.515,4.053-7.336
	c1.959-1.561,4.32-2.388,6.82-2.388c3.355,0,6.479,1.503,8.571,4.122c0.477,0.599,0.899,1.272,1.253,2l46.795-10.669
	c0.023-3.331,1.512-6.404,4.115-8.482c1.96-1.563,4.317-2.386,6.817-2.386c3.357,0,6.482,1.503,8.57,4.124
	c2.596,3.259,3.106,7.73,1.338,11.491l37.536,29.948c1.949-1.528,4.28-2.335,6.749-2.335c3.36,0,6.482,1.504,8.574,4.125
	c3.763,4.723,2.983,11.623-1.738,15.388c-1.275,1.018-2.724,1.721-4.312,2.091l-0.007,47.984c2.381,0.56,4.519,1.911,6.044,3.828
	c1.825,2.286,2.649,5.146,2.322,8.054c-0.329,2.907-1.772,5.511-4.059,7.337c-1.958,1.56-4.314,2.383-6.815,2.383
	c-2.46,0-4.852-0.827-6.77-2.333l-37.542,29.929c2.153,4.557,0.891,10.068-3.077,13.231
	C113.85,176.959,111.491,177.788,108.989,177.788"/>
<g>
	<path fill="#6D6E71" d="M215.024,83.947c3.578,1.689,7.256,2.085,13.219,2.188c15.608,0.293,21.272,4.074,21.272,13.218
		c0,2.284-0.497,4.375-1.393,6.16c-0.894,1.791-2.784,3.677-5.463,5.568c-2.687,1.887-7.358,2.781-14.018,2.781
		c-9.444,0-16.401-2.284-21.072-6.955c-0.497-0.5-0.797-1.195-0.896-1.99c0.099-1.688,0.896-2.484,2.385-2.484
		c0.796,0,1.392,0.203,1.889,0.696c3.479,3.879,9.742,6.061,17.397,6.061c10.335,0,16.101-3.576,16.101-9.938
		c0.099-2.882-0.795-4.771-2.686-5.761c-3.676-1.992-7.652-2.487-14.014-2.586c-15.109-0.298-20.278-3.682-20.278-12.127
		c0-8.949,8.052-14.613,20.477-14.613c7.65,0,13.913,2.188,18.587,6.263c0.498,0.498,0.796,1.094,0.796,1.985
		c-0.101,1.494-0.896,2.388-2.287,2.486c-0.795,0-1.492-0.198-1.989-0.695c-3.578-3.477-8.846-5.268-14.811-5.268
		c-2.385,0-4.571,0.199-6.46,0.698c-1.891,0.496-3.976,1.387-6.064,2.682c-2.087,1.292-3.08,3.379-3.178,6.462
		C212.442,81.365,213.334,83.051,215.024,83.947"/>
	<path fill="#6D6E71" d="M361.426,85.438v25.051c0,1.782-0.796,2.677-2.484,2.78c-1.692-0.104-2.587-0.998-2.587-2.78V85.934
		c0-11.13-4.675-16.997-13.718-16.997c-9.146,0-15.009,7.259-15.009,18.885v22.667c0,1.782-0.793,2.677-2.485,2.78
		c-1.689-0.104-2.581-0.998-2.581-2.78V85.934c0-11.13-4.675-16.997-13.721-16.997c-9.243,0-15.007,7.259-15.007,18.885v22.667
		c0,1.782-0.896,2.677-2.588,2.78c-1.589-0.104-2.384-0.998-2.483-2.78V67.647c0.1-1.891,0.895-2.785,2.483-2.883
		c1.691,0.098,2.588,0.992,2.588,2.883v5.166h0.197c3.181-5.565,8.646-8.645,15.704-8.645c7.954,0,13.323,3.578,16.005,10.237h0.198
		c3.18-6.361,8.947-10.237,17.393-10.237C355.361,64.168,361.426,71.621,361.426,85.438"/>
	<path fill="#6D6E71" d="M424.216,89.015c0-11.926-7.851-20.079-19.584-20.079c-11.626,0-19.777,8.153-19.777,20.079
		c0,11.929,8.151,20.08,19.777,20.08C416.366,109.095,424.216,100.943,424.216,89.015 M384.855,67.644v6.858h0.2
		c0.994-1.686,2.184-3.078,3.477-4.372c1.39-1.291,3.382-2.585,5.965-3.875c2.584-1.392,6.16-2.09,10.835-2.09
		c7.155,0,13.12,2.484,17.396,6.86c6.358,7.157,6.358,12.92,6.656,17.99c0,3.68-0.497,6.664-2.188,11.332
		c-2.579,6.861-11.329,13.913-21.863,13.517c-4.675,0-8.251-0.689-10.835-1.988c-5.169-2.78-7.455-5.07-9.441-8.345h-0.2v25.441
		c0,1.791-0.798,2.685-2.487,2.782c-1.688-0.098-2.584-0.991-2.584-2.782V67.644c0-1.887,0.896-2.781,2.584-2.879
		C384.057,64.862,384.855,65.756,384.855,67.644"/>
	<path fill="#6D6E71" d="M449.743,45.28v65.206c0,1.787-0.894,2.688-2.58,2.783c-1.592-0.096-2.387-0.996-2.49-2.783V45.28
		c0.104-1.788,0.898-2.686,2.49-2.784C448.849,42.595,449.743,43.492,449.743,45.28"/>
	<path fill="#6D6E71" d="M469.882,86.134h39.066c-1.291-10.339-8.753-17.195-19.481-17.195
		C478.532,68.939,471.176,75.795,469.882,86.134 M510.737,90.806h-40.953c0.799,10.935,8.354,18.289,20.176,18.289
		c7.059,0,12.526-2.88,16.104-7.354c0.5-0.696,1.19-0.997,1.89-0.997c1.687,0.103,2.583,0.997,2.583,2.685
		c0,0.596-0.198,1.189-0.696,1.687c-4.573,5.372-11.231,8.751-19.881,8.751c-7.651,0-14.013-2.49-18.483-6.856
		c-6.561-7.159-6.759-12.92-6.958-17.994c0-3.677,0.397-6.759,2.286-11.23c2.782-6.96,11.627-14.118,22.663-13.617
		c14.213,0,24.348,9.84,24.348,23.655C513.721,89.712,512.623,90.706,510.737,90.806"/>
	<path fill="#6D6E71" d="M566.45,108.595c0.599,0.601,0.895,1.29,0.895,2.187c-0.099,1.594-0.99,2.387-2.685,2.488
		c-0.795,0-1.49-0.396-2.084-1.094l-17.993-20.077l-18.19,20.175c-0.498,0.7-1.192,0.996-1.986,0.996
		c-1.59-0.102-2.384-0.996-2.486-2.584c0-0.696,0.202-1.293,0.698-1.791l18.487-20.077l-17.792-19.384
		c-0.596-0.697-0.896-1.394-0.896-2.187c0.101-1.592,0.997-2.385,2.683-2.486c0.795,0,1.492,0.401,2.091,1.096l17.493,19.682
		l17.595-19.786c0.596-0.692,1.291-0.992,1.983-0.992c1.595,0.101,2.394,0.992,2.487,2.584c0,0.695-0.198,1.295-0.694,1.791
		l-17.891,19.583L566.45,108.595z"/>
	<path fill="#41AD49" d="M278.917,54.005c0-5.864-4.754-10.615-10.616-10.615c-5.866,0-10.618,4.751-10.618,10.615
		c0,4.989,3.445,9.162,8.083,10.3v46.184c0.099,1.782,0.892,2.679,2.483,2.78c1.69-0.102,2.584-0.998,2.584-2.78V64.306
		C275.473,63.167,278.917,58.994,278.917,54.005"/>
</g>
</svg>
