<svg width="3219" height="1851" viewBox="0 0 3219 1851" fill="none" xmlns="http://www.w3.org/2000/svg">
<path d="M0 0H3219V1851H0V0Z" fill="white"/>
<path d="M0 0H3219V1851H0V0Z" fill="#2B2B37"/>
<path d="M971.635 1050.38C971.635 1039.02 968.507 1030.33 962.252 1024.31C955.996 1018.16 944.729 1011.75 928.463 1005.06C912.196 998.245 899.323 991.562 889.831 985.011C863.964 967.096 851.043 942.964 851.043 912.618C851.043 896.842 854.484 882.804 861.368 870.505C868.348 858.073 878.311 848.38 891.232 841.428C904.274 834.476 918.874 831 935.032 831C951.298 831 965.802 834.81 978.518 842.431C991.246 849.917 1001.1 860.544 1008.08 874.315C1015.17 888.085 1018.72 903.727 1018.72 921.241H971.792C971.792 907.872 968.507 897.51 961.938 890.157C955.368 882.671 946.142 878.927 934.247 878.927C922.787 878.927 913.863 882.069 907.511 888.353C901.146 894.502 897.958 902.658 897.958 912.818C897.958 922.31 901.666 930.264 909.068 936.681C916.58 943.098 927.581 949.114 942.072 954.729C968.773 965.024 988.215 977.791 1000.41 993.032C1012.62 1008.27 1018.72 1027.26 1018.72 1049.98C1018.72 1075.25 1011.27 1095.11 996.354 1109.55C981.44 1123.85 961.37 1131 936.131 1131C918.609 1131 902.656 1126.93 888.261 1118.77C873.879 1110.48 862.877 1099.18 855.257 1084.88C847.753 1070.57 844 1053.99 844 1035.14H891.087C891.087 1067.36 906.098 1083.47 936.131 1083.47C947.289 1083.47 955.996 1080.6 962.252 1074.85C968.507 1068.97 971.635 1060.81 971.635 1050.38ZM1228.01 1042.76L1258.66 835.011H1305.43L1254.92 1126.99H1207.67L1170.6 931.667L1133.53 1126.99H1086.3L1035.77 835.011H1082.54L1113.35 1042.36L1150.89 835.011H1190.62L1228.01 1042.76ZM1452.63 1066.83H1370.35L1354.7 1126.99H1304.81L1389.59 835.011H1433.07L1518.32 1126.99H1468.42L1452.63 1066.83ZM1383.02 1018.1H1439.96L1411.32 908.807L1383.02 1018.1ZM1586.51 1024.11V1126.99H1539.6V835.011H1628.44C1645.54 835.011 1660.55 839.021 1673.48 847.043C1686.51 855.065 1696.53 866.494 1703.52 881.334C1710.51 896.04 1714 912.818 1714 931.667C1714 960.278 1706.33 982.872 1691.01 999.448C1675.78 1015.89 1654.66 1024.11 1627.66 1024.11H1586.51ZM1586.51 975.385H1628.44C1640.84 975.385 1650.29 971.642 1656.75 964.155C1663.32 956.668 1666.6 945.973 1666.6 932.068C1666.6 917.765 1663.32 906.201 1656.75 897.377C1650.18 888.553 1641.11 884.008 1629.53 883.74H1586.51V975.385Z" fill="white"/>
<path d="M1898.61 1057C1898.61 1044.57 1896.19 1034.07 1891.36 1025.52C1886.64 1016.83 1879.13 1009.21 1868.81 1002.66C1858.61 995.972 1843.15 989.155 1822.41 982.203C1801.67 975.251 1786.1 968.232 1775.68 961.147C1765.36 954.061 1757.79 945.839 1752.97 936.48C1748.14 927.122 1745.74 915.76 1745.74 902.39C1745.74 881.133 1753.08 863.954 1767.78 850.853C1782.48 837.618 1801.62 831 1825.21 831C1840.57 831 1854.33 834.677 1866.51 842.03C1878.8 849.249 1888.29 859.475 1894.98 872.711C1901.67 885.812 1905.02 900.652 1905.02 917.23H1896.13C1896.13 895.438 1889.55 877.457 1876.39 863.285C1863.22 848.982 1846.16 841.829 1825.21 841.829C1804.15 841.829 1787.09 847.578 1774.03 859.074C1761.08 870.438 1754.62 884.743 1754.62 901.989C1754.62 919.503 1760.27 933.606 1771.56 944.301C1782.87 954.997 1801.51 964.489 1827.51 972.778C1853.52 980.933 1872.55 990.425 1884.62 1001.25C1899.98 1015.02 1907.65 1033.47 1907.65 1056.6C1907.65 1071.31 1904.25 1084.34 1897.45 1095.71C1890.65 1106.94 1881 1115.63 1868.48 1121.78C1855.98 1127.92 1841.95 1131 1826.36 1131C1809.03 1131 1793.45 1127.52 1779.63 1120.57C1765.81 1113.48 1755.38 1103.45 1748.37 1090.49C1741.46 1077.52 1738 1062.22 1738 1044.57H1746.88C1746.88 1068.5 1754.24 1087.08 1768.93 1100.31C1783.63 1113.56 1802.78 1120.16 1826.36 1120.16C1847.32 1120.16 1864.6 1114.35 1878.19 1102.72C1891.8 1090.96 1898.61 1075.72 1898.61 1057V1057ZM1963.43 1003.66V1126.99H1954.55V835.011H2029.42C2053.89 835.011 2072.87 842.564 2086.36 857.672C2099.95 872.644 2106.76 893.5 2106.76 920.238C2106.76 946.708 2100.12 967.163 2086.86 981.602C2073.68 996.039 2054.93 1003.39 2030.58 1003.66H1963.43V1003.66ZM1963.43 992.832H2029.42C2051.03 992.832 2067.81 986.481 2079.78 973.781C2091.84 961.08 2097.87 943.366 2097.87 920.639C2097.87 897.109 2091.84 878.794 2079.78 865.692C2067.81 852.458 2051.03 845.84 2029.42 845.84H1963.43V992.832ZM2260.46 1039.76H2143.12L2116.47 1126.99H2106.76L2196.44 835.011H2207.3L2296.98 1126.99H2287.28L2260.46 1039.76V1039.76ZM2146.41 1028.93H2257.17L2201.87 848.046L2146.41 1028.93V1028.93ZM2496.59 1037.55C2494.29 1067.63 2485.78 1090.76 2471.08 1106.94C2456.38 1122.98 2436.41 1131 2411.18 1131C2394.18 1131 2379.1 1125.79 2365.93 1115.36C2352.88 1104.79 2342.73 1089.89 2335.49 1070.64C2328.25 1051.25 2324.57 1029.13 2324.46 1004.26V959.141C2324.46 934.274 2328.03 912.083 2335.16 892.564C2342.3 872.911 2352.44 857.738 2365.6 847.043C2378.87 836.348 2394.07 831 2411.18 831C2436.19 831 2456.1 839.022 2470.91 855.065C2485.73 871.106 2494.29 894.101 2496.59 924.048H2487.7C2485.18 897.176 2477.49 876.788 2464.66 862.884C2451.83 848.848 2434 841.829 2411.18 841.829C2387.93 841.829 2369.12 852.524 2354.75 873.914C2340.48 895.305 2333.35 923.982 2333.35 959.943V1002.86C2333.35 1025.85 2336.53 1046.24 2342.89 1064.02C2349.26 1081.67 2358.37 1095.43 2370.21 1105.33C2382.16 1115.22 2395.82 1120.16 2411.18 1120.16C2434.11 1120.16 2452 1113.28 2464.83 1099.52C2477.77 1085.75 2485.4 1065.09 2487.7 1037.55H2496.59V1037.55ZM2681.22 982.203H2561.09V1116.15H2698V1126.99H2552.21V835.011H2698V845.84H2561.09V971.374H2681.22V982.203Z" fill="#FBFF5C"/>
<path fill-rule="evenodd" clip-rule="evenodd" d="M781 981C781 1063.84 713.843 1131 631 1131C548.157 1131 481 1063.84 481 981C481 898.158 548.157 831 631 831C713.843 831 781 898.158 781 981ZM721.002 920.032C721.002 930.722 712.336 939.387 701.647 939.387C690.957 939.387 682.291 930.722 682.291 920.032C682.291 909.344 690.957 900.678 701.647 900.678C712.336 900.678 721.002 909.344 721.002 920.032ZM630.033 920.032C649.275 920.032 664.872 909.633 664.872 896.806C664.872 883.979 649.275 873.58 630.033 873.58C610.792 873.58 595.195 883.979 595.195 896.806C595.195 909.633 610.792 920.032 630.033 920.032Z" fill="#FBFF5C"/>
</svg>
