<svg width="2568" height="723" viewBox="0 0 2568 723" fill="none" xmlns="http://www.w3.org/2000/svg">
<g clip-path="url(#clip0)">
<path d="M249 0C149.9 0 69.7 80.2 69.7 179.3V246.5C34.9 252.8 0 261.2 0 272.1V622.8C0 622.8 0 632.5 10.9 637.1C50.4 653.1 205.8 708.1 241.5 720.7C246.1 722.4 247.4 722.4 248.6 722.4C250.3 722.4 251.1 722.4 255.7 720.7C291.4 708.1 447.2 653.1 486.7 637.1C496.8 632.9 497.2 623.2 497.2 623.2V272.1C497.2 261.2 462.8 252.4 427.9 246.5V179.3C428.4 80.2 347.7 0 249 0ZM249 85.7C307.4 85.7 342.7 121 342.7 179.4V237.8C277.2 233.2 221.3 233.2 155.4 237.8V179.4C155.4 120.9 190.7 85.7 249 85.7V85.7ZM248.6 323.8C330.1 323.8 398.5 330.1 398.5 341.4V560.2C398.5 563.6 398.1 564 395.1 565.2C392.2 566.5 256.1 615.6 256.1 615.6C256.1 615.6 250.6 617.3 249 617.3C247.3 617.3 241.9 615.2 241.9 615.2C241.9 615.2 105.8 566.1 102.9 564.8C100 563.5 99.5 563.1 99.5 559.8V341C98.7 329.7 167.1 323.8 248.6 323.8V323.8Z" fill="white"/>
<path d="M728.466 563.183V323.577H640.919V237.655H913.881V323.577H827.195V563.183H728.466Z" fill="white"/>
<path d="M1135.04 563.183L1090.12 460.823H1054.38V563.183H955.648V237.655H1129.4C1205.67 237.655 1246.58 288.214 1246.58 349.191C1246.58 405.389 1214.08 435.113 1187.99 447.92L1246.96 563.088H1135.04V563.183ZM1146.7 349.191C1146.7 331.51 1131.03 323.864 1114.59 323.864H1054.38V375.283H1114.59C1131.03 374.901 1146.7 367.255 1146.7 349.191Z" fill="white"/>
<path d="M1298.38 563.183V237.655H1545.25V323.577H1396.73V355.69H1541.62V441.612H1396.73V477.357H1545.25V563.183H1298.38Z" fill="white"/>
<path d="M1596.57 563.566V485.29L1720.63 323.959H1596.57V238.037H1850.61V315.549L1726.17 477.739H1854.24V563.661L1596.57 563.566V563.566Z" fill="white"/>
<path d="M1878.33 400.993C1878.33 301.021 1955.84 232.398 2056.58 232.398C2156.93 232.398 2234.82 300.639 2234.82 400.993C2234.82 500.964 2157.31 569.205 2056.58 569.205C1955.84 569.205 1878.33 500.964 1878.33 400.993V400.993ZM2134.47 400.993C2134.47 355.595 2103.6 319.467 2056.19 319.467C2008.79 319.467 1977.92 355.595 1977.92 400.993C1977.92 446.391 2008.79 482.518 2056.19 482.518C2103.98 482.518 2134.47 446.391 2134.47 400.993Z" fill="white"/>
<path d="M2455.51 563.566L2410.59 461.205H2374.84V563.566H2276.11V238.037H2449.87C2526.14 238.037 2567.04 288.597 2567.04 349.573C2567.04 405.771 2534.55 435.495 2508.45 448.302L2567.42 563.47H2455.51V563.566ZM2467.55 349.191C2467.55 331.51 2451.87 323.864 2435.44 323.864H2375.22V375.283H2435.44C2451.97 374.901 2467.55 367.255 2467.55 349.191Z" fill="white"/>
</g>
<defs>
<clipPath id="clip0">
<rect width="2567.5" height="722.3" fill="white"/>
</clipPath>
</defs>
</svg>
