<svg width="17" height="16" viewBox="0 0 17 16" fill="none" xmlns="http://www.w3.org/2000/svg">
    <g clip-path="url(#clip0)">
        <path d="M8.51611 16C12.9344 16 16.5161 12.4183 16.5161 8C16.5161 3.58172 12.9344 0 8.51611 0C4.09784 0 0.516113 3.58172 0.516113 8C0.516113 12.4183 4.09784 16 8.51611 16Z"
              fill="url(#paint0_linear)"/>
        <path d="M3.84561 7.9306C3.84561 7.9306 7.84561 6.28898 9.23289 5.71095C9.76469 5.47973 11.5682 4.73985 11.5682 4.73985C11.5682 4.73985 12.4005 4.41615 12.3312 5.20228C12.308 5.52598 12.1231 6.65892 11.9381 7.88436C11.6606 9.61846 11.3601 11.5144 11.3601 11.5144C11.3601 11.5144 11.3138 12.0462 10.9208 12.1387C10.5277 12.2312 9.88029 11.815 9.76469 11.7225C9.6722 11.6531 8.03058 10.6127 7.42943 10.104C7.26758 9.96528 7.0826 9.68783 7.45255 9.36413C8.28492 8.60112 9.27914 7.65314 9.88029 7.05199C10.1577 6.77453 10.4352 6.12713 9.27914 6.91326C7.63752 8.04621 6.01902 9.10979 6.01902 9.10979C6.01902 9.10979 5.64908 9.341 4.95544 9.13291C4.2618 8.92482 3.45255 8.64736 3.45255 8.64736C3.45255 8.64736 2.89763 8.30054 3.84561 7.9306Z"
              fill="white"/>
    </g>
    <defs>
        <linearGradient id="paint0_linear" x1="8.51611" y1="0" x2="8.51611" y2="16" gradientUnits="userSpaceOnUse">
            <stop stop-color="#4EA4F6"/>
            <stop offset="1" stop-color="#3F96E9"/>
        </linearGradient>
        <clipPath id="clip0">
            <rect width="16" height="16" fill="white" transform="translate(0.516113)"/>
        </clipPath>
    </defs>
</svg>
