<svg width="950" height="787" viewBox="0 0 950 787" fill="none" xmlns="http://www.w3.org/2000/svg">
  <rect opacity="0.03" x="927.697" y="370" width="39.9937" height="41.5734" transform="rotate(72.7208 927.697 370)"
        fill="#00C26F"/>
  <rect opacity="0.63" x="567.603" y="356.147" width="8.44669" height="8.44669"
        transform="rotate(58.313 567.603 356.147)" fill="#00C26F" fill-opacity="0.35"/>
  <rect opacity="0.26" x="849.188" y="57" width="8.44669" height="8.44669" transform="rotate(58.313 849.188 57)"
        fill="#00C26F"/>
  <rect opacity="0.18" x="883.08" y="281" width="19.7089" height="19.7089" transform="rotate(24.2012 883.08 281)"
        fill="#00C26F"/>
  <rect opacity="0.06" x="813.526" y="10" width="15.9195" height="15.9195" transform="rotate(24.2012 813.526 10)"
        fill="#00C26F"/>
  <rect opacity="0.63" x="217.603" y="730.188" width="8.44669" height="8.44669"
        transform="rotate(58.313 217.603 730.188)" fill="#00C26F" fill-opacity="0.35"/>
  <rect x="773.139" y="327.991" width="11.2623" height="11.2623" transform="rotate(45 773.139 327.991)" fill="#00C26F"
        fill-opacity="0.2"/>
  <rect opacity="0.18" x="476.785" y="607.945" width="19.7089" height="19.7089"
        transform="rotate(24.2012 476.785 607.945)" fill="#00C26F"/>
  <rect opacity="0.18" x="154.362" y="311" width="13.0789" height="13.0789" transform="rotate(24.2012 154.362 311)"
        fill="#00C26F"/>
  <rect opacity="0.07" x="597.971" y="745.665" width="33.0079" height="33.0079"
        transform="rotate(72.7208 597.971 745.665)" fill="#00C26F"/>
  <rect opacity="0.07" x="35.1028" y="310.61" width="21.9144" height="21.9144"
        transform="rotate(72.7208 35.1028 310.61)" fill="#00C26F"/>
  <rect x="383.871" y="619.208" width="8.44669" height="8.44669" transform="rotate(-29.5818 383.871 619.208)"
        fill="#00C26F" fill-opacity="0.13"/>
  <rect opacity="0.5" x="867" y="367.39" width="2.81556" height="2.81556" transform="rotate(-29.5818 867 367.39)"
        fill="#00C26F"/>
  <rect opacity="0.14" x="775" y="56.0435" width="5.53314" height="5.53314" transform="rotate(-29.5818 775 56.0435)"
        fill="#00C26F"/>
  <rect x="395.133" y="714.937" width="11.2623" height="11.2623" transform="rotate(45 395.133 714.937)" fill="#00C26F"
        fill-opacity="0.13"/>
  <rect x="181" y="656.983" width="5.63113" height="5.63113" transform="rotate(-45.0135 181 656.983)" fill="#00C26F"
        fill-opacity="0.35"/>
  <rect x="733.721" y="305.467" width="5.63113" height="5.63113" transform="rotate(-29.5818 733.721 305.467)"
        fill="#00C26F" fill-opacity="0.2"/>
  <rect opacity="0.9" x="462.706" y="734.645" width="11.2623" height="11.2623"
        transform="rotate(-35.8702 462.706 734.645)" fill="#00C26F" fill-opacity="0.35"/>
  <rect x="152.998" y="279.233" width="5.20499" height="5.20499" transform="rotate(-35.8702 152.998 279.233)"
        fill="#00C26F" fill-opacity="0.35"/>
  <rect opacity="0.07" x="110.761" y="616.391" width="11.2623" height="11.2623"
        transform="rotate(-35.8702 110.761 616.391)" fill="#00C26F"/>
  <rect x="254.355" y="602.314" width="2.81556" height="2.81556" transform="rotate(-29.5818 254.355 602.314)"
        fill="#00C26F"/>
  <rect opacity="0.7" x="355.715" y="692.413" width="5.63113" height="5.63113"
        transform="rotate(-29.5818 355.715 692.413)" fill="#00C26F" fill-opacity="0.35"/>
  <ellipse cx="255.286" cy="684.95" rx="1.40778" ry="2.81556" transform="rotate(60 255.286 684.95)" fill="#00C26F"
           fill-opacity="0.35"/>
  <rect opacity="0.26" x="206.188" y="43" width="8.44669" height="8.44669" transform="rotate(58.313 206.188 43)"
        fill="#00C26F"/>
  <rect opacity="0.06" x="247.526" width="15.9195" height="15.9195" transform="rotate(24.2012 247.526 0)"
        fill="#00C26F"/>
  <rect opacity="0.14" x="191" y="7.73157" width="5.53314" height="5.53314" transform="rotate(-29.5818 191 7.73157)"
        fill="#00C26F"/>
</svg>
