<?xml version="1.0" encoding="UTF-8"?>
<svg width="64px" height="43px" viewBox="0 0 64 43" version="1.1" xmlns="http://www.w3.org/2000/svg" xmlns:xlink="http://www.w3.org/1999/xlink">
    <title>API</title>
    <defs></defs>
    <g id="affilate" stroke="none" stroke-width="1" fill="none" fill-rule="evenodd">
        <g id="affilate-sign-up-2" transform="translate(-144.000000, -1227.000000)">
            <g id="Group-4" transform="translate(121.000000, 1195.000000)">
                <g id="Group" transform="translate(23.000000, 32.000000)">
                    <path d="M1.44680851,0.262758039 C0.647791328,0.262838159 7.98897354e-05,0.912417278 0,1.71373843 L0,40.890209 C7.98897354e-05,41.6915302 0.647791328,42.3411093 1.44680851,42.3411894 L62.212766,42.3411894 C63.0117831,42.3411093 63.6594946,41.6915302 63.6595745,40.890209 L63.6595745,1.71373843 C63.6628038,0.962660864 63.0940251,0.333233294 62.3484043,0.262758039 C62.3032163,0.260631624 62.2579539,0.260631624 62.212766,0.262758039 L1.44680851,0.262758039 Z M2.89361702,3.16471882 L60.7659574,3.16471882 L60.7659574,9.69413059 L2.89361702,9.69413059 L2.89361702,3.16471882 Z M39.787234,4.61569922 L39.787234,8.2431502 L43.4042553,8.2431502 L43.4042553,4.61569922 L39.787234,4.61569922 Z M47.0212766,4.61569922 L47.0212766,8.2431502 L50.6382979,8.2431502 L50.6382979,4.61569922 L47.0212766,4.61569922 Z M54.2553191,4.61569922 L54.2553191,8.2431502 L57.8723404,8.2431502 L57.8723404,4.61569922 L54.2553191,4.61569922 Z M2.89361702,12.5960914 L60.7659574,12.5960914 L60.7659574,39.4392286 L2.89361702,39.4392286 L2.89361702,12.5960914 Z" id="Shape" fill="#3D3D70" fill-rule="nonzero"></path>
                    <path d="M38.2047872,14.7498904 C38.7730378,14.6867853 39.3250581,14.9651599 39.613437,15.460249 C39.9018159,15.955338 39.8724747,16.5742991 39.5385638,17.0397188 L26.5172872,35.9024639 C26.2224956,36.3317518 25.7217331,36.5707072 25.203632,36.529318 C24.6855309,36.4879287 24.2288031,36.1724828 24.0054937,35.7018057 C23.7821842,35.2311286 23.826219,34.6767273 24.1210106,34.2474394 L37.1422872,15.3846943 C37.3838984,15.0243106 37.7737486,14.7913897 38.2047872,14.7498904 Z M20.8882979,17.6518512 C21.509552,17.6043915 22.0913419,17.9610937 22.3324342,18.5372682 C22.5735265,19.1134426 22.4197791,19.7796978 21.9507979,20.1910669 L15.9148936,25.6549149 L21.9507979,31.0960914 C22.3370327,31.4437199 22.5083059,31.9720149 22.399776,32.4809724 C22.2912462,32.98993 21.9195007,33.4017632 21.4252762,33.5605588 C20.9310518,33.7193544 20.3898835,33.6008428 20.0066489,33.2498904 L12.7726064,26.7204786 C12.4688573,26.4453424 12.2955089,26.0540621 12.2955089,25.6435791 C12.2955089,25.2330961 12.4688573,24.8418159 12.7726064,24.5666796 L20.0066489,18.0372678 C20.2481159,17.811737 20.5591922,17.6757486 20.8882979,17.6518512 Z M42.5904255,17.6518512 C42.9820387,17.630608 43.3654762,17.7696981 43.6529255,18.0372678 L50.8869681,24.5666796 C51.1907171,24.8418159 51.3640655,25.2330961 51.3640655,25.6435791 C51.3640655,26.0540621 51.1907171,26.4453424 50.8869681,26.7204786 L43.6529255,33.2498904 C43.2696909,33.6008428 42.7285227,33.7193544 42.2342982,33.5605588 C41.7400738,33.4017632 41.3683282,32.98993 41.2597984,32.4809724 C41.1512686,31.9720149 41.3225417,31.4437199 41.7087766,31.0960914 L47.7446809,25.6549149 L41.7087766,20.1910669 C41.266525,19.8012462 41.1039069,19.1815468 41.2975292,18.6238999 C41.4911516,18.066253 42.002397,17.6818791 42.5904255,17.6518512 Z" id="Combined-Shape" fill="#3BEE81"></path>
                </g>
            </g>
        </g>
    </g>
</svg>