<?xml version="1.0" encoding="UTF-8"?>
<svg width="140px" height="140px" viewBox="0 0 140 140" version="1.1" xmlns="http://www.w3.org/2000/svg" xmlns:xlink="http://www.w3.org/1999/xlink">
    <title>Wallet</title>
    <defs></defs>
    <g id="affilate" stroke="none" stroke-width="1" fill="none" fill-rule="evenodd">
        <g id="affilate-sign-up-2" transform="translate(-240.000000, -1665.000000)">
            <g id="Group-6" transform="translate(240.000000, 1665.000000)">
                <circle id="Oval-Copy-2" fill="#FFFFFF" cx="70" cy="70" r="70"></circle>
                <g id="Group" transform="translate(33.292683, 21.341463)" fill-rule="nonzero">
                    <path d="M74.4357257,47.1664482 L72.6192903,47.1664482 L72.6192903,38.6246041 L79.3902439,29.7958608 L63.731318,17.8076539 L64.7472759,15.3497075 L55.5721665,11.5591335 L47.6868761,5.52183356 L46.6416428,6.88626334 L46.8649527,5.18289444 L37.0156585,3.89414348 L27.837996,0.102379002 L26.8206764,2.56032536 L7.26046526,0 L3.90281709,25.61992 C1.64622969,26.284193 0,28.3688472 0,30.8388681 L0,83.4433079 C0,85.4468412 1.62495398,87.0731707 3.63014753,87.0731707 L68.9891428,87.0731707 C70.9943363,87.0731707 72.6192903,85.4470112 72.6192903,83.4433079 L72.6192903,72.5591616 L74.4357257,72.5591616 C75.4384076,72.5591616 76.2521611,71.7486328 76.2521611,70.7469512 L76.2521611,48.9786585 C76.2521611,47.9768069 75.4384076,47.1664482 74.4357257,47.1664482 Z M48.3596993,10.6091516 L74.3000717,30.4694874 L71.6964349,33.8641506 C71.0316114,33.1201172 70.0662045,32.652439 68.9891428,32.652439 L66.6302617,32.652439 C66.023989,30.9691378 66.2632982,29.0212157 67.4334625,27.4960747 L53.0190808,16.4617611 C51.9500187,17.8608841 50.3303411,18.5942035 48.6948343,18.5942035 C47.5379461,18.5942035 46.3730581,18.2289043 45.3863756,17.4714358 L33.7432833,32.652439 L31.4548675,32.652439 L48.3596993,10.6091516 Z M62.7553584,31.996159 C62.7846338,32.216733 62.8219088,32.4359466 62.8670133,32.652439 L38.317562,32.652439 L46.5167118,21.9609761 C47.2215336,22.1337619 47.9501843,22.2227058 48.6948343,22.2227058 C50.0564801,22.2227058 51.4234022,21.9104668 52.6468409,21.3205121 C52.7957709,21.2473842 52.9474242,21.1703449 53.0936309,21.0893941 L62.9390104,28.6266654 C62.6677024,29.7135494 62.6038753,30.8521332 62.7553584,31.996159 Z M24.1918491,32.652439 L30.9668877,16.2809823 C33.3085779,16.235745 35.4800625,15.3031098 37.0970168,13.741915 L40.3522011,15.0864472 L26.8805888,32.652439 L24.1918491,32.652439 Z M29.8059145,4.84157441 L43.7801443,10.6144236 L42.636532,12.1052115 L35.823027,9.28978897 C34.9559991,11.3877082 32.9268065,12.6538405 30.7873207,12.6538405 C30.0945834,12.6538405 29.3897615,12.5210199 28.7089387,12.2405831 L20.26248,32.652439 L18.2984762,32.652439 L29.8059145,4.84157441 Z M12.135157,32.652439 L14.4727623,14.818255 C15.7333058,14.4529559 16.9114698,13.8164034 17.9180664,12.9409099 C18.637526,12.3137109 19.2477135,11.5843031 19.7317785,10.7792164 L23.230357,11.237541 L14.369107,32.652439 L12.135157,32.652439 Z M10.3891867,4.06828982 L25.3846508,6.0306674 L24.6665529,7.76583841 L17.3543451,6.80922399 C16.9953812,9.55015816 14.653691,11.5458684 11.9608663,11.5458684 C11.7241102,11.5458684 11.4861626,11.5298823 11.2468534,11.4994407 L8.47301079,32.652439 L6.64210789,32.652439 L10.3891867,4.06828982 Z M68.989313,83.4433079 L3.63014753,83.4433079 L3.63014753,36.2809413 L68.989313,36.2809413 L68.9891428,47.1664482 L50.8331287,47.1664482 C50.8331287,47.1664482 43.5673871,55.8557384 43.5673871,59.8628049 C43.5673871,63.8698714 50.8331287,72.5591616 50.8331287,72.5591616 L68.989313,72.5591616 L68.989313,83.4433079 Z M72.6194605,68.9347409 L52.5830137,68.9347409 C51.9394659,68.105675 51.0804377,66.9630097 50.2266858,65.7035099 C47.37574,61.5156645 47.2082576,59.9665444 47.2002579,59.8628049 C47.2082576,59.7592354 47.37574,58.2099452 50.2266858,54.0220998 C51.0804377,52.7626 51.9392957,51.6199347 52.5830137,50.7908689 L72.6194605,50.7908689 L72.6194605,68.9347409 Z" id="Shape" fill="#3D3D70"></path>
                    <path d="M58.4756098,65.7317073 C61.5399238,65.7317073 64.0243902,63.2472409 64.0243902,60.1829268 C64.0243902,57.1186128 61.5399238,54.6341463 58.4756098,54.6341463 C55.4112957,54.6341463 52.9268293,57.1186128 52.9268293,60.1829268 C52.9268293,63.2472409 55.4114691,65.7317073 58.4756098,65.7317073 Z M58.4756098,58.3351829 C59.4971056,58.3351829 60.326128,59.1642054 60.326128,60.1829268 C60.326128,61.2016482 59.4971056,62.0306707 58.4756098,62.0306707 C57.4541139,62.0306707 56.6250915,61.2016482 56.6250915,60.1829268 C56.6250915,59.1642054 57.4542873,58.3351829 58.4756098,58.3351829 Z" id="Shape" fill="#3BEE81"></path>
                </g>
                <g id="Star" transform="translate(40.121951, 64.878049)" fill="#3BEE81" fill-rule="nonzero">
                    <path d="M0.663507138,16.4393834 C13.9238522,16.4393834 16.503488,13.88048 16.503488,0.717701109 C16.503488,13.88048 19.0816522,16.4393834 32.3435071,16.4393834 C19.0816522,16.4393834 16.503488,18.9982677 16.503488,32.161104 C16.503488,18.9982677 13.9238522,16.4393834 0.663507138,16.4393834 Z" id="path1_fill"></path>
                </g>
            </g>
        </g>
    </g>
</svg>