<?xml version="1.0" encoding="UTF-8"?>
<svg width="42px" height="64px" viewBox="0 0 42 64" version="1.1" xmlns="http://www.w3.org/2000/svg" xmlns:xlink="http://www.w3.org/1999/xlink">
    <title>Widgets</title>
    <defs></defs>
    <g id="affilate" stroke="none" stroke-width="1" fill="none" fill-rule="evenodd">
        <g id="affilate-sign-up-2" transform="translate(-673.000000, -1218.000000)">
            <g id="Group-4" transform="translate(121.000000, 1195.000000)">
                <g id="Group-3" transform="translate(552.000000, 23.000000)">
                    <g id="Group" fill="#3D3D70" fill-rule="nonzero">
                        <path d="M15.0769231,0.260026667 C9.54276113,0.260026667 5.02564103,4.77714462 5.02564103,10.3113087 C5.02564103,14.0168194 7.05047826,17.2522933 10.0512821,18.994001 L10.0512821,32.5901549 L9.10897436,31.0869497 C8.56556041,30.2165087 8.06578554,29.3944 7.31410256,28.7087446 C6.56241959,28.0230892 5.48267569,27.5420779 4.30769231,27.5420779 C2.86835159,27.5420779 1.64726082,28.1615887 0.942307692,29.0452831 C0.237354564,29.9289774 0,30.9519754 0,31.8497703 C0,42.8534113 6.92856626,51.3982215 14.3589744,58.9523344 L14.3589744,62.0036164 C14.3590536,62.7966078 15.0018804,63.4394346 15.7948718,63.4395138 L35.8974359,63.4395138 C36.6904273,63.4394346 37.333254,62.7966078 37.3333333,62.0036164 L37.3333333,56.0581036 C39.8213774,53.3947292 41.2385881,49.8261651 41.6410256,46.3657959 C41.6438904,46.3134847 41.6438904,46.2610559 41.6410256,46.2087446 L41.6410256,36.1574626 C41.6410256,33.3980985 39.374753,31.1318215 36.6153846,31.1318215 C35.7692598,31.1318215 35.0067602,31.3849703 34.3044872,31.7600267 C33.9019621,29.3936031 31.9105252,27.5420779 29.4358974,27.5420779 C28.5897705,27.5420779 27.827273,27.7952267 27.125,28.1702831 C26.7224742,25.8038595 24.7310316,23.9523344 22.2564103,23.9523344 C21.4795043,23.9523344 20.7617171,24.1486359 20.1025641,24.46836 L20.1025641,18.994001 C23.1033679,17.2522933 25.1282051,14.0168194 25.1282051,10.3113087 C25.1282051,4.77714462 20.611085,0.260026667 15.0769231,0.260026667 Z M15.0769231,3.13182154 C19.0590522,3.13182154 22.2564103,6.32917744 22.2564103,10.3113087 C22.2564103,12.3267889 21.4278407,14.1457213 20.1025641,15.4491292 L20.1025641,12.4651549 C20.1025641,9.70578359 17.8362915,7.43951385 15.0769231,7.43951385 C12.3175547,7.43951385 10.0512821,9.70578359 10.0512821,12.4651549 L10.0512821,15.4491292 C8.72600544,14.1457213 7.8974359,12.3267889 7.8974359,10.3113087 C7.8974359,6.32917744 11.0947939,3.13182154 15.0769231,3.13182154 Z M15.0769231,10.3113087 C16.2949906,10.3113087 17.2307692,11.2470903 17.2307692,12.4651549 L17.2307692,28.9779754 C17.2307692,29.7709993 17.8736428,30.4138728 18.6666667,30.4138728 C19.4596906,30.4138728 20.1025641,29.7709993 20.1025641,28.9779754 C20.1025641,27.7599108 21.0383428,26.8241292 22.2564103,26.8241292 C23.4744777,26.8241292 24.4102564,27.7599108 24.4102564,28.9779754 L24.4102564,32.567719 C24.4102564,33.3607429 25.0531299,34.0036164 25.8461538,34.0036164 C26.6391777,34.0036164 27.2820513,33.3607429 27.2820513,32.567719 C27.2820513,31.3496472 28.2178364,30.4138728 29.4358974,30.4138728 C30.6539585,30.4138728 31.5897436,31.3496472 31.5897436,32.567719 L31.5897436,36.1574626 C31.5897436,36.9504865 32.2326171,37.59336 33.025641,37.59336 C33.8186649,37.59336 34.4615385,36.9504865 34.4615385,36.1574626 C34.4615385,34.9393908 35.3973171,34.0036164 36.6153846,34.0036164 C37.8334521,34.0036164 38.7692308,34.9393908 38.7692308,36.1574626 L38.7692308,46.0292574 C38.4077264,49.1376882 37.0609737,52.4042113 34.8878205,54.5100267 C34.6123195,54.7824514 34.458589,55.154641 34.4615385,55.5420779 L34.4615385,60.567719 L17.2307692,60.567719 L17.2307692,58.4138728 C17.2277266,58.0342151 17.0744586,57.671212 16.8044872,57.4042574 C9.33760656,49.8718985 2.87179487,41.8404574 2.87179487,31.8497703 C2.87179487,31.4901497 2.99615508,31.0555754 3.18589744,30.817719 C3.37563979,30.5798626 3.58222738,30.4138728 4.30769231,30.4138728 C4.8193399,30.4138728 5.00645097,30.4932062 5.36217949,30.817719 C5.717908,31.1422318 6.16609897,31.7575497 6.68589744,32.5901549 C6.68585849,32.5951406 7.88243968,34.5171491 10.275641,38.3561805 C10.6176491,38.8934471 11.2726699,39.1412647 11.8846589,38.9649288 C12.4966479,38.788593 12.9193812,38.2302362 12.9230769,37.59336 L12.9230769,12.4651549 C12.9230769,11.2470903 13.8588556,10.3113087 15.0769231,10.3113087 Z" id="Shape"></path>
                    </g>
                    <polyline id="Path-12" stroke="#3BEE81" stroke-width="3" stroke-linecap="round" stroke-linejoin="round" points="17.5714286 47.6428571 22.0714286 52.1428571 30.4285714 41.8571429"></polyline>
                </g>
            </g>
        </g>
    </g>
</svg>