<svg width="80" height="48" fill="none" xmlns="http://www.w3.org/2000/svg"><g clip-path="url(#a)" fill="#fff"><path d="M16.134 47.07H3.188L22.243 9.572H0V0h34.128v8.909l-17.994 38.16ZM80.016 30.382c0 2.305-.354 4.521-1.062 6.649-.708 2.127-1.748 4.01-3.12 5.65-1.329 1.596-2.966 2.881-4.914 3.856-1.947.976-4.16 1.463-6.64 1.463a15.34 15.34 0 0 1-6.307-1.33c-1.948-.93-3.453-2.238-4.515-3.922h-.133v4.321H43.299V6.312L54.188 0v17.485h.133c.93-1.108 2.235-2.128 3.917-3.058 1.682-.931 3.74-1.396 6.175-1.396 2.39 0 4.537.465 6.44 1.396 1.948.93 3.586 2.194 4.914 3.79 1.372 1.595 2.412 3.456 3.12 5.584.753 2.083 1.13 4.277 1.13 6.581Zm-10.49 0a9.457 9.457 0 0 0-.531-3.124 7.08 7.08 0 0 0-1.461-2.66 7.545 7.545 0 0 0-2.457-1.928c-.974-.487-2.103-.73-3.386-.73-1.24 0-2.346.243-3.32.73a8.319 8.319 0 0 0-2.523 1.928 9.79 9.79 0 0 0-1.594 2.726 9.456 9.456 0 0 0 0 6.25 9.79 9.79 0 0 0 1.594 2.725 8.317 8.317 0 0 0 2.523 1.928c.974.488 2.08.731 3.32.731 1.283 0 2.412-.243 3.386-.73a7.543 7.543 0 0 0 2.457-1.929 7.727 7.727 0 0 0 1.46-2.726c.355-1.063.532-2.127.532-3.19Z"/></g><defs><clipPath id="a"><path fill="#fff" d="M0 0h80v48H0z"/></clipPath></defs></svg>