<svg width="40" height="48" fill="none" xmlns="http://www.w3.org/2000/svg"><path fill-rule="evenodd" clip-rule="evenodd" d="M19.913.503C13.445.791 7.4 2.453 2.285 5.349l-.551.312-.084.284C.746 9.017.452 12.555.828 15.849a25.03 25.03 0 0 0 5.293 12.74c.958 1.201 2.344 2.628 3.456 3.558 4.001 3.346 8.614 5.279 13.848 5.804 1.064.106 3.603.106 4.667 0a26.28 26.28 0 0 0 5.163-1.03l.432-.134-.15-.113c-2.41-1.823-4.21-3.937-5.485-6.444a18.258 18.258 0 0 1-1.49-3.975 18.23 18.23 0 0 1 1.465-12.638 17.829 17.829 0 0 1 3.325-4.584c2.067-2.071 4.386-3.513 7.153-4.447l.67-.226-.433-.204C34.377 2.098 29.522.888 24.268.548c-.97-.063-3.389-.088-4.355-.045ZM.593 32.833c-.334 1.104-.42 1.738-.445 3.303-.024 1.464.024 2.031.247 2.942a9.342 9.342 0 0 0 4.831 6.096c.698.356 1.056.491 2.022.765 1.81.513 3.77.94 5.31 1.16 5.457.773 11.376.429 16.988-.99 1.42-.36 1.94-.535 2.672-.905a8.242 8.242 0 0 0 2.53-1.938c.39-.446.929-1.21.867-1.231-.022-.007-.276.085-.564.206-2.979 1.244-5.905 1.933-9.4 2.211-.975.078-3.367.065-4.43-.023-3.846-.322-7.226-1.225-10.44-2.79-3.134-1.528-5.65-3.439-7.774-5.905A22.66 22.66 0 0 1 .92 32.79c-.1-.172-.19-.313-.2-.313-.01 0-.067.16-.126.357Z" fill="#fff"/></svg>