<svg width="43" height="48" fill="none" xmlns="http://www.w3.org/2000/svg"><path fill-rule="evenodd" clip-rule="evenodd" d="m19.185 46.06-.004.584.005-.097c.013-.22.021-.37-.001-.487Zm4.73-41.883c.024-3.247.042-3.61.193-3.84.264-.403.698-.347 1.71.223 2.07 1.165 4.967 2.646 5.94 3.036 2.177.873 5.156 1.734 8.786 2.538 1.585.35 1.848.93 2.02 4.458.055 1.11.141 2.82.193 3.8.253 4.807.19 9.976-.153 12.619a22.442 22.442 0 0 1-2.144 7.083c-1.52 3.106-4.36 6.777-6.694 8.652-1.73 1.39-4.989 3.438-7.385 4.64-1.493.749-1.765.781-2.228.268l-.258-.287V42.042l1.102-.035c.945-.03 1.176-.07 1.618-.278 2.469-1.16 2.42-4.62-.082-5.792l-.527-.248-5.16-.047c-4.63-.042-5.397-.033-5.898-.393-.123-.089-.23-.2-.373-.338-.54-.522-.744-.986-.793-1.81-.034-.573-.006-.794.146-1.137.255-.577.78-1.137 1.314-1.402l.443-.22 6.333-.047 6.333-.047.475-.251c1.801-.95 2.14-3.344.659-4.648-.758-.667-.88-.685-4.829-.684-2.418 0-3.622-.034-3.876-.11-.544-.163-1.155-.744-1.333-1.267-.264-.775-.162-1.415.322-2.018l.288-.358h-2.099c-2.32 0-2.76-.071-3.558-.578-1.449-.92-2.106-2.766-1.59-4.467.339-1.112 1.12-1.964 2.312-2.52.352-.164.791-.178 7.13-.222 6.62-.046 6.764-.05 7.183-.244.593-.275 1.038-.69 1.311-1.225.193-.378.232-.588.232-1.252 0-.7-.031-.85-.257-1.234a2.895 2.895 0 0 0-1.4-1.178c-.336-.131-.843-.165-2.92-.194l-2.513-.034.027-3.587Z" fill="#50239F"/><path d="M17.923.126c-.163.07-.86.444-1.548.829-4.077 2.278-7.22 3.498-11.785 4.573-2.936.69-3.136.784-3.628 1.689-.263.485-.278.58-.395 2.526C.185 16.12.091 20.153.244 23.539c.132 2.918.272 4.062.723 5.911.6 2.453 1.437 4.369 2.93 6.706 1.359 2.124 3.085 4.255 4.716 5.82 1.635 1.57 6.025 4.378 8.788 5.621.867.39 1.16.391 1.525.004.176-.187.222-.36.255-.957l.004-.584c-.053-.276-.284-.351-1.06-.66-1.493-.593-3.848-1.879-5.302-2.894-2.451-1.712-3.994-3.22-5.84-5.709-2.38-3.208-3.828-6.527-4.332-9.927-.33-2.227-.439-7.122-.244-10.93.052-1.006.138-2.716.191-3.8.086-1.738.25-3.609.324-3.686.015-.015.576-.172 1.248-.35 5.966-1.573 8.804-2.608 13.293-4.848l1.74-.868v-.78c0-1.388-.409-1.861-1.28-1.482ZM25.175.126c.162.07.859.444 1.548.829 4.076 2.278 7.219 3.498 11.785 4.573 2.936.69 3.135.784 3.627 1.689.264.485.279.58.395 2.526.383 6.377.477 10.41.324 13.796-.132 2.918-.272 4.062-.724 5.911-.599 2.453-1.436 4.369-2.93 6.706-1.358 2.124-3.085 4.255-4.715 5.82-1.635 1.57-6.025 4.378-8.788 5.621-.868.39-1.161.391-1.525.004-.176-.187-.222-.36-.255-.957l-.004-.584c.053-.276.284-.351 1.06-.66 1.493-.593 3.848-1.879 5.301-2.894 2.452-1.712 3.995-3.22 5.84-5.709 2.38-3.208 3.829-6.527 4.332-9.927.33-2.227.44-7.122.244-10.93-.051-1.006-.137-2.716-.19-3.8-.086-1.738-.25-3.609-.325-3.686-.014-.015-.575-.172-1.247-.35-5.966-1.573-8.804-2.608-13.293-4.848l-1.74-.868v-.78c0-1.388.408-1.861 1.28-1.482Z" fill="#311B58"/><path d="M18.125 45.4c.776.309 1.006.384 1.06.66l.018-2.443c-.023-.328.228-.78.563-1.032.563-.422.704-.469 1.032-.469l3.097-.074 1.102-.035c.945-.03 1.176-.07 1.618-.279 2.469-1.16 2.42-4.619-.082-5.791l-.527-.248-5.16-.047c-5.765-.052-5.54-.026-6.271-.731-.54-.522-.744-.986-.793-1.81-.034-.573-.006-.794.146-1.137.255-.577.78-1.137 1.314-1.402l.443-.22 6.333-.047 6.333-.047.475-.251c1.801-.95 2.14-3.344.659-4.648-.758-.667-.88-.685-4.83-.684-2.417 0-3.62-.034-3.875-.11-.544-.163-1.155-.744-1.333-1.267-.264-.775-.162-1.416.322-2.018l.288-.358h-2.099c-2.32 0-2.76-.071-3.558-.578-1.449-.92-2.106-2.767-1.59-4.467.338-1.113 1.12-1.964 2.312-2.52.352-.164.79-.178 7.13-.222 6.62-.046 6.764-.05 7.183-.245.593-.274 1.038-.69 1.31-1.224.194-.378.233-.588.233-1.252 0-.7-.031-.85-.257-1.234a2.896 2.896 0 0 0-1.4-1.178c-.337-.132-.843-.165-2.92-.194l-2.513-.035h-3.371c-.188-.089-.563-.174-.938-.549-.266-.265-.376-.813-.376-1.079V2.388l-1.74.868c-4.49 2.24-7.327 3.275-13.294 4.848-.671.178-1.233.335-1.247.35-.074.077-.238 1.947-.324 3.686-.053 1.083-.14 2.793-.19 3.8-.196 3.808-.087 8.703.243 10.93.504 3.4 1.953 6.72 4.332 9.927 1.846 2.488 3.389 3.997 5.84 5.71 1.453 1.014 3.809 2.3 5.302 2.893Z" fill="#00E8CC"/></svg>