<svg width="77" height="48" fill="none" xmlns="http://www.w3.org/2000/svg"><path d="M38.48 6.276c10.197-8.438 26.602-4.94 32.813 3.328 7.301 9.717 6.539 24.117-2.795 32.269-9.85 8.6-24.428 6.764-30.559-.31-.08 0-.181-.033-.23 0-7.458 5.743-15.618 6.126-24.133 3.008C5.872 41.748 1.79 35.847.435 27.994-.933 20.055.87 12.908 6.618 7.055 13.23.343 24.362-1.553 32.833 2.578c1.96.955 3.683 2.395 5.647 3.698Zm-6.857 32.935v-.085h1.452c2.214-.093 2.795-1.113 1.775-3.061a110.8 110.8 0 0 1-1.933-3.877c-1.496-3.146-1.56-6.526-1.911-9.878-.44-4.22-3.97-7.123-8.471-7.131a8.177 8.177 0 0 0-8.196 7.046c-.92 7.156 4.437 14.836 11.427 16.296 1.916.403 3.905.468 5.86.69h-.003Zm12.48-30.402v.037h-.968c-2.388.125-2.993 1.21-1.771 3.227a24.403 24.403 0 0 1 3.695 12.67c.036 3.63 2.162 6.384 5.558 7.498 3.538 1.161 7.333.1 9.487-2.659 1.82-2.323 2.09-4.977 1.642-7.776-.69-4.32-5.018-11.319-11.758-12.387-1.944-.327-3.92-.404-5.881-.61h-.004ZM10.7 23.948c-.17.21-.329.43-.476.657-3.105 5.595-1.391 12.343 2.469 16.57 3.78 4.143 8.684 4.691 13.928 3.84 3.324-.544 6.111-2.396 9.023-3.925.214-.109.343-.379.742-.843-13.835 2.618-22.249-2.924-25.686-16.3ZM39.976 7.454c13.581-2.42 21.996 3.227 25.727 16.437 1.125-2.581 1.762-5.014 1.633-7.664-.274-5.74-3.674-10.77-8.765-12.65a16.667 16.667 0 0 0-8.087-.806c-3.933.533-7.18 2.586-10.508 4.683ZM2.488 14.231c8.374-4.913 16.614-5.76 25.081.157-6.248-8.26-19.845-8.26-25.081-.157Zm71.056 19.248c-8.346 4.897-16.57 5.728-24.843-.048 4.977 8.006 20.116 8.03 24.843.048Z" fill="#fff"/></svg>