<svg width="48" height="48" viewBox="0 0 48 48" fill="none" xmlns="http://www.w3.org/2000/svg">
<path d="M32.5663 34.2479L28.1824 26.6777H36.6866L43.2789 38.1158C46.1466 34.1488 47.8606 29.2892 47.8606 24C47.8606 10.7438 37.148 0 23.9303 0C10.7126 0 0 10.7438 0 24C0 29.2892 1.71401 34.1488 4.5817 38.1158L23.9303 4.49587L35.4669 24.562H26.9958L23.8314 19.0744L19.4475 26.6777H25.7762L30.1271 34.2479H15.0965L9.82264 43.405C13.7781 46.3141 18.6564 48 23.9303 48C29.1383 48 33.9507 46.3141 37.8732 43.5041L32.5663 34.2479Z" fill="#739473"/>
</svg>
