<svg width="51" height="48" fill="none" xmlns="http://www.w3.org/2000/svg"><path fill-rule="evenodd" clip-rule="evenodd" d="M0 48 14.794 7.487c1.878-4.73 5.378-7.408 10.03-7.485V0a12.554 12.554 0 0 1 .208 0v.002c4.653.077 8.153 2.754 10.03 7.485L49.856 48l-9.16-3.184-12.638-34.609c-.77-1.914-1.658-2.603-3.13-2.633-1.472.03-2.36.719-3.129 2.633L9.161 44.815 0 48Zm31.366-15.427c0 3.54-2.844 6.408-6.351 6.408s-6.35-2.869-6.35-6.408c0-3.538 2.843-6.407 6.35-6.407 3.507 0 6.35 2.869 6.35 6.407Z" fill="url(#a)"/><mask id="b" style="mask-type:alpha" maskUnits="userSpaceOnUse" x="0" y="0" width="50" height="48"><path fill-rule="evenodd" clip-rule="evenodd" d="M0 48 14.794 7.487c1.878-4.73 5.378-7.408 10.03-7.485V0a12.554 12.554 0 0 1 .208 0v.002c4.653.077 8.153 2.754 10.03 7.485L49.856 48l-9.16-3.184-12.638-34.609c-.77-1.914-1.658-2.603-3.13-2.633-1.472.03-2.36.719-3.129 2.633L9.161 44.815 0 48Zm31.366-15.427c0 3.54-2.844 6.408-6.351 6.408s-6.35-2.869-6.35-6.408c0-3.538 2.843-6.407 6.35-6.407 3.507 0 6.35 2.869 6.35 6.407Z" fill="#fff"/></mask><defs><linearGradient id="a" x1="0" y1="0" x2="0" y2="48" gradientUnits="userSpaceOnUse"><stop stop-color="#42C1FD"/><stop offset="1" stop-color="#1F8EFA"/></linearGradient></defs></svg>