<svg width="115" height="48" fill="none" xmlns="http://www.w3.org/2000/svg"><path d="M46.897 36H2.795A2.794 2.794 0 0 1 0 33.205v-18.41A2.794 2.794 0 0 1 2.795 12h44.102v24Z" fill="url(#a)"/><path d="M112.149 36h-65.25V12h65.25a2.794 2.794 0 0 1 2.795 2.795v18.419A2.792 2.792 0 0 1 112.149 36Z" fill="url(#b)"/><path d="M14.327 26.556c0 .91-.129 1.637-.377 2.18-.248.542-.58.956-.975 1.232a3.265 3.265 0 0 1-1.324.56 7.722 7.722 0 0 1-1.434.139H5.555V17.434h5.13c.663 0 1.196.11 1.62.331.422.221.753.506 1.001.865.249.358.414.754.506 1.186.092.432.129.864.12 1.278-.019 1.205-.322 2.023-.91 2.455.386.184.698.515.947.993.239.488.358 1.16.358 2.014Zm-2.869-5.416c0-.414-.046-.726-.147-.929-.101-.202-.294-.303-.588-.303H8.065v2.639h2.418c.377 0 .626-.129.764-.377.138-.257.211-.607.211-1.03Zm.35 5.435c0-.368-.028-.662-.092-.874a1.44 1.44 0 0 0-.23-.506.64.64 0 0 0-.313-.239 1.041 1.041 0 0 0-.331-.055H8.065v3.172h2.566c.44 0 .754-.12.92-.349.174-.239.257-.616.257-1.15Zm12.579 4.092h-8.405V17.434h8.258V20h-5.757v2.437h5.297v2.565h-5.297v3.08h5.904v2.585Zm9.729-3.909c0 2.787-1.5 4.184-4.497 4.184-1.453 0-2.566-.413-3.329-1.232-.763-.827-1.14-2.096-1.14-3.816h2.437c.018.377.064.736.129 1.048.064.322.183.589.349.819.166.23.377.404.644.533.266.129.607.193 1.02.193.68 0 1.168-.128 1.472-.377.303-.248.46-.745.46-1.462 0-.377-.065-.653-.184-.818-.12-.166-.313-.294-.57-.396a5.5 5.5 0 0 0-1.067-.257 12.792 12.792 0 0 1-1.425-.313c-.414-.12-.8-.257-1.15-.413a2.838 2.838 0 0 1-.929-.653c-.266-.285-.469-.653-.616-1.104-.147-.45-.22-1.048-.22-1.784 0-.542.064-1.011.202-1.407.129-.395.313-.735.533-1.011.22-.276.478-.497.763-.671.295-.175.589-.304.892-.396.304-.092.607-.156.91-.184.304-.027.59-.046.837-.046.865 0 1.573.138 2.106.405.543.267.957.625 1.26 1.048.303.432.506.92.607 1.453.101.543.156 1.076.156 1.6h-2.39c-.037-.22-.065-.469-.093-.736a1.95 1.95 0 0 0-.174-.698 1.15 1.15 0 0 0-.433-.47c-.211-.137-.542-.21-.993-.21-.349 0-.643.027-.873.091-.23.064-.405.156-.534.276a.944.944 0 0 0-.266.478 3.073 3.073 0 0 0-.074.699c0 .322.074.552.212.69.138.137.404.257.79.358.405.11.81.203 1.224.276.413.074.809.166 1.195.267.386.1.745.239 1.076.413a2.8 2.8 0 0 1 .873.709c.249.303.451.69.589 1.158.156.47.22 1.058.22 1.757Zm9.13-6.767h-3.025v10.676h-2.51V19.99h-3.025v-2.557h8.551v2.557h.01Z" fill="#fff"/><path d="M59.466 25.802a9.678 9.678 0 0 1-.359 1.968 4.984 4.984 0 0 1-.8 1.628 3.72 3.72 0 0 1-1.37 1.113c-.56.275-1.241.413-2.041.413-.92 0-1.701-.156-2.345-.469a3.99 3.99 0 0 1-1.563-1.36c-.395-.598-.69-1.334-.864-2.207-.184-.874-.276-1.867-.276-2.989 0-1.03.1-1.968.294-2.795.193-.828.496-1.536.91-2.124.414-.58.938-1.03 1.563-1.343.635-.313 1.389-.469 2.262-.469.883 0 1.6.138 2.161.414.561.276 1.003.634 1.343 1.076.331.441.57.947.717 1.508.147.56.248 1.13.313 1.692h-2.373c-.055-.295-.12-.58-.193-.846a2.027 2.027 0 0 0-.312-.7 1.522 1.522 0 0 0-.57-.468c-.24-.12-.561-.175-.966-.175-.487 0-.901.083-1.232.24a1.816 1.816 0 0 0-.81.772c-.202.358-.349.827-.44 1.406-.093.58-.13 1.297-.13 2.152 0 .865.065 1.554.184 2.097.12.533.295.956.515 1.25.221.304.488.506.81.617.322.11.67.165 1.066.165.405 0 .718-.064.957-.184s.423-.294.56-.524c.139-.23.249-.497.322-.81.083-.312.157-.661.24-1.057h2.427v.01Zm10.069 4.865h-2.501v-5.71h-3.77v5.71h-2.501V17.435h2.5v4.938h3.77v-4.938h2.502v13.232Zm10.547 0h-2.62l-.69-2.731h-3.329l-.68 2.73h-2.53l3.624-13.231h2.483l3.742 13.232Zm-3.935-5.196-1.03-4.257-1.058 4.257h2.088Zm11.282 5.196-3.825-8.055v8.055h-2.501V17.435h2.455l3.853 8v-8h2.483v13.232h-2.465Zm13.747 0h-2.032v-1.343c-.147.322-.33.58-.552.782-.22.202-.46.358-.717.478-.257.12-.533.193-.809.24a4.984 4.984 0 0 1-.818.063c-.92 0-1.692-.174-2.308-.533a4.151 4.151 0 0 1-1.49-1.471c-.377-.625-.644-1.37-.8-2.225a15.326 15.326 0 0 1-.24-2.759c0-4.487 1.684-6.731 5.058-6.731.837 0 1.536.138 2.115.405a3.88 3.88 0 0 1 1.407 1.075c.359.451.616.966.773 1.536.156.58.239 1.177.239 1.784h-2.557c0-.267-.018-.543-.055-.828a1.971 1.971 0 0 0-.248-.754 1.437 1.437 0 0 0-.598-.542c-.266-.138-.625-.212-1.085-.212-.46 0-.855.074-1.168.23-.322.157-.579.396-.781.727-.203.33-.35.763-.442 1.287-.092.524-.138 1.159-.138 1.894 0 .81.037 1.508.12 2.088.083.579.22 1.048.423 1.397.202.359.469.616.8.782.331.166.754.248 1.269.248.294 0 .57-.046.837-.138.266-.092.496-.239.69-.432.192-.193.349-.45.46-.754.11-.303.155-.671.146-1.103h-2.354V23.42h4.874v7.246h-.019Zm9.959 0h-8.386V17.435h8.239V20h-5.738v2.437h5.278v2.566h-5.278v3.08h5.885v2.584Z" fill="#363636"/><defs><linearGradient id="a" x1="23.448" y1="36" x2="23.448" y2="12" gradientUnits="userSpaceOnUse"><stop stop-color="#1C1C1C"/><stop offset="1" stop-color="#4B4B4B"/></linearGradient><linearGradient id="b" x1="80.922" y1="36" x2="80.922" y2="12" gradientUnits="userSpaceOnUse"><stop stop-color="#BCBCBC"/><stop offset="1" stop-color="#F3F3F3"/></linearGradient></defs></svg>