<svg width="50" height="48" fill="none" xmlns="http://www.w3.org/2000/svg"><g clip-path="url(#a)" fill="#F3BA2F"><path d="m15.878 20.169 9.323-9.319 9.326 9.327 5.421-5.426L25.201 0 10.453 14.748l5.425 5.421ZM1.195 24l5.423-5.422L12.042 24l-5.424 5.423L1.195 24ZM15.878 27.83l9.323 9.323 9.326-9.326 5.425 5.418-.004.004-14.747 14.75-14.748-14.743-.008-.008 5.433-5.417ZM38.348 24.002l5.423-5.423 5.423 5.423-5.423 5.423-5.423-5.423Z"/><path d="m30.7 23.998-5.5-5.505-4.068 4.068-.47.467-.963.963-.008.007.008.012 5.501 5.497 5.5-5.505.005-.004H30.7Z"/></g><defs><clipPath id="a"><path fill="#fff" d="M0 0h49.2v48H0z"/></clipPath></defs></svg>