<svg width="48" height="48" viewBox="0 0 48 48" fill="none" xmlns="http://www.w3.org/2000/svg">
<path d="M39.216 48H8.784C3.936 48 0 44.064 0 39.216V8.784C0 3.936 3.936 0 8.784 0H39.216C44.064 0 48 3.936 48 8.784V39.216C48 44.064 44.064 48 39.216 48Z" fill="#0080FF"/>
<path d="M8.64001 9.048H16.776V20.88H17.136C17.736 19.872 18.408 19.152 19.152 18.696C19.896 18.24 20.832 17.904 21.912 17.712C23.016 17.496 24.456 17.4 26.232 17.4C29.352 17.4 31.848 17.64 33.744 18.096C36.12 18.696 37.728 19.968 38.52 21.936C38.928 22.944 39.168 24.024 39.24 25.152C39.312 26.208 39.36 27.432 39.36 28.8C39.36 31.464 39.216 33.36 38.928 34.488C38.304 36.936 36.936 38.544 34.776 39.36C33 40.008 30.24 40.32 26.472 40.32C22.68 40.32 20.064 39.888 18.624 39.024C17.976 38.64 17.352 37.92 16.752 36.912H16.296V39.768H8.64001V9.048ZM23.952 23.544C21.216 23.544 19.344 23.808 18.384 24.312C17.688 24.696 17.232 25.272 17.016 26.04C16.848 26.664 16.776 27.672 16.776 29.112C16.776 30.816 16.968 31.968 17.376 32.568C17.76 33.12 18.504 33.528 19.584 33.792C20.688 34.056 22.224 34.176 24.192 34.176C27.048 34.176 28.944 33.888 29.88 33.264C30.456 32.88 30.816 32.28 31.008 31.464C31.152 30.84 31.2 29.856 31.2 28.464C31.2 26.88 31.008 25.8 30.624 25.176C30.24 24.6 29.52 24.168 28.464 23.904C27.432 23.664 25.92 23.544 23.952 23.544Z" fill="white"/>
</svg>
