<svg width="48" height="48" fill="none" xmlns="http://www.w3.org/2000/svg"><path fill-rule="evenodd" clip-rule="evenodd" d="M19.598 4.3c-2.364 2.365-4.163 4.25-3.998 4.188.165-.062.93-.38 1.7-.706 1.959-.831 4.103-1.223 6.7-1.223 2.58 0 4.614.371 6.648 1.213.799.33 1.587.651 1.752.714.165.062-1.634-1.821-3.998-4.186C26.038 1.935 24.057 0 24 0c-.057 0-2.038 1.935-4.402 4.3ZM4.241 19.538C1.908 21.858 0 23.846 0 23.955c0 .11 1.938 2.121 4.307 4.47l4.307 4.272-.606-1.334c-1.2-2.645-1.5-4.126-1.5-7.412 0-3.327.346-4.998 1.507-7.284.336-.662.579-1.236.539-1.275-.04-.04-1.98 1.826-4.313 4.146ZM39.4 15.362c0 .084.268.68.595 1.324.436.86 1.405 3.69 1.405 4.105 0 .016-.832.09-1.85.163-1.018.075-2.21.172-2.65.217-.44.045-2.237.185-3.994.313-2.964.214-3.209.206-3.4-.114-1.585-2.654-3.821-3.783-6.547-3.306-3.72.651-5.888 4.4-4.644 8.027.414 1.209 1.686 2.619 2.96 3.284.879.458 1.267.534 2.725.534 1.453 0 1.847-.077 2.713-.528 1.045-.546 2.337-1.804 2.728-2.657.123-.268.335-.487.472-.487.599 0 11.377.819 11.426.868.128.127-.796 3.042-1.351 4.266l-.602 1.326 4.307-4.271C46.062 26.076 48 24.063 48 23.952c0-.112-1.935-2.124-4.3-4.473-2.365-2.348-4.3-4.2-4.3-4.117ZM19.65 43.678 23.999 48l4.293-4.263c2.361-2.345 4.265-4.291 4.23-4.326-.034-.034-.638.206-1.342.533-2.325 1.081-4.164 1.454-7.18 1.454-3.013 0-4.856-.373-7.172-1.45-.7-.326-1.33-.592-1.4-.592-.07 0 1.83 1.945 4.222 4.322Z" fill="#F4C567"/></svg>