<svg width="48" height="48" fill="none" xmlns="http://www.w3.org/2000/svg"><path d="M36 24 24 36h24L36 24Z" fill="url(#a)"/><path d="M12 24 0 12v24l12-12Z" fill="url(#b)"/><path d="m36 24 12-12H24l12 12Z" fill="url(#c)"/><path d="M24 12 36 0H12l12 12Z" fill="url(#d)"/><path d="m36 48 12-12H24l12 12Z" fill="url(#e)"/><path d="m12 48 12-12H0l12 12Z" fill="url(#f)"/><path d="M36 0 24 12h24L36 0Z" fill="url(#g)"/><path d="M0 12h24L12 0 0 12Z" fill="url(#h)"/><path d="M24 36 12 48h24L24 36Z" fill="url(#i)"/><path d="M12 24 0 36h24L12 24Z" fill="url(#j)"/><path d="M24 12H0l12 12 12-12Z" fill="url(#k)"/><defs><linearGradient id="a" x1="23.988" y1="30.015" x2="47.987" y2="30.015" gradientUnits="userSpaceOnUse"><stop stop-color="#fff" stop-opacity=".52"/><stop offset="1" stop-color="#fff" stop-opacity=".62"/></linearGradient><linearGradient id="b" x1="-.012" y1="24.019" x2="11.988" y2="24.019" gradientUnits="userSpaceOnUse"><stop stop-color="#fff"/><stop offset="1" stop-color="#fff" stop-opacity=".97"/></linearGradient><linearGradient id="c" x1="23.988" y1="18.024" x2="47.987" y2="18.024" gradientUnits="userSpaceOnUse"><stop stop-color="#fff" stop-opacity=".52"/><stop offset="1" stop-color="#fff" stop-opacity=".62"/></linearGradient><linearGradient id="d" x1="11.988" y1="6.034" x2="35.987" y2="6.034" gradientUnits="userSpaceOnUse"><stop stop-color="#fff" stop-opacity=".8"/><stop offset="1" stop-color="#fff" stop-opacity=".7"/></linearGradient><linearGradient id="e" x1="23.988" y1="42.005" x2="47.987" y2="42.005" gradientUnits="userSpaceOnUse"><stop stop-color="#fff" stop-opacity=".67"/><stop offset="1" stop-color="#fff" stop-opacity=".62"/></linearGradient><linearGradient id="f" x1="-.012" y1="42.005" x2="23.988" y2="42.005" gradientUnits="userSpaceOnUse"><stop stop-color="#fff" stop-opacity=".89"/><stop offset="1" stop-color="#fff" stop-opacity=".8"/></linearGradient><linearGradient id="g" x1="23.988" y1="6.034" x2="47.987" y2="6.034" gradientUnits="userSpaceOnUse"><stop stop-color="#fff" stop-opacity=".67"/><stop offset="1" stop-color="#fff" stop-opacity=".62"/></linearGradient><linearGradient id="h" x1="-.012" y1="6.034" x2="23.988" y2="6.034" gradientUnits="userSpaceOnUse"><stop stop-color="#fff" stop-opacity=".89"/><stop offset="1" stop-color="#fff" stop-opacity=".8"/></linearGradient><linearGradient id="i" x1="11.988" y1="42.005" x2="35.987" y2="42.005" gradientUnits="userSpaceOnUse"><stop stop-color="#fff" stop-opacity=".8"/><stop offset="1" stop-color="#fff" stop-opacity=".7"/></linearGradient><linearGradient id="j" x1="-.012" y1="30.015" x2="23.988" y2="30.015" gradientUnits="userSpaceOnUse"><stop stop-color="#fff" stop-opacity=".9"/><stop offset="1" stop-color="#fff" stop-opacity=".95"/></linearGradient><linearGradient id="k" x1="-.012" y1="18.024" x2="23.988" y2="18.024" gradientUnits="userSpaceOnUse"><stop stop-color="#fff" stop-opacity=".9"/><stop offset="1" stop-color="#fff" stop-opacity=".95"/></linearGradient></defs></svg>