<svg width="42" height="48" fill="none" xmlns="http://www.w3.org/2000/svg"><g clip-path="url(#a)" fill="#fff"><path d="m21.457 9.186 3.486-2.008V2.386L21.457.377V.371v8.815ZM8.658 30.074v-13.49l11.625-6.708V.378L1.024 11.49a1.18 1.18 0 0 0-.59 1.024v22.24c0 .019.006.045.006.065l8.218-4.746ZM32.508 31.019 20.877 37.74 9.31 31.065 1.086 35.81l19.2 11.086a1.19 1.19 0 0 0 1.181 0l19.26-11.12c.006 0 .006-.006.013-.006l-8.232-4.752ZM40.722 11.49l-7.634-4.404v4.792l-8.205 4.74 8.205 4.732v8.638l8.225 4.746v-22.22c0-.42-.223-.807-.591-1.023ZM16.797 21.284v9.4l7.988-4.608V16.67l-7.988 4.614Z"/></g><defs><clipPath id="a"><path fill="#fff" d="M0 0h41.846v48H0z"/></clipPath></defs></svg>