<svg width="48" height="48" fill="none" xmlns="http://www.w3.org/2000/svg"><path fill-rule="evenodd" clip-rule="evenodd" d="M24.359 6.285c-3.36-.011-4.9-3.103-2.659-5.344C22.722-.08 22.954-.128 25.626.136c6.104.601 10.433 2.64 14.836 6.986 4.934 4.873 7.109 10.027 7.118 16.874.01 6.88-2.08 11.808-7.14 16.84-2.166 2.153-4.062 3.587-5.948 4.497C31.739 46.663 26.47 48 23.985 48c-1.706 0-3.37-1.641-3.37-3.322 0-1.86 1.495-2.82 4.886-3.137 7.933-.74 14.688-7.294 15.802-15.327.477-3.441.058-5.039-1.42-5.41-.544-.136-4.703-.189-9.243-.117-7.416.118-8.343.213-9.14.934-1.204 1.091-1.204 3.625 0 4.716.758.686 1.689.823 6.427.939 3.047.075 5.675.266 5.84.425.538.52-1.532 3.586-3.368 4.986-6.854 5.228-16.787.902-17.675-7.697-.32-3.112.501-5.694 2.557-8.03 3.933-4.467 10.288-5.205 15.132-1.755 1.869 1.33 3.956 1.24 5.217-.226.549-.638.998-1.515.998-1.948 0-2.715-7.302-6.73-12.27-6.746Z" fill="#fff"/><path d="M12.167 39.924c-1.12.906-1.248 3.196-.238 4.206.98.98 3.202.807 4.116-.32 1.054-1.303.976-2.391-.258-3.625-1.232-1.233-2.323-1.312-3.62-.261ZM5.865 31.477c-2.19.683-2.907 3.694-1.17 4.91.514.36 1.247.656 1.628.656 1.105 0 2.913-1.661 2.913-2.676 0-1.851-1.788-3.384-3.371-2.89ZM1.627 21.806c-1.148.93-1.296 3.141-.277 4.16 1.018 1.018 3.229.87 4.16-.278 1.053-1.301.976-2.39-.258-3.624-1.234-1.235-2.323-1.312-3.625-.258ZM4.695 11.571c-1.181.827-1.274 3.123-.167 4.125 2.633 2.382 6.374-1.43 3.865-3.938-1.01-1.01-2.421-1.082-3.698-.187ZM12.162 3.685c-1.082.877-1.299 2.983-.416 4.047.856 1.03 3.624.854 4.42-.282.924-1.32.817-2.312-.379-3.507-1.234-1.235-2.323-1.312-3.625-.258Z" fill="#008BCC"/></svg>