<svg id="Layer_1" data-name="Layer 1" xmlns="http://www.w3.org/2000/svg" xmlns:xlink="http://www.w3.org/1999/xlink"
     width="120" height="48" viewBox="100 450 800 100">
  <defs>
    <style>
      .cls-1 {
      fill: url(#gradient_162);
      }

      .cls-2 {
      fill: url(#gradient_165);
      }

      .cls-3 {
      fill: url(#gradient_164);
      }

      .cls-4 {
      fill: url(#gradient_163);
      }

      .cls-5 {
      fill: url(#gradient_162-2);
      }

      .cls-6 {
      fill: url(#gradient_2);
      }
    </style>
    <linearGradient id="gradient_162" x1="601.01" y1="462.82" x2="464.13" y2="425.93"
                    gradientUnits="userSpaceOnUse">
      <stop offset="0.14" stop-color="#1b0067" />
      <stop offset="0.21" stop-color="#251277" />
      <stop offset="0.34" stop-color="#363092" />
      <stop offset="0.48" stop-color="#4347a7" />
      <stop offset="0.62" stop-color="#4c57b6" />
      <stop offset="0.79" stop-color="#5161bf" />
      <stop offset="1" stop-color="#5364c2" />
    </linearGradient>
    <linearGradient id="gradient_165" x1="550.48" y1="579.7" x2="356.99" y2="309.84"
                    gradientUnits="userSpaceOnUse">
      <stop offset="0" stop-color="#1b0067" />
      <stop offset="0.08" stop-color="#251277" />
      <stop offset="0.23" stop-color="#363092" />
      <stop offset="0.39" stop-color="#4347a7" />
      <stop offset="0.56" stop-color="#4c57b6" />
      <stop offset="0.75" stop-color="#5161bf" />
      <stop offset="1" stop-color="#5364c2" />
    </linearGradient>
    <linearGradient id="gradient_164" x1="502.5" y1="538.86" x2="594.4" y2="422.37"
                    gradientUnits="userSpaceOnUse">
      <stop offset="0.15" stop-color="#1b0067" />
      <stop offset="0.22" stop-color="#251277" />
      <stop offset="0.35" stop-color="#363092" />
      <stop offset="0.48" stop-color="#4347a7" />
      <stop offset="0.63" stop-color="#4c57b6" />
      <stop offset="0.79" stop-color="#5161bf" />
      <stop offset="1" stop-color="#5364c2" />
    </linearGradient>
    <linearGradient id="gradient_163" x1="419.86" y1="451.36" x2="497.52" y2="377.58"
                    gradientUnits="userSpaceOnUse">
      <stop offset="0.14" stop-color="#1b0067" />
      <stop offset="0.53" stop-color="#352e91" />
      <stop offset="1" stop-color="#5364c2" />
    </linearGradient>
    <linearGradient id="gradient_162-2" x1="585.39" y1="343.42" x2="580.86" y2="413.96"
                    xlink:href="#gradient_162" />
    <linearGradient id="gradient_2" x1="500" y1="711.86" x2="500" y2="531.9"
                    gradientUnits="userSpaceOnUse">
      <stop offset="0.18" stop-color="#1b0067" />
      <stop offset="0.24" stop-color="#251277" />
      <stop offset="0.37" stop-color="#363092" />
      <stop offset="0.5" stop-color="#4347a7" />
      <stop offset="0.64" stop-color="#4c57b6" />
      <stop offset="0.8" stop-color="#5161bf" />
      <stop offset="1" stop-color="#5364c2" />
    </linearGradient>
  </defs>
  <title>2</title>
  <path class="cls-1" d="M564.76,422.49c12.54,16.74-24.18,49.09-15.93,35.73H470.6a91.62,91.62,0,0,1-17.08-35.73Z" />
  <path class="cls-2"
        d="M542.09,518.93a202.47,202.47,0,0,1-35.86,22.88L500,544.93l-6.27-3.12c-58.85-29.52-94-80.39-94-136.14V340.23h35.9v65.44a89.73,89.73,0,0,0,.86,12.48c4.52,33.87,27.39,65.11,63.35,86.15a.42.42,0,0,0,.12.08l.09-.06.15-.09A129.63,129.63,0,0,0,542.09,518.93Z" />
  <path class="cls-3"
        d="M599.12,422.49A133.12,133.12,0,0,1,588.57,460c-9.84,22.12-25.65,42.24-46.48,59a129.63,129.63,0,0,1-41.84-14.7,161.28,161.28,0,0,0,13.67-9,14.69,14.69,0,0,0,1.27-.92,130,130,0,0,0,49.57-71.84Z" />
  <rect class="cls-4" x="435.68" y="340.23" width="164.56" height="35.88" />
  <path class="cls-5" d="M600.23,376.1v29.57c0,1.22,0,2.45-.07,3.67H564.24c0-1.22.06-2.45.06-3.67V376.1Z" />
  <path class="cls-6"
        d="M165.49,621.63q0,10.57-2.38,17.26a30.3,30.3,0,0,1-12,15.64,34.15,34.15,0,0,1-19.08,5.24q-17.93,0-27.51-12.2a34.75,34.75,0,0,1-7.25-22.08q0-14.21,8.49-23.89,9.63-11,26.9-11,11.53,0,19.55,5.92,5.72,4.18,9.77,12.39l-16,6.63a18.89,18.89,0,0,0-4.78-6.83,14.25,14.25,0,0,0-9.33-3.23q-11.05,0-15.4,11.37a23.6,23.6,0,0,0-1.63,8.66A21.56,21.56,0,0,0,120.73,641q4.36,4.62,11.63,4.61,6.45,0,10.23-3.75a12.79,12.79,0,0,0,3.26-7.31H131.92V621.63Zm87.06,8.58a45,45,0,0,1-1,10A23.22,23.22,0,0,1,244.54,652q-7.92,7.49-21.18,7.49-13.49,0-21.07-7.63a20.93,20.93,0,0,1-5.49-10.06,50.51,50.51,0,0,1-1.05-11.54V592.68h16.93v35.21q0,4.25.15,6.33.46,6.63,6,9.25a11.58,11.58,0,0,0,5.06,1.09q6.19,0,9.34-4.33,2.34-3.19,2.34-12.34V592.68h16.93Zm89.16,27.56H323.63l-4.19-11.35H296.07l-4.48,11.35H273.71l25-65.09H317.2Zm-26.85-24.22-7-20.75-7.11,20.75Zm108,24.22h-21l-16.17-25v25H368.72V592.68h26.33q11.54,0,17.07,6.91a20.32,20.32,0,0,1,4.48,13.12q0,8.63-5.15,13.78a18,18,0,0,1-9.06,4.58Zm-23.8-44.13a7.72,7.72,0,0,0-2.53-5.85q-2.4-2.24-7.71-2.23h-3.16v16.21h3.16c3.58,0,6.14-.75,7.71-2.24A7.83,7.83,0,0,0,399.05,613.64ZM506.57,625.2A33.31,33.31,0,0,1,484.77,656a31.19,31.19,0,0,1-10.3,1.76h-25V592.68h25a30.49,30.49,0,0,1,17,5.1A32.84,32.84,0,0,1,503.23,611,32.12,32.12,0,0,1,506.57,625.2Zm-17.55,0a19,19,0,0,0-3.78-11.76q-5-6.65-15-6.64h-3.87v36.86h3.87q10,0,15-6.65A19.2,19.2,0,0,0,489,625.2Zm101.89,32.57H572.84l-4.2-11.35H545.27l-4.48,11.35H522.91l25-65.09H566.4Zm-26.85-24.22-7-20.75L550,633.55Zm108,24.22H651l-16.16-25v25H617.93V592.68h26.32q11.54,0,17.07,6.91a20.32,20.32,0,0,1,4.48,13.12q0,8.63-5.15,13.78a18,18,0,0,1-9.06,4.58Zm-23.79-44.13a7.73,7.73,0,0,0-2.54-5.85c-1.6-1.49-4.16-2.23-7.7-2.23h-3.16v16.21H638q5.36,0,7.7-2.24A7.84,7.84,0,0,0,648.26,613.64Zm67.36,44.13H698.69V592.68h16.93Zm95.06,0H792.61l-4.2-11.35H765.05l-4.48,11.35H742.68l25-65.09h18.45Zm-26.84-24.22-7-20.75-7.11,20.75ZM902.7,657.77H885.77l-31.14-39.86v39.86H837.7V592.68h16.93l31.14,39.82V592.68H902.7Z" />
</svg>
