<svg width="32" height="48" fill="none" xmlns="http://www.w3.org/2000/svg"><g clip-path="url(#a)"><path d="M21.545 14.764c0-6.887-3.355-12.819-5.91-14.744 0 0-.197-.108-.177.17-.21 13.306-7.009 16.912-10.744 21.766-8.622 11.211-.61 23.5 7.565 25.771 4.555 1.275-1.057-2.25-1.783-9.686-.887-8.975 11.05-15.835 11.05-23.277Z" fill="#fff"/><path d="M25.462 19.298c-.054-.034-.129-.06-.176.027-.143 1.675-1.85 5.254-4.02 8.548-7.355 11.157-3.166 16.54-.807 19.434 1.37 1.674 0 0 3.417-1.715a15.425 15.425 0 0 0 7.368-11.917c.671-7.93-4.087-12.926-5.782-14.377Z" fill="#2CA6E0"/></g><defs><clipPath id="a"><path fill="#fff" d="M0 0h32v48H0z"/></clipPath></defs></svg>