<svg width="37" height="49" fill="none" xmlns="http://www.w3.org/2000/svg"><path fill-rule="evenodd" clip-rule="evenodd" d="m34.671.475-2.078.913c-.996.438-10.175 4.443-14.114 6.158C15.98 8.634 4.42 13.69 2.575 14.503L1 15.197l.979.439c.538.241 1.003.439 1.033.439.03 0 .46.185.954.411.495.227 1.835.816 2.977 1.31 1.143.494 2.659 1.154 3.368 1.466.71.312 1.644.717 2.078.899.433.182 1.465.632 2.292 1.001.828.369 2.15.949 2.938 1.29.788.34 3.367 1.468 5.732 2.507a856.582 856.582 0 0 0 6.162 2.684c1.024.437 1.91.866 1.968.954.141.214.14 4.244-.002 4.244-.115 0-2.272-.917-5.549-2.358-1.024-.45-3.023-1.322-4.442-1.936a5651.009 5651.009 0 0 1-16.336-7.129c-1.891-.829-3.552-1.54-3.69-1.58-.23-.065-.25.104-.25 2.174v2.245l.537.22c.508.209 1.645.705 3.761 1.64.513.226 3.576 1.563 6.807 2.97 3.231 1.406 8.892 3.873 12.578 5.481l6.704 2.924-.017 1.973c-.01 1.085-.075 2.008-.145 2.051-.137.085-2.287-.824-11.024-4.66-.512-.224-1.995-.873-3.296-1.44a4328.485 4328.485 0 0 1-8.024-3.507L6.8 30.906c-.63-.276-1.678-.732-2.329-1.013-.65-.281-1.606-.7-2.125-.931-.518-.231-.987-.42-1.042-.42-.055 0-.082 1.012-.06 2.25l.04 2.25 3.725 1.628c2.049.895 5.047 2.2 6.663 2.898 1.616.698 4.066 1.764 5.445 2.37l3.583 1.568c2.623 1.14 5.62 2.45 6.806 2.974.71.314 1.645.718 2.078.898.434.18 1.975.85 3.425 1.49 1.45.64 2.691 1.162 2.759 1.162.068 0 .106-5.006.086-11.136l-.036-11.136-1.837-.809c-1.01-.444-1.822-.866-1.804-.936.017-.07.81-.47 1.764-.887.953-.418 1.78-.807 1.838-.866.17-.168.207-22.235.039-22.23-.08.002-.595.203-1.147.445Zm-3.08 8.152c0 2.097-.009 2.155-.323 2.284-.428.174-2.108.902-4.908 2.127-5.35 2.34-8.082 3.528-8.963 3.895l-.939.392-2.313-1.023c-1.273-.563-2.35-1.06-2.395-1.105-.094-.093.682-.452 5.332-2.47.61-.265 2.013-.877 3.116-1.36C28.492 7.74 31.39 6.486 31.483 6.48c.06-.003.107.963.107 2.147Zm-.104 11.046c-.1.098-3.895 1.806-4.516 2.033-.151.055-.995-.24-2.15-.75a194.215 194.215 0 0 0-2.473-1.078c-.438-.182-.523-.267-.358-.36.26-.146 9.01-3.944 9.314-4.043.183-.059.22.238.255 2.01.021 1.143-.01 2.128-.072 2.188Z" fill="#fff"/></svg>