<svg width="117" height="49" fill="none" xmlns="http://www.w3.org/2000/svg"><path fill-rule="evenodd" clip-rule="evenodd" d="M27.98 3.478C29.463 1.746 31.365.526 33.178.143c.545-.115 1.648-.127 2.188-.023 1.563.299 3.118 1.286 4.44 2.818C40.842 4.14 51.759 18.65 57.486 26.44c2.984 4.058 5.877 8.09 7.576 10.552-1.288-1.291-2.507-2.242-6.504-2.924-5.502-.94-17.96 2.023-24.37 4.81a12.393 12.393 0 0 0-2.118.164c-2.984.482-5.935 1.504-13.356 4.628-6.325 2.662-8.698 3.523-11.113 4.03-.721.152-.908.172-1.803.195-.766.02-1.142.007-1.609-.054C1.84 47.53.454 46.611.071 45.108c-.093-.368-.095-1.171-.003-1.652.216-1.13.917-2.621 1.913-4.069.172-.25 1.774-2.476 3.56-4.947a490855.94 490855.94 0 0 0 17.357-24.012c2.586-3.578 4.873-6.706 5.082-6.95Z" fill="url(#a)"/><path d="M38.43 39.524c2.656.69 5.252 1.647 11.307 4.168 5.325 2.217 7.677 3.1 9.784 3.675 2.744.748 5.384.892 6.897.376.573-.195.936-.413 1.305-.783.59-.59.81-1.18.81-2.17-.001-1.714-.857-3.883-2.539-6.425-.245-.372-.56-.836-.931-1.374-1.288-1.291-2.507-2.242-6.504-2.924-5.502-.94-17.96 2.023-24.37 4.81 1.268.012 2.602.222 4.24.647Z" fill="url(#b)"/><path fill-rule="evenodd" clip-rule="evenodd" d="M76.232 44.62c1.483 1.732 3.385 2.953 5.198 3.335.545.115 1.648.127 2.187.023 1.564-.299 3.119-1.285 4.44-2.818 1.037-1.201 11.954-15.712 17.681-23.501 2.984-4.058 5.877-8.09 7.576-10.552-1.288 1.291-2.507 2.242-6.504 2.924-5.502.94-17.96-2.023-24.37-4.81a12.395 12.395 0 0 1-2.118-.164c-2.984-.481-5.935-1.504-13.356-4.628C60.64 1.767 58.268.906 55.853.4c-.721-.152-.908-.172-1.803-.195-.766-.02-1.142-.007-1.609.055-2.35.308-3.736 1.227-4.118 2.73-.093.37-.095 1.172-.003 1.653.216 1.131.917 2.621 1.913 4.069.172.25 1.774 2.476 3.56 4.947L71.15 37.67c2.586 3.579 4.873 6.706 5.082 6.95Z" fill="url(#c)"/><path d="M86.682 8.574c2.656-.69 5.252-1.646 11.307-4.168 5.325-2.217 7.677-3.1 9.784-3.675 2.744-.748 5.384-.892 6.897-.376.573.195.936.413 1.305.783.59.59.809 1.18.809 2.17 0 1.714-.856 3.883-2.538 6.426-.245.371-.56.835-.931 1.373-1.289 1.291-2.507 2.242-6.504 2.924-5.503.94-17.96-2.023-24.37-4.81 1.268-.012 2.602-.222 4.24-.647Z" fill="url(#d)"/><defs><linearGradient id="a" x1="34.266" y1=".049" x2="34.266" y2="48.049" gradientUnits="userSpaceOnUse"><stop stop-color="#293CAA"/><stop offset="1" stop-color="#3F71FB"/></linearGradient><linearGradient id="b" x1="51.373" y1="34.359" x2="66.189" y2="48.055" gradientUnits="userSpaceOnUse"><stop stop-color="#293CAA"/><stop offset=".624" stop-color="#3860E1"/><stop offset="1" stop-color="#3F71FB"/></linearGradient><linearGradient id="c" x1="82.518" y1="48.049" x2="82.518" y2=".049" gradientUnits="userSpaceOnUse"><stop stop-color="#F7971E"/><stop offset="1" stop-color="#FFD200"/></linearGradient><linearGradient id="d" x1="99.624" y1="13.739" x2="114.441" y2=".043" gradientUnits="userSpaceOnUse"><stop stop-color="#F9A517"/><stop offset=".624" stop-color="#FBB50F"/><stop offset="1" stop-color="#FFD200"/></linearGradient></defs></svg>