<svg width="121" height="48" fill="none" xmlns="http://www.w3.org/2000/svg"><path d="M.729 28.976V14.905h2.3v12.098h5.957v1.973H.73ZM20.613 23.634c0 1.74-.446 3.096-1.338 4.072-.892.975-2.133 1.462-3.724 1.462-.995 0-1.874-.224-2.638-.673-.763-.45-1.35-1.094-1.761-1.935-.41-.84-.616-1.816-.616-2.926 0-1.726.443-3.073 1.328-4.042.886-.969 2.134-1.453 3.744-1.453 1.54 0 2.76.497 3.658 1.491.898.989 1.347 2.323 1.347 4.004Zm-7.748 0c0 2.458.908 3.686 2.724 3.686 1.797 0 2.695-1.228 2.695-3.686 0-2.432-.905-3.648-2.714-3.648-.95 0-1.64.315-2.07.944-.423.629-.635 1.53-.635 2.704ZM27.514 29.168c-1.61 0-2.836-.468-3.677-1.405-.834-.943-1.25-2.294-1.25-4.052 0-1.79.435-3.166 1.308-4.129.88-.962 2.146-1.443 3.802-1.443 1.123 0 2.133.208 3.032.625l-.684 1.82c-.956-.373-1.745-.559-2.368-.559-1.841 0-2.762 1.222-2.762 3.667 0 1.194.228 2.092.684 2.695.462.597 1.135.895 2.02.895 1.008 0 1.961-.25 2.86-.75v1.972a4.46 4.46 0 0 1-1.3.51c-.456.103-1.01.154-1.665.154ZM39.64 28.976l-.451-1.482h-.077c-.514.648-1.03 1.09-1.55 1.328-.52.23-1.187.346-2.002.346-1.046 0-1.864-.282-2.454-.846-.584-.565-.876-1.364-.876-2.397 0-1.097.407-1.925 1.222-2.483s2.057-.863 3.725-.915l1.838-.057v-.568c0-.68-.16-1.187-.48-1.52-.315-.34-.806-.511-1.473-.511-.546 0-1.069.08-1.57.24-.5.161-.981.35-1.443.569l-.731-1.617a7.73 7.73 0 0 1 1.896-.684 8.56 8.56 0 0 1 1.944-.24c1.354 0 2.374.295 3.06.885.693.59 1.04 1.517 1.04 2.782v7.17H39.64Zm-3.368-1.54c.822 0 1.48-.228 1.973-.683.5-.462.751-1.107.751-1.935v-.924l-1.367.058c-1.065.038-1.841.218-2.329.539-.481.314-.722.799-.722 1.453 0 .475.141.844.424 1.107.282.257.706.385 1.27.385ZM46.676 28.976h-2.261V14h2.261v14.976Z" fill="#AC84FC"/><path d="M56.146 16.676c-1.322 0-2.36.468-3.118 1.405-.757.937-1.136 2.23-1.136 3.879 0 1.726.363 3.031 1.088 3.917.731.885 1.787 1.328 3.166 1.328a8.53 8.53 0 0 0 1.733-.173 21.418 21.418 0 0 0 1.742-.462v1.973c-1.104.417-2.355.626-3.754.626-2.06 0-3.641-.623-4.745-1.868-1.103-1.25-1.655-3.038-1.655-5.36 0-1.464.266-2.744.799-3.84.539-1.098 1.315-1.939 2.329-2.522 1.014-.584 2.204-.876 3.57-.876 1.438 0 2.766.301 3.985.904l-.828 1.916c-.474-.225-.978-.42-1.51-.587a5.289 5.289 0 0 0-1.666-.26ZM67.811 18.139c.456 0 .831.032 1.126.096l-.22 2.108a4.275 4.275 0 0 0-1.002-.116c-.905 0-1.64.295-2.204.886-.558.59-.837 1.357-.837 2.3v5.563h-2.262V18.331h1.77l.3 1.877h.115a4.233 4.233 0 0 1 1.376-1.511 3.305 3.305 0 0 1 1.838-.558ZM69.303 18.331h2.464l2.166 6.035c.327.86.545 1.668.654 2.425h.077c.058-.353.164-.78.318-1.28.154-.507.969-2.9 2.444-7.18h2.445l-4.552 12.06c-.828 2.214-2.208 3.32-4.139 3.32-.5 0-.988-.054-1.463-.163v-1.79a5.3 5.3 0 0 0 1.165.115c1.09 0 1.857-.632 2.3-1.896l.394-1.001-4.273-10.645ZM86.887 29.169c-1.347 0-2.393-.485-3.137-1.454h-.135c.09.898.135 1.444.135 1.636v4.36h-2.262v-15.38h1.829c.051.199.157.674.317 1.425h.116c.706-1.078 1.764-1.617 3.176-1.617 1.328 0 2.361.48 3.099 1.443.744.963 1.116 2.313 1.116 4.052 0 1.74-.378 3.096-1.135 4.072-.75.975-1.79 1.463-3.119 1.463Zm-.548-9.182c-.898 0-1.556.263-1.973.789-.41.526-.616 1.366-.616 2.521v.337c0 1.296.205 2.236.616 2.82.41.578 1.08.866 2.011.866.783 0 1.386-.32 1.81-.962.423-.642.635-1.556.635-2.743 0-1.193-.212-2.095-.635-2.704-.417-.616-1.033-.924-1.848-.924ZM97.734 27.34c.552 0 1.104-.087 1.656-.26v1.704c-.25.109-.575.198-.972.269a6.32 6.32 0 0 1-1.223.116c-2.143 0-3.214-1.13-3.214-3.388v-5.737h-1.454v-1l1.56-.828.77-2.253h1.395v2.368h3.032v1.713h-3.032v5.698c0 .546.135.95.404 1.213.276.257.636.385 1.078.385ZM110.968 23.634c0 1.74-.446 3.096-1.338 4.072-.891.975-2.133 1.463-3.724 1.463-.995 0-1.874-.225-2.637-.674-.764-.45-1.351-1.094-1.762-1.935-.41-.84-.616-1.816-.616-2.926 0-1.726.443-3.073 1.328-4.042.886-.969 2.134-1.453 3.744-1.453 1.54 0 2.759.497 3.658 1.492.898.988 1.347 2.322 1.347 4.003Zm-7.748 0c0 2.458.908 3.686 2.724 3.686 1.797 0 2.695-1.228 2.695-3.686 0-2.431-.905-3.647-2.714-3.647-.95 0-1.639.314-2.069.943-.424.629-.636 1.53-.636 2.704ZM120.728 25.944c0 1.04-.379 1.838-1.136 2.397-.757.552-1.842.828-3.253.828-1.418 0-2.557-.216-3.417-.645V26.57c1.251.577 2.416.866 3.494.866 1.392 0 2.088-.42 2.088-1.26a.999.999 0 0 0-.231-.674c-.154-.18-.407-.366-.76-.559-.353-.192-.844-.41-1.473-.654-1.225-.475-2.056-.95-2.492-1.425-.43-.474-.645-1.09-.645-1.848 0-.91.366-1.616 1.097-2.117.738-.507 1.739-.76 3.003-.76 1.251 0 2.435.253 3.551.76l-.731 1.703c-1.149-.474-2.114-.712-2.897-.712-1.194 0-1.79.34-1.79 1.02 0 .334.154.616.462.848.314.23.994.548 2.04.952.879.34 1.518.652 1.915.934.398.282.693.61.886.982.192.365.289.805.289 1.318Z" fill="#fff"/></svg>