<svg width="55" height="48" fill="none" xmlns="http://www.w3.org/2000/svg"><path fill-rule="evenodd" clip-rule="evenodd" d="M14.058.106c-.175.05-.487.245-.694.431-.267.24-2.283 3.643-6.87 11.595L0 23.386v1.237L6.565 35.99c6.042 10.462 6.6 11.39 7 11.645l.436.279 13.058.062c8.934.042 13.196.027 13.494-.047.24-.06.599-.255.797-.435.239-.217 1.998-3.173 5.259-8.837 2.695-4.681 5.605-9.726 6.466-11.21l1.567-2.698.003-.727.003-.726-6.471-11.21C43.967 4.794 41.583.765 41.355.557A2.351 2.351 0 0 0 40.6.116c-.492-.148-26.036-.158-26.542-.01ZM29.53 11.575c4.499.78 8.285 3.98 9.845 8.322 1.248 3.474.874 7.49-.993 10.665-1.875 3.188-4.898 5.342-8.61 6.136-1.163.249-3.746.248-4.889-.001-2.58-.563-4.78-1.749-6.563-3.538-5.084-5.1-5.001-13.206.185-18.185 1.837-1.763 4.15-2.958 6.572-3.395 1.119-.202 3.3-.204 4.453-.004Z" fill="#1565C0"/><path d="M25.906 13.803c-3.767.594-6.89 3.045-8.269 6.487-.56 1.4-.748 2.567-.684 4.252.055 1.444.18 2.127.605 3.295l.216.597H20.655l.001-4.489.001-4.489 1.38 1.401c.758.771 2.264 2.326 3.346 3.456l1.967 2.054 3.27-3.432 3.269-3.432.027 4.414.027 4.413H36.936l.226-.596c.455-1.201.644-2.451.591-3.919-.057-1.628-.311-2.701-.964-4.084-1.695-3.592-5.113-5.845-9.076-5.983-.656-.023-1.47.002-1.807.055Z" fill="#1565C0"/><path d="m29.473 27.301-2.133 2.21-2.123-2.159-2.123-2.158-.052 2.632-.052 2.632-1.972.052-1.972.052.675.714a9.974 9.974 0 0 0 3.062 2.25c1.734.843 2.377.981 4.567.976 1.59-.004 1.988-.039 2.676-.23 1.81-.505 3.597-1.575 4.87-2.915l.752-.792-.413-.074c-.226-.04-1.123-.075-1.993-.079l-1.581-.006-.028-2.657-.027-2.657-2.133 2.21Z" fill="#1565C0"/><mask id="a" style="mask-type:alpha" maskUnits="userSpaceOnUse" x="0" y="0" width="55" height="48"><path fill-rule="evenodd" clip-rule="evenodd" d="M14.058.106c-.175.05-.487.245-.694.431-.267.24-2.283 3.643-6.87 11.595L0 23.386v1.237L6.565 35.99c6.042 10.462 6.6 11.39 7 11.645l.436.279 13.058.062c8.934.042 13.196.027 13.494-.047.24-.06.599-.255.797-.435.239-.217 1.998-3.173 5.259-8.837 2.695-4.681 5.605-9.726 6.466-11.21l1.567-2.698.003-.727.003-.726-6.471-11.21C43.967 4.794 41.583.765 41.355.557A2.351 2.351 0 0 0 40.6.116c-.492-.148-26.036-.158-26.542-.01ZM29.53 11.575c4.499.78 8.285 3.98 9.845 8.322 1.248 3.474.874 7.49-.993 10.665-1.875 3.188-4.898 5.342-8.61 6.136-1.163.249-3.746.248-4.889-.001-2.58-.563-4.78-1.749-6.563-3.538-5.084-5.1-5.001-13.206.185-18.185 1.837-1.763 4.15-2.958 6.572-3.395 1.119-.202 3.3-.204 4.453-.004Z" fill="#1565C0"/><path d="M25.906 13.803c-3.767.594-6.89 3.045-8.269 6.487-.56 1.4-.748 2.567-.684 4.252.055 1.444.18 2.127.605 3.295l.216.597H20.655l.001-4.489.001-4.489 1.38 1.401c.758.771 2.264 2.326 3.346 3.456l1.967 2.054 3.27-3.432 3.269-3.432.027 4.414.027 4.413H36.936l.226-.596c.455-1.201.644-2.451.591-3.919-.057-1.628-.311-2.701-.964-4.084-1.695-3.592-5.113-5.845-9.076-5.983-.656-.023-1.47.002-1.807.055Z" fill="#1565C0"/><path d="m29.473 27.301-2.133 2.21-2.123-2.159-2.123-2.158-.052 2.632-.052 2.632-1.972.052-1.972.052.675.714a9.974 9.974 0 0 0 3.062 2.25c1.734.843 2.377.981 4.567.976 1.59-.004 1.988-.039 2.676-.23 1.81-.505 3.597-1.575 4.87-2.915l.752-.792-.413-.074c-.226-.04-1.123-.075-1.993-.079l-1.581-.006-.028-2.657-.027-2.657-2.133 2.21Z" fill="#1565C0"/></mask><g mask="url(#a)"><path d="M40.739 55.738 19.565 34.045l4.463-6.643 6.02-8.563 6.539-3.374L55.425 33.63v1.973l-3.061 7.628-11.625 12.508Z" fill="#0D47A1"/></g><path fill-rule="evenodd" clip-rule="evenodd" d="M29.53 11.575c4.499.78 8.285 3.98 9.844 8.322 1.249 3.474.875 7.49-.992 10.665-1.875 3.188-4.898 5.342-8.61 6.136-1.163.249-3.746.248-4.89-.001-2.58-.563-4.78-1.75-6.562-3.538-5.084-5.101-5.001-13.206.185-18.185 1.837-1.763 4.149-2.958 6.571-3.395 1.12-.203 3.3-.205 4.453-.005ZM17.636 20.29c1.378-3.442 4.502-5.893 8.268-6.487.338-.053 1.152-.078 1.808-.055 3.963.138 7.381 2.391 9.076 5.983.653 1.383.906 2.456.964 4.084.053 1.468-.136 2.718-.591 3.919l-.226.596H33.943l-.027-4.413-.027-4.414-3.27 3.432-3.27 3.432-1.966-2.054a436.083 436.083 0 0 0-3.347-3.456l-1.379-1.401v4.49l-.002 4.488h-2.88l-.217-.597c-.424-1.169-.55-1.851-.605-3.295-.064-1.685.123-2.852.684-4.252Zm9.703 9.22 2.133-2.209 2.132-2.209.028 2.657.028 2.657 1.58.006c.87.004 1.768.04 1.994.08l.413.073-.753.791c-1.273 1.34-3.06 2.41-4.869 2.915-.688.192-1.085.227-2.676.23-2.19.006-2.834-.132-4.567-.975a9.973 9.973 0 0 1-3.062-2.25l-.675-.714 1.972-.052 1.972-.052.052-2.632.052-2.632 2.123 2.158 2.123 2.159Z" fill="#E3F2FD"/><path d="M25.906 13.803c-3.766.594-6.89 3.045-8.268 6.487-.561 1.4-.749 2.567-.684 4.252.055 1.444.18 2.127.604 3.295l.217.597h2.88l.002-4.489v-4.489l1.38 1.401c.758.77 2.264 2.326 3.346 3.456l1.967 2.054 3.27-3.432 3.27-3.432.026 4.414.027 4.413H36.936l.227-.596c.454-1.201.643-2.451.59-3.919-.057-1.628-.31-2.701-.963-4.084-1.695-3.592-5.113-5.845-9.076-5.983-.657-.023-1.47.002-1.808.055Z" fill="#1565C0"/><path d="m29.473 27.301-2.132 2.21-2.123-2.159-2.123-2.158-.052 2.632-.052 2.632-1.972.052-1.972.052.674.714a9.974 9.974 0 0 0 3.062 2.25c1.734.843 2.378.981 4.567.975 1.591-.003 1.988-.038 2.676-.23 1.81-.505 3.597-1.574 4.87-2.914l.752-.792-.412-.074c-.227-.04-1.124-.075-1.994-.079l-1.58-.006-.028-2.657-.028-2.657-2.133 2.21Z" fill="#1565C0"/></svg>