<svg
  width="48"
  height="48"
  fill="none"
  xmlns="http://www.w3.org/2000/svg"
>
  <path
    fill-rule="evenodd"
    clip-rule="evenodd"
    d="M0 5.647C0 2.528 2.38 0 5.32 0h37.36C45.618 0 48 2.53 48 5.647v36.706C48 45.472 45.62 48 42.68 48H5.32C2.382 48 0 45.47 0 42.353V5.647Z"
    fill="#000"
  />
  <path
    fill-rule="evenodd"
    clip-rule="evenodd"
    d="M11.34 32.305c0 .896.705 1.6 1.6 1.6.897 0 1.622-.704 1.622-1.6v-7.424l2.838 4.374c.34.512.768.832 1.365.832s1.024-.32 1.365-.832l2.88-4.438v7.446c0 .896.726 1.642 1.622 1.642a1.63 1.63 0 0 0 1.642-1.642V20.4a1.63 1.63 0 0 0-1.642-1.642h-.363c-.661 0-1.13.277-1.472.832l-3.99 6.485-3.967-6.464c-.3-.49-.79-.853-1.494-.853h-.362A1.63 1.63 0 0 0 11.34 20.4v11.904Z"
    fill="#fff"
  />
  <path
    fill-rule="evenodd"
    clip-rule="evenodd"
    d="M25.891 32.305v-7.424l2.838 4.374c.34.512.768.832 1.365.832s1.024-.32 1.365-.832l2.88-4.438v7.446c0 .896.726 1.642 1.622 1.642a1.63 1.63 0 0 0 1.642-1.642V20.4a1.63 1.63 0 0 0-1.642-1.642h-.363c-.661 0-1.13.277-1.472.832l-3.99 6.485-3.967-6.464c-.3-.49-.79-.853-1.494-.853 0 0 1.216 14.442 1.216 13.546Z"
    fill="#fff"
  />
  <path
    d="M4.5 7.5a3 3 0 0 1 3-3h33a3 3 0 0 1 3 3h-39Z"
    fill="#00BDF4"
  />
</svg>