<svg width="49" height="49" fill="none" xmlns="http://www.w3.org/2000/svg"><path fill-rule="evenodd" clip-rule="evenodd" d="M17.793.31c-2.347.354-4.24.961-6.514 2.086-3.412 1.688-7.264 5.444-8.894 8.67C.973 13.861.307 16.2.083 19.151c-.459 6.034.983 10.973 4.449 15.247 1.049 1.294 2.998 3.096 4.418 4.087 1.262.88 3.516 2.069 4.457 2.352.297.09.661.216.81.282 1.372.612 4.504 1.076 7.267 1.076 5.543 0 9.863-1.452 13.853-4.655 1.598-1.283 3.767-3.684 4.58-5.07.627-1.07 1.358-2.405 1.358-2.482 0-.049.12-.351.266-.672.146-.32.42-1.118.61-1.772a23.197 23.197 0 0 0 .185-12.133C40.384 7.698 33.476 1.57 25.35.345 23.307.037 19.706.02 17.793.31Zm6.7 8.016c3.907 1 7.226 4.26 8.577 8.425.636 1.962.81 4.253.505 6.689-.339 2.702-1.699 5.385-3.76 7.419-2.412 2.378-4.875 3.41-8.176 3.427-3.284.016-5.694-.93-8.098-3.178a13.114 13.114 0 0 1-4.115-8.28c-.47-4.471.841-8.348 3.836-11.346C15.384 9.358 17.182 8.467 20.29 8c.8-.12 3.178.064 4.203.326Zm16.512 29.28v1.08h1.755c.965 0 1.754.033 1.754.073 0 .04-.486.642-1.08 1.336l-1.08 1.262v1.814l.372-.091c1.028-.253 1.875-.24 2.415.035.673.343.852.557.943 1.126.108.683-.136 1.144-.779 1.472-.775.396-1.597.302-2.87-.327-.547-.27-1.017-.492-1.044-.492-.146 0-.959 1.744-.893 1.916.13.34 1.625 1.028 2.6 1.198 1.16.202 2.647.071 3.416-.3.645-.313 1.429-1.055 1.733-1.643.29-.558.388-2.118.18-2.86-.231-.826-1.092-1.705-2.002-2.045l-.698-.26.49-.533c1.806-1.962 1.806-1.961 1.806-2.94v-.9h-7.018v1.08Z" fill="url(#a)"/><defs><linearGradient id="a" x1="24.269" y1=".103" x2="24.269" y2="48.103" gradientUnits="userSpaceOnUse"><stop stop-color="#007BFF"/><stop offset="1" stop-color="#0069D9"/></linearGradient></defs></svg>