<svg width="48" height="48" fill="none" xmlns="http://www.w3.org/2000/svg"><g clip-path="url(#a)"><path d="M33.313.528H14.685C6.866.528.527 6.867.527 14.686v18.628c0 7.82 6.34 14.158 14.158 14.158h18.628c7.82 0 14.158-6.339 14.158-14.158V14.686c0-7.82-6.338-14.158-14.158-14.158Z" stroke="#EAF0FA" stroke-width="1.8"/><path opacity=".95" d="M13.063 19.534a3.85 3.85 0 0 1 2.214-3.515l14.583-6.84c2.54-1.19 5.46.649 5.483 3.454l.016 2.002a3.849 3.849 0 0 1-2.214 3.515l-14.583 6.84c-2.54 1.19-5.46-.649-5.483-3.454l-.016-2.002ZM12.96 33.313c0-1.5.873-2.864 2.234-3.494l14.382-6.651c2.55-1.18 5.465.683 5.465 3.493v1.946c0 1.5-.872 2.864-2.233 3.493l-14.382 6.652c-2.55 1.18-5.465-.683-5.465-3.493v-1.946Z" fill="#F1F7FF"/><g filter="url(#b)"><path d="M12.96 19.657c0-2.807 2.91-4.67 5.46-3.495L33.047 22.9a3.849 3.849 0 0 1 2.238 3.495v2.026c0 2.807-2.909 4.67-5.46 3.495L15.2 25.178a3.85 3.85 0 0 1-2.24-3.495v-2.026Z" fill="#fff"/></g></g><defs><clipPath id="a"><path fill="#fff" d="M0 0h48v48H0z"/></clipPath><filter id="b" x="-6.293" y="-.241" width="60.831" height="54.977" filterUnits="userSpaceOnUse" color-interpolation-filters="sRGB"><feFlood flood-opacity="0" result="BackgroundImageFix"/><feColorMatrix in="SourceAlpha" values="0 0 0 0 0 0 0 0 0 0 0 0 0 0 0 0 0 0 127 0" result="hardAlpha"/><feOffset dy="3.209"/><feGaussianBlur stdDeviation="9.627"/><feColorMatrix values="0 0 0 0 0.054902 0 0 0 0 0.105882 0 0 0 0 0.431373 0 0 0 0.06 0"/><feBlend in2="BackgroundImageFix" result="effect1_dropShadow_1551_10308"/><feBlend in="SourceGraphic" in2="effect1_dropShadow_1551_10308" result="shape"/></filter></defs></svg>