<svg width="48" height="48" fill="none" xmlns="http://www.w3.org/2000/svg"><mask id="a" style="mask-type:alpha" maskUnits="userSpaceOnUse" x="0" y="0" width="47" height="48"><path d="M.37.858h46.386v46.537H.37V.858Z" fill="#fff"/></mask><g mask="url(#a)"><path fill-rule="evenodd" clip-rule="evenodd" d="m21.168 9.293 5.466-4.275-12.282 2.748 6.816 1.527Zm4.251.953 2.064-4.203-4.635 3.626 2.571.577Zm3.274.733V6.622l-1.925 3.927 1.926.43h-.001Zm3.915.879-2.568-5.23v4.655l2.568.575Zm-14.845.1 2.06-1.61-5.77-1.295 3.712 2.904-.002.001Zm23.344 1.805-9.859-7.718 3.037 6.188 6.82 1.528.002.002Zm-25.968.248 1.544-1.21-3.472-2.715 1.927 3.925h.001Zm7.547 1.8 2.135-4.344-3.32-.744-2.658 2.08 3.843 3.008Zm13.492.275 4.628-1.035-5.772-1.296 1.144 2.331Zm-24.18.383 2.06-1.612L12 10.662v5.808h-.002Zm18.04.992 4.792-1.072-1.476-3.008-3.316-.744v4.824Zm-4.08.912 2.733-.611v-5.426l-2.525-.568-2.4 4.89 2.192 1.715Zm11.676.681 3.472-2.716-4.33.97.858 1.746Zm-15.085.08 1.731-.385-1.112-.872-.62 1.259v-.002Zm-4.413.99 2.736-.612 1.216-2.48-4.325-3.384-2.025 1.584 2.398 4.891Zm10.555.386v-1.392l-1.384.308 1.384 1.084Zm-16.694.987 4.793-1.072-2.134-4.348-2.66 2.08v3.34Zm-6.815.305 5.47-4.28v-6.863L5.183 21.8v.003Zm14.17.801.771-1.57-1.389.31.618 1.26Zm20.024 0 2.57-5.232-3.712 2.904 1.142 2.33v-.002Zm-33.355.232 4.63-1.037v-2.585l-4.63 3.622Zm26.21.447 4.323-3.383-1.124-2.291-5.392 1.208v2.749l2.192 1.716Zm-2.194 1.716 1.113-.872-1.113-.873V24.998Zm-19.387.096v-1.94l-4.328.97 4.328.969v.001Zm6.739 1.508 1.216-2.476-1.216-2.48-5.392 1.207v2.54l5.392 1.209Zm19.763.53 1.477-3.007-1.475-3.003-3.844 3.004 3.842 3.008v-.001Zm-17.032.082-.768-1.564-.618 1.254 1.386.31Zm5.504 1.232 3.066-2.395V22.2l-3.063-2.397-3.824.854-1.704 3.47 1.7 3.463 3.827.858-.002-.002Zm-14.974.587v-2.585L6.02 25.41l4.63 3.622Zm18.038.101v-1.392l-1.384 1.084 1.384.308Zm14.469 1.173.001-12.363-3.035 6.182 3.034 6.181Zm-19.992.067 1.113-.873-1.732-.388.619 1.261Zm12.262.27 1.127-2.29-4.324-3.383-2.195 1.717v2.749l5.392 1.208Zm6.519.24-2.57-5.235-1.144 2.328 3.714 2.908Zm-.84 1.033-3.472-2.719-.86 1.747 4.332.972Zm-26.45.256 2.134-4.348-4.792-1.073v3.338l2.658 2.083Zm20.376 2.326 5.776-1.293-4.632-1.037-1.144 2.33Zm-17.27.104 4.323-3.384-1.216-2.48-2.731-.613-2.402 4.891 2.026 1.584v.002Zm12.273 1.014 3.319-.742 1.476-3.008-4.793-1.073v4.823h-.002Zm-3.872.868 2.525-.565.002-5.429-2.73-.613-2.195 1.717 2.397 4.89h.001ZM21.5 37.528l3.315-.742-2.13-4.345-3.844 3.007 2.66 2.08Zm-10.848.06v-6.862l-5.469-4.281 5.466 11.144h.003Zm1.344 0 2.063-4.194-2.061-1.613v5.808h-.002Zm1.215.575 3.472-2.717-1.546-1.208-1.926 3.925Zm.84 1.032 5.77-1.291-2.058-1.611-3.712 2.902Zm14.638 2.438v-4.358l-1.926.432 1.926 3.926Zm1.347 0 2.57-5.235-2.57.575v4.66Zm-2.56.573-2.06-4.198-2.57.576 4.629 3.622h.001Zm3.771 0 9.861-7.712-6.822 1.528-3.039 6.186v-.002Zm-4.616 1.03-5.465-4.278-6.816 1.525 12.281 2.754Zm2.732 4.16c-.896 0-1.73-.393-2.288-1.08a2.84 2.84 0 0 1-.637-1.767l-12.496-2.8a2.922 2.922 0 0 1-2.62 1.598c-.895 0-1.729-.392-2.287-1.078a2.837 2.837 0 0 1 .446-4.02L3.923 26.922a2.98 2.98 0 0 1-.63.065 2.927 2.927 0 0 1-2.285-1.077 2.835 2.835 0 0 1 .464-4.032 2.919 2.919 0 0 1 1.816-.624c.214 0 .427.024.637.07L9.488 9.991a2.805 2.805 0 0 1-1.064-2.547 2.823 2.823 0 0 1 1.082-1.92 2.925 2.925 0 0 1 1.82-.627c.896 0 1.73.393 2.288 1.081.128.157.24.331.336.523l12.496-2.796c.005-.872.4-1.677 1.096-2.221a2.924 2.924 0 0 1 1.821-.626 2.93 2.93 0 0 1 2.288 1.08c.695.855.83 2.026.357 3.011l10.024 7.847c.52-.4 1.142-.612 1.802-.612.896 0 1.73.394 2.288 1.08a2.836 2.836 0 0 1-.464 4.032 2.91 2.91 0 0 1-1.15.548l-.002 12.57a2.93 2.93 0 0 1 1.614 1.004c.486.598.706 1.349.62 2.109a2.842 2.842 0 0 1-1.084 1.923 2.932 2.932 0 0 1-1.82.624 2.966 2.966 0 0 1-1.809-.611l-10.022 7.84a2.838 2.838 0 0 1-.823 3.467 2.924 2.924 0 0 1-1.82.626Z" fill="#2EA836"/></g></svg>