<svg width="123" height="48" fill="none" xmlns="http://www.w3.org/2000/svg"><g clip-path="url(#a)"><path d="M110.234 32.308H76.117l9.176-16.736L93.563.517l3.49 6.59 3.553 6.785 6.074 11.631 3.554 6.785Z" fill="#E41321"/><path d="m.581 33.988 7.883.065c0 1.615.452 2.907 1.422 4.006 1.421 1.615 3.683 2.39 6.849 2.39 2.39 0 4.265-.322 5.557-.969 1.744-.84 2.65-2.197 2.65-4.07 0-1.099-.389-1.939-1.164-2.65-.775-.71-2.778-1.421-5.945-2.261-2.455-.646-4.975-1.293-7.43-2.003-2.52-.646-4.33-1.422-5.493-2.326-1.227-.905-2.132-2.133-2.714-3.748-.581-1.616-.904-3.102-.904-4.588 0-2.972.969-5.557 2.778-7.625 2.585-2.907 6.72-4.393 12.342-4.329 5.363.065 9.37 1.551 12.083 4.653 2.068 2.326 3.101 5.104 3.101 8.206l-7.818-.065c-.194-1.55-.646-2.778-1.357-3.618-1.292-1.551-3.49-2.391-6.59-2.391-1.81 0-3.36.323-4.588.97-1.551.84-2.262 2.067-2.327 3.682 0 1.357.453 2.39 1.422 3.102.517.387 1.421.775 2.714 1.034l9.563 2.39c3.23.84 5.622 1.939 7.108 3.166 2.067 1.745 3.101 4.2 3.101 7.431-.064 5.105-2.197 8.723-6.526 10.791-2.65 1.292-5.686 1.939-9.046 1.939-6.332-.065-10.92-1.616-13.699-4.782-2.003-2.197-3.037-5.04-2.972-8.4Z" fill="#fff"/><path d="M84.984 37.08c6.031-6.03 6.031-15.809 0-21.84-6.03-6.03-15.809-6.03-21.84 0-6.03 6.031-6.03 15.81 0 21.84 6.031 6.031 15.81 6.031 21.84 0Z" fill="#579DCF"/><path d="M82.45 7.172 71.851 46.394h-8.335l-6.72-24.748-6.656 24.748h-8.335L31.209 7.172h7.883l6.85 24.49 6.913-24.49h7.948l6.914 24.49 6.849-24.49h7.883Z" fill="#fff"/><path d="M89.493 26.105c0 2.197-.453 4.33-1.293 6.203H76.117l9.176-16.736c2.584 2.779 4.2 6.462 4.2 10.533Z" fill="#363266"/><path d="M110.234 32.308H88.265a15.537 15.537 0 0 0 1.292-6.268c0-4.07-1.615-7.754-4.2-10.532L93.628.452l3.49 6.591 3.553 6.785 6.074 11.63 3.489 6.85Z" fill="#E41321"/><path d="M119.022 10.532c-2.132-2.261-5.04-3.36-8.788-3.36H92.465V46.46h8.077V32.308h9.628c4.523-.065 7.624-1.745 9.756-4.976a13.492 13.492 0 0 0 2.262-7.56c0-3.876-1.034-6.978-3.166-9.24Zm-5.88 12.859c-.969 1.421-2.649 2.132-5.04 2.132h-7.496v-11.63h6.462c2.52 0 4.329.452 5.428 1.292 1.098.84 1.68 2.261 1.68 4.2 0 1.744-.388 3.037-1.034 4.006Z" fill="#fff"/><path d="M110.233 32.308h-9.628V13.957l6.074 11.63 3.554 6.72Z" fill="#E41321"/><path d="m73.596 10.726-5.88 20.936-2.067 7.43a15.466 15.466 0 0 1-6.527-9.11 15.175 15.175 0 0 1-.517-3.877c0-4.265 1.745-8.077 4.524-10.856 2.649-2.713 6.332-4.394 10.467-4.523Z" fill="#579DCF"/></g><defs><clipPath id="a"><path fill="#fff" d="M0 0h123v48H0z"/></clipPath></defs></svg>