<svg width="33" height="48" fill="none" xmlns="http://www.w3.org/2000/svg"><path d="M16.526 0c-6.577 0-11.9 5.329-11.9 11.914v4.465c-2.31.418-4.626.976-4.626 1.7v23.303s0 .645.723.95c2.622 1.063 12.936 4.718 15.306 5.555.305.113.391.113.471.113.113 0 .166 0 .471-.113 2.37-.837 12.71-4.492 15.332-5.555.67-.279.697-.923.697-.923v-23.33c0-.724-2.283-1.308-4.6-1.7v-4.465C28.434 5.329 23.077 0 16.527 0Zm0 5.694c3.877 0 6.22 2.346 6.22 6.226v3.88c-4.348-.305-8.058-.305-12.432 0v-3.88c0-3.887 2.343-6.226 6.212-6.226Zm-.026 15.82c5.41 0 9.95.42 9.95 1.17v14.539c0 .226-.027.252-.226.332-.193.086-9.226 3.349-9.226 3.349s-.365.113-.472.113c-.112 0-.47-.14-.47-.14s-9.034-3.262-9.226-3.349c-.193-.086-.226-.113-.226-.332V22.658c-.053-.751 4.487-1.143 9.896-1.143Z" fill="#fff"/></svg>