<svg width="40" height="48" fill="none" xmlns="http://www.w3.org/2000/svg"><path fill-rule="evenodd" clip-rule="evenodd" d="M19.117.329c-1.238.754-5.763 2.934-7.736 3.726-3.12 1.252-6.71 2.238-9.707 2.667-.44.063-.943.263-1.184.47-.396.34-.423.456-.475 1.983-.115 3.382.46 9.393 1.245 13.009 1.4 6.448 4.04 12.201 7.723 16.831 1.121 1.41 3.949 4.255 5.381 5.416 1.273 1.03 4.747 3.361 5.247 3.52.508.161.917-.026 2.89-1.32 2.419-1.587 3.554-2.5 5.591-4.5 7.595-7.456 11.406-17.428 11.81-30.899.086-2.86.066-3.32-.166-3.768-.145-.28-.422-.542-.616-.581-.194-.04-1.454-.286-2.8-.547-4.388-.851-8.264-2.275-13.406-4.923C21.404.635 20.054 0 19.913 0c-.142 0-.5.148-.796.329ZM29.59 15.361c-.428.747-3.46 4.731-3.698 4.858-.402.215-15.581.214-15.714 0-.1-.16 2.902-4.495 3.363-4.858.193-.152 2.081-.197 8.206-.197 6.32 0 7.933.04 7.843.197Zm-9.326 12.518 2.148 1.422.004 2.396c.001 1.318-.04 2.51-.094 2.648-.053.14-.951 1.004-1.995 1.92-1.649 1.449-1.953 1.655-2.312 1.569-.807-.194-.809-.208-.809-6.288v-5.672l.455.292c.25.16 1.42.931 2.603 1.713Z" fill="#FCF9FF"/><path d="m20.265 27.88 2.148 1.42.004 2.397c.001 1.318-.04 2.51-.094 2.648-.053.14-.951 1.004-1.995 1.92-1.649 1.449-1.953 1.655-2.312 1.569-.807-.194-.809-.208-.809-6.288v-5.672l.455.292c.25.16 1.42.931 2.603 1.713ZM29.59 15.36c-.427.748-3.46 4.732-3.697 4.859-.402.215-15.581.214-15.714 0-.1-.16 2.902-4.495 3.363-4.858.193-.152 2.081-.197 8.206-.197 6.32 0 7.933.04 7.843.197Z" fill="#FCF9FF"/><mask id="a" style="mask-type:alpha" maskUnits="userSpaceOnUse" x="0" y="0" width="40" height="48"><path fill-rule="evenodd" clip-rule="evenodd" d="M19.117.329c-1.238.754-5.763 2.934-7.736 3.726-3.12 1.252-6.71 2.238-9.707 2.667-.44.063-.943.263-1.184.47-.396.34-.423.456-.475 1.983-.115 3.382.46 9.393 1.245 13.009 1.4 6.448 4.04 12.201 7.723 16.831 1.121 1.41 3.949 4.255 5.381 5.416 1.273 1.03 4.747 3.361 5.247 3.52.508.161.917-.026 2.89-1.32 2.419-1.587 3.554-2.5 5.591-4.5 7.595-7.456 11.406-17.428 11.81-30.899.086-2.86.066-3.32-.166-3.768-.145-.28-.422-.542-.616-.581-.194-.04-1.454-.286-2.8-.547-4.388-.851-8.264-2.275-13.406-4.923C21.404.635 20.054 0 19.913 0c-.142 0-.5.148-.796.329ZM29.59 15.361c-.428.747-3.46 4.731-3.698 4.858-.402.215-15.581.214-15.714 0-.1-.16 2.902-4.495 3.363-4.858.193-.152 2.081-.197 8.206-.197 6.32 0 7.933.04 7.843.197Zm-9.326 12.518 2.148 1.422.004 2.396c.001 1.318-.04 2.51-.094 2.648-.053.14-.951 1.004-1.995 1.92-1.649 1.449-1.953 1.655-2.312 1.569-.807-.194-.809-.208-.809-6.288v-5.672l.455.292c.25.16 1.42.931 2.603 1.713Z" fill="#F9F3FF"/><path d="m20.265 27.88 2.148 1.42.004 2.397c.001 1.318-.04 2.51-.094 2.648-.053.14-.951 1.004-1.995 1.92-1.649 1.449-1.953 1.655-2.312 1.569-.807-.194-.809-.208-.809-6.288v-5.672l.455.292c.25.16 1.42.931 2.603 1.713ZM29.59 15.36c-.427.748-3.46 4.732-3.697 4.859-.402.215-15.581.214-15.714 0-.1-.16 2.902-4.495 3.363-4.858.193-.152 2.081-.197 8.206-.197 6.32 0 7.933.04 7.843.197Z" fill="#F9F3FF"/></mask><g mask="url(#a)"><path d="m27.787 47.812-9.91-9.91 1.841-7.369.75-5.151-3.001-3.003V18.49l3.514-.989 4.076-1.075 2.354-4.554 14.073 7.505 1.5 3.003-.323 6.515-14.874 18.917Z" fill="#F9F3FF"/></g><path fill-rule="evenodd" clip-rule="evenodd" d="M25.876 20.367c-.259.095-.415.108-.46.102H10.37c-.051.011-.17 0-.239-.136-.068-.137-.028-.25 0-.29l3.292-4.538a1.48 1.48 0 0 1 .29-.273c.11-.068.376-.085.495-.085h15.659l-3.48 4.776c-.062.108-.252.348-.512.444Zm-3.462 8.938v5.22l-2.712 2.49c-.336.375-1.092.943-1.587.955-.56.014-.858-.54-.938-.819V25.74l5.237 3.565Z" fill="#F24B93"/><path d="M29.868 15.147a.893.893 0 0 0 .102-.375c0-.15-.068-.37-.102-.46l-1.928-2.184c-.119-.091-.412-.27-.63-.256-.22.014-.512.176-.632.256l-3.377 3.02h6.567ZM10.371 20.47c-.051.01-.17 0-.239-.137a.524.524 0 0 0-.085.392c.027.205.227.426.324.512l6.806 4.503 5.237 3.565v-6.192c0-.063-.038-.235-.188-.426-.15-.192-.21-.228-.222-.222l-3.053-1.996h-8.58Z" fill="#C23A76"/></svg>