<svg width="79" height="79" viewBox="0 0 79 79" fill="none" xmlns="http://www.w3.org/2000/svg">
<path fill-rule="evenodd" clip-rule="evenodd" d="M39.5 79C61.3152 79 79 61.3152 79 39.5C79 17.6848 61.3152 0 39.5 0C17.6848 0 0 17.6848 0 39.5C0 61.3152 17.6848 79 39.5 79Z" fill="url(#paint0_linear)"/>
<path d="M42.1543 29.1905H33.8572C29.1853 29.1817 25.0952 32.3249 23.9012 36.8416C22.7071 41.3583 24.7094 46.1121 28.7753 48.4133" stroke="white" stroke-width="2" stroke-linecap="round"/>
<path d="M36.3333 49.7619H44.6304C49.3023 49.7707 53.3923 46.6275 54.5864 42.1108C55.7805 37.5941 53.7781 32.8402 49.7123 30.539" stroke="white" stroke-width="2" stroke-linecap="round"/>
<path d="M40.0744 53.5333L36.3105 49.7619L40.0744 45.9905" stroke="white" stroke-width="2" stroke-linecap="round"/>
<path d="M38.5505 25.419L42.322 29.1905L38.5505 32.9619" stroke="white" stroke-width="2" stroke-linecap="round"/>
<defs>
<linearGradient id="paint0_linear" x1="0" y1="0" x2="0" y2="79" gradientUnits="userSpaceOnUse">
<stop stop-color="#3BEE81"/>
<stop offset="1" stop-color="#50E3A2"/>
</linearGradient>
</defs>
</svg>
