<svg width="108" height="69" viewBox="0 0 108 69" fill="none" xmlns="http://www.w3.org/2000/svg">
<g clip-path="url(#clip0)">
<path d="M1.73682 64.7064H6.81579V42.7981H6.89771L21.013 64.7064H27.4656V36.1405H22.3804V57.3616H22.3048L8.44156 36.1405H1.73682V64.7064ZM35.5756 56.6366C36.2769 58.4045 37.3408 60.0057 38.6985 61.3371C40.0563 62.6683 41.678 63.7001 43.4588 64.366C45.3976 65.0969 47.4554 65.4603 49.5271 65.4377C51.6241 65.4366 53.7028 65.0475 55.6584 64.2903C57.4494 63.5923 59.0822 62.5418 60.4601 61.2011C61.8223 59.8594 62.895 58.2521 63.611 56.479C64.3757 54.5391 64.7504 52.4674 64.7139 50.3825C64.7443 48.2568 64.3611 46.1455 63.5854 44.1662C62.8767 42.3781 61.8037 40.7571 60.4349 39.4063C59.0667 38.0732 57.4295 37.0479 55.6332 36.399C53.6677 35.6946 51.5891 35.3591 49.5019 35.4092C47.4302 35.3866 45.3723 35.75 43.4335 36.481C41.6536 37.1545 40.0333 38.1916 38.676 39.526C37.3076 40.8846 36.2348 42.5116 35.5252 44.3049C34.774 46.2978 34.4146 48.4171 34.4666 50.5464C34.4386 52.6309 34.8219 54.7005 35.5946 56.6366H35.5756ZM40.4782 46.2278C40.9272 45.0261 41.6056 43.9233 42.4757 42.981C43.3425 42.0473 44.394 41.3044 45.5634 40.7996C46.8359 40.2582 48.2076 39.9898 49.5901 40.0115C50.9743 39.9931 52.3474 40.2615 53.623 40.7996C54.7998 41.3011 55.8581 42.0443 56.7296 42.981C57.5994 43.9236 58.2778 45.0263 58.7272 46.2278C59.194 47.5014 59.4246 48.8495 59.4078 50.206C59.4228 51.6487 59.1839 53.0828 58.702 54.4426C58.2632 55.6793 57.5844 56.817 56.7045 57.7903C55.8347 58.7385 54.7766 59.4944 53.5978 60.0095C52.3256 60.5603 50.9511 60.8354 49.5649 60.8165C48.1846 60.8371 46.816 60.562 45.5509 60.0095C44.3795 59.491 43.3282 58.7354 42.4631 57.7903C41.5828 56.8173 40.9039 55.6796 40.4656 54.4426C39.9854 53.0825 39.7486 51.6483 39.7661 50.206C39.7547 48.8416 39.994 47.4868 40.4719 46.2088L40.4782 46.2278ZM76.9444 64.7064H81.6207L88.2369 42.9557H88.3191L94.9608 64.7064H99.8001L108.106 36.1405H102.945L97.3364 56.7185H97.2543L90.9531 36.1405H85.9496L79.528 56.7185H79.4465L74.0841 36.1405H68.4947L76.9444 64.7064Z" fill="#38F06E"/>
<path d="M12.6763 14.806C12.0282 14.0241 11.2118 13.3991 10.288 12.9777C9.41122 12.583 8.46405 12.3686 7.50276 12.3472C6.44012 12.3127 5.38142 12.4929 4.38987 12.8768C3.49904 13.2263 2.69018 13.7564 2.01422 14.434C1.35318 15.1049 0.842001 15.9087 0.514466 16.7919C-0.171489 18.7208 -0.171489 20.8272 0.514466 22.756C0.839616 23.6461 1.35093 24.4564 2.01422 25.1328C2.68948 25.8112 3.49853 26.3416 4.38987 26.69C5.38142 27.074 6.44012 27.2541 7.50276 27.2197C8.46405 27.1982 9.41122 26.9839 10.288 26.5892C11.2119 26.168 12.0284 25.5429 12.6763 24.7609L11.0442 23.4999C10.6749 24.0488 10.183 24.5042 9.60747 24.8302C8.96823 25.199 8.24054 25.3865 7.50276 25.3724C6.74173 25.4057 5.98254 25.2723 5.27837 24.9815C4.64227 24.7286 4.06676 24.344 3.58958 23.853C3.11571 23.3318 2.75522 22.7178 2.53093 22.0499C2.04733 20.5863 2.04733 19.0058 2.53093 17.5422C2.75617 16.8766 3.11661 16.2649 3.58958 15.7454C4.05844 15.2379 4.62981 14.8361 5.26577 14.5664C5.97005 14.276 6.72914 14.1426 7.49017 14.1755C8.22795 14.1615 8.95564 14.3489 9.59488 14.7177C10.1702 15.0439 10.6621 15.4993 11.0316 16.048L12.6637 14.7871L12.6763 14.806ZM17.4528 26.8792H19.4504V19.6163C19.4061 18.5709 19.6227 17.531 20.0805 16.5902C20.4104 15.9499 20.8799 15.3918 21.4542 14.9573C21.8792 14.6254 22.3718 14.3908 22.8972 14.2701C23.1808 14.2205 23.4669 14.1868 23.7543 14.1692C25.2246 14.1692 26.2329 14.5896 26.779 15.4302C27.3899 16.5341 27.6741 17.7893 27.5981 19.049V26.8792H29.5957V17.8889C29.6928 16.4083 29.2294 14.9454 28.2976 13.7909C27.4196 12.8495 26.0732 12.3788 24.2584 12.3788C23.7833 12.3801 23.3106 12.4459 22.8531 12.5742C22.3842 12.7023 21.9318 12.8842 21.5046 13.1164C21.0886 13.344 20.7032 13.6236 20.3578 13.9486C20.0262 14.2585 19.7417 14.6154 19.5134 15.0077H19.4504V4H17.4528V26.8792ZM45.4943 19.8307V20.8584C45.4977 21.4585 45.4106 22.0558 45.2359 22.6299C45.0765 23.1676 44.8015 23.6639 44.4304 24.0843C44.0592 24.5047 43.6008 24.8388 43.0872 25.0635C42.4903 25.3189 41.8457 25.4436 41.1967 25.4292C40.7936 25.4287 40.3919 25.3821 39.9994 25.2905C39.6182 25.2041 39.2554 25.0504 38.9282 24.8365C38.6104 24.6283 38.3468 24.3474 38.1594 24.0169C37.9581 23.6505 37.858 23.237 37.8695 22.8191C37.8552 22.5028 37.915 22.1876 38.0441 21.8987C38.1732 21.6097 38.368 21.3549 38.6131 21.1547C39.1383 20.7346 39.7459 20.4296 40.3964 20.2594C41.109 20.0642 41.8395 19.9417 42.5767 19.8937C43.3329 19.8433 43.963 19.8181 44.4672 19.8181L45.4943 19.8307ZM44.4987 18.1978C43.6584 18.1978 42.7259 18.2377 41.7008 18.3176C40.7192 18.3986 39.7528 18.6107 38.8274 18.9481C37.9714 19.2444 37.2026 19.7492 36.5903 20.417C35.9583 21.1739 35.6383 22.1434 35.6955 23.128C35.6809 23.7537 35.8216 24.3732 36.1051 24.9311C36.3715 25.4371 36.7432 25.8799 37.1953 26.2298C37.6594 26.5891 38.1876 26.8565 38.7517 27.0179C39.3412 27.1903 39.9524 27.2774 40.5665 27.2764C41.5755 27.3031 42.5761 27.0868 43.4842 26.6459C44.3486 26.1671 45.0656 25.4607 45.5573 24.6033H45.6203C45.6203 24.9857 45.635 25.3787 45.6644 25.7822C45.6939 26.1857 45.7422 26.5513 45.8094 26.8792H47.6998C47.641 26.4967 47.5864 26.0071 47.536 25.4102C47.4855 24.8134 47.4687 24.2523 47.4856 23.7269V17.4224C47.505 16.6549 47.3611 15.8919 47.0633 15.1843C46.8033 14.5919 46.4211 14.0612 45.9417 13.6271C45.4629 13.2064 44.9001 12.8926 44.2907 12.7066C43.6507 12.5044 42.9833 12.4024 42.3121 12.4039C39.6486 12.4039 37.6532 13.0891 36.3257 14.4593L37.5356 15.8841C38.7103 14.7959 40.2576 14.2002 41.8584 14.2197C44.2781 14.2197 45.488 15.4406 45.488 17.8826V18.2483L44.4987 18.1978ZM54.1147 12.7192C54.1567 13.2445 54.1924 13.7993 54.2218 14.3836C54.2512 14.9678 54.2659 15.4511 54.2659 15.8336V26.8792H56.2635V19.6163C56.2193 18.5709 56.4358 17.531 56.8936 16.5902C57.2235 15.9499 57.693 15.3918 58.2674 14.9573C58.6924 14.6254 59.1849 14.3908 59.7104 14.2701C59.9895 14.2146 60.2714 14.1747 60.5548 14.1503C62.0251 14.1503 63.0331 14.5706 63.5794 15.4112C64.1907 16.5152 64.4748 17.7704 64.3988 19.03V26.8792H66.3965V17.8889C66.4933 16.4083 66.0297 14.9454 65.0984 13.7909C64.2284 12.8495 62.8865 12.3788 61.0718 12.3788C60.5964 12.3801 60.1237 12.4459 59.6663 12.5742C59.1974 12.7023 58.7449 12.8842 58.3178 13.1164C57.8962 13.3368 57.5044 13.61 57.152 13.9296C56.8204 14.2396 56.5359 14.5964 56.3076 14.9888H56.2446C56.2446 14.6064 56.2446 14.2281 56.2446 13.854C56.2446 13.48 56.2194 13.1016 56.169 12.7192H54.1147ZM75.0921 17.5169C75.3549 16.876 75.7351 16.29 76.2138 15.7895C76.6889 15.2949 77.2535 14.8948 77.8776 14.6105C78.5279 14.3137 79.2354 14.1631 79.9508 14.1692C80.7191 14.1588 81.4808 14.3091 82.1877 14.6105C82.827 14.8842 83.4037 15.2854 83.8831 15.7895C84.3491 16.2877 84.7092 16.8754 84.9416 17.5169C85.188 18.1914 85.3115 18.9046 85.3072 19.6227C85.3376 20.3869 85.2086 21.1491 84.9288 21.8608C84.6684 22.5081 84.2706 23.091 83.7632 23.5693C82.7382 24.5305 81.3871 25.0668 79.9824 25.0698C79.267 25.0761 78.5596 24.9255 77.9093 24.6285C77.2851 24.3444 76.7206 23.9444 76.2455 23.4495C75.7667 22.9492 75.3859 22.3631 75.1237 21.7221C74.5798 20.3732 74.5798 18.8658 75.1237 17.5169H75.0921ZM72.8364 31.2924C73.6801 32.2163 74.7112 32.9492 75.861 33.4422C77.0625 33.9228 78.3479 34.1586 79.6418 34.1357C80.9698 34.1887 82.2923 33.9408 83.5108 33.4107C84.4129 32.9941 85.205 32.3723 85.8237 31.595C86.3687 30.8907 86.7514 30.0749 86.9454 29.2056C87.1304 28.401 87.2277 27.5787 87.235 26.7531V12.7192H85.2378V15.0771H85.1746C84.4847 14.1188 83.5485 13.3652 82.4651 12.8957C82.0082 12.6999 81.5307 12.5582 81.041 12.4733C80.5957 12.3957 80.1443 12.3556 79.6923 12.3535C78.7025 12.343 77.7207 12.5339 76.8063 12.9146C75.951 13.2725 75.1791 13.8026 74.5379 14.4719C73.8955 15.1478 73.3863 15.9393 73.0377 16.8045C72.6709 17.7181 72.4872 18.6948 72.4963 19.6794C72.4872 20.667 72.6824 21.6457 73.0693 22.5543C73.4344 23.414 73.9703 24.1905 74.6449 24.8365C75.3232 25.4816 76.1189 25.9909 76.9888 26.337C77.9068 26.7029 78.8868 26.8871 79.8748 26.8792C80.887 26.8756 81.8871 26.6608 82.8118 26.2488C83.7809 25.8086 84.6003 25.0941 85.1685 24.1934H85.2312V26.7153C85.2348 27.446 85.1375 28.1738 84.9416 28.8777C84.7658 29.5339 84.4476 30.1432 84.009 30.6619C83.5424 31.1906 82.9572 31.6011 82.3014 31.8598C81.4814 32.1734 80.6078 32.3233 79.73 32.3011C78.638 32.3186 77.5576 32.0743 76.5794 31.5887C75.6809 31.1461 74.8998 30.4982 74.2982 29.6973L72.8364 31.2924ZM95.3076 18.6833C95.3088 18.0936 95.4487 17.5125 95.717 16.9874C95.9901 16.4425 96.3594 15.9513 96.8071 15.5373C97.2713 15.1066 97.809 14.7628 98.3949 14.5223C98.9935 14.2704 99.6365 14.1418 100.286 14.144C100.907 14.1073 101.53 14.2005 102.113 14.4175C102.697 14.6346 103.229 14.9709 103.676 15.4049C104.081 15.8456 104.395 16.3622 104.599 16.9249C104.804 17.4876 104.894 18.0852 104.867 18.6833H95.3076ZM107.041 20.3162V19.4335C107.046 18.5023 106.893 17.577 106.587 16.6974C106.302 15.8708 105.854 15.1097 105.27 14.4593C104.678 13.8079 103.956 13.2862 103.153 12.9272C102.247 12.5333 101.267 12.3377 100.279 12.3535C99.3141 12.3457 98.3572 12.5367 97.469 12.9146C96.6161 13.2768 95.8447 13.8063 95.2005 14.4719C94.546 15.1508 94.0319 15.952 93.6876 16.8297C93.3189 17.7736 93.1352 18.7796 93.1462 19.7929C93.1364 20.8079 93.3269 21.8148 93.7071 22.756C94.0593 23.6324 94.577 24.4329 95.2315 25.1139C95.8873 25.7865 96.6745 26.3166 97.5444 26.6711C98.4703 27.0494 99.4619 27.2401 100.462 27.2322C101.593 27.2413 102.713 27.0047 103.745 26.5387C104.848 26.0062 105.807 25.2171 106.543 24.2376L104.999 22.9767C104.545 23.6718 103.939 24.2557 103.228 24.6852C102.398 25.1956 101.437 25.454 100.462 25.4292C99.7867 25.4361 99.117 25.303 98.4959 25.0383C97.2804 24.5184 96.3077 23.5562 95.7736 22.3462C95.4883 21.7145 95.3137 21.0385 95.2571 20.3477L107.041 20.3162Z" fill="#2C2A37"/>
</g>
<defs>
<clipPath id="clip0">
<rect width="108" height="69" fill="white"/>
</clipPath>
</defs>
</svg>
