<svg width="358" height="186" viewBox="0 0 358 186" fill="none" xmlns="http://www.w3.org/2000/svg">
<g opacity="0.9">
<path d="M272.548 41.3263C269.573 33.5265 264.402 27.3097 257.984 23.8247C256.841 23.205 255.679 22.6822 254.514 22.2619C253.298 21.8231 252.073 21.4995 250.848 21.2794C250.398 20.5375 249.686 19.9095 248.31 20.0804C246.672 20.2838 244.659 20.73 242.506 21.4933C241.169 21.8139 239.854 22.2731 238.575 22.8752C234.648 24.7227 231.359 27.7635 228.921 31.7054C226.816 34.8412 225.26 38.742 224.697 43.5666C224.694 43.5922 224.693 43.6174 224.69 43.643C223.761 49.9219 224.502 56.5788 226.883 62.8216C229.858 70.6214 235.033 76.8356 241.449 80.3194C242.592 80.9403 243.751 81.4615 244.917 81.8822C248.517 83.1806 252.189 83.5192 255.728 82.8986L255.748 82.8995L255.799 82.8868C256.661 82.7324 257.514 82.5192 258.356 82.2502L261.361 81.0167C267.206 78.0721 271.592 72.4527 273.738 65.1209C275.949 57.5752 275.524 49.1223 272.548 41.3263V41.3263ZM272.725 64.5678C270.721 71.4241 266.673 76.7134 261.28 79.5891L258.204 25.6887C258.204 25.6887 252.717 23.5046 251.946 23.2561C251.777 23.2015 251.648 22.9958 251.52 22.7189C252.455 22.9211 253.389 23.1873 254.317 23.5221C255.433 23.9248 256.541 24.4229 257.636 25.0166C263.78 28.355 268.734 34.3058 271.586 41.7775C274.437 49.2492 274.841 57.3429 272.725 64.5678Z" fill="url(#paint0_linear_428_9607)"/>
<path d="M277.953 64.0224C280.164 56.4767 279.739 48.0239 276.763 40.2278C273.788 32.428 268.617 26.2112 262.198 22.7263C261.056 22.1065 259.894 21.5837 258.729 21.1635C253.35 19.2229 247.803 19.4176 242.79 21.7767C236.69 24.6464 232.117 30.3818 229.908 37.9286C227.7 45.4754 228.123 53.9233 231.098 61.7232C234.073 69.5229 239.248 75.7371 245.664 79.2209C246.807 79.8418 247.966 80.363 249.132 80.7838C254.512 82.7247 260.059 82.5326 265.072 80.1742C271.171 77.3045 275.745 71.5654 277.953 64.0224ZM257.246 30.4687C258.039 30.755 258.832 31.1109 259.619 31.5379C268.748 36.4965 273.604 49.2173 270.462 59.9519C267.59 69.7621 259.037 74.5174 250.617 71.4789C249.824 71.1925 249.03 70.8364 248.243 70.4094C239.113 65.4537 234.258 52.73 237.4 41.9954C240.271 32.1879 248.825 27.4312 257.246 30.4687H257.246Z" fill="url(#paint1_linear_428_9607)" stroke="url(#paint2_linear_428_9607)" stroke-width="0.78198" stroke-miterlimit="10"/>
<path d="M249.772 76.6625C260.323 80.4693 271.042 74.512 274.64 62.2233C278.576 48.7744 272.492 32.8368 261.058 26.6257C260.073 26.0906 259.078 25.6445 258.084 25.2858C247.534 21.4802 236.819 27.4371 233.221 39.7278C229.285 53.1767 235.369 69.1142 246.803 75.3254C247.787 75.8593 248.779 76.3043 249.772 76.6625" fill="url(#paint3_linear_428_9607)"/>
<path d="M249.772 76.6625C260.323 80.4693 271.042 74.512 274.64 62.2233C278.576 48.7744 272.492 32.8368 261.058 26.6257C260.073 26.0906 259.078 25.6445 258.084 25.2858C247.534 21.4802 236.819 27.4371 233.221 39.7278C229.285 53.1767 235.369 69.1142 246.803 75.3254C247.787 75.8593 248.779 76.3043 249.772 76.6625" stroke="url(#paint4_linear_428_9607)" stroke-width="0.78198" stroke-miterlimit="10"/>
<path d="M267.789 57.5729L266.125 58.366L268.199 52.9465L269.863 52.1534L267.789 57.5729ZM265.805 54.7172L264.141 55.5103L264.188 55.5297L265.852 54.7366L265.805 54.7172ZM265.852 54.7366L264.188 55.5297L264.494 61.3427L266.159 60.5496L265.852 54.7366ZM266.159 60.5496L264.494 61.3427L266.883 62.3357L268.547 61.5426L266.159 60.5496ZM265.579 50.3725L263.915 51.1656L261.549 56.4637L263.213 55.6706L265.579 50.3725ZM261.153 58.4689L259.488 59.262L261.877 60.255L263.542 59.4619L261.153 58.4689ZM260.64 48.3197L258.976 49.1128L259.488 59.262L261.153 58.4689L260.64 48.3197ZM256.169 51.4343C256.465 49.8347 255.947 48.5233 254.89 48.0839C254.484 47.9149 254.102 47.9181 253.768 48.0769L252.104 48.87C252.437 48.7112 252.819 48.7081 253.226 48.877C254.283 49.3164 254.801 50.6278 254.505 52.2275C254.323 53.2049 253.917 53.8559 253.385 54.1098L255.049 53.3167C255.582 53.0628 255.988 52.4117 256.169 51.4343V51.4343ZM253.521 55.4712C250.851 54.3616 249.516 51.8438 250.062 48.896C250.353 47.3276 251.06 46.2737 252.06 45.7974L250.395 46.5905C249.396 47.0668 248.689 48.1207 248.398 49.6891C247.851 52.6369 249.187 55.1548 251.856 56.2643C253.105 56.7835 254.211 56.8125 255.09 56.3936L256.755 55.6005C255.876 56.0194 254.77 55.9904 253.521 55.4712V55.4712ZM247.136 42.7064L245.472 43.4995L244.585 48.2823L246.249 47.4892L247.136 42.7064ZM243.374 45.8453L241.71 46.6385L241.759 46.6591L243.424 45.866L243.374 45.8453ZM245.873 52.1175L244.208 52.9106L246.15 53.7179L247.815 52.9248L245.873 52.1175ZM243.424 45.866L241.759 46.6591L244.208 52.9106L245.873 52.1175L243.424 45.866ZM240.084 49.7114L238.42 50.5046L240.809 51.4976L242.473 50.7045L240.084 49.7114ZM241.794 40.4861L240.13 41.2792L238.42 50.5046L240.084 49.7114L241.794 40.4861Z" fill="#008266"/>
<path d="M269.864 52.1533L272.481 53.241L268.548 61.5426L266.159 60.5496L265.853 54.7366L265.806 54.7172L263.542 59.4619L261.154 58.4689L260.641 48.3197L263.258 49.4074L263.167 55.6512L263.214 55.6706L265.58 50.3725L267.539 51.1871L267.743 57.5535L267.79 57.5729L269.864 52.1534V52.1533ZM250.063 48.896C249.516 51.8438 250.852 54.3616 253.521 55.4712C256.188 56.5795 258.202 55.4541 258.748 52.5062C259.295 49.5584 257.958 47.033 255.291 45.9246C252.628 44.8175 250.609 45.948 250.063 48.8959L250.063 48.896ZM253.922 53.3087C252.859 52.8669 252.35 51.5591 252.645 49.9691C252.941 48.3695 253.834 47.6444 254.891 48.0839C255.948 48.5233 256.466 49.8347 256.17 51.4343C255.875 53.0244 254.985 53.7506 253.922 53.3087ZM246.203 47.4698L243.761 41.3031L241.795 40.4861L240.085 49.7114L242.474 50.7045L243.375 45.8453L243.424 45.866L245.873 52.1175L247.816 52.9248L249.526 43.6994L247.137 42.7064L246.25 47.4892L246.203 47.4698Z" fill="url(#paint5_linear_428_9607)"/>
</g>
<g opacity="0.95">
<path d="M219.654 109.33C208.253 104.599 196.321 103.836 186.056 107.188C184.229 107.785 182.487 108.502 180.852 109.326C179.145 110.186 177.552 111.173 176.071 112.265C174.816 111.995 173.418 112.122 172.204 113.773C170.758 115.739 169.192 118.354 167.824 121.442C166.809 123.204 165.966 125.083 165.313 127.069C163.307 133.164 163.23 139.787 164.986 146.411C166.215 151.858 168.824 157.494 173.434 163C173.459 163.03 173.484 163.057 173.509 163.086C179.308 170.465 187.211 176.433 196.336 180.22C207.737 184.951 219.67 185.707 229.931 182.357C231.76 181.76 233.497 181.045 235.134 180.22C240.186 177.674 244.282 174.073 247.211 169.642L247.233 169.621L247.271 169.553C247.981 168.471 248.619 167.338 249.186 166.159L250.915 161.679C253.692 152.409 252.114 141.987 246.419 132.232C240.562 122.189 231.051 114.056 219.654 109.33L219.654 109.33ZM244.796 132.758C250.124 141.878 251.69 151.601 249.299 160.316L188.282 108.846C188.282 108.846 180.36 112.519 179.309 113.095C179.079 113.221 178.728 113.15 178.3 113.006C179.467 112.208 180.702 111.475 182.005 110.818C183.572 110.029 185.233 109.345 186.982 108.773C196.812 105.566 208.238 106.292 219.16 110.822C230.083 115.353 239.186 123.144 244.796 132.758L244.796 132.758Z" fill="url(#paint6_linear_428_9607)"/>
<path d="M249.522 126.59C243.665 116.547 234.154 108.414 222.756 103.687C211.356 98.9565 199.424 98.1932 189.158 101.545C187.332 102.143 185.59 102.859 183.955 103.683C176.404 107.489 170.976 113.644 168.415 121.426C165.299 130.893 166.811 141.634 172.673 151.675C178.535 161.715 188.038 169.846 199.439 174.577C210.839 179.308 222.772 180.064 233.033 176.714C234.862 176.117 236.6 175.402 238.237 174.577C245.789 170.771 251.219 164.618 253.78 156.838C256.896 147.371 255.38 136.626 249.522 126.59V126.59ZM192.441 114.733C193.555 114.171 194.743 113.681 196.001 113.271C210.604 108.504 229.201 116.216 237.537 130.499C245.156 143.552 241.572 157.571 229.752 163.527C228.638 164.088 227.449 164.579 226.191 164.989C211.59 169.759 192.991 162.044 184.654 147.761C177.038 134.711 180.622 120.69 192.441 114.733L192.441 114.733Z" fill="url(#paint7_linear_428_9607)"/>
<path d="M202.484 100.644C209.067 100.644 215.739 102.027 222.314 104.755C233.486 109.389 242.794 117.35 248.523 127.173C254.215 136.923 255.692 147.33 252.682 156.477C250.223 163.948 245.048 169.85 237.716 173.544C236.13 174.344 234.433 175.041 232.674 175.615C228.606 176.943 224.241 177.617 219.701 177.617C213.118 177.617 206.45 176.235 199.882 173.509C188.714 168.875 179.406 160.913 173.672 151.092C167.98 141.342 166.503 130.935 169.514 121.788C171.973 114.312 177.147 108.409 184.475 104.716C186.058 103.918 187.755 103.221 189.517 102.644C193.583 101.317 197.945 100.644 202.484 100.644M217.039 167.557C220.368 167.557 223.568 167.063 226.55 166.088C227.845 165.666 229.097 165.151 230.272 164.559C235.948 161.699 240.03 156.899 241.764 151.042C243.739 144.37 242.593 136.867 238.536 129.916C231.829 118.425 218.413 110.704 205.152 110.705C201.824 110.705 198.624 111.198 195.642 112.171C194.347 112.594 193.095 113.108 191.921 113.7C186.245 116.561 182.164 121.362 180.43 127.22C178.455 133.892 179.6 141.394 183.656 148.344C190.363 159.836 203.779 167.557 217.039 167.557M202.484 99.4874C197.862 99.4874 193.371 100.17 189.158 101.545C187.332 102.143 185.59 102.859 183.955 103.683C176.403 107.489 170.976 113.644 168.415 121.426C165.299 130.893 166.811 141.634 172.673 151.675C178.535 161.715 188.038 169.846 199.439 174.577C206.158 177.365 213.063 178.773 219.701 178.773C224.326 178.773 228.82 178.09 233.033 176.714C234.862 176.117 236.6 175.402 238.237 174.577C245.789 170.771 251.219 164.618 253.78 156.838C256.896 147.371 255.38 136.626 249.522 126.59C243.665 116.547 234.154 108.414 222.756 103.687C216.034 100.898 209.125 99.4874 202.484 99.4874V99.4874ZM217.039 167.557C204.542 167.557 191.319 160.336 184.654 148.917C177.038 135.867 180.622 121.846 192.441 115.889C193.555 115.328 194.743 114.837 196.001 114.427C198.929 113.471 202.018 113.017 205.152 113.017C217.649 113.017 230.872 120.236 237.537 131.655C245.156 144.709 241.572 158.727 229.752 164.683C228.638 165.244 227.449 165.735 226.191 166.146C223.264 167.102 220.173 167.557 217.039 167.557L217.039 167.557Z" fill="url(#paint8_linear_428_9607)"/>
<path d="M233.832 168.879C248.244 161.616 252.617 144.522 243.331 128.611C233.168 111.198 210.495 101.796 192.697 107.605C191.164 108.106 189.714 108.704 188.356 109.388C173.947 116.651 169.577 133.74 178.865 149.654C189.028 167.067 211.7 176.468 229.499 170.659C231.03 170.159 232.476 169.562 233.832 168.879Z" fill="url(#paint9_linear_428_9607)"/>
<path d="M233.832 168.879C248.244 161.616 252.617 144.522 243.331 128.611C233.168 111.198 210.495 101.796 192.697 107.605C191.164 108.106 189.714 108.704 188.356 109.388C173.947 116.651 169.577 133.74 178.865 149.654C189.028 167.067 211.7 176.468 229.499 170.659C231.03 170.159 232.476 169.562 233.832 168.879" stroke="url(#paint10_linear_428_9607)" stroke-width="1.15622" stroke-miterlimit="10"/>
<path d="M231.431 133.541L227.714 125.808L228.553 123.214L232.27 130.948L231.431 133.541ZM233.809 135.73L227.251 130.148L227.183 130.178L226.344 132.772L226.412 132.741L232.97 138.323L236.464 136.767L237.303 134.173L233.809 135.73ZM225.577 133.93L222.287 126.006L221.447 128.6L224.737 136.523L225.577 133.93ZM215.063 129.225L214.224 131.818L225.648 141.585L229.142 140.029L229.982 137.435L226.487 138.992L215.063 129.225ZM208.134 137.756C209.68 137.068 211.608 137.842 213.025 139.786C213.893 140.976 214.18 142.073 213.912 142.902L214.751 140.308C215.02 139.479 214.732 138.383 213.864 137.192C212.448 135.248 210.52 134.474 208.973 135.163C208.376 135.429 207.989 135.844 207.821 136.365L206.981 138.958C207.15 138.438 207.536 138.023 208.134 137.756V137.756ZM215.513 144.137C211.605 145.878 207.548 144.752 204.937 141.17C203.547 139.263 203.133 137.433 203.637 135.876L202.798 138.469C202.294 140.026 202.708 141.857 204.097 143.763C206.708 147.346 210.765 148.472 214.674 146.731C216.499 145.917 217.654 144.759 218.098 143.388L218.937 140.795C218.494 142.165 217.339 143.324 215.513 144.137ZM199.547 143.837L195.311 138.025L194.472 140.618L198.708 146.431L199.547 143.837ZM194.935 145.227L194.867 145.257L194.027 147.851L194.095 147.82L203.303 151.541L206.139 150.277L206.979 147.683L204.142 148.947L194.935 145.227ZM187.503 141.504L186.663 144.097L194.836 155.313L198.331 153.756L199.17 151.162L195.676 152.719L187.503 141.504V141.504Z" fill="#747D7B"/>
<path d="M228.553 123.214L232.38 121.509L237.303 134.173L233.808 135.73L227.251 130.148L227.182 130.178L229.981 137.435L226.487 138.992L215.063 129.225L218.89 127.519L225.504 133.962L225.576 133.93L222.286 126.006L225.152 124.729L232.197 130.98L232.27 130.948L228.553 123.214H228.553ZM204.936 141.17C207.547 144.752 211.604 145.878 215.513 144.137C219.408 142.401 220.251 139.093 217.64 135.51C215.029 131.927 210.953 130.799 207.058 132.535C203.158 134.273 202.325 137.587 204.936 141.17ZM213.598 141.509C212.043 142.202 210.119 141.426 208.708 139.489C207.291 137.545 207.422 135.854 208.973 135.163C210.519 134.474 212.447 135.248 213.864 137.192C215.275 139.129 215.152 140.816 213.598 141.509ZM199.478 143.868L190.377 140.223L187.502 141.504L195.675 152.719L199.169 151.162L194.866 145.257L194.934 145.227L204.142 148.947L206.978 147.683L198.805 136.468L195.311 138.025L199.546 143.837L199.478 143.868Z" fill="url(#paint11_linear_428_9607)"/>
</g>
<g opacity="0.5">
<path d="M334.962 48.3792C332.375 47.3057 329.668 47.1325 327.338 47.8932C326.924 48.0287 326.529 48.1912 326.158 48.3783C325.77 48.5735 325.409 48.7974 325.073 49.0453C324.788 48.9839 324.471 49.0127 324.195 49.3874C323.867 49.8334 323.512 50.4268 323.201 51.1275C322.971 51.5274 322.78 51.9537 322.632 52.4044C322.176 53.7874 322.159 55.2902 322.557 56.7933C322.836 58.0292 323.428 59.308 324.474 60.5575L324.491 60.577C325.807 62.2512 327.601 63.6055 329.671 64.4647C332.258 65.5382 334.966 65.7099 337.294 64.9498C337.709 64.8142 338.103 64.652 338.475 64.4647C339.621 63.887 340.551 63.0699 341.215 62.0645L341.22 62.0597L341.229 62.0443C341.39 61.7987 341.535 61.5417 341.663 61.2743L342.055 60.2577C342.686 58.1542 342.328 55.7895 341.035 53.576C339.706 51.2971 337.548 49.4517 334.962 48.3792ZM340.667 53.6953C341.876 55.7646 342.231 57.9709 341.689 59.9484L327.843 48.2693C327.843 48.2693 326.046 49.1028 325.808 49.2335C325.755 49.2622 325.676 49.246 325.579 49.2133C325.843 49.0321 326.124 48.866 326.419 48.717C326.775 48.5378 327.152 48.3826 327.549 48.2528C329.779 47.525 332.372 47.6899 334.85 48.7178C337.328 49.7458 339.394 51.5138 340.667 53.6953V53.6953Z" fill="url(#paint12_linear_428_9607)"/>
<path d="M341.74 52.2955C340.411 50.0167 338.253 48.1713 335.667 47.0988C333.08 46.0253 330.372 45.8521 328.043 46.6128C327.628 46.7483 327.233 46.9108 326.862 47.0979C325.149 47.9614 323.917 49.3581 323.336 51.124C322.629 53.2721 322.972 55.7093 324.302 57.9876C325.632 60.2659 327.789 62.1109 330.376 63.1844C332.962 64.2578 335.67 64.4295 337.998 63.6694C338.413 63.5339 338.808 63.3716 339.179 63.1843C340.893 62.3207 342.125 60.9246 342.706 59.1592C343.413 57.011 343.069 54.5728 341.74 52.2955H341.74ZM328.788 49.6051C329.04 49.4777 329.31 49.3665 329.595 49.2733C332.909 48.1917 337.129 49.9416 339.021 53.1826C340.749 56.1445 339.936 59.3255 337.254 60.6769C337.001 60.8043 336.731 60.9157 336.446 61.0088C333.133 62.0912 328.913 60.3405 327.021 57.0995C325.293 54.1383 326.106 50.9568 328.788 49.6051Z" fill="url(#paint13_linear_428_9607)"/>
<path d="M331.066 46.4082C332.56 46.4082 334.074 46.7222 335.566 47.3412C338.101 48.3924 340.213 50.199 341.513 52.4277C342.805 54.6404 343.14 57.0018 342.457 59.0771C341.899 60.7724 340.725 62.1116 339.061 62.9501C338.701 63.1313 338.316 63.2895 337.917 63.42C336.994 63.7213 336.004 63.8741 334.973 63.8741C333.48 63.8741 331.967 63.5605 330.476 62.942C327.942 61.8904 325.83 60.084 324.529 57.8553C323.237 55.6429 322.902 53.2815 323.585 51.206C324.143 49.5097 325.317 48.1701 326.98 47.3321C327.34 47.151 327.725 46.9928 328.124 46.8622C329.047 46.5609 330.037 46.4082 331.066 46.4082M334.369 61.5913C335.125 61.5913 335.851 61.4792 336.527 61.2582C336.821 61.1622 337.105 61.0455 337.372 60.9112C338.66 60.2622 339.586 59.1728 339.979 57.8439C340.428 56.3299 340.168 54.6276 339.247 53.0505C337.725 50.443 334.681 48.691 331.672 48.691C330.917 48.691 330.191 48.8031 329.514 49.0239C329.22 49.1198 328.936 49.2364 328.67 49.3708C327.382 50.02 326.456 51.1095 326.062 52.4386C325.614 53.9526 325.874 55.6549 326.794 57.2317C328.316 59.8394 331.36 61.5913 334.369 61.5913M331.066 46.1459C330.018 46.1459 328.999 46.3007 328.043 46.6128C327.628 46.7483 327.233 46.9109 326.862 47.0979C325.149 47.9614 323.917 49.3582 323.336 51.124C322.629 53.2721 322.972 55.7094 324.302 57.9877C325.632 60.266 327.789 62.1108 330.376 63.1843C331.9 63.817 333.467 64.1365 334.973 64.1365C336.023 64.1365 337.043 63.9815 337.998 63.6694C338.413 63.5338 338.808 63.3716 339.179 63.1843C340.893 62.3207 342.125 60.9247 342.706 59.1592C343.413 57.0111 343.069 54.5729 341.74 52.2955C340.411 50.0167 338.253 48.1713 335.667 47.0989C334.141 46.4659 332.573 46.1459 331.066 46.1459ZM334.369 61.5913C331.534 61.5913 328.533 59.953 327.021 57.3618C325.293 54.4006 326.106 51.2192 328.788 49.8674C329.04 49.7401 329.31 49.6288 329.595 49.5356C330.26 49.3188 330.961 49.2158 331.672 49.2158C334.508 49.2157 337.508 50.8538 339.021 53.4451C340.749 56.4069 339.936 59.5878 337.254 60.9393C337.001 61.0667 336.731 61.178 336.446 61.2711C335.782 61.4882 335.08 61.5913 334.369 61.5913V61.5913Z" fill="url(#paint14_linear_428_9607)"/>
<path d="M338.179 61.8913C341.449 60.2433 342.441 56.3646 340.334 52.7542C338.028 48.803 332.884 46.6697 328.845 47.9878C328.497 48.1013 328.168 48.2371 327.86 48.3924C324.59 50.0403 323.599 53.9181 325.706 57.529C328.012 61.4801 333.157 63.6134 337.196 62.2954C337.543 62.1819 337.871 62.0464 338.179 61.8913Z" fill="url(#paint15_linear_428_9607)"/>
<path d="M338.179 61.8913C341.449 60.2433 342.441 56.3646 340.334 52.7542C338.028 48.803 332.884 46.6697 328.845 47.9878C328.497 48.1013 328.168 48.2371 327.86 48.3924C324.59 50.0403 323.599 53.9181 325.706 57.529C328.012 61.4801 333.157 63.6134 337.196 62.2954C337.543 62.1819 337.871 62.0464 338.179 61.8913" stroke="url(#paint16_linear_428_9607)" stroke-width="0.26236" stroke-miterlimit="10"/>
<path d="M337.635 53.8729L336.791 52.1182L336.982 51.5297L337.825 53.2844L337.635 53.8729ZM338.174 54.3696L336.686 53.103L336.671 53.1099L336.48 53.6984L336.496 53.6915L337.984 54.9581L338.777 54.6048L338.967 54.0163L338.174 54.3696V54.3696ZM336.306 53.9611L335.56 52.1632L335.369 52.7517L336.116 54.5496L336.306 53.9611ZM333.921 52.8935L333.73 53.482L336.323 55.6982L337.115 55.345L337.306 54.7565L336.513 55.1097L333.921 52.8935ZM332.349 54.8294C332.699 54.6731 333.137 54.8488 333.458 55.2899C333.655 55.56 333.72 55.8088 333.66 55.997L333.85 55.4085C333.911 55.2203 333.846 54.9715 333.649 54.7014C333.327 54.2603 332.89 54.0846 332.539 54.241C332.403 54.3014 332.316 54.3955 332.277 54.5137L332.087 55.1022C332.125 54.984 332.213 54.8899 332.349 54.8294ZM334.023 56.2772C333.136 56.6724 332.215 56.4169 331.623 55.604C331.308 55.1714 331.214 54.756 331.328 54.4026L331.138 54.9911C331.023 55.3445 331.117 55.7599 331.433 56.1925C332.025 57.0054 332.946 57.2609 333.832 56.8657C334.247 56.6812 334.509 56.4183 334.609 56.1073L334.8 55.5188C334.699 55.8298 334.437 56.0927 334.023 56.2772ZM330.4 56.2092L329.439 54.8903L329.248 55.4788L330.21 56.7977L330.4 56.2092ZM329.353 56.5245L329.338 56.5314L329.148 57.1199L329.163 57.113L331.252 57.9572L331.896 57.6704L332.086 57.0819L331.443 57.3687L329.353 56.5245V56.5245ZM327.667 55.6797L327.477 56.2682L329.331 58.8131L330.124 58.4599L330.315 57.8713L329.522 58.2246L327.667 55.6797V55.6797Z" fill="#747D7B"/>
<path d="M336.982 51.5297L337.85 51.1428L338.967 54.0163L338.174 54.3695L336.686 53.1029L336.671 53.1098L337.306 54.7565L336.513 55.1097L333.921 52.8934L334.789 52.5065L336.29 53.9684L336.306 53.9611L335.56 52.1632L336.21 51.8734L337.809 53.2917L337.825 53.2844L336.982 51.5297V51.5297ZM331.623 55.6039C332.215 56.4169 333.136 56.6723 334.023 56.2772C334.907 55.8834 335.098 55.1326 334.506 54.3196C333.913 53.5067 332.988 53.2508 332.104 53.6446C331.219 54.0389 331.031 54.791 331.623 55.6039ZM333.588 55.6809C333.235 55.8381 332.799 55.662 332.479 55.2226C332.157 54.7815 332.187 54.3977 332.539 54.2409C332.89 54.0846 333.327 54.2603 333.649 54.7014C333.969 55.1407 333.941 55.5237 333.588 55.6809ZM330.385 56.2161L328.319 55.389L327.667 55.6797L329.522 58.2246L330.314 57.8713L329.338 56.5313L329.353 56.5244L331.443 57.3687L332.086 57.0819L330.232 54.537L329.439 54.8903L330.4 56.2092L330.385 56.2161V56.2161Z" fill="url(#paint17_linear_428_9607)"/>
</g>
<path d="M150.25 29.6187C133.553 16.3126 114.078 9.34945 95.4109 10.0243C92.0889 10.1457 88.8508 10.5054 85.7388 11.0953C82.4896 11.7113 79.3712 12.5919 76.3867 13.701C74.4298 12.6531 72.0451 12.1966 69.2376 14.3624C65.8954 16.9409 62.044 20.5416 58.2954 25.0232C55.7674 27.4689 53.4698 30.1902 51.4353 33.1806C45.1914 42.3572 41.9032 53.3321 41.6623 65.184C41.107 74.8269 42.7547 85.4412 47.7918 96.7972C47.8185 96.8576 47.8479 96.9151 47.8747 96.9753C53.9964 112.011 64.2884 125.706 77.6526 136.356C94.35 149.662 113.83 156.614 132.489 155.941C135.814 155.821 139.044 155.461 142.16 154.87C151.775 153.048 160.303 149.015 167.288 143.046L167.334 143.021L167.43 142.927C169.127 141.466 170.728 139.887 172.233 138.199L177.245 131.574C186.286 117.487 188.635 99.4063 183.823 80.4696C178.877 60.9766 166.944 42.9157 150.25 29.6187H150.25ZM180.873 80.5693C185.379 98.2743 183.344 115.189 175.209 128.536L98.3209 13.8424C98.3209 13.8424 83.3976 16.1698 81.3756 16.6259C80.9319 16.7261 80.3821 16.4397 79.7399 15.9965C82.0614 15.2258 84.4636 14.5975 86.9434 14.1273C89.9251 13.5621 93.0134 13.2175 96.1955 13.1014C114.07 12.4597 132.72 19.1198 148.718 31.8644C164.716 44.609 176.133 61.9073 180.873 80.5693V80.5693Z" fill="url(#paint18_linear_428_9607)"/>
<path d="M191.674 72.5684C186.728 53.0755 174.796 35.0145 158.102 21.7175C141.405 8.41145 121.93 1.44832 103.263 2.12307C99.9405 2.24453 96.7025 2.60421 93.5904 3.19424C79.2196 5.91861 67.2583 13.5627 59.2869 25.2794C49.5886 39.5328 46.9774 58.1123 51.932 77.6036C56.8866 97.0949 68.8068 115.148 85.5042 128.454C102.202 141.76 121.681 148.713 140.34 148.04C143.666 147.92 146.896 147.56 150.012 146.969C164.384 144.245 176.349 136.606 184.319 124.892C194.018 110.639 196.625 92.0505 191.674 72.5684V72.5684ZM102.428 25.6155C104.547 25.2136 106.757 24.9655 109.044 24.8831C135.599 23.9267 162.838 45.6232 169.883 73.3494C176.321 98.6878 163.672 120.285 141.177 124.547C139.058 124.949 136.846 125.197 134.559 125.28C108.007 126.243 80.7648 104.54 73.7202 76.8135C67.2848 51.4817 79.9336 29.8799 102.428 25.6155H102.428Z" fill="url(#paint19_linear_428_9607)" stroke="url(#paint20_linear_428_9607)" stroke-width="2" stroke-miterlimit="10"/>
<path d="M146.06 137.061C174.247 131.719 190.102 104.657 182.039 72.9161C173.213 38.1795 139.084 10.9969 105.823 12.1936C102.958 12.2968 100.188 12.6078 97.5324 13.1113C69.3507 18.454 53.5025 45.5108 61.5684 77.2559C70.3943 111.993 104.523 139.175 137.783 137.978C140.644 137.875 143.408 137.564 146.06 137.061Z" fill="url(#paint21_linear_428_9607)"/>
<path d="M146.06 137.061C174.247 131.719 190.102 104.657 182.039 72.9161C173.213 38.1795 139.084 10.9969 105.823 12.1936C102.958 12.2968 100.188 12.6078 97.5324 13.1113C69.3507 18.454 53.5025 45.5108 61.5684 77.2559C70.3943 111.993 104.523 139.175 137.783 137.978C140.644 137.875 143.408 137.564 146.06 137.061" stroke="url(#paint22_linear_428_9607)" stroke-width="2" stroke-miterlimit="10"/>
<path d="M160.906 71.5857L158.272 75.4972L155.79 60.8646L158.423 56.9531L160.906 71.5857ZM152.822 67.8777L150.189 71.7892L150.317 71.7712L152.95 67.8597L152.822 67.8777ZM152.95 67.8597L150.317 71.7712L158.553 84.1735L161.187 80.262L152.95 67.8597ZM161.187 80.262L158.553 84.1735L165.106 83.2526L167.739 79.3411L161.187 80.262ZM146.672 58.6047L144.039 62.5162L145.72 77.2613L148.353 73.3498L146.672 58.6047ZM147.457 82.1916L144.823 86.1031L151.376 85.1822L154.009 81.2707L147.457 82.1916ZM133.126 60.5084L130.493 64.4199L144.823 86.1031L147.457 82.1916L133.126 60.5084ZM127.331 73.1839C125.903 69.2756 123.056 67.0617 120.157 67.4692C119.042 67.6259 118.204 68.1299 117.677 68.9132L115.044 72.8247C115.571 72.0415 116.408 71.5374 117.523 71.3808C120.423 70.9732 123.27 73.1871 124.698 77.0954C125.57 79.4834 125.523 81.4451 124.68 82.6974L127.313 78.7859C128.156 77.5336 128.203 75.5719 127.331 73.1838V73.1839ZM126.75 85.5184C119.429 86.5474 113.212 82.7403 110.581 75.5379C109.181 71.706 109.368 68.4651 110.949 66.1162L108.316 70.0277C106.735 72.3766 106.548 75.6176 107.948 79.4494C110.579 86.6518 116.796 90.4589 124.117 89.4299C127.543 88.9484 130.016 87.5737 131.407 85.5079L134.04 81.5964C132.65 83.6622 130.176 85.0369 126.75 85.5184ZM96.0861 65.714L93.4528 69.6256L97.7219 81.3112L100.355 77.3997L96.0861 65.714ZM91.8848 77.5201L89.2516 81.4316L89.3877 81.4125L92.021 77.501L91.8848 77.5201ZM105.546 88.0818L102.913 91.9933L108.24 91.2446L110.873 87.3331L105.546 88.0818ZM92.021 77.501L89.3877 81.4125L102.913 91.9933L105.546 88.0818L92.021 77.501ZM89.6695 90.3131L87.0362 94.2246L93.5887 93.3037L96.222 89.3922L89.6695 90.3131ZM81.435 67.7731L78.8018 71.6846L87.0362 94.2246L89.6695 90.3131L81.435 67.7731Z" fill="#008266"/>
<path d="M158.423 56.9531L165.6 55.9444L167.739 79.3411L161.186 80.262L152.95 67.8597L152.821 67.8777L154.009 81.2707L147.456 82.1916L133.126 60.5084L140.303 59.4996L148.225 73.3678L148.353 73.3498L146.671 58.6046L152.046 57.8492L160.777 71.6036L160.905 71.5856L158.423 56.9531L158.423 56.9531ZM110.581 75.5379C113.212 82.7403 119.428 86.5474 126.75 85.5184C134.063 84.4905 137.035 79.3922 134.404 72.1898C131.772 64.9872 125.542 61.1658 118.229 62.1936C110.923 63.2204 107.949 68.3353 110.581 75.5379V75.5379ZM124.82 80.235C121.904 80.6448 119.081 78.4275 117.662 74.5427C116.234 70.6344 117.256 67.8768 120.156 67.4692C123.056 67.0617 125.903 69.2756 127.33 73.1838C128.75 77.0687 127.736 79.8252 124.82 80.235M100.227 77.4177L86.8256 67.0154L81.4346 67.7731L89.669 90.3131L96.2216 89.3922L91.8844 77.5201L92.0205 77.5009L105.546 88.0817L110.873 87.3331L102.638 64.7931L96.0856 65.714L100.355 77.3997L100.227 77.4177H100.227Z" fill="url(#paint23_linear_428_9607)"/>
<g opacity="0.8">
<path d="M286.854 110.772C287.511 115.386 289.671 119.161 292.943 121.448L294.65 122.455C295.135 122.691 295.632 122.894 296.139 123.062L296.169 123.074L296.181 123.075C298.263 123.758 300.511 123.874 302.797 123.403C303.538 123.251 304.283 123.037 305.028 122.762C309.205 121.217 312.871 117.915 315.347 113.465C317.329 109.902 318.356 105.947 318.342 102.075L318.344 102.028C318.425 99.0659 317.825 96.5749 316.827 94.4981C315.698 91.9055 313.977 89.7829 311.767 88.3253C311.047 87.8503 310.293 87.4585 309.513 87.1484C308.279 86.5 307.103 86.0552 306.132 85.7897C305.316 85.5667 304.831 85.8839 304.495 86.2927C303.736 86.3188 302.968 86.4076 302.195 86.5666C301.455 86.7189 300.708 86.9334 299.964 87.2081C295.785 88.7534 292.121 92.0569 289.645 96.5075C287.169 100.956 286.176 106.023 286.854 110.772V110.772ZM290.187 96.8638C292.56 92.6005 296.069 89.4387 300.071 87.9581C300.783 87.6949 301.496 87.4907 302.205 87.3448C302.794 87.2234 303.381 87.144 303.963 87.1033C303.862 87.2594 303.767 87.3724 303.66 87.3906C303.172 87.4735 299.669 88.3145 299.669 88.3145L293.117 120.593C290.111 118.387 288.127 114.841 287.514 110.526C286.866 105.979 287.815 101.127 290.187 96.8638Z" fill="url(#paint24_linear_428_9607)"/>
<path d="M290.776 120.616C293.598 122.477 296.93 123.076 300.348 122.373C301.089 122.22 301.834 122.007 302.579 121.731C306.756 120.186 310.422 116.885 312.898 112.434C315.374 107.984 316.365 102.919 315.689 98.1699C315.013 93.4205 312.75 89.559 309.318 87.2949C306.496 85.4337 303.163 84.833 299.746 85.5362C299.006 85.6885 298.259 85.903 297.515 86.1777C293.336 87.723 289.672 91.0265 287.196 95.4772C284.72 99.9255 283.727 104.993 284.405 109.741C285.081 114.488 287.343 118.352 290.776 120.616V120.616ZM310.811 99.973C311.773 106.729 307.733 113.989 301.788 116.186C301.276 116.375 300.766 116.521 300.262 116.625C294.913 117.726 290.163 114.11 289.283 107.936C288.321 101.18 292.361 93.9222 298.305 91.7232C298.817 91.5338 299.327 91.388 299.831 91.2843C305.18 90.1835 309.931 93.8008 310.811 99.973Z" fill="url(#paint25_linear_428_9607)"/>
<path d="M302.496 85.728C304.871 85.728 307.078 86.3891 309.055 87.6932C312.372 89.8806 314.56 93.6252 315.216 98.2371C315.878 102.883 314.906 107.842 312.481 112.202C310.061 116.552 306.485 119.778 302.413 121.284C301.697 121.549 300.97 121.758 300.252 121.905C299.362 122.089 298.468 122.181 297.595 122.181C295.22 122.181 293.014 121.521 291.039 120.218C287.722 118.031 285.534 114.286 284.877 109.674C284.214 105.029 285.186 100.07 287.613 95.7091C290.034 91.3565 293.61 88.1304 297.68 86.6252C298.399 86.3599 299.126 86.1507 299.842 86.0035C300.731 85.8206 301.623 85.728 302.496 85.728ZM298.368 117.298C299.024 117.298 299.694 117.229 300.358 117.092C300.89 116.983 301.427 116.828 301.954 116.633C308.089 114.366 312.274 106.862 311.283 99.9057C310.491 94.3461 306.65 90.6109 301.725 90.611C301.069 90.611 300.399 90.6804 299.735 90.817C299.204 90.9263 298.667 91.0806 298.14 91.2757C292.005 93.545 287.82 101.049 288.811 108.003C289.603 113.563 293.443 117.298 298.368 117.298M302.496 85.2509C301.591 85.2509 300.672 85.3456 299.746 85.5362C299.006 85.6884 298.259 85.903 297.515 86.1777C293.336 87.723 289.672 91.0264 287.196 95.4771C284.72 99.9254 283.727 104.992 284.405 109.741C285.081 114.488 287.343 118.352 290.776 120.616C292.832 121.972 295.161 122.658 297.595 122.658C298.501 122.658 299.421 122.564 300.348 122.373C301.089 122.22 301.834 122.007 302.579 121.731C306.756 120.186 310.422 116.885 312.898 112.434C315.374 107.983 316.365 102.919 315.689 98.1699C315.013 93.4205 312.751 89.5589 309.318 87.2949C307.26 85.9379 304.931 85.2509 302.496 85.2509ZM298.368 117.298C293.828 117.298 290.057 113.846 289.283 108.413C288.321 101.657 292.361 94.3992 298.305 92.2001C298.817 92.0108 299.327 91.8651 299.831 91.7613C300.473 91.6294 301.106 91.5651 301.725 91.5651C306.265 91.565 310.037 95.0181 310.811 100.45C311.773 107.206 307.733 114.466 301.788 116.663C301.276 116.852 300.766 116.998 300.262 117.102C299.62 117.234 298.987 117.298 298.368 117.298V117.298Z" fill="url(#paint26_linear_428_9607)"/>
<path d="M300.313 119.401C300.927 119.275 301.548 119.098 302.171 118.867C309.416 116.187 314.342 107.338 313.169 99.102C312.097 91.5754 306.305 87.167 299.784 88.5089C299.17 88.6354 298.547 88.8133 297.923 89.0442C290.678 91.7245 285.753 100.573 286.926 108.809C287.998 116.335 293.791 120.744 300.313 119.401" fill="url(#paint27_linear_428_9607)"/>
<path d="M300.313 119.401C300.927 119.275 301.548 119.098 302.171 118.867C309.416 116.187 314.342 107.338 313.169 99.102C312.097 91.5754 306.305 87.167 299.784 88.5089C299.17 88.6354 298.547 88.8133 297.923 89.0442C290.678 91.7245 285.753 100.573 286.926 108.809C287.998 116.335 293.791 120.744 300.313 119.401" stroke="url(#paint28_linear_428_9607)" stroke-width="0.47707" stroke-miterlimit="10"/>
<path d="M300.313 119.401C300.927 119.275 301.548 119.098 302.171 118.867C309.416 116.187 314.342 107.338 313.169 99.102C312.097 91.5754 306.305 87.167 299.784 88.5089C299.17 88.6354 298.547 88.8133 297.923 89.0442C290.678 91.7245 285.753 100.573 286.926 108.809C287.998 116.335 293.791 120.744 300.313 119.401" fill="url(#paint29_linear_428_9607)"/>
<path d="M300.313 119.401C300.927 119.275 301.548 119.098 302.171 118.867C309.416 116.187 314.342 107.338 313.169 99.102C312.097 91.5754 306.305 87.167 299.784 88.5089C299.17 88.6354 298.547 88.8133 297.923 89.0442C290.678 91.7245 285.753 100.573 286.926 108.809C287.998 116.335 293.791 120.744 300.313 119.401" stroke="url(#paint30_linear_428_9607)" stroke-width="0.47707" stroke-miterlimit="10"/>
<path d="M292.49 105.069L292.459 105.073L292.341 108.234L290.848 108.427L289.846 107.962L291.339 107.769L291.457 104.608L291.488 104.604L292.49 105.069ZM294.263 105.11L292.301 102.267L291.298 101.802L293.26 104.645L294.263 105.11ZM294.9 101.337L294.677 107.338L293.463 107.495L294.465 107.96L295.679 107.803L295.903 101.802L294.9 101.337V101.337ZM298.864 105.977C298.47 105.795 298.246 105.26 298.275 104.482C298.314 103.444 298.778 102.725 299.439 102.64C299.604 102.618 299.754 102.64 299.885 102.701L298.882 102.236C298.751 102.175 298.601 102.153 298.436 102.175C297.776 102.26 297.311 102.979 297.272 104.017C297.243 104.795 297.467 105.33 297.861 105.512L298.864 105.977ZM300.874 101.404L299.871 100.939C300.686 101.317 301.135 102.221 301.087 103.524C301.015 105.442 299.921 106.763 298.257 106.978C297.722 107.047 297.255 106.986 296.87 106.808L297.873 107.273C298.258 107.451 298.724 107.512 299.26 107.443C300.924 107.228 302.018 105.907 302.089 103.99C302.138 102.686 301.689 101.782 300.874 101.404V101.404ZM306.467 102.989L305.465 102.524L305.434 102.528L304.955 104.352L304.482 100.693L303.48 100.228L303.959 103.94L304.943 104.396L304.504 106.068L303.009 106.261L304.012 106.726L305.507 106.533L306.436 102.993L306.467 102.989ZM307.16 100.347L306.157 99.8821L306.819 103.57L307.821 104.035L307.16 100.347ZM309.243 99.4833L307.632 105.664L306.138 105.857L307.14 106.322L308.635 106.129L310.246 99.9484L309.243 99.4833Z" fill="#747D7B"/>
<path d="M293.292 104.641L293.408 101.53L294.9 101.337L294.676 107.338L293.463 107.495L291.488 104.604L291.457 104.608L291.339 107.769L289.846 107.962L290.07 101.961L291.298 101.802L293.26 104.645L293.292 104.641V104.641ZM295.659 104.226C295.587 106.143 296.589 107.194 298.257 106.978C299.921 106.763 301.015 105.442 301.087 103.524C301.158 101.607 300.153 100.553 298.489 100.768C296.824 100.983 295.731 102.308 295.659 104.226H295.659ZM298.309 105.574C297.645 105.659 297.234 105.054 297.272 104.017C297.311 102.979 297.776 102.26 298.436 102.175C299.097 102.089 299.512 102.694 299.473 103.733C299.435 104.769 298.974 105.488 298.309 105.574ZM306.848 103.566L306.819 103.57L306.157 99.8821L304.933 100.04L303.988 103.936L303.959 103.94L303.48 100.228L301.845 100.439L303.009 106.261L304.504 106.068L305.434 102.528L305.465 102.524L306.138 105.857L307.632 105.664L309.243 99.4833L307.608 99.6946L306.848 103.566V103.566Z" fill="url(#paint31_linear_428_9607)"/>
</g>
<g opacity="0.2">
<path d="M350.142 95.4868C349.878 96.5279 350.007 97.522 350.504 98.2965L350.779 98.6607C350.862 98.7535 350.95 98.8403 351.043 98.9207L351.049 98.9258L351.051 98.9272C351.435 99.2554 351.904 99.4771 352.433 99.5773C352.604 99.6098 352.782 99.6295 352.964 99.6362C353.99 99.6732 355.061 99.2909 355.979 98.5594C356.714 97.9738 357.28 97.2209 357.617 96.3942L357.621 96.3845C357.898 95.7601 357.989 95.1766 357.958 94.6464C357.945 93.9948 357.764 93.3914 357.421 92.8869C357.309 92.7224 357.183 92.5728 357.044 92.4384C356.837 92.192 356.626 91.994 356.442 91.8522C356.288 91.7332 356.156 91.7583 356.049 91.8159C355.885 91.7549 355.713 91.7065 355.535 91.6726C355.364 91.6402 355.186 91.6204 355.003 91.6137C353.977 91.5766 352.906 91.9595 351.988 92.691C351.07 93.4221 350.414 94.4151 350.142 95.4868V95.4868ZM352.072 92.8145C352.952 92.1138 353.977 91.7476 354.96 91.7829C355.135 91.7893 355.305 91.8082 355.469 91.8393C355.605 91.8652 355.737 91.8997 355.865 91.9421C355.829 91.9665 355.799 91.9822 355.775 91.9767C355.663 91.9516 354.843 91.8237 354.843 91.8237L350.616 98.1295C350.168 97.3956 350.057 96.4657 350.304 95.4923C350.565 94.4662 351.193 93.5152 352.072 92.8145L352.072 92.8145Z" fill="url(#paint32_linear_428_9607)"/>
<path d="M350.115 97.9291C350.553 98.5732 351.211 98.9931 352.001 99.1429C352.173 99.1754 352.35 99.1951 352.533 99.2018C353.559 99.2388 354.63 98.8565 355.548 98.125C356.466 97.3934 357.121 96.4008 357.394 95.3292C357.666 94.2576 357.523 93.2361 356.989 92.4525C356.551 91.8083 355.894 91.388 355.103 91.2382C354.932 91.2058 354.754 91.186 354.572 91.1793C353.545 91.1422 352.475 91.5251 351.557 92.2566C350.639 92.9877 349.983 93.9807 349.711 95.0524C349.439 96.1235 349.582 97.1455 350.115 97.9291ZM356.196 95.2858C355.809 96.8101 354.311 98.0034 352.851 97.9504C352.725 97.9459 352.604 97.9322 352.487 97.9101C351.25 97.6758 350.555 96.4884 350.909 95.0953C351.296 93.571 352.794 92.3781 354.254 92.4307C354.38 92.4352 354.501 92.4488 354.618 92.4709C355.854 92.7054 356.55 93.893 356.196 95.2858Z" fill="url(#paint33_linear_428_9607)" stroke="url(#paint34_linear_428_9607)" stroke-width="0.10996" stroke-miterlimit="10"/>
<path d="M352.255 98.5064C352.397 98.5333 352.545 98.5499 352.698 98.5555C354.477 98.6195 356.303 97.1653 356.775 95.3069C357.207 93.6085 356.359 92.161 354.851 91.8752C354.709 91.8482 354.561 91.8316 354.407 91.8261C352.628 91.762 350.802 93.2163 350.33 95.0747C349.899 96.7728 350.747 98.2206 352.255 98.5064Z" fill="url(#paint35_linear_428_9607)"/>
<path d="M352.255 98.5064C352.397 98.5333 352.545 98.5499 352.698 98.5555C354.477 98.6195 356.303 97.1653 356.775 95.3069C357.207 93.6085 356.359 92.161 354.851 91.8752C354.709 91.8482 354.561 91.8316 354.407 91.8261C352.628 91.762 350.802 93.2163 350.33 95.0747C349.899 96.7728 350.747 98.2206 352.255 98.5064" stroke="url(#paint36_linear_428_9607)" stroke-width="0.10996" stroke-miterlimit="10"/>
<path d="M351.844 94.7613L351.837 94.7594L351.534 95.4228L351.199 95.333L351.026 95.146L351.362 95.2358L351.664 94.5724L351.671 94.5742L351.844 94.7613H351.844ZM352.218 94.9254L352.049 94.1474L351.876 93.9603L352.045 94.7384L352.218 94.9254ZM352.685 94.177L352.111 95.4366L351.838 95.3636L352.011 95.5506L352.284 95.6236L352.858 94.3641L352.685 94.177V94.177ZM353.123 95.5138C353.055 95.4403 353.054 95.3066 353.128 95.1435C353.228 94.9255 353.39 94.813 353.538 94.8528C353.575 94.8627 353.605 94.8805 353.628 94.9049L353.455 94.7179C353.432 94.6934 353.402 94.6757 353.365 94.6657C353.217 94.626 353.055 94.7385 352.955 94.9564C352.881 95.1196 352.882 95.2532 352.95 95.3268L353.123 95.5138V95.5138ZM353.952 94.7151L353.779 94.5281C353.92 94.6802 353.936 94.9123 353.812 95.1859C353.628 95.5883 353.279 95.774 352.906 95.6739C352.785 95.6417 352.691 95.5877 352.625 95.516L352.798 95.703C352.864 95.7748 352.958 95.8288 353.078 95.861C353.452 95.9611 353.801 95.7754 353.984 95.3729C354.109 95.0993 354.093 94.8672 353.952 94.7151H353.952ZM355.005 95.5437L354.832 95.3566L354.826 95.3547L354.563 95.7015L354.784 94.8801L354.611 94.6931L354.387 95.5263L354.557 95.7099L354.317 96.0277L353.981 95.9378L354.154 96.1249L354.49 96.2148L354.998 95.5418L355.005 95.5437ZM355.385 95.0412L355.212 94.8541L355.029 95.6983L355.202 95.8853L355.385 95.0412V95.0412ZM355.905 95.0398L355.019 96.2159L354.684 96.126L354.857 96.313L355.192 96.4029L356.078 95.2268L355.905 95.0398Z" fill="#008266"/>
<path d="M352.052 94.7403L352.35 94.0873L352.685 94.1771L352.111 95.4366L351.838 95.3636L351.671 94.5743L351.664 94.5724L351.361 95.2358L351.026 95.146L351.6 93.8865L351.876 93.9604L352.045 94.7384L352.052 94.7403ZM352.593 94.8594C352.41 95.2619 352.531 95.5736 352.906 95.6739C353.279 95.774 353.628 95.5884 353.812 95.1859C353.995 94.7834 353.873 94.4706 353.5 94.3705C353.126 94.2704 352.777 94.4569 352.593 94.8594V94.8594ZM353.04 95.3791C352.891 95.3392 352.856 95.174 352.955 94.9565C353.055 94.7385 353.217 94.626 353.365 94.6658C353.513 94.7055 353.549 94.8709 353.449 95.0888C353.35 95.3064 353.189 95.4191 353.04 95.3791ZM355.036 95.7001L355.029 95.6983L355.212 94.8542L354.937 94.7805L354.394 95.528L354.387 95.5263L354.611 94.6931L354.244 94.5947L353.981 95.9378L354.317 96.0278L354.825 95.3548L354.832 95.3566L354.684 96.126L355.019 96.2159L355.905 95.0398L355.537 94.9414L355.036 95.7001Z" fill="url(#paint37_linear_428_9607)"/>
</g>
<defs>
<linearGradient id="paint0_linear_428_9607" x1="245.99" y1="22.3009" x2="254.585" y2="90.9517" gradientUnits="userSpaceOnUse">
<stop stop-color="#3C3C4D"/>
<stop offset="0.25413" stop-color="#47475B"/>
<stop offset="0.26552" stop-color="#49495E"/>
<stop offset="0.59975" stop-color="#2C2C38"/>
<stop offset="1" stop-color="#55556E"/>
</linearGradient>
<linearGradient id="paint1_linear_428_9607" x1="238.015" y1="32.0041" x2="279.042" y2="80.9049" gradientUnits="userSpaceOnUse">
<stop stop-color="#3C3C4D"/>
<stop offset="0.25413" stop-color="#47475B"/>
<stop offset="0.26552" stop-color="#49495E"/>
<stop offset="0.59975" stop-color="#2C2C38"/>
<stop offset="1" stop-color="#55556E"/>
</linearGradient>
<linearGradient id="paint2_linear_428_9607" x1="254.245" y1="19.48" x2="253.618" y2="82.4687" gradientUnits="userSpaceOnUse">
<stop stop-color="#3C3C4D"/>
<stop offset="0.29526" stop-color="#707091"/>
<stop offset="0.59975" stop-color="#2C2C38"/>
<stop offset="1" stop-color="#55556E"/>
</linearGradient>
<linearGradient id="paint3_linear_428_9607" x1="232.946" y1="38.5798" x2="274.914" y2="63.371" gradientUnits="userSpaceOnUse">
<stop stop-color="#3C3C4D"/>
<stop offset="0.25413" stop-color="#47475B"/>
<stop offset="0.26552" stop-color="#49495E"/>
<stop offset="0.59975" stop-color="#2C2C38"/>
<stop offset="1" stop-color="#55556E"/>
</linearGradient>
<linearGradient id="paint4_linear_428_9607" x1="232.609" y1="38.381" x2="275.251" y2="63.5699" gradientUnits="userSpaceOnUse">
<stop stop-color="#3C3C4D"/>
<stop offset="0.29526" stop-color="#707091"/>
<stop offset="0.59975" stop-color="#2C2C38"/>
<stop offset="1" stop-color="#55556E"/>
</linearGradient>
<linearGradient id="paint5_linear_428_9607" x1="240.73" y1="42.289" x2="269.784" y2="59.4513" gradientUnits="userSpaceOnUse">
<stop offset="0.10346" stop-color="#00D97B"/>
<stop offset="0.42374" stop-color="#00A65F"/>
<stop offset="0.50452" stop-color="#00B869"/>
<stop offset="0.61659" stop-color="#00CA73"/>
<stop offset="0.73404" stop-color="#00D579"/>
<stop offset="0.86464" stop-color="#00D97B"/>
</linearGradient>
<linearGradient id="paint6_linear_428_9607" x1="172.231" y1="118.521" x2="254.7" y2="179.053" gradientUnits="userSpaceOnUse">
<stop stop-color="#00D97B"/>
<stop offset="0.13653" stop-color="#00A65F"/>
<stop offset="0.3706" stop-color="#00C26F"/>
<stop offset="0.53629" stop-color="#00A65F"/>
<stop offset="0.94587" stop-color="#00D97B"/>
</linearGradient>
<linearGradient id="paint7_linear_428_9607" x1="174.548" y1="136.947" x2="268.761" y2="142.576" gradientUnits="userSpaceOnUse">
<stop stop-color="#00D97B"/>
<stop offset="0.13653" stop-color="#00A65F"/>
<stop offset="0.3706" stop-color="#00C26F"/>
<stop offset="0.53629" stop-color="#00A65F"/>
<stop offset="0.94587" stop-color="#00D97B"/>
</linearGradient>
<linearGradient id="paint8_linear_428_9607" x1="178.006" y1="107.19" x2="244.189" y2="171.07" gradientUnits="userSpaceOnUse">
<stop stop-color="#00A65F"/>
<stop offset="0.31125" stop-color="#21ED96"/>
<stop offset="0.68702" stop-color="#00A65F"/>
<stop offset="1" stop-color="#21ED96"/>
</linearGradient>
<linearGradient id="paint9_linear_428_9607" x1="177.392" y1="148.806" x2="244.803" y2="129.459" gradientUnits="userSpaceOnUse">
<stop stop-color="#00A65F"/>
<stop offset="0.33591" stop-color="#00C26F"/>
<stop offset="0.43953" stop-color="#00B568"/>
<stop offset="0.59839" stop-color="#00A961"/>
<stop offset="0.75827" stop-color="#00A65F"/>
<stop offset="1" stop-color="#00D97B"/>
</linearGradient>
<linearGradient id="paint10_linear_428_9607" x1="176.837" y1="148.966" x2="245.358" y2="129.299" gradientUnits="userSpaceOnUse">
<stop stop-color="#00A65F"/>
<stop offset="0.31125" stop-color="#21ED96"/>
<stop offset="0.68702" stop-color="#00A65F"/>
<stop offset="1" stop-color="#21ED96"/>
</linearGradient>
<linearGradient id="paint11_linear_428_9607" x1="188.357" y1="144.482" x2="236.311" y2="130.719" gradientUnits="userSpaceOnUse">
<stop stop-color="#D3D7E1"/>
<stop offset="0.4976" stop-color="#E6E9F5"/>
<stop offset="0.98587" stop-color="#D2D6E0"/>
</linearGradient>
<linearGradient id="paint12_linear_428_9607" x1="324.201" y1="50.4648" x2="342.914" y2="64.1999" gradientUnits="userSpaceOnUse">
<stop stop-color="#00D97B"/>
<stop offset="0.13653" stop-color="#00A65F"/>
<stop offset="0.3706" stop-color="#00C26F"/>
<stop offset="0.53629" stop-color="#00A65F"/>
<stop offset="0.94587" stop-color="#00D97B"/>
</linearGradient>
<linearGradient id="paint13_linear_428_9607" x1="324.728" y1="54.6458" x2="346.105" y2="55.9229" gradientUnits="userSpaceOnUse">
<stop stop-color="#00D97B"/>
<stop offset="0.13653" stop-color="#00A65F"/>
<stop offset="0.3706" stop-color="#00C26F"/>
<stop offset="0.53629" stop-color="#00A65F"/>
<stop offset="0.94587" stop-color="#00D97B"/>
</linearGradient>
<linearGradient id="paint14_linear_428_9607" x1="325.512" y1="47.8936" x2="340.53" y2="62.3886" gradientUnits="userSpaceOnUse">
<stop stop-color="#00A65F"/>
<stop offset="0.31125" stop-color="#21ED96"/>
<stop offset="0.68702" stop-color="#00A65F"/>
<stop offset="1" stop-color="#21ED96"/>
</linearGradient>
<linearGradient id="paint15_linear_428_9607" x1="325.372" y1="57.3367" x2="340.668" y2="52.9465" gradientUnits="userSpaceOnUse">
<stop stop-color="#00A65F"/>
<stop offset="0.33591" stop-color="#00C26F"/>
<stop offset="0.43953" stop-color="#00B568"/>
<stop offset="0.59839" stop-color="#00A961"/>
<stop offset="0.75827" stop-color="#00A65F"/>
<stop offset="1" stop-color="#00D97B"/>
</linearGradient>
<linearGradient id="paint16_linear_428_9607" x1="325.246" y1="57.3729" x2="340.794" y2="52.9103" gradientUnits="userSpaceOnUse">
<stop stop-color="#00A65F"/>
<stop offset="0.31125" stop-color="#21ED96"/>
<stop offset="0.68702" stop-color="#00A65F"/>
<stop offset="1" stop-color="#21ED96"/>
</linearGradient>
<linearGradient id="paint17_linear_428_9607" x1="327.861" y1="56.3555" x2="338.742" y2="53.2324" gradientUnits="userSpaceOnUse">
<stop stop-color="#D3D7E1"/>
<stop offset="0.4976" stop-color="#E6E9F5"/>
<stop offset="0.98587" stop-color="#D2D6E0"/>
</linearGradient>
<linearGradient id="paint18_linear_428_9607" x1="67.0172" y1="22.2703" x2="175.247" y2="162.266" gradientUnits="userSpaceOnUse">
<stop stop-color="#3C3C4D"/>
<stop offset="0.25413" stop-color="#47475B"/>
<stop offset="0.26552" stop-color="#49495E"/>
<stop offset="0.59975" stop-color="#2C2C38"/>
<stop offset="1" stop-color="#55556E"/>
</linearGradient>
<linearGradient id="paint19_linear_428_9607" x1="62.0776" y1="54.0115" x2="216.034" y2="108.328" gradientUnits="userSpaceOnUse">
<stop stop-color="#3C3C4D"/>
<stop offset="0.25413" stop-color="#47475B"/>
<stop offset="0.26552" stop-color="#49495E"/>
<stop offset="0.59975" stop-color="#2C2C38"/>
<stop offset="1" stop-color="#55556E"/>
</linearGradient>
<linearGradient id="paint20_linear_428_9607" x1="81.526" y1="5.31995" x2="162.081" y2="144.845" gradientUnits="userSpaceOnUse">
<stop stop-color="#3C3C4D"/>
<stop offset="0.29526" stop-color="#707091"/>
<stop offset="0.59975" stop-color="#2C2C38"/>
<stop offset="1" stop-color="#55556E"/>
</linearGradient>
<linearGradient id="paint21_linear_428_9607" x1="59.4688" y1="75.086" x2="184.137" y2="75.086" gradientUnits="userSpaceOnUse">
<stop stop-color="#3C3C4D"/>
<stop offset="0.25413" stop-color="#47475B"/>
<stop offset="0.26552" stop-color="#49495E"/>
<stop offset="0.59975" stop-color="#2C2C38"/>
<stop offset="1" stop-color="#55556E"/>
</linearGradient>
<linearGradient id="paint22_linear_428_9607" x1="58.4688" y1="75.086" x2="185.137" y2="75.086" gradientUnits="userSpaceOnUse">
<stop stop-color="#3C3C4D"/>
<stop offset="0.29526" stop-color="#707091"/>
<stop offset="0.59975" stop-color="#2C2C38"/>
<stop offset="1" stop-color="#55556E"/>
</linearGradient>
<linearGradient id="paint23_linear_428_9607" x1="81.4346" y1="73.1287" x2="167.739" y2="73.1287" gradientUnits="userSpaceOnUse">
<stop offset="0.10346" stop-color="#00D97B"/>
<stop offset="0.42374" stop-color="#00A65F"/>
<stop offset="0.50452" stop-color="#00B869"/>
<stop offset="0.61659" stop-color="#00CA73"/>
<stop offset="0.73404" stop-color="#00D579"/>
<stop offset="0.86464" stop-color="#00D97B"/>
</linearGradient>
<linearGradient id="paint24_linear_428_9607" x1="307.339" y1="87.3326" x2="296.169" y2="128.038" gradientUnits="userSpaceOnUse">
<stop stop-color="#00D97B"/>
<stop offset="0.13653" stop-color="#00A65F"/>
<stop offset="0.3706" stop-color="#00C26F"/>
<stop offset="0.53629" stop-color="#00A65F"/>
<stop offset="0.94587" stop-color="#00D97B"/>
</linearGradient>
<linearGradient id="paint25_linear_428_9607" x1="287.467" y1="99.7304" x2="316.963" y2="109.637" gradientUnits="userSpaceOnUse">
<stop stop-color="#00D97B"/>
<stop offset="0.13653" stop-color="#00A65F"/>
<stop offset="0.3706" stop-color="#00C26F"/>
<stop offset="0.53629" stop-color="#00A65F"/>
<stop offset="0.94587" stop-color="#00D97B"/>
</linearGradient>
<linearGradient id="paint26_linear_428_9607" x1="308.648" y1="86.8612" x2="291.446" y2="121.05" gradientUnits="userSpaceOnUse">
<stop stop-color="#00A65F"/>
<stop offset="0.31125" stop-color="#21ED96"/>
<stop offset="0.68702" stop-color="#00A65F"/>
<stop offset="1" stop-color="#21ED96"/>
</linearGradient>
<linearGradient id="paint27_linear_428_9607" x1="313.428" y1="98.4508" x2="286.667" y2="109.46" gradientUnits="userSpaceOnUse">
<stop stop-color="#00A65F"/>
<stop offset="0.33591" stop-color="#00C26F"/>
<stop offset="0.43953" stop-color="#00B568"/>
<stop offset="0.59839" stop-color="#00A961"/>
<stop offset="0.75827" stop-color="#00A65F"/>
<stop offset="1" stop-color="#00D97B"/>
</linearGradient>
<linearGradient id="paint28_linear_428_9607" x1="313.648" y1="98.36" x2="286.446" y2="109.551" gradientUnits="userSpaceOnUse">
<stop stop-color="#00A65F"/>
<stop offset="0.31125" stop-color="#21ED96"/>
<stop offset="0.68702" stop-color="#00A65F"/>
<stop offset="1" stop-color="#21ED96"/>
</linearGradient>
<linearGradient id="paint29_linear_428_9607" x1="313.428" y1="98.4508" x2="286.667" y2="109.46" gradientUnits="userSpaceOnUse">
<stop stop-color="#00A65F"/>
<stop offset="0.33591" stop-color="#00C26F"/>
<stop offset="0.43953" stop-color="#00B568"/>
<stop offset="0.59839" stop-color="#00A961"/>
<stop offset="0.75827" stop-color="#00A65F"/>
<stop offset="1" stop-color="#00D97B"/>
</linearGradient>
<linearGradient id="paint30_linear_428_9607" x1="313.648" y1="98.36" x2="286.446" y2="109.551" gradientUnits="userSpaceOnUse">
<stop stop-color="#00A65F"/>
<stop offset="0.31125" stop-color="#21ED96"/>
<stop offset="0.68702" stop-color="#00A65F"/>
<stop offset="1" stop-color="#21ED96"/>
</linearGradient>
<linearGradient id="paint31_linear_428_9607" x1="289.689" y1="107.582" x2="309.262" y2="99.5291" gradientUnits="userSpaceOnUse">
<stop stop-color="#D3D7E1"/>
<stop offset="0.4976" stop-color="#E6E9F5"/>
<stop offset="0.98587" stop-color="#D2D6E0"/>
</linearGradient>
<linearGradient id="paint32_linear_428_9607" x1="356.564" y1="92.287" x2="350.614" y2="99.9839" gradientUnits="userSpaceOnUse">
<stop stop-color="#3C3C4D"/>
<stop offset="0.25413" stop-color="#47475B"/>
<stop offset="0.26552" stop-color="#49495E"/>
<stop offset="0.59975" stop-color="#2C2C38"/>
<stop offset="1" stop-color="#55556E"/>
</linearGradient>
<linearGradient id="paint33_linear_428_9607" x1="356.445" y1="92.683" x2="349.663" y2="98.563" gradientUnits="userSpaceOnUse">
<stop stop-color="#3C3C4D"/>
<stop offset="0.25413" stop-color="#47475B"/>
<stop offset="0.26552" stop-color="#49495E"/>
<stop offset="0.59975" stop-color="#2C2C38"/>
<stop offset="1" stop-color="#55556E"/>
</linearGradient>
<linearGradient id="paint34_linear_428_9607" x1="356.926" y1="92.2653" x2="350.178" y2="98.1162" gradientUnits="userSpaceOnUse">
<stop stop-color="#3C3C4D"/>
<stop offset="0.29526" stop-color="#707091"/>
<stop offset="0.59975" stop-color="#2C2C38"/>
<stop offset="1" stop-color="#55556E"/>
</linearGradient>
<linearGradient id="paint35_linear_428_9607" x1="356.887" y1="95.1908" x2="350.218" y2="95.1908" gradientUnits="userSpaceOnUse">
<stop stop-color="#3C3C4D"/>
<stop offset="0.25413" stop-color="#47475B"/>
<stop offset="0.26552" stop-color="#49495E"/>
<stop offset="0.59975" stop-color="#2C2C38"/>
<stop offset="1" stop-color="#55556E"/>
</linearGradient>
<linearGradient id="paint36_linear_428_9607" x1="356.942" y1="95.1908" x2="350.163" y2="95.1908" gradientUnits="userSpaceOnUse">
<stop stop-color="#3C3C4D"/>
<stop offset="0.29526" stop-color="#707091"/>
<stop offset="0.59975" stop-color="#2C2C38"/>
<stop offset="1" stop-color="#55556E"/>
</linearGradient>
<linearGradient id="paint37_linear_428_9607" x1="351.026" y1="95.0512" x2="355.905" y2="95.0512" gradientUnits="userSpaceOnUse">
<stop offset="0.10346" stop-color="#00D97B"/>
<stop offset="0.42374" stop-color="#00A65F"/>
<stop offset="0.50452" stop-color="#00B869"/>
<stop offset="0.61659" stop-color="#00CA73"/>
<stop offset="0.73404" stop-color="#00D579"/>
<stop offset="0.86464" stop-color="#00D97B"/>
</linearGradient>
</defs>
</svg>
