<svg width="358" height="186" viewBox="0 0 358 186" fill="none" xmlns="http://www.w3.org/2000/svg">
<g opacity="0.8">
<path d="M73.4576 84.609C73.5806 79.7996 72.1861 75.3528 69.5283 72.089C69.0551 71.5083 68.5505 70.9752 68.0216 70.4959C67.4694 69.9956 66.8874 69.5547 66.2825 69.1689C66.2049 68.6748 65.963 68.184 65.1922 67.9737C64.2746 67.7233 63.104 67.5202 61.7891 67.4554C61.006 67.3332 60.2046 67.29 59.3906 67.3306C56.8927 67.4551 54.4731 68.3553 52.31 69.9224C50.5012 71.1329 48.8171 72.8713 47.4603 75.3197L47.4395 75.3588C45.5686 78.5022 44.5054 82.213 44.4069 86.0624C44.2839 90.8718 45.681 95.318 48.3373 98.5805C48.8108 99.162 49.3144 99.6937 49.8439 100.174C51.4779 101.654 53.3616 102.639 55.3837 103.084L55.3944 103.089L55.4244 103.093C55.9175 103.2 56.4189 103.273 56.9269 103.314L58.7987 103.315C62.5594 103.026 66.1286 100.991 68.8787 97.5532C71.7105 94.0155 73.3357 89.4165 73.4576 84.609H73.4576ZM68.4599 97.0365C65.8896 100.252 62.5728 102.185 59.068 102.536L69.2374 73.1309C69.2374 73.1309 66.7913 70.7646 66.4346 70.4631C66.3563 70.397 66.3331 70.2592 66.3255 70.0836C66.7794 70.3961 67.2188 70.7426 67.6402 71.1244C68.147 71.5836 68.6286 72.0919 69.0818 72.6481C71.6258 75.7738 72.9628 80.0312 72.8457 84.6386C72.7286 89.2461 71.1705 93.6488 68.4599 97.0365H68.4599Z" fill="url(#paint0_linear_428_9657)"/>
<path d="M71.366 97.891C74.1978 94.3533 75.823 89.7544 75.9449 84.9468C76.0679 80.1374 74.6734 75.6906 72.0156 72.4268C71.5424 71.8461 71.0378 71.313 70.5089 70.8337C68.0665 68.6207 65.0672 67.5093 61.8779 67.6684C57.9981 67.8618 54.3035 69.917 51.4731 73.456C48.6427 76.995 47.0172 81.5908 46.8942 86.4002C46.7712 91.2096 48.1683 95.6558 50.8246 98.9183C51.2981 99.4998 51.8017 100.032 52.3312 100.511C54.7739 102.725 57.7725 103.837 60.9612 103.679C64.841 103.485 68.5367 101.428 71.366 97.891L71.366 97.891ZM67.6794 75.4688C68.0396 75.7952 68.3845 76.1587 68.71 76.5586C72.4901 81.2019 72.2913 89.0464 68.2646 94.0801C64.5847 98.6802 58.9839 99.3412 55.1612 95.8767C54.801 95.5503 54.4558 95.1865 54.1303 94.7866C50.3493 90.1448 50.549 82.2988 54.5757 77.2652C58.2547 72.6664 63.8564 72.0049 67.6794 75.4688V75.4688Z" fill="url(#paint1_linear_428_9657)" stroke="url(#paint2_linear_428_9657)" stroke-width="0.45066" stroke-miterlimit="10"/>
<path d="M53.575 98.4547C58.3652 102.796 65.384 101.968 69.9939 96.2061C75.0387 89.8997 75.2875 80.0714 70.5531 74.2554C70.1452 73.7544 69.7129 73.2987 69.2616 72.8898C64.472 68.5499 57.455 69.3776 52.8447 75.1409C47.7999 81.4473 47.551 91.2756 52.2854 97.0916C52.6928 97.5917 53.1243 98.0463 53.575 98.4547Z" fill="url(#paint3_linear_428_9657)"/>
<path d="M53.575 98.4547C58.3652 102.796 65.384 101.968 69.9939 96.2061C75.0387 89.8997 75.2875 80.0714 70.5531 74.2554C70.1452 73.7544 69.7129 73.2987 69.2616 72.8898C64.472 68.5499 57.455 69.3776 52.8447 75.1409C47.7999 81.4473 47.551 91.2756 52.2854 97.0916C52.6928 97.5917 53.1243 98.0463 53.575 98.4547" stroke="url(#paint4_linear_428_9657)" stroke-width="0.45066" stroke-miterlimit="10"/>
<path d="M67.3615 92.2266L66.3005 92.2847L68.5935 89.8503L69.6544 89.7922L67.3615 92.2266ZM66.9296 90.2697L65.8687 90.3279L65.8893 90.3484L66.9503 90.2903L66.9296 90.2697ZM66.9503 90.2903L65.8893 90.3484L64.7791 93.5142L65.84 93.456L66.9503 90.2903ZM65.84 93.456L64.7791 93.5142L65.835 94.5669L66.8959 94.5087L65.84 93.456ZM67.7608 87.9042L66.6999 87.9624L64.2779 90.2681L65.3388 90.21L67.7608 87.9042ZM63.6276 91.2502L62.5667 91.3084L63.6226 92.3611L64.6835 92.3029L63.6276 91.2502ZM65.5781 85.728L64.5172 85.7862L62.5667 91.3084L63.6276 91.2502L65.5781 85.728ZM62.5122 86.4086C63.0207 85.6209 63.0318 84.8084 62.5645 84.3425C62.3849 84.1634 62.1805 84.0814 61.9681 84.093L60.9072 84.1511C61.1196 84.1395 61.324 84.2215 61.5036 84.4006C61.9709 84.8665 61.9598 85.679 61.4512 86.4667C61.1405 86.948 60.7815 87.2061 60.4418 87.2247L61.5027 87.1666C61.8424 87.148 62.2014 86.8899 62.5121 86.4086H62.5122ZM60.2161 87.9802C59.0363 86.804 58.876 85.1692 59.8131 83.7176C60.3117 82.9453 60.9196 82.5385 61.5567 82.5036L60.4958 82.5617C59.8587 82.5966 59.2508 83.0035 58.7522 83.7757C57.8151 85.2274 57.9754 86.8621 59.1552 88.0384C59.7072 88.5888 60.2904 88.8465 60.8507 88.8158L61.9116 88.7577C61.3513 88.7884 60.7682 88.5306 60.2161 87.9802ZM59.6094 79.7773L58.5485 79.8354L57.0281 82.1906L58.089 82.1325L59.6094 79.7773ZM56.9164 80.6262L55.8555 80.6844L55.8774 80.7063L56.9383 80.6481L56.9164 80.6262ZM56.8742 84.517L55.8132 84.5751L56.6716 85.4309L57.7325 85.3728L56.8742 84.517ZM56.9383 80.6481L55.8774 80.7063L55.8132 84.5751L56.8742 84.517L56.9383 80.6481ZM54.3158 81.9663L53.2549 82.0244L54.3108 83.0771L55.3717 83.019L54.3158 81.9663ZM57.2486 77.4235L56.1877 77.4816L53.2549 82.0244L54.3158 81.9663L57.2486 77.4235Z" fill="#008266"/>
<path d="M69.655 89.7922L70.8116 90.9453L66.8965 94.5087L65.8406 93.456L66.9509 90.2903L66.9302 90.2697L64.6841 92.3029L63.6282 91.2502L65.5787 85.728L66.7352 86.8811L65.3187 90.1894L65.3394 90.21L67.7614 87.9042L68.6276 88.7678L67.3414 92.206L67.3621 92.2266L69.655 89.7922L69.655 89.7922ZM59.8137 83.7176C58.8766 85.1692 59.0369 86.804 60.2167 87.9802C61.3952 89.1552 62.7154 88.9966 63.6525 87.545C64.5897 86.0933 64.4301 84.4542 63.2516 83.2792C62.0744 82.1055 60.7509 82.266 59.8137 83.7176V83.7176ZM60.9041 86.9154C60.4343 86.4469 60.4493 85.6382 60.9548 84.8553C61.4633 84.0676 62.0979 83.8766 62.5652 84.3425C63.0324 84.8084 63.0213 85.6209 62.5128 86.4086C62.0073 87.1916 61.374 87.3838 60.9042 86.9154M58.0689 82.1119L58.1179 78.2896L57.2492 77.4235L54.3164 81.9663L55.3723 83.019L56.917 80.6262L56.9389 80.6481L56.8748 84.517L57.7331 85.3728L60.6659 80.83L59.61 79.7773L58.0896 82.1325L58.0689 82.1119Z" fill="url(#paint5_linear_428_9657)"/>
</g>
<g opacity="0.9">
<path d="M121.595 122.149C113.998 118.997 106.046 118.488 99.2053 120.722C97.988 121.12 96.8271 121.597 95.7374 122.146C94.5997 122.72 93.5385 123.377 92.5512 124.105C91.7152 123.925 90.7835 124.01 89.9741 125.11C89.0105 126.42 87.967 128.163 87.0552 130.221C86.379 131.395 85.8174 132.647 85.3818 133.971C84.045 138.033 83.9938 142.446 85.1642 146.861C85.9835 150.491 87.7218 154.246 90.794 157.916C90.8103 157.935 90.8273 157.953 90.8437 157.973C94.7086 162.89 99.9754 166.868 106.056 169.391C113.654 172.544 121.606 173.048 128.444 170.815C129.663 170.417 130.821 169.941 131.912 169.391C135.278 167.694 138.008 165.295 139.96 162.342L139.975 162.328L140 162.282C140.473 161.561 140.898 160.806 141.276 160.021L142.428 157.035C144.279 150.858 143.227 143.913 139.432 137.412C135.529 130.719 129.191 125.299 121.595 122.149L121.595 122.149ZM138.35 137.762C141.901 143.84 142.945 150.319 141.351 156.127L100.689 121.826C100.689 121.826 95.4098 124.274 94.7095 124.658C94.5558 124.742 94.3218 124.695 94.0369 124.599C94.8147 124.067 95.6374 123.579 96.5057 123.141C97.5498 122.615 98.6568 122.159 99.8228 121.778C106.374 119.641 113.988 120.125 121.267 123.144C128.545 126.163 134.612 131.355 138.35 137.762Z" fill="url(#paint6_linear_428_9657)"/>
<path d="M141.5 133.651C137.596 126.959 131.258 121.539 123.663 118.389C116.065 115.236 108.114 114.728 101.273 116.961C100.055 117.36 98.8946 117.837 97.8048 118.386C92.7727 120.922 89.1558 125.024 87.4493 130.21C85.3728 136.519 86.3805 143.677 90.2869 150.368C94.1932 157.059 100.526 162.478 108.124 165.631C115.721 168.783 123.674 169.287 130.511 167.055C131.73 166.657 132.888 166.18 133.979 165.631C139.012 163.094 142.631 158.994 144.337 153.809C146.414 147.5 145.404 140.339 141.5 133.651L141.5 133.651ZM103.46 125.75C104.203 125.376 104.995 125.049 105.833 124.775C115.564 121.599 127.957 126.738 133.513 136.257C138.59 144.955 136.202 154.297 128.325 158.267C127.582 158.641 126.79 158.968 125.952 159.241C116.222 162.42 103.827 157.278 98.2713 147.76C93.1958 139.063 95.5839 129.72 103.46 125.75L103.46 125.75Z" fill="url(#paint7_linear_428_9657)"/>
<path d="M110.153 116.361C114.54 116.361 118.986 117.282 123.368 119.101C130.813 122.188 137.016 127.494 140.834 134.04C144.627 140.538 145.611 147.473 143.605 153.568C141.967 158.547 138.518 162.48 133.632 164.942C132.575 165.475 131.444 165.94 130.272 166.322C127.561 167.207 124.652 167.656 121.627 167.656C117.24 167.656 112.796 166.735 108.419 164.919C100.976 161.83 94.7732 156.525 90.9523 149.98C87.159 143.482 86.1748 136.547 88.1812 130.451C89.8205 125.47 93.2681 121.535 98.1517 119.074C99.2065 118.542 100.337 118.078 101.512 117.694C104.221 116.809 107.128 116.361 110.153 116.361M119.852 160.952C122.071 160.952 124.204 160.623 126.191 159.974C127.054 159.692 127.888 159.349 128.671 158.955C132.454 157.049 135.174 153.849 136.329 149.946C137.646 145.5 136.882 140.5 134.179 135.868C129.709 128.21 120.768 123.065 111.931 123.065C109.713 123.065 107.581 123.394 105.593 124.043C104.73 124.325 103.895 124.667 103.114 125.061C99.3311 126.968 96.6116 130.168 95.456 134.071C94.1396 138.518 94.9031 143.517 97.6058 148.148C102.076 155.807 111.016 160.952 119.852 160.952ZM110.153 115.59C107.073 115.59 104.08 116.045 101.273 116.961C100.055 117.359 98.8946 117.837 97.8049 118.386C92.7728 120.922 89.1558 125.024 87.4493 130.21C85.3727 136.519 86.3805 143.677 90.2869 150.368C94.1932 157.059 100.526 162.478 108.124 165.631C112.601 167.489 117.203 168.427 121.627 168.427C124.709 168.427 127.704 167.972 130.512 167.055C131.73 166.657 132.888 166.18 133.979 165.631C139.012 163.094 142.631 158.994 144.337 153.809C146.414 147.5 145.404 140.339 141.5 133.651C137.596 126.958 131.258 121.539 123.663 118.389C119.183 116.53 114.579 115.59 110.153 115.59L110.153 115.59ZM119.852 160.952C111.524 160.952 102.713 156.141 98.2713 148.53C93.1958 139.834 95.5839 130.49 103.46 126.52C104.203 126.146 104.995 125.819 105.833 125.546C107.784 124.909 109.842 124.606 111.931 124.606C120.259 124.606 129.071 129.417 133.513 137.027C138.59 145.726 136.202 155.068 128.325 159.037C127.582 159.411 126.79 159.738 125.952 160.012C124.001 160.649 121.941 160.952 119.852 160.952V160.952Z" fill="url(#paint8_linear_428_9657)"/>
<path d="M131.044 161.833C140.648 156.993 143.563 145.602 137.374 134.998C130.602 123.394 115.492 117.129 103.631 121C102.609 121.333 101.643 121.732 100.738 122.188C91.1358 127.028 88.2234 138.416 94.413 149.021C101.186 160.625 116.295 166.891 128.156 163.02C129.177 162.686 130.14 162.289 131.044 161.833Z" fill="url(#paint9_linear_428_9657)" stroke="url(#paint10_linear_428_9657)" stroke-width="0.77052" stroke-miterlimit="10"/>
<path d="M129.443 138.284L126.966 133.13L127.525 131.402L130.003 136.555L129.443 138.284ZM131.028 139.742L126.658 136.022L126.612 136.043L126.053 137.771L126.098 137.751L130.468 141.471L132.797 140.433L133.356 138.705L131.028 139.742H131.028ZM125.542 138.543L123.349 133.263L122.79 134.991L124.982 140.271L125.542 138.543ZM118.536 135.407L117.976 137.136L125.589 143.645L127.918 142.607L128.477 140.879L126.149 141.916L118.536 135.407ZM113.918 141.093C114.948 140.634 116.233 141.15 117.177 142.445C117.755 143.239 117.947 143.969 117.768 144.522L118.328 142.793C118.507 142.241 118.315 141.51 117.737 140.717C116.793 139.421 115.508 138.906 114.477 139.365C114.079 139.542 113.821 139.819 113.709 140.166L113.15 141.894C113.262 141.547 113.52 141.27 113.918 141.093H113.918ZM118.835 145.345C116.231 146.505 113.527 145.755 111.787 143.368C110.861 142.097 110.585 140.877 110.921 139.839L110.362 141.568C110.026 142.606 110.302 143.826 111.228 145.096C112.968 147.483 115.671 148.234 118.276 147.073C119.493 146.531 120.262 145.759 120.558 144.846L121.117 143.118C120.822 144.031 120.052 144.803 118.835 145.345H118.835ZM108.195 145.145L105.373 141.272L104.813 143L107.636 146.874L108.195 145.145ZM105.122 146.071L105.076 146.091L104.517 147.82L104.562 147.799L110.698 150.279L112.588 149.437L113.148 147.708L111.258 148.55L105.122 146.071ZM100.169 143.59L99.6094 145.318L105.056 152.793L107.385 151.755L107.944 150.027L105.616 151.064L100.169 143.59V143.59Z" fill="#747D7B"/>
<path d="M127.526 131.402L130.076 130.266L133.357 138.705L131.028 139.742L126.658 136.022L126.612 136.043L128.477 140.879L126.149 141.916L118.536 135.407L121.086 134.271L125.494 138.564L125.542 138.543L123.349 133.263L125.26 132.412L129.954 136.577L130.003 136.555L127.526 131.402H127.526ZM111.787 143.368C113.527 145.755 116.231 146.505 118.836 145.345C121.432 144.188 121.993 141.983 120.253 139.596C118.513 137.208 115.797 136.457 113.201 137.613C110.602 138.771 110.047 140.98 111.787 143.368ZM117.559 143.594C116.523 144.055 115.241 143.538 114.301 142.248C113.357 140.952 113.444 139.825 114.477 139.365C115.508 138.906 116.793 139.421 117.737 140.717C118.677 142.007 118.596 143.132 117.559 143.594M108.15 145.166L102.085 142.737L100.169 143.59L105.616 151.064L107.944 150.027L105.076 146.091L105.122 146.071L111.258 148.55L113.148 147.708L107.701 140.234L105.373 141.272L108.196 145.145L108.15 145.166Z" fill="url(#paint11_linear_428_9657)"/>
</g>
<g opacity="0.95">
<path d="M132.647 67.7048C135.476 78.8299 141.762 87.5035 150.381 92.2386L154.827 94.2518C156.078 94.701 157.347 95.0669 158.633 95.3449L158.709 95.3667L158.74 95.3664C164.02 96.488 169.554 96.1764 175.028 94.4194C176.802 93.8501 178.57 93.1296 180.321 92.2585C190.141 87.3706 198.245 78.3162 203.131 66.7628C207.041 57.5157 208.511 47.5588 207.452 38.0801C207.449 38.0415 207.448 38.0036 207.445 37.9649C206.859 30.6898 204.731 24.7486 201.739 19.9269C198.289 13.8767 193.512 9.13421 187.715 6.14935C185.825 5.1766 183.876 4.41656 181.885 3.86346C178.692 2.60194 175.694 1.82396 173.245 1.43074C171.188 1.10047 170.086 2.00528 169.369 3.09526C167.518 3.36015 165.661 3.78056 163.811 4.37427C162.039 4.94293 160.267 5.6658 158.518 6.53524C148.693 11.4246 140.594 20.4832 135.708 32.0366C130.822 43.5843 129.731 56.2551 132.647 67.7048L132.647 67.7048ZM137.13 32.7657C141.812 21.6984 149.57 13.0277 158.976 8.34374C160.651 7.51086 162.342 6.82217 164.04 6.27733C165.452 5.82422 166.868 5.47458 168.283 5.22101C168.076 5.62995 167.872 5.93202 167.615 6.00484C166.443 6.33672 158.087 9.3226 158.087 9.3226L150.58 90.0992C142.636 85.4918 136.839 77.332 134.198 66.9286C131.408 55.9657 132.448 43.8331 137.13 32.7657V32.7657Z" fill="url(#paint12_linear_428_9657)"/>
<path d="M144.855 90.7746C152.256 94.5848 160.575 95.1704 168.758 92.544C170.532 91.9747 172.301 91.2542 174.051 90.383C183.871 85.4952 191.976 76.4407 196.861 64.8874C201.747 53.334 202.834 40.6704 199.923 29.2192C197.011 17.7679 190.45 8.91012 181.445 4.27396C174.043 0.462583 165.724 -0.127048 157.541 2.49889C155.77 3.06752 153.997 3.7904 152.248 4.6598C142.423 9.54922 134.324 18.6078 129.439 30.1612C124.553 41.7089 123.461 54.3797 126.377 65.8294C129.288 77.275 135.85 86.1384 144.855 90.7746ZM188.454 34.9247C192.598 51.2132 184.625 70.0601 170.649 77.0127C169.446 77.6118 168.234 78.104 167.027 78.4915C154.22 82.6031 141.631 75.0039 137.845 60.1183C133.702 43.8298 141.675 24.9875 155.65 18.0304C156.854 17.4312 158.064 16.9393 159.271 16.552C172.078 12.4418 184.669 20.0432 188.454 34.9247H188.454Z" fill="url(#paint13_linear_428_9657)" stroke="url(#paint14_linear_428_9657)" stroke-width="1.17503" stroke-miterlimit="10"/>
<path d="M167.887 85.2765C169.356 84.8048 170.829 84.2064 172.295 83.4775C189.328 74.9976 199.049 52.0258 193.998 32.1683C189.382 14.0209 174.034 4.75756 158.42 9.76843C156.949 10.2406 155.472 10.8408 154.005 11.5712C136.972 20.0511 127.251 43.0228 132.302 62.8804C136.918 81.0249 152.27 90.289 167.887 85.2765" fill="url(#paint15_linear_428_9657)"/>
<path d="M167.887 85.2765C169.356 84.8048 170.829 84.2064 172.295 83.4775C189.328 74.9976 199.049 52.0258 193.998 32.1683C189.382 14.0209 174.034 4.75756 158.42 9.76843C156.949 10.2406 155.472 10.8408 154.005 11.5712C136.972 20.0511 127.251 43.0228 132.302 62.8804C136.918 81.025 152.27 90.289 167.887 85.2765" stroke="url(#paint16_linear_428_9657)" stroke-width="1.17503" stroke-miterlimit="10"/>
<path d="M144.921 52.2093L144.846 52.2273L145.393 59.999L141.788 60.8662L139.21 59.9926L142.815 59.1254L142.267 51.3536L142.342 51.3357L144.921 52.2093ZM149.273 51.8398L143.715 45.3977L141.137 44.5241L146.695 50.9662L149.273 51.8398ZM149.836 42.4314L150.874 57.1863L147.944 57.8913L150.522 58.7649L153.452 58.0599L152.414 43.305L149.836 42.4314V42.4314ZM160.769 52.747C159.756 52.4036 159.065 51.153 158.931 49.2421C158.751 46.6888 159.698 44.8057 161.294 44.422C161.692 44.3261 162.064 44.3398 162.401 44.454L159.823 43.5804C159.486 43.4662 159.114 43.4525 158.716 43.5484C157.12 43.9321 156.173 45.8152 156.353 48.3685C156.487 50.2794 157.177 51.53 158.191 51.8734L160.769 52.747H160.769ZM164.481 41.0154L161.903 40.1417C163.999 40.852 165.337 42.948 165.563 46.1528C165.894 50.8676 163.566 54.3916 159.547 55.3585C158.254 55.6695 157.095 55.643 156.107 55.3079L158.685 56.1815C159.674 56.5167 160.833 56.5431 162.125 56.2321C166.144 55.2652 168.473 51.7413 168.141 47.0264C167.915 43.8216 166.577 41.7256 164.481 41.0154ZM178.597 43.4194L176.019 42.5458L175.944 42.5638L175.254 47.157L173.129 38.3211L170.551 37.4475L172.706 46.41L175.237 47.2677L174.604 51.4773L170.995 52.3456L173.573 53.2192L177.182 52.3509L178.522 43.4374L178.597 43.4194V43.4194ZM179.594 36.7659L177.016 35.8923L179.611 44.7487L182.189 45.6224L179.594 36.7659V36.7659ZM184.467 34.0995L182.157 49.6602L178.548 50.5285L181.126 51.4021L184.735 50.5338L187.046 34.9731L184.467 34.0995Z" fill="#008266"/>
<path d="M146.77 50.9481L146.232 43.2986L149.836 42.4314L150.875 57.1863L147.945 57.8913L142.343 51.3357L142.268 51.3537L142.815 59.1253L139.211 59.9925L138.172 45.2376L141.138 44.5241L146.695 50.9662L146.77 50.9481ZM152.458 49.3057C152.79 54.0206 155.52 56.3275 159.548 55.3585C163.566 54.3916 165.895 50.8677 165.563 46.1528C165.231 41.4379 162.492 39.1229 158.473 40.0898C154.454 41.0566 152.126 44.5908 152.458 49.3057ZM159.304 51.905C157.7 52.2909 156.533 50.9167 156.353 48.3685C156.174 45.8152 157.121 43.9322 158.716 43.5484C160.311 43.1646 161.488 44.5367 161.668 47.09C161.847 49.6382 160.908 51.5191 159.304 51.905ZM179.682 44.7318L179.612 44.7488L177.016 35.8923L174.06 36.6037L172.777 46.3931L172.707 46.4101L170.552 37.4476L166.604 38.3975L170.996 52.3456L174.605 51.4774L175.945 42.5638L176.019 42.5458L178.549 50.5285L182.158 49.6603L184.468 34.0996L180.52 35.0495L179.682 44.7318H179.682Z" fill="url(#paint17_linear_428_9657)"/>
</g>
<g opacity="0.5">
<path d="M26.7311 152.61C27.3462 155.029 28.7128 156.915 30.5868 157.944L31.5534 158.382C31.8254 158.48 32.1014 158.559 32.3809 158.62L32.3974 158.624L32.4041 158.624C33.5521 158.868 34.7553 158.8 35.9455 158.418C36.3312 158.295 36.7156 158.138 37.0962 157.949C39.2313 156.886 40.9933 154.917 42.0555 152.405C42.9057 150.395 43.2253 148.23 42.9951 146.169L42.9935 146.144C42.8661 144.562 42.4035 143.271 41.7529 142.222C41.0029 140.907 39.9643 139.876 38.7038 139.227C38.293 139.015 37.8692 138.85 37.4363 138.73C36.7422 138.456 36.0903 138.287 35.5579 138.201C35.1107 138.129 34.8709 138.326 34.7152 138.563C34.3126 138.621 33.9089 138.712 33.5067 138.841C33.1215 138.965 32.7361 139.122 32.3559 139.311C30.2198 140.374 28.4589 142.343 27.3967 144.855C26.3344 147.366 26.097 150.121 26.7311 152.61H26.7311ZM27.7057 145.014C28.7237 142.608 30.4105 140.722 32.4556 139.704C32.8198 139.523 33.1874 139.373 33.5565 139.255C33.8635 139.156 34.1714 139.08 34.4789 139.025C34.4339 139.114 34.3897 139.18 34.3338 139.196C34.079 139.268 32.2622 139.917 32.2622 139.917L30.6301 157.479C28.9028 156.477 27.6426 154.703 27.0683 152.441C26.4617 150.058 26.6878 147.42 27.7057 145.014H27.7057Z" fill="url(#paint18_linear_428_9657)"/>
<path d="M29.3852 157.626C30.9943 158.454 32.803 158.582 34.5822 158.011C34.9679 157.887 35.3523 157.73 35.7329 157.541C37.868 156.478 39.63 154.51 40.6922 151.998C41.7544 149.486 41.9909 146.732 41.3579 144.243C40.7249 141.753 39.2984 139.827 37.3405 138.819C35.7311 137.991 33.9224 137.862 32.1434 138.433C31.7582 138.557 31.3728 138.714 30.9926 138.903C28.8565 139.966 27.0956 141.936 26.0334 144.448C24.9711 146.958 24.7338 149.713 25.3678 152.202C26.0006 154.691 27.4273 156.618 29.3852 157.626ZM38.8644 145.483C39.7652 149.025 38.0319 153.122 34.9933 154.634C34.7316 154.764 34.4682 154.871 34.2059 154.955C31.4213 155.849 28.6843 154.197 27.8611 150.961C26.9603 147.419 28.6937 143.323 31.7322 141.81C31.9939 141.68 32.257 141.573 32.5194 141.489C35.304 140.595 38.0414 142.248 38.8645 145.483H38.8644Z" fill="url(#paint19_linear_428_9657)" stroke="url(#paint20_linear_428_9657)" stroke-width="0.25547" stroke-miterlimit="10"/>
<path d="M34.3923 156.431C34.7118 156.328 35.0321 156.198 35.3506 156.039C39.0539 154.196 41.1674 149.201 40.0692 144.884C39.0656 140.938 35.7288 138.924 32.334 140.014C32.0141 140.117 31.6931 140.247 31.3741 140.406C27.6709 142.249 25.5574 147.244 26.6555 151.561C27.6591 155.506 30.997 157.52 34.3923 156.431Z" fill="url(#paint21_linear_428_9657)"/>
<path d="M34.3923 156.431C34.7118 156.328 35.0321 156.198 35.3506 156.039C39.0539 154.196 41.1674 149.201 40.0692 144.884C39.0656 140.938 35.7288 138.924 32.334 140.014C32.0141 140.117 31.6931 140.247 31.3741 140.406C27.6709 142.249 25.5574 147.244 26.6555 151.561C27.6591 155.506 30.997 157.52 34.3923 156.431" stroke="url(#paint22_linear_428_9657)" stroke-width="0.25547" stroke-miterlimit="10"/>
<path d="M29.3998 149.241L29.3835 149.245L29.5024 150.935L28.7187 151.123L28.1582 150.933L28.9419 150.745L28.8229 149.055L28.8392 149.051L29.3998 149.241ZM30.346 149.161L29.1377 147.76L28.5771 147.57L29.7855 148.971L30.346 149.161ZM30.4684 147.115L30.6942 150.323L30.0571 150.477L30.6176 150.667L31.2548 150.513L31.0289 147.305L30.4684 147.115ZM32.8455 149.358C32.6252 149.283 32.4751 149.012 32.4458 148.596C32.4067 148.041 32.6127 147.632 32.9596 147.548C33.0462 147.527 33.1271 147.53 33.2004 147.555L32.6399 147.365C32.5666 147.34 32.4857 147.337 32.399 147.358C32.0522 147.442 31.8462 147.851 31.8853 148.406C31.9146 148.822 32.0646 149.094 32.2849 149.168L32.8455 149.358V149.358ZM33.6525 146.807L33.092 146.618C33.5477 146.772 33.8386 147.228 33.8877 147.924C33.9598 148.949 33.4536 149.716 32.5798 149.926C32.2988 149.994 32.0468 149.988 31.8318 149.915L32.3923 150.105C32.6073 150.178 32.8593 150.183 33.1403 150.116C34.0141 149.906 34.5204 149.139 34.4482 148.114C34.3992 147.418 34.1082 146.962 33.6525 146.807V146.807ZM36.7216 147.33L36.1611 147.14L36.1448 147.144L35.9947 148.143L35.5328 146.222L34.9723 146.032L35.4408 147.98L35.9911 148.167L35.8535 149.082L35.0688 149.271L35.6294 149.461L36.414 149.272L36.7053 147.334L36.7216 147.33L36.7216 147.33ZM36.9384 145.884L36.3778 145.694L36.9421 147.619L37.5026 147.809L36.9384 145.884ZM37.9979 145.304L37.4956 148.687L36.711 148.876L37.2715 149.066L38.0562 148.877L38.5585 145.494L37.9979 145.304Z" fill="#008266"/>
<path d="M29.8011 148.967L29.684 147.304L30.4677 147.115L30.6935 150.323L30.0564 150.477L28.8385 149.051L28.8222 149.055L28.9412 150.745L28.1575 150.933L27.9316 147.725L28.5764 147.57L29.7848 148.971L29.8011 148.967L29.8011 148.967ZM31.0376 148.61C31.1098 149.635 31.7034 150.137 32.5791 149.926C33.4529 149.716 33.9591 148.949 33.887 147.924C33.8148 146.899 33.2191 146.396 32.3454 146.606C31.4716 146.816 30.9655 147.585 31.0376 148.61ZM32.5262 149.175C32.1775 149.259 31.9236 148.96 31.8846 148.406C31.8455 147.851 32.0515 147.442 32.3983 147.358C32.7451 147.275 33.0009 147.573 33.04 148.128C33.079 148.682 32.875 149.091 32.5262 149.175ZM36.9567 147.615L36.9414 147.619L36.3771 145.694L35.7342 145.848L35.4554 147.977L35.4401 147.98L34.9716 146.032L34.1132 146.238L35.0681 149.271L35.8528 149.082L36.1441 147.144L36.1604 147.14L36.7103 148.876L37.4949 148.687L37.9972 145.304L37.1388 145.51L36.9567 147.615H36.9567Z" fill="url(#paint23_linear_428_9657)"/>
</g>
<path d="M183.517 110.055C178.704 128.992 181.054 147.072 190.094 161.16L195.106 167.784C196.611 169.473 198.212 171.052 199.909 172.513L200.005 172.607L200.051 172.632C207.036 178.601 215.565 182.633 225.179 184.456C228.295 185.046 231.525 185.406 234.851 185.527C253.51 186.2 272.989 179.247 289.687 165.941C303.051 155.291 313.343 141.596 319.465 126.561C319.492 126.501 319.521 126.443 319.548 126.383C324.585 115.027 326.232 104.413 325.677 94.7697C325.436 82.9178 322.148 71.9428 315.904 62.7662C313.87 59.7758 311.572 57.0545 309.044 54.6088C305.295 50.1272 301.444 46.5266 298.102 43.9481C295.294 41.7822 292.91 42.2388 290.953 43.2867C287.968 42.1775 284.85 41.2969 281.601 40.681C278.489 40.091 275.251 39.7313 271.928 39.6099C253.261 38.9351 233.786 45.8982 217.089 59.2044C200.395 72.5013 188.463 90.5623 183.517 110.055H183.517ZM218.622 61.45C234.62 48.7054 253.27 42.0453 271.144 42.687C274.326 42.8031 277.414 43.1477 280.396 43.713C282.876 44.1831 285.278 44.8115 287.599 45.5821C286.957 46.0253 286.408 46.3117 285.964 46.2116C283.942 45.7554 269.019 43.4281 269.019 43.4281L192.131 158.122C183.996 144.774 181.961 127.86 186.467 110.155C191.206 91.4929 202.624 74.1946 218.622 61.45L218.622 61.45Z" fill="url(#paint24_linear_428_9657)"/>
<path d="M183.02 154.478C190.99 166.192 202.955 173.83 217.327 176.555C220.443 177.145 223.673 177.505 226.999 177.625C245.658 178.299 265.138 171.346 281.835 158.04C298.532 144.734 310.453 126.681 315.407 107.189C320.362 87.698 317.751 69.1184 308.052 54.8651C300.081 43.1483 288.12 35.5042 273.749 32.7799C270.637 32.1898 267.399 31.8302 264.077 31.7087C245.409 31.034 225.935 37.9971 209.237 51.3032C192.543 64.6002 180.611 82.6611 175.665 102.154C170.714 121.636 173.321 140.225 183.02 154.478V154.478ZM293.619 106.399C286.574 134.125 259.332 155.829 232.78 154.865C230.493 154.783 228.282 154.535 226.162 154.133C203.667 149.871 191.018 128.273 197.456 102.935C204.501 75.2089 231.74 53.5123 258.295 54.4688C260.582 54.5511 262.792 54.7992 264.911 55.2011C287.406 59.4655 300.054 81.0673 293.619 106.399Z" fill="url(#paint25_linear_428_9657)"/>
<path d="M261.589 33.6639C262.393 33.6639 263.205 33.6786 264.003 33.7074C267.21 33.8246 270.364 34.1737 273.376 34.7449C287.323 37.3888 298.742 44.7352 306.399 55.9902C315.769 69.7616 318.28 87.7694 313.469 106.697C308.622 125.763 296.945 143.441 280.588 156.476C265.056 168.854 246.907 175.67 229.484 175.67C228.681 175.67 227.869 175.655 227.071 175.627C223.873 175.511 220.72 175.162 217.7 174.59C203.747 171.945 192.327 164.601 184.673 153.353C175.304 139.583 172.793 121.575 177.603 102.646C182.441 83.5812 194.118 65.903 210.483 52.8673C226.023 40.4838 244.173 33.6639 261.589 33.6639M234.487 156.896C247.544 156.896 261.038 151.737 272.485 142.369C283.93 133.003 292.124 120.403 295.557 106.892C298.984 93.402 297.309 80.3823 290.841 70.2309C285.162 61.3196 276.086 55.284 265.284 53.2362C263.051 52.8127 260.724 52.5549 258.367 52.4701C257.778 52.4489 257.191 52.4384 256.599 52.4384C243.539 52.4388 230.042 57.5973 218.594 66.9632C207.147 76.3288 198.951 88.9289 195.518 102.443C192.09 115.935 193.764 128.956 200.233 139.107C205.91 148.017 214.987 154.051 225.79 156.098C228.025 156.521 230.353 156.779 232.707 156.864C233.302 156.886 233.892 156.896 234.487 156.896M261.589 31.6639C243.687 31.6639 225.195 38.5867 209.237 51.3032C192.543 64.6002 180.611 82.6611 175.665 102.154C170.714 121.636 173.321 140.225 183.02 154.478C190.99 166.192 202.955 173.83 217.327 176.555C220.443 177.145 223.673 177.505 226.999 177.625C227.825 177.655 228.655 177.67 229.484 177.67C247.379 177.67 265.876 170.757 281.835 158.04C298.532 144.734 310.453 126.681 315.407 107.189C320.362 87.698 317.751 69.1184 308.052 54.8651C300.081 43.1483 288.12 35.5043 273.749 32.7799C270.637 32.1898 267.399 31.8302 264.077 31.7087C263.249 31.6788 262.419 31.6639 261.589 31.6639ZM234.487 156.896C233.916 156.896 233.35 156.886 232.78 156.865C230.493 156.783 228.282 156.535 226.162 156.133C203.667 151.871 191.018 130.273 197.456 104.935C204.351 77.7994 230.591 56.4394 256.6 56.4384C257.166 56.4382 257.73 56.4484 258.295 56.4688C260.582 56.5512 262.792 56.7992 264.911 57.2012C287.406 61.4656 300.054 83.0673 293.619 108.399C286.726 135.53 260.488 156.896 234.487 156.896V156.896Z" fill="url(#paint26_linear_428_9657)"/>
<path d="M221.932 164.978C224.513 165.467 227.202 165.77 229.986 165.871C262.351 167.036 295.561 140.585 304.149 106.783C311.998 75.8927 296.577 49.5642 269.154 44.3654C266.569 43.8754 263.874 43.5728 261.086 43.4724C228.721 42.3078 195.511 68.7587 186.922 102.56C179.076 133.446 194.504 159.78 221.932 164.978Z" fill="url(#paint27_linear_428_9657)"/>
<path d="M221.932 164.978C224.513 165.467 227.202 165.77 229.986 165.871C262.351 167.036 295.561 140.585 304.149 106.783C311.998 75.8927 296.577 49.5642 269.154 44.3654C266.569 43.8754 263.874 43.5728 261.086 43.4724C228.721 42.3078 195.511 68.7587 186.922 102.56C179.076 133.446 194.504 159.78 221.932 164.978" stroke="url(#paint28_linear_428_9657)" stroke-width="2" stroke-miterlimit="10"/>
<path d="M221.932 164.978C224.513 165.467 227.202 165.77 229.986 165.871C262.351 167.036 295.561 140.585 304.149 106.783C311.998 75.8927 296.577 49.5642 269.154 44.3654C266.569 43.8754 263.874 43.5728 261.086 43.4724C228.721 42.3078 195.511 68.7587 186.922 102.56C179.076 133.446 194.504 159.78 221.932 164.978Z" fill="url(#paint29_linear_428_9657)"/>
<path d="M221.932 164.978C224.513 165.467 227.202 165.77 229.986 165.871C262.351 167.036 295.561 140.585 304.149 106.783C311.998 75.8927 296.577 49.5642 269.154 44.3654C266.569 43.8754 263.874 43.5728 261.086 43.4724C228.721 42.3078 195.511 68.7587 186.922 102.56C179.076 133.446 194.504 159.78 221.932 164.978" stroke="url(#paint30_linear_428_9657)" stroke-width="2" stroke-miterlimit="10"/>
<path d="M214.464 96.9365L214.338 96.9026L208.838 108.969L202.743 107.336L199.598 103.934L205.693 105.567L211.192 93.5004L211.319 93.5344L214.464 96.9365ZM221.273 99.9218L218.198 85.7704L215.053 82.3683L218.128 96.5197L221.273 99.9218ZM229.763 86.3097L219.322 109.219L214.367 107.891L217.512 111.293L222.467 112.621L232.908 89.7118L229.763 86.3097ZM237.727 110.623C236.491 109.286 236.475 106.855 237.828 103.888C239.634 99.9235 242.582 97.8776 245.279 98.6005C245.953 98.7809 246.499 99.104 246.91 99.549L243.765 96.1469C243.353 95.7019 242.808 95.3788 242.134 95.1984C239.437 94.4755 236.489 96.5214 234.682 100.486C233.33 103.453 233.346 105.884 234.582 107.221L237.727 110.623ZM252.815 96.097L249.67 92.6948C252.227 95.4608 252.524 99.6829 250.256 104.659C246.92 111.979 240.573 115.356 233.777 113.536C231.591 112.95 229.88 111.968 228.673 110.663L231.819 114.065C233.025 115.37 234.737 116.352 236.922 116.938C243.718 118.759 250.065 115.382 253.401 108.061C255.669 103.085 255.372 98.8629 252.815 96.097ZM271.97 111.167L268.825 107.765L268.698 107.731L263.932 114.038L267.938 99.098L264.793 95.6959L260.73 110.85L263.817 114.19L259.449 119.971L253.346 118.336L256.492 121.738L262.595 123.373L271.844 111.133L271.97 111.167ZM278.87 102.027L275.724 98.6251L272.406 113.979L275.552 117.381L278.87 102.027ZM288.325 102.001L272.221 123.393L266.118 121.758L269.264 125.16L275.367 126.796L291.47 105.403L288.325 102.001Z" fill="#747D7B"/>
<path d="M218.254 96.5536L223.667 84.6764L229.763 86.3096L219.322 109.219L214.367 107.891L211.319 93.5344L211.192 93.5005L205.693 105.567L199.598 103.934L210.038 81.0245L215.053 82.3682L218.128 96.5196L218.254 96.5536ZM228.095 98.7207C224.759 106.041 226.966 111.71 233.777 113.535C240.573 115.356 246.92 111.979 250.256 104.659C253.592 97.3382 251.377 91.6492 244.581 89.8282C237.785 88.0073 231.431 91.4001 228.095 98.7207ZM236.221 108.173C233.508 107.447 232.879 104.442 234.682 100.486C236.489 96.5214 239.437 94.4755 242.134 95.1983C244.831 95.9211 245.476 98.9293 243.669 102.894C241.866 106.85 238.933 108.9 236.221 108.173ZM272.525 114.011L272.406 113.979L275.724 98.625L270.724 97.2853L260.849 110.882L260.73 110.85L264.793 95.6959L258.116 93.9069L253.346 118.336L259.449 119.971L268.698 107.731L268.825 107.764L266.118 121.758L272.221 123.393L288.325 102.001L281.648 100.212L272.525 114.011H272.525Z" fill="url(#paint31_linear_428_9657)"/>
<g opacity="0.2">
<path d="M0.983315 122.416C0.564185 124.065 0.768805 125.64 1.55619 126.867L1.99269 127.444C2.12378 127.591 2.26321 127.729 2.41098 127.856L2.41934 127.864L2.42337 127.866C3.03168 128.386 3.77447 128.737 4.61185 128.896C4.88321 128.947 5.16452 128.979 5.45417 128.989C7.07923 129.048 8.77577 128.442 10.23 127.284C11.3939 126.356 12.2903 125.163 12.8235 123.854L12.8307 123.838C13.2694 122.849 13.4129 121.925 13.3645 121.085C13.3435 120.053 13.0572 119.097 12.5134 118.298C12.3362 118.037 12.1361 117.8 11.9159 117.587C11.5894 117.197 11.254 116.883 10.9629 116.659C10.7184 116.47 10.5107 116.51 10.3403 116.601C10.0803 116.505 9.80875 116.428 9.52575 116.374C9.25472 116.323 8.9727 116.292 8.68337 116.281C7.05758 116.222 5.36145 116.829 3.90723 117.987C2.45331 119.146 1.41409 120.719 0.983315 122.416V122.416ZM4.04072 118.183C5.43405 117.073 7.05834 116.493 8.61504 116.549C8.89217 116.559 9.16115 116.589 9.42083 116.638C9.63681 116.679 9.84601 116.734 10.0482 116.801C9.99228 116.84 9.9444 116.865 9.90576 116.856C9.72964 116.816 8.42993 116.613 8.42993 116.613L1.73356 126.603C1.02503 125.44 0.847795 123.967 1.24025 122.425C1.65303 120.8 2.6474 119.293 4.04072 118.183V118.183Z" fill="url(#paint32_linear_428_9657)"/>
<path d="M0.93979 126.285C1.63397 127.305 2.676 127.971 3.92775 128.208C4.19911 128.259 4.48043 128.291 4.77008 128.301C6.39512 128.36 8.09169 127.754 9.54591 126.595C11.0001 125.436 12.0383 123.864 12.4698 122.167C12.9013 120.469 12.6739 118.851 11.8293 117.61C11.135 116.589 10.0933 115.923 8.84165 115.686C8.57061 115.635 8.2886 115.603 7.99928 115.593C6.37349 115.534 4.67737 116.14 3.22313 117.299C1.76921 118.457 0.72999 120.03 0.29922 121.728C-0.13198 123.425 0.0951398 125.044 0.93979 126.285ZM10.5722 122.098C9.95868 124.513 7.58605 126.403 5.27357 126.319C5.0744 126.312 4.88179 126.29 4.69717 126.255C2.73801 125.884 1.63641 124.003 2.19711 121.796C2.81066 119.381 5.18303 117.492 7.49577 117.575C7.69494 117.582 7.88738 117.604 8.072 117.639C10.0311 118.01 11.1327 119.892 10.5722 122.098Z" fill="url(#paint33_linear_428_9657)"/>
<path d="M7.78242 115.763C7.85273 115.763 7.92304 115.764 7.99299 115.767C8.2718 115.777 8.54646 115.807 8.80915 115.857C10.0237 116.087 11.0183 116.727 11.6852 117.708C12.5013 118.907 12.72 120.475 12.301 122.124C11.8788 123.784 10.8619 125.324 9.43744 126.459C8.08453 127.537 6.50385 128.131 4.98639 128.131C4.91632 128.131 4.84613 128.13 4.77643 128.127C4.49713 128.117 4.2226 128.086 3.96027 128.037C2.74506 127.806 1.75031 127.167 1.08381 126.187C0.267768 124.988 0.0491378 123.419 0.468088 121.771C0.889478 120.11 1.90644 118.571 3.33162 117.436C4.68501 116.357 6.26558 115.763 7.78243 115.763M5.42208 126.496C7.78414 126.496 10.1206 124.583 10.741 122.141C11.0395 120.966 10.8936 119.832 10.3303 118.948C9.83577 118.172 9.04525 117.646 8.10445 117.468C7.91024 117.431 7.7076 117.408 7.50203 117.401C7.45076 117.399 7.39961 117.398 7.34822 117.398C4.98543 117.398 2.64864 119.311 2.02827 121.753C1.72969 122.928 1.87556 124.062 2.43891 124.946C2.93342 125.722 3.72394 126.248 4.66474 126.426C4.85908 126.463 5.06171 126.486 5.26716 126.493C5.3188 126.495 5.37043 126.496 5.42207 126.496M7.78242 115.589C6.22334 115.589 4.61274 116.192 3.22309 117.299C1.76923 118.457 0.730048 120.03 0.299258 121.728C-0.132012 123.425 0.0951578 125.044 0.939758 126.285C1.63397 127.305 2.67597 127.971 3.9278 128.208C4.19904 128.259 4.48041 128.291 4.77009 128.301C4.84199 128.304 4.91413 128.305 4.9864 128.305C6.54487 128.305 8.15596 127.703 9.54597 126.595C11.0002 125.436 12.0383 123.864 12.4698 122.167C12.9013 120.469 12.6739 118.851 11.8293 117.61C11.135 116.589 10.0932 115.923 8.84163 115.686C8.57063 115.635 8.28865 115.603 7.99934 115.593C7.9272 115.59 7.85481 115.589 7.78242 115.589V115.589ZM5.42207 126.496C5.37251 126.496 5.32307 126.495 5.27351 126.493C5.07441 126.486 4.88179 126.464 4.69722 126.429C2.73799 126.058 1.63643 124.177 2.1971 121.97C2.79756 119.607 5.08309 117.747 7.34822 117.747C7.39754 117.747 7.44649 117.747 7.4958 117.749C7.6949 117.756 7.8874 117.778 8.07197 117.813C10.0311 118.184 11.1328 120.066 10.5722 122.272C9.97187 124.635 7.68671 126.496 5.42206 126.496H5.42207Z" fill="url(#paint34_linear_428_9657)"/>
<path d="M4.32848 127.2C4.55324 127.242 4.78748 127.269 5.02992 127.277C7.84867 127.379 10.741 125.075 11.489 122.131C12.1726 119.441 10.8295 117.148 8.44114 116.695C8.21607 116.652 7.9813 116.626 7.73848 116.617C4.91973 116.516 2.02735 118.82 1.27937 121.763C0.59599 124.453 1.93967 126.747 4.32848 127.2Z" fill="url(#paint35_linear_428_9657)"/>
<path d="M4.32848 127.2C4.55324 127.242 4.78748 127.269 5.02992 127.277C7.84867 127.379 10.741 125.075 11.489 122.131C12.1726 119.441 10.8295 117.148 8.44114 116.695C8.21607 116.652 7.9813 116.626 7.73848 116.617C4.91973 116.516 2.02735 118.82 1.27937 121.763C0.59599 124.453 1.93967 126.747 4.32848 127.2" stroke="url(#paint36_linear_428_9657)" stroke-width="0.17419" stroke-miterlimit="10"/>
<path d="M4.32848 127.2C4.55324 127.242 4.78748 127.269 5.02992 127.277C7.84867 127.379 10.741 125.075 11.489 122.131C12.1726 119.441 10.8295 117.148 8.44114 116.695C8.21607 116.652 7.9813 116.626 7.73848 116.617C4.91973 116.516 2.02735 118.82 1.27937 121.763C0.59599 124.453 1.93967 126.747 4.32848 127.2Z" fill="url(#paint37_linear_428_9657)"/>
<path d="M4.32848 127.2C4.55324 127.242 4.78748 127.269 5.02992 127.277C7.84867 127.379 10.741 125.075 11.489 122.131C12.1726 119.441 10.8295 117.148 8.44114 116.695C8.21607 116.652 7.9813 116.626 7.73848 116.617C4.91973 116.516 2.02735 118.82 1.27937 121.763C0.59599 124.453 1.93967 126.747 4.32848 127.2" stroke="url(#paint38_linear_428_9657)" stroke-width="0.17419" stroke-miterlimit="10"/>
<path d="M3.67856 121.274L3.66753 121.271L3.18859 122.322L2.65772 122.179L2.38379 121.883L2.91466 122.025L3.3936 120.974L3.40464 120.977L3.67857 121.274H3.67856ZM4.27156 121.534L4.00378 120.301L3.72984 120.005L3.99762 121.237L4.27156 121.534ZM5.01095 120.348L4.10165 122.343L3.67008 122.228L3.94401 122.524L4.37558 122.64L5.28488 120.644L5.01095 120.348ZM5.70462 122.466C5.59695 122.349 5.59559 122.137 5.71335 121.879C5.8707 121.534 6.12741 121.356 6.36234 121.419C6.42102 121.434 6.46854 121.462 6.50436 121.501L6.23043 121.205C6.19461 121.166 6.14708 121.138 6.08841 121.122C5.85348 121.059 5.59677 121.238 5.43942 121.583C5.32166 121.841 5.32303 122.053 5.43069 122.169L5.70463 122.466H5.70462ZM7.01864 121.201L6.74471 120.904C6.96742 121.145 6.9933 121.513 6.7958 121.946C6.50524 122.584 5.95247 122.878 5.36059 122.719C5.17023 122.668 5.02116 122.583 4.91608 122.469L5.19002 122.765C5.29509 122.879 5.44417 122.965 5.63452 123.016C6.2264 123.174 6.77916 122.88 7.06973 122.243C7.26723 121.809 7.24135 121.441 7.01864 121.201ZM8.68695 122.513L8.41301 122.217L8.40198 122.214L7.98688 122.763L8.33576 121.462L8.06183 121.166L7.70795 122.485L7.97688 122.776L7.59644 123.28L7.06492 123.137L7.33885 123.434L7.87037 123.576L8.6759 122.51L8.68694 122.513H8.68695ZM9.28784 121.717L9.01391 121.421L8.72492 122.758L8.99885 123.054L9.28784 121.717ZM10.1113 121.715L8.70881 123.578L8.17729 123.435L8.45122 123.732L8.98274 123.874L10.3853 122.011L10.1113 121.715Z" fill="#747D7B"/>
<path d="M4.00867 121.24L4.48009 120.206L5.01096 120.348L4.10166 122.343L3.67008 122.228L3.40463 120.977L3.3936 120.974L2.91466 122.025L2.38379 121.883L3.29309 119.888L3.72986 120.005L3.99764 121.237L4.00867 121.24ZM4.86572 121.429C4.57516 122.067 4.76742 122.56 5.3606 122.719C5.95248 122.878 6.50525 122.584 6.79581 121.946C7.08637 121.309 6.89344 120.813 6.30156 120.655C5.70968 120.496 5.15628 120.791 4.86572 121.429V121.429ZM5.57342 122.252C5.33719 122.189 5.28238 121.927 5.43942 121.583C5.59677 121.238 5.85348 121.059 6.08841 121.122C6.32334 121.185 6.37945 121.447 6.2221 121.792C6.06506 122.137 5.80965 122.316 5.57342 122.252M8.7353 122.761L8.72492 122.758L9.01391 121.421L8.57844 121.304L7.71834 122.488L7.70796 122.485L8.06185 121.166L7.48036 121.01L7.06494 123.137L7.59646 123.28L8.402 122.214L8.41303 122.217L8.17731 123.435L8.70883 123.578L10.1114 121.715L9.52987 121.559L8.73532 122.761L8.7353 122.761Z" fill="url(#paint39_linear_428_9657)"/>
</g>
<defs>
<linearGradient id="paint0_linear_428_9657" x1="63.469" y1="68.6491" x2="53.0103" y2="107.126" gradientUnits="userSpaceOnUse">
<stop stop-color="#3C3C4D"/>
<stop offset="0.25413" stop-color="#47475B"/>
<stop offset="0.26552" stop-color="#49495E"/>
<stop offset="0.59975" stop-color="#2C2C38"/>
<stop offset="1" stop-color="#55556E"/>
</linearGradient>
<linearGradient id="paint1_linear_428_9657" x1="57.0924" y1="72.0741" x2="68.2479" y2="107.129" gradientUnits="userSpaceOnUse">
<stop stop-color="#3C3C4D"/>
<stop offset="0.25413" stop-color="#47475B"/>
<stop offset="0.26552" stop-color="#49495E"/>
<stop offset="0.59975" stop-color="#2C2C38"/>
<stop offset="1" stop-color="#55556E"/>
</linearGradient>
<linearGradient id="paint2_linear_428_9657" x1="68.4875" y1="68.954" x2="54.353" y2="102.392" gradientUnits="userSpaceOnUse">
<stop stop-color="#3C3C4D"/>
<stop offset="0.29526" stop-color="#707091"/>
<stop offset="0.59975" stop-color="#2C2C38"/>
<stop offset="1" stop-color="#55556E"/>
</linearGradient>
<linearGradient id="paint3_linear_428_9657" x1="52.9494" y1="74.4686" x2="69.8889" y2="96.8781" gradientUnits="userSpaceOnUse">
<stop stop-color="#3C3C4D"/>
<stop offset="0.25413" stop-color="#47475B"/>
<stop offset="0.26552" stop-color="#49495E"/>
<stop offset="0.59975" stop-color="#2C2C38"/>
<stop offset="1" stop-color="#55556E"/>
</linearGradient>
<linearGradient id="paint4_linear_428_9657" x1="52.8135" y1="74.2889" x2="70.0248" y2="97.0578" gradientUnits="userSpaceOnUse">
<stop stop-color="#3C3C4D"/>
<stop offset="0.29526" stop-color="#707091"/>
<stop offset="0.59975" stop-color="#2C2C38"/>
<stop offset="1" stop-color="#55556E"/>
</linearGradient>
<linearGradient id="paint5_linear_428_9657" x1="56.2865" y1="78.1512" x2="68.0132" y2="93.6646" gradientUnits="userSpaceOnUse">
<stop offset="0.10346" stop-color="#00D97B"/>
<stop offset="0.42374" stop-color="#00A65F"/>
<stop offset="0.50452" stop-color="#00B869"/>
<stop offset="0.61659" stop-color="#00CA73"/>
<stop offset="0.73404" stop-color="#00D579"/>
<stop offset="0.86464" stop-color="#00D97B"/>
</linearGradient>
<linearGradient id="paint6_linear_428_9657" x1="89.9923" y1="128.274" x2="144.95" y2="168.613" gradientUnits="userSpaceOnUse">
<stop stop-color="#00D97B"/>
<stop offset="0.13653" stop-color="#00A65F"/>
<stop offset="0.3706" stop-color="#00C26F"/>
<stop offset="0.53629" stop-color="#00A65F"/>
<stop offset="0.94587" stop-color="#00D97B"/>
</linearGradient>
<linearGradient id="paint7_linear_428_9657" x1="91.5364" y1="140.554" x2="154.321" y2="144.304" gradientUnits="userSpaceOnUse">
<stop stop-color="#00D97B"/>
<stop offset="0.13653" stop-color="#00A65F"/>
<stop offset="0.3706" stop-color="#00C26F"/>
<stop offset="0.53629" stop-color="#00A65F"/>
<stop offset="0.94587" stop-color="#00D97B"/>
</linearGradient>
<linearGradient id="paint8_linear_428_9657" x1="93.8404" y1="120.723" x2="137.945" y2="163.294" gradientUnits="userSpaceOnUse">
<stop stop-color="#00A65F"/>
<stop offset="0.31125" stop-color="#21ED96"/>
<stop offset="0.68702" stop-color="#00A65F"/>
<stop offset="1" stop-color="#21ED96"/>
</linearGradient>
<linearGradient id="paint9_linear_428_9657" x1="93.432" y1="148.457" x2="138.355" y2="135.563" gradientUnits="userSpaceOnUse">
<stop stop-color="#00A65F"/>
<stop offset="0.33591" stop-color="#00C26F"/>
<stop offset="0.43953" stop-color="#00B568"/>
<stop offset="0.59839" stop-color="#00A961"/>
<stop offset="0.75827" stop-color="#00A65F"/>
<stop offset="1" stop-color="#00D97B"/>
</linearGradient>
<linearGradient id="paint10_linear_428_9657" x1="93.0617" y1="148.563" x2="138.725" y2="135.457" gradientUnits="userSpaceOnUse">
<stop stop-color="#00A65F"/>
<stop offset="0.31125" stop-color="#21ED96"/>
<stop offset="0.68702" stop-color="#00A65F"/>
<stop offset="1" stop-color="#21ED96"/>
</linearGradient>
<linearGradient id="paint11_linear_428_9657" x1="100.739" y1="145.575" x2="132.696" y2="136.403" gradientUnits="userSpaceOnUse">
<stop stop-color="#D3D7E1"/>
<stop offset="0.4976" stop-color="#E6E9F5"/>
<stop offset="0.98587" stop-color="#D2D6E0"/>
</linearGradient>
<linearGradient id="paint12_linear_428_9657" x1="136.887" y1="35.0293" x2="212.651" y2="68.3902" gradientUnits="userSpaceOnUse">
<stop stop-color="#3C3C4D"/>
<stop offset="0.25413" stop-color="#47475B"/>
<stop offset="0.26552" stop-color="#49495E"/>
<stop offset="0.59975" stop-color="#2C2C38"/>
<stop offset="1" stop-color="#55556E"/>
</linearGradient>
<linearGradient id="paint13_linear_428_9657" x1="131.228" y1="40.5047" x2="206.075" y2="56.9614" gradientUnits="userSpaceOnUse">
<stop stop-color="#3C3C4D"/>
<stop offset="0.25413" stop-color="#47475B"/>
<stop offset="0.26552" stop-color="#49495E"/>
<stop offset="0.59975" stop-color="#2C2C38"/>
<stop offset="1" stop-color="#55556E"/>
</linearGradient>
<linearGradient id="paint14_linear_428_9657" x1="179.897" y1="2.83888" x2="146.403" y2="92.2091" gradientUnits="userSpaceOnUse">
<stop stop-color="#3C3C4D"/>
<stop offset="0.29526" stop-color="#707091"/>
<stop offset="0.59975" stop-color="#2C2C38"/>
<stop offset="1" stop-color="#55556E"/>
</linearGradient>
<linearGradient id="paint15_linear_428_9657" x1="194.46" y1="30.5052" x2="131.841" y2="64.5432" gradientUnits="userSpaceOnUse">
<stop stop-color="#3C3C4D"/>
<stop offset="0.25413" stop-color="#47475B"/>
<stop offset="0.26552" stop-color="#49495E"/>
<stop offset="0.59975" stop-color="#2C2C38"/>
<stop offset="1" stop-color="#55556E"/>
</linearGradient>
<linearGradient id="paint16_linear_428_9657" x1="194.976" y1="30.2246" x2="131.325" y2="64.8238" gradientUnits="userSpaceOnUse">
<stop stop-color="#3C3C4D"/>
<stop offset="0.29526" stop-color="#707091"/>
<stop offset="0.59975" stop-color="#2C2C38"/>
<stop offset="1" stop-color="#55556E"/>
</linearGradient>
<linearGradient id="paint17_linear_428_9657" x1="138.727" y1="59.1021" x2="184.526" y2="34.2067" gradientUnits="userSpaceOnUse">
<stop offset="0.10346" stop-color="#00D97B"/>
<stop offset="0.42374" stop-color="#00A65F"/>
<stop offset="0.50452" stop-color="#00B869"/>
<stop offset="0.61659" stop-color="#00CA73"/>
<stop offset="0.73404" stop-color="#00D579"/>
<stop offset="0.86464" stop-color="#00D97B"/>
</linearGradient>
<linearGradient id="paint18_linear_428_9657" x1="27.6531" y1="145.506" x2="44.1254" y2="152.759" gradientUnits="userSpaceOnUse">
<stop stop-color="#3C3C4D"/>
<stop offset="0.25413" stop-color="#47475B"/>
<stop offset="0.26552" stop-color="#49495E"/>
<stop offset="0.59975" stop-color="#2C2C38"/>
<stop offset="1" stop-color="#55556E"/>
</linearGradient>
<linearGradient id="paint19_linear_428_9657" x1="26.4224" y1="146.696" x2="42.6955" y2="150.274" gradientUnits="userSpaceOnUse">
<stop stop-color="#3C3C4D"/>
<stop offset="0.25413" stop-color="#47475B"/>
<stop offset="0.26552" stop-color="#49495E"/>
<stop offset="0.59975" stop-color="#2C2C38"/>
<stop offset="1" stop-color="#55556E"/>
</linearGradient>
<linearGradient id="paint20_linear_428_9657" x1="37.0039" y1="138.507" x2="29.7217" y2="157.938" gradientUnits="userSpaceOnUse">
<stop stop-color="#3C3C4D"/>
<stop offset="0.29526" stop-color="#707091"/>
<stop offset="0.59975" stop-color="#2C2C38"/>
<stop offset="1" stop-color="#55556E"/>
</linearGradient>
<linearGradient id="paint21_linear_428_9657" x1="40.1697" y1="144.522" x2="26.5553" y2="151.923" gradientUnits="userSpaceOnUse">
<stop stop-color="#3C3C4D"/>
<stop offset="0.25413" stop-color="#47475B"/>
<stop offset="0.26552" stop-color="#49495E"/>
<stop offset="0.59975" stop-color="#2C2C38"/>
<stop offset="1" stop-color="#55556E"/>
</linearGradient>
<linearGradient id="paint22_linear_428_9657" x1="40.282" y1="144.461" x2="26.443" y2="151.984" gradientUnits="userSpaceOnUse">
<stop stop-color="#3C3C4D"/>
<stop offset="0.29526" stop-color="#707091"/>
<stop offset="0.59975" stop-color="#2C2C38"/>
<stop offset="1" stop-color="#55556E"/>
</linearGradient>
<linearGradient id="paint23_linear_428_9657" x1="28.0522" y1="150.74" x2="38.0099" y2="145.327" gradientUnits="userSpaceOnUse">
<stop offset="0.10346" stop-color="#00D97B"/>
<stop offset="0.42374" stop-color="#00A65F"/>
<stop offset="0.50452" stop-color="#00B869"/>
<stop offset="0.61659" stop-color="#00CA73"/>
<stop offset="0.73404" stop-color="#00D579"/>
<stop offset="0.86464" stop-color="#00D97B"/>
</linearGradient>
<linearGradient id="paint24_linear_428_9657" x1="300.322" y1="51.8559" x2="192.092" y2="191.852" gradientUnits="userSpaceOnUse">
<stop stop-color="#00D97B"/>
<stop offset="0.13653" stop-color="#00A65F"/>
<stop offset="0.3706" stop-color="#00C26F"/>
<stop offset="0.53629" stop-color="#00A65F"/>
<stop offset="0.94587" stop-color="#00D97B"/>
</linearGradient>
<linearGradient id="paint25_linear_428_9657" x1="298.142" y1="59.0576" x2="174.795" y2="166.008" gradientUnits="userSpaceOnUse">
<stop stop-color="#00D97B"/>
<stop offset="0.13653" stop-color="#00A65F"/>
<stop offset="0.3706" stop-color="#00C26F"/>
<stop offset="0.53629" stop-color="#00A65F"/>
<stop offset="0.94587" stop-color="#00D97B"/>
</linearGradient>
<linearGradient id="paint26_linear_428_9657" x1="306.148" y1="52.1158" x2="184.924" y2="157.226" gradientUnits="userSpaceOnUse">
<stop stop-color="#00A65F"/>
<stop offset="0.31125" stop-color="#21ED96"/>
<stop offset="0.68702" stop-color="#00A65F"/>
<stop offset="1" stop-color="#21ED96"/>
</linearGradient>
<linearGradient id="paint27_linear_428_9657" x1="306.193" y1="104.672" x2="184.881" y2="104.672" gradientUnits="userSpaceOnUse">
<stop stop-color="#00A65F"/>
<stop offset="0.33591" stop-color="#00C26F"/>
<stop offset="0.43953" stop-color="#00B568"/>
<stop offset="0.59839" stop-color="#00A961"/>
<stop offset="0.75827" stop-color="#00A65F"/>
<stop offset="1" stop-color="#00D97B"/>
</linearGradient>
<linearGradient id="paint28_linear_428_9657" x1="307.193" y1="104.672" x2="183.881" y2="104.672" gradientUnits="userSpaceOnUse">
<stop stop-color="#00A65F"/>
<stop offset="0.31125" stop-color="#21ED96"/>
<stop offset="0.68702" stop-color="#00A65F"/>
<stop offset="1" stop-color="#21ED96"/>
</linearGradient>
<linearGradient id="paint29_linear_428_9657" x1="306.193" y1="104.672" x2="184.881" y2="104.672" gradientUnits="userSpaceOnUse">
<stop stop-color="#00A65F"/>
<stop offset="0.33591" stop-color="#00C26F"/>
<stop offset="0.43953" stop-color="#00B568"/>
<stop offset="0.59839" stop-color="#00A961"/>
<stop offset="0.75827" stop-color="#00A65F"/>
<stop offset="1" stop-color="#00D97B"/>
</linearGradient>
<linearGradient id="paint30_linear_428_9657" x1="307.193" y1="104.672" x2="183.881" y2="104.672" gradientUnits="userSpaceOnUse">
<stop stop-color="#00A65F"/>
<stop offset="0.31125" stop-color="#21ED96"/>
<stop offset="0.68702" stop-color="#00A65F"/>
<stop offset="1" stop-color="#21ED96"/>
</linearGradient>
<linearGradient id="paint31_linear_428_9657" x1="199.598" y1="102.209" x2="288.325" y2="102.209" gradientUnits="userSpaceOnUse">
<stop stop-color="#D3D7E1"/>
<stop offset="0.4976" stop-color="#E6E9F5"/>
<stop offset="0.98587" stop-color="#D2D6E0"/>
</linearGradient>
<linearGradient id="paint32_linear_428_9657" x1="11.1563" y1="117.347" x2="1.73016" y2="129.54" gradientUnits="userSpaceOnUse">
<stop stop-color="#00D97B"/>
<stop offset="0.13653" stop-color="#00A65F"/>
<stop offset="0.3706" stop-color="#00C26F"/>
<stop offset="0.53629" stop-color="#00A65F"/>
<stop offset="0.94587" stop-color="#00D97B"/>
</linearGradient>
<linearGradient id="paint33_linear_428_9657" x1="2.72383" y1="118.773" x2="11.3071" y2="126.215" gradientUnits="userSpaceOnUse">
<stop stop-color="#00D97B"/>
<stop offset="0.13653" stop-color="#00A65F"/>
<stop offset="0.3706" stop-color="#00C26F"/>
<stop offset="0.53629" stop-color="#00A65F"/>
<stop offset="0.94587" stop-color="#00D97B"/>
</linearGradient>
<linearGradient id="paint34_linear_428_9657" x1="11.6635" y1="117.37" x2="1.10563" y2="126.524" gradientUnits="userSpaceOnUse">
<stop stop-color="#00A65F"/>
<stop offset="0.31125" stop-color="#21ED96"/>
<stop offset="0.68702" stop-color="#00A65F"/>
<stop offset="1" stop-color="#21ED96"/>
</linearGradient>
<linearGradient id="paint35_linear_428_9657" x1="11.667" y1="121.947" x2="1.10157" y2="121.947" gradientUnits="userSpaceOnUse">
<stop stop-color="#00A65F"/>
<stop offset="0.33591" stop-color="#00C26F"/>
<stop offset="0.43953" stop-color="#00B568"/>
<stop offset="0.59839" stop-color="#00A961"/>
<stop offset="0.75827" stop-color="#00A65F"/>
<stop offset="1" stop-color="#00D97B"/>
</linearGradient>
<linearGradient id="paint36_linear_428_9657" x1="11.7541" y1="121.947" x2="1.01447" y2="121.947" gradientUnits="userSpaceOnUse">
<stop stop-color="#00A65F"/>
<stop offset="0.31125" stop-color="#21ED96"/>
<stop offset="0.68702" stop-color="#00A65F"/>
<stop offset="1" stop-color="#21ED96"/>
</linearGradient>
<linearGradient id="paint37_linear_428_9657" x1="11.667" y1="121.947" x2="1.10157" y2="121.947" gradientUnits="userSpaceOnUse">
<stop stop-color="#00A65F"/>
<stop offset="0.33591" stop-color="#00C26F"/>
<stop offset="0.43953" stop-color="#00B568"/>
<stop offset="0.59839" stop-color="#00A961"/>
<stop offset="0.75827" stop-color="#00A65F"/>
<stop offset="1" stop-color="#00D97B"/>
</linearGradient>
<linearGradient id="paint38_linear_428_9657" x1="11.7541" y1="121.947" x2="1.01447" y2="121.947" gradientUnits="userSpaceOnUse">
<stop stop-color="#00A65F"/>
<stop offset="0.31125" stop-color="#21ED96"/>
<stop offset="0.68702" stop-color="#00A65F"/>
<stop offset="1" stop-color="#21ED96"/>
</linearGradient>
<linearGradient id="paint39_linear_428_9657" x1="2.38379" y1="121.733" x2="10.1113" y2="121.733" gradientUnits="userSpaceOnUse">
<stop stop-color="#D3D7E1"/>
<stop offset="0.4976" stop-color="#E6E9F5"/>
<stop offset="0.98587" stop-color="#D2D6E0"/>
</linearGradient>
</defs>
</svg>
