<svg width="50" height="50" viewBox="0 0 50 50" fill="none" xmlns="http://www.w3.org/2000/svg">
<g clip-path="url(#clip0)">
<circle cx="25" cy="25" r="25" fill="url(#paint0_linear)"/>
<path d="M23.9529 49.9174C24.088 49.9174 24.2231 49.9174 24.3657 49.9249C24.2231 49.9775 24.088 49.985 23.9529 49.9174Z" fill="#1B9DCA"/>
<path d="M23.4349 16.2738C24.058 15.6959 24.6585 15.0953 25.2365 14.4723C26.0847 13.6691 26.9104 12.8434 27.7136 11.9952C28.5243 11.192 29.3424 10.3888 30.1531 9.57815C30.9863 8.75245 31.8045 7.91924 32.6377 7.09354C32.7353 7.00346 32.8029 6.86835 32.9605 6.85333C33.8913 7.79163 34.8221 8.73744 35.7679 9.66823C35.9556 9.85589 35.9481 9.95347 35.7679 10.1336C34.8221 11.0644 33.8988 12.0102 32.968 12.9485C32.923 13.0836 32.8479 13.1962 32.7503 13.2938C31.4968 14.5474 30.2507 15.8009 28.9746 17.062C29.7703 17.8577 30.566 18.6534 31.3692 19.4566C31.8045 19.8919 32.2324 20.3198 32.6678 20.7552C32.7954 20.8828 32.908 21.0029 32.9755 21.1755C33.9063 22.1138 34.8296 23.0596 35.7679 23.9829C35.9556 24.1706 35.9481 24.2606 35.7679 24.4408C35.0323 25.1614 34.3117 25.9045 33.5835 26.6402C33.561 26.6552 33.5385 26.6627 33.5235 26.6777C33.3058 26.8503 33.1407 27.2407 32.9005 27.1956C32.6377 27.1506 32.4276 26.8353 32.2024 26.6327C32.1048 26.5426 32.0147 26.4375 31.9246 26.3399C31.5043 25.8145 31.0014 25.3641 30.5134 24.8987C30.3333 24.8762 30.2432 24.726 30.1306 24.6209C29.1097 23.6076 28.1039 22.5942 27.083 21.5809C26.0021 20.4849 24.9062 19.404 23.8253 18.3156C23.7127 18.203 23.5851 18.0979 23.525 17.9403C23.3899 17.7826 23.2548 17.6175 23.1046 17.4674C22.6918 17.047 22.6843 17.047 23.1197 16.6191C23.2172 16.514 23.3223 16.3939 23.4349 16.2738Z" fill="#FEFEFE"/>
<path d="M20.8002 39.4085C20.1997 40.009 19.6067 40.6095 19.0062 41.21C18.4357 41.7655 17.8577 42.3135 17.3097 42.884C17.0921 43.1167 16.9644 43.0941 16.7618 42.8765C16.4015 42.4861 16.0036 42.1258 15.6208 41.7505C15.1404 41.2626 14.6675 40.7597 14.1721 40.2868C13.9769 40.0991 13.9994 40.0015 14.1796 39.8214C14.675 39.3485 15.1404 38.8455 15.6208 38.3576C15.6884 38.1775 15.8235 38.0499 15.9586 37.9147C16.9795 36.8939 18.0078 35.873 19.0212 34.8446C19.6818 34.2066 20.3198 33.5385 20.9804 32.9005C20.3123 32.2624 19.6742 31.6019 19.0212 30.9563C17.9928 29.9204 16.9569 28.8921 15.9286 27.8562C15.8085 27.7361 15.6583 27.631 15.6283 27.4358C15.1854 26.9855 14.7426 26.5276 14.2997 26.0772C13.9619 25.7394 13.9619 25.7394 14.3147 25.3866C14.7501 24.9437 15.1854 24.5008 15.6208 24.058C16.0036 23.6826 16.4015 23.3298 16.7618 22.932C16.9945 22.6693 17.1221 22.7218 17.3398 22.947C17.9027 23.54 18.4957 24.103 19.0812 24.681C19.2614 24.7335 19.3665 24.8762 19.4941 24.9963C20.4999 26.0021 21.5058 27.008 22.5117 28.0063C23.2923 28.802 24.0955 29.5827 24.8762 30.3783C24.9888 30.4909 25.1314 30.581 25.1614 30.7537C25.7995 31.3992 26.4375 32.0523 27.083 32.6903C27.2482 32.8554 27.2482 32.938 27.083 33.0956C26.43 33.7337 25.7995 34.3867 25.1614 35.0323C24.5234 35.5953 23.9529 36.2258 23.3599 36.8338C22.5042 37.7046 21.6559 38.5528 20.8002 39.4085Z" fill="#FEFEFE"/>
<path d="M19.1563 20.5525C19.7568 20.0045 20.3273 19.4265 20.8827 18.826C21.4232 18.3681 21.4157 18.3681 21.9411 18.8861C22.4065 19.3515 22.8794 19.8093 23.3523 20.2747C23.5325 20.3123 23.6451 20.4624 23.7652 20.5825C24.8236 21.6409 25.8745 22.6993 26.9404 23.7502C27.9462 24.7711 28.9671 25.7769 29.9805 26.7978C30.0931 26.9104 30.2357 27.0005 30.2582 27.1806C30.6485 27.5784 31.0314 27.9913 31.4367 28.3816C31.5793 28.5242 31.6094 28.5993 31.4517 28.7569C30.5434 29.6502 29.6427 30.551 28.7569 31.4517C28.5993 31.6094 28.5092 31.5944 28.3741 31.4442C28.2015 31.2491 27.9988 31.0839 27.8111 30.9038C26.9854 30.033 26.1297 29.1773 25.2589 28.3516C25.0713 28.3441 24.9812 28.194 24.8761 28.0814C24.1105 27.3232 23.3448 26.5501 22.5792 25.7919C21.5583 24.7636 20.5299 23.7427 19.5091 22.7218C19.3739 22.5867 19.2388 22.4591 19.1863 22.2714C18.9761 22.0537 18.7809 21.8286 18.5632 21.6259C18.3906 21.4682 18.3531 21.3632 18.5482 21.1905C18.7509 20.9953 18.9461 20.7626 19.1563 20.5525Z" fill="#FEFEFE"/>
</g>
<defs>
<linearGradient id="paint0_linear" x1="5.5" y1="18" x2="43.5" y2="33.5" gradientUnits="userSpaceOnUse">
<stop stop-color="#0DACC8"/>
<stop offset="1" stop-color="#1C91CB"/>
</linearGradient>
<clipPath id="clip0">
<rect width="49.9625" height="50" fill="white"/>
</clipPath>
</defs>
</svg>
