<svg width="55" height="55" viewBox="0 0 55 55" fill="none" xmlns="http://www.w3.org/2000/svg">
<path d="M27.5 55C42.6878 55 55 42.6878 55 27.5C55 12.3122 42.6878 0 27.5 0C12.3122 0 0 12.3122 0 27.5C0 42.6878 12.3122 55 27.5 55Z" fill="#6916FF"/>
<path d="M29.3906 11C29.2187 10.8281 29.2187 10.6563 29.3906 10.4844C29.5625 10.3125 29.7344 10.3125 29.9062 10.4844C31.1094 11 32.1406 11.6875 33.1719 12.7188C33.6875 13.2344 34.2031 13.75 34.5469 14.4375C34.8906 15.125 35.2344 15.8125 35.4062 16.5C35.5781 17.1875 35.75 17.875 35.75 18.7344C35.5781 19.4219 35.5781 23.0312 33.5156 24.75C33 25.0938 32.3125 24.9219 31.9687 24.4063C31.625 24.0625 31.625 23.5469 31.7969 23.2031C33.5156 20.4531 33.6875 17.0156 31.9687 14.0937C31.1094 12.7187 30.25 11.8594 29.3906 11ZM26.2969 42.9688C26.4687 43.1406 26.4687 43.3125 26.4687 43.4844C26.4687 43.6562 26.125 43.6562 25.9531 43.6562C24.75 43.1406 23.7187 42.4531 22.6875 41.4219C22.1719 40.9063 21.6562 40.3906 21.3125 39.7031C20.9687 39.0156 20.625 38.3281 20.4531 37.6406C20.2812 36.9531 20.1094 36.2656 20.1094 35.4063C20.2812 34.7188 20.2813 31.1094 22.3437 29.3906C22.8594 29.0469 23.5469 29.2187 23.8906 29.7344C24.2344 30.0781 24.2344 30.5938 23.8906 30.9375C22.1719 33.6875 22 37.125 23.7187 40.0469C24.5781 41.25 25.4375 42.1094 26.2969 42.9688Z" fill="white" fill-opacity="0.5"/>
<path d="M35.5781 34.375C35.4063 32.3125 34.5469 30.4219 33.3438 28.875C31.9687 27.5 30.4219 26.4687 28.875 25.6094C27.5 24.75 26.125 23.8906 24.75 22.8594C23.7187 21.8281 23.0312 20.625 22.6875 19.25C22.5156 17.875 22.6875 16.3281 23.2031 14.9531C23.8906 13.4062 24.9219 12.2031 26.2969 11.1719C26.4688 11 26.4687 10.8281 26.4687 10.6562C26.2969 10.3125 25.9531 10.3125 25.7813 10.3125C24.0625 11 22.6875 12.375 21.6563 13.9219C20.4531 15.6406 19.9375 17.5312 20.1094 19.5937C20.1094 20.625 20.4531 21.6563 20.7969 22.5156C21.3125 23.375 21.8281 24.2344 22.5156 25.0938C23.8906 26.4688 25.4375 27.5 27.1563 28.3594C28.5313 29.0469 29.9063 30.0781 31.2813 31.1094C32.3125 32.1406 33.1719 33.3437 33.3438 34.8906C33.6875 36.4375 33.5156 37.9844 32.8281 39.3594C32.1406 40.9062 31.1094 42.1094 29.7344 43.1406C29.5625 43.3125 29.5625 43.4844 29.5625 43.6562C29.5625 43.8281 29.7344 43.8281 29.9062 43.8281C30.0781 43.8281 30.0781 43.8281 30.25 43.6562C31.7969 42.7969 33.1719 41.4219 34.375 40.0469C35.2344 38.3281 35.75 36.2656 35.5781 34.375Z" fill="white"/>
</svg>
