<svg width="60" height="60" viewBox="0 0 60 60" fill="none" xmlns="http://www.w3.org/2000/svg">
<g clip-path="url(#clip0)">
<path d="M30 60C46.5685 60 60 46.5685 60 30C60 13.4315 46.5685 0 30 0C13.4315 0 0 13.4315 0 30C0 46.5685 13.4315 60 30 60Z" fill="url(#paint0_linear)"/>
<path d="M30 49.0384C29.0385 49.0384 28.1731 48.75 27.3077 48.3653L15.3846 41.4423C13.75 40.4807 12.6923 38.75 12.6923 36.8269V23.0769C12.6923 21.1538 13.75 19.423 15.3846 18.4615L27.3077 11.5384C28.9423 10.5769 30.9615 10.5769 32.6923 11.5384L44.6154 18.3653C46.25 19.3269 47.3077 21.0576 47.3077 22.9807V36.7307C47.3077 38.6538 46.25 40.3846 44.6154 41.3461L32.6923 48.3653C31.8269 48.8461 30.9615 49.0384 30 49.0384ZM30 12.6923C29.4231 12.6923 28.75 12.8846 28.2692 13.173L16.3462 20.0961C15.2885 20.7692 14.6154 21.923 14.6154 23.173V36.923C14.6154 38.173 15.2885 39.3269 16.3462 40L28.2692 46.8269C29.3269 47.4038 30.6731 47.4038 31.7308 46.8269L43.6538 40C44.7115 39.3269 45.3846 38.173 45.3846 36.923V23.0769C45.3846 21.8269 44.7115 20.673 43.6538 20L31.7308 13.173C31.1538 12.8846 30.5769 12.6923 30 12.6923ZM30 42.7884C29.5192 42.7884 29.0385 42.6923 28.5577 42.4038L19.9038 37.4038C19.0385 36.923 18.4615 35.9615 18.4615 34.9038V25C18.4615 23.9423 19.0385 22.9807 19.9038 22.5L28.5577 17.5C29.4231 17.0192 30.5769 17.0192 31.4423 17.5L40.0962 22.5C40.9615 22.9807 41.5385 23.9423 41.5385 25V35C41.5385 36.0576 40.9615 37.0192 40.0962 37.5L31.4423 42.5C30.9615 42.6923 30.4808 42.8846 30 42.7884ZM30 18.4615C29.7115 18.4615 29.5192 18.5576 29.2308 18.6538L20.5769 23.6538C20.0962 23.9423 19.8077 24.423 19.8077 24.9038V34.9038C19.8077 35.4807 20.0962 35.9615 20.5769 36.1538L29.2308 41.1538C29.7115 41.4423 30.2885 41.4423 30.7692 41.1538L39.4231 36.1538C39.9038 35.8653 40.1923 35.3846 40.1923 34.9038V25C40.1923 24.423 39.9038 23.9423 39.4231 23.6538L30.7692 18.6538C30.4808 18.5576 30.2885 18.4615 30 18.4615ZM30 36.5384C29.7115 36.5384 29.5192 36.4423 29.3269 36.3461L24.9038 33.8461C24.4231 33.5576 24.1346 33.0769 24.1346 32.5961V27.5C24.1346 26.923 24.4231 26.4423 24.9038 26.25L29.3269 23.75C29.8077 23.4615 30.3846 23.4615 30.7692 23.75L35.1923 26.25C35.6731 26.5384 35.9615 27.0192 35.9615 27.5V32.5961C35.9615 33.173 35.6731 33.6538 35.1923 33.8461L30.7692 36.3461C30.4808 36.4423 30.2885 36.5384 30 36.5384ZM30 24.3269C29.9038 24.3269 29.8077 24.3269 29.7115 24.423L25.2885 26.923C25.0962 27.0192 25 27.2115 25 27.4038V32.5C25 32.6923 25.0962 32.8846 25.2885 32.9807L29.7115 35.4807C29.9038 35.5769 30.0962 35.5769 30.2885 35.4807L34.7115 32.9807C34.9038 32.8846 35 32.6923 35 32.5V27.4038C35 27.2115 34.9038 27.0192 34.7115 26.923L30.2885 24.423C30.1923 24.423 30.0962 24.3269 30 24.3269Z" fill="white"/>
</g>
<defs>
<linearGradient id="paint0_linear" x1="0" y1="29.9722" x2="59.9445" y2="29.9722" gradientUnits="userSpaceOnUse">
<stop stop-color="#E168FD"/>
<stop offset="1" stop-color="#7B00FC"/>
</linearGradient>
<clipPath id="clip0">
<rect width="59.952" height="60" fill="white"/>
</clipPath>
</defs>
</svg>
