<svg width="50" height="50" viewBox="0 0 50 50" fill="none" xmlns="http://www.w3.org/2000/svg">
<path d="M25 50C38.8071 50 50 38.8071 50 25C50 11.1929 38.8071 0 25 0C11.1929 0 0 11.1929 0 25C0 38.8071 11.1929 50 25 50Z" fill="#5169FF"/>
<path d="M25.5904 12.9352L28.792 14.8501V20.4057L31.9709 22.1692V12.9352L25.5904 9.40054L15.3194 15.3043V35.5434L25.5904 41.4472L35.604 35.5888V25.3103L25.6131 19.4974L22.5855 21.1626L32.4251 26.8619L32.478 33.7723L25.4617 37.7611L18.4983 33.7723L18.5513 16.9694L25.5904 12.9352Z" fill="white"/>
<path d="M22.6007 22.0179V30.2301L29.8668 26.1202L27.4069 24.667L25.212 25.8401V23.4938L22.6007 22.0179Z" fill="white"/>
</svg>
