<svg width="24" height="27" viewBox="0 0 24 27" fill="none" xmlns="http://www.w3.org/2000/svg">
<path d="M2.6203 13.5012L2.6286 18.7261L7.12576 21.3373V24.3863L0 20.2617V11.9771L2.6203 13.502V13.5012ZM2.6203 8.27389V11.3229L0 9.79716V6.74897L2.6203 5.22734L5.24143 6.74897L2.6203 8.27389ZM8.99183 6.74897L11.6146 5.22734L14.2333 6.74897L11.6121 8.27389L8.99183 6.74897ZM4.50463 17.6365V14.5883L7.12576 16.1124V19.1614L4.50463 17.6365ZM8.99183 22.4269L11.6121 23.9518L14.2333 22.4269V25.4751L11.6121 27L8.99183 25.4751V22.4269ZM17.9886 6.74897L20.6089 5.22734L23.2301 6.74897V9.7988L20.6089 11.3229V8.27307L17.9886 6.74979V6.74897ZM20.6089 18.7269L20.6123 13.5012L23.2326 11.9763V20.2617L16.1118 24.3863V21.3373L20.6089 18.7261V18.7269ZM18.7354 17.6365L16.1151 19.1614V16.1116L18.7354 14.5883V17.6374V17.6365ZM18.7354 9.36347L18.7404 12.4125L14.2432 15.0229V20.2617L11.6229 21.7858L9.00179 20.2609V15.0229L4.50546 12.4125V9.36265L7.12659 7.83855L11.6154 10.4522L16.1159 7.83855L18.7362 9.36347H18.7354ZM4.50546 4.13858L11.6138 0L18.7346 4.13858L16.1143 5.66268L11.6138 3.04901L7.12493 5.66268L4.5038 4.13776L4.50546 4.13858Z" fill="#F0B90B"/>
</svg>
