<svg width="50" height="50" viewBox="0 0 50 50" fill="none" xmlns="http://www.w3.org/2000/svg">
<path d="M25 50C38.8071 50 50 38.8071 50 25C50 11.1929 38.8071 0 25 0C11.1929 0 0 11.1929 0 25C0 38.8071 11.1929 50 25 50Z" fill="#18578C"/>
<path d="M18.125 31.7187C19.2188 32.8125 19.2188 34.5313 18.125 35.4688C17.0313 36.4063 15.4687 36.5625 14.375 35.4688C13.9062 35 13.5937 34.2188 13.5937 33.5938C13.5937 32.8125 13.9062 32.1875 14.375 31.7187C15.4687 30.7812 17.0313 30.7812 18.125 31.7187ZM35.4688 13.5937C36.4063 14.0625 37.1875 15 37.0313 16.0938C37.0313 17.1875 36.4063 18.125 35.4688 18.5937C34.5313 19.0625 33.2812 18.75 32.5 17.9688C32.0312 17.5 31.7187 16.7188 31.7187 16.0938C31.7187 15.3125 32.0312 14.6875 32.5 14.2188C33.2812 13.4375 34.5313 13.2812 35.4688 13.5937ZM17.8125 29.6875L20.3125 27.0312C20.7812 28.2812 21.875 29.375 23.125 29.8438L20.625 32.5L17.8125 29.6875ZM32.9688 20.1562L30.4688 22.8125C30.1562 22.1875 29.8437 21.5625 29.375 21.0938C28.9062 20.625 28.2813 20.1562 27.6563 20L30.1562 17.3438L32.9688 20.1562ZM31.875 32.5C32.3438 31.5625 33.2812 30.7813 34.375 30.7813C35.4688 30.7813 36.4062 31.4062 36.875 32.5C37.3438 33.4375 37.0313 34.6875 36.25 35.4688C35.7813 35.9375 35.1562 36.25 34.375 36.25C33.5938 36.25 32.9687 35.9375 32.5 35.4688C31.7187 34.6875 31.5625 33.5937 31.875 32.5ZM14.0625 14.8438C14.5312 13.9062 15.4688 13.125 16.5625 13.125C17.6563 13.125 18.5938 13.75 19.0625 14.8438C19.5312 15.7812 19.2188 17.0312 18.4375 17.8125C17.9688 18.2812 17.3438 18.5937 16.5625 18.5937C15.7813 18.5937 15.1562 18.2812 14.6875 17.8125C13.9062 17.0312 13.75 15.9375 14.0625 14.8438ZM30 32.5L27.5 29.8438C28.75 29.375 29.8438 28.2812 30.3125 27.0312L32.8125 29.6875L30 32.5ZM20.7812 17.0312L23.2812 19.6875C22.6562 20 22.0312 20.3125 21.5625 20.7812C21.0938 21.25 20.625 21.875 20.4688 22.5L17.9688 19.8438L20.7812 17.0312ZM25.4687 14.8438C24.0625 14.8438 22.8125 13.5938 22.8125 12.1875C22.8125 10.7813 23.9062 9.375 25.4687 9.375C26.25 9.375 26.875 9.6875 27.3438 10.1562C27.8125 10.625 28.125 11.4062 28.125 12.0312C28.125 13.5937 26.875 14.8438 25.4687 14.8438ZM28.125 37.9687C28.125 39.5312 26.875 40.625 25.4687 40.625C24.0625 40.625 22.8125 39.375 22.8125 37.9687C22.8125 36.5625 24.0625 35.3125 25.4687 35.3125C26.25 35.3125 26.875 35.625 27.3438 36.0938C27.8125 36.5625 28.125 37.1875 28.125 37.9687ZM26.4062 16.25V19.5312C25.7812 19.375 25.3125 19.375 24.6875 19.5312V16.25H26.4062ZM26.4062 30.625V33.9063H24.6875V30.625C25.3125 30.625 25.7812 30.625 26.4062 30.625ZM34.6875 25.3125C34.2188 24.375 34.5312 23.125 35.3125 22.3438C36.0938 21.5625 37.1875 21.4062 38.2812 21.7187C39.2188 22.1875 39.8438 23.125 39.8438 24.2188C39.8438 25 39.5312 25.625 39.0625 26.0938C38.125 27.1875 36.4062 27.1875 35.3125 26.0938C35.1562 25.9375 34.8438 25.625 34.6875 25.3125ZM10.1562 24.6875C10.1562 23.125 11.4062 22.0313 12.8125 22.0313C14.2187 22.0313 15.4687 23.2812 15.4687 24.6875C15.4687 25.4688 15.1562 26.0938 14.6875 26.5625C14.2187 27.0312 13.5937 27.3438 12.8125 27.3438C11.4062 27.5 10.1562 26.25 10.1562 24.6875ZM33.75 25.625H30.4688C30.625 25 30.625 24.5312 30.4688 23.9062H33.75V25.625ZM20.1562 25.625H16.875V23.9062H20.1562C20.1562 24.375 20.1562 25 20.1562 25.625ZM25.3125 28.75C23.2813 28.75 21.5625 27.0312 21.5625 24.8437C21.5625 22.6562 23.2813 20.9375 25.3125 20.9375C27.3438 20.9375 29.0625 22.6562 29.0625 24.8437C29.0625 27.0312 27.5 28.75 25.3125 28.75Z" fill="white"/>
</svg>
