<svg width="50" height="50" viewBox="0 0 50 50" fill="none" xmlns="http://www.w3.org/2000/svg">
<path d="M25 50C38.8071 50 50 38.8071 50 25C50 11.1929 38.8071 0 25 0C11.1929 0 0 11.1929 0 25C0 38.8071 11.1929 50 25 50Z" fill="#786DBC"/>
<path d="M24.8438 16.875L22.3438 14.375C21.5625 13.75 21.5625 12.5 22.3438 11.875C23.125 11.25 24.2188 11.0937 24.8438 11.875L30.4688 17.5C31.0938 18.125 31.0938 19.375 30.4688 20L24.8438 25.625C24.0625 26.25 22.9688 26.25 22.3438 25.625C21.7188 25 21.7188 23.9062 22.3438 23.125L25 20.4688C20.1563 19.6875 15.4688 22.8125 14.6875 27.6562C13.9063 32.5 17.0313 37.1875 21.875 37.9687C26.7188 38.75 31.4063 35.625 32.1875 30.7812C32.3438 30.3125 32.3438 29.8438 32.3438 29.2188V9.53125C32.3438 8.59375 33.125 7.8125 34.0625 7.8125C35.1563 7.8125 35.9375 8.59375 35.9375 9.53125V29.375C35.7813 36.25 30.1563 41.7187 23.125 41.5625C16.25 41.5625 10.7813 35.9375 10.9375 29.0625C11.0938 22.1875 16.7188 16.7188 23.75 16.875C24.0625 16.7188 24.5313 16.7188 24.8438 16.875Z" fill="white"/>
</svg>
