<?xml version="1.0" encoding="utf-8"?>
<!-- Generator: Adobe Illustrator 20.1.0, SVG Export Plug-In . SVG Version: 6.00 Build 0)  -->
<svg version="1.1" id="Layer_1" xmlns="http://www.w3.org/2000/svg" xmlns:xlink="http://www.w3.org/1999/xlink" x="0px" y="0px"
	 viewBox="0 0 67 67" style="enable-background:new 0 0 67 67;" xml:space="preserve">
<style type="text/css">
	.st0{fill:#FCBD00;}
	.st1{fill:#FFFFFF;}
</style>
<circle class="st0" cx="33.5" cy="33.5" r="33.5"/>
<g>
	<path class="st1" d="M37.4,31.4C24,35.5,23,40.9,23,40.9s3.9-1.2,7.5-1.8c4.6-0.8,11.7,1.4,15.8-3s4.3-11.3,4.3-11.3
		S49.3,27.8,37.4,31.4z"/>
	<path class="st1" d="M19,47.9c6.7-3.5,7.5-0.9,14.6-1.1s10.3-7.3,10.3-7.3c-1.7,0.4-3.6-0.2-14,1C19.4,41.7,19,47.9,19,47.9z"/>
	<path class="st1" d="M26,48.3c-7.1-0.6-8.3,4.4-8.3,4.4c2.7-1.9,7.1,0.5,12.4,0.5s7.2-5.7,7.2-5.7C33.4,49.7,33.1,49,26,48.3z"/>
	<path class="st1" d="M55.1,15.5c1.1-3.4,1.1-6,1.1-6s-0.8,1.6-3.1,3.8c-5.1-5-12-8-19.7-8C18,5.4,5.4,18,5.4,33.5
		S18,61.6,33.5,61.6C49,61.6,61.6,49,61.6,33.5C61.6,26.7,59.2,20.4,55.1,15.5z M6.9,33.5c0-14.7,11.9-26.6,26.6-26.6
		c7.2,0,13.7,2.9,18.5,7.5c-3.4,3-9.1,6.7-18.4,9.3C10.2,30.4,14.1,48,15.9,53.4C10.4,48.6,6.9,41.4,6.9,33.5z M33.5,60.1
		c-6.2,0-11.9-2.1-16.4-5.7l0,0c-1-6.6,2.9-19.8,20.5-24.1c10.1-2.5,14.7-8.3,16.8-13.1c3.5,4.5,5.6,10.2,5.6,16.3
		C60.1,48.2,48.2,60.1,33.5,60.1z"/>
</g>
</svg>
