<svg width="50" height="50" viewBox="0 0 50 50" fill="none" xmlns="http://www.w3.org/2000/svg">
<path d="M25 50C38.8071 50 50 38.8071 50 25C50 11.1929 38.8071 0 25 0C11.1929 0 0 11.1929 0 25C0 38.8071 11.1929 50 25 50Z" fill="#16B9AD"/>
<path d="M40.625 20.625C40.625 29.0625 33.5938 35.9375 25 35.9375C16.4062 35.9375 9.375 29.0625 9.375 20.625C9.375 20 9.375 19.375 9.53125 18.75H12.3438C12.1875 19.375 12.1875 20 12.1875 20.625C12.1875 27.5 17.9688 33.2812 25 33.2812C31.7188 33.2812 37.3438 28.125 37.8125 21.5625H17.9688C18.4375 24.5313 20.7812 27.0313 23.9062 27.5C27.0312 27.9688 30 26.4062 31.4062 23.75H34.375C32.9688 27.6562 29.2188 30.3125 25 30.3125C19.5312 30.3125 15.1562 25.9375 15.1562 20.625C15.1562 20 15.1563 19.375 15.3125 18.75H40.625C40.625 19.375 40.625 20 40.625 20.625Z" fill="white"/>
</svg>
