<svg width="50" height="50" viewBox="0 0 50 50" fill="none" xmlns="http://www.w3.org/2000/svg">
<circle cx="25" cy="25" r="25" fill="white"/>
<path d="M13.4502 26.7492H14.0675V27.4952L9.61736 28.6527H9V27.9068L13.4502 26.7492Z" fill="url(#paint0_linear)"/>
<path d="M16.1511 33.2572V33.9003H16.7942L18.9035 31.6366V30.9936H18.2604L16.1511 33.2572Z" fill="url(#paint1_linear)"/>
<path d="M9 40.3312V40.9743H9.64309L14.0675 36.447V35.8039H13.4244L9 40.3312Z" fill="url(#paint2_linear)"/>
<path d="M22.2733 33.9003L23.3022 31.6109V30.9936H22.6334L21.6045 33.283V33.9003H22.2733Z" fill="url(#paint3_linear)"/>
<path d="M18.9035 14.1704V13.5273L15.791 9H15.1222V9.64309L18.2605 14.1704H18.9035Z" fill="url(#paint4_linear)"/>
<path d="M15.1222 40.3569V41H15.791L18.9035 36.4727V35.8296H18.2605L15.1222 40.3569Z" fill="url(#paint5_linear)"/>
<path d="M9 21.3473V22.0932L13.4502 23.2508H14.0675V22.5305L9.61736 21.3473H9Z" fill="url(#paint6_linear)"/>
<path d="M9 9V9.64309L13.4244 14.1704H14.0675V13.5273L9.64309 9H9Z" fill="url(#paint7_linear)"/>
<path d="M9 34.209V34.8778H9.64309L14.0675 31.6366V30.9936H13.4244L9 34.209Z" fill="url(#paint8_linear)"/>
<path d="M33.9003 28.6013V27.9325L31.7138 26.7492H31.0707V27.418L33.2829 28.6013H33.9003Z" fill="url(#paint9_linear)"/>
<path d="M33.9004 22.0675V21.3987H33.2573L31.045 22.582V23.2508H31.6881L33.9004 22.0675Z" fill="url(#paint10_linear)"/>
<path d="M21.6045 16.0997V16.717L22.6334 19.0064H23.3022V18.3891L22.2733 16.0997H21.6045Z" fill="url(#paint11_linear)"/>
<path d="M33.8231 16.7428V16.0997H33.18L31.0707 18.3633V19.0064H31.7138L33.8231 16.7428Z" fill="url(#paint12_linear)"/>
<path d="M27.598 22.2733H26.6205V23.2508H27.598V22.2733Z" fill="#BE5095"/>
<path d="M23.3537 14.1704V13.5531L22.2733 9H21.5273V9.61736L22.6335 14.1704H23.3537Z" fill="url(#paint13_linear)"/>
<path d="M26.672 30.9936V31.611L27.7009 33.9003H28.3697V33.2573L27.3408 30.9679L26.672 30.9936Z" fill="url(#paint14_linear)"/>
<path d="M28.3955 16.0997H27.7267L26.6978 18.3891V19.0321H27.3666L28.3955 16.7428V16.0997Z" fill="url(#paint15_linear)"/>
<path d="M9 15.1222V15.791L13.4244 19.0064H14.0675V18.3376L9.64309 15.1222H9Z" fill="url(#paint16_linear)"/>
<path d="M35.9326 30.9936V31.6366L40.3571 34.8521H41.0001V34.209L36.5757 30.9936H35.9326Z" fill="url(#paint17_linear)"/>
<path d="M31.0707 13.5273V14.1704H31.7395L34.852 9.64309V9H34.2089L31.0707 13.5273Z" fill="url(#paint18_linear)"/>
<path d="M35.9326 35.8296V36.4727L40.3571 41H41.0001V40.3569L36.5757 35.8296H35.9326Z" fill="url(#paint19_linear)"/>
<path d="M31.0707 35.8296V36.4727L34.2089 41H34.8778V40.3569L31.7395 35.8296H31.0707Z" fill="url(#paint20_linear)"/>
<path d="M33.8231 33.9003V33.2572L31.7138 30.9936H31.0707V31.6366L33.18 33.9003H33.8231Z" fill="url(#paint21_linear)"/>
<path d="M40.3313 9L35.9069 13.5273V14.1704H36.5499L40.9744 9.64309V9C41.0001 9 40.3313 9 40.3313 9Z" fill="url(#paint22_linear)"/>
<path d="M35.9326 18.3376V19.0064H36.5757L41.0001 15.791V15.1222H40.3571L35.9326 18.3376Z" fill="url(#paint23_linear)"/>
<path d="M35.9326 22.5048V23.2508H36.55L41.0001 22.0932V21.3473H40.3828L35.9326 22.5048Z" fill="url(#paint24_linear)"/>
<path d="M35.9326 26.7492V27.4952L40.3828 28.6527H41.0001V27.9068L36.55 26.7492H35.9326Z" fill="url(#paint25_linear)"/>
<path d="M21.5273 40.3826V41H22.2733L23.3537 36.447V35.8296H22.6335L21.5273 40.3826Z" fill="url(#paint26_linear)"/>
<path d="M16.074 27.9325V28.6013H16.7171L18.9293 27.418V26.7492H18.2862L16.074 27.9325Z" fill="url(#paint27_linear)"/>
<path d="M16.1511 16.0997V16.7428L18.2604 19.0064H18.9035V18.3633L16.7942 16.0997C16.8199 16.0997 16.1511 16.0997 16.1511 16.0997Z" fill="url(#paint28_linear)"/>
<path d="M22.3762 27.7267H23.3537V26.7492H22.3762V27.7267Z" fill="#BD687B"/>
<path d="M16.074 21.3987V22.0675L18.2862 23.2508H18.9293V22.582L16.7171 21.3987H16.074Z" fill="url(#paint29_linear)"/>
<path d="M26.6205 35.8296V36.447L27.7009 41H28.4469V40.3826L27.3665 35.8296H26.6205Z" fill="url(#paint30_linear)"/>
<path d="M26.6205 13.5531V14.1704H27.3665L28.4469 9.61736V9H27.7009L26.6205 13.5531Z" fill="url(#paint31_linear)"/>
<path d="M22.3762 23.2508H23.3537V22.2733H22.3762V23.2508Z" fill="#AC5E90"/>
<path d="M27.598 26.7492H26.6205V27.7267H27.598V26.7492Z" fill="#C85C7F"/>
<defs>
<linearGradient id="paint0_linear" x1="10.8137" y1="29.0464" x2="12.4909" y2="25.9005" gradientUnits="userSpaceOnUse">
<stop stop-color="#93966F"/>
<stop offset="1" stop-color="#9C8476"/>
</linearGradient>
<linearGradient id="paint1_linear" x1="18.9926" y1="31.0691" x2="16.0839" y2="33.8184" gradientUnits="userSpaceOnUse">
<stop stop-color="#C27E64"/>
<stop offset="1" stop-color="#CD8D56"/>
</linearGradient>
<linearGradient id="paint2_linear" x1="14.1179" y1="35.8757" x2="8.95223" y2="40.9436" gradientUnits="userSpaceOnUse">
<stop stop-color="#D7974E"/>
<stop offset="1" stop-color="#F5AE3D"/>
</linearGradient>
<linearGradient id="paint3_linear" x1="23.4558" y1="31.6845" x2="21.2179" y2="33.3874" gradientUnits="userSpaceOnUse">
<stop stop-color="#CB7365"/>
<stop offset="1" stop-color="#D57D56"/>
</linearGradient>
<linearGradient id="paint4_linear" x1="14.6846" y1="9.86634" x2="19.482" y2="13.3853" gradientUnits="userSpaceOnUse">
<stop stop-color="#3658CA"/>
<stop offset="1" stop-color="#6B59B8"/>
</linearGradient>
<linearGradient id="paint5_linear" x1="14.7584" y1="40.1916" x2="19.4426" y2="36.5054" gradientUnits="userSpaceOnUse">
<stop stop-color="#F99F36"/>
<stop offset="1" stop-color="#DC8A4C"/>
</linearGradient>
<linearGradient id="paint6_linear" x1="10.6308" y1="20.5859" x2="12.2513" y2="23.665" gradientUnits="userSpaceOnUse">
<stop stop-color="#668A87"/>
<stop offset="1" stop-color="#847C88"/>
</linearGradient>
<linearGradient id="paint7_linear" x1="14.1179" y1="14.1166" x2="8.95223" y2="9.0487" gradientUnits="userSpaceOnUse">
<stop stop-color="#4A69B0"/>
<stop offset="1" stop-color="#056EBD"/>
</linearGradient>
<linearGradient id="paint8_linear" x1="13.3784" y1="30.6675" x2="9.59187" y2="35.3003" gradientUnits="userSpaceOnUse">
<stop stop-color="#B78D63"/>
<stop offset="1" stop-color="#C5A256"/>
</linearGradient>
<linearGradient id="paint9_linear" x1="31.5165" y1="26.4008" x2="33.3299" y2="28.7545" gradientUnits="userSpaceOnUse">
<stop stop-color="#D75080"/>
<stop offset="1" stop-color="#E34B76"/>
</linearGradient>
<linearGradient id="paint10_linear" x1="31.6002" y1="23.5025" x2="33.46" y2="21.0614" gradientUnits="userSpaceOnUse">
<stop stop-color="#CF4794"/>
<stop offset="1" stop-color="#D739A3"/>
</linearGradient>
<linearGradient id="paint11_linear" x1="21.1953" y1="16.7106" x2="23.585" y2="18.2978" gradientUnits="userSpaceOnUse">
<stop stop-color="#8554B2"/>
<stop offset="1" stop-color="#9C55A5"/>
</linearGradient>
<linearGradient id="paint12_linear" x1="31.0559" y1="18.876" x2="33.9087" y2="16.1776" gradientUnits="userSpaceOnUse">
<stop stop-color="#C43CAE"/>
<stop offset="1" stop-color="#CD2CC3"/>
</linearGradient>
<linearGradient id="paint13_linear" x1="21.0063" y1="10.8344" x2="24.0983" y2="12.4318" gradientUnits="userSpaceOnUse">
<stop stop-color="#6344D6"/>
<stop offset="1" stop-color="#874ABF"/>
</linearGradient>
<linearGradient id="paint14_linear" x1="26.336" y1="31.5693" x2="28.5586" y2="33.2002" gradientUnits="userSpaceOnUse">
<stop stop-color="#D66766"/>
<stop offset="1" stop-color="#E26A55"/>
</linearGradient>
<linearGradient id="paint15_linear" x1="26.2766" y1="18.4467" x2="28.5892" y2="16.8004" gradientUnits="userSpaceOnUse">
<stop stop-color="#AD4AA9"/>
<stop offset="1" stop-color="#AD3EBB"/>
</linearGradient>
<linearGradient id="paint16_linear" x1="9.66395" y1="14.6197" x2="13.4062" y2="19.5141" gradientUnits="userSpaceOnUse">
<stop stop-color="#307CA3"/>
<stop offset="1" stop-color="#6A739A"/>
</linearGradient>
<linearGradient id="paint17_linear" x1="36.5112" y1="30.5129" x2="40.3106" y2="35.2177" gradientUnits="userSpaceOnUse">
<stop stop-color="#EA4C68"/>
<stop offset="1" stop-color="#F44752"/>
</linearGradient>
<linearGradient id="paint18_linear" x1="30.5199" y1="13.3803" x2="35.4357" y2="9.78161" gradientUnits="userSpaceOnUse">
<stop stop-color="#B930CC"/>
<stop offset="1" stop-color="#CE15F2"/>
</linearGradient>
<linearGradient id="paint19_linear" x1="41.0402" y1="40.9436" x2="35.8746" y2="35.8757" gradientUnits="userSpaceOnUse">
<stop stop-color="#F15829"/>
<stop offset="1" stop-color="#EF5948"/>
</linearGradient>
<linearGradient id="paint20_linear" x1="30.6938" y1="36.6254" x2="35.3652" y2="40.2756" gradientUnits="userSpaceOnUse">
<stop stop-color="#EA674A"/>
<stop offset="1" stop-color="#F26A28"/>
</linearGradient>
<linearGradient id="paint21_linear" x1="30.9989" y1="31.0672" x2="33.9103" y2="33.8189" gradientUnits="userSpaceOnUse">
<stop stop-color="#E15A68"/>
<stop offset="1" stop-color="#EB5A55"/>
</linearGradient>
<linearGradient id="paint22_linear" x1="41.0402" y1="9.04869" x2="35.8745" y2="14.1166" gradientUnits="userSpaceOnUse">
<stop stop-color="#F902FD"/>
<stop offset="1" stop-color="#DA1FD4"/>
</linearGradient>
<linearGradient id="paint23_linear" x1="40.3295" y1="14.6201" x2="36.5853" y2="19.5137" gradientUnits="userSpaceOnUse">
<stop stop-color="#FC11D5"/>
<stop offset="1" stop-color="#DE2AB7"/>
</linearGradient>
<linearGradient id="paint24_linear" x1="39.394" y1="20.5287" x2="37.74" y2="23.6619" gradientUnits="userSpaceOnUse">
<stop stop-color="#F922AA"/>
<stop offset="1" stop-color="#E2369D"/>
</linearGradient>
<linearGradient id="paint25_linear" x1="37.5571" y1="25.9125" x2="39.1622" y2="29.0739" gradientUnits="userSpaceOnUse">
<stop stop-color="#E64183"/>
<stop offset="1" stop-color="#F63777"/>
</linearGradient>
<linearGradient id="paint26_linear" x1="20.879" y1="39.3596" x2="23.9504" y2="37.5255" gradientUnits="userSpaceOnUse">
<stop stop-color="#F68C31"/>
<stop offset="1" stop-color="#D77C4E"/>
</linearGradient>
<linearGradient id="paint27_linear" x1="18.49" y1="26.4049" x2="16.661" y2="28.7329" gradientUnits="userSpaceOnUse">
<stop stop-color="#AC757A"/>
<stop offset="1" stop-color="#AC8270"/>
</linearGradient>
<linearGradient id="paint28_linear" x1="16.0832" y1="16.1773" x2="18.9822" y2="18.9194" gradientUnits="userSpaceOnUse">
<stop stop-color="#6466AA"/>
<stop offset="1" stop-color="#8563A1"/>
</linearGradient>
<linearGradient id="paint29_linear" x1="16.5596" y1="21.0956" x2="18.3345" y2="23.4364" gradientUnits="userSpaceOnUse">
<stop stop-color="#857390"/>
<stop offset="1" stop-color="#986C8D"/>
</linearGradient>
<linearGradient id="paint30_linear" x1="29.034" y1="39.2183" x2="25.9498" y2="37.5566" gradientUnits="userSpaceOnUse">
<stop stop-color="#F47B2C"/>
<stop offset="1" stop-color="#E5744A"/>
</linearGradient>
<linearGradient id="paint31_linear" x1="29.1263" y1="10.7241" x2="26.042" y2="12.3987" gradientUnits="userSpaceOnUse">
<stop stop-color="#952EE3"/>
<stop offset="1" stop-color="#9D3FC3"/>
</linearGradient>
</defs>
</svg>
