<svg width="60" height="60" viewBox="0 0 60 60" fill="none" xmlns="http://www.w3.org/2000/svg">
<g clip-path="url(#clip0)">
<circle cx="30" cy="30" r="30" fill="#1FBEE6"/>
<path fill-rule="evenodd" clip-rule="evenodd" d="M30.366 14.5C30.1874 14.1906 29.8573 14 29.5 14C29.1427 14 28.8126 14.1906 28.634 14.5L14.3446 39.25C14.1659 39.5594 14.1659 39.9406 14.3446 40.25C14.5232 40.5594 14.8533 40.75 15.2106 40.75H43.7894C44.1467 40.75 44.4768 40.5594 44.6554 40.25C44.8341 39.9406 44.8341 39.5594 44.6554 39.25L30.366 14.5ZM27.5838 38.75H16.9426L22.1609 29.7118L27.5838 38.75ZM29.9162 38.75H42.0574L35.8509 28H23.4662L29.9162 38.75ZM34.6962 26L29.5 17L24.3038 26H34.6962Z" fill="white"/>
</g>
<defs>
<clipPath id="clip0">
<rect width="59.952" height="60" fill="white"/>
</clipPath>
</defs>
</svg>
