<svg width="55" height="55" viewBox="0 0 55 55" fill="none" xmlns="http://www.w3.org/2000/svg">
<circle cx="27.5" cy="27.5" r="27.5" fill="#009FE2"/>
<path fill-rule="evenodd" clip-rule="evenodd" d="M17.4631 40.8462H18.9076L26.6183 29.1231L15.899 12.2308H21.1491L26.7873 21.1703L25.6719 22.9385L19.7842 13.3692L18.3497 13.3385L25.652 25.2154L33.8509 12.2308H39.101L30.8121 25.2839L29.7066 23.5333L36.8694 13.3384H35.395L28.2621 23.5025L39.7983 41.7691H34.6479L28.2142 31.6293L29.069 30.2821L35.6541 40.3641L37.1086 40.4051L29.0591 28.0564L20.3521 41.7692H15.2016L24.1847 27.5388L25.1838 29.1128L17.4631 40.8462ZM31.528 26.4175L42 42.9999H34.0003L27.4997 32.7555L20.9997 43H13L23.471 26.4143L13.6874 11H21.7966L27.5036 20.0349L33.2033 11H41.3026L31.528 26.4175Z" fill="white"/>
</svg>
