<svg width="60" height="61" viewBox="0 0 60 61" fill="none" xmlns="http://www.w3.org/2000/svg">
<g clip-path="url(#clip0)">
<path d="M29.9761 60.4422C46.4386 60.4422 59.7841 47.0967 59.7841 30.6342C59.7841 14.1717 46.4386 0.826172 29.9761 0.826172C13.5136 0.826172 0.168091 14.1717 0.168091 30.6342C0.168091 47.0967 13.5136 60.4422 29.9761 60.4422Z" fill="#0A1647"/>
<path d="M25.4793 28.9822L29.9761 38.7872L36.6551 34.9907H36.6679V27.3936L25.4793 28.9822Z" fill="#2BBDF7"/>
<path d="M45.2942 21.6967L41.1263 20.1551L36.6679 19.7964V27.3935V43.4676L43.3555 47.2683L48.6893 36.5665L45.3071 26.2704L45.2942 21.6967Z" fill="#2891F9"/>
<path d="M44.9056 19.7964L43.3555 23.5971V47.2085L50.043 43.4078V19.7964H44.9056Z" fill="#2BBDF7"/>
<path d="M43.3555 16L36.6679 19.7964L43.3555 23.5972L50.043 19.7964L43.3555 16Z" fill="#2B6DEF"/>
<path d="M29.9761 31.19L23.2885 23.8106L9.90918 19.7964V43.4078L16.5967 47.2085L18.5142 34.1409L23.2885 34.9907L29.9761 38.7871V31.19Z" fill="#2891F9"/>
<path d="M16.5967 16L9.90918 19.7964L29.9761 31.19L33.0081 29.4733L36.6679 27.3936L16.5967 16Z" fill="#2B6DEF"/>
<path d="M16.5967 31.1899V47.2085L23.2886 43.4077V34.9907L16.5967 31.1899Z" fill="#2BBDF7"/>
</g>
<defs>
<clipPath id="clip0">
<rect width="60" height="60" fill="white" transform="translate(0 0.610107)"/>
</clipPath>
</defs>
</svg>
