<svg width="55" height="56" viewBox="0 0 55 56" fill="none" xmlns="http://www.w3.org/2000/svg">
<g clip-path="url(#clip0)">
<path d="M54.5378 27.6925C54.5284 42.6421 42.4613 54.6923 27.4804 54.7671C12.7195 54.8407 0.0393186 42.7562 0.359639 27.0838C0.660489 12.3623 12.6964 0.603327 27.4193 0.611577C42.4039 0.619827 54.5473 12.7343 54.5378 27.6925Z" fill="#01A64F"/>
<path d="M35.3749 14.3128C33.2604 12.0477 30.6407 10.9854 27.469 10.9854C24.2508 10.9854 21.631 12.0477 19.5166 14.2193C17.4022 16.3457 16.3915 19.0719 16.3915 22.3526C16.3915 25.5865 17.4487 28.3126 19.5631 30.4859C21.2171 32.1947 23.1936 33.212 25.446 33.5811V35.5222H20.8049V37.6019H25.4925V38.711H20.8049V40.652H25.4477V44.3938H29.4471V40.6504H34.1348V38.7093H29.3989V37.6002H34.1332V35.5205H29.4455V33.6262C31.7444 33.2571 33.7209 32.2398 35.3749 30.531C37.4428 28.3594 38.5 25.6333 38.5 22.3977C38.5 19.2105 37.4428 16.4844 35.3749 14.3128ZM31.0546 26.6506C30.1819 27.7597 28.9401 28.3143 27.469 28.3143C26.0444 28.3143 24.8492 27.7597 23.93 26.6506C23.0107 25.5414 22.5503 24.1099 22.5503 22.3075C22.5503 20.5519 23.0107 19.1654 23.93 18.0562C24.8492 16.9471 26.0444 16.3925 27.469 16.3925C28.8487 16.3925 30.0422 16.9471 30.9632 18.103C31.9289 19.2122 32.3877 20.6437 32.3877 22.3542C32.3877 24.1082 31.9273 25.5414 31.0546 26.6506Z" fill="white"/>
</g>
<defs>
<clipPath id="clip0">
<rect width="55" height="55" fill="white" transform="translate(0 0.274902)"/>
</clipPath>
</defs>
</svg>
