<?xml version="1.0" encoding="utf-8"?>
<!-- Generator: Adobe Illustrator 24.1.0, SVG Export Plug-In . SVG Version: 6.00 Build 0)  -->
<svg version="1.1" id="Layer_1" xmlns="http://www.w3.org/2000/svg" xmlns:xlink="http://www.w3.org/1999/xlink" x="0px"
     y="0px"
     viewBox="0 0 50 50" style="enable-background:new 0 0 50 50;" xml:space="preserve">
<style type="text/css">
	.st0{fill:#B0DBFF;}
	.st1{fill:#5C9BEC;}
	.st2{fill:#FFFFFF;}
</style>
    <g>
	<rect x="6.1" y="16.3" class="st0" width="3.4" height="15.9"/>
        <g>
		<path class="st0" d="M25.7,4.7L25.7,4.7c0.2,0.4,0,0.8-0.4,1L8.9,14.9c-0.4,0.2-0.8,0-1-0.4l0,0c-0.2-0.4,0-0.8,0.4-1l16.4-9.2
			C25,4.2,25.5,4.3,25.7,4.7z"/>
            <path class="st0" d="M24.3,4.7L24.3,4.7c-0.2,0.4,0,0.8,0.4,1l16.4,9.2c0.4,0.2,0.8,0,1-0.4v0c0.2-0.4,0-0.8-0.4-1L25.3,4.4
			C24.9,4.2,24.5,4.3,24.3,4.7z"/>
            <path class="st0" d="M25,4.3L25,4.3c0.4,0,0.8,0.3,0.8,0.8v11c0,0.4-0.3,0.8-0.8,0.8h0c-0.4,0-0.8-0.3-0.8-0.8V5
			C24.2,4.6,24.5,4.3,25,4.3z"/>
	</g>
        <rect x="40.6" y="16.3" class="st0" width="3.4" height="15.9"/>
        <polygon class="st0" points="25.8,23.5 24.2,26.5 5.3,16.5 6.9,13.5 	"/>
        <polygon class="st0" points="24.3,23.5 25.9,26.5 44.7,16.5 43.1,13.5 	"/>
        <g>
		<path class="st1" d="M7.7,19.3c-2.1,0-3.8-1.7-3.8-3.8c0-2.1,1.7-3.8,3.8-3.8c2.1,0,3.8,1.7,3.8,3.8C11.6,17.6,9.8,19.3,7.7,19.3z
			"/>
            <path class="st2" d="M7.7,11.9c2,0,3.6,1.6,3.6,3.6s-1.6,3.6-3.6,3.6c-2,0-3.6-1.6-3.6-3.6S5.7,11.9,7.7,11.9 M7.7,11.4
			c-2.3,0-4.1,1.8-4.1,4.1s1.8,4.1,4.1,4.1s4.1-1.8,4.1-4.1S10,11.4,7.7,11.4L7.7,11.4z"/>
	</g>
        <g>
		<path class="st1" d="M42.3,19.3c-2.1,0-3.8-1.7-3.8-3.8c0-2.1,1.7-3.8,3.8-3.8c2.1,0,3.8,1.7,3.8,3.8
			C46.1,17.6,44.4,19.3,42.3,19.3z"/>
            <path class="st2" d="M42.3,11.9c2,0,3.6,1.6,3.6,3.6s-1.6,3.6-3.6,3.6s-3.6-1.6-3.6-3.6S40.3,11.9,42.3,11.9 M42.3,11.4
			c-2.3,0-4.1,1.8-4.1,4.1s1.8,4.1,4.1,4.1c2.3,0,4.1-1.8,4.1-4.1S44.6,11.4,42.3,11.4L42.3,11.4z"/>
	</g>
        <circle class="st1" cx="25" cy="25" r="3.6"/>
        <g>
		<path class="st0" d="M24.3,45.3L24.3,45.3c-0.2-0.4,0-0.8,0.4-1l16.4-9.2c0.4-0.2,0.8,0,1,0.4l0,0c0.2,0.4,0,0.8-0.4,1l-16.4,9.2
			C24.9,45.8,24.5,45.7,24.3,45.3z"/>
            <path class="st0" d="M25.7,45.3L25.7,45.3c0.2-0.4,0-0.8-0.4-1L8.9,35.1c-0.4-0.2-0.8,0-1,0.4h0c-0.2,0.4,0,0.8,0.4,1l16.4,9.2
			C25,45.8,25.5,45.7,25.7,45.3z"/>
            <path class="st0" d="M25,45.7L25,45.7c-0.4,0-0.8-0.3-0.8-0.8v-11c0-0.4,0.3-0.8,0.8-0.8h0c0.4,0,0.8,0.3,0.8,0.8v11
			C25.8,45.4,25.4,45.7,25,45.7z"/>
	</g>
        <g>
		<path class="st1" d="M7.7,38.3c-2.1,0-3.8-1.7-3.8-3.8c0-2.1,1.7-3.8,3.8-3.8c2.1,0,3.8,1.7,3.8,3.8C11.6,36.6,9.8,38.3,7.7,38.3z
			"/>
            <path class="st2" d="M7.7,30.9c2,0,3.6,1.6,3.6,3.6c0,2-1.6,3.6-3.6,3.6c-2,0-3.6-1.6-3.6-3.6C4.1,32.5,5.7,30.9,7.7,30.9
			 M7.7,30.3c-2.3,0-4.1,1.8-4.1,4.1c0,2.3,1.8,4.1,4.1,4.1s4.1-1.8,4.1-4.1C11.8,32.2,10,30.3,7.7,30.3L7.7,30.3z"/>
	</g>
        <g>
		<path class="st1" d="M42.3,38.3c-2.1,0-3.8-1.7-3.8-3.8c0-2.1,1.7-3.8,3.8-3.8c2.1,0,3.8,1.7,3.8,3.8
			C46.1,36.6,44.4,38.3,42.3,38.3z"/>
            <path class="st2" d="M42.3,30.9c2,0,3.6,1.6,3.6,3.6c0,2-1.6,3.6-3.6,3.6s-3.6-1.6-3.6-3.6C38.7,32.5,40.3,30.9,42.3,30.9
			 M42.3,30.3c-2.3,0-4.1,1.8-4.1,4.1c0,2.3,1.8,4.1,4.1,4.1c2.3,0,4.1-1.8,4.1-4.1C46.4,32.2,44.6,30.3,42.3,30.3L42.3,30.3z"/>
	</g>
</g>
</svg>
