<svg width="50" height="50" viewBox="0 0 50 50" fill="none" xmlns="http://www.w3.org/2000/svg">
<path d="M25 50C38.8071 50 50 38.8071 50 25C50 11.1929 38.8071 0 25 0C11.1929 0 0 11.1929 0 25C0 38.8071 11.1929 50 25 50Z" fill="url(#paint0_linear)"/>
<path d="M40.2882 12.6566C39.6616 12.4311 38.9348 12.6441 38.5087 13.1955C35.8897 16.5163 33.2581 19.8371 30.639 23.1704C29.2105 21.3659 27.7694 19.5614 26.3408 17.7569C26.2656 17.6692 25.8771 17.2055 25.1879 17.1554C24.3358 17.0927 23.8095 17.7569 23.7593 17.807C22.3308 19.599 20.8897 21.391 19.4611 23.1955C16.8671 19.8747 14.2731 16.5539 11.6666 13.2331C11.015 12.6065 10.1378 12.4436 9.53627 12.7945C9.13527 13.0326 8.95983 13.421 8.88464 13.609L8.92224 36.5664C8.95983 36.6541 9.19793 37.2431 9.86209 37.4687C10.614 37.7193 11.228 37.2807 11.2781 37.2431L19.4235 26.9423C20.9774 28.8847 22.5438 30.8271 24.0977 32.7694C24.2105 32.8446 24.5739 33.0827 25.0751 33.0576C25.5263 33.0326 25.8395 32.8321 25.9523 32.7443L30.6516 26.9799C33.1077 30.0752 35.5638 33.1579 38.02 36.2531C38.5588 37.3559 39.6992 37.7819 40.4385 37.4185C41.1152 37.0927 41.2656 36.203 41.2781 36.1027C41.2781 28.7469 41.2781 21.391 41.2781 14.0225C41.2656 13.396 40.8521 12.8571 40.2882 12.6566ZM11.8796 32.7318V17.5063L17.9573 25.1253L11.8796 32.7318ZM25.3132 29.8621C25.2882 29.8872 25.2004 29.9749 25.0626 29.9875C24.8746 30.0125 24.7493 29.8747 24.7242 29.8621C23.4586 28.2832 22.1929 26.6917 20.9273 25.1128L24.5989 20.3759C24.6992 20.3383 24.8746 20.2882 25.1002 20.2882C25.2756 20.3007 25.4009 20.3383 25.5012 20.3759C26.7293 21.9298 27.9573 23.4837 29.1729 25.0376L25.3132 29.8621ZM38.1578 32.7318L32.0551 25.1128L38.1578 17.4937V32.7318Z" fill="white"/>
<defs>
<linearGradient id="paint0_linear" x1="25.0416" y1="0.229837" x2="24.9581" y2="49.9374" gradientUnits="userSpaceOnUse">
<stop stop-color="#3AA5DD"/>
<stop offset="1" stop-color="#1A3083"/>
</linearGradient>
</defs>
</svg>
