<?xml version="1.0" encoding="utf-8"?>
<!-- Generator: Adobe Illustrator 20.1.0, SVG Export Plug-In . SVG Version: 6.00 Build 0)  -->
<svg version="1.1" id="Layer_1" xmlns="http://www.w3.org/2000/svg" xmlns:xlink="http://www.w3.org/1999/xlink" x="0px" y="0px"
	 viewBox="0 0 60 60" style="enable-background:new 0 0 60 60;" xml:space="preserve">
<style type="text/css">
	.st0{fill:#FFFFFF;}
	.st1{fill:#080817;}
</style>
<circle class="st0" cx="30" cy="30" r="30"/>
<g>
	<polygon class="st1" points="17.1,17.9 20.1,16.1 20.6,16.9 32.2,10.2 31.2,9.7 30.9,9.5 30.4,9.2 30,9 16.4,16.8 11.3,19.8 
		11.3,20.2 16.6,17.2 	"/>
	<polygon class="st1" points="17.2,21.2 23.1,17.8 23.5,18.5 35,11.9 34.2,11.4 33.7,11.2 33.3,10.9 32.9,10.7 26.2,14.6 16.5,20.1 
		11.3,23.1 11.3,23.6 16.7,20.5 	"/>
	<polygon class="st1" points="17.2,24.7 26.1,19.5 26.5,20.2 38,13.6 37.1,13.1 36.7,12.9 36.3,12.6 35.9,12.4 34.2,13.4 11.3,26.6 
		11.3,27 16.7,23.9 	"/>
	<polygon class="st1" points="17.1,28 28.9,21.2 29.3,21.9 40.8,15.2 40,14.8 39.5,14.5 39.1,14.3 38.8,14 16.4,26.9 11.3,29.9 
		11.3,30.3 16.6,27.3 	"/>
	<polygon class="st1" points="17.1,31.5 31.9,22.9 32.3,23.5 43.7,16.9 43,16.5 42.5,16.2 41.7,15.8 40.3,16.6 35.9,19.2 16.4,30.4 
		11.3,33.4 11.3,33.7 16.6,30.7 	"/>
	<polygon class="st1" points="16.9,34.8 34.8,24.5 35.2,25.3 46.7,18.6 45.8,18.2 45.4,17.9 44.6,17.4 40.2,19.9 35.8,22.5 
		16.3,33.7 11.3,36.6 11.3,37 16.5,34.1 	"/>
	<polygon class="st1" points="48.4,19.6 47.5,19.1 16.4,37.1 16.5,37.1 11.3,40.1 11.3,40.5 16.7,37.4 17.1,38.2 34.8,28 35.3,28.7 
		48.7,21 48.7,20 48.7,19.8 	"/>
	<polygon class="st1" points="16.5,40.4 13.1,42.3 13.5,42.6 16.7,40.7 17.1,41.5 34.8,31.3 35.2,32 48.7,24.2 48.7,23.3 48.7,22.8 
		48.7,21.8 16.4,40.4 	"/>
	<polygon class="st1" points="19.4,42.1 16.1,44 16.5,44.2 19.5,42.5 20,43.2 34.8,34.7 35.3,35.4 48.7,27.7 48.7,26.7 48.7,26.2 
		48.7,25.2 	"/>
	<polygon class="st1" points="44.1,31.2 19,45.7 19.4,45.9 22.6,44 23.1,44.9 34.9,38.1 35.3,38.7 48.7,31 48.7,30.2 48.7,29.6 
		48.7,28.7 44.2,31.2 	"/>
	<polygon class="st1" points="45.4,33.9 22,47.5 22.4,47.6 25.4,45.9 25.9,46.7 34.7,41.6 35.1,42.3 48.7,34.5 48.7,33.5 48.7,33 
		48.7,32.1 45.5,33.9 	"/>
	<polygon class="st1" points="48.3,35.6 24.9,49.1 25.3,49.3 28.3,47.5 28.8,48.4 34.8,44.9 35.2,45.6 48.7,37.9 48.7,36.9 
		48.7,36.4 48.7,35.4 	"/>
	<polygon class="st1" points="28.1,51 31.2,49.2 31.7,50 34.8,48.2 35.2,48.9 48.7,41.2 48.7,40.3 48.7,39.7 48.7,39.2 48.7,38.7 
		48.7,38.7 27.8,50.8 	"/>
</g>
</svg>
