<svg width="50" height="50" viewBox="0 0 50 50" fill="none" xmlns="http://www.w3.org/2000/svg">
<path d="M25 50C38.8071 50 50 38.8071 50 25C50 11.1929 38.8071 0 25 0C11.1929 0 0 11.1929 0 25C0 38.8071 11.1929 50 25 50Z" fill="#B30D23"/>
<path d="M26.4062 33.125L25 35.9375L23.4375 33.125C14.6875 32.5 7.8125 25.9375 7.8125 25.9375C7.8125 25.9375 14.5313 19.5312 23.125 18.75L24.2188 16.875L25 15.625L26.0938 17.5L26.7188 18.5937C35.3125 19.375 42.0312 25.7812 42.0312 25.7812C42.0312 25.7812 35.1562 32.5 26.4062 33.125ZM9.21875 25.9375C9.21875 25.9375 15.7812 30.4688 22.5 31.4063L19.2188 25.3125L20.1562 23.75L20.9375 25.3125L24.0625 31.5625C24.375 31.5625 24.5312 31.5625 24.8438 31.5625C25.1562 31.5625 25.3125 31.5625 25.625 31.5625L27.9688 26.875L29.6875 23.75L30.625 25.3125L27.3438 31.4063C34.0625 30.4688 40.625 26.0938 40.625 25.9375C40.625 25.7813 34.2187 21.5625 27.8125 20.4688L28.75 22.1875L27.9688 23.9062L25.7812 20.3125C25.4688 20.3125 25.1562 20.3125 24.8438 20.3125C24.5312 20.3125 24.2188 20.3125 23.9062 20.3125L21.875 23.9062L21.0938 22.3438L22.1875 20.625C15.625 21.5625 9.21875 25.9375 9.21875 25.9375Z" fill="white"/>
</svg>
