<svg width="55" height="55" viewBox="0 0 55 55" fill="none" xmlns="http://www.w3.org/2000/svg">
<path d="M27.5 55C42.6878 55 55 42.6878 55 27.5C55 12.3122 42.6878 0 27.5 0C12.3122 0 0 12.3122 0 27.5C0 42.6878 12.3122 55 27.5 55Z" fill="black"/>
<path d="M38.8953 29.0778C40.15 29.4147 41.3875 29.8048 42.5012 30.4906C42.9962 30.7948 43.4586 31.1523 43.8762 31.5545C44.495 32.242 44.4537 32.9673 43.89 33.6944C43.395 34.3269 42.7212 34.7308 42.0045 35.0677C40.1895 35.9425 38.2645 36.4409 36.2983 36.7366C34.7016 36.9772 33.0791 37.1147 31.4686 37.3158C31.3929 37.3319 31.3211 37.3629 31.2574 37.4068C31.1937 37.4508 31.1393 37.5069 31.0973 37.5719C29.9698 39.2528 28.8561 40.9355 27.7286 42.6181C27.638 42.7291 27.5553 42.8463 27.4811 42.9688C26.2903 41.1819 25.1117 39.3869 23.9456 37.5839C23.8965 37.4994 23.8263 37.4291 23.742 37.3797C23.6577 37.3303 23.5621 37.3036 23.4644 37.302C20.2451 37.0734 17.0689 36.6558 14.0284 35.5661C13.0659 35.2292 12.1447 34.8116 11.3472 34.1791C11.3042 34.1378 11.2492 34.1103 11.2097 34.0708C10.0409 33.0894 10.0117 32.0392 11.1409 31.0286C12.0347 30.2208 13.1347 29.7636 14.2759 29.413C15.4172 29.0623 16.5722 28.808 17.7289 28.5123C17.7839 28.4986 17.8389 28.4986 17.9351 28.4711C15.4447 24.6623 12.9834 20.8931 10.4655 17.0706C10.6167 17.0569 10.7267 17.0431 10.823 17.0431C12.3784 17.0294 13.9322 17.0431 15.4859 17.0294C15.5958 17.0228 15.7052 17.0486 15.8005 17.1036C15.8958 17.1586 15.9729 17.2403 16.0222 17.3388C19.7862 23.0794 23.5469 28.8217 27.3023 34.5692C27.3575 34.6653 27.422 34.7557 27.4948 34.8391C28.3611 33.5328 29.1998 32.2816 30.0248 31.0286C33.0498 26.4567 36.0766 21.89 39.1033 17.3267C39.2133 17.1652 39.2958 17.0431 39.5433 17.0431C41.1795 17.0569 42.8175 17.0569 44.4537 17.0569C44.5311 17.0569 44.6084 17.0603 44.6875 17.0706C42.1336 20.9238 39.575 24.7738 37.0116 28.6206C37.6595 28.7805 38.2783 28.9162 38.897 29.0778H38.8953ZM15.2934 32.3091C15.6131 32.6648 15.9895 32.9708 16.4072 33.2097C18.1259 34.1258 20.0251 34.4609 21.9931 34.7566C21.9656 34.6638 21.9656 34.6225 21.9519 34.5967C20.8364 32.9123 19.7364 31.2177 18.6226 29.535C18.578 29.4911 18.5235 29.4584 18.4638 29.4396C18.404 29.4208 18.3407 29.4164 18.2789 29.4267C17.6258 29.6416 16.9864 29.8977 16.3659 30.195C15.9643 30.4163 15.6057 30.708 15.3072 31.0561C15.1403 31.2207 15.0453 31.4445 15.0427 31.6789C15.0401 31.9132 15.1302 32.1391 15.2934 32.3073V32.3091ZM36.9566 33.7614C37.706 33.559 38.392 33.1699 38.9503 32.6305C39.502 32.0805 39.502 31.46 38.9503 30.8945C38.8139 30.7469 38.657 30.6196 38.4845 30.5164C37.8933 30.2208 37.2745 29.9389 36.6678 29.6433C36.4616 29.535 36.3378 29.6158 36.2141 29.8048C35.5678 30.8017 34.9078 31.7814 34.2478 32.7662C33.8353 33.385 33.4228 34.0175 32.9966 34.6637C33.1061 34.6775 33.217 34.6775 33.3266 34.6637C34.5366 34.3681 35.7603 34.0983 36.9566 33.7614V33.7614ZM36.9703 15.4688L27.5498 30.4769L18.0039 15.4688H36.9703Z" fill="white"/>
</svg>
