<svg width="65" height="65" viewBox="0 0 65 65" fill="none" xmlns="http://www.w3.org/2000/svg">
<path fill-rule="evenodd" clip-rule="evenodd" d="M0 32.5C0 14.5508 14.5506 0 32.5 0C50.4492 0 65 14.5508 65 32.5C65 50.4494 50.4492 65 32.5 65C14.5506 65 0 50.4494 0 32.5ZM24.463 16.3948L12 51L19.7175 48.2798L30.3639 18.7187C31.0119 17.0837 31.76 16.4951 33 16.4691C34.24 16.4951 34.9881 17.0837 35.6361 18.7187L46.2825 48.2798L54 51L41.537 16.3948C39.9556 12.3546 37.0072 10.0675 33.0876 10.0015V10C33.0584 10 33.0292 10.0001 33 10.0004L32.9476 10.0001L32.9124 10V10.0015C28.9928 10.0675 26.0444 12.3546 24.463 16.3948ZM33.0732 43.2962C36.0277 43.2962 38.4229 40.8458 38.4229 37.8231C38.4229 34.8004 36.0277 32.35 33.0732 32.35C30.1186 32.35 27.7235 34.8004 27.7235 37.8231C27.7235 40.8458 30.1186 43.2962 33.0732 43.2962Z" fill="url(#paint0_linear)"/>
<defs>
<linearGradient id="paint0_linear" x1="0" y1="0" x2="0" y2="65" gradientUnits="userSpaceOnUse">
<stop stop-color="#F8D175"/>
<stop offset="1" stop-color="#F4C148"/>
</linearGradient>
</defs>
</svg>
