<svg width="38" height="38" viewBox="0 0 38 38" fill="none" xmlns="http://www.w3.org/2000/svg">
<circle cx="19" cy="19" r="19" fill="#FFD12A"/>
<g clip-path="url(#clip0)">
<path d="M25.6861 23.2668V20.7236L23.6228 21.8752V24.3704L25.6861 23.2668Z" fill="white"/>
<path d="M17.0488 28.2572V30.8484L19.1602 32L21.2235 30.8484V28.2572L19.1602 29.3608L17.0488 28.2572Z" fill="white"/>
<path d="M27.9414 24.3225L23.6228 26.9136V29.5048L30.0048 25.666V23.7946V23.0749V18.2764L27.9414 19.38V24.3225Z" fill="white"/>
<path d="M25.734 18.1324V15.7332L23.5747 14.5336L19.2561 17.1248L14.9855 14.5816L12.8262 15.8292V18.2284L17.0488 20.7236V25.666L19.1601 26.8177L21.2715 25.666V20.8676L25.734 18.1324Z" fill="white"/>
<path d="M19.1122 14.4856L21.2715 13.19L19.2081 11.9424L17.0488 13.238L19.1122 14.4856Z" fill="white"/>
<path d="M28.0374 11.8464L25.8301 13.19L27.9894 14.4376V16.7889L30.1967 15.4453V13.094L28.0374 11.8464Z" fill="white"/>
<path d="M18.9682 9.4952L23.4308 11.8944L25.6381 10.5029L19.0642 7L17.4807 7.95969L16.8569 8.34357L12.7302 10.8388L14.7456 12.0384L18.9682 9.4952Z" fill="white"/>
<path d="M12.6824 23.2668L14.8417 24.5624V22.1631L12.6824 20.8676V23.2668Z" fill="white"/>
<path d="M10.6188 14.4856L12.7301 13.238L10.5228 11.8944L8.36353 13.142V15.4933L10.6188 16.8369V14.4856Z" fill="white"/>
<path d="M10.571 19.572L8.31567 18.2284V25.714L9.94715 26.6737L10.571 27.0576L14.7456 29.5048V27.1536L10.571 24.6104V19.572Z" fill="white"/>
</g>
<defs>
<clipPath id="clip0">
<rect width="21.881" height="25" fill="white" transform="translate(8.31567 7)"/>
</clipPath>
</defs>
</svg>
