<svg width="38" height="38" viewBox="0 0 38 38" fill="none" xmlns="http://www.w3.org/2000/svg">
<rect width="38" height="38" rx="19" fill="#3BEE81"/>
<path fill-rule="evenodd" clip-rule="evenodd" d="M9.61796 26.7551H8.49407V23.8234H7.48682V22.9302H10.6252V23.8234H9.61796V26.7551ZM13.9378 22.8639C15.12 22.8639 15.8648 23.622 15.8648 24.8439C15.8648 26.0659 15.12 26.8213 13.9378 26.8213C12.7529 26.8213 12.0107 26.0659 12.0107 24.8439C12.0107 23.622 12.7556 22.8639 13.9378 22.8639ZM13.9379 23.7598C13.4687 23.7598 13.156 24.1813 13.156 24.8439C13.156 25.504 13.4661 25.9254 13.9379 25.9254C14.4097 25.9254 14.7199 25.504 14.7199 24.8439C14.7199 24.1813 14.4071 23.7598 13.9379 23.7598ZM18.7058 26.7551H17.5819V22.9302H18.7058V24.5524H18.727L19.9092 22.9302H21.0888L19.8297 24.6293L21.1471 26.7551H19.8403L19.0054 25.3502L18.7058 25.7531V26.7551ZM25.3899 25.8618V26.7551H22.6916V22.9302H25.3899V23.8234H23.8155V24.4411H25.2919V25.2469H23.8155V25.8618H25.3899ZM28.2547 26.7551H27.1944V22.9302H28.0665L29.5429 24.9129H29.5641V22.9302H30.6244V26.7551H29.7629L28.2759 24.7406H28.2547V26.7551Z" fill="white"/>
<path fill-rule="evenodd" clip-rule="evenodd" d="M9.25168 19.3878H7.43408V12.8308H8.92906L11.4601 16.2297H11.4964V12.8308H13.314V19.3878H11.8372L9.28804 15.9343H9.25168V19.3878ZM17.6774 12.7172C19.704 12.7172 20.9809 14.0167 20.9809 16.1115C20.9809 18.2063 19.704 19.5014 17.6774 19.5014C15.6462 19.5014 14.3739 18.2063 14.3739 16.1115C14.3739 14.0167 15.6508 12.7172 17.6774 12.7172ZM17.6774 14.253C16.8731 14.253 16.3369 14.9755 16.3369 16.1115C16.3369 17.243 16.8686 17.9655 17.6774 17.9655C18.4862 17.9655 19.0179 17.243 19.0179 16.1115C19.0179 14.9755 18.4817 14.253 17.6774 14.253ZM26.2533 15.6344L25.2764 19.3878H23.4588L21.7684 12.8308H23.7587L24.513 16.9749H24.5493L25.5263 12.8308H27.0167L27.9937 16.9749H28.03L28.7843 12.8308H30.7746L29.0842 19.3878H27.2666L26.2897 15.6344H26.2533Z" fill="white"/>
</svg>
