<?xml version="1.0" encoding="UTF-8"?>
<svg width="128px" height="128px" viewBox="0 0 128 128" version="1.1" xmlns="http://www.w3.org/2000/svg" xmlns:xlink="http://www.w3.org/1999/xlink">
    <!-- Generator: Sketch 52.2 (67145) - http://www.bohemiancoding.com/sketch -->
    <title>NOWtoken-logo-rounded</title>
    <desc>Created with Sketch.</desc>
    <g id="10---partners" stroke="none" stroke-width="1" fill="none" fill-rule="evenodd">
        <g id="UI-Kit-September" transform="translate(-522.000000, -1461.000000)">
            <g id="NOWtoken-logo-rounded" transform="translate(522.000000, 1461.000000)">
                <rect id="Rectangle" fill="#2B2B37" x="0" y="0" width="128" height="128" rx="64"></rect>
                <path d="M31.1632653,65.3061224 L25.0408163,65.3061224 L25.0408163,43.2193878 L30.0765306,43.2193878 L38.6020408,54.6683673 L38.7244898,54.6683673 L38.7244898,43.2193878 L44.8469388,43.2193878 L44.8469388,65.3061224 L39.872449,65.3061224 L31.2857143,53.6734694 L31.1632653,53.6734694 L31.1632653,65.3061224 Z M59.544898,42.8367347 C66.3714286,42.8367347 70.672449,47.2142857 70.672449,54.2704082 C70.672449,61.3265306 66.3714286,65.6887755 59.544898,65.6887755 C52.7030612,65.6887755 48.417347,61.3265306 48.417347,54.2704082 C48.417347,47.2142857 52.7183674,42.8367347 59.544898,42.8367347 Z M59.544898,48.0102041 C56.8357143,48.0102041 55.0295919,50.4438776 55.0295919,54.2704082 C55.0295919,58.0816327 56.8204082,60.5153061 59.544898,60.5153061 C62.2693878,60.5153061 64.0602041,58.0816327 64.0602041,54.2704082 C64.0602041,50.4438776 62.2540816,48.0102041 59.544898,48.0102041 Z M88.4316327,52.6632653 L85.1408164,65.3061224 L79.0183674,65.3061224 L73.3244898,43.2193878 L80.0285715,43.2193878 L82.5693878,57.1785714 L82.6918368,57.1785714 L85.9826531,43.2193878 L91.0030613,43.2193878 L94.2938776,57.1785714 L94.4163266,57.1785714 L96.9571429,43.2193878 L103.661225,43.2193878 L97.967347,65.3061224 L91.844898,65.3061224 L88.5540817,52.6632653 L88.4316327,52.6632653 Z" id="NOW" fill="#3BEE81"></path>
                <path d="M32.3966837,90.122449 L28.6109694,90.122449 L28.6109694,80.247449 L25.2181122,80.247449 L25.2181122,77.2385204 L35.7895408,77.2385204 L35.7895408,80.247449 L32.3966837,80.247449 L32.3966837,90.122449 Z M46.9479591,77.0153061 C50.930102,77.0153061 53.4390305,79.5688776 53.4390305,83.684949 C53.4390305,87.8010204 50.930102,90.3456633 46.9479591,90.3456633 C42.9568877,90.3456633 40.4568877,87.8010204 40.4568877,83.684949 C40.4568877,79.5688776 42.9658163,77.0153061 46.9479591,77.0153061 Z M46.9479591,80.0331633 C45.367602,80.0331633 44.3140305,81.4528061 44.3140305,83.684949 C44.3140305,85.9081633 45.3586734,87.3278061 46.9479591,87.3278061 C48.5372448,87.3278061 49.5818877,85.9081633 49.5818877,83.684949 C49.5818877,81.4528061 48.5283163,80.0331633 46.9479591,80.0331633 Z M63.0081631,90.122449 L59.2224489,90.122449 L59.2224489,77.2385204 L63.0081631,77.2385204 L63.0081631,82.7028061 L63.0795917,82.7028061 L67.0617346,77.2385204 L71.0349489,77.2385204 L66.7938774,82.9617347 L71.2313774,90.122449 L66.8295917,90.122449 L64.0170917,85.3903061 L63.0081631,86.747449 L63.0081631,90.122449 Z M85.5237243,87.1135204 L85.5237243,90.122449 L76.4344386,90.122449 L76.4344386,77.2385204 L85.5237243,77.2385204 L85.5237243,80.247449 L80.2201529,80.247449 L80.2201529,82.3278061 L85.1933672,82.3278061 L85.1933672,85.0420918 L80.2201529,85.0420918 L80.2201529,87.1135204 L85.5237243,87.1135204 Z M95.173214,90.122449 L91.6017855,90.122449 L91.6017855,77.2385204 L94.5392855,77.2385204 L99.5124998,83.9170918 L99.5839283,83.9170918 L99.5839283,77.2385204 L103.155357,77.2385204 L103.155357,90.122449 L100.253571,90.122449 L95.2446426,83.3367347 L95.173214,83.3367347 L95.173214,90.122449 Z" id="TOKEN" fill="#3BEE81"></path>
            </g>
        </g>
    </g>
</svg>