<svg width="36" height="36" viewBox="0 0 36 36" fill="none" xmlns="http://www.w3.org/2000/svg">
    <path d="M19.0281 15.9777C20.5541 15.9777 21.2382 15.9377 21.3706 15.928L21.3661 15.9269C26.0477 15.7236 29.5398 14.9232 29.5398 13.9672C29.5398 13.0111 26.0466 12.2108 21.3661 12.0064V15.132C21.2348 15.1439 20.5055 15.2034 19.0491 15.2034C17.8354 15.2034 16.9572 15.1525 16.6504 15.1309V12.0042C11.9601 12.2097 8.45916 13.009 8.45916 13.9672C8.45916 14.9254 11.9601 15.7257 16.6504 15.928C16.9527 15.942 17.8145 15.9777 19.0281 15.9777Z" fill="#50AF95"/>
    <path d="M21.3706 11.682C21.3702 11.682 21.3709 11.682 21.3706 11.682V11.682Z" fill="#50AF95"/>
    <path fill-rule="evenodd" clip-rule="evenodd" d="M0 14.4441L19 34.5L38 14.4441L30.3513 1.95997e-06L7.64868 0L0 14.4441ZM21.3706 8.88516V11.682C26.6694 11.9222 30.6508 12.9517 30.6508 14.1856C30.6508 15.4197 26.6655 16.4493 21.3695 16.6883V25.6572H16.6493V16.6915C11.3411 16.4514 7.34919 15.4218 7.34919 14.1867C7.34919 12.9516 11.3411 11.921 16.6493 11.682V8.88516H10.1186V4.6186H27.9024V8.88516H21.3706Z" fill="#50AF95"/>
</svg>
