<svg version="1.1" xmlns="http://www.w3.org/2000/svg" width="24" height="24" viewBox="0 0 24 24">
  <path
      d="M13.195 10.688v1.875q-0.047 0-0.387 0.023t-0.949 0.023q-0.539 0-0.914-0.023t-0.492-0.023v-1.875q-2.063 0.094-3.445 0.422t-1.383 0.75 1.371 0.75 3.434 0.398v0q0.141 0 0.492 0.023t0.891 0.023q0.68 0 1.008-0.023t0.375-0.023v0q2.063-0.070 3.434-0.398t1.371-0.75-1.371-0.75-3.434-0.422zM12 0.75q-2.344 0-4.383 0.891-2.063 0.867-3.586 2.391t-2.391 3.586q-0.891 2.039-0.891 4.383t0.891 4.383q0.867 2.039 2.391 3.574t3.586 2.402q2.039 0.891 4.383 0.891t4.383-0.891q2.039-0.867 3.574-2.391t2.402-3.586q0.891-2.039 0.891-4.383t-0.891-4.383q-0.867-2.039-2.391-3.574t-3.586-2.402q-2.039-0.891-4.383-0.891zM13.195 13.5v5.367h-2.766v-5.367q-2.344-0.117-3.891-0.527t-1.547-0.973 1.547-0.973 3.891-0.527v-1.688h-3.82v-2.555h10.406v2.555h-3.82v1.688q2.344 0.117 3.891 0.527t1.547 0.973-1.547 0.973-3.891 0.527z"></path>
</svg>
