<svg width="13" height="17" viewBox="0 0 13 17" fill="none" xmlns="http://www.w3.org/2000/svg">
<path fill-rule="evenodd" clip-rule="evenodd" d="M10.3059 7.96038C10.2178 8.03155 10.1271 8.10495 10.0366 8.18601C10.5693 8.31761 11.0065 8.53482 11.3681 8.87093C11.8296 9.29991 11.9978 9.87877 12.0384 10.4806C12.0884 11.2193 11.994 11.9405 11.6175 12.603C11.279 13.1988 10.7699 13.5835 10.1459 13.8116C9.42527 14.0749 8.67591 14.2186 7.90561 14.2393C7.82554 14.2415 7.74241 14.2505 7.64619 14.3343L7.63679 16.6799C7.47763 16.6788 7.32094 16.6825 7.1648 16.6862C6.83483 16.694 6.50714 16.7016 6.16306 16.6648L6.15566 14.3404C5.95127 14.2662 5.75323 14.2738 5.55521 14.2813C5.39028 14.2876 5.22538 14.2939 5.05685 14.253C5.01518 14.6413 5.01977 15.0213 5.02434 15.3986C5.02948 15.8225 5.03456 16.2431 4.97398 16.6686L3.57144 16.672C3.52484 16.2817 3.53404 15.8952 3.5432 15.5102C3.55334 15.0836 3.56344 14.6589 3.49753 14.2331L0.66854 14.1995C0.653297 13.8477 0.718174 13.5179 0.782094 13.193C0.828237 12.9585 0.87387 12.7264 0.888561 12.4904C1.1203 12.4265 1.34675 12.4317 1.56971 12.4367C1.70501 12.4398 1.83904 12.4428 1.97218 12.4304C2.33018 12.397 2.51516 12.2337 2.51678 11.8703C2.52135 10.8459 2.52364 9.82151 2.52597 8.79712C2.52729 8.20826 2.52861 7.61941 2.53037 7.0305L2.5309 6.81852C2.53175 6.44039 2.53259 6.0622 2.54184 5.68422C2.55726 5.05368 2.28288 4.72869 1.57241 4.73614C1.38036 4.73813 1.18829 4.739 0.982891 4.73997L0.685994 4.74148C0.641541 4.19938 0.613269 3.68652 0.706182 3.17133C1.16033 3.14555 1.60418 3.15608 2.04574 3.1666C2.5579 3.17876 3.06698 3.19082 3.58547 3.14609L3.59747 0.809328C3.87335 0.754621 4.14293 0.762077 4.41901 0.769747C4.6175 0.775295 4.81933 0.780875 5.0293 0.76355C5.08808 1.19131 5.0799 1.61909 5.07171 2.04816C5.06511 2.39401 5.05849 2.7407 5.0869 3.08881C5.32343 3.15594 5.55324 3.14205 5.78509 3.12805C5.92242 3.11977 6.06047 3.11143 6.20107 3.11984L6.22242 0.801658C6.55369 0.758195 6.88889 0.769228 7.2323 0.780506C7.37714 0.785242 7.52344 0.790015 7.67154 0.790808C7.7179 1.19663 7.70855 1.59803 7.69925 1.997C7.68996 2.39575 7.68071 2.79207 7.72722 3.18784C8.35508 3.28433 8.94049 3.38621 9.51251 3.57679C11.3486 4.18848 11.5931 6.32776 10.827 7.44879C10.6893 7.65029 10.5044 7.79978 10.3059 7.96038ZM7.6465 7.5155C8.12838 7.3224 8.46139 6.88906 8.47297 6.40776C8.48714 5.8192 8.2028 5.37539 7.67834 5.15422C7.08324 4.90324 6.45661 4.85454 5.82484 4.86868C5.76381 4.87005 5.70167 4.86585 5.63877 4.86162C5.45941 4.84938 5.27301 4.83661 5.08911 4.95078L5.08712 7.78231C5.17239 7.78318 5.25712 7.78434 5.34126 7.7856L5.35201 7.78568C6.15843 7.79702 6.91728 7.8077 7.6465 7.5155ZM5.58247 12.4852C6.50601 12.4912 7.43011 12.4971 8.30002 12.1078C8.78125 11.8924 9.09792 11.5412 9.12649 10.994C9.15338 10.4778 8.96305 10.0612 8.51582 9.76741C8.05073 9.46192 7.52644 9.37201 6.99564 9.31936C6.36147 9.25647 5.72385 9.21427 5.07326 9.31914L5.07105 12.4592C5.23745 12.47 5.35817 12.4839 5.47894 12.4845L5.58247 12.4852Z" fill="#F89B2B"/>
</svg>
