<svg width="14" height="10" fill="none" xmlns="http://www.w3.org/2000/svg"><path d="M14 0H0v10h14V0Z" fill="#F0F0F0"/><path d="M14 1.25H0V2.5h14V1.25ZM14 3.75H0V5h14V3.75ZM14 6.25H0V7.5h14V6.25ZM14 8.75H0V10h14V8.75Z" fill="#D80027"/><path d="M7 0H0v5.385h7V0Z" fill="#2E52B2"/><path d="m2.73 2.206-.114.372h-.364l.295.23-.113.37.295-.229.295.23-.113-.372.295-.23h-.364l-.113-.37ZM2.842 3.919l-.113-.372-.113.372h-.364l.295.23-.113.37.295-.229.295.23-.113-.372.295-.23h-.364ZM1.3 3.919l-.112-.372-.112.372H.71l.295.23-.113.37.295-.229.295.23-.112-.372.295-.23H1.3ZM1.188 2.206l-.112.372H.71l.295.23-.113.37.295-.229.295.23-.112-.372.295-.23H1.3l-.113-.37ZM2.73.865l-.114.372h-.364l.295.23-.113.37.295-.229.295.23-.113-.372.295-.23h-.364L2.729.866ZM1.188.865l-.112.372H.71l.295.23-.113.37.295-.229.295.23-.112-.372.295-.23H1.3L1.188.866ZM4.27 2.206l-.112.372h-.365l.295.23-.113.37.295-.229.295.23-.112-.372.295-.23h-.365l-.113-.37ZM4.383 3.919l-.113-.372-.112.372h-.365l.295.23-.113.37.295-.229.295.23-.112-.372.295-.23h-.365ZM5.924 3.919l-.113-.372-.112.372h-.365l.295.23-.113.37.295-.229.295.23-.112-.372.295-.23h-.365ZM5.811 2.206l-.112.372h-.365l.295.23-.113.37.295-.229.295.23-.112-.372.295-.23h-.365l-.113-.37ZM4.27.865l-.112.372h-.365l.295.23-.113.37.295-.229.295.23-.112-.372.295-.23h-.365L4.27.866ZM5.811.865l-.112.372h-.365l.295.23-.113.37.295-.229.295.23-.112-.372.295-.23h-.365L5.81.866Z" fill="#F0F0F0"/></svg>
