<svg width="15" height="16" viewBox="0 0 15 16" fill="none" xmlns="http://www.w3.org/2000/svg">
<path d="M14 2.3335H0V11.6666H14V2.3335Z" fill="#F0F0F0"/>
<path d="M14 2.3335H0V5.44454H14V2.3335Z" fill="#FF9811"/>
<path d="M14 8.55566H0V11.6667H14V8.55566Z" fill="#6DA544"/>
<path d="M7.00009 8.20037C7.66298 8.20037 8.20037 7.66298 8.20037 7.00009C8.20037 6.33719 7.66298 5.7998 7.00009 5.7998C6.33719 5.7998 5.7998 6.33719 5.7998 7.00009C5.7998 7.66298 6.33719 8.20037 7.00009 8.20037Z" fill="#0052B4"/>
<path d="M7.00016 7.75031C7.41446 7.75031 7.75031 7.41446 7.75031 7.00016C7.75031 6.58586 7.41446 6.25 7.00016 6.25C6.58586 6.25 6.25 6.58586 6.25 7.00016C6.25 7.41446 6.58586 7.75031 7.00016 7.75031Z" fill="#F0F0F0"/>
<path d="M7.00018 6.07422L7.23162 6.59908L7.80187 6.53707L7.46303 6.99991L7.80187 7.46276L7.23162 7.40075L7.00018 7.92561L6.76874 7.40075L6.19849 7.46276L6.53733 6.99991L6.19849 6.53707L6.76874 6.59908L7.00018 6.07422Z" fill="#0052B4"/>
</svg>
