<svg width="14" height="10" fill="none" xmlns="http://www.w3.org/2000/svg"><path d="M14 0H0v10h14V0Z" fill="#F0F0F0"/><path d="M14 0H0v3.333h14V0Z" fill="#6DA544"/><path d="M14 6.667H0V10h14V6.667ZM8.213 3.957h-.488c.004.057.006.115.006.174 0 .386-.09.762-.248 1.028a.925.925 0 0 1-.239.277v-1.48h-.487v1.48a.926.926 0 0 1-.24-.277c-.157-.267-.247-.642-.247-1.028a2.5 2.5 0 0 1 .006-.174h-.488a3.173 3.173 0 0 0-.005.174c0 1.072.535 1.913 1.218 1.913.682 0 1.217-.84 1.217-1.913 0-.06-.002-.117-.005-.174Z" fill="#D80027"/><path d="M1.826 2.899h-.608v.715h.608v-.715ZM.61 2.9H0v.715h.61V2.9ZM3.044 2.899h-.608v.715h.608v-.715ZM4.262 2.899h-.61v.715h.61v-.715ZM5.479 2.899H4.87v.715h.609v-.715ZM6.696 2.899h-.608v.715h.608v-.715ZM7.914 2.899h-.61v.715h.61v-.715ZM9.13 2.899h-.608v.715h.609v-.715ZM10.348 2.899H9.74v.715h.61v-.715ZM11.566 2.899h-.609v.715h.609v-.715ZM12.783 2.899h-.608v.715h.608v-.715ZM14 2.899h-.608v.715H14v-.715ZM1.826 6.353h-.608v.748h.608v-.748ZM.61 6.353H0v.748h.61v-.748ZM3.044 6.353h-.608v.748h.608v-.748ZM4.262 6.353h-.61v.748h.61v-.748ZM5.479 6.353H4.87v.748h.609v-.748ZM6.696 6.353h-.608v.748h.608v-.748ZM7.914 6.353h-.61v.748h.61v-.748ZM9.13 6.353h-.608v.748h.609v-.748ZM10.348 6.353H9.74v.748h.61v-.748ZM11.566 6.353h-.609v.748h.609v-.748ZM12.783 6.353h-.608v.748h.608v-.748ZM14 6.353h-.608v.748H14v-.748Z" fill="#F0F0F0"/></svg>
