<svg width="15" height="16" viewBox="0 0 15 16" fill="none" xmlns="http://www.w3.org/2000/svg">
<g clip-path="url(#clip0)">
<path d="M14 2.75635H0V12.0898H14V2.75635Z" fill="#F0F0F0"/>
<path d="M8.75024 6.41297H7.58357L7.00024 5.40259L6.41692 6.41294H5.25024L5.83362 7.42332L5.25024 8.43364H6.41692L7.00024 9.44402L7.58357 8.43367H8.75024L8.16687 7.42329L8.75024 6.41297ZM7.7169 7.42329L7.35858 8.04397H6.64193L6.28359 7.42329L6.64193 6.80261H7.35858L7.7169 7.42329ZM7.00024 6.18197L7.1336 6.41297H6.86689L7.00024 6.18197ZM5.92522 6.80261H6.19196L6.05861 7.03361L5.92522 6.80261ZM5.92522 8.04399L6.05858 7.81299L6.19194 8.04399H5.92522ZM7.00024 8.66464L6.86692 8.43364H7.13363L7.00024 8.66464ZM8.07526 8.04399H7.80853L7.94188 7.81299L8.07526 8.04399ZM7.80853 6.80261H8.07526L7.94191 7.03361L7.80853 6.80261Z" fill="#2E52B2"/>
<path d="M14.0005 3.33984H0.000488281V4.50641H14.0005V3.33984Z" fill="#2E52B2"/>
<path d="M14 10.3396H0V11.5062H14V10.3396Z" fill="#2E52B2"/>
</g>
<defs>
<clipPath id="clip0">
<rect y="0.423096" width="14" height="14" fill="white"/>
</clipPath>
</defs>
</svg>
