<svg width="14" height="10" fill="none" xmlns="http://www.w3.org/2000/svg"><path d="M14 0H0v10h14V0Z" fill="#D80027"/><path d="M5.377 0v10H0V0h5.377Z" fill="#6DA544"/><path d="M5.377 6.875c.966 0 1.75-.84 1.75-1.875 0-1.035-.784-1.875-1.75-1.875-.967 0-1.75.84-1.75 1.875 0 1.036.783 1.875 1.75 1.875Z" fill="#FFDA44"/><path d="M4.393 4.063v1.172c0 .582.44 1.054.984 1.054s.984-.472.984-1.054V4.063H4.393Z" fill="#D80027"/><path d="M5.377 5.586c-.181 0-.328-.158-.328-.351v-.47h.656v.47c0 .193-.147.351-.328.351Z" fill="#F0F0F0"/></svg>
