<svg width="14" height="10" fill="none" xmlns="http://www.w3.org/2000/svg"><path d="M14 0H0v10h14V0Z" fill="#6DA544"/><path d="M5.019 5.978c0 .36.266.652.594.652h1.783c0 .3.222.544.495.544h.595c.273 0 .495-.244.495-.544v-.652H5.02ZM9.03 2.826v1.522c0 .24-.177.434-.395.434v.653c.546 0 .99-.488.99-1.087V2.826h-.594ZM4.771 4.349c0 .24-.178.434-.396.434v.653c.546 0 .99-.488.99-1.087V2.827h-.594v1.522Z" fill="#F0F0F0"/><path d="M8.733 2.826H8.14v1.522h.595V2.826ZM7.248 3.696c0 .06-.045.108-.1.108-.054 0-.099-.049-.099-.108v-.87h-.594v.87c0 .06-.044.108-.099.108-.055 0-.1-.049-.1-.108v-.87h-.593v.87c0 .419.31.76.693.76.147 0 .284-.05.396-.137a.648.648 0 0 0 .484.131c-.042.19-.198.332-.385.332v.653c.546 0 .99-.488.99-1.087V2.826h-.594v.87Z" fill="#F0F0F0"/><path d="M6.554 4.782h-.891v.652h.891v-.652Z" fill="#F0F0F0"/></svg>
