<svg width="14" height="10" fill="none" xmlns="http://www.w3.org/2000/svg"><path d="M14 0H0v10h14V0Z" fill="#F0F0F0"/><path d="M8.704 5c0 .456-.763 1.598-1.704 1.598S5.296 5.456 5.296 5c0-1.009.763-1.826 1.704-1.826S8.704 3.99 8.704 5Z" fill="#D80027"/><path d="M8.704 5c0 1.009-.763 1.826-1.704 1.826S5.296 6.01 5.296 5" fill="#0052B4"/><path d="m9.26 6.13-.452.484.3.323.453-.484-.301-.323ZM8.506 6.936l-.452.485.302.322.452-.484-.302-.323ZM10.164 7.098l-.452.484.3.323.453-.484-.301-.323ZM9.41 7.905l-.452.484.302.323.451-.484-.3-.323ZM9.711 6.614l-.451.484.3.323.453-.484-.302-.323ZM8.959 7.42l-.452.485.3.323.453-.484-.301-.323ZM8.507 2.094l1.205 1.292.301-.323-1.205-1.291-.301.322ZM8.055 2.579l.452.484.3-.323-.451-.484-.301.323ZM8.808 3.386l.452.484.3-.323-.451-.484-.301.323ZM8.958 1.61l.452.484.301-.322-.452-.485-.301.323ZM9.711 2.417l.452.485.302-.323-.452-.484-.302.322ZM5.042 8.39 3.836 7.097l-.3.323L4.74 8.71l.302-.322ZM5.493 7.905l-.452-.484-.301.323.452.484.301-.323ZM4.74 7.098l-.452-.484-.3.323.451.484.301-.323ZM5.946 7.421 4.74 6.13l-.3.323 1.204 1.29.302-.322ZM3.837 2.901l1.205-1.29-.302-.324L3.535 2.58l.302.322ZM4.288 3.386l1.205-1.292-.301-.322-1.205 1.29.301.324ZM4.74 3.87l1.205-1.291-.3-.323-1.206 1.291.301.323Z" fill="#000"/></svg>
